<?xml version="1.0" encoding="utf-8" standalone="no"?>
<!DOCTYPE svg PUBLIC "-//W3C//DTD SVG 1.1//EN"
  "http://www.w3.org/Graphics/SVG/1.1/DTD/svg11.dtd">
<svg xmlns:xlink="http://www.w3.org/1999/xlink" width="540pt" height="129.6pt" viewBox="0 0 540 129.6" xmlns="http://www.w3.org/2000/svg" version="1.1">
 <metadata>
  <rdf:RDF xmlns:dc="http://purl.org/dc/elements/1.1/" xmlns:cc="http://creativecommons.org/ns#" xmlns:rdf="http://www.w3.org/1999/02/22-rdf-syntax-ns#">
   <cc:Work>
    <dc:type rdf:resource="http://purl.org/dc/dcmitype/StillImage"/>
    <dc:date>2025-04-05T04:19:39.989620</dc:date>
    <dc:format>image/svg+xml</dc:format>
    <dc:creator>
     <cc:Agent>
      <dc:title>Matplotlib v3.10.1, https://matplotlib.org/</dc:title>
     </cc:Agent>
    </dc:creator>
   </cc:Work>
  </rdf:RDF>
 </metadata>
 <defs>
  <style type="text/css">*{stroke-linejoin: round; stroke-linecap: butt}</style>
 </defs>
 <g id="figure_1">
  <g id="patch_1">
   <path d="M 0 129.6 
L 540 129.6 
L 540 0 
L 0 0 
z
" style="fill: #ffffff"/>
  </g>
  <g id="axes_1">
   <g id="patch_2">
    <path d="M 34.31 98.44 
L 540 98.44 
L 540 0 
L 34.31 0 
z
" style="fill: #ffffff"/>
   </g>
   <g id="matplotlib.axis_1">
    <g id="xtick_1">
     <g id="line2d_1">
      <path d="M 34.31 98.44 
L 34.31 0 
" clip-path="url(#p92d226640b)" style="fill: none; stroke: #b0b0b0; stroke-width: 0.8; stroke-linecap: square"/>
     </g>
     <g id="line2d_2">
      <defs>
       <path id="m3ab99951f0" d="M 0 0 
L 0 3.5 
" style="stroke: #000000; stroke-width: 0.8"/>
      </defs>
      <g>
       <use xlink:href="#m3ab99951f0" x="34.31" y="98.44" style="stroke: #000000; stroke-width: 0.8"/>
      </g>
     </g>
     <g id="text_1">
      <text style="font-size: 10px; font-family: 'Times New Roman'; text-anchor: middle" x="34.31" y="112.38375" transform="rotate(-0 34.31 112.38375)">0</text>
     </g>
    </g>
    <g id="xtick_2">
     <g id="line2d_3">
      <path d="M 94.662071 98.44 
L 94.662071 0 
" clip-path="url(#p92d226640b)" style="fill: none; stroke: #b0b0b0; stroke-width: 0.8; stroke-linecap: square"/>
     </g>
     <g id="line2d_4">
      <g>
       <use xlink:href="#m3ab99951f0" x="94.662071" y="98.44" style="stroke: #000000; stroke-width: 0.8"/>
      </g>
     </g>
     <g id="text_2">
      <text style="font-size: 10px; font-family: 'Times New Roman'; text-anchor: middle" x="94.662071" y="112.38375" transform="rotate(-0 94.662071 112.38375)">50</text>
     </g>
    </g>
    <g id="xtick_3">
     <g id="line2d_5">
      <path d="M 155.014141 98.44 
L 155.014141 0 
" clip-path="url(#p92d226640b)" style="fill: none; stroke: #b0b0b0; stroke-width: 0.8; stroke-linecap: square"/>
     </g>
     <g id="line2d_6">
      <g>
       <use xlink:href="#m3ab99951f0" x="155.014141" y="98.44" style="stroke: #000000; stroke-width: 0.8"/>
      </g>
     </g>
     <g id="text_3">
      <text style="font-size: 10px; font-family: 'Times New Roman'; text-anchor: middle" x="155.014141" y="112.38375" transform="rotate(-0 155.014141 112.38375)">100</text>
     </g>
    </g>
    <g id="xtick_4">
     <g id="line2d_7">
      <path d="M 215.366212 98.44 
L 215.366212 0 
" clip-path="url(#p92d226640b)" style="fill: none; stroke: #b0b0b0; stroke-width: 0.8; stroke-linecap: square"/>
     </g>
     <g id="line2d_8">
      <g>
       <use xlink:href="#m3ab99951f0" x="215.366212" y="98.44" style="stroke: #000000; stroke-width: 0.8"/>
      </g>
     </g>
     <g id="text_4">
      <text style="font-size: 10px; font-family: 'Times New Roman'; text-anchor: middle" x="215.366212" y="112.38375" transform="rotate(-0 215.366212 112.38375)">150</text>
     </g>
    </g>
    <g id="xtick_5">
     <g id="line2d_9">
      <path d="M 275.718283 98.44 
L 275.718283 0 
" clip-path="url(#p92d226640b)" style="fill: none; stroke: #b0b0b0; stroke-width: 0.8; stroke-linecap: square"/>
     </g>
     <g id="line2d_10">
      <g>
       <use xlink:href="#m3ab99951f0" x="275.718283" y="98.44" style="stroke: #000000; stroke-width: 0.8"/>
      </g>
     </g>
     <g id="text_5">
      <text style="font-size: 10px; font-family: 'Times New Roman'; text-anchor: middle" x="275.718283" y="112.38375" transform="rotate(-0 275.718283 112.38375)">200</text>
     </g>
    </g>
    <g id="xtick_6">
     <g id="line2d_11">
      <path d="M 336.070353 98.44 
L 336.070353 0 
" clip-path="url(#p92d226640b)" style="fill: none; stroke: #b0b0b0; stroke-width: 0.8; stroke-linecap: square"/>
     </g>
     <g id="line2d_12">
      <g>
       <use xlink:href="#m3ab99951f0" x="336.070353" y="98.44" style="stroke: #000000; stroke-width: 0.8"/>
      </g>
     </g>
     <g id="text_6">
      <text style="font-size: 10px; font-family: 'Times New Roman'; text-anchor: middle" x="336.070353" y="112.38375" transform="rotate(-0 336.070353 112.38375)">250</text>
     </g>
    </g>
    <g id="xtick_7">
     <g id="line2d_13">
      <path d="M 396.422424 98.44 
L 396.422424 0 
" clip-path="url(#p92d226640b)" style="fill: none; stroke: #b0b0b0; stroke-width: 0.8; stroke-linecap: square"/>
     </g>
     <g id="line2d_14">
      <g>
       <use xlink:href="#m3ab99951f0" x="396.422424" y="98.44" style="stroke: #000000; stroke-width: 0.8"/>
      </g>
     </g>
     <g id="text_7">
      <text style="font-size: 10px; font-family: 'Times New Roman'; text-anchor: middle" x="396.422424" y="112.38375" transform="rotate(-0 396.422424 112.38375)">300</text>
     </g>
    </g>
    <g id="xtick_8">
     <g id="line2d_15">
      <path d="M 456.774495 98.44 
L 456.774495 0 
" clip-path="url(#p92d226640b)" style="fill: none; stroke: #b0b0b0; stroke-width: 0.8; stroke-linecap: square"/>
     </g>
     <g id="line2d_16">
      <g>
       <use xlink:href="#m3ab99951f0" x="456.774495" y="98.44" style="stroke: #000000; stroke-width: 0.8"/>
      </g>
     </g>
     <g id="text_8">
      <text style="font-size: 10px; font-family: 'Times New Roman'; text-anchor: middle" x="456.774495" y="112.38375" transform="rotate(-0 456.774495 112.38375)">350</text>
     </g>
    </g>
    <g id="xtick_9">
     <g id="line2d_17">
      <path d="M 517.126565 98.44 
L 517.126565 0 
" clip-path="url(#p92d226640b)" style="fill: none; stroke: #b0b0b0; stroke-width: 0.8; stroke-linecap: square"/>
     </g>
     <g id="line2d_18">
      <g>
       <use xlink:href="#m3ab99951f0" x="517.126565" y="98.44" style="stroke: #000000; stroke-width: 0.8"/>
      </g>
     </g>
     <g id="text_9">
      <text style="font-size: 10px; font-family: 'Times New Roman'; text-anchor: middle" x="517.126565" y="112.38375" transform="rotate(-0 517.126565 112.38375)">400</text>
     </g>
    </g>
    <g id="text_10">
     <text style="font-size: 12px; font-family: 'Times New Roman'; text-anchor: middle" x="287.155" y="126.855312" transform="rotate(-0 287.155 126.855312)">Simulation Run</text>
    </g>
   </g>
   <g id="matplotlib.axis_2">
    <g id="ytick_1">
     <g id="line2d_19">
      <path d="M 34.31 98.44 
L 540 98.44 
" clip-path="url(#p92d226640b)" style="fill: none; stroke: #b0b0b0; stroke-width: 0.8; stroke-linecap: square"/>
     </g>
     <g id="line2d_20">
      <defs>
       <path id="ma350d093d2" d="M 0 0 
L -3.5 0 
" style="stroke: #000000; stroke-width: 0.8"/>
      </defs>
      <g>
       <use xlink:href="#ma350d093d2" x="34.31" y="98.44" style="stroke: #000000; stroke-width: 0.8"/>
      </g>
     </g>
     <g id="text_11">
      <text style="font-size: 10px; font-family: 'Times New Roman'; text-anchor: end" x="27.31" y="101.911875" transform="rotate(-0 27.31 101.911875)">0.0</text>
     </g>
    </g>
    <g id="ytick_2">
     <g id="line2d_21">
      <path d="M 34.31 63.282857 
L 540 63.282857 
" clip-path="url(#p92d226640b)" style="fill: none; stroke: #b0b0b0; stroke-width: 0.8; stroke-linecap: square"/>
     </g>
     <g id="line2d_22">
      <g>
       <use xlink:href="#ma350d093d2" x="34.31" y="63.282857" style="stroke: #000000; stroke-width: 0.8"/>
      </g>
     </g>
     <g id="text_12">
      <text style="font-size: 10px; font-family: 'Times New Roman'; text-anchor: end" x="27.31" y="66.754732" transform="rotate(-0 27.31 66.754732)">0.5</text>
     </g>
    </g>
    <g id="ytick_3">
     <g id="line2d_23">
      <path d="M 34.31 28.125714 
L 540 28.125714 
" clip-path="url(#p92d226640b)" style="fill: none; stroke: #b0b0b0; stroke-width: 0.8; stroke-linecap: square"/>
     </g>
     <g id="line2d_24">
      <g>
       <use xlink:href="#ma350d093d2" x="34.31" y="28.125714" style="stroke: #000000; stroke-width: 0.8"/>
      </g>
     </g>
     <g id="text_13">
      <text style="font-size: 10px; font-family: 'Times New Roman'; text-anchor: end" x="27.31" y="31.597589" transform="rotate(-0 27.31 31.597589)">1.0</text>
     </g>
    </g>
    <g id="text_14">
     <text style="font-size: 12px; font-family: 'Times New Roman'; text-anchor: middle" x="8.243125" y="49.22" transform="rotate(-90 8.243125 49.22)">Normalized Value</text>
    </g>
   </g>
   <g id="line2d_25">
    <path d="M 34.31 19.030352 
L 35.517041 36.077694 
L 36.724083 29.507964 
L 37.931124 33.500087 
L 39.138166 24.901682 
L 40.345207 18.780775 
L 41.552248 22.032335 
L 42.75929 23.045571 
L 43.966331 19.659499 
L 45.173373 22.573746 
L 46.380414 22.922569 
L 47.587456 25.773167 
L 48.794497 23.968039 
L 50.001538 24.885544 
L 51.20858 25.266828 
L 52.415621 26.217236 
L 53.622663 26.393806 
L 54.829704 25.90989 
L 56.036745 23.955712 
L 57.243787 24.249058 
L 59.65787 26.599029 
L 60.864911 25.899178 
L 62.071953 27.206234 
L 63.278994 26.508628 
L 64.486035 26.251715 
L 66.900118 27.96013 
L 68.10716 28.295286 
L 70.521242 27.754637 
L 71.728284 27.282252 
L 74.142367 27.438707 
L 76.556449 28.720358 
L 77.763491 28.938894 
L 78.970532 28.841183 
L 80.177574 28.610077 
L 81.384615 28.98004 
L 82.591657 28.898298 
L 83.798698 28.277942 
L 87.419822 28.613866 
L 88.626864 28.351886 
L 89.833905 28.410037 
L 91.040946 27.999162 
L 92.247988 28.561024 
L 93.455029 28.270476 
L 94.662071 27.621671 
L 95.869112 27.7011 
L 97.076153 27.381463 
L 98.283195 27.773245 
L 99.490236 28.030722 
L 100.697278 28.136215 
L 101.904319 28.428446 
L 103.111361 28.337668 
L 104.318402 28.458601 
L 105.525443 28.433418 
L 106.732485 28.647166 
L 107.939526 29.038702 
L 110.353609 29.526412 
L 111.56065 29.981675 
L 112.767692 29.610676 
L 113.974733 29.464484 
L 115.181775 28.933675 
L 116.388816 28.87687 
L 117.595858 28.983432 
L 118.802899 29.298118 
L 120.00994 28.871319 
L 121.216982 28.728097 
L 123.631065 28.915796 
L 124.838106 28.77246 
L 126.045147 28.506612 
L 127.252189 28.500211 
L 129.666272 28.995154 
L 130.873313 28.793132 
L 132.080354 28.999674 
L 133.287396 28.833837 
L 138.115562 28.691304 
L 139.322603 28.816167 
L 140.529644 28.203182 
L 144.150769 28.663377 
L 145.35781 28.460942 
L 147.771893 28.31547 
L 148.978934 28.56985 
L 150.185976 28.513211 
L 151.393017 27.846119 
L 152.600058 27.979826 
L 153.8071 27.912251 
L 155.014141 28.095242 
L 156.221183 28.078829 
L 157.428224 27.624791 
L 158.635266 27.462021 
L 162.25639 27.451386 
L 163.463431 27.30304 
L 164.670473 27.530886 
L 167.084555 27.71722 
L 168.291597 27.864457 
L 169.498638 27.822765 
L 170.70568 27.959478 
L 173.119763 27.865707 
L 174.326804 28.116999 
L 175.533845 28.185668 
L 176.740887 28.0152 
L 177.947928 28.2428 
L 179.15497 28.120953 
L 180.362011 27.694681 
L 182.776094 27.936872 
L 183.983135 28.085061 
L 188.811301 27.835616 
L 191.225384 28.102253 
L 193.639467 28.380996 
L 194.846508 28.580109 
L 196.053549 28.374537 
L 198.467632 28.353773 
L 205.709881 28.920156 
L 206.916922 28.761646 
L 209.331005 29.084971 
L 210.538046 28.888673 
L 211.745088 28.83108 
L 212.952129 28.649848 
L 222.60846 29.08298 
L 223.815502 28.916 
L 225.022543 28.956488 
L 226.229585 29.109174 
L 229.850709 28.983105 
L 231.05775 29.092095 
L 232.264792 28.939794 
L 234.678875 29.012466 
L 235.885916 29.064415 
L 237.092957 28.843026 
L 238.299999 28.825575 
L 241.921123 29.150718 
L 251.577454 29.351796 
L 255.198579 28.974419 
L 258.819703 29.276789 
L 261.233786 29.217656 
L 263.647868 29.449978 
L 267.268993 29.300709 
L 268.476034 29.523651 
L 270.890117 29.570937 
L 273.3042 29.535509 
L 274.511241 29.723385 
L 276.925324 29.704873 
L 278.132365 29.831392 
L 280.546448 29.636185 
L 284.167573 29.589417 
L 285.374614 29.530245 
L 286.581655 29.349879 
L 288.995738 29.353336 
L 290.20278 29.4715 
L 291.409821 29.404634 
L 293.823904 29.418005 
L 298.652069 29.516638 
L 301.066152 29.569428 
L 302.273194 29.69626 
L 303.480235 29.630485 
L 305.894318 29.699254 
L 307.101359 29.587995 
L 320.378815 29.706455 
L 321.585856 29.581732 
L 325.206981 29.65755 
L 327.621063 29.702315 
L 332.449229 29.524459 
L 336.070353 29.50423 
L 337.277395 29.627606 
L 340.898519 29.534498 
L 343.312602 29.592665 
L 345.726685 29.61568 
L 346.933726 29.609534 
L 348.140767 29.449547 
L 352.968933 29.479836 
L 357.797099 29.445429 
L 359.00414 29.508226 
L 367.45343 29.242807 
L 369.867513 29.408048 
L 371.074554 29.321249 
L 373.488637 29.331617 
L 378.316803 29.231648 
L 379.523844 29.069808 
L 386.766093 29.037533 
L 387.973134 28.632083 
L 396.422424 28.727284 
L 398.836507 28.774671 
L 400.043548 28.771727 
L 401.25059 28.641465 
L 412.113962 28.8003 
L 414.528045 28.833875 
L 421.770294 28.744375 
L 424.184376 28.797887 
L 431.426625 28.891447 
L 435.047749 29.091387 
L 436.254791 27.999947 
L 438.668873 28.011183 
L 441.082956 28.094576 
L 447.118163 28.079324 
L 450.739288 28.19661 
L 451.946329 28.092442 
L 459.188577 28.111896 
L 461.60266 27.976251 
L 474.880116 28.161887 
L 477.294199 28.284705 
L 479.708281 28.20511 
L 490.571654 28.252432 
L 505.056151 28.269707 
L 506.263193 28.107816 
L 515.919524 28.125714 
L 515.919524 28.125714 
" clip-path="url(#p92d226640b)" style="fill: none; stroke: #4169e1; stroke-width: 1.5; stroke-linecap: square"/>
   </g>
   <g id="line2d_26">
    <path d="M 34.31 98.44 
L 35.517041 68.191481 
L 36.724083 69.289369 
L 37.931124 71.600573 
L 39.138166 46.187185 
L 40.345207 35.397884 
L 41.552248 37.801138 
L 42.75929 44.632982 
L 43.966331 41.064403 
L 45.173373 38.846127 
L 46.380414 44.137103 
L 47.587456 39.358652 
L 48.794497 39.833434 
L 50.001538 42.880547 
L 51.20858 46.372667 
L 52.415621 48.216606 
L 53.622663 51.119002 
L 54.829704 53.333586 
L 56.036745 48.552902 
L 57.243787 50.877079 
L 58.450828 50.375763 
L 59.65787 49.427476 
L 60.864911 50.436889 
L 62.071953 48.347172 
L 63.278994 49.135194 
L 64.486035 50.859781 
L 65.693077 50.371592 
L 66.900118 50.30538 
L 70.521242 54.193703 
L 71.728284 54.856379 
L 74.142367 57.370626 
L 75.349408 56.966496 
L 76.556449 56.745182 
L 80.177574 59.535626 
L 81.384615 59.952623 
L 82.591657 60.86352 
L 83.798698 60.11588 
L 87.419822 62.487784 
L 88.626864 62.947885 
L 89.833905 63.686846 
L 91.040946 63.585004 
L 92.247988 62.719112 
L 93.455029 63.002981 
L 94.662071 61.507093 
L 95.869112 62.183851 
L 97.076153 62.314949 
L 98.283195 62.137178 
L 99.490236 62.424615 
L 100.697278 63.004037 
L 101.904319 63.127948 
L 105.525443 64.755576 
L 106.732485 65.022452 
L 107.939526 64.588104 
L 110.353609 64.877669 
L 111.56065 64.013326 
L 112.767692 63.603727 
L 113.974733 63.976854 
L 115.181775 62.518758 
L 117.595858 63.441012 
L 118.802899 63.212443 
L 120.00994 62.355553 
L 122.424023 63.109751 
L 124.838106 63.814604 
L 126.045147 63.705209 
L 127.252189 64.150199 
L 130.873313 64.096949 
L 132.080354 64.156105 
L 133.287396 64.334435 
L 135.701479 65.010857 
L 138.115562 65.741821 
L 139.322603 65.97221 
L 140.529644 62.895318 
L 142.943727 63.110262 
L 144.150769 63.378168 
L 145.35781 63.362755 
L 147.771893 63.98826 
L 148.978934 63.707283 
L 150.185976 64.033297 
L 151.393017 59.891415 
L 152.600058 60.098435 
L 153.8071 60.434796 
L 155.014141 60.462546 
L 156.221183 60.832042 
L 157.428224 59.00852 
L 158.635266 59.103632 
L 161.049348 59.802679 
L 162.25639 60.091679 
L 163.463431 60.201667 
L 164.670473 59.9689 
L 165.877514 60.290509 
L 168.291597 60.509731 
L 169.498638 60.825134 
L 170.70568 60.935258 
L 173.119763 61.52123 
L 174.326804 61.074335 
L 175.533845 61.333568 
L 176.740887 61.288478 
L 177.947928 60.956446 
L 179.15497 61.080788 
L 180.362011 59.098517 
L 181.569052 59.037329 
L 182.776094 59.294198 
L 183.983135 59.323938 
L 187.604259 60.111614 
L 190.018342 59.749919 
L 192.432425 60.114694 
L 193.639467 59.972641 
L 196.053549 59.408341 
L 199.674674 60.023328 
L 200.881715 60.192431 
L 202.088756 59.801768 
L 205.709881 60.158912 
L 206.916922 60.05078 
L 208.123963 60.132216 
L 210.538046 59.389484 
L 211.745088 59.602587 
L 212.952129 59.357271 
L 217.780295 60.184498 
L 222.60846 60.894565 
L 223.815502 60.676555 
L 225.022543 60.887102 
L 226.229585 60.735987 
L 231.05775 61.293563 
L 232.264792 61.122744 
L 233.471833 61.220795 
L 235.885916 61.613962 
L 237.092957 60.974807 
L 238.299999 61.189833 
L 239.50704 61.062126 
L 240.714082 60.795787 
L 245.542247 61.553456 
L 246.749289 61.441004 
L 250.370413 62.005455 
L 251.577454 62.206751 
L 252.784496 61.974924 
L 253.991537 61.576579 
L 255.198579 61.732071 
L 257.612661 61.480748 
L 261.233786 61.99465 
L 263.647868 61.845313 
L 266.061951 62.012298 
L 267.268993 62.199858 
L 268.476034 61.382068 
L 272.097158 61.784317 
L 273.3042 61.959808 
L 274.511241 61.411093 
L 276.925324 61.708833 
L 279.339407 61.469893 
L 280.546448 61.502552 
L 284.167573 61.954406 
L 285.374614 62.053177 
L 286.581655 61.518749 
L 288.995738 61.866922 
L 290.20278 61.730522 
L 295.030945 62.115219 
L 301.066152 62.61043 
L 302.273194 62.399397 
L 304.687277 62.550842 
L 305.894318 62.704793 
L 307.101359 62.571032 
L 309.515442 62.85915 
L 310.722484 62.826223 
L 314.343608 63.1632 
L 315.550649 63.180478 
L 316.757691 63.071618 
L 320.378815 63.403463 
L 321.585856 63.164702 
L 323.999939 63.456177 
L 325.206981 63.432325 
L 328.828105 63.680313 
L 330.035146 63.349841 
L 332.449229 63.423265 
L 336.070353 63.792793 
L 337.277395 63.532612 
L 339.691478 63.71616 
L 342.10556 63.966399 
L 344.519643 64.040788 
L 346.933726 64.290212 
L 348.140767 63.728371 
L 357.797099 64.50032 
L 360.211182 64.564873 
L 361.418223 64.688556 
L 362.625264 64.570458 
L 366.246389 64.872235 
L 367.45343 64.934085 
L 369.867513 64.775769 
L 371.074554 64.67721 
L 378.316803 65.08924 
L 379.523844 64.425747 
L 385.559051 64.922999 
L 386.766093 64.83433 
L 387.973134 59.935226 
L 391.594258 60.254903 
L 395.215383 60.396725 
L 397.629465 60.389924 
L 400.043548 60.634968 
L 401.25059 60.222015 
L 404.871714 60.506722 
L 408.492838 60.736321 
L 410.906921 60.79085 
L 413.321004 60.638161 
L 418.149169 60.910441 
L 419.356211 60.863584 
L 421.770294 61.085644 
L 422.977335 60.996373 
L 430.219583 61.544548 
L 432.633666 61.476075 
L 433.840708 61.285201 
L 435.047749 61.358984 
L 436.254791 20.181 
L 438.668873 20.61982 
L 439.875915 20.560248 
L 443.497039 21.134438 
L 447.118163 21.637579 
L 450.739288 22.008681 
L 451.946329 21.838159 
L 457.981536 22.849978 
L 459.188577 23.012931 
L 460.395619 22.688959 
L 465.223784 23.435241 
L 466.430826 23.395024 
L 474.880116 24.798557 
L 476.087157 24.721024 
L 477.294199 24.868021 
L 478.50124 24.740271 
L 484.536447 25.636439 
L 489.364613 26.234725 
L 494.192778 26.951358 
L 495.39982 26.920267 
L 497.813903 27.223525 
L 501.435027 27.690012 
L 503.84911 27.957378 
L 505.056151 28.132628 
L 506.263193 27.245352 
L 508.677275 27.510324 
L 509.884317 27.525577 
L 511.091358 27.658412 
L 512.2984 27.622986 
L 515.919524 28.125714 
L 515.919524 28.125714 
" clip-path="url(#p92d226640b)" style="fill: none; stroke-dasharray: 5.55,2.4; stroke-dashoffset: 0; stroke: #4169e1; stroke-width: 1.5"/>
   </g>
   <g id="line2d_27">
    <path d="M 34.31 13.448699 
L 35.517041 31.655277 
L 36.724083 25.045893 
L 37.931124 29.444533 
L 39.138166 24.083581 
L 40.345207 20.781463 
L 41.552248 23.831277 
L 42.75929 25.01096 
L 43.966331 22.438059 
L 45.173373 24.073534 
L 46.380414 24.722391 
L 47.587456 26.773961 
L 48.794497 26.020494 
L 50.001538 26.47323 
L 51.20858 26.521719 
L 52.415621 26.926917 
L 53.622663 26.957828 
L 54.829704 26.594065 
L 56.036745 24.71614 
L 57.243787 24.932241 
L 59.65787 26.879271 
L 60.864911 25.893619 
L 62.071953 26.890321 
L 63.278994 26.132666 
L 64.486035 26.047057 
L 66.900118 27.520604 
L 68.10716 27.577865 
L 70.521242 27.011136 
L 71.728284 26.600054 
L 72.935325 26.66082 
L 74.142367 26.931132 
L 76.556449 27.933553 
L 77.763491 27.959885 
L 78.970532 27.799376 
L 80.177574 27.517438 
L 81.384615 27.759919 
L 82.591657 27.679753 
L 83.798698 27.213406 
L 86.212781 27.316848 
L 87.419822 27.330147 
L 91.040946 26.925492 
L 92.247988 27.351969 
L 93.455029 27.164966 
L 94.662071 26.555858 
L 95.869112 26.56479 
L 97.076153 26.42829 
L 99.490236 26.847297 
L 100.697278 27.00016 
L 101.904319 27.351794 
L 103.111361 27.173067 
L 104.318402 27.37866 
L 105.525443 27.32359 
L 111.56065 28.820126 
L 112.767692 28.539767 
L 113.974733 28.379624 
L 115.181775 28.001409 
L 116.388816 27.756833 
L 117.595858 27.839658 
L 118.802899 28.100716 
L 120.00994 27.856039 
L 121.216982 27.762319 
L 123.631065 27.879234 
L 124.838106 27.805408 
L 126.045147 27.571754 
L 127.252189 27.555133 
L 129.666272 27.849563 
L 130.873313 27.729644 
L 132.080354 27.948183 
L 133.287396 27.784512 
L 134.494437 27.942469 
L 135.701479 27.77703 
L 136.90852 27.798191 
L 139.322603 28.055306 
L 140.529644 27.651338 
L 142.943727 27.884705 
L 144.150769 27.899992 
L 145.35781 27.718562 
L 146.564851 27.766942 
L 147.771893 27.686127 
L 148.978934 27.881797 
L 150.185976 27.899217 
L 151.393017 27.412964 
L 156.221183 27.719861 
L 157.428224 27.389771 
L 158.635266 27.221404 
L 162.25639 27.313345 
L 163.463431 27.223558 
L 165.877514 27.433399 
L 169.498638 27.657905 
L 170.70568 27.712741 
L 173.119763 27.594035 
L 174.326804 27.806622 
L 175.533845 27.867667 
L 176.740887 27.7728 
L 177.947928 27.937368 
L 179.15497 27.799093 
L 180.362011 27.463673 
L 181.569052 27.630379 
L 186.397218 27.708349 
L 188.811301 27.42304 
L 191.225384 27.619971 
L 193.639467 27.818655 
L 194.846508 27.998469 
L 197.260591 27.87161 
L 198.467632 27.825232 
L 203.295798 28.19155 
L 204.502839 28.096186 
L 205.709881 28.227795 
L 206.916922 28.106165 
L 209.331005 28.342682 
L 210.538046 28.148854 
L 211.745088 28.100699 
L 212.952129 27.91554 
L 227.436626 28.360089 
L 229.850709 28.290937 
L 231.05775 28.408804 
L 233.471833 28.413836 
L 238.299999 28.329521 
L 240.714082 28.584881 
L 244.335206 28.649516 
L 251.577454 28.772334 
L 255.198579 28.412071 
L 260.026744 28.66593 
L 261.233786 28.592752 
L 263.647868 28.790618 
L 267.268993 28.677021 
L 268.476034 28.853658 
L 270.890117 28.875707 
L 273.3042 28.782375 
L 274.511241 28.950203 
L 281.75349 28.847945 
L 288.995738 28.672053 
L 290.20278 28.785624 
L 291.409821 28.73097 
L 292.616862 28.79974 
L 295.030945 28.754249 
L 299.859111 28.84698 
L 304.687277 28.980892 
L 315.550649 28.892566 
L 317.964732 28.987125 
L 321.585856 28.842932 
L 323.999939 28.818459 
L 327.621063 28.907683 
L 333.65627 28.720665 
L 337.277395 28.806474 
L 342.10556 28.652356 
L 345.726685 28.761876 
L 368.660471 28.60942 
L 371.074554 28.614114 
L 375.90272 28.622163 
L 392.8013 28.236839 
L 398.836507 28.332527 
L 406.078755 28.130054 
L 408.492838 28.139675 
L 414.528045 28.312759 
L 431.426625 28.36647 
L 435.047749 28.514556 
L 436.254791 27.986035 
L 459.188577 28.065283 
L 462.809702 28.016381 
L 465.223784 28.049696 
L 467.637867 28.143305 
L 471.258992 28.127158 
L 488.157571 28.216846 
L 500.227985 28.214027 
L 505.056151 28.246478 
L 507.470234 28.099192 
L 511.091358 28.08636 
L 513.505441 28.137355 
L 515.919524 28.125714 
L 515.919524 28.125714 
" clip-path="url(#p92d226640b)" style="fill: none; stroke: #ff8c00; stroke-width: 1.5; stroke-linecap: square"/>
   </g>
   <g id="line2d_28">
    <path d="M 34.31 98.44 
L 35.517041 15.159072 
L 36.724083 20.969057 
L 37.931124 25.753789 
L 39.138166 11.408667 
L 40.345207 12.216303 
L 41.552248 10.512718 
L 42.75929 19.056158 
L 43.966331 14.571274 
L 45.173373 16.910042 
L 46.380414 23.264097 
L 47.587456 17.896762 
L 50.001538 27.144155 
L 51.20858 31.888941 
L 53.622663 39.132287 
L 54.829704 41.861996 
L 56.036745 28.891363 
L 57.243787 32.145872 
L 58.450828 30.936933 
L 60.864911 26.238713 
L 62.071953 23.50663 
L 63.278994 23.042633 
L 64.486035 25.896499 
L 65.693077 24.85084 
L 66.900118 23.985449 
L 68.10716 26.529782 
L 70.521242 29.997753 
L 71.728284 30.820418 
L 72.935325 32.839809 
L 74.142367 34.16342 
L 75.349408 33.418862 
L 76.556449 33.42261 
L 77.763491 35.173565 
L 78.970532 36.598979 
L 81.384615 38.374995 
L 82.591657 39.77541 
L 83.798698 38.931965 
L 87.419822 42.82341 
L 89.833905 44.891864 
L 91.040946 45.645674 
L 92.247988 44.529688 
L 93.455029 45.177381 
L 94.662071 41.561099 
L 95.869112 42.653902 
L 97.076153 43.46305 
L 98.283195 43.676297 
L 100.697278 44.909741 
L 101.904319 44.109238 
L 103.111361 44.588528 
L 104.318402 44.88533 
L 105.525443 45.732953 
L 106.732485 45.342255 
L 107.939526 44.784547 
L 109.146568 45.170697 
L 110.353609 44.409931 
L 111.56065 42.483395 
L 112.767692 42.047613 
L 113.974733 42.464036 
L 115.181775 40.879307 
L 116.388816 40.691578 
L 117.595858 41.397636 
L 118.802899 41.002481 
L 120.00994 40.732313 
L 124.838106 43.324406 
L 126.045147 42.997759 
L 127.252189 43.703213 
L 128.45923 43.751045 
L 130.873313 44.562025 
L 132.080354 44.247144 
L 135.701479 44.529137 
L 136.90852 45.146444 
L 138.115562 45.045199 
L 139.322603 45.527845 
L 140.529644 42.514383 
L 141.736686 42.748289 
L 142.943727 43.126299 
L 144.150769 43.722192 
L 145.35781 43.549717 
L 147.771893 44.496944 
L 148.978934 44.145024 
L 150.185976 44.697447 
L 151.393017 39.483685 
L 152.600058 39.816058 
L 153.8071 40.402189 
L 155.014141 40.038388 
L 156.221183 40.609263 
L 157.428224 38.378478 
L 158.635266 38.222425 
L 162.25639 39.835838 
L 163.463431 40.161749 
L 164.670473 40.146841 
L 165.877514 40.551915 
L 168.291597 41.118183 
L 170.70568 41.991342 
L 173.119763 42.760887 
L 174.326804 41.919663 
L 175.533845 42.28911 
L 176.740887 42.494159 
L 177.947928 42.150674 
L 179.15497 42.039435 
L 180.362011 39.08153 
L 181.569052 38.712299 
L 182.776094 39.15459 
L 185.190177 39.524111 
L 186.397218 39.917821 
L 187.604259 39.809278 
L 190.018342 39.338162 
L 192.432425 40.049743 
L 193.639467 39.744092 
L 194.846508 39.101707 
L 196.053549 39.093843 
L 198.467632 39.882203 
L 200.881715 40.26479 
L 202.088756 40.001081 
L 203.295798 40.273857 
L 204.502839 40.361319 
L 206.916922 40.022814 
L 208.123963 40.221086 
L 209.331005 39.671863 
L 210.538046 38.693566 
L 211.745088 39.011615 
L 212.952129 38.135677 
L 214.159171 38.478431 
L 216.573253 39.01526 
L 217.780295 39.372059 
L 218.987336 39.502598 
L 222.60846 40.362959 
L 223.815502 40.054734 
L 225.022543 40.360587 
L 226.229585 40.184746 
L 227.436626 40.534479 
L 228.643668 40.699707 
L 229.850709 41.05394 
L 231.05775 40.834923 
L 234.678875 41.628169 
L 235.885916 41.578132 
L 237.092957 40.97382 
L 238.299999 41.298755 
L 239.50704 40.739695 
L 240.714082 40.548243 
L 243.128164 41.046729 
L 245.542247 41.626266 
L 246.749289 41.375524 
L 251.577454 42.577522 
L 252.784496 42.064958 
L 253.991537 41.081794 
L 256.40562 41.303711 
L 257.612661 40.657941 
L 258.819703 40.813226 
L 260.026744 41.102069 
L 261.233786 41.15251 
L 262.440827 40.880542 
L 263.647868 40.812495 
L 266.061951 41.138519 
L 267.268993 41.431238 
L 268.476034 40.202843 
L 273.3042 41.051151 
L 274.511241 39.929867 
L 276.925324 40.504298 
L 278.132365 40.537628 
L 279.339407 40.374743 
L 280.546448 40.332057 
L 284.167573 41.068908 
L 285.374614 41.161924 
L 286.581655 40.789178 
L 288.995738 41.331488 
L 290.20278 40.912602 
L 295.030945 41.3982 
L 296.237987 41.659323 
L 297.445028 41.764335 
L 299.859111 42.240384 
L 301.066152 42.342001 
L 302.273194 41.999041 
L 303.480235 42.027008 
L 305.894318 42.416327 
L 307.101359 42.033949 
L 308.308401 42.240062 
L 309.515442 42.326789 
L 310.722484 42.24703 
L 311.929525 42.488595 
L 313.136566 42.487672 
L 314.343608 42.616947 
L 316.757691 42.571679 
L 320.378815 43.192916 
L 321.585856 42.723273 
L 323.999939 43.142571 
L 325.206981 43.107535 
L 328.828105 43.541994 
L 330.035146 42.715543 
L 332.449229 42.947923 
L 333.65627 43.151804 
L 340.898519 43.388377 
L 342.10556 43.59276 
L 344.519643 43.710888 
L 346.933726 44.113256 
L 348.140767 43.569098 
L 357.797099 44.722465 
L 360.211182 44.664428 
L 361.418223 44.861873 
L 362.625264 44.765737 
L 367.45343 45.436993 
L 369.867513 45.370234 
L 371.074554 45.404557 
L 378.316803 46.382102 
L 379.523844 45.651163 
L 385.559051 46.403995 
L 386.766093 46.191953 
L 387.973134 44.145722 
L 392.8013 44.713088 
L 395.215383 44.84918 
L 396.422424 44.620212 
L 398.836507 44.788451 
L 400.043548 44.941288 
L 401.25059 44.258659 
L 402.457631 44.428972 
L 403.664672 44.409147 
L 406.078755 44.703391 
L 408.492838 44.704278 
L 409.699879 44.624999 
L 410.906921 44.750429 
L 413.321004 44.510558 
L 418.149169 44.887906 
L 419.356211 44.718816 
L 421.770294 45.020522 
L 422.977335 44.937139 
L 426.598459 45.36869 
L 431.426625 45.778267 
L 432.633666 45.680067 
L 433.840708 45.430451 
L 435.047749 45.5482 
L 436.254791 22.336597 
L 438.668873 22.717807 
L 439.875915 22.547856 
L 442.289998 22.934362 
L 447.118163 23.585554 
L 448.325205 23.553325 
L 450.739288 23.85653 
L 451.946329 23.773118 
L 454.360412 24.193891 
L 455.567453 24.180858 
L 459.188577 24.761203 
L 460.395619 24.791547 
L 464.016743 25.400529 
L 465.223784 25.435874 
L 466.430826 25.010798 
L 470.05195 25.516051 
L 473.673074 26.025426 
L 474.880116 26.222155 
L 476.087157 25.930179 
L 478.50124 25.831601 
L 484.536447 26.741227 
L 485.743488 26.801568 
L 486.95053 26.981516 
L 488.157571 26.893687 
L 494.192778 27.779901 
L 496.606861 27.846632 
L 505.056151 28.920417 
L 506.263193 27.570381 
L 508.677275 27.818016 
L 512.2984 27.610602 
L 515.919524 28.125714 
L 515.919524 28.125714 
" clip-path="url(#p92d226640b)" style="fill: none; stroke-dasharray: 5.55,2.4; stroke-dashoffset: 0; stroke: #ff8c00; stroke-width: 1.5"/>
   </g>
   <g id="patch_3">
    <path d="M 34.31 98.44 
L 34.31 0 
" style="fill: none; stroke: #000000; stroke-width: 0.8; stroke-linejoin: miter; stroke-linecap: square"/>
   </g>
   <g id="patch_4">
    <path d="M 540 98.44 
L 540 0 
" style="fill: none; stroke: #000000; stroke-width: 0.8; stroke-linejoin: miter; stroke-linecap: square"/>
   </g>
   <g id="patch_5">
    <path d="M 34.31 98.44 
L 540 98.44 
" style="fill: none; stroke: #000000; stroke-width: 0.8; stroke-linejoin: miter; stroke-linecap: square"/>
   </g>
   <g id="patch_6">
    <path d="M 34.31 0 
L 540 0 
" style="fill: none; stroke: #000000; stroke-width: 0.8; stroke-linejoin: miter; stroke-linecap: square"/>
   </g>
  </g>
 </g>
 <defs>
  <clipPath id="p92d226640b">
   <rect x="34.31" y="0" width="505.69" height="98.44"/>
  </clipPath>
 </defs>
</svg>
