<?xml version="1.0" encoding="utf-8" standalone="no"?>
<!DOCTYPE svg PUBLIC "-//W3C//DTD SVG 1.1//EN"
  "http://www.w3.org/Graphics/SVG/1.1/DTD/svg11.dtd">
<svg xmlns:xlink="http://www.w3.org/1999/xlink" width="540pt" height="129.6pt" viewBox="0 0 540 129.6" xmlns="http://www.w3.org/2000/svg" version="1.1">
 <metadata>
  <rdf:RDF xmlns:dc="http://purl.org/dc/elements/1.1/" xmlns:cc="http://creativecommons.org/ns#" xmlns:rdf="http://www.w3.org/1999/02/22-rdf-syntax-ns#">
   <cc:Work>
    <dc:type rdf:resource="http://purl.org/dc/dcmitype/StillImage"/>
    <dc:date>2025-03-30T01:45:46.883469</dc:date>
    <dc:format>image/svg+xml</dc:format>
    <dc:creator>
     <cc:Agent>
      <dc:title>Matplotlib v3.9.0, https://matplotlib.org/</dc:title>
     </cc:Agent>
    </dc:creator>
   </cc:Work>
  </rdf:RDF>
 </metadata>
 <defs>
  <style type="text/css">*{stroke-linejoin: round; stroke-linecap: butt}</style>
 </defs>
 <g id="figure_1">
  <g id="patch_1">
   <path d="M 0 129.6 
L 540 129.6 
L 540 0 
L 0 0 
z
" style="fill: #ffffff"/>
  </g>
  <g id="axes_1">
   <g id="patch_2">
    <path d="M 35.03 97 
L 540 97 
L 540 0 
L 35.03 0 
z
" style="fill: #ffffff"/>
   </g>
   <g id="matplotlib.axis_1">
    <g id="xtick_1">
     <g id="line2d_1">
      <path d="M 35.03 97 
L 35.03 0 
" clip-path="url(#p6f44e41a8b)" style="fill: none; stroke: #b0b0b0; stroke-width: 0.8; stroke-linecap: square"/>
     </g>
     <g id="line2d_2">
      <defs>
       <path id="m0f48efa33b" d="M 0 0 
L 0 3.5 
" style="stroke: #000000; stroke-width: 0.8"/>
      </defs>
      <g>
       <use xlink:href="#m0f48efa33b" x="35.03" y="97" style="stroke: #000000; stroke-width: 0.8"/>
      </g>
     </g>
     <g id="text_1">
      <text style="font: 10px 'Times New Roman'; text-anchor: middle" x="35.03" y="110.94375" transform="rotate(-0 35.03 110.94375)">0</text>
     </g>
    </g>
    <g id="xtick_2">
     <g id="line2d_3">
      <path d="M 95.296142 97 
L 95.296142 0 
" clip-path="url(#p6f44e41a8b)" style="fill: none; stroke: #b0b0b0; stroke-width: 0.8; stroke-linecap: square"/>
     </g>
     <g id="line2d_4">
      <g>
       <use xlink:href="#m0f48efa33b" x="95.296142" y="97" style="stroke: #000000; stroke-width: 0.8"/>
      </g>
     </g>
     <g id="text_2">
      <text style="font: 10px 'Times New Roman'; text-anchor: middle" x="95.296142" y="110.94375" transform="rotate(-0 95.296142 110.94375)">50</text>
     </g>
    </g>
    <g id="xtick_3">
     <g id="line2d_5">
      <path d="M 155.562283 97 
L 155.562283 0 
" clip-path="url(#p6f44e41a8b)" style="fill: none; stroke: #b0b0b0; stroke-width: 0.8; stroke-linecap: square"/>
     </g>
     <g id="line2d_6">
      <g>
       <use xlink:href="#m0f48efa33b" x="155.562283" y="97" style="stroke: #000000; stroke-width: 0.8"/>
      </g>
     </g>
     <g id="text_3">
      <text style="font: 10px 'Times New Roman'; text-anchor: middle" x="155.562283" y="110.94375" transform="rotate(-0 155.562283 110.94375)">100</text>
     </g>
    </g>
    <g id="xtick_4">
     <g id="line2d_7">
      <path d="M 215.828425 97 
L 215.828425 0 
" clip-path="url(#p6f44e41a8b)" style="fill: none; stroke: #b0b0b0; stroke-width: 0.8; stroke-linecap: square"/>
     </g>
     <g id="line2d_8">
      <g>
       <use xlink:href="#m0f48efa33b" x="215.828425" y="97" style="stroke: #000000; stroke-width: 0.8"/>
      </g>
     </g>
     <g id="text_4">
      <text style="font: 10px 'Times New Roman'; text-anchor: middle" x="215.828425" y="110.94375" transform="rotate(-0 215.828425 110.94375)">150</text>
     </g>
    </g>
    <g id="xtick_5">
     <g id="line2d_9">
      <path d="M 276.094566 97 
L 276.094566 0 
" clip-path="url(#p6f44e41a8b)" style="fill: none; stroke: #b0b0b0; stroke-width: 0.8; stroke-linecap: square"/>
     </g>
     <g id="line2d_10">
      <g>
       <use xlink:href="#m0f48efa33b" x="276.094566" y="97" style="stroke: #000000; stroke-width: 0.8"/>
      </g>
     </g>
     <g id="text_5">
      <text style="font: 10px 'Times New Roman'; text-anchor: middle" x="276.094566" y="110.94375" transform="rotate(-0 276.094566 110.94375)">200</text>
     </g>
    </g>
    <g id="xtick_6">
     <g id="line2d_11">
      <path d="M 336.360708 97 
L 336.360708 0 
" clip-path="url(#p6f44e41a8b)" style="fill: none; stroke: #b0b0b0; stroke-width: 0.8; stroke-linecap: square"/>
     </g>
     <g id="line2d_12">
      <g>
       <use xlink:href="#m0f48efa33b" x="336.360708" y="97" style="stroke: #000000; stroke-width: 0.8"/>
      </g>
     </g>
     <g id="text_6">
      <text style="font: 10px 'Times New Roman'; text-anchor: middle" x="336.360708" y="110.94375" transform="rotate(-0 336.360708 110.94375)">250</text>
     </g>
    </g>
    <g id="xtick_7">
     <g id="line2d_13">
      <path d="M 396.626849 97 
L 396.626849 0 
" clip-path="url(#p6f44e41a8b)" style="fill: none; stroke: #b0b0b0; stroke-width: 0.8; stroke-linecap: square"/>
     </g>
     <g id="line2d_14">
      <g>
       <use xlink:href="#m0f48efa33b" x="396.626849" y="97" style="stroke: #000000; stroke-width: 0.8"/>
      </g>
     </g>
     <g id="text_7">
      <text style="font: 10px 'Times New Roman'; text-anchor: middle" x="396.626849" y="110.94375" transform="rotate(-0 396.626849 110.94375)">300</text>
     </g>
    </g>
    <g id="xtick_8">
     <g id="line2d_15">
      <path d="M 456.892991 97 
L 456.892991 0 
" clip-path="url(#p6f44e41a8b)" style="fill: none; stroke: #b0b0b0; stroke-width: 0.8; stroke-linecap: square"/>
     </g>
     <g id="line2d_16">
      <g>
       <use xlink:href="#m0f48efa33b" x="456.892991" y="97" style="stroke: #000000; stroke-width: 0.8"/>
      </g>
     </g>
     <g id="text_8">
      <text style="font: 10px 'Times New Roman'; text-anchor: middle" x="456.892991" y="110.94375" transform="rotate(-0 456.892991 110.94375)">350</text>
     </g>
    </g>
    <g id="xtick_9">
     <g id="line2d_17">
      <path d="M 517.159132 97 
L 517.159132 0 
" clip-path="url(#p6f44e41a8b)" style="fill: none; stroke: #b0b0b0; stroke-width: 0.8; stroke-linecap: square"/>
     </g>
     <g id="line2d_18">
      <g>
       <use xlink:href="#m0f48efa33b" x="517.159132" y="97" style="stroke: #000000; stroke-width: 0.8"/>
      </g>
     </g>
     <g id="text_9">
      <text style="font: 10px 'Times New Roman'; text-anchor: middle" x="517.159132" y="110.94375" transform="rotate(-0 517.159132 110.94375)">400</text>
     </g>
    </g>
    <g id="text_10">
     <text style="font: 12px 'Times New Roman'; text-anchor: middle" x="287.515" y="125.415312" transform="rotate(-0 287.515 125.415312)">Simulation Run</text>
    </g>
   </g>
   <g id="matplotlib.axis_2">
    <g id="ytick_1">
     <g id="line2d_19">
      <path d="M 35.03 97 
L 540 97 
" clip-path="url(#p6f44e41a8b)" style="fill: none; stroke: #b0b0b0; stroke-width: 0.8; stroke-linecap: square"/>
     </g>
     <g id="line2d_20">
      <defs>
       <path id="mc7c14028bb" d="M 0 0 
L -3.5 0 
" style="stroke: #000000; stroke-width: 0.8"/>
      </defs>
      <g>
       <use xlink:href="#mc7c14028bb" x="35.03" y="97" style="stroke: #000000; stroke-width: 0.8"/>
      </g>
     </g>
     <g id="text_11">
      <text style="font: 10px 'Times New Roman'; text-anchor: end" x="28.03" y="100.471875" transform="rotate(-0 28.03 100.471875)">0.0</text>
     </g>
    </g>
    <g id="ytick_2">
     <g id="line2d_21">
      <path d="M 35.03 59.692308 
L 540 59.692308 
" clip-path="url(#p6f44e41a8b)" style="fill: none; stroke: #b0b0b0; stroke-width: 0.8; stroke-linecap: square"/>
     </g>
     <g id="line2d_22">
      <g>
       <use xlink:href="#mc7c14028bb" x="35.03" y="59.692308" style="stroke: #000000; stroke-width: 0.8"/>
      </g>
     </g>
     <g id="text_12">
      <text style="font: 10px 'Times New Roman'; text-anchor: end" x="28.03" y="63.164183" transform="rotate(-0 28.03 63.164183)">0.5</text>
     </g>
    </g>
    <g id="ytick_3">
     <g id="line2d_23">
      <path d="M 35.03 22.384615 
L 540 22.384615 
" clip-path="url(#p6f44e41a8b)" style="fill: none; stroke: #b0b0b0; stroke-width: 0.8; stroke-linecap: square"/>
     </g>
     <g id="line2d_24">
      <g>
       <use xlink:href="#mc7c14028bb" x="35.03" y="22.384615" style="stroke: #000000; stroke-width: 0.8"/>
      </g>
     </g>
     <g id="text_13">
      <text style="font: 10px 'Times New Roman'; text-anchor: end" x="28.03" y="25.85649" transform="rotate(-0 28.03 25.85649)">1.0</text>
     </g>
    </g>
    <g id="text_14">
     <text style="font: 12px 'Times New Roman'; text-anchor: middle" x="8.963125" y="48.5" transform="rotate(-90 8.963125 48.5)">Normalized Value</text>
    </g>
   </g>
   <g id="line2d_25">
    <path d="M 35.03 46.645578 
L 36.235323 26.099401 
L 37.440646 18.134737 
L 38.645968 17.082906 
L 39.851291 14.776784 
L 41.056614 17.127634 
L 42.261937 19.160556 
L 43.46726 17.894686 
L 44.672583 22.466297 
L 45.877905 24.7946 
L 47.083228 25.097082 
L 48.288551 22.612404 
L 49.493874 22.261028 
L 50.699197 20.774067 
L 51.90452 20.718821 
L 53.109842 18.731727 
L 54.315165 18.50258 
L 55.520488 18.148897 
L 57.931134 21.411368 
L 59.136457 20.985844 
L 60.341779 20.132906 
L 61.547102 20.091468 
L 62.752425 19.411601 
L 63.957748 17.99969 
L 65.163071 17.508905 
L 66.368394 17.265304 
L 67.573716 16.894905 
L 68.779039 16.742539 
L 69.984362 17.508786 
L 71.189685 18.953064 
L 73.600331 20.011796 
L 74.805653 19.097173 
L 76.010976 19.173234 
L 77.216299 19.465282 
L 78.421622 18.042672 
L 79.626945 18.21618 
L 80.832268 18.226578 
L 82.03759 18.504588 
L 83.242913 19.606903 
L 84.448236 19.971619 
L 85.653559 19.485841 
L 88.064205 20.060297 
L 89.269527 20.873711 
L 90.47485 21.027602 
L 91.680173 21.982296 
L 92.885496 22.456194 
L 94.090819 22.582717 
L 97.706787 24.414195 
L 98.91211 23.554588 
L 100.117433 23.024547 
L 101.322756 22.27792 
L 102.528079 22.826946 
L 103.733401 22.325432 
L 106.144047 22.548344 
L 107.34937 23.023867 
L 108.554693 23.001392 
L 110.965338 23.501261 
L 112.170661 23.501816 
L 114.581307 22.900861 
L 116.991953 23.073219 
L 118.197275 23.342906 
L 120.607921 23.446942 
L 121.813244 23.891724 
L 123.018567 23.54286 
L 124.223889 23.840484 
L 125.429212 23.238838 
L 126.634535 23.055622 
L 129.045181 23.091727 
L 130.250504 23.112472 
L 131.455826 23.401586 
L 132.661149 23.397661 
L 133.866472 23.182572 
L 136.277118 22.974166 
L 137.482441 22.761262 
L 138.687763 22.921454 
L 139.893086 23.372225 
L 141.098409 23.443198 
L 142.303732 23.052204 
L 144.714378 23.685211 
L 145.9197 22.84703 
L 148.330346 22.573601 
L 149.535669 22.63018 
L 151.946315 23.206581 
L 154.35696 23.512235 
L 155.562283 23.85277 
L 157.972929 23.863624 
L 160.383574 24.183935 
L 161.588897 24.242015 
L 165.204866 24.872853 
L 166.410189 24.544937 
L 168.820834 24.426295 
L 170.026157 24.538924 
L 171.23148 23.898503 
L 173.642126 24.012622 
L 174.847448 24.152524 
L 176.052771 24.066741 
L 177.258094 24.211435 
L 178.463417 24.562087 
L 179.66874 24.770499 
L 180.874063 24.490307 
L 182.079385 24.003329 
L 184.490031 23.967097 
L 185.695354 24.142467 
L 186.900677 24.078803 
L 188.106 24.227287 
L 190.516645 24.285215 
L 191.721968 24.466876 
L 197.748582 24.565182 
L 198.953905 24.247079 
L 201.364551 24.273725 
L 202.569873 24.26604 
L 203.775196 24.097034 
L 204.980519 24.170034 
L 206.185842 23.906505 
L 208.596488 24.048576 
L 209.80181 23.982993 
L 212.212456 23.60596 
L 215.828425 23.202418 
L 217.033747 22.976115 
L 219.444393 22.964393 
L 223.060362 22.517917 
L 224.265684 22.627519 
L 225.471007 22.533554 
L 226.67633 22.617201 
L 227.881653 22.519493 
L 229.086976 22.239778 
L 232.702944 22.675813 
L 233.908267 22.143125 
L 236.318913 22.159012 
L 237.524236 22.36605 
L 238.729558 22.086516 
L 242.345527 22.376803 
L 243.55085 22.252616 
L 247.166818 22.39858 
L 248.372141 22.332129 
L 249.577464 22.48109 
L 250.782787 22.367272 
L 251.98811 22.501329 
L 253.193432 22.119455 
L 254.398755 22.09921 
L 258.014724 21.737106 
L 260.425369 21.768039 
L 261.630692 21.634961 
L 264.041338 21.800171 
L 265.246661 21.735423 
L 266.451984 21.840147 
L 270.067952 21.709382 
L 271.273275 21.954349 
L 274.889243 22.130941 
L 276.094566 21.877545 
L 278.505212 21.739468 
L 279.710535 21.684712 
L 280.915858 21.810273 
L 282.12118 21.779586 
L 283.326503 21.887882 
L 286.942472 21.81043 
L 288.147794 21.658361 
L 291.763763 21.956988 
L 292.969086 21.88385 
L 294.174409 22.01344 
L 296.585054 21.903383 
L 297.790377 21.826692 
L 311.048928 22.302614 
L 312.254251 21.918453 
L 314.664897 22.171753 
L 315.87022 22.084044 
L 319.486188 22.236088 
L 323.102157 21.944983 
L 325.512802 22.03842 
L 326.718125 22.011958 
L 327.923448 21.754639 
L 330.334094 21.830262 
L 331.539416 21.769777 
L 333.950062 21.876737 
L 336.360708 21.543946 
L 339.976676 21.921675 
L 341.181999 21.78706 
L 347.208613 21.848204 
L 350.824582 21.628922 
L 352.029905 21.697918 
L 353.235227 21.449626 
L 355.645873 21.486611 
L 358.056519 21.622111 
L 359.261842 21.579199 
L 360.467164 21.338025 
L 361.672487 21.216393 
L 362.87781 21.307475 
L 365.288456 21.258633 
L 367.699101 21.256811 
L 372.520393 21.104569 
L 376.136361 21.260666 
L 380.957652 21.49686 
L 382.162975 21.403814 
L 383.368298 21.436558 
L 385.778944 21.203667 
L 393.010881 21.61383 
L 397.832172 21.747853 
L 400.242818 21.660041 
L 402.653463 21.769294 
L 405.064109 21.791577 
L 409.8854 21.876108 
L 411.090723 21.966237 
L 412.296046 21.921402 
L 415.912015 22.135629 
L 418.32266 22.122033 
L 435.19718 22.335531 
L 440.018471 22.215933 
L 442.429117 22.290775 
L 443.63444 22.229096 
L 446.045085 22.325459 
L 452.071699 22.428811 
L 454.482345 22.397669 
L 455.687668 22.460202 
L 467.740896 22.037852 
L 468.946219 22.113128 
L 471.356865 22.018592 
L 483.410093 22.372847 
L 485.820739 22.169774 
L 489.436707 22.348279 
L 491.847353 22.276095 
L 513.543164 22.362852 
L 514.748487 22.443247 
L 515.95381 22.384615 
L 515.95381 22.384615 
" clip-path="url(#p6f44e41a8b)" style="fill: none; stroke: #4169e1; stroke-width: 1.5; stroke-linecap: square"/>
   </g>
   <g id="line2d_26">
    <path d="M 35.03 97 
L 36.235323 38.73574 
L 37.440646 40.646397 
L 38.645968 54.276704 
L 39.851291 59.885304 
L 41.056614 62.257269 
L 42.261937 63.798097 
L 43.46726 66.400171 
L 44.672583 46.723712 
L 45.877905 45.01752 
L 47.083228 49.616919 
L 48.288551 44.19263 
L 49.493874 48.050248 
L 50.699197 47.57947 
L 51.90452 50.868275 
L 53.109842 45.576872 
L 54.315165 48.485806 
L 55.520488 50.887534 
L 57.931134 42.239194 
L 59.136457 44.347025 
L 60.341779 44.631745 
L 61.547102 46.903412 
L 62.752425 47.523481 
L 63.957748 42.899161 
L 65.163071 44.148845 
L 66.368394 45.893348 
L 67.573716 47.207322 
L 68.779039 48.834594 
L 69.984362 48.090063 
L 71.189685 41.030793 
L 72.395008 41.326665 
L 73.600331 42.013249 
L 74.805653 39.820389 
L 76.010976 41.426944 
L 77.216299 42.55862 
L 78.421622 33.97426 
L 80.832268 37.055988 
L 82.03759 38.138556 
L 83.242913 32.865908 
L 84.448236 33.64019 
L 85.653559 33.745741 
L 88.064205 35.576913 
L 89.269527 32.802813 
L 90.47485 34.018355 
L 91.680173 29.418033 
L 92.885496 29.309435 
L 94.090819 30.554984 
L 95.296142 29.383606 
L 96.501464 27.106183 
L 97.706787 26.485994 
L 98.91211 22.386548 
L 100.117433 21.649277 
L 101.322756 18.763169 
L 102.528079 17.805976 
L 103.733401 17.192684 
L 106.144047 19.64717 
L 107.34937 19.042699 
L 108.554693 20.295822 
L 109.760016 21.152867 
L 110.965338 21.583215 
L 112.170661 22.74347 
L 114.581307 23.339995 
L 116.991953 25.312545 
L 118.197275 25.64401 
L 120.607921 27.552732 
L 121.813244 26.53814 
L 123.018567 26.264084 
L 124.223889 26.302522 
L 125.429212 23.485752 
L 126.634535 24.088374 
L 130.250504 26.773353 
L 131.455826 26.71742 
L 132.661149 27.574352 
L 133.866472 27.887219 
L 135.071795 28.637224 
L 136.277118 29.249439 
L 137.482441 29.505462 
L 138.687763 29.976669 
L 139.893086 28.298399 
L 141.098409 29.009147 
L 142.303732 27.886706 
L 143.509055 27.227999 
L 144.714378 26.892513 
L 145.9197 18.725568 
L 147.125023 19.395581 
L 148.330346 19.876819 
L 149.535669 20.638212 
L 150.740992 19.855528 
L 151.946315 19.920986 
L 154.35696 20.830206 
L 155.562283 19.98384 
L 157.972929 21.404778 
L 159.178252 21.501622 
L 161.588897 22.705842 
L 163.999543 22.240308 
L 165.204866 22.677079 
L 166.410189 21.735062 
L 168.820834 22.970904 
L 170.026157 23.42994 
L 171.23148 17.678694 
L 173.642126 18.914306 
L 174.847448 19.268346 
L 176.052771 19.80826 
L 177.258094 20.115957 
L 178.463417 18.737175 
L 179.66874 18.664583 
L 180.874063 17.995577 
L 182.079385 14.644713 
L 184.490031 15.951224 
L 185.695354 16.063875 
L 186.900677 16.630682 
L 188.106 16.872109 
L 190.516645 18.009028 
L 191.721968 18.019899 
L 196.543259 20.248925 
L 197.748582 20.717772 
L 198.953905 19.375183 
L 202.569873 20.964328 
L 203.775196 20.951671 
L 204.980519 21.383515 
L 206.185842 20.551215 
L 208.596488 21.395518 
L 209.80181 21.827279 
L 211.007133 21.208009 
L 212.212456 21.321552 
L 213.417779 21.568905 
L 214.623102 21.456235 
L 215.828425 21.670243 
L 217.033747 21.098507 
L 219.444393 22.067674 
L 220.649716 21.987761 
L 221.855039 22.386787 
L 223.060362 21.802513 
L 225.471007 22.297184 
L 227.881653 22.861754 
L 229.086976 21.580804 
L 232.702944 21.530187 
L 233.908267 15.522781 
L 236.318913 16.474507 
L 237.524236 15.957067 
L 238.729558 14.611167 
L 239.934881 14.817445 
L 241.140204 15.23957 
L 243.55085 15.391383 
L 248.372141 16.774126 
L 249.577464 16.677176 
L 250.782787 16.803364 
L 251.98811 16.799969 
L 253.193432 13.59763 
L 254.398755 14.043085 
L 255.604078 14.046977 
L 256.809401 13.826871 
L 259.220047 14.602379 
L 260.425369 15.023121 
L 261.630692 14.997333 
L 262.836015 15.175309 
L 265.246661 15.801393 
L 266.451984 15.931487 
L 268.862629 16.645907 
L 270.067952 16.690106 
L 271.273275 15.474434 
L 272.478598 15.777313 
L 273.683921 15.688155 
L 274.889243 16.081918 
L 276.094566 14.712064 
L 277.299889 15.113249 
L 278.505212 15.093809 
L 279.710535 15.411308 
L 280.915858 15.36541 
L 282.12118 15.73505 
L 283.326503 15.794185 
L 286.942472 16.879771 
L 288.147794 16.589233 
L 290.55844 16.450261 
L 292.969086 16.96579 
L 294.174409 16.837985 
L 295.379731 16.902666 
L 296.585054 17.267684 
L 298.9957 17.752878 
L 300.201023 17.575626 
L 301.406346 17.923287 
L 302.611668 18.100953 
L 305.022314 18.776578 
L 307.43296 19.203907 
L 308.638283 19.250163 
L 309.843605 19.427575 
L 311.048928 19.721541 
L 312.254251 15.371224 
L 313.459574 14.754165 
L 317.075542 15.270085 
L 318.280865 15.576045 
L 320.691511 15.099172 
L 324.307479 15.50692 
L 326.718125 16.145836 
L 327.923448 14.256505 
L 333.950062 15.468892 
L 335.155385 15.177282 
L 336.360708 14.140658 
L 337.566031 13.974602 
L 338.771353 13.474424 
L 339.976676 13.426402 
L 341.181999 13.118861 
L 344.797968 14.026088 
L 346.00329 14.113292 
L 347.208613 14.429933 
L 348.413936 14.365588 
L 349.619259 14.654952 
L 350.824582 14.679047 
L 352.029905 14.818068 
L 353.235227 12.881886 
L 354.44055 13.163619 
L 359.261842 13.830618 
L 360.467164 11.96999 
L 361.672487 11.729245 
L 362.87781 11.73015 
L 365.288456 12.244014 
L 367.699101 12.779343 
L 368.904424 12.942646 
L 370.109747 13.239806 
L 371.31507 13.364088 
L 374.931038 14.151028 
L 376.136361 14.021663 
L 377.341684 14.158176 
L 378.547007 13.958364 
L 379.75233 14.127635 
L 380.957652 14.413618 
L 382.162975 14.355249 
L 383.368298 14.597466 
L 384.573621 14.538357 
L 385.778944 14.028855 
L 388.189589 13.920934 
L 389.394912 13.881218 
L 390.600235 14.161897 
L 393.010881 14.308686 
L 399.037495 15.133632 
L 400.242818 15.350364 
L 401.448141 15.380403 
L 403.858786 15.782895 
L 405.064109 15.861963 
L 408.680078 16.565979 
L 409.8854 16.74571 
L 411.090723 16.652312 
L 412.296046 16.821357 
L 413.501369 16.647519 
L 414.706692 16.881309 
L 415.912015 16.756043 
L 418.32266 17.055775 
L 421.938629 17.646771 
L 423.143952 17.618124 
L 424.349274 17.789958 
L 425.554597 17.616176 
L 430.375889 18.473922 
L 431.581211 18.440792 
L 435.19718 19.010859 
L 437.607826 19.258791 
L 438.813148 18.852344 
L 440.018471 19.048665 
L 441.223794 18.937303 
L 442.429117 19.162029 
L 443.63444 19.212965 
L 444.839763 19.091814 
L 449.661054 19.910888 
L 450.866377 19.90962 
L 452.071699 20.131779 
L 453.277022 20.211731 
L 454.482345 20.406114 
L 458.098314 20.425411 
L 459.303636 20.298391 
L 460.508959 20.2924 
L 462.919605 20.591956 
L 464.124928 20.121288 
L 466.535573 20.399943 
L 467.740896 20.60276 
L 470.151542 20.512383 
L 472.562188 20.807693 
L 474.972833 20.934181 
L 478.588802 21.536943 
L 480.999447 21.594702 
L 482.20477 21.605477 
L 483.410093 21.807109 
L 484.615416 21.201235 
L 488.231384 20.94954 
L 490.64203 21.272921 
L 491.847353 21.061503 
L 494.257999 21.446988 
L 495.463321 21.499551 
L 496.668644 21.694558 
L 500.284613 21.818764 
L 502.695258 21.842402 
L 509.927195 22.395851 
L 511.132518 22.203528 
L 513.543164 22.555857 
L 514.748487 22.387395 
L 515.95381 22.384615 
L 515.95381 22.384615 
" clip-path="url(#p6f44e41a8b)" style="fill: none; stroke-dasharray: 5.55,2.4; stroke-dashoffset: 0; stroke: #4169e1; stroke-width: 1.5"/>
   </g>
   <g id="line2d_27">
    <path d="M 35.03 44.948491 
L 36.235323 25.204896 
L 37.440646 16.679839 
L 38.645968 16.826849 
L 39.851291 16.552021 
L 41.056614 17.907516 
L 42.261937 20.588332 
L 43.46726 20.057388 
L 44.672583 23.949403 
L 45.877905 25.487971 
L 47.083228 25.937842 
L 48.288551 23.427688 
L 50.699197 21.376808 
L 51.90452 21.020097 
L 53.109842 19.206352 
L 54.315165 19.365678 
L 55.520488 18.869429 
L 56.725811 20.3714 
L 57.931134 21.680322 
L 59.136457 21.203213 
L 60.341779 20.913138 
L 61.547102 20.815225 
L 62.752425 20.494648 
L 63.957748 19.573988 
L 66.368394 18.67645 
L 67.573716 18.725568 
L 68.779039 18.500605 
L 69.984362 19.023344 
L 71.189685 20.43977 
L 72.395008 20.959259 
L 73.600331 21.318181 
L 74.805653 20.623994 
L 77.216299 21.114617 
L 78.421622 19.833505 
L 79.626945 19.768844 
L 80.832268 19.857896 
L 82.03759 20.124984 
L 83.242913 21.121087 
L 84.448236 21.240388 
L 85.653559 20.750674 
L 88.064205 20.985787 
L 89.269527 21.738419 
L 90.47485 21.791897 
L 91.680173 22.601469 
L 92.885496 22.977691 
L 94.090819 22.950643 
L 95.296142 23.407451 
L 96.501464 24.108802 
L 97.706787 24.523478 
L 101.322756 22.508786 
L 102.528079 22.96084 
L 103.733401 22.55801 
L 106.144047 22.734961 
L 107.34937 23.207463 
L 108.554693 23.109541 
L 110.965338 23.509041 
L 112.170661 23.425897 
L 114.581307 22.896627 
L 120.607921 23.304968 
L 121.813244 23.710148 
L 123.018567 23.257877 
L 124.223889 23.431423 
L 125.429212 22.935047 
L 126.634535 22.612155 
L 130.250504 22.694524 
L 131.455826 22.926782 
L 132.661149 22.877664 
L 133.866472 22.590438 
L 137.482441 22.378892 
L 138.687763 22.555741 
L 139.893086 22.959898 
L 141.098409 22.980376 
L 142.303732 22.611634 
L 144.714378 23.154219 
L 145.9197 22.465726 
L 147.125023 22.461937 
L 148.330346 22.287408 
L 149.535669 22.299141 
L 150.740992 22.588281 
L 155.562283 23.345433 
L 156.767606 23.314792 
L 162.79422 23.956916 
L 165.204866 24.318757 
L 166.410189 24.008017 
L 170.026157 24.008146 
L 171.23148 23.534679 
L 173.642126 23.624207 
L 174.847448 23.826889 
L 176.052771 23.784027 
L 177.258094 23.882913 
L 178.463417 24.19382 
L 179.66874 24.367151 
L 180.874063 24.156812 
L 182.079385 23.790144 
L 184.490031 23.768358 
L 185.695354 23.937057 
L 186.900677 23.888617 
L 188.106 24.051346 
L 189.311322 24.019937 
L 194.132614 24.445439 
L 196.543259 24.429474 
L 197.748582 24.478986 
L 198.953905 24.245135 
L 202.569873 24.250698 
L 203.775196 24.114496 
L 204.980519 24.180873 
L 206.185842 23.956884 
L 208.596488 24.073548 
L 213.417779 23.720121 
L 217.033747 23.200009 
L 223.060362 22.838951 
L 224.265684 22.933048 
L 225.471007 22.800324 
L 226.67633 22.867287 
L 227.881653 22.762895 
L 229.086976 22.542944 
L 232.702944 22.93461 
L 233.908267 22.544288 
L 236.318913 22.529353 
L 237.524236 22.732634 
L 238.729558 22.544499 
L 242.345527 22.769922 
L 243.55085 22.694473 
L 249.577464 22.884378 
L 250.782787 22.797501 
L 251.98811 22.913457 
L 253.193432 22.539565 
L 255.604078 22.376878 
L 258.014724 22.19195 
L 260.425369 22.199249 
L 261.630692 22.086485 
L 264.041338 22.208034 
L 265.246661 22.155869 
L 266.451984 22.242603 
L 270.067952 22.148242 
L 271.273275 22.375648 
L 274.889243 22.483434 
L 276.094566 22.282359 
L 282.12118 22.13162 
L 283.326503 22.239529 
L 289.353117 22.237752 
L 291.763763 22.403777 
L 292.969086 22.320862 
L 294.174409 22.444236 
L 296.585054 22.29814 
L 298.9957 22.306936 
L 300.201023 22.431879 
L 306.227637 22.460242 
L 309.843605 22.672996 
L 311.048928 22.639808 
L 312.254251 22.338501 
L 314.664897 22.542054 
L 318.280865 22.481733 
L 319.486188 22.598525 
L 321.896834 22.441643 
L 324.307479 22.45324 
L 326.718125 22.403877 
L 327.923448 22.252549 
L 330.334094 22.311891 
L 332.744739 22.302886 
L 333.950062 22.373798 
L 335.155385 22.301912 
L 336.360708 22.101793 
L 339.976676 22.373237 
L 341.181999 22.249422 
L 348.413936 22.174436 
L 352.029905 22.094826 
L 353.235227 21.845763 
L 355.645873 21.851728 
L 359.261842 21.919247 
L 361.672487 21.669306 
L 362.87781 21.747733 
L 365.288456 21.676913 
L 367.699101 21.635209 
L 371.31507 21.520718 
L 374.931038 21.550237 
L 379.75233 21.832976 
L 384.573621 21.722455 
L 385.778944 21.608226 
L 394.216204 21.982583 
L 397.832172 22.029893 
L 401.448141 21.973071 
L 421.938629 22.342713 
L 424.349274 22.284003 
L 426.75992 22.377784 
L 429.170566 22.307696 
L 437.607826 22.385565 
L 440.018471 22.268551 
L 442.429117 22.352137 
L 443.63444 22.30126 
L 447.250408 22.402661 
L 458.098314 22.360483 
L 460.508959 22.353598 
L 471.356865 22.102369 
L 491.847353 22.325867 
L 501.489936 22.386499 
L 503.900581 22.380584 
L 508.721873 22.268756 
L 514.748487 22.44364 
L 515.95381 22.384615 
L 515.95381 22.384615 
" clip-path="url(#p6f44e41a8b)" style="fill: none; stroke: #ff8c00; stroke-width: 1.5; stroke-linecap: square"/>
   </g>
   <g id="line2d_28">
    <path d="M 35.03 97 
L 36.235323 21.561887 
L 37.440646 18.578365 
L 38.645968 38.171227 
L 39.851291 49.878513 
L 41.056614 55.954207 
L 42.261937 53.472949 
L 43.46726 58.531945 
L 44.672583 39.354316 
L 45.877905 40.995877 
L 47.083228 45.695496 
L 48.288551 36.557686 
L 49.493874 38.729895 
L 50.699197 40.284472 
L 51.90452 43.720762 
L 53.109842 37.501181 
L 54.315165 40.92251 
L 55.520488 43.227739 
L 56.725811 38.199463 
L 57.931134 34.839793 
L 59.136457 36.918747 
L 61.547102 41.775291 
L 62.752425 43.618886 
L 63.957748 41.81729 
L 66.368394 43.954409 
L 67.573716 45.836288 
L 68.779039 47.326322 
L 69.984362 47.448533 
L 71.189685 37.399076 
L 72.395008 37.642585 
L 73.600331 38.643503 
L 74.805653 37.28232 
L 77.216299 39.806149 
L 78.421622 29.917476 
L 80.832268 33.270117 
L 82.03759 34.324956 
L 83.242913 28.172813 
L 84.448236 29.698625 
L 85.653559 29.314501 
L 88.064205 32.06067 
L 89.269527 28.539342 
L 90.47485 29.970492 
L 91.680173 25.40556 
L 92.885496 25.551844 
L 94.090819 26.97387 
L 95.296142 26.327747 
L 96.501464 22.831938 
L 97.706787 22.500889 
L 98.91211 18.87401 
L 100.117433 16.866245 
L 101.322756 12.416723 
L 102.528079 11.68598 
L 103.733401 11.366893 
L 104.938724 12.78112 
L 106.144047 14.021997 
L 107.34937 12.789922 
L 108.554693 14.034953 
L 110.965338 15.668722 
L 112.170661 16.834352 
L 113.375984 17.339253 
L 114.581307 17.441118 
L 116.991953 19.620196 
L 119.402598 21.062859 
L 120.607921 22.077054 
L 121.813244 20.81587 
L 123.018567 18.95565 
L 124.223889 19.564923 
L 125.429212 17.007619 
L 126.634535 16.513039 
L 130.250504 19.486405 
L 131.455826 19.608199 
L 132.661149 20.514182 
L 133.866472 20.12652 
L 135.071795 20.973925 
L 136.277118 21.676262 
L 137.482441 22.528495 
L 138.687763 22.863959 
L 139.893086 20.956257 
L 141.098409 21.80354 
L 142.303732 20.297137 
L 143.509055 19.608372 
L 144.714378 19.383505 
L 145.9197 11.778428 
L 147.125023 12.684782 
L 148.330346 13.01819 
L 149.535669 13.890469 
L 150.740992 13.194075 
L 153.151637 13.842098 
L 154.35696 14.351687 
L 155.562283 13.498763 
L 156.767606 14.299052 
L 157.972929 14.812441 
L 159.178252 15.03848 
L 160.383574 15.589734 
L 161.588897 16.347303 
L 163.999543 15.857285 
L 165.204866 16.159644 
L 166.410189 14.857709 
L 168.820834 16.219657 
L 170.026157 16.798589 
L 171.23148 12.599837 
L 173.642126 13.949852 
L 174.847448 13.737484 
L 176.052771 14.401502 
L 177.258094 14.872306 
L 178.463417 13.330595 
L 179.66874 13.324376 
L 180.874063 12.974238 
L 182.079385 10.483099 
L 184.490031 11.857831 
L 185.695354 11.845109 
L 186.900677 12.458404 
L 188.106 12.468052 
L 189.311322 13.098901 
L 190.516645 13.494614 
L 191.721968 13.059008 
L 197.748582 15.805989 
L 198.953905 14.959329 
L 202.569873 16.663331 
L 203.775196 16.730482 
L 204.980519 17.175533 
L 206.185842 16.355004 
L 209.80181 17.687918 
L 211.007133 17.328672 
L 212.212456 17.852722 
L 213.417779 18.186774 
L 214.623102 17.778692 
L 215.828425 17.572744 
L 217.033747 17.132197 
L 218.23907 17.475016 
L 220.649716 18.392132 
L 221.855039 18.681436 
L 223.060362 18.583108 
L 224.265684 18.810391 
L 225.471007 18.763515 
L 226.67633 19.114517 
L 227.881653 19.260839 
L 229.086976 18.233355 
L 230.292299 18.146857 
L 231.497621 18.270745 
L 232.702944 18.029118 
L 233.908267 13.640019 
L 236.318913 14.606234 
L 237.524236 13.750251 
L 238.729558 13.082338 
L 239.934881 13.278724 
L 241.140204 13.748101 
L 242.345527 13.841656 
L 243.55085 14.128994 
L 244.756173 14.53662 
L 245.961495 14.706822 
L 248.372141 15.548725 
L 249.577464 15.496365 
L 250.782787 15.687705 
L 251.98811 15.66856 
L 253.193432 11.218646 
L 254.398755 11.597441 
L 255.604078 11.61615 
L 256.809401 11.419524 
L 259.220047 12.242668 
L 260.425369 12.69203 
L 261.630692 12.675464 
L 264.041338 13.283673 
L 265.246661 13.619112 
L 266.451984 13.771613 
L 270.067952 14.644929 
L 271.273275 13.101426 
L 272.478598 13.514124 
L 273.683921 13.466832 
L 274.889243 13.869703 
L 276.094566 12.71839 
L 277.299889 13.071068 
L 278.505212 12.746656 
L 279.710535 13.101499 
L 280.915858 13.055549 
L 282.12118 13.394664 
L 283.326503 13.334333 
L 286.942472 14.407766 
L 288.147794 14.705505 
L 290.55844 14.285979 
L 291.763763 14.583064 
L 292.969086 14.681675 
L 295.379731 14.199102 
L 298.9957 15.154577 
L 300.201023 14.860278 
L 305.022314 16.213548 
L 306.227637 16.505284 
L 308.638283 16.628868 
L 311.048928 17.167968 
L 312.254251 13.472612 
L 313.459574 12.783627 
L 318.280865 13.851426 
L 320.691511 13.398065 
L 326.718125 14.682474 
L 327.923448 13.942913 
L 332.744739 14.900588 
L 335.155385 15.06799 
L 336.360708 13.45686 
L 337.566031 13.437485 
L 338.771353 13.148888 
L 339.976676 13.212345 
L 341.181999 12.787364 
L 344.797968 13.686762 
L 346.00329 13.797744 
L 347.208613 14.117303 
L 348.413936 13.881781 
L 349.619259 14.052778 
L 350.824582 14.001349 
L 352.029905 14.137029 
L 353.235227 11.280451 
L 356.851196 11.957681 
L 359.261842 12.455557 
L 360.467164 11.57114 
L 361.672487 11.375083 
L 364.083133 11.409087 
L 366.493778 12.020736 
L 371.31507 12.669398 
L 374.931038 13.510938 
L 376.136361 13.284592 
L 377.341684 13.454594 
L 378.547007 13.297157 
L 379.75233 13.463722 
L 380.957652 13.747842 
L 382.162975 13.548247 
L 384.573621 14.047165 
L 385.778944 13.596417 
L 386.984267 13.631408 
L 389.394912 13.427663 
L 390.600235 13.707835 
L 395.421526 14.295733 
L 399.037495 14.825804 
L 401.448141 15.057729 
L 403.858786 15.458104 
L 405.064109 15.542514 
L 408.680078 16.226566 
L 409.8854 16.391842 
L 411.090723 16.236398 
L 412.296046 16.342766 
L 413.501369 16.066766 
L 414.706692 16.308006 
L 415.912015 16.130415 
L 417.117337 16.207795 
L 421.938629 17.095263 
L 423.143952 16.91709 
L 424.349274 17.12847 
L 425.554597 16.8708 
L 426.75992 17.115498 
L 427.965243 17.073504 
L 430.375889 17.540734 
L 431.581211 17.504125 
L 435.19718 18.099979 
L 437.607826 18.387169 
L 438.813148 18.190615 
L 440.018471 18.342413 
L 441.223794 18.200628 
L 442.429117 18.429086 
L 446.045085 18.649995 
L 449.661054 19.278689 
L 450.866377 19.314528 
L 452.071699 19.536684 
L 453.277022 19.537648 
L 454.482345 19.749878 
L 456.892991 19.963278 
L 458.098314 19.718966 
L 460.508959 19.764473 
L 462.919605 20.064674 
L 464.124928 19.623295 
L 467.740896 19.964381 
L 468.946219 19.854035 
L 471.356865 20.061119 
L 473.76751 20.374185 
L 474.972833 20.440419 
L 478.588802 21.018934 
L 479.794125 20.969845 
L 480.999447 21.080607 
L 482.20477 21.054258 
L 483.410093 21.246555 
L 484.615416 20.896189 
L 485.820739 20.953101 
L 487.026062 20.723938 
L 489.436707 20.955868 
L 490.64203 21.145992 
L 491.847353 21.185461 
L 494.257999 21.580825 
L 495.463321 21.580018 
L 497.873967 21.83912 
L 502.695258 21.757384 
L 505.105904 21.886208 
L 507.51655 22.250339 
L 511.132518 22.165251 
L 513.543164 22.532373 
L 515.95381 22.384615 
L 515.95381 22.384615 
" clip-path="url(#p6f44e41a8b)" style="fill: none; stroke-dasharray: 5.55,2.4; stroke-dashoffset: 0; stroke: #ff8c00; stroke-width: 1.5"/>
   </g>
   <g id="patch_3">
    <path d="M 35.03 97 
L 35.03 0 
" style="fill: none; stroke: #000000; stroke-width: 0.8; stroke-linejoin: miter; stroke-linecap: square"/>
   </g>
   <g id="patch_4">
    <path d="M 540 97 
L 540 0 
" style="fill: none; stroke: #000000; stroke-width: 0.8; stroke-linejoin: miter; stroke-linecap: square"/>
   </g>
   <g id="patch_5">
    <path d="M 35.03 97 
L 540 97 
" style="fill: none; stroke: #000000; stroke-width: 0.8; stroke-linejoin: miter; stroke-linecap: square"/>
   </g>
   <g id="patch_6">
    <path d="M 35.03 0 
L 540 0 
" style="fill: none; stroke: #000000; stroke-width: 0.8; stroke-linejoin: miter; stroke-linecap: square"/>
   </g>
  </g>
 </g>
 <defs>
  <clipPath id="p6f44e41a8b">
   <rect x="35.03" y="0" width="504.97" height="97"/>
  </clipPath>
 </defs>
</svg>
