<?xml version="1.0" encoding="utf-8" standalone="no"?>
<!DOCTYPE svg PUBLIC "-//W3C//DTD SVG 1.1//EN"
  "http://www.w3.org/Graphics/SVG/1.1/DTD/svg11.dtd">
<svg xmlns:xlink="http://www.w3.org/1999/xlink" width="540pt" height="158.4pt" viewBox="0 0 540 158.4" xmlns="http://www.w3.org/2000/svg" version="1.1">
 <metadata>
  <rdf:RDF xmlns:dc="http://purl.org/dc/elements/1.1/" xmlns:cc="http://creativecommons.org/ns#" xmlns:rdf="http://www.w3.org/1999/02/22-rdf-syntax-ns#">
   <cc:Work>
    <dc:type rdf:resource="http://purl.org/dc/dcmitype/StillImage"/>
    <dc:date>2025-03-30T01:46:43.775067</dc:date>
    <dc:format>image/svg+xml</dc:format>
    <dc:creator>
     <cc:Agent>
      <dc:title>Matplotlib v3.9.0, https://matplotlib.org/</dc:title>
     </cc:Agent>
    </dc:creator>
   </cc:Work>
  </rdf:RDF>
 </metadata>
 <defs>
  <style type="text/css">*{stroke-linejoin: round; stroke-linecap: butt}</style>
 </defs>
 <g id="figure_1">
  <g id="patch_1">
   <path d="M 0 158.4 
L 540 158.4 
L 540 0 
L 0 0 
z
" style="fill: #ffffff"/>
  </g>
  <g id="axes_1">
   <g id="patch_2">
    <path d="M 32.25125 129.8 
L 503.26 129.8 
L 503.26 3.96 
L 32.25125 3.96 
z
" style="fill: #ffffff"/>
   </g>
   <g id="matplotlib.axis_1">
    <g id="xtick_1">
     <g id="line2d_1">
      <path d="M 32.25125 129.8 
L 32.25125 3.96 
" clip-path="url(#pfec7994fc3)" style="fill: none; stroke-dasharray: 1.85,0.8; stroke-dashoffset: 0; stroke: #b0b0b0; stroke-width: 0.5"/>
     </g>
     <g id="line2d_2">
      <defs>
       <path id="m9492d9eca4" d="M 0 0 
L 0 3.5 
" style="stroke: #000000; stroke-width: 0.8"/>
      </defs>
      <g>
       <use xlink:href="#m9492d9eca4" x="32.25125" y="129.8" style="stroke: #000000; stroke-width: 0.8"/>
      </g>
     </g>
     <g id="text_1">
      <text style="font: 10px 'Times New Roman'; text-anchor: middle" x="32.25125" y="143.74375" transform="rotate(-0 32.25125 143.74375)">0</text>
     </g>
    </g>
    <g id="xtick_2">
     <g id="line2d_3">
      <path d="M 116.138378 129.8 
L 116.138378 3.96 
" clip-path="url(#pfec7994fc3)" style="fill: none; stroke-dasharray: 1.85,0.8; stroke-dashoffset: 0; stroke: #b0b0b0; stroke-width: 0.5"/>
     </g>
     <g id="line2d_4">
      <g>
       <use xlink:href="#m9492d9eca4" x="116.138378" y="129.8" style="stroke: #000000; stroke-width: 0.8"/>
      </g>
     </g>
     <g id="text_2">
      <text style="font: 10px 'Times New Roman'; text-anchor: middle" x="116.138378" y="143.74375" transform="rotate(-0 116.138378 143.74375)">20</text>
     </g>
    </g>
    <g id="xtick_3">
     <g id="line2d_5">
      <path d="M 200.025507 129.8 
L 200.025507 3.96 
" clip-path="url(#pfec7994fc3)" style="fill: none; stroke-dasharray: 1.85,0.8; stroke-dashoffset: 0; stroke: #b0b0b0; stroke-width: 0.5"/>
     </g>
     <g id="line2d_6">
      <g>
       <use xlink:href="#m9492d9eca4" x="200.025507" y="129.8" style="stroke: #000000; stroke-width: 0.8"/>
      </g>
     </g>
     <g id="text_3">
      <text style="font: 10px 'Times New Roman'; text-anchor: middle" x="200.025507" y="143.74375" transform="rotate(-0 200.025507 143.74375)">40</text>
     </g>
    </g>
    <g id="xtick_4">
     <g id="line2d_7">
      <path d="M 283.912635 129.8 
L 283.912635 3.96 
" clip-path="url(#pfec7994fc3)" style="fill: none; stroke-dasharray: 1.85,0.8; stroke-dashoffset: 0; stroke: #b0b0b0; stroke-width: 0.5"/>
     </g>
     <g id="line2d_8">
      <g>
       <use xlink:href="#m9492d9eca4" x="283.912635" y="129.8" style="stroke: #000000; stroke-width: 0.8"/>
      </g>
     </g>
     <g id="text_4">
      <text style="font: 10px 'Times New Roman'; text-anchor: middle" x="283.912635" y="143.74375" transform="rotate(-0 283.912635 143.74375)">60</text>
     </g>
    </g>
    <g id="xtick_5">
     <g id="line2d_9">
      <path d="M 367.799764 129.8 
L 367.799764 3.96 
" clip-path="url(#pfec7994fc3)" style="fill: none; stroke-dasharray: 1.85,0.8; stroke-dashoffset: 0; stroke: #b0b0b0; stroke-width: 0.5"/>
     </g>
     <g id="line2d_10">
      <g>
       <use xlink:href="#m9492d9eca4" x="367.799764" y="129.8" style="stroke: #000000; stroke-width: 0.8"/>
      </g>
     </g>
     <g id="text_5">
      <text style="font: 10px 'Times New Roman'; text-anchor: middle" x="367.799764" y="143.74375" transform="rotate(-0 367.799764 143.74375)">80</text>
     </g>
    </g>
    <g id="xtick_6">
     <g id="line2d_11">
      <path d="M 451.686892 129.8 
L 451.686892 3.96 
" clip-path="url(#pfec7994fc3)" style="fill: none; stroke-dasharray: 1.85,0.8; stroke-dashoffset: 0; stroke: #b0b0b0; stroke-width: 0.5"/>
     </g>
     <g id="line2d_12">
      <g>
       <use xlink:href="#m9492d9eca4" x="451.686892" y="129.8" style="stroke: #000000; stroke-width: 0.8"/>
      </g>
     </g>
     <g id="text_6">
      <text style="font: 10px 'Times New Roman'; text-anchor: middle" x="451.686892" y="143.74375" transform="rotate(-0 451.686892 143.74375)">100</text>
     </g>
    </g>
    <g id="text_7">
     <text style="font: 12px 'Times New Roman'; text-anchor: middle" x="267.755625" y="154.215313" transform="rotate(-0 267.755625 154.215313)">Time (weeks)</text>
    </g>
   </g>
   <g id="matplotlib.axis_2">
    <g id="ytick_1">
     <g id="line2d_13">
      <path d="M 32.25125 129.8 
L 503.26 129.8 
" clip-path="url(#pfec7994fc3)" style="fill: none; stroke-dasharray: 1.85,0.8; stroke-dashoffset: 0; stroke: #b0b0b0; stroke-width: 0.5"/>
     </g>
     <g id="line2d_14">
      <defs>
       <path id="mf14ef2170b" d="M 0 0 
L -3.5 0 
" style="stroke: #000000; stroke-width: 0.8"/>
      </defs>
      <g>
       <use xlink:href="#mf14ef2170b" x="32.25125" y="129.8" style="stroke: #000000; stroke-width: 0.8"/>
      </g>
     </g>
     <g id="text_8">
      <text style="font: 10px 'Times New Roman'; text-anchor: end" x="25.25125" y="133.271875" transform="rotate(-0 25.25125 133.271875)">0</text>
     </g>
    </g>
    <g id="ytick_2">
     <g id="line2d_15">
      <path d="M 32.25125 104.632 
L 503.26 104.632 
" clip-path="url(#pfec7994fc3)" style="fill: none; stroke-dasharray: 1.85,0.8; stroke-dashoffset: 0; stroke: #b0b0b0; stroke-width: 0.5"/>
     </g>
     <g id="line2d_16">
      <g>
       <use xlink:href="#mf14ef2170b" x="32.25125" y="104.632" style="stroke: #000000; stroke-width: 0.8"/>
      </g>
     </g>
     <g id="text_9">
      <text style="font: 10px 'Times New Roman'; text-anchor: end" x="25.25125" y="108.103875" transform="rotate(-0 25.25125 108.103875)">8</text>
     </g>
    </g>
    <g id="ytick_3">
     <g id="line2d_17">
      <path d="M 32.25125 79.464 
L 503.26 79.464 
" clip-path="url(#pfec7994fc3)" style="fill: none; stroke-dasharray: 1.85,0.8; stroke-dashoffset: 0; stroke: #b0b0b0; stroke-width: 0.5"/>
     </g>
     <g id="line2d_18">
      <g>
       <use xlink:href="#mf14ef2170b" x="32.25125" y="79.464" style="stroke: #000000; stroke-width: 0.8"/>
      </g>
     </g>
     <g id="text_10">
      <text style="font: 10px 'Times New Roman'; text-anchor: end" x="25.25125" y="82.935875" transform="rotate(-0 25.25125 82.935875)">16</text>
     </g>
    </g>
    <g id="ytick_4">
     <g id="line2d_19">
      <path d="M 32.25125 54.296 
L 503.26 54.296 
" clip-path="url(#pfec7994fc3)" style="fill: none; stroke-dasharray: 1.85,0.8; stroke-dashoffset: 0; stroke: #b0b0b0; stroke-width: 0.5"/>
     </g>
     <g id="line2d_20">
      <g>
       <use xlink:href="#mf14ef2170b" x="32.25125" y="54.296" style="stroke: #000000; stroke-width: 0.8"/>
      </g>
     </g>
     <g id="text_11">
      <text style="font: 10px 'Times New Roman'; text-anchor: end" x="25.25125" y="57.767875" transform="rotate(-0 25.25125 57.767875)">24</text>
     </g>
    </g>
    <g id="ytick_5">
     <g id="line2d_21">
      <path d="M 32.25125 29.128 
L 503.26 29.128 
" clip-path="url(#pfec7994fc3)" style="fill: none; stroke-dasharray: 1.85,0.8; stroke-dashoffset: 0; stroke: #b0b0b0; stroke-width: 0.5"/>
     </g>
     <g id="line2d_22">
      <g>
       <use xlink:href="#mf14ef2170b" x="32.25125" y="29.128" style="stroke: #000000; stroke-width: 0.8"/>
      </g>
     </g>
     <g id="text_12">
      <text style="font: 10px 'Times New Roman'; text-anchor: end" x="25.25125" y="32.599875" transform="rotate(-0 25.25125 32.599875)">32</text>
     </g>
    </g>
    <g id="ytick_6">
     <g id="line2d_23">
      <path d="M 32.25125 3.96 
L 503.26 3.96 
" clip-path="url(#pfec7994fc3)" style="fill: none; stroke-dasharray: 1.85,0.8; stroke-dashoffset: 0; stroke: #b0b0b0; stroke-width: 0.5"/>
     </g>
     <g id="line2d_24">
      <g>
       <use xlink:href="#mf14ef2170b" x="32.25125" y="3.96" style="stroke: #000000; stroke-width: 0.8"/>
      </g>
     </g>
     <g id="text_13">
      <text style="font: 10px 'Times New Roman'; text-anchor: end" x="25.25125" y="7.431875" transform="rotate(-0 25.25125 7.431875)">40</text>
     </g>
    </g>
    <g id="text_14">
     <text style="fill: #ff8c00; font: 700 12px 'Times New Roman'; text-anchor: middle" x="8.661875" y="66.88" transform="rotate(-90 8.661875 66.88)">Effort Backlog (h)</text>
    </g>
   </g>
   <g id="line2d_25">
    <path d="M 32.25125 94.560801 
L 32.450981 93.387354 
L 32.87541 93.27058 
L 33.025209 92.219882 
L 33.050175 92.027446 
L 33.467114 91.902309 
L 33.649369 90.809391 
L 34.068804 90.69469 
L 34.248563 89.526753 
L 34.670495 89.408799 
L 34.847756 88.517985 
L 36.46558 88.406085 
L 36.645338 87.472298 
L 37.069767 87.354297 
L 37.244531 86.616575 
L 37.681444 86.497991 
L 37.843725 85.839228 
L 38.258168 85.731721 
L 38.442919 84.242618 
L 38.854865 84.130742 
L 39.042113 82.881677 
L 40.662433 82.759332 
L 40.839694 81.909288 
L 41.26662 81.787768 
L 41.438888 81.256506 
L 41.873303 81.138734 
L 42.038082 80.557912 
L 42.462511 80.439518 
L 42.637275 79.528443 
L 43.059208 79.407668 
L 43.236469 78.461728 
L 44.866776 78.346641 
L 45.034051 77.443625 
L 45.458479 77.327684 
L 45.633244 76.106679 
L 46.042693 75.986258 
L 46.232438 73.91403 
L 46.64688 73.790755 
L 46.831632 72.029574 
L 47.243578 71.909153 
L 47.430826 70.57112 
L 49.046152 70.45683 
L 49.228407 69.683177 
L 49.662822 69.564397 
L 49.827601 68.839099 
L 50.262016 68.723926 
L 50.426795 68.059535 
L 50.85372 67.945091 
L 51.025988 67.326424 
L 51.452914 67.215231 
L 51.625182 66.13293 
L 53.243005 66.009387 
L 53.422763 64.994724 
L 53.852186 64.879665 
L 54.021957 64.447512 
L 54.468856 64.333593 
L 54.621151 63.878769 
L 55.050573 63.765671 
L 55.220345 63.017696 
L 55.64727 62.901931 
L 55.819538 62.30217 
L 57.442355 62.183739 
L 57.61712 61.604433 
L 58.044045 61.486913 
L 58.216314 60.484796 
L 58.633253 60.353833 
L 58.815507 59.320463 
L 59.239936 59.198707 
L 59.414701 58.556495 
L 59.851613 58.437934 
L 60.013895 57.986208 
L 61.651691 57.870481 
L 61.811476 57.183825 
L 62.228415 57.062531 
L 62.41067 56.004988 
L 62.840092 55.886585 
L 63.009864 55.365713 
L 63.494212 55.253797 
L 63.609058 54.7243 
L 64.03848 54.601855 
L 64.208251 54.189448 
L 65.858531 54.077399 
L 66.005833 53.664078 
L 66.437752 53.553559 
L 66.605026 53.23334 
L 67.046932 53.116351 
L 67.20422 52.522348 
L 67.628649 52.402091 
L 67.803414 51.580144 
L 68.23034 51.461167 
L 68.370151 50.420202 
L 68.402608 50.157536 
L 70.015438 50.041088 
L 70.200189 48.792811 
L 70.617128 48.67604 
L 70.799383 47.731493 
L 71.226308 47.613632 
L 71.398577 46.857736 
L 71.840482 46.744056 
L 71.925368 46.238089 
L 71.99777 45.800267 
L 72.419703 45.68165 
L 72.596964 44.925694 
L 74.227271 44.806343 
L 74.394546 44.110636 
L 74.818974 43.988972 
L 74.993739 43.193968 
L 75.423161 43.080189 
L 75.592933 42.455488 
L 76.004879 42.347493 
L 76.192127 40.823615 
L 76.611562 40.700126 
L 76.791321 39.517366 
L 78.409144 39.402287 
L 78.588902 38.516375 
L 79.015827 38.395517 
L 79.188096 37.784578 
L 79.639988 37.665502 
L 79.777303 37.152792 
L 79.787289 37.109447 
L 80.216712 36.990111 
L 80.386483 36.587845 
L 80.840872 36.47976 
L 80.985677 36.002017 
L 82.613487 35.881507 
L 82.783258 35.533381 
L 83.217674 35.415838 
L 83.382452 35.05759 
L 83.859311 34.944374 
L 83.981646 34.703082 
L 84.426048 34.585142 
L 84.58084 34.114677 
L 85.005269 33.989877 
L 85.180033 33.533899 
L 86.927682 33.41596 
L 86.977615 33.278377 
L 87.4345 33.161945 
L 87.576809 33.002776 
L 88.12607 32.890805 
L 88.176002 32.820571 
L 88.617908 32.702474 
L 88.775196 32.563438 
L 89.249558 32.450462 
L 89.37439 32.146455 
L 90.997206 32.03879 
L 91.171971 31.461107 
L 91.63385 31.349682 
L 91.651326 31.323906 
L 91.693769 31.465625 
L 91.771165 31.55359 
L 92.320426 31.664303 
L 92.370359 31.772636 
L 92.817257 31.889681 
L 92.9346 31.883515 
L 92.969553 31.854522 
L 95.196556 31.953487 
L 95.366328 32.088033 
L 95.875642 32.201179 
L 95.965521 32.368508 
L 96.41242 32.486505 
L 96.564715 32.57961 
L 97.031587 32.679985 
L 97.163909 33.323803 
L 97.595828 33.441232 
L 97.763103 33.860793 
L 99.403396 33.979899 
L 99.560684 34.372436 
L 100.007583 34.482855 
L 100.159878 34.956339 
L 100.651716 35.074727 
L 100.759072 35.30596 
L 101.210964 35.422683 
L 101.358265 35.534745 
L 101.792681 35.652937 
L 101.957459 36.340205 
L 103.577779 36.463272 
L 103.75504 36.995615 
L 104.181966 37.118786 
L 104.354234 37.709298 
L 104.806126 37.820352 
L 104.953428 38.266439 
L 105.387844 38.383589 
L 105.552622 39.077736 
L 105.972057 39.204428 
L 106.151816 40.056355 
L 107.784619 40.174097 
L 107.949397 40.693461 
L 108.376322 40.805908 
L 108.548591 41.401389 
L 108.978013 41.512763 
L 109.147784 42.376585 
L 109.577207 42.488838 
L 109.746978 43.144257 
L 110.211353 43.256788 
L 110.346172 43.476804 
L 111.961499 43.579452 
L 112.143753 44.565587 
L 112.565686 44.679925 
L 112.742947 45.359512 
L 113.164879 45.479484 
L 113.342141 45.982973 
L 113.833979 46.095287 
L 113.941335 46.432933 
L 114.38324 46.552469 
L 114.540528 47.058946 
L 116.180821 47.169937 
L 116.33811 47.446911 
L 116.807478 47.555791 
L 116.937304 48.133132 
L 117.354243 48.256174 
L 117.536497 49.356894 
L 117.955933 49.477614 
L 118.135691 50.364639 
L 118.562617 50.482246 
L 118.734885 51.014835 
L 120.397648 51.131171 
L 120.532466 51.28022 
L 120.994345 51.397522 
L 121.13166 51.690041 
L 121.566075 51.806711 
L 121.730854 52.461 
L 122.150289 52.572925 
L 122.330048 53.217333 
L 122.749483 53.330439 
L 122.929241 54.01023 
L 124.567038 54.129593 
L 124.626957 54.372077 
L 124.726823 55.439556 
L 125.138768 55.576599 
L 125.326016 57.105988 
L 125.752942 57.213825 
L 125.92521 58.310132 
L 126.354632 58.430205 
L 126.524404 59.127692 
L 126.981289 59.243187 
L 127.123598 59.369973 
L 128.776374 59.483523 
L 128.921179 59.600713 
L 129.423004 59.712703 
L 129.520373 59.851705 
L 130.074627 59.961628 
L 130.092104 59.987385 
L 130.119567 59.970016 
L 130.588935 60.073639 
L 130.71876 60.620719 
L 131.158169 60.727987 
L 131.292988 61.034445 
L 131.317954 60.983651 
L 132.998193 60.874994 
L 133.115535 60.658122 
L 134.126675 60.771992 
L 134.313923 60.985383 
L 135.392472 61.115247 
L 135.487344 61.293614 
L 135.512311 61.344054 
L 137.14012 61.453576 
L 137.309892 62.19044 
L 137.744307 62.307407 
L 137.909086 62.82624 
L 138.408414 62.942735 
L 138.508279 63.122748 
L 138.972655 63.016193 
L 139.08001 62.985804 
L 139.099983 62.996487 
L 139.107473 63.001877 
L 139.606801 63.103052 
L 139.706667 63.619054 
L 141.32449 63.728589 
L 141.504248 64.309676 
L 141.946154 64.42613 
L 142.031039 64.485279 
L 142.073482 64.456553 
L 142.537858 64.459398 
L 142.61775 64.692892 
L 142.702636 64.937314 
L 143.886044 65.062479 
L 143.901023 65.079855 
L 145.568779 64.971234 
L 145.646175 64.86212 
L 145.698605 64.9166 
L 146.217906 65.030324 
L 146.297798 65.217918 
L 146.769664 65.331199 
L 146.896992 65.591852 
L 147.316428 65.713115 
L 147.496186 66.758089 
L 147.920615 66.88112 
L 148.09538 67.723285 
L 149.718196 67.835343 
L 149.892961 68.386192 
L 150.322383 68.499803 
L 150.492155 69.119467 
L 150.909094 69.237254 
L 151.091349 70.209138 
L 151.525764 70.325669 
L 151.690542 70.900759 
L 152.139938 71.017872 
L 152.244797 71.504524 
L 152.289736 71.724446 
L 153.912553 71.840752 
L 154.087318 72.591572 
L 154.529223 72.707981 
L 154.664042 73.297928 
L 154.686511 73.506398 
L 155.098457 73.619435 
L 155.285705 75.039396 
L 155.700147 75.1471 
L 155.884899 76.244535 
L 156.314321 76.366652 
L 156.484093 76.956993 
L 158.131876 77.072814 
L 158.281674 77.438508 
L 158.713593 77.547519 
L 158.880868 77.973456 
L 159.315283 78.08994 
L 159.480062 78.715028 
L 159.924464 78.834636 
L 160.079255 79.423616 
L 160.508678 79.544065 
L 160.678449 80.099311 
L 162.311252 80.21132 
L 162.47603 80.762164 
L 162.920432 80.880553 
L 163.075224 81.284594 
L 163.552083 81.397541 
L 163.621989 81.698827 
L 163.674418 81.870994 
L 164.131303 81.984494 
L 164.273612 82.487928 
L 164.715517 82.598674 
L 164.872806 83.152832 
L 166.503112 83.270838 
L 166.670387 83.726898 
L 167.132265 83.844736 
L 167.269581 84.305715 
L 167.699003 84.424784 
L 167.868774 84.808501 
L 168.2957 84.920514 
L 168.467968 85.690717 
L 168.8899 85.814029 
L 169.067162 86.437431 
L 170.754891 86.550997 
L 170.864743 86.787869 
L 171.334112 86.901359 
L 171.463937 87.094125 
L 171.898353 87.203925 
L 172.063131 87.846436 
L 172.517519 87.963802 
L 172.662325 88.243556 
L 173.086754 88.35826 
L 173.261518 88.816809 
L 174.944254 88.92889 
L 175.0591 89.15913 
L 175.486025 89.270167 
L 175.658293 89.831407 
L 176.182588 89.947414 
L 176.257487 90.03751 
L 176.754319 90.155918 
L 176.856681 90.243579 
L 177.348519 90.354227 
L 177.455875 90.494992 
L 179.221 90.600796 
L 179.253456 90.751448 
L 179.680382 90.867849 
L 179.85265 91.457903 
L 180.292059 91.570667 
L 180.451844 92.155233 
L 180.896246 92.267937 
L 181.051037 92.482103 
L 181.485453 92.600886 
L 181.650231 92.865328 
L 183.342954 92.980237 
L 183.427839 93.150813 
L 183.447813 93.206416 
L 183.897208 93.322045 
L 184.047006 93.525433 
L 184.493905 93.637067 
L 184.6462 94.111156 
L 185.075622 94.224349 
L 185.245394 94.611657 
L 185.682306 94.724585 
L 185.844588 94.922273 
L 187.549793 95.033813 
L 187.642169 95.314226 
L 188.121524 95.426122 
L 188.241363 95.639636 
L 188.733201 95.755945 
L 188.803107 95.956806 
L 188.840557 96.085591 
L 189.277469 96.19949 
L 189.43975 96.60794 
L 189.966541 96.722999 
L 190.038944 96.778719 
L 191.694217 96.885505 
L 191.836525 97.101132 
L 192.300901 97.211131 
L 192.435719 97.686081 
L 192.870135 97.805521 
L 193.034913 98.074763 
L 193.501785 98.188676 
L 193.634107 98.386355 
L 194.135932 98.501409 
L 194.2333 98.692959 
L 195.91354 98.803572 
L 196.030882 98.986848 
L 196.512733 99.100578 
L 196.630076 99.278522 
L 197.204303 99.392759 
L 197.229269 99.404399 
L 197.801 99.516013 
L 197.828463 99.533266 
L 198.287845 99.650307 
L 198.427657 99.717617 
L 200.127869 99.823729 
L 200.225238 99.986509 
L 200.724566 100.100924 
L 200.824432 100.131543 
L 201.403653 100.243579 
L 201.423626 100.258884 
L 201.925451 100.369358 
L 202.02282 100.475408 
L 202.512161 100.589062 
L 202.622013 100.711669 
L 204.339702 100.825803 
L 204.392132 100.957531 
L 204.419595 101.069843 
L 204.85401 101.188055 
L 205.018788 101.602401 
L 205.543083 101.709216 
L 205.617982 101.818613 
L 206.107324 101.925538 
L 206.217176 102.160263 
L 206.659081 102.27361 
L 206.81637 102.582082 
L 208.469146 102.699478 
L 208.613951 103.035669 
L 209.050863 103.150639 
L 209.213145 103.653685 
L 209.645064 103.770037 
L 209.812339 104.148347 
L 210.259237 104.254969 
L 210.411532 104.831649 
L 210.840955 104.949944 
L 211.010726 105.453838 
L 212.651019 105.565293 
L 212.808308 106.013535 
L 213.242723 106.134733 
L 213.407501 106.46416 
L 213.83193 106.586757 
L 214.006695 107.112373 
L 214.49354 107.229238 
L 214.605889 107.34793 
L 215.057781 107.459858 
L 215.205083 107.801976 
L 216.935255 107.919192 
L 217.002664 108.024753 
L 217.449563 108.140201 
L 217.601858 108.352204 
L 218.03128 108.472022 
L 218.201051 108.776378 
L 218.660433 108.887196 
L 218.800245 108.997271 
L 219.254634 109.110723 
L 219.399439 109.316526 
L 221.102148 109.428574 
L 221.19702 109.406546 
L 221.721315 109.293582 
L 221.796214 109.241924 
L 223.404051 109.349683 
L 223.593795 109.544648 
L 225.286518 109.658239 
L 225.391377 109.772438 
L 226.444959 109.894203 
L 226.589764 109.925305 
L 227.613387 110.039557 
L 227.788152 110.188385 
L 230.022645 110.297023 
L 230.184927 110.414123 
L 231.295932 110.526145 
L 231.383315 110.502532 
L 234.961001 110.621322 
L 234.978477 110.62736 
L 235.490289 110.738129 
L 235.577671 110.91625 
L 236.059523 111.030622 
L 236.176865 111.091775 
L 237.832138 111.203593 
L 237.974446 111.381111 
L 238.51372 111.491021 
L 238.57364 111.595471 
L 239.097934 111.493211 
L 239.172834 111.36738 
L 239.667168 111.251719 
L 239.772027 111.107368 
L 240.253879 110.992165 
L 240.371221 110.755505 
L 242.093903 110.640846 
L 242.168802 110.65497 
L 243.237365 110.550278 
L 243.36719 110.549397 
L 244.493175 110.43457 
L 244.565578 110.389949 
L 246.825037 110.279374 
L 246.962353 110.207977 
L 247.504124 110.095463 
L 247.561546 110.064189 
L 250.545032 109.9433 
L 250.557515 109.926276 
L 251.076817 109.811796 
L 251.156709 109.804909 
L 254.624543 109.699059 
L 254.719415 109.758299 
L 254.751872 109.782372 
L 255.256193 109.670255 
L 255.351066 109.598914 
L 256.362205 109.487705 
L 256.5145 109.486272 
L 256.549453 109.517715 
L 259.987327 109.426657 
L 260.144616 109.378276 
L 261.328023 109.490136 
L 261.343003 109.490289 
L 265.415024 109.599812 
L 265.53736 109.664055 
L 267.849249 109.777631 
L 267.934135 109.792849 
L 271.352036 109.888381 
L 271.529297 109.944666 
L 273.888623 109.844591 
L 273.926073 109.834341 
L 277.386417 109.942875 
L 277.521235 110.044956 
L 281.068962 109.944983 
L 281.116398 109.942634 
L 288.266777 109.838599 
L 288.306723 109.782365 
L 296.575597 109.820862 
L 296.695436 109.847609 
L 299.009822 109.95711 
L 299.092211 110.135921 
L 300.77245 110.252713 
L 300.889792 110.491499 
L 301.361658 110.601945 
L 301.488986 110.828999 
L 301.960851 110.94005 
L 302.08818 111.016999 
L 302.634944 111.124479 
L 302.687374 111.160793 
L 303.264098 111.26605 
L 303.286568 111.314737 
L 305.014243 111.430675 
L 305.670859 111.760374 
L 305.683343 111.778889 
L 306.247583 111.893822 
L 306.282536 111.923955 
L 314.017129 111.874605 
L 314.072055 111.57208 
L 314.493988 111.44832 
L 314.671249 110.548771 
L 315.098175 110.428714 
L 315.270443 109.804749 
L 315.712348 109.689594 
L 315.869637 109.341566 
L 317.554869 109.226994 
L 317.659728 109.136382 
L 317.667218 109.155081 
L 318.11162 109.267449 
L 318.266412 109.539348 
L 318.708317 109.656282 
L 318.865606 109.97211 
L 319.329981 110.084892 
L 319.464799 110.318207 
L 319.921685 110.429196 
L 320.063993 110.713878 
L 321.716769 110.82717 
L 321.861575 111.124465 
L 322.31097 111.236686 
L 322.460768 111.322329 
L 322.962593 111.430879 
L 323.030002 111.522544 
L 323.059962 111.497606 
L 324.19843 111.604941 
L 324.25835 111.569459 
L 326.45789 111.680503 
L 326.655125 111.812713 
L 327.683741 111.929414 
L 328.257968 112.086884 
L 328.36782 112.160608 
L 328.452706 112.269958 
L 330.794555 112.166788 
L 330.844488 112.147204 
L 330.849481 112.149854 
L 332.502257 112.048133 
L 332.647063 111.8657 
L 334.377235 111.754653 
L 334.444644 111.688181 
L 334.983918 111.577561 
L 335.043838 111.50421 
L 335.528186 111.390227 
L 335.643031 111.16195 
L 336.092427 111.049092 
L 336.242225 110.674607 
L 336.806466 110.559947 
L 336.841419 110.485628 
L 338.519162 110.371518 
L 338.639 110.383617 
L 339.125845 110.269007 
L 339.238194 110.189982 
L 339.725039 110.079651 
L 339.837388 109.972312 
L 340.354192 109.862952 
L 340.436582 109.866116 
L 342.703531 109.761054 
L 342.828363 109.666576 
L 342.833357 109.669373 
L 343.402591 109.561683 
L 343.43255 109.552942 
L 344.4362 109.443699 
L 344.630938 109.308521 
L 347.432169 109.175328 
L 347.626907 109.094746 
L 348.705456 108.980297 
L 349.2672 108.919026 
L 351.204593 108.787335 
L 351.22207 108.776877 
L 351.813773 108.66593 
L 351.821263 108.660295 
L 352.415464 108.551028 
L 352.420457 108.544293 
L 352.997181 108.431648 
L 353.019651 108.400397 
L 353.536455 108.286289 
L 353.618845 108.248258 
L 355.878304 108.140514 
L 356.01562 108.008196 
L 357.156585 107.898168 
L 357.214007 107.913281 
L 360.157547 107.810704 
L 360.209976 107.771423 
L 364.232064 107.890702 
L 364.404333 107.978738 
L 365.457915 108.094118 
L 365.60272 108.178693 
L 366.196921 108.289357 
L 366.201914 108.291078 
L 370.293908 108.183256 
L 370.39627 108.190022 
L 372.720643 108.080184 
L 372.793045 107.9473 
L 373.249931 107.83412 
L 373.392239 107.38762 
L 373.839138 107.272891 
L 373.991433 106.831394 
L 374.443325 106.717092 
L 374.590627 106.299111 
L 376.235913 106.187207 
L 376.388208 105.794345 
L 376.82512 105.6807 
L 376.987402 105.256609 
L 377.424314 105.141705 
L 377.586596 104.752286 
L 378.040984 104.637728 
L 378.185789 104.323988 
L 378.637681 104.208695 
L 378.784983 103.918929 
L 380.432766 103.812859 
L 380.582565 103.242507 
L 381.011987 103.123437 
L 381.181758 102.503776 
L 381.613677 102.387075 
L 381.780952 101.59588 
L 382.207878 101.483796 
L 382.380146 100.665128 
L 382.812065 100.548366 
L 382.97934 99.957692 
L 384.602156 99.838358 
L 384.776921 99.179448 
L 385.20884 99.071053 
L 385.376115 98.486647 
L 385.842987 98.371289 
L 385.975308 97.989554 
L 386.412221 97.877568 
L 386.574502 97.298315 
L 387.026394 97.184258 
L 387.173696 96.691614 
L 388.836459 96.583487 
L 388.971277 96.221353 
L 389.403196 96.102703 
L 389.570471 95.735339 
L 390.01737 95.620284 
L 390.169665 95.323913 
L 390.609074 95.218858 
L 390.768859 94.640794 
L 391.205771 94.520432 
L 391.368052 93.836302 
L 392.993366 93.715499 
L 393.035808 93.486575 
L 393.128184 93.615336 
L 393.165634 93.700255 
L 394.254169 93.599614 
L 394.364021 93.393001 
L 394.84837 93.280615 
L 394.963215 92.970663 
L 395.400127 92.859446 
L 395.562409 92.094069 
L 397.180232 91.984992 
L 397.35999 91.113352 
L 397.779426 90.993254 
L 397.959184 90.084735 
L 398.381116 89.9587 
L 398.558378 89.13302 
L 398.977813 89.015619 
L 399.157572 88.090434 
L 399.582 87.971008 
L 399.756765 87.09635 
L 401.384575 86.975414 
L 401.554347 86.448917 
L 401.991259 86.327776 
L 402.15354 85.928633 
L 402.677835 85.813038 
L 402.752734 85.674584 
L 403.19464 85.560441 
L 403.351928 85.362693 
L 403.81131 85.251446 
L 403.951122 84.956436 
L 405.606395 84.839861 
L 405.748703 84.564937 
L 406.198098 84.448751 
L 406.347897 84.131584 
L 406.797292 84.016642 
L 406.947091 83.727577 
L 407.396486 83.613387 
L 407.546284 83.250387 
L 408.018149 83.137754 
L 408.145478 82.934881 
L 409.793261 82.821635 
L 409.943059 82.693769 
L 410.399945 82.580732 
L 410.542253 82.314335 
L 411.605822 82.183984 
L 411.740641 82.123701 
L 414.107456 82.006481 
L 414.137416 81.972405 
L 415.325817 81.854841 
L 415.335803 81.831249 
L 415.780205 81.718277 
L 415.807669 81.679495 
L 415.887561 81.741053 
L 415.934997 81.73834 
L 416.376903 81.62855 
L 416.456795 81.449292 
L 416.534191 81.499823 
L 418.231907 81.396609 
L 418.321786 81.241153 
L 418.331772 81.246498 
L 418.918483 81.138087 
L 418.930966 81.120859 
L 419.405328 81.006897 
L 419.53016 80.77019 
L 420.089407 80.659299 
L 420.129354 80.609544 
L 422.523632 80.48364 
L 422.526129 80.47908 
L 422.993001 80.362679 
L 424.32371 79.730113 
L 424.865481 79.619764 
L 424.922904 79.565927 
L 426.720485 79.453161 
L 427.182364 79.339971 
L 427.319679 79.198145 
L 427.776564 79.089144 
L 427.918873 78.888592 
L 428.415704 78.778263 
L 428.518066 78.747146 
L 433.291644 78.640068 
L 433.311617 78.630734 
L 436.859343 78.743692 
L 437.483503 78.736573 
L 437.505973 78.702303 
L 441.510585 78.582131 
L 441.70033 78.578558 
L 445.742391 78.469128 
L 445.894686 78.380619 
L 450.071566 78.26669 
L 450.089042 78.250849 
L 451.849174 78.356371 
L 451.886624 78.40556 
L 452.341012 78.514559 
L 452.485817 78.788043 
L 452.932716 78.897029 
L 453.085011 79.283761 
L 453.52442 79.393681 
L 453.684205 79.829502 
L 454.121117 79.946979 
L 454.283399 80.37818 
L 455.923692 80.492875 
L 456.08098 80.92476 
L 456.527879 81.043301 
L 456.680174 81.40989 
L 457.124576 81.523389 
L 457.279368 81.873366 
L 457.736253 81.987623 
L 457.878561 82.272868 
L 458.315474 82.391704 
L 458.477755 83.102645 
L 460.108062 83.217095 
L 460.275337 83.96402 
L 460.704759 84.082151 
L 460.87453 85.030438 
L 461.298959 85.143814 
L 461.473724 85.985247 
L 461.903146 86.106871 
L 462.072918 86.833598 
L 462.504837 86.946315 
L 462.672112 87.493543 
L 464.299921 87.611625 
L 464.469693 88.188743 
L 464.914095 88.300993 
L 465.068887 88.904768 
L 465.495812 89.01946 
L 465.668081 89.687957 
L 466.095006 89.802663 
L 466.267274 90.400937 
L 466.696697 90.514391 
L 466.866468 91.093639 
L 468.494278 91.205205 
L 468.664049 91.702805 
L 469.110948 91.819312 
L 469.263243 92.322473 
L 469.687672 92.438729 
L 469.862437 93.192112 
L 470.291859 93.31441 
L 470.461631 94.142102 
L 470.881066 94.261925 
L 471.060825 95.137057 
L 472.678648 95.251846 
L 472.858406 96.109151 
L 473.280338 96.224006 
L 473.4576 97.106706 
L 473.889518 97.223124 
L 474.056793 98.015618 
L 474.476229 98.14018 
L 474.655987 99.158449 
L 475.075423 99.278304 
L 475.255181 100.303722 
L 476.873004 100.41854 
L 477.052762 101.470195 
L 477.474695 101.58594 
L 477.651956 102.593323 
L 478.073888 102.718129 
L 478.25115 103.67259 
L 478.670585 103.78269 
L 478.850344 104.722693 
L 479.272276 104.838232 
L 479.449537 105.747251 
L 481.07485 105.861746 
L 481.247119 106.576637 
L 481.679038 106.69429 
L 481.846312 107.354268 
L 482.273238 107.473571 
L 482.445506 108.164576 
L 482.872432 108.279391 
L 483.0447 108.96704 
L 483.474122 109.083987 
L 483.643894 109.758766 
L 485.2742 109.876461 
L 485.441475 110.580844 
L 485.880884 110.699101 
L 486.040669 111.298222 
L 486.472588 111.414482 
L 486.639863 112.03565 
L 487.064292 112.153605 
L 487.239056 112.773918 
L 487.673472 112.894423 
L 487.83825 113.384689 
L 489.47355 113.497804 
L 489.635832 113.965733 
L 490.07524 114.07867 
L 490.235025 114.541701 
L 490.679427 114.659694 
L 490.834219 115.112593 
L 491.281118 115.227977 
L 491.433413 115.658486 
L 491.877815 115.774214 
L 492.032607 116.227994 
L 493.6729 116.338488 
L 493.830188 116.792426 
L 494.25961 116.901551 
L 494.429382 117.473758 
L 494.87628 117.588359 
L 495.028576 117.959139 
L 495.462991 118.072944 
L 495.627769 118.42858 
L 496.067178 118.543333 
L 496.226963 118.975329 
L 497.867256 119.092128 
L 498.024544 119.480425 
L 498.461457 119.594599 
L 498.623738 119.951208 
L 499.09061 120.064296 
L 499.222932 120.385368 
L 499.70728 120.498276 
L 499.822126 120.6911 
L 500.291494 120.803689 
L 500.421319 121.045987 
L 502.061612 121.157179 
L 502.218901 121.527798 
L 502.675786 121.635824 
L 502.818095 122.064342 
L 503.26 122.136737 
L 503.26 122.136737 
" clip-path="url(#pfec7994fc3)" style="fill: none; stroke-dasharray: 3.7,1.6; stroke-dashoffset: 0; stroke: #ff8c00"/>
   </g>
   <g id="line2d_26">
    <path d="M 32.25125 115.902061 
L 32.450981 115.761137 
L 34.093771 115.648964 
L 34.248563 115.427657 
L 37.75135 115.293348 
L 37.843725 115.218515 
L 38.268154 115.104039 
L 38.442919 114.224182 
L 38.867348 114.106753 
L 39.042113 113.440335 
L 40.684902 113.322432 
L 40.839694 113.109325 
L 41.351505 112.993314 
L 41.438888 112.967573 
L 41.948203 112.853083 
L 42.038082 112.747365 
L 42.474994 112.630519 
L 42.637275 112.350511 
L 43.149087 112.238448 
L 43.236469 112.19509 
L 44.901729 112.090409 
L 45.034051 111.731965 
L 45.485943 111.616764 
L 45.633244 111.19882 
L 46.065163 111.083032 
L 46.232438 110.600768 
L 46.686827 110.483478 
L 46.809162 110.005339 
L 46.831632 109.933668 
L 47.273537 109.816831 
L 47.430826 109.494834 
L 49.091092 109.379641 
L 49.228407 109.280373 
L 49.722742 109.170669 
L 49.827601 109.051179 
L 50.381855 108.938297 
L 50.426795 108.870476 
L 50.946096 108.756064 
L 51.025988 108.733481 
L 51.49286 108.623507 
L 51.625182 108.487173 
L 53.360347 108.374637 
L 53.422763 108.289355 
L 54.014467 108.175231 
L 54.021957 108.170381 
L 55.080533 108.059636 
L 55.220345 107.856576 
L 55.797069 107.742634 
L 55.819538 107.71537 
L 57.597147 107.604649 
L 57.61712 107.577563 
L 58.158891 107.462279 
L 58.216314 107.443153 
L 58.720635 107.329138 
L 58.815507 107.289741 
L 71.316187 107.393998 
L 71.398577 107.421735 
L 71.885422 107.537071 
L 71.99777 107.6296 
L 72.584481 107.740914 
L 72.596964 107.75128 
L 74.379566 107.863962 
L 74.394546 107.881275 
L 74.976263 107.994746 
L 74.993739 108.015385 
L 76.012369 108.133234 
L 76.164664 108.319399 
L 76.192127 108.366208 
L 76.723911 108.481486 
L 76.791321 108.511335 
L 78.546459 108.622604 
L 78.588902 108.63805 
L 79.14066 108.748719 
L 79.188096 108.764389 
L 79.737357 108.875953 
L 79.787289 108.89035 
L 80.311584 108.996956 
L 80.386483 109.199848 
L 80.850858 109.315438 
L 80.985677 109.437947 
L 82.673406 109.547445 
L 82.783258 109.755282 
L 83.305056 109.867264 
L 83.382452 110.032513 
L 83.861807 110.148965 
L 83.981646 110.302735 
L 84.461001 110.414938 
L 84.58084 110.594284 
L 85.067685 110.702375 
L 85.180033 111.150958 
L 86.81034 111.268264 
L 86.977615 111.9312 
L 87.417024 112.049404 
L 87.576809 112.64562 
L 88.011224 112.75978 
L 88.176002 113.372582 
L 88.612914 113.488428 
L 88.775196 114.083602 
L 89.204618 114.199449 
L 89.37439 114.820415 
L 91.102065 114.940605 
L 91.171971 115.053981 
L 91.61887 115.167292 
L 91.771165 115.505757 
L 92.267996 115.618507 
L 92.347889 115.879267 
L 92.370359 115.93457 
L 92.817257 116.051322 
L 92.969553 116.369765 
L 93.456397 116.482532 
L 93.568746 116.713037 
L 95.241496 116.824936 
L 95.366328 117.057107 
L 95.830703 117.170445 
L 95.965521 117.41275 
L 96.41242 117.526544 
L 96.564715 117.831482 
L 97.024097 117.946123 
L 97.163909 118.100409 
L 97.708177 118.212589 
L 97.763103 118.270724 
L 99.528228 118.381646 
L 99.560684 118.420374 
L 101.173514 118.54191 
L 101.358265 118.546691 
L 104.943441 118.435832 
L 104.953428 118.432661 
L 105.512676 118.541808 
L 105.552622 118.596834 
L 109.055409 118.736715 
L 109.147784 118.906964 
L 109.647113 119.022354 
L 109.746978 119.12161 
L 111.981472 119.240087 
L 112.143753 119.297349 
L 113.192342 119.406986 
L 113.342141 119.49559 
L 116.877384 119.603408 
L 116.937304 119.893261 
L 117.356739 120.010132 
L 117.536497 120.849648 
L 117.963423 120.968235 
L 118.135691 121.533617 
L 118.59757 121.648464 
L 118.734885 121.793617 
L 120.956895 121.907306 
L 121.13166 122.113321 
L 121.581055 122.2293 
L 121.720867 122.27581 
L 121.730854 122.282616 
L 122.756973 122.397692 
L 122.929241 122.728571 
L 124.584514 122.844192 
L 124.709346 123.16134 
L 124.726823 123.217397 
L 125.173721 123.333813 
L 125.326016 123.635905 
L 125.762929 123.744156 
L 125.92521 124.267922 
L 126.384592 124.385554 
L 126.524404 124.668166 
L 128.733931 124.799006 
L 128.921179 124.994937 
L 129.442977 125.104916 
L 129.520373 125.204164 
L 130.092104 125.316906 
L 130.119567 125.347218 
L 130.626385 125.461678 
L 130.71876 125.513398 
L 131.220585 125.622463 
L 131.317954 125.731014 
L 134.239024 125.845757 
L 134.313923 125.887998 
L 137.272442 126.009059 
L 137.309892 126.055127 
L 138.508279 125.955396 
L 138.995124 125.839894 
L 139.107473 125.766809 
L 139.644251 125.655419 
L 139.706667 125.621109 
L 141.446826 125.510539 
L 141.504248 125.476079 
L 142.053509 125.363784 
L 142.103442 125.331721 
L 167.217151 125.36988 
L 167.269581 125.387789 
L 168.452988 125.494426 
L 168.467968 125.545271 
L 168.90488 125.659172 
L 169.067162 125.940996 
L 170.84477 126.052445 
L 170.864743 126.069116 
L 171.443964 126.181237 
L 171.463937 126.196565 
L 172.043158 126.309357 
L 172.063131 126.323343 
L 172.639855 126.435036 
L 172.662325 126.44945 
L 173.239049 126.561982 
L 173.261518 126.574885 
L 183.407866 126.690654 
L 183.447813 126.747514 
L 183.987087 126.862369 
L 184.047006 126.88139 
L 184.586281 126.996245 
L 184.6462 127.015267 
L 185.185474 127.130121 
L 185.245394 127.149143 
L 185.784668 127.263997 
L 185.844588 127.277734 
L 192.36831 127.39449 
L 192.435719 127.431746 
L 200.152836 127.556327 
L 200.225238 127.60217 
L 200.819439 127.714231 
L 201.423626 127.825441 
L 202.01533 127.93525 
L 202.02282 127.943893 
L 202.607033 128.05844 
L 202.622013 128.073839 
L 204.419595 128.18694 
L 211.00823 128.31936 
L 211.010726 128.322324 
L 212.790831 128.434799 
L 212.808308 128.454956 
L 213.390025 128.567851 
L 213.407501 128.586541 
L 213.989219 128.699855 
L 214.006695 128.717076 
L 215.17762 128.83271 
L 215.205083 128.865922 
L 221.052215 128.98441 
L 221.19702 129.071734 
L 294.72309 129.241472 
L 294.897855 129.351795 
L 296.613047 129.46188 
L 296.695436 129.49105 
L 297.217234 129.601435 
L 297.29463 129.630137 
L 297.821421 129.740989 
L 297.893824 129.769056 
L 324.215907 129.684971 
L 324.25835 129.580519 
L 325.921112 129.465875 
L 326.055931 129.331119 
L 326.592709 129.221196 
L 326.655125 129.150944 
L 327.219366 129.040102 
L 327.254319 128.991071 
L 327.79609 128.876325 
L 327.853512 128.8515 
L 328.335364 128.736259 
L 328.452706 128.652763 
L 330.165402 128.541662 
L 330.250287 128.459668 
L 330.799548 128.347691 
L 330.849481 128.286876 
L 365.003526 128.176692 
L 368.416434 128.066142 
L 369.797077 127.723198 
L 372.014094 127.609876 
L 372.193852 127.56611 
L 372.70067 127.459817 
L 372.793045 127.272148 
L 373.237447 127.161345 
L 373.392239 126.646895 
L 373.831648 126.529422 
L 373.991433 126.022952 
L 374.433338 125.908477 
L 374.590627 125.412307 
L 376.225926 125.301484 
L 376.388208 124.790043 
L 376.820127 124.674692 
L 376.987402 124.145547 
L 377.421817 124.029838 
L 377.586596 123.545202 
L 378.030998 123.42936 
L 378.185789 123.129857 
L 378.635185 123.017406 
L 378.784983 122.736467 
L 380.437759 122.626045 
L 380.582565 122.108813 
L 381.01698 121.990909 
L 381.181758 121.41438 
L 381.613677 121.300101 
L 381.780952 120.710382 
L 382.215368 120.593652 
L 382.380146 120.028173 
L 382.814561 119.912031 
L 382.97934 119.415617 
L 384.617136 119.296758 
L 384.776921 118.9216 
L 385.22382 118.811904 
L 385.376115 118.43741 
L 385.842987 118.321258 
L 385.975308 118.044464 
L 386.432194 117.927588 
L 386.574502 117.608675 
L 387.036381 117.493031 
L 387.173696 117.180292 
L 388.823976 117.068684 
L 388.971277 116.757949 
L 389.415679 116.640875 
L 389.570471 116.316804 
L 390.02486 116.203841 
L 390.169665 116.001609 
L 390.736402 115.890534 
L 390.768859 115.848602 
L 391.348079 115.736668 
L 391.368052 115.706334 
L 393.068265 115.593006 
L 393.165634 115.550643 
L 393.659969 115.441874 
L 393.764828 115.365421 
L 394.291619 115.255283 
L 394.364021 115.190938 
L 397.784419 115.066423 
L 397.959184 114.963198 
L 398.543398 114.849242 
L 398.558378 114.834152 
L 399.142592 114.720867 
L 399.157572 114.707791 
L 403.277029 114.792368 
L 403.351928 114.942995 
L 403.843766 115.057832 
L 403.951122 115.119143 
L 405.651334 115.229448 
L 405.748703 115.317775 
L 406.290474 115.430508 
L 406.347897 115.496104 
L 406.914634 115.607785 
L 406.947091 115.654132 
L 407.471385 115.768776 
L 407.546284 115.794311 
L 408.025639 115.907724 
L 408.145478 115.997306 
L 409.86067 116.106896 
L 409.943059 116.188555 
L 447.614871 116.464033 
L 447.692267 116.501737 
L 448.70091 116.612584 
L 448.890655 116.732661 
L 449.991673 116.850535 
L 450.089042 116.877467 
L 451.751805 116.987032 
L 451.886624 117.280134 
L 452.323536 117.393763 
L 452.485817 117.926825 
L 452.92273 118.044066 
L 453.085011 118.539022 
L 453.519427 118.651501 
L 453.684205 119.172067 
L 454.118621 119.292473 
L 454.283399 119.813039 
L 455.916202 119.925224 
L 456.08098 120.44579 
L 456.520389 120.563934 
L 456.680174 121.01123 
L 457.132066 121.128084 
L 457.279368 121.41115 
L 457.73126 121.524732 
L 457.878561 121.786191 
L 458.315474 121.901518 
L 458.477755 122.485661 
L 460.113055 122.599087 
L 460.275337 123.18597 
L 460.712249 123.299279 
L 460.87453 123.882414 
L 461.313939 124.001725 
L 461.473724 124.563784 
L 461.913133 124.682423 
L 462.072918 125.159835 
L 462.514823 125.273559 
L 462.672112 125.624019 
L 464.309908 125.736341 
L 464.469693 126.080121 
L 464.944055 126.190177 
L 465.068887 126.487056 
L 465.523275 126.597428 
L 465.668081 126.912212 
L 466.114979 127.02717 
L 466.267274 127.353347 
L 466.714173 127.470151 
L 466.866468 127.799851 
L 468.514251 127.912316 
L 468.664049 128.215285 
L 469.130921 128.328811 
L 469.263243 128.464192 
L 469.810008 128.57698 
L 469.862437 128.630622 
L 470.426678 128.743211 
L 470.461631 128.786313 
L 471.038355 128.898461 
L 471.060825 128.931266 
L 472.77352 129.045873 
L 472.858406 129.073534 
L 473.345251 129.184246 
L 473.4576 129.261441 
L 475.242698 129.374813 
L 475.255181 129.386443 
L 477.037782 129.499393 
L 477.052762 129.511462 
L 477.636976 129.62374 
L 477.651956 129.633796 
L 478.238667 129.746849 
L 478.25115 129.753446 
L 503.26 129.793018 
L 503.26 129.793018 
" clip-path="url(#pfec7994fc3)" style="fill: none; stroke: #ff8c00; stroke-linecap: square"/>
   </g>
   <g id="patch_3">
    <path d="M 32.25125 129.8 
L 32.25125 3.96 
" style="fill: none; stroke: #000000; stroke-width: 0.8; stroke-linejoin: miter; stroke-linecap: square"/>
   </g>
   <g id="patch_4">
    <path d="M 503.26 129.8 
L 503.26 3.96 
" style="fill: none; stroke: #000000; stroke-width: 0.8; stroke-linejoin: miter; stroke-linecap: square"/>
   </g>
   <g id="patch_5">
    <path d="M 32.25125 129.8 
L 503.26 129.8 
" style="fill: none; stroke: #000000; stroke-width: 0.8; stroke-linejoin: miter; stroke-linecap: square"/>
   </g>
   <g id="patch_6">
    <path d="M 32.25125 3.96 
L 503.26 3.96 
" style="fill: none; stroke: #000000; stroke-width: 0.8; stroke-linejoin: miter; stroke-linecap: square"/>
   </g>
  </g>
  <g id="axes_2">
   <g id="matplotlib.axis_3">
    <g id="ytick_7">
     <g id="line2d_27">
      <defs>
       <path id="m96fc1f9d6f" d="M 0 0 
L 3.5 0 
" style="stroke: #000000; stroke-width: 0.8"/>
      </defs>
      <g>
       <use xlink:href="#m96fc1f9d6f" x="503.26" y="129.8" style="stroke: #000000; stroke-width: 0.8"/>
      </g>
     </g>
     <g id="text_15">
      <text style="font: 10px 'Times New Roman'; text-anchor: start" x="510.26" y="133.271875" transform="rotate(-0 510.26 133.271875)">0</text>
     </g>
    </g>
    <g id="ytick_8">
     <g id="line2d_28">
      <g>
       <use xlink:href="#m96fc1f9d6f" x="503.26" y="104.632" style="stroke: #000000; stroke-width: 0.8"/>
      </g>
     </g>
     <g id="text_16">
      <text style="font: 10px 'Times New Roman'; text-anchor: start" x="510.26" y="108.103875" transform="rotate(-0 510.26 108.103875)">20</text>
     </g>
    </g>
    <g id="ytick_9">
     <g id="line2d_29">
      <g>
       <use xlink:href="#m96fc1f9d6f" x="503.26" y="79.464" style="stroke: #000000; stroke-width: 0.8"/>
      </g>
     </g>
     <g id="text_17">
      <text style="font: 10px 'Times New Roman'; text-anchor: start" x="510.26" y="82.935875" transform="rotate(-0 510.26 82.935875)">40</text>
     </g>
    </g>
    <g id="ytick_10">
     <g id="line2d_30">
      <g>
       <use xlink:href="#m96fc1f9d6f" x="503.26" y="54.296" style="stroke: #000000; stroke-width: 0.8"/>
      </g>
     </g>
     <g id="text_18">
      <text style="font: 10px 'Times New Roman'; text-anchor: start" x="510.26" y="57.767875" transform="rotate(-0 510.26 57.767875)">60</text>
     </g>
    </g>
    <g id="ytick_11">
     <g id="line2d_31">
      <g>
       <use xlink:href="#m96fc1f9d6f" x="503.26" y="29.128" style="stroke: #000000; stroke-width: 0.8"/>
      </g>
     </g>
     <g id="text_19">
      <text style="font: 10px 'Times New Roman'; text-anchor: start" x="510.26" y="32.599875" transform="rotate(-0 510.26 32.599875)">80</text>
     </g>
    </g>
    <g id="ytick_12">
     <g id="line2d_32">
      <g>
       <use xlink:href="#m96fc1f9d6f" x="503.26" y="3.96" style="stroke: #000000; stroke-width: 0.8"/>
      </g>
     </g>
     <g id="text_20">
      <text style="font: 10px 'Times New Roman'; text-anchor: start" x="510.26" y="7.431875" transform="rotate(-0 510.26 7.431875)">100</text>
     </g>
    </g>
    <g id="text_21">
     <text style="fill: #4169e1; font: 700 12px 'Times New Roman'; text-anchor: middle" x="537.22875" y="66.88" transform="rotate(-90 537.22875 66.88)">Resource Utilization (%)</text>
    </g>
   </g>
   <g id="line2d_33">
    <path d="M 32.25125 121.928224 
L 32.450981 121.532635 
L 32.91286 121.41712 
L 33.050175 121.147371 
L 33.512054 121.034437 
L 33.649369 120.801472 
L 34.128724 120.687893 
L 34.248563 120.503328 
L 34.732911 120.389104 
L 34.847756 120.238741 
L 36.530492 120.125808 
L 36.645338 119.962539 
L 37.132183 119.852187 
L 37.244531 119.674075 
L 37.718893 119.55856 
L 37.843725 119.352699 
L 38.303107 119.238475 
L 38.442919 118.998411 
L 38.904798 118.886123 
L 39.042113 118.720917 
L 40.719855 118.608629 
L 40.839694 118.431808 
L 41.326539 118.318229 
L 41.438888 118.187227 
L 41.938216 118.073648 
L 42.038082 117.950389 
L 42.519933 117.834875 
L 42.637275 117.661925 
L 43.106644 117.54512 
L 43.236469 117.411536 
L 44.924198 117.299893 
L 45.034051 117.126299 
L 45.518399 117.014011 
L 45.633244 116.834608 
L 46.105109 116.719093 
L 46.232438 116.497744 
L 46.69182 116.384165 
L 46.831632 116.131195 
L 47.29351 116.018261 
L 47.430826 115.769808 
L 49.101078 115.65752 
L 49.228407 115.504576 
L 49.737722 115.390997 
L 49.827601 115.298069 
L 50.336915 115.184491 
L 50.426795 115.091563 
L 50.936109 114.977984 
L 51.025988 114.885056 
L 51.532806 114.771477 
L 51.625182 114.668224 
L 53.332884 114.554645 
L 53.422763 114.461717 
L 53.932078 114.348139 
L 54.021957 114.255211 
L 54.536265 114.141632 
L 54.621151 114.075808 
L 55.165419 113.96352 
L 55.220345 113.920928 
L 55.764612 113.80864 
L 55.819538 113.766048 
L 57.562194 113.65376 
L 57.61712 113.611168 
L 58.161387 113.49888 
L 58.216314 113.456288 
L 58.760581 113.344 
L 58.815507 113.301408 
L 59.384741 113.188475 
L 59.414701 113.172987 
L 61.639208 113.055536 
L 61.811476 112.952283 
L 62.355744 112.839995 
L 62.41067 112.797403 
L 62.954938 112.685115 
L 63.009864 112.642523 
L 63.554131 112.530235 
L 63.609058 112.487643 
L 64.153325 112.375355 
L 64.208251 112.332763 
L 65.950907 112.220475 
L 66.005833 112.177883 
L 66.5501 112.065595 
L 66.605026 112.023003 
L 67.149294 111.910715 
L 67.20422 111.879739 
L 68.22285 111.76616 
L 68.402608 111.673232 
L 70.617128 111.560944 
L 70.799383 111.472533 
L 71.965314 111.3596 
L 71.99777 111.346048 
L 74.23476 111.231824 
L 74.394546 111.159547 
L 74.973766 111.047904 
L 74.993739 111.032416 
L 76.017362 110.917547 
L 76.192127 110.822683 
L 76.753871 110.71104 
L 76.791321 110.690389 
L 79.005841 110.578101 
L 79.188096 110.483883 
L 80.269141 110.369659 
L 80.386483 110.390955 
L 82.675903 110.505179 
L 83.382452 110.632309 
L 85.085161 110.524539 
L 85.180033 110.415477 
L 86.857776 110.302544 
L 86.977615 110.107008 
L 87.44948 109.993429 
L 87.576809 109.772725 
L 88.046177 109.659147 
L 88.176002 109.479744 
L 88.647867 109.367456 
L 88.775196 109.201605 
L 89.262041 109.088672 
L 89.37439 108.943472 
L 91.029663 108.830539 
L 91.171971 108.607253 
L 91.753688 108.491739 
L 92.370359 108.438176 
L 97.653251 108.540139 
L 97.763103 108.580795 
L 99.96514 108.692437 
L 100.159878 108.733739 
L 100.741595 108.844091 
L 100.759072 108.863451 
L 101.27338 108.977029 
L 101.358265 109.051888 
L 101.90503 109.164821 
L 101.957459 109.196443 
L 104.16449 109.310021 
L 104.793643 109.358421 
L 105.372864 109.322283 
L 106.054447 109.612037 
L 106.151816 109.771435 
L 107.874498 109.883723 
L 107.949397 109.934704 
L 108.95804 110.048928 
L 109.147784 110.322549 
L 109.622146 110.434837 
L 109.746978 110.601333 
L 110.256293 110.712976 
L 110.346172 110.812357 
L 112.058868 110.923355 
L 112.143753 110.989179 
L 112.737954 111.102757 
L 112.742947 111.105339 
L 113.791536 111.219563 
L 114.540528 111.468016 
L 116.238244 111.579013 
L 116.33811 111.681621 
L 116.839935 111.793909 
L 116.937304 111.913296 
L 117.424148 112.02752 
L 117.536497 112.144325 
L 118.093248 112.259195 
L 118.135691 112.290816 
L 120.352708 112.408912 
L 120.532466 112.427627 
L 121.688411 112.534107 
L 121.730854 112.575408 
L 122.799416 112.690277 
L 122.929241 112.778688 
L 124.679386 112.889685 
L 124.726823 112.929051 
L 125.248621 113.040693 
L 125.326016 113.125877 
L 125.835331 113.239456 
L 125.92521 113.332384 
L 126.434525 113.445963 
L 126.524404 113.525984 
L 133.542461 113.449189 
L 133.714729 113.359488 
L 134.733359 113.245909 
L 134.913117 113.152981 
L 137.137624 113.035531 
L 137.309892 112.989712 
L 138.388441 112.878069 
L 138.508279 112.816117 
L 139.526909 112.702539 
L 139.706667 112.661883 
L 143.236917 112.551531 
L 143.30183 112.497968 
L 143.846097 112.386325 
L 143.901023 112.335344 
L 145.626202 112.222411 
L 145.698605 112.183045 
L 146.737207 112.069467 
L 146.896992 112.002352 
L 151.638113 112.105605 
L 152.289736 112.170784 
L 154.589142 112.282427 
L 155.285705 112.363739 
L 158.116896 112.479253 
L 158.833432 112.55024 
L 163.47968 112.661237 
L 163.674418 112.802565 
L 164.181236 112.914208 
L 164.273612 113.060699 
L 164.747973 113.174277 
L 164.872806 113.378848 
L 166.555541 113.493072 
L 166.670387 113.665376 
L 167.169715 113.7796 
L 167.269581 113.901568 
L 167.771405 114.014501 
L 167.868774 114.115173 
L 168.378089 114.228752 
L 168.467968 114.354592 
L 168.94233 114.468171 
L 169.067162 114.587557 
L 171.281682 114.699845 
L 171.463937 114.768896 
L 172.594915 114.88312 
L 173.261518 114.952171 
L 175.620844 115.063813 
L 175.658293 115.083173 
L 176.676923 115.196752 
L 176.856681 115.28968 
L 179.081188 115.407131 
L 179.253456 115.496187 
L 180.272086 115.609765 
L 180.451844 115.702693 
L 181.470473 115.816272 
L 181.650231 115.9092 
L 183.864752 116.021488 
L 184.047006 116.106672 
L 185.192964 116.21896 
L 185.245394 116.269941 
L 185.789662 116.382229 
L 185.844588 116.428693 
L 187.564773 116.540981 
L 187.642169 116.587445 
L 188.783134 116.701024 
L 188.840557 116.753296 
L 189.427267 116.866229 
L 189.43975 116.875909 
L 189.984018 116.988197 
L 190.038944 117.030789 
L 191.781599 117.143077 
L 191.836525 117.185669 
L 192.418243 117.297957 
L 192.435719 117.311509 
L 193.569194 117.427669 
L 194.2333 117.496075 
L 196.600116 117.607717 
L 197.229269 117.683221 
L 197.825967 117.796155 
L 197.828463 117.797445 
L 198.372731 117.910379 
L 198.427657 117.96136 
L 200.165319 118.074293 
L 200.225238 118.120757 
L 200.794472 118.234336 
L 200.824432 118.249824 
L 201.843061 118.363403 
L 202.02282 118.456331 
L 204.247326 118.573781 
L 204.419595 118.662837 
L 206.044908 118.778997 
L 206.81637 118.973888 
L 208.611454 119.085531 
L 208.613951 119.087467 
L 209.153225 119.2004 
L 209.213145 119.262352 
L 209.729949 119.375931 
L 209.812339 119.439819 
L 210.344123 119.552107 
L 210.411532 119.609541 
L 210.92584 119.722475 
L 211.010726 119.831536 
L 212.718428 119.945115 
L 212.808308 120.038043 
L 213.317622 120.151621 
L 213.407501 120.244549 
L 213.916816 120.358128 
L 214.006695 120.451056 
L 214.51601 120.564635 
L 214.605889 120.653691 
L 215.152653 120.767269 
L 215.205083 120.818251 
L 216.927765 120.930539 
L 217.002664 120.993781 
L 217.546932 121.106069 
L 217.601858 121.148661 
L 218.146125 121.260949 
L 218.201051 121.303541 
L 218.792755 121.416475 
L 218.800245 121.420347 
L 222.260589 121.541024 
L 222.395408 121.652021 
L 222.932186 121.764309 
L 222.994602 121.804965 
L 223.566332 121.919189 
L 223.593795 121.940485 
L 225.803323 122.054064 
L 225.990571 122.106336 
L 237.817158 122.217333 
L 238.57364 122.309616 
L 240.211436 122.423195 
L 240.371221 122.464496 
L 243.199915 122.576139 
L 243.966384 122.671003 
L 248.098324 122.788453 
L 248.759934 122.856213 
L 285.188419 122.981408 
L 285.909948 123.064656 
L 298.919943 123.195659 
L 299.092211 123.309237 
L 300.889792 123.421525 
L 301.908422 123.535104 
L 302.08818 123.639648 
L 303.171722 123.753872 
L 303.286568 123.783557 
L 305.613437 123.8952 
L 306.282536 123.964896 
L 309.12621 124.080411 
L 309.877699 124.171403 
L 311.515495 124.284981 
L 311.67528 124.326928 
L 322.94262 124.221739 
L 323.059962 124.11784 
L 323.576767 124.004907 
L 323.659156 123.920368 
L 324.195934 123.80808 
L 324.25835 123.753227 
L 326.050938 123.640939 
L 326.055931 123.638357 
L 327.07456 123.524779 
L 327.254319 123.431851 
L 328.385297 123.317627 
L 328.452706 123.300203 
L 330.767092 123.18856 
L 330.849481 123.155648 
L 334.986415 123.038197 
L 335.643031 122.971728 
L 336.669151 122.85944 
L 336.841419 122.802005 
L 339.670113 122.690363 
L 340.436582 122.595499 
L 343.277759 122.479984 
L 344.031744 122.388347 
L 346.902881 122.272832 
L 347.626907 122.188939 
L 349.264703 122.07536 
L 349.424488 122.041803 
L 352.303115 121.930805 
L 353.019651 121.848848 
L 355.863325 121.733333 
L 356.509955 121.680416 
L 372.643247 121.569419 
L 372.793045 121.502304 
L 378.145843 121.384208 
L 378.185789 121.340325 
L 378.725064 121.227392 
L 378.784983 121.170603 
L 380.507665 121.058315 
L 380.582565 120.966032 
L 381.086886 120.853744 
L 381.181758 120.753072 
L 381.683583 120.638848 
L 381.780952 120.547211 
L 382.360173 120.433632 
L 382.380146 120.423307 
L 384.579686 120.307147 
L 384.776921 120.074181 
L 385.281242 119.959957 
L 385.376115 119.865739 
L 385.920382 119.753451 
L 385.975308 119.691499 
L 386.504596 119.578565 
L 386.574502 119.537264 
L 387.14124 119.424976 
L 387.173696 119.399808 
L 388.916351 119.28752 
L 388.971277 119.244928 
L 389.515545 119.13264 
L 389.570471 119.097147 
L 390.147195 118.984859 
L 390.169665 118.967435 
L 390.713933 118.855147 
L 390.768859 118.812555 
L 391.340589 118.699621 
L 391.368052 118.685424 
L 393.582573 118.573136 
L 393.764828 118.478917 
L 394.783457 118.365339 
L 394.963215 118.272411 
L 397.814379 118.152379 
L 398.558378 117.991691 
L 399.577007 117.878112 
L 399.756765 117.785184 
L 401.55185 117.894245 
L 401.554347 117.895536 
L 402.131071 118.007179 
L 402.15354 118.023957 
L 402.680332 118.134955 
L 402.752734 118.196261 
L 403.279525 118.309195 
L 403.351928 118.382763 
L 403.896196 118.495051 
L 403.951122 118.537643 
L 405.693777 118.649931 
L 405.748703 118.692523 
L 406.320434 118.806101 
L 406.347897 118.820299 
L 407.531305 118.935168 
L 408.145478 118.990667 
L 410.444884 119.102309 
L 410.542253 119.152645 
L 412.185043 119.268805 
L 412.339835 119.308816 
L 414.73661 119.419813 
L 424.188891 119.339147 
L 424.922904 119.252672 
L 445.292996 119.133931 
L 445.83976 119.106827 
L 448.283971 118.995829 
L 448.890655 118.942267 
L 456.677677 119.039712 
L 456.680174 119.041648 
L 457.206965 119.153291 
L 457.279368 119.221051 
L 457.811152 119.333339 
L 457.878561 119.386256 
L 458.382883 119.498544 
L 458.477755 119.603733 
L 460.185458 119.716667 
L 460.275337 119.8296 
L 460.789645 119.943824 
L 460.87453 120.009648 
L 461.880677 120.124517 
L 462.072918 120.272299 
L 462.569749 120.387168 
L 462.672112 120.501392 
L 464.379814 120.614971 
L 464.469693 120.69112 
L 465.001477 120.804053 
L 465.068887 120.874395 
L 465.630631 120.987328 
L 465.668081 121.006688 
L 466.217342 121.118331 
L 466.267274 121.157051 
L 466.811542 121.269339 
L 466.866468 121.311931 
L 468.621607 121.424864 
L 468.664049 121.446805 
L 469.223297 121.558448 
L 469.263243 121.589424 
L 469.807511 121.701712 
L 469.862437 121.744304 
L 470.459134 121.857237 
L 470.461631 121.858528 
L 472.686138 121.975979 
L 472.858406 122.065035 
L 473.877035 122.178613 
L 474.056793 122.261216 
L 476.900467 122.376731 
L 477.651956 122.552261 
L 478.670585 122.66584 
L 478.850344 122.747152 
L 485.356589 122.868475 
L 486.040669 122.942043 
L 487.678465 123.055621 
L 487.83825 123.076917 
L 495.467984 123.187915 
L 496.226963 123.280843 
L 499.055657 123.392485 
L 499.822126 123.566725 
L 502.141505 123.684821 
L 502.818095 123.793883 
L 503.26 123.815824 
L 503.26 123.815824 
" clip-path="url(#pfec7994fc3)" style="fill: none; stroke-dasharray: 3.7,1.6; stroke-dashoffset: 0; stroke: #4169e1"/>
   </g>
   <g id="line2d_34">
    <path d="M 32.25125 115.017995 
L 32.450981 114.749536 
L 32.955303 114.635441 
L 33.050175 114.507923 
L 34.156187 114.390473 
L 34.248563 114.26631 
L 34.732911 114.152215 
L 34.847756 114.007919 
L 37.671457 113.89718 
L 37.843725 113.69248 
L 38.285631 113.585097 
L 38.442919 113.078381 
L 38.884824 112.964286 
L 39.042113 112.541463 
L 40.682406 112.427369 
L 40.839694 112.004546 
L 41.2816 111.890451 
L 41.438888 111.668973 
L 41.923236 111.554878 
L 42.038082 111.360245 
L 42.479987 111.24615 
L 42.637275 110.917289 
L 43.079181 110.803194 
L 43.236469 110.575004 
L 44.896735 110.464265 
L 45.034051 110.16896 
L 45.508412 110.054865 
L 45.633244 109.776339 
L 46.107606 109.658889 
L 46.232438 109.491102 
L 46.7068 109.377007 
L 46.831632 109.041434 
L 47.273537 108.927339 
L 47.430826 108.504516 
L 49.071119 108.390421 
L 49.228407 108.091761 
L 49.712755 107.977666 
L 49.827601 107.823302 
L 50.311949 107.709207 
L 50.426795 107.554844 
L 50.911143 107.440749 
L 51.025988 107.286385 
L 51.510337 107.17229 
L 51.625182 107.017926 
L 53.307918 106.903831 
L 53.422763 106.749468 
L 53.907112 106.635373 
L 54.021957 106.481009 
L 54.506305 106.366914 
L 54.621151 106.353491 
L 55.122976 106.242752 
L 55.220345 106.111878 
L 55.704693 105.997783 
L 55.819538 105.84342 
L 57.502274 105.729325 
L 57.61712 105.574961 
L 58.101468 105.460866 
L 58.216314 105.306502 
L 58.700662 105.192407 
L 58.815507 105.038044 
L 59.299856 104.923949 
L 59.414701 104.90717 
L 71.258765 105.017909 
L 71.398577 105.225965 
L 71.860455 105.34006 
L 71.99777 105.561538 
L 72.472132 105.678989 
L 72.596964 105.880333 
L 74.2797 105.994428 
L 74.394546 106.202483 
L 74.878894 106.316578 
L 74.993739 106.470942 
L 75.478088 106.585037 
L 75.592933 106.793092 
L 76.077281 106.910543 
L 76.192127 107.064907 
L 76.788824 107.179002 
L 76.791321 107.182357 
L 78.474056 107.296452 
L 78.588902 107.450816 
L 79.07325 107.564911 
L 79.188096 107.719275 
L 79.672444 107.83337 
L 79.787289 107.987733 
L 80.271638 108.101828 
L 80.386483 108.390421 
L 80.828389 108.504516 
L 80.985677 109.028011 
L 82.615983 109.145461 
L 82.783258 109.756205 
L 83.212681 109.877011 
L 83.382452 110.440774 
L 83.824358 110.554869 
L 83.981646 111.034739 
L 84.423551 111.148834 
L 84.58084 111.595147 
L 85.012759 111.709242 
L 85.180033 112.407234 
L 86.807843 112.528041 
L 86.977615 112.836768 
L 87.461963 112.950863 
L 87.576809 112.994487 
L 88.06615 113.105227 
L 88.176002 113.226033 
L 88.73525 113.336772 
L 88.775196 113.390464 
L 89.259544 113.504559 
L 89.37439 113.658923 
L 91.067112 113.551539 
L 91.171971 113.410598 
L 95.313898 113.484425 
L 95.366328 113.551539 
L 96.504796 113.662278 
L 96.564715 113.742816 
L 97.0216 113.856911 
L 97.163909 114.091812 
L 97.623291 114.202551 
L 97.763103 114.464299 
L 99.445839 114.578394 
L 99.560684 114.732757 
L 100.045032 114.846852 
L 100.159878 115.001216 
L 101.185997 115.118667 
L 101.350775 115.15558 
L 103.570289 115.266319 
L 103.75504 115.373702 
L 104.881025 115.262963 
L 104.953428 115.165647 
L 106.126849 115.262963 
L 106.151816 115.326722 
L 107.891974 115.219339 
L 107.949397 115.142157 
L 108.433745 115.028062 
L 108.546094 114.9039 
L 108.548591 114.907255 
L 109.032939 115.02135 
L 109.147784 115.242829 
L 109.629636 115.360279 
L 109.746978 115.474374 
L 110.281259 115.585114 
L 110.346172 115.648873 
L 112.028908 115.759612 
L 112.143753 115.873707 
L 113.214812 115.984446 
L 113.342141 116.041493 
L 116.185815 116.152233 
L 116.33811 116.229414 
L 116.832445 116.340154 
L 116.937304 116.551565 
L 117.366726 116.672371 
L 117.536497 117.152241 
L 117.978403 117.266336 
L 118.135691 117.689158 
L 118.577596 117.803253 
L 118.734885 118.162317 
L 120.936922 118.276412 
L 121.13166 118.511313 
L 121.685914 118.625408 
L 121.730854 118.685811 
L 122.816892 118.803262 
L 122.929241 118.843531 
L 124.67689 118.95427 
L 124.726823 118.971049 
L 125.822848 119.081788 
L 125.92521 119.29991 
L 126.367116 119.414005 
L 126.524404 119.836828 
L 126.966309 119.950923 
L 127.123598 120.095219 
L 128.863756 120.205958 
L 128.921179 120.28314 
L 129.405527 120.397235 
L 129.520373 120.551599 
L 130.004721 120.665694 
L 130.119567 120.783145 
L 130.676317 120.893884 
L 130.71876 120.950931 
L 131.253041 121.065026 
L 131.317954 121.152275 
L 133.00069 121.26637 
L 133.115535 121.370398 
L 133.627347 121.259659 
L 133.714729 121.182477 
L 137.279932 121.293216 
L 137.309892 121.333485 
L 137.859153 121.229457 
L 137.909086 121.202611 
L 138.42589 121.088516 
L 138.508279 120.977777 
L 138.992628 120.863682 
L 139.107473 120.709318 
L 139.591822 120.595223 
L 139.706667 120.44086 
L 141.389403 120.326765 
L 141.504248 120.172401 
L 141.988597 120.058306 
L 142.103442 119.903942 
L 142.58779 119.789847 
L 142.702636 119.70931 
L 143.843601 119.598571 
L 143.901023 119.55159 
L 145.583759 119.440851 
L 145.698605 119.383804 
L 155.800013 119.494543 
L 155.884899 119.497899 
L 164.820376 119.608638 
L 164.872806 119.669041 
L 166.620454 119.77978 
L 166.670387 119.789847 
L 167.681526 119.900587 
L 167.833821 119.920721 
L 168.465472 120.028105 
L 168.467968 120.034816 
L 168.909874 120.148911 
L 169.067162 120.538176 
L 170.749898 120.652271 
L 170.864743 120.806635 
L 171.349092 120.92073 
L 171.463937 121.075093 
L 171.948285 121.189188 
L 172.063131 121.343552 
L 172.547479 121.457647 
L 172.662325 121.612011 
L 173.146673 121.726106 
L 173.261518 121.880469 
L 174.944254 121.994564 
L 175.0591 122.148928 
L 183.912188 122.333493 
L 184.047006 122.514703 
L 184.531355 122.628798 
L 184.6462 122.783162 
L 185.130548 122.897257 
L 185.245394 123.05162 
L 185.729742 123.165715 
L 185.844588 123.320079 
L 187.52233 123.434174 
L 187.642169 123.538202 
L 188.840557 123.648941 
L 198.267872 123.836862 
L 198.427657 123.914044 
L 200.157829 124.024783 
L 200.225238 124.115388 
L 200.709587 124.229483 
L 200.824432 124.383846 
L 201.30878 124.497941 
L 201.423626 124.652305 
L 201.907974 124.7664 
L 202.02282 124.920764 
L 202.507168 125.034859 
L 202.622013 125.189222 
L 204.304749 125.303317 
L 204.419595 125.457681 
L 204.903943 125.571776 
L 205.006305 125.578487 
L 205.018788 125.561709 
L 205.563056 125.447614 
L 205.617982 125.440902 
L 206.18472 125.551642 
L 206.217176 125.595266 
L 209.627587 125.732851 
L 209.774889 125.746274 
L 210.980767 125.857013 
L 211.010726 125.917417 
L 212.693462 126.031511 
L 212.808308 126.185875 
L 213.292656 126.29997 
L 213.407501 126.454334 
L 213.89185 126.568429 
L 214.006695 126.722793 
L 214.491043 126.836887 
L 214.605889 126.991251 
L 215.187606 127.105346 
L 215.205083 127.152326 
L 216.902798 127.269777 
L 217.002664 127.316757 
L 221.029745 127.427497 
L 221.19702 127.575149 
L 221.681369 127.689244 
L 221.738791 127.702667 
L 221.793718 127.655686 
L 222.887246 127.766426 
L 222.994602 127.877165 
L 223.591299 127.99126 
L 223.593795 127.994615 
L 284.0874 128.229517 
L 284.112367 128.263074 
L 294.780513 128.461062 
L 294.897855 128.618782 
L 296.580591 128.732877 
L 296.695436 128.887241 
L 297.179784 129.001335 
L 297.29463 129.155699 
L 297.778978 129.269794 
L 297.893824 129.424158 
L 298.378172 129.538253 
L 298.493017 129.57181 
L 322.865224 129.665771 
L 323.017519 129.645636 
L 323.54431 129.534897 
L 323.659156 129.383889 
L 324.24337 129.276506 
L 324.25835 129.236237 
L 325.898643 129.122142 
L 326.055931 128.907375 
L 326.540279 128.79328 
L 326.655125 128.638916 
L 327.139473 128.524821 
L 327.254319 128.370458 
L 327.738667 128.256363 
L 327.853512 128.101999 
L 328.330371 127.99126 
L 328.452706 127.796627 
L 330.135442 127.682532 
L 330.250287 127.528169 
L 330.734636 127.414074 
L 330.849481 127.25971 
L 331.333829 127.145615 
L 331.448675 126.991251 
L 349.424488 126.950982 
L 367.86218 126.840243 
L 367.999495 126.591919 
L 368.473857 126.474468 
L 368.598689 126.306682 
L 369.083037 126.192587 
L 369.197883 126.038223 
L 369.689721 125.924128 
L 369.797077 125.779831 
L 370.281425 125.665737 
L 370.39627 125.511373 
L 372.07651 125.400634 
L 372.193852 125.081839 
L 372.62577 124.964388 
L 372.793045 124.377135 
L 373.269904 124.259684 
L 373.392239 124.095253 
L 373.876588 123.981158 
L 373.991433 123.826795 
L 374.475781 123.7127 
L 374.590627 123.558336 
L 376.273363 123.444241 
L 376.388208 123.289877 
L 376.872556 123.175782 
L 376.987402 123.021419 
L 377.47175 122.907324 
L 377.586596 122.75296 
L 378.060957 122.638865 
L 378.185789 122.410675 
L 378.670138 122.29658 
L 378.784983 122.088525 
L 380.447746 121.97443 
L 380.582565 121.692548 
L 381.066913 121.578453 
L 381.181758 121.346908 
L 381.623664 121.232813 
L 381.780952 120.897239 
L 382.2653 120.783145 
L 382.380146 120.628781 
L 382.864494 120.514686 
L 382.97934 120.360322 
L 384.659579 120.249583 
L 384.776921 120.021393 
L 385.261269 119.907298 
L 385.376115 119.752934 
L 385.860463 119.638839 
L 385.975308 119.43414 
L 386.447174 119.316689 
L 386.574502 119.125412 
L 387.058851 119.011317 
L 387.173696 118.856954 
L 388.856432 118.742859 
L 388.971277 118.588495 
L 389.455626 118.4744 
L 389.570471 118.320036 
L 390.054819 118.205941 
L 390.169665 118.051578 
L 390.654013 117.937483 
L 390.768859 117.783119 
L 391.253207 117.669024 
L 391.368052 117.51466 
L 393.050788 117.400565 
L 393.165634 117.246202 
L 393.649982 117.132107 
L 393.764828 116.977743 
L 394.249176 116.863648 
L 394.364021 116.709284 
L 394.84837 116.595189 
L 394.963215 116.440826 
L 397.831855 116.306596 
L 397.959184 116.135454 
L 398.443532 116.021359 
L 398.558378 115.866995 
L 399.042726 115.7529 
L 399.157572 115.598537 
L 399.64192 115.484442 
L 399.756765 115.330078 
L 402.096118 115.434106 
L 402.15354 115.507932 
L 402.665352 115.618671 
L 402.752734 115.665651 
L 403.287015 115.773035 
L 403.351928 115.940821 
L 403.836276 116.054916 
L 403.951122 116.20928 
L 405.633858 116.323375 
L 405.748703 116.477739 
L 406.233051 116.591834 
L 406.347897 116.746197 
L 406.832245 116.860292 
L 406.947091 117.014656 
L 407.403976 117.128751 
L 407.546284 117.320028 
L 408.030633 117.434123 
L 408.145478 117.588486 
L 409.828214 117.702581 
L 409.943059 117.856945 
L 410.427408 117.97104 
L 410.542253 118.125404 
L 424.922904 118.135471 
L 445.742391 118.24621 
L 445.894686 118.531447 
L 447.577422 118.645542 
L 447.692267 118.799906 
L 448.176616 118.914001 
L 448.291461 119.068365 
L 448.775809 119.18246 
L 448.890655 119.336823 
L 449.375003 119.450918 
L 449.489849 119.605282 
L 449.946734 119.716021 
L 450.089042 120.132132 
L 451.711859 120.246227 
L 451.886624 120.752943 
L 452.370972 120.867038 
L 452.485817 121.021402 
L 452.970166 121.135497 
L 453.085011 121.28986 
L 453.56936 121.403955 
L 453.684205 121.558319 
L 454.168553 121.672414 
L 454.283399 121.826778 
L 455.966135 121.940873 
L 456.08098 122.095236 
L 456.565328 122.209331 
L 456.680174 122.363695 
L 457.144549 122.47779 
L 457.279368 122.70598 
L 457.763716 122.820075 
L 457.878561 123.034842 
L 458.342937 123.152292 
L 458.477755 123.424107 
L 460.138021 123.538202 
L 460.275337 123.836862 
L 460.732222 123.950957 
L 460.87453 124.219415 
L 461.358879 124.33351 
L 461.473724 124.487874 
L 461.958072 124.601969 
L 462.072918 124.756333 
L 462.534796 124.870428 
L 462.672112 125.095262 
L 464.354848 125.209357 
L 464.469693 125.363721 
L 464.954041 125.477815 
L 465.068887 125.70265 
L 465.543249 125.813389 
L 465.668081 125.991243 
L 466.152429 126.105338 
L 466.267274 126.259701 
L 466.751623 126.373796 
L 466.866468 126.52816 
L 468.549204 126.642255 
L 468.664049 126.796619 
L 469.148398 126.910714 
L 469.263243 127.065077 
L 469.747591 127.179172 
L 469.862437 127.333536 
L 470.346785 127.447631 
L 470.461631 127.601995 
L 470.945979 127.71609 
L 471.060825 127.870453 
L 472.74356 127.984548 
L 472.858406 128.138912 
L 473.342754 128.253007 
L 473.4576 128.407371 
L 473.941948 128.521466 
L 474.056793 128.622138 
L 476.868011 128.732877 
L 477.052762 128.981201 
L 477.537111 129.095296 
L 477.651956 129.24966 
L 478.136304 129.363755 
L 478.25115 129.518118 
L 478.735498 129.632213 
L 478.850344 129.726174 
L 503.26 129.726174 
L 503.26 129.726174 
" clip-path="url(#pfec7994fc3)" style="fill: none; stroke: #4169e1; stroke-linecap: square"/>
   </g>
   <g id="patch_7">
    <path d="M 32.25125 129.8 
L 32.25125 3.96 
" style="fill: none; stroke: #000000; stroke-width: 0.8; stroke-linejoin: miter; stroke-linecap: square"/>
   </g>
   <g id="patch_8">
    <path d="M 503.26 129.8 
L 503.26 3.96 
" style="fill: none; stroke: #000000; stroke-width: 0.8; stroke-linejoin: miter; stroke-linecap: square"/>
   </g>
   <g id="patch_9">
    <path d="M 32.25125 129.8 
L 503.26 129.8 
" style="fill: none; stroke: #000000; stroke-width: 0.8; stroke-linejoin: miter; stroke-linecap: square"/>
   </g>
   <g id="patch_10">
    <path d="M 32.25125 3.96 
L 503.26 3.96 
" style="fill: none; stroke: #000000; stroke-width: 0.8; stroke-linejoin: miter; stroke-linecap: square"/>
   </g>
  </g>
 </g>
 <defs>
  <clipPath id="pfec7994fc3">
   <rect x="32.25125" y="3.96" width="471.00875" height="125.84"/>
  </clipPath>
 </defs>
</svg>
