<?xml version="1.0" encoding="utf-8" standalone="no"?>
<!DOCTYPE svg PUBLIC "-//W3C//DTD SVG 1.1//EN"
  "http://www.w3.org/Graphics/SVG/1.1/DTD/svg11.dtd">
<svg xmlns:xlink="http://www.w3.org/1999/xlink" width="540pt" height="129.6pt" viewBox="0 0 540 129.6" xmlns="http://www.w3.org/2000/svg" version="1.1">
 <metadata>
  <rdf:RDF xmlns:dc="http://purl.org/dc/elements/1.1/" xmlns:cc="http://creativecommons.org/ns#" xmlns:rdf="http://www.w3.org/1999/02/22-rdf-syntax-ns#">
   <cc:Work>
    <dc:type rdf:resource="http://purl.org/dc/dcmitype/StillImage"/>
    <dc:date>2025-03-30T07:42:56.692898</dc:date>
    <dc:format>image/svg+xml</dc:format>
    <dc:creator>
     <cc:Agent>
      <dc:title>Matplotlib v3.8.3, https://matplotlib.org/</dc:title>
     </cc:Agent>
    </dc:creator>
   </cc:Work>
  </rdf:RDF>
 </metadata>
 <defs>
  <style type="text/css">*{stroke-linejoin: round; stroke-linecap: butt}</style>
 </defs>
 <g id="figure_1">
  <g id="patch_1">
   <path d="M 0 129.6 
L 540 129.6 
L 540 0 
L 0 0 
z
" style="fill: #ffffff"/>
  </g>
  <g id="axes_1">
   <g id="patch_2">
    <path d="M 35.03 97 
L 540 97 
L 540 0 
L 35.03 0 
z
" style="fill: #ffffff"/>
   </g>
   <g id="matplotlib.axis_1">
    <g id="xtick_1">
     <g id="line2d_1">
      <path d="M 35.03 97 
L 35.03 0 
" clip-path="url(#p53a067eb79)" style="fill: none; stroke: #b0b0b0; stroke-width: 0.8; stroke-linecap: square"/>
     </g>
     <g id="line2d_2">
      <defs>
       <path id="mfbc4a4fd5c" d="M 0 0 
L 0 3.5 
" style="stroke: #000000; stroke-width: 0.8"/>
      </defs>
      <g>
       <use xlink:href="#mfbc4a4fd5c" x="35.03" y="97" style="stroke: #000000; stroke-width: 0.8"/>
      </g>
     </g>
     <g id="text_1">
      <text style="font: 10px 'Times New Roman'; text-anchor: middle" x="35.03" y="110.94375" transform="rotate(-0 35.03 110.94375)">0</text>
     </g>
    </g>
    <g id="xtick_2">
     <g id="line2d_3">
      <path d="M 95.296142 97 
L 95.296142 0 
" clip-path="url(#p53a067eb79)" style="fill: none; stroke: #b0b0b0; stroke-width: 0.8; stroke-linecap: square"/>
     </g>
     <g id="line2d_4">
      <g>
       <use xlink:href="#mfbc4a4fd5c" x="95.296142" y="97" style="stroke: #000000; stroke-width: 0.8"/>
      </g>
     </g>
     <g id="text_2">
      <text style="font: 10px 'Times New Roman'; text-anchor: middle" x="95.296142" y="110.94375" transform="rotate(-0 95.296142 110.94375)">50</text>
     </g>
    </g>
    <g id="xtick_3">
     <g id="line2d_5">
      <path d="M 155.562283 97 
L 155.562283 0 
" clip-path="url(#p53a067eb79)" style="fill: none; stroke: #b0b0b0; stroke-width: 0.8; stroke-linecap: square"/>
     </g>
     <g id="line2d_6">
      <g>
       <use xlink:href="#mfbc4a4fd5c" x="155.562283" y="97" style="stroke: #000000; stroke-width: 0.8"/>
      </g>
     </g>
     <g id="text_3">
      <text style="font: 10px 'Times New Roman'; text-anchor: middle" x="155.562283" y="110.94375" transform="rotate(-0 155.562283 110.94375)">100</text>
     </g>
    </g>
    <g id="xtick_4">
     <g id="line2d_7">
      <path d="M 215.828425 97 
L 215.828425 0 
" clip-path="url(#p53a067eb79)" style="fill: none; stroke: #b0b0b0; stroke-width: 0.8; stroke-linecap: square"/>
     </g>
     <g id="line2d_8">
      <g>
       <use xlink:href="#mfbc4a4fd5c" x="215.828425" y="97" style="stroke: #000000; stroke-width: 0.8"/>
      </g>
     </g>
     <g id="text_4">
      <text style="font: 10px 'Times New Roman'; text-anchor: middle" x="215.828425" y="110.94375" transform="rotate(-0 215.828425 110.94375)">150</text>
     </g>
    </g>
    <g id="xtick_5">
     <g id="line2d_9">
      <path d="M 276.094566 97 
L 276.094566 0 
" clip-path="url(#p53a067eb79)" style="fill: none; stroke: #b0b0b0; stroke-width: 0.8; stroke-linecap: square"/>
     </g>
     <g id="line2d_10">
      <g>
       <use xlink:href="#mfbc4a4fd5c" x="276.094566" y="97" style="stroke: #000000; stroke-width: 0.8"/>
      </g>
     </g>
     <g id="text_5">
      <text style="font: 10px 'Times New Roman'; text-anchor: middle" x="276.094566" y="110.94375" transform="rotate(-0 276.094566 110.94375)">200</text>
     </g>
    </g>
    <g id="xtick_6">
     <g id="line2d_11">
      <path d="M 336.360708 97 
L 336.360708 0 
" clip-path="url(#p53a067eb79)" style="fill: none; stroke: #b0b0b0; stroke-width: 0.8; stroke-linecap: square"/>
     </g>
     <g id="line2d_12">
      <g>
       <use xlink:href="#mfbc4a4fd5c" x="336.360708" y="97" style="stroke: #000000; stroke-width: 0.8"/>
      </g>
     </g>
     <g id="text_6">
      <text style="font: 10px 'Times New Roman'; text-anchor: middle" x="336.360708" y="110.94375" transform="rotate(-0 336.360708 110.94375)">250</text>
     </g>
    </g>
    <g id="xtick_7">
     <g id="line2d_13">
      <path d="M 396.626849 97 
L 396.626849 0 
" clip-path="url(#p53a067eb79)" style="fill: none; stroke: #b0b0b0; stroke-width: 0.8; stroke-linecap: square"/>
     </g>
     <g id="line2d_14">
      <g>
       <use xlink:href="#mfbc4a4fd5c" x="396.626849" y="97" style="stroke: #000000; stroke-width: 0.8"/>
      </g>
     </g>
     <g id="text_7">
      <text style="font: 10px 'Times New Roman'; text-anchor: middle" x="396.626849" y="110.94375" transform="rotate(-0 396.626849 110.94375)">300</text>
     </g>
    </g>
    <g id="xtick_8">
     <g id="line2d_15">
      <path d="M 456.892991 97 
L 456.892991 0 
" clip-path="url(#p53a067eb79)" style="fill: none; stroke: #b0b0b0; stroke-width: 0.8; stroke-linecap: square"/>
     </g>
     <g id="line2d_16">
      <g>
       <use xlink:href="#mfbc4a4fd5c" x="456.892991" y="97" style="stroke: #000000; stroke-width: 0.8"/>
      </g>
     </g>
     <g id="text_8">
      <text style="font: 10px 'Times New Roman'; text-anchor: middle" x="456.892991" y="110.94375" transform="rotate(-0 456.892991 110.94375)">350</text>
     </g>
    </g>
    <g id="xtick_9">
     <g id="line2d_17">
      <path d="M 517.159132 97 
L 517.159132 0 
" clip-path="url(#p53a067eb79)" style="fill: none; stroke: #b0b0b0; stroke-width: 0.8; stroke-linecap: square"/>
     </g>
     <g id="line2d_18">
      <g>
       <use xlink:href="#mfbc4a4fd5c" x="517.159132" y="97" style="stroke: #000000; stroke-width: 0.8"/>
      </g>
     </g>
     <g id="text_9">
      <text style="font: 10px 'Times New Roman'; text-anchor: middle" x="517.159132" y="110.94375" transform="rotate(-0 517.159132 110.94375)">400</text>
     </g>
    </g>
    <g id="text_10">
     <text style="font: 12px 'Times New Roman'; text-anchor: middle" x="287.515" y="125.415312" transform="rotate(-0 287.515 125.415312)">Simulation Run</text>
    </g>
   </g>
   <g id="matplotlib.axis_2">
    <g id="ytick_1">
     <g id="line2d_19">
      <path d="M 35.03 97 
L 540 97 
" clip-path="url(#p53a067eb79)" style="fill: none; stroke: #b0b0b0; stroke-width: 0.8; stroke-linecap: square"/>
     </g>
     <g id="line2d_20">
      <defs>
       <path id="m483d4e695c" d="M 0 0 
L -3.5 0 
" style="stroke: #000000; stroke-width: 0.8"/>
      </defs>
      <g>
       <use xlink:href="#m483d4e695c" x="35.03" y="97" style="stroke: #000000; stroke-width: 0.8"/>
      </g>
     </g>
     <g id="text_11">
      <text style="font: 10px 'Times New Roman'; text-anchor: end" x="28.03" y="100.471875" transform="rotate(-0 28.03 100.471875)">0.0</text>
     </g>
    </g>
    <g id="ytick_2">
     <g id="line2d_21">
      <path d="M 35.03 56.583333 
L 540 56.583333 
" clip-path="url(#p53a067eb79)" style="fill: none; stroke: #b0b0b0; stroke-width: 0.8; stroke-linecap: square"/>
     </g>
     <g id="line2d_22">
      <g>
       <use xlink:href="#m483d4e695c" x="35.03" y="56.583333" style="stroke: #000000; stroke-width: 0.8"/>
      </g>
     </g>
     <g id="text_12">
      <text style="font: 10px 'Times New Roman'; text-anchor: end" x="28.03" y="60.055208" transform="rotate(-0 28.03 60.055208)">0.5</text>
     </g>
    </g>
    <g id="ytick_3">
     <g id="line2d_23">
      <path d="M 35.03 16.166667 
L 540 16.166667 
" clip-path="url(#p53a067eb79)" style="fill: none; stroke: #b0b0b0; stroke-width: 0.8; stroke-linecap: square"/>
     </g>
     <g id="line2d_24">
      <g>
       <use xlink:href="#m483d4e695c" x="35.03" y="16.166667" style="stroke: #000000; stroke-width: 0.8"/>
      </g>
     </g>
     <g id="text_13">
      <text style="font: 10px 'Times New Roman'; text-anchor: end" x="28.03" y="19.638542" transform="rotate(-0 28.03 19.638542)">1.0</text>
     </g>
    </g>
    <g id="text_14">
     <text style="font: 12px 'Times New Roman'; text-anchor: middle" x="8.963125" y="48.5" transform="rotate(-90 8.963125 48.5)">Normalized Value</text>
    </g>
   </g>
   <g id="line2d_25">
    <path d="M 35.03 26.478645 
L 36.235323 16.033818 
L 38.645968 10.411955 
L 39.851291 5.568941 
L 41.056614 6.807876 
L 42.261937 5.486325 
L 43.46726 6.942586 
L 44.672583 9.663038 
L 45.877905 13.937031 
L 47.083228 15.702129 
L 48.288551 16.81246 
L 49.493874 17.597565 
L 50.699197 17.527825 
L 51.90452 18.25971 
L 53.109842 17.550691 
L 54.315165 15.970493 
L 55.520488 16.768903 
L 56.725811 16.366419 
L 57.931134 16.387034 
L 59.136457 17.190379 
L 60.341779 16.831817 
L 61.547102 14.867804 
L 62.752425 14.753133 
L 63.957748 16.135459 
L 65.163071 16.536889 
L 66.368394 17.424183 
L 67.573716 16.513468 
L 68.779039 16.817168 
L 69.984362 15.946883 
L 71.189685 15.649682 
L 72.395008 15.539463 
L 73.600331 14.85899 
L 74.805653 14.708607 
L 76.010976 14.307221 
L 77.216299 15.468178 
L 78.421622 14.034367 
L 79.626945 14.366351 
L 80.832268 14.973133 
L 83.242913 14.737443 
L 84.448236 15.342559 
L 85.653559 14.423314 
L 88.064205 14.826073 
L 89.269527 14.766776 
L 90.47485 14.586779 
L 92.885496 15.106591 
L 95.296142 14.980574 
L 96.501464 15.638986 
L 97.706787 16.097948 
L 98.91211 16.291604 
L 104.938724 18.042236 
L 106.144047 17.36773 
L 107.34937 17.053271 
L 108.554693 17.346165 
L 110.965338 16.423548 
L 113.375984 16.993931 
L 114.581307 17.026455 
L 115.78663 16.591116 
L 118.197275 16.379724 
L 119.402598 16.562983 
L 120.607921 16.99316 
L 123.018567 17.314985 
L 124.223889 17.542943 
L 125.429212 17.292814 
L 126.634535 17.595318 
L 130.250504 17.454836 
L 131.455826 17.847894 
L 133.866472 17.515303 
L 135.071795 17.821453 
L 137.482441 17.447933 
L 138.687763 17.665237 
L 142.303732 17.517162 
L 143.509055 17.72304 
L 144.714378 17.541477 
L 145.9197 17.789271 
L 147.125023 17.332204 
L 148.330346 17.428541 
L 149.535669 17.356494 
L 150.740992 16.954346 
L 151.946315 16.987538 
L 153.151637 17.188579 
L 154.35696 16.927922 
L 159.178252 17.360645 
L 160.383574 16.936276 
L 161.588897 17.142823 
L 162.79422 16.532351 
L 165.204866 16.618433 
L 166.410189 16.87561 
L 167.615511 16.947081 
L 170.026157 16.80763 
L 171.23148 16.481892 
L 172.436803 16.483097 
L 173.642126 16.171233 
L 174.847448 16.315849 
L 188.106 16.336163 
L 189.311322 16.568518 
L 190.516645 16.663749 
L 191.721968 16.636311 
L 192.927291 16.411794 
L 194.132614 16.477531 
L 196.543259 16.836459 
L 197.748582 16.942252 
L 204.980519 16.763044 
L 208.596488 17.044096 
L 209.80181 16.978281 
L 214.623102 17.265822 
L 221.855039 17.317466 
L 223.060362 17.449333 
L 224.265684 17.241545 
L 227.881653 17.225871 
L 230.292299 17.614099 
L 231.497621 17.683214 
L 236.318913 17.329798 
L 237.524236 17.450632 
L 241.140204 17.274545 
L 243.55085 17.286703 
L 245.961495 17.253943 
L 247.166818 17.264738 
L 248.372141 17.095722 
L 250.782787 17.182834 
L 253.193432 17.351302 
L 254.398755 17.489728 
L 255.604078 17.256515 
L 256.809401 17.383015 
L 258.014724 17.253796 
L 259.220047 17.259718 
L 262.836015 17.518347 
L 264.041338 17.587445 
L 265.246661 17.504315 
L 266.451984 17.577369 
L 267.657306 17.439671 
L 268.862629 17.456705 
L 270.067952 17.269339 
L 280.915858 17.208801 
L 282.12118 17.011686 
L 285.737149 17.310826 
L 286.942472 17.33301 
L 288.147794 17.174978 
L 289.353117 17.174734 
L 290.55844 17.371123 
L 292.969086 17.424695 
L 297.790377 17.178357 
L 301.406346 17.067809 
L 302.611668 16.76777 
L 303.816991 16.857514 
L 306.227637 16.747978 
L 313.459574 16.79579 
L 315.87022 16.85559 
L 317.075542 16.757346 
L 319.486188 16.950929 
L 321.896834 16.996642 
L 323.102157 17.134173 
L 327.923448 17.060522 
L 329.128771 17.180281 
L 333.950062 16.846903 
L 335.155385 16.976076 
L 338.771353 16.697955 
L 339.976676 16.78439 
L 341.181999 16.731206 
L 342.387322 16.499682 
L 343.592645 16.410923 
L 347.208613 16.417182 
L 348.413936 16.294283 
L 353.235227 16.535826 
L 354.44055 16.587729 
L 356.851196 16.508571 
L 366.493778 16.523909 
L 367.699101 16.382276 
L 371.31507 16.439901 
L 374.931038 16.58553 
L 376.136361 16.444138 
L 379.75233 16.599009 
L 380.957652 16.58008 
L 383.368298 16.707635 
L 389.394912 16.55008 
L 391.805558 16.74212 
L 397.832172 16.524313 
L 402.653463 16.523352 
L 403.858786 16.368603 
L 408.680078 16.316786 
L 409.8854 16.125926 
L 412.296046 16.073639 
L 419.527983 15.692502 
L 423.143952 15.851556 
L 426.75992 15.700189 
L 427.965243 15.820247 
L 433.991857 15.659204 
L 441.223794 15.970587 
L 442.429117 15.887486 
L 444.839763 15.909987 
L 448.455731 15.92887 
L 450.866377 15.996968 
L 461.714282 16.083022 
L 464.124928 16.166439 
L 465.330251 16.045798 
L 471.356865 16.240763 
L 473.76751 16.350681 
L 474.972833 16.251691 
L 476.178156 16.308623 
L 477.383479 16.245759 
L 478.588802 16.05971 
L 479.794125 16.120044 
L 482.20477 16.013656 
L 488.231384 15.930788 
L 489.436707 16.020714 
L 490.64203 15.978079 
L 494.257999 16.20933 
L 497.873967 16.185838 
L 500.284613 16.274527 
L 508.721873 16.269747 
L 509.927195 16.223328 
L 511.132518 16.293097 
L 513.543164 16.114624 
L 515.95381 16.166667 
L 515.95381 16.166667 
" clip-path="url(#p53a067eb79)" style="fill: none; stroke: #4169e1; stroke-width: 1.5; stroke-linecap: square"/>
   </g>
   <g id="line2d_26">
    <path d="M 35.03 97 
L 36.235323 77.774933 
L 37.440646 81.579993 
L 38.645968 80.976326 
L 39.851291 67.647866 
L 41.056614 71.187404 
L 42.261937 73.02827 
L 43.46726 73.408711 
L 44.672583 65.596291 
L 45.877905 39.764861 
L 47.083228 39.477663 
L 48.288551 41.881387 
L 49.493874 44.817805 
L 50.699197 48.533962 
L 51.90452 50.443495 
L 53.109842 52.024439 
L 54.315165 47.629481 
L 55.520488 48.462586 
L 56.725811 50.503338 
L 57.931134 52.826748 
L 59.136457 52.655667 
L 60.341779 54.195531 
L 61.547102 41.101921 
L 62.752425 43.377711 
L 63.957748 37.440994 
L 65.163071 39.021777 
L 66.368394 37.561889 
L 67.573716 35.738336 
L 68.779039 37.395699 
L 69.984362 35.511839 
L 71.189685 37.028359 
L 72.395008 38.836107 
L 73.600331 37.987465 
L 74.805653 39.591614 
L 76.010976 40.266537 
L 77.216299 33.529317 
L 78.421622 22.202512 
L 79.626945 23.452242 
L 80.832268 22.87253 
L 83.242913 26.296268 
L 84.448236 25.334078 
L 85.653559 20.746453 
L 88.064205 23.517013 
L 89.269527 25.086586 
L 90.47485 26.354023 
L 92.885496 28.117866 
L 95.296142 30.749864 
L 96.501464 28.127793 
L 97.706787 27.496989 
L 98.91211 28.43381 
L 100.117433 28.358172 
L 101.322756 27.405443 
L 102.528079 28.189789 
L 103.733401 27.589204 
L 104.938724 28.011388 
L 106.144047 24.430888 
L 108.554693 24.820953 
L 109.760016 23.309438 
L 110.965338 22.413216 
L 112.170661 22.556315 
L 113.375984 22.837032 
L 114.581307 23.931638 
L 115.78663 22.768509 
L 116.991953 23.808297 
L 118.197275 24.55586 
L 119.402598 25.16192 
L 120.607921 23.84431 
L 121.813244 24.635719 
L 123.018567 25.134662 
L 124.223889 25.415215 
L 125.429212 25.530214 
L 126.634535 25.232813 
L 130.250504 27.804051 
L 131.455826 26.480265 
L 132.661149 27.105893 
L 133.866472 27.343942 
L 135.071795 26.802265 
L 136.277118 27.351604 
L 137.482441 27.321213 
L 138.687763 27.406473 
L 139.893086 28.155685 
L 141.098409 28.616184 
L 142.303732 29.342664 
L 143.509055 29.41391 
L 144.714378 29.619899 
L 145.9197 29.348927 
L 147.125023 26.644826 
L 149.535669 27.871524 
L 150.740992 25.848241 
L 151.946315 26.555447 
L 153.151637 26.568999 
L 154.35696 26.087977 
L 156.767606 27.287478 
L 157.972929 27.262366 
L 159.178252 27.764729 
L 160.383574 25.123572 
L 161.588897 25.012258 
L 162.79422 18.723543 
L 165.204866 20.077271 
L 166.410189 19.506124 
L 167.615511 20.105249 
L 168.820834 20.571594 
L 170.026157 21.226002 
L 171.23148 19.777776 
L 172.436803 20.449245 
L 173.642126 19.138141 
L 174.847448 19.376109 
L 177.258094 20.616609 
L 178.463417 21.063528 
L 179.66874 21.274443 
L 184.490031 23.483052 
L 185.695354 24.02508 
L 188.106 24.920446 
L 189.311322 24.261393 
L 190.516645 24.614755 
L 191.721968 25.150068 
L 192.927291 24.530697 
L 194.132614 24.975057 
L 195.337937 24.573023 
L 196.543259 24.51469 
L 197.748582 24.781406 
L 201.364551 26.259496 
L 204.980519 27.515959 
L 206.185842 27.61375 
L 209.80181 28.619111 
L 211.007133 28.908375 
L 212.212456 28.987141 
L 213.417779 29.370712 
L 214.623102 29.333091 
L 218.23907 30.655362 
L 220.649716 31.417441 
L 221.855039 31.836337 
L 223.060362 31.773356 
L 224.265684 30.991634 
L 227.881653 32.046002 
L 229.086976 31.235192 
L 230.292299 30.697546 
L 231.497621 30.964615 
L 232.702944 31.060448 
L 233.908267 30.719763 
L 235.11359 31.070972 
L 237.524236 30.916867 
L 239.934881 31.206203 
L 244.756173 32.618975 
L 245.961495 32.828503 
L 247.166818 33.18744 
L 248.372141 32.654907 
L 249.577464 33.014073 
L 250.782787 33.146977 
L 251.98811 33.45212 
L 254.398755 32.998299 
L 255.604078 31.592169 
L 258.014724 31.235023 
L 259.220047 31.585558 
L 260.425369 31.441956 
L 261.630692 31.148688 
L 262.836015 31.495064 
L 266.451984 31.943104 
L 267.657306 31.63357 
L 268.862629 31.958863 
L 270.067952 31.08433 
L 271.273275 31.418926 
L 272.478598 31.533293 
L 278.505212 32.938893 
L 280.915858 33.210351 
L 282.12118 32.11636 
L 283.326503 31.886275 
L 284.531826 32.161375 
L 285.737149 31.705988 
L 286.942472 31.998786 
L 288.147794 31.382637 
L 289.353117 31.692151 
L 290.55844 30.557848 
L 295.379731 31.449886 
L 296.585054 30.160593 
L 300.201023 30.942803 
L 301.406346 30.544642 
L 302.611668 27.320779 
L 305.022314 27.249761 
L 309.843605 28.375832 
L 312.254251 28.815625 
L 315.87022 29.324361 
L 317.075542 29.214336 
L 318.280865 28.776947 
L 319.486188 28.908503 
L 321.896834 29.416351 
L 323.102157 28.901315 
L 324.307479 29.165558 
L 325.512802 29.271913 
L 327.923448 29.799086 
L 329.128771 29.456683 
L 330.334094 29.374963 
L 331.539416 29.633439 
L 332.744739 27.697581 
L 333.950062 27.91886 
L 335.155385 27.463021 
L 337.566031 27.32581 
L 338.771353 27.143956 
L 339.976676 27.085884 
L 341.181999 27.233444 
L 342.387322 25.097189 
L 343.592645 25.021557 
L 344.797968 25.247466 
L 346.00329 25.277036 
L 347.208613 25.080353 
L 348.413936 24.663861 
L 352.029905 24.580469 
L 353.235227 24.853659 
L 354.44055 24.999085 
L 355.645873 25.010393 
L 360.467164 25.990864 
L 364.083133 26.43612 
L 366.493778 26.85484 
L 367.699101 26.132404 
L 368.904424 26.379746 
L 370.109747 26.225093 
L 371.31507 26.455868 
L 372.520393 26.443276 
L 373.725715 26.685699 
L 374.931038 26.574551 
L 376.136361 25.82551 
L 377.341684 25.842022 
L 378.547007 25.120515 
L 379.75233 25.232642 
L 380.957652 25.463712 
L 382.162975 25.132162 
L 385.778944 25.713725 
L 386.984267 25.720712 
L 388.189589 25.903489 
L 389.394912 25.963141 
L 390.600235 25.492795 
L 391.805558 25.438996 
L 393.010881 25.503867 
L 394.216204 24.769251 
L 395.421526 24.938361 
L 396.626849 24.434617 
L 397.832172 24.496989 
L 400.242818 24.850738 
L 401.448141 24.878932 
L 402.653463 25.114334 
L 403.858786 24.057147 
L 405.064109 24.289383 
L 407.474755 24.434823 
L 408.680078 24.602882 
L 409.8854 22.838489 
L 411.090723 23.075021 
L 412.296046 23.174913 
L 413.501369 23.130279 
L 414.706692 22.913175 
L 415.912015 22.54073 
L 417.117337 22.694291 
L 418.32266 21.855798 
L 420.733306 21.915835 
L 421.938629 21.702631 
L 423.143952 21.929731 
L 424.349274 21.806482 
L 425.554597 20.342774 
L 426.75992 20.00632 
L 427.965243 19.413705 
L 429.170566 19.577517 
L 431.581211 19.561081 
L 432.786534 18.217141 
L 433.991857 18.360657 
L 435.19718 18.367376 
L 436.402503 18.244928 
L 437.607826 17.807575 
L 440.018471 18.180169 
L 441.223794 18.387835 
L 442.429117 18.208399 
L 444.839763 18.52491 
L 448.455731 19.114164 
L 449.661054 18.891263 
L 452.071699 19.321874 
L 453.277022 19.298319 
L 456.892991 19.921662 
L 459.303636 19.990554 
L 461.714282 20.295836 
L 464.124928 20.503475 
L 465.330251 19.801522 
L 467.740896 20.103635 
L 470.151542 20.222081 
L 471.356865 20.360382 
L 472.562188 19.918467 
L 473.76751 20.12454 
L 474.972833 19.704293 
L 477.383479 19.660318 
L 478.588802 17.625164 
L 479.794125 17.602987 
L 480.999447 17.306346 
L 483.410093 17.691992 
L 487.026062 17.732747 
L 488.231384 17.078738 
L 489.436707 16.752922 
L 490.64203 16.843571 
L 491.847353 16.290709 
L 497.873967 16.156769 
L 499.07929 15.916313 
L 502.695258 16.525576 
L 503.900581 16.254165 
L 506.311227 16.644928 
L 509.927195 16.718039 
L 511.132518 16.581931 
L 512.337841 16.076961 
L 513.543164 15.857027 
L 515.95381 16.166667 
L 515.95381 16.166667 
" clip-path="url(#p53a067eb79)" style="fill: none; stroke-dasharray: 5.55,2.4; stroke-dashoffset: 0; stroke: #4169e1; stroke-width: 1.5"/>
   </g>
   <g id="line2d_27">
    <path d="M 35.03 22.753605 
L 36.235323 17.685746 
L 37.440646 14.035471 
L 38.645968 12.946996 
L 39.851291 9.161741 
L 41.056614 9.665495 
L 42.261937 7.739816 
L 43.46726 8.376457 
L 44.672583 10.721692 
L 45.877905 14.537491 
L 47.083228 15.887841 
L 48.288551 16.8222 
L 49.493874 18.035489 
L 50.699197 17.787513 
L 51.90452 18.048593 
L 53.109842 17.154424 
L 54.315165 16.403738 
L 55.520488 17.250458 
L 56.725811 16.761894 
L 57.931134 16.684985 
L 59.136457 17.396042 
L 60.341779 17.450502 
L 61.547102 16.039319 
L 62.752425 15.998085 
L 63.957748 17.172515 
L 65.163071 17.373201 
L 66.368394 18.178767 
L 67.573716 17.560568 
L 68.779039 17.847963 
L 69.984362 17.070094 
L 71.189685 16.633986 
L 72.395008 16.52058 
L 73.600331 15.822026 
L 74.805653 15.566332 
L 76.010976 15.017406 
L 77.216299 16.147524 
L 78.421622 14.798024 
L 79.626945 15.064475 
L 80.832268 15.614191 
L 82.03759 15.562607 
L 83.242913 15.387858 
L 84.448236 15.814153 
L 85.653559 15.030652 
L 88.064205 15.436061 
L 90.47485 15.187591 
L 91.680173 15.622929 
L 92.885496 15.851978 
L 95.296142 15.720513 
L 96.501464 16.354608 
L 97.706787 16.719633 
L 98.91211 16.866352 
L 102.528079 17.827713 
L 104.938724 18.386596 
L 106.144047 17.798073 
L 107.34937 17.486152 
L 108.554693 17.743762 
L 110.965338 16.928462 
L 114.581307 17.45456 
L 115.78663 16.988743 
L 118.197275 16.767583 
L 119.402598 16.988582 
L 120.607921 17.413948 
L 124.223889 17.836747 
L 125.429212 17.686805 
L 126.634535 17.945122 
L 127.839858 17.936344 
L 130.250504 17.697184 
L 131.455826 18.068321 
L 133.866472 17.806155 
L 135.071795 18.096589 
L 136.277118 17.96396 
L 137.482441 17.676218 
L 138.687763 17.807024 
L 139.893086 17.745372 
L 141.098409 17.560851 
L 143.509055 17.820493 
L 144.714378 17.690932 
L 145.9197 17.914207 
L 147.125023 17.408199 
L 148.330346 17.48587 
L 149.535669 17.451164 
L 150.740992 17.086833 
L 151.946315 17.167551 
L 153.151637 17.385927 
L 154.35696 17.177404 
L 159.178252 17.545302 
L 160.383574 17.09591 
L 161.588897 17.283382 
L 162.79422 16.698897 
L 165.204866 16.774398 
L 166.410189 17.012929 
L 167.615511 17.065171 
L 168.820834 16.95286 
L 170.026157 16.97767 
L 171.23148 16.699249 
L 172.436803 16.75649 
L 173.642126 16.504654 
L 176.052771 16.620074 
L 177.258094 16.677452 
L 178.463417 16.549033 
L 179.66874 16.660055 
L 182.079385 16.640827 
L 184.490031 16.596562 
L 185.695354 16.507918 
L 186.900677 16.596089 
L 188.106 16.570923 
L 189.311322 16.794896 
L 191.721968 16.815011 
L 192.927291 16.599646 
L 194.132614 16.651343 
L 197.748582 17.112794 
L 206.185842 17.018115 
L 208.596488 17.178197 
L 209.80181 17.110644 
L 212.212456 17.365142 
L 213.417779 17.285701 
L 214.623102 17.40846 
L 223.060362 17.503263 
L 224.265684 17.31329 
L 226.67633 17.23193 
L 227.881653 17.285689 
L 230.292299 17.627981 
L 231.497621 17.664874 
L 236.318913 17.292675 
L 237.524236 17.417268 
L 239.934881 17.231747 
L 243.55085 17.258963 
L 244.756173 17.313274 
L 248.372141 17.109491 
L 251.98811 17.166303 
L 254.398755 17.409188 
L 255.604078 17.185277 
L 256.809401 17.312839 
L 259.220047 17.20397 
L 261.630692 17.447593 
L 265.246661 17.452476 
L 266.451984 17.535519 
L 267.657306 17.415976 
L 268.862629 17.424061 
L 270.067952 17.220841 
L 271.273275 17.22149 
L 272.478598 17.102916 
L 276.094566 17.12661 
L 278.505212 17.060652 
L 279.710535 17.143671 
L 280.915858 17.093472 
L 282.12118 16.926578 
L 283.326503 17.056688 
L 284.531826 17.072249 
L 285.737149 17.216498 
L 286.942472 17.219526 
L 288.147794 17.06774 
L 289.353117 17.049299 
L 290.55844 17.228398 
L 292.969086 17.269877 
L 297.790377 17.065524 
L 301.406346 16.966732 
L 302.611668 16.668021 
L 303.816991 16.740797 
L 306.227637 16.641102 
L 309.843605 16.607847 
L 315.87022 16.671186 
L 317.075542 16.560541 
L 319.486188 16.729922 
L 324.307479 16.903367 
L 326.718125 16.812536 
L 327.923448 16.803913 
L 329.128771 16.916985 
L 333.950062 16.545182 
L 335.155385 16.668726 
L 342.387322 16.244658 
L 344.797968 16.189892 
L 346.00329 16.256769 
L 348.413936 16.054498 
L 354.44055 16.366545 
L 356.851196 16.275864 
L 366.493778 16.335823 
L 367.699101 16.165767 
L 370.109747 16.197487 
L 373.725715 16.239399 
L 374.931038 16.316778 
L 376.136361 16.221927 
L 379.75233 16.368736 
L 380.957652 16.357216 
L 383.368298 16.482564 
L 389.394912 16.345053 
L 391.805558 16.521128 
L 399.037495 16.383416 
L 401.448141 16.343723 
L 402.653463 16.340842 
L 403.858786 16.202423 
L 408.680078 16.155846 
L 409.8854 15.992443 
L 413.501369 15.896677 
L 418.32266 15.587062 
L 424.349274 15.703296 
L 425.554597 15.524893 
L 427.965243 15.729919 
L 435.19718 15.657345 
L 440.018471 15.878741 
L 444.839763 15.879205 
L 448.455731 15.904912 
L 450.866377 15.964432 
L 454.482345 15.99976 
L 464.124928 16.156557 
L 465.330251 16.033857 
L 471.356865 16.226798 
L 473.76751 16.33325 
L 474.972833 16.239429 
L 476.178156 16.297068 
L 482.20477 16.051266 
L 488.231384 16.01152 
L 494.257999 16.285744 
L 497.873967 16.269655 
L 500.284613 16.358713 
L 508.721873 16.327278 
L 514.748487 16.139184 
L 515.95381 16.166667 
L 515.95381 16.166667 
" clip-path="url(#p53a067eb79)" style="fill: none; stroke: #ff8c00; stroke-width: 1.5; stroke-linecap: square"/>
   </g>
   <g id="line2d_28">
    <path d="M 35.03 97 
L 36.235323 91.74673 
L 37.440646 88.047 
L 38.645968 89.558244 
L 39.851291 79.323802 
L 41.056614 82.010305 
L 42.261937 79.600766 
L 43.46726 81.195349 
L 44.672583 73.951403 
L 45.877905 49.452608 
L 47.083228 50.045403 
L 48.288551 51.994016 
L 49.493874 51.842832 
L 50.699197 54.904835 
L 51.90452 57.515991 
L 53.109842 57.530664 
L 54.315165 58.008149 
L 55.520488 57.681434 
L 56.725811 58.872017 
L 57.931134 60.75543 
L 59.136457 60.413034 
L 60.341779 62.063338 
L 61.547102 54.621044 
L 62.752425 56.378835 
L 63.957748 51.232789 
L 65.163071 52.787118 
L 66.368394 50.973544 
L 67.573716 50.506767 
L 68.779039 51.636941 
L 69.984362 49.559888 
L 71.189685 49.923164 
L 72.395008 51.312767 
L 73.600331 49.503258 
L 74.805653 50.458922 
L 76.010976 49.693164 
L 77.216299 41.86408 
L 78.421622 29.944243 
L 79.626945 31.171568 
L 80.832268 30.510703 
L 82.03759 32.151709 
L 83.242913 33.48353 
L 84.448236 33.471827 
L 85.653559 29.675601 
L 86.858882 30.659665 
L 90.47485 34.365031 
L 91.680173 33.847994 
L 92.885496 34.621725 
L 95.296142 36.977654 
L 96.501464 33.937635 
L 97.706787 33.710295 
L 98.91211 34.648967 
L 100.117433 34.386427 
L 101.322756 33.595559 
L 102.528079 34.277315 
L 103.733401 34.094832 
L 104.938724 34.535469 
L 106.144047 31.396703 
L 107.34937 31.278126 
L 108.554693 31.51015 
L 109.760016 30.673316 
L 110.965338 29.319879 
L 112.170661 29.95833 
L 113.375984 30.06113 
L 114.581307 30.954154 
L 115.78663 28.951798 
L 118.197275 30.548753 
L 119.402598 30.785391 
L 120.607921 29.077411 
L 123.018567 30.469539 
L 125.429212 31.403341 
L 126.634535 31.217954 
L 127.839858 32.0601 
L 130.250504 33.227322 
L 131.455826 31.760712 
L 132.661149 32.361663 
L 133.866472 32.743824 
L 135.071795 32.076741 
L 136.277118 32.538314 
L 137.482441 31.848394 
L 138.687763 32.296285 
L 139.893086 32.963915 
L 141.098409 33.070569 
L 142.303732 33.634758 
L 143.509055 33.798789 
L 144.714378 34.173314 
L 145.9197 33.910774 
L 147.125023 29.7114 
L 149.535669 30.97506 
L 150.740992 29.049315 
L 151.946315 29.61342 
L 154.35696 29.134313 
L 156.767606 30.320404 
L 157.972929 30.397587 
L 159.178252 30.861122 
L 160.383574 27.195027 
L 161.588897 27.09875 
L 162.79422 20.345199 
L 163.999543 21.053607 
L 165.204866 21.596787 
L 166.410189 21.013751 
L 167.615511 21.636907 
L 168.820834 22.023408 
L 170.026157 22.672817 
L 171.23148 21.533117 
L 172.436803 22.11295 
L 173.642126 21.266721 
L 174.847448 21.665463 
L 177.258094 22.848076 
L 179.66874 23.373098 
L 184.490031 25.578431 
L 186.900677 26.303506 
L 188.106 26.83937 
L 189.311322 26.069889 
L 191.721968 27.105801 
L 192.927291 26.392502 
L 194.132614 26.851226 
L 195.337937 26.381485 
L 196.543259 26.318329 
L 197.748582 26.41264 
L 201.364551 27.865133 
L 202.569873 28.217992 
L 204.980519 29.090073 
L 206.185842 29.257569 
L 209.80181 30.136541 
L 212.212456 30.072209 
L 213.417779 30.330348 
L 214.623102 30.31554 
L 219.444393 32.012597 
L 221.855039 32.704818 
L 223.060362 32.465346 
L 224.265684 31.714837 
L 227.881653 32.709659 
L 229.086976 31.921138 
L 230.292299 31.549098 
L 231.497621 31.90281 
L 232.702944 31.945894 
L 233.908267 31.241115 
L 235.11359 31.6231 
L 236.318913 31.6123 
L 238.729558 31.351954 
L 239.934881 31.58744 
L 243.55085 32.621555 
L 244.756173 32.884453 
L 245.961495 33.021641 
L 247.166818 33.380371 
L 248.372141 33.098934 
L 251.98811 34.069559 
L 254.398755 33.664708 
L 255.604078 32.132279 
L 256.809401 31.870505 
L 258.014724 31.896456 
L 259.220047 32.234487 
L 261.630692 31.784316 
L 262.836015 32.121096 
L 266.451984 32.554845 
L 267.657306 32.322892 
L 268.862629 32.651976 
L 270.067952 31.333072 
L 271.273275 31.66639 
L 272.478598 31.429819 
L 276.094566 32.373485 
L 277.299889 32.44765 
L 278.505212 32.760312 
L 279.710535 32.789037 
L 280.915858 32.997114 
L 282.12118 32.139881 
L 283.326503 31.739918 
L 284.531826 32.043417 
L 285.737149 31.46896 
L 286.942472 31.78062 
L 288.147794 31.100107 
L 289.353117 31.396279 
L 290.55844 30.313356 
L 295.379731 31.236214 
L 296.585054 30.177837 
L 300.201023 30.889976 
L 301.406346 30.451476 
L 302.611668 26.698191 
L 303.816991 26.770459 
L 305.022314 26.649098 
L 307.43296 27.212427 
L 315.87022 28.6152 
L 318.280865 28.03081 
L 320.691511 28.357568 
L 321.896834 28.572215 
L 323.102157 28.046925 
L 324.307479 28.272151 
L 325.512802 28.16452 
L 327.923448 28.724907 
L 329.128771 28.365494 
L 330.334094 28.173003 
L 331.539416 28.451655 
L 332.744739 25.845538 
L 333.950062 26.065947 
L 335.155385 25.572312 
L 336.360708 25.698945 
L 337.566031 25.579406 
L 338.771353 25.071285 
L 339.976676 24.940989 
L 341.181999 25.119886 
L 342.387322 23.29695 
L 343.592645 23.231529 
L 344.797968 23.478424 
L 346.00329 23.526268 
L 347.208613 23.14896 
L 348.413936 22.994783 
L 349.619259 23.004355 
L 350.824582 22.70402 
L 352.029905 22.528779 
L 353.235227 22.808334 
L 354.44055 22.954735 
L 355.645873 22.963916 
L 359.261842 23.700927 
L 364.083133 24.182678 
L 366.493778 24.636108 
L 367.699101 23.264769 
L 368.904424 23.460936 
L 370.109747 23.472033 
L 371.31507 23.734572 
L 372.520393 23.844893 
L 373.725715 24.100341 
L 374.931038 24.012576 
L 376.136361 23.748808 
L 377.341684 23.68885 
L 378.547007 22.925289 
L 379.75233 22.977458 
L 380.957652 23.22669 
L 382.162975 22.876892 
L 385.778944 23.556874 
L 386.984267 23.558085 
L 388.189589 23.771681 
L 389.394912 23.819329 
L 390.600235 23.268917 
L 391.805558 23.29115 
L 393.010881 23.436157 
L 394.216204 22.932226 
L 395.421526 23.062788 
L 396.626849 22.743615 
L 397.832172 22.775445 
L 400.242818 23.185229 
L 401.448141 23.082391 
L 402.653463 23.323434 
L 403.858786 22.364217 
L 405.064109 22.601424 
L 406.269432 22.442307 
L 408.680078 22.754 
L 409.8854 21.293479 
L 412.296046 21.715691 
L 413.501369 21.671412 
L 415.912015 21.08882 
L 417.117337 21.232021 
L 418.32266 20.941786 
L 420.733306 21.10487 
L 421.938629 20.975685 
L 423.143952 21.208455 
L 424.349274 21.190868 
L 425.554597 19.314871 
L 427.965243 18.390446 
L 429.170566 18.579628 
L 431.581211 18.708033 
L 432.786534 17.875029 
L 433.991857 18.089031 
L 436.402503 17.917149 
L 437.607826 17.510521 
L 438.813148 17.587666 
L 441.223794 18.010229 
L 443.63444 17.856698 
L 448.455731 18.675534 
L 449.661054 18.46635 
L 452.071699 18.868333 
L 453.277022 18.795746 
L 456.892991 19.367292 
L 458.098314 19.449032 
L 459.303636 19.347262 
L 461.714282 19.707893 
L 464.124928 19.975661 
L 465.330251 19.091463 
L 467.740896 19.351492 
L 470.151542 19.423736 
L 471.356865 19.584308 
L 472.562188 19.040886 
L 473.76751 19.252188 
L 474.972833 18.807452 
L 477.383479 18.632884 
L 478.588802 17.26513 
L 480.999447 17.214807 
L 485.820739 17.666601 
L 487.026062 17.684535 
L 489.436707 17.213768 
L 490.64203 17.403699 
L 491.847353 16.851903 
L 494.257999 16.716822 
L 495.463321 16.889806 
L 497.873967 16.654021 
L 499.07929 16.400989 
L 502.695258 16.989829 
L 503.900581 16.719808 
L 506.311227 17.115284 
L 509.927195 17.111104 
L 511.132518 17.096883 
L 512.337841 16.207829 
L 513.543164 15.829717 
L 515.95381 16.166667 
L 515.95381 16.166667 
" clip-path="url(#p53a067eb79)" style="fill: none; stroke-dasharray: 5.55,2.4; stroke-dashoffset: 0; stroke: #ff8c00; stroke-width: 1.5"/>
   </g>
   <g id="patch_3">
    <path d="M 35.03 97 
L 35.03 0 
" style="fill: none; stroke: #000000; stroke-width: 0.8; stroke-linejoin: miter; stroke-linecap: square"/>
   </g>
   <g id="patch_4">
    <path d="M 540 97 
L 540 0 
" style="fill: none; stroke: #000000; stroke-width: 0.8; stroke-linejoin: miter; stroke-linecap: square"/>
   </g>
   <g id="patch_5">
    <path d="M 35.03 97 
L 540 97 
" style="fill: none; stroke: #000000; stroke-width: 0.8; stroke-linejoin: miter; stroke-linecap: square"/>
   </g>
   <g id="patch_6">
    <path d="M 35.03 0 
L 540 0 
" style="fill: none; stroke: #000000; stroke-width: 0.8; stroke-linejoin: miter; stroke-linecap: square"/>
   </g>
  </g>
 </g>
 <defs>
  <clipPath id="p53a067eb79">
   <rect x="35.03" y="0" width="504.97" height="97"/>
  </clipPath>
 </defs>
</svg>
