<?xml version="1.0" encoding="utf-8" standalone="no"?>
<!DOCTYPE svg PUBLIC "-//W3C//DTD SVG 1.1//EN"
  "http://www.w3.org/Graphics/SVG/1.1/DTD/svg11.dtd">
<svg xmlns:xlink="http://www.w3.org/1999/xlink" width="540pt" height="129.6pt" viewBox="0 0 540 129.6" xmlns="http://www.w3.org/2000/svg" version="1.1">
 <metadata>
  <rdf:RDF xmlns:dc="http://purl.org/dc/elements/1.1/" xmlns:cc="http://creativecommons.org/ns#" xmlns:rdf="http://www.w3.org/1999/02/22-rdf-syntax-ns#">
   <cc:Work>
    <dc:type rdf:resource="http://purl.org/dc/dcmitype/StillImage"/>
    <dc:date>2025-04-06T03:19:57.044178</dc:date>
    <dc:format>image/svg+xml</dc:format>
    <dc:creator>
     <cc:Agent>
      <dc:title>Matplotlib v3.10.1, https://matplotlib.org/</dc:title>
     </cc:Agent>
    </dc:creator>
   </cc:Work>
  </rdf:RDF>
 </metadata>
 <defs>
  <style type="text/css">*{stroke-linejoin: round; stroke-linecap: butt}</style>
 </defs>
 <g id="figure_1">
  <g id="patch_1">
   <path d="M 0 129.6 
L 540 129.6 
L 540 0 
L 0 0 
z
" style="fill: #ffffff"/>
  </g>
  <g id="axes_1">
   <g id="patch_2">
    <path d="M 34.31 98.44 
L 540 98.44 
L 540 0 
L 34.31 0 
z
" style="fill: #ffffff"/>
   </g>
   <g id="matplotlib.axis_1">
    <g id="xtick_1">
     <g id="line2d_1">
      <path d="M 34.31 98.44 
L 34.31 0 
" clip-path="url(#p111adda7b2)" style="fill: none; stroke: #b0b0b0; stroke-width: 0.8; stroke-linecap: square"/>
     </g>
     <g id="line2d_2">
      <defs>
       <path id="m58248feec9" d="M 0 0 
L 0 3.5 
" style="stroke: #000000; stroke-width: 0.8"/>
      </defs>
      <g>
       <use xlink:href="#m58248feec9" x="34.31" y="98.44" style="stroke: #000000; stroke-width: 0.8"/>
      </g>
     </g>
     <g id="text_1">
      <text style="font-size: 10px; font-family: 'Times New Roman'; text-anchor: middle" x="34.31" y="112.38375" transform="rotate(-0 34.31 112.38375)">0</text>
     </g>
    </g>
    <g id="xtick_2">
     <g id="line2d_3">
      <path d="M 94.662071 98.44 
L 94.662071 0 
" clip-path="url(#p111adda7b2)" style="fill: none; stroke: #b0b0b0; stroke-width: 0.8; stroke-linecap: square"/>
     </g>
     <g id="line2d_4">
      <g>
       <use xlink:href="#m58248feec9" x="94.662071" y="98.44" style="stroke: #000000; stroke-width: 0.8"/>
      </g>
     </g>
     <g id="text_2">
      <text style="font-size: 10px; font-family: 'Times New Roman'; text-anchor: middle" x="94.662071" y="112.38375" transform="rotate(-0 94.662071 112.38375)">50</text>
     </g>
    </g>
    <g id="xtick_3">
     <g id="line2d_5">
      <path d="M 155.014141 98.44 
L 155.014141 0 
" clip-path="url(#p111adda7b2)" style="fill: none; stroke: #b0b0b0; stroke-width: 0.8; stroke-linecap: square"/>
     </g>
     <g id="line2d_6">
      <g>
       <use xlink:href="#m58248feec9" x="155.014141" y="98.44" style="stroke: #000000; stroke-width: 0.8"/>
      </g>
     </g>
     <g id="text_3">
      <text style="font-size: 10px; font-family: 'Times New Roman'; text-anchor: middle" x="155.014141" y="112.38375" transform="rotate(-0 155.014141 112.38375)">100</text>
     </g>
    </g>
    <g id="xtick_4">
     <g id="line2d_7">
      <path d="M 215.366212 98.44 
L 215.366212 0 
" clip-path="url(#p111adda7b2)" style="fill: none; stroke: #b0b0b0; stroke-width: 0.8; stroke-linecap: square"/>
     </g>
     <g id="line2d_8">
      <g>
       <use xlink:href="#m58248feec9" x="215.366212" y="98.44" style="stroke: #000000; stroke-width: 0.8"/>
      </g>
     </g>
     <g id="text_4">
      <text style="font-size: 10px; font-family: 'Times New Roman'; text-anchor: middle" x="215.366212" y="112.38375" transform="rotate(-0 215.366212 112.38375)">150</text>
     </g>
    </g>
    <g id="xtick_5">
     <g id="line2d_9">
      <path d="M 275.718283 98.44 
L 275.718283 0 
" clip-path="url(#p111adda7b2)" style="fill: none; stroke: #b0b0b0; stroke-width: 0.8; stroke-linecap: square"/>
     </g>
     <g id="line2d_10">
      <g>
       <use xlink:href="#m58248feec9" x="275.718283" y="98.44" style="stroke: #000000; stroke-width: 0.8"/>
      </g>
     </g>
     <g id="text_5">
      <text style="font-size: 10px; font-family: 'Times New Roman'; text-anchor: middle" x="275.718283" y="112.38375" transform="rotate(-0 275.718283 112.38375)">200</text>
     </g>
    </g>
    <g id="xtick_6">
     <g id="line2d_11">
      <path d="M 336.070353 98.44 
L 336.070353 0 
" clip-path="url(#p111adda7b2)" style="fill: none; stroke: #b0b0b0; stroke-width: 0.8; stroke-linecap: square"/>
     </g>
     <g id="line2d_12">
      <g>
       <use xlink:href="#m58248feec9" x="336.070353" y="98.44" style="stroke: #000000; stroke-width: 0.8"/>
      </g>
     </g>
     <g id="text_6">
      <text style="font-size: 10px; font-family: 'Times New Roman'; text-anchor: middle" x="336.070353" y="112.38375" transform="rotate(-0 336.070353 112.38375)">250</text>
     </g>
    </g>
    <g id="xtick_7">
     <g id="line2d_13">
      <path d="M 396.422424 98.44 
L 396.422424 0 
" clip-path="url(#p111adda7b2)" style="fill: none; stroke: #b0b0b0; stroke-width: 0.8; stroke-linecap: square"/>
     </g>
     <g id="line2d_14">
      <g>
       <use xlink:href="#m58248feec9" x="396.422424" y="98.44" style="stroke: #000000; stroke-width: 0.8"/>
      </g>
     </g>
     <g id="text_7">
      <text style="font-size: 10px; font-family: 'Times New Roman'; text-anchor: middle" x="396.422424" y="112.38375" transform="rotate(-0 396.422424 112.38375)">300</text>
     </g>
    </g>
    <g id="xtick_8">
     <g id="line2d_15">
      <path d="M 456.774495 98.44 
L 456.774495 0 
" clip-path="url(#p111adda7b2)" style="fill: none; stroke: #b0b0b0; stroke-width: 0.8; stroke-linecap: square"/>
     </g>
     <g id="line2d_16">
      <g>
       <use xlink:href="#m58248feec9" x="456.774495" y="98.44" style="stroke: #000000; stroke-width: 0.8"/>
      </g>
     </g>
     <g id="text_8">
      <text style="font-size: 10px; font-family: 'Times New Roman'; text-anchor: middle" x="456.774495" y="112.38375" transform="rotate(-0 456.774495 112.38375)">350</text>
     </g>
    </g>
    <g id="xtick_9">
     <g id="line2d_17">
      <path d="M 517.126565 98.44 
L 517.126565 0 
" clip-path="url(#p111adda7b2)" style="fill: none; stroke: #b0b0b0; stroke-width: 0.8; stroke-linecap: square"/>
     </g>
     <g id="line2d_18">
      <g>
       <use xlink:href="#m58248feec9" x="517.126565" y="98.44" style="stroke: #000000; stroke-width: 0.8"/>
      </g>
     </g>
     <g id="text_9">
      <text style="font-size: 10px; font-family: 'Times New Roman'; text-anchor: middle" x="517.126565" y="112.38375" transform="rotate(-0 517.126565 112.38375)">400</text>
     </g>
    </g>
    <g id="text_10">
     <text style="font-size: 12px; font-family: 'Times New Roman'; text-anchor: middle" x="287.155" y="126.855312" transform="rotate(-0 287.155 126.855312)">Simulation Run</text>
    </g>
   </g>
   <g id="matplotlib.axis_2">
    <g id="ytick_1">
     <g id="line2d_19">
      <path d="M 34.31 98.44 
L 540 98.44 
" clip-path="url(#p111adda7b2)" style="fill: none; stroke: #b0b0b0; stroke-width: 0.8; stroke-linecap: square"/>
     </g>
     <g id="line2d_20">
      <defs>
       <path id="mb8767c8820" d="M 0 0 
L -3.5 0 
" style="stroke: #000000; stroke-width: 0.8"/>
      </defs>
      <g>
       <use xlink:href="#mb8767c8820" x="34.31" y="98.44" style="stroke: #000000; stroke-width: 0.8"/>
      </g>
     </g>
     <g id="text_11">
      <text style="font-size: 10px; font-family: 'Times New Roman'; text-anchor: end" x="27.31" y="101.911875" transform="rotate(-0 27.31 101.911875)">0.0</text>
     </g>
    </g>
    <g id="ytick_2">
     <g id="line2d_21">
      <path d="M 34.31 60.578462 
L 540 60.578462 
" clip-path="url(#p111adda7b2)" style="fill: none; stroke: #b0b0b0; stroke-width: 0.8; stroke-linecap: square"/>
     </g>
     <g id="line2d_22">
      <g>
       <use xlink:href="#mb8767c8820" x="34.31" y="60.578462" style="stroke: #000000; stroke-width: 0.8"/>
      </g>
     </g>
     <g id="text_12">
      <text style="font-size: 10px; font-family: 'Times New Roman'; text-anchor: end" x="27.31" y="64.050337" transform="rotate(-0 27.31 64.050337)">0.5</text>
     </g>
    </g>
    <g id="ytick_3">
     <g id="line2d_23">
      <path d="M 34.31 22.716923 
L 540 22.716923 
" clip-path="url(#p111adda7b2)" style="fill: none; stroke: #b0b0b0; stroke-width: 0.8; stroke-linecap: square"/>
     </g>
     <g id="line2d_24">
      <g>
       <use xlink:href="#mb8767c8820" x="34.31" y="22.716923" style="stroke: #000000; stroke-width: 0.8"/>
      </g>
     </g>
     <g id="text_13">
      <text style="font-size: 10px; font-family: 'Times New Roman'; text-anchor: end" x="27.31" y="26.188798" transform="rotate(-0 27.31 26.188798)">1.0</text>
     </g>
    </g>
    <g id="text_14">
     <text style="font-size: 12px; font-family: 'Times New Roman'; text-anchor: middle" x="8.243125" y="49.22" transform="rotate(-90 8.243125 49.22)">Normalized Value</text>
    </g>
   </g>
   <g id="line2d_25">
    <path d="M 34.31 18.109635 
L 35.517041 23.912692 
L 36.724083 19.599601 
L 37.931124 19.366984 
L 39.138166 22.957354 
L 40.345207 25.202749 
L 41.552248 22.833806 
L 42.75929 18.002891 
L 43.966331 20.212776 
L 46.380414 20.55904 
L 47.587456 21.125824 
L 48.794497 22.778601 
L 50.001538 23.065139 
L 51.20858 22.994316 
L 52.415621 23.058507 
L 53.622663 19.870378 
L 54.829704 20.939879 
L 56.036745 21.234727 
L 57.243787 20.681128 
L 58.450828 19.318347 
L 59.65787 19.392362 
L 60.864911 19.999625 
L 62.071953 19.906987 
L 63.278994 21.357157 
L 64.486035 20.685679 
L 66.900118 20.399471 
L 68.10716 19.771657 
L 69.314201 20.854781 
L 71.728284 20.95103 
L 72.935325 20.724323 
L 74.142367 21.115094 
L 75.349408 19.735265 
L 76.556449 19.38801 
L 77.763491 19.690748 
L 78.970532 19.817736 
L 80.177574 19.727788 
L 82.591657 19.970791 
L 83.798698 19.630421 
L 85.005739 19.977783 
L 86.212781 18.719873 
L 88.626864 19.057842 
L 89.833905 19.149955 
L 91.040946 19.440844 
L 92.247988 19.925362 
L 93.455029 19.961901 
L 94.662071 19.761746 
L 95.869112 19.929609 
L 97.076153 20.582512 
L 98.283195 20.92573 
L 99.490236 20.762359 
L 100.697278 20.775689 
L 101.904319 19.994182 
L 103.111361 19.533723 
L 105.525443 20.121726 
L 106.732485 20.156459 
L 107.939526 20.373483 
L 109.146568 20.909056 
L 110.353609 21.28375 
L 111.56065 21.439681 
L 113.974733 22.253335 
L 115.181775 22.587079 
L 116.388816 22.489058 
L 117.595858 22.595446 
L 120.00994 22.585613 
L 121.216982 22.417664 
L 122.424023 22.873731 
L 123.631065 23.045837 
L 124.838106 22.87844 
L 126.045147 22.831215 
L 127.252189 23.024539 
L 129.666272 22.748536 
L 132.080354 23.537531 
L 133.287396 23.657932 
L 134.494437 23.516484 
L 135.701479 22.967898 
L 136.90852 22.76618 
L 138.115562 22.072718 
L 139.322603 22.054248 
L 140.529644 22.188558 
L 144.150769 21.871742 
L 145.35781 21.752622 
L 146.564851 21.932897 
L 147.771893 22.305945 
L 148.978934 22.423484 
L 150.185976 22.047683 
L 151.393017 22.183789 
L 153.8071 22.114385 
L 155.014141 22.150079 
L 156.221183 21.992791 
L 157.428224 21.977731 
L 158.635266 22.095001 
L 159.842307 22.348331 
L 164.670473 22.383213 
L 165.877514 22.82144 
L 167.084555 22.647295 
L 169.498638 23.070846 
L 171.912721 23.327491 
L 173.119763 23.303417 
L 174.326804 23.015443 
L 175.533845 22.918131 
L 182.776094 23.515147 
L 183.983135 23.290127 
L 190.018342 23.886849 
L 191.225384 24.159861 
L 196.053549 23.966446 
L 197.260591 24.216877 
L 198.467632 24.180498 
L 202.088756 23.653471 
L 204.502839 23.58726 
L 206.916922 23.919057 
L 209.331005 23.863844 
L 211.745088 24.017778 
L 215.366212 23.957737 
L 218.987336 23.341077 
L 221.401419 23.716985 
L 228.643668 23.855505 
L 229.850709 23.734162 
L 231.05775 23.862075 
L 233.471833 23.485606 
L 237.092957 23.449972 
L 238.299999 23.35163 
L 243.128164 23.711748 
L 245.542247 23.771118 
L 246.749289 23.603929 
L 247.95633 23.252142 
L 249.163372 23.297689 
L 250.370413 23.511832 
L 251.577454 23.472152 
L 255.198579 23.730766 
L 261.233786 23.795188 
L 267.268993 23.380491 
L 268.476034 23.533994 
L 275.718283 23.487552 
L 279.339407 23.637067 
L 280.546448 23.559753 
L 284.167573 23.82123 
L 286.581655 23.542627 
L 287.788697 23.659921 
L 291.409821 23.693855 
L 293.823904 23.680338 
L 295.030945 23.58468 
L 297.445028 23.81511 
L 298.652069 23.836038 
L 301.066152 23.608962 
L 302.273194 23.695966 
L 305.894318 23.382949 
L 307.101359 23.241786 
L 309.515442 23.343182 
L 310.722484 23.085459 
L 314.343608 23.200933 
L 316.757691 23.131994 
L 319.171773 23.082454 
L 323.999939 23.30481 
L 325.206981 23.060411 
L 333.65627 22.956177 
L 334.863312 23.060056 
L 336.070353 22.796234 
L 338.484436 22.935475 
L 348.140767 22.762195 
L 352.968933 22.911921 
L 354.175974 22.86421 
L 360.211182 23.135833 
L 362.625264 23.043645 
L 363.832306 22.81918 
L 365.039347 22.912074 
L 366.246389 22.843813 
L 374.695678 23.241326 
L 375.90272 23.374944 
L 377.109761 23.217497 
L 378.316803 23.223482 
L 379.523844 23.052098 
L 403.664672 23.170379 
L 404.871714 23.07644 
L 409.699879 23.099532 
L 413.321004 22.983435 
L 414.528045 22.894309 
L 415.735087 23.015361 
L 432.633666 22.870082 
L 433.840708 22.701487 
L 435.047749 22.787314 
L 438.668873 22.69568 
L 442.289998 22.805361 
L 444.70408 22.83031 
L 445.911122 22.710664 
L 451.946329 22.909872 
L 454.360412 22.590529 
L 457.981536 22.493255 
L 460.395619 22.562647 
L 461.60266 22.560341 
L 464.016743 22.26078 
L 466.430826 22.414518 
L 467.637867 22.443553 
L 468.844909 22.294672 
L 472.466033 22.457782 
L 478.50124 22.638827 
L 480.915323 22.66317 
L 483.329406 22.628463 
L 488.157571 22.713421 
L 490.571654 22.696604 
L 494.192778 22.681796 
L 496.606861 22.70042 
L 499.020944 22.589324 
L 502.642068 22.588307 
L 508.677275 22.81475 
L 512.2984 22.744829 
L 515.919524 22.716923 
L 515.919524 22.716923 
" clip-path="url(#p111adda7b2)" style="fill: none; stroke: #4169e1; stroke-width: 1.5; stroke-linecap: square"/>
   </g>
   <g id="line2d_26">
    <path d="M 34.31 98.44 
L 35.517041 92.873752 
L 36.724083 88.579436 
L 37.931124 91.017745 
L 39.138166 83.979298 
L 40.345207 82.222599 
L 41.552248 78.973804 
L 42.75929 54.404476 
L 43.966331 52.839608 
L 45.173373 57.371055 
L 46.380414 61.03334 
L 47.587456 63.566476 
L 48.794497 60.830812 
L 51.20858 65.669101 
L 52.415621 67.707066 
L 53.622663 42.634175 
L 54.829704 42.520392 
L 56.036745 45.204876 
L 57.243787 46.904147 
L 58.450828 43.218766 
L 59.65787 45.709806 
L 60.864911 46.661433 
L 62.071953 48.786248 
L 63.278994 42.429867 
L 64.486035 42.720933 
L 66.900118 46.523239 
L 68.10716 46.489285 
L 69.314201 42.597522 
L 71.728284 46.063004 
L 72.935325 47.378335 
L 74.142367 48.047222 
L 75.349408 38.78715 
L 77.763491 40.787508 
L 81.384615 44.875965 
L 82.591657 46.081755 
L 85.005739 46.912513 
L 86.212781 36.837123 
L 87.419822 37.857846 
L 89.833905 40.267945 
L 91.040946 40.822506 
L 92.247988 40.135813 
L 93.455029 41.291084 
L 95.869112 42.926858 
L 97.076153 40.31033 
L 98.283195 40.354836 
L 99.490236 41.1727 
L 100.697278 42.193715 
L 101.904319 37.527183 
L 103.111361 36.579814 
L 104.318402 36.997762 
L 105.525443 36.949817 
L 106.732485 37.945888 
L 107.939526 38.446708 
L 109.146568 36.459452 
L 110.353609 35.965914 
L 111.56065 36.66984 
L 112.767692 35.536658 
L 113.974733 34.942951 
L 115.181775 34.643196 
L 120.00994 37.956866 
L 121.216982 38.449715 
L 122.424023 36.75065 
L 124.838106 37.669138 
L 126.045147 38.430354 
L 128.45923 39.079906 
L 129.666272 39.6917 
L 130.873313 37.747335 
L 132.080354 36.942748 
L 134.494437 37.93834 
L 135.701479 34.471646 
L 136.90852 34.64378 
L 138.115562 28.54123 
L 139.322603 29.330628 
L 141.736686 30.321846 
L 142.943727 30.435124 
L 144.150769 31.161623 
L 145.35781 31.669269 
L 146.564851 31.880018 
L 147.771893 30.41839 
L 148.978934 30.910012 
L 150.185976 29.365229 
L 151.393017 29.773059 
L 153.8071 31.042474 
L 155.014141 31.688717 
L 156.221183 31.930127 
L 157.428224 32.57203 
L 158.635266 32.971244 
L 159.842307 32.491546 
L 161.049348 33.112305 
L 164.670473 34.69421 
L 165.877514 31.81374 
L 167.084555 31.862581 
L 168.291597 31.138655 
L 169.498638 31.286656 
L 171.912721 31.837892 
L 173.119763 32.401032 
L 174.326804 31.375403 
L 176.740887 32.161607 
L 179.15497 33.156181 
L 180.362011 33.460431 
L 181.569052 33.370917 
L 182.776094 33.414453 
L 183.983135 32.896856 
L 185.190177 33.117451 
L 186.397218 32.544778 
L 187.604259 33.023734 
L 188.811301 33.339504 
L 190.018342 33.037158 
L 191.225384 31.934811 
L 193.639467 32.850668 
L 194.846508 32.221273 
L 196.053549 32.674709 
L 197.260591 31.758829 
L 198.467632 32.215804 
L 200.881715 31.375599 
L 202.088756 31.471335 
L 204.502839 32.355419 
L 206.916922 31.981156 
L 209.331005 32.818219 
L 210.538046 32.940954 
L 212.952129 33.784988 
L 214.159171 33.936512 
L 215.366212 34.314003 
L 216.573253 33.708223 
L 217.780295 31.822687 
L 218.987336 31.945833 
L 220.194378 31.058102 
L 221.401419 30.925282 
L 223.815502 31.729026 
L 226.229585 30.994071 
L 227.436626 31.337518 
L 229.850709 31.464112 
L 231.05775 31.431674 
L 232.264792 30.521687 
L 233.471833 30.266037 
L 237.092957 31.372302 
L 239.50704 31.570182 
L 240.714082 31.550051 
L 244.335206 32.38995 
L 245.542247 32.75803 
L 246.749289 32.315954 
L 247.95633 29.066817 
L 249.163372 29.393341 
L 250.370413 28.420152 
L 251.577454 28.760157 
L 252.784496 28.837065 
L 253.991537 28.701154 
L 257.612661 29.780661 
L 258.819703 29.34596 
L 260.026744 29.385128 
L 261.233786 29.733487 
L 262.440827 29.939811 
L 263.647868 29.97689 
L 264.85491 30.313819 
L 266.061951 30.497701 
L 268.476034 29.771116 
L 269.683076 30.105886 
L 270.890117 29.880156 
L 273.3042 30.537202 
L 274.511241 30.643458 
L 275.718283 30.980451 
L 276.925324 31.139326 
L 278.132365 31.448834 
L 279.339407 31.423984 
L 281.75349 31.704266 
L 282.960531 31.356165 
L 284.167573 31.591897 
L 287.788697 30.735987 
L 288.995738 31.047792 
L 290.20278 31.207437 
L 293.823904 32.077111 
L 295.030945 32.056228 
L 296.237987 31.637961 
L 297.445028 31.660926 
L 298.652069 31.948612 
L 299.859111 31.443066 
L 303.480235 31.65692 
L 304.687277 31.108026 
L 305.894318 31.09868 
L 307.101359 30.65095 
L 309.515442 31.044834 
L 310.722484 28.823708 
L 311.929525 29.01004 
L 313.136566 29.08145 
L 314.343608 29.368322 
L 315.550649 29.388534 
L 316.757691 29.673008 
L 317.964732 29.777374 
L 322.792898 30.835392 
L 323.999939 29.663642 
L 325.206981 27.568451 
L 326.414022 27.848002 
L 327.621063 27.513577 
L 328.828105 27.669897 
L 333.65627 28.655467 
L 334.863312 28.490481 
L 336.070353 25.893019 
L 337.277395 25.772508 
L 342.10556 26.701119 
L 343.312602 25.588727 
L 351.761892 27.188498 
L 352.968933 27.226639 
L 354.175974 27.394651 
L 355.383016 27.447229 
L 356.590057 27.224238 
L 359.00414 27.72392 
L 360.211182 27.712326 
L 361.418223 27.968523 
L 362.625264 27.764057 
L 363.832306 25.748422 
L 365.039347 25.621934 
L 367.45343 25.829487 
L 368.660471 25.934461 
L 369.867513 25.662868 
L 371.074554 25.658488 
L 372.281596 25.828044 
L 373.488637 25.590699 
L 374.695678 25.571572 
L 375.90272 24.992995 
L 377.109761 24.08702 
L 378.316803 24.345309 
L 379.523844 23.214956 
L 381.937927 23.714675 
L 383.144968 23.764566 
L 384.35201 23.627551 
L 387.973134 24.20084 
L 389.180175 23.711468 
L 391.594258 24.034789 
L 392.8013 23.891548 
L 396.422424 24.468036 
L 398.836507 24.810823 
L 400.043548 24.693705 
L 402.457631 25.007706 
L 403.664672 25.245256 
L 404.871714 25.035107 
L 406.078755 25.235756 
L 407.285797 25.151732 
L 408.492838 25.365463 
L 409.699879 25.046967 
L 410.906921 25.265208 
L 412.113962 25.291964 
L 413.321004 25.459851 
L 414.528045 25.277213 
L 415.735087 24.742616 
L 418.149169 25.193923 
L 419.356211 25.066275 
L 420.563252 24.350389 
L 421.770294 24.567939 
L 424.184376 24.671839 
L 425.391418 24.898695 
L 427.805501 25.109373 
L 432.633666 25.734189 
L 433.840708 24.398051 
L 435.047749 24.216161 
L 437.461832 24.267524 
L 439.875915 24.664846 
L 441.082956 24.601227 
L 444.70408 25.097132 
L 445.911122 24.50472 
L 447.118163 24.583026 
L 450.739288 25.110108 
L 451.946329 24.77523 
L 453.15337 23.034126 
L 454.360412 22.204575 
L 456.774495 22.409247 
L 457.981536 22.191288 
L 459.188577 22.159839 
L 461.60266 22.58826 
L 462.809702 21.194775 
L 464.016743 20.353052 
L 465.223784 19.902747 
L 467.637867 20.156975 
L 468.844909 19.054863 
L 470.05195 18.812759 
L 471.258992 18.815585 
L 473.673074 19.221494 
L 474.880116 19.26562 
L 476.087157 19.053377 
L 478.50124 19.446358 
L 479.708281 19.424778 
L 484.536447 19.997471 
L 485.743488 20.203362 
L 486.95053 20.263261 
L 488.157571 20.461637 
L 490.571654 20.512866 
L 495.39982 21.216418 
L 496.606861 21.417427 
L 497.813903 21.011003 
L 502.642068 21.685669 
L 503.84911 21.672581 
L 505.056151 21.802262 
L 506.263193 21.725392 
L 508.677275 21.936286 
L 509.884317 21.988437 
L 513.505441 22.532574 
L 514.712482 22.567313 
L 515.919524 22.716923 
L 515.919524 22.716923 
" clip-path="url(#p111adda7b2)" style="fill: none; stroke-dasharray: 5.55,2.4; stroke-dashoffset: 0; stroke: #4169e1; stroke-width: 1.5"/>
   </g>
   <g id="line2d_27">
    <path d="M 34.31 9.898955 
L 35.517041 18.288954 
L 36.724083 14.582539 
L 37.931124 16.214998 
L 39.138166 19.709111 
L 40.345207 20.628477 
L 41.552248 19.784234 
L 42.75929 18.350054 
L 43.966331 20.417147 
L 45.173373 20.699492 
L 46.380414 21.355225 
L 47.587456 21.519777 
L 48.794497 22.733148 
L 50.001538 23.378726 
L 51.20858 22.482873 
L 52.415621 22.76225 
L 53.622663 20.236834 
L 54.829704 20.883843 
L 56.036745 21.043568 
L 57.243787 20.71711 
L 58.450828 19.798406 
L 59.65787 19.761634 
L 60.864911 20.240582 
L 62.071953 20.022004 
L 63.278994 21.130833 
L 64.486035 20.590703 
L 65.693077 20.640857 
L 68.10716 19.774018 
L 69.314201 20.527755 
L 70.521242 20.521439 
L 71.728284 20.757842 
L 72.935325 20.473246 
L 74.142367 20.918028 
L 75.349408 19.995844 
L 76.556449 19.813371 
L 78.970532 20.052187 
L 80.177574 19.996895 
L 81.384615 20.160058 
L 82.591657 20.16694 
L 83.798698 19.75446 
L 85.005739 19.997878 
L 86.212781 19.233191 
L 88.626864 19.668266 
L 89.833905 19.668497 
L 91.040946 19.8311 
L 92.247988 20.247903 
L 94.662071 20.078823 
L 95.869112 20.272405 
L 97.076153 20.786228 
L 98.283195 20.992062 
L 100.697278 21.04832 
L 101.904319 20.420717 
L 103.111361 20.021314 
L 104.318402 20.102971 
L 105.525443 20.323524 
L 107.939526 20.480073 
L 109.146568 20.849037 
L 112.767692 21.536907 
L 115.181775 22.001774 
L 121.216982 21.787342 
L 122.424023 22.140257 
L 123.631065 22.251268 
L 126.045147 22.252334 
L 127.252189 22.378271 
L 129.666272 22.217216 
L 132.080354 22.987977 
L 133.287396 23.02957 
L 136.90852 22.348611 
L 138.115562 21.930732 
L 139.322603 21.830976 
L 140.529644 21.956925 
L 142.943727 21.627749 
L 146.564851 21.645659 
L 147.771893 21.911586 
L 148.978934 22.033119 
L 150.185976 21.62012 
L 151.393017 21.757212 
L 153.8071 21.709411 
L 156.221183 21.69355 
L 158.635266 21.716528 
L 159.842307 21.937605 
L 162.25639 21.851074 
L 164.670473 21.825432 
L 165.877514 22.160392 
L 167.084555 22.038319 
L 168.291597 22.257585 
L 171.912721 22.500863 
L 174.326804 22.268082 
L 175.533845 22.165189 
L 182.776094 22.645368 
L 183.983135 22.498919 
L 191.225384 23.333407 
L 196.053549 23.246813 
L 197.260591 23.425661 
L 199.674674 23.262097 
L 202.088756 22.909929 
L 204.502839 22.914829 
L 206.916922 23.124693 
L 210.538046 23.170215 
L 216.573253 23.033906 
L 218.987336 22.780247 
L 221.401419 23.058478 
L 223.815502 23.008018 
L 225.022543 23.176196 
L 226.229585 22.977088 
L 231.05775 23.098402 
L 233.471833 22.873394 
L 237.092957 22.826687 
L 238.299999 22.754272 
L 244.335206 23.009429 
L 245.542247 23.01352 
L 246.749289 22.902452 
L 247.95633 22.608654 
L 249.163372 22.644482 
L 250.370413 22.798726 
L 252.784496 22.872109 
L 255.198579 23.021884 
L 257.612661 23.014831 
L 258.819703 23.145151 
L 267.268993 22.823373 
L 268.476034 22.944361 
L 278.132365 22.932712 
L 284.167573 23.134881 
L 286.581655 22.967711 
L 288.995738 23.039853 
L 292.616862 23.122275 
L 296.237987 23.082699 
L 298.652069 23.160984 
L 301.066152 23.033495 
L 302.273194 23.074354 
L 307.101359 22.792209 
L 309.515442 22.88963 
L 310.722484 22.721707 
L 313.136566 22.853776 
L 319.171773 22.875797 
L 323.999939 23.060068 
L 325.206981 22.881888 
L 333.65627 22.759145 
L 334.863312 22.833062 
L 336.070353 22.630904 
L 338.484436 22.750114 
L 351.761892 22.598491 
L 361.418223 22.804325 
L 366.246389 22.597912 
L 373.488637 22.891412 
L 375.90272 23.080354 
L 377.109761 22.93936 
L 378.316803 22.938296 
L 379.523844 22.80675 
L 409.699879 22.934198 
L 418.149169 22.88739 
L 419.356211 22.952128 
L 420.563252 22.841807 
L 430.219583 22.799631 
L 435.047749 22.650144 
L 437.461832 22.598747 
L 444.70408 22.740649 
L 445.911122 22.661489 
L 451.946329 22.851377 
L 454.360412 22.601092 
L 459.188577 22.593026 
L 461.60266 22.615153 
L 464.016743 22.421645 
L 466.430826 22.524729 
L 467.637867 22.540156 
L 468.844909 22.433367 
L 472.466033 22.555465 
L 478.50124 22.665314 
L 480.915323 22.690278 
L 484.536447 22.695022 
L 495.39982 22.669205 
L 515.919524 22.716923 
L 515.919524 22.716923 
" clip-path="url(#p111adda7b2)" style="fill: none; stroke: #ff8c00; stroke-width: 1.5; stroke-linecap: square"/>
   </g>
   <g id="line2d_28">
    <path d="M 34.31 98.44 
L 35.517041 77.988466 
L 36.724083 76.823122 
L 37.931124 79.904564 
L 39.138166 69.42317 
L 40.345207 73.031447 
L 41.552248 75.418763 
L 42.75929 74.113229 
L 43.966331 66.884765 
L 45.173373 69.831838 
L 46.380414 71.18331 
L 47.587456 73.368164 
L 48.794497 70.163774 
L 50.001538 70.609366 
L 51.20858 69.200343 
L 52.415621 70.687668 
L 53.622663 42.672655 
L 54.829704 43.703218 
L 56.036745 46.450681 
L 57.243787 48.46183 
L 58.450828 45.937374 
L 59.65787 48.315607 
L 60.864911 49.028702 
L 62.071953 50.768246 
L 63.278994 44.10192 
L 64.486035 44.072811 
L 65.693077 46.067409 
L 66.900118 46.776542 
L 68.10716 46.667468 
L 69.314201 43.606471 
L 70.521242 45.374947 
L 71.728284 46.529877 
L 72.935325 47.349886 
L 74.142367 46.955784 
L 75.349408 40.026039 
L 78.970532 44.018103 
L 80.177574 45.379784 
L 81.384615 46.404634 
L 82.591657 47.673239 
L 83.798698 46.855253 
L 85.005739 47.331864 
L 86.212781 41.188105 
L 88.626864 42.464929 
L 89.833905 43.655888 
L 91.040946 44.436178 
L 92.247988 43.115575 
L 94.662071 45.081508 
L 95.869112 45.552365 
L 97.076153 42.561527 
L 98.283195 42.943921 
L 100.697278 44.873848 
L 101.904319 39.405054 
L 103.111361 37.781098 
L 104.318402 38.696854 
L 105.525443 38.858739 
L 107.939526 40.56557 
L 109.146568 39.031977 
L 110.353609 39.215389 
L 111.56065 39.934767 
L 112.767692 38.027953 
L 113.974733 37.633588 
L 115.181775 37.710622 
L 120.00994 40.930667 
L 121.216982 41.630925 
L 122.424023 39.757025 
L 123.631065 40.274515 
L 126.045147 41.713904 
L 128.45923 42.510815 
L 129.666272 43.156708 
L 130.873313 39.481118 
L 132.080354 37.515594 
L 133.287396 38.208409 
L 134.494437 37.586687 
L 135.701479 36.028281 
L 136.90852 36.269495 
L 138.115562 32.620946 
L 139.322603 33.117351 
L 140.529644 33.445736 
L 141.736686 32.98264 
L 142.943727 33.355662 
L 144.150769 34.062067 
L 146.564851 34.887927 
L 147.771893 33.625569 
L 148.978934 33.893045 
L 150.185976 29.801057 
L 151.393017 29.97179 
L 157.428224 33.069906 
L 158.635266 33.572135 
L 159.842307 32.713125 
L 161.049348 33.040068 
L 164.670473 34.8119 
L 165.877514 31.837178 
L 167.084555 31.960959 
L 168.291597 31.004035 
L 173.119763 32.510992 
L 174.326804 32.221462 
L 175.533845 32.422748 
L 176.740887 32.797995 
L 177.947928 33.324592 
L 179.15497 33.668549 
L 180.362011 33.853901 
L 181.569052 33.168824 
L 182.776094 33.501781 
L 183.983135 33.248611 
L 185.190177 33.136879 
L 186.397218 32.28635 
L 187.604259 32.793892 
L 188.811301 32.880266 
L 190.018342 32.563021 
L 191.225384 30.90328 
L 193.639467 31.818667 
L 194.846508 31.481992 
L 196.053549 31.906984 
L 197.260591 31.141599 
L 198.467632 31.570273 
L 199.674674 31.445025 
L 202.088756 29.915287 
L 204.502839 30.854364 
L 205.709881 30.744418 
L 206.916922 30.870225 
L 209.331005 31.774537 
L 210.538046 31.976013 
L 212.952129 32.766415 
L 215.366212 33.468262 
L 216.573253 32.560458 
L 217.780295 32.103268 
L 218.987336 31.977675 
L 220.194378 31.380923 
L 221.401419 31.086346 
L 223.815502 31.843171 
L 225.022543 30.963662 
L 226.229585 29.554023 
L 227.436626 29.960818 
L 229.850709 29.881657 
L 231.05775 29.897602 
L 232.264792 29.257814 
L 233.471833 29.39627 
L 235.885916 30.204019 
L 240.714082 30.898878 
L 241.921123 31.236525 
L 243.128164 31.440378 
L 245.542247 32.146097 
L 246.749289 31.889827 
L 247.95633 27.824831 
L 249.163372 28.152943 
L 250.370413 27.30613 
L 251.577454 27.697971 
L 252.784496 27.765894 
L 253.991537 27.664406 
L 255.198579 27.89551 
L 257.612661 28.649014 
L 258.819703 28.104452 
L 261.233786 28.62758 
L 266.061951 29.752239 
L 267.268993 29.672476 
L 268.476034 29.200069 
L 269.683076 29.544656 
L 270.890117 29.198484 
L 275.718283 30.486468 
L 276.925324 30.534871 
L 279.339407 31.083136 
L 280.546448 31.330263 
L 281.75349 31.443682 
L 282.960531 31.095402 
L 284.167573 31.360554 
L 285.374614 31.39342 
L 286.581655 31.128024 
L 287.788697 31.048228 
L 288.995738 31.361467 
L 290.20278 31.530488 
L 291.409821 31.834772 
L 293.823904 32.193401 
L 296.237987 31.461636 
L 297.445028 31.351036 
L 298.652069 31.655486 
L 299.859111 31.433609 
L 302.273194 31.83966 
L 303.480235 31.77691 
L 304.687277 31.577141 
L 305.894318 31.701672 
L 307.101359 31.682175 
L 308.308401 31.868506 
L 309.515442 31.942156 
L 310.722484 30.355175 
L 311.929525 30.222397 
L 313.136566 30.334384 
L 315.550649 30.823177 
L 316.757691 30.866671 
L 322.792898 32.052705 
L 325.206981 28.354429 
L 326.414022 28.594655 
L 327.621063 27.702319 
L 328.828105 27.636778 
L 333.65627 28.709493 
L 334.863312 28.593151 
L 336.070353 25.903023 
L 337.277395 25.781595 
L 339.691478 26.174607 
L 342.10556 26.629192 
L 343.312602 25.65533 
L 354.175974 27.526844 
L 356.590057 27.211909 
L 361.418223 28.021321 
L 362.625264 27.875463 
L 363.832306 26.507949 
L 366.246389 26.62285 
L 368.660471 27.040192 
L 369.867513 26.757225 
L 371.074554 26.663348 
L 372.281596 26.703518 
L 374.695678 26.369722 
L 375.90272 25.489608 
L 377.109761 24.105267 
L 378.316803 24.365085 
L 379.523844 23.18531 
L 381.937927 23.630482 
L 384.35201 23.72541 
L 386.766093 24.222686 
L 387.973134 24.083433 
L 389.180175 23.207347 
L 391.594258 23.652459 
L 394.008341 23.788274 
L 396.422424 24.07473 
L 398.836507 24.473783 
L 400.043548 24.329565 
L 403.664672 25.004249 
L 404.871714 24.789378 
L 406.078755 24.99101 
L 407.285797 24.805424 
L 408.492838 25.042185 
L 409.699879 24.898466 
L 410.906921 25.108424 
L 413.321004 25.377621 
L 414.528045 25.162442 
L 415.735087 24.709497 
L 418.149169 25.127762 
L 419.356211 24.968442 
L 420.563252 24.065798 
L 422.977335 24.489876 
L 424.184376 24.528776 
L 430.219583 25.420116 
L 431.426625 25.245811 
L 432.633666 25.401624 
L 433.840708 24.086749 
L 435.047749 23.873425 
L 436.254791 23.924776 
L 437.461832 24.138916 
L 438.668873 24.215314 
L 439.875915 24.426571 
L 441.082956 24.446447 
L 444.70408 24.977176 
L 445.911122 24.571154 
L 447.118163 24.553741 
L 448.325205 24.766086 
L 450.739288 24.972204 
L 451.946329 24.65732 
L 453.15337 22.616185 
L 454.360412 21.806348 
L 456.774495 22.080994 
L 459.188577 22.017013 
L 461.60266 22.339509 
L 462.809702 21.306454 
L 465.223784 20.210223 
L 467.637867 20.597045 
L 468.844909 19.619913 
L 470.05195 19.368102 
L 471.258992 19.356485 
L 474.880116 19.943035 
L 476.087157 19.635555 
L 478.50124 20.027269 
L 479.708281 20.04565 
L 483.329406 20.510886 
L 484.536447 20.53259 
L 485.743488 20.71648 
L 486.95053 20.741459 
L 488.157571 20.922342 
L 489.364613 20.875058 
L 492.985737 21.245055 
L 496.606861 21.790229 
L 497.813903 21.306048 
L 500.227985 21.687668 
L 502.642068 21.974356 
L 503.84911 21.736594 
L 505.056151 21.864163 
L 506.263193 21.761936 
L 509.884317 22.056825 
L 513.505441 22.543912 
L 514.712482 22.527276 
L 515.919524 22.716923 
L 515.919524 22.716923 
" clip-path="url(#p111adda7b2)" style="fill: none; stroke-dasharray: 5.55,2.4; stroke-dashoffset: 0; stroke: #ff8c00; stroke-width: 1.5"/>
   </g>
   <g id="patch_3">
    <path d="M 34.31 98.44 
L 34.31 0 
" style="fill: none; stroke: #000000; stroke-width: 0.8; stroke-linejoin: miter; stroke-linecap: square"/>
   </g>
   <g id="patch_4">
    <path d="M 540 98.44 
L 540 0 
" style="fill: none; stroke: #000000; stroke-width: 0.8; stroke-linejoin: miter; stroke-linecap: square"/>
   </g>
   <g id="patch_5">
    <path d="M 34.31 98.44 
L 540 98.44 
" style="fill: none; stroke: #000000; stroke-width: 0.8; stroke-linejoin: miter; stroke-linecap: square"/>
   </g>
   <g id="patch_6">
    <path d="M 34.31 0 
L 540 0 
" style="fill: none; stroke: #000000; stroke-width: 0.8; stroke-linejoin: miter; stroke-linecap: square"/>
   </g>
  </g>
 </g>
 <defs>
  <clipPath id="p111adda7b2">
   <rect x="34.31" y="0" width="505.69" height="98.44"/>
  </clipPath>
 </defs>
</svg>
