<?xml version="1.0" encoding="utf-8" standalone="no"?>
<!DOCTYPE svg PUBLIC "-//W3C//DTD SVG 1.1//EN"
  "http://www.w3.org/Graphics/SVG/1.1/DTD/svg11.dtd">
<svg xmlns:xlink="http://www.w3.org/1999/xlink" width="540pt" height="129.6pt" viewBox="0 0 540 129.6" xmlns="http://www.w3.org/2000/svg" version="1.1">
 <metadata>
  <rdf:RDF xmlns:dc="http://purl.org/dc/elements/1.1/" xmlns:cc="http://creativecommons.org/ns#" xmlns:rdf="http://www.w3.org/1999/02/22-rdf-syntax-ns#">
   <cc:Work>
    <dc:type rdf:resource="http://purl.org/dc/dcmitype/StillImage"/>
    <dc:date>2025-04-05T09:02:55.669494</dc:date>
    <dc:format>image/svg+xml</dc:format>
    <dc:creator>
     <cc:Agent>
      <dc:title>Matplotlib v3.10.1, https://matplotlib.org/</dc:title>
     </cc:Agent>
    </dc:creator>
   </cc:Work>
  </rdf:RDF>
 </metadata>
 <defs>
  <style type="text/css">*{stroke-linejoin: round; stroke-linecap: butt}</style>
 </defs>
 <g id="figure_1">
  <g id="patch_1">
   <path d="M 0 129.6 
L 540 129.6 
L 540 0 
L 0 0 
z
" style="fill: #ffffff"/>
  </g>
  <g id="axes_1">
   <g id="patch_2">
    <path d="M 34.31 98.44 
L 540 98.44 
L 540 0 
L 34.31 0 
z
" style="fill: #ffffff"/>
   </g>
   <g id="matplotlib.axis_1">
    <g id="xtick_1">
     <g id="line2d_1">
      <path d="M 34.31 98.44 
L 34.31 0 
" clip-path="url(#pa45080f326)" style="fill: none; stroke: #b0b0b0; stroke-width: 0.8; stroke-linecap: square"/>
     </g>
     <g id="line2d_2">
      <defs>
       <path id="m25342b32b9" d="M 0 0 
L 0 3.5 
" style="stroke: #000000; stroke-width: 0.8"/>
      </defs>
      <g>
       <use xlink:href="#m25342b32b9" x="34.31" y="98.44" style="stroke: #000000; stroke-width: 0.8"/>
      </g>
     </g>
     <g id="text_1">
      <text style="font-size: 10px; font-family: 'Times New Roman'; text-anchor: middle" x="34.31" y="112.38375" transform="rotate(-0 34.31 112.38375)">0</text>
     </g>
    </g>
    <g id="xtick_2">
     <g id="line2d_3">
      <path d="M 94.662071 98.44 
L 94.662071 0 
" clip-path="url(#pa45080f326)" style="fill: none; stroke: #b0b0b0; stroke-width: 0.8; stroke-linecap: square"/>
     </g>
     <g id="line2d_4">
      <g>
       <use xlink:href="#m25342b32b9" x="94.662071" y="98.44" style="stroke: #000000; stroke-width: 0.8"/>
      </g>
     </g>
     <g id="text_2">
      <text style="font-size: 10px; font-family: 'Times New Roman'; text-anchor: middle" x="94.662071" y="112.38375" transform="rotate(-0 94.662071 112.38375)">50</text>
     </g>
    </g>
    <g id="xtick_3">
     <g id="line2d_5">
      <path d="M 155.014141 98.44 
L 155.014141 0 
" clip-path="url(#pa45080f326)" style="fill: none; stroke: #b0b0b0; stroke-width: 0.8; stroke-linecap: square"/>
     </g>
     <g id="line2d_6">
      <g>
       <use xlink:href="#m25342b32b9" x="155.014141" y="98.44" style="stroke: #000000; stroke-width: 0.8"/>
      </g>
     </g>
     <g id="text_3">
      <text style="font-size: 10px; font-family: 'Times New Roman'; text-anchor: middle" x="155.014141" y="112.38375" transform="rotate(-0 155.014141 112.38375)">100</text>
     </g>
    </g>
    <g id="xtick_4">
     <g id="line2d_7">
      <path d="M 215.366212 98.44 
L 215.366212 0 
" clip-path="url(#pa45080f326)" style="fill: none; stroke: #b0b0b0; stroke-width: 0.8; stroke-linecap: square"/>
     </g>
     <g id="line2d_8">
      <g>
       <use xlink:href="#m25342b32b9" x="215.366212" y="98.44" style="stroke: #000000; stroke-width: 0.8"/>
      </g>
     </g>
     <g id="text_4">
      <text style="font-size: 10px; font-family: 'Times New Roman'; text-anchor: middle" x="215.366212" y="112.38375" transform="rotate(-0 215.366212 112.38375)">150</text>
     </g>
    </g>
    <g id="xtick_5">
     <g id="line2d_9">
      <path d="M 275.718283 98.44 
L 275.718283 0 
" clip-path="url(#pa45080f326)" style="fill: none; stroke: #b0b0b0; stroke-width: 0.8; stroke-linecap: square"/>
     </g>
     <g id="line2d_10">
      <g>
       <use xlink:href="#m25342b32b9" x="275.718283" y="98.44" style="stroke: #000000; stroke-width: 0.8"/>
      </g>
     </g>
     <g id="text_5">
      <text style="font-size: 10px; font-family: 'Times New Roman'; text-anchor: middle" x="275.718283" y="112.38375" transform="rotate(-0 275.718283 112.38375)">200</text>
     </g>
    </g>
    <g id="xtick_6">
     <g id="line2d_11">
      <path d="M 336.070353 98.44 
L 336.070353 0 
" clip-path="url(#pa45080f326)" style="fill: none; stroke: #b0b0b0; stroke-width: 0.8; stroke-linecap: square"/>
     </g>
     <g id="line2d_12">
      <g>
       <use xlink:href="#m25342b32b9" x="336.070353" y="98.44" style="stroke: #000000; stroke-width: 0.8"/>
      </g>
     </g>
     <g id="text_6">
      <text style="font-size: 10px; font-family: 'Times New Roman'; text-anchor: middle" x="336.070353" y="112.38375" transform="rotate(-0 336.070353 112.38375)">250</text>
     </g>
    </g>
    <g id="xtick_7">
     <g id="line2d_13">
      <path d="M 396.422424 98.44 
L 396.422424 0 
" clip-path="url(#pa45080f326)" style="fill: none; stroke: #b0b0b0; stroke-width: 0.8; stroke-linecap: square"/>
     </g>
     <g id="line2d_14">
      <g>
       <use xlink:href="#m25342b32b9" x="396.422424" y="98.44" style="stroke: #000000; stroke-width: 0.8"/>
      </g>
     </g>
     <g id="text_7">
      <text style="font-size: 10px; font-family: 'Times New Roman'; text-anchor: middle" x="396.422424" y="112.38375" transform="rotate(-0 396.422424 112.38375)">300</text>
     </g>
    </g>
    <g id="xtick_8">
     <g id="line2d_15">
      <path d="M 456.774495 98.44 
L 456.774495 0 
" clip-path="url(#pa45080f326)" style="fill: none; stroke: #b0b0b0; stroke-width: 0.8; stroke-linecap: square"/>
     </g>
     <g id="line2d_16">
      <g>
       <use xlink:href="#m25342b32b9" x="456.774495" y="98.44" style="stroke: #000000; stroke-width: 0.8"/>
      </g>
     </g>
     <g id="text_8">
      <text style="font-size: 10px; font-family: 'Times New Roman'; text-anchor: middle" x="456.774495" y="112.38375" transform="rotate(-0 456.774495 112.38375)">350</text>
     </g>
    </g>
    <g id="xtick_9">
     <g id="line2d_17">
      <path d="M 517.126565 98.44 
L 517.126565 0 
" clip-path="url(#pa45080f326)" style="fill: none; stroke: #b0b0b0; stroke-width: 0.8; stroke-linecap: square"/>
     </g>
     <g id="line2d_18">
      <g>
       <use xlink:href="#m25342b32b9" x="517.126565" y="98.44" style="stroke: #000000; stroke-width: 0.8"/>
      </g>
     </g>
     <g id="text_9">
      <text style="font-size: 10px; font-family: 'Times New Roman'; text-anchor: middle" x="517.126565" y="112.38375" transform="rotate(-0 517.126565 112.38375)">400</text>
     </g>
    </g>
    <g id="text_10">
     <text style="font-size: 12px; font-family: 'Times New Roman'; text-anchor: middle" x="287.155" y="126.855312" transform="rotate(-0 287.155 126.855312)">Simulation Run</text>
    </g>
   </g>
   <g id="matplotlib.axis_2">
    <g id="ytick_1">
     <g id="line2d_19">
      <path d="M 34.31 98.44 
L 540 98.44 
" clip-path="url(#pa45080f326)" style="fill: none; stroke: #b0b0b0; stroke-width: 0.8; stroke-linecap: square"/>
     </g>
     <g id="line2d_20">
      <defs>
       <path id="md6b8195f4c" d="M 0 0 
L -3.5 0 
" style="stroke: #000000; stroke-width: 0.8"/>
      </defs>
      <g>
       <use xlink:href="#md6b8195f4c" x="34.31" y="98.44" style="stroke: #000000; stroke-width: 0.8"/>
      </g>
     </g>
     <g id="text_11">
      <text style="font-size: 10px; font-family: 'Times New Roman'; text-anchor: end" x="27.31" y="101.911875" transform="rotate(-0 27.31 101.911875)">0.0</text>
     </g>
    </g>
    <g id="ytick_2">
     <g id="line2d_21">
      <path d="M 34.31 67.6775 
L 540 67.6775 
" clip-path="url(#pa45080f326)" style="fill: none; stroke: #b0b0b0; stroke-width: 0.8; stroke-linecap: square"/>
     </g>
     <g id="line2d_22">
      <g>
       <use xlink:href="#md6b8195f4c" x="34.31" y="67.6775" style="stroke: #000000; stroke-width: 0.8"/>
      </g>
     </g>
     <g id="text_12">
      <text style="font-size: 10px; font-family: 'Times New Roman'; text-anchor: end" x="27.31" y="71.149375" transform="rotate(-0 27.31 71.149375)">0.5</text>
     </g>
    </g>
    <g id="ytick_3">
     <g id="line2d_23">
      <path d="M 34.31 36.915 
L 540 36.915 
" clip-path="url(#pa45080f326)" style="fill: none; stroke: #b0b0b0; stroke-width: 0.8; stroke-linecap: square"/>
     </g>
     <g id="line2d_24">
      <g>
       <use xlink:href="#md6b8195f4c" x="34.31" y="36.915" style="stroke: #000000; stroke-width: 0.8"/>
      </g>
     </g>
     <g id="text_13">
      <text style="font-size: 10px; font-family: 'Times New Roman'; text-anchor: end" x="27.31" y="40.386875" transform="rotate(-0 27.31 40.386875)">1.0</text>
     </g>
    </g>
    <g id="ytick_4">
     <g id="line2d_25">
      <path d="M 34.31 6.1525 
L 540 6.1525 
" clip-path="url(#pa45080f326)" style="fill: none; stroke: #b0b0b0; stroke-width: 0.8; stroke-linecap: square"/>
     </g>
     <g id="line2d_26">
      <g>
       <use xlink:href="#md6b8195f4c" x="34.31" y="6.1525" style="stroke: #000000; stroke-width: 0.8"/>
      </g>
     </g>
     <g id="text_14">
      <text style="font-size: 10px; font-family: 'Times New Roman'; text-anchor: end" x="27.31" y="9.624375" transform="rotate(-0 27.31 9.624375)">1.5</text>
     </g>
    </g>
    <g id="text_15">
     <text style="font-size: 12px; font-family: 'Times New Roman'; text-anchor: middle" x="8.243125" y="49.22" transform="rotate(-90 8.243125 49.22)">Normalized Value</text>
    </g>
   </g>
   <g id="line2d_27">
    <path d="M 34.31 41.064864 
L 35.517041 51.085365 
L 36.724083 54.399322 
L 37.931124 47.711143 
L 39.138166 44.380787 
L 40.345207 39.967512 
L 41.552248 41.649456 
L 42.75929 40.966018 
L 43.966331 41.720946 
L 45.173373 40.058107 
L 46.380414 42.820121 
L 47.587456 42.792482 
L 48.794497 39.87095 
L 50.001538 38.779953 
L 51.20858 38.54631 
L 54.829704 36.142679 
L 56.036745 32.394765 
L 57.243787 32.560053 
L 59.65787 34.973791 
L 60.864911 34.677814 
L 62.071953 34.616738 
L 64.486035 33.486734 
L 65.693077 34.604362 
L 66.900118 35.08023 
L 68.10716 35.255071 
L 69.314201 35.139987 
L 71.728284 34.504802 
L 72.935325 34.156744 
L 75.349408 35.426499 
L 76.556449 34.906998 
L 77.763491 35.196794 
L 78.970532 35.610626 
L 81.384615 35.981003 
L 82.591657 36.77739 
L 83.798698 37.303111 
L 85.005739 37.161782 
L 86.212781 36.902694 
L 87.419822 36.936238 
L 88.626864 36.592611 
L 89.833905 36.534845 
L 91.040946 36.676006 
L 92.247988 36.268973 
L 93.455029 36.673005 
L 95.869112 35.948994 
L 97.076153 36.083253 
L 98.283195 35.273006 
L 99.490236 34.767329 
L 100.697278 35.02935 
L 101.904319 35.162789 
L 103.111361 34.713827 
L 104.318402 34.407619 
L 105.525443 34.590178 
L 106.732485 34.903781 
L 107.939526 35.000678 
L 109.146568 34.533364 
L 111.56065 34.959688 
L 112.767692 34.757479 
L 113.974733 34.859273 
L 116.388816 35.348772 
L 118.802899 34.820894 
L 120.00994 34.851336 
L 122.424023 35.48804 
L 123.631065 35.783032 
L 124.838106 35.787409 
L 128.45923 36.479523 
L 129.666272 36.359904 
L 132.080354 36.505882 
L 133.287396 36.267605 
L 134.494437 36.148343 
L 135.701479 36.469161 
L 136.90852 36.6399 
L 138.115562 36.970509 
L 139.322603 36.673725 
L 141.736686 36.865124 
L 142.943727 37.284992 
L 146.564851 37.980391 
L 147.771893 37.701979 
L 148.978934 37.722348 
L 151.393017 37.571853 
L 152.600058 37.572019 
L 153.8071 37.406662 
L 156.221183 37.556317 
L 157.428224 37.44664 
L 158.635266 37.687492 
L 159.842307 37.56445 
L 161.049348 37.824662 
L 162.25639 37.923882 
L 164.670473 37.500754 
L 165.877514 37.400038 
L 167.084555 37.414481 
L 168.291597 37.588973 
L 169.498638 37.13058 
L 170.70568 37.160082 
L 171.912721 37.39926 
L 173.119763 37.338089 
L 174.326804 37.604778 
L 175.533845 37.706984 
L 176.740887 37.971667 
L 177.947928 37.765619 
L 179.15497 37.69041 
L 180.362011 37.88353 
L 181.569052 37.643696 
L 182.776094 37.69658 
L 183.983135 37.396503 
L 185.190177 37.28317 
L 187.604259 37.40182 
L 190.018342 37.051515 
L 192.432425 36.978141 
L 194.846508 37.041605 
L 196.053549 36.804199 
L 197.260591 36.908017 
L 199.674674 36.857853 
L 200.881715 36.698884 
L 202.088756 36.400765 
L 203.295798 36.427918 
L 204.502839 36.054839 
L 205.709881 35.922577 
L 206.916922 35.944028 
L 208.123963 35.831496 
L 210.538046 35.97313 
L 211.745088 35.782217 
L 214.159171 35.791513 
L 216.573253 35.843077 
L 217.780295 35.860998 
L 218.987336 35.657753 
L 222.60846 35.819184 
L 223.815502 35.971397 
L 228.643668 36.071346 
L 231.05775 36.200851 
L 232.264792 36.074297 
L 233.471833 36.219589 
L 238.299999 36.200744 
L 241.921123 36.495122 
L 243.128164 36.27128 
L 244.335206 36.372981 
L 246.749289 36.041292 
L 247.95633 35.970508 
L 251.577454 36.422195 
L 256.40562 36.511328 
L 257.612661 36.680888 
L 258.819703 36.604393 
L 262.440827 36.6957 
L 264.85491 36.714998 
L 268.476034 36.928395 
L 269.683076 36.907699 
L 270.890117 37.069983 
L 272.097158 37.048363 
L 273.3042 37.170113 
L 274.511241 37.053057 
L 276.925324 37.295561 
L 285.374614 37.492948 
L 287.788697 37.475451 
L 288.995738 37.3195 
L 292.616862 37.451425 
L 297.445028 37.201233 
L 299.859111 36.936199 
L 301.066152 36.997628 
L 303.480235 36.968177 
L 314.343608 37.199006 
L 315.550649 37.178427 
L 316.757691 36.893847 
L 319.171773 36.841034 
L 322.792898 37.096293 
L 328.828105 37.163437 
L 331.242188 37.263755 
L 338.484436 37.325296 
L 340.898519 37.313093 
L 344.519643 37.177155 
L 346.933726 37.323933 
L 352.968933 37.401848 
L 354.175974 37.208132 
L 356.590057 37.296228 
L 359.00414 37.209229 
L 360.211182 37.274155 
L 361.418223 37.204105 
L 362.625264 37.291277 
L 367.45343 37.261804 
L 368.660471 37.314191 
L 371.074554 37.105685 
L 373.488637 37.29198 
L 377.109761 37.148468 
L 380.730886 37.083344 
L 381.937927 37.002904 
L 384.35201 37.01407 
L 392.8013 37.063235 
L 394.008341 36.893957 
L 406.078755 37.096731 
L 407.285797 36.990974 
L 429.012542 37.289904 
L 431.426625 37.204708 
L 433.840708 37.278094 
L 436.254791 37.209582 
L 438.668873 37.251771 
L 444.70408 37.086622 
L 447.118163 37.013011 
L 451.946329 37.062635 
L 454.360412 36.962333 
L 457.981536 36.78123 
L 466.430826 36.889258 
L 467.637867 36.816285 
L 468.844909 36.865003 
L 470.05195 36.719539 
L 478.50124 36.82311 
L 483.329406 36.964204 
L 485.743488 36.92511 
L 492.985737 36.943461 
L 499.020944 36.911807 
L 500.227985 36.936901 
L 501.435027 36.808052 
L 503.84911 36.889595 
L 507.470234 36.945661 
L 513.505441 36.939495 
L 515.919524 36.915 
L 515.919524 36.915 
" clip-path="url(#pa45080f326)" style="fill: none; stroke: #4169e1; stroke-width: 1.5; stroke-linecap: square"/>
   </g>
   <g id="line2d_28">
    <path d="M 34.31 98.44 
L 35.517041 81.33111 
L 36.724083 83.291531 
L 37.931124 64.213182 
L 39.138166 63.4992 
L 40.345207 52.729276 
L 41.552248 56.367252 
L 42.75929 61.069238 
L 43.966331 64.444682 
L 45.173373 63.604016 
L 46.380414 53.772378 
L 47.587456 57.493248 
L 48.794497 43.190981 
L 50.001538 44.500802 
L 51.20858 47.966529 
L 52.415621 49.378657 
L 53.622663 50.553669 
L 54.829704 51.425677 
L 56.036745 10.818216 
L 57.243787 15.110859 
L 58.450828 14.157464 
L 59.65787 12.732339 
L 62.071953 19.545323 
L 64.486035 23.003253 
L 65.693077 20.263571 
L 66.900118 22.013798 
L 69.314201 26.902451 
L 70.521242 28.806033 
L 72.935325 31.723773 
L 75.349408 31.002317 
L 76.556449 31.266112 
L 77.763491 32.566475 
L 78.970532 33.220313 
L 81.384615 36.036051 
L 82.591657 33.235445 
L 83.798698 32.857127 
L 85.005739 34.239369 
L 86.212781 35.206656 
L 87.419822 36.603405 
L 88.626864 37.0423 
L 89.833905 38.322479 
L 91.040946 39.415349 
L 94.662071 38.934886 
L 95.869112 39.125878 
L 97.076153 40.085301 
L 98.283195 35.237322 
L 99.490236 34.033671 
L 100.697278 34.540385 
L 101.904319 35.49153 
L 103.111361 34.61919 
L 104.318402 34.774274 
L 105.525443 35.500326 
L 106.732485 35.526689 
L 107.939526 36.443832 
L 109.146568 35.120871 
L 110.353609 35.414246 
L 111.56065 36.062407 
L 112.767692 36.554671 
L 113.974733 37.361805 
L 115.181775 37.403253 
L 117.595858 38.060754 
L 118.802899 37.761575 
L 120.00994 38.59312 
L 121.216982 37.693133 
L 122.424023 37.658322 
L 123.631065 37.371523 
L 124.838106 38.174811 
L 126.045147 38.378704 
L 127.252189 38.028181 
L 128.45923 38.320855 
L 130.873313 39.478953 
L 132.080354 40.168714 
L 133.287396 40.077511 
L 134.494437 40.571149 
L 135.701479 39.778839 
L 136.90852 40.038733 
L 138.115562 39.108353 
L 139.322603 38.476877 
L 140.529644 38.83477 
L 141.736686 39.464596 
L 142.943727 37.409267 
L 144.150769 36.983106 
L 145.35781 37.270744 
L 147.771893 36.122408 
L 148.978934 36.764833 
L 151.393017 37.820151 
L 152.600058 38.432473 
L 153.8071 38.571309 
L 157.428224 39.913161 
L 158.635266 39.457836 
L 159.842307 39.751293 
L 161.049348 39.093558 
L 162.25639 39.470393 
L 164.670473 38.920324 
L 165.877514 39.273018 
L 167.084555 39.802144 
L 168.291597 39.749841 
L 169.498638 36.259301 
L 170.70568 36.787988 
L 171.912721 36.212899 
L 173.119763 36.676018 
L 174.326804 35.79815 
L 175.533845 36.120766 
L 176.740887 35.23589 
L 177.947928 34.901737 
L 179.15497 35.311192 
L 180.362011 35.059718 
L 181.569052 34.3793 
L 182.776094 34.837304 
L 183.983135 33.443598 
L 185.190177 33.685872 
L 187.604259 34.545603 
L 188.811301 33.949595 
L 190.018342 34.093308 
L 191.225384 34.438353 
L 194.846508 35.807858 
L 196.053549 34.984948 
L 197.260591 35.203603 
L 199.674674 36.089829 
L 200.881715 35.944172 
L 202.088756 34.285646 
L 203.295798 34.723055 
L 204.502839 31.82779 
L 205.709881 31.870356 
L 206.916922 32.321433 
L 208.123963 32.46671 
L 210.538046 33.114703 
L 211.745088 32.643174 
L 217.780295 34.539872 
L 218.987336 33.877904 
L 221.401419 34.633381 
L 222.60846 34.809753 
L 223.815502 34.592683 
L 227.436626 35.679151 
L 228.643668 36.046572 
L 231.05775 36.57361 
L 232.264792 36.501013 
L 233.471833 36.280659 
L 235.885916 36.953483 
L 239.50704 37.846312 
L 241.921123 37.758461 
L 243.128164 36.630237 
L 244.335206 36.676786 
L 245.542247 35.767323 
L 246.749289 35.644592 
L 247.95633 35.846267 
L 249.163372 35.384609 
L 250.370413 35.392142 
L 251.577454 34.72325 
L 255.198579 35.701206 
L 256.40562 35.848431 
L 257.612661 35.278676 
L 260.026744 35.625622 
L 264.85491 36.833445 
L 266.061951 36.885716 
L 267.268993 37.200492 
L 268.476034 36.940225 
L 269.683076 37.239768 
L 270.890117 36.670897 
L 272.097158 36.967172 
L 276.925324 36.228259 
L 280.546448 37.054353 
L 281.75349 37.108525 
L 282.960531 36.789538 
L 286.581655 37.451498 
L 287.788697 37.662378 
L 288.995738 37.074685 
L 290.20278 37.146354 
L 292.616862 37.644724 
L 296.237987 38.251215 
L 297.445028 36.911048 
L 298.652069 36.331657 
L 299.859111 36.13145 
L 303.480235 36.656098 
L 308.308401 37.592054 
L 310.722484 37.885924 
L 311.929525 38.08325 
L 314.343608 38.184634 
L 315.550649 38.425321 
L 316.757691 35.451709 
L 317.964732 35.465908 
L 319.171773 35.703108 
L 320.378815 35.583973 
L 321.585856 35.652437 
L 322.792898 35.594052 
L 323.999939 35.854806 
L 325.206981 35.925375 
L 328.828105 36.576779 
L 330.035146 36.539496 
L 333.65627 37.253817 
L 334.863312 37.19659 
L 338.484436 37.793837 
L 342.10556 38.128074 
L 343.312602 38.351369 
L 344.519643 38.1419 
L 345.726685 37.673852 
L 351.761892 38.676033 
L 352.968933 38.830855 
L 354.175974 37.360534 
L 356.590057 37.629771 
L 357.797099 37.444532 
L 359.00414 37.667576 
L 361.418223 37.694629 
L 362.625264 37.564959 
L 363.832306 37.740826 
L 365.039347 37.452857 
L 366.246389 37.63729 
L 367.45343 37.566716 
L 368.660471 37.656157 
L 369.867513 37.167318 
L 372.281596 36.870832 
L 373.488637 36.637456 
L 374.695678 36.555219 
L 375.90272 35.393665 
L 377.109761 35.084181 
L 378.316803 35.305655 
L 379.523844 35.337519 
L 380.730886 34.777346 
L 381.937927 34.680107 
L 384.35201 34.908547 
L 391.594258 36.145307 
L 392.8013 35.826506 
L 394.008341 34.580917 
L 396.422424 34.983759 
L 397.629465 34.729233 
L 398.836507 34.737841 
L 402.457631 35.224875 
L 403.664672 34.784823 
L 404.871714 34.756474 
L 406.078755 34.886125 
L 407.285797 34.502258 
L 414.528045 35.516997 
L 415.735087 35.457443 
L 420.563252 36.122979 
L 422.977335 36.09653 
L 424.184376 36.231121 
L 425.391418 36.25308 
L 429.012542 36.79002 
L 430.219583 36.458011 
L 431.426625 36.638795 
L 432.633666 36.500976 
L 433.840708 36.687163 
L 435.047749 36.448946 
L 436.254791 36.616107 
L 437.461832 36.645162 
L 442.289998 37.335585 
L 443.497039 36.646557 
L 444.70408 36.728607 
L 445.911122 36.666437 
L 448.325205 36.962839 
L 449.532246 36.975425 
L 453.15337 37.446126 
L 454.360412 37.225672 
L 455.567453 37.123805 
L 459.188577 37.202962 
L 460.395619 37.05904 
L 461.60266 37.231937 
L 462.809702 37.137326 
L 466.430826 37.544256 
L 467.637867 37.387679 
L 468.844909 37.411212 
L 470.05195 36.278248 
L 471.258992 36.448516 
L 473.673074 36.540901 
L 478.50124 37.102155 
L 480.915323 37.248292 
L 482.122364 37.388399 
L 483.329406 37.414445 
L 484.536447 37.263702 
L 486.95053 37.508416 
L 489.364613 37.368875 
L 490.571654 37.521275 
L 491.778696 36.310985 
L 494.192778 36.577416 
L 495.39982 36.444949 
L 497.813903 36.729913 
L 499.020944 36.707525 
L 500.227985 36.825625 
L 501.435027 35.889673 
L 502.642068 35.792434 
L 506.263193 36.212433 
L 507.470234 36.174457 
L 513.505441 36.844826 
L 514.712482 36.813568 
L 515.919524 36.915 
L 515.919524 36.915 
" clip-path="url(#pa45080f326)" style="fill: none; stroke-dasharray: 5.55,2.4; stroke-dashoffset: 0; stroke: #4169e1; stroke-width: 1.5"/>
   </g>
   <g id="line2d_29">
    <path d="M 34.31 42.865015 
L 35.517041 49.466189 
L 36.724083 52.715539 
L 37.931124 47.406685 
L 39.138166 43.46091 
L 40.345207 40.166101 
L 41.552248 40.828908 
L 42.75929 39.920805 
L 43.966331 40.393296 
L 45.173373 39.213617 
L 46.380414 41.62416 
L 47.587456 41.820635 
L 48.794497 40.002343 
L 50.001538 39.140658 
L 51.20858 38.651479 
L 52.415621 37.901239 
L 53.622663 36.911001 
L 54.829704 36.393915 
L 56.036745 33.657672 
L 57.243787 33.67482 
L 59.65787 35.623466 
L 60.864911 35.214151 
L 62.071953 35.041376 
L 63.278994 34.44725 
L 64.486035 33.99656 
L 65.693077 34.901091 
L 66.900118 35.236809 
L 69.314201 35.481333 
L 70.521242 35.487364 
L 71.728284 35.133201 
L 72.935325 35.007359 
L 75.349408 35.951008 
L 76.556449 35.593569 
L 77.763491 35.684465 
L 78.970532 36.080882 
L 81.384615 36.487609 
L 83.798698 37.566837 
L 87.419822 37.422085 
L 88.626864 37.138034 
L 89.833905 36.968931 
L 91.040946 37.141864 
L 92.247988 36.73796 
L 93.455029 37.047191 
L 95.869112 36.67598 
L 97.076153 36.762569 
L 99.490236 35.925597 
L 101.904319 36.161665 
L 104.318402 35.576064 
L 107.939526 35.941945 
L 109.146568 35.606415 
L 111.56065 35.874286 
L 112.767692 35.790019 
L 113.974733 35.825746 
L 115.181775 36.056675 
L 116.388816 36.165654 
L 117.595858 36.074237 
L 118.802899 35.869755 
L 120.00994 35.878055 
L 122.424023 36.34131 
L 123.631065 36.520259 
L 124.838106 36.54549 
L 128.45923 37.012477 
L 129.666272 36.869454 
L 132.080354 36.965539 
L 134.494437 36.627389 
L 135.701479 36.882179 
L 138.115562 37.16617 
L 139.322603 36.824949 
L 140.529644 36.933823 
L 141.736686 36.92924 
L 142.943727 37.289777 
L 146.564851 37.813246 
L 147.771893 37.631636 
L 148.978934 37.669953 
L 153.8071 37.421249 
L 156.221183 37.507484 
L 157.428224 37.422337 
L 158.635266 37.538844 
L 159.842307 37.393103 
L 162.25639 37.583474 
L 165.877514 37.261764 
L 167.084555 37.237528 
L 168.291597 37.413915 
L 169.498638 37.1826 
L 170.70568 37.198858 
L 171.912721 37.377755 
L 173.119763 37.357759 
L 176.740887 37.829221 
L 179.15497 37.608173 
L 180.362011 37.774024 
L 181.569052 37.575014 
L 182.776094 37.607098 
L 183.983135 37.341345 
L 185.190177 37.256604 
L 187.604259 37.322701 
L 191.225384 37.131712 
L 199.674674 37.015673 
L 200.881715 36.873759 
L 202.088756 36.600692 
L 203.295798 36.601269 
L 205.709881 36.161336 
L 210.538046 36.077934 
L 211.745088 35.912467 
L 217.780295 36.073362 
L 218.987336 35.922698 
L 222.60846 36.040046 
L 223.815502 36.189527 
L 227.436626 36.231906 
L 231.05775 36.383086 
L 232.264792 36.277204 
L 234.678875 36.411163 
L 237.092957 36.381057 
L 239.50704 36.41429 
L 241.921123 36.611644 
L 243.128164 36.429565 
L 244.335206 36.499424 
L 246.749289 36.233496 
L 247.95633 36.1762 
L 252.784496 36.444907 
L 287.788697 37.253057 
L 288.995738 37.137916 
L 292.616862 37.255699 
L 297.445028 37.092433 
L 299.859111 36.855325 
L 304.687277 36.873483 
L 308.308401 36.907158 
L 313.136566 37.044577 
L 315.550649 37.003351 
L 317.964732 36.740615 
L 320.378815 36.820642 
L 325.206981 36.992404 
L 328.828105 36.966389 
L 332.449229 37.07152 
L 348.140767 37.061788 
L 352.968933 37.156581 
L 354.175974 37.026131 
L 360.211182 37.166718 
L 365.039347 37.114766 
L 368.660471 37.273504 
L 371.074554 37.109709 
L 373.488637 37.267562 
L 378.316803 37.172202 
L 379.523844 37.206348 
L 381.937927 37.071514 
L 385.559051 37.072265 
L 392.8013 37.145559 
L 394.008341 37.003682 
L 403.664672 37.136002 
L 407.285797 37.013118 
L 425.391418 37.231052 
L 442.289998 37.19815 
L 445.911122 37.023347 
L 454.360412 37.009957 
L 457.981536 36.859067 
L 466.430826 36.933615 
L 470.05195 36.825545 
L 474.880116 36.858173 
L 480.915323 36.945124 
L 494.192778 36.934309 
L 496.606861 36.858131 
L 515.919524 36.915 
L 515.919524 36.915 
" clip-path="url(#pa45080f326)" style="fill: none; stroke: #ff8c00; stroke-width: 1.5; stroke-linecap: square"/>
   </g>
   <g id="line2d_30">
    <path d="M 34.31 98.44 
L 35.517041 85.267996 
L 36.724083 83.275552 
L 37.931124 61.50834 
L 39.138166 50.069716 
L 40.345207 41.724024 
L 41.552248 49.029532 
L 43.966331 57.918718 
L 45.173373 58.184854 
L 46.380414 44.279769 
L 47.587456 48.664766 
L 48.794497 40.500902 
L 50.001538 41.721651 
L 51.20858 44.49019 
L 52.415621 45.309931 
L 53.622663 43.692716 
L 54.829704 45.360244 
L 56.036745 7.416686 
L 57.243787 11.966163 
L 58.450828 9.63263 
L 59.65787 8.347349 
L 60.864911 11.150258 
L 62.071953 14.579791 
L 63.278994 15.37339 
L 64.486035 17.03327 
L 65.693077 13.618054 
L 66.900118 15.727549 
L 70.521242 23.45195 
L 71.728284 24.619949 
L 72.935325 26.703736 
L 74.142367 26.611018 
L 75.349408 26.356625 
L 76.556449 27.007242 
L 77.763491 28.847949 
L 78.970532 28.921733 
L 81.384615 31.446461 
L 82.591657 29.220601 
L 83.798698 27.591501 
L 85.005739 29.225786 
L 87.419822 32.103056 
L 88.626864 32.447642 
L 91.040946 34.383109 
L 92.247988 33.323341 
L 93.455029 33.20932 
L 94.662071 34.114446 
L 95.869112 34.64597 
L 97.076153 35.731779 
L 98.283195 33.559559 
L 99.490236 32.371915 
L 100.697278 33.222082 
L 101.904319 34.21264 
L 103.111361 33.253831 
L 104.318402 33.354628 
L 105.525443 34.268586 
L 106.732485 34.771721 
L 107.939526 35.635493 
L 109.146568 34.522481 
L 110.353609 35.262979 
L 111.56065 35.791322 
L 113.974733 37.498528 
L 115.181775 37.314676 
L 117.595858 38.646179 
L 118.802899 38.603601 
L 120.00994 39.433184 
L 121.216982 38.795471 
L 122.424023 38.669663 
L 123.631065 38.750287 
L 124.838106 39.521245 
L 126.045147 39.694248 
L 127.252189 39.147951 
L 128.45923 39.782441 
L 129.666272 40.027177 
L 132.080354 41.31902 
L 133.287396 40.759341 
L 134.494437 41.121246 
L 135.701479 40.147223 
L 136.90852 40.552654 
L 138.115562 40.366108 
L 139.322603 37.964067 
L 140.529644 38.328261 
L 141.736686 38.995604 
L 142.943727 36.112511 
L 144.150769 35.788967 
L 145.35781 35.750186 
L 147.771893 35.303686 
L 148.978934 35.919194 
L 151.393017 36.793228 
L 152.600058 37.410653 
L 153.8071 37.747205 
L 157.428224 39.170081 
L 158.635266 39.317367 
L 159.842307 39.2127 
L 161.049348 39.24403 
L 162.25639 39.676214 
L 163.463431 39.792665 
L 164.670473 39.563324 
L 167.084555 40.511508 
L 168.291597 39.984809 
L 169.498638 38.690616 
L 170.70568 39.205704 
L 171.912721 38.617924 
L 173.119763 39.119732 
L 174.326804 38.510088 
L 175.533845 38.785022 
L 176.740887 37.685471 
L 177.947928 37.288248 
L 179.15497 37.651654 
L 180.362011 37.143837 
L 181.569052 36.181615 
L 182.776094 36.645427 
L 183.983135 34.492584 
L 185.190177 34.728771 
L 187.604259 35.640692 
L 190.018342 36.099066 
L 194.846508 37.894221 
L 196.053549 37.418347 
L 197.260591 37.480044 
L 199.674674 38.148746 
L 200.881715 37.742381 
L 202.088756 35.042916 
L 203.295798 35.492527 
L 204.502839 33.482352 
L 205.709881 32.219532 
L 206.916922 32.656999 
L 208.123963 32.574343 
L 210.538046 33.411188 
L 211.745088 32.633964 
L 216.573253 34.015595 
L 217.780295 34.334444 
L 218.987336 33.700891 
L 221.401419 34.436373 
L 222.60846 34.707917 
L 223.815502 34.050857 
L 227.436626 35.154536 
L 231.05775 35.937485 
L 232.264792 35.760517 
L 233.471833 35.449641 
L 235.885916 36.153907 
L 237.092957 36.367065 
L 239.50704 36.980998 
L 240.714082 36.664801 
L 241.921123 36.661934 
L 243.128164 35.283271 
L 244.335206 35.387474 
L 245.542247 34.39938 
L 246.749289 34.158975 
L 247.95633 34.344458 
L 249.163372 34.233613 
L 250.370413 34.41516 
L 251.577454 33.906767 
L 255.198579 34.895838 
L 256.40562 34.844484 
L 257.612661 34.314831 
L 261.233786 34.885766 
L 264.85491 35.808915 
L 266.061951 35.840634 
L 267.268993 36.097772 
L 268.476034 35.53575 
L 269.683076 35.675376 
L 270.890117 35.104389 
L 272.097158 35.423014 
L 274.511241 35.411331 
L 275.718283 34.980908 
L 276.925324 35.004466 
L 280.546448 35.860545 
L 281.75349 35.895323 
L 282.960531 35.498555 
L 287.788697 36.432877 
L 288.995738 35.879798 
L 290.20278 35.826543 
L 296.237987 37.057536 
L 298.652069 34.767699 
L 299.859111 34.475447 
L 305.894318 35.722573 
L 308.308401 36.21509 
L 309.515442 36.297366 
L 315.550649 37.338984 
L 316.757691 35.27425 
L 317.964732 35.070688 
L 319.171773 35.332115 
L 322.792898 35.146998 
L 323.999939 35.395751 
L 325.206981 35.437944 
L 328.828105 36.097169 
L 330.035146 35.986757 
L 333.65627 36.683284 
L 334.863312 36.697575 
L 337.277395 37.18152 
L 343.312602 37.882979 
L 344.519643 37.719143 
L 345.726685 37.415021 
L 350.55485 38.218579 
L 352.968933 38.379052 
L 354.175974 37.241713 
L 356.590057 37.500215 
L 359.00414 37.932319 
L 360.211182 37.901184 
L 361.418223 38.050312 
L 362.625264 37.962727 
L 363.832306 38.141205 
L 365.039347 38.055619 
L 367.45343 38.053574 
L 368.660471 38.002756 
L 369.867513 37.551706 
L 372.281596 37.032607 
L 373.488637 36.676029 
L 374.695678 36.733798 
L 375.90272 35.589039 
L 377.109761 35.226808 
L 379.523844 35.560775 
L 380.730886 35.120239 
L 383.144968 35.24615 
L 385.559051 35.602574 
L 391.594258 36.602482 
L 392.8013 36.384236 
L 394.008341 34.778574 
L 396.422424 35.149871 
L 397.629465 34.945317 
L 398.836507 34.965352 
L 400.043548 35.171203 
L 402.457631 35.289997 
L 403.664672 34.850883 
L 404.871714 34.653414 
L 406.078755 34.78506 
L 407.285797 34.311572 
L 413.321004 35.110067 
L 414.528045 35.187302 
L 415.735087 35.072669 
L 420.563252 35.633613 
L 422.977335 35.697126 
L 429.012542 36.543712 
L 430.219583 36.228647 
L 431.426625 36.407398 
L 432.633666 36.191284 
L 433.840708 36.371942 
L 435.047749 36.094869 
L 436.254791 36.276553 
L 437.461832 36.293412 
L 442.289998 36.92832 
L 443.497039 36.361571 
L 444.70408 36.469167 
L 445.911122 36.24811 
L 448.325205 36.563415 
L 449.532246 36.493904 
L 453.15337 36.994175 
L 454.360412 36.607763 
L 455.567453 36.368576 
L 457.981536 36.308462 
L 459.188577 36.448652 
L 460.395619 36.303416 
L 461.60266 36.468118 
L 462.809702 36.360475 
L 465.223784 36.641162 
L 466.430826 36.731368 
L 467.637867 36.429039 
L 468.844909 36.459142 
L 470.05195 35.965108 
L 472.466033 36.215832 
L 473.673074 36.158219 
L 477.294199 36.434959 
L 479.708281 36.692635 
L 486.95053 37.445439 
L 489.364613 37.27009 
L 490.571654 37.431408 
L 491.778696 36.324491 
L 494.192778 36.549605 
L 495.39982 36.276987 
L 500.227985 36.713574 
L 501.435027 36.189655 
L 502.642068 35.931405 
L 506.263193 36.380955 
L 507.470234 36.358257 
L 513.505441 37.062905 
L 514.712482 36.808815 
L 515.919524 36.915 
L 515.919524 36.915 
" clip-path="url(#pa45080f326)" style="fill: none; stroke-dasharray: 5.55,2.4; stroke-dashoffset: 0; stroke: #ff8c00; stroke-width: 1.5"/>
   </g>
   <g id="patch_3">
    <path d="M 34.31 98.44 
L 34.31 0 
" style="fill: none; stroke: #000000; stroke-width: 0.8; stroke-linejoin: miter; stroke-linecap: square"/>
   </g>
   <g id="patch_4">
    <path d="M 540 98.44 
L 540 0 
" style="fill: none; stroke: #000000; stroke-width: 0.8; stroke-linejoin: miter; stroke-linecap: square"/>
   </g>
   <g id="patch_5">
    <path d="M 34.31 98.44 
L 540 98.44 
" style="fill: none; stroke: #000000; stroke-width: 0.8; stroke-linejoin: miter; stroke-linecap: square"/>
   </g>
   <g id="patch_6">
    <path d="M 34.31 0 
L 540 0 
" style="fill: none; stroke: #000000; stroke-width: 0.8; stroke-linejoin: miter; stroke-linecap: square"/>
   </g>
  </g>
 </g>
 <defs>
  <clipPath id="pa45080f326">
   <rect x="34.31" y="0" width="505.69" height="98.44"/>
  </clipPath>
 </defs>
</svg>
