<?xml version="1.0" encoding="utf-8" standalone="no"?>
<!DOCTYPE svg PUBLIC "-//W3C//DTD SVG 1.1//EN"
  "http://www.w3.org/Graphics/SVG/1.1/DTD/svg11.dtd">
<svg xmlns:xlink="http://www.w3.org/1999/xlink" width="540pt" height="129.6pt" viewBox="0 0 540 129.6" xmlns="http://www.w3.org/2000/svg" version="1.1">
 <metadata>
  <rdf:RDF xmlns:dc="http://purl.org/dc/elements/1.1/" xmlns:cc="http://creativecommons.org/ns#" xmlns:rdf="http://www.w3.org/1999/02/22-rdf-syntax-ns#">
   <cc:Work>
    <dc:type rdf:resource="http://purl.org/dc/dcmitype/StillImage"/>
    <dc:date>2025-03-22T23:20:45.224412</dc:date>
    <dc:format>image/svg+xml</dc:format>
    <dc:creator>
     <cc:Agent>
      <dc:title>Matplotlib v3.8.3, https://matplotlib.org/</dc:title>
     </cc:Agent>
    </dc:creator>
   </cc:Work>
  </rdf:RDF>
 </metadata>
 <defs>
  <style type="text/css">*{stroke-linejoin: round; stroke-linecap: butt}</style>
 </defs>
 <g id="figure_1">
  <g id="patch_1">
   <path d="M 0 129.6 
L 540 129.6 
L 540 0 
L 0 0 
z
" style="fill: #ffffff"/>
  </g>
  <g id="axes_1">
   <g id="patch_2">
    <path d="M 35.03 97 
L 540 97 
L 540 0 
L 35.03 0 
z
" style="fill: #ffffff"/>
   </g>
   <g id="matplotlib.axis_1">
    <g id="xtick_1">
     <g id="line2d_1">
      <path d="M 35.03 97 
L 35.03 0 
" clip-path="url(#p007ce564ba)" style="fill: none; stroke: #b0b0b0; stroke-width: 0.8; stroke-linecap: square"/>
     </g>
     <g id="line2d_2">
      <defs>
       <path id="m1a80013906" d="M 0 0 
L 0 3.5 
" style="stroke: #000000; stroke-width: 0.8"/>
      </defs>
      <g>
       <use xlink:href="#m1a80013906" x="35.03" y="97" style="stroke: #000000; stroke-width: 0.8"/>
      </g>
     </g>
     <g id="text_1">
      <text style="font: 10px 'Times New Roman'; text-anchor: middle" x="35.03" y="110.94375" transform="rotate(-0 35.03 110.94375)">0</text>
     </g>
    </g>
    <g id="xtick_2">
     <g id="line2d_3">
      <path d="M 95.296142 97 
L 95.296142 0 
" clip-path="url(#p007ce564ba)" style="fill: none; stroke: #b0b0b0; stroke-width: 0.8; stroke-linecap: square"/>
     </g>
     <g id="line2d_4">
      <g>
       <use xlink:href="#m1a80013906" x="95.296142" y="97" style="stroke: #000000; stroke-width: 0.8"/>
      </g>
     </g>
     <g id="text_2">
      <text style="font: 10px 'Times New Roman'; text-anchor: middle" x="95.296142" y="110.94375" transform="rotate(-0 95.296142 110.94375)">50</text>
     </g>
    </g>
    <g id="xtick_3">
     <g id="line2d_5">
      <path d="M 155.562283 97 
L 155.562283 0 
" clip-path="url(#p007ce564ba)" style="fill: none; stroke: #b0b0b0; stroke-width: 0.8; stroke-linecap: square"/>
     </g>
     <g id="line2d_6">
      <g>
       <use xlink:href="#m1a80013906" x="155.562283" y="97" style="stroke: #000000; stroke-width: 0.8"/>
      </g>
     </g>
     <g id="text_3">
      <text style="font: 10px 'Times New Roman'; text-anchor: middle" x="155.562283" y="110.94375" transform="rotate(-0 155.562283 110.94375)">100</text>
     </g>
    </g>
    <g id="xtick_4">
     <g id="line2d_7">
      <path d="M 215.828425 97 
L 215.828425 0 
" clip-path="url(#p007ce564ba)" style="fill: none; stroke: #b0b0b0; stroke-width: 0.8; stroke-linecap: square"/>
     </g>
     <g id="line2d_8">
      <g>
       <use xlink:href="#m1a80013906" x="215.828425" y="97" style="stroke: #000000; stroke-width: 0.8"/>
      </g>
     </g>
     <g id="text_4">
      <text style="font: 10px 'Times New Roman'; text-anchor: middle" x="215.828425" y="110.94375" transform="rotate(-0 215.828425 110.94375)">150</text>
     </g>
    </g>
    <g id="xtick_5">
     <g id="line2d_9">
      <path d="M 276.094566 97 
L 276.094566 0 
" clip-path="url(#p007ce564ba)" style="fill: none; stroke: #b0b0b0; stroke-width: 0.8; stroke-linecap: square"/>
     </g>
     <g id="line2d_10">
      <g>
       <use xlink:href="#m1a80013906" x="276.094566" y="97" style="stroke: #000000; stroke-width: 0.8"/>
      </g>
     </g>
     <g id="text_5">
      <text style="font: 10px 'Times New Roman'; text-anchor: middle" x="276.094566" y="110.94375" transform="rotate(-0 276.094566 110.94375)">200</text>
     </g>
    </g>
    <g id="xtick_6">
     <g id="line2d_11">
      <path d="M 336.360708 97 
L 336.360708 0 
" clip-path="url(#p007ce564ba)" style="fill: none; stroke: #b0b0b0; stroke-width: 0.8; stroke-linecap: square"/>
     </g>
     <g id="line2d_12">
      <g>
       <use xlink:href="#m1a80013906" x="336.360708" y="97" style="stroke: #000000; stroke-width: 0.8"/>
      </g>
     </g>
     <g id="text_6">
      <text style="font: 10px 'Times New Roman'; text-anchor: middle" x="336.360708" y="110.94375" transform="rotate(-0 336.360708 110.94375)">250</text>
     </g>
    </g>
    <g id="xtick_7">
     <g id="line2d_13">
      <path d="M 396.626849 97 
L 396.626849 0 
" clip-path="url(#p007ce564ba)" style="fill: none; stroke: #b0b0b0; stroke-width: 0.8; stroke-linecap: square"/>
     </g>
     <g id="line2d_14">
      <g>
       <use xlink:href="#m1a80013906" x="396.626849" y="97" style="stroke: #000000; stroke-width: 0.8"/>
      </g>
     </g>
     <g id="text_7">
      <text style="font: 10px 'Times New Roman'; text-anchor: middle" x="396.626849" y="110.94375" transform="rotate(-0 396.626849 110.94375)">300</text>
     </g>
    </g>
    <g id="xtick_8">
     <g id="line2d_15">
      <path d="M 456.892991 97 
L 456.892991 0 
" clip-path="url(#p007ce564ba)" style="fill: none; stroke: #b0b0b0; stroke-width: 0.8; stroke-linecap: square"/>
     </g>
     <g id="line2d_16">
      <g>
       <use xlink:href="#m1a80013906" x="456.892991" y="97" style="stroke: #000000; stroke-width: 0.8"/>
      </g>
     </g>
     <g id="text_8">
      <text style="font: 10px 'Times New Roman'; text-anchor: middle" x="456.892991" y="110.94375" transform="rotate(-0 456.892991 110.94375)">350</text>
     </g>
    </g>
    <g id="xtick_9">
     <g id="line2d_17">
      <path d="M 517.159132 97 
L 517.159132 0 
" clip-path="url(#p007ce564ba)" style="fill: none; stroke: #b0b0b0; stroke-width: 0.8; stroke-linecap: square"/>
     </g>
     <g id="line2d_18">
      <g>
       <use xlink:href="#m1a80013906" x="517.159132" y="97" style="stroke: #000000; stroke-width: 0.8"/>
      </g>
     </g>
     <g id="text_9">
      <text style="font: 10px 'Times New Roman'; text-anchor: middle" x="517.159132" y="110.94375" transform="rotate(-0 517.159132 110.94375)">400</text>
     </g>
    </g>
    <g id="text_10">
     <text style="font: 12px 'Times New Roman'; text-anchor: middle" x="287.515" y="125.415312" transform="rotate(-0 287.515 125.415312)">Simulation Run</text>
    </g>
   </g>
   <g id="matplotlib.axis_2">
    <g id="ytick_1">
     <g id="line2d_19">
      <path d="M 35.03 97 
L 540 97 
" clip-path="url(#p007ce564ba)" style="fill: none; stroke: #b0b0b0; stroke-width: 0.8; stroke-linecap: square"/>
     </g>
     <g id="line2d_20">
      <defs>
       <path id="m9e3bd31f79" d="M 0 0 
L -3.5 0 
" style="stroke: #000000; stroke-width: 0.8"/>
      </defs>
      <g>
       <use xlink:href="#m9e3bd31f79" x="35.03" y="97" style="stroke: #000000; stroke-width: 0.8"/>
      </g>
     </g>
     <g id="text_11">
      <text style="font: 10px 'Times New Roman'; text-anchor: end" x="28.03" y="100.471875" transform="rotate(-0 28.03 100.471875)">0.0</text>
     </g>
    </g>
    <g id="ytick_2">
     <g id="line2d_21">
      <path d="M 35.03 52.909091 
L 540 52.909091 
" clip-path="url(#p007ce564ba)" style="fill: none; stroke: #b0b0b0; stroke-width: 0.8; stroke-linecap: square"/>
     </g>
     <g id="line2d_22">
      <g>
       <use xlink:href="#m9e3bd31f79" x="35.03" y="52.909091" style="stroke: #000000; stroke-width: 0.8"/>
      </g>
     </g>
     <g id="text_12">
      <text style="font: 10px 'Times New Roman'; text-anchor: end" x="28.03" y="56.380966" transform="rotate(-0 28.03 56.380966)">0.5</text>
     </g>
    </g>
    <g id="ytick_3">
     <g id="line2d_23">
      <path d="M 35.03 8.818182 
L 540 8.818182 
" clip-path="url(#p007ce564ba)" style="fill: none; stroke: #b0b0b0; stroke-width: 0.8; stroke-linecap: square"/>
     </g>
     <g id="line2d_24">
      <g>
       <use xlink:href="#m9e3bd31f79" x="35.03" y="8.818182" style="stroke: #000000; stroke-width: 0.8"/>
      </g>
     </g>
     <g id="text_13">
      <text style="font: 10px 'Times New Roman'; text-anchor: end" x="28.03" y="12.290057" transform="rotate(-0 28.03 12.290057)">1.0</text>
     </g>
    </g>
    <g id="text_14">
     <text style="font: 12px 'Times New Roman'; text-anchor: middle" x="8.963125" y="48.5" transform="rotate(-90 8.963125 48.5)">Normalized Value</text>
    </g>
   </g>
   <g id="line2d_25">
    <path d="M 35.03 39.099493 
L 36.235323 26.140095 
L 37.440646 20.17264 
L 38.645968 17.283337 
L 39.851291 18.947589 
L 41.056614 15.354964 
L 42.261937 14.313795 
L 43.46726 15.071659 
L 44.672583 16.224452 
L 45.877905 16.653851 
L 47.083228 16.79896 
L 48.288551 15.999683 
L 49.493874 17.212543 
L 50.699197 16.211006 
L 51.90452 16.650563 
L 53.109842 18.592637 
L 54.315165 16.882228 
L 55.520488 16.810929 
L 56.725811 14.755399 
L 57.931134 15.649112 
L 59.136457 14.529728 
L 60.341779 14.516193 
L 61.547102 14.785197 
L 62.752425 16.405509 
L 63.957748 16.458338 
L 65.163071 16.183297 
L 66.368394 15.493892 
L 67.573716 15.442405 
L 68.779039 14.655672 
L 69.984362 14.78055 
L 71.189685 14.333214 
L 72.395008 14.208891 
L 73.600331 15.04265 
L 74.805653 14.996761 
L 76.010976 14.618021 
L 77.216299 13.282488 
L 78.421622 13.577213 
L 79.626945 13.173564 
L 80.832268 12.925882 
L 83.242913 13.167992 
L 84.448236 12.725976 
L 85.653559 12.44679 
L 86.858882 12.880968 
L 88.064205 13.132399 
L 89.269527 13.21632 
L 91.680173 12.856846 
L 92.885496 12.480165 
L 94.090819 12.96714 
L 95.296142 13.050557 
L 96.501464 13.342291 
L 97.706787 13.46148 
L 98.91211 12.73147 
L 100.117433 12.656009 
L 101.322756 12.909359 
L 102.528079 13.393136 
L 103.733401 12.983559 
L 104.938724 13.443835 
L 106.144047 14.096307 
L 107.34937 13.655693 
L 109.760016 14.029028 
L 113.375984 13.282477 
L 114.581307 12.859469 
L 115.78663 12.913044 
L 116.991953 12.439094 
L 118.197275 12.326902 
L 119.402598 12.787975 
L 124.223889 13.099254 
L 125.429212 13.227203 
L 126.634535 13.160374 
L 127.839858 13.227996 
L 130.250504 12.53838 
L 131.455826 12.801131 
L 132.661149 12.412121 
L 133.866472 12.507948 
L 135.071795 12.486726 
L 136.277118 12.812581 
L 138.687763 13.022485 
L 139.893086 13.000382 
L 141.098409 13.378482 
L 142.303732 13.562958 
L 144.714378 12.938588 
L 147.125023 13.287817 
L 148.330346 12.435903 
L 149.535669 12.887179 
L 150.740992 12.911414 
L 151.946315 12.527741 
L 155.562283 12.631714 
L 156.767606 12.207054 
L 157.972929 12.200967 
L 159.178252 12.409184 
L 160.383574 12.098794 
L 163.999543 11.871791 
L 165.204866 11.510544 
L 166.410189 11.828205 
L 167.615511 12.006102 
L 170.026157 12.076311 
L 172.436803 12.378365 
L 173.642126 11.972452 
L 174.847448 12.012638 
L 177.258094 11.794604 
L 178.463417 12.013597 
L 179.66874 11.901427 
L 180.874063 12.135841 
L 183.284708 11.973954 
L 185.695354 12.196082 
L 186.900677 11.826849 
L 190.516645 11.714554 
L 191.721968 11.791139 
L 192.927291 11.561146 
L 195.337937 11.673961 
L 197.748582 11.432967 
L 198.953905 10.986224 
L 202.569873 11.46886 
L 206.185842 11.610729 
L 207.391165 11.141629 
L 209.80181 11.353037 
L 212.212456 10.89754 
L 214.623102 10.901867 
L 215.828425 10.88553 
L 218.23907 10.296681 
L 219.444393 10.348108 
L 220.649716 10.619793 
L 221.855039 10.511204 
L 223.060362 10.692266 
L 224.265684 10.721083 
L 225.471007 10.559996 
L 226.67633 10.577179 
L 229.086976 10.771307 
L 230.292299 10.823786 
L 231.497621 10.544192 
L 232.702944 10.685552 
L 235.11359 10.692918 
L 236.318913 10.766215 
L 237.524236 10.496236 
L 238.729558 10.485061 
L 239.934881 10.233094 
L 241.140204 10.387831 
L 242.345527 9.984355 
L 243.55085 9.938133 
L 244.756173 9.626775 
L 250.782787 9.950986 
L 253.193432 10.234607 
L 255.604078 10.444505 
L 258.014724 10.271836 
L 259.220047 10.405488 
L 261.630692 10.038571 
L 262.836015 10.222815 
L 264.041338 10.231814 
L 267.657306 9.96808 
L 272.478598 10.19735 
L 273.683921 9.923172 
L 276.094566 9.842933 
L 277.299889 9.697182 
L 278.505212 9.85334 
L 280.915858 9.811256 
L 282.12118 9.804653 
L 283.326503 9.504877 
L 284.531826 9.594938 
L 285.737149 9.437596 
L 291.763763 9.257711 
L 296.585054 8.921477 
L 297.790377 8.950423 
L 298.9957 8.756736 
L 301.406346 8.668573 
L 303.816991 8.889497 
L 305.022314 8.870375 
L 306.227637 9.002655 
L 311.048928 8.911116 
L 312.254251 8.758828 
L 314.664897 8.66935 
L 315.87022 8.419655 
L 318.280865 8.293491 
L 321.896834 8.378618 
L 323.102157 8.536681 
L 324.307479 8.474471 
L 325.512802 8.625709 
L 326.718125 8.599694 
L 329.128771 8.81175 
L 332.744739 8.61748 
L 335.155385 8.559852 
L 336.360708 8.397845 
L 343.592645 8.472575 
L 344.797968 8.347459 
L 348.413936 8.419556 
L 349.619259 8.216145 
L 355.645873 8.301428 
L 358.056519 8.574736 
L 359.261842 8.606663 
L 360.467164 8.404834 
L 365.288456 8.409829 
L 366.493778 8.329839 
L 367.699101 8.427713 
L 368.904424 8.337549 
L 371.31507 8.504168 
L 373.725715 8.485035 
L 376.136361 8.575437 
L 380.957652 8.382729 
L 382.162975 8.44479 
L 383.368298 8.364298 
L 385.778944 8.442044 
L 386.984267 8.441329 
L 388.189589 8.219374 
L 389.394912 8.327673 
L 390.600235 8.13364 
L 407.474755 8.340002 
L 408.680078 8.327937 
L 409.8854 8.441292 
L 418.32266 8.403141 
L 420.733306 8.46328 
L 423.143952 8.394118 
L 424.349274 8.477509 
L 425.554597 8.35335 
L 438.813148 8.638105 
L 441.223794 8.741127 
L 447.250408 8.872382 
L 453.277022 8.878248 
L 462.919605 8.721026 
L 464.124928 8.650525 
L 466.535573 8.713259 
L 467.740896 8.647668 
L 468.946219 8.769499 
L 470.151542 8.669267 
L 477.383479 8.985935 
L 478.588802 8.850935 
L 482.20477 8.702775 
L 484.615416 8.605508 
L 499.07929 8.837503 
L 500.284613 8.658385 
L 502.695258 8.758524 
L 503.900581 8.656066 
L 508.721873 8.771643 
L 509.927195 8.649076 
L 513.543164 8.811743 
L 515.95381 8.818182 
L 515.95381 8.818182 
" clip-path="url(#p007ce564ba)" style="fill: none; stroke: #4169e1; stroke-width: 1.5; stroke-linecap: square"/>
   </g>
   <g id="line2d_26">
    <path d="M 35.03 97 
L 36.235323 70.550495 
L 37.440646 68.150528 
L 39.851291 74.790183 
L 41.056614 68.32836 
L 42.261937 71.399974 
L 43.46726 73.966795 
L 44.672583 74.851712 
L 47.083228 78.607927 
L 48.288551 79.033888 
L 49.493874 77.635859 
L 50.699197 76.965367 
L 51.90452 77.875013 
L 53.109842 70.160467 
L 54.315165 64.367557 
L 55.520488 66.16686 
L 56.725811 55.812106 
L 57.931134 55.481502 
L 59.136457 53.511853 
L 60.341779 55.487981 
L 61.547102 57.042133 
L 62.752425 49.197202 
L 63.957748 51.098765 
L 65.163071 52.566358 
L 66.368394 52.265927 
L 67.573716 53.8523 
L 68.779039 52.610789 
L 69.984362 54.019207 
L 71.189685 54.460239 
L 72.395008 55.714147 
L 73.600331 53.461922 
L 74.805653 54.73151 
L 76.010976 55.171096 
L 77.216299 46.501393 
L 78.421622 47.373746 
L 79.626945 47.730283 
L 80.832268 48.626476 
L 83.242913 50.805902 
L 84.448236 50.644199 
L 85.653559 51.206676 
L 86.858882 50.970843 
L 88.064205 51.55565 
L 89.269527 52.493659 
L 90.47485 53.260642 
L 91.680173 53.870259 
L 92.885496 53.67786 
L 94.090819 52.714277 
L 95.296142 53.52783 
L 96.501464 53.680249 
L 97.706787 54.381265 
L 98.91211 50.722336 
L 100.117433 51.51532 
L 101.322756 51.771574 
L 102.528079 50.500978 
L 103.733401 49.796795 
L 104.938724 48.661713 
L 106.144047 45.511639 
L 107.34937 44.521212 
L 109.760016 45.517097 
L 110.965338 45.810101 
L 112.170661 46.393102 
L 113.375984 45.704456 
L 114.581307 44.61016 
L 115.78663 45.350313 
L 116.991953 43.693274 
L 118.197275 44.31802 
L 119.402598 42.716415 
L 123.018567 44.745786 
L 125.429212 45.65308 
L 127.839858 46.861446 
L 129.045181 46.163561 
L 130.250504 45.184292 
L 131.455826 44.954178 
L 132.661149 43.65846 
L 135.071795 44.805434 
L 136.277118 44.014816 
L 138.687763 44.934054 
L 139.893086 45.519019 
L 141.098409 44.116185 
L 142.303732 44.22678 
L 143.509055 43.036821 
L 144.714378 42.570846 
L 145.9197 42.437789 
L 147.125023 42.783602 
L 148.330346 32.610262 
L 149.535669 30.234098 
L 150.740992 30.913526 
L 151.946315 29.339117 
L 153.151637 29.957833 
L 155.562283 30.98228 
L 156.767606 28.761037 
L 157.972929 29.422956 
L 159.178252 29.369472 
L 160.383574 28.43561 
L 161.588897 28.969408 
L 162.79422 29.057103 
L 163.999543 29.663292 
L 165.204866 28.061427 
L 166.410189 26.95592 
L 167.615511 27.038701 
L 168.820834 27.660314 
L 170.026157 28.151255 
L 171.23148 27.99889 
L 172.436803 28.433771 
L 173.642126 26.040778 
L 174.847448 26.617764 
L 177.258094 27.36216 
L 178.463417 27.04369 
L 179.66874 27.384054 
L 180.874063 26.907544 
L 183.284708 27.785982 
L 184.490031 27.971884 
L 185.695354 28.377864 
L 186.900677 26.212868 
L 191.721968 28.071742 
L 192.927291 27.502613 
L 194.132614 27.842986 
L 195.337937 28.351357 
L 196.543259 28.486369 
L 197.748582 28.742348 
L 198.953905 24.965901 
L 200.159228 24.739955 
L 201.364551 23.979 
L 203.775196 24.881145 
L 204.980519 24.947707 
L 206.185842 25.381847 
L 207.391165 20.923373 
L 208.596488 21.356656 
L 209.80181 21.375043 
L 212.212456 20.011547 
L 215.828425 21.446452 
L 218.23907 18.310933 
L 219.444393 18.758174 
L 220.649716 17.47277 
L 221.855039 17.694719 
L 223.060362 17.394414 
L 224.265684 17.877715 
L 225.471007 17.729644 
L 226.67633 18.217691 
L 227.881653 18.272375 
L 230.292299 19.068734 
L 231.497621 17.537181 
L 232.702944 17.502657 
L 235.11359 18.376583 
L 236.318913 18.703284 
L 237.524236 17.238094 
L 238.729558 17.703958 
L 239.934881 16.467932 
L 241.140204 16.291328 
L 242.345527 12.34812 
L 243.55085 12.776416 
L 244.756173 10.601142 
L 247.166818 11.48657 
L 248.372141 11.964688 
L 249.577464 11.39658 
L 250.782787 11.741651 
L 251.98811 11.424322 
L 253.193432 11.505269 
L 254.398755 11.80932 
L 256.809401 11.698007 
L 258.014724 12.111219 
L 260.425369 11.953537 
L 261.630692 10.81717 
L 262.836015 10.260365 
L 264.041338 10.712076 
L 265.246661 10.696055 
L 266.451984 11.129276 
L 267.657306 11.149658 
L 272.478598 12.481927 
L 273.683921 10.562533 
L 276.094566 11.318928 
L 278.505212 10.718175 
L 280.915858 11.420245 
L 282.12118 11.834273 
L 283.326503 9.330232 
L 284.531826 9.487304 
L 285.737149 9.095061 
L 286.942472 9.505706 
L 288.147794 9.757425 
L 289.353117 9.594764 
L 291.763763 10.234224 
L 294.174409 10.577352 
L 295.379731 10.26456 
L 297.790377 11.002602 
L 298.9957 10.099629 
L 301.406346 10.724688 
L 302.611668 10.4307 
L 303.816991 10.58462 
L 305.022314 10.955789 
L 306.227637 10.716478 
L 307.43296 11.09635 
L 308.638283 11.194485 
L 309.843605 11.545326 
L 312.254251 10.621035 
L 313.459574 10.990797 
L 314.664897 11.009967 
L 315.87022 9.089623 
L 317.075542 9.107143 
L 320.691511 10.124316 
L 321.896834 10.194206 
L 323.102157 9.615509 
L 324.307479 9.83182 
L 325.512802 9.323888 
L 326.718125 9.658902 
L 327.923448 9.375577 
L 330.334094 9.566744 
L 331.539416 9.440413 
L 335.155385 10.383795 
L 336.360708 9.695518 
L 338.771353 10.357154 
L 339.976676 10.225243 
L 341.181999 9.933726 
L 343.592645 10.544654 
L 344.797968 10.246157 
L 348.413936 11.135915 
L 349.619259 9.762914 
L 350.824582 10.094194 
L 352.029905 10.2747 
L 353.235227 9.370986 
L 354.44055 9.639941 
L 355.645873 8.860108 
L 356.851196 7.909181 
L 358.056519 7.827971 
L 359.261842 8.115054 
L 360.467164 6.710927 
L 365.288456 7.969536 
L 366.493778 8.015002 
L 370.109747 7.719429 
L 372.520393 8.137762 
L 374.931038 8.654998 
L 376.136361 8.884131 
L 377.341684 8.94157 
L 378.547007 9.202907 
L 379.75233 8.326642 
L 384.573621 8.588447 
L 386.984267 9.189592 
L 388.189589 7.215022 
L 389.394912 6.976323 
L 390.600235 5.531331 
L 399.037495 7.567179 
L 400.242818 7.287195 
L 401.448141 7.449026 
L 402.653463 7.343932 
L 403.858786 7.379607 
L 405.064109 7.020396 
L 406.269432 7.272213 
L 407.474755 7.17721 
L 408.680078 7.458923 
L 409.8854 7.116567 
L 412.296046 7.666744 
L 415.912015 8.098948 
L 417.117337 7.880877 
L 419.527983 8.040042 
L 421.938629 8.513547 
L 423.143952 8.742408 
L 424.349274 8.661056 
L 425.554597 8.146269 
L 426.75992 8.395839 
L 429.170566 8.61049 
L 430.375889 8.539178 
L 431.581211 8.80724 
L 432.786534 8.601803 
L 433.991857 8.756229 
L 435.19718 8.647907 
L 437.607826 9.060017 
L 438.813148 9.066337 
L 440.018471 8.869598 
L 442.429117 9.268694 
L 443.63444 9.19527 
L 444.839763 9.430592 
L 446.045085 9.326891 
L 447.250408 9.415848 
L 448.455731 9.651841 
L 449.661054 9.663011 
L 450.866377 9.277178 
L 454.482345 9.921978 
L 456.892991 10.339889 
L 458.098314 10.071772 
L 459.303636 10.267327 
L 460.508959 10.143892 
L 462.919605 10.589078 
L 464.124928 10.552455 
L 465.330251 10.634985 
L 466.535573 10.870398 
L 467.740896 10.866403 
L 468.946219 10.263474 
L 470.151542 9.931908 
L 471.356865 9.944724 
L 472.562188 9.449234 
L 476.178156 9.782683 
L 477.383479 10.019645 
L 478.588802 9.199131 
L 479.794125 9.42425 
L 480.999447 9.282321 
L 482.20477 9.353111 
L 483.410093 9.188304 
L 485.820739 9.609256 
L 488.231384 9.821379 
L 491.847353 10.43771 
L 493.052676 10.354982 
L 497.873967 11.057469 
L 499.07929 11.126963 
L 500.284613 9.398517 
L 501.489936 9.098117 
L 502.695258 9.320898 
L 503.900581 8.902601 
L 506.311227 9.12361 
L 508.721873 9.515952 
L 509.927195 8.805265 
L 511.132518 8.743963 
L 512.337841 8.966119 
L 513.543164 8.603207 
L 515.95381 8.818182 
L 515.95381 8.818182 
" clip-path="url(#p007ce564ba)" style="fill: none; stroke-dasharray: 5.55,2.4; stroke-dashoffset: 0; stroke: #4169e1; stroke-width: 1.5"/>
   </g>
   <g id="line2d_27">
    <path d="M 35.03 42.245505 
L 36.235323 28.740412 
L 37.440646 21.843359 
L 38.645968 17.893621 
L 39.851291 19.910905 
L 41.056614 16.061132 
L 42.261937 15.187945 
L 43.46726 15.996674 
L 44.672583 17.387587 
L 47.083228 17.835373 
L 48.288551 16.828038 
L 49.493874 17.685517 
L 50.699197 16.385839 
L 51.90452 16.850895 
L 53.109842 18.618607 
L 54.315165 17.019336 
L 55.520488 16.852044 
L 56.725811 14.681121 
L 57.931134 15.496508 
L 59.136457 14.521031 
L 60.341779 14.501711 
L 61.547102 14.844479 
L 62.752425 16.480494 
L 65.163071 16.452987 
L 66.368394 15.646732 
L 67.573716 15.634677 
L 68.779039 15.148678 
L 69.984362 15.264443 
L 71.189685 14.604809 
L 72.395008 14.488338 
L 73.600331 15.325513 
L 74.805653 15.429787 
L 76.010976 14.954682 
L 77.216299 13.677977 
L 78.421622 13.79297 
L 79.626945 13.285 
L 80.832268 12.995802 
L 83.242913 13.133658 
L 85.653559 12.445965 
L 86.858882 12.877281 
L 88.064205 13.100124 
L 90.47485 12.955817 
L 91.680173 12.811109 
L 92.885496 12.375877 
L 94.090819 12.708438 
L 95.296142 12.844487 
L 96.501464 13.1459 
L 97.706787 13.225839 
L 98.91211 12.56483 
L 100.117433 12.429839 
L 101.322756 12.673423 
L 102.528079 13.20664 
L 103.733401 12.931003 
L 104.938724 13.328343 
L 106.144047 13.925533 
L 107.34937 13.601905 
L 109.760016 13.968523 
L 113.375984 13.426863 
L 114.581307 13.067239 
L 115.78663 13.172211 
L 116.991953 12.718956 
L 118.197275 12.666539 
L 119.402598 13.174781 
L 125.429212 13.5493 
L 126.634535 13.441895 
L 127.839858 13.535009 
L 130.250504 12.807422 
L 131.455826 13.014552 
L 132.661149 12.668466 
L 135.071795 12.802118 
L 136.277118 13.18534 
L 139.893086 13.340802 
L 141.098409 13.708367 
L 142.303732 13.765385 
L 144.714378 13.185725 
L 145.9197 13.412733 
L 147.125023 13.518507 
L 148.330346 12.724796 
L 149.535669 13.145936 
L 150.740992 13.206708 
L 151.946315 12.863148 
L 153.151637 12.895862 
L 154.35696 13.049629 
L 155.562283 12.8838 
L 156.767606 12.399029 
L 157.972929 12.408032 
L 159.178252 12.615447 
L 160.383574 12.267822 
L 163.999543 12.024339 
L 165.204866 11.696855 
L 166.410189 12.051021 
L 167.615511 12.204837 
L 170.026157 12.2991 
L 172.436803 12.607424 
L 173.642126 12.186984 
L 174.847448 12.257053 
L 177.258094 12.031145 
L 178.463417 12.304682 
L 179.66874 12.155703 
L 180.874063 12.330866 
L 183.284708 12.125625 
L 185.695354 12.32397 
L 186.900677 11.953745 
L 190.516645 11.825701 
L 191.721968 11.919891 
L 192.927291 11.693605 
L 195.337937 11.789428 
L 197.748582 11.504969 
L 198.953905 11.175829 
L 202.569873 11.652007 
L 203.775196 11.66012 
L 204.980519 11.787916 
L 206.185842 11.740348 
L 207.391165 11.261096 
L 209.80181 11.496427 
L 212.212456 11.034679 
L 215.828425 11.079199 
L 218.23907 10.601142 
L 219.444393 10.627701 
L 220.649716 10.892785 
L 221.855039 10.800653 
L 223.060362 10.979651 
L 224.265684 11.016293 
L 225.471007 10.825394 
L 227.881653 10.959962 
L 230.292299 11.07663 
L 231.497621 10.788428 
L 232.702944 10.930896 
L 235.11359 10.966316 
L 236.318913 11.063047 
L 237.524236 10.799997 
L 238.729558 10.769009 
L 239.934881 10.528961 
L 241.140204 10.69717 
L 242.345527 10.302527 
L 243.55085 10.265437 
L 244.756173 9.961482 
L 249.577464 10.17575 
L 251.98811 10.369142 
L 254.398755 10.570416 
L 255.604078 10.651263 
L 258.014724 10.499221 
L 259.220047 10.633209 
L 261.630692 10.287382 
L 262.836015 10.465968 
L 264.041338 10.460726 
L 265.246661 10.325399 
L 266.451984 10.334358 
L 267.657306 10.200831 
L 272.478598 10.43305 
L 273.683921 10.117534 
L 276.094566 10.045703 
L 277.299889 9.906495 
L 278.505212 10.048568 
L 280.915858 10.002536 
L 282.12118 10.013103 
L 283.326503 9.722427 
L 284.531826 9.79437 
L 285.737149 9.655847 
L 291.763763 9.517054 
L 296.585054 9.217846 
L 297.790377 9.238411 
L 298.9957 9.050946 
L 301.406346 8.957627 
L 303.816991 9.148901 
L 305.022314 9.104081 
L 306.227637 9.216031 
L 311.048928 9.093172 
L 312.254251 8.904859 
L 314.664897 8.779664 
L 315.87022 8.554017 
L 318.280865 8.457517 
L 321.896834 8.52317 
L 323.102157 8.687656 
L 324.307479 8.628729 
L 325.512802 8.785147 
L 326.718125 8.738571 
L 329.128771 8.926995 
L 332.744739 8.742206 
L 335.155385 8.665959 
L 336.360708 8.482905 
L 339.976676 8.586233 
L 341.181999 8.456849 
L 348.413936 8.402089 
L 349.619259 8.240588 
L 355.645873 8.318021 
L 358.056519 8.567143 
L 359.261842 8.596664 
L 360.467164 8.405104 
L 362.87781 8.395566 
L 366.493778 8.294756 
L 367.699101 8.383122 
L 368.904424 8.297119 
L 371.31507 8.451577 
L 374.931038 8.508958 
L 376.136361 8.559234 
L 380.957652 8.388586 
L 382.162975 8.43734 
L 383.368298 8.365979 
L 385.778944 8.423247 
L 386.984267 8.424926 
L 388.189589 8.2137 
L 389.394912 8.340926 
L 390.600235 8.149286 
L 399.037495 8.22593 
L 400.242818 8.329863 
L 401.448141 8.272536 
L 402.653463 8.359233 
L 403.858786 8.280613 
L 406.269432 8.399878 
L 408.680078 8.317518 
L 409.8854 8.440305 
L 413.501369 8.421127 
L 415.912015 8.462419 
L 417.117337 8.362749 
L 420.733306 8.500735 
L 423.143952 8.436574 
L 424.349274 8.521102 
L 425.554597 8.416895 
L 438.813148 8.619356 
L 441.223794 8.704124 
L 447.250408 8.821638 
L 456.892991 8.860072 
L 458.098314 8.76381 
L 459.303636 8.812493 
L 461.714282 8.672073 
L 470.151542 8.629422 
L 476.178156 8.943056 
L 477.383479 8.947589 
L 478.588802 8.813408 
L 480.999447 8.742542 
L 484.615416 8.603634 
L 489.436707 8.690537 
L 495.463321 8.820458 
L 497.873967 8.837842 
L 499.07929 8.782256 
L 500.284613 8.613989 
L 502.695258 8.718732 
L 503.900581 8.619785 
L 508.721873 8.755876 
L 509.927195 8.649975 
L 513.543164 8.80812 
L 515.95381 8.818182 
L 515.95381 8.818182 
" clip-path="url(#p007ce564ba)" style="fill: none; stroke: #ff8c00; stroke-width: 1.5; stroke-linecap: square"/>
   </g>
   <g id="line2d_28">
    <path d="M 35.03 97 
L 36.235323 66.544079 
L 37.440646 60.809355 
L 38.645968 62.041918 
L 39.851291 66.315404 
L 41.056614 59.055311 
L 42.261937 63.712072 
L 43.46726 67.108558 
L 44.672583 67.845388 
L 45.877905 70.651511 
L 47.083228 72.993887 
L 48.288551 73.13052 
L 49.493874 73.493289 
L 50.699197 71.505508 
L 51.90452 72.699532 
L 53.109842 66.39139 
L 54.315165 61.358437 
L 55.520488 63.259077 
L 56.725811 50.869223 
L 57.931134 51.066368 
L 59.136457 50.075782 
L 60.341779 52.207392 
L 61.547102 53.723279 
L 62.752425 45.246802 
L 65.163071 49.220431 
L 66.368394 48.167797 
L 67.573716 49.911149 
L 68.779039 50.430559 
L 69.984362 51.917977 
L 71.189685 51.1925 
L 72.395008 52.553762 
L 73.600331 50.155555 
L 74.805653 51.473416 
L 76.010976 51.492625 
L 77.216299 43.230382 
L 78.421622 44.604122 
L 79.626945 44.388717 
L 80.832268 45.207022 
L 83.242913 47.652941 
L 84.448236 47.903665 
L 85.653559 48.326012 
L 86.858882 48.096456 
L 88.064205 48.818339 
L 89.269527 49.862804 
L 91.680173 51.546022 
L 92.885496 50.955348 
L 94.090819 50.97131 
L 95.296142 51.719294 
L 96.501464 51.81638 
L 97.706787 52.613413 
L 98.91211 49.56845 
L 100.117433 50.266525 
L 101.322756 50.556125 
L 102.528079 48.712206 
L 103.733401 48.821609 
L 104.938724 48.109118 
L 106.144047 45.410351 
L 107.34937 45.206734 
L 109.760016 46.162929 
L 110.965338 46.685718 
L 112.170661 47.414479 
L 113.375984 47.082687 
L 114.581307 46.402385 
L 115.78663 47.023186 
L 116.991953 45.414725 
L 118.197275 46.12 
L 119.402598 43.81726 
L 120.607921 44.508155 
L 121.813244 45.049274 
L 123.018567 45.74267 
L 127.839858 47.932342 
L 129.045181 46.614715 
L 130.250504 45.703578 
L 131.455826 45.763737 
L 132.661149 44.768513 
L 133.866472 45.211377 
L 135.071795 45.823918 
L 136.277118 44.366036 
L 139.893086 45.967807 
L 141.098409 44.555893 
L 142.303732 45.090289 
L 143.509055 44.018019 
L 144.714378 43.651418 
L 145.9197 43.43339 
L 147.125023 43.829499 
L 148.330346 34.500711 
L 149.535669 32.338199 
L 150.740992 32.945611 
L 151.946315 31.68738 
L 153.151637 32.329591 
L 155.562283 32.763993 
L 156.767606 29.430341 
L 157.972929 30.084977 
L 159.178252 29.988453 
L 160.383574 28.528046 
L 161.588897 28.973551 
L 162.79422 29.022422 
L 163.999543 29.614802 
L 165.204866 28.298907 
L 166.410189 26.640407 
L 167.615511 26.839694 
L 168.820834 27.465112 
L 170.026157 27.939328 
L 171.23148 27.849921 
L 172.436803 28.193403 
L 173.642126 25.39202 
L 174.847448 25.908954 
L 177.258094 26.603504 
L 178.463417 25.703331 
L 179.66874 25.847821 
L 180.874063 25.811103 
L 183.284708 26.527649 
L 185.695354 27.238545 
L 186.900677 24.903948 
L 190.516645 26.351249 
L 191.721968 26.697964 
L 192.927291 26.110436 
L 194.132614 26.504827 
L 195.337937 27.024848 
L 197.748582 27.147881 
L 198.953905 25.197508 
L 200.159228 25.028443 
L 201.364551 24.18734 
L 203.775196 25.136327 
L 204.980519 25.25788 
L 206.185842 25.705919 
L 207.391165 20.716481 
L 208.596488 21.041117 
L 209.80181 21.060704 
L 211.007133 19.906997 
L 212.212456 19.446016 
L 213.417779 19.962874 
L 214.623102 20.326215 
L 215.828425 20.822886 
L 217.033747 19.420742 
L 218.23907 18.878612 
L 219.444393 19.367872 
L 220.649716 18.061695 
L 221.855039 18.34801 
L 223.060362 18.014343 
L 224.265684 18.479052 
L 225.471007 18.011414 
L 226.67633 18.495375 
L 227.881653 18.626949 
L 230.292299 19.405156 
L 231.497621 17.617515 
L 232.702944 17.542778 
L 235.11359 18.432657 
L 236.318913 18.639389 
L 237.524236 17.161887 
L 238.729558 17.604424 
L 239.934881 16.432963 
L 241.140204 16.093455 
L 242.345527 12.087977 
L 243.55085 12.536236 
L 244.756173 10.334502 
L 248.372141 11.708887 
L 249.577464 11.277714 
L 250.782787 11.65132 
L 253.193432 11.493605 
L 255.604078 12.091328 
L 256.809401 12.046864 
L 258.014724 12.48575 
L 260.425369 12.331275 
L 261.630692 11.267797 
L 262.836015 10.712472 
L 264.041338 11.163367 
L 265.246661 11.026351 
L 266.451984 11.469237 
L 267.657306 11.335508 
L 270.067952 11.999852 
L 271.273275 12.242147 
L 272.478598 12.610122 
L 273.683921 9.742754 
L 276.094566 10.522591 
L 278.505212 10.0465 
L 279.710535 10.27411 
L 282.12118 11.080717 
L 283.326503 8.589356 
L 284.531826 8.835505 
L 285.737149 8.59087 
L 286.942472 9.007531 
L 288.147794 9.097949 
L 289.353117 9.068649 
L 291.763763 9.656097 
L 292.969086 9.734229 
L 294.174409 10.093682 
L 295.379731 9.819828 
L 297.790377 10.564982 
L 298.9957 9.672701 
L 301.406346 10.291092 
L 302.611668 10.055096 
L 305.022314 10.612828 
L 306.227637 10.524196 
L 308.638283 11.134728 
L 309.843605 11.486024 
L 311.048928 11.181524 
L 312.254251 10.191069 
L 313.459574 10.562989 
L 314.664897 10.39867 
L 315.87022 8.787741 
L 317.075542 8.785657 
L 320.691511 9.892048 
L 321.896834 9.993343 
L 323.102157 9.276097 
L 324.307479 9.500932 
L 325.512802 8.87788 
L 326.718125 9.152861 
L 327.923448 9.075287 
L 331.539416 9.182776 
L 333.950062 9.887533 
L 335.155385 9.999957 
L 336.360708 8.9477 
L 338.771353 9.610593 
L 339.976676 9.551141 
L 341.181999 9.184053 
L 343.592645 9.857362 
L 344.797968 9.525027 
L 347.208613 10.187923 
L 348.413936 10.380259 
L 349.619259 9.574122 
L 350.824582 9.90591 
L 352.029905 10.117243 
L 353.235227 9.166026 
L 354.44055 9.415802 
L 356.851196 7.8469 
L 358.056519 7.817673 
L 359.261842 8.108831 
L 360.467164 6.782402 
L 365.288456 7.885298 
L 368.904424 7.85083 
L 370.109747 7.645805 
L 372.520393 8.172273 
L 373.725715 8.484216 
L 378.547007 9.19742 
L 379.75233 8.549555 
L 384.573621 9.036445 
L 386.984267 9.636612 
L 388.189589 7.750837 
L 389.394912 7.258724 
L 390.600235 5.752753 
L 396.626849 7.201704 
L 399.037495 7.711358 
L 400.242818 7.458528 
L 401.448141 7.585276 
L 405.064109 7.240919 
L 406.269432 7.51373 
L 407.474755 7.432678 
L 408.680078 7.720405 
L 409.8854 7.22359 
L 413.501369 7.996915 
L 414.706692 8.022311 
L 415.912015 8.260117 
L 417.117337 8.013325 
L 419.527983 8.129008 
L 420.733306 8.400624 
L 421.938629 8.544715 
L 423.143952 8.806931 
L 424.349274 8.693759 
L 425.554597 8.377954 
L 426.75992 8.643638 
L 427.965243 8.65353 
L 429.170566 8.812257 
L 430.375889 8.74709 
L 431.581211 9.014327 
L 432.786534 8.798069 
L 433.991857 8.947107 
L 435.19718 8.918836 
L 436.402503 9.178109 
L 438.813148 9.368233 
L 440.018471 9.225802 
L 442.429117 9.63468 
L 443.63444 9.537386 
L 444.839763 9.779665 
L 447.250408 9.482334 
L 449.661054 9.860759 
L 450.866377 9.511873 
L 456.892991 10.513471 
L 458.098314 10.216058 
L 459.303636 10.322599 
L 460.508959 10.070004 
L 461.714282 10.175516 
L 462.919605 10.413263 
L 464.124928 10.340978 
L 465.330251 10.393255 
L 466.535573 10.596475 
L 467.740896 10.554973 
L 468.946219 10.029193 
L 472.562188 9.409201 
L 474.972833 9.427204 
L 477.383479 9.878742 
L 478.588802 9.008457 
L 479.794125 9.245308 
L 483.410093 9.181375 
L 485.820739 9.530618 
L 487.026062 9.540286 
L 489.436707 9.849185 
L 491.847353 10.283708 
L 493.052676 10.196356 
L 497.873967 10.96773 
L 499.07929 10.991972 
L 500.284613 9.389222 
L 501.489936 9.057763 
L 502.695258 9.274689 
L 503.900581 8.863663 
L 506.311227 9.044015 
L 507.51655 9.266986 
L 508.721873 9.374146 
L 509.927195 8.858134 
L 511.132518 8.825332 
L 512.337841 9.045597 
L 513.543164 8.587769 
L 515.95381 8.818182 
L 515.95381 8.818182 
" clip-path="url(#p007ce564ba)" style="fill: none; stroke-dasharray: 5.55,2.4; stroke-dashoffset: 0; stroke: #ff8c00; stroke-width: 1.5"/>
   </g>
   <g id="patch_3">
    <path d="M 35.03 97 
L 35.03 0 
" style="fill: none; stroke: #000000; stroke-width: 0.8; stroke-linejoin: miter; stroke-linecap: square"/>
   </g>
   <g id="patch_4">
    <path d="M 540 97 
L 540 0 
" style="fill: none; stroke: #000000; stroke-width: 0.8; stroke-linejoin: miter; stroke-linecap: square"/>
   </g>
   <g id="patch_5">
    <path d="M 35.03 97 
L 540 97 
" style="fill: none; stroke: #000000; stroke-width: 0.8; stroke-linejoin: miter; stroke-linecap: square"/>
   </g>
   <g id="patch_6">
    <path d="M 35.03 0 
L 540 0 
" style="fill: none; stroke: #000000; stroke-width: 0.8; stroke-linejoin: miter; stroke-linecap: square"/>
   </g>
  </g>
 </g>
 <defs>
  <clipPath id="p007ce564ba">
   <rect x="35.03" y="0" width="504.97" height="97"/>
  </clipPath>
 </defs>
</svg>
