<?xml version="1.0" encoding="utf-8" standalone="no"?>
<!DOCTYPE svg PUBLIC "-//W3C//DTD SVG 1.1//EN"
  "http://www.w3.org/Graphics/SVG/1.1/DTD/svg11.dtd">
<svg xmlns:xlink="http://www.w3.org/1999/xlink" width="540pt" height="129.6pt" viewBox="0 0 540 129.6" xmlns="http://www.w3.org/2000/svg" version="1.1">
 <metadata>
  <rdf:RDF xmlns:dc="http://purl.org/dc/elements/1.1/" xmlns:cc="http://creativecommons.org/ns#" xmlns:rdf="http://www.w3.org/1999/02/22-rdf-syntax-ns#">
   <cc:Work>
    <dc:type rdf:resource="http://purl.org/dc/dcmitype/StillImage"/>
    <dc:date>2025-04-06T13:49:40.393167</dc:date>
    <dc:format>image/svg+xml</dc:format>
    <dc:creator>
     <cc:Agent>
      <dc:title>Matplotlib v3.10.1, https://matplotlib.org/</dc:title>
     </cc:Agent>
    </dc:creator>
   </cc:Work>
  </rdf:RDF>
 </metadata>
 <defs>
  <style type="text/css">*{stroke-linejoin: round; stroke-linecap: butt}</style>
 </defs>
 <g id="figure_1">
  <g id="patch_1">
   <path d="M 0 129.6 
L 540 129.6 
L 540 0 
L 0 0 
z
" style="fill: #ffffff"/>
  </g>
  <g id="axes_1">
   <g id="patch_2">
    <path d="M 34.31 98.44 
L 540 98.44 
L 540 3.6 
L 34.31 3.6 
z
" style="fill: #ffffff"/>
   </g>
   <g id="matplotlib.axis_1">
    <g id="xtick_1">
     <g id="line2d_1">
      <path d="M 34.31 98.44 
L 34.31 3.6 
" clip-path="url(#p3ad0ab2f49)" style="fill: none; stroke: #b0b0b0; stroke-width: 0.8; stroke-linecap: square"/>
     </g>
     <g id="line2d_2">
      <defs>
       <path id="m8c3bbb8a8e" d="M 0 0 
L 0 3.5 
" style="stroke: #000000; stroke-width: 0.8"/>
      </defs>
      <g>
       <use xlink:href="#m8c3bbb8a8e" x="34.31" y="98.44" style="stroke: #000000; stroke-width: 0.8"/>
      </g>
     </g>
     <g id="text_1">
      <text style="font-size: 10px; font-family: 'Times New Roman'; text-anchor: middle" x="34.31" y="112.38375" transform="rotate(-0 34.31 112.38375)">0</text>
     </g>
    </g>
    <g id="xtick_2">
     <g id="line2d_3">
      <path d="M 94.662071 98.44 
L 94.662071 3.6 
" clip-path="url(#p3ad0ab2f49)" style="fill: none; stroke: #b0b0b0; stroke-width: 0.8; stroke-linecap: square"/>
     </g>
     <g id="line2d_4">
      <g>
       <use xlink:href="#m8c3bbb8a8e" x="94.662071" y="98.44" style="stroke: #000000; stroke-width: 0.8"/>
      </g>
     </g>
     <g id="text_2">
      <text style="font-size: 10px; font-family: 'Times New Roman'; text-anchor: middle" x="94.662071" y="112.38375" transform="rotate(-0 94.662071 112.38375)">50</text>
     </g>
    </g>
    <g id="xtick_3">
     <g id="line2d_5">
      <path d="M 155.014141 98.44 
L 155.014141 3.6 
" clip-path="url(#p3ad0ab2f49)" style="fill: none; stroke: #b0b0b0; stroke-width: 0.8; stroke-linecap: square"/>
     </g>
     <g id="line2d_6">
      <g>
       <use xlink:href="#m8c3bbb8a8e" x="155.014141" y="98.44" style="stroke: #000000; stroke-width: 0.8"/>
      </g>
     </g>
     <g id="text_3">
      <text style="font-size: 10px; font-family: 'Times New Roman'; text-anchor: middle" x="155.014141" y="112.38375" transform="rotate(-0 155.014141 112.38375)">100</text>
     </g>
    </g>
    <g id="xtick_4">
     <g id="line2d_7">
      <path d="M 215.366212 98.44 
L 215.366212 3.6 
" clip-path="url(#p3ad0ab2f49)" style="fill: none; stroke: #b0b0b0; stroke-width: 0.8; stroke-linecap: square"/>
     </g>
     <g id="line2d_8">
      <g>
       <use xlink:href="#m8c3bbb8a8e" x="215.366212" y="98.44" style="stroke: #000000; stroke-width: 0.8"/>
      </g>
     </g>
     <g id="text_4">
      <text style="font-size: 10px; font-family: 'Times New Roman'; text-anchor: middle" x="215.366212" y="112.38375" transform="rotate(-0 215.366212 112.38375)">150</text>
     </g>
    </g>
    <g id="xtick_5">
     <g id="line2d_9">
      <path d="M 275.718283 98.44 
L 275.718283 3.6 
" clip-path="url(#p3ad0ab2f49)" style="fill: none; stroke: #b0b0b0; stroke-width: 0.8; stroke-linecap: square"/>
     </g>
     <g id="line2d_10">
      <g>
       <use xlink:href="#m8c3bbb8a8e" x="275.718283" y="98.44" style="stroke: #000000; stroke-width: 0.8"/>
      </g>
     </g>
     <g id="text_5">
      <text style="font-size: 10px; font-family: 'Times New Roman'; text-anchor: middle" x="275.718283" y="112.38375" transform="rotate(-0 275.718283 112.38375)">200</text>
     </g>
    </g>
    <g id="xtick_6">
     <g id="line2d_11">
      <path d="M 336.070353 98.44 
L 336.070353 3.6 
" clip-path="url(#p3ad0ab2f49)" style="fill: none; stroke: #b0b0b0; stroke-width: 0.8; stroke-linecap: square"/>
     </g>
     <g id="line2d_12">
      <g>
       <use xlink:href="#m8c3bbb8a8e" x="336.070353" y="98.44" style="stroke: #000000; stroke-width: 0.8"/>
      </g>
     </g>
     <g id="text_6">
      <text style="font-size: 10px; font-family: 'Times New Roman'; text-anchor: middle" x="336.070353" y="112.38375" transform="rotate(-0 336.070353 112.38375)">250</text>
     </g>
    </g>
    <g id="xtick_7">
     <g id="line2d_13">
      <path d="M 396.422424 98.44 
L 396.422424 3.6 
" clip-path="url(#p3ad0ab2f49)" style="fill: none; stroke: #b0b0b0; stroke-width: 0.8; stroke-linecap: square"/>
     </g>
     <g id="line2d_14">
      <g>
       <use xlink:href="#m8c3bbb8a8e" x="396.422424" y="98.44" style="stroke: #000000; stroke-width: 0.8"/>
      </g>
     </g>
     <g id="text_7">
      <text style="font-size: 10px; font-family: 'Times New Roman'; text-anchor: middle" x="396.422424" y="112.38375" transform="rotate(-0 396.422424 112.38375)">300</text>
     </g>
    </g>
    <g id="xtick_8">
     <g id="line2d_15">
      <path d="M 456.774495 98.44 
L 456.774495 3.6 
" clip-path="url(#p3ad0ab2f49)" style="fill: none; stroke: #b0b0b0; stroke-width: 0.8; stroke-linecap: square"/>
     </g>
     <g id="line2d_16">
      <g>
       <use xlink:href="#m8c3bbb8a8e" x="456.774495" y="98.44" style="stroke: #000000; stroke-width: 0.8"/>
      </g>
     </g>
     <g id="text_8">
      <text style="font-size: 10px; font-family: 'Times New Roman'; text-anchor: middle" x="456.774495" y="112.38375" transform="rotate(-0 456.774495 112.38375)">350</text>
     </g>
    </g>
    <g id="xtick_9">
     <g id="line2d_17">
      <path d="M 517.126565 98.44 
L 517.126565 3.6 
" clip-path="url(#p3ad0ab2f49)" style="fill: none; stroke: #b0b0b0; stroke-width: 0.8; stroke-linecap: square"/>
     </g>
     <g id="line2d_18">
      <g>
       <use xlink:href="#m8c3bbb8a8e" x="517.126565" y="98.44" style="stroke: #000000; stroke-width: 0.8"/>
      </g>
     </g>
     <g id="text_9">
      <text style="font-size: 10px; font-family: 'Times New Roman'; text-anchor: middle" x="517.126565" y="112.38375" transform="rotate(-0 517.126565 112.38375)">400</text>
     </g>
    </g>
    <g id="text_10">
     <text style="font-size: 12px; font-family: 'Times New Roman'; text-anchor: middle" x="287.155" y="126.855312" transform="rotate(-0 287.155 126.855312)">Simulation Run</text>
    </g>
   </g>
   <g id="matplotlib.axis_2">
    <g id="ytick_1">
     <g id="line2d_19">
      <path d="M 34.31 98.44 
L 540 98.44 
" clip-path="url(#p3ad0ab2f49)" style="fill: none; stroke: #b0b0b0; stroke-width: 0.8; stroke-linecap: square"/>
     </g>
     <g id="line2d_20">
      <defs>
       <path id="m9a57dda0b6" d="M 0 0 
L -3.5 0 
" style="stroke: #000000; stroke-width: 0.8"/>
      </defs>
      <g>
       <use xlink:href="#m9a57dda0b6" x="34.31" y="98.44" style="stroke: #000000; stroke-width: 0.8"/>
      </g>
     </g>
     <g id="text_11">
      <text style="font-size: 10px; font-family: 'Times New Roman'; text-anchor: end" x="27.31" y="101.911875" transform="rotate(-0 27.31 101.911875)">0.0</text>
     </g>
    </g>
    <g id="ytick_2">
     <g id="line2d_21">
      <path d="M 34.31 66.826667 
L 540 66.826667 
" clip-path="url(#p3ad0ab2f49)" style="fill: none; stroke: #b0b0b0; stroke-width: 0.8; stroke-linecap: square"/>
     </g>
     <g id="line2d_22">
      <g>
       <use xlink:href="#m9a57dda0b6" x="34.31" y="66.826667" style="stroke: #000000; stroke-width: 0.8"/>
      </g>
     </g>
     <g id="text_12">
      <text style="font-size: 10px; font-family: 'Times New Roman'; text-anchor: end" x="27.31" y="70.298542" transform="rotate(-0 27.31 70.298542)">0.5</text>
     </g>
    </g>
    <g id="ytick_3">
     <g id="line2d_23">
      <path d="M 34.31 35.213333 
L 540 35.213333 
" clip-path="url(#p3ad0ab2f49)" style="fill: none; stroke: #b0b0b0; stroke-width: 0.8; stroke-linecap: square"/>
     </g>
     <g id="line2d_24">
      <g>
       <use xlink:href="#m9a57dda0b6" x="34.31" y="35.213333" style="stroke: #000000; stroke-width: 0.8"/>
      </g>
     </g>
     <g id="text_13">
      <text style="font-size: 10px; font-family: 'Times New Roman'; text-anchor: end" x="27.31" y="38.685208" transform="rotate(-0 27.31 38.685208)">1.0</text>
     </g>
    </g>
    <g id="ytick_4">
     <g id="line2d_25">
      <path d="M 34.31 3.6 
L 540 3.6 
" clip-path="url(#p3ad0ab2f49)" style="fill: none; stroke: #b0b0b0; stroke-width: 0.8; stroke-linecap: square"/>
     </g>
     <g id="line2d_26">
      <g>
       <use xlink:href="#m9a57dda0b6" x="34.31" y="3.6" style="stroke: #000000; stroke-width: 0.8"/>
      </g>
     </g>
     <g id="text_14">
      <text style="font-size: 10px; font-family: 'Times New Roman'; text-anchor: end" x="27.31" y="7.071875" transform="rotate(-0 27.31 7.071875)">1.5</text>
     </g>
    </g>
    <g id="text_15">
     <text style="font-size: 12px; font-family: 'Times New Roman'; text-anchor: middle" x="8.243125" y="51.02" transform="rotate(-90 8.243125 51.02)">Normalized Value</text>
    </g>
   </g>
   <g id="line2d_27">
    <path d="M 34.31 47.590923 
L 35.517041 41.458191 
L 36.724083 39.12062 
L 37.931124 39.841879 
L 39.138166 35.166187 
L 40.345207 39.325215 
L 41.552248 40.263633 
L 43.966331 38.600141 
L 45.173373 36.303582 
L 46.380414 36.683856 
L 47.587456 35.055615 
L 48.794497 35.952582 
L 50.001538 34.749029 
L 51.20858 34.318379 
L 52.415621 34.440548 
L 53.622663 31.958254 
L 54.829704 32.316188 
L 57.243787 31.74028 
L 58.450828 31.743887 
L 59.65787 31.912524 
L 60.864911 32.944323 
L 62.071953 33.027973 
L 63.278994 33.880142 
L 64.486035 33.495761 
L 65.693077 34.13024 
L 68.10716 34.499741 
L 69.314201 34.889899 
L 70.521242 34.674626 
L 71.728284 34.251042 
L 72.935325 34.005119 
L 74.142367 34.527072 
L 75.349408 34.604122 
L 76.556449 34.082643 
L 77.763491 34.281525 
L 78.970532 34.312529 
L 81.384615 33.892949 
L 82.591657 34.345178 
L 83.798698 34.42258 
L 85.005739 35.065265 
L 86.212781 35.220058 
L 87.419822 35.555321 
L 88.626864 36.270939 
L 89.833905 36.366228 
L 91.040946 36.681533 
L 92.247988 36.530667 
L 93.455029 36.583215 
L 94.662071 37.043253 
L 97.076153 37.252607 
L 98.283195 36.937524 
L 100.697278 36.962035 
L 101.904319 37.009388 
L 104.318402 36.851398 
L 105.525443 36.6636 
L 106.732485 37.051128 
L 107.939526 36.836741 
L 109.146568 36.395316 
L 115.181775 37.123826 
L 117.595858 37.238611 
L 118.802899 36.933486 
L 121.216982 37.29388 
L 122.424023 37.462144 
L 124.838106 37.492199 
L 126.045147 37.671505 
L 127.252189 37.377665 
L 128.45923 37.553261 
L 129.666272 37.391762 
L 130.873313 37.508351 
L 132.080354 36.588633 
L 134.494437 35.901191 
L 136.90852 35.734204 
L 138.115562 35.654991 
L 140.529644 35.749523 
L 141.736686 35.726619 
L 144.150769 35.982709 
L 145.35781 35.696862 
L 146.564851 35.870306 
L 147.771893 35.645413 
L 148.978934 35.899582 
L 150.185976 35.953911 
L 151.393017 35.713825 
L 153.8071 35.45689 
L 155.014141 35.686769 
L 156.221183 35.717227 
L 157.428224 36.051924 
L 158.635266 36.101161 
L 159.842307 35.674461 
L 161.049348 35.605301 
L 162.25639 35.424629 
L 164.670473 35.799838 
L 165.877514 35.868272 
L 167.084555 35.721776 
L 168.291597 35.803653 
L 170.70568 35.731816 
L 173.119763 35.978078 
L 174.326804 35.708548 
L 176.740887 35.597884 
L 177.947928 35.838323 
L 179.15497 35.643762 
L 180.362011 35.589535 
L 182.776094 35.692983 
L 186.397218 35.357541 
L 188.811301 35.20548 
L 190.018342 35.318753 
L 191.225384 35.316409 
L 193.639467 35.611734 
L 194.846508 35.366495 
L 198.467632 35.455252 
L 199.674674 35.179829 
L 202.088756 35.080779 
L 203.295798 35.170422 
L 205.709881 35.080288 
L 206.916922 35.276856 
L 208.123963 35.289724 
L 209.331005 35.181453 
L 210.538046 35.401546 
L 216.573253 35.618017 
L 217.780295 35.463208 
L 223.815502 35.701449 
L 225.022543 35.7624 
L 226.229585 35.681852 
L 233.471833 36.271688 
L 234.678875 36.435151 
L 237.092957 36.192659 
L 240.714082 36.356811 
L 241.921123 36.350816 
L 243.128164 36.466063 
L 247.95633 36.369483 
L 250.370413 36.483331 
L 252.784496 36.743643 
L 255.198579 36.77174 
L 258.819703 36.810823 
L 260.026744 36.736997 
L 262.440827 36.781179 
L 264.85491 36.853878 
L 266.061951 36.755346 
L 267.268993 36.938037 
L 269.683076 36.941168 
L 270.890117 36.796957 
L 281.75349 36.985763 
L 287.788697 36.874453 
L 297.445028 37.020738 
L 299.859111 37.068399 
L 305.894318 36.949491 
L 311.929525 36.995809 
L 316.757691 36.898319 
L 317.964732 36.745854 
L 320.378815 36.691649 
L 322.792898 36.562801 
L 325.206981 36.592102 
L 330.035146 36.360142 
L 331.242188 36.207512 
L 334.863312 36.432799 
L 337.277395 36.375122 
L 342.10556 36.326348 
L 345.726685 36.475603 
L 346.933726 34.85825 
L 349.347809 35.017425 
L 352.968933 35.05441 
L 362.625264 34.990293 
L 372.281596 35.039104 
L 374.695678 35.100505 
L 385.559051 34.935116 
L 391.594258 34.915757 
L 395.215383 34.808363 
L 398.836507 34.901331 
L 401.25059 34.91591 
L 406.078755 34.913885 
L 416.942128 34.87933 
L 420.563252 34.822798 
L 422.977335 34.699492 
L 427.805501 34.776419 
L 431.426625 34.725956 
L 439.875915 34.88387 
L 444.70408 34.731884 
L 454.360412 34.898928 
L 461.60266 35.127028 
L 468.844909 35.090087 
L 474.880116 35.133007 
L 479.708281 35.091645 
L 482.122364 35.16146 
L 486.95053 35.19986 
L 489.364613 35.152616 
L 492.985737 35.166899 
L 496.606861 35.294676 
L 499.020944 35.228668 
L 513.505441 35.230733 
L 515.919524 35.213333 
L 515.919524 35.213333 
" clip-path="url(#p3ad0ab2f49)" style="fill: none; stroke: #4169e1; stroke-width: 1.5; stroke-linecap: square"/>
   </g>
   <g id="line2d_28">
    <path d="M 34.31 98.44 
L 35.517041 94.906279 
L 36.724083 95.057391 
L 37.931124 95.756411 
L 39.138166 88.076832 
L 40.345207 81.678005 
L 41.552248 83.576134 
L 42.75929 84.954993 
L 43.966331 85.960204 
L 45.173373 82.748317 
L 46.380414 84.038965 
L 47.587456 82.499028 
L 48.794497 82.818149 
L 50.001538 82.164709 
L 52.415621 83.949383 
L 53.622663 75.53879 
L 56.036745 77.621626 
L 59.65787 80.263634 
L 60.864911 78.853329 
L 62.071953 79.654319 
L 63.278994 78.768225 
L 64.486035 79.177785 
L 65.693077 78.907797 
L 68.10716 80.081036 
L 69.314201 80.278234 
L 70.521242 80.733472 
L 71.728284 80.764207 
L 72.935325 81.118005 
L 74.142367 80.78278 
L 75.349408 81.268308 
L 76.556449 80.851036 
L 81.384615 82.168507 
L 82.591657 81.79677 
L 83.798698 82.169959 
L 85.005739 80.918397 
L 86.212781 81.219811 
L 87.419822 81.137809 
L 88.626864 79.348737 
L 89.833905 79.71569 
L 91.040946 79.666759 
L 93.455029 80.30438 
L 94.662071 79.665765 
L 97.076153 80.268793 
L 98.283195 80.110929 
L 103.111361 81.322642 
L 104.318402 81.573683 
L 105.525443 81.659284 
L 106.732485 81.087771 
L 107.939526 81.104223 
L 109.146568 80.244306 
L 111.56065 80.402391 
L 112.767692 80.518582 
L 113.974733 80.783468 
L 115.181775 80.833159 
L 117.595858 81.28074 
L 118.802899 80.910104 
L 120.00994 80.828625 
L 123.631065 81.212319 
L 124.838106 81.427751 
L 126.045147 81.419111 
L 127.252189 81.012676 
L 129.666272 81.03162 
L 130.873313 81.144367 
L 132.080354 74.917778 
L 133.287396 74.390672 
L 134.494437 73.648848 
L 135.701479 73.933931 
L 138.115562 74.29599 
L 141.736686 75.053798 
L 144.150769 75.280061 
L 145.35781 74.822808 
L 146.564851 74.811197 
L 147.771893 74.613236 
L 148.978934 74.284807 
L 150.185976 74.507207 
L 151.393017 74.226094 
L 153.8071 74.405541 
L 155.014141 74.147 
L 156.221183 74.376364 
L 157.428224 73.536429 
L 158.635266 73.752426 
L 159.842307 72.20843 
L 161.049348 72.408711 
L 164.670473 72.098294 
L 165.877514 72.289802 
L 167.084555 72.303585 
L 171.912721 73.028382 
L 173.119763 72.937301 
L 174.326804 72.363506 
L 176.740887 72.718507 
L 177.947928 72.286484 
L 179.15497 72.07584 
L 182.776094 72.594932 
L 185.190177 72.51745 
L 188.811301 72.951856 
L 190.018342 72.992405 
L 191.225384 73.186595 
L 193.639467 73.027558 
L 194.846508 72.465657 
L 196.053549 72.657856 
L 197.260591 72.701976 
L 198.467632 72.887226 
L 199.674674 72.095957 
L 200.881715 72.145356 
L 203.295798 72.412315 
L 204.502839 72.468195 
L 205.709881 72.648975 
L 206.916922 72.30894 
L 208.123963 72.486914 
L 209.331005 72.50497 
L 210.538046 72.01691 
L 216.573253 72.749081 
L 217.780295 72.57473 
L 218.987336 72.732254 
L 221.401419 72.875407 
L 222.60846 72.994156 
L 223.815502 72.966692 
L 227.436626 73.192786 
L 228.643668 73.08327 
L 229.850709 73.153484 
L 231.05775 73.028723 
L 233.471833 73.120029 
L 234.678875 72.854899 
L 237.092957 72.695725 
L 240.714082 72.993063 
L 241.921123 73.139575 
L 243.128164 73.06909 
L 250.370413 73.703696 
L 251.577454 73.609014 
L 252.784496 73.395971 
L 256.40562 73.695524 
L 262.440827 73.941875 
L 266.061951 74.088952 
L 267.268993 73.609251 
L 269.683076 73.862463 
L 270.890117 73.60424 
L 276.925324 74.064115 
L 279.339407 74.192554 
L 282.960531 74.497479 
L 284.167573 74.391426 
L 286.581655 74.507337 
L 287.788697 74.204934 
L 295.030945 74.81224 
L 297.445028 74.905645 
L 301.066152 75.131492 
L 302.273194 75.232343 
L 304.687277 75.289583 
L 308.308401 75.503391 
L 311.929525 75.577219 
L 316.757691 75.876149 
L 317.964732 75.458505 
L 320.378815 75.576911 
L 321.585856 75.451419 
L 325.206981 75.596466 
L 327.621063 75.647138 
L 328.828105 75.572252 
L 330.035146 75.631396 
L 331.242188 75.1853 
L 332.449229 75.025363 
L 333.65627 75.113993 
L 334.863312 74.946908 
L 337.277395 75.016958 
L 338.484436 75.082627 
L 339.691478 74.812544 
L 344.519643 74.953454 
L 345.726685 74.825105 
L 346.933726 11.260754 
L 348.140767 11.205796 
L 356.590057 13.243214 
L 361.418223 14.383922 
L 362.625264 14.030388 
L 367.45343 15.186416 
L 371.074554 15.863881 
L 373.488637 16.228388 
L 377.109761 17.024525 
L 378.316803 17.036973 
L 386.766093 18.847645 
L 391.594258 19.631207 
L 396.422424 20.491904 
L 401.25059 21.409079 
L 407.285797 22.503533 
L 409.699879 22.852508 
L 413.321004 23.400778 
L 420.563252 24.504723 
L 421.770294 24.467994 
L 425.391418 25.070822 
L 426.598459 25.154594 
L 435.047749 26.60354 
L 442.289998 27.438592 
L 443.497039 27.421081 
L 450.739288 28.608642 
L 451.946329 28.423022 
L 457.981536 29.236605 
L 459.188577 29.294788 
L 460.395619 29.487519 
L 461.60266 29.515899 
L 471.258992 30.872864 
L 473.673074 31.127857 
L 478.50124 31.609408 
L 479.708281 31.692391 
L 480.915323 31.599992 
L 485.743488 32.164659 
L 489.364613 32.35105 
L 495.39982 32.964312 
L 502.642068 33.786922 
L 508.677275 34.518442 
L 515.919524 35.213333 
L 515.919524 35.213333 
" clip-path="url(#p3ad0ab2f49)" style="fill: none; stroke-dasharray: 5.55,2.4; stroke-dashoffset: 0; stroke: #4169e1; stroke-width: 1.5"/>
   </g>
   <g id="line2d_29">
    <path d="M 34.31 47.31514 
L 35.517041 41.538569 
L 36.724083 40.938803 
L 37.931124 41.287212 
L 39.138166 38.93599 
L 40.345207 40.997903 
L 41.552248 41.284604 
L 43.966331 39.021635 
L 45.173373 37.629387 
L 46.380414 38.158665 
L 47.587456 36.777017 
L 48.794497 37.089027 
L 50.001538 36.897309 
L 51.20858 36.037369 
L 52.415621 36.143673 
L 53.622663 34.513213 
L 54.829704 34.456618 
L 56.036745 33.722499 
L 59.65787 32.997644 
L 60.864911 33.72266 
L 62.071953 33.745564 
L 63.278994 34.221702 
L 64.486035 33.918187 
L 65.693077 34.219209 
L 66.900118 34.267751 
L 68.10716 34.595291 
L 69.314201 34.69114 
L 72.935325 34.156024 
L 74.142367 34.592325 
L 75.349408 34.529779 
L 76.556449 33.975963 
L 77.763491 34.164197 
L 78.970532 34.048563 
L 81.384615 33.570551 
L 82.591657 33.795307 
L 83.798698 33.804658 
L 85.005739 34.348718 
L 86.212781 34.431621 
L 87.419822 34.640287 
L 88.626864 35.239746 
L 89.833905 35.395657 
L 91.040946 35.66689 
L 92.247988 35.45694 
L 93.455029 35.512147 
L 94.662071 35.945257 
L 97.076153 36.071266 
L 98.283195 35.750593 
L 100.697278 35.931451 
L 101.904319 36.095401 
L 103.111361 36.145018 
L 104.318402 36.04984 
L 105.525443 35.808996 
L 106.732485 36.119651 
L 107.939526 35.899386 
L 109.146568 35.521397 
L 112.767692 35.845429 
L 113.974733 35.76006 
L 116.388816 35.857661 
L 118.802899 35.67255 
L 122.424023 36.062797 
L 124.838106 35.927786 
L 126.045147 36.071556 
L 127.252189 35.860925 
L 128.45923 35.961528 
L 129.666272 35.849665 
L 130.873313 35.892118 
L 132.080354 35.436396 
L 134.494437 34.855709 
L 138.115562 34.688567 
L 140.529644 34.766102 
L 141.736686 34.759713 
L 144.150769 34.940889 
L 145.35781 34.744571 
L 146.564851 34.84166 
L 147.771893 34.677552 
L 148.978934 34.876005 
L 150.185976 34.898194 
L 151.393017 34.702511 
L 153.8071 34.566532 
L 155.014141 34.793675 
L 156.221183 34.794771 
L 157.428224 35.092929 
L 158.635266 35.172807 
L 159.842307 34.920993 
L 161.049348 34.876781 
L 162.25639 34.708284 
L 164.670473 35.064393 
L 165.877514 35.093949 
L 167.084555 35.010514 
L 168.291597 35.063378 
L 169.498638 34.967618 
L 170.70568 35.00362 
L 173.119763 35.351734 
L 175.533845 35.252231 
L 176.740887 35.173131 
L 177.947928 35.399247 
L 180.362011 35.23521 
L 181.569052 35.336282 
L 183.983135 35.172014 
L 186.397218 34.980668 
L 188.811301 34.861399 
L 190.018342 34.999029 
L 191.225384 34.954965 
L 193.639467 35.211109 
L 196.053549 35.037748 
L 198.467632 35.044224 
L 200.881715 34.867875 
L 202.088756 34.85059 
L 203.295798 34.968684 
L 205.709881 34.860737 
L 206.916922 35.011442 
L 216.573253 35.210903 
L 217.780295 35.110579 
L 221.401419 35.246856 
L 222.60846 35.196669 
L 225.022543 35.309252 
L 226.229585 35.260454 
L 234.678875 35.847215 
L 237.092957 35.560702 
L 239.50704 35.685007 
L 249.163372 35.727972 
L 255.198579 36.026548 
L 256.40562 36.043155 
L 257.612661 36.178799 
L 261.233786 36.109524 
L 267.268993 36.18911 
L 269.683076 36.229988 
L 270.890117 36.071556 
L 274.511241 36.068952 
L 278.132365 36.124082 
L 286.581655 35.913924 
L 288.995738 36.048605 
L 314.343608 36.344411 
L 330.035146 36.0109 
L 331.242188 35.876591 
L 334.863312 36.00963 
L 338.484436 35.897537 
L 340.898519 35.846755 
L 345.726685 35.986596 
L 346.933726 35.158599 
L 348.140767 35.285524 
L 355.383016 35.334674 
L 360.211182 35.345217 
L 367.45343 35.174681 
L 369.867513 35.212031 
L 371.074554 35.135789 
L 373.488637 35.257264 
L 377.109761 35.191588 
L 380.730886 35.139039 
L 386.766093 35.126855 
L 389.180175 35.118087 
L 392.8013 35.026268 
L 396.422424 34.988943 
L 433.840708 34.856247 
L 437.461832 34.979338 
L 439.875915 34.98527 
L 445.911122 34.798826 
L 455.567453 34.926839 
L 462.809702 35.117066 
L 473.673074 35.134584 
L 478.50124 35.179054 
L 479.708281 35.116623 
L 482.122364 35.18459 
L 501.435027 35.266238 
L 505.056151 35.227177 
L 508.677275 35.263325 
L 514.712482 35.190743 
L 515.919524 35.213333 
L 515.919524 35.213333 
" clip-path="url(#p3ad0ab2f49)" style="fill: none; stroke: #ff8c00; stroke-width: 1.5; stroke-linecap: square"/>
   </g>
   <g id="line2d_30">
    <path d="M 34.31 98.44 
L 35.517041 90.460984 
L 36.724083 92.948626 
L 37.931124 94.234392 
L 39.138166 89.787941 
L 40.345207 86.146954 
L 41.552248 87.785175 
L 42.75929 87.131573 
L 43.966331 85.752204 
L 45.173373 82.849557 
L 46.380414 83.59702 
L 47.587456 79.812855 
L 50.001538 82.100236 
L 51.20858 80.713993 
L 52.415621 81.781337 
L 53.622663 72.590596 
L 54.829704 74.013653 
L 56.036745 72.979643 
L 58.450828 75.051667 
L 59.65787 75.52783 
L 60.864911 73.758806 
L 62.071953 74.784304 
L 63.278994 74.429505 
L 65.693077 75.114414 
L 66.900118 75.932258 
L 68.10716 75.9901 
L 69.314201 76.674725 
L 70.521242 77.223413 
L 71.728284 77.397537 
L 72.935325 77.901747 
L 74.142367 77.003729 
L 75.349408 77.58439 
L 76.556449 75.596812 
L 77.763491 75.909187 
L 78.970532 76.383804 
L 82.591657 76.501385 
L 83.798698 77.022876 
L 85.005739 74.548244 
L 86.212781 75.02057 
L 87.419822 75.082895 
L 88.626864 71.723958 
L 89.833905 72.025011 
L 91.040946 71.748538 
L 92.247988 71.78734 
L 93.455029 72.284682 
L 94.662071 70.554815 
L 95.869112 71.088101 
L 97.076153 71.452598 
L 98.283195 70.649167 
L 99.490236 71.137986 
L 101.904319 71.463823 
L 104.318402 72.21965 
L 105.525443 71.838318 
L 106.732485 70.889839 
L 107.939526 70.626529 
L 109.146568 68.949849 
L 110.353609 69.267418 
L 111.56065 69.441435 
L 118.802899 71.192297 
L 123.631065 71.571039 
L 124.838106 71.914602 
L 126.045147 71.883462 
L 127.252189 71.407083 
L 130.873313 71.95626 
L 132.080354 68.256761 
L 133.287396 66.548144 
L 134.494437 65.631285 
L 135.701479 65.863242 
L 138.115562 66.535051 
L 139.322603 66.736184 
L 141.736686 67.437527 
L 142.943727 67.466319 
L 144.150769 67.722579 
L 145.35781 67.205027 
L 146.564851 67.327692 
L 147.771893 67.049848 
L 148.978934 66.482187 
L 150.185976 66.800347 
L 151.393017 66.235049 
L 152.600058 66.52838 
L 153.8071 66.615286 
L 155.014141 65.696686 
L 156.221183 66.01767 
L 157.428224 64.164231 
L 158.635266 64.33666 
L 159.842307 63.084562 
L 161.049348 63.369026 
L 162.25639 62.977184 
L 163.463431 62.232642 
L 164.670473 61.973413 
L 165.877514 62.282159 
L 169.498638 62.743144 
L 170.70568 63.021251 
L 171.912721 62.39448 
L 173.119763 61.975204 
L 174.326804 62.004214 
L 175.533845 62.312933 
L 176.740887 62.439982 
L 177.947928 61.285119 
L 179.15497 61.188879 
L 180.362011 61.434364 
L 181.569052 61.437213 
L 182.776094 61.698408 
L 185.190177 61.204214 
L 188.811301 61.77729 
L 190.018342 61.475027 
L 191.225384 61.696849 
L 192.432425 61.1152 
L 196.053549 61.192827 
L 198.467632 61.586506 
L 199.674674 61.336565 
L 202.088756 61.772391 
L 203.295798 61.565578 
L 205.709881 61.87134 
L 206.916922 61.348685 
L 209.331005 61.691038 
L 210.538046 60.856413 
L 216.573253 61.971989 
L 217.780295 61.844524 
L 218.987336 61.956079 
L 220.194378 61.93347 
L 222.60846 62.303186 
L 225.022543 62.507984 
L 226.229585 62.642026 
L 229.850709 62.77767 
L 231.05775 62.267009 
L 232.264792 62.253979 
L 233.471833 62.369335 
L 235.885916 61.560533 
L 237.092957 60.774271 
L 238.299999 60.594921 
L 241.921123 61.189683 
L 243.128164 61.115669 
L 249.163372 62.097582 
L 251.577454 61.920219 
L 252.784496 61.393617 
L 256.40562 61.671592 
L 257.612661 61.055352 
L 258.819703 61.158034 
L 260.026744 61.100491 
L 261.233786 61.171179 
L 264.85491 61.745089 
L 266.061951 61.619193 
L 267.268993 60.719359 
L 269.683076 61.061226 
L 270.890117 60.07457 
L 275.718283 60.630428 
L 281.75349 60.884534 
L 284.167573 61.077868 
L 285.374614 60.980593 
L 286.581655 61.096183 
L 287.788697 60.596182 
L 290.20278 60.918607 
L 291.409821 60.928344 
L 295.030945 61.285293 
L 296.237987 61.262089 
L 299.859111 61.585237 
L 304.687277 62.115673 
L 307.101359 62.378453 
L 309.515442 62.204877 
L 316.757691 63.024063 
L 317.964732 62.561585 
L 320.378815 62.743514 
L 321.585856 62.47403 
L 322.792898 62.617692 
L 325.206981 62.745907 
L 327.621063 62.929635 
L 328.828105 62.783552 
L 330.035146 62.903991 
L 331.242188 61.986756 
L 332.449229 61.784819 
L 333.65627 61.91004 
L 334.863312 61.717369 
L 336.070353 61.862303 
L 337.277395 61.535034 
L 338.484436 61.660093 
L 339.691478 61.449076 
L 344.519643 61.799509 
L 345.726685 61.576298 
L 346.933726 19.259386 
L 348.140767 18.561201 
L 351.761892 19.378022 
L 360.211182 21.141556 
L 361.418223 21.295078 
L 362.625264 21.266579 
L 363.832306 21.544262 
L 365.039347 21.664639 
L 369.867513 22.705365 
L 372.281596 22.365987 
L 374.695678 22.814492 
L 375.90272 23.060743 
L 378.316803 23.212923 
L 386.766093 24.859794 
L 389.180175 25.079378 
L 390.387217 25.32595 
L 395.215383 25.883802 
L 403.664672 27.414542 
L 404.871714 27.2431 
L 408.492838 27.888872 
L 409.699879 27.67779 
L 412.113962 27.938584 
L 414.528045 28.266245 
L 415.735087 28.348191 
L 420.563252 29.122135 
L 421.770294 28.989406 
L 432.633666 30.428961 
L 435.047749 30.825489 
L 442.289998 30.741212 
L 443.497039 30.424447 
L 450.739288 31.532965 
L 451.946329 31.077425 
L 455.567453 31.464797 
L 456.774495 31.470374 
L 457.981536 31.660452 
L 459.188577 31.577972 
L 460.395619 31.755747 
L 461.60266 31.636048 
L 462.809702 31.694507 
L 466.430826 32.153114 
L 468.844909 32.426803 
L 473.673074 32.950058 
L 478.50124 33.248381 
L 479.708281 33.080677 
L 480.915323 32.700887 
L 483.329406 33.032286 
L 486.95053 33.025561 
L 488.157571 32.941731 
L 492.985737 33.444751 
L 494.192778 33.288016 
L 499.020944 33.522134 
L 501.435027 33.852712 
L 503.84911 34.054262 
L 508.677275 34.558132 
L 511.091358 34.798865 
L 513.505441 35.107497 
L 514.712482 35.10368 
L 515.919524 35.213333 
L 515.919524 35.213333 
" clip-path="url(#p3ad0ab2f49)" style="fill: none; stroke-dasharray: 5.55,2.4; stroke-dashoffset: 0; stroke: #ff8c00; stroke-width: 1.5"/>
   </g>
   <g id="patch_3">
    <path d="M 34.31 98.44 
L 34.31 3.6 
" style="fill: none; stroke: #000000; stroke-width: 0.8; stroke-linejoin: miter; stroke-linecap: square"/>
   </g>
   <g id="patch_4">
    <path d="M 540 98.44 
L 540 3.6 
" style="fill: none; stroke: #000000; stroke-width: 0.8; stroke-linejoin: miter; stroke-linecap: square"/>
   </g>
   <g id="patch_5">
    <path d="M 34.31 98.44 
L 540 98.44 
" style="fill: none; stroke: #000000; stroke-width: 0.8; stroke-linejoin: miter; stroke-linecap: square"/>
   </g>
   <g id="patch_6">
    <path d="M 34.31 3.6 
L 540 3.6 
" style="fill: none; stroke: #000000; stroke-width: 0.8; stroke-linejoin: miter; stroke-linecap: square"/>
   </g>
  </g>
 </g>
 <defs>
  <clipPath id="p3ad0ab2f49">
   <rect x="34.31" y="3.6" width="505.69" height="94.84"/>
  </clipPath>
 </defs>
</svg>
