<?xml version="1.0" encoding="utf-8" standalone="no"?>
<!DOCTYPE svg PUBLIC "-//W3C//DTD SVG 1.1//EN"
  "http://www.w3.org/Graphics/SVG/1.1/DTD/svg11.dtd">
<svg xmlns:xlink="http://www.w3.org/1999/xlink" width="540pt" height="129.6pt" viewBox="0 0 540 129.6" xmlns="http://www.w3.org/2000/svg" version="1.1">
 <metadata>
  <rdf:RDF xmlns:dc="http://purl.org/dc/elements/1.1/" xmlns:cc="http://creativecommons.org/ns#" xmlns:rdf="http://www.w3.org/1999/02/22-rdf-syntax-ns#">
   <cc:Work>
    <dc:type rdf:resource="http://purl.org/dc/dcmitype/StillImage"/>
    <dc:date>2025-04-05T18:57:05.657836</dc:date>
    <dc:format>image/svg+xml</dc:format>
    <dc:creator>
     <cc:Agent>
      <dc:title>Matplotlib v3.10.1, https://matplotlib.org/</dc:title>
     </cc:Agent>
    </dc:creator>
   </cc:Work>
  </rdf:RDF>
 </metadata>
 <defs>
  <style type="text/css">*{stroke-linejoin: round; stroke-linecap: butt}</style>
 </defs>
 <g id="figure_1">
  <g id="patch_1">
   <path d="M 0 129.6 
L 540 129.6 
L 540 0 
L 0 0 
z
" style="fill: #ffffff"/>
  </g>
  <g id="axes_1">
   <g id="patch_2">
    <path d="M 34.31 98.44 
L 540 98.44 
L 540 3.6 
L 34.31 3.6 
z
" style="fill: #ffffff"/>
   </g>
   <g id="matplotlib.axis_1">
    <g id="xtick_1">
     <g id="line2d_1">
      <path d="M 34.31 98.44 
L 34.31 3.6 
" clip-path="url(#pd18023091d)" style="fill: none; stroke: #b0b0b0; stroke-width: 0.8; stroke-linecap: square"/>
     </g>
     <g id="line2d_2">
      <defs>
       <path id="m1e00c1d8de" d="M 0 0 
L 0 3.5 
" style="stroke: #000000; stroke-width: 0.8"/>
      </defs>
      <g>
       <use xlink:href="#m1e00c1d8de" x="34.31" y="98.44" style="stroke: #000000; stroke-width: 0.8"/>
      </g>
     </g>
     <g id="text_1">
      <text style="font-size: 10px; font-family: 'Times New Roman'; text-anchor: middle" x="34.31" y="112.38375" transform="rotate(-0 34.31 112.38375)">0</text>
     </g>
    </g>
    <g id="xtick_2">
     <g id="line2d_3">
      <path d="M 94.662071 98.44 
L 94.662071 3.6 
" clip-path="url(#pd18023091d)" style="fill: none; stroke: #b0b0b0; stroke-width: 0.8; stroke-linecap: square"/>
     </g>
     <g id="line2d_4">
      <g>
       <use xlink:href="#m1e00c1d8de" x="94.662071" y="98.44" style="stroke: #000000; stroke-width: 0.8"/>
      </g>
     </g>
     <g id="text_2">
      <text style="font-size: 10px; font-family: 'Times New Roman'; text-anchor: middle" x="94.662071" y="112.38375" transform="rotate(-0 94.662071 112.38375)">50</text>
     </g>
    </g>
    <g id="xtick_3">
     <g id="line2d_5">
      <path d="M 155.014141 98.44 
L 155.014141 3.6 
" clip-path="url(#pd18023091d)" style="fill: none; stroke: #b0b0b0; stroke-width: 0.8; stroke-linecap: square"/>
     </g>
     <g id="line2d_6">
      <g>
       <use xlink:href="#m1e00c1d8de" x="155.014141" y="98.44" style="stroke: #000000; stroke-width: 0.8"/>
      </g>
     </g>
     <g id="text_3">
      <text style="font-size: 10px; font-family: 'Times New Roman'; text-anchor: middle" x="155.014141" y="112.38375" transform="rotate(-0 155.014141 112.38375)">100</text>
     </g>
    </g>
    <g id="xtick_4">
     <g id="line2d_7">
      <path d="M 215.366212 98.44 
L 215.366212 3.6 
" clip-path="url(#pd18023091d)" style="fill: none; stroke: #b0b0b0; stroke-width: 0.8; stroke-linecap: square"/>
     </g>
     <g id="line2d_8">
      <g>
       <use xlink:href="#m1e00c1d8de" x="215.366212" y="98.44" style="stroke: #000000; stroke-width: 0.8"/>
      </g>
     </g>
     <g id="text_4">
      <text style="font-size: 10px; font-family: 'Times New Roman'; text-anchor: middle" x="215.366212" y="112.38375" transform="rotate(-0 215.366212 112.38375)">150</text>
     </g>
    </g>
    <g id="xtick_5">
     <g id="line2d_9">
      <path d="M 275.718283 98.44 
L 275.718283 3.6 
" clip-path="url(#pd18023091d)" style="fill: none; stroke: #b0b0b0; stroke-width: 0.8; stroke-linecap: square"/>
     </g>
     <g id="line2d_10">
      <g>
       <use xlink:href="#m1e00c1d8de" x="275.718283" y="98.44" style="stroke: #000000; stroke-width: 0.8"/>
      </g>
     </g>
     <g id="text_5">
      <text style="font-size: 10px; font-family: 'Times New Roman'; text-anchor: middle" x="275.718283" y="112.38375" transform="rotate(-0 275.718283 112.38375)">200</text>
     </g>
    </g>
    <g id="xtick_6">
     <g id="line2d_11">
      <path d="M 336.070353 98.44 
L 336.070353 3.6 
" clip-path="url(#pd18023091d)" style="fill: none; stroke: #b0b0b0; stroke-width: 0.8; stroke-linecap: square"/>
     </g>
     <g id="line2d_12">
      <g>
       <use xlink:href="#m1e00c1d8de" x="336.070353" y="98.44" style="stroke: #000000; stroke-width: 0.8"/>
      </g>
     </g>
     <g id="text_6">
      <text style="font-size: 10px; font-family: 'Times New Roman'; text-anchor: middle" x="336.070353" y="112.38375" transform="rotate(-0 336.070353 112.38375)">250</text>
     </g>
    </g>
    <g id="xtick_7">
     <g id="line2d_13">
      <path d="M 396.422424 98.44 
L 396.422424 3.6 
" clip-path="url(#pd18023091d)" style="fill: none; stroke: #b0b0b0; stroke-width: 0.8; stroke-linecap: square"/>
     </g>
     <g id="line2d_14">
      <g>
       <use xlink:href="#m1e00c1d8de" x="396.422424" y="98.44" style="stroke: #000000; stroke-width: 0.8"/>
      </g>
     </g>
     <g id="text_7">
      <text style="font-size: 10px; font-family: 'Times New Roman'; text-anchor: middle" x="396.422424" y="112.38375" transform="rotate(-0 396.422424 112.38375)">300</text>
     </g>
    </g>
    <g id="xtick_8">
     <g id="line2d_15">
      <path d="M 456.774495 98.44 
L 456.774495 3.6 
" clip-path="url(#pd18023091d)" style="fill: none; stroke: #b0b0b0; stroke-width: 0.8; stroke-linecap: square"/>
     </g>
     <g id="line2d_16">
      <g>
       <use xlink:href="#m1e00c1d8de" x="456.774495" y="98.44" style="stroke: #000000; stroke-width: 0.8"/>
      </g>
     </g>
     <g id="text_8">
      <text style="font-size: 10px; font-family: 'Times New Roman'; text-anchor: middle" x="456.774495" y="112.38375" transform="rotate(-0 456.774495 112.38375)">350</text>
     </g>
    </g>
    <g id="xtick_9">
     <g id="line2d_17">
      <path d="M 517.126565 98.44 
L 517.126565 3.6 
" clip-path="url(#pd18023091d)" style="fill: none; stroke: #b0b0b0; stroke-width: 0.8; stroke-linecap: square"/>
     </g>
     <g id="line2d_18">
      <g>
       <use xlink:href="#m1e00c1d8de" x="517.126565" y="98.44" style="stroke: #000000; stroke-width: 0.8"/>
      </g>
     </g>
     <g id="text_9">
      <text style="font-size: 10px; font-family: 'Times New Roman'; text-anchor: middle" x="517.126565" y="112.38375" transform="rotate(-0 517.126565 112.38375)">400</text>
     </g>
    </g>
    <g id="text_10">
     <text style="font-size: 12px; font-family: 'Times New Roman'; text-anchor: middle" x="287.155" y="126.855312" transform="rotate(-0 287.155 126.855312)">Simulation Run</text>
    </g>
   </g>
   <g id="matplotlib.axis_2">
    <g id="ytick_1">
     <g id="line2d_19">
      <path d="M 34.31 98.44 
L 540 98.44 
" clip-path="url(#pd18023091d)" style="fill: none; stroke: #b0b0b0; stroke-width: 0.8; stroke-linecap: square"/>
     </g>
     <g id="line2d_20">
      <defs>
       <path id="mf115e66b61" d="M 0 0 
L -3.5 0 
" style="stroke: #000000; stroke-width: 0.8"/>
      </defs>
      <g>
       <use xlink:href="#mf115e66b61" x="34.31" y="98.44" style="stroke: #000000; stroke-width: 0.8"/>
      </g>
     </g>
     <g id="text_11">
      <text style="font-size: 10px; font-family: 'Times New Roman'; text-anchor: end" x="27.31" y="101.911875" transform="rotate(-0 27.31 101.911875)">0.0</text>
     </g>
    </g>
    <g id="ytick_2">
     <g id="line2d_21">
      <path d="M 34.31 66.826667 
L 540 66.826667 
" clip-path="url(#pd18023091d)" style="fill: none; stroke: #b0b0b0; stroke-width: 0.8; stroke-linecap: square"/>
     </g>
     <g id="line2d_22">
      <g>
       <use xlink:href="#mf115e66b61" x="34.31" y="66.826667" style="stroke: #000000; stroke-width: 0.8"/>
      </g>
     </g>
     <g id="text_12">
      <text style="font-size: 10px; font-family: 'Times New Roman'; text-anchor: end" x="27.31" y="70.298542" transform="rotate(-0 27.31 70.298542)">0.5</text>
     </g>
    </g>
    <g id="ytick_3">
     <g id="line2d_23">
      <path d="M 34.31 35.213333 
L 540 35.213333 
" clip-path="url(#pd18023091d)" style="fill: none; stroke: #b0b0b0; stroke-width: 0.8; stroke-linecap: square"/>
     </g>
     <g id="line2d_24">
      <g>
       <use xlink:href="#mf115e66b61" x="34.31" y="35.213333" style="stroke: #000000; stroke-width: 0.8"/>
      </g>
     </g>
     <g id="text_13">
      <text style="font-size: 10px; font-family: 'Times New Roman'; text-anchor: end" x="27.31" y="38.685208" transform="rotate(-0 27.31 38.685208)">1.0</text>
     </g>
    </g>
    <g id="ytick_4">
     <g id="line2d_25">
      <path d="M 34.31 3.6 
L 540 3.6 
" clip-path="url(#pd18023091d)" style="fill: none; stroke: #b0b0b0; stroke-width: 0.8; stroke-linecap: square"/>
     </g>
     <g id="line2d_26">
      <g>
       <use xlink:href="#mf115e66b61" x="34.31" y="3.6" style="stroke: #000000; stroke-width: 0.8"/>
      </g>
     </g>
     <g id="text_14">
      <text style="font-size: 10px; font-family: 'Times New Roman'; text-anchor: end" x="27.31" y="7.071875" transform="rotate(-0 27.31 7.071875)">1.5</text>
     </g>
    </g>
    <g id="text_15">
     <text style="font-size: 12px; font-family: 'Times New Roman'; text-anchor: middle" x="8.243125" y="51.02" transform="rotate(-90 8.243125 51.02)">Normalized Value</text>
    </g>
   </g>
   <g id="line2d_27">
    <path d="M 34.31 26.466637 
L 35.517041 25.542723 
L 36.724083 34.994623 
L 37.931124 32.732383 
L 39.138166 33.814971 
L 40.345207 35.816428 
L 41.552248 38.977263 
L 42.75929 38.497731 
L 43.966331 33.547718 
L 45.173373 31.985407 
L 46.380414 33.305475 
L 47.587456 32.244398 
L 48.794497 29.930044 
L 50.001538 30.404731 
L 52.415621 32.446706 
L 53.622663 32.190511 
L 54.829704 33.037106 
L 56.036745 33.557498 
L 57.243787 34.291498 
L 58.450828 34.546562 
L 59.65787 35.573843 
L 60.864911 35.966644 
L 62.071953 35.867292 
L 63.278994 35.454554 
L 64.486035 35.869 
L 65.693077 35.70034 
L 66.900118 35.87171 
L 68.10716 36.726504 
L 69.314201 36.881088 
L 70.521242 36.864048 
L 72.935325 36.568835 
L 74.142367 36.521483 
L 75.349408 36.980228 
L 77.763491 37.178566 
L 80.177574 37.803555 
L 81.384615 37.002077 
L 82.591657 36.457657 
L 83.798698 36.379162 
L 85.005739 36.802871 
L 86.212781 37.008984 
L 87.419822 36.478527 
L 88.626864 36.627613 
L 89.833905 36.411387 
L 91.040946 36.387116 
L 92.247988 36.859925 
L 93.455029 36.186726 
L 94.662071 35.999722 
L 95.869112 36.173147 
L 99.490236 36.257086 
L 101.904319 36.249098 
L 103.111361 35.624438 
L 105.525443 35.579367 
L 107.939526 36.013722 
L 109.146568 35.635752 
L 110.353609 35.138937 
L 111.56065 34.85023 
L 113.974733 35.308845 
L 115.181775 35.217123 
L 116.388816 34.811518 
L 118.802899 34.767931 
L 120.00994 35.098593 
L 121.216982 35.043713 
L 122.424023 35.106712 
L 123.631065 34.823776 
L 126.045147 35.536123 
L 128.45923 36.04511 
L 129.666272 35.899532 
L 132.080354 36.034447 
L 134.494437 36.310045 
L 135.701479 36.393318 
L 136.90852 36.083765 
L 138.115562 36.293153 
L 139.322603 36.649469 
L 145.35781 36.049849 
L 147.771893 36.256625 
L 148.978934 36.379714 
L 150.185976 36.143544 
L 152.600058 36.236838 
L 153.8071 36.043802 
L 155.014141 36.181238 
L 156.221183 36.176676 
L 157.428224 35.758903 
L 158.635266 35.568534 
L 159.842307 35.727218 
L 161.049348 35.367005 
L 162.25639 35.376677 
L 167.084555 35.82833 
L 168.291597 35.737557 
L 170.70568 35.937773 
L 171.912721 35.800703 
L 173.119763 35.809888 
L 175.533845 35.626047 
L 176.740887 35.759808 
L 177.947928 35.607834 
L 179.15497 35.594361 
L 180.362011 35.750633 
L 181.569052 35.683168 
L 183.983135 35.853192 
L 185.190177 35.539993 
L 186.397218 35.463964 
L 188.811301 35.640117 
L 190.018342 35.608303 
L 191.225384 35.819374 
L 193.639467 35.91106 
L 197.260591 35.877736 
L 198.467632 36.005044 
L 199.674674 35.847183 
L 210.538046 35.814515 
L 211.745088 35.581277 
L 216.573253 35.597315 
L 217.780295 35.440989 
L 220.194378 35.435925 
L 225.022543 35.269882 
L 226.229585 35.472631 
L 228.643668 35.414657 
L 233.471833 35.630877 
L 235.885916 35.591518 
L 240.714082 35.901191 
L 243.128164 35.830387 
L 255.198579 35.997075 
L 256.40562 36.164102 
L 257.612661 36.03031 
L 261.233786 36.330239 
L 263.647868 36.113605 
L 264.85491 36.248097 
L 275.718283 36.322455 
L 278.132365 36.082879 
L 286.581655 36.183822 
L 288.995738 36.035016 
L 299.859111 36.085146 
L 302.273194 35.784254 
L 303.480235 35.760242 
L 307.101359 35.992131 
L 309.515442 35.966244 
L 310.722484 35.866702 
L 311.929525 35.968539 
L 314.343608 35.842575 
L 317.964732 35.876892 
L 331.242188 36.118347 
L 337.277395 36.180232 
L 339.691478 36.232729 
L 342.10556 36.096873 
L 345.726685 36.151256 
L 346.933726 35.989402 
L 350.55485 36.088543 
L 351.761892 36.000054 
L 352.968933 35.764935 
L 355.383016 35.642909 
L 361.418223 35.782759 
L 362.625264 35.734494 
L 363.832306 35.814911 
L 366.246389 35.666851 
L 368.660471 35.665749 
L 369.867513 35.542549 
L 386.766093 35.778435 
L 387.973134 35.628104 
L 415.735087 35.764971 
L 416.942128 35.717951 
L 419.356211 35.817713 
L 421.770294 35.831788 
L 430.219583 36.005258 
L 435.047749 35.905286 
L 437.461832 35.952756 
L 442.289998 36.062677 
L 445.911122 35.888519 
L 449.532246 35.712941 
L 450.739288 35.704406 
L 451.946329 35.572294 
L 471.258992 35.521016 
L 473.673074 35.367612 
L 477.294199 35.300308 
L 502.642068 35.407802 
L 515.919524 35.213333 
L 515.919524 35.213333 
" clip-path="url(#pd18023091d)" style="fill: none; stroke: #4169e1; stroke-width: 1.5; stroke-linecap: square"/>
   </g>
   <g id="line2d_28">
    <path d="M 34.31 98.44 
L 35.517041 98.225492 
L 36.724083 53.396701 
L 37.931124 60.799373 
L 39.138166 67.149439 
L 40.345207 67.331342 
L 41.552248 56.711587 
L 42.75929 61.523143 
L 43.966331 16.366228 
L 46.380414 21.891349 
L 47.587456 25.158203 
L 48.794497 14.643435 
L 50.001538 19.892799 
L 51.20858 21.690284 
L 52.415621 22.30536 
L 53.622663 26.519967 
L 54.829704 27.453693 
L 56.036745 29.964875 
L 57.243787 30.816298 
L 58.450828 33.709503 
L 59.65787 31.082781 
L 60.864911 33.158355 
L 62.071953 35.821372 
L 63.278994 37.298717 
L 64.486035 38.571219 
L 66.900118 42.469081 
L 68.10716 39.257952 
L 70.521242 42.905432 
L 72.935325 45.895901 
L 74.142367 47.422721 
L 75.349408 47.082299 
L 77.763491 49.681285 
L 78.970532 50.134805 
L 80.177574 50.356795 
L 81.384615 45.263401 
L 82.591657 43.58113 
L 83.798698 44.82381 
L 85.005739 44.175885 
L 86.212781 44.95011 
L 87.419822 43.027528 
L 88.626864 43.980801 
L 89.833905 44.599054 
L 91.040946 45.713783 
L 92.247988 44.093369 
L 93.455029 39.599922 
L 95.869112 41.046603 
L 99.490236 44.034139 
L 101.904319 45.938108 
L 103.111361 41.254191 
L 105.525443 43.09135 
L 107.939526 43.454492 
L 109.146568 42.101473 
L 110.353609 39.074154 
L 111.56065 38.646951 
L 112.767692 38.558254 
L 113.974733 38.707673 
L 115.181775 39.444443 
L 116.388816 37.488217 
L 118.802899 39.184402 
L 120.00994 38.056614 
L 122.424023 39.562035 
L 123.631065 38.85844 
L 124.838106 36.451235 
L 126.045147 35.527544 
L 127.252189 34.744529 
L 128.45923 34.581596 
L 129.666272 34.959099 
L 132.080354 36.312609 
L 133.287396 36.489197 
L 135.701479 37.555605 
L 136.90852 36.216779 
L 138.115562 35.98448 
L 139.322603 33.918512 
L 140.529644 34.29895 
L 141.736686 34.94173 
L 142.943727 33.850825 
L 144.150769 34.309369 
L 146.564851 35.553064 
L 147.771893 35.728667 
L 148.978934 36.020215 
L 150.185976 35.31816 
L 151.393017 35.797862 
L 152.600058 36.427539 
L 153.8071 36.120632 
L 155.014141 36.262996 
L 156.221183 36.872046 
L 157.428224 32.996145 
L 158.635266 32.687399 
L 159.842307 32.655532 
L 161.049348 29.852487 
L 162.25639 30.491 
L 163.463431 30.621266 
L 164.670473 30.546736 
L 165.877514 31.163616 
L 167.084555 31.133293 
L 169.498638 31.955545 
L 171.912721 32.102357 
L 173.119763 32.671796 
L 174.326804 32.918228 
L 175.533845 33.286388 
L 176.740887 33.303354 
L 177.947928 33.155501 
L 179.15497 33.689569 
L 180.362011 33.477755 
L 182.776094 34.149036 
L 183.983135 34.452517 
L 185.190177 31.879059 
L 186.397218 32.220135 
L 187.604259 32.399131 
L 188.811301 32.738781 
L 190.018342 33.211365 
L 191.225384 32.253897 
L 192.432425 32.517769 
L 194.846508 33.475858 
L 197.260591 34.172669 
L 198.467632 34.087871 
L 199.674674 33.696267 
L 202.088756 34.567625 
L 208.123963 36.412849 
L 210.538046 36.663893 
L 211.745088 35.071767 
L 216.573253 36.725252 
L 217.780295 36.195176 
L 221.401419 37.121872 
L 222.60846 36.819336 
L 225.022543 36.794763 
L 226.229585 35.537595 
L 227.436626 35.772101 
L 228.643668 36.158173 
L 231.05775 36.731097 
L 232.264792 37.101592 
L 233.471833 36.744369 
L 235.885916 37.388134 
L 238.299999 37.150069 
L 239.50704 37.466048 
L 243.128164 38.080385 
L 245.542247 38.706794 
L 246.749289 38.855616 
L 247.95633 39.169955 
L 249.163372 39.326535 
L 251.577454 39.809594 
L 252.784496 39.861667 
L 253.991537 40.146952 
L 255.198579 40.308747 
L 256.40562 39.33303 
L 258.819703 38.32223 
L 260.026744 37.925115 
L 261.233786 38.152383 
L 262.440827 37.484489 
L 263.647868 37.551916 
L 264.85491 37.000867 
L 267.268993 37.631922 
L 268.476034 37.74455 
L 275.718283 39.447676 
L 276.925324 38.708809 
L 278.132365 38.528267 
L 282.960531 39.440168 
L 286.581655 39.753693 
L 287.788697 39.574661 
L 288.995738 39.687645 
L 291.409821 40.23355 
L 293.823904 40.59304 
L 295.030945 40.035248 
L 296.237987 40.300756 
L 299.859111 40.729914 
L 302.273194 38.732348 
L 303.480235 38.96659 
L 304.687277 38.567163 
L 307.101359 38.664525 
L 309.515442 39.112644 
L 311.929525 38.459154 
L 313.136566 38.019392 
L 314.343608 38.263247 
L 315.550649 38.389283 
L 319.171773 39.089638 
L 320.378815 39.166946 
L 321.585856 38.628177 
L 322.792898 38.744287 
L 325.206981 39.22167 
L 326.414022 39.105274 
L 328.828105 39.322177 
L 330.035146 39.555428 
L 331.242188 39.411377 
L 333.65627 39.881541 
L 334.863312 39.803525 
L 337.277395 40.18749 
L 338.484436 40.126588 
L 339.691478 40.341269 
L 340.898519 40.002421 
L 344.519643 40.267152 
L 345.726685 40.339701 
L 346.933726 38.858144 
L 348.140767 38.934071 
L 349.347809 39.159871 
L 350.55485 39.243761 
L 351.761892 38.950481 
L 352.968933 35.507544 
L 354.175974 35.374647 
L 359.00414 35.78829 
L 360.211182 36.017014 
L 362.625264 36.077564 
L 363.832306 35.861524 
L 365.039347 34.977886 
L 368.660471 35.631707 
L 369.867513 34.796482 
L 375.90272 35.752679 
L 377.109761 35.837388 
L 378.316803 35.753219 
L 380.730886 36.045664 
L 381.937927 36.258203 
L 383.144968 35.379202 
L 384.35201 35.590797 
L 386.766093 35.411451 
L 387.973134 33.961852 
L 389.180175 34.1748 
L 390.387217 34.194556 
L 391.594258 34.020119 
L 392.8013 34.231167 
L 394.008341 34.296183 
L 395.215383 34.206021 
L 396.422424 34.417446 
L 397.629465 34.480879 
L 401.25059 34.997329 
L 403.664672 34.90778 
L 406.078755 35.22739 
L 410.906921 36.004485 
L 413.321004 36.097524 
L 414.528045 35.718348 
L 416.942128 35.838122 
L 418.149169 35.458882 
L 419.356211 35.637901 
L 420.563252 35.682601 
L 421.770294 35.61172 
L 425.391418 35.941402 
L 427.805501 36.199791 
L 429.012542 36.070571 
L 430.219583 36.258411 
L 431.426625 36.249445 
L 433.840708 36.579171 
L 435.047749 36.526391 
L 436.254791 36.690017 
L 437.461832 36.534961 
L 441.082956 36.69189 
L 443.497039 36.955931 
L 444.70408 36.643554 
L 445.911122 36.463327 
L 447.118163 35.982622 
L 448.325205 36.151033 
L 449.532246 35.463596 
L 450.739288 35.639294 
L 451.946329 34.302737 
L 454.360412 34.642988 
L 455.567453 34.698773 
L 456.774495 34.613685 
L 457.981536 34.780381 
L 459.188577 34.691329 
L 462.809702 34.95335 
L 465.223784 35.280064 
L 466.430826 35.291023 
L 468.844909 35.572063 
L 470.05195 35.179392 
L 471.258992 35.227554 
L 472.466033 33.969144 
L 474.880116 34.070397 
L 476.087157 34.115887 
L 477.294199 33.95074 
L 480.915323 34.386975 
L 482.122364 34.130773 
L 488.157571 34.908503 
L 489.364613 34.73553 
L 492.985737 35.20526 
L 494.192778 35.231987 
L 495.39982 35.39664 
L 496.606861 35.310268 
L 497.813903 35.471343 
L 500.227985 35.607328 
L 501.435027 35.709607 
L 502.642068 35.378091 
L 505.056151 35.616531 
L 506.263193 35.229251 
L 509.884317 35.5981 
L 511.091358 35.516082 
L 512.2984 35.083137 
L 515.919524 35.213333 
L 515.919524 35.213333 
" clip-path="url(#pd18023091d)" style="fill: none; stroke-dasharray: 5.55,2.4; stroke-dashoffset: 0; stroke: #4169e1; stroke-width: 1.5"/>
   </g>
   <g id="line2d_29">
    <path d="M 34.31 32.934903 
L 35.517041 33.602511 
L 36.724083 38.72046 
L 37.931124 36.347422 
L 40.345207 36.943808 
L 41.552248 39.104958 
L 42.75929 38.699963 
L 43.966331 35.382908 
L 45.173373 34.581504 
L 46.380414 35.445488 
L 47.587456 34.769401 
L 48.794497 33.082909 
L 50.001538 32.973262 
L 51.20858 33.58961 
L 52.415621 34.522519 
L 53.622663 34.28139 
L 54.829704 34.500428 
L 57.243787 35.212802 
L 58.450828 35.213675 
L 59.65787 36.153959 
L 60.864911 36.360724 
L 62.071953 35.915986 
L 63.278994 35.671912 
L 64.486035 35.873594 
L 65.693077 35.541128 
L 66.900118 35.613143 
L 68.10716 36.28312 
L 69.314201 36.416995 
L 71.728284 36.344205 
L 72.935325 36.064645 
L 74.142367 36.182315 
L 75.349408 36.506295 
L 77.763491 36.631138 
L 78.970532 37.077404 
L 80.177574 37.397992 
L 81.384615 36.848913 
L 82.591657 36.445178 
L 83.798698 36.34507 
L 85.005739 36.523975 
L 86.212781 36.50618 
L 87.419822 36.052519 
L 88.626864 36.248645 
L 89.833905 36.061144 
L 91.040946 36.071335 
L 92.247988 36.424253 
L 93.455029 35.766267 
L 95.869112 35.788354 
L 98.283195 35.992984 
L 99.490236 35.873653 
L 100.697278 35.885086 
L 101.904319 36.014737 
L 103.111361 35.603891 
L 104.318402 35.479506 
L 106.732485 35.706632 
L 107.939526 35.802435 
L 110.353609 34.965451 
L 111.56065 34.825224 
L 113.974733 35.095857 
L 115.181775 34.979805 
L 116.388816 34.69366 
L 117.595858 34.792961 
L 118.802899 34.766467 
L 120.00994 34.991687 
L 121.216982 34.875243 
L 122.424023 34.90746 
L 123.631065 34.681471 
L 126.045147 35.208723 
L 128.45923 35.544576 
L 129.666272 35.422246 
L 130.873313 35.416166 
L 134.494437 35.802223 
L 135.701479 35.890198 
L 136.90852 35.638965 
L 138.115562 35.765571 
L 139.322603 36.047345 
L 144.150769 35.554969 
L 146.564851 35.571487 
L 148.978934 35.763154 
L 151.393017 35.678099 
L 155.014141 35.633683 
L 156.221183 35.637461 
L 157.428224 35.362601 
L 158.635266 35.232305 
L 159.842307 35.412433 
L 161.049348 35.18022 
L 164.670473 35.467941 
L 167.084555 35.739793 
L 168.291597 35.61052 
L 171.912721 35.648773 
L 174.326804 35.601817 
L 175.533845 35.549741 
L 176.740887 35.630395 
L 179.15497 35.514675 
L 180.362011 35.63328 
L 182.776094 35.639296 
L 183.983135 35.687527 
L 185.190177 35.469446 
L 186.397218 35.424537 
L 188.811301 35.631075 
L 190.018342 35.65654 
L 191.225384 35.798806 
L 202.088756 35.891282 
L 205.709881 35.737561 
L 210.538046 35.849939 
L 211.745088 35.681164 
L 216.573253 35.623149 
L 217.780295 35.479703 
L 220.194378 35.470831 
L 232.264792 35.498336 
L 234.678875 35.534176 
L 237.092957 35.64016 
L 240.714082 35.80521 
L 243.128164 35.76217 
L 255.198579 35.789926 
L 256.40562 35.92709 
L 257.612661 35.845392 
L 261.233786 36.115399 
L 263.647868 35.965502 
L 266.061951 36.096247 
L 269.683076 36.054817 
L 276.925324 35.971064 
L 279.339407 35.907123 
L 286.581655 35.917913 
L 288.995738 35.784894 
L 299.859111 35.77741 
L 302.273194 35.592394 
L 304.687277 35.639823 
L 309.515442 35.720812 
L 310.722484 35.652314 
L 311.929525 35.720407 
L 314.343608 35.666269 
L 317.964732 35.690161 
L 321.585856 35.745077 
L 328.828105 35.857597 
L 344.519643 35.767237 
L 350.55485 35.830308 
L 355.383016 35.513395 
L 361.418223 35.619142 
L 366.246389 35.527376 
L 368.660471 35.555199 
L 371.074554 35.471197 
L 375.90272 35.515915 
L 379.523844 35.495016 
L 386.766093 35.653074 
L 387.973134 35.549955 
L 404.871714 35.676449 
L 412.113962 35.671663 
L 415.735087 35.646265 
L 420.563252 35.637102 
L 425.391418 35.69618 
L 443.497039 35.742207 
L 453.15337 35.47825 
L 460.395619 35.529508 
L 464.016743 35.482975 
L 471.258992 35.537845 
L 472.466033 35.403648 
L 499.020944 35.349865 
L 502.642068 35.33747 
L 515.919524 35.213333 
L 515.919524 35.213333 
" clip-path="url(#pd18023091d)" style="fill: none; stroke: #ff8c00; stroke-width: 1.5; stroke-linecap: square"/>
   </g>
   <g id="line2d_30">
    <path d="M 34.31 98.44 
L 35.517041 98.246545 
L 36.724083 75.572668 
L 37.931124 73.956731 
L 39.138166 78.691697 
L 40.345207 81.799028 
L 41.552248 72.012824 
L 42.75929 74.817872 
L 43.966331 39.236462 
L 45.173373 42.647918 
L 46.380414 44.4799 
L 47.587456 46.794171 
L 48.794497 35.952421 
L 50.001538 40.347981 
L 51.20858 41.91235 
L 52.415621 39.77892 
L 53.622663 42.82578 
L 54.829704 45.561441 
L 56.036745 47.416199 
L 57.243787 48.852553 
L 58.450828 51.213854 
L 59.65787 45.301606 
L 60.864911 47.203735 
L 62.071953 47.364005 
L 64.486035 50.25484 
L 65.693077 50.792077 
L 66.900118 52.43301 
L 68.10716 48.564201 
L 71.728284 52.992974 
L 72.935325 53.28464 
L 74.142367 54.414411 
L 75.349408 54.123283 
L 76.556449 55.331203 
L 77.763491 56.381143 
L 78.970532 54.289603 
L 80.177574 53.726486 
L 81.384615 49.740781 
L 82.591657 48.09855 
L 83.798698 49.118811 
L 85.005739 49.682331 
L 86.212781 50.784549 
L 87.419822 47.913008 
L 89.833905 48.625825 
L 91.040946 49.661502 
L 92.247988 48.062052 
L 93.455029 39.86158 
L 95.869112 42.041717 
L 97.076153 42.774653 
L 98.283195 43.645112 
L 99.490236 44.307621 
L 100.697278 45.27115 
L 101.904319 45.795354 
L 103.111361 42.526919 
L 104.318402 43.085106 
L 105.525443 43.453208 
L 107.939526 44.820064 
L 109.146568 41.712145 
L 110.353609 36.976496 
L 111.56065 37.375854 
L 112.767692 37.530397 
L 115.181775 38.616882 
L 116.388816 37.067212 
L 117.595858 37.648649 
L 118.802899 38.48354 
L 120.00994 37.753087 
L 121.216982 38.160663 
L 122.424023 38.94236 
L 123.631065 38.095279 
L 124.838106 36.350195 
L 126.045147 35.128143 
L 127.252189 35.060695 
L 128.45923 34.841868 
L 129.666272 35.123708 
L 130.873313 35.904107 
L 133.287396 35.844801 
L 135.701479 36.762288 
L 136.90852 35.150789 
L 138.115562 35.279921 
L 139.322603 32.999463 
L 140.529644 32.958712 
L 141.736686 33.605845 
L 142.943727 32.979619 
L 144.150769 33.130983 
L 146.564851 34.491163 
L 148.978934 35.071268 
L 150.185976 35.386672 
L 152.600058 36.593449 
L 155.014141 37.091338 
L 156.221183 37.69217 
L 157.428224 34.937215 
L 158.635266 34.788836 
L 159.842307 33.930396 
L 161.049348 32.081434 
L 162.25639 32.505763 
L 163.463431 32.270319 
L 165.877514 32.71517 
L 167.084555 31.766851 
L 168.291597 31.557 
L 169.498638 32.067168 
L 171.912721 32.557686 
L 173.119763 33.122215 
L 175.533845 33.939263 
L 176.740887 34.148113 
L 177.947928 34.07834 
L 179.15497 34.607368 
L 180.362011 34.391782 
L 183.983135 35.495725 
L 185.190177 33.414886 
L 186.397218 33.816596 
L 187.604259 33.07633 
L 188.811301 33.407265 
L 190.018342 33.871207 
L 191.225384 33.222058 
L 196.053549 34.993589 
L 197.260591 35.207231 
L 198.467632 34.607732 
L 199.674674 34.393313 
L 202.088756 35.211128 
L 203.295798 35.362108 
L 204.502839 35.709416 
L 205.709881 35.207288 
L 206.916922 35.504277 
L 208.123963 35.933716 
L 209.331005 35.816706 
L 210.538046 36.217461 
L 211.745088 34.82039 
L 214.159171 35.662239 
L 215.366212 35.646054 
L 216.573253 35.999788 
L 217.780295 35.050336 
L 221.401419 35.881696 
L 222.60846 35.505173 
L 225.022543 35.911223 
L 226.229585 34.113981 
L 227.436626 33.864266 
L 229.850709 34.492347 
L 231.05775 34.564736 
L 232.264792 34.889823 
L 233.471833 34.897866 
L 235.885916 35.548418 
L 237.092957 35.276793 
L 238.299999 35.323967 
L 239.50704 35.181089 
L 240.714082 35.531604 
L 241.921123 35.543227 
L 246.749289 36.801266 
L 247.95633 36.846051 
L 249.163372 37.048227 
L 251.577454 37.65033 
L 252.784496 37.565351 
L 255.198579 38.15156 
L 256.40562 36.974873 
L 257.612661 36.769362 
L 260.026744 35.311091 
L 261.233786 35.506454 
L 262.440827 35.19105 
L 263.647868 35.214181 
L 264.85491 34.547785 
L 266.061951 34.841542 
L 269.683076 35.423907 
L 273.3042 36.313126 
L 275.718283 36.830775 
L 276.925324 36.005725 
L 278.132365 36.001316 
L 281.75349 36.809472 
L 282.960531 37.094156 
L 286.581655 37.397558 
L 287.788697 36.910554 
L 288.995738 37.048836 
L 292.616862 37.878129 
L 293.823904 37.965318 
L 295.030945 37.142914 
L 299.859111 38.137849 
L 301.066152 37.151248 
L 302.273194 36.947338 
L 303.480235 37.194731 
L 304.687277 37.066572 
L 308.308401 37.50176 
L 309.515442 37.715199 
L 313.136566 37.110101 
L 314.343608 37.353253 
L 315.550649 37.451844 
L 320.378815 38.360468 
L 321.585856 37.754924 
L 322.792898 37.88784 
L 325.206981 38.334859 
L 326.414022 38.128057 
L 330.035146 38.743311 
L 331.242188 38.594098 
L 333.65627 38.989281 
L 334.863312 38.592556 
L 336.070353 38.58302 
L 337.277395 38.820545 
L 338.484436 38.810712 
L 342.10556 39.384193 
L 345.726685 39.803692 
L 346.933726 39.378891 
L 348.140767 39.40568 
L 349.347809 39.596304 
L 350.55485 39.483458 
L 351.761892 38.564361 
L 352.968933 35.995702 
L 356.590057 36.31618 
L 360.211182 36.968854 
L 363.832306 36.8731 
L 365.039347 36.320259 
L 368.660471 36.867847 
L 369.867513 36.096163 
L 374.695678 36.892899 
L 377.109761 36.992661 
L 378.316803 36.84517 
L 380.730886 37.001211 
L 381.937927 37.206858 
L 383.144968 36.097595 
L 384.35201 36.157351 
L 386.766093 35.952714 
L 387.973134 34.81291 
L 389.180175 34.998586 
L 391.594258 34.849959 
L 394.008341 35.184687 
L 395.215383 34.890451 
L 398.836507 35.190433 
L 401.25059 35.588255 
L 403.664672 35.504095 
L 404.871714 35.551525 
L 413.321004 36.632864 
L 414.528045 35.917728 
L 416.942128 36.128661 
L 418.149169 35.743286 
L 419.356211 35.930557 
L 421.770294 35.861027 
L 426.598459 36.50371 
L 429.012542 36.40235 
L 430.219583 36.588033 
L 431.426625 36.513279 
L 433.840708 36.85511 
L 435.047749 36.588042 
L 438.668873 36.513929 
L 443.497039 37.075262 
L 444.70408 36.958914 
L 445.911122 37.083348 
L 447.118163 36.749115 
L 448.325205 36.895439 
L 449.532246 35.977256 
L 450.739288 36.13723 
L 451.946329 35.50073 
L 455.567453 35.862386 
L 456.774495 35.740138 
L 457.981536 35.917186 
L 459.188577 35.592405 
L 460.395619 35.761669 
L 461.60266 35.736616 
L 465.223784 36.172888 
L 466.430826 36.064595 
L 468.844909 36.352104 
L 470.05195 36.251936 
L 471.258992 36.322342 
L 472.466033 33.655547 
L 473.673074 33.825617 
L 478.50124 34.003036 
L 480.915323 34.287544 
L 482.122364 33.806665 
L 488.157571 34.594148 
L 489.364613 34.396268 
L 495.39982 35.178371 
L 496.606861 35.185721 
L 499.020944 35.456674 
L 505.056151 35.696228 
L 506.263193 35.139827 
L 509.884317 35.597053 
L 511.091358 35.582937 
L 512.2984 35.091749 
L 515.919524 35.213333 
L 515.919524 35.213333 
" clip-path="url(#pd18023091d)" style="fill: none; stroke-dasharray: 5.55,2.4; stroke-dashoffset: 0; stroke: #ff8c00; stroke-width: 1.5"/>
   </g>
   <g id="patch_3">
    <path d="M 34.31 98.44 
L 34.31 3.6 
" style="fill: none; stroke: #000000; stroke-width: 0.8; stroke-linejoin: miter; stroke-linecap: square"/>
   </g>
   <g id="patch_4">
    <path d="M 540 98.44 
L 540 3.6 
" style="fill: none; stroke: #000000; stroke-width: 0.8; stroke-linejoin: miter; stroke-linecap: square"/>
   </g>
   <g id="patch_5">
    <path d="M 34.31 98.44 
L 540 98.44 
" style="fill: none; stroke: #000000; stroke-width: 0.8; stroke-linejoin: miter; stroke-linecap: square"/>
   </g>
   <g id="patch_6">
    <path d="M 34.31 3.6 
L 540 3.6 
" style="fill: none; stroke: #000000; stroke-width: 0.8; stroke-linejoin: miter; stroke-linecap: square"/>
   </g>
  </g>
 </g>
 <defs>
  <clipPath id="pd18023091d">
   <rect x="34.31" y="3.6" width="505.69" height="94.84"/>
  </clipPath>
 </defs>
</svg>
