<?xml version="1.0" encoding="utf-8" standalone="no"?>
<!DOCTYPE svg PUBLIC "-//W3C//DTD SVG 1.1//EN"
  "http://www.w3.org/Graphics/SVG/1.1/DTD/svg11.dtd">
<svg xmlns:xlink="http://www.w3.org/1999/xlink" width="540pt" height="129.6pt" viewBox="0 0 540 129.6" xmlns="http://www.w3.org/2000/svg" version="1.1">
 <metadata>
  <rdf:RDF xmlns:dc="http://purl.org/dc/elements/1.1/" xmlns:cc="http://creativecommons.org/ns#" xmlns:rdf="http://www.w3.org/1999/02/22-rdf-syntax-ns#">
   <cc:Work>
    <dc:type rdf:resource="http://purl.org/dc/dcmitype/StillImage"/>
    <dc:date>2025-03-30T09:40:11.061408</dc:date>
    <dc:format>image/svg+xml</dc:format>
    <dc:creator>
     <cc:Agent>
      <dc:title>Matplotlib v3.8.3, https://matplotlib.org/</dc:title>
     </cc:Agent>
    </dc:creator>
   </cc:Work>
  </rdf:RDF>
 </metadata>
 <defs>
  <style type="text/css">*{stroke-linejoin: round; stroke-linecap: butt}</style>
 </defs>
 <g id="figure_1">
  <g id="patch_1">
   <path d="M 0 129.6 
L 540 129.6 
L 540 0 
L 0 0 
z
" style="fill: #ffffff"/>
  </g>
  <g id="axes_1">
   <g id="patch_2">
    <path d="M 35.03 97 
L 540 97 
L 540 0 
L 35.03 0 
z
" style="fill: #ffffff"/>
   </g>
   <g id="matplotlib.axis_1">
    <g id="xtick_1">
     <g id="line2d_1">
      <path d="M 35.03 97 
L 35.03 0 
" clip-path="url(#pb89c42b846)" style="fill: none; stroke: #b0b0b0; stroke-width: 0.8; stroke-linecap: square"/>
     </g>
     <g id="line2d_2">
      <defs>
       <path id="md4cb660849" d="M 0 0 
L 0 3.5 
" style="stroke: #000000; stroke-width: 0.8"/>
      </defs>
      <g>
       <use xlink:href="#md4cb660849" x="35.03" y="97" style="stroke: #000000; stroke-width: 0.8"/>
      </g>
     </g>
     <g id="text_1">
      <text style="font: 10px 'Times New Roman'; text-anchor: middle" x="35.03" y="110.94375" transform="rotate(-0 35.03 110.94375)">0</text>
     </g>
    </g>
    <g id="xtick_2">
     <g id="line2d_3">
      <path d="M 95.296142 97 
L 95.296142 0 
" clip-path="url(#pb89c42b846)" style="fill: none; stroke: #b0b0b0; stroke-width: 0.8; stroke-linecap: square"/>
     </g>
     <g id="line2d_4">
      <g>
       <use xlink:href="#md4cb660849" x="95.296142" y="97" style="stroke: #000000; stroke-width: 0.8"/>
      </g>
     </g>
     <g id="text_2">
      <text style="font: 10px 'Times New Roman'; text-anchor: middle" x="95.296142" y="110.94375" transform="rotate(-0 95.296142 110.94375)">50</text>
     </g>
    </g>
    <g id="xtick_3">
     <g id="line2d_5">
      <path d="M 155.562283 97 
L 155.562283 0 
" clip-path="url(#pb89c42b846)" style="fill: none; stroke: #b0b0b0; stroke-width: 0.8; stroke-linecap: square"/>
     </g>
     <g id="line2d_6">
      <g>
       <use xlink:href="#md4cb660849" x="155.562283" y="97" style="stroke: #000000; stroke-width: 0.8"/>
      </g>
     </g>
     <g id="text_3">
      <text style="font: 10px 'Times New Roman'; text-anchor: middle" x="155.562283" y="110.94375" transform="rotate(-0 155.562283 110.94375)">100</text>
     </g>
    </g>
    <g id="xtick_4">
     <g id="line2d_7">
      <path d="M 215.828425 97 
L 215.828425 0 
" clip-path="url(#pb89c42b846)" style="fill: none; stroke: #b0b0b0; stroke-width: 0.8; stroke-linecap: square"/>
     </g>
     <g id="line2d_8">
      <g>
       <use xlink:href="#md4cb660849" x="215.828425" y="97" style="stroke: #000000; stroke-width: 0.8"/>
      </g>
     </g>
     <g id="text_4">
      <text style="font: 10px 'Times New Roman'; text-anchor: middle" x="215.828425" y="110.94375" transform="rotate(-0 215.828425 110.94375)">150</text>
     </g>
    </g>
    <g id="xtick_5">
     <g id="line2d_9">
      <path d="M 276.094566 97 
L 276.094566 0 
" clip-path="url(#pb89c42b846)" style="fill: none; stroke: #b0b0b0; stroke-width: 0.8; stroke-linecap: square"/>
     </g>
     <g id="line2d_10">
      <g>
       <use xlink:href="#md4cb660849" x="276.094566" y="97" style="stroke: #000000; stroke-width: 0.8"/>
      </g>
     </g>
     <g id="text_5">
      <text style="font: 10px 'Times New Roman'; text-anchor: middle" x="276.094566" y="110.94375" transform="rotate(-0 276.094566 110.94375)">200</text>
     </g>
    </g>
    <g id="xtick_6">
     <g id="line2d_11">
      <path d="M 336.360708 97 
L 336.360708 0 
" clip-path="url(#pb89c42b846)" style="fill: none; stroke: #b0b0b0; stroke-width: 0.8; stroke-linecap: square"/>
     </g>
     <g id="line2d_12">
      <g>
       <use xlink:href="#md4cb660849" x="336.360708" y="97" style="stroke: #000000; stroke-width: 0.8"/>
      </g>
     </g>
     <g id="text_6">
      <text style="font: 10px 'Times New Roman'; text-anchor: middle" x="336.360708" y="110.94375" transform="rotate(-0 336.360708 110.94375)">250</text>
     </g>
    </g>
    <g id="xtick_7">
     <g id="line2d_13">
      <path d="M 396.626849 97 
L 396.626849 0 
" clip-path="url(#pb89c42b846)" style="fill: none; stroke: #b0b0b0; stroke-width: 0.8; stroke-linecap: square"/>
     </g>
     <g id="line2d_14">
      <g>
       <use xlink:href="#md4cb660849" x="396.626849" y="97" style="stroke: #000000; stroke-width: 0.8"/>
      </g>
     </g>
     <g id="text_7">
      <text style="font: 10px 'Times New Roman'; text-anchor: middle" x="396.626849" y="110.94375" transform="rotate(-0 396.626849 110.94375)">300</text>
     </g>
    </g>
    <g id="xtick_8">
     <g id="line2d_15">
      <path d="M 456.892991 97 
L 456.892991 0 
" clip-path="url(#pb89c42b846)" style="fill: none; stroke: #b0b0b0; stroke-width: 0.8; stroke-linecap: square"/>
     </g>
     <g id="line2d_16">
      <g>
       <use xlink:href="#md4cb660849" x="456.892991" y="97" style="stroke: #000000; stroke-width: 0.8"/>
      </g>
     </g>
     <g id="text_8">
      <text style="font: 10px 'Times New Roman'; text-anchor: middle" x="456.892991" y="110.94375" transform="rotate(-0 456.892991 110.94375)">350</text>
     </g>
    </g>
    <g id="xtick_9">
     <g id="line2d_17">
      <path d="M 517.159132 97 
L 517.159132 0 
" clip-path="url(#pb89c42b846)" style="fill: none; stroke: #b0b0b0; stroke-width: 0.8; stroke-linecap: square"/>
     </g>
     <g id="line2d_18">
      <g>
       <use xlink:href="#md4cb660849" x="517.159132" y="97" style="stroke: #000000; stroke-width: 0.8"/>
      </g>
     </g>
     <g id="text_9">
      <text style="font: 10px 'Times New Roman'; text-anchor: middle" x="517.159132" y="110.94375" transform="rotate(-0 517.159132 110.94375)">400</text>
     </g>
    </g>
    <g id="text_10">
     <text style="font: 12px 'Times New Roman'; text-anchor: middle" x="287.515" y="125.415312" transform="rotate(-0 287.515 125.415312)">Simulation Run</text>
    </g>
   </g>
   <g id="matplotlib.axis_2">
    <g id="ytick_1">
     <g id="line2d_19">
      <path d="M 35.03 97 
L 540 97 
" clip-path="url(#pb89c42b846)" style="fill: none; stroke: #b0b0b0; stroke-width: 0.8; stroke-linecap: square"/>
     </g>
     <g id="line2d_20">
      <defs>
       <path id="me736bcff67" d="M 0 0 
L -3.5 0 
" style="stroke: #000000; stroke-width: 0.8"/>
      </defs>
      <g>
       <use xlink:href="#me736bcff67" x="35.03" y="97" style="stroke: #000000; stroke-width: 0.8"/>
      </g>
     </g>
     <g id="text_11">
      <text style="font: 10px 'Times New Roman'; text-anchor: end" x="28.03" y="100.471875" transform="rotate(-0 28.03 100.471875)">0.0</text>
     </g>
    </g>
    <g id="ytick_2">
     <g id="line2d_21">
      <path d="M 35.03 62.357143 
L 540 62.357143 
" clip-path="url(#pb89c42b846)" style="fill: none; stroke: #b0b0b0; stroke-width: 0.8; stroke-linecap: square"/>
     </g>
     <g id="line2d_22">
      <g>
       <use xlink:href="#me736bcff67" x="35.03" y="62.357143" style="stroke: #000000; stroke-width: 0.8"/>
      </g>
     </g>
     <g id="text_12">
      <text style="font: 10px 'Times New Roman'; text-anchor: end" x="28.03" y="65.829018" transform="rotate(-0 28.03 65.829018)">0.5</text>
     </g>
    </g>
    <g id="ytick_3">
     <g id="line2d_23">
      <path d="M 35.03 27.714286 
L 540 27.714286 
" clip-path="url(#pb89c42b846)" style="fill: none; stroke: #b0b0b0; stroke-width: 0.8; stroke-linecap: square"/>
     </g>
     <g id="line2d_24">
      <g>
       <use xlink:href="#me736bcff67" x="35.03" y="27.714286" style="stroke: #000000; stroke-width: 0.8"/>
      </g>
     </g>
     <g id="text_13">
      <text style="font: 10px 'Times New Roman'; text-anchor: end" x="28.03" y="31.186161" transform="rotate(-0 28.03 31.186161)">1.0</text>
     </g>
    </g>
    <g id="text_14">
     <text style="font: 12px 'Times New Roman'; text-anchor: middle" x="8.963125" y="48.5" transform="rotate(-90 8.963125 48.5)">Normalized Value</text>
    </g>
   </g>
   <g id="line2d_25">
    <path d="M 35.03 15.52095 
L 36.235323 27.880039 
L 37.440646 27.227009 
L 38.645968 31.721979 
L 39.851291 32.519494 
L 41.056614 31.923619 
L 42.261937 30.382532 
L 43.46726 25.097305 
L 44.672583 26.767106 
L 45.877905 24.072924 
L 47.083228 21.067609 
L 48.288551 22.974788 
L 49.493874 21.63723 
L 50.699197 18.396868 
L 51.90452 19.616035 
L 53.109842 19.388752 
L 54.315165 18.896247 
L 55.520488 19.040231 
L 56.725811 20.257855 
L 57.931134 20.164551 
L 59.136457 21.436772 
L 60.341779 21.467916 
L 61.547102 22.15264 
L 62.752425 21.951526 
L 63.957748 22.355394 
L 66.368394 22.732607 
L 67.573716 23.715997 
L 68.779039 23.516885 
L 69.984362 21.953928 
L 71.189685 22.242637 
L 72.395008 22.149696 
L 73.600331 22.514226 
L 74.805653 23.197539 
L 76.010976 22.549407 
L 78.421622 23.805374 
L 80.832268 24.029847 
L 82.03759 24.24857 
L 83.242913 24.620684 
L 84.448236 24.205821 
L 85.653559 24.667562 
L 86.858882 24.310773 
L 88.064205 24.362797 
L 90.47485 24.87882 
L 91.680173 24.380935 
L 92.885496 24.33975 
L 94.090819 24.692793 
L 95.296142 23.860311 
L 96.501464 24.398861 
L 97.706787 24.531352 
L 98.91211 24.121067 
L 100.117433 24.140994 
L 101.322756 24.448611 
L 102.528079 23.383821 
L 103.733401 23.726071 
L 104.938724 23.861014 
L 106.144047 23.555083 
L 107.34937 24.00006 
L 108.554693 23.993866 
L 109.760016 24.396604 
L 110.965338 24.263889 
L 112.170661 23.967134 
L 113.375984 24.220195 
L 114.581307 24.616761 
L 115.78663 24.662299 
L 116.991953 24.129632 
L 118.197275 24.401445 
L 120.607921 24.745938 
L 121.813244 25.230577 
L 124.223889 24.921212 
L 125.429212 25.079341 
L 126.634535 24.952923 
L 127.839858 24.518892 
L 132.661149 25.093307 
L 135.071795 25.697883 
L 136.277118 25.161255 
L 139.893086 25.810455 
L 141.098409 25.616087 
L 142.303732 25.562464 
L 143.509055 25.812373 
L 144.714378 25.916785 
L 145.9197 25.675183 
L 148.330346 26.049811 
L 149.535669 26.300198 
L 150.740992 26.057402 
L 151.946315 26.265487 
L 153.151637 25.935427 
L 154.35696 25.903347 
L 156.767606 25.465563 
L 157.972929 25.673654 
L 159.178252 25.473758 
L 162.79422 25.78713 
L 165.204866 26.033443 
L 167.615511 26.154721 
L 168.820834 25.50952 
L 171.23148 25.483248 
L 173.642126 25.694541 
L 179.66874 26.053038 
L 182.079385 25.677565 
L 184.490031 25.982828 
L 185.695354 25.730788 
L 200.159228 26.143852 
L 201.364551 26.427969 
L 203.775196 26.433612 
L 204.980519 26.280635 
L 206.185842 26.459536 
L 207.391165 26.464451 
L 208.596488 26.632352 
L 211.007133 26.520075 
L 212.212456 26.628237 
L 215.828425 26.621786 
L 217.033747 26.694851 
L 218.23907 26.889592 
L 219.444393 26.688984 
L 221.855039 26.85468 
L 224.265684 27.21625 
L 225.471007 27.372919 
L 226.67633 27.320045 
L 229.086976 27.703223 
L 231.497621 27.568327 
L 233.908267 27.567142 
L 236.318913 27.751165 
L 239.934881 27.535286 
L 242.345527 27.857081 
L 244.756173 27.778668 
L 245.961495 27.924519 
L 253.193432 27.931057 
L 259.220047 27.715019 
L 260.425369 27.467934 
L 262.836015 27.678038 
L 264.041338 27.770753 
L 266.451984 27.757145 
L 267.657306 27.915304 
L 268.862629 27.929653 
L 271.273275 27.558971 
L 273.683921 27.726402 
L 277.299889 27.45388 
L 280.915858 27.631721 
L 282.12118 27.508747 
L 284.531826 27.465767 
L 285.737149 27.343244 
L 286.942472 27.374627 
L 288.147794 27.518932 
L 291.763763 27.644298 
L 294.174409 27.864005 
L 297.790377 27.951951 
L 298.9957 27.90321 
L 301.406346 28.08454 
L 302.611668 27.873733 
L 305.022314 27.9832 
L 306.227637 27.710054 
L 307.43296 27.737791 
L 308.638283 27.626166 
L 312.254251 27.737906 
L 313.459574 27.65577 
L 317.075542 27.698309 
L 319.486188 27.861822 
L 325.512802 28.209065 
L 332.744739 28.037439 
L 333.950062 28.114222 
L 337.566031 27.974279 
L 344.797968 28.070467 
L 346.00329 27.915375 
L 352.029905 27.927206 
L 353.235227 27.694798 
L 354.44055 27.791387 
L 358.056519 27.77652 
L 359.261842 27.589697 
L 362.87781 27.734115 
L 364.083133 27.629578 
L 370.109747 27.593066 
L 372.520393 27.619798 
L 377.341684 27.706447 
L 382.162975 27.544026 
L 393.010881 27.231198 
L 403.858786 27.637722 
L 407.474755 27.44701 
L 409.8854 27.479728 
L 412.296046 27.530361 
L 424.349274 27.548396 
L 427.965243 27.461614 
L 430.375889 27.513866 
L 433.991857 27.371191 
L 437.607826 27.285076 
L 440.018471 27.372722 
L 443.63444 27.552984 
L 446.045085 27.558488 
L 454.482345 27.67851 
L 461.714282 27.772282 
L 462.919605 27.832218 
L 465.330251 27.687833 
L 467.740896 27.62622 
L 472.562188 27.569462 
L 476.178156 27.708301 
L 480.999447 27.755191 
L 482.20477 27.827644 
L 493.052676 27.473876 
L 495.463321 27.553668 
L 496.668644 27.445775 
L 501.489936 27.565236 
L 507.51655 27.6357 
L 508.721873 27.694686 
L 511.132518 27.617968 
L 515.95381 27.714286 
L 515.95381 27.714286 
" clip-path="url(#pb89c42b846)" style="fill: none; stroke: #4169e1; stroke-width: 1.5; stroke-linecap: square"/>
   </g>
   <g id="line2d_26">
    <path d="M 35.03 97 
L 36.235323 68.339821 
L 37.440646 77.733184 
L 38.645968 71.176731 
L 39.851291 75.864027 
L 41.056614 79.05358 
L 42.261937 78.943661 
L 43.46726 44.512094 
L 44.672583 46.158798 
L 45.877905 38.985403 
L 47.083228 27.312732 
L 48.288551 25.612743 
L 49.493874 27.075854 
L 50.699197 6.458852 
L 51.90452 8.590471 
L 53.109842 13.970677 
L 55.520488 22.442291 
L 56.725811 21.359066 
L 57.931134 25.110077 
L 59.136457 22.459596 
L 60.341779 25.843974 
L 61.547102 27.002362 
L 62.752425 29.74438 
L 63.957748 31.700099 
L 65.163071 34.126933 
L 66.368394 36.167884 
L 67.573716 33.441294 
L 68.779039 35.424687 
L 69.984362 24.184969 
L 71.189685 26.064654 
L 72.395008 28.23114 
L 73.600331 29.517188 
L 74.805653 28.610904 
L 76.010976 27.88502 
L 77.216299 26.777468 
L 78.421622 26.426528 
L 79.626945 28.258483 
L 80.832268 29.828911 
L 82.03759 31.158114 
L 83.242913 31.72477 
L 84.448236 31.954907 
L 85.653559 31.787413 
L 86.858882 32.242449 
L 88.064205 33.659161 
L 89.269527 34.323314 
L 90.47485 35.218101 
L 91.680173 34.319166 
L 92.885496 35.58309 
L 94.090819 35.665501 
L 95.296142 30.366459 
L 96.501464 28.872463 
L 97.706787 29.986617 
L 98.91211 29.553615 
L 100.117433 30.77589 
L 101.322756 30.981925 
L 102.528079 20.227121 
L 103.733401 20.298035 
L 104.938724 21.399898 
L 106.144047 21.623787 
L 107.34937 20.630343 
L 108.554693 21.861672 
L 109.760016 21.167468 
L 110.965338 22.144151 
L 112.170661 22.238269 
L 113.375984 22.589988 
L 114.581307 21.753068 
L 115.78663 22.833572 
L 116.991953 20.288298 
L 118.197275 20.427653 
L 119.402598 21.319909 
L 120.607921 21.694096 
L 121.813244 19.552639 
L 123.018567 20.377329 
L 125.429212 21.587551 
L 126.634535 22.339037 
L 127.839858 20.574537 
L 131.455826 22.620118 
L 132.661149 22.990549 
L 135.071795 21.939749 
L 136.277118 18.284104 
L 137.482441 18.472196 
L 138.687763 19.139416 
L 139.893086 18.405646 
L 141.098409 18.664942 
L 142.303732 19.487313 
L 143.509055 19.284439 
L 144.714378 19.943029 
L 145.9197 19.76398 
L 147.125023 20.198103 
L 148.330346 20.108862 
L 150.740992 19.526414 
L 151.946315 19.528906 
L 153.151637 18.308276 
L 154.35696 19.076076 
L 155.562283 19.324327 
L 156.767606 18.696286 
L 159.178252 18.609125 
L 160.383574 19.204377 
L 161.588897 19.185674 
L 162.79422 19.89518 
L 163.999543 19.972274 
L 167.615511 21.776652 
L 168.820834 13.778296 
L 172.436803 15.784813 
L 173.642126 15.977797 
L 174.847448 16.510936 
L 176.052771 16.768397 
L 179.66874 17.985644 
L 180.874063 17.631296 
L 183.284708 17.670585 
L 184.490031 17.84008 
L 185.695354 16.978439 
L 188.106 18.184339 
L 189.311322 18.323846 
L 191.721968 19.522401 
L 195.337937 20.983892 
L 196.543259 21.471932 
L 197.748582 21.651519 
L 200.159228 22.708799 
L 201.364551 21.153114 
L 203.775196 22.073231 
L 204.980519 21.981761 
L 206.185842 21.653623 
L 207.391165 22.176213 
L 208.596488 21.930554 
L 211.007133 22.764526 
L 212.212456 22.943432 
L 215.828425 24.383616 
L 217.033747 24.710103 
L 219.444393 23.419055 
L 220.649716 23.814446 
L 221.855039 23.910242 
L 223.060362 22.902079 
L 224.265684 22.816643 
L 225.471007 22.555549 
L 226.67633 22.937426 
L 227.881653 22.004306 
L 229.086976 21.61708 
L 230.292299 21.743015 
L 233.908267 22.974818 
L 235.11359 23.077667 
L 236.318913 23.319746 
L 237.524236 23.422709 
L 238.729558 23.855412 
L 239.934881 23.888177 
L 241.140204 23.604057 
L 242.345527 23.061047 
L 244.756173 23.806268 
L 245.961495 23.523644 
L 248.372141 24.341319 
L 249.577464 24.368724 
L 250.782787 24.057514 
L 255.604078 25.339079 
L 259.220047 25.322672 
L 260.425369 23.561816 
L 261.630692 23.128627 
L 262.836015 23.400279 
L 264.041338 23.479163 
L 266.451984 24.225724 
L 267.657306 23.695012 
L 268.862629 24.063441 
L 270.067952 22.706927 
L 271.273275 22.219552 
L 272.478598 22.215477 
L 274.889243 22.582081 
L 276.094566 22.321826 
L 277.299889 22.52754 
L 278.505212 22.587346 
L 280.915858 23.149147 
L 282.12118 22.925959 
L 284.531826 23.593879 
L 285.737149 23.359236 
L 286.942472 23.671286 
L 288.147794 23.198296 
L 289.353117 23.536355 
L 290.55844 23.502941 
L 291.763763 23.840725 
L 292.969086 23.502645 
L 294.174409 23.518113 
L 298.9957 24.583961 
L 300.201023 24.713023 
L 301.406346 24.518801 
L 302.611668 22.992726 
L 303.816991 22.86024 
L 305.022314 23.188977 
L 306.227637 20.365813 
L 307.43296 20.670785 
L 308.638283 20.474849 
L 312.254251 21.28454 
L 313.459574 21.318495 
L 315.87022 21.857461 
L 318.280865 22.432568 
L 319.486188 21.95521 
L 320.691511 22.019872 
L 321.896834 21.450818 
L 323.102157 21.45266 
L 324.307479 21.569845 
L 325.512802 21.293346 
L 326.718125 21.539679 
L 327.923448 21.360905 
L 331.539416 22.166575 
L 333.950062 22.144803 
L 335.155385 22.180141 
L 336.360708 22.354901 
L 339.976676 23.143602 
L 343.592645 22.790143 
L 344.797968 23.016968 
L 346.00329 22.138208 
L 347.208613 22.423738 
L 348.413936 22.541252 
L 349.619259 22.82215 
L 350.824582 22.873401 
L 352.029905 23.128523 
L 353.235227 20.731751 
L 354.44055 20.554593 
L 358.056519 21.343628 
L 359.261842 19.86219 
L 362.87781 20.346499 
L 364.083133 20.066489 
L 366.493778 20.562445 
L 367.699101 20.307718 
L 371.31507 21.083448 
L 373.725715 21.391758 
L 374.931038 21.658825 
L 376.136361 21.798507 
L 379.75233 22.566683 
L 380.957652 22.412467 
L 383.368298 22.71212 
L 384.573621 21.835019 
L 385.778944 21.904228 
L 386.984267 22.157468 
L 388.189589 21.653362 
L 389.394912 21.908231 
L 391.805558 22.182101 
L 393.010881 22.385809 
L 394.216204 22.469427 
L 395.421526 22.046124 
L 396.626849 21.867393 
L 397.832172 21.920079 
L 399.037495 21.685136 
L 400.242818 21.752412 
L 402.653463 22.091818 
L 403.858786 22.193193 
L 405.064109 21.855278 
L 406.269432 22.077592 
L 407.474755 22.02458 
L 408.680078 22.244996 
L 409.8854 22.329432 
L 411.090723 22.238253 
L 415.912015 22.975348 
L 417.117337 22.926173 
L 424.349274 24.195543 
L 425.554597 24.318531 
L 426.75992 24.034558 
L 429.170566 24.235818 
L 430.375889 24.45289 
L 431.581211 24.281478 
L 432.786534 24.501169 
L 435.19718 24.465006 
L 438.813148 25.062992 
L 442.429117 24.730445 
L 447.250408 25.291515 
L 453.277022 26.165801 
L 455.687668 26.467585 
L 456.892991 26.639324 
L 458.098314 26.679432 
L 460.508959 27.011516 
L 462.919605 27.012731 
L 464.124928 26.273474 
L 466.535573 26.581663 
L 467.740896 26.277182 
L 471.356865 26.732644 
L 472.562188 26.729139 
L 473.76751 26.463525 
L 474.972833 26.651747 
L 476.178156 26.552904 
L 477.383479 26.737924 
L 478.588802 26.760116 
L 480.999447 27.049598 
L 482.20477 26.87221 
L 491.847353 27.33097 
L 493.052676 26.929253 
L 494.257999 26.896491 
L 495.463321 27.035447 
L 496.668644 26.381105 
L 497.873967 26.414508 
L 499.07929 26.596459 
L 500.284613 26.565062 
L 507.51655 27.374418 
L 508.721873 27.294572 
L 509.927195 27.083502 
L 512.337841 27.427824 
L 514.748487 27.545709 
L 515.95381 27.714286 
L 515.95381 27.714286 
" clip-path="url(#pb89c42b846)" style="fill: none; stroke-dasharray: 5.55,2.4; stroke-dashoffset: 0; stroke: #4169e1; stroke-width: 1.5"/>
   </g>
   <g id="line2d_27">
    <path d="M 35.03 17.495625 
L 36.235323 27.069215 
L 37.440646 26.238139 
L 38.645968 31.236524 
L 39.851291 32.190036 
L 41.056614 32.74944 
L 42.261937 30.835174 
L 43.46726 26.243058 
L 44.672583 27.893777 
L 45.877905 26.693325 
L 47.083228 23.668327 
L 48.288551 25.435776 
L 49.493874 24.061577 
L 50.699197 21.172877 
L 51.90452 21.970749 
L 53.109842 22.204796 
L 54.315165 21.625446 
L 55.520488 21.526077 
L 56.725811 22.417847 
L 57.931134 22.171838 
L 59.136457 23.603349 
L 60.341779 23.56139 
L 61.547102 24.086288 
L 62.752425 23.787231 
L 63.957748 23.985344 
L 66.368394 24.052777 
L 67.573716 24.986919 
L 68.779039 24.757015 
L 69.984362 23.432157 
L 71.189685 23.545227 
L 72.395008 23.465645 
L 73.600331 23.794494 
L 74.805653 24.574699 
L 76.010976 23.966453 
L 77.216299 24.635034 
L 78.421622 25.121194 
L 82.03759 25.520782 
L 83.242913 25.880551 
L 84.448236 25.376318 
L 85.653559 25.806904 
L 86.858882 25.347215 
L 88.064205 25.276096 
L 89.269527 25.396095 
L 90.47485 25.673376 
L 91.680173 25.177033 
L 92.885496 25.007466 
L 94.090819 25.372314 
L 95.296142 24.491485 
L 96.501464 24.936023 
L 97.706787 25.050502 
L 98.91211 24.524289 
L 100.117433 24.59953 
L 101.322756 24.946056 
L 102.528079 23.987882 
L 103.733401 24.327872 
L 104.938724 24.473363 
L 106.144047 24.171931 
L 107.34937 24.623784 
L 108.554693 24.521698 
L 109.760016 24.883638 
L 110.965338 24.725386 
L 112.170661 24.406117 
L 113.375984 24.592248 
L 114.581307 24.990324 
L 115.78663 25.054789 
L 116.991953 24.724347 
L 119.402598 25.192827 
L 120.607921 25.32403 
L 121.813244 25.753161 
L 124.223889 25.493473 
L 125.429212 25.597348 
L 126.634535 25.443108 
L 127.839858 25.083715 
L 132.661149 25.598847 
L 135.071795 26.135598 
L 136.277118 25.567917 
L 137.482441 25.784814 
L 138.687763 25.88837 
L 139.893086 26.220876 
L 141.098409 25.982968 
L 142.303732 25.901447 
L 143.509055 26.14106 
L 144.714378 26.204388 
L 145.9197 25.918963 
L 148.330346 26.256815 
L 149.535669 26.515599 
L 150.740992 26.347916 
L 151.946315 26.531991 
L 153.151637 26.159445 
L 154.35696 26.163916 
L 155.562283 26.055936 
L 156.767606 25.798507 
L 157.972929 25.998947 
L 159.178252 25.812753 
L 167.615511 26.565353 
L 168.820834 25.983123 
L 171.23148 25.898373 
L 177.258094 26.438675 
L 178.463417 26.577197 
L 182.079385 26.182729 
L 184.490031 26.45847 
L 185.695354 26.256243 
L 200.159228 26.569043 
L 201.364551 26.833345 
L 202.569873 26.894807 
L 204.980519 26.650792 
L 206.185842 26.820329 
L 207.391165 26.823271 
L 208.596488 26.949596 
L 213.417779 26.916621 
L 218.23907 27.162072 
L 219.444393 26.937397 
L 221.855039 27.093456 
L 224.265684 27.438455 
L 225.471007 27.57002 
L 226.67633 27.519691 
L 229.086976 27.877425 
L 232.702944 27.720215 
L 235.11359 27.830579 
L 236.318913 27.911789 
L 237.524236 27.797444 
L 241.140204 27.865958 
L 242.345527 28.035571 
L 244.756173 27.948349 
L 245.961495 28.088253 
L 254.398755 28.035946 
L 256.809401 27.851555 
L 258.014724 27.950131 
L 259.220047 27.862195 
L 260.425369 27.584644 
L 262.836015 27.774832 
L 264.041338 27.880468 
L 266.451984 27.886478 
L 267.657306 28.048271 
L 268.862629 28.064068 
L 271.273275 27.771423 
L 273.683921 27.868064 
L 278.505212 27.693763 
L 280.915858 27.761982 
L 283.326503 27.642898 
L 286.942472 27.5353 
L 288.147794 27.670591 
L 289.353117 27.661531 
L 294.174409 27.998011 
L 301.406346 28.228369 
L 302.611668 27.983576 
L 305.022314 28.086148 
L 306.227637 27.806904 
L 307.43296 27.823346 
L 308.638283 27.68245 
L 315.87022 27.804376 
L 318.280865 27.809687 
L 323.102157 28.210342 
L 324.307479 28.171325 
L 325.512802 28.28054 
L 332.744739 28.089832 
L 333.950062 28.161186 
L 337.566031 28.041899 
L 344.797968 28.106309 
L 346.00329 27.977215 
L 352.029905 27.955918 
L 353.235227 27.725575 
L 355.645873 27.799001 
L 360.467164 27.72457 
L 364.083133 27.714661 
L 367.699101 27.69175 
L 374.931038 27.731268 
L 378.547007 27.762301 
L 383.368298 27.56631 
L 384.573621 27.43405 
L 386.984267 27.482915 
L 388.189589 27.360714 
L 394.216204 27.369026 
L 395.421526 27.470963 
L 396.626849 27.372413 
L 403.858786 27.67307 
L 408.680078 27.461414 
L 414.706692 27.557672 
L 417.117337 27.575314 
L 425.554597 27.53616 
L 426.75992 27.443482 
L 430.375889 27.512219 
L 435.19718 27.299231 
L 438.813148 27.281476 
L 443.63444 27.525628 
L 448.455731 27.562873 
L 464.124928 27.74016 
L 472.562188 27.590264 
L 474.972833 27.667154 
L 478.588802 27.751541 
L 489.436707 27.608014 
L 503.900581 27.510858 
L 508.721873 27.653016 
L 511.132518 27.586076 
L 515.95381 27.714286 
L 515.95381 27.714286 
" clip-path="url(#pb89c42b846)" style="fill: none; stroke: #ff8c00; stroke-width: 1.5; stroke-linecap: square"/>
   </g>
   <g id="line2d_28">
    <path d="M 35.03 97 
L 36.235323 78.06736 
L 37.440646 84.092893 
L 38.645968 71.837132 
L 39.851291 76.118473 
L 41.056614 79.27552 
L 42.261937 77.265899 
L 43.46726 49.240704 
L 44.672583 50.044334 
L 45.877905 52.060771 
L 47.083228 37.243985 
L 48.288551 35.125454 
L 49.493874 35.203993 
L 50.699197 17.209657 
L 51.90452 20.688004 
L 53.109842 25.287774 
L 54.315165 28.396799 
L 55.520488 32.173414 
L 56.725811 32.628413 
L 57.931134 35.609463 
L 59.136457 30.06677 
L 60.341779 33.101553 
L 61.547102 34.627661 
L 66.368394 43.270648 
L 67.573716 40.322669 
L 68.779039 41.971349 
L 69.984362 33.290903 
L 72.395008 37.155412 
L 73.600331 38.254052 
L 74.805653 35.832403 
L 76.010976 34.981689 
L 77.216299 33.472666 
L 78.421622 33.432009 
L 80.832268 36.421569 
L 82.03759 37.791714 
L 83.242913 38.16635 
L 84.448236 37.413839 
L 85.653559 37.191031 
L 86.858882 36.673352 
L 89.269527 39.117424 
L 90.47485 39.618401 
L 91.680173 38.422053 
L 92.885496 39.332429 
L 94.090819 39.138426 
L 95.296142 32.25962 
L 96.501464 31.422779 
L 97.706787 32.519314 
L 98.91211 30.681885 
L 100.117433 31.824521 
L 101.322756 31.624111 
L 102.528079 22.150734 
L 103.733401 22.080208 
L 104.938724 23.096427 
L 106.144047 23.220785 
L 107.34937 21.89978 
L 108.554693 22.979757 
L 109.760016 22.47694 
L 110.965338 23.315452 
L 112.170661 23.101481 
L 113.375984 23.755986 
L 114.581307 22.688762 
L 115.78663 23.724061 
L 116.991953 23.252265 
L 118.197275 23.198904 
L 119.402598 23.717436 
L 120.607921 24.482781 
L 121.813244 22.737283 
L 125.429212 24.999763 
L 126.634535 25.561348 
L 127.839858 24.4228 
L 129.045181 25.143083 
L 130.250504 25.532437 
L 131.455826 26.370881 
L 132.661149 26.71362 
L 133.866472 26.660487 
L 135.071795 25.889841 
L 136.277118 21.134644 
L 137.482441 21.190782 
L 138.687763 21.871648 
L 139.893086 20.738459 
L 141.098409 20.566455 
L 142.303732 21.293541 
L 143.509055 21.058088 
L 144.714378 21.808157 
L 145.9197 21.068445 
L 147.125023 21.46836 
L 148.330346 21.546564 
L 149.535669 21.018344 
L 150.740992 21.244076 
L 151.946315 21.338166 
L 153.151637 19.292809 
L 154.35696 20.069473 
L 155.562283 20.590314 
L 156.767606 19.956822 
L 159.178252 19.862443 
L 160.383574 20.331316 
L 161.588897 20.397807 
L 162.79422 21.098238 
L 163.999543 20.993407 
L 166.410189 22.211722 
L 167.615511 22.500793 
L 168.820834 15.393234 
L 172.436803 17.222565 
L 173.642126 17.638702 
L 174.847448 18.195575 
L 176.052771 18.332677 
L 177.258094 18.637653 
L 179.66874 19.053336 
L 180.874063 18.990264 
L 182.079385 19.382495 
L 184.490031 19.658089 
L 185.695354 19.215953 
L 188.106 20.360071 
L 189.311322 20.636735 
L 190.516645 21.221574 
L 196.543259 23.377853 
L 197.748582 23.446763 
L 200.159228 24.501687 
L 201.364551 23.03194 
L 203.775196 23.771464 
L 206.185842 23.208014 
L 207.391165 23.720203 
L 208.596488 23.750893 
L 209.80181 24.232705 
L 211.007133 24.479191 
L 212.212456 24.611277 
L 215.828425 25.906175 
L 217.033747 26.188151 
L 218.23907 25.830827 
L 219.444393 24.69759 
L 220.649716 25.065981 
L 221.855039 25.203489 
L 223.060362 24.29922 
L 225.471007 24.022108 
L 226.67633 24.395024 
L 227.881653 23.357492 
L 229.086976 23.107858 
L 230.292299 23.319193 
L 233.908267 24.551854 
L 237.524236 24.845361 
L 238.729558 25.2698 
L 239.934881 25.430054 
L 241.140204 25.004482 
L 242.345527 24.398502 
L 244.756173 25.079959 
L 245.961495 24.781049 
L 248.372141 25.587266 
L 249.577464 25.620317 
L 250.782787 25.176634 
L 255.604078 26.305189 
L 258.014724 26.269108 
L 259.220047 26.350238 
L 260.425369 23.750354 
L 261.630692 23.369888 
L 262.836015 23.661533 
L 264.041338 23.607538 
L 266.451984 24.238748 
L 267.657306 23.570188 
L 268.862629 23.936752 
L 270.067952 23.091252 
L 271.273275 22.895634 
L 272.478598 23.06288 
L 274.889243 23.642013 
L 276.094566 23.513607 
L 278.505212 23.880911 
L 280.915858 24.479012 
L 282.12118 24.275909 
L 283.326503 24.626338 
L 285.737149 24.973731 
L 286.942472 25.30054 
L 288.147794 24.846353 
L 289.353117 25.183123 
L 290.55844 25.042804 
L 291.763763 25.370149 
L 292.969086 24.984366 
L 294.174409 24.955588 
L 298.9957 26.117718 
L 301.406346 26.242471 
L 302.611668 23.81179 
L 303.816991 23.764916 
L 305.022314 24.08316 
L 306.227637 20.781619 
L 307.43296 21.104763 
L 308.638283 20.506776 
L 318.280865 22.697103 
L 319.486188 22.257938 
L 320.691511 22.309506 
L 321.896834 21.77688 
L 323.102157 21.833916 
L 324.307479 22.07034 
L 325.512802 21.786167 
L 326.718125 22.029984 
L 327.923448 21.93264 
L 329.128771 22.104194 
L 331.539416 22.665301 
L 332.744739 22.552609 
L 335.155385 22.635405 
L 337.566031 23.141786 
L 339.976676 23.651771 
L 342.387322 23.525843 
L 343.592645 23.087626 
L 344.797968 23.316379 
L 346.00329 22.712697 
L 347.208613 22.998384 
L 348.413936 23.140781 
L 349.619259 23.413733 
L 350.824582 23.283463 
L 352.029905 23.51962 
L 353.235227 20.903452 
L 354.44055 20.744145 
L 358.056519 21.452471 
L 359.261842 20.686264 
L 360.467164 20.75007 
L 362.87781 21.088514 
L 364.083133 20.847402 
L 366.493778 21.327407 
L 367.699101 21.294361 
L 371.31507 22.05958 
L 373.725715 22.444322 
L 377.341684 23.121358 
L 379.75233 23.588508 
L 382.162975 23.678659 
L 383.368298 23.774494 
L 384.573621 22.978225 
L 385.778944 22.963497 
L 386.984267 23.196781 
L 388.189589 22.543996 
L 389.394912 22.794787 
L 391.805558 23.138246 
L 393.010881 23.361873 
L 394.216204 23.385468 
L 396.626849 22.633069 
L 397.832172 22.73355 
L 399.037495 22.527184 
L 400.242818 22.561925 
L 402.653463 22.925909 
L 403.858786 23.020134 
L 405.064109 22.870093 
L 406.269432 23.077885 
L 407.474755 22.851171 
L 409.8854 23.18372 
L 411.090723 23.031174 
L 415.912015 23.804139 
L 417.117337 23.785965 
L 421.938629 24.631931 
L 425.554597 25.134821 
L 426.75992 24.778639 
L 430.375889 25.256657 
L 431.581211 25.03647 
L 432.786534 25.240335 
L 433.991857 25.282135 
L 435.19718 25.178973 
L 438.813148 25.772915 
L 440.018471 25.573062 
L 443.63444 25.534502 
L 444.839763 25.734684 
L 448.455731 26.081995 
L 453.277022 26.833196 
L 454.482345 26.828555 
L 456.892991 27.173665 
L 459.303636 27.447419 
L 461.714282 27.745506 
L 462.919605 27.644618 
L 464.124928 27.280107 
L 466.535573 27.579678 
L 467.740896 27.318837 
L 471.356865 27.800646 
L 472.562188 27.74766 
L 473.76751 27.379693 
L 474.972833 27.563485 
L 476.178156 27.459584 
L 480.999447 28.032316 
L 482.20477 27.768209 
L 484.615416 27.683211 
L 485.820739 27.855691 
L 487.026062 27.81382 
L 488.231384 27.978665 
L 489.436707 27.807689 
L 490.64203 27.96729 
L 491.847353 27.95772 
L 493.052676 27.432776 
L 494.257999 27.434631 
L 495.463321 27.568759 
L 496.668644 26.577632 
L 497.873967 26.619257 
L 499.07929 26.776793 
L 500.284613 26.741567 
L 506.311227 27.439425 
L 507.51655 27.568098 
L 509.927195 27.243765 
L 512.337841 27.549303 
L 513.543164 27.485745 
L 515.95381 27.714286 
L 515.95381 27.714286 
" clip-path="url(#pb89c42b846)" style="fill: none; stroke-dasharray: 5.55,2.4; stroke-dashoffset: 0; stroke: #ff8c00; stroke-width: 1.5"/>
   </g>
   <g id="patch_3">
    <path d="M 35.03 97 
L 35.03 0 
" style="fill: none; stroke: #000000; stroke-width: 0.8; stroke-linejoin: miter; stroke-linecap: square"/>
   </g>
   <g id="patch_4">
    <path d="M 540 97 
L 540 0 
" style="fill: none; stroke: #000000; stroke-width: 0.8; stroke-linejoin: miter; stroke-linecap: square"/>
   </g>
   <g id="patch_5">
    <path d="M 35.03 97 
L 540 97 
" style="fill: none; stroke: #000000; stroke-width: 0.8; stroke-linejoin: miter; stroke-linecap: square"/>
   </g>
   <g id="patch_6">
    <path d="M 35.03 0 
L 540 0 
" style="fill: none; stroke: #000000; stroke-width: 0.8; stroke-linejoin: miter; stroke-linecap: square"/>
   </g>
  </g>
 </g>
 <defs>
  <clipPath id="pb89c42b846">
   <rect x="35.03" y="0" width="504.97" height="97"/>
  </clipPath>
 </defs>
</svg>
