<?xml version="1.0" encoding="utf-8" standalone="no"?>
<!DOCTYPE svg PUBLIC "-//W3C//DTD SVG 1.1//EN"
  "http://www.w3.org/Graphics/SVG/1.1/DTD/svg11.dtd">
<svg xmlns:xlink="http://www.w3.org/1999/xlink" width="540pt" height="129.6pt" viewBox="0 0 540 129.6" xmlns="http://www.w3.org/2000/svg" version="1.1">
 <metadata>
  <rdf:RDF xmlns:dc="http://purl.org/dc/elements/1.1/" xmlns:cc="http://creativecommons.org/ns#" xmlns:rdf="http://www.w3.org/1999/02/22-rdf-syntax-ns#">
   <cc:Work>
    <dc:type rdf:resource="http://purl.org/dc/dcmitype/StillImage"/>
    <dc:date>2025-04-05T18:35:11.814262</dc:date>
    <dc:format>image/svg+xml</dc:format>
    <dc:creator>
     <cc:Agent>
      <dc:title>Matplotlib v3.10.1, https://matplotlib.org/</dc:title>
     </cc:Agent>
    </dc:creator>
   </cc:Work>
  </rdf:RDF>
 </metadata>
 <defs>
  <style type="text/css">*{stroke-linejoin: round; stroke-linecap: butt}</style>
 </defs>
 <g id="figure_1">
  <g id="patch_1">
   <path d="M 0 129.6 
L 540 129.6 
L 540 0 
L 0 0 
z
" style="fill: #ffffff"/>
  </g>
  <g id="axes_1">
   <g id="patch_2">
    <path d="M 26.795 98.44 
L 540 98.44 
L 540 0.380903 
L 26.795 0.380903 
z
" style="fill: #ffffff"/>
   </g>
   <g id="matplotlib.axis_1">
    <g id="xtick_1">
     <g id="line2d_1">
      <path d="M 26.795 98.44 
L 26.795 0.380903 
" clip-path="url(#p9daef1a586)" style="fill: none; stroke: #b0b0b0; stroke-width: 0.8; stroke-linecap: square"/>
     </g>
     <g id="line2d_2">
      <defs>
       <path id="ma5d7ccf1f1" d="M 0 0 
L 0 3.5 
" style="stroke: #000000; stroke-width: 0.8"/>
      </defs>
      <g>
       <use xlink:href="#ma5d7ccf1f1" x="26.795" y="98.44" style="stroke: #000000; stroke-width: 0.8"/>
      </g>
     </g>
     <g id="text_1">
      <text style="font-size: 10px; font-family: 'Times New Roman'; text-anchor: middle" x="26.795" y="112.38375" transform="rotate(-0 26.795 112.38375)">0</text>
     </g>
    </g>
    <g id="xtick_2">
     <g id="line2d_3">
      <path d="M 88.043956 98.44 
L 88.043956 0.380903 
" clip-path="url(#p9daef1a586)" style="fill: none; stroke: #b0b0b0; stroke-width: 0.8; stroke-linecap: square"/>
     </g>
     <g id="line2d_4">
      <g>
       <use xlink:href="#ma5d7ccf1f1" x="88.043956" y="98.44" style="stroke: #000000; stroke-width: 0.8"/>
      </g>
     </g>
     <g id="text_2">
      <text style="font-size: 10px; font-family: 'Times New Roman'; text-anchor: middle" x="88.043956" y="112.38375" transform="rotate(-0 88.043956 112.38375)">50</text>
     </g>
    </g>
    <g id="xtick_3">
     <g id="line2d_5">
      <path d="M 149.292911 98.44 
L 149.292911 0.380903 
" clip-path="url(#p9daef1a586)" style="fill: none; stroke: #b0b0b0; stroke-width: 0.8; stroke-linecap: square"/>
     </g>
     <g id="line2d_6">
      <g>
       <use xlink:href="#ma5d7ccf1f1" x="149.292911" y="98.44" style="stroke: #000000; stroke-width: 0.8"/>
      </g>
     </g>
     <g id="text_3">
      <text style="font-size: 10px; font-family: 'Times New Roman'; text-anchor: middle" x="149.292911" y="112.38375" transform="rotate(-0 149.292911 112.38375)">100</text>
     </g>
    </g>
    <g id="xtick_4">
     <g id="line2d_7">
      <path d="M 210.541867 98.44 
L 210.541867 0.380903 
" clip-path="url(#p9daef1a586)" style="fill: none; stroke: #b0b0b0; stroke-width: 0.8; stroke-linecap: square"/>
     </g>
     <g id="line2d_8">
      <g>
       <use xlink:href="#ma5d7ccf1f1" x="210.541867" y="98.44" style="stroke: #000000; stroke-width: 0.8"/>
      </g>
     </g>
     <g id="text_4">
      <text style="font-size: 10px; font-family: 'Times New Roman'; text-anchor: middle" x="210.541867" y="112.38375" transform="rotate(-0 210.541867 112.38375)">150</text>
     </g>
    </g>
    <g id="xtick_5">
     <g id="line2d_9">
      <path d="M 271.790823 98.44 
L 271.790823 0.380903 
" clip-path="url(#p9daef1a586)" style="fill: none; stroke: #b0b0b0; stroke-width: 0.8; stroke-linecap: square"/>
     </g>
     <g id="line2d_10">
      <g>
       <use xlink:href="#ma5d7ccf1f1" x="271.790823" y="98.44" style="stroke: #000000; stroke-width: 0.8"/>
      </g>
     </g>
     <g id="text_5">
      <text style="font-size: 10px; font-family: 'Times New Roman'; text-anchor: middle" x="271.790823" y="112.38375" transform="rotate(-0 271.790823 112.38375)">200</text>
     </g>
    </g>
    <g id="xtick_6">
     <g id="line2d_11">
      <path d="M 333.039779 98.44 
L 333.039779 0.380903 
" clip-path="url(#p9daef1a586)" style="fill: none; stroke: #b0b0b0; stroke-width: 0.8; stroke-linecap: square"/>
     </g>
     <g id="line2d_12">
      <g>
       <use xlink:href="#ma5d7ccf1f1" x="333.039779" y="98.44" style="stroke: #000000; stroke-width: 0.8"/>
      </g>
     </g>
     <g id="text_6">
      <text style="font-size: 10px; font-family: 'Times New Roman'; text-anchor: middle" x="333.039779" y="112.38375" transform="rotate(-0 333.039779 112.38375)">250</text>
     </g>
    </g>
    <g id="xtick_7">
     <g id="line2d_13">
      <path d="M 394.288734 98.44 
L 394.288734 0.380903 
" clip-path="url(#p9daef1a586)" style="fill: none; stroke: #b0b0b0; stroke-width: 0.8; stroke-linecap: square"/>
     </g>
     <g id="line2d_14">
      <g>
       <use xlink:href="#ma5d7ccf1f1" x="394.288734" y="98.44" style="stroke: #000000; stroke-width: 0.8"/>
      </g>
     </g>
     <g id="text_7">
      <text style="font-size: 10px; font-family: 'Times New Roman'; text-anchor: middle" x="394.288734" y="112.38375" transform="rotate(-0 394.288734 112.38375)">300</text>
     </g>
    </g>
    <g id="xtick_8">
     <g id="line2d_15">
      <path d="M 455.53769 98.44 
L 455.53769 0.380903 
" clip-path="url(#p9daef1a586)" style="fill: none; stroke: #b0b0b0; stroke-width: 0.8; stroke-linecap: square"/>
     </g>
     <g id="line2d_16">
      <g>
       <use xlink:href="#ma5d7ccf1f1" x="455.53769" y="98.44" style="stroke: #000000; stroke-width: 0.8"/>
      </g>
     </g>
     <g id="text_8">
      <text style="font-size: 10px; font-family: 'Times New Roman'; text-anchor: middle" x="455.53769" y="112.38375" transform="rotate(-0 455.53769 112.38375)">350</text>
     </g>
    </g>
    <g id="xtick_9">
     <g id="line2d_17">
      <path d="M 516.786646 98.44 
L 516.786646 0.380903 
" clip-path="url(#p9daef1a586)" style="fill: none; stroke: #b0b0b0; stroke-width: 0.8; stroke-linecap: square"/>
     </g>
     <g id="line2d_18">
      <g>
       <use xlink:href="#ma5d7ccf1f1" x="516.786646" y="98.44" style="stroke: #000000; stroke-width: 0.8"/>
      </g>
     </g>
     <g id="text_9">
      <text style="font-size: 10px; font-family: 'Times New Roman'; text-anchor: middle" x="516.786646" y="112.38375" transform="rotate(-0 516.786646 112.38375)">400</text>
     </g>
    </g>
    <g id="text_10">
     <text style="font-size: 12px; font-family: 'Times New Roman'; text-anchor: middle" x="283.3975" y="126.855312" transform="rotate(-0 283.3975 126.855312)">Simulation Run</text>
    </g>
   </g>
   <g id="matplotlib.axis_2">
    <g id="ytick_1">
     <g id="line2d_19">
      <path d="M 26.795 98.44 
L 540 98.44 
" clip-path="url(#p9daef1a586)" style="fill: none; stroke: #b0b0b0; stroke-width: 0.8; stroke-linecap: square"/>
     </g>
     <g id="line2d_20">
      <defs>
       <path id="m630462fbb1" d="M 0 0 
L -3.5 0 
" style="stroke: #000000; stroke-width: 0.8"/>
      </defs>
      <g>
       <use xlink:href="#m630462fbb1" x="26.795" y="98.44" style="stroke: #000000; stroke-width: 0.8"/>
      </g>
     </g>
     <g id="text_11">
      <text style="font-size: 10px; font-family: 'Times New Roman'; text-anchor: end" x="19.795" y="101.911875" transform="rotate(-0 19.795 101.911875)">0</text>
     </g>
    </g>
    <g id="ytick_2">
     <g id="line2d_21">
      <path d="M 26.795 66.808033 
L 540 66.808033 
" clip-path="url(#p9daef1a586)" style="fill: none; stroke: #b0b0b0; stroke-width: 0.8; stroke-linecap: square"/>
     </g>
     <g id="line2d_22">
      <g>
       <use xlink:href="#m630462fbb1" x="26.795" y="66.808033" style="stroke: #000000; stroke-width: 0.8"/>
      </g>
     </g>
     <g id="text_12">
      <text style="font-size: 10px; font-family: 'Times New Roman'; text-anchor: end" x="19.795" y="70.279908" transform="rotate(-0 19.795 70.279908)">1</text>
     </g>
    </g>
    <g id="ytick_3">
     <g id="line2d_23">
      <path d="M 26.795 35.176067 
L 540 35.176067 
" clip-path="url(#p9daef1a586)" style="fill: none; stroke: #b0b0b0; stroke-width: 0.8; stroke-linecap: square"/>
     </g>
     <g id="line2d_24">
      <g>
       <use xlink:href="#m630462fbb1" x="26.795" y="35.176067" style="stroke: #000000; stroke-width: 0.8"/>
      </g>
     </g>
     <g id="text_13">
      <text style="font-size: 10px; font-family: 'Times New Roman'; text-anchor: end" x="19.795" y="38.647942" transform="rotate(-0 19.795 38.647942)">2</text>
     </g>
    </g>
    <g id="ytick_4">
     <g id="line2d_25">
      <path d="M 26.795 3.5441 
L 540 3.5441 
" clip-path="url(#p9daef1a586)" style="fill: none; stroke: #b0b0b0; stroke-width: 0.8; stroke-linecap: square"/>
     </g>
     <g id="line2d_26">
      <g>
       <use xlink:href="#m630462fbb1" x="26.795" y="3.5441" style="stroke: #000000; stroke-width: 0.8"/>
      </g>
     </g>
     <g id="text_14">
      <text style="font-size: 10px; font-family: 'Times New Roman'; text-anchor: end" x="19.795" y="7.015975" transform="rotate(-0 19.795 7.015975)">3</text>
     </g>
    </g>
    <g id="text_15">
     <text style="font-size: 12px; font-family: 'Times New Roman'; text-anchor: middle" x="8.228125" y="49.410452" transform="rotate(-90 8.228125 49.410452)">Normalized Value</text>
    </g>
   </g>
   <g id="line2d_27">
    <path d="M 26.795 44.483111 
L 28.019979 59.152788 
L 29.244958 63.598169 
L 30.469937 63.471613 
L 31.694916 65.986544 
L 32.919896 65.145506 
L 34.144875 64.980366 
L 35.369854 66.181998 
L 36.594833 66.639689 
L 37.819812 66.503621 
L 39.044791 66.763727 
L 41.494749 68.803636 
L 42.719728 67.612485 
L 43.944708 67.891223 
L 45.169687 68.698069 
L 46.394666 68.75359 
L 47.619645 68.551608 
L 48.844624 68.091864 
L 50.069603 67.841844 
L 51.294582 67.229408 
L 52.519561 67.15457 
L 53.744541 67.455949 
L 54.96952 67.306408 
L 56.194499 67.874095 
L 58.644457 67.849121 
L 62.319394 68.194735 
L 63.544373 67.873869 
L 65.994332 67.999033 
L 67.219311 68.474306 
L 68.44429 68.592339 
L 69.669269 68.94978 
L 73.344206 69.233947 
L 74.569185 68.744961 
L 75.794165 68.832444 
L 78.244123 68.705703 
L 79.469102 68.425471 
L 80.694081 68.732478 
L 81.91906 68.42484 
L 84.369018 68.499975 
L 85.593997 68.383278 
L 86.818977 68.686217 
L 89.268935 68.735713 
L 90.493914 68.695304 
L 91.718893 68.838606 
L 94.168851 68.491946 
L 95.39383 68.067257 
L 96.61881 68.179197 
L 97.843789 68.158983 
L 100.293747 67.62246 
L 101.518726 67.361184 
L 105.193663 67.310934 
L 107.643622 67.505633 
L 111.318559 67.455711 
L 112.543538 67.248142 
L 113.768517 67.290677 
L 114.993496 67.06954 
L 116.218475 67.297182 
L 117.443454 67.106387 
L 126.018308 67.217305 
L 127.243287 66.868169 
L 128.468266 66.671328 
L 130.918225 66.806623 
L 133.368183 66.877761 
L 134.593162 66.931236 
L 135.818141 66.789355 
L 143.168016 66.735751 
L 144.392995 66.696185 
L 146.842953 66.739442 
L 148.067932 66.716569 
L 149.292911 66.816606 
L 152.967849 66.770941 
L 154.192828 66.87182 
L 159.092744 66.900879 
L 163.992661 67.299981 
L 165.21764 67.1748 
L 167.667598 67.212 
L 175.017473 66.59519 
L 189.717222 66.158027 
L 190.942201 66.081588 
L 194.617139 66.314187 
L 195.842118 66.222772 
L 206.86693 66.566796 
L 211.766846 66.415516 
L 216.666763 66.429294 
L 219.116721 66.392687 
L 224.016637 66.532652 
L 225.241617 66.597654 
L 226.466596 66.494652 
L 236.266429 66.607221 
L 238.716387 66.506044 
L 244.841282 66.412507 
L 247.291241 66.37918 
L 252.191157 66.37219 
L 255.866094 66.241507 
L 274.240781 66.183176 
L 275.46576 66.257512 
L 277.915718 66.233212 
L 280.365677 66.148245 
L 285.265593 66.316889 
L 288.94053 66.27494 
L 297.515384 66.418144 
L 301.190322 66.352287 
L 306.090238 66.376577 
L 308.540196 66.334115 
L 324.464925 66.460828 
L 326.914883 66.359205 
L 331.814799 66.530491 
L 337.939695 66.452357 
L 344.064591 66.416965 
L 373.464089 66.70477 
L 377.139027 66.672559 
L 380.813964 66.712579 
L 385.713881 66.666866 
L 390.613797 66.696109 
L 400.41363 66.673809 
L 411.438442 66.674426 
L 418.788317 66.631566 
L 422.463254 66.656301 
L 424.913212 66.609162 
L 433.488066 66.674905 
L 437.163003 66.751229 
L 442.06292 66.785137 
L 457.987648 66.795286 
L 460.437607 66.763314 
L 465.337523 66.758143 
L 470.237439 66.720961 
L 476.362335 66.730064 
L 489.837105 66.690395 
L 493.512043 66.723889 
L 515.561667 66.808033 
L 515.561667 66.808033 
" clip-path="url(#p9daef1a586)" style="fill: none; stroke: #4169e1; stroke-width: 1.5; stroke-linecap: square"/>
   </g>
   <g id="line2d_28">
    <path d="M 26.795 98.44 
L 28.019979 9.430509 
L 29.244958 22.753144 
L 30.469937 41.654984 
L 31.694916 42.547759 
L 32.919896 50.400292 
L 34.144875 57.19543 
L 35.369854 58.170422 
L 37.819812 65.531578 
L 39.044791 68.243423 
L 40.26977 66.110166 
L 41.494749 63.341746 
L 42.719728 58.219682 
L 43.944708 60.451136 
L 45.169687 58.786497 
L 46.394666 61.098656 
L 47.619645 62.886318 
L 48.844624 63.183942 
L 50.069603 64.455498 
L 51.294582 62.971066 
L 52.519561 64.534643 
L 53.744541 65.182289 
L 54.96952 66.35529 
L 56.194499 64.43961 
L 58.644457 66.947173 
L 61.094415 68.974143 
L 62.319394 69.414296 
L 63.544373 69.073101 
L 64.769353 69.988309 
L 65.994332 70.686882 
L 67.219311 68.419991 
L 68.44429 69.081783 
L 69.669269 68.047716 
L 70.894248 68.771939 
L 72.119227 69.281892 
L 73.344206 69.951734 
L 74.569185 66.806922 
L 78.244123 68.733112 
L 79.469102 68.011586 
L 81.91906 65.895027 
L 84.369018 67.197245 
L 85.593997 67.564482 
L 86.818977 66.322037 
L 89.268935 67.418638 
L 90.493914 67.968826 
L 92.943872 68.285429 
L 94.168851 67.707037 
L 95.39383 64.068616 
L 96.61881 64.365806 
L 97.843789 64.933532 
L 99.068768 62.904003 
L 100.293747 62.383058 
L 101.518726 61.242265 
L 105.193663 62.867726 
L 106.418642 62.844167 
L 110.09358 64.189346 
L 111.318559 64.517812 
L 112.543538 63.748165 
L 113.768517 64.176866 
L 116.218475 62.10162 
L 117.443454 61.471937 
L 118.668434 61.950952 
L 119.893413 62.188319 
L 122.343371 63.020141 
L 123.56835 62.809971 
L 126.018308 63.528545 
L 127.243287 59.814908 
L 128.468266 58.944563 
L 129.693246 59.381945 
L 130.918225 59.431492 
L 132.143204 59.597098 
L 134.593162 60.354334 
L 135.818141 60.036483 
L 137.04312 60.456456 
L 138.268099 60.55373 
L 139.493079 60.50009 
L 140.718058 60.863752 
L 141.943037 60.623708 
L 143.168016 60.267799 
L 144.392995 60.599167 
L 145.617974 60.757292 
L 148.067932 61.448099 
L 149.292911 61.400435 
L 152.967849 62.41332 
L 154.192828 62.318678 
L 156.642786 62.949284 
L 159.092744 63.399587 
L 161.542703 63.376274 
L 162.767682 63.310102 
L 163.992661 62.739495 
L 165.21764 62.320252 
L 166.442619 62.433686 
L 167.667598 62.706706 
L 168.892577 62.386064 
L 170.117556 62.558418 
L 171.342536 62.371191 
L 172.567515 60.818014 
L 173.792494 61.096816 
L 175.017473 60.550066 
L 177.467431 61.041834 
L 178.69241 61.202956 
L 183.592327 62.235674 
L 184.817306 62.0793 
L 186.042285 62.348283 
L 187.267264 62.303571 
L 188.492243 62.559562 
L 189.717222 62.074769 
L 190.942201 62.020303 
L 193.39216 61.455446 
L 194.617139 61.655806 
L 195.842118 61.443451 
L 197.067097 61.602409 
L 198.292076 61.507117 
L 199.517055 61.702185 
L 200.742034 61.599986 
L 201.967013 61.827498 
L 203.191992 61.797368 
L 204.416972 61.904177 
L 205.641951 62.126667 
L 210.541867 62.532368 
L 215.441784 63.286846 
L 217.891742 63.250724 
L 220.3417 63.650539 
L 221.566679 63.619766 
L 225.241617 63.833787 
L 226.466596 63.329517 
L 227.691575 63.513826 
L 230.141533 63.647077 
L 231.366512 63.518644 
L 232.591491 63.615214 
L 233.81647 63.439052 
L 236.266429 63.739624 
L 237.491408 63.236437 
L 241.166345 63.743655 
L 243.616303 64.11828 
L 244.841282 64.094081 
L 246.066261 64.200601 
L 247.291241 64.054873 
L 248.51622 64.216097 
L 249.741199 64.205586 
L 250.966178 64.053824 
L 252.191157 64.231071 
L 253.416136 63.935833 
L 254.641115 63.777065 
L 259.541032 64.467221 
L 260.766011 64.417713 
L 261.99099 64.509895 
L 263.215969 64.451028 
L 264.440948 64.616519 
L 265.665927 64.507404 
L 268.115886 64.627566 
L 270.565844 64.897522 
L 271.790823 64.997458 
L 273.015802 64.870239 
L 274.240781 65.034379 
L 276.690739 64.528129 
L 280.365677 64.558896 
L 281.590656 64.344452 
L 282.815635 64.348976 
L 284.040614 63.843835 
L 293.840447 64.699667 
L 295.065426 64.852899 
L 296.290405 64.885515 
L 298.740363 64.553521 
L 306.090238 65.067746 
L 307.315217 64.890056 
L 312.215134 65.291848 
L 314.665092 65.331762 
L 315.890071 65.458949 
L 317.11505 65.413334 
L 318.340029 65.064819 
L 324.464925 65.695948 
L 325.689904 65.502916 
L 326.914883 65.434071 
L 328.139862 65.1325 
L 329.364841 65.217634 
L 330.58982 64.503849 
L 333.039779 64.495043 
L 335.489737 64.654894 
L 336.714716 64.654185 
L 340.389653 64.982159 
L 344.064591 65.030354 
L 350.189486 65.581071 
L 351.414465 65.439134 
L 353.864424 65.574194 
L 355.089403 65.402234 
L 357.539361 65.532048 
L 358.76434 65.395652 
L 372.23911 66.300671 
L 373.464089 66.395956 
L 374.689069 66.286273 
L 377.139027 66.499381 
L 378.364006 66.440714 
L 382.038943 66.607927 
L 383.263922 66.596019 
L 385.713881 66.772289 
L 396.738693 66.674938 
L 397.963672 66.43613 
L 399.188651 66.515026 
L 400.41363 66.373542 
L 402.863588 66.548433 
L 404.088567 66.351329 
L 406.538525 66.451058 
L 407.763505 66.387684 
L 411.438442 66.579964 
L 412.663421 66.629421 
L 413.8884 66.018402 
L 418.788317 66.222791 
L 420.013296 66.090564 
L 422.463254 66.216733 
L 423.688233 65.995529 
L 426.138191 66.111483 
L 427.36317 66.055807 
L 429.813129 66.22815 
L 432.263087 66.2399 
L 434.713045 66.406674 
L 435.938024 66.222811 
L 439.612962 66.169089 
L 443.287899 66.346314 
L 444.512878 66.320745 
L 449.412794 66.683218 
L 450.637774 66.451327 
L 454.312711 66.484239 
L 455.53769 66.135708 
L 457.987648 66.249099 
L 459.212627 65.958502 
L 461.662586 66.019734 
L 462.887565 65.893139 
L 465.337523 66.042888 
L 467.787481 66.077788 
L 469.01246 66.164359 
L 471.462419 66.162186 
L 478.812293 66.541543 
L 483.71221 66.777761 
L 484.937189 66.623556 
L 489.837105 66.818458 
L 493.512043 66.365764 
L 500.861917 66.703826 
L 503.311876 66.58729 
L 508.211792 66.822051 
L 510.66175 66.873867 
L 511.886729 66.952322 
L 513.111708 66.722181 
L 515.561667 66.808033 
L 515.561667 66.808033 
" clip-path="url(#p9daef1a586)" style="fill: none; stroke-dasharray: 5.55,2.4; stroke-dashoffset: 0; stroke: #4169e1; stroke-width: 1.5"/>
   </g>
   <g id="line2d_29">
    <path d="M 26.795 52.0055 
L 28.019979 63.093886 
L 29.244958 66.03546 
L 30.469937 65.104005 
L 31.694916 67.185717 
L 34.144875 65.928371 
L 35.369854 66.642598 
L 36.594833 66.945084 
L 37.819812 66.857669 
L 39.044791 67.054563 
L 41.494749 68.729151 
L 42.719728 68.069588 
L 43.944708 68.034229 
L 45.169687 68.493327 
L 46.394666 68.529151 
L 47.619645 68.257716 
L 48.844624 67.790322 
L 50.069603 67.599827 
L 51.294582 67.028818 
L 53.744541 67.374365 
L 54.96952 67.255612 
L 56.194499 67.782695 
L 58.644457 67.676379 
L 59.869436 67.925622 
L 62.319394 68.083638 
L 63.544373 67.886231 
L 65.994332 67.90696 
L 67.219311 68.365758 
L 68.44429 68.392043 
L 69.669269 68.684009 
L 73.344206 68.842445 
L 74.569185 68.38957 
L 77.019144 68.519529 
L 78.244123 68.428187 
L 79.469102 68.154624 
L 80.694081 68.372043 
L 81.91906 68.220288 
L 83.144039 68.192702 
L 84.369018 68.283396 
L 85.593997 68.157415 
L 86.818977 68.354275 
L 88.043956 68.416585 
L 90.493914 68.338229 
L 91.718893 68.446173 
L 94.168851 68.17798 
L 95.39383 67.850411 
L 96.61881 67.923312 
L 97.843789 67.88388 
L 101.518726 67.372006 
L 111.318559 67.421179 
L 112.543538 67.225619 
L 113.768517 67.294396 
L 114.993496 67.089522 
L 116.218475 67.296217 
L 117.443454 67.161109 
L 126.018308 67.239248 
L 127.243287 66.975941 
L 128.468266 66.840783 
L 134.593162 67.031393 
L 137.04312 66.926538 
L 138.268099 67.022134 
L 140.718058 66.960144 
L 141.943037 67.08075 
L 144.392995 66.961192 
L 150.517891 67.004181 
L 152.967849 66.944317 
L 157.867765 67.073423 
L 160.317723 67.116297 
L 163.992661 67.348401 
L 165.21764 67.262984 
L 167.667598 67.284702 
L 175.017473 66.712225 
L 193.39216 66.56246 
L 205.641951 66.847476 
L 214.216805 66.726318 
L 216.666763 66.688461 
L 220.3417 66.701368 
L 230.141533 66.846025 
L 232.591491 66.714764 
L 236.266429 66.784477 
L 239.941366 66.694673 
L 271.790823 66.341627 
L 277.915718 66.437861 
L 280.365677 66.358382 
L 284.040614 66.507345 
L 290.16551 66.418506 
L 303.64028 66.475159 
L 308.540196 66.447792 
L 426.138191 66.712212 
L 431.038108 66.722985 
L 442.06292 66.829318 
L 457.987648 66.824033 
L 460.437607 66.795658 
L 465.337523 66.78681 
L 472.687398 66.77027 
L 483.71221 66.725971 
L 487.387147 66.737266 
L 491.062084 66.756614 
L 495.962001 66.780142 
L 515.561667 66.808033 
L 515.561667 66.808033 
" clip-path="url(#p9daef1a586)" style="fill: none; stroke: #ff8c00; stroke-width: 1.5; stroke-linecap: square"/>
   </g>
   <g id="line2d_30">
    <path d="M 26.795 98.44 
L 28.019979 20.190752 
L 30.469937 49.398617 
L 31.694916 48.17513 
L 32.919896 55.189944 
L 34.144875 59.980288 
L 35.369854 62.515199 
L 37.819812 69.23713 
L 39.044791 71.645214 
L 40.26977 69.223196 
L 41.494749 65.833387 
L 42.719728 64.563292 
L 43.944708 66.8106 
L 45.169687 66.775364 
L 46.394666 68.624921 
L 47.619645 69.484192 
L 48.844624 68.505642 
L 50.069603 69.563559 
L 51.294582 66.788531 
L 52.519561 67.84944 
L 53.744541 68.738754 
L 54.96952 69.769882 
L 56.194499 66.67329 
L 58.644457 68.928306 
L 59.869436 68.914838 
L 61.094415 69.920065 
L 62.319394 70.553373 
L 63.544373 70.708913 
L 65.994332 72.383599 
L 67.219311 68.729169 
L 68.44429 69.5631 
L 69.669269 68.46645 
L 72.119227 69.965378 
L 73.344206 70.557272 
L 74.569185 66.163775 
L 77.019144 67.485463 
L 78.244123 67.982321 
L 79.469102 66.626555 
L 80.694081 66.009814 
L 81.91906 66.055278 
L 83.144039 66.722037 
L 84.369018 67.136793 
L 85.593997 67.290801 
L 86.818977 66.705264 
L 90.493914 68.206634 
L 91.718893 68.373488 
L 92.943872 68.652932 
L 94.168851 68.050561 
L 95.39383 64.759549 
L 96.61881 65.147455 
L 97.843789 65.65434 
L 99.068768 64.599121 
L 100.293747 64.779666 
L 101.518726 63.669592 
L 105.193663 65.25698 
L 106.418642 65.58521 
L 110.09358 66.936966 
L 111.318559 67.160296 
L 112.543538 65.897121 
L 113.768517 66.135365 
L 116.218475 63.126331 
L 117.443454 62.737506 
L 118.668434 63.189301 
L 119.893413 63.469035 
L 122.343371 64.324854 
L 123.56835 64.166565 
L 126.018308 64.726869 
L 127.243287 61.514943 
L 128.468266 60.989579 
L 129.693246 61.240949 
L 130.918225 61.250164 
L 132.143204 61.53327 
L 134.593162 62.344029 
L 135.818141 62.114093 
L 137.04312 62.513251 
L 138.268099 62.374506 
L 139.493079 62.603783 
L 140.718058 62.979152 
L 141.943037 62.482253 
L 143.168016 62.187056 
L 146.842953 63.217047 
L 148.067932 63.497471 
L 149.292911 63.549231 
L 150.517891 63.881905 
L 151.74287 64.045854 
L 152.967849 64.371882 
L 154.192828 64.516776 
L 156.642786 65.014402 
L 157.867765 65.033572 
L 159.092744 65.271056 
L 161.542703 65.165444 
L 162.767682 65.295017 
L 163.992661 64.634481 
L 165.21764 64.406324 
L 167.667598 64.930555 
L 168.892577 64.416765 
L 170.117556 64.429493 
L 171.342536 63.871107 
L 172.567515 62.698492 
L 173.792494 62.840397 
L 175.017473 62.06366 
L 178.69241 62.776839 
L 183.592327 63.816431 
L 184.817306 63.059331 
L 187.267264 63.550535 
L 188.492243 63.735006 
L 190.942201 63.771449 
L 193.39216 63.360544 
L 199.517055 64.103052 
L 200.742034 63.884814 
L 201.967013 64.110836 
L 203.191992 63.991253 
L 205.641951 64.333271 
L 208.091909 64.558494 
L 209.316888 64.597197 
L 211.766846 64.814509 
L 214.216805 65.066509 
L 215.441784 65.202267 
L 216.666763 64.981094 
L 224.016637 65.682698 
L 225.241617 65.450402 
L 226.466596 64.901963 
L 227.691575 65.09077 
L 228.916554 65.114003 
L 230.141533 65.274476 
L 231.366512 64.823278 
L 232.591491 64.720259 
L 233.81647 64.756013 
L 235.041449 64.952005 
L 236.266429 65.021939 
L 237.491408 64.807357 
L 239.941366 65.108946 
L 243.616303 65.581011 
L 244.841282 65.331473 
L 246.066261 65.512906 
L 247.291241 65.334821 
L 248.51622 65.467754 
L 250.966178 65.163152 
L 252.191157 65.269922 
L 253.416136 64.691169 
L 254.641115 64.564757 
L 259.541032 65.260392 
L 260.766011 65.066234 
L 261.99099 65.175727 
L 263.215969 64.974939 
L 264.440948 65.146549 
L 265.665927 65.045451 
L 274.240781 65.773101 
L 275.46576 65.346302 
L 277.915718 65.53822 
L 279.140698 65.392382 
L 280.365677 65.422501 
L 281.590656 65.073999 
L 282.815635 65.116666 
L 284.040614 64.831974 
L 285.265593 64.820892 
L 286.490572 64.689566 
L 288.94053 64.921412 
L 292.615468 65.239919 
L 295.065426 65.478879 
L 296.290405 65.47174 
L 298.740363 64.902609 
L 301.190322 65.131307 
L 302.415301 65.018705 
L 303.64028 65.147174 
L 307.315217 65.157484 
L 310.990155 65.556415 
L 313.440113 65.542766 
L 317.11505 65.824352 
L 318.340029 65.490076 
L 324.464925 65.98113 
L 325.689904 65.681445 
L 326.914883 65.687739 
L 328.139862 65.542027 
L 329.364841 65.634903 
L 330.58982 64.655234 
L 334.264758 64.745271 
L 335.489737 64.861255 
L 336.714716 64.834757 
L 340.389653 65.163429 
L 347.739528 65.620289 
L 350.189486 65.856056 
L 351.414465 65.768528 
L 352.639444 65.890893 
L 353.864424 65.867767 
L 355.089403 65.509394 
L 357.539361 65.575975 
L 358.76434 65.447094 
L 364.889236 65.755598 
L 369.789152 66.134856 
L 372.23911 66.2666 
L 373.464089 66.325742 
L 374.689069 66.218203 
L 377.139027 66.41959 
L 378.364006 66.378662 
L 380.813964 66.561859 
L 383.263922 66.667229 
L 386.93886 66.878419 
L 389.388818 67.005511 
L 394.288734 66.842036 
L 395.513713 66.938943 
L 396.738693 66.818735 
L 397.963672 66.566056 
L 406.538525 66.699296 
L 412.663421 66.944857 
L 413.8884 66.430399 
L 418.788317 66.589519 
L 420.013296 66.499749 
L 422.463254 66.617976 
L 423.688233 66.469912 
L 426.138191 66.575676 
L 428.58815 66.672676 
L 431.038108 66.720248 
L 433.488066 66.746087 
L 434.713045 66.812219 
L 435.938024 66.594096 
L 438.387982 66.495887 
L 440.837941 66.658571 
L 442.06292 66.610982 
L 449.412794 67.09596 
L 450.637774 66.920862 
L 454.312711 67.00076 
L 455.53769 66.711208 
L 457.987648 66.833689 
L 459.212627 66.397467 
L 466.562502 66.464975 
L 469.01246 66.629445 
L 471.462419 66.595203 
L 477.587314 66.903584 
L 482.487231 67.149141 
L 483.71221 67.225382 
L 484.937189 66.937669 
L 489.837105 67.013918 
L 493.512043 66.458997 
L 494.737022 66.541007 
L 495.962001 66.446803 
L 500.861917 66.755352 
L 504.536855 66.707159 
L 508.211792 66.859353 
L 509.436771 66.768313 
L 511.886729 66.922356 
L 513.111708 66.76432 
L 514.336688 66.728763 
L 515.561667 66.808033 
L 515.561667 66.808033 
" clip-path="url(#p9daef1a586)" style="fill: none; stroke-dasharray: 5.55,2.4; stroke-dashoffset: 0; stroke: #ff8c00; stroke-width: 1.5"/>
   </g>
   <g id="patch_3">
    <path d="M 26.795 98.44 
L 26.795 0.380903 
" style="fill: none; stroke: #000000; stroke-width: 0.8; stroke-linejoin: miter; stroke-linecap: square"/>
   </g>
   <g id="patch_4">
    <path d="M 540 98.44 
L 540 0.380903 
" style="fill: none; stroke: #000000; stroke-width: 0.8; stroke-linejoin: miter; stroke-linecap: square"/>
   </g>
   <g id="patch_5">
    <path d="M 26.795 98.44 
L 540 98.44 
" style="fill: none; stroke: #000000; stroke-width: 0.8; stroke-linejoin: miter; stroke-linecap: square"/>
   </g>
   <g id="patch_6">
    <path d="M 26.795 0.380903 
L 540 0.380903 
" style="fill: none; stroke: #000000; stroke-width: 0.8; stroke-linejoin: miter; stroke-linecap: square"/>
   </g>
  </g>
 </g>
 <defs>
  <clipPath id="p9daef1a586">
   <rect x="26.795" y="0.380903" width="513.205" height="98.059097"/>
  </clipPath>
 </defs>
</svg>
