<?xml version="1.0" encoding="utf-8" standalone="no"?>
<!DOCTYPE svg PUBLIC "-//W3C//DTD SVG 1.1//EN"
  "http://www.w3.org/Graphics/SVG/1.1/DTD/svg11.dtd">
<svg xmlns:xlink="http://www.w3.org/1999/xlink" width="540pt" height="129.6pt" viewBox="0 0 540 129.6" xmlns="http://www.w3.org/2000/svg" version="1.1">
 <metadata>
  <rdf:RDF xmlns:dc="http://purl.org/dc/elements/1.1/" xmlns:cc="http://creativecommons.org/ns#" xmlns:rdf="http://www.w3.org/1999/02/22-rdf-syntax-ns#">
   <cc:Work>
    <dc:type rdf:resource="http://purl.org/dc/dcmitype/StillImage"/>
    <dc:date>2025-03-30T21:43:30.649995</dc:date>
    <dc:format>image/svg+xml</dc:format>
    <dc:creator>
     <cc:Agent>
      <dc:title>Matplotlib v3.8.3, https://matplotlib.org/</dc:title>
     </cc:Agent>
    </dc:creator>
   </cc:Work>
  </rdf:RDF>
 </metadata>
 <defs>
  <style type="text/css">*{stroke-linejoin: round; stroke-linecap: butt}</style>
 </defs>
 <g id="figure_1">
  <g id="patch_1">
   <path d="M 0 129.6 
L 540 129.6 
L 540 0 
L 0 0 
z
" style="fill: #ffffff"/>
  </g>
  <g id="axes_1">
   <g id="patch_2">
    <path d="M 27.56 97 
L 540 97 
L 540 0 
L 27.56 0 
z
" style="fill: #ffffff"/>
   </g>
   <g id="matplotlib.axis_1">
    <g id="xtick_1">
     <g id="line2d_1">
      <path d="M 27.56 97 
L 27.56 0 
" clip-path="url(#pa6b81eeffe)" style="fill: none; stroke: #b0b0b0; stroke-width: 0.8; stroke-linecap: square"/>
     </g>
     <g id="line2d_2">
      <defs>
       <path id="m9453519849" d="M 0 0 
L 0 3.5 
" style="stroke: #000000; stroke-width: 0.8"/>
      </defs>
      <g>
       <use xlink:href="#m9453519849" x="27.56" y="97" style="stroke: #000000; stroke-width: 0.8"/>
      </g>
     </g>
     <g id="text_1">
      <text style="font: 10px 'Times New Roman'; text-anchor: middle" x="27.56" y="110.94375" transform="rotate(-0 27.56 110.94375)">0</text>
     </g>
    </g>
    <g id="xtick_2">
     <g id="line2d_3">
      <path d="M 88.717656 97 
L 88.717656 0 
" clip-path="url(#pa6b81eeffe)" style="fill: none; stroke: #b0b0b0; stroke-width: 0.8; stroke-linecap: square"/>
     </g>
     <g id="line2d_4">
      <g>
       <use xlink:href="#m9453519849" x="88.717656" y="97" style="stroke: #000000; stroke-width: 0.8"/>
      </g>
     </g>
     <g id="text_2">
      <text style="font: 10px 'Times New Roman'; text-anchor: middle" x="88.717656" y="110.94375" transform="rotate(-0 88.717656 110.94375)">50</text>
     </g>
    </g>
    <g id="xtick_3">
     <g id="line2d_5">
      <path d="M 149.875312 97 
L 149.875312 0 
" clip-path="url(#pa6b81eeffe)" style="fill: none; stroke: #b0b0b0; stroke-width: 0.8; stroke-linecap: square"/>
     </g>
     <g id="line2d_6">
      <g>
       <use xlink:href="#m9453519849" x="149.875312" y="97" style="stroke: #000000; stroke-width: 0.8"/>
      </g>
     </g>
     <g id="text_3">
      <text style="font: 10px 'Times New Roman'; text-anchor: middle" x="149.875312" y="110.94375" transform="rotate(-0 149.875312 110.94375)">100</text>
     </g>
    </g>
    <g id="xtick_4">
     <g id="line2d_7">
      <path d="M 211.032968 97 
L 211.032968 0 
" clip-path="url(#pa6b81eeffe)" style="fill: none; stroke: #b0b0b0; stroke-width: 0.8; stroke-linecap: square"/>
     </g>
     <g id="line2d_8">
      <g>
       <use xlink:href="#m9453519849" x="211.032968" y="97" style="stroke: #000000; stroke-width: 0.8"/>
      </g>
     </g>
     <g id="text_4">
      <text style="font: 10px 'Times New Roman'; text-anchor: middle" x="211.032968" y="110.94375" transform="rotate(-0 211.032968 110.94375)">150</text>
     </g>
    </g>
    <g id="xtick_5">
     <g id="line2d_9">
      <path d="M 272.190624 97 
L 272.190624 0 
" clip-path="url(#pa6b81eeffe)" style="fill: none; stroke: #b0b0b0; stroke-width: 0.8; stroke-linecap: square"/>
     </g>
     <g id="line2d_10">
      <g>
       <use xlink:href="#m9453519849" x="272.190624" y="97" style="stroke: #000000; stroke-width: 0.8"/>
      </g>
     </g>
     <g id="text_5">
      <text style="font: 10px 'Times New Roman'; text-anchor: middle" x="272.190624" y="110.94375" transform="rotate(-0 272.190624 110.94375)">200</text>
     </g>
    </g>
    <g id="xtick_6">
     <g id="line2d_11">
      <path d="M 333.34828 97 
L 333.34828 0 
" clip-path="url(#pa6b81eeffe)" style="fill: none; stroke: #b0b0b0; stroke-width: 0.8; stroke-linecap: square"/>
     </g>
     <g id="line2d_12">
      <g>
       <use xlink:href="#m9453519849" x="333.34828" y="97" style="stroke: #000000; stroke-width: 0.8"/>
      </g>
     </g>
     <g id="text_6">
      <text style="font: 10px 'Times New Roman'; text-anchor: middle" x="333.34828" y="110.94375" transform="rotate(-0 333.34828 110.94375)">250</text>
     </g>
    </g>
    <g id="xtick_7">
     <g id="line2d_13">
      <path d="M 394.505936 97 
L 394.505936 0 
" clip-path="url(#pa6b81eeffe)" style="fill: none; stroke: #b0b0b0; stroke-width: 0.8; stroke-linecap: square"/>
     </g>
     <g id="line2d_14">
      <g>
       <use xlink:href="#m9453519849" x="394.505936" y="97" style="stroke: #000000; stroke-width: 0.8"/>
      </g>
     </g>
     <g id="text_7">
      <text style="font: 10px 'Times New Roman'; text-anchor: middle" x="394.505936" y="110.94375" transform="rotate(-0 394.505936 110.94375)">300</text>
     </g>
    </g>
    <g id="xtick_8">
     <g id="line2d_15">
      <path d="M 455.663592 97 
L 455.663592 0 
" clip-path="url(#pa6b81eeffe)" style="fill: none; stroke: #b0b0b0; stroke-width: 0.8; stroke-linecap: square"/>
     </g>
     <g id="line2d_16">
      <g>
       <use xlink:href="#m9453519849" x="455.663592" y="97" style="stroke: #000000; stroke-width: 0.8"/>
      </g>
     </g>
     <g id="text_8">
      <text style="font: 10px 'Times New Roman'; text-anchor: middle" x="455.663592" y="110.94375" transform="rotate(-0 455.663592 110.94375)">350</text>
     </g>
    </g>
    <g id="xtick_9">
     <g id="line2d_17">
      <path d="M 516.821248 97 
L 516.821248 0 
" clip-path="url(#pa6b81eeffe)" style="fill: none; stroke: #b0b0b0; stroke-width: 0.8; stroke-linecap: square"/>
     </g>
     <g id="line2d_18">
      <g>
       <use xlink:href="#m9453519849" x="516.821248" y="97" style="stroke: #000000; stroke-width: 0.8"/>
      </g>
     </g>
     <g id="text_9">
      <text style="font: 10px 'Times New Roman'; text-anchor: middle" x="516.821248" y="110.94375" transform="rotate(-0 516.821248 110.94375)">400</text>
     </g>
    </g>
    <g id="text_10">
     <text style="font: 12px 'Times New Roman'; text-anchor: middle" x="283.78" y="125.415312" transform="rotate(-0 283.78 125.415312)">Simulation Run</text>
    </g>
   </g>
   <g id="matplotlib.axis_2">
    <g id="ytick_1">
     <g id="line2d_19">
      <path d="M 27.56 97 
L 540 97 
" clip-path="url(#pa6b81eeffe)" style="fill: none; stroke: #b0b0b0; stroke-width: 0.8; stroke-linecap: square"/>
     </g>
     <g id="line2d_20">
      <defs>
       <path id="m5912275bc6" d="M 0 0 
L -3.5 0 
" style="stroke: #000000; stroke-width: 0.8"/>
      </defs>
      <g>
       <use xlink:href="#m5912275bc6" x="27.56" y="97" style="stroke: #000000; stroke-width: 0.8"/>
      </g>
     </g>
     <g id="text_11">
      <text style="font: 10px 'Times New Roman'; text-anchor: end" x="20.56" y="100.471875" transform="rotate(-0 20.56 100.471875)">0</text>
     </g>
    </g>
    <g id="ytick_2">
     <g id="line2d_21">
      <path d="M 27.56 54.826087 
L 540 54.826087 
" clip-path="url(#pa6b81eeffe)" style="fill: none; stroke: #b0b0b0; stroke-width: 0.8; stroke-linecap: square"/>
     </g>
     <g id="line2d_22">
      <g>
       <use xlink:href="#m5912275bc6" x="27.56" y="54.826087" style="stroke: #000000; stroke-width: 0.8"/>
      </g>
     </g>
     <g id="text_12">
      <text style="font: 10px 'Times New Roman'; text-anchor: end" x="20.56" y="58.297962" transform="rotate(-0 20.56 58.297962)">2</text>
     </g>
    </g>
    <g id="ytick_3">
     <g id="line2d_23">
      <path d="M 27.56 12.652174 
L 540 12.652174 
" clip-path="url(#pa6b81eeffe)" style="fill: none; stroke: #b0b0b0; stroke-width: 0.8; stroke-linecap: square"/>
     </g>
     <g id="line2d_24">
      <g>
       <use xlink:href="#m5912275bc6" x="27.56" y="12.652174" style="stroke: #000000; stroke-width: 0.8"/>
      </g>
     </g>
     <g id="text_13">
      <text style="font: 10px 'Times New Roman'; text-anchor: end" x="20.56" y="16.124049" transform="rotate(-0 20.56 16.124049)">4</text>
     </g>
    </g>
    <g id="text_14">
     <text style="font: 12px 'Times New Roman'; text-anchor: middle" x="8.993125" y="48.5" transform="rotate(-90 8.993125 48.5)">Normalized Value</text>
    </g>
   </g>
   <g id="line2d_25">
    <path d="M 27.56 57.62267 
L 28.783153 67.203214 
L 30.006306 63.917982 
L 31.229459 69.213127 
L 33.675766 72.344142 
L 34.898919 73.724275 
L 36.122072 72.538123 
L 37.345225 73.380449 
L 38.568378 74.400946 
L 41.014684 74.620398 
L 42.237837 74.240043 
L 43.460991 74.254428 
L 45.907297 75.160063 
L 47.13045 74.76303 
L 48.353603 74.719018 
L 49.576756 75.089395 
L 50.799909 74.930224 
L 53.246216 73.767401 
L 54.469369 73.53063 
L 55.692522 73.640452 
L 56.915675 73.360804 
L 58.138828 73.62453 
L 60.585134 73.884833 
L 61.808287 74.009242 
L 64.254594 74.533093 
L 67.924053 74.362791 
L 70.370359 74.350676 
L 71.593512 74.178539 
L 74.039819 74.215401 
L 75.262972 74.040999 
L 77.709278 74.140935 
L 78.932431 74.149142 
L 82.60189 74.482265 
L 85.048197 74.739715 
L 86.27135 74.455483 
L 87.494503 74.332762 
L 91.163962 74.477396 
L 92.387115 74.351227 
L 96.056575 74.520438 
L 97.279728 74.433143 
L 98.502881 74.632285 
L 99.726034 74.559421 
L 102.17234 74.731837 
L 109.511259 74.945715 
L 113.180718 75.091281 
L 116.850178 75.122411 
L 118.073331 75.207675 
L 119.296484 75.120288 
L 120.519637 75.252637 
L 124.189097 75.18073 
L 127.858556 75.294576 
L 130.304862 75.336594 
L 133.974322 75.438321 
L 138.866934 75.743547 
L 141.31324 75.493459 
L 144.9827 75.646211 
L 148.652159 75.470236 
L 153.544771 75.616485 
L 155.991078 75.728011 
L 164.55315 75.717771 
L 166.999456 75.638851 
L 181.677293 75.662951 
L 186.569906 75.605216 
L 193.908824 75.798047 
L 198.801437 75.843076 
L 201.247743 75.956045 
L 206.140356 75.975073 
L 211.032968 76.020487 
L 217.148734 76.008012 
L 226.933959 76.118329 
L 229.380265 76.114861 
L 231.826571 76.122282 
L 236.719184 76.086326 
L 240.388643 76.13294 
L 245.281256 76.093522 
L 261.182246 76.179775 
L 263.628552 76.210847 
L 266.074859 76.182476 
L 272.190624 76.317828 
L 283.199002 76.181057 
L 291.761074 76.219342 
L 294.20738 76.196278 
L 299.099993 76.280726 
L 301.546299 76.252804 
L 308.885218 76.269249 
L 316.224137 76.254159 
L 318.670443 76.138735 
L 322.339902 76.101008 
L 339.464046 76.04217 
L 349.249271 75.955228 
L 428.754224 76.131755 
L 438.539449 76.025961 
L 451.994133 76.07819 
L 455.663592 76.041618 
L 464.225664 76.042177 
L 469.118277 76.049728 
L 493.581339 75.980736 
L 496.027645 75.90751 
L 515.598095 75.913043 
L 515.598095 75.913043 
" clip-path="url(#pa6b81eeffe)" style="fill: none; stroke: #4169e1; stroke-width: 1.5; stroke-linecap: square"/>
   </g>
   <g id="line2d_26">
    <path d="M 27.56 97 
L 28.783153 42.063752 
L 30.006306 47.456483 
L 31.229459 9.497429 
L 32.452612 20.721593 
L 33.675766 26.594278 
L 34.898919 29.811992 
L 36.122072 32.315859 
L 37.345225 36.105727 
L 38.568378 36.585384 
L 39.791531 41.96324 
L 41.014684 46.506217 
L 42.237837 49.351298 
L 43.460991 52.753167 
L 44.684144 53.673809 
L 45.907297 54.846388 
L 47.13045 55.816444 
L 48.353603 58.08471 
L 49.576756 58.655001 
L 50.799909 60.284138 
L 52.023062 58.582034 
L 53.246216 55.403905 
L 54.469369 56.474254 
L 55.692522 57.996795 
L 58.138828 58.8762 
L 59.361981 60.172186 
L 60.585134 60.998412 
L 61.808287 61.980465 
L 63.031441 61.836998 
L 64.254594 61.857625 
L 70.370359 66.503633 
L 71.593512 66.689406 
L 74.039819 68.179311 
L 75.262972 68.189849 
L 77.709278 69.406829 
L 78.932431 70.046837 
L 80.155584 70.114101 
L 83.825044 71.173998 
L 85.048197 70.883088 
L 86.27135 69.095135 
L 87.494503 69.211552 
L 88.717656 69.705216 
L 89.940809 69.654646 
L 91.163962 70.134539 
L 92.387115 70.127077 
L 93.610269 70.430761 
L 94.833422 70.904796 
L 97.279728 71.27774 
L 98.502881 70.337022 
L 99.726034 70.593926 
L 100.949187 70.437497 
L 104.618647 71.588475 
L 105.8418 71.323853 
L 108.288106 71.954878 
L 109.511259 71.870165 
L 110.734412 72.051897 
L 111.957565 71.973683 
L 114.403872 72.624601 
L 118.073331 73.160994 
L 119.296484 73.131873 
L 120.519637 72.645081 
L 124.189097 73.147363 
L 126.635403 73.557745 
L 127.858556 73.451497 
L 129.081709 73.700037 
L 130.304862 73.746313 
L 132.751168 74.22814 
L 136.420628 74.300233 
L 138.866934 74.017002 
L 140.090087 73.085268 
L 141.31324 72.740295 
L 142.536393 72.725989 
L 144.9827 73.017834 
L 146.205853 72.796315 
L 147.429006 72.192709 
L 152.321618 72.941697 
L 153.544771 72.879678 
L 154.767925 72.505537 
L 159.660537 73.33731 
L 160.88369 73.303082 
L 162.106843 73.095786 
L 164.55315 73.375007 
L 165.776303 73.062547 
L 170.668915 73.800143 
L 174.338375 74.173784 
L 175.561528 74.213371 
L 176.784681 73.504191 
L 179.230987 73.797105 
L 181.677293 73.687159 
L 184.123599 73.960034 
L 185.346753 73.896634 
L 186.569906 73.719019 
L 187.793059 73.736642 
L 189.016212 73.884523 
L 191.462518 73.834458 
L 192.685671 73.591482 
L 193.908824 73.622877 
L 196.355131 73.932458 
L 197.578284 73.798072 
L 198.801437 73.95342 
L 200.02459 73.561456 
L 207.363509 74.106416 
L 214.702427 74.781461 
L 215.925581 74.797957 
L 218.371887 75.014554 
L 219.59504 74.944402 
L 222.041346 75.215074 
L 223.264499 75.049693 
L 225.710806 75.287906 
L 229.380265 75.242088 
L 234.272877 75.414547 
L 236.719184 75.601748 
L 240.388643 75.541021 
L 242.834949 75.654764 
L 250.173868 76.244599 
L 251.397021 75.995356 
L 253.843327 76.163067 
L 255.06648 76.117469 
L 261.182246 76.47867 
L 262.405399 76.346484 
L 263.628552 76.428707 
L 264.851705 76.171916 
L 274.63693 76.356538 
L 275.860084 76.063865 
L 283.199002 76.498727 
L 286.868462 76.620766 
L 288.091615 76.504376 
L 291.761074 76.721882 
L 292.984227 76.333092 
L 295.430533 76.124857 
L 297.87684 76.286684 
L 299.099993 76.246404 
L 300.323146 76.022911 
L 305.215758 76.183428 
L 306.438912 76.060411 
L 313.77783 76.455633 
L 316.224137 76.446226 
L 317.44729 75.158902 
L 318.670443 75.209042 
L 319.893596 75.086151 
L 339.464046 75.816904 
L 341.910352 75.903831 
L 345.579811 76.112729 
L 346.802965 75.654917 
L 349.249271 75.704671 
L 354.141883 76.008527 
L 355.365036 75.961568 
L 356.58819 76.036426 
L 357.811343 75.956178 
L 362.703955 76.174074 
L 363.927108 76.104036 
L 368.819721 76.354361 
L 370.042874 76.278177 
L 377.381793 76.600284 
L 381.051252 76.603241 
L 384.720711 76.736887 
L 393.282783 77.140299 
L 394.505936 77.071187 
L 400.621702 77.253497 
L 403.068008 77.189385 
L 407.960621 77.343098 
L 410.406927 77.292418 
L 411.63008 77.285577 
L 412.853233 77.156982 
L 414.076386 77.197266 
L 415.299539 76.853064 
L 417.745846 76.833091 
L 418.968999 76.870797 
L 421.415305 76.721769 
L 425.084764 76.804954 
L 427.531071 76.865894 
L 429.977377 76.872355 
L 434.869989 76.922735 
L 439.762602 76.752308 
L 445.878367 76.952385 
L 448.324674 76.886572 
L 451.994133 77.022167 
L 453.217286 76.634152 
L 458.109899 76.814208 
L 461.779358 76.789701 
L 463.002511 76.549479 
L 465.448817 76.395883 
L 470.34143 76.53746 
L 471.564583 75.790663 
L 474.010889 75.801196 
L 487.465573 75.962893 
L 491.135033 75.978818 
L 493.581339 76.036684 
L 494.804492 75.287187 
L 500.920258 75.447242 
L 509.48233 75.718403 
L 515.598095 75.913043 
L 515.598095 75.913043 
" clip-path="url(#pa6b81eeffe)" style="fill: none; stroke-dasharray: 5.55,2.4; stroke-dashoffset: 0; stroke: #4169e1; stroke-width: 1.5"/>
   </g>
   <g id="line2d_27">
    <path d="M 27.56 59.697006 
L 28.783153 67.693792 
L 30.006306 64.77109 
L 31.229459 69.35785 
L 33.675766 71.72218 
L 34.898919 73.144782 
L 36.122072 72.505671 
L 38.568378 74.24738 
L 41.014684 74.698472 
L 43.460991 74.416453 
L 45.907297 75.174045 
L 47.13045 74.810475 
L 48.353603 74.665403 
L 49.576756 75.012275 
L 50.799909 74.925592 
L 53.246216 73.886414 
L 54.469369 73.662322 
L 55.692522 73.825345 
L 56.915675 73.507176 
L 58.138828 73.742594 
L 59.361981 73.786595 
L 60.585134 74.002781 
L 61.808287 74.062506 
L 64.254594 74.517588 
L 67.924053 74.333588 
L 70.370359 74.259782 
L 71.593512 74.060901 
L 80.155584 74.21931 
L 85.048197 74.655411 
L 86.27135 74.488504 
L 88.717656 74.524148 
L 91.163962 74.576653 
L 92.387115 74.49348 
L 96.056575 74.733788 
L 97.279728 74.686668 
L 98.502881 74.855661 
L 99.726034 74.788049 
L 102.17234 74.95328 
L 110.734412 75.133194 
L 113.180718 75.175208 
L 116.850178 75.218405 
L 118.073331 75.314065 
L 119.296484 75.23802 
L 120.519637 75.349439 
L 124.189097 75.263143 
L 127.858556 75.367847 
L 130.304862 75.408197 
L 137.643781 75.721962 
L 138.866934 75.805458 
L 141.31324 75.614062 
L 144.9827 75.74002 
L 147.429006 75.557081 
L 163.329996 75.802757 
L 169.445762 75.709858 
L 175.561528 75.79322 
L 178.007834 75.703977 
L 182.900446 75.691568 
L 187.793059 75.68206 
L 191.462518 75.785265 
L 193.908824 75.814249 
L 198.801437 75.860856 
L 202.470896 75.954586 
L 207.363509 75.983154 
L 218.371887 75.98117 
L 223.264499 76.054094 
L 241.611796 76.045534 
L 248.950715 76.038229 
L 251.397021 76.024431 
L 256.289634 76.088628 
L 263.628552 76.160966 
L 266.074859 76.124678 
L 273.413777 76.244024 
L 294.20738 76.188914 
L 299.099993 76.261475 
L 301.546299 76.222745 
L 311.331524 76.248574 
L 326.009361 76.10053 
L 365.150261 76.014505 
L 374.935486 76.028542 
L 382.274405 76.037885 
L 400.621702 76.147782 
L 409.183774 76.20622 
L 418.968999 76.204955 
L 429.977377 76.105276 
L 445.878367 76.057281 
L 451.994133 76.068344 
L 454.440439 76.020215 
L 470.34143 76.053359 
L 474.010889 75.973617 
L 493.581339 75.962404 
L 497.250798 75.90659 
L 511.928636 75.924107 
L 515.598095 75.913043 
L 515.598095 75.913043 
" clip-path="url(#pa6b81eeffe)" style="fill: none; stroke: #ff8c00; stroke-width: 1.5; stroke-linecap: square"/>
   </g>
   <g id="line2d_28">
    <path d="M 27.56 97 
L 28.783153 48.850572 
L 30.006306 52.036877 
L 31.229459 15.755788 
L 32.452612 27.713549 
L 33.675766 34.101712 
L 34.898919 33.944406 
L 36.122072 39.673524 
L 37.345225 41.94969 
L 38.568378 41.752188 
L 39.791531 46.365745 
L 41.014684 50.191542 
L 43.460991 56.505566 
L 45.907297 58.542293 
L 47.13045 59.212099 
L 48.353603 61.042038 
L 49.576756 61.303872 
L 50.799909 62.981185 
L 53.246216 57.930877 
L 54.469369 58.797704 
L 55.692522 59.929225 
L 56.915675 59.582744 
L 58.138828 59.978637 
L 59.361981 61.311897 
L 60.585134 61.636355 
L 61.808287 62.780589 
L 63.031441 62.837823 
L 64.254594 62.720563 
L 70.370359 67.132665 
L 71.593512 66.867757 
L 74.039819 68.390672 
L 76.486125 69.463934 
L 78.932431 70.706358 
L 81.378737 70.805686 
L 83.825044 71.513449 
L 85.048197 71.184651 
L 86.27135 70.704677 
L 88.717656 71.617401 
L 89.940809 71.863564 
L 91.163962 72.309558 
L 94.833422 72.960327 
L 96.056575 72.869234 
L 97.279728 73.189995 
L 98.502881 72.346393 
L 99.726034 72.554214 
L 100.949187 72.460959 
L 102.17234 72.687746 
L 104.618647 73.423728 
L 105.8418 73.239098 
L 107.064953 73.577005 
L 109.511259 73.278424 
L 114.403872 74.408637 
L 116.850178 74.903804 
L 118.073331 74.688561 
L 119.296484 74.655571 
L 120.519637 74.23537 
L 121.74279 74.369474 
L 122.965943 74.629111 
L 125.41225 74.838841 
L 126.635403 75.101683 
L 127.858556 75.113197 
L 129.081709 75.360758 
L 131.528015 75.601025 
L 132.751168 75.843442 
L 133.974322 75.801242 
L 135.197475 75.582702 
L 136.420628 75.638906 
L 137.643781 75.529749 
L 138.866934 75.285448 
L 140.090087 74.768085 
L 141.31324 74.471129 
L 142.536393 74.40117 
L 144.9827 74.715131 
L 147.429006 73.941484 
L 152.321618 74.657481 
L 153.544771 74.562658 
L 154.767925 74.184268 
L 158.437384 74.768604 
L 159.660537 74.909498 
L 162.106843 74.517511 
L 164.55315 74.682395 
L 165.776303 74.278643 
L 169.445762 74.790507 
L 175.561528 75.368279 
L 176.784681 74.791209 
L 179.230987 75.101886 
L 181.677293 74.769779 
L 185.346753 74.883361 
L 186.569906 74.761022 
L 190.239365 75.007687 
L 191.462518 74.928364 
L 192.685671 74.682453 
L 193.908824 74.724273 
L 196.355131 75.043989 
L 197.578284 74.972938 
L 198.801437 75.127634 
L 200.02459 74.83207 
L 207.363509 75.296133 
L 214.702427 76.03405 
L 215.925581 75.924193 
L 218.371887 76.107322 
L 219.59504 76.034495 
L 222.041346 76.262784 
L 223.264499 76.069769 
L 225.710806 76.257357 
L 230.603418 76.168345 
L 231.826571 76.263134 
L 234.272877 76.251424 
L 236.719184 76.441605 
L 237.942337 76.337391 
L 240.388643 76.30115 
L 242.834949 76.401271 
L 248.950715 76.949292 
L 250.173868 76.903261 
L 251.397021 76.701666 
L 253.843327 76.792676 
L 255.06648 76.727474 
L 257.512787 76.877965 
L 259.959093 76.959987 
L 261.182246 77.028129 
L 262.405399 76.907737 
L 263.628552 76.945071 
L 264.851705 76.556091 
L 270.967471 76.64807 
L 272.190624 76.595582 
L 274.63693 76.78013 
L 275.860084 76.561784 
L 281.975849 76.947503 
L 286.868462 77.14411 
L 288.091615 77.027204 
L 291.761074 77.245238 
L 292.984227 76.940467 
L 295.430533 76.804393 
L 297.87684 76.947715 
L 299.099993 76.937177 
L 300.323146 76.556381 
L 305.215758 76.739544 
L 306.438912 76.64691 
L 311.331524 76.892124 
L 313.77783 76.980844 
L 316.224137 77.047552 
L 317.44729 75.611421 
L 330.901974 76.186737 
L 332.125127 76.136559 
L 334.571433 76.245692 
L 337.01774 76.325333 
L 338.240893 76.401045 
L 339.464046 76.27245 
L 345.579811 76.493151 
L 348.026118 76.101296 
L 355.365036 76.469786 
L 367.596568 76.817471 
L 368.819721 76.888421 
L 370.042874 76.807186 
L 377.381793 77.051083 
L 382.274405 76.956232 
L 388.390171 77.21549 
L 398.175396 77.459505 
L 403.068008 77.375596 
L 404.291161 77.43759 
L 405.514314 77.333402 
L 407.960621 77.456231 
L 409.183774 77.362405 
L 411.63008 77.350499 
L 412.853233 77.249295 
L 414.076386 77.303942 
L 415.299539 76.955334 
L 417.745846 76.938451 
L 418.968999 76.995787 
L 422.638458 76.905222 
L 428.754224 77.004013 
L 432.423683 76.898865 
L 437.316296 76.946203 
L 438.539449 76.721828 
L 445.878367 76.936333 
L 449.547827 76.885402 
L 451.994133 76.972762 
L 453.217286 76.354721 
L 458.109899 76.477827 
L 469.118277 76.435286 
L 470.34143 76.486728 
L 471.564583 75.69541 
L 472.787736 75.753778 
L 474.010889 75.65327 
L 481.349808 75.843491 
L 493.581339 76.004533 
L 494.804492 75.406548 
L 499.697105 75.484081 
L 505.81287 75.679818 
L 508.259177 75.692432 
L 515.598095 75.913043 
L 515.598095 75.913043 
" clip-path="url(#pa6b81eeffe)" style="fill: none; stroke-dasharray: 5.55,2.4; stroke-dashoffset: 0; stroke: #ff8c00; stroke-width: 1.5"/>
   </g>
   <g id="patch_3">
    <path d="M 27.56 97 
L 27.56 0 
" style="fill: none; stroke: #000000; stroke-width: 0.8; stroke-linejoin: miter; stroke-linecap: square"/>
   </g>
   <g id="patch_4">
    <path d="M 540 97 
L 540 0 
" style="fill: none; stroke: #000000; stroke-width: 0.8; stroke-linejoin: miter; stroke-linecap: square"/>
   </g>
   <g id="patch_5">
    <path d="M 27.56 97 
L 540 97 
" style="fill: none; stroke: #000000; stroke-width: 0.8; stroke-linejoin: miter; stroke-linecap: square"/>
   </g>
   <g id="patch_6">
    <path d="M 27.56 0 
L 540 0 
" style="fill: none; stroke: #000000; stroke-width: 0.8; stroke-linejoin: miter; stroke-linecap: square"/>
   </g>
  </g>
 </g>
 <defs>
  <clipPath id="pa6b81eeffe">
   <rect x="27.56" y="0" width="512.44" height="97"/>
  </clipPath>
 </defs>
</svg>
