<?xml version="1.0" encoding="utf-8" standalone="no"?>
<!DOCTYPE svg PUBLIC "-//W3C//DTD SVG 1.1//EN"
  "http://www.w3.org/Graphics/SVG/1.1/DTD/svg11.dtd">
<svg xmlns:xlink="http://www.w3.org/1999/xlink" width="540pt" height="129.6pt" viewBox="0 0 540 129.6" xmlns="http://www.w3.org/2000/svg" version="1.1">
 <metadata>
  <rdf:RDF xmlns:dc="http://purl.org/dc/elements/1.1/" xmlns:cc="http://creativecommons.org/ns#" xmlns:rdf="http://www.w3.org/1999/02/22-rdf-syntax-ns#">
   <cc:Work>
    <dc:type rdf:resource="http://purl.org/dc/dcmitype/StillImage"/>
    <dc:date>2025-03-23T17:01:02.115390</dc:date>
    <dc:format>image/svg+xml</dc:format>
    <dc:creator>
     <cc:Agent>
      <dc:title>Matplotlib v3.9.0, https://matplotlib.org/</dc:title>
     </cc:Agent>
    </dc:creator>
   </cc:Work>
  </rdf:RDF>
 </metadata>
 <defs>
  <style type="text/css">*{stroke-linejoin: round; stroke-linecap: butt}</style>
 </defs>
 <g id="figure_1">
  <g id="patch_1">
   <path d="M 0 129.6 
L 540 129.6 
L 540 0 
L 0 0 
z
" style="fill: #ffffff"/>
  </g>
  <g id="axes_1">
   <g id="patch_2">
    <path d="M 27.56 97 
L 540 97 
L 540 0 
L 27.56 0 
z
" style="fill: #ffffff"/>
   </g>
   <g id="matplotlib.axis_1">
    <g id="xtick_1">
     <g id="line2d_1">
      <path d="M 27.56 97 
L 27.56 0 
" clip-path="url(#pd169b8a13d)" style="fill: none; stroke: #b0b0b0; stroke-width: 0.8; stroke-linecap: square"/>
     </g>
     <g id="line2d_2">
      <defs>
       <path id="m4d982e28da" d="M 0 0 
L 0 3.5 
" style="stroke: #000000; stroke-width: 0.8"/>
      </defs>
      <g>
       <use xlink:href="#m4d982e28da" x="27.56" y="97" style="stroke: #000000; stroke-width: 0.8"/>
      </g>
     </g>
     <g id="text_1">
      <text style="font: 10px 'Times New Roman'; text-anchor: middle" x="27.56" y="110.94375" transform="rotate(-0 27.56 110.94375)">0</text>
     </g>
    </g>
    <g id="xtick_2">
     <g id="line2d_3">
      <path d="M 88.717656 97 
L 88.717656 0 
" clip-path="url(#pd169b8a13d)" style="fill: none; stroke: #b0b0b0; stroke-width: 0.8; stroke-linecap: square"/>
     </g>
     <g id="line2d_4">
      <g>
       <use xlink:href="#m4d982e28da" x="88.717656" y="97" style="stroke: #000000; stroke-width: 0.8"/>
      </g>
     </g>
     <g id="text_2">
      <text style="font: 10px 'Times New Roman'; text-anchor: middle" x="88.717656" y="110.94375" transform="rotate(-0 88.717656 110.94375)">50</text>
     </g>
    </g>
    <g id="xtick_3">
     <g id="line2d_5">
      <path d="M 149.875312 97 
L 149.875312 0 
" clip-path="url(#pd169b8a13d)" style="fill: none; stroke: #b0b0b0; stroke-width: 0.8; stroke-linecap: square"/>
     </g>
     <g id="line2d_6">
      <g>
       <use xlink:href="#m4d982e28da" x="149.875312" y="97" style="stroke: #000000; stroke-width: 0.8"/>
      </g>
     </g>
     <g id="text_3">
      <text style="font: 10px 'Times New Roman'; text-anchor: middle" x="149.875312" y="110.94375" transform="rotate(-0 149.875312 110.94375)">100</text>
     </g>
    </g>
    <g id="xtick_4">
     <g id="line2d_7">
      <path d="M 211.032968 97 
L 211.032968 0 
" clip-path="url(#pd169b8a13d)" style="fill: none; stroke: #b0b0b0; stroke-width: 0.8; stroke-linecap: square"/>
     </g>
     <g id="line2d_8">
      <g>
       <use xlink:href="#m4d982e28da" x="211.032968" y="97" style="stroke: #000000; stroke-width: 0.8"/>
      </g>
     </g>
     <g id="text_4">
      <text style="font: 10px 'Times New Roman'; text-anchor: middle" x="211.032968" y="110.94375" transform="rotate(-0 211.032968 110.94375)">150</text>
     </g>
    </g>
    <g id="xtick_5">
     <g id="line2d_9">
      <path d="M 272.190624 97 
L 272.190624 0 
" clip-path="url(#pd169b8a13d)" style="fill: none; stroke: #b0b0b0; stroke-width: 0.8; stroke-linecap: square"/>
     </g>
     <g id="line2d_10">
      <g>
       <use xlink:href="#m4d982e28da" x="272.190624" y="97" style="stroke: #000000; stroke-width: 0.8"/>
      </g>
     </g>
     <g id="text_5">
      <text style="font: 10px 'Times New Roman'; text-anchor: middle" x="272.190624" y="110.94375" transform="rotate(-0 272.190624 110.94375)">200</text>
     </g>
    </g>
    <g id="xtick_6">
     <g id="line2d_11">
      <path d="M 333.34828 97 
L 333.34828 0 
" clip-path="url(#pd169b8a13d)" style="fill: none; stroke: #b0b0b0; stroke-width: 0.8; stroke-linecap: square"/>
     </g>
     <g id="line2d_12">
      <g>
       <use xlink:href="#m4d982e28da" x="333.34828" y="97" style="stroke: #000000; stroke-width: 0.8"/>
      </g>
     </g>
     <g id="text_6">
      <text style="font: 10px 'Times New Roman'; text-anchor: middle" x="333.34828" y="110.94375" transform="rotate(-0 333.34828 110.94375)">250</text>
     </g>
    </g>
    <g id="xtick_7">
     <g id="line2d_13">
      <path d="M 394.505936 97 
L 394.505936 0 
" clip-path="url(#pd169b8a13d)" style="fill: none; stroke: #b0b0b0; stroke-width: 0.8; stroke-linecap: square"/>
     </g>
     <g id="line2d_14">
      <g>
       <use xlink:href="#m4d982e28da" x="394.505936" y="97" style="stroke: #000000; stroke-width: 0.8"/>
      </g>
     </g>
     <g id="text_7">
      <text style="font: 10px 'Times New Roman'; text-anchor: middle" x="394.505936" y="110.94375" transform="rotate(-0 394.505936 110.94375)">300</text>
     </g>
    </g>
    <g id="xtick_8">
     <g id="line2d_15">
      <path d="M 455.663592 97 
L 455.663592 0 
" clip-path="url(#pd169b8a13d)" style="fill: none; stroke: #b0b0b0; stroke-width: 0.8; stroke-linecap: square"/>
     </g>
     <g id="line2d_16">
      <g>
       <use xlink:href="#m4d982e28da" x="455.663592" y="97" style="stroke: #000000; stroke-width: 0.8"/>
      </g>
     </g>
     <g id="text_8">
      <text style="font: 10px 'Times New Roman'; text-anchor: middle" x="455.663592" y="110.94375" transform="rotate(-0 455.663592 110.94375)">350</text>
     </g>
    </g>
    <g id="xtick_9">
     <g id="line2d_17">
      <path d="M 516.821248 97 
L 516.821248 0 
" clip-path="url(#pd169b8a13d)" style="fill: none; stroke: #b0b0b0; stroke-width: 0.8; stroke-linecap: square"/>
     </g>
     <g id="line2d_18">
      <g>
       <use xlink:href="#m4d982e28da" x="516.821248" y="97" style="stroke: #000000; stroke-width: 0.8"/>
      </g>
     </g>
     <g id="text_9">
      <text style="font: 10px 'Times New Roman'; text-anchor: middle" x="516.821248" y="110.94375" transform="rotate(-0 516.821248 110.94375)">400</text>
     </g>
    </g>
    <g id="text_10">
     <text style="font: 12px 'Times New Roman'; text-anchor: middle" x="283.78" y="125.415312" transform="rotate(-0 283.78 125.415312)">Simulation Run</text>
    </g>
   </g>
   <g id="matplotlib.axis_2">
    <g id="ytick_1">
     <g id="line2d_19">
      <path d="M 27.56 97 
L 540 97 
" clip-path="url(#pd169b8a13d)" style="fill: none; stroke: #b0b0b0; stroke-width: 0.8; stroke-linecap: square"/>
     </g>
     <g id="line2d_20">
      <defs>
       <path id="m7fc812c7a5" d="M 0 0 
L -3.5 0 
" style="stroke: #000000; stroke-width: 0.8"/>
      </defs>
      <g>
       <use xlink:href="#m7fc812c7a5" x="27.56" y="97" style="stroke: #000000; stroke-width: 0.8"/>
      </g>
     </g>
     <g id="text_11">
      <text style="font: 10px 'Times New Roman'; text-anchor: end" x="20.56" y="100.471875" transform="rotate(-0 20.56 100.471875)">0</text>
     </g>
    </g>
    <g id="ytick_2">
     <g id="line2d_21">
      <path d="M 27.56 54.826087 
L 540 54.826087 
" clip-path="url(#pd169b8a13d)" style="fill: none; stroke: #b0b0b0; stroke-width: 0.8; stroke-linecap: square"/>
     </g>
     <g id="line2d_22">
      <g>
       <use xlink:href="#m7fc812c7a5" x="27.56" y="54.826087" style="stroke: #000000; stroke-width: 0.8"/>
      </g>
     </g>
     <g id="text_12">
      <text style="font: 10px 'Times New Roman'; text-anchor: end" x="20.56" y="58.297962" transform="rotate(-0 20.56 58.297962)">1</text>
     </g>
    </g>
    <g id="ytick_3">
     <g id="line2d_23">
      <path d="M 27.56 12.652174 
L 540 12.652174 
" clip-path="url(#pd169b8a13d)" style="fill: none; stroke: #b0b0b0; stroke-width: 0.8; stroke-linecap: square"/>
     </g>
     <g id="line2d_24">
      <g>
       <use xlink:href="#m7fc812c7a5" x="27.56" y="12.652174" style="stroke: #000000; stroke-width: 0.8"/>
      </g>
     </g>
     <g id="text_13">
      <text style="font: 10px 'Times New Roman'; text-anchor: end" x="20.56" y="16.124049" transform="rotate(-0 20.56 16.124049)">2</text>
     </g>
    </g>
    <g id="text_14">
     <text style="font: 12px 'Times New Roman'; text-anchor: middle" x="8.993125" y="48.5" transform="rotate(-90 8.993125 48.5)">Normalized Value</text>
    </g>
   </g>
   <g id="line2d_25">
    <path d="M 27.56 59.231423 
L 28.783153 61.819757 
L 30.006306 60.208261 
L 31.229459 60.127497 
L 32.452612 59.615791 
L 33.675766 59.781853 
L 34.898919 54.201551 
L 36.122072 53.5907 
L 37.345225 54.178435 
L 38.568378 54.245462 
L 39.791531 54.18718 
L 41.014684 53.417893 
L 43.460991 50.978649 
L 44.684144 51.952092 
L 45.907297 50.998974 
L 48.353603 53.608231 
L 49.576756 53.751271 
L 52.023062 54.358882 
L 53.246216 54.43318 
L 54.469369 54.168756 
L 55.692522 54.359101 
L 56.915675 54.830624 
L 58.138828 54.596566 
L 59.361981 55.18291 
L 61.808287 55.353756 
L 63.031441 55.661465 
L 64.254594 52.781069 
L 65.477747 52.516107 
L 66.7009 52.534499 
L 70.370359 53.107969 
L 72.816665 53.947919 
L 74.039819 53.696288 
L 75.262972 53.653219 
L 76.486125 53.044758 
L 77.709278 53.13503 
L 82.60189 52.684305 
L 83.825044 52.858619 
L 86.27135 52.272013 
L 87.494503 52.318724 
L 88.717656 52.106442 
L 89.940809 52.331939 
L 91.163962 51.539249 
L 93.610269 51.611733 
L 94.833422 51.412012 
L 96.056575 51.604103 
L 97.279728 51.975675 
L 99.726034 52.219893 
L 100.949187 51.714389 
L 104.618647 51.509876 
L 109.511259 52.064155 
L 113.180718 52.27266 
L 115.627025 52.443861 
L 118.073331 52.339007 
L 119.296484 52.121484 
L 120.519637 52.280118 
L 124.189097 51.9573 
L 127.858556 52.299527 
L 129.081709 52.370087 
L 130.304862 52.681507 
L 131.528015 52.671357 
L 132.751168 52.874668 
L 136.420628 53.000126 
L 138.866934 52.77705 
L 140.090087 53.000629 
L 143.759546 53.03696 
L 146.205853 53.291088 
L 148.652159 53.567315 
L 151.098465 53.63952 
L 153.544771 53.474054 
L 154.767925 53.271993 
L 160.88369 53.656952 
L 162.106843 53.873502 
L 163.329996 53.907264 
L 164.55315 53.75442 
L 168.222609 53.801956 
L 169.445762 53.799037 
L 171.892068 53.992861 
L 174.338375 53.96207 
L 175.561528 54.170122 
L 178.007834 53.946414 
L 179.230987 54.068495 
L 181.677293 53.941986 
L 182.900446 53.766801 
L 184.123599 53.365608 
L 186.569906 53.368708 
L 190.239365 53.734951 
L 195.131978 53.744708 
L 198.801437 53.295361 
L 202.470896 53.524824 
L 203.694049 53.257045 
L 204.917203 53.384256 
L 207.363509 53.442127 
L 208.586662 53.519672 
L 209.809815 53.485217 
L 211.032968 53.335379 
L 212.256121 53.42461 
L 213.479274 53.368261 
L 224.487652 53.82741 
L 225.710806 53.75736 
L 230.603418 53.858936 
L 236.719184 53.998692 
L 240.388643 54.082095 
L 244.058102 53.792254 
L 250.173868 53.655905 
L 256.289634 53.827639 
L 258.73594 53.768612 
L 264.851705 53.84229 
L 268.521165 53.906302 
L 274.63693 53.822481 
L 275.860084 53.623058 
L 277.083237 53.551419 
L 279.529543 53.678707 
L 291.761074 53.807205 
L 295.430533 53.65202 
L 297.87684 53.635807 
L 300.323146 53.640434 
L 312.554677 53.856816 
L 327.232515 53.844745 
L 328.455668 53.892182 
L 330.901974 53.834393 
L 337.01774 53.961148 
L 341.910352 54.0363 
L 344.356658 54.077143 
L 351.695577 54.370005 
L 352.91873 54.459775 
L 354.141883 54.318211 
L 359.034496 54.406689 
L 360.257649 54.320413 
L 367.596568 54.388266 
L 374.935486 54.428448 
L 376.158639 54.323801 
L 390.836477 54.487208 
L 393.282783 54.309012 
L 395.729089 54.379513 
L 399.398549 54.352584 
L 410.406927 54.466613 
L 412.853233 54.42863 
L 421.415305 54.49369 
L 425.084764 54.466159 
L 428.754224 54.465454 
L 453.217286 54.733328 
L 456.886745 54.759661 
L 458.109899 54.792154 
L 460.556205 54.703755 
L 464.225664 54.628553 
L 469.118277 54.608265 
L 515.598095 54.826087 
L 515.598095 54.826087 
" clip-path="url(#pd169b8a13d)" style="fill: none; stroke: #4169e1; stroke-width: 1.5; stroke-linecap: square"/>
   </g>
   <g id="line2d_26">
    <path d="M 27.56 97 
L 28.783153 95.460961 
L 30.006306 94.780817 
L 31.229459 95.331118 
L 32.452612 95.424286 
L 33.675766 95.65523 
L 34.898919 52.925754 
L 36.122072 57.834999 
L 38.568378 65.087358 
L 39.791531 67.980704 
L 41.014684 68.903505 
L 42.237837 67.243975 
L 43.460991 64.613403 
L 44.684144 63.724907 
L 45.907297 62.674243 
L 47.13045 58.809938 
L 48.353603 53.876451 
L 49.576756 56.061507 
L 53.246216 60.847743 
L 55.692522 63.330345 
L 56.915675 63.451317 
L 58.138828 64.427026 
L 59.361981 63.579971 
L 61.808287 65.789016 
L 63.031441 66.198589 
L 64.254594 10.013433 
L 65.477747 12.231802 
L 66.7009 14.798048 
L 69.147206 18.951136 
L 70.370359 20.809782 
L 71.593512 21.462051 
L 72.816665 21.896551 
L 74.039819 23.269539 
L 75.262972 25.096181 
L 76.486125 23.447934 
L 78.932431 26.648022 
L 80.155584 28.143821 
L 81.378737 29.139277 
L 82.60189 30.614307 
L 83.825044 31.705676 
L 85.048197 32.170194 
L 86.27135 32.510284 
L 87.494503 33.775518 
L 89.940809 35.103826 
L 91.163962 28.765483 
L 93.610269 31.187204 
L 96.056575 32.526589 
L 97.279728 31.830312 
L 98.502881 32.615497 
L 99.726034 33.580262 
L 100.949187 31.097772 
L 103.395493 33.147761 
L 105.8418 34.430415 
L 107.064953 34.574398 
L 108.288106 35.503824 
L 109.511259 35.864763 
L 110.734412 36.726654 
L 111.957565 37.230683 
L 113.180718 38.066621 
L 114.403872 38.670699 
L 118.073331 40.846704 
L 119.296484 40.770331 
L 120.519637 41.061233 
L 124.189097 42.518188 
L 126.635403 43.326612 
L 129.081709 44.302087 
L 130.304862 43.050599 
L 131.528015 43.675906 
L 132.751168 43.472184 
L 135.197475 44.547613 
L 136.420628 44.62641 
L 137.643781 45.056878 
L 138.866934 45.215753 
L 140.090087 44.71609 
L 143.759546 46.270945 
L 144.9827 46.637398 
L 147.429006 46.35597 
L 149.875312 46.983458 
L 151.098465 47.473663 
L 153.544771 48.105319 
L 154.767925 47.595527 
L 155.991078 47.972627 
L 157.214231 48.128998 
L 158.437384 48.57453 
L 159.660537 48.795989 
L 160.88369 48.77804 
L 162.106843 48.027472 
L 163.329996 48.435661 
L 164.55315 48.264365 
L 169.445762 49.842071 
L 170.668915 49.910182 
L 171.892068 50.12022 
L 174.338375 50.879067 
L 175.561528 50.053905 
L 179.230987 50.059359 
L 180.45414 50.429668 
L 181.677293 50.395473 
L 182.900446 49.864193 
L 184.123599 45.496703 
L 186.569906 46.272862 
L 189.016212 45.658079 
L 190.239365 45.917345 
L 192.685671 46.668519 
L 195.131978 46.859159 
L 196.355131 46.652889 
L 197.578284 46.958451 
L 198.801437 44.890565 
L 200.02459 44.916235 
L 201.247743 44.576432 
L 202.470896 44.927222 
L 203.694049 42.914294 
L 204.917203 42.745695 
L 207.363509 43.374017 
L 208.586662 43.52948 
L 209.809815 43.845315 
L 211.032968 43.423686 
L 212.256121 43.499965 
L 214.702427 43.958255 
L 215.925581 43.385457 
L 217.148734 43.584877 
L 218.371887 43.922755 
L 219.59504 44.138739 
L 220.818193 44.068787 
L 222.041346 44.301678 
L 223.264499 44.349255 
L 224.487652 44.66524 
L 228.157112 45.087765 
L 229.380265 45.341049 
L 230.603418 45.473563 
L 231.826571 45.775831 
L 233.049724 45.80418 
L 235.496031 46.144605 
L 236.719184 46.062262 
L 237.942337 46.251321 
L 239.16549 46.164918 
L 240.388643 46.282477 
L 241.611796 46.034308 
L 242.834949 46.074097 
L 244.058102 45.985502 
L 245.281256 46.202877 
L 246.504409 45.862493 
L 247.727562 45.767116 
L 248.950715 45.871072 
L 252.620174 46.594494 
L 253.843327 46.863859 
L 255.06648 46.838268 
L 256.289634 47.044175 
L 257.512787 47.101691 
L 261.182246 47.873311 
L 262.405399 47.927119 
L 263.628552 47.730437 
L 266.074859 48.050594 
L 270.967471 48.770729 
L 272.190624 48.843335 
L 273.413777 49.074523 
L 274.63693 48.977757 
L 275.860084 47.358543 
L 277.083237 47.360182 
L 278.30639 47.157035 
L 280.752696 47.576786 
L 281.975849 47.625493 
L 284.422155 48.078029 
L 285.645309 48.014905 
L 286.868462 48.234817 
L 290.537921 48.518085 
L 291.761074 48.739075 
L 292.984227 48.720978 
L 294.20738 48.320966 
L 296.653687 48.662029 
L 299.099993 48.896067 
L 308.885218 49.97499 
L 310.108371 49.83346 
L 311.331524 49.906085 
L 315.000983 50.392791 
L 317.44729 50.636795 
L 318.670443 49.812985 
L 324.786208 50.604518 
L 327.232515 50.748342 
L 328.455668 50.808426 
L 329.678821 50.629499 
L 332.125127 50.842475 
L 333.34828 50.977688 
L 335.794586 51.043787 
L 338.240893 51.13504 
L 339.464046 51.005704 
L 340.687199 50.750607 
L 350.472424 51.236556 
L 351.695577 51.066718 
L 352.91873 50.746317 
L 354.141883 49.689709 
L 359.034496 50.222222 
L 360.257649 49.928465 
L 370.042874 50.995111 
L 373.712333 51.437014 
L 374.935486 51.495138 
L 376.158639 50.93727 
L 377.381793 51.081104 
L 379.828099 50.994094 
L 383.497558 51.357871 
L 384.720711 51.488617 
L 385.943864 51.500202 
L 387.167018 51.363093 
L 388.390171 51.509759 
L 389.613324 51.441029 
L 390.836477 51.509923 
L 393.282783 50.725346 
L 394.505936 50.688982 
L 403.068008 51.594574 
L 404.291161 51.538618 
L 407.960621 51.863367 
L 412.853233 51.910635 
L 415.299539 52.150693 
L 418.968999 52.326819 
L 434.869989 53.460834 
L 436.093142 53.368858 
L 451.994133 54.491958 
L 453.217286 54.450633 
L 458.109899 54.752366 
L 459.333052 54.278029 
L 460.556205 54.397718 
L 463.002511 54.308751 
L 464.225664 53.989932 
L 467.895124 54.175789 
L 469.118277 53.527597 
L 474.010889 53.93691 
L 477.680348 53.931409 
L 480.126655 54.159016 
L 481.349808 54.135619 
L 483.796114 54.340194 
L 485.019267 54.240535 
L 488.688727 54.506606 
L 491.135033 54.527255 
L 493.581339 54.584801 
L 496.027645 54.761055 
L 497.250798 54.709552 
L 498.473952 54.819049 
L 499.697105 54.284147 
L 507.036023 54.775784 
L 508.259177 54.842881 
L 509.48233 54.727202 
L 515.598095 54.826087 
L 515.598095 54.826087 
" clip-path="url(#pd169b8a13d)" style="fill: none; stroke-dasharray: 5.55,2.4; stroke-dashoffset: 0; stroke: #4169e1; stroke-width: 1.5"/>
   </g>
   <g id="line2d_27">
    <path d="M 27.56 54.034335 
L 28.783153 59.632134 
L 30.006306 58.621895 
L 31.229459 58.392564 
L 32.452612 57.934608 
L 33.675766 57.733447 
L 34.898919 53.383221 
L 36.122072 53.052354 
L 37.345225 53.802397 
L 38.568378 54.116259 
L 39.791531 54.130213 
L 41.014684 53.466545 
L 43.460991 51.609458 
L 44.684144 52.256413 
L 45.907297 51.526249 
L 48.353603 53.955311 
L 49.576756 54.192893 
L 50.799909 54.557014 
L 52.023062 54.760302 
L 53.246216 54.726899 
L 54.469369 54.338149 
L 55.692522 54.489828 
L 56.915675 54.904695 
L 58.138828 54.647247 
L 59.361981 55.243472 
L 61.808287 55.304635 
L 63.031441 55.519612 
L 64.254594 53.276936 
L 65.477747 53.004867 
L 66.7009 52.953688 
L 67.924053 53.18436 
L 69.147206 53.19273 
L 70.370359 53.420567 
L 72.816665 54.171517 
L 74.039819 53.886947 
L 75.262972 53.826551 
L 76.486125 53.305574 
L 77.709278 53.397055 
L 82.60189 52.995683 
L 83.825044 53.128731 
L 86.27135 52.648051 
L 87.494503 52.67988 
L 88.717656 52.543771 
L 89.940809 52.698211 
L 91.163962 52.083193 
L 93.610269 52.096359 
L 94.833422 51.91331 
L 96.056575 52.086101 
L 97.279728 52.415902 
L 99.726034 52.595757 
L 100.949187 52.124778 
L 104.618647 51.889913 
L 113.180718 52.537261 
L 116.850178 52.670423 
L 119.296484 52.386514 
L 120.519637 52.499834 
L 124.189097 52.241728 
L 127.858556 52.551644 
L 129.081709 52.621387 
L 130.304862 52.8759 
L 131.528015 52.855783 
L 132.751168 53.041038 
L 136.420628 53.210863 
L 138.866934 53.011598 
L 140.090087 53.16756 
L 142.536393 53.177657 
L 144.9827 53.282028 
L 147.429006 53.614684 
L 151.098465 53.704372 
L 153.544771 53.585507 
L 154.767925 53.470784 
L 160.88369 53.784357 
L 162.106843 53.9724 
L 163.329996 53.989175 
L 164.55315 53.869423 
L 174.338375 54.086675 
L 175.561528 54.270901 
L 178.007834 54.111473 
L 180.45414 54.241148 
L 182.900446 53.994464 
L 184.123599 53.695048 
L 186.569906 53.705637 
L 190.239365 54.010403 
L 195.131978 54.049216 
L 198.801437 53.650322 
L 202.470896 53.861042 
L 203.694049 53.660507 
L 206.140356 53.752908 
L 209.809815 53.80896 
L 211.032968 53.68238 
L 212.256121 53.778546 
L 214.702427 53.762998 
L 217.148734 53.958985 
L 219.59504 53.977921 
L 220.818193 54.076867 
L 226.933959 54.052038 
L 229.380265 54.176771 
L 233.049724 54.056951 
L 237.942337 54.273035 
L 239.16549 54.355088 
L 250.173868 53.928523 
L 256.289634 54.071687 
L 258.73594 54.007572 
L 264.851705 54.071663 
L 267.298012 54.163354 
L 269.744318 54.114883 
L 270.967471 54.172963 
L 277.083237 53.822007 
L 279.529543 53.92488 
L 291.761074 54.102332 
L 295.430533 53.954304 
L 297.87684 53.908837 
L 300.323146 53.889294 
L 310.108371 54.105432 
L 313.77783 54.030928 
L 317.44729 54.099025 
L 319.893596 53.967637 
L 328.455668 54.119766 
L 330.901974 54.05821 
L 335.794586 54.202493 
L 338.240893 54.188673 
L 339.464046 54.240384 
L 340.687199 54.16354 
L 352.91873 54.54265 
L 354.141883 54.422503 
L 359.034496 54.51256 
L 361.480802 54.455264 
L 373.712333 54.484538 
L 374.935486 54.522312 
L 377.381793 54.453748 
L 381.051252 54.449737 
L 390.836477 54.581951 
L 393.282783 54.419952 
L 396.952243 54.468162 
L 403.068008 54.495579 
L 409.183774 54.58235 
L 415.299539 54.527462 
L 418.968999 54.550661 
L 427.531071 54.493968 
L 434.869989 54.558992 
L 439.762602 54.6332 
L 451.994133 54.742899 
L 455.663592 54.715701 
L 460.556205 54.705291 
L 465.448817 54.654849 
L 467.895124 54.692783 
L 470.34143 54.610067 
L 483.796114 54.630017 
L 491.135033 54.773022 
L 494.804492 54.754513 
L 499.697105 54.761714 
L 505.81287 54.816808 
L 514.374942 54.871496 
L 515.598095 54.826087 
L 515.598095 54.826087 
" clip-path="url(#pd169b8a13d)" style="fill: none; stroke: #ff8c00; stroke-width: 1.5; stroke-linecap: square"/>
   </g>
   <g id="line2d_28">
    <path d="M 27.56 97 
L 28.783153 86.83987 
L 30.006306 89.564755 
L 31.229459 91.372409 
L 33.675766 92.956001 
L 34.898919 56.71746 
L 36.122072 61.50431 
L 37.345225 63.989033 
L 39.791531 69.729065 
L 41.014684 70.430705 
L 43.460991 67.499228 
L 44.684144 67.565998 
L 45.907297 66.812657 
L 47.13045 61.595873 
L 48.353603 54.699189 
L 49.576756 56.596116 
L 50.799909 57.799521 
L 53.246216 61.099796 
L 54.469369 61.582647 
L 55.692522 62.886799 
L 56.915675 62.911977 
L 58.138828 63.685798 
L 59.361981 61.922853 
L 61.808287 64.324727 
L 63.031441 64.979346 
L 64.254594 17.088557 
L 65.477747 18.84177 
L 66.7009 21.183024 
L 67.924053 22.8436 
L 69.147206 24.961582 
L 70.370359 26.373561 
L 72.816665 26.799332 
L 74.039819 27.601587 
L 75.262972 29.290421 
L 76.486125 27.421721 
L 78.932431 30.384881 
L 80.155584 31.788371 
L 81.378737 32.612078 
L 82.60189 34.011121 
L 83.825044 35.08729 
L 85.048197 35.397521 
L 86.27135 35.851761 
L 87.494503 37.05863 
L 89.940809 38.675087 
L 91.163962 33.398158 
L 93.610269 35.686787 
L 96.056575 36.708961 
L 97.279728 35.738242 
L 98.502881 36.481267 
L 99.726034 37.433002 
L 100.949187 34.094117 
L 103.395493 35.95344 
L 104.618647 36.408948 
L 105.8418 37.117552 
L 107.064953 37.42773 
L 108.288106 38.314076 
L 109.511259 38.519715 
L 110.734412 39.100999 
L 111.957565 39.510673 
L 114.403872 40.970767 
L 116.850178 42.410611 
L 118.073331 42.894156 
L 119.296484 42.791688 
L 121.74279 43.62988 
L 124.189097 44.637845 
L 125.41225 44.891438 
L 127.858556 45.688104 
L 129.081709 46.168056 
L 130.304862 45.001824 
L 131.528015 45.595301 
L 132.751168 45.229179 
L 135.197475 46.234586 
L 136.420628 46.223472 
L 137.643781 46.600046 
L 138.866934 46.720011 
L 140.090087 46.53507 
L 143.759546 48.034395 
L 144.9827 48.285941 
L 146.205853 47.66259 
L 147.429006 47.502864 
L 152.321618 49.265864 
L 153.544771 49.427957 
L 154.767925 49.437209 
L 155.991078 49.827415 
L 157.214231 50.03391 
L 158.437384 50.468125 
L 159.660537 50.669004 
L 160.88369 50.701621 
L 162.106843 49.857558 
L 163.329996 50.268345 
L 164.55315 50.161125 
L 169.445762 51.653652 
L 170.668915 51.560961 
L 173.115221 52.217945 
L 174.338375 52.587372 
L 175.561528 51.619881 
L 178.007834 51.848697 
L 179.230987 51.838856 
L 180.45414 52.151499 
L 181.677293 52.220588 
L 182.900446 51.472323 
L 184.123599 48.104546 
L 186.569906 48.848537 
L 187.793059 48.61231 
L 189.016212 48.180709 
L 191.462518 48.789487 
L 192.685671 49.142771 
L 195.131978 49.505658 
L 196.355131 49.237368 
L 197.578284 49.442824 
L 198.801437 47.435593 
L 200.02459 47.356102 
L 201.247743 47.079749 
L 202.470896 47.426135 
L 203.694049 45.890388 
L 204.917203 45.778366 
L 207.363509 46.356122 
L 209.809815 46.711412 
L 211.032968 46.265185 
L 212.256121 46.146191 
L 214.702427 46.547556 
L 215.925581 45.843267 
L 217.148734 46.033316 
L 219.59504 46.582795 
L 220.818193 46.398322 
L 222.041346 46.680653 
L 230.603418 47.389874 
L 231.826571 47.669629 
L 233.049724 47.644773 
L 234.272877 47.873491 
L 235.496031 47.921896 
L 236.719184 47.845605 
L 237.942337 48.057617 
L 239.16549 47.961235 
L 240.388643 48.094919 
L 241.611796 47.801601 
L 242.834949 47.810936 
L 244.058102 47.693167 
L 245.281256 47.927687 
L 248.950715 47.779698 
L 253.843327 48.678199 
L 255.06648 48.663588 
L 256.289634 48.889994 
L 257.512787 48.794942 
L 261.182246 49.535506 
L 262.405399 49.571453 
L 263.628552 49.155748 
L 264.851705 49.348935 
L 266.074859 49.338703 
L 269.744318 49.898229 
L 272.190624 49.881103 
L 273.413777 50.110058 
L 274.63693 49.8997 
L 275.860084 48.312016 
L 277.083237 48.407453 
L 278.30639 48.203187 
L 280.752696 48.609154 
L 281.975849 48.68312 
L 284.422155 49.125551 
L 285.645309 48.967457 
L 286.868462 49.177136 
L 288.091615 49.207578 
L 291.761074 49.758361 
L 292.984227 49.605547 
L 294.20738 49.185571 
L 296.653687 49.583256 
L 297.87684 49.568416 
L 302.769452 50.053559 
L 306.438912 50.603416 
L 307.662065 50.508846 
L 308.885218 50.66935 
L 311.331524 50.609655 
L 313.77783 50.964613 
L 317.44729 51.319061 
L 318.670443 50.575005 
L 324.786208 51.302457 
L 328.455668 51.620371 
L 329.678821 51.344917 
L 330.901974 51.512277 
L 334.571433 51.669024 
L 335.794586 51.795222 
L 339.464046 51.825834 
L 340.687199 51.511462 
L 350.472424 51.975082 
L 351.695577 51.781591 
L 352.91873 51.471016 
L 354.141883 50.391214 
L 357.811343 50.697567 
L 359.034496 50.865171 
L 360.257649 50.468323 
L 374.935486 51.901555 
L 376.158639 51.359074 
L 378.604946 51.52704 
L 379.828099 51.515129 
L 383.497558 51.841498 
L 384.720711 51.982737 
L 387.167018 51.825068 
L 388.390171 51.97029 
L 389.613324 51.908278 
L 390.836477 51.994836 
L 392.05963 51.373986 
L 393.282783 51.014388 
L 394.505936 50.94479 
L 401.844855 51.682258 
L 403.068008 51.828881 
L 404.291161 51.838588 
L 407.960621 52.172968 
L 410.406927 52.203455 
L 411.63008 51.873775 
L 416.522692 52.239019 
L 420.192152 52.484662 
L 422.638458 52.702297 
L 425.084764 52.817253 
L 427.531071 52.960713 
L 429.977377 53.193625 
L 431.20053 53.086892 
L 434.869989 53.429267 
L 436.093142 53.357739 
L 444.655214 53.978983 
L 447.10152 54.046936 
L 450.77098 54.35669 
L 451.994133 54.471311 
L 453.217286 54.432994 
L 456.886745 54.662203 
L 458.109899 54.713424 
L 459.333052 54.44547 
L 460.556205 54.565027 
L 463.002511 54.50575 
L 464.225664 54.149237 
L 467.895124 54.381584 
L 469.118277 53.658553 
L 474.010889 54.037806 
L 475.234042 54.052276 
L 476.457195 53.946007 
L 480.126655 54.282761 
L 481.349808 54.265645 
L 483.796114 54.491715 
L 485.019267 54.398011 
L 488.688727 54.611306 
L 493.581339 54.715677 
L 496.027645 54.871664 
L 497.250798 54.770658 
L 498.473952 54.877217 
L 499.697105 54.517814 
L 502.143411 54.62532 
L 508.259177 54.911392 
L 510.705483 54.896812 
L 513.151789 54.883469 
L 514.374942 54.987821 
L 515.598095 54.826087 
L 515.598095 54.826087 
" clip-path="url(#pd169b8a13d)" style="fill: none; stroke-dasharray: 5.55,2.4; stroke-dashoffset: 0; stroke: #ff8c00; stroke-width: 1.5"/>
   </g>
   <g id="patch_3">
    <path d="M 27.56 97 
L 27.56 0 
" style="fill: none; stroke: #000000; stroke-width: 0.8; stroke-linejoin: miter; stroke-linecap: square"/>
   </g>
   <g id="patch_4">
    <path d="M 540 97 
L 540 0 
" style="fill: none; stroke: #000000; stroke-width: 0.8; stroke-linejoin: miter; stroke-linecap: square"/>
   </g>
   <g id="patch_5">
    <path d="M 27.56 97 
L 540 97 
" style="fill: none; stroke: #000000; stroke-width: 0.8; stroke-linejoin: miter; stroke-linecap: square"/>
   </g>
   <g id="patch_6">
    <path d="M 27.56 0 
L 540 0 
" style="fill: none; stroke: #000000; stroke-width: 0.8; stroke-linejoin: miter; stroke-linecap: square"/>
   </g>
  </g>
 </g>
 <defs>
  <clipPath id="pd169b8a13d">
   <rect x="27.56" y="0" width="512.44" height="97"/>
  </clipPath>
 </defs>
</svg>
