<?xml version="1.0" encoding="utf-8" standalone="no"?>
<!DOCTYPE svg PUBLIC "-//W3C//DTD SVG 1.1//EN"
  "http://www.w3.org/Graphics/SVG/1.1/DTD/svg11.dtd">
<svg xmlns:xlink="http://www.w3.org/1999/xlink" width="540pt" height="129.6pt" viewBox="0 0 540 129.6" xmlns="http://www.w3.org/2000/svg" version="1.1">
 <metadata>
  <rdf:RDF xmlns:dc="http://purl.org/dc/elements/1.1/" xmlns:cc="http://creativecommons.org/ns#" xmlns:rdf="http://www.w3.org/1999/02/22-rdf-syntax-ns#">
   <cc:Work>
    <dc:type rdf:resource="http://purl.org/dc/dcmitype/StillImage"/>
    <dc:date>2025-03-29T07:17:16.361412</dc:date>
    <dc:format>image/svg+xml</dc:format>
    <dc:creator>
     <cc:Agent>
      <dc:title>Matplotlib v3.8.3, https://matplotlib.org/</dc:title>
     </cc:Agent>
    </dc:creator>
   </cc:Work>
  </rdf:RDF>
 </metadata>
 <defs>
  <style type="text/css">*{stroke-linejoin: round; stroke-linecap: butt}</style>
 </defs>
 <g id="figure_1">
  <g id="patch_1">
   <path d="M 0 129.6 
L 540 129.6 
L 540 0 
L 0 0 
z
" style="fill: #ffffff"/>
  </g>
  <g id="axes_1">
   <g id="patch_2">
    <path d="M 35.03 97 
L 540 97 
L 540 0 
L 35.03 0 
z
" style="fill: #ffffff"/>
   </g>
   <g id="matplotlib.axis_1">
    <g id="xtick_1">
     <g id="line2d_1">
      <path d="M 35.03 97 
L 35.03 0 
" clip-path="url(#p71d6d90163)" style="fill: none; stroke: #b0b0b0; stroke-width: 0.8; stroke-linecap: square"/>
     </g>
     <g id="line2d_2">
      <defs>
       <path id="mec2807285a" d="M 0 0 
L 0 3.5 
" style="stroke: #000000; stroke-width: 0.8"/>
      </defs>
      <g>
       <use xlink:href="#mec2807285a" x="35.03" y="97" style="stroke: #000000; stroke-width: 0.8"/>
      </g>
     </g>
     <g id="text_1">
      <text style="font: 10px 'Times New Roman'; text-anchor: middle" x="35.03" y="110.94375" transform="rotate(-0 35.03 110.94375)">0</text>
     </g>
    </g>
    <g id="xtick_2">
     <g id="line2d_3">
      <path d="M 95.296142 97 
L 95.296142 0 
" clip-path="url(#p71d6d90163)" style="fill: none; stroke: #b0b0b0; stroke-width: 0.8; stroke-linecap: square"/>
     </g>
     <g id="line2d_4">
      <g>
       <use xlink:href="#mec2807285a" x="95.296142" y="97" style="stroke: #000000; stroke-width: 0.8"/>
      </g>
     </g>
     <g id="text_2">
      <text style="font: 10px 'Times New Roman'; text-anchor: middle" x="95.296142" y="110.94375" transform="rotate(-0 95.296142 110.94375)">50</text>
     </g>
    </g>
    <g id="xtick_3">
     <g id="line2d_5">
      <path d="M 155.562283 97 
L 155.562283 0 
" clip-path="url(#p71d6d90163)" style="fill: none; stroke: #b0b0b0; stroke-width: 0.8; stroke-linecap: square"/>
     </g>
     <g id="line2d_6">
      <g>
       <use xlink:href="#mec2807285a" x="155.562283" y="97" style="stroke: #000000; stroke-width: 0.8"/>
      </g>
     </g>
     <g id="text_3">
      <text style="font: 10px 'Times New Roman'; text-anchor: middle" x="155.562283" y="110.94375" transform="rotate(-0 155.562283 110.94375)">100</text>
     </g>
    </g>
    <g id="xtick_4">
     <g id="line2d_7">
      <path d="M 215.828425 97 
L 215.828425 0 
" clip-path="url(#p71d6d90163)" style="fill: none; stroke: #b0b0b0; stroke-width: 0.8; stroke-linecap: square"/>
     </g>
     <g id="line2d_8">
      <g>
       <use xlink:href="#mec2807285a" x="215.828425" y="97" style="stroke: #000000; stroke-width: 0.8"/>
      </g>
     </g>
     <g id="text_4">
      <text style="font: 10px 'Times New Roman'; text-anchor: middle" x="215.828425" y="110.94375" transform="rotate(-0 215.828425 110.94375)">150</text>
     </g>
    </g>
    <g id="xtick_5">
     <g id="line2d_9">
      <path d="M 276.094566 97 
L 276.094566 0 
" clip-path="url(#p71d6d90163)" style="fill: none; stroke: #b0b0b0; stroke-width: 0.8; stroke-linecap: square"/>
     </g>
     <g id="line2d_10">
      <g>
       <use xlink:href="#mec2807285a" x="276.094566" y="97" style="stroke: #000000; stroke-width: 0.8"/>
      </g>
     </g>
     <g id="text_5">
      <text style="font: 10px 'Times New Roman'; text-anchor: middle" x="276.094566" y="110.94375" transform="rotate(-0 276.094566 110.94375)">200</text>
     </g>
    </g>
    <g id="xtick_6">
     <g id="line2d_11">
      <path d="M 336.360708 97 
L 336.360708 0 
" clip-path="url(#p71d6d90163)" style="fill: none; stroke: #b0b0b0; stroke-width: 0.8; stroke-linecap: square"/>
     </g>
     <g id="line2d_12">
      <g>
       <use xlink:href="#mec2807285a" x="336.360708" y="97" style="stroke: #000000; stroke-width: 0.8"/>
      </g>
     </g>
     <g id="text_6">
      <text style="font: 10px 'Times New Roman'; text-anchor: middle" x="336.360708" y="110.94375" transform="rotate(-0 336.360708 110.94375)">250</text>
     </g>
    </g>
    <g id="xtick_7">
     <g id="line2d_13">
      <path d="M 396.626849 97 
L 396.626849 0 
" clip-path="url(#p71d6d90163)" style="fill: none; stroke: #b0b0b0; stroke-width: 0.8; stroke-linecap: square"/>
     </g>
     <g id="line2d_14">
      <g>
       <use xlink:href="#mec2807285a" x="396.626849" y="97" style="stroke: #000000; stroke-width: 0.8"/>
      </g>
     </g>
     <g id="text_7">
      <text style="font: 10px 'Times New Roman'; text-anchor: middle" x="396.626849" y="110.94375" transform="rotate(-0 396.626849 110.94375)">300</text>
     </g>
    </g>
    <g id="xtick_8">
     <g id="line2d_15">
      <path d="M 456.892991 97 
L 456.892991 0 
" clip-path="url(#p71d6d90163)" style="fill: none; stroke: #b0b0b0; stroke-width: 0.8; stroke-linecap: square"/>
     </g>
     <g id="line2d_16">
      <g>
       <use xlink:href="#mec2807285a" x="456.892991" y="97" style="stroke: #000000; stroke-width: 0.8"/>
      </g>
     </g>
     <g id="text_8">
      <text style="font: 10px 'Times New Roman'; text-anchor: middle" x="456.892991" y="110.94375" transform="rotate(-0 456.892991 110.94375)">350</text>
     </g>
    </g>
    <g id="xtick_9">
     <g id="line2d_17">
      <path d="M 517.159132 97 
L 517.159132 0 
" clip-path="url(#p71d6d90163)" style="fill: none; stroke: #b0b0b0; stroke-width: 0.8; stroke-linecap: square"/>
     </g>
     <g id="line2d_18">
      <g>
       <use xlink:href="#mec2807285a" x="517.159132" y="97" style="stroke: #000000; stroke-width: 0.8"/>
      </g>
     </g>
     <g id="text_9">
      <text style="font: 10px 'Times New Roman'; text-anchor: middle" x="517.159132" y="110.94375" transform="rotate(-0 517.159132 110.94375)">400</text>
     </g>
    </g>
    <g id="text_10">
     <text style="font: 12px 'Times New Roman'; text-anchor: middle" x="287.515" y="125.415312" transform="rotate(-0 287.515 125.415312)">Simulation Run</text>
    </g>
   </g>
   <g id="matplotlib.axis_2">
    <g id="ytick_1">
     <g id="line2d_19">
      <path d="M 35.03 97 
L 540 97 
" clip-path="url(#p71d6d90163)" style="fill: none; stroke: #b0b0b0; stroke-width: 0.8; stroke-linecap: square"/>
     </g>
     <g id="line2d_20">
      <defs>
       <path id="mfeffb77870" d="M 0 0 
L -3.5 0 
" style="stroke: #000000; stroke-width: 0.8"/>
      </defs>
      <g>
       <use xlink:href="#mfeffb77870" x="35.03" y="97" style="stroke: #000000; stroke-width: 0.8"/>
      </g>
     </g>
     <g id="text_11">
      <text style="font: 10px 'Times New Roman'; text-anchor: end" x="28.03" y="100.471875" transform="rotate(-0 28.03 100.471875)">0.0</text>
     </g>
    </g>
    <g id="ytick_2">
     <g id="line2d_21">
      <path d="M 35.03 59.692308 
L 540 59.692308 
" clip-path="url(#p71d6d90163)" style="fill: none; stroke: #b0b0b0; stroke-width: 0.8; stroke-linecap: square"/>
     </g>
     <g id="line2d_22">
      <g>
       <use xlink:href="#mfeffb77870" x="35.03" y="59.692308" style="stroke: #000000; stroke-width: 0.8"/>
      </g>
     </g>
     <g id="text_12">
      <text style="font: 10px 'Times New Roman'; text-anchor: end" x="28.03" y="63.164183" transform="rotate(-0 28.03 63.164183)">0.5</text>
     </g>
    </g>
    <g id="ytick_3">
     <g id="line2d_23">
      <path d="M 35.03 22.384615 
L 540 22.384615 
" clip-path="url(#p71d6d90163)" style="fill: none; stroke: #b0b0b0; stroke-width: 0.8; stroke-linecap: square"/>
     </g>
     <g id="line2d_24">
      <g>
       <use xlink:href="#mfeffb77870" x="35.03" y="22.384615" style="stroke: #000000; stroke-width: 0.8"/>
      </g>
     </g>
     <g id="text_13">
      <text style="font: 10px 'Times New Roman'; text-anchor: end" x="28.03" y="25.85649" transform="rotate(-0 28.03 25.85649)">1.0</text>
     </g>
    </g>
    <g id="text_14">
     <text style="font: 12px 'Times New Roman'; text-anchor: middle" x="8.963125" y="48.5" transform="rotate(-90 8.963125 48.5)">Normalized Value</text>
    </g>
   </g>
   <g id="line2d_25">
    <path d="M 35.03 28.940247 
L 36.235323 25.50484 
L 37.440646 26.844382 
L 38.645968 25.410322 
L 39.851291 30.53044 
L 41.056614 32.943298 
L 42.261937 30.147039 
L 43.46726 28.705429 
L 44.672583 32.596931 
L 45.877905 32.386215 
L 47.083228 32.992738 
L 48.288551 32.890818 
L 49.493874 32.289466 
L 50.699197 30.668832 
L 51.90452 30.398807 
L 53.109842 31.022126 
L 54.315165 29.058605 
L 55.520488 27.513845 
L 56.725811 28.592494 
L 57.931134 29.086642 
L 59.136457 27.925508 
L 60.341779 26.987461 
L 61.547102 26.881663 
L 62.752425 27.748002 
L 63.957748 26.785366 
L 65.163071 26.375496 
L 66.368394 24.958451 
L 67.573716 24.385713 
L 68.779039 21.985274 
L 69.984362 21.509486 
L 71.189685 21.88772 
L 72.395008 21.686707 
L 73.600331 22.273756 
L 74.805653 22.517689 
L 76.010976 22.61503 
L 77.216299 20.721468 
L 78.421622 20.564713 
L 79.626945 21.243965 
L 80.832268 21.28653 
L 82.03759 21.546103 
L 83.242913 21.518638 
L 84.448236 20.577843 
L 85.653559 20.444286 
L 86.858882 20.678206 
L 88.064205 20.275159 
L 89.269527 20.334277 
L 90.47485 20.601503 
L 91.680173 20.418785 
L 92.885496 20.075518 
L 94.090819 19.982971 
L 95.296142 19.221813 
L 96.501464 18.779164 
L 97.706787 18.983481 
L 98.91211 18.943597 
L 100.117433 17.920823 
L 101.322756 18.191019 
L 102.528079 18.136975 
L 103.733401 18.272733 
L 104.938724 18.565357 
L 106.144047 18.573611 
L 107.34937 19.236676 
L 108.554693 19.041237 
L 109.760016 19.41939 
L 110.965338 19.588325 
L 113.375984 20.312785 
L 114.581307 20.213257 
L 115.78663 20.421266 
L 119.402598 20.263119 
L 120.607921 20.417119 
L 121.813244 19.963961 
L 123.018567 19.886666 
L 125.429212 20.411987 
L 129.045181 19.564906 
L 130.250504 19.516678 
L 136.277118 20.086637 
L 137.482441 20.342445 
L 139.893086 20.472551 
L 141.098409 20.501121 
L 143.509055 20.892326 
L 145.9197 20.969138 
L 147.125023 20.808775 
L 148.330346 21.116668 
L 150.740992 21.359464 
L 151.946315 21.404344 
L 153.151637 21.566209 
L 154.35696 21.426693 
L 156.767606 21.73305 
L 157.972929 21.672734 
L 159.178252 21.752504 
L 160.383574 22.050789 
L 161.588897 22.20479 
L 163.999543 22.129787 
L 168.820834 21.739567 
L 170.026157 21.209989 
L 171.23148 21.439081 
L 173.642126 21.444687 
L 174.847448 21.29799 
L 176.052771 21.307343 
L 178.463417 21.447378 
L 179.66874 21.407743 
L 180.874063 21.669505 
L 183.284708 21.367582 
L 184.490031 21.474812 
L 185.695354 21.438638 
L 188.106 21.872628 
L 190.516645 22.110276 
L 191.721968 21.900652 
L 194.132614 21.997234 
L 197.748582 22.330269 
L 198.953905 22.367701 
L 200.159228 22.208528 
L 206.185842 22.312564 
L 208.596488 21.701705 
L 209.80181 21.9184 
L 213.417779 22.076849 
L 214.623102 22.254266 
L 215.828425 22.251357 
L 218.23907 22.554992 
L 220.649716 22.774741 
L 221.855039 22.47055 
L 224.265684 22.273903 
L 225.471007 22.435159 
L 229.086976 22.365576 
L 230.292299 22.202431 
L 231.497621 22.162799 
L 232.702944 22.352682 
L 238.729558 22.112997 
L 241.140204 22.404539 
L 242.345527 22.141849 
L 243.55085 22.363607 
L 244.756173 22.360387 
L 247.166818 22.629353 
L 248.372141 22.610142 
L 249.577464 22.30173 
L 250.782787 22.224036 
L 254.398755 22.630931 
L 255.604078 22.430295 
L 256.809401 22.343685 
L 258.014724 22.421081 
L 260.425369 22.343131 
L 261.630692 22.4308 
L 262.836015 22.388649 
L 264.041338 22.471984 
L 265.246661 22.323044 
L 268.862629 22.273132 
L 270.067952 22.152331 
L 273.683921 22.38712 
L 277.299889 22.318754 
L 279.710535 22.323002 
L 283.326503 22.376986 
L 284.531826 22.10526 
L 285.737149 22.215281 
L 288.147794 22.024126 
L 289.353117 22.05264 
L 291.763763 21.832662 
L 292.969086 21.859702 
L 294.174409 22.030452 
L 295.379731 21.961235 
L 301.406346 22.153895 
L 303.816991 22.027609 
L 307.43296 22.099208 
L 309.843605 22.307881 
L 312.254251 22.18111 
L 314.664897 22.299592 
L 315.87022 22.329364 
L 317.075542 22.177205 
L 321.896834 22.456315 
L 326.718125 22.062254 
L 327.923448 22.003131 
L 330.334094 22.058857 
L 336.360708 21.741297 
L 337.566031 21.60247 
L 338.771353 21.666043 
L 344.797968 21.443757 
L 347.208613 21.38042 
L 354.44055 21.124316 
L 355.645873 21.200833 
L 356.851196 20.954881 
L 358.056519 21.105593 
L 365.288456 21.169768 
L 368.904424 21.183348 
L 370.109747 21.311785 
L 383.368298 21.579806 
L 384.573621 21.635529 
L 385.778944 21.542504 
L 389.394912 21.696652 
L 393.010881 21.70954 
L 397.832172 21.950967 
L 399.037495 21.878446 
L 401.448141 21.932028 
L 402.653463 21.929326 
L 403.858786 21.754012 
L 407.474755 21.914933 
L 409.8854 21.807957 
L 413.501369 21.842233 
L 420.733306 21.926226 
L 424.349274 21.63211 
L 427.965243 21.770039 
L 430.375889 21.870469 
L 436.402503 21.776213 
L 440.018471 21.859037 
L 442.429117 21.946634 
L 447.250408 22.215037 
L 450.866377 22.177898 
L 466.535573 22.677869 
L 467.740896 22.611206 
L 472.562188 22.769476 
L 473.76751 22.666977 
L 477.383479 22.684896 
L 479.794125 22.61584 
L 483.410093 22.735688 
L 484.615416 22.593244 
L 488.231384 22.643958 
L 490.64203 22.566506 
L 493.052676 22.558664 
L 495.463321 22.603561 
L 503.900581 22.471849 
L 505.105904 22.535602 
L 512.337841 22.285818 
L 515.95381 22.384615 
L 515.95381 22.384615 
" clip-path="url(#p71d6d90163)" style="fill: none; stroke: #4169e1; stroke-width: 1.5; stroke-linecap: square"/>
   </g>
   <g id="line2d_26">
    <path d="M 35.03 97 
L 36.235323 94.9558 
L 37.440646 95.015602 
L 38.645968 94.443082 
L 39.851291 76.791489 
L 41.056614 75.1176 
L 42.261937 70.117724 
L 43.46726 70.958238 
L 44.672583 52.867601 
L 45.877905 57.211625 
L 48.288551 63.239148 
L 49.493874 65.084504 
L 50.699197 61.450189 
L 51.90452 63.64337 
L 53.109842 64.718722 
L 54.315165 55.933019 
L 55.520488 51.188032 
L 56.725811 49.971751 
L 57.931134 51.519571 
L 59.136457 49.014823 
L 60.341779 47.995335 
L 61.547102 50.08332 
L 62.752425 49.04819 
L 63.957748 47.114119 
L 65.163071 48.305366 
L 66.368394 41.06597 
L 67.573716 41.529548 
L 68.779039 15.497174 
L 69.984362 17.076855 
L 71.189685 18.911645 
L 72.395008 21.134948 
L 73.600331 21.523749 
L 76.010976 25.450484 
L 77.216299 5.70126 
L 78.421622 8.015573 
L 79.626945 7.400405 
L 80.832268 9.685905 
L 82.03759 11.413611 
L 83.242913 13.495858 
L 84.448236 9.198541 
L 85.653559 11.110672 
L 86.858882 12.655159 
L 88.064205 13.291458 
L 89.269527 15.083969 
L 90.47485 16.257903 
L 91.680173 17.668245 
L 92.885496 18.307605 
L 94.090819 19.80876 
L 95.296142 16.304821 
L 96.501464 16.125818 
L 97.706787 17.275753 
L 98.91211 18.737526 
L 100.117433 10.37639 
L 101.322756 11.227758 
L 102.528079 12.704204 
L 103.733401 13.975623 
L 104.938724 14.522587 
L 106.144047 15.896514 
L 107.34937 12.656976 
L 108.554693 13.613779 
L 109.760016 13.401721 
L 110.965338 14.396521 
L 112.170661 14.130617 
L 113.375984 13.990194 
L 114.581307 15.115907 
L 115.78663 15.817968 
L 119.402598 19.08181 
L 120.607921 19.872351 
L 121.813244 18.367956 
L 123.018567 19.355008 
L 124.223889 19.086656 
L 125.429212 19.558396 
L 126.634535 19.531614 
L 127.839858 19.960406 
L 129.045181 19.171976 
L 132.661149 21.869378 
L 133.866472 22.047863 
L 135.071795 22.93492 
L 136.277118 23.075744 
L 137.482441 22.971912 
L 138.687763 23.643384 
L 141.098409 25.273232 
L 142.303732 25.219251 
L 143.509055 25.627436 
L 145.9197 27.098756 
L 147.125023 27.428141 
L 148.330346 26.617023 
L 149.535669 27.033522 
L 150.740992 27.574726 
L 151.946315 28.249305 
L 154.35696 28.850263 
L 155.562283 29.267967 
L 156.767606 29.336275 
L 159.178252 30.460321 
L 160.383574 29.491293 
L 161.588897 29.696846 
L 163.999543 30.88167 
L 165.204866 31.27961 
L 166.410189 31.833168 
L 167.615511 32.232797 
L 168.820834 32.44919 
L 170.026157 27.579864 
L 171.23148 27.161586 
L 173.642126 28.364161 
L 174.847448 28.518407 
L 176.052771 29.096986 
L 177.258094 29.349738 
L 179.66874 30.430469 
L 180.874063 29.540084 
L 182.079385 29.283508 
L 184.490031 29.879227 
L 185.695354 30.383599 
L 186.900677 29.515419 
L 188.106 29.319014 
L 189.311322 29.392205 
L 190.516645 29.710833 
L 191.721968 29.235045 
L 192.927291 29.738761 
L 194.132614 30.112585 
L 195.337937 30.259619 
L 196.543259 30.717555 
L 197.748582 30.530918 
L 198.953905 30.983089 
L 200.159228 30.860266 
L 201.364551 31.292239 
L 202.569873 31.582054 
L 203.775196 32.04523 
L 204.980519 32.005175 
L 206.185842 31.812608 
L 207.391165 29.349539 
L 208.596488 28.027928 
L 209.80181 27.321019 
L 211.007133 27.764309 
L 212.212456 27.940864 
L 213.417779 28.397246 
L 214.623102 28.042241 
L 215.828425 28.498695 
L 217.033747 27.926781 
L 218.23907 28.082962 
L 219.444393 28.363897 
L 220.649716 28.280416 
L 221.855039 26.236702 
L 223.060362 26.166764 
L 224.265684 26.524121 
L 225.471007 26.25573 
L 226.67633 26.680838 
L 227.881653 26.955865 
L 229.086976 27.360235 
L 230.292299 27.040634 
L 231.497621 27.422869 
L 232.702944 26.820356 
L 237.524236 28.29406 
L 238.729558 28.277791 
L 239.934881 27.48246 
L 241.140204 27.647247 
L 242.345527 25.992333 
L 243.55085 24.926856 
L 244.756173 25.338391 
L 247.166818 25.051543 
L 248.372141 25.444434 
L 249.577464 22.911607 
L 250.782787 23.136054 
L 254.398755 22.612276 
L 255.604078 21.740608 
L 258.014724 22.120118 
L 259.220047 22.386866 
L 260.425369 22.777811 
L 261.630692 22.920245 
L 262.836015 23.251975 
L 264.041338 23.409539 
L 265.246661 23.058946 
L 266.451984 23.439144 
L 267.657306 23.581048 
L 268.862629 23.936602 
L 271.273275 23.77465 
L 272.478598 23.775407 
L 276.094566 24.726531 
L 279.710535 25.578068 
L 283.326503 26.535065 
L 284.531826 24.226569 
L 285.737149 24.138674 
L 288.147794 24.166716 
L 289.353117 24.480554 
L 291.763763 24.26981 
L 292.969086 24.580987 
L 294.174409 23.830518 
L 296.585054 24.256206 
L 297.790377 24.533292 
L 298.9957 24.600051 
L 300.201023 24.927085 
L 302.611668 24.756029 
L 307.43296 25.885815 
L 309.843605 25.648142 
L 312.254251 25.944906 
L 313.459574 25.800492 
L 315.87022 26.36716 
L 317.075542 25.729338 
L 318.280865 25.874 
L 319.486188 25.053182 
L 320.691511 25.316642 
L 321.896834 25.338695 
L 323.102157 24.985449 
L 324.307479 23.820855 
L 325.512802 24.06403 
L 326.718125 23.774423 
L 329.128771 24.101112 
L 330.334094 24.397361 
L 331.539416 24.552854 
L 332.744739 24.196845 
L 333.950062 24.458304 
L 335.155385 24.522159 
L 336.360708 24.747707 
L 337.566031 24.196532 
L 339.976676 24.430846 
L 341.181999 24.71447 
L 344.797968 25.144285 
L 346.00329 25.406219 
L 347.208613 25.380218 
L 348.413936 25.535577 
L 349.619259 24.903602 
L 350.824582 25.156008 
L 352.029905 25.208098 
L 353.235227 25.035986 
L 354.44055 25.299455 
L 355.645873 25.298241 
L 356.851196 22.768225 
L 358.056519 21.989803 
L 360.467164 22.508213 
L 362.87781 22.194656 
L 364.083133 21.619725 
L 365.288456 21.576699 
L 368.904424 22.356014 
L 370.109747 21.829249 
L 372.520393 22.258344 
L 373.725715 22.467812 
L 374.931038 22.549738 
L 376.136361 22.787946 
L 377.341684 22.78877 
L 378.547007 23.037167 
L 379.75233 23.008758 
L 382.162975 23.512498 
L 383.368298 23.184156 
L 384.573621 23.28185 
L 386.984267 22.986888 
L 388.189589 23.237765 
L 389.394912 23.271076 
L 390.600235 23.512604 
L 391.805558 23.446039 
L 394.216204 23.580688 
L 395.421526 23.074309 
L 396.626849 22.752615 
L 397.832172 22.880314 
L 400.242818 22.771703 
L 402.653463 23.224318 
L 403.858786 21.835626 
L 405.064109 21.961965 
L 406.269432 21.884018 
L 407.474755 22.055691 
L 408.680078 21.857808 
L 415.912015 23.133021 
L 417.117337 23.147355 
L 420.733306 23.825422 
L 421.938629 23.512602 
L 423.143952 23.470931 
L 424.349274 22.808467 
L 425.554597 23.009074 
L 429.170566 22.955183 
L 436.402503 24.118253 
L 438.813148 24.182526 
L 441.223794 24.562286 
L 443.63444 24.034831 
L 444.839763 23.924888 
L 448.455731 24.156341 
L 452.071699 24.643399 
L 455.687668 25.083107 
L 456.892991 24.823528 
L 458.098314 24.911772 
L 459.303636 24.607137 
L 460.508959 24.62609 
L 464.124928 25.074505 
L 467.740896 25.178988 
L 468.946219 25.097608 
L 470.151542 25.263005 
L 472.562188 25.241037 
L 473.76751 24.775259 
L 476.178156 25.091536 
L 477.383479 25.271591 
L 478.588802 25.307404 
L 479.794125 25.477661 
L 480.999447 25.37243 
L 482.20477 25.563511 
L 483.410093 25.613423 
L 484.615416 24.49341 
L 485.820739 24.531162 
L 489.436707 25.061401 
L 490.64203 24.896427 
L 496.668644 25.214461 
L 497.873967 25.30842 
L 499.07929 25.200011 
L 500.284613 23.454769 
L 501.489936 23.497347 
L 502.695258 23.682973 
L 503.900581 23.279238 
L 507.51655 22.964892 
L 511.132518 22.005692 
L 514.748487 22.398594 
L 515.95381 22.384615 
L 515.95381 22.384615 
" clip-path="url(#p71d6d90163)" style="fill: none; stroke-dasharray: 5.55,2.4; stroke-dashoffset: 0; stroke: #4169e1; stroke-width: 1.5"/>
   </g>
   <g id="line2d_27">
    <path d="M 35.03 25.494935 
L 36.235323 23.336056 
L 37.440646 23.750548 
L 38.645968 24.420012 
L 39.851291 29.08832 
L 41.056614 30.734133 
L 43.46726 27.205401 
L 44.672583 31.248593 
L 45.877905 31.311443 
L 47.083228 31.76421 
L 48.288551 31.276269 
L 49.493874 30.413384 
L 50.699197 29.199361 
L 51.90452 28.974514 
L 53.109842 29.657266 
L 54.315165 27.989381 
L 55.520488 26.679251 
L 56.725811 27.693962 
L 57.931134 28.019437 
L 59.136457 26.610625 
L 60.341779 25.515294 
L 61.547102 24.941954 
L 62.752425 25.79306 
L 63.957748 24.814266 
L 65.163071 24.689706 
L 66.368394 23.633481 
L 67.573716 23.121535 
L 68.779039 21.437182 
L 69.984362 21.007757 
L 71.189685 21.348047 
L 72.395008 21.174628 
L 73.600331 21.649272 
L 74.805653 22.000652 
L 76.010976 22.138299 
L 77.216299 20.907907 
L 78.421622 20.742656 
L 79.626945 21.292182 
L 80.832268 21.33907 
L 82.03759 21.630778 
L 83.242913 21.590895 
L 84.448236 20.751637 
L 85.653559 20.630418 
L 86.858882 21.10438 
L 88.064205 20.917849 
L 89.269527 20.875147 
L 90.47485 21.14207 
L 94.090819 20.487581 
L 95.296142 19.723187 
L 96.501464 19.369282 
L 97.706787 19.548193 
L 98.91211 19.584938 
L 100.117433 18.475824 
L 101.322756 18.720762 
L 102.528079 18.524986 
L 103.733401 18.602438 
L 104.938724 18.838944 
L 106.144047 18.770284 
L 107.34937 19.363305 
L 108.554693 19.135304 
L 109.760016 19.49798 
L 110.965338 19.613603 
L 113.375984 20.274302 
L 114.581307 20.082386 
L 115.78663 20.266028 
L 118.197275 20.128856 
L 119.402598 20.123465 
L 120.607921 20.264108 
L 121.813244 19.863922 
L 123.018567 19.914684 
L 124.223889 20.218143 
L 125.429212 20.365483 
L 126.634535 20.128406 
L 127.839858 20.056144 
L 129.045181 19.683466 
L 131.455826 19.760154 
L 132.661149 19.787657 
L 133.866472 20.028342 
L 135.071795 20.02783 
L 138.687763 20.597095 
L 141.098409 20.626719 
L 143.509055 21.005857 
L 145.9197 21.029567 
L 147.125023 20.851298 
L 148.330346 21.171346 
L 150.740992 21.455414 
L 159.178252 21.904036 
L 160.383574 22.206812 
L 161.588897 22.356378 
L 165.204866 22.184424 
L 167.615511 22.003289 
L 168.820834 21.874436 
L 170.026157 21.334452 
L 171.23148 21.511922 
L 173.642126 21.544345 
L 174.847448 21.340505 
L 176.052771 21.331355 
L 178.463417 21.440507 
L 179.66874 21.438589 
L 180.874063 21.682477 
L 183.284708 21.386603 
L 186.900677 21.678702 
L 189.311322 21.930109 
L 190.516645 21.984936 
L 191.721968 21.7491 
L 194.132614 21.825472 
L 197.748582 22.16008 
L 198.953905 22.186263 
L 200.159228 22.041571 
L 203.775196 22.156021 
L 204.980519 22.282765 
L 206.185842 22.110571 
L 208.596488 21.583732 
L 209.80181 21.772835 
L 213.417779 21.899932 
L 214.623102 22.054131 
L 215.828425 22.032093 
L 217.033747 22.222488 
L 220.649716 22.490795 
L 221.855039 22.208468 
L 224.265684 21.999081 
L 225.471007 22.147423 
L 229.086976 22.095451 
L 230.292299 21.941272 
L 231.497621 21.925429 
L 232.702944 22.101447 
L 238.729558 21.940174 
L 241.140204 22.229187 
L 242.345527 21.953445 
L 243.55085 22.161286 
L 244.756173 22.179635 
L 247.166818 22.462889 
L 248.372141 22.447567 
L 249.577464 22.169413 
L 250.782787 22.097083 
L 254.398755 22.500608 
L 255.604078 22.299933 
L 256.809401 22.236495 
L 259.220047 22.288312 
L 266.451984 22.34085 
L 270.067952 22.186225 
L 272.478598 22.37752 
L 277.299889 22.328909 
L 278.505212 22.274146 
L 282.12118 22.39254 
L 283.326503 22.406435 
L 284.531826 22.144923 
L 285.737149 22.253855 
L 292.969086 21.931927 
L 294.174409 22.092995 
L 295.379731 21.997338 
L 302.611668 22.072171 
L 307.43296 22.146983 
L 309.843605 22.322428 
L 312.254251 22.206646 
L 314.664897 22.299628 
L 315.87022 22.327013 
L 317.075542 22.197275 
L 321.896834 22.498437 
L 325.512802 22.20459 
L 327.923448 22.042145 
L 331.539416 22.033635 
L 335.155385 21.802604 
L 348.413936 21.480197 
L 349.619259 21.342029 
L 355.645873 21.377373 
L 356.851196 21.135361 
L 359.261842 21.323421 
L 384.573621 21.829054 
L 385.778944 21.723315 
L 389.394912 21.853736 
L 393.010881 21.883005 
L 397.832172 22.096516 
L 399.037495 22.027243 
L 400.242818 22.096737 
L 405.064109 21.984387 
L 407.474755 22.088039 
L 409.8854 21.984492 
L 414.706692 22.008541 
L 423.143952 21.894273 
L 424.349274 21.761658 
L 427.965243 21.916534 
L 430.375889 22.004082 
L 437.607826 21.9547 
L 440.018471 21.966442 
L 442.429117 22.068395 
L 447.250408 22.305571 
L 453.277022 22.297104 
L 466.535573 22.711798 
L 467.740896 22.626784 
L 471.356865 22.729648 
L 472.562188 22.767956 
L 473.76751 22.661832 
L 477.383479 22.653842 
L 479.794125 22.57452 
L 483.410093 22.668046 
L 484.615416 22.551585 
L 488.231384 22.578197 
L 499.07929 22.581482 
L 501.489936 22.387523 
L 503.900581 22.475524 
L 506.311227 22.487945 
L 509.927195 22.273661 
L 511.132518 22.358273 
L 513.543164 22.313383 
L 515.95381 22.384615 
L 515.95381 22.384615 
" clip-path="url(#p71d6d90163)" style="fill: none; stroke: #ff8c00; stroke-width: 1.5; stroke-linecap: square"/>
   </g>
   <g id="line2d_28">
    <path d="M 35.03 97 
L 36.235323 96.05855 
L 37.440646 96.30296 
L 38.645968 96.205628 
L 39.851291 78.756113 
L 41.056614 79.06104 
L 42.261937 77.972337 
L 43.46726 75.805149 
L 44.672583 51.743382 
L 45.877905 56.261863 
L 47.083228 59.551245 
L 48.288551 62.142961 
L 49.493874 63.019477 
L 50.699197 61.576417 
L 51.90452 63.795019 
L 53.109842 64.457928 
L 54.315165 57.381474 
L 55.520488 53.688398 
L 56.725811 52.224287 
L 57.931134 54.056507 
L 59.136457 48.083231 
L 60.341779 45.21751 
L 61.547102 46.00813 
L 62.752425 44.767392 
L 63.957748 42.21224 
L 65.163071 44.241112 
L 66.368394 40.336099 
L 67.573716 40.930412 
L 68.779039 26.817925 
L 69.984362 28.077105 
L 71.189685 29.598713 
L 72.395008 31.516685 
L 73.600331 32.044811 
L 74.805653 33.132239 
L 76.010976 34.82691 
L 77.216299 25.851186 
L 78.421622 27.575549 
L 79.626945 27.145578 
L 80.832268 28.919841 
L 82.03759 29.951496 
L 83.242913 31.573973 
L 84.448236 27.298418 
L 85.653559 28.794724 
L 86.858882 28.393671 
L 88.064205 29.609015 
L 89.269527 31.057461 
L 91.680173 32.606619 
L 94.090819 34.348017 
L 95.296142 29.675221 
L 96.501464 29.679654 
L 97.706787 30.613635 
L 98.91211 31.828558 
L 100.117433 19.59552 
L 101.322756 20.311221 
L 102.528079 21.223083 
L 103.733401 22.460514 
L 104.938724 23.068576 
L 106.144047 24.244584 
L 107.34937 21.175116 
L 108.554693 21.757565 
L 109.760016 21.304608 
L 110.965338 22.31722 
L 112.170661 21.597424 
L 113.375984 21.706883 
L 115.78663 22.981161 
L 118.197275 24.927117 
L 119.402598 25.941818 
L 120.607921 26.645052 
L 121.813244 25.279665 
L 123.018567 26.210862 
L 124.223889 25.778226 
L 125.429212 26.386471 
L 126.634535 26.440681 
L 127.839858 27.26407 
L 129.045181 25.958524 
L 130.250504 26.844494 
L 132.661149 28.419563 
L 133.866472 28.286312 
L 135.071795 29.104327 
L 136.277118 29.244965 
L 137.482441 28.904168 
L 138.687763 29.453407 
L 141.098409 30.957673 
L 142.303732 30.602155 
L 143.509055 31.010321 
L 145.9197 32.380771 
L 147.125023 32.471206 
L 148.330346 31.205543 
L 149.535669 31.343771 
L 150.740992 31.763233 
L 151.946315 32.334372 
L 153.151637 32.433104 
L 155.562283 32.965913 
L 156.767606 33.051786 
L 157.972929 33.549916 
L 159.178252 33.87443 
L 160.383574 32.549799 
L 161.588897 32.683359 
L 163.999543 33.80308 
L 165.204866 34.180719 
L 166.410189 34.704375 
L 168.820834 35.044844 
L 170.026157 28.996508 
L 171.23148 28.874125 
L 173.642126 30.026822 
L 174.847448 29.62564 
L 176.052771 30.19463 
L 177.258094 30.483451 
L 179.66874 31.582692 
L 180.874063 30.665096 
L 182.079385 30.223714 
L 184.490031 30.952648 
L 185.695354 31.474742 
L 186.900677 30.796904 
L 188.106 30.777624 
L 189.311322 30.9961 
L 190.516645 31.425495 
L 191.721968 30.465549 
L 192.927291 30.966351 
L 194.132614 31.258943 
L 195.337937 31.314749 
L 196.543259 31.753572 
L 197.748582 31.487352 
L 198.953905 31.946713 
L 200.159228 31.838749 
L 201.364551 32.303291 
L 202.569873 32.526688 
L 203.775196 32.981172 
L 204.980519 32.974479 
L 206.185842 32.571726 
L 207.391165 30.511276 
L 208.596488 29.401738 
L 209.80181 28.817351 
L 211.007133 29.253178 
L 212.212456 29.447595 
L 213.417779 29.900834 
L 214.623102 29.632532 
L 215.828425 30.063958 
L 217.033747 29.398646 
L 219.444393 29.9875 
L 220.649716 29.878471 
L 221.855039 27.813115 
L 223.060362 27.8362 
L 224.265684 27.992129 
L 225.471007 27.723836 
L 229.086976 28.950965 
L 230.292299 28.590579 
L 231.497621 28.999446 
L 232.702944 28.385218 
L 233.908267 28.785575 
L 235.11359 29.021979 
L 237.524236 29.798259 
L 238.729558 29.775049 
L 239.934881 28.87657 
L 241.140204 28.960436 
L 242.345527 26.712089 
L 243.55085 25.606488 
L 244.756173 26.002617 
L 245.961495 25.751924 
L 247.166818 25.383867 
L 248.372141 25.777811 
L 249.577464 23.393869 
L 250.782787 23.613631 
L 251.98811 23.518179 
L 254.398755 22.824194 
L 255.604078 21.738726 
L 259.220047 22.59733 
L 260.425369 22.976376 
L 261.630692 23.008419 
L 262.836015 23.26875 
L 264.041338 23.336381 
L 265.246661 23.160561 
L 268.862629 24.146658 
L 271.273275 23.832672 
L 272.478598 23.950262 
L 274.889243 24.572736 
L 278.505212 25.261737 
L 280.915858 25.654361 
L 283.326503 26.335124 
L 284.531826 23.815336 
L 285.737149 23.666944 
L 286.942472 23.907259 
L 288.147794 23.881256 
L 289.353117 24.212097 
L 290.55844 23.776271 
L 291.763763 23.79728 
L 292.969086 24.109557 
L 294.174409 23.320349 
L 295.379731 23.260654 
L 297.790377 23.810596 
L 298.9957 23.874624 
L 300.201023 24.204551 
L 302.611668 24.117043 
L 305.022314 24.756152 
L 306.227637 24.948809 
L 307.43296 25.265952 
L 311.048928 25.291799 
L 312.254251 25.489972 
L 313.459574 25.329723 
L 315.87022 25.904565 
L 317.075542 25.411515 
L 318.280865 25.537017 
L 319.486188 24.6503 
L 320.691511 24.953479 
L 321.896834 24.897783 
L 323.102157 24.339303 
L 324.307479 23.13483 
L 325.512802 23.427923 
L 326.718125 23.034744 
L 331.539416 23.90982 
L 332.744739 23.58537 
L 333.950062 23.841481 
L 335.155385 23.710003 
L 336.360708 23.969523 
L 337.566031 23.548516 
L 342.387322 24.110155 
L 346.00329 24.761916 
L 347.208613 24.739295 
L 348.413936 24.962636 
L 349.619259 24.231129 
L 350.824582 24.503372 
L 353.235227 24.483832 
L 355.645873 24.9082 
L 356.851196 22.018373 
L 358.056519 21.09044 
L 360.467164 21.534562 
L 362.87781 21.252866 
L 364.083133 20.666923 
L 365.288456 20.664342 
L 368.904424 21.438474 
L 370.109747 20.955743 
L 372.520393 21.328986 
L 374.931038 21.608306 
L 376.136361 21.820814 
L 377.341684 21.833683 
L 378.547007 22.096496 
L 379.75233 22.050363 
L 382.162975 22.563985 
L 383.368298 22.345297 
L 384.573621 22.551645 
L 385.778944 22.149393 
L 386.984267 22.067694 
L 388.189589 22.321694 
L 389.394912 22.420516 
L 390.600235 22.657279 
L 391.805558 22.563041 
L 393.010881 22.756379 
L 394.216204 22.807316 
L 395.421526 22.343782 
L 396.626849 22.064958 
L 397.832172 22.187323 
L 400.242818 22.092157 
L 402.653463 22.471692 
L 403.858786 21.850597 
L 405.064109 21.982151 
L 406.269432 21.944613 
L 407.474755 22.103441 
L 408.680078 21.956293 
L 415.912015 23.256395 
L 417.117337 23.134725 
L 420.733306 23.803716 
L 421.938629 23.586823 
L 423.143952 23.229191 
L 424.349274 22.309442 
L 425.554597 22.504206 
L 429.170566 22.227724 
L 435.19718 23.249602 
L 436.402503 23.417612 
L 440.018471 23.655382 
L 441.223794 23.847008 
L 443.63444 23.418423 
L 446.045085 23.412393 
L 447.250408 23.460422 
L 453.277022 24.415531 
L 455.687668 24.639848 
L 456.892991 24.420858 
L 458.098314 24.458811 
L 459.303636 24.259714 
L 460.508959 24.308643 
L 464.124928 24.845111 
L 466.535573 25.070715 
L 467.740896 24.746407 
L 468.946219 24.593646 
L 470.151542 24.75136 
L 471.356865 24.71043 
L 472.562188 24.801422 
L 473.76751 24.171152 
L 477.383479 24.629077 
L 478.588802 24.571009 
L 479.794125 24.734376 
L 480.999447 24.619047 
L 483.410093 24.923817 
L 484.615416 24.094625 
L 487.026062 24.356431 
L 491.847353 24.827718 
L 494.257999 24.673619 
L 497.873967 24.933282 
L 499.07929 24.697845 
L 500.284613 23.194019 
L 501.489936 23.213711 
L 502.695258 23.4013 
L 503.900581 23.050881 
L 506.311227 23.078769 
L 507.51655 22.702549 
L 509.927195 22.407572 
L 511.132518 22.024716 
L 512.337841 22.042261 
L 514.748487 22.364241 
L 515.95381 22.384615 
L 515.95381 22.384615 
" clip-path="url(#p71d6d90163)" style="fill: none; stroke-dasharray: 5.55,2.4; stroke-dashoffset: 0; stroke: #ff8c00; stroke-width: 1.5"/>
   </g>
   <g id="patch_3">
    <path d="M 35.03 97 
L 35.03 0 
" style="fill: none; stroke: #000000; stroke-width: 0.8; stroke-linejoin: miter; stroke-linecap: square"/>
   </g>
   <g id="patch_4">
    <path d="M 540 97 
L 540 0 
" style="fill: none; stroke: #000000; stroke-width: 0.8; stroke-linejoin: miter; stroke-linecap: square"/>
   </g>
   <g id="patch_5">
    <path d="M 35.03 97 
L 540 97 
" style="fill: none; stroke: #000000; stroke-width: 0.8; stroke-linejoin: miter; stroke-linecap: square"/>
   </g>
   <g id="patch_6">
    <path d="M 35.03 0 
L 540 0 
" style="fill: none; stroke: #000000; stroke-width: 0.8; stroke-linejoin: miter; stroke-linecap: square"/>
   </g>
  </g>
 </g>
 <defs>
  <clipPath id="p71d6d90163">
   <rect x="35.03" y="0" width="504.97" height="97"/>
  </clipPath>
 </defs>
</svg>
