<?xml version="1.0" encoding="utf-8" standalone="no"?>
<!DOCTYPE svg PUBLIC "-//W3C//DTD SVG 1.1//EN"
  "http://www.w3.org/Graphics/SVG/1.1/DTD/svg11.dtd">
<svg xmlns:xlink="http://www.w3.org/1999/xlink" width="540pt" height="129.6pt" viewBox="0 0 540 129.6" xmlns="http://www.w3.org/2000/svg" version="1.1">
 <metadata>
  <rdf:RDF xmlns:dc="http://purl.org/dc/elements/1.1/" xmlns:cc="http://creativecommons.org/ns#" xmlns:rdf="http://www.w3.org/1999/02/22-rdf-syntax-ns#">
   <cc:Work>
    <dc:type rdf:resource="http://purl.org/dc/dcmitype/StillImage"/>
    <dc:date>2025-04-06T22:37:36.861945</dc:date>
    <dc:format>image/svg+xml</dc:format>
    <dc:creator>
     <cc:Agent>
      <dc:title>Matplotlib v3.10.1, https://matplotlib.org/</dc:title>
     </cc:Agent>
    </dc:creator>
   </cc:Work>
  </rdf:RDF>
 </metadata>
 <defs>
  <style type="text/css">*{stroke-linejoin: round; stroke-linecap: butt}</style>
 </defs>
 <g id="figure_1">
  <g id="patch_1">
   <path d="M 0 129.6 
L 540 129.6 
L 540 0 
L 0 0 
z
" style="fill: #ffffff"/>
  </g>
  <g id="axes_1">
   <g id="patch_2">
    <path d="M 34.31 98.44 
L 540 98.44 
L 540 3.6 
L 34.31 3.6 
z
" style="fill: #ffffff"/>
   </g>
   <g id="matplotlib.axis_1">
    <g id="xtick_1">
     <g id="line2d_1">
      <path d="M 34.31 98.44 
L 34.31 3.6 
" clip-path="url(#pf40fdd7107)" style="fill: none; stroke: #b0b0b0; stroke-width: 0.8; stroke-linecap: square"/>
     </g>
     <g id="line2d_2">
      <defs>
       <path id="m2d20dfe02a" d="M 0 0 
L 0 3.5 
" style="stroke: #000000; stroke-width: 0.8"/>
      </defs>
      <g>
       <use xlink:href="#m2d20dfe02a" x="34.31" y="98.44" style="stroke: #000000; stroke-width: 0.8"/>
      </g>
     </g>
     <g id="text_1">
      <text style="font-size: 10px; font-family: 'Times New Roman'; text-anchor: middle" x="34.31" y="112.38375" transform="rotate(-0 34.31 112.38375)">0</text>
     </g>
    </g>
    <g id="xtick_2">
     <g id="line2d_3">
      <path d="M 94.662071 98.44 
L 94.662071 3.6 
" clip-path="url(#pf40fdd7107)" style="fill: none; stroke: #b0b0b0; stroke-width: 0.8; stroke-linecap: square"/>
     </g>
     <g id="line2d_4">
      <g>
       <use xlink:href="#m2d20dfe02a" x="94.662071" y="98.44" style="stroke: #000000; stroke-width: 0.8"/>
      </g>
     </g>
     <g id="text_2">
      <text style="font-size: 10px; font-family: 'Times New Roman'; text-anchor: middle" x="94.662071" y="112.38375" transform="rotate(-0 94.662071 112.38375)">50</text>
     </g>
    </g>
    <g id="xtick_3">
     <g id="line2d_5">
      <path d="M 155.014141 98.44 
L 155.014141 3.6 
" clip-path="url(#pf40fdd7107)" style="fill: none; stroke: #b0b0b0; stroke-width: 0.8; stroke-linecap: square"/>
     </g>
     <g id="line2d_6">
      <g>
       <use xlink:href="#m2d20dfe02a" x="155.014141" y="98.44" style="stroke: #000000; stroke-width: 0.8"/>
      </g>
     </g>
     <g id="text_3">
      <text style="font-size: 10px; font-family: 'Times New Roman'; text-anchor: middle" x="155.014141" y="112.38375" transform="rotate(-0 155.014141 112.38375)">100</text>
     </g>
    </g>
    <g id="xtick_4">
     <g id="line2d_7">
      <path d="M 215.366212 98.44 
L 215.366212 3.6 
" clip-path="url(#pf40fdd7107)" style="fill: none; stroke: #b0b0b0; stroke-width: 0.8; stroke-linecap: square"/>
     </g>
     <g id="line2d_8">
      <g>
       <use xlink:href="#m2d20dfe02a" x="215.366212" y="98.44" style="stroke: #000000; stroke-width: 0.8"/>
      </g>
     </g>
     <g id="text_4">
      <text style="font-size: 10px; font-family: 'Times New Roman'; text-anchor: middle" x="215.366212" y="112.38375" transform="rotate(-0 215.366212 112.38375)">150</text>
     </g>
    </g>
    <g id="xtick_5">
     <g id="line2d_9">
      <path d="M 275.718283 98.44 
L 275.718283 3.6 
" clip-path="url(#pf40fdd7107)" style="fill: none; stroke: #b0b0b0; stroke-width: 0.8; stroke-linecap: square"/>
     </g>
     <g id="line2d_10">
      <g>
       <use xlink:href="#m2d20dfe02a" x="275.718283" y="98.44" style="stroke: #000000; stroke-width: 0.8"/>
      </g>
     </g>
     <g id="text_5">
      <text style="font-size: 10px; font-family: 'Times New Roman'; text-anchor: middle" x="275.718283" y="112.38375" transform="rotate(-0 275.718283 112.38375)">200</text>
     </g>
    </g>
    <g id="xtick_6">
     <g id="line2d_11">
      <path d="M 336.070353 98.44 
L 336.070353 3.6 
" clip-path="url(#pf40fdd7107)" style="fill: none; stroke: #b0b0b0; stroke-width: 0.8; stroke-linecap: square"/>
     </g>
     <g id="line2d_12">
      <g>
       <use xlink:href="#m2d20dfe02a" x="336.070353" y="98.44" style="stroke: #000000; stroke-width: 0.8"/>
      </g>
     </g>
     <g id="text_6">
      <text style="font-size: 10px; font-family: 'Times New Roman'; text-anchor: middle" x="336.070353" y="112.38375" transform="rotate(-0 336.070353 112.38375)">250</text>
     </g>
    </g>
    <g id="xtick_7">
     <g id="line2d_13">
      <path d="M 396.422424 98.44 
L 396.422424 3.6 
" clip-path="url(#pf40fdd7107)" style="fill: none; stroke: #b0b0b0; stroke-width: 0.8; stroke-linecap: square"/>
     </g>
     <g id="line2d_14">
      <g>
       <use xlink:href="#m2d20dfe02a" x="396.422424" y="98.44" style="stroke: #000000; stroke-width: 0.8"/>
      </g>
     </g>
     <g id="text_7">
      <text style="font-size: 10px; font-family: 'Times New Roman'; text-anchor: middle" x="396.422424" y="112.38375" transform="rotate(-0 396.422424 112.38375)">300</text>
     </g>
    </g>
    <g id="xtick_8">
     <g id="line2d_15">
      <path d="M 456.774495 98.44 
L 456.774495 3.6 
" clip-path="url(#pf40fdd7107)" style="fill: none; stroke: #b0b0b0; stroke-width: 0.8; stroke-linecap: square"/>
     </g>
     <g id="line2d_16">
      <g>
       <use xlink:href="#m2d20dfe02a" x="456.774495" y="98.44" style="stroke: #000000; stroke-width: 0.8"/>
      </g>
     </g>
     <g id="text_8">
      <text style="font-size: 10px; font-family: 'Times New Roman'; text-anchor: middle" x="456.774495" y="112.38375" transform="rotate(-0 456.774495 112.38375)">350</text>
     </g>
    </g>
    <g id="xtick_9">
     <g id="line2d_17">
      <path d="M 517.126565 98.44 
L 517.126565 3.6 
" clip-path="url(#pf40fdd7107)" style="fill: none; stroke: #b0b0b0; stroke-width: 0.8; stroke-linecap: square"/>
     </g>
     <g id="line2d_18">
      <g>
       <use xlink:href="#m2d20dfe02a" x="517.126565" y="98.44" style="stroke: #000000; stroke-width: 0.8"/>
      </g>
     </g>
     <g id="text_9">
      <text style="font-size: 10px; font-family: 'Times New Roman'; text-anchor: middle" x="517.126565" y="112.38375" transform="rotate(-0 517.126565 112.38375)">400</text>
     </g>
    </g>
    <g id="text_10">
     <text style="font-size: 12px; font-family: 'Times New Roman'; text-anchor: middle" x="287.155" y="126.855312" transform="rotate(-0 287.155 126.855312)">Simulation Run</text>
    </g>
   </g>
   <g id="matplotlib.axis_2">
    <g id="ytick_1">
     <g id="line2d_19">
      <path d="M 34.31 98.44 
L 540 98.44 
" clip-path="url(#pf40fdd7107)" style="fill: none; stroke: #b0b0b0; stroke-width: 0.8; stroke-linecap: square"/>
     </g>
     <g id="line2d_20">
      <defs>
       <path id="m35b0a455c8" d="M 0 0 
L -3.5 0 
" style="stroke: #000000; stroke-width: 0.8"/>
      </defs>
      <g>
       <use xlink:href="#m35b0a455c8" x="34.31" y="98.44" style="stroke: #000000; stroke-width: 0.8"/>
      </g>
     </g>
     <g id="text_11">
      <text style="font-size: 10px; font-family: 'Times New Roman'; text-anchor: end" x="27.31" y="101.911875" transform="rotate(-0 27.31 101.911875)">0.0</text>
     </g>
    </g>
    <g id="ytick_2">
     <g id="line2d_21">
      <path d="M 34.31 66.826667 
L 540 66.826667 
" clip-path="url(#pf40fdd7107)" style="fill: none; stroke: #b0b0b0; stroke-width: 0.8; stroke-linecap: square"/>
     </g>
     <g id="line2d_22">
      <g>
       <use xlink:href="#m35b0a455c8" x="34.31" y="66.826667" style="stroke: #000000; stroke-width: 0.8"/>
      </g>
     </g>
     <g id="text_12">
      <text style="font-size: 10px; font-family: 'Times New Roman'; text-anchor: end" x="27.31" y="70.298542" transform="rotate(-0 27.31 70.298542)">0.5</text>
     </g>
    </g>
    <g id="ytick_3">
     <g id="line2d_23">
      <path d="M 34.31 35.213333 
L 540 35.213333 
" clip-path="url(#pf40fdd7107)" style="fill: none; stroke: #b0b0b0; stroke-width: 0.8; stroke-linecap: square"/>
     </g>
     <g id="line2d_24">
      <g>
       <use xlink:href="#m35b0a455c8" x="34.31" y="35.213333" style="stroke: #000000; stroke-width: 0.8"/>
      </g>
     </g>
     <g id="text_13">
      <text style="font-size: 10px; font-family: 'Times New Roman'; text-anchor: end" x="27.31" y="38.685208" transform="rotate(-0 27.31 38.685208)">1.0</text>
     </g>
    </g>
    <g id="ytick_4">
     <g id="line2d_25">
      <path d="M 34.31 3.6 
L 540 3.6 
" clip-path="url(#pf40fdd7107)" style="fill: none; stroke: #b0b0b0; stroke-width: 0.8; stroke-linecap: square"/>
     </g>
     <g id="line2d_26">
      <g>
       <use xlink:href="#m35b0a455c8" x="34.31" y="3.6" style="stroke: #000000; stroke-width: 0.8"/>
      </g>
     </g>
     <g id="text_14">
      <text style="font-size: 10px; font-family: 'Times New Roman'; text-anchor: end" x="27.31" y="7.071875" transform="rotate(-0 27.31 7.071875)">1.5</text>
     </g>
    </g>
    <g id="text_15">
     <text style="font-size: 12px; font-family: 'Times New Roman'; text-anchor: middle" x="8.243125" y="51.02" transform="rotate(-90 8.243125 51.02)">Normalized Value</text>
    </g>
   </g>
   <g id="line2d_27">
    <path d="M 34.31 59.288189 
L 35.517041 56.209321 
L 36.724083 56.126666 
L 37.931124 49.720195 
L 39.138166 46.793286 
L 40.345207 49.058256 
L 41.552248 47.151058 
L 42.75929 43.544782 
L 45.173373 47.63861 
L 46.380414 44.722797 
L 47.587456 42.95376 
L 48.794497 44.489219 
L 50.001538 42.264602 
L 51.20858 42.17141 
L 52.415621 42.280269 
L 54.829704 42.967548 
L 56.036745 40.920761 
L 58.450828 41.632037 
L 59.65787 41.307885 
L 60.864911 42.00477 
L 62.071953 43.231288 
L 64.486035 42.806078 
L 65.693077 41.876788 
L 66.900118 41.515275 
L 68.10716 41.670735 
L 69.314201 41.645469 
L 70.521242 42.022381 
L 71.728284 40.708653 
L 72.935325 40.949179 
L 74.142367 41.881534 
L 75.349408 41.775935 
L 76.556449 42.12766 
L 77.763491 41.59741 
L 78.970532 42.100395 
L 80.177574 41.310555 
L 81.384615 41.324343 
L 82.591657 40.686834 
L 85.005739 41.51982 
L 86.212781 40.812664 
L 88.626864 39.693829 
L 89.833905 39.827293 
L 91.040946 39.573894 
L 94.662071 38.441495 
L 95.869112 38.542929 
L 97.076153 37.664502 
L 98.283195 37.470513 
L 99.490236 37.537859 
L 100.697278 37.162147 
L 101.904319 37.555831 
L 103.111361 37.531163 
L 104.318402 37.325566 
L 105.525443 37.489019 
L 106.732485 36.970665 
L 107.939526 36.625325 
L 111.56065 36.605061 
L 112.767692 36.51405 
L 113.974733 36.556135 
L 115.181775 36.288333 
L 116.388816 36.652826 
L 120.00994 35.931714 
L 121.216982 36.110249 
L 123.631065 36.124247 
L 124.838106 35.363478 
L 126.045147 35.192366 
L 127.252189 34.76122 
L 128.45923 34.949077 
L 129.666272 35.309185 
L 130.873313 35.495965 
L 132.080354 35.398434 
L 138.115562 35.68308 
L 139.322603 35.452 
L 142.943727 35.449984 
L 144.150769 35.738252 
L 145.35781 35.740823 
L 146.564851 35.52786 
L 147.771893 35.435655 
L 148.978934 35.723019 
L 151.393017 36.044236 
L 152.600058 35.794851 
L 153.8071 35.706585 
L 155.014141 35.860272 
L 156.221183 35.609139 
L 157.428224 35.763846 
L 158.635266 35.512404 
L 159.842307 35.462129 
L 161.049348 35.203276 
L 163.463431 35.372455 
L 164.670473 35.082589 
L 165.877514 35.061031 
L 167.084555 35.298234 
L 168.291597 34.986691 
L 169.498638 34.857092 
L 170.70568 34.931457 
L 171.912721 34.731008 
L 176.740887 34.982671 
L 177.947928 34.832612 
L 183.983135 34.956997 
L 185.190177 34.655631 
L 187.604259 34.92487 
L 188.811301 34.794363 
L 190.018342 34.817574 
L 191.225384 34.600192 
L 193.639467 34.666697 
L 196.053549 34.611547 
L 202.088756 34.901124 
L 204.502839 34.883943 
L 208.123963 34.919193 
L 209.331005 35.190204 
L 210.538046 35.047636 
L 215.366212 35.307002 
L 216.573253 35.203041 
L 217.780295 35.214217 
L 218.987336 35.021991 
L 220.194378 35.267087 
L 223.815502 35.191538 
L 227.436626 35.08391 
L 243.128164 35.402933 
L 246.749289 35.537454 
L 247.95633 35.592179 
L 249.163372 35.351741 
L 255.198579 35.445048 
L 256.40562 35.241979 
L 257.612661 35.303616 
L 258.819703 35.187078 
L 262.440827 35.361479 
L 264.85491 35.140113 
L 266.061951 35.262724 
L 270.890117 35.314747 
L 276.925324 35.593599 
L 284.167573 35.581982 
L 288.995738 35.564042 
L 292.616862 35.485092 
L 295.030945 35.655441 
L 309.515442 35.597438 
L 310.722484 35.457262 
L 313.136566 35.535687 
L 314.343608 35.418996 
L 320.378815 35.509873 
L 322.792898 35.16884 
L 325.206981 35.069797 
L 327.621063 35.165614 
L 328.828105 35.211423 
L 331.242188 35.151299 
L 332.449229 35.271935 
L 334.863312 35.281118 
L 336.070353 35.154965 
L 338.484436 35.136041 
L 340.898519 35.082169 
L 342.10556 35.161082 
L 361.418223 34.638524 
L 363.832306 34.845681 
L 366.246389 34.778396 
L 368.660471 34.882534 
L 369.867513 34.811377 
L 373.488637 34.85902 
L 375.90272 34.935435 
L 379.523844 35.069112 
L 381.937927 35.055559 
L 386.766093 35.211067 
L 392.8013 35.502075 
L 401.25059 35.281655 
L 403.664672 35.415428 
L 410.906921 35.542457 
L 413.321004 35.470175 
L 414.528045 35.505064 
L 415.735087 35.404596 
L 416.942128 35.431057 
L 418.149169 35.277529 
L 424.184376 35.266485 
L 425.391418 35.367265 
L 430.219583 35.339609 
L 435.047749 35.435982 
L 449.532246 35.489504 
L 450.739288 35.417751 
L 453.15337 35.49215 
L 461.60266 35.55954 
L 464.016743 35.684906 
L 470.05195 35.395226 
L 472.466033 35.470553 
L 478.50124 35.288695 
L 485.743488 35.484541 
L 491.778696 35.310079 
L 495.39982 35.277069 
L 496.606861 35.136077 
L 506.263193 35.147521 
L 514.712482 35.223976 
L 515.919524 35.213333 
L 515.919524 35.213333 
" clip-path="url(#pf40fdd7107)" style="fill: none; stroke: #4169e1; stroke-width: 1.5; stroke-linecap: square"/>
   </g>
   <g id="line2d_28">
    <path d="M 34.31 98.44 
L 35.517041 96.525175 
L 36.724083 97.16069 
L 37.931124 72.608795 
L 39.138166 70.853135 
L 40.345207 70.269612 
L 41.552248 69.885464 
L 42.75929 55.065583 
L 43.966331 53.004571 
L 45.173373 50.053399 
L 46.380414 37.278385 
L 47.587456 35.421522 
L 48.794497 34.554246 
L 50.001538 26.121783 
L 51.20858 30.918437 
L 52.415621 35.102629 
L 53.622663 38.51865 
L 54.829704 41.357679 
L 56.036745 29.129742 
L 58.450828 34.752289 
L 59.65787 37.201465 
L 60.864911 37.705808 
L 62.071953 33.247278 
L 64.486035 37.82367 
L 65.693077 35.533244 
L 66.900118 37.06713 
L 69.314201 41.022781 
L 70.521242 42.014057 
L 71.728284 32.970012 
L 72.935325 34.579996 
L 74.142367 30.663632 
L 75.349408 32.523514 
L 76.556449 33.479904 
L 77.763491 33.190968 
L 78.970532 33.017184 
L 80.177574 29.906081 
L 81.384615 31.617931 
L 82.591657 29.963914 
L 83.798698 30.484113 
L 85.005739 30.215355 
L 86.212781 27.422349 
L 88.626864 24.946274 
L 89.833905 26.344459 
L 91.040946 27.23684 
L 92.247988 27.113745 
L 93.455029 27.289128 
L 94.662071 27.273997 
L 95.869112 28.53658 
L 97.076153 21.75036 
L 98.283195 22.767656 
L 99.490236 24.094044 
L 100.697278 23.853385 
L 101.904319 23.408724 
L 103.111361 24.695361 
L 104.318402 25.450035 
L 105.525443 26.348125 
L 106.732485 24.273454 
L 107.939526 24.00019 
L 110.353609 26.263673 
L 113.974733 29.210327 
L 115.181775 29.257788 
L 116.388816 28.435551 
L 117.595858 28.624208 
L 118.802899 28.255343 
L 121.216982 29.302975 
L 123.631065 31.120734 
L 124.838106 23.238252 
L 126.045147 23.765407 
L 127.252189 21.831518 
L 128.45923 22.245219 
L 129.666272 21.128275 
L 130.873313 21.518978 
L 136.90852 25.542527 
L 138.115562 26.350044 
L 139.322603 26.230843 
L 140.529644 27.04197 
L 142.943727 28.336045 
L 144.150769 27.570542 
L 145.35781 28.332457 
L 146.564851 28.226285 
L 147.771893 28.803945 
L 148.978934 27.944663 
L 150.185976 28.274951 
L 151.393017 28.368502 
L 152.600058 27.84514 
L 153.8071 28.39529 
L 155.014141 28.611691 
L 156.221183 28.009583 
L 157.428224 28.200235 
L 158.635266 27.560213 
L 159.842307 28.18216 
L 161.049348 27.423811 
L 163.463431 28.432413 
L 164.670473 27.241681 
L 165.877514 27.878706 
L 167.084555 27.264195 
L 168.291597 25.72345 
L 169.498638 25.986974 
L 170.70568 26.496295 
L 171.912721 26.196639 
L 175.533845 27.734028 
L 176.740887 27.601119 
L 177.947928 27.650164 
L 182.776094 29.731989 
L 183.983135 30.172756 
L 185.190177 28.421344 
L 186.397218 28.679837 
L 187.604259 28.551791 
L 188.811301 28.653185 
L 190.018342 29.175968 
L 191.225384 28.463802 
L 199.674674 31.667434 
L 200.881715 30.864263 
L 205.709881 32.586586 
L 208.123963 33.46371 
L 209.331005 31.75752 
L 210.538046 31.611707 
L 212.952129 32.248108 
L 214.159171 32.689355 
L 215.366212 32.644959 
L 216.573253 32.748164 
L 217.780295 33.173687 
L 218.987336 32.455498 
L 220.194378 31.012501 
L 222.60846 31.868923 
L 225.022543 32.479322 
L 227.436626 33.205858 
L 231.05775 34.227248 
L 235.885916 35.563162 
L 237.092957 35.432645 
L 238.299999 35.428998 
L 240.714082 36.040322 
L 247.95633 37.622675 
L 249.163372 35.883843 
L 251.577454 36.445391 
L 255.198579 37.214999 
L 256.40562 36.013259 
L 257.612661 36.206913 
L 258.819703 36.029445 
L 260.026744 36.126346 
L 262.440827 36.60338 
L 263.647868 36.727995 
L 264.85491 36.189013 
L 266.061951 35.928502 
L 267.268993 36.244766 
L 269.683076 36.091312 
L 276.925324 36.89579 
L 278.132365 37.188814 
L 279.339407 37.174797 
L 280.546448 37.320904 
L 281.75349 37.599934 
L 284.167573 37.686983 
L 285.374614 37.962922 
L 286.581655 37.953468 
L 292.616862 39.171797 
L 293.823904 38.969027 
L 295.030945 39.055723 
L 297.445028 39.572518 
L 299.859111 39.959504 
L 302.273194 40.391766 
L 303.480235 39.360464 
L 305.894318 39.287593 
L 307.101359 39.54264 
L 308.308401 38.929071 
L 309.515442 39.011694 
L 310.722484 38.361143 
L 313.136566 38.716446 
L 314.343608 38.334649 
L 317.964732 39.006715 
L 319.171773 39.020609 
L 320.378815 39.205985 
L 321.585856 37.03306 
L 322.792898 36.632142 
L 323.999939 36.560586 
L 325.206981 36.802569 
L 326.414022 36.65157 
L 328.828105 37.051394 
L 330.035146 36.946625 
L 331.242188 37.165785 
L 332.449229 36.686755 
L 334.863312 37.177591 
L 336.070353 36.617983 
L 338.484436 36.90263 
L 339.691478 36.880717 
L 340.898519 37.105452 
L 342.10556 37.024278 
L 345.726685 37.439295 
L 346.933726 37.013475 
L 348.140767 36.951986 
L 349.347809 37.143508 
L 350.55485 37.013535 
L 352.968933 37.340126 
L 354.175974 36.312297 
L 355.383016 36.446007 
L 356.590057 36.219739 
L 357.797099 36.414509 
L 359.00414 36.475733 
L 360.211182 36.687894 
L 361.418223 36.661501 
L 362.625264 36.504325 
L 363.832306 35.887711 
L 365.039347 35.859114 
L 366.246389 36.085827 
L 367.45343 36.070725 
L 368.660471 36.212146 
L 369.867513 36.150851 
L 373.488637 36.582339 
L 374.695678 36.800872 
L 377.109761 36.634373 
L 380.730886 37.009784 
L 385.559051 37.594991 
L 389.180175 37.592622 
L 391.594258 37.622002 
L 392.8013 37.511398 
L 396.422424 37.926455 
L 397.629465 37.532336 
L 401.25059 37.967774 
L 402.457631 37.57504 
L 404.871714 37.813716 
L 406.078755 37.296522 
L 408.492838 37.678544 
L 412.113962 37.943199 
L 414.528045 38.228553 
L 415.735087 37.774204 
L 416.942128 37.920143 
L 418.149169 36.595779 
L 419.356211 36.786003 
L 421.770294 37.04641 
L 424.184376 37.318317 
L 425.391418 36.841656 
L 426.598459 37.007058 
L 427.805501 36.901297 
L 429.012542 37.0889 
L 431.426625 37.068809 
L 432.633666 37.177733 
L 433.840708 36.78403 
L 436.254791 37.135505 
L 437.461832 37.167665 
L 442.289998 37.86315 
L 445.911122 38.120873 
L 447.118163 37.972967 
L 448.325205 38.148215 
L 451.946329 37.694963 
L 454.360412 38.035275 
L 456.774495 37.670971 
L 459.188577 37.912801 
L 460.395619 37.727712 
L 461.60266 37.877126 
L 462.809702 37.655846 
L 464.016743 37.635476 
L 465.223784 37.503056 
L 466.430826 36.888622 
L 467.637867 37.035901 
L 468.844909 36.674067 
L 471.258992 36.643983 
L 472.466033 36.756018 
L 474.880116 36.68388 
L 476.087157 36.776794 
L 477.294199 36.075388 
L 478.50124 36.244398 
L 479.708281 36.257258 
L 482.122364 36.435386 
L 484.536447 36.666585 
L 485.743488 36.535043 
L 486.95053 36.524459 
L 488.157571 36.68467 
L 489.364613 35.081932 
L 494.192778 35.720801 
L 495.39982 35.691818 
L 496.606861 34.317285 
L 499.020944 34.632576 
L 502.642068 34.552175 
L 514.712482 35.064022 
L 515.919524 35.213333 
L 515.919524 35.213333 
" clip-path="url(#pf40fdd7107)" style="fill: none; stroke-dasharray: 5.55,2.4; stroke-dashoffset: 0; stroke: #4169e1; stroke-width: 1.5"/>
   </g>
   <g id="line2d_29">
    <path d="M 34.31 55.417441 
L 35.517041 52.221523 
L 36.724083 51.240378 
L 37.931124 45.995592 
L 39.138166 43.817103 
L 40.345207 46.23419 
L 41.552248 46.110057 
L 42.75929 43.704553 
L 43.966331 45.691379 
L 45.173373 46.940478 
L 47.587456 42.271618 
L 48.794497 43.550222 
L 50.001538 41.882352 
L 51.20858 41.524859 
L 52.415621 41.324495 
L 53.622663 41.476657 
L 54.829704 41.960109 
L 56.036745 40.50275 
L 57.243787 40.872368 
L 58.450828 41.057552 
L 59.65787 40.601677 
L 60.864911 41.177593 
L 62.071953 42.109943 
L 63.278994 42.106008 
L 64.486035 42.317516 
L 65.693077 41.396405 
L 66.900118 40.978654 
L 68.10716 40.790871 
L 69.314201 40.773911 
L 70.521242 40.923275 
L 71.728284 40.14044 
L 72.935325 40.142727 
L 74.142367 40.913205 
L 76.556449 41.139406 
L 77.763491 40.579745 
L 78.970532 41.004685 
L 80.177574 40.437169 
L 81.384615 40.35119 
L 82.591657 39.781256 
L 85.005739 40.361789 
L 88.626864 38.908544 
L 89.833905 39.051361 
L 94.662071 38.048388 
L 95.869112 38.088014 
L 97.076153 37.350149 
L 98.283195 37.216686 
L 99.490236 37.371361 
L 100.697278 37.218395 
L 101.904319 37.475193 
L 105.525443 37.293463 
L 106.732485 36.975265 
L 107.939526 36.793569 
L 115.181775 36.60863 
L 116.388816 36.899198 
L 120.00994 36.243208 
L 122.424023 36.337092 
L 123.631065 36.299466 
L 124.838106 35.783324 
L 126.045147 35.785892 
L 127.252189 35.50432 
L 128.45923 35.594066 
L 129.666272 35.885612 
L 130.873313 35.989199 
L 132.080354 35.862024 
L 133.287396 35.868649 
L 135.701479 36.052222 
L 141.736686 35.729732 
L 142.943727 35.789858 
L 144.150769 35.969011 
L 145.35781 35.914825 
L 147.771893 35.57962 
L 148.978934 35.807338 
L 151.393017 36.055263 
L 153.8071 35.863484 
L 155.014141 35.953292 
L 156.221183 35.733234 
L 157.428224 35.91359 
L 158.635266 35.723982 
L 159.842307 35.657903 
L 161.049348 35.443574 
L 163.463431 35.670311 
L 164.670473 35.478469 
L 165.877514 35.403107 
L 167.084555 35.579923 
L 169.498638 35.337459 
L 170.70568 35.379917 
L 171.912721 35.268305 
L 174.326804 35.432053 
L 175.533845 35.412017 
L 176.740887 35.568467 
L 179.15497 35.477504 
L 180.362011 35.552561 
L 186.397218 35.386513 
L 187.604259 35.496624 
L 188.811301 35.382984 
L 190.018342 35.430886 
L 191.225384 35.313436 
L 194.846508 35.277162 
L 198.467632 35.220247 
L 199.674674 35.215293 
L 200.881715 35.400218 
L 204.502839 35.309538 
L 209.331005 35.638949 
L 210.538046 35.510781 
L 215.366212 35.704114 
L 218.987336 35.433262 
L 220.194378 35.617645 
L 222.60846 35.639316 
L 229.850709 35.470602 
L 234.678875 35.597878 
L 235.885916 35.556168 
L 237.092957 35.63403 
L 239.50704 35.568644 
L 241.921123 35.630033 
L 244.335206 35.573796 
L 247.95633 35.720093 
L 249.163372 35.558401 
L 255.198579 35.609346 
L 256.40562 35.393312 
L 263.647868 35.480696 
L 264.85491 35.395591 
L 267.268993 35.444236 
L 268.476034 35.391487 
L 272.097158 35.568136 
L 281.75349 35.673759 
L 282.960531 35.610403 
L 285.374614 35.696503 
L 287.788697 35.665138 
L 290.20278 35.676251 
L 293.823904 35.672521 
L 297.445028 35.764852 
L 299.859111 35.722696 
L 302.273194 35.775413 
L 303.480235 35.631417 
L 308.308401 35.783083 
L 311.929525 35.678274 
L 316.757691 35.637014 
L 322.792898 35.342443 
L 325.206981 35.246556 
L 328.828105 35.343749 
L 331.242188 35.2976 
L 333.65627 35.380884 
L 338.484436 35.289258 
L 340.898519 35.203841 
L 342.10556 35.255131 
L 345.726685 35.086024 
L 350.55485 34.977744 
L 352.968933 34.986354 
L 356.590057 34.740877 
L 362.625264 34.796464 
L 363.832306 34.89725 
L 366.246389 34.867271 
L 368.660471 34.944229 
L 371.074554 34.910427 
L 374.695678 34.927717 
L 378.316803 35.070438 
L 391.594258 35.31767 
L 394.008341 35.340443 
L 396.422424 35.26411 
L 398.836507 35.16118 
L 414.528045 35.455869 
L 419.356211 35.33043 
L 422.977335 35.32022 
L 424.184376 35.279142 
L 425.391418 35.36865 
L 432.633666 35.309855 
L 436.254791 35.388504 
L 441.082956 35.461526 
L 449.532246 35.463028 
L 451.946329 35.496328 
L 461.60266 35.498683 
L 465.223784 35.574888 
L 470.05195 35.41812 
L 473.673074 35.440956 
L 477.294199 35.365624 
L 495.39982 35.275814 
L 497.813903 35.154466 
L 501.435027 35.18701 
L 503.84911 35.13739 
L 508.677275 35.147449 
L 514.712482 35.213708 
L 515.919524 35.213333 
L 515.919524 35.213333 
" clip-path="url(#pf40fdd7107)" style="fill: none; stroke: #ff8c00; stroke-width: 1.5; stroke-linecap: square"/>
   </g>
   <g id="line2d_30">
    <path d="M 34.31 98.44 
L 35.517041 94.892316 
L 36.724083 95.406148 
L 37.931124 67.501016 
L 39.138166 67.095183 
L 40.345207 62.172998 
L 41.552248 67.321885 
L 42.75929 57.142617 
L 43.966331 50.762302 
L 45.173373 50.652653 
L 46.380414 34.135975 
L 47.587456 20.695778 
L 48.794497 19.862016 
L 50.001538 12.913798 
L 52.415621 22.812789 
L 53.622663 27.132776 
L 54.829704 29.714192 
L 56.036745 20.052524 
L 57.243787 23.070298 
L 58.450828 26.421105 
L 59.65787 28.178808 
L 60.864911 28.699125 
L 62.071953 24.66052 
L 63.278994 27.61157 
L 64.486035 29.94728 
L 65.693077 24.821886 
L 66.900118 25.814473 
L 70.521242 32.286655 
L 71.728284 27.755284 
L 72.935325 29.897187 
L 74.142367 25.108764 
L 76.556449 28.880565 
L 77.763491 26.843969 
L 78.970532 26.407415 
L 80.177574 24.003371 
L 81.384615 25.764148 
L 82.591657 23.02376 
L 85.005739 24.131659 
L 86.212781 21.973057 
L 87.419822 21.244009 
L 88.626864 18.243935 
L 89.833905 19.624345 
L 92.247988 21.202758 
L 93.455029 22.037277 
L 94.662071 21.396214 
L 95.869112 22.85001 
L 97.076153 14.442649 
L 98.283195 15.670251 
L 100.697278 17.738599 
L 101.904319 17.871715 
L 103.111361 19.196913 
L 104.318402 19.990162 
L 105.525443 21.264385 
L 106.732485 20.419476 
L 107.939526 20.978391 
L 110.353609 23.318214 
L 113.974733 26.567898 
L 115.181775 26.698917 
L 116.388816 25.744494 
L 117.595858 25.830744 
L 118.802899 24.684239 
L 120.00994 25.093234 
L 121.216982 25.866687 
L 123.631065 27.765457 
L 124.838106 21.755458 
L 126.045147 22.751187 
L 127.252189 21.601129 
L 128.45923 22.355563 
L 129.666272 20.974255 
L 130.873313 21.632462 
L 132.080354 22.114111 
L 133.287396 23.03245 
L 134.494437 23.388097 
L 138.115562 25.785958 
L 139.322603 26.20091 
L 140.529644 26.995693 
L 141.736686 27.316861 
L 142.943727 27.985425 
L 144.150769 27.736757 
L 145.35781 28.403184 
L 146.564851 27.805907 
L 147.771893 27.986095 
L 148.978934 27.008909 
L 150.185976 27.353674 
L 152.600058 27.578906 
L 153.8071 28.149478 
L 155.014141 28.565282 
L 156.221183 27.551509 
L 157.428224 27.087323 
L 158.635266 26.487227 
L 159.842307 27.014762 
L 161.049348 26.013241 
L 162.25639 26.311359 
L 163.463431 26.395641 
L 164.670473 25.676021 
L 165.877514 26.122484 
L 168.291597 25.067705 
L 170.70568 26.101479 
L 171.912721 26.237244 
L 174.326804 26.933004 
L 175.533845 27.522681 
L 176.740887 27.115422 
L 177.947928 27.498992 
L 179.15497 28.069352 
L 180.362011 28.409392 
L 183.983135 29.92677 
L 185.190177 28.741436 
L 187.604259 28.840741 
L 188.811301 28.80611 
L 190.018342 29.238941 
L 191.225384 29.144317 
L 193.639467 30.15082 
L 196.053549 30.781809 
L 199.674674 32.251207 
L 200.881715 31.088213 
L 202.088756 31.426433 
L 204.502839 32.304886 
L 205.709881 32.56598 
L 206.916922 33.01776 
L 208.123963 33.304219 
L 209.331005 31.338921 
L 210.538046 30.962352 
L 211.745088 31.278391 
L 212.952129 31.392939 
L 214.159171 31.80024 
L 215.366212 31.839846 
L 216.573253 31.61418 
L 217.780295 31.961006 
L 218.987336 31.664289 
L 220.194378 30.2766 
L 226.229585 32.149808 
L 227.436626 32.007907 
L 228.643668 32.264261 
L 229.850709 32.639079 
L 232.264792 33.172864 
L 235.885916 34.192616 
L 237.092957 34.219016 
L 238.299999 34.388032 
L 239.50704 34.760652 
L 240.714082 34.983055 
L 241.921123 35.341957 
L 243.128164 35.414115 
L 245.542247 36.034775 
L 247.95633 36.369793 
L 249.163372 35.100147 
L 251.577454 35.622429 
L 253.991537 36.116604 
L 255.198579 36.45023 
L 256.40562 33.802571 
L 258.819703 34.308928 
L 260.026744 34.389633 
L 263.647868 35.227527 
L 264.85491 35.076251 
L 266.061951 35.049229 
L 267.268993 35.336242 
L 268.476034 35.472357 
L 269.683076 35.265975 
L 273.3042 35.931465 
L 274.511241 36.196223 
L 275.718283 36.266621 
L 278.132365 36.857995 
L 279.339407 36.952156 
L 280.546448 37.207427 
L 281.75349 37.332774 
L 282.960531 37.340765 
L 284.167573 37.027134 
L 285.374614 37.318536 
L 286.581655 37.36464 
L 292.616862 38.441772 
L 293.823904 38.33621 
L 295.030945 38.410443 
L 296.237987 38.685793 
L 297.445028 38.838083 
L 298.652069 38.840052 
L 299.859111 39.086851 
L 301.066152 39.204897 
L 302.273194 39.464804 
L 303.480235 38.122035 
L 307.101359 38.490254 
L 308.308401 37.744516 
L 309.515442 37.664903 
L 310.722484 37.243879 
L 311.929525 37.276016 
L 313.136566 37.535644 
L 314.343608 37.14052 
L 320.378815 37.908654 
L 321.585856 36.176849 
L 322.792898 35.71411 
L 323.999939 35.640798 
L 325.206981 35.811184 
L 326.414022 35.696046 
L 327.621063 35.948191 
L 331.242188 36.361746 
L 332.449229 35.821645 
L 334.863312 36.306861 
L 336.070353 36.104403 
L 338.484436 36.415353 
L 339.691478 36.118508 
L 340.898519 36.358643 
L 342.10556 36.368153 
L 343.312602 35.872987 
L 346.933726 36.160537 
L 349.347809 36.142014 
L 350.55485 35.904186 
L 352.968933 36.311492 
L 354.175974 35.359626 
L 355.383016 35.276086 
L 356.590057 35.015411 
L 357.797099 35.251045 
L 359.00414 35.237368 
L 360.211182 35.467122 
L 361.418223 35.564106 
L 362.625264 35.431929 
L 363.832306 34.698694 
L 365.039347 34.623965 
L 366.246389 34.786722 
L 367.45343 34.778584 
L 368.660471 34.936716 
L 369.867513 34.665263 
L 371.074554 34.752439 
L 374.695678 35.32701 
L 375.90272 35.08677 
L 377.109761 35.068002 
L 385.559051 36.161247 
L 386.766093 36.21825 
L 387.973134 36.108844 
L 391.594258 36.616963 
L 392.8013 36.502185 
L 395.215383 36.793043 
L 396.422424 36.529222 
L 397.629465 35.932383 
L 401.25059 36.421248 
L 402.457631 35.804211 
L 404.871714 36.0998 
L 406.078755 35.675255 
L 414.528045 36.761864 
L 415.735087 36.694868 
L 416.942128 36.822004 
L 418.149169 35.952828 
L 421.770294 36.496233 
L 424.184376 36.606382 
L 425.391418 35.895031 
L 426.598459 36.024095 
L 427.805501 35.613043 
L 429.012542 35.804292 
L 431.426625 35.988829 
L 432.633666 36.136573 
L 433.840708 35.866152 
L 436.254791 36.226754 
L 437.461832 36.195498 
L 442.289998 36.861627 
L 445.911122 37.002741 
L 447.118163 36.877713 
L 448.325205 37.047077 
L 449.532246 36.901706 
L 450.739288 36.922895 
L 451.946329 36.520385 
L 454.360412 36.858346 
L 455.567453 36.792095 
L 456.774495 36.577391 
L 459.188577 36.846091 
L 460.395619 36.614519 
L 461.60266 36.787242 
L 462.809702 36.538369 
L 465.223784 36.732094 
L 466.430826 36.392474 
L 467.637867 36.539946 
L 468.844909 36.178523 
L 471.258992 36.138596 
L 473.673074 36.271473 
L 474.880116 36.082398 
L 476.087157 36.140483 
L 477.294199 35.967976 
L 479.708281 36.224321 
L 480.915323 36.343945 
L 482.122364 36.33777 
L 485.743488 36.587206 
L 486.95053 36.587317 
L 488.157571 36.737185 
L 489.364613 35.056596 
L 495.39982 35.634976 
L 496.606861 34.486929 
L 500.227985 34.721823 
L 501.435027 34.765868 
L 502.642068 34.299638 
L 508.677275 34.801279 
L 513.505441 34.89636 
L 515.919524 35.213333 
L 515.919524 35.213333 
" clip-path="url(#pf40fdd7107)" style="fill: none; stroke-dasharray: 5.55,2.4; stroke-dashoffset: 0; stroke: #ff8c00; stroke-width: 1.5"/>
   </g>
   <g id="patch_3">
    <path d="M 34.31 98.44 
L 34.31 3.6 
" style="fill: none; stroke: #000000; stroke-width: 0.8; stroke-linejoin: miter; stroke-linecap: square"/>
   </g>
   <g id="patch_4">
    <path d="M 540 98.44 
L 540 3.6 
" style="fill: none; stroke: #000000; stroke-width: 0.8; stroke-linejoin: miter; stroke-linecap: square"/>
   </g>
   <g id="patch_5">
    <path d="M 34.31 98.44 
L 540 98.44 
" style="fill: none; stroke: #000000; stroke-width: 0.8; stroke-linejoin: miter; stroke-linecap: square"/>
   </g>
   <g id="patch_6">
    <path d="M 34.31 3.6 
L 540 3.6 
" style="fill: none; stroke: #000000; stroke-width: 0.8; stroke-linejoin: miter; stroke-linecap: square"/>
   </g>
  </g>
 </g>
 <defs>
  <clipPath id="pf40fdd7107">
   <rect x="34.31" y="3.6" width="505.69" height="94.84"/>
  </clipPath>
 </defs>
</svg>
