<?xml version="1.0" encoding="utf-8" standalone="no"?>
<!DOCTYPE svg PUBLIC "-//W3C//DTD SVG 1.1//EN"
  "http://www.w3.org/Graphics/SVG/1.1/DTD/svg11.dtd">
<svg xmlns:xlink="http://www.w3.org/1999/xlink" width="540pt" height="129.6pt" viewBox="0 0 540 129.6" xmlns="http://www.w3.org/2000/svg" version="1.1">
 <metadata>
  <rdf:RDF xmlns:dc="http://purl.org/dc/elements/1.1/" xmlns:cc="http://creativecommons.org/ns#" xmlns:rdf="http://www.w3.org/1999/02/22-rdf-syntax-ns#">
   <cc:Work>
    <dc:type rdf:resource="http://purl.org/dc/dcmitype/StillImage"/>
    <dc:date>2025-03-31T00:17:16.828080</dc:date>
    <dc:format>image/svg+xml</dc:format>
    <dc:creator>
     <cc:Agent>
      <dc:title>Matplotlib v3.8.3, https://matplotlib.org/</dc:title>
     </cc:Agent>
    </dc:creator>
   </cc:Work>
  </rdf:RDF>
 </metadata>
 <defs>
  <style type="text/css">*{stroke-linejoin: round; stroke-linecap: butt}</style>
 </defs>
 <g id="figure_1">
  <g id="patch_1">
   <path d="M 0 129.6 
L 540 129.6 
L 540 0 
L 0 0 
z
" style="fill: #ffffff"/>
  </g>
  <g id="axes_1">
   <g id="patch_2">
    <path d="M 35.12 97 
L 540 97 
L 540 3.96 
L 35.12 3.96 
z
" style="fill: #ffffff"/>
   </g>
   <g id="matplotlib.axis_1">
    <g id="xtick_1">
     <g id="line2d_1">
      <path d="M 35.12 97 
L 35.12 3.96 
" clip-path="url(#pfed37bce35)" style="fill: none; stroke: #b0b0b0; stroke-width: 0.8; stroke-linecap: square"/>
     </g>
     <g id="line2d_2">
      <defs>
       <path id="m2c5f112445" d="M 0 0 
L 0 3.5 
" style="stroke: #000000; stroke-width: 0.8"/>
      </defs>
      <g>
       <use xlink:href="#m2c5f112445" x="35.12" y="97" style="stroke: #000000; stroke-width: 0.8"/>
      </g>
     </g>
     <g id="text_1">
      <text style="font: 10px 'Times New Roman'; text-anchor: middle" x="35.12" y="110.94375" transform="rotate(-0 35.12 110.94375)">0</text>
     </g>
    </g>
    <g id="xtick_2">
     <g id="line2d_3">
      <path d="M 95.3754 97 
L 95.3754 3.96 
" clip-path="url(#pfed37bce35)" style="fill: none; stroke: #b0b0b0; stroke-width: 0.8; stroke-linecap: square"/>
     </g>
     <g id="line2d_4">
      <g>
       <use xlink:href="#m2c5f112445" x="95.3754" y="97" style="stroke: #000000; stroke-width: 0.8"/>
      </g>
     </g>
     <g id="text_2">
      <text style="font: 10px 'Times New Roman'; text-anchor: middle" x="95.3754" y="110.94375" transform="rotate(-0 95.3754 110.94375)">50</text>
     </g>
    </g>
    <g id="xtick_3">
     <g id="line2d_5">
      <path d="M 155.630801 97 
L 155.630801 3.96 
" clip-path="url(#pfed37bce35)" style="fill: none; stroke: #b0b0b0; stroke-width: 0.8; stroke-linecap: square"/>
     </g>
     <g id="line2d_6">
      <g>
       <use xlink:href="#m2c5f112445" x="155.630801" y="97" style="stroke: #000000; stroke-width: 0.8"/>
      </g>
     </g>
     <g id="text_3">
      <text style="font: 10px 'Times New Roman'; text-anchor: middle" x="155.630801" y="110.94375" transform="rotate(-0 155.630801 110.94375)">100</text>
     </g>
    </g>
    <g id="xtick_4">
     <g id="line2d_7">
      <path d="M 215.886201 97 
L 215.886201 3.96 
" clip-path="url(#pfed37bce35)" style="fill: none; stroke: #b0b0b0; stroke-width: 0.8; stroke-linecap: square"/>
     </g>
     <g id="line2d_8">
      <g>
       <use xlink:href="#m2c5f112445" x="215.886201" y="97" style="stroke: #000000; stroke-width: 0.8"/>
      </g>
     </g>
     <g id="text_4">
      <text style="font: 10px 'Times New Roman'; text-anchor: middle" x="215.886201" y="110.94375" transform="rotate(-0 215.886201 110.94375)">150</text>
     </g>
    </g>
    <g id="xtick_5">
     <g id="line2d_9">
      <path d="M 276.141602 97 
L 276.141602 3.96 
" clip-path="url(#pfed37bce35)" style="fill: none; stroke: #b0b0b0; stroke-width: 0.8; stroke-linecap: square"/>
     </g>
     <g id="line2d_10">
      <g>
       <use xlink:href="#m2c5f112445" x="276.141602" y="97" style="stroke: #000000; stroke-width: 0.8"/>
      </g>
     </g>
     <g id="text_5">
      <text style="font: 10px 'Times New Roman'; text-anchor: middle" x="276.141602" y="110.94375" transform="rotate(-0 276.141602 110.94375)">200</text>
     </g>
    </g>
    <g id="xtick_6">
     <g id="line2d_11">
      <path d="M 336.397002 97 
L 336.397002 3.96 
" clip-path="url(#pfed37bce35)" style="fill: none; stroke: #b0b0b0; stroke-width: 0.8; stroke-linecap: square"/>
     </g>
     <g id="line2d_12">
      <g>
       <use xlink:href="#m2c5f112445" x="336.397002" y="97" style="stroke: #000000; stroke-width: 0.8"/>
      </g>
     </g>
     <g id="text_6">
      <text style="font: 10px 'Times New Roman'; text-anchor: middle" x="336.397002" y="110.94375" transform="rotate(-0 336.397002 110.94375)">250</text>
     </g>
    </g>
    <g id="xtick_7">
     <g id="line2d_13">
      <path d="M 396.652402 97 
L 396.652402 3.96 
" clip-path="url(#pfed37bce35)" style="fill: none; stroke: #b0b0b0; stroke-width: 0.8; stroke-linecap: square"/>
     </g>
     <g id="line2d_14">
      <g>
       <use xlink:href="#m2c5f112445" x="396.652402" y="97" style="stroke: #000000; stroke-width: 0.8"/>
      </g>
     </g>
     <g id="text_7">
      <text style="font: 10px 'Times New Roman'; text-anchor: middle" x="396.652402" y="110.94375" transform="rotate(-0 396.652402 110.94375)">300</text>
     </g>
    </g>
    <g id="xtick_8">
     <g id="line2d_15">
      <path d="M 456.907803 97 
L 456.907803 3.96 
" clip-path="url(#pfed37bce35)" style="fill: none; stroke: #b0b0b0; stroke-width: 0.8; stroke-linecap: square"/>
     </g>
     <g id="line2d_16">
      <g>
       <use xlink:href="#m2c5f112445" x="456.907803" y="97" style="stroke: #000000; stroke-width: 0.8"/>
      </g>
     </g>
     <g id="text_8">
      <text style="font: 10px 'Times New Roman'; text-anchor: middle" x="456.907803" y="110.94375" transform="rotate(-0 456.907803 110.94375)">350</text>
     </g>
    </g>
    <g id="xtick_9">
     <g id="line2d_17">
      <path d="M 517.163203 97 
L 517.163203 3.96 
" clip-path="url(#pfed37bce35)" style="fill: none; stroke: #b0b0b0; stroke-width: 0.8; stroke-linecap: square"/>
     </g>
     <g id="line2d_18">
      <g>
       <use xlink:href="#m2c5f112445" x="517.163203" y="97" style="stroke: #000000; stroke-width: 0.8"/>
      </g>
     </g>
     <g id="text_9">
      <text style="font: 10px 'Times New Roman'; text-anchor: middle" x="517.163203" y="110.94375" transform="rotate(-0 517.163203 110.94375)">400</text>
     </g>
    </g>
    <g id="text_10">
     <text style="font: 12px 'Times New Roman'; text-anchor: middle" x="287.56" y="125.415312" transform="rotate(-0 287.56 125.415312)">Simulation Run</text>
    </g>
   </g>
   <g id="matplotlib.axis_2">
    <g id="ytick_1">
     <g id="line2d_19">
      <path d="M 35.12 97 
L 540 97 
" clip-path="url(#pfed37bce35)" style="fill: none; stroke: #b0b0b0; stroke-width: 0.8; stroke-linecap: square"/>
     </g>
     <g id="line2d_20">
      <defs>
       <path id="m2aa2819ba2" d="M 0 0 
L -3.5 0 
" style="stroke: #000000; stroke-width: 0.8"/>
      </defs>
      <g>
       <use xlink:href="#m2aa2819ba2" x="35.12" y="97" style="stroke: #000000; stroke-width: 0.8"/>
      </g>
     </g>
     <g id="text_11">
      <text style="font: 10px 'Times New Roman'; text-anchor: end" x="28.12" y="100.471875" transform="rotate(-0 28.12 100.471875)">0.0</text>
     </g>
    </g>
    <g id="ytick_2">
     <g id="line2d_21">
      <path d="M 35.12 73.74 
L 540 73.74 
" clip-path="url(#pfed37bce35)" style="fill: none; stroke: #b0b0b0; stroke-width: 0.8; stroke-linecap: square"/>
     </g>
     <g id="line2d_22">
      <g>
       <use xlink:href="#m2aa2819ba2" x="35.12" y="73.74" style="stroke: #000000; stroke-width: 0.8"/>
      </g>
     </g>
     <g id="text_12">
      <text style="font: 10px 'Times New Roman'; text-anchor: end" x="28.12" y="77.211875" transform="rotate(-0 28.12 77.211875)">0.5</text>
     </g>
    </g>
    <g id="ytick_3">
     <g id="line2d_23">
      <path d="M 35.12 50.48 
L 540 50.48 
" clip-path="url(#pfed37bce35)" style="fill: none; stroke: #b0b0b0; stroke-width: 0.8; stroke-linecap: square"/>
     </g>
     <g id="line2d_24">
      <g>
       <use xlink:href="#m2aa2819ba2" x="35.12" y="50.48" style="stroke: #000000; stroke-width: 0.8"/>
      </g>
     </g>
     <g id="text_13">
      <text style="font: 10px 'Times New Roman'; text-anchor: end" x="28.12" y="53.951875" transform="rotate(-0 28.12 53.951875)">1.0</text>
     </g>
    </g>
    <g id="ytick_4">
     <g id="line2d_25">
      <path d="M 35.12 27.22 
L 540 27.22 
" clip-path="url(#pfed37bce35)" style="fill: none; stroke: #b0b0b0; stroke-width: 0.8; stroke-linecap: square"/>
     </g>
     <g id="line2d_26">
      <g>
       <use xlink:href="#m2aa2819ba2" x="35.12" y="27.22" style="stroke: #000000; stroke-width: 0.8"/>
      </g>
     </g>
     <g id="text_14">
      <text style="font: 10px 'Times New Roman'; text-anchor: end" x="28.12" y="30.691875" transform="rotate(-0 28.12 30.691875)">1.5</text>
     </g>
    </g>
    <g id="ytick_5">
     <g id="line2d_27">
      <path d="M 35.12 3.96 
L 540 3.96 
" clip-path="url(#pfed37bce35)" style="fill: none; stroke: #b0b0b0; stroke-width: 0.8; stroke-linecap: square"/>
     </g>
     <g id="line2d_28">
      <g>
       <use xlink:href="#m2aa2819ba2" x="35.12" y="3.96" style="stroke: #000000; stroke-width: 0.8"/>
      </g>
     </g>
     <g id="text_15">
      <text style="font: 10px 'Times New Roman'; text-anchor: end" x="28.12" y="7.431875" transform="rotate(-0 28.12 7.431875)">2.0</text>
     </g>
    </g>
    <g id="text_16">
     <text style="font: 12px 'Times New Roman'; text-anchor: middle" x="9.053125" y="50.48" transform="rotate(-90 9.053125 50.48)">Normalized Value</text>
    </g>
   </g>
   <g id="line2d_29">
    <path d="M 35.12 22.252343 
L 36.325108 43.075198 
L 37.530216 43.933323 
L 38.735324 49.501589 
L 39.940432 50.926389 
L 41.14554 47.903926 
L 42.350648 47.362052 
L 43.555756 47.98313 
L 44.760864 49.065136 
L 45.965972 51.157936 
L 47.17108 52.246006 
L 48.376188 51.446061 
L 49.581296 50.796408 
L 50.786404 50.923802 
L 51.991512 50.748812 
L 53.19662 49.878582 
L 55.606836 50.241444 
L 56.811944 50.135692 
L 58.017052 50.216158 
L 59.22216 50.745173 
L 60.427268 50.21378 
L 61.632376 50.865156 
L 62.837484 50.547821 
L 64.042592 50.691413 
L 65.2477 50.365326 
L 66.452808 50.571621 
L 67.657916 51.381281 
L 68.863024 51.21612 
L 70.068132 51.433503 
L 71.27324 51.266324 
L 72.478348 50.739709 
L 73.683456 50.605969 
L 74.888564 50.780244 
L 76.093672 50.763191 
L 77.29878 51.05877 
L 78.503888 51.009525 
L 79.708996 51.328633 
L 80.914104 50.927795 
L 82.119212 50.13797 
L 83.32432 49.562003 
L 84.529428 49.868962 
L 85.734536 49.248831 
L 86.939644 49.404367 
L 88.144752 49.393491 
L 89.34986 49.742562 
L 94.170292 50.07007 
L 95.3754 49.716019 
L 97.785616 50.034359 
L 98.990724 50.365538 
L 100.195832 50.044408 
L 102.606048 50.750134 
L 103.811156 50.508324 
L 105.016264 50.625062 
L 106.221372 50.227776 
L 111.041805 50.838706 
L 113.452021 50.812517 
L 114.657129 50.70228 
L 115.862237 50.976878 
L 117.067345 50.704696 
L 118.272453 50.66288 
L 120.682669 50.288849 
L 121.887777 50.258029 
L 123.092885 50.530535 
L 124.297993 50.16491 
L 126.708209 50.378193 
L 129.118425 50.344146 
L 131.528641 49.618792 
L 132.733749 49.544126 
L 133.938857 49.627165 
L 135.143965 49.868443 
L 136.349073 49.790556 
L 137.554181 50.113256 
L 141.169505 50.13354 
L 142.374613 49.663852 
L 144.784829 49.920436 
L 156.835909 49.832677 
L 158.041017 49.929405 
L 159.246125 49.824708 
L 160.451233 49.487734 
L 164.066557 49.840526 
L 165.271665 49.704692 
L 168.886989 49.954135 
L 171.297205 50.128224 
L 172.502313 49.90142 
L 176.117637 50.003954 
L 178.527853 50.278679 
L 179.732961 50.109334 
L 180.938069 50.131859 
L 182.143177 50.390771 
L 183.348285 50.127884 
L 185.758501 50.386695 
L 186.963609 50.356211 
L 190.578933 49.846063 
L 191.784041 50.018179 
L 192.989149 50.045521 
L 194.194257 50.190308 
L 196.604473 50.084219 
L 197.809581 50.186416 
L 199.014689 49.98874 
L 203.835121 49.988951 
L 206.245337 49.590713 
L 207.450445 49.546642 
L 208.655553 49.675266 
L 209.860661 49.57431 
L 213.475985 49.567003 
L 217.091309 49.503168 
L 218.296417 49.581649 
L 219.501525 49.408687 
L 225.527065 49.829441 
L 229.142389 49.939612 
L 233.962821 49.695918 
L 238.783253 50.069509 
L 239.988361 50.230542 
L 242.398577 50.235614 
L 244.808793 50.174307 
L 246.013901 49.788778 
L 250.834333 49.906192 
L 252.039441 49.611422 
L 254.449657 49.73017 
L 255.654765 49.549661 
L 259.27009 49.525981 
L 260.475198 49.70002 
L 262.885414 49.649674 
L 273.731386 49.829425 
L 277.34671 49.648674 
L 279.756926 49.683853 
L 283.37225 49.771882 
L 288.192682 49.729312 
L 289.39779 49.756506 
L 291.808006 49.679579 
L 294.218222 49.769146 
L 297.833546 49.746203 
L 302.653978 49.494013 
L 303.859086 49.44849 
L 305.064194 49.557308 
L 306.269302 49.442133 
L 315.910166 49.882575 
L 318.320382 49.988326 
L 320.730598 49.721386 
L 329.166354 49.873008 
L 331.57657 49.971007 
L 335.191894 49.91916 
L 338.807218 50.032536 
L 342.422542 49.943653 
L 344.832758 49.966149 
L 349.65319 49.998012 
L 352.063406 49.956986 
L 356.883838 50.013639 
L 362.909378 50.017333 
L 364.114486 49.94009 
L 371.345134 50.137705 
L 377.370674 50.047136 
L 380.985998 50.209289 
L 384.601322 50.192004 
L 387.011538 50.353511 
L 390.626862 50.309836 
L 393.037078 50.166307 
L 400.267726 50.281733 
L 402.677942 50.069413 
L 415.934131 50.076715 
L 419.549455 49.925749 
L 426.780103 50.215006 
L 429.190319 50.186811 
L 435.215859 50.270094 
L 436.420967 50.129533 
L 440.036291 50.200334 
L 441.241399 50.113114 
L 446.061831 50.205701 
L 461.728235 50.379949 
L 465.343559 50.332877 
L 471.369099 50.354071 
L 473.779315 50.349904 
L 482.215071 50.598486 
L 496.676367 50.602752 
L 499.086583 50.473154 
L 515.958095 50.48 
L 515.958095 50.48 
" clip-path="url(#pfed37bce35)" style="fill: none; stroke: #4169e1; stroke-width: 1.5; stroke-linecap: square"/>
   </g>
   <g id="line2d_30">
    <path d="M 35.12 97 
L 36.325108 10.946964 
L 37.530216 39.339017 
L 38.735324 35.29362 
L 39.940432 46.023311 
L 41.14554 45.454224 
L 42.350648 52.468256 
L 43.555756 57.498834 
L 44.760864 60.029041 
L 45.965972 55.902949 
L 47.17108 57.289417 
L 49.581296 61.104043 
L 50.786404 63.626168 
L 51.991512 65.766007 
L 53.19662 65.463657 
L 55.606836 68.749786 
L 58.017052 71.512438 
L 59.22216 71.615294 
L 60.427268 71.592255 
L 61.632376 70.844384 
L 62.837484 71.474527 
L 64.042592 72.397335 
L 65.2477 72.816005 
L 66.452808 73.492106 
L 67.657916 70.818866 
L 68.863024 71.570078 
L 71.27324 72.781105 
L 72.478348 71.831734 
L 73.683456 72.480814 
L 74.888564 73.003051 
L 76.093672 73.686716 
L 77.29878 73.727431 
L 78.503888 74.339093 
L 79.708996 74.187672 
L 80.914104 73.560871 
L 82.119212 69.318349 
L 83.32432 67.359967 
L 84.529428 67.298975 
L 85.734536 64.784149 
L 86.939644 65.309876 
L 88.144752 66.013068 
L 89.34986 65.598455 
L 91.760076 66.703426 
L 92.965184 67.001474 
L 94.170292 67.559638 
L 95.3754 66.892996 
L 96.580508 67.266806 
L 97.785616 67.508253 
L 100.195832 66.342777 
L 101.40094 65.819975 
L 102.606048 64.653929 
L 103.811156 64.55015 
L 105.016264 64.943278 
L 106.221372 63.629384 
L 109.836697 64.30292 
L 111.041805 64.599165 
L 113.452021 65.517906 
L 114.657129 65.828608 
L 117.067345 64.744189 
L 118.272453 65.181041 
L 119.477561 65.011668 
L 120.682669 65.08065 
L 121.887777 65.504328 
L 123.092885 64.854075 
L 124.297993 63.319379 
L 125.503101 63.406313 
L 129.118425 64.570495 
L 130.323533 63.23649 
L 131.528641 61.210063 
L 133.938857 61.871713 
L 135.143965 61.330944 
L 136.349073 61.649446 
L 137.554181 60.303784 
L 141.169505 61.523204 
L 142.374613 58.020724 
L 143.579721 58.087055 
L 144.784829 58.274401 
L 147.195045 59.004739 
L 148.400153 59.398262 
L 149.605261 59.178987 
L 150.810369 59.377538 
L 156.835909 61.023247 
L 159.246125 61.303454 
L 160.451233 59.299668 
L 161.656341 59.343334 
L 162.861449 58.976905 
L 164.066557 59.28473 
L 165.271665 59.235259 
L 166.476773 59.30767 
L 168.886989 59.760077 
L 170.092097 60.009991 
L 171.297205 60.041825 
L 172.502313 59.199361 
L 173.707421 59.507776 
L 174.912529 59.683617 
L 176.117637 59.999414 
L 177.322745 59.974233 
L 178.527853 59.715925 
L 179.732961 59.341076 
L 180.938069 59.637571 
L 183.348285 56.943118 
L 185.758501 56.75265 
L 186.963609 57.046319 
L 188.168717 56.341554 
L 189.373825 56.412273 
L 190.578933 55.582612 
L 191.784041 55.134462 
L 192.989149 55.432189 
L 194.194257 55.195547 
L 196.604473 55.6644 
L 197.809581 55.688506 
L 199.014689 54.935337 
L 200.219797 55.228211 
L 202.630013 55.674145 
L 203.835121 55.870573 
L 205.040229 54.547625 
L 206.245337 54.139319 
L 207.450445 54.38184 
L 208.655553 54.202935 
L 209.860661 54.202762 
L 215.886201 55.526152 
L 217.091309 55.741808 
L 218.296417 55.825663 
L 219.501525 55.184624 
L 220.706633 55.113079 
L 221.911741 55.347151 
L 224.321957 55.277021 
L 225.527065 55.311443 
L 226.732173 55.516779 
L 227.937281 55.497085 
L 229.142389 55.733116 
L 230.347497 55.758789 
L 231.552605 55.246069 
L 233.962821 55.748452 
L 236.373037 55.889845 
L 237.578145 55.768451 
L 238.783253 55.499896 
L 239.988361 54.867666 
L 244.808793 55.5371 
L 246.013901 50.610434 
L 248.424117 51.083808 
L 249.629225 51.092477 
L 250.834333 51.335341 
L 252.039441 48.483613 
L 254.449657 48.760439 
L 255.654765 47.839202 
L 259.27009 48.523857 
L 260.475198 47.657559 
L 262.885414 48.096658 
L 264.090522 48.316186 
L 265.29563 48.366373 
L 266.500738 48.299644 
L 267.705846 48.352363 
L 272.526278 49.184523 
L 273.731386 49.413212 
L 274.936494 49.379149 
L 279.756926 49.992519 
L 283.37225 50.549325 
L 289.39779 51.387283 
L 290.602898 51.247301 
L 291.808006 51.45182 
L 293.013114 51.291515 
L 295.42333 51.705747 
L 296.628438 51.529008 
L 297.833546 51.58411 
L 299.038654 51.486544 
L 300.243762 51.5307 
L 301.44887 51.714875 
L 302.653978 51.59214 
L 303.859086 51.703139 
L 306.269302 50.987558 
L 308.679518 51.298226 
L 309.884626 50.759782 
L 311.089734 50.954957 
L 313.49995 51.003833 
L 318.320382 51.127696 
L 319.52549 50.357069 
L 320.730598 49.836053 
L 324.345922 50.404314 
L 325.55103 50.241604 
L 327.961246 50.570892 
L 330.371462 50.364539 
L 333.986786 50.844088 
L 338.807218 51.155834 
L 341.217434 51.42339 
L 348.448082 51.818918 
L 349.65319 51.677877 
L 350.858298 51.693239 
L 353.268514 51.947661 
L 354.473622 51.947365 
L 356.883838 52.196729 
L 358.088946 52.340348 
L 359.294054 52.254862 
L 360.499162 52.307034 
L 361.70427 52.470648 
L 362.909378 51.647906 
L 364.114486 51.490154 
L 367.72981 51.763448 
L 370.140026 51.992285 
L 372.550242 52.056327 
L 373.75535 52.201226 
L 374.960458 51.719101 
L 377.370674 51.955779 
L 378.575782 51.830835 
L 383.396214 52.188525 
L 384.601322 52.337418 
L 385.80643 51.987226 
L 387.011538 51.871551 
L 388.216646 52.023647 
L 389.421754 51.735937 
L 390.626862 51.753453 
L 391.83197 50.964949 
L 395.447294 51.338986 
L 396.652402 51.271437 
L 400.267726 51.625671 
L 401.472834 50.491593 
L 402.677942 50.375866 
L 405.088158 50.605483 
L 406.293266 50.571925 
L 413.523915 51.198081 
L 414.729023 51.084943 
L 417.139239 51.110684 
L 418.344347 50.654351 
L 419.549455 50.799181 
L 420.754563 50.781356 
L 421.959671 50.475325 
L 423.164779 50.456209 
L 424.369887 50.598063 
L 425.574995 50.360311 
L 426.780103 50.472067 
L 427.985211 50.439315 
L 434.010751 50.918152 
L 435.215859 50.86634 
L 436.420967 49.698725 
L 437.626075 49.624415 
L 440.036291 49.898711 
L 441.241399 49.529264 
L 442.446507 49.503221 
L 452.087371 50.374586 
L 453.292479 50.397047 
L 454.497587 50.276027 
L 455.702695 50.391301 
L 456.907803 50.241517 
L 459.318019 50.439069 
L 460.523127 50.460061 
L 461.728235 49.696046 
L 464.138451 49.860465 
L 468.958883 50.275954 
L 470.163991 50.265313 
L 473.779315 50.560271 
L 474.984423 50.506695 
L 476.189531 50.22125 
L 481.009963 50.453367 
L 482.215071 50.456379 
L 483.420179 50.577616 
L 485.830395 50.700369 
L 487.035503 50.823504 
L 488.240611 50.486234 
L 489.445719 50.560727 
L 490.650827 50.450465 
L 491.855935 50.213815 
L 494.266151 50.319758 
L 496.676367 50.524145 
L 497.881475 49.821759 
L 501.496799 50.129268 
L 506.317231 50.432581 
L 507.522339 50.216771 
L 508.727447 50.187706 
L 509.932555 50.294409 
L 511.137663 50.227401 
L 515.958095 50.48 
L 515.958095 50.48 
" clip-path="url(#pfed37bce35)" style="fill: none; stroke-dasharray: 5.55,2.4; stroke-dashoffset: 0; stroke: #4169e1; stroke-width: 1.5"/>
   </g>
   <g id="line2d_31">
    <path d="M 35.12 26.48762 
L 36.325108 43.486799 
L 37.530216 43.728112 
L 38.735324 48.968036 
L 39.940432 50.54566 
L 41.14554 48.181721 
L 42.350648 47.657975 
L 43.555756 48.120814 
L 44.760864 49.252847 
L 45.965972 50.878567 
L 47.17108 51.507822 
L 49.581296 50.581816 
L 50.786404 50.554747 
L 51.991512 50.235097 
L 53.19662 49.527653 
L 54.401728 49.877853 
L 56.811944 50.304254 
L 58.017052 50.377896 
L 59.22216 50.897457 
L 60.427268 50.299184 
L 61.632376 50.822205 
L 62.837484 50.738926 
L 64.042592 50.900623 
L 65.2477 50.487922 
L 66.452808 50.651614 
L 67.657916 51.37439 
L 68.863024 51.192283 
L 70.068132 51.357565 
L 71.27324 51.228085 
L 72.478348 50.713332 
L 74.888564 50.761865 
L 76.093672 50.728779 
L 77.29878 50.983471 
L 78.503888 50.981675 
L 79.708996 51.337333 
L 80.914104 50.93928 
L 83.32432 49.901578 
L 84.529428 50.180188 
L 85.734536 49.65403 
L 88.144752 49.732259 
L 89.34986 49.996192 
L 90.554968 49.988041 
L 94.170292 50.224478 
L 95.3754 50.08046 
L 98.990724 50.523263 
L 100.195832 50.247237 
L 101.40094 50.450448 
L 102.606048 50.80096 
L 103.811156 50.681194 
L 105.016264 50.780218 
L 106.221372 50.364723 
L 111.041805 50.958358 
L 114.657129 50.956504 
L 115.862237 51.202168 
L 118.272453 50.941936 
L 120.682669 50.643133 
L 121.887777 50.631629 
L 123.092885 50.848877 
L 124.297993 50.671404 
L 126.708209 50.828552 
L 129.118425 50.765361 
L 131.528641 50.146962 
L 132.733749 50.039413 
L 133.938857 50.116676 
L 135.143965 50.330399 
L 136.349073 50.201895 
L 137.554181 50.493819 
L 141.169505 50.553899 
L 142.374613 50.144855 
L 144.784829 50.413461 
L 147.195045 50.380247 
L 148.400153 50.388088 
L 149.605261 50.169285 
L 150.810369 50.284433 
L 159.246125 50.273683 
L 160.451233 49.960812 
L 164.066557 50.171186 
L 165.271665 50.053805 
L 167.681881 50.210096 
L 171.297205 50.434982 
L 172.502313 50.287475 
L 176.117637 50.277025 
L 178.527853 50.512039 
L 179.732961 50.338945 
L 180.938069 50.376187 
L 182.143177 50.623673 
L 183.348285 50.364429 
L 185.758501 50.555442 
L 186.963609 50.521022 
L 190.578933 50.036242 
L 192.989149 50.245328 
L 194.194257 50.374936 
L 196.604473 50.273416 
L 197.809581 50.377352 
L 199.014689 50.2315 
L 203.835121 50.180965 
L 206.245337 49.807677 
L 207.450445 49.784274 
L 208.655553 49.89863 
L 209.860661 49.799944 
L 213.475985 49.771257 
L 214.681093 49.738383 
L 215.886201 49.8302 
L 220.706633 49.799849 
L 224.321957 49.990931 
L 227.937281 50.134571 
L 233.962821 49.916048 
L 243.603685 50.312071 
L 244.808793 50.257059 
L 246.013901 49.985661 
L 250.834333 50.052882 
L 252.039441 49.857033 
L 254.449657 49.963111 
L 255.654765 49.805607 
L 266.500738 49.966354 
L 270.116062 50.13318 
L 277.34671 49.96342 
L 279.756926 49.954275 
L 283.37225 49.992665 
L 288.192682 49.902264 
L 301.44887 49.742168 
L 303.859086 49.610385 
L 305.064194 49.713717 
L 306.269302 49.602001 
L 313.49995 49.836883 
L 318.320382 50.05491 
L 323.140814 49.894813 
L 327.961246 49.96161 
L 332.781678 50.102753 
L 341.217434 50.142627 
L 344.832758 50.080018 
L 349.65319 50.126976 
L 352.063406 50.06271 
L 361.70427 50.269323 
L 364.114486 50.07938 
L 372.550242 50.19673 
L 374.960458 50.134243 
L 377.370674 50.152181 
L 380.985998 50.294338 
L 385.80643 50.332813 
L 388.216646 50.404459 
L 389.421754 50.33377 
L 390.626862 50.375283 
L 393.037078 50.250236 
L 400.267726 50.334084 
L 402.677942 50.149519 
L 417.139239 50.125867 
L 419.549455 50.027299 
L 431.600535 50.304798 
L 435.215859 50.323097 
L 436.420967 50.205613 
L 440.036291 50.255621 
L 441.241399 50.186537 
L 446.061831 50.282588 
L 460.523127 50.524596 
L 462.933343 50.405883 
L 478.599747 50.531381 
L 482.215071 50.594919 
L 515.958095 50.48 
L 515.958095 50.48 
" clip-path="url(#pfed37bce35)" style="fill: none; stroke: #ff8c00; stroke-width: 1.5; stroke-linecap: square"/>
   </g>
   <g id="line2d_32">
    <path d="M 35.12 97 
L 36.325108 18.565825 
L 37.530216 44.678939 
L 38.735324 35.401836 
L 39.940432 45.019274 
L 41.14554 46.098841 
L 42.350648 52.923709 
L 43.555756 58.026234 
L 44.760864 59.574006 
L 45.965972 56.860308 
L 48.376188 61.951573 
L 49.581296 63.919812 
L 50.786404 66.280097 
L 51.991512 67.939825 
L 53.19662 67.718463 
L 55.606836 70.225513 
L 58.017052 72.695403 
L 59.22216 72.387373 
L 60.427268 71.465953 
L 61.632376 70.942665 
L 62.837484 71.985092 
L 64.042592 72.815369 
L 65.2477 72.589807 
L 66.452808 73.304795 
L 67.657916 70.322626 
L 71.27324 72.323924 
L 72.478348 70.865537 
L 76.093672 73.080429 
L 77.29878 73.128623 
L 78.503888 73.773764 
L 79.708996 73.114658 
L 80.914104 72.09287 
L 82.119212 69.512963 
L 83.32432 67.601418 
L 84.529428 67.437557 
L 85.734536 64.969101 
L 88.144752 66.352166 
L 89.34986 66.167582 
L 90.554968 66.822762 
L 91.760076 67.291302 
L 92.965184 67.519751 
L 94.170292 68.081325 
L 96.580508 68.741943 
L 97.785616 69.18264 
L 98.990724 68.804151 
L 100.195832 68.200083 
L 101.40094 68.0979 
L 102.606048 66.737529 
L 105.016264 67.390851 
L 106.221372 65.119734 
L 107.42648 65.320022 
L 108.631588 65.175883 
L 109.836697 65.250936 
L 111.041805 65.59539 
L 114.657129 66.972742 
L 115.862237 66.31681 
L 117.067345 66.173891 
L 118.272453 66.488935 
L 120.682669 66.48828 
L 121.887777 66.903662 
L 123.092885 66.375215 
L 124.297993 66.150923 
L 125.503101 66.252946 
L 127.913317 67.007335 
L 129.118425 67.237408 
L 130.323533 65.437177 
L 131.528641 63.871117 
L 132.733749 64.020829 
L 133.938857 64.285305 
L 135.143965 63.645737 
L 136.349073 63.661647 
L 137.554181 62.083195 
L 141.169505 63.199913 
L 142.374613 59.533634 
L 143.579721 59.427501 
L 144.784829 59.462176 
L 147.195045 60.093837 
L 148.400153 60.480755 
L 149.605261 59.626696 
L 150.810369 59.6665 
L 153.220585 60.390873 
L 156.835909 61.089619 
L 158.041017 61.064854 
L 159.246125 61.305873 
L 160.451233 58.882608 
L 161.656341 59.069422 
L 162.861449 58.913443 
L 164.066557 59.266082 
L 166.476773 59.049122 
L 168.886989 59.59665 
L 170.092097 59.787247 
L 171.297205 59.828504 
L 172.502313 59.478472 
L 176.117637 60.261878 
L 177.322745 60.337532 
L 178.527853 59.919129 
L 179.732961 59.249706 
L 180.938069 59.513585 
L 182.143177 57.790142 
L 183.348285 55.862603 
L 184.553393 55.735944 
L 185.758501 55.874388 
L 186.963609 56.157693 
L 188.168717 55.401451 
L 190.578933 54.39035 
L 191.784041 53.862379 
L 192.989149 54.087089 
L 194.194257 53.807888 
L 196.604473 54.254154 
L 197.809581 54.172619 
L 199.014689 53.699965 
L 200.219797 54.008016 
L 201.424905 53.936088 
L 202.630013 54.236047 
L 203.835121 54.314159 
L 205.040229 53.191267 
L 206.245337 52.242917 
L 207.450445 52.532473 
L 208.655553 52.328022 
L 209.860661 52.250704 
L 214.681093 53.351005 
L 215.886201 53.296834 
L 217.091309 53.539513 
L 218.296417 53.589608 
L 219.501525 52.904882 
L 220.706633 52.921947 
L 221.911741 53.17409 
L 224.321957 53.158036 
L 225.527065 53.251339 
L 227.937281 53.650015 
L 230.347497 53.97362 
L 231.552605 53.39405 
L 233.962821 53.912032 
L 237.578145 54.181096 
L 238.783253 54.038032 
L 239.988361 53.307707 
L 244.808793 54.052667 
L 246.013901 50.798033 
L 248.424117 51.300322 
L 249.629225 51.350488 
L 250.834333 51.580065 
L 252.039441 49.957019 
L 253.244549 50.158707 
L 254.449657 50.158024 
L 255.654765 49.180396 
L 256.859873 49.432219 
L 258.064982 49.515843 
L 259.27009 49.760054 
L 260.475198 48.59092 
L 265.29563 49.332669 
L 266.500738 49.001996 
L 268.910954 49.087558 
L 271.32117 49.472033 
L 273.731386 49.927962 
L 277.34671 50.271808 
L 282.167142 51.01258 
L 285.782466 51.552347 
L 286.987574 51.590264 
L 289.39779 52.00059 
L 290.602898 51.866537 
L 291.808006 52.0335 
L 293.013114 51.829874 
L 295.42333 52.206103 
L 296.628438 51.984969 
L 297.833546 52.061437 
L 299.038654 51.793229 
L 300.243762 51.74191 
L 301.44887 51.923909 
L 303.859086 51.803147 
L 306.269302 50.794618 
L 308.679518 51.166926 
L 309.884626 50.764242 
L 311.089734 50.963816 
L 314.705058 51.047015 
L 315.910166 51.107356 
L 317.115274 50.994933 
L 319.52549 51.038938 
L 320.730598 50.651713 
L 324.345922 51.2133 
L 325.55103 51.059577 
L 327.961246 51.372771 
L 329.166354 51.332525 
L 330.371462 51.05247 
L 335.191894 51.627531 
L 336.397002 51.634606 
L 342.422542 52.194517 
L 344.832758 52.155823 
L 346.037866 52.281743 
L 347.242974 52.207365 
L 348.448082 52.345377 
L 350.858298 52.18994 
L 353.268514 52.428127 
L 354.473622 52.443317 
L 358.088946 52.856391 
L 359.294054 52.706214 
L 360.499162 52.720277 
L 361.70427 52.880387 
L 362.909378 52.108725 
L 364.114486 51.827397 
L 373.75535 52.6085 
L 374.960458 52.305676 
L 377.370674 52.53466 
L 378.575782 52.339296 
L 380.985998 52.431983 
L 384.601322 52.803418 
L 387.011538 52.408124 
L 388.216646 52.551197 
L 389.421754 52.303119 
L 390.626862 52.316131 
L 391.83197 51.523381 
L 395.447294 51.922269 
L 396.652402 51.868777 
L 400.267726 52.183818 
L 401.472834 51.024193 
L 402.677942 50.888903 
L 405.088158 51.10419 
L 406.293266 50.965467 
L 408.703483 51.230207 
L 409.908591 51.24092 
L 413.523915 51.595736 
L 414.729023 51.465195 
L 417.139239 51.6416 
L 418.344347 51.06908 
L 419.549455 51.207652 
L 420.754563 51.224169 
L 421.959671 50.910459 
L 423.164779 50.867379 
L 424.369887 51.005135 
L 425.574995 50.613762 
L 426.780103 50.732591 
L 427.985211 50.64728 
L 434.010751 51.008588 
L 435.215859 50.865939 
L 436.420967 49.756538 
L 437.626075 49.720662 
L 440.036291 49.999684 
L 441.241399 49.702187 
L 442.446507 49.636683 
L 447.266939 49.951203 
L 453.292479 50.346244 
L 454.497587 50.260714 
L 455.702695 50.384754 
L 456.907803 50.229705 
L 459.318019 50.459927 
L 460.523127 50.467604 
L 461.728235 50.010347 
L 462.933343 49.984579 
L 468.958883 50.544131 
L 470.163991 50.384141 
L 473.779315 50.643391 
L 474.984423 50.55028 
L 476.189531 50.151476 
L 478.599747 50.3777 
L 479.804855 50.303961 
L 483.420179 50.528846 
L 485.830395 50.69579 
L 487.035503 50.817511 
L 488.240611 50.605329 
L 489.445719 50.695539 
L 490.650827 50.594536 
L 491.855935 50.243462 
L 496.676367 50.622247 
L 497.881475 50.167178 
L 499.086583 50.155155 
L 502.701907 50.403342 
L 506.317231 50.613932 
L 507.522339 50.299009 
L 508.727447 50.26485 
L 509.932555 50.364549 
L 511.137663 50.209601 
L 513.547879 50.388905 
L 515.958095 50.48 
L 515.958095 50.48 
" clip-path="url(#pfed37bce35)" style="fill: none; stroke-dasharray: 5.55,2.4; stroke-dashoffset: 0; stroke: #ff8c00; stroke-width: 1.5"/>
   </g>
   <g id="patch_3">
    <path d="M 35.12 97 
L 35.12 3.96 
" style="fill: none; stroke: #000000; stroke-width: 0.8; stroke-linejoin: miter; stroke-linecap: square"/>
   </g>
   <g id="patch_4">
    <path d="M 540 97 
L 540 3.96 
" style="fill: none; stroke: #000000; stroke-width: 0.8; stroke-linejoin: miter; stroke-linecap: square"/>
   </g>
   <g id="patch_5">
    <path d="M 35.12 97 
L 540 97 
" style="fill: none; stroke: #000000; stroke-width: 0.8; stroke-linejoin: miter; stroke-linecap: square"/>
   </g>
   <g id="patch_6">
    <path d="M 35.12 3.96 
L 540 3.96 
" style="fill: none; stroke: #000000; stroke-width: 0.8; stroke-linejoin: miter; stroke-linecap: square"/>
   </g>
  </g>
 </g>
 <defs>
  <clipPath id="pfed37bce35">
   <rect x="35.12" y="3.96" width="504.88" height="93.04"/>
  </clipPath>
 </defs>
</svg>
