<?xml version="1.0" encoding="utf-8" standalone="no"?>
<!DOCTYPE svg PUBLIC "-//W3C//DTD SVG 1.1//EN"
  "http://www.w3.org/Graphics/SVG/1.1/DTD/svg11.dtd">
<svg xmlns:xlink="http://www.w3.org/1999/xlink" width="540pt" height="129.6pt" viewBox="0 0 540 129.6" xmlns="http://www.w3.org/2000/svg" version="1.1">
 <metadata>
  <rdf:RDF xmlns:dc="http://purl.org/dc/elements/1.1/" xmlns:cc="http://creativecommons.org/ns#" xmlns:rdf="http://www.w3.org/1999/02/22-rdf-syntax-ns#">
   <cc:Work>
    <dc:type rdf:resource="http://purl.org/dc/dcmitype/StillImage"/>
    <dc:date>2025-04-06T00:58:15.220265</dc:date>
    <dc:format>image/svg+xml</dc:format>
    <dc:creator>
     <cc:Agent>
      <dc:title>Matplotlib v3.10.1, https://matplotlib.org/</dc:title>
     </cc:Agent>
    </dc:creator>
   </cc:Work>
  </rdf:RDF>
 </metadata>
 <defs>
  <style type="text/css">*{stroke-linejoin: round; stroke-linecap: butt}</style>
 </defs>
 <g id="figure_1">
  <g id="patch_1">
   <path d="M 0 129.6 
L 540 129.6 
L 540 0 
L 0 0 
z
" style="fill: #ffffff"/>
  </g>
  <g id="axes_1">
   <g id="patch_2">
    <path d="M 26.795 98.44 
L 540 98.44 
L 540 0 
L 26.795 0 
z
" style="fill: #ffffff"/>
   </g>
   <g id="matplotlib.axis_1">
    <g id="xtick_1">
     <g id="line2d_1">
      <path d="M 26.795 98.44 
L 26.795 0 
" clip-path="url(#pe48280a2bf)" style="fill: none; stroke: #b0b0b0; stroke-width: 0.8; stroke-linecap: square"/>
     </g>
     <g id="line2d_2">
      <defs>
       <path id="mb2649f7bde" d="M 0 0 
L 0 3.5 
" style="stroke: #000000; stroke-width: 0.8"/>
      </defs>
      <g>
       <use xlink:href="#mb2649f7bde" x="26.795" y="98.44" style="stroke: #000000; stroke-width: 0.8"/>
      </g>
     </g>
     <g id="text_1">
      <text style="font-size: 10px; font-family: 'Times New Roman'; text-anchor: middle" x="26.795" y="112.38375" transform="rotate(-0 26.795 112.38375)">0</text>
     </g>
    </g>
    <g id="xtick_2">
     <g id="line2d_3">
      <path d="M 88.043956 98.44 
L 88.043956 0 
" clip-path="url(#pe48280a2bf)" style="fill: none; stroke: #b0b0b0; stroke-width: 0.8; stroke-linecap: square"/>
     </g>
     <g id="line2d_4">
      <g>
       <use xlink:href="#mb2649f7bde" x="88.043956" y="98.44" style="stroke: #000000; stroke-width: 0.8"/>
      </g>
     </g>
     <g id="text_2">
      <text style="font-size: 10px; font-family: 'Times New Roman'; text-anchor: middle" x="88.043956" y="112.38375" transform="rotate(-0 88.043956 112.38375)">50</text>
     </g>
    </g>
    <g id="xtick_3">
     <g id="line2d_5">
      <path d="M 149.292911 98.44 
L 149.292911 0 
" clip-path="url(#pe48280a2bf)" style="fill: none; stroke: #b0b0b0; stroke-width: 0.8; stroke-linecap: square"/>
     </g>
     <g id="line2d_6">
      <g>
       <use xlink:href="#mb2649f7bde" x="149.292911" y="98.44" style="stroke: #000000; stroke-width: 0.8"/>
      </g>
     </g>
     <g id="text_3">
      <text style="font-size: 10px; font-family: 'Times New Roman'; text-anchor: middle" x="149.292911" y="112.38375" transform="rotate(-0 149.292911 112.38375)">100</text>
     </g>
    </g>
    <g id="xtick_4">
     <g id="line2d_7">
      <path d="M 210.541867 98.44 
L 210.541867 0 
" clip-path="url(#pe48280a2bf)" style="fill: none; stroke: #b0b0b0; stroke-width: 0.8; stroke-linecap: square"/>
     </g>
     <g id="line2d_8">
      <g>
       <use xlink:href="#mb2649f7bde" x="210.541867" y="98.44" style="stroke: #000000; stroke-width: 0.8"/>
      </g>
     </g>
     <g id="text_4">
      <text style="font-size: 10px; font-family: 'Times New Roman'; text-anchor: middle" x="210.541867" y="112.38375" transform="rotate(-0 210.541867 112.38375)">150</text>
     </g>
    </g>
    <g id="xtick_5">
     <g id="line2d_9">
      <path d="M 271.790823 98.44 
L 271.790823 0 
" clip-path="url(#pe48280a2bf)" style="fill: none; stroke: #b0b0b0; stroke-width: 0.8; stroke-linecap: square"/>
     </g>
     <g id="line2d_10">
      <g>
       <use xlink:href="#mb2649f7bde" x="271.790823" y="98.44" style="stroke: #000000; stroke-width: 0.8"/>
      </g>
     </g>
     <g id="text_5">
      <text style="font-size: 10px; font-family: 'Times New Roman'; text-anchor: middle" x="271.790823" y="112.38375" transform="rotate(-0 271.790823 112.38375)">200</text>
     </g>
    </g>
    <g id="xtick_6">
     <g id="line2d_11">
      <path d="M 333.039779 98.44 
L 333.039779 0 
" clip-path="url(#pe48280a2bf)" style="fill: none; stroke: #b0b0b0; stroke-width: 0.8; stroke-linecap: square"/>
     </g>
     <g id="line2d_12">
      <g>
       <use xlink:href="#mb2649f7bde" x="333.039779" y="98.44" style="stroke: #000000; stroke-width: 0.8"/>
      </g>
     </g>
     <g id="text_6">
      <text style="font-size: 10px; font-family: 'Times New Roman'; text-anchor: middle" x="333.039779" y="112.38375" transform="rotate(-0 333.039779 112.38375)">250</text>
     </g>
    </g>
    <g id="xtick_7">
     <g id="line2d_13">
      <path d="M 394.288734 98.44 
L 394.288734 0 
" clip-path="url(#pe48280a2bf)" style="fill: none; stroke: #b0b0b0; stroke-width: 0.8; stroke-linecap: square"/>
     </g>
     <g id="line2d_14">
      <g>
       <use xlink:href="#mb2649f7bde" x="394.288734" y="98.44" style="stroke: #000000; stroke-width: 0.8"/>
      </g>
     </g>
     <g id="text_7">
      <text style="font-size: 10px; font-family: 'Times New Roman'; text-anchor: middle" x="394.288734" y="112.38375" transform="rotate(-0 394.288734 112.38375)">300</text>
     </g>
    </g>
    <g id="xtick_8">
     <g id="line2d_15">
      <path d="M 455.53769 98.44 
L 455.53769 0 
" clip-path="url(#pe48280a2bf)" style="fill: none; stroke: #b0b0b0; stroke-width: 0.8; stroke-linecap: square"/>
     </g>
     <g id="line2d_16">
      <g>
       <use xlink:href="#mb2649f7bde" x="455.53769" y="98.44" style="stroke: #000000; stroke-width: 0.8"/>
      </g>
     </g>
     <g id="text_8">
      <text style="font-size: 10px; font-family: 'Times New Roman'; text-anchor: middle" x="455.53769" y="112.38375" transform="rotate(-0 455.53769 112.38375)">350</text>
     </g>
    </g>
    <g id="xtick_9">
     <g id="line2d_17">
      <path d="M 516.786646 98.44 
L 516.786646 0 
" clip-path="url(#pe48280a2bf)" style="fill: none; stroke: #b0b0b0; stroke-width: 0.8; stroke-linecap: square"/>
     </g>
     <g id="line2d_18">
      <g>
       <use xlink:href="#mb2649f7bde" x="516.786646" y="98.44" style="stroke: #000000; stroke-width: 0.8"/>
      </g>
     </g>
     <g id="text_9">
      <text style="font-size: 10px; font-family: 'Times New Roman'; text-anchor: middle" x="516.786646" y="112.38375" transform="rotate(-0 516.786646 112.38375)">400</text>
     </g>
    </g>
    <g id="text_10">
     <text style="font-size: 12px; font-family: 'Times New Roman'; text-anchor: middle" x="283.3975" y="126.855312" transform="rotate(-0 283.3975 126.855312)">Simulation Run</text>
    </g>
   </g>
   <g id="matplotlib.axis_2">
    <g id="ytick_1">
     <g id="line2d_19">
      <path d="M 26.795 98.44 
L 540 98.44 
" clip-path="url(#pe48280a2bf)" style="fill: none; stroke: #b0b0b0; stroke-width: 0.8; stroke-linecap: square"/>
     </g>
     <g id="line2d_20">
      <defs>
       <path id="mb3b6e809af" d="M 0 0 
L -3.5 0 
" style="stroke: #000000; stroke-width: 0.8"/>
      </defs>
      <g>
       <use xlink:href="#mb3b6e809af" x="26.795" y="98.44" style="stroke: #000000; stroke-width: 0.8"/>
      </g>
     </g>
     <g id="text_11">
      <text style="font-size: 10px; font-family: 'Times New Roman'; text-anchor: end" x="19.795" y="101.911875" transform="rotate(-0 19.795 101.911875)">0</text>
     </g>
    </g>
    <g id="ytick_2">
     <g id="line2d_21">
      <path d="M 26.795 54.688889 
L 540 54.688889 
" clip-path="url(#pe48280a2bf)" style="fill: none; stroke: #b0b0b0; stroke-width: 0.8; stroke-linecap: square"/>
     </g>
     <g id="line2d_22">
      <g>
       <use xlink:href="#mb3b6e809af" x="26.795" y="54.688889" style="stroke: #000000; stroke-width: 0.8"/>
      </g>
     </g>
     <g id="text_12">
      <text style="font-size: 10px; font-family: 'Times New Roman'; text-anchor: end" x="19.795" y="58.160764" transform="rotate(-0 19.795 58.160764)">2</text>
     </g>
    </g>
    <g id="ytick_3">
     <g id="line2d_23">
      <path d="M 26.795 10.937778 
L 540 10.937778 
" clip-path="url(#pe48280a2bf)" style="fill: none; stroke: #b0b0b0; stroke-width: 0.8; stroke-linecap: square"/>
     </g>
     <g id="line2d_24">
      <g>
       <use xlink:href="#mb3b6e809af" x="26.795" y="10.937778" style="stroke: #000000; stroke-width: 0.8"/>
      </g>
     </g>
     <g id="text_13">
      <text style="font-size: 10px; font-family: 'Times New Roman'; text-anchor: end" x="19.795" y="14.409653" transform="rotate(-0 19.795 14.409653)">4</text>
     </g>
    </g>
    <g id="text_14">
     <text style="font-size: 12px; font-family: 'Times New Roman'; text-anchor: middle" x="8.228125" y="49.22" transform="rotate(-90 8.228125 49.22)">Normalized Value</text>
    </g>
   </g>
   <g id="line2d_25">
    <path d="M 26.795 82.615346 
L 28.019979 77.885896 
L 29.244958 79.167578 
L 30.469937 78.535081 
L 31.694916 79.666292 
L 32.919896 79.727995 
L 34.144875 80.224829 
L 35.369854 79.325822 
L 36.594833 79.401954 
L 37.819812 78.837023 
L 39.044791 78.469722 
L 40.26977 78.378434 
L 41.494749 78.551446 
L 42.719728 77.842957 
L 43.944708 78.002676 
L 45.169687 77.721451 
L 46.394666 77.650485 
L 47.619645 77.905684 
L 48.844624 78.031551 
L 50.069603 72.324186 
L 52.519561 73.129372 
L 53.744541 73.336046 
L 54.96952 72.895331 
L 57.419478 72.78316 
L 58.644457 73.096465 
L 61.094415 73.29049 
L 62.319394 73.08748 
L 64.769353 73.76867 
L 68.44429 73.933096 
L 69.669269 73.630124 
L 70.894248 73.680381 
L 72.119227 73.969257 
L 74.569185 74.062194 
L 77.019144 74.371827 
L 79.469102 74.321669 
L 81.91906 74.274958 
L 84.369018 74.616799 
L 88.043956 74.552063 
L 90.493914 74.946261 
L 91.718893 74.825522 
L 95.39383 75.05047 
L 96.61881 74.998349 
L 97.843789 75.186784 
L 99.068768 75.174032 
L 100.293747 74.958081 
L 114.993496 75.32413 
L 116.218475 75.498385 
L 117.443454 75.330135 
L 122.343371 75.487162 
L 124.793329 75.675245 
L 126.018308 75.613589 
L 128.468266 75.763248 
L 143.168016 75.750837 
L 148.067932 75.882662 
L 151.74287 75.971829 
L 154.192828 75.854464 
L 157.867765 75.949517 
L 161.542703 75.827662 
L 163.992661 75.936708 
L 168.892577 76.01446 
L 172.567515 76.070942 
L 173.792494 76.009972 
L 176.242452 76.101693 
L 177.467431 75.99836 
L 184.817306 76.184639 
L 187.267264 76.151758 
L 192.16718 76.284568 
L 194.617139 76.339236 
L 198.292076 76.447208 
L 200.742034 76.366132 
L 205.641951 76.456328 
L 231.366512 76.240463 
L 233.81647 76.3022 
L 239.941366 76.3572 
L 241.166345 76.406601 
L 243.616303 76.349154 
L 248.51622 76.358618 
L 250.966178 76.288525 
L 253.416136 76.322198 
L 254.641115 75.407074 
L 258.316053 75.359368 
L 282.815635 75.463193 
L 287.715551 75.507459 
L 291.390489 75.537137 
L 295.065426 75.5684 
L 298.740363 75.557342 
L 302.415301 75.591385 
L 307.315217 75.617726 
L 312.215134 75.706594 
L 315.890071 75.678728 
L 324.464925 75.705842 
L 346.514549 75.960988 
L 356.314382 75.951497 
L 361.214298 76.006663 
L 371.014131 75.994716 
L 375.914048 75.987373 
L 380.813964 75.997457 
L 382.038943 75.708917 
L 388.163839 75.781837 
L 421.238275 76.041677 
L 435.938024 76.131429 
L 445.737857 76.186458 
L 473.912377 76.343636 
L 478.812293 76.32815 
L 482.487231 76.344003 
L 515.561667 76.564444 
L 515.561667 76.564444 
" clip-path="url(#pe48280a2bf)" style="fill: none; stroke: #4169e1; stroke-width: 1.5; stroke-linecap: square"/>
   </g>
   <g id="line2d_26">
    <path d="M 26.795 98.44 
L 28.019979 95.290723 
L 30.469937 96.349455 
L 31.694916 96.046894 
L 32.919896 96.443065 
L 34.144875 96.519814 
L 35.369854 95.963286 
L 36.594833 96.231948 
L 37.819812 96.048342 
L 39.044791 96.075818 
L 41.494749 96.377051 
L 42.719728 95.60565 
L 43.944708 95.744322 
L 45.169687 95.745774 
L 46.394666 95.892913 
L 48.844624 95.973199 
L 50.069603 8.957189 
L 52.519561 16.177031 
L 53.744541 19.621375 
L 54.96952 22.276511 
L 57.419478 28.112161 
L 62.319394 36.909893 
L 63.544373 38.495673 
L 64.769353 39.759018 
L 67.219311 43.150596 
L 68.44429 44.729954 
L 69.669269 45.769563 
L 70.894248 47.180286 
L 72.119227 48.0945 
L 74.569185 50.575638 
L 75.794165 51.495938 
L 79.469102 54.613924 
L 81.91906 56.51246 
L 83.144039 57.097079 
L 88.043956 60.223487 
L 90.493914 61.107649 
L 96.61881 64.066589 
L 97.843789 64.359227 
L 99.068768 64.925889 
L 100.293747 65.081339 
L 105.193663 67.125308 
L 108.868601 68.44681 
L 114.993496 70.301802 
L 117.443454 70.449286 
L 119.893413 71.102068 
L 121.118392 71.376044 
L 122.343371 71.505341 
L 126.018308 72.249035 
L 128.468266 72.720667 
L 134.593162 74.132603 
L 140.718058 75.313836 
L 151.74287 77.103422 
L 152.967849 77.135222 
L 156.642786 77.680419 
L 162.767682 78.324758 
L 168.892577 79.047012 
L 173.792494 79.430965 
L 175.017473 79.469897 
L 176.242452 79.622767 
L 177.467431 79.589604 
L 188.492243 80.507325 
L 190.942201 80.681797 
L 193.39216 80.93249 
L 195.842118 81.003381 
L 198.292076 81.198325 
L 200.742034 81.343332 
L 205.641951 81.7388 
L 210.541867 82.140604 
L 212.991825 82.210976 
L 215.441784 82.24186 
L 217.891742 82.237056 
L 253.416136 83.859906 
L 254.641115 62.00666 
L 258.316053 62.434969 
L 264.440948 63.303222 
L 268.115886 63.677788 
L 286.490572 65.911204 
L 292.615468 66.579314 
L 307.315217 68.06432 
L 309.765175 68.240006 
L 313.440113 68.568292 
L 317.11505 68.818801 
L 325.689904 69.591571 
L 341.614632 70.832811 
L 356.314382 71.980802 
L 359.989319 72.207674 
L 375.914048 73.150997 
L 380.813964 73.393055 
L 382.038943 70.079753 
L 388.163839 70.462547 
L 400.41363 71.279839 
L 415.113379 72.231401 
L 444.512878 73.784604 
L 455.53769 74.242496 
L 469.01246 74.871056 
L 476.362335 75.101424 
L 486.162168 75.501748 
L 497.18698 75.914327 
L 515.561667 76.564444 
L 515.561667 76.564444 
" clip-path="url(#pe48280a2bf)" style="fill: none; stroke-dasharray: 5.55,2.4; stroke-dashoffset: 0; stroke: #4169e1; stroke-width: 1.5"/>
   </g>
   <g id="line2d_27">
    <path d="M 26.795 81.152482 
L 28.019979 77.897708 
L 29.244958 78.695691 
L 30.469937 78.310304 
L 31.694916 79.285109 
L 32.919896 78.899156 
L 34.144875 79.32825 
L 35.369854 78.592489 
L 36.594833 78.386747 
L 37.819812 77.79595 
L 39.044791 77.343386 
L 40.26977 77.331176 
L 41.494749 77.491242 
L 42.719728 76.952858 
L 43.944708 77.134184 
L 45.169687 76.894812 
L 46.394666 76.83007 
L 47.619645 77.066354 
L 48.844624 77.087257 
L 50.069603 73.959372 
L 52.519561 74.460027 
L 53.744541 74.514517 
L 54.96952 74.229825 
L 56.194499 74.211005 
L 57.419478 74.049742 
L 58.644457 74.269269 
L 62.319394 74.214062 
L 65.994332 74.822483 
L 68.44429 74.904279 
L 69.669269 74.682885 
L 70.894248 74.723629 
L 72.119227 74.92147 
L 78.244123 75.191665 
L 81.91906 75.021902 
L 84.369018 75.331366 
L 86.818977 75.291392 
L 88.043956 75.322248 
L 90.493914 75.609385 
L 92.943872 75.536362 
L 96.61881 75.530584 
L 97.843789 75.655691 
L 99.068768 75.639526 
L 100.293747 75.49028 
L 108.868601 75.432759 
L 113.768517 75.627901 
L 114.993496 75.641419 
L 116.218475 75.785515 
L 117.443454 75.638919 
L 121.118392 75.679474 
L 124.793329 75.863094 
L 127.243287 75.887065 
L 135.818141 75.966749 
L 139.493079 75.95608 
L 150.517891 76.130357 
L 152.967849 76.030296 
L 156.642786 76.036636 
L 159.092744 76.04281 
L 167.667598 76.120491 
L 171.342536 76.275413 
L 173.792494 76.162361 
L 176.242452 76.231257 
L 178.69241 76.208822 
L 193.39216 76.333453 
L 198.292076 76.495185 
L 200.742034 76.428887 
L 206.86693 76.470533 
L 212.991825 76.376876 
L 214.216805 76.418388 
L 217.891742 76.286943 
L 228.916554 76.122591 
L 236.266429 76.246323 
L 243.616303 76.276584 
L 250.966178 76.258469 
L 253.416136 76.268882 
L 254.641115 75.755612 
L 259.541032 75.722033 
L 273.015802 75.787437 
L 277.915718 75.734468 
L 284.040614 75.802963 
L 287.715551 75.806941 
L 291.390489 75.816259 
L 312.215134 75.969061 
L 317.11505 75.954739 
L 336.714716 76.040747 
L 348.964507 76.103334 
L 359.989319 76.123439 
L 364.889236 76.176113 
L 368.564173 76.138598 
L 408.988484 76.08158 
L 423.688233 76.212753 
L 445.737857 76.315615 
L 515.561667 76.564444 
L 515.561667 76.564444 
" clip-path="url(#pe48280a2bf)" style="fill: none; stroke: #ff8c00; stroke-width: 1.5; stroke-linecap: square"/>
   </g>
   <g id="line2d_28">
    <path d="M 26.795 98.44 
L 28.019979 94.3975 
L 29.244958 95.259012 
L 30.469937 95.88423 
L 31.694916 94.94493 
L 32.919896 95.243227 
L 34.144875 95.278344 
L 35.369854 94.227512 
L 36.594833 94.566341 
L 37.819812 93.754962 
L 39.044791 93.399302 
L 40.26977 93.818735 
L 41.494749 94.056892 
L 42.719728 92.932047 
L 43.944708 93.12359 
L 45.169687 93.127887 
L 46.394666 93.414772 
L 47.619645 93.33177 
L 48.844624 93.597623 
L 50.069603 22.904239 
L 53.744541 31.804912 
L 54.96952 33.870018 
L 56.194499 36.449573 
L 57.419478 38.585724 
L 58.644457 40.324404 
L 59.869436 42.397531 
L 61.094415 44.215579 
L 62.319394 45.687774 
L 63.544373 46.784307 
L 64.769353 47.156579 
L 67.219311 50.107358 
L 68.44429 51.474657 
L 69.669269 52.124603 
L 70.894248 53.353565 
L 72.119227 53.987408 
L 74.569185 56.160043 
L 77.019144 57.882441 
L 78.244123 58.822164 
L 81.91906 61.105173 
L 83.144039 61.353022 
L 84.369018 61.808331 
L 88.043956 63.906551 
L 89.268935 64.024125 
L 90.493914 64.389837 
L 92.943872 65.492981 
L 95.39383 66.579033 
L 96.61881 67.0628 
L 97.843789 67.248203 
L 99.068768 67.762183 
L 100.293747 67.755105 
L 105.193663 69.605923 
L 111.318559 71.489093 
L 113.768517 72.066434 
L 114.993496 72.422695 
L 117.443454 71.938946 
L 119.893413 72.56922 
L 122.343371 72.786236 
L 123.56835 73.099454 
L 124.793329 73.197014 
L 139.493079 76.119223 
L 144.392995 76.84814 
L 151.74287 77.899646 
L 152.967849 77.713106 
L 155.417807 77.991024 
L 161.542703 78.707002 
L 163.992661 78.889064 
L 167.667598 79.386476 
L 168.892577 79.342996 
L 171.342536 79.482828 
L 172.567515 79.415921 
L 194.617139 80.705672 
L 195.842118 80.706006 
L 198.292076 80.854763 
L 199.517055 80.836816 
L 206.86693 81.399276 
L 209.316888 81.531679 
L 210.541867 81.641927 
L 211.766846 81.458559 
L 214.216805 81.568438 
L 215.441784 81.368997 
L 216.666763 81.050654 
L 219.116721 81.182617 
L 221.566679 81.18274 
L 225.241617 81.433109 
L 236.266429 81.935722 
L 239.941366 82.131683 
L 243.616303 82.135906 
L 248.51622 82.35615 
L 249.741199 82.297679 
L 253.416136 82.552935 
L 254.641115 63.93911 
L 258.316053 64.319783 
L 264.440948 65.159967 
L 266.890906 65.349701 
L 287.715551 67.486377 
L 293.840447 68.043373 
L 297.515384 68.382314 
L 301.190322 68.655663 
L 307.315217 69.268031 
L 309.765175 69.412379 
L 313.440113 69.688614 
L 315.890071 69.785447 
L 322.014967 70.279745 
L 329.364841 70.868172 
L 337.939695 71.457527 
L 341.614632 71.707157 
L 352.639444 72.520531 
L 362.439277 73.004507 
L 368.564173 73.067954 
L 378.364006 73.689403 
L 380.813964 73.779935 
L 382.038943 71.223247 
L 385.713881 71.406826 
L 396.738693 71.973759 
L 412.663421 72.974786 
L 416.338358 73.135873 
L 420.013296 73.293646 
L 422.463254 73.306541 
L 429.813129 73.655304 
L 438.387982 74.117485 
L 439.612962 74.064229 
L 448.187815 74.460755 
L 453.087732 74.566707 
L 469.01246 75.237469 
L 471.462419 75.283072 
L 473.912377 75.337997 
L 476.362335 75.38371 
L 481.262251 75.526352 
L 483.71221 75.590416 
L 489.837105 75.818864 
L 492.287063 75.859677 
L 511.886729 76.431351 
L 515.561667 76.564444 
L 515.561667 76.564444 
" clip-path="url(#pe48280a2bf)" style="fill: none; stroke-dasharray: 5.55,2.4; stroke-dashoffset: 0; stroke: #ff8c00; stroke-width: 1.5"/>
   </g>
   <g id="patch_3">
    <path d="M 26.795 98.44 
L 26.795 0 
" style="fill: none; stroke: #000000; stroke-width: 0.8; stroke-linejoin: miter; stroke-linecap: square"/>
   </g>
   <g id="patch_4">
    <path d="M 540 98.44 
L 540 0 
" style="fill: none; stroke: #000000; stroke-width: 0.8; stroke-linejoin: miter; stroke-linecap: square"/>
   </g>
   <g id="patch_5">
    <path d="M 26.795 98.44 
L 540 98.44 
" style="fill: none; stroke: #000000; stroke-width: 0.8; stroke-linejoin: miter; stroke-linecap: square"/>
   </g>
   <g id="patch_6">
    <path d="M 26.795 0 
L 540 0 
" style="fill: none; stroke: #000000; stroke-width: 0.8; stroke-linejoin: miter; stroke-linecap: square"/>
   </g>
  </g>
 </g>
 <defs>
  <clipPath id="pe48280a2bf">
   <rect x="26.795" y="0" width="513.205" height="98.44"/>
  </clipPath>
 </defs>
</svg>
