<?xml version="1.0" encoding="utf-8" standalone="no"?>
<!DOCTYPE svg PUBLIC "-//W3C//DTD SVG 1.1//EN"
  "http://www.w3.org/Graphics/SVG/1.1/DTD/svg11.dtd">
<svg xmlns:xlink="http://www.w3.org/1999/xlink" width="540pt" height="129.6pt" viewBox="0 0 540 129.6" xmlns="http://www.w3.org/2000/svg" version="1.1">
 <metadata>
  <rdf:RDF xmlns:dc="http://purl.org/dc/elements/1.1/" xmlns:cc="http://creativecommons.org/ns#" xmlns:rdf="http://www.w3.org/1999/02/22-rdf-syntax-ns#">
   <cc:Work>
    <dc:type rdf:resource="http://purl.org/dc/dcmitype/StillImage"/>
    <dc:date>2025-04-06T03:28:00.208923</dc:date>
    <dc:format>image/svg+xml</dc:format>
    <dc:creator>
     <cc:Agent>
      <dc:title>Matplotlib v3.10.1, https://matplotlib.org/</dc:title>
     </cc:Agent>
    </dc:creator>
   </cc:Work>
  </rdf:RDF>
 </metadata>
 <defs>
  <style type="text/css">*{stroke-linejoin: round; stroke-linecap: butt}</style>
 </defs>
 <g id="figure_1">
  <g id="patch_1">
   <path d="M 0 129.6 
L 540 129.6 
L 540 0 
L 0 0 
z
" style="fill: #ffffff"/>
  </g>
  <g id="axes_1">
   <g id="patch_2">
    <path d="M 34.31 98.44 
L 540 98.44 
L 540 3.6 
L 34.31 3.6 
z
" style="fill: #ffffff"/>
   </g>
   <g id="matplotlib.axis_1">
    <g id="xtick_1">
     <g id="line2d_1">
      <path d="M 34.31 98.44 
L 34.31 3.6 
" clip-path="url(#p0089981175)" style="fill: none; stroke: #b0b0b0; stroke-width: 0.8; stroke-linecap: square"/>
     </g>
     <g id="line2d_2">
      <defs>
       <path id="m71c1e722ad" d="M 0 0 
L 0 3.5 
" style="stroke: #000000; stroke-width: 0.8"/>
      </defs>
      <g>
       <use xlink:href="#m71c1e722ad" x="34.31" y="98.44" style="stroke: #000000; stroke-width: 0.8"/>
      </g>
     </g>
     <g id="text_1">
      <text style="font-size: 10px; font-family: 'Times New Roman'; text-anchor: middle" x="34.31" y="112.38375" transform="rotate(-0 34.31 112.38375)">0</text>
     </g>
    </g>
    <g id="xtick_2">
     <g id="line2d_3">
      <path d="M 94.662071 98.44 
L 94.662071 3.6 
" clip-path="url(#p0089981175)" style="fill: none; stroke: #b0b0b0; stroke-width: 0.8; stroke-linecap: square"/>
     </g>
     <g id="line2d_4">
      <g>
       <use xlink:href="#m71c1e722ad" x="94.662071" y="98.44" style="stroke: #000000; stroke-width: 0.8"/>
      </g>
     </g>
     <g id="text_2">
      <text style="font-size: 10px; font-family: 'Times New Roman'; text-anchor: middle" x="94.662071" y="112.38375" transform="rotate(-0 94.662071 112.38375)">50</text>
     </g>
    </g>
    <g id="xtick_3">
     <g id="line2d_5">
      <path d="M 155.014141 98.44 
L 155.014141 3.6 
" clip-path="url(#p0089981175)" style="fill: none; stroke: #b0b0b0; stroke-width: 0.8; stroke-linecap: square"/>
     </g>
     <g id="line2d_6">
      <g>
       <use xlink:href="#m71c1e722ad" x="155.014141" y="98.44" style="stroke: #000000; stroke-width: 0.8"/>
      </g>
     </g>
     <g id="text_3">
      <text style="font-size: 10px; font-family: 'Times New Roman'; text-anchor: middle" x="155.014141" y="112.38375" transform="rotate(-0 155.014141 112.38375)">100</text>
     </g>
    </g>
    <g id="xtick_4">
     <g id="line2d_7">
      <path d="M 215.366212 98.44 
L 215.366212 3.6 
" clip-path="url(#p0089981175)" style="fill: none; stroke: #b0b0b0; stroke-width: 0.8; stroke-linecap: square"/>
     </g>
     <g id="line2d_8">
      <g>
       <use xlink:href="#m71c1e722ad" x="215.366212" y="98.44" style="stroke: #000000; stroke-width: 0.8"/>
      </g>
     </g>
     <g id="text_4">
      <text style="font-size: 10px; font-family: 'Times New Roman'; text-anchor: middle" x="215.366212" y="112.38375" transform="rotate(-0 215.366212 112.38375)">150</text>
     </g>
    </g>
    <g id="xtick_5">
     <g id="line2d_9">
      <path d="M 275.718283 98.44 
L 275.718283 3.6 
" clip-path="url(#p0089981175)" style="fill: none; stroke: #b0b0b0; stroke-width: 0.8; stroke-linecap: square"/>
     </g>
     <g id="line2d_10">
      <g>
       <use xlink:href="#m71c1e722ad" x="275.718283" y="98.44" style="stroke: #000000; stroke-width: 0.8"/>
      </g>
     </g>
     <g id="text_5">
      <text style="font-size: 10px; font-family: 'Times New Roman'; text-anchor: middle" x="275.718283" y="112.38375" transform="rotate(-0 275.718283 112.38375)">200</text>
     </g>
    </g>
    <g id="xtick_6">
     <g id="line2d_11">
      <path d="M 336.070353 98.44 
L 336.070353 3.6 
" clip-path="url(#p0089981175)" style="fill: none; stroke: #b0b0b0; stroke-width: 0.8; stroke-linecap: square"/>
     </g>
     <g id="line2d_12">
      <g>
       <use xlink:href="#m71c1e722ad" x="336.070353" y="98.44" style="stroke: #000000; stroke-width: 0.8"/>
      </g>
     </g>
     <g id="text_6">
      <text style="font-size: 10px; font-family: 'Times New Roman'; text-anchor: middle" x="336.070353" y="112.38375" transform="rotate(-0 336.070353 112.38375)">250</text>
     </g>
    </g>
    <g id="xtick_7">
     <g id="line2d_13">
      <path d="M 396.422424 98.44 
L 396.422424 3.6 
" clip-path="url(#p0089981175)" style="fill: none; stroke: #b0b0b0; stroke-width: 0.8; stroke-linecap: square"/>
     </g>
     <g id="line2d_14">
      <g>
       <use xlink:href="#m71c1e722ad" x="396.422424" y="98.44" style="stroke: #000000; stroke-width: 0.8"/>
      </g>
     </g>
     <g id="text_7">
      <text style="font-size: 10px; font-family: 'Times New Roman'; text-anchor: middle" x="396.422424" y="112.38375" transform="rotate(-0 396.422424 112.38375)">300</text>
     </g>
    </g>
    <g id="xtick_8">
     <g id="line2d_15">
      <path d="M 456.774495 98.44 
L 456.774495 3.6 
" clip-path="url(#p0089981175)" style="fill: none; stroke: #b0b0b0; stroke-width: 0.8; stroke-linecap: square"/>
     </g>
     <g id="line2d_16">
      <g>
       <use xlink:href="#m71c1e722ad" x="456.774495" y="98.44" style="stroke: #000000; stroke-width: 0.8"/>
      </g>
     </g>
     <g id="text_8">
      <text style="font-size: 10px; font-family: 'Times New Roman'; text-anchor: middle" x="456.774495" y="112.38375" transform="rotate(-0 456.774495 112.38375)">350</text>
     </g>
    </g>
    <g id="xtick_9">
     <g id="line2d_17">
      <path d="M 517.126565 98.44 
L 517.126565 3.6 
" clip-path="url(#p0089981175)" style="fill: none; stroke: #b0b0b0; stroke-width: 0.8; stroke-linecap: square"/>
     </g>
     <g id="line2d_18">
      <g>
       <use xlink:href="#m71c1e722ad" x="517.126565" y="98.44" style="stroke: #000000; stroke-width: 0.8"/>
      </g>
     </g>
     <g id="text_9">
      <text style="font-size: 10px; font-family: 'Times New Roman'; text-anchor: middle" x="517.126565" y="112.38375" transform="rotate(-0 517.126565 112.38375)">400</text>
     </g>
    </g>
    <g id="text_10">
     <text style="font-size: 12px; font-family: 'Times New Roman'; text-anchor: middle" x="287.155" y="126.855312" transform="rotate(-0 287.155 126.855312)">Simulation Run</text>
    </g>
   </g>
   <g id="matplotlib.axis_2">
    <g id="ytick_1">
     <g id="line2d_19">
      <path d="M 34.31 98.44 
L 540 98.44 
" clip-path="url(#p0089981175)" style="fill: none; stroke: #b0b0b0; stroke-width: 0.8; stroke-linecap: square"/>
     </g>
     <g id="line2d_20">
      <defs>
       <path id="m9618861c94" d="M 0 0 
L -3.5 0 
" style="stroke: #000000; stroke-width: 0.8"/>
      </defs>
      <g>
       <use xlink:href="#m9618861c94" x="34.31" y="98.44" style="stroke: #000000; stroke-width: 0.8"/>
      </g>
     </g>
     <g id="text_11">
      <text style="font-size: 10px; font-family: 'Times New Roman'; text-anchor: end" x="27.31" y="101.911875" transform="rotate(-0 27.31 101.911875)">0.0</text>
     </g>
    </g>
    <g id="ytick_2">
     <g id="line2d_21">
      <path d="M 34.31 66.826667 
L 540 66.826667 
" clip-path="url(#p0089981175)" style="fill: none; stroke: #b0b0b0; stroke-width: 0.8; stroke-linecap: square"/>
     </g>
     <g id="line2d_22">
      <g>
       <use xlink:href="#m9618861c94" x="34.31" y="66.826667" style="stroke: #000000; stroke-width: 0.8"/>
      </g>
     </g>
     <g id="text_12">
      <text style="font-size: 10px; font-family: 'Times New Roman'; text-anchor: end" x="27.31" y="70.298542" transform="rotate(-0 27.31 70.298542)">0.5</text>
     </g>
    </g>
    <g id="ytick_3">
     <g id="line2d_23">
      <path d="M 34.31 35.213333 
L 540 35.213333 
" clip-path="url(#p0089981175)" style="fill: none; stroke: #b0b0b0; stroke-width: 0.8; stroke-linecap: square"/>
     </g>
     <g id="line2d_24">
      <g>
       <use xlink:href="#m9618861c94" x="34.31" y="35.213333" style="stroke: #000000; stroke-width: 0.8"/>
      </g>
     </g>
     <g id="text_13">
      <text style="font-size: 10px; font-family: 'Times New Roman'; text-anchor: end" x="27.31" y="38.685208" transform="rotate(-0 27.31 38.685208)">1.0</text>
     </g>
    </g>
    <g id="ytick_4">
     <g id="line2d_25">
      <path d="M 34.31 3.6 
L 540 3.6 
" clip-path="url(#p0089981175)" style="fill: none; stroke: #b0b0b0; stroke-width: 0.8; stroke-linecap: square"/>
     </g>
     <g id="line2d_26">
      <g>
       <use xlink:href="#m9618861c94" x="34.31" y="3.6" style="stroke: #000000; stroke-width: 0.8"/>
      </g>
     </g>
     <g id="text_14">
      <text style="font-size: 10px; font-family: 'Times New Roman'; text-anchor: end" x="27.31" y="7.071875" transform="rotate(-0 27.31 7.071875)">1.5</text>
     </g>
    </g>
    <g id="text_15">
     <text style="font-size: 12px; font-family: 'Times New Roman'; text-anchor: middle" x="8.243125" y="51.02" transform="rotate(-90 8.243125 51.02)">Normalized Value</text>
    </g>
   </g>
   <g id="line2d_27">
    <path d="M 34.31 13.190928 
L 35.517041 29.789327 
L 37.931124 37.172173 
L 39.138166 38.459081 
L 40.345207 39.570799 
L 41.552248 43.732905 
L 42.75929 43.86036 
L 43.966331 44.875259 
L 45.173373 45.482939 
L 46.380414 42.004452 
L 47.587456 39.846079 
L 48.794497 40.052986 
L 50.001538 39.735943 
L 51.20858 40.294322 
L 52.415621 40.374952 
L 54.829704 42.244683 
L 56.036745 43.397187 
L 57.243787 42.95156 
L 58.450828 42.360853 
L 59.65787 42.497835 
L 60.864911 41.418925 
L 62.071953 41.977084 
L 63.278994 40.234555 
L 64.486035 40.781386 
L 65.693077 41.164983 
L 66.900118 41.005133 
L 68.10716 40.456601 
L 69.314201 40.699163 
L 70.521242 40.582501 
L 71.728284 39.615734 
L 72.935325 39.292732 
L 74.142367 38.75579 
L 75.349408 38.0725 
L 76.556449 38.564263 
L 77.763491 37.813506 
L 80.177574 38.872318 
L 81.384615 38.607308 
L 82.591657 38.505332 
L 83.798698 39.239657 
L 85.005739 39.354408 
L 86.212781 39.309991 
L 87.419822 39.736324 
L 89.833905 39.809256 
L 91.040946 38.031848 
L 93.455029 38.112816 
L 94.662071 37.856313 
L 95.869112 37.412525 
L 97.076153 37.750425 
L 98.283195 37.574687 
L 100.697278 38.193011 
L 103.111361 37.653229 
L 104.318402 37.664979 
L 105.525443 37.564189 
L 106.732485 37.623622 
L 107.939526 37.314332 
L 109.146568 36.670671 
L 110.353609 36.316604 
L 112.767692 36.217985 
L 113.974733 35.785401 
L 116.388816 35.446488 
L 117.595858 35.579375 
L 118.802899 35.437924 
L 120.00994 35.807462 
L 121.216982 35.962935 
L 122.424023 35.605505 
L 123.631065 35.475665 
L 124.838106 35.466746 
L 126.045147 34.929727 
L 129.666272 34.833783 
L 132.080354 35.227656 
L 133.287396 35.266088 
L 135.701479 35.52572 
L 138.115562 35.672886 
L 140.529644 36.017226 
L 141.736686 35.463608 
L 145.35781 35.808792 
L 146.564851 35.601838 
L 148.978934 35.637912 
L 150.185976 35.707623 
L 151.393017 35.508876 
L 152.600058 35.472277 
L 153.8071 35.55035 
L 157.428224 34.962919 
L 158.635266 35.035015 
L 159.842307 34.804557 
L 163.463431 34.731553 
L 164.670473 34.752583 
L 167.084555 35.152535 
L 168.291597 35.124993 
L 171.912721 35.596987 
L 173.119763 35.77043 
L 177.947928 35.933943 
L 180.362011 36.008192 
L 181.569052 35.694777 
L 182.776094 35.731564 
L 183.983135 35.20946 
L 185.190177 35.115208 
L 186.397218 35.315806 
L 188.811301 35.257591 
L 191.225384 35.224367 
L 192.432425 34.869123 
L 194.846508 34.90813 
L 198.467632 34.814388 
L 210.538046 35.238379 
L 211.745088 34.874009 
L 212.952129 34.682918 
L 215.366212 34.75737 
L 216.573253 34.951127 
L 220.194378 35.126717 
L 221.401419 35.047466 
L 222.60846 35.141941 
L 227.436626 35.034925 
L 232.264792 35.155612 
L 234.678875 35.059043 
L 238.299999 35.179291 
L 240.714082 35.328849 
L 244.335206 35.120783 
L 245.542247 35.111066 
L 246.749289 35.242893 
L 247.95633 35.15135 
L 252.784496 35.437195 
L 255.198579 35.418517 
L 266.061951 35.912345 
L 267.268993 35.755639 
L 268.476034 35.819294 
L 270.890117 35.74558 
L 272.097158 35.786262 
L 273.3042 35.662837 
L 276.925324 35.641201 
L 279.339407 35.535333 
L 280.546448 35.52738 
L 281.75349 35.387892 
L 285.374614 35.422711 
L 286.581655 35.528374 
L 288.995738 35.330684 
L 297.445028 35.523675 
L 298.652069 35.381758 
L 303.480235 35.421184 
L 308.308401 35.692122 
L 309.515442 35.647807 
L 311.929525 35.747783 
L 313.136566 35.598655 
L 315.550649 35.71395 
L 319.171773 35.801583 
L 321.585856 35.659747 
L 326.414022 35.484604 
L 328.828105 35.528398 
L 331.242188 35.522965 
L 332.449229 35.511059 
L 333.65627 35.287988 
L 336.070353 35.267207 
L 338.484436 35.545056 
L 339.691478 35.462539 
L 344.519643 35.711788 
L 345.726685 35.77142 
L 346.933726 35.660662 
L 348.140767 35.772724 
L 355.383016 35.631366 
L 356.590057 35.73797 
L 372.281596 35.304338 
L 374.695678 35.273214 
L 380.730886 35.333391 
L 383.144968 35.292489 
L 386.766093 35.495711 
L 396.422424 35.404044 
L 398.836507 35.43785 
L 400.043548 35.359666 
L 403.664672 35.480249 
L 406.078755 35.279344 
L 408.492838 35.349417 
L 412.113962 35.339522 
L 419.356211 35.457439 
L 420.563252 35.434438 
L 422.977335 35.21873 
L 426.598459 35.210176 
L 431.426625 35.19633 
L 432.633666 35.120042 
L 433.840708 35.199228 
L 438.668873 35.089051 
L 451.946329 35.501812 
L 454.360412 35.313419 
L 455.567453 35.375156 
L 456.774495 35.300038 
L 460.395619 35.414436 
L 489.364613 34.934517 
L 499.020944 34.996483 
L 502.642068 35.132161 
L 508.677275 35.119672 
L 515.919524 35.213333 
L 515.919524 35.213333 
" clip-path="url(#p0089981175)" style="fill: none; stroke: #4169e1; stroke-width: 1.5; stroke-linecap: square"/>
   </g>
   <g id="line2d_28">
    <path d="M 34.31 98.44 
L 35.517041 42.617646 
L 36.724083 55.624509 
L 37.931124 58.162543 
L 39.138166 64.875793 
L 40.345207 69.217738 
L 41.552248 52.332597 
L 42.75929 58.072982 
L 45.173373 63.970358 
L 46.380414 42.587571 
L 47.587456 36.858977 
L 48.794497 41.491888 
L 50.001538 45.294847 
L 51.20858 47.95343 
L 52.415621 51.089082 
L 53.622663 51.40716 
L 54.829704 50.593893 
L 56.036745 48.267785 
L 57.243787 50.011904 
L 58.450828 50.904 
L 59.65787 52.984887 
L 60.864911 49.772373 
L 62.071953 50.348349 
L 63.278994 37.506568 
L 64.486035 38.335478 
L 65.693077 39.786397 
L 66.900118 41.741382 
L 68.10716 41.98949 
L 70.521242 45.214166 
L 71.728284 41.006884 
L 72.935325 42.070833 
L 74.142367 41.801027 
L 75.349408 40.202919 
L 76.556449 40.105647 
L 77.763491 37.570963 
L 78.970532 36.671988 
L 80.177574 36.472592 
L 81.384615 37.466814 
L 82.591657 38.869684 
L 83.798698 35.808454 
L 86.212781 38.528644 
L 87.419822 38.239599 
L 89.833905 40.731881 
L 91.040946 11.849259 
L 93.455029 15.274744 
L 94.662071 16.238888 
L 95.869112 15.784529 
L 97.076153 16.141093 
L 98.283195 17.333494 
L 99.490236 17.667674 
L 101.904319 18.593791 
L 103.111361 19.24808 
L 105.525443 21.764773 
L 106.732485 22.978802 
L 107.939526 23.013596 
L 109.146568 19.006297 
L 110.353609 18.647198 
L 112.767692 20.991749 
L 113.974733 19.645278 
L 115.181775 20.305851 
L 118.802899 22.789388 
L 120.00994 21.875586 
L 121.216982 22.571785 
L 122.424023 21.707383 
L 123.631065 22.477714 
L 124.838106 23.476009 
L 126.045147 20.008688 
L 128.45923 21.980278 
L 129.666272 22.793655 
L 132.080354 23.381238 
L 133.287396 24.261019 
L 134.494437 24.754373 
L 136.90852 26.190188 
L 138.115562 26.916188 
L 139.322603 27.015562 
L 140.529644 27.452615 
L 141.736686 22.714388 
L 142.943727 23.135702 
L 144.150769 23.878391 
L 145.35781 24.360461 
L 146.564851 24.341481 
L 148.978934 25.779762 
L 150.185976 26.434312 
L 151.393017 26.392734 
L 153.8071 27.685082 
L 156.221183 27.389903 
L 157.428224 27.410614 
L 158.635266 27.985113 
L 159.842307 27.536952 
L 161.049348 28.161587 
L 163.463431 29.074116 
L 164.670473 29.700823 
L 165.877514 29.234615 
L 167.084555 29.154444 
L 168.291597 29.756005 
L 169.498638 29.538921 
L 170.70568 29.624677 
L 171.912721 29.82771 
L 173.119763 29.71825 
L 174.326804 30.296807 
L 175.533845 30.652283 
L 176.740887 30.726614 
L 177.947928 30.408383 
L 180.362011 31.442567 
L 181.569052 29.559118 
L 182.776094 30.080883 
L 183.983135 23.779 
L 185.190177 24.146554 
L 186.397218 23.704233 
L 187.604259 24.273114 
L 188.811301 24.672158 
L 191.225384 25.767787 
L 192.432425 22.968674 
L 199.674674 25.979165 
L 200.881715 26.148603 
L 204.502839 27.436351 
L 205.709881 27.373692 
L 206.916922 27.865066 
L 209.331005 28.684801 
L 210.538046 29.076434 
L 211.745088 25.590728 
L 212.952129 24.98464 
L 214.159171 25.474315 
L 215.366212 25.784712 
L 216.573253 25.114102 
L 221.401419 26.429113 
L 222.60846 26.605656 
L 223.815502 27.024666 
L 225.022543 26.933743 
L 227.436626 27.717775 
L 229.850709 28.480673 
L 231.05775 28.578947 
L 232.264792 29.001558 
L 233.471833 29.184438 
L 235.885916 30.001869 
L 240.714082 30.930705 
L 241.921123 31.038933 
L 243.128164 30.471589 
L 245.542247 31.163427 
L 246.749289 30.923796 
L 249.163372 31.186627 
L 250.370413 31.531183 
L 252.784496 31.644996 
L 256.40562 32.492 
L 258.819703 33.117619 
L 260.026744 33.102179 
L 262.440827 33.77168 
L 263.647868 33.057315 
L 264.85491 33.147019 
L 266.061951 33.484035 
L 267.268993 32.858557 
L 269.683076 33.239871 
L 272.097158 33.821666 
L 273.3042 33.535241 
L 274.511241 33.859716 
L 276.925324 34.320371 
L 278.132365 34.261509 
L 280.546448 34.880783 
L 281.75349 34.38115 
L 284.167573 34.978376 
L 285.374614 35.120768 
L 286.581655 34.949502 
L 287.788697 34.280446 
L 290.20278 34.742651 
L 292.616862 35.334912 
L 293.823904 35.056984 
L 297.445028 35.872894 
L 298.652069 35.263603 
L 301.066152 35.767459 
L 303.480235 36.144635 
L 304.687277 36.085993 
L 305.894318 35.509293 
L 307.101359 35.515306 
L 309.515442 35.936278 
L 310.722484 35.904089 
L 311.929525 36.157913 
L 313.136566 35.385472 
L 314.343608 35.053096 
L 316.757691 35.526157 
L 317.964732 35.302279 
L 319.171773 35.443196 
L 320.378815 35.165712 
L 322.792898 35.482182 
L 323.999939 35.189749 
L 325.206981 35.099501 
L 326.414022 34.892753 
L 332.449229 35.856621 
L 333.65627 33.607538 
L 336.070353 33.962397 
L 337.277395 32.9021 
L 338.484436 32.462466 
L 342.10556 32.145551 
L 345.726685 32.560199 
L 348.140767 31.762169 
L 350.55485 32.171276 
L 351.761892 32.238591 
L 355.383016 32.861863 
L 356.590057 32.491761 
L 357.797099 32.699818 
L 359.00414 32.708561 
L 360.211182 32.553927 
L 361.418223 31.330984 
L 366.246389 32.250686 
L 367.45343 32.319657 
L 368.660471 32.551095 
L 369.867513 32.558742 
L 371.074554 32.782352 
L 372.281596 32.703545 
L 374.695678 33.036542 
L 378.316803 33.592432 
L 379.523844 33.592777 
L 383.144968 34.153079 
L 385.559051 33.762024 
L 389.180175 34.29554 
L 390.387217 34.194487 
L 391.594258 34.410357 
L 392.8013 34.270983 
L 396.422424 34.840391 
L 397.629465 34.89838 
L 398.836507 35.091998 
L 400.043548 34.925098 
L 402.457631 35.257854 
L 403.664672 35.048478 
L 404.871714 34.051666 
L 407.285797 33.88516 
L 409.699879 34.226872 
L 413.321004 34.699083 
L 414.528045 34.884283 
L 416.942128 34.720927 
L 418.149169 34.783865 
L 420.563252 35.128443 
L 421.770294 34.152339 
L 422.977335 33.918772 
L 425.391418 34.211548 
L 431.426625 35.034591 
L 433.840708 34.608047 
L 435.047749 34.649592 
L 436.254791 34.469869 
L 441.082956 35.125546 
L 444.70408 35.100413 
L 447.118163 35.20813 
L 451.946329 35.572921 
L 453.15337 34.199824 
L 454.360412 34.272562 
L 455.567453 34.186378 
L 456.774495 33.969286 
L 457.981536 33.962623 
L 459.188577 34.144902 
L 460.395619 34.024053 
L 461.60266 34.164085 
L 464.016743 34.206719 
L 465.223784 34.358141 
L 466.430826 34.165436 
L 467.637867 34.191708 
L 468.844909 33.250092 
L 471.258992 33.498079 
L 472.466033 33.675891 
L 473.673074 33.708404 
L 480.915323 34.568869 
L 482.122364 34.550659 
L 484.536447 34.791965 
L 485.743488 34.821818 
L 486.95053 34.976715 
L 488.157571 34.965313 
L 492.985737 35.517681 
L 494.192778 35.405159 
L 495.39982 35.564992 
L 496.606861 35.047569 
L 497.813903 35.115103 
L 499.020944 34.77208 
L 500.227985 34.679809 
L 502.642068 34.766021 
L 505.056151 35.053688 
L 506.263193 34.928917 
L 507.470234 34.638041 
L 512.2984 35.232695 
L 513.505441 34.896792 
L 515.919524 35.213333 
L 515.919524 35.213333 
" clip-path="url(#p0089981175)" style="fill: none; stroke-dasharray: 5.55,2.4; stroke-dashoffset: 0; stroke: #4169e1; stroke-width: 1.5"/>
   </g>
   <g id="line2d_29">
    <path d="M 34.31 30.526548 
L 35.517041 37.740598 
L 36.724083 38.388654 
L 39.138166 40.938005 
L 40.345207 41.852006 
L 41.552248 44.620699 
L 42.75929 44.277621 
L 43.966331 44.284175 
L 45.173373 44.755089 
L 46.380414 42.325016 
L 47.587456 40.268003 
L 48.794497 40.18803 
L 50.001538 39.728618 
L 52.415621 39.92693 
L 53.622663 40.447471 
L 54.829704 41.185441 
L 56.036745 42.544072 
L 57.243787 42.113998 
L 58.450828 41.387181 
L 59.65787 41.352028 
L 60.864911 40.471533 
L 62.071953 40.849783 
L 63.278994 39.242248 
L 64.486035 39.729673 
L 65.693077 39.895634 
L 66.900118 39.783529 
L 68.10716 39.539275 
L 69.314201 39.737258 
L 70.521242 39.799418 
L 71.728284 39.099301 
L 74.142367 38.346829 
L 75.349408 37.789544 
L 76.556449 38.158049 
L 77.763491 37.534303 
L 80.177574 38.090133 
L 82.591657 37.743956 
L 83.798698 38.292342 
L 85.005739 38.386991 
L 86.212781 38.2976 
L 87.419822 38.695482 
L 89.833905 38.796617 
L 91.040946 37.531295 
L 93.455029 37.753397 
L 95.869112 37.314083 
L 97.076153 37.468636 
L 98.283195 37.317076 
L 100.697278 37.747569 
L 101.904319 37.704629 
L 103.111361 37.541017 
L 104.318402 37.602349 
L 107.939526 37.380641 
L 109.146568 36.790787 
L 110.353609 36.468739 
L 112.767692 36.266819 
L 113.974733 35.829628 
L 115.181775 35.534802 
L 116.388816 35.483573 
L 117.595858 35.59422 
L 118.802899 35.393222 
L 120.00994 35.660274 
L 121.216982 35.765335 
L 122.424023 35.550477 
L 124.838106 35.542012 
L 126.045147 35.098965 
L 129.666272 34.801203 
L 133.287396 35.171855 
L 135.701479 35.368111 
L 138.115562 35.459196 
L 140.529644 35.816055 
L 141.736686 35.358648 
L 145.35781 35.615432 
L 146.564851 35.489556 
L 148.978934 35.56736 
L 150.185976 35.608993 
L 152.600058 35.467612 
L 153.8071 35.465566 
L 156.221183 35.011739 
L 162.25639 34.718101 
L 171.912721 35.381321 
L 173.119763 35.536129 
L 176.740887 35.454926 
L 179.15497 35.724001 
L 180.362011 35.745102 
L 181.569052 35.524356 
L 182.776094 35.606394 
L 183.983135 35.298488 
L 185.190177 35.235417 
L 187.604259 35.397711 
L 191.225384 35.254061 
L 192.432425 35.0491 
L 194.846508 35.109461 
L 199.674674 34.926917 
L 202.088756 35.047024 
L 203.295798 34.969394 
L 210.538046 35.237649 
L 211.745088 34.956305 
L 214.159171 34.88357 
L 215.366212 34.921948 
L 216.573253 35.110531 
L 220.194378 35.180766 
L 221.401419 35.103912 
L 223.815502 35.142078 
L 226.229585 35.063262 
L 231.05775 35.233021 
L 237.092957 35.207354 
L 241.921123 35.3292 
L 243.128164 35.164099 
L 249.163372 35.319059 
L 251.577454 35.410371 
L 253.991537 35.446263 
L 262.440827 35.566032 
L 264.85491 35.773192 
L 266.061951 35.793042 
L 267.268993 35.657205 
L 269.683076 35.624181 
L 276.925324 35.437162 
L 279.339407 35.325825 
L 282.960531 35.177212 
L 285.374614 35.166158 
L 286.581655 35.242553 
L 288.995738 35.136197 
L 296.237987 35.214746 
L 298.652069 35.066201 
L 302.273194 35.013273 
L 305.894318 35.236119 
L 308.308401 35.277443 
L 309.515442 35.207029 
L 311.929525 35.296153 
L 313.136566 35.18497 
L 315.550649 35.277258 
L 322.792898 35.146146 
L 323.999939 35.042646 
L 325.206981 35.102453 
L 326.414022 35.018811 
L 331.242188 35.136032 
L 332.449229 35.114888 
L 333.65627 34.945688 
L 336.070353 34.921661 
L 338.484436 35.172083 
L 339.691478 35.111306 
L 345.726685 35.364352 
L 346.933726 35.288094 
L 348.140767 35.399663 
L 355.383016 35.302674 
L 357.797099 35.374843 
L 360.211182 35.368729 
L 362.625264 35.275404 
L 372.281596 35.082731 
L 375.90272 35.083755 
L 383.144968 35.087461 
L 386.766093 35.236093 
L 396.422424 35.184804 
L 398.836507 35.216597 
L 401.25059 35.210709 
L 408.492838 35.237997 
L 413.321004 35.236897 
L 415.735087 35.272432 
L 418.149169 35.274242 
L 420.563252 35.253636 
L 422.977335 35.106524 
L 426.598459 35.109399 
L 431.426625 35.079293 
L 432.633666 35.01263 
L 435.047749 35.058041 
L 437.461832 35.003433 
L 442.289998 35.101058 
L 448.325205 35.266343 
L 461.60266 35.265493 
L 466.430826 35.147343 
L 467.637867 35.194392 
L 470.05195 35.092197 
L 480.915323 35.029946 
L 484.536447 34.987975 
L 491.778696 34.937879 
L 495.39982 35.014228 
L 496.606861 34.917314 
L 515.919524 35.213333 
L 515.919524 35.213333 
" clip-path="url(#p0089981175)" style="fill: none; stroke: #ff8c00; stroke-width: 1.5; stroke-linecap: square"/>
   </g>
   <g id="line2d_30">
    <path d="M 34.31 98.44 
L 35.517041 81.642505 
L 36.724083 86.970562 
L 37.931124 88.213996 
L 39.138166 88.227941 
L 40.345207 88.581767 
L 41.552248 75.14485 
L 42.75929 77.790813 
L 43.966331 80.085056 
L 45.173373 81.276365 
L 46.380414 63.776612 
L 47.587456 51.642355 
L 48.794497 55.217402 
L 50.001538 57.419138 
L 51.20858 60.096712 
L 52.415621 62.457484 
L 53.622663 63.174786 
L 54.829704 62.145748 
L 56.036745 53.331844 
L 57.243787 54.452956 
L 58.450828 53.137482 
L 59.65787 55.188312 
L 60.864911 51.563744 
L 62.071953 52.454804 
L 63.278994 34.276318 
L 64.486035 34.827067 
L 66.900118 39.038442 
L 69.314201 42.110448 
L 70.521242 43.890118 
L 71.728284 40.690369 
L 72.935325 41.355259 
L 74.142367 41.079945 
L 75.349408 39.310646 
L 76.556449 39.419066 
L 77.763491 36.493533 
L 80.177574 37.825122 
L 82.591657 40.027546 
L 83.798698 37.438687 
L 86.212781 39.981888 
L 87.419822 39.032687 
L 89.833905 41.46756 
L 91.040946 18.366781 
L 93.455029 21.186589 
L 94.662071 21.696327 
L 95.869112 22.579414 
L 98.283195 24.602638 
L 99.490236 24.792473 
L 100.697278 25.574287 
L 101.904319 26.819307 
L 103.111361 27.561663 
L 106.732485 30.823192 
L 107.939526 31.448904 
L 109.146568 25.549742 
L 110.353609 24.579691 
L 112.767692 26.396107 
L 113.974733 23.399712 
L 115.181775 22.623533 
L 116.388816 23.664721 
L 117.595858 24.460284 
L 118.802899 24.589468 
L 120.00994 23.980855 
L 121.216982 24.744332 
L 122.424023 24.652506 
L 124.838106 26.509074 
L 126.045147 22.628208 
L 127.252189 23.322682 
L 128.45923 24.14988 
L 129.666272 24.698886 
L 130.873313 24.962052 
L 132.080354 25.392834 
L 133.287396 26.108054 
L 134.494437 26.374497 
L 136.90852 27.989308 
L 138.115562 28.601753 
L 139.322603 28.114378 
L 140.529644 28.321503 
L 141.736686 23.090497 
L 142.943727 23.523756 
L 145.35781 24.84158 
L 146.564851 25.14893 
L 147.771893 25.920299 
L 148.978934 26.480673 
L 150.185976 27.168815 
L 151.393017 27.484385 
L 153.8071 28.881024 
L 155.014141 27.568837 
L 156.221183 26.895741 
L 157.428224 27.391975 
L 158.635266 28.063733 
L 159.842307 27.965431 
L 161.049348 28.626509 
L 162.25639 28.978125 
L 163.463431 29.447959 
L 164.670473 30.07712 
L 165.877514 30.03168 
L 167.084555 30.164292 
L 168.291597 30.761264 
L 169.498638 30.577218 
L 171.912721 31.034185 
L 173.119763 30.725719 
L 174.326804 31.288184 
L 175.533845 31.701073 
L 176.740887 31.670064 
L 177.947928 31.08926 
L 179.15497 31.281415 
L 180.362011 31.814506 
L 181.569052 30.43738 
L 182.776094 30.718598 
L 183.983135 27.465956 
L 185.190177 27.868747 
L 186.397218 27.665157 
L 188.811301 28.651279 
L 191.225384 29.50773 
L 192.432425 28.25371 
L 196.053549 29.537693 
L 197.260591 29.254949 
L 199.674674 30.107875 
L 200.881715 30.180555 
L 202.088756 30.644126 
L 205.709881 31.255856 
L 206.916922 31.601303 
L 208.123963 31.707396 
L 210.538046 32.498625 
L 211.745088 29.18857 
L 212.952129 29.495583 
L 215.366212 30.326311 
L 216.573253 29.041152 
L 220.194378 30.137905 
L 221.401419 30.280245 
L 222.60846 30.5635 
L 223.815502 30.979175 
L 225.022543 31.157505 
L 226.229585 31.573516 
L 228.643668 32.055528 
L 229.850709 32.461803 
L 231.05775 32.682235 
L 232.264792 33.065068 
L 233.471833 33.241666 
L 237.092957 34.32206 
L 238.299999 34.538811 
L 239.50704 34.618154 
L 241.921123 35.05499 
L 243.128164 33.897203 
L 244.335206 34.143007 
L 245.542247 34.508285 
L 246.749289 34.184451 
L 249.163372 34.210821 
L 250.370413 34.567208 
L 251.577454 34.464573 
L 252.784496 34.558261 
L 258.819703 35.943524 
L 260.026744 35.840832 
L 262.440827 36.495477 
L 263.647868 35.478888 
L 264.85491 35.5901 
L 266.061951 35.891327 
L 267.268993 35.064315 
L 268.476034 35.319402 
L 269.683076 35.363619 
L 272.097158 35.898069 
L 273.3042 35.64912 
L 274.511241 35.960314 
L 275.718283 35.896981 
L 276.925324 36.143809 
L 278.132365 35.815852 
L 280.546448 36.386326 
L 281.75349 35.746323 
L 282.960531 36.044953 
L 286.581655 36.13282 
L 287.788697 36.127277 
L 290.20278 36.540407 
L 292.616862 37.072107 
L 293.823904 36.626481 
L 297.445028 37.405421 
L 298.652069 36.543755 
L 303.480235 37.334569 
L 304.687277 37.260992 
L 305.894318 36.610488 
L 307.101359 36.5343 
L 308.308401 36.749184 
L 310.722484 36.521984 
L 311.929525 36.772129 
L 313.136566 36.116257 
L 314.343608 35.847231 
L 316.757691 36.368793 
L 317.964732 36.208121 
L 319.171773 36.455291 
L 320.378815 36.022029 
L 321.585856 36.21545 
L 322.792898 36.222011 
L 323.999939 35.650381 
L 325.206981 35.631612 
L 326.414022 35.34363 
L 327.621063 35.372138 
L 330.035146 35.790391 
L 332.449229 36.192435 
L 333.65627 34.150829 
L 336.070353 34.631933 
L 337.277395 33.16123 
L 338.484436 32.530213 
L 340.898519 32.345982 
L 342.10556 32.060315 
L 345.726685 32.498396 
L 346.933726 32.265891 
L 348.140767 31.474839 
L 351.761892 32.041856 
L 354.175974 32.418354 
L 355.383016 32.652595 
L 356.590057 32.299628 
L 357.797099 32.534724 
L 360.211182 32.508947 
L 361.418223 31.916663 
L 365.039347 32.557997 
L 366.246389 32.766858 
L 367.45343 32.838588 
L 368.660471 33.070006 
L 369.867513 33.113873 
L 371.074554 33.332525 
L 373.488637 33.557912 
L 378.316803 34.374982 
L 379.523844 34.254816 
L 380.730886 34.462552 
L 381.937927 34.536238 
L 383.144968 34.755483 
L 385.559051 34.364372 
L 389.180175 34.920677 
L 390.387217 34.990873 
L 391.594258 35.17848 
L 392.8013 34.948863 
L 396.422424 35.45508 
L 397.629465 35.420157 
L 398.836507 35.595611 
L 401.25059 35.646779 
L 402.457631 35.843529 
L 403.664672 35.406042 
L 404.871714 35.110071 
L 406.078755 35.223629 
L 407.285797 35.166257 
L 409.699879 35.501333 
L 410.906921 35.514851 
L 414.528045 36.021696 
L 416.942128 35.884799 
L 418.149169 35.861303 
L 420.563252 36.209775 
L 421.770294 35.332218 
L 422.977335 35.312916 
L 426.598459 35.729957 
L 431.426625 36.377879 
L 432.633666 36.092033 
L 433.840708 35.685297 
L 435.047749 35.782466 
L 436.254791 35.489748 
L 441.082956 36.113914 
L 442.289998 35.915398 
L 444.70408 35.870016 
L 447.118163 36.159746 
L 448.325205 36.141201 
L 449.532246 36.311255 
L 450.739288 36.243995 
L 451.946329 36.422442 
L 453.15337 35.512178 
L 454.360412 35.652031 
L 455.567453 35.365653 
L 457.981536 35.323778 
L 459.188577 35.446557 
L 460.395619 35.375833 
L 461.60266 35.483017 
L 464.016743 35.544099 
L 465.223784 35.655667 
L 466.430826 35.242169 
L 467.637867 35.161223 
L 468.844909 34.619823 
L 471.258992 34.906151 
L 473.673074 35.130958 
L 478.50124 35.698702 
L 479.708281 35.695928 
L 480.915323 35.860105 
L 482.122364 35.716371 
L 485.743488 35.796401 
L 486.95053 35.957075 
L 488.157571 35.91605 
L 491.778696 36.358032 
L 492.985737 36.328634 
L 494.192778 36.16114 
L 495.39982 36.29578 
L 496.606861 35.296542 
L 497.813903 35.392536 
L 499.020944 34.879196 
L 500.227985 34.754998 
L 503.84911 34.840501 
L 505.056151 35.003131 
L 506.263193 35.010979 
L 507.470234 34.811166 
L 512.2984 35.352403 
L 513.505441 34.899719 
L 515.919524 35.213333 
L 515.919524 35.213333 
" clip-path="url(#p0089981175)" style="fill: none; stroke-dasharray: 5.55,2.4; stroke-dashoffset: 0; stroke: #ff8c00; stroke-width: 1.5"/>
   </g>
   <g id="patch_3">
    <path d="M 34.31 98.44 
L 34.31 3.6 
" style="fill: none; stroke: #000000; stroke-width: 0.8; stroke-linejoin: miter; stroke-linecap: square"/>
   </g>
   <g id="patch_4">
    <path d="M 540 98.44 
L 540 3.6 
" style="fill: none; stroke: #000000; stroke-width: 0.8; stroke-linejoin: miter; stroke-linecap: square"/>
   </g>
   <g id="patch_5">
    <path d="M 34.31 98.44 
L 540 98.44 
" style="fill: none; stroke: #000000; stroke-width: 0.8; stroke-linejoin: miter; stroke-linecap: square"/>
   </g>
   <g id="patch_6">
    <path d="M 34.31 3.6 
L 540 3.6 
" style="fill: none; stroke: #000000; stroke-width: 0.8; stroke-linejoin: miter; stroke-linecap: square"/>
   </g>
  </g>
 </g>
 <defs>
  <clipPath id="p0089981175">
   <rect x="34.31" y="3.6" width="505.69" height="94.84"/>
  </clipPath>
 </defs>
</svg>
