<?xml version="1.0" encoding="utf-8" standalone="no"?>
<!DOCTYPE svg PUBLIC "-//W3C//DTD SVG 1.1//EN"
  "http://www.w3.org/Graphics/SVG/1.1/DTD/svg11.dtd">
<svg xmlns:xlink="http://www.w3.org/1999/xlink" width="540pt" height="129.6pt" viewBox="0 0 540 129.6" xmlns="http://www.w3.org/2000/svg" version="1.1">
 <metadata>
  <rdf:RDF xmlns:dc="http://purl.org/dc/elements/1.1/" xmlns:cc="http://creativecommons.org/ns#" xmlns:rdf="http://www.w3.org/1999/02/22-rdf-syntax-ns#">
   <cc:Work>
    <dc:type rdf:resource="http://purl.org/dc/dcmitype/StillImage"/>
    <dc:date>2025-04-06T00:36:22.776154</dc:date>
    <dc:format>image/svg+xml</dc:format>
    <dc:creator>
     <cc:Agent>
      <dc:title>Matplotlib v3.10.1, https://matplotlib.org/</dc:title>
     </cc:Agent>
    </dc:creator>
   </cc:Work>
  </rdf:RDF>
 </metadata>
 <defs>
  <style type="text/css">*{stroke-linejoin: round; stroke-linecap: butt}</style>
 </defs>
 <g id="figure_1">
  <g id="patch_1">
   <path d="M 0 129.6 
L 540 129.6 
L 540 0 
L 0 0 
z
" style="fill: #ffffff"/>
  </g>
  <g id="axes_1">
   <g id="patch_2">
    <path d="M 34.31 98.44 
L 540 98.44 
L 540 3.6 
L 34.31 3.6 
z
" style="fill: #ffffff"/>
   </g>
   <g id="matplotlib.axis_1">
    <g id="xtick_1">
     <g id="line2d_1">
      <path d="M 34.31 98.44 
L 34.31 3.6 
" clip-path="url(#p95824b44d6)" style="fill: none; stroke: #b0b0b0; stroke-width: 0.8; stroke-linecap: square"/>
     </g>
     <g id="line2d_2">
      <defs>
       <path id="madde3318ea" d="M 0 0 
L 0 3.5 
" style="stroke: #000000; stroke-width: 0.8"/>
      </defs>
      <g>
       <use xlink:href="#madde3318ea" x="34.31" y="98.44" style="stroke: #000000; stroke-width: 0.8"/>
      </g>
     </g>
     <g id="text_1">
      <text style="font-size: 10px; font-family: 'Times New Roman'; text-anchor: middle" x="34.31" y="112.38375" transform="rotate(-0 34.31 112.38375)">0</text>
     </g>
    </g>
    <g id="xtick_2">
     <g id="line2d_3">
      <path d="M 94.662071 98.44 
L 94.662071 3.6 
" clip-path="url(#p95824b44d6)" style="fill: none; stroke: #b0b0b0; stroke-width: 0.8; stroke-linecap: square"/>
     </g>
     <g id="line2d_4">
      <g>
       <use xlink:href="#madde3318ea" x="94.662071" y="98.44" style="stroke: #000000; stroke-width: 0.8"/>
      </g>
     </g>
     <g id="text_2">
      <text style="font-size: 10px; font-family: 'Times New Roman'; text-anchor: middle" x="94.662071" y="112.38375" transform="rotate(-0 94.662071 112.38375)">50</text>
     </g>
    </g>
    <g id="xtick_3">
     <g id="line2d_5">
      <path d="M 155.014141 98.44 
L 155.014141 3.6 
" clip-path="url(#p95824b44d6)" style="fill: none; stroke: #b0b0b0; stroke-width: 0.8; stroke-linecap: square"/>
     </g>
     <g id="line2d_6">
      <g>
       <use xlink:href="#madde3318ea" x="155.014141" y="98.44" style="stroke: #000000; stroke-width: 0.8"/>
      </g>
     </g>
     <g id="text_3">
      <text style="font-size: 10px; font-family: 'Times New Roman'; text-anchor: middle" x="155.014141" y="112.38375" transform="rotate(-0 155.014141 112.38375)">100</text>
     </g>
    </g>
    <g id="xtick_4">
     <g id="line2d_7">
      <path d="M 215.366212 98.44 
L 215.366212 3.6 
" clip-path="url(#p95824b44d6)" style="fill: none; stroke: #b0b0b0; stroke-width: 0.8; stroke-linecap: square"/>
     </g>
     <g id="line2d_8">
      <g>
       <use xlink:href="#madde3318ea" x="215.366212" y="98.44" style="stroke: #000000; stroke-width: 0.8"/>
      </g>
     </g>
     <g id="text_4">
      <text style="font-size: 10px; font-family: 'Times New Roman'; text-anchor: middle" x="215.366212" y="112.38375" transform="rotate(-0 215.366212 112.38375)">150</text>
     </g>
    </g>
    <g id="xtick_5">
     <g id="line2d_9">
      <path d="M 275.718283 98.44 
L 275.718283 3.6 
" clip-path="url(#p95824b44d6)" style="fill: none; stroke: #b0b0b0; stroke-width: 0.8; stroke-linecap: square"/>
     </g>
     <g id="line2d_10">
      <g>
       <use xlink:href="#madde3318ea" x="275.718283" y="98.44" style="stroke: #000000; stroke-width: 0.8"/>
      </g>
     </g>
     <g id="text_5">
      <text style="font-size: 10px; font-family: 'Times New Roman'; text-anchor: middle" x="275.718283" y="112.38375" transform="rotate(-0 275.718283 112.38375)">200</text>
     </g>
    </g>
    <g id="xtick_6">
     <g id="line2d_11">
      <path d="M 336.070353 98.44 
L 336.070353 3.6 
" clip-path="url(#p95824b44d6)" style="fill: none; stroke: #b0b0b0; stroke-width: 0.8; stroke-linecap: square"/>
     </g>
     <g id="line2d_12">
      <g>
       <use xlink:href="#madde3318ea" x="336.070353" y="98.44" style="stroke: #000000; stroke-width: 0.8"/>
      </g>
     </g>
     <g id="text_6">
      <text style="font-size: 10px; font-family: 'Times New Roman'; text-anchor: middle" x="336.070353" y="112.38375" transform="rotate(-0 336.070353 112.38375)">250</text>
     </g>
    </g>
    <g id="xtick_7">
     <g id="line2d_13">
      <path d="M 396.422424 98.44 
L 396.422424 3.6 
" clip-path="url(#p95824b44d6)" style="fill: none; stroke: #b0b0b0; stroke-width: 0.8; stroke-linecap: square"/>
     </g>
     <g id="line2d_14">
      <g>
       <use xlink:href="#madde3318ea" x="396.422424" y="98.44" style="stroke: #000000; stroke-width: 0.8"/>
      </g>
     </g>
     <g id="text_7">
      <text style="font-size: 10px; font-family: 'Times New Roman'; text-anchor: middle" x="396.422424" y="112.38375" transform="rotate(-0 396.422424 112.38375)">300</text>
     </g>
    </g>
    <g id="xtick_8">
     <g id="line2d_15">
      <path d="M 456.774495 98.44 
L 456.774495 3.6 
" clip-path="url(#p95824b44d6)" style="fill: none; stroke: #b0b0b0; stroke-width: 0.8; stroke-linecap: square"/>
     </g>
     <g id="line2d_16">
      <g>
       <use xlink:href="#madde3318ea" x="456.774495" y="98.44" style="stroke: #000000; stroke-width: 0.8"/>
      </g>
     </g>
     <g id="text_8">
      <text style="font-size: 10px; font-family: 'Times New Roman'; text-anchor: middle" x="456.774495" y="112.38375" transform="rotate(-0 456.774495 112.38375)">350</text>
     </g>
    </g>
    <g id="xtick_9">
     <g id="line2d_17">
      <path d="M 517.126565 98.44 
L 517.126565 3.6 
" clip-path="url(#p95824b44d6)" style="fill: none; stroke: #b0b0b0; stroke-width: 0.8; stroke-linecap: square"/>
     </g>
     <g id="line2d_18">
      <g>
       <use xlink:href="#madde3318ea" x="517.126565" y="98.44" style="stroke: #000000; stroke-width: 0.8"/>
      </g>
     </g>
     <g id="text_9">
      <text style="font-size: 10px; font-family: 'Times New Roman'; text-anchor: middle" x="517.126565" y="112.38375" transform="rotate(-0 517.126565 112.38375)">400</text>
     </g>
    </g>
    <g id="text_10">
     <text style="font-size: 12px; font-family: 'Times New Roman'; text-anchor: middle" x="287.155" y="126.855312" transform="rotate(-0 287.155 126.855312)">Simulation Run</text>
    </g>
   </g>
   <g id="matplotlib.axis_2">
    <g id="ytick_1">
     <g id="line2d_19">
      <path d="M 34.31 98.44 
L 540 98.44 
" clip-path="url(#p95824b44d6)" style="fill: none; stroke: #b0b0b0; stroke-width: 0.8; stroke-linecap: square"/>
     </g>
     <g id="line2d_20">
      <defs>
       <path id="m02a8504672" d="M 0 0 
L -3.5 0 
" style="stroke: #000000; stroke-width: 0.8"/>
      </defs>
      <g>
       <use xlink:href="#m02a8504672" x="34.31" y="98.44" style="stroke: #000000; stroke-width: 0.8"/>
      </g>
     </g>
     <g id="text_11">
      <text style="font-size: 10px; font-family: 'Times New Roman'; text-anchor: end" x="27.31" y="101.911875" transform="rotate(-0 27.31 101.911875)">0.0</text>
     </g>
    </g>
    <g id="ytick_2">
     <g id="line2d_21">
      <path d="M 34.31 66.826667 
L 540 66.826667 
" clip-path="url(#p95824b44d6)" style="fill: none; stroke: #b0b0b0; stroke-width: 0.8; stroke-linecap: square"/>
     </g>
     <g id="line2d_22">
      <g>
       <use xlink:href="#m02a8504672" x="34.31" y="66.826667" style="stroke: #000000; stroke-width: 0.8"/>
      </g>
     </g>
     <g id="text_12">
      <text style="font-size: 10px; font-family: 'Times New Roman'; text-anchor: end" x="27.31" y="70.298542" transform="rotate(-0 27.31 70.298542)">0.5</text>
     </g>
    </g>
    <g id="ytick_3">
     <g id="line2d_23">
      <path d="M 34.31 35.213333 
L 540 35.213333 
" clip-path="url(#p95824b44d6)" style="fill: none; stroke: #b0b0b0; stroke-width: 0.8; stroke-linecap: square"/>
     </g>
     <g id="line2d_24">
      <g>
       <use xlink:href="#m02a8504672" x="34.31" y="35.213333" style="stroke: #000000; stroke-width: 0.8"/>
      </g>
     </g>
     <g id="text_13">
      <text style="font-size: 10px; font-family: 'Times New Roman'; text-anchor: end" x="27.31" y="38.685208" transform="rotate(-0 27.31 38.685208)">1.0</text>
     </g>
    </g>
    <g id="ytick_4">
     <g id="line2d_25">
      <path d="M 34.31 3.6 
L 540 3.6 
" clip-path="url(#p95824b44d6)" style="fill: none; stroke: #b0b0b0; stroke-width: 0.8; stroke-linecap: square"/>
     </g>
     <g id="line2d_26">
      <g>
       <use xlink:href="#m02a8504672" x="34.31" y="3.6" style="stroke: #000000; stroke-width: 0.8"/>
      </g>
     </g>
     <g id="text_14">
      <text style="font-size: 10px; font-family: 'Times New Roman'; text-anchor: end" x="27.31" y="7.071875" transform="rotate(-0 27.31 7.071875)">1.5</text>
     </g>
    </g>
    <g id="text_15">
     <text style="font-size: 12px; font-family: 'Times New Roman'; text-anchor: middle" x="8.243125" y="51.02" transform="rotate(-90 8.243125 51.02)">Normalized Value</text>
    </g>
   </g>
   <g id="line2d_27">
    <path d="M 34.31 62.221454 
L 35.517041 48.218287 
L 36.724083 39.690814 
L 37.931124 45.209975 
L 39.138166 44.157925 
L 40.345207 43.88947 
L 42.75929 36.440212 
L 43.966331 35.922817 
L 45.173373 36.413681 
L 46.380414 37.290024 
L 47.587456 36.132555 
L 50.001538 35.727483 
L 51.20858 34.502492 
L 52.415621 35.769761 
L 53.622663 36.55813 
L 54.829704 36.640139 
L 56.036745 36.033584 
L 58.450828 36.421059 
L 59.65787 36.965403 
L 60.864911 34.618166 
L 62.071953 34.258755 
L 63.278994 34.837444 
L 64.486035 34.40177 
L 65.693077 34.479814 
L 68.10716 34.26803 
L 69.314201 33.96279 
L 70.521242 33.96897 
L 71.728284 34.95292 
L 72.935325 35.532514 
L 74.142367 35.808377 
L 75.349408 36.39375 
L 76.556449 36.601768 
L 81.384615 36.153323 
L 82.591657 36.318585 
L 83.798698 36.715249 
L 85.005739 36.554721 
L 86.212781 36.582586 
L 87.419822 36.287939 
L 88.626864 36.63874 
L 89.833905 36.738825 
L 92.247988 36.63836 
L 93.455029 36.035009 
L 94.662071 36.163874 
L 95.869112 36.444568 
L 97.076153 35.970218 
L 98.283195 35.970717 
L 99.490236 36.553059 
L 100.697278 36.619387 
L 101.904319 36.465639 
L 103.111361 36.594716 
L 104.318402 36.463687 
L 105.525443 36.745483 
L 107.939526 37.025035 
L 109.146568 36.994547 
L 110.353609 36.801902 
L 112.767692 37.316458 
L 113.974733 37.369847 
L 115.181775 37.277694 
L 117.595858 37.506503 
L 118.802899 37.841828 
L 120.00994 37.937183 
L 123.631065 37.664067 
L 126.045147 38.073674 
L 127.252189 38.445324 
L 128.45923 38.64305 
L 129.666272 38.401559 
L 130.873313 38.623292 
L 133.287396 38.500291 
L 134.494437 38.677291 
L 135.701479 38.740786 
L 136.90852 38.469718 
L 139.322603 38.633955 
L 140.529644 38.559932 
L 141.736686 38.075974 
L 142.943727 38.241984 
L 145.35781 37.748639 
L 146.564851 37.875572 
L 147.771893 37.49865 
L 148.978934 37.516226 
L 151.393017 37.034548 
L 152.600058 37.09917 
L 153.8071 36.647602 
L 156.221183 36.508847 
L 157.428224 36.516199 
L 158.635266 36.248714 
L 159.842307 36.358996 
L 161.049348 36.169974 
L 167.084555 36.782488 
L 168.291597 36.62032 
L 170.70568 36.943663 
L 174.326804 37.346244 
L 175.533845 36.995055 
L 176.740887 37.105322 
L 177.947928 37.089257 
L 179.15497 37.193749 
L 180.362011 37.076442 
L 182.776094 37.272909 
L 183.983135 37.212865 
L 187.604259 37.568097 
L 190.018342 37.461757 
L 193.639467 37.675158 
L 194.846508 37.552939 
L 196.053549 37.650776 
L 198.467632 37.64052 
L 199.674674 37.662661 
L 200.881715 37.483148 
L 204.502839 37.485383 
L 205.709881 37.503488 
L 206.916922 37.653948 
L 208.123963 37.657891 
L 210.538046 37.285782 
L 211.745088 37.408574 
L 216.573253 37.463541 
L 217.780295 37.55208 
L 218.987336 37.40602 
L 222.60846 37.340549 
L 223.815502 37.26113 
L 225.022543 37.39922 
L 227.436626 37.243455 
L 228.643668 37.36267 
L 229.850709 37.228547 
L 231.05775 36.862002 
L 234.678875 36.695933 
L 235.885916 36.525046 
L 238.299999 36.740893 
L 240.714082 36.884386 
L 241.921123 37.023489 
L 244.335206 36.883348 
L 249.163372 37.126292 
L 250.370413 37.307101 
L 256.40562 37.261213 
L 260.026744 36.985303 
L 261.233786 36.735288 
L 266.061951 36.758269 
L 268.476034 36.932576 
L 274.511241 36.935503 
L 275.718283 37.006452 
L 280.546448 36.731906 
L 281.75349 36.644299 
L 290.20278 36.889206 
L 291.409821 37.017968 
L 292.616862 36.968819 
L 298.652069 37.275498 
L 299.859111 37.045315 
L 302.273194 36.983048 
L 303.480235 36.890299 
L 307.101359 36.970435 
L 308.308401 36.90113 
L 310.722484 37.042653 
L 313.136566 37.012444 
L 321.585856 36.984322 
L 323.999939 37.139815 
L 326.414022 37.10573 
L 327.621063 35.638657 
L 334.863312 35.680844 
L 338.484436 35.737635 
L 342.10556 35.526601 
L 344.519643 35.507295 
L 349.347809 35.37606 
L 351.761892 35.535552 
L 352.968933 35.413804 
L 354.175974 35.475524 
L 357.797099 35.354511 
L 363.832306 35.540899 
L 373.488637 35.572987 
L 375.90272 35.610254 
L 378.316803 35.45404 
L 380.730886 35.468562 
L 386.766093 35.553384 
L 389.180175 35.441358 
L 391.594258 35.482347 
L 392.8013 35.420003 
L 395.215383 35.457759 
L 398.836507 35.39456 
L 410.906921 35.198374 
L 413.321004 35.373551 
L 416.942128 35.351024 
L 421.770294 35.471952 
L 424.184376 35.494871 
L 427.805501 35.258353 
L 431.426625 35.234734 
L 433.840708 35.177724 
L 436.254791 35.232936 
L 438.668873 35.336374 
L 441.082956 35.262495 
L 443.497039 35.253119 
L 448.325205 35.241931 
L 449.532246 35.216796 
L 451.946329 34.979021 
L 461.60266 34.953521 
L 500.227985 35.021337 
L 515.919524 35.213333 
L 515.919524 35.213333 
" clip-path="url(#p95824b44d6)" style="fill: none; stroke: #4169e1; stroke-width: 1.5; stroke-linecap: square"/>
   </g>
   <g id="line2d_28">
    <path d="M 34.31 98.44 
L 35.517041 77.670412 
L 36.724083 69.189161 
L 37.931124 66.822597 
L 39.138166 72.677147 
L 40.345207 76.932789 
L 42.75929 64.439508 
L 43.966331 67.990505 
L 45.173373 70.805765 
L 46.380414 72.504531 
L 47.587456 73.104877 
L 48.794497 75.0142 
L 50.001538 76.615444 
L 51.20858 75.845212 
L 52.415621 74.705833 
L 53.622663 75.048657 
L 54.829704 76.336066 
L 56.036745 76.797995 
L 58.450828 78.704312 
L 59.65787 78.942304 
L 60.864911 66.951596 
L 62.071953 67.948921 
L 63.278994 68.317275 
L 64.486035 68.973222 
L 66.900118 71.02605 
L 68.10716 71.94173 
L 69.314201 72.538815 
L 70.521242 73.374216 
L 71.728284 70.978575 
L 72.935325 70.672136 
L 74.142367 71.222842 
L 75.349408 70.76646 
L 77.763491 72.057992 
L 78.970532 72.74757 
L 80.177574 73.177002 
L 81.384615 73.792355 
L 82.591657 74.277805 
L 83.798698 74.169806 
L 86.212781 75.157428 
L 87.419822 75.270214 
L 88.626864 75.18735 
L 92.247988 76.537332 
L 93.455029 75.086036 
L 94.662071 75.456011 
L 95.869112 75.472402 
L 97.076153 74.666454 
L 98.283195 75.106703 
L 99.490236 73.591284 
L 100.697278 74.009382 
L 104.318402 74.911801 
L 105.525443 74.80769 
L 109.146568 75.680931 
L 110.353609 75.788897 
L 111.56065 75.546974 
L 112.767692 75.562318 
L 116.388816 76.427825 
L 117.595858 76.58835 
L 118.802899 76.062432 
L 122.424023 76.851529 
L 123.631065 76.918172 
L 126.045147 76.808583 
L 127.252189 75.9594 
L 128.45923 75.920966 
L 130.873313 75.578424 
L 133.287396 76.049525 
L 134.494437 76.040656 
L 135.701479 76.268307 
L 136.90852 75.864587 
L 140.529644 76.451525 
L 141.736686 74.487934 
L 142.943727 74.488427 
L 144.150769 73.878046 
L 145.35781 73.779984 
L 146.564851 73.883613 
L 147.771893 72.727587 
L 148.978934 72.992316 
L 150.185976 72.869169 
L 151.393017 72.284 
L 152.600058 72.504855 
L 153.8071 70.62597 
L 156.221183 71.056536 
L 157.428224 71.321811 
L 158.635266 70.801996 
L 159.842307 70.931242 
L 161.049348 70.793393 
L 162.25639 70.914219 
L 163.463431 70.741652 
L 164.670473 70.995166 
L 165.877514 71.075087 
L 169.498638 70.617582 
L 170.70568 70.700618 
L 171.912721 70.666202 
L 173.119763 70.38803 
L 174.326804 70.602514 
L 175.533845 69.309998 
L 176.740887 69.40282 
L 177.947928 69.641543 
L 185.190177 70.193348 
L 186.397218 70.005763 
L 190.018342 70.474215 
L 191.225384 70.567977 
L 192.432425 70.309361 
L 193.639467 70.463884 
L 196.053549 70.533613 
L 199.674674 71.102064 
L 200.881715 70.82771 
L 203.295798 71.137522 
L 204.502839 71.170748 
L 205.709881 71.356512 
L 206.916922 71.201703 
L 208.123963 71.389316 
L 209.331005 71.14612 
L 210.538046 70.681398 
L 211.745088 70.634191 
L 215.366212 71.096353 
L 216.573253 70.987187 
L 217.780295 71.040409 
L 218.987336 70.872602 
L 220.194378 71.050196 
L 222.60846 71.282636 
L 223.815502 71.349631 
L 225.022543 71.200888 
L 227.436626 71.334611 
L 229.850709 71.117643 
L 231.05775 68.964622 
L 234.678875 69.305595 
L 235.885916 68.962465 
L 237.092957 68.753564 
L 240.714082 68.956052 
L 241.921123 68.773969 
L 244.335206 68.916881 
L 245.542247 69.047895 
L 247.95633 69.027428 
L 249.163372 69.191107 
L 250.370413 68.733771 
L 255.198579 69.359126 
L 260.026744 69.32423 
L 261.233786 68.233576 
L 263.647868 68.512615 
L 264.85491 68.534688 
L 266.061951 68.689555 
L 267.268993 68.535302 
L 276.925324 69.345441 
L 278.132365 69.283874 
L 279.339407 69.416735 
L 280.546448 69.054507 
L 281.75349 69.030505 
L 285.374614 69.422956 
L 287.788697 69.276192 
L 290.20278 69.546107 
L 291.409821 69.307075 
L 293.823904 69.393183 
L 298.652069 69.541965 
L 299.859111 68.438077 
L 302.273194 68.599224 
L 303.480235 68.529253 
L 304.687277 68.630151 
L 305.894318 68.516417 
L 308.308401 68.58287 
L 309.515442 68.349483 
L 316.757691 68.974307 
L 321.585856 69.24361 
L 322.792898 68.992938 
L 326.414022 69.20017 
L 327.621063 13.923186 
L 328.828105 14.267265 
L 330.035146 14.46276 
L 331.242188 14.530897 
L 333.65627 15.177795 
L 334.863312 15.351543 
L 338.484436 16.297013 
L 339.691478 16.325081 
L 340.898519 16.059435 
L 346.933726 17.347785 
L 351.761892 17.962523 
L 352.968933 17.851734 
L 359.00414 18.854912 
L 361.418223 19.385549 
L 362.625264 19.533945 
L 366.246389 20.288877 
L 375.90272 22.37371 
L 377.109761 22.289232 
L 385.559051 23.766855 
L 386.766093 24.009541 
L 387.973134 23.958872 
L 391.594258 24.637368 
L 395.215383 25.076214 
L 397.629465 25.555556 
L 398.836507 25.636002 
L 400.043548 25.860067 
L 401.25059 25.798563 
L 402.457631 26.025799 
L 404.871714 26.339506 
L 407.285797 26.588068 
L 408.492838 26.240118 
L 410.906921 26.691232 
L 412.113962 26.497746 
L 422.977335 27.452532 
L 424.184376 27.668697 
L 425.391418 27.580722 
L 426.598459 27.681876 
L 427.805501 27.654441 
L 431.426625 28.270583 
L 432.633666 28.340805 
L 435.047749 28.756646 
L 439.875915 29.00486 
L 442.289998 29.342028 
L 444.70408 29.691844 
L 445.911122 29.580854 
L 447.118163 29.138193 
L 449.532246 29.512327 
L 450.739288 28.858438 
L 451.946329 28.794291 
L 460.395619 30.011821 
L 464.016743 30.461699 
L 467.637867 30.758169 
L 470.05195 31.08222 
L 471.258992 31.091954 
L 472.466033 31.25366 
L 473.673074 30.899947 
L 478.50124 31.467015 
L 479.708281 31.34901 
L 484.536447 32.015037 
L 485.743488 32.012646 
L 490.571654 32.626061 
L 492.985737 32.867152 
L 502.642068 34.000896 
L 506.263193 34.295525 
L 511.091358 34.760257 
L 513.505441 34.923315 
L 515.919524 35.213333 
L 515.919524 35.213333 
" clip-path="url(#p95824b44d6)" style="fill: none; stroke-dasharray: 5.55,2.4; stroke-dashoffset: 0; stroke: #4169e1; stroke-width: 1.5"/>
   </g>
   <g id="line2d_29">
    <path d="M 34.31 57.701497 
L 35.517041 47.219347 
L 36.724083 39.828765 
L 37.931124 43.683652 
L 39.138166 40.930575 
L 40.345207 41.178846 
L 42.75929 36.530704 
L 43.966331 36.297672 
L 46.380414 37.632918 
L 50.001538 36.746918 
L 51.20858 35.960574 
L 52.415621 36.7577 
L 53.622663 37.044083 
L 54.829704 36.877965 
L 56.036745 36.498551 
L 57.243787 36.523613 
L 58.450828 36.412811 
L 59.65787 36.628587 
L 60.864911 34.875495 
L 62.071953 34.367987 
L 63.278994 34.919385 
L 64.486035 34.518759 
L 65.693077 34.542807 
L 66.900118 34.445184 
L 68.10716 34.481231 
L 69.314201 34.233736 
L 70.521242 34.535068 
L 71.728284 35.339838 
L 72.935325 35.700961 
L 74.142367 35.90057 
L 75.349408 36.382553 
L 76.556449 36.455454 
L 78.970532 36.047355 
L 82.591657 36.004945 
L 83.798698 36.280543 
L 85.005739 36.174952 
L 86.212781 36.237992 
L 87.419822 36.073865 
L 88.626864 36.382272 
L 89.833905 36.461658 
L 91.040946 36.377756 
L 92.247988 36.425226 
L 93.455029 35.945226 
L 95.869112 36.333587 
L 97.076153 35.848394 
L 98.283195 35.640785 
L 99.490236 36.125999 
L 100.697278 36.132273 
L 101.904319 35.932866 
L 103.111361 35.942293 
L 104.318402 35.834478 
L 105.525443 36.062504 
L 107.939526 36.103463 
L 110.353609 35.740563 
L 111.56065 36.010309 
L 113.974733 36.042949 
L 115.181775 35.92159 
L 117.595858 36.151006 
L 118.802899 36.418159 
L 120.00994 36.498876 
L 123.631065 36.27773 
L 124.838106 36.483455 
L 126.045147 36.576044 
L 128.45923 37.062915 
L 129.666272 36.956151 
L 130.873313 37.067907 
L 133.287396 36.989873 
L 135.701479 37.122753 
L 136.90852 36.846784 
L 139.322603 36.973515 
L 140.529644 36.918542 
L 141.736686 36.575768 
L 142.943727 36.706564 
L 145.35781 36.391039 
L 146.564851 36.455204 
L 147.771893 36.280487 
L 148.978934 36.289774 
L 151.393017 35.927356 
L 152.600058 36.003087 
L 153.8071 35.659612 
L 156.221183 35.446959 
L 157.428224 35.4859 
L 158.635266 35.269998 
L 159.842307 35.398569 
L 161.049348 35.246643 
L 163.463431 35.486633 
L 167.084555 35.816079 
L 168.291597 35.619543 
L 173.119763 36.160476 
L 174.326804 36.165575 
L 175.533845 35.941978 
L 176.740887 36.036392 
L 180.362011 35.992632 
L 182.776094 36.24294 
L 183.983135 36.162498 
L 187.604259 36.355677 
L 190.018342 36.2633 
L 193.639467 36.352684 
L 194.846508 36.268798 
L 198.467632 36.434293 
L 200.881715 36.350333 
L 203.295798 36.214328 
L 206.916922 36.402046 
L 209.331005 36.285871 
L 210.538046 36.12723 
L 212.952129 36.229783 
L 229.850709 36.303145 
L 231.05775 36.057981 
L 234.678875 35.986902 
L 235.885916 35.835882 
L 238.299999 35.992158 
L 240.714082 36.101786 
L 241.921123 36.226693 
L 244.335206 36.135212 
L 249.163372 36.294259 
L 250.370413 36.456475 
L 260.026744 36.175424 
L 261.233786 35.961263 
L 263.647868 35.942515 
L 268.476034 36.19063 
L 279.339407 36.244374 
L 281.75349 36.075638 
L 291.409821 36.377756 
L 293.823904 36.373531 
L 298.652069 36.51716 
L 299.859111 36.345895 
L 308.308401 36.212078 
L 310.722484 36.305878 
L 315.550649 36.267638 
L 317.964732 36.232723 
L 320.378815 36.209275 
L 322.792898 36.305991 
L 326.414022 36.299435 
L 327.621063 35.671488 
L 333.65627 35.612922 
L 336.070353 35.705907 
L 339.691478 35.636068 
L 343.312602 35.532019 
L 346.933726 35.539442 
L 350.55485 35.542102 
L 351.761892 35.604764 
L 352.968933 35.515374 
L 355.383016 35.516439 
L 357.797099 35.477093 
L 365.039347 35.581753 
L 373.488637 35.628676 
L 377.109761 35.588833 
L 379.523844 35.474032 
L 384.35201 35.575058 
L 400.043548 35.367451 
L 402.457631 35.347323 
L 408.492838 35.333053 
L 410.906921 35.32997 
L 413.321004 35.464536 
L 416.942128 35.450615 
L 421.770294 35.543733 
L 424.184376 35.535698 
L 430.219583 35.371141 
L 435.047749 35.251816 
L 441.082956 35.355031 
L 443.497039 35.348871 
L 448.325205 35.347356 
L 460.395619 35.095011 
L 466.430826 35.096485 
L 470.05195 35.059849 
L 472.466033 35.086027 
L 474.880116 35.005502 
L 479.708281 35.023721 
L 496.606861 35.01731 
L 515.919524 35.213333 
L 515.919524 35.213333 
" clip-path="url(#p95824b44d6)" style="fill: none; stroke: #ff8c00; stroke-width: 1.5; stroke-linecap: square"/>
   </g>
   <g id="line2d_30">
    <path d="M 34.31 98.44 
L 35.517041 66.571587 
L 36.724083 45.509881 
L 37.931124 45.812238 
L 39.138166 47.544398 
L 40.345207 55.93761 
L 42.75929 47.552584 
L 43.966331 53.080739 
L 45.173373 56.645215 
L 46.380414 58.919352 
L 47.587456 61.879784 
L 50.001538 66.468991 
L 51.20858 66.089591 
L 52.415621 65.347069 
L 54.829704 68.528538 
L 56.036745 69.351277 
L 57.243787 70.802252 
L 58.450828 72.047118 
L 59.65787 72.963209 
L 60.864911 54.460263 
L 62.071953 54.574554 
L 63.278994 54.212751 
L 64.486035 54.75 
L 65.693077 56.363787 
L 68.10716 59.182984 
L 69.314201 59.976334 
L 70.521242 60.427022 
L 71.728284 55.791677 
L 72.935325 55.873676 
L 74.142367 56.744269 
L 75.349408 55.64469 
L 76.556449 56.779499 
L 77.763491 57.253959 
L 78.970532 58.068855 
L 81.384615 60.057127 
L 82.591657 60.942506 
L 83.798698 60.932075 
L 86.212781 62.454684 
L 87.419822 62.910582 
L 88.626864 62.441532 
L 92.247988 64.439495 
L 93.455029 61.845057 
L 94.662071 62.063088 
L 95.869112 62.154467 
L 97.076153 59.288574 
L 98.283195 59.351036 
L 99.490236 56.374345 
L 100.697278 57.124889 
L 101.904319 57.203869 
L 103.111361 57.913367 
L 104.318402 58.404715 
L 105.525443 58.182193 
L 107.939526 59.465723 
L 109.146568 59.314278 
L 110.353609 59.481161 
L 111.56065 58.729858 
L 113.974733 59.884463 
L 115.181775 60.165248 
L 116.388816 60.623014 
L 117.595858 60.65535 
L 118.802899 59.738489 
L 123.631065 61.26931 
L 124.838106 60.837752 
L 126.045147 61.137123 
L 127.252189 59.667901 
L 128.45923 59.328401 
L 130.873313 59.746367 
L 133.287396 60.599075 
L 134.494437 60.80103 
L 135.701479 61.220013 
L 136.90852 59.775223 
L 140.529644 60.798457 
L 141.736686 58.18373 
L 142.943727 58.179534 
L 144.150769 58.039357 
L 145.35781 57.724515 
L 146.564851 58.046603 
L 147.771893 57.639545 
L 148.978934 58.062174 
L 150.185976 57.766743 
L 151.393017 57.027627 
L 152.600058 57.282918 
L 153.8071 54.30694 
L 155.014141 54.253605 
L 156.221183 54.486766 
L 157.428224 54.868636 
L 158.635266 53.895044 
L 159.842307 53.820651 
L 162.25639 53.265701 
L 165.877514 53.752387 
L 167.084555 53.419697 
L 168.291597 52.578102 
L 169.498638 52.300081 
L 171.912721 52.153056 
L 173.119763 51.748862 
L 174.326804 52.147057 
L 175.533845 50.84277 
L 176.740887 50.937665 
L 180.362011 51.919773 
L 181.569052 51.260345 
L 185.190177 51.783477 
L 186.397218 51.764534 
L 187.604259 52.10414 
L 188.811301 52.222856 
L 191.225384 52.860121 
L 192.432425 52.704604 
L 194.846508 52.948591 
L 196.053549 53.056187 
L 199.674674 53.887767 
L 204.502839 54.135417 
L 205.709881 54.444992 
L 206.916922 54.425846 
L 208.123963 54.708164 
L 209.331005 54.639006 
L 210.538046 53.871264 
L 211.745088 53.903642 
L 215.366212 54.643085 
L 216.573253 54.308139 
L 217.780295 54.469143 
L 218.987336 54.412237 
L 222.60846 55.181023 
L 223.815502 55.388869 
L 225.022543 54.589483 
L 227.436626 54.98679 
L 228.643668 54.724358 
L 229.850709 54.668567 
L 231.05775 52.093879 
L 232.264792 52.372207 
L 233.471833 52.323915 
L 234.678875 52.599251 
L 235.885916 51.767417 
L 237.092957 51.429669 
L 239.50704 51.864119 
L 240.714082 51.741735 
L 241.921123 51.233343 
L 243.128164 51.197519 
L 245.542247 51.680668 
L 246.749289 51.836433 
L 247.95633 51.699796 
L 249.163372 51.959687 
L 250.370413 50.851756 
L 255.198579 51.668568 
L 256.40562 51.538088 
L 257.612661 51.713917 
L 258.819703 51.583883 
L 260.026744 51.701382 
L 261.233786 49.447761 
L 263.647868 49.830177 
L 264.85491 49.688368 
L 266.061951 49.926899 
L 267.268993 49.63251 
L 268.476034 49.74682 
L 274.511241 50.862614 
L 275.718283 50.90861 
L 276.925324 51.143319 
L 278.132365 51.231741 
L 279.339407 51.456282 
L 280.546448 51.030327 
L 281.75349 51.02065 
L 282.960531 51.125761 
L 285.374614 51.550854 
L 287.788697 51.087299 
L 290.20278 51.472081 
L 291.409821 51.155313 
L 298.652069 51.695989 
L 299.859111 50.035867 
L 302.273194 50.356877 
L 303.480235 50.062528 
L 305.894318 50.095017 
L 307.101359 50.042209 
L 308.308401 50.184361 
L 309.515442 49.732469 
L 311.929525 50.06435 
L 316.757691 50.81761 
L 320.378815 50.830067 
L 321.585856 51.027002 
L 322.792898 50.49698 
L 325.206981 50.81174 
L 326.414022 50.796757 
L 327.621063 23.200544 
L 330.035146 23.720162 
L 331.242188 23.709359 
L 333.65627 24.264979 
L 334.863312 24.191757 
L 338.484436 25.038443 
L 339.691478 24.922805 
L 340.898519 24.939701 
L 342.10556 25.203185 
L 343.312602 25.20982 
L 344.519643 25.387464 
L 345.726685 25.448378 
L 349.347809 26.09559 
L 351.761892 26.026722 
L 352.968933 25.688136 
L 356.590057 25.916928 
L 360.211182 26.615609 
L 361.418223 26.825158 
L 362.625264 26.909172 
L 369.867513 28.319893 
L 375.90272 29.475004 
L 378.316803 29.232277 
L 380.730886 29.315592 
L 385.559051 30.124196 
L 386.766093 30.357207 
L 387.973134 30.3265 
L 392.8013 31.025219 
L 394.008341 30.928903 
L 396.422424 31.231672 
L 397.629465 31.432708 
L 398.836507 31.205242 
L 402.457631 31.264514 
L 406.078755 31.851067 
L 408.492838 31.802905 
L 410.906921 32.188478 
L 412.113962 31.576448 
L 415.735087 31.759568 
L 416.942128 31.554144 
L 421.770294 31.63753 
L 424.184376 31.952799 
L 427.805501 31.788742 
L 430.219583 32.187193 
L 432.633666 32.229077 
L 435.047749 32.566881 
L 439.875915 32.702742 
L 441.082956 32.897127 
L 443.497039 32.988493 
L 444.70408 33.138023 
L 445.911122 32.703508 
L 447.118163 31.394549 
L 449.532246 31.626408 
L 450.739288 30.50616 
L 451.946329 30.437754 
L 457.981536 31.208567 
L 464.016743 31.92346 
L 468.844909 32.433338 
L 470.05195 32.60903 
L 471.258992 32.589226 
L 472.466033 32.737548 
L 473.673074 32.156167 
L 476.087157 32.446517 
L 478.50124 32.541288 
L 479.708281 32.095766 
L 483.329406 32.541388 
L 484.536447 32.63508 
L 485.743488 32.590787 
L 490.571654 33.185685 
L 492.985737 33.422096 
L 502.642068 34.607176 
L 503.84911 34.52853 
L 507.470234 34.839125 
L 508.677275 34.650365 
L 511.091358 34.930483 
L 512.2984 34.843921 
L 515.919524 35.213333 
L 515.919524 35.213333 
" clip-path="url(#p95824b44d6)" style="fill: none; stroke-dasharray: 5.55,2.4; stroke-dashoffset: 0; stroke: #ff8c00; stroke-width: 1.5"/>
   </g>
   <g id="patch_3">
    <path d="M 34.31 98.44 
L 34.31 3.6 
" style="fill: none; stroke: #000000; stroke-width: 0.8; stroke-linejoin: miter; stroke-linecap: square"/>
   </g>
   <g id="patch_4">
    <path d="M 540 98.44 
L 540 3.6 
" style="fill: none; stroke: #000000; stroke-width: 0.8; stroke-linejoin: miter; stroke-linecap: square"/>
   </g>
   <g id="patch_5">
    <path d="M 34.31 98.44 
L 540 98.44 
" style="fill: none; stroke: #000000; stroke-width: 0.8; stroke-linejoin: miter; stroke-linecap: square"/>
   </g>
   <g id="patch_6">
    <path d="M 34.31 3.6 
L 540 3.6 
" style="fill: none; stroke: #000000; stroke-width: 0.8; stroke-linejoin: miter; stroke-linecap: square"/>
   </g>
  </g>
 </g>
 <defs>
  <clipPath id="p95824b44d6">
   <rect x="34.31" y="3.6" width="505.69" height="94.84"/>
  </clipPath>
 </defs>
</svg>
