<?xml version="1.0" encoding="utf-8" standalone="no"?>
<!DOCTYPE svg PUBLIC "-//W3C//DTD SVG 1.1//EN"
  "http://www.w3.org/Graphics/SVG/1.1/DTD/svg11.dtd">
<svg xmlns:xlink="http://www.w3.org/1999/xlink" width="540pt" height="129.6pt" viewBox="0 0 540 129.6" xmlns="http://www.w3.org/2000/svg" version="1.1">
 <metadata>
  <rdf:RDF xmlns:dc="http://purl.org/dc/elements/1.1/" xmlns:cc="http://creativecommons.org/ns#" xmlns:rdf="http://www.w3.org/1999/02/22-rdf-syntax-ns#">
   <cc:Work>
    <dc:type rdf:resource="http://purl.org/dc/dcmitype/StillImage"/>
    <dc:date>2025-03-30T16:28:41.817055</dc:date>
    <dc:format>image/svg+xml</dc:format>
    <dc:creator>
     <cc:Agent>
      <dc:title>Matplotlib v3.10.1, https://matplotlib.org/</dc:title>
     </cc:Agent>
    </dc:creator>
   </cc:Work>
  </rdf:RDF>
 </metadata>
 <defs>
  <style type="text/css">*{stroke-linejoin: round; stroke-linecap: butt}</style>
 </defs>
 <g id="figure_1">
  <g id="patch_1">
   <path d="M 0 129.6 
L 540 129.6 
L 540 0 
L 0 0 
z
" style="fill: #ffffff"/>
  </g>
  <g id="axes_1">
   <g id="patch_2">
    <path d="M 35.03 97 
L 540 97 
L 540 0 
L 35.03 0 
z
" style="fill: #ffffff"/>
   </g>
   <g id="matplotlib.axis_1">
    <g id="xtick_1">
     <g id="line2d_1">
      <path d="M 35.03 97 
L 35.03 0 
" clip-path="url(#p28194927e6)" style="fill: none; stroke: #b0b0b0; stroke-width: 0.8; stroke-linecap: square"/>
     </g>
     <g id="line2d_2">
      <defs>
       <path id="m8f2989493b" d="M 0 0 
L 0 3.5 
" style="stroke: #000000; stroke-width: 0.8"/>
      </defs>
      <g>
       <use xlink:href="#m8f2989493b" x="35.03" y="97" style="stroke: #000000; stroke-width: 0.8"/>
      </g>
     </g>
     <g id="text_1">
      <text style="font-size: 10px; font-family: 'Times New Roman'; text-anchor: middle" x="35.03" y="110.94375" transform="rotate(-0 35.03 110.94375)">0</text>
     </g>
    </g>
    <g id="xtick_2">
     <g id="line2d_3">
      <path d="M 95.296142 97 
L 95.296142 0 
" clip-path="url(#p28194927e6)" style="fill: none; stroke: #b0b0b0; stroke-width: 0.8; stroke-linecap: square"/>
     </g>
     <g id="line2d_4">
      <g>
       <use xlink:href="#m8f2989493b" x="95.296142" y="97" style="stroke: #000000; stroke-width: 0.8"/>
      </g>
     </g>
     <g id="text_2">
      <text style="font-size: 10px; font-family: 'Times New Roman'; text-anchor: middle" x="95.296142" y="110.94375" transform="rotate(-0 95.296142 110.94375)">50</text>
     </g>
    </g>
    <g id="xtick_3">
     <g id="line2d_5">
      <path d="M 155.562283 97 
L 155.562283 0 
" clip-path="url(#p28194927e6)" style="fill: none; stroke: #b0b0b0; stroke-width: 0.8; stroke-linecap: square"/>
     </g>
     <g id="line2d_6">
      <g>
       <use xlink:href="#m8f2989493b" x="155.562283" y="97" style="stroke: #000000; stroke-width: 0.8"/>
      </g>
     </g>
     <g id="text_3">
      <text style="font-size: 10px; font-family: 'Times New Roman'; text-anchor: middle" x="155.562283" y="110.94375" transform="rotate(-0 155.562283 110.94375)">100</text>
     </g>
    </g>
    <g id="xtick_4">
     <g id="line2d_7">
      <path d="M 215.828425 97 
L 215.828425 0 
" clip-path="url(#p28194927e6)" style="fill: none; stroke: #b0b0b0; stroke-width: 0.8; stroke-linecap: square"/>
     </g>
     <g id="line2d_8">
      <g>
       <use xlink:href="#m8f2989493b" x="215.828425" y="97" style="stroke: #000000; stroke-width: 0.8"/>
      </g>
     </g>
     <g id="text_4">
      <text style="font-size: 10px; font-family: 'Times New Roman'; text-anchor: middle" x="215.828425" y="110.94375" transform="rotate(-0 215.828425 110.94375)">150</text>
     </g>
    </g>
    <g id="xtick_5">
     <g id="line2d_9">
      <path d="M 276.094566 97 
L 276.094566 0 
" clip-path="url(#p28194927e6)" style="fill: none; stroke: #b0b0b0; stroke-width: 0.8; stroke-linecap: square"/>
     </g>
     <g id="line2d_10">
      <g>
       <use xlink:href="#m8f2989493b" x="276.094566" y="97" style="stroke: #000000; stroke-width: 0.8"/>
      </g>
     </g>
     <g id="text_5">
      <text style="font-size: 10px; font-family: 'Times New Roman'; text-anchor: middle" x="276.094566" y="110.94375" transform="rotate(-0 276.094566 110.94375)">200</text>
     </g>
    </g>
    <g id="xtick_6">
     <g id="line2d_11">
      <path d="M 336.360708 97 
L 336.360708 0 
" clip-path="url(#p28194927e6)" style="fill: none; stroke: #b0b0b0; stroke-width: 0.8; stroke-linecap: square"/>
     </g>
     <g id="line2d_12">
      <g>
       <use xlink:href="#m8f2989493b" x="336.360708" y="97" style="stroke: #000000; stroke-width: 0.8"/>
      </g>
     </g>
     <g id="text_6">
      <text style="font-size: 10px; font-family: 'Times New Roman'; text-anchor: middle" x="336.360708" y="110.94375" transform="rotate(-0 336.360708 110.94375)">250</text>
     </g>
    </g>
    <g id="xtick_7">
     <g id="line2d_13">
      <path d="M 396.626849 97 
L 396.626849 0 
" clip-path="url(#p28194927e6)" style="fill: none; stroke: #b0b0b0; stroke-width: 0.8; stroke-linecap: square"/>
     </g>
     <g id="line2d_14">
      <g>
       <use xlink:href="#m8f2989493b" x="396.626849" y="97" style="stroke: #000000; stroke-width: 0.8"/>
      </g>
     </g>
     <g id="text_7">
      <text style="font-size: 10px; font-family: 'Times New Roman'; text-anchor: middle" x="396.626849" y="110.94375" transform="rotate(-0 396.626849 110.94375)">300</text>
     </g>
    </g>
    <g id="xtick_8">
     <g id="line2d_15">
      <path d="M 456.892991 97 
L 456.892991 0 
" clip-path="url(#p28194927e6)" style="fill: none; stroke: #b0b0b0; stroke-width: 0.8; stroke-linecap: square"/>
     </g>
     <g id="line2d_16">
      <g>
       <use xlink:href="#m8f2989493b" x="456.892991" y="97" style="stroke: #000000; stroke-width: 0.8"/>
      </g>
     </g>
     <g id="text_8">
      <text style="font-size: 10px; font-family: 'Times New Roman'; text-anchor: middle" x="456.892991" y="110.94375" transform="rotate(-0 456.892991 110.94375)">350</text>
     </g>
    </g>
    <g id="xtick_9">
     <g id="line2d_17">
      <path d="M 517.159132 97 
L 517.159132 0 
" clip-path="url(#p28194927e6)" style="fill: none; stroke: #b0b0b0; stroke-width: 0.8; stroke-linecap: square"/>
     </g>
     <g id="line2d_18">
      <g>
       <use xlink:href="#m8f2989493b" x="517.159132" y="97" style="stroke: #000000; stroke-width: 0.8"/>
      </g>
     </g>
     <g id="text_9">
      <text style="font-size: 10px; font-family: 'Times New Roman'; text-anchor: middle" x="517.159132" y="110.94375" transform="rotate(-0 517.159132 110.94375)">400</text>
     </g>
    </g>
    <g id="text_10">
     <text style="font-size: 12px; font-family: 'Times New Roman'; text-anchor: middle" x="287.515" y="125.415312" transform="rotate(-0 287.515 125.415312)">Simulation Run</text>
    </g>
   </g>
   <g id="matplotlib.axis_2">
    <g id="ytick_1">
     <g id="line2d_19">
      <path d="M 35.03 97 
L 540 97 
" clip-path="url(#p28194927e6)" style="fill: none; stroke: #b0b0b0; stroke-width: 0.8; stroke-linecap: square"/>
     </g>
     <g id="line2d_20">
      <defs>
       <path id="m50ff8a0806" d="M 0 0 
L -3.5 0 
" style="stroke: #000000; stroke-width: 0.8"/>
      </defs>
      <g>
       <use xlink:href="#m50ff8a0806" x="35.03" y="97" style="stroke: #000000; stroke-width: 0.8"/>
      </g>
     </g>
     <g id="text_11">
      <text style="font-size: 10px; font-family: 'Times New Roman'; text-anchor: end" x="28.03" y="100.471875" transform="rotate(-0 28.03 100.471875)">0.0</text>
     </g>
    </g>
    <g id="ytick_2">
     <g id="line2d_21">
      <path d="M 35.03 56.583333 
L 540 56.583333 
" clip-path="url(#p28194927e6)" style="fill: none; stroke: #b0b0b0; stroke-width: 0.8; stroke-linecap: square"/>
     </g>
     <g id="line2d_22">
      <g>
       <use xlink:href="#m50ff8a0806" x="35.03" y="56.583333" style="stroke: #000000; stroke-width: 0.8"/>
      </g>
     </g>
     <g id="text_12">
      <text style="font-size: 10px; font-family: 'Times New Roman'; text-anchor: end" x="28.03" y="60.055208" transform="rotate(-0 28.03 60.055208)">0.5</text>
     </g>
    </g>
    <g id="ytick_3">
     <g id="line2d_23">
      <path d="M 35.03 16.166667 
L 540 16.166667 
" clip-path="url(#p28194927e6)" style="fill: none; stroke: #b0b0b0; stroke-width: 0.8; stroke-linecap: square"/>
     </g>
     <g id="line2d_24">
      <g>
       <use xlink:href="#m50ff8a0806" x="35.03" y="16.166667" style="stroke: #000000; stroke-width: 0.8"/>
      </g>
     </g>
     <g id="text_13">
      <text style="font-size: 10px; font-family: 'Times New Roman'; text-anchor: end" x="28.03" y="19.638542" transform="rotate(-0 28.03 19.638542)">1.0</text>
     </g>
    </g>
    <g id="text_14">
     <text style="font-size: 12px; font-family: 'Times New Roman'; text-anchor: middle" x="8.963125" y="48.5" transform="rotate(-90 8.963125 48.5)">Normalized Value</text>
    </g>
   </g>
   <g id="line2d_25">
    <path d="M 35.03 40.035064 
L 36.235323 27.340031 
L 37.440646 18.155217 
L 38.645968 16.055151 
L 39.851291 17.136098 
L 41.056614 11.115921 
L 42.261937 14.939804 
L 43.46726 18.148654 
L 44.672583 18.288316 
L 45.877905 18.214928 
L 47.083228 19.310625 
L 48.288551 19.158273 
L 49.493874 17.984202 
L 50.699197 16.586004 
L 51.90452 15.517153 
L 53.109842 16.49459 
L 54.315165 12.437848 
L 55.520488 11.263605 
L 56.725811 11.328483 
L 57.931134 11.21523 
L 59.136457 9.624431 
L 60.341779 9.913989 
L 61.547102 10.428956 
L 62.752425 11.458775 
L 63.957748 11.937393 
L 65.163071 12.255002 
L 68.779039 12.016363 
L 69.984362 13.203885 
L 72.395008 14.70894 
L 73.600331 14.588052 
L 74.805653 14.79876 
L 78.421622 16.987099 
L 80.832268 15.946792 
L 82.03759 14.512521 
L 83.242913 15.432699 
L 84.448236 15.760268 
L 85.653559 15.740891 
L 86.858882 16.3907 
L 88.064205 15.687409 
L 89.269527 15.343974 
L 90.47485 15.944149 
L 91.680173 16.156781 
L 92.885496 15.597123 
L 94.090819 14.675103 
L 95.296142 14.572819 
L 96.501464 15.139281 
L 97.706787 15.199626 
L 98.91211 15.663182 
L 100.117433 15.088261 
L 101.322756 15.193638 
L 102.528079 15.415248 
L 104.938724 14.771412 
L 106.144047 14.972718 
L 107.34937 14.946387 
L 108.554693 15.11796 
L 109.760016 15.000019 
L 110.965338 15.304246 
L 112.170661 14.234175 
L 113.375984 14.388176 
L 114.581307 14.813241 
L 115.78663 14.922802 
L 116.991953 15.248263 
L 118.197275 14.868318 
L 119.402598 14.980563 
L 120.607921 15.394893 
L 121.813244 15.543786 
L 124.223889 16.288045 
L 125.429212 16.55803 
L 127.839858 16.493657 
L 129.045181 16.792865 
L 132.661149 17.210538 
L 133.866472 16.98518 
L 135.071795 16.903632 
L 136.277118 17.063211 
L 137.482441 17.058908 
L 138.687763 17.465626 
L 139.893086 16.990471 
L 141.098409 17.120906 
L 142.303732 16.955467 
L 143.509055 16.66787 
L 144.714378 16.632075 
L 145.9197 16.955142 
L 147.125023 16.751556 
L 151.946315 17.857459 
L 154.35696 17.818523 
L 155.562283 18.205673 
L 156.767606 18.285694 
L 157.972929 18.52917 
L 159.178252 18.446748 
L 160.383574 18.196455 
L 161.588897 18.240225 
L 163.999543 17.847756 
L 166.410189 17.62941 
L 167.615511 17.66588 
L 168.820834 17.918748 
L 170.026157 18.055646 
L 171.23148 18.078853 
L 172.436803 18.309662 
L 173.642126 18.339356 
L 174.847448 18.197475 
L 177.258094 18.214955 
L 178.463417 18.407389 
L 179.66874 18.347197 
L 180.874063 18.075643 
L 182.079385 18.305831 
L 183.284708 18.18474 
L 184.490031 18.295405 
L 186.900677 18.164726 
L 188.106 17.731831 
L 191.721968 18.041787 
L 194.132614 17.817374 
L 195.337937 17.984548 
L 196.543259 17.757046 
L 197.748582 17.976053 
L 198.953905 17.659313 
L 200.159228 17.483728 
L 201.364551 17.733714 
L 202.569873 17.844759 
L 203.775196 17.636994 
L 204.980519 17.94409 
L 206.185842 17.508952 
L 208.596488 17.364169 
L 213.417779 17.425808 
L 215.828425 17.144111 
L 217.033747 17.321734 
L 219.444393 17.235435 
L 221.855039 17.117066 
L 223.060362 16.874732 
L 224.265684 16.760383 
L 226.67633 16.931487 
L 232.702944 16.757132 
L 233.908267 16.918484 
L 237.524236 16.754467 
L 238.729558 16.541445 
L 241.140204 16.609482 
L 242.345527 16.196673 
L 243.55085 16.306176 
L 244.756173 16.253152 
L 245.961495 16.069124 
L 248.372141 16.14301 
L 249.577464 16.325051 
L 250.782787 16.100779 
L 251.98811 16.229756 
L 254.398755 16.072932 
L 256.809401 16.132415 
L 258.014724 15.971548 
L 265.246661 16.145543 
L 266.451984 16.342673 
L 267.657306 16.150568 
L 271.273275 16.177027 
L 272.478598 16.365589 
L 274.889243 16.299906 
L 276.094566 16.364087 
L 277.299889 16.201264 
L 279.710535 16.2448 
L 284.531826 16.089705 
L 285.737149 15.833617 
L 289.353117 16.115243 
L 294.174409 16.124877 
L 295.379731 16.09376 
L 296.585054 15.924439 
L 297.790377 15.978324 
L 303.816991 15.654865 
L 305.022314 15.75409 
L 307.43296 15.629618 
L 309.843605 15.535209 
L 312.254251 15.311762 
L 313.459574 15.436414 
L 314.664897 15.409062 
L 315.87022 15.493473 
L 317.075542 15.464411 
L 318.280865 15.275849 
L 320.691511 15.38083 
L 323.102157 15.281434 
L 324.307479 15.466878 
L 327.923448 15.269243 
L 331.539416 15.22399 
L 332.744739 15.324399 
L 333.950062 15.244371 
L 339.976676 15.713397 
L 341.181999 15.573561 
L 343.592645 15.720951 
L 346.00329 15.771107 
L 352.029905 15.407671 
L 353.235227 15.536382 
L 359.261842 15.369173 
L 362.87781 15.422879 
L 365.288456 15.375236 
L 367.699101 15.56314 
L 370.109747 15.639441 
L 372.520393 15.753579 
L 374.931038 15.515785 
L 377.341684 15.628565 
L 379.75233 15.585593 
L 380.957652 15.744465 
L 382.162975 15.758191 
L 383.368298 15.657969 
L 385.778944 15.843929 
L 390.600235 15.700189 
L 395.421526 15.883234 
L 397.832172 15.778913 
L 400.242818 15.765548 
L 401.448141 15.829778 
L 403.858786 15.534642 
L 406.269432 15.583149 
L 407.474755 15.718766 
L 409.8854 15.645474 
L 412.296046 15.744185 
L 414.706692 15.633592 
L 418.32266 15.523126 
L 420.733306 15.491168 
L 421.938629 15.565551 
L 424.349274 15.514901 
L 427.965243 15.600659 
L 429.170566 15.506574 
L 442.429117 15.826386 
L 443.63444 15.627784 
L 446.045085 15.665034 
L 452.071699 15.829023 
L 454.482345 15.774555 
L 460.508959 16.020547 
L 461.714282 16.124263 
L 464.124928 15.78724 
L 467.740896 15.910515 
L 476.178156 15.896769 
L 477.383479 15.804421 
L 480.999447 15.916238 
L 484.615416 15.806466 
L 493.052676 16.015429 
L 505.105904 16.016163 
L 507.51655 16.094623 
L 511.132518 16.113139 
L 513.543164 16.157252 
L 515.95381 16.166667 
L 515.95381 16.166667 
" clip-path="url(#p28194927e6)" style="fill: none; stroke: #4169e1; stroke-width: 1.5; stroke-linecap: square"/>
   </g>
   <g id="line2d_26">
    <path d="M 35.03 97 
L 36.235323 71.315063 
L 37.440646 52.987279 
L 38.645968 61.88184 
L 39.851291 68.160604 
L 41.056614 44.087026 
L 42.261937 37.663959 
L 43.46726 33.593936 
L 44.672583 40.614185 
L 45.877905 46.245042 
L 47.083228 48.945793 
L 48.288551 52.909619 
L 49.493874 53.664976 
L 50.699197 52.709991 
L 53.109842 53.572628 
L 54.315165 14.162339 
L 55.520488 15.028699 
L 56.725811 19.330904 
L 57.931134 23.175519 
L 59.136457 18.62473 
L 60.341779 21.906634 
L 61.547102 24.241756 
L 62.752425 23.385939 
L 63.957748 25.45431 
L 68.779039 34.795413 
L 69.984362 30.35123 
L 71.189685 30.23397 
L 72.395008 29.027239 
L 73.600331 31.012489 
L 74.805653 32.719798 
L 76.010976 31.382006 
L 77.216299 30.812218 
L 78.421622 29.216785 
L 79.626945 29.707787 
L 80.832268 29.451192 
L 82.03759 18.353809 
L 83.242913 14.874234 
L 84.448236 16.128477 
L 85.653559 18.006697 
L 86.858882 16.90832 
L 88.064205 15.2197 
L 89.269527 16.151644 
L 90.47485 15.231088 
L 91.680173 16.595945 
L 92.885496 15.840783 
L 94.090819 10.825196 
L 95.296142 12.431531 
L 96.501464 11.449759 
L 97.706787 13.033736 
L 98.91211 12.773605 
L 100.117433 11.460394 
L 101.322756 12.890554 
L 102.528079 13.927851 
L 103.733401 14.125224 
L 104.938724 14.830153 
L 106.144047 15.818606 
L 107.34937 17.142819 
L 109.760016 19.258884 
L 110.965338 19.544306 
L 112.170661 9.056654 
L 113.375984 10.143449 
L 114.581307 9.539319 
L 115.78663 10.697333 
L 116.991953 10.800161 
L 118.197275 10.444134 
L 119.402598 11.522678 
L 120.607921 10.767353 
L 121.813244 11.694239 
L 123.018567 11.098926 
L 124.223889 10.744312 
L 125.429212 11.007987 
L 127.839858 13.185306 
L 129.045181 13.133359 
L 130.250504 13.938271 
L 131.455826 14.533368 
L 132.661149 15.422793 
L 133.866472 15.741957 
L 135.071795 16.621348 
L 136.277118 17.226068 
L 137.482441 18.153421 
L 138.687763 16.792474 
L 139.893086 14.573523 
L 141.098409 15.261057 
L 142.303732 15.78105 
L 143.509055 15.487191 
L 144.714378 16.354617 
L 145.9197 15.691439 
L 147.125023 15.942108 
L 148.330346 15.794786 
L 149.535669 15.870171 
L 150.740992 15.425259 
L 151.946315 14.548701 
L 154.35696 16.139491 
L 155.562283 14.551348 
L 156.767606 15.256596 
L 157.972929 15.08656 
L 159.178252 15.762673 
L 160.383574 15.498019 
L 161.588897 16.234847 
L 162.79422 15.993064 
L 163.999543 16.361568 
L 166.410189 17.417399 
L 167.615511 18.111042 
L 168.820834 17.684258 
L 170.026157 18.051644 
L 171.23148 18.734475 
L 172.436803 18.447166 
L 173.642126 19.108185 
L 174.847448 19.40178 
L 177.258094 20.693896 
L 178.463417 20.627483 
L 179.66874 21.189372 
L 180.874063 20.388741 
L 182.079385 19.981361 
L 185.695354 21.048849 
L 186.900677 21.638726 
L 188.106 18.434502 
L 190.516645 19.481952 
L 191.721968 19.294228 
L 192.927291 19.320623 
L 194.132614 19.828181 
L 195.337937 19.811714 
L 197.748582 18.817708 
L 198.953905 17.213909 
L 200.159228 17.118929 
L 201.364551 16.319195 
L 202.569873 16.622322 
L 203.775196 16.229254 
L 204.980519 14.67884 
L 206.185842 10.969495 
L 207.391165 11.323013 
L 213.417779 13.973393 
L 214.623102 13.981333 
L 215.828425 14.126363 
L 217.033747 13.912332 
L 218.23907 14.282058 
L 220.649716 15.348432 
L 221.855039 15.559933 
L 223.060362 14.618624 
L 224.265684 14.812851 
L 227.881653 15.922577 
L 230.292299 16.876522 
L 231.497621 17.163658 
L 232.702944 17.616497 
L 233.908267 17.410098 
L 237.524236 18.545554 
L 238.729558 17.784848 
L 241.140204 18.599832 
L 242.345527 14.381728 
L 243.55085 14.525947 
L 244.756173 14.919262 
L 245.961495 14.441099 
L 248.372141 15.290145 
L 249.577464 14.806532 
L 250.782787 13.828287 
L 251.98811 13.810588 
L 253.193432 14.003436 
L 255.604078 14.740669 
L 256.809401 15.178526 
L 258.014724 14.855442 
L 261.630692 16.096255 
L 262.836015 16.147613 
L 265.246661 16.936481 
L 267.657306 15.443787 
L 271.273275 16.613508 
L 272.478598 15.903195 
L 276.094566 16.903007 
L 277.299889 16.450274 
L 278.505212 16.683599 
L 282.12118 17.72719 
L 283.326503 17.537792 
L 284.531826 17.819136 
L 285.737149 16.024022 
L 286.942472 16.012586 
L 288.147794 16.384064 
L 289.353117 15.974678 
L 290.55844 16.332068 
L 291.763763 16.243202 
L 292.969086 15.676926 
L 295.379731 16.356915 
L 296.585054 15.735339 
L 297.790377 16.00553 
L 298.9957 16.151348 
L 300.201023 16.51418 
L 301.406346 15.390685 
L 303.816991 15.964458 
L 306.227637 16.005586 
L 308.638283 16.661604 
L 309.843605 16.841344 
L 311.048928 16.809853 
L 313.459574 16.391155 
L 314.664897 16.709455 
L 315.87022 16.78799 
L 317.075542 17.097818 
L 318.280865 16.104751 
L 319.486188 16.135492 
L 321.896834 16.759226 
L 323.102157 16.933755 
L 324.307479 15.950614 
L 325.512802 15.98912 
L 326.718125 16.284951 
L 327.923448 16.376579 
L 329.128771 16.664626 
L 331.539416 16.895143 
L 332.744739 16.821272 
L 333.950062 16.890142 
L 335.155385 16.820876 
L 336.360708 16.112241 
L 337.566031 15.737683 
L 339.976676 16.231789 
L 341.181999 15.756972 
L 342.387322 15.474259 
L 346.00329 16.324284 
L 348.413936 16.622697 
L 349.619259 16.918074 
L 350.824582 16.115807 
L 352.029905 16.272684 
L 353.235227 15.880298 
L 355.645873 16.370694 
L 356.851196 15.918862 
L 362.87781 16.893704 
L 364.083133 16.937626 
L 365.288456 17.194718 
L 366.493778 16.717904 
L 367.699101 16.871242 
L 368.904424 17.148144 
L 370.109747 17.273362 
L 371.31507 17.234031 
L 372.520393 17.480966 
L 373.725715 16.857173 
L 376.136361 16.611834 
L 379.75233 17.331804 
L 380.957652 16.453953 
L 382.162975 16.724012 
L 384.573621 16.366473 
L 385.778944 16.287694 
L 388.189589 16.576974 
L 389.394912 16.470707 
L 390.600235 16.497832 
L 393.010881 16.806537 
L 394.216204 16.811265 
L 395.421526 17.073318 
L 396.626849 16.804238 
L 399.037495 17.249109 
L 400.242818 17.472209 
L 401.448141 17.533085 
L 402.653463 15.93005 
L 403.858786 15.7125 
L 405.064109 15.973962 
L 406.269432 16.084464 
L 407.474755 15.439754 
L 408.680078 15.549258 
L 409.8854 15.794809 
L 412.296046 16.065094 
L 413.501369 15.72391 
L 417.117337 16.470342 
L 418.32266 16.091767 
L 419.527983 16.121591 
L 420.733306 16.313642 
L 423.143952 16.279331 
L 424.349274 16.509113 
L 427.965243 16.525433 
L 429.170566 16.309459 
L 430.375889 16.503949 
L 431.581211 16.503517 
L 432.786534 16.685291 
L 433.991857 16.593278 
L 437.607826 16.796381 
L 438.813148 16.669105 
L 442.429117 17.134109 
L 443.63444 15.238037 
L 444.839763 15.455182 
L 447.250408 15.666778 
L 448.455731 15.334435 
L 449.661054 15.407577 
L 450.866377 15.642044 
L 452.071699 15.586703 
L 453.277022 15.672608 
L 455.687668 16.085269 
L 456.892991 15.911083 
L 459.303636 16.30103 
L 461.714282 15.532672 
L 462.919605 14.678032 
L 464.124928 12.669994 
L 465.330251 12.704098 
L 466.535573 12.928131 
L 467.740896 13.018461 
L 468.946219 13.25083 
L 470.151542 13.127142 
L 476.178156 14.162283 
L 477.383479 13.888574 
L 478.588802 13.798591 
L 479.794125 13.086426 
L 480.999447 12.858826 
L 482.20477 12.772003 
L 483.410093 12.844013 
L 487.026062 13.382999 
L 489.436707 13.24564 
L 490.64203 13.211989 
L 495.463321 13.951036 
L 497.873967 14.156122 
L 499.07929 14.366589 
L 500.284613 14.240569 
L 505.105904 14.981745 
L 506.311227 14.945542 
L 511.132518 15.691505 
L 512.337841 15.727852 
L 514.748487 16.069604 
L 515.95381 16.166667 
L 515.95381 16.166667 
" clip-path="url(#p28194927e6)" style="fill: none; stroke-dasharray: 5.55,2.4; stroke-dashoffset: 0; stroke: #4169e1; stroke-width: 1.5"/>
   </g>
   <g id="line2d_27">
    <path d="M 35.03 39.484547 
L 37.440646 23.759287 
L 38.645968 18.614371 
L 39.851291 19.021369 
L 41.056614 14.596291 
L 42.261937 17.235361 
L 43.46726 20.893975 
L 44.672583 20.930493 
L 45.877905 20.609544 
L 47.083228 20.951518 
L 48.288551 20.487509 
L 49.493874 19.464991 
L 51.90452 17.203828 
L 53.109842 18.140158 
L 54.315165 15.260995 
L 57.931134 13.320419 
L 59.136457 11.672576 
L 60.341779 11.745437 
L 62.752425 13.362487 
L 63.957748 13.702734 
L 65.163071 13.919831 
L 66.368394 13.595667 
L 67.573716 13.457182 
L 68.779039 13.543854 
L 69.984362 14.717591 
L 71.189685 15.249672 
L 72.395008 15.922818 
L 73.600331 15.763025 
L 74.805653 16.021039 
L 77.216299 17.395121 
L 78.421622 18.089762 
L 80.832268 17.227392 
L 82.03759 16.076259 
L 83.242913 16.8246 
L 84.448236 17.035929 
L 85.653559 17.063667 
L 86.858882 17.672362 
L 88.064205 16.692435 
L 89.269527 16.487268 
L 90.47485 16.958389 
L 91.680173 17.036566 
L 92.885496 16.526119 
L 94.090819 15.839443 
L 95.296142 15.72522 
L 96.501464 16.101664 
L 97.706787 16.07262 
L 98.91211 16.314588 
L 100.117433 15.648629 
L 101.322756 15.699424 
L 102.528079 15.974817 
L 104.938724 15.495237 
L 106.144047 15.714415 
L 109.760016 15.742981 
L 110.965338 15.909392 
L 112.170661 14.995163 
L 113.375984 15.073679 
L 116.991953 15.895858 
L 118.197275 15.435052 
L 119.402598 15.536334 
L 120.607921 15.897888 
L 121.813244 15.991987 
L 125.429212 16.730825 
L 127.839858 16.656907 
L 129.045181 16.936915 
L 132.661149 17.310628 
L 135.071795 17.120683 
L 136.277118 17.285103 
L 137.482441 17.274176 
L 138.687763 17.722245 
L 139.893086 17.315958 
L 141.098409 17.407707 
L 142.303732 17.269882 
L 143.509055 17.013348 
L 144.714378 17.008647 
L 145.9197 17.252685 
L 147.125023 17.058312 
L 151.946315 17.983875 
L 154.35696 17.923616 
L 155.562283 18.2953 
L 156.767606 18.373995 
L 157.972929 18.607454 
L 160.383574 18.276669 
L 161.588897 18.357676 
L 167.615511 17.943082 
L 168.820834 18.168366 
L 173.642126 18.484175 
L 176.052771 18.337547 
L 177.258094 18.32117 
L 178.463417 18.456561 
L 180.874063 18.164344 
L 182.079385 18.367106 
L 183.284708 18.25427 
L 184.490031 18.327381 
L 186.900677 18.142226 
L 188.106 17.75614 
L 189.311322 17.857601 
L 190.516645 17.836284 
L 191.721968 17.980786 
L 194.132614 17.834516 
L 195.337937 17.981381 
L 196.543259 17.737253 
L 197.748582 17.92784 
L 198.953905 17.617291 
L 200.159228 17.47657 
L 202.569873 17.769891 
L 203.775196 17.593867 
L 204.980519 17.847266 
L 206.185842 17.542019 
L 208.596488 17.392166 
L 211.007133 17.486907 
L 212.212456 17.411786 
L 213.417779 17.449854 
L 215.828425 17.140696 
L 217.033747 17.267007 
L 221.855039 17.09222 
L 223.060362 16.831066 
L 224.265684 16.712833 
L 226.67633 16.892667 
L 227.881653 16.822763 
L 230.292299 16.904735 
L 232.702944 16.742675 
L 233.908267 16.887714 
L 239.934881 16.635018 
L 241.140204 16.648001 
L 242.345527 16.382403 
L 243.55085 16.479588 
L 244.756173 16.431267 
L 245.961495 16.263384 
L 248.372141 16.300912 
L 249.577464 16.441955 
L 250.782787 16.253106 
L 251.98811 16.329435 
L 254.398755 16.198008 
L 256.809401 16.217744 
L 258.014724 16.058686 
L 261.630692 16.133679 
L 264.041338 16.206298 
L 265.246661 16.223522 
L 266.451984 16.402969 
L 267.657306 16.233502 
L 271.273275 16.228322 
L 272.478598 16.406488 
L 284.531826 16.022376 
L 285.737149 15.867825 
L 291.763763 16.181538 
L 294.174409 16.093639 
L 297.790377 15.965892 
L 301.406346 15.753907 
L 306.227637 15.713118 
L 311.048928 15.511816 
L 312.254251 15.430256 
L 313.459574 15.520172 
L 314.664897 15.480841 
L 315.87022 15.555158 
L 320.691511 15.493238 
L 323.102157 15.439934 
L 324.307479 15.602458 
L 329.128771 15.371611 
L 330.334094 15.440397 
L 331.539416 15.353034 
L 332.744739 15.423864 
L 333.950062 15.361179 
L 336.360708 15.593057 
L 337.566031 15.732816 
L 339.976676 15.814858 
L 341.181999 15.672431 
L 343.592645 15.8005 
L 347.208613 15.801184 
L 352.029905 15.621147 
L 353.235227 15.722903 
L 359.261842 15.489668 
L 370.109747 15.730871 
L 372.520393 15.825053 
L 374.931038 15.630865 
L 377.341684 15.70393 
L 379.75233 15.64256 
L 380.957652 15.77421 
L 395.421526 15.982233 
L 397.832172 15.838091 
L 400.242818 15.788211 
L 401.448141 15.844457 
L 403.858786 15.570264 
L 406.269432 15.599918 
L 407.474755 15.726297 
L 425.554597 15.680094 
L 426.75992 15.765521 
L 430.375889 15.661851 
L 436.402503 15.873261 
L 438.813148 15.92446 
L 442.429117 15.92848 
L 444.839763 15.775582 
L 452.071699 15.949037 
L 454.482345 15.889418 
L 459.303636 15.980829 
L 461.714282 16.156868 
L 464.124928 15.856444 
L 468.946219 15.941468 
L 473.76751 15.927768 
L 482.20477 15.888907 
L 484.615416 15.877936 
L 494.257999 16.072352 
L 496.668644 16.053506 
L 499.07929 16.084243 
L 502.695258 16.102128 
L 508.721873 16.128413 
L 514.748487 16.10962 
L 515.95381 16.166667 
L 515.95381 16.166667 
" clip-path="url(#p28194927e6)" style="fill: none; stroke: #ff8c00; stroke-width: 1.5; stroke-linecap: square"/>
   </g>
   <g id="line2d_28">
    <path d="M 35.03 97 
L 36.235323 84.147502 
L 37.440646 60.758328 
L 38.645968 52.68314 
L 39.851291 61.403535 
L 41.056614 46.209485 
L 42.261937 44.448012 
L 43.46726 30.798321 
L 44.672583 38.151761 
L 45.877905 43.836536 
L 47.083228 48.417225 
L 48.288551 51.954734 
L 49.493874 52.712405 
L 51.90452 51.437457 
L 53.109842 51.447385 
L 54.315165 25.50665 
L 55.520488 27.837577 
L 56.725811 29.893844 
L 57.931134 31.605414 
L 59.136457 23.000643 
L 60.341779 26.340193 
L 61.547102 26.366314 
L 62.752425 26.004504 
L 66.368394 32.503366 
L 68.779039 36.798141 
L 69.984362 30.183807 
L 71.189685 30.506435 
L 72.395008 29.553248 
L 73.600331 31.420774 
L 74.805653 32.875526 
L 76.010976 30.617099 
L 77.216299 29.488258 
L 78.421622 27.564517 
L 80.832268 28.156372 
L 82.03759 18.725865 
L 83.242913 15.801279 
L 84.448236 17.339466 
L 85.653559 19.185064 
L 86.858882 17.515713 
L 88.064205 10.164816 
L 89.269527 11.643796 
L 90.47485 11.25673 
L 91.680173 12.981065 
L 92.885496 11.996979 
L 94.090819 8.711405 
L 95.296142 10.301785 
L 96.501464 10.409527 
L 97.706787 12.033844 
L 98.91211 12.937696 
L 100.117433 9.298249 
L 101.322756 10.833731 
L 102.528079 11.428954 
L 103.733401 11.856454 
L 104.938724 12.858628 
L 106.144047 13.649383 
L 108.554693 16.302584 
L 109.760016 17.57649 
L 110.965338 18.441019 
L 112.170661 8.106827 
L 113.375984 9.367228 
L 114.581307 9.676904 
L 116.991953 9.961031 
L 118.197275 8.042839 
L 119.402598 9.140811 
L 120.607921 8.358326 
L 121.813244 9.435024 
L 123.018567 9.522297 
L 124.223889 9.267197 
L 125.429212 9.916284 
L 127.839858 12.103648 
L 129.045181 11.858643 
L 133.866472 15.039217 
L 135.071795 15.816418 
L 136.277118 16.281508 
L 137.482441 17.217905 
L 138.687763 14.409219 
L 139.893086 12.248856 
L 141.098409 13.04127 
L 142.303732 13.609334 
L 143.509055 13.247647 
L 144.714378 14.157565 
L 145.9197 13.866046 
L 147.125023 13.992258 
L 148.330346 13.714842 
L 149.535669 14.189347 
L 150.740992 13.723142 
L 151.946315 12.733517 
L 153.151637 13.57253 
L 154.35696 14.255199 
L 155.562283 12.093413 
L 156.767606 12.790859 
L 157.972929 12.408807 
L 159.178252 12.731997 
L 160.383574 12.788936 
L 162.79422 13.993328 
L 163.999543 14.436139 
L 165.204866 15.111545 
L 166.410189 14.652545 
L 167.615511 15.209255 
L 168.820834 14.723883 
L 171.23148 16.057612 
L 172.436803 15.790426 
L 173.642126 16.429251 
L 174.847448 16.814255 
L 177.258094 18.12175 
L 179.66874 18.484288 
L 180.874063 18.485423 
L 182.079385 18.041437 
L 183.284708 18.340275 
L 184.490031 18.82653 
L 185.695354 18.906649 
L 186.900677 19.469817 
L 188.106 15.990513 
L 189.311322 16.334158 
L 190.516645 16.942016 
L 191.721968 16.967398 
L 192.927291 17.20984 
L 194.132614 17.779094 
L 195.337937 17.75127 
L 196.543259 16.614998 
L 197.748582 16.147935 
L 198.953905 13.907875 
L 200.159228 13.924588 
L 201.364551 13.329174 
L 202.569873 13.666525 
L 203.775196 13.321503 
L 204.980519 11.957115 
L 206.185842 9.696764 
L 207.391165 9.96701 
L 211.007133 11.537568 
L 212.212456 11.93601 
L 213.417779 12.460627 
L 214.623102 11.885253 
L 217.033747 12.014985 
L 220.649716 13.632734 
L 221.855039 13.481433 
L 223.060362 11.717563 
L 224.265684 11.78374 
L 226.67633 12.296798 
L 229.086976 13.011735 
L 230.292299 13.520675 
L 231.497621 13.733115 
L 232.702944 14.0632 
L 233.908267 13.81383 
L 236.318913 14.560155 
L 237.524236 15.045991 
L 238.729558 14.029641 
L 239.934881 14.313841 
L 241.140204 14.788355 
L 242.345527 12.645389 
L 243.55085 12.7776 
L 244.756173 13.171203 
L 245.961495 12.583175 
L 248.372141 13.504328 
L 249.577464 13.206698 
L 250.782787 12.294673 
L 251.98811 12.536362 
L 253.193432 12.472605 
L 256.809401 13.740612 
L 258.014724 13.178283 
L 259.220047 13.624798 
L 260.425369 13.918543 
L 261.630692 14.340844 
L 262.836015 14.481929 
L 265.246661 15.323115 
L 266.451984 14.412192 
L 267.657306 13.641863 
L 271.273275 14.873137 
L 272.478598 13.938527 
L 273.683921 14.297716 
L 274.889243 14.37673 
L 276.094566 14.62359 
L 277.299889 14.464761 
L 278.505212 14.721397 
L 279.710535 15.10731 
L 282.12118 15.513402 
L 283.326503 15.201714 
L 284.531826 15.587148 
L 285.737149 14.9046 
L 286.942472 15.07199 
L 288.147794 15.445745 
L 289.353117 14.968691 
L 290.55844 15.353165 
L 292.969086 15.314704 
L 295.379731 16.031587 
L 296.585054 15.69092 
L 297.790377 16.038347 
L 298.9957 15.973869 
L 300.201023 16.338922 
L 301.406346 16.119457 
L 303.816991 16.834909 
L 305.022314 16.944601 
L 306.227637 16.675578 
L 307.43296 16.988661 
L 312.254251 17.558723 
L 313.459574 17.498139 
L 314.664897 17.761906 
L 315.87022 17.822846 
L 317.075542 18.068716 
L 318.280865 17.431805 
L 319.486188 17.237829 
L 323.102157 18.142592 
L 324.307479 17.101866 
L 325.512802 17.160507 
L 327.923448 17.548945 
L 330.334094 17.763257 
L 331.539416 17.678907 
L 335.155385 17.778635 
L 337.566031 16.171459 
L 338.771353 16.462529 
L 339.976676 16.588376 
L 341.181999 15.791882 
L 342.387322 15.573149 
L 349.619259 17.224801 
L 350.824582 16.362181 
L 352.029905 16.666974 
L 353.235227 16.380265 
L 354.44055 16.473465 
L 355.645873 16.757372 
L 356.851196 16.123056 
L 358.056519 16.321527 
L 359.261842 16.337312 
L 360.467164 16.616112 
L 361.672487 16.732265 
L 362.87781 16.984849 
L 365.288456 17.279577 
L 366.493778 16.830157 
L 370.109747 17.403234 
L 371.31507 17.389269 
L 372.520393 17.638363 
L 373.725715 17.473493 
L 374.931038 17.03953 
L 376.136361 16.831124 
L 377.341684 17.095718 
L 378.547007 17.128668 
L 379.75233 17.406735 
L 380.957652 16.609732 
L 382.162975 16.87065 
L 383.368298 16.913005 
L 384.573621 16.67458 
L 385.778944 16.664787 
L 386.984267 16.916636 
L 391.805558 17.272682 
L 393.010881 17.480568 
L 394.216204 17.35906 
L 395.421526 17.621478 
L 396.626849 17.082644 
L 397.832172 17.277401 
L 399.037495 17.298052 
L 400.242818 17.552149 
L 401.448141 17.60511 
L 402.653463 15.966545 
L 403.858786 15.511196 
L 406.269432 15.954946 
L 407.474755 15.151423 
L 409.8854 15.631795 
L 411.090723 15.705311 
L 412.296046 15.905423 
L 413.501369 15.524366 
L 417.117337 16.282862 
L 418.32266 16.333769 
L 420.733306 16.785124 
L 421.938629 16.810079 
L 423.143952 16.674929 
L 425.554597 17.052125 
L 426.75992 16.785574 
L 427.965243 16.918984 
L 429.170566 16.27268 
L 432.786534 16.474757 
L 433.991857 16.328796 
L 436.402503 16.242503 
L 437.607826 16.466476 
L 438.813148 16.385524 
L 442.429117 16.983216 
L 443.63444 16.118617 
L 446.045085 16.3892 
L 447.250408 16.451382 
L 448.455731 16.267506 
L 449.661054 16.375457 
L 450.866377 16.605379 
L 452.071699 16.613858 
L 453.277022 16.506788 
L 455.687668 16.956411 
L 456.892991 16.734122 
L 459.303636 17.160136 
L 461.714282 16.429607 
L 462.919605 14.810246 
L 464.124928 13.420824 
L 465.330251 13.509835 
L 466.535573 13.731639 
L 467.740896 13.836488 
L 471.356865 14.393207 
L 476.178156 15.216589 
L 477.383479 14.77347 
L 478.588802 14.596119 
L 479.794125 13.87087 
L 482.20477 13.535407 
L 487.026062 14.144681 
L 490.64203 13.714105 
L 494.257999 14.308966 
L 495.463321 14.244984 
L 499.07929 14.610264 
L 500.284613 14.779927 
L 501.489936 14.836487 
L 505.105904 15.403908 
L 506.311227 15.314624 
L 509.927195 15.826176 
L 512.337841 16.038265 
L 514.748487 16.244968 
L 515.95381 16.166667 
L 515.95381 16.166667 
" clip-path="url(#p28194927e6)" style="fill: none; stroke-dasharray: 5.55,2.4; stroke-dashoffset: 0; stroke: #ff8c00; stroke-width: 1.5"/>
   </g>
   <g id="patch_3">
    <path d="M 35.03 97 
L 35.03 0 
" style="fill: none; stroke: #000000; stroke-width: 0.8; stroke-linejoin: miter; stroke-linecap: square"/>
   </g>
   <g id="patch_4">
    <path d="M 540 97 
L 540 0 
" style="fill: none; stroke: #000000; stroke-width: 0.8; stroke-linejoin: miter; stroke-linecap: square"/>
   </g>
   <g id="patch_5">
    <path d="M 35.03 97 
L 540 97 
" style="fill: none; stroke: #000000; stroke-width: 0.8; stroke-linejoin: miter; stroke-linecap: square"/>
   </g>
   <g id="patch_6">
    <path d="M 35.03 0 
L 540 0 
" style="fill: none; stroke: #000000; stroke-width: 0.8; stroke-linejoin: miter; stroke-linecap: square"/>
   </g>
  </g>
 </g>
 <defs>
  <clipPath id="p28194927e6">
   <rect x="35.03" y="0" width="504.97" height="97"/>
  </clipPath>
 </defs>
</svg>
