<?xml version="1.0" encoding="utf-8" standalone="no"?>
<!DOCTYPE svg PUBLIC "-//W3C//DTD SVG 1.1//EN"
  "http://www.w3.org/Graphics/SVG/1.1/DTD/svg11.dtd">
<svg xmlns:xlink="http://www.w3.org/1999/xlink" width="540pt" height="129.6pt" viewBox="0 0 540 129.6" xmlns="http://www.w3.org/2000/svg" version="1.1">
 <metadata>
  <rdf:RDF xmlns:dc="http://purl.org/dc/elements/1.1/" xmlns:cc="http://creativecommons.org/ns#" xmlns:rdf="http://www.w3.org/1999/02/22-rdf-syntax-ns#">
   <cc:Work>
    <dc:type rdf:resource="http://purl.org/dc/dcmitype/StillImage"/>
    <dc:date>2025-03-28T23:29:49.157606</dc:date>
    <dc:format>image/svg+xml</dc:format>
    <dc:creator>
     <cc:Agent>
      <dc:title>Matplotlib v3.8.3, https://matplotlib.org/</dc:title>
     </cc:Agent>
    </dc:creator>
   </cc:Work>
  </rdf:RDF>
 </metadata>
 <defs>
  <style type="text/css">*{stroke-linejoin: round; stroke-linecap: butt}</style>
 </defs>
 <g id="figure_1">
  <g id="patch_1">
   <path d="M 0 129.6 
L 540 129.6 
L 540 0 
L 0 0 
z
" style="fill: #ffffff"/>
  </g>
  <g id="axes_1">
   <g id="patch_2">
    <path d="M 35.03 97 
L 540 97 
L 540 0 
L 35.03 0 
z
" style="fill: #ffffff"/>
   </g>
   <g id="matplotlib.axis_1">
    <g id="xtick_1">
     <g id="line2d_1">
      <path d="M 35.03 97 
L 35.03 0 
" clip-path="url(#p6d22fdaf54)" style="fill: none; stroke: #b0b0b0; stroke-width: 0.8; stroke-linecap: square"/>
     </g>
     <g id="line2d_2">
      <defs>
       <path id="mfe00243a73" d="M 0 0 
L 0 3.5 
" style="stroke: #000000; stroke-width: 0.8"/>
      </defs>
      <g>
       <use xlink:href="#mfe00243a73" x="35.03" y="97" style="stroke: #000000; stroke-width: 0.8"/>
      </g>
     </g>
     <g id="text_1">
      <text style="font: 10px 'Times New Roman'; text-anchor: middle" x="35.03" y="110.94375" transform="rotate(-0 35.03 110.94375)">0</text>
     </g>
    </g>
    <g id="xtick_2">
     <g id="line2d_3">
      <path d="M 95.296142 97 
L 95.296142 0 
" clip-path="url(#p6d22fdaf54)" style="fill: none; stroke: #b0b0b0; stroke-width: 0.8; stroke-linecap: square"/>
     </g>
     <g id="line2d_4">
      <g>
       <use xlink:href="#mfe00243a73" x="95.296142" y="97" style="stroke: #000000; stroke-width: 0.8"/>
      </g>
     </g>
     <g id="text_2">
      <text style="font: 10px 'Times New Roman'; text-anchor: middle" x="95.296142" y="110.94375" transform="rotate(-0 95.296142 110.94375)">50</text>
     </g>
    </g>
    <g id="xtick_3">
     <g id="line2d_5">
      <path d="M 155.562283 97 
L 155.562283 0 
" clip-path="url(#p6d22fdaf54)" style="fill: none; stroke: #b0b0b0; stroke-width: 0.8; stroke-linecap: square"/>
     </g>
     <g id="line2d_6">
      <g>
       <use xlink:href="#mfe00243a73" x="155.562283" y="97" style="stroke: #000000; stroke-width: 0.8"/>
      </g>
     </g>
     <g id="text_3">
      <text style="font: 10px 'Times New Roman'; text-anchor: middle" x="155.562283" y="110.94375" transform="rotate(-0 155.562283 110.94375)">100</text>
     </g>
    </g>
    <g id="xtick_4">
     <g id="line2d_7">
      <path d="M 215.828425 97 
L 215.828425 0 
" clip-path="url(#p6d22fdaf54)" style="fill: none; stroke: #b0b0b0; stroke-width: 0.8; stroke-linecap: square"/>
     </g>
     <g id="line2d_8">
      <g>
       <use xlink:href="#mfe00243a73" x="215.828425" y="97" style="stroke: #000000; stroke-width: 0.8"/>
      </g>
     </g>
     <g id="text_4">
      <text style="font: 10px 'Times New Roman'; text-anchor: middle" x="215.828425" y="110.94375" transform="rotate(-0 215.828425 110.94375)">150</text>
     </g>
    </g>
    <g id="xtick_5">
     <g id="line2d_9">
      <path d="M 276.094566 97 
L 276.094566 0 
" clip-path="url(#p6d22fdaf54)" style="fill: none; stroke: #b0b0b0; stroke-width: 0.8; stroke-linecap: square"/>
     </g>
     <g id="line2d_10">
      <g>
       <use xlink:href="#mfe00243a73" x="276.094566" y="97" style="stroke: #000000; stroke-width: 0.8"/>
      </g>
     </g>
     <g id="text_5">
      <text style="font: 10px 'Times New Roman'; text-anchor: middle" x="276.094566" y="110.94375" transform="rotate(-0 276.094566 110.94375)">200</text>
     </g>
    </g>
    <g id="xtick_6">
     <g id="line2d_11">
      <path d="M 336.360708 97 
L 336.360708 0 
" clip-path="url(#p6d22fdaf54)" style="fill: none; stroke: #b0b0b0; stroke-width: 0.8; stroke-linecap: square"/>
     </g>
     <g id="line2d_12">
      <g>
       <use xlink:href="#mfe00243a73" x="336.360708" y="97" style="stroke: #000000; stroke-width: 0.8"/>
      </g>
     </g>
     <g id="text_6">
      <text style="font: 10px 'Times New Roman'; text-anchor: middle" x="336.360708" y="110.94375" transform="rotate(-0 336.360708 110.94375)">250</text>
     </g>
    </g>
    <g id="xtick_7">
     <g id="line2d_13">
      <path d="M 396.626849 97 
L 396.626849 0 
" clip-path="url(#p6d22fdaf54)" style="fill: none; stroke: #b0b0b0; stroke-width: 0.8; stroke-linecap: square"/>
     </g>
     <g id="line2d_14">
      <g>
       <use xlink:href="#mfe00243a73" x="396.626849" y="97" style="stroke: #000000; stroke-width: 0.8"/>
      </g>
     </g>
     <g id="text_7">
      <text style="font: 10px 'Times New Roman'; text-anchor: middle" x="396.626849" y="110.94375" transform="rotate(-0 396.626849 110.94375)">300</text>
     </g>
    </g>
    <g id="xtick_8">
     <g id="line2d_15">
      <path d="M 456.892991 97 
L 456.892991 0 
" clip-path="url(#p6d22fdaf54)" style="fill: none; stroke: #b0b0b0; stroke-width: 0.8; stroke-linecap: square"/>
     </g>
     <g id="line2d_16">
      <g>
       <use xlink:href="#mfe00243a73" x="456.892991" y="97" style="stroke: #000000; stroke-width: 0.8"/>
      </g>
     </g>
     <g id="text_8">
      <text style="font: 10px 'Times New Roman'; text-anchor: middle" x="456.892991" y="110.94375" transform="rotate(-0 456.892991 110.94375)">350</text>
     </g>
    </g>
    <g id="xtick_9">
     <g id="line2d_17">
      <path d="M 517.159132 97 
L 517.159132 0 
" clip-path="url(#p6d22fdaf54)" style="fill: none; stroke: #b0b0b0; stroke-width: 0.8; stroke-linecap: square"/>
     </g>
     <g id="line2d_18">
      <g>
       <use xlink:href="#mfe00243a73" x="517.159132" y="97" style="stroke: #000000; stroke-width: 0.8"/>
      </g>
     </g>
     <g id="text_9">
      <text style="font: 10px 'Times New Roman'; text-anchor: middle" x="517.159132" y="110.94375" transform="rotate(-0 517.159132 110.94375)">400</text>
     </g>
    </g>
    <g id="text_10">
     <text style="font: 12px 'Times New Roman'; text-anchor: middle" x="287.515" y="125.415312" transform="rotate(-0 287.515 125.415312)">Simulation Run</text>
    </g>
   </g>
   <g id="matplotlib.axis_2">
    <g id="ytick_1">
     <g id="line2d_19">
      <path d="M 35.03 97 
L 540 97 
" clip-path="url(#p6d22fdaf54)" style="fill: none; stroke: #b0b0b0; stroke-width: 0.8; stroke-linecap: square"/>
     </g>
     <g id="line2d_20">
      <defs>
       <path id="mc37f6d60f7" d="M 0 0 
L -3.5 0 
" style="stroke: #000000; stroke-width: 0.8"/>
      </defs>
      <g>
       <use xlink:href="#mc37f6d60f7" x="35.03" y="97" style="stroke: #000000; stroke-width: 0.8"/>
      </g>
     </g>
     <g id="text_11">
      <text style="font: 10px 'Times New Roman'; text-anchor: end" x="28.03" y="100.471875" transform="rotate(-0 28.03 100.471875)">0.0</text>
     </g>
    </g>
    <g id="ytick_2">
     <g id="line2d_21">
      <path d="M 35.03 59.692308 
L 540 59.692308 
" clip-path="url(#p6d22fdaf54)" style="fill: none; stroke: #b0b0b0; stroke-width: 0.8; stroke-linecap: square"/>
     </g>
     <g id="line2d_22">
      <g>
       <use xlink:href="#mc37f6d60f7" x="35.03" y="59.692308" style="stroke: #000000; stroke-width: 0.8"/>
      </g>
     </g>
     <g id="text_12">
      <text style="font: 10px 'Times New Roman'; text-anchor: end" x="28.03" y="63.164183" transform="rotate(-0 28.03 63.164183)">0.5</text>
     </g>
    </g>
    <g id="ytick_3">
     <g id="line2d_23">
      <path d="M 35.03 22.384615 
L 540 22.384615 
" clip-path="url(#p6d22fdaf54)" style="fill: none; stroke: #b0b0b0; stroke-width: 0.8; stroke-linecap: square"/>
     </g>
     <g id="line2d_24">
      <g>
       <use xlink:href="#mc37f6d60f7" x="35.03" y="22.384615" style="stroke: #000000; stroke-width: 0.8"/>
      </g>
     </g>
     <g id="text_13">
      <text style="font: 10px 'Times New Roman'; text-anchor: end" x="28.03" y="25.85649" transform="rotate(-0 28.03 25.85649)">1.0</text>
     </g>
    </g>
    <g id="text_14">
     <text style="font: 12px 'Times New Roman'; text-anchor: middle" x="8.963125" y="48.5" transform="rotate(-90 8.963125 48.5)">Normalized Value</text>
    </g>
   </g>
   <g id="line2d_25">
    <path d="M 35.03 29.827695 
L 36.235323 15.47007 
L 37.440646 8.803085 
L 38.645968 13.939925 
L 39.851291 10.767693 
L 41.056614 12.448763 
L 42.261937 13.253461 
L 43.46726 13.531303 
L 44.672583 16.725563 
L 45.877905 16.330242 
L 47.083228 18.192642 
L 48.288551 17.378024 
L 49.493874 19.099093 
L 50.699197 21.282569 
L 51.90452 21.611506 
L 53.109842 21.264421 
L 54.315165 20.695517 
L 55.520488 20.653479 
L 56.725811 19.925393 
L 57.931134 18.092745 
L 59.136457 18.028239 
L 60.341779 17.809199 
L 61.547102 16.290488 
L 62.752425 17.391402 
L 65.163071 16.917566 
L 66.368394 17.174996 
L 67.573716 17.141261 
L 68.779039 17.897854 
L 69.984362 17.690729 
L 71.189685 17.857867 
L 72.395008 18.248206 
L 73.600331 17.776582 
L 74.805653 16.1219 
L 76.010976 16.489864 
L 77.216299 17.13366 
L 78.421622 17.381785 
L 79.626945 17.800173 
L 80.832268 18.065547 
L 82.03759 17.813861 
L 83.242913 17.416792 
L 84.448236 17.612681 
L 85.653559 17.685897 
L 86.858882 18.03689 
L 88.064205 18.856 
L 89.269527 19.3195 
L 91.680173 18.980664 
L 92.885496 19.260906 
L 94.090819 19.6556 
L 95.296142 19.428532 
L 96.501464 18.99553 
L 97.706787 19.552238 
L 98.91211 19.945001 
L 101.322756 21.200147 
L 102.528079 21.249964 
L 103.733401 21.528588 
L 104.938724 21.636907 
L 106.144047 21.192584 
L 107.34937 21.748987 
L 108.554693 21.529746 
L 109.760016 21.784355 
L 110.965338 20.741782 
L 112.170661 20.853332 
L 113.375984 20.407644 
L 114.581307 20.412896 
L 115.78663 20.94819 
L 116.991953 20.566581 
L 118.197275 20.570604 
L 119.402598 20.726107 
L 120.607921 20.734728 
L 121.813244 20.3484 
L 123.018567 20.549239 
L 124.223889 20.226234 
L 126.634535 18.911127 
L 127.839858 19.327228 
L 129.045181 18.490139 
L 130.250504 18.557386 
L 131.455826 18.951935 
L 132.661149 19.068442 
L 133.866472 18.950015 
L 135.071795 19.013771 
L 137.482441 18.825017 
L 138.687763 18.840705 
L 141.098409 18.420423 
L 145.9197 19.349194 
L 148.330346 18.812038 
L 149.535669 19.052929 
L 150.740992 18.788207 
L 151.946315 19.134321 
L 153.151637 19.343453 
L 154.35696 19.286976 
L 155.562283 19.414851 
L 157.972929 19.249469 
L 159.178252 19.406324 
L 160.383574 19.167263 
L 162.79422 19.040061 
L 165.204866 18.978344 
L 166.410189 19.358977 
L 167.615511 19.435208 
L 168.820834 19.684111 
L 170.026157 19.7613 
L 171.23148 19.69272 
L 172.436803 19.922724 
L 174.847448 19.977167 
L 176.052771 20.265186 
L 177.258094 20.160668 
L 182.079385 20.507658 
L 184.490031 20.457349 
L 186.900677 20.619837 
L 188.106 20.910536 
L 191.721968 20.941891 
L 192.927291 21.155036 
L 194.132614 21.095852 
L 196.543259 21.28466 
L 198.953905 21.237742 
L 201.364551 20.847078 
L 202.569873 21.067298 
L 203.775196 21.148682 
L 204.980519 21.024093 
L 207.391165 21.043842 
L 208.596488 20.954425 
L 217.033747 21.386925 
L 218.23907 21.556358 
L 219.444393 21.400594 
L 230.292299 22.03259 
L 231.497621 21.585649 
L 233.908267 21.70381 
L 237.524236 22.085924 
L 242.345527 22.287996 
L 244.756173 21.949743 
L 248.372141 22.269274 
L 249.577464 22.073566 
L 254.398755 22.542697 
L 255.604078 22.6303 
L 258.014724 22.450811 
L 260.425369 22.537578 
L 261.630692 22.417539 
L 262.836015 22.546404 
L 266.451984 22.459921 
L 267.657306 22.63611 
L 268.862629 22.566552 
L 270.067952 22.66324 
L 272.478598 22.368206 
L 273.683921 22.529534 
L 276.094566 22.367643 
L 277.299889 22.384263 
L 278.505212 22.598197 
L 282.12118 22.492852 
L 284.531826 22.084778 
L 288.147794 22.189457 
L 290.55844 22.109409 
L 291.763763 22.216639 
L 292.969086 21.898778 
L 294.174409 22.051864 
L 300.201023 21.974045 
L 301.406346 22.093896 
L 302.611668 21.883321 
L 306.227637 22.21617 
L 307.43296 22.27229 
L 308.638283 22.127523 
L 312.254251 22.259306 
L 313.459574 22.195677 
L 314.664897 21.967311 
L 315.87022 21.994863 
L 318.280865 21.90578 
L 319.486188 21.893527 
L 320.691511 21.510637 
L 321.896834 21.665004 
L 326.718125 21.62921 
L 327.923448 21.746904 
L 331.539416 21.530906 
L 333.950062 21.484243 
L 335.155385 21.62353 
L 341.181999 21.712517 
L 343.592645 21.732042 
L 344.797968 21.726688 
L 346.00329 21.544886 
L 348.413936 21.602965 
L 349.619259 21.57153 
L 353.235227 21.742279 
L 358.056519 21.874761 
L 364.083133 21.583447 
L 366.493778 21.64606 
L 367.699101 21.551599 
L 371.31507 21.730483 
L 376.136361 21.93257 
L 377.341684 22.086508 
L 378.547007 22.047187 
L 384.573621 22.396138 
L 389.394912 22.454987 
L 405.064109 22.532886 
L 408.680078 22.356188 
L 415.912015 22.136082 
L 419.527983 22.186544 
L 423.143952 22.286567 
L 429.170566 22.204408 
L 430.375889 22.289457 
L 432.786534 22.244495 
L 436.402503 22.27531 
L 438.813148 22.246361 
L 447.250408 22.221927 
L 450.866377 22.12292 
L 455.687668 22.041562 
L 464.124928 22.0269 
L 466.535573 22.174786 
L 468.946219 22.278 
L 471.356865 22.197651 
L 474.972833 22.3404 
L 494.257999 22.56423 
L 496.668644 22.37147 
L 499.07929 22.340115 
L 501.489936 22.270866 
L 503.900581 22.283818 
L 506.311227 22.221167 
L 508.721873 22.268165 
L 511.132518 22.347968 
L 512.337841 22.251244 
L 515.95381 22.384615 
L 515.95381 22.384615 
" clip-path="url(#p6d22fdaf54)" style="fill: none; stroke: #4169e1; stroke-width: 1.5; stroke-linecap: square"/>
   </g>
   <g id="line2d_26">
    <path d="M 35.03 97 
L 36.235323 61.506528 
L 37.440646 58.031317 
L 38.645968 54.143467 
L 39.851291 55.784138 
L 43.46726 68.737027 
L 44.672583 57.822911 
L 45.877905 61.498447 
L 47.083228 58.753733 
L 48.288551 60.68407 
L 49.493874 57.357464 
L 50.699197 49.517624 
L 51.90452 52.422298 
L 53.109842 54.897271 
L 54.315165 56.482281 
L 55.520488 58.728092 
L 56.725811 59.099467 
L 57.931134 50.007088 
L 59.136457 52.230517 
L 60.341779 54.092013 
L 61.547102 47.220708 
L 62.752425 44.495103 
L 65.163071 48.069803 
L 67.573716 51.27345 
L 68.779039 50.090505 
L 71.189685 52.765324 
L 72.395008 53.334399 
L 73.600331 53.432065 
L 74.805653 39.156468 
L 76.010976 40.016505 
L 77.216299 39.101643 
L 78.421622 40.284844 
L 79.626945 40.662177 
L 82.03759 42.604445 
L 83.242913 42.845301 
L 84.448236 43.863812 
L 85.653559 45.060772 
L 86.858882 45.329096 
L 88.064205 41.39433 
L 89.269527 40.938604 
L 91.680173 42.819354 
L 92.885496 43.276008 
L 94.090819 43.03617 
L 95.296142 43.650405 
L 96.501464 43.029966 
L 97.706787 41.273404 
L 98.91211 40.89765 
L 100.117433 37.982506 
L 101.322756 35.575023 
L 102.528079 36.628725 
L 103.733401 36.907715 
L 104.938724 37.809058 
L 106.144047 36.790024 
L 107.34937 34.578808 
L 108.554693 35.080755 
L 109.760016 35.37157 
L 110.965338 24.543875 
L 112.170661 25.521463 
L 113.375984 24.381365 
L 114.581307 25.464912 
L 115.78663 23.211359 
L 116.991953 22.575745 
L 118.197275 23.638757 
L 119.402598 24.380565 
L 120.607921 25.38826 
L 121.813244 24.519002 
L 123.018567 24.99148 
L 124.223889 24.622257 
L 126.634535 15.333616 
L 127.839858 14.085149 
L 129.045181 5.724023 
L 130.250504 6.803461 
L 131.455826 5.772755 
L 138.687763 11.382464 
L 143.509055 12.399413 
L 144.714378 11.560461 
L 145.9197 12.079327 
L 148.330346 11.556245 
L 149.535669 11.497107 
L 150.740992 11.220244 
L 151.946315 10.094794 
L 153.151637 10.234633 
L 154.35696 11.047915 
L 155.562283 11.617375 
L 157.972929 13.027533 
L 159.178252 13.398627 
L 160.383574 13.171454 
L 161.588897 13.710596 
L 163.999543 15.249113 
L 165.204866 15.900029 
L 166.410189 13.918218 
L 167.615511 14.556639 
L 168.820834 14.108703 
L 171.23148 15.35754 
L 172.436803 15.029089 
L 174.847448 16.364269 
L 176.052771 15.376493 
L 178.463417 16.307758 
L 179.66874 16.579529 
L 180.874063 16.624729 
L 185.695354 18.923879 
L 186.900677 19.316046 
L 188.106 18.075067 
L 191.721968 19.866882 
L 192.927291 19.426503 
L 194.132614 19.930153 
L 196.543259 20.660472 
L 198.953905 21.708457 
L 200.159228 21.550856 
L 202.569873 20.346798 
L 203.775196 20.730782 
L 204.980519 20.891044 
L 211.007133 23.023513 
L 212.212456 23.293411 
L 213.417779 23.168408 
L 214.623102 23.569653 
L 217.033747 23.811771 
L 219.444393 23.376663 
L 221.855039 24.169202 
L 223.060362 24.159778 
L 224.265684 24.589974 
L 225.471007 24.511417 
L 226.67633 24.774365 
L 227.881653 25.220381 
L 230.292299 25.383003 
L 231.497621 20.213451 
L 232.702944 20.667052 
L 233.908267 20.855472 
L 235.11359 20.724336 
L 236.318913 20.970027 
L 237.524236 20.736783 
L 238.729558 21.105076 
L 239.934881 21.275882 
L 241.140204 21.691366 
L 242.345527 21.927725 
L 243.55085 21.090904 
L 244.756173 21.003377 
L 245.961495 21.087231 
L 247.166818 21.494314 
L 248.372141 20.872661 
L 249.577464 20.124079 
L 250.782787 19.992572 
L 253.193432 20.273609 
L 254.398755 20.047359 
L 258.014724 20.538847 
L 260.425369 21.230425 
L 262.836015 21.023621 
L 265.246661 21.688541 
L 266.451984 21.872988 
L 267.657306 21.228671 
L 268.862629 21.455629 
L 270.067952 21.527181 
L 271.273275 20.909348 
L 272.478598 20.782034 
L 273.683921 20.277744 
L 274.889243 20.116516 
L 277.299889 20.824284 
L 278.505212 19.607724 
L 280.915858 20.303998 
L 282.12118 20.572195 
L 283.326503 19.73349 
L 284.531826 18.324085 
L 286.942472 18.827416 
L 289.353117 19.490013 
L 290.55844 19.80749 
L 291.763763 19.74651 
L 292.969086 16.383009 
L 294.174409 15.888682 
L 298.9957 17.171397 
L 300.201023 17.412309 
L 301.406346 17.224229 
L 302.611668 15.887047 
L 303.816991 15.576458 
L 305.022314 15.423982 
L 306.227637 15.505015 
L 307.43296 15.741473 
L 308.638283 15.278755 
L 309.843605 15.495774 
L 311.048928 15.834292 
L 312.254251 15.849404 
L 313.459574 16.038162 
L 314.664897 14.302423 
L 315.87022 14.625377 
L 317.075542 14.617696 
L 319.486188 15.305712 
L 320.691511 9.666507 
L 321.896834 9.055429 
L 324.307479 9.755728 
L 326.718125 10.230168 
L 329.128771 9.890418 
L 330.334094 10.239992 
L 331.539416 10.169674 
L 333.950062 10.791265 
L 335.155385 10.304318 
L 336.360708 10.649318 
L 338.771353 11.205827 
L 339.976676 11.531395 
L 342.387322 11.807997 
L 344.797968 12.39629 
L 346.00329 11.25469 
L 348.413936 11.798805 
L 349.619259 12.079592 
L 350.824582 12.094827 
L 352.029905 12.416248 
L 353.235227 12.365511 
L 358.056519 13.360107 
L 359.261842 13.486573 
L 361.672487 13.889166 
L 362.87781 14.066304 
L 364.083133 14.04044 
L 366.493778 14.524899 
L 368.904424 14.286171 
L 370.109747 14.351579 
L 373.725715 15.116476 
L 376.136361 15.147162 
L 377.341684 14.275619 
L 378.547007 14.488997 
L 379.75233 14.368683 
L 380.957652 14.575706 
L 382.162975 14.235108 
L 383.368298 14.501757 
L 384.573621 14.41604 
L 388.189589 15.245345 
L 389.394912 15.371627 
L 390.600235 15.641785 
L 391.805558 15.444978 
L 394.216204 15.354868 
L 395.421526 15.586236 
L 396.626849 15.446559 
L 397.832172 15.537804 
L 401.448141 16.295374 
L 402.653463 16.233766 
L 405.064109 16.58739 
L 406.269432 16.461194 
L 407.474755 16.147167 
L 408.680078 16.398779 
L 409.8854 16.515708 
L 411.090723 16.385138 
L 413.501369 16.775674 
L 414.706692 16.896039 
L 415.912015 16.893931 
L 419.527983 17.536492 
L 420.733306 17.580382 
L 429.170566 18.650358 
L 430.375889 18.480007 
L 431.581211 18.552799 
L 436.402503 19.418215 
L 437.607826 19.438084 
L 441.223794 20.047256 
L 443.63444 20.494742 
L 444.839763 20.243163 
L 447.250408 20.606271 
L 448.455731 20.539733 
L 449.661054 20.665018 
L 450.866377 20.599287 
L 452.071699 20.817156 
L 453.277022 20.82294 
L 456.892991 21.313718 
L 460.508959 21.591743 
L 461.714282 21.796426 
L 462.919605 21.796007 
L 464.124928 21.956585 
L 465.330251 21.326637 
L 466.535573 21.478126 
L 467.740896 21.374341 
L 468.946219 21.5204 
L 470.151542 21.526018 
L 471.356865 21.70034 
L 472.562188 21.574989 
L 476.178156 22.00354 
L 478.588802 21.814679 
L 482.20477 22.147471 
L 483.410093 22.13761 
L 485.820739 22.468506 
L 487.026062 22.297041 
L 489.436707 22.683021 
L 490.64203 22.696297 
L 493.052676 23.018202 
L 494.257999 22.990649 
L 495.463321 22.403484 
L 496.668644 22.134277 
L 497.873967 22.295303 
L 501.489936 22.40304 
L 505.105904 22.702503 
L 506.311227 22.860009 
L 507.51655 22.644779 
L 511.132518 22.92552 
L 512.337841 22.474203 
L 513.543164 22.265942 
L 514.748487 22.452397 
L 515.95381 22.384615 
L 515.95381 22.384615 
" clip-path="url(#p6d22fdaf54)" style="fill: none; stroke-dasharray: 5.55,2.4; stroke-dashoffset: 0; stroke: #4169e1; stroke-width: 1.5"/>
   </g>
   <g id="line2d_27">
    <path d="M 35.03 27.441435 
L 37.440646 12.855359 
L 38.645968 16.275754 
L 39.851291 12.41537 
L 41.056614 14.102839 
L 42.261937 14.96446 
L 43.46726 14.712861 
L 44.672583 17.723114 
L 45.877905 17.447085 
L 47.083228 19.014581 
L 48.288551 17.750179 
L 50.699197 21.072972 
L 51.90452 21.648925 
L 53.109842 21.118754 
L 54.315165 21.167822 
L 55.520488 21.078201 
L 56.725811 20.352232 
L 57.931134 18.607776 
L 60.341779 18.511363 
L 61.547102 16.955846 
L 62.752425 17.818654 
L 63.957748 17.47592 
L 65.163071 17.469529 
L 66.368394 17.611266 
L 67.573716 17.416239 
L 68.779039 18.089677 
L 69.984362 17.860561 
L 71.189685 17.909871 
L 72.395008 18.195047 
L 73.600331 17.626865 
L 74.805653 16.315839 
L 76.010976 16.775533 
L 77.216299 17.381204 
L 80.832268 18.544844 
L 82.03759 18.181218 
L 84.448236 18.116801 
L 85.653559 18.070726 
L 86.858882 18.301434 
L 88.064205 19.006322 
L 89.269527 19.393108 
L 90.47485 19.066879 
L 91.680173 19.066495 
L 92.885496 19.261328 
L 94.090819 19.662116 
L 95.296142 19.472367 
L 96.501464 19.019348 
L 97.706787 19.610642 
L 98.91211 19.932554 
L 101.322756 21.031 
L 102.528079 21.064015 
L 103.733401 21.301111 
L 104.938724 21.339789 
L 106.144047 21.001244 
L 107.34937 21.523511 
L 108.554693 21.354734 
L 109.760016 21.627186 
L 110.965338 20.692263 
L 112.170661 20.838882 
L 113.375984 20.518311 
L 114.581307 20.595464 
L 115.78663 21.110601 
L 116.991953 20.815037 
L 120.607921 20.982872 
L 121.813244 20.654337 
L 123.018567 20.756695 
L 124.223889 20.434193 
L 126.634535 19.350186 
L 127.839858 19.697722 
L 129.045181 19.046408 
L 130.250504 19.131993 
L 131.455826 19.489183 
L 132.661149 19.621133 
L 133.866472 19.540748 
L 135.071795 19.665708 
L 141.098409 19.139982 
L 145.9197 20.009122 
L 148.330346 19.681361 
L 149.535669 19.944116 
L 150.740992 19.655019 
L 151.946315 19.971009 
L 153.151637 20.166318 
L 154.35696 20.074794 
L 155.562283 20.168117 
L 157.972929 19.939665 
L 159.178252 20.09156 
L 160.383574 19.82689 
L 162.79422 19.64528 
L 165.204866 19.535922 
L 166.410189 19.922428 
L 170.026157 20.34169 
L 171.23148 20.233242 
L 172.436803 20.416549 
L 174.847448 20.385398 
L 176.052771 20.631611 
L 177.258094 20.473087 
L 179.66874 20.619026 
L 180.874063 20.807355 
L 183.284708 20.595769 
L 186.900677 20.8057 
L 188.106 21.091079 
L 191.721968 21.083334 
L 192.927291 21.255892 
L 194.132614 21.208551 
L 197.748582 21.350059 
L 200.159228 21.179774 
L 201.364551 20.981365 
L 203.775196 21.27332 
L 204.980519 21.117545 
L 206.185842 21.155544 
L 211.007133 20.925174 
L 218.23907 21.452386 
L 219.444393 21.378117 
L 220.649716 21.475213 
L 221.855039 21.445258 
L 223.060362 21.57432 
L 224.265684 21.585974 
L 226.67633 21.841145 
L 227.881653 21.821202 
L 230.292299 22.021076 
L 231.497621 21.671254 
L 233.908267 21.811887 
L 237.524236 22.178931 
L 241.140204 22.345602 
L 242.345527 22.381501 
L 244.756173 22.125634 
L 245.961495 22.218637 
L 247.166818 22.195442 
L 248.372141 22.372878 
L 249.577464 22.165977 
L 255.604078 22.678339 
L 258.014724 22.510388 
L 265.246661 22.638688 
L 266.451984 22.573212 
L 267.657306 22.750111 
L 268.862629 22.667437 
L 270.067952 22.752209 
L 272.478598 22.454854 
L 273.683921 22.615475 
L 276.094566 22.398304 
L 277.299889 22.437434 
L 278.505212 22.630916 
L 282.12118 22.512497 
L 285.737149 22.243878 
L 288.147794 22.258253 
L 290.55844 22.179758 
L 291.763763 22.281728 
L 292.969086 22.038874 
L 294.174409 22.199461 
L 298.9957 22.098892 
L 301.406346 22.281962 
L 302.611668 22.080016 
L 307.43296 22.406645 
L 308.638283 22.284997 
L 313.459574 22.335433 
L 314.664897 22.09513 
L 315.87022 22.120855 
L 318.280865 22.014265 
L 319.486188 22.026963 
L 320.691511 21.701317 
L 321.896834 21.850753 
L 326.718125 21.795123 
L 327.923448 21.901134 
L 331.539416 21.673399 
L 333.950062 21.641543 
L 335.155385 21.773238 
L 344.797968 21.84537 
L 346.00329 21.676777 
L 348.413936 21.71126 
L 349.619259 21.678928 
L 353.235227 21.866632 
L 358.056519 21.97214 
L 364.083133 21.705078 
L 366.493778 21.750147 
L 367.699101 21.721156 
L 370.109747 21.887514 
L 374.931038 21.993241 
L 386.984267 22.477307 
L 390.600235 22.535502 
L 391.805558 22.62496 
L 394.216204 22.495596 
L 401.448141 22.652545 
L 403.858786 22.57148 
L 405.064109 22.623074 
L 411.090723 22.33056 
L 424.349274 22.352049 
L 427.965243 22.216067 
L 433.991857 22.336869 
L 446.045085 22.169803 
L 449.661054 22.162312 
L 453.277022 22.079703 
L 458.098314 22.088443 
L 460.508959 22.084058 
L 464.124928 22.043968 
L 466.535573 22.171854 
L 468.946219 22.27616 
L 471.356865 22.186408 
L 478.588802 22.423904 
L 480.999447 22.374616 
L 487.026062 22.575917 
L 494.257999 22.515421 
L 496.668644 22.331347 
L 499.07929 22.282959 
L 501.489936 22.235584 
L 505.105904 22.233333 
L 508.721873 22.259048 
L 515.95381 22.384615 
L 515.95381 22.384615 
" clip-path="url(#p6d22fdaf54)" style="fill: none; stroke: #ff8c00; stroke-width: 1.5; stroke-linecap: square"/>
   </g>
   <g id="line2d_28">
    <path d="M 35.03 97 
L 36.235323 86.804613 
L 37.440646 66.457743 
L 38.645968 66.822838 
L 39.851291 60.509903 
L 41.056614 63.642209 
L 43.46726 71.08248 
L 44.672583 58.945163 
L 45.877905 62.608597 
L 47.083228 60.645284 
L 48.288551 60.031911 
L 50.699197 51.526322 
L 51.90452 53.595869 
L 53.109842 55.435232 
L 54.315165 57.872238 
L 55.520488 60.017717 
L 56.725811 59.998996 
L 57.931134 49.871656 
L 60.341779 54.131654 
L 61.547102 44.968418 
L 62.752425 43.58954 
L 63.957748 45.141957 
L 65.163071 47.136285 
L 66.368394 48.874888 
L 67.573716 50.380905 
L 68.779039 49.357942 
L 69.984362 50.630658 
L 71.189685 52.111332 
L 72.395008 52.991856 
L 73.600331 52.185438 
L 74.805653 41.75385 
L 76.010976 41.84396 
L 77.216299 40.716387 
L 78.421622 41.276803 
L 80.832268 41.652771 
L 82.03759 41.968225 
L 85.653559 45.741173 
L 86.858882 46.432034 
L 88.064205 43.026983 
L 89.269527 42.805736 
L 90.47485 42.944685 
L 91.680173 44.070836 
L 92.885496 44.773575 
L 94.090819 44.187634 
L 95.296142 44.85025 
L 96.501464 43.684972 
L 97.706787 40.924757 
L 98.91211 40.82546 
L 100.117433 37.922013 
L 101.322756 36.058593 
L 102.528079 37.115096 
L 103.733401 37.483835 
L 104.938724 38.47461 
L 106.144047 38.049236 
L 107.34937 35.625441 
L 108.554693 36.255401 
L 109.760016 36.266231 
L 110.965338 25.807964 
L 112.170661 26.618224 
L 113.375984 26.300882 
L 114.581307 27.274709 
L 115.78663 24.617027 
L 116.991953 24.435507 
L 118.197275 25.447552 
L 119.402598 26.252443 
L 120.607921 27.234091 
L 121.813244 26.579947 
L 123.018567 27.373136 
L 124.223889 26.70714 
L 126.634535 19.404645 
L 127.839858 18.472911 
L 129.045181 12.612613 
L 130.250504 13.547587 
L 131.455826 12.463504 
L 132.661149 13.202297 
L 133.866472 14.102144 
L 136.277118 15.573326 
L 138.687763 17.269087 
L 139.893086 17.669182 
L 141.098409 18.349834 
L 142.303732 18.27109 
L 143.509055 18.483529 
L 144.714378 17.730946 
L 148.330346 18.704589 
L 149.535669 18.1615 
L 150.740992 17.312204 
L 151.946315 16.118991 
L 153.151637 16.161578 
L 156.767606 18.043012 
L 159.178252 18.63501 
L 160.383574 17.872199 
L 161.588897 18.190916 
L 163.999543 19.612878 
L 165.204866 20.070852 
L 166.410189 17.397122 
L 167.615511 17.633054 
L 168.820834 17.301005 
L 170.026157 17.919408 
L 171.23148 18.337793 
L 172.436803 18.228305 
L 174.847448 19.469296 
L 176.052771 18.657089 
L 177.258094 18.701162 
L 178.463417 19.296687 
L 179.66874 19.700771 
L 180.874063 19.445358 
L 183.284708 20.129843 
L 184.490031 20.69908 
L 186.900677 21.536138 
L 188.106 19.983123 
L 191.721968 21.719231 
L 192.927291 21.4815 
L 195.337937 22.434493 
L 198.953905 23.839228 
L 200.159228 24.041818 
L 202.569873 22.841474 
L 203.775196 23.109711 
L 204.980519 22.921301 
L 206.185842 23.396858 
L 207.391165 23.700081 
L 208.596488 23.867246 
L 209.80181 24.346591 
L 212.212456 24.985205 
L 213.417779 24.786816 
L 214.623102 25.240232 
L 217.033747 25.680764 
L 218.23907 25.478855 
L 219.444393 25.768458 
L 220.649716 25.927263 
L 221.855039 26.354047 
L 223.060362 26.265741 
L 224.265684 26.70901 
L 225.471007 26.108654 
L 226.67633 26.357925 
L 227.881653 26.783512 
L 230.292299 26.977402 
L 231.497621 23.272264 
L 232.702944 23.672832 
L 233.908267 23.746794 
L 235.11359 23.47202 
L 236.318913 23.682712 
L 237.524236 23.414732 
L 239.934881 23.661964 
L 242.345527 24.449158 
L 243.55085 23.725618 
L 247.166818 24.422249 
L 248.372141 23.675623 
L 249.577464 22.5068 
L 251.98811 22.416664 
L 253.193432 22.592663 
L 254.398755 22.238381 
L 256.809401 22.595133 
L 258.014724 22.725342 
L 260.425369 23.358847 
L 261.630692 23.422676 
L 262.836015 23.111627 
L 265.246661 23.840503 
L 266.451984 24.049056 
L 267.657306 23.173982 
L 270.067952 23.363742 
L 271.273275 22.398511 
L 272.478598 22.2285 
L 274.889243 20.989066 
L 276.094566 21.18332 
L 277.299889 21.494895 
L 278.505212 20.30037 
L 280.915858 21.010741 
L 282.12118 21.134292 
L 283.326503 20.955733 
L 284.531826 19.315457 
L 286.942472 19.819924 
L 290.55844 20.736433 
L 291.763763 20.634014 
L 292.969086 18.374686 
L 294.174409 17.590151 
L 300.201023 19.125807 
L 301.406346 18.709973 
L 302.611668 17.185581 
L 305.022314 16.992855 
L 306.227637 17.085667 
L 307.43296 17.299756 
L 308.638283 16.953458 
L 311.048928 17.511392 
L 312.254251 17.46061 
L 313.459574 17.711122 
L 314.664897 15.276205 
L 315.87022 15.59351 
L 317.075542 15.418175 
L 319.486188 16.098355 
L 320.691511 11.232 
L 321.896834 10.4899 
L 324.307479 11.163936 
L 326.718125 11.617627 
L 329.128771 11.121409 
L 330.334094 11.455133 
L 331.539416 11.305006 
L 333.950062 11.924023 
L 335.155385 11.369735 
L 336.360708 11.71025 
L 337.566031 11.832102 
L 341.181999 12.464037 
L 343.592645 12.793345 
L 344.797968 13.119233 
L 346.00329 11.924004 
L 347.208613 12.044215 
L 349.619259 12.595248 
L 350.824582 12.493445 
L 352.029905 12.812416 
L 353.235227 12.637622 
L 358.056519 13.697849 
L 359.261842 13.787414 
L 360.467164 14.001257 
L 361.672487 14.059808 
L 362.87781 14.310303 
L 364.083133 14.361889 
L 365.288456 14.543448 
L 367.699101 15.090719 
L 368.904424 14.716969 
L 370.109747 14.815268 
L 373.725715 15.578154 
L 376.136361 15.735897 
L 377.341684 14.693548 
L 378.547007 14.981291 
L 379.75233 14.870342 
L 380.957652 15.084057 
L 382.162975 14.729943 
L 383.368298 14.993628 
L 384.573621 14.989343 
L 390.600235 16.208927 
L 391.805558 15.990246 
L 394.216204 16.016264 
L 395.421526 16.17071 
L 396.626849 16.044662 
L 399.037495 16.495841 
L 401.448141 16.99808 
L 402.653463 16.985788 
L 403.858786 17.231692 
L 405.064109 17.321394 
L 406.269432 17.288302 
L 407.474755 16.874665 
L 408.680078 17.124809 
L 409.8854 17.221107 
L 411.090723 17.02397 
L 412.296046 17.275164 
L 413.501369 17.374568 
L 414.706692 17.34866 
L 417.117337 17.654164 
L 419.527983 18.048765 
L 420.733306 18.130338 
L 424.349274 18.689813 
L 425.554597 18.539783 
L 427.965243 18.879054 
L 429.170566 18.995111 
L 430.375889 18.886122 
L 432.786534 19.231515 
L 435.19718 19.560817 
L 436.402503 19.785741 
L 437.607826 19.615312 
L 443.63444 20.629642 
L 444.839763 20.391136 
L 447.250408 20.764595 
L 448.455731 20.696626 
L 450.866377 20.952096 
L 452.071699 21.093924 
L 453.277022 20.954057 
L 454.482345 21.130298 
L 455.687668 21.085603 
L 456.892991 21.301882 
L 460.508959 21.515178 
L 464.124928 22.007891 
L 465.330251 21.245003 
L 466.535573 21.443059 
L 467.740896 21.293873 
L 468.946219 21.413169 
L 470.151542 21.288978 
L 471.356865 21.457803 
L 472.562188 21.463228 
L 476.178156 21.973857 
L 479.794125 21.879734 
L 480.999447 22.076637 
L 483.410093 21.993928 
L 485.820739 22.274499 
L 487.026062 22.083888 
L 489.436707 22.480164 
L 490.64203 22.513388 
L 493.052676 22.874041 
L 494.257999 22.92886 
L 495.463321 22.323992 
L 496.668644 21.963473 
L 497.873967 22.127689 
L 499.07929 21.952581 
L 500.284613 21.969128 
L 503.900581 22.48832 
L 506.311227 22.746708 
L 507.51655 22.475444 
L 511.132518 22.729582 
L 513.543164 22.312825 
L 514.748487 22.497591 
L 515.95381 22.384615 
L 515.95381 22.384615 
" clip-path="url(#p6d22fdaf54)" style="fill: none; stroke-dasharray: 5.55,2.4; stroke-dashoffset: 0; stroke: #ff8c00; stroke-width: 1.5"/>
   </g>
   <g id="patch_3">
    <path d="M 35.03 97 
L 35.03 0 
" style="fill: none; stroke: #000000; stroke-width: 0.8; stroke-linejoin: miter; stroke-linecap: square"/>
   </g>
   <g id="patch_4">
    <path d="M 540 97 
L 540 0 
" style="fill: none; stroke: #000000; stroke-width: 0.8; stroke-linejoin: miter; stroke-linecap: square"/>
   </g>
   <g id="patch_5">
    <path d="M 35.03 97 
L 540 97 
" style="fill: none; stroke: #000000; stroke-width: 0.8; stroke-linejoin: miter; stroke-linecap: square"/>
   </g>
   <g id="patch_6">
    <path d="M 35.03 0 
L 540 0 
" style="fill: none; stroke: #000000; stroke-width: 0.8; stroke-linejoin: miter; stroke-linecap: square"/>
   </g>
  </g>
 </g>
 <defs>
  <clipPath id="p6d22fdaf54">
   <rect x="35.03" y="0" width="504.97" height="97"/>
  </clipPath>
 </defs>
</svg>
