<?xml version="1.0" encoding="utf-8" standalone="no"?>
<!DOCTYPE svg PUBLIC "-//W3C//DTD SVG 1.1//EN"
  "http://www.w3.org/Graphics/SVG/1.1/DTD/svg11.dtd">
<svg xmlns:xlink="http://www.w3.org/1999/xlink" width="540pt" height="129.6pt" viewBox="0 0 540 129.6" xmlns="http://www.w3.org/2000/svg" version="1.1">
 <metadata>
  <rdf:RDF xmlns:dc="http://purl.org/dc/elements/1.1/" xmlns:cc="http://creativecommons.org/ns#" xmlns:rdf="http://www.w3.org/1999/02/22-rdf-syntax-ns#">
   <cc:Work>
    <dc:type rdf:resource="http://purl.org/dc/dcmitype/StillImage"/>
    <dc:date>2025-04-05T09:25:08.542376</dc:date>
    <dc:format>image/svg+xml</dc:format>
    <dc:creator>
     <cc:Agent>
      <dc:title>Matplotlib v3.10.1, https://matplotlib.org/</dc:title>
     </cc:Agent>
    </dc:creator>
   </cc:Work>
  </rdf:RDF>
 </metadata>
 <defs>
  <style type="text/css">*{stroke-linejoin: round; stroke-linecap: butt}</style>
 </defs>
 <g id="figure_1">
  <g id="patch_1">
   <path d="M 0 129.6 
L 540 129.6 
L 540 0 
L 0 0 
z
" style="fill: #ffffff"/>
  </g>
  <g id="axes_1">
   <g id="patch_2">
    <path d="M 34.31 98.44 
L 540 98.44 
L 540 0 
L 34.31 0 
z
" style="fill: #ffffff"/>
   </g>
   <g id="matplotlib.axis_1">
    <g id="xtick_1">
     <g id="line2d_1">
      <path d="M 34.31 98.44 
L 34.31 0 
" clip-path="url(#p9b70d8e014)" style="fill: none; stroke: #b0b0b0; stroke-width: 0.8; stroke-linecap: square"/>
     </g>
     <g id="line2d_2">
      <defs>
       <path id="m7def3a53f3" d="M 0 0 
L 0 3.5 
" style="stroke: #000000; stroke-width: 0.8"/>
      </defs>
      <g>
       <use xlink:href="#m7def3a53f3" x="34.31" y="98.44" style="stroke: #000000; stroke-width: 0.8"/>
      </g>
     </g>
     <g id="text_1">
      <text style="font-size: 10px; font-family: 'Times New Roman'; text-anchor: middle" x="34.31" y="112.38375" transform="rotate(-0 34.31 112.38375)">0</text>
     </g>
    </g>
    <g id="xtick_2">
     <g id="line2d_3">
      <path d="M 94.662071 98.44 
L 94.662071 0 
" clip-path="url(#p9b70d8e014)" style="fill: none; stroke: #b0b0b0; stroke-width: 0.8; stroke-linecap: square"/>
     </g>
     <g id="line2d_4">
      <g>
       <use xlink:href="#m7def3a53f3" x="94.662071" y="98.44" style="stroke: #000000; stroke-width: 0.8"/>
      </g>
     </g>
     <g id="text_2">
      <text style="font-size: 10px; font-family: 'Times New Roman'; text-anchor: middle" x="94.662071" y="112.38375" transform="rotate(-0 94.662071 112.38375)">50</text>
     </g>
    </g>
    <g id="xtick_3">
     <g id="line2d_5">
      <path d="M 155.014141 98.44 
L 155.014141 0 
" clip-path="url(#p9b70d8e014)" style="fill: none; stroke: #b0b0b0; stroke-width: 0.8; stroke-linecap: square"/>
     </g>
     <g id="line2d_6">
      <g>
       <use xlink:href="#m7def3a53f3" x="155.014141" y="98.44" style="stroke: #000000; stroke-width: 0.8"/>
      </g>
     </g>
     <g id="text_3">
      <text style="font-size: 10px; font-family: 'Times New Roman'; text-anchor: middle" x="155.014141" y="112.38375" transform="rotate(-0 155.014141 112.38375)">100</text>
     </g>
    </g>
    <g id="xtick_4">
     <g id="line2d_7">
      <path d="M 215.366212 98.44 
L 215.366212 0 
" clip-path="url(#p9b70d8e014)" style="fill: none; stroke: #b0b0b0; stroke-width: 0.8; stroke-linecap: square"/>
     </g>
     <g id="line2d_8">
      <g>
       <use xlink:href="#m7def3a53f3" x="215.366212" y="98.44" style="stroke: #000000; stroke-width: 0.8"/>
      </g>
     </g>
     <g id="text_4">
      <text style="font-size: 10px; font-family: 'Times New Roman'; text-anchor: middle" x="215.366212" y="112.38375" transform="rotate(-0 215.366212 112.38375)">150</text>
     </g>
    </g>
    <g id="xtick_5">
     <g id="line2d_9">
      <path d="M 275.718283 98.44 
L 275.718283 0 
" clip-path="url(#p9b70d8e014)" style="fill: none; stroke: #b0b0b0; stroke-width: 0.8; stroke-linecap: square"/>
     </g>
     <g id="line2d_10">
      <g>
       <use xlink:href="#m7def3a53f3" x="275.718283" y="98.44" style="stroke: #000000; stroke-width: 0.8"/>
      </g>
     </g>
     <g id="text_5">
      <text style="font-size: 10px; font-family: 'Times New Roman'; text-anchor: middle" x="275.718283" y="112.38375" transform="rotate(-0 275.718283 112.38375)">200</text>
     </g>
    </g>
    <g id="xtick_6">
     <g id="line2d_11">
      <path d="M 336.070353 98.44 
L 336.070353 0 
" clip-path="url(#p9b70d8e014)" style="fill: none; stroke: #b0b0b0; stroke-width: 0.8; stroke-linecap: square"/>
     </g>
     <g id="line2d_12">
      <g>
       <use xlink:href="#m7def3a53f3" x="336.070353" y="98.44" style="stroke: #000000; stroke-width: 0.8"/>
      </g>
     </g>
     <g id="text_6">
      <text style="font-size: 10px; font-family: 'Times New Roman'; text-anchor: middle" x="336.070353" y="112.38375" transform="rotate(-0 336.070353 112.38375)">250</text>
     </g>
    </g>
    <g id="xtick_7">
     <g id="line2d_13">
      <path d="M 396.422424 98.44 
L 396.422424 0 
" clip-path="url(#p9b70d8e014)" style="fill: none; stroke: #b0b0b0; stroke-width: 0.8; stroke-linecap: square"/>
     </g>
     <g id="line2d_14">
      <g>
       <use xlink:href="#m7def3a53f3" x="396.422424" y="98.44" style="stroke: #000000; stroke-width: 0.8"/>
      </g>
     </g>
     <g id="text_7">
      <text style="font-size: 10px; font-family: 'Times New Roman'; text-anchor: middle" x="396.422424" y="112.38375" transform="rotate(-0 396.422424 112.38375)">300</text>
     </g>
    </g>
    <g id="xtick_8">
     <g id="line2d_15">
      <path d="M 456.774495 98.44 
L 456.774495 0 
" clip-path="url(#p9b70d8e014)" style="fill: none; stroke: #b0b0b0; stroke-width: 0.8; stroke-linecap: square"/>
     </g>
     <g id="line2d_16">
      <g>
       <use xlink:href="#m7def3a53f3" x="456.774495" y="98.44" style="stroke: #000000; stroke-width: 0.8"/>
      </g>
     </g>
     <g id="text_8">
      <text style="font-size: 10px; font-family: 'Times New Roman'; text-anchor: middle" x="456.774495" y="112.38375" transform="rotate(-0 456.774495 112.38375)">350</text>
     </g>
    </g>
    <g id="xtick_9">
     <g id="line2d_17">
      <path d="M 517.126565 98.44 
L 517.126565 0 
" clip-path="url(#p9b70d8e014)" style="fill: none; stroke: #b0b0b0; stroke-width: 0.8; stroke-linecap: square"/>
     </g>
     <g id="line2d_18">
      <g>
       <use xlink:href="#m7def3a53f3" x="517.126565" y="98.44" style="stroke: #000000; stroke-width: 0.8"/>
      </g>
     </g>
     <g id="text_9">
      <text style="font-size: 10px; font-family: 'Times New Roman'; text-anchor: middle" x="517.126565" y="112.38375" transform="rotate(-0 517.126565 112.38375)">400</text>
     </g>
    </g>
    <g id="text_10">
     <text style="font-size: 12px; font-family: 'Times New Roman'; text-anchor: middle" x="287.155" y="126.855312" transform="rotate(-0 287.155 126.855312)">Simulation Run</text>
    </g>
   </g>
   <g id="matplotlib.axis_2">
    <g id="ytick_1">
     <g id="line2d_19">
      <path d="M 34.31 98.44 
L 540 98.44 
" clip-path="url(#p9b70d8e014)" style="fill: none; stroke: #b0b0b0; stroke-width: 0.8; stroke-linecap: square"/>
     </g>
     <g id="line2d_20">
      <defs>
       <path id="m68eddfeaaa" d="M 0 0 
L -3.5 0 
" style="stroke: #000000; stroke-width: 0.8"/>
      </defs>
      <g>
       <use xlink:href="#m68eddfeaaa" x="34.31" y="98.44" style="stroke: #000000; stroke-width: 0.8"/>
      </g>
     </g>
     <g id="text_11">
      <text style="font-size: 10px; font-family: 'Times New Roman'; text-anchor: end" x="27.31" y="101.911875" transform="rotate(-0 27.31 101.911875)">0.0</text>
     </g>
    </g>
    <g id="ytick_2">
     <g id="line2d_21">
      <path d="M 34.31 60.578462 
L 540 60.578462 
" clip-path="url(#p9b70d8e014)" style="fill: none; stroke: #b0b0b0; stroke-width: 0.8; stroke-linecap: square"/>
     </g>
     <g id="line2d_22">
      <g>
       <use xlink:href="#m68eddfeaaa" x="34.31" y="60.578462" style="stroke: #000000; stroke-width: 0.8"/>
      </g>
     </g>
     <g id="text_12">
      <text style="font-size: 10px; font-family: 'Times New Roman'; text-anchor: end" x="27.31" y="64.050337" transform="rotate(-0 27.31 64.050337)">0.5</text>
     </g>
    </g>
    <g id="ytick_3">
     <g id="line2d_23">
      <path d="M 34.31 22.716923 
L 540 22.716923 
" clip-path="url(#p9b70d8e014)" style="fill: none; stroke: #b0b0b0; stroke-width: 0.8; stroke-linecap: square"/>
     </g>
     <g id="line2d_24">
      <g>
       <use xlink:href="#m68eddfeaaa" x="34.31" y="22.716923" style="stroke: #000000; stroke-width: 0.8"/>
      </g>
     </g>
     <g id="text_13">
      <text style="font-size: 10px; font-family: 'Times New Roman'; text-anchor: end" x="27.31" y="26.188798" transform="rotate(-0 27.31 26.188798)">1.0</text>
     </g>
    </g>
    <g id="text_14">
     <text style="font-size: 12px; font-family: 'Times New Roman'; text-anchor: middle" x="8.243125" y="49.22" transform="rotate(-90 8.243125 49.22)">Normalized Value</text>
    </g>
   </g>
   <g id="line2d_25">
    <path d="M 34.31 8.672701 
L 35.517041 24.931758 
L 36.724083 22.3348 
L 37.931124 23.641237 
L 39.138166 22.755041 
L 40.345207 24.130653 
L 41.552248 27.497683 
L 42.75929 27.566699 
L 43.966331 29.004021 
L 45.173373 28.837214 
L 46.380414 27.845855 
L 47.587456 26.294514 
L 48.794497 24.414919 
L 50.001538 24.740218 
L 51.20858 23.412921 
L 52.415621 25.094767 
L 53.622663 25.185356 
L 54.829704 25.481235 
L 56.036745 24.484187 
L 57.243787 25.012457 
L 58.450828 24.426053 
L 59.65787 24.834788 
L 60.864911 24.684829 
L 62.071953 24.176019 
L 63.278994 24.709983 
L 64.486035 25.061194 
L 65.693077 24.074063 
L 66.900118 24.579501 
L 68.10716 24.608661 
L 70.521242 25.825258 
L 71.728284 24.961886 
L 72.935325 24.907124 
L 74.142367 24.982852 
L 75.349408 25.395586 
L 76.556449 25.602816 
L 77.763491 25.561745 
L 78.970532 25.325329 
L 80.177574 24.138044 
L 81.384615 24.444272 
L 82.591657 23.646941 
L 83.798698 24.00934 
L 86.212781 25.108709 
L 87.419822 25.271659 
L 89.833905 24.791944 
L 91.040946 25.323965 
L 94.662071 24.845896 
L 95.869112 24.469429 
L 97.076153 24.40331 
L 98.283195 24.118438 
L 100.697278 22.674873 
L 101.904319 22.585283 
L 103.111361 22.642809 
L 104.318402 23.288175 
L 105.525443 23.582087 
L 106.732485 23.6194 
L 107.939526 23.4317 
L 110.353609 24.188501 
L 111.56065 23.796345 
L 112.767692 23.531513 
L 113.974733 24.172141 
L 115.181775 24.272913 
L 117.595858 24.269564 
L 118.802899 24.656611 
L 120.00994 24.311579 
L 121.216982 24.576886 
L 122.424023 24.414381 
L 124.838106 23.613644 
L 126.045147 23.593889 
L 127.252189 23.0704 
L 128.45923 22.714176 
L 130.873313 22.956084 
L 132.080354 23.025089 
L 133.287396 22.91927 
L 134.494437 22.530697 
L 136.90852 22.575034 
L 139.322603 22.462443 
L 140.529644 22.820794 
L 141.736686 22.752162 
L 142.943727 22.912203 
L 144.150769 22.422037 
L 148.978934 22.732816 
L 150.185976 22.568736 
L 152.600058 22.688033 
L 153.8071 22.51873 
L 155.014141 22.711408 
L 156.221183 22.577848 
L 161.049348 23.368699 
L 162.25639 22.899465 
L 163.463431 23.052463 
L 165.877514 23.004201 
L 168.291597 23.412489 
L 169.498638 23.141137 
L 174.326804 23.029236 
L 175.533845 22.75528 
L 177.947928 23.029675 
L 179.15497 23.227296 
L 182.776094 23.394568 
L 183.983135 23.145978 
L 185.190177 23.224743 
L 187.604259 23.166878 
L 190.018342 23.350802 
L 191.225384 23.013043 
L 193.639467 23.277094 
L 197.260591 23.515907 
L 198.467632 23.725517 
L 199.674674 23.487241 
L 205.709881 23.375442 
L 212.952129 23.354194 
L 216.573253 23.671545 
L 217.780295 23.495738 
L 218.987336 23.495423 
L 220.194378 23.66808 
L 221.401419 23.711497 
L 222.60846 23.567874 
L 223.815502 23.540203 
L 226.229585 23.769843 
L 227.436626 23.611918 
L 228.643668 23.706566 
L 232.264792 23.406812 
L 233.471833 23.499042 
L 234.678875 23.342362 
L 235.885916 23.354711 
L 237.092957 23.164787 
L 240.714082 23.060809 
L 241.921123 23.215488 
L 243.128164 23.14805 
L 245.542247 23.360391 
L 246.749289 23.576725 
L 249.163372 23.5251 
L 251.577454 23.638344 
L 256.40562 23.385201 
L 257.612661 23.157741 
L 261.233786 23.022242 
L 263.647868 23.340371 
L 264.85491 23.165508 
L 267.268993 23.215082 
L 268.476034 23.062111 
L 279.339407 23.009754 
L 281.75349 22.753702 
L 286.581655 23.030751 
L 287.788697 23.169879 
L 291.409821 23.214783 
L 292.616862 22.981929 
L 293.823904 23.067585 
L 297.445028 22.868323 
L 298.652069 22.904399 
L 299.859111 22.799352 
L 308.308401 22.867929 
L 309.515442 22.734587 
L 316.757691 22.744941 
L 317.964732 22.683121 
L 320.378815 22.852387 
L 325.206981 23.009595 
L 326.414022 23.054433 
L 328.828105 22.92766 
L 332.449229 23.185782 
L 334.863312 23.100077 
L 336.070353 23.18689 
L 340.898519 22.976485 
L 344.519643 23.253654 
L 348.140767 23.384955 
L 349.347809 23.402739 
L 351.761892 23.582316 
L 366.246389 23.704987 
L 367.45343 23.605747 
L 369.867513 23.660627 
L 371.074554 22.924973 
L 373.488637 23.086207 
L 375.90272 23.025 
L 379.523844 23.284778 
L 381.937927 23.270221 
L 384.35201 23.268455 
L 395.215383 23.348662 
L 397.629465 23.109421 
L 401.25059 23.214352 
L 403.664672 23.331277 
L 408.492838 23.108995 
L 414.528045 22.997691 
L 415.735087 22.719927 
L 418.149169 22.684362 
L 420.563252 22.789578 
L 425.391418 22.786401 
L 431.426625 22.849955 
L 433.840708 22.645743 
L 437.461832 22.816373 
L 442.289998 22.894145 
L 443.497039 22.897219 
L 444.70408 22.787004 
L 448.325205 22.847833 
L 450.739288 22.87399 
L 454.360412 23.019411 
L 460.395619 22.7423 
L 461.60266 22.795717 
L 464.016743 22.703279 
L 468.844909 22.889089 
L 473.673074 22.780787 
L 474.880116 22.832672 
L 477.294199 22.748021 
L 486.95053 22.798685 
L 489.364613 22.797611 
L 492.985737 22.863981 
L 506.263193 22.85652 
L 509.884317 22.90073 
L 513.505441 22.779553 
L 514.712482 22.642068 
L 515.919524 22.716923 
L 515.919524 22.716923 
" clip-path="url(#p9b70d8e014)" style="fill: none; stroke: #4169e1; stroke-width: 1.5; stroke-linecap: square"/>
   </g>
   <g id="line2d_26">
    <path d="M 34.31 98.44 
L 35.517041 55.925254 
L 36.724083 67.927591 
L 37.931124 74.732225 
L 39.138166 78.968575 
L 40.345207 80.692176 
L 41.552248 72.288166 
L 42.75929 75.551783 
L 43.966331 75.436968 
L 45.173373 77.696998 
L 46.380414 78.002165 
L 47.587456 75.447802 
L 48.794497 70.398405 
L 50.001538 72.180139 
L 51.20858 69.964243 
L 52.415621 64.920391 
L 53.622663 66.871017 
L 54.829704 68.385502 
L 56.036745 67.08956 
L 57.243787 67.804343 
L 58.450828 68.157138 
L 59.65787 68.969409 
L 60.864911 70.171175 
L 62.071953 70.391432 
L 63.278994 70.412888 
L 64.486035 70.994919 
L 65.693077 67.936929 
L 66.900118 67.917028 
L 68.10716 68.965715 
L 69.314201 67.848704 
L 70.521242 67.399002 
L 71.728284 64.652765 
L 74.142367 66.594836 
L 75.349408 66.573226 
L 76.556449 67.21669 
L 77.763491 68.050797 
L 78.970532 68.517926 
L 80.177574 60.67042 
L 81.384615 61.026492 
L 82.591657 57.849371 
L 83.798698 57.94984 
L 85.005739 56.925515 
L 86.212781 55.701333 
L 87.419822 56.463189 
L 89.833905 57.41301 
L 91.040946 56.128279 
L 94.662071 58.017904 
L 95.869112 57.632808 
L 97.076153 58.366195 
L 98.283195 58.41659 
L 99.490236 54.404996 
L 100.697278 50.79706 
L 103.111361 52.338545 
L 104.318402 49.234938 
L 105.525443 49.235359 
L 106.732485 50.028559 
L 107.939526 50.463764 
L 109.146568 50.068439 
L 110.353609 49.069335 
L 111.56065 48.246012 
L 112.767692 48.27336 
L 113.974733 44.665945 
L 116.388816 46.112746 
L 117.595858 46.857491 
L 118.802899 45.897553 
L 120.00994 45.267973 
L 121.216982 45.181315 
L 122.424023 45.590994 
L 123.631065 43.961168 
L 124.838106 43.133513 
L 126.045147 43.847009 
L 127.252189 41.153372 
L 128.45923 40.286709 
L 129.666272 40.958475 
L 130.873313 41.269486 
L 133.287396 42.438137 
L 134.494437 41.089375 
L 139.322603 43.466358 
L 140.529644 42.266646 
L 141.736686 42.823375 
L 142.943727 43.063821 
L 144.150769 40.14951 
L 147.771893 41.629966 
L 148.978934 42.190024 
L 150.185976 42.354265 
L 152.600058 43.375723 
L 153.8071 43.469999 
L 155.014141 43.417201 
L 156.221183 43.66689 
L 157.428224 43.682753 
L 159.842307 43.934919 
L 161.049348 42.882064 
L 162.25639 39.647814 
L 163.463431 39.789372 
L 165.877514 40.796051 
L 167.084555 40.771298 
L 168.291597 40.317744 
L 169.498638 39.505822 
L 173.119763 41.009022 
L 174.326804 41.387728 
L 175.533845 40.459017 
L 176.740887 40.702505 
L 177.947928 40.687187 
L 179.15497 40.410789 
L 182.776094 41.604193 
L 183.983135 40.826518 
L 186.397218 41.503916 
L 187.604259 41.944425 
L 190.018342 42.461835 
L 191.225384 40.504049 
L 192.432425 40.375466 
L 193.639467 40.60006 
L 196.053549 41.375798 
L 198.467632 40.37506 
L 199.674674 39.544909 
L 209.331005 42.481348 
L 210.538046 42.580567 
L 211.745088 42.814329 
L 212.952129 42.838441 
L 215.366212 43.137629 
L 216.573253 43.113171 
L 217.780295 42.719236 
L 218.987336 43.081056 
L 220.194378 42.699898 
L 221.401419 43.010219 
L 222.60846 42.845763 
L 223.815502 43.178292 
L 225.022543 43.070785 
L 226.229585 43.18208 
L 227.436626 42.883535 
L 229.850709 43.131073 
L 231.05775 42.813353 
L 232.264792 43.075602 
L 233.471833 43.183396 
L 234.678875 42.858906 
L 235.885916 43.185651 
L 237.092957 42.538026 
L 240.714082 43.392513 
L 241.921123 43.048889 
L 244.335206 43.399237 
L 245.542247 43.180134 
L 246.749289 42.167664 
L 255.198579 43.816315 
L 256.40562 43.810771 
L 257.612661 42.56515 
L 261.233786 43.24901 
L 262.440827 42.288491 
L 263.647868 42.176566 
L 264.85491 41.530356 
L 267.268993 42.031147 
L 268.476034 41.590344 
L 270.890117 42.123401 
L 276.925324 42.726285 
L 279.339407 43.193438 
L 280.546448 42.422874 
L 281.75349 42.494204 
L 282.960531 42.683185 
L 284.167573 42.623023 
L 286.581655 42.879406 
L 287.788697 42.488995 
L 290.20278 42.961997 
L 291.409821 43.080156 
L 292.616862 41.471565 
L 295.030945 41.517526 
L 296.237987 41.75928 
L 297.445028 41.310644 
L 298.652069 41.524484 
L 299.859111 41.391594 
L 303.480235 42.039429 
L 304.687277 42.139007 
L 307.101359 42.518522 
L 308.308401 42.562941 
L 309.515442 42.15499 
L 310.722484 42.390211 
L 313.136566 42.594184 
L 317.964732 43.035128 
L 319.171773 42.661933 
L 326.414022 43.585369 
L 327.621063 43.270074 
L 328.828105 43.491928 
L 331.242188 43.014264 
L 334.863312 43.464275 
L 336.070353 43.380292 
L 337.277395 43.46744 
L 338.484436 43.206117 
L 340.898519 43.595216 
L 342.10556 43.26858 
L 343.312602 43.480028 
L 344.519643 42.719513 
L 345.726685 42.932594 
L 349.347809 43.233868 
L 350.55485 42.679474 
L 352.968933 43.005491 
L 354.175974 43.19304 
L 355.383016 42.904736 
L 357.797099 43.175428 
L 360.211182 43.522913 
L 361.418223 43.490087 
L 362.625264 43.30639 
L 363.832306 43.48952 
L 365.039347 43.559212 
L 366.246389 43.030102 
L 367.45343 42.792986 
L 369.867513 43.116643 
L 371.074554 19.031319 
L 374.695678 19.107459 
L 375.90272 19.386656 
L 377.109761 18.993976 
L 379.523844 19.10646 
L 385.559051 20.107289 
L 387.973134 20.538752 
L 390.387217 20.660982 
L 391.594258 20.707126 
L 395.215383 21.387318 
L 396.422424 20.30123 
L 397.629465 20.305823 
L 398.836507 20.562536 
L 400.043548 20.549167 
L 401.25059 20.77231 
L 402.457631 20.434086 
L 403.664672 20.685723 
L 404.871714 20.610862 
L 406.078755 20.81104 
L 407.285797 20.696378 
L 412.113962 21.575006 
L 413.321004 21.544719 
L 414.528045 21.703707 
L 415.735087 18.024871 
L 418.149169 18.494674 
L 419.356211 18.33589 
L 422.977335 18.949703 
L 424.184376 18.753419 
L 431.426625 19.9935 
L 432.633666 19.479241 
L 435.047749 19.129741 
L 436.254791 19.348637 
L 437.461832 19.382067 
L 438.668873 19.528361 
L 439.875915 19.502728 
L 443.497039 20.153936 
L 444.70408 19.719299 
L 450.739288 20.241418 
L 451.946329 20.16683 
L 453.15337 20.391716 
L 455.567453 20.3027 
L 456.774495 19.978533 
L 457.981536 19.063086 
L 461.60266 19.502435 
L 462.809702 19.427515 
L 464.016743 19.625118 
L 465.223784 19.595767 
L 466.430826 19.794489 
L 470.05195 20.042958 
L 472.466033 20.46879 
L 473.673074 20.386698 
L 477.294199 20.605788 
L 482.122364 21.302056 
L 485.743488 21.69009 
L 488.157571 21.750898 
L 494.192778 22.187749 
L 500.227985 23.071145 
L 501.435027 22.972302 
L 503.84911 23.24231 
L 505.056151 23.413075 
L 507.470234 23.441597 
L 511.091358 23.974771 
L 512.2984 23.999143 
L 513.505441 23.910683 
L 514.712482 22.887594 
L 515.919524 22.716923 
L 515.919524 22.716923 
" clip-path="url(#p9b70d8e014)" style="fill: none; stroke-dasharray: 5.55,2.4; stroke-dashoffset: 0; stroke: #4169e1; stroke-width: 1.5"/>
   </g>
   <g id="line2d_27">
    <path d="M 34.31 18.439931 
L 35.517041 27.913605 
L 36.724083 28.724549 
L 37.931124 28.640735 
L 39.138166 28.088313 
L 40.345207 27.81122 
L 41.552248 29.540199 
L 42.75929 28.823118 
L 43.966331 30.170559 
L 45.173373 30.358072 
L 46.380414 29.597318 
L 47.587456 29.198134 
L 48.794497 26.931686 
L 50.001538 27.143147 
L 51.20858 26.363597 
L 52.415621 27.61557 
L 53.622663 27.057538 
L 54.829704 26.699885 
L 56.036745 25.93473 
L 57.243787 26.283819 
L 58.450828 25.652407 
L 59.65787 25.794879 
L 60.864911 25.255776 
L 62.071953 25.159051 
L 64.486035 25.399977 
L 65.693077 24.822582 
L 66.900118 25.1368 
L 68.10716 24.997548 
L 70.521242 25.740746 
L 71.728284 25.056598 
L 74.142367 25.489019 
L 75.349408 25.892117 
L 77.763491 25.560201 
L 78.970532 25.502143 
L 80.177574 24.633008 
L 81.384615 24.71221 
L 82.591657 24.007128 
L 87.419822 25.038129 
L 88.626864 24.990585 
L 89.833905 24.651455 
L 91.040946 25.110801 
L 92.247988 24.867685 
L 94.662071 24.897042 
L 98.283195 24.152311 
L 100.697278 23.308656 
L 101.904319 23.12509 
L 103.111361 23.0685 
L 104.318402 23.61378 
L 105.525443 23.836623 
L 107.939526 23.701144 
L 110.353609 24.376116 
L 111.56065 24.283611 
L 112.767692 23.955489 
L 113.974733 24.39724 
L 117.595858 24.273107 
L 118.802899 24.548045 
L 120.00994 24.256029 
L 121.216982 24.511757 
L 123.631065 24.165087 
L 124.838106 23.890894 
L 126.045147 23.874376 
L 127.252189 23.573044 
L 128.45923 23.119867 
L 129.666272 23.136544 
L 130.873313 23.269856 
L 136.90852 22.87185 
L 139.322603 22.517943 
L 140.529644 22.813297 
L 141.736686 22.714009 
L 142.943727 22.798313 
L 144.150769 22.398365 
L 146.564851 22.341148 
L 147.771893 22.481538 
L 151.393017 22.46073 
L 152.600058 22.579837 
L 153.8071 22.426246 
L 155.014141 22.522724 
L 156.221183 22.443194 
L 158.635266 22.71437 
L 161.049348 22.990438 
L 162.25639 22.609343 
L 163.463431 22.706317 
L 164.670473 22.669234 
L 167.084555 22.858628 
L 168.291597 23.045614 
L 169.498638 22.871687 
L 174.326804 22.760119 
L 175.533845 22.532512 
L 182.776094 23.112775 
L 183.983135 22.933923 
L 190.018342 22.94257 
L 191.225384 22.74106 
L 194.846508 23.021418 
L 197.260591 23.220184 
L 198.467632 23.37308 
L 199.674674 23.151008 
L 202.088756 23.098729 
L 205.709881 22.919059 
L 206.916922 22.926326 
L 208.123963 23.058705 
L 210.538046 22.91526 
L 211.745088 22.769456 
L 215.366212 23.074584 
L 216.573253 23.171393 
L 217.780295 22.973769 
L 218.987336 22.978374 
L 220.194378 23.127442 
L 221.401419 23.150272 
L 223.815502 22.952441 
L 226.229585 23.135535 
L 227.436626 23.022175 
L 229.850709 23.058293 
L 231.05775 22.897995 
L 240.714082 22.713508 
L 241.921123 22.837425 
L 244.335206 22.806529 
L 251.577454 23.142239 
L 262.440827 22.835287 
L 263.647868 22.909445 
L 264.85491 22.771709 
L 267.268993 22.78109 
L 269.683076 22.614074 
L 273.3042 22.74134 
L 274.511241 22.673068 
L 276.925324 22.685952 
L 284.167573 22.744642 
L 290.20278 22.915321 
L 291.409821 22.936449 
L 292.616862 22.816242 
L 293.823904 22.857501 
L 299.859111 22.612046 
L 310.722484 22.61943 
L 314.343608 22.604955 
L 315.550649 22.659613 
L 317.964732 22.532052 
L 321.585856 22.643877 
L 323.999939 22.67768 
L 326.414022 22.795329 
L 328.828105 22.672105 
L 332.449229 22.840271 
L 334.863312 22.796876 
L 336.070353 22.864772 
L 340.898519 22.73007 
L 344.519643 22.939577 
L 348.140767 23.034861 
L 365.039347 23.316705 
L 369.867513 23.203073 
L 371.074554 22.857227 
L 374.695678 22.962034 
L 375.90272 22.960724 
L 378.316803 23.119879 
L 381.937927 23.135309 
L 385.559051 23.079329 
L 395.215383 23.216275 
L 397.629465 23.043217 
L 401.25059 23.090879 
L 403.664672 23.161688 
L 418.149169 22.777078 
L 420.563252 22.858365 
L 432.633666 22.919397 
L 433.840708 22.826616 
L 439.875915 23.042143 
L 450.739288 22.940873 
L 454.360412 23.06675 
L 456.774495 22.933354 
L 457.981536 22.807386 
L 461.60266 22.81182 
L 465.223784 22.799177 
L 472.466033 22.886389 
L 474.880116 22.858184 
L 479.708281 22.796509 
L 512.2984 22.806157 
L 515.919524 22.716923 
L 515.919524 22.716923 
" clip-path="url(#p9b70d8e014)" style="fill: none; stroke: #ff8c00; stroke-width: 1.5; stroke-linecap: square"/>
   </g>
   <g id="line2d_28">
    <path d="M 34.31 98.44 
L 35.517041 68.194846 
L 36.724083 77.833333 
L 37.931124 82.977898 
L 39.138166 85.65896 
L 40.345207 87.659761 
L 41.552248 83.155448 
L 42.75929 83.853038 
L 43.966331 80.579082 
L 45.173373 82.258534 
L 46.380414 81.779249 
L 47.587456 82.576959 
L 48.794497 63.024553 
L 50.001538 65.358333 
L 51.20858 64.696731 
L 52.415621 58.882503 
L 53.622663 59.530395 
L 54.829704 60.959228 
L 56.036745 59.380578 
L 57.243787 60.55328 
L 58.450828 59.670366 
L 59.65787 61.288975 
L 60.864911 60.749549 
L 63.278994 63.630327 
L 64.486035 64.776085 
L 65.693077 63.101849 
L 66.900118 63.465578 
L 68.10716 64.488623 
L 70.521242 63.980013 
L 71.728284 60.167204 
L 72.935325 60.86601 
L 74.142367 61.4048 
L 75.349408 60.601206 
L 77.763491 61.996751 
L 78.970532 62.913756 
L 80.177574 54.151326 
L 81.384615 55.1761 
L 82.591657 49.530029 
L 83.798698 49.626994 
L 86.212781 49.606956 
L 87.419822 50.153605 
L 88.626864 51.169032 
L 89.833905 50.391968 
L 91.040946 48.051048 
L 92.247988 48.123332 
L 94.662071 50.089383 
L 95.869112 49.750872 
L 97.076153 49.037511 
L 98.283195 49.448895 
L 99.490236 46.283337 
L 100.697278 44.656341 
L 101.904319 44.96401 
L 103.111361 45.824495 
L 104.318402 40.904813 
L 105.525443 40.876391 
L 106.732485 41.791234 
L 107.939526 42.508615 
L 110.353609 39.495684 
L 111.56065 40.217967 
L 112.767692 38.741798 
L 113.974733 35.292547 
L 115.181775 36.203236 
L 116.388816 36.83045 
L 117.595858 37.706308 
L 118.802899 36.778565 
L 120.00994 35.594686 
L 121.216982 34.868829 
L 122.424023 35.252313 
L 123.631065 35.019773 
L 124.838106 33.954079 
L 126.045147 34.78457 
L 127.252189 33.244521 
L 128.45923 28.671599 
L 129.666272 29.536301 
L 130.873313 29.907837 
L 133.287396 31.271761 
L 134.494437 31.673584 
L 135.701479 32.458474 
L 136.90852 32.662103 
L 138.115562 32.557198 
L 139.322603 32.339561 
L 140.529644 30.495324 
L 142.943727 31.480643 
L 144.150769 27.303126 
L 146.564851 28.763524 
L 147.771893 28.872623 
L 151.393017 30.996776 
L 152.600058 31.209511 
L 153.8071 31.0948 
L 156.221183 31.88942 
L 157.428224 31.515771 
L 159.842307 32.167113 
L 161.049348 31.573582 
L 162.25639 27.010607 
L 163.463431 27.332899 
L 164.670473 27.935208 
L 165.877514 28.334031 
L 167.084555 28.531602 
L 168.291597 27.847931 
L 169.498638 27.330892 
L 173.119763 29.10163 
L 174.326804 29.386569 
L 175.533845 27.92919 
L 176.740887 28.167756 
L 177.947928 28.034927 
L 179.15497 28.027374 
L 181.569052 28.986505 
L 182.776094 28.710154 
L 183.983135 27.931314 
L 186.397218 28.966879 
L 187.604259 29.378947 
L 188.811301 29.597204 
L 190.018342 30.094957 
L 191.225384 28.837755 
L 192.432425 28.760177 
L 193.639467 28.895462 
L 196.053549 29.528041 
L 197.260591 29.199475 
L 198.467632 28.633479 
L 199.674674 26.862502 
L 202.088756 27.773962 
L 203.295798 27.995624 
L 206.916922 29.204811 
L 208.123963 28.831913 
L 209.331005 29.269304 
L 210.538046 29.088525 
L 211.745088 28.504 
L 212.952129 28.136917 
L 214.159171 27.940199 
L 215.366212 28.222016 
L 216.573253 28.207075 
L 217.780295 26.665602 
L 218.987336 27.130576 
L 220.194378 26.437417 
L 221.401419 26.871748 
L 222.60846 26.600735 
L 223.815502 26.714726 
L 225.022543 26.229955 
L 226.229585 26.544537 
L 227.436626 26.29822 
L 228.643668 26.485803 
L 229.850709 26.868487 
L 231.05775 25.893459 
L 233.471833 26.633137 
L 234.678875 26.392814 
L 235.885916 26.704997 
L 237.092957 26.689344 
L 239.50704 27.521528 
L 240.714082 27.651511 
L 241.921123 27.170652 
L 245.542247 27.949281 
L 246.749289 26.400043 
L 247.95633 26.56666 
L 249.163372 26.957633 
L 250.370413 26.838304 
L 253.991537 27.783773 
L 255.198579 28.167556 
L 256.40562 28.167236 
L 257.612661 26.638914 
L 260.026744 27.185118 
L 261.233786 27.068947 
L 262.440827 25.949989 
L 263.647868 25.977401 
L 264.85491 25.133725 
L 267.268993 25.73035 
L 268.476034 25.16885 
L 273.3042 26.016525 
L 274.511241 26.06606 
L 276.925324 26.489676 
L 279.339407 27.103013 
L 280.546448 26.971198 
L 281.75349 27.136329 
L 284.167573 26.874706 
L 286.581655 27.262775 
L 287.788697 26.85732 
L 291.409821 27.799936 
L 292.616862 27.086431 
L 293.823904 27.293433 
L 295.030945 27.259453 
L 296.237987 27.568673 
L 297.445028 26.89271 
L 298.652069 27.213369 
L 299.859111 27.214418 
L 303.480235 28.120718 
L 304.687277 28.20997 
L 308.308401 28.952352 
L 309.515442 28.906797 
L 314.343608 30.054786 
L 316.757691 30.148997 
L 319.171773 29.924137 
L 323.999939 30.845381 
L 326.414022 30.836643 
L 327.621063 30.589641 
L 328.828105 30.712943 
L 330.035146 30.499811 
L 333.65627 30.842507 
L 334.863312 31.111785 
L 336.070353 30.991653 
L 337.277395 31.087915 
L 338.484436 30.865587 
L 340.898519 31.376822 
L 342.10556 31.0093 
L 343.312602 31.266455 
L 344.519643 30.358638 
L 345.726685 30.619456 
L 348.140767 30.7014 
L 349.347809 30.905536 
L 350.55485 29.93805 
L 354.175974 30.626153 
L 356.590057 30.563364 
L 360.211182 31.042672 
L 362.625264 31.290491 
L 366.246389 31.728805 
L 367.45343 31.139145 
L 369.867513 31.53334 
L 371.074554 20.52655 
L 372.281596 20.516692 
L 373.488637 20.176665 
L 375.90272 20.636446 
L 377.109761 19.466639 
L 380.730886 19.898406 
L 383.144968 19.863525 
L 386.766093 20.57438 
L 389.180175 20.899639 
L 390.387217 20.84843 
L 391.594258 20.675768 
L 395.215383 21.294118 
L 396.422424 20.382608 
L 397.629465 20.204813 
L 398.836507 20.462948 
L 400.043548 20.53294 
L 401.25059 20.785008 
L 402.457631 20.5224 
L 403.664672 20.776203 
L 410.906921 21.712413 
L 412.113962 21.930977 
L 414.528045 22.083355 
L 415.735087 20.958704 
L 418.149169 21.377016 
L 419.356211 21.061685 
L 422.977335 21.721167 
L 424.184376 21.5915 
L 431.426625 22.907663 
L 432.633666 22.998754 
L 433.840708 22.265774 
L 435.047749 22.044888 
L 436.254791 22.219316 
L 438.668873 22.10083 
L 441.082956 22.423636 
L 443.497039 22.82702 
L 444.70408 22.67806 
L 445.911122 22.838068 
L 447.118163 22.547263 
L 449.532246 22.767116 
L 450.739288 22.884851 
L 451.946329 22.798153 
L 453.15337 22.99809 
L 454.360412 22.755086 
L 455.567453 22.743648 
L 456.774495 22.01669 
L 457.981536 20.356885 
L 461.60266 20.767558 
L 462.809702 20.799852 
L 464.016743 20.9724 
L 465.223784 20.932793 
L 466.430826 21.035044 
L 470.05195 21.004757 
L 472.466033 21.429064 
L 473.673074 21.103204 
L 476.087157 21.148217 
L 482.122364 22.098144 
L 483.329406 22.289956 
L 489.364613 22.507831 
L 492.985737 22.633442 
L 497.813903 23.298984 
L 500.227985 23.640825 
L 501.435027 23.548567 
L 503.84911 23.757938 
L 505.056151 23.925262 
L 506.263193 23.804185 
L 509.884317 24.232467 
L 511.091358 24.41982 
L 512.2984 24.488899 
L 513.505441 24.399715 
L 514.712482 23.05863 
L 515.919524 22.716923 
L 515.919524 22.716923 
" clip-path="url(#p9b70d8e014)" style="fill: none; stroke-dasharray: 5.55,2.4; stroke-dashoffset: 0; stroke: #ff8c00; stroke-width: 1.5"/>
   </g>
   <g id="patch_3">
    <path d="M 34.31 98.44 
L 34.31 0 
" style="fill: none; stroke: #000000; stroke-width: 0.8; stroke-linejoin: miter; stroke-linecap: square"/>
   </g>
   <g id="patch_4">
    <path d="M 540 98.44 
L 540 0 
" style="fill: none; stroke: #000000; stroke-width: 0.8; stroke-linejoin: miter; stroke-linecap: square"/>
   </g>
   <g id="patch_5">
    <path d="M 34.31 98.44 
L 540 98.44 
" style="fill: none; stroke: #000000; stroke-width: 0.8; stroke-linejoin: miter; stroke-linecap: square"/>
   </g>
   <g id="patch_6">
    <path d="M 34.31 0 
L 540 0 
" style="fill: none; stroke: #000000; stroke-width: 0.8; stroke-linejoin: miter; stroke-linecap: square"/>
   </g>
  </g>
 </g>
 <defs>
  <clipPath id="p9b70d8e014">
   <rect x="34.31" y="0" width="505.69" height="98.44"/>
  </clipPath>
 </defs>
</svg>
