<?xml version="1.0" encoding="utf-8" standalone="no"?>
<!DOCTYPE svg PUBLIC "-//W3C//DTD SVG 1.1//EN"
  "http://www.w3.org/Graphics/SVG/1.1/DTD/svg11.dtd">
<svg xmlns:xlink="http://www.w3.org/1999/xlink" width="540pt" height="129.6pt" viewBox="0 0 540 129.6" xmlns="http://www.w3.org/2000/svg" version="1.1">
 <metadata>
  <rdf:RDF xmlns:dc="http://purl.org/dc/elements/1.1/" xmlns:cc="http://creativecommons.org/ns#" xmlns:rdf="http://www.w3.org/1999/02/22-rdf-syntax-ns#">
   <cc:Work>
    <dc:type rdf:resource="http://purl.org/dc/dcmitype/StillImage"/>
    <dc:date>2025-04-05T09:16:15.329647</dc:date>
    <dc:format>image/svg+xml</dc:format>
    <dc:creator>
     <cc:Agent>
      <dc:title>Matplotlib v3.10.1, https://matplotlib.org/</dc:title>
     </cc:Agent>
    </dc:creator>
   </cc:Work>
  </rdf:RDF>
 </metadata>
 <defs>
  <style type="text/css">*{stroke-linejoin: round; stroke-linecap: butt}</style>
 </defs>
 <g id="figure_1">
  <g id="patch_1">
   <path d="M 0 129.6 
L 540 129.6 
L 540 0 
L 0 0 
z
" style="fill: #ffffff"/>
  </g>
  <g id="axes_1">
   <g id="patch_2">
    <path d="M 34.31 98.44 
L 540 98.44 
L 540 0 
L 34.31 0 
z
" style="fill: #ffffff"/>
   </g>
   <g id="matplotlib.axis_1">
    <g id="xtick_1">
     <g id="line2d_1">
      <path d="M 34.31 98.44 
L 34.31 0 
" clip-path="url(#p88974e7dd7)" style="fill: none; stroke: #b0b0b0; stroke-width: 0.8; stroke-linecap: square"/>
     </g>
     <g id="line2d_2">
      <defs>
       <path id="m5fb63e3f76" d="M 0 0 
L 0 3.5 
" style="stroke: #000000; stroke-width: 0.8"/>
      </defs>
      <g>
       <use xlink:href="#m5fb63e3f76" x="34.31" y="98.44" style="stroke: #000000; stroke-width: 0.8"/>
      </g>
     </g>
     <g id="text_1">
      <text style="font-size: 10px; font-family: 'Times New Roman'; text-anchor: middle" x="34.31" y="112.38375" transform="rotate(-0 34.31 112.38375)">0</text>
     </g>
    </g>
    <g id="xtick_2">
     <g id="line2d_3">
      <path d="M 94.662071 98.44 
L 94.662071 0 
" clip-path="url(#p88974e7dd7)" style="fill: none; stroke: #b0b0b0; stroke-width: 0.8; stroke-linecap: square"/>
     </g>
     <g id="line2d_4">
      <g>
       <use xlink:href="#m5fb63e3f76" x="94.662071" y="98.44" style="stroke: #000000; stroke-width: 0.8"/>
      </g>
     </g>
     <g id="text_2">
      <text style="font-size: 10px; font-family: 'Times New Roman'; text-anchor: middle" x="94.662071" y="112.38375" transform="rotate(-0 94.662071 112.38375)">50</text>
     </g>
    </g>
    <g id="xtick_3">
     <g id="line2d_5">
      <path d="M 155.014141 98.44 
L 155.014141 0 
" clip-path="url(#p88974e7dd7)" style="fill: none; stroke: #b0b0b0; stroke-width: 0.8; stroke-linecap: square"/>
     </g>
     <g id="line2d_6">
      <g>
       <use xlink:href="#m5fb63e3f76" x="155.014141" y="98.44" style="stroke: #000000; stroke-width: 0.8"/>
      </g>
     </g>
     <g id="text_3">
      <text style="font-size: 10px; font-family: 'Times New Roman'; text-anchor: middle" x="155.014141" y="112.38375" transform="rotate(-0 155.014141 112.38375)">100</text>
     </g>
    </g>
    <g id="xtick_4">
     <g id="line2d_7">
      <path d="M 215.366212 98.44 
L 215.366212 0 
" clip-path="url(#p88974e7dd7)" style="fill: none; stroke: #b0b0b0; stroke-width: 0.8; stroke-linecap: square"/>
     </g>
     <g id="line2d_8">
      <g>
       <use xlink:href="#m5fb63e3f76" x="215.366212" y="98.44" style="stroke: #000000; stroke-width: 0.8"/>
      </g>
     </g>
     <g id="text_4">
      <text style="font-size: 10px; font-family: 'Times New Roman'; text-anchor: middle" x="215.366212" y="112.38375" transform="rotate(-0 215.366212 112.38375)">150</text>
     </g>
    </g>
    <g id="xtick_5">
     <g id="line2d_9">
      <path d="M 275.718283 98.44 
L 275.718283 0 
" clip-path="url(#p88974e7dd7)" style="fill: none; stroke: #b0b0b0; stroke-width: 0.8; stroke-linecap: square"/>
     </g>
     <g id="line2d_10">
      <g>
       <use xlink:href="#m5fb63e3f76" x="275.718283" y="98.44" style="stroke: #000000; stroke-width: 0.8"/>
      </g>
     </g>
     <g id="text_5">
      <text style="font-size: 10px; font-family: 'Times New Roman'; text-anchor: middle" x="275.718283" y="112.38375" transform="rotate(-0 275.718283 112.38375)">200</text>
     </g>
    </g>
    <g id="xtick_6">
     <g id="line2d_11">
      <path d="M 336.070353 98.44 
L 336.070353 0 
" clip-path="url(#p88974e7dd7)" style="fill: none; stroke: #b0b0b0; stroke-width: 0.8; stroke-linecap: square"/>
     </g>
     <g id="line2d_12">
      <g>
       <use xlink:href="#m5fb63e3f76" x="336.070353" y="98.44" style="stroke: #000000; stroke-width: 0.8"/>
      </g>
     </g>
     <g id="text_6">
      <text style="font-size: 10px; font-family: 'Times New Roman'; text-anchor: middle" x="336.070353" y="112.38375" transform="rotate(-0 336.070353 112.38375)">250</text>
     </g>
    </g>
    <g id="xtick_7">
     <g id="line2d_13">
      <path d="M 396.422424 98.44 
L 396.422424 0 
" clip-path="url(#p88974e7dd7)" style="fill: none; stroke: #b0b0b0; stroke-width: 0.8; stroke-linecap: square"/>
     </g>
     <g id="line2d_14">
      <g>
       <use xlink:href="#m5fb63e3f76" x="396.422424" y="98.44" style="stroke: #000000; stroke-width: 0.8"/>
      </g>
     </g>
     <g id="text_7">
      <text style="font-size: 10px; font-family: 'Times New Roman'; text-anchor: middle" x="396.422424" y="112.38375" transform="rotate(-0 396.422424 112.38375)">300</text>
     </g>
    </g>
    <g id="xtick_8">
     <g id="line2d_15">
      <path d="M 456.774495 98.44 
L 456.774495 0 
" clip-path="url(#p88974e7dd7)" style="fill: none; stroke: #b0b0b0; stroke-width: 0.8; stroke-linecap: square"/>
     </g>
     <g id="line2d_16">
      <g>
       <use xlink:href="#m5fb63e3f76" x="456.774495" y="98.44" style="stroke: #000000; stroke-width: 0.8"/>
      </g>
     </g>
     <g id="text_8">
      <text style="font-size: 10px; font-family: 'Times New Roman'; text-anchor: middle" x="456.774495" y="112.38375" transform="rotate(-0 456.774495 112.38375)">350</text>
     </g>
    </g>
    <g id="xtick_9">
     <g id="line2d_17">
      <path d="M 517.126565 98.44 
L 517.126565 0 
" clip-path="url(#p88974e7dd7)" style="fill: none; stroke: #b0b0b0; stroke-width: 0.8; stroke-linecap: square"/>
     </g>
     <g id="line2d_18">
      <g>
       <use xlink:href="#m5fb63e3f76" x="517.126565" y="98.44" style="stroke: #000000; stroke-width: 0.8"/>
      </g>
     </g>
     <g id="text_9">
      <text style="font-size: 10px; font-family: 'Times New Roman'; text-anchor: middle" x="517.126565" y="112.38375" transform="rotate(-0 517.126565 112.38375)">400</text>
     </g>
    </g>
    <g id="text_10">
     <text style="font-size: 12px; font-family: 'Times New Roman'; text-anchor: middle" x="287.155" y="126.855312" transform="rotate(-0 287.155 126.855312)">Simulation Run</text>
    </g>
   </g>
   <g id="matplotlib.axis_2">
    <g id="ytick_1">
     <g id="line2d_19">
      <path d="M 34.31 98.44 
L 540 98.44 
" clip-path="url(#p88974e7dd7)" style="fill: none; stroke: #b0b0b0; stroke-width: 0.8; stroke-linecap: square"/>
     </g>
     <g id="line2d_20">
      <defs>
       <path id="mc70e9818f1" d="M 0 0 
L -3.5 0 
" style="stroke: #000000; stroke-width: 0.8"/>
      </defs>
      <g>
       <use xlink:href="#mc70e9818f1" x="34.31" y="98.44" style="stroke: #000000; stroke-width: 0.8"/>
      </g>
     </g>
     <g id="text_11">
      <text style="font-size: 10px; font-family: 'Times New Roman'; text-anchor: end" x="27.31" y="101.911875" transform="rotate(-0 27.31 101.911875)">0.0</text>
     </g>
    </g>
    <g id="ytick_2">
     <g id="line2d_21">
      <path d="M 34.31 63.282857 
L 540 63.282857 
" clip-path="url(#p88974e7dd7)" style="fill: none; stroke: #b0b0b0; stroke-width: 0.8; stroke-linecap: square"/>
     </g>
     <g id="line2d_22">
      <g>
       <use xlink:href="#mc70e9818f1" x="34.31" y="63.282857" style="stroke: #000000; stroke-width: 0.8"/>
      </g>
     </g>
     <g id="text_12">
      <text style="font-size: 10px; font-family: 'Times New Roman'; text-anchor: end" x="27.31" y="66.754732" transform="rotate(-0 27.31 66.754732)">0.5</text>
     </g>
    </g>
    <g id="ytick_3">
     <g id="line2d_23">
      <path d="M 34.31 28.125714 
L 540 28.125714 
" clip-path="url(#p88974e7dd7)" style="fill: none; stroke: #b0b0b0; stroke-width: 0.8; stroke-linecap: square"/>
     </g>
     <g id="line2d_24">
      <g>
       <use xlink:href="#mc70e9818f1" x="34.31" y="28.125714" style="stroke: #000000; stroke-width: 0.8"/>
      </g>
     </g>
     <g id="text_13">
      <text style="font-size: 10px; font-family: 'Times New Roman'; text-anchor: end" x="27.31" y="31.597589" transform="rotate(-0 27.31 31.597589)">1.0</text>
     </g>
    </g>
    <g id="text_14">
     <text style="font-size: 12px; font-family: 'Times New Roman'; text-anchor: middle" x="8.243125" y="49.22" transform="rotate(-90 8.243125 49.22)">Normalized Value</text>
    </g>
   </g>
   <g id="line2d_25">
    <path d="M 34.31 20.342708 
L 35.517041 28.19981 
L 36.724083 29.670246 
L 37.931124 18.032774 
L 39.138166 17.652247 
L 40.345207 21.494582 
L 41.552248 23.463197 
L 42.75929 24.607017 
L 43.966331 26.950354 
L 45.173373 26.149786 
L 46.380414 27.498675 
L 47.587456 26.288176 
L 48.794497 28.674798 
L 50.001538 27.82868 
L 51.20858 24.504905 
L 52.415621 25.84782 
L 53.622663 26.978824 
L 54.829704 28.363263 
L 56.036745 28.174792 
L 57.243787 28.233793 
L 58.450828 28.710568 
L 59.65787 26.676126 
L 60.864911 26.701071 
L 62.071953 27.193149 
L 63.278994 27.336041 
L 64.486035 27.622969 
L 65.693077 27.343324 
L 66.900118 28.363208 
L 68.10716 28.171878 
L 70.521242 29.377013 
L 71.728284 29.482213 
L 72.935325 29.412352 
L 74.142367 29.492008 
L 75.349408 27.951654 
L 76.556449 28.712233 
L 77.763491 29.27245 
L 78.970532 30.036445 
L 81.384615 30.730067 
L 82.591657 30.391221 
L 83.798698 29.895869 
L 86.212781 29.20766 
L 87.419822 29.633683 
L 88.626864 29.038504 
L 89.833905 28.78172 
L 91.040946 29.236698 
L 94.662071 29.349223 
L 95.869112 29.103274 
L 97.076153 29.025903 
L 98.283195 29.351739 
L 99.490236 29.312232 
L 100.697278 28.966298 
L 103.111361 28.713029 
L 110.353609 29.210681 
L 111.56065 28.891373 
L 113.974733 27.807292 
L 115.181775 27.627421 
L 117.595858 28.435517 
L 120.00994 28.053579 
L 121.216982 28.240256 
L 123.631065 28.134184 
L 124.838106 27.844818 
L 126.045147 27.870196 
L 127.252189 28.303655 
L 128.45923 27.953571 
L 130.873313 28.10148 
L 133.287396 27.98002 
L 134.494437 27.849112 
L 135.701479 27.958098 
L 138.115562 27.771072 
L 139.322603 27.693202 
L 140.529644 27.397167 
L 141.736686 27.723296 
L 142.943727 27.888404 
L 145.35781 27.72573 
L 146.564851 27.777565 
L 147.771893 28.064017 
L 148.978934 27.846596 
L 152.600058 27.989628 
L 153.8071 28.218024 
L 155.014141 28.317114 
L 156.221183 28.616564 
L 157.428224 28.774923 
L 158.635266 28.788693 
L 159.842307 28.962528 
L 161.049348 28.97486 
L 162.25639 29.1337 
L 163.463431 28.869786 
L 164.670473 28.940755 
L 165.877514 28.732057 
L 167.084555 28.898278 
L 168.291597 28.748974 
L 169.498638 28.848519 
L 170.70568 28.812995 
L 171.912721 28.657492 
L 176.740887 28.583606 
L 177.947928 28.806047 
L 181.569052 28.821275 
L 182.776094 28.832956 
L 183.983135 28.986557 
L 186.397218 28.889512 
L 188.811301 29.121333 
L 191.225384 29.144388 
L 194.846508 29.247059 
L 196.053549 29.225449 
L 199.674674 29.710093 
L 200.881715 29.660994 
L 203.295798 29.751223 
L 205.709881 29.354438 
L 214.159171 29.424762 
L 216.573253 29.462348 
L 217.780295 29.548694 
L 222.60846 29.430982 
L 226.229585 29.543114 
L 227.436626 29.337345 
L 228.643668 29.389266 
L 229.850709 28.41563 
L 231.05775 28.287866 
L 233.471833 28.382392 
L 234.678875 28.300112 
L 245.542247 28.555985 
L 250.370413 28.446184 
L 261.233786 28.52824 
L 263.647868 28.685935 
L 266.061951 28.597727 
L 268.476034 28.842503 
L 270.890117 28.849847 
L 272.097158 28.638092 
L 275.718283 28.743599 
L 278.132365 28.63383 
L 280.546448 28.883167 
L 284.167573 28.897908 
L 285.374614 28.721236 
L 288.995738 28.950224 
L 290.20278 28.697635 
L 292.616862 28.484408 
L 302.273194 28.237705 
L 305.894318 28.133912 
L 307.101359 28.174406 
L 308.308401 28.057708 
L 309.515442 28.078437 
L 310.722484 27.968589 
L 313.136566 28.019701 
L 314.343608 27.908809 
L 317.964732 28.115955 
L 320.378815 27.876493 
L 330.035146 28.120084 
L 332.449229 27.996691 
L 333.65627 27.966019 
L 334.863312 27.747194 
L 337.277395 27.75563 
L 338.484436 27.663747 
L 339.691478 27.804081 
L 340.898519 27.823964 
L 342.10556 27.732124 
L 344.519643 27.885592 
L 345.726685 27.761394 
L 348.140767 27.689475 
L 361.418223 27.292402 
L 362.625264 27.381471 
L 369.867513 27.215949 
L 372.281596 27.272759 
L 377.109761 27.362521 
L 378.316803 27.262702 
L 386.766093 27.356726 
L 387.973134 27.171749 
L 391.594258 27.287597 
L 395.215383 27.333285 
L 400.043548 27.520042 
L 404.871714 27.460598 
L 406.078755 27.523705 
L 407.285797 27.387944 
L 409.699879 27.485478 
L 410.906921 27.428498 
L 415.735087 27.632854 
L 419.356211 27.611931 
L 432.633666 27.897418 
L 437.461832 28.003998 
L 438.668873 27.910861 
L 443.497039 27.898524 
L 461.60266 27.894203 
L 470.05195 27.664121 
L 479.708281 27.622672 
L 485.743488 27.76773 
L 489.364613 27.780034 
L 494.192778 27.857484 
L 497.813903 27.910906 
L 507.470234 28.157557 
L 512.2984 28.099168 
L 513.505441 28.032992 
L 515.919524 28.125714 
L 515.919524 28.125714 
" clip-path="url(#p88974e7dd7)" style="fill: none; stroke: #4169e1; stroke-width: 1.5; stroke-linecap: square"/>
   </g>
   <g id="line2d_26">
    <path d="M 34.31 98.44 
L 35.517041 86.522014 
L 36.724083 89.659842 
L 37.931124 13.418686 
L 39.138166 30.311131 
L 40.345207 27.415164 
L 41.552248 33.072558 
L 42.75929 39.475451 
L 43.966331 37.546256 
L 45.173373 42.522063 
L 47.587456 45.510108 
L 48.794497 36.386124 
L 50.001538 39.021814 
L 51.20858 13.124434 
L 52.415621 13.234297 
L 53.622663 14.295223 
L 54.829704 12.67959 
L 57.243787 21.125599 
L 58.450828 23.92956 
L 59.65787 10.536553 
L 60.864911 14.355799 
L 62.071953 16.784145 
L 63.278994 19.955776 
L 65.693077 24.994273 
L 66.900118 22.195531 
L 68.10716 24.62677 
L 70.521242 25.322611 
L 72.935325 29.659592 
L 74.142367 31.642122 
L 75.349408 17.976711 
L 76.556449 16.303083 
L 77.763491 16.341807 
L 78.970532 14.33301 
L 80.177574 15.399625 
L 81.384615 16.760635 
L 82.591657 17.866182 
L 83.798698 17.842425 
L 86.212781 19.584895 
L 87.419822 19.79554 
L 88.626864 18.427785 
L 89.833905 19.544612 
L 91.040946 19.310002 
L 93.455029 22.467652 
L 94.662071 23.769309 
L 95.869112 24.609706 
L 97.076153 25.942635 
L 98.283195 26.198873 
L 99.490236 27.496077 
L 100.697278 27.492276 
L 103.111361 29.581191 
L 106.732485 32.853186 
L 109.146568 34.389777 
L 110.353609 35.364941 
L 111.56065 35.075593 
L 113.974733 29.593195 
L 115.181775 30.187165 
L 116.388816 28.710661 
L 117.595858 27.836458 
L 118.802899 28.478463 
L 120.00994 28.784019 
L 121.216982 29.253823 
L 122.424023 30.188553 
L 123.631065 30.949559 
L 124.838106 30.625227 
L 126.045147 31.496489 
L 127.252189 29.561787 
L 128.45923 28.588158 
L 129.666272 29.219087 
L 132.080354 30.873551 
L 133.287396 31.585631 
L 136.90852 33.094373 
L 139.322603 34.454048 
L 140.529644 33.684156 
L 141.736686 32.576219 
L 142.943727 32.826345 
L 145.35781 34.000637 
L 146.564851 34.637923 
L 147.771893 33.820477 
L 148.978934 33.626631 
L 150.185976 34.245986 
L 151.393017 34.714318 
L 152.600058 35.356756 
L 153.8071 34.9906 
L 155.014141 35.429256 
L 156.221183 34.29858 
L 157.428224 34.427492 
L 158.635266 35.039227 
L 159.842307 35.036325 
L 161.049348 35.631391 
L 162.25639 35.702086 
L 163.463431 34.844234 
L 164.670473 35.322668 
L 165.877514 34.979946 
L 168.291597 35.053986 
L 169.498638 35.400667 
L 170.70568 35.926113 
L 171.912721 35.937533 
L 174.326804 36.908131 
L 175.533845 37.024819 
L 176.740887 37.51985 
L 177.947928 36.8908 
L 182.776094 38.75304 
L 183.983135 38.66574 
L 186.397218 39.493419 
L 187.604259 39.487205 
L 188.811301 39.726561 
L 191.225384 40.513565 
L 193.639467 41.28604 
L 196.053549 42.11112 
L 197.260591 41.59985 
L 198.467632 40.946854 
L 199.674674 41.12714 
L 203.295798 42.114143 
L 204.502839 40.985976 
L 205.709881 40.68505 
L 206.916922 41.07548 
L 208.123963 41.320221 
L 209.331005 41.162948 
L 216.573253 43.046472 
L 217.780295 43.189739 
L 220.194378 43.839847 
L 221.401419 43.593928 
L 222.60846 43.707322 
L 225.022543 44.285253 
L 226.229585 44.58955 
L 227.436626 43.616172 
L 228.643668 43.870801 
L 229.850709 14.558183 
L 231.05775 14.555993 
L 233.471833 15.425187 
L 234.678875 15.705329 
L 235.885916 16.164987 
L 237.092957 16.01708 
L 239.50704 16.859473 
L 240.714082 17.329569 
L 241.921123 17.390823 
L 244.335206 18.218145 
L 245.542247 18.395853 
L 249.163372 19.590645 
L 251.577454 20.457256 
L 252.784496 20.753517 
L 253.991537 21.174789 
L 256.40562 21.251007 
L 258.819703 22.015283 
L 260.026744 22.257773 
L 261.233786 22.660248 
L 262.440827 22.649562 
L 266.061951 23.578312 
L 268.476034 23.228277 
L 270.890117 23.925514 
L 272.097158 22.5965 
L 278.132365 23.966113 
L 279.339407 23.490092 
L 280.546448 23.439202 
L 282.960531 24.055432 
L 284.167573 24.169332 
L 285.374614 23.271333 
L 286.581655 23.380818 
L 287.788697 22.463608 
L 288.995738 22.79299 
L 290.20278 20.536919 
L 291.409821 20.286667 
L 292.616862 20.308031 
L 293.823904 20.655732 
L 298.652069 21.625596 
L 299.859111 21.119407 
L 303.480235 21.833924 
L 304.687277 22.142385 
L 305.894318 22.284024 
L 307.101359 22.547968 
L 308.308401 22.284026 
L 309.515442 22.597671 
L 310.722484 22.393963 
L 313.136566 22.983847 
L 314.343608 22.756926 
L 315.550649 22.797027 
L 316.757691 22.484044 
L 317.964732 22.802023 
L 319.171773 22.291952 
L 320.378815 22.111748 
L 322.792898 22.615426 
L 325.206981 22.843735 
L 327.621063 23.314792 
L 328.828105 23.286353 
L 330.035146 23.54143 
L 331.242188 23.306617 
L 333.65627 23.851406 
L 334.863312 21.84793 
L 337.277395 22.42296 
L 338.484436 22.312696 
L 339.691478 21.650524 
L 340.898519 21.932274 
L 343.312602 21.653806 
L 344.519643 21.790422 
L 345.726685 21.318081 
L 346.933726 21.614698 
L 348.140767 21.651974 
L 352.968933 22.533727 
L 354.175974 21.769201 
L 355.383016 22.056116 
L 357.797099 22.132737 
L 359.00414 22.414064 
L 360.211182 22.530773 
L 362.625264 22.225863 
L 365.039347 22.710182 
L 366.246389 22.762495 
L 367.45343 22.603135 
L 369.867513 23.056564 
L 371.074554 23.093154 
L 374.695678 23.84298 
L 375.90272 23.282883 
L 377.109761 23.267811 
L 378.316803 22.98244 
L 384.35201 24.001123 
L 385.559051 24.022561 
L 386.766093 24.276527 
L 387.973134 22.593348 
L 389.180175 22.614315 
L 391.594258 23.021788 
L 395.215383 23.69305 
L 397.629465 23.8692 
L 401.25059 24.35804 
L 402.457631 24.358181 
L 403.664672 23.969407 
L 404.871714 24.210169 
L 406.078755 24.213593 
L 407.285797 23.35355 
L 408.492838 23.154271 
L 409.699879 23.387324 
L 412.113962 23.401339 
L 413.321004 23.286507 
L 415.735087 23.622065 
L 419.356211 24.083742 
L 420.563252 24.29588 
L 421.770294 24.2123 
L 427.805501 25.203002 
L 429.012542 25.159284 
L 430.219583 24.984875 
L 431.426625 24.934897 
L 433.840708 25.243833 
L 435.047749 25.227406 
L 437.461832 25.632742 
L 438.668873 25.288434 
L 445.911122 26.34237 
L 447.118163 26.350289 
L 449.532246 26.599183 
L 451.946329 26.660436 
L 454.360412 26.973774 
L 459.188577 27.708487 
L 460.395619 27.562559 
L 461.60266 27.761002 
L 462.809702 27.805069 
L 465.223784 28.042606 
L 466.430826 28.136985 
L 467.637867 26.53732 
L 473.673074 27.135999 
L 476.087157 27.192963 
L 477.294199 27.382778 
L 478.50124 26.865791 
L 479.708281 26.821693 
L 482.122364 27.097799 
L 483.329406 27.266525 
L 484.536447 26.686842 
L 486.95053 26.996189 
L 488.157571 26.886169 
L 496.606861 27.855468 
L 497.813903 27.782615 
L 499.020944 27.82503 
L 502.642068 27.385415 
L 503.84911 27.546366 
L 505.056151 27.433638 
L 511.091358 28.181774 
L 512.2984 28.263913 
L 513.505441 28.104592 
L 515.919524 28.125714 
L 515.919524 28.125714 
" clip-path="url(#p88974e7dd7)" style="fill: none; stroke-dasharray: 5.55,2.4; stroke-dashoffset: 0; stroke: #4169e1; stroke-width: 1.5"/>
   </g>
   <g id="line2d_27">
    <path d="M 34.31 28.394961 
L 35.517041 31.143576 
L 36.724083 30.817894 
L 37.931124 22.067118 
L 39.138166 22.724055 
L 40.345207 24.868806 
L 42.75929 26.549543 
L 43.966331 28.620606 
L 45.173373 26.822673 
L 46.380414 27.625779 
L 47.587456 26.058163 
L 48.794497 27.944357 
L 50.001538 27.217222 
L 51.20858 25.455692 
L 54.829704 28.208866 
L 56.036745 27.849017 
L 57.243787 28.396143 
L 58.450828 28.613327 
L 59.65787 27.115037 
L 60.864911 26.936763 
L 62.071953 27.324413 
L 63.278994 27.272956 
L 64.486035 27.336492 
L 65.693077 27.281845 
L 66.900118 28.228005 
L 68.10716 28.131627 
L 69.314201 28.410848 
L 71.728284 29.170998 
L 74.142367 29.23403 
L 75.349408 28.251074 
L 76.556449 28.993254 
L 77.763491 29.542767 
L 78.970532 30.224671 
L 81.384615 30.723942 
L 83.798698 30.253333 
L 86.212781 29.505572 
L 87.419822 29.967062 
L 89.833905 29.471286 
L 91.040946 29.799554 
L 93.455029 29.617753 
L 94.662071 29.634111 
L 95.869112 29.262838 
L 97.076153 29.084871 
L 99.490236 29.528731 
L 100.697278 29.235591 
L 104.318402 28.891334 
L 107.939526 29.11938 
L 109.146568 29.241048 
L 110.353609 29.246516 
L 111.56065 29.056752 
L 113.974733 28.094269 
L 115.181775 27.934074 
L 117.595858 28.588953 
L 118.802899 28.58473 
L 120.00994 28.426887 
L 121.216982 28.545693 
L 123.631065 28.408504 
L 124.838106 28.118358 
L 126.045147 28.106233 
L 127.252189 28.415367 
L 128.45923 28.223563 
L 129.666272 28.291094 
L 134.494437 28.090116 
L 135.701479 28.110184 
L 136.90852 27.968862 
L 139.322603 27.988215 
L 140.529644 27.788541 
L 141.736686 28.092468 
L 142.943727 28.19775 
L 144.150769 28.176634 
L 145.35781 27.967947 
L 146.564851 27.975924 
L 147.771893 28.198839 
L 148.978934 28.044479 
L 153.8071 28.343813 
L 155.014141 28.424653 
L 157.428224 28.828406 
L 158.635266 28.812863 
L 159.842307 28.925121 
L 162.25639 29.017196 
L 163.463431 28.810601 
L 164.670473 28.896104 
L 165.877514 28.773147 
L 167.084555 28.944808 
L 168.291597 28.811339 
L 170.70568 28.792898 
L 173.119763 28.663101 
L 174.326804 28.704523 
L 175.533845 28.586835 
L 176.740887 28.633907 
L 177.947928 28.818745 
L 180.362011 28.853215 
L 186.397218 28.886558 
L 188.811301 29.076385 
L 191.225384 29.071891 
L 193.639467 29.158883 
L 197.260591 29.286367 
L 199.674674 29.609228 
L 200.881715 29.556226 
L 202.088756 29.619896 
L 203.295798 29.56898 
L 205.709881 29.232355 
L 216.573253 29.341157 
L 217.780295 29.391133 
L 221.401419 29.266811 
L 226.229585 29.40113 
L 227.436626 29.267251 
L 228.643668 29.259645 
L 229.850709 28.771707 
L 231.05775 28.653004 
L 233.471833 28.709177 
L 235.885916 28.648935 
L 237.092957 28.765331 
L 240.714082 28.769987 
L 243.128164 28.88414 
L 251.577454 28.791583 
L 253.991537 28.824151 
L 255.198579 28.717614 
L 257.612661 28.80389 
L 258.819703 28.75018 
L 263.647868 28.938068 
L 266.061951 28.842204 
L 268.476034 29.062157 
L 274.511241 28.869086 
L 276.925324 28.913559 
L 278.132365 28.864416 
L 281.75349 29.007767 
L 282.960531 28.916006 
L 284.167573 28.949577 
L 285.374614 28.764557 
L 288.995738 28.941926 
L 291.409821 28.717667 
L 297.445028 28.584253 
L 298.652069 28.604134 
L 301.066152 28.460963 
L 307.101359 28.355969 
L 308.308401 28.241356 
L 313.136566 28.228021 
L 314.343608 28.086044 
L 317.964732 28.195484 
L 321.585856 28.03731 
L 328.828105 28.181616 
L 331.242188 28.096857 
L 333.65627 28.08622 
L 334.863312 27.907512 
L 337.277395 27.931407 
L 338.484436 27.848337 
L 339.691478 27.959604 
L 343.312602 27.980579 
L 344.519643 28.045106 
L 346.933726 27.952436 
L 351.761892 27.875927 
L 361.418223 27.613066 
L 363.832306 27.683771 
L 366.246389 27.617538 
L 368.660471 27.528022 
L 371.074554 27.56369 
L 380.730886 27.580467 
L 384.35201 27.529983 
L 386.766093 27.600794 
L 387.973134 27.472582 
L 391.594258 27.538883 
L 398.836507 27.676174 
L 402.457631 27.745212 
L 404.871714 27.663702 
L 409.699879 27.71226 
L 412.113962 27.738311 
L 415.735087 27.838228 
L 418.149169 27.806501 
L 427.805501 27.85242 
L 437.461832 28.105764 
L 439.875915 28.050213 
L 444.70408 28.041888 
L 447.118163 28.013791 
L 453.15337 28.09535 
L 456.774495 28.131051 
L 466.430826 27.894392 
L 467.637867 27.759965 
L 477.294199 27.781499 
L 478.50124 27.671824 
L 485.743488 27.830072 
L 489.364613 27.808515 
L 495.39982 27.866517 
L 499.020944 27.946514 
L 503.84911 28.113772 
L 507.470234 28.108989 
L 511.091358 28.114354 
L 514.712482 28.074308 
L 515.919524 28.125714 
L 515.919524 28.125714 
" clip-path="url(#p88974e7dd7)" style="fill: none; stroke: #ff8c00; stroke-width: 1.5; stroke-linecap: square"/>
   </g>
   <g id="line2d_28">
    <path d="M 34.31 98.44 
L 35.517041 95.877679 
L 36.724083 96.659837 
L 37.931124 19.190043 
L 39.138166 34.454554 
L 40.345207 37.318166 
L 41.552248 44.419179 
L 42.75929 49.706671 
L 43.966331 43.483378 
L 45.173373 39.111807 
L 46.380414 42.317759 
L 47.587456 37.826546 
L 48.794497 28.009413 
L 50.001538 30.708969 
L 51.20858 20.490598 
L 52.415621 20.914443 
L 53.622663 21.664017 
L 54.829704 20.390474 
L 56.036745 23.707814 
L 57.243787 25.515415 
L 58.450828 28.668056 
L 59.65787 15.850663 
L 60.864911 19.204364 
L 62.071953 21.333617 
L 64.486035 27.209924 
L 65.693077 29.821741 
L 66.900118 24.074567 
L 68.10716 26.550681 
L 69.314201 28.180162 
L 70.521242 28.536962 
L 71.728284 29.597692 
L 74.142367 33.59969 
L 75.349408 24.310538 
L 76.556449 19.830984 
L 77.763491 18.268624 
L 78.970532 14.54323 
L 80.177574 15.608454 
L 82.591657 18.619326 
L 83.798698 19.388237 
L 85.005739 19.526474 
L 86.212781 18.959817 
L 87.419822 17.547827 
L 88.626864 18.40032 
L 89.833905 19.111535 
L 91.040946 19.046461 
L 94.662071 23.446913 
L 95.869112 22.504779 
L 97.076153 23.378936 
L 98.283195 23.473306 
L 99.490236 24.272979 
L 100.697278 23.994443 
L 101.904319 25.035385 
L 103.111361 25.681563 
L 106.732485 29.161551 
L 107.939526 29.719156 
L 109.146568 30.498681 
L 110.353609 31.559625 
L 111.56065 31.806905 
L 113.974733 23.576687 
L 115.181775 24.094471 
L 116.388816 22.238545 
L 117.595858 21.245571 
L 118.802899 22.332393 
L 120.00994 22.789493 
L 121.216982 23.481124 
L 122.424023 24.457128 
L 123.631065 25.19979 
L 124.838106 24.022064 
L 126.045147 24.984741 
L 127.252189 23.430775 
L 128.45923 23.407024 
L 130.873313 25.03953 
L 133.287396 26.428722 
L 134.494437 26.847776 
L 135.701479 27.678563 
L 136.90852 27.925606 
L 139.322603 29.520393 
L 140.529644 29.10482 
L 141.736686 27.086946 
L 142.943727 27.532706 
L 144.150769 28.289677 
L 145.35781 27.685098 
L 146.564851 28.435803 
L 147.771893 27.588477 
L 148.978934 27.558798 
L 152.600058 29.538048 
L 153.8071 28.345922 
L 155.014141 28.818276 
L 156.221183 27.645 
L 157.428224 27.320836 
L 158.635266 27.996236 
L 159.842307 28.222632 
L 161.049348 28.885059 
L 162.25639 29.229437 
L 163.463431 28.321356 
L 164.670473 28.69686 
L 165.877514 28.771985 
L 167.084555 28.300259 
L 168.291597 28.255871 
L 170.70568 29.313427 
L 171.912721 29.558082 
L 174.326804 30.623916 
L 175.533845 30.649016 
L 176.740887 31.130011 
L 177.947928 30.312025 
L 180.362011 31.323215 
L 182.776094 32.387507 
L 185.190177 33.305986 
L 186.397218 33.816832 
L 187.604259 33.64237 
L 190.018342 34.358768 
L 191.225384 34.762748 
L 192.432425 35.009289 
L 196.053549 36.330487 
L 197.260591 35.615376 
L 198.467632 34.284525 
L 199.674674 34.012934 
L 203.295798 34.941254 
L 204.502839 33.04996 
L 205.709881 32.864839 
L 208.123963 33.693837 
L 209.331005 33.5854 
L 210.538046 33.822002 
L 211.745088 34.239459 
L 212.952129 34.487652 
L 216.573253 35.67027 
L 226.229585 37.970025 
L 227.436626 37.372972 
L 228.643668 37.74677 
L 229.850709 25.037832 
L 231.05775 24.706441 
L 233.471833 25.505288 
L 234.678875 25.546883 
L 235.885916 25.949401 
L 237.092957 25.606381 
L 240.714082 26.771604 
L 241.921123 26.479055 
L 244.335206 27.264011 
L 245.542247 27.249963 
L 246.749289 27.119114 
L 247.95633 27.367005 
L 253.991537 29.24736 
L 255.198579 28.918956 
L 256.40562 29.078478 
L 257.612661 29.404259 
L 260.026744 29.744543 
L 261.233786 30.104267 
L 262.440827 29.828547 
L 264.85491 30.388197 
L 266.061951 30.56157 
L 267.268993 30.027385 
L 268.476034 29.670128 
L 270.890117 30.210807 
L 272.097158 29.100038 
L 274.511241 29.685231 
L 275.718283 29.852403 
L 276.925324 30.189236 
L 278.132365 30.35999 
L 280.546448 30.118765 
L 281.75349 30.425786 
L 282.960531 30.166081 
L 284.167573 30.415201 
L 285.374614 28.325752 
L 286.581655 28.383055 
L 287.788697 27.264254 
L 288.995738 27.544609 
L 290.20278 26.20766 
L 291.409821 26.172066 
L 292.616862 26.339124 
L 293.823904 26.671299 
L 295.030945 26.520379 
L 297.445028 26.846054 
L 298.652069 27.14212 
L 299.859111 26.731581 
L 301.066152 26.909171 
L 304.687277 27.749063 
L 305.894318 27.809736 
L 307.101359 28.108361 
L 308.308401 27.405491 
L 309.515442 27.710333 
L 310.722484 27.653403 
L 313.136566 28.177565 
L 314.343608 26.893034 
L 316.757691 26.972957 
L 317.964732 27.27302 
L 320.378815 26.74624 
L 321.585856 27.039089 
L 323.999939 27.265446 
L 325.206981 27.265796 
L 327.621063 27.723294 
L 328.828105 27.841401 
L 330.035146 28.115395 
L 331.242188 27.610818 
L 333.65627 28.174974 
L 334.863312 25.75895 
L 337.277395 26.306468 
L 338.484436 26.001801 
L 339.691478 25.224678 
L 340.898519 25.490673 
L 342.10556 25.473099 
L 343.312602 24.960526 
L 344.519643 24.88239 
L 345.726685 24.502657 
L 346.933726 24.784299 
L 348.140767 24.873206 
L 352.968933 25.670797 
L 354.175974 25.138246 
L 355.383016 25.342066 
L 356.590057 25.273859 
L 360.211182 25.837416 
L 361.418223 25.889758 
L 362.625264 25.561356 
L 365.039347 26.082768 
L 366.246389 25.953927 
L 367.45343 25.344033 
L 369.867513 25.803262 
L 371.074554 25.711313 
L 374.695678 26.430873 
L 375.90272 25.804665 
L 378.316803 25.497217 
L 381.937927 26.118427 
L 383.144968 26.144826 
L 384.35201 26.314856 
L 385.559051 26.265731 
L 386.766093 26.486594 
L 387.973134 25.097796 
L 389.180175 25.087154 
L 394.008341 25.949503 
L 397.629465 26.450768 
L 398.836507 26.597001 
L 400.043548 26.560182 
L 402.457631 26.835422 
L 403.664672 26.5831 
L 406.078755 26.924887 
L 407.285797 26.832684 
L 408.492838 26.320609 
L 409.699879 26.537236 
L 410.906921 26.631979 
L 412.113962 26.455672 
L 413.321004 26.476174 
L 414.528045 26.67631 
L 415.735087 26.734209 
L 416.942128 26.452603 
L 418.149169 26.531017 
L 420.563252 26.942317 
L 421.770294 26.561555 
L 429.012542 27.594921 
L 430.219583 27.232293 
L 431.426625 27.108009 
L 437.461832 27.95746 
L 438.668873 27.571473 
L 444.70408 28.413299 
L 445.911122 28.515148 
L 447.118163 28.329803 
L 449.532246 28.633824 
L 450.739288 28.61007 
L 459.188577 29.665161 
L 460.395619 29.410327 
L 462.809702 29.719779 
L 465.223784 29.895648 
L 466.430826 29.869037 
L 467.637867 27.859256 
L 468.844909 28.046609 
L 472.466033 28.257485 
L 477.294199 28.90416 
L 478.50124 27.591287 
L 480.915323 27.750325 
L 482.122364 27.932628 
L 483.329406 28.000832 
L 484.536447 27.171481 
L 490.571654 27.445043 
L 492.985737 27.80602 
L 494.192778 27.819987 
L 496.606861 28.1806 
L 499.020944 28.157913 
L 500.227985 27.882575 
L 501.435027 27.92091 
L 502.642068 27.70365 
L 511.091358 28.622732 
L 513.505441 28.448023 
L 515.919524 28.125714 
L 515.919524 28.125714 
" clip-path="url(#p88974e7dd7)" style="fill: none; stroke-dasharray: 5.55,2.4; stroke-dashoffset: 0; stroke: #ff8c00; stroke-width: 1.5"/>
   </g>
   <g id="patch_3">
    <path d="M 34.31 98.44 
L 34.31 0 
" style="fill: none; stroke: #000000; stroke-width: 0.8; stroke-linejoin: miter; stroke-linecap: square"/>
   </g>
   <g id="patch_4">
    <path d="M 540 98.44 
L 540 0 
" style="fill: none; stroke: #000000; stroke-width: 0.8; stroke-linejoin: miter; stroke-linecap: square"/>
   </g>
   <g id="patch_5">
    <path d="M 34.31 98.44 
L 540 98.44 
" style="fill: none; stroke: #000000; stroke-width: 0.8; stroke-linejoin: miter; stroke-linecap: square"/>
   </g>
   <g id="patch_6">
    <path d="M 34.31 0 
L 540 0 
" style="fill: none; stroke: #000000; stroke-width: 0.8; stroke-linejoin: miter; stroke-linecap: square"/>
   </g>
  </g>
 </g>
 <defs>
  <clipPath id="p88974e7dd7">
   <rect x="34.31" y="0" width="505.69" height="98.44"/>
  </clipPath>
 </defs>
</svg>
