<?xml version="1.0" encoding="utf-8" standalone="no"?>
<!DOCTYPE svg PUBLIC "-//W3C//DTD SVG 1.1//EN"
  "http://www.w3.org/Graphics/SVG/1.1/DTD/svg11.dtd">
<svg xmlns:xlink="http://www.w3.org/1999/xlink" width="540pt" height="129.6pt" viewBox="0 0 540 129.6" xmlns="http://www.w3.org/2000/svg" version="1.1">
 <metadata>
  <rdf:RDF xmlns:dc="http://purl.org/dc/elements/1.1/" xmlns:cc="http://creativecommons.org/ns#" xmlns:rdf="http://www.w3.org/1999/02/22-rdf-syntax-ns#">
   <cc:Work>
    <dc:type rdf:resource="http://purl.org/dc/dcmitype/StillImage"/>
    <dc:date>2025-03-23T02:26:52.442376</dc:date>
    <dc:format>image/svg+xml</dc:format>
    <dc:creator>
     <cc:Agent>
      <dc:title>Matplotlib v3.8.3, https://matplotlib.org/</dc:title>
     </cc:Agent>
    </dc:creator>
   </cc:Work>
  </rdf:RDF>
 </metadata>
 <defs>
  <style type="text/css">*{stroke-linejoin: round; stroke-linecap: butt}</style>
 </defs>
 <g id="figure_1">
  <g id="patch_1">
   <path d="M 0 129.6 
L 540 129.6 
L 540 0 
L 0 0 
z
" style="fill: #ffffff"/>
  </g>
  <g id="axes_1">
   <g id="patch_2">
    <path d="M 35.12 97 
L 540 97 
L 540 0 
L 35.12 0 
z
" style="fill: #ffffff"/>
   </g>
   <g id="matplotlib.axis_1">
    <g id="xtick_1">
     <g id="line2d_1">
      <path d="M 35.12 97 
L 35.12 0 
" clip-path="url(#p6a7fcf281f)" style="fill: none; stroke: #b0b0b0; stroke-width: 0.8; stroke-linecap: square"/>
     </g>
     <g id="line2d_2">
      <defs>
       <path id="mcb877f3482" d="M 0 0 
L 0 3.5 
" style="stroke: #000000; stroke-width: 0.8"/>
      </defs>
      <g>
       <use xlink:href="#mcb877f3482" x="35.12" y="97" style="stroke: #000000; stroke-width: 0.8"/>
      </g>
     </g>
     <g id="text_1">
      <text style="font: 10px 'Times New Roman'; text-anchor: middle" x="35.12" y="110.94375" transform="rotate(-0 35.12 110.94375)">0</text>
     </g>
    </g>
    <g id="xtick_2">
     <g id="line2d_3">
      <path d="M 95.3754 97 
L 95.3754 0 
" clip-path="url(#p6a7fcf281f)" style="fill: none; stroke: #b0b0b0; stroke-width: 0.8; stroke-linecap: square"/>
     </g>
     <g id="line2d_4">
      <g>
       <use xlink:href="#mcb877f3482" x="95.3754" y="97" style="stroke: #000000; stroke-width: 0.8"/>
      </g>
     </g>
     <g id="text_2">
      <text style="font: 10px 'Times New Roman'; text-anchor: middle" x="95.3754" y="110.94375" transform="rotate(-0 95.3754 110.94375)">50</text>
     </g>
    </g>
    <g id="xtick_3">
     <g id="line2d_5">
      <path d="M 155.630801 97 
L 155.630801 0 
" clip-path="url(#p6a7fcf281f)" style="fill: none; stroke: #b0b0b0; stroke-width: 0.8; stroke-linecap: square"/>
     </g>
     <g id="line2d_6">
      <g>
       <use xlink:href="#mcb877f3482" x="155.630801" y="97" style="stroke: #000000; stroke-width: 0.8"/>
      </g>
     </g>
     <g id="text_3">
      <text style="font: 10px 'Times New Roman'; text-anchor: middle" x="155.630801" y="110.94375" transform="rotate(-0 155.630801 110.94375)">100</text>
     </g>
    </g>
    <g id="xtick_4">
     <g id="line2d_7">
      <path d="M 215.886201 97 
L 215.886201 0 
" clip-path="url(#p6a7fcf281f)" style="fill: none; stroke: #b0b0b0; stroke-width: 0.8; stroke-linecap: square"/>
     </g>
     <g id="line2d_8">
      <g>
       <use xlink:href="#mcb877f3482" x="215.886201" y="97" style="stroke: #000000; stroke-width: 0.8"/>
      </g>
     </g>
     <g id="text_4">
      <text style="font: 10px 'Times New Roman'; text-anchor: middle" x="215.886201" y="110.94375" transform="rotate(-0 215.886201 110.94375)">150</text>
     </g>
    </g>
    <g id="xtick_5">
     <g id="line2d_9">
      <path d="M 276.141602 97 
L 276.141602 0 
" clip-path="url(#p6a7fcf281f)" style="fill: none; stroke: #b0b0b0; stroke-width: 0.8; stroke-linecap: square"/>
     </g>
     <g id="line2d_10">
      <g>
       <use xlink:href="#mcb877f3482" x="276.141602" y="97" style="stroke: #000000; stroke-width: 0.8"/>
      </g>
     </g>
     <g id="text_5">
      <text style="font: 10px 'Times New Roman'; text-anchor: middle" x="276.141602" y="110.94375" transform="rotate(-0 276.141602 110.94375)">200</text>
     </g>
    </g>
    <g id="xtick_6">
     <g id="line2d_11">
      <path d="M 336.397002 97 
L 336.397002 0 
" clip-path="url(#p6a7fcf281f)" style="fill: none; stroke: #b0b0b0; stroke-width: 0.8; stroke-linecap: square"/>
     </g>
     <g id="line2d_12">
      <g>
       <use xlink:href="#mcb877f3482" x="336.397002" y="97" style="stroke: #000000; stroke-width: 0.8"/>
      </g>
     </g>
     <g id="text_6">
      <text style="font: 10px 'Times New Roman'; text-anchor: middle" x="336.397002" y="110.94375" transform="rotate(-0 336.397002 110.94375)">250</text>
     </g>
    </g>
    <g id="xtick_7">
     <g id="line2d_13">
      <path d="M 396.652402 97 
L 396.652402 0 
" clip-path="url(#p6a7fcf281f)" style="fill: none; stroke: #b0b0b0; stroke-width: 0.8; stroke-linecap: square"/>
     </g>
     <g id="line2d_14">
      <g>
       <use xlink:href="#mcb877f3482" x="396.652402" y="97" style="stroke: #000000; stroke-width: 0.8"/>
      </g>
     </g>
     <g id="text_7">
      <text style="font: 10px 'Times New Roman'; text-anchor: middle" x="396.652402" y="110.94375" transform="rotate(-0 396.652402 110.94375)">300</text>
     </g>
    </g>
    <g id="xtick_8">
     <g id="line2d_15">
      <path d="M 456.907803 97 
L 456.907803 0 
" clip-path="url(#p6a7fcf281f)" style="fill: none; stroke: #b0b0b0; stroke-width: 0.8; stroke-linecap: square"/>
     </g>
     <g id="line2d_16">
      <g>
       <use xlink:href="#mcb877f3482" x="456.907803" y="97" style="stroke: #000000; stroke-width: 0.8"/>
      </g>
     </g>
     <g id="text_8">
      <text style="font: 10px 'Times New Roman'; text-anchor: middle" x="456.907803" y="110.94375" transform="rotate(-0 456.907803 110.94375)">350</text>
     </g>
    </g>
    <g id="xtick_9">
     <g id="line2d_17">
      <path d="M 517.163203 97 
L 517.163203 0 
" clip-path="url(#p6a7fcf281f)" style="fill: none; stroke: #b0b0b0; stroke-width: 0.8; stroke-linecap: square"/>
     </g>
     <g id="line2d_18">
      <g>
       <use xlink:href="#mcb877f3482" x="517.163203" y="97" style="stroke: #000000; stroke-width: 0.8"/>
      </g>
     </g>
     <g id="text_9">
      <text style="font: 10px 'Times New Roman'; text-anchor: middle" x="517.163203" y="110.94375" transform="rotate(-0 517.163203 110.94375)">400</text>
     </g>
    </g>
    <g id="text_10">
     <text style="font: 12px 'Times New Roman'; text-anchor: middle" x="287.56" y="125.415312" transform="rotate(-0 287.56 125.415312)">Simulation Run</text>
    </g>
   </g>
   <g id="matplotlib.axis_2">
    <g id="ytick_1">
     <g id="line2d_19">
      <path d="M 35.12 97 
L 540 97 
" clip-path="url(#p6a7fcf281f)" style="fill: none; stroke: #b0b0b0; stroke-width: 0.8; stroke-linecap: square"/>
     </g>
     <g id="line2d_20">
      <defs>
       <path id="m313bbcad47" d="M 0 0 
L -3.5 0 
" style="stroke: #000000; stroke-width: 0.8"/>
      </defs>
      <g>
       <use xlink:href="#m313bbcad47" x="35.12" y="97" style="stroke: #000000; stroke-width: 0.8"/>
      </g>
     </g>
     <g id="text_11">
      <text style="font: 10px 'Times New Roman'; text-anchor: end" x="28.12" y="100.471875" transform="rotate(-0 28.12 100.471875)">0.0</text>
     </g>
    </g>
    <g id="ytick_2">
     <g id="line2d_21">
      <path d="M 35.12 70.055556 
L 540 70.055556 
" clip-path="url(#p6a7fcf281f)" style="fill: none; stroke: #b0b0b0; stroke-width: 0.8; stroke-linecap: square"/>
     </g>
     <g id="line2d_22">
      <g>
       <use xlink:href="#m313bbcad47" x="35.12" y="70.055556" style="stroke: #000000; stroke-width: 0.8"/>
      </g>
     </g>
     <g id="text_12">
      <text style="font: 10px 'Times New Roman'; text-anchor: end" x="28.12" y="73.527431" transform="rotate(-0 28.12 73.527431)">0.5</text>
     </g>
    </g>
    <g id="ytick_3">
     <g id="line2d_23">
      <path d="M 35.12 43.111111 
L 540 43.111111 
" clip-path="url(#p6a7fcf281f)" style="fill: none; stroke: #b0b0b0; stroke-width: 0.8; stroke-linecap: square"/>
     </g>
     <g id="line2d_24">
      <g>
       <use xlink:href="#m313bbcad47" x="35.12" y="43.111111" style="stroke: #000000; stroke-width: 0.8"/>
      </g>
     </g>
     <g id="text_13">
      <text style="font: 10px 'Times New Roman'; text-anchor: end" x="28.12" y="46.582986" transform="rotate(-0 28.12 46.582986)">1.0</text>
     </g>
    </g>
    <g id="ytick_4">
     <g id="line2d_25">
      <path d="M 35.12 16.166667 
L 540 16.166667 
" clip-path="url(#p6a7fcf281f)" style="fill: none; stroke: #b0b0b0; stroke-width: 0.8; stroke-linecap: square"/>
     </g>
     <g id="line2d_26">
      <g>
       <use xlink:href="#m313bbcad47" x="35.12" y="16.166667" style="stroke: #000000; stroke-width: 0.8"/>
      </g>
     </g>
     <g id="text_14">
      <text style="font: 10px 'Times New Roman'; text-anchor: end" x="28.12" y="19.638542" transform="rotate(-0 28.12 19.638542)">1.5</text>
     </g>
    </g>
    <g id="text_15">
     <text style="font: 12px 'Times New Roman'; text-anchor: middle" x="9.053125" y="48.5" transform="rotate(-90 9.053125 48.5)">Normalized Value</text>
    </g>
   </g>
   <g id="line2d_27">
    <path d="M 35.12 45.744047 
L 36.325108 34.471202 
L 37.530216 26.908345 
L 38.735324 25.453841 
L 39.940432 29.998388 
L 41.14554 27.135758 
L 42.350648 27.871226 
L 43.555756 32.648486 
L 44.760864 33.859293 
L 45.965972 34.368088 
L 47.17108 36.421179 
L 48.376188 36.900297 
L 50.786404 35.708988 
L 51.991512 36.577734 
L 53.19662 38.107067 
L 54.401728 37.037497 
L 55.606836 35.529333 
L 56.811944 35.813157 
L 58.017052 36.226137 
L 59.22216 35.825614 
L 61.632376 37.221073 
L 62.837484 37.057743 
L 64.042592 37.949817 
L 65.2477 37.911958 
L 66.452808 38.560365 
L 67.657916 38.62592 
L 68.863024 38.954875 
L 71.27324 39.303084 
L 72.478348 39.959957 
L 73.683456 39.632236 
L 74.888564 40.201572 
L 76.093672 40.20526 
L 78.503888 41.046992 
L 80.914104 41.532164 
L 82.119212 41.54618 
L 83.32432 41.697029 
L 86.939644 41.416297 
L 88.144752 41.483469 
L 90.554968 42.168066 
L 91.760076 42.134335 
L 92.965184 42.532533 
L 94.170292 42.798996 
L 98.990724 43.417243 
L 100.195832 43.045768 
L 101.40094 43.066688 
L 102.606048 43.301436 
L 103.811156 43.323574 
L 105.016264 43.133858 
L 111.041805 43.15177 
L 112.246913 43.00931 
L 113.452021 43.118516 
L 114.657129 42.682616 
L 119.477561 43.280187 
L 120.682669 42.997367 
L 121.887777 42.953872 
L 123.092885 43.226993 
L 125.503101 43.410886 
L 126.708209 43.217877 
L 129.118425 43.427376 
L 131.528641 43.598769 
L 132.733749 43.761525 
L 133.938857 43.757382 
L 136.349073 44.057684 
L 137.554181 43.850139 
L 138.759289 43.769442 
L 139.964397 43.923286 
L 141.169505 43.522757 
L 143.579721 43.294202 
L 144.784829 43.451425 
L 145.989937 43.282467 
L 147.195045 43.46691 
L 155.630801 43.675397 
L 156.835909 43.865017 
L 158.041017 43.646613 
L 160.451233 43.736778 
L 162.861449 43.554794 
L 165.271665 43.424029 
L 166.476773 43.518413 
L 167.681881 43.478564 
L 168.886989 43.28244 
L 172.502313 43.128579 
L 173.707421 42.992273 
L 174.912529 42.734989 
L 176.117637 42.962715 
L 177.322745 42.90303 
L 180.938069 43.080367 
L 183.348285 42.80722 
L 190.578933 42.780234 
L 191.784041 42.578246 
L 194.194257 42.616563 
L 195.399365 42.760673 
L 196.604473 42.716191 
L 199.014689 42.829889 
L 203.835121 42.750968 
L 205.040229 42.850978 
L 206.245337 42.791989 
L 207.450445 42.896475 
L 209.860661 42.742604 
L 211.065769 42.742107 
L 214.681093 43.089281 
L 215.886201 42.895062 
L 217.091309 42.928796 
L 219.501525 42.732033 
L 223.116849 42.855126 
L 225.527065 43.090488 
L 230.347497 43.035953 
L 232.757713 43.127909 
L 236.373037 42.747836 
L 239.988361 42.741851 
L 241.193469 42.649119 
L 242.398577 42.714367 
L 243.603685 42.630443 
L 244.808793 42.703527 
L 246.013901 42.393087 
L 248.424117 42.509838 
L 254.449657 42.573569 
L 260.475198 42.721964 
L 271.32117 42.57592 
L 273.731386 42.748366 
L 274.936494 42.598264 
L 277.34671 42.714265 
L 278.551818 42.629736 
L 289.39779 42.809682 
L 293.013114 42.797272 
L 295.42333 42.831875 
L 303.859086 43.175693 
L 306.269302 43.099318 
L 307.47441 43.195507 
L 308.679518 43.089165 
L 309.884626 43.108785 
L 311.089734 42.981157 
L 315.910166 43.063269 
L 317.115274 43.067529 
L 319.52549 42.924954 
L 323.140814 43.02681 
L 325.55103 43.044997 
L 338.807218 43.343173 
L 340.012326 43.417174 
L 341.217434 43.231437 
L 343.62765 43.279533 
L 348.448082 43.248929 
L 349.65319 43.211498 
L 350.858298 43.026349 
L 362.909378 43.024064 
L 371.345134 42.950576 
L 374.960458 42.978758 
L 376.165566 42.900934 
L 383.396214 43.053319 
L 414.729023 43.284577 
L 418.344347 43.117814 
L 419.549455 43.086959 
L 420.754563 43.178006 
L 425.574995 42.990222 
L 429.190319 43.068144 
L 437.626075 42.888912 
L 441.241399 42.961237 
L 443.651615 42.926606 
L 447.266939 43.014328 
L 479.804855 43.013885 
L 483.420179 43.017412 
L 491.855935 43.215122 
L 494.266151 43.142522 
L 499.086583 43.210537 
L 501.496799 43.280065 
L 515.958095 43.111111 
L 515.958095 43.111111 
" clip-path="url(#p6a7fcf281f)" style="fill: none; stroke: #4169e1; stroke-width: 1.5; stroke-linecap: square"/>
   </g>
   <g id="line2d_28">
    <path d="M 35.12 97 
L 36.325108 63.22971 
L 37.530216 44.086753 
L 38.735324 55.62844 
L 39.940432 41.948999 
L 41.14554 40.23567 
L 42.350648 47.482385 
L 43.555756 11.217616 
L 44.760864 17.632203 
L 45.965972 24.949831 
L 47.17108 20.298147 
L 48.376188 26.018934 
L 49.581296 30.166507 
L 50.786404 33.896175 
L 51.991512 35.295198 
L 53.19662 29.828592 
L 54.401728 28.915718 
L 55.606836 22.42241 
L 56.811944 25.96221 
L 58.017052 28.652949 
L 59.22216 31.054956 
L 60.427268 31.463083 
L 61.632376 31.329595 
L 62.837484 33.902808 
L 64.042592 31.35117 
L 65.2477 33.866603 
L 66.452808 33.299942 
L 67.657916 35.544109 
L 68.863024 36.85809 
L 71.27324 40.259817 
L 72.478348 38.478331 
L 73.683456 39.338389 
L 74.888564 38.191699 
L 76.093672 39.871813 
L 77.29878 39.601729 
L 78.503888 39.66105 
L 79.708996 40.379449 
L 80.914104 41.420725 
L 82.119212 42.808171 
L 84.529428 45.019307 
L 85.734536 45.799261 
L 88.144752 48.014593 
L 89.34986 47.258142 
L 90.554968 47.257449 
L 91.760076 48.279542 
L 92.965184 47.25125 
L 94.170292 47.32166 
L 95.3754 48.014554 
L 96.580508 48.458211 
L 98.990724 49.710227 
L 100.195832 48.589782 
L 101.40094 49.447854 
L 102.606048 49.462013 
L 103.811156 50.27421 
L 105.016264 50.511414 
L 107.42648 52.003248 
L 111.041805 53.891011 
L 112.246913 54.209057 
L 113.452021 54.651402 
L 114.657129 51.950856 
L 115.862237 52.231611 
L 117.067345 52.852715 
L 118.272453 51.909011 
L 119.477561 52.280813 
L 120.682669 51.392717 
L 121.887777 51.981277 
L 123.092885 51.142528 
L 124.297993 51.477799 
L 125.503101 51.991557 
L 126.708209 51.823708 
L 127.913317 52.062029 
L 130.323533 52.996311 
L 131.528641 53.236458 
L 132.733749 53.19996 
L 133.938857 53.727297 
L 135.143965 53.917059 
L 136.349073 53.709925 
L 137.554181 53.240302 
L 138.759289 53.594459 
L 139.964397 53.540503 
L 141.169505 50.277209 
L 142.374613 50.153472 
L 143.579721 50.571259 
L 145.989937 50.280436 
L 147.195045 49.936689 
L 148.400153 50.4254 
L 149.605261 50.716151 
L 154.425693 52.47696 
L 155.630801 52.449974 
L 156.835909 51.921673 
L 158.041017 51.066353 
L 159.246125 51.247533 
L 161.656341 52.025331 
L 162.861449 51.990385 
L 164.066557 52.12549 
L 165.271665 52.509172 
L 166.476773 52.655595 
L 167.681881 53.008675 
L 168.886989 52.266836 
L 171.297205 53.001343 
L 172.502313 53.102699 
L 173.707421 52.913327 
L 174.912529 51.249563 
L 176.117637 50.024858 
L 177.322745 50.307901 
L 178.527853 50.432061 
L 179.732961 49.975698 
L 180.938069 50.172417 
L 182.143177 49.447031 
L 183.348285 49.574855 
L 186.963609 50.597366 
L 188.168717 50.936947 
L 189.373825 51.049978 
L 190.578933 51.370752 
L 191.784041 50.309578 
L 194.194257 50.969842 
L 195.399365 50.579337 
L 196.604473 50.852735 
L 197.809581 50.911062 
L 201.424905 51.827194 
L 202.630013 51.37276 
L 205.040229 51.211752 
L 206.245337 51.400639 
L 207.450445 51.302419 
L 208.655553 51.03281 
L 211.065769 51.623172 
L 212.270877 51.074763 
L 213.475985 50.930992 
L 214.681093 50.902759 
L 215.886201 49.704409 
L 217.091309 49.9699 
L 218.296417 49.570077 
L 219.501525 49.709202 
L 221.911741 50.232595 
L 223.116849 50.320395 
L 224.321957 49.890699 
L 225.527065 49.736948 
L 227.937281 50.169581 
L 229.142389 49.01357 
L 230.347497 48.618087 
L 232.757713 49.018265 
L 235.167929 47.86639 
L 236.373037 47.719612 
L 239.988361 48.54776 
L 241.193469 48.438687 
L 242.398577 48.524793 
L 244.808793 48.509858 
L 246.013901 44.303486 
L 247.219009 44.330408 
L 249.629225 44.841566 
L 254.449657 45.898123 
L 255.654765 46.058548 
L 256.859873 46.105518 
L 258.064982 46.301278 
L 259.27009 46.18072 
L 261.680306 46.669622 
L 262.885414 46.522354 
L 264.090522 46.772357 
L 265.29563 46.234223 
L 266.500738 46.409199 
L 268.910954 46.539171 
L 270.116062 46.628255 
L 271.32117 46.831994 
L 272.526278 46.786623 
L 273.731386 46.544844 
L 274.936494 45.605629 
L 279.756926 45.819266 
L 280.962034 45.486666 
L 283.37225 45.910631 
L 285.782466 46.306466 
L 286.987574 46.25462 
L 289.39779 46.632733 
L 290.602898 46.846849 
L 293.013114 46.50687 
L 294.218222 46.442037 
L 296.628438 46.664559 
L 300.243762 46.636605 
L 301.44887 46.518428 
L 303.859086 46.902277 
L 306.269302 47.170175 
L 307.47441 46.834001 
L 308.679518 46.371831 
L 309.884626 46.569591 
L 311.089734 45.797575 
L 312.294842 45.923413 
L 313.49995 45.857499 
L 317.115274 46.48754 
L 318.320382 45.710383 
L 319.52549 45.909529 
L 320.730598 45.896249 
L 323.140814 46.233172 
L 329.166354 46.8421 
L 330.371462 46.545036 
L 335.191894 47.089091 
L 336.397002 46.973687 
L 338.807218 47.159077 
L 340.012326 46.987116 
L 341.217434 44.85462 
L 342.422542 45.027574 
L 343.62765 44.902199 
L 346.037866 45.296599 
L 347.242974 45.325205 
L 348.448082 44.969778 
L 349.65319 45.071189 
L 350.858298 42.881866 
L 354.473622 43.383067 
L 355.67873 43.238617 
L 366.524702 44.390128 
L 367.72981 44.202895 
L 368.934918 44.15214 
L 372.550242 44.60923 
L 374.960458 44.834005 
L 376.165566 44.562188 
L 377.370674 44.617361 
L 378.575782 44.469362 
L 379.78089 44.602498 
L 380.985998 44.492885 
L 382.191106 44.56001 
L 387.011538 45.174238 
L 388.216646 45.327186 
L 390.626862 45.165245 
L 393.037078 45.361824 
L 394.242186 45.439454 
L 395.447294 45.402948 
L 396.652402 44.78244 
L 401.472834 45.403765 
L 402.677942 45.354853 
L 403.88305 45.519169 
L 405.088158 45.434345 
L 406.293266 45.56587 
L 407.498375 45.535033 
L 414.729023 46.129787 
L 415.934131 45.569361 
L 417.139239 45.706672 
L 418.344347 45.592092 
L 419.549455 45.672038 
L 420.754563 45.127004 
L 421.959671 44.966963 
L 423.164779 45.122639 
L 424.369887 44.904058 
L 427.985211 44.787157 
L 430.395427 44.991348 
L 431.600535 45.131781 
L 432.805643 43.065132 
L 434.010751 43.194459 
L 436.420967 42.994725 
L 437.626075 43.0953 
L 438.831183 42.954669 
L 441.241399 43.087034 
L 442.446507 42.950111 
L 443.651615 43.062368 
L 444.856723 42.985246 
L 448.472047 43.390955 
L 450.882263 42.77365 
L 455.702695 43.340373 
L 456.907803 43.070706 
L 458.112911 43.214006 
L 459.318019 43.232264 
L 461.728235 43.520788 
L 462.933343 43.516183 
L 464.138451 43.190933 
L 465.343559 43.339044 
L 474.984423 43.409926 
L 476.189531 43.135881 
L 478.599747 43.153904 
L 482.215071 43.496781 
L 485.830395 43.679952 
L 487.035503 43.182655 
L 489.445719 43.338531 
L 490.650827 43.473675 
L 493.061043 43.082731 
L 496.676367 43.388682 
L 497.881475 43.330816 
L 499.086583 43.464173 
L 500.291691 43.254993 
L 509.932555 44.17725 
L 512.342771 44.237548 
L 513.547879 43.346398 
L 514.752987 43.344347 
L 515.958095 43.111111 
L 515.958095 43.111111 
" clip-path="url(#p6a7fcf281f)" style="fill: none; stroke-dasharray: 5.55,2.4; stroke-dashoffset: 0; stroke: #4169e1; stroke-width: 1.5"/>
   </g>
   <g id="line2d_29">
    <path d="M 35.12 42.528768 
L 36.325108 35.853889 
L 37.530216 28.095616 
L 38.735324 27.650461 
L 39.940432 31.804979 
L 41.14554 29.492026 
L 42.350648 30.524803 
L 43.555756 34.952818 
L 44.760864 35.339035 
L 45.965972 35.582312 
L 47.17108 37.504761 
L 48.376188 37.68944 
L 50.786404 36.639041 
L 51.991512 37.337369 
L 53.19662 38.775656 
L 55.606836 36.872425 
L 56.811944 37.293689 
L 58.017052 37.844921 
L 59.22216 37.432828 
L 61.632376 38.90111 
L 62.837484 38.696065 
L 64.042592 39.370377 
L 65.2477 39.370803 
L 66.452808 40.067277 
L 67.657916 40.089194 
L 71.27324 40.665476 
L 72.478348 41.250762 
L 73.683456 40.919133 
L 74.888564 41.473759 
L 76.093672 41.402509 
L 77.29878 41.876061 
L 80.914104 42.708097 
L 84.529428 42.656168 
L 85.734536 42.385146 
L 88.144752 42.370787 
L 89.34986 42.734357 
L 90.554968 42.967879 
L 91.760076 42.844439 
L 94.170292 43.491694 
L 95.3754 43.552366 
L 97.785616 43.915877 
L 98.990724 43.987604 
L 100.195832 43.569527 
L 101.40094 43.567122 
L 102.606048 43.771286 
L 103.811156 43.804863 
L 105.016264 43.559719 
L 108.631588 43.677486 
L 109.836697 43.537343 
L 113.452021 43.573278 
L 114.657129 43.138272 
L 118.272453 43.561599 
L 119.477561 43.708042 
L 120.682669 43.385368 
L 121.887777 43.407899 
L 123.092885 43.661664 
L 124.297993 43.778351 
L 125.503101 43.777667 
L 126.708209 43.642699 
L 129.118425 43.787179 
L 130.323533 43.80381 
L 132.733749 44.13699 
L 133.938857 44.146029 
L 136.349073 44.473707 
L 138.759289 44.200393 
L 139.964397 44.345177 
L 141.169505 43.971129 
L 143.579721 43.688293 
L 144.784829 43.837646 
L 145.989937 43.670873 
L 147.195045 43.841715 
L 155.630801 44.005829 
L 156.835909 44.148936 
L 158.041017 43.907082 
L 160.451233 43.966508 
L 167.681881 43.953809 
L 168.886989 43.733745 
L 172.502313 43.516252 
L 174.912529 43.245187 
L 176.117637 43.448039 
L 177.322745 43.367612 
L 178.527853 43.414747 
L 179.732961 43.582164 
L 184.553393 43.281592 
L 190.578933 43.269001 
L 191.784041 43.05653 
L 194.194257 43.071908 
L 195.399365 43.216217 
L 196.604473 43.171933 
L 199.014689 43.301827 
L 203.835121 43.22808 
L 205.040229 43.297502 
L 206.245337 43.241931 
L 207.450445 43.335281 
L 208.655553 43.200346 
L 211.065769 43.216175 
L 214.681093 43.483203 
L 215.886201 43.329372 
L 217.091309 43.353209 
L 219.501525 43.179955 
L 223.116849 43.306527 
L 225.527065 43.511565 
L 227.937281 43.529204 
L 229.142389 43.330574 
L 232.757713 43.524532 
L 236.373037 43.134124 
L 239.988361 43.11294 
L 241.193469 43.034912 
L 242.398577 43.084226 
L 243.603685 42.997462 
L 244.808793 43.060818 
L 246.013901 42.753506 
L 249.629225 42.884288 
L 253.244549 42.909697 
L 267.705846 42.916637 
L 268.910954 42.851337 
L 273.731386 43.033547 
L 274.936494 42.895501 
L 282.167142 43.028749 
L 284.577358 43.023773 
L 297.833546 43.16278 
L 302.653978 43.325392 
L 305.064194 43.310075 
L 306.269302 43.259915 
L 307.47441 43.351282 
L 308.679518 43.241531 
L 309.884626 43.266348 
L 311.089734 43.146348 
L 314.705058 43.22014 
L 321.935706 43.135317 
L 331.57657 43.326183 
L 333.986786 43.314168 
L 338.807218 43.476883 
L 340.012326 43.553497 
L 341.217434 43.371174 
L 343.62765 43.411354 
L 347.242974 43.467466 
L 352.063406 43.196624 
L 355.67873 43.201101 
L 358.088946 43.195489 
L 360.499162 43.193632 
L 366.524702 43.208665 
L 370.140026 43.110601 
L 379.78089 43.163676 
L 382.191106 43.176524 
L 388.216646 43.225684 
L 393.037078 43.362131 
L 400.267726 43.241867 
L 412.318807 43.355872 
L 424.369887 43.125876 
L 425.574995 43.070236 
L 429.190319 43.135874 
L 440.036291 43.00282 
L 444.856723 43.056347 
L 448.472047 43.094089 
L 449.677155 43.023096 
L 453.292479 43.134704 
L 456.907803 43.081426 
L 479.804855 43.058461 
L 483.420179 43.065546 
L 491.855935 43.223268 
L 495.471259 43.153005 
L 503.907015 43.262842 
L 515.958095 43.111111 
L 515.958095 43.111111 
" clip-path="url(#p6a7fcf281f)" style="fill: none; stroke: #ff8c00; stroke-width: 1.5; stroke-linecap: square"/>
   </g>
   <g id="line2d_30">
    <path d="M 35.12 97 
L 36.325108 83.517317 
L 37.530216 51.58236 
L 38.735324 62.756869 
L 39.940432 48.712972 
L 41.14554 48.666252 
L 42.350648 53.634412 
L 43.555756 17.520929 
L 44.760864 25.990825 
L 45.965972 32.930554 
L 47.17108 27.570999 
L 48.376188 33.243217 
L 49.581296 37.238387 
L 50.786404 40.316931 
L 51.991512 42.029776 
L 53.19662 36.075282 
L 55.606836 34.061199 
L 56.811944 36.407114 
L 58.017052 37.68968 
L 59.22216 39.486179 
L 60.427268 38.050941 
L 61.632376 37.62523 
L 62.837484 39.806553 
L 64.042592 38.791946 
L 65.2477 41.030716 
L 66.452808 39.287085 
L 67.657916 41.344335 
L 70.068132 44.613136 
L 71.27324 45.703255 
L 72.478348 44.092712 
L 73.683456 44.63098 
L 74.888564 43.099372 
L 76.093672 44.587159 
L 77.29878 43.66792 
L 80.914104 45.243679 
L 83.32432 47.668056 
L 84.529428 48.547182 
L 85.734536 48.740421 
L 88.144752 50.883701 
L 89.34986 50.086198 
L 90.554968 50.325257 
L 91.760076 51.080927 
L 92.965184 49.964664 
L 94.170292 49.814209 
L 95.3754 50.683722 
L 96.580508 50.813679 
L 97.785616 51.370085 
L 98.990724 52.132568 
L 100.195832 50.092095 
L 101.40094 50.92964 
L 102.606048 51.031515 
L 103.811156 51.804629 
L 105.016264 51.51588 
L 107.42648 52.984569 
L 108.631588 53.541319 
L 109.836697 53.862647 
L 111.041805 54.53209 
L 112.246913 55.054202 
L 113.452021 55.337864 
L 114.657129 52.180281 
L 115.862237 52.575965 
L 117.067345 53.21857 
L 118.272453 51.944253 
L 119.477561 52.124559 
L 120.682669 50.51078 
L 121.887777 51.136558 
L 123.092885 50.333757 
L 124.297993 50.651065 
L 125.503101 51.260908 
L 127.913317 51.720505 
L 130.323533 52.823357 
L 131.528641 52.619528 
L 132.733749 52.554556 
L 133.938857 53.088016 
L 135.143965 53.215724 
L 136.349073 52.690894 
L 137.554181 52.307821 
L 138.759289 52.627084 
L 139.964397 52.579438 
L 141.169505 49.35269 
L 142.374613 49.126392 
L 143.579721 49.29024 
L 144.784829 49.194555 
L 147.195045 48.62417 
L 148.400153 49.129165 
L 149.605261 49.343918 
L 154.425693 51.186131 
L 155.630801 51.332485 
L 156.835909 51.154273 
L 158.041017 49.793893 
L 159.246125 50.052251 
L 162.861449 51.297 
L 164.066557 51.467623 
L 165.271665 51.861691 
L 166.476773 51.684026 
L 167.681881 52.063697 
L 168.886989 50.838214 
L 170.092097 51.2023 
L 171.297205 51.443429 
L 172.502313 51.40096 
L 173.707421 51.53764 
L 174.912529 50.721848 
L 176.117637 49.657112 
L 177.322745 49.823971 
L 178.527853 50.137101 
L 179.732961 49.506574 
L 180.938069 49.63023 
L 182.143177 48.886554 
L 188.168717 50.573375 
L 189.373825 50.581676 
L 190.578933 50.914458 
L 191.784041 49.490313 
L 194.194257 50.199398 
L 195.399365 49.710494 
L 196.604473 49.981263 
L 197.809581 49.888886 
L 201.424905 50.825963 
L 202.630013 50.53394 
L 203.835121 50.475276 
L 207.450445 50.732885 
L 208.655553 50.258546 
L 211.065769 50.833279 
L 212.270877 50.525591 
L 213.475985 50.685734 
L 214.681093 50.622792 
L 215.886201 49.855765 
L 217.091309 50.139961 
L 218.296417 49.542299 
L 221.911741 50.223879 
L 223.116849 50.362065 
L 224.321957 50.026245 
L 225.527065 49.936156 
L 227.937281 50.45663 
L 229.142389 48.821697 
L 230.347497 48.621519 
L 231.552605 48.741431 
L 232.757713 48.977141 
L 233.962821 48.392459 
L 235.167929 47.349275 
L 236.373037 47.18745 
L 239.988361 47.959374 
L 241.193469 47.929444 
L 242.398577 48.086512 
L 243.603685 47.973514 
L 244.808793 48.042306 
L 246.013901 43.319114 
L 247.219009 43.354187 
L 249.629225 43.843489 
L 255.654765 45.031387 
L 260.475198 45.644415 
L 261.680306 45.87866 
L 262.885414 45.355086 
L 264.090522 45.61066 
L 265.29563 44.90276 
L 267.705846 45.062065 
L 270.116062 45.171782 
L 271.32117 45.345408 
L 273.731386 45.02997 
L 274.936494 44.142223 
L 279.756926 44.921399 
L 280.962034 44.791175 
L 282.167142 45.036315 
L 284.577358 45.149905 
L 285.782466 45.396479 
L 288.192682 45.446637 
L 290.602898 45.850981 
L 291.808006 45.719784 
L 293.013114 45.816467 
L 294.218222 45.662439 
L 297.833546 46.006159 
L 301.44887 45.977005 
L 303.859086 46.332854 
L 306.269302 46.441336 
L 307.47441 46.093143 
L 308.679518 45.488986 
L 309.884626 45.671431 
L 311.089734 44.896694 
L 314.705058 45.139302 
L 317.115274 45.534318 
L 318.320382 45.085523 
L 319.52549 45.304196 
L 320.730598 45.379924 
L 323.140814 45.7428 
L 326.756138 45.919735 
L 329.166354 46.11587 
L 330.371462 45.911355 
L 335.191894 46.513232 
L 336.397002 46.465185 
L 337.60211 46.579742 
L 338.807218 46.567738 
L 340.012326 46.316894 
L 341.217434 43.960552 
L 342.422542 44.131118 
L 343.62765 44.03939 
L 346.037866 44.400008 
L 347.242974 44.412773 
L 348.448082 43.952741 
L 349.65319 43.995509 
L 350.858298 42.270209 
L 354.473622 42.693417 
L 355.67873 42.537087 
L 366.524702 43.712374 
L 367.72981 43.533651 
L 368.934918 43.541448 
L 372.550242 44.035654 
L 373.75535 44.015784 
L 374.960458 44.133357 
L 376.165566 44.058275 
L 377.370674 44.180533 
L 378.575782 43.978346 
L 379.78089 44.143465 
L 382.191106 44.298657 
L 383.396214 44.478061 
L 384.601322 44.474188 
L 388.216646 44.933306 
L 389.421754 44.855355 
L 391.83197 45.070276 
L 395.447294 45.27097 
L 396.652402 44.742962 
L 401.472834 45.317796 
L 402.677942 45.308652 
L 403.88305 45.476101 
L 405.088158 45.419469 
L 406.293266 45.574485 
L 409.908591 45.687296 
L 414.729023 46.009945 
L 415.934131 45.624064 
L 417.139239 45.768825 
L 418.344347 45.627848 
L 419.549455 45.761269 
L 420.754563 45.213059 
L 421.959671 45.00782 
L 423.164779 45.15994 
L 426.780103 44.732055 
L 431.600535 45.250764 
L 432.805643 43.497947 
L 434.010751 43.635864 
L 435.215859 43.283249 
L 436.420967 43.208882 
L 437.626075 43.299198 
L 438.831183 43.173708 
L 440.036291 43.29108 
L 442.446507 43.298463 
L 443.651615 43.434237 
L 444.856723 43.437364 
L 448.472047 43.807069 
L 450.882263 43.053532 
L 454.497587 43.387956 
L 455.702695 43.525445 
L 456.907803 43.29956 
L 458.112911 43.450811 
L 459.318019 43.410855 
L 461.728235 43.679533 
L 462.933343 43.643197 
L 464.138451 43.400066 
L 465.343559 43.545331 
L 466.548667 43.548862 
L 467.753775 43.420965 
L 470.163991 43.645466 
L 471.369099 43.451982 
L 474.984423 43.484306 
L 476.189531 43.096201 
L 477.394639 43.169305 
L 478.599747 43.090571 
L 484.625287 43.613591 
L 485.830395 43.612954 
L 487.035503 43.196238 
L 489.445719 43.382379 
L 490.650827 43.518303 
L 493.061043 43.11035 
L 496.676367 43.412632 
L 497.881475 43.274722 
L 499.086583 43.401997 
L 500.291691 43.158288 
L 506.317231 43.645074 
L 511.137663 44.064386 
L 512.342771 44.094772 
L 513.547879 43.233651 
L 514.752987 43.286462 
L 515.958095 43.111111 
L 515.958095 43.111111 
" clip-path="url(#p6a7fcf281f)" style="fill: none; stroke-dasharray: 5.55,2.4; stroke-dashoffset: 0; stroke: #ff8c00; stroke-width: 1.5"/>
   </g>
   <g id="patch_3">
    <path d="M 35.12 97 
L 35.12 0 
" style="fill: none; stroke: #000000; stroke-width: 0.8; stroke-linejoin: miter; stroke-linecap: square"/>
   </g>
   <g id="patch_4">
    <path d="M 540 97 
L 540 0 
" style="fill: none; stroke: #000000; stroke-width: 0.8; stroke-linejoin: miter; stroke-linecap: square"/>
   </g>
   <g id="patch_5">
    <path d="M 35.12 97 
L 540 97 
" style="fill: none; stroke: #000000; stroke-width: 0.8; stroke-linejoin: miter; stroke-linecap: square"/>
   </g>
   <g id="patch_6">
    <path d="M 35.12 0 
L 540 0 
" style="fill: none; stroke: #000000; stroke-width: 0.8; stroke-linejoin: miter; stroke-linecap: square"/>
   </g>
  </g>
 </g>
 <defs>
  <clipPath id="p6a7fcf281f">
   <rect x="35.12" y="0" width="504.88" height="97"/>
  </clipPath>
 </defs>
</svg>
