<?xml version="1.0" encoding="utf-8" standalone="no"?>
<!DOCTYPE svg PUBLIC "-//W3C//DTD SVG 1.1//EN"
  "http://www.w3.org/Graphics/SVG/1.1/DTD/svg11.dtd">
<svg xmlns:xlink="http://www.w3.org/1999/xlink" width="540pt" height="129.6pt" viewBox="0 0 540 129.6" xmlns="http://www.w3.org/2000/svg" version="1.1">
 <metadata>
  <rdf:RDF xmlns:dc="http://purl.org/dc/elements/1.1/" xmlns:cc="http://creativecommons.org/ns#" xmlns:rdf="http://www.w3.org/1999/02/22-rdf-syntax-ns#">
   <cc:Work>
    <dc:type rdf:resource="http://purl.org/dc/dcmitype/StillImage"/>
    <dc:date>2025-03-22T23:01:55.578014</dc:date>
    <dc:format>image/svg+xml</dc:format>
    <dc:creator>
     <cc:Agent>
      <dc:title>Matplotlib v3.8.3, https://matplotlib.org/</dc:title>
     </cc:Agent>
    </dc:creator>
   </cc:Work>
  </rdf:RDF>
 </metadata>
 <defs>
  <style type="text/css">*{stroke-linejoin: round; stroke-linecap: butt}</style>
 </defs>
 <g id="figure_1">
  <g id="patch_1">
   <path d="M 0 129.6 
L 540 129.6 
L 540 0 
L 0 0 
z
" style="fill: #ffffff"/>
  </g>
  <g id="axes_1">
   <g id="patch_2">
    <path d="M 27.56 97 
L 540 97 
L 540 0 
L 27.56 0 
z
" style="fill: #ffffff"/>
   </g>
   <g id="matplotlib.axis_1">
    <g id="xtick_1">
     <g id="line2d_1">
      <path d="M 27.56 97 
L 27.56 0 
" clip-path="url(#pcc79e93ddc)" style="fill: none; stroke: #b0b0b0; stroke-width: 0.8; stroke-linecap: square"/>
     </g>
     <g id="line2d_2">
      <defs>
       <path id="m36eb4dfa17" d="M 0 0 
L 0 3.5 
" style="stroke: #000000; stroke-width: 0.8"/>
      </defs>
      <g>
       <use xlink:href="#m36eb4dfa17" x="27.56" y="97" style="stroke: #000000; stroke-width: 0.8"/>
      </g>
     </g>
     <g id="text_1">
      <text style="font: 10px 'Times New Roman'; text-anchor: middle" x="27.56" y="110.94375" transform="rotate(-0 27.56 110.94375)">0</text>
     </g>
    </g>
    <g id="xtick_2">
     <g id="line2d_3">
      <path d="M 88.717656 97 
L 88.717656 0 
" clip-path="url(#pcc79e93ddc)" style="fill: none; stroke: #b0b0b0; stroke-width: 0.8; stroke-linecap: square"/>
     </g>
     <g id="line2d_4">
      <g>
       <use xlink:href="#m36eb4dfa17" x="88.717656" y="97" style="stroke: #000000; stroke-width: 0.8"/>
      </g>
     </g>
     <g id="text_2">
      <text style="font: 10px 'Times New Roman'; text-anchor: middle" x="88.717656" y="110.94375" transform="rotate(-0 88.717656 110.94375)">50</text>
     </g>
    </g>
    <g id="xtick_3">
     <g id="line2d_5">
      <path d="M 149.875312 97 
L 149.875312 0 
" clip-path="url(#pcc79e93ddc)" style="fill: none; stroke: #b0b0b0; stroke-width: 0.8; stroke-linecap: square"/>
     </g>
     <g id="line2d_6">
      <g>
       <use xlink:href="#m36eb4dfa17" x="149.875312" y="97" style="stroke: #000000; stroke-width: 0.8"/>
      </g>
     </g>
     <g id="text_3">
      <text style="font: 10px 'Times New Roman'; text-anchor: middle" x="149.875312" y="110.94375" transform="rotate(-0 149.875312 110.94375)">100</text>
     </g>
    </g>
    <g id="xtick_4">
     <g id="line2d_7">
      <path d="M 211.032968 97 
L 211.032968 0 
" clip-path="url(#pcc79e93ddc)" style="fill: none; stroke: #b0b0b0; stroke-width: 0.8; stroke-linecap: square"/>
     </g>
     <g id="line2d_8">
      <g>
       <use xlink:href="#m36eb4dfa17" x="211.032968" y="97" style="stroke: #000000; stroke-width: 0.8"/>
      </g>
     </g>
     <g id="text_4">
      <text style="font: 10px 'Times New Roman'; text-anchor: middle" x="211.032968" y="110.94375" transform="rotate(-0 211.032968 110.94375)">150</text>
     </g>
    </g>
    <g id="xtick_5">
     <g id="line2d_9">
      <path d="M 272.190624 97 
L 272.190624 0 
" clip-path="url(#pcc79e93ddc)" style="fill: none; stroke: #b0b0b0; stroke-width: 0.8; stroke-linecap: square"/>
     </g>
     <g id="line2d_10">
      <g>
       <use xlink:href="#m36eb4dfa17" x="272.190624" y="97" style="stroke: #000000; stroke-width: 0.8"/>
      </g>
     </g>
     <g id="text_5">
      <text style="font: 10px 'Times New Roman'; text-anchor: middle" x="272.190624" y="110.94375" transform="rotate(-0 272.190624 110.94375)">200</text>
     </g>
    </g>
    <g id="xtick_6">
     <g id="line2d_11">
      <path d="M 333.34828 97 
L 333.34828 0 
" clip-path="url(#pcc79e93ddc)" style="fill: none; stroke: #b0b0b0; stroke-width: 0.8; stroke-linecap: square"/>
     </g>
     <g id="line2d_12">
      <g>
       <use xlink:href="#m36eb4dfa17" x="333.34828" y="97" style="stroke: #000000; stroke-width: 0.8"/>
      </g>
     </g>
     <g id="text_6">
      <text style="font: 10px 'Times New Roman'; text-anchor: middle" x="333.34828" y="110.94375" transform="rotate(-0 333.34828 110.94375)">250</text>
     </g>
    </g>
    <g id="xtick_7">
     <g id="line2d_13">
      <path d="M 394.505936 97 
L 394.505936 0 
" clip-path="url(#pcc79e93ddc)" style="fill: none; stroke: #b0b0b0; stroke-width: 0.8; stroke-linecap: square"/>
     </g>
     <g id="line2d_14">
      <g>
       <use xlink:href="#m36eb4dfa17" x="394.505936" y="97" style="stroke: #000000; stroke-width: 0.8"/>
      </g>
     </g>
     <g id="text_7">
      <text style="font: 10px 'Times New Roman'; text-anchor: middle" x="394.505936" y="110.94375" transform="rotate(-0 394.505936 110.94375)">300</text>
     </g>
    </g>
    <g id="xtick_8">
     <g id="line2d_15">
      <path d="M 455.663592 97 
L 455.663592 0 
" clip-path="url(#pcc79e93ddc)" style="fill: none; stroke: #b0b0b0; stroke-width: 0.8; stroke-linecap: square"/>
     </g>
     <g id="line2d_16">
      <g>
       <use xlink:href="#m36eb4dfa17" x="455.663592" y="97" style="stroke: #000000; stroke-width: 0.8"/>
      </g>
     </g>
     <g id="text_8">
      <text style="font: 10px 'Times New Roman'; text-anchor: middle" x="455.663592" y="110.94375" transform="rotate(-0 455.663592 110.94375)">350</text>
     </g>
    </g>
    <g id="xtick_9">
     <g id="line2d_17">
      <path d="M 516.821248 97 
L 516.821248 0 
" clip-path="url(#pcc79e93ddc)" style="fill: none; stroke: #b0b0b0; stroke-width: 0.8; stroke-linecap: square"/>
     </g>
     <g id="line2d_18">
      <g>
       <use xlink:href="#m36eb4dfa17" x="516.821248" y="97" style="stroke: #000000; stroke-width: 0.8"/>
      </g>
     </g>
     <g id="text_9">
      <text style="font: 10px 'Times New Roman'; text-anchor: middle" x="516.821248" y="110.94375" transform="rotate(-0 516.821248 110.94375)">400</text>
     </g>
    </g>
    <g id="text_10">
     <text style="font: 12px 'Times New Roman'; text-anchor: middle" x="283.78" y="125.415312" transform="rotate(-0 283.78 125.415312)">Simulation Run</text>
    </g>
   </g>
   <g id="matplotlib.axis_2">
    <g id="ytick_1">
     <g id="line2d_19">
      <path d="M 27.56 97 
L 540 97 
" clip-path="url(#pcc79e93ddc)" style="fill: none; stroke: #b0b0b0; stroke-width: 0.8; stroke-linecap: square"/>
     </g>
     <g id="line2d_20">
      <defs>
       <path id="m6b4c7ecfe5" d="M 0 0 
L -3.5 0 
" style="stroke: #000000; stroke-width: 0.8"/>
      </defs>
      <g>
       <use xlink:href="#m6b4c7ecfe5" x="27.56" y="97" style="stroke: #000000; stroke-width: 0.8"/>
      </g>
     </g>
     <g id="text_11">
      <text style="font: 10px 'Times New Roman'; text-anchor: end" x="20.56" y="100.471875" transform="rotate(-0 20.56 100.471875)">0</text>
     </g>
    </g>
    <g id="ytick_2">
     <g id="line2d_21">
      <path d="M 27.56 62.357143 
L 540 62.357143 
" clip-path="url(#pcc79e93ddc)" style="fill: none; stroke: #b0b0b0; stroke-width: 0.8; stroke-linecap: square"/>
     </g>
     <g id="line2d_22">
      <g>
       <use xlink:href="#m6b4c7ecfe5" x="27.56" y="62.357143" style="stroke: #000000; stroke-width: 0.8"/>
      </g>
     </g>
     <g id="text_12">
      <text style="font: 10px 'Times New Roman'; text-anchor: end" x="20.56" y="65.829018" transform="rotate(-0 20.56 65.829018)">1</text>
     </g>
    </g>
    <g id="ytick_3">
     <g id="line2d_23">
      <path d="M 27.56 27.714286 
L 540 27.714286 
" clip-path="url(#pcc79e93ddc)" style="fill: none; stroke: #b0b0b0; stroke-width: 0.8; stroke-linecap: square"/>
     </g>
     <g id="line2d_24">
      <g>
       <use xlink:href="#m6b4c7ecfe5" x="27.56" y="27.714286" style="stroke: #000000; stroke-width: 0.8"/>
      </g>
     </g>
     <g id="text_13">
      <text style="font: 10px 'Times New Roman'; text-anchor: end" x="20.56" y="31.186161" transform="rotate(-0 20.56 31.186161)">2</text>
     </g>
    </g>
    <g id="text_14">
     <text style="font: 12px 'Times New Roman'; text-anchor: middle" x="8.993125" y="48.5" transform="rotate(-90 8.993125 48.5)">Normalized Value</text>
    </g>
   </g>
   <g id="line2d_25">
    <path d="M 27.56 31.269772 
L 28.783153 44.442326 
L 31.229459 54.51852 
L 32.452612 53.899593 
L 33.675766 56.723754 
L 34.898919 57.08887 
L 36.122072 57.916705 
L 37.345225 59.526849 
L 38.568378 60.155047 
L 39.791531 61.104071 
L 41.014684 60.760367 
L 43.460991 60.712423 
L 44.684144 61.716256 
L 45.907297 62.332284 
L 48.353603 62.521766 
L 49.576756 62.656862 
L 50.799909 63.176253 
L 52.023062 64.079879 
L 53.246216 64.03026 
L 54.469369 64.548952 
L 56.915675 64.710434 
L 58.138828 65.004571 
L 60.585134 65.128724 
L 63.031441 64.263517 
L 64.254594 64.041228 
L 65.477747 63.970386 
L 66.7009 64.110729 
L 69.147206 63.804031 
L 71.593512 63.707093 
L 72.816665 63.468598 
L 74.039819 63.563652 
L 75.262972 63.339591 
L 76.486125 63.39877 
L 77.709278 63.042723 
L 78.932431 62.852904 
L 81.378737 62.917493 
L 82.60189 63.152206 
L 83.825044 63.23786 
L 85.048197 63.113726 
L 87.494503 63.238541 
L 88.717656 63.046238 
L 89.940809 62.986918 
L 91.163962 62.716393 
L 92.387115 62.939972 
L 93.610269 62.621562 
L 94.833422 62.673396 
L 97.279728 63.012387 
L 98.502881 62.97156 
L 104.618647 63.590036 
L 105.8418 63.344275 
L 107.064953 63.407717 
L 109.511259 62.957667 
L 110.734412 62.899506 
L 119.296484 63.398661 
L 120.519637 63.350805 
L 122.965943 63.507782 
L 124.189097 63.349387 
L 125.41225 63.441932 
L 127.858556 63.211107 
L 132.751168 63.053388 
L 133.974322 63.080375 
L 135.197475 63.225133 
L 140.090087 63.193345 
L 143.759546 63.219561 
L 147.429006 63.205694 
L 153.544771 63.244902 
L 154.767925 63.15004 
L 155.991078 63.19033 
L 157.214231 63.083616 
L 159.660537 63.216513 
L 160.88369 63.400657 
L 163.329996 63.401424 
L 165.776303 63.441674 
L 171.892068 63.349927 
L 175.561528 63.421275 
L 178.007834 63.326545 
L 179.230987 63.351537 
L 180.45414 63.167843 
L 185.346753 63.191086 
L 189.016212 63.325819 
L 208.586662 63.200879 
L 211.032968 63.348271 
L 213.479274 63.172957 
L 220.818193 63.312912 
L 223.264499 63.346095 
L 226.933959 63.326463 
L 229.380265 63.366695 
L 234.272877 63.393076 
L 236.719184 63.245976 
L 239.16549 63.227267 
L 252.620174 63.438937 
L 273.413777 63.455527 
L 275.860084 63.583421 
L 285.645309 63.450255 
L 286.868462 63.508353 
L 289.314768 63.403882 
L 292.984227 63.458979 
L 295.430533 63.397694 
L 299.099993 63.428673 
L 301.546299 63.445124 
L 303.992605 63.360664 
L 307.662065 63.407329 
L 312.554677 63.274779 
L 313.77783 63.177638 
L 316.224137 63.171316 
L 318.670443 63.198355 
L 321.116749 63.121487 
L 323.563055 63.108468 
L 332.125127 63.044136 
L 334.571433 62.889946 
L 339.464046 62.872607 
L 345.579811 62.867161 
L 346.802965 62.751969 
L 370.042874 62.739179 
L 374.935486 62.625378 
L 382.274405 62.692008 
L 388.390171 62.670122 
L 400.621702 62.598664 
L 403.068008 62.557923 
L 406.737467 62.63232 
L 428.754224 62.566929 
L 434.869989 62.659981 
L 455.663592 62.681406 
L 459.333052 62.591795 
L 463.002511 62.504357 
L 475.234042 62.249174 
L 481.349808 62.274922 
L 492.358186 62.28906 
L 497.250798 62.282883 
L 515.598095 62.357143 
L 515.598095 62.357143 
" clip-path="url(#pcc79e93ddc)" style="fill: none; stroke: #4169e1; stroke-width: 1.5; stroke-linecap: square"/>
   </g>
   <g id="line2d_26">
    <path d="M 27.56 97 
L 28.783153 19.694324 
L 30.006306 21.759913 
L 31.229459 8.23528 
L 32.452612 25.305556 
L 33.675766 19.487382 
L 34.898919 30.204256 
L 36.122072 36.416466 
L 37.345225 33.907559 
L 38.568378 38.634441 
L 39.791531 39.927798 
L 42.237837 48.142363 
L 43.460991 51.627439 
L 44.684144 48.367038 
L 45.907297 48.870507 
L 47.13045 51.677152 
L 48.353603 54.065404 
L 49.576756 56.178757 
L 50.799909 55.936248 
L 52.023062 50.615902 
L 53.246216 52.701235 
L 54.469369 51.990248 
L 55.692522 53.858628 
L 56.915675 55.388556 
L 58.138828 56.025364 
L 60.585134 58.847941 
L 63.031441 56.7177 
L 64.254594 57.356698 
L 65.477747 58.526236 
L 66.7009 59.411301 
L 67.924053 60.051292 
L 69.147206 60.855872 
L 71.593512 62.723295 
L 72.816665 62.687686 
L 74.039819 63.414523 
L 75.262972 63.381854 
L 76.486125 64.139397 
L 77.709278 62.60615 
L 78.932431 62.731791 
L 81.378737 64.187667 
L 82.60189 63.796495 
L 83.825044 64.352596 
L 85.048197 64.71009 
L 86.27135 65.351984 
L 87.494503 65.781438 
L 88.717656 65.569785 
L 89.940809 66.094257 
L 91.163962 64.981911 
L 92.387115 64.394489 
L 93.610269 62.548171 
L 94.833422 63.097548 
L 96.056575 62.882093 
L 97.279728 62.830074 
L 98.502881 63.366152 
L 99.726034 63.618431 
L 100.949187 64.084401 
L 102.17234 63.724519 
L 103.395493 63.64685 
L 104.618647 63.723097 
L 105.8418 62.512876 
L 107.064953 62.918851 
L 108.288106 62.08342 
L 109.511259 60.930843 
L 110.734412 61.351103 
L 111.957565 61.635831 
L 113.180718 61.63015 
L 114.403872 61.483498 
L 116.850178 62.272995 
L 119.296484 63.134971 
L 120.519637 63.497232 
L 121.74279 63.319942 
L 122.965943 63.726292 
L 124.189097 63.259173 
L 125.41225 63.370465 
L 126.635403 62.978967 
L 127.858556 63.144498 
L 130.304862 63.830879 
L 131.528015 62.51834 
L 132.751168 62.398182 
L 133.974322 62.763154 
L 135.197475 62.326278 
L 137.643781 62.971249 
L 138.866934 62.766637 
L 140.090087 62.063065 
L 142.536393 62.641213 
L 144.9827 63.171937 
L 148.652159 64.160496 
L 149.875312 63.798276 
L 151.098465 64.118999 
L 152.321618 64.137888 
L 153.544771 64.400165 
L 154.767925 64.29368 
L 155.991078 64.52629 
L 157.214231 64.291981 
L 158.437384 64.55493 
L 159.660537 64.332514 
L 160.88369 62.982804 
L 163.329996 63.476536 
L 164.55315 63.527853 
L 168.222609 64.234626 
L 170.668915 64.607595 
L 174.338375 65.332761 
L 175.561528 65.364883 
L 176.784681 65.100318 
L 179.230987 65.575633 
L 180.45414 63.945842 
L 181.677293 64.189505 
L 182.900446 63.971157 
L 184.123599 63.639529 
L 185.346753 63.842609 
L 187.793059 63.968588 
L 190.239365 64.428213 
L 192.685671 64.553005 
L 193.908824 64.167297 
L 201.247743 65.225158 
L 202.470896 64.027609 
L 208.586662 64.992851 
L 209.809815 64.725991 
L 211.032968 64.680043 
L 212.256121 64.108151 
L 213.479274 64.016181 
L 215.925581 64.346597 
L 219.59504 64.878584 
L 220.818193 64.690007 
L 222.041346 64.819657 
L 223.264499 64.717174 
L 228.157112 65.251784 
L 229.380265 65.027839 
L 230.603418 65.178637 
L 233.049724 65.279124 
L 234.272877 65.465368 
L 235.496031 64.804472 
L 237.942337 64.934777 
L 241.611796 65.304335 
L 242.834949 65.411628 
L 244.058102 65.252557 
L 247.727562 65.728706 
L 250.173868 65.819311 
L 251.397021 65.555927 
L 253.843327 65.851018 
L 256.289634 65.81719 
L 257.512787 65.842794 
L 259.959093 66.168072 
L 261.182246 66.101755 
L 270.967471 67.156482 
L 272.190624 67.062476 
L 273.413777 67.134055 
L 274.63693 66.783552 
L 275.860084 66.672468 
L 284.422155 67.284009 
L 285.645309 67.390044 
L 286.868462 67.210246 
L 288.091615 66.829953 
L 292.984227 66.998818 
L 294.20738 66.518988 
L 299.099993 66.935277 
L 300.323146 66.865909 
L 301.546299 66.916967 
L 302.769452 66.168361 
L 303.992605 66.295426 
L 307.662065 66.326067 
L 308.885218 66.450872 
L 310.108371 66.249305 
L 311.331524 66.184587 
L 312.554677 66.260417 
L 313.77783 65.407451 
L 316.224137 65.03155 
L 318.670443 65.202116 
L 319.893596 64.834158 
L 321.116749 64.960238 
L 322.339902 64.952673 
L 323.563055 64.82439 
L 324.786208 64.956123 
L 326.009361 64.792042 
L 329.678821 65.036789 
L 332.125127 65.284269 
L 333.34828 64.218264 
L 334.571433 64.06063 
L 337.01774 64.232547 
L 340.687199 64.576391 
L 341.910352 64.300738 
L 343.133505 63.740887 
L 345.579811 63.988067 
L 346.802965 62.57108 
L 351.695577 62.999087 
L 355.365036 63.258426 
L 356.58819 63.30793 
L 360.257649 62.926791 
L 363.927108 63.194308 
L 366.373414 63.151034 
L 367.596568 63.260982 
L 368.819721 63.116232 
L 370.042874 63.19658 
L 371.266027 63.020984 
L 381.051252 63.294517 
L 383.497558 63.446794 
L 384.720711 63.437243 
L 387.167018 63.662485 
L 388.390171 63.61147 
L 389.613324 63.723846 
L 390.836477 63.592833 
L 393.282783 63.710515 
L 395.729089 63.771681 
L 396.952243 62.370306 
L 400.621702 62.680536 
L 401.844855 62.421812 
L 403.068008 62.516333 
L 404.291161 62.233074 
L 409.183774 62.528327 
L 412.853233 62.727775 
L 414.076386 62.312887 
L 416.522692 62.376336 
L 423.861611 62.666257 
L 428.754224 63.022653 
L 429.977377 62.894504 
L 432.423683 63.096117 
L 434.869989 63.025598 
L 440.985755 63.411511 
L 443.432061 63.532622 
L 445.878367 63.508905 
L 449.547827 63.673623 
L 454.440439 63.534417 
L 455.663592 63.335427 
L 456.886745 62.866148 
L 461.779358 63.091085 
L 463.002511 62.490939 
L 466.67197 62.285313 
L 467.895124 61.695121 
L 469.118277 61.745542 
L 471.564583 61.057598 
L 472.787736 61.154073 
L 474.010889 61.041582 
L 475.234042 61.131791 
L 476.457195 61.107156 
L 478.903502 61.271642 
L 480.126655 61.201047 
L 492.358186 61.79682 
L 494.804492 61.847261 
L 498.473952 62.109522 
L 499.697105 61.977962 
L 502.143411 62.112668 
L 503.366564 61.878506 
L 509.48233 62.209462 
L 510.705483 62.086033 
L 515.598095 62.357143 
L 515.598095 62.357143 
" clip-path="url(#pcc79e93ddc)" style="fill: none; stroke-dasharray: 5.55,2.4; stroke-dashoffset: 0; stroke: #4169e1; stroke-width: 1.5"/>
   </g>
   <g id="line2d_27">
    <path d="M 27.56 34.678375 
L 28.783153 47.116545 
L 30.006306 51.029881 
L 31.229459 55.449562 
L 32.452612 55.440369 
L 33.675766 57.824038 
L 34.898919 57.982726 
L 36.122072 59.003356 
L 37.345225 60.38057 
L 38.568378 61.002711 
L 39.791531 61.864743 
L 41.014684 61.42587 
L 42.237837 61.406466 
L 43.460991 61.528685 
L 45.907297 62.94895 
L 49.576756 63.405325 
L 50.799909 63.928214 
L 52.023062 64.784972 
L 53.246216 64.674824 
L 54.469369 65.278852 
L 56.915675 65.336705 
L 58.138828 65.513718 
L 60.585134 65.509055 
L 63.031441 64.751109 
L 65.477747 64.395803 
L 66.7009 64.468752 
L 69.147206 64.255422 
L 71.593512 64.22424 
L 72.816665 64.027471 
L 74.039819 64.061372 
L 75.262972 63.788122 
L 76.486125 63.807526 
L 77.709278 63.437825 
L 78.932431 63.246547 
L 81.378737 63.235239 
L 82.60189 63.486516 
L 83.825044 63.537446 
L 86.27135 63.413474 
L 87.494503 63.477139 
L 88.717656 63.258961 
L 89.940809 63.163176 
L 91.163962 62.883109 
L 92.387115 63.071089 
L 93.610269 62.756042 
L 96.056575 62.931864 
L 97.279728 63.079879 
L 98.502881 63.013891 
L 104.618647 63.663638 
L 105.8418 63.440943 
L 107.064953 63.495637 
L 109.511259 63.145199 
L 110.734412 63.087785 
L 119.296484 63.458332 
L 120.519637 63.397823 
L 122.965943 63.55668 
L 124.189097 63.422949 
L 125.41225 63.499394 
L 127.858556 63.222193 
L 130.304862 63.150912 
L 131.528015 62.920934 
L 135.197475 63.171647 
L 140.090087 63.144499 
L 146.205853 63.176405 
L 148.652159 63.186775 
L 149.875312 63.299716 
L 152.321618 63.196243 
L 158.437384 63.032918 
L 162.106843 63.273696 
L 166.999456 63.301986 
L 171.892068 63.228754 
L 175.561528 63.348053 
L 178.007834 63.248165 
L 179.230987 63.272223 
L 180.45414 63.111603 
L 182.900446 63.00895 
L 185.346753 63.163122 
L 189.016212 63.308818 
L 200.02459 63.257326 
L 201.247743 63.277382 
L 202.470896 63.125048 
L 211.032968 63.316127 
L 213.479274 63.161314 
L 220.818193 63.27135 
L 223.264499 63.315019 
L 225.710806 63.309924 
L 230.603418 63.320953 
L 233.049724 63.327795 
L 235.496031 63.223142 
L 239.16549 63.191731 
L 248.950715 63.404884 
L 253.843327 63.416084 
L 257.512787 63.463851 
L 266.074859 63.429309 
L 270.967471 63.403881 
L 275.860084 63.543834 
L 285.645309 63.404503 
L 286.868462 63.455873 
L 289.314768 63.343928 
L 292.984227 63.401149 
L 295.430533 63.348715 
L 299.099993 63.37641 
L 301.546299 63.382726 
L 303.992605 63.307629 
L 307.662065 63.358219 
L 312.554677 63.245518 
L 313.77783 63.153539 
L 316.224137 63.158727 
L 318.670443 63.184122 
L 321.116749 63.111728 
L 324.786208 63.099433 
L 328.455668 63.061766 
L 340.687199 62.857794 
L 341.910352 62.91031 
L 344.356658 62.847266 
L 351.695577 62.70388 
L 357.811343 62.696018 
L 361.480802 62.69453 
L 370.042874 62.70601 
L 374.935486 62.602253 
L 382.274405 62.665571 
L 388.390171 62.640622 
L 400.621702 62.550834 
L 403.068008 62.513671 
L 406.737467 62.5736 
L 429.977377 62.54948 
L 438.539449 62.633023 
L 447.10152 62.669903 
L 470.34143 62.266232 
L 472.787736 62.215038 
L 478.903502 62.295574 
L 482.572961 62.284546 
L 498.473952 62.293873 
L 502.143411 62.228026 
L 505.81287 62.277225 
L 511.928636 62.333724 
L 515.598095 62.357143 
L 515.598095 62.357143 
" clip-path="url(#pcc79e93ddc)" style="fill: none; stroke: #ff8c00; stroke-width: 1.5; stroke-linecap: square"/>
   </g>
   <g id="line2d_28">
    <path d="M 27.56 97 
L 28.783153 20.420431 
L 30.006306 30.786076 
L 31.229459 18.332542 
L 32.452612 34.065866 
L 33.675766 30.492405 
L 34.898919 39.918701 
L 36.122072 43.444468 
L 37.345225 41.88417 
L 38.568378 45.671422 
L 39.791531 46.659361 
L 41.014684 49.80567 
L 42.237837 53.433766 
L 43.460991 56.44952 
L 44.684144 55.094753 
L 45.907297 54.528133 
L 48.353603 59.035146 
L 49.576756 60.525225 
L 50.799909 59.777542 
L 52.023062 54.283196 
L 53.246216 56.098753 
L 54.469369 53.903901 
L 55.692522 55.697364 
L 56.915675 57.288262 
L 58.138828 58.427889 
L 60.585134 61.182705 
L 61.808287 60.457487 
L 63.031441 59.58235 
L 64.254594 60.027561 
L 71.593512 65.343932 
L 72.816665 65.467877 
L 74.039819 66.254776 
L 75.262972 65.582007 
L 76.486125 66.340845 
L 77.709278 64.296959 
L 78.932431 64.296858 
L 81.378737 65.653993 
L 82.60189 64.928993 
L 83.825044 65.552295 
L 85.048197 65.90737 
L 87.494503 67.050249 
L 88.717656 66.459373 
L 89.940809 66.81508 
L 91.163962 65.36565 
L 92.387115 65.024428 
L 93.610269 62.952761 
L 94.833422 63.507539 
L 96.056575 63.614966 
L 97.279728 63.57243 
L 98.502881 64.013983 
L 99.726034 64.165936 
L 100.949187 64.56542 
L 102.17234 64.233439 
L 103.395493 64.234556 
L 104.618647 63.883569 
L 105.8418 62.821971 
L 107.064953 63.243572 
L 108.288106 62.604041 
L 109.511259 62.224799 
L 111.957565 62.976337 
L 113.180718 63.116348 
L 114.403872 63.039528 
L 120.519637 65.015209 
L 121.74279 64.772006 
L 122.965943 65.149817 
L 124.189097 64.848603 
L 125.41225 65.014119 
L 126.635403 64.239506 
L 127.858556 64.171542 
L 130.304862 64.832749 
L 131.528015 62.981475 
L 132.751168 63.036404 
L 133.974322 63.372501 
L 135.197475 63.038497 
L 137.643781 63.661316 
L 138.866934 63.503073 
L 140.090087 62.808176 
L 142.536393 63.376559 
L 144.9827 63.936982 
L 148.652159 64.752194 
L 149.875312 64.440086 
L 151.098465 64.759301 
L 152.321618 64.531707 
L 153.544771 64.701281 
L 154.767925 64.489672 
L 155.991078 64.613678 
L 157.214231 64.451282 
L 158.437384 64.719945 
L 159.660537 64.427806 
L 160.88369 63.169435 
L 163.329996 63.670498 
L 164.55315 63.658081 
L 173.115221 65.114267 
L 174.338375 65.376725 
L 175.561528 65.188924 
L 176.784681 64.832378 
L 179.230987 65.311469 
L 180.45414 63.96668 
L 181.677293 64.159673 
L 182.900446 64.109522 
L 184.123599 63.447729 
L 185.346753 63.632508 
L 187.793059 63.596926 
L 190.239365 64.057619 
L 192.685671 64.27299 
L 193.908824 63.85087 
L 201.247743 64.980274 
L 202.470896 63.560042 
L 206.140356 64.139995 
L 208.586662 64.561806 
L 209.809815 64.390701 
L 211.032968 64.376988 
L 212.256121 63.81819 
L 213.479274 63.823007 
L 217.148734 64.351757 
L 219.59504 64.720343 
L 220.818193 64.526078 
L 222.041346 64.701576 
L 223.264499 64.594296 
L 226.933959 64.97541 
L 228.157112 64.958186 
L 229.380265 64.733277 
L 230.603418 64.916506 
L 233.049724 65.090968 
L 234.272877 65.277975 
L 235.496031 64.591852 
L 236.719184 64.645059 
L 239.16549 64.94279 
L 242.834949 65.116774 
L 244.058102 64.957119 
L 247.727562 65.454578 
L 248.950715 65.369167 
L 250.173868 65.501833 
L 251.397021 65.306243 
L 255.06648 65.541113 
L 257.512787 65.491276 
L 259.959093 65.817337 
L 261.182246 65.707927 
L 270.967471 66.78767 
L 272.190624 66.706055 
L 273.413777 66.767073 
L 274.63693 66.302811 
L 277.083237 66.324269 
L 280.752696 66.486281 
L 285.645309 66.93222 
L 286.868462 66.796465 
L 288.091615 66.43339 
L 290.537921 66.383495 
L 292.984227 66.567198 
L 294.20738 66.153101 
L 299.099993 66.560441 
L 301.546299 66.412671 
L 302.769452 65.822069 
L 303.992605 65.955861 
L 307.662065 65.92326 
L 308.885218 66.054854 
L 310.108371 65.827297 
L 312.554677 65.933783 
L 313.77783 65.086046 
L 316.224137 64.793196 
L 318.670443 64.963311 
L 319.893596 64.581903 
L 322.339902 64.738374 
L 323.563055 64.673114 
L 324.786208 64.805322 
L 326.009361 64.68059 
L 330.901974 64.929393 
L 332.125127 65.052593 
L 333.34828 63.832796 
L 334.571433 63.714114 
L 337.01774 63.899787 
L 340.687199 64.266108 
L 341.910352 64.042147 
L 343.133505 63.615816 
L 345.579811 63.865834 
L 346.802965 62.399104 
L 350.472424 62.774991 
L 352.91873 62.905178 
L 355.365036 63.067654 
L 356.58819 63.141647 
L 360.257649 62.889935 
L 363.927108 63.174461 
L 366.373414 63.163046 
L 367.596568 63.273039 
L 368.819721 63.148382 
L 370.042874 63.236223 
L 371.266027 63.106977 
L 377.381793 63.162298 
L 382.274405 63.397191 
L 395.729089 63.821354 
L 396.952243 62.198784 
L 400.621702 62.511621 
L 401.844855 62.248088 
L 403.068008 62.336593 
L 404.291161 62.102716 
L 409.183774 62.382068 
L 412.853233 62.594438 
L 414.076386 62.266275 
L 415.299539 62.340834 
L 416.522692 62.270949 
L 423.861611 62.599785 
L 428.754224 62.89435 
L 429.977377 62.776423 
L 432.423683 62.981245 
L 434.869989 62.942054 
L 443.432061 63.48318 
L 445.878367 63.40825 
L 449.547827 63.553576 
L 450.77098 63.424137 
L 454.440439 63.424269 
L 455.663592 63.228113 
L 456.886745 62.8732 
L 459.333052 62.950258 
L 461.779358 63.027885 
L 463.002511 62.467266 
L 466.67197 62.37127 
L 467.895124 61.834867 
L 469.118277 61.886745 
L 470.34143 61.698329 
L 471.564583 61.338779 
L 472.787736 61.436369 
L 474.010889 61.274345 
L 477.680348 61.458623 
L 478.903502 61.51525 
L 480.126655 61.439684 
L 485.019267 61.745796 
L 487.465573 61.76326 
L 492.358186 62.059099 
L 497.250798 62.238659 
L 498.473952 62.324836 
L 499.697105 62.103445 
L 502.143411 62.220009 
L 503.366564 61.896093 
L 509.48233 62.210873 
L 510.705483 62.101704 
L 515.598095 62.357143 
L 515.598095 62.357143 
" clip-path="url(#pcc79e93ddc)" style="fill: none; stroke-dasharray: 5.55,2.4; stroke-dashoffset: 0; stroke: #ff8c00; stroke-width: 1.5"/>
   </g>
   <g id="patch_3">
    <path d="M 27.56 97 
L 27.56 0 
" style="fill: none; stroke: #000000; stroke-width: 0.8; stroke-linejoin: miter; stroke-linecap: square"/>
   </g>
   <g id="patch_4">
    <path d="M 540 97 
L 540 0 
" style="fill: none; stroke: #000000; stroke-width: 0.8; stroke-linejoin: miter; stroke-linecap: square"/>
   </g>
   <g id="patch_5">
    <path d="M 27.56 97 
L 540 97 
" style="fill: none; stroke: #000000; stroke-width: 0.8; stroke-linejoin: miter; stroke-linecap: square"/>
   </g>
   <g id="patch_6">
    <path d="M 27.56 0 
L 540 0 
" style="fill: none; stroke: #000000; stroke-width: 0.8; stroke-linejoin: miter; stroke-linecap: square"/>
   </g>
  </g>
 </g>
 <defs>
  <clipPath id="pcc79e93ddc">
   <rect x="27.56" y="0" width="512.44" height="97"/>
  </clipPath>
 </defs>
</svg>
