<?xml version="1.0" encoding="utf-8" standalone="no"?>
<!DOCTYPE svg PUBLIC "-//W3C//DTD SVG 1.1//EN"
  "http://www.w3.org/Graphics/SVG/1.1/DTD/svg11.dtd">
<svg xmlns:xlink="http://www.w3.org/1999/xlink" width="540pt" height="129.6pt" viewBox="0 0 540 129.6" xmlns="http://www.w3.org/2000/svg" version="1.1">
 <metadata>
  <rdf:RDF xmlns:dc="http://purl.org/dc/elements/1.1/" xmlns:cc="http://creativecommons.org/ns#" xmlns:rdf="http://www.w3.org/1999/02/22-rdf-syntax-ns#">
   <cc:Work>
    <dc:type rdf:resource="http://purl.org/dc/dcmitype/StillImage"/>
    <dc:date>2025-03-29T05:45:24.507935</dc:date>
    <dc:format>image/svg+xml</dc:format>
    <dc:creator>
     <cc:Agent>
      <dc:title>Matplotlib v3.8.3, https://matplotlib.org/</dc:title>
     </cc:Agent>
    </dc:creator>
   </cc:Work>
  </rdf:RDF>
 </metadata>
 <defs>
  <style type="text/css">*{stroke-linejoin: round; stroke-linecap: butt}</style>
 </defs>
 <g id="figure_1">
  <g id="patch_1">
   <path d="M 0 129.6 
L 540 129.6 
L 540 0 
L 0 0 
z
" style="fill: #ffffff"/>
  </g>
  <g id="axes_1">
   <g id="patch_2">
    <path d="M 35.12 97 
L 540 97 
L 540 0 
L 35.12 0 
z
" style="fill: #ffffff"/>
   </g>
   <g id="matplotlib.axis_1">
    <g id="xtick_1">
     <g id="line2d_1">
      <path d="M 35.12 97 
L 35.12 0 
" clip-path="url(#p03c9442bf3)" style="fill: none; stroke: #b0b0b0; stroke-width: 0.8; stroke-linecap: square"/>
     </g>
     <g id="line2d_2">
      <defs>
       <path id="m324941b862" d="M 0 0 
L 0 3.5 
" style="stroke: #000000; stroke-width: 0.8"/>
      </defs>
      <g>
       <use xlink:href="#m324941b862" x="35.12" y="97" style="stroke: #000000; stroke-width: 0.8"/>
      </g>
     </g>
     <g id="text_1">
      <text style="font: 10px 'Times New Roman'; text-anchor: middle" x="35.12" y="110.94375" transform="rotate(-0 35.12 110.94375)">0</text>
     </g>
    </g>
    <g id="xtick_2">
     <g id="line2d_3">
      <path d="M 95.3754 97 
L 95.3754 0 
" clip-path="url(#p03c9442bf3)" style="fill: none; stroke: #b0b0b0; stroke-width: 0.8; stroke-linecap: square"/>
     </g>
     <g id="line2d_4">
      <g>
       <use xlink:href="#m324941b862" x="95.3754" y="97" style="stroke: #000000; stroke-width: 0.8"/>
      </g>
     </g>
     <g id="text_2">
      <text style="font: 10px 'Times New Roman'; text-anchor: middle" x="95.3754" y="110.94375" transform="rotate(-0 95.3754 110.94375)">50</text>
     </g>
    </g>
    <g id="xtick_3">
     <g id="line2d_5">
      <path d="M 155.630801 97 
L 155.630801 0 
" clip-path="url(#p03c9442bf3)" style="fill: none; stroke: #b0b0b0; stroke-width: 0.8; stroke-linecap: square"/>
     </g>
     <g id="line2d_6">
      <g>
       <use xlink:href="#m324941b862" x="155.630801" y="97" style="stroke: #000000; stroke-width: 0.8"/>
      </g>
     </g>
     <g id="text_3">
      <text style="font: 10px 'Times New Roman'; text-anchor: middle" x="155.630801" y="110.94375" transform="rotate(-0 155.630801 110.94375)">100</text>
     </g>
    </g>
    <g id="xtick_4">
     <g id="line2d_7">
      <path d="M 215.886201 97 
L 215.886201 0 
" clip-path="url(#p03c9442bf3)" style="fill: none; stroke: #b0b0b0; stroke-width: 0.8; stroke-linecap: square"/>
     </g>
     <g id="line2d_8">
      <g>
       <use xlink:href="#m324941b862" x="215.886201" y="97" style="stroke: #000000; stroke-width: 0.8"/>
      </g>
     </g>
     <g id="text_4">
      <text style="font: 10px 'Times New Roman'; text-anchor: middle" x="215.886201" y="110.94375" transform="rotate(-0 215.886201 110.94375)">150</text>
     </g>
    </g>
    <g id="xtick_5">
     <g id="line2d_9">
      <path d="M 276.141602 97 
L 276.141602 0 
" clip-path="url(#p03c9442bf3)" style="fill: none; stroke: #b0b0b0; stroke-width: 0.8; stroke-linecap: square"/>
     </g>
     <g id="line2d_10">
      <g>
       <use xlink:href="#m324941b862" x="276.141602" y="97" style="stroke: #000000; stroke-width: 0.8"/>
      </g>
     </g>
     <g id="text_5">
      <text style="font: 10px 'Times New Roman'; text-anchor: middle" x="276.141602" y="110.94375" transform="rotate(-0 276.141602 110.94375)">200</text>
     </g>
    </g>
    <g id="xtick_6">
     <g id="line2d_11">
      <path d="M 336.397002 97 
L 336.397002 0 
" clip-path="url(#p03c9442bf3)" style="fill: none; stroke: #b0b0b0; stroke-width: 0.8; stroke-linecap: square"/>
     </g>
     <g id="line2d_12">
      <g>
       <use xlink:href="#m324941b862" x="336.397002" y="97" style="stroke: #000000; stroke-width: 0.8"/>
      </g>
     </g>
     <g id="text_6">
      <text style="font: 10px 'Times New Roman'; text-anchor: middle" x="336.397002" y="110.94375" transform="rotate(-0 336.397002 110.94375)">250</text>
     </g>
    </g>
    <g id="xtick_7">
     <g id="line2d_13">
      <path d="M 396.652402 97 
L 396.652402 0 
" clip-path="url(#p03c9442bf3)" style="fill: none; stroke: #b0b0b0; stroke-width: 0.8; stroke-linecap: square"/>
     </g>
     <g id="line2d_14">
      <g>
       <use xlink:href="#m324941b862" x="396.652402" y="97" style="stroke: #000000; stroke-width: 0.8"/>
      </g>
     </g>
     <g id="text_7">
      <text style="font: 10px 'Times New Roman'; text-anchor: middle" x="396.652402" y="110.94375" transform="rotate(-0 396.652402 110.94375)">300</text>
     </g>
    </g>
    <g id="xtick_8">
     <g id="line2d_15">
      <path d="M 456.907803 97 
L 456.907803 0 
" clip-path="url(#p03c9442bf3)" style="fill: none; stroke: #b0b0b0; stroke-width: 0.8; stroke-linecap: square"/>
     </g>
     <g id="line2d_16">
      <g>
       <use xlink:href="#m324941b862" x="456.907803" y="97" style="stroke: #000000; stroke-width: 0.8"/>
      </g>
     </g>
     <g id="text_8">
      <text style="font: 10px 'Times New Roman'; text-anchor: middle" x="456.907803" y="110.94375" transform="rotate(-0 456.907803 110.94375)">350</text>
     </g>
    </g>
    <g id="xtick_9">
     <g id="line2d_17">
      <path d="M 517.163203 97 
L 517.163203 0 
" clip-path="url(#p03c9442bf3)" style="fill: none; stroke: #b0b0b0; stroke-width: 0.8; stroke-linecap: square"/>
     </g>
     <g id="line2d_18">
      <g>
       <use xlink:href="#m324941b862" x="517.163203" y="97" style="stroke: #000000; stroke-width: 0.8"/>
      </g>
     </g>
     <g id="text_9">
      <text style="font: 10px 'Times New Roman'; text-anchor: middle" x="517.163203" y="110.94375" transform="rotate(-0 517.163203 110.94375)">400</text>
     </g>
    </g>
    <g id="text_10">
     <text style="font: 12px 'Times New Roman'; text-anchor: middle" x="287.56" y="125.415312" transform="rotate(-0 287.56 125.415312)">Simulation Run</text>
    </g>
   </g>
   <g id="matplotlib.axis_2">
    <g id="ytick_1">
     <g id="line2d_19">
      <path d="M 35.12 97 
L 540 97 
" clip-path="url(#p03c9442bf3)" style="fill: none; stroke: #b0b0b0; stroke-width: 0.8; stroke-linecap: square"/>
     </g>
     <g id="line2d_20">
      <defs>
       <path id="mc488e8bec7" d="M 0 0 
L -3.5 0 
" style="stroke: #000000; stroke-width: 0.8"/>
      </defs>
      <g>
       <use xlink:href="#mc488e8bec7" x="35.12" y="97" style="stroke: #000000; stroke-width: 0.8"/>
      </g>
     </g>
     <g id="text_11">
      <text style="font: 10px 'Times New Roman'; text-anchor: end" x="28.12" y="100.471875" transform="rotate(-0 28.12 100.471875)">0.0</text>
     </g>
    </g>
    <g id="ytick_2">
     <g id="line2d_21">
      <path d="M 35.12 71.473684 
L 540 71.473684 
" clip-path="url(#p03c9442bf3)" style="fill: none; stroke: #b0b0b0; stroke-width: 0.8; stroke-linecap: square"/>
     </g>
     <g id="line2d_22">
      <g>
       <use xlink:href="#mc488e8bec7" x="35.12" y="71.473684" style="stroke: #000000; stroke-width: 0.8"/>
      </g>
     </g>
     <g id="text_12">
      <text style="font: 10px 'Times New Roman'; text-anchor: end" x="28.12" y="74.945559" transform="rotate(-0 28.12 74.945559)">0.5</text>
     </g>
    </g>
    <g id="ytick_3">
     <g id="line2d_23">
      <path d="M 35.12 45.947368 
L 540 45.947368 
" clip-path="url(#p03c9442bf3)" style="fill: none; stroke: #b0b0b0; stroke-width: 0.8; stroke-linecap: square"/>
     </g>
     <g id="line2d_24">
      <g>
       <use xlink:href="#mc488e8bec7" x="35.12" y="45.947368" style="stroke: #000000; stroke-width: 0.8"/>
      </g>
     </g>
     <g id="text_13">
      <text style="font: 10px 'Times New Roman'; text-anchor: end" x="28.12" y="49.419243" transform="rotate(-0 28.12 49.419243)">1.0</text>
     </g>
    </g>
    <g id="ytick_4">
     <g id="line2d_25">
      <path d="M 35.12 20.421053 
L 540 20.421053 
" clip-path="url(#p03c9442bf3)" style="fill: none; stroke: #b0b0b0; stroke-width: 0.8; stroke-linecap: square"/>
     </g>
     <g id="line2d_26">
      <g>
       <use xlink:href="#mc488e8bec7" x="35.12" y="20.421053" style="stroke: #000000; stroke-width: 0.8"/>
      </g>
     </g>
     <g id="text_14">
      <text style="font: 10px 'Times New Roman'; text-anchor: end" x="28.12" y="23.892928" transform="rotate(-0 28.12 23.892928)">1.5</text>
     </g>
    </g>
    <g id="text_15">
     <text style="font: 12px 'Times New Roman'; text-anchor: middle" x="9.053125" y="48.5" transform="rotate(-90 9.053125 48.5)">Normalized Value</text>
    </g>
   </g>
   <g id="line2d_27">
    <path d="M 35.12 59.538125 
L 36.325108 47.657854 
L 37.530216 42.684314 
L 38.735324 45.229733 
L 39.940432 45.290715 
L 41.14554 46.223691 
L 42.350648 43.542711 
L 43.555756 44.577869 
L 44.760864 45.407909 
L 45.965972 43.441437 
L 47.17108 41.907223 
L 48.376188 42.412665 
L 49.581296 41.673173 
L 50.786404 41.610062 
L 51.991512 42.871839 
L 53.19662 43.210478 
L 54.401728 43.124071 
L 55.606836 42.661107 
L 56.811944 42.629882 
L 58.017052 43.279631 
L 59.22216 40.351543 
L 60.427268 40.19663 
L 61.632376 39.609169 
L 62.837484 40.06777 
L 64.042592 40.889083 
L 65.2477 41.142187 
L 66.452808 39.863337 
L 67.657916 40.144712 
L 68.863024 40.241452 
L 71.27324 41.229091 
L 72.478348 41.422231 
L 73.683456 41.217913 
L 74.888564 41.231449 
L 76.093672 41.96919 
L 77.29878 42.173836 
L 79.708996 42.095383 
L 80.914104 42.282919 
L 82.119212 42.149415 
L 83.32432 42.478073 
L 85.734536 42.334295 
L 86.939644 42.619069 
L 88.144752 42.703558 
L 89.34986 42.565137 
L 90.554968 42.258995 
L 92.965184 42.605591 
L 94.170292 42.455814 
L 96.580508 43.303034 
L 97.785616 43.82089 
L 100.195832 44.168034 
L 101.40094 44.13936 
L 102.606048 44.2926 
L 103.811156 44.186812 
L 105.016264 44.641582 
L 109.836697 45.294741 
L 112.246913 45.061179 
L 113.452021 45.250636 
L 114.657129 45.248461 
L 115.862237 45.395409 
L 117.067345 45.658762 
L 118.272453 45.719408 
L 119.477561 45.374435 
L 120.682669 45.553748 
L 123.092885 45.40056 
L 124.297993 45.45465 
L 125.503101 45.085675 
L 130.323533 45.005039 
L 131.528641 44.76782 
L 133.938857 44.786981 
L 135.143965 44.539311 
L 138.759289 44.55108 
L 141.169505 44.766706 
L 142.374613 44.746473 
L 147.195045 45.485937 
L 148.400153 45.296094 
L 149.605261 45.314223 
L 152.015477 45.609882 
L 153.220585 45.594668 
L 156.835909 45.939181 
L 159.246125 45.875887 
L 160.451233 45.728274 
L 165.271665 46.153368 
L 167.681881 46.079204 
L 170.092097 46.306858 
L 171.297205 46.150109 
L 172.502313 45.855584 
L 174.912529 46.204251 
L 177.322745 46.290867 
L 178.527853 46.124751 
L 182.143177 46.176898 
L 184.553393 46.255844 
L 185.758501 46.404254 
L 195.399365 46.65655 
L 197.809581 46.782443 
L 200.219797 46.666504 
L 201.424905 46.730972 
L 207.450445 46.440321 
L 209.860661 46.582889 
L 211.065769 46.761426 
L 213.475985 46.771706 
L 218.296417 46.852035 
L 219.501525 46.735353 
L 221.911741 46.776625 
L 223.116849 46.663045 
L 236.373037 46.927091 
L 241.193469 47.13111 
L 244.808793 47.211202 
L 246.013901 47.063503 
L 248.424117 47.191686 
L 255.654765 47.056709 
L 258.064982 47.147707 
L 262.885414 47.310065 
L 265.29563 47.13905 
L 266.500738 47.163362 
L 268.910954 46.96201 
L 272.526278 47.103946 
L 277.34671 46.881553 
L 285.782466 47.208689 
L 289.39779 47.269917 
L 293.013114 47.521808 
L 296.628438 47.319337 
L 299.038654 47.324921 
L 301.44887 47.089717 
L 303.859086 47.173119 
L 308.679518 47.2862 
L 311.089734 47.277962 
L 315.910166 47.441966 
L 318.320382 47.310886 
L 320.730598 47.413239 
L 321.935706 47.240445 
L 323.140814 47.244872 
L 324.345922 47.090215 
L 325.55103 47.154234 
L 329.166354 46.975084 
L 332.781678 46.965284 
L 354.473622 46.765555 
L 356.883838 46.52674 
L 362.909378 46.548828 
L 364.114486 46.432453 
L 367.72981 46.484372 
L 391.83197 46.485484 
L 394.242186 46.458856 
L 396.652402 46.466676 
L 400.267726 46.405683 
L 402.677942 46.262138 
L 412.318807 46.323078 
L 415.934131 46.431692 
L 419.549455 46.515928 
L 430.395427 46.541627 
L 431.600535 46.386168 
L 436.420967 46.325674 
L 440.036291 46.331932 
L 465.343559 46.198241 
L 466.548667 46.250156 
L 467.753775 46.133467 
L 497.881475 46.097545 
L 500.291691 46.169442 
L 507.522339 46.06512 
L 511.137663 46.002881 
L 515.958095 45.947368 
L 515.958095 45.947368 
" clip-path="url(#p03c9442bf3)" style="fill: none; stroke: #4169e1; stroke-width: 1.5; stroke-linecap: square"/>
   </g>
   <g id="line2d_28">
    <path d="M 35.12 97 
L 36.325108 59.915313 
L 37.530216 59.278078 
L 38.735324 63.60137 
L 39.940432 70.277187 
L 41.14554 73.587446 
L 42.350648 65.600783 
L 44.760864 69.378316 
L 45.965972 62.995985 
L 47.17108 59.902629 
L 48.376188 62.255701 
L 49.581296 63.204131 
L 50.786404 65.604516 
L 51.991512 61.841089 
L 54.401728 65.520661 
L 55.606836 66.312129 
L 56.811944 67.922669 
L 58.017052 67.26894 
L 59.22216 23.629997 
L 60.427268 26.832581 
L 61.632376 27.888431 
L 62.837484 29.497095 
L 64.042592 27.943476 
L 65.2477 30.178692 
L 66.452808 21.480959 
L 67.657916 23.616404 
L 68.863024 26.078022 
L 70.068132 26.647349 
L 71.27324 26.927872 
L 74.888564 32.482472 
L 76.093672 29.46368 
L 77.29878 30.95455 
L 79.708996 34.387758 
L 82.119212 36.993357 
L 83.32432 37.321684 
L 85.734536 39.957984 
L 86.939644 40.338154 
L 88.144752 41.514778 
L 89.34986 42.494429 
L 90.554968 42.521344 
L 94.170292 44.773917 
L 95.3754 43.894957 
L 96.580508 41.99847 
L 97.785616 39.372166 
L 98.990724 40.085422 
L 100.195832 40.620234 
L 101.40094 41.615134 
L 102.606048 42.241278 
L 103.811156 43.017787 
L 105.016264 40.780976 
L 106.221372 41.282432 
L 107.42648 41.38307 
L 108.631588 42.256358 
L 109.836697 42.336952 
L 111.041805 43.109223 
L 112.246913 43.490169 
L 113.452021 43.687906 
L 114.657129 44.483527 
L 115.862237 44.875688 
L 117.067345 44.391958 
L 118.272453 45.076821 
L 119.477561 43.619312 
L 120.682669 43.760889 
L 121.887777 44.292942 
L 124.297993 45.592204 
L 125.503101 43.58577 
L 130.323533 46.211258 
L 131.528641 45.655426 
L 133.938857 46.885726 
L 135.143965 46.144596 
L 137.554181 47.256534 
L 138.759289 47.720283 
L 141.169505 48.29409 
L 142.374613 48.825694 
L 144.784829 48.28343 
L 145.989937 46.684974 
L 147.195045 47.077174 
L 148.400153 46.712537 
L 149.605261 47.228161 
L 150.810369 47.04996 
L 152.015477 47.128204 
L 153.220585 47.625999 
L 154.425693 47.568058 
L 155.630801 47.028015 
L 159.246125 48.405883 
L 160.451233 48.273265 
L 161.656341 48.395283 
L 162.861449 48.131986 
L 164.066557 48.152607 
L 165.271665 48.575186 
L 166.476773 48.816742 
L 167.681881 49.248419 
L 170.092097 49.337598 
L 171.297205 49.026184 
L 172.502313 46.845027 
L 174.912529 45.865428 
L 177.322745 46.608562 
L 178.527853 46.165684 
L 184.553393 47.884362 
L 185.758501 47.550772 
L 190.578933 48.959858 
L 192.989149 49.112174 
L 194.194257 48.961645 
L 195.399365 49.278106 
L 196.604473 49.315968 
L 197.809581 49.632034 
L 199.014689 49.587933 
L 200.219797 49.926748 
L 203.835121 50.559599 
L 205.040229 49.706943 
L 206.245337 49.701148 
L 208.655553 50.161756 
L 209.860661 50.220194 
L 211.065769 49.315626 
L 213.475985 49.725183 
L 215.886201 50.2221 
L 218.296417 50.578498 
L 219.501525 50.332618 
L 221.911741 50.806013 
L 223.116849 50.571471 
L 224.321957 50.817519 
L 225.527065 50.813143 
L 227.937281 51.321625 
L 229.142389 51.248189 
L 230.347497 50.930698 
L 232.757713 51.478888 
L 233.962821 51.573914 
L 238.783253 52.503475 
L 239.988361 52.117033 
L 241.193469 51.893464 
L 242.398577 51.988281 
L 243.603685 51.825056 
L 244.808793 51.813251 
L 246.013901 51.066918 
L 247.219009 50.90521 
L 252.039441 51.812981 
L 253.244549 51.735433 
L 255.654765 52.21431 
L 256.859873 51.995656 
L 259.27009 52.390361 
L 260.475198 52.487603 
L 261.680306 52.722785 
L 262.885414 52.71258 
L 264.090522 52.152541 
L 266.500738 52.486064 
L 267.705846 51.95977 
L 270.116062 51.836415 
L 271.32117 52.062762 
L 273.731386 52.068044 
L 276.141602 52.02673 
L 277.34671 52.23238 
L 278.551818 52.287473 
L 279.756926 51.478842 
L 280.962034 51.698128 
L 282.167142 51.723613 
L 283.37225 51.942087 
L 284.577358 51.926894 
L 288.192682 52.556273 
L 289.39779 52.476323 
L 291.808006 51.966431 
L 293.013114 51.903432 
L 294.218222 51.706784 
L 295.42333 51.79773 
L 296.628438 51.707864 
L 299.038654 52.043819 
L 300.243762 51.231141 
L 301.44887 50.825782 
L 302.653978 51.032063 
L 303.859086 50.864633 
L 305.064194 50.977628 
L 306.269302 50.755762 
L 311.089734 51.476641 
L 315.910166 51.808436 
L 317.115274 51.635315 
L 320.730598 51.691956 
L 321.935706 50.0144 
L 323.140814 50.208943 
L 324.345922 48.89478 
L 325.55103 48.834037 
L 326.756138 48.575975 
L 327.961246 47.59708 
L 332.781678 48.048563 
L 335.191894 48.388326 
L 336.397002 48.290418 
L 341.217434 48.571252 
L 342.422542 48.7471 
L 346.037866 48.886141 
L 347.242974 48.080269 
L 348.448082 48.261865 
L 349.65319 48.257434 
L 350.858298 48.438925 
L 352.063406 47.81495 
L 353.268514 47.800075 
L 354.473622 47.915482 
L 355.67873 46.283866 
L 356.883838 46.050148 
L 362.909378 46.904995 
L 364.114486 46.116358 
L 366.524702 46.314998 
L 368.934918 46.665018 
L 370.140026 46.578187 
L 372.550242 46.917075 
L 373.75535 46.830335 
L 374.960458 46.950022 
L 376.165566 46.801783 
L 378.575782 47.039745 
L 382.191106 47.478128 
L 383.396214 47.207537 
L 384.601322 47.37644 
L 385.80643 47.352921 
L 391.83197 47.966171 
L 393.037078 48.062507 
L 395.447294 47.988493 
L 396.652402 47.93758 
L 399.062618 48.238353 
L 400.267726 48.032765 
L 401.472834 47.097835 
L 405.088158 47.488812 
L 408.703483 47.942844 
L 412.318807 48.082782 
L 413.523915 48.228678 
L 414.729023 47.896144 
L 415.934131 48.013573 
L 418.344347 47.887576 
L 423.164779 48.324233 
L 429.190319 48.669368 
L 430.395427 47.987779 
L 431.600535 46.047174 
L 434.010751 46.197637 
L 438.831183 46.580239 
L 440.036291 46.534685 
L 444.856723 47.041845 
L 446.061831 47.020977 
L 447.266939 47.166608 
L 449.677155 47.152214 
L 455.702695 47.473324 
L 456.907803 46.610443 
L 459.318019 46.876623 
L 460.523127 46.390712 
L 462.933343 46.540604 
L 464.138451 46.680587 
L 466.548667 46.563209 
L 467.753775 45.418916 
L 470.163991 45.666161 
L 472.574207 45.841659 
L 474.984423 46.105725 
L 477.394639 46.200978 
L 483.420179 46.737937 
L 484.625287 46.546952 
L 485.830395 46.541767 
L 488.240611 46.788039 
L 489.445719 46.11732 
L 493.061043 46.446108 
L 494.266151 46.575864 
L 495.471259 46.16684 
L 497.881475 46.367123 
L 499.086583 46.17327 
L 502.701907 46.452201 
L 503.907015 45.834615 
L 506.317231 46.051806 
L 507.522339 46.026777 
L 509.932555 46.256923 
L 511.137663 45.69385 
L 512.342771 45.806602 
L 513.547879 45.717505 
L 515.958095 45.947368 
L 515.958095 45.947368 
" clip-path="url(#p03c9442bf3)" style="fill: none; stroke-dasharray: 5.55,2.4; stroke-dashoffset: 0; stroke: #4169e1; stroke-width: 1.5"/>
   </g>
   <g id="line2d_29">
    <path d="M 35.12 61.139889 
L 36.325108 49.884267 
L 37.530216 43.393135 
L 38.735324 45.674336 
L 39.940432 45.528279 
L 41.14554 46.159253 
L 42.350648 43.407474 
L 43.555756 44.73094 
L 44.760864 45.018489 
L 47.17108 42.099338 
L 48.376188 42.536039 
L 49.581296 41.858502 
L 50.786404 42.028705 
L 51.991512 43.307903 
L 53.19662 43.745669 
L 54.401728 43.632947 
L 55.606836 43.323054 
L 56.811944 43.316659 
L 58.017052 43.710518 
L 59.22216 40.588174 
L 60.427268 40.253362 
L 61.632376 39.64354 
L 62.837484 40.038369 
L 64.042592 40.874368 
L 65.2477 41.015787 
L 66.452808 39.738673 
L 67.657916 40.207015 
L 68.863024 40.298307 
L 71.27324 41.158014 
L 72.478348 41.321121 
L 73.683456 41.006994 
L 74.888564 41.127303 
L 76.093672 41.757834 
L 78.503888 42.034123 
L 79.708996 41.920444 
L 80.914104 42.117522 
L 82.119212 41.967586 
L 83.32432 42.263006 
L 85.734536 42.096296 
L 86.939644 42.418367 
L 88.144752 42.55854 
L 89.34986 42.458846 
L 90.554968 42.114672 
L 92.965184 42.370258 
L 94.170292 42.243281 
L 96.580508 43.078993 
L 97.785616 43.595819 
L 102.606048 43.945735 
L 103.811156 43.722333 
L 105.016264 44.155564 
L 107.42648 44.531286 
L 108.631588 44.568239 
L 109.836697 44.815153 
L 112.246913 44.564857 
L 113.452021 44.768929 
L 115.862237 44.999639 
L 117.067345 45.283632 
L 118.272453 45.370108 
L 119.477561 45.093765 
L 120.682669 45.297119 
L 123.092885 45.156329 
L 124.297993 45.23806 
L 125.503101 44.840741 
L 130.323533 44.787545 
L 131.528641 44.532429 
L 133.938857 44.555885 
L 135.143965 44.252335 
L 138.759289 44.400998 
L 141.169505 44.576554 
L 142.374613 44.522118 
L 147.195045 45.186341 
L 148.400153 44.963397 
L 150.810369 45.12478 
L 156.835909 45.605907 
L 161.656341 45.489744 
L 164.066557 45.779161 
L 165.271665 45.832287 
L 167.681881 45.757828 
L 170.092097 45.957014 
L 172.502313 45.577763 
L 174.912529 45.917738 
L 177.322745 45.9912 
L 178.527853 45.811367 
L 182.143177 45.861492 
L 184.553393 45.912269 
L 185.758501 46.057711 
L 190.578933 46.135682 
L 191.784041 46.227574 
L 192.989149 46.186447 
L 196.604473 46.432248 
L 197.809581 46.455335 
L 200.219797 46.321682 
L 201.424905 46.373701 
L 207.450445 46.11633 
L 209.860661 46.239078 
L 211.065769 46.432673 
L 213.475985 46.456998 
L 221.911741 46.458623 
L 223.116849 46.357777 
L 241.193469 46.821416 
L 244.808793 46.949038 
L 246.013901 46.794952 
L 248.424117 46.933742 
L 255.654765 46.852683 
L 256.859873 46.942381 
L 259.27009 46.941117 
L 262.885414 47.062603 
L 265.29563 46.889484 
L 266.500738 46.909576 
L 268.910954 46.717969 
L 272.526278 46.846101 
L 277.34671 46.676444 
L 284.577358 46.964677 
L 289.39779 47.052467 
L 293.013114 47.290775 
L 296.628438 47.085404 
L 299.038654 47.075305 
L 302.653978 46.892836 
L 306.269302 47.083295 
L 315.910166 47.19292 
L 318.320382 47.068749 
L 320.730598 47.165452 
L 321.935706 47.005579 
L 323.140814 47.01033 
L 324.345922 46.863194 
L 325.55103 46.917292 
L 327.961246 46.708103 
L 332.781678 46.734034 
L 371.345134 46.412433 
L 380.985998 46.326657 
L 388.216646 46.299019 
L 400.267726 46.288365 
L 402.677942 46.14814 
L 407.498375 46.146244 
L 412.318807 46.187069 
L 415.934131 46.290543 
L 421.959671 46.433079 
L 426.780103 46.471966 
L 430.395427 46.438432 
L 432.805643 46.257494 
L 440.036291 46.243336 
L 447.266939 46.207172 
L 452.087371 46.127384 
L 455.702695 46.170841 
L 458.112911 46.055917 
L 464.138451 46.127372 
L 466.548667 46.211183 
L 468.958883 46.109081 
L 478.599747 46.124771 
L 483.420179 46.090723 
L 485.830395 46.096486 
L 496.676367 46.081153 
L 505.112123 46.052214 
L 508.727447 46.072739 
L 512.342771 46.021773 
L 515.958095 45.947368 
L 515.958095 45.947368 
" clip-path="url(#p03c9442bf3)" style="fill: none; stroke: #ff8c00; stroke-width: 1.5; stroke-linecap: square"/>
   </g>
   <g id="line2d_30">
    <path d="M 35.12 97 
L 36.325108 60.127734 
L 37.530216 47.892209 
L 39.940432 63.875536 
L 41.14554 68.816914 
L 42.350648 59.619789 
L 43.555756 60.723825 
L 44.760864 64.561992 
L 45.965972 62.261146 
L 47.17108 59.179179 
L 48.376188 61.720361 
L 49.581296 62.830905 
L 50.786404 65.161947 
L 51.991512 60.616965 
L 53.19662 62.05427 
L 54.401728 64.050731 
L 55.606836 65.406093 
L 56.811944 67.068716 
L 58.017052 67.707462 
L 59.22216 12.354112 
L 60.427268 15.51651 
L 61.632376 16.678101 
L 62.837484 18.981313 
L 64.042592 17.220215 
L 65.2477 20.14315 
L 66.452808 10.64747 
L 67.657916 12.007829 
L 68.863024 14.870676 
L 70.068132 16.271584 
L 71.27324 17.014136 
L 72.478348 19.273663 
L 73.683456 20.709997 
L 74.888564 22.814804 
L 76.093672 21.000211 
L 79.708996 26.472685 
L 82.119212 29.325059 
L 83.32432 29.959651 
L 85.734536 32.89535 
L 86.939644 33.054106 
L 89.34986 35.458043 
L 90.554968 35.181546 
L 91.760076 36.044928 
L 92.965184 37.200781 
L 94.170292 38.16683 
L 95.3754 37.203176 
L 96.580508 35.289929 
L 97.785616 32.411739 
L 98.990724 33.47152 
L 100.195832 34.253933 
L 101.40094 35.3191 
L 102.606048 35.980277 
L 103.811156 36.20438 
L 105.016264 34.066501 
L 107.42648 34.915005 
L 108.631588 35.892132 
L 109.836697 35.761969 
L 111.041805 36.578885 
L 112.246913 37.013916 
L 113.452021 37.134945 
L 114.657129 37.910586 
L 115.862237 38.326781 
L 117.067345 37.580928 
L 118.272453 38.279596 
L 119.477561 37.550835 
L 120.682669 37.521993 
L 121.887777 38.139396 
L 124.297993 39.525037 
L 125.503101 36.835401 
L 130.323533 39.792678 
L 131.528641 38.983549 
L 133.938857 40.359775 
L 135.143965 38.808186 
L 137.554181 40.151699 
L 138.759289 40.34953 
L 142.374613 41.77067 
L 144.784829 41.652092 
L 145.989937 40.349228 
L 147.195045 40.775611 
L 148.400153 40.007628 
L 149.605261 40.558913 
L 152.015477 40.960448 
L 153.220585 41.450761 
L 154.425693 41.406036 
L 155.630801 41.079089 
L 158.041017 42.133625 
L 159.246125 42.523477 
L 161.656341 42.947339 
L 162.861449 42.596244 
L 164.066557 42.630227 
L 165.271665 43.040316 
L 166.476773 43.259121 
L 167.681881 43.732795 
L 170.092097 44.0347 
L 171.297205 43.88706 
L 172.502313 42.392766 
L 173.707421 41.702684 
L 174.912529 41.377305 
L 177.322745 42.215797 
L 178.527853 41.552261 
L 184.553393 43.467196 
L 185.758501 43.122482 
L 189.373825 44.339596 
L 190.578933 44.688319 
L 191.784041 44.768147 
L 192.989149 45.099351 
L 194.194257 45.055307 
L 195.399365 45.399625 
L 196.604473 45.34344 
L 197.809581 45.702326 
L 199.014689 45.572888 
L 201.424905 46.186995 
L 202.630013 46.367218 
L 203.835121 46.72111 
L 205.040229 46.344698 
L 206.245337 46.383017 
L 208.655553 46.983444 
L 209.860661 47.066242 
L 211.065769 45.813351 
L 213.475985 46.338371 
L 214.681093 46.672478 
L 218.296417 47.215639 
L 219.501525 46.845518 
L 220.706633 46.976977 
L 221.911741 47.285085 
L 223.116849 47.139994 
L 224.321957 47.430166 
L 225.527065 47.482929 
L 227.937281 47.973754 
L 229.142389 47.944122 
L 230.347497 47.590149 
L 232.757713 48.182811 
L 233.962821 48.3192 
L 238.783253 49.374562 
L 239.988361 49.049615 
L 241.193469 48.843414 
L 242.398577 48.977145 
L 243.603685 48.670614 
L 244.808793 48.889304 
L 246.013901 47.953388 
L 247.219009 47.715451 
L 250.834333 48.41117 
L 252.039441 48.668011 
L 254.449657 49.04746 
L 255.654765 49.302443 
L 256.859873 49.129393 
L 261.680306 49.939131 
L 262.885414 49.739203 
L 264.090522 49.036038 
L 266.500738 49.412929 
L 267.705846 48.88963 
L 270.116062 48.852915 
L 271.32117 49.096099 
L 274.936494 49.145112 
L 277.34671 49.55047 
L 278.551818 49.526968 
L 279.756926 48.738445 
L 280.962034 48.960138 
L 282.167142 48.974941 
L 283.37225 49.206704 
L 284.577358 49.301537 
L 288.192682 49.924879 
L 289.39779 49.843924 
L 290.602898 49.415447 
L 291.808006 49.273447 
L 293.013114 49.2785 
L 294.218222 49.161521 
L 295.42333 49.245975 
L 296.628438 49.004693 
L 299.038654 49.326522 
L 300.243762 49.069191 
L 301.44887 48.659724 
L 302.653978 48.876215 
L 303.859086 48.65634 
L 305.064194 48.828361 
L 306.269302 48.590554 
L 312.294842 49.485447 
L 315.910166 49.912405 
L 317.115274 49.476875 
L 318.320382 49.62636 
L 319.52549 49.564616 
L 320.730598 49.679495 
L 321.935706 48.107019 
L 323.140814 48.30917 
L 324.345922 46.998994 
L 325.55103 47.000332 
L 327.961246 45.867688 
L 335.191894 46.690447 
L 336.397002 46.605151 
L 337.60211 46.701617 
L 340.012326 46.716976 
L 342.422542 47.020745 
L 343.62765 46.994332 
L 346.037866 47.292384 
L 347.242974 46.755166 
L 348.448082 46.942216 
L 349.65319 46.952434 
L 350.858298 47.139006 
L 352.063406 46.412377 
L 354.473622 46.605184 
L 355.67873 45.797347 
L 356.883838 45.771811 
L 362.909378 46.557335 
L 364.114486 45.860222 
L 365.319594 45.826796 
L 368.934918 46.326438 
L 370.140026 46.211499 
L 372.550242 46.551559 
L 376.165566 46.6181 
L 378.575782 46.91907 
L 382.191106 47.308637 
L 383.396214 46.978482 
L 384.601322 47.149968 
L 385.80643 47.105853 
L 393.037078 47.818053 
L 396.652402 47.719849 
L 399.062618 48.018321 
L 400.267726 47.973035 
L 401.472834 47.069289 
L 403.88305 47.274286 
L 408.703483 47.841248 
L 412.318807 48.004636 
L 413.523915 48.157004 
L 414.729023 47.757476 
L 415.934131 47.876615 
L 417.139239 47.851212 
L 418.344347 47.628377 
L 427.985211 48.426269 
L 429.190319 48.391728 
L 430.395427 47.802389 
L 431.600535 46.106839 
L 432.805643 46.090021 
L 438.831183 46.650071 
L 440.036291 46.609626 
L 444.856723 47.119211 
L 455.702695 47.52391 
L 456.907803 46.535015 
L 459.318019 46.811289 
L 460.523127 46.26538 
L 462.933343 46.304373 
L 464.138451 46.44324 
L 466.548667 46.351683 
L 467.753775 45.621234 
L 474.984423 46.325121 
L 479.804855 46.610358 
L 483.420179 46.965108 
L 485.830395 46.625908 
L 488.240611 46.876679 
L 489.445719 46.327569 
L 494.266151 46.780033 
L 495.471259 46.404019 
L 497.881475 46.604724 
L 499.086583 46.423558 
L 502.701907 46.670975 
L 503.907015 46.120581 
L 506.317231 46.30553 
L 508.727447 46.43017 
L 509.932555 46.536427 
L 511.137663 45.802347 
L 512.342771 45.876416 
L 513.547879 45.728728 
L 515.958095 45.947368 
L 515.958095 45.947368 
" clip-path="url(#p03c9442bf3)" style="fill: none; stroke-dasharray: 5.55,2.4; stroke-dashoffset: 0; stroke: #ff8c00; stroke-width: 1.5"/>
   </g>
   <g id="patch_3">
    <path d="M 35.12 97 
L 35.12 0 
" style="fill: none; stroke: #000000; stroke-width: 0.8; stroke-linejoin: miter; stroke-linecap: square"/>
   </g>
   <g id="patch_4">
    <path d="M 540 97 
L 540 0 
" style="fill: none; stroke: #000000; stroke-width: 0.8; stroke-linejoin: miter; stroke-linecap: square"/>
   </g>
   <g id="patch_5">
    <path d="M 35.12 97 
L 540 97 
" style="fill: none; stroke: #000000; stroke-width: 0.8; stroke-linejoin: miter; stroke-linecap: square"/>
   </g>
   <g id="patch_6">
    <path d="M 35.12 0 
L 540 0 
" style="fill: none; stroke: #000000; stroke-width: 0.8; stroke-linejoin: miter; stroke-linecap: square"/>
   </g>
  </g>
 </g>
 <defs>
  <clipPath id="p03c9442bf3">
   <rect x="35.12" y="0" width="504.88" height="97"/>
  </clipPath>
 </defs>
</svg>
