<?xml version="1.0" encoding="utf-8" standalone="no"?>
<!DOCTYPE svg PUBLIC "-//W3C//DTD SVG 1.1//EN"
  "http://www.w3.org/Graphics/SVG/1.1/DTD/svg11.dtd">
<svg xmlns:xlink="http://www.w3.org/1999/xlink" width="432pt" height="158.4pt" viewBox="0 0 432 158.4" xmlns="http://www.w3.org/2000/svg" version="1.1">
 <metadata>
  <rdf:RDF xmlns:dc="http://purl.org/dc/elements/1.1/" xmlns:cc="http://creativecommons.org/ns#" xmlns:rdf="http://www.w3.org/1999/02/22-rdf-syntax-ns#">
   <cc:Work>
    <dc:type rdf:resource="http://purl.org/dc/dcmitype/StillImage"/>
    <dc:date>2025-04-07T22:10:43.304825</dc:date>
    <dc:format>image/svg+xml</dc:format>
    <dc:creator>
     <cc:Agent>
      <dc:title>Matplotlib v3.8.3, https://matplotlib.org/</dc:title>
     </cc:Agent>
    </dc:creator>
   </cc:Work>
  </rdf:RDF>
 </metadata>
 <defs>
  <style type="text/css">*{stroke-linejoin: round; stroke-linecap: butt}</style>
 </defs>
 <g id="figure_1">
  <g id="patch_1">
   <path d="M 0 158.4 
L 432 158.4 
L 432 0 
L 0 0 
z
" style="fill: #ffffff"/>
  </g>
  <g id="axes_1">
   <g id="patch_2">
    <path d="M 38.63 125.8 
L 177.006923 125.8 
L 177.006923 10.08 
L 38.63 10.08 
z
" style="fill: #ffffff"/>
   </g>
   <g id="patch_3">
    <path d="M 38.63 125.8 
L 45.548846 125.8 
L 45.548846 117.6996 
L 38.63 117.6996 
z
" clip-path="url(#pcb4a2ddca2)" style="fill: #d3d3d3; stroke: #000000; stroke-width: 0.7; stroke-linejoin: miter"/>
   </g>
   <g id="patch_4">
    <path d="M 45.548846 125.8 
L 52.467692 125.8 
L 52.467692 117.6996 
L 45.548846 117.6996 
z
" clip-path="url(#pcb4a2ddca2)" style="fill: #d3d3d3; stroke: #000000; stroke-width: 0.7; stroke-linejoin: miter"/>
   </g>
   <g id="patch_5">
    <path d="M 52.467692 125.8 
L 59.386538 125.8 
L 59.386538 104.9704 
L 52.467692 104.9704 
z
" clip-path="url(#pcb4a2ddca2)" style="fill: #d3d3d3; stroke: #000000; stroke-width: 0.7; stroke-linejoin: miter"/>
   </g>
   <g id="patch_6">
    <path d="M 59.386538 125.8 
L 66.305385 125.8 
L 66.305385 96.87 
L 59.386538 96.87 
z
" clip-path="url(#pcb4a2ddca2)" style="fill: #d3d3d3; stroke: #000000; stroke-width: 0.7; stroke-linejoin: miter"/>
   </g>
   <g id="patch_7">
    <path d="M 66.305385 125.8 
L 73.224231 125.8 
L 73.224231 89.9268 
L 66.305385 89.9268 
z
" clip-path="url(#pcb4a2ddca2)" style="fill: #d3d3d3; stroke: #000000; stroke-width: 0.7; stroke-linejoin: miter"/>
   </g>
   <g id="patch_8">
    <path d="M 73.224231 125.8 
L 80.143077 125.8 
L 80.143077 74.8832 
L 73.224231 74.8832 
z
" clip-path="url(#pcb4a2ddca2)" style="fill: #d3d3d3; stroke: #000000; stroke-width: 0.7; stroke-linejoin: miter"/>
   </g>
   <g id="patch_9">
    <path d="M 80.143077 125.8 
L 87.061923 125.8 
L 87.061923 67.94 
L 80.143077 67.94 
z
" clip-path="url(#pcb4a2ddca2)" style="fill: #d3d3d3; stroke: #000000; stroke-width: 0.7; stroke-linejoin: miter"/>
   </g>
   <g id="patch_10">
    <path d="M 87.061923 125.8 
L 93.980769 125.8 
L 93.980769 66.7828 
L 87.061923 66.7828 
z
" clip-path="url(#pcb4a2ddca2)" style="fill: #d3d3d3; stroke: #000000; stroke-width: 0.7; stroke-linejoin: miter"/>
   </g>
   <g id="patch_11">
    <path d="M 93.980769 125.8 
L 100.899615 125.8 
L 100.899615 79.512 
L 93.980769 79.512 
z
" clip-path="url(#pcb4a2ddca2)" style="fill: #d3d3d3; stroke: #000000; stroke-width: 0.7; stroke-linejoin: miter"/>
   </g>
   <g id="patch_12">
    <path d="M 100.899615 125.8 
L 107.818462 125.8 
L 107.818462 88.7696 
L 100.899615 88.7696 
z
" clip-path="url(#pcb4a2ddca2)" style="fill: #d3d3d3; stroke: #000000; stroke-width: 0.7; stroke-linejoin: miter"/>
   </g>
   <g id="patch_13">
    <path d="M 107.818462 125.8 
L 114.737308 125.8 
L 114.737308 102.656 
L 107.818462 102.656 
z
" clip-path="url(#pcb4a2ddca2)" style="fill: #d3d3d3; stroke: #000000; stroke-width: 0.7; stroke-linejoin: miter"/>
   </g>
   <g id="patch_14">
    <path d="M 114.737308 125.8 
L 121.656154 125.8 
L 121.656154 95.7128 
L 114.737308 95.7128 
z
" clip-path="url(#pcb4a2ddca2)" style="fill: #d3d3d3; stroke: #000000; stroke-width: 0.7; stroke-linejoin: miter"/>
   </g>
   <g id="patch_15">
    <path d="M 121.656154 125.8 
L 128.575 125.8 
L 128.575 108.442 
L 121.656154 108.442 
z
" clip-path="url(#pcb4a2ddca2)" style="fill: #d3d3d3; stroke: #000000; stroke-width: 0.7; stroke-linejoin: miter"/>
   </g>
   <g id="patch_16">
    <path d="M 128.575 125.8 
L 135.493846 125.8 
L 135.493846 111.9136 
L 128.575 111.9136 
z
" clip-path="url(#pcb4a2ddca2)" style="fill: #d3d3d3; stroke: #000000; stroke-width: 0.7; stroke-linejoin: miter"/>
   </g>
   <g id="patch_17">
    <path d="M 135.493846 125.8 
L 142.412692 125.8 
L 142.412692 110.7564 
L 135.493846 110.7564 
z
" clip-path="url(#pcb4a2ddca2)" style="fill: #d3d3d3; stroke: #000000; stroke-width: 0.7; stroke-linejoin: miter"/>
   </g>
   <g id="patch_18">
    <path d="M 142.412692 125.8 
L 149.331538 125.8 
L 149.331538 121.1712 
L 142.412692 121.1712 
z
" clip-path="url(#pcb4a2ddca2)" style="fill: #d3d3d3; stroke: #000000; stroke-width: 0.7; stroke-linejoin: miter"/>
   </g>
   <g id="patch_19">
    <path d="M 149.331538 125.8 
L 156.250385 125.8 
L 156.250385 125.8 
L 149.331538 125.8 
z
" clip-path="url(#pcb4a2ddca2)" style="fill: #d3d3d3; stroke: #000000; stroke-width: 0.7; stroke-linejoin: miter"/>
   </g>
   <g id="patch_20">
    <path d="M 156.250385 125.8 
L 163.169231 125.8 
L 163.169231 123.4856 
L 156.250385 123.4856 
z
" clip-path="url(#pcb4a2ddca2)" style="fill: #d3d3d3; stroke: #000000; stroke-width: 0.7; stroke-linejoin: miter"/>
   </g>
   <g id="patch_21">
    <path d="M 163.169231 125.8 
L 170.088077 125.8 
L 170.088077 123.4856 
L 163.169231 123.4856 
z
" clip-path="url(#pcb4a2ddca2)" style="fill: #d3d3d3; stroke: #000000; stroke-width: 0.7; stroke-linejoin: miter"/>
   </g>
   <g id="patch_22">
    <path d="M 170.088077 125.8 
L 177.006923 125.8 
L 177.006923 124.6428 
L 170.088077 124.6428 
z
" clip-path="url(#pcb4a2ddca2)" style="fill: #d3d3d3; stroke: #000000; stroke-width: 0.7; stroke-linejoin: miter"/>
   </g>
   <g id="matplotlib.axis_1">
    <g id="xtick_1">
     <g id="line2d_1">
      <defs>
       <path id="ma7ece417ef" d="M 0 0 
L 0 3.5 
" style="stroke: #000000; stroke-width: 0.8"/>
      </defs>
      <g>
       <use xlink:href="#ma7ece417ef" x="38.63" y="125.8" style="stroke: #000000; stroke-width: 0.8"/>
      </g>
     </g>
     <g id="text_1">
      <text style="font: 10px 'Times New Roman'; text-anchor: middle" x="38.63" y="139.74375" transform="rotate(-0 38.63 139.74375)">0.4</text>
     </g>
    </g>
    <g id="xtick_2">
     <g id="line2d_2">
      <g>
       <use xlink:href="#ma7ece417ef" x="73.224231" y="125.8" style="stroke: #000000; stroke-width: 0.8"/>
      </g>
     </g>
     <g id="text_2">
      <text style="font: 10px 'Times New Roman'; text-anchor: middle" x="73.224231" y="139.74375" transform="rotate(-0 73.224231 139.74375)">0.8</text>
     </g>
    </g>
    <g id="xtick_3">
     <g id="line2d_3">
      <g>
       <use xlink:href="#ma7ece417ef" x="107.818462" y="125.8" style="stroke: #000000; stroke-width: 0.8"/>
      </g>
     </g>
     <g id="text_3">
      <text style="font: 10px 'Times New Roman'; text-anchor: middle" x="107.818462" y="139.74375" transform="rotate(-0 107.818462 139.74375)">1.2</text>
     </g>
    </g>
    <g id="xtick_4">
     <g id="line2d_4">
      <g>
       <use xlink:href="#ma7ece417ef" x="142.412692" y="125.8" style="stroke: #000000; stroke-width: 0.8"/>
      </g>
     </g>
     <g id="text_4">
      <text style="font: 10px 'Times New Roman'; text-anchor: middle" x="142.412692" y="139.74375" transform="rotate(-0 142.412692 139.74375)">1.6</text>
     </g>
    </g>
    <g id="xtick_5">
     <g id="line2d_5">
      <g>
       <use xlink:href="#ma7ece417ef" x="177.006923" y="125.8" style="stroke: #000000; stroke-width: 0.8"/>
      </g>
     </g>
     <g id="text_5">
      <text style="font: 10px 'Times New Roman'; text-anchor: middle" x="177.006923" y="139.74375" transform="rotate(-0 177.006923 139.74375)">2.0</text>
     </g>
    </g>
    <g id="text_6">
     <text style="font: 12px 'Times New Roman'; text-anchor: middle" x="107.818462" y="154.215313" transform="rotate(-0 107.818462 154.215313)">Normalized Lead Time</text>
    </g>
   </g>
   <g id="matplotlib.axis_2">
    <g id="ytick_1">
     <g id="line2d_6">
      <defs>
       <path id="m0f726250e6" d="M 0 0 
L -3.5 0 
" style="stroke: #000000; stroke-width: 0.8"/>
      </defs>
      <g>
       <use xlink:href="#m0f726250e6" x="38.63" y="125.8" style="stroke: #000000; stroke-width: 0.8"/>
      </g>
     </g>
     <g id="text_7">
      <text style="font: 10px 'Times New Roman'; text-anchor: end" x="31.63" y="129.271875" transform="rotate(-0 31.63 129.271875)">0.00</text>
     </g>
    </g>
    <g id="ytick_2">
     <g id="line2d_7">
      <g>
       <use xlink:href="#m0f726250e6" x="38.63" y="102.656" style="stroke: #000000; stroke-width: 0.8"/>
      </g>
     </g>
     <g id="text_8">
      <text style="font: 10px 'Times New Roman'; text-anchor: end" x="31.63" y="106.127875" transform="rotate(-0 31.63 106.127875)">0.05</text>
     </g>
    </g>
    <g id="ytick_3">
     <g id="line2d_8">
      <g>
       <use xlink:href="#m0f726250e6" x="38.63" y="79.512" style="stroke: #000000; stroke-width: 0.8"/>
      </g>
     </g>
     <g id="text_9">
      <text style="font: 10px 'Times New Roman'; text-anchor: end" x="31.63" y="82.983875" transform="rotate(-0 31.63 82.983875)">0.10</text>
     </g>
    </g>
    <g id="ytick_4">
     <g id="line2d_9">
      <g>
       <use xlink:href="#m0f726250e6" x="38.63" y="56.368" style="stroke: #000000; stroke-width: 0.8"/>
      </g>
     </g>
     <g id="text_10">
      <text style="font: 10px 'Times New Roman'; text-anchor: end" x="31.63" y="59.839875" transform="rotate(-0 31.63 59.839875)">0.15</text>
     </g>
    </g>
    <g id="ytick_5">
     <g id="line2d_10">
      <g>
       <use xlink:href="#m0f726250e6" x="38.63" y="33.224" style="stroke: #000000; stroke-width: 0.8"/>
      </g>
     </g>
     <g id="text_11">
      <text style="font: 10px 'Times New Roman'; text-anchor: end" x="31.63" y="36.695875" transform="rotate(-0 31.63 36.695875)">0.20</text>
     </g>
    </g>
    <g id="ytick_6">
     <g id="line2d_11">
      <g>
       <use xlink:href="#m0f726250e6" x="38.63" y="10.08" style="stroke: #000000; stroke-width: 0.8"/>
      </g>
     </g>
     <g id="text_12">
      <text style="font: 10px 'Times New Roman'; text-anchor: end" x="31.63" y="13.551875" transform="rotate(-0 31.63 13.551875)">0.25</text>
     </g>
    </g>
    <g id="text_13">
     <text style="font: 11px 'Times New Roman'; text-anchor: middle" x="7.756406" y="67.94" transform="rotate(-90 7.756406 67.94)">Relative Frequency</text>
    </g>
   </g>
   <g id="line2d_12">
    <path d="M 63.587139 125.8 
L 63.587139 10.08 
" clip-path="url(#pcb4a2ddca2)" style="fill: none; stroke-dasharray: 5.55,2.4; stroke-dashoffset: 0; stroke: #696969; stroke-width: 1.5"/>
   </g>
   <g id="patch_23">
    <path d="M 38.63 125.8 
L 38.63 10.08 
" style="fill: none; stroke: #000000; stroke-width: 0.8; stroke-linejoin: miter; stroke-linecap: square"/>
   </g>
   <g id="patch_24">
    <path d="M 177.006923 125.8 
L 177.006923 10.08 
" style="fill: none; stroke: #000000; stroke-width: 0.8; stroke-linejoin: miter; stroke-linecap: square"/>
   </g>
   <g id="patch_25">
    <path d="M 38.63 125.8 
L 177.006923 125.8 
" style="fill: none; stroke: #000000; stroke-width: 0.8; stroke-linejoin: miter; stroke-linecap: square"/>
   </g>
   <g id="patch_26">
    <path d="M 38.63 10.08 
L 177.006923 10.08 
" style="fill: none; stroke: #000000; stroke-width: 0.8; stroke-linejoin: miter; stroke-linecap: square"/>
   </g>
   <g id="text_14">
    <!-- $\mu=35.2$ mo. -->
    <g transform="translate(123.939385 70.342344)">
     <text>
      <tspan style="font: italic 10px 'STIXGeneral'" x="0" y="-0.125">μ</tspan>
      <tspan style="font: 10px 'STIXGeneral'" x="6.703992 14.99798 19.997964 24.997949 27.497934" y="-0.125">=35.2</tspan>
      <tspan style="font: 10px 'Times New Roman'" x="32.497919 34.997919 42.776239 47.776239" y="-0.125"> mo.</tspan>
     </text>
    </g>
   </g>
   <g id="text_15">
    <text style="font: 10px 'Times New Roman'; text-anchor: middle" x="63.587139" y="7.922188" transform="rotate(-0 63.587139 7.922188)">Target</text>
   </g>
  </g>
  <g id="axes_2">
   <g id="patch_27">
    <path d="M 260.033077 125.8 
L 398.41 125.8 
L 398.41 10.08 
L 260.033077 10.08 
z
" style="fill: #ffffff"/>
   </g>
   <g id="patch_28">
    <path d="M 260.033077 125.8 
L 266.951923 125.8 
L 266.951923 117.6996 
L 260.033077 117.6996 
z
" clip-path="url(#pfb62a824b6)" style="fill: #d3d3d3; stroke: #000000; stroke-width: 0.7; stroke-linejoin: miter"/>
   </g>
   <g id="patch_29">
    <path d="M 266.951923 125.8 
L 273.870769 125.8 
L 273.870769 121.1712 
L 266.951923 121.1712 
z
" clip-path="url(#pfb62a824b6)" style="fill: #d3d3d3; stroke: #000000; stroke-width: 0.7; stroke-linejoin: miter"/>
   </g>
   <g id="patch_30">
    <path d="M 273.870769 125.8 
L 280.789615 125.8 
L 280.789615 117.6996 
L 273.870769 117.6996 
z
" clip-path="url(#pfb62a824b6)" style="fill: #d3d3d3; stroke: #000000; stroke-width: 0.7; stroke-linejoin: miter"/>
   </g>
   <g id="patch_31">
    <path d="M 280.789615 125.8 
L 287.708462 125.8 
L 287.708462 108.442 
L 280.789615 108.442 
z
" clip-path="url(#pfb62a824b6)" style="fill: #d3d3d3; stroke: #000000; stroke-width: 0.7; stroke-linejoin: miter"/>
   </g>
   <g id="patch_32">
    <path d="M 287.708462 125.8 
L 294.627308 125.8 
L 294.627308 88.7696 
L 287.708462 88.7696 
z
" clip-path="url(#pfb62a824b6)" style="fill: #d3d3d3; stroke: #000000; stroke-width: 0.7; stroke-linejoin: miter"/>
   </g>
   <g id="patch_33">
    <path d="M 294.627308 125.8 
L 301.546154 125.8 
L 301.546154 86.4552 
L 294.627308 86.4552 
z
" clip-path="url(#pfb62a824b6)" style="fill: #d3d3d3; stroke: #000000; stroke-width: 0.7; stroke-linejoin: miter"/>
   </g>
   <g id="patch_34">
    <path d="M 301.546154 125.8 
L 308.465 125.8 
L 308.465 91.084 
L 301.546154 91.084 
z
" clip-path="url(#pfb62a824b6)" style="fill: #d3d3d3; stroke: #000000; stroke-width: 0.7; stroke-linejoin: miter"/>
   </g>
   <g id="patch_35">
    <path d="M 308.465 125.8 
L 315.383846 125.8 
L 315.383846 74.8832 
L 308.465 74.8832 
z
" clip-path="url(#pfb62a824b6)" style="fill: #d3d3d3; stroke: #000000; stroke-width: 0.7; stroke-linejoin: miter"/>
   </g>
   <g id="patch_36">
    <path d="M 315.383846 125.8 
L 322.302692 125.8 
L 322.302692 63.3112 
L 315.383846 63.3112 
z
" clip-path="url(#pfb62a824b6)" style="fill: #d3d3d3; stroke: #000000; stroke-width: 0.7; stroke-linejoin: miter"/>
   </g>
   <g id="patch_37">
    <path d="M 322.302692 125.8 
L 329.221538 125.8 
L 329.221538 88.7696 
L 322.302692 88.7696 
z
" clip-path="url(#pfb62a824b6)" style="fill: #d3d3d3; stroke: #000000; stroke-width: 0.7; stroke-linejoin: miter"/>
   </g>
   <g id="patch_38">
    <path d="M 329.221538 125.8 
L 336.140385 125.8 
L 336.140385 93.3984 
L 329.221538 93.3984 
z
" clip-path="url(#pfb62a824b6)" style="fill: #d3d3d3; stroke: #000000; stroke-width: 0.7; stroke-linejoin: miter"/>
   </g>
   <g id="patch_39">
    <path d="M 336.140385 125.8 
L 343.059231 125.8 
L 343.059231 98.0272 
L 336.140385 98.0272 
z
" clip-path="url(#pfb62a824b6)" style="fill: #d3d3d3; stroke: #000000; stroke-width: 0.7; stroke-linejoin: miter"/>
   </g>
   <g id="patch_40">
    <path d="M 343.059231 125.8 
L 349.978077 125.8 
L 349.978077 94.5556 
L 343.059231 94.5556 
z
" clip-path="url(#pfb62a824b6)" style="fill: #d3d3d3; stroke: #000000; stroke-width: 0.7; stroke-linejoin: miter"/>
   </g>
   <g id="patch_41">
    <path d="M 349.978077 125.8 
L 356.896923 125.8 
L 356.896923 103.8132 
L 349.978077 103.8132 
z
" clip-path="url(#pfb62a824b6)" style="fill: #d3d3d3; stroke: #000000; stroke-width: 0.7; stroke-linejoin: miter"/>
   </g>
   <g id="patch_42">
    <path d="M 356.896923 125.8 
L 363.815769 125.8 
L 363.815769 104.9704 
L 356.896923 104.9704 
z
" clip-path="url(#pfb62a824b6)" style="fill: #d3d3d3; stroke: #000000; stroke-width: 0.7; stroke-linejoin: miter"/>
   </g>
   <g id="patch_43">
    <path d="M 363.815769 125.8 
L 370.734615 125.8 
L 370.734615 109.5992 
L 363.815769 109.5992 
z
" clip-path="url(#pfb62a824b6)" style="fill: #d3d3d3; stroke: #000000; stroke-width: 0.7; stroke-linejoin: miter"/>
   </g>
   <g id="patch_44">
    <path d="M 370.734615 125.8 
L 377.653462 125.8 
L 377.653462 120.014 
L 370.734615 120.014 
z
" clip-path="url(#pfb62a824b6)" style="fill: #d3d3d3; stroke: #000000; stroke-width: 0.7; stroke-linejoin: miter"/>
   </g>
   <g id="patch_45">
    <path d="M 377.653462 125.8 
L 384.572308 125.8 
L 384.572308 123.4856 
L 377.653462 123.4856 
z
" clip-path="url(#pfb62a824b6)" style="fill: #d3d3d3; stroke: #000000; stroke-width: 0.7; stroke-linejoin: miter"/>
   </g>
   <g id="patch_46">
    <path d="M 384.572308 125.8 
L 391.491154 125.8 
L 391.491154 125.8 
L 384.572308 125.8 
z
" clip-path="url(#pfb62a824b6)" style="fill: #d3d3d3; stroke: #000000; stroke-width: 0.7; stroke-linejoin: miter"/>
   </g>
   <g id="patch_47">
    <path d="M 391.491154 125.8 
L 398.41 125.8 
L 398.41 121.1712 
L 391.491154 121.1712 
z
" clip-path="url(#pfb62a824b6)" style="fill: #d3d3d3; stroke: #000000; stroke-width: 0.7; stroke-linejoin: miter"/>
   </g>
   <g id="matplotlib.axis_3">
    <g id="xtick_6">
     <g id="line2d_13">
      <g>
       <use xlink:href="#ma7ece417ef" x="260.033077" y="125.8" style="stroke: #000000; stroke-width: 0.8"/>
      </g>
     </g>
     <g id="text_16">
      <text style="font: 10px 'Times New Roman'; text-anchor: middle" x="260.033077" y="139.74375" transform="rotate(-0 260.033077 139.74375)">0.5</text>
     </g>
    </g>
    <g id="xtick_7">
     <g id="line2d_14">
      <g>
       <use xlink:href="#ma7ece417ef" x="294.627308" y="125.8" style="stroke: #000000; stroke-width: 0.8"/>
      </g>
     </g>
     <g id="text_17">
      <text style="font: 10px 'Times New Roman'; text-anchor: middle" x="294.627308" y="139.74375" transform="rotate(-0 294.627308 139.74375)">0.8</text>
     </g>
    </g>
    <g id="xtick_8">
     <g id="line2d_15">
      <g>
       <use xlink:href="#ma7ece417ef" x="329.221538" y="125.8" style="stroke: #000000; stroke-width: 0.8"/>
      </g>
     </g>
     <g id="text_18">
      <text style="font: 10px 'Times New Roman'; text-anchor: middle" x="329.221538" y="139.74375" transform="rotate(-0 329.221538 139.74375)">1.1</text>
     </g>
    </g>
    <g id="xtick_9">
     <g id="line2d_16">
      <g>
       <use xlink:href="#ma7ece417ef" x="363.815769" y="125.8" style="stroke: #000000; stroke-width: 0.8"/>
      </g>
     </g>
     <g id="text_19">
      <text style="font: 10px 'Times New Roman'; text-anchor: middle" x="363.815769" y="139.74375" transform="rotate(-0 363.815769 139.74375)">1.4</text>
     </g>
    </g>
    <g id="xtick_10">
     <g id="line2d_17">
      <g>
       <use xlink:href="#ma7ece417ef" x="398.41" y="125.8" style="stroke: #000000; stroke-width: 0.8"/>
      </g>
     </g>
     <g id="text_20">
      <text style="font: 10px 'Times New Roman'; text-anchor: middle" x="398.41" y="139.74375" transform="rotate(-0 398.41 139.74375)">1.6</text>
     </g>
    </g>
    <g id="text_21">
     <text style="font: 12px 'Times New Roman'; text-anchor: middle" x="329.221538" y="154.215313" transform="rotate(-0 329.221538 154.215313)">Normalized Cost</text>
    </g>
   </g>
   <g id="matplotlib.axis_4">
    <g id="ytick_7">
     <g id="line2d_18">
      <g>
       <use xlink:href="#m0f726250e6" x="260.033077" y="125.8" style="stroke: #000000; stroke-width: 0.8"/>
      </g>
     </g>
     <g id="text_22">
      <text style="font: 10px 'Times New Roman'; text-anchor: end" x="253.033077" y="129.271875" transform="rotate(-0 253.033077 129.271875)">0.00</text>
     </g>
    </g>
    <g id="ytick_8">
     <g id="line2d_19">
      <g>
       <use xlink:href="#m0f726250e6" x="260.033077" y="102.656" style="stroke: #000000; stroke-width: 0.8"/>
      </g>
     </g>
     <g id="text_23">
      <text style="font: 10px 'Times New Roman'; text-anchor: end" x="253.033077" y="106.127875" transform="rotate(-0 253.033077 106.127875)">0.05</text>
     </g>
    </g>
    <g id="ytick_9">
     <g id="line2d_20">
      <g>
       <use xlink:href="#m0f726250e6" x="260.033077" y="79.512" style="stroke: #000000; stroke-width: 0.8"/>
      </g>
     </g>
     <g id="text_24">
      <text style="font: 10px 'Times New Roman'; text-anchor: end" x="253.033077" y="82.983875" transform="rotate(-0 253.033077 82.983875)">0.10</text>
     </g>
    </g>
    <g id="ytick_10">
     <g id="line2d_21">
      <g>
       <use xlink:href="#m0f726250e6" x="260.033077" y="56.368" style="stroke: #000000; stroke-width: 0.8"/>
      </g>
     </g>
     <g id="text_25">
      <text style="font: 10px 'Times New Roman'; text-anchor: end" x="253.033077" y="59.839875" transform="rotate(-0 253.033077 59.839875)">0.15</text>
     </g>
    </g>
    <g id="ytick_11">
     <g id="line2d_22">
      <g>
       <use xlink:href="#m0f726250e6" x="260.033077" y="33.224" style="stroke: #000000; stroke-width: 0.8"/>
      </g>
     </g>
     <g id="text_26">
      <text style="font: 10px 'Times New Roman'; text-anchor: end" x="253.033077" y="36.695875" transform="rotate(-0 253.033077 36.695875)">0.20</text>
     </g>
    </g>
    <g id="ytick_12">
     <g id="line2d_23">
      <g>
       <use xlink:href="#m0f726250e6" x="260.033077" y="10.08" style="stroke: #000000; stroke-width: 0.8"/>
      </g>
     </g>
     <g id="text_27">
      <text style="font: 10px 'Times New Roman'; text-anchor: end" x="253.033077" y="13.551875" transform="rotate(-0 253.033077 13.551875)">0.25</text>
     </g>
    </g>
    <g id="text_28">
     <text style="font: 11px 'Times New Roman'; text-anchor: middle" x="229.159483" y="67.94" transform="rotate(-90 229.159483 67.94)">Relative Probability</text>
    </g>
   </g>
   <g id="line2d_24">
    <path d="M 290.377669 125.8 
L 290.377669 10.08 
" clip-path="url(#pfb62a824b6)" style="fill: none; stroke-dasharray: 5.55,2.4; stroke-dashoffset: 0; stroke: #696969; stroke-width: 1.5"/>
   </g>
   <g id="patch_48">
    <path d="M 260.033077 125.8 
L 260.033077 10.08 
" style="fill: none; stroke: #000000; stroke-width: 0.8; stroke-linejoin: miter; stroke-linecap: square"/>
   </g>
   <g id="patch_49">
    <path d="M 398.41 125.8 
L 398.41 10.08 
" style="fill: none; stroke: #000000; stroke-width: 0.8; stroke-linejoin: miter; stroke-linecap: square"/>
   </g>
   <g id="patch_50">
    <path d="M 260.033077 125.8 
L 398.41 125.8 
" style="fill: none; stroke: #000000; stroke-width: 0.8; stroke-linejoin: miter; stroke-linecap: square"/>
   </g>
   <g id="patch_51">
    <path d="M 260.033077 10.08 
L 398.41 10.08 
" style="fill: none; stroke: #000000; stroke-width: 0.8; stroke-linejoin: miter; stroke-linecap: square"/>
   </g>
   <g id="text_29">
    <!-- $\mu=\$1.9$m -->
    <g transform="translate(355.342462 70.500938)">
     <text>
      <tspan style="font: italic 10px 'STIXGeneral'" x="0" y="-0.734375">μ</tspan>
      <tspan style="font: 10px 'STIXGeneral'" x="6.703992 14.99798 19.997964 24.997949 27.497934" y="-0.734375">=$1.9</tspan>
      <tspan style="font: 10px 'Times New Roman'" x="32.497919" y="-0.734375">m</tspan>
     </text>
    </g>
   </g>
   <g id="text_30">
    <text style="font: 10px 'Times New Roman'; text-anchor: middle" x="290.377669" y="7.922188" transform="rotate(-0 290.377669 7.922188)">Target</text>
   </g>
  </g>
  <g id="axes_3">
   <g id="matplotlib.axis_5">
    <g id="ytick_13">
     <g id="line2d_25">
      <defs>
       <path id="m43d5917efd" d="M 0 0 
L 3.5 0 
" style="stroke: #000000; stroke-width: 0.8"/>
      </defs>
      <g>
       <use xlink:href="#m43d5917efd" x="177.006923" y="125.8" style="stroke: #000000; stroke-width: 0.8"/>
      </g>
     </g>
     <g id="text_31">
      <text style="font: 10px 'Times New Roman'; text-anchor: start" x="184.006923" y="129.271875" transform="rotate(-0 184.006923 129.271875)">0.0</text>
     </g>
    </g>
    <g id="ytick_14">
     <g id="line2d_26">
      <g>
       <use xlink:href="#m43d5917efd" x="177.006923" y="102.656" style="stroke: #000000; stroke-width: 0.8"/>
      </g>
     </g>
     <g id="text_32">
      <text style="font: 10px 'Times New Roman'; text-anchor: start" x="184.006923" y="106.127875" transform="rotate(-0 184.006923 106.127875)">0.2</text>
     </g>
    </g>
    <g id="ytick_15">
     <g id="line2d_27">
      <g>
       <use xlink:href="#m43d5917efd" x="177.006923" y="79.512" style="stroke: #000000; stroke-width: 0.8"/>
      </g>
     </g>
     <g id="text_33">
      <text style="font: 10px 'Times New Roman'; text-anchor: start" x="184.006923" y="82.983875" transform="rotate(-0 184.006923 82.983875)">0.4</text>
     </g>
    </g>
    <g id="ytick_16">
     <g id="line2d_28">
      <g>
       <use xlink:href="#m43d5917efd" x="177.006923" y="56.368" style="stroke: #000000; stroke-width: 0.8"/>
      </g>
     </g>
     <g id="text_34">
      <text style="font: 10px 'Times New Roman'; text-anchor: start" x="184.006923" y="59.839875" transform="rotate(-0 184.006923 59.839875)">0.6</text>
     </g>
    </g>
    <g id="ytick_17">
     <g id="line2d_29">
      <g>
       <use xlink:href="#m43d5917efd" x="177.006923" y="33.224" style="stroke: #000000; stroke-width: 0.8"/>
      </g>
     </g>
     <g id="text_35">
      <text style="font: 10px 'Times New Roman'; text-anchor: start" x="184.006923" y="36.695875" transform="rotate(-0 184.006923 36.695875)">0.8</text>
     </g>
    </g>
    <g id="ytick_18">
     <g id="line2d_30">
      <g>
       <use xlink:href="#m43d5917efd" x="177.006923" y="10.08" style="stroke: #000000; stroke-width: 0.8"/>
      </g>
     </g>
     <g id="text_36">
      <text style="font: 10px 'Times New Roman'; text-anchor: start" x="184.006923" y="13.551875" transform="rotate(-0 184.006923 13.551875)">1.0</text>
     </g>
    </g>
    <g id="text_37">
     <text style="font: 11px 'Times New Roman'; text-anchor: middle" x="208.145048" y="67.94" transform="rotate(-90 208.145048 67.94)">Cumulative Frequency</text>
    </g>
   </g>
   <g id="line2d_31">
    <path d="M 38.63 125.8 
L 42.089423 123.7749 
L 49.008269 121.7498 
L 55.927115 116.5424 
L 62.845962 109.3099 
L 69.764808 100.3416 
L 76.683654 87.6124 
L 83.6025 73.1474 
L 90.521346 58.3931 
L 97.440192 46.8211 
L 104.359038 37.5635 
L 111.277885 31.7775 
L 118.196731 24.2557 
L 125.115577 19.9162 
L 132.034423 16.4446 
L 138.953269 12.6837 
L 145.872115 11.5265 
L 152.790962 11.5265 
L 159.709808 10.9479 
L 166.628654 10.3693 
L 173.5475 10.08 
L 177.006923 10.08 
" clip-path="url(#pcb4a2ddca2)" style="fill: none; stroke: #000000; stroke-linecap: square"/>
   </g>
   <g id="patch_52">
    <path d="M 38.63 125.8 
L 38.63 10.08 
" style="fill: none; stroke: #000000; stroke-width: 0.8; stroke-linejoin: miter; stroke-linecap: square"/>
   </g>
   <g id="patch_53">
    <path d="M 177.006923 125.8 
L 177.006923 10.08 
" style="fill: none; stroke: #000000; stroke-width: 0.8; stroke-linejoin: miter; stroke-linecap: square"/>
   </g>
   <g id="patch_54">
    <path d="M 38.63 125.8 
L 177.006923 125.8 
" style="fill: none; stroke: #000000; stroke-width: 0.8; stroke-linejoin: miter; stroke-linecap: square"/>
   </g>
   <g id="patch_55">
    <path d="M 38.63 10.08 
L 177.006923 10.08 
" style="fill: none; stroke: #000000; stroke-width: 0.8; stroke-linejoin: miter; stroke-linecap: square"/>
   </g>
  </g>
  <g id="axes_4">
   <g id="matplotlib.axis_6">
    <g id="ytick_19">
     <g id="line2d_32">
      <g>
       <use xlink:href="#m43d5917efd" x="398.41" y="125.8" style="stroke: #000000; stroke-width: 0.8"/>
      </g>
     </g>
     <g id="text_38">
      <text style="font: 10px 'Times New Roman'; text-anchor: start" x="405.41" y="129.271875" transform="rotate(-0 405.41 129.271875)">0.0</text>
     </g>
    </g>
    <g id="ytick_20">
     <g id="line2d_33">
      <g>
       <use xlink:href="#m43d5917efd" x="398.41" y="102.656" style="stroke: #000000; stroke-width: 0.8"/>
      </g>
     </g>
     <g id="text_39">
      <text style="font: 10px 'Times New Roman'; text-anchor: start" x="405.41" y="106.127875" transform="rotate(-0 405.41 106.127875)">0.2</text>
     </g>
    </g>
    <g id="ytick_21">
     <g id="line2d_34">
      <g>
       <use xlink:href="#m43d5917efd" x="398.41" y="79.512" style="stroke: #000000; stroke-width: 0.8"/>
      </g>
     </g>
     <g id="text_40">
      <text style="font: 10px 'Times New Roman'; text-anchor: start" x="405.41" y="82.983875" transform="rotate(-0 405.41 82.983875)">0.4</text>
     </g>
    </g>
    <g id="ytick_22">
     <g id="line2d_35">
      <g>
       <use xlink:href="#m43d5917efd" x="398.41" y="56.368" style="stroke: #000000; stroke-width: 0.8"/>
      </g>
     </g>
     <g id="text_41">
      <text style="font: 10px 'Times New Roman'; text-anchor: start" x="405.41" y="59.839875" transform="rotate(-0 405.41 59.839875)">0.6</text>
     </g>
    </g>
    <g id="ytick_23">
     <g id="line2d_36">
      <g>
       <use xlink:href="#m43d5917efd" x="398.41" y="33.224" style="stroke: #000000; stroke-width: 0.8"/>
      </g>
     </g>
     <g id="text_42">
      <text style="font: 10px 'Times New Roman'; text-anchor: start" x="405.41" y="36.695875" transform="rotate(-0 405.41 36.695875)">0.8</text>
     </g>
    </g>
    <g id="ytick_24">
     <g id="line2d_37">
      <g>
       <use xlink:href="#m43d5917efd" x="398.41" y="10.08" style="stroke: #000000; stroke-width: 0.8"/>
      </g>
     </g>
     <g id="text_43">
      <text style="font: 10px 'Times New Roman'; text-anchor: start" x="405.41" y="13.551875" transform="rotate(-0 405.41 13.551875)">1.0</text>
     </g>
    </g>
    <g id="text_44">
     <text style="font: 11px 'Times New Roman'; text-anchor: middle" x="429.548125" y="67.94" transform="rotate(-90 429.548125 67.94)">Cumulative Probability</text>
    </g>
   </g>
   <g id="line2d_38">
    <path d="M 260.033077 125.8 
L 263.4925 123.7749 
L 270.411346 122.6177 
L 277.330192 120.5926 
L 284.249038 116.2531 
L 291.167885 106.9955 
L 298.086731 97.1593 
L 305.005577 88.4803 
L 311.924423 75.7511 
L 318.843269 60.1289 
L 325.762115 50.8713 
L 332.680962 42.7709 
L 339.599808 35.8277 
L 346.518654 28.0166 
L 353.4375 22.5199 
L 360.356346 17.3125 
L 367.275192 13.2623 
L 374.194038 11.8158 
L 381.112885 11.2372 
L 388.031731 11.2372 
L 394.950577 10.08 
L 398.41 10.08 
" clip-path="url(#pfb62a824b6)" style="fill: none; stroke: #000000; stroke-linecap: square"/>
   </g>
   <g id="patch_56">
    <path d="M 260.033077 125.8 
L 260.033077 10.08 
" style="fill: none; stroke: #000000; stroke-width: 0.8; stroke-linejoin: miter; stroke-linecap: square"/>
   </g>
   <g id="patch_57">
    <path d="M 398.41 125.8 
L 398.41 10.08 
" style="fill: none; stroke: #000000; stroke-width: 0.8; stroke-linejoin: miter; stroke-linecap: square"/>
   </g>
   <g id="patch_58">
    <path d="M 260.033077 125.8 
L 398.41 125.8 
" style="fill: none; stroke: #000000; stroke-width: 0.8; stroke-linejoin: miter; stroke-linecap: square"/>
   </g>
   <g id="patch_59">
    <path d="M 260.033077 10.08 
L 398.41 10.08 
" style="fill: none; stroke: #000000; stroke-width: 0.8; stroke-linejoin: miter; stroke-linecap: square"/>
   </g>
  </g>
 </g>
 <defs>
  <clipPath id="pcb4a2ddca2">
   <rect x="38.63" y="10.08" width="138.376923" height="115.72"/>
  </clipPath>
  <clipPath id="pfb62a824b6">
   <rect x="260.033077" y="10.08" width="138.376923" height="115.72"/>
  </clipPath>
 </defs>
</svg>
