<?xml version="1.0" encoding="utf-8" standalone="no"?>
<!DOCTYPE svg PUBLIC "-//W3C//DTD SVG 1.1//EN"
  "http://www.w3.org/Graphics/SVG/1.1/DTD/svg11.dtd">
<svg xmlns:xlink="http://www.w3.org/1999/xlink" width="540pt" height="129.6pt" viewBox="0 0 540 129.6" xmlns="http://www.w3.org/2000/svg" version="1.1">
 <metadata>
  <rdf:RDF xmlns:dc="http://purl.org/dc/elements/1.1/" xmlns:cc="http://creativecommons.org/ns#" xmlns:rdf="http://www.w3.org/1999/02/22-rdf-syntax-ns#">
   <cc:Work>
    <dc:type rdf:resource="http://purl.org/dc/dcmitype/StillImage"/>
    <dc:date>2025-04-06T06:28:19.937001</dc:date>
    <dc:format>image/svg+xml</dc:format>
    <dc:creator>
     <cc:Agent>
      <dc:title>Matplotlib v3.10.1, https://matplotlib.org/</dc:title>
     </cc:Agent>
    </dc:creator>
   </cc:Work>
  </rdf:RDF>
 </metadata>
 <defs>
  <style type="text/css">*{stroke-linejoin: round; stroke-linecap: butt}</style>
 </defs>
 <g id="figure_1">
  <g id="patch_1">
   <path d="M 0 129.6 
L 540 129.6 
L 540 0 
L 0 0 
z
" style="fill: #ffffff"/>
  </g>
  <g id="axes_1">
   <g id="patch_2">
    <path d="M 34.31 98.44 
L 540 98.44 
L 540 0 
L 34.31 0 
z
" style="fill: #ffffff"/>
   </g>
   <g id="matplotlib.axis_1">
    <g id="xtick_1">
     <g id="line2d_1">
      <path d="M 34.31 98.44 
L 34.31 0 
" clip-path="url(#pb6a815a752)" style="fill: none; stroke: #b0b0b0; stroke-width: 0.8; stroke-linecap: square"/>
     </g>
     <g id="line2d_2">
      <defs>
       <path id="m9fdb0fad51" d="M 0 0 
L 0 3.5 
" style="stroke: #000000; stroke-width: 0.8"/>
      </defs>
      <g>
       <use xlink:href="#m9fdb0fad51" x="34.31" y="98.44" style="stroke: #000000; stroke-width: 0.8"/>
      </g>
     </g>
     <g id="text_1">
      <text style="font-size: 10px; font-family: 'Times New Roman'; text-anchor: middle" x="34.31" y="112.38375" transform="rotate(-0 34.31 112.38375)">0</text>
     </g>
    </g>
    <g id="xtick_2">
     <g id="line2d_3">
      <path d="M 94.662071 98.44 
L 94.662071 0 
" clip-path="url(#pb6a815a752)" style="fill: none; stroke: #b0b0b0; stroke-width: 0.8; stroke-linecap: square"/>
     </g>
     <g id="line2d_4">
      <g>
       <use xlink:href="#m9fdb0fad51" x="94.662071" y="98.44" style="stroke: #000000; stroke-width: 0.8"/>
      </g>
     </g>
     <g id="text_2">
      <text style="font-size: 10px; font-family: 'Times New Roman'; text-anchor: middle" x="94.662071" y="112.38375" transform="rotate(-0 94.662071 112.38375)">50</text>
     </g>
    </g>
    <g id="xtick_3">
     <g id="line2d_5">
      <path d="M 155.014141 98.44 
L 155.014141 0 
" clip-path="url(#pb6a815a752)" style="fill: none; stroke: #b0b0b0; stroke-width: 0.8; stroke-linecap: square"/>
     </g>
     <g id="line2d_6">
      <g>
       <use xlink:href="#m9fdb0fad51" x="155.014141" y="98.44" style="stroke: #000000; stroke-width: 0.8"/>
      </g>
     </g>
     <g id="text_3">
      <text style="font-size: 10px; font-family: 'Times New Roman'; text-anchor: middle" x="155.014141" y="112.38375" transform="rotate(-0 155.014141 112.38375)">100</text>
     </g>
    </g>
    <g id="xtick_4">
     <g id="line2d_7">
      <path d="M 215.366212 98.44 
L 215.366212 0 
" clip-path="url(#pb6a815a752)" style="fill: none; stroke: #b0b0b0; stroke-width: 0.8; stroke-linecap: square"/>
     </g>
     <g id="line2d_8">
      <g>
       <use xlink:href="#m9fdb0fad51" x="215.366212" y="98.44" style="stroke: #000000; stroke-width: 0.8"/>
      </g>
     </g>
     <g id="text_4">
      <text style="font-size: 10px; font-family: 'Times New Roman'; text-anchor: middle" x="215.366212" y="112.38375" transform="rotate(-0 215.366212 112.38375)">150</text>
     </g>
    </g>
    <g id="xtick_5">
     <g id="line2d_9">
      <path d="M 275.718283 98.44 
L 275.718283 0 
" clip-path="url(#pb6a815a752)" style="fill: none; stroke: #b0b0b0; stroke-width: 0.8; stroke-linecap: square"/>
     </g>
     <g id="line2d_10">
      <g>
       <use xlink:href="#m9fdb0fad51" x="275.718283" y="98.44" style="stroke: #000000; stroke-width: 0.8"/>
      </g>
     </g>
     <g id="text_5">
      <text style="font-size: 10px; font-family: 'Times New Roman'; text-anchor: middle" x="275.718283" y="112.38375" transform="rotate(-0 275.718283 112.38375)">200</text>
     </g>
    </g>
    <g id="xtick_6">
     <g id="line2d_11">
      <path d="M 336.070353 98.44 
L 336.070353 0 
" clip-path="url(#pb6a815a752)" style="fill: none; stroke: #b0b0b0; stroke-width: 0.8; stroke-linecap: square"/>
     </g>
     <g id="line2d_12">
      <g>
       <use xlink:href="#m9fdb0fad51" x="336.070353" y="98.44" style="stroke: #000000; stroke-width: 0.8"/>
      </g>
     </g>
     <g id="text_6">
      <text style="font-size: 10px; font-family: 'Times New Roman'; text-anchor: middle" x="336.070353" y="112.38375" transform="rotate(-0 336.070353 112.38375)">250</text>
     </g>
    </g>
    <g id="xtick_7">
     <g id="line2d_13">
      <path d="M 396.422424 98.44 
L 396.422424 0 
" clip-path="url(#pb6a815a752)" style="fill: none; stroke: #b0b0b0; stroke-width: 0.8; stroke-linecap: square"/>
     </g>
     <g id="line2d_14">
      <g>
       <use xlink:href="#m9fdb0fad51" x="396.422424" y="98.44" style="stroke: #000000; stroke-width: 0.8"/>
      </g>
     </g>
     <g id="text_7">
      <text style="font-size: 10px; font-family: 'Times New Roman'; text-anchor: middle" x="396.422424" y="112.38375" transform="rotate(-0 396.422424 112.38375)">300</text>
     </g>
    </g>
    <g id="xtick_8">
     <g id="line2d_15">
      <path d="M 456.774495 98.44 
L 456.774495 0 
" clip-path="url(#pb6a815a752)" style="fill: none; stroke: #b0b0b0; stroke-width: 0.8; stroke-linecap: square"/>
     </g>
     <g id="line2d_16">
      <g>
       <use xlink:href="#m9fdb0fad51" x="456.774495" y="98.44" style="stroke: #000000; stroke-width: 0.8"/>
      </g>
     </g>
     <g id="text_8">
      <text style="font-size: 10px; font-family: 'Times New Roman'; text-anchor: middle" x="456.774495" y="112.38375" transform="rotate(-0 456.774495 112.38375)">350</text>
     </g>
    </g>
    <g id="xtick_9">
     <g id="line2d_17">
      <path d="M 517.126565 98.44 
L 517.126565 0 
" clip-path="url(#pb6a815a752)" style="fill: none; stroke: #b0b0b0; stroke-width: 0.8; stroke-linecap: square"/>
     </g>
     <g id="line2d_18">
      <g>
       <use xlink:href="#m9fdb0fad51" x="517.126565" y="98.44" style="stroke: #000000; stroke-width: 0.8"/>
      </g>
     </g>
     <g id="text_9">
      <text style="font-size: 10px; font-family: 'Times New Roman'; text-anchor: middle" x="517.126565" y="112.38375" transform="rotate(-0 517.126565 112.38375)">400</text>
     </g>
    </g>
    <g id="text_10">
     <text style="font-size: 12px; font-family: 'Times New Roman'; text-anchor: middle" x="287.155" y="126.855312" transform="rotate(-0 287.155 126.855312)">Simulation Run</text>
    </g>
   </g>
   <g id="matplotlib.axis_2">
    <g id="ytick_1">
     <g id="line2d_19">
      <path d="M 34.31 98.44 
L 540 98.44 
" clip-path="url(#pb6a815a752)" style="fill: none; stroke: #b0b0b0; stroke-width: 0.8; stroke-linecap: square"/>
     </g>
     <g id="line2d_20">
      <defs>
       <path id="m2a9e5cae81" d="M 0 0 
L -3.5 0 
" style="stroke: #000000; stroke-width: 0.8"/>
      </defs>
      <g>
       <use xlink:href="#m2a9e5cae81" x="34.31" y="98.44" style="stroke: #000000; stroke-width: 0.8"/>
      </g>
     </g>
     <g id="text_11">
      <text style="font-size: 10px; font-family: 'Times New Roman'; text-anchor: end" x="27.31" y="101.911875" transform="rotate(-0 27.31 101.911875)">0.0</text>
     </g>
    </g>
    <g id="ytick_2">
     <g id="line2d_21">
      <path d="M 34.31 72.534737 
L 540 72.534737 
" clip-path="url(#pb6a815a752)" style="fill: none; stroke: #b0b0b0; stroke-width: 0.8; stroke-linecap: square"/>
     </g>
     <g id="line2d_22">
      <g>
       <use xlink:href="#m2a9e5cae81" x="34.31" y="72.534737" style="stroke: #000000; stroke-width: 0.8"/>
      </g>
     </g>
     <g id="text_12">
      <text style="font-size: 10px; font-family: 'Times New Roman'; text-anchor: end" x="27.31" y="76.006612" transform="rotate(-0 27.31 76.006612)">0.5</text>
     </g>
    </g>
    <g id="ytick_3">
     <g id="line2d_23">
      <path d="M 34.31 46.629474 
L 540 46.629474 
" clip-path="url(#pb6a815a752)" style="fill: none; stroke: #b0b0b0; stroke-width: 0.8; stroke-linecap: square"/>
     </g>
     <g id="line2d_24">
      <g>
       <use xlink:href="#m2a9e5cae81" x="34.31" y="46.629474" style="stroke: #000000; stroke-width: 0.8"/>
      </g>
     </g>
     <g id="text_13">
      <text style="font-size: 10px; font-family: 'Times New Roman'; text-anchor: end" x="27.31" y="50.101349" transform="rotate(-0 27.31 50.101349)">1.0</text>
     </g>
    </g>
    <g id="ytick_4">
     <g id="line2d_25">
      <path d="M 34.31 20.724211 
L 540 20.724211 
" clip-path="url(#pb6a815a752)" style="fill: none; stroke: #b0b0b0; stroke-width: 0.8; stroke-linecap: square"/>
     </g>
     <g id="line2d_26">
      <g>
       <use xlink:href="#m2a9e5cae81" x="34.31" y="20.724211" style="stroke: #000000; stroke-width: 0.8"/>
      </g>
     </g>
     <g id="text_14">
      <text style="font-size: 10px; font-family: 'Times New Roman'; text-anchor: end" x="27.31" y="24.196086" transform="rotate(-0 27.31 24.196086)">1.5</text>
     </g>
    </g>
    <g id="text_15">
     <text style="font-size: 12px; font-family: 'Times New Roman'; text-anchor: middle" x="8.243125" y="49.22" transform="rotate(-90 8.243125 49.22)">Normalized Value</text>
    </g>
   </g>
   <g id="line2d_27">
    <path d="M 34.31 54.838588 
L 35.517041 61.466845 
L 36.724083 59.411473 
L 37.931124 44.67357 
L 39.138166 46.92478 
L 40.345207 50.338674 
L 41.552248 50.559825 
L 42.75929 49.220123 
L 43.966331 50.148423 
L 45.173373 48.233778 
L 46.380414 48.24094 
L 47.587456 48.943585 
L 48.794497 47.985179 
L 50.001538 49.563111 
L 52.415621 48.720363 
L 53.622663 48.520544 
L 54.829704 47.711149 
L 56.036745 48.279916 
L 57.243787 48.334138 
L 58.450828 49.044646 
L 60.864911 48.400195 
L 62.071953 46.463827 
L 63.278994 45.477579 
L 64.486035 45.984973 
L 65.693077 45.32136 
L 66.900118 45.583909 
L 68.10716 45.714368 
L 69.314201 44.679169 
L 70.521242 44.957801 
L 71.728284 45.057768 
L 72.935325 45.035234 
L 74.142367 45.45322 
L 75.349408 45.166958 
L 77.763491 46.493968 
L 78.970532 46.653937 
L 80.177574 47.103733 
L 81.384615 46.955014 
L 82.591657 46.54705 
L 86.212781 45.740867 
L 87.419822 45.315323 
L 89.833905 44.912532 
L 91.040946 44.576757 
L 92.247988 44.615586 
L 94.662071 44.955588 
L 95.869112 44.953543 
L 98.283195 45.438443 
L 99.490236 45.302449 
L 100.697278 44.75244 
L 101.904319 44.911637 
L 103.111361 44.943053 
L 104.318402 45.169548 
L 105.525443 45.649594 
L 107.939526 44.913594 
L 110.353609 45.266394 
L 111.56065 45.299497 
L 113.974733 45.160324 
L 116.388816 45.146687 
L 117.595858 45.27372 
L 118.802899 45.16165 
L 121.216982 45.565043 
L 127.252189 45.744495 
L 128.45923 45.940118 
L 130.873313 45.88826 
L 132.080354 45.709312 
L 133.287396 45.767249 
L 134.494437 46.0017 
L 135.701479 46.054888 
L 138.115562 46.361852 
L 142.943727 46.550438 
L 144.150769 46.406168 
L 151.393017 46.496449 
L 152.600058 46.295937 
L 153.8071 46.340264 
L 156.221183 46.7064 
L 159.842307 46.940568 
L 161.049348 46.863684 
L 162.25639 46.989327 
L 163.463431 46.86185 
L 168.291597 46.993837 
L 169.498638 46.950152 
L 173.119763 47.199235 
L 174.326804 47.255513 
L 176.740887 47.577758 
L 179.15497 47.673336 
L 185.190177 48.065541 
L 186.397218 47.906868 
L 190.018342 47.793558 
L 193.639467 47.482594 
L 196.053549 47.60248 
L 197.260591 47.617363 
L 200.881715 47.356584 
L 204.502839 47.469362 
L 205.709881 47.596296 
L 208.123963 47.439366 
L 209.331005 47.583983 
L 210.538046 47.578597 
L 211.745088 47.294343 
L 216.573253 47.239201 
L 218.987336 47.082095 
L 220.194378 47.206795 
L 221.401419 47.081366 
L 232.264792 47.202763 
L 234.678875 47.0838 
L 235.885916 47.235434 
L 238.299999 47.241885 
L 246.749289 47.523331 
L 247.95633 47.575673 
L 253.991537 47.287644 
L 255.198579 47.393517 
L 257.612661 47.392655 
L 258.819703 47.474383 
L 260.026744 47.318289 
L 264.85491 47.273567 
L 267.268993 47.224106 
L 272.097158 47.396726 
L 279.339407 47.461394 
L 280.546448 47.269294 
L 281.75349 47.319289 
L 282.960531 47.236165 
L 285.374614 47.363491 
L 293.823904 47.689783 
L 296.237987 47.599031 
L 297.445028 47.409234 
L 304.687277 47.526118 
L 307.101359 47.716802 
L 314.343608 47.817695 
L 319.171773 47.59569 
L 320.378815 47.720456 
L 325.206981 47.702666 
L 334.863312 47.961781 
L 339.691478 47.80373 
L 349.347809 47.803457 
L 352.968933 47.651274 
L 354.175974 47.582592 
L 356.590057 47.690681 
L 372.281596 47.858415 
L 374.695678 47.871066 
L 400.043548 47.950628 
L 402.457631 47.849201 
L 407.285797 47.926094 
L 410.906921 47.889156 
L 416.942128 47.734829 
L 422.977335 47.87047 
L 429.012542 47.801386 
L 454.360412 47.879474 
L 455.567453 46.748049 
L 464.016743 46.840297 
L 476.087157 46.739571 
L 484.536447 46.748477 
L 488.157571 46.694274 
L 494.192778 46.697952 
L 496.606861 46.694461 
L 500.227985 46.586901 
L 515.919524 46.629474 
L 515.919524 46.629474 
" clip-path="url(#pb6a815a752)" style="fill: none; stroke: #4169e1; stroke-width: 1.5; stroke-linecap: square"/>
   </g>
   <g id="line2d_28">
    <path d="M 34.31 98.44 
L 35.517041 94.494881 
L 36.724083 95.051216 
L 37.931124 37.385179 
L 39.138166 47.775799 
L 40.345207 50.987066 
L 41.552248 57.739706 
L 42.75929 61.699069 
L 43.966331 65.162341 
L 45.173373 65.527456 
L 46.380414 68.51946 
L 47.587456 70.525168 
L 48.794497 71.682676 
L 50.001538 70.687339 
L 52.415621 73.708264 
L 53.622663 75.105706 
L 54.829704 75.401982 
L 56.036745 76.091628 
L 57.243787 77.20403 
L 58.450828 77.308638 
L 60.864911 78.754558 
L 62.071953 71.830786 
L 63.278994 70.798896 
L 64.486035 71.284065 
L 65.693077 71.261672 
L 68.10716 72.931883 
L 69.314201 70.991493 
L 70.521242 71.667786 
L 72.935325 73.261909 
L 74.142367 73.484716 
L 75.349408 73.947535 
L 77.763491 72.504078 
L 78.970532 73.101579 
L 80.177574 73.060922 
L 81.384615 73.617943 
L 82.591657 73.625544 
L 85.005739 74.239696 
L 86.212781 74.514683 
L 87.419822 74.330868 
L 88.626864 74.744086 
L 89.833905 75.01598 
L 91.040946 75.028148 
L 92.247988 75.499443 
L 94.662071 76.138438 
L 95.869112 76.567295 
L 99.490236 77.128454 
L 100.697278 76.014972 
L 104.318402 76.759956 
L 105.525443 75.900393 
L 107.939526 75.166506 
L 110.353609 75.546388 
L 113.974733 76.48885 
L 116.388816 77.123147 
L 118.802899 77.546096 
L 121.216982 77.597847 
L 123.631065 78.084952 
L 124.838106 78.168822 
L 126.045147 78.425876 
L 128.45923 78.400989 
L 130.873313 78.843917 
L 132.080354 78.849977 
L 133.287396 79.061285 
L 134.494437 78.882303 
L 135.701479 79.091055 
L 136.90852 79.054037 
L 139.322603 79.368289 
L 141.736686 79.723587 
L 144.150769 79.791902 
L 148.978934 80.488943 
L 151.393017 80.819989 
L 152.600058 80.64416 
L 153.8071 80.804651 
L 156.221183 80.545635 
L 158.635266 80.826229 
L 159.842307 80.696541 
L 162.25639 80.822719 
L 163.463431 80.829702 
L 169.498638 81.524303 
L 170.70568 81.533608 
L 173.119763 81.708531 
L 174.326804 81.818544 
L 175.533845 81.521327 
L 176.740887 81.515844 
L 179.15497 81.712008 
L 181.569052 81.9121 
L 183.983135 81.737675 
L 185.190177 81.839876 
L 186.397218 81.68572 
L 190.018342 82.003457 
L 193.639467 81.977981 
L 194.846508 81.955665 
L 197.260591 82.194288 
L 198.467632 82.181945 
L 199.674674 82.286646 
L 200.881715 82.210491 
L 204.502839 82.488494 
L 206.916922 82.34101 
L 208.123963 82.427489 
L 209.331005 82.264849 
L 210.538046 82.374503 
L 211.745088 81.416477 
L 216.573253 81.790301 
L 217.780295 81.714281 
L 218.987336 81.800093 
L 221.401419 81.580792 
L 223.815502 81.721404 
L 225.022543 81.522667 
L 231.05775 81.935166 
L 234.678875 82.040738 
L 235.885916 81.793551 
L 240.714082 82.063435 
L 243.128164 81.764464 
L 247.95633 82.071078 
L 249.163372 82.067782 
L 250.370413 81.910244 
L 253.991537 82.08432 
L 255.198579 81.989012 
L 258.819703 82.093063 
L 260.026744 81.770872 
L 264.85491 82.034564 
L 272.097158 82.290813 
L 275.718283 82.476016 
L 278.132365 82.519358 
L 279.339407 82.594052 
L 280.546448 81.995349 
L 282.960531 81.980632 
L 284.167573 81.801074 
L 287.788697 81.935448 
L 288.995738 81.970345 
L 290.20278 81.820705 
L 296.237987 82.013702 
L 297.445028 81.383528 
L 299.859111 81.450302 
L 302.273194 81.491588 
L 303.480235 81.557722 
L 304.687277 81.475993 
L 305.894318 81.259816 
L 308.308401 81.298359 
L 317.964732 81.368658 
L 320.378815 80.745488 
L 322.792898 80.786531 
L 325.206981 80.840448 
L 334.863312 81.13277 
L 339.691478 81.157855 
L 344.519643 81.321556 
L 351.761892 81.641547 
L 352.968933 81.243396 
L 356.590057 81.120438 
L 357.797099 81.175449 
L 359.00414 81.118828 
L 361.418223 81.227364 
L 365.039347 81.164317 
L 367.45343 81.239617 
L 369.867513 81.22652 
L 377.109761 81.482527 
L 383.144968 81.549166 
L 384.35201 81.439012 
L 385.559051 81.497145 
L 386.766093 81.022953 
L 391.594258 81.242583 
L 394.008341 81.126283 
L 400.043548 81.266206 
L 403.664672 81.238904 
L 408.492838 81.346354 
L 409.699879 81.260541 
L 414.528045 81.372515 
L 424.184376 81.500122 
L 425.391418 81.336744 
L 432.633666 81.462438 
L 433.840708 81.373231 
L 437.461832 81.468274 
L 438.668873 81.298389 
L 441.082956 81.285135 
L 444.70408 81.286805 
L 451.946329 81.438645 
L 453.15337 81.33628 
L 454.360412 81.359335 
L 455.567453 41.290236 
L 467.637867 42.696487 
L 468.844909 42.694227 
L 477.294199 43.638414 
L 478.50124 43.636491 
L 479.708281 43.784365 
L 480.915323 43.7304 
L 485.743488 44.137955 
L 491.778696 44.761723 
L 496.606861 45.237447 
L 497.813903 45.216597 
L 502.642068 45.666151 
L 503.84911 45.657018 
L 508.677275 46.089683 
L 512.2984 46.381404 
L 514.712482 46.556886 
L 515.919524 46.629474 
L 515.919524 46.629474 
" clip-path="url(#pb6a815a752)" style="fill: none; stroke-dasharray: 5.55,2.4; stroke-dashoffset: 0; stroke: #4169e1; stroke-width: 1.5"/>
   </g>
   <g id="line2d_29">
    <path d="M 34.31 48.186278 
L 35.517041 57.04857 
L 36.724083 54.711091 
L 37.931124 44.275613 
L 39.138166 45.515169 
L 40.345207 47.903445 
L 41.552248 48.129406 
L 42.75929 47.615569 
L 43.966331 48.009828 
L 45.173373 46.038596 
L 46.380414 46.223178 
L 47.587456 47.072895 
L 48.794497 46.435159 
L 50.001538 47.64549 
L 51.20858 47.324159 
L 53.622663 47.303328 
L 54.829704 46.679492 
L 56.036745 47.104961 
L 57.243787 47.10838 
L 58.450828 47.754575 
L 59.65787 47.582779 
L 60.864911 47.155571 
L 62.071953 45.533452 
L 63.278994 44.866563 
L 64.486035 45.289449 
L 65.693077 44.698031 
L 66.900118 44.886066 
L 68.10716 45.280539 
L 69.314201 44.440348 
L 70.521242 44.530537 
L 72.935325 44.351061 
L 74.142367 44.674474 
L 75.349408 44.349605 
L 76.556449 44.89707 
L 77.763491 45.302465 
L 81.384615 45.810043 
L 82.591657 45.47762 
L 85.005739 45.246004 
L 87.419822 44.6658 
L 88.626864 44.654017 
L 89.833905 44.446766 
L 91.040946 43.885364 
L 93.455029 44.302541 
L 97.076153 44.557762 
L 98.283195 44.821235 
L 99.490236 44.725571 
L 100.697278 44.29608 
L 101.904319 44.452671 
L 103.111361 44.463468 
L 104.318402 44.727232 
L 105.525443 45.10851 
L 107.939526 44.563812 
L 111.56065 44.852215 
L 113.974733 44.676974 
L 116.388816 44.659353 
L 117.595858 44.759462 
L 118.802899 44.597064 
L 121.216982 44.962465 
L 122.424023 44.942882 
L 123.631065 45.046962 
L 126.045147 45.00696 
L 128.45923 45.296292 
L 133.287396 45.190698 
L 134.494437 45.331765 
L 136.90852 45.426428 
L 140.529644 45.624751 
L 141.736686 45.528689 
L 142.943727 45.716469 
L 146.564851 45.576983 
L 155.014141 45.740192 
L 157.428224 45.905479 
L 158.635266 45.934731 
L 159.842307 46.110093 
L 161.049348 46.094584 
L 162.25639 46.200525 
L 164.670473 46.112849 
L 174.326804 46.345728 
L 175.533845 46.539794 
L 180.362011 46.797721 
L 181.569052 46.794163 
L 183.983135 46.986014 
L 185.190177 47.021015 
L 186.397218 46.857861 
L 191.225384 46.688443 
L 193.639467 46.469442 
L 196.053549 46.579389 
L 197.260591 46.577522 
L 198.467632 46.4597 
L 200.881715 46.385702 
L 202.088756 46.327925 
L 206.916922 46.507088 
L 208.123963 46.495495 
L 210.538046 46.624447 
L 211.745088 46.451814 
L 218.987336 46.348565 
L 220.194378 46.421859 
L 221.401419 46.304077 
L 240.714082 46.408518 
L 244.335206 46.604505 
L 246.749289 46.629824 
L 249.163372 46.622738 
L 251.577454 46.522605 
L 258.819703 46.633928 
L 261.233786 46.579498 
L 270.890117 46.653611 
L 274.511241 46.73362 
L 279.339407 46.785768 
L 280.546448 46.66483 
L 288.995738 46.844571 
L 291.409821 46.947301 
L 296.237987 46.930434 
L 298.652069 46.791886 
L 301.066152 46.796895 
L 304.687277 46.932671 
L 307.101359 47.066772 
L 310.722484 47.102393 
L 313.136566 47.163568 
L 319.171773 47.003561 
L 321.585856 47.106809 
L 323.999939 47.101682 
L 330.035146 47.168225 
L 334.863312 47.286544 
L 338.484436 47.134138 
L 342.10556 47.188863 
L 344.519643 47.242045 
L 361.418223 47.009653 
L 365.039347 47.14629 
L 369.867513 47.095355 
L 380.730886 47.197711 
L 384.35201 47.340424 
L 407.285797 47.272696 
L 413.321004 47.227691 
L 420.563252 47.264885 
L 424.184376 47.242617 
L 426.598459 47.195149 
L 447.118163 47.253469 
L 454.360412 47.34008 
L 455.567453 46.75002 
L 462.809702 46.814133 
L 492.985737 46.704328 
L 497.813903 46.646385 
L 502.642068 46.635985 
L 505.056151 46.682175 
L 515.919524 46.629474 
L 515.919524 46.629474 
" clip-path="url(#pb6a815a752)" style="fill: none; stroke: #ff8c00; stroke-width: 1.5; stroke-linecap: square"/>
   </g>
   <g id="line2d_30">
    <path d="M 34.31 98.44 
L 35.517041 79.890107 
L 36.724083 83.492482 
L 37.931124 10.068838 
L 39.138166 26.29149 
L 40.345207 31.580455 
L 41.552248 41.059463 
L 42.75929 47.795516 
L 43.966331 53.12898 
L 45.173373 49.400328 
L 46.380414 53.778011 
L 47.587456 55.62403 
L 48.794497 57.764879 
L 50.001538 56.172437 
L 52.415621 61.135707 
L 53.622663 63.327502 
L 54.829704 63.715627 
L 56.036745 64.773637 
L 57.243787 66.456903 
L 58.450828 66.007457 
L 59.65787 67.335278 
L 60.864911 67.739348 
L 62.071953 54.724917 
L 63.278994 53.952546 
L 64.486035 54.60767 
L 65.693077 54.083201 
L 66.900118 55.4419 
L 68.10716 55.895529 
L 69.314201 52.478602 
L 71.728284 55.279391 
L 72.935325 56.454042 
L 75.349408 57.213802 
L 76.556449 55.881385 
L 77.763491 55.634255 
L 78.970532 56.47012 
L 80.177574 57.010699 
L 81.384615 57.98609 
L 82.591657 57.928793 
L 85.005739 59.546775 
L 86.212781 59.70621 
L 87.419822 59.548128 
L 88.626864 60.392128 
L 89.833905 60.734998 
L 91.040946 58.021913 
L 93.455029 58.650656 
L 95.869112 60.139088 
L 97.076153 60.468608 
L 98.283195 60.302826 
L 99.490236 60.87951 
L 100.697278 59.154048 
L 101.904319 59.518958 
L 103.111361 60.188441 
L 104.318402 59.883737 
L 105.525443 58.500595 
L 106.732485 57.765054 
L 107.939526 57.649144 
L 110.353609 58.431111 
L 111.56065 59.033865 
L 112.767692 59.430391 
L 116.388816 61.001217 
L 117.595858 61.372734 
L 118.802899 61.458785 
L 120.00994 61.232683 
L 121.216982 61.331865 
L 122.424023 61.826713 
L 124.838106 62.508548 
L 126.045147 62.955443 
L 127.252189 63.110403 
L 128.45923 63.080672 
L 130.873313 63.921426 
L 132.080354 63.981987 
L 133.287396 64.284407 
L 134.494437 64.300919 
L 135.701479 64.69899 
L 141.736686 65.981565 
L 142.943727 65.588717 
L 147.771893 66.732416 
L 151.393017 67.562895 
L 152.600058 67.499163 
L 153.8071 67.797211 
L 155.014141 67.541393 
L 156.221183 67.525608 
L 158.635266 68.040368 
L 159.842307 67.57453 
L 161.049348 67.85975 
L 163.463431 67.941614 
L 168.291597 68.974848 
L 173.119763 69.739463 
L 174.326804 69.871397 
L 175.533845 69.07278 
L 176.740887 69.138945 
L 179.15497 69.501701 
L 180.362011 69.516412 
L 181.569052 69.751199 
L 182.776094 69.41217 
L 185.190177 69.759019 
L 186.397218 69.192693 
L 190.018342 69.810364 
L 194.846508 69.414237 
L 197.260591 69.809771 
L 198.467632 69.572844 
L 199.674674 69.78162 
L 204.502839 69.95527 
L 205.709881 69.837454 
L 206.916922 69.890609 
L 208.123963 70.082931 
L 209.331005 69.872419 
L 210.538046 70.05263 
L 211.745088 69.209731 
L 217.780295 70.043496 
L 220.194378 70.109454 
L 221.401419 69.783208 
L 223.815502 70.084074 
L 225.022543 69.846448 
L 228.643668 70.362767 
L 229.850709 70.383634 
L 231.05775 70.536782 
L 234.678875 70.627339 
L 235.885916 70.123991 
L 240.714082 70.528263 
L 241.921123 70.382215 
L 243.128164 70.115253 
L 246.749289 70.514538 
L 249.163372 70.604308 
L 250.370413 70.435316 
L 252.784496 70.713778 
L 253.991537 70.76628 
L 255.198579 70.615793 
L 258.819703 70.960288 
L 260.026744 70.92294 
L 268.476034 71.843493 
L 269.683076 71.82371 
L 270.890117 71.948459 
L 272.097158 71.937359 
L 275.718283 72.304883 
L 276.925324 72.278428 
L 279.339407 72.520799 
L 280.546448 71.942536 
L 281.75349 72.066271 
L 282.960531 72.000153 
L 284.167573 71.5945 
L 285.374614 71.722733 
L 287.788697 71.762636 
L 288.995738 71.807256 
L 290.20278 71.503608 
L 292.616862 71.738275 
L 296.237987 71.802406 
L 297.445028 71.141402 
L 299.859111 71.255021 
L 301.066152 71.228894 
L 303.480235 71.379716 
L 305.894318 70.908819 
L 307.101359 70.891367 
L 308.308401 71.011503 
L 309.515442 70.941011 
L 310.722484 71.03844 
L 311.929525 70.813163 
L 315.550649 71.04739 
L 317.964732 71.152513 
L 320.378815 70.2149 
L 321.585856 70.332961 
L 323.999939 70.349891 
L 328.828105 70.776021 
L 334.863312 70.902237 
L 336.070353 70.648644 
L 337.277395 70.758907 
L 338.484436 70.53747 
L 340.898519 70.741174 
L 343.312602 70.682844 
L 348.140767 71.029859 
L 349.347809 70.94721 
L 351.761892 71.072461 
L 352.968933 70.619175 
L 355.383016 70.121831 
L 357.797099 70.32357 
L 359.00414 70.147604 
L 361.418223 70.321639 
L 362.625264 70.10554 
L 369.867513 70.290808 
L 373.488637 70.53765 
L 374.695678 70.513015 
L 379.523844 70.820929 
L 381.937927 70.531574 
L 383.144968 70.607974 
L 384.35201 70.432976 
L 385.559051 70.523595 
L 386.766093 70.057591 
L 391.594258 70.390834 
L 392.8013 70.272736 
L 402.457631 70.619139 
L 408.492838 70.844553 
L 410.906921 70.909599 
L 414.528045 71.156491 
L 418.149169 71.093915 
L 419.356211 71.154716 
L 420.563252 71.094209 
L 424.184376 71.311505 
L 425.391418 70.986967 
L 429.012542 71.170256 
L 431.426625 71.213039 
L 432.633666 71.250341 
L 433.840708 71.106344 
L 436.254791 71.235095 
L 438.668873 71.208561 
L 439.875915 71.289249 
L 444.70408 71.1969 
L 448.325205 71.326211 
L 451.946329 71.439861 
L 453.15337 71.127951 
L 454.360412 71.191589 
L 455.567453 42.570436 
L 459.188577 42.915423 
L 467.637867 43.907687 
L 468.844909 43.83666 
L 472.466033 44.255979 
L 476.087157 44.524243 
L 477.294199 44.667465 
L 478.50124 44.553294 
L 479.708281 44.696002 
L 480.915323 44.44408 
L 482.122364 44.580866 
L 483.329406 44.587838 
L 485.743488 44.754798 
L 494.192778 45.591782 
L 496.606861 45.707554 
L 499.020944 45.756606 
L 502.642068 46.005665 
L 503.84911 45.857068 
L 513.505441 46.764996 
L 515.919524 46.629474 
L 515.919524 46.629474 
" clip-path="url(#pb6a815a752)" style="fill: none; stroke-dasharray: 5.55,2.4; stroke-dashoffset: 0; stroke: #ff8c00; stroke-width: 1.5"/>
   </g>
   <g id="patch_3">
    <path d="M 34.31 98.44 
L 34.31 0 
" style="fill: none; stroke: #000000; stroke-width: 0.8; stroke-linejoin: miter; stroke-linecap: square"/>
   </g>
   <g id="patch_4">
    <path d="M 540 98.44 
L 540 0 
" style="fill: none; stroke: #000000; stroke-width: 0.8; stroke-linejoin: miter; stroke-linecap: square"/>
   </g>
   <g id="patch_5">
    <path d="M 34.31 98.44 
L 540 98.44 
" style="fill: none; stroke: #000000; stroke-width: 0.8; stroke-linejoin: miter; stroke-linecap: square"/>
   </g>
   <g id="patch_6">
    <path d="M 34.31 0 
L 540 0 
" style="fill: none; stroke: #000000; stroke-width: 0.8; stroke-linejoin: miter; stroke-linecap: square"/>
   </g>
  </g>
 </g>
 <defs>
  <clipPath id="pb6a815a752">
   <rect x="34.31" y="0" width="505.69" height="98.44"/>
  </clipPath>
 </defs>
</svg>
