<?xml version="1.0" encoding="utf-8" standalone="no"?>
<!DOCTYPE svg PUBLIC "-//W3C//DTD SVG 1.1//EN"
  "http://www.w3.org/Graphics/SVG/1.1/DTD/svg11.dtd">
<svg xmlns:xlink="http://www.w3.org/1999/xlink" width="540pt" height="129.6pt" viewBox="0 0 540 129.6" xmlns="http://www.w3.org/2000/svg" version="1.1">
 <metadata>
  <rdf:RDF xmlns:dc="http://purl.org/dc/elements/1.1/" xmlns:cc="http://creativecommons.org/ns#" xmlns:rdf="http://www.w3.org/1999/02/22-rdf-syntax-ns#">
   <cc:Work>
    <dc:type rdf:resource="http://purl.org/dc/dcmitype/StillImage"/>
    <dc:date>2025-04-05T22:44:00.449275</dc:date>
    <dc:format>image/svg+xml</dc:format>
    <dc:creator>
     <cc:Agent>
      <dc:title>Matplotlib v3.10.1, https://matplotlib.org/</dc:title>
     </cc:Agent>
    </dc:creator>
   </cc:Work>
  </rdf:RDF>
 </metadata>
 <defs>
  <style type="text/css">*{stroke-linejoin: round; stroke-linecap: butt}</style>
 </defs>
 <g id="figure_1">
  <g id="patch_1">
   <path d="M 0 129.6 
L 540 129.6 
L 540 0 
L 0 0 
z
" style="fill: #ffffff"/>
  </g>
  <g id="axes_1">
   <g id="patch_2">
    <path d="M 34.31 98.44 
L 540 98.44 
L 540 0 
L 34.31 0 
z
" style="fill: #ffffff"/>
   </g>
   <g id="matplotlib.axis_1">
    <g id="xtick_1">
     <g id="line2d_1">
      <path d="M 34.31 98.44 
L 34.31 0 
" clip-path="url(#p78a4b754e1)" style="fill: none; stroke: #b0b0b0; stroke-width: 0.8; stroke-linecap: square"/>
     </g>
     <g id="line2d_2">
      <defs>
       <path id="mfb2d570ff0" d="M 0 0 
L 0 3.5 
" style="stroke: #000000; stroke-width: 0.8"/>
      </defs>
      <g>
       <use xlink:href="#mfb2d570ff0" x="34.31" y="98.44" style="stroke: #000000; stroke-width: 0.8"/>
      </g>
     </g>
     <g id="text_1">
      <text style="font-size: 10px; font-family: 'Times New Roman'; text-anchor: middle" x="34.31" y="112.38375" transform="rotate(-0 34.31 112.38375)">0</text>
     </g>
    </g>
    <g id="xtick_2">
     <g id="line2d_3">
      <path d="M 94.662071 98.44 
L 94.662071 0 
" clip-path="url(#p78a4b754e1)" style="fill: none; stroke: #b0b0b0; stroke-width: 0.8; stroke-linecap: square"/>
     </g>
     <g id="line2d_4">
      <g>
       <use xlink:href="#mfb2d570ff0" x="94.662071" y="98.44" style="stroke: #000000; stroke-width: 0.8"/>
      </g>
     </g>
     <g id="text_2">
      <text style="font-size: 10px; font-family: 'Times New Roman'; text-anchor: middle" x="94.662071" y="112.38375" transform="rotate(-0 94.662071 112.38375)">50</text>
     </g>
    </g>
    <g id="xtick_3">
     <g id="line2d_5">
      <path d="M 155.014141 98.44 
L 155.014141 0 
" clip-path="url(#p78a4b754e1)" style="fill: none; stroke: #b0b0b0; stroke-width: 0.8; stroke-linecap: square"/>
     </g>
     <g id="line2d_6">
      <g>
       <use xlink:href="#mfb2d570ff0" x="155.014141" y="98.44" style="stroke: #000000; stroke-width: 0.8"/>
      </g>
     </g>
     <g id="text_3">
      <text style="font-size: 10px; font-family: 'Times New Roman'; text-anchor: middle" x="155.014141" y="112.38375" transform="rotate(-0 155.014141 112.38375)">100</text>
     </g>
    </g>
    <g id="xtick_4">
     <g id="line2d_7">
      <path d="M 215.366212 98.44 
L 215.366212 0 
" clip-path="url(#p78a4b754e1)" style="fill: none; stroke: #b0b0b0; stroke-width: 0.8; stroke-linecap: square"/>
     </g>
     <g id="line2d_8">
      <g>
       <use xlink:href="#mfb2d570ff0" x="215.366212" y="98.44" style="stroke: #000000; stroke-width: 0.8"/>
      </g>
     </g>
     <g id="text_4">
      <text style="font-size: 10px; font-family: 'Times New Roman'; text-anchor: middle" x="215.366212" y="112.38375" transform="rotate(-0 215.366212 112.38375)">150</text>
     </g>
    </g>
    <g id="xtick_5">
     <g id="line2d_9">
      <path d="M 275.718283 98.44 
L 275.718283 0 
" clip-path="url(#p78a4b754e1)" style="fill: none; stroke: #b0b0b0; stroke-width: 0.8; stroke-linecap: square"/>
     </g>
     <g id="line2d_10">
      <g>
       <use xlink:href="#mfb2d570ff0" x="275.718283" y="98.44" style="stroke: #000000; stroke-width: 0.8"/>
      </g>
     </g>
     <g id="text_5">
      <text style="font-size: 10px; font-family: 'Times New Roman'; text-anchor: middle" x="275.718283" y="112.38375" transform="rotate(-0 275.718283 112.38375)">200</text>
     </g>
    </g>
    <g id="xtick_6">
     <g id="line2d_11">
      <path d="M 336.070353 98.44 
L 336.070353 0 
" clip-path="url(#p78a4b754e1)" style="fill: none; stroke: #b0b0b0; stroke-width: 0.8; stroke-linecap: square"/>
     </g>
     <g id="line2d_12">
      <g>
       <use xlink:href="#mfb2d570ff0" x="336.070353" y="98.44" style="stroke: #000000; stroke-width: 0.8"/>
      </g>
     </g>
     <g id="text_6">
      <text style="font-size: 10px; font-family: 'Times New Roman'; text-anchor: middle" x="336.070353" y="112.38375" transform="rotate(-0 336.070353 112.38375)">250</text>
     </g>
    </g>
    <g id="xtick_7">
     <g id="line2d_13">
      <path d="M 396.422424 98.44 
L 396.422424 0 
" clip-path="url(#p78a4b754e1)" style="fill: none; stroke: #b0b0b0; stroke-width: 0.8; stroke-linecap: square"/>
     </g>
     <g id="line2d_14">
      <g>
       <use xlink:href="#mfb2d570ff0" x="396.422424" y="98.44" style="stroke: #000000; stroke-width: 0.8"/>
      </g>
     </g>
     <g id="text_7">
      <text style="font-size: 10px; font-family: 'Times New Roman'; text-anchor: middle" x="396.422424" y="112.38375" transform="rotate(-0 396.422424 112.38375)">300</text>
     </g>
    </g>
    <g id="xtick_8">
     <g id="line2d_15">
      <path d="M 456.774495 98.44 
L 456.774495 0 
" clip-path="url(#p78a4b754e1)" style="fill: none; stroke: #b0b0b0; stroke-width: 0.8; stroke-linecap: square"/>
     </g>
     <g id="line2d_16">
      <g>
       <use xlink:href="#mfb2d570ff0" x="456.774495" y="98.44" style="stroke: #000000; stroke-width: 0.8"/>
      </g>
     </g>
     <g id="text_8">
      <text style="font-size: 10px; font-family: 'Times New Roman'; text-anchor: middle" x="456.774495" y="112.38375" transform="rotate(-0 456.774495 112.38375)">350</text>
     </g>
    </g>
    <g id="xtick_9">
     <g id="line2d_17">
      <path d="M 517.126565 98.44 
L 517.126565 0 
" clip-path="url(#p78a4b754e1)" style="fill: none; stroke: #b0b0b0; stroke-width: 0.8; stroke-linecap: square"/>
     </g>
     <g id="line2d_18">
      <g>
       <use xlink:href="#mfb2d570ff0" x="517.126565" y="98.44" style="stroke: #000000; stroke-width: 0.8"/>
      </g>
     </g>
     <g id="text_9">
      <text style="font-size: 10px; font-family: 'Times New Roman'; text-anchor: middle" x="517.126565" y="112.38375" transform="rotate(-0 517.126565 112.38375)">400</text>
     </g>
    </g>
    <g id="text_10">
     <text style="font-size: 12px; font-family: 'Times New Roman'; text-anchor: middle" x="287.155" y="126.855312" transform="rotate(-0 287.155 126.855312)">Simulation Run</text>
    </g>
   </g>
   <g id="matplotlib.axis_2">
    <g id="ytick_1">
     <g id="line2d_19">
      <path d="M 34.31 98.44 
L 540 98.44 
" clip-path="url(#p78a4b754e1)" style="fill: none; stroke: #b0b0b0; stroke-width: 0.8; stroke-linecap: square"/>
     </g>
     <g id="line2d_20">
      <defs>
       <path id="mb8051c3e70" d="M 0 0 
L -3.5 0 
" style="stroke: #000000; stroke-width: 0.8"/>
      </defs>
      <g>
       <use xlink:href="#mb8051c3e70" x="34.31" y="98.44" style="stroke: #000000; stroke-width: 0.8"/>
      </g>
     </g>
     <g id="text_11">
      <text style="font-size: 10px; font-family: 'Times New Roman'; text-anchor: end" x="27.31" y="101.911875" transform="rotate(-0 27.31 101.911875)">0.0</text>
     </g>
    </g>
    <g id="ytick_2">
     <g id="line2d_21">
      <path d="M 34.31 57.423333 
L 540 57.423333 
" clip-path="url(#p78a4b754e1)" style="fill: none; stroke: #b0b0b0; stroke-width: 0.8; stroke-linecap: square"/>
     </g>
     <g id="line2d_22">
      <g>
       <use xlink:href="#mb8051c3e70" x="34.31" y="57.423333" style="stroke: #000000; stroke-width: 0.8"/>
      </g>
     </g>
     <g id="text_12">
      <text style="font-size: 10px; font-family: 'Times New Roman'; text-anchor: end" x="27.31" y="60.895208" transform="rotate(-0 27.31 60.895208)">0.5</text>
     </g>
    </g>
    <g id="ytick_3">
     <g id="line2d_23">
      <path d="M 34.31 16.406667 
L 540 16.406667 
" clip-path="url(#p78a4b754e1)" style="fill: none; stroke: #b0b0b0; stroke-width: 0.8; stroke-linecap: square"/>
     </g>
     <g id="line2d_24">
      <g>
       <use xlink:href="#mb8051c3e70" x="34.31" y="16.406667" style="stroke: #000000; stroke-width: 0.8"/>
      </g>
     </g>
     <g id="text_13">
      <text style="font-size: 10px; font-family: 'Times New Roman'; text-anchor: end" x="27.31" y="19.878542" transform="rotate(-0 27.31 19.878542)">1.0</text>
     </g>
    </g>
    <g id="text_14">
     <text style="font-size: 12px; font-family: 'Times New Roman'; text-anchor: middle" x="8.243125" y="49.22" transform="rotate(-90 8.243125 49.22)">Normalized Value</text>
    </g>
   </g>
   <g id="line2d_25">
    <path d="M 34.31 25.757714 
L 35.517041 27.420654 
L 36.724083 31.596002 
L 37.931124 30.220343 
L 39.138166 29.20275 
L 40.345207 25.604178 
L 41.552248 24.526172 
L 42.75929 24.99748 
L 43.966331 25.925987 
L 45.173373 23.710088 
L 46.380414 19.677195 
L 47.587456 18.934846 
L 48.794497 20.213581 
L 50.001538 18.35806 
L 51.20858 20.246129 
L 52.415621 21.322791 
L 53.622663 19.311382 
L 54.829704 20.30186 
L 56.036745 20.919977 
L 57.243787 19.703052 
L 58.450828 18.298148 
L 59.65787 19.22234 
L 60.864911 17.808221 
L 62.071953 17.862414 
L 63.278994 18.643266 
L 64.486035 17.053858 
L 65.693077 16.763171 
L 66.900118 16.712294 
L 68.10716 16.402317 
L 69.314201 17.449182 
L 70.521242 17.191641 
L 71.728284 16.370433 
L 74.142367 15.33304 
L 76.556449 16.829021 
L 77.763491 17.367928 
L 78.970532 17.346593 
L 80.177574 18.305329 
L 81.384615 18.880758 
L 82.591657 18.621484 
L 83.798698 18.939484 
L 85.005739 18.704903 
L 86.212781 18.845128 
L 88.626864 17.22063 
L 89.833905 17.223235 
L 92.247988 16.872466 
L 94.662071 17.874679 
L 95.869112 18.571613 
L 99.490236 19.715749 
L 100.697278 19.061849 
L 103.111361 19.452535 
L 105.525443 18.362199 
L 106.732485 18.256668 
L 107.939526 18.600811 
L 111.56065 18.687142 
L 112.767692 18.437337 
L 113.974733 18.530848 
L 115.181775 18.809749 
L 116.388816 18.600647 
L 117.595858 18.615053 
L 118.802899 18.370284 
L 120.00994 18.627301 
L 121.216982 18.767884 
L 122.424023 19.044411 
L 123.631065 19.056751 
L 124.838106 19.42002 
L 127.252189 18.990722 
L 128.45923 18.952238 
L 133.287396 19.416034 
L 135.701479 19.151986 
L 136.90852 19.346771 
L 141.736686 18.980783 
L 142.943727 19.225463 
L 145.35781 18.900574 
L 146.564851 18.948415 
L 147.771893 18.737145 
L 153.8071 19.570214 
L 155.014141 19.316829 
L 156.221183 19.325818 
L 162.25639 18.837041 
L 163.463431 19.248844 
L 164.670473 19.501214 
L 167.084555 19.601362 
L 168.291597 19.302041 
L 170.70568 19.21857 
L 171.912721 18.72406 
L 173.119763 18.758867 
L 175.533845 18.366812 
L 176.740887 18.439789 
L 180.362011 19.026343 
L 181.569052 19.113822 
L 182.776094 18.715512 
L 183.983135 18.483945 
L 185.190177 18.572792 
L 186.397218 18.23633 
L 187.604259 18.529626 
L 190.018342 18.835444 
L 191.225384 19.005797 
L 193.639467 18.945056 
L 194.846508 19.01877 
L 196.053549 18.797504 
L 199.674674 19.130178 
L 203.295798 18.927438 
L 204.502839 19.142059 
L 205.709881 18.986724 
L 214.159171 18.820359 
L 215.366212 18.876058 
L 216.573253 19.064069 
L 221.401419 18.689814 
L 223.815502 18.688341 
L 228.643668 18.318893 
L 229.850709 18.39664 
L 231.05775 18.643895 
L 232.264792 18.467767 
L 234.678875 18.440156 
L 235.885916 18.352894 
L 237.092957 18.502802 
L 239.50704 18.522114 
L 240.714082 18.607909 
L 243.128164 18.23861 
L 244.335206 18.254065 
L 245.542247 18.089114 
L 246.749289 18.23283 
L 249.163372 18.177938 
L 251.577454 18.053159 
L 253.991537 18.162645 
L 256.40562 18.237609 
L 258.819703 18.20693 
L 260.026744 18.319214 
L 261.233786 18.169072 
L 262.440827 18.320511 
L 263.647868 18.327731 
L 264.85491 18.18168 
L 270.890117 18.261257 
L 272.097158 18.399882 
L 273.3042 18.391933 
L 274.511241 18.245713 
L 278.132365 18.234513 
L 279.339407 18.390287 
L 280.546448 18.193032 
L 282.960531 18.194979 
L 285.374614 18.134103 
L 286.581655 18.235851 
L 287.788697 18.182304 
L 288.995738 18.261768 
L 292.616862 17.878765 
L 293.823904 17.743715 
L 296.237987 17.852498 
L 297.445028 17.682291 
L 298.652069 16.798337 
L 299.859111 16.869376 
L 303.480235 16.80033 
L 307.101359 16.889151 
L 308.308401 17.10039 
L 310.722484 16.933865 
L 314.343608 17.174737 
L 315.550649 16.891868 
L 316.757691 16.896744 
L 317.964732 17.033358 
L 320.378815 17.051088 
L 321.585856 17.191189 
L 327.621063 17.357232 
L 330.035146 17.3635 
L 331.242188 17.298511 
L 333.65627 17.47814 
L 336.070353 17.450106 
L 338.484436 17.333289 
L 340.898519 17.326838 
L 343.312602 17.146635 
L 344.519643 17.244816 
L 345.726685 16.970003 
L 346.933726 16.883823 
L 354.175974 16.953102 
L 356.590057 17.006401 
L 357.797099 17.090307 
L 360.211182 16.936486 
L 361.418223 17.015196 
L 365.039347 17.019698 
L 371.074554 16.97735 
L 372.281596 16.960599 
L 373.488637 17.07652 
L 378.316803 16.950772 
L 384.35201 16.667185 
L 390.387217 16.802138 
L 391.594258 16.592911 
L 396.422424 16.642679 
L 397.629465 16.541482 
L 398.836507 16.592363 
L 402.457631 16.07896 
L 403.664672 16.16355 
L 404.871714 16.045389 
L 409.699879 16.148486 
L 412.113962 16.14156 
L 419.356211 16.354314 
L 420.563252 16.308033 
L 421.770294 16.386822 
L 424.184376 16.278152 
L 427.805501 16.362371 
L 430.219583 16.368385 
L 436.254791 16.490709 
L 437.461832 16.464474 
L 438.668873 16.589829 
L 442.289998 16.637785 
L 445.911122 16.805371 
L 450.739288 16.61764 
L 453.15337 16.766203 
L 454.360412 16.609761 
L 460.395619 16.510266 
L 462.809702 16.517617 
L 465.223784 16.385967 
L 476.087157 16.168962 
L 480.915323 16.373817 
L 486.95053 16.281771 
L 489.364613 16.38492 
L 501.435027 16.345945 
L 503.84911 16.4911 
L 507.470234 16.464452 
L 509.884317 16.470228 
L 512.2984 16.436463 
L 513.505441 16.338607 
L 515.919524 16.406667 
L 515.919524 16.406667 
" clip-path="url(#p78a4b754e1)" style="fill: none; stroke: #4169e1; stroke-width: 1.5; stroke-linecap: square"/>
   </g>
   <g id="line2d_26">
    <path d="M 34.31 98.44 
L 35.517041 98.017797 
L 36.724083 92.835196 
L 37.931124 93.369612 
L 39.138166 93.751312 
L 40.345207 84.647251 
L 41.552248 85.553103 
L 42.75929 86.926568 
L 43.966331 87.152837 
L 45.173373 81.53455 
L 46.380414 58.239979 
L 47.587456 60.664477 
L 48.794497 60.574499 
L 50.001538 56.445672 
L 51.20858 51.625697 
L 52.415621 51.896873 
L 53.622663 44.751698 
L 54.829704 45.188096 
L 56.036745 46.940843 
L 57.243787 45.219945 
L 58.450828 41.727363 
L 59.65787 41.566718 
L 60.864911 37.32266 
L 62.071953 39.858902 
L 63.278994 39.967975 
L 64.486035 32.574634 
L 66.900118 36.945188 
L 68.10716 38.654941 
L 69.314201 35.795474 
L 70.521242 37.51247 
L 71.728284 36.224644 
L 72.935325 36.563537 
L 74.142367 37.247694 
L 75.349408 36.281168 
L 76.556449 34.816543 
L 77.763491 34.939854 
L 78.970532 36.608339 
L 80.177574 32.861028 
L 81.384615 32.528909 
L 82.591657 33.725964 
L 83.798698 34.633769 
L 85.005739 35.764774 
L 86.212781 37.060122 
L 87.419822 34.471587 
L 88.626864 30.811052 
L 89.833905 32.249918 
L 91.040946 33.510074 
L 92.247988 34.473685 
L 94.662071 33.225047 
L 95.869112 30.697176 
L 97.076153 30.610348 
L 98.283195 30.845309 
L 99.490236 30.919568 
L 100.697278 28.534802 
L 101.904319 29.329372 
L 103.111361 30.281288 
L 104.318402 28.920987 
L 105.525443 27.281472 
L 106.732485 28.345987 
L 107.939526 28.373534 
L 110.353609 30.546196 
L 111.56065 31.463117 
L 112.767692 31.858643 
L 113.974733 32.764281 
L 115.181775 32.934415 
L 116.388816 33.429839 
L 117.595858 34.356369 
L 120.00994 34.789011 
L 121.216982 35.443689 
L 122.424023 35.442741 
L 123.631065 36.280984 
L 124.838106 35.587787 
L 127.252189 36.129228 
L 128.45923 36.900335 
L 130.873313 38.138567 
L 132.080354 38.410604 
L 133.287396 39.096238 
L 134.494437 39.640143 
L 135.701479 40.040326 
L 136.90852 40.227011 
L 139.322603 41.480469 
L 141.736686 42.171609 
L 142.943727 41.96731 
L 144.150769 41.94034 
L 145.35781 42.377514 
L 146.564851 42.941427 
L 147.771893 42.885046 
L 150.185976 43.233768 
L 151.393017 42.672347 
L 152.600058 42.790401 
L 153.8071 43.303502 
L 155.014141 42.869174 
L 156.221183 43.41274 
L 158.635266 44.178611 
L 159.842307 44.206007 
L 161.049348 44.705329 
L 162.25639 45.061669 
L 163.463431 42.785584 
L 164.670473 42.245986 
L 167.084555 43.168915 
L 168.291597 42.144075 
L 170.70568 43.032556 
L 171.912721 39.258161 
L 173.119763 39.747078 
L 175.533845 39.38045 
L 176.740887 39.780804 
L 177.947928 39.492227 
L 179.15497 39.527517 
L 180.362011 39.094614 
L 181.569052 39.434557 
L 182.776094 36.931101 
L 183.983135 36.407986 
L 185.190177 36.749655 
L 186.397218 35.057645 
L 187.604259 33.884867 
L 188.811301 34.15606 
L 190.018342 33.882222 
L 191.225384 33.79904 
L 192.432425 34.155359 
L 194.846508 34.995738 
L 196.053549 34.464077 
L 197.260591 34.559537 
L 199.674674 35.07855 
L 202.088756 35.898654 
L 204.502839 34.734943 
L 205.709881 34.65732 
L 208.123963 35.503969 
L 209.331005 35.525567 
L 210.538046 35.953478 
L 211.745088 36.103485 
L 212.952129 36.521733 
L 214.159171 36.733291 
L 215.366212 37.070896 
L 216.573253 36.65973 
L 217.780295 36.857311 
L 218.987336 37.177544 
L 220.194378 37.073194 
L 222.60846 37.679575 
L 223.815502 38.02076 
L 225.022543 38.224102 
L 226.229585 37.702641 
L 227.436626 38.054131 
L 228.643668 38.048726 
L 229.850709 38.26972 
L 231.05775 37.115202 
L 232.264792 36.710139 
L 234.678875 37.327297 
L 235.885916 37.496914 
L 237.092957 37.281117 
L 239.50704 37.870572 
L 240.714082 38.030548 
L 243.128164 36.933928 
L 244.335206 37.279046 
L 245.542247 36.89958 
L 246.749289 36.692267 
L 249.163372 37.273687 
L 250.370413 37.371502 
L 252.784496 38.016553 
L 253.991537 38.033736 
L 256.40562 38.590455 
L 258.819703 39.214995 
L 260.026744 39.17007 
L 262.440827 38.488567 
L 263.647868 38.800936 
L 264.85491 38.489521 
L 266.061951 38.798076 
L 267.268993 38.917012 
L 270.890117 39.815181 
L 272.097158 39.533281 
L 273.3042 39.827384 
L 274.511241 39.470861 
L 275.718283 39.763504 
L 278.132365 39.808255 
L 279.339407 39.343609 
L 280.546448 38.420025 
L 282.960531 38.828484 
L 284.167573 38.90515 
L 285.374614 39.176497 
L 286.581655 39.128358 
L 287.788697 39.317526 
L 288.995738 39.392987 
L 290.20278 38.866198 
L 291.409821 38.889036 
L 293.823904 38.233591 
L 295.030945 38.255181 
L 296.237987 38.51706 
L 297.445028 37.826447 
L 298.652069 11.976057 
L 301.066152 12.507528 
L 305.894318 13.623133 
L 307.101359 13.973484 
L 308.308401 12.797474 
L 309.515442 12.716141 
L 310.722484 12.993743 
L 311.929525 13.010109 
L 314.343608 13.394731 
L 315.550649 10.911782 
L 316.757691 11.283393 
L 317.964732 10.983079 
L 320.378815 11.520821 
L 321.585856 11.171264 
L 323.999939 11.886596 
L 325.206981 11.864841 
L 326.414022 12.136666 
L 327.621063 12.182412 
L 331.242188 12.985349 
L 332.449229 12.702061 
L 340.898519 14.526149 
L 344.519643 14.490177 
L 345.726685 11.839479 
L 346.933726 11.878873 
L 351.761892 13.011404 
L 352.968933 13.015058 
L 354.175974 12.679516 
L 355.383016 12.991682 
L 357.797099 13.149945 
L 361.418223 13.350201 
L 363.832306 13.863407 
L 365.039347 13.9257 
L 366.246389 14.195068 
L 367.45343 14.254861 
L 369.867513 14.775216 
L 371.074554 14.867171 
L 372.281596 15.152588 
L 373.488637 14.871433 
L 374.695678 15.160124 
L 375.90272 15.167808 
L 378.316803 15.687287 
L 379.523844 15.709988 
L 380.730886 14.632476 
L 381.937927 14.654576 
L 383.144968 14.855896 
L 384.35201 14.756023 
L 385.559051 15.025305 
L 386.766093 15.120192 
L 390.387217 15.866809 
L 391.594258 14.166519 
L 396.422424 15.240195 
L 397.629465 15.045078 
L 398.836507 15.200945 
L 400.043548 14.016829 
L 401.25059 11.246851 
L 403.664672 11.186024 
L 404.871714 10.8149 
L 407.285797 11.210601 
L 409.699879 11.442144 
L 414.528045 12.069415 
L 415.735087 11.765783 
L 416.942128 11.990371 
L 418.149169 11.986237 
L 420.563252 12.338635 
L 421.770294 12.301805 
L 425.391418 12.683019 
L 429.012542 13.382306 
L 432.633666 13.992986 
L 433.840708 12.897352 
L 435.047749 12.938626 
L 437.461832 13.413676 
L 438.668873 12.863024 
L 439.875915 13.100329 
L 441.082956 13.14442 
L 442.289998 13.395752 
L 445.911122 13.645277 
L 449.532246 14.133687 
L 453.15337 13.947311 
L 454.360412 12.889079 
L 455.567453 13.047454 
L 457.981536 12.641174 
L 459.188577 12.875358 
L 460.395619 12.459328 
L 462.809702 12.938161 
L 464.016743 12.571058 
L 468.844909 13.317589 
L 470.05195 13.344506 
L 471.258992 13.525039 
L 474.880116 13.050102 
L 476.087157 13.222341 
L 477.294199 13.18053 
L 478.50124 13.345414 
L 479.708281 13.03641 
L 484.536447 13.868015 
L 486.95053 14.164939 
L 488.157571 14.009116 
L 500.227985 15.910952 
L 502.642068 15.759283 
L 503.84911 15.680975 
L 506.263193 15.976643 
L 507.470234 16.177486 
L 509.884317 16.27095 
L 511.091358 16.462799 
L 512.2984 16.5189 
L 513.505441 16.144324 
L 515.919524 16.406667 
L 515.919524 16.406667 
" clip-path="url(#p78a4b754e1)" style="fill: none; stroke-dasharray: 5.55,2.4; stroke-dashoffset: 0; stroke: #4169e1; stroke-width: 1.5"/>
   </g>
   <g id="line2d_27">
    <path d="M 34.31 35.434652 
L 35.517041 29.046667 
L 36.724083 30.05182 
L 37.931124 28.726013 
L 39.138166 25.847473 
L 40.345207 22.462516 
L 41.552248 20.331593 
L 42.75929 20.648482 
L 43.966331 21.924001 
L 45.173373 19.736992 
L 46.380414 17.958619 
L 47.587456 17.663383 
L 48.794497 18.487152 
L 50.001538 17.198573 
L 51.20858 18.760514 
L 52.415621 19.406926 
L 53.622663 17.784755 
L 54.829704 18.434635 
L 56.036745 18.599281 
L 57.243787 17.929567 
L 58.450828 16.94795 
L 59.65787 17.828699 
L 60.864911 16.604771 
L 62.071953 16.456683 
L 63.278994 17.206769 
L 64.486035 16.059231 
L 65.693077 15.61423 
L 66.900118 15.333627 
L 68.10716 15.172723 
L 69.314201 15.949545 
L 70.521242 15.749602 
L 71.728284 14.863127 
L 72.935325 14.469329 
L 74.142367 14.407144 
L 75.349408 14.923235 
L 77.763491 16.246445 
L 78.970532 16.197888 
L 80.177574 16.895706 
L 81.384615 17.4101 
L 82.591657 17.236332 
L 83.798698 17.632667 
L 85.005739 17.541007 
L 86.212781 17.597434 
L 88.626864 16.609765 
L 91.040946 16.605765 
L 92.247988 16.402117 
L 93.455029 16.814375 
L 94.662071 17.50149 
L 95.869112 18.027624 
L 98.283195 18.686219 
L 99.490236 18.993095 
L 100.697278 18.369603 
L 103.111361 18.519939 
L 106.732485 17.850431 
L 107.939526 17.997723 
L 111.56065 17.770629 
L 112.767692 17.488727 
L 117.595858 17.389423 
L 118.802899 17.136193 
L 120.00994 17.377141 
L 121.216982 17.313309 
L 122.424023 17.520047 
L 123.631065 17.505904 
L 124.838106 17.81339 
L 126.045147 17.535304 
L 127.252189 17.455057 
L 132.080354 17.812908 
L 133.287396 17.851972 
L 135.701479 17.670309 
L 136.90852 17.83238 
L 139.322603 17.878758 
L 140.529644 17.99366 
L 141.736686 17.857798 
L 142.943727 18.01537 
L 145.35781 17.790941 
L 146.564851 17.873819 
L 147.771893 17.750426 
L 150.185976 18.018269 
L 151.393017 18.273543 
L 153.8071 18.380762 
L 155.014141 18.243965 
L 158.635266 18.217288 
L 159.842307 17.964791 
L 162.25639 17.940819 
L 163.463431 18.286497 
L 164.670473 18.468461 
L 167.084555 18.51052 
L 168.291597 18.271071 
L 169.498638 18.162465 
L 170.70568 18.188387 
L 171.912721 17.87408 
L 173.119763 17.863162 
L 175.533845 17.471018 
L 176.740887 17.474426 
L 180.362011 17.978774 
L 181.569052 17.985015 
L 182.776094 17.607102 
L 183.983135 17.465367 
L 185.190177 17.541686 
L 186.397218 17.387688 
L 187.604259 17.598532 
L 190.018342 17.832156 
L 191.225384 17.978809 
L 193.639467 17.977631 
L 194.846508 18.025705 
L 196.053549 17.885024 
L 199.674674 18.19251 
L 202.088756 18.208249 
L 203.295798 18.000841 
L 204.502839 18.171564 
L 206.916922 18.002231 
L 208.123963 18.073355 
L 209.331005 17.985711 
L 211.745088 18.053141 
L 215.366212 18.114785 
L 216.573253 18.26667 
L 220.194378 18.003609 
L 225.022543 17.843459 
L 226.229585 17.708677 
L 227.436626 17.731319 
L 228.643668 17.591389 
L 229.850709 17.641115 
L 231.05775 17.862684 
L 232.264792 17.740437 
L 237.092957 17.781154 
L 239.50704 17.714359 
L 240.714082 17.800556 
L 243.128164 17.567303 
L 246.749289 17.581398 
L 249.163372 17.535891 
L 250.370413 17.392342 
L 252.784496 17.386268 
L 255.198579 17.528486 
L 261.233786 17.497731 
L 262.440827 17.624916 
L 278.132365 17.458473 
L 279.339407 17.59115 
L 280.546448 17.445682 
L 282.960531 17.373878 
L 285.374614 17.312178 
L 288.995738 17.435494 
L 297.445028 16.952783 
L 298.652069 16.491314 
L 302.273194 16.517017 
L 304.687277 16.475102 
L 308.308401 16.741278 
L 310.722484 16.586985 
L 314.343608 16.777359 
L 315.550649 16.615848 
L 316.757691 16.606519 
L 317.964732 16.743291 
L 320.378815 16.748838 
L 321.585856 16.875324 
L 326.414022 16.864947 
L 328.828105 16.992311 
L 332.449229 16.968038 
L 336.070353 17.006038 
L 339.691478 16.90706 
L 344.519643 16.887419 
L 346.933726 16.59843 
L 351.761892 16.681056 
L 352.968933 16.748125 
L 355.383016 16.643938 
L 359.00414 16.653433 
L 361.418223 16.672582 
L 372.281596 16.605388 
L 373.488637 16.732141 
L 384.35201 16.489533 
L 387.973134 16.551502 
L 390.387217 16.575778 
L 392.8013 16.472347 
L 398.836507 16.468998 
L 402.457631 16.117577 
L 403.664672 16.190778 
L 404.871714 16.081478 
L 409.699879 16.14764 
L 412.113962 16.121765 
L 430.219583 16.367603 
L 432.633666 16.37578 
L 433.840708 16.508236 
L 437.461832 16.48092 
L 438.668873 16.572782 
L 443.497039 16.595821 
L 447.118163 16.655752 
L 451.946329 16.624237 
L 453.15337 16.666626 
L 455.567453 16.522322 
L 459.188577 16.387759 
L 460.395619 16.484783 
L 470.05195 16.247203 
L 476.087157 16.160762 
L 480.915323 16.267769 
L 485.743488 16.217706 
L 489.364613 16.301117 
L 515.919524 16.406667 
L 515.919524 16.406667 
" clip-path="url(#p78a4b754e1)" style="fill: none; stroke: #ff8c00; stroke-width: 1.5; stroke-linecap: square"/>
   </g>
   <g id="line2d_28">
    <path d="M 34.31 98.44 
L 35.517041 86.904851 
L 36.724083 90.178698 
L 37.931124 90.753367 
L 39.138166 82.921544 
L 40.345207 69.313295 
L 41.552248 65.772631 
L 42.75929 69.657347 
L 43.966331 69.17617 
L 45.173373 59.93399 
L 46.380414 54.494462 
L 47.587456 57.885555 
L 48.794497 58.703224 
L 50.001538 55.439721 
L 51.20858 48.651396 
L 52.415621 49.991417 
L 53.622663 40.93964 
L 54.829704 42.104502 
L 56.036745 44.931596 
L 57.243787 45.19807 
L 58.450828 42.285742 
L 59.65787 40.233321 
L 60.864911 33.448033 
L 62.071953 36.013452 
L 63.278994 34.693465 
L 64.486035 27.839128 
L 65.693077 28.99854 
L 66.900118 30.877636 
L 68.10716 33.002452 
L 69.314201 30.236769 
L 70.521242 32.097853 
L 71.728284 27.284682 
L 72.935325 28.03811 
L 74.142367 30.072681 
L 75.349408 29.46611 
L 76.556449 26.76194 
L 77.763491 24.532745 
L 78.970532 26.453012 
L 80.177574 23.068084 
L 81.384615 22.035275 
L 82.591657 23.557378 
L 83.798698 23.519738 
L 86.212781 26.78902 
L 87.419822 25.407537 
L 88.626864 23.831492 
L 91.040946 26.920514 
L 92.247988 27.817369 
L 93.455029 26.875702 
L 94.662071 21.605859 
L 95.869112 19.092665 
L 97.076153 18.628176 
L 98.283195 18.817431 
L 99.490236 18.827591 
L 100.697278 14.205299 
L 103.111361 16.930725 
L 104.318402 17.366668 
L 105.525443 17.375866 
L 107.939526 19.262536 
L 110.353609 21.54259 
L 111.56065 22.604103 
L 112.767692 22.29295 
L 115.181775 24.4928 
L 116.388816 25.235177 
L 117.595858 26.280684 
L 120.00994 25.868639 
L 121.216982 26.779836 
L 122.424023 26.866233 
L 123.631065 27.816366 
L 124.838106 26.741129 
L 126.045147 26.010915 
L 129.666272 28.267831 
L 130.873313 28.788746 
L 133.287396 30.325981 
L 134.494437 30.800991 
L 135.701479 31.50542 
L 136.90852 31.652591 
L 139.322603 33.043101 
L 140.529644 33.449479 
L 141.736686 33.70721 
L 142.943727 33.786878 
L 144.150769 34.094217 
L 147.771893 35.286053 
L 150.185976 35.624918 
L 151.393017 34.479075 
L 153.8071 35.593215 
L 155.014141 35.686468 
L 158.635266 37.426109 
L 159.842307 36.132874 
L 162.25639 37.288963 
L 163.463431 34.240879 
L 164.670473 33.819003 
L 167.084555 34.940657 
L 168.291597 33.708562 
L 169.498638 33.907965 
L 170.70568 34.452571 
L 171.912721 31.82546 
L 173.119763 32.395848 
L 174.326804 30.917553 
L 175.533845 30.817708 
L 176.740887 31.385575 
L 177.947928 30.848142 
L 179.15497 30.601014 
L 180.362011 30.171965 
L 181.569052 30.725647 
L 182.776094 26.305987 
L 183.983135 26.178897 
L 185.190177 26.546586 
L 186.397218 26.267994 
L 187.604259 25.235878 
L 188.811301 25.592687 
L 191.225384 25.018884 
L 194.846508 26.375195 
L 197.260591 26.043689 
L 199.674674 26.484392 
L 202.088756 27.422205 
L 203.295798 26.223431 
L 204.502839 25.570286 
L 205.709881 25.620639 
L 208.123963 26.262945 
L 210.538046 26.728516 
L 215.366212 28.565018 
L 216.573253 28.04002 
L 217.780295 27.856292 
L 218.987336 28.273808 
L 220.194378 28.200438 
L 223.815502 29.334076 
L 225.022543 29.529198 
L 226.229585 29.143382 
L 227.436626 29.550608 
L 228.643668 29.084723 
L 229.850709 29.396983 
L 231.05775 27.555939 
L 232.264792 27.292732 
L 234.678875 28.122409 
L 235.885916 28.391065 
L 238.299999 28.480486 
L 239.50704 28.875538 
L 240.714082 28.920832 
L 241.921123 28.321702 
L 243.128164 28.330575 
L 245.542247 28.951374 
L 246.749289 28.897536 
L 247.95633 29.283075 
L 249.163372 29.513592 
L 250.370413 28.853837 
L 252.784496 29.568166 
L 253.991537 29.55993 
L 255.198579 29.773447 
L 258.819703 30.829544 
L 261.233786 31.112096 
L 262.440827 30.602224 
L 263.647868 30.95091 
L 264.85491 30.857467 
L 267.268993 31.52505 
L 268.476034 31.520643 
L 270.890117 32.193948 
L 272.097158 31.963855 
L 273.3042 32.218107 
L 274.511241 32.24027 
L 275.718283 32.560418 
L 276.925324 32.704191 
L 278.132365 32.727092 
L 279.339407 32.039074 
L 280.546448 31.142695 
L 281.75349 31.460494 
L 284.167573 31.34319 
L 285.374614 31.649723 
L 286.581655 31.737041 
L 288.995738 32.232939 
L 291.409821 32.391825 
L 292.616862 31.692075 
L 293.823904 31.24122 
L 295.030945 31.418427 
L 296.237987 31.725614 
L 297.445028 30.397356 
L 298.652069 17.523322 
L 304.687277 18.955441 
L 305.894318 18.87853 
L 307.101359 19.218414 
L 308.308401 17.685119 
L 309.515442 17.386954 
L 310.722484 17.551947 
L 311.929525 17.397014 
L 314.343608 17.749335 
L 315.550649 16.376037 
L 316.757691 16.719489 
L 317.964732 15.823087 
L 320.378815 16.424983 
L 321.585856 15.691782 
L 323.999939 16.313229 
L 325.206981 16.334673 
L 326.414022 16.588991 
L 327.621063 16.51597 
L 328.828105 16.676187 
L 330.035146 16.951439 
L 332.449229 16.520578 
L 336.070353 17.28105 
L 337.277395 17.291045 
L 338.484436 17.456655 
L 340.898519 18.077258 
L 342.10556 18.011231 
L 343.312602 18.265651 
L 344.519643 18.128128 
L 345.726685 15.943798 
L 346.933726 15.468428 
L 348.140767 15.7854 
L 349.347809 15.830069 
L 351.761892 16.424939 
L 354.175974 16.304154 
L 356.590057 16.752957 
L 357.797099 16.884279 
L 359.00414 16.777927 
L 360.211182 16.934524 
L 361.418223 16.933049 
L 362.625264 17.228713 
L 365.039347 17.464619 
L 366.246389 17.748696 
L 368.660471 17.98314 
L 372.281596 18.46359 
L 373.488637 17.470991 
L 374.695678 17.638795 
L 375.90272 17.572623 
L 379.523844 18.37543 
L 380.730886 17.056013 
L 383.144968 17.535643 
L 384.35201 17.543215 
L 385.559051 17.818706 
L 386.766093 17.689732 
L 387.973134 17.963285 
L 389.180175 18.006575 
L 390.387217 18.211645 
L 391.594258 17.634145 
L 394.008341 18.173984 
L 396.422424 18.563022 
L 397.629465 17.938521 
L 398.836507 18.04005 
L 400.043548 16.884922 
L 401.25059 14.291018 
L 402.457631 14.426624 
L 403.664672 14.23678 
L 404.871714 13.473424 
L 414.528045 14.546474 
L 415.735087 14.055595 
L 416.942128 14.155182 
L 418.149169 14.003587 
L 419.356211 14.005466 
L 420.563252 14.205 
L 422.977335 14.118407 
L 424.184376 14.071153 
L 426.598459 14.465575 
L 429.012542 14.869334 
L 432.633666 15.596165 
L 433.840708 14.204093 
L 437.461832 14.852605 
L 438.668873 14.302266 
L 439.875915 14.507683 
L 441.082956 14.553845 
L 443.497039 14.883674 
L 445.911122 15.002006 
L 449.532246 15.552879 
L 450.739288 15.540769 
L 451.946329 15.36164 
L 453.15337 15.424124 
L 454.360412 14.283653 
L 455.567453 14.457746 
L 457.981536 13.891732 
L 459.188577 14.119962 
L 460.395619 13.41881 
L 462.809702 13.834955 
L 464.016743 13.742653 
L 466.430826 13.890502 
L 468.844909 14.166767 
L 471.258992 14.322616 
L 473.673074 13.955615 
L 474.880116 13.520017 
L 476.087157 13.664171 
L 477.294199 13.678471 
L 478.50124 13.892139 
L 479.708281 13.794449 
L 480.915323 14.017525 
L 483.329406 14.223521 
L 486.95053 14.80788 
L 488.157571 14.70956 
L 489.364613 14.796498 
L 490.571654 15.017099 
L 491.778696 14.898846 
L 494.192778 15.279999 
L 495.39982 15.268462 
L 500.227985 16.097693 
L 503.84911 15.437842 
L 505.056151 15.485286 
L 507.470234 15.884738 
L 509.884317 16.037884 
L 511.091358 16.213887 
L 512.2984 16.146869 
L 513.505441 16.325457 
L 515.919524 16.406667 
L 515.919524 16.406667 
" clip-path="url(#p78a4b754e1)" style="fill: none; stroke-dasharray: 5.55,2.4; stroke-dashoffset: 0; stroke: #ff8c00; stroke-width: 1.5"/>
   </g>
   <g id="patch_3">
    <path d="M 34.31 98.44 
L 34.31 0 
" style="fill: none; stroke: #000000; stroke-width: 0.8; stroke-linejoin: miter; stroke-linecap: square"/>
   </g>
   <g id="patch_4">
    <path d="M 540 98.44 
L 540 0 
" style="fill: none; stroke: #000000; stroke-width: 0.8; stroke-linejoin: miter; stroke-linecap: square"/>
   </g>
   <g id="patch_5">
    <path d="M 34.31 98.44 
L 540 98.44 
" style="fill: none; stroke: #000000; stroke-width: 0.8; stroke-linejoin: miter; stroke-linecap: square"/>
   </g>
   <g id="patch_6">
    <path d="M 34.31 0 
L 540 0 
" style="fill: none; stroke: #000000; stroke-width: 0.8; stroke-linejoin: miter; stroke-linecap: square"/>
   </g>
  </g>
 </g>
 <defs>
  <clipPath id="p78a4b754e1">
   <rect x="34.31" y="0" width="505.69" height="98.44"/>
  </clipPath>
 </defs>
</svg>
