<?xml version="1.0" encoding="utf-8" standalone="no"?>
<!DOCTYPE svg PUBLIC "-//W3C//DTD SVG 1.1//EN"
  "http://www.w3.org/Graphics/SVG/1.1/DTD/svg11.dtd">
<svg xmlns:xlink="http://www.w3.org/1999/xlink" width="540pt" height="129.6pt" viewBox="0 0 540 129.6" xmlns="http://www.w3.org/2000/svg" version="1.1">
 <metadata>
  <rdf:RDF xmlns:dc="http://purl.org/dc/elements/1.1/" xmlns:cc="http://creativecommons.org/ns#" xmlns:rdf="http://www.w3.org/1999/02/22-rdf-syntax-ns#">
   <cc:Work>
    <dc:type rdf:resource="http://purl.org/dc/dcmitype/StillImage"/>
    <dc:date>2025-04-07T06:01:18.485755</dc:date>
    <dc:format>image/svg+xml</dc:format>
    <dc:creator>
     <cc:Agent>
      <dc:title>Matplotlib v3.10.1, https://matplotlib.org/</dc:title>
     </cc:Agent>
    </dc:creator>
   </cc:Work>
  </rdf:RDF>
 </metadata>
 <defs>
  <style type="text/css">*{stroke-linejoin: round; stroke-linecap: butt}</style>
 </defs>
 <g id="figure_1">
  <g id="patch_1">
   <path d="M 0 129.6 
L 540 129.6 
L 540 0 
L 0 0 
z
" style="fill: #ffffff"/>
  </g>
  <g id="axes_1">
   <g id="patch_2">
    <path d="M 26.795 98.44 
L 540 98.44 
L 540 0 
L 26.795 0 
z
" style="fill: #ffffff"/>
   </g>
   <g id="matplotlib.axis_1">
    <g id="xtick_1">
     <g id="line2d_1">
      <path d="M 26.795 98.44 
L 26.795 0 
" clip-path="url(#pcd9c7a2c1a)" style="fill: none; stroke: #b0b0b0; stroke-width: 0.8; stroke-linecap: square"/>
     </g>
     <g id="line2d_2">
      <defs>
       <path id="me3c3a79554" d="M 0 0 
L 0 3.5 
" style="stroke: #000000; stroke-width: 0.8"/>
      </defs>
      <g>
       <use xlink:href="#me3c3a79554" x="26.795" y="98.44" style="stroke: #000000; stroke-width: 0.8"/>
      </g>
     </g>
     <g id="text_1">
      <text style="font-size: 10px; font-family: 'Times New Roman'; text-anchor: middle" x="26.795" y="112.38375" transform="rotate(-0 26.795 112.38375)">0</text>
     </g>
    </g>
    <g id="xtick_2">
     <g id="line2d_3">
      <path d="M 88.043956 98.44 
L 88.043956 0 
" clip-path="url(#pcd9c7a2c1a)" style="fill: none; stroke: #b0b0b0; stroke-width: 0.8; stroke-linecap: square"/>
     </g>
     <g id="line2d_4">
      <g>
       <use xlink:href="#me3c3a79554" x="88.043956" y="98.44" style="stroke: #000000; stroke-width: 0.8"/>
      </g>
     </g>
     <g id="text_2">
      <text style="font-size: 10px; font-family: 'Times New Roman'; text-anchor: middle" x="88.043956" y="112.38375" transform="rotate(-0 88.043956 112.38375)">50</text>
     </g>
    </g>
    <g id="xtick_3">
     <g id="line2d_5">
      <path d="M 149.292911 98.44 
L 149.292911 0 
" clip-path="url(#pcd9c7a2c1a)" style="fill: none; stroke: #b0b0b0; stroke-width: 0.8; stroke-linecap: square"/>
     </g>
     <g id="line2d_6">
      <g>
       <use xlink:href="#me3c3a79554" x="149.292911" y="98.44" style="stroke: #000000; stroke-width: 0.8"/>
      </g>
     </g>
     <g id="text_3">
      <text style="font-size: 10px; font-family: 'Times New Roman'; text-anchor: middle" x="149.292911" y="112.38375" transform="rotate(-0 149.292911 112.38375)">100</text>
     </g>
    </g>
    <g id="xtick_4">
     <g id="line2d_7">
      <path d="M 210.541867 98.44 
L 210.541867 0 
" clip-path="url(#pcd9c7a2c1a)" style="fill: none; stroke: #b0b0b0; stroke-width: 0.8; stroke-linecap: square"/>
     </g>
     <g id="line2d_8">
      <g>
       <use xlink:href="#me3c3a79554" x="210.541867" y="98.44" style="stroke: #000000; stroke-width: 0.8"/>
      </g>
     </g>
     <g id="text_4">
      <text style="font-size: 10px; font-family: 'Times New Roman'; text-anchor: middle" x="210.541867" y="112.38375" transform="rotate(-0 210.541867 112.38375)">150</text>
     </g>
    </g>
    <g id="xtick_5">
     <g id="line2d_9">
      <path d="M 271.790823 98.44 
L 271.790823 0 
" clip-path="url(#pcd9c7a2c1a)" style="fill: none; stroke: #b0b0b0; stroke-width: 0.8; stroke-linecap: square"/>
     </g>
     <g id="line2d_10">
      <g>
       <use xlink:href="#me3c3a79554" x="271.790823" y="98.44" style="stroke: #000000; stroke-width: 0.8"/>
      </g>
     </g>
     <g id="text_5">
      <text style="font-size: 10px; font-family: 'Times New Roman'; text-anchor: middle" x="271.790823" y="112.38375" transform="rotate(-0 271.790823 112.38375)">200</text>
     </g>
    </g>
    <g id="xtick_6">
     <g id="line2d_11">
      <path d="M 333.039779 98.44 
L 333.039779 0 
" clip-path="url(#pcd9c7a2c1a)" style="fill: none; stroke: #b0b0b0; stroke-width: 0.8; stroke-linecap: square"/>
     </g>
     <g id="line2d_12">
      <g>
       <use xlink:href="#me3c3a79554" x="333.039779" y="98.44" style="stroke: #000000; stroke-width: 0.8"/>
      </g>
     </g>
     <g id="text_6">
      <text style="font-size: 10px; font-family: 'Times New Roman'; text-anchor: middle" x="333.039779" y="112.38375" transform="rotate(-0 333.039779 112.38375)">250</text>
     </g>
    </g>
    <g id="xtick_7">
     <g id="line2d_13">
      <path d="M 394.288734 98.44 
L 394.288734 0 
" clip-path="url(#pcd9c7a2c1a)" style="fill: none; stroke: #b0b0b0; stroke-width: 0.8; stroke-linecap: square"/>
     </g>
     <g id="line2d_14">
      <g>
       <use xlink:href="#me3c3a79554" x="394.288734" y="98.44" style="stroke: #000000; stroke-width: 0.8"/>
      </g>
     </g>
     <g id="text_7">
      <text style="font-size: 10px; font-family: 'Times New Roman'; text-anchor: middle" x="394.288734" y="112.38375" transform="rotate(-0 394.288734 112.38375)">300</text>
     </g>
    </g>
    <g id="xtick_8">
     <g id="line2d_15">
      <path d="M 455.53769 98.44 
L 455.53769 0 
" clip-path="url(#pcd9c7a2c1a)" style="fill: none; stroke: #b0b0b0; stroke-width: 0.8; stroke-linecap: square"/>
     </g>
     <g id="line2d_16">
      <g>
       <use xlink:href="#me3c3a79554" x="455.53769" y="98.44" style="stroke: #000000; stroke-width: 0.8"/>
      </g>
     </g>
     <g id="text_8">
      <text style="font-size: 10px; font-family: 'Times New Roman'; text-anchor: middle" x="455.53769" y="112.38375" transform="rotate(-0 455.53769 112.38375)">350</text>
     </g>
    </g>
    <g id="xtick_9">
     <g id="line2d_17">
      <path d="M 516.786646 98.44 
L 516.786646 0 
" clip-path="url(#pcd9c7a2c1a)" style="fill: none; stroke: #b0b0b0; stroke-width: 0.8; stroke-linecap: square"/>
     </g>
     <g id="line2d_18">
      <g>
       <use xlink:href="#me3c3a79554" x="516.786646" y="98.44" style="stroke: #000000; stroke-width: 0.8"/>
      </g>
     </g>
     <g id="text_9">
      <text style="font-size: 10px; font-family: 'Times New Roman'; text-anchor: middle" x="516.786646" y="112.38375" transform="rotate(-0 516.786646 112.38375)">400</text>
     </g>
    </g>
    <g id="text_10">
     <text style="font-size: 12px; font-family: 'Times New Roman'; text-anchor: middle" x="283.3975" y="126.855312" transform="rotate(-0 283.3975 126.855312)">Simulation Run</text>
    </g>
   </g>
   <g id="matplotlib.axis_2">
    <g id="ytick_1">
     <g id="line2d_19">
      <path d="M 26.795 98.44 
L 540 98.44 
" clip-path="url(#pcd9c7a2c1a)" style="fill: none; stroke: #b0b0b0; stroke-width: 0.8; stroke-linecap: square"/>
     </g>
     <g id="line2d_20">
      <defs>
       <path id="md59b0851fd" d="M 0 0 
L -3.5 0 
" style="stroke: #000000; stroke-width: 0.8"/>
      </defs>
      <g>
       <use xlink:href="#md59b0851fd" x="26.795" y="98.44" style="stroke: #000000; stroke-width: 0.8"/>
      </g>
     </g>
     <g id="text_11">
      <text style="font-size: 10px; font-family: 'Times New Roman'; text-anchor: end" x="19.795" y="101.911875" transform="rotate(-0 19.795 101.911875)">0</text>
     </g>
    </g>
    <g id="ytick_2">
     <g id="line2d_21">
      <path d="M 26.795 73.198974 
L 540 73.198974 
" clip-path="url(#pcd9c7a2c1a)" style="fill: none; stroke: #b0b0b0; stroke-width: 0.8; stroke-linecap: square"/>
     </g>
     <g id="line2d_22">
      <g>
       <use xlink:href="#md59b0851fd" x="26.795" y="73.198974" style="stroke: #000000; stroke-width: 0.8"/>
      </g>
     </g>
     <g id="text_12">
      <text style="font-size: 10px; font-family: 'Times New Roman'; text-anchor: end" x="19.795" y="76.670849" transform="rotate(-0 19.795 76.670849)">1</text>
     </g>
    </g>
    <g id="ytick_3">
     <g id="line2d_23">
      <path d="M 26.795 47.957949 
L 540 47.957949 
" clip-path="url(#pcd9c7a2c1a)" style="fill: none; stroke: #b0b0b0; stroke-width: 0.8; stroke-linecap: square"/>
     </g>
     <g id="line2d_24">
      <g>
       <use xlink:href="#md59b0851fd" x="26.795" y="47.957949" style="stroke: #000000; stroke-width: 0.8"/>
      </g>
     </g>
     <g id="text_13">
      <text style="font-size: 10px; font-family: 'Times New Roman'; text-anchor: end" x="19.795" y="51.429824" transform="rotate(-0 19.795 51.429824)">2</text>
     </g>
    </g>
    <g id="ytick_4">
     <g id="line2d_25">
      <path d="M 26.795 22.716923 
L 540 22.716923 
" clip-path="url(#pcd9c7a2c1a)" style="fill: none; stroke: #b0b0b0; stroke-width: 0.8; stroke-linecap: square"/>
     </g>
     <g id="line2d_26">
      <g>
       <use xlink:href="#md59b0851fd" x="26.795" y="22.716923" style="stroke: #000000; stroke-width: 0.8"/>
      </g>
     </g>
     <g id="text_14">
      <text style="font-size: 10px; font-family: 'Times New Roman'; text-anchor: end" x="19.795" y="26.188798" transform="rotate(-0 19.795 26.188798)">3</text>
     </g>
    </g>
    <g id="text_15">
     <text style="font-size: 12px; font-family: 'Times New Roman'; text-anchor: middle" x="8.228125" y="49.22" transform="rotate(-90 8.228125 49.22)">Normalized Value</text>
    </g>
   </g>
   <g id="line2d_27">
    <path d="M 26.795 81.39247 
L 28.019979 67.304851 
L 29.244958 70.494506 
L 30.469937 70.771841 
L 31.694916 71.793169 
L 32.919896 73.922335 
L 34.144875 73.403417 
L 35.369854 73.181704 
L 36.594833 74.152054 
L 37.819812 72.752042 
L 40.26977 71.729077 
L 41.494749 71.865011 
L 42.719728 71.720518 
L 43.944708 72.340233 
L 45.169687 71.623948 
L 47.619645 71.416346 
L 48.844624 71.223024 
L 50.069603 70.359215 
L 51.294582 71.052317 
L 52.519561 71.505138 
L 53.744541 71.707092 
L 54.96952 72.052052 
L 56.194499 72.087889 
L 57.419478 71.634119 
L 58.644457 71.684122 
L 61.094415 72.533295 
L 62.319394 72.804524 
L 63.544373 72.258443 
L 64.769353 72.562343 
L 65.994332 72.510143 
L 67.219311 72.303965 
L 68.44429 72.295536 
L 69.669269 72.438187 
L 70.894248 72.266366 
L 72.119227 71.860379 
L 73.344206 72.076709 
L 74.569185 71.815505 
L 75.794165 71.814433 
L 77.019144 71.635336 
L 78.244123 71.693949 
L 79.469102 71.94969 
L 80.694081 72.063717 
L 84.369018 72.116826 
L 85.593997 72.217539 
L 88.043956 72.028398 
L 89.268935 72.341208 
L 90.493914 72.472272 
L 91.718893 72.433771 
L 92.943872 72.21237 
L 94.168851 72.359797 
L 95.39383 72.219377 
L 101.518726 72.66909 
L 107.643622 73.125277 
L 108.868601 72.981075 
L 110.09358 73.12948 
L 113.768517 73.181766 
L 116.218475 72.802158 
L 118.668434 72.801449 
L 121.118392 73.051841 
L 122.343371 72.993258 
L 123.56835 73.186252 
L 126.018308 73.185449 
L 128.468266 73.277517 
L 129.693246 73.28091 
L 130.918225 73.40097 
L 132.143204 73.344194 
L 133.368183 73.412165 
L 135.818141 73.135107 
L 140.718058 72.758166 
L 141.943037 72.877454 
L 145.617974 72.710607 
L 146.842953 72.594479 
L 150.517891 72.837255 
L 154.192828 72.868292 
L 159.092744 73.054381 
L 160.317723 72.965872 
L 162.767682 72.972951 
L 163.992661 72.941555 
L 165.21764 72.765776 
L 186.042285 72.92452 
L 195.842118 72.845858 
L 198.292076 72.776125 
L 199.517055 72.76419 
L 200.742034 72.622668 
L 210.541867 72.735686 
L 219.116721 72.833775 
L 220.3417 72.902812 
L 224.016637 72.818902 
L 231.366512 72.879989 
L 235.041449 72.879721 
L 237.491408 72.876467 
L 242.391324 72.996155 
L 248.51622 72.971718 
L 250.966178 73.005341 
L 265.665927 73.171049 
L 269.340865 73.143689 
L 274.240781 73.302748 
L 276.690739 73.291033 
L 280.365677 73.329456 
L 284.040614 73.343908 
L 291.390489 73.248411 
L 295.065426 73.320772 
L 299.965343 73.31824 
L 302.415301 73.382835 
L 306.090238 73.263111 
L 308.540196 73.174928 
L 314.665092 73.282578 
L 328.139862 73.339476 
L 330.58982 73.252546 
L 334.264758 73.197426 
L 341.614632 73.268202 
L 344.064591 73.191037 
L 351.414465 73.261072 
L 377.139027 73.303518 
L 385.713881 73.37614 
L 388.163839 73.352729 
L 391.838776 73.369527 
L 400.41363 73.368979 
L 405.313546 73.332626 
L 408.988484 73.344277 
L 477.587314 73.253328 
L 482.487231 73.261064 
L 495.962001 73.314105 
L 498.411959 73.30183 
L 514.336688 73.186738 
L 515.561667 73.198974 
L 515.561667 73.198974 
" clip-path="url(#pcd9c7a2c1a)" style="fill: none; stroke: #4169e1; stroke-width: 1.5; stroke-linecap: square"/>
   </g>
   <g id="line2d_28">
    <path d="M 26.795 98.44 
L 28.019979 8.320942 
L 29.244958 29.120909 
L 30.469937 46.345903 
L 31.694916 54.870058 
L 32.919896 51.838994 
L 34.144875 57.76263 
L 35.369854 62.691051 
L 36.594833 63.242667 
L 37.819812 58.75212 
L 39.044791 61.337056 
L 40.26977 62.927262 
L 41.494749 65.558323 
L 42.719728 67.783767 
L 43.944708 67.386037 
L 45.169687 65.832254 
L 46.394666 67.732272 
L 47.619645 69.246252 
L 48.844624 70.477291 
L 50.069603 65.43773 
L 51.294582 62.646463 
L 52.519561 62.318143 
L 53.744541 63.481211 
L 54.96952 63.695012 
L 56.194499 65.070816 
L 57.419478 64.016747 
L 58.644457 65.262164 
L 61.094415 63.129048 
L 62.319394 63.337325 
L 63.544373 60.407318 
L 64.769353 60.295771 
L 65.994332 61.412063 
L 67.219311 61.864116 
L 68.44429 62.908044 
L 69.669269 63.571628 
L 70.894248 64.031406 
L 72.119227 62.167609 
L 73.344206 62.290139 
L 74.569185 61.985609 
L 75.794165 62.87472 
L 77.019144 63.124334 
L 78.244123 63.880108 
L 79.469102 63.388504 
L 80.694081 63.907644 
L 83.144039 65.324356 
L 88.043956 67.077379 
L 89.268935 65.414431 
L 90.493914 65.631947 
L 91.718893 66.203829 
L 92.943872 65.587965 
L 95.39383 65.705966 
L 96.61881 65.952918 
L 97.843789 66.489985 
L 100.293747 66.22127 
L 101.518726 66.740707 
L 102.743705 66.96119 
L 103.968684 67.031824 
L 105.193663 66.833014 
L 106.418642 67.304166 
L 107.643622 67.483134 
L 110.09358 67.076903 
L 112.543538 67.957264 
L 113.768517 68.281203 
L 116.218475 66.740197 
L 118.668434 67.546774 
L 119.893413 67.207337 
L 121.118392 67.230341 
L 122.343371 67.503846 
L 123.56835 66.554393 
L 126.018308 67.287605 
L 127.243287 67.43288 
L 129.693246 68.155267 
L 130.918225 67.951058 
L 133.368183 68.337018 
L 134.593162 67.178702 
L 137.04312 67.350895 
L 138.268099 67.062684 
L 139.493079 67.269273 
L 141.943037 66.697153 
L 143.168016 67.003517 
L 144.392995 66.882265 
L 145.617974 67.126422 
L 146.842953 66.842597 
L 148.067932 66.823394 
L 149.292911 66.925006 
L 150.517891 66.877246 
L 154.192828 67.71257 
L 159.092744 68.416719 
L 160.317723 68.301919 
L 163.992661 68.967828 
L 165.21764 67.640909 
L 167.667598 68.16028 
L 168.892577 68.2061 
L 171.342536 68.6705 
L 172.567515 68.66812 
L 176.242452 69.379275 
L 177.467431 69.470005 
L 182.367348 70.302547 
L 187.267264 70.746882 
L 189.717222 71.143077 
L 190.942201 70.850383 
L 192.16718 70.191223 
L 195.842118 70.674174 
L 197.067097 70.595371 
L 199.517055 70.977668 
L 200.742034 69.878265 
L 211.766846 71.211214 
L 212.991825 71.15581 
L 215.441784 71.326312 
L 216.666763 71.032507 
L 217.891742 70.914947 
L 219.116721 71.080796 
L 221.566679 70.781863 
L 227.691575 71.335739 
L 228.916554 71.1065 
L 232.591491 71.491814 
L 233.81647 71.533818 
L 237.491408 71.942483 
L 238.716387 71.845759 
L 239.941366 71.875731 
L 241.166345 71.645813 
L 242.391324 71.634378 
L 247.291241 72.068831 
L 249.741199 72.247654 
L 250.966178 72.107795 
L 252.191157 72.214713 
L 253.416136 72.154703 
L 254.641115 72.289124 
L 257.091074 72.269423 
L 260.766011 72.628438 
L 264.440948 72.76828 
L 266.890906 72.92882 
L 269.340865 73.118372 
L 271.790823 72.87508 
L 274.240781 72.970209 
L 276.690739 73.124075 
L 280.365677 72.922408 
L 291.390489 73.411602 
L 293.840447 73.377409 
L 297.515384 73.670136 
L 299.965343 73.784088 
L 301.190322 73.538979 
L 303.64028 73.750097 
L 304.865259 73.631244 
L 307.315217 72.94653 
L 308.540196 73.00635 
L 310.990155 72.808758 
L 317.11505 73.263467 
L 318.340029 73.092549 
L 322.014967 73.345192 
L 323.239946 73.278739 
L 324.464925 72.76665 
L 328.139862 72.756645 
L 329.364841 72.106942 
L 330.58982 72.209906 
L 331.814799 72.137546 
L 336.714716 72.488301 
L 337.939695 72.501916 
L 339.164674 72.305123 
L 341.614632 72.490415 
L 342.839612 72.066023 
L 346.514549 72.348991 
L 347.739528 72.174414 
L 350.189486 72.358548 
L 351.414465 72.341224 
L 356.314382 72.644042 
L 358.76434 72.596354 
L 362.439277 72.780524 
L 363.664256 72.733402 
L 372.23911 73.327349 
L 378.364006 73.144899 
L 380.813964 73.306029 
L 384.488901 73.214801 
L 385.713881 73.29195 
L 386.93886 72.896158 
L 389.388818 72.705632 
L 393.063755 72.860153 
L 404.088567 73.483184 
L 405.313546 73.270922 
L 411.438442 73.255808 
L 413.8884 73.357048 
L 415.113379 73.29971 
L 418.788317 73.435391 
L 421.238275 73.495463 
L 422.463254 73.404189 
L 424.913212 73.539371 
L 426.138191 73.487673 
L 427.36317 73.005803 
L 429.813129 73.142357 
L 432.263087 72.998324 
L 433.488066 72.818325 
L 434.713045 72.886902 
L 435.938024 72.843511 
L 439.612962 72.996455 
L 442.06292 72.838581 
L 443.287899 72.750737 
L 448.187815 72.981938 
L 449.412794 72.76574 
L 451.862753 72.76564 
L 454.312711 72.545799 
L 464.112544 73.034257 
L 471.462419 73.107245 
L 473.912377 73.1049 
L 476.362335 73.115935 
L 478.812293 73.142163 
L 487.387147 73.488739 
L 489.837105 73.559166 
L 491.062084 73.402467 
L 495.962001 73.636536 
L 497.18698 73.497407 
L 498.411959 73.184951 
L 503.311876 73.34348 
L 504.536855 73.053284 
L 506.986813 73.140795 
L 509.436771 72.938015 
L 515.561667 73.198974 
L 515.561667 73.198974 
" clip-path="url(#pcd9c7a2c1a)" style="fill: none; stroke-dasharray: 5.55,2.4; stroke-dashoffset: 0; stroke: #4169e1; stroke-width: 1.5"/>
   </g>
   <g id="line2d_29">
    <path d="M 26.795 77.441526 
L 28.019979 68.645151 
L 29.244958 70.594406 
L 30.469937 70.814103 
L 31.694916 71.559277 
L 32.919896 73.06102 
L 35.369854 72.409949 
L 36.594833 73.213506 
L 37.819812 72.45767 
L 40.26977 71.508921 
L 41.494749 71.778628 
L 42.719728 71.598769 
L 43.944708 72.16648 
L 45.169687 71.666664 
L 46.394666 71.706633 
L 48.844624 71.379039 
L 50.069603 70.677865 
L 51.294582 71.284582 
L 52.519561 71.574895 
L 56.194499 72.048476 
L 57.419478 71.852037 
L 58.644457 71.864143 
L 62.319394 72.753127 
L 63.544373 72.270541 
L 64.769353 72.567773 
L 65.994332 72.520545 
L 67.219311 72.287609 
L 69.669269 72.360773 
L 72.119227 71.981192 
L 73.344206 72.186586 
L 74.569185 71.938467 
L 75.794165 71.999265 
L 77.019144 71.89008 
L 78.244123 71.926009 
L 79.469102 72.096747 
L 81.91906 72.108401 
L 83.144039 72.050549 
L 85.593997 72.282592 
L 88.043956 72.207671 
L 90.493914 72.576315 
L 94.168851 72.538447 
L 95.39383 72.433919 
L 105.193663 73.067337 
L 113.768517 73.227447 
L 116.218475 72.950419 
L 119.893413 73.092702 
L 128.468266 73.350996 
L 129.693246 73.346495 
L 130.918225 73.461355 
L 139.493079 73.080292 
L 140.718058 72.978587 
L 141.943037 73.077614 
L 148.067932 72.897537 
L 151.74287 73.00299 
L 163.992661 73.029249 
L 165.21764 72.925362 
L 177.467431 73.108044 
L 209.316888 72.896894 
L 231.366512 72.983107 
L 235.041449 72.985595 
L 239.941366 73.065752 
L 242.391324 73.096849 
L 285.265593 73.347873 
L 288.94053 73.280344 
L 304.865259 73.361785 
L 309.765175 73.292383 
L 315.890071 73.348108 
L 440.837941 73.247344 
L 450.637774 73.211209 
L 457.987648 73.233456 
L 466.562502 73.216113 
L 472.687398 73.218271 
L 477.587314 73.223444 
L 483.71221 73.221519 
L 505.761834 73.229418 
L 515.561667 73.198974 
L 515.561667 73.198974 
" clip-path="url(#pcd9c7a2c1a)" style="fill: none; stroke: #ff8c00; stroke-width: 1.5; stroke-linecap: square"/>
   </g>
   <g id="line2d_30">
    <path d="M 26.795 98.44 
L 28.019979 37.835772 
L 29.244958 52.085188 
L 30.469937 63.560477 
L 31.694916 68.796697 
L 32.919896 64.905296 
L 34.144875 69.076715 
L 35.369854 72.292156 
L 36.594833 71.151539 
L 37.819812 69.85328 
L 39.044791 70.688281 
L 40.26977 71.063515 
L 42.719728 74.010202 
L 43.944708 72.104765 
L 45.169687 70.815725 
L 46.394666 72.420663 
L 48.844624 74.444908 
L 50.069603 68.328215 
L 51.294582 63.995795 
L 52.519561 64.175178 
L 53.744541 65.177444 
L 54.96952 65.258531 
L 56.194499 66.561096 
L 57.419478 67.03161 
L 58.644457 68.191899 
L 59.869436 67.29045 
L 61.094415 66.067213 
L 62.319394 65.620234 
L 63.544373 61.206691 
L 64.769353 60.225126 
L 65.994332 61.327248 
L 67.219311 61.016362 
L 69.669269 63.023135 
L 70.894248 63.457348 
L 72.119227 62.661232 
L 73.344206 62.323026 
L 74.569185 61.345426 
L 75.794165 62.134366 
L 77.019144 62.615957 
L 78.244123 63.406608 
L 79.469102 63.221026 
L 81.91906 64.697184 
L 83.144039 65.294532 
L 85.593997 65.656079 
L 88.043956 66.829886 
L 89.268935 65.220343 
L 90.493914 65.126309 
L 91.718893 65.740783 
L 92.943872 65.78394 
L 94.168851 66.063233 
L 95.39383 66.152009 
L 96.61881 66.355832 
L 97.843789 66.845274 
L 99.068768 66.62793 
L 100.293747 66.631583 
L 101.518726 67.14462 
L 102.743705 67.361404 
L 105.193663 67.311203 
L 106.418642 67.74058 
L 107.643622 67.89869 
L 108.868601 67.76153 
L 110.09358 67.412068 
L 113.768517 68.608129 
L 114.993496 67.515992 
L 116.218475 67.19221 
L 118.668434 67.999999 
L 119.893413 67.482272 
L 122.343371 68.024858 
L 123.56835 66.62094 
L 126.018308 67.338031 
L 127.243287 67.323809 
L 129.693246 68.049817 
L 130.918225 67.52487 
L 132.143204 67.754193 
L 133.368183 67.806477 
L 134.593162 66.555408 
L 135.818141 66.572402 
L 137.04312 66.797262 
L 138.268099 66.532039 
L 139.493079 66.712857 
L 141.943037 65.913272 
L 144.392995 66.360138 
L 145.617974 66.447911 
L 146.842953 65.669665 
L 149.292911 65.564458 
L 150.517891 65.660119 
L 154.192828 66.525076 
L 157.867765 67.104725 
L 159.092744 67.360757 
L 160.317723 67.260257 
L 162.767682 67.706124 
L 163.992661 67.827159 
L 165.21764 67.140499 
L 170.117556 68.045434 
L 171.342536 68.290748 
L 172.567515 68.145699 
L 176.242452 68.833337 
L 177.467431 68.898321 
L 182.367348 69.704091 
L 183.592327 69.828828 
L 184.817306 69.64861 
L 188.492243 70.235119 
L 189.717222 70.432429 
L 192.16718 69.928976 
L 195.842118 70.327997 
L 197.067097 70.235578 
L 199.517055 70.62915 
L 200.742034 69.93442 
L 211.766846 71.278926 
L 212.991825 71.111119 
L 215.441784 71.200032 
L 216.666763 70.926647 
L 217.891742 70.864306 
L 219.116721 71.038708 
L 221.566679 70.724142 
L 225.241617 71.002657 
L 226.466596 71.137255 
L 227.691575 71.135212 
L 228.916554 70.903991 
L 232.591491 71.147516 
L 233.81647 71.075596 
L 237.491408 71.504362 
L 238.716387 71.347576 
L 239.941366 71.43373 
L 241.166345 71.154012 
L 243.616303 71.360686 
L 249.741199 71.94461 
L 250.966178 71.878812 
L 254.641115 72.054821 
L 255.866094 71.906538 
L 260.766011 72.338706 
L 264.440948 72.502588 
L 269.340865 72.917089 
L 271.790823 72.707206 
L 276.690739 72.902151 
L 277.915718 72.681509 
L 280.365677 72.680975 
L 285.265593 73.038996 
L 286.490572 72.731197 
L 290.16551 72.981429 
L 291.390489 73.074307 
L 292.615468 73.008261 
L 296.290405 73.292704 
L 299.965343 73.543976 
L 301.190322 73.32787 
L 304.865259 73.549482 
L 306.090238 73.345356 
L 307.315217 72.830916 
L 308.540196 72.941466 
L 310.990155 72.807459 
L 317.11505 73.242392 
L 318.340029 72.983102 
L 322.014967 73.197377 
L 323.239946 73.154078 
L 324.464925 72.788506 
L 326.914883 72.894279 
L 328.139862 72.576225 
L 329.364841 72.11388 
L 330.58982 72.179812 
L 331.814799 72.075463 
L 337.939695 72.37123 
L 339.164674 72.133934 
L 341.614632 72.324759 
L 342.839612 71.811151 
L 346.514549 72.101061 
L 347.739528 71.930277 
L 350.189486 72.096411 
L 352.639444 72.177455 
L 356.314382 72.376763 
L 358.76434 72.234362 
L 362.439277 72.381064 
L 363.664256 72.216654 
L 372.23911 72.813066 
L 377.139027 72.697377 
L 380.813964 72.919986 
L 383.263922 72.647166 
L 385.713881 72.811101 
L 389.388818 72.437938 
L 395.513713 72.765113 
L 404.088567 73.173429 
L 405.313546 73.000055 
L 411.438442 73.016855 
L 421.238275 73.399226 
L 422.463254 73.349206 
L 424.913212 73.448607 
L 426.138191 73.347398 
L 427.36317 72.645796 
L 431.038108 72.803953 
L 433.488066 72.447604 
L 434.713045 72.518014 
L 435.938024 72.45907 
L 439.612962 72.646497 
L 443.287899 72.483435 
L 448.187815 72.691463 
L 449.412794 72.470816 
L 453.087732 72.361466 
L 454.312711 72.146835 
L 465.337523 72.669729 
L 471.462419 72.728363 
L 473.912377 72.759574 
L 475.137356 72.703686 
L 477.587314 72.839078 
L 478.812293 72.786466 
L 489.837105 73.245712 
L 491.062084 73.046169 
L 495.962001 73.300348 
L 498.411959 73.004366 
L 503.311876 73.167906 
L 504.536855 72.935747 
L 506.986813 72.985559 
L 509.436771 72.927225 
L 515.561667 73.198974 
L 515.561667 73.198974 
" clip-path="url(#pcd9c7a2c1a)" style="fill: none; stroke-dasharray: 5.55,2.4; stroke-dashoffset: 0; stroke: #ff8c00; stroke-width: 1.5"/>
   </g>
   <g id="patch_3">
    <path d="M 26.795 98.44 
L 26.795 0 
" style="fill: none; stroke: #000000; stroke-width: 0.8; stroke-linejoin: miter; stroke-linecap: square"/>
   </g>
   <g id="patch_4">
    <path d="M 540 98.44 
L 540 0 
" style="fill: none; stroke: #000000; stroke-width: 0.8; stroke-linejoin: miter; stroke-linecap: square"/>
   </g>
   <g id="patch_5">
    <path d="M 26.795 98.44 
L 540 98.44 
" style="fill: none; stroke: #000000; stroke-width: 0.8; stroke-linejoin: miter; stroke-linecap: square"/>
   </g>
   <g id="patch_6">
    <path d="M 26.795 0 
L 540 0 
" style="fill: none; stroke: #000000; stroke-width: 0.8; stroke-linejoin: miter; stroke-linecap: square"/>
   </g>
  </g>
 </g>
 <defs>
  <clipPath id="pcd9c7a2c1a">
   <rect x="26.795" y="0" width="513.205" height="98.44"/>
  </clipPath>
 </defs>
</svg>
