<?xml version="1.0" encoding="utf-8" standalone="no"?>
<!DOCTYPE svg PUBLIC "-//W3C//DTD SVG 1.1//EN"
  "http://www.w3.org/Graphics/SVG/1.1/DTD/svg11.dtd">
<svg xmlns:xlink="http://www.w3.org/1999/xlink" width="540pt" height="129.6pt" viewBox="0 0 540 129.6" xmlns="http://www.w3.org/2000/svg" version="1.1">
 <metadata>
  <rdf:RDF xmlns:dc="http://purl.org/dc/elements/1.1/" xmlns:cc="http://creativecommons.org/ns#" xmlns:rdf="http://www.w3.org/1999/02/22-rdf-syntax-ns#">
   <cc:Work>
    <dc:type rdf:resource="http://purl.org/dc/dcmitype/StillImage"/>
    <dc:date>2025-03-23T08:25:57.621068</dc:date>
    <dc:format>image/svg+xml</dc:format>
    <dc:creator>
     <cc:Agent>
      <dc:title>Matplotlib v3.8.3, https://matplotlib.org/</dc:title>
     </cc:Agent>
    </dc:creator>
   </cc:Work>
  </rdf:RDF>
 </metadata>
 <defs>
  <style type="text/css">*{stroke-linejoin: round; stroke-linecap: butt}</style>
 </defs>
 <g id="figure_1">
  <g id="patch_1">
   <path d="M 0 129.6 
L 540 129.6 
L 540 0 
L 0 0 
z
" style="fill: #ffffff"/>
  </g>
  <g id="axes_1">
   <g id="patch_2">
    <path d="M 35.12 97 
L 540 97 
L 540 0 
L 35.12 0 
z
" style="fill: #ffffff"/>
   </g>
   <g id="matplotlib.axis_1">
    <g id="xtick_1">
     <g id="line2d_1">
      <path d="M 35.12 97 
L 35.12 0 
" clip-path="url(#p37a287da4f)" style="fill: none; stroke: #b0b0b0; stroke-width: 0.8; stroke-linecap: square"/>
     </g>
     <g id="line2d_2">
      <defs>
       <path id="m4884ba275c" d="M 0 0 
L 0 3.5 
" style="stroke: #000000; stroke-width: 0.8"/>
      </defs>
      <g>
       <use xlink:href="#m4884ba275c" x="35.12" y="97" style="stroke: #000000; stroke-width: 0.8"/>
      </g>
     </g>
     <g id="text_1">
      <text style="font: 10px 'Times New Roman'; text-anchor: middle" x="35.12" y="110.94375" transform="rotate(-0 35.12 110.94375)">0</text>
     </g>
    </g>
    <g id="xtick_2">
     <g id="line2d_3">
      <path d="M 95.3754 97 
L 95.3754 0 
" clip-path="url(#p37a287da4f)" style="fill: none; stroke: #b0b0b0; stroke-width: 0.8; stroke-linecap: square"/>
     </g>
     <g id="line2d_4">
      <g>
       <use xlink:href="#m4884ba275c" x="95.3754" y="97" style="stroke: #000000; stroke-width: 0.8"/>
      </g>
     </g>
     <g id="text_2">
      <text style="font: 10px 'Times New Roman'; text-anchor: middle" x="95.3754" y="110.94375" transform="rotate(-0 95.3754 110.94375)">50</text>
     </g>
    </g>
    <g id="xtick_3">
     <g id="line2d_5">
      <path d="M 155.630801 97 
L 155.630801 0 
" clip-path="url(#p37a287da4f)" style="fill: none; stroke: #b0b0b0; stroke-width: 0.8; stroke-linecap: square"/>
     </g>
     <g id="line2d_6">
      <g>
       <use xlink:href="#m4884ba275c" x="155.630801" y="97" style="stroke: #000000; stroke-width: 0.8"/>
      </g>
     </g>
     <g id="text_3">
      <text style="font: 10px 'Times New Roman'; text-anchor: middle" x="155.630801" y="110.94375" transform="rotate(-0 155.630801 110.94375)">100</text>
     </g>
    </g>
    <g id="xtick_4">
     <g id="line2d_7">
      <path d="M 215.886201 97 
L 215.886201 0 
" clip-path="url(#p37a287da4f)" style="fill: none; stroke: #b0b0b0; stroke-width: 0.8; stroke-linecap: square"/>
     </g>
     <g id="line2d_8">
      <g>
       <use xlink:href="#m4884ba275c" x="215.886201" y="97" style="stroke: #000000; stroke-width: 0.8"/>
      </g>
     </g>
     <g id="text_4">
      <text style="font: 10px 'Times New Roman'; text-anchor: middle" x="215.886201" y="110.94375" transform="rotate(-0 215.886201 110.94375)">150</text>
     </g>
    </g>
    <g id="xtick_5">
     <g id="line2d_9">
      <path d="M 276.141602 97 
L 276.141602 0 
" clip-path="url(#p37a287da4f)" style="fill: none; stroke: #b0b0b0; stroke-width: 0.8; stroke-linecap: square"/>
     </g>
     <g id="line2d_10">
      <g>
       <use xlink:href="#m4884ba275c" x="276.141602" y="97" style="stroke: #000000; stroke-width: 0.8"/>
      </g>
     </g>
     <g id="text_5">
      <text style="font: 10px 'Times New Roman'; text-anchor: middle" x="276.141602" y="110.94375" transform="rotate(-0 276.141602 110.94375)">200</text>
     </g>
    </g>
    <g id="xtick_6">
     <g id="line2d_11">
      <path d="M 336.397002 97 
L 336.397002 0 
" clip-path="url(#p37a287da4f)" style="fill: none; stroke: #b0b0b0; stroke-width: 0.8; stroke-linecap: square"/>
     </g>
     <g id="line2d_12">
      <g>
       <use xlink:href="#m4884ba275c" x="336.397002" y="97" style="stroke: #000000; stroke-width: 0.8"/>
      </g>
     </g>
     <g id="text_6">
      <text style="font: 10px 'Times New Roman'; text-anchor: middle" x="336.397002" y="110.94375" transform="rotate(-0 336.397002 110.94375)">250</text>
     </g>
    </g>
    <g id="xtick_7">
     <g id="line2d_13">
      <path d="M 396.652402 97 
L 396.652402 0 
" clip-path="url(#p37a287da4f)" style="fill: none; stroke: #b0b0b0; stroke-width: 0.8; stroke-linecap: square"/>
     </g>
     <g id="line2d_14">
      <g>
       <use xlink:href="#m4884ba275c" x="396.652402" y="97" style="stroke: #000000; stroke-width: 0.8"/>
      </g>
     </g>
     <g id="text_7">
      <text style="font: 10px 'Times New Roman'; text-anchor: middle" x="396.652402" y="110.94375" transform="rotate(-0 396.652402 110.94375)">300</text>
     </g>
    </g>
    <g id="xtick_8">
     <g id="line2d_15">
      <path d="M 456.907803 97 
L 456.907803 0 
" clip-path="url(#p37a287da4f)" style="fill: none; stroke: #b0b0b0; stroke-width: 0.8; stroke-linecap: square"/>
     </g>
     <g id="line2d_16">
      <g>
       <use xlink:href="#m4884ba275c" x="456.907803" y="97" style="stroke: #000000; stroke-width: 0.8"/>
      </g>
     </g>
     <g id="text_8">
      <text style="font: 10px 'Times New Roman'; text-anchor: middle" x="456.907803" y="110.94375" transform="rotate(-0 456.907803 110.94375)">350</text>
     </g>
    </g>
    <g id="xtick_9">
     <g id="line2d_17">
      <path d="M 517.163203 97 
L 517.163203 0 
" clip-path="url(#p37a287da4f)" style="fill: none; stroke: #b0b0b0; stroke-width: 0.8; stroke-linecap: square"/>
     </g>
     <g id="line2d_18">
      <g>
       <use xlink:href="#m4884ba275c" x="517.163203" y="97" style="stroke: #000000; stroke-width: 0.8"/>
      </g>
     </g>
     <g id="text_9">
      <text style="font: 10px 'Times New Roman'; text-anchor: middle" x="517.163203" y="110.94375" transform="rotate(-0 517.163203 110.94375)">400</text>
     </g>
    </g>
    <g id="text_10">
     <text style="font: 12px 'Times New Roman'; text-anchor: middle" x="287.56" y="125.415312" transform="rotate(-0 287.56 125.415312)">Simulation Run</text>
    </g>
   </g>
   <g id="matplotlib.axis_2">
    <g id="ytick_1">
     <g id="line2d_19">
      <path d="M 35.12 97 
L 540 97 
" clip-path="url(#p37a287da4f)" style="fill: none; stroke: #b0b0b0; stroke-width: 0.8; stroke-linecap: square"/>
     </g>
     <g id="line2d_20">
      <defs>
       <path id="mdea6fed00b" d="M 0 0 
L -3.5 0 
" style="stroke: #000000; stroke-width: 0.8"/>
      </defs>
      <g>
       <use xlink:href="#mdea6fed00b" x="35.12" y="97" style="stroke: #000000; stroke-width: 0.8"/>
      </g>
     </g>
     <g id="text_11">
      <text style="font: 10px 'Times New Roman'; text-anchor: end" x="28.12" y="100.471875" transform="rotate(-0 28.12 100.471875)">0.0</text>
     </g>
    </g>
    <g id="ytick_2">
     <g id="line2d_21">
      <path d="M 35.12 68.470588 
L 540 68.470588 
" clip-path="url(#p37a287da4f)" style="fill: none; stroke: #b0b0b0; stroke-width: 0.8; stroke-linecap: square"/>
     </g>
     <g id="line2d_22">
      <g>
       <use xlink:href="#mdea6fed00b" x="35.12" y="68.470588" style="stroke: #000000; stroke-width: 0.8"/>
      </g>
     </g>
     <g id="text_12">
      <text style="font: 10px 'Times New Roman'; text-anchor: end" x="28.12" y="71.942463" transform="rotate(-0 28.12 71.942463)">0.5</text>
     </g>
    </g>
    <g id="ytick_3">
     <g id="line2d_23">
      <path d="M 35.12 39.941176 
L 540 39.941176 
" clip-path="url(#p37a287da4f)" style="fill: none; stroke: #b0b0b0; stroke-width: 0.8; stroke-linecap: square"/>
     </g>
     <g id="line2d_24">
      <g>
       <use xlink:href="#mdea6fed00b" x="35.12" y="39.941176" style="stroke: #000000; stroke-width: 0.8"/>
      </g>
     </g>
     <g id="text_13">
      <text style="font: 10px 'Times New Roman'; text-anchor: end" x="28.12" y="43.413051" transform="rotate(-0 28.12 43.413051)">1.0</text>
     </g>
    </g>
    <g id="ytick_4">
     <g id="line2d_25">
      <path d="M 35.12 11.411765 
L 540 11.411765 
" clip-path="url(#p37a287da4f)" style="fill: none; stroke: #b0b0b0; stroke-width: 0.8; stroke-linecap: square"/>
     </g>
     <g id="line2d_26">
      <g>
       <use xlink:href="#mdea6fed00b" x="35.12" y="11.411765" style="stroke: #000000; stroke-width: 0.8"/>
      </g>
     </g>
     <g id="text_14">
      <text style="font: 10px 'Times New Roman'; text-anchor: end" x="28.12" y="14.88364" transform="rotate(-0 28.12 14.88364)">1.5</text>
     </g>
    </g>
    <g id="text_15">
     <text style="font: 12px 'Times New Roman'; text-anchor: middle" x="9.053125" y="48.5" transform="rotate(-90 9.053125 48.5)">Normalized Value</text>
    </g>
   </g>
   <g id="line2d_27">
    <path d="M 35.12 33.129756 
L 36.325108 34.662145 
L 37.530216 29.979457 
L 38.735324 35.433993 
L 39.940432 39.694894 
L 41.14554 36.416217 
L 42.350648 33.708609 
L 43.555756 33.032003 
L 44.760864 34.832365 
L 45.965972 35.986776 
L 47.17108 36.480963 
L 48.376188 35.790331 
L 49.581296 33.802855 
L 50.786404 34.298563 
L 51.991512 34.655978 
L 53.19662 36.683017 
L 54.401728 36.23715 
L 55.606836 35.9935 
L 56.811944 35.454037 
L 58.017052 34.025096 
L 59.22216 34.010948 
L 60.427268 34.361083 
L 62.837484 36.944231 
L 64.042592 37.435445 
L 65.2477 36.192115 
L 66.452808 36.904773 
L 68.863024 38.101121 
L 70.068132 38.051259 
L 71.27324 38.68182 
L 73.683456 38.842559 
L 74.888564 39.084014 
L 76.093672 38.913716 
L 77.29878 39.118262 
L 78.503888 39.802287 
L 79.708996 40.21661 
L 80.914104 39.129597 
L 82.119212 39.031469 
L 83.32432 38.788947 
L 84.529428 38.83761 
L 85.734536 37.775478 
L 86.939644 37.089263 
L 89.34986 36.445529 
L 90.554968 36.46722 
L 91.760076 36.299414 
L 92.965184 36.48879 
L 94.170292 36.557801 
L 95.3754 36.806073 
L 96.580508 35.89676 
L 97.785616 35.308355 
L 100.195832 35.895016 
L 102.606048 36.662325 
L 103.811156 36.523426 
L 105.016264 36.934293 
L 106.221372 36.737894 
L 107.42648 36.978331 
L 108.631588 36.83185 
L 111.041805 36.913985 
L 113.452021 37.886646 
L 114.657129 37.835107 
L 117.067345 38.104993 
L 118.272453 37.836509 
L 119.477561 37.194913 
L 120.682669 37.094835 
L 121.887777 37.289569 
L 123.092885 37.365276 
L 124.297993 37.58805 
L 125.503101 37.564467 
L 126.708209 37.202157 
L 129.118425 36.909441 
L 130.323533 36.922861 
L 131.528641 37.144195 
L 132.733749 37.053385 
L 133.938857 37.182232 
L 135.143965 37.062334 
L 136.349073 37.130013 
L 137.554181 36.813845 
L 138.759289 36.84649 
L 142.374613 37.469282 
L 143.579721 37.285122 
L 147.195045 37.475172 
L 150.810369 37.491308 
L 152.015477 37.10153 
L 153.220585 36.895942 
L 154.425693 36.982578 
L 156.835909 36.842343 
L 159.246125 37.047132 
L 161.656341 37.163128 
L 164.066557 37.39283 
L 165.271665 37.046139 
L 167.681881 37.238926 
L 168.886989 37.494035 
L 170.092097 37.603052 
L 177.322745 37.502797 
L 182.143177 37.568524 
L 183.348285 37.750887 
L 185.758501 37.979998 
L 188.168717 38.239847 
L 190.578933 38.319916 
L 191.784041 38.193087 
L 192.989149 38.421025 
L 197.809581 38.420382 
L 199.014689 38.650497 
L 203.835121 38.73354 
L 205.040229 38.829553 
L 211.065769 38.388973 
L 213.475985 38.636352 
L 214.681093 38.230593 
L 223.116849 38.428316 
L 224.321957 38.488473 
L 225.527065 38.347556 
L 231.552605 38.713254 
L 233.962821 38.801287 
L 236.373037 39.03226 
L 239.988361 38.869455 
L 242.398577 38.865403 
L 243.603685 38.968555 
L 246.013901 38.855218 
L 248.424117 38.996259 
L 252.039441 38.913417 
L 254.449657 39.04181 
L 259.27009 38.817871 
L 260.475198 38.877433 
L 261.680306 38.824598 
L 265.29563 38.985085 
L 267.705846 38.857273 
L 270.116062 38.902158 
L 272.526278 38.974535 
L 288.192682 39.89307 
L 290.602898 39.809775 
L 293.013114 39.902396 
L 294.218222 39.826291 
L 297.833546 39.94429 
L 300.243762 40.002932 
L 303.859086 40.010994 
L 312.294842 40.01074 
L 313.49995 40.067041 
L 315.910166 40.007002 
L 331.57657 40.363224 
L 352.063406 40.390566 
L 356.883838 40.425207 
L 359.294054 40.422413 
L 362.909378 40.322521 
L 364.114486 40.250534 
L 366.524702 40.333876 
L 368.934918 40.361003 
L 373.75535 40.418162 
L 374.960458 40.286087 
L 384.601322 40.288015 
L 388.216646 40.195196 
L 390.626862 40.124234 
L 393.037078 40.10513 
L 396.652402 40.177302 
L 403.88305 40.043958 
L 407.498375 40.128256 
L 417.139239 40.115722 
L 423.164779 40.256747 
L 425.574995 40.270564 
L 427.985211 40.364542 
L 431.600535 40.299452 
L 441.241399 40.367978 
L 448.472047 40.361737 
L 454.497587 40.423693 
L 456.907803 40.398211 
L 459.318019 40.382751 
L 489.445719 40.420648 
L 496.676367 40.096645 
L 499.086583 40.041157 
L 505.112123 39.961912 
L 509.932555 39.857828 
L 515.958095 39.941176 
L 515.958095 39.941176 
" clip-path="url(#p37a287da4f)" style="fill: none; stroke: #4169e1; stroke-width: 1.5; stroke-linecap: square"/>
   </g>
   <g id="line2d_28">
    <path d="M 35.12 97 
L 36.325108 96.444453 
L 37.530216 86.254266 
L 38.735324 67.824295 
L 39.940432 56.478536 
L 41.14554 50.516121 
L 42.350648 46.750144 
L 43.555756 52.27323 
L 44.760864 51.108181 
L 45.965972 52.859795 
L 47.17108 56.294757 
L 48.376188 58.445584 
L 49.581296 50.197113 
L 51.991512 55.309018 
L 53.19662 43.33333 
L 55.606836 48.346826 
L 56.811944 49.668212 
L 58.017052 42.856431 
L 59.22216 45.433749 
L 60.427268 47.168589 
L 62.837484 33.909237 
L 64.042592 35.062822 
L 65.2477 28.301873 
L 66.452808 27.722189 
L 67.657916 28.06586 
L 68.863024 27.90618 
L 70.068132 30.19225 
L 71.27324 29.525331 
L 73.683456 33.518765 
L 77.29878 37.805745 
L 78.503888 35.420585 
L 79.708996 35.538431 
L 80.914104 26.491655 
L 82.119212 28.165518 
L 83.32432 29.287804 
L 84.529428 30.877029 
L 85.734536 21.205194 
L 86.939644 18.137392 
L 88.144752 18.670368 
L 89.34986 19.405698 
L 90.554968 21.05152 
L 94.170292 24.853518 
L 95.3754 25.539023 
L 96.580508 16.936747 
L 97.785616 14.188061 
L 98.990724 14.741761 
L 100.195832 15.032377 
L 101.40094 14.449066 
L 102.606048 14.076953 
L 103.811156 15.246492 
L 105.016264 14.315747 
L 106.221372 15.155411 
L 107.42648 15.676517 
L 108.631588 16.678535 
L 111.041805 19.138845 
L 112.246913 16.237867 
L 113.452021 14.314675 
L 114.657129 15.507308 
L 115.862237 16.262206 
L 117.067345 17.262932 
L 118.272453 17.225324 
L 119.477561 11.531733 
L 120.682669 12.550558 
L 121.887777 13.061453 
L 123.092885 14.09677 
L 124.297993 14.333294 
L 125.503101 15.411145 
L 126.708209 14.110489 
L 127.913317 14.55775 
L 129.118425 15.382425 
L 130.323533 16.399278 
L 131.528641 16.467163 
L 132.733749 17.291244 
L 135.143965 18.588556 
L 136.349073 19.420017 
L 137.554181 18.311918 
L 138.759289 19.194695 
L 139.964397 19.478817 
L 141.169505 18.79399 
L 143.579721 19.125806 
L 147.195045 21.315252 
L 149.605261 22.835027 
L 150.810369 23.430728 
L 152.015477 20.69493 
L 153.220585 20.485742 
L 156.835909 22.320155 
L 158.041017 22.5771 
L 161.656341 24.297984 
L 162.861449 24.352426 
L 164.066557 24.894471 
L 165.271665 22.484894 
L 167.681881 23.345007 
L 168.886989 22.29358 
L 170.092097 22.639787 
L 173.707421 24.466485 
L 174.912529 24.152678 
L 176.117637 24.471943 
L 180.938069 26.738498 
L 182.143177 27.225079 
L 183.348285 26.820032 
L 184.553393 27.263517 
L 186.963609 26.821764 
L 189.373825 27.386353 
L 190.578933 27.921608 
L 191.784041 27.954198 
L 192.989149 26.867036 
L 195.399365 27.842913 
L 197.809581 28.808714 
L 199.014689 27.602686 
L 202.630013 28.99877 
L 203.835121 29.328361 
L 206.245337 29.581793 
L 207.450445 29.262375 
L 208.655553 29.65225 
L 209.860661 29.419626 
L 212.270877 29.780992 
L 213.475985 29.393362 
L 214.681093 24.040375 
L 215.886201 24.517925 
L 217.091309 24.788202 
L 220.706633 26.074215 
L 221.911741 25.985634 
L 224.321957 26.602082 
L 225.527065 26.30256 
L 226.732173 26.454918 
L 227.937281 26.891479 
L 230.347497 25.874931 
L 232.757713 26.696812 
L 233.962821 26.903421 
L 235.167929 26.995836 
L 236.373037 26.641693 
L 237.578145 26.773819 
L 242.398577 28.260351 
L 243.603685 28.219915 
L 247.219009 28.913296 
L 249.629225 29.3764 
L 250.834333 29.722528 
L 252.039441 29.929056 
L 253.244549 29.896188 
L 254.449657 30.219945 
L 255.654765 30.391945 
L 256.859873 30.367703 
L 259.27009 30.958112 
L 261.680306 31.376681 
L 262.885414 31.411306 
L 264.090522 31.734952 
L 265.29563 31.932363 
L 266.500738 31.725234 
L 267.705846 32.046329 
L 268.910954 32.128523 
L 271.32117 32.746817 
L 273.731386 32.948148 
L 274.936494 32.43237 
L 279.756926 33.06523 
L 282.167142 32.628565 
L 283.37225 32.708438 
L 284.577358 32.504903 
L 286.987574 33.093854 
L 288.192682 33.023515 
L 293.013114 33.813067 
L 294.218222 33.810993 
L 296.628438 34.139552 
L 299.038654 34.661548 
L 300.243762 34.59083 
L 303.859086 35.360934 
L 306.269302 35.887026 
L 307.47441 35.826907 
L 309.884626 36.276421 
L 311.089734 36.112459 
L 312.294842 36.374934 
L 313.49995 36.463017 
L 314.705058 36.403015 
L 317.115274 36.832808 
L 318.320382 36.523082 
L 319.52549 36.733722 
L 320.730598 36.439172 
L 323.140814 36.886671 
L 324.345922 37.073746 
L 325.55103 36.908479 
L 332.781678 38.29594 
L 336.397002 38.745368 
L 337.60211 38.788781 
L 341.217434 39.344058 
L 342.422542 39.554535 
L 343.62765 39.53043 
L 347.242974 40.120281 
L 348.448082 39.855281 
L 349.65319 40.073273 
L 353.268514 40.296475 
L 355.67873 40.419511 
L 356.883838 40.630497 
L 359.294054 40.830452 
L 361.70427 41.163187 
L 362.909378 41.159453 
L 365.319594 40.870727 
L 367.72981 41.225958 
L 368.934918 41.239559 
L 373.75535 41.841677 
L 374.960458 40.872783 
L 377.370674 41.207157 
L 378.575782 40.550106 
L 380.985998 40.709475 
L 382.191106 40.62176 
L 383.396214 40.340376 
L 384.601322 40.520785 
L 385.80643 40.410805 
L 387.011538 40.518978 
L 388.216646 40.448873 
L 389.421754 40.632354 
L 390.626862 40.355434 
L 394.242186 40.616699 
L 395.447294 40.791681 
L 397.85751 40.920476 
L 399.062618 41.074662 
L 400.267726 40.745096 
L 403.88305 41.114074 
L 406.293266 41.187875 
L 409.908591 41.685983 
L 412.318807 41.673298 
L 413.523915 41.239742 
L 417.139239 41.699219 
L 419.549455 41.776546 
L 420.754563 41.932441 
L 421.959671 41.905906 
L 424.369887 42.182803 
L 425.574995 42.218714 
L 426.780103 42.10299 
L 427.985211 42.185715 
L 429.190319 42.147665 
L 434.010751 42.715499 
L 438.831183 43.304 
L 443.651615 43.635144 
L 444.856723 43.083476 
L 447.266939 43.071327 
L 449.677155 43.287794 
L 452.087371 43.323416 
L 454.497587 43.613309 
L 455.702695 43.425099 
L 459.318019 43.552648 
L 465.343559 44.187296 
L 466.548667 44.330819 
L 467.753775 44.268868 
L 471.369099 44.591955 
L 484.625287 45.611594 
L 485.830395 44.342564 
L 489.445719 44.621803 
L 491.855935 44.732273 
L 493.061043 44.799543 
L 494.266151 40.574602 
L 495.471259 40.525176 
L 496.676367 40.606753 
L 497.881475 40.35133 
L 501.496799 40.764018 
L 502.701907 40.445862 
L 503.907015 39.526839 
L 505.112123 39.347264 
L 506.317231 39.355215 
L 508.727447 39.503826 
L 509.932555 39.459492 
L 515.958095 39.941176 
L 515.958095 39.941176 
" clip-path="url(#p37a287da4f)" style="fill: none; stroke-dasharray: 5.55,2.4; stroke-dashoffset: 0; stroke: #4169e1; stroke-width: 1.5"/>
   </g>
   <g id="line2d_29">
    <path d="M 35.12 38.386898 
L 36.325108 38.994234 
L 37.530216 33.219023 
L 38.735324 38.10237 
L 39.940432 42.316428 
L 41.14554 38.980191 
L 42.350648 36.659986 
L 43.555756 35.329841 
L 44.760864 36.750128 
L 45.965972 37.544981 
L 47.17108 37.727457 
L 48.376188 36.826554 
L 49.581296 35.147129 
L 50.786404 35.122627 
L 51.991512 35.356687 
L 53.19662 37.314389 
L 54.401728 36.989023 
L 55.606836 36.79917 
L 56.811944 36.496077 
L 58.017052 34.895969 
L 60.427268 35.182083 
L 62.837484 37.589031 
L 64.042592 38.089584 
L 65.2477 36.758777 
L 66.452808 37.451928 
L 68.863024 38.442822 
L 70.068132 38.344084 
L 71.27324 38.93483 
L 77.29878 39.146686 
L 78.503888 39.830282 
L 79.708996 40.226785 
L 80.914104 39.185529 
L 83.32432 38.916626 
L 84.529428 38.967352 
L 85.734536 37.91138 
L 86.939644 37.208656 
L 89.34986 36.500974 
L 90.554968 36.597884 
L 91.760076 36.403369 
L 92.965184 36.57649 
L 94.170292 36.573809 
L 95.3754 36.864069 
L 96.580508 36.028288 
L 97.785616 35.556224 
L 101.40094 36.473702 
L 102.606048 36.878501 
L 103.811156 36.757978 
L 105.016264 37.199913 
L 106.221372 36.943702 
L 107.42648 37.2018 
L 108.631588 37.00828 
L 111.041805 37.041175 
L 113.452021 37.986079 
L 114.657129 37.935189 
L 117.067345 38.250984 
L 118.272453 37.978184 
L 119.477561 37.386281 
L 120.682669 37.280747 
L 121.887777 37.480287 
L 123.092885 37.532318 
L 124.297993 37.735858 
L 125.503101 37.727559 
L 126.708209 37.372554 
L 127.913317 37.141927 
L 130.323533 37.065366 
L 131.528641 37.299101 
L 132.733749 37.192779 
L 133.938857 37.35116 
L 135.143965 37.191682 
L 136.349073 37.284198 
L 137.554181 36.954473 
L 139.964397 37.164709 
L 141.169505 37.432208 
L 142.374613 37.559355 
L 143.579721 37.374049 
L 147.195045 37.511718 
L 149.605261 37.362834 
L 150.810369 37.439878 
L 152.015477 37.111795 
L 153.220585 36.899705 
L 154.425693 36.984385 
L 156.835909 36.813055 
L 159.246125 37.01155 
L 161.656341 37.089323 
L 164.066557 37.27399 
L 165.271665 37.003631 
L 171.297205 37.495275 
L 173.707421 37.4631 
L 174.912529 37.285425 
L 177.322745 37.392728 
L 182.143177 37.489942 
L 183.348285 37.688503 
L 185.758501 37.917961 
L 189.373825 38.272891 
L 191.784041 38.149391 
L 192.989149 38.375819 
L 197.809581 38.358431 
L 199.014689 38.594182 
L 203.835121 38.637886 
L 205.040229 38.760962 
L 207.450445 38.495564 
L 208.655553 38.544707 
L 211.065769 38.313208 
L 213.475985 38.535103 
L 214.681093 38.180067 
L 220.706633 38.14267 
L 223.116849 38.355108 
L 224.321957 38.414386 
L 225.527065 38.243549 
L 233.962821 38.669916 
L 237.578145 38.810186 
L 242.398577 38.736856 
L 243.603685 38.837367 
L 247.219009 38.804322 
L 249.629225 38.852747 
L 256.859873 38.789093 
L 261.680306 38.732521 
L 265.29563 38.898334 
L 267.705846 38.800191 
L 270.116062 38.847996 
L 272.526278 38.912482 
L 288.192682 39.808388 
L 291.808006 39.768676 
L 293.013114 39.819461 
L 294.218222 39.751015 
L 297.833546 39.843806 
L 300.243762 39.895747 
L 303.859086 39.91552 
L 309.884626 39.869307 
L 312.294842 39.96033 
L 313.49995 40.009978 
L 315.910166 39.968443 
L 326.756138 40.31041 
L 333.986786 40.274067 
L 336.397002 40.234318 
L 338.807218 40.303713 
L 342.422542 40.252769 
L 346.037866 40.313685 
L 348.448082 40.260593 
L 350.858298 40.289236 
L 353.268514 40.390111 
L 355.67873 40.391607 
L 370.140026 40.347412 
L 373.75535 40.354706 
L 374.960458 40.219161 
L 382.191106 40.281005 
L 383.396214 40.182456 
L 387.011538 40.179109 
L 391.83197 40.027374 
L 399.062618 40.062705 
L 401.472834 39.959903 
L 405.088158 40.04581 
L 409.908591 40.068359 
L 412.318807 39.974417 
L 414.729023 40.057529 
L 417.139239 40.044962 
L 427.985211 40.298123 
L 431.600535 40.232957 
L 443.651615 40.28655 
L 444.856723 40.205137 
L 450.882263 40.355134 
L 455.702695 40.291846 
L 460.523127 40.317174 
L 484.625287 40.460978 
L 487.035503 40.314252 
L 490.650827 40.278192 
L 493.061043 40.290066 
L 494.266151 40.088763 
L 500.291691 39.988118 
L 505.112123 39.927763 
L 511.137663 39.862913 
L 515.958095 39.941176 
L 515.958095 39.941176 
" clip-path="url(#p37a287da4f)" style="fill: none; stroke: #ff8c00; stroke-width: 1.5; stroke-linecap: square"/>
   </g>
   <g id="line2d_30">
    <path d="M 35.12 97 
L 36.325108 96.905552 
L 37.530216 79.856546 
L 38.735324 65.823862 
L 39.940432 53.870651 
L 41.14554 46.808766 
L 42.350648 45.708314 
L 43.555756 48.948522 
L 44.760864 50.15542 
L 45.965972 53.383913 
L 47.17108 57.263751 
L 48.376188 58.289068 
L 49.581296 52.60046 
L 50.786404 55.769857 
L 51.991512 58.322143 
L 53.19662 46.019135 
L 55.606836 51.117162 
L 56.811944 53.108642 
L 58.017052 42.846976 
L 59.22216 45.366476 
L 60.427268 47.541968 
L 62.837484 35.328119 
L 64.042592 36.255254 
L 65.2477 27.254412 
L 66.452808 26.638952 
L 68.863024 28.09731 
L 70.068132 30.321673 
L 71.27324 29.79183 
L 73.683456 33.853481 
L 76.093672 37.115603 
L 77.29878 38.511687 
L 78.503888 35.78485 
L 79.708996 35.906311 
L 80.914104 26.923276 
L 82.119212 28.547856 
L 84.529428 31.537208 
L 85.734536 21.067668 
L 86.939644 17.356241 
L 88.144752 17.548154 
L 89.34986 17.994268 
L 90.554968 19.564622 
L 92.965184 21.910838 
L 94.170292 23.412531 
L 95.3754 23.776772 
L 96.580508 16.062915 
L 97.785616 14.622878 
L 98.990724 15.13562 
L 100.195832 15.241643 
L 101.40094 15.185556 
L 102.606048 14.271252 
L 103.811156 15.485604 
L 105.016264 13.966658 
L 107.42648 14.690188 
L 108.631588 15.432818 
L 111.041805 17.963284 
L 112.246913 14.769914 
L 113.452021 12.992723 
L 114.657129 14.202796 
L 115.862237 14.73318 
L 117.067345 15.692569 
L 118.272453 15.539261 
L 119.477561 10.406978 
L 120.682669 11.40718 
L 121.887777 11.845632 
L 123.092885 12.945762 
L 124.297993 13.281493 
L 125.503101 14.38173 
L 126.708209 13.002147 
L 127.913317 13.030355 
L 129.118425 13.922006 
L 130.323533 14.955277 
L 131.528641 14.84906 
L 132.733749 15.616442 
L 135.143965 16.493205 
L 136.349073 17.256245 
L 137.554181 15.817271 
L 138.759289 16.692438 
L 139.964397 17.042348 
L 141.169505 16.328387 
L 142.374613 16.856324 
L 143.579721 16.945693 
L 145.989937 18.439959 
L 148.400153 19.986234 
L 150.810369 21.266287 
L 152.015477 19.365616 
L 153.220585 19.021037 
L 156.835909 20.744134 
L 158.041017 20.953461 
L 161.656341 22.910273 
L 162.861449 23.023245 
L 164.066557 23.667492 
L 165.271665 22.318932 
L 166.476773 22.625667 
L 167.681881 23.092159 
L 168.886989 22.079528 
L 170.092097 22.511192 
L 173.707421 24.236131 
L 174.912529 23.920381 
L 176.117637 24.186973 
L 178.527853 25.374566 
L 182.143177 26.987977 
L 183.348285 26.310852 
L 184.553393 26.758569 
L 185.758501 26.406769 
L 186.963609 26.301813 
L 189.373825 26.668251 
L 190.578933 27.196927 
L 191.784041 27.368531 
L 192.989149 26.176294 
L 196.604473 27.669867 
L 197.809581 28.14507 
L 199.014689 26.712205 
L 202.630013 28.179472 
L 203.835121 28.528838 
L 206.245337 28.461302 
L 207.450445 28.110665 
L 208.655553 28.496719 
L 209.860661 28.01609 
L 212.270877 28.573508 
L 213.475985 28.158949 
L 214.681093 23.808765 
L 217.091309 24.666597 
L 220.706633 25.964935 
L 221.911741 25.718342 
L 224.321957 26.228845 
L 225.527065 25.493202 
L 226.732173 25.700317 
L 227.937281 26.143171 
L 229.142389 25.69274 
L 230.347497 24.872995 
L 232.757713 25.706723 
L 235.167929 26.129599 
L 236.373037 25.844409 
L 237.578145 26.10377 
L 242.398577 27.608033 
L 243.603685 27.559322 
L 244.808793 27.887694 
L 249.629225 28.73016 
L 250.834333 29.108204 
L 252.039441 29.352222 
L 253.244549 29.126423 
L 254.449657 29.451755 
L 256.859873 29.576256 
L 260.475198 30.464167 
L 261.680306 30.760189 
L 262.885414 30.845742 
L 264.090522 31.170755 
L 265.29563 31.266127 
L 266.500738 31.151987 
L 267.705846 31.491218 
L 268.910954 31.582057 
L 271.32117 32.218767 
L 273.731386 32.442269 
L 274.936494 31.910363 
L 278.551818 32.255693 
L 279.756926 32.495693 
L 282.167142 32.001146 
L 283.37225 32.031176 
L 284.577358 31.922273 
L 286.987574 32.498305 
L 288.192682 32.479407 
L 297.833546 33.91087 
L 299.038654 34.169046 
L 300.243762 34.140517 
L 303.859086 34.899917 
L 306.269302 35.392993 
L 307.47441 35.271411 
L 309.884626 35.635714 
L 311.089734 35.35247 
L 312.294842 35.61734 
L 313.49995 35.736121 
L 314.705058 35.725363 
L 317.115274 36.055702 
L 318.320382 35.635933 
L 319.52549 35.735742 
L 320.730598 35.406554 
L 324.345922 36.090527 
L 325.55103 35.994753 
L 332.781678 37.429642 
L 346.037866 39.174806 
L 347.242974 39.368384 
L 348.448082 39.225222 
L 349.65319 39.428088 
L 350.858298 39.511787 
L 352.063406 39.473321 
L 354.473622 39.631737 
L 355.67873 39.664905 
L 358.088946 39.973505 
L 362.909378 40.352977 
L 365.319594 40.188461 
L 367.72981 40.53065 
L 368.934918 40.488918 
L 373.75535 41.139948 
L 374.960458 40.010685 
L 377.370674 40.356947 
L 378.575782 39.697804 
L 380.985998 39.889685 
L 382.191106 39.827941 
L 383.396214 39.306408 
L 384.601322 39.471691 
L 385.80643 39.370313 
L 387.011538 39.454084 
L 388.216646 39.33954 
L 389.421754 39.52433 
L 390.626862 39.43494 
L 394.242186 39.784393 
L 395.447294 39.969488 
L 397.85751 40.072839 
L 399.062618 40.231489 
L 400.267726 39.891084 
L 402.677942 40.229368 
L 405.088158 40.266661 
L 411.113699 40.929951 
L 412.318807 40.904785 
L 413.523915 40.325716 
L 417.139239 40.730808 
L 423.164779 41.154054 
L 424.369887 41.291861 
L 425.574995 41.315989 
L 426.780103 41.152877 
L 427.985211 41.229677 
L 429.190319 41.181097 
L 434.010751 41.785567 
L 438.831183 42.395313 
L 443.651615 42.741151 
L 444.856723 42.323227 
L 447.266939 42.288488 
L 449.677155 42.511385 
L 450.882263 42.452529 
L 453.292479 42.64728 
L 454.497587 42.785621 
L 455.702695 42.599431 
L 460.523127 42.991672 
L 466.548667 43.672554 
L 467.753775 43.665933 
L 470.163991 43.880068 
L 474.984423 44.21666 
L 481.009963 44.654945 
L 484.625287 45.011738 
L 485.830395 43.669516 
L 493.061043 44.171156 
L 494.266151 40.356154 
L 496.676367 40.42166 
L 497.881475 40.263514 
L 501.496799 40.659911 
L 502.701907 40.254342 
L 503.907015 39.613654 
L 505.112123 39.426518 
L 515.958095 39.941176 
L 515.958095 39.941176 
" clip-path="url(#p37a287da4f)" style="fill: none; stroke-dasharray: 5.55,2.4; stroke-dashoffset: 0; stroke: #ff8c00; stroke-width: 1.5"/>
   </g>
   <g id="patch_3">
    <path d="M 35.12 97 
L 35.12 0 
" style="fill: none; stroke: #000000; stroke-width: 0.8; stroke-linejoin: miter; stroke-linecap: square"/>
   </g>
   <g id="patch_4">
    <path d="M 540 97 
L 540 0 
" style="fill: none; stroke: #000000; stroke-width: 0.8; stroke-linejoin: miter; stroke-linecap: square"/>
   </g>
   <g id="patch_5">
    <path d="M 35.12 97 
L 540 97 
" style="fill: none; stroke: #000000; stroke-width: 0.8; stroke-linejoin: miter; stroke-linecap: square"/>
   </g>
   <g id="patch_6">
    <path d="M 35.12 0 
L 540 0 
" style="fill: none; stroke: #000000; stroke-width: 0.8; stroke-linejoin: miter; stroke-linecap: square"/>
   </g>
  </g>
 </g>
 <defs>
  <clipPath id="p37a287da4f">
   <rect x="35.12" y="0" width="504.88" height="97"/>
  </clipPath>
 </defs>
</svg>
