<?xml version="1.0" encoding="utf-8" standalone="no"?>
<!DOCTYPE svg PUBLIC "-//W3C//DTD SVG 1.1//EN"
  "http://www.w3.org/Graphics/SVG/1.1/DTD/svg11.dtd">
<svg xmlns:xlink="http://www.w3.org/1999/xlink" width="540pt" height="129.6pt" viewBox="0 0 540 129.6" xmlns="http://www.w3.org/2000/svg" version="1.1">
 <metadata>
  <rdf:RDF xmlns:dc="http://purl.org/dc/elements/1.1/" xmlns:cc="http://creativecommons.org/ns#" xmlns:rdf="http://www.w3.org/1999/02/22-rdf-syntax-ns#">
   <cc:Work>
    <dc:type rdf:resource="http://purl.org/dc/dcmitype/StillImage"/>
    <dc:date>2025-04-06T17:08:10.388916</dc:date>
    <dc:format>image/svg+xml</dc:format>
    <dc:creator>
     <cc:Agent>
      <dc:title>Matplotlib v3.10.1, https://matplotlib.org/</dc:title>
     </cc:Agent>
    </dc:creator>
   </cc:Work>
  </rdf:RDF>
 </metadata>
 <defs>
  <style type="text/css">*{stroke-linejoin: round; stroke-linecap: butt}</style>
 </defs>
 <g id="figure_1">
  <g id="patch_1">
   <path d="M 0 129.6 
L 540 129.6 
L 540 0 
L 0 0 
z
" style="fill: #ffffff"/>
  </g>
  <g id="axes_1">
   <g id="patch_2">
    <path d="M 34.31 98.44 
L 540 98.44 
L 540 0 
L 34.31 0 
z
" style="fill: #ffffff"/>
   </g>
   <g id="matplotlib.axis_1">
    <g id="xtick_1">
     <g id="line2d_1">
      <path d="M 34.31 98.44 
L 34.31 0 
" clip-path="url(#ped0a2b9d1d)" style="fill: none; stroke: #b0b0b0; stroke-width: 0.8; stroke-linecap: square"/>
     </g>
     <g id="line2d_2">
      <defs>
       <path id="mbf35414087" d="M 0 0 
L 0 3.5 
" style="stroke: #000000; stroke-width: 0.8"/>
      </defs>
      <g>
       <use xlink:href="#mbf35414087" x="34.31" y="98.44" style="stroke: #000000; stroke-width: 0.8"/>
      </g>
     </g>
     <g id="text_1">
      <text style="font-size: 10px; font-family: 'Times New Roman'; text-anchor: middle" x="34.31" y="112.38375" transform="rotate(-0 34.31 112.38375)">0</text>
     </g>
    </g>
    <g id="xtick_2">
     <g id="line2d_3">
      <path d="M 94.662071 98.44 
L 94.662071 0 
" clip-path="url(#ped0a2b9d1d)" style="fill: none; stroke: #b0b0b0; stroke-width: 0.8; stroke-linecap: square"/>
     </g>
     <g id="line2d_4">
      <g>
       <use xlink:href="#mbf35414087" x="94.662071" y="98.44" style="stroke: #000000; stroke-width: 0.8"/>
      </g>
     </g>
     <g id="text_2">
      <text style="font-size: 10px; font-family: 'Times New Roman'; text-anchor: middle" x="94.662071" y="112.38375" transform="rotate(-0 94.662071 112.38375)">50</text>
     </g>
    </g>
    <g id="xtick_3">
     <g id="line2d_5">
      <path d="M 155.014141 98.44 
L 155.014141 0 
" clip-path="url(#ped0a2b9d1d)" style="fill: none; stroke: #b0b0b0; stroke-width: 0.8; stroke-linecap: square"/>
     </g>
     <g id="line2d_6">
      <g>
       <use xlink:href="#mbf35414087" x="155.014141" y="98.44" style="stroke: #000000; stroke-width: 0.8"/>
      </g>
     </g>
     <g id="text_3">
      <text style="font-size: 10px; font-family: 'Times New Roman'; text-anchor: middle" x="155.014141" y="112.38375" transform="rotate(-0 155.014141 112.38375)">100</text>
     </g>
    </g>
    <g id="xtick_4">
     <g id="line2d_7">
      <path d="M 215.366212 98.44 
L 215.366212 0 
" clip-path="url(#ped0a2b9d1d)" style="fill: none; stroke: #b0b0b0; stroke-width: 0.8; stroke-linecap: square"/>
     </g>
     <g id="line2d_8">
      <g>
       <use xlink:href="#mbf35414087" x="215.366212" y="98.44" style="stroke: #000000; stroke-width: 0.8"/>
      </g>
     </g>
     <g id="text_4">
      <text style="font-size: 10px; font-family: 'Times New Roman'; text-anchor: middle" x="215.366212" y="112.38375" transform="rotate(-0 215.366212 112.38375)">150</text>
     </g>
    </g>
    <g id="xtick_5">
     <g id="line2d_9">
      <path d="M 275.718283 98.44 
L 275.718283 0 
" clip-path="url(#ped0a2b9d1d)" style="fill: none; stroke: #b0b0b0; stroke-width: 0.8; stroke-linecap: square"/>
     </g>
     <g id="line2d_10">
      <g>
       <use xlink:href="#mbf35414087" x="275.718283" y="98.44" style="stroke: #000000; stroke-width: 0.8"/>
      </g>
     </g>
     <g id="text_5">
      <text style="font-size: 10px; font-family: 'Times New Roman'; text-anchor: middle" x="275.718283" y="112.38375" transform="rotate(-0 275.718283 112.38375)">200</text>
     </g>
    </g>
    <g id="xtick_6">
     <g id="line2d_11">
      <path d="M 336.070353 98.44 
L 336.070353 0 
" clip-path="url(#ped0a2b9d1d)" style="fill: none; stroke: #b0b0b0; stroke-width: 0.8; stroke-linecap: square"/>
     </g>
     <g id="line2d_12">
      <g>
       <use xlink:href="#mbf35414087" x="336.070353" y="98.44" style="stroke: #000000; stroke-width: 0.8"/>
      </g>
     </g>
     <g id="text_6">
      <text style="font-size: 10px; font-family: 'Times New Roman'; text-anchor: middle" x="336.070353" y="112.38375" transform="rotate(-0 336.070353 112.38375)">250</text>
     </g>
    </g>
    <g id="xtick_7">
     <g id="line2d_13">
      <path d="M 396.422424 98.44 
L 396.422424 0 
" clip-path="url(#ped0a2b9d1d)" style="fill: none; stroke: #b0b0b0; stroke-width: 0.8; stroke-linecap: square"/>
     </g>
     <g id="line2d_14">
      <g>
       <use xlink:href="#mbf35414087" x="396.422424" y="98.44" style="stroke: #000000; stroke-width: 0.8"/>
      </g>
     </g>
     <g id="text_7">
      <text style="font-size: 10px; font-family: 'Times New Roman'; text-anchor: middle" x="396.422424" y="112.38375" transform="rotate(-0 396.422424 112.38375)">300</text>
     </g>
    </g>
    <g id="xtick_8">
     <g id="line2d_15">
      <path d="M 456.774495 98.44 
L 456.774495 0 
" clip-path="url(#ped0a2b9d1d)" style="fill: none; stroke: #b0b0b0; stroke-width: 0.8; stroke-linecap: square"/>
     </g>
     <g id="line2d_16">
      <g>
       <use xlink:href="#mbf35414087" x="456.774495" y="98.44" style="stroke: #000000; stroke-width: 0.8"/>
      </g>
     </g>
     <g id="text_8">
      <text style="font-size: 10px; font-family: 'Times New Roman'; text-anchor: middle" x="456.774495" y="112.38375" transform="rotate(-0 456.774495 112.38375)">350</text>
     </g>
    </g>
    <g id="xtick_9">
     <g id="line2d_17">
      <path d="M 517.126565 98.44 
L 517.126565 0 
" clip-path="url(#ped0a2b9d1d)" style="fill: none; stroke: #b0b0b0; stroke-width: 0.8; stroke-linecap: square"/>
     </g>
     <g id="line2d_18">
      <g>
       <use xlink:href="#mbf35414087" x="517.126565" y="98.44" style="stroke: #000000; stroke-width: 0.8"/>
      </g>
     </g>
     <g id="text_9">
      <text style="font-size: 10px; font-family: 'Times New Roman'; text-anchor: middle" x="517.126565" y="112.38375" transform="rotate(-0 517.126565 112.38375)">400</text>
     </g>
    </g>
    <g id="text_10">
     <text style="font-size: 12px; font-family: 'Times New Roman'; text-anchor: middle" x="287.155" y="126.855312" transform="rotate(-0 287.155 126.855312)">Simulation Run</text>
    </g>
   </g>
   <g id="matplotlib.axis_2">
    <g id="ytick_1">
     <g id="line2d_19">
      <path d="M 34.31 98.44 
L 540 98.44 
" clip-path="url(#ped0a2b9d1d)" style="fill: none; stroke: #b0b0b0; stroke-width: 0.8; stroke-linecap: square"/>
     </g>
     <g id="line2d_20">
      <defs>
       <path id="m3e6da8647e" d="M 0 0 
L -3.5 0 
" style="stroke: #000000; stroke-width: 0.8"/>
      </defs>
      <g>
       <use xlink:href="#m3e6da8647e" x="34.31" y="98.44" style="stroke: #000000; stroke-width: 0.8"/>
      </g>
     </g>
     <g id="text_11">
      <text style="font-size: 10px; font-family: 'Times New Roman'; text-anchor: end" x="27.31" y="101.911875" transform="rotate(-0 27.31 101.911875)">0.0</text>
     </g>
    </g>
    <g id="ytick_2">
     <g id="line2d_21">
      <path d="M 34.31 63.282857 
L 540 63.282857 
" clip-path="url(#ped0a2b9d1d)" style="fill: none; stroke: #b0b0b0; stroke-width: 0.8; stroke-linecap: square"/>
     </g>
     <g id="line2d_22">
      <g>
       <use xlink:href="#m3e6da8647e" x="34.31" y="63.282857" style="stroke: #000000; stroke-width: 0.8"/>
      </g>
     </g>
     <g id="text_12">
      <text style="font-size: 10px; font-family: 'Times New Roman'; text-anchor: end" x="27.31" y="66.754732" transform="rotate(-0 27.31 66.754732)">0.5</text>
     </g>
    </g>
    <g id="ytick_3">
     <g id="line2d_23">
      <path d="M 34.31 28.125714 
L 540 28.125714 
" clip-path="url(#ped0a2b9d1d)" style="fill: none; stroke: #b0b0b0; stroke-width: 0.8; stroke-linecap: square"/>
     </g>
     <g id="line2d_24">
      <g>
       <use xlink:href="#m3e6da8647e" x="34.31" y="28.125714" style="stroke: #000000; stroke-width: 0.8"/>
      </g>
     </g>
     <g id="text_13">
      <text style="font-size: 10px; font-family: 'Times New Roman'; text-anchor: end" x="27.31" y="31.597589" transform="rotate(-0 27.31 31.597589)">1.0</text>
     </g>
    </g>
    <g id="text_14">
     <text style="font-size: 12px; font-family: 'Times New Roman'; text-anchor: middle" x="8.243125" y="49.22" transform="rotate(-90 8.243125 49.22)">Normalized Value</text>
    </g>
   </g>
   <g id="line2d_25">
    <path d="M 34.31 47.696981 
L 35.517041 48.334663 
L 36.724083 35.488603 
L 37.931124 31.483634 
L 39.138166 35.17383 
L 40.345207 30.540894 
L 41.552248 34.338324 
L 42.75929 33.126814 
L 43.966331 33.530598 
L 45.173373 33.364486 
L 46.380414 32.765008 
L 47.587456 31.354837 
L 48.794497 31.73905 
L 50.001538 32.302279 
L 51.20858 33.413498 
L 52.415621 33.935 
L 53.622663 32.853204 
L 54.829704 32.898371 
L 56.036745 32.553307 
L 58.450828 32.913511 
L 59.65787 32.952449 
L 60.864911 33.616703 
L 62.071953 33.734057 
L 63.278994 35.213754 
L 64.486035 33.513698 
L 65.693077 33.04486 
L 66.900118 31.813436 
L 68.10716 32.60955 
L 69.314201 33.25424 
L 70.521242 31.436252 
L 71.728284 30.945383 
L 72.935325 30.938477 
L 74.142367 31.718765 
L 76.556449 32.550294 
L 77.763491 33.3642 
L 81.384615 34.131307 
L 82.591657 33.170289 
L 83.798698 33.371799 
L 85.005739 32.705515 
L 86.212781 32.341361 
L 88.626864 32.702259 
L 89.833905 32.630674 
L 91.040946 33.42664 
L 92.247988 33.812858 
L 93.455029 34.046186 
L 94.662071 32.753175 
L 95.869112 32.272683 
L 98.283195 32.25051 
L 99.490236 32.710928 
L 101.904319 32.724244 
L 103.111361 32.370896 
L 104.318402 32.519033 
L 105.525443 32.326285 
L 106.732485 32.531207 
L 107.939526 32.561981 
L 109.146568 32.851018 
L 111.56065 32.771934 
L 112.767692 31.655035 
L 115.181775 31.471161 
L 116.388816 31.481734 
L 117.595858 30.864412 
L 118.802899 31.114975 
L 120.00994 31.022367 
L 121.216982 31.451561 
L 122.424023 31.540471 
L 123.631065 31.485671 
L 126.045147 32.195853 
L 128.45923 32.028251 
L 129.666272 31.441413 
L 133.287396 31.989388 
L 134.494437 31.611725 
L 135.701479 31.868348 
L 138.115562 31.270537 
L 139.322603 31.270102 
L 140.529644 31.073186 
L 141.736686 31.348595 
L 142.943727 31.346388 
L 144.150769 31.05333 
L 145.35781 31.240344 
L 146.564851 30.964989 
L 148.978934 31.322569 
L 150.185976 31.177447 
L 152.600058 30.54834 
L 153.8071 29.962117 
L 155.014141 29.782559 
L 156.221183 29.485583 
L 157.428224 29.395283 
L 159.842307 28.405605 
L 161.049348 28.27326 
L 165.877514 28.757237 
L 168.291597 28.782813 
L 173.119763 28.205954 
L 174.326804 28.288998 
L 175.533845 28.162083 
L 176.740887 28.400319 
L 180.362011 28.632085 
L 181.569052 28.762129 
L 183.983135 28.628459 
L 185.190177 28.78636 
L 186.397218 28.723794 
L 188.811301 28.998028 
L 190.018342 29.012013 
L 191.225384 29.201525 
L 193.639467 29.016023 
L 194.846508 29.142757 
L 198.467632 28.902731 
L 199.674674 29.015919 
L 200.881715 28.996709 
L 202.088756 28.680636 
L 203.295798 28.740138 
L 205.709881 28.545715 
L 206.916922 28.659547 
L 209.331005 28.436063 
L 210.538046 28.081177 
L 211.745088 27.966171 
L 214.159171 28.159782 
L 216.573253 28.151463 
L 217.780295 27.939999 
L 220.194378 27.999749 
L 221.401419 27.830741 
L 222.60846 27.365099 
L 223.815502 27.197528 
L 225.022543 27.255639 
L 227.436626 26.992681 
L 229.850709 27.392421 
L 233.471833 27.399918 
L 234.678875 27.258363 
L 239.50704 27.282617 
L 240.714082 27.408576 
L 245.542247 27.332765 
L 250.370413 27.320326 
L 253.991537 27.476348 
L 255.198579 27.526807 
L 256.40562 27.363231 
L 258.819703 27.5193 
L 260.026744 27.633442 
L 261.233786 27.449151 
L 263.647868 27.738251 
L 267.268993 27.817531 
L 269.683076 28.03165 
L 270.890117 28.049085 
L 272.097158 27.933962 
L 276.925324 28.273692 
L 279.339407 28.24564 
L 280.546448 28.025804 
L 284.167573 28.021523 
L 285.374614 27.788624 
L 286.581655 27.799462 
L 287.788697 27.671339 
L 291.409821 27.651017 
L 295.030945 28.002376 
L 297.445028 27.871468 
L 298.652069 27.82688 
L 299.859111 27.919577 
L 302.273194 27.960894 
L 305.894318 27.985657 
L 307.101359 28.151411 
L 311.929525 28.093342 
L 314.343608 28.314822 
L 325.206981 28.309118 
L 326.414022 28.161823 
L 328.828105 28.176512 
L 333.65627 28.229527 
L 336.070353 28.345322 
L 337.277395 28.181188 
L 339.691478 28.139153 
L 340.898519 27.924073 
L 343.312602 27.860589 
L 345.726685 27.82063 
L 348.140767 27.92736 
L 350.55485 27.72856 
L 355.383016 27.619657 
L 356.590057 27.69647 
L 360.211182 27.603207 
L 362.625264 27.736366 
L 365.039347 27.61791 
L 368.660471 27.732551 
L 369.867513 27.814749 
L 371.074554 27.721198 
L 372.281596 27.886701 
L 374.695678 27.970725 
L 375.90272 27.899256 
L 380.730886 28.119031 
L 381.937927 27.970497 
L 384.35201 27.926957 
L 386.766093 27.736603 
L 389.180175 27.82394 
L 390.387217 27.730387 
L 396.422424 27.99048 
L 397.629465 27.862075 
L 406.078755 28.042405 
L 407.285797 27.883605 
L 410.906921 27.935877 
L 416.942128 27.817676 
L 421.770294 27.942667 
L 425.391418 27.920517 
L 437.461832 27.887883 
L 441.082956 28.155058 
L 443.497039 28.158557 
L 445.911122 28.26255 
L 448.325205 28.181438 
L 454.360412 28.265469 
L 457.981536 28.298605 
L 461.60266 28.321415 
L 465.223784 28.246801 
L 470.05195 28.176422 
L 482.122364 27.948988 
L 485.743488 28.023196 
L 496.606861 28.072202 
L 499.020944 28.174416 
L 506.263193 28.099591 
L 507.470234 28.173456 
L 511.091358 28.133426 
L 514.712482 28.175068 
L 515.919524 28.125714 
L 515.919524 28.125714 
" clip-path="url(#ped0a2b9d1d)" style="fill: none; stroke: #4169e1; stroke-width: 1.5; stroke-linecap: square"/>
   </g>
   <g id="line2d_26">
    <path d="M 34.31 98.44 
L 35.517041 98.371908 
L 36.724083 43.128975 
L 37.931124 48.899148 
L 39.138166 49.686282 
L 40.345207 39.841078 
L 41.552248 33.724094 
L 43.966331 46.357723 
L 45.173373 51.524366 
L 46.380414 55.187652 
L 47.587456 55.129148 
L 48.794497 58.164125 
L 50.001538 60.350419 
L 51.20858 59.99496 
L 52.415621 61.71467 
L 53.622663 60.73956 
L 54.829704 62.828222 
L 59.65787 68.782433 
L 60.864911 68.446431 
L 62.071953 69.643123 
L 63.278994 61.995816 
L 64.486035 51.298447 
L 65.693077 52.08745 
L 66.900118 46.886995 
L 68.10716 45.693058 
L 69.314201 45.432991 
L 70.521242 30.53982 
L 71.728284 31.410926 
L 72.935325 33.441855 
L 74.142367 31.98915 
L 75.349408 33.102266 
L 76.556449 33.676574 
L 77.763491 31.433598 
L 81.384615 35.241552 
L 82.591657 30.597008 
L 83.798698 31.933538 
L 85.005739 30.358048 
L 86.212781 30.950539 
L 88.626864 33.396043 
L 89.833905 34.740485 
L 91.040946 31.081329 
L 92.247988 31.257068 
L 93.455029 32.154029 
L 94.662071 19.455954 
L 95.869112 19.003235 
L 98.283195 21.922849 
L 99.490236 21.397235 
L 101.904319 24.060164 
L 103.111361 24.150875 
L 104.318402 25.196884 
L 106.732485 26.815367 
L 107.939526 27.960929 
L 109.146568 28.212317 
L 111.56065 30.323288 
L 112.767692 17.777637 
L 115.181775 19.943408 
L 116.388816 21.079767 
L 117.595858 17.78182 
L 118.802899 18.181953 
L 120.00994 19.194687 
L 121.216982 18.059365 
L 123.631065 20.070295 
L 124.838106 19.787969 
L 126.045147 18.905604 
L 127.252189 19.7013 
L 128.45923 20.68125 
L 129.666272 17.097604 
L 130.873313 17.623658 
L 132.080354 17.828423 
L 133.287396 18.604835 
L 134.494437 17.572948 
L 136.90852 17.679185 
L 138.115562 16.821494 
L 139.322603 17.748974 
L 140.529644 18.084232 
L 141.736686 17.846682 
L 142.943727 18.732249 
L 144.150769 18.289955 
L 145.35781 18.612989 
L 146.564851 18.281478 
L 147.771893 18.862147 
L 148.978934 18.862018 
L 150.185976 19.343857 
L 152.600058 17.727541 
L 153.8071 12.83767 
L 155.014141 13.145338 
L 156.221183 12.489968 
L 157.428224 13.185163 
L 158.635266 9.521437 
L 159.842307 6.358879 
L 163.463431 8.035946 
L 164.670473 8.823302 
L 165.877514 9.043463 
L 168.291597 10.599378 
L 169.498638 10.859339 
L 170.70568 11.438629 
L 173.119763 12.014206 
L 174.326804 12.618932 
L 175.533845 13.030657 
L 176.740887 12.626925 
L 179.15497 13.933064 
L 180.362011 13.362254 
L 181.569052 13.708459 
L 183.983135 14.862678 
L 185.190177 15.004119 
L 186.397218 15.578504 
L 187.604259 15.648648 
L 188.811301 16.033518 
L 190.018342 16.663189 
L 191.225384 16.505627 
L 193.639467 17.359959 
L 197.260591 18.192563 
L 198.467632 18.776305 
L 199.674674 19.059671 
L 200.881715 19.622225 
L 202.088756 17.859929 
L 204.502839 18.806827 
L 206.916922 19.21847 
L 208.123963 19.554169 
L 209.331005 19.684047 
L 210.538046 17.140753 
L 212.952129 17.546019 
L 214.159171 17.953632 
L 216.573253 19.010905 
L 217.780295 18.3919 
L 218.987336 18.761689 
L 220.194378 19.268492 
L 221.401419 19.034633 
L 222.60846 13.876528 
L 223.815502 13.673523 
L 225.022543 14.117303 
L 227.436626 14.243456 
L 228.643668 13.409272 
L 229.850709 13.094077 
L 233.471833 14.575628 
L 234.678875 14.520821 
L 238.299999 15.935734 
L 239.50704 16.11911 
L 240.714082 16.143422 
L 243.128164 17.0791 
L 244.335206 17.263595 
L 245.542247 16.591534 
L 247.95633 17.371391 
L 255.198579 19.56522 
L 256.40562 19.167164 
L 257.612661 19.506913 
L 260.026744 19.608449 
L 261.233786 18.956363 
L 262.440827 18.551688 
L 263.647868 18.449997 
L 267.268993 19.581379 
L 268.476034 19.540025 
L 269.683076 19.635479 
L 270.890117 20.025526 
L 273.3042 19.992721 
L 276.925324 20.503663 
L 279.339407 21.208125 
L 280.546448 19.933994 
L 284.167573 20.996772 
L 285.374614 19.478088 
L 286.581655 19.849985 
L 287.788697 19.645205 
L 291.409821 20.693914 
L 292.616862 20.233837 
L 293.823904 20.046013 
L 295.030945 20.196467 
L 296.237987 20.140076 
L 298.652069 20.758055 
L 299.859111 20.793007 
L 301.066152 21.112686 
L 302.273194 21.278187 
L 303.480235 21.622627 
L 305.894318 22.053594 
L 307.101359 21.350367 
L 311.929525 22.4661 
L 313.136566 22.147402 
L 314.343608 22.144365 
L 317.964732 23.038521 
L 321.585856 23.594427 
L 322.792898 23.301909 
L 323.999939 23.45559 
L 325.206981 23.759075 
L 326.414022 23.187219 
L 328.828105 23.579322 
L 330.035146 23.880801 
L 331.242188 24.033568 
L 334.863312 24.8706 
L 336.070353 24.89894 
L 337.277395 24.05849 
L 338.484436 24.342503 
L 339.691478 24.494556 
L 340.898519 22.817026 
L 342.10556 23.112403 
L 344.519643 23.376913 
L 346.933726 23.87405 
L 348.140767 23.956821 
L 349.347809 23.281689 
L 351.761892 23.672073 
L 352.968933 23.33431 
L 354.175974 23.463041 
L 355.383016 23.739094 
L 356.590057 23.754034 
L 357.797099 23.933363 
L 359.00414 23.512945 
L 363.832306 23.612266 
L 368.660471 24.320407 
L 371.074554 24.127548 
L 372.281596 23.107739 
L 375.90272 23.488605 
L 377.109761 23.447838 
L 378.316803 23.590649 
L 379.523844 23.329258 
L 380.730886 23.579836 
L 381.937927 22.774895 
L 383.144968 23.021669 
L 384.35201 23.102306 
L 386.766093 22.73153 
L 389.180175 23.057305 
L 390.387217 22.879638 
L 392.8013 22.954554 
L 395.215383 23.361228 
L 396.422424 23.22523 
L 397.629465 22.643251 
L 398.836507 22.815657 
L 400.043548 22.800551 
L 406.078755 23.847245 
L 407.285797 22.78307 
L 408.492838 22.873936 
L 413.321004 23.675608 
L 414.528045 23.620238 
L 420.563252 24.533981 
L 421.770294 24.574767 
L 422.977335 24.771485 
L 424.184376 24.635741 
L 426.598459 25.012338 
L 430.219583 25.59023 
L 431.426625 25.636673 
L 432.633666 24.875336 
L 436.254791 25.509096 
L 438.668873 25.154418 
L 439.875915 24.52809 
L 443.497039 24.633105 
L 444.70408 24.219205 
L 445.911122 24.436139 
L 447.118163 24.425946 
L 450.739288 24.930245 
L 451.946329 24.662879 
L 453.15337 24.860993 
L 454.360412 24.892408 
L 456.774495 25.294364 
L 459.188577 25.407402 
L 466.430826 26.413469 
L 470.05195 25.62776 
L 472.466033 25.981061 
L 473.673074 25.609169 
L 478.50124 26.279822 
L 482.122364 26.580367 
L 485.743488 26.513998 
L 486.95053 26.705258 
L 490.571654 26.990567 
L 492.985737 27.237869 
L 494.192778 27.068638 
L 495.39982 26.656746 
L 496.606861 26.839628 
L 497.813903 26.742058 
L 500.227985 27.002739 
L 502.642068 27.355701 
L 503.84911 27.331703 
L 506.263193 27.632146 
L 507.470234 27.454179 
L 511.091358 27.724718 
L 515.919524 28.125714 
L 515.919524 28.125714 
" clip-path="url(#ped0a2b9d1d)" style="fill: none; stroke-dasharray: 5.55,2.4; stroke-dashoffset: 0; stroke: #4169e1; stroke-width: 1.5"/>
   </g>
   <g id="line2d_27">
    <path d="M 34.31 39.922686 
L 35.517041 41.006211 
L 36.724083 33.139253 
L 37.931124 30.81864 
L 39.138166 32.835752 
L 40.345207 30.131948 
L 41.552248 33.145054 
L 42.75929 32.510083 
L 43.966331 33.164176 
L 45.173373 32.841038 
L 46.380414 32.701138 
L 47.587456 31.57804 
L 52.415621 33.21202 
L 53.622663 32.300332 
L 54.829704 32.579417 
L 56.036745 32.017411 
L 58.450828 31.822124 
L 59.65787 31.922091 
L 60.864911 32.288438 
L 62.071953 32.413829 
L 63.278994 33.537514 
L 64.486035 32.253102 
L 65.693077 31.745663 
L 66.900118 30.821153 
L 68.10716 31.732133 
L 69.314201 32.090216 
L 70.521242 30.829875 
L 71.728284 30.404386 
L 72.935325 30.429421 
L 74.142367 31.20624 
L 75.349408 31.758894 
L 76.556449 32.018166 
L 77.763491 32.738999 
L 80.177574 32.935028 
L 81.384615 32.927377 
L 82.591657 32.067995 
L 83.798698 32.189503 
L 86.212781 31.27617 
L 87.419822 31.524764 
L 89.833905 31.441407 
L 91.040946 32.071122 
L 92.247988 32.40486 
L 93.455029 32.609391 
L 94.662071 31.545899 
L 95.869112 31.063645 
L 97.076153 30.97541 
L 98.283195 31.097169 
L 99.490236 31.457261 
L 101.904319 31.346807 
L 103.111361 31.074778 
L 104.318402 31.302638 
L 105.525443 31.128218 
L 109.146568 31.574158 
L 111.56065 31.463971 
L 112.767692 30.68482 
L 115.181775 30.402497 
L 116.388816 30.451652 
L 117.595858 30.080812 
L 118.802899 30.284262 
L 120.00994 30.209053 
L 121.216982 30.540441 
L 123.631065 30.474525 
L 126.045147 31.053624 
L 127.252189 30.828211 
L 128.45923 30.819619 
L 129.666272 30.437319 
L 133.287396 30.904516 
L 134.494437 30.693529 
L 135.701479 30.863062 
L 136.90852 30.68001 
L 138.115562 30.378345 
L 140.529644 30.318991 
L 141.736686 30.528966 
L 142.943727 30.505984 
L 144.150769 30.332815 
L 145.35781 30.496633 
L 146.564851 30.188293 
L 148.978934 30.431667 
L 152.600058 29.986188 
L 153.8071 29.673918 
L 157.428224 29.216757 
L 159.842307 28.644355 
L 161.049348 28.565033 
L 165.877514 28.895604 
L 168.291597 28.878144 
L 175.533845 28.287243 
L 176.740887 28.470616 
L 180.362011 28.685548 
L 182.776094 28.782196 
L 183.983135 28.695798 
L 185.190177 28.812244 
L 186.397218 28.78274 
L 188.811301 29.013821 
L 190.018342 28.977176 
L 191.225384 29.07012 
L 200.881715 28.947096 
L 202.088756 28.728972 
L 203.295798 28.810275 
L 205.709881 28.67142 
L 206.916922 28.776561 
L 209.331005 28.672197 
L 210.538046 28.438709 
L 211.745088 28.37267 
L 214.159171 28.51017 
L 216.573253 28.576592 
L 217.780295 28.395731 
L 218.987336 28.446531 
L 221.401419 28.221166 
L 222.60846 27.92496 
L 223.815502 27.818872 
L 225.022543 27.882152 
L 227.436626 27.638075 
L 229.850709 27.939791 
L 238.299999 27.791728 
L 240.714082 28.044361 
L 253.991537 27.958976 
L 255.198579 27.985056 
L 256.40562 27.875861 
L 263.647868 28.020426 
L 270.890117 28.194498 
L 273.3042 28.227314 
L 278.132365 28.321929 
L 284.167573 28.172616 
L 285.374614 27.965629 
L 292.616862 27.897076 
L 295.030945 28.05491 
L 298.652069 27.938105 
L 301.066152 28.006594 
L 304.687277 28.092161 
L 305.894318 28.066261 
L 307.101359 28.201052 
L 309.515442 28.188936 
L 317.964732 28.364939 
L 320.378815 28.359711 
L 321.585856 28.406885 
L 323.999939 28.362042 
L 339.691478 28.25696 
L 340.898519 28.115171 
L 343.312602 28.049769 
L 346.933726 28.053094 
L 348.140767 28.076958 
L 349.347809 27.948145 
L 361.418223 27.893577 
L 363.832306 27.87731 
L 367.45343 27.856394 
L 374.695678 28.03631 
L 375.90272 27.954265 
L 380.730886 28.179452 
L 386.766093 27.887832 
L 391.594258 27.933533 
L 396.422424 28.108107 
L 397.629465 27.995455 
L 406.078755 28.162696 
L 407.285797 28.037966 
L 410.906921 28.054162 
L 415.735087 27.955419 
L 421.770294 28.137505 
L 431.426625 28.113702 
L 432.633666 27.989929 
L 437.461832 28.0449 
L 442.289998 28.212213 
L 447.118163 28.288712 
L 468.844909 28.395392 
L 489.364613 28.182678 
L 492.985737 28.177693 
L 494.192778 28.092093 
L 499.020944 28.236603 
L 506.263193 28.1519 
L 507.470234 28.208786 
L 511.091358 28.133276 
L 515.919524 28.125714 
L 515.919524 28.125714 
" clip-path="url(#ped0a2b9d1d)" style="fill: none; stroke: #ff8c00; stroke-width: 1.5; stroke-linecap: square"/>
   </g>
   <g id="line2d_28">
    <path d="M 34.31 98.44 
L 35.517041 98.104467 
L 36.724083 62.840926 
L 37.931124 67.123433 
L 39.138166 68.735412 
L 40.345207 63.239506 
L 41.552248 52.699971 
L 42.75929 57.610864 
L 45.173373 64.627732 
L 46.380414 67.645638 
L 47.587456 66.246453 
L 50.001538 69.736068 
L 51.20858 70.240571 
L 52.415621 71.763911 
L 53.622663 69.53233 
L 54.829704 70.759886 
L 56.036745 70.591891 
L 58.450828 73.140484 
L 59.65787 74.230484 
L 60.864911 74.439222 
L 62.071953 75.335902 
L 63.278994 67.599278 
L 64.486035 56.998393 
L 65.693077 56.619897 
L 68.10716 46.495015 
L 69.314201 47.163783 
L 70.521242 35.198549 
L 71.728284 35.570872 
L 72.935325 37.470264 
L 74.142367 33.572202 
L 75.349408 32.457711 
L 76.556449 33.618138 
L 77.763491 30.024066 
L 81.384615 34.955111 
L 82.591657 28.060657 
L 83.798698 29.563353 
L 85.005739 28.061612 
L 86.212781 27.646841 
L 87.419822 28.442895 
L 89.833905 31.374651 
L 91.040946 27.445314 
L 92.247988 27.366239 
L 93.455029 28.201882 
L 94.662071 13.417074 
L 95.869112 11.66228 
L 98.283195 14.538149 
L 99.490236 14.062494 
L 101.904319 16.892484 
L 103.111361 17.092994 
L 104.318402 17.61112 
L 106.732485 19.192444 
L 107.939526 20.282229 
L 109.146568 21.065864 
L 111.56065 23.332192 
L 112.767692 13.192646 
L 113.974733 14.199245 
L 115.181775 14.925402 
L 116.388816 16.088801 
L 117.595858 14.55331 
L 118.802899 14.906736 
L 120.00994 15.952142 
L 121.216982 14.822349 
L 123.631065 17.001536 
L 124.838106 16.415343 
L 126.045147 15.512696 
L 127.252189 15.457699 
L 128.45923 16.506462 
L 129.666272 14.230792 
L 130.873313 14.838756 
L 132.080354 14.61769 
L 133.287396 15.401151 
L 134.494437 15.333747 
L 135.701479 15.621472 
L 136.90852 15.770475 
L 138.115562 14.484001 
L 140.529644 16.319776 
L 141.736686 16.11076 
L 142.943727 17.001892 
L 145.35781 17.276105 
L 146.564851 15.612575 
L 147.771893 16.280899 
L 148.978934 16.47318 
L 150.185976 16.928374 
L 151.393017 17.107689 
L 152.600058 17.092226 
L 153.8071 15.146691 
L 155.014141 15.334568 
L 156.221183 14.787323 
L 157.428224 15.359836 
L 158.635266 13.450825 
L 159.842307 12.107749 
L 164.670473 14.668906 
L 165.877514 14.816051 
L 168.291597 16.261245 
L 169.498638 16.675923 
L 173.119763 17.17878 
L 174.326804 17.87312 
L 175.533845 18.167973 
L 176.740887 17.708534 
L 179.15497 18.914447 
L 180.362011 17.775629 
L 181.569052 18.089618 
L 182.776094 18.737409 
L 183.983135 19.110489 
L 185.190177 19.255673 
L 186.397218 19.847825 
L 188.811301 20.095736 
L 190.018342 20.648876 
L 191.225384 20.92175 
L 192.432425 21.486719 
L 193.639467 21.921094 
L 197.260591 22.445353 
L 200.881715 23.790771 
L 202.088756 22.433903 
L 203.295798 22.708469 
L 204.502839 23.123465 
L 205.709881 23.35923 
L 206.916922 23.428828 
L 209.331005 24.232155 
L 210.538046 22.462177 
L 211.745088 22.79232 
L 212.952129 22.666265 
L 216.573253 24.051908 
L 217.780295 23.117116 
L 218.987336 23.493382 
L 220.194378 23.747833 
L 221.401419 23.186657 
L 222.60846 19.754223 
L 223.815502 19.747243 
L 225.022543 20.061348 
L 226.229585 20.037345 
L 228.643668 19.275435 
L 229.850709 18.509851 
L 233.471833 19.881448 
L 234.678875 20.17891 
L 237.092957 21.096792 
L 238.299999 21.361326 
L 239.50704 20.945893 
L 240.714082 20.703078 
L 243.128164 21.562232 
L 244.335206 21.842485 
L 245.542247 21.380689 
L 246.749289 21.770158 
L 249.163372 22.236435 
L 251.577454 23.078277 
L 253.991537 23.749436 
L 255.198579 24.11979 
L 256.40562 23.894497 
L 257.612661 24.289968 
L 260.026744 24.797301 
L 261.233786 23.429828 
L 262.440827 23.012913 
L 263.647868 22.968786 
L 266.061951 23.670876 
L 267.268993 24.055606 
L 268.476034 24.142067 
L 269.683076 24.374813 
L 272.097158 25.070114 
L 278.132365 25.99718 
L 279.339407 26.315316 
L 280.546448 25.77543 
L 284.167573 26.775519 
L 285.374614 24.571541 
L 286.581655 24.897872 
L 287.788697 24.492555 
L 290.20278 25.136747 
L 291.409821 25.193367 
L 292.616862 24.883121 
L 293.823904 24.723952 
L 295.030945 24.781103 
L 297.445028 25.220904 
L 298.652069 25.48798 
L 299.859111 25.355518 
L 301.066152 25.665861 
L 302.273194 25.833248 
L 303.480235 26.139844 
L 304.687277 26.28738 
L 305.894318 26.563501 
L 307.101359 25.706615 
L 309.515442 26.114621 
L 311.929525 26.622581 
L 314.343608 26.014357 
L 317.964732 26.913522 
L 321.585856 27.388202 
L 322.792898 27.383934 
L 325.206981 27.939638 
L 326.414022 27.63878 
L 330.035146 28.272114 
L 331.242188 28.206726 
L 334.863312 28.998193 
L 336.070353 29.002495 
L 337.277395 28.32969 
L 338.484436 28.575498 
L 339.691478 28.684918 
L 340.898519 27.499056 
L 342.10556 27.774447 
L 343.312602 27.688212 
L 348.140767 28.530877 
L 349.347809 27.559998 
L 351.761892 27.966783 
L 352.968933 27.568769 
L 354.175974 27.420728 
L 355.383016 27.669285 
L 356.590057 27.566486 
L 357.797099 27.639224 
L 359.00414 27.012519 
L 361.418223 26.973905 
L 363.832306 27.233856 
L 369.867513 28.076813 
L 371.074554 27.792756 
L 372.281596 26.610822 
L 374.695678 26.994892 
L 375.90272 26.702025 
L 377.109761 26.556674 
L 378.316803 26.604314 
L 379.523844 26.021197 
L 380.730886 26.271164 
L 381.937927 26.002055 
L 383.144968 26.249754 
L 384.35201 26.199489 
L 386.766093 25.663106 
L 389.180175 26.064291 
L 390.387217 26.188982 
L 394.008341 26.053035 
L 395.215383 26.289374 
L 396.422424 26.183399 
L 397.629465 25.330947 
L 398.836507 25.491587 
L 400.043548 25.481338 
L 406.078755 26.481663 
L 407.285797 25.33988 
L 408.492838 25.474283 
L 409.699879 25.491171 
L 415.735087 26.218117 
L 418.149169 26.290502 
L 422.977335 26.80072 
L 424.184376 26.694331 
L 425.391418 26.755283 
L 431.426625 27.710676 
L 432.633666 26.479509 
L 436.254791 27.123974 
L 438.668873 26.789995 
L 439.875915 25.939991 
L 443.497039 25.767227 
L 444.70408 24.821387 
L 445.911122 25.036002 
L 447.118163 24.736521 
L 450.739288 25.240988 
L 451.946329 24.817103 
L 456.774495 25.528276 
L 457.981536 25.57029 
L 461.60266 26.076937 
L 464.016743 26.383414 
L 466.430826 26.769625 
L 467.637867 26.481358 
L 468.844909 26.395901 
L 472.466033 26.804134 
L 473.673074 26.505169 
L 482.122364 27.563846 
L 485.743488 27.503239 
L 489.364613 27.960266 
L 492.985737 28.335407 
L 494.192778 27.721051 
L 495.39982 27.509719 
L 496.606861 27.685873 
L 497.813903 27.595442 
L 501.435027 28.011851 
L 502.642068 28.191528 
L 503.84911 27.784796 
L 506.263193 28.127445 
L 508.677275 27.713665 
L 512.2984 28.116313 
L 513.505441 28.066679 
L 514.712482 28.166055 
L 515.919524 28.125714 
L 515.919524 28.125714 
" clip-path="url(#ped0a2b9d1d)" style="fill: none; stroke-dasharray: 5.55,2.4; stroke-dashoffset: 0; stroke: #ff8c00; stroke-width: 1.5"/>
   </g>
   <g id="patch_3">
    <path d="M 34.31 98.44 
L 34.31 0 
" style="fill: none; stroke: #000000; stroke-width: 0.8; stroke-linejoin: miter; stroke-linecap: square"/>
   </g>
   <g id="patch_4">
    <path d="M 540 98.44 
L 540 0 
" style="fill: none; stroke: #000000; stroke-width: 0.8; stroke-linejoin: miter; stroke-linecap: square"/>
   </g>
   <g id="patch_5">
    <path d="M 34.31 98.44 
L 540 98.44 
" style="fill: none; stroke: #000000; stroke-width: 0.8; stroke-linejoin: miter; stroke-linecap: square"/>
   </g>
   <g id="patch_6">
    <path d="M 34.31 0 
L 540 0 
" style="fill: none; stroke: #000000; stroke-width: 0.8; stroke-linejoin: miter; stroke-linecap: square"/>
   </g>
  </g>
 </g>
 <defs>
  <clipPath id="ped0a2b9d1d">
   <rect x="34.31" y="0" width="505.69" height="98.44"/>
  </clipPath>
 </defs>
</svg>
