<?xml version="1.0" encoding="utf-8" standalone="no"?>
<!DOCTYPE svg PUBLIC "-//W3C//DTD SVG 1.1//EN"
  "http://www.w3.org/Graphics/SVG/1.1/DTD/svg11.dtd">
<svg xmlns:xlink="http://www.w3.org/1999/xlink" width="540pt" height="129.6pt" viewBox="0 0 540 129.6" xmlns="http://www.w3.org/2000/svg" version="1.1">
 <metadata>
  <rdf:RDF xmlns:dc="http://purl.org/dc/elements/1.1/" xmlns:cc="http://creativecommons.org/ns#" xmlns:rdf="http://www.w3.org/1999/02/22-rdf-syntax-ns#">
   <cc:Work>
    <dc:type rdf:resource="http://purl.org/dc/dcmitype/StillImage"/>
    <dc:date>2025-03-29T04:07:50.492718</dc:date>
    <dc:format>image/svg+xml</dc:format>
    <dc:creator>
     <cc:Agent>
      <dc:title>Matplotlib v3.8.3, https://matplotlib.org/</dc:title>
     </cc:Agent>
    </dc:creator>
   </cc:Work>
  </rdf:RDF>
 </metadata>
 <defs>
  <style type="text/css">*{stroke-linejoin: round; stroke-linecap: butt}</style>
 </defs>
 <g id="figure_1">
  <g id="patch_1">
   <path d="M 0 129.6 
L 540 129.6 
L 540 0 
L 0 0 
z
" style="fill: #ffffff"/>
  </g>
  <g id="axes_1">
   <g id="patch_2">
    <path d="M 35.03 97 
L 540 97 
L 540 0 
L 35.03 0 
z
" style="fill: #ffffff"/>
   </g>
   <g id="matplotlib.axis_1">
    <g id="xtick_1">
     <g id="line2d_1">
      <path d="M 35.03 97 
L 35.03 0 
" clip-path="url(#p13f2f63a9a)" style="fill: none; stroke: #b0b0b0; stroke-width: 0.8; stroke-linecap: square"/>
     </g>
     <g id="line2d_2">
      <defs>
       <path id="m814e6a3c3c" d="M 0 0 
L 0 3.5 
" style="stroke: #000000; stroke-width: 0.8"/>
      </defs>
      <g>
       <use xlink:href="#m814e6a3c3c" x="35.03" y="97" style="stroke: #000000; stroke-width: 0.8"/>
      </g>
     </g>
     <g id="text_1">
      <text style="font: 10px 'Times New Roman'; text-anchor: middle" x="35.03" y="110.94375" transform="rotate(-0 35.03 110.94375)">0</text>
     </g>
    </g>
    <g id="xtick_2">
     <g id="line2d_3">
      <path d="M 95.296142 97 
L 95.296142 0 
" clip-path="url(#p13f2f63a9a)" style="fill: none; stroke: #b0b0b0; stroke-width: 0.8; stroke-linecap: square"/>
     </g>
     <g id="line2d_4">
      <g>
       <use xlink:href="#m814e6a3c3c" x="95.296142" y="97" style="stroke: #000000; stroke-width: 0.8"/>
      </g>
     </g>
     <g id="text_2">
      <text style="font: 10px 'Times New Roman'; text-anchor: middle" x="95.296142" y="110.94375" transform="rotate(-0 95.296142 110.94375)">50</text>
     </g>
    </g>
    <g id="xtick_3">
     <g id="line2d_5">
      <path d="M 155.562283 97 
L 155.562283 0 
" clip-path="url(#p13f2f63a9a)" style="fill: none; stroke: #b0b0b0; stroke-width: 0.8; stroke-linecap: square"/>
     </g>
     <g id="line2d_6">
      <g>
       <use xlink:href="#m814e6a3c3c" x="155.562283" y="97" style="stroke: #000000; stroke-width: 0.8"/>
      </g>
     </g>
     <g id="text_3">
      <text style="font: 10px 'Times New Roman'; text-anchor: middle" x="155.562283" y="110.94375" transform="rotate(-0 155.562283 110.94375)">100</text>
     </g>
    </g>
    <g id="xtick_4">
     <g id="line2d_7">
      <path d="M 215.828425 97 
L 215.828425 0 
" clip-path="url(#p13f2f63a9a)" style="fill: none; stroke: #b0b0b0; stroke-width: 0.8; stroke-linecap: square"/>
     </g>
     <g id="line2d_8">
      <g>
       <use xlink:href="#m814e6a3c3c" x="215.828425" y="97" style="stroke: #000000; stroke-width: 0.8"/>
      </g>
     </g>
     <g id="text_4">
      <text style="font: 10px 'Times New Roman'; text-anchor: middle" x="215.828425" y="110.94375" transform="rotate(-0 215.828425 110.94375)">150</text>
     </g>
    </g>
    <g id="xtick_5">
     <g id="line2d_9">
      <path d="M 276.094566 97 
L 276.094566 0 
" clip-path="url(#p13f2f63a9a)" style="fill: none; stroke: #b0b0b0; stroke-width: 0.8; stroke-linecap: square"/>
     </g>
     <g id="line2d_10">
      <g>
       <use xlink:href="#m814e6a3c3c" x="276.094566" y="97" style="stroke: #000000; stroke-width: 0.8"/>
      </g>
     </g>
     <g id="text_5">
      <text style="font: 10px 'Times New Roman'; text-anchor: middle" x="276.094566" y="110.94375" transform="rotate(-0 276.094566 110.94375)">200</text>
     </g>
    </g>
    <g id="xtick_6">
     <g id="line2d_11">
      <path d="M 336.360708 97 
L 336.360708 0 
" clip-path="url(#p13f2f63a9a)" style="fill: none; stroke: #b0b0b0; stroke-width: 0.8; stroke-linecap: square"/>
     </g>
     <g id="line2d_12">
      <g>
       <use xlink:href="#m814e6a3c3c" x="336.360708" y="97" style="stroke: #000000; stroke-width: 0.8"/>
      </g>
     </g>
     <g id="text_6">
      <text style="font: 10px 'Times New Roman'; text-anchor: middle" x="336.360708" y="110.94375" transform="rotate(-0 336.360708 110.94375)">250</text>
     </g>
    </g>
    <g id="xtick_7">
     <g id="line2d_13">
      <path d="M 396.626849 97 
L 396.626849 0 
" clip-path="url(#p13f2f63a9a)" style="fill: none; stroke: #b0b0b0; stroke-width: 0.8; stroke-linecap: square"/>
     </g>
     <g id="line2d_14">
      <g>
       <use xlink:href="#m814e6a3c3c" x="396.626849" y="97" style="stroke: #000000; stroke-width: 0.8"/>
      </g>
     </g>
     <g id="text_7">
      <text style="font: 10px 'Times New Roman'; text-anchor: middle" x="396.626849" y="110.94375" transform="rotate(-0 396.626849 110.94375)">300</text>
     </g>
    </g>
    <g id="xtick_8">
     <g id="line2d_15">
      <path d="M 456.892991 97 
L 456.892991 0 
" clip-path="url(#p13f2f63a9a)" style="fill: none; stroke: #b0b0b0; stroke-width: 0.8; stroke-linecap: square"/>
     </g>
     <g id="line2d_16">
      <g>
       <use xlink:href="#m814e6a3c3c" x="456.892991" y="97" style="stroke: #000000; stroke-width: 0.8"/>
      </g>
     </g>
     <g id="text_8">
      <text style="font: 10px 'Times New Roman'; text-anchor: middle" x="456.892991" y="110.94375" transform="rotate(-0 456.892991 110.94375)">350</text>
     </g>
    </g>
    <g id="xtick_9">
     <g id="line2d_17">
      <path d="M 517.159132 97 
L 517.159132 0 
" clip-path="url(#p13f2f63a9a)" style="fill: none; stroke: #b0b0b0; stroke-width: 0.8; stroke-linecap: square"/>
     </g>
     <g id="line2d_18">
      <g>
       <use xlink:href="#m814e6a3c3c" x="517.159132" y="97" style="stroke: #000000; stroke-width: 0.8"/>
      </g>
     </g>
     <g id="text_9">
      <text style="font: 10px 'Times New Roman'; text-anchor: middle" x="517.159132" y="110.94375" transform="rotate(-0 517.159132 110.94375)">400</text>
     </g>
    </g>
    <g id="text_10">
     <text style="font: 12px 'Times New Roman'; text-anchor: middle" x="287.515" y="125.415312" transform="rotate(-0 287.515 125.415312)">Simulation Run</text>
    </g>
   </g>
   <g id="matplotlib.axis_2">
    <g id="ytick_1">
     <g id="line2d_19">
      <path d="M 35.03 97 
L 540 97 
" clip-path="url(#p13f2f63a9a)" style="fill: none; stroke: #b0b0b0; stroke-width: 0.8; stroke-linecap: square"/>
     </g>
     <g id="line2d_20">
      <defs>
       <path id="mb45197c497" d="M 0 0 
L -3.5 0 
" style="stroke: #000000; stroke-width: 0.8"/>
      </defs>
      <g>
       <use xlink:href="#mb45197c497" x="35.03" y="97" style="stroke: #000000; stroke-width: 0.8"/>
      </g>
     </g>
     <g id="text_11">
      <text style="font: 10px 'Times New Roman'; text-anchor: end" x="28.03" y="100.471875" transform="rotate(-0 28.03 100.471875)">0.0</text>
     </g>
    </g>
    <g id="ytick_2">
     <g id="line2d_21">
      <path d="M 35.03 62.357143 
L 540 62.357143 
" clip-path="url(#p13f2f63a9a)" style="fill: none; stroke: #b0b0b0; stroke-width: 0.8; stroke-linecap: square"/>
     </g>
     <g id="line2d_22">
      <g>
       <use xlink:href="#mb45197c497" x="35.03" y="62.357143" style="stroke: #000000; stroke-width: 0.8"/>
      </g>
     </g>
     <g id="text_12">
      <text style="font: 10px 'Times New Roman'; text-anchor: end" x="28.03" y="65.829018" transform="rotate(-0 28.03 65.829018)">0.5</text>
     </g>
    </g>
    <g id="ytick_3">
     <g id="line2d_23">
      <path d="M 35.03 27.714286 
L 540 27.714286 
" clip-path="url(#p13f2f63a9a)" style="fill: none; stroke: #b0b0b0; stroke-width: 0.8; stroke-linecap: square"/>
     </g>
     <g id="line2d_24">
      <g>
       <use xlink:href="#mb45197c497" x="35.03" y="27.714286" style="stroke: #000000; stroke-width: 0.8"/>
      </g>
     </g>
     <g id="text_13">
      <text style="font: 10px 'Times New Roman'; text-anchor: end" x="28.03" y="31.186161" transform="rotate(-0 28.03 31.186161)">1.0</text>
     </g>
    </g>
    <g id="text_14">
     <text style="font: 12px 'Times New Roman'; text-anchor: middle" x="8.963125" y="48.5" transform="rotate(-90 8.963125 48.5)">Normalized Value</text>
    </g>
   </g>
   <g id="line2d_25">
    <path d="M 35.03 33.161553 
L 36.235323 15.344223 
L 37.440646 23.534168 
L 38.645968 26.685526 
L 39.851291 25.054725 
L 41.056614 22.568422 
L 42.261937 23.507549 
L 43.46726 23.00597 
L 44.672583 22.67882 
L 45.877905 23.614121 
L 47.083228 21.716404 
L 48.288551 21.342937 
L 49.493874 20.747212 
L 50.699197 22.238763 
L 51.90452 23.112168 
L 53.109842 23.433262 
L 54.315165 23.579687 
L 55.520488 23.244425 
L 56.725811 23.106559 
L 57.931134 22.34648 
L 59.136457 23.455286 
L 61.547102 22.424474 
L 62.752425 20.424068 
L 63.957748 21.513243 
L 65.163071 21.989048 
L 66.368394 22.918294 
L 67.573716 22.336223 
L 69.984362 22.956844 
L 71.189685 23.537665 
L 72.395008 24.754025 
L 74.805653 25.514047 
L 76.010976 25.589918 
L 77.216299 25.364668 
L 78.421622 25.595125 
L 79.626945 25.440479 
L 80.832268 24.94749 
L 82.03759 24.683868 
L 83.242913 24.123402 
L 84.448236 23.012828 
L 85.653559 22.477738 
L 86.858882 22.88516 
L 88.064205 22.614839 
L 89.269527 22.587225 
L 91.680173 21.933192 
L 92.885496 22.504062 
L 94.090819 22.657872 
L 96.501464 23.299156 
L 97.706787 23.94369 
L 98.91211 24.238158 
L 101.322756 24.489695 
L 102.528079 24.176174 
L 103.733401 24.075834 
L 104.938724 24.201077 
L 106.144047 24.622682 
L 107.34937 24.228563 
L 108.554693 24.66625 
L 109.760016 24.17284 
L 110.965338 24.504604 
L 112.170661 24.298771 
L 114.581307 23.383897 
L 115.78663 23.874504 
L 118.197275 23.954637 
L 119.402598 24.274949 
L 121.813244 24.566185 
L 123.018567 24.848716 
L 124.223889 24.891871 
L 125.429212 25.124785 
L 126.634535 25.194907 
L 127.839858 25.628163 
L 129.045181 25.366042 
L 130.250504 25.806585 
L 131.455826 25.877644 
L 132.661149 25.635835 
L 133.866472 25.518194 
L 135.071795 25.530596 
L 136.277118 25.718777 
L 137.482441 25.29439 
L 141.098409 25.622229 
L 142.303732 26.086954 
L 143.509055 25.73925 
L 144.714378 25.929347 
L 145.9197 25.95435 
L 147.125023 26.102273 
L 148.330346 26.371509 
L 150.740992 26.389627 
L 151.946315 26.063811 
L 153.151637 26.207933 
L 154.35696 26.090802 
L 155.562283 26.204691 
L 156.767606 26.085933 
L 157.972929 26.482111 
L 166.410189 26.882538 
L 167.615511 26.998595 
L 170.026157 27.035088 
L 176.052771 27.10812 
L 177.258094 27.375461 
L 178.463417 27.309698 
L 179.66874 26.844645 
L 180.874063 27.047552 
L 183.284708 27.092934 
L 185.695354 26.747905 
L 188.106 26.93949 
L 189.311322 27.063281 
L 190.516645 26.967254 
L 191.721968 26.631834 
L 195.337937 26.563094 
L 200.159228 26.61096 
L 203.775196 27.046726 
L 204.980519 26.712931 
L 207.391165 26.820508 
L 208.596488 26.762179 
L 209.80181 26.899259 
L 217.033747 26.632388 
L 218.23907 26.764071 
L 219.444393 26.633143 
L 221.855039 26.661847 
L 223.060362 26.771952 
L 224.265684 26.716635 
L 226.67633 26.918561 
L 229.086976 26.983782 
L 231.497621 27.324543 
L 233.908267 27.296565 
L 237.524236 27.622613 
L 242.345527 27.90976 
L 244.756173 27.784126 
L 247.166818 27.795721 
L 250.782787 28.000926 
L 251.98811 27.798228 
L 253.193432 27.83166 
L 255.604078 27.590563 
L 261.630692 27.453516 
L 264.041338 27.594319 
L 265.246661 27.5118 
L 266.451984 27.616927 
L 270.067952 27.448451 
L 271.273275 27.148644 
L 272.478598 27.282268 
L 276.094566 27.312483 
L 277.299889 27.096458 
L 294.174409 27.405588 
L 297.790377 27.639521 
L 300.201023 27.641798 
L 301.406346 27.659102 
L 302.611668 27.517015 
L 305.022314 27.628144 
L 307.43296 27.822659 
L 311.048928 27.496212 
L 318.280865 27.674715 
L 323.102157 27.645111 
L 325.512802 27.581723 
L 326.718125 27.656344 
L 329.128771 27.53415 
L 339.976676 27.390971 
L 341.181999 27.432862 
L 343.592645 27.368187 
L 347.208613 27.52511 
L 348.413936 27.359291 
L 362.87781 27.422872 
L 368.904424 27.648833 
L 371.31507 27.613527 
L 376.136361 27.72826 
L 380.957652 27.834246 
L 384.573621 27.806568 
L 385.778944 27.695433 
L 386.984267 27.418578 
L 389.394912 27.550866 
L 391.805558 27.637953 
L 395.421526 27.535427 
L 396.626849 27.641522 
L 406.269432 27.475733 
L 409.8854 27.448086 
L 413.501369 27.34205 
L 418.32266 27.397948 
L 419.527983 27.315596 
L 421.938629 27.38321 
L 433.991857 27.430498 
L 446.045085 27.806033 
L 447.250408 27.748253 
L 452.071699 27.906823 
L 454.482345 27.930978 
L 458.098314 27.98976 
L 461.714282 28.095354 
L 465.330251 28.177451 
L 466.535573 28.017133 
L 468.946219 28.102772 
L 471.356865 28.038022 
L 473.76751 28.002612 
L 477.383479 28.067448 
L 479.794125 27.829653 
L 495.463321 27.845163 
L 501.489936 27.930722 
L 502.695258 27.818 
L 505.105904 27.85608 
L 506.311227 27.754836 
L 512.337841 27.777166 
L 514.748487 27.71497 
L 515.95381 27.714286 
L 515.95381 27.714286 
" clip-path="url(#p13f2f63a9a)" style="fill: none; stroke: #4169e1; stroke-width: 1.5; stroke-linecap: square"/>
   </g>
   <g id="line2d_26">
    <path d="M 35.03 97 
L 36.235323 31.46615 
L 37.440646 25.617615 
L 38.645968 37.312895 
L 39.851291 47.054264 
L 41.056614 48.998 
L 42.261937 54.763033 
L 43.46726 59.679109 
L 44.672583 63.649123 
L 45.877905 65.358939 
L 47.083228 60.801044 
L 48.288551 63.500903 
L 49.493874 65.198624 
L 50.699197 61.499798 
L 51.90452 61.661825 
L 54.315165 65.447968 
L 56.725811 68.324915 
L 57.931134 67.492709 
L 59.136457 63.821819 
L 60.341779 64.018594 
L 61.547102 64.402615 
L 62.752425 46.761235 
L 63.957748 42.893366 
L 65.163071 43.806023 
L 66.368394 41.141543 
L 67.573716 41.248083 
L 68.779039 42.456544 
L 69.984362 43.840972 
L 71.189685 43.466549 
L 72.395008 35.671289 
L 73.600331 36.776885 
L 74.805653 37.332502 
L 76.010976 38.996885 
L 79.626945 42.661811 
L 80.832268 42.14859 
L 82.03759 42.960366 
L 83.242913 41.684588 
L 84.448236 32.562612 
L 85.653559 31.57869 
L 86.858882 31.59208 
L 88.064205 32.381857 
L 89.269527 33.779516 
L 90.47485 33.880177 
L 91.680173 34.367779 
L 92.885496 32.416776 
L 94.090819 33.469139 
L 95.296142 33.370731 
L 96.501464 33.766482 
L 97.706787 30.500183 
L 98.91211 30.782951 
L 101.322756 32.780641 
L 102.528079 32.770972 
L 104.938724 34.643961 
L 106.144047 33.518293 
L 107.34937 32.635055 
L 108.554693 31.260861 
L 109.760016 29.188407 
L 110.965338 28.816503 
L 112.170661 29.305735 
L 113.375984 28.146589 
L 115.78663 23.33235 
L 116.991953 24.396928 
L 118.197275 25.305781 
L 119.402598 24.832962 
L 120.607921 25.58644 
L 121.813244 26.179738 
L 123.018567 25.933854 
L 124.223889 26.852953 
L 125.429212 26.93603 
L 126.634535 27.768807 
L 127.839858 25.672652 
L 129.045181 25.469209 
L 130.250504 23.198263 
L 131.455826 24.026006 
L 132.661149 23.938218 
L 133.866472 24.584216 
L 135.071795 25.443673 
L 136.277118 25.671452 
L 137.482441 23.340587 
L 138.687763 24.080553 
L 139.893086 24.465043 
L 141.098409 25.122724 
L 142.303732 21.953435 
L 143.509055 20.531955 
L 144.714378 20.684287 
L 145.9197 21.493013 
L 147.125023 21.876199 
L 148.330346 21.26036 
L 150.740992 22.788003 
L 151.946315 21.419591 
L 153.151637 21.76282 
L 156.767606 23.141603 
L 157.972929 20.55376 
L 161.588897 22.63279 
L 162.79422 22.930392 
L 163.999543 23.474285 
L 165.204866 24.144708 
L 167.615511 24.765821 
L 171.23148 26.500181 
L 172.436803 27.093001 
L 173.642126 27.378906 
L 174.847448 27.961742 
L 176.052771 28.419341 
L 177.258094 27.254658 
L 178.463417 27.729627 
L 179.66874 22.94456 
L 180.874063 22.523182 
L 183.284708 23.631049 
L 184.490031 23.259838 
L 185.695354 23.252372 
L 186.900677 23.789082 
L 188.106 23.767495 
L 189.311322 23.930269 
L 190.516645 24.246781 
L 191.721968 21.78289 
L 198.953905 24.727526 
L 200.159228 25.249503 
L 201.364551 25.289126 
L 202.569873 24.976355 
L 203.775196 24.945791 
L 204.980519 22.210128 
L 206.185842 22.421386 
L 208.596488 23.348339 
L 209.80181 23.290335 
L 212.212456 24.092875 
L 213.417779 24.123775 
L 214.623102 24.571265 
L 215.828425 24.444507 
L 217.033747 24.753118 
L 219.444393 24.609395 
L 221.855039 25.487293 
L 223.060362 25.552377 
L 224.265684 25.905403 
L 225.471007 25.93993 
L 226.67633 26.12142 
L 229.086976 26.905867 
L 230.292299 26.455237 
L 231.497621 25.813448 
L 233.908267 26.590988 
L 235.11359 26.432222 
L 236.318913 26.772851 
L 237.524236 26.429654 
L 242.345527 27.291442 
L 243.55085 27.299508 
L 247.166818 28.448549 
L 249.577464 28.681223 
L 250.782787 29.015285 
L 251.98811 27.864198 
L 253.193432 28.202303 
L 254.398755 27.4118 
L 256.809401 27.954296 
L 258.014724 28.207646 
L 261.630692 29.265425 
L 262.836015 29.205097 
L 264.041338 29.505056 
L 265.246661 29.5881 
L 266.451984 29.499348 
L 267.657306 29.714475 
L 268.862629 30.054704 
L 270.067952 29.799909 
L 271.273275 26.504228 
L 272.478598 26.134137 
L 273.683921 26.490189 
L 274.889243 26.432701 
L 276.094566 26.589991 
L 277.299889 25.002208 
L 278.505212 25.342718 
L 280.915858 25.731917 
L 282.12118 26.074787 
L 283.326503 26.17965 
L 284.531826 26.471434 
L 285.737149 26.514731 
L 289.353117 27.393502 
L 291.763763 27.539952 
L 294.174409 28.142089 
L 295.379731 28.046137 
L 296.585054 27.720448 
L 301.406346 28.830585 
L 302.611668 28.21106 
L 303.816991 28.493567 
L 306.227637 28.373022 
L 308.638283 27.950449 
L 309.843605 27.479974 
L 311.048928 27.364108 
L 313.459574 27.824295 
L 314.664897 27.658759 
L 315.87022 27.319501 
L 317.075542 27.573133 
L 318.280865 26.921329 
L 319.486188 27.216048 
L 320.691511 27.343693 
L 321.896834 27.625107 
L 324.307479 27.533577 
L 325.512802 27.794587 
L 326.718125 27.80121 
L 327.923448 27.492358 
L 330.334094 28.008146 
L 332.744739 28.397703 
L 335.155385 28.912386 
L 336.360708 28.487309 
L 337.566031 28.433444 
L 341.181999 29.112441 
L 342.387322 28.973451 
L 343.592645 29.210311 
L 344.797968 29.206904 
L 346.00329 29.444119 
L 347.208613 29.480619 
L 348.413936 28.263545 
L 349.619259 28.525777 
L 350.824582 28.380739 
L 352.029905 28.617947 
L 353.235227 28.277744 
L 358.056519 28.744177 
L 360.467164 28.090159 
L 362.87781 28.581035 
L 364.083133 28.581785 
L 365.288456 28.828723 
L 366.493778 28.762817 
L 367.699101 28.962364 
L 368.904424 28.984995 
L 370.109747 29.170495 
L 371.31507 29.152856 
L 372.520393 29.393519 
L 373.725715 29.281278 
L 376.136361 29.712911 
L 377.341684 29.811241 
L 379.75233 30.202024 
L 384.573621 31.007292 
L 385.778944 30.491335 
L 386.984267 26.098074 
L 388.189589 26.325235 
L 389.394912 25.732971 
L 390.600235 25.788834 
L 393.010881 26.03203 
L 394.216204 25.949841 
L 395.421526 26.15521 
L 396.626849 25.693479 
L 399.037495 26.060753 
L 400.242818 25.662019 
L 403.858786 26.257318 
L 405.064109 26.19312 
L 409.8854 26.94839 
L 411.090723 26.916448 
L 418.32266 28.060705 
L 419.527983 27.829534 
L 420.733306 27.787941 
L 423.143952 28.214165 
L 425.554597 28.308039 
L 427.965243 28.705368 
L 429.170566 28.656969 
L 430.375889 28.799714 
L 431.581211 28.615442 
L 435.19718 29.025475 
L 436.402503 28.826189 
L 437.607826 28.502791 
L 440.018471 28.902092 
L 441.223794 28.89216 
L 442.429117 28.436248 
L 446.045085 28.510997 
L 449.661054 28.500408 
L 452.071699 28.73993 
L 453.277022 28.785449 
L 458.098314 29.339893 
L 459.303636 29.219732 
L 465.330251 29.768762 
L 466.535573 28.056578 
L 468.946219 28.166655 
L 470.151542 27.83014 
L 473.76751 28.238343 
L 474.972833 28.190839 
L 477.383479 28.421543 
L 478.588802 26.903638 
L 479.794125 26.502697 
L 480.999447 26.689571 
L 484.615416 26.857498 
L 488.231384 27.363947 
L 489.436707 27.409667 
L 493.052676 27.950764 
L 494.257999 28.00345 
L 497.873967 28.440212 
L 499.07929 28.10328 
L 501.489936 28.384569 
L 502.695258 27.543237 
L 505.105904 27.802845 
L 506.311227 27.152011 
L 508.721873 27.400846 
L 511.132518 27.474322 
L 512.337841 27.580555 
L 513.543164 27.369513 
L 515.95381 27.714286 
L 515.95381 27.714286 
" clip-path="url(#p13f2f63a9a)" style="fill: none; stroke-dasharray: 5.55,2.4; stroke-dashoffset: 0; stroke: #4169e1; stroke-width: 1.5"/>
   </g>
   <g id="line2d_27">
    <path d="M 35.03 28.409771 
L 36.235323 11.006774 
L 37.440646 19.108506 
L 38.645968 23.430156 
L 39.851291 22.455722 
L 41.056614 21.709834 
L 42.261937 22.903922 
L 43.46726 21.8763 
L 44.672583 21.959529 
L 45.877905 22.751682 
L 47.083228 21.286301 
L 48.288551 20.879306 
L 49.493874 20.104785 
L 50.699197 21.258902 
L 51.90452 22.208269 
L 53.109842 22.340495 
L 55.520488 22.467461 
L 56.725811 22.236256 
L 57.931134 21.747153 
L 59.136457 22.891268 
L 60.341779 22.445936 
L 61.547102 22.151153 
L 62.752425 20.364204 
L 63.957748 21.454016 
L 65.163071 21.967698 
L 66.368394 22.903418 
L 67.573716 22.456987 
L 69.984362 23.286169 
L 71.189685 23.862703 
L 72.395008 25.115412 
L 74.805653 25.806823 
L 76.010976 25.797041 
L 77.216299 25.45574 
L 78.421622 25.637163 
L 79.626945 25.503682 
L 80.832268 24.947724 
L 83.242913 24.290588 
L 84.448236 23.390636 
L 85.653559 22.994046 
L 86.858882 23.31352 
L 88.064205 22.978226 
L 89.269527 23.030783 
L 90.47485 22.644187 
L 91.680173 22.391383 
L 92.885496 22.880883 
L 94.090819 23.062233 
L 96.501464 23.694024 
L 97.706787 24.273627 
L 98.91211 24.632155 
L 101.322756 24.905834 
L 102.528079 24.504936 
L 103.733401 24.364349 
L 104.938724 24.512673 
L 106.144047 24.920274 
L 107.34937 24.56275 
L 108.554693 24.955799 
L 109.760016 24.6016 
L 110.965338 24.853472 
L 112.170661 24.770458 
L 114.581307 23.987706 
L 115.78663 24.387987 
L 118.197275 24.429658 
L 119.402598 24.755913 
L 121.813244 25.0933 
L 123.018567 25.315297 
L 124.223889 25.373273 
L 125.429212 25.587215 
L 126.634535 25.67587 
L 127.839858 26.043203 
L 129.045181 25.835079 
L 130.250504 26.236979 
L 131.455826 26.271205 
L 132.661149 26.022008 
L 135.071795 25.909375 
L 136.277118 26.079907 
L 137.482441 25.721211 
L 141.098409 26.088923 
L 142.303732 26.528029 
L 143.509055 26.172568 
L 144.714378 26.322539 
L 145.9197 26.326694 
L 147.125023 26.465771 
L 148.330346 26.717036 
L 150.740992 26.63564 
L 151.946315 26.318905 
L 153.151637 26.446335 
L 154.35696 26.372469 
L 155.562283 26.485462 
L 156.767606 26.32155 
L 157.972929 26.714448 
L 174.847448 27.203957 
L 176.052771 27.133499 
L 177.258094 27.397912 
L 178.463417 27.304879 
L 179.66874 26.875853 
L 180.874063 27.073791 
L 183.284708 27.136901 
L 185.695354 26.784274 
L 186.900677 26.796861 
L 189.311322 27.033684 
L 190.516645 26.965679 
L 191.721968 26.643725 
L 195.337937 26.623098 
L 200.159228 26.680465 
L 203.775196 27.134029 
L 204.980519 26.88464 
L 206.185842 26.998558 
L 208.596488 26.962237 
L 209.80181 27.087386 
L 215.828425 26.763799 
L 230.292299 27.343891 
L 231.497621 27.513694 
L 233.908267 27.496689 
L 237.524236 27.796493 
L 242.345527 28.068183 
L 243.55085 27.913676 
L 247.166818 27.863599 
L 250.782787 28.039876 
L 251.98811 27.844958 
L 253.193432 27.882509 
L 255.604078 27.700818 
L 262.836015 27.664806 
L 264.041338 27.712129 
L 265.246661 27.632572 
L 266.451984 27.743176 
L 270.067952 27.638164 
L 271.273275 27.285903 
L 272.478598 27.416929 
L 276.094566 27.42173 
L 277.299889 27.21043 
L 290.55844 27.408358 
L 292.969086 27.498227 
L 301.406346 27.700981 
L 302.611668 27.544322 
L 305.022314 27.645662 
L 307.43296 27.87488 
L 312.254251 27.574113 
L 314.664897 27.689554 
L 317.075542 27.824338 
L 319.486188 27.731162 
L 321.896834 27.761236 
L 325.512802 27.630869 
L 326.718125 27.694156 
L 332.744739 27.530982 
L 335.155385 27.512934 
L 336.360708 27.414527 
L 338.771353 27.495459 
L 347.208613 27.66929 
L 348.413936 27.51648 
L 353.235227 27.573107 
L 354.44055 27.612237 
L 356.851196 27.515014 
L 358.056519 27.578691 
L 359.261842 27.470361 
L 361.672487 27.550549 
L 364.083133 27.590932 
L 367.699101 27.70303 
L 370.109747 27.796862 
L 372.520393 27.70281 
L 374.931038 27.78471 
L 382.162975 27.931461 
L 385.778944 27.772631 
L 386.984267 27.525398 
L 388.189589 27.518329 
L 390.600235 27.701233 
L 393.010881 27.673517 
L 395.421526 27.622437 
L 396.626849 27.733286 
L 402.653463 27.612203 
L 415.912015 27.508974 
L 418.32266 27.51045 
L 419.527983 27.441001 
L 423.143952 27.485034 
L 425.554597 27.478281 
L 441.223794 27.803852 
L 443.63444 27.94142 
L 446.045085 27.869507 
L 448.455731 27.89442 
L 465.330251 28.244583 
L 466.535573 28.100452 
L 468.946219 28.161062 
L 471.356865 28.122817 
L 473.76751 28.098821 
L 477.383479 28.170572 
L 479.794125 27.926082 
L 495.463321 27.905306 
L 501.489936 27.984623 
L 502.695258 27.865657 
L 505.105904 27.881984 
L 506.311227 27.764266 
L 512.337841 27.771194 
L 514.748487 27.711109 
L 515.95381 27.714286 
L 515.95381 27.714286 
" clip-path="url(#p13f2f63a9a)" style="fill: none; stroke: #ff8c00; stroke-width: 1.5; stroke-linecap: square"/>
   </g>
   <g id="line2d_28">
    <path d="M 35.03 97 
L 36.235323 28.726274 
L 37.440646 21.891027 
L 38.645968 28.037612 
L 39.851291 40.973899 
L 41.056614 49.684503 
L 42.261937 54.515318 
L 43.46726 58.159539 
L 44.672583 62.462653 
L 45.877905 64.643275 
L 47.083228 62.744109 
L 48.288551 65.188018 
L 49.493874 66.012337 
L 50.699197 64.322289 
L 51.90452 63.656334 
L 54.315165 67.523018 
L 55.520488 69.109329 
L 56.725811 70.360351 
L 57.931134 70.667721 
L 59.136457 66.019961 
L 60.341779 66.489301 
L 61.547102 67.384895 
L 62.752425 52.06278 
L 63.957748 47.434579 
L 65.163071 47.853859 
L 66.368394 44.542281 
L 67.573716 45.202724 
L 68.779039 46.036279 
L 69.984362 46.465365 
L 71.189685 45.847616 
L 72.395008 36.479649 
L 74.805653 38.315039 
L 76.010976 39.991019 
L 77.216299 40.655532 
L 79.626945 43.212341 
L 80.832268 41.943784 
L 82.03759 42.019726 
L 83.242913 42.690981 
L 84.448236 36.498427 
L 85.653559 36.416287 
L 86.858882 36.803849 
L 88.064205 37.026451 
L 89.269527 38.302203 
L 90.47485 38.001283 
L 91.680173 38.553294 
L 92.885496 37.15338 
L 94.090819 37.98704 
L 95.296142 37.65135 
L 96.501464 37.96776 
L 97.706787 35.143623 
L 98.91211 34.75334 
L 100.117433 35.554759 
L 101.322756 36.504835 
L 102.528079 35.537256 
L 104.938724 37.083436 
L 106.144047 35.872375 
L 107.34937 35.145584 
L 108.554693 34.01888 
L 109.760016 33.265142 
L 110.965338 33.360042 
L 112.170661 34.239695 
L 115.78663 30.165138 
L 118.197275 32.053952 
L 119.402598 31.289045 
L 120.607921 31.952553 
L 123.018567 32.175743 
L 124.223889 32.983996 
L 125.429212 33.052457 
L 126.634535 33.748289 
L 127.839858 32.217056 
L 129.045181 32.275467 
L 130.250504 30.207994 
L 131.455826 31.011461 
L 132.661149 30.682289 
L 133.866472 31.277724 
L 135.071795 32.059025 
L 136.277118 32.272361 
L 137.482441 30.559661 
L 138.687763 30.998665 
L 139.893086 31.211554 
L 141.098409 31.84559 
L 142.303732 28.701105 
L 143.509055 26.888152 
L 144.714378 27.188854 
L 145.9197 27.939153 
L 147.125023 28.268332 
L 148.330346 27.654009 
L 149.535669 28.376098 
L 150.740992 28.952313 
L 151.946315 27.453026 
L 153.151637 27.796785 
L 154.35696 28.367047 
L 155.562283 28.758767 
L 156.767606 28.816082 
L 157.972929 25.928572 
L 161.588897 27.899897 
L 163.999543 28.633118 
L 165.204866 29.23613 
L 168.820834 30.612174 
L 172.436803 32.311717 
L 173.642126 32.349061 
L 176.052771 33.288781 
L 177.258094 31.964429 
L 178.463417 32.274215 
L 179.66874 27.830005 
L 180.874063 27.328293 
L 183.284708 28.347308 
L 184.490031 28.191989 
L 185.695354 27.679017 
L 186.900677 28.220352 
L 189.311322 28.481304 
L 190.516645 28.873884 
L 191.721968 26.356297 
L 194.132614 27.291962 
L 195.337937 27.659248 
L 197.748582 28.676637 
L 198.953905 29.044703 
L 200.159228 29.537044 
L 201.364551 29.528813 
L 202.569873 28.92535 
L 203.775196 28.77637 
L 204.980519 27.279945 
L 206.185842 27.352085 
L 208.596488 28.288513 
L 209.80181 28.247192 
L 211.007133 28.55258 
L 213.417779 28.872922 
L 214.623102 29.277216 
L 215.828425 29.373432 
L 217.033747 29.765515 
L 218.23907 29.726064 
L 219.444393 30.004011 
L 221.855039 30.787451 
L 223.060362 30.780462 
L 224.265684 31.14554 
L 226.67633 31.255832 
L 229.086976 32.026825 
L 230.292299 31.57485 
L 231.497621 30.914327 
L 233.908267 31.635637 
L 235.11359 31.327 
L 236.318913 31.6909 
L 237.524236 31.374355 
L 241.140204 32.103778 
L 242.345527 32.13254 
L 243.55085 31.574344 
L 247.166818 32.492303 
L 248.372141 32.572189 
L 250.782787 33.117561 
L 251.98811 31.928854 
L 253.193432 32.228852 
L 254.398755 31.81239 
L 260.425369 33.284157 
L 261.630692 33.580982 
L 262.836015 33.545469 
L 264.041338 33.781774 
L 265.246661 33.838513 
L 266.451984 33.636289 
L 268.862629 34.14527 
L 270.067952 34.049798 
L 271.273275 28.88669 
L 272.478598 28.468281 
L 273.683921 28.808486 
L 276.094566 29.024657 
L 277.299889 27.338147 
L 278.505212 27.674445 
L 280.915858 27.984773 
L 282.12118 28.318616 
L 283.326503 28.266402 
L 284.531826 28.556729 
L 285.737149 28.516501 
L 289.353117 29.414415 
L 291.763763 29.350432 
L 294.174409 29.888534 
L 295.379731 29.971223 
L 296.585054 29.801646 
L 301.406346 30.903833 
L 302.611668 29.972034 
L 303.816991 30.257323 
L 305.022314 30.191824 
L 306.227637 29.926414 
L 307.43296 29.437951 
L 308.638283 29.219988 
L 309.843605 28.514257 
L 311.048928 28.27379 
L 313.459574 28.762062 
L 314.664897 28.556733 
L 315.87022 28.207802 
L 317.075542 28.469445 
L 318.280865 28.245935 
L 319.486188 28.534533 
L 323.102157 29.047026 
L 324.307479 29.012255 
L 325.512802 29.29 
L 327.923448 29.475417 
L 330.334094 29.995404 
L 331.539416 30.018138 
L 335.155385 30.710685 
L 336.360708 30.429031 
L 337.566031 30.388042 
L 339.976676 30.878296 
L 343.592645 31.352147 
L 344.797968 31.329061 
L 346.00329 31.568709 
L 347.208613 31.658378 
L 348.413936 30.540101 
L 349.619259 30.791365 
L 350.824582 30.82006 
L 352.029905 31.006553 
L 353.235227 30.756656 
L 354.44055 30.914223 
L 355.645873 30.716771 
L 356.851196 30.956707 
L 358.056519 30.95725 
L 359.261842 30.490217 
L 360.467164 30.273959 
L 362.87781 30.733779 
L 364.083133 30.746479 
L 365.288456 30.976708 
L 366.493778 30.917942 
L 367.699101 31.101958 
L 368.904424 31.133069 
L 370.109747 31.286098 
L 371.31507 31.050368 
L 372.520393 31.28145 
L 373.725715 31.046137 
L 376.136361 31.43696 
L 379.75233 31.843385 
L 384.573621 32.582309 
L 385.778944 31.923927 
L 386.984267 28.12253 
L 388.189589 28.353507 
L 389.394912 27.732975 
L 390.600235 27.646321 
L 391.805558 27.807032 
L 393.010881 27.79215 
L 394.216204 27.595119 
L 395.421526 27.770618 
L 396.626849 27.169633 
L 397.832172 27.265635 
L 399.037495 27.486318 
L 400.242818 27.002077 
L 401.448141 27.221005 
L 402.653463 27.277618 
L 409.8854 28.419106 
L 411.090723 28.224029 
L 418.32266 29.266944 
L 419.527983 29.131769 
L 420.733306 29.181338 
L 423.143952 29.566579 
L 425.554597 29.600505 
L 427.965243 29.980987 
L 429.170566 29.96488 
L 430.375889 30.109218 
L 431.581211 29.841049 
L 433.991857 30.211748 
L 435.19718 30.255233 
L 437.607826 29.614028 
L 440.018471 30.008323 
L 441.223794 30.044163 
L 442.429117 29.608974 
L 443.63444 29.642352 
L 444.839763 29.818954 
L 446.045085 29.414179 
L 447.250408 29.503039 
L 448.455731 29.398441 
L 452.071699 29.862652 
L 453.277022 29.901743 
L 456.892991 30.382833 
L 459.303636 30.255445 
L 464.124928 30.802927 
L 465.330251 30.690409 
L 466.535573 29.198604 
L 468.946219 29.42095 
L 470.151542 29.171642 
L 471.356865 29.258821 
L 472.562188 29.224895 
L 473.76751 29.346895 
L 476.178156 29.362546 
L 477.383479 29.511879 
L 478.588802 27.628635 
L 479.794125 27.191239 
L 482.20477 27.517148 
L 483.410093 27.368051 
L 488.231384 28.078421 
L 490.64203 28.334307 
L 495.463321 28.969485 
L 497.873967 29.234036 
L 499.07929 28.904594 
L 501.489936 29.198391 
L 502.695258 28.13481 
L 505.105904 28.424441 
L 506.311227 27.377949 
L 508.721873 27.616262 
L 511.132518 27.506496 
L 512.337841 27.632416 
L 513.543164 27.374932 
L 515.95381 27.714286 
L 515.95381 27.714286 
" clip-path="url(#p13f2f63a9a)" style="fill: none; stroke-dasharray: 5.55,2.4; stroke-dashoffset: 0; stroke: #ff8c00; stroke-width: 1.5"/>
   </g>
   <g id="patch_3">
    <path d="M 35.03 97 
L 35.03 0 
" style="fill: none; stroke: #000000; stroke-width: 0.8; stroke-linejoin: miter; stroke-linecap: square"/>
   </g>
   <g id="patch_4">
    <path d="M 540 97 
L 540 0 
" style="fill: none; stroke: #000000; stroke-width: 0.8; stroke-linejoin: miter; stroke-linecap: square"/>
   </g>
   <g id="patch_5">
    <path d="M 35.03 97 
L 540 97 
" style="fill: none; stroke: #000000; stroke-width: 0.8; stroke-linejoin: miter; stroke-linecap: square"/>
   </g>
   <g id="patch_6">
    <path d="M 35.03 0 
L 540 0 
" style="fill: none; stroke: #000000; stroke-width: 0.8; stroke-linejoin: miter; stroke-linecap: square"/>
   </g>
  </g>
 </g>
 <defs>
  <clipPath id="p13f2f63a9a">
   <rect x="35.03" y="0" width="504.97" height="97"/>
  </clipPath>
 </defs>
</svg>
