<?xml version="1.0" encoding="utf-8" standalone="no"?>
<!DOCTYPE svg PUBLIC "-//W3C//DTD SVG 1.1//EN"
  "http://www.w3.org/Graphics/SVG/1.1/DTD/svg11.dtd">
<svg xmlns:xlink="http://www.w3.org/1999/xlink" width="540pt" height="129.6pt" viewBox="0 0 540 129.6" xmlns="http://www.w3.org/2000/svg" version="1.1">
 <metadata>
  <rdf:RDF xmlns:dc="http://purl.org/dc/elements/1.1/" xmlns:cc="http://creativecommons.org/ns#" xmlns:rdf="http://www.w3.org/1999/02/22-rdf-syntax-ns#">
   <cc:Work>
    <dc:type rdf:resource="http://purl.org/dc/dcmitype/StillImage"/>
    <dc:date>2025-04-05T08:38:29.181734</dc:date>
    <dc:format>image/svg+xml</dc:format>
    <dc:creator>
     <cc:Agent>
      <dc:title>Matplotlib v3.10.1, https://matplotlib.org/</dc:title>
     </cc:Agent>
    </dc:creator>
   </cc:Work>
  </rdf:RDF>
 </metadata>
 <defs>
  <style type="text/css">*{stroke-linejoin: round; stroke-linecap: butt}</style>
 </defs>
 <g id="figure_1">
  <g id="patch_1">
   <path d="M 0 129.6 
L 540 129.6 
L 540 0 
L 0 0 
z
" style="fill: #ffffff"/>
  </g>
  <g id="axes_1">
   <g id="patch_2">
    <path d="M 26.795 98.44 
L 540 98.44 
L 540 0 
L 26.795 0 
z
" style="fill: #ffffff"/>
   </g>
   <g id="matplotlib.axis_1">
    <g id="xtick_1">
     <g id="line2d_1">
      <path d="M 26.795 98.44 
L 26.795 0 
" clip-path="url(#pf16ebbb767)" style="fill: none; stroke: #b0b0b0; stroke-width: 0.8; stroke-linecap: square"/>
     </g>
     <g id="line2d_2">
      <defs>
       <path id="m02dfde931b" d="M 0 0 
L 0 3.5 
" style="stroke: #000000; stroke-width: 0.8"/>
      </defs>
      <g>
       <use xlink:href="#m02dfde931b" x="26.795" y="98.44" style="stroke: #000000; stroke-width: 0.8"/>
      </g>
     </g>
     <g id="text_1">
      <text style="font-size: 10px; font-family: 'Times New Roman'; text-anchor: middle" x="26.795" y="112.38375" transform="rotate(-0 26.795 112.38375)">0</text>
     </g>
    </g>
    <g id="xtick_2">
     <g id="line2d_3">
      <path d="M 88.043956 98.44 
L 88.043956 0 
" clip-path="url(#pf16ebbb767)" style="fill: none; stroke: #b0b0b0; stroke-width: 0.8; stroke-linecap: square"/>
     </g>
     <g id="line2d_4">
      <g>
       <use xlink:href="#m02dfde931b" x="88.043956" y="98.44" style="stroke: #000000; stroke-width: 0.8"/>
      </g>
     </g>
     <g id="text_2">
      <text style="font-size: 10px; font-family: 'Times New Roman'; text-anchor: middle" x="88.043956" y="112.38375" transform="rotate(-0 88.043956 112.38375)">50</text>
     </g>
    </g>
    <g id="xtick_3">
     <g id="line2d_5">
      <path d="M 149.292911 98.44 
L 149.292911 0 
" clip-path="url(#pf16ebbb767)" style="fill: none; stroke: #b0b0b0; stroke-width: 0.8; stroke-linecap: square"/>
     </g>
     <g id="line2d_6">
      <g>
       <use xlink:href="#m02dfde931b" x="149.292911" y="98.44" style="stroke: #000000; stroke-width: 0.8"/>
      </g>
     </g>
     <g id="text_3">
      <text style="font-size: 10px; font-family: 'Times New Roman'; text-anchor: middle" x="149.292911" y="112.38375" transform="rotate(-0 149.292911 112.38375)">100</text>
     </g>
    </g>
    <g id="xtick_4">
     <g id="line2d_7">
      <path d="M 210.541867 98.44 
L 210.541867 0 
" clip-path="url(#pf16ebbb767)" style="fill: none; stroke: #b0b0b0; stroke-width: 0.8; stroke-linecap: square"/>
     </g>
     <g id="line2d_8">
      <g>
       <use xlink:href="#m02dfde931b" x="210.541867" y="98.44" style="stroke: #000000; stroke-width: 0.8"/>
      </g>
     </g>
     <g id="text_4">
      <text style="font-size: 10px; font-family: 'Times New Roman'; text-anchor: middle" x="210.541867" y="112.38375" transform="rotate(-0 210.541867 112.38375)">150</text>
     </g>
    </g>
    <g id="xtick_5">
     <g id="line2d_9">
      <path d="M 271.790823 98.44 
L 271.790823 0 
" clip-path="url(#pf16ebbb767)" style="fill: none; stroke: #b0b0b0; stroke-width: 0.8; stroke-linecap: square"/>
     </g>
     <g id="line2d_10">
      <g>
       <use xlink:href="#m02dfde931b" x="271.790823" y="98.44" style="stroke: #000000; stroke-width: 0.8"/>
      </g>
     </g>
     <g id="text_5">
      <text style="font-size: 10px; font-family: 'Times New Roman'; text-anchor: middle" x="271.790823" y="112.38375" transform="rotate(-0 271.790823 112.38375)">200</text>
     </g>
    </g>
    <g id="xtick_6">
     <g id="line2d_11">
      <path d="M 333.039779 98.44 
L 333.039779 0 
" clip-path="url(#pf16ebbb767)" style="fill: none; stroke: #b0b0b0; stroke-width: 0.8; stroke-linecap: square"/>
     </g>
     <g id="line2d_12">
      <g>
       <use xlink:href="#m02dfde931b" x="333.039779" y="98.44" style="stroke: #000000; stroke-width: 0.8"/>
      </g>
     </g>
     <g id="text_6">
      <text style="font-size: 10px; font-family: 'Times New Roman'; text-anchor: middle" x="333.039779" y="112.38375" transform="rotate(-0 333.039779 112.38375)">250</text>
     </g>
    </g>
    <g id="xtick_7">
     <g id="line2d_13">
      <path d="M 394.288734 98.44 
L 394.288734 0 
" clip-path="url(#pf16ebbb767)" style="fill: none; stroke: #b0b0b0; stroke-width: 0.8; stroke-linecap: square"/>
     </g>
     <g id="line2d_14">
      <g>
       <use xlink:href="#m02dfde931b" x="394.288734" y="98.44" style="stroke: #000000; stroke-width: 0.8"/>
      </g>
     </g>
     <g id="text_7">
      <text style="font-size: 10px; font-family: 'Times New Roman'; text-anchor: middle" x="394.288734" y="112.38375" transform="rotate(-0 394.288734 112.38375)">300</text>
     </g>
    </g>
    <g id="xtick_8">
     <g id="line2d_15">
      <path d="M 455.53769 98.44 
L 455.53769 0 
" clip-path="url(#pf16ebbb767)" style="fill: none; stroke: #b0b0b0; stroke-width: 0.8; stroke-linecap: square"/>
     </g>
     <g id="line2d_16">
      <g>
       <use xlink:href="#m02dfde931b" x="455.53769" y="98.44" style="stroke: #000000; stroke-width: 0.8"/>
      </g>
     </g>
     <g id="text_8">
      <text style="font-size: 10px; font-family: 'Times New Roman'; text-anchor: middle" x="455.53769" y="112.38375" transform="rotate(-0 455.53769 112.38375)">350</text>
     </g>
    </g>
    <g id="xtick_9">
     <g id="line2d_17">
      <path d="M 516.786646 98.44 
L 516.786646 0 
" clip-path="url(#pf16ebbb767)" style="fill: none; stroke: #b0b0b0; stroke-width: 0.8; stroke-linecap: square"/>
     </g>
     <g id="line2d_18">
      <g>
       <use xlink:href="#m02dfde931b" x="516.786646" y="98.44" style="stroke: #000000; stroke-width: 0.8"/>
      </g>
     </g>
     <g id="text_9">
      <text style="font-size: 10px; font-family: 'Times New Roman'; text-anchor: middle" x="516.786646" y="112.38375" transform="rotate(-0 516.786646 112.38375)">400</text>
     </g>
    </g>
    <g id="text_10">
     <text style="font-size: 12px; font-family: 'Times New Roman'; text-anchor: middle" x="283.3975" y="126.855312" transform="rotate(-0 283.3975 126.855312)">Simulation Run</text>
    </g>
   </g>
   <g id="matplotlib.axis_2">
    <g id="ytick_1">
     <g id="line2d_19">
      <path d="M 26.795 98.44 
L 540 98.44 
" clip-path="url(#pf16ebbb767)" style="fill: none; stroke: #b0b0b0; stroke-width: 0.8; stroke-linecap: square"/>
     </g>
     <g id="line2d_20">
      <defs>
       <path id="m65bda07743" d="M 0 0 
L -3.5 0 
" style="stroke: #000000; stroke-width: 0.8"/>
      </defs>
      <g>
       <use xlink:href="#m65bda07743" x="26.795" y="98.44" style="stroke: #000000; stroke-width: 0.8"/>
      </g>
     </g>
     <g id="text_11">
      <text style="font-size: 10px; font-family: 'Times New Roman'; text-anchor: end" x="19.795" y="101.911875" transform="rotate(-0 19.795 101.911875)">0</text>
     </g>
    </g>
    <g id="ytick_2">
     <g id="line2d_21">
      <path d="M 26.795 57.423333 
L 540 57.423333 
" clip-path="url(#pf16ebbb767)" style="fill: none; stroke: #b0b0b0; stroke-width: 0.8; stroke-linecap: square"/>
     </g>
     <g id="line2d_22">
      <g>
       <use xlink:href="#m65bda07743" x="26.795" y="57.423333" style="stroke: #000000; stroke-width: 0.8"/>
      </g>
     </g>
     <g id="text_12">
      <text style="font-size: 10px; font-family: 'Times New Roman'; text-anchor: end" x="19.795" y="60.895208" transform="rotate(-0 19.795 60.895208)">1</text>
     </g>
    </g>
    <g id="ytick_3">
     <g id="line2d_23">
      <path d="M 26.795 16.406667 
L 540 16.406667 
" clip-path="url(#pf16ebbb767)" style="fill: none; stroke: #b0b0b0; stroke-width: 0.8; stroke-linecap: square"/>
     </g>
     <g id="line2d_24">
      <g>
       <use xlink:href="#m65bda07743" x="26.795" y="16.406667" style="stroke: #000000; stroke-width: 0.8"/>
      </g>
     </g>
     <g id="text_13">
      <text style="font-size: 10px; font-family: 'Times New Roman'; text-anchor: end" x="19.795" y="19.878542" transform="rotate(-0 19.795 19.878542)">2</text>
     </g>
    </g>
    <g id="text_14">
     <text style="font-size: 12px; font-family: 'Times New Roman'; text-anchor: middle" x="8.228125" y="49.22" transform="rotate(-90 8.228125 49.22)">Normalized Value</text>
    </g>
   </g>
   <g id="line2d_25">
    <path d="M 26.795 68.826648 
L 28.019979 51.805974 
L 29.244958 59.136648 
L 30.469937 55.307974 
L 31.694916 57.444241 
L 32.919896 58.789484 
L 34.144875 61.79193 
L 35.369854 60.118661 
L 36.594833 61.890234 
L 39.044791 63.886928 
L 40.26977 62.979294 
L 41.494749 61.388962 
L 42.719728 60.228318 
L 43.944708 60.871295 
L 45.169687 60.27207 
L 46.394666 60.002028 
L 47.619645 60.195511 
L 48.844624 59.520406 
L 50.069603 60.040477 
L 52.519561 59.809995 
L 53.744541 60.221048 
L 54.96952 60.329699 
L 57.419478 59.896422 
L 58.644457 60.169542 
L 59.869436 60.32721 
L 61.094415 59.72398 
L 62.319394 59.963138 
L 63.544373 59.59039 
L 64.769353 59.42864 
L 65.994332 59.737803 
L 67.219311 59.635445 
L 69.669269 60.251686 
L 70.894248 60.442917 
L 73.344206 60.087464 
L 75.794165 60.691694 
L 78.244123 60.373148 
L 79.469102 60.613917 
L 80.694081 60.210173 
L 81.91906 60.061526 
L 83.144039 60.251153 
L 84.369018 60.216242 
L 86.818977 60.399993 
L 88.043956 59.982223 
L 91.718893 59.873079 
L 92.943872 60.12809 
L 94.168851 59.851181 
L 96.61881 59.953701 
L 97.843789 59.801242 
L 99.068768 59.946353 
L 102.743705 59.83664 
L 103.968684 59.844294 
L 106.418642 59.496177 
L 107.643622 59.630683 
L 108.868601 59.405815 
L 110.09358 59.611054 
L 111.318559 58.905208 
L 112.543538 59.095733 
L 113.768517 59.060296 
L 114.993496 59.141 
L 116.218475 58.730858 
L 127.243287 59.278704 
L 128.468266 59.140807 
L 129.693246 59.15747 
L 134.593162 58.598921 
L 135.818141 58.765199 
L 137.04312 58.620777 
L 139.493079 58.902526 
L 140.718058 58.893421 
L 143.168016 59.211307 
L 148.067932 59.307295 
L 149.292911 58.785976 
L 152.967849 58.704251 
L 154.192828 58.876312 
L 159.092744 59.073606 
L 160.317723 58.862802 
L 163.992661 58.961855 
L 165.21764 58.793013 
L 166.442619 58.870081 
L 168.892577 58.712296 
L 172.567515 58.745904 
L 173.792494 58.725264 
L 176.242452 58.831145 
L 179.917389 58.900815 
L 183.592327 58.982267 
L 186.042285 58.739316 
L 199.517055 58.933444 
L 200.742034 58.85986 
L 203.191992 59.011759 
L 204.416972 58.934934 
L 208.091909 59.055155 
L 209.316888 58.915091 
L 212.991825 58.877392 
L 216.666763 59.132221 
L 219.116721 59.200818 
L 220.3417 58.972672 
L 231.366512 58.916833 
L 236.266429 58.579494 
L 239.941366 58.612591 
L 243.616303 58.685184 
L 247.291241 58.607101 
L 254.641115 58.580691 
L 255.866094 58.475804 
L 258.316053 58.52192 
L 264.440948 58.397769 
L 265.665927 58.414373 
L 266.890906 58.314408 
L 270.565844 58.2857 
L 273.015802 58.188367 
L 274.240781 58.01325 
L 275.46576 58.057966 
L 276.690739 57.93154 
L 284.040614 58.072068 
L 287.715551 57.96443 
L 290.16551 58.02607 
L 297.515384 57.857374 
L 299.965343 57.579211 
L 304.865259 57.465772 
L 307.315217 57.353652 
L 310.990155 57.336056 
L 312.215134 57.143129 
L 324.464925 57.002375 
L 326.914883 56.930161 
L 345.28957 56.979493 
L 357.539361 57.036579 
L 361.214298 57.124178 
L 366.114215 57.211892 
L 368.564173 57.155399 
L 372.23911 57.103567 
L 379.588985 57.280308 
L 388.163839 57.303861 
L 394.288734 57.457079 
L 407.763505 57.423517 
L 410.213463 57.447101 
L 413.8884 57.4457 
L 417.563338 57.511971 
L 418.788317 57.406882 
L 427.36317 57.439846 
L 431.038108 57.410384 
L 437.163003 57.472502 
L 443.287899 57.3475 
L 460.437607 57.476708 
L 462.887565 57.405254 
L 469.01246 57.462276 
L 472.687398 57.487855 
L 476.362335 57.366153 
L 481.262251 57.437347 
L 515.561667 57.423333 
L 515.561667 57.423333 
" clip-path="url(#pf16ebbb767)" style="fill: none; stroke: #4169e1; stroke-width: 1.5; stroke-linecap: square"/>
   </g>
   <g id="line2d_26">
    <path d="M 26.795 98.44 
L 28.019979 16.875036 
L 29.244958 13.803423 
L 30.469937 22.581207 
L 31.694916 32.613459 
L 32.919896 41.037006 
L 34.144875 34.009124 
L 35.369854 36.54501 
L 36.594833 36.353223 
L 37.819812 40.233447 
L 40.26977 44.602008 
L 41.494749 40.198487 
L 42.719728 39.428088 
L 43.944708 41.732662 
L 45.169687 43.760447 
L 47.619645 49.346526 
L 48.844624 49.620644 
L 50.069603 50.614743 
L 51.294582 52.85704 
L 52.519561 54.793228 
L 53.744541 55.644345 
L 54.96952 57.351052 
L 57.419478 59.875673 
L 58.644457 60.757933 
L 59.869436 61.914749 
L 61.094415 60.305617 
L 62.319394 61.109763 
L 63.544373 61.140413 
L 64.769353 62.077675 
L 65.994332 62.318417 
L 67.219311 63.283472 
L 68.44429 63.055033 
L 69.669269 63.385269 
L 70.894248 63.962043 
L 72.119227 64.702736 
L 73.344206 65.006828 
L 74.569185 64.551244 
L 75.794165 64.608954 
L 78.244123 65.596724 
L 79.469102 65.641355 
L 80.694081 64.350848 
L 81.91906 64.81197 
L 83.144039 65.061756 
L 85.593997 66.31274 
L 86.818977 66.818303 
L 88.043956 64.981393 
L 89.268935 65.621487 
L 90.493914 66.010346 
L 91.718893 66.596046 
L 92.943872 66.186336 
L 94.168851 65.574927 
L 96.61881 66.598714 
L 99.068768 66.937069 
L 103.968684 68.777876 
L 105.193663 68.932369 
L 106.418642 68.504235 
L 107.643622 68.614853 
L 108.868601 68.099611 
L 110.09358 67.732875 
L 111.318559 58.492791 
L 112.543538 58.340019 
L 113.768517 58.87186 
L 114.993496 59.281861 
L 116.218475 56.353688 
L 118.668434 57.388757 
L 119.893413 57.395882 
L 122.343371 58.175659 
L 124.793329 59.108054 
L 126.018308 59.146098 
L 127.243287 59.610099 
L 128.468266 59.627997 
L 129.693246 60.078042 
L 130.918225 60.026801 
L 132.143204 60.293221 
L 133.368183 59.57031 
L 134.593162 59.695856 
L 135.818141 59.433543 
L 139.493079 59.154305 
L 140.718058 59.570067 
L 141.943037 58.827655 
L 143.168016 58.920814 
L 146.842953 60.103846 
L 148.067932 60.361945 
L 149.292911 53.087261 
L 151.74287 53.875609 
L 152.967849 54.284989 
L 154.192828 53.838652 
L 157.867765 54.830425 
L 159.092744 54.752906 
L 160.317723 53.786317 
L 162.767682 54.359072 
L 163.992661 54.735633 
L 165.21764 54.212045 
L 166.442619 54.406001 
L 167.667598 54.226774 
L 171.342536 55.184405 
L 173.792494 55.778092 
L 175.017473 55.730438 
L 177.467431 56.315356 
L 183.592327 57.77526 
L 184.817306 57.446065 
L 186.042285 57.316139 
L 188.492243 57.782742 
L 193.39216 58.579613 
L 194.617139 58.527712 
L 195.842118 58.667959 
L 197.067097 58.637131 
L 200.742034 59.114635 
L 204.416972 59.22043 
L 208.091909 59.691902 
L 209.316888 59.127248 
L 212.991825 59.873801 
L 214.216805 59.55769 
L 215.441784 59.684681 
L 216.666763 59.605092 
L 217.891742 59.671605 
L 219.116721 59.916106 
L 220.3417 57.842945 
L 221.566679 58.096675 
L 222.791658 58.089648 
L 225.241617 58.516893 
L 226.466596 58.145017 
L 227.691575 58.063885 
L 230.141533 58.474028 
L 232.591491 57.783711 
L 233.81647 57.182033 
L 235.041449 57.409341 
L 236.266429 57.0166 
L 239.941366 57.640637 
L 242.391324 57.934612 
L 244.841282 58.275755 
L 252.191157 59.516646 
L 254.641115 59.706367 
L 255.866094 59.333194 
L 257.091074 59.278155 
L 259.541032 59.566732 
L 261.99099 59.509724 
L 263.215969 59.710254 
L 265.665927 59.97533 
L 266.890906 59.619132 
L 270.565844 60.111435 
L 271.790823 60.219472 
L 273.015802 60.21155 
L 274.240781 58.655822 
L 275.46576 58.736562 
L 276.690739 58.012216 
L 282.815635 58.637038 
L 287.715551 58.501613 
L 288.94053 58.490657 
L 291.390489 58.837571 
L 292.615468 58.823373 
L 295.065426 59.098081 
L 297.515384 58.787876 
L 298.740363 57.243125 
L 299.965343 56.637316 
L 301.190322 56.816993 
L 304.865259 57.035881 
L 306.090238 56.815853 
L 308.540196 57.102807 
L 310.990155 57.402645 
L 312.215134 55.136328 
L 315.890071 55.589364 
L 317.11505 55.598822 
L 318.340029 55.005782 
L 319.565008 55.121964 
L 320.789987 54.915739 
L 322.014967 55.065784 
L 323.239946 54.965105 
L 324.464925 55.135358 
L 325.689904 54.869793 
L 329.364841 55.373392 
L 330.58982 55.069985 
L 331.814799 55.024916 
L 333.039779 55.197636 
L 334.264758 55.202362 
L 336.714716 55.505329 
L 337.939695 55.362869 
L 341.614632 55.631334 
L 342.839612 55.593719 
L 346.514549 55.996501 
L 355.089403 56.992429 
L 358.76434 57.284047 
L 359.989319 57.425816 
L 361.214298 57.184784 
L 362.439277 57.152645 
L 366.114215 57.535858 
L 367.339194 57.144472 
L 375.914048 57.686192 
L 377.139027 57.491207 
L 378.364006 57.632401 
L 379.588985 57.612747 
L 382.038943 57.890094 
L 385.713881 57.948679 
L 386.93886 58.085935 
L 389.388818 57.917601 
L 390.613797 58.049311 
L 391.838776 57.801637 
L 393.063755 57.936292 
L 394.288734 57.920655 
L 396.738693 58.165335 
L 397.963672 58.079157 
L 399.188651 57.830017 
L 400.41363 57.921371 
L 401.638609 57.677904 
L 407.763505 58.242024 
L 408.988484 58.193147 
L 417.563338 58.753717 
L 418.788317 57.882379 
L 421.238275 58.096708 
L 422.463254 58.015103 
L 424.913212 58.240919 
L 426.138191 57.894863 
L 427.36317 58.01037 
L 432.263087 57.928741 
L 434.713045 58.040848 
L 440.837941 58.355064 
L 442.06292 57.249428 
L 446.962836 57.631216 
L 449.412794 57.601087 
L 450.637774 57.692297 
L 451.862753 57.593163 
L 455.53769 57.795974 
L 456.762669 57.354469 
L 459.212627 57.574178 
L 460.437607 57.378518 
L 461.662586 56.863824 
L 466.562502 57.195292 
L 470.237439 57.247178 
L 472.687398 57.429995 
L 473.912377 57.013583 
L 475.137356 57.126303 
L 477.587314 56.931832 
L 478.812293 56.909721 
L 480.037272 56.754349 
L 483.71221 57.04432 
L 487.387147 56.956594 
L 492.287063 57.275789 
L 493.512043 56.892711 
L 495.962001 57.103465 
L 499.636938 57.094915 
L 502.086896 57.116066 
L 503.311876 57.047517 
L 508.211792 57.398715 
L 509.436771 57.03453 
L 513.111708 57.285811 
L 515.561667 57.423333 
L 515.561667 57.423333 
" clip-path="url(#pf16ebbb767)" style="fill: none; stroke-dasharray: 5.55,2.4; stroke-dashoffset: 0; stroke: #4169e1; stroke-width: 1.5"/>
   </g>
   <g id="line2d_27">
    <path d="M 26.795 68.619402 
L 28.019979 54.843726 
L 29.244958 59.838685 
L 30.469937 57.271555 
L 32.919896 58.525756 
L 34.144875 61.034016 
L 35.369854 59.688622 
L 36.594833 61.284554 
L 37.819812 61.991249 
L 39.044791 62.851851 
L 40.26977 61.82203 
L 41.494749 60.522914 
L 42.719728 59.647328 
L 43.944708 60.15933 
L 46.394666 59.019889 
L 47.619645 59.06524 
L 48.844624 58.501311 
L 50.069603 58.936453 
L 51.294582 58.987841 
L 52.519561 58.851336 
L 53.744541 59.331423 
L 54.96952 59.42494 
L 57.419478 58.908546 
L 59.869436 59.219158 
L 61.094415 58.839903 
L 62.319394 59.10302 
L 63.544373 58.765108 
L 64.769353 58.621316 
L 65.994332 58.807142 
L 67.219311 58.715585 
L 68.44429 59.046062 
L 70.894248 59.399874 
L 73.344206 59.022946 
L 75.794165 59.606568 
L 78.244123 59.215428 
L 79.469102 59.396733 
L 80.694081 59.134645 
L 81.91906 59.063985 
L 83.144039 59.279604 
L 84.369018 59.220202 
L 86.818977 59.480726 
L 88.043956 59.212921 
L 91.718893 59.109982 
L 92.943872 59.288807 
L 94.168851 59.06969 
L 103.968684 59.303898 
L 106.418642 58.901832 
L 107.643622 58.94486 
L 108.868601 58.791315 
L 110.09358 58.987323 
L 111.318559 58.527963 
L 112.543538 58.65127 
L 113.768517 58.595735 
L 114.993496 58.655552 
L 116.218475 58.38989 
L 119.893413 58.532406 
L 122.343371 58.588949 
L 124.793329 58.527879 
L 127.243287 58.719454 
L 134.593162 58.315122 
L 135.818141 58.439793 
L 137.04312 58.391281 
L 143.168016 58.834353 
L 148.067932 58.852951 
L 149.292911 58.503366 
L 152.967849 58.482422 
L 155.417807 58.685504 
L 159.092744 58.743781 
L 160.317723 58.566337 
L 163.992661 58.679971 
L 165.21764 58.60263 
L 166.442619 58.660585 
L 168.892577 58.57319 
L 183.592327 58.686924 
L 186.042285 58.491907 
L 190.942201 58.641563 
L 192.16718 58.574504 
L 194.617139 58.734324 
L 198.292076 58.737037 
L 215.441784 58.785432 
L 217.891742 58.888032 
L 224.016637 58.800089 
L 225.241617 58.822311 
L 226.466596 58.731502 
L 228.916554 58.817155 
L 231.366512 58.769723 
L 238.716387 58.500414 
L 243.616303 58.608393 
L 249.741199 58.498324 
L 259.541032 58.364092 
L 263.215969 58.264921 
L 265.665927 58.327908 
L 271.790823 58.186227 
L 280.365677 58.000764 
L 297.515384 57.8688 
L 299.965343 57.670422 
L 310.990155 57.518645 
L 312.215134 57.359819 
L 322.014967 57.311618 
L 325.689904 57.20628 
L 330.58982 57.271133 
L 334.264758 57.285003 
L 362.439277 57.33363 
L 368.564173 57.317433 
L 372.23911 57.255583 
L 380.813964 57.379946 
L 400.41363 57.495228 
L 402.863588 57.417354 
L 412.663421 57.458039 
L 454.312711 57.4316 
L 460.437607 57.451916 
L 464.112544 57.387776 
L 473.912377 57.394826 
L 515.561667 57.423333 
L 515.561667 57.423333 
" clip-path="url(#pf16ebbb767)" style="fill: none; stroke: #ff8c00; stroke-width: 1.5; stroke-linecap: square"/>
   </g>
   <g id="line2d_28">
    <path d="M 26.795 98.44 
L 28.019979 7.427502 
L 29.244958 13.83355 
L 30.469937 25.503333 
L 31.694916 39.330359 
L 32.919896 48.246289 
L 34.144875 37.31294 
L 35.369854 38.877058 
L 36.594833 35.722927 
L 37.819812 39.838965 
L 39.044791 41.614275 
L 40.26977 40.754865 
L 41.494749 35.479194 
L 42.719728 35.196533 
L 43.944708 37.652627 
L 45.169687 38.719154 
L 46.394666 40.132297 
L 47.619645 43.354846 
L 48.844624 43.508724 
L 50.069603 44.529888 
L 51.294582 47.071706 
L 52.519561 49.218961 
L 53.744541 48.927151 
L 54.96952 50.893719 
L 56.194499 52.174171 
L 57.419478 52.986267 
L 58.644457 54.205137 
L 59.869436 55.605912 
L 61.094415 55.151444 
L 62.319394 55.631518 
L 63.544373 55.369562 
L 64.769353 56.408112 
L 65.994332 57.151852 
L 67.219311 58.233541 
L 68.44429 57.601409 
L 69.669269 58.292636 
L 72.119227 59.242587 
L 73.344206 59.509562 
L 74.569185 58.657829 
L 75.794165 58.216556 
L 77.019144 58.164698 
L 78.244123 58.55591 
L 79.469102 58.784475 
L 80.694081 58.216202 
L 81.91906 58.982877 
L 83.144039 58.79672 
L 84.369018 59.543083 
L 86.818977 60.317364 
L 88.043956 59.345047 
L 91.718893 61.421529 
L 92.943872 61.266415 
L 94.168851 60.663781 
L 96.61881 61.869087 
L 97.843789 62.373117 
L 99.068768 62.656004 
L 100.293747 63.213094 
L 101.518726 63.631173 
L 103.968684 64.712307 
L 105.193663 64.365425 
L 106.418642 63.173018 
L 107.643622 63.640786 
L 108.868601 63.394972 
L 110.09358 62.649934 
L 111.318559 56.178409 
L 112.543538 56.263196 
L 114.993496 57.191593 
L 116.218475 55.278097 
L 118.668434 56.404784 
L 119.893413 56.427355 
L 123.56835 57.815871 
L 124.793329 58.311169 
L 126.018308 58.365348 
L 128.468266 58.845406 
L 129.693246 59.281742 
L 130.918225 59.520298 
L 132.143204 59.967395 
L 133.368183 59.61115 
L 134.593162 59.665261 
L 135.818141 59.43266 
L 137.04312 59.759727 
L 138.268099 59.766848 
L 139.493079 59.447256 
L 140.718058 59.808459 
L 141.943037 58.780433 
L 143.168016 58.951218 
L 148.067932 60.465571 
L 149.292911 54.980441 
L 152.967849 56.093763 
L 154.192828 55.643982 
L 155.417807 55.784469 
L 157.867765 56.346922 
L 159.092744 56.438037 
L 160.317723 55.173903 
L 161.542703 55.284548 
L 165.21764 55.980365 
L 168.892577 56.615034 
L 173.792494 57.843431 
L 175.017473 57.795711 
L 177.467431 58.353282 
L 182.367348 59.316783 
L 183.592327 59.61966 
L 184.817306 59.20597 
L 186.042285 59.025754 
L 187.267264 59.224213 
L 189.717222 59.451282 
L 190.942201 59.738959 
L 192.16718 59.732374 
L 194.617139 59.460355 
L 195.842118 59.670766 
L 197.067097 59.628956 
L 200.742034 60.126491 
L 201.967013 60.048165 
L 204.416972 60.391498 
L 206.86693 60.819745 
L 208.091909 60.781759 
L 209.316888 60.540641 
L 212.991825 61.191944 
L 214.216805 60.802033 
L 215.441784 60.995831 
L 216.666763 60.866417 
L 219.116721 61.195781 
L 220.3417 60.202316 
L 221.566679 60.376922 
L 222.791658 60.346967 
L 225.241617 60.750523 
L 226.466596 60.335689 
L 227.691575 60.096942 
L 230.141533 60.542624 
L 232.591491 60.424585 
L 233.81647 59.90134 
L 235.041449 60.11731 
L 236.266429 59.311934 
L 238.716387 59.754033 
L 242.391324 60.070164 
L 243.616303 60.282688 
L 246.066261 60.454969 
L 252.191157 61.360954 
L 253.416136 61.081061 
L 254.641115 61.132317 
L 255.866094 60.723042 
L 257.091074 60.739237 
L 259.541032 61.000889 
L 261.99099 60.954878 
L 263.215969 61.147791 
L 264.440948 61.11343 
L 265.665927 61.286203 
L 266.890906 61.24432 
L 270.565844 61.704117 
L 273.015802 61.774113 
L 274.240781 60.83952 
L 275.46576 60.927275 
L 276.690739 60.530639 
L 282.815635 61.299008 
L 284.040614 61.04286 
L 285.265593 60.570229 
L 286.490572 60.245556 
L 288.94053 60.330812 
L 291.390489 60.623785 
L 292.615468 60.285784 
L 293.840447 60.305539 
L 295.065426 60.470525 
L 296.290405 60.293824 
L 297.515384 60.284128 
L 298.740363 58.765936 
L 299.965343 58.382199 
L 302.415301 58.558774 
L 303.64028 58.520373 
L 304.865259 58.685951 
L 307.315217 58.784965 
L 310.990155 59.269875 
L 312.215134 56.618405 
L 314.665092 56.893556 
L 317.11505 57.073614 
L 318.340029 56.537826 
L 319.565008 56.712403 
L 320.789987 56.529692 
L 322.014967 56.661132 
L 323.239946 56.370317 
L 324.464925 56.532411 
L 325.689904 56.391806 
L 329.364841 56.883062 
L 330.58982 56.58104 
L 331.814799 56.570717 
L 336.714716 57.171094 
L 337.939695 57.035329 
L 339.164674 57.173633 
L 340.389653 57.194922 
L 341.614632 57.354374 
L 344.064591 57.338009 
L 348.964507 57.870916 
L 356.314382 58.593436 
L 358.76434 58.783769 
L 359.989319 58.927502 
L 361.214298 58.596611 
L 362.439277 58.545127 
L 366.114215 58.921484 
L 367.339194 58.43336 
L 368.564173 58.500657 
L 369.789152 58.416206 
L 375.914048 58.619864 
L 377.139027 58.415568 
L 378.364006 58.554338 
L 379.588985 58.558517 
L 383.263922 58.865959 
L 384.488901 58.848064 
L 386.93886 59.085306 
L 390.613797 59.085601 
L 391.838776 58.761928 
L 394.288734 58.922315 
L 397.963672 58.918677 
L 399.188651 58.427357 
L 400.41363 58.532587 
L 401.638609 58.056208 
L 407.763505 58.571847 
L 410.213463 58.602502 
L 415.113379 58.916785 
L 417.563338 59.114338 
L 418.788317 58.301796 
L 421.238275 58.487389 
L 422.463254 58.382894 
L 424.913212 58.586184 
L 426.138191 58.016332 
L 427.36317 58.138603 
L 428.58815 58.100994 
L 429.813129 57.842642 
L 431.038108 57.761315 
L 437.163003 58.180597 
L 438.387982 57.931566 
L 440.837941 58.126504 
L 442.06292 57.139884 
L 446.962836 57.509456 
L 449.412794 57.487412 
L 450.637774 57.580943 
L 451.862753 57.472764 
L 459.212627 57.81406 
L 460.437607 57.585287 
L 461.662586 57.212539 
L 466.562502 57.574667 
L 469.01246 57.563256 
L 471.462419 57.717575 
L 472.687398 57.806805 
L 473.912377 57.393957 
L 475.137356 57.505799 
L 478.812293 57.384642 
L 480.037272 57.248977 
L 483.71221 57.504999 
L 484.937189 57.484733 
L 486.162168 57.251287 
L 488.612126 57.420362 
L 489.837105 57.254144 
L 492.287063 57.444893 
L 493.512043 57.096348 
L 497.18698 57.306365 
L 499.636938 57.259065 
L 502.086896 57.263309 
L 503.311876 57.14967 
L 508.211792 57.528615 
L 509.436771 57.116037 
L 511.886729 57.28636 
L 514.336688 57.335499 
L 515.561667 57.423333 
L 515.561667 57.423333 
" clip-path="url(#pf16ebbb767)" style="fill: none; stroke-dasharray: 5.55,2.4; stroke-dashoffset: 0; stroke: #ff8c00; stroke-width: 1.5"/>
   </g>
   <g id="patch_3">
    <path d="M 26.795 98.44 
L 26.795 0 
" style="fill: none; stroke: #000000; stroke-width: 0.8; stroke-linejoin: miter; stroke-linecap: square"/>
   </g>
   <g id="patch_4">
    <path d="M 540 98.44 
L 540 0 
" style="fill: none; stroke: #000000; stroke-width: 0.8; stroke-linejoin: miter; stroke-linecap: square"/>
   </g>
   <g id="patch_5">
    <path d="M 26.795 98.44 
L 540 98.44 
" style="fill: none; stroke: #000000; stroke-width: 0.8; stroke-linejoin: miter; stroke-linecap: square"/>
   </g>
   <g id="patch_6">
    <path d="M 26.795 0 
L 540 0 
" style="fill: none; stroke: #000000; stroke-width: 0.8; stroke-linejoin: miter; stroke-linecap: square"/>
   </g>
  </g>
 </g>
 <defs>
  <clipPath id="pf16ebbb767">
   <rect x="26.795" y="0" width="513.205" height="98.44"/>
  </clipPath>
 </defs>
</svg>
