<?xml version="1.0" encoding="utf-8" standalone="no"?>
<!DOCTYPE svg PUBLIC "-//W3C//DTD SVG 1.1//EN"
  "http://www.w3.org/Graphics/SVG/1.1/DTD/svg11.dtd">
<svg xmlns:xlink="http://www.w3.org/1999/xlink" width="540pt" height="129.6pt" viewBox="0 0 540 129.6" xmlns="http://www.w3.org/2000/svg" version="1.1">
 <metadata>
  <rdf:RDF xmlns:dc="http://purl.org/dc/elements/1.1/" xmlns:cc="http://creativecommons.org/ns#" xmlns:rdf="http://www.w3.org/1999/02/22-rdf-syntax-ns#">
   <cc:Work>
    <dc:type rdf:resource="http://purl.org/dc/dcmitype/StillImage"/>
    <dc:date>2025-03-30T20:35:16.162169</dc:date>
    <dc:format>image/svg+xml</dc:format>
    <dc:creator>
     <cc:Agent>
      <dc:title>Matplotlib v3.10.1, https://matplotlib.org/</dc:title>
     </cc:Agent>
    </dc:creator>
   </cc:Work>
  </rdf:RDF>
 </metadata>
 <defs>
  <style type="text/css">*{stroke-linejoin: round; stroke-linecap: butt}</style>
 </defs>
 <g id="figure_1">
  <g id="patch_1">
   <path d="M 0 129.6 
L 540 129.6 
L 540 0 
L 0 0 
z
" style="fill: #ffffff"/>
  </g>
  <g id="axes_1">
   <g id="patch_2">
    <path d="M 35.03 97 
L 540 97 
L 540 0 
L 35.03 0 
z
" style="fill: #ffffff"/>
   </g>
   <g id="matplotlib.axis_1">
    <g id="xtick_1">
     <g id="line2d_1">
      <path d="M 35.03 97 
L 35.03 0 
" clip-path="url(#p17b39d2ad0)" style="fill: none; stroke: #b0b0b0; stroke-width: 0.8; stroke-linecap: square"/>
     </g>
     <g id="line2d_2">
      <defs>
       <path id="m62fd56aa9f" d="M 0 0 
L 0 3.5 
" style="stroke: #000000; stroke-width: 0.8"/>
      </defs>
      <g>
       <use xlink:href="#m62fd56aa9f" x="35.03" y="97" style="stroke: #000000; stroke-width: 0.8"/>
      </g>
     </g>
     <g id="text_1">
      <text style="font-size: 10px; font-family: 'Times New Roman'; text-anchor: middle" x="35.03" y="110.94375" transform="rotate(-0 35.03 110.94375)">0</text>
     </g>
    </g>
    <g id="xtick_2">
     <g id="line2d_3">
      <path d="M 95.296142 97 
L 95.296142 0 
" clip-path="url(#p17b39d2ad0)" style="fill: none; stroke: #b0b0b0; stroke-width: 0.8; stroke-linecap: square"/>
     </g>
     <g id="line2d_4">
      <g>
       <use xlink:href="#m62fd56aa9f" x="95.296142" y="97" style="stroke: #000000; stroke-width: 0.8"/>
      </g>
     </g>
     <g id="text_2">
      <text style="font-size: 10px; font-family: 'Times New Roman'; text-anchor: middle" x="95.296142" y="110.94375" transform="rotate(-0 95.296142 110.94375)">50</text>
     </g>
    </g>
    <g id="xtick_3">
     <g id="line2d_5">
      <path d="M 155.562283 97 
L 155.562283 0 
" clip-path="url(#p17b39d2ad0)" style="fill: none; stroke: #b0b0b0; stroke-width: 0.8; stroke-linecap: square"/>
     </g>
     <g id="line2d_6">
      <g>
       <use xlink:href="#m62fd56aa9f" x="155.562283" y="97" style="stroke: #000000; stroke-width: 0.8"/>
      </g>
     </g>
     <g id="text_3">
      <text style="font-size: 10px; font-family: 'Times New Roman'; text-anchor: middle" x="155.562283" y="110.94375" transform="rotate(-0 155.562283 110.94375)">100</text>
     </g>
    </g>
    <g id="xtick_4">
     <g id="line2d_7">
      <path d="M 215.828425 97 
L 215.828425 0 
" clip-path="url(#p17b39d2ad0)" style="fill: none; stroke: #b0b0b0; stroke-width: 0.8; stroke-linecap: square"/>
     </g>
     <g id="line2d_8">
      <g>
       <use xlink:href="#m62fd56aa9f" x="215.828425" y="97" style="stroke: #000000; stroke-width: 0.8"/>
      </g>
     </g>
     <g id="text_4">
      <text style="font-size: 10px; font-family: 'Times New Roman'; text-anchor: middle" x="215.828425" y="110.94375" transform="rotate(-0 215.828425 110.94375)">150</text>
     </g>
    </g>
    <g id="xtick_5">
     <g id="line2d_9">
      <path d="M 276.094566 97 
L 276.094566 0 
" clip-path="url(#p17b39d2ad0)" style="fill: none; stroke: #b0b0b0; stroke-width: 0.8; stroke-linecap: square"/>
     </g>
     <g id="line2d_10">
      <g>
       <use xlink:href="#m62fd56aa9f" x="276.094566" y="97" style="stroke: #000000; stroke-width: 0.8"/>
      </g>
     </g>
     <g id="text_5">
      <text style="font-size: 10px; font-family: 'Times New Roman'; text-anchor: middle" x="276.094566" y="110.94375" transform="rotate(-0 276.094566 110.94375)">200</text>
     </g>
    </g>
    <g id="xtick_6">
     <g id="line2d_11">
      <path d="M 336.360708 97 
L 336.360708 0 
" clip-path="url(#p17b39d2ad0)" style="fill: none; stroke: #b0b0b0; stroke-width: 0.8; stroke-linecap: square"/>
     </g>
     <g id="line2d_12">
      <g>
       <use xlink:href="#m62fd56aa9f" x="336.360708" y="97" style="stroke: #000000; stroke-width: 0.8"/>
      </g>
     </g>
     <g id="text_6">
      <text style="font-size: 10px; font-family: 'Times New Roman'; text-anchor: middle" x="336.360708" y="110.94375" transform="rotate(-0 336.360708 110.94375)">250</text>
     </g>
    </g>
    <g id="xtick_7">
     <g id="line2d_13">
      <path d="M 396.626849 97 
L 396.626849 0 
" clip-path="url(#p17b39d2ad0)" style="fill: none; stroke: #b0b0b0; stroke-width: 0.8; stroke-linecap: square"/>
     </g>
     <g id="line2d_14">
      <g>
       <use xlink:href="#m62fd56aa9f" x="396.626849" y="97" style="stroke: #000000; stroke-width: 0.8"/>
      </g>
     </g>
     <g id="text_7">
      <text style="font-size: 10px; font-family: 'Times New Roman'; text-anchor: middle" x="396.626849" y="110.94375" transform="rotate(-0 396.626849 110.94375)">300</text>
     </g>
    </g>
    <g id="xtick_8">
     <g id="line2d_15">
      <path d="M 456.892991 97 
L 456.892991 0 
" clip-path="url(#p17b39d2ad0)" style="fill: none; stroke: #b0b0b0; stroke-width: 0.8; stroke-linecap: square"/>
     </g>
     <g id="line2d_16">
      <g>
       <use xlink:href="#m62fd56aa9f" x="456.892991" y="97" style="stroke: #000000; stroke-width: 0.8"/>
      </g>
     </g>
     <g id="text_8">
      <text style="font-size: 10px; font-family: 'Times New Roman'; text-anchor: middle" x="456.892991" y="110.94375" transform="rotate(-0 456.892991 110.94375)">350</text>
     </g>
    </g>
    <g id="xtick_9">
     <g id="line2d_17">
      <path d="M 517.159132 97 
L 517.159132 0 
" clip-path="url(#p17b39d2ad0)" style="fill: none; stroke: #b0b0b0; stroke-width: 0.8; stroke-linecap: square"/>
     </g>
     <g id="line2d_18">
      <g>
       <use xlink:href="#m62fd56aa9f" x="517.159132" y="97" style="stroke: #000000; stroke-width: 0.8"/>
      </g>
     </g>
     <g id="text_9">
      <text style="font-size: 10px; font-family: 'Times New Roman'; text-anchor: middle" x="517.159132" y="110.94375" transform="rotate(-0 517.159132 110.94375)">400</text>
     </g>
    </g>
    <g id="text_10">
     <text style="font-size: 12px; font-family: 'Times New Roman'; text-anchor: middle" x="287.515" y="125.415312" transform="rotate(-0 287.515 125.415312)">Simulation Run</text>
    </g>
   </g>
   <g id="matplotlib.axis_2">
    <g id="ytick_1">
     <g id="line2d_19">
      <path d="M 35.03 97 
L 540 97 
" clip-path="url(#p17b39d2ad0)" style="fill: none; stroke: #b0b0b0; stroke-width: 0.8; stroke-linecap: square"/>
     </g>
     <g id="line2d_20">
      <defs>
       <path id="m11d1358a4e" d="M 0 0 
L -3.5 0 
" style="stroke: #000000; stroke-width: 0.8"/>
      </defs>
      <g>
       <use xlink:href="#m11d1358a4e" x="35.03" y="97" style="stroke: #000000; stroke-width: 0.8"/>
      </g>
     </g>
     <g id="text_11">
      <text style="font-size: 10px; font-family: 'Times New Roman'; text-anchor: end" x="28.03" y="100.471875" transform="rotate(-0 28.03 100.471875)">0.0</text>
     </g>
    </g>
    <g id="ytick_2">
     <g id="line2d_21">
      <path d="M 35.03 62.357143 
L 540 62.357143 
" clip-path="url(#p17b39d2ad0)" style="fill: none; stroke: #b0b0b0; stroke-width: 0.8; stroke-linecap: square"/>
     </g>
     <g id="line2d_22">
      <g>
       <use xlink:href="#m11d1358a4e" x="35.03" y="62.357143" style="stroke: #000000; stroke-width: 0.8"/>
      </g>
     </g>
     <g id="text_12">
      <text style="font-size: 10px; font-family: 'Times New Roman'; text-anchor: end" x="28.03" y="65.829018" transform="rotate(-0 28.03 65.829018)">0.5</text>
     </g>
    </g>
    <g id="ytick_3">
     <g id="line2d_23">
      <path d="M 35.03 27.714286 
L 540 27.714286 
" clip-path="url(#p17b39d2ad0)" style="fill: none; stroke: #b0b0b0; stroke-width: 0.8; stroke-linecap: square"/>
     </g>
     <g id="line2d_24">
      <g>
       <use xlink:href="#m11d1358a4e" x="35.03" y="27.714286" style="stroke: #000000; stroke-width: 0.8"/>
      </g>
     </g>
     <g id="text_13">
      <text style="font-size: 10px; font-family: 'Times New Roman'; text-anchor: end" x="28.03" y="31.186161" transform="rotate(-0 28.03 31.186161)">1.0</text>
     </g>
    </g>
    <g id="text_14">
     <text style="font-size: 12px; font-family: 'Times New Roman'; text-anchor: middle" x="8.963125" y="48.5" transform="rotate(-90 8.963125 48.5)">Normalized Value</text>
    </g>
   </g>
   <g id="line2d_25">
    <path d="M 35.03 50.135975 
L 36.235323 34.475971 
L 37.440646 34.690676 
L 38.645968 27.006953 
L 39.851291 30.318854 
L 41.056614 30.951784 
L 42.261937 32.143091 
L 43.46726 26.614013 
L 44.672583 26.85537 
L 45.877905 25.736183 
L 47.083228 26.566312 
L 50.699197 19.993246 
L 53.109842 22.349501 
L 55.520488 25.35249 
L 56.725811 26.73623 
L 57.931134 26.958822 
L 59.136457 28.014953 
L 60.341779 26.237881 
L 61.547102 26.54651 
L 62.752425 26.255834 
L 63.957748 26.943462 
L 66.368394 26.31826 
L 67.573716 25.654488 
L 68.779039 26.816069 
L 71.189685 25.848367 
L 72.395008 25.770878 
L 73.600331 26.417989 
L 74.805653 25.711773 
L 76.010976 26.146986 
L 77.216299 25.501807 
L 78.421622 25.08963 
L 79.626945 26.237241 
L 80.832268 26.283231 
L 82.03759 26.898736 
L 83.242913 27.243863 
L 84.448236 26.671149 
L 85.653559 26.392037 
L 86.858882 25.958981 
L 88.064205 26.022358 
L 89.269527 26.92503 
L 90.47485 25.659273 
L 92.885496 26.707672 
L 94.090819 26.820088 
L 95.296142 26.123763 
L 96.501464 26.399051 
L 97.706787 26.189953 
L 98.91211 26.282997 
L 100.117433 26.115251 
L 101.322756 26.159114 
L 103.733401 26.934089 
L 104.938724 26.57206 
L 106.144047 26.6808 
L 109.760016 26.689313 
L 110.965338 27.026062 
L 112.170661 26.816326 
L 113.375984 27.221156 
L 114.581307 26.860392 
L 116.991953 26.845376 
L 118.197275 27.109708 
L 120.607921 27.137838 
L 124.223889 27.57326 
L 126.634535 27.777144 
L 127.839858 27.688559 
L 129.045181 27.734681 
L 130.250504 28.011712 
L 131.455826 27.963606 
L 132.661149 28.249287 
L 133.866472 28.417094 
L 135.071795 28.264144 
L 136.277118 27.534007 
L 138.687763 27.606769 
L 139.893086 27.682248 
L 141.098409 27.981342 
L 142.303732 28.154767 
L 143.509055 28.489165 
L 144.714378 28.588462 
L 145.9197 28.107755 
L 147.125023 27.928295 
L 148.330346 28.05448 
L 149.535669 27.276118 
L 150.740992 26.947206 
L 151.946315 27.19046 
L 153.151637 27.099525 
L 154.35696 27.312115 
L 155.562283 26.851799 
L 156.767606 27.05184 
L 157.972929 27.44498 
L 160.383574 27.375768 
L 161.588897 27.054568 
L 162.79422 27.110941 
L 165.204866 27.433937 
L 166.410189 27.383098 
L 168.820834 27.68226 
L 170.026157 27.463256 
L 171.23148 27.58348 
L 172.436803 27.436982 
L 174.847448 26.995481 
L 182.079385 27.730858 
L 183.284708 27.723152 
L 188.106 28.141797 
L 189.311322 28.064761 
L 191.721968 27.615661 
L 195.337937 27.878618 
L 196.543259 27.496551 
L 198.953905 27.803037 
L 200.159228 27.653894 
L 201.364551 27.682302 
L 202.569873 27.17912 
L 212.212456 26.909464 
L 213.417779 27.175653 
L 214.623102 26.954242 
L 219.444393 27.023526 
L 221.855039 26.886271 
L 223.060362 27.089168 
L 224.265684 27.02258 
L 229.086976 27.217005 
L 230.292299 27.002891 
L 231.497621 27.029293 
L 232.702944 27.257447 
L 235.11359 27.127792 
L 237.524236 27.128802 
L 241.140204 27.106506 
L 242.345527 27.249068 
L 244.756173 27.159462 
L 249.577464 27.357057 
L 253.193432 27.106189 
L 254.398755 27.176984 
L 255.604078 26.906654 
L 256.809401 27.069804 
L 260.425369 27.2371 
L 262.836015 27.496831 
L 271.273275 27.631259 
L 272.478598 27.807493 
L 273.683921 27.761746 
L 274.889243 27.595377 
L 279.710535 27.810563 
L 283.326503 27.429453 
L 292.969086 27.868041 
L 295.379731 27.846976 
L 297.790377 27.820519 
L 298.9957 27.663773 
L 300.201023 27.651255 
L 301.406346 27.519969 
L 309.843605 27.717004 
L 312.254251 27.89632 
L 319.486188 27.930442 
L 320.691511 28.007389 
L 324.307479 27.748539 
L 325.512802 27.609485 
L 326.718125 27.760327 
L 337.566031 27.705958 
L 339.976676 27.690177 
L 341.181999 27.838625 
L 344.797968 27.710847 
L 346.00329 27.585341 
L 359.261842 27.488865 
L 361.672487 27.703786 
L 364.083133 27.872174 
L 365.288456 28.014254 
L 371.31507 28.05636 
L 372.520393 28.109325 
L 373.725715 28.04503 
L 377.341684 28.330209 
L 385.778944 28.250433 
L 391.805558 28.346169 
L 394.216204 28.445862 
L 400.242818 28.288671 
L 405.064109 28.293434 
L 407.474755 28.107723 
L 411.090723 28.247833 
L 418.32266 27.953604 
L 420.733306 27.918436 
L 421.938629 27.862722 
L 423.143952 27.937116 
L 425.554597 27.865527 
L 431.581211 27.954759 
L 435.19718 27.858642 
L 437.607826 27.893697 
L 446.045085 28.023415 
L 448.455731 27.849982 
L 461.714282 27.913152 
L 471.356865 27.752337 
L 489.436707 27.940294 
L 494.257999 27.782905 
L 499.07929 27.906912 
L 502.695258 27.809706 
L 507.51655 27.911054 
L 509.927195 27.642299 
L 515.95381 27.714286 
L 515.95381 27.714286 
" clip-path="url(#p17b39d2ad0)" style="fill: none; stroke: #4169e1; stroke-width: 1.5; stroke-linecap: square"/>
   </g>
   <g id="line2d_26">
    <path d="M 35.03 97 
L 36.235323 57.073413 
L 37.440646 70.367265 
L 38.645968 48.188909 
L 39.851291 50.807921 
L 41.056614 58.180494 
L 42.261937 62.339774 
L 43.46726 31.831998 
L 44.672583 38.997014 
L 47.083228 46.752546 
L 48.288551 42.330843 
L 50.699197 31.30126 
L 51.90452 32.475617 
L 53.109842 33.163332 
L 54.315165 30.578878 
L 56.725811 26.499726 
L 57.931134 29.871473 
L 59.136457 29.436082 
L 60.341779 21.710059 
L 62.752425 27.340873 
L 63.957748 28.279687 
L 65.163071 30.617935 
L 66.368394 32.553437 
L 67.573716 32.918319 
L 68.779039 28.977174 
L 69.984362 29.950971 
L 71.189685 31.149841 
L 72.395008 33.177352 
L 73.600331 32.929718 
L 74.805653 32.134553 
L 76.010976 32.939369 
L 77.216299 32.346878 
L 78.421622 33.098512 
L 79.626945 26.846545 
L 80.832268 28.632266 
L 82.03759 27.935952 
L 83.242913 28.84474 
L 84.448236 28.278023 
L 85.653559 29.343505 
L 86.858882 29.568245 
L 88.064205 31.037955 
L 89.269527 26.502234 
L 90.47485 16.003408 
L 91.680173 15.860176 
L 92.885496 15.071672 
L 94.090819 16.609422 
L 95.296142 14.238664 
L 96.501464 15.20098 
L 97.706787 16.374204 
L 98.91211 17.792572 
L 100.117433 18.985319 
L 101.322756 20.361209 
L 102.528079 20.45796 
L 103.733401 20.255257 
L 104.938724 20.318376 
L 109.760016 24.995954 
L 110.965338 24.95788 
L 112.170661 25.60786 
L 113.375984 24.955202 
L 114.581307 24.631978 
L 116.991953 26.68324 
L 118.197275 26.902841 
L 120.607921 28.805895 
L 121.813244 29.380395 
L 123.018567 29.497126 
L 125.429212 31.183643 
L 127.839858 32.602492 
L 129.045181 33.390636 
L 130.250504 33.198651 
L 131.455826 33.95618 
L 132.661149 33.648721 
L 135.071795 34.469508 
L 136.277118 27.914507 
L 139.893086 30.080581 
L 141.098409 29.550819 
L 142.303732 29.864449 
L 143.509055 28.963696 
L 144.714378 29.557141 
L 145.9197 26.821127 
L 147.125023 27.080078 
L 148.330346 27.572397 
L 149.535669 18.925049 
L 150.740992 18.039073 
L 151.946315 17.910313 
L 153.151637 18.577262 
L 154.35696 18.633039 
L 155.562283 15.959174 
L 156.767606 16.095673 
L 157.972929 14.314462 
L 160.383574 15.845648 
L 161.588897 14.847574 
L 162.79422 15.56051 
L 163.999543 15.599272 
L 165.204866 16.091341 
L 166.410189 16.781008 
L 167.615511 17.015719 
L 168.820834 17.404921 
L 170.026157 17.234717 
L 171.23148 17.668498 
L 172.436803 17.960005 
L 173.642126 17.26531 
L 174.847448 17.398439 
L 176.052771 17.736457 
L 177.258094 17.47285 
L 178.463417 18.100052 
L 180.874063 18.984308 
L 182.079385 19.249825 
L 183.284708 19.875653 
L 184.490031 20.271129 
L 186.900677 21.33032 
L 188.106 21.150429 
L 189.311322 21.614738 
L 190.516645 20.966438 
L 191.721968 20.637516 
L 194.132614 21.370915 
L 195.337937 21.841654 
L 196.543259 19.213723 
L 197.748582 19.537908 
L 198.953905 19.214885 
L 200.159228 19.282407 
L 201.364551 19.823395 
L 202.569873 14.644823 
L 207.391165 16.79993 
L 209.80181 17.843325 
L 212.212456 18.373776 
L 213.417779 17.19413 
L 214.623102 16.536943 
L 219.444393 18.462527 
L 221.855039 19.231094 
L 223.060362 18.680857 
L 226.67633 19.924889 
L 227.881653 20.022005 
L 229.086976 20.486667 
L 230.292299 19.746916 
L 231.497621 20.199474 
L 232.702944 19.275044 
L 233.908267 19.465874 
L 238.729558 21.167946 
L 241.140204 21.753542 
L 242.345527 21.619355 
L 244.756173 22.348524 
L 245.961495 22.708745 
L 247.166818 22.872457 
L 249.577464 23.6515 
L 250.782787 23.73785 
L 251.98811 24.090253 
L 253.193432 24.174424 
L 254.398755 24.423871 
L 255.604078 22.641008 
L 256.809401 22.245555 
L 258.014724 22.6231 
L 259.220047 22.67017 
L 260.425369 23.035817 
L 261.630692 22.850131 
L 262.836015 22.779182 
L 264.041338 23.153508 
L 265.246661 23.381135 
L 266.451984 23.33692 
L 267.657306 23.627751 
L 268.862629 23.525493 
L 271.273275 24.048755 
L 272.478598 23.421057 
L 273.683921 23.723338 
L 274.889243 23.192957 
L 278.505212 23.840321 
L 279.710535 24.127271 
L 282.12118 23.410172 
L 283.326503 23.504651 
L 285.737149 23.972219 
L 286.942472 24.079375 
L 288.147794 24.424569 
L 290.55844 24.245486 
L 292.969086 24.824952 
L 295.379731 25.273624 
L 297.790377 25.902061 
L 298.9957 25.349211 
L 300.201023 25.66781 
L 301.406346 25.368956 
L 302.611668 25.673167 
L 303.816991 25.534129 
L 306.227637 26.093832 
L 309.843605 26.897142 
L 312.254251 26.901712 
L 314.664897 27.434603 
L 315.87022 26.990142 
L 317.075542 26.915131 
L 319.486188 27.45939 
L 321.896834 27.623327 
L 323.102157 26.822011 
L 324.307479 27.095416 
L 325.512802 26.625595 
L 326.718125 26.018734 
L 329.128771 26.52659 
L 332.744739 27.215792 
L 333.950062 27.492005 
L 335.155385 27.519773 
L 336.360708 27.769798 
L 337.566031 27.582945 
L 339.976676 27.914167 
L 341.181999 27.273799 
L 343.592645 27.767851 
L 344.797968 27.050513 
L 346.00329 26.658942 
L 348.413936 27.153917 
L 354.44055 27.995538 
L 355.645873 26.934041 
L 356.851196 26.92882 
L 359.261842 27.280404 
L 360.467164 26.569852 
L 362.87781 26.708654 
L 364.083133 26.482726 
L 365.288456 25.838636 
L 366.493778 26.093809 
L 370.109747 26.380909 
L 371.31507 26.632972 
L 373.725715 26.815482 
L 374.931038 26.483267 
L 376.136361 26.007564 
L 378.547007 26.369795 
L 380.957652 26.824952 
L 382.162975 25.613514 
L 383.368298 25.642035 
L 386.984267 26.25887 
L 389.394912 26.554277 
L 391.805558 27.014228 
L 393.010881 26.981739 
L 396.626849 27.546273 
L 399.037495 27.759557 
L 401.448141 28.188687 
L 402.653463 28.218473 
L 405.064109 28.576716 
L 407.474755 28.150132 
L 408.680078 28.165317 
L 409.8854 28.376903 
L 412.296046 28.409746 
L 413.501369 27.94087 
L 414.706692 27.982627 
L 415.912015 27.073323 
L 419.527983 27.668892 
L 424.349274 27.717372 
L 426.75992 28.053932 
L 430.375889 27.858229 
L 432.786534 28.261219 
L 435.19718 28.415259 
L 436.402503 28.594142 
L 437.607826 28.620749 
L 444.839763 29.590325 
L 446.045085 29.65853 
L 447.250408 29.073999 
L 448.455731 29.102468 
L 449.661054 29.289834 
L 450.866377 29.181731 
L 452.071699 29.252813 
L 453.277022 29.446277 
L 454.482345 29.473498 
L 455.687668 29.344148 
L 458.098314 29.365965 
L 459.303636 29.554409 
L 462.919605 29.781633 
L 464.124928 29.969708 
L 465.330251 29.446103 
L 466.535573 29.360931 
L 467.740896 29.535159 
L 468.946219 29.535507 
L 470.151542 29.680461 
L 471.356865 29.622434 
L 472.562188 29.788708 
L 473.76751 29.677218 
L 477.383479 30.144416 
L 480.999447 30.468674 
L 483.410093 30.428908 
L 484.615416 30.606586 
L 485.820739 29.443906 
L 487.026062 29.315701 
L 489.436707 29.668051 
L 490.64203 29.604021 
L 491.847353 28.737423 
L 493.052676 28.764849 
L 494.257999 28.931013 
L 495.463321 28.920165 
L 497.873967 29.246495 
L 500.284613 29.220648 
L 505.105904 29.773703 
L 506.311227 29.8998 
L 507.51655 29.851235 
L 508.721873 28.971309 
L 509.927195 27.874908 
L 511.132518 28.048125 
L 512.337841 28.036057 
L 513.543164 28.141197 
L 514.748487 27.852042 
L 515.95381 27.714286 
L 515.95381 27.714286 
" clip-path="url(#p17b39d2ad0)" style="fill: none; stroke-dasharray: 5.55,2.4; stroke-dashoffset: 0; stroke: #4169e1; stroke-width: 1.5"/>
   </g>
   <g id="line2d_27">
    <path d="M 35.03 43.777038 
L 36.235323 35.050807 
L 37.440646 34.840646 
L 38.645968 27.531459 
L 39.851291 30.259443 
L 41.056614 31.340594 
L 42.261937 33.514606 
L 43.46726 29.202498 
L 44.672583 28.677114 
L 45.877905 26.882183 
L 47.083228 27.158744 
L 50.699197 22.025994 
L 51.90452 23.28381 
L 53.109842 23.972438 
L 56.725811 27.480616 
L 57.931134 27.682963 
L 59.136457 28.439333 
L 60.341779 27.073785 
L 61.547102 27.437009 
L 62.752425 27.257014 
L 63.957748 27.761825 
L 65.163071 27.269553 
L 66.368394 27.364697 
L 67.573716 26.785461 
L 68.779039 27.618742 
L 69.984362 27.298572 
L 71.189685 26.709035 
L 72.395008 26.421309 
L 73.600331 26.902313 
L 74.805653 26.349863 
L 76.010976 26.532219 
L 77.216299 25.893058 
L 78.421622 25.541939 
L 79.626945 26.614086 
L 80.832268 26.531838 
L 83.242913 27.318597 
L 86.858882 26.290629 
L 88.064205 26.14813 
L 89.269527 26.930865 
L 90.47485 25.859705 
L 92.885496 26.730163 
L 94.090819 26.702381 
L 95.296142 26.144454 
L 96.501464 26.429147 
L 97.706787 26.120428 
L 98.91211 26.352589 
L 100.117433 26.22753 
L 101.322756 26.286301 
L 103.733401 26.986611 
L 104.938724 26.707978 
L 106.144047 26.832575 
L 108.554693 26.53524 
L 109.760016 26.556798 
L 110.965338 26.937558 
L 112.170661 26.733758 
L 113.375984 27.083594 
L 114.581307 26.851195 
L 115.78663 26.934006 
L 116.991953 26.902772 
L 118.197275 27.172173 
L 120.607921 27.082383 
L 126.634535 27.782996 
L 127.839858 27.646092 
L 130.250504 27.928098 
L 131.455826 27.797808 
L 132.661149 28.028644 
L 135.071795 28.073494 
L 136.277118 27.60253 
L 137.482441 27.74329 
L 138.687763 27.701424 
L 139.893086 27.776813 
L 141.098409 27.989928 
L 142.303732 28.084324 
L 143.509055 28.37072 
L 144.714378 28.448755 
L 145.9197 28.062471 
L 147.125023 27.886428 
L 148.330346 27.95351 
L 149.535669 27.390218 
L 150.740992 27.164262 
L 151.946315 27.375134 
L 153.151637 27.354571 
L 154.35696 27.516821 
L 155.562283 27.151505 
L 156.767606 27.329307 
L 157.972929 27.691573 
L 162.79422 27.448263 
L 165.204866 27.74294 
L 166.410189 27.701872 
L 168.820834 27.97935 
L 170.026157 27.768659 
L 171.23148 27.835851 
L 174.847448 27.435175 
L 179.66874 27.825736 
L 183.284708 27.940536 
L 188.106 28.29482 
L 189.311322 28.221663 
L 191.721968 27.802056 
L 194.132614 27.989529 
L 195.337937 28.020686 
L 196.543259 27.670852 
L 198.953905 27.947454 
L 200.159228 27.815415 
L 201.364551 27.822874 
L 202.569873 27.475203 
L 212.212456 27.089456 
L 213.417779 27.320186 
L 214.623102 27.144648 
L 220.649716 27.143519 
L 221.855039 27.11848 
L 223.060362 27.313291 
L 226.67633 27.366038 
L 227.881653 27.486478 
L 229.086976 27.47014 
L 230.292299 27.226987 
L 231.497621 27.223501 
L 232.702944 27.388017 
L 239.934881 27.14724 
L 243.55085 27.295114 
L 245.961495 27.279143 
L 249.577464 27.38629 
L 250.782787 27.264563 
L 251.98811 27.255647 
L 253.193432 27.131745 
L 254.398755 27.187184 
L 255.604078 26.979542 
L 258.014724 27.126477 
L 265.246661 27.504787 
L 266.451984 27.404182 
L 271.273275 27.545073 
L 272.478598 27.677291 
L 276.094566 27.548471 
L 279.710535 27.635185 
L 283.326503 27.298599 
L 288.147794 27.488023 
L 291.763763 27.628385 
L 297.790377 27.614359 
L 301.406346 27.378436 
L 306.227637 27.455089 
L 314.664897 27.715615 
L 315.87022 27.620208 
L 318.280865 27.730831 
L 324.307479 27.596394 
L 325.512802 27.492532 
L 326.718125 27.631279 
L 337.566031 27.649438 
L 339.976676 27.616053 
L 342.387322 27.754716 
L 344.797968 27.678366 
L 347.208613 27.593099 
L 359.261842 27.52759 
L 361.672487 27.726084 
L 364.083133 27.840442 
L 365.288456 27.966092 
L 371.31507 27.990996 
L 372.520393 28.05022 
L 373.725715 27.982423 
L 377.341684 28.226799 
L 386.984267 28.17676 
L 393.010881 28.354709 
L 396.626849 28.323663 
L 403.858786 28.153617 
L 405.064109 28.196578 
L 407.474755 27.996531 
L 411.090723 28.094169 
L 417.117337 27.89348 
L 430.375889 27.870706 
L 444.839763 27.870244 
L 446.045085 27.909954 
L 449.661054 27.795945 
L 452.071699 27.819841 
L 456.892991 27.8981 
L 459.303636 27.931696 
L 465.330251 27.740406 
L 468.946219 27.647032 
L 479.794125 27.907072 
L 482.20477 27.898709 
L 484.615416 27.936722 
L 485.820739 27.832408 
L 489.436707 27.889192 
L 494.257999 27.771179 
L 499.07929 27.842899 
L 503.900581 27.793564 
L 515.95381 27.714286 
L 515.95381 27.714286 
" clip-path="url(#p17b39d2ad0)" style="fill: none; stroke: #ff8c00; stroke-width: 1.5; stroke-linecap: square"/>
   </g>
   <g id="line2d_28">
    <path d="M 35.03 97 
L 36.235323 78.568328 
L 37.440646 84.690837 
L 38.645968 48.973577 
L 39.851291 51.373517 
L 41.056614 57.563264 
L 42.261937 56.332939 
L 43.46726 29.910663 
L 44.672583 36.830525 
L 45.877905 35.828888 
L 47.083228 41.204761 
L 48.288551 38.249016 
L 49.493874 35.82327 
L 50.699197 28.876747 
L 51.90452 28.056951 
L 53.109842 30.644135 
L 54.315165 29.529366 
L 55.520488 26.745477 
L 56.725811 25.075394 
L 57.931134 28.483321 
L 59.136457 28.976469 
L 60.341779 22.589844 
L 61.547102 25.122511 
L 62.752425 27.937039 
L 65.163071 30.359682 
L 66.368394 32.770871 
L 67.573716 32.872034 
L 68.779039 30.377346 
L 69.984362 31.878536 
L 71.189685 31.455432 
L 72.395008 32.882498 
L 73.600331 33.033368 
L 74.805653 32.47687 
L 76.010976 34.046715 
L 77.216299 32.334423 
L 78.421622 33.007851 
L 79.626945 24.396965 
L 80.832268 26.196359 
L 82.03759 26.31605 
L 83.242913 26.724333 
L 84.448236 27.348851 
L 85.653559 28.166965 
L 86.858882 27.877094 
L 88.064205 29.196893 
L 89.269527 23.997386 
L 90.47485 12.775152 
L 91.680173 12.462916 
L 92.885496 11.895512 
L 94.090819 13.588447 
L 95.296142 11.456615 
L 96.501464 12.10114 
L 97.706787 12.503393 
L 98.91211 13.376687 
L 101.322756 16.116478 
L 102.528079 16.075132 
L 103.733401 15.56028 
L 104.938724 15.850669 
L 106.144047 16.981453 
L 108.554693 18.920708 
L 109.760016 20.153087 
L 110.965338 19.142996 
L 112.170661 19.697369 
L 113.375984 18.943077 
L 114.581307 19.245275 
L 116.991953 21.373376 
L 118.197275 21.241592 
L 120.607921 23.272775 
L 121.813244 23.905751 
L 123.018567 23.828262 
L 125.429212 25.478116 
L 129.045181 27.260246 
L 130.250504 27.623643 
L 131.455826 28.151424 
L 132.661149 27.946309 
L 135.071795 29.449714 
L 136.277118 25.73453 
L 137.482441 26.155547 
L 139.893086 27.609886 
L 141.098409 27.422112 
L 142.303732 28.003242 
L 143.509055 26.974594 
L 144.714378 27.601609 
L 145.9197 25.024963 
L 147.125023 25.093012 
L 148.330346 25.747538 
L 149.535669 19.193465 
L 150.740992 18.809193 
L 151.946315 18.563007 
L 153.151637 19.345269 
L 154.35696 19.49098 
L 155.562283 17.028053 
L 156.767606 17.039219 
L 157.972929 14.575388 
L 160.383574 16.051449 
L 161.588897 16.05975 
L 162.79422 16.815635 
L 163.999543 16.781281 
L 165.204866 17.131364 
L 166.410189 17.812946 
L 167.615511 17.706413 
L 168.820834 18.134892 
L 170.026157 17.629385 
L 171.23148 18.20213 
L 172.436803 18.586544 
L 173.642126 18.445509 
L 176.052771 18.918456 
L 177.258094 18.592963 
L 180.874063 20.421182 
L 182.079385 20.718795 
L 183.284708 21.332167 
L 186.900677 22.589518 
L 188.106 22.564886 
L 189.311322 22.976081 
L 191.721968 21.356539 
L 192.927291 21.403414 
L 195.337937 22.391366 
L 196.543259 18.974484 
L 197.748582 19.247755 
L 198.953905 18.740209 
L 200.159228 18.729162 
L 201.364551 19.290403 
L 202.569873 15.778568 
L 204.980519 16.842329 
L 206.185842 16.963745 
L 208.596488 17.912954 
L 209.80181 18.334369 
L 212.212456 18.855497 
L 213.417779 17.472825 
L 214.623102 16.891685 
L 219.444393 18.873475 
L 221.855039 19.74198 
L 223.060362 18.801024 
L 226.67633 20.149553 
L 227.881653 20.065094 
L 229.086976 20.529599 
L 230.292299 18.680344 
L 231.497621 19.157423 
L 232.702944 18.554785 
L 235.11359 19.304916 
L 237.524236 20.151055 
L 239.934881 20.848437 
L 241.140204 21.127926 
L 242.345527 21.031719 
L 245.961495 22.210584 
L 247.166818 22.417559 
L 249.577464 23.217591 
L 250.782787 22.985492 
L 251.98811 23.390948 
L 253.193432 23.122815 
L 254.398755 23.391117 
L 255.604078 21.881336 
L 256.809401 21.618849 
L 258.014724 21.997423 
L 259.220047 22.131264 
L 260.425369 22.523877 
L 261.630692 22.288189 
L 262.836015 22.170264 
L 265.246661 22.84639 
L 266.451984 22.760228 
L 267.657306 23.10291 
L 268.862629 22.735876 
L 271.273275 23.381935 
L 272.478598 22.920145 
L 273.683921 23.169556 
L 274.889243 22.472746 
L 277.299889 22.771304 
L 279.710535 23.471764 
L 280.915858 22.779203 
L 282.12118 22.382244 
L 283.326503 22.517926 
L 285.737149 23.087027 
L 286.942472 23.119648 
L 288.147794 23.401499 
L 290.55844 23.346333 
L 297.790377 25.101462 
L 298.9957 24.891334 
L 300.201023 25.192199 
L 301.406346 24.827362 
L 302.611668 25.150965 
L 303.816991 24.837267 
L 309.843605 26.28817 
L 311.048928 25.937491 
L 312.254251 25.938644 
L 314.664897 26.481625 
L 317.075542 26.125122 
L 319.486188 26.694376 
L 320.691511 26.564078 
L 321.896834 26.598075 
L 323.102157 26.08721 
L 324.307479 26.328677 
L 325.512802 25.99143 
L 326.718125 25.156012 
L 330.334094 25.937325 
L 333.950062 26.730731 
L 335.155385 26.699594 
L 336.360708 26.970237 
L 337.566031 26.922734 
L 338.771353 27.051138 
L 339.976676 27.310909 
L 341.181999 26.622703 
L 343.592645 27.15533 
L 346.00329 26.923231 
L 348.413936 27.434168 
L 353.235227 28.042802 
L 354.44055 28.283971 
L 355.645873 27.527232 
L 356.851196 27.613439 
L 359.261842 28.106892 
L 360.467164 27.18622 
L 361.672487 27.170711 
L 362.87781 27.312466 
L 364.083133 27.217152 
L 365.288456 26.423806 
L 366.493778 26.669188 
L 367.699101 26.702884 
L 368.904424 26.871608 
L 370.109747 26.883526 
L 371.31507 27.133936 
L 373.725715 27.079923 
L 374.931038 26.78 
L 376.136361 26.213397 
L 377.341684 26.317206 
L 380.957652 27.007351 
L 382.162975 25.805819 
L 383.368298 25.875167 
L 386.984267 26.449037 
L 389.394912 26.580227 
L 391.805558 27.051476 
L 393.010881 26.914104 
L 394.216204 27.120506 
L 395.421526 26.998289 
L 396.626849 27.203794 
L 400.242818 27.468546 
L 401.448141 27.693402 
L 402.653463 27.687181 
L 403.858786 27.912745 
L 405.064109 27.999909 
L 406.269432 27.063461 
L 407.474755 26.86472 
L 408.680078 26.886839 
L 409.8854 27.108745 
L 412.296046 27.07304 
L 413.501369 26.432323 
L 414.706692 26.49145 
L 415.912015 26.300716 
L 419.527983 26.882394 
L 421.938629 26.7338 
L 424.349274 26.735899 
L 426.75992 27.116968 
L 430.375889 26.994427 
L 433.991857 27.51583 
L 442.429117 28.344957 
L 444.839763 28.728649 
L 446.045085 28.798119 
L 448.455731 28.347925 
L 449.661054 28.476824 
L 450.866377 28.355449 
L 452.071699 28.432657 
L 454.482345 28.757548 
L 455.687668 28.651341 
L 462.919605 28.907701 
L 464.124928 29.087367 
L 465.330251 28.946605 
L 466.535573 28.921133 
L 467.740896 29.101703 
L 468.946219 29.040635 
L 470.151542 29.112143 
L 471.356865 28.941876 
L 472.562188 29.124915 
L 473.76751 28.87107 
L 477.383479 29.38074 
L 480.999447 29.526964 
L 483.410093 29.480069 
L 484.615416 29.646495 
L 485.820739 28.841043 
L 487.026062 28.758153 
L 489.436707 29.106885 
L 490.64203 29.010603 
L 491.847353 28.281631 
L 493.052676 28.247703 
L 494.257999 28.414549 
L 495.463321 28.409379 
L 497.873967 28.688119 
L 500.284613 28.748557 
L 506.311227 29.514327 
L 507.51655 29.448444 
L 508.721873 28.903665 
L 509.927195 27.882909 
L 512.337841 28.131171 
L 513.543164 28.238967 
L 514.748487 27.714477 
L 515.95381 27.714286 
L 515.95381 27.714286 
" clip-path="url(#p17b39d2ad0)" style="fill: none; stroke-dasharray: 5.55,2.4; stroke-dashoffset: 0; stroke: #ff8c00; stroke-width: 1.5"/>
   </g>
   <g id="patch_3">
    <path d="M 35.03 97 
L 35.03 0 
" style="fill: none; stroke: #000000; stroke-width: 0.8; stroke-linejoin: miter; stroke-linecap: square"/>
   </g>
   <g id="patch_4">
    <path d="M 540 97 
L 540 0 
" style="fill: none; stroke: #000000; stroke-width: 0.8; stroke-linejoin: miter; stroke-linecap: square"/>
   </g>
   <g id="patch_5">
    <path d="M 35.03 97 
L 540 97 
" style="fill: none; stroke: #000000; stroke-width: 0.8; stroke-linejoin: miter; stroke-linecap: square"/>
   </g>
   <g id="patch_6">
    <path d="M 35.03 0 
L 540 0 
" style="fill: none; stroke: #000000; stroke-width: 0.8; stroke-linejoin: miter; stroke-linecap: square"/>
   </g>
  </g>
 </g>
 <defs>
  <clipPath id="p17b39d2ad0">
   <rect x="35.03" y="0" width="504.97" height="97"/>
  </clipPath>
 </defs>
</svg>
