<?xml version="1.0" encoding="utf-8" standalone="no"?>
<!DOCTYPE svg PUBLIC "-//W3C//DTD SVG 1.1//EN"
  "http://www.w3.org/Graphics/SVG/1.1/DTD/svg11.dtd">
<svg xmlns:xlink="http://www.w3.org/1999/xlink" width="540pt" height="129.6pt" viewBox="0 0 540 129.6" xmlns="http://www.w3.org/2000/svg" version="1.1">
 <metadata>
  <rdf:RDF xmlns:dc="http://purl.org/dc/elements/1.1/" xmlns:cc="http://creativecommons.org/ns#" xmlns:rdf="http://www.w3.org/1999/02/22-rdf-syntax-ns#">
   <cc:Work>
    <dc:type rdf:resource="http://purl.org/dc/dcmitype/StillImage"/>
    <dc:date>2025-03-23T10:26:31.756247</dc:date>
    <dc:format>image/svg+xml</dc:format>
    <dc:creator>
     <cc:Agent>
      <dc:title>Matplotlib v3.9.0, https://matplotlib.org/</dc:title>
     </cc:Agent>
    </dc:creator>
   </cc:Work>
  </rdf:RDF>
 </metadata>
 <defs>
  <style type="text/css">*{stroke-linejoin: round; stroke-linecap: butt}</style>
 </defs>
 <g id="figure_1">
  <g id="patch_1">
   <path d="M 0 129.6 
L 540 129.6 
L 540 0 
L 0 0 
z
" style="fill: #ffffff"/>
  </g>
  <g id="axes_1">
   <g id="patch_2">
    <path d="M 27.56 97 
L 540 97 
L 540 0 
L 27.56 0 
z
" style="fill: #ffffff"/>
   </g>
   <g id="matplotlib.axis_1">
    <g id="xtick_1">
     <g id="line2d_1">
      <path d="M 27.56 97 
L 27.56 0 
" clip-path="url(#pe108e04345)" style="fill: none; stroke: #b0b0b0; stroke-width: 0.8; stroke-linecap: square"/>
     </g>
     <g id="line2d_2">
      <defs>
       <path id="m987d1a8d24" d="M 0 0 
L 0 3.5 
" style="stroke: #000000; stroke-width: 0.8"/>
      </defs>
      <g>
       <use xlink:href="#m987d1a8d24" x="27.56" y="97" style="stroke: #000000; stroke-width: 0.8"/>
      </g>
     </g>
     <g id="text_1">
      <text style="font: 10px 'Times New Roman'; text-anchor: middle" x="27.56" y="110.94375" transform="rotate(-0 27.56 110.94375)">0</text>
     </g>
    </g>
    <g id="xtick_2">
     <g id="line2d_3">
      <path d="M 88.717656 97 
L 88.717656 0 
" clip-path="url(#pe108e04345)" style="fill: none; stroke: #b0b0b0; stroke-width: 0.8; stroke-linecap: square"/>
     </g>
     <g id="line2d_4">
      <g>
       <use xlink:href="#m987d1a8d24" x="88.717656" y="97" style="stroke: #000000; stroke-width: 0.8"/>
      </g>
     </g>
     <g id="text_2">
      <text style="font: 10px 'Times New Roman'; text-anchor: middle" x="88.717656" y="110.94375" transform="rotate(-0 88.717656 110.94375)">50</text>
     </g>
    </g>
    <g id="xtick_3">
     <g id="line2d_5">
      <path d="M 149.875312 97 
L 149.875312 0 
" clip-path="url(#pe108e04345)" style="fill: none; stroke: #b0b0b0; stroke-width: 0.8; stroke-linecap: square"/>
     </g>
     <g id="line2d_6">
      <g>
       <use xlink:href="#m987d1a8d24" x="149.875312" y="97" style="stroke: #000000; stroke-width: 0.8"/>
      </g>
     </g>
     <g id="text_3">
      <text style="font: 10px 'Times New Roman'; text-anchor: middle" x="149.875312" y="110.94375" transform="rotate(-0 149.875312 110.94375)">100</text>
     </g>
    </g>
    <g id="xtick_4">
     <g id="line2d_7">
      <path d="M 211.032968 97 
L 211.032968 0 
" clip-path="url(#pe108e04345)" style="fill: none; stroke: #b0b0b0; stroke-width: 0.8; stroke-linecap: square"/>
     </g>
     <g id="line2d_8">
      <g>
       <use xlink:href="#m987d1a8d24" x="211.032968" y="97" style="stroke: #000000; stroke-width: 0.8"/>
      </g>
     </g>
     <g id="text_4">
      <text style="font: 10px 'Times New Roman'; text-anchor: middle" x="211.032968" y="110.94375" transform="rotate(-0 211.032968 110.94375)">150</text>
     </g>
    </g>
    <g id="xtick_5">
     <g id="line2d_9">
      <path d="M 272.190624 97 
L 272.190624 0 
" clip-path="url(#pe108e04345)" style="fill: none; stroke: #b0b0b0; stroke-width: 0.8; stroke-linecap: square"/>
     </g>
     <g id="line2d_10">
      <g>
       <use xlink:href="#m987d1a8d24" x="272.190624" y="97" style="stroke: #000000; stroke-width: 0.8"/>
      </g>
     </g>
     <g id="text_5">
      <text style="font: 10px 'Times New Roman'; text-anchor: middle" x="272.190624" y="110.94375" transform="rotate(-0 272.190624 110.94375)">200</text>
     </g>
    </g>
    <g id="xtick_6">
     <g id="line2d_11">
      <path d="M 333.34828 97 
L 333.34828 0 
" clip-path="url(#pe108e04345)" style="fill: none; stroke: #b0b0b0; stroke-width: 0.8; stroke-linecap: square"/>
     </g>
     <g id="line2d_12">
      <g>
       <use xlink:href="#m987d1a8d24" x="333.34828" y="97" style="stroke: #000000; stroke-width: 0.8"/>
      </g>
     </g>
     <g id="text_6">
      <text style="font: 10px 'Times New Roman'; text-anchor: middle" x="333.34828" y="110.94375" transform="rotate(-0 333.34828 110.94375)">250</text>
     </g>
    </g>
    <g id="xtick_7">
     <g id="line2d_13">
      <path d="M 394.505936 97 
L 394.505936 0 
" clip-path="url(#pe108e04345)" style="fill: none; stroke: #b0b0b0; stroke-width: 0.8; stroke-linecap: square"/>
     </g>
     <g id="line2d_14">
      <g>
       <use xlink:href="#m987d1a8d24" x="394.505936" y="97" style="stroke: #000000; stroke-width: 0.8"/>
      </g>
     </g>
     <g id="text_7">
      <text style="font: 10px 'Times New Roman'; text-anchor: middle" x="394.505936" y="110.94375" transform="rotate(-0 394.505936 110.94375)">300</text>
     </g>
    </g>
    <g id="xtick_8">
     <g id="line2d_15">
      <path d="M 455.663592 97 
L 455.663592 0 
" clip-path="url(#pe108e04345)" style="fill: none; stroke: #b0b0b0; stroke-width: 0.8; stroke-linecap: square"/>
     </g>
     <g id="line2d_16">
      <g>
       <use xlink:href="#m987d1a8d24" x="455.663592" y="97" style="stroke: #000000; stroke-width: 0.8"/>
      </g>
     </g>
     <g id="text_8">
      <text style="font: 10px 'Times New Roman'; text-anchor: middle" x="455.663592" y="110.94375" transform="rotate(-0 455.663592 110.94375)">350</text>
     </g>
    </g>
    <g id="xtick_9">
     <g id="line2d_17">
      <path d="M 516.821248 97 
L 516.821248 0 
" clip-path="url(#pe108e04345)" style="fill: none; stroke: #b0b0b0; stroke-width: 0.8; stroke-linecap: square"/>
     </g>
     <g id="line2d_18">
      <g>
       <use xlink:href="#m987d1a8d24" x="516.821248" y="97" style="stroke: #000000; stroke-width: 0.8"/>
      </g>
     </g>
     <g id="text_9">
      <text style="font: 10px 'Times New Roman'; text-anchor: middle" x="516.821248" y="110.94375" transform="rotate(-0 516.821248 110.94375)">400</text>
     </g>
    </g>
    <g id="text_10">
     <text style="font: 12px 'Times New Roman'; text-anchor: middle" x="283.78" y="125.415312" transform="rotate(-0 283.78 125.415312)">Simulation Run</text>
    </g>
   </g>
   <g id="matplotlib.axis_2">
    <g id="ytick_1">
     <g id="line2d_19">
      <path d="M 27.56 97 
L 540 97 
" clip-path="url(#pe108e04345)" style="fill: none; stroke: #b0b0b0; stroke-width: 0.8; stroke-linecap: square"/>
     </g>
     <g id="line2d_20">
      <defs>
       <path id="m9c70493179" d="M 0 0 
L -3.5 0 
" style="stroke: #000000; stroke-width: 0.8"/>
      </defs>
      <g>
       <use xlink:href="#m9c70493179" x="27.56" y="97" style="stroke: #000000; stroke-width: 0.8"/>
      </g>
     </g>
     <g id="text_11">
      <text style="font: 10px 'Times New Roman'; text-anchor: end" x="20.56" y="100.471875" transform="rotate(-0 20.56 100.471875)">0</text>
     </g>
    </g>
    <g id="ytick_2">
     <g id="line2d_21">
      <path d="M 27.56 50.809524 
L 540 50.809524 
" clip-path="url(#pe108e04345)" style="fill: none; stroke: #b0b0b0; stroke-width: 0.8; stroke-linecap: square"/>
     </g>
     <g id="line2d_22">
      <g>
       <use xlink:href="#m9c70493179" x="27.56" y="50.809524" style="stroke: #000000; stroke-width: 0.8"/>
      </g>
     </g>
     <g id="text_12">
      <text style="font: 10px 'Times New Roman'; text-anchor: end" x="20.56" y="54.281399" transform="rotate(-0 20.56 54.281399)">1</text>
     </g>
    </g>
    <g id="ytick_3">
     <g id="line2d_23">
      <path d="M 27.56 4.619048 
L 540 4.619048 
" clip-path="url(#pe108e04345)" style="fill: none; stroke: #b0b0b0; stroke-width: 0.8; stroke-linecap: square"/>
     </g>
     <g id="line2d_24">
      <g>
       <use xlink:href="#m9c70493179" x="27.56" y="4.619048" style="stroke: #000000; stroke-width: 0.8"/>
      </g>
     </g>
     <g id="text_13">
      <text style="font: 10px 'Times New Roman'; text-anchor: end" x="20.56" y="8.090923" transform="rotate(-0 20.56 8.090923)">2</text>
     </g>
    </g>
    <g id="text_14">
     <text style="font: 12px 'Times New Roman'; text-anchor: middle" x="8.993125" y="48.5" transform="rotate(-90 8.993125 48.5)">Normalized Value</text>
    </g>
   </g>
   <g id="line2d_25">
    <path d="M 27.56 42.438647 
L 28.783153 49.971333 
L 30.006306 52.064168 
L 31.229459 55.726876 
L 32.452612 56.257434 
L 33.675766 56.635748 
L 34.898919 51.914774 
L 36.122072 52.554635 
L 37.345225 52.04857 
L 38.568378 47.441698 
L 39.791531 48.451373 
L 41.014684 50.488266 
L 42.237837 51.411808 
L 43.460991 52.746986 
L 44.684144 53.201618 
L 45.907297 53.149376 
L 47.13045 52.935405 
L 49.576756 53.216632 
L 50.799909 52.844637 
L 52.023062 53.541779 
L 54.469369 53.369245 
L 55.692522 52.897921 
L 56.915675 52.796752 
L 58.138828 51.928614 
L 59.361981 52.458629 
L 61.808287 52.137211 
L 63.031441 52.448052 
L 64.254594 51.790353 
L 66.7009 51.656937 
L 69.147206 52.473845 
L 70.370359 52.704232 
L 71.593512 52.679559 
L 72.816665 52.131046 
L 74.039819 52.409052 
L 75.262972 52.379645 
L 77.709278 52.667075 
L 80.155584 53.038353 
L 81.378737 53.035326 
L 82.60189 53.187727 
L 83.825044 53.065284 
L 85.048197 52.697232 
L 86.27135 53.005527 
L 87.494503 53.117885 
L 88.717656 53.042367 
L 91.163962 52.476586 
L 92.387115 52.444775 
L 93.610269 52.284634 
L 94.833422 52.557666 
L 99.726034 52.993045 
L 100.949187 53.254372 
L 104.618647 53.11843 
L 105.8418 53.216264 
L 107.064953 53.479435 
L 108.288106 53.623766 
L 109.511259 53.55843 
L 110.734412 53.263039 
L 113.180718 52.986101 
L 114.403872 52.676835 
L 118.073331 52.629105 
L 119.296484 52.453336 
L 124.189097 52.985316 
L 125.41225 53.010922 
L 126.635403 52.84828 
L 127.858556 52.989461 
L 129.081709 52.928078 
L 130.304862 53.065896 
L 132.751168 52.939292 
L 135.197475 53.040044 
L 136.420628 52.696059 
L 137.643781 52.566857 
L 138.866934 52.631735 
L 140.090087 52.325364 
L 141.31324 52.212687 
L 143.759546 52.34537 
L 144.9827 51.928571 
L 147.429006 51.976382 
L 148.652159 52.110166 
L 149.875312 51.732587 
L 151.098465 51.793211 
L 152.321618 51.490752 
L 154.767925 51.643886 
L 157.214231 51.600708 
L 158.437384 51.639886 
L 159.660537 51.864704 
L 163.329996 52.01658 
L 165.776303 52.233969 
L 168.222609 52.172478 
L 174.338375 52.319712 
L 175.561528 52.119194 
L 176.784681 52.226242 
L 178.007834 52.056552 
L 180.45414 51.980867 
L 181.677293 51.880768 
L 182.900446 51.933317 
L 185.346753 51.412334 
L 189.016212 51.254288 
L 192.685671 51.546093 
L 197.578284 51.284993 
L 204.917203 51.440821 
L 215.925581 51.097472 
L 219.59504 51.025868 
L 222.041346 51.226212 
L 225.710806 51.345208 
L 229.380265 51.511022 
L 231.826571 51.542687 
L 233.049724 51.632945 
L 234.272877 51.602612 
L 236.719184 51.355216 
L 240.388643 51.541306 
L 242.834949 51.532604 
L 246.504409 51.579365 
L 250.173868 51.523648 
L 252.620174 51.569469 
L 255.06648 51.420135 
L 259.959093 51.621943 
L 262.405399 51.595821 
L 268.521165 51.71102 
L 270.967471 51.67028 
L 273.413777 51.681778 
L 275.860084 51.693061 
L 277.083237 51.715235 
L 279.529543 51.642968 
L 281.975849 51.57812 
L 283.199002 51.510478 
L 285.645309 51.644815 
L 288.091615 51.449916 
L 290.537921 51.485093 
L 291.761074 51.397745 
L 296.653687 51.417824 
L 300.323146 51.245323 
L 302.769452 51.232023 
L 307.662065 51.2875 
L 315.000983 51.323039 
L 317.44729 51.190164 
L 319.893596 51.189629 
L 326.009361 51.118698 
L 332.125127 51.133077 
L 334.571433 50.896429 
L 337.01774 50.918248 
L 340.687199 51.032812 
L 343.133505 51.020057 
L 349.249271 51.066324 
L 351.695577 50.983411 
L 356.58819 51.211316 
L 360.257649 51.013428 
L 362.703955 51.128965 
L 368.819721 51.148091 
L 384.720711 51.444633 
L 389.613324 51.390175 
L 395.729089 51.393487 
L 398.175396 51.330727 
L 399.398549 51.194763 
L 404.291161 51.189776 
L 407.960621 51.159319 
L 414.076386 51.261703 
L 420.192152 51.143008 
L 421.415305 51.163673 
L 423.861611 51.048575 
L 429.977377 51.169778 
L 433.646836 51.077636 
L 434.869989 50.945434 
L 444.655214 50.906087 
L 454.440439 51.016591 
L 458.109899 51.002875 
L 463.002511 51.016942 
L 477.680348 50.834233 
L 478.903502 50.717261 
L 482.572961 50.788696 
L 488.688727 50.81554 
L 491.135033 50.929162 
L 497.250798 50.819829 
L 502.143411 50.903257 
L 515.598095 50.809524 
L 515.598095 50.809524 
" clip-path="url(#pe108e04345)" style="fill: none; stroke: #4169e1; stroke-width: 1.5; stroke-linecap: square"/>
   </g>
   <g id="line2d_26">
    <path d="M 27.56 97 
L 28.783153 81.466255 
L 30.006306 84.24602 
L 31.229459 76.416523 
L 32.452612 80.224969 
L 33.675766 82.8249 
L 34.898919 48.240658 
L 36.122072 53.550981 
L 37.345225 57.817759 
L 38.568378 9.44447 
L 39.791531 14.613193 
L 41.014684 8.984648 
L 42.237837 12.953038 
L 43.460991 12.611883 
L 45.907297 22.40652 
L 48.353603 30.402782 
L 49.576756 33.820968 
L 50.799909 36.260134 
L 52.023062 36.491483 
L 54.469369 41.665213 
L 55.692522 42.572069 
L 56.915675 44.681937 
L 58.138828 41.536018 
L 59.361981 41.590715 
L 60.585134 43.430888 
L 61.808287 45.017394 
L 63.031441 45.98305 
L 64.254594 44.076103 
L 66.7009 47.208082 
L 67.924053 46.867248 
L 69.147206 47.026146 
L 70.370359 47.905725 
L 71.593512 49.226597 
L 72.816665 47.436236 
L 74.039819 47.903081 
L 75.262972 49.121271 
L 76.486125 50.166984 
L 78.932431 51.680279 
L 80.155584 52.195583 
L 81.378737 53.191127 
L 83.825044 54.586494 
L 85.048197 53.727126 
L 86.27135 53.361278 
L 88.717656 54.828508 
L 89.940809 54.295134 
L 91.163962 54.171732 
L 92.387115 54.950165 
L 93.610269 55.335588 
L 94.833422 54.957141 
L 97.279728 56.059488 
L 98.502881 56.75016 
L 99.726034 56.719977 
L 100.949187 56.258551 
L 104.618647 58.040741 
L 105.8418 58.472414 
L 107.064953 57.823724 
L 108.288106 58.03205 
L 109.511259 58.526809 
L 110.734412 57.460043 
L 111.957565 57.559885 
L 113.180718 57.839244 
L 114.403872 56.524062 
L 115.627025 57.076633 
L 116.850178 57.468627 
L 118.073331 57.979392 
L 120.519637 57.845784 
L 121.74279 57.335092 
L 122.965943 57.563002 
L 125.41225 58.486068 
L 126.635403 58.369172 
L 127.858556 58.387152 
L 129.081709 58.761212 
L 130.304862 58.774292 
L 131.528015 58.924852 
L 133.974322 59.777367 
L 135.197475 60.032491 
L 136.420628 57.560237 
L 137.643781 57.582345 
L 138.866934 57.905939 
L 140.090087 55.962238 
L 141.31324 56.075569 
L 142.536393 56.320752 
L 143.759546 56.685176 
L 144.9827 52.53515 
L 147.429006 53.382169 
L 148.652159 53.33326 
L 149.875312 49.862652 
L 151.098465 50.223161 
L 152.321618 48.122783 
L 154.767925 48.716139 
L 158.437384 49.934902 
L 159.660537 48.872316 
L 160.88369 49.292681 
L 162.106843 49.417825 
L 163.329996 49.819994 
L 164.55315 49.697259 
L 166.999456 50.129005 
L 169.445762 50.862916 
L 174.338375 52.236833 
L 175.561528 51.271854 
L 176.784681 51.260897 
L 178.007834 50.66016 
L 179.230987 51.030762 
L 180.45414 51.189833 
L 181.677293 51.20492 
L 182.900446 51.466689 
L 184.123599 49.707008 
L 185.346753 47.391449 
L 186.569906 47.528736 
L 189.016212 48.15182 
L 190.239365 48.046552 
L 191.462518 47.784016 
L 192.685671 48.061911 
L 195.131978 48.422858 
L 196.355131 48.681541 
L 197.578284 48.802709 
L 203.694049 50.20655 
L 204.917203 50.205458 
L 207.363509 50.787979 
L 209.809815 50.951255 
L 211.032968 50.940561 
L 214.702427 51.620763 
L 215.925581 51.586203 
L 217.148734 51.731819 
L 219.59504 52.238919 
L 220.818193 52.006325 
L 222.041346 51.924514 
L 224.487652 52.382465 
L 229.380265 52.868976 
L 230.603418 53.089365 
L 231.826571 53.170807 
L 233.049724 53.055476 
L 234.272877 53.271404 
L 235.496031 52.422219 
L 236.719184 52.273758 
L 237.942337 52.313603 
L 239.16549 52.480394 
L 240.388643 52.471525 
L 244.058102 52.985378 
L 246.504409 53.47273 
L 253.843327 54.18596 
L 255.06648 54.086814 
L 256.289634 54.142095 
L 257.512787 54.010225 
L 259.959093 54.366605 
L 261.182246 54.349584 
L 264.851705 54.741316 
L 267.298012 54.774993 
L 268.521165 54.987829 
L 269.744318 54.976437 
L 273.413777 55.458378 
L 277.083237 55.825038 
L 278.30639 55.566561 
L 279.529543 55.748234 
L 280.752696 55.566515 
L 281.975849 55.748221 
L 283.199002 55.682869 
L 284.422155 55.377556 
L 285.645309 55.476913 
L 286.868462 54.669636 
L 289.314768 54.687413 
L 290.537921 54.871666 
L 291.761074 54.614647 
L 292.984227 54.752242 
L 294.20738 54.450359 
L 295.430533 54.639083 
L 296.653687 54.092133 
L 297.87684 53.851695 
L 299.099993 53.823148 
L 300.323146 53.9701 
L 302.769452 54.076628 
L 305.215758 54.353388 
L 308.885218 54.851192 
L 313.77783 55.519608 
L 315.000983 55.614845 
L 316.224137 55.404044 
L 318.670443 55.459346 
L 321.116749 55.639952 
L 322.339902 55.347503 
L 326.009361 55.268128 
L 327.232515 55.4321 
L 329.678821 55.517713 
L 332.125127 55.848094 
L 333.34828 54.662197 
L 334.571433 54.194152 
L 337.01774 54.355272 
L 338.240893 54.334528 
L 339.464046 54.499127 
L 340.687199 54.34037 
L 348.026118 54.828452 
L 349.249271 54.975588 
L 350.472424 54.621153 
L 351.695577 54.780342 
L 354.141883 54.467506 
L 357.811343 54.210493 
L 360.257649 53.932891 
L 361.480802 53.658043 
L 363.927108 53.83765 
L 366.373414 54.052777 
L 370.042874 54.435592 
L 371.266027 54.282011 
L 373.712333 54.390146 
L 376.158639 54.589273 
L 378.604946 54.713036 
L 379.828099 54.8585 
L 381.051252 54.737963 
L 382.274405 54.376783 
L 385.943864 54.703306 
L 387.167018 54.670676 
L 388.390171 54.443374 
L 390.836477 54.693847 
L 393.282783 54.878388 
L 398.175396 55.207447 
L 399.398549 53.805965 
L 405.514314 54.262009 
L 409.183774 54.452806 
L 414.076386 54.669619 
L 416.522692 54.584619 
L 421.415305 55.001183 
L 422.638458 54.262548 
L 425.084764 54.375059 
L 426.307917 54.240008 
L 432.423683 54.803747 
L 433.646836 54.285614 
L 434.869989 52.820184 
L 438.539449 53.150833 
L 439.762602 52.966691 
L 443.432061 53.193534 
L 448.324674 53.40511 
L 454.440439 53.925683 
L 455.663592 53.918568 
L 456.886745 53.799715 
L 466.67197 54.322502 
L 467.895124 53.34965 
L 469.118277 53.195383 
L 472.787736 53.330917 
L 476.457195 53.509804 
L 477.680348 53.277173 
L 478.903502 52.013167 
L 480.126655 51.896563 
L 483.796114 52.219474 
L 485.019267 52.003583 
L 488.688727 52.217636 
L 489.91188 51.718442 
L 493.581339 51.754975 
L 494.804492 51.404417 
L 497.250798 51.638224 
L 498.473952 51.53219 
L 499.697105 51.645362 
L 500.920258 51.402979 
L 505.81287 51.735689 
L 508.259177 51.617718 
L 510.705483 51.81621 
L 511.928636 50.572846 
L 515.598095 50.809524 
L 515.598095 50.809524 
" clip-path="url(#pe108e04345)" style="fill: none; stroke-dasharray: 5.55,2.4; stroke-dashoffset: 0; stroke: #4169e1; stroke-width: 1.5"/>
   </g>
   <g id="line2d_27">
    <path d="M 27.56 44.393228 
L 28.783153 50.331466 
L 30.006306 51.574621 
L 31.229459 54.748509 
L 32.452612 55.284179 
L 33.675766 56.141602 
L 34.898919 52.510556 
L 36.122072 52.86965 
L 37.345225 52.246901 
L 38.568378 48.504551 
L 39.791531 49.532694 
L 41.014684 51.124539 
L 42.237837 51.780425 
L 43.460991 52.832847 
L 44.684144 53.284731 
L 45.907297 53.19605 
L 47.13045 52.874894 
L 48.353603 53.011647 
L 49.576756 53.008226 
L 50.799909 52.537658 
L 52.023062 53.205139 
L 53.246216 52.988916 
L 54.469369 52.90544 
L 55.692522 52.655974 
L 56.915675 52.622651 
L 58.138828 51.890085 
L 59.361981 52.22023 
L 60.585134 52.189418 
L 61.808287 51.958746 
L 63.031441 52.264662 
L 64.254594 51.60764 
L 65.477747 51.615614 
L 66.7009 51.453393 
L 67.924053 51.898046 
L 70.370359 52.374248 
L 71.593512 52.435115 
L 72.816665 51.97555 
L 74.039819 52.204804 
L 82.60189 52.792503 
L 83.825044 52.681426 
L 85.048197 52.271671 
L 87.494503 52.752787 
L 88.717656 52.6428 
L 91.163962 52.177772 
L 92.387115 52.192443 
L 93.610269 52.027786 
L 97.279728 52.471507 
L 98.502881 52.529937 
L 100.949187 52.923249 
L 104.618647 52.708516 
L 105.8418 52.806535 
L 108.288106 53.131769 
L 110.734412 52.851945 
L 115.627025 52.304487 
L 119.296484 52.224365 
L 124.189097 52.697491 
L 125.41225 52.738557 
L 126.635403 52.592599 
L 127.858556 52.697034 
L 129.081709 52.622019 
L 130.304862 52.725298 
L 132.751168 52.583849 
L 135.197475 52.653591 
L 136.420628 52.36535 
L 137.643781 52.23489 
L 138.866934 52.333423 
L 140.090087 52.03627 
L 141.31324 51.903074 
L 143.759546 52.026103 
L 144.9827 51.721124 
L 148.652159 51.927147 
L 149.875312 51.570968 
L 151.098465 51.634182 
L 152.321618 51.354536 
L 154.767925 51.479374 
L 155.991078 51.417644 
L 158.437384 51.512878 
L 159.660537 51.708313 
L 163.329996 51.816858 
L 165.776303 52.014243 
L 169.445762 52.03184 
L 174.338375 52.116325 
L 175.561528 51.906083 
L 176.784681 51.996876 
L 178.007834 51.836566 
L 182.900446 51.711683 
L 186.569906 51.148953 
L 189.016212 51.079367 
L 192.685671 51.342471 
L 200.02459 51.151405 
L 203.694049 51.162118 
L 206.140356 51.220832 
L 220.818193 51.036081 
L 224.487652 51.195339 
L 229.380265 51.42601 
L 231.826571 51.459239 
L 234.272877 51.507122 
L 236.719184 51.357818 
L 242.834949 51.537505 
L 247.727562 51.544265 
L 250.173868 51.541019 
L 252.620174 51.581909 
L 256.289634 51.498914 
L 259.959093 51.628868 
L 262.405399 51.566354 
L 268.521165 51.624134 
L 270.967471 51.577958 
L 273.413777 51.638153 
L 275.860084 51.646696 
L 278.30639 51.585208 
L 290.537921 51.506176 
L 292.984227 51.464453 
L 295.430533 51.551649 
L 299.099993 51.338645 
L 303.992605 51.258302 
L 310.108371 51.339347 
L 317.44729 51.225766 
L 319.893596 51.217585 
L 327.232515 51.135803 
L 330.901974 51.159867 
L 332.125127 51.150602 
L 334.571433 50.954966 
L 337.01774 50.968571 
L 341.910352 51.029283 
L 349.249271 51.101948 
L 351.695577 51.033189 
L 356.58819 51.227524 
L 360.257649 51.049902 
L 363.927108 51.111203 
L 371.266027 51.223196 
L 374.935486 51.210974 
L 387.167018 51.404258 
L 389.613324 51.329898 
L 394.505936 51.350761 
L 398.175396 51.309548 
L 399.398549 51.186592 
L 405.514314 51.162915 
L 411.63008 51.20661 
L 416.522692 51.184442 
L 425.084764 51.109047 
L 429.977377 51.197875 
L 433.646836 51.118352 
L 436.093142 51.002859 
L 445.878367 50.979154 
L 454.440439 51.035975 
L 458.109899 51.021528 
L 463.002511 51.026888 
L 474.010889 50.898373 
L 477.680348 50.8872 
L 478.903502 50.777345 
L 482.572961 50.846343 
L 488.688727 50.871064 
L 491.135033 50.96201 
L 496.027645 50.852718 
L 499.697105 50.86765 
L 502.143411 50.902286 
L 505.81287 50.916231 
L 508.259177 50.920971 
L 515.598095 50.809524 
L 515.598095 50.809524 
" clip-path="url(#pe108e04345)" style="fill: none; stroke: #ff8c00; stroke-width: 1.5; stroke-linecap: square"/>
   </g>
   <g id="line2d_28">
    <path d="M 27.56 97 
L 28.783153 84.333137 
L 30.006306 87.445139 
L 31.229459 78.978134 
L 32.452612 82.170213 
L 33.675766 83.321417 
L 34.898919 56.859122 
L 36.122072 61.55249 
L 37.345225 64.376628 
L 38.568378 22.361173 
L 39.791531 25.349346 
L 41.014684 21.307607 
L 42.237837 25.275744 
L 43.460991 25.22668 
L 44.684144 28.984653 
L 45.907297 33.193238 
L 49.576756 42.629326 
L 50.799909 43.836554 
L 52.023062 43.167331 
L 54.469369 47.456023 
L 55.692522 49.006188 
L 56.915675 50.916367 
L 58.138828 47.869472 
L 59.361981 48.671144 
L 60.585134 50.387967 
L 61.808287 51.460094 
L 63.031441 52.003198 
L 64.254594 48.802762 
L 65.477747 50.308217 
L 66.7009 51.420625 
L 67.924053 50.417453 
L 69.147206 50.700427 
L 70.370359 51.564203 
L 71.593512 52.74429 
L 72.816665 51.101873 
L 74.039819 51.561331 
L 76.486125 53.655457 
L 77.709278 54.298468 
L 78.932431 55.182529 
L 80.155584 55.819478 
L 81.378737 56.734576 
L 83.825044 58.046552 
L 85.048197 56.02343 
L 86.27135 55.51658 
L 87.494503 55.627918 
L 88.717656 56.221862 
L 89.940809 55.615651 
L 91.163962 55.72546 
L 92.387115 56.485706 
L 93.610269 56.696423 
L 94.833422 56.777654 
L 97.279728 57.462534 
L 98.502881 58.061531 
L 99.726034 57.935852 
L 100.949187 57.695684 
L 102.17234 58.151612 
L 103.395493 58.735702 
L 105.8418 59.525963 
L 107.064953 58.996092 
L 109.511259 59.614224 
L 110.734412 59.336961 
L 111.957565 59.263722 
L 113.180718 59.474253 
L 114.403872 58.43983 
L 118.073331 59.942532 
L 119.296484 60.256849 
L 120.519637 60.203948 
L 121.74279 59.714391 
L 122.965943 59.908605 
L 125.41225 60.711966 
L 126.635403 60.534636 
L 127.858556 60.652713 
L 129.081709 60.917645 
L 131.528015 61.018711 
L 135.197475 62.109243 
L 136.420628 59.840756 
L 137.643781 59.698856 
L 138.866934 59.78694 
L 140.090087 57.268967 
L 141.31324 57.098967 
L 143.759546 57.665434 
L 144.9827 54.86345 
L 147.429006 55.596462 
L 148.652159 55.322648 
L 149.875312 51.178171 
L 151.098465 51.48243 
L 152.321618 49.059046 
L 158.437384 50.674636 
L 159.660537 49.617859 
L 160.88369 50.032889 
L 162.106843 50.264238 
L 163.329996 50.667364 
L 164.55315 50.480355 
L 165.776303 50.65663 
L 173.115221 52.795267 
L 174.338375 53.127834 
L 175.561528 51.566205 
L 176.784681 51.574326 
L 178.007834 50.805184 
L 179.230987 51.157243 
L 182.900446 51.867595 
L 184.123599 49.902325 
L 185.346753 47.069785 
L 186.569906 47.182872 
L 189.016212 47.81413 
L 191.462518 47.498191 
L 196.355131 48.381446 
L 197.578284 48.479036 
L 203.694049 50.044878 
L 204.917203 50.053532 
L 208.586662 50.847991 
L 212.256121 51.281505 
L 213.479274 51.574935 
L 217.148734 51.964235 
L 219.59504 52.530648 
L 222.041346 52.172585 
L 224.487652 52.582956 
L 226.933959 52.589766 
L 229.380265 52.851169 
L 230.603418 53.098002 
L 231.826571 53.207086 
L 233.049724 53.137609 
L 234.272877 53.354871 
L 236.719184 53.178199 
L 239.16549 53.392538 
L 240.388643 53.273741 
L 246.504409 54.415755 
L 252.620174 55.20029 
L 257.512787 55.050359 
L 259.959093 55.371539 
L 261.182246 55.1102 
L 263.628552 55.46323 
L 267.298012 55.56633 
L 268.521165 55.752154 
L 269.744318 55.775355 
L 270.967471 55.979901 
L 272.190624 56.035799 
L 274.63693 56.322948 
L 275.860084 56.36936 
L 277.083237 56.543291 
L 278.30639 56.272085 
L 279.529543 56.467989 
L 280.752696 56.435252 
L 281.975849 56.589847 
L 283.199002 56.599817 
L 284.422155 56.194553 
L 285.645309 56.285772 
L 288.091615 55.790194 
L 289.314768 55.75274 
L 290.537921 55.903976 
L 291.761074 55.6507 
L 292.984227 55.751272 
L 294.20738 55.406328 
L 295.430533 55.593673 
L 296.653687 54.991764 
L 297.87684 54.678847 
L 300.323146 54.864657 
L 301.546299 54.751703 
L 305.215758 55.111789 
L 315.000983 56.259311 
L 316.224137 55.934918 
L 318.670443 56.126087 
L 319.893596 56.119913 
L 321.116749 56.242385 
L 322.339902 55.814963 
L 323.563055 55.676096 
L 330.901974 56.212233 
L 332.125127 56.367708 
L 333.34828 55.225945 
L 334.571433 54.882495 
L 337.01774 55.047188 
L 338.240893 55.044323 
L 339.464046 55.196345 
L 340.687199 55.00994 
L 344.356658 55.308622 
L 346.802965 55.430255 
L 349.249271 55.616686 
L 350.472424 55.255269 
L 351.695577 55.40971 
L 355.365036 55.000751 
L 356.58819 55.074635 
L 357.811343 54.799401 
L 362.703955 54.429254 
L 370.042874 55.122643 
L 371.266027 54.902923 
L 373.712333 55.039107 
L 376.158639 55.256799 
L 377.381793 55.240342 
L 379.828099 55.484978 
L 381.051252 55.356309 
L 382.274405 54.990599 
L 385.943864 55.330906 
L 387.167018 55.262821 
L 388.390171 54.87397 
L 390.836477 55.078633 
L 394.505936 55.349985 
L 398.175396 55.676842 
L 399.398549 54.161409 
L 404.291161 54.582722 
L 406.737467 54.730249 
L 412.853233 55.14315 
L 418.968999 55.337141 
L 421.415305 55.570216 
L 422.638458 54.823531 
L 423.861611 54.931392 
L 427.531071 54.853464 
L 432.423683 55.251011 
L 433.646836 54.642213 
L 434.869989 53.489762 
L 438.539449 53.803627 
L 439.762602 53.615616 
L 447.10152 54.136462 
L 449.547827 54.266157 
L 454.440439 54.659922 
L 458.109899 54.590001 
L 459.333052 54.646465 
L 460.556205 54.575744 
L 464.225664 54.840039 
L 466.67197 55.00304 
L 467.895124 54.025519 
L 469.118277 53.860669 
L 474.010889 54.067285 
L 475.234042 54.041287 
L 476.457195 54.157974 
L 477.680348 54.023424 
L 478.903502 52.539937 
L 480.126655 52.391197 
L 483.796114 52.681342 
L 485.019267 52.483531 
L 488.688727 52.68011 
L 489.91188 52.220192 
L 491.135033 52.247647 
L 492.358186 52.028633 
L 493.581339 52.142015 
L 494.804492 51.744252 
L 497.250798 51.936983 
L 498.473952 51.822876 
L 499.697105 51.928717 
L 500.920258 51.735982 
L 505.81287 52.074287 
L 508.259177 51.846355 
L 510.705483 52.022386 
L 511.928636 50.556439 
L 515.598095 50.809524 
L 515.598095 50.809524 
" clip-path="url(#pe108e04345)" style="fill: none; stroke-dasharray: 5.55,2.4; stroke-dashoffset: 0; stroke: #ff8c00; stroke-width: 1.5"/>
   </g>
   <g id="patch_3">
    <path d="M 27.56 97 
L 27.56 0 
" style="fill: none; stroke: #000000; stroke-width: 0.8; stroke-linejoin: miter; stroke-linecap: square"/>
   </g>
   <g id="patch_4">
    <path d="M 540 97 
L 540 0 
" style="fill: none; stroke: #000000; stroke-width: 0.8; stroke-linejoin: miter; stroke-linecap: square"/>
   </g>
   <g id="patch_5">
    <path d="M 27.56 97 
L 540 97 
" style="fill: none; stroke: #000000; stroke-width: 0.8; stroke-linejoin: miter; stroke-linecap: square"/>
   </g>
   <g id="patch_6">
    <path d="M 27.56 0 
L 540 0 
" style="fill: none; stroke: #000000; stroke-width: 0.8; stroke-linejoin: miter; stroke-linecap: square"/>
   </g>
  </g>
 </g>
 <defs>
  <clipPath id="pe108e04345">
   <rect x="27.56" y="0" width="512.44" height="97"/>
  </clipPath>
 </defs>
</svg>
