<?xml version="1.0" encoding="utf-8" standalone="no"?>
<!DOCTYPE svg PUBLIC "-//W3C//DTD SVG 1.1//EN"
  "http://www.w3.org/Graphics/SVG/1.1/DTD/svg11.dtd">
<svg xmlns:xlink="http://www.w3.org/1999/xlink" width="540pt" height="129.6pt" viewBox="0 0 540 129.6" xmlns="http://www.w3.org/2000/svg" version="1.1">
 <metadata>
  <rdf:RDF xmlns:dc="http://purl.org/dc/elements/1.1/" xmlns:cc="http://creativecommons.org/ns#" xmlns:rdf="http://www.w3.org/1999/02/22-rdf-syntax-ns#">
   <cc:Work>
    <dc:type rdf:resource="http://purl.org/dc/dcmitype/StillImage"/>
    <dc:date>2025-03-30T21:38:10.244593</dc:date>
    <dc:format>image/svg+xml</dc:format>
    <dc:creator>
     <cc:Agent>
      <dc:title>Matplotlib v3.10.1, https://matplotlib.org/</dc:title>
     </cc:Agent>
    </dc:creator>
   </cc:Work>
  </rdf:RDF>
 </metadata>
 <defs>
  <style type="text/css">*{stroke-linejoin: round; stroke-linecap: butt}</style>
 </defs>
 <g id="figure_1">
  <g id="patch_1">
   <path d="M 0 129.6 
L 540 129.6 
L 540 0 
L 0 0 
z
" style="fill: #ffffff"/>
  </g>
  <g id="axes_1">
   <g id="patch_2">
    <path d="M 35.03 97 
L 540 97 
L 540 0 
L 35.03 0 
z
" style="fill: #ffffff"/>
   </g>
   <g id="matplotlib.axis_1">
    <g id="xtick_1">
     <g id="line2d_1">
      <path d="M 35.03 97 
L 35.03 0 
" clip-path="url(#p90731ab88d)" style="fill: none; stroke: #b0b0b0; stroke-width: 0.8; stroke-linecap: square"/>
     </g>
     <g id="line2d_2">
      <defs>
       <path id="m1ba3b71881" d="M 0 0 
L 0 3.5 
" style="stroke: #000000; stroke-width: 0.8"/>
      </defs>
      <g>
       <use xlink:href="#m1ba3b71881" x="35.03" y="97" style="stroke: #000000; stroke-width: 0.8"/>
      </g>
     </g>
     <g id="text_1">
      <text style="font-size: 10px; font-family: 'Times New Roman'; text-anchor: middle" x="35.03" y="110.94375" transform="rotate(-0 35.03 110.94375)">0</text>
     </g>
    </g>
    <g id="xtick_2">
     <g id="line2d_3">
      <path d="M 95.296142 97 
L 95.296142 0 
" clip-path="url(#p90731ab88d)" style="fill: none; stroke: #b0b0b0; stroke-width: 0.8; stroke-linecap: square"/>
     </g>
     <g id="line2d_4">
      <g>
       <use xlink:href="#m1ba3b71881" x="95.296142" y="97" style="stroke: #000000; stroke-width: 0.8"/>
      </g>
     </g>
     <g id="text_2">
      <text style="font-size: 10px; font-family: 'Times New Roman'; text-anchor: middle" x="95.296142" y="110.94375" transform="rotate(-0 95.296142 110.94375)">50</text>
     </g>
    </g>
    <g id="xtick_3">
     <g id="line2d_5">
      <path d="M 155.562283 97 
L 155.562283 0 
" clip-path="url(#p90731ab88d)" style="fill: none; stroke: #b0b0b0; stroke-width: 0.8; stroke-linecap: square"/>
     </g>
     <g id="line2d_6">
      <g>
       <use xlink:href="#m1ba3b71881" x="155.562283" y="97" style="stroke: #000000; stroke-width: 0.8"/>
      </g>
     </g>
     <g id="text_3">
      <text style="font-size: 10px; font-family: 'Times New Roman'; text-anchor: middle" x="155.562283" y="110.94375" transform="rotate(-0 155.562283 110.94375)">100</text>
     </g>
    </g>
    <g id="xtick_4">
     <g id="line2d_7">
      <path d="M 215.828425 97 
L 215.828425 0 
" clip-path="url(#p90731ab88d)" style="fill: none; stroke: #b0b0b0; stroke-width: 0.8; stroke-linecap: square"/>
     </g>
     <g id="line2d_8">
      <g>
       <use xlink:href="#m1ba3b71881" x="215.828425" y="97" style="stroke: #000000; stroke-width: 0.8"/>
      </g>
     </g>
     <g id="text_4">
      <text style="font-size: 10px; font-family: 'Times New Roman'; text-anchor: middle" x="215.828425" y="110.94375" transform="rotate(-0 215.828425 110.94375)">150</text>
     </g>
    </g>
    <g id="xtick_5">
     <g id="line2d_9">
      <path d="M 276.094566 97 
L 276.094566 0 
" clip-path="url(#p90731ab88d)" style="fill: none; stroke: #b0b0b0; stroke-width: 0.8; stroke-linecap: square"/>
     </g>
     <g id="line2d_10">
      <g>
       <use xlink:href="#m1ba3b71881" x="276.094566" y="97" style="stroke: #000000; stroke-width: 0.8"/>
      </g>
     </g>
     <g id="text_5">
      <text style="font-size: 10px; font-family: 'Times New Roman'; text-anchor: middle" x="276.094566" y="110.94375" transform="rotate(-0 276.094566 110.94375)">200</text>
     </g>
    </g>
    <g id="xtick_6">
     <g id="line2d_11">
      <path d="M 336.360708 97 
L 336.360708 0 
" clip-path="url(#p90731ab88d)" style="fill: none; stroke: #b0b0b0; stroke-width: 0.8; stroke-linecap: square"/>
     </g>
     <g id="line2d_12">
      <g>
       <use xlink:href="#m1ba3b71881" x="336.360708" y="97" style="stroke: #000000; stroke-width: 0.8"/>
      </g>
     </g>
     <g id="text_6">
      <text style="font-size: 10px; font-family: 'Times New Roman'; text-anchor: middle" x="336.360708" y="110.94375" transform="rotate(-0 336.360708 110.94375)">250</text>
     </g>
    </g>
    <g id="xtick_7">
     <g id="line2d_13">
      <path d="M 396.626849 97 
L 396.626849 0 
" clip-path="url(#p90731ab88d)" style="fill: none; stroke: #b0b0b0; stroke-width: 0.8; stroke-linecap: square"/>
     </g>
     <g id="line2d_14">
      <g>
       <use xlink:href="#m1ba3b71881" x="396.626849" y="97" style="stroke: #000000; stroke-width: 0.8"/>
      </g>
     </g>
     <g id="text_7">
      <text style="font-size: 10px; font-family: 'Times New Roman'; text-anchor: middle" x="396.626849" y="110.94375" transform="rotate(-0 396.626849 110.94375)">300</text>
     </g>
    </g>
    <g id="xtick_8">
     <g id="line2d_15">
      <path d="M 456.892991 97 
L 456.892991 0 
" clip-path="url(#p90731ab88d)" style="fill: none; stroke: #b0b0b0; stroke-width: 0.8; stroke-linecap: square"/>
     </g>
     <g id="line2d_16">
      <g>
       <use xlink:href="#m1ba3b71881" x="456.892991" y="97" style="stroke: #000000; stroke-width: 0.8"/>
      </g>
     </g>
     <g id="text_8">
      <text style="font-size: 10px; font-family: 'Times New Roman'; text-anchor: middle" x="456.892991" y="110.94375" transform="rotate(-0 456.892991 110.94375)">350</text>
     </g>
    </g>
    <g id="xtick_9">
     <g id="line2d_17">
      <path d="M 517.159132 97 
L 517.159132 0 
" clip-path="url(#p90731ab88d)" style="fill: none; stroke: #b0b0b0; stroke-width: 0.8; stroke-linecap: square"/>
     </g>
     <g id="line2d_18">
      <g>
       <use xlink:href="#m1ba3b71881" x="517.159132" y="97" style="stroke: #000000; stroke-width: 0.8"/>
      </g>
     </g>
     <g id="text_9">
      <text style="font-size: 10px; font-family: 'Times New Roman'; text-anchor: middle" x="517.159132" y="110.94375" transform="rotate(-0 517.159132 110.94375)">400</text>
     </g>
    </g>
    <g id="text_10">
     <text style="font-size: 12px; font-family: 'Times New Roman'; text-anchor: middle" x="287.515" y="125.415312" transform="rotate(-0 287.515 125.415312)">Simulation Run</text>
    </g>
   </g>
   <g id="matplotlib.axis_2">
    <g id="ytick_1">
     <g id="line2d_19">
      <path d="M 35.03 97 
L 540 97 
" clip-path="url(#p90731ab88d)" style="fill: none; stroke: #b0b0b0; stroke-width: 0.8; stroke-linecap: square"/>
     </g>
     <g id="line2d_20">
      <defs>
       <path id="m09d36fc850" d="M 0 0 
L -3.5 0 
" style="stroke: #000000; stroke-width: 0.8"/>
      </defs>
      <g>
       <use xlink:href="#m09d36fc850" x="35.03" y="97" style="stroke: #000000; stroke-width: 0.8"/>
      </g>
     </g>
     <g id="text_11">
      <text style="font-size: 10px; font-family: 'Times New Roman'; text-anchor: end" x="28.03" y="100.471875" transform="rotate(-0 28.03 100.471875)">0.0</text>
     </g>
    </g>
    <g id="ytick_2">
     <g id="line2d_21">
      <path d="M 35.03 62.357143 
L 540 62.357143 
" clip-path="url(#p90731ab88d)" style="fill: none; stroke: #b0b0b0; stroke-width: 0.8; stroke-linecap: square"/>
     </g>
     <g id="line2d_22">
      <g>
       <use xlink:href="#m09d36fc850" x="35.03" y="62.357143" style="stroke: #000000; stroke-width: 0.8"/>
      </g>
     </g>
     <g id="text_12">
      <text style="font-size: 10px; font-family: 'Times New Roman'; text-anchor: end" x="28.03" y="65.829018" transform="rotate(-0 28.03 65.829018)">0.5</text>
     </g>
    </g>
    <g id="ytick_3">
     <g id="line2d_23">
      <path d="M 35.03 27.714286 
L 540 27.714286 
" clip-path="url(#p90731ab88d)" style="fill: none; stroke: #b0b0b0; stroke-width: 0.8; stroke-linecap: square"/>
     </g>
     <g id="line2d_24">
      <g>
       <use xlink:href="#m09d36fc850" x="35.03" y="27.714286" style="stroke: #000000; stroke-width: 0.8"/>
      </g>
     </g>
     <g id="text_13">
      <text style="font-size: 10px; font-family: 'Times New Roman'; text-anchor: end" x="28.03" y="31.186161" transform="rotate(-0 28.03 31.186161)">1.0</text>
     </g>
    </g>
    <g id="text_14">
     <text style="font-size: 12px; font-family: 'Times New Roman'; text-anchor: middle" x="8.963125" y="48.5" transform="rotate(-90 8.963125 48.5)">Normalized Value</text>
    </g>
   </g>
   <g id="line2d_25">
    <path d="M 35.03 51.364278 
L 36.235323 36.103622 
L 37.440646 37.759895 
L 38.645968 38.557172 
L 39.851291 33.289883 
L 41.056614 25.547202 
L 42.261937 28.227095 
L 43.46726 29.544836 
L 44.672583 27.761498 
L 45.877905 30.302368 
L 47.083228 29.104121 
L 48.288551 27.697753 
L 50.699197 30.335005 
L 51.90452 28.912251 
L 53.109842 29.6086 
L 54.315165 30.797742 
L 55.520488 28.951279 
L 56.725811 28.497325 
L 57.931134 29.557515 
L 59.136457 29.234768 
L 60.341779 28.496018 
L 61.547102 28.16344 
L 62.752425 28.428147 
L 63.957748 28.177527 
L 65.163071 27.355863 
L 66.368394 28.1843 
L 67.573716 27.863439 
L 69.984362 29.087351 
L 71.189685 27.858208 
L 72.395008 28.625644 
L 73.600331 27.984289 
L 74.805653 28.206543 
L 76.010976 28.022667 
L 77.216299 27.250672 
L 78.421622 26.757037 
L 79.626945 27.052395 
L 80.832268 27.190594 
L 82.03759 26.545527 
L 84.448236 27.120954 
L 85.653559 27.193993 
L 86.858882 27.60033 
L 88.064205 27.771087 
L 89.269527 28.057668 
L 90.47485 27.964283 
L 92.885496 28.575091 
L 94.090819 28.526034 
L 95.296142 28.921122 
L 96.501464 29.085673 
L 97.706787 28.988871 
L 100.117433 29.405099 
L 101.322756 28.610693 
L 102.528079 28.544901 
L 103.733401 29.04981 
L 104.938724 29.107234 
L 106.144047 29.628929 
L 107.34937 28.792637 
L 108.554693 28.76455 
L 109.760016 29.182659 
L 110.965338 29.406558 
L 112.170661 29.378034 
L 113.375984 29.235151 
L 114.581307 29.500155 
L 116.991953 30.292878 
L 118.197275 30.560892 
L 119.402598 29.956227 
L 120.607921 30.060865 
L 121.813244 29.841534 
L 123.018567 29.504464 
L 124.223889 29.667426 
L 125.429212 29.39702 
L 126.634535 29.823288 
L 127.839858 29.54835 
L 129.045181 29.557372 
L 130.250504 29.719269 
L 132.661149 29.858001 
L 135.071795 30.115664 
L 136.277118 30.32774 
L 137.482441 30.762765 
L 138.687763 30.539207 
L 139.893086 30.72781 
L 141.098409 30.559133 
L 144.714378 30.693057 
L 145.9197 30.858931 
L 147.125023 30.879988 
L 148.330346 30.678151 
L 151.946315 30.881084 
L 153.151637 30.60805 
L 155.562283 30.400792 
L 156.767606 30.467644 
L 157.972929 30.200505 
L 159.178252 30.352023 
L 161.588897 30.164227 
L 162.79422 29.665723 
L 165.204866 29.89375 
L 168.820834 29.774835 
L 170.026157 29.880736 
L 171.23148 29.675141 
L 172.436803 29.638875 
L 174.847448 29.957664 
L 178.463417 29.946757 
L 179.66874 29.852429 
L 180.874063 29.61182 
L 185.695354 29.78084 
L 188.106 29.492221 
L 189.311322 29.647872 
L 191.721968 29.720009 
L 192.927291 29.873393 
L 201.364551 29.90164 
L 202.569873 29.760585 
L 203.775196 29.877537 
L 207.391165 29.846049 
L 211.007133 29.901115 
L 212.212456 29.848836 
L 214.623102 30.00287 
L 217.033747 29.885092 
L 221.855039 29.189733 
L 223.060362 29.15549 
L 225.471007 28.612823 
L 226.67633 28.710898 
L 227.881653 28.613205 
L 229.086976 28.676647 
L 230.292299 28.627916 
L 231.497621 28.016544 
L 235.11359 27.844811 
L 236.318913 27.964213 
L 245.961495 28.003224 
L 247.166818 27.658776 
L 248.372141 27.651045 
L 253.193432 28.315749 
L 255.604078 28.466271 
L 259.220047 28.103742 
L 261.630692 28.224792 
L 262.836015 28.125016 
L 273.683921 28.418456 
L 276.094566 28.186166 
L 277.299889 28.154309 
L 278.505212 28.242108 
L 282.12118 28.093212 
L 288.147794 28.445476 
L 289.353117 28.349462 
L 291.763763 28.43052 
L 292.969086 28.601425 
L 294.174409 28.557237 
L 295.379731 28.329931 
L 297.790377 28.405864 
L 298.9957 28.362852 
L 301.406346 28.485388 
L 308.638283 28.612828 
L 311.048928 28.697041 
L 313.459574 28.525149 
L 318.280865 28.1397 
L 333.950062 28.430909 
L 336.360708 28.354118 
L 342.387322 28.399946 
L 343.592645 28.195629 
L 349.619259 28.399378 
L 350.824582 28.309022 
L 354.44055 28.33587 
L 360.467164 28.110507 
L 362.87781 28.219607 
L 368.904424 28.153867 
L 370.109747 28.099618 
L 373.725715 28.208345 
L 376.136361 28.182329 
L 379.75233 28.311745 
L 382.162975 28.460759 
L 384.573621 28.422705 
L 399.037495 28.379411 
L 406.269432 28.598824 
L 407.474755 28.716367 
L 417.117337 28.50863 
L 420.733306 28.641387 
L 426.75992 28.367314 
L 431.581211 28.4012 
L 441.223794 28.576914 
L 453.277022 28.643515 
L 456.892991 28.683358 
L 462.919605 28.562933 
L 465.330251 28.35723 
L 470.151542 28.074354 
L 476.178156 27.92721 
L 478.588802 27.96081 
L 482.20477 27.634854 
L 484.615416 27.78213 
L 485.820739 27.686675 
L 489.436707 27.772543 
L 491.847353 27.770372 
L 495.463321 27.788823 
L 499.07929 27.785316 
L 501.489936 27.684099 
L 507.51655 27.664586 
L 509.927195 27.72241 
L 511.132518 27.669596 
L 512.337841 27.764069 
L 514.748487 27.7137 
L 515.95381 27.714286 
L 515.95381 27.714286 
" clip-path="url(#p90731ab88d)" style="fill: none; stroke: #4169e1; stroke-width: 1.5; stroke-linecap: square"/>
   </g>
   <g id="line2d_26">
    <path d="M 35.03 97 
L 36.235323 53.077306 
L 37.440646 66.683453 
L 38.645968 73.902938 
L 39.851291 57.591983 
L 41.056614 7.62786 
L 42.261937 12.26834 
L 43.46726 20.567342 
L 44.672583 24.261423 
L 45.877905 20.576813 
L 47.083228 24.81646 
L 48.288551 26.728455 
L 49.493874 28.098823 
L 50.699197 28.864101 
L 51.90452 28.061708 
L 53.109842 30.998563 
L 54.315165 30.613926 
L 55.520488 23.370725 
L 56.725811 26.546367 
L 57.931134 26.041291 
L 59.136457 29.027364 
L 60.341779 29.955522 
L 62.752425 34.798799 
L 63.957748 37.002542 
L 65.163071 36.126881 
L 66.368394 35.016055 
L 67.573716 36.705516 
L 68.779039 36.456284 
L 69.984362 36.759797 
L 71.189685 30.154946 
L 72.395008 28.800444 
L 73.600331 28.3846 
L 76.010976 31.790021 
L 77.216299 29.667361 
L 78.421622 29.8327 
L 79.626945 30.991506 
L 80.832268 32.547153 
L 82.03759 31.097803 
L 83.242913 32.205859 
L 84.448236 32.965843 
L 85.653559 34.412752 
L 86.858882 34.49618 
L 88.064205 35.643189 
L 89.269527 36.280003 
L 90.47485 37.49626 
L 91.680173 38.114783 
L 92.885496 38.232157 
L 94.090819 39.385273 
L 95.296142 39.042998 
L 98.91211 41.629185 
L 100.117433 42.023999 
L 101.322756 36.459508 
L 102.528079 37.475905 
L 103.733401 35.761596 
L 104.938724 36.763464 
L 106.144047 34.738914 
L 107.34937 27.845345 
L 108.554693 28.951666 
L 109.760016 27.987641 
L 110.965338 28.470317 
L 112.170661 29.514799 
L 113.375984 30.287029 
L 114.581307 30.408589 
L 115.78663 29.197924 
L 116.991953 28.363374 
L 118.197275 28.409121 
L 119.402598 24.54827 
L 120.607921 25.40793 
L 121.813244 25.735401 
L 123.018567 25.134183 
L 124.223889 25.721757 
L 125.429212 25.625355 
L 126.634535 23.947819 
L 127.839858 23.786637 
L 129.045181 24.712191 
L 130.250504 25.225266 
L 131.455826 26.09093 
L 133.866472 27.46503 
L 135.071795 27.938498 
L 136.277118 28.038458 
L 137.482441 25.806517 
L 138.687763 25.814204 
L 141.098409 26.364567 
L 143.509055 27.892458 
L 145.9197 28.478524 
L 147.125023 29.199699 
L 148.330346 29.191166 
L 149.535669 29.762583 
L 150.740992 29.872205 
L 151.946315 30.483709 
L 153.151637 29.777741 
L 155.562283 30.703419 
L 156.767606 31.268255 
L 157.972929 30.533595 
L 159.178252 30.726725 
L 160.383574 31.328174 
L 161.588897 31.508861 
L 162.79422 27.152871 
L 163.999543 27.43643 
L 165.204866 27.895123 
L 168.820834 29.646712 
L 170.026157 30.00586 
L 171.23148 29.692689 
L 172.436803 30.249692 
L 174.847448 30.28813 
L 177.258094 31.363594 
L 179.66874 32.127882 
L 180.874063 31.33847 
L 183.284708 32.270079 
L 184.490031 32.714 
L 185.695354 32.828759 
L 186.900677 32.758986 
L 188.106 32.836801 
L 189.311322 32.749321 
L 191.721968 33.629634 
L 192.927291 33.528443 
L 194.132614 33.999688 
L 195.337937 34.303387 
L 196.543259 34.215751 
L 198.953905 35.108013 
L 200.159228 35.050294 
L 201.364551 35.219669 
L 202.569873 35.139364 
L 203.775196 35.216943 
L 209.80181 37.176666 
L 213.417779 38.071018 
L 215.828425 38.532525 
L 217.033747 38.837524 
L 218.23907 38.142715 
L 219.444393 36.947558 
L 220.649716 37.261047 
L 221.855039 36.261633 
L 223.060362 36.614001 
L 225.471007 33.013139 
L 227.881653 33.233358 
L 230.292299 33.82175 
L 231.497621 22.716425 
L 232.702944 23.009077 
L 233.908267 23.016385 
L 235.11359 23.448879 
L 236.318913 23.437647 
L 238.729558 24.2914 
L 239.934881 24.455291 
L 244.756173 25.972619 
L 245.961495 26.339001 
L 247.166818 22.799957 
L 248.372141 23.214816 
L 249.577464 22.430525 
L 250.782787 21.470967 
L 251.98811 21.667935 
L 253.193432 20.802017 
L 254.398755 20.74988 
L 255.604078 21.125106 
L 256.809401 21.171155 
L 258.014724 21.572007 
L 259.220047 19.850589 
L 260.425369 20.050387 
L 261.630692 20.389568 
L 262.836015 20.437923 
L 264.041338 20.806167 
L 265.246661 20.776178 
L 267.657306 21.490771 
L 270.067952 21.607597 
L 271.273275 21.942579 
L 272.478598 21.959496 
L 273.683921 22.114941 
L 274.889243 21.695784 
L 276.094566 21.785722 
L 277.299889 22.119597 
L 279.710535 22.336428 
L 280.915858 22.549072 
L 282.12118 22.907022 
L 284.531826 23.199242 
L 285.737149 23.495808 
L 286.942472 23.346683 
L 288.147794 23.574774 
L 289.353117 23.554263 
L 291.763763 24.109313 
L 292.969086 23.269469 
L 294.174409 23.53164 
L 295.379731 21.765364 
L 296.585054 21.937195 
L 298.9957 22.538339 
L 300.201023 22.538484 
L 307.43296 24.208983 
L 309.843605 24.319402 
L 311.048928 24.635392 
L 312.254251 24.146486 
L 313.459574 24.404346 
L 315.87022 24.159735 
L 317.075542 23.607693 
L 325.512802 25.211496 
L 326.718125 25.140192 
L 329.128771 25.478974 
L 330.334094 25.723422 
L 331.539416 25.708661 
L 338.771353 26.913842 
L 341.181999 27.27608 
L 342.387322 27.537824 
L 343.592645 25.792561 
L 346.00329 26.07174 
L 347.208613 25.4488 
L 348.413936 25.62773 
L 350.824582 25.448014 
L 358.056519 26.557231 
L 360.467164 26.820344 
L 361.672487 26.78304 
L 367.699101 27.758196 
L 371.31507 27.889342 
L 372.520393 28.071558 
L 373.725715 28.031676 
L 379.75233 28.818745 
L 380.957652 28.247879 
L 382.162975 28.446574 
L 383.368298 28.40055 
L 385.778944 28.801708 
L 386.984267 29.032213 
L 389.394912 29.249279 
L 390.600235 29.477796 
L 391.805558 29.568913 
L 393.010881 29.788425 
L 397.832172 30.177757 
L 400.242818 30.579705 
L 401.448141 30.540801 
L 402.653463 30.754741 
L 403.858786 30.649073 
L 405.064109 30.864116 
L 406.269432 30.962028 
L 407.474755 30.369869 
L 408.680078 30.514906 
L 409.8854 30.001232 
L 414.706692 30.729027 
L 417.117337 30.773603 
L 418.32266 30.665886 
L 419.527983 30.690131 
L 420.733306 30.895141 
L 423.143952 30.808887 
L 424.349274 30.418553 
L 425.554597 30.346547 
L 429.170566 30.809759 
L 430.375889 30.503759 
L 432.786534 30.828281 
L 433.991857 30.269774 
L 437.607826 30.733981 
L 438.813148 30.206734 
L 440.018471 30.399833 
L 441.223794 30.296476 
L 443.63444 30.684814 
L 444.839763 30.731468 
L 448.455731 31.247276 
L 449.661054 31.285153 
L 452.071699 31.605049 
L 454.482345 31.739039 
L 458.098314 32.223406 
L 459.303636 31.949122 
L 461.714282 32.211641 
L 462.919605 31.98685 
L 464.124928 30.67226 
L 466.535573 30.700223 
L 467.740896 30.726718 
L 468.946219 30.42317 
L 470.151542 29.83659 
L 471.356865 29.876471 
L 474.972833 30.286482 
L 476.178156 30.188397 
L 478.588802 30.43522 
L 479.794125 29.662632 
L 480.999447 29.619763 
L 482.20477 28.178681 
L 483.410093 27.719529 
L 484.615416 27.718236 
L 485.820739 27.260279 
L 487.026062 27.275737 
L 489.436707 27.586685 
L 493.052676 27.877162 
L 494.257999 27.888498 
L 497.873967 28.274113 
L 499.07929 28.287794 
L 500.284613 28.465314 
L 501.489936 27.90379 
L 502.695258 28.059773 
L 503.900581 27.790692 
L 507.51655 28.16432 
L 508.721873 27.904446 
L 509.927195 28.053253 
L 511.132518 28.019571 
L 512.337841 27.526753 
L 513.543164 27.382754 
L 515.95381 27.714286 
L 515.95381 27.714286 
" clip-path="url(#p90731ab88d)" style="fill: none; stroke-dasharray: 5.55,2.4; stroke-dashoffset: 0; stroke: #4169e1; stroke-width: 1.5"/>
   </g>
   <g id="line2d_27">
    <path d="M 35.03 41.951918 
L 36.235323 31.84452 
L 37.440646 34.496994 
L 38.645968 35.205499 
L 41.056614 24.875601 
L 42.261937 26.928895 
L 43.46726 28.279527 
L 44.672583 26.791281 
L 45.877905 29.1475 
L 47.083228 28.216814 
L 48.288551 26.961754 
L 49.493874 28.45997 
L 50.699197 29.440438 
L 51.90452 28.145976 
L 53.109842 28.594938 
L 54.315165 29.473488 
L 55.520488 28.091159 
L 56.725811 27.574997 
L 57.931134 28.449804 
L 59.136457 28.636793 
L 60.341779 27.99523 
L 61.547102 27.828353 
L 62.752425 27.953993 
L 63.957748 27.764975 
L 65.163071 27.183978 
L 66.368394 27.886141 
L 67.573716 27.637511 
L 69.984362 28.546748 
L 71.189685 27.844523 
L 72.395008 28.576308 
L 73.600331 28.151773 
L 74.805653 28.334741 
L 76.010976 28.127393 
L 77.216299 27.416258 
L 78.421622 27.097723 
L 79.626945 27.368509 
L 80.832268 27.3519 
L 82.03759 26.791555 
L 83.242913 26.969218 
L 84.448236 27.310082 
L 85.653559 27.196186 
L 86.858882 27.588396 
L 88.064205 27.669166 
L 89.269527 27.973328 
L 90.47485 27.819988 
L 92.885496 28.476697 
L 94.090819 28.363685 
L 96.501464 28.688736 
L 98.91211 28.693038 
L 100.117433 28.909257 
L 101.322756 28.156247 
L 102.528079 28.025894 
L 103.733401 28.506283 
L 104.938724 28.480361 
L 106.144047 28.98427 
L 107.34937 28.092785 
L 108.554693 28.017495 
L 109.760016 28.304411 
L 110.965338 28.434607 
L 113.375984 28.246594 
L 115.78663 28.813174 
L 116.991953 29.143931 
L 118.197275 29.328885 
L 119.402598 28.794892 
L 120.607921 28.859869 
L 123.018567 28.560709 
L 124.223889 28.768517 
L 125.429212 28.57445 
L 126.634535 28.980564 
L 127.839858 28.735026 
L 129.045181 28.723552 
L 131.455826 28.945836 
L 132.661149 28.975366 
L 136.277118 29.457851 
L 137.482441 29.852112 
L 138.687763 29.656299 
L 139.893086 29.8653 
L 141.098409 29.755836 
L 144.714378 29.90352 
L 145.9197 30.07013 
L 147.125023 30.070222 
L 148.330346 29.866371 
L 151.946315 30.047036 
L 154.35696 29.592277 
L 155.562283 29.500669 
L 156.767606 29.554448 
L 157.972929 29.350533 
L 159.178252 29.446254 
L 161.588897 29.318549 
L 162.79422 28.993583 
L 165.204866 29.250219 
L 170.026157 29.266868 
L 171.23148 29.072625 
L 172.436803 29.021715 
L 176.052771 29.362733 
L 179.66874 29.264641 
L 180.874063 29.013268 
L 184.490031 28.973673 
L 185.695354 29.100842 
L 188.106 28.890794 
L 190.516645 29.057002 
L 195.337937 29.300474 
L 196.543259 29.156 
L 200.159228 29.21518 
L 202.569873 29.000596 
L 203.775196 29.09547 
L 204.980519 29.015408 
L 207.391165 29.087757 
L 211.007133 29.134568 
L 213.417779 29.103053 
L 214.623102 29.207127 
L 217.033747 29.152722 
L 220.649716 28.758477 
L 221.855039 28.597585 
L 223.060362 28.613325 
L 225.471007 28.188805 
L 226.67633 28.263879 
L 227.881653 28.204014 
L 230.292299 28.294902 
L 231.497621 27.879176 
L 233.908267 27.680719 
L 237.524236 27.840229 
L 242.345527 27.759925 
L 245.961495 27.744001 
L 247.166818 27.461598 
L 249.577464 27.63051 
L 250.782787 27.794839 
L 251.98811 27.829699 
L 254.398755 28.076453 
L 258.014724 28.035695 
L 259.220047 27.858434 
L 261.630692 27.980084 
L 264.041338 27.947363 
L 265.246661 28.058061 
L 270.067952 27.979536 
L 274.889243 28.047637 
L 277.299889 27.940839 
L 278.505212 28.012503 
L 282.12118 27.895385 
L 288.147794 28.204684 
L 289.353117 28.111855 
L 291.763763 28.182506 
L 292.969086 28.339209 
L 298.9957 28.12482 
L 301.406346 28.199816 
L 308.638283 28.360625 
L 311.048928 28.424463 
L 318.280865 27.957647 
L 320.691511 27.94075 
L 330.334094 28.094117 
L 332.744739 28.18398 
L 347.208613 28.342114 
L 348.413936 28.382605 
L 352.029905 28.261721 
L 358.056519 28.133475 
L 379.75233 28.237277 
L 382.162975 28.369439 
L 383.368298 28.262687 
L 386.984267 28.269184 
L 400.242818 28.266532 
L 407.474755 28.549961 
L 418.32266 28.354296 
L 420.733306 28.408134 
L 425.554597 28.209791 
L 461.714282 28.474764 
L 476.178156 27.880097 
L 478.588802 27.911623 
L 482.20477 27.664125 
L 484.615416 27.781384 
L 487.026062 27.751617 
L 502.695258 27.709756 
L 505.105904 27.649371 
L 515.95381 27.714286 
L 515.95381 27.714286 
" clip-path="url(#p90731ab88d)" style="fill: none; stroke: #ff8c00; stroke-width: 1.5; stroke-linecap: square"/>
   </g>
   <g id="line2d_28">
    <path d="M 35.03 97 
L 36.235323 68.73656 
L 38.645968 79.531936 
L 39.851291 55.711221 
L 41.056614 22.824682 
L 42.261937 26.422738 
L 43.46726 31.712102 
L 44.672583 34.064172 
L 45.877905 26.534198 
L 47.083228 30.543821 
L 48.288551 31.288161 
L 49.493874 28.890853 
L 50.699197 30.29834 
L 51.90452 28.255 
L 53.109842 31.715082 
L 54.315165 32.138731 
L 55.520488 26.755064 
L 56.725811 29.125413 
L 57.931134 28.496383 
L 59.136457 31.564992 
L 60.341779 32.147952 
L 62.752425 37.289411 
L 63.957748 39.440608 
L 65.163071 39.319716 
L 66.368394 37.909553 
L 67.573716 39.558165 
L 68.779039 40.070569 
L 69.984362 40.166655 
L 71.189685 37.907197 
L 72.395008 35.161072 
L 73.600331 35.439377 
L 74.805653 36.944343 
L 76.010976 38.255808 
L 77.216299 34.990714 
L 78.421622 35.656083 
L 79.626945 36.519813 
L 80.832268 38.067687 
L 82.03759 36.153162 
L 83.242913 37.287927 
L 84.448236 37.39172 
L 85.653559 38.627226 
L 86.858882 38.123883 
L 88.064205 39.352827 
L 89.269527 39.454249 
L 90.47485 40.379392 
L 91.680173 40.334179 
L 92.885496 39.865745 
L 94.090819 40.835294 
L 95.296142 41.361609 
L 97.706787 43.220867 
L 98.91211 44.172369 
L 100.117433 44.434434 
L 101.322756 36.74509 
L 102.528079 37.538938 
L 103.733401 34.92492 
L 104.938724 35.966258 
L 106.144047 32.8387 
L 107.34937 20.698069 
L 108.554693 21.83308 
L 109.760016 21.614161 
L 110.965338 22.496614 
L 112.170661 23.60375 
L 113.375984 24.358095 
L 114.581307 24.414184 
L 116.991953 22.479174 
L 118.197275 22.890746 
L 119.402598 18.412291 
L 120.607921 19.420854 
L 121.813244 20.267145 
L 123.018567 20.536728 
L 125.429212 20.894981 
L 126.634535 18.415531 
L 127.839858 18.1387 
L 129.045181 19.134104 
L 130.250504 19.635754 
L 132.661149 21.378918 
L 133.866472 21.523191 
L 135.071795 22.194263 
L 136.277118 22.153046 
L 137.482441 19.367975 
L 138.687763 19.348015 
L 139.893086 19.179037 
L 141.098409 19.76171 
L 143.509055 21.419996 
L 145.9197 21.623199 
L 147.125023 22.42508 
L 148.330346 22.129398 
L 149.535669 22.795695 
L 150.740992 22.82633 
L 151.946315 23.512408 
L 153.151637 22.650929 
L 154.35696 22.168694 
L 155.562283 22.677423 
L 156.767606 23.32526 
L 157.972929 22.867146 
L 159.178252 23.318867 
L 161.588897 24.468124 
L 162.79422 22.049085 
L 163.999543 22.184395 
L 165.204866 22.445819 
L 167.615511 23.728357 
L 168.820834 24.319187 
L 170.026157 24.601927 
L 171.23148 24.057449 
L 172.436803 24.609989 
L 173.642126 24.600027 
L 174.847448 24.447208 
L 178.463417 26.183207 
L 179.66874 26.42437 
L 180.874063 24.887572 
L 183.284708 25.979644 
L 184.490031 26.452335 
L 185.695354 26.452972 
L 188.106 26.783033 
L 189.311322 26.659793 
L 191.721968 27.607737 
L 192.927291 27.443096 
L 194.132614 27.962032 
L 195.337937 28.325451 
L 196.543259 28.060346 
L 198.953905 28.963227 
L 200.159228 29.21679 
L 201.364551 29.168948 
L 204.980519 29.655249 
L 206.185842 29.853977 
L 209.80181 31.145749 
L 211.007133 31.56508 
L 213.417779 32.268318 
L 214.623102 32.25337 
L 217.033747 33.043371 
L 219.444393 31.592929 
L 220.649716 31.835556 
L 221.855039 31.143217 
L 223.060362 31.551994 
L 225.471007 28.46132 
L 229.086976 28.936742 
L 230.292299 29.353947 
L 231.497621 21.972641 
L 232.702944 22.080469 
L 233.908267 21.969149 
L 235.11359 22.261253 
L 236.318913 22.311182 
L 238.729558 23.114368 
L 242.345527 23.964773 
L 245.961495 25.016679 
L 247.166818 21.540088 
L 248.372141 21.898461 
L 249.577464 21.455776 
L 250.782787 20.538162 
L 251.98811 20.900087 
L 253.193432 20.098374 
L 254.398755 20.1046 
L 255.604078 20.509939 
L 256.809401 20.764888 
L 258.014724 21.174728 
L 259.220047 19.963308 
L 261.630692 20.393696 
L 264.041338 21.088512 
L 265.246661 20.836349 
L 267.657306 21.412523 
L 270.067952 21.818992 
L 271.273275 22.158677 
L 272.478598 21.96813 
L 273.683921 22.169432 
L 274.889243 21.770662 
L 276.094566 21.885173 
L 277.299889 22.175538 
L 279.710535 22.326957 
L 282.12118 22.950424 
L 283.326503 22.981274 
L 285.737149 23.575349 
L 286.942472 23.062367 
L 288.147794 23.258207 
L 289.353117 23.103012 
L 291.763763 23.646506 
L 292.969086 22.533854 
L 294.174409 22.685209 
L 295.379731 21.851037 
L 296.585054 22.044155 
L 297.790377 22.380717 
L 300.201023 22.383162 
L 302.611668 23.04235 
L 307.43296 23.752505 
L 309.843605 23.733229 
L 311.048928 24.049541 
L 312.254251 23.870098 
L 313.459574 24.122274 
L 315.87022 23.992367 
L 317.075542 23.091681 
L 318.280865 23.191692 
L 321.896834 23.841529 
L 323.102157 23.959327 
L 325.512802 24.448617 
L 327.923448 24.513291 
L 330.334094 24.970124 
L 331.539416 24.831004 
L 333.950062 25.401839 
L 335.155385 25.374198 
L 337.566031 25.876512 
L 338.771353 25.952373 
L 342.387322 26.710698 
L 343.592645 26.351872 
L 346.00329 26.55213 
L 347.208613 25.809406 
L 348.413936 25.964233 
L 350.824582 25.82062 
L 352.029905 26.070126 
L 354.44055 26.389067 
L 355.645873 26.589414 
L 356.851196 26.608597 
L 359.261842 27.074655 
L 361.672487 26.910502 
L 368.904424 27.680753 
L 370.109747 27.793008 
L 371.31507 27.704978 
L 372.520393 27.924196 
L 373.725715 27.893466 
L 376.136361 28.257864 
L 379.75233 28.731537 
L 380.957652 27.916145 
L 382.162975 28.132072 
L 383.368298 27.458388 
L 385.778944 27.793198 
L 388.189589 28.259515 
L 389.394912 28.17173 
L 390.600235 28.404148 
L 391.805558 28.457995 
L 393.010881 28.686617 
L 394.216204 28.685151 
L 396.626849 29.000098 
L 397.832172 29.046695 
L 400.242818 29.41106 
L 401.448141 29.342775 
L 402.653463 29.509093 
L 403.858786 29.347179 
L 406.269432 29.703831 
L 407.474755 29.168353 
L 408.680078 29.293057 
L 409.8854 28.600949 
L 414.706692 29.250212 
L 415.912015 28.870517 
L 417.117337 28.899757 
L 418.32266 28.757254 
L 419.527983 28.782327 
L 420.733306 28.989647 
L 421.938629 28.82483 
L 423.143952 28.978852 
L 424.349274 28.577816 
L 429.170566 29.134661 
L 430.375889 28.912415 
L 431.581211 29.117158 
L 432.786534 29.172133 
L 433.991857 28.647647 
L 437.607826 29.155475 
L 438.813148 28.565881 
L 440.018471 28.768817 
L 441.223794 28.686914 
L 443.63444 29.066999 
L 444.839763 29.119114 
L 448.455731 29.683646 
L 449.661054 29.720516 
L 452.071699 30.085291 
L 453.277022 30.174636 
L 454.482345 30.120432 
L 456.892991 30.383014 
L 458.098314 30.572079 
L 459.303636 30.33853 
L 461.714282 30.669376 
L 462.919605 30.596366 
L 464.124928 30.114604 
L 465.330251 29.958752 
L 467.740896 29.950421 
L 470.151542 29.163859 
L 471.356865 28.990141 
L 474.972833 29.365271 
L 476.178156 29.041338 
L 477.383479 29.035059 
L 478.588802 29.204973 
L 479.794125 28.564106 
L 480.999447 28.339639 
L 482.20477 27.608638 
L 483.410093 27.144595 
L 484.615416 27.184058 
L 485.820739 26.888607 
L 487.026062 26.921626 
L 489.436707 27.222095 
L 495.463321 27.929927 
L 496.668644 27.908164 
L 500.284613 28.32382 
L 501.489936 28.034171 
L 502.695258 28.210761 
L 503.900581 27.807514 
L 507.51655 28.259589 
L 508.721873 27.976859 
L 509.927195 28.103671 
L 511.132518 28.033041 
L 512.337841 27.50359 
L 513.543164 27.384956 
L 515.95381 27.714286 
L 515.95381 27.714286 
" clip-path="url(#p90731ab88d)" style="fill: none; stroke-dasharray: 5.55,2.4; stroke-dashoffset: 0; stroke: #ff8c00; stroke-width: 1.5"/>
   </g>
   <g id="patch_3">
    <path d="M 35.03 97 
L 35.03 0 
" style="fill: none; stroke: #000000; stroke-width: 0.8; stroke-linejoin: miter; stroke-linecap: square"/>
   </g>
   <g id="patch_4">
    <path d="M 540 97 
L 540 0 
" style="fill: none; stroke: #000000; stroke-width: 0.8; stroke-linejoin: miter; stroke-linecap: square"/>
   </g>
   <g id="patch_5">
    <path d="M 35.03 97 
L 540 97 
" style="fill: none; stroke: #000000; stroke-width: 0.8; stroke-linejoin: miter; stroke-linecap: square"/>
   </g>
   <g id="patch_6">
    <path d="M 35.03 0 
L 540 0 
" style="fill: none; stroke: #000000; stroke-width: 0.8; stroke-linejoin: miter; stroke-linecap: square"/>
   </g>
  </g>
 </g>
 <defs>
  <clipPath id="p90731ab88d">
   <rect x="35.03" y="0" width="504.97" height="97"/>
  </clipPath>
 </defs>
</svg>
