<?xml version="1.0" encoding="utf-8" standalone="no"?>
<!DOCTYPE svg PUBLIC "-//W3C//DTD SVG 1.1//EN"
  "http://www.w3.org/Graphics/SVG/1.1/DTD/svg11.dtd">
<svg xmlns:xlink="http://www.w3.org/1999/xlink" width="540pt" height="129.6pt" viewBox="0 0 540 129.6" xmlns="http://www.w3.org/2000/svg" version="1.1">
 <metadata>
  <rdf:RDF xmlns:dc="http://purl.org/dc/elements/1.1/" xmlns:cc="http://creativecommons.org/ns#" xmlns:rdf="http://www.w3.org/1999/02/22-rdf-syntax-ns#">
   <cc:Work>
    <dc:type rdf:resource="http://purl.org/dc/dcmitype/StillImage"/>
    <dc:date>2025-03-23T23:29:49.492756</dc:date>
    <dc:format>image/svg+xml</dc:format>
    <dc:creator>
     <cc:Agent>
      <dc:title>Matplotlib v3.9.0, https://matplotlib.org/</dc:title>
     </cc:Agent>
    </dc:creator>
   </cc:Work>
  </rdf:RDF>
 </metadata>
 <defs>
  <style type="text/css">*{stroke-linejoin: round; stroke-linecap: butt}</style>
 </defs>
 <g id="figure_1">
  <g id="patch_1">
   <path d="M 0 129.6 
L 540 129.6 
L 540 0 
L 0 0 
z
" style="fill: #ffffff"/>
  </g>
  <g id="axes_1">
   <g id="patch_2">
    <path d="M 27.56 97 
L 540 97 
L 540 0 
L 27.56 0 
z
" style="fill: #ffffff"/>
   </g>
   <g id="matplotlib.axis_1">
    <g id="xtick_1">
     <g id="line2d_1">
      <path d="M 27.56 97 
L 27.56 0 
" clip-path="url(#pd757cb7192)" style="fill: none; stroke: #b0b0b0; stroke-width: 0.8; stroke-linecap: square"/>
     </g>
     <g id="line2d_2">
      <defs>
       <path id="m18fba480ae" d="M 0 0 
L 0 3.5 
" style="stroke: #000000; stroke-width: 0.8"/>
      </defs>
      <g>
       <use xlink:href="#m18fba480ae" x="27.56" y="97" style="stroke: #000000; stroke-width: 0.8"/>
      </g>
     </g>
     <g id="text_1">
      <text style="font: 10px 'Times New Roman'; text-anchor: middle" x="27.56" y="110.94375" transform="rotate(-0 27.56 110.94375)">0</text>
     </g>
    </g>
    <g id="xtick_2">
     <g id="line2d_3">
      <path d="M 88.717656 97 
L 88.717656 0 
" clip-path="url(#pd757cb7192)" style="fill: none; stroke: #b0b0b0; stroke-width: 0.8; stroke-linecap: square"/>
     </g>
     <g id="line2d_4">
      <g>
       <use xlink:href="#m18fba480ae" x="88.717656" y="97" style="stroke: #000000; stroke-width: 0.8"/>
      </g>
     </g>
     <g id="text_2">
      <text style="font: 10px 'Times New Roman'; text-anchor: middle" x="88.717656" y="110.94375" transform="rotate(-0 88.717656 110.94375)">50</text>
     </g>
    </g>
    <g id="xtick_3">
     <g id="line2d_5">
      <path d="M 149.875312 97 
L 149.875312 0 
" clip-path="url(#pd757cb7192)" style="fill: none; stroke: #b0b0b0; stroke-width: 0.8; stroke-linecap: square"/>
     </g>
     <g id="line2d_6">
      <g>
       <use xlink:href="#m18fba480ae" x="149.875312" y="97" style="stroke: #000000; stroke-width: 0.8"/>
      </g>
     </g>
     <g id="text_3">
      <text style="font: 10px 'Times New Roman'; text-anchor: middle" x="149.875312" y="110.94375" transform="rotate(-0 149.875312 110.94375)">100</text>
     </g>
    </g>
    <g id="xtick_4">
     <g id="line2d_7">
      <path d="M 211.032968 97 
L 211.032968 0 
" clip-path="url(#pd757cb7192)" style="fill: none; stroke: #b0b0b0; stroke-width: 0.8; stroke-linecap: square"/>
     </g>
     <g id="line2d_8">
      <g>
       <use xlink:href="#m18fba480ae" x="211.032968" y="97" style="stroke: #000000; stroke-width: 0.8"/>
      </g>
     </g>
     <g id="text_4">
      <text style="font: 10px 'Times New Roman'; text-anchor: middle" x="211.032968" y="110.94375" transform="rotate(-0 211.032968 110.94375)">150</text>
     </g>
    </g>
    <g id="xtick_5">
     <g id="line2d_9">
      <path d="M 272.190624 97 
L 272.190624 0 
" clip-path="url(#pd757cb7192)" style="fill: none; stroke: #b0b0b0; stroke-width: 0.8; stroke-linecap: square"/>
     </g>
     <g id="line2d_10">
      <g>
       <use xlink:href="#m18fba480ae" x="272.190624" y="97" style="stroke: #000000; stroke-width: 0.8"/>
      </g>
     </g>
     <g id="text_5">
      <text style="font: 10px 'Times New Roman'; text-anchor: middle" x="272.190624" y="110.94375" transform="rotate(-0 272.190624 110.94375)">200</text>
     </g>
    </g>
    <g id="xtick_6">
     <g id="line2d_11">
      <path d="M 333.34828 97 
L 333.34828 0 
" clip-path="url(#pd757cb7192)" style="fill: none; stroke: #b0b0b0; stroke-width: 0.8; stroke-linecap: square"/>
     </g>
     <g id="line2d_12">
      <g>
       <use xlink:href="#m18fba480ae" x="333.34828" y="97" style="stroke: #000000; stroke-width: 0.8"/>
      </g>
     </g>
     <g id="text_6">
      <text style="font: 10px 'Times New Roman'; text-anchor: middle" x="333.34828" y="110.94375" transform="rotate(-0 333.34828 110.94375)">250</text>
     </g>
    </g>
    <g id="xtick_7">
     <g id="line2d_13">
      <path d="M 394.505936 97 
L 394.505936 0 
" clip-path="url(#pd757cb7192)" style="fill: none; stroke: #b0b0b0; stroke-width: 0.8; stroke-linecap: square"/>
     </g>
     <g id="line2d_14">
      <g>
       <use xlink:href="#m18fba480ae" x="394.505936" y="97" style="stroke: #000000; stroke-width: 0.8"/>
      </g>
     </g>
     <g id="text_7">
      <text style="font: 10px 'Times New Roman'; text-anchor: middle" x="394.505936" y="110.94375" transform="rotate(-0 394.505936 110.94375)">300</text>
     </g>
    </g>
    <g id="xtick_8">
     <g id="line2d_15">
      <path d="M 455.663592 97 
L 455.663592 0 
" clip-path="url(#pd757cb7192)" style="fill: none; stroke: #b0b0b0; stroke-width: 0.8; stroke-linecap: square"/>
     </g>
     <g id="line2d_16">
      <g>
       <use xlink:href="#m18fba480ae" x="455.663592" y="97" style="stroke: #000000; stroke-width: 0.8"/>
      </g>
     </g>
     <g id="text_8">
      <text style="font: 10px 'Times New Roman'; text-anchor: middle" x="455.663592" y="110.94375" transform="rotate(-0 455.663592 110.94375)">350</text>
     </g>
    </g>
    <g id="xtick_9">
     <g id="line2d_17">
      <path d="M 516.821248 97 
L 516.821248 0 
" clip-path="url(#pd757cb7192)" style="fill: none; stroke: #b0b0b0; stroke-width: 0.8; stroke-linecap: square"/>
     </g>
     <g id="line2d_18">
      <g>
       <use xlink:href="#m18fba480ae" x="516.821248" y="97" style="stroke: #000000; stroke-width: 0.8"/>
      </g>
     </g>
     <g id="text_9">
      <text style="font: 10px 'Times New Roman'; text-anchor: middle" x="516.821248" y="110.94375" transform="rotate(-0 516.821248 110.94375)">400</text>
     </g>
    </g>
    <g id="text_10">
     <text style="font: 12px 'Times New Roman'; text-anchor: middle" x="283.78" y="125.415312" transform="rotate(-0 283.78 125.415312)">Simulation Run</text>
    </g>
   </g>
   <g id="matplotlib.axis_2">
    <g id="ytick_1">
     <g id="line2d_19">
      <path d="M 27.56 97 
L 540 97 
" clip-path="url(#pd757cb7192)" style="fill: none; stroke: #b0b0b0; stroke-width: 0.8; stroke-linecap: square"/>
     </g>
     <g id="line2d_20">
      <defs>
       <path id="m71b897de0c" d="M 0 0 
L -3.5 0 
" style="stroke: #000000; stroke-width: 0.8"/>
      </defs>
      <g>
       <use xlink:href="#m71b897de0c" x="27.56" y="97" style="stroke: #000000; stroke-width: 0.8"/>
      </g>
     </g>
     <g id="text_11">
      <text style="font: 10px 'Times New Roman'; text-anchor: end" x="20.56" y="100.471875" transform="rotate(-0 20.56 100.471875)">0</text>
     </g>
    </g>
    <g id="ytick_2">
     <g id="line2d_21">
      <path d="M 27.56 52.909091 
L 540 52.909091 
" clip-path="url(#pd757cb7192)" style="fill: none; stroke: #b0b0b0; stroke-width: 0.8; stroke-linecap: square"/>
     </g>
     <g id="line2d_22">
      <g>
       <use xlink:href="#m71b897de0c" x="27.56" y="52.909091" style="stroke: #000000; stroke-width: 0.8"/>
      </g>
     </g>
     <g id="text_12">
      <text style="font: 10px 'Times New Roman'; text-anchor: end" x="20.56" y="56.380966" transform="rotate(-0 20.56 56.380966)">1</text>
     </g>
    </g>
    <g id="ytick_3">
     <g id="line2d_23">
      <path d="M 27.56 8.818182 
L 540 8.818182 
" clip-path="url(#pd757cb7192)" style="fill: none; stroke: #b0b0b0; stroke-width: 0.8; stroke-linecap: square"/>
     </g>
     <g id="line2d_24">
      <g>
       <use xlink:href="#m71b897de0c" x="27.56" y="8.818182" style="stroke: #000000; stroke-width: 0.8"/>
      </g>
     </g>
     <g id="text_13">
      <text style="font: 10px 'Times New Roman'; text-anchor: end" x="20.56" y="12.290057" transform="rotate(-0 20.56 12.290057)">2</text>
     </g>
    </g>
    <g id="text_14">
     <text style="font: 12px 'Times New Roman'; text-anchor: middle" x="8.993125" y="48.5" transform="rotate(-90 8.993125 48.5)">Normalized Value</text>
    </g>
   </g>
   <g id="line2d_25">
    <path d="M 27.56 38.513638 
L 28.783153 34.555537 
L 30.006306 46.092363 
L 32.452612 42.659245 
L 33.675766 40.846251 
L 34.898919 41.521373 
L 36.122072 40.704224 
L 37.345225 42.524072 
L 38.568378 43.32254 
L 39.791531 44.335214 
L 41.014684 45.062734 
L 42.237837 45.510225 
L 43.460991 44.694248 
L 44.684144 45.584782 
L 45.907297 47.427222 
L 47.13045 47.035207 
L 48.353603 47.10338 
L 49.576756 48.047874 
L 50.799909 48.434992 
L 52.023062 49.730534 
L 53.246216 48.756397 
L 54.469369 49.511735 
L 55.692522 50.034369 
L 56.915675 50.320775 
L 58.138828 50.249457 
L 59.361981 50.353597 
L 60.585134 50.840212 
L 63.031441 50.332593 
L 64.254594 50.586713 
L 65.477747 49.998904 
L 66.7009 49.714123 
L 67.924053 50.045895 
L 70.370359 49.035516 
L 72.816665 49.407035 
L 74.039819 49.76301 
L 75.262972 49.90454 
L 76.486125 49.827974 
L 77.709278 50.24378 
L 80.155584 50.406117 
L 81.378737 50.300087 
L 82.60189 49.919518 
L 83.825044 50.14038 
L 85.048197 50.123368 
L 86.27135 49.554776 
L 87.494503 49.952462 
L 88.717656 50.226549 
L 89.940809 50.741024 
L 92.387115 50.958078 
L 93.610269 50.630869 
L 97.279728 50.866734 
L 98.502881 50.86432 
L 99.726034 50.988395 
L 100.949187 50.324347 
L 102.17234 50.055523 
L 103.395493 50.181609 
L 104.618647 50.127993 
L 107.064953 50.400349 
L 108.288106 50.648555 
L 109.511259 50.705286 
L 110.734412 51.020111 
L 113.180718 50.799191 
L 116.850178 51.351008 
L 118.073331 51.204992 
L 119.296484 51.37316 
L 120.519637 51.416021 
L 122.965943 51.223536 
L 125.41225 51.240756 
L 126.635403 51.426169 
L 129.081709 50.959006 
L 130.304862 50.997613 
L 131.528015 50.565825 
L 140.090087 50.581181 
L 142.536393 50.932201 
L 143.759546 50.938255 
L 144.9827 50.763974 
L 146.205853 50.725357 
L 147.429006 50.922961 
L 149.875312 50.76147 
L 152.321618 50.984931 
L 158.437384 50.822215 
L 159.660537 50.963005 
L 162.106843 50.902266 
L 164.55315 51.303719 
L 165.776303 51.325772 
L 168.222609 51.622404 
L 169.445762 51.440034 
L 181.677293 51.597274 
L 185.346753 51.963403 
L 186.569906 51.855014 
L 187.793059 51.863826 
L 189.016212 51.993963 
L 202.470896 51.819332 
L 204.917203 51.915605 
L 220.818193 51.963268 
L 223.264499 52.091023 
L 225.710806 52.048267 
L 234.272877 52.341126 
L 236.719184 52.30553 
L 237.942337 52.414188 
L 239.16549 52.312241 
L 240.388643 52.3358 
L 242.834949 52.109812 
L 245.281256 52.171607 
L 246.504409 52.010432 
L 247.727562 52.001533 
L 250.173868 52.228574 
L 252.620174 51.938464 
L 266.074859 52.117307 
L 268.521165 52.04718 
L 273.413777 52.147042 
L 280.752696 52.379403 
L 284.422155 52.336963 
L 289.314768 52.459417 
L 291.761074 52.537575 
L 294.20738 52.614952 
L 297.87684 52.770248 
L 302.769452 52.643736 
L 308.885218 52.571394 
L 310.108371 52.400369 
L 316.224137 52.536583 
L 318.670443 52.543677 
L 327.232515 52.704623 
L 329.678821 52.668089 
L 333.34828 52.715091 
L 335.794586 52.790377 
L 339.464046 52.667632 
L 349.249271 52.689093 
L 352.91873 52.74942 
L 356.58819 52.713736 
L 378.604946 52.876384 
L 381.051252 52.803021 
L 393.282783 52.988509 
L 399.398549 52.968647 
L 401.844855 53.028031 
L 403.068008 52.892848 
L 407.960621 52.856354 
L 411.63008 52.799985 
L 420.192152 52.940798 
L 423.861611 52.801422 
L 436.093142 52.731089 
L 439.762602 52.689734 
L 443.432061 52.763047 
L 449.547827 52.742261 
L 453.217286 52.756272 
L 507.036023 52.875717 
L 509.48233 52.920075 
L 511.928636 52.887642 
L 515.598095 52.909091 
L 515.598095 52.909091 
" clip-path="url(#pd757cb7192)" style="fill: none; stroke: #4169e1; stroke-width: 1.5; stroke-linecap: square"/>
   </g>
   <g id="line2d_26">
    <path d="M 27.56 97 
L 28.783153 92.06095 
L 30.006306 9.785967 
L 31.229459 29.010965 
L 32.452612 38.604487 
L 33.675766 43.155844 
L 34.898919 49.985711 
L 36.122072 54.388929 
L 37.345225 50.770738 
L 38.568378 53.58471 
L 39.791531 54.298532 
L 41.014684 56.021494 
L 42.237837 58.416124 
L 43.460991 58.443333 
L 44.684144 57.513529 
L 45.907297 43.928747 
L 47.13045 46.275417 
L 48.353603 49.068541 
L 49.576756 46.529037 
L 50.799909 48.154928 
L 52.023062 39.898038 
L 53.246216 36.211133 
L 54.469369 34.897043 
L 55.692522 35.504087 
L 56.915675 37.343275 
L 59.361981 41.634794 
L 60.585134 41.596521 
L 63.031441 44.152256 
L 64.254594 45.246267 
L 65.477747 43.486781 
L 66.7009 44.290227 
L 67.924053 44.695363 
L 69.147206 44.003876 
L 70.370359 42.030602 
L 71.593512 43.295617 
L 72.816665 44.080574 
L 74.039819 43.919413 
L 76.486125 46.194506 
L 77.709278 45.169375 
L 80.155584 47.348799 
L 81.378737 48.29621 
L 82.60189 47.300289 
L 83.825044 47.650324 
L 85.048197 48.674154 
L 86.27135 44.768117 
L 87.494503 43.369627 
L 88.717656 43.237026 
L 89.940809 40.015259 
L 91.163962 40.751578 
L 92.387115 41.703486 
L 93.610269 40.886176 
L 98.502881 44.319304 
L 99.726034 44.91097 
L 100.949187 37.423866 
L 102.17234 36.995021 
L 103.395493 37.636739 
L 104.618647 38.507193 
L 105.8418 39.1903 
L 107.064953 39.483 
L 108.288106 39.05961 
L 109.511259 39.843692 
L 110.734412 38.547249 
L 111.957565 39.168753 
L 113.180718 39.655663 
L 114.403872 39.614353 
L 115.627025 39.383719 
L 118.073331 39.934005 
L 119.296484 40.016197 
L 120.519637 40.71223 
L 121.74279 41.075748 
L 124.189097 42.351029 
L 125.41225 43.021046 
L 126.635403 42.801451 
L 127.858556 41.628943 
L 129.081709 41.226469 
L 130.304862 41.843157 
L 131.528015 37.488428 
L 132.751168 38.172314 
L 133.974322 38.540025 
L 140.090087 41.332566 
L 141.31324 40.482822 
L 142.536393 40.582666 
L 143.759546 41.169249 
L 144.9827 40.825564 
L 146.205853 41.353169 
L 147.429006 40.708875 
L 148.652159 41.120761 
L 149.875312 41.407593 
L 152.321618 41.691777 
L 154.767925 42.694484 
L 155.991078 42.535007 
L 158.437384 43.396706 
L 159.660537 43.213575 
L 160.88369 43.702374 
L 162.106843 44.06376 
L 163.329996 43.23606 
L 164.55315 42.174125 
L 165.776303 42.637729 
L 166.999456 41.983744 
L 168.222609 41.939659 
L 169.445762 41.193981 
L 171.892068 42.108416 
L 173.115221 42.282344 
L 174.338375 42.584381 
L 175.561528 43.029577 
L 176.784681 43.019783 
L 178.007834 43.316134 
L 180.45414 44.152254 
L 181.677293 44.319194 
L 182.900446 44.132802 
L 184.123599 43.159952 
L 185.346753 43.433422 
L 186.569906 43.360842 
L 187.793059 43.763993 
L 189.016212 43.459498 
L 191.462518 44.119458 
L 193.908824 44.793846 
L 195.131978 43.734361 
L 200.02459 45.180098 
L 202.470896 45.486928 
L 203.694049 45.353043 
L 207.363509 46.396141 
L 209.809815 46.428661 
L 211.032968 46.598951 
L 213.479274 47.200964 
L 214.702427 47.132629 
L 215.925581 47.452759 
L 217.148734 47.446818 
L 218.371887 47.593718 
L 219.59504 47.576336 
L 220.818193 47.317501 
L 224.487652 47.684258 
L 225.710806 47.980662 
L 228.157112 48.412132 
L 229.380265 48.622316 
L 230.603418 48.502767 
L 231.826571 48.636649 
L 233.049724 48.590397 
L 236.719184 49.243577 
L 239.16549 48.589136 
L 240.388643 48.835323 
L 241.611796 47.631833 
L 242.834949 47.694981 
L 245.281256 48.138768 
L 246.504409 46.944266 
L 247.727562 47.216323 
L 248.950715 46.536064 
L 250.173868 46.263523 
L 251.397021 44.572023 
L 252.620174 44.210366 
L 255.06648 44.705974 
L 256.289634 44.735494 
L 259.959093 45.406382 
L 262.405399 45.319181 
L 263.628552 45.249733 
L 264.851705 45.515002 
L 266.074859 45.620703 
L 267.298012 45.454174 
L 270.967471 46.196496 
L 272.190624 45.819906 
L 273.413777 46.04791 
L 275.860084 46.20815 
L 277.083237 46.433644 
L 278.30639 46.417481 
L 279.529543 46.66119 
L 280.752696 46.739528 
L 281.975849 46.951826 
L 283.199002 47.021596 
L 286.868462 47.659264 
L 289.314768 47.860331 
L 290.537921 47.71222 
L 292.984227 48.162876 
L 296.653687 47.784036 
L 297.87684 47.986509 
L 300.323146 48.041958 
L 301.546299 47.735269 
L 302.769452 47.663258 
L 303.992605 47.877504 
L 305.215758 47.7841 
L 306.438912 47.986026 
L 307.662065 47.988513 
L 308.885218 47.768843 
L 310.108371 45.850935 
L 311.331524 45.971054 
L 312.554677 45.689417 
L 313.77783 45.869719 
L 315.000983 45.852916 
L 316.224137 46.048329 
L 319.893596 46.167771 
L 323.563055 46.643765 
L 324.786208 46.568038 
L 326.009361 46.772207 
L 327.232515 46.853238 
L 328.455668 46.722117 
L 332.125127 47.234394 
L 334.571433 46.751664 
L 335.794586 46.949581 
L 337.01774 46.686393 
L 338.240893 46.869463 
L 339.464046 46.774739 
L 349.249271 48.161376 
L 351.695577 48.287179 
L 352.91873 48.452451 
L 354.141883 48.449865 
L 359.034496 49.081174 
L 360.257649 49.073872 
L 361.480802 49.248783 
L 362.703955 49.191593 
L 365.150261 49.493789 
L 366.373414 49.494434 
L 367.596568 49.660134 
L 368.819721 49.652357 
L 372.48918 50.09769 
L 376.158639 50.107097 
L 378.604946 50.412933 
L 379.828099 50.285991 
L 382.274405 50.50442 
L 383.497558 50.229933 
L 388.390171 50.799172 
L 400.621702 51.920763 
L 401.844855 51.856307 
L 403.068008 50.23418 
L 404.291161 50.366343 
L 406.737467 50.480508 
L 407.960621 50.622038 
L 410.406927 50.733406 
L 411.63008 50.878992 
L 412.853233 50.909789 
L 414.076386 50.817619 
L 415.299539 50.921749 
L 416.522692 50.911557 
L 420.192152 51.236774 
L 421.415305 50.777385 
L 422.638458 50.914177 
L 423.861611 50.748848 
L 425.084764 50.89038 
L 426.307917 50.660897 
L 429.977377 50.773555 
L 432.423683 51.00296 
L 434.869989 50.945889 
L 436.093142 50.762404 
L 438.539449 50.904773 
L 439.762602 51.039858 
L 440.985755 50.947687 
L 447.10152 51.390137 
L 451.994133 51.669454 
L 453.217286 51.592784 
L 456.886745 51.889494 
L 459.333052 52.039856 
L 465.448817 52.369493 
L 466.67197 52.182479 
L 469.118277 52.349276 
L 471.564583 52.335941 
L 472.787736 52.409499 
L 474.010889 52.297423 
L 477.680348 52.449808 
L 478.903502 52.416828 
L 480.126655 52.53531 
L 481.349808 52.276579 
L 486.24242 52.522731 
L 488.688727 52.602707 
L 489.91188 52.692941 
L 492.358186 52.558154 
L 493.581339 52.663183 
L 499.697105 52.278473 
L 507.036023 52.865905 
L 508.259177 52.776718 
L 509.48233 52.886628 
L 510.705483 52.667563 
L 515.598095 52.909091 
L 515.598095 52.909091 
" clip-path="url(#pd757cb7192)" style="fill: none; stroke-dasharray: 5.55,2.4; stroke-dashoffset: 0; stroke: #4169e1; stroke-width: 1.5"/>
   </g>
   <g id="line2d_27">
    <path d="M 27.56 44.190139 
L 28.783153 40.930989 
L 30.006306 49.018106 
L 32.452612 44.424752 
L 33.675766 43.817072 
L 34.898919 44.255011 
L 36.122072 42.789482 
L 37.345225 44.012595 
L 41.014684 45.985518 
L 42.237837 46.433049 
L 43.460991 45.915282 
L 44.684144 46.722202 
L 45.907297 48.350482 
L 47.13045 47.861866 
L 48.353603 47.773596 
L 49.576756 48.571161 
L 50.799909 48.890012 
L 52.023062 50.00915 
L 53.246216 49.123283 
L 54.469369 49.81251 
L 56.915675 50.478341 
L 59.361981 50.568243 
L 60.585134 51.073144 
L 63.031441 50.747631 
L 64.254594 50.903786 
L 65.477747 50.424322 
L 66.7009 50.144051 
L 67.924053 50.422276 
L 69.147206 50.203837 
L 70.370359 49.728195 
L 72.816665 49.984169 
L 74.039819 50.233979 
L 76.486125 50.093251 
L 77.709278 50.489022 
L 80.155584 50.652969 
L 81.378737 50.509477 
L 82.60189 50.249182 
L 83.825044 50.406272 
L 85.048197 50.39004 
L 86.27135 49.848731 
L 88.717656 50.441767 
L 89.940809 50.838795 
L 92.387115 51.018105 
L 93.610269 50.810767 
L 99.726034 51.158337 
L 100.949187 50.58133 
L 102.17234 50.35892 
L 103.395493 50.459895 
L 104.618647 50.407847 
L 107.064953 50.648134 
L 108.288106 50.848953 
L 109.511259 50.909576 
L 110.734412 51.208249 
L 113.180718 51.023474 
L 116.850178 51.430678 
L 118.073331 51.303901 
L 119.296484 51.485046 
L 121.74279 51.461404 
L 124.189097 51.409983 
L 125.41225 51.419168 
L 126.635403 51.585007 
L 127.858556 51.374876 
L 129.081709 51.298779 
L 130.304862 51.361166 
L 131.528015 50.980757 
L 140.090087 50.988787 
L 142.536393 51.280095 
L 143.759546 51.269886 
L 144.9827 51.103377 
L 146.205853 51.05791 
L 147.429006 51.216377 
L 149.875312 51.073238 
L 153.544771 51.232306 
L 162.106843 51.259569 
L 164.55315 51.596898 
L 165.776303 51.607955 
L 168.222609 51.874243 
L 169.445762 51.693075 
L 174.338375 51.653695 
L 179.230987 51.672314 
L 181.677293 51.724763 
L 185.346753 52.073711 
L 187.793059 51.963409 
L 190.239365 52.080352 
L 192.685671 52.060347 
L 195.131978 51.974116 
L 200.02459 51.995777 
L 203.694049 52.100636 
L 207.363509 52.089998 
L 209.809815 52.118346 
L 213.479274 52.039247 
L 215.925581 52.101535 
L 218.371887 51.967683 
L 223.264499 52.234172 
L 225.710806 52.21247 
L 233.049724 52.468316 
L 241.611796 52.379255 
L 244.058102 52.324074 
L 245.281256 52.361079 
L 247.727562 52.202237 
L 250.173868 52.379208 
L 252.620174 52.133973 
L 264.851705 52.369478 
L 270.967471 52.257533 
L 274.63693 52.398973 
L 281.975849 52.542829 
L 285.645309 52.489952 
L 294.20738 52.735844 
L 297.87684 52.878063 
L 302.769452 52.763195 
L 308.885218 52.674395 
L 310.108371 52.542846 
L 316.224137 52.650844 
L 318.670443 52.655571 
L 327.232515 52.786507 
L 329.678821 52.762849 
L 333.34828 52.794289 
L 335.794586 52.854381 
L 340.687199 52.733584 
L 348.026118 52.734619 
L 393.282783 53.016143 
L 399.398549 52.997626 
L 404.291161 52.947481 
L 411.63008 52.852923 
L 420.192152 52.954417 
L 423.861611 52.853359 
L 434.869989 52.833481 
L 439.762602 52.768738 
L 444.655214 52.798809 
L 449.547827 52.829539 
L 454.440439 52.833173 
L 470.34143 52.801683 
L 472.787736 52.806191 
L 475.234042 52.773696 
L 483.796114 52.831591 
L 491.135033 52.750303 
L 500.920258 52.881429 
L 515.598095 52.909091 
L 515.598095 52.909091 
" clip-path="url(#pd757cb7192)" style="fill: none; stroke: #ff8c00; stroke-width: 1.5; stroke-linecap: square"/>
   </g>
   <g id="line2d_28">
    <path d="M 27.56 97 
L 28.783153 92.150024 
L 30.006306 34.042734 
L 31.229459 43.115292 
L 32.452612 43.483992 
L 33.675766 51.560283 
L 34.898919 57.526248 
L 36.122072 55.59582 
L 37.345225 54.731734 
L 38.568378 56.98119 
L 39.791531 57.890779 
L 41.014684 59.862818 
L 42.237837 61.622141 
L 43.460991 62.557861 
L 44.684144 60.691824 
L 45.907297 44.802572 
L 47.13045 46.128852 
L 48.353603 48.894546 
L 49.576756 46.198402 
L 50.799909 47.8565 
L 52.023062 38.759235 
L 53.246216 33.881875 
L 54.469369 31.854387 
L 55.692522 33.210905 
L 56.915675 34.734731 
L 59.361981 39.242739 
L 60.585134 38.162763 
L 61.808287 39.923712 
L 64.254594 42.853392 
L 65.477747 41.291569 
L 67.924053 42.28819 
L 69.147206 43.110637 
L 70.370359 40.992125 
L 71.593512 42.349466 
L 72.816665 43.36357 
L 74.039819 43.656104 
L 75.262972 44.981964 
L 76.486125 45.988204 
L 77.709278 44.270509 
L 78.932431 45.219173 
L 80.155584 46.358632 
L 81.378737 47.070337 
L 82.60189 46.76365 
L 83.825044 47.314199 
L 85.048197 48.343665 
L 86.27135 42.914766 
L 87.494503 42.351707 
L 88.717656 41.057642 
L 89.940809 38.462801 
L 91.163962 39.132882 
L 92.387115 40.157542 
L 93.610269 40.131103 
L 98.502881 43.660376 
L 99.726034 43.98323 
L 100.949187 35.731318 
L 102.17234 35.341771 
L 103.395493 36.031835 
L 105.8418 37.674203 
L 107.064953 37.745131 
L 108.288106 37.414231 
L 109.511259 38.178063 
L 110.734412 36.260863 
L 111.957565 37.006637 
L 113.180718 37.371483 
L 114.403872 37.609392 
L 115.627025 37.552351 
L 116.850178 37.955805 
L 118.073331 38.200011 
L 119.296484 37.850019 
L 121.74279 39.152312 
L 122.965943 39.7136 
L 125.41225 41.113629 
L 126.635403 40.778011 
L 127.858556 39.802188 
L 130.304862 40.78187 
L 131.528015 35.819276 
L 132.751168 36.520077 
L 133.974322 36.828556 
L 135.197475 37.275665 
L 137.643781 38.478432 
L 140.090087 39.585133 
L 141.31324 38.667117 
L 142.536393 38.838428 
L 143.759546 39.439756 
L 144.9827 38.817872 
L 146.205853 39.320011 
L 147.429006 38.778974 
L 148.652159 39.203206 
L 152.321618 39.840952 
L 154.767925 40.909843 
L 155.991078 41.167208 
L 158.437384 42.099341 
L 159.660537 42.132006 
L 160.88369 42.629909 
L 162.106843 42.921737 
L 163.329996 42.114209 
L 164.55315 40.983886 
L 165.776303 41.468949 
L 166.999456 40.618627 
L 168.222609 40.511931 
L 169.445762 39.25633 
L 171.892068 40.217242 
L 173.115221 40.367491 
L 175.561528 41.249895 
L 176.784681 41.342058 
L 181.677293 42.903037 
L 182.900446 42.727363 
L 184.123599 41.756549 
L 186.569906 41.512531 
L 187.793059 41.92518 
L 189.016212 41.609723 
L 190.239365 42.020173 
L 192.685671 42.661427 
L 193.908824 43.056738 
L 195.131978 42.931413 
L 200.02459 44.393015 
L 201.247743 44.497342 
L 202.470896 44.715948 
L 203.694049 44.562848 
L 207.363509 45.59359 
L 208.586662 45.676761 
L 213.479274 46.730057 
L 214.702427 46.752699 
L 215.925581 47.075935 
L 219.59504 47.017994 
L 220.818193 46.764889 
L 222.041346 46.8153 
L 224.487652 47.210175 
L 225.710806 47.507374 
L 226.933959 47.60352 
L 229.380265 48.154123 
L 230.603418 48.057646 
L 233.049724 48.259505 
L 235.496031 48.755713 
L 236.719184 48.930123 
L 239.16549 48.465708 
L 240.388643 48.6965 
L 241.611796 47.787903 
L 242.834949 47.692489 
L 245.281256 48.11856 
L 246.504409 47.009989 
L 247.727562 47.217563 
L 248.950715 46.706463 
L 250.173868 46.45564 
L 251.397021 44.815925 
L 252.620174 44.357723 
L 255.06648 44.828899 
L 256.289634 44.78732 
L 261.182246 45.550683 
L 264.851705 45.611626 
L 266.074859 45.748319 
L 267.298012 45.609278 
L 270.967471 46.332007 
L 272.190624 46.083394 
L 273.413777 46.31518 
L 274.63693 46.310353 
L 284.422155 47.547626 
L 286.868462 47.957599 
L 289.314768 48.075924 
L 290.537921 47.866113 
L 292.984227 48.296058 
L 296.653687 47.986119 
L 297.87684 48.120263 
L 300.323146 48.01482 
L 301.546299 47.72079 
L 302.769452 47.578374 
L 303.992605 47.794699 
L 305.215758 47.755392 
L 306.438912 47.90986 
L 307.662065 47.888343 
L 308.885218 47.578074 
L 310.108371 45.965873 
L 311.331524 46.081785 
L 312.554677 45.955862 
L 313.77783 46.144279 
L 315.000983 46.042867 
L 316.224137 46.223135 
L 319.893596 46.425539 
L 323.563055 46.823559 
L 324.786208 46.775453 
L 327.232515 47.058619 
L 328.455668 46.897479 
L 330.901974 47.15927 
L 332.125127 47.322391 
L 334.571433 46.794223 
L 335.794586 46.989168 
L 337.01774 46.805386 
L 338.240893 46.987081 
L 339.464046 46.833631 
L 345.579811 47.6725 
L 349.249271 48.212938 
L 350.472424 48.112315 
L 352.91873 48.377235 
L 354.141883 48.342525 
L 359.034496 48.945903 
L 360.257649 48.887389 
L 361.480802 49.061934 
L 362.703955 49.001285 
L 365.150261 49.293568 
L 366.373414 49.293266 
L 367.596568 49.461528 
L 368.819721 49.466335 
L 370.042874 49.632345 
L 376.158639 49.944198 
L 378.604946 50.23471 
L 379.828099 50.259669 
L 382.274405 50.530005 
L 383.497558 50.227498 
L 389.613324 50.920284 
L 392.05963 51.116909 
L 395.729089 51.289824 
L 398.175396 51.586999 
L 401.844855 51.717556 
L 403.068008 50.088671 
L 409.183774 50.553259 
L 410.406927 50.554183 
L 412.853233 50.718605 
L 414.076386 50.653995 
L 417.745846 50.936955 
L 420.192152 51.036676 
L 421.415305 50.590996 
L 422.638458 50.734008 
L 423.861611 50.650702 
L 425.084764 50.778429 
L 426.307917 50.525704 
L 429.977377 50.635777 
L 432.423683 50.894053 
L 436.093142 50.637208 
L 438.539449 50.829109 
L 439.762602 50.96465 
L 440.985755 50.952904 
L 447.10152 51.434948 
L 448.324674 51.362766 
L 450.77098 51.492281 
L 451.994133 51.542093 
L 453.217286 51.364009 
L 456.886745 51.686951 
L 465.448817 52.183403 
L 466.67197 51.941896 
L 469.118277 52.096462 
L 472.787736 52.160794 
L 474.010889 51.972339 
L 476.457195 52.14165 
L 480.126655 52.274201 
L 481.349808 51.915254 
L 494.804492 52.274859 
L 496.027645 52.13205 
L 498.473952 52.133207 
L 499.697105 52.010586 
L 507.036023 52.630195 
L 508.259177 52.548117 
L 509.48233 52.654786 
L 510.705483 52.606126 
L 515.598095 52.909091 
L 515.598095 52.909091 
" clip-path="url(#pd757cb7192)" style="fill: none; stroke-dasharray: 5.55,2.4; stroke-dashoffset: 0; stroke: #ff8c00; stroke-width: 1.5"/>
   </g>
   <g id="patch_3">
    <path d="M 27.56 97 
L 27.56 0 
" style="fill: none; stroke: #000000; stroke-width: 0.8; stroke-linejoin: miter; stroke-linecap: square"/>
   </g>
   <g id="patch_4">
    <path d="M 540 97 
L 540 0 
" style="fill: none; stroke: #000000; stroke-width: 0.8; stroke-linejoin: miter; stroke-linecap: square"/>
   </g>
   <g id="patch_5">
    <path d="M 27.56 97 
L 540 97 
" style="fill: none; stroke: #000000; stroke-width: 0.8; stroke-linejoin: miter; stroke-linecap: square"/>
   </g>
   <g id="patch_6">
    <path d="M 27.56 0 
L 540 0 
" style="fill: none; stroke: #000000; stroke-width: 0.8; stroke-linejoin: miter; stroke-linecap: square"/>
   </g>
  </g>
 </g>
 <defs>
  <clipPath id="pd757cb7192">
   <rect x="27.56" y="0" width="512.44" height="97"/>
  </clipPath>
 </defs>
</svg>
