<?xml version="1.0" encoding="utf-8" standalone="no"?>
<!DOCTYPE svg PUBLIC "-//W3C//DTD SVG 1.1//EN"
  "http://www.w3.org/Graphics/SVG/1.1/DTD/svg11.dtd">
<svg xmlns:xlink="http://www.w3.org/1999/xlink" width="432pt" height="180pt" viewBox="0 0 432 180" xmlns="http://www.w3.org/2000/svg" version="1.1">
 <metadata>
  <rdf:RDF xmlns:dc="http://purl.org/dc/elements/1.1/" xmlns:cc="http://creativecommons.org/ns#" xmlns:rdf="http://www.w3.org/1999/02/22-rdf-syntax-ns#">
   <cc:Work>
    <dc:type rdf:resource="http://purl.org/dc/dcmitype/StillImage"/>
    <dc:date>2025-04-09T23:23:08.124825</dc:date>
    <dc:format>image/svg+xml</dc:format>
    <dc:creator>
     <cc:Agent>
      <dc:title>Matplotlib v3.8.2, https://matplotlib.org/</dc:title>
     </cc:Agent>
    </dc:creator>
   </cc:Work>
  </rdf:RDF>
 </metadata>
 <defs>
  <style type="text/css">*{stroke-linejoin: round; stroke-linecap: butt}</style>
 </defs>
 <g id="figure_1">
  <g id="patch_1">
   <path d="M 0 180 
L 432 180 
L 432 0 
L 0 0 
z
" style="fill: #ffffff"/>
  </g>
  <g id="axes_1">
   <g id="patch_2">
    <path d="M 28.055 147.4 
L 432 147.4 
L 432 0 
L 28.055 0 
z
" style="fill: #ffffff"/>
   </g>
   <g id="matplotlib.axis_1">
    <g id="xtick_1">
     <g id="line2d_1">
      <defs>
       <path id="maba7644e1c" d="M 0 0 
L 0 3.5 
" style="stroke: #000000; stroke-width: 0.8"/>
      </defs>
      <g>
       <use xlink:href="#maba7644e1c" x="28.055" y="147.4" style="stroke: #000000; stroke-width: 0.8"/>
      </g>
     </g>
     <g id="text_1">
      <text style="font: 11px 'Times New Roman'; text-anchor: middle" x="28.055" y="162.038125" transform="rotate(-0 28.055 162.038125)">0</text>
     </g>
    </g>
    <g id="xtick_2">
     <g id="line2d_2">
      <g>
       <use xlink:href="#maba7644e1c" x="107.395788" y="147.4" style="stroke: #000000; stroke-width: 0.8"/>
      </g>
     </g>
     <g id="text_2">
      <text style="font: 11px 'Times New Roman'; text-anchor: middle" x="107.395788" y="162.038125" transform="rotate(-0 107.395788 162.038125)">5</text>
     </g>
    </g>
    <g id="xtick_3">
     <g id="line2d_3">
      <g>
       <use xlink:href="#maba7644e1c" x="186.736576" y="147.4" style="stroke: #000000; stroke-width: 0.8"/>
      </g>
     </g>
     <g id="text_3">
      <text style="font: 11px 'Times New Roman'; text-anchor: middle" x="186.736576" y="162.038125" transform="rotate(-0 186.736576 162.038125)">10</text>
     </g>
    </g>
    <g id="xtick_4">
     <g id="line2d_4">
      <g>
       <use xlink:href="#maba7644e1c" x="266.077365" y="147.4" style="stroke: #000000; stroke-width: 0.8"/>
      </g>
     </g>
     <g id="text_4">
      <text style="font: 11px 'Times New Roman'; text-anchor: middle" x="266.077365" y="162.038125" transform="rotate(-0 266.077365 162.038125)">15</text>
     </g>
    </g>
    <g id="xtick_5">
     <g id="line2d_5">
      <g>
       <use xlink:href="#maba7644e1c" x="345.418153" y="147.4" style="stroke: #000000; stroke-width: 0.8"/>
      </g>
     </g>
     <g id="text_5">
      <text style="font: 11px 'Times New Roman'; text-anchor: middle" x="345.418153" y="162.038125" transform="rotate(-0 345.418153 162.038125)">20</text>
     </g>
    </g>
    <g id="xtick_6">
     <g id="line2d_6">
      <g>
       <use xlink:href="#maba7644e1c" x="424.758941" y="147.4" style="stroke: #000000; stroke-width: 0.8"/>
      </g>
     </g>
     <g id="text_6">
      <text style="font: 11px 'Times New Roman'; text-anchor: middle" x="424.758941" y="162.038125" transform="rotate(-0 424.758941 162.038125)">25</text>
     </g>
    </g>
    <g id="text_7">
     <text style="font: 12px 'Times New Roman'; text-anchor: middle" x="230.0275" y="176.723594" transform="rotate(-0 230.0275 176.723594)">Time (months)</text>
    </g>
   </g>
   <g id="matplotlib.axis_2">
    <g id="ytick_1">
     <g id="line2d_7">
      <defs>
       <path id="m506d2d2e1b" d="M 0 0 
L -3.5 0 
" style="stroke: #000000; stroke-width: 0.8"/>
      </defs>
      <g>
       <use xlink:href="#m506d2d2e1b" x="28.055" y="147.4" style="stroke: #000000; stroke-width: 0.8"/>
      </g>
     </g>
     <g id="text_8">
      <text style="font: 11px 'Times New Roman'; text-anchor: end" x="21.055" y="151.219063" transform="rotate(-0 21.055 151.219063)">0</text>
     </g>
    </g>
    <g id="ytick_2">
     <g id="line2d_8">
      <g>
       <use xlink:href="#m506d2d2e1b" x="28.055" y="114.278265" style="stroke: #000000; stroke-width: 0.8"/>
      </g>
     </g>
     <g id="text_9">
      <text style="font: 11px 'Times New Roman'; text-anchor: end" x="21.055" y="118.097328" transform="rotate(-0 21.055 118.097328)">1</text>
     </g>
    </g>
    <g id="ytick_3">
     <g id="line2d_9">
      <g>
       <use xlink:href="#m506d2d2e1b" x="28.055" y="81.156531" style="stroke: #000000; stroke-width: 0.8"/>
      </g>
     </g>
     <g id="text_10">
      <text style="font: 11px 'Times New Roman'; text-anchor: end" x="21.055" y="84.975593" transform="rotate(-0 21.055 84.975593)">2</text>
     </g>
    </g>
    <g id="ytick_4">
     <g id="line2d_10">
      <g>
       <use xlink:href="#m506d2d2e1b" x="28.055" y="48.034796" style="stroke: #000000; stroke-width: 0.8"/>
      </g>
     </g>
     <g id="text_11">
      <text style="font: 11px 'Times New Roman'; text-anchor: end" x="21.055" y="51.853858" transform="rotate(-0 21.055 51.853858)">3</text>
     </g>
    </g>
    <g id="ytick_5">
     <g id="line2d_11">
      <g>
       <use xlink:href="#m506d2d2e1b" x="28.055" y="14.913061" style="stroke: #000000; stroke-width: 0.8"/>
      </g>
     </g>
     <g id="text_12">
      <text style="font: 11px 'Times New Roman'; text-anchor: end" x="21.055" y="18.732124" transform="rotate(-0 21.055 18.732124)">4</text>
     </g>
    </g>
    <g id="text_13">
     <text style="font: 12px 'Times New Roman'; text-anchor: middle" x="8.988125" y="73.7" transform="rotate(-90 8.988125 73.7)">Applied Effort (person-months)</text>
    </g>
   </g>
   <g id="line2d_12">
    <path d="M 28.055 90.071797 
L 28.228907 86.87555 
L 28.585417 86.748583 
L 28.750629 83.552336 
L 29.104964 83.43641 
L 29.27235 80.94676 
L 29.633207 80.814273 
L 29.794071 78.308061 
L 30.148407 78.159014 
L 30.315793 75.155976 
L 31.713572 75.04005 
L 31.880957 72.186061 
L 32.237467 72.053574 
L 32.402679 69.580484 
L 32.759188 69.447997 
L 32.9244 66.505683 
L 33.28091 66.373196 
L 33.446122 64.032594 
L 33.800457 63.927708 
L 33.967843 61.156523 
L 35.365622 61.040597 
L 35.533007 58.699994 
L 35.889517 58.556467 
L 36.054729 55.868086 
L 36.411238 55.730079 
L 36.57645 53.179705 
L 36.93296 53.030657 
L 37.098172 50.529966 
L 37.454681 50.386439 
L 37.619893 48.194884 
L 39.024193 48.062397 
L 39.185057 46.284864 
L 39.545915 46.152377 
L 39.706779 43.778653 
L 40.063289 43.646166 
L 40.2285 40.770095 
L 40.58501 40.637608 
L 40.750222 37.767058 
L 41.108905 37.629051 
L 41.271943 35.603105 
L 42.671896 35.470618 
L 42.837108 33.532996 
L 43.197965 33.400509 
L 43.358829 32.08116 
L 43.72186 31.965234 
L 43.88055 30.607243 
L 44.243582 30.491317 
L 44.402272 29.282374 
L 44.765303 29.166448 
L 44.923993 27.8747 
L 46.330467 27.758774 
L 46.489158 26.566391 
L 46.860884 26.444945 
L 47.010879 25.324326 
L 47.37391 25.2084 
L 47.5326 23.999457 
L 47.895632 23.883531 
L 48.054322 22.602824 
L 48.413005 22.464817 
L 48.576043 21.101305 
L 49.982517 20.985379 
L 50.141208 19.66603 
L 50.502065 19.533543 
L 50.662929 18.363242 
L 51.034656 18.241795 
L 51.184651 17.479996 
L 51.556377 17.358549 
L 51.706372 16.547067 
L 52.078099 16.42562 
L 52.228093 15.619658 
L 53.634568 15.503732 
L 53.793258 13.952531 
L 54.16281 13.825564 
L 54.314979 12.997521 
L 54.686706 12.876074 
L 54.836701 12.285403 
L 55.230166 12.169477 
L 55.358422 11.661611 
L 55.751887 11.545685 
L 55.880144 11.26415 
L 57.347485 11.148224 
L 57.445308 10.999176 
L 57.838773 10.88325 
L 57.967029 10.596195 
L 58.360494 10.480269 
L 58.488751 10.209775 
L 58.882216 10.093849 
L 59.010472 9.768152 
L 59.403937 9.652226 
L 59.532194 9.199562 
L 60.947363 9.078115 
L 61.097358 8.101024 
L 61.462563 7.990619 
L 61.619079 7.184656 
L 61.990806 7.06321 
L 62.082107 7.019048 
L 62.099498 7.079771 
L 62.140801 7.157055 
L 62.521223 7.25642 
L 62.662522 7.940936 
L 63.032075 8.067903 
L 63.184244 8.945629 
L 64.592892 9.067075 
L 64.749408 10.011044 
L 65.116787 10.138011 
L 65.27113 10.971575 
L 65.634161 11.087501 
L 65.792851 11.943146 
L 66.181968 12.064592 
L 66.314572 12.313005 
L 68.86666 12.41237 
L 68.92318 12.842953 
L 69.286211 12.958879 
L 69.444901 14.267187 
L 69.807932 14.383113 
L 69.966622 15.338123 
L 70.338349 15.45957 
L 70.488344 16.304174 
L 71.892644 16.431141 
L 71.966555 16.812041 
L 72.044813 16.751317 
L 72.053508 16.745797 
L 72.97739 16.850683 
L 73.049127 17.783611 
L 73.096951 18.446046 
L 73.453461 18.578533 
L 73.618673 20.449911 
L 73.977356 20.582398 
L 74.140394 21.901747 
L 75.555563 22.023193 
L 75.688168 23.265259 
L 75.705558 23.441908 
L 76.066416 23.574395 
L 76.22728 24.954467 
L 76.588137 25.064873 
L 76.749001 27.179143 
L 77.107685 27.317151 
L 77.270723 29.569429 
L 77.629406 29.707436 
L 77.792444 31.943153 
L 79.196744 32.07564 
L 79.357608 34.189911 
L 79.718466 34.322398 
L 79.87933 36.061289 
L 80.238013 36.177215 
L 80.401051 37.540726 
L 80.761909 37.673213 
L 80.922773 39.561152 
L 81.281456 39.699159 
L 81.444494 42.895407 
L 82.842273 43.011333 
L 83.009659 45.650031 
L 83.368342 45.782518 
L 83.53138 48.448817 
L 83.88789 48.564744 
L 84.053101 50.535487 
L 84.416133 50.651413 
L 84.572649 52.6884 
L 84.574823 52.732562 
L 84.929159 52.865049 
L 85.096544 55.393341 
L 86.496497 55.525828 
L 86.661709 57.921634 
L 87.020392 58.059641 
L 87.18343 60.085587 
L 87.542114 60.223594 
L 87.705151 62.718765 
L 88.063835 62.856772 
L 88.226873 64.750231 
L 88.585556 64.860637 
L 88.748594 66.25727 
L 90.150721 66.395277 
L 90.313759 67.637342 
L 90.672442 67.764309 
L 90.83548 69.87858 
L 91.194164 70.022107 
L 91.357202 72.125338 
L 91.713711 72.252304 
L 91.878923 74.333453 
L 92.235433 74.4549 
L 92.400644 76.226912 
L 93.807119 76.348359 
L 93.965809 77.695309 
L 94.32884 77.811235 
L 94.48753 79.759897 
L 94.846214 79.897905 
L 95.009252 82.326832 
L 95.367935 82.464839 
L 95.530973 84.888246 
L 95.89183 85.020733 
L 96.052695 86.610576 
L 97.454821 86.748583 
L 97.617859 88.239061 
L 97.98089 88.354988 
L 98.13958 89.249274 
L 98.511307 89.370721 
L 98.661302 90.281568 
L 99.033028 90.403015 
L 99.183023 91.164815 
L 99.55475 91.286261 
L 99.704745 92.130865 
L 101.119914 92.252312 
L 101.176434 92.528326 
L 101.269909 92.445522 
L 101.691634 92.544887 
L 101.79163 92.79882 
L 102.228572 92.914746 
L 102.313352 93.212842 
L 102.685078 93.334288 
L 102.835073 94.167852 
L 103.195931 94.300339 
L 103.356795 95.227748 
L 104.771964 95.349194 
L 104.921959 96.2214 
L 105.289338 96.348366 
L 105.443681 96.674063 
L 106.889284 96.784469 
L 107.008845 96.911436 
L 108.439231 97.027362 
L 108.574009 97.695317 
L 109.019646 97.811243 
L 109.095731 98.059656 
L 109.482674 98.170062 
L 109.617452 98.589604 
L 110.010917 98.70553 
L 110.139173 99.213396 
L 110.532638 99.329322 
L 110.660895 99.655019 
L 112.097803 99.770945 
L 112.226059 100.096643 
L 112.632567 100.212569 
L 112.747781 100.416819 
L 113.141246 100.532745 
L 113.269502 100.858442 
L 113.662967 100.974368 
L 113.791224 101.300066 
L 114.184688 101.415992 
L 114.312945 101.868655 
L 115.728114 101.990102 
L 115.830285 102.238515 
L 115.869414 102.139149 
L 115.878109 102.117068 
L 116.282443 102.216434 
L 116.399831 102.812625 
L 116.771557 102.934071 
L 116.921552 103.613067 
L 117.295453 103.734513 
L 117.443274 104.032609 
L 117.849782 103.933243 
L 117.964995 102.91751 
L 119.371469 102.801584 
L 119.530159 101.587121 
L 119.901886 101.465674 
L 120.051881 100.703874 
L 120.423607 100.582428 
L 120.573602 99.67158 
L 120.932286 99.533573 
L 121.095324 97.711878 
L 121.454007 97.579391 
L 121.617045 96.894875 
L 123.053953 96.778949 
L 123.18221 96.453252 
L 123.575674 96.337326 
L 123.703931 95.785297 
L 124.062614 95.647289 
L 124.225652 93.74279 
L 124.58651 93.610303 
L 124.747374 92.589049 
L 125.140839 92.473123 
L 125.269095 92.191588 
L 126.706003 92.075662 
L 126.747306 92.042541 
L 126.790783 92.152946 
L 126.83426 92.163987 
L 128.849409 92.274393 
L 128.921145 92.456562 
L 130.358053 92.572488 
L 130.48631 92.947868 
L 130.879775 93.063794 
L 131.008031 93.444694 
L 131.384105 93.56614 
L 131.529753 93.715188 
L 135.636135 93.610303 
L 135.703524 93.16868 
L 138.70777 92.97547 
L 138.833853 92.141906 
L 139.205579 92.02046 
L 139.355574 90.70111 
L 139.716432 90.568623 
L 139.877296 89.652255 
L 141.292465 89.530809 
L 141.427243 88.283224 
L 141.44246 88.101054 
L 141.805491 87.968567 
L 141.964181 87.245409 
L 142.357646 87.129483 
L 142.485903 86.803786 
L 142.879368 86.68786 
L 143.007624 86.362163 
L 143.420654 86.262798 
L 143.529346 85.959182 
L 144.966254 85.843256 
L 145.016252 85.72181 
L 145.092336 85.821175 
L 145.544495 85.710769 
L 145.616232 85.5286 
L 146.009696 85.412673 
L 146.137953 85.086976 
L 146.531418 84.97105 
L 146.659674 84.645353 
L 147.053139 84.529427 
L 147.181396 84.187169 
L 148.618304 84.071243 
L 148.74656 83.745546 
L 149.140025 83.62962 
L 149.268282 83.541295 
L 152.896419 83.43089 
L 152.920332 83.187997 
L 153.281189 83.05551 
L 153.442053 81.421504 
L 153.80291 81.289017 
L 153.963775 79.655012 
L 154.324632 79.522525 
L 154.485496 77.888519 
L 155.889796 77.756032 
L 156.05066 76.674056 
L 156.413692 76.56365 
L 156.572382 75.730086 
L 157.009323 75.61416 
L 157.094103 75.316065 
L 157.46583 75.194618 
L 157.615825 74.65363 
L 158.00929 74.537704 
L 158.137546 74.212007 
L 159.574454 74.096081 
L 159.70271 73.770384 
L 161.687426 73.632376 
L 161.789596 73.593734 
L 163.804745 73.483329 
L 163.876482 73.301159 
L 164.269947 73.185233 
L 164.398203 72.859536 
L 164.791668 72.74361 
L 164.919925 72.417913 
L 165.31339 72.301987 
L 165.441646 71.97629 
L 166.878554 71.860364 
L 167.006811 71.584349 
L 167.493751 71.694755 
L 167.528532 71.705796 
L 170.543647 71.805161 
L 170.658861 72.55592 
L 171.02624 72.677366 
L 171.158844 72.776732 
L 172.630533 72.876097 
L 172.745746 73.89183 
L 174.152221 74.007756 
L 174.310911 75.22222 
L 174.682637 75.343666 
L 174.832632 76.105466 
L 175.204359 76.226912 
L 175.354354 77.13776 
L 175.713037 77.275767 
L 175.876075 79.097463 
L 176.234759 79.22995 
L 176.397797 79.914465 
L 177.834704 80.030392 
L 177.962961 80.356089 
L 178.356426 80.472015 
L 178.484682 81.024044 
L 178.843366 81.162051 
L 179.006404 83.066551 
L 179.367261 83.199038 
L 179.528125 84.220291 
L 179.92159 84.336217 
L 180.049847 84.661914 
L 181.486754 84.77784 
L 181.615011 85.103537 
L 182.008476 85.219463 
L 182.136732 85.54516 
L 182.530197 85.661086 
L 182.658454 85.986784 
L 183.051919 86.10271 
L 183.180175 86.428407 
L 183.57364 86.544333 
L 183.701897 86.577454 
L 186.786575 86.467049 
L 186.832225 86.351123 
L 187.22569 86.235197 
L 187.353947 85.909499 
L 188.790855 85.793573 
L 188.919111 85.517559 
L 189.312576 85.401633 
L 189.440833 85.075936 
L 189.834298 84.96001 
L 189.962554 84.634313 
L 190.356019 84.518387 
L 190.416886 84.336217 
L 190.484275 84.435582 
L 190.873393 84.325176 
L 191.005997 83.651701 
L 192.421166 83.530255 
L 192.571161 82.768455 
L 192.942888 82.647009 
L 193.092883 81.885209 
L 193.545041 81.979054 
L 193.614604 82.089459 
L 194.02546 82.188825 
L 194.136326 82.647009 
L 194.510226 82.762935 
L 194.64283 82.8623 
L 196.147127 82.961665 
L 196.223211 83.530255 
L 196.603633 83.651701 
L 196.64711 83.751066 
L 196.705804 83.602019 
L 196.744933 83.502653 
L 197.138398 83.386727 
L 197.266654 83.099672 
L 197.660119 82.983746 
L 197.788376 82.658049 
L 198.201405 82.757414 
L 198.310097 83.105193 
L 199.875261 82.994787 
L 200.268726 82.878861 
L 200.396983 82.553164 
L 200.790448 82.437238 
L 200.918704 82.111541 
L 201.312169 81.995614 
L 201.440426 81.669917 
L 203.988165 81.52087 
L 204.049033 81.366302 
L 204.442498 81.250375 
L 204.570754 80.924678 
L 204.964219 80.808752 
L 205.092476 80.444413 
L 205.485941 80.328487 
L 205.614197 80.00279 
L 207.051105 79.886864 
L 207.179362 79.561167 
L 207.572827 79.445241 
L 207.666302 79.207868 
L 207.694562 79.42316 
L 207.701083 79.472842 
L 208.064114 79.588768 
L 208.222805 80.797712 
L 208.585836 80.913638 
L 208.744526 82.122581 
L 209.107557 82.238507 
L 209.266247 83.447451 
L 210.672721 83.563377 
L 210.831412 84.77232 
L 211.194443 84.888246 
L 211.353133 85.72181 
L 211.746598 85.837736 
L 211.874855 86.163433 
L 212.26832 86.279359 
L 212.396576 86.384244 
L 219.092001 86.49465 
L 219.178955 86.715462 
L 219.57242 86.831388 
L 219.700676 87.157085 
L 220.094141 87.273011 
L 220.222398 87.598708 
L 221.659305 87.714634 
L 221.787562 87.990648 
L 241.580369 88.101054 
L 241.612977 88.183859 
L 242.006442 88.299785 
L 242.134698 88.625482 
L 243.571606 88.741408 
L 243.699863 89.067105 
L 244.093327 89.183031 
L 244.221584 89.508728 
L 244.615049 89.624654 
L 244.743305 89.950351 
L 245.13677 90.066277 
L 245.265027 90.645908 
L 245.636753 90.767354 
L 245.786748 91.529154 
L 247.201918 91.6506 
L 247.351913 92.4124 
L 247.723639 92.533846 
L 247.873634 93.295646 
L 248.245361 93.417093 
L 248.395356 94.178893 
L 248.767082 94.300339 
L 248.917077 95.062139 
L 249.288803 95.183585 
L 249.438798 95.945385 
L 250.853968 96.066831 
L 251.003963 96.828631 
L 251.375689 96.950078 
L 251.525684 97.711878 
L 251.897411 97.833324 
L 252.047406 98.556482 
L 252.419132 98.677928 
L 252.569127 99.439728 
L 252.940854 99.561174 
L 253.090848 100.322974 
L 254.506018 100.444421 
L 254.656013 101.206221 
L 255.027739 101.327667 
L 255.177734 102.072906 
L 255.549461 102.194352 
L 255.699456 102.956152 
L 256.071182 103.077599 
L 256.221177 103.839399 
L 256.592904 103.960845 
L 256.742899 104.363826 
L 258.179806 104.479752 
L 258.308063 104.805449 
L 258.701528 104.921375 
L 258.829784 105.247072 
L 259.223249 105.362998 
L 259.351506 105.688695 
L 259.744971 105.58381 
L 259.792795 105.694216 
L 259.873227 105.898466 
L 260.266692 106.014392 
L 260.394949 106.34009 
L 261.831856 106.456016 
L 261.960113 106.781713 
L 262.353578 106.897639 
L 262.425315 107.079808 
L 262.464444 106.881078 
L 262.481834 106.798274 
L 262.962253 106.897639 
L 263.003556 107.002524 
L 263.397021 107.11845 
L 263.525277 107.444147 
L 263.918742 107.560073 
L 264.046999 107.88577 
L 265.49695 107.780885 
L 265.612163 107.720162 
L 267.046897 107.620797 
L 267.177327 106.847956 
L 267.540359 106.73203 
L 267.699049 105.870865 
L 269.114218 105.749419 
L 269.264213 105.02074 
L 269.657678 104.904814 
L 269.785935 104.844091 
L 273.394508 104.954497 
L 273.437985 105.064903 
L 276.440057 105.02074 
L 276.568313 103.717952 
L 276.929171 103.585465 
L 277.090035 101.95146 
L 277.450892 101.818973 
L 277.611756 100.184967 
L 277.972614 100.05248 
L 278.133478 98.418475 
L 278.494335 98.285988 
L 278.655199 97.010801 
L 280.070369 96.889355 
L 280.220363 96.127555 
L 280.59209 96.006108 
L 280.742085 95.536884 
L 281.13555 95.420958 
L 281.263806 95.095261 
L 281.657271 94.979334 
L 281.785528 94.653637 
L 282.178993 94.537711 
L 282.307249 94.212014 
L 283.744157 94.096088 
L 283.872414 93.770391 
L 284.265878 93.654465 
L 284.394135 93.328768 
L 284.7876 93.212842 
L 284.915856 92.887145 
L 285.309321 92.771219 
L 285.437578 92.445522 
L 285.831043 92.329596 
L 285.959299 91.921094 
L 287.374469 91.799648 
L 287.524464 91.037848 
L 287.89619 90.916402 
L 288.046185 90.49686 
L 288.43965 90.380934 
L 288.567907 90.055237 
L 288.961371 89.939311 
L 289.089628 89.613613 
L 289.483093 89.497687 
L 289.611349 89.17199 
L 291.048257 89.056064 
L 291.176514 88.730367 
L 291.569979 88.614441 
L 291.698235 88.288744 
L 292.0917 88.172818 
L 292.219957 87.847121 
L 292.613422 87.731195 
L 292.741678 87.405498 
L 293.135143 87.289572 
L 293.263399 86.963875 
L 294.700307 86.847949 
L 294.828564 86.522252 
L 295.222029 86.406325 
L 295.350285 86.080628 
L 295.74375 85.964702 
L 295.872007 85.639005 
L 296.261124 85.517559 
L 296.393728 85.180821 
L 296.787193 85.064895 
L 296.91545 84.739198 
L 298.352357 84.623272 
L 298.480614 84.297575 
L 298.874079 84.181649 
L 299.002335 83.855952 
L 299.3958 83.740026 
L 299.524057 83.414329 
L 299.917522 83.298403 
L 300.045778 82.972706 
L 300.439243 82.85678 
L 300.5675 82.531083 
L 302.004407 82.415156 
L 302.132664 82.089459 
L 302.526129 81.973533 
L 302.654385 81.647836 
L 303.04785 81.53191 
L 303.176107 81.206213 
L 303.569572 81.090287 
L 303.697828 80.76459 
L 304.091293 80.648664 
L 304.21955 80.322967 
L 305.656458 80.207041 
L 305.784714 79.881344 
L 306.178179 79.765418 
L 306.306436 79.439721 
L 306.689031 79.323795 
L 306.828157 78.617198 
L 307.199883 78.495751 
L 307.349878 77.733951 
L 307.721605 77.612505 
L 307.8716 76.972151 
L 309.308508 76.856225 
L 309.436764 76.530528 
L 309.830229 76.414602 
L 309.958486 75.80185 
L 310.330212 75.680404 
L 310.480207 74.918604 
L 310.851934 74.797157 
L 311.001928 74.035358 
L 311.373655 73.913911 
L 311.52365 73.152111 
L 312.938819 73.030665 
L 313.088814 72.268865 
L 313.460541 72.147419 
L 313.610536 71.385619 
L 313.982262 71.264172 
L 314.132257 70.883272 
L 314.525722 70.988158 
L 314.536591 71.010239 
L 314.593111 70.866712 
L 314.653979 70.712144 
L 315.047444 70.596217 
L 315.1757 70.27052 
L 316.612608 70.154594 
L 316.740864 69.828897 
L 317.134329 69.712971 
L 317.206066 69.530802 
L 317.245195 69.729532 
L 317.262586 69.812336 
L 317.743004 69.712971 
L 317.784307 69.608086 
L 318.177772 69.49216 
L 318.306029 69.166463 
L 318.699494 69.050536 
L 318.82775 68.724839 
L 320.277701 68.829725 
L 320.392914 68.890448 
L 320.801596 69.000854 
L 320.914636 69.287909 
L 321.308101 69.403835 
L 321.436357 69.729532 
L 321.816779 69.828897 
L 321.958079 71.043361 
L 322.318936 71.175848 
L 322.4798 72.462075 
L 323.886274 72.578001 
L 324.044965 73.753823 
L 324.416691 73.875269 
L 324.566686 74.372095 
L 324.960151 74.488021 
L 325.088407 74.813718 
L 325.481872 74.929644 
L 325.610129 75.255341 
L 326.003594 75.371268 
L 326.13185 75.696965 
L 327.568758 75.812891 
L 327.697015 76.138588 
L 328.09048 76.254514 
L 328.218736 76.359399 
L 331.216461 76.469805 
L 331.349065 77.816756 
L 331.709922 77.949243 
L 331.870786 79.583248 
L 332.231643 79.715735 
L 332.392508 81.349741 
L 332.753365 81.482228 
L 332.914229 83.116233 
L 333.275086 83.24872 
L 333.43595 84.523907 
L 334.85112 84.645353 
L 335.001115 85.407153 
L 335.372841 85.5286 
L 335.522836 85.997824 
L 335.916301 86.11375 
L 336.044558 86.439447 
L 336.438023 86.555373 
L 336.566279 86.88107 
L 336.959744 86.996996 
L 337.088001 87.322693 
L 338.524908 87.43862 
L 338.653165 87.764317 
L 339.04663 87.880243 
L 339.127062 88.007209 
L 339.174886 87.924405 
L 340.109637 88.034811 
L 340.218329 88.310825 
L 340.611794 88.426751 
L 340.740051 88.835253 
L 342.15522 88.956699 
L 342.305215 89.409363 
L 342.69868 89.525289 
L 342.822589 89.54185 
L 343.253009 89.652255 
L 343.348658 89.895148 
L 343.742123 90.011074 
L 343.870379 90.336771 
L 344.263844 90.452697 
L 344.392101 90.778394 
L 345.829009 90.894321 
L 345.957265 91.220018 
L 346.35073 91.335944 
L 346.478987 91.661641 
L 346.872451 91.777567 
L 347.000708 92.103264 
L 347.394173 92.21919 
L 347.522429 92.544887 
L 347.915894 92.660813 
L 348.044151 92.98651 
L 349.481059 93.102436 
L 349.609315 93.428133 
L 350.00278 93.544059 
L 350.131037 93.869756 
L 350.524502 93.985682 
L 350.652758 94.31138 
L 351.041875 94.432826 
L 351.174479 94.769564 
L 351.567944 94.88549 
L 351.696201 95.211187 
L 353.133109 95.327113 
L 353.261365 95.65281 
L 353.65483 95.768736 
L 353.783087 96.094433 
L 354.176552 96.210359 
L 354.304808 96.536056 
L 354.698273 96.651982 
L 354.82653 96.977679 
L 355.219995 97.093605 
L 355.348251 97.419302 
L 361.487173 97.551789 
L 361.608908 97.860925 
L 362.002373 97.976851 
L 362.13063 98.302549 
L 362.524095 98.418475 
L 362.652351 98.622725 
L 364.663153 98.733131 
L 364.739237 98.926341 
L 365.132702 99.042267 
L 365.260958 99.367964 
L 365.654423 99.48389 
L 365.78268 99.809587 
L 366.176145 99.925514 
L 366.304401 100.251211 
L 367.741309 100.367137 
L 367.869566 100.670753 
L 368.313029 100.781158 
L 368.391287 100.930206 
L 371.493356 100.869483 
L 371.521616 100.714915 
L 371.891168 100.587948 
L 372.025946 100.543786 
L 375.551914 100.43338 
L 375.695387 100.069041 
L 376.088852 99.953115 
L 376.217109 99.908953 
L 377.204032 99.798547 
L 377.260552 99.511492 
L 378.675721 99.390046 
L 378.825716 98.628246 
L 379.197442 98.506799 
L 379.347437 97.744999 
L 379.719164 97.623553 
L 379.869159 96.861753 
L 380.240885 96.740307 
L 380.39088 95.978507 
L 384.438569 95.961946 
L 393.914335 96.072352 
L 393.955638 96.243481 
L 394.33606 96.359407 
L 394.477359 96.718226 
L 397.01423 96.867273 
L 397.085966 97.049443 
L 397.479431 97.165369 
L 397.607688 97.491066 
L 405.363947 97.722918 
L 405.433509 97.899567 
L 405.826974 98.015494 
L 405.955231 98.341191 
L 406.348696 98.457117 
L 406.476952 98.782814 
L 407.91386 98.89874 
L 408.042117 99.224437 
L 408.435582 99.340363 
L 408.563838 99.66606 
L 408.957303 99.781986 
L 409.08556 100.107683 
L 409.479024 100.223609 
L 409.607281 100.549306 
L 410.000746 100.665232 
L 410.129002 100.990929 
L 411.555041 101.106855 
L 411.694167 101.813452 
L 412.065893 101.934899 
L 412.215888 102.696699 
L 412.587615 102.818145 
L 412.73761 103.579945 
L 413.109336 103.701391 
L 413.259331 104.463191 
L 413.631058 104.584638 
L 413.781052 105.346437 
L 415.196222 105.467884 
L 415.346217 106.229684 
L 415.717943 106.35113 
L 415.867938 107.11293 
L 416.239665 107.234376 
L 416.38966 107.996176 
L 416.761386 108.117623 
L 416.911381 108.879423 
L 417.283108 109.000869 
L 417.433103 109.762669 
L 418.848272 109.884115 
L 418.998267 110.645915 
L 419.369993 110.767361 
L 419.519988 111.529161 
L 419.891715 111.650608 
L 420.04171 112.412408 
L 420.413436 112.533854 
L 420.563431 113.295654 
L 420.935158 113.4171 
L 421.085153 114.1789 
L 422.500322 114.300346 
L 422.650317 115.084227 
L 423.013348 115.200154 
L 423.172038 116.149643 
L 423.543765 116.27109 
L 423.69376 117.03289 
L 424.065486 117.154336 
L 424.215481 117.916136 
L 424.587208 118.037582 
L 424.737203 118.799382 
L 426.152372 118.920828 
L 426.302367 119.958643 
L 426.661051 120.09665 
L 426.824089 121.04614 
L 427.191467 121.173106 
L 427.34581 121.973548 
L 427.717537 122.094995 
L 427.867531 122.856795 
L 428.239258 122.978241 
L 428.389253 123.740041 
L 429.804422 123.861487 
L 429.954417 124.623287 
L 430.326144 124.744733 
L 430.476139 125.506533 
L 430.847865 125.62798 
L 430.99786 126.108245 
L 431.391325 126.224171 
L 431.519582 126.549868 
L 431.913046 126.665794 
L 432 127.074295 
L 432 127.074295 
" clip-path="url(#p1b277cfc4a)" style="fill: none; stroke: #000000; stroke-width: 1.5; stroke-linecap: square"/>
   </g>
   <g id="line2d_13">
    <path d="M 28.055 90.071797 
L 28.228907 86.87555 
L 28.585417 86.748583 
L 28.750629 83.552336 
L 29.104964 83.43641 
L 29.27235 80.94676 
L 29.633207 80.814273 
L 29.794071 78.308061 
L 30.148407 78.159014 
L 30.315793 75.155976 
L 31.713572 75.04005 
L 31.880957 72.186061 
L 32.237467 72.053574 
L 32.402679 69.580484 
L 32.759188 69.447997 
L 32.9244 66.505683 
L 33.28091 66.373196 
L 33.446122 64.032594 
L 33.800457 63.927708 
L 33.967843 61.156523 
L 35.365622 61.040597 
L 35.533007 58.699994 
L 35.889517 58.556467 
L 36.054729 55.868086 
L 36.411238 55.730079 
L 36.57645 53.179705 
L 36.93296 53.030657 
L 37.098172 50.529966 
L 37.454681 50.386439 
L 37.619893 48.194884 
L 39.024193 48.062397 
L 39.185057 46.284864 
L 39.545915 46.152377 
L 39.706779 43.778653 
L 40.063289 43.646166 
L 40.2285 40.770095 
L 40.58501 40.637608 
L 40.750222 37.767058 
L 41.108905 37.629051 
L 41.271943 35.603105 
L 42.671896 35.470618 
L 42.837108 33.532996 
L 43.197965 33.400509 
L 43.358829 32.08116 
L 43.72186 31.965234 
L 43.88055 30.607243 
L 44.243582 30.491317 
L 44.402272 29.282374 
L 44.765303 29.166448 
L 44.923993 27.8747 
L 46.330467 27.758774 
L 46.489158 26.566391 
L 46.860884 26.444945 
L 47.010879 25.324326 
L 47.37391 25.2084 
L 47.5326 23.999457 
L 47.895632 23.883531 
L 48.054322 22.602824 
L 48.413005 22.464817 
L 48.576043 21.101305 
L 49.982517 20.985379 
L 50.141208 19.66603 
L 50.502065 19.533543 
L 50.662929 18.363242 
L 51.034656 18.241795 
L 51.184651 17.479996 
L 51.556377 17.358549 
L 51.706372 16.547067 
L 52.078099 16.42562 
L 52.228093 15.619658 
L 53.634568 15.503732 
L 53.793258 13.952531 
L 54.16281 13.825564 
L 54.314979 12.997521 
L 54.686706 12.876074 
L 54.836701 12.285403 
L 55.230166 12.169477 
L 55.358422 11.661611 
L 55.751887 11.545685 
L 55.880144 11.26415 
L 57.347485 11.148224 
L 57.445308 10.999176 
L 57.838773 10.88325 
L 57.967029 10.596195 
L 58.360494 10.480269 
L 58.488751 10.209775 
L 58.882216 10.093849 
L 59.010472 9.768152 
L 59.403937 9.652226 
L 59.532194 9.199562 
L 60.947363 9.078115 
L 61.097358 8.101024 
L 61.462563 7.990619 
L 61.619079 7.184656 
L 61.990806 7.06321 
L 62.082107 7.019048 
L 62.099498 7.079771 
L 62.140801 7.157055 
L 62.521223 7.25642 
L 62.662522 7.940936 
L 63.032075 8.067903 
L 63.184244 8.945629 
L 64.592892 9.067075 
L 64.749408 10.011044 
L 65.116787 10.138011 
L 65.27113 10.971575 
L 65.634161 11.087501 
L 65.792851 11.943146 
L 66.181968 12.064592 
L 66.314572 12.313005 
L 68.86666 12.41237 
L 68.92318 12.842953 
L 69.286211 12.958879 
L 69.444901 14.267187 
L 69.807932 14.383113 
L 69.966622 15.338123 
L 70.338349 15.45957 
L 70.488344 16.304174 
L 71.892644 16.431141 
L 71.966555 16.812041 
L 72.044813 16.751317 
L 72.053508 16.745797 
L 72.97739 16.850683 
L 73.049127 17.783611 
L 73.096951 18.446046 
L 73.453461 18.578533 
L 73.618673 20.449911 
L 73.977356 20.582398 
L 74.140394 21.901747 
L 75.555563 22.023193 
L 75.688168 23.265259 
L 75.705558 23.441908 
L 76.066416 23.574395 
L 76.22728 24.954467 
L 76.588137 25.064873 
L 76.749001 27.179143 
L 77.107685 27.317151 
L 77.270723 29.569429 
L 77.629406 29.707436 
L 77.792444 31.943153 
L 79.196744 32.07564 
L 79.357608 34.189911 
L 79.718466 34.322398 
L 79.87933 36.061289 
L 80.238013 36.177215 
L 80.401051 37.540726 
L 80.761909 37.673213 
L 80.922773 39.561152 
L 81.281456 39.699159 
L 81.444494 42.895407 
L 82.842273 43.011333 
L 83.009659 45.650031 
L 83.368342 45.782518 
L 83.53138 48.448817 
L 83.88789 48.564744 
L 84.053101 50.535487 
L 84.416133 50.651413 
L 84.572649 52.6884 
L 84.574823 52.732562 
L 84.929159 52.865049 
L 85.096544 55.393341 
L 86.496497 55.525828 
L 86.661709 57.921634 
L 87.020392 58.059641 
L 87.18343 60.085587 
L 87.542114 60.223594 
L 87.705151 62.718765 
L 88.063835 62.856772 
L 88.226873 64.750231 
L 88.585556 64.860637 
L 88.748594 66.25727 
L 90.150721 66.395277 
L 90.313759 67.637342 
L 90.672442 67.764309 
L 90.83548 69.87858 
L 91.194164 70.022107 
L 91.357202 72.125338 
L 91.713711 72.252304 
L 91.878923 74.333453 
L 92.235433 74.4549 
L 92.400644 76.226912 
L 93.807119 76.348359 
L 93.965809 77.695309 
L 94.32884 77.811235 
L 94.48753 79.759897 
L 94.846214 79.897905 
L 95.009252 82.326832 
L 95.367935 82.464839 
L 95.530973 84.888246 
L 95.89183 85.020733 
L 96.052695 86.610576 
L 97.454821 86.748583 
L 97.617859 88.239061 
L 97.98089 88.354988 
L 98.13958 89.249274 
L 98.511307 89.370721 
L 98.661302 90.281568 
L 99.033028 90.403015 
L 99.183023 91.164815 
L 99.55475 91.286261 
L 99.704745 92.130865 
L 101.119914 92.252312 
L 101.176434 92.528326 
L 101.269909 92.445522 
L 101.691634 92.544887 
L 101.79163 92.79882 
L 102.228572 92.914746 
L 102.313352 93.212842 
L 102.685078 93.334288 
L 102.835073 94.167852 
L 103.195931 94.300339 
L 103.356795 95.227748 
L 104.771964 95.349194 
L 104.921959 96.2214 
L 105.289338 96.348366 
L 105.443681 96.674063 
L 106.889284 96.784469 
L 107.008845 96.911436 
L 108.439231 97.027362 
L 108.574009 97.695317 
L 109.019646 97.811243 
L 109.095731 98.059656 
L 109.482674 98.170062 
L 109.617452 98.589604 
L 110.010917 98.70553 
L 110.139173 99.213396 
L 110.532638 99.329322 
L 110.660895 99.655019 
L 112.097803 99.770945 
L 112.226059 100.096643 
L 112.632567 100.212569 
L 112.747781 100.416819 
L 113.141246 100.532745 
L 113.269502 100.858442 
L 113.662967 100.974368 
L 113.791224 101.300066 
L 114.184688 101.415992 
L 114.312945 101.868655 
L 115.728114 101.990102 
L 115.830285 102.238515 
L 115.869414 102.139149 
L 115.878109 102.117068 
L 116.282443 102.216434 
L 116.399831 102.812625 
L 116.771557 102.934071 
L 116.921552 103.613067 
L 117.295453 103.734513 
L 117.443274 104.032609 
L 117.849782 103.933243 
L 117.964995 102.91751 
L 119.371469 102.801584 
L 119.530159 101.587121 
L 119.901886 101.465674 
L 120.051881 100.703874 
L 120.423607 100.582428 
L 120.573602 99.67158 
L 120.932286 99.533573 
L 121.095324 97.711878 
L 121.454007 97.579391 
L 121.617045 96.894875 
L 123.053953 96.778949 
L 123.18221 96.453252 
L 123.575674 96.337326 
L 123.703931 95.785297 
L 124.062614 95.647289 
L 124.225652 93.74279 
L 124.58651 93.610303 
L 124.747374 92.589049 
L 125.140839 92.473123 
L 125.269095 92.191588 
L 126.706003 92.075662 
L 126.747306 92.042541 
L 126.790783 92.152946 
L 126.83426 92.163987 
L 128.849409 92.274393 
L 128.921145 92.456562 
L 130.358053 92.572488 
L 130.48631 92.947868 
L 130.879775 93.063794 
L 131.008031 93.444694 
L 131.384105 93.56614 
L 131.529753 93.715188 
L 135.636135 93.610303 
L 135.703524 93.16868 
L 138.70777 92.97547 
L 138.833853 92.141906 
L 139.205579 92.02046 
L 139.355574 90.70111 
L 139.716432 90.568623 
L 139.877296 89.652255 
L 141.292465 89.530809 
L 141.427243 88.283224 
L 141.44246 88.101054 
L 141.805491 87.968567 
L 141.964181 87.245409 
L 142.357646 87.129483 
L 142.485903 86.803786 
L 142.879368 86.68786 
L 143.007624 86.362163 
L 143.420654 86.262798 
L 143.529346 85.959182 
L 144.966254 85.843256 
L 145.016252 85.72181 
L 145.092336 85.821175 
L 145.544495 85.710769 
L 145.616232 85.5286 
L 146.009696 85.412673 
L 146.137953 85.086976 
L 146.531418 84.97105 
L 146.659674 84.645353 
L 147.053139 84.529427 
L 147.181396 84.187169 
L 148.618304 84.071243 
L 148.74656 83.745546 
L 149.140025 83.62962 
L 149.268282 83.541295 
L 153.276841 83.651701 
L 153.442053 84.071243 
L 153.835518 84.187169 
L 153.963775 84.512866 
L 154.357239 84.628792 
L 154.485496 84.954489 
L 155.922404 85.070416 
L 155.994141 85.54516 
L 156.05066 85.948141 
L 156.422387 86.075108 
L 156.572382 86.836908 
L 156.937587 86.952834 
L 157.094103 87.747756 
L 157.487568 87.863682 
L 157.615825 88.189379 
L 158.00929 88.305305 
L 158.137546 88.631002 
L 159.574454 88.746928 
L 159.70271 89.072625 
L 160.078785 89.183031 
L 160.224432 89.92275 
L 160.596158 90.044196 
L 160.746153 90.805996 
L 161.11788 90.927442 
L 161.267875 91.689242 
L 161.639601 91.810689 
L 161.789596 92.428961 
L 163.204766 92.550407 
L 163.354761 93.312207 
L 163.726487 93.433654 
L 163.876482 93.902878 
L 164.269947 94.018804 
L 164.398203 94.344501 
L 164.791668 94.460427 
L 164.919925 94.786124 
L 165.31339 94.90205 
L 165.441646 95.227748 
L 166.878554 95.343674 
L 167.006811 95.669371 
L 167.389406 95.779776 
L 167.528532 96.23244 
L 167.921997 96.348366 
L 168.050253 96.674063 
L 168.443718 96.789989 
L 168.571975 97.115686 
L 168.96544 97.231612 
L 169.093696 97.55731 
L 170.526257 97.662195 
L 170.658861 98.849057 
L 171.019718 98.970504 
L 171.180582 99.511492 
L 171.574047 99.627418 
L 171.702304 99.953115 
L 172.095769 100.069041 
L 172.224025 100.394738 
L 172.61749 100.510664 
L 172.745746 101.95146 
L 174.150047 102.083947 
L 174.310911 103.723472 
L 174.673942 103.839399 
L 174.832632 105.048342 
L 175.195663 105.164268 
L 175.354354 106.522259 
L 175.710863 106.654746 
L 175.876075 108.923585 
L 176.232585 109.056072 
L 176.397797 110.182211 
L 177.812966 110.303657 
L 177.962961 111.065457 
L 178.334687 111.186903 
L 178.484682 112.175035 
L 178.841192 112.307522 
L 179.006404 114.659165 
L 179.365087 114.797172 
L 179.528125 116.254529 
L 179.899852 116.375975 
L 180.049847 117.137775 
L 181.465016 117.259221 
L 181.615011 118.021021 
L 181.986738 118.142468 
L 182.136732 118.904268 
L 182.508459 119.025714 
L 182.658454 119.787514 
L 183.03018 119.90896 
L 183.180175 120.67076 
L 183.551902 120.792206 
L 183.701897 121.261431 
L 185.138805 121.377357 
L 185.267061 121.703054 
L 185.660526 121.81898 
L 185.788783 122.144677 
L 186.182247 122.260603 
L 186.310504 122.5863 
L 186.703969 122.702226 
L 186.832225 123.027924 
L 187.22569 123.14385 
L 187.353947 123.469547 
L 188.790855 123.585473 
L 188.919111 123.960852 
L 189.312576 124.076778 
L 189.440833 124.402476 
L 189.834298 124.518402 
L 189.962554 124.844099 
L 190.356019 124.960025 
L 190.456016 125.512054 
L 190.484275 125.782548 
L 190.84948 125.903994 
L 191.005997 126.323536 
L 192.442905 126.439462 
L 192.571161 126.765159 
L 192.964626 126.881085 
L 193.092883 127.206782 
L 193.460262 127.322708 
L 193.614604 128.735902 
L 193.977635 128.851829 
L 194.136326 130.618321 
L 194.495009 130.756328 
L 194.658047 132.158482 
L 196.064521 132.274408 
L 196.223211 134.151306 
L 196.581895 134.278273 
L 196.744933 135.448574 
L 197.116659 135.57002 
L 197.266654 136.33182 
L 197.638381 136.453267 
L 197.788376 137.215067 
L 198.160102 137.336513 
L 198.24923 138.352246 
L 198.310097 138.987079 
L 199.716571 139.103005 
L 199.875261 140.201543 
L 200.246988 140.322989 
L 200.396983 141.084789 
L 200.768709 141.206236 
L 200.918704 141.968036 
L 201.290431 142.089482 
L 201.440426 142.851282 
L 201.812152 142.972728 
L 201.962147 143.751089 
L 203.377317 143.872535 
L 203.527312 144.634335 
L 203.899038 144.755782 
L 204.049033 145.280209 
L 204.442498 145.396135 
L 204.570754 145.594865 
L 207.694562 145.48446 
L 207.701083 145.467899 
L 208.094548 145.351973 
L 208.222805 145.026276 
L 208.616269 144.91035 
L 208.744526 144.584653 
L 209.137991 144.468726 
L 209.266247 144.143029 
L 210.703155 144.027103 
L 210.831412 143.817332 
L 233.161089 143.706927 
L 233.265434 143.408831 
L 233.658899 143.292905 
L 233.787155 142.967208 
L 234.18062 142.851282 
L 234.308877 142.525585 
L 234.702342 142.409659 
L 234.830598 142.083962 
L 236.267506 141.968036 
L 236.395762 141.642338 
L 236.789227 141.526412 
L 236.917484 141.200715 
L 237.310949 141.084789 
L 237.439205 140.759092 
L 237.83267 140.643166 
L 237.960927 140.317469 
L 245.786748 140.295388 
L 255.119041 140.190502 
L 255.177734 140.030414 
L 255.571199 139.914488 
L 255.699456 139.588791 
L 256.092921 139.472865 
L 256.221177 139.147168 
L 256.614642 139.031242 
L 256.742899 138.705545 
L 258.179806 138.589619 
L 258.308063 138.263922 
L 258.701528 138.147995 
L 258.829784 137.822298 
L 259.223249 137.706372 
L 259.351506 137.507642 
L 259.723232 137.397236 
L 259.860184 137.27579 
L 262.438358 137.176425 
L 262.481834 136.850727 
L 262.853561 136.729281 
L 262.988339 136.613355 
L 265.477385 136.51399 
L 265.612163 135.890197 
L 265.98389 135.768751 
L 266.133885 135.006951 
L 266.505611 134.885505 
L 266.655606 134.123705 
L 267.027332 134.002258 
L 267.131677 132.8982 
L 267.177327 132.368253 
L 267.536011 132.230245 
L 267.699049 130.507915 
L 269.103349 130.375428 
L 269.264213 128.774545 
L 269.627244 128.658618 
L 269.785935 127.714649 
L 270.157661 127.593203 
L 270.307656 126.831403 
L 270.679383 126.709956 
L 270.829377 125.948156 
L 271.201104 125.82671 
L 271.351099 125.06491 
L 272.766268 124.943464 
L 272.916263 124.181664 
L 273.28799 124.060218 
L 273.437985 123.519229 
L 273.83145 123.403303 
L 273.959706 123.077606 
L 274.353171 122.96168 
L 274.481428 122.635983 
L 274.874893 122.520057 
L 275.003149 122.19436 
L 287.950536 122.249563 
L 288.046185 122.525577 
L 288.43965 122.641503 
L 288.567907 122.9672 
L 288.961371 123.083126 
L 289.089628 123.408823 
L 289.483093 123.52475 
L 289.611349 123.850447 
L 291.048257 123.966373 
L 291.176514 124.29207 
L 291.569979 124.407996 
L 291.698235 124.733693 
L 292.0917 124.849619 
L 292.219957 125.175316 
L 292.613422 125.291242 
L 292.741678 125.616939 
L 295.863311 125.556216 
L 295.872007 125.534135 
L 296.261124 125.412688 
L 296.393728 125.075951 
L 296.787193 124.960025 
L 296.91545 124.634328 
L 298.352357 124.518402 
L 298.480614 124.192705 
L 298.874079 124.076778 
L 299.002335 123.92221 
L 309.899792 124.027096 
L 309.958486 124.187184 
L 310.351951 124.30311 
L 310.480207 124.628807 
L 310.873672 124.744733 
L 311.001928 125.070431 
L 311.395393 125.186357 
L 311.52365 125.512054 
L 312.960558 125.62798 
L 313.088814 125.953677 
L 313.482279 126.069603 
L 313.610536 126.3953 
L 314.004001 126.511226 
L 314.132257 126.836923 
L 314.495288 126.941809 
L 314.653979 127.54904 
L 315.047444 127.664966 
L 315.1757 127.990663 
L 316.612608 128.10659 
L 316.740864 128.432287 
L 317.134329 128.548213 
L 317.245195 129.127843 
L 317.262586 129.298972 
L 317.625617 129.414898 
L 317.784307 129.977968 
L 318.177772 130.093894 
L 318.306029 130.419591 
L 318.699494 130.535517 
L 318.82775 130.861214 
L 320.249441 130.97162 
L 320.392914 131.910069 
L 320.764641 132.031515 
L 320.914636 132.793315 
L 321.286362 132.914761 
L 321.436357 133.676561 
L 321.808084 133.798008 
L 321.912428 134.902065 
L 321.958079 135.432013 
L 322.316762 135.57002 
L 322.4798 137.292351 
L 323.8841 137.424838 
L 324.044965 139.025721 
L 324.407996 139.141647 
L 324.566686 140.085617 
L 324.938413 140.207063 
L 325.088407 140.968863 
L 325.460134 141.09031 
L 325.610129 141.852109 
L 325.981855 141.973556 
L 326.13185 142.735356 
L 327.54702 142.856802 
L 327.697015 143.618602 
L 328.068741 143.740048 
L 328.218736 144.281037 
L 328.612201 144.396963 
L 328.740458 144.72266 
L 329.133922 144.838586 
L 329.262179 145.164283 
L 329.655644 145.280209 
L 329.7839 145.605906 
L 339.124888 145.539663 
L 339.174886 145.202925 
L 339.544439 145.081479 
L 339.696608 144.286557 
L 340.083551 144.165111 
L 340.218329 143.822853 
L 340.611794 143.706927 
L 340.740051 143.38123 
L 342.176958 143.265303 
L 342.300867 142.652551 
L 342.305215 142.63047 
L 342.676942 142.509024 
L 342.826936 141.747224 
L 343.198663 141.625778 
L 343.348658 141.217276 
L 343.742123 141.10135 
L 343.870379 140.775653 
L 344.263844 140.659727 
L 344.392101 140.33403 
L 345.829009 140.218104 
L 345.957265 139.892407 
L 346.35073 139.776481 
L 346.478987 139.450784 
L 346.872451 139.334858 
L 346.998534 139.312776 
L 350.652758 139.417662 
L 351.041875 139.539108 
L 351.174479 139.875846 
L 351.567944 139.991772 
L 351.696201 140.317469 
L 353.133109 140.433395 
L 353.261365 140.759092 
L 353.65483 140.875018 
L 353.783087 141.029586 
L 367.713049 140.919181 
L 367.869566 140.499639 
L 368.241292 140.378192 
L 368.391287 139.875846 
L 368.784752 139.75992 
L 368.913009 139.434223 
L 369.306473 139.318297 
L 369.43473 138.9926 
L 369.828195 138.876674 
L 369.956451 138.550977 
L 371.393359 138.43505 
L 371.521616 137.833339 
L 371.882473 137.700852 
L 372.043337 137.187465 
L 372.421585 137.066019 
L 372.565059 136.70168 
L 372.958524 136.585754 
L 373.08678 136.260057 
L 373.480245 136.14413 
L 373.608501 135.818433 
L 375.045409 135.702507 
L 375.173666 135.37681 
L 375.567131 135.260884 
L 375.695387 134.935187 
L 376.088852 134.819261 
L 376.217109 134.493564 
L 376.610574 134.377638 
L 376.73883 134.051941 
L 377.132295 133.936015 
L 377.260552 133.809048 
L 393.899118 133.919454 
L 393.955638 134.289313 
L 394.32519 134.41076 
L 394.477359 135.205681 
L 394.864303 135.327128 
L 394.999081 135.669386 
L 395.392546 135.785312 
L 395.520802 136.111009 
L 396.95771 136.226935 
L 397.081619 136.839687 
L 397.085966 136.861768 
L 397.457693 136.983214 
L 397.607688 137.745014 
L 397.979414 137.866461 
L 398.129409 138.274962 
L 398.522874 138.390888 
L 398.651131 138.716585 
L 399.044596 138.832511 
L 399.172852 139.158208 
L 400.60976 139.274134 
L 400.738016 139.599831 
L 401.131481 139.715758 
L 401.259738 140.041455 
L 401.653203 140.157381 
L 401.779285 140.179462 
L 422.493801 140.289868 
L 422.650317 140.70941 
L 423.022044 140.830856 
L 423.172038 141.333202 
L 423.565503 141.449128 
L 423.69376 141.774825 
L 424.087225 141.890751 
L 424.215481 142.216449 
L 424.608946 142.332375 
L 424.737203 142.658072 
L 426.174111 142.773998 
L 426.302367 143.375709 
L 426.663224 143.508196 
L 426.824089 144.021583 
L 427.202337 144.143029 
L 427.34581 144.507368 
L 427.739275 144.623295 
L 427.867531 144.948992 
L 428.260996 145.064918 
L 428.389253 145.390615 
L 429.826161 145.506541 
L 429.954417 145.832238 
L 430.347882 145.948164 
L 430.476139 146.273861 
L 430.869604 146.389787 
L 430.99786 146.715484 
L 431.391325 146.83141 
L 431.519582 147.157107 
L 431.913046 147.273033 
L 432 147.4 
L 432 147.4 
" clip-path="url(#p1b277cfc4a)" style="fill: none; stroke-dasharray: 3.7,1.6; stroke-dashoffset: 0; stroke: #000000"/>
   </g>
   <g id="line2d_14">
    <path d="M 28.055 147.4 
L 152.894246 147.289594 
L 152.920332 146.958377 
L 153.279015 146.82037 
L 153.442053 144.750261 
L 153.800737 144.612254 
L 153.963775 142.542146 
L 154.322458 142.404138 
L 154.485496 140.33403 
L 155.887622 140.196023 
L 156.05066 138.125914 
L 156.409344 137.987907 
L 156.572382 136.293178 
L 156.935413 136.177252 
L 157.094103 134.968309 
L 157.457134 134.852383 
L 157.615825 133.864251 
L 157.987551 133.742805 
L 158.137546 132.981005 
L 159.552716 132.859558 
L 159.70271 132.097759 
L 160.074437 131.976312 
L 160.224432 131.214512 
L 160.596158 131.093066 
L 160.746153 130.331266 
L 161.11788 130.20982 
L 161.267875 129.44802 
L 161.639601 129.326573 
L 161.789596 128.564774 
L 163.204766 128.443327 
L 163.354761 127.681527 
L 163.726487 127.560081 
L 163.876482 126.798281 
L 164.248208 126.676835 
L 164.398203 125.915035 
L 164.76993 125.793588 
L 164.919925 125.031788 
L 165.291651 124.910342 
L 165.441646 124.148542 
L 166.856816 124.027096 
L 167.006811 123.314979 
L 167.400276 123.199052 
L 167.528532 122.873355 
L 167.921997 122.757429 
L 168.050253 122.431732 
L 168.443718 122.315806 
L 168.571975 121.990109 
L 168.96544 121.874183 
L 169.093696 121.548486 
L 170.530604 121.43256 
L 170.658861 121.106863 
L 171.052326 120.990937 
L 171.180582 120.66524 
L 171.574047 120.549314 
L 171.702304 120.223617 
L 172.095769 120.107691 
L 172.224025 119.781994 
L 172.61749 119.666067 
L 172.745746 119.34037 
L 174.182654 119.224444 
L 174.310911 118.898747 
L 174.704376 118.782821 
L 174.832632 118.457124 
L 175.226097 118.341198 
L 175.354354 118.015501 
L 175.747819 117.899575 
L 175.876075 117.573878 
L 176.26954 117.457952 
L 176.397797 117.132255 
L 177.834704 117.016329 
L 177.962961 116.690632 
L 178.356426 116.574706 
L 178.484682 116.249008 
L 178.878147 116.133082 
L 179.006404 115.807385 
L 179.399869 115.691459 
L 179.528125 115.365762 
L 179.92159 115.249836 
L 180.049847 114.924139 
L 181.486754 114.808213 
L 181.615011 114.482516 
L 182.008476 114.36659 
L 182.136732 114.040893 
L 182.530197 113.924967 
L 182.658454 113.59927 
L 183.051919 113.483344 
L 183.180175 113.157647 
L 183.57364 113.041721 
L 183.701897 112.716023 
L 185.138805 112.600097 
L 185.267061 112.2744 
L 185.660526 112.158474 
L 185.788783 111.832777 
L 186.182247 111.716851 
L 186.310504 111.391154 
L 186.703969 111.275228 
L 186.832225 110.723199 
L 187.203952 110.601753 
L 187.353947 109.839953 
L 188.769116 109.718506 
L 188.919111 108.956707 
L 189.290838 108.83526 
L 189.440833 108.07346 
L 189.812559 107.952014 
L 189.962554 107.190214 
L 190.334281 107.068768 
L 190.484275 106.053034 
L 190.847307 105.937108 
L 191.005997 104.728165 
L 192.412471 104.612239 
L 192.571161 103.403296 
L 192.934192 103.28737 
L 193.092883 102.078426 
L 193.455914 101.9625 
L 193.614604 100.753557 
L 193.977635 100.637631 
L 194.136326 99.428688 
L 194.499357 99.312761 
L 194.658047 98.103818 
L 196.064521 97.987892 
L 196.223211 96.778949 
L 196.586243 96.663023 
L 196.744933 95.454079 
L 197.107964 95.338153 
L 197.266654 94.167852 
L 197.629685 94.051926 
L 197.788376 92.842983 
L 198.151407 92.727057 
L 198.310097 91.518113 
L 199.716571 91.402187 
L 199.875261 90.193244 
L 200.238293 90.077318 
L 200.396983 88.868374 
L 200.760014 88.752448 
L 200.918704 87.543505 
L 201.281735 87.427579 
L 201.440426 86.218636 
L 201.803457 86.10271 
L 201.962147 85.252585 
L 203.377317 85.131139 
L 203.527312 84.369339 
L 203.899038 84.247892 
L 204.049033 83.486093 
L 204.420759 83.364646 
L 204.570754 82.729813 
L 204.964219 82.613887 
L 205.092476 82.28819 
L 205.485941 82.172264 
L 205.614197 81.846567 
L 207.051105 81.730641 
L 207.179362 81.404944 
L 207.572827 81.289017 
L 207.666302 81.051645 
L 207.68804 81.272457 
L 207.701083 81.404944 
L 208.06194 81.53743 
L 208.222805 83.171436 
L 208.583662 83.303923 
L 208.744526 84.937929 
L 209.105383 85.070416 
L 209.266247 86.704421 
L 210.670548 86.836908 
L 210.831412 88.354988 
L 211.194443 88.470914 
L 211.353133 89.304477 
L 211.746598 89.420403 
L 211.874855 89.7461 
L 212.26832 89.862026 
L 212.396576 89.966912 
L 219.092001 90.077318 
L 219.178955 90.298129 
L 219.57242 90.414055 
L 219.700676 90.739752 
L 220.094141 90.855679 
L 220.222398 91.181376 
L 221.659305 91.297302 
L 221.787562 91.573316 
L 233.161089 91.683722 
L 233.265434 91.948696 
L 233.658899 92.064622 
L 233.787155 92.390319 
L 234.18062 92.506245 
L 234.308877 92.831942 
L 234.702342 92.947868 
L 234.830598 93.273565 
L 236.267506 93.389491 
L 236.395762 93.715188 
L 236.789227 93.831114 
L 236.917484 94.156811 
L 237.310949 94.272737 
L 237.439205 94.598435 
L 237.83267 94.714361 
L 237.960927 95.040058 
L 241.580369 95.205666 
L 241.612977 95.288471 
L 242.006442 95.404397 
L 242.134698 95.730094 
L 243.571606 95.84602 
L 243.699863 96.171717 
L 244.093327 96.287643 
L 244.221584 96.61334 
L 244.615049 96.729266 
L 244.743305 97.054963 
L 245.13677 97.170889 
L 245.265027 97.75052 
L 245.636753 97.871966 
L 245.786748 98.633766 
L 247.201918 98.755212 
L 247.351913 99.517012 
L 247.723639 99.638459 
L 247.873634 100.400258 
L 248.245361 100.521705 
L 248.395356 101.283505 
L 248.767082 101.404951 
L 248.917077 102.166751 
L 249.288803 102.288197 
L 249.438798 103.049997 
L 250.853968 103.171444 
L 251.003963 103.933243 
L 251.375689 104.05469 
L 251.525684 104.81649 
L 251.897411 104.937936 
L 252.047406 105.661094 
L 252.419132 105.78254 
L 252.569127 106.54434 
L 252.940854 106.665787 
L 253.090848 107.427586 
L 254.506018 107.549033 
L 254.656013 108.310833 
L 255.027739 108.432279 
L 255.177734 109.442492 
L 255.540765 109.558418 
L 255.699456 110.767361 
L 256.062487 110.883287 
L 256.221177 112.092231 
L 256.584208 112.208157 
L 256.742899 113.058281 
L 258.158068 113.179728 
L 258.308063 113.941528 
L 258.679789 114.062974 
L 258.829784 114.824774 
L 259.201511 114.94622 
L 259.351506 115.581053 
L 259.744971 115.69698 
L 259.873227 116.022677 
L 260.266692 116.138603 
L 260.394949 116.4643 
L 261.831856 116.580226 
L 261.960113 116.905923 
L 262.353578 117.021849 
L 262.481834 117.347546 
L 262.875299 117.463472 
L 263.003556 117.789169 
L 263.397021 117.905095 
L 263.525277 118.230792 
L 263.918742 118.346718 
L 264.046999 118.672415 
L 265.483907 118.788341 
L 265.612163 119.229965 
L 265.98389 119.351411 
L 266.133885 120.113211 
L 266.505611 120.234657 
L 266.655606 120.996457 
L 267.027332 121.117903 
L 267.177327 121.879703 
L 267.549054 122.00115 
L 267.699049 122.76295 
L 269.114218 122.884396 
L 269.264213 123.646196 
L 269.63594 123.767642 
L 269.785935 124.529442 
L 270.157661 124.650889 
L 270.307656 125.412688 
L 270.679383 125.534135 
L 270.829377 126.295935 
L 271.201104 126.417381 
L 271.351099 127.179181 
L 272.766268 127.300627 
L 272.916263 128.062427 
L 273.28799 128.183874 
L 273.437985 128.945673 
L 273.809711 129.06712 
L 273.959706 129.497702 
L 274.353171 129.613628 
L 274.481428 129.939326 
L 274.874893 130.055252 
L 275.003149 130.380949 
L 276.442231 130.281583 
L 276.568313 129.000876 
L 276.929171 128.868389 
L 277.090035 127.234384 
L 277.450892 127.101897 
L 277.611756 125.467891 
L 277.972614 125.335404 
L 278.133478 123.701399 
L 278.494335 123.568912 
L 278.655199 122.293725 
L 280.070369 122.172279 
L 280.220363 121.410479 
L 280.59209 121.289032 
L 280.742085 120.819808 
L 281.13555 120.703882 
L 281.263806 120.378185 
L 281.657271 120.262259 
L 281.785528 119.936562 
L 282.178993 119.820636 
L 282.307249 119.494938 
L 283.744157 119.379012 
L 283.872414 119.053315 
L 284.265878 118.937389 
L 284.394135 118.611692 
L 284.7876 118.495766 
L 284.915856 118.170069 
L 285.309321 118.054143 
L 285.437578 117.728446 
L 285.831043 117.61252 
L 285.959299 117.204019 
L 287.374469 117.082572 
L 287.524464 116.320772 
L 287.89619 116.199326 
L 288.046185 115.371283 
L 288.417912 115.249836 
L 288.567907 114.488036 
L 288.939633 114.36659 
L 289.089628 113.60479 
L 289.461354 113.483344 
L 289.611349 112.721544 
L 291.026519 112.600097 
L 291.176514 111.838297 
L 291.54824 111.716851 
L 291.698235 110.955051 
L 292.069962 110.833605 
L 292.219957 110.071805 
L 292.591683 109.950359 
L 292.741678 109.188559 
L 293.128621 109.067112 
L 293.263399 108.724854 
L 294.700307 108.608928 
L 294.828564 108.283231 
L 295.222029 108.167305 
L 295.350285 107.841608 
L 295.74375 107.725682 
L 295.872007 107.504871 
L 298.978423 107.394465 
L 299.002335 107.333742 
L 299.3958 107.217815 
L 299.524057 106.892118 
L 299.917522 106.776192 
L 300.045778 106.450495 
L 300.439243 106.334569 
L 300.5675 106.008872 
L 302.004407 105.892946 
L 302.132664 105.567249 
L 302.526129 105.451323 
L 302.654385 105.125626 
L 303.04785 105.0097 
L 303.176107 104.684003 
L 303.569572 104.568077 
L 303.697828 104.24238 
L 304.091293 104.126454 
L 304.21955 103.800757 
L 305.656458 103.68483 
L 305.784714 103.359133 
L 306.178179 103.243207 
L 306.306436 102.91751 
L 306.689031 102.801584 
L 306.828157 102.094987 
L 307.199883 101.973541 
L 307.349878 101.211741 
L 307.721605 101.090295 
L 307.8716 100.449941 
L 309.308508 100.334015 
L 309.436764 100.008318 
L 309.830229 99.892392 
L 309.908487 99.395566 
L 309.958486 99.014666 
L 310.321517 98.89874 
L 310.480207 97.689796 
L 310.843238 97.57387 
L 311.001928 96.364927 
L 311.36496 96.249001 
L 311.52365 95.040058 
L 312.930124 94.924132 
L 313.088814 93.715188 
L 313.451845 93.599262 
L 313.610536 92.390319 
L 313.973567 92.274393 
L 314.132257 91.446349 
L 314.503984 91.324903 
L 314.653979 90.563103 
L 315.025705 90.441657 
L 315.1757 89.679857 
L 316.590869 89.558411 
L 316.740864 88.796611 
L 317.112591 88.675164 
L 317.262586 87.913364 
L 317.634312 87.791918 
L 317.784307 87.030118 
L 318.156034 86.908672 
L 318.306029 86.146872 
L 318.677755 86.025426 
L 318.82775 85.263626 
L 320.24292 85.142179 
L 320.392914 84.380379 
L 320.771162 84.258933 
L 320.914636 83.894594 
L 321.308101 83.778668 
L 321.436357 83.452971 
L 321.829822 83.337045 
L 321.958079 83.011348 
L 322.351544 82.895422 
L 322.4798 82.569725 
L 323.916708 82.453798 
L 324.044965 82.128101 
L 324.438429 82.012175 
L 324.566686 81.686478 
L 324.960151 81.570552 
L 325.088407 81.244855 
L 325.481872 81.128929 
L 325.610129 80.803232 
L 326.003594 80.687306 
L 326.13185 80.361609 
L 327.568758 80.245683 
L 327.697015 79.919986 
L 328.09048 79.80406 
L 328.218736 79.478363 
L 328.612201 79.362437 
L 328.740458 79.03674 
L 329.133922 78.920813 
L 329.262179 78.595116 
L 329.655644 78.47919 
L 329.7839 78.153493 
L 331.222982 78.252858 
L 331.349065 79.533566 
L 331.709922 79.666052 
L 331.870786 81.300058 
L 332.231643 81.432545 
L 332.392508 83.066551 
L 332.753365 83.199038 
L 332.914229 84.833043 
L 333.275086 84.96553 
L 333.43595 86.240717 
L 334.85112 86.362163 
L 335.001115 87.123963 
L 335.372841 87.245409 
L 335.522836 87.714634 
L 335.916301 87.83056 
L 336.044558 88.156257 
L 336.438023 88.272183 
L 336.566279 88.59788 
L 336.959744 88.713806 
L 337.088001 89.039503 
L 338.524908 89.155429 
L 338.653165 89.481127 
L 339.04663 89.597053 
L 339.174886 90.12148 
L 339.546613 90.242926 
L 339.696608 91.004726 
L 340.068334 91.126173 
L 340.218329 91.887973 
L 340.590056 92.009419 
L 340.740051 92.854023 
L 342.146525 92.969949 
L 342.305215 94.178893 
L 342.668246 94.294819 
L 342.826936 95.194626 
L 343.198663 95.316072 
L 343.348658 96.077872 
L 343.720384 96.199318 
L 343.870379 96.961118 
L 344.242106 97.082565 
L 344.392101 97.844365 
L 345.80727 97.965811 
L 345.957265 98.727611 
L 346.328992 98.849057 
L 346.478987 99.610857 
L 346.850713 99.732303 
L 347.000708 100.190487 
L 347.394173 100.306413 
L 347.522429 100.632111 
L 347.915894 100.748037 
L 348.044151 101.073734 
L 349.481059 101.18966 
L 349.609315 101.515357 
L 350.00278 101.631283 
L 350.131037 101.95698 
L 350.524502 102.072906 
L 350.652758 102.293718 
L 353.759174 102.404123 
L 353.783087 102.464847 
L 354.176552 102.580773 
L 354.304808 102.90647 
L 354.698273 103.022396 
L 354.82653 103.348093 
L 355.219995 103.464019 
L 355.348251 103.789716 
L 361.487173 103.922203 
L 361.608908 104.231339 
L 362.002373 104.347265 
L 362.13063 104.672962 
L 362.524095 104.788888 
L 362.652351 104.993139 
L 364.663153 105.103545 
L 364.739237 105.296755 
L 365.132702 105.412681 
L 365.260958 105.738378 
L 365.654423 105.854304 
L 365.78268 106.180001 
L 366.176145 106.295927 
L 366.304401 106.687868 
L 367.719571 106.809314 
L 367.869566 107.571114 
L 368.241292 107.69256 
L 368.391287 108.45436 
L 368.763014 108.575807 
L 368.913009 108.956707 
L 369.306473 109.072633 
L 369.43473 109.39833 
L 369.828195 109.514256 
L 369.956451 109.839953 
L 371.393359 109.955879 
L 371.521616 110.281576 
L 371.915081 110.397502 
L 372.043337 110.723199 
L 372.436802 110.839125 
L 372.565059 111.164822 
L 372.958524 111.280748 
L 373.08678 111.606445 
L 373.480245 111.722371 
L 373.608501 112.048068 
L 375.045409 112.163995 
L 375.173666 112.489692 
L 376.136677 112.611138 
L 376.217109 112.815389 
L 376.610574 112.931315 
L 376.73883 113.257012 
L 377.132295 113.372938 
L 377.182293 113.499904 
L 377.221422 113.301174 
L 377.260552 113.102444 
L 378.675721 112.980997 
L 378.825716 112.219197 
L 379.197442 112.097751 
L 379.347437 111.335951 
L 379.719164 111.214505 
L 379.869159 110.452705 
L 380.240885 110.331259 
L 380.39088 109.569459 
L 384.438569 109.552898 
L 393.920856 109.442492 
L 393.955638 109.354167 
L 394.349103 109.238241 
L 394.477359 108.912544 
L 394.870824 108.796618 
L 394.999081 108.470921 
L 395.392546 108.354995 
L 395.520802 108.029298 
L 396.95771 107.913372 
L 397.085966 107.587675 
L 397.479431 107.471749 
L 397.607688 107.146052 
L 398.001153 107.030126 
L 398.129409 106.704429 
L 398.522874 106.588503 
L 398.651131 106.262805 
L 399.044596 106.146879 
L 399.172852 105.821182 
L 400.60976 105.705256 
L 400.738016 105.379559 
L 401.131481 105.263633 
L 401.259738 104.937936 
L 401.653203 104.82201 
L 401.779285 104.799929 
L 405.350904 104.910335 
L 405.433509 105.120106 
L 405.826974 105.236032 
L 405.955231 105.561729 
L 406.348696 105.677655 
L 406.476952 106.003352 
L 407.91386 106.119278 
L 408.042117 106.444975 
L 408.435582 106.560901 
L 408.563838 106.886598 
L 408.957303 107.002524 
L 409.08556 107.328221 
L 409.479024 107.444147 
L 409.607281 107.769844 
L 410.000746 107.88577 
L 410.129002 108.211468 
L 411.555041 108.327394 
L 411.694167 109.033991 
L 412.065893 109.155437 
L 412.215888 109.917237 
L 412.587615 110.038683 
L 412.73761 110.800483 
L 413.109336 110.921929 
L 413.259331 111.683729 
L 413.631058 111.805176 
L 413.781052 112.566976 
L 415.196222 112.688422 
L 415.346217 113.450222 
L 415.717943 113.571668 
L 415.867938 114.333468 
L 416.239665 114.454915 
L 416.38966 115.216714 
L 416.761386 115.338161 
L 416.911381 116.099961 
L 417.283108 116.221407 
L 417.433103 116.983207 
L 418.848272 117.104653 
L 418.998267 117.866453 
L 419.369993 117.9879 
L 419.519988 118.749699 
L 419.891715 118.871146 
L 420.04171 119.632946 
L 420.413436 119.754392 
L 420.563431 120.516192 
L 420.935158 120.637638 
L 421.085153 121.333195 
L 422.52206 121.449121 
L 422.650317 121.774818 
L 423.043782 121.890744 
L 423.172038 122.216441 
L 423.565503 122.332367 
L 423.69376 122.658064 
L 424.087225 122.77399 
L 424.215481 123.099687 
L 424.608946 123.215613 
L 424.737203 123.54131 
L 426.174111 123.657236 
L 426.302367 123.982934 
L 426.695832 124.09886 
L 426.824089 124.424557 
L 427.217553 124.540483 
L 427.34581 124.86618 
L 427.739275 124.982106 
L 427.867531 125.307803 
L 428.260996 125.423729 
L 428.389253 125.749426 
L 429.826161 125.865352 
L 429.954417 126.191049 
L 430.347882 126.306975 
L 430.476139 126.632672 
L 430.869604 126.748598 
L 430.99786 126.792761 
L 431.976088 126.892126 
L 432 127.074295 
L 432 127.074295 
" clip-path="url(#p1b277cfc4a)" style="fill: none; stroke-dasharray: 1,1.65; stroke-dashoffset: 0; stroke: #000000"/>
   </g>
   <g id="patch_3">
    <path d="M 28.055 147.4 
L 28.055 0 
" style="fill: none; stroke: #000000; stroke-width: 0.8; stroke-linejoin: miter; stroke-linecap: square"/>
   </g>
   <g id="patch_4">
    <path d="M 432 147.4 
L 432 0 
" style="fill: none; stroke: #000000; stroke-width: 0.8; stroke-linejoin: miter; stroke-linecap: square"/>
   </g>
   <g id="patch_5">
    <path d="M 28.055 147.4 
L 432 147.4 
" style="fill: none; stroke: #000000; stroke-width: 0.8; stroke-linejoin: miter; stroke-linecap: square"/>
   </g>
   <g id="patch_6">
    <path d="M 28.055 0 
L 432 0 
" style="fill: none; stroke: #000000; stroke-width: 0.8; stroke-linejoin: miter; stroke-linecap: square"/>
   </g>
   <g id="legend_1">
    <g id="line2d_15">
     <path d="M 322.951875 15 
L 334.951875 15 
L 346.951875 15 
" style="fill: none; stroke: #000000; stroke-width: 1.5; stroke-linecap: square"/>
    </g>
    <g id="text_14">
     <text style="font: 12px 'Times New Roman'; text-anchor: start" x="356.551875" y="19.2" transform="rotate(-0 356.551875 19.2)">Overall</text>
    </g>
    <g id="line2d_16">
     <path d="M 322.951875 31.966875 
L 334.951875 31.966875 
L 346.951875 31.966875 
" style="fill: none; stroke-dasharray: 3.7,1.6; stroke-dashoffset: 0; stroke: #000000"/>
    </g>
    <g id="text_15">
     <text style="font: 12px 'Times New Roman'; text-anchor: start" x="356.551875" y="36.166875" transform="rotate(-0 356.551875 36.166875)">Development</text>
    </g>
    <g id="line2d_17">
     <path d="M 322.951875 48.93375 
L 334.951875 48.93375 
L 346.951875 48.93375 
" style="fill: none; stroke-dasharray: 1,1.65; stroke-dashoffset: 0; stroke: #000000"/>
    </g>
    <g id="text_16">
     <text style="font: 12px 'Times New Roman'; text-anchor: start" x="356.551875" y="53.13375" transform="rotate(-0 356.551875 53.13375)">Testing</text>
    </g>
   </g>
  </g>
 </g>
 <defs>
  <clipPath id="p1b277cfc4a">
   <rect x="28.055" y="0" width="403.945" height="147.4"/>
  </clipPath>
 </defs>
</svg>
