<?xml version="1.0" encoding="utf-8" standalone="no"?>
<!DOCTYPE svg PUBLIC "-//W3C//DTD SVG 1.1//EN"
  "http://www.w3.org/Graphics/SVG/1.1/DTD/svg11.dtd">
<svg xmlns:xlink="http://www.w3.org/1999/xlink" width="540pt" height="129.6pt" viewBox="0 0 540 129.6" xmlns="http://www.w3.org/2000/svg" version="1.1">
 <metadata>
  <rdf:RDF xmlns:dc="http://purl.org/dc/elements/1.1/" xmlns:cc="http://creativecommons.org/ns#" xmlns:rdf="http://www.w3.org/1999/02/22-rdf-syntax-ns#">
   <cc:Work>
    <dc:type rdf:resource="http://purl.org/dc/dcmitype/StillImage"/>
    <dc:date>2025-03-30T03:17:51.614930</dc:date>
    <dc:format>image/svg+xml</dc:format>
    <dc:creator>
     <cc:Agent>
      <dc:title>Matplotlib v3.8.3, https://matplotlib.org/</dc:title>
     </cc:Agent>
    </dc:creator>
   </cc:Work>
  </rdf:RDF>
 </metadata>
 <defs>
  <style type="text/css">*{stroke-linejoin: round; stroke-linecap: butt}</style>
 </defs>
 <g id="figure_1">
  <g id="patch_1">
   <path d="M 0 129.6 
L 540 129.6 
L 540 0 
L 0 0 
z
" style="fill: #ffffff"/>
  </g>
  <g id="axes_1">
   <g id="patch_2">
    <path d="M 35.12 97 
L 540 97 
L 540 0 
L 35.12 0 
z
" style="fill: #ffffff"/>
   </g>
   <g id="matplotlib.axis_1">
    <g id="xtick_1">
     <g id="line2d_1">
      <path d="M 35.12 97 
L 35.12 0 
" clip-path="url(#pe52cda05ea)" style="fill: none; stroke: #b0b0b0; stroke-width: 0.8; stroke-linecap: square"/>
     </g>
     <g id="line2d_2">
      <defs>
       <path id="m31934586e0" d="M 0 0 
L 0 3.5 
" style="stroke: #000000; stroke-width: 0.8"/>
      </defs>
      <g>
       <use xlink:href="#m31934586e0" x="35.12" y="97" style="stroke: #000000; stroke-width: 0.8"/>
      </g>
     </g>
     <g id="text_1">
      <text style="font: 10px 'Times New Roman'; text-anchor: middle" x="35.12" y="110.94375" transform="rotate(-0 35.12 110.94375)">0</text>
     </g>
    </g>
    <g id="xtick_2">
     <g id="line2d_3">
      <path d="M 95.3754 97 
L 95.3754 0 
" clip-path="url(#pe52cda05ea)" style="fill: none; stroke: #b0b0b0; stroke-width: 0.8; stroke-linecap: square"/>
     </g>
     <g id="line2d_4">
      <g>
       <use xlink:href="#m31934586e0" x="95.3754" y="97" style="stroke: #000000; stroke-width: 0.8"/>
      </g>
     </g>
     <g id="text_2">
      <text style="font: 10px 'Times New Roman'; text-anchor: middle" x="95.3754" y="110.94375" transform="rotate(-0 95.3754 110.94375)">50</text>
     </g>
    </g>
    <g id="xtick_3">
     <g id="line2d_5">
      <path d="M 155.630801 97 
L 155.630801 0 
" clip-path="url(#pe52cda05ea)" style="fill: none; stroke: #b0b0b0; stroke-width: 0.8; stroke-linecap: square"/>
     </g>
     <g id="line2d_6">
      <g>
       <use xlink:href="#m31934586e0" x="155.630801" y="97" style="stroke: #000000; stroke-width: 0.8"/>
      </g>
     </g>
     <g id="text_3">
      <text style="font: 10px 'Times New Roman'; text-anchor: middle" x="155.630801" y="110.94375" transform="rotate(-0 155.630801 110.94375)">100</text>
     </g>
    </g>
    <g id="xtick_4">
     <g id="line2d_7">
      <path d="M 215.886201 97 
L 215.886201 0 
" clip-path="url(#pe52cda05ea)" style="fill: none; stroke: #b0b0b0; stroke-width: 0.8; stroke-linecap: square"/>
     </g>
     <g id="line2d_8">
      <g>
       <use xlink:href="#m31934586e0" x="215.886201" y="97" style="stroke: #000000; stroke-width: 0.8"/>
      </g>
     </g>
     <g id="text_4">
      <text style="font: 10px 'Times New Roman'; text-anchor: middle" x="215.886201" y="110.94375" transform="rotate(-0 215.886201 110.94375)">150</text>
     </g>
    </g>
    <g id="xtick_5">
     <g id="line2d_9">
      <path d="M 276.141602 97 
L 276.141602 0 
" clip-path="url(#pe52cda05ea)" style="fill: none; stroke: #b0b0b0; stroke-width: 0.8; stroke-linecap: square"/>
     </g>
     <g id="line2d_10">
      <g>
       <use xlink:href="#m31934586e0" x="276.141602" y="97" style="stroke: #000000; stroke-width: 0.8"/>
      </g>
     </g>
     <g id="text_5">
      <text style="font: 10px 'Times New Roman'; text-anchor: middle" x="276.141602" y="110.94375" transform="rotate(-0 276.141602 110.94375)">200</text>
     </g>
    </g>
    <g id="xtick_6">
     <g id="line2d_11">
      <path d="M 336.397002 97 
L 336.397002 0 
" clip-path="url(#pe52cda05ea)" style="fill: none; stroke: #b0b0b0; stroke-width: 0.8; stroke-linecap: square"/>
     </g>
     <g id="line2d_12">
      <g>
       <use xlink:href="#m31934586e0" x="336.397002" y="97" style="stroke: #000000; stroke-width: 0.8"/>
      </g>
     </g>
     <g id="text_6">
      <text style="font: 10px 'Times New Roman'; text-anchor: middle" x="336.397002" y="110.94375" transform="rotate(-0 336.397002 110.94375)">250</text>
     </g>
    </g>
    <g id="xtick_7">
     <g id="line2d_13">
      <path d="M 396.652402 97 
L 396.652402 0 
" clip-path="url(#pe52cda05ea)" style="fill: none; stroke: #b0b0b0; stroke-width: 0.8; stroke-linecap: square"/>
     </g>
     <g id="line2d_14">
      <g>
       <use xlink:href="#m31934586e0" x="396.652402" y="97" style="stroke: #000000; stroke-width: 0.8"/>
      </g>
     </g>
     <g id="text_7">
      <text style="font: 10px 'Times New Roman'; text-anchor: middle" x="396.652402" y="110.94375" transform="rotate(-0 396.652402 110.94375)">300</text>
     </g>
    </g>
    <g id="xtick_8">
     <g id="line2d_15">
      <path d="M 456.907803 97 
L 456.907803 0 
" clip-path="url(#pe52cda05ea)" style="fill: none; stroke: #b0b0b0; stroke-width: 0.8; stroke-linecap: square"/>
     </g>
     <g id="line2d_16">
      <g>
       <use xlink:href="#m31934586e0" x="456.907803" y="97" style="stroke: #000000; stroke-width: 0.8"/>
      </g>
     </g>
     <g id="text_8">
      <text style="font: 10px 'Times New Roman'; text-anchor: middle" x="456.907803" y="110.94375" transform="rotate(-0 456.907803 110.94375)">350</text>
     </g>
    </g>
    <g id="xtick_9">
     <g id="line2d_17">
      <path d="M 517.163203 97 
L 517.163203 0 
" clip-path="url(#pe52cda05ea)" style="fill: none; stroke: #b0b0b0; stroke-width: 0.8; stroke-linecap: square"/>
     </g>
     <g id="line2d_18">
      <g>
       <use xlink:href="#m31934586e0" x="517.163203" y="97" style="stroke: #000000; stroke-width: 0.8"/>
      </g>
     </g>
     <g id="text_9">
      <text style="font: 10px 'Times New Roman'; text-anchor: middle" x="517.163203" y="110.94375" transform="rotate(-0 517.163203 110.94375)">400</text>
     </g>
    </g>
    <g id="text_10">
     <text style="font: 12px 'Times New Roman'; text-anchor: middle" x="287.56" y="125.415312" transform="rotate(-0 287.56 125.415312)">Simulation Run</text>
    </g>
   </g>
   <g id="matplotlib.axis_2">
    <g id="ytick_1">
     <g id="line2d_19">
      <path d="M 35.12 97 
L 540 97 
" clip-path="url(#pe52cda05ea)" style="fill: none; stroke: #b0b0b0; stroke-width: 0.8; stroke-linecap: square"/>
     </g>
     <g id="line2d_20">
      <defs>
       <path id="m4be133d8db" d="M 0 0 
L -3.5 0 
" style="stroke: #000000; stroke-width: 0.8"/>
      </defs>
      <g>
       <use xlink:href="#m4be133d8db" x="35.12" y="97" style="stroke: #000000; stroke-width: 0.8"/>
      </g>
     </g>
     <g id="text_11">
      <text style="font: 10px 'Times New Roman'; text-anchor: end" x="28.12" y="100.471875" transform="rotate(-0 28.12 100.471875)">0.0</text>
     </g>
    </g>
    <g id="ytick_2">
     <g id="line2d_21">
      <path d="M 35.12 66.6875 
L 540 66.6875 
" clip-path="url(#pe52cda05ea)" style="fill: none; stroke: #b0b0b0; stroke-width: 0.8; stroke-linecap: square"/>
     </g>
     <g id="line2d_22">
      <g>
       <use xlink:href="#m4be133d8db" x="35.12" y="66.6875" style="stroke: #000000; stroke-width: 0.8"/>
      </g>
     </g>
     <g id="text_12">
      <text style="font: 10px 'Times New Roman'; text-anchor: end" x="28.12" y="70.159375" transform="rotate(-0 28.12 70.159375)">0.5</text>
     </g>
    </g>
    <g id="ytick_3">
     <g id="line2d_23">
      <path d="M 35.12 36.375 
L 540 36.375 
" clip-path="url(#pe52cda05ea)" style="fill: none; stroke: #b0b0b0; stroke-width: 0.8; stroke-linecap: square"/>
     </g>
     <g id="line2d_24">
      <g>
       <use xlink:href="#m4be133d8db" x="35.12" y="36.375" style="stroke: #000000; stroke-width: 0.8"/>
      </g>
     </g>
     <g id="text_13">
      <text style="font: 10px 'Times New Roman'; text-anchor: end" x="28.12" y="39.846875" transform="rotate(-0 28.12 39.846875)">1.0</text>
     </g>
    </g>
    <g id="ytick_4">
     <g id="line2d_25">
      <path d="M 35.12 6.0625 
L 540 6.0625 
" clip-path="url(#pe52cda05ea)" style="fill: none; stroke: #b0b0b0; stroke-width: 0.8; stroke-linecap: square"/>
     </g>
     <g id="line2d_26">
      <g>
       <use xlink:href="#m4be133d8db" x="35.12" y="6.0625" style="stroke: #000000; stroke-width: 0.8"/>
      </g>
     </g>
     <g id="text_14">
      <text style="font: 10px 'Times New Roman'; text-anchor: end" x="28.12" y="9.534375" transform="rotate(-0 28.12 9.534375)">1.5</text>
     </g>
    </g>
    <g id="text_15">
     <text style="font: 12px 'Times New Roman'; text-anchor: middle" x="9.053125" y="48.5" transform="rotate(-90 9.053125 48.5)">Normalized Value</text>
    </g>
   </g>
   <g id="line2d_27">
    <path d="M 35.12 60.380741 
L 36.325108 51.184166 
L 37.530216 55.113624 
L 38.735324 44.924095 
L 39.940432 45.771028 
L 41.14554 41.364718 
L 42.350648 40.08953 
L 43.555756 42.244594 
L 44.760864 43.92913 
L 45.965972 43.857269 
L 47.17108 43.293113 
L 48.376188 43.32407 
L 49.581296 42.058169 
L 50.786404 42.016688 
L 51.991512 39.935681 
L 53.19662 38.612936 
L 54.401728 39.386411 
L 55.606836 40.319208 
L 56.811944 39.508543 
L 58.017052 40.17169 
L 59.22216 41.085841 
L 60.427268 40.120738 
L 61.632376 39.635876 
L 62.837484 40.728867 
L 64.042592 41.027915 
L 65.2477 39.768057 
L 66.452808 40.343469 
L 68.863024 39.436154 
L 70.068132 39.463684 
L 71.27324 39.0407 
L 72.478348 38.79178 
L 73.683456 38.941223 
L 74.888564 38.77788 
L 76.093672 37.267376 
L 77.29878 36.632853 
L 78.503888 37.027977 
L 79.708996 37.884337 
L 80.914104 37.367977 
L 82.119212 37.60503 
L 83.32432 36.878968 
L 84.529428 36.838747 
L 85.734536 35.880091 
L 86.939644 35.795238 
L 89.34986 36.025057 
L 90.554968 35.571464 
L 91.760076 35.873855 
L 92.965184 35.960474 
L 94.170292 35.85121 
L 96.580508 35.936915 
L 97.785616 36.406033 
L 98.990724 36.127591 
L 101.40094 36.515167 
L 102.606048 36.213914 
L 103.811156 36.139067 
L 106.221372 36.792381 
L 107.42648 36.736471 
L 108.631588 36.477938 
L 111.041805 37.034491 
L 112.246913 36.879094 
L 113.452021 36.469814 
L 114.657129 36.850328 
L 115.862237 36.906722 
L 117.067345 37.247899 
L 118.272453 37.203055 
L 119.477561 37.028791 
L 120.682669 36.50961 
L 121.887777 36.177436 
L 123.092885 36.237364 
L 124.297993 35.82488 
L 125.503101 35.867958 
L 126.708209 35.784785 
L 129.118425 36.265982 
L 133.938857 36.98055 
L 135.143965 37.269292 
L 136.349073 37.164702 
L 137.554181 37.30089 
L 138.759289 37.192488 
L 139.964397 36.94526 
L 141.169505 37.151672 
L 142.374613 36.819472 
L 144.784829 37.484645 
L 145.989937 37.414865 
L 147.195045 37.487308 
L 148.400153 36.886387 
L 149.605261 37.037487 
L 150.810369 37.011718 
L 152.015477 37.126659 
L 153.220585 37.096933 
L 154.425693 37.318917 
L 156.835909 37.40275 
L 159.246125 36.937188 
L 160.451233 37.160965 
L 166.476773 37.38494 
L 167.681881 37.171503 
L 168.886989 37.170025 
L 171.297205 37.523781 
L 172.502313 37.54573 
L 173.707421 37.723786 
L 176.117637 37.481628 
L 177.322745 37.414232 
L 178.527853 37.175583 
L 179.732961 37.07476 
L 180.938069 37.129388 
L 182.143177 37.04241 
L 183.348285 37.165722 
L 184.553393 36.922933 
L 188.168717 36.666246 
L 190.578933 36.92299 
L 191.784041 36.866642 
L 194.194257 36.980756 
L 195.399365 36.950183 
L 196.604473 36.522869 
L 199.014689 36.436863 
L 203.835121 36.375503 
L 206.245337 36.606981 
L 212.270877 36.964874 
L 213.475985 36.708207 
L 214.681093 36.790646 
L 215.886201 36.669386 
L 217.091309 36.794364 
L 221.911741 36.65071 
L 224.321957 36.441272 
L 226.732173 36.305774 
L 227.937281 36.021909 
L 229.142389 36.218184 
L 231.552605 36.216652 
L 232.757713 36.327075 
L 236.373037 36.320468 
L 241.193469 36.56427 
L 244.808793 36.694036 
L 249.629225 36.820482 
L 252.039441 37.029066 
L 253.244549 36.990286 
L 255.654765 37.104874 
L 256.859873 37.200563 
L 258.064982 37.183495 
L 259.27009 37.307449 
L 264.090522 37.407319 
L 265.29563 37.474203 
L 267.705846 37.397022 
L 268.910954 37.480681 
L 270.116062 37.339011 
L 273.731386 37.345227 
L 277.34671 37.472177 
L 278.551818 37.293431 
L 284.577358 37.50457 
L 286.987574 37.24917 
L 290.602898 37.336339 
L 297.833546 37.121205 
L 300.243762 37.359049 
L 301.44887 37.278254 
L 302.653978 37.327017 
L 309.884626 36.969965 
L 312.294842 37.050064 
L 314.705058 37.024507 
L 323.140814 36.695469 
L 324.345922 36.552033 
L 325.55103 36.638157 
L 327.961246 36.511215 
L 337.60211 36.607428 
L 344.832758 36.442977 
L 348.448082 36.586954 
L 359.294054 36.413045 
L 362.909378 36.583112 
L 365.319594 36.547456 
L 366.524702 36.368208 
L 368.934918 36.393296 
L 372.550242 36.496509 
L 373.75535 36.465988 
L 376.165566 36.599715 
L 380.985998 36.601084 
L 382.191106 36.387657 
L 385.80643 36.296581 
L 391.83197 36.145256 
L 396.652402 36.265049 
L 400.267726 36.156384 
L 413.523915 36.376864 
L 418.344347 36.601955 
L 424.369887 36.775101 
L 427.985211 36.6253 
L 429.190319 36.719128 
L 440.036291 36.566243 
L 443.651615 36.653287 
L 449.677155 36.535368 
L 452.087371 36.439374 
L 464.138451 36.220742 
L 465.343559 36.086885 
L 474.984423 36.119888 
L 477.394639 36.233433 
L 481.009963 36.255619 
L 483.420179 36.173474 
L 485.830395 36.162067 
L 489.445719 36.183403 
L 493.061043 36.235042 
L 494.266151 36.089639 
L 502.701907 36.229093 
L 512.342771 36.275282 
L 515.958095 36.375 
L 515.958095 36.375 
" clip-path="url(#pe52cda05ea)" style="fill: none; stroke: #4169e1; stroke-width: 1.5; stroke-linecap: square"/>
   </g>
   <g id="line2d_28">
    <path d="M 35.12 97 
L 36.325108 80.497201 
L 37.530216 79.972529 
L 38.735324 23.453002 
L 39.940432 37.602562 
L 41.14554 28.560154 
L 42.350648 36.433545 
L 43.555756 37.660928 
L 44.760864 39.824644 
L 45.965972 45.533111 
L 48.376188 53.539602 
L 49.581296 53.130508 
L 50.786404 56.259679 
L 51.991512 47.145814 
L 53.19662 45.140767 
L 54.401728 46.323562 
L 55.606836 46.252705 
L 56.811944 46.615483 
L 58.017052 47.504369 
L 59.22216 46.600148 
L 60.427268 45.074493 
L 61.632376 46.322951 
L 62.837484 43.07324 
L 64.042592 44.811517 
L 65.2477 39.076128 
L 66.452808 39.541738 
L 67.657916 40.279557 
L 68.863024 41.326653 
L 70.068132 43.178143 
L 71.27324 43.867022 
L 73.683456 46.584325 
L 74.888564 47.89534 
L 76.093672 34.16174 
L 77.29878 33.157657 
L 78.503888 33.786456 
L 79.708996 30.155542 
L 80.914104 29.892562 
L 82.119212 31.142627 
L 83.32432 28.634451 
L 84.529428 30.24926 
L 85.734536 24.270118 
L 88.144752 27.369783 
L 89.34986 28.718287 
L 90.554968 28.324388 
L 91.760076 28.916559 
L 95.3754 32.74083 
L 96.580508 33.921279 
L 97.785616 32.878529 
L 98.990724 33.264194 
L 100.195832 33.902473 
L 101.40094 34.735963 
L 102.606048 34.836667 
L 103.811156 35.846142 
L 105.016264 35.567189 
L 106.221372 35.4677 
L 107.42648 36.439829 
L 109.836697 36.826867 
L 111.041805 36.607494 
L 112.246913 37.235052 
L 113.452021 36.016063 
L 114.657129 35.061645 
L 115.862237 35.930929 
L 117.067345 35.271532 
L 118.272453 36.126292 
L 119.477561 36.568889 
L 120.682669 33.673974 
L 121.887777 32.991319 
L 123.092885 33.805147 
L 124.297993 32.191054 
L 126.708209 33.745016 
L 127.913317 33.471044 
L 129.118425 33.588116 
L 130.323533 33.953281 
L 131.528641 34.594446 
L 132.733749 33.43963 
L 133.938857 34.025225 
L 135.143965 33.424703 
L 136.349073 33.993354 
L 138.759289 34.94052 
L 139.964397 34.608166 
L 141.169505 34.577623 
L 144.784829 30.853344 
L 147.195045 32.079008 
L 148.400153 26.139182 
L 149.605261 26.4541 
L 150.810369 27.168938 
L 152.015477 27.63145 
L 153.220585 28.315246 
L 154.425693 28.050213 
L 155.630801 28.731942 
L 156.835909 29.284746 
L 158.041017 29.146672 
L 159.246125 28.380962 
L 160.451233 28.018296 
L 164.066557 29.590914 
L 166.476773 29.932413 
L 167.681881 29.55885 
L 168.886989 30.160955 
L 170.092097 29.877175 
L 171.297205 29.945597 
L 172.502313 30.517962 
L 173.707421 30.37968 
L 174.912529 30.479168 
L 177.322745 31.274865 
L 178.527853 30.500146 
L 179.732961 30.811714 
L 182.143177 31.637974 
L 183.348285 31.800148 
L 184.553393 30.895532 
L 185.758501 31.232003 
L 186.963609 30.800489 
L 188.168717 31.29872 
L 189.373825 31.334337 
L 190.578933 31.482862 
L 195.399365 33.148403 
L 196.604473 28.847137 
L 197.809581 29.170636 
L 200.219797 30.118196 
L 201.424905 30.403835 
L 202.630013 30.533433 
L 203.835121 30.928427 
L 205.040229 30.708206 
L 208.655553 31.739947 
L 209.860661 32.184718 
L 211.065769 32.479232 
L 212.270877 32.17959 
L 213.475985 30.712203 
L 214.681093 30.956536 
L 217.091309 30.937805 
L 219.501525 31.768607 
L 220.706633 31.399113 
L 221.911741 31.814478 
L 223.116849 31.49486 
L 224.321957 31.8199 
L 225.527065 31.931498 
L 226.732173 32.295417 
L 227.937281 30.181673 
L 229.142389 29.383921 
L 231.552605 30.067117 
L 232.757713 30.082588 
L 236.373037 31.250108 
L 237.578145 31.383329 
L 238.783253 31.198384 
L 241.193469 31.642628 
L 242.398577 31.868275 
L 246.013901 32.871783 
L 247.219009 33.017827 
L 249.629225 33.503422 
L 252.039441 33.444 
L 253.244549 33.740096 
L 254.449657 33.646781 
L 255.654765 33.990678 
L 256.859873 34.002535 
L 258.064982 34.330715 
L 259.27009 34.108221 
L 260.475198 34.442635 
L 261.680306 34.365842 
L 262.885414 34.474959 
L 264.090522 34.212018 
L 265.29563 34.372321 
L 266.500738 34.371806 
L 267.705846 34.685038 
L 268.910954 34.739675 
L 270.116062 34.293681 
L 274.936494 35.414196 
L 276.141602 35.187439 
L 277.34671 35.464315 
L 278.551818 34.50814 
L 282.167142 35.218966 
L 283.37225 35.183506 
L 284.577358 35.461104 
L 285.782466 34.69398 
L 286.987574 34.632865 
L 295.42333 35.841496 
L 296.628438 36.119911 
L 297.833546 35.869759 
L 299.038654 35.752796 
L 300.243762 35.167762 
L 301.44887 35.164798 
L 305.064194 35.673402 
L 306.269302 35.678708 
L 307.47441 35.037381 
L 308.679518 34.820447 
L 309.884626 35.09192 
L 311.089734 35.047517 
L 313.49995 35.544439 
L 315.910166 35.889908 
L 318.320382 36.380778 
L 319.52549 35.785943 
L 320.730598 35.951442 
L 321.935706 35.883382 
L 323.140814 36.00756 
L 324.345922 35.297181 
L 326.756138 35.075867 
L 330.371462 35.736127 
L 331.57657 35.945879 
L 332.781678 35.975043 
L 335.191894 36.457078 
L 336.397002 36.54232 
L 337.60211 36.493286 
L 338.807218 36.660704 
L 340.012326 35.823167 
L 342.422542 36.271022 
L 343.62765 36.190046 
L 344.832758 35.867215 
L 346.037866 35.756981 
L 347.242974 35.807392 
L 350.858298 36.451155 
L 353.268514 36.763124 
L 355.67873 37.16083 
L 356.883838 36.014434 
L 358.088946 36.147272 
L 360.499162 36.042134 
L 361.70427 35.764711 
L 365.319594 36.37739 
L 366.524702 34.872998 
L 368.934918 35.196226 
L 370.140026 35.265564 
L 371.345134 35.486002 
L 373.75535 35.728886 
L 374.960458 35.33352 
L 380.985998 36.123006 
L 382.191106 33.773913 
L 384.601322 34.196045 
L 385.80643 34.055761 
L 387.011538 34.167572 
L 388.216646 34.100764 
L 389.421754 33.81649 
L 390.626862 34.029228 
L 393.037078 34.146989 
L 395.447294 34.33061 
L 397.85751 34.222339 
L 399.062618 34.343375 
L 400.267726 34.130987 
L 403.88305 34.679208 
L 405.088158 34.673269 
L 409.908591 35.305515 
L 411.113699 35.076975 
L 413.523915 35.359043 
L 414.729023 35.171428 
L 415.934131 34.731308 
L 418.344347 35.059482 
L 419.549455 35.059858 
L 420.754563 35.240773 
L 421.959671 35.190566 
L 424.369887 35.497071 
L 425.574995 35.490368 
L 426.780103 35.306983 
L 427.985211 35.476098 
L 429.190319 35.101955 
L 431.600535 35.266767 
L 432.805643 35.265383 
L 434.010751 35.058643 
L 435.215859 35.068055 
L 441.241399 35.888538 
L 443.651615 35.946715 
L 446.061831 36.261651 
L 447.266939 36.234055 
L 448.472047 36.388935 
L 449.677155 36.253457 
L 450.882263 35.787731 
L 453.292479 36.116567 
L 458.112911 36.457193 
L 462.933343 37.076546 
L 464.138451 36.796237 
L 465.343559 35.71629 
L 467.753775 36.044817 
L 470.163991 35.786244 
L 472.574207 36.110659 
L 473.779315 36.111458 
L 474.984423 36.27545 
L 476.189531 35.95316 
L 479.804855 36.157529 
L 481.009963 36.140956 
L 482.215071 35.658282 
L 483.420179 35.811682 
L 487.035503 35.819596 
L 488.240611 35.493636 
L 490.650827 35.738361 
L 493.061043 35.960499 
L 494.266151 34.548559 
L 506.317231 35.516053 
L 513.547879 36.333812 
L 514.752987 36.250138 
L 515.958095 36.375 
L 515.958095 36.375 
" clip-path="url(#pe52cda05ea)" style="fill: none; stroke-dasharray: 5.55,2.4; stroke-dashoffset: 0; stroke: #4169e1; stroke-width: 1.5"/>
   </g>
   <g id="line2d_29">
    <path d="M 35.12 58.980475 
L 36.325108 50.935848 
L 37.530216 54.815174 
L 38.735324 44.216357 
L 39.940432 44.514745 
L 41.14554 39.548942 
L 42.350648 38.552409 
L 43.555756 40.635381 
L 44.760864 42.182734 
L 45.965972 41.911382 
L 47.17108 41.439606 
L 48.376188 41.624007 
L 49.581296 40.779726 
L 50.786404 40.725773 
L 51.991512 38.594461 
L 53.19662 37.601244 
L 55.606836 39.204667 
L 56.811944 38.708942 
L 58.017052 39.397378 
L 59.22216 40.256579 
L 60.427268 39.251864 
L 61.632376 38.961357 
L 62.837484 39.881323 
L 64.042592 39.957272 
L 65.2477 39.166766 
L 66.452808 39.683828 
L 68.863024 38.915225 
L 70.068132 39.066927 
L 72.478348 38.641106 
L 73.683456 38.791772 
L 74.888564 38.656039 
L 76.093672 37.17406 
L 77.29878 36.62256 
L 78.503888 36.914364 
L 79.708996 37.726688 
L 80.914104 37.292511 
L 82.119212 37.589091 
L 83.32432 36.943842 
L 84.529428 36.861359 
L 85.734536 36.027356 
L 86.939644 35.88199 
L 88.144752 35.927289 
L 89.34986 36.118306 
L 90.554968 35.64602 
L 91.760076 35.969674 
L 92.965184 36.052357 
L 96.580508 35.965473 
L 97.785616 36.459955 
L 98.990724 36.167893 
L 100.195832 36.418121 
L 101.40094 36.510828 
L 102.606048 36.212521 
L 103.811156 36.17335 
L 106.221372 36.790924 
L 107.42648 36.706256 
L 108.631588 36.413146 
L 111.041805 36.956249 
L 112.246913 36.820466 
L 113.452021 36.441248 
L 114.657129 36.775111 
L 115.862237 36.807886 
L 117.067345 37.111632 
L 118.272453 37.05299 
L 119.477561 36.865798 
L 120.682669 36.395939 
L 121.887777 36.083143 
L 123.092885 36.137897 
L 124.297993 35.783154 
L 126.708209 35.677759 
L 130.323533 36.276429 
L 131.528641 36.324893 
L 132.733749 36.629591 
L 133.938857 36.703695 
L 135.143965 36.963514 
L 136.349073 36.858243 
L 137.554181 36.981495 
L 139.964397 36.665233 
L 141.169505 36.854817 
L 142.374613 36.638777 
L 144.784829 37.279854 
L 147.195045 37.29908 
L 148.400153 36.782679 
L 150.810369 36.958503 
L 156.835909 37.37833 
L 158.041017 37.236029 
L 159.246125 36.958275 
L 160.451233 37.160092 
L 164.066557 37.324364 
L 165.271665 37.445691 
L 167.681881 37.093901 
L 168.886989 37.099461 
L 171.297205 37.421182 
L 172.502313 37.45246 
L 173.707421 37.621599 
L 179.732961 37.040469 
L 180.938069 37.079783 
L 182.143177 36.997051 
L 183.348285 37.118712 
L 184.553393 36.832617 
L 188.168717 36.601893 
L 190.578933 36.856297 
L 195.399365 36.926632 
L 196.604473 36.493917 
L 199.014689 36.427519 
L 203.835121 36.394491 
L 206.245337 36.655241 
L 208.655553 36.765885 
L 211.065769 36.827501 
L 212.270877 36.969539 
L 213.475985 36.732014 
L 214.681093 36.801163 
L 215.886201 36.710865 
L 217.091309 36.828119 
L 223.116849 36.555025 
L 226.732173 36.383752 
L 227.937281 36.177062 
L 229.142389 36.368391 
L 231.552605 36.354365 
L 232.757713 36.45996 
L 236.373037 36.460593 
L 247.219009 36.944689 
L 248.424117 36.878105 
L 259.27009 37.398636 
L 264.090522 37.456551 
L 265.29563 37.52816 
L 267.705846 37.485759 
L 268.910954 37.563743 
L 270.116062 37.420619 
L 273.731386 37.4475 
L 277.34671 37.535598 
L 278.551818 37.350585 
L 284.577358 37.546133 
L 286.987574 37.290116 
L 290.602898 37.374398 
L 293.013114 37.243934 
L 295.42333 37.223385 
L 299.038654 37.205028 
L 300.243762 37.335421 
L 301.44887 37.252324 
L 303.859086 37.237324 
L 305.064194 37.275811 
L 309.884626 36.964423 
L 313.49995 37.105747 
L 317.115274 37.04591 
L 318.320382 37.043417 
L 320.730598 36.87515 
L 324.345922 36.619901 
L 325.55103 36.696093 
L 329.166354 36.605471 
L 335.191894 36.704821 
L 336.397002 36.763028 
L 341.217434 36.560049 
L 344.832758 36.596656 
L 347.242974 36.733898 
L 355.67873 36.593154 
L 356.883838 36.453344 
L 360.499162 36.638529 
L 362.909378 36.723937 
L 365.319594 36.693348 
L 366.524702 36.53406 
L 368.934918 36.544085 
L 378.575782 36.725728 
L 388.216646 36.320773 
L 390.626862 36.216978 
L 396.652402 36.386337 
L 401.472834 36.304131 
L 409.908591 36.373773 
L 415.934131 36.681383 
L 425.574995 36.801208 
L 427.985211 36.744579 
L 429.190319 36.842094 
L 441.241399 36.662475 
L 446.061831 36.764335 
L 458.112911 36.450618 
L 461.728235 36.44057 
L 464.138451 36.367996 
L 466.548667 36.207011 
L 472.574207 36.161486 
L 479.804855 36.346223 
L 483.420179 36.233856 
L 485.830395 36.233823 
L 489.445719 36.246648 
L 515.958095 36.375 
L 515.958095 36.375 
" clip-path="url(#pe52cda05ea)" style="fill: none; stroke: #ff8c00; stroke-width: 1.5; stroke-linecap: square"/>
   </g>
   <g id="line2d_30">
    <path d="M 35.12 97 
L 36.325108 82.259602 
L 37.530216 80.317554 
L 38.735324 7.728415 
L 39.940432 25.501614 
L 41.14554 9.334826 
L 42.350648 20.50126 
L 43.555756 23.145893 
L 44.760864 26.9891 
L 45.965972 33.83925 
L 48.376188 43.816138 
L 49.581296 45.95892 
L 50.786404 49.596092 
L 51.991512 38.27133 
L 53.19662 38.571503 
L 55.606836 40.378163 
L 56.811944 42.350745 
L 58.017052 43.03215 
L 59.22216 42.239124 
L 60.427268 39.899864 
L 61.632376 41.959584 
L 62.837484 39.819213 
L 64.042592 42.074912 
L 65.2477 40.629073 
L 66.452808 41.133611 
L 68.863024 43.169958 
L 71.27324 46.324518 
L 72.478348 47.402808 
L 74.888564 50.021222 
L 76.093672 34.355178 
L 77.29878 33.670624 
L 78.503888 34.684027 
L 79.708996 30.762849 
L 80.914104 30.82963 
L 82.119212 31.702535 
L 83.32432 29.501892 
L 84.529428 31.045456 
L 85.734536 25.925294 
L 88.144752 28.861241 
L 89.34986 29.968533 
L 90.554968 29.057693 
L 91.760076 29.351768 
L 94.170292 31.955273 
L 96.580508 34.269524 
L 97.785616 32.557093 
L 98.990724 32.720748 
L 100.195832 33.119332 
L 101.40094 34.15239 
L 102.606048 34.119933 
L 103.811156 35.184151 
L 105.016264 34.815862 
L 106.221372 34.720688 
L 107.42648 35.643692 
L 108.631588 35.439627 
L 109.836697 35.639625 
L 111.041805 35.232578 
L 112.246913 35.914082 
L 113.452021 34.710562 
L 114.657129 33.964627 
L 115.862237 34.875225 
L 117.067345 34.3466 
L 118.272453 35.187602 
L 119.477561 35.499513 
L 120.682669 32.783498 
L 121.887777 32.058627 
L 123.092885 32.886364 
L 124.297993 31.620126 
L 126.708209 33.22109 
L 129.118425 33.129451 
L 130.323533 33.480939 
L 131.528641 34.222325 
L 132.733749 33.275054 
L 133.938857 33.940259 
L 135.143965 33.414776 
L 137.554181 34.389833 
L 138.759289 34.747393 
L 141.169505 34.788956 
L 142.374613 34.534047 
L 143.579721 33.32164 
L 144.784829 31.663668 
L 147.195045 32.95705 
L 148.400153 27.921678 
L 149.605261 28.225604 
L 150.810369 28.904313 
L 152.015477 29.383449 
L 153.220585 30.064509 
L 154.425693 29.683348 
L 156.835909 30.896651 
L 158.041017 31.067978 
L 159.246125 29.892039 
L 160.451233 29.566335 
L 162.861449 30.771234 
L 164.066557 31.156627 
L 165.271665 31.398585 
L 166.476773 31.282793 
L 167.681881 31.04106 
L 168.886989 31.629198 
L 170.092097 31.433854 
L 171.297205 31.448633 
L 172.502313 31.993242 
L 173.707421 31.804298 
L 176.117637 32.283049 
L 177.322745 32.745097 
L 178.527853 31.740921 
L 182.143177 32.966767 
L 183.348285 33.068489 
L 184.553393 31.2682 
L 185.758501 31.539829 
L 186.963609 31.504191 
L 188.168717 32.015806 
L 189.373825 31.941748 
L 190.578933 32.062856 
L 191.784041 32.550256 
L 192.989149 32.816872 
L 195.399365 33.71353 
L 196.604473 28.467435 
L 197.809581 28.751097 
L 200.219797 29.710854 
L 201.424905 30.014301 
L 202.630013 29.984474 
L 203.835121 30.348138 
L 205.040229 29.964408 
L 206.245337 30.124044 
L 207.450445 30.40358 
L 211.065769 31.6006 
L 212.270877 31.36699 
L 213.475985 29.905637 
L 214.681093 30.190658 
L 215.886201 30.354527 
L 217.091309 30.320129 
L 219.501525 31.131943 
L 220.706633 31.086019 
L 221.911741 31.493819 
L 223.116849 31.049465 
L 226.732173 31.866098 
L 227.937281 30.713769 
L 229.142389 29.780525 
L 231.552605 30.481504 
L 232.757713 30.468131 
L 236.373037 31.633953 
L 237.578145 31.88481 
L 238.783253 31.707598 
L 239.988361 32.030818 
L 241.193469 32.052073 
L 246.013901 33.171507 
L 248.424117 33.447665 
L 249.629225 33.639851 
L 252.039441 33.372129 
L 253.244549 33.635636 
L 254.449657 33.645206 
L 255.654765 33.988329 
L 256.859873 33.843582 
L 258.064982 34.151547 
L 259.27009 33.979423 
L 260.475198 34.307149 
L 261.680306 34.043027 
L 262.885414 34.113825 
L 264.090522 33.90662 
L 266.500738 34.183944 
L 267.705846 34.494961 
L 268.910954 34.546771 
L 270.116062 33.955586 
L 273.731386 34.804095 
L 274.936494 35.058191 
L 276.141602 34.801232 
L 277.34671 34.951352 
L 278.551818 33.682108 
L 280.962034 34.07478 
L 282.167142 34.380236 
L 283.37225 34.337731 
L 284.577358 34.632723 
L 285.782466 33.599847 
L 286.987574 33.52987 
L 290.602898 33.999792 
L 293.013114 34.166635 
L 296.628438 34.762946 
L 297.833546 34.549365 
L 299.038654 34.494232 
L 300.243762 33.925075 
L 301.44887 33.861605 
L 305.064194 34.333284 
L 306.269302 34.223928 
L 307.47441 33.942322 
L 308.679518 33.506485 
L 309.884626 33.783276 
L 311.089734 33.791158 
L 313.49995 34.196124 
L 315.910166 34.559718 
L 318.320382 35.072027 
L 319.52549 34.417161 
L 320.730598 34.603326 
L 321.935706 34.557326 
L 323.140814 34.672351 
L 324.345922 34.030463 
L 325.55103 33.972001 
L 327.961246 34.133467 
L 331.57657 34.80832 
L 332.781678 34.872189 
L 335.191894 35.352898 
L 338.807218 35.536237 
L 340.012326 35.09128 
L 342.422542 35.554943 
L 343.62765 35.675795 
L 344.832758 35.379146 
L 346.037866 35.217264 
L 347.242974 35.277995 
L 350.858298 35.958743 
L 352.063406 35.993427 
L 355.67873 36.603455 
L 356.883838 35.640075 
L 358.088946 35.793232 
L 361.70427 35.315467 
L 365.319594 35.919602 
L 366.524702 34.55163 
L 371.345134 35.250838 
L 372.550242 35.344328 
L 373.75535 35.562963 
L 374.960458 34.965629 
L 380.985998 35.752742 
L 382.191106 33.49455 
L 384.601322 33.875022 
L 385.80643 33.629807 
L 387.011538 33.701294 
L 388.216646 33.565142 
L 389.421754 33.044729 
L 390.626862 33.260727 
L 395.447294 33.676975 
L 396.652402 33.601523 
L 399.062618 33.838211 
L 400.267726 33.646876 
L 403.88305 34.22124 
L 405.088158 34.152274 
L 409.908591 34.772523 
L 411.113699 34.526348 
L 413.523915 34.815547 
L 414.729023 34.555065 
L 415.934131 34.105895 
L 418.344347 34.417254 
L 419.549455 34.416174 
L 420.754563 34.609662 
L 421.959671 34.531314 
L 424.369887 34.882772 
L 426.780103 34.870427 
L 427.985211 35.05139 
L 429.190319 34.531996 
L 431.600535 34.74616 
L 432.805643 34.763909 
L 434.010751 34.602049 
L 435.215859 34.66909 
L 436.420967 34.855687 
L 437.626075 34.781323 
L 441.241399 35.266191 
L 442.446507 35.231597 
L 444.856723 35.508897 
L 448.472047 35.851995 
L 449.677155 35.560644 
L 450.882263 35.575025 
L 453.292479 35.888054 
L 454.497587 35.926823 
L 455.702695 36.088009 
L 456.907803 36.061794 
L 459.318019 36.334041 
L 461.728235 36.601969 
L 462.933343 36.769327 
L 464.138451 36.571417 
L 465.343559 35.240454 
L 468.958883 35.519422 
L 470.163991 35.444444 
L 474.984423 35.99201 
L 476.189531 35.702869 
L 478.599747 36.00551 
L 481.009963 35.894671 
L 482.215071 35.562249 
L 483.420179 35.708137 
L 487.035503 35.726806 
L 488.240611 35.382001 
L 490.650827 35.612375 
L 493.061043 35.872114 
L 494.266151 34.66416 
L 496.676367 34.941341 
L 499.086583 34.904949 
L 506.317231 35.51033 
L 513.547879 36.32538 
L 514.752987 36.238314 
L 515.958095 36.375 
L 515.958095 36.375 
" clip-path="url(#pe52cda05ea)" style="fill: none; stroke-dasharray: 5.55,2.4; stroke-dashoffset: 0; stroke: #ff8c00; stroke-width: 1.5"/>
   </g>
   <g id="patch_3">
    <path d="M 35.12 97 
L 35.12 0 
" style="fill: none; stroke: #000000; stroke-width: 0.8; stroke-linejoin: miter; stroke-linecap: square"/>
   </g>
   <g id="patch_4">
    <path d="M 540 97 
L 540 0 
" style="fill: none; stroke: #000000; stroke-width: 0.8; stroke-linejoin: miter; stroke-linecap: square"/>
   </g>
   <g id="patch_5">
    <path d="M 35.12 97 
L 540 97 
" style="fill: none; stroke: #000000; stroke-width: 0.8; stroke-linejoin: miter; stroke-linecap: square"/>
   </g>
   <g id="patch_6">
    <path d="M 35.12 0 
L 540 0 
" style="fill: none; stroke: #000000; stroke-width: 0.8; stroke-linejoin: miter; stroke-linecap: square"/>
   </g>
  </g>
 </g>
 <defs>
  <clipPath id="pe52cda05ea">
   <rect x="35.12" y="0" width="504.88" height="97"/>
  </clipPath>
 </defs>
</svg>
