<?xml version="1.0" encoding="utf-8" standalone="no"?>
<!DOCTYPE svg PUBLIC "-//W3C//DTD SVG 1.1//EN"
  "http://www.w3.org/Graphics/SVG/1.1/DTD/svg11.dtd">
<svg xmlns:xlink="http://www.w3.org/1999/xlink" width="540pt" height="129.6pt" viewBox="0 0 540 129.6" xmlns="http://www.w3.org/2000/svg" version="1.1">
 <metadata>
  <rdf:RDF xmlns:dc="http://purl.org/dc/elements/1.1/" xmlns:cc="http://creativecommons.org/ns#" xmlns:rdf="http://www.w3.org/1999/02/22-rdf-syntax-ns#">
   <cc:Work>
    <dc:type rdf:resource="http://purl.org/dc/dcmitype/StillImage"/>
    <dc:date>2025-03-23T12:25:40.037882</dc:date>
    <dc:format>image/svg+xml</dc:format>
    <dc:creator>
     <cc:Agent>
      <dc:title>Matplotlib v3.9.0, https://matplotlib.org/</dc:title>
     </cc:Agent>
    </dc:creator>
   </cc:Work>
  </rdf:RDF>
 </metadata>
 <defs>
  <style type="text/css">*{stroke-linejoin: round; stroke-linecap: butt}</style>
 </defs>
 <g id="figure_1">
  <g id="patch_1">
   <path d="M 0 129.6 
L 540 129.6 
L 540 0 
L 0 0 
z
" style="fill: #ffffff"/>
  </g>
  <g id="axes_1">
   <g id="patch_2">
    <path d="M 35.03 97 
L 540 97 
L 540 0 
L 35.03 0 
z
" style="fill: #ffffff"/>
   </g>
   <g id="matplotlib.axis_1">
    <g id="xtick_1">
     <g id="line2d_1">
      <path d="M 35.03 97 
L 35.03 0 
" clip-path="url(#p0261fe3862)" style="fill: none; stroke: #b0b0b0; stroke-width: 0.8; stroke-linecap: square"/>
     </g>
     <g id="line2d_2">
      <defs>
       <path id="m40ae35a87c" d="M 0 0 
L 0 3.5 
" style="stroke: #000000; stroke-width: 0.8"/>
      </defs>
      <g>
       <use xlink:href="#m40ae35a87c" x="35.03" y="97" style="stroke: #000000; stroke-width: 0.8"/>
      </g>
     </g>
     <g id="text_1">
      <text style="font: 10px 'Times New Roman'; text-anchor: middle" x="35.03" y="110.94375" transform="rotate(-0 35.03 110.94375)">0</text>
     </g>
    </g>
    <g id="xtick_2">
     <g id="line2d_3">
      <path d="M 95.296142 97 
L 95.296142 0 
" clip-path="url(#p0261fe3862)" style="fill: none; stroke: #b0b0b0; stroke-width: 0.8; stroke-linecap: square"/>
     </g>
     <g id="line2d_4">
      <g>
       <use xlink:href="#m40ae35a87c" x="95.296142" y="97" style="stroke: #000000; stroke-width: 0.8"/>
      </g>
     </g>
     <g id="text_2">
      <text style="font: 10px 'Times New Roman'; text-anchor: middle" x="95.296142" y="110.94375" transform="rotate(-0 95.296142 110.94375)">50</text>
     </g>
    </g>
    <g id="xtick_3">
     <g id="line2d_5">
      <path d="M 155.562283 97 
L 155.562283 0 
" clip-path="url(#p0261fe3862)" style="fill: none; stroke: #b0b0b0; stroke-width: 0.8; stroke-linecap: square"/>
     </g>
     <g id="line2d_6">
      <g>
       <use xlink:href="#m40ae35a87c" x="155.562283" y="97" style="stroke: #000000; stroke-width: 0.8"/>
      </g>
     </g>
     <g id="text_3">
      <text style="font: 10px 'Times New Roman'; text-anchor: middle" x="155.562283" y="110.94375" transform="rotate(-0 155.562283 110.94375)">100</text>
     </g>
    </g>
    <g id="xtick_4">
     <g id="line2d_7">
      <path d="M 215.828425 97 
L 215.828425 0 
" clip-path="url(#p0261fe3862)" style="fill: none; stroke: #b0b0b0; stroke-width: 0.8; stroke-linecap: square"/>
     </g>
     <g id="line2d_8">
      <g>
       <use xlink:href="#m40ae35a87c" x="215.828425" y="97" style="stroke: #000000; stroke-width: 0.8"/>
      </g>
     </g>
     <g id="text_4">
      <text style="font: 10px 'Times New Roman'; text-anchor: middle" x="215.828425" y="110.94375" transform="rotate(-0 215.828425 110.94375)">150</text>
     </g>
    </g>
    <g id="xtick_5">
     <g id="line2d_9">
      <path d="M 276.094566 97 
L 276.094566 0 
" clip-path="url(#p0261fe3862)" style="fill: none; stroke: #b0b0b0; stroke-width: 0.8; stroke-linecap: square"/>
     </g>
     <g id="line2d_10">
      <g>
       <use xlink:href="#m40ae35a87c" x="276.094566" y="97" style="stroke: #000000; stroke-width: 0.8"/>
      </g>
     </g>
     <g id="text_5">
      <text style="font: 10px 'Times New Roman'; text-anchor: middle" x="276.094566" y="110.94375" transform="rotate(-0 276.094566 110.94375)">200</text>
     </g>
    </g>
    <g id="xtick_6">
     <g id="line2d_11">
      <path d="M 336.360708 97 
L 336.360708 0 
" clip-path="url(#p0261fe3862)" style="fill: none; stroke: #b0b0b0; stroke-width: 0.8; stroke-linecap: square"/>
     </g>
     <g id="line2d_12">
      <g>
       <use xlink:href="#m40ae35a87c" x="336.360708" y="97" style="stroke: #000000; stroke-width: 0.8"/>
      </g>
     </g>
     <g id="text_6">
      <text style="font: 10px 'Times New Roman'; text-anchor: middle" x="336.360708" y="110.94375" transform="rotate(-0 336.360708 110.94375)">250</text>
     </g>
    </g>
    <g id="xtick_7">
     <g id="line2d_13">
      <path d="M 396.626849 97 
L 396.626849 0 
" clip-path="url(#p0261fe3862)" style="fill: none; stroke: #b0b0b0; stroke-width: 0.8; stroke-linecap: square"/>
     </g>
     <g id="line2d_14">
      <g>
       <use xlink:href="#m40ae35a87c" x="396.626849" y="97" style="stroke: #000000; stroke-width: 0.8"/>
      </g>
     </g>
     <g id="text_7">
      <text style="font: 10px 'Times New Roman'; text-anchor: middle" x="396.626849" y="110.94375" transform="rotate(-0 396.626849 110.94375)">300</text>
     </g>
    </g>
    <g id="xtick_8">
     <g id="line2d_15">
      <path d="M 456.892991 97 
L 456.892991 0 
" clip-path="url(#p0261fe3862)" style="fill: none; stroke: #b0b0b0; stroke-width: 0.8; stroke-linecap: square"/>
     </g>
     <g id="line2d_16">
      <g>
       <use xlink:href="#m40ae35a87c" x="456.892991" y="97" style="stroke: #000000; stroke-width: 0.8"/>
      </g>
     </g>
     <g id="text_8">
      <text style="font: 10px 'Times New Roman'; text-anchor: middle" x="456.892991" y="110.94375" transform="rotate(-0 456.892991 110.94375)">350</text>
     </g>
    </g>
    <g id="xtick_9">
     <g id="line2d_17">
      <path d="M 517.159132 97 
L 517.159132 0 
" clip-path="url(#p0261fe3862)" style="fill: none; stroke: #b0b0b0; stroke-width: 0.8; stroke-linecap: square"/>
     </g>
     <g id="line2d_18">
      <g>
       <use xlink:href="#m40ae35a87c" x="517.159132" y="97" style="stroke: #000000; stroke-width: 0.8"/>
      </g>
     </g>
     <g id="text_9">
      <text style="font: 10px 'Times New Roman'; text-anchor: middle" x="517.159132" y="110.94375" transform="rotate(-0 517.159132 110.94375)">400</text>
     </g>
    </g>
    <g id="text_10">
     <text style="font: 12px 'Times New Roman'; text-anchor: middle" x="287.515" y="125.415312" transform="rotate(-0 287.515 125.415312)">Simulation Run</text>
    </g>
   </g>
   <g id="matplotlib.axis_2">
    <g id="ytick_1">
     <g id="line2d_19">
      <path d="M 35.03 97 
L 540 97 
" clip-path="url(#p0261fe3862)" style="fill: none; stroke: #b0b0b0; stroke-width: 0.8; stroke-linecap: square"/>
     </g>
     <g id="line2d_20">
      <defs>
       <path id="m2930195576" d="M 0 0 
L -3.5 0 
" style="stroke: #000000; stroke-width: 0.8"/>
      </defs>
      <g>
       <use xlink:href="#m2930195576" x="35.03" y="97" style="stroke: #000000; stroke-width: 0.8"/>
      </g>
     </g>
     <g id="text_11">
      <text style="font: 10px 'Times New Roman'; text-anchor: end" x="28.03" y="100.471875" transform="rotate(-0 28.03 100.471875)">0.0</text>
     </g>
    </g>
    <g id="ytick_2">
     <g id="line2d_21">
      <path d="M 35.03 62.357143 
L 540 62.357143 
" clip-path="url(#p0261fe3862)" style="fill: none; stroke: #b0b0b0; stroke-width: 0.8; stroke-linecap: square"/>
     </g>
     <g id="line2d_22">
      <g>
       <use xlink:href="#m2930195576" x="35.03" y="62.357143" style="stroke: #000000; stroke-width: 0.8"/>
      </g>
     </g>
     <g id="text_12">
      <text style="font: 10px 'Times New Roman'; text-anchor: end" x="28.03" y="65.829018" transform="rotate(-0 28.03 65.829018)">0.5</text>
     </g>
    </g>
    <g id="ytick_3">
     <g id="line2d_23">
      <path d="M 35.03 27.714286 
L 540 27.714286 
" clip-path="url(#p0261fe3862)" style="fill: none; stroke: #b0b0b0; stroke-width: 0.8; stroke-linecap: square"/>
     </g>
     <g id="line2d_24">
      <g>
       <use xlink:href="#m2930195576" x="35.03" y="27.714286" style="stroke: #000000; stroke-width: 0.8"/>
      </g>
     </g>
     <g id="text_13">
      <text style="font: 10px 'Times New Roman'; text-anchor: end" x="28.03" y="31.186161" transform="rotate(-0 28.03 31.186161)">1.0</text>
     </g>
    </g>
    <g id="text_14">
     <text style="font: 12px 'Times New Roman'; text-anchor: middle" x="8.963125" y="48.5" transform="rotate(-90 8.963125 48.5)">Normalized Value</text>
    </g>
   </g>
   <g id="line2d_25">
    <path d="M 35.03 20.602634 
L 36.235323 19.860465 
L 37.440646 23.849805 
L 38.645968 30.594534 
L 39.851291 24.327308 
L 41.056614 22.762045 
L 42.261937 27.249431 
L 43.46726 24.523185 
L 44.672583 22.853162 
L 45.877905 24.982535 
L 47.083228 25.940164 
L 48.288551 28.231865 
L 49.493874 29.703718 
L 50.699197 27.70423 
L 51.90452 29.007916 
L 53.109842 28.923112 
L 54.315165 29.116034 
L 55.520488 31.04981 
L 56.725811 29.279648 
L 57.931134 29.160274 
L 59.136457 28.111677 
L 60.341779 27.270047 
L 61.547102 27.988958 
L 62.752425 28.848068 
L 63.957748 29.071677 
L 65.163071 29.509549 
L 66.368394 30.148561 
L 67.573716 30.389684 
L 68.779039 30.136892 
L 69.984362 30.254941 
L 71.189685 29.421603 
L 72.395008 28.159317 
L 73.600331 27.226695 
L 74.805653 27.438196 
L 76.010976 26.203028 
L 77.216299 26.28354 
L 78.421622 27.299961 
L 79.626945 27.519729 
L 80.832268 28.171723 
L 82.03759 27.337578 
L 83.242913 27.149159 
L 84.448236 27.495401 
L 85.653559 28.021225 
L 86.858882 28.273624 
L 88.064205 28.744708 
L 89.269527 28.366687 
L 90.47485 27.555126 
L 91.680173 27.811069 
L 92.885496 27.379143 
L 94.090819 27.351779 
L 95.296142 27.812443 
L 96.501464 28.041279 
L 97.706787 28.688083 
L 98.91211 28.012953 
L 100.117433 28.05776 
L 101.322756 28.453596 
L 102.528079 28.118825 
L 103.733401 28.201737 
L 104.938724 27.562576 
L 106.144047 27.506312 
L 107.34937 26.881073 
L 108.554693 27.352782 
L 112.170661 27.640318 
L 113.375984 27.324383 
L 114.581307 27.422733 
L 116.991953 27.003199 
L 119.402598 27.726509 
L 120.607921 27.711743 
L 121.813244 27.318414 
L 123.018567 27.592613 
L 124.223889 27.67351 
L 125.429212 27.467009 
L 126.634535 27.614935 
L 127.839858 27.540564 
L 129.045181 27.215441 
L 130.250504 27.050749 
L 131.455826 27.012027 
L 133.866472 27.45105 
L 135.071795 27.404758 
L 136.277118 27.163443 
L 138.687763 27.356926 
L 139.893086 27.666985 
L 141.098409 27.824614 
L 142.303732 27.493524 
L 144.714378 27.776727 
L 145.9197 27.857556 
L 147.125023 27.772243 
L 148.330346 27.917347 
L 149.535669 28.235528 
L 154.35696 27.904037 
L 157.972929 27.942837 
L 160.383574 28.446954 
L 161.588897 28.608032 
L 162.79422 28.212494 
L 163.999543 28.328205 
L 167.615511 27.76346 
L 168.820834 27.884617 
L 170.026157 27.73812 
L 171.23148 28.040305 
L 172.436803 28.099078 
L 174.847448 28.005479 
L 176.052771 28.032731 
L 178.463417 27.893103 
L 179.66874 27.911206 
L 180.874063 28.107226 
L 182.079385 28.175518 
L 183.284708 28.058703 
L 184.490031 28.061126 
L 186.900677 28.208742 
L 189.311322 28.283001 
L 190.516645 28.209493 
L 196.543259 28.554897 
L 197.748582 28.484576 
L 202.569873 29.060813 
L 203.775196 29.161954 
L 204.980519 29.377183 
L 206.185842 29.220105 
L 208.596488 29.443079 
L 209.80181 29.176289 
L 211.007133 29.182705 
L 212.212456 29.002997 
L 213.417779 28.978016 
L 214.623102 28.835691 
L 215.828425 28.83758 
L 218.23907 28.401449 
L 220.649716 28.684315 
L 221.855039 28.797893 
L 225.471007 28.695155 
L 229.086976 29.01581 
L 230.292299 28.849128 
L 231.497621 28.934886 
L 232.702944 28.784961 
L 233.908267 28.886658 
L 236.318913 28.912113 
L 238.729558 28.961563 
L 241.140204 29.027022 
L 243.55085 29.094663 
L 247.166818 28.890691 
L 248.372141 29.004231 
L 249.577464 28.838719 
L 250.782787 28.865512 
L 251.98811 28.687612 
L 255.604078 28.963308 
L 256.809401 28.667254 
L 259.220047 28.827087 
L 261.630692 28.627107 
L 262.836015 28.623236 
L 264.041338 28.468893 
L 265.246661 28.447734 
L 272.478598 28.935208 
L 274.889243 28.989439 
L 276.094566 29.050768 
L 278.505212 28.931018 
L 280.915858 28.932646 
L 284.531826 28.986903 
L 285.737149 28.822123 
L 286.942472 28.914004 
L 288.147794 28.834188 
L 289.353117 28.511263 
L 291.763763 28.568706 
L 296.585054 28.490991 
L 314.664897 28.592538 
L 315.87022 28.521478 
L 317.075542 28.580262 
L 318.280865 28.426264 
L 330.334094 28.274938 
L 331.539416 28.341337 
L 335.155385 27.933789 
L 337.566031 27.958311 
L 341.181999 27.876478 
L 343.592645 27.98923 
L 344.797968 27.903605 
L 349.619259 28.068144 
L 350.824582 27.968032 
L 358.056519 28.117006 
L 360.467164 28.01416 
L 362.87781 27.917911 
L 366.493778 28.043598 
L 368.904424 28.021006 
L 382.162975 28.113139 
L 384.573621 28.071275 
L 388.189589 28.222032 
L 391.805558 28.1479 
L 393.010881 28.250546 
L 396.626849 28.173007 
L 397.832172 28.227981 
L 399.037495 28.100593 
L 400.242818 28.166407 
L 401.448141 28.053834 
L 403.858786 28.106592 
L 405.064109 27.908746 
L 407.474755 27.941987 
L 419.527983 27.983785 
L 425.554597 28.015129 
L 426.75992 28.103995 
L 429.170566 28.053307 
L 430.375889 28.154768 
L 433.991857 28.098416 
L 438.813148 28.151313 
L 440.018471 27.947278 
L 447.250408 27.895199 
L 448.455731 27.882596 
L 449.661054 27.711642 
L 454.482345 27.839352 
L 456.892991 27.793878 
L 459.303636 27.93134 
L 464.124928 27.598513 
L 471.356865 27.606868 
L 477.383479 27.679694 
L 478.588802 27.663456 
L 479.794125 27.527263 
L 482.20477 27.553734 
L 489.436707 27.884963 
L 497.873967 27.806037 
L 502.695258 27.813736 
L 503.900581 27.860044 
L 506.311227 27.817305 
L 508.721873 27.828584 
L 509.927195 27.743406 
L 514.748487 27.765785 
L 515.95381 27.714286 
L 515.95381 27.714286 
" clip-path="url(#p0261fe3862)" style="fill: none; stroke: #4169e1; stroke-width: 1.5; stroke-linecap: square"/>
   </g>
   <g id="line2d_26">
    <path d="M 35.03 97 
L 36.235323 96.898827 
L 37.440646 91.086133 
L 39.851291 44.539644 
L 41.056614 51.032929 
L 42.261937 35.407663 
L 43.46726 33.550484 
L 44.672583 36.502235 
L 45.877905 35.056454 
L 47.083228 39.00326 
L 48.288551 33.225066 
L 49.493874 33.355888 
L 50.699197 28.355506 
L 51.90452 28.561294 
L 53.109842 32.818899 
L 54.315165 36.484877 
L 55.520488 28.17015 
L 56.725811 21.432854 
L 57.931134 25.161481 
L 59.136457 24.543071 
L 60.341779 25.104321 
L 61.547102 26.141741 
L 62.752425 25.976111 
L 63.957748 28.596649 
L 65.163071 30.347121 
L 66.368394 30.865683 
L 68.779039 34.819618 
L 69.984362 36.818067 
L 71.189685 34.932741 
L 72.395008 27.799674 
L 73.600331 24.784323 
L 74.805653 26.637172 
L 76.010976 19.119819 
L 77.216299 21.241485 
L 78.421622 16.45765 
L 79.626945 18.248947 
L 80.832268 17.301123 
L 82.03759 14.309273 
L 83.242913 16.065283 
L 84.448236 17.089479 
L 85.653559 16.814876 
L 86.858882 18.134111 
L 88.064205 18.093161 
L 89.269527 18.627383 
L 90.47485 14.729978 
L 91.680173 15.878423 
L 92.885496 15.889143 
L 94.090819 17.504621 
L 95.296142 17.114415 
L 96.501464 18.160137 
L 97.706787 15.651845 
L 98.91211 12.721097 
L 100.117433 14.233528 
L 101.322756 14.128605 
L 102.528079 14.429721 
L 103.733401 15.781374 
L 104.938724 12.805775 
L 106.144047 14.174706 
L 107.34937 11.22425 
L 108.554693 10.114658 
L 110.965338 12.703444 
L 112.170661 13.774593 
L 113.375984 13.843881 
L 114.581307 14.967756 
L 115.78663 15.329532 
L 116.991953 16.203083 
L 118.197275 15.292279 
L 119.402598 15.129337 
L 120.607921 16.263586 
L 121.813244 15.323585 
L 123.018567 15.419199 
L 124.223889 16.417992 
L 125.429212 16.890838 
L 126.634535 17.625749 
L 127.839858 18.56514 
L 129.045181 18.043563 
L 130.250504 18.636941 
L 131.455826 19.582354 
L 132.661149 19.883553 
L 133.866472 20.007947 
L 135.071795 20.89185 
L 136.277118 20.888762 
L 138.687763 22.334374 
L 139.893086 21.646581 
L 141.098409 22.091631 
L 142.303732 21.131938 
L 143.509055 21.526878 
L 145.9197 22.800317 
L 147.125023 23.465346 
L 148.330346 23.87586 
L 149.535669 22.871 
L 151.946315 24.086072 
L 153.151637 24.822248 
L 154.35696 25.169037 
L 157.972929 27.221472 
L 159.178252 26.563546 
L 160.383574 26.142414 
L 161.588897 26.310481 
L 162.79422 23.925061 
L 163.999543 24.338537 
L 165.204866 24.365503 
L 166.410189 24.931522 
L 167.615511 23.556229 
L 168.820834 23.912699 
L 170.026157 24.117991 
L 171.23148 22.861987 
L 172.436803 23.434335 
L 173.642126 23.875285 
L 176.052771 25.098638 
L 177.258094 25.520799 
L 179.66874 26.645151 
L 180.874063 26.367856 
L 182.079385 26.83759 
L 183.284708 27.095125 
L 184.490031 27.654231 
L 185.695354 27.87945 
L 189.311322 29.402126 
L 191.721968 30.176674 
L 192.927291 30.40123 
L 195.337937 31.354948 
L 196.543259 31.380717 
L 197.748582 31.740593 
L 198.953905 31.483832 
L 200.159228 30.557912 
L 201.364551 31.004252 
L 202.569873 31.019563 
L 203.775196 31.224458 
L 204.980519 30.48795 
L 207.391165 30.133468 
L 208.596488 30.475967 
L 209.80181 29.035928 
L 211.007133 29.497165 
L 212.212456 29.08128 
L 213.417779 29.520146 
L 214.623102 29.415629 
L 215.828425 29.86311 
L 217.033747 28.480694 
L 219.444393 27.580205 
L 221.855039 27.796479 
L 225.471007 28.999063 
L 226.67633 28.977387 
L 227.881653 29.174161 
L 229.086976 29.239281 
L 230.292299 28.828284 
L 231.497621 29.023776 
L 232.702944 28.758659 
L 233.908267 28.856307 
L 236.318913 29.522847 
L 237.524236 29.752246 
L 241.140204 30.800706 
L 242.345527 30.949468 
L 243.55085 31.318309 
L 247.166818 31.986578 
L 248.372141 31.932716 
L 249.577464 31.40058 
L 250.782787 31.741419 
L 251.98811 31.055598 
L 253.193432 31.30893 
L 254.398755 31.011515 
L 255.604078 31.164006 
L 256.809401 28.557652 
L 259.220047 28.855232 
L 260.425369 28.760793 
L 261.630692 28.874444 
L 262.836015 29.232479 
L 264.041338 28.755932 
L 265.246661 29.095662 
L 266.451984 29.143317 
L 267.657306 28.677471 
L 268.862629 28.725705 
L 270.067952 29.074041 
L 271.273275 28.718509 
L 273.683921 29.373472 
L 277.299889 29.685222 
L 282.12118 30.812133 
L 284.531826 31.175514 
L 285.737149 30.453097 
L 288.147794 30.515601 
L 289.353117 26.787698 
L 290.55844 26.968167 
L 292.969086 27.538705 
L 294.174409 27.697993 
L 295.379731 27.976215 
L 296.585054 28.130851 
L 297.790377 28.439777 
L 298.9957 28.624842 
L 300.201023 28.933826 
L 301.406346 28.913893 
L 303.816991 29.428172 
L 305.022314 29.43589 
L 306.227637 29.289944 
L 307.43296 29.531497 
L 308.638283 29.546324 
L 312.254251 30.379722 
L 314.664897 30.230489 
L 317.075542 30.435035 
L 318.280865 29.693429 
L 319.486188 29.94869 
L 320.691511 29.871651 
L 323.102157 30.429241 
L 324.307479 30.499675 
L 325.512802 30.693526 
L 326.718125 30.624984 
L 330.334094 31.27501 
L 331.539416 31.341892 
L 332.744739 30.649513 
L 333.950062 30.697683 
L 335.155385 29.257955 
L 339.976676 30.068915 
L 341.181999 29.899151 
L 342.387322 29.903693 
L 343.592645 30.094723 
L 344.797968 30.007957 
L 346.00329 30.067894 
L 347.208613 30.309546 
L 348.413936 29.791398 
L 349.619259 29.947753 
L 350.824582 29.720387 
L 355.645873 30.506129 
L 356.851196 30.216904 
L 358.056519 30.149806 
L 359.261842 30.397019 
L 361.672487 30.006581 
L 362.87781 30.248566 
L 364.083133 30.18502 
L 365.288456 30.406638 
L 366.493778 30.414244 
L 368.904424 30.781779 
L 372.520393 31.476562 
L 373.725715 31.487059 
L 374.931038 31.691218 
L 376.136361 31.507246 
L 378.547007 31.943969 
L 379.75233 31.968364 
L 380.957652 32.150679 
L 382.162975 31.714468 
L 383.368298 31.754061 
L 384.573621 31.962414 
L 385.778944 31.945545 
L 386.984267 32.141969 
L 389.394912 32.201928 
L 391.805558 32.618844 
L 393.010881 32.260117 
L 394.216204 32.399164 
L 395.421526 32.330901 
L 396.626849 32.489521 
L 397.832172 32.536046 
L 399.037495 31.848637 
L 400.242818 31.821889 
L 401.448141 31.327966 
L 402.653463 31.338604 
L 403.858786 31.549253 
L 405.064109 29.554513 
L 406.269432 29.713292 
L 407.474755 29.685584 
L 411.090723 30.227449 
L 413.501369 30.467266 
L 417.117337 31.040297 
L 418.32266 30.769132 
L 419.527983 30.061614 
L 420.733306 30.264348 
L 421.938629 30.27724 
L 424.349274 30.538721 
L 426.75992 29.971287 
L 427.965243 29.81109 
L 429.170566 29.970826 
L 430.375889 29.554364 
L 431.581211 29.617833 
L 437.607826 30.48132 
L 438.813148 30.619464 
L 440.018471 28.247192 
L 443.63444 28.662322 
L 444.839763 28.098023 
L 448.455731 28.621047 
L 449.661054 26.972658 
L 452.071699 27.302276 
L 453.277022 27.191356 
L 454.482345 27.365965 
L 455.687668 27.260214 
L 456.892991 27.42349 
L 459.303636 27.208305 
L 460.508959 26.641046 
L 461.714282 26.391939 
L 462.919605 25.580731 
L 467.740896 26.278276 
L 468.946219 26.221455 
L 474.972833 26.902685 
L 478.588802 27.416371 
L 479.794125 26.347263 
L 482.20477 26.621009 
L 487.026062 26.392309 
L 488.231384 26.500158 
L 489.436707 26.446809 
L 491.847353 26.621017 
L 494.257999 26.563107 
L 502.695258 27.514545 
L 503.900581 27.539491 
L 505.105904 27.306941 
L 508.721873 27.502018 
L 509.927195 27.152902 
L 512.337841 27.434814 
L 514.748487 27.735498 
L 515.95381 27.714286 
L 515.95381 27.714286 
" clip-path="url(#p0261fe3862)" style="fill: none; stroke-dasharray: 5.55,2.4; stroke-dashoffset: 0; stroke: #4169e1; stroke-width: 1.5"/>
   </g>
   <g id="line2d_27">
    <path d="M 35.03 25.197784 
L 36.235323 20.245937 
L 37.440646 23.380679 
L 38.645968 28.847809 
L 39.851291 23.065607 
L 41.056614 21.659712 
L 42.261937 25.728622 
L 44.672583 23.190189 
L 45.877905 24.778023 
L 47.083228 25.771556 
L 48.288551 27.481578 
L 49.493874 28.638695 
L 50.699197 27.155643 
L 51.90452 28.538517 
L 53.109842 28.626204 
L 54.315165 28.977836 
L 55.520488 30.521488 
L 56.725811 29.170097 
L 57.931134 29.088094 
L 60.341779 27.19451 
L 61.547102 27.876532 
L 62.752425 28.871943 
L 65.163071 29.307621 
L 66.368394 29.891244 
L 67.573716 29.949233 
L 68.779039 29.584231 
L 69.984362 29.579031 
L 73.600331 27.397502 
L 74.805653 27.61877 
L 76.010976 26.590714 
L 77.216299 26.728327 
L 78.421622 27.708725 
L 79.626945 27.831874 
L 80.832268 28.47586 
L 82.03759 27.920351 
L 83.242913 27.734991 
L 85.653559 28.513915 
L 86.858882 28.570398 
L 88.064205 29.021328 
L 89.269527 28.675482 
L 90.47485 27.887848 
L 91.680173 28.206039 
L 92.885496 27.77352 
L 94.090819 27.734802 
L 95.296142 28.153469 
L 96.501464 28.306344 
L 97.706787 28.859155 
L 98.91211 28.277518 
L 100.117433 28.373018 
L 101.322756 28.742521 
L 102.528079 28.526676 
L 103.733401 28.636982 
L 104.938724 28.054672 
L 106.144047 27.931021 
L 107.34937 27.589441 
L 108.554693 27.935277 
L 110.965338 28.005359 
L 112.170661 28.070152 
L 113.375984 27.785534 
L 114.581307 27.97679 
L 116.991953 27.720089 
L 119.402598 28.317426 
L 120.607921 28.321871 
L 121.813244 27.984599 
L 123.018567 28.179381 
L 124.223889 28.203375 
L 125.429212 28.041297 
L 126.634535 28.172547 
L 127.839858 28.066063 
L 129.045181 27.754382 
L 131.455826 27.538424 
L 133.866472 27.894476 
L 135.071795 27.892124 
L 136.277118 27.725324 
L 138.687763 27.791979 
L 141.098409 28.214351 
L 142.303732 27.906465 
L 145.9197 28.170392 
L 147.125023 28.1282 
L 148.330346 28.225352 
L 149.535669 28.525561 
L 151.946315 28.331734 
L 153.151637 28.393139 
L 155.562283 28.237255 
L 157.972929 28.221816 
L 161.588897 28.80466 
L 162.79422 28.507331 
L 163.999543 28.566475 
L 165.204866 28.363744 
L 166.410189 28.289728 
L 167.615511 28.067012 
L 168.820834 28.224565 
L 170.026157 28.077964 
L 171.23148 28.334975 
L 172.436803 28.355122 
L 173.642126 28.215747 
L 180.874063 28.258256 
L 182.079385 28.346602 
L 183.284708 28.257973 
L 194.132614 28.499792 
L 195.337937 28.450459 
L 196.543259 28.547951 
L 197.748582 28.512489 
L 204.980519 29.24297 
L 206.185842 29.166177 
L 208.596488 29.295989 
L 209.80181 29.075736 
L 211.007133 29.096962 
L 212.212456 28.929511 
L 215.828425 28.751154 
L 218.23907 28.370203 
L 221.855039 28.728146 
L 226.67633 28.721429 
L 229.086976 28.91271 
L 230.292299 28.756059 
L 231.497621 28.806717 
L 232.702944 28.711768 
L 233.908267 28.798211 
L 236.318913 28.791304 
L 238.729558 28.814727 
L 241.140204 28.852725 
L 243.55085 28.887604 
L 247.166818 28.708404 
L 248.372141 28.797403 
L 249.577464 28.661858 
L 250.782787 28.714729 
L 251.98811 28.584368 
L 254.398755 28.708 
L 255.604078 28.795172 
L 256.809401 28.556538 
L 260.425369 28.592131 
L 264.041338 28.435668 
L 266.451984 28.50652 
L 268.862629 28.715512 
L 270.067952 28.695256 
L 272.478598 28.804858 
L 274.889243 28.832533 
L 277.299889 28.798064 
L 283.326503 28.761965 
L 284.531826 28.828377 
L 285.737149 28.708425 
L 286.942472 28.802696 
L 288.147794 28.734435 
L 289.353117 28.491214 
L 291.763763 28.534265 
L 295.379731 28.40431 
L 298.9957 28.564523 
L 303.816991 28.538334 
L 305.022314 28.613051 
L 306.227637 28.504075 
L 312.254251 28.62082 
L 313.459574 28.697553 
L 315.87022 28.563121 
L 317.075542 28.626984 
L 318.280865 28.50676 
L 325.512802 28.450051 
L 327.923448 28.408296 
L 330.334094 28.434974 
L 331.539416 28.470228 
L 336.360708 28.147092 
L 342.387322 28.133853 
L 343.592645 28.174461 
L 344.797968 28.09602 
L 349.619259 28.211319 
L 352.029905 28.142882 
L 359.261842 28.20884 
L 361.672487 28.0451 
L 371.31507 28.124977 
L 374.931038 28.138358 
L 377.341684 28.231342 
L 391.805558 28.187117 
L 394.216204 28.27069 
L 396.626849 28.238969 
L 397.832172 28.284996 
L 399.037495 28.162806 
L 400.242818 28.224274 
L 401.448141 28.130468 
L 403.858786 28.184545 
L 405.064109 28.022692 
L 407.474755 28.030221 
L 420.733306 28.110511 
L 424.349274 28.053355 
L 426.75992 28.197535 
L 429.170566 28.151732 
L 430.375889 28.238614 
L 433.991857 28.192988 
L 438.813148 28.237211 
L 440.018471 28.055354 
L 453.277022 27.9069 
L 460.508959 27.871967 
L 465.330251 27.645809 
L 473.76751 27.675758 
L 478.588802 27.69058 
L 480.999447 27.553207 
L 491.847353 27.793517 
L 494.257999 27.780339 
L 500.284613 27.790441 
L 503.900581 27.822168 
L 506.311227 27.767968 
L 508.721873 27.779647 
L 511.132518 27.758731 
L 515.95381 27.714286 
L 515.95381 27.714286 
" clip-path="url(#p0261fe3862)" style="fill: none; stroke: #ff8c00; stroke-width: 1.5; stroke-linecap: square"/>
   </g>
   <g id="line2d_28">
    <path d="M 35.03 97 
L 36.235323 90.658111 
L 37.440646 87.689101 
L 38.645968 66.825569 
L 39.851291 38.272039 
L 41.056614 45.504038 
L 42.261937 27.168977 
L 43.46726 33.318276 
L 44.672583 36.652336 
L 45.877905 36.818468 
L 47.083228 39.73653 
L 48.288551 36.189305 
L 49.493874 36.711586 
L 50.699197 33.622865 
L 51.90452 30.923682 
L 53.109842 35.023623 
L 54.315165 38.157633 
L 55.520488 30.949774 
L 56.725811 25.924156 
L 57.931134 29.444904 
L 60.341779 26.305299 
L 61.547102 26.732293 
L 62.752425 23.766018 
L 65.163071 28.80962 
L 66.368394 29.044733 
L 67.573716 31.448224 
L 68.779039 32.743841 
L 69.984362 34.885511 
L 71.189685 33.204544 
L 72.395008 29.912805 
L 73.600331 28.113325 
L 74.805653 29.72154 
L 76.010976 22.349921 
L 77.216299 24.252112 
L 78.421622 17.268908 
L 79.626945 19.221969 
L 80.832268 17.140398 
L 82.03759 16.024234 
L 83.242913 17.643801 
L 84.448236 18.306693 
L 85.653559 18.044996 
L 86.858882 19.803948 
L 88.064205 19.205454 
L 89.269527 19.504568 
L 90.47485 13.772813 
L 91.680173 14.275998 
L 92.885496 13.641851 
L 94.090819 15.290016 
L 95.296142 14.625479 
L 96.501464 15.901339 
L 97.706787 13.321505 
L 98.91211 10.233813 
L 100.117433 11.684005 
L 101.322756 11.265359 
L 102.528079 12.094705 
L 103.733401 13.379215 
L 104.938724 9.709989 
L 106.144047 10.931517 
L 108.554693 10.039606 
L 110.965338 12.652998 
L 112.170661 13.881155 
L 113.375984 13.7787 
L 115.78663 15.082992 
L 116.991953 16.151609 
L 118.197275 15.552345 
L 119.402598 15.241253 
L 120.607921 16.376428 
L 121.813244 15.362601 
L 123.018567 15.749491 
L 124.223889 16.821813 
L 125.429212 17.367235 
L 127.839858 18.849028 
L 129.045181 17.878532 
L 130.250504 18.410259 
L 131.455826 19.289403 
L 132.661149 19.699065 
L 133.866472 19.817385 
L 135.071795 20.736107 
L 136.277118 21.028884 
L 138.687763 22.712623 
L 139.893086 22.024697 
L 141.098409 22.274001 
L 142.303732 20.922294 
L 143.509055 21.564271 
L 144.714378 21.95528 
L 147.125023 23.475835 
L 148.330346 24.020307 
L 149.535669 22.56612 
L 150.740992 22.957397 
L 153.151637 24.233317 
L 154.35696 24.579537 
L 157.972929 26.646979 
L 159.178252 26.183627 
L 160.383574 25.569417 
L 161.588897 25.572963 
L 162.79422 23.816886 
L 163.999543 24.397704 
L 165.204866 23.915773 
L 166.410189 24.425732 
L 167.615511 23.668379 
L 170.026157 23.637413 
L 171.23148 22.350469 
L 172.436803 22.987627 
L 173.642126 23.047899 
L 176.052771 24.29945 
L 179.66874 25.928963 
L 180.874063 25.885443 
L 183.284708 26.538279 
L 184.490031 27.064465 
L 185.695354 27.167691 
L 191.721968 29.745168 
L 192.927291 30.064987 
L 195.337937 30.974368 
L 196.543259 31.134045 
L 197.748582 31.574444 
L 198.953905 31.590007 
L 200.159228 30.525097 
L 201.364551 30.954069 
L 203.775196 31.206166 
L 204.980519 30.550806 
L 208.596488 31.349042 
L 209.80181 29.979449 
L 211.007133 30.418358 
L 212.212456 29.802183 
L 213.417779 30.191102 
L 214.623102 30.020687 
L 215.828425 30.45897 
L 217.033747 29.019843 
L 218.23907 28.435935 
L 219.444393 28.165491 
L 221.855039 28.05355 
L 223.060362 28.484815 
L 225.471007 29.137106 
L 226.67633 29.093025 
L 227.881653 29.276789 
L 229.086976 29.139923 
L 230.292299 28.528072 
L 231.497621 28.837399 
L 233.908267 28.959673 
L 241.140204 30.811915 
L 242.345527 30.958226 
L 244.756173 31.520722 
L 247.166818 31.893629 
L 248.372141 31.896795 
L 249.577464 31.414699 
L 250.782787 31.649653 
L 251.98811 31.21957 
L 253.193432 31.542958 
L 255.604078 31.471167 
L 256.809401 29.11539 
L 258.014724 29.400936 
L 261.630692 29.640265 
L 262.836015 29.960972 
L 264.041338 29.665044 
L 265.246661 30.012885 
L 266.451984 30.161372 
L 267.657306 29.535645 
L 268.862629 29.638756 
L 270.067952 29.961743 
L 271.273275 29.811028 
L 273.683921 30.414031 
L 274.889243 30.539079 
L 276.094566 30.797085 
L 277.299889 30.85575 
L 282.12118 31.984427 
L 284.531826 32.233176 
L 285.737149 31.769029 
L 286.942472 31.599277 
L 288.147794 31.656156 
L 289.353117 28.736123 
L 290.55844 28.907929 
L 291.763763 29.221631 
L 294.174409 29.483389 
L 295.379731 29.781986 
L 296.585054 29.762932 
L 297.790377 30.067894 
L 298.9957 30.029334 
L 300.201023 30.319058 
L 301.406346 30.412256 
L 303.816991 30.934787 
L 305.022314 30.904987 
L 306.227637 30.506358 
L 307.43296 30.790151 
L 308.638283 30.836098 
L 311.048928 31.297141 
L 312.254251 31.580586 
L 314.664897 31.427192 
L 317.075542 31.547053 
L 318.280865 30.945909 
L 319.486188 31.224456 
L 320.691511 31.155249 
L 323.102157 31.698153 
L 326.718125 31.770207 
L 331.539416 32.531312 
L 332.744739 32.07413 
L 333.950062 32.096665 
L 335.155385 30.261439 
L 339.976676 31.075411 
L 343.592645 31.343226 
L 344.797968 31.188725 
L 346.00329 31.302449 
L 347.208613 31.540773 
L 348.413936 30.978868 
L 349.619259 31.025598 
L 350.824582 30.736245 
L 355.645873 31.610321 
L 356.851196 31.440272 
L 358.056519 31.499048 
L 359.261842 31.723399 
L 360.467164 31.289527 
L 361.672487 31.230938 
L 362.87781 31.439089 
L 364.083133 31.437805 
L 366.493778 31.815601 
L 367.699101 31.897872 
L 372.520393 32.770337 
L 373.725715 32.74878 
L 374.931038 32.901821 
L 376.136361 32.706836 
L 380.957652 33.452167 
L 382.162975 33.018288 
L 384.573621 33.395303 
L 385.778944 33.364402 
L 388.189589 33.69253 
L 391.805558 34.182228 
L 393.010881 33.718253 
L 394.216204 33.921952 
L 395.421526 33.864406 
L 397.832172 34.060691 
L 399.037495 33.102234 
L 400.242818 33.016334 
L 401.448141 32.534259 
L 402.653463 32.555779 
L 403.858786 32.76363 
L 405.064109 30.892193 
L 409.8854 31.44116 
L 417.117337 32.296105 
L 418.32266 31.999179 
L 419.527983 31.527184 
L 420.733306 31.725315 
L 421.938629 31.705135 
L 424.349274 31.987727 
L 426.75992 31.513153 
L 427.965243 31.316248 
L 429.170566 31.472421 
L 430.375889 31.031237 
L 431.581211 31.02305 
L 438.813148 31.830882 
L 440.018471 29.150266 
L 443.63444 29.630809 
L 444.839763 29.117838 
L 448.455731 29.637563 
L 449.661054 27.869121 
L 452.071699 28.245804 
L 453.277022 28.144343 
L 454.482345 28.338183 
L 455.687668 28.279521 
L 456.892991 28.472898 
L 458.098314 28.460565 
L 459.303636 28.30849 
L 460.508959 27.541937 
L 461.714282 27.289555 
L 462.919605 26.219142 
L 467.740896 26.880082 
L 468.946219 26.826456 
L 478.588802 27.987196 
L 479.794125 26.808692 
L 482.20477 27.032655 
L 489.436707 26.825823 
L 490.64203 26.961259 
L 494.257999 26.720502 
L 500.284613 27.403547 
L 503.900581 27.649237 
L 505.105904 27.192054 
L 507.51655 27.309359 
L 508.721873 27.396055 
L 509.927195 27.262147 
L 511.132518 27.318413 
L 514.748487 27.740397 
L 515.95381 27.714286 
L 515.95381 27.714286 
" clip-path="url(#p0261fe3862)" style="fill: none; stroke-dasharray: 5.55,2.4; stroke-dashoffset: 0; stroke: #ff8c00; stroke-width: 1.5"/>
   </g>
   <g id="patch_3">
    <path d="M 35.03 97 
L 35.03 0 
" style="fill: none; stroke: #000000; stroke-width: 0.8; stroke-linejoin: miter; stroke-linecap: square"/>
   </g>
   <g id="patch_4">
    <path d="M 540 97 
L 540 0 
" style="fill: none; stroke: #000000; stroke-width: 0.8; stroke-linejoin: miter; stroke-linecap: square"/>
   </g>
   <g id="patch_5">
    <path d="M 35.03 97 
L 540 97 
" style="fill: none; stroke: #000000; stroke-width: 0.8; stroke-linejoin: miter; stroke-linecap: square"/>
   </g>
   <g id="patch_6">
    <path d="M 35.03 0 
L 540 0 
" style="fill: none; stroke: #000000; stroke-width: 0.8; stroke-linejoin: miter; stroke-linecap: square"/>
   </g>
  </g>
 </g>
 <defs>
  <clipPath id="p0261fe3862">
   <rect x="35.03" y="0" width="504.97" height="97"/>
  </clipPath>
 </defs>
</svg>
