<?xml version="1.0" encoding="utf-8" standalone="no"?>
<!DOCTYPE svg PUBLIC "-//W3C//DTD SVG 1.1//EN"
  "http://www.w3.org/Graphics/SVG/1.1/DTD/svg11.dtd">
<svg xmlns:xlink="http://www.w3.org/1999/xlink" width="540pt" height="216pt" viewBox="0 0 540 216" xmlns="http://www.w3.org/2000/svg" version="1.1">
 <metadata>
  <rdf:RDF xmlns:dc="http://purl.org/dc/elements/1.1/" xmlns:cc="http://creativecommons.org/ns#" xmlns:rdf="http://www.w3.org/1999/02/22-rdf-syntax-ns#">
   <cc:Work>
    <dc:type rdf:resource="http://purl.org/dc/dcmitype/StillImage"/>
    <dc:date>2025-03-30T16:59:17.566534</dc:date>
    <dc:format>image/svg+xml</dc:format>
    <dc:creator>
     <cc:Agent>
      <dc:title>Matplotlib v3.10.1, https://matplotlib.org/</dc:title>
     </cc:Agent>
    </dc:creator>
   </cc:Work>
  </rdf:RDF>
 </metadata>
 <defs>
  <style type="text/css">*{stroke-linejoin: round; stroke-linecap: butt}</style>
 </defs>
 <g id="figure_1">
  <g id="patch_1">
   <path d="M 0 216 
L 540 216 
L 540 0 
L 0 0 
z
" style="fill: #ffffff"/>
  </g>
  <g id="axes_1">
   <g id="patch_2">
    <path d="M 39.35 183.4 
L 225.886 183.4 
L 225.886 10.08 
L 39.35 10.08 
z
" style="fill: #ffffff"/>
   </g>
   <g id="patch_3">
    <path d="M 39.35 183.4 
L 48.6768 183.4 
L 48.6768 176.4672 
L 39.35 176.4672 
z
" clip-path="url(#pec87e2353b)" style="fill: #d3d3d3; stroke: #000000; stroke-linejoin: miter"/>
   </g>
   <g id="patch_4">
    <path d="M 48.6768 183.4 
L 58.0036 183.4 
L 58.0036 167.8012 
L 48.6768 167.8012 
z
" clip-path="url(#pec87e2353b)" style="fill: #d3d3d3; stroke: #000000; stroke-linejoin: miter"/>
   </g>
   <g id="patch_5">
    <path d="M 58.0036 183.4 
L 67.3304 183.4 
L 67.3304 162.6016 
L 58.0036 162.6016 
z
" clip-path="url(#pec87e2353b)" style="fill: #d3d3d3; stroke: #000000; stroke-linejoin: miter"/>
   </g>
   <g id="patch_6">
    <path d="M 67.3304 183.4 
L 76.6572 183.4 
L 76.6572 124.4712 
L 67.3304 124.4712 
z
" clip-path="url(#pec87e2353b)" style="fill: #d3d3d3; stroke: #000000; stroke-linejoin: miter"/>
   </g>
   <g id="patch_7">
    <path d="M 76.6572 183.4 
L 85.984 183.4 
L 85.984 98.4732 
L 76.6572 98.4732 
z
" clip-path="url(#pec87e2353b)" style="fill: #d3d3d3; stroke: #000000; stroke-linejoin: miter"/>
   </g>
   <g id="patch_8">
    <path d="M 85.984 183.4 
L 95.3108 183.4 
L 95.3108 93.2736 
L 85.984 93.2736 
z
" clip-path="url(#pec87e2353b)" style="fill: #d3d3d3; stroke: #000000; stroke-linejoin: miter"/>
   </g>
   <g id="patch_9">
    <path d="M 95.3108 183.4 
L 104.6376 183.4 
L 104.6376 89.8072 
L 95.3108 89.8072 
z
" clip-path="url(#pec87e2353b)" style="fill: #d3d3d3; stroke: #000000; stroke-linejoin: miter"/>
   </g>
   <g id="patch_10">
    <path d="M 104.6376 183.4 
L 113.9644 183.4 
L 113.9644 110.6056 
L 104.6376 110.6056 
z
" clip-path="url(#pec87e2353b)" style="fill: #d3d3d3; stroke: #000000; stroke-linejoin: miter"/>
   </g>
   <g id="patch_11">
    <path d="M 113.9644 183.4 
L 123.2912 183.4 
L 123.2912 110.6056 
L 113.9644 110.6056 
z
" clip-path="url(#pec87e2353b)" style="fill: #d3d3d3; stroke: #000000; stroke-linejoin: miter"/>
   </g>
   <g id="patch_12">
    <path d="M 123.2912 183.4 
L 132.618 183.4 
L 132.618 133.1372 
L 123.2912 133.1372 
z
" clip-path="url(#pec87e2353b)" style="fill: #d3d3d3; stroke: #000000; stroke-linejoin: miter"/>
   </g>
   <g id="patch_13">
    <path d="M 132.618 183.4 
L 141.9448 183.4 
L 141.9448 152.2024 
L 132.618 152.2024 
z
" clip-path="url(#pec87e2353b)" style="fill: #d3d3d3; stroke: #000000; stroke-linejoin: miter"/>
   </g>
   <g id="patch_14">
    <path d="M 141.9448 183.4 
L 151.2716 183.4 
L 151.2716 155.6688 
L 141.9448 155.6688 
z
" clip-path="url(#pec87e2353b)" style="fill: #d3d3d3; stroke: #000000; stroke-linejoin: miter"/>
   </g>
   <g id="patch_15">
    <path d="M 151.2716 183.4 
L 160.5984 183.4 
L 160.5984 169.5344 
L 151.2716 169.5344 
z
" clip-path="url(#pec87e2353b)" style="fill: #d3d3d3; stroke: #000000; stroke-linejoin: miter"/>
   </g>
   <g id="patch_16">
    <path d="M 160.5984 183.4 
L 169.9252 183.4 
L 169.9252 169.5344 
L 160.5984 169.5344 
z
" clip-path="url(#pec87e2353b)" style="fill: #d3d3d3; stroke: #000000; stroke-linejoin: miter"/>
   </g>
   <g id="patch_17">
    <path d="M 169.9252 183.4 
L 179.252 183.4 
L 179.252 176.4672 
L 169.9252 176.4672 
z
" clip-path="url(#pec87e2353b)" style="fill: #d3d3d3; stroke: #000000; stroke-linejoin: miter"/>
   </g>
   <g id="patch_18">
    <path d="M 179.252 183.4 
L 188.5788 183.4 
L 188.5788 174.734 
L 179.252 174.734 
z
" clip-path="url(#pec87e2353b)" style="fill: #d3d3d3; stroke: #000000; stroke-linejoin: miter"/>
   </g>
   <g id="patch_19">
    <path d="M 188.5788 183.4 
L 197.9056 183.4 
L 197.9056 176.4672 
L 188.5788 176.4672 
z
" clip-path="url(#pec87e2353b)" style="fill: #d3d3d3; stroke: #000000; stroke-linejoin: miter"/>
   </g>
   <g id="patch_20">
    <path d="M 197.9056 183.4 
L 207.2324 183.4 
L 207.2324 176.4672 
L 197.9056 176.4672 
z
" clip-path="url(#pec87e2353b)" style="fill: #d3d3d3; stroke: #000000; stroke-linejoin: miter"/>
   </g>
   <g id="patch_21">
    <path d="M 207.2324 183.4 
L 216.5592 183.4 
L 216.5592 179.9336 
L 207.2324 179.9336 
z
" clip-path="url(#pec87e2353b)" style="fill: #d3d3d3; stroke: #000000; stroke-linejoin: miter"/>
   </g>
   <g id="patch_22">
    <path d="M 216.5592 183.4 
L 225.886 183.4 
L 225.886 176.4672 
L 216.5592 176.4672 
z
" clip-path="url(#pec87e2353b)" style="fill: #d3d3d3; stroke: #000000; stroke-linejoin: miter"/>
   </g>
   <g id="matplotlib.axis_1">
    <g id="xtick_1">
     <g id="line2d_1">
      <defs>
       <path id="m0edd67ea1e" d="M 0 0 
L 0 3.5 
" style="stroke: #000000; stroke-width: 0.8"/>
      </defs>
      <g>
       <use xlink:href="#m0edd67ea1e" x="39.35" y="183.4" style="stroke: #000000; stroke-width: 0.8"/>
      </g>
     </g>
     <g id="text_1">
      <text style="font-size: 10px; font-family: 'Times New Roman'; text-anchor: middle" x="39.35" y="197.34375" transform="rotate(-0 39.35 197.34375)">31</text>
     </g>
    </g>
    <g id="xtick_2">
     <g id="line2d_2">
      <g>
       <use xlink:href="#m0edd67ea1e" x="85.984" y="183.4" style="stroke: #000000; stroke-width: 0.8"/>
      </g>
     </g>
     <g id="text_2">
      <text style="font-size: 10px; font-family: 'Times New Roman'; text-anchor: middle" x="85.984" y="197.34375" transform="rotate(-0 85.984 197.34375)">70</text>
     </g>
    </g>
    <g id="xtick_3">
     <g id="line2d_3">
      <g>
       <use xlink:href="#m0edd67ea1e" x="132.618" y="183.4" style="stroke: #000000; stroke-width: 0.8"/>
      </g>
     </g>
     <g id="text_3">
      <text style="font-size: 10px; font-family: 'Times New Roman'; text-anchor: middle" x="132.618" y="197.34375" transform="rotate(-0 132.618 197.34375)">108</text>
     </g>
    </g>
    <g id="xtick_4">
     <g id="line2d_4">
      <g>
       <use xlink:href="#m0edd67ea1e" x="179.252" y="183.4" style="stroke: #000000; stroke-width: 0.8"/>
      </g>
     </g>
     <g id="text_4">
      <text style="font-size: 10px; font-family: 'Times New Roman'; text-anchor: middle" x="179.252" y="197.34375" transform="rotate(-0 179.252 197.34375)">147</text>
     </g>
    </g>
    <g id="xtick_5">
     <g id="line2d_5">
      <g>
       <use xlink:href="#m0edd67ea1e" x="225.886" y="183.4" style="stroke: #000000; stroke-width: 0.8"/>
      </g>
     </g>
     <g id="text_5">
      <text style="font-size: 10px; font-family: 'Times New Roman'; text-anchor: middle" x="225.886" y="197.34375" transform="rotate(-0 225.886 197.34375)">185</text>
     </g>
    </g>
    <g id="text_6">
     <text style="font-size: 12px; font-family: 'Times New Roman'; text-anchor: middle" x="132.618" y="211.815313" transform="rotate(-0 132.618 211.815313)">Lead Time (weeks)</text>
    </g>
   </g>
   <g id="matplotlib.axis_2">
    <g id="ytick_1">
     <g id="line2d_6">
      <path d="M 39.35 183.4 
L 225.886 183.4 
" clip-path="url(#pec87e2353b)" style="fill: none; stroke: #000000; stroke-linecap: square"/>
     </g>
     <g id="line2d_7">
      <defs>
       <path id="m80fa02fcda" d="M 0 0 
L -3.5 0 
" style="stroke: #000000; stroke-width: 0.8"/>
      </defs>
      <g>
       <use xlink:href="#m80fa02fcda" x="39.35" y="183.4" style="stroke: #000000; stroke-width: 0.8"/>
      </g>
     </g>
     <g id="text_7">
      <text style="font-size: 10px; font-family: 'Times New Roman'; text-anchor: end" x="32.35" y="186.871875" transform="rotate(-0 32.35 186.871875)">0.00</text>
     </g>
    </g>
    <g id="ytick_2">
     <g id="line2d_8">
      <path d="M 39.35 148.736 
L 225.886 148.736 
" clip-path="url(#pec87e2353b)" style="fill: none; stroke: #000000; stroke-linecap: square"/>
     </g>
     <g id="line2d_9">
      <g>
       <use xlink:href="#m80fa02fcda" x="39.35" y="148.736" style="stroke: #000000; stroke-width: 0.8"/>
      </g>
     </g>
     <g id="text_8">
      <text style="font-size: 10px; font-family: 'Times New Roman'; text-anchor: end" x="32.35" y="152.207875" transform="rotate(-0 32.35 152.207875)">0.05</text>
     </g>
    </g>
    <g id="ytick_3">
     <g id="line2d_10">
      <path d="M 39.35 114.072 
L 225.886 114.072 
" clip-path="url(#pec87e2353b)" style="fill: none; stroke: #000000; stroke-linecap: square"/>
     </g>
     <g id="line2d_11">
      <g>
       <use xlink:href="#m80fa02fcda" x="39.35" y="114.072" style="stroke: #000000; stroke-width: 0.8"/>
      </g>
     </g>
     <g id="text_9">
      <text style="font-size: 10px; font-family: 'Times New Roman'; text-anchor: end" x="32.35" y="117.543875" transform="rotate(-0 32.35 117.543875)">0.10</text>
     </g>
    </g>
    <g id="ytick_4">
     <g id="line2d_12">
      <path d="M 39.35 79.408 
L 225.886 79.408 
" clip-path="url(#pec87e2353b)" style="fill: none; stroke: #000000; stroke-linecap: square"/>
     </g>
     <g id="line2d_13">
      <g>
       <use xlink:href="#m80fa02fcda" x="39.35" y="79.408" style="stroke: #000000; stroke-width: 0.8"/>
      </g>
     </g>
     <g id="text_10">
      <text style="font-size: 10px; font-family: 'Times New Roman'; text-anchor: end" x="32.35" y="82.879875" transform="rotate(-0 32.35 82.879875)">0.15</text>
     </g>
    </g>
    <g id="ytick_5">
     <g id="line2d_14">
      <path d="M 39.35 44.744 
L 225.886 44.744 
" clip-path="url(#pec87e2353b)" style="fill: none; stroke: #000000; stroke-linecap: square"/>
     </g>
     <g id="line2d_15">
      <g>
       <use xlink:href="#m80fa02fcda" x="39.35" y="44.744" style="stroke: #000000; stroke-width: 0.8"/>
      </g>
     </g>
     <g id="text_11">
      <text style="font-size: 10px; font-family: 'Times New Roman'; text-anchor: end" x="32.35" y="48.215875" transform="rotate(-0 32.35 48.215875)">0.20</text>
     </g>
    </g>
    <g id="ytick_6">
     <g id="line2d_16">
      <path d="M 39.35 10.08 
L 225.886 10.08 
" clip-path="url(#pec87e2353b)" style="fill: none; stroke: #000000; stroke-linecap: square"/>
     </g>
     <g id="line2d_17">
      <g>
       <use xlink:href="#m80fa02fcda" x="39.35" y="10.08" style="stroke: #000000; stroke-width: 0.8"/>
      </g>
     </g>
     <g id="text_12">
      <text style="font-size: 10px; font-family: 'Times New Roman'; text-anchor: end" x="32.35" y="13.551875" transform="rotate(-0 32.35 13.551875)">0.25</text>
     </g>
    </g>
    <g id="text_13">
     <text style="font-weight: 700; font-size: 12px; font-family: 'Times New Roman'; text-anchor: middle" x="8.260625" y="96.74" transform="rotate(-90 8.260625 96.74)">Relative Probability</text>
    </g>
   </g>
   <g id="line2d_18">
    <path d="M 146.810101 183.4 
L 146.810101 10.08 
" clip-path="url(#pec87e2353b)" style="fill: none; stroke-dasharray: 7.4,3.2; stroke-dashoffset: 0; stroke: #ff0000; stroke-width: 2"/>
   </g>
   <g id="patch_23">
    <path d="M 39.35 183.4 
L 39.35 10.08 
" style="fill: none; stroke: #000000; stroke-width: 0.8; stroke-linejoin: miter; stroke-linecap: square"/>
   </g>
   <g id="patch_24">
    <path d="M 225.886 183.4 
L 225.886 10.08 
" style="fill: none; stroke: #000000; stroke-width: 0.8; stroke-linejoin: miter; stroke-linecap: square"/>
   </g>
   <g id="patch_25">
    <path d="M 39.35 183.4 
L 225.886 183.4 
" style="fill: none; stroke: #000000; stroke-width: 0.8; stroke-linejoin: miter; stroke-linecap: square"/>
   </g>
   <g id="patch_26">
    <path d="M 39.35 10.08 
L 225.886 10.08 
" style="fill: none; stroke: #000000; stroke-width: 0.8; stroke-linejoin: miter; stroke-linecap: square"/>
   </g>
   <g id="text_14">
    <text style="font-size: 10px; font-family: 'Times New Roman'; text-anchor: middle" x="146.810101" y="7.922188" transform="rotate(-0 146.810101 7.922188)">Target</text>
   </g>
  </g>
  <g id="axes_2">
   <g id="patch_27">
    <path d="M 319.154 183.4 
L 505.69 183.4 
L 505.69 10.08 
L 319.154 10.08 
z
" style="fill: #ffffff"/>
   </g>
   <g id="patch_28">
    <path d="M 319.154 183.4 
L 328.4808 183.4 
L 328.4808 179.9336 
L 319.154 179.9336 
z
" clip-path="url(#pd76e087ccf)" style="fill: #d3d3d3; stroke: #000000; stroke-linejoin: miter"/>
   </g>
   <g id="patch_29">
    <path d="M 328.4808 183.4 
L 337.8076 183.4 
L 337.8076 173.0008 
L 328.4808 173.0008 
z
" clip-path="url(#pd76e087ccf)" style="fill: #d3d3d3; stroke: #000000; stroke-linejoin: miter"/>
   </g>
   <g id="patch_30">
    <path d="M 337.8076 183.4 
L 347.1344 183.4 
L 347.1344 166.068 
L 337.8076 166.068 
z
" clip-path="url(#pd76e087ccf)" style="fill: #d3d3d3; stroke: #000000; stroke-linejoin: miter"/>
   </g>
   <g id="patch_31">
    <path d="M 347.1344 183.4 
L 356.4612 183.4 
L 356.4612 153.9356 
L 347.1344 153.9356 
z
" clip-path="url(#pd76e087ccf)" style="fill: #d3d3d3; stroke: #000000; stroke-linejoin: miter"/>
   </g>
   <g id="patch_32">
    <path d="M 356.4612 183.4 
L 365.788 183.4 
L 365.788 115.8052 
L 356.4612 115.8052 
z
" clip-path="url(#pd76e087ccf)" style="fill: #d3d3d3; stroke: #000000; stroke-linejoin: miter"/>
   </g>
   <g id="patch_33">
    <path d="M 365.788 183.4 
L 375.1148 183.4 
L 375.1148 122.738 
L 365.788 122.738 
z
" clip-path="url(#pd76e087ccf)" style="fill: #d3d3d3; stroke: #000000; stroke-linejoin: miter"/>
   </g>
   <g id="patch_34">
    <path d="M 375.1148 183.4 
L 384.4416 183.4 
L 384.4416 67.2756 
L 375.1148 67.2756 
z
" clip-path="url(#pd76e087ccf)" style="fill: #d3d3d3; stroke: #000000; stroke-linejoin: miter"/>
   </g>
   <g id="patch_35">
    <path d="M 384.4416 183.4 
L 393.7684 183.4 
L 393.7684 115.8052 
L 384.4416 115.8052 
z
" clip-path="url(#pd76e087ccf)" style="fill: #d3d3d3; stroke: #000000; stroke-linejoin: miter"/>
   </g>
   <g id="patch_36">
    <path d="M 393.7684 183.4 
L 403.0952 183.4 
L 403.0952 103.6728 
L 393.7684 103.6728 
z
" clip-path="url(#pd76e087ccf)" style="fill: #d3d3d3; stroke: #000000; stroke-linejoin: miter"/>
   </g>
   <g id="patch_37">
    <path d="M 403.0952 183.4 
L 412.422 183.4 
L 412.422 127.9376 
L 403.0952 127.9376 
z
" clip-path="url(#pd76e087ccf)" style="fill: #d3d3d3; stroke: #000000; stroke-linejoin: miter"/>
   </g>
   <g id="patch_38">
    <path d="M 412.422 183.4 
L 421.7488 183.4 
L 421.7488 122.738 
L 412.422 122.738 
z
" clip-path="url(#pd76e087ccf)" style="fill: #d3d3d3; stroke: #000000; stroke-linejoin: miter"/>
   </g>
   <g id="patch_39">
    <path d="M 421.7488 183.4 
L 431.0756 183.4 
L 431.0756 141.8032 
L 421.7488 141.8032 
z
" clip-path="url(#pd76e087ccf)" style="fill: #d3d3d3; stroke: #000000; stroke-linejoin: miter"/>
   </g>
   <g id="patch_40">
    <path d="M 431.0756 183.4 
L 440.4024 183.4 
L 440.4024 166.068 
L 431.0756 166.068 
z
" clip-path="url(#pd76e087ccf)" style="fill: #d3d3d3; stroke: #000000; stroke-linejoin: miter"/>
   </g>
   <g id="patch_41">
    <path d="M 440.4024 183.4 
L 449.7292 183.4 
L 449.7292 173.0008 
L 440.4024 173.0008 
z
" clip-path="url(#pd76e087ccf)" style="fill: #d3d3d3; stroke: #000000; stroke-linejoin: miter"/>
   </g>
   <g id="patch_42">
    <path d="M 449.7292 183.4 
L 459.056 183.4 
L 459.056 164.3348 
L 449.7292 164.3348 
z
" clip-path="url(#pd76e087ccf)" style="fill: #d3d3d3; stroke: #000000; stroke-linejoin: miter"/>
   </g>
   <g id="patch_43">
    <path d="M 459.056 183.4 
L 468.3828 183.4 
L 468.3828 174.734 
L 459.056 174.734 
z
" clip-path="url(#pd76e087ccf)" style="fill: #d3d3d3; stroke: #000000; stroke-linejoin: miter"/>
   </g>
   <g id="patch_44">
    <path d="M 468.3828 183.4 
L 477.7096 183.4 
L 477.7096 174.734 
L 468.3828 174.734 
z
" clip-path="url(#pd76e087ccf)" style="fill: #d3d3d3; stroke: #000000; stroke-linejoin: miter"/>
   </g>
   <g id="patch_45">
    <path d="M 477.7096 183.4 
L 487.0364 183.4 
L 487.0364 173.0008 
L 477.7096 173.0008 
z
" clip-path="url(#pd76e087ccf)" style="fill: #d3d3d3; stroke: #000000; stroke-linejoin: miter"/>
   </g>
   <g id="patch_46">
    <path d="M 487.0364 183.4 
L 496.3632 183.4 
L 496.3632 179.9336 
L 487.0364 179.9336 
z
" clip-path="url(#pd76e087ccf)" style="fill: #d3d3d3; stroke: #000000; stroke-linejoin: miter"/>
   </g>
   <g id="patch_47">
    <path d="M 496.3632 183.4 
L 505.69 183.4 
L 505.69 178.2004 
L 496.3632 178.2004 
z
" clip-path="url(#pd76e087ccf)" style="fill: #d3d3d3; stroke: #000000; stroke-linejoin: miter"/>
   </g>
   <g id="matplotlib.axis_3">
    <g id="xtick_6">
     <g id="line2d_19">
      <g>
       <use xlink:href="#m0edd67ea1e" x="319.154" y="183.4" style="stroke: #000000; stroke-width: 0.8"/>
      </g>
     </g>
     <g id="text_15">
      <text style="font-size: 10px; font-family: 'Times New Roman'; text-anchor: middle" x="319.154" y="197.34375" transform="rotate(-0 319.154 197.34375)">525</text>
     </g>
    </g>
    <g id="xtick_7">
     <g id="line2d_20">
      <g>
       <use xlink:href="#m0edd67ea1e" x="365.788" y="183.4" style="stroke: #000000; stroke-width: 0.8"/>
      </g>
     </g>
     <g id="text_16">
      <text style="font-size: 10px; font-family: 'Times New Roman'; text-anchor: middle" x="365.788" y="197.34375" transform="rotate(-0 365.788 197.34375)">999</text>
     </g>
    </g>
    <g id="xtick_8">
     <g id="line2d_21">
      <g>
       <use xlink:href="#m0edd67ea1e" x="412.422" y="183.4" style="stroke: #000000; stroke-width: 0.8"/>
      </g>
     </g>
     <g id="text_17">
      <text style="font-size: 10px; font-family: 'Times New Roman'; text-anchor: middle" x="412.422" y="197.34375" transform="rotate(-0 412.422 197.34375)">1472</text>
     </g>
    </g>
    <g id="xtick_9">
     <g id="line2d_22">
      <g>
       <use xlink:href="#m0edd67ea1e" x="459.056" y="183.4" style="stroke: #000000; stroke-width: 0.8"/>
      </g>
     </g>
     <g id="text_18">
      <text style="font-size: 10px; font-family: 'Times New Roman'; text-anchor: middle" x="459.056" y="197.34375" transform="rotate(-0 459.056 197.34375)">1945</text>
     </g>
    </g>
    <g id="xtick_10">
     <g id="line2d_23">
      <g>
       <use xlink:href="#m0edd67ea1e" x="505.69" y="183.4" style="stroke: #000000; stroke-width: 0.8"/>
      </g>
     </g>
     <g id="text_19">
      <text style="font-size: 10px; font-family: 'Times New Roman'; text-anchor: middle" x="505.69" y="197.34375" transform="rotate(-0 505.69 197.34375)">2418</text>
     </g>
    </g>
    <g id="text_20">
     <text style="font-size: 12px; font-family: 'Times New Roman'; text-anchor: middle" x="412.422" y="212.096563" transform="rotate(-0 412.422 212.096563)">Cost ($k)</text>
    </g>
   </g>
   <g id="matplotlib.axis_4">
    <g id="ytick_7">
     <g id="line2d_24">
      <path d="M 319.154 183.4 
L 505.69 183.4 
" clip-path="url(#pd76e087ccf)" style="fill: none; stroke: #000000; stroke-linecap: square"/>
     </g>
     <g id="line2d_25">
      <g>
       <use xlink:href="#m80fa02fcda" x="319.154" y="183.4" style="stroke: #000000; stroke-width: 0.8"/>
      </g>
     </g>
     <g id="text_21">
      <text style="font-size: 10px; font-family: 'Times New Roman'; text-anchor: end" x="312.154" y="186.871875" transform="rotate(-0 312.154 186.871875)">0.00</text>
     </g>
    </g>
    <g id="ytick_8">
     <g id="line2d_26">
      <path d="M 319.154 148.736 
L 505.69 148.736 
" clip-path="url(#pd76e087ccf)" style="fill: none; stroke: #000000; stroke-linecap: square"/>
     </g>
     <g id="line2d_27">
      <g>
       <use xlink:href="#m80fa02fcda" x="319.154" y="148.736" style="stroke: #000000; stroke-width: 0.8"/>
      </g>
     </g>
     <g id="text_22">
      <text style="font-size: 10px; font-family: 'Times New Roman'; text-anchor: end" x="312.154" y="152.207875" transform="rotate(-0 312.154 152.207875)">0.05</text>
     </g>
    </g>
    <g id="ytick_9">
     <g id="line2d_28">
      <path d="M 319.154 114.072 
L 505.69 114.072 
" clip-path="url(#pd76e087ccf)" style="fill: none; stroke: #000000; stroke-linecap: square"/>
     </g>
     <g id="line2d_29">
      <g>
       <use xlink:href="#m80fa02fcda" x="319.154" y="114.072" style="stroke: #000000; stroke-width: 0.8"/>
      </g>
     </g>
     <g id="text_23">
      <text style="font-size: 10px; font-family: 'Times New Roman'; text-anchor: end" x="312.154" y="117.543875" transform="rotate(-0 312.154 117.543875)">0.10</text>
     </g>
    </g>
    <g id="ytick_10">
     <g id="line2d_30">
      <path d="M 319.154 79.408 
L 505.69 79.408 
" clip-path="url(#pd76e087ccf)" style="fill: none; stroke: #000000; stroke-linecap: square"/>
     </g>
     <g id="line2d_31">
      <g>
       <use xlink:href="#m80fa02fcda" x="319.154" y="79.408" style="stroke: #000000; stroke-width: 0.8"/>
      </g>
     </g>
     <g id="text_24">
      <text style="font-size: 10px; font-family: 'Times New Roman'; text-anchor: end" x="312.154" y="82.879875" transform="rotate(-0 312.154 82.879875)">0.15</text>
     </g>
    </g>
    <g id="ytick_11">
     <g id="line2d_32">
      <path d="M 319.154 44.744 
L 505.69 44.744 
" clip-path="url(#pd76e087ccf)" style="fill: none; stroke: #000000; stroke-linecap: square"/>
     </g>
     <g id="line2d_33">
      <g>
       <use xlink:href="#m80fa02fcda" x="319.154" y="44.744" style="stroke: #000000; stroke-width: 0.8"/>
      </g>
     </g>
     <g id="text_25">
      <text style="font-size: 10px; font-family: 'Times New Roman'; text-anchor: end" x="312.154" y="48.215875" transform="rotate(-0 312.154 48.215875)">0.20</text>
     </g>
    </g>
    <g id="ytick_12">
     <g id="line2d_34">
      <path d="M 319.154 10.08 
L 505.69 10.08 
" clip-path="url(#pd76e087ccf)" style="fill: none; stroke: #000000; stroke-linecap: square"/>
     </g>
     <g id="line2d_35">
      <g>
       <use xlink:href="#m80fa02fcda" x="319.154" y="10.08" style="stroke: #000000; stroke-width: 0.8"/>
      </g>
     </g>
     <g id="text_26">
      <text style="font-size: 10px; font-family: 'Times New Roman'; text-anchor: end" x="312.154" y="13.551875" transform="rotate(-0 312.154 13.551875)">0.25</text>
     </g>
    </g>
    <g id="text_27">
     <text style="font-weight: 700; font-size: 12px; font-family: 'Times New Roman'; text-anchor: middle" x="288.064625" y="96.74" transform="rotate(-90 288.064625 96.74)">Relative Probability</text>
    </g>
   </g>
   <g id="line2d_36">
    <path d="M 444.72923 183.4 
L 444.72923 10.08 
" clip-path="url(#pd76e087ccf)" style="fill: none; stroke-dasharray: 7.4,3.2; stroke-dashoffset: 0; stroke: #ff0000; stroke-width: 2"/>
   </g>
   <g id="patch_48">
    <path d="M 319.154 183.4 
L 319.154 10.08 
" style="fill: none; stroke: #000000; stroke-width: 0.8; stroke-linejoin: miter; stroke-linecap: square"/>
   </g>
   <g id="patch_49">
    <path d="M 505.69 183.4 
L 505.69 10.08 
" style="fill: none; stroke: #000000; stroke-width: 0.8; stroke-linejoin: miter; stroke-linecap: square"/>
   </g>
   <g id="patch_50">
    <path d="M 319.154 183.4 
L 505.69 183.4 
" style="fill: none; stroke: #000000; stroke-width: 0.8; stroke-linejoin: miter; stroke-linecap: square"/>
   </g>
   <g id="patch_51">
    <path d="M 319.154 10.08 
L 505.69 10.08 
" style="fill: none; stroke: #000000; stroke-width: 0.8; stroke-linejoin: miter; stroke-linecap: square"/>
   </g>
   <g id="text_28">
    <text style="font-size: 10px; font-family: 'Times New Roman'; text-anchor: middle" x="444.72923" y="7.922188" transform="rotate(-0 444.72923 7.922188)">Target</text>
   </g>
  </g>
  <g id="axes_3">
   <g id="matplotlib.axis_5">
    <g id="ytick_13">
     <g id="line2d_37">
      <defs>
       <path id="mb976906239" d="M 0 0 
L 3.5 0 
" style="stroke: #000000; stroke-width: 0.8"/>
      </defs>
      <g>
       <use xlink:href="#mb976906239" x="225.886" y="183.4" style="stroke: #000000; stroke-width: 0.8"/>
      </g>
     </g>
     <g id="text_29">
      <text style="font-size: 10px; font-family: 'Times New Roman'; text-anchor: start" x="232.886" y="186.871875" transform="rotate(-0 232.886 186.871875)">0.0</text>
     </g>
    </g>
    <g id="ytick_14">
     <g id="line2d_38">
      <g>
       <use xlink:href="#mb976906239" x="225.886" y="148.736" style="stroke: #000000; stroke-width: 0.8"/>
      </g>
     </g>
     <g id="text_30">
      <text style="font-size: 10px; font-family: 'Times New Roman'; text-anchor: start" x="232.886" y="152.207875" transform="rotate(-0 232.886 152.207875)">0.2</text>
     </g>
    </g>
    <g id="ytick_15">
     <g id="line2d_39">
      <g>
       <use xlink:href="#mb976906239" x="225.886" y="114.072" style="stroke: #000000; stroke-width: 0.8"/>
      </g>
     </g>
     <g id="text_31">
      <text style="font-size: 10px; font-family: 'Times New Roman'; text-anchor: start" x="232.886" y="117.543875" transform="rotate(-0 232.886 117.543875)">0.4</text>
     </g>
    </g>
    <g id="ytick_16">
     <g id="line2d_40">
      <g>
       <use xlink:href="#mb976906239" x="225.886" y="79.408" style="stroke: #000000; stroke-width: 0.8"/>
      </g>
     </g>
     <g id="text_32">
      <text style="font-size: 10px; font-family: 'Times New Roman'; text-anchor: start" x="232.886" y="82.879875" transform="rotate(-0 232.886 82.879875)">0.6</text>
     </g>
    </g>
    <g id="ytick_17">
     <g id="line2d_41">
      <g>
       <use xlink:href="#mb976906239" x="225.886" y="44.744" style="stroke: #000000; stroke-width: 0.8"/>
      </g>
     </g>
     <g id="text_33">
      <text style="font-size: 10px; font-family: 'Times New Roman'; text-anchor: start" x="232.886" y="48.215875" transform="rotate(-0 232.886 48.215875)">0.8</text>
     </g>
    </g>
    <g id="ytick_18">
     <g id="line2d_42">
      <g>
       <use xlink:href="#mb976906239" x="225.886" y="10.08" style="stroke: #000000; stroke-width: 0.8"/>
      </g>
     </g>
     <g id="text_34">
      <text style="font-size: 10px; font-family: 'Times New Roman'; text-anchor: start" x="232.886" y="13.551875" transform="rotate(-0 232.886 13.551875)">1.0</text>
     </g>
    </g>
    <g id="text_35">
     <text style="font-weight: 700; font-size: 12px; font-family: 'Times New Roman'; text-anchor: middle; fill: #4169e1" x="257.51975" y="96.74" transform="rotate(-90 257.51975 96.74)">Cumulative Probability</text>
    </g>
   </g>
   <g id="line2d_43">
    <path d="M 39.35 183.4 
L 44.0134 181.6668 
L 53.3402 177.7671 
L 62.667 172.5675 
L 71.9938 157.8353 
L 81.3206 136.6036 
L 90.6474 114.072 
L 99.9742 90.6738 
L 109.301 72.4752 
L 118.6278 54.2766 
L 127.9546 41.7109 
L 137.2814 33.9115 
L 146.6082 26.9787 
L 155.935 23.5123 
L 165.2618 20.0459 
L 174.5886 18.3127 
L 183.9154 16.1462 
L 193.2422 14.413 
L 202.569 12.6798 
L 211.8958 11.8132 
L 221.2226 10.08 
L 225.886 10.08 
" clip-path="url(#pec87e2353b)" style="fill: none; stroke: #4169e1; stroke-width: 1.5; stroke-linecap: square"/>
   </g>
   <g id="patch_52">
    <path d="M 39.35 183.4 
L 39.35 10.08 
" style="fill: none; stroke: #000000; stroke-width: 0.8; stroke-linejoin: miter; stroke-linecap: square"/>
   </g>
   <g id="patch_53">
    <path d="M 225.886 183.4 
L 225.886 10.08 
" style="fill: none; stroke: #000000; stroke-width: 0.8; stroke-linejoin: miter; stroke-linecap: square"/>
   </g>
   <g id="patch_54">
    <path d="M 39.35 183.4 
L 225.886 183.4 
" style="fill: none; stroke: #000000; stroke-width: 0.8; stroke-linejoin: miter; stroke-linecap: square"/>
   </g>
   <g id="patch_55">
    <path d="M 39.35 10.08 
L 225.886 10.08 
" style="fill: none; stroke: #000000; stroke-width: 0.8; stroke-linejoin: miter; stroke-linecap: square"/>
   </g>
  </g>
  <g id="axes_4">
   <g id="matplotlib.axis_6">
    <g id="ytick_19">
     <g id="line2d_44">
      <g>
       <use xlink:href="#mb976906239" x="505.69" y="183.4" style="stroke: #000000; stroke-width: 0.8"/>
      </g>
     </g>
     <g id="text_36">
      <text style="font-size: 10px; font-family: 'Times New Roman'; text-anchor: start" x="512.69" y="186.871875" transform="rotate(-0 512.69 186.871875)">0.0</text>
     </g>
    </g>
    <g id="ytick_20">
     <g id="line2d_45">
      <g>
       <use xlink:href="#mb976906239" x="505.69" y="148.736" style="stroke: #000000; stroke-width: 0.8"/>
      </g>
     </g>
     <g id="text_37">
      <text style="font-size: 10px; font-family: 'Times New Roman'; text-anchor: start" x="512.69" y="152.207875" transform="rotate(-0 512.69 152.207875)">0.2</text>
     </g>
    </g>
    <g id="ytick_21">
     <g id="line2d_46">
      <g>
       <use xlink:href="#mb976906239" x="505.69" y="114.072" style="stroke: #000000; stroke-width: 0.8"/>
      </g>
     </g>
     <g id="text_38">
      <text style="font-size: 10px; font-family: 'Times New Roman'; text-anchor: start" x="512.69" y="117.543875" transform="rotate(-0 512.69 117.543875)">0.4</text>
     </g>
    </g>
    <g id="ytick_22">
     <g id="line2d_47">
      <g>
       <use xlink:href="#mb976906239" x="505.69" y="79.408" style="stroke: #000000; stroke-width: 0.8"/>
      </g>
     </g>
     <g id="text_39">
      <text style="font-size: 10px; font-family: 'Times New Roman'; text-anchor: start" x="512.69" y="82.879875" transform="rotate(-0 512.69 82.879875)">0.6</text>
     </g>
    </g>
    <g id="ytick_23">
     <g id="line2d_48">
      <g>
       <use xlink:href="#mb976906239" x="505.69" y="44.744" style="stroke: #000000; stroke-width: 0.8"/>
      </g>
     </g>
     <g id="text_40">
      <text style="font-size: 10px; font-family: 'Times New Roman'; text-anchor: start" x="512.69" y="48.215875" transform="rotate(-0 512.69 48.215875)">0.8</text>
     </g>
    </g>
    <g id="ytick_24">
     <g id="line2d_49">
      <g>
       <use xlink:href="#mb976906239" x="505.69" y="10.08" style="stroke: #000000; stroke-width: 0.8"/>
      </g>
     </g>
     <g id="text_41">
      <text style="font-size: 10px; font-family: 'Times New Roman'; text-anchor: start" x="512.69" y="13.551875" transform="rotate(-0 512.69 13.551875)">1.0</text>
     </g>
    </g>
    <g id="text_42">
     <text style="font-weight: 700; font-size: 12px; font-family: 'Times New Roman'; text-anchor: middle; fill: #4169e1" x="537.32375" y="96.74" transform="rotate(-90 537.32375 96.74)">Cumulative Probability</text>
    </g>
   </g>
   <g id="line2d_50">
    <path d="M 319.154 183.4 
L 323.8174 182.5334 
L 333.1442 179.9336 
L 342.471 175.6006 
L 351.7978 168.2345 
L 361.1246 151.3358 
L 370.4514 136.1703 
L 379.7782 107.1392 
L 389.105 90.2405 
L 398.4318 70.3087 
L 407.7586 56.4431 
L 417.0854 41.2776 
L 426.4122 30.8784 
L 435.739 26.5454 
L 445.0658 23.9456 
L 454.3926 19.1793 
L 463.7194 17.0128 
L 473.0462 14.8463 
L 482.373 12.2465 
L 491.6998 11.3799 
L 501.0266 10.08 
L 505.69 10.08 
" clip-path="url(#pd76e087ccf)" style="fill: none; stroke: #4169e1; stroke-width: 1.5; stroke-linecap: square"/>
   </g>
   <g id="patch_56">
    <path d="M 319.154 183.4 
L 319.154 10.08 
" style="fill: none; stroke: #000000; stroke-width: 0.8; stroke-linejoin: miter; stroke-linecap: square"/>
   </g>
   <g id="patch_57">
    <path d="M 505.69 183.4 
L 505.69 10.08 
" style="fill: none; stroke: #000000; stroke-width: 0.8; stroke-linejoin: miter; stroke-linecap: square"/>
   </g>
   <g id="patch_58">
    <path d="M 319.154 183.4 
L 505.69 183.4 
" style="fill: none; stroke: #000000; stroke-width: 0.8; stroke-linejoin: miter; stroke-linecap: square"/>
   </g>
   <g id="patch_59">
    <path d="M 319.154 10.08 
L 505.69 10.08 
" style="fill: none; stroke: #000000; stroke-width: 0.8; stroke-linejoin: miter; stroke-linecap: square"/>
   </g>
  </g>
 </g>
 <defs>
  <clipPath id="pec87e2353b">
   <rect x="39.35" y="10.08" width="186.536" height="173.32"/>
  </clipPath>
  <clipPath id="pd76e087ccf">
   <rect x="319.154" y="10.08" width="186.536" height="173.32"/>
  </clipPath>
 </defs>
</svg>
