<?xml version="1.0" encoding="utf-8" standalone="no"?>
<!DOCTYPE svg PUBLIC "-//W3C//DTD SVG 1.1//EN"
  "http://www.w3.org/Graphics/SVG/1.1/DTD/svg11.dtd">
<svg xmlns:xlink="http://www.w3.org/1999/xlink" width="540pt" height="129.6pt" viewBox="0 0 540 129.6" xmlns="http://www.w3.org/2000/svg" version="1.1">
 <metadata>
  <rdf:RDF xmlns:dc="http://purl.org/dc/elements/1.1/" xmlns:cc="http://creativecommons.org/ns#" xmlns:rdf="http://www.w3.org/1999/02/22-rdf-syntax-ns#">
   <cc:Work>
    <dc:type rdf:resource="http://purl.org/dc/dcmitype/StillImage"/>
    <dc:date>2025-04-07T01:30:22.401060</dc:date>
    <dc:format>image/svg+xml</dc:format>
    <dc:creator>
     <cc:Agent>
      <dc:title>Matplotlib v3.10.1, https://matplotlib.org/</dc:title>
     </cc:Agent>
    </dc:creator>
   </cc:Work>
  </rdf:RDF>
 </metadata>
 <defs>
  <style type="text/css">*{stroke-linejoin: round; stroke-linecap: butt}</style>
 </defs>
 <g id="figure_1">
  <g id="patch_1">
   <path d="M 0 129.6 
L 540 129.6 
L 540 0 
L 0 0 
z
" style="fill: #ffffff"/>
  </g>
  <g id="axes_1">
   <g id="patch_2">
    <path d="M 34.31 98.44 
L 540 98.44 
L 540 0 
L 34.31 0 
z
" style="fill: #ffffff"/>
   </g>
   <g id="matplotlib.axis_1">
    <g id="xtick_1">
     <g id="line2d_1">
      <path d="M 34.31 98.44 
L 34.31 0 
" clip-path="url(#pf44a5157c8)" style="fill: none; stroke: #b0b0b0; stroke-width: 0.8; stroke-linecap: square"/>
     </g>
     <g id="line2d_2">
      <defs>
       <path id="m0d7f4486ba" d="M 0 0 
L 0 3.5 
" style="stroke: #000000; stroke-width: 0.8"/>
      </defs>
      <g>
       <use xlink:href="#m0d7f4486ba" x="34.31" y="98.44" style="stroke: #000000; stroke-width: 0.8"/>
      </g>
     </g>
     <g id="text_1">
      <text style="font-size: 10px; font-family: 'Times New Roman'; text-anchor: middle" x="34.31" y="112.38375" transform="rotate(-0 34.31 112.38375)">0</text>
     </g>
    </g>
    <g id="xtick_2">
     <g id="line2d_3">
      <path d="M 94.662071 98.44 
L 94.662071 0 
" clip-path="url(#pf44a5157c8)" style="fill: none; stroke: #b0b0b0; stroke-width: 0.8; stroke-linecap: square"/>
     </g>
     <g id="line2d_4">
      <g>
       <use xlink:href="#m0d7f4486ba" x="94.662071" y="98.44" style="stroke: #000000; stroke-width: 0.8"/>
      </g>
     </g>
     <g id="text_2">
      <text style="font-size: 10px; font-family: 'Times New Roman'; text-anchor: middle" x="94.662071" y="112.38375" transform="rotate(-0 94.662071 112.38375)">50</text>
     </g>
    </g>
    <g id="xtick_3">
     <g id="line2d_5">
      <path d="M 155.014141 98.44 
L 155.014141 0 
" clip-path="url(#pf44a5157c8)" style="fill: none; stroke: #b0b0b0; stroke-width: 0.8; stroke-linecap: square"/>
     </g>
     <g id="line2d_6">
      <g>
       <use xlink:href="#m0d7f4486ba" x="155.014141" y="98.44" style="stroke: #000000; stroke-width: 0.8"/>
      </g>
     </g>
     <g id="text_3">
      <text style="font-size: 10px; font-family: 'Times New Roman'; text-anchor: middle" x="155.014141" y="112.38375" transform="rotate(-0 155.014141 112.38375)">100</text>
     </g>
    </g>
    <g id="xtick_4">
     <g id="line2d_7">
      <path d="M 215.366212 98.44 
L 215.366212 0 
" clip-path="url(#pf44a5157c8)" style="fill: none; stroke: #b0b0b0; stroke-width: 0.8; stroke-linecap: square"/>
     </g>
     <g id="line2d_8">
      <g>
       <use xlink:href="#m0d7f4486ba" x="215.366212" y="98.44" style="stroke: #000000; stroke-width: 0.8"/>
      </g>
     </g>
     <g id="text_4">
      <text style="font-size: 10px; font-family: 'Times New Roman'; text-anchor: middle" x="215.366212" y="112.38375" transform="rotate(-0 215.366212 112.38375)">150</text>
     </g>
    </g>
    <g id="xtick_5">
     <g id="line2d_9">
      <path d="M 275.718283 98.44 
L 275.718283 0 
" clip-path="url(#pf44a5157c8)" style="fill: none; stroke: #b0b0b0; stroke-width: 0.8; stroke-linecap: square"/>
     </g>
     <g id="line2d_10">
      <g>
       <use xlink:href="#m0d7f4486ba" x="275.718283" y="98.44" style="stroke: #000000; stroke-width: 0.8"/>
      </g>
     </g>
     <g id="text_5">
      <text style="font-size: 10px; font-family: 'Times New Roman'; text-anchor: middle" x="275.718283" y="112.38375" transform="rotate(-0 275.718283 112.38375)">200</text>
     </g>
    </g>
    <g id="xtick_6">
     <g id="line2d_11">
      <path d="M 336.070353 98.44 
L 336.070353 0 
" clip-path="url(#pf44a5157c8)" style="fill: none; stroke: #b0b0b0; stroke-width: 0.8; stroke-linecap: square"/>
     </g>
     <g id="line2d_12">
      <g>
       <use xlink:href="#m0d7f4486ba" x="336.070353" y="98.44" style="stroke: #000000; stroke-width: 0.8"/>
      </g>
     </g>
     <g id="text_6">
      <text style="font-size: 10px; font-family: 'Times New Roman'; text-anchor: middle" x="336.070353" y="112.38375" transform="rotate(-0 336.070353 112.38375)">250</text>
     </g>
    </g>
    <g id="xtick_7">
     <g id="line2d_13">
      <path d="M 396.422424 98.44 
L 396.422424 0 
" clip-path="url(#pf44a5157c8)" style="fill: none; stroke: #b0b0b0; stroke-width: 0.8; stroke-linecap: square"/>
     </g>
     <g id="line2d_14">
      <g>
       <use xlink:href="#m0d7f4486ba" x="396.422424" y="98.44" style="stroke: #000000; stroke-width: 0.8"/>
      </g>
     </g>
     <g id="text_7">
      <text style="font-size: 10px; font-family: 'Times New Roman'; text-anchor: middle" x="396.422424" y="112.38375" transform="rotate(-0 396.422424 112.38375)">300</text>
     </g>
    </g>
    <g id="xtick_8">
     <g id="line2d_15">
      <path d="M 456.774495 98.44 
L 456.774495 0 
" clip-path="url(#pf44a5157c8)" style="fill: none; stroke: #b0b0b0; stroke-width: 0.8; stroke-linecap: square"/>
     </g>
     <g id="line2d_16">
      <g>
       <use xlink:href="#m0d7f4486ba" x="456.774495" y="98.44" style="stroke: #000000; stroke-width: 0.8"/>
      </g>
     </g>
     <g id="text_8">
      <text style="font-size: 10px; font-family: 'Times New Roman'; text-anchor: middle" x="456.774495" y="112.38375" transform="rotate(-0 456.774495 112.38375)">350</text>
     </g>
    </g>
    <g id="xtick_9">
     <g id="line2d_17">
      <path d="M 517.126565 98.44 
L 517.126565 0 
" clip-path="url(#pf44a5157c8)" style="fill: none; stroke: #b0b0b0; stroke-width: 0.8; stroke-linecap: square"/>
     </g>
     <g id="line2d_18">
      <g>
       <use xlink:href="#m0d7f4486ba" x="517.126565" y="98.44" style="stroke: #000000; stroke-width: 0.8"/>
      </g>
     </g>
     <g id="text_9">
      <text style="font-size: 10px; font-family: 'Times New Roman'; text-anchor: middle" x="517.126565" y="112.38375" transform="rotate(-0 517.126565 112.38375)">400</text>
     </g>
    </g>
    <g id="text_10">
     <text style="font-size: 12px; font-family: 'Times New Roman'; text-anchor: middle" x="287.155" y="126.855312" transform="rotate(-0 287.155 126.855312)">Simulation Run</text>
    </g>
   </g>
   <g id="matplotlib.axis_2">
    <g id="ytick_1">
     <g id="line2d_19">
      <path d="M 34.31 98.44 
L 540 98.44 
" clip-path="url(#pf44a5157c8)" style="fill: none; stroke: #b0b0b0; stroke-width: 0.8; stroke-linecap: square"/>
     </g>
     <g id="line2d_20">
      <defs>
       <path id="mb312737383" d="M 0 0 
L -3.5 0 
" style="stroke: #000000; stroke-width: 0.8"/>
      </defs>
      <g>
       <use xlink:href="#mb312737383" x="34.31" y="98.44" style="stroke: #000000; stroke-width: 0.8"/>
      </g>
     </g>
     <g id="text_11">
      <text style="font-size: 10px; font-family: 'Times New Roman'; text-anchor: end" x="27.31" y="101.911875" transform="rotate(-0 27.31 101.911875)">0.0</text>
     </g>
    </g>
    <g id="ytick_2">
     <g id="line2d_21">
      <path d="M 34.31 72.534737 
L 540 72.534737 
" clip-path="url(#pf44a5157c8)" style="fill: none; stroke: #b0b0b0; stroke-width: 0.8; stroke-linecap: square"/>
     </g>
     <g id="line2d_22">
      <g>
       <use xlink:href="#mb312737383" x="34.31" y="72.534737" style="stroke: #000000; stroke-width: 0.8"/>
      </g>
     </g>
     <g id="text_12">
      <text style="font-size: 10px; font-family: 'Times New Roman'; text-anchor: end" x="27.31" y="76.006612" transform="rotate(-0 27.31 76.006612)">0.5</text>
     </g>
    </g>
    <g id="ytick_3">
     <g id="line2d_23">
      <path d="M 34.31 46.629474 
L 540 46.629474 
" clip-path="url(#pf44a5157c8)" style="fill: none; stroke: #b0b0b0; stroke-width: 0.8; stroke-linecap: square"/>
     </g>
     <g id="line2d_24">
      <g>
       <use xlink:href="#mb312737383" x="34.31" y="46.629474" style="stroke: #000000; stroke-width: 0.8"/>
      </g>
     </g>
     <g id="text_13">
      <text style="font-size: 10px; font-family: 'Times New Roman'; text-anchor: end" x="27.31" y="50.101349" transform="rotate(-0 27.31 50.101349)">1.0</text>
     </g>
    </g>
    <g id="ytick_4">
     <g id="line2d_25">
      <path d="M 34.31 20.724211 
L 540 20.724211 
" clip-path="url(#pf44a5157c8)" style="fill: none; stroke: #b0b0b0; stroke-width: 0.8; stroke-linecap: square"/>
     </g>
     <g id="line2d_26">
      <g>
       <use xlink:href="#mb312737383" x="34.31" y="20.724211" style="stroke: #000000; stroke-width: 0.8"/>
      </g>
     </g>
     <g id="text_14">
      <text style="font-size: 10px; font-family: 'Times New Roman'; text-anchor: end" x="27.31" y="24.196086" transform="rotate(-0 27.31 24.196086)">1.5</text>
     </g>
    </g>
    <g id="text_15">
     <text style="font-size: 12px; font-family: 'Times New Roman'; text-anchor: middle" x="8.243125" y="49.22" transform="rotate(-90 8.243125 49.22)">Normalized Value</text>
    </g>
   </g>
   <g id="line2d_27">
    <path d="M 34.31 34.347657 
L 35.517041 24.232799 
L 36.724083 34.279853 
L 37.931124 37.182503 
L 39.138166 36.896001 
L 40.345207 41.834874 
L 41.552248 41.191182 
L 42.75929 41.458044 
L 43.966331 43.333585 
L 45.173373 42.459833 
L 46.380414 40.613278 
L 47.587456 42.411798 
L 48.794497 42.533405 
L 50.001538 44.436842 
L 51.20858 45.38329 
L 52.415621 45.176818 
L 53.622663 45.406319 
L 54.829704 44.612651 
L 56.036745 44.327325 
L 57.243787 44.812927 
L 58.450828 45.816016 
L 59.65787 45.885227 
L 60.864911 45.446408 
L 62.071953 46.130404 
L 63.278994 46.054666 
L 64.486035 46.465385 
L 65.693077 46.260375 
L 66.900118 45.638201 
L 68.10716 45.260505 
L 69.314201 45.698108 
L 72.935325 46.640765 
L 74.142367 46.459202 
L 75.349408 46.111961 
L 76.556449 46.083882 
L 77.763491 45.798042 
L 78.970532 45.669993 
L 80.177574 46.109575 
L 81.384615 45.483559 
L 82.591657 45.379349 
L 86.212781 45.960441 
L 87.419822 45.713511 
L 89.833905 45.79755 
L 91.040946 45.400507 
L 92.247988 45.494189 
L 94.662071 44.950693 
L 95.869112 44.946409 
L 97.076153 44.747187 
L 98.283195 45.175244 
L 99.490236 44.967904 
L 106.732485 45.550123 
L 107.939526 45.478109 
L 109.146568 45.824805 
L 112.767692 45.860479 
L 113.974733 45.681308 
L 116.388816 46.308973 
L 117.595858 46.317134 
L 118.802899 46.012739 
L 120.00994 45.86574 
L 121.216982 45.881435 
L 122.424023 45.329201 
L 123.631065 45.337854 
L 126.045147 45.624752 
L 129.666272 45.896758 
L 130.873313 45.751604 
L 132.080354 46.095943 
L 133.287396 46.094441 
L 135.701479 46.3077 
L 136.90852 46.125817 
L 139.322603 46.074958 
L 140.529644 46.313631 
L 141.736686 46.302996 
L 142.943727 46.41714 
L 145.35781 46.393439 
L 146.564851 46.572989 
L 148.978934 46.630772 
L 150.185976 46.892655 
L 151.393017 46.81195 
L 155.014141 47.05787 
L 156.221183 46.776748 
L 158.635266 46.787514 
L 161.049348 46.673094 
L 163.463431 46.634178 
L 165.877514 46.683496 
L 167.084555 46.466122 
L 169.498638 46.439431 
L 170.70568 46.498457 
L 173.119763 46.390991 
L 177.947928 46.642785 
L 181.569052 46.524873 
L 182.776094 46.701897 
L 185.190177 46.685058 
L 187.604259 46.607776 
L 190.018342 46.527093 
L 191.225384 46.418278 
L 197.260591 46.681749 
L 199.674674 46.833111 
L 202.088756 46.892053 
L 203.295798 46.704252 
L 204.502839 46.653937 
L 206.916922 46.694221 
L 208.123963 46.684668 
L 210.538046 46.234524 
L 212.952129 46.364921 
L 215.366212 46.259989 
L 220.194378 46.437567 
L 222.60846 46.588195 
L 223.815502 46.48692 
L 226.229585 46.56508 
L 227.436626 46.484274 
L 235.885916 46.688548 
L 256.40562 46.79756 
L 257.612661 46.747991 
L 261.233786 46.994506 
L 263.647868 47.0575 
L 268.476034 47.197825 
L 269.683076 47.024807 
L 272.097158 47.076833 
L 275.718283 46.989166 
L 279.339407 47.128921 
L 282.960531 47.232941 
L 287.788697 47.374382 
L 290.20278 47.481655 
L 304.687277 47.401186 
L 307.101359 47.368544 
L 313.136566 47.423917 
L 314.343608 47.351636 
L 316.757691 47.43761 
L 317.964732 47.357625 
L 320.378815 47.411903 
L 322.792898 47.295959 
L 326.414022 47.353181 
L 327.621063 47.170316 
L 331.242188 47.19329 
L 333.65627 47.059724 
L 337.277395 46.9714 
L 342.10556 47.050031 
L 354.175974 47.087975 
L 355.383016 47.159553 
L 357.797099 47.11812 
L 362.625264 47.217898 
L 365.039347 47.10098 
L 377.109761 46.993342 
L 380.730886 46.931703 
L 384.35201 46.94968 
L 386.766093 46.824259 
L 392.8013 46.826666 
L 394.008341 46.737451 
L 396.422424 46.800391 
L 422.977335 46.829497 
L 426.598459 46.874779 
L 431.426625 46.733292 
L 433.840708 46.738325 
L 436.254791 46.690515 
L 449.532246 46.581241 
L 456.774495 46.438305 
L 459.188577 46.528126 
L 462.809702 46.309002 
L 465.223784 46.346759 
L 470.05195 46.335005 
L 489.364613 46.428063 
L 491.778696 46.428403 
L 505.056151 46.565842 
L 509.884317 46.549799 
L 515.919524 46.629474 
L 515.919524 46.629474 
" clip-path="url(#pf44a5157c8)" style="fill: none; stroke: #4169e1; stroke-width: 1.5; stroke-linecap: square"/>
   </g>
   <g id="line2d_28">
    <path d="M 34.31 98.44 
L 35.517041 64.894821 
L 36.724083 9.882646 
L 39.138166 38.567971 
L 40.345207 8.55805 
L 41.552248 20.583215 
L 42.75929 30.151864 
L 43.966331 28.512575 
L 45.173373 33.252481 
L 46.380414 27.998801 
L 47.587456 22.202588 
L 48.794497 28.00882 
L 50.001538 17.596641 
L 51.20858 18.874401 
L 52.415621 23.637588 
L 53.622663 27.761417 
L 54.829704 28.176953 
L 56.036745 31.394539 
L 57.243787 33.277801 
L 58.450828 29.782653 
L 59.65787 32.87046 
L 60.864911 34.332307 
L 62.071953 33.47533 
L 63.278994 36.028778 
L 64.486035 37.046468 
L 65.693077 38.962013 
L 66.900118 37.659348 
L 68.10716 38.445587 
L 69.314201 38.624571 
L 70.521242 39.646965 
L 71.728284 40.962769 
L 72.935325 40.919497 
L 74.142367 42.254595 
L 75.349408 42.515731 
L 76.556449 44.060135 
L 77.763491 44.565456 
L 78.970532 45.784294 
L 80.177574 44.726901 
L 81.384615 41.058489 
L 82.591657 42.315611 
L 85.005739 43.879168 
L 86.212781 44.625725 
L 87.419822 44.941948 
L 89.833905 47.157228 
L 91.040946 45.796313 
L 92.247988 46.732551 
L 93.455029 46.938015 
L 94.662071 46.306857 
L 95.869112 47.309111 
L 97.076153 47.597157 
L 98.283195 45.354567 
L 99.490236 45.558607 
L 100.697278 46.306846 
L 101.904319 47.221449 
L 103.111361 47.295103 
L 105.525443 48.80294 
L 106.732485 49.295554 
L 107.939526 49.984484 
L 109.146568 48.310189 
L 111.56065 49.755049 
L 112.767692 50.435812 
L 113.974733 50.457604 
L 115.181775 48.810386 
L 116.388816 47.517745 
L 117.595858 48.243699 
L 118.802899 46.824091 
L 120.00994 47.037948 
L 121.216982 47.73627 
L 122.424023 41.122173 
L 123.631065 41.884594 
L 124.838106 41.723298 
L 129.666272 43.705495 
L 130.873313 43.828565 
L 132.080354 41.345591 
L 133.287396 42.033415 
L 134.494437 42.279009 
L 135.701479 42.725684 
L 136.90852 42.451556 
L 139.322603 43.676488 
L 140.529644 42.648195 
L 141.736686 43.264803 
L 142.943727 43.486656 
L 145.35781 44.529603 
L 146.564851 44.120088 
L 148.978934 45.195382 
L 150.185976 43.585573 
L 155.014141 44.896905 
L 156.221183 42.804724 
L 158.635266 43.751355 
L 159.842307 43.975743 
L 162.25639 44.965374 
L 165.877514 46.136502 
L 167.084555 44.903527 
L 171.912721 46.330335 
L 174.326804 46.921272 
L 175.533845 46.521406 
L 176.740887 46.820031 
L 179.15497 47.131264 
L 181.569052 47.926002 
L 182.776094 47.069575 
L 185.190177 47.681557 
L 186.397218 47.732475 
L 188.811301 48.509428 
L 190.018342 48.596554 
L 191.225384 48.472341 
L 192.432425 48.787734 
L 193.639467 48.946254 
L 194.846508 49.273625 
L 196.053549 49.413366 
L 198.467632 48.980828 
L 202.088756 49.838842 
L 203.295798 48.564586 
L 204.502839 48.798783 
L 205.709881 48.908888 
L 208.123963 49.542822 
L 209.331005 48.192974 
L 210.538046 45.251399 
L 211.745088 45.17076 
L 212.952129 45.46934 
L 214.159171 45.540335 
L 217.780295 46.484501 
L 220.194378 46.712892 
L 221.401419 46.269 
L 222.60846 46.563735 
L 223.815502 46.364091 
L 226.229585 46.852896 
L 227.436626 46.830763 
L 229.850709 47.366776 
L 231.05775 47.677587 
L 232.264792 47.779388 
L 233.471833 48.079701 
L 234.678875 47.589242 
L 241.921123 49.225119 
L 243.128164 49.218214 
L 245.542247 49.613805 
L 246.749289 49.669311 
L 249.163372 49.261599 
L 252.784496 49.233 
L 253.991537 49.082766 
L 255.198579 48.733251 
L 257.612661 48.977167 
L 258.819703 48.7415 
L 260.026744 48.712652 
L 261.233786 48.511343 
L 262.440827 48.765371 
L 263.647868 48.676144 
L 264.85491 48.718779 
L 266.061951 48.376501 
L 267.268993 48.462972 
L 268.476034 48.423663 
L 269.683076 46.764899 
L 275.718283 47.609532 
L 278.132365 48.082181 
L 279.339407 47.502017 
L 280.546448 47.480148 
L 281.75349 47.710033 
L 282.960531 47.73891 
L 284.167573 47.965171 
L 285.374614 47.949449 
L 286.581655 48.189873 
L 287.788697 48.149087 
L 288.995738 47.925374 
L 293.823904 48.613666 
L 297.445028 48.848146 
L 298.652069 49.073351 
L 301.066152 49.117519 
L 303.480235 49.398992 
L 304.687277 48.243594 
L 305.894318 48.194079 
L 308.308401 48.557257 
L 309.515442 48.251938 
L 313.136566 48.686545 
L 315.550649 48.209528 
L 316.757691 48.42169 
L 317.964732 48.140687 
L 319.171773 48.104459 
L 320.378815 48.31551 
L 321.585856 47.771091 
L 322.792898 47.957834 
L 325.206981 48.017697 
L 326.414022 48.11458 
L 327.621063 45.656558 
L 331.242188 46.06382 
L 332.449229 45.415589 
L 333.65627 45.552641 
L 334.863312 45.49296 
L 336.070353 45.578911 
L 337.277395 45.782919 
L 339.691478 46.03457 
L 340.898519 46.230182 
L 342.10556 46.261437 
L 343.312602 46.464048 
L 345.726685 46.270177 
L 349.347809 46.607877 
L 350.55485 46.204846 
L 354.175974 46.642624 
L 355.383016 46.389782 
L 356.590057 46.377221 
L 359.00414 46.69481 
L 362.625264 47.070706 
L 363.832306 46.419693 
L 372.281596 47.391832 
L 381.937927 48.121593 
L 384.35201 47.950766 
L 385.559051 47.519806 
L 386.766093 47.492195 
L 390.387217 47.891676 
L 391.594258 47.120507 
L 392.8013 47.10586 
L 395.215383 45.931909 
L 402.457631 46.620257 
L 403.664672 46.606799 
L 404.871714 46.169478 
L 412.113962 47.106396 
L 413.321004 47.092271 
L 414.528045 47.247618 
L 415.735087 47.142696 
L 419.356211 47.397761 
L 421.770294 47.466993 
L 422.977335 47.617508 
L 424.184376 47.64439 
L 426.598459 47.948626 
L 429.012542 47.510107 
L 430.219583 47.627201 
L 433.840708 47.485815 
L 435.047749 47.16749 
L 438.668873 47.47015 
L 445.911122 47.606328 
L 447.118163 46.894988 
L 448.325205 46.902729 
L 449.532246 47.051706 
L 450.739288 47.047014 
L 455.567453 47.510634 
L 456.774495 47.324742 
L 457.981536 47.005143 
L 459.188577 47.07121 
L 460.395619 46.059366 
L 461.60266 46.202465 
L 462.809702 44.864264 
L 464.016743 44.595608 
L 467.637867 44.905545 
L 468.844909 44.773481 
L 477.294199 45.523536 
L 479.708281 45.7094 
L 480.915323 45.836798 
L 482.122364 45.815859 
L 484.536447 46.036688 
L 485.743488 45.937846 
L 490.571654 46.283327 
L 491.778696 46.2464 
L 492.985737 46.329779 
L 494.192778 46.03638 
L 496.606861 46.242211 
L 500.227985 46.493218 
L 501.435027 46.623937 
L 503.84911 46.497644 
L 506.263193 46.676169 
L 507.470234 46.672949 
L 508.677275 46.804331 
L 509.884317 46.711438 
L 512.2984 46.873684 
L 513.505441 46.67499 
L 514.712482 46.75441 
L 515.919524 46.629474 
L 515.919524 46.629474 
" clip-path="url(#pf44a5157c8)" style="fill: none; stroke-dasharray: 5.55,2.4; stroke-dashoffset: 0; stroke: #4169e1; stroke-width: 1.5"/>
   </g>
   <g id="line2d_29">
    <path d="M 34.31 35.282546 
L 35.517041 30.876643 
L 36.724083 38.008484 
L 37.931124 39.405005 
L 39.138166 39.896023 
L 40.345207 43.803975 
L 41.552248 42.569386 
L 42.75929 42.371015 
L 43.966331 43.652218 
L 45.173373 43.008803 
L 46.380414 41.344921 
L 47.587456 42.934514 
L 48.794497 42.865451 
L 50.001538 44.415455 
L 51.20858 45.389589 
L 52.415621 45.247495 
L 54.829704 45.304068 
L 57.243787 45.957889 
L 58.450828 46.809333 
L 59.65787 47.02152 
L 60.864911 46.628217 
L 62.071953 47.26077 
L 63.278994 47.165195 
L 64.486035 47.448682 
L 65.693077 47.140174 
L 66.900118 46.549421 
L 68.10716 46.301942 
L 70.521242 47.076669 
L 71.728284 47.218221 
L 72.935325 47.477556 
L 74.142367 47.290276 
L 75.349408 46.791507 
L 76.556449 46.796132 
L 77.763491 46.45361 
L 78.970532 46.316184 
L 80.177574 46.600688 
L 81.384615 46.198472 
L 82.591657 46.038714 
L 86.212781 46.406073 
L 87.419822 46.132067 
L 88.626864 46.040374 
L 89.833905 46.064496 
L 91.040946 45.709331 
L 92.247988 45.74372 
L 95.869112 45.400127 
L 97.076153 45.246447 
L 98.283195 45.579317 
L 99.490236 45.438889 
L 104.318402 45.623242 
L 106.732485 45.739983 
L 107.939526 45.713177 
L 109.146568 45.990961 
L 112.767692 46.000169 
L 113.974733 45.873479 
L 116.388816 46.41065 
L 117.595858 46.444541 
L 120.00994 46.08002 
L 121.216982 46.06833 
L 122.424023 45.643295 
L 127.252189 45.888205 
L 129.666272 46.009436 
L 130.873313 45.90575 
L 132.080354 46.203159 
L 133.287396 46.190043 
L 135.701479 46.366146 
L 138.115562 46.177735 
L 139.322603 46.166971 
L 140.529644 46.390827 
L 141.736686 46.349577 
L 142.943727 46.43099 
L 144.150769 46.324044 
L 151.393017 46.751907 
L 155.014141 46.888713 
L 156.221183 46.657467 
L 158.635266 46.671066 
L 161.049348 46.582108 
L 163.463431 46.587764 
L 167.084555 46.485207 
L 169.498638 46.478448 
L 171.912721 46.517666 
L 174.326804 46.496252 
L 175.533845 46.639302 
L 176.740887 46.598269 
L 179.15497 46.64115 
L 181.569052 46.491989 
L 183.983135 46.684986 
L 187.604259 46.608984 
L 190.018342 46.545148 
L 191.225384 46.457021 
L 203.295798 46.737902 
L 204.502839 46.677745 
L 206.916922 46.735045 
L 208.123963 46.719944 
L 210.538046 46.384518 
L 212.952129 46.464555 
L 216.573253 46.352924 
L 218.987336 46.394499 
L 223.815502 46.529978 
L 227.436626 46.486068 
L 247.95633 46.722415 
L 249.163372 46.815935 
L 251.577454 46.736341 
L 252.784496 46.813165 
L 257.612661 46.7585 
L 266.061951 47.283392 
L 268.476034 47.286775 
L 269.683076 47.162681 
L 273.3042 47.202592 
L 276.925324 47.149425 
L 279.339407 47.260931 
L 282.960531 47.330439 
L 287.788697 47.447225 
L 291.409821 47.516165 
L 293.823904 47.515241 
L 303.480235 47.582439 
L 305.894318 47.432265 
L 313.136566 47.462338 
L 314.343608 47.39427 
L 316.757691 47.444401 
L 319.171773 47.431255 
L 326.414022 47.403915 
L 327.621063 47.264465 
L 331.242188 47.291404 
L 336.070353 47.137916 
L 349.347809 47.213192 
L 351.761892 47.250684 
L 354.175974 47.236983 
L 355.383016 47.308488 
L 357.797099 47.242751 
L 362.625264 47.2759 
L 365.039347 47.203831 
L 387.973134 46.990201 
L 392.8013 46.972774 
L 394.008341 46.893254 
L 396.422424 46.940839 
L 412.113962 46.930576 
L 415.735087 46.893767 
L 420.563252 46.938139 
L 427.805501 46.947102 
L 431.426625 46.894254 
L 433.840708 46.894655 
L 436.254791 46.846371 
L 447.118163 46.774298 
L 456.774495 46.58878 
L 459.188577 46.661063 
L 462.809702 46.484792 
L 465.223784 46.519082 
L 472.466033 46.47432 
L 476.087157 46.461743 
L 489.364613 46.50093 
L 492.985737 46.497391 
L 495.39982 46.522926 
L 501.435027 46.531867 
L 505.056151 46.601439 
L 512.2984 46.569693 
L 515.919524 46.629474 
L 515.919524 46.629474 
" clip-path="url(#pf44a5157c8)" style="fill: none; stroke: #ff8c00; stroke-width: 1.5; stroke-linecap: square"/>
   </g>
   <g id="line2d_30">
    <path d="M 34.31 98.44 
L 35.517041 89.040405 
L 36.724083 42.916072 
L 37.931124 53.963998 
L 39.138166 62.392222 
L 40.345207 31.425235 
L 41.552248 36.570489 
L 42.75929 44.170797 
L 43.966331 43.842053 
L 45.173373 47.497736 
L 47.587456 30.240961 
L 48.794497 35.459326 
L 50.001538 24.834593 
L 51.20858 23.308751 
L 53.622663 31.994494 
L 54.829704 35.684671 
L 56.036745 38.206786 
L 57.243787 40.062165 
L 58.450828 35.821338 
L 59.65787 38.209818 
L 60.864911 39.180672 
L 62.071953 37.193643 
L 63.278994 39.537342 
L 64.486035 40.829982 
L 65.693077 41.765446 
L 66.900118 39.226901 
L 68.10716 40.438362 
L 69.314201 39.592811 
L 70.521242 39.910428 
L 71.728284 41.438707 
L 72.935325 42.123915 
L 74.142367 43.219819 
L 75.349408 40.701953 
L 76.556449 42.305425 
L 77.763491 41.777456 
L 78.970532 42.930215 
L 80.177574 42.864186 
L 81.384615 41.198508 
L 82.591657 42.100302 
L 85.005739 44.197699 
L 86.212781 45.034873 
L 87.419822 44.622055 
L 89.833905 46.719916 
L 91.040946 44.926661 
L 92.247988 45.991283 
L 93.455029 46.880965 
L 94.662071 47.214194 
L 95.869112 47.979495 
L 97.076153 48.336905 
L 98.283195 46.421168 
L 99.490236 46.851336 
L 101.904319 48.638107 
L 103.111361 49.176421 
L 107.939526 51.984181 
L 109.146568 50.405015 
L 112.767692 52.575998 
L 113.974733 52.747595 
L 115.181775 50.663723 
L 116.388816 49.368106 
L 117.595858 50.030756 
L 118.802899 49.334044 
L 120.00994 49.104301 
L 121.216982 49.775368 
L 122.424023 44.047269 
L 123.631065 44.726635 
L 124.838106 44.979206 
L 126.045147 45.661458 
L 128.45923 46.570665 
L 129.666272 47.126462 
L 130.873313 47.343506 
L 132.080354 44.497421 
L 133.287396 45.140501 
L 134.494437 45.370405 
L 135.701479 45.761263 
L 136.90852 45.591493 
L 139.322603 46.682542 
L 140.529644 45.12878 
L 141.736686 45.647798 
L 142.943727 45.939085 
L 144.150769 46.005773 
L 145.35781 46.235218 
L 146.564851 45.434626 
L 148.978934 46.527904 
L 150.185976 44.190509 
L 151.393017 44.453144 
L 153.8071 45.512375 
L 155.014141 45.449152 
L 156.221183 43.353466 
L 161.049348 45.079187 
L 163.463431 45.839514 
L 165.877514 46.708368 
L 167.084555 46.069879 
L 169.498638 46.851182 
L 170.70568 47.034744 
L 174.326804 48.177649 
L 175.533845 47.444281 
L 176.740887 47.776613 
L 177.947928 47.89404 
L 179.15497 48.260017 
L 181.569052 48.422897 
L 182.776094 47.563796 
L 186.397218 48.406766 
L 188.811301 49.166561 
L 191.225384 49.050889 
L 192.432425 49.332853 
L 193.639467 49.225588 
L 194.846508 49.293234 
L 196.053549 49.474416 
L 197.260591 49.082796 
L 198.467632 49.048718 
L 200.881715 49.672037 
L 202.088756 49.530081 
L 203.295798 48.680103 
L 205.709881 48.832663 
L 208.123963 49.495992 
L 209.331005 47.95614 
L 210.538046 46.207965 
L 211.745088 46.289472 
L 212.952129 46.615509 
L 215.366212 46.720774 
L 217.780295 47.328687 
L 220.194378 47.404134 
L 221.401419 47.146675 
L 226.229585 48.242186 
L 227.436626 48.036049 
L 231.05775 48.913944 
L 233.471833 49.402681 
L 234.678875 48.941996 
L 240.714082 50.179574 
L 241.921123 50.399615 
L 243.128164 50.258182 
L 246.749289 50.85277 
L 247.95633 50.671297 
L 249.163372 50.184334 
L 251.577454 50.440739 
L 252.784496 50.187212 
L 253.991537 50.307777 
L 255.198579 50.159661 
L 257.612661 50.376579 
L 258.819703 49.990946 
L 260.026744 49.825606 
L 261.233786 49.396221 
L 262.440827 49.498367 
L 263.647868 49.087678 
L 264.85491 48.911238 
L 266.061951 48.409249 
L 268.476034 48.752512 
L 269.683076 47.551986 
L 272.097158 47.979763 
L 273.3042 48.221987 
L 274.511241 48.329858 
L 278.132365 49.036075 
L 279.339407 48.346296 
L 280.546448 48.355981 
L 284.167573 48.98639 
L 285.374614 48.928978 
L 286.581655 49.147147 
L 288.995738 49.105347 
L 291.409821 49.545703 
L 293.823904 49.699772 
L 298.652069 50.499901 
L 299.859111 50.369284 
L 301.066152 50.365319 
L 303.480235 50.631915 
L 304.687277 49.896321 
L 305.894318 49.761095 
L 308.308401 50.135193 
L 309.515442 50.011717 
L 311.929525 50.331473 
L 313.136566 50.33055 
L 314.343608 50.016524 
L 315.550649 49.537355 
L 316.757691 49.65756 
L 317.964732 49.550436 
L 319.171773 49.579593 
L 320.378815 49.784406 
L 321.585856 49.294661 
L 322.792898 49.499376 
L 325.206981 49.500108 
L 326.414022 49.595417 
L 327.621063 47.507468 
L 328.828105 47.65532 
L 331.242188 47.749144 
L 332.449229 47.45071 
L 342.10556 48.449697 
L 343.312602 48.64377 
L 344.519643 48.457498 
L 345.726685 48.013699 
L 348.140767 48.106343 
L 349.347809 48.271697 
L 350.55485 48.008342 
L 354.175974 48.456184 
L 355.383016 47.984831 
L 356.590057 47.745383 
L 362.625264 48.532049 
L 363.832306 47.979013 
L 369.867513 48.815426 
L 371.074554 48.848203 
L 372.281596 49.020251 
L 373.488637 48.795269 
L 377.109761 49.21177 
L 378.316803 49.136326 
L 381.937927 49.505233 
L 385.559051 49.456286 
L 386.766093 49.316056 
L 389.180175 49.525707 
L 390.387217 49.675831 
L 391.594258 49.252646 
L 392.8013 49.3609 
L 395.215383 47.90894 
L 396.422424 47.946757 
L 397.629465 48.110139 
L 398.836507 48.092736 
L 401.25059 48.363334 
L 403.664672 48.368731 
L 404.871714 47.991561 
L 410.906921 48.746372 
L 412.113962 48.820705 
L 413.321004 48.674595 
L 416.942128 48.766375 
L 419.356211 49.041862 
L 420.563252 48.809708 
L 427.805501 49.385653 
L 429.012542 49.164758 
L 431.426625 49.223188 
L 433.840708 49.09812 
L 435.047749 48.683987 
L 437.461832 48.961988 
L 438.668873 48.841624 
L 445.911122 48.829004 
L 447.118163 48.187135 
L 448.325205 48.128809 
L 449.532246 48.274627 
L 450.739288 48.14124 
L 455.567453 48.490977 
L 457.981536 47.930564 
L 459.188577 48.004267 
L 460.395619 47.107118 
L 461.60266 47.247324 
L 462.809702 45.897338 
L 464.016743 45.5507 
L 467.637867 45.904107 
L 468.844909 45.557212 
L 484.536447 46.757231 
L 485.743488 46.549977 
L 490.571654 46.804556 
L 492.985737 46.961327 
L 494.192778 46.795281 
L 501.435027 47.367313 
L 503.84911 46.918354 
L 506.263193 47.068109 
L 507.470234 46.93333 
L 509.884317 47.087227 
L 512.2984 47.123499 
L 513.505441 46.775074 
L 514.712482 46.764059 
L 515.919524 46.629474 
L 515.919524 46.629474 
" clip-path="url(#pf44a5157c8)" style="fill: none; stroke-dasharray: 5.55,2.4; stroke-dashoffset: 0; stroke: #ff8c00; stroke-width: 1.5"/>
   </g>
   <g id="patch_3">
    <path d="M 34.31 98.44 
L 34.31 0 
" style="fill: none; stroke: #000000; stroke-width: 0.8; stroke-linejoin: miter; stroke-linecap: square"/>
   </g>
   <g id="patch_4">
    <path d="M 540 98.44 
L 540 0 
" style="fill: none; stroke: #000000; stroke-width: 0.8; stroke-linejoin: miter; stroke-linecap: square"/>
   </g>
   <g id="patch_5">
    <path d="M 34.31 98.44 
L 540 98.44 
" style="fill: none; stroke: #000000; stroke-width: 0.8; stroke-linejoin: miter; stroke-linecap: square"/>
   </g>
   <g id="patch_6">
    <path d="M 34.31 0 
L 540 0 
" style="fill: none; stroke: #000000; stroke-width: 0.8; stroke-linejoin: miter; stroke-linecap: square"/>
   </g>
  </g>
 </g>
 <defs>
  <clipPath id="pf44a5157c8">
   <rect x="34.31" y="0" width="505.69" height="98.44"/>
  </clipPath>
 </defs>
</svg>
