<?xml version="1.0" encoding="utf-8" standalone="no"?>
<!DOCTYPE svg PUBLIC "-//W3C//DTD SVG 1.1//EN"
  "http://www.w3.org/Graphics/SVG/1.1/DTD/svg11.dtd">
<svg xmlns:xlink="http://www.w3.org/1999/xlink" width="540pt" height="129.6pt" viewBox="0 0 540 129.6" xmlns="http://www.w3.org/2000/svg" version="1.1">
 <metadata>
  <rdf:RDF xmlns:dc="http://purl.org/dc/elements/1.1/" xmlns:cc="http://creativecommons.org/ns#" xmlns:rdf="http://www.w3.org/1999/02/22-rdf-syntax-ns#">
   <cc:Work>
    <dc:type rdf:resource="http://purl.org/dc/dcmitype/StillImage"/>
    <dc:date>2025-04-05T06:43:52.214544</dc:date>
    <dc:format>image/svg+xml</dc:format>
    <dc:creator>
     <cc:Agent>
      <dc:title>Matplotlib v3.10.1, https://matplotlib.org/</dc:title>
     </cc:Agent>
    </dc:creator>
   </cc:Work>
  </rdf:RDF>
 </metadata>
 <defs>
  <style type="text/css">*{stroke-linejoin: round; stroke-linecap: butt}</style>
 </defs>
 <g id="figure_1">
  <g id="patch_1">
   <path d="M 0 129.6 
L 540 129.6 
L 540 0 
L 0 0 
z
" style="fill: #ffffff"/>
  </g>
  <g id="axes_1">
   <g id="patch_2">
    <path d="M 34.31 98.44 
L 540 98.44 
L 540 0 
L 34.31 0 
z
" style="fill: #ffffff"/>
   </g>
   <g id="matplotlib.axis_1">
    <g id="xtick_1">
     <g id="line2d_1">
      <path d="M 34.31 98.44 
L 34.31 0 
" clip-path="url(#p06cb949abd)" style="fill: none; stroke: #b0b0b0; stroke-width: 0.8; stroke-linecap: square"/>
     </g>
     <g id="line2d_2">
      <defs>
       <path id="mb0ea7ee071" d="M 0 0 
L 0 3.5 
" style="stroke: #000000; stroke-width: 0.8"/>
      </defs>
      <g>
       <use xlink:href="#mb0ea7ee071" x="34.31" y="98.44" style="stroke: #000000; stroke-width: 0.8"/>
      </g>
     </g>
     <g id="text_1">
      <text style="font-size: 10px; font-family: 'Times New Roman'; text-anchor: middle" x="34.31" y="112.38375" transform="rotate(-0 34.31 112.38375)">0</text>
     </g>
    </g>
    <g id="xtick_2">
     <g id="line2d_3">
      <path d="M 94.662071 98.44 
L 94.662071 0 
" clip-path="url(#p06cb949abd)" style="fill: none; stroke: #b0b0b0; stroke-width: 0.8; stroke-linecap: square"/>
     </g>
     <g id="line2d_4">
      <g>
       <use xlink:href="#mb0ea7ee071" x="94.662071" y="98.44" style="stroke: #000000; stroke-width: 0.8"/>
      </g>
     </g>
     <g id="text_2">
      <text style="font-size: 10px; font-family: 'Times New Roman'; text-anchor: middle" x="94.662071" y="112.38375" transform="rotate(-0 94.662071 112.38375)">50</text>
     </g>
    </g>
    <g id="xtick_3">
     <g id="line2d_5">
      <path d="M 155.014141 98.44 
L 155.014141 0 
" clip-path="url(#p06cb949abd)" style="fill: none; stroke: #b0b0b0; stroke-width: 0.8; stroke-linecap: square"/>
     </g>
     <g id="line2d_6">
      <g>
       <use xlink:href="#mb0ea7ee071" x="155.014141" y="98.44" style="stroke: #000000; stroke-width: 0.8"/>
      </g>
     </g>
     <g id="text_3">
      <text style="font-size: 10px; font-family: 'Times New Roman'; text-anchor: middle" x="155.014141" y="112.38375" transform="rotate(-0 155.014141 112.38375)">100</text>
     </g>
    </g>
    <g id="xtick_4">
     <g id="line2d_7">
      <path d="M 215.366212 98.44 
L 215.366212 0 
" clip-path="url(#p06cb949abd)" style="fill: none; stroke: #b0b0b0; stroke-width: 0.8; stroke-linecap: square"/>
     </g>
     <g id="line2d_8">
      <g>
       <use xlink:href="#mb0ea7ee071" x="215.366212" y="98.44" style="stroke: #000000; stroke-width: 0.8"/>
      </g>
     </g>
     <g id="text_4">
      <text style="font-size: 10px; font-family: 'Times New Roman'; text-anchor: middle" x="215.366212" y="112.38375" transform="rotate(-0 215.366212 112.38375)">150</text>
     </g>
    </g>
    <g id="xtick_5">
     <g id="line2d_9">
      <path d="M 275.718283 98.44 
L 275.718283 0 
" clip-path="url(#p06cb949abd)" style="fill: none; stroke: #b0b0b0; stroke-width: 0.8; stroke-linecap: square"/>
     </g>
     <g id="line2d_10">
      <g>
       <use xlink:href="#mb0ea7ee071" x="275.718283" y="98.44" style="stroke: #000000; stroke-width: 0.8"/>
      </g>
     </g>
     <g id="text_5">
      <text style="font-size: 10px; font-family: 'Times New Roman'; text-anchor: middle" x="275.718283" y="112.38375" transform="rotate(-0 275.718283 112.38375)">200</text>
     </g>
    </g>
    <g id="xtick_6">
     <g id="line2d_11">
      <path d="M 336.070353 98.44 
L 336.070353 0 
" clip-path="url(#p06cb949abd)" style="fill: none; stroke: #b0b0b0; stroke-width: 0.8; stroke-linecap: square"/>
     </g>
     <g id="line2d_12">
      <g>
       <use xlink:href="#mb0ea7ee071" x="336.070353" y="98.44" style="stroke: #000000; stroke-width: 0.8"/>
      </g>
     </g>
     <g id="text_6">
      <text style="font-size: 10px; font-family: 'Times New Roman'; text-anchor: middle" x="336.070353" y="112.38375" transform="rotate(-0 336.070353 112.38375)">250</text>
     </g>
    </g>
    <g id="xtick_7">
     <g id="line2d_13">
      <path d="M 396.422424 98.44 
L 396.422424 0 
" clip-path="url(#p06cb949abd)" style="fill: none; stroke: #b0b0b0; stroke-width: 0.8; stroke-linecap: square"/>
     </g>
     <g id="line2d_14">
      <g>
       <use xlink:href="#mb0ea7ee071" x="396.422424" y="98.44" style="stroke: #000000; stroke-width: 0.8"/>
      </g>
     </g>
     <g id="text_7">
      <text style="font-size: 10px; font-family: 'Times New Roman'; text-anchor: middle" x="396.422424" y="112.38375" transform="rotate(-0 396.422424 112.38375)">300</text>
     </g>
    </g>
    <g id="xtick_8">
     <g id="line2d_15">
      <path d="M 456.774495 98.44 
L 456.774495 0 
" clip-path="url(#p06cb949abd)" style="fill: none; stroke: #b0b0b0; stroke-width: 0.8; stroke-linecap: square"/>
     </g>
     <g id="line2d_16">
      <g>
       <use xlink:href="#mb0ea7ee071" x="456.774495" y="98.44" style="stroke: #000000; stroke-width: 0.8"/>
      </g>
     </g>
     <g id="text_8">
      <text style="font-size: 10px; font-family: 'Times New Roman'; text-anchor: middle" x="456.774495" y="112.38375" transform="rotate(-0 456.774495 112.38375)">350</text>
     </g>
    </g>
    <g id="xtick_9">
     <g id="line2d_17">
      <path d="M 517.126565 98.44 
L 517.126565 0 
" clip-path="url(#p06cb949abd)" style="fill: none; stroke: #b0b0b0; stroke-width: 0.8; stroke-linecap: square"/>
     </g>
     <g id="line2d_18">
      <g>
       <use xlink:href="#mb0ea7ee071" x="517.126565" y="98.44" style="stroke: #000000; stroke-width: 0.8"/>
      </g>
     </g>
     <g id="text_9">
      <text style="font-size: 10px; font-family: 'Times New Roman'; text-anchor: middle" x="517.126565" y="112.38375" transform="rotate(-0 517.126565 112.38375)">400</text>
     </g>
    </g>
    <g id="text_10">
     <text style="font-size: 12px; font-family: 'Times New Roman'; text-anchor: middle" x="287.155" y="126.855312" transform="rotate(-0 287.155 126.855312)">Simulation Run</text>
    </g>
   </g>
   <g id="matplotlib.axis_2">
    <g id="ytick_1">
     <g id="line2d_19">
      <path d="M 34.31 98.44 
L 540 98.44 
" clip-path="url(#p06cb949abd)" style="fill: none; stroke: #b0b0b0; stroke-width: 0.8; stroke-linecap: square"/>
     </g>
     <g id="line2d_20">
      <defs>
       <path id="m2a8964ff2f" d="M 0 0 
L -3.5 0 
" style="stroke: #000000; stroke-width: 0.8"/>
      </defs>
      <g>
       <use xlink:href="#m2a8964ff2f" x="34.31" y="98.44" style="stroke: #000000; stroke-width: 0.8"/>
      </g>
     </g>
     <g id="text_11">
      <text style="font-size: 10px; font-family: 'Times New Roman'; text-anchor: end" x="27.31" y="101.911875" transform="rotate(-0 27.31 101.911875)">0.0</text>
     </g>
    </g>
    <g id="ytick_2">
     <g id="line2d_21">
      <path d="M 34.31 60.578462 
L 540 60.578462 
" clip-path="url(#p06cb949abd)" style="fill: none; stroke: #b0b0b0; stroke-width: 0.8; stroke-linecap: square"/>
     </g>
     <g id="line2d_22">
      <g>
       <use xlink:href="#m2a8964ff2f" x="34.31" y="60.578462" style="stroke: #000000; stroke-width: 0.8"/>
      </g>
     </g>
     <g id="text_12">
      <text style="font-size: 10px; font-family: 'Times New Roman'; text-anchor: end" x="27.31" y="64.050337" transform="rotate(-0 27.31 64.050337)">0.5</text>
     </g>
    </g>
    <g id="ytick_3">
     <g id="line2d_23">
      <path d="M 34.31 22.716923 
L 540 22.716923 
" clip-path="url(#p06cb949abd)" style="fill: none; stroke: #b0b0b0; stroke-width: 0.8; stroke-linecap: square"/>
     </g>
     <g id="line2d_24">
      <g>
       <use xlink:href="#m2a8964ff2f" x="34.31" y="22.716923" style="stroke: #000000; stroke-width: 0.8"/>
      </g>
     </g>
     <g id="text_13">
      <text style="font-size: 10px; font-family: 'Times New Roman'; text-anchor: end" x="27.31" y="26.188798" transform="rotate(-0 27.31 26.188798)">1.0</text>
     </g>
    </g>
    <g id="text_14">
     <text style="font-size: 12px; font-family: 'Times New Roman'; text-anchor: middle" x="8.243125" y="49.22" transform="rotate(-90 8.243125 49.22)">Normalized Value</text>
    </g>
   </g>
   <g id="line2d_25">
    <path d="M 34.31 22.16987 
L 35.517041 23.093309 
L 36.724083 27.165593 
L 37.931124 27.818856 
L 39.138166 29.177545 
L 40.345207 27.877051 
L 41.552248 27.398807 
L 42.75929 28.905181 
L 43.966331 25.323354 
L 45.173373 24.933972 
L 46.380414 27.233187 
L 47.587456 27.373295 
L 48.794497 28.736729 
L 50.001538 25.553471 
L 51.20858 24.821302 
L 52.415621 24.997978 
L 53.622663 24.096774 
L 54.829704 23.967339 
L 56.036745 23.151687 
L 59.65787 25.526271 
L 62.071953 25.973977 
L 63.278994 26.238743 
L 64.486035 26.866628 
L 65.693077 26.516085 
L 66.900118 24.746096 
L 69.314201 24.619184 
L 70.521242 24.551546 
L 72.935325 25.074649 
L 74.142367 25.576887 
L 75.349408 24.179475 
L 76.556449 24.41676 
L 78.970532 25.44307 
L 80.177574 25.79047 
L 81.384615 25.25678 
L 82.591657 25.645176 
L 83.798698 25.66541 
L 85.005739 24.76983 
L 86.212781 24.813135 
L 87.419822 24.447425 
L 88.626864 24.897664 
L 89.833905 25.523347 
L 91.040946 25.65157 
L 93.455029 24.945942 
L 97.076153 25.19567 
L 98.283195 25.527798 
L 99.490236 25.661613 
L 101.904319 25.562622 
L 103.111361 25.601553 
L 104.318402 25.810079 
L 106.732485 25.926958 
L 107.939526 26.221436 
L 109.146568 25.625983 
L 110.353609 25.764613 
L 111.56065 25.397558 
L 112.767692 24.711662 
L 113.974733 24.304082 
L 118.802899 24.263873 
L 120.00994 24.52929 
L 121.216982 24.486042 
L 123.631065 24.649368 
L 124.838106 24.313571 
L 126.045147 24.490102 
L 127.252189 24.801507 
L 128.45923 24.523946 
L 129.666272 24.555834 
L 133.287396 24.037349 
L 134.494437 24.217399 
L 135.701479 24.017883 
L 136.90852 24.369565 
L 141.736686 24.050519 
L 142.943727 24.147658 
L 144.150769 24.129421 
L 145.35781 24.286776 
L 146.564851 23.942544 
L 147.771893 24.059654 
L 148.978934 23.905003 
L 150.185976 23.608779 
L 153.8071 24.137122 
L 155.014141 23.893021 
L 157.428224 23.856927 
L 158.635266 23.584302 
L 161.049348 23.881414 
L 162.25639 23.611857 
L 164.670473 23.861264 
L 165.877514 23.743764 
L 167.084555 23.490464 
L 170.70568 23.786701 
L 174.326804 23.841406 
L 175.533845 24.06005 
L 176.740887 24.02101 
L 181.569052 24.542174 
L 183.983135 24.29278 
L 185.190177 24.183121 
L 187.604259 24.305661 
L 188.811301 24.407844 
L 190.018342 24.034062 
L 191.225384 23.816679 
L 192.432425 24.056363 
L 193.639467 23.84516 
L 196.053549 23.728223 
L 197.260591 23.938235 
L 200.881715 23.916265 
L 202.088756 23.937557 
L 203.295798 24.070536 
L 206.916922 23.931391 
L 210.538046 23.777266 
L 211.745088 24.032261 
L 212.952129 24.032506 
L 214.159171 23.866179 
L 217.780295 23.852992 
L 218.987336 23.972664 
L 221.401419 23.85951 
L 223.815502 24.025211 
L 225.022543 23.853519 
L 226.229585 23.860633 
L 227.436626 23.678777 
L 228.643668 23.673451 
L 231.05775 23.863386 
L 233.471833 23.872546 
L 235.885916 24.013419 
L 237.092957 23.862081 
L 239.50704 23.931588 
L 241.921123 23.683942 
L 244.335206 23.474735 
L 245.542247 23.362327 
L 255.198579 23.465277 
L 256.40562 23.342524 
L 258.819703 23.45698 
L 260.026744 23.5081 
L 262.440827 23.29157 
L 263.647868 23.482007 
L 266.061951 23.532946 
L 270.890117 23.45944 
L 273.3042 22.9675 
L 278.132365 23.047685 
L 279.339407 22.758247 
L 280.546448 22.623117 
L 281.75349 22.810773 
L 284.167573 22.837001 
L 285.374614 22.712278 
L 286.581655 22.762888 
L 287.788697 22.680956 
L 288.995738 22.779621 
L 292.616862 22.505692 
L 295.030945 22.568535 
L 296.237987 22.465235 
L 297.445028 22.53488 
L 302.273194 22.445677 
L 303.480235 22.59513 
L 309.515442 22.60965 
L 310.722484 22.469494 
L 313.136566 22.517601 
L 314.343608 22.525059 
L 315.550649 22.378809 
L 321.585856 22.297437 
L 323.999939 22.558298 
L 328.828105 22.62219 
L 330.035146 22.573757 
L 334.863312 22.756018 
L 337.277395 22.671644 
L 338.484436 22.777375 
L 340.898519 22.800886 
L 342.10556 22.87699 
L 343.312602 22.814419 
L 345.726685 23.022745 
L 349.347809 23.216384 
L 350.55485 23.157229 
L 351.761892 22.984184 
L 359.00414 22.883908 
L 361.418223 22.973583 
L 362.625264 23.103552 
L 366.246389 23.090115 
L 367.45343 23.094929 
L 368.660471 22.084749 
L 371.074554 22.086215 
L 374.695678 22.288855 
L 377.109761 22.247669 
L 383.144968 22.565797 
L 390.387217 22.83943 
L 394.008341 22.971437 
L 396.422424 22.934934 
L 397.629465 22.666942 
L 398.836507 22.721971 
L 401.25059 22.703319 
L 403.664672 22.7352 
L 409.699879 22.683426 
L 412.113962 22.577295 
L 414.528045 22.694508 
L 416.942128 22.746856 
L 419.356211 22.765195 
L 420.563252 22.641192 
L 424.184376 22.683604 
L 425.391418 22.503076 
L 427.805501 22.693588 
L 431.426625 22.698789 
L 437.461832 22.577375 
L 439.875915 22.805341 
L 442.289998 22.696123 
L 448.325205 22.798338 
L 455.567453 22.483492 
L 459.188577 22.662304 
L 461.60266 22.737586 
L 464.016743 22.87394 
L 468.844909 22.656071 
L 471.258992 22.810802 
L 474.880116 22.720906 
L 479.708281 22.809188 
L 484.536447 22.782652 
L 486.95053 22.774179 
L 491.778696 22.712731 
L 495.39982 22.808656 
L 502.642068 22.840487 
L 503.84911 22.705408 
L 507.470234 22.775843 
L 508.677275 22.650481 
L 511.091358 22.752349 
L 515.919524 22.716923 
L 515.919524 22.716923 
" clip-path="url(#p06cb949abd)" style="fill: none; stroke: #4169e1; stroke-width: 1.5; stroke-linecap: square"/>
   </g>
   <g id="line2d_26">
    <path d="M 34.31 98.44 
L 35.517041 98.32707 
L 36.724083 93.972352 
L 37.931124 94.919717 
L 39.138166 94.645879 
L 40.345207 94.158333 
L 41.552248 94.588264 
L 42.75929 92.966167 
L 43.966331 79.982128 
L 45.173373 81.647203 
L 46.380414 76.172966 
L 47.587456 77.999956 
L 48.794497 76.618053 
L 50.001538 60.731437 
L 51.20858 62.251441 
L 52.415621 64.45122 
L 53.622663 64.729652 
L 54.829704 66.564732 
L 56.036745 66.656482 
L 57.243787 66.6317 
L 58.450828 66.192819 
L 59.65787 66.237359 
L 60.864911 67.551364 
L 63.278994 69.577243 
L 64.486035 69.382101 
L 65.693077 70.035215 
L 66.900118 59.847633 
L 69.314201 62.373025 
L 70.521242 63.5183 
L 71.728284 64.402379 
L 72.935325 65.05639 
L 74.142367 64.935894 
L 75.349408 57.100496 
L 76.556449 57.987839 
L 77.763491 57.541056 
L 78.970532 57.58974 
L 80.177574 58.029837 
L 81.384615 57.569015 
L 82.591657 57.766769 
L 83.798698 58.732956 
L 85.005739 55.195198 
L 86.212781 56.167355 
L 87.419822 56.327424 
L 88.626864 56.034848 
L 89.833905 54.552254 
L 91.040946 55.364247 
L 92.247988 55.183626 
L 93.455029 55.475083 
L 97.076153 57.709805 
L 98.283195 57.689821 
L 100.697278 58.977895 
L 103.111361 60.323195 
L 104.318402 60.635248 
L 106.732485 61.82138 
L 107.939526 61.711472 
L 109.146568 59.383223 
L 110.353609 59.833143 
L 111.56065 59.285179 
L 112.767692 55.828744 
L 113.974733 55.012749 
L 116.388816 56.226301 
L 118.802899 57.222518 
L 120.00994 57.132599 
L 121.216982 57.68062 
L 122.424023 58.052608 
L 123.631065 58.58379 
L 124.838106 57.988239 
L 126.045147 58.199934 
L 127.252189 57.726973 
L 128.45923 57.446524 
L 129.666272 57.948303 
L 132.080354 58.511621 
L 133.287396 58.390551 
L 135.701479 58.537928 
L 136.90852 57.609678 
L 138.115562 58.019412 
L 139.322603 58.209174 
L 140.529644 58.660918 
L 144.150769 59.730435 
L 145.35781 59.84499 
L 146.564851 58.79616 
L 147.771893 59.042733 
L 148.978934 59.152222 
L 150.185976 58.441663 
L 152.600058 58.610776 
L 153.8071 58.414514 
L 155.014141 58.021711 
L 157.428224 58.746715 
L 158.635266 58.114559 
L 159.842307 57.936236 
L 161.049348 58.192738 
L 162.25639 57.548882 
L 163.463431 57.49121 
L 164.670473 57.788697 
L 165.877514 57.958959 
L 167.084555 57.38899 
L 169.498638 57.7243 
L 174.326804 58.857383 
L 175.533845 58.452107 
L 176.740887 58.764321 
L 179.15497 58.919849 
L 180.362011 58.466454 
L 181.569052 58.751795 
L 182.776094 58.582638 
L 187.604259 59.390939 
L 188.811301 59.516651 
L 190.018342 57.429254 
L 191.225384 56.928761 
L 192.432425 56.246593 
L 193.639467 55.784065 
L 194.846508 55.94769 
L 196.053549 56.252881 
L 197.260591 55.774557 
L 202.088756 56.926829 
L 203.295798 56.89339 
L 204.502839 57.179505 
L 205.709881 57.217269 
L 209.331005 57.960452 
L 210.538046 57.835492 
L 211.745088 56.84402 
L 212.952129 57.123187 
L 214.159171 56.852742 
L 217.780295 57.584812 
L 220.194378 57.641534 
L 222.60846 58.07954 
L 223.815502 58.103125 
L 225.022543 57.740005 
L 226.229585 57.993314 
L 227.436626 57.543782 
L 228.643668 57.795623 
L 229.850709 57.716832 
L 232.264792 58.090096 
L 234.678875 58.458181 
L 235.885916 58.543427 
L 237.092957 58.269943 
L 239.50704 58.678915 
L 240.714082 58.195604 
L 243.128164 58.487372 
L 244.335206 58.139466 
L 245.542247 58.075612 
L 247.95633 58.422101 
L 250.370413 58.766478 
L 252.784496 59.090121 
L 253.991537 59.113124 
L 256.40562 58.770629 
L 257.612661 58.97961 
L 258.819703 58.938282 
L 260.026744 59.083681 
L 262.440827 58.909603 
L 263.647868 58.20403 
L 266.061951 58.535184 
L 268.476034 58.830099 
L 270.890117 58.939159 
L 272.097158 56.81326 
L 273.3042 56.041776 
L 275.718283 56.417731 
L 278.132365 56.648064 
L 279.339407 54.600765 
L 280.546448 54.321298 
L 281.75349 53.579428 
L 284.167573 53.953464 
L 285.374614 53.737816 
L 286.581655 53.879789 
L 288.995738 53.842337 
L 290.20278 53.769941 
L 291.409821 53.383592 
L 295.030945 53.925495 
L 296.237987 53.823032 
L 298.652069 54.031599 
L 302.273194 54.454884 
L 303.480235 53.991607 
L 309.515442 54.866097 
L 310.722484 54.45982 
L 313.136566 54.739762 
L 314.343608 54.925607 
L 315.550649 54.451565 
L 320.378815 55.174632 
L 321.585856 55.125653 
L 322.792898 54.490874 
L 323.999939 54.353046 
L 326.414022 54.586427 
L 330.035146 54.887475 
L 332.449229 54.941079 
L 333.65627 54.743049 
L 337.277395 54.936342 
L 338.484436 54.735216 
L 340.898519 54.927269 
L 343.312602 54.93833 
L 344.519643 54.484443 
L 346.933726 54.473451 
L 348.140767 54.623703 
L 349.347809 54.439706 
L 350.55485 54.485594 
L 351.761892 53.60913 
L 352.968933 53.778246 
L 355.383016 53.962895 
L 357.797099 54.233904 
L 359.00414 54.269336 
L 360.211182 54.431663 
L 361.418223 54.276445 
L 362.625264 53.829751 
L 367.45343 54.418874 
L 368.660471 17.142944 
L 371.074554 17.7035 
L 372.281596 17.713832 
L 373.488637 17.93163 
L 375.90272 18.154372 
L 377.109761 18.419749 
L 378.316803 18.468072 
L 379.523844 18.198604 
L 380.730886 18.36456 
L 381.937927 17.824521 
L 383.144968 17.849568 
L 387.973134 18.795106 
L 389.180175 18.347063 
L 390.387217 18.563018 
L 392.8013 18.672824 
L 396.422424 19.431551 
L 397.629465 16.83029 
L 402.457631 17.457051 
L 409.699879 18.821126 
L 410.906921 18.872513 
L 412.113962 19.072074 
L 413.321004 18.990128 
L 415.735087 19.451076 
L 416.942128 19.51267 
L 419.356211 19.933742 
L 420.563252 19.526678 
L 424.184376 20.064229 
L 425.391418 18.907009 
L 426.598459 18.603394 
L 427.805501 18.586778 
L 432.633666 19.47626 
L 433.840708 19.303922 
L 437.461832 20.000389 
L 438.668873 19.1234 
L 441.082956 19.125969 
L 450.739288 20.546342 
L 451.946329 20.168485 
L 453.15337 20.25759 
L 454.360412 20.46636 
L 457.981536 19.977432 
L 460.395619 20.412677 
L 461.60266 20.451306 
L 462.809702 20.33498 
L 465.223784 20.414005 
L 466.430826 20.348057 
L 468.844909 20.652176 
L 470.05195 20.40114 
L 476.087157 20.776211 
L 480.915323 21.526165 
L 482.122364 21.527902 
L 485.743488 21.951982 
L 488.157571 22.179263 
L 489.364613 21.902075 
L 490.571654 22.097858 
L 495.39982 22.185681 
L 496.606861 22.373977 
L 497.813903 22.288369 
L 502.642068 22.934558 
L 503.84911 22.188185 
L 507.470234 22.645887 
L 508.677275 22.020331 
L 509.884317 21.859915 
L 515.919524 22.716923 
L 515.919524 22.716923 
" clip-path="url(#p06cb949abd)" style="fill: none; stroke-dasharray: 5.55,2.4; stroke-dashoffset: 0; stroke: #4169e1; stroke-width: 1.5"/>
   </g>
   <g id="line2d_27">
    <path d="M 34.31 8.166909 
L 35.517041 16.290411 
L 36.724083 20.957448 
L 37.931124 22.265416 
L 40.345207 25.070982 
L 41.552248 23.773881 
L 42.75929 24.920933 
L 43.966331 23.584264 
L 45.173373 23.254983 
L 46.380414 25.060678 
L 47.587456 24.910256 
L 48.794497 25.86235 
L 50.001538 22.70838 
L 51.20858 21.882726 
L 52.415621 22.341559 
L 53.622663 21.492989 
L 54.829704 21.97301 
L 56.036745 21.047792 
L 57.243787 21.807365 
L 58.450828 22.828603 
L 59.65787 23.48539 
L 60.864911 23.57504 
L 63.278994 24.166154 
L 64.486035 24.539467 
L 65.693077 24.264258 
L 66.900118 22.866273 
L 68.10716 22.828682 
L 70.521242 23.11276 
L 72.935325 23.589553 
L 74.142367 24.144884 
L 75.349408 23.340253 
L 76.556449 23.578521 
L 77.763491 24.16184 
L 80.177574 24.670192 
L 81.384615 24.027543 
L 82.591657 24.349235 
L 83.798698 24.438264 
L 85.005739 23.722357 
L 86.212781 23.808275 
L 87.419822 23.688585 
L 88.626864 24.058681 
L 89.833905 24.589922 
L 91.040946 24.690381 
L 93.455029 24.180345 
L 94.662071 24.386734 
L 97.076153 24.482112 
L 98.283195 24.768961 
L 99.490236 24.822861 
L 101.904319 24.715813 
L 105.525443 24.963833 
L 106.732485 24.9521 
L 107.939526 25.183876 
L 109.146568 24.858955 
L 110.353609 25.069205 
L 111.56065 24.88245 
L 113.974733 24.106348 
L 117.595858 23.929411 
L 118.802899 23.766449 
L 120.00994 23.980699 
L 121.216982 23.972997 
L 123.631065 24.132962 
L 124.838106 23.746238 
L 126.045147 23.903684 
L 127.252189 24.217828 
L 128.45923 23.990958 
L 129.666272 24.046246 
L 132.080354 23.713229 
L 133.287396 23.597631 
L 134.494437 23.763969 
L 135.701479 23.694153 
L 136.90852 23.998625 
L 141.736686 23.768106 
L 145.35781 23.942879 
L 146.564851 23.64105 
L 147.771893 23.751911 
L 148.978934 23.710658 
L 150.185976 23.509718 
L 152.600058 23.777047 
L 153.8071 23.985654 
L 155.014141 23.767369 
L 156.221183 23.822005 
L 157.428224 23.747083 
L 158.635266 23.510123 
L 161.049348 23.814267 
L 162.25639 23.597741 
L 164.670473 23.803545 
L 167.084555 23.508664 
L 168.291597 23.63251 
L 170.70568 23.658329 
L 171.912721 23.735634 
L 173.119763 23.699156 
L 181.569052 24.330984 
L 183.983135 24.075506 
L 186.397218 24.02652 
L 188.811301 24.18059 
L 190.018342 23.909186 
L 191.225384 23.792255 
L 192.432425 23.984068 
L 194.846508 23.694817 
L 196.053549 23.697948 
L 197.260591 23.847751 
L 199.674674 23.718915 
L 204.502839 23.761524 
L 206.916922 23.630567 
L 210.538046 23.471517 
L 211.745088 23.74129 
L 212.952129 23.757317 
L 215.366212 23.512973 
L 217.780295 23.504048 
L 218.987336 23.578101 
L 221.401419 23.458439 
L 226.229585 23.460997 
L 228.643668 23.328908 
L 231.05775 23.45266 
L 234.678875 23.53948 
L 235.885916 23.613256 
L 237.092957 23.452016 
L 239.50704 23.523144 
L 245.542247 23.022396 
L 252.784496 23.167052 
L 253.991537 23.098737 
L 255.198579 23.218173 
L 257.612661 23.147448 
L 260.026744 23.266536 
L 262.440827 23.090547 
L 263.647868 23.251651 
L 267.268993 23.255503 
L 270.890117 23.253113 
L 273.3042 22.828851 
L 278.132365 22.889221 
L 279.339407 22.664647 
L 280.546448 22.568278 
L 281.75349 22.737857 
L 284.167573 22.72151 
L 285.374614 22.623666 
L 286.581655 22.702898 
L 287.788697 22.63411 
L 288.995738 22.71477 
L 292.616862 22.496613 
L 295.030945 22.545974 
L 296.237987 22.469976 
L 298.652069 22.495231 
L 302.273194 22.454176 
L 304.687277 22.579001 
L 308.308401 22.557639 
L 309.515442 22.589193 
L 310.722484 22.462371 
L 313.136566 22.507429 
L 314.343608 22.513642 
L 315.550649 22.385225 
L 322.792898 22.441273 
L 325.206981 22.565449 
L 327.621063 22.531685 
L 333.65627 22.735344 
L 337.277395 22.605452 
L 338.484436 22.700289 
L 340.898519 22.692459 
L 342.10556 22.765045 
L 343.312602 22.687022 
L 345.726685 22.870972 
L 349.347809 23.01605 
L 355.383016 22.747752 
L 357.797099 22.830493 
L 360.211182 22.783197 
L 363.832306 22.960663 
L 367.45343 22.983641 
L 368.660471 22.429343 
L 371.074554 22.396007 
L 374.695678 22.567194 
L 377.109761 22.521392 
L 383.144968 22.792546 
L 391.594258 23.009927 
L 394.008341 23.067713 
L 396.422424 23.033963 
L 397.629465 22.857867 
L 402.457631 22.918633 
L 410.906921 22.729213 
L 412.113962 22.672255 
L 414.528045 22.768801 
L 416.942128 22.802939 
L 419.356211 22.806114 
L 420.563252 22.726001 
L 422.977335 22.735935 
L 424.184376 22.763991 
L 425.391418 22.658542 
L 429.012542 22.818614 
L 432.633666 22.814206 
L 435.047749 22.715658 
L 437.461832 22.702822 
L 439.875915 22.909556 
L 442.289998 22.8096 
L 444.70408 22.830275 
L 450.739288 22.7973 
L 453.15337 22.63498 
L 461.60266 22.783243 
L 464.016743 22.88462 
L 467.637867 22.713435 
L 470.05195 22.742967 
L 473.673074 22.745125 
L 476.087157 22.724422 
L 488.157571 22.739199 
L 490.571654 22.68922 
L 497.813903 22.8842 
L 502.642068 22.818572 
L 505.056151 22.741519 
L 507.470234 22.761707 
L 508.677275 22.681409 
L 511.091358 22.759326 
L 515.919524 22.716923 
L 515.919524 22.716923 
" clip-path="url(#p06cb949abd)" style="fill: none; stroke: #ff8c00; stroke-width: 1.5; stroke-linecap: square"/>
   </g>
   <g id="line2d_28">
    <path d="M 34.31 98.44 
L 35.517041 82.490615 
L 36.724083 77.278493 
L 37.931124 81.328439 
L 39.138166 82.654468 
L 40.345207 83.13802 
L 42.75929 82.602697 
L 43.966331 80.907819 
L 45.173373 82.425188 
L 46.380414 76.000717 
L 47.587456 77.810503 
L 48.794497 76.768341 
L 50.001538 47.061582 
L 51.20858 48.180158 
L 52.415621 50.558163 
L 53.622663 50.590208 
L 54.829704 52.301799 
L 56.036745 51.006049 
L 57.243787 50.728327 
L 58.450828 47.959029 
L 59.65787 48.064214 
L 60.864911 50.211731 
L 62.071953 51.869538 
L 63.278994 53.063468 
L 64.486035 53.966659 
L 65.693077 55.137877 
L 66.900118 43.930965 
L 68.10716 45.801025 
L 69.314201 47.45448 
L 70.521242 48.904324 
L 71.728284 49.87515 
L 72.935325 51.039786 
L 74.142367 49.974248 
L 75.349408 46.038758 
L 76.556449 47.014109 
L 77.763491 45.443447 
L 80.177574 47.00397 
L 81.384615 44.39701 
L 82.591657 44.714681 
L 83.798698 45.915313 
L 85.005739 41.934233 
L 87.419822 44.218243 
L 88.626864 43.907272 
L 89.833905 41.929936 
L 91.040946 42.992591 
L 93.455029 43.701058 
L 94.662071 44.259618 
L 97.076153 46.242694 
L 98.283195 46.155311 
L 101.904319 48.782529 
L 103.111361 49.524599 
L 104.318402 50.019675 
L 106.732485 51.605131 
L 107.939526 51.568532 
L 109.146568 50.730529 
L 110.353609 50.802901 
L 111.56065 50.996287 
L 112.767692 49.184217 
L 113.974733 47.679507 
L 115.181775 48.374547 
L 116.388816 48.777347 
L 117.595858 49.480428 
L 118.802899 49.720709 
L 120.00994 49.609673 
L 121.216982 50.277549 
L 122.424023 50.658475 
L 123.631065 51.272025 
L 124.838106 49.181716 
L 126.045147 49.366096 
L 127.252189 48.158686 
L 128.45923 47.824853 
L 129.666272 48.399177 
L 130.873313 48.301435 
L 134.494437 48.897351 
L 135.701479 49.381246 
L 136.90852 48.047241 
L 140.529644 49.423717 
L 144.150769 50.86193 
L 145.35781 51.173813 
L 146.564851 49.628965 
L 147.771893 49.863551 
L 148.978934 50.330483 
L 150.185976 49.889622 
L 151.393017 50.205541 
L 152.600058 49.926806 
L 155.014141 48.704921 
L 157.428224 49.460108 
L 158.635266 48.533268 
L 159.842307 47.9292 
L 161.049348 48.167334 
L 162.25639 47.43607 
L 163.463431 47.516157 
L 164.670473 47.805004 
L 165.877514 47.747289 
L 167.084555 47.568115 
L 168.291597 47.61085 
L 170.70568 48.47677 
L 171.912721 48.746577 
L 173.119763 49.137984 
L 174.326804 49.27223 
L 175.533845 49.104428 
L 176.740887 49.51227 
L 177.947928 49.585899 
L 179.15497 49.893109 
L 180.362011 49.36695 
L 181.569052 49.663282 
L 182.776094 49.146217 
L 185.190177 49.613694 
L 186.397218 49.991602 
L 188.811301 50.377323 
L 190.018342 48.450468 
L 191.225384 48.402472 
L 193.639467 46.737525 
L 194.846508 46.860563 
L 196.053549 47.242316 
L 197.260591 46.886562 
L 198.467632 47.028363 
L 202.088756 47.993078 
L 203.295798 48.04474 
L 204.502839 48.33899 
L 205.709881 48.290909 
L 209.331005 49.249523 
L 210.538046 49.009097 
L 211.745088 46.75742 
L 212.952129 47.095095 
L 214.159171 46.296405 
L 216.573253 46.749146 
L 217.780295 47.038433 
L 218.987336 47.169422 
L 220.194378 47.125075 
L 222.60846 47.755125 
L 223.815502 47.829085 
L 225.022543 47.432953 
L 226.229585 47.682182 
L 227.436626 47.600025 
L 228.643668 47.877149 
L 229.850709 47.818618 
L 233.471833 48.547073 
L 234.678875 48.813354 
L 235.885916 48.889065 
L 237.092957 48.126635 
L 239.50704 48.606223 
L 240.714082 48.3197 
L 243.128164 48.393086 
L 244.335206 47.833438 
L 245.542247 47.806913 
L 247.95633 48.197749 
L 249.163372 48.301835 
L 252.784496 48.98455 
L 253.991537 49.049512 
L 255.198579 48.687005 
L 256.40562 48.683268 
L 257.612661 48.948209 
L 258.819703 48.818731 
L 260.026744 49.053396 
L 261.233786 49.031249 
L 262.440827 48.861448 
L 263.647868 47.929172 
L 270.890117 49.09253 
L 272.097158 46.170589 
L 273.3042 45.111615 
L 275.718283 45.588301 
L 278.132365 45.948636 
L 279.339407 43.731517 
L 280.546448 43.540499 
L 281.75349 42.382204 
L 284.167573 42.805478 
L 285.374614 42.590401 
L 291.409821 42.276323 
L 295.030945 42.722257 
L 296.237987 42.674926 
L 297.445028 42.739923 
L 302.273194 43.51942 
L 303.480235 43.172304 
L 309.515442 44.200936 
L 310.722484 43.546566 
L 311.929525 43.588588 
L 314.343608 44.045943 
L 315.550649 43.349723 
L 320.378815 44.259406 
L 321.585856 44.269205 
L 322.792898 43.461132 
L 323.999939 43.141972 
L 325.206981 43.327885 
L 326.414022 43.275206 
L 327.621063 43.427852 
L 328.828105 43.461649 
L 331.242188 43.751578 
L 336.070353 43.496732 
L 337.277395 43.714629 
L 338.484436 43.38314 
L 340.898519 43.636576 
L 343.312602 43.362955 
L 344.519643 42.547519 
L 346.933726 42.611498 
L 348.140767 42.799341 
L 351.761892 42.362154 
L 354.175974 42.680007 
L 356.590057 42.696156 
L 357.797099 42.824658 
L 359.00414 42.778331 
L 360.211182 42.969041 
L 361.418223 42.69153 
L 362.625264 42.083596 
L 367.45343 42.806891 
L 368.660471 22.437503 
L 371.074554 22.879173 
L 372.281596 22.827838 
L 373.488637 22.968933 
L 375.90272 23.110928 
L 377.109761 23.375121 
L 378.316803 23.248248 
L 379.523844 22.788471 
L 380.730886 22.738144 
L 381.937927 21.870885 
L 383.144968 21.425839 
L 387.973134 22.361683 
L 389.180175 21.649062 
L 390.387217 21.847126 
L 392.8013 21.946192 
L 396.422424 22.667244 
L 397.629465 20.662233 
L 402.457631 21.272015 
L 404.871714 21.683947 
L 407.285797 21.917074 
L 409.699879 22.401588 
L 410.906921 22.261845 
L 412.113962 22.25903 
L 413.321004 21.857286 
L 415.735087 22.308845 
L 416.942128 22.324906 
L 419.356211 22.635753 
L 420.563252 22.375532 
L 422.977335 22.49437 
L 424.184376 22.667323 
L 425.391418 22.029727 
L 426.598459 21.648237 
L 427.805501 21.609399 
L 432.633666 22.44589 
L 433.840708 22.08735 
L 437.461832 22.747205 
L 438.668873 21.355721 
L 439.875915 21.236861 
L 441.082956 20.885723 
L 442.289998 21.094609 
L 443.497039 21.133601 
L 450.739288 22.178846 
L 451.946329 21.134945 
L 453.15337 21.226951 
L 454.360412 21.434854 
L 455.567453 21.277755 
L 457.981536 20.706859 
L 460.395619 21.141841 
L 461.60266 21.175954 
L 462.809702 21.004601 
L 464.016743 21.121482 
L 465.223784 20.693132 
L 466.430826 20.534396 
L 468.844909 20.825465 
L 470.05195 20.670974 
L 473.673074 21.14846 
L 474.880116 21.082554 
L 477.294199 21.381111 
L 482.122364 22.091366 
L 483.329406 22.12747 
L 484.536447 22.325102 
L 485.743488 22.137434 
L 486.95053 22.121746 
L 488.157571 22.260879 
L 489.364613 22.137119 
L 490.571654 22.329722 
L 492.985737 22.311841 
L 494.192778 22.12987 
L 495.39982 22.176677 
L 496.606861 22.351732 
L 497.813903 22.21554 
L 500.227985 22.601296 
L 501.435027 22.369165 
L 502.642068 22.553048 
L 503.84911 22.023315 
L 507.470234 22.537567 
L 508.677275 22.117773 
L 509.884317 21.878653 
L 515.919524 22.716923 
L 515.919524 22.716923 
" clip-path="url(#p06cb949abd)" style="fill: none; stroke-dasharray: 5.55,2.4; stroke-dashoffset: 0; stroke: #ff8c00; stroke-width: 1.5"/>
   </g>
   <g id="patch_3">
    <path d="M 34.31 98.44 
L 34.31 0 
" style="fill: none; stroke: #000000; stroke-width: 0.8; stroke-linejoin: miter; stroke-linecap: square"/>
   </g>
   <g id="patch_4">
    <path d="M 540 98.44 
L 540 0 
" style="fill: none; stroke: #000000; stroke-width: 0.8; stroke-linejoin: miter; stroke-linecap: square"/>
   </g>
   <g id="patch_5">
    <path d="M 34.31 98.44 
L 540 98.44 
" style="fill: none; stroke: #000000; stroke-width: 0.8; stroke-linejoin: miter; stroke-linecap: square"/>
   </g>
   <g id="patch_6">
    <path d="M 34.31 0 
L 540 0 
" style="fill: none; stroke: #000000; stroke-width: 0.8; stroke-linejoin: miter; stroke-linecap: square"/>
   </g>
  </g>
 </g>
 <defs>
  <clipPath id="p06cb949abd">
   <rect x="34.31" y="0" width="505.69" height="98.44"/>
  </clipPath>
 </defs>
</svg>
