<?xml version="1.0" encoding="utf-8" standalone="no"?>
<!DOCTYPE svg PUBLIC "-//W3C//DTD SVG 1.1//EN"
  "http://www.w3.org/Graphics/SVG/1.1/DTD/svg11.dtd">
<svg xmlns:xlink="http://www.w3.org/1999/xlink" width="540pt" height="129.6pt" viewBox="0 0 540 129.6" xmlns="http://www.w3.org/2000/svg" version="1.1">
 <metadata>
  <rdf:RDF xmlns:dc="http://purl.org/dc/elements/1.1/" xmlns:cc="http://creativecommons.org/ns#" xmlns:rdf="http://www.w3.org/1999/02/22-rdf-syntax-ns#">
   <cc:Work>
    <dc:type rdf:resource="http://purl.org/dc/dcmitype/StillImage"/>
    <dc:date>2025-03-23T11:54:02.229122</dc:date>
    <dc:format>image/svg+xml</dc:format>
    <dc:creator>
     <cc:Agent>
      <dc:title>Matplotlib v3.8.3, https://matplotlib.org/</dc:title>
     </cc:Agent>
    </dc:creator>
   </cc:Work>
  </rdf:RDF>
 </metadata>
 <defs>
  <style type="text/css">*{stroke-linejoin: round; stroke-linecap: butt}</style>
 </defs>
 <g id="figure_1">
  <g id="patch_1">
   <path d="M 0 129.6 
L 540 129.6 
L 540 0 
L 0 0 
z
" style="fill: #ffffff"/>
  </g>
  <g id="axes_1">
   <g id="patch_2">
    <path d="M 35.03 97 
L 540 97 
L 540 0 
L 35.03 0 
z
" style="fill: #ffffff"/>
   </g>
   <g id="matplotlib.axis_1">
    <g id="xtick_1">
     <g id="line2d_1">
      <path d="M 35.03 97 
L 35.03 0 
" clip-path="url(#p6eef24ac0b)" style="fill: none; stroke: #b0b0b0; stroke-width: 0.8; stroke-linecap: square"/>
     </g>
     <g id="line2d_2">
      <defs>
       <path id="md77540d2ca" d="M 0 0 
L 0 3.5 
" style="stroke: #000000; stroke-width: 0.8"/>
      </defs>
      <g>
       <use xlink:href="#md77540d2ca" x="35.03" y="97" style="stroke: #000000; stroke-width: 0.8"/>
      </g>
     </g>
     <g id="text_1">
      <text style="font: 10px 'Times New Roman'; text-anchor: middle" x="35.03" y="110.94375" transform="rotate(-0 35.03 110.94375)">0</text>
     </g>
    </g>
    <g id="xtick_2">
     <g id="line2d_3">
      <path d="M 95.296142 97 
L 95.296142 0 
" clip-path="url(#p6eef24ac0b)" style="fill: none; stroke: #b0b0b0; stroke-width: 0.8; stroke-linecap: square"/>
     </g>
     <g id="line2d_4">
      <g>
       <use xlink:href="#md77540d2ca" x="95.296142" y="97" style="stroke: #000000; stroke-width: 0.8"/>
      </g>
     </g>
     <g id="text_2">
      <text style="font: 10px 'Times New Roman'; text-anchor: middle" x="95.296142" y="110.94375" transform="rotate(-0 95.296142 110.94375)">50</text>
     </g>
    </g>
    <g id="xtick_3">
     <g id="line2d_5">
      <path d="M 155.562283 97 
L 155.562283 0 
" clip-path="url(#p6eef24ac0b)" style="fill: none; stroke: #b0b0b0; stroke-width: 0.8; stroke-linecap: square"/>
     </g>
     <g id="line2d_6">
      <g>
       <use xlink:href="#md77540d2ca" x="155.562283" y="97" style="stroke: #000000; stroke-width: 0.8"/>
      </g>
     </g>
     <g id="text_3">
      <text style="font: 10px 'Times New Roman'; text-anchor: middle" x="155.562283" y="110.94375" transform="rotate(-0 155.562283 110.94375)">100</text>
     </g>
    </g>
    <g id="xtick_4">
     <g id="line2d_7">
      <path d="M 215.828425 97 
L 215.828425 0 
" clip-path="url(#p6eef24ac0b)" style="fill: none; stroke: #b0b0b0; stroke-width: 0.8; stroke-linecap: square"/>
     </g>
     <g id="line2d_8">
      <g>
       <use xlink:href="#md77540d2ca" x="215.828425" y="97" style="stroke: #000000; stroke-width: 0.8"/>
      </g>
     </g>
     <g id="text_4">
      <text style="font: 10px 'Times New Roman'; text-anchor: middle" x="215.828425" y="110.94375" transform="rotate(-0 215.828425 110.94375)">150</text>
     </g>
    </g>
    <g id="xtick_5">
     <g id="line2d_9">
      <path d="M 276.094566 97 
L 276.094566 0 
" clip-path="url(#p6eef24ac0b)" style="fill: none; stroke: #b0b0b0; stroke-width: 0.8; stroke-linecap: square"/>
     </g>
     <g id="line2d_10">
      <g>
       <use xlink:href="#md77540d2ca" x="276.094566" y="97" style="stroke: #000000; stroke-width: 0.8"/>
      </g>
     </g>
     <g id="text_5">
      <text style="font: 10px 'Times New Roman'; text-anchor: middle" x="276.094566" y="110.94375" transform="rotate(-0 276.094566 110.94375)">200</text>
     </g>
    </g>
    <g id="xtick_6">
     <g id="line2d_11">
      <path d="M 336.360708 97 
L 336.360708 0 
" clip-path="url(#p6eef24ac0b)" style="fill: none; stroke: #b0b0b0; stroke-width: 0.8; stroke-linecap: square"/>
     </g>
     <g id="line2d_12">
      <g>
       <use xlink:href="#md77540d2ca" x="336.360708" y="97" style="stroke: #000000; stroke-width: 0.8"/>
      </g>
     </g>
     <g id="text_6">
      <text style="font: 10px 'Times New Roman'; text-anchor: middle" x="336.360708" y="110.94375" transform="rotate(-0 336.360708 110.94375)">250</text>
     </g>
    </g>
    <g id="xtick_7">
     <g id="line2d_13">
      <path d="M 396.626849 97 
L 396.626849 0 
" clip-path="url(#p6eef24ac0b)" style="fill: none; stroke: #b0b0b0; stroke-width: 0.8; stroke-linecap: square"/>
     </g>
     <g id="line2d_14">
      <g>
       <use xlink:href="#md77540d2ca" x="396.626849" y="97" style="stroke: #000000; stroke-width: 0.8"/>
      </g>
     </g>
     <g id="text_7">
      <text style="font: 10px 'Times New Roman'; text-anchor: middle" x="396.626849" y="110.94375" transform="rotate(-0 396.626849 110.94375)">300</text>
     </g>
    </g>
    <g id="xtick_8">
     <g id="line2d_15">
      <path d="M 456.892991 97 
L 456.892991 0 
" clip-path="url(#p6eef24ac0b)" style="fill: none; stroke: #b0b0b0; stroke-width: 0.8; stroke-linecap: square"/>
     </g>
     <g id="line2d_16">
      <g>
       <use xlink:href="#md77540d2ca" x="456.892991" y="97" style="stroke: #000000; stroke-width: 0.8"/>
      </g>
     </g>
     <g id="text_8">
      <text style="font: 10px 'Times New Roman'; text-anchor: middle" x="456.892991" y="110.94375" transform="rotate(-0 456.892991 110.94375)">350</text>
     </g>
    </g>
    <g id="xtick_9">
     <g id="line2d_17">
      <path d="M 517.159132 97 
L 517.159132 0 
" clip-path="url(#p6eef24ac0b)" style="fill: none; stroke: #b0b0b0; stroke-width: 0.8; stroke-linecap: square"/>
     </g>
     <g id="line2d_18">
      <g>
       <use xlink:href="#md77540d2ca" x="517.159132" y="97" style="stroke: #000000; stroke-width: 0.8"/>
      </g>
     </g>
     <g id="text_9">
      <text style="font: 10px 'Times New Roman'; text-anchor: middle" x="517.159132" y="110.94375" transform="rotate(-0 517.159132 110.94375)">400</text>
     </g>
    </g>
    <g id="text_10">
     <text style="font: 12px 'Times New Roman'; text-anchor: middle" x="287.515" y="125.415312" transform="rotate(-0 287.515 125.415312)">Simulation Run</text>
    </g>
   </g>
   <g id="matplotlib.axis_2">
    <g id="ytick_1">
     <g id="line2d_19">
      <path d="M 35.03 97 
L 540 97 
" clip-path="url(#p6eef24ac0b)" style="fill: none; stroke: #b0b0b0; stroke-width: 0.8; stroke-linecap: square"/>
     </g>
     <g id="line2d_20">
      <defs>
       <path id="ma8c274229c" d="M 0 0 
L -3.5 0 
" style="stroke: #000000; stroke-width: 0.8"/>
      </defs>
      <g>
       <use xlink:href="#ma8c274229c" x="35.03" y="97" style="stroke: #000000; stroke-width: 0.8"/>
      </g>
     </g>
     <g id="text_11">
      <text style="font: 10px 'Times New Roman'; text-anchor: end" x="28.03" y="100.471875" transform="rotate(-0 28.03 100.471875)">0.0</text>
     </g>
    </g>
    <g id="ytick_2">
     <g id="line2d_21">
      <path d="M 35.03 56.583333 
L 540 56.583333 
" clip-path="url(#p6eef24ac0b)" style="fill: none; stroke: #b0b0b0; stroke-width: 0.8; stroke-linecap: square"/>
     </g>
     <g id="line2d_22">
      <g>
       <use xlink:href="#ma8c274229c" x="35.03" y="56.583333" style="stroke: #000000; stroke-width: 0.8"/>
      </g>
     </g>
     <g id="text_12">
      <text style="font: 10px 'Times New Roman'; text-anchor: end" x="28.03" y="60.055208" transform="rotate(-0 28.03 60.055208)">0.5</text>
     </g>
    </g>
    <g id="ytick_3">
     <g id="line2d_23">
      <path d="M 35.03 16.166667 
L 540 16.166667 
" clip-path="url(#p6eef24ac0b)" style="fill: none; stroke: #b0b0b0; stroke-width: 0.8; stroke-linecap: square"/>
     </g>
     <g id="line2d_24">
      <g>
       <use xlink:href="#ma8c274229c" x="35.03" y="16.166667" style="stroke: #000000; stroke-width: 0.8"/>
      </g>
     </g>
     <g id="text_13">
      <text style="font: 10px 'Times New Roman'; text-anchor: end" x="28.03" y="19.638542" transform="rotate(-0 28.03 19.638542)">1.0</text>
     </g>
    </g>
    <g id="text_14">
     <text style="font: 12px 'Times New Roman'; text-anchor: middle" x="8.963125" y="48.5" transform="rotate(-90 8.963125 48.5)">Normalized Value</text>
    </g>
   </g>
   <g id="line2d_25">
    <path d="M 35.03 26.944237 
L 36.235323 12.646778 
L 37.440646 11.124338 
L 38.645968 10.099219 
L 39.851291 13.973229 
L 41.056614 19.380351 
L 42.261937 16.720834 
L 43.46726 17.042576 
L 44.672583 19.910928 
L 45.877905 21.346212 
L 47.083228 20.765117 
L 49.493874 20.898879 
L 50.699197 22.426672 
L 51.90452 22.254813 
L 53.109842 21.488943 
L 54.315165 20.16809 
L 55.520488 21.078325 
L 56.725811 19.122851 
L 57.931134 18.838895 
L 59.136457 18.783228 
L 60.341779 19.014421 
L 61.547102 18.916826 
L 62.752425 19.518518 
L 63.957748 19.688246 
L 65.163071 19.070278 
L 66.368394 19.298759 
L 67.573716 18.612121 
L 68.779039 19.629189 
L 69.984362 19.316446 
L 73.600331 17.593153 
L 74.805653 17.491262 
L 76.010976 16.581464 
L 77.216299 16.056276 
L 78.421622 16.832918 
L 79.626945 16.653592 
L 80.832268 16.782844 
L 82.03759 16.382104 
L 83.242913 15.07719 
L 84.448236 15.403149 
L 85.653559 15.426725 
L 86.858882 15.906798 
L 88.064205 15.758444 
L 89.269527 16.28536 
L 90.47485 16.512348 
L 91.680173 16.512833 
L 92.885496 16.226091 
L 94.090819 16.671998 
L 95.296142 16.877752 
L 96.501464 16.952538 
L 97.706787 16.564947 
L 98.91211 15.864914 
L 100.117433 15.879069 
L 101.322756 15.780691 
L 102.528079 15.332504 
L 103.733401 14.710021 
L 104.938724 14.810857 
L 106.144047 14.439401 
L 107.34937 14.436217 
L 108.554693 14.044083 
L 109.760016 13.527857 
L 113.375984 13.64736 
L 114.581307 13.513063 
L 116.991953 13.735071 
L 118.197275 13.229152 
L 119.402598 13.254817 
L 120.607921 13.422685 
L 121.813244 13.382284 
L 124.223889 13.595765 
L 126.634535 14.082553 
L 127.839858 14.025823 
L 129.045181 14.090937 
L 130.250504 14.424544 
L 131.455826 14.621771 
L 132.661149 14.617289 
L 135.071795 15.455594 
L 136.277118 15.431763 
L 137.482441 15.597434 
L 138.687763 15.588352 
L 139.893086 15.333756 
L 142.303732 15.635376 
L 143.509055 15.075726 
L 144.714378 15.448791 
L 147.125023 15.237127 
L 150.740992 15.477589 
L 151.946315 15.4103 
L 155.562283 15.900482 
L 156.767606 15.536554 
L 157.972929 15.595215 
L 159.178252 15.384081 
L 161.588897 15.429616 
L 163.999543 15.526356 
L 165.204866 15.847461 
L 166.410189 15.606294 
L 172.436803 15.333538 
L 173.642126 15.501773 
L 176.052771 15.358366 
L 178.463417 15.673683 
L 179.66874 15.497215 
L 180.874063 15.755391 
L 182.079385 15.647451 
L 183.284708 15.815196 
L 184.490031 15.783599 
L 185.695354 15.626978 
L 186.900677 15.727777 
L 188.106 15.439077 
L 190.516645 15.735729 
L 191.721968 15.423029 
L 192.927291 15.656835 
L 194.132614 15.165192 
L 196.543259 14.840518 
L 198.953905 15.205477 
L 202.569873 15.00378 
L 203.775196 15.139669 
L 204.980519 14.867451 
L 207.391165 15.103675 
L 212.212456 14.956664 
L 213.417779 14.767611 
L 218.23907 15.297215 
L 219.444393 15.284455 
L 223.060362 15.729673 
L 229.086976 16.024392 
L 230.292299 15.974272 
L 231.497621 16.209283 
L 232.702944 15.804156 
L 233.908267 15.921617 
L 235.11359 15.694295 
L 236.318913 15.827336 
L 237.524236 15.767195 
L 241.140204 15.938906 
L 242.345527 15.828664 
L 245.961495 15.992209 
L 248.372141 15.928121 
L 250.782787 16.238099 
L 251.98811 16.080374 
L 255.604078 16.119153 
L 261.630692 15.76027 
L 262.836015 15.870901 
L 265.246661 15.885566 
L 266.451984 15.56457 
L 268.862629 15.717053 
L 270.067952 15.635477 
L 272.478598 15.641119 
L 273.683921 15.506425 
L 274.889243 15.204308 
L 277.299889 15.222573 
L 279.710535 15.331331 
L 282.12118 15.462899 
L 288.147794 15.419809 
L 291.763763 15.754109 
L 292.969086 15.404888 
L 296.585054 15.408422 
L 297.790377 15.511812 
L 298.9957 15.331241 
L 302.611668 15.335233 
L 306.227637 15.606267 
L 309.843605 15.744885 
L 312.254251 15.633355 
L 313.459574 15.74572 
L 314.664897 15.685314 
L 320.691511 16.00384 
L 325.512802 16.180024 
L 326.718125 16.286477 
L 329.128771 16.246924 
L 330.334094 15.997458 
L 335.155385 16.122726 
L 338.771353 16.07747 
L 344.797968 16.101436 
L 346.00329 15.897171 
L 347.208613 16.036009 
L 348.413936 15.815147 
L 350.824582 15.987265 
L 354.44055 16.027957 
L 355.645873 16.131372 
L 356.851196 16.040636 
L 359.261842 16.222643 
L 364.083133 16.309105 
L 368.904424 16.614496 
L 373.725715 16.550236 
L 376.136361 16.608989 
L 377.341684 16.535728 
L 379.75233 16.615155 
L 384.573621 16.652562 
L 386.984267 16.367439 
L 391.805558 16.50812 
L 396.626849 16.364033 
L 400.242818 16.34583 
L 402.653463 16.278687 
L 405.064109 16.424872 
L 407.474755 16.436632 
L 408.680078 16.190493 
L 412.296046 15.938391 
L 418.32266 15.821182 
L 419.527983 15.861739 
L 421.938629 15.82292 
L 433.991857 15.806166 
L 436.402503 15.616964 
L 440.018471 15.428873 
L 442.429117 15.556261 
L 444.839763 15.606002 
L 449.661054 15.457216 
L 468.946219 16.014798 
L 473.76751 16.211152 
L 474.972833 15.967568 
L 477.383479 16.000853 
L 483.410093 15.803196 
L 485.820739 15.891988 
L 488.231384 15.859322 
L 493.052676 16.125137 
L 494.257999 15.931206 
L 497.873967 16.0283 
L 505.105904 16.153397 
L 507.51655 16.15799 
L 508.721873 16.234759 
L 509.927195 16.154449 
L 512.337841 16.194131 
L 514.748487 16.119285 
L 515.95381 16.166667 
L 515.95381 16.166667 
" clip-path="url(#p6eef24ac0b)" style="fill: none; stroke: #4169e1; stroke-width: 1.5; stroke-linecap: square"/>
   </g>
   <g id="line2d_26">
    <path d="M 35.03 97 
L 36.235323 61.957585 
L 37.440646 72.84372 
L 38.645968 78.342353 
L 39.851291 71.782881 
L 41.056614 50.925879 
L 42.261937 50.232898 
L 43.46726 55.954566 
L 44.672583 49.231999 
L 45.877905 50.8305 
L 48.288551 57.98365 
L 49.493874 60.978253 
L 50.699197 58.349489 
L 51.90452 60.855306 
L 53.109842 61.606082 
L 54.315165 58.902825 
L 55.520488 58.604806 
L 56.725811 48.826398 
L 59.136457 53.153618 
L 61.547102 56.746373 
L 62.752425 56.996189 
L 63.957748 58.47782 
L 65.163071 58.322822 
L 66.368394 59.522634 
L 67.573716 58.678903 
L 68.779039 55.035146 
L 69.984362 55.947736 
L 71.189685 55.401685 
L 72.395008 54.140303 
L 73.600331 54.443624 
L 74.805653 55.636551 
L 76.010976 51.993952 
L 77.216299 51.589208 
L 78.421622 49.094144 
L 80.832268 51.243289 
L 82.03759 51.313549 
L 83.242913 40.751702 
L 84.448236 41.344181 
L 85.653559 42.634501 
L 86.858882 42.171213 
L 88.064205 43.223624 
L 89.269527 42.250911 
L 90.47485 43.009494 
L 91.680173 44.134294 
L 92.885496 44.536639 
L 94.090819 43.915737 
L 95.296142 44.593741 
L 96.501464 45.552657 
L 97.706787 45.184224 
L 98.91211 41.691427 
L 101.322756 43.573662 
L 102.528079 42.58263 
L 103.733401 39.734642 
L 104.938724 40.604146 
L 106.144047 40.148539 
L 107.34937 41.080426 
L 108.554693 40.374394 
L 109.760016 38.440854 
L 110.965338 39.348609 
L 115.78663 42.283438 
L 116.991953 42.88811 
L 118.197275 40.633611 
L 119.402598 41.419599 
L 120.607921 41.848568 
L 123.018567 43.198827 
L 124.223889 43.747314 
L 125.429212 43.57802 
L 126.634535 43.602485 
L 129.045181 44.855685 
L 130.250504 44.000284 
L 131.455826 44.121144 
L 132.661149 44.765729 
L 133.866472 42.293227 
L 135.071795 41.011782 
L 136.277118 41.662289 
L 137.482441 41.905813 
L 138.687763 42.537864 
L 139.893086 42.190034 
L 141.098409 42.548744 
L 142.303732 42.707299 
L 143.509055 38.47164 
L 144.714378 36.936679 
L 148.330346 38.329303 
L 149.535669 38.491042 
L 151.946315 39.601588 
L 153.151637 39.832224 
L 154.35696 39.694492 
L 155.562283 39.918317 
L 156.767606 38.184816 
L 157.972929 38.695669 
L 159.178252 38.469189 
L 161.588897 39.472923 
L 162.79422 40.005448 
L 163.999543 40.415873 
L 165.204866 39.026049 
L 166.410189 38.466313 
L 168.820834 39.420589 
L 170.026157 39.334474 
L 172.436803 39.860242 
L 173.642126 39.794862 
L 176.052771 40.558041 
L 177.258094 40.295839 
L 178.463417 40.452157 
L 179.66874 40.278887 
L 180.874063 39.361217 
L 182.079385 39.586154 
L 183.284708 39.455856 
L 184.490031 39.894987 
L 185.695354 39.822562 
L 186.900677 40.053316 
L 188.106 38.683639 
L 189.311322 38.738999 
L 190.516645 38.605417 
L 191.721968 36.872088 
L 192.927291 36.100004 
L 194.132614 31.08838 
L 195.337937 30.875371 
L 196.543259 30.856275 
L 197.748582 30.39134 
L 198.953905 30.264069 
L 201.364551 31.034157 
L 202.569873 31.358092 
L 203.775196 31.380465 
L 204.980519 30.051429 
L 207.391165 30.30132 
L 211.007133 31.642368 
L 212.212456 31.761455 
L 213.417779 31.292517 
L 214.623102 31.144093 
L 215.828425 31.407745 
L 217.033747 31.382367 
L 218.23907 31.116239 
L 219.444393 31.539785 
L 220.649716 31.054815 
L 221.855039 30.948779 
L 223.060362 30.992279 
L 225.471007 31.692359 
L 227.881653 32.455756 
L 229.086976 32.293858 
L 230.292299 32.621068 
L 231.497621 31.470366 
L 232.702944 27.253267 
L 233.908267 27.283174 
L 235.11359 26.230132 
L 236.318913 26.144669 
L 239.934881 27.173102 
L 241.140204 26.924693 
L 242.345527 26.971408 
L 244.756173 27.364978 
L 248.372141 28.471202 
L 249.577464 27.728724 
L 250.782787 27.686751 
L 251.98811 27.302074 
L 253.193432 27.631475 
L 256.809401 27.995502 
L 258.014724 28.363125 
L 259.220047 27.320628 
L 261.630692 27.993076 
L 262.836015 27.959724 
L 265.246661 28.479523 
L 266.451984 25.443174 
L 267.657306 25.526937 
L 272.478598 26.531473 
L 273.683921 26.269791 
L 274.889243 23.509709 
L 278.505212 24.462636 
L 279.710535 24.453583 
L 280.915858 24.583257 
L 285.737149 25.707437 
L 288.147794 26.333584 
L 289.353117 26.463862 
L 291.763763 25.89971 
L 292.969086 21.75648 
L 296.585054 22.684013 
L 297.790377 22.62388 
L 298.9957 21.737852 
L 302.611668 22.624073 
L 303.816991 22.359823 
L 305.022314 22.646592 
L 306.227637 22.492439 
L 307.43296 22.645748 
L 308.638283 22.469241 
L 311.048928 22.984117 
L 312.254251 23.104625 
L 313.459574 22.923162 
L 314.664897 23.095968 
L 315.87022 23.117456 
L 317.075542 22.70855 
L 318.280865 22.892184 
L 320.691511 23.39829 
L 323.102157 23.994917 
L 325.512802 24.137029 
L 326.718125 23.966755 
L 329.128771 24.524779 
L 330.334094 22.205644 
L 338.771353 23.923426 
L 339.976676 24.206832 
L 341.181999 24.286717 
L 342.387322 24.563135 
L 344.797968 24.922644 
L 346.00329 23.35556 
L 347.208613 22.782959 
L 348.413936 20.893138 
L 349.619259 20.419123 
L 354.44055 21.375003 
L 356.851196 21.076691 
L 358.056519 20.895086 
L 359.261842 20.870457 
L 360.467164 21.151352 
L 362.87781 21.475164 
L 364.083133 21.741934 
L 365.288456 21.577358 
L 366.493778 21.747133 
L 368.904424 21.668106 
L 371.31507 22.101421 
L 373.725715 22.589232 
L 374.931038 22.548959 
L 376.136361 22.790834 
L 377.341684 22.789912 
L 378.547007 22.670765 
L 380.957652 23.130865 
L 382.162975 23.025194 
L 384.573621 23.371869 
L 385.778944 22.391643 
L 386.984267 21.826851 
L 390.600235 22.159934 
L 391.805558 22.393938 
L 393.010881 22.499468 
L 394.216204 22.745454 
L 395.421526 22.360273 
L 400.242818 23.281198 
L 401.448141 23.170027 
L 402.653463 23.39931 
L 403.858786 23.106364 
L 406.269432 23.472225 
L 407.474755 23.686707 
L 408.680078 20.702867 
L 409.8854 20.336474 
L 411.090723 20.581335 
L 412.296046 19.713542 
L 413.501369 19.89256 
L 414.706692 19.816514 
L 419.527983 20.662093 
L 420.733306 20.617634 
L 424.349274 21.230377 
L 425.554597 20.894237 
L 427.965243 20.511355 
L 429.170566 20.742919 
L 431.581211 20.885643 
L 433.991857 20.949627 
L 435.19718 20.02887 
L 436.402503 20.132647 
L 437.607826 20.03271 
L 438.813148 20.260878 
L 440.018471 19.710797 
L 441.223794 19.905297 
L 442.429117 19.517179 
L 443.63444 19.525446 
L 444.839763 19.744618 
L 446.045085 19.737218 
L 453.277022 20.634768 
L 454.482345 20.542669 
L 456.892991 20.963908 
L 458.098314 20.768183 
L 460.508959 20.958906 
L 461.714282 20.642868 
L 462.919605 20.448784 
L 464.124928 20.593372 
L 467.740896 20.545619 
L 468.946219 20.598425 
L 470.151542 20.522128 
L 473.76751 20.801225 
L 474.972833 17.296896 
L 476.178156 17.372869 
L 477.383479 17.576643 
L 478.588802 17.643679 
L 482.20477 18.173541 
L 483.410093 17.552152 
L 484.615416 17.575996 
L 489.436707 18.08359 
L 490.64203 17.714375 
L 491.847353 17.884558 
L 493.052676 17.386212 
L 494.257999 15.13824 
L 495.463321 15.058243 
L 500.284613 15.600253 
L 501.489936 15.316592 
L 506.311227 16.045335 
L 507.51655 16.22904 
L 509.927195 15.806338 
L 511.132518 15.781857 
L 512.337841 15.963109 
L 513.543164 15.932784 
L 514.748487 16.118018 
L 515.95381 16.166667 
L 515.95381 16.166667 
" clip-path="url(#p6eef24ac0b)" style="fill: none; stroke-dasharray: 5.55,2.4; stroke-dashoffset: 0; stroke: #4169e1; stroke-width: 1.5"/>
   </g>
   <g id="line2d_27">
    <path d="M 35.03 28.9547 
L 36.235323 15.624876 
L 37.440646 13.304355 
L 38.645968 13.190116 
L 39.851291 15.274512 
L 41.056614 19.710781 
L 42.261937 17.55781 
L 43.46726 17.800709 
L 44.672583 20.868478 
L 45.877905 22.406773 
L 47.083228 21.450853 
L 49.493874 21.2694 
L 50.699197 22.405596 
L 51.90452 22.477242 
L 53.109842 21.69289 
L 54.315165 20.473444 
L 55.520488 20.943698 
L 56.725811 19.257429 
L 57.931134 18.911235 
L 59.136457 18.685119 
L 60.341779 18.614382 
L 61.547102 18.82052 
L 62.752425 19.555717 
L 63.957748 19.785434 
L 65.163071 19.438547 
L 66.368394 19.650456 
L 67.573716 18.839999 
L 68.779039 19.778076 
L 69.984362 19.45562 
L 72.395008 18.123131 
L 73.600331 17.834979 
L 74.805653 17.705163 
L 76.010976 16.900882 
L 77.216299 16.483232 
L 78.421622 17.232126 
L 79.626945 17.114165 
L 80.832268 17.367865 
L 82.03759 16.958106 
L 83.242913 15.762002 
L 84.448236 15.975886 
L 85.653559 15.972337 
L 86.858882 16.324435 
L 88.064205 16.300456 
L 89.269527 16.660753 
L 91.680173 16.962594 
L 92.885496 16.64222 
L 94.090819 17.042054 
L 96.501464 17.378702 
L 97.706787 16.996974 
L 98.91211 16.313236 
L 100.117433 16.397708 
L 101.322756 16.352556 
L 102.528079 16.02353 
L 103.733401 15.439734 
L 104.938724 15.550158 
L 106.144047 15.187143 
L 107.34937 15.107065 
L 109.760016 14.354319 
L 115.78663 14.227048 
L 116.991953 14.332075 
L 118.197275 13.852494 
L 119.402598 13.856614 
L 120.607921 14.024278 
L 121.813244 13.962823 
L 124.223889 14.197882 
L 126.634535 14.613688 
L 129.045181 14.644161 
L 130.250504 15.010431 
L 131.455826 15.161801 
L 132.661149 15.176067 
L 135.071795 15.882166 
L 136.277118 15.843319 
L 137.482441 15.967678 
L 138.687763 15.928104 
L 139.893086 15.750074 
L 142.303732 16.010702 
L 143.509055 15.652456 
L 144.714378 16.021472 
L 147.125023 15.892419 
L 150.740992 16.078493 
L 151.946315 16.047724 
L 155.562283 16.376276 
L 156.767606 16.142542 
L 157.972929 16.153962 
L 159.178252 15.977966 
L 163.999543 16.088836 
L 165.204866 16.342993 
L 166.410189 16.065392 
L 170.026157 15.919107 
L 171.23148 16.026993 
L 172.436803 15.933196 
L 173.642126 16.107762 
L 176.052771 15.877186 
L 178.463417 16.183208 
L 179.66874 15.959368 
L 180.874063 16.151406 
L 182.079385 16.084918 
L 183.284708 16.218986 
L 184.490031 16.207461 
L 185.695354 16.047813 
L 186.900677 16.092521 
L 188.106 15.77968 
L 190.516645 16.087479 
L 191.721968 15.835563 
L 192.927291 16.040825 
L 194.132614 15.551333 
L 196.543259 15.17631 
L 198.953905 15.560826 
L 201.364551 15.461053 
L 202.569873 15.377759 
L 203.775196 15.536652 
L 204.980519 15.300632 
L 207.391165 15.506009 
L 212.212456 15.300713 
L 213.417779 15.090809 
L 218.23907 15.628844 
L 219.444393 15.602406 
L 221.855039 15.880031 
L 226.67633 15.981923 
L 230.292299 16.062903 
L 231.497621 16.270252 
L 232.702944 15.979771 
L 233.908267 16.060067 
L 235.11359 15.860258 
L 236.318913 15.948394 
L 237.524236 15.872682 
L 245.961495 16.175448 
L 248.372141 16.127443 
L 250.782787 16.433462 
L 251.98811 16.249914 
L 254.398755 16.409092 
L 256.809401 16.244221 
L 258.014724 16.226052 
L 259.220047 16.020334 
L 261.630692 15.96836 
L 262.836015 16.073979 
L 265.246661 16.091355 
L 266.451984 15.81737 
L 268.862629 15.943996 
L 270.067952 15.850871 
L 272.478598 15.840864 
L 273.683921 15.75571 
L 274.889243 15.487934 
L 277.299889 15.5444 
L 280.915858 15.689768 
L 283.326503 15.718085 
L 286.942472 15.643268 
L 290.55844 15.815879 
L 291.763763 15.926242 
L 292.969086 15.570344 
L 296.585054 15.595101 
L 297.790377 15.683737 
L 298.9957 15.490142 
L 302.611668 15.4661 
L 303.816991 15.603247 
L 306.227637 15.742512 
L 309.843605 15.912937 
L 312.254251 15.811773 
L 313.459574 15.913119 
L 314.664897 15.880268 
L 318.280865 16.111451 
L 320.691511 16.131208 
L 324.307479 16.251195 
L 327.923448 16.391302 
L 329.128771 16.353807 
L 330.334094 16.120229 
L 344.797968 16.217966 
L 346.00329 16.037466 
L 347.208613 16.157369 
L 348.413936 15.97689 
L 350.824582 16.114335 
L 354.44055 16.131169 
L 355.645873 16.227131 
L 356.851196 16.152633 
L 360.467164 16.321563 
L 371.31507 16.641481 
L 379.75233 16.697799 
L 384.573621 16.726439 
L 386.984267 16.48391 
L 391.805558 16.603433 
L 396.626849 16.488032 
L 400.242818 16.469291 
L 401.448141 16.358358 
L 407.474755 16.502502 
L 408.680078 16.287807 
L 414.706692 15.939994 
L 426.75992 15.898117 
L 429.170566 15.980508 
L 441.223794 15.558412 
L 443.63444 15.711922 
L 448.455731 15.63957 
L 450.866377 15.634995 
L 470.151542 16.146647 
L 473.76751 16.264926 
L 474.972833 16.043635 
L 477.383479 16.086459 
L 479.794125 16.027405 
L 482.20477 15.997937 
L 483.410093 15.886926 
L 487.026062 15.920886 
L 491.847353 16.055936 
L 493.052676 16.162178 
L 494.257999 15.966662 
L 497.873967 16.044165 
L 507.51655 16.184636 
L 508.721873 16.26289 
L 509.927195 16.190686 
L 512.337841 16.213895 
L 514.748487 16.128711 
L 515.95381 16.166667 
L 515.95381 16.166667 
" clip-path="url(#p6eef24ac0b)" style="fill: none; stroke: #ff8c00; stroke-width: 1.5; stroke-linecap: square"/>
   </g>
   <g id="line2d_28">
    <path d="M 35.03 97 
L 36.235323 60.63365 
L 37.440646 70.551561 
L 38.645968 77.155657 
L 39.851291 77.56763 
L 41.056614 60.666482 
L 42.261937 60.164803 
L 43.46726 64.684675 
L 44.672583 52.865847 
L 45.877905 52.920407 
L 47.083228 55.05742 
L 48.288551 58.519489 
L 49.493874 61.470652 
L 50.699197 60.573669 
L 51.90452 62.987382 
L 53.109842 63.224462 
L 54.315165 60.34163 
L 55.520488 61.608785 
L 56.725811 52.995935 
L 61.547102 59.840549 
L 62.752425 58.844455 
L 63.957748 60.111469 
L 65.163071 60.914559 
L 66.368394 62.012099 
L 67.573716 59.631933 
L 68.779039 55.877523 
L 69.984362 56.631123 
L 71.189685 55.36092 
L 72.395008 53.683132 
L 73.600331 54.45196 
L 74.805653 55.589553 
L 76.010976 52.271328 
L 77.216299 52.264272 
L 78.421622 49.341025 
L 79.626945 50.489836 
L 80.832268 51.181825 
L 82.03759 50.987073 
L 83.242913 40.396856 
L 84.448236 41.360672 
L 85.653559 42.654501 
L 86.858882 42.798571 
L 88.064205 43.99787 
L 89.269527 43.954496 
L 90.47485 44.692042 
L 91.680173 45.68935 
L 92.885496 45.728163 
L 94.090819 45.15033 
L 95.296142 45.694879 
L 96.501464 46.526514 
L 97.706787 45.928021 
L 98.91211 41.802652 
L 101.322756 43.673581 
L 102.528079 43.368343 
L 103.733401 40.317006 
L 104.938724 41.132989 
L 106.144047 40.472807 
L 107.34937 41.320735 
L 108.554693 40.696315 
L 109.760016 39.523641 
L 113.375984 42.020669 
L 115.78663 43.601587 
L 116.991953 44.221958 
L 118.197275 41.727869 
L 119.402598 42.506107 
L 120.607921 42.854469 
L 123.018567 44.184637 
L 124.223889 44.488141 
L 125.429212 44.625651 
L 126.634535 44.511874 
L 129.045181 45.812941 
L 130.250504 44.283674 
L 131.455826 44.559328 
L 132.661149 45.195474 
L 133.866472 43.074395 
L 135.071795 42.170559 
L 136.277118 42.789667 
L 137.482441 43.150977 
L 138.687763 43.742367 
L 139.893086 43.783206 
L 141.098409 44.176218 
L 142.303732 44.331381 
L 144.714378 40.601801 
L 153.151637 43.83435 
L 154.35696 43.754685 
L 155.562283 44.20266 
L 156.767606 43.590964 
L 157.972929 44.106776 
L 159.178252 43.962394 
L 162.79422 45.435948 
L 163.999543 45.80143 
L 165.204866 44.843306 
L 166.410189 43.598291 
L 170.026157 44.801902 
L 172.436803 45.237571 
L 173.642126 44.966555 
L 174.847448 44.910518 
L 176.052771 45.177543 
L 177.258094 44.693692 
L 178.463417 44.82995 
L 179.66874 44.030532 
L 180.874063 43.551409 
L 182.079385 43.875567 
L 183.284708 43.8515 
L 184.490031 44.273317 
L 185.695354 44.039724 
L 186.900677 44.40519 
L 188.106 42.272185 
L 189.311322 42.179249 
L 190.516645 41.862021 
L 191.721968 40.594394 
L 192.927291 39.892061 
L 194.132614 33.848286 
L 198.953905 31.761933 
L 200.159228 32.219267 
L 202.569873 32.783935 
L 203.775196 32.515957 
L 204.980519 31.362505 
L 206.185842 31.360683 
L 208.596488 31.978633 
L 211.007133 32.799887 
L 212.212456 32.748285 
L 213.417779 31.844888 
L 214.623102 31.548273 
L 215.828425 31.670299 
L 217.033747 31.34381 
L 218.23907 31.278563 
L 219.444393 31.683437 
L 220.649716 31.253944 
L 221.855039 31.268017 
L 225.471007 32.371654 
L 227.881653 33.110775 
L 229.086976 33.005335 
L 230.292299 33.154626 
L 231.497621 32.109621 
L 232.702944 29.670658 
L 233.908267 29.858528 
L 235.11359 28.904176 
L 237.524236 29.249009 
L 239.934881 29.951325 
L 241.140204 29.617699 
L 242.345527 29.633603 
L 245.961495 30.218414 
L 248.372141 30.920574 
L 249.577464 29.73539 
L 250.782787 29.746647 
L 251.98811 28.877071 
L 253.193432 29.098983 
L 254.398755 29.133565 
L 255.604078 28.843576 
L 258.014724 29.525002 
L 259.220047 28.274788 
L 261.630692 28.949387 
L 262.836015 28.876036 
L 265.246661 29.506238 
L 266.451984 26.906068 
L 268.862629 27.308247 
L 270.067952 27.317703 
L 272.478598 27.828577 
L 273.683921 27.882327 
L 274.889243 25.30748 
L 276.094566 25.648102 
L 277.299889 25.762011 
L 278.505212 26.107342 
L 280.915858 26.422052 
L 289.353117 28.473445 
L 290.55844 28.403902 
L 291.763763 28.193467 
L 292.969086 22.965742 
L 295.379731 23.593258 
L 297.790377 23.670418 
L 298.9957 22.323842 
L 302.611668 23.248294 
L 303.816991 22.719057 
L 305.022314 23.025785 
L 306.227637 22.7263 
L 307.43296 22.743386 
L 308.638283 22.422001 
L 311.048928 22.921644 
L 312.254251 23.109863 
L 313.459574 22.942764 
L 314.664897 23.209363 
L 315.87022 23.118945 
L 317.075542 22.828725 
L 319.486188 23.335973 
L 320.691511 23.461046 
L 323.102157 24.039484 
L 324.307479 24.008113 
L 325.512802 24.11187 
L 326.718125 23.981415 
L 329.128771 24.493876 
L 330.334094 22.052841 
L 331.539416 22.346546 
L 332.744739 22.43339 
L 339.976676 24.06104 
L 341.181999 24.124337 
L 342.387322 24.404402 
L 343.592645 24.385298 
L 344.797968 24.646819 
L 346.00329 23.205789 
L 347.208613 22.727515 
L 348.413936 21.278771 
L 349.619259 21.003721 
L 353.235227 21.760403 
L 354.44055 22.036269 
L 355.645873 21.815694 
L 356.851196 21.792953 
L 358.056519 21.638116 
L 359.261842 21.658423 
L 361.672487 22.091976 
L 364.083133 22.593459 
L 365.288456 22.500098 
L 366.493778 22.7102 
L 368.904424 22.451813 
L 371.31507 22.77152 
L 373.725715 23.273387 
L 374.931038 23.325085 
L 376.136361 23.582949 
L 377.341684 23.632829 
L 378.547007 23.5304 
L 380.957652 23.998248 
L 382.162975 23.861262 
L 384.573621 24.177599 
L 385.778944 23.288725 
L 386.984267 22.89036 
L 394.216204 23.876115 
L 395.421526 23.631166 
L 399.037495 24.213624 
L 400.242818 24.449248 
L 401.448141 23.921437 
L 402.653463 24.123877 
L 403.858786 23.949191 
L 405.064109 24.002668 
L 407.474755 24.394734 
L 408.680078 21.703657 
L 409.8854 21.440133 
L 411.090723 21.665776 
L 412.296046 20.718003 
L 413.501369 20.897507 
L 414.706692 20.769327 
L 418.32266 21.401283 
L 419.527983 21.534384 
L 420.733306 21.331865 
L 424.349274 21.976511 
L 425.554597 21.694433 
L 426.75992 21.57811 
L 427.965243 21.316613 
L 429.170566 21.546538 
L 430.375889 21.658359 
L 431.581211 21.558061 
L 433.991857 21.779699 
L 435.19718 21.026594 
L 436.402503 21.143432 
L 437.607826 20.95327 
L 438.813148 21.17714 
L 440.018471 20.526563 
L 441.223794 20.683429 
L 442.429117 20.26509 
L 443.63444 20.264833 
L 444.839763 20.489778 
L 446.045085 20.417021 
L 448.455731 20.851612 
L 450.866377 20.974371 
L 453.277022 21.345569 
L 454.482345 21.239241 
L 456.892991 21.614348 
L 458.098314 21.47327 
L 460.508959 21.610731 
L 462.919605 21.181959 
L 464.124928 21.334395 
L 466.535573 21.341266 
L 470.151542 21.443401 
L 471.356865 21.399412 
L 473.76751 21.675564 
L 474.972833 18.223136 
L 476.178156 18.218995 
L 477.383479 18.423617 
L 478.588802 18.429394 
L 480.999447 18.819334 
L 482.20477 18.843583 
L 483.410093 18.114859 
L 487.026062 18.338478 
L 489.436707 18.681392 
L 490.64203 18.299829 
L 491.847353 18.505246 
L 493.052676 17.833404 
L 494.257999 15.059788 
L 495.463321 15.050104 
L 497.873967 15.36749 
L 500.284613 15.74465 
L 501.489936 15.520734 
L 506.311227 16.232302 
L 507.51655 16.403468 
L 509.927195 15.899849 
L 511.132518 15.863847 
L 512.337841 15.988474 
L 513.543164 15.96254 
L 515.95381 16.166667 
L 515.95381 16.166667 
" clip-path="url(#p6eef24ac0b)" style="fill: none; stroke-dasharray: 5.55,2.4; stroke-dashoffset: 0; stroke: #ff8c00; stroke-width: 1.5"/>
   </g>
   <g id="patch_3">
    <path d="M 35.03 97 
L 35.03 0 
" style="fill: none; stroke: #000000; stroke-width: 0.8; stroke-linejoin: miter; stroke-linecap: square"/>
   </g>
   <g id="patch_4">
    <path d="M 540 97 
L 540 0 
" style="fill: none; stroke: #000000; stroke-width: 0.8; stroke-linejoin: miter; stroke-linecap: square"/>
   </g>
   <g id="patch_5">
    <path d="M 35.03 97 
L 540 97 
" style="fill: none; stroke: #000000; stroke-width: 0.8; stroke-linejoin: miter; stroke-linecap: square"/>
   </g>
   <g id="patch_6">
    <path d="M 35.03 0 
L 540 0 
" style="fill: none; stroke: #000000; stroke-width: 0.8; stroke-linejoin: miter; stroke-linecap: square"/>
   </g>
  </g>
 </g>
 <defs>
  <clipPath id="p6eef24ac0b">
   <rect x="35.03" y="0" width="504.97" height="97"/>
  </clipPath>
 </defs>
</svg>
