<?xml version="1.0" encoding="utf-8" standalone="no"?>
<!DOCTYPE svg PUBLIC "-//W3C//DTD SVG 1.1//EN"
  "http://www.w3.org/Graphics/SVG/1.1/DTD/svg11.dtd">
<svg xmlns:xlink="http://www.w3.org/1999/xlink" width="540pt" height="129.6pt" viewBox="0 0 540 129.6" xmlns="http://www.w3.org/2000/svg" version="1.1">
 <metadata>
  <rdf:RDF xmlns:dc="http://purl.org/dc/elements/1.1/" xmlns:cc="http://creativecommons.org/ns#" xmlns:rdf="http://www.w3.org/1999/02/22-rdf-syntax-ns#">
   <cc:Work>
    <dc:type rdf:resource="http://purl.org/dc/dcmitype/StillImage"/>
    <dc:date>2025-04-06T01:54:31.820242</dc:date>
    <dc:format>image/svg+xml</dc:format>
    <dc:creator>
     <cc:Agent>
      <dc:title>Matplotlib v3.10.1, https://matplotlib.org/</dc:title>
     </cc:Agent>
    </dc:creator>
   </cc:Work>
  </rdf:RDF>
 </metadata>
 <defs>
  <style type="text/css">*{stroke-linejoin: round; stroke-linecap: butt}</style>
 </defs>
 <g id="figure_1">
  <g id="patch_1">
   <path d="M 0 129.6 
L 540 129.6 
L 540 0 
L 0 0 
z
" style="fill: #ffffff"/>
  </g>
  <g id="axes_1">
   <g id="patch_2">
    <path d="M 26.795 98.44 
L 540 98.44 
L 540 0 
L 26.795 0 
z
" style="fill: #ffffff"/>
   </g>
   <g id="matplotlib.axis_1">
    <g id="xtick_1">
     <g id="line2d_1">
      <path d="M 26.795 98.44 
L 26.795 0 
" clip-path="url(#p9cab5f5649)" style="fill: none; stroke: #b0b0b0; stroke-width: 0.8; stroke-linecap: square"/>
     </g>
     <g id="line2d_2">
      <defs>
       <path id="m95b0e0539c" d="M 0 0 
L 0 3.5 
" style="stroke: #000000; stroke-width: 0.8"/>
      </defs>
      <g>
       <use xlink:href="#m95b0e0539c" x="26.795" y="98.44" style="stroke: #000000; stroke-width: 0.8"/>
      </g>
     </g>
     <g id="text_1">
      <text style="font-size: 10px; font-family: 'Times New Roman'; text-anchor: middle" x="26.795" y="112.38375" transform="rotate(-0 26.795 112.38375)">0</text>
     </g>
    </g>
    <g id="xtick_2">
     <g id="line2d_3">
      <path d="M 88.043956 98.44 
L 88.043956 0 
" clip-path="url(#p9cab5f5649)" style="fill: none; stroke: #b0b0b0; stroke-width: 0.8; stroke-linecap: square"/>
     </g>
     <g id="line2d_4">
      <g>
       <use xlink:href="#m95b0e0539c" x="88.043956" y="98.44" style="stroke: #000000; stroke-width: 0.8"/>
      </g>
     </g>
     <g id="text_2">
      <text style="font-size: 10px; font-family: 'Times New Roman'; text-anchor: middle" x="88.043956" y="112.38375" transform="rotate(-0 88.043956 112.38375)">50</text>
     </g>
    </g>
    <g id="xtick_3">
     <g id="line2d_5">
      <path d="M 149.292911 98.44 
L 149.292911 0 
" clip-path="url(#p9cab5f5649)" style="fill: none; stroke: #b0b0b0; stroke-width: 0.8; stroke-linecap: square"/>
     </g>
     <g id="line2d_6">
      <g>
       <use xlink:href="#m95b0e0539c" x="149.292911" y="98.44" style="stroke: #000000; stroke-width: 0.8"/>
      </g>
     </g>
     <g id="text_3">
      <text style="font-size: 10px; font-family: 'Times New Roman'; text-anchor: middle" x="149.292911" y="112.38375" transform="rotate(-0 149.292911 112.38375)">100</text>
     </g>
    </g>
    <g id="xtick_4">
     <g id="line2d_7">
      <path d="M 210.541867 98.44 
L 210.541867 0 
" clip-path="url(#p9cab5f5649)" style="fill: none; stroke: #b0b0b0; stroke-width: 0.8; stroke-linecap: square"/>
     </g>
     <g id="line2d_8">
      <g>
       <use xlink:href="#m95b0e0539c" x="210.541867" y="98.44" style="stroke: #000000; stroke-width: 0.8"/>
      </g>
     </g>
     <g id="text_4">
      <text style="font-size: 10px; font-family: 'Times New Roman'; text-anchor: middle" x="210.541867" y="112.38375" transform="rotate(-0 210.541867 112.38375)">150</text>
     </g>
    </g>
    <g id="xtick_5">
     <g id="line2d_9">
      <path d="M 271.790823 98.44 
L 271.790823 0 
" clip-path="url(#p9cab5f5649)" style="fill: none; stroke: #b0b0b0; stroke-width: 0.8; stroke-linecap: square"/>
     </g>
     <g id="line2d_10">
      <g>
       <use xlink:href="#m95b0e0539c" x="271.790823" y="98.44" style="stroke: #000000; stroke-width: 0.8"/>
      </g>
     </g>
     <g id="text_5">
      <text style="font-size: 10px; font-family: 'Times New Roman'; text-anchor: middle" x="271.790823" y="112.38375" transform="rotate(-0 271.790823 112.38375)">200</text>
     </g>
    </g>
    <g id="xtick_6">
     <g id="line2d_11">
      <path d="M 333.039779 98.44 
L 333.039779 0 
" clip-path="url(#p9cab5f5649)" style="fill: none; stroke: #b0b0b0; stroke-width: 0.8; stroke-linecap: square"/>
     </g>
     <g id="line2d_12">
      <g>
       <use xlink:href="#m95b0e0539c" x="333.039779" y="98.44" style="stroke: #000000; stroke-width: 0.8"/>
      </g>
     </g>
     <g id="text_6">
      <text style="font-size: 10px; font-family: 'Times New Roman'; text-anchor: middle" x="333.039779" y="112.38375" transform="rotate(-0 333.039779 112.38375)">250</text>
     </g>
    </g>
    <g id="xtick_7">
     <g id="line2d_13">
      <path d="M 394.288734 98.44 
L 394.288734 0 
" clip-path="url(#p9cab5f5649)" style="fill: none; stroke: #b0b0b0; stroke-width: 0.8; stroke-linecap: square"/>
     </g>
     <g id="line2d_14">
      <g>
       <use xlink:href="#m95b0e0539c" x="394.288734" y="98.44" style="stroke: #000000; stroke-width: 0.8"/>
      </g>
     </g>
     <g id="text_7">
      <text style="font-size: 10px; font-family: 'Times New Roman'; text-anchor: middle" x="394.288734" y="112.38375" transform="rotate(-0 394.288734 112.38375)">300</text>
     </g>
    </g>
    <g id="xtick_8">
     <g id="line2d_15">
      <path d="M 455.53769 98.44 
L 455.53769 0 
" clip-path="url(#p9cab5f5649)" style="fill: none; stroke: #b0b0b0; stroke-width: 0.8; stroke-linecap: square"/>
     </g>
     <g id="line2d_16">
      <g>
       <use xlink:href="#m95b0e0539c" x="455.53769" y="98.44" style="stroke: #000000; stroke-width: 0.8"/>
      </g>
     </g>
     <g id="text_8">
      <text style="font-size: 10px; font-family: 'Times New Roman'; text-anchor: middle" x="455.53769" y="112.38375" transform="rotate(-0 455.53769 112.38375)">350</text>
     </g>
    </g>
    <g id="xtick_9">
     <g id="line2d_17">
      <path d="M 516.786646 98.44 
L 516.786646 0 
" clip-path="url(#p9cab5f5649)" style="fill: none; stroke: #b0b0b0; stroke-width: 0.8; stroke-linecap: square"/>
     </g>
     <g id="line2d_18">
      <g>
       <use xlink:href="#m95b0e0539c" x="516.786646" y="98.44" style="stroke: #000000; stroke-width: 0.8"/>
      </g>
     </g>
     <g id="text_9">
      <text style="font-size: 10px; font-family: 'Times New Roman'; text-anchor: middle" x="516.786646" y="112.38375" transform="rotate(-0 516.786646 112.38375)">400</text>
     </g>
    </g>
    <g id="text_10">
     <text style="font-size: 12px; font-family: 'Times New Roman'; text-anchor: middle" x="283.3975" y="126.855312" transform="rotate(-0 283.3975 126.855312)">Simulation Run</text>
    </g>
   </g>
   <g id="matplotlib.axis_2">
    <g id="ytick_1">
     <g id="line2d_19">
      <path d="M 26.795 98.44 
L 540 98.44 
" clip-path="url(#p9cab5f5649)" style="fill: none; stroke: #b0b0b0; stroke-width: 0.8; stroke-linecap: square"/>
     </g>
     <g id="line2d_20">
      <defs>
       <path id="ma0f0883394" d="M 0 0 
L -3.5 0 
" style="stroke: #000000; stroke-width: 0.8"/>
      </defs>
      <g>
       <use xlink:href="#ma0f0883394" x="26.795" y="98.44" style="stroke: #000000; stroke-width: 0.8"/>
      </g>
     </g>
     <g id="text_11">
      <text style="font-size: 10px; font-family: 'Times New Roman'; text-anchor: end" x="19.795" y="101.911875" transform="rotate(-0 19.795 101.911875)">0</text>
     </g>
    </g>
    <g id="ytick_2">
     <g id="line2d_21">
      <path d="M 26.795 53.694545 
L 540 53.694545 
" clip-path="url(#p9cab5f5649)" style="fill: none; stroke: #b0b0b0; stroke-width: 0.8; stroke-linecap: square"/>
     </g>
     <g id="line2d_22">
      <g>
       <use xlink:href="#ma0f0883394" x="26.795" y="53.694545" style="stroke: #000000; stroke-width: 0.8"/>
      </g>
     </g>
     <g id="text_12">
      <text style="font-size: 10px; font-family: 'Times New Roman'; text-anchor: end" x="19.795" y="57.16642" transform="rotate(-0 19.795 57.16642)">1</text>
     </g>
    </g>
    <g id="ytick_3">
     <g id="line2d_23">
      <path d="M 26.795 8.949091 
L 540 8.949091 
" clip-path="url(#p9cab5f5649)" style="fill: none; stroke: #b0b0b0; stroke-width: 0.8; stroke-linecap: square"/>
     </g>
     <g id="line2d_24">
      <g>
       <use xlink:href="#ma0f0883394" x="26.795" y="8.949091" style="stroke: #000000; stroke-width: 0.8"/>
      </g>
     </g>
     <g id="text_13">
      <text style="font-size: 10px; font-family: 'Times New Roman'; text-anchor: end" x="19.795" y="12.420966" transform="rotate(-0 19.795 12.420966)">2</text>
     </g>
    </g>
    <g id="text_14">
     <text style="font-size: 12px; font-family: 'Times New Roman'; text-anchor: middle" x="8.228125" y="49.22" transform="rotate(-90 8.228125 49.22)">Normalized Value</text>
    </g>
   </g>
   <g id="line2d_25">
    <path d="M 26.795 23.252738 
L 28.019979 29.447575 
L 29.244958 40.966296 
L 31.694916 48.139396 
L 32.919896 50.830768 
L 34.144875 50.367718 
L 35.369854 52.297306 
L 36.594833 53.515183 
L 37.819812 51.889484 
L 39.044791 52.958533 
L 40.26977 50.936062 
L 41.494749 50.652253 
L 42.719728 50.727441 
L 43.944708 50.30921 
L 45.169687 49.481047 
L 47.619645 49.613373 
L 53.744541 49.115474 
L 54.96952 49.951754 
L 56.194499 49.984751 
L 58.644457 50.618273 
L 59.869436 51.157334 
L 61.094415 50.127468 
L 62.319394 50.317163 
L 63.544373 49.807337 
L 64.769353 49.960077 
L 67.219311 50.849316 
L 68.44429 50.480323 
L 69.669269 50.664033 
L 70.894248 50.666796 
L 72.119227 51.299987 
L 73.344206 51.255097 
L 74.569185 51.453614 
L 77.019144 51.283609 
L 79.469102 51.770416 
L 80.694081 51.941864 
L 81.91906 51.596078 
L 83.144039 51.61307 
L 84.369018 51.793579 
L 86.818977 52.009244 
L 89.268935 52.357489 
L 91.718893 52.199904 
L 92.943872 51.687812 
L 94.168851 51.877825 
L 95.39383 51.716536 
L 96.61881 51.24348 
L 99.068768 51.627143 
L 100.293747 51.725628 
L 101.518726 51.563997 
L 103.968684 52.156239 
L 105.193663 52.232268 
L 106.418642 51.932472 
L 107.643622 51.861181 
L 108.868601 51.650639 
L 112.543538 51.897643 
L 113.768517 52.288731 
L 116.218475 52.536283 
L 118.668434 52.875127 
L 119.893413 53.094645 
L 123.56835 53.229231 
L 132.143204 53.130644 
L 133.368183 53.02422 
L 134.593162 53.190949 
L 143.168016 53.469716 
L 144.392995 53.270671 
L 148.067932 53.174398 
L 150.517891 53.004432 
L 151.74287 52.948041 
L 152.967849 53.147599 
L 155.417807 53.079213 
L 156.642786 52.970157 
L 159.092744 53.298376 
L 160.317723 53.312872 
L 162.767682 52.97051 
L 166.442619 52.936653 
L 167.667598 53.08476 
L 170.117556 53.088711 
L 172.567515 53.083213 
L 173.792494 53.24669 
L 178.69241 53.426527 
L 182.367348 53.221966 
L 184.817306 53.406635 
L 186.042285 53.435849 
L 190.942201 52.976323 
L 192.16718 53.086227 
L 195.842118 52.98024 
L 215.441784 53.111154 
L 222.791658 53.231511 
L 226.466596 53.161448 
L 228.916554 53.265359 
L 231.366512 53.184994 
L 235.041449 53.305603 
L 236.266429 53.186059 
L 239.941366 53.284112 
L 242.391324 53.260177 
L 248.51622 53.625931 
L 250.966178 53.599196 
L 252.191157 53.587333 
L 253.416136 53.706213 
L 254.641115 53.59833 
L 261.99099 53.654901 
L 263.215969 53.542095 
L 269.340865 53.592347 
L 271.790823 53.481192 
L 275.46576 53.551353 
L 280.365677 53.516567 
L 288.94053 53.872676 
L 291.390489 53.76333 
L 297.515384 53.649555 
L 299.965343 53.734705 
L 304.865259 53.767364 
L 307.315217 53.627215 
L 309.765175 53.702459 
L 310.990155 53.521704 
L 314.665092 53.471427 
L 317.11505 53.440098 
L 320.789987 53.420941 
L 324.464925 53.374408 
L 326.914883 53.435852 
L 329.364841 53.362007 
L 331.814799 53.455098 
L 334.264758 53.553306 
L 339.164674 53.442942 
L 341.614632 53.526104 
L 342.839612 53.415799 
L 345.28957 53.400442 
L 348.964507 53.385287 
L 351.414465 53.401924 
L 361.214298 53.630385 
L 362.439277 53.521497 
L 366.114215 53.501059 
L 368.564173 53.519039 
L 374.689069 53.597754 
L 378.364006 53.510499 
L 386.93886 53.69756 
L 390.613797 53.654121 
L 396.738693 53.827399 
L 397.963672 53.678322 
L 401.638609 53.655199 
L 405.313546 53.663038 
L 408.988484 53.756941 
L 417.563338 53.924106 
L 420.013296 53.835906 
L 423.688233 53.848955 
L 426.138191 53.854268 
L 429.813129 53.877751 
L 431.038108 53.726897 
L 433.488066 53.716503 
L 435.938024 53.702591 
L 467.787481 53.561032 
L 471.462419 53.562776 
L 486.162168 53.665656 
L 488.612126 53.642719 
L 492.287063 53.530768 
L 494.737022 53.526567 
L 498.411959 53.534195 
L 515.561667 53.694545 
L 515.561667 53.694545 
" clip-path="url(#p9cab5f5649)" style="fill: none; stroke: #4169e1; stroke-width: 1.5; stroke-linecap: square"/>
   </g>
   <g id="line2d_26">
    <path d="M 26.795 98.44 
L 28.019979 86.761791 
L 29.244958 9.902211 
L 30.469937 19.296584 
L 31.694916 20.742341 
L 32.919896 22.670624 
L 34.144875 33.103328 
L 35.369854 33.339124 
L 36.594833 36.961673 
L 37.819812 35.871159 
L 39.044791 38.081374 
L 40.26977 29.419032 
L 42.719728 38.983678 
L 43.944708 42.202228 
L 45.169687 42.586399 
L 46.394666 45.858495 
L 47.619645 48.746707 
L 50.069603 53.669344 
L 51.294582 55.277544 
L 52.519561 57.235205 
L 53.744541 58.965138 
L 54.96952 55.714982 
L 56.194499 57.416031 
L 57.419478 58.35272 
L 58.644457 58.905406 
L 59.869436 57.92979 
L 61.094415 50.289459 
L 62.319394 51.576917 
L 63.544373 50.715721 
L 64.769353 51.987025 
L 65.994332 51.050156 
L 67.219311 50.84874 
L 68.44429 50.799744 
L 69.669269 51.763626 
L 70.894248 53.025066 
L 72.119227 49.705929 
L 73.344206 50.932219 
L 74.569185 51.652202 
L 77.019144 53.697569 
L 78.244123 53.728929 
L 79.469102 54.190812 
L 80.694081 54.780544 
L 81.91906 54.092301 
L 83.144039 55.031827 
L 84.369018 55.47014 
L 85.593997 56.305944 
L 88.043956 57.194911 
L 89.268935 57.422682 
L 90.493914 58.182396 
L 91.718893 58.665179 
L 92.943872 55.079053 
L 94.168851 55.249061 
L 95.39383 55.563478 
L 96.61881 52.421084 
L 97.843789 52.216074 
L 99.068768 52.596233 
L 100.293747 53.170675 
L 101.518726 53.415875 
L 102.743705 52.543957 
L 103.968684 51.509606 
L 105.193663 52.119032 
L 106.418642 51.043075 
L 107.643622 51.648412 
L 108.868601 51.432731 
L 110.09358 51.968658 
L 111.318559 52.260297 
L 112.543538 52.891477 
L 113.768517 50.219452 
L 114.993496 50.756405 
L 116.218475 50.740192 
L 117.443454 50.961273 
L 118.668434 50.644498 
L 119.893413 50.150739 
L 121.118392 50.612625 
L 122.343371 50.772472 
L 123.56835 51.197339 
L 124.793329 51.780488 
L 126.018308 52.112852 
L 128.468266 53.081892 
L 129.693246 53.461567 
L 130.918225 53.969871 
L 132.143204 53.852742 
L 133.368183 54.059562 
L 134.593162 53.813795 
L 135.818141 54.278178 
L 137.04312 54.452412 
L 139.493079 55.244751 
L 141.943037 56.11565 
L 143.168016 55.963496 
L 144.392995 55.24398 
L 146.842953 56.074658 
L 148.067932 56.182651 
L 149.292911 56.036354 
L 151.74287 56.726362 
L 152.967849 55.879232 
L 155.417807 56.594485 
L 156.642786 56.601925 
L 157.867765 56.223526 
L 159.092744 55.605917 
L 160.317723 55.988347 
L 161.542703 54.98667 
L 162.767682 54.721854 
L 163.992661 55.093539 
L 166.442619 55.23249 
L 167.667598 54.837317 
L 172.567515 56.15021 
L 173.792494 55.523804 
L 177.467431 56.323489 
L 178.69241 56.34385 
L 179.917389 56.511704 
L 181.142368 56.839822 
L 182.367348 56.49975 
L 183.592327 56.030654 
L 186.042285 56.576048 
L 187.267264 56.424112 
L 188.492243 55.679654 
L 190.942201 55.59311 
L 192.16718 55.411937 
L 193.39216 55.589934 
L 199.517055 57.003274 
L 201.967013 57.425554 
L 204.416972 57.858849 
L 206.86693 58.356224 
L 209.316888 57.738147 
L 210.541867 57.829614 
L 211.766846 57.693639 
L 212.991825 57.93556 
L 214.216805 57.981474 
L 215.441784 57.574881 
L 216.666763 57.792027 
L 217.891742 57.649604 
L 220.3417 58.070255 
L 221.566679 58.066544 
L 222.791658 58.313296 
L 228.916554 58.778843 
L 230.141533 58.776779 
L 231.366512 59.006147 
L 232.591491 58.969563 
L 235.041449 59.370975 
L 236.266429 58.854464 
L 237.491408 58.915753 
L 242.391324 59.712548 
L 244.841282 59.090619 
L 246.066261 59.282674 
L 247.291241 59.326065 
L 248.51622 59.097123 
L 249.741199 59.272604 
L 250.966178 59.326419 
L 252.191157 59.529964 
L 253.416136 58.943531 
L 254.641115 58.495958 
L 257.091074 58.793651 
L 259.541032 59.069085 
L 261.99099 59.455661 
L 263.215969 58.909229 
L 265.665927 59.163589 
L 269.340865 59.457634 
L 270.565844 59.286055 
L 271.790823 59.413113 
L 274.240781 59.457784 
L 281.590656 60.135135 
L 282.815635 59.680984 
L 285.265593 59.982295 
L 286.490572 59.902033 
L 287.715551 60.079766 
L 288.94053 59.403287 
L 290.16551 59.092485 
L 293.840447 59.495436 
L 295.065426 59.420942 
L 296.290405 58.167869 
L 297.515384 58.301542 
L 298.740363 57.9357 
L 301.190322 58.210952 
L 304.865259 58.330452 
L 306.090238 57.902211 
L 307.315217 57.925221 
L 308.540196 58.080048 
L 309.765175 58.01669 
L 310.990155 55.883515 
L 313.440113 56.238633 
L 315.890071 55.948414 
L 319.565008 56.257211 
L 320.789987 56.086841 
L 322.014967 56.06806 
L 324.464925 56.393667 
L 325.689904 56.364886 
L 326.914883 56.529205 
L 328.139862 56.275058 
L 330.58982 56.612298 
L 331.814799 56.179954 
L 333.039779 55.970504 
L 334.264758 56.080271 
L 335.489737 56.074316 
L 336.714716 56.192848 
L 337.939695 55.937443 
L 341.614632 56.056703 
L 342.839612 55.265059 
L 345.28957 55.467449 
L 352.639444 55.81524 
L 353.864424 55.965208 
L 355.089403 55.98916 
L 356.314382 55.671706 
L 358.76434 55.590834 
L 361.214298 55.865108 
L 362.439277 55.031314 
L 363.664256 55.121122 
L 364.889236 54.851813 
L 367.339194 55.00764 
L 368.564173 54.907865 
L 369.789152 54.995654 
L 372.23911 54.719133 
L 374.689069 54.948523 
L 375.914048 54.820705 
L 380.813964 55.006615 
L 383.263922 55.291898 
L 393.063755 55.09878 
L 394.288734 55.05441 
L 396.738693 55.273037 
L 397.963672 53.365842 
L 400.41363 53.631784 
L 402.863588 53.668642 
L 405.313546 53.867089 
L 407.763505 54.117635 
L 408.988484 53.774512 
L 413.8884 53.842535 
L 416.338358 54.030755 
L 418.788317 54.296622 
L 420.013296 53.648566 
L 423.688233 53.898754 
L 426.138191 53.642825 
L 428.58815 53.773509 
L 429.813129 53.833374 
L 431.038108 51.682829 
L 433.488066 51.724428 
L 434.713045 51.631307 
L 438.387982 51.72636 
L 444.512878 52.29484 
L 445.737857 52.203374 
L 449.412794 52.442053 
L 450.637774 52.363786 
L 453.087732 52.539326 
L 454.312711 52.440157 
L 459.212627 52.779854 
L 460.437607 52.45108 
L 469.01246 52.900151 
L 470.237439 52.784647 
L 483.71221 53.774935 
L 486.162168 53.905389 
L 487.387147 53.891016 
L 489.837105 53.338158 
L 491.062084 53.454279 
L 492.287063 53.203364 
L 505.761834 53.343766 
L 506.986813 53.45817 
L 508.211792 53.217023 
L 510.66175 53.429392 
L 511.886729 53.396418 
L 515.561667 53.694545 
L 515.561667 53.694545 
" clip-path="url(#p9cab5f5649)" style="fill: none; stroke-dasharray: 5.55,2.4; stroke-dashoffset: 0; stroke: #4169e1; stroke-width: 1.5"/>
   </g>
   <g id="line2d_27">
    <path d="M 26.795 25.307018 
L 28.019979 31.621317 
L 29.244958 40.123099 
L 31.694916 46.66558 
L 32.919896 49.231941 
L 34.144875 49.144027 
L 35.369854 50.77709 
L 36.594833 51.571422 
L 37.819812 50.06213 
L 39.044791 51.022282 
L 40.26977 49.786693 
L 42.719728 49.989295 
L 43.944708 49.640184 
L 45.169687 49.062992 
L 47.619645 49.582682 
L 48.844624 49.62319 
L 50.069603 49.846733 
L 51.294582 49.678554 
L 52.519561 49.805913 
L 53.744541 49.564932 
L 54.96952 50.224073 
L 57.419478 50.308502 
L 58.644457 50.468648 
L 59.869436 50.911594 
L 61.094415 50.090263 
L 62.319394 50.405395 
L 63.544373 50.07371 
L 64.769353 50.214207 
L 67.219311 51.118002 
L 68.44429 50.816079 
L 70.894248 50.960655 
L 72.119227 51.484743 
L 73.344206 51.427367 
L 74.569185 51.609282 
L 75.794165 51.609479 
L 77.019144 51.414433 
L 78.244123 51.693054 
L 80.694081 51.927367 
L 81.91906 51.686762 
L 85.593997 51.894628 
L 88.043956 52.122265 
L 89.268935 52.198205 
L 91.718893 52.015821 
L 92.943872 51.539823 
L 94.168851 51.717288 
L 95.39383 51.599935 
L 96.61881 51.233273 
L 100.293747 51.688767 
L 101.518726 51.525054 
L 103.968684 52.004254 
L 105.193663 52.063469 
L 106.418642 51.785052 
L 108.868601 51.501528 
L 112.543538 51.773922 
L 113.768517 52.108714 
L 114.993496 52.149628 
L 121.118392 52.86517 
L 122.343371 52.992837 
L 124.793329 52.913934 
L 127.243287 53.065485 
L 128.468266 52.989921 
L 130.918225 53.068912 
L 133.368183 52.856642 
L 134.593162 52.989253 
L 144.392995 52.993154 
L 151.74287 52.816787 
L 152.967849 52.977131 
L 157.867765 52.982043 
L 159.092744 53.128673 
L 160.317723 53.122932 
L 162.767682 52.893998 
L 163.992661 52.847082 
L 165.21764 52.925558 
L 166.442619 52.858515 
L 168.892577 53.018274 
L 172.567515 53.018607 
L 173.792494 53.162218 
L 183.592327 53.283719 
L 187.267264 53.279488 
L 190.942201 53.006452 
L 192.16718 53.130495 
L 197.067097 53.023212 
L 216.666763 53.041896 
L 220.3417 53.184019 
L 224.016637 53.079789 
L 228.916554 53.128357 
L 231.366512 53.06733 
L 235.041449 53.191534 
L 236.266429 53.083583 
L 239.941366 53.173601 
L 242.391324 53.152796 
L 248.51622 53.478221 
L 261.99099 53.5876 
L 263.215969 53.500142 
L 266.890906 53.505333 
L 271.790823 53.472793 
L 275.46576 53.549475 
L 280.365677 53.551601 
L 290.16551 53.806228 
L 297.515384 53.70776 
L 299.965343 53.769473 
L 304.865259 53.845287 
L 308.540196 53.732092 
L 309.765175 53.764214 
L 310.990155 53.621327 
L 314.665092 53.574294 
L 317.11505 53.526789 
L 322.014967 53.466702 
L 324.464925 53.437537 
L 326.914883 53.499352 
L 329.364841 53.443314 
L 345.28957 53.495137 
L 350.189486 53.436979 
L 359.989319 53.670935 
L 371.014131 53.610356 
L 374.689069 53.704144 
L 378.364006 53.629881 
L 386.93886 53.770616 
L 390.613797 53.73285 
L 396.738693 53.84505 
L 397.963672 53.733882 
L 429.813129 53.872575 
L 431.038108 53.76082 
L 433.488066 53.741075 
L 437.163003 53.729327 
L 440.837941 53.769336 
L 453.087732 53.559539 
L 456.762669 53.58295 
L 515.561667 53.694545 
L 515.561667 53.694545 
" clip-path="url(#p9cab5f5649)" style="fill: none; stroke: #ff8c00; stroke-width: 1.5; stroke-linecap: square"/>
   </g>
   <g id="line2d_28">
    <path d="M 26.795 98.44 
L 28.019979 80.364206 
L 29.244958 20.850873 
L 30.469937 24.697945 
L 31.694916 21.324373 
L 32.919896 19.247224 
L 34.144875 30.539454 
L 35.369854 30.563505 
L 36.594833 35.816887 
L 37.819812 32.784483 
L 39.044791 34.573642 
L 40.26977 32.282284 
L 41.494749 37.260726 
L 42.719728 41.609448 
L 43.944708 44.624578 
L 45.169687 45.722461 
L 48.844624 53.09612 
L 52.519561 58.488829 
L 53.744541 59.646627 
L 54.96952 56.732666 
L 56.194499 58.40092 
L 57.419478 59.856379 
L 58.644457 60.983093 
L 59.869436 59.91917 
L 61.094415 52.684154 
L 62.319394 52.903686 
L 63.544373 52.876288 
L 64.769353 54.02273 
L 65.994332 51.893394 
L 67.219311 50.693732 
L 68.44429 50.652771 
L 69.669269 51.739094 
L 70.894248 52.993869 
L 72.119227 49.582404 
L 73.344206 50.778449 
L 74.569185 51.384867 
L 75.794165 52.532553 
L 77.019144 52.91845 
L 78.244123 52.498925 
L 79.469102 53.167796 
L 80.694081 53.991632 
L 81.91906 53.776845 
L 83.144039 54.647093 
L 84.369018 55.266155 
L 85.593997 56.129458 
L 86.818977 56.346091 
L 90.493914 58.485203 
L 91.718893 58.731861 
L 92.943872 53.906901 
L 94.168851 53.916833 
L 95.39383 54.348298 
L 96.61881 51.634309 
L 97.843789 51.565771 
L 99.068768 51.365212 
L 100.293747 51.950137 
L 101.518726 51.958758 
L 103.968684 50.183884 
L 105.193663 50.824545 
L 106.418642 49.261699 
L 108.868601 49.504934 
L 110.09358 50.049759 
L 111.318559 50.186387 
L 112.543538 50.726869 
L 113.768517 47.78164 
L 114.993496 48.420949 
L 116.218475 48.218632 
L 117.443454 48.1927 
L 118.668434 47.746808 
L 119.893413 47.425721 
L 121.118392 47.955685 
L 122.343371 48.018356 
L 124.793329 49.137436 
L 126.018308 49.382539 
L 127.243287 49.868884 
L 129.693246 50.572582 
L 130.918225 51.129053 
L 132.143204 51.00379 
L 133.368183 51.282309 
L 134.593162 51.110578 
L 135.818141 51.63017 
L 138.268099 52.301148 
L 141.943037 53.675687 
L 143.168016 53.577657 
L 144.392995 53.17791 
L 146.842953 54.069244 
L 148.067932 54.372919 
L 149.292911 54.410401 
L 151.74287 55.204751 
L 152.967849 54.41989 
L 155.417807 55.162875 
L 156.642786 55.302589 
L 157.867765 54.943482 
L 159.092744 54.289814 
L 160.317723 54.68955 
L 161.542703 54.195436 
L 162.767682 54.131766 
L 163.992661 54.41211 
L 166.442619 54.632747 
L 167.667598 54.299553 
L 172.567515 55.443737 
L 173.792494 54.677049 
L 175.017473 55.034697 
L 176.242452 55.209355 
L 177.467431 55.557989 
L 179.917389 55.930186 
L 181.142368 56.262877 
L 182.367348 56.326852 
L 183.592327 55.667659 
L 186.042285 56.180306 
L 187.267264 56.181772 
L 189.717222 55.553103 
L 190.942201 55.589825 
L 192.16718 54.963167 
L 194.617139 55.372802 
L 199.517055 56.55351 
L 201.967013 56.828165 
L 206.86693 57.855687 
L 209.316888 57.23271 
L 210.541867 57.362493 
L 211.766846 57.362772 
L 212.991825 57.627711 
L 214.216805 57.360437 
L 215.441784 56.956617 
L 216.666763 57.192637 
L 217.891742 56.977552 
L 220.3417 57.357389 
L 221.566679 57.344201 
L 222.791658 57.59924 
L 227.691575 58.124936 
L 228.916554 58.350213 
L 230.141533 58.3131 
L 231.366512 58.551942 
L 232.591491 58.355398 
L 235.041449 58.730292 
L 236.266429 58.057725 
L 237.491408 58.151337 
L 239.941366 58.51224 
L 242.391324 58.833048 
L 244.841282 58.238697 
L 246.066261 58.428665 
L 247.291241 58.301177 
L 248.51622 58.005916 
L 252.191157 58.586811 
L 253.416136 57.963179 
L 254.641115 57.904276 
L 258.316053 58.333629 
L 260.766011 58.650189 
L 261.99099 58.788098 
L 263.215969 58.32322 
L 266.890906 58.61678 
L 268.115886 58.772342 
L 270.565844 58.581897 
L 271.790823 58.759285 
L 273.015802 58.707867 
L 275.46576 58.996778 
L 280.365677 59.622725 
L 281.590656 59.634203 
L 282.815635 59.023697 
L 285.265593 59.299478 
L 286.490572 59.223964 
L 287.715551 59.383498 
L 288.94053 58.58668 
L 290.16551 58.196297 
L 293.840447 58.48536 
L 295.065426 58.347619 
L 296.290405 57.480254 
L 297.515384 57.527967 
L 298.740363 57.241007 
L 301.190322 57.503318 
L 302.415301 57.416233 
L 304.865259 57.701293 
L 306.090238 57.371113 
L 307.315217 57.191959 
L 309.765175 57.414178 
L 310.990155 55.442828 
L 313.440113 55.752322 
L 315.890071 55.028572 
L 318.340029 55.323327 
L 319.565008 55.293734 
L 322.014967 54.913738 
L 323.239946 54.962813 
L 324.464925 55.137946 
L 325.689904 55.076186 
L 326.914883 55.226182 
L 328.139862 54.965724 
L 330.58982 55.29542 
L 331.814799 54.941732 
L 333.039779 54.742156 
L 334.264758 54.888402 
L 335.489737 54.858634 
L 336.714716 55.030203 
L 337.939695 54.951371 
L 341.614632 55.064499 
L 342.839612 54.449781 
L 344.064591 54.607356 
L 346.514549 54.644659 
L 347.739528 54.756328 
L 352.639444 54.754604 
L 353.864424 54.907155 
L 355.089403 54.906073 
L 356.314382 54.510396 
L 358.76434 54.478013 
L 361.214298 54.760778 
L 362.439277 54.127843 
L 367.339194 54.527693 
L 368.564173 54.321184 
L 369.789152 54.389622 
L 372.23911 53.920263 
L 374.689069 54.137588 
L 375.914048 53.909238 
L 382.038943 54.347094 
L 383.263922 54.492859 
L 385.713881 54.38283 
L 386.93886 54.526877 
L 388.163839 54.509784 
L 390.613797 54.174705 
L 391.838776 54.228967 
L 393.063755 54.149495 
L 396.738693 54.456867 
L 397.963672 52.9039 
L 400.41363 53.189673 
L 401.638609 53.124758 
L 407.763505 53.680413 
L 408.988484 53.41498 
L 411.438442 53.289594 
L 417.563338 53.603835 
L 418.788317 53.74351 
L 420.013296 53.114517 
L 422.463254 53.220798 
L 423.688233 53.319672 
L 426.138191 52.825743 
L 428.58815 52.928109 
L 429.813129 52.90144 
L 431.038108 51.170529 
L 432.263087 51.245257 
L 434.713045 51.074946 
L 439.612962 51.3166 
L 440.837941 51.45143 
L 442.06292 51.451867 
L 444.512878 51.663017 
L 445.737857 51.625543 
L 453.087732 52.037662 
L 454.312711 51.96841 
L 459.212627 52.367976 
L 460.437607 52.14877 
L 467.787481 52.696243 
L 471.462419 52.710554 
L 473.912377 52.897394 
L 487.387147 53.571831 
L 489.837105 53.121978 
L 491.062084 53.229618 
L 495.962001 52.958503 
L 497.18698 53.075352 
L 498.411959 53.053546 
L 499.636938 53.165787 
L 503.311876 53.149544 
L 505.761834 53.179493 
L 506.986813 53.29223 
L 508.211792 53.182879 
L 515.561667 53.694545 
L 515.561667 53.694545 
" clip-path="url(#p9cab5f5649)" style="fill: none; stroke-dasharray: 5.55,2.4; stroke-dashoffset: 0; stroke: #ff8c00; stroke-width: 1.5"/>
   </g>
   <g id="patch_3">
    <path d="M 26.795 98.44 
L 26.795 0 
" style="fill: none; stroke: #000000; stroke-width: 0.8; stroke-linejoin: miter; stroke-linecap: square"/>
   </g>
   <g id="patch_4">
    <path d="M 540 98.44 
L 540 0 
" style="fill: none; stroke: #000000; stroke-width: 0.8; stroke-linejoin: miter; stroke-linecap: square"/>
   </g>
   <g id="patch_5">
    <path d="M 26.795 98.44 
L 540 98.44 
" style="fill: none; stroke: #000000; stroke-width: 0.8; stroke-linejoin: miter; stroke-linecap: square"/>
   </g>
   <g id="patch_6">
    <path d="M 26.795 0 
L 540 0 
" style="fill: none; stroke: #000000; stroke-width: 0.8; stroke-linejoin: miter; stroke-linecap: square"/>
   </g>
  </g>
 </g>
 <defs>
  <clipPath id="p9cab5f5649">
   <rect x="26.795" y="0" width="513.205" height="98.44"/>
  </clipPath>
 </defs>
</svg>
