<?xml version="1.0" encoding="utf-8" standalone="no"?>
<!DOCTYPE svg PUBLIC "-//W3C//DTD SVG 1.1//EN"
  "http://www.w3.org/Graphics/SVG/1.1/DTD/svg11.dtd">
<svg xmlns:xlink="http://www.w3.org/1999/xlink" width="432pt" height="180pt" viewBox="0 0 432 180" xmlns="http://www.w3.org/2000/svg" version="1.1">
 <metadata>
  <rdf:RDF xmlns:dc="http://purl.org/dc/elements/1.1/" xmlns:cc="http://creativecommons.org/ns#" xmlns:rdf="http://www.w3.org/1999/02/22-rdf-syntax-ns#">
   <cc:Work>
    <dc:type rdf:resource="http://purl.org/dc/dcmitype/StillImage"/>
    <dc:date>2025-04-09T23:24:48.521483</dc:date>
    <dc:format>image/svg+xml</dc:format>
    <dc:creator>
     <cc:Agent>
      <dc:title>Matplotlib v3.8.2, https://matplotlib.org/</dc:title>
     </cc:Agent>
    </dc:creator>
   </cc:Work>
  </rdf:RDF>
 </metadata>
 <defs>
  <style type="text/css">*{stroke-linejoin: round; stroke-linecap: butt}</style>
 </defs>
 <g id="figure_1">
  <g id="patch_1">
   <path d="M 0 180 
L 432 180 
L 432 0 
L 0 0 
z
" style="fill: #ffffff"/>
  </g>
  <g id="axes_1">
   <g id="patch_2">
    <path d="M 28.055 147.4 
L 432 147.4 
L 432 0 
L 28.055 0 
z
" style="fill: #ffffff"/>
   </g>
   <g id="matplotlib.axis_1">
    <g id="xtick_1">
     <g id="line2d_1">
      <defs>
       <path id="m77324ab247" d="M 0 0 
L 0 3.5 
" style="stroke: #000000; stroke-width: 0.8"/>
      </defs>
      <g>
       <use xlink:href="#m77324ab247" x="28.055" y="147.4" style="stroke: #000000; stroke-width: 0.8"/>
      </g>
     </g>
     <g id="text_1">
      <text style="font: 11px 'Times New Roman'; text-anchor: middle" x="28.055" y="162.038125" transform="rotate(-0 28.055 162.038125)">0</text>
     </g>
    </g>
    <g id="xtick_2">
     <g id="line2d_2">
      <g>
       <use xlink:href="#m77324ab247" x="114.930882" y="147.4" style="stroke: #000000; stroke-width: 0.8"/>
      </g>
     </g>
     <g id="text_2">
      <text style="font: 11px 'Times New Roman'; text-anchor: middle" x="114.930882" y="162.038125" transform="rotate(-0 114.930882 162.038125)">5</text>
     </g>
    </g>
    <g id="xtick_3">
     <g id="line2d_3">
      <g>
       <use xlink:href="#m77324ab247" x="201.806763" y="147.4" style="stroke: #000000; stroke-width: 0.8"/>
      </g>
     </g>
     <g id="text_3">
      <text style="font: 11px 'Times New Roman'; text-anchor: middle" x="201.806763" y="162.038125" transform="rotate(-0 201.806763 162.038125)">10</text>
     </g>
    </g>
    <g id="xtick_4">
     <g id="line2d_4">
      <g>
       <use xlink:href="#m77324ab247" x="288.682645" y="147.4" style="stroke: #000000; stroke-width: 0.8"/>
      </g>
     </g>
     <g id="text_4">
      <text style="font: 11px 'Times New Roman'; text-anchor: middle" x="288.682645" y="162.038125" transform="rotate(-0 288.682645 162.038125)">15</text>
     </g>
    </g>
    <g id="xtick_5">
     <g id="line2d_5">
      <g>
       <use xlink:href="#m77324ab247" x="375.558526" y="147.4" style="stroke: #000000; stroke-width: 0.8"/>
      </g>
     </g>
     <g id="text_5">
      <text style="font: 11px 'Times New Roman'; text-anchor: middle" x="375.558526" y="162.038125" transform="rotate(-0 375.558526 162.038125)">20</text>
     </g>
    </g>
    <g id="text_6">
     <text style="font: 12px 'Times New Roman'; text-anchor: middle" x="230.0275" y="176.723594" transform="rotate(-0 230.0275 176.723594)">Time (months)</text>
    </g>
   </g>
   <g id="matplotlib.axis_2">
    <g id="ytick_1">
     <g id="line2d_6">
      <defs>
       <path id="m8b7c50b6c0" d="M 0 0 
L -3.5 0 
" style="stroke: #000000; stroke-width: 0.8"/>
      </defs>
      <g>
       <use xlink:href="#m8b7c50b6c0" x="28.055" y="147.4" style="stroke: #000000; stroke-width: 0.8"/>
      </g>
     </g>
     <g id="text_7">
      <text style="font: 11px 'Times New Roman'; text-anchor: end" x="21.055" y="151.219063" transform="rotate(-0 21.055 151.219063)">0</text>
     </g>
    </g>
    <g id="ytick_2">
     <g id="line2d_7">
      <g>
       <use xlink:href="#m8b7c50b6c0" x="28.055" y="115.101292" style="stroke: #000000; stroke-width: 0.8"/>
      </g>
     </g>
     <g id="text_8">
      <text style="font: 11px 'Times New Roman'; text-anchor: end" x="21.055" y="118.920354" transform="rotate(-0 21.055 118.920354)">1</text>
     </g>
    </g>
    <g id="ytick_3">
     <g id="line2d_8">
      <g>
       <use xlink:href="#m8b7c50b6c0" x="28.055" y="82.802583" style="stroke: #000000; stroke-width: 0.8"/>
      </g>
     </g>
     <g id="text_9">
      <text style="font: 11px 'Times New Roman'; text-anchor: end" x="21.055" y="86.621646" transform="rotate(-0 21.055 86.621646)">2</text>
     </g>
    </g>
    <g id="ytick_4">
     <g id="line2d_9">
      <g>
       <use xlink:href="#m8b7c50b6c0" x="28.055" y="50.503875" style="stroke: #000000; stroke-width: 0.8"/>
      </g>
     </g>
     <g id="text_10">
      <text style="font: 11px 'Times New Roman'; text-anchor: end" x="21.055" y="54.322938" transform="rotate(-0 21.055 54.322938)">3</text>
     </g>
    </g>
    <g id="ytick_5">
     <g id="line2d_10">
      <g>
       <use xlink:href="#m8b7c50b6c0" x="28.055" y="18.205167" style="stroke: #000000; stroke-width: 0.8"/>
      </g>
     </g>
     <g id="text_11">
      <text style="font: 11px 'Times New Roman'; text-anchor: end" x="21.055" y="22.024229" transform="rotate(-0 21.055 22.024229)">4</text>
     </g>
    </g>
    <g id="text_12">
     <text style="font: 12px 'Times New Roman'; text-anchor: middle" x="8.988125" y="73.7" transform="rotate(-90 8.988125 73.7)">Applied Effort (person-months)</text>
    </g>
   </g>
   <g id="line2d_11">
    <path d="M 28.055 89.251559 
L 28.245423 86.909903 
L 28.635791 86.780708 
L 28.816693 84.686675 
L 29.211822 84.562863 
L 29.387963 83.330129 
L 29.785472 83.217084 
L 29.959233 81.494486 
L 30.354362 81.365291 
L 30.530503 79.718057 
L 32.068172 79.610394 
L 32.244313 77.241823 
L 32.637061 77.107245 
L 32.815583 74.512582 
L 33.203571 74.399536 
L 33.386853 71.487269 
L 33.774841 71.358074 
L 33.958123 68.548087 
L 34.348491 68.418892 
L 34.529393 65.576606 
L 36.062301 65.447411 
L 36.243203 62.707404 
L 36.631191 62.588975 
L 36.814473 59.80052 
L 37.20246 59.698241 
L 37.385743 57.291987 
L 37.776111 57.162792 
L 37.957013 54.212844 
L 38.347381 54.072882 
L 38.528283 52.199557 
L 40.065951 52.070363 
L 40.242093 50.283167 
L 40.632461 50.153973 
L 40.813363 48.495972 
L 41.208491 48.366777 
L 41.35845 46.003589 
L 41.384633 45.572939 
L 41.77262 45.459894 
L 41.955903 42.698354 
L 42.346271 42.569159 
L 42.527173 40.162905 
L 44.062461 40.039094 
L 44.240983 38.37571 
L 44.638491 38.262665 
L 44.812253 36.362424 
L 45.205001 36.227846 
L 45.383523 34.37067 
L 45.776271 34.252242 
L 45.954793 32.319702 
L 46.349921 32.190508 
L 46.526063 30.38178 
L 48.063731 30.252585 
L 48.239872 28.659182 
L 48.635001 28.529987 
L 48.811142 26.936584 
L 49.206271 26.80739 
L 49.382412 25.213987 
L 49.777541 25.084792 
L 49.953682 23.78746 
L 50.351191 23.674415 
L 50.524952 22.495512 
L 52.065001 22.382467 
L 52.238762 21.375823 
L 52.636271 21.268161 
L 52.810032 19.95468 
L 53.207541 19.841635 
L 53.381302 18.232083 
L 53.776431 18.102888 
L 53.952572 16.525634 
L 54.34532 16.417972 
L 54.523842 15.109874 
L 56.063891 14.996829 
L 56.237652 13.769478 
L 56.635161 13.656432 
L 56.808922 12.386016 
L 57.204051 12.256821 
L 57.380192 11.223263 
L 57.782461 11.099451 
L 57.951462 10.507308 
L 58.368013 10.38888 
L 58.522732 9.8721 
L 60.098485 9.759055 
L 60.236542 9.398386 
L 60.657854 9.279957 
L 60.807812 8.940821 
L 61.238645 8.827775 
L 61.379082 8.510171 
L 61.809915 8.397126 
L 61.950352 8.079522 
L 62.381185 7.966476 
L 62.521622 7.648872 
L 64.094995 7.535827 
L 64.235432 7.218223 
L 64.666265 7.105178 
L 64.770997 7.019048 
L 64.787659 7.094411 
L 64.806702 7.180541 
L 65.213732 7.29897 
L 65.377972 8.133353 
L 65.785002 8.257165 
L 65.949242 8.736262 
L 66.370553 8.849308 
L 66.520512 9.495282 
L 68.084363 9.613711 
L 68.234322 9.952847 
L 68.658014 10.060509 
L 68.805592 10.426561 
L 69.222143 10.54499 
L 69.376862 10.975639 
L 69.798173 10.889509 
L 69.948132 10.146639 
L 70.362302 10.028211 
L 70.519402 9.613711 
L 72.209409 9.710607 
L 72.233211 9.8721 
L 72.63072 9.985146 
L 72.804481 10.846445 
L 73.211511 10.964873 
L 73.375751 11.443971 
L 73.789922 11.551633 
L 73.947021 12.213757 
L 74.354051 12.332185 
L 74.518291 13.252698 
L 76.067861 13.371127 
L 76.232101 14.356238 
L 76.62961 14.4639 
L 76.803371 15.411329 
L 77.210401 15.529757 
L 77.3675 16.746342 
L 77.374641 16.827089 
L 77.767389 16.961667 
L 77.945911 19.141829 
L 78.34104 19.271024 
L 78.517181 21.230479 
L 80.05485 21.359674 
L 80.230991 22.770051 
L 80.62612 22.899246 
L 80.802261 25.251668 
L 81.192629 25.364714 
L 81.373531 27.496429 
L 81.763899 27.641773 
L 81.944801 30.20952 
L 82.335169 30.360247 
L 82.516071 32.378917 
L 84.051359 32.508112 
L 84.229881 33.730079 
L 84.617868 33.843125 
L 84.801151 36.066353 
L 85.20342 36.184781 
L 85.334336 37.282937 
L 85.372421 37.751269 
L 85.762789 37.880463 
L 85.943691 39.72149 
L 86.338819 39.850685 
L 86.514961 41.266445 
L 88.052629 41.384873 
L 88.228771 42.746802 
L 88.623899 42.875997 
L 88.800041 44.259458 
L 89.20231 44.38327 
L 89.371311 45.185355 
L 89.778341 45.303783 
L 89.928299 46.493452 
L 89.942581 46.590348 
L 90.340089 46.703394 
L 90.513851 47.936128 
L 92.05628 48.054556 
L 92.227661 49.917115 
L 92.698958 50.024778 
L 92.798931 50.945291 
L 93.194059 51.074486 
L 93.370201 52.269538 
L 93.762949 52.404116 
L 93.941471 53.916772 
L 94.338979 54.029818 
L 94.512741 55.596305 
L 96.052789 55.70935 
L 96.22655 57.394266 
L 96.616918 57.512695 
L 96.79782 59.439851 
L 97.188188 59.54213 
L 97.36909 61.087085 
L 97.764219 61.21628 
L 97.892755 62.847365 
L 97.94036 63.601001 
L 98.330728 63.71943 
L 98.51163 65.183638 
L 100.051679 65.296684 
L 100.22544 66.669379 
L 100.618188 66.798574 
L 100.79671 68.025924 
L 101.194219 68.13897 
L 101.313234 69.705457 
L 101.36798 70.518308 
L 101.758348 70.647503 
L 101.924968 71.401139 
L 101.93925 71.433438 
L 102.365322 71.541101 
L 102.51052 71.81564 
L 104.088654 71.707977 
L 104.22433 71.449588 
L 104.63136 71.331159 
L 104.688487 71.277328 
L 104.747994 71.309626 
L 105.783421 71.411906 
L 105.93814 72.025581 
L 106.357071 72.133243 
L 106.50941 72.779218 
L 108.05898 72.897646 
L 108.22322 73.640517 
L 108.63025 73.758945 
L 108.79449 74.501815 
L 109.20152 74.620244 
L 109.36576 75.363114 
L 109.77279 75.481543 
L 109.93703 75.928342 
L 110.367863 76.041387 
L 110.5083 76.358991 
L 112.081673 76.472037 
L 112.22211 76.617381 
L 112.641041 76.725043 
L 112.79338 77.177225 
L 113.20755 77.284887 
L 113.36465 78.038524 
L 113.783581 78.156953 
L 113.890694 78.668349 
L 113.93592 78.883674 
L 114.338189 79.002102 
L 114.50719 79.438135 
L 116.080562 79.55118 
L 116.221 79.917232 
L 116.651832 80.030278 
L 116.79227 80.439395 
L 117.199299 80.557823 
L 117.36354 81.263012 
L 117.765809 81.386823 
L 117.93481 81.978966 
L 118.341839 82.097395 
L 118.50608 82.657239 
L 120.069931 82.764902 
L 120.219889 83.179402 
L 120.641201 83.29783 
L 120.791159 83.636967 
L 121.221992 83.750012 
L 121.362429 84.067616 
L 121.793262 84.180662 
L 121.933699 84.498266 
L 122.364532 84.611311 
L 122.504969 84.928915 
L 124.078342 85.041961 
L 124.218779 85.359565 
L 124.649612 85.47261 
L 124.790049 85.55874 
L 125.830237 85.666402 
L 125.932589 86.027071 
L 126.363422 86.140117 
L 126.503859 86.457721 
L 128.077232 86.570766 
L 128.217669 86.990649 
L 128.6366 87.109078 
L 128.788939 87.464364 
L 129.219772 87.577409 
L 129.360209 87.895013 
L 129.769619 88.002675 
L 129.931479 88.923189 
L 130.34565 89.041617 
L 130.476566 89.251559 
L 130.502749 89.192345 
L 132.076122 89.079299 
L 132.216559 88.761695 
L 132.647392 88.64865 
L 132.787829 88.331046 
L 133.218662 88.218 
L 133.359099 87.900396 
L 133.789932 87.787351 
L 133.930369 87.469747 
L 134.361202 87.356701 
L 134.501639 87.039097 
L 136.075012 86.926052 
L 136.215449 86.608448 
L 136.646282 86.495402 
L 136.786719 86.177798 
L 137.217552 86.064753 
L 137.357989 85.747149 
L 137.788822 85.634104 
L 137.929259 85.3165 
L 138.360091 85.203454 
L 138.500529 84.88585 
L 140.073901 84.772805 
L 140.214339 84.455201 
L 140.645171 84.342155 
L 140.785609 84.024551 
L 141.216441 83.911506 
L 141.356879 83.593902 
L 141.787711 83.480856 
L 141.928149 83.163252 
L 142.358981 83.050207 
L 142.499419 82.732603 
L 144.14658 82.834882 
L 144.213228 82.953311 
L 144.770217 83.050207 
L 144.784498 83.147103 
L 145.191528 83.265532 
L 145.231993 83.367811 
L 145.322444 83.346278 
L 145.765179 83.453941 
L 145.893714 83.647733 
L 145.927038 83.577752 
L 146.357871 83.464707 
L 146.498308 83.147103 
L 148.071681 83.034058 
L 148.212118 82.716454 
L 148.642951 82.603408 
L 148.783388 82.135077 
L 149.190418 82.016648 
L 149.354658 81.273778 
L 149.761688 81.155349 
L 149.925928 80.477076 
L 150.356761 80.364031 
L 150.497198 80.046427 
L 152.070571 79.933382 
L 152.203867 79.631927 
L 152.211008 79.680375 
L 152.606137 79.798804 
L 152.782278 80.520141 
L 153.213111 80.633187 
L 153.28928 81.074603 
L 153.353548 81.359908 
L 153.784381 81.472953 
L 153.896255 81.618297 
L 153.924818 81.602148 
L 156.140869 81.494486 
L 156.209898 81.338375 
L 156.640731 81.22533 
L 156.781168 80.907726 
L 157.212001 80.79468 
L 157.352438 80.477076 
L 157.783271 80.364031 
L 157.923708 79.841869 
L 158.354541 79.728823 
L 158.494978 79.411219 
L 160.068351 79.298174 
L 160.208788 78.98057 
L 160.639621 78.867524 
L 160.780058 78.54992 
L 161.210891 78.436875 
L 161.351328 78.070823 
L 161.77502 78.167719 
L 161.922598 79.168979 
L 162.320106 79.282024 
L 162.493868 80.460927 
L 164.033916 80.573973 
L 164.207678 81.752875 
L 164.605186 81.865921 
L 164.778948 83.044824 
L 165.176456 83.157869 
L 165.350218 84.218344 
L 165.78105 84.331389 
L 165.921488 84.648993 
L 166.35232 84.762038 
L 166.492758 84.97198 
L 168.080412 84.864318 
L 168.206567 84.579012 
L 168.6374 84.465967 
L 168.777837 84.148363 
L 169.20867 84.035317 
L 169.349107 83.717714 
L 169.77994 83.604668 
L 169.920377 83.287064 
L 170.35121 83.174019 
L 170.491647 83.044824 
L 176.692307 83.152486 
L 176.775617 83.340895 
L 177.20645 83.453941 
L 177.313563 83.502389 
L 177.330225 83.464707 
L 177.346887 83.427025 
L 177.77772 83.31398 
L 177.918157 82.996376 
L 178.34899 82.88333 
L 178.489427 82.565726 
L 180.0628 82.452681 
L 180.203237 82.135077 
L 180.63407 82.022031 
L 180.774507 81.704427 
L 181.20534 81.591382 
L 181.345777 81.273778 
L 181.77661 81.160732 
L 181.917047 80.843128 
L 182.34788 80.730083 
L 182.488317 80.412479 
L 184.06169 80.299434 
L 184.202127 79.98183 
L 184.63296 79.868784 
L 184.773397 79.55118 
L 185.20423 79.438135 
L 185.344667 79.120531 
L 185.775499 79.007485 
L 185.915937 78.689881 
L 186.346769 78.576836 
L 186.487207 78.259232 
L 188.060579 78.146186 
L 188.201017 77.828582 
L 188.631849 77.715537 
L 188.772287 77.397933 
L 189.203119 77.284887 
L 189.343557 76.934985 
L 189.774389 76.821939 
L 189.914827 76.482803 
L 190.321856 76.364374 
L 190.476575 76.175965 
L 194.361211 76.068303 
L 194.484986 75.793764 
L 201.875792 75.691485 
L 201.911496 75.529991 
L 202.318526 75.411562 
L 202.482766 74.668692 
L 204.032336 74.550263 
L 204.196576 73.807393 
L 204.603606 73.688965 
L 204.767846 72.946094 
L 205.174876 72.827666 
L 205.215341 72.752302 
L 205.274848 72.88688 
L 205.748526 72.779218 
L 205.78185 72.73077 
L 205.829456 72.865348 
L 205.910386 73.30138 
L 206.317416 73.419809 
L 206.481656 74.162679 
L 208.031226 74.281108 
L 208.195466 75.023978 
L 208.602496 75.142406 
L 208.766736 75.885277 
L 209.173766 76.003705 
L 209.338006 76.746576 
L 209.745036 76.865004 
L 209.909276 77.543277 
L 210.340108 77.656323 
L 210.480546 77.973927 
L 212.053918 78.086972 
L 212.194356 78.404576 
L 212.625188 78.517621 
L 212.765626 78.835225 
L 213.196458 78.948271 
L 213.336896 79.265875 
L 213.767728 79.37892 
L 213.908166 79.884933 
L 214.315195 80.003362 
L 214.479435 80.789297 
L 216.029005 80.907726 
L 216.193245 81.650596 
L 216.600275 81.769025 
L 216.764515 82.511895 
L 217.171545 82.630324 
L 217.335785 83.373194 
L 217.742815 83.491623 
L 217.907055 84.14298 
L 218.337888 84.256025 
L 218.478325 84.573629 
L 220.051698 84.686675 
L 220.192135 85.004279 
L 220.622968 85.117324 
L 220.763405 85.434928 
L 221.194238 85.547974 
L 221.334675 85.914026 
L 221.765508 86.027071 
L 221.905945 86.344675 
L 222.336778 86.457721 
L 222.477215 86.775325 
L 224.050588 86.88837 
L 224.191025 87.205974 
L 224.621858 87.319019 
L 224.762295 87.636623 
L 225.193128 87.749669 
L 225.333565 88.067273 
L 225.764398 88.180318 
L 225.904835 88.497922 
L 226.335668 88.610968 
L 226.476105 88.928572 
L 228.032816 89.041617 
L 228.189915 89.752189 
L 228.596945 89.870617 
L 228.761185 90.613488 
L 229.168215 90.731916 
L 229.332455 91.474787 
L 229.739485 91.593215 
L 229.903725 92.336086 
L 230.310755 92.454514 
L 230.474995 93.008975 
L 232.048368 93.122021 
L 232.188805 93.439625 
L 232.619638 93.55267 
L 232.760075 93.870274 
L 233.190907 93.98332 
L 233.331345 94.300924 
L 233.762177 94.413969 
L 233.902615 94.731573 
L 234.333447 94.844619 
L 234.473885 95.162222 
L 236.047257 95.275268 
L 236.187695 95.592872 
L 236.618527 95.705917 
L 236.749443 95.72745 
L 237.725363 95.835112 
L 237.901505 96.233463 
L 238.332337 96.346508 
L 238.472774 96.664112 
L 240.046147 96.777158 
L 240.186584 97.003249 
L 240.617417 97.116294 
L 240.757854 97.433898 
L 241.188687 97.546944 
L 241.329124 97.864548 
L 241.759957 97.977593 
L 241.900394 98.295197 
L 242.402636 98.192918 
L 242.462143 98.069106 
L 242.471664 98.090639 
L 244.045037 98.203684 
L 244.185474 98.521288 
L 244.616307 98.634334 
L 244.756744 98.951938 
L 245.187577 99.064983 
L 245.328014 99.382587 
L 245.794551 99.285691 
L 245.899284 98.81736 
L 246.330117 98.704314 
L 246.392005 98.295197 
L 246.470554 97.789184 
L 248.039166 97.670755 
L 248.184364 97.342385 
L 248.615197 97.22934 
L 248.755634 96.734093 
L 249.150762 96.604898 
L 249.326904 95.544424 
L 249.724413 95.431378 
L 249.888653 95.038411 
L 249.891033 95.043794 
L 249.898174 95.059943 
L 250.398035 95.172989 
L 250.469444 95.199904 
L 252.123747 95.103008 
L 252.183254 94.623911 
L 252.580763 94.500099 
L 252.754524 93.714164 
L 253.185357 93.601118 
L 253.325794 93.321196 
L 253.804232 93.213534 
L 253.897064 93.003592 
L 254.370742 93.105871 
L 254.468334 93.261982 
L 257.203289 93.369644 
L 257.324684 93.644183 
L 257.755516 93.757229 
L 257.895954 94.074833 
L 258.326786 94.187878 
L 258.467224 94.505482 
L 260.040596 94.618528 
L 260.181034 94.936132 
L 260.611866 95.049177 
L 260.752304 95.366781 
L 261.183136 95.479826 
L 261.323574 95.79743 
L 261.754406 95.910476 
L 261.894843 96.411106 
L 262.292352 96.524151 
L 262.466113 97.703054 
L 264.006162 97.8161 
L 264.179923 98.995003 
L 264.577432 99.108048 
L 264.6417 99.544081 
L 264.72501 99.355671 
L 264.751193 99.296457 
L 265.182026 99.183412 
L 265.305801 98.628951 
L 265.322463 98.553587 
L 265.729493 98.435158 
L 265.872311 97.277788 
L 265.893733 97.083996 
L 266.288862 96.954801 
L 266.465003 95.361398 
L 268.002672 95.232203 
L 268.178813 93.746462 
L 268.585843 93.628034 
L 268.750083 92.885164 
L 269.157113 92.766735 
L 269.321353 92.169209 
L 269.752186 92.056163 
L 269.892623 91.738559 
L 270.323456 91.625514 
L 270.463893 91.30791 
L 272.037266 91.194864 
L 272.177703 90.877261 
L 272.608536 90.764215 
L 272.748973 90.446611 
L 273.179806 90.333566 
L 273.320243 90.015962 
L 273.751076 89.902916 
L 273.891513 89.585312 
L 274.322346 89.472267 
L 274.462783 89.154663 
L 276.036156 89.041617 
L 276.176593 88.724013 
L 276.607426 88.610968 
L 276.747863 88.293364 
L 277.178696 88.180318 
L 277.319133 87.862714 
L 280.113595 87.71737 
L 280.175483 87.577409 
L 280.606315 87.464364 
L 280.746753 87.14676 
L 281.177585 87.033714 
L 281.318023 86.71611 
L 281.748855 86.603065 
L 281.889293 86.285461 
L 282.320125 86.172415 
L 282.460563 85.854811 
L 284.033935 85.741766 
L 284.174373 85.424162 
L 284.605205 85.311116 
L 284.745643 84.993513 
L 285.176475 84.880467 
L 285.316913 84.562863 
L 285.747745 84.449818 
L 285.888182 84.132214 
L 286.319015 84.019168 
L 286.459452 83.701564 
L 288.032825 83.588519 
L 288.173262 83.270915 
L 288.604095 83.157869 
L 288.744532 82.840265 
L 289.175365 82.72722 
L 289.315802 82.409616 
L 289.746635 82.29657 
L 289.887072 81.978966 
L 290.317905 81.865921 
L 290.458342 81.548317 
L 292.031715 81.435271 
L 292.172152 81.117668 
L 292.602985 81.004622 
L 292.743422 80.687018 
L 293.174255 80.573973 
L 293.314692 80.256369 
L 293.745525 80.143323 
L 293.885962 79.825719 
L 296.07583 79.685758 
L 296.171042 79.470433 
L 296.601875 79.357388 
L 296.742312 79.039784 
L 297.173145 78.926738 
L 297.313582 78.609135 
L 297.744415 78.496089 
L 297.884852 78.156953 
L 298.315685 78.043907 
L 298.456122 77.726303 
L 300.029495 77.613258 
L 300.169932 77.317186 
L 300.576962 77.198758 
L 300.741202 76.455887 
L 301.148232 76.337459 
L 301.312472 75.594588 
L 301.719502 75.47616 
L 301.883742 74.73329 
L 302.290772 74.614861 
L 302.414547 74.56103 
L 303.9903 74.453367 
L 304.168822 73.360594 
L 304.56395 73.2314 
L 304.740092 72.020198 
L 305.1376 71.907153 
L 305.311362 70.862828 
L 305.718392 70.744399 
L 305.735054 70.669035 
L 305.808843 70.835912 
L 305.882632 71.164282 
L 306.313464 71.277328 
L 306.375352 71.686445 
L 306.396775 71.842555 
L 306.453902 71.72951 
L 308.124866 71.831789 
L 308.167712 71.928685 
L 308.598544 72.04173 
L 308.738982 72.536977 
L 309.13411 72.666172 
L 309.310251 73.758945 
L 309.70776 73.871991 
L 309.876761 74.264958 
L 312.107094 74.361854 
L 312.166601 74.840952 
L 312.56411 74.964764 
L 312.737871 75.750699 
L 313.168704 75.863744 
L 313.309141 76.143666 
L 313.78758 76.251329 
L 313.880411 76.46127 
L 314.311244 76.574316 
L 314.4374 76.585082 
L 317.160453 76.488186 
L 317.308031 75.185471 
L 317.70316 75.056277 
L 317.879301 73.462874 
L 318.27443 73.333679 
L 318.450571 71.740276 
L 319.988239 71.611081 
L 320.164381 70.017678 
L 320.559509 69.888483 
L 320.735651 68.29508 
L 321.130779 68.165885 
L 321.306921 66.572483 
L 321.702049 66.443288 
L 321.878191 65.145956 
L 322.2757 65.032911 
L 322.449461 63.854008 
L 323.98951 63.740962 
L 324.163271 62.56206 
L 324.56078 62.449014 
L 324.625047 62.012982 
L 324.708358 62.201391 
L 324.734541 62.260605 
L 325.155852 62.37365 
L 325.305811 63.051923 
L 325.712841 63.170352 
L 325.877081 63.913222 
L 326.284111 64.031651 
L 326.448351 64.936015 
L 327.988399 65.04906 
L 328.162161 66.120301 
L 328.592993 66.233346 
L 328.733431 66.55095 
L 329.164263 66.663996 
L 329.304701 66.836255 
L 329.742674 66.943918 
L 329.875971 67.245372 
L 330.306803 67.358418 
L 330.447241 67.676022 
L 332.020613 67.789067 
L 332.161051 68.106671 
L 332.591883 68.219717 
L 332.732321 68.537321 
L 333.163153 68.650366 
L 333.30359 68.96797 
L 333.734423 69.081016 
L 333.87486 69.39862 
L 334.305693 69.511665 
L 334.44613 69.829269 
L 336.019503 69.942314 
L 336.15994 70.259918 
L 336.590773 70.372964 
L 336.73121 70.690568 
L 337.162043 70.803613 
L 337.30248 71.121217 
L 340.096943 71.266561 
L 340.15883 71.406523 
L 340.589663 71.519568 
L 340.7301 71.837172 
L 341.160933 71.950217 
L 341.30137 72.267821 
L 341.732203 72.380867 
L 341.87264 72.698471 
L 342.303473 72.811516 
L 342.44391 73.12912 
L 344.017283 73.242166 
L 344.15772 73.55977 
L 344.588553 73.672815 
L 344.72899 73.990419 
L 345.159823 74.103465 
L 345.30026 74.421069 
L 345.731093 74.534114 
L 345.87153 74.851718 
L 346.302363 74.964764 
L 346.4428 75.282368 
L 348.016173 75.395413 
L 348.070919 75.519225 
L 348.118525 75.352348 
L 348.15661 75.196238 
L 348.675513 75.298517 
L 348.72788 75.416946 
L 349.158713 75.529991 
L 349.29915 75.847595 
L 349.729983 75.96064 
L 349.87042 76.278244 
L 350.301253 76.39129 
L 350.44169 76.708894 
L 352.000781 76.617381 
L 352.1555 75.799147 
L 352.581572 75.691485 
L 352.72677 75.093958 
L 353.157602 74.980913 
L 353.29804 74.663309 
L 353.728872 74.550263 
L 353.86931 74.297257 
L 354.338227 74.189595 
L 354.44058 74.103465 
L 356.085361 74.211127 
L 356.15439 74.367237 
L 356.585222 74.480283 
L 356.72566 74.797887 
L 357.156492 74.910932 
L 357.296929 75.228536 
L 357.727762 75.341582 
L 357.868199 75.680718 
L 358.299032 75.793764 
L 358.439469 76.111368 
L 360.012842 76.224413 
L 360.027124 76.256712 
L 360.086631 76.122134 
L 360.153279 76.041387 
L 364.111704 76.143666 
L 364.152169 76.326692 
L 364.56396 76.445121 
L 364.723439 76.999582 
L 365.130469 77.118011 
L 365.294709 77.726303 
L 365.725542 77.839349 
L 365.865979 77.990076 
L 366.387263 78.086972 
L 366.437249 78.453024 
L 367.984439 78.571453 
L 368.124876 78.700648 
L 369.260275 78.592985 
L 369.293599 78.517621 
L 369.724432 78.404576 
L 369.864869 78.086972 
L 370.295702 77.973927 
L 370.436139 77.656323 
L 372.009512 77.543277 
L 372.149949 77.225673 
L 372.580782 77.112628 
L 372.721219 76.795024 
L 373.152052 76.681978 
L 373.292489 76.364374 
L 373.723322 76.251329 
L 373.863759 75.933725 
L 374.294592 75.820679 
L 374.435029 75.524608 
L 377.172364 75.63227 
L 377.291379 76.170582 
L 377.698408 76.289011 
L 377.862649 77.031881 
L 378.269678 77.15031 
L 378.433919 77.89318 
L 379.983488 78.011608 
L 380.147729 78.754479 
L 380.554758 78.872907 
L 380.718998 79.664226 
L 381.116507 79.777271 
L 381.290268 81.31146 
L 381.685397 81.440655 
L 381.861538 82.737986 
L 382.259047 82.851032 
L 382.432808 84.029934 
L 383.972857 84.14298 
L 384.146618 85.321883 
L 384.544127 85.434928 
L 384.717888 86.613831 
L 385.115397 86.726877 
L 385.289158 87.54511 
L 385.696188 87.663539 
L 385.860428 88.406409 
L 386.267458 88.524838 
L 386.431698 89.106215 
L 388.005071 89.21926 
L 388.145508 89.536864 
L 388.576341 89.64991 
L 388.716778 89.967514 
L 389.147611 90.080559 
L 389.288048 90.398163 
L 398.428368 90.419695 
L 401.677466 90.527358 
L 401.855988 90.931092 
L 402.28682 91.044137 
L 402.427258 91.361741 
L 404.00063 91.474787 
L 404.141068 91.792391 
L 404.5719 91.905436 
L 404.712337 92.22304 
L 405.14317 92.336086 
L 405.283607 92.653689 
L 405.71444 92.766735 
L 405.854877 93.084339 
L 406.28571 93.197384 
L 406.426147 93.514988 
L 407.99952 93.628034 
L 408.101873 94.134047 
L 408.139957 94.462417 
L 408.537466 94.575463 
L 408.711227 95.103008 
L 409.14206 95.216054 
L 409.282497 95.533658 
L 409.71333 95.646703 
L 409.853767 95.964307 
L 410.2846 96.077353 
L 410.425037 96.394957 
L 411.969846 96.508002 
L 412.138847 98.166002 
L 412.536356 98.279048 
L 412.710117 99.73249 
L 413.107626 99.845535 
L 413.281387 101.024438 
L 413.678896 101.137484 
L 413.852657 102.251789 
L 414.259687 102.370218 
L 414.423927 102.967744 
L 415.9973 103.080789 
L 416.137737 103.398393 
L 416.56857 103.511439 
L 416.709007 103.829043 
L 417.13984 103.942088 
L 417.280277 104.259692 
L 417.71111 104.372737 
L 417.851547 104.690341 
L 418.28238 104.803387 
L 418.422817 105.120991 
L 419.99619 105.234036 
L 420.069979 105.670069 
L 420.136627 106.122251 
L 420.534136 106.235296 
L 420.707897 107.414199 
L 421.105406 107.527245 
L 421.279167 108.706147 
L 421.676675 108.819193 
L 421.850437 109.998096 
L 422.247945 110.111141 
L 422.421707 111.290044 
L 423.961755 111.40309 
L 424.135517 112.581992 
L 424.533025 112.695038 
L 424.706787 113.680149 
L 425.113816 113.798577 
L 425.278057 114.541447 
L 425.685086 114.659876 
L 425.849327 115.402746 
L 426.256356 115.521175 
L 426.420597 116.264045 
L 427.970166 116.382474 
L 428.134406 117.125344 
L 428.541436 117.243773 
L 428.705676 117.986643 
L 429.112706 118.105072 
L 429.276946 119.030968 
L 429.674455 119.144013 
L 429.848216 120.322916 
L 430.245725 120.435962 
L 430.419486 121.614865 
L 431.959535 121.72791 
L 432 122.002449 
L 432 122.002449 
" clip-path="url(#p384e3dad8d)" style="fill: none; stroke: #000000; stroke-width: 1.5; stroke-linecap: square"/>
   </g>
   <g id="line2d_12">
    <path d="M 28.055 89.251559 
L 28.245423 86.909903 
L 28.635791 86.780708 
L 28.816693 84.686675 
L 29.211822 84.562863 
L 29.387963 83.330129 
L 29.785472 83.217084 
L 29.959233 81.494486 
L 30.354362 81.365291 
L 30.530503 79.718057 
L 32.068172 79.610394 
L 32.244313 77.241823 
L 32.637061 77.107245 
L 32.815583 74.512582 
L 33.203571 74.399536 
L 33.386853 71.487269 
L 33.774841 71.358074 
L 33.958123 68.548087 
L 34.348491 68.418892 
L 34.529393 65.576606 
L 36.062301 65.447411 
L 36.243203 62.707404 
L 36.631191 62.588975 
L 36.814473 59.80052 
L 37.20246 59.698241 
L 37.385743 57.291987 
L 37.776111 57.162792 
L 37.957013 54.212844 
L 38.347381 54.072882 
L 38.528283 52.199557 
L 40.065951 52.070363 
L 40.242093 50.283167 
L 40.632461 50.153973 
L 40.813363 48.495972 
L 41.208491 48.366777 
L 41.35845 46.003589 
L 41.384633 45.572939 
L 41.77262 45.459894 
L 41.955903 42.698354 
L 42.346271 42.569159 
L 42.527173 40.162905 
L 44.062461 40.039094 
L 44.240983 38.37571 
L 44.638491 38.262665 
L 44.812253 36.362424 
L 45.205001 36.227846 
L 45.383523 34.37067 
L 45.776271 34.252242 
L 45.954793 32.319702 
L 46.349921 32.190508 
L 46.526063 30.38178 
L 48.063731 30.252585 
L 48.239872 28.659182 
L 48.635001 28.529987 
L 48.811142 26.936584 
L 49.206271 26.80739 
L 49.382412 25.213987 
L 49.777541 25.084792 
L 49.953682 23.78746 
L 50.351191 23.674415 
L 50.524952 22.495512 
L 52.065001 22.382467 
L 52.238762 21.375823 
L 52.636271 21.268161 
L 52.810032 19.95468 
L 53.207541 19.841635 
L 53.381302 18.232083 
L 53.776431 18.102888 
L 53.952572 16.525634 
L 54.34532 16.417972 
L 54.523842 15.109874 
L 56.063891 14.996829 
L 56.237652 13.769478 
L 56.635161 13.656432 
L 56.808922 12.386016 
L 57.204051 12.256821 
L 57.380192 11.223263 
L 57.782461 11.099451 
L 57.951462 10.507308 
L 58.368013 10.38888 
L 58.522732 9.8721 
L 60.098485 9.759055 
L 60.236542 9.398386 
L 60.657854 9.279957 
L 60.807812 8.940821 
L 61.238645 8.827775 
L 61.379082 8.510171 
L 61.809915 8.397126 
L 61.950352 8.079522 
L 62.381185 7.966476 
L 62.521622 7.648872 
L 64.094995 7.535827 
L 64.235432 7.218223 
L 64.666265 7.105178 
L 64.770997 7.019048 
L 64.787659 7.094411 
L 64.806702 7.180541 
L 65.213732 7.29897 
L 65.377972 8.133353 
L 65.785002 8.257165 
L 65.949242 8.736262 
L 66.370553 8.849308 
L 66.520512 9.495282 
L 68.084363 9.613711 
L 68.234322 9.952847 
L 68.658014 10.060509 
L 68.805592 10.426561 
L 69.222143 10.54499 
L 69.376862 10.975639 
L 69.798173 10.889509 
L 69.948132 10.146639 
L 70.362302 10.028211 
L 70.519402 9.613711 
L 72.209409 9.710607 
L 72.233211 9.8721 
L 72.63072 9.985146 
L 72.804481 10.846445 
L 73.211511 10.964873 
L 73.375751 11.443971 
L 73.789922 11.551633 
L 73.947021 12.213757 
L 74.354051 12.332185 
L 74.518291 13.252698 
L 76.067861 13.371127 
L 76.232101 14.356238 
L 76.62961 14.4639 
L 76.803371 15.411329 
L 77.210401 15.529757 
L 77.3675 16.746342 
L 77.374641 16.827089 
L 77.767389 16.961667 
L 77.945911 19.141829 
L 78.34104 19.271024 
L 78.517181 21.230479 
L 80.05485 21.359674 
L 80.230991 22.770051 
L 80.62612 22.899246 
L 80.802261 25.251668 
L 81.192629 25.364714 
L 81.373531 27.496429 
L 81.763899 27.641773 
L 81.944801 30.20952 
L 82.335169 30.360247 
L 82.516071 32.378917 
L 84.051359 32.508112 
L 84.229881 33.730079 
L 84.617868 33.843125 
L 84.801151 36.066353 
L 85.20342 36.184781 
L 85.334336 37.282937 
L 85.372421 37.751269 
L 85.762789 37.880463 
L 85.943691 39.72149 
L 86.338819 39.850685 
L 86.514961 41.266445 
L 88.052629 41.384873 
L 88.228771 42.746802 
L 88.623899 42.875997 
L 88.800041 44.259458 
L 89.20231 44.38327 
L 89.371311 45.185355 
L 89.778341 45.303783 
L 89.928299 46.493452 
L 89.942581 46.590348 
L 90.340089 46.703394 
L 90.513851 47.936128 
L 92.05628 48.054556 
L 92.227661 49.917115 
L 92.698958 50.024778 
L 92.798931 50.945291 
L 93.194059 51.074486 
L 93.370201 52.269538 
L 93.762949 52.404116 
L 93.941471 53.916772 
L 94.338979 54.029818 
L 94.512741 55.596305 
L 96.052789 55.70935 
L 96.22655 57.394266 
L 96.616918 57.512695 
L 96.79782 59.439851 
L 97.188188 59.54213 
L 97.36909 61.087085 
L 97.764219 61.21628 
L 97.892755 62.847365 
L 97.94036 63.601001 
L 98.330728 63.71943 
L 98.51163 65.183638 
L 100.051679 65.296684 
L 100.22544 66.669379 
L 100.618188 66.798574 
L 100.79671 68.025924 
L 101.194219 68.13897 
L 101.313234 69.705457 
L 101.36798 70.518308 
L 101.758348 70.647503 
L 101.93925 73.344445 
L 102.329618 73.47364 
L 102.51052 75.879894 
L 104.045808 76.003705 
L 104.22433 77.667089 
L 104.621839 77.780134 
L 104.7956 79.680375 
L 105.188348 79.814953 
L 105.36687 81.672129 
L 105.759618 81.790557 
L 105.93814 83.723097 
L 106.333268 83.852291 
L 106.50941 85.661019 
L 108.047078 85.790214 
L 108.22322 87.383617 
L 108.618348 87.512812 
L 108.79449 89.106215 
L 109.189618 89.23541 
L 109.36576 90.828812 
L 109.760888 90.958007 
L 109.93703 92.255339 
L 110.334539 92.368384 
L 110.5083 93.547287 
L 112.048349 93.660333 
L 112.22211 94.666976 
L 112.619618 94.774638 
L 112.79338 96.088119 
L 113.190888 96.201164 
L 113.36465 97.810717 
L 113.759778 97.939911 
L 113.93592 99.517165 
L 114.328668 99.624827 
L 114.50719 100.932925 
L 116.047238 101.045971 
L 116.221 102.273321 
L 116.618508 102.386367 
L 116.79227 103.656783 
L 117.187398 103.785978 
L 117.36354 105.072543 
L 117.758668 105.196355 
L 117.93481 106.219147 
L 118.332318 106.332192 
L 118.50608 107.328069 
L 120.055649 107.446498 
L 120.219889 108.280881 
L 120.622159 108.404693 
L 120.791159 109.169096 
L 121.198189 109.287524 
L 121.362429 110.030395 
L 121.769459 110.148823 
L 121.933699 110.891693 
L 122.340729 111.010122 
L 122.504969 111.752992 
L 124.054539 111.871421 
L 124.218779 112.614291 
L 124.625809 112.73272 
L 124.790049 113.244116 
L 125.220882 113.357161 
L 125.361319 113.674765 
L 125.787391 113.787811 
L 125.932589 114.573746 
L 126.339619 114.692175 
L 126.503859 115.435045 
L 128.053429 115.553474 
L 128.217669 116.398623 
L 128.617558 116.517052 
L 128.788939 117.302987 
L 129.195969 117.421416 
L 129.360209 118.164286 
L 129.762478 118.271948 
L 129.931479 119.623111 
L 130.328988 119.736156 
L 130.502749 120.586689 
L 132.076122 120.699734 
L 132.216559 121.017338 
L 132.647392 121.130384 
L 132.787829 121.447988 
L 133.218662 121.561033 
L 133.359099 121.878637 
L 133.789932 121.991683 
L 133.930369 122.309287 
L 134.361202 122.422332 
L 134.501639 122.739936 
L 136.075012 122.852982 
L 136.215449 123.170586 
L 136.646282 123.283631 
L 136.786719 123.601235 
L 137.217552 123.714281 
L 137.357989 124.031885 
L 137.788822 124.14493 
L 137.929259 124.462534 
L 138.360091 124.575579 
L 138.500529 124.893183 
L 140.073901 125.006229 
L 140.214339 125.323833 
L 140.645171 125.436878 
L 140.785609 125.754482 
L 141.216441 125.867528 
L 141.356879 126.185132 
L 141.787711 126.298177 
L 141.928149 126.615781 
L 142.358981 126.728827 
L 142.499419 127.046431 
L 144.068031 127.14871 
L 144.213228 128.128437 
L 144.620258 128.246866 
L 144.784498 129.183529 
L 145.179627 129.312723 
L 145.355768 129.931782 
L 145.762798 130.050211 
L 145.927038 130.760782 
L 146.357871 130.873828 
L 146.498308 131.191432 
L 148.071681 131.304477 
L 148.212118 131.622081 
L 148.642951 131.735126 
L 148.783388 131.902003 
L 152.596615 131.988133 
L 152.782278 133.215484 
L 153.189308 133.333913 
L 153.353548 134.4859 
L 153.760578 134.604328 
L 153.924818 135.15879 
L 154.355651 135.271835 
L 154.496088 135.546374 
L 156.069461 135.65942 
L 156.209898 135.756316 
L 157.840398 135.648653 
L 157.923708 135.551757 
L 161.77978 135.444095 
L 161.922598 135.121108 
L 162.35343 135.008062 
L 162.493868 134.690458 
L 164.06724 134.577413 
L 164.207678 134.259809 
L 164.63851 134.146763 
L 164.778948 133.829159 
L 165.20978 133.716114 
L 165.350218 133.39851 
L 165.78105 133.285464 
L 165.921488 132.967861 
L 166.35232 132.854815 
L 166.492758 132.537211 
L 189.269768 132.348802 
L 189.343557 132.149627 
L 189.774389 132.036581 
L 189.914827 131.697445 
L 190.321856 131.579016 
L 190.486096 131.126834 
L 192.059469 131.013789 
L 192.199906 130.696185 
L 192.630739 130.583139 
L 192.771176 130.265535 
L 193.202009 130.15249 
L 193.342446 129.834886 
L 193.773279 129.72184 
L 193.913716 129.404236 
L 194.339789 129.291191 
L 194.484986 128.591386 
L 196.058359 128.47834 
L 196.198796 128.079989 
L 196.629629 127.966944 
L 196.770066 127.64934 
L 197.200899 127.536294 
L 197.341336 127.21869 
L 197.772169 127.105645 
L 197.912606 126.788041 
L 198.343439 126.674996 
L 198.483876 126.357392 
L 200.057249 126.244346 
L 200.197686 125.926742 
L 200.628519 125.813697 
L 200.768956 125.496093 
L 201.199789 125.383047 
L 201.340226 125.065443 
L 201.771059 124.952398 
L 201.911496 124.726307 
L 205.20582 124.833969 
L 205.339116 125.528391 
L 205.769949 125.641437 
L 205.910386 126.029021 
L 206.341219 126.142067 
L 206.481656 126.459671 
L 208.055029 126.572716 
L 208.195466 126.89032 
L 208.626299 127.003366 
L 208.766736 127.32097 
L 209.197569 127.434015 
L 209.338006 127.751619 
L 209.768838 127.864665 
L 209.909276 128.203801 
L 210.340108 128.316847 
L 210.480546 128.63445 
L 212.053918 128.747496 
L 212.194356 129.0651 
L 212.625188 129.178145 
L 212.765626 129.495749 
L 213.196458 129.608795 
L 213.336896 129.926399 
L 213.767728 130.039444 
L 213.908166 130.545457 
L 214.315195 130.663886 
L 214.479435 131.449821 
L 216.029005 131.56825 
L 216.193245 132.31112 
L 216.600275 132.429549 
L 216.764515 133.172419 
L 217.171545 133.290848 
L 217.335785 134.033718 
L 217.742815 134.152146 
L 217.907055 134.803504 
L 218.337888 134.916549 
L 218.478325 135.234153 
L 220.051698 135.347199 
L 220.192135 135.664803 
L 220.622968 135.777848 
L 220.763405 136.095452 
L 221.194238 136.208498 
L 221.334675 136.57455 
L 221.765508 136.687595 
L 221.905945 137.005199 
L 222.336778 137.118245 
L 222.477215 137.435848 
L 224.050588 137.548894 
L 224.191025 137.866498 
L 224.621858 137.979543 
L 224.762295 138.297147 
L 225.193128 138.410193 
L 225.333565 138.727797 
L 225.764398 138.840842 
L 225.904835 139.158446 
L 226.335668 139.271492 
L 226.476105 139.589096 
L 238.341858 139.524498 
L 238.472774 139.228427 
L 240.046147 139.115381 
L 240.186584 138.706264 
L 240.617417 138.593219 
L 240.757854 138.275615 
L 241.188687 138.162569 
L 241.329124 137.844965 
L 241.759957 137.73192 
L 241.900394 137.414316 
L 242.321706 137.312037 
L 242.471664 136.348459 
L 244.045037 136.235413 
L 244.185474 135.917809 
L 244.616307 135.804764 
L 244.756744 135.48716 
L 245.187577 135.374114 
L 245.328014 135.05651 
L 245.751706 134.959614 
L 245.899284 133.629984 
L 246.296793 133.516939 
L 246.470554 131.74051 
L 248.010603 131.611315 
L 248.184364 130.432412 
L 248.581873 130.319366 
L 248.755634 128.962821 
L 249.146002 128.833626 
L 249.326904 127.229457 
L 249.722032 127.100262 
L 249.898174 126.314327 
L 250.369472 126.206664 
L 250.469444 126.023638 
L 252.042817 125.910593 
L 252.14993 125.393813 
L 252.183254 125.016995 
L 252.576002 124.898567 
L 252.754524 123.676599 
L 253.161554 123.55817 
L 253.325794 122.852982 
L 253.756627 122.739936 
L 253.897064 122.104728 
L 254.304094 121.9863 
L 254.332657 121.910936 
L 254.389784 122.040131 
L 254.404066 122.040131 
L 254.468334 121.932469 
L 256.041707 121.819423 
L 256.182144 121.582566 
L 256.612977 121.46952 
L 256.753414 121.151916 
L 257.184246 121.038871 
L 257.312782 121.022722 
L 262.282831 120.915059 
L 262.466113 120.500559 
L 264.039486 120.387514 
L 264.179923 120.06991 
L 264.610756 119.956864 
L 264.751193 119.886884 
L 297.70633 119.779221 
L 297.884852 119.353955 
L 301.312472 119.413169 
L 302.326476 119.520832 
L 302.455012 120.048377 
L 304.128357 119.946098 
L 304.168822 119.763072 
L 304.580612 119.644643 
L 304.740092 119.283974 
L 305.170924 119.170929 
L 305.311362 118.987903 
L 305.749335 119.084799 
L 305.882632 119.98378 
L 306.289661 120.102208 
L 306.453902 120.979657 
L 308.051077 121.081936 
L 308.167712 121.609481 
L 308.574741 121.72791 
L 308.738982 122.648423 
L 309.13173 122.783001 
L 309.310251 124.30104 
L 309.70538 124.430235 
L 309.881521 125.237703 
L 310.312354 125.350748 
L 310.452791 125.668352 
L 312.026164 125.781398 
L 312.133277 126.298177 
L 312.166601 126.674996 
L 312.559349 126.793424 
L 312.737871 128.015392 
L 313.144901 128.133821 
L 313.309141 128.839009 
L 313.739974 128.952054 
L 313.880411 129.587262 
L 314.287441 129.705691 
L 314.451681 130.141724 
L 316.025054 130.254769 
L 316.165491 130.572373 
L 316.596324 130.685418 
L 316.736761 131.003022 
L 317.155692 131.110685 
L 317.308031 131.498269 
L 317.738864 131.611315 
L 317.879301 131.928919 
L 318.310134 132.041964 
L 318.450571 132.359568 
L 320.023944 132.472614 
L 320.164381 132.790218 
L 320.595214 132.903263 
L 320.735651 133.220867 
L 321.166484 133.333913 
L 321.306921 133.651517 
L 321.737754 133.764562 
L 321.878191 134.082166 
L 322.309024 134.195211 
L 322.449461 134.512815 
L 324.022834 134.625861 
L 324.163271 134.943465 
L 324.594104 135.05651 
L 324.734541 135.126491 
L 348.085201 135.029595 
L 348.15661 134.415919 
L 348.554119 134.302874 
L 348.72788 133.775328 
L 349.158713 133.662283 
L 349.29915 133.344679 
L 349.729983 133.231633 
L 349.87042 132.914029 
L 350.301253 132.800984 
L 350.44169 132.48338 
L 351.986499 132.370334 
L 352.1555 130.712334 
L 352.553008 130.599289 
L 352.72677 129.145847 
L 353.124278 129.032801 
L 353.29804 127.853898 
L 353.695548 127.740853 
L 353.86931 126.626547 
L 354.276339 126.508119 
L 354.44058 125.910593 
L 356.013952 125.797547 
L 356.15439 125.479943 
L 356.585222 125.366898 
L 356.72566 125.049294 
L 357.156492 124.936248 
L 357.296929 124.699391 
L 360.065209 124.807054 
L 360.153279 125.006229 
L 360.584112 125.119274 
L 360.724549 125.436878 
L 361.155382 125.549924 
L 361.295819 125.867528 
L 361.726652 125.980573 
L 361.867089 126.298177 
L 362.297922 126.411223 
L 362.438359 126.728827 
L 364.011732 126.841872 
L 364.149789 127.428632 
L 364.152169 127.444781 
L 364.549678 127.557827 
L 364.723439 128.354528 
L 365.130469 128.472957 
L 365.294709 129.081249 
L 365.725542 129.194295 
L 365.865979 129.511899 
L 366.296812 129.624944 
L 366.408686 130.147107 
L 366.437249 130.405496 
L 367.977298 130.529308 
L 368.151059 131.083769 
L 368.581892 131.196815 
L 368.722329 131.514419 
L 369.153162 131.627464 
L 369.293599 131.945068 
L 369.724432 132.058114 
L 369.864869 132.375718 
L 370.295702 132.488763 
L 370.436139 132.806367 
L 372.009512 132.919412 
L 372.149949 133.237016 
L 372.580782 133.350062 
L 372.721219 133.667666 
L 373.152052 133.780711 
L 373.292489 134.098315 
L 373.723322 134.211361 
L 373.863759 134.528965 
L 374.294592 134.64201 
L 374.435029 134.959614 
L 376.008401 135.07266 
L 376.148839 135.390264 
L 376.579671 135.503309 
L 376.720109 135.820913 
L 389.228541 135.885511 
L 408.068549 135.982407 
L 408.139957 136.596082 
L 408.537466 136.709128 
L 408.711227 137.236673 
L 409.14206 137.349719 
L 409.282497 137.667323 
L 409.71333 137.780368 
L 409.853767 138.097972 
L 410.2846 138.211017 
L 410.425037 138.528621 
L 411.969846 138.641667 
L 412.138847 140.299667 
L 412.536356 140.412713 
L 412.710117 141.866155 
L 413.107626 141.9792 
L 413.281387 143.158103 
L 413.678896 143.271148 
L 413.852657 144.385454 
L 414.259687 144.503882 
L 414.423927 145.101409 
L 415.9973 145.214454 
L 416.137737 145.532058 
L 416.56857 145.645104 
L 416.709007 145.962707 
L 417.13984 146.075753 
L 417.280277 146.393357 
L 417.71111 146.506402 
L 417.851547 146.824006 
L 418.28238 146.937052 
L 418.422817 147.254656 
L 419.99619 147.367701 
L 420.131866 147.4 
L 432 147.4 
L 432 147.4 
" clip-path="url(#p384e3dad8d)" style="fill: none; stroke-dasharray: 3.7,1.6; stroke-dashoffset: 0; stroke: #000000"/>
   </g>
   <g id="line2d_13">
    <path d="M 28.055 147.4 
L 101.779771 147.292338 
L 101.93925 145.488993 
L 102.331998 145.354415 
L 102.51052 143.335746 
L 104.045808 143.201168 
L 104.22433 141.182499 
L 104.617078 141.047921 
L 104.7956 139.029251 
L 105.188348 138.894673 
L 105.36687 136.994433 
L 105.764379 136.881387 
L 105.93814 135.702484 
L 106.335649 135.589439 
L 106.50941 134.518199 
L 108.05898 134.39977 
L 108.22322 133.6569 
L 108.63025 133.538471 
L 108.79449 132.795601 
L 109.20152 132.677172 
L 109.36576 131.934302 
L 109.77279 131.815873 
L 109.93703 131.073003 
L 110.34406 130.954574 
L 110.5083 130.211704 
L 112.05787 130.093275 
L 112.22211 129.350405 
L 112.62914 129.231977 
L 112.79338 128.489106 
L 113.20041 128.370678 
L 113.36465 127.627807 
L 113.77168 127.509379 
L 113.93592 126.766509 
L 114.34295 126.64808 
L 114.50719 125.90521 
L 116.05676 125.786781 
L 116.221 125.043911 
L 116.628029 124.925482 
L 116.79227 124.182612 
L 117.199299 124.064183 
L 117.36354 123.590469 
L 117.794372 123.477423 
L 117.93481 123.159819 
L 118.365642 123.046774 
L 118.50608 122.72917 
L 120.079452 122.616125 
L 120.219889 122.298521 
L 120.650722 122.185475 
L 120.791159 121.867871 
L 121.221992 121.754826 
L 121.362429 121.437222 
L 121.793262 121.324176 
L 121.933699 121.006572 
L 122.364532 120.893527 
L 122.504969 120.575923 
L 124.078342 120.462877 
L 124.218779 120.145273 
L 124.649612 120.032228 
L 124.790049 119.714624 
L 125.220882 119.601578 
L 125.361319 119.283974 
L 125.792152 119.170929 
L 125.932589 118.853325 
L 126.363422 118.74028 
L 126.503859 118.422676 
L 128.077232 118.30963 
L 128.217669 117.992026 
L 128.648502 117.878981 
L 128.788939 117.561377 
L 129.219772 117.448331 
L 129.360209 117.130727 
L 129.791042 117.017682 
L 129.931479 116.700078 
L 130.362312 116.587032 
L 130.502749 116.005656 
L 132.052319 115.887227 
L 132.216559 115.144357 
L 132.623589 115.025928 
L 132.787829 114.283058 
L 133.194859 114.164629 
L 133.359099 113.421759 
L 133.766129 113.30333 
L 133.930369 112.56046 
L 134.337399 112.442031 
L 134.501639 111.699161 
L 136.051209 111.580733 
L 136.215449 110.837862 
L 136.622479 110.719434 
L 136.786719 109.976563 
L 137.193749 109.858135 
L 137.357989 109.115264 
L 137.765019 108.996836 
L 137.929259 108.253966 
L 138.336289 108.135537 
L 138.500529 107.392667 
L 140.050098 107.274238 
L 140.214339 106.531368 
L 140.621368 106.412939 
L 140.785609 105.670069 
L 141.192638 105.55164 
L 141.356879 104.80877 
L 141.763908 104.690341 
L 141.928149 103.947471 
L 142.335178 103.829043 
L 142.499419 103.086172 
L 144.048988 102.967744 
L 144.213228 102.224873 
L 144.620258 102.106445 
L 144.784498 101.363574 
L 145.191528 101.245146 
L 145.355768 100.857561 
L 145.786601 100.744516 
L 145.927038 100.21697 
L 146.334068 100.098542 
L 146.498308 99.355671 
L 148.047878 99.237243 
L 148.212118 98.494373 
L 148.619148 98.375944 
L 148.783388 97.633074 
L 149.190418 97.514645 
L 149.354658 96.771775 
L 149.761688 96.653346 
L 149.925928 95.996606 
L 150.356761 95.88356 
L 150.497198 95.565956 
L 152.070571 95.452911 
L 152.211008 95.135307 
L 152.641841 95.022261 
L 152.782278 94.704657 
L 153.213111 94.591612 
L 153.353548 94.274008 
L 153.784381 94.160963 
L 153.924818 93.843359 
L 154.355651 93.730313 
L 154.496088 93.412709 
L 156.069461 93.299664 
L 156.209898 92.98206 
L 156.640731 92.869014 
L 156.781168 92.55141 
L 157.212001 92.438365 
L 157.352438 92.120761 
L 157.783271 92.007715 
L 157.923708 91.690111 
L 158.354541 91.577066 
L 158.494978 91.259462 
L 160.068351 91.146416 
L 160.208788 90.828812 
L 160.639621 90.715767 
L 160.780058 90.398163 
L 161.210891 90.285118 
L 161.351328 89.967514 
L 161.770259 90.069793 
L 161.922598 91.447871 
L 162.317726 91.577066 
L 162.493868 93.170469 
L 164.031536 93.299664 
L 164.207678 94.893067 
L 164.602806 95.022261 
L 164.778948 96.615664 
L 165.174076 96.744859 
L 165.350218 98.219834 
L 165.757247 98.338262 
L 165.921488 99.081132 
L 166.328517 99.199561 
L 166.492758 99.834769 
L 168.094694 99.73249 
L 168.206567 99.479483 
L 168.6374 99.366438 
L 168.777837 99.048834 
L 169.20867 98.935788 
L 169.349107 98.618184 
L 169.77994 98.505139 
L 169.920377 98.187535 
L 170.35121 98.074489 
L 170.491647 97.945295 
L 176.692307 98.052957 
L 176.775617 98.241366 
L 177.20645 98.354411 
L 177.313563 98.40286 
L 177.330225 98.365178 
L 177.346887 98.327496 
L 177.77772 98.21445 
L 177.918157 97.896846 
L 178.34899 97.783801 
L 178.489427 97.466197 
L 180.0628 97.353152 
L 180.203237 97.035548 
L 180.63407 96.922502 
L 180.774507 96.604898 
L 181.20534 96.491853 
L 181.345777 96.174249 
L 181.77661 96.061203 
L 181.917047 95.743599 
L 182.34788 95.630554 
L 182.488317 95.31295 
L 184.06169 95.199904 
L 184.202127 94.8823 
L 184.63296 94.769255 
L 184.773397 94.451651 
L 185.20423 94.338605 
L 185.344667 94.021001 
L 185.775499 93.907956 
L 185.915937 93.590352 
L 186.346769 93.477307 
L 186.487207 93.159703 
L 188.060579 93.046657 
L 188.201017 92.729053 
L 188.631849 92.616008 
L 188.772287 92.298404 
L 190.457533 92.384534 
L 190.486096 92.449131 
L 192.059469 92.562176 
L 192.199906 92.87978 
L 192.630739 92.992826 
L 192.771176 93.31043 
L 193.202009 93.423475 
L 193.342446 93.741079 
L 193.773279 93.854125 
L 193.913716 94.171729 
L 194.344549 94.284774 
L 194.484986 94.602378 
L 196.058359 94.715424 
L 196.198796 95.033028 
L 196.629629 95.146073 
L 196.770066 95.463677 
L 197.200899 95.576723 
L 197.341336 95.894327 
L 197.772169 96.007372 
L 197.912606 96.324976 
L 198.343439 96.438021 
L 198.483876 96.755625 
L 200.057249 96.868671 
L 200.197686 97.186275 
L 200.628519 97.29932 
L 200.768956 97.616924 
L 201.199789 97.72997 
L 201.340226 98.047574 
L 201.771059 98.160619 
L 201.871031 98.38671 
L 201.911496 98.203684 
L 202.318526 98.085256 
L 202.482766 97.342385 
L 204.032336 97.223957 
L 204.196576 96.481086 
L 204.603606 96.362658 
L 204.767846 95.619788 
L 205.174876 95.501359 
L 205.339116 94.715424 
L 205.746146 94.596995 
L 205.817554 94.462417 
L 205.86516 94.57008 
L 205.910386 94.672359 
L 206.341219 94.785404 
L 206.481656 95.103008 
L 208.055029 95.216054 
L 208.195466 95.533658 
L 208.626299 95.646703 
L 208.766736 95.964307 
L 209.197569 96.077353 
L 209.338006 96.394957 
L 209.768838 96.508002 
L 209.909276 96.739476 
L 228.039957 96.847138 
L 228.189915 97.525411 
L 228.596945 97.64384 
L 228.761185 98.38671 
L 229.168215 98.505139 
L 229.332455 99.248009 
L 229.739485 99.366438 
L 229.903725 100.109308 
L 230.310755 100.227737 
L 230.474995 100.782198 
L 232.048368 100.895243 
L 232.188805 101.212847 
L 232.619638 101.325893 
L 232.760075 101.643497 
L 233.190907 101.756542 
L 233.331345 102.074146 
L 233.762177 102.187192 
L 233.902615 102.504796 
L 234.333447 102.617841 
L 234.473885 102.935445 
L 236.047257 103.04849 
L 236.187695 103.366094 
L 236.618527 103.47914 
L 236.749443 103.500672 
L 237.725363 103.608335 
L 237.901505 104.006685 
L 238.313295 104.114348 
L 238.472774 104.835686 
L 240.022344 104.954114 
L 240.186584 105.696985 
L 240.593614 105.815413 
L 240.757854 106.558283 
L 241.164884 106.676712 
L 241.329124 107.419582 
L 241.736154 107.538011 
L 241.900394 108.280881 
L 242.307424 108.39931 
L 242.471664 109.14218 
L 244.021234 109.260609 
L 244.185474 110.003479 
L 244.592504 110.121908 
L 244.756744 110.864778 
L 245.163774 110.983206 
L 245.328014 111.726077 
L 245.735044 111.844505 
L 245.899284 112.587376 
L 246.306314 112.705804 
L 246.470554 113.448674 
L 248.020124 113.567103 
L 248.184364 114.309973 
L 248.591394 114.428402 
L 248.755634 115.171272 
L 249.162664 115.289701 
L 249.326904 115.714967 
L 249.757737 115.828013 
L 249.898174 116.145617 
L 250.329007 116.258662 
L 250.469444 116.576266 
L 252.042817 116.689312 
L 252.183254 117.006916 
L 252.614087 117.119961 
L 252.754524 117.437565 
L 253.185357 117.55061 
L 253.325794 117.868214 
L 253.756627 117.98126 
L 253.897064 118.298864 
L 254.327897 118.411909 
L 254.468334 118.729513 
L 256.041707 118.842559 
L 256.182144 119.160163 
L 256.612977 119.273208 
L 256.753414 119.590812 
L 257.184246 119.703858 
L 257.324684 120.021462 
L 257.755516 120.134507 
L 257.895954 120.452111 
L 258.326786 120.565157 
L 258.467224 120.882761 
L 260.040596 120.995806 
L 260.181034 121.31341 
L 260.611866 121.426455 
L 260.752304 121.744059 
L 261.183136 121.857105 
L 261.323574 122.174709 
L 261.754406 122.287754 
L 261.894843 122.879897 
L 262.289972 123.009092 
L 262.466113 124.602495 
L 264.003782 124.73169 
L 264.179923 126.325093 
L 264.575052 126.454288 
L 264.6417 127.057197 
L 264.729771 126.858022 
L 264.751193 126.809573 
L 265.182026 126.696528 
L 265.305801 126.142067 
L 265.322463 126.066703 
L 265.729493 125.948275 
L 265.872311 124.790904 
L 265.893733 124.597112 
L 266.288862 124.467917 
L 266.465003 122.874514 
L 268.002672 122.745319 
L 268.178813 121.259579 
L 268.585843 121.14115 
L 268.750083 120.39828 
L 269.157113 120.279851 
L 269.321353 119.682325 
L 269.752186 119.56928 
L 269.892623 119.251676 
L 270.323456 119.13863 
L 270.463893 118.821026 
L 272.037266 118.707981 
L 272.177703 118.390377 
L 272.608536 118.277331 
L 272.748973 117.959727 
L 273.179806 117.846682 
L 273.320243 117.529078 
L 273.751076 117.416032 
L 273.891513 117.098429 
L 274.322346 116.985383 
L 274.462783 116.667779 
L 276.036156 116.554734 
L 276.176593 116.23713 
L 276.607426 116.124084 
L 276.747863 115.80648 
L 277.178696 115.693435 
L 277.319133 115.375831 
L 280.113595 115.230487 
L 280.175483 115.090525 
L 280.606315 114.97748 
L 280.746753 114.659876 
L 281.177585 114.546831 
L 281.318023 114.229227 
L 281.748855 114.116181 
L 281.889293 113.798577 
L 282.320125 113.685532 
L 282.460563 113.367928 
L 284.033935 113.254882 
L 284.174373 112.937278 
L 284.605205 112.824233 
L 284.745643 112.506629 
L 285.176475 112.393583 
L 285.316913 112.075979 
L 285.747745 111.962934 
L 285.888182 111.64533 
L 286.319015 111.532284 
L 286.459452 111.214681 
L 288.032825 111.101635 
L 288.173262 110.784031 
L 288.604095 110.670986 
L 288.744532 110.353382 
L 289.175365 110.240336 
L 289.315802 109.922732 
L 289.746635 109.809687 
L 289.887072 109.492083 
L 290.317905 109.379037 
L 290.458342 109.061433 
L 292.031715 108.948388 
L 292.172152 108.630784 
L 292.602985 108.517738 
L 292.743422 108.200134 
L 293.174255 108.087089 
L 293.314692 107.769485 
L 293.745525 107.656439 
L 293.885962 107.338836 
L 296.07583 107.198874 
L 296.171042 106.98355 
L 296.601875 106.870504 
L 296.742312 106.5529 
L 297.173145 106.439855 
L 297.313582 106.202998 
L 298.327586 106.095335 
L 298.456122 105.804647 
L 300.029495 105.691601 
L 300.169932 105.304017 
L 300.576962 105.185588 
L 300.741202 104.442718 
L 301.148232 104.324289 
L 301.312472 103.581419 
L 301.719502 103.462991 
L 301.883742 102.72012 
L 302.290772 102.601692 
L 302.455012 101.858821 
L 304.004582 101.740393 
L 304.168822 100.997522 
L 304.575852 100.879094 
L 304.740092 100.136224 
L 305.147122 100.017795 
L 305.311362 99.274925 
L 305.718392 99.156496 
L 305.882632 98.580502 
L 306.313464 98.467457 
L 306.453902 98.149853 
L 308.027274 98.036808 
L 308.167712 97.719204 
L 308.598544 97.606158 
L 308.738982 97.288554 
L 309.169814 97.175509 
L 309.310251 96.857905 
L 309.741084 96.744859 
L 309.881521 96.427255 
L 310.312354 96.31421 
L 310.452791 95.996606 
L 312.026164 95.88356 
L 312.166601 95.565956 
L 312.597434 95.452911 
L 312.737871 95.135307 
L 313.168704 95.022261 
L 313.309141 94.704657 
L 313.739974 94.591612 
L 313.880411 94.274008 
L 314.311244 94.160963 
L 314.451681 93.843359 
L 316.025054 93.730313 
L 316.165491 93.412709 
L 316.596324 93.299664 
L 316.736761 92.98206 
L 317.148552 92.890547 
L 317.308031 91.087202 
L 317.700779 90.952624 
L 317.879301 88.933955 
L 318.272049 88.799377 
L 318.450571 86.780708 
L 319.985859 86.64613 
L 320.164381 84.62746 
L 320.557129 84.492883 
L 320.735651 82.474213 
L 321.128399 82.339635 
L 321.306921 80.320966 
L 321.699669 80.186388 
L 321.878191 78.46379 
L 322.273319 78.334595 
L 322.449461 76.741193 
L 323.987129 76.611998 
L 324.163271 75.018595 
L 324.558399 74.8894 
L 324.625047 74.286491 
L 324.713118 74.485666 
L 324.734541 74.534114 
L 325.155852 74.64716 
L 325.305811 75.325432 
L 325.712841 75.443861 
L 325.877081 76.186731 
L 326.284111 76.30516 
L 326.448351 77.209524 
L 327.988399 77.322569 
L 328.162161 78.39381 
L 328.592993 78.506855 
L 328.733431 78.824459 
L 329.164263 78.937505 
L 329.304701 79.109764 
L 329.742674 79.217427 
L 329.875971 79.518881 
L 330.306803 79.631927 
L 330.447241 79.949531 
L 332.020613 80.062576 
L 332.161051 80.38018 
L 332.591883 80.493226 
L 332.732321 80.81083 
L 333.163153 80.923875 
L 333.30359 81.241479 
L 333.734423 81.354525 
L 333.87486 81.672129 
L 334.305693 81.785174 
L 334.44613 82.102778 
L 336.019503 82.215824 
L 336.15994 82.533428 
L 336.590773 82.646473 
L 336.73121 82.964077 
L 337.162043 83.077122 
L 337.30248 83.394726 
L 340.096943 83.540071 
L 340.15883 83.680032 
L 340.589663 83.793077 
L 340.7301 84.110681 
L 341.160933 84.223727 
L 341.30137 84.541331 
L 341.732203 84.654376 
L 341.87264 84.97198 
L 342.303473 85.085026 
L 342.44391 85.402629 
L 344.017283 85.515675 
L 344.15772 85.833279 
L 344.588553 85.946324 
L 344.72899 86.263928 
L 345.159823 86.376974 
L 345.30026 86.694578 
L 345.731093 86.807623 
L 345.87153 87.125227 
L 346.302363 87.238273 
L 346.4428 87.555877 
L 348.016173 87.668922 
L 348.15661 88.180318 
L 348.56364 88.298747 
L 348.72788 89.041617 
L 349.13491 89.160046 
L 349.29915 89.902916 
L 349.70618 90.021345 
L 349.87042 90.764215 
L 350.27745 90.882644 
L 350.44169 91.625514 
L 351.99126 91.743943 
L 352.1555 92.486813 
L 352.56253 92.605241 
L 352.72677 93.348112 
L 353.1338 93.46654 
L 353.29804 94.209411 
L 353.70507 94.327839 
L 353.86931 95.070709 
L 354.276339 95.189138 
L 354.44058 95.592872 
L 356.013952 95.705917 
L 356.15439 96.287294 
L 356.561419 96.405723 
L 356.72566 97.148593 
L 357.132689 97.267022 
L 357.296929 97.929145 
L 357.727762 98.042191 
L 357.868199 98.359795 
L 358.299032 98.47284 
L 358.439469 98.790444 
L 360.012842 98.90349 
L 360.027124 98.935788 
L 360.067589 98.752762 
L 360.153279 98.435158 
L 360.584112 98.322113 
L 360.724549 98.004509 
L 361.155382 97.891463 
L 361.295819 97.573859 
L 361.726652 97.460814 
L 361.867089 97.14321 
L 362.297922 97.030164 
L 362.438359 96.71256 
L 364.011732 96.599515 
L 364.152169 96.281911 
L 364.583002 96.168866 
L 364.723439 96.045054 
L 365.839796 95.937391 
L 365.865979 95.878177 
L 366.296812 95.765132 
L 366.437249 95.447528 
L 368.010622 95.334482 
L 368.151059 95.016878 
L 368.581892 94.903833 
L 368.722329 94.586229 
L 369.153162 94.473183 
L 369.293599 93.972553 
L 369.700629 93.854125 
L 369.864869 93.111255 
L 370.271899 92.992826 
L 370.436139 92.249956 
L 371.985709 92.131527 
L 372.149949 91.388657 
L 372.556979 91.270228 
L 372.721219 90.527358 
L 373.128249 90.408929 
L 373.292489 89.666059 
L 373.699519 89.54763 
L 373.863759 88.80476 
L 374.270789 88.686331 
L 374.435029 87.964994 
L 376.008401 87.851948 
L 376.148839 87.534344 
L 376.579671 87.421299 
L 376.720109 87.082162 
L 377.127139 86.963734 
L 377.129519 86.952967 
L 377.184266 87.200591 
L 377.291379 87.685072 
L 377.698408 87.8035 
L 377.862649 88.54637 
L 378.269678 88.664799 
L 378.433919 89.407669 
L 379.983488 89.526098 
L 380.147729 90.268968 
L 380.554758 90.387397 
L 380.718998 91.178715 
L 381.116507 91.291761 
L 381.290268 92.825949 
L 381.685397 92.955144 
L 381.861538 94.252476 
L 382.259047 94.365521 
L 382.432808 95.544424 
L 383.972857 95.657469 
L 384.146618 96.836372 
L 384.544127 96.949418 
L 384.717888 98.128321 
L 385.115397 98.241366 
L 385.289158 99.0596 
L 385.696188 99.178029 
L 385.860428 99.920899 
L 386.267458 100.039327 
L 386.431698 100.620704 
L 388.005071 100.73375 
L 388.145508 101.051354 
L 388.576341 101.164399 
L 388.716778 101.482003 
L 389.147611 101.595049 
L 389.288048 101.912653 
L 398.428368 101.934185 
L 401.677466 102.041847 
L 401.855988 102.445581 
L 402.28682 102.558627 
L 402.427258 102.876231 
L 404.00063 102.989276 
L 404.141068 103.30688 
L 404.5719 103.419926 
L 404.712337 103.73753 
L 405.14317 103.850575 
L 405.283607 104.168179 
L 405.71444 104.281224 
L 405.854877 104.598828 
L 406.28571 104.711874 
L 406.426147 105.029478 
L 407.99952 105.142523 
L 408.139957 105.266335 
L 420.024753 105.363231 
L 420.136627 106.122251 
L 420.534136 106.235296 
L 420.707897 107.414199 
L 421.105406 107.527245 
L 421.279167 108.706147 
L 421.676675 108.819193 
L 421.850437 109.998096 
L 422.247945 110.111141 
L 422.421707 111.290044 
L 423.961755 111.40309 
L 424.135517 112.581992 
L 424.533025 112.695038 
L 424.706787 113.680149 
L 425.113816 113.798577 
L 425.278057 114.541447 
L 425.685086 114.659876 
L 425.849327 115.402746 
L 426.256356 115.521175 
L 426.420597 116.264045 
L 427.970166 116.382474 
L 428.134406 117.125344 
L 428.541436 117.243773 
L 428.705676 117.986643 
L 429.112706 118.105072 
L 429.276946 119.030968 
L 429.674455 119.144013 
L 429.848216 120.322916 
L 430.245725 120.435962 
L 430.419486 121.614865 
L 431.959535 121.72791 
L 432 122.002449 
L 432 122.002449 
" clip-path="url(#p384e3dad8d)" style="fill: none; stroke-dasharray: 1,1.65; stroke-dashoffset: 0; stroke: #000000"/>
   </g>
   <g id="patch_3">
    <path d="M 28.055 147.4 
L 28.055 0 
" style="fill: none; stroke: #000000; stroke-width: 0.8; stroke-linejoin: miter; stroke-linecap: square"/>
   </g>
   <g id="patch_4">
    <path d="M 432 147.4 
L 432 0 
" style="fill: none; stroke: #000000; stroke-width: 0.8; stroke-linejoin: miter; stroke-linecap: square"/>
   </g>
   <g id="patch_5">
    <path d="M 28.055 147.4 
L 432 147.4 
" style="fill: none; stroke: #000000; stroke-width: 0.8; stroke-linejoin: miter; stroke-linecap: square"/>
   </g>
   <g id="patch_6">
    <path d="M 28.055 0 
L 432 0 
" style="fill: none; stroke: #000000; stroke-width: 0.8; stroke-linejoin: miter; stroke-linecap: square"/>
   </g>
   <g id="legend_1">
    <g id="line2d_14">
     <path d="M 322.951875 15 
L 334.951875 15 
L 346.951875 15 
" style="fill: none; stroke: #000000; stroke-width: 1.5; stroke-linecap: square"/>
    </g>
    <g id="text_13">
     <text style="font: 12px 'Times New Roman'; text-anchor: start" x="356.551875" y="19.2" transform="rotate(-0 356.551875 19.2)">Overall</text>
    </g>
    <g id="line2d_15">
     <path d="M 322.951875 31.966875 
L 334.951875 31.966875 
L 346.951875 31.966875 
" style="fill: none; stroke-dasharray: 3.7,1.6; stroke-dashoffset: 0; stroke: #000000"/>
    </g>
    <g id="text_14">
     <text style="font: 12px 'Times New Roman'; text-anchor: start" x="356.551875" y="36.166875" transform="rotate(-0 356.551875 36.166875)">Development</text>
    </g>
    <g id="line2d_16">
     <path d="M 322.951875 48.93375 
L 334.951875 48.93375 
L 346.951875 48.93375 
" style="fill: none; stroke-dasharray: 1,1.65; stroke-dashoffset: 0; stroke: #000000"/>
    </g>
    <g id="text_15">
     <text style="font: 12px 'Times New Roman'; text-anchor: start" x="356.551875" y="53.13375" transform="rotate(-0 356.551875 53.13375)">Testing</text>
    </g>
   </g>
  </g>
 </g>
 <defs>
  <clipPath id="p384e3dad8d">
   <rect x="28.055" y="0" width="403.945" height="147.4"/>
  </clipPath>
 </defs>
</svg>
