<?xml version="1.0" encoding="utf-8" standalone="no"?>
<!DOCTYPE svg PUBLIC "-//W3C//DTD SVG 1.1//EN"
  "http://www.w3.org/Graphics/SVG/1.1/DTD/svg11.dtd">
<svg xmlns:xlink="http://www.w3.org/1999/xlink" width="216pt" height="201.6pt" viewBox="0 0 216 201.6" xmlns="http://www.w3.org/2000/svg" version="1.1">
 <metadata>
  <rdf:RDF xmlns:dc="http://purl.org/dc/elements/1.1/" xmlns:cc="http://creativecommons.org/ns#" xmlns:rdf="http://www.w3.org/1999/02/22-rdf-syntax-ns#">
   <cc:Work>
    <dc:type rdf:resource="http://purl.org/dc/dcmitype/StillImage"/>
    <dc:date>2025-04-10T03:08:09.956804</dc:date>
    <dc:format>image/svg+xml</dc:format>
    <dc:creator>
     <cc:Agent>
      <dc:title>Matplotlib v3.8.2, https://matplotlib.org/</dc:title>
     </cc:Agent>
    </dc:creator>
   </cc:Work>
  </rdf:RDF>
 </metadata>
 <defs>
  <style type="text/css">*{stroke-linejoin: round; stroke-linecap: butt}</style>
 </defs>
 <g id="figure_1">
  <g id="patch_1">
   <path d="M 0 201.6 
L 216 201.6 
L 216 0 
L 0 0 
z
" style="fill: #ffffff"/>
  </g>
  <g id="axes_1">
   <g id="patch_2">
    <path d="M 42.74 166.12 
L 209.16 166.12 
L 209.16 3.96 
L 42.74 3.96 
z
" style="fill: #ffffff"/>
   </g>
   <g id="matplotlib.axis_1">
    <g id="xtick_1">
     <g id="line2d_1">
      <defs>
       <path id="m1814b02f81" d="M 0 0 
L 0 3.5 
" style="stroke: #000000; stroke-width: 0.8"/>
      </defs>
      <g>
       <use xlink:href="#m1814b02f81" x="42.74" y="166.12" style="stroke: #000000; stroke-width: 0.8"/>
      </g>
     </g>
     <g id="text_1">
      <text style="font: 11px 'Times New Roman'; text-anchor: middle" x="42.74" y="180.758125" transform="rotate(-0 42.74 180.758125)">0.0</text>
     </g>
    </g>
    <g id="xtick_2">
     <g id="line2d_2">
      <g>
       <use xlink:href="#m1814b02f81" x="76.024" y="166.12" style="stroke: #000000; stroke-width: 0.8"/>
      </g>
     </g>
     <g id="text_2">
      <text style="font: 11px 'Times New Roman'; text-anchor: middle" x="76.024" y="180.758125" transform="rotate(-0 76.024 180.758125)">0.2</text>
     </g>
    </g>
    <g id="xtick_3">
     <g id="line2d_3">
      <g>
       <use xlink:href="#m1814b02f81" x="109.308" y="166.12" style="stroke: #000000; stroke-width: 0.8"/>
      </g>
     </g>
     <g id="text_3">
      <text style="font: 11px 'Times New Roman'; text-anchor: middle" x="109.308" y="180.758125" transform="rotate(-0 109.308 180.758125)">0.4</text>
     </g>
    </g>
    <g id="xtick_4">
     <g id="line2d_4">
      <g>
       <use xlink:href="#m1814b02f81" x="142.592" y="166.12" style="stroke: #000000; stroke-width: 0.8"/>
      </g>
     </g>
     <g id="text_4">
      <text style="font: 11px 'Times New Roman'; text-anchor: middle" x="142.592" y="180.758125" transform="rotate(-0 142.592 180.758125)">0.6</text>
     </g>
    </g>
    <g id="xtick_5">
     <g id="line2d_5">
      <g>
       <use xlink:href="#m1814b02f81" x="175.876" y="166.12" style="stroke: #000000; stroke-width: 0.8"/>
      </g>
     </g>
     <g id="text_5">
      <text style="font: 11px 'Times New Roman'; text-anchor: middle" x="175.876" y="180.758125" transform="rotate(-0 175.876 180.758125)">0.8</text>
     </g>
    </g>
    <g id="xtick_6">
     <g id="line2d_6">
      <g>
       <use xlink:href="#m1814b02f81" x="209.16" y="166.12" style="stroke: #000000; stroke-width: 0.8"/>
      </g>
     </g>
     <g id="text_6">
      <text style="font: 11px 'Times New Roman'; text-anchor: middle" x="209.16" y="180.758125" transform="rotate(-0 209.16 180.758125)">1.0</text>
     </g>
    </g>
    <g id="text_7">
     <!-- Actual Quality $Q$ -->
     <g transform="translate(84.61 195.511094)">
      <text>
       <tspan style="font: 12px 'Times New Roman'" x="0 8.666016 13.992188 17.326172 23.326172 28.652344 31.986328 34.986328 43.652344 49.652344 54.978516 58.3125 61.646484 64.980469 70.980469" y="-0.671875">Actual Quality </tspan>
       <tspan style="font: italic 12px 'STIXGeneral'" x="73.980469" y="-0.671875">Q</tspan>
      </text>
     </g>
    </g>
   </g>
   <g id="matplotlib.axis_2">
    <g id="ytick_1">
     <g id="line2d_7">
      <defs>
       <path id="me8d45d7f58" d="M 0 0 
L -3.5 0 
" style="stroke: #000000; stroke-width: 0.8"/>
      </defs>
      <g>
       <use xlink:href="#me8d45d7f58" x="42.74" y="166.12" style="stroke: #000000; stroke-width: 0.8"/>
      </g>
     </g>
     <g id="text_8">
      <text style="font: 11px 'Times New Roman'; text-anchor: end" x="35.74" y="169.939063" transform="rotate(-0 35.74 169.939063)">0.0</text>
     </g>
    </g>
    <g id="ytick_2">
     <g id="line2d_8">
      <g>
       <use xlink:href="#me8d45d7f58" x="42.74" y="133.688" style="stroke: #000000; stroke-width: 0.8"/>
      </g>
     </g>
     <g id="text_9">
      <text style="font: 11px 'Times New Roman'; text-anchor: end" x="35.74" y="137.507063" transform="rotate(-0 35.74 137.507063)">0.2</text>
     </g>
    </g>
    <g id="ytick_3">
     <g id="line2d_9">
      <g>
       <use xlink:href="#me8d45d7f58" x="42.74" y="101.256" style="stroke: #000000; stroke-width: 0.8"/>
      </g>
     </g>
     <g id="text_10">
      <text style="font: 11px 'Times New Roman'; text-anchor: end" x="35.74" y="105.075063" transform="rotate(-0 35.74 105.075063)">0.4</text>
     </g>
    </g>
    <g id="ytick_4">
     <g id="line2d_10">
      <g>
       <use xlink:href="#me8d45d7f58" x="42.74" y="68.824" style="stroke: #000000; stroke-width: 0.8"/>
      </g>
     </g>
     <g id="text_11">
      <text style="font: 11px 'Times New Roman'; text-anchor: end" x="35.74" y="72.643063" transform="rotate(-0 35.74 72.643063)">0.6</text>
     </g>
    </g>
    <g id="ytick_5">
     <g id="line2d_11">
      <g>
       <use xlink:href="#me8d45d7f58" x="42.74" y="36.392" style="stroke: #000000; stroke-width: 0.8"/>
      </g>
     </g>
     <g id="text_12">
      <text style="font: 11px 'Times New Roman'; text-anchor: end" x="35.74" y="40.211062" transform="rotate(-0 35.74 40.211062)">0.8</text>
     </g>
    </g>
    <g id="ytick_6">
     <g id="line2d_12">
      <g>
       <use xlink:href="#me8d45d7f58" x="42.74" y="3.96" style="stroke: #000000; stroke-width: 0.8"/>
      </g>
     </g>
     <g id="text_13">
      <text style="font: 11px 'Times New Roman'; text-anchor: end" x="35.74" y="7.779063" transform="rotate(-0 35.74 7.779063)">1.0</text>
     </g>
    </g>
    <g id="text_14">
     <!-- Measured Quality $\hat{Q}$ -->
     <g transform="translate(15.35 134.06) rotate(-90)">
      <text>
       <tspan style="font: 12px 'Times New Roman'" x="0 10.669922 15.996094 21.322266 25.992188 31.992188 35.988281 41.314453 47.314453 50.314453 58.980469 64.980469 70.306641 73.640625 76.974609 80.308594 86.308594" y="-0.5">Measured Quality </tspan>
       <tspan style="font: 12px 'STIXGeneral'" x="97.115215" y="-3.90625">̂</tspan>
       <tspan style="font: italic 12px 'STIXGeneral'" x="89.308594" y="-0.5">Q</tspan>
      </text>
     </g>
    </g>
   </g>
   <g id="line2d_13">
    <path d="M 42.74 166.12 
L 209.16 3.96 
L 209.16 3.96 
" clip-path="url(#pc037a834d7)" style="fill: none; stroke: #000000; stroke-linecap: square"/>
   </g>
   <g id="line2d_14">
    <path d="M 42.74 166.12 
L 56.4001 149.656307 
L 69.56044 134.13929 
L 82.221021 119.552748 
L 94.381842 105.880349 
L 105.876316 93.285712 
L 116.871031 81.562209 
L 127.365986 70.692707 
L 137.361181 60.660053 
L 146.69003 51.605947 
L 155.519119 43.342811 
L 163.681862 35.999829 
L 171.344845 29.400122 
L 178.341481 23.659334 
L 184.838358 18.613047 
L 190.668889 14.362569 
L 195.833073 10.867953 
L 200.330911 8.088875 
L 203.995816 6.071976 
L 206.827788 4.741892 
L 208.826827 4.028671 
L 209.16 3.96 
L 209.16 3.96 
" clip-path="url(#pc037a834d7)" style="fill: none; stroke-dasharray: 3.7,1.6; stroke-dashoffset: 0; stroke: #000000"/>
   </g>
   <g id="line2d_15">
    <path d="M 42.74 166.12 
L 49.236877 153.705998 
L 55.567167 142.085735 
L 61.897457 130.934727 
L 68.061161 120.528063 
L 74.058278 110.82967 
L 80.055395 101.552437 
L 85.885926 92.93668 
L 91.716456 84.719011 
L 97.3804 77.117322 
L 103.044344 69.891298 
L 108.541702 63.237057 
L 114.039059 56.936709 
L 119.36983 51.165249 
L 124.534014 45.891479 
L 129.698198 40.930006 
L 134.862382 36.280828 
L 139.85998 32.078971 
L 144.857578 28.169586 
L 149.688589 24.668526 
L 154.5196 21.440765 
L 159.184024 18.583633 
L 163.848448 15.981276 
L 168.512873 13.633695 
L 173.177297 11.540891 
L 177.675135 9.76412 
L 182.172973 8.224251 
L 186.670811 6.921286 
L 191.168649 5.855223 
L 195.4999 5.052548 
L 199.831151 4.469552 
L 204.162402 4.106236 
L 208.493654 3.9626 
L 209.16 3.96 
L 209.16 3.96 
" clip-path="url(#pc037a834d7)" style="fill: none; stroke-dasharray: 1,1.65; stroke-dashoffset: 0; stroke: #000000"/>
   </g>
   <g id="line2d_16">
    <path d="M 42.74 166.12 
L 45.905145 151.274899 
L 48.903704 138.233916 
L 51.902262 126.133289 
L 54.900821 114.921221 
L 57.899379 104.547853 
L 60.897938 94.965225 
L 63.896496 86.127244 
L 66.895055 77.989642 
L 69.893614 70.509942 
L 72.892172 63.647421 
L 75.890731 57.363071 
L 78.722703 51.925072 
L 81.554675 46.93938 
L 84.386647 42.377171 
L 87.218619 38.210877 
L 90.217177 34.20178 
L 93.215736 30.577208 
L 96.214294 27.308811 
L 99.212853 24.36967 
L 102.211411 21.734256 
L 105.376557 19.255248 
L 108.541702 17.060896 
L 111.873433 15.030839 
L 115.205165 13.260618 
L 118.703483 11.653349 
L 122.368388 10.216118 
L 126.19988 8.951867 
L 130.364545 7.818531 
L 134.862382 6.836011 
L 139.693393 6.014928 
L 145.024164 5.338542 
L 151.021281 4.803808 
L 158.184505 4.397244 
L 167.013594 4.128935 
L 179.674174 3.988313 
L 208.993413 3.96 
L 209.16 3.96 
L 209.16 3.96 
" clip-path="url(#pc037a834d7)" style="fill: none; stroke-dasharray: 6.4,1.6,1,1.6; stroke-dashoffset: 0; stroke: #000000"/>
   </g>
   <g id="patch_3">
    <path d="M 42.74 166.12 
L 42.74 3.96 
" style="fill: none; stroke: #000000; stroke-width: 0.8; stroke-linejoin: miter; stroke-linecap: square"/>
   </g>
   <g id="patch_4">
    <path d="M 209.16 166.12 
L 209.16 3.96 
" style="fill: none; stroke: #000000; stroke-width: 0.8; stroke-linejoin: miter; stroke-linecap: square"/>
   </g>
   <g id="patch_5">
    <path d="M 42.74 166.12 
L 209.16 166.12 
" style="fill: none; stroke: #000000; stroke-width: 0.8; stroke-linejoin: miter; stroke-linecap: square"/>
   </g>
   <g id="patch_6">
    <path d="M 42.74 3.96 
L 209.16 3.96 
" style="fill: none; stroke: #000000; stroke-width: 0.8; stroke-linejoin: miter; stroke-linecap: square"/>
   </g>
   <g id="legend_1">
    <g id="text_15">
     <text style="font: 10px 'Times New Roman'; text-anchor: start" x="160.756094" y="98.405938" transform="rotate(-0 160.756094 98.405938)">Accuracy</text>
    </g>
    <g id="line2d_17">
     <path d="M 159.66 109.06375 
L 169.66 109.06375 
L 179.66 109.06375 
" style="fill: none; stroke: #000000; stroke-linecap: square"/>
    </g>
    <g id="text_16">
     <text style="font: 10px 'Times New Roman'; text-anchor: start" x="187.66" y="112.56375" transform="rotate(-0 187.66 112.56375)">1.0</text>
    </g>
    <g id="line2d_18">
     <path d="M 159.66 123.202812 
L 169.66 123.202812 
L 179.66 123.202812 
" style="fill: none; stroke-dasharray: 3.7,1.6; stroke-dashoffset: 0; stroke: #000000"/>
    </g>
    <g id="text_17">
     <text style="font: 10px 'Times New Roman'; text-anchor: start" x="187.66" y="126.702812" transform="rotate(-0 187.66 126.702812)">0.8</text>
    </g>
    <g id="line2d_19">
     <path d="M 159.66 137.341875 
L 169.66 137.341875 
L 179.66 137.341875 
" style="fill: none; stroke-dasharray: 1,1.65; stroke-dashoffset: 0; stroke: #000000"/>
    </g>
    <g id="text_18">
     <text style="font: 10px 'Times New Roman'; text-anchor: start" x="187.66" y="140.841875" transform="rotate(-0 187.66 140.841875)">0.5</text>
    </g>
    <g id="line2d_20">
     <path d="M 159.66 151.480937 
L 169.66 151.480937 
L 179.66 151.480937 
" style="fill: none; stroke-dasharray: 6.4,1.6,1,1.6; stroke-dashoffset: 0; stroke: #000000"/>
    </g>
    <g id="text_19">
     <text style="font: 10px 'Times New Roman'; text-anchor: start" x="187.66" y="154.980937" transform="rotate(-0 187.66 154.980937)">0.2</text>
    </g>
   </g>
  </g>
 </g>
 <defs>
  <clipPath id="pc037a834d7">
   <rect x="42.74" y="3.96" width="166.42" height="162.16"/>
  </clipPath>
 </defs>
</svg>
