<?xml version="1.0" encoding="utf-8" standalone="no"?>
<!DOCTYPE svg PUBLIC "-//W3C//DTD SVG 1.1//EN"
  "http://www.w3.org/Graphics/SVG/1.1/DTD/svg11.dtd">
<svg xmlns:xlink="http://www.w3.org/1999/xlink" width="540pt" height="129.6pt" viewBox="0 0 540 129.6" xmlns="http://www.w3.org/2000/svg" version="1.1">
 <metadata>
  <rdf:RDF xmlns:dc="http://purl.org/dc/elements/1.1/" xmlns:cc="http://creativecommons.org/ns#" xmlns:rdf="http://www.w3.org/1999/02/22-rdf-syntax-ns#">
   <cc:Work>
    <dc:type rdf:resource="http://purl.org/dc/dcmitype/StillImage"/>
    <dc:date>2025-03-29T01:11:35.761541</dc:date>
    <dc:format>image/svg+xml</dc:format>
    <dc:creator>
     <cc:Agent>
      <dc:title>Matplotlib v3.8.3, https://matplotlib.org/</dc:title>
     </cc:Agent>
    </dc:creator>
   </cc:Work>
  </rdf:RDF>
 </metadata>
 <defs>
  <style type="text/css">*{stroke-linejoin: round; stroke-linecap: butt}</style>
 </defs>
 <g id="figure_1">
  <g id="patch_1">
   <path d="M 0 129.6 
L 540 129.6 
L 540 0 
L 0 0 
z
" style="fill: #ffffff"/>
  </g>
  <g id="axes_1">
   <g id="patch_2">
    <path d="M 35.03 97 
L 540 97 
L 540 0 
L 35.03 0 
z
" style="fill: #ffffff"/>
   </g>
   <g id="matplotlib.axis_1">
    <g id="xtick_1">
     <g id="line2d_1">
      <path d="M 35.03 97 
L 35.03 0 
" clip-path="url(#p9f2b879e67)" style="fill: none; stroke: #b0b0b0; stroke-width: 0.8; stroke-linecap: square"/>
     </g>
     <g id="line2d_2">
      <defs>
       <path id="m6f664a2165" d="M 0 0 
L 0 3.5 
" style="stroke: #000000; stroke-width: 0.8"/>
      </defs>
      <g>
       <use xlink:href="#m6f664a2165" x="35.03" y="97" style="stroke: #000000; stroke-width: 0.8"/>
      </g>
     </g>
     <g id="text_1">
      <text style="font: 10px 'Times New Roman'; text-anchor: middle" x="35.03" y="110.94375" transform="rotate(-0 35.03 110.94375)">0</text>
     </g>
    </g>
    <g id="xtick_2">
     <g id="line2d_3">
      <path d="M 95.296142 97 
L 95.296142 0 
" clip-path="url(#p9f2b879e67)" style="fill: none; stroke: #b0b0b0; stroke-width: 0.8; stroke-linecap: square"/>
     </g>
     <g id="line2d_4">
      <g>
       <use xlink:href="#m6f664a2165" x="95.296142" y="97" style="stroke: #000000; stroke-width: 0.8"/>
      </g>
     </g>
     <g id="text_2">
      <text style="font: 10px 'Times New Roman'; text-anchor: middle" x="95.296142" y="110.94375" transform="rotate(-0 95.296142 110.94375)">50</text>
     </g>
    </g>
    <g id="xtick_3">
     <g id="line2d_5">
      <path d="M 155.562283 97 
L 155.562283 0 
" clip-path="url(#p9f2b879e67)" style="fill: none; stroke: #b0b0b0; stroke-width: 0.8; stroke-linecap: square"/>
     </g>
     <g id="line2d_6">
      <g>
       <use xlink:href="#m6f664a2165" x="155.562283" y="97" style="stroke: #000000; stroke-width: 0.8"/>
      </g>
     </g>
     <g id="text_3">
      <text style="font: 10px 'Times New Roman'; text-anchor: middle" x="155.562283" y="110.94375" transform="rotate(-0 155.562283 110.94375)">100</text>
     </g>
    </g>
    <g id="xtick_4">
     <g id="line2d_7">
      <path d="M 215.828425 97 
L 215.828425 0 
" clip-path="url(#p9f2b879e67)" style="fill: none; stroke: #b0b0b0; stroke-width: 0.8; stroke-linecap: square"/>
     </g>
     <g id="line2d_8">
      <g>
       <use xlink:href="#m6f664a2165" x="215.828425" y="97" style="stroke: #000000; stroke-width: 0.8"/>
      </g>
     </g>
     <g id="text_4">
      <text style="font: 10px 'Times New Roman'; text-anchor: middle" x="215.828425" y="110.94375" transform="rotate(-0 215.828425 110.94375)">150</text>
     </g>
    </g>
    <g id="xtick_5">
     <g id="line2d_9">
      <path d="M 276.094566 97 
L 276.094566 0 
" clip-path="url(#p9f2b879e67)" style="fill: none; stroke: #b0b0b0; stroke-width: 0.8; stroke-linecap: square"/>
     </g>
     <g id="line2d_10">
      <g>
       <use xlink:href="#m6f664a2165" x="276.094566" y="97" style="stroke: #000000; stroke-width: 0.8"/>
      </g>
     </g>
     <g id="text_5">
      <text style="font: 10px 'Times New Roman'; text-anchor: middle" x="276.094566" y="110.94375" transform="rotate(-0 276.094566 110.94375)">200</text>
     </g>
    </g>
    <g id="xtick_6">
     <g id="line2d_11">
      <path d="M 336.360708 97 
L 336.360708 0 
" clip-path="url(#p9f2b879e67)" style="fill: none; stroke: #b0b0b0; stroke-width: 0.8; stroke-linecap: square"/>
     </g>
     <g id="line2d_12">
      <g>
       <use xlink:href="#m6f664a2165" x="336.360708" y="97" style="stroke: #000000; stroke-width: 0.8"/>
      </g>
     </g>
     <g id="text_6">
      <text style="font: 10px 'Times New Roman'; text-anchor: middle" x="336.360708" y="110.94375" transform="rotate(-0 336.360708 110.94375)">250</text>
     </g>
    </g>
    <g id="xtick_7">
     <g id="line2d_13">
      <path d="M 396.626849 97 
L 396.626849 0 
" clip-path="url(#p9f2b879e67)" style="fill: none; stroke: #b0b0b0; stroke-width: 0.8; stroke-linecap: square"/>
     </g>
     <g id="line2d_14">
      <g>
       <use xlink:href="#m6f664a2165" x="396.626849" y="97" style="stroke: #000000; stroke-width: 0.8"/>
      </g>
     </g>
     <g id="text_7">
      <text style="font: 10px 'Times New Roman'; text-anchor: middle" x="396.626849" y="110.94375" transform="rotate(-0 396.626849 110.94375)">300</text>
     </g>
    </g>
    <g id="xtick_8">
     <g id="line2d_15">
      <path d="M 456.892991 97 
L 456.892991 0 
" clip-path="url(#p9f2b879e67)" style="fill: none; stroke: #b0b0b0; stroke-width: 0.8; stroke-linecap: square"/>
     </g>
     <g id="line2d_16">
      <g>
       <use xlink:href="#m6f664a2165" x="456.892991" y="97" style="stroke: #000000; stroke-width: 0.8"/>
      </g>
     </g>
     <g id="text_8">
      <text style="font: 10px 'Times New Roman'; text-anchor: middle" x="456.892991" y="110.94375" transform="rotate(-0 456.892991 110.94375)">350</text>
     </g>
    </g>
    <g id="xtick_9">
     <g id="line2d_17">
      <path d="M 517.159132 97 
L 517.159132 0 
" clip-path="url(#p9f2b879e67)" style="fill: none; stroke: #b0b0b0; stroke-width: 0.8; stroke-linecap: square"/>
     </g>
     <g id="line2d_18">
      <g>
       <use xlink:href="#m6f664a2165" x="517.159132" y="97" style="stroke: #000000; stroke-width: 0.8"/>
      </g>
     </g>
     <g id="text_9">
      <text style="font: 10px 'Times New Roman'; text-anchor: middle" x="517.159132" y="110.94375" transform="rotate(-0 517.159132 110.94375)">400</text>
     </g>
    </g>
    <g id="text_10">
     <text style="font: 12px 'Times New Roman'; text-anchor: middle" x="287.515" y="125.415312" transform="rotate(-0 287.515 125.415312)">Simulation Run</text>
    </g>
   </g>
   <g id="matplotlib.axis_2">
    <g id="ytick_1">
     <g id="line2d_19">
      <path d="M 35.03 97 
L 540 97 
" clip-path="url(#p9f2b879e67)" style="fill: none; stroke: #b0b0b0; stroke-width: 0.8; stroke-linecap: square"/>
     </g>
     <g id="line2d_20">
      <defs>
       <path id="m50d855e5e6" d="M 0 0 
L -3.5 0 
" style="stroke: #000000; stroke-width: 0.8"/>
      </defs>
      <g>
       <use xlink:href="#m50d855e5e6" x="35.03" y="97" style="stroke: #000000; stroke-width: 0.8"/>
      </g>
     </g>
     <g id="text_11">
      <text style="font: 10px 'Times New Roman'; text-anchor: end" x="28.03" y="100.471875" transform="rotate(-0 28.03 100.471875)">0.0</text>
     </g>
    </g>
    <g id="ytick_2">
     <g id="line2d_21">
      <path d="M 35.03 59.692308 
L 540 59.692308 
" clip-path="url(#p9f2b879e67)" style="fill: none; stroke: #b0b0b0; stroke-width: 0.8; stroke-linecap: square"/>
     </g>
     <g id="line2d_22">
      <g>
       <use xlink:href="#m50d855e5e6" x="35.03" y="59.692308" style="stroke: #000000; stroke-width: 0.8"/>
      </g>
     </g>
     <g id="text_12">
      <text style="font: 10px 'Times New Roman'; text-anchor: end" x="28.03" y="63.164183" transform="rotate(-0 28.03 63.164183)">0.5</text>
     </g>
    </g>
    <g id="ytick_3">
     <g id="line2d_23">
      <path d="M 35.03 22.384615 
L 540 22.384615 
" clip-path="url(#p9f2b879e67)" style="fill: none; stroke: #b0b0b0; stroke-width: 0.8; stroke-linecap: square"/>
     </g>
     <g id="line2d_24">
      <g>
       <use xlink:href="#m50d855e5e6" x="35.03" y="22.384615" style="stroke: #000000; stroke-width: 0.8"/>
      </g>
     </g>
     <g id="text_13">
      <text style="font: 10px 'Times New Roman'; text-anchor: end" x="28.03" y="25.85649" transform="rotate(-0 28.03 25.85649)">1.0</text>
     </g>
    </g>
    <g id="text_14">
     <text style="font: 12px 'Times New Roman'; text-anchor: middle" x="8.963125" y="48.5" transform="rotate(-90 8.963125 48.5)">Normalized Value</text>
    </g>
   </g>
   <g id="line2d_25">
    <path d="M 35.03 8.930667 
L 36.235323 11.900778 
L 37.440646 19.529878 
L 38.645968 16.714343 
L 39.851291 16.675603 
L 41.056614 17.213061 
L 42.261937 20.89121 
L 43.46726 17.349351 
L 44.672583 21.499473 
L 45.877905 22.843547 
L 47.083228 23.747394 
L 48.288551 24.164659 
L 49.493874 21.09158 
L 50.699197 21.391162 
L 51.90452 22.989397 
L 53.109842 23.023784 
L 54.315165 24.550448 
L 55.520488 22.97577 
L 56.725811 24.023465 
L 57.931134 22.496558 
L 59.136457 23.0622 
L 60.341779 23.988741 
L 61.547102 22.055007 
L 62.752425 22.516166 
L 63.957748 22.435559 
L 65.163071 22.519312 
L 66.368394 22.447326 
L 67.573716 21.404081 
L 68.779039 21.853801 
L 69.984362 21.731652 
L 71.189685 22.040406 
L 72.395008 22.745486 
L 73.600331 23.225116 
L 74.805653 22.979322 
L 76.010976 23.316352 
L 77.216299 23.256141 
L 78.421622 23.66367 
L 79.626945 23.743366 
L 80.832268 23.285005 
L 82.03759 23.48574 
L 83.242913 23.865977 
L 84.448236 23.935184 
L 85.653559 24.381338 
L 86.858882 24.52751 
L 88.064205 24.825304 
L 89.269527 24.617875 
L 90.47485 24.74983 
L 92.885496 25.543662 
L 95.296142 25.181591 
L 96.501464 25.467844 
L 97.706787 25.177468 
L 98.91211 24.290618 
L 100.117433 24.473921 
L 101.322756 23.893736 
L 102.528079 23.773375 
L 103.733401 24.132791 
L 104.938724 24.117457 
L 106.144047 24.617198 
L 107.34937 24.868996 
L 108.554693 25.356539 
L 109.760016 25.527297 
L 110.965338 25.528497 
L 114.581307 26.334996 
L 115.78663 25.884576 
L 119.402598 25.078111 
L 120.607921 25.342625 
L 121.813244 25.071346 
L 124.223889 24.992357 
L 126.634535 24.086781 
L 127.839858 23.804391 
L 129.045181 24.068784 
L 130.250504 24.083845 
L 131.455826 23.817152 
L 132.661149 23.736226 
L 133.866472 23.370716 
L 135.071795 23.226265 
L 137.482441 22.570913 
L 138.687763 22.844225 
L 143.509055 23.060319 
L 144.714378 22.805125 
L 145.9197 22.724374 
L 148.330346 22.87388 
L 149.535669 22.4764 
L 150.740992 21.876876 
L 153.151637 22.247745 
L 155.562283 21.84729 
L 156.767606 21.652535 
L 157.972929 21.186455 
L 159.178252 21.274258 
L 160.383574 21.51937 
L 161.588897 21.420712 
L 162.79422 21.487705 
L 165.204866 21.344494 
L 168.820834 21.269281 
L 170.026157 21.069321 
L 172.436803 21.019186 
L 174.847448 21.1747 
L 176.052771 21.393558 
L 177.258094 20.950065 
L 179.66874 21.291275 
L 180.874063 21.108002 
L 183.284708 20.454439 
L 185.695354 20.847682 
L 189.311322 21.325335 
L 191.721968 20.941201 
L 192.927291 20.967861 
L 194.132614 21.132583 
L 196.543259 21.089371 
L 197.748582 20.950042 
L 200.159228 21.052284 
L 201.364551 21.319219 
L 202.569873 21.171731 
L 203.775196 21.285228 
L 206.185842 21.087048 
L 207.391165 20.551725 
L 211.007133 20.867556 
L 217.033747 21.113306 
L 218.23907 20.786817 
L 219.444393 20.752135 
L 220.649716 20.900135 
L 223.060362 20.986426 
L 224.265684 21.033402 
L 226.67633 21.315245 
L 230.292299 21.574625 
L 231.497621 21.725662 
L 233.908267 21.863058 
L 235.11359 21.989322 
L 237.524236 22.058121 
L 239.934881 22.212768 
L 241.140204 22.088967 
L 242.345527 22.083533 
L 243.55085 22.260027 
L 244.756173 22.26884 
L 247.166818 22.441591 
L 249.577464 22.332149 
L 253.193432 22.584972 
L 254.398755 22.547306 
L 261.630692 22.996144 
L 265.246661 23.105273 
L 267.657306 23.15153 
L 268.862629 23.292472 
L 270.067952 23.185894 
L 290.55844 24.090697 
L 291.763763 23.982423 
L 295.379731 23.923862 
L 297.790377 23.820061 
L 302.611668 23.92374 
L 303.816991 23.754246 
L 309.843605 23.671032 
L 313.459574 23.790964 
L 317.075542 24.119729 
L 318.280865 23.773264 
L 323.102157 23.681394 
L 324.307479 23.71062 
L 326.718125 23.543435 
L 327.923448 23.613831 
L 329.128771 23.456431 
L 331.539416 23.560092 
L 336.360708 23.732359 
L 338.771353 23.582949 
L 346.00329 23.42386 
L 348.413936 23.528862 
L 349.619259 23.442187 
L 358.056519 23.621116 
L 359.261842 23.578921 
L 360.467164 23.648269 
L 361.672487 23.489981 
L 365.288456 23.504978 
L 366.493778 23.550914 
L 367.699101 23.354107 
L 370.109747 23.367014 
L 374.931038 23.403464 
L 380.957652 23.167441 
L 385.778944 23.189316 
L 386.984267 23.098653 
L 390.600235 23.283267 
L 391.805558 23.212934 
L 393.010881 23.289143 
L 394.216204 23.136437 
L 396.626849 23.163049 
L 397.832172 23.271001 
L 401.448141 23.144768 
L 405.064109 23.156704 
L 408.680078 23.256855 
L 411.090723 23.199589 
L 412.296046 23.275639 
L 415.912015 23.003044 
L 417.117337 23.064025 
L 419.527983 22.93664 
L 421.938629 23.055926 
L 426.75992 22.858702 
L 427.965243 22.899673 
L 429.170566 22.693649 
L 436.402503 22.450842 
L 443.63444 22.473503 
L 444.839763 22.531651 
L 448.455731 22.357373 
L 450.866377 22.391958 
L 453.277022 22.293251 
L 456.892991 22.503374 
L 465.330251 22.630687 
L 471.356865 22.470038 
L 476.178156 22.65643 
L 477.383479 22.617552 
L 478.588802 22.696875 
L 482.20477 22.55671 
L 488.231384 22.66406 
L 490.64203 22.48961 
L 494.257999 22.535556 
L 495.463321 22.464878 
L 497.873967 22.558923 
L 501.489936 22.397127 
L 503.900581 22.391328 
L 509.927195 22.358737 
L 511.132518 22.269317 
L 515.95381 22.384615 
L 515.95381 22.384615 
" clip-path="url(#p9f2b879e67)" style="fill: none; stroke: #4169e1; stroke-width: 1.5; stroke-linecap: square"/>
   </g>
   <g id="line2d_26">
    <path d="M 35.03 97 
L 36.235323 95.402942 
L 37.440646 74.861041 
L 38.645968 76.090328 
L 39.851291 80.271176 
L 41.056614 82.797835 
L 43.46726 57.59202 
L 44.672583 37.025466 
L 45.877905 40.079415 
L 47.083228 43.775024 
L 48.288551 47.863707 
L 49.493874 31.12687 
L 50.699197 35.620867 
L 51.90452 33.238627 
L 53.109842 37.220502 
L 54.315165 33.985717 
L 55.520488 29.855045 
L 56.725811 29.812003 
L 57.931134 25.151779 
L 59.136457 27.414642 
L 60.341779 27.313806 
L 61.547102 15.450302 
L 62.752425 17.962671 
L 65.163071 23.983571 
L 66.368394 26.663491 
L 67.573716 23.85551 
L 68.779039 25.352515 
L 69.984362 27.66243 
L 71.189685 29.381371 
L 72.395008 28.704389 
L 73.600331 29.441239 
L 74.805653 31.067325 
L 76.010976 32.251935 
L 77.216299 34.027521 
L 78.421622 34.64706 
L 79.626945 36.245381 
L 80.832268 36.357835 
L 82.03759 37.589387 
L 83.242913 37.991434 
L 84.448236 39.360848 
L 85.653559 39.187751 
L 86.858882 40.335335 
L 88.064205 40.888136 
L 89.269527 41.757429 
L 90.47485 42.787796 
L 91.680173 42.350372 
L 92.885496 42.309766 
L 95.296142 43.870291 
L 97.706787 44.339114 
L 98.91211 37.767712 
L 100.117433 38.516183 
L 101.322756 36.208795 
L 102.528079 37.128437 
L 103.733401 36.827661 
L 104.938724 37.845062 
L 106.144047 36.163403 
L 107.34937 36.472019 
L 108.554693 34.823271 
L 109.760016 35.482916 
L 110.965338 36.444104 
L 113.375984 36.861812 
L 114.581307 36.595097 
L 115.78663 35.022556 
L 118.197275 35.295985 
L 119.402598 34.920578 
L 121.813244 34.775076 
L 124.223889 36.315637 
L 126.634535 32.32399 
L 127.839858 32.041534 
L 129.045181 31.876673 
L 130.250504 32.68747 
L 131.455826 32.451331 
L 132.661149 33.142471 
L 133.866472 31.928547 
L 135.071795 32.389665 
L 137.482441 30.625868 
L 138.687763 30.225753 
L 141.098409 31.663089 
L 142.303732 32.121457 
L 143.509055 32.740142 
L 144.714378 32.365726 
L 148.330346 34.080378 
L 149.535669 32.018538 
L 150.740992 26.441614 
L 151.946315 26.656167 
L 153.151637 26.648365 
L 154.35696 26.197229 
L 155.562283 26.508962 
L 156.767606 26.506506 
L 157.972929 23.1795 
L 159.178252 23.745555 
L 160.383574 23.312022 
L 165.204866 25.440305 
L 166.410189 26.09064 
L 167.615511 26.596449 
L 168.820834 26.750341 
L 170.026157 26.561284 
L 172.436803 27.672474 
L 173.642126 28.224587 
L 174.847448 28.564065 
L 176.052771 28.129447 
L 177.258094 24.506425 
L 178.463417 24.535054 
L 180.874063 24.306274 
L 182.079385 22.938322 
L 183.284708 20.717414 
L 184.490031 20.089361 
L 185.695354 20.132116 
L 186.900677 20.051066 
L 188.106 20.262988 
L 190.516645 19.980976 
L 191.721968 19.598445 
L 192.927291 20.167964 
L 194.132614 20.097241 
L 196.543259 21.19087 
L 197.748582 21.273838 
L 200.159228 22.226593 
L 201.364551 20.984345 
L 202.569873 20.979915 
L 203.775196 21.192574 
L 204.980519 21.527986 
L 206.185842 21.744641 
L 207.391165 14.848292 
L 208.596488 15.018618 
L 209.80181 15.059682 
L 213.417779 16.506937 
L 214.623102 16.843465 
L 215.828425 16.992537 
L 217.033747 16.642207 
L 218.23907 14.23412 
L 219.444393 14.738242 
L 220.649716 14.65827 
L 221.855039 15.186071 
L 223.060362 15.501933 
L 224.265684 15.95502 
L 225.471007 15.656546 
L 226.67633 15.792462 
L 227.881653 16.15381 
L 229.086976 16.647707 
L 230.292299 16.234148 
L 231.497621 16.053449 
L 232.702944 16.500859 
L 233.908267 16.691464 
L 235.11359 16.693238 
L 236.318913 17.167348 
L 239.934881 18.003646 
L 241.140204 17.988447 
L 242.345527 18.444241 
L 243.55085 17.920084 
L 244.756173 18.369522 
L 245.961495 18.32412 
L 249.577464 19.362843 
L 253.193432 19.934014 
L 254.398755 20.308394 
L 255.604078 20.45786 
L 256.809401 20.764495 
L 258.014724 20.257982 
L 259.220047 20.575686 
L 260.425369 20.563387 
L 261.630692 20.760032 
L 264.041338 21.482516 
L 265.246661 21.739435 
L 267.657306 22.477488 
L 268.862629 22.161979 
L 270.067952 22.142807 
L 278.505212 24.176746 
L 282.12118 24.703036 
L 284.531826 25.006054 
L 285.737149 25.074263 
L 286.942472 25.33321 
L 289.353117 25.486914 
L 290.55844 25.636961 
L 291.763763 25.518366 
L 292.969086 25.84792 
L 294.174409 25.80903 
L 295.379731 26.101828 
L 296.585054 26.103094 
L 300.201023 27.008599 
L 301.406346 26.640193 
L 302.611668 26.812074 
L 303.816991 25.96559 
L 308.638283 26.993621 
L 309.843605 27.151164 
L 311.048928 27.434577 
L 312.254251 27.491109 
L 313.459574 27.771973 
L 314.664897 27.672278 
L 315.87022 27.877244 
L 317.075542 26.720848 
L 318.280865 21.911678 
L 319.486188 22.13272 
L 320.691511 22.238362 
L 324.307479 23.116961 
L 325.512802 22.974133 
L 327.923448 23.173755 
L 329.128771 22.380701 
L 330.334094 22.683908 
L 331.539416 22.52153 
L 333.950062 23.024691 
L 335.155385 23.264013 
L 336.360708 23.241736 
L 337.566031 22.890189 
L 339.976676 23.360337 
L 341.181999 23.525494 
L 344.797968 22.984702 
L 346.00329 23.112573 
L 347.208613 23.085694 
L 348.413936 23.342779 
L 349.619259 23.268931 
L 350.824582 23.491324 
L 352.029905 23.262763 
L 355.645873 24.060539 
L 356.851196 24.000832 
L 359.261842 24.418567 
L 360.467164 24.45132 
L 361.672487 23.488794 
L 365.288456 24.185804 
L 366.493778 24.344567 
L 367.699101 22.671482 
L 373.725715 23.703849 
L 376.136361 23.849703 
L 377.341684 22.569749 
L 384.573621 23.915983 
L 385.778944 23.878707 
L 386.984267 23.693731 
L 388.189589 23.669685 
L 390.600235 23.825314 
L 393.010881 23.739956 
L 394.216204 22.726906 
L 395.421526 22.907351 
L 396.626849 22.945882 
L 397.832172 22.556058 
L 399.037495 22.467788 
L 400.242818 22.584917 
L 403.858786 23.269381 
L 406.269432 23.476464 
L 407.474755 23.713451 
L 408.680078 23.782416 
L 409.8854 23.641756 
L 411.090723 23.842552 
L 413.501369 23.590525 
L 414.706692 23.376063 
L 415.912015 23.021573 
L 419.527983 23.028298 
L 420.733306 22.593029 
L 421.938629 22.815611 
L 423.143952 22.84672 
L 424.349274 23.075428 
L 425.554597 23.100222 
L 426.75992 22.93381 
L 427.965243 23.061238 
L 429.170566 20.773853 
L 431.581211 20.903967 
L 432.786534 20.231924 
L 435.19718 20.658733 
L 436.402503 20.748191 
L 437.607826 20.973926 
L 438.813148 20.809008 
L 442.429117 21.273325 
L 443.63444 21.482877 
L 444.839763 21.49621 
L 446.045085 21.187001 
L 447.250408 21.386968 
L 448.455731 20.984966 
L 450.866377 21.325421 
L 452.071699 21.202608 
L 453.277022 21.381356 
L 454.482345 21.001009 
L 455.687668 21.136757 
L 456.892991 20.978325 
L 458.098314 21.137132 
L 459.303636 21.150544 
L 460.508959 21.356989 
L 464.124928 21.272725 
L 465.330251 21.473502 
L 466.535573 21.516219 
L 467.740896 21.725523 
L 468.946219 21.284056 
L 471.356865 21.688146 
L 472.562188 21.644596 
L 473.76751 21.427687 
L 474.972833 21.493526 
L 477.383479 21.803285 
L 478.588802 21.587863 
L 479.794125 21.580548 
L 480.999447 21.782863 
L 482.20477 21.467786 
L 488.231384 22.148737 
L 489.436707 21.301789 
L 491.847353 21.445842 
L 494.257999 21.8328 
L 495.463321 21.683591 
L 497.873967 21.768109 
L 500.284613 21.436064 
L 502.695258 21.693288 
L 503.900581 21.743418 
L 505.105904 21.935776 
L 506.311227 21.924183 
L 509.927195 22.45424 
L 511.132518 22.070685 
L 513.543164 22.34619 
L 514.748487 22.204818 
L 515.95381 22.384615 
L 515.95381 22.384615 
" clip-path="url(#p9f2b879e67)" style="fill: none; stroke-dasharray: 5.55,2.4; stroke-dashoffset: 0; stroke: #4169e1; stroke-width: 1.5"/>
   </g>
   <g id="line2d_27">
    <path d="M 35.03 6.32757 
L 36.235323 10.261464 
L 37.440646 18.122841 
L 38.645968 15.0648 
L 39.851291 14.336378 
L 41.056614 15.442954 
L 42.261937 19.088578 
L 43.46726 15.846345 
L 44.672583 19.795298 
L 47.083228 22.282742 
L 48.288551 22.924821 
L 49.493874 20.537538 
L 50.699197 20.624946 
L 51.90452 22.008938 
L 53.109842 22.405588 
L 54.315165 23.64759 
L 55.520488 22.247025 
L 56.725811 23.212905 
L 57.931134 21.89085 
L 59.136457 22.50476 
L 60.341779 23.447245 
L 61.547102 21.582004 
L 62.752425 21.923151 
L 66.368394 21.981227 
L 67.573716 20.914689 
L 68.779039 21.188291 
L 69.984362 21.061438 
L 71.189685 21.334581 
L 72.395008 22.128966 
L 73.600331 22.709528 
L 74.805653 22.69552 
L 76.010976 22.929318 
L 77.216299 22.735097 
L 78.421622 23.079102 
L 79.626945 23.106983 
L 80.832268 22.658585 
L 82.03759 22.806586 
L 83.242913 23.192272 
L 84.448236 23.253599 
L 85.653559 23.600704 
L 88.064205 24.037965 
L 89.269527 23.882268 
L 90.47485 24.071219 
L 91.680173 24.584638 
L 92.885496 24.861727 
L 95.296142 24.707645 
L 96.501464 24.99326 
L 97.706787 24.769546 
L 98.91211 23.902123 
L 100.117433 23.981043 
L 101.322756 23.421471 
L 102.528079 23.388774 
L 103.733401 23.69437 
L 104.938724 23.690925 
L 106.144047 24.177666 
L 107.34937 24.384276 
L 108.554693 24.799658 
L 109.760016 25.057034 
L 110.965338 25.099922 
L 113.375984 25.549674 
L 114.581307 25.870437 
L 116.991953 25.447656 
L 119.402598 24.895606 
L 120.607921 25.126845 
L 121.813244 24.844783 
L 124.223889 24.690584 
L 126.634535 23.790971 
L 127.839858 23.516675 
L 129.045181 23.784141 
L 130.250504 23.833046 
L 131.455826 23.590782 
L 132.661149 23.513465 
L 133.866472 23.16513 
L 135.071795 23.056865 
L 137.482441 22.39677 
L 138.687763 22.688628 
L 148.330346 22.880254 
L 149.535669 22.633251 
L 150.740992 22.140016 
L 153.151637 22.439049 
L 155.562283 22.063168 
L 156.767606 21.881471 
L 157.972929 21.461849 
L 159.178252 21.541972 
L 160.383574 21.747528 
L 161.588897 21.615174 
L 162.79422 21.671728 
L 166.410189 21.514716 
L 167.615511 21.587287 
L 172.436803 21.178965 
L 174.847448 21.302138 
L 176.052771 21.487431 
L 177.258094 21.068787 
L 179.66874 21.389984 
L 182.079385 20.985538 
L 183.284708 20.665367 
L 185.695354 21.038332 
L 189.311322 21.441934 
L 192.927291 21.263634 
L 194.132614 21.402544 
L 196.543259 21.437971 
L 197.748582 21.263485 
L 200.159228 21.320706 
L 201.364551 21.563649 
L 202.569873 21.420101 
L 203.775196 21.52893 
L 206.185842 21.328291 
L 207.391165 20.828017 
L 209.80181 21.049034 
L 212.212456 21.100173 
L 214.623102 21.246255 
L 215.828425 21.164153 
L 217.033747 21.351326 
L 218.23907 21.030466 
L 219.444393 20.989116 
L 220.649716 21.113491 
L 224.265684 21.183844 
L 226.67633 21.413189 
L 230.292299 21.663487 
L 232.702944 21.857688 
L 239.934881 22.279972 
L 241.140204 22.146315 
L 242.345527 22.137736 
L 243.55085 22.310356 
L 245.961495 22.411581 
L 247.166818 22.465607 
L 249.577464 22.373818 
L 261.630692 22.88034 
L 265.246661 22.89098 
L 267.657306 22.979354 
L 268.862629 23.13001 
L 270.067952 23.019068 
L 282.12118 23.421578 
L 285.737149 23.658784 
L 286.942472 23.594205 
L 290.55844 23.797303 
L 291.763763 23.677822 
L 292.969086 23.674901 
L 294.174409 23.557707 
L 302.611668 23.608695 
L 303.816991 23.453886 
L 315.87022 23.613894 
L 317.075542 23.79631 
L 318.280865 23.476128 
L 331.539416 23.335732 
L 336.360708 23.468355 
L 338.771353 23.334589 
L 343.592645 23.145281 
L 344.797968 23.241933 
L 346.00329 23.185466 
L 348.413936 23.294061 
L 350.824582 23.23587 
L 353.235227 23.363664 
L 359.261842 23.404723 
L 360.467164 23.462675 
L 361.672487 23.311149 
L 365.288456 23.310989 
L 366.493778 23.343002 
L 367.699101 23.185377 
L 370.109747 23.197247 
L 374.931038 23.215087 
L 384.573621 22.92796 
L 385.778944 23.003014 
L 386.984267 22.926935 
L 390.600235 23.112615 
L 391.805558 23.059077 
L 393.010881 23.139378 
L 395.421526 22.954453 
L 400.242818 23.05758 
L 407.474755 23.147387 
L 408.680078 23.182058 
L 409.8854 23.089895 
L 413.501369 23.133104 
L 415.912015 22.968457 
L 417.117337 23.024839 
L 419.527983 22.909647 
L 421.938629 22.997717 
L 426.75992 22.861692 
L 427.965243 22.900251 
L 429.170566 22.727323 
L 436.402503 22.480292 
L 450.866377 22.436998 
L 453.277022 22.314016 
L 456.892991 22.519798 
L 465.330251 22.630247 
L 471.356865 22.462198 
L 478.588802 22.658286 
L 483.410093 22.551427 
L 488.231384 22.598055 
L 490.64203 22.433389 
L 494.257999 22.494708 
L 495.463321 22.440553 
L 497.873967 22.545173 
L 503.900581 22.396464 
L 509.927195 22.329563 
L 512.337841 22.305531 
L 515.95381 22.384615 
L 515.95381 22.384615 
" clip-path="url(#p9f2b879e67)" style="fill: none; stroke: #ff8c00; stroke-width: 1.5; stroke-linecap: square"/>
   </g>
   <g id="line2d_28">
    <path d="M 35.03 97 
L 36.235323 93.686866 
L 37.440646 68.32935 
L 38.645968 69.490789 
L 39.851291 74.53825 
L 41.056614 76.971106 
L 42.261937 62.760211 
L 43.46726 51.286577 
L 44.672583 29.657464 
L 45.877905 33.314537 
L 47.083228 35.898266 
L 48.288551 40.019202 
L 49.493874 29.760936 
L 50.699197 34.542462 
L 51.90452 32.965285 
L 53.109842 36.462211 
L 54.315165 34.739321 
L 55.520488 31.059063 
L 56.725811 30.934527 
L 57.931134 27.128179 
L 59.136457 28.841672 
L 60.341779 27.946205 
L 61.547102 14.562044 
L 62.752425 17.423891 
L 65.163071 23.513859 
L 66.368394 26.222399 
L 67.573716 22.174956 
L 71.189685 28.420445 
L 72.395008 26.37546 
L 73.600331 26.206509 
L 74.805653 28.287284 
L 77.216299 31.435173 
L 78.421622 32.29513 
L 79.626945 33.991732 
L 80.832268 33.971624 
L 82.03759 35.364444 
L 83.242913 35.593896 
L 84.448236 37.022933 
L 85.653559 37.334412 
L 86.858882 38.339809 
L 88.064205 39.091257 
L 89.269527 40.116599 
L 90.47485 40.975282 
L 91.680173 39.490083 
L 92.885496 39.874764 
L 95.296142 41.985061 
L 96.501464 42.152355 
L 97.706787 42.630051 
L 98.91211 35.099393 
L 100.117433 36.152853 
L 101.322756 33.552452 
L 102.528079 34.652749 
L 103.733401 34.588071 
L 104.938724 35.645753 
L 106.144047 33.675769 
L 107.34937 34.165538 
L 108.554693 32.925692 
L 109.760016 33.063479 
L 110.965338 34.037678 
L 112.170661 34.395621 
L 113.375984 34.551738 
L 114.581307 34.029992 
L 115.78663 34.440517 
L 116.991953 34.555439 
L 118.197275 34.158889 
L 119.402598 34.056474 
L 120.607921 34.117904 
L 121.813244 33.752947 
L 124.223889 35.251128 
L 125.429212 32.648431 
L 126.634535 30.356684 
L 129.045181 29.624661 
L 130.250504 30.426402 
L 131.455826 30.24308 
L 132.661149 30.953523 
L 133.866472 29.619167 
L 135.071795 30.213039 
L 136.277118 28.887946 
L 137.482441 27.845594 
L 138.687763 27.072154 
L 141.098409 28.605803 
L 142.303732 29.003482 
L 143.509055 29.738224 
L 144.714378 30.199772 
L 145.9197 30.914516 
L 148.330346 31.944094 
L 149.535669 31.380898 
L 150.740992 27.057362 
L 151.946315 27.442182 
L 153.151637 27.515491 
L 154.35696 27.057294 
L 155.562283 27.314216 
L 156.767606 27.283554 
L 157.972929 24.115293 
L 159.178252 24.674547 
L 160.383574 24.422583 
L 161.588897 24.713492 
L 166.410189 27.078598 
L 167.615511 27.584493 
L 168.820834 27.81806 
L 170.026157 27.399695 
L 172.436803 28.491082 
L 173.642126 29.041806 
L 174.847448 29.451848 
L 176.052771 29.164293 
L 177.258094 25.306776 
L 178.463417 25.330269 
L 179.66874 25.170466 
L 180.874063 25.138722 
L 182.079385 24.094751 
L 183.284708 21.983334 
L 184.490031 21.373482 
L 186.900677 21.321415 
L 188.106 21.548452 
L 189.311322 21.574701 
L 190.516645 22.02353 
L 191.721968 22.120516 
L 192.927291 22.674992 
L 194.132614 22.688529 
L 196.543259 23.768119 
L 197.748582 23.426655 
L 200.159228 24.438809 
L 201.364551 23.217093 
L 202.569873 23.130921 
L 206.185842 23.721199 
L 207.391165 16.568012 
L 209.80181 16.915848 
L 212.212456 17.913945 
L 215.828425 18.932775 
L 217.033747 18.313823 
L 218.23907 15.477937 
L 219.444393 15.951293 
L 220.649716 15.964176 
L 224.265684 17.420761 
L 225.471007 16.998694 
L 227.881653 17.722167 
L 229.086976 18.207091 
L 230.292299 17.305504 
L 231.497621 17.152082 
L 232.702944 17.514436 
L 235.11359 17.874823 
L 236.318913 18.344991 
L 238.729558 18.786435 
L 239.934881 19.003554 
L 241.140204 18.803025 
L 242.345527 19.25232 
L 243.55085 18.595523 
L 244.756173 19.043444 
L 245.961495 19.115084 
L 250.782787 20.403971 
L 251.98811 20.503755 
L 254.398755 21.109588 
L 255.604078 21.309932 
L 256.809401 21.647563 
L 258.014724 21.196024 
L 259.220047 21.529298 
L 260.425369 21.593355 
L 262.836015 22.252622 
L 266.451984 23.328946 
L 267.657306 23.591578 
L 268.862629 23.025342 
L 270.067952 22.888931 
L 271.273275 23.222154 
L 273.683921 23.606376 
L 276.094566 24.267657 
L 278.505212 24.892627 
L 279.710535 24.991254 
L 282.12118 25.376461 
L 283.326503 25.315597 
L 286.942472 25.712138 
L 289.353117 25.815664 
L 290.55844 26.061993 
L 291.763763 25.742487 
L 292.969086 26.073526 
L 294.174409 25.769707 
L 295.379731 26.094937 
L 296.585054 26.155697 
L 300.201023 27.043006 
L 301.406346 26.582284 
L 302.611668 26.749984 
L 303.816991 25.919433 
L 307.43296 26.798914 
L 308.638283 27.0023 
L 309.843605 27.078143 
L 311.048928 27.358065 
L 312.254251 27.39086 
L 313.459574 27.684947 
L 314.664897 27.576452 
L 315.87022 27.824699 
L 317.075542 26.452063 
L 318.280865 21.593295 
L 324.307479 23.012217 
L 325.512802 22.95685 
L 327.923448 23.105375 
L 329.128771 22.531012 
L 330.334094 22.828992 
L 331.539416 22.521644 
L 335.155385 23.297721 
L 336.360708 23.253051 
L 337.566031 22.964257 
L 339.976676 23.397259 
L 341.181999 23.563561 
L 344.797968 22.887976 
L 346.00329 22.998005 
L 347.208613 22.969989 
L 348.413936 23.191135 
L 349.619259 23.207277 
L 350.824582 23.481377 
L 352.029905 23.273438 
L 355.645873 24.005875 
L 356.851196 23.976881 
L 359.261842 24.476338 
L 360.467164 24.549823 
L 361.672487 23.484088 
L 366.493778 24.378664 
L 367.699101 23.17274 
L 373.725715 24.029005 
L 374.931038 23.986387 
L 376.136361 24.103545 
L 377.341684 23.289524 
L 382.162975 24.223946 
L 384.573621 24.560382 
L 388.189589 24.319125 
L 389.394912 24.461164 
L 390.600235 24.310028 
L 391.805558 24.373135 
L 393.010881 24.206842 
L 394.216204 23.079776 
L 396.626849 23.314408 
L 397.832172 22.813648 
L 399.037495 22.876248 
L 403.858786 23.833478 
L 406.269432 23.863552 
L 408.680078 24.247288 
L 409.8854 23.914923 
L 411.090723 24.086373 
L 412.296046 23.832873 
L 413.501369 23.71272 
L 414.706692 23.280757 
L 418.32266 23.134675 
L 419.527983 23.2279 
L 420.733306 22.837427 
L 421.938629 23.064297 
L 423.143952 23.090949 
L 425.554597 23.452807 
L 426.75992 23.402191 
L 427.965243 23.523491 
L 429.170566 21.65401 
L 431.581211 21.599001 
L 432.786534 20.645502 
L 435.19718 21.023303 
L 437.607826 21.365394 
L 438.813148 21.235418 
L 444.839763 21.961578 
L 446.045085 21.625424 
L 447.250408 21.776285 
L 448.455731 21.492891 
L 450.866377 21.858531 
L 452.071699 21.380051 
L 453.277022 21.54668 
L 454.482345 21.087854 
L 455.687668 21.175248 
L 456.892991 21.034901 
L 458.098314 21.211917 
L 459.303636 21.254931 
L 460.508959 21.452864 
L 461.714282 21.418659 
L 467.740896 22.043326 
L 468.946219 21.379178 
L 471.356865 21.743126 
L 472.562188 21.772755 
L 473.76751 21.548537 
L 474.972833 21.614249 
L 477.383479 21.932827 
L 478.588802 21.776997 
L 479.794125 21.780156 
L 480.999447 21.979364 
L 482.20477 21.449193 
L 487.026062 21.990855 
L 488.231384 22.152689 
L 489.436707 21.391887 
L 491.847353 21.329303 
L 494.257999 21.689467 
L 500.284613 21.522823 
L 502.695258 21.754395 
L 503.900581 21.727758 
L 505.105904 21.920053 
L 506.311227 21.721079 
L 509.927195 22.254338 
L 511.132518 22.160539 
L 513.543164 22.43873 
L 514.748487 22.199142 
L 515.95381 22.384615 
L 515.95381 22.384615 
" clip-path="url(#p9f2b879e67)" style="fill: none; stroke-dasharray: 5.55,2.4; stroke-dashoffset: 0; stroke: #ff8c00; stroke-width: 1.5"/>
   </g>
   <g id="patch_3">
    <path d="M 35.03 97 
L 35.03 0 
" style="fill: none; stroke: #000000; stroke-width: 0.8; stroke-linejoin: miter; stroke-linecap: square"/>
   </g>
   <g id="patch_4">
    <path d="M 540 97 
L 540 0 
" style="fill: none; stroke: #000000; stroke-width: 0.8; stroke-linejoin: miter; stroke-linecap: square"/>
   </g>
   <g id="patch_5">
    <path d="M 35.03 97 
L 540 97 
" style="fill: none; stroke: #000000; stroke-width: 0.8; stroke-linejoin: miter; stroke-linecap: square"/>
   </g>
   <g id="patch_6">
    <path d="M 35.03 0 
L 540 0 
" style="fill: none; stroke: #000000; stroke-width: 0.8; stroke-linejoin: miter; stroke-linecap: square"/>
   </g>
  </g>
 </g>
 <defs>
  <clipPath id="p9f2b879e67">
   <rect x="35.03" y="0" width="504.97" height="97"/>
  </clipPath>
 </defs>
</svg>
