<?xml version="1.0" encoding="utf-8" standalone="no"?>
<!DOCTYPE svg PUBLIC "-//W3C//DTD SVG 1.1//EN"
  "http://www.w3.org/Graphics/SVG/1.1/DTD/svg11.dtd">
<svg xmlns:xlink="http://www.w3.org/1999/xlink" width="540pt" height="129.6pt" viewBox="0 0 540 129.6" xmlns="http://www.w3.org/2000/svg" version="1.1">
 <metadata>
  <rdf:RDF xmlns:dc="http://purl.org/dc/elements/1.1/" xmlns:cc="http://creativecommons.org/ns#" xmlns:rdf="http://www.w3.org/1999/02/22-rdf-syntax-ns#">
   <cc:Work>
    <dc:type rdf:resource="http://purl.org/dc/dcmitype/StillImage"/>
    <dc:date>2025-04-05T01:23:41.550336</dc:date>
    <dc:format>image/svg+xml</dc:format>
    <dc:creator>
     <cc:Agent>
      <dc:title>Matplotlib v3.10.1, https://matplotlib.org/</dc:title>
     </cc:Agent>
    </dc:creator>
   </cc:Work>
  </rdf:RDF>
 </metadata>
 <defs>
  <style type="text/css">*{stroke-linejoin: round; stroke-linecap: butt}</style>
 </defs>
 <g id="figure_1">
  <g id="patch_1">
   <path d="M 0 129.6 
L 540 129.6 
L 540 0 
L 0 0 
z
" style="fill: #ffffff"/>
  </g>
  <g id="axes_1">
   <g id="patch_2">
    <path d="M 34.31 98.44 
L 540 98.44 
L 540 3.6 
L 34.31 3.6 
z
" style="fill: #ffffff"/>
   </g>
   <g id="matplotlib.axis_1">
    <g id="xtick_1">
     <g id="line2d_1">
      <path d="M 34.31 98.44 
L 34.31 3.6 
" clip-path="url(#p4a5ee6a103)" style="fill: none; stroke: #b0b0b0; stroke-width: 0.8; stroke-linecap: square"/>
     </g>
     <g id="line2d_2">
      <defs>
       <path id="mb16edd32f1" d="M 0 0 
L 0 3.5 
" style="stroke: #000000; stroke-width: 0.8"/>
      </defs>
      <g>
       <use xlink:href="#mb16edd32f1" x="34.31" y="98.44" style="stroke: #000000; stroke-width: 0.8"/>
      </g>
     </g>
     <g id="text_1">
      <text style="font-size: 10px; font-family: 'Times New Roman'; text-anchor: middle" x="34.31" y="112.38375" transform="rotate(-0 34.31 112.38375)">0</text>
     </g>
    </g>
    <g id="xtick_2">
     <g id="line2d_3">
      <path d="M 94.662071 98.44 
L 94.662071 3.6 
" clip-path="url(#p4a5ee6a103)" style="fill: none; stroke: #b0b0b0; stroke-width: 0.8; stroke-linecap: square"/>
     </g>
     <g id="line2d_4">
      <g>
       <use xlink:href="#mb16edd32f1" x="94.662071" y="98.44" style="stroke: #000000; stroke-width: 0.8"/>
      </g>
     </g>
     <g id="text_2">
      <text style="font-size: 10px; font-family: 'Times New Roman'; text-anchor: middle" x="94.662071" y="112.38375" transform="rotate(-0 94.662071 112.38375)">50</text>
     </g>
    </g>
    <g id="xtick_3">
     <g id="line2d_5">
      <path d="M 155.014141 98.44 
L 155.014141 3.6 
" clip-path="url(#p4a5ee6a103)" style="fill: none; stroke: #b0b0b0; stroke-width: 0.8; stroke-linecap: square"/>
     </g>
     <g id="line2d_6">
      <g>
       <use xlink:href="#mb16edd32f1" x="155.014141" y="98.44" style="stroke: #000000; stroke-width: 0.8"/>
      </g>
     </g>
     <g id="text_3">
      <text style="font-size: 10px; font-family: 'Times New Roman'; text-anchor: middle" x="155.014141" y="112.38375" transform="rotate(-0 155.014141 112.38375)">100</text>
     </g>
    </g>
    <g id="xtick_4">
     <g id="line2d_7">
      <path d="M 215.366212 98.44 
L 215.366212 3.6 
" clip-path="url(#p4a5ee6a103)" style="fill: none; stroke: #b0b0b0; stroke-width: 0.8; stroke-linecap: square"/>
     </g>
     <g id="line2d_8">
      <g>
       <use xlink:href="#mb16edd32f1" x="215.366212" y="98.44" style="stroke: #000000; stroke-width: 0.8"/>
      </g>
     </g>
     <g id="text_4">
      <text style="font-size: 10px; font-family: 'Times New Roman'; text-anchor: middle" x="215.366212" y="112.38375" transform="rotate(-0 215.366212 112.38375)">150</text>
     </g>
    </g>
    <g id="xtick_5">
     <g id="line2d_9">
      <path d="M 275.718283 98.44 
L 275.718283 3.6 
" clip-path="url(#p4a5ee6a103)" style="fill: none; stroke: #b0b0b0; stroke-width: 0.8; stroke-linecap: square"/>
     </g>
     <g id="line2d_10">
      <g>
       <use xlink:href="#mb16edd32f1" x="275.718283" y="98.44" style="stroke: #000000; stroke-width: 0.8"/>
      </g>
     </g>
     <g id="text_5">
      <text style="font-size: 10px; font-family: 'Times New Roman'; text-anchor: middle" x="275.718283" y="112.38375" transform="rotate(-0 275.718283 112.38375)">200</text>
     </g>
    </g>
    <g id="xtick_6">
     <g id="line2d_11">
      <path d="M 336.070353 98.44 
L 336.070353 3.6 
" clip-path="url(#p4a5ee6a103)" style="fill: none; stroke: #b0b0b0; stroke-width: 0.8; stroke-linecap: square"/>
     </g>
     <g id="line2d_12">
      <g>
       <use xlink:href="#mb16edd32f1" x="336.070353" y="98.44" style="stroke: #000000; stroke-width: 0.8"/>
      </g>
     </g>
     <g id="text_6">
      <text style="font-size: 10px; font-family: 'Times New Roman'; text-anchor: middle" x="336.070353" y="112.38375" transform="rotate(-0 336.070353 112.38375)">250</text>
     </g>
    </g>
    <g id="xtick_7">
     <g id="line2d_13">
      <path d="M 396.422424 98.44 
L 396.422424 3.6 
" clip-path="url(#p4a5ee6a103)" style="fill: none; stroke: #b0b0b0; stroke-width: 0.8; stroke-linecap: square"/>
     </g>
     <g id="line2d_14">
      <g>
       <use xlink:href="#mb16edd32f1" x="396.422424" y="98.44" style="stroke: #000000; stroke-width: 0.8"/>
      </g>
     </g>
     <g id="text_7">
      <text style="font-size: 10px; font-family: 'Times New Roman'; text-anchor: middle" x="396.422424" y="112.38375" transform="rotate(-0 396.422424 112.38375)">300</text>
     </g>
    </g>
    <g id="xtick_8">
     <g id="line2d_15">
      <path d="M 456.774495 98.44 
L 456.774495 3.6 
" clip-path="url(#p4a5ee6a103)" style="fill: none; stroke: #b0b0b0; stroke-width: 0.8; stroke-linecap: square"/>
     </g>
     <g id="line2d_16">
      <g>
       <use xlink:href="#mb16edd32f1" x="456.774495" y="98.44" style="stroke: #000000; stroke-width: 0.8"/>
      </g>
     </g>
     <g id="text_8">
      <text style="font-size: 10px; font-family: 'Times New Roman'; text-anchor: middle" x="456.774495" y="112.38375" transform="rotate(-0 456.774495 112.38375)">350</text>
     </g>
    </g>
    <g id="xtick_9">
     <g id="line2d_17">
      <path d="M 517.126565 98.44 
L 517.126565 3.6 
" clip-path="url(#p4a5ee6a103)" style="fill: none; stroke: #b0b0b0; stroke-width: 0.8; stroke-linecap: square"/>
     </g>
     <g id="line2d_18">
      <g>
       <use xlink:href="#mb16edd32f1" x="517.126565" y="98.44" style="stroke: #000000; stroke-width: 0.8"/>
      </g>
     </g>
     <g id="text_9">
      <text style="font-size: 10px; font-family: 'Times New Roman'; text-anchor: middle" x="517.126565" y="112.38375" transform="rotate(-0 517.126565 112.38375)">400</text>
     </g>
    </g>
    <g id="text_10">
     <text style="font-size: 12px; font-family: 'Times New Roman'; text-anchor: middle" x="287.155" y="126.855312" transform="rotate(-0 287.155 126.855312)">Simulation Run</text>
    </g>
   </g>
   <g id="matplotlib.axis_2">
    <g id="ytick_1">
     <g id="line2d_19">
      <path d="M 34.31 98.44 
L 540 98.44 
" clip-path="url(#p4a5ee6a103)" style="fill: none; stroke: #b0b0b0; stroke-width: 0.8; stroke-linecap: square"/>
     </g>
     <g id="line2d_20">
      <defs>
       <path id="m63bc5006d4" d="M 0 0 
L -3.5 0 
" style="stroke: #000000; stroke-width: 0.8"/>
      </defs>
      <g>
       <use xlink:href="#m63bc5006d4" x="34.31" y="98.44" style="stroke: #000000; stroke-width: 0.8"/>
      </g>
     </g>
     <g id="text_11">
      <text style="font-size: 10px; font-family: 'Times New Roman'; text-anchor: end" x="27.31" y="101.911875" transform="rotate(-0 27.31 101.911875)">0.0</text>
     </g>
    </g>
    <g id="ytick_2">
     <g id="line2d_21">
      <path d="M 34.31 66.826667 
L 540 66.826667 
" clip-path="url(#p4a5ee6a103)" style="fill: none; stroke: #b0b0b0; stroke-width: 0.8; stroke-linecap: square"/>
     </g>
     <g id="line2d_22">
      <g>
       <use xlink:href="#m63bc5006d4" x="34.31" y="66.826667" style="stroke: #000000; stroke-width: 0.8"/>
      </g>
     </g>
     <g id="text_12">
      <text style="font-size: 10px; font-family: 'Times New Roman'; text-anchor: end" x="27.31" y="70.298542" transform="rotate(-0 27.31 70.298542)">0.5</text>
     </g>
    </g>
    <g id="ytick_3">
     <g id="line2d_23">
      <path d="M 34.31 35.213333 
L 540 35.213333 
" clip-path="url(#p4a5ee6a103)" style="fill: none; stroke: #b0b0b0; stroke-width: 0.8; stroke-linecap: square"/>
     </g>
     <g id="line2d_24">
      <g>
       <use xlink:href="#m63bc5006d4" x="34.31" y="35.213333" style="stroke: #000000; stroke-width: 0.8"/>
      </g>
     </g>
     <g id="text_13">
      <text style="font-size: 10px; font-family: 'Times New Roman'; text-anchor: end" x="27.31" y="38.685208" transform="rotate(-0 27.31 38.685208)">1.0</text>
     </g>
    </g>
    <g id="ytick_4">
     <g id="line2d_25">
      <path d="M 34.31 3.6 
L 540 3.6 
" clip-path="url(#p4a5ee6a103)" style="fill: none; stroke: #b0b0b0; stroke-width: 0.8; stroke-linecap: square"/>
     </g>
     <g id="line2d_26">
      <g>
       <use xlink:href="#m63bc5006d4" x="34.31" y="3.6" style="stroke: #000000; stroke-width: 0.8"/>
      </g>
     </g>
     <g id="text_14">
      <text style="font-size: 10px; font-family: 'Times New Roman'; text-anchor: end" x="27.31" y="7.071875" transform="rotate(-0 27.31 7.071875)">1.5</text>
     </g>
    </g>
    <g id="text_15">
     <text style="font-size: 12px; font-family: 'Times New Roman'; text-anchor: middle" x="8.243125" y="51.02" transform="rotate(-90 8.243125 51.02)">Normalized Value</text>
    </g>
   </g>
   <g id="line2d_27">
    <path d="M 34.31 35.972689 
L 35.517041 48.637253 
L 36.724083 46.642226 
L 37.931124 43.525936 
L 39.138166 43.878773 
L 40.345207 40.38347 
L 41.552248 38.245586 
L 42.75929 34.076916 
L 43.966331 31.869437 
L 45.173373 29.985407 
L 46.380414 29.127596 
L 47.587456 30.474256 
L 48.794497 31.652654 
L 50.001538 30.684703 
L 51.20858 31.687257 
L 53.622663 31.055015 
L 54.829704 30.972655 
L 56.036745 31.492982 
L 57.243787 30.215546 
L 58.450828 30.208093 
L 59.65787 29.541396 
L 60.864911 28.067709 
L 63.278994 28.31458 
L 65.693077 27.568914 
L 66.900118 28.229403 
L 68.10716 28.242076 
L 69.314201 28.504564 
L 70.521242 29.18565 
L 71.728284 29.515024 
L 72.935325 29.536356 
L 74.142367 29.077473 
L 75.349408 29.717824 
L 76.556449 30.693482 
L 77.763491 30.782002 
L 78.970532 30.999304 
L 80.177574 32.179002 
L 81.384615 32.734971 
L 82.591657 31.696198 
L 83.798698 31.844725 
L 86.212781 32.483176 
L 87.419822 32.689308 
L 88.626864 31.748098 
L 89.833905 32.261275 
L 91.040946 32.396524 
L 93.455029 33.210578 
L 94.662071 32.679843 
L 98.283195 31.959171 
L 99.490236 32.00575 
L 100.697278 31.017639 
L 101.904319 29.748053 
L 103.111361 29.420149 
L 104.318402 29.539715 
L 105.525443 30.043315 
L 107.939526 30.169707 
L 109.146568 30.494958 
L 110.353609 30.22847 
L 111.56065 30.744733 
L 112.767692 30.508105 
L 115.181775 30.74872 
L 116.388816 30.034249 
L 118.802899 30.659362 
L 120.00994 30.738913 
L 122.424023 31.135196 
L 123.631065 31.448204 
L 126.045147 31.825044 
L 127.252189 32.079006 
L 128.45923 32.189069 
L 129.666272 32.043339 
L 133.287396 32.304527 
L 134.494437 32.638756 
L 135.701479 32.462141 
L 136.90852 32.671259 
L 138.115562 32.480622 
L 139.322603 32.156089 
L 141.736686 32.031061 
L 142.943727 31.603813 
L 145.35781 31.850986 
L 146.564851 31.647098 
L 147.771893 31.576361 
L 148.978934 31.925867 
L 151.393017 32.053389 
L 152.600058 32.01095 
L 155.014141 32.702288 
L 156.221183 32.619247 
L 159.842307 33.030483 
L 161.049348 33.324073 
L 164.670473 33.342193 
L 165.877514 33.172088 
L 167.084555 33.316446 
L 168.291597 33.28679 
L 169.498638 33.100205 
L 171.912721 33.314187 
L 174.326804 33.584339 
L 176.740887 33.56385 
L 177.947928 33.749126 
L 185.190177 34.043023 
L 186.397218 34.007357 
L 188.811301 34.345145 
L 191.225384 34.002123 
L 193.639467 33.562153 
L 205.709881 34.378188 
L 206.916922 34.156944 
L 208.123963 34.259155 
L 210.538046 34.213479 
L 214.159171 34.680992 
L 217.780295 34.709209 
L 218.987336 34.55937 
L 220.194378 34.786173 
L 223.815502 35.048261 
L 226.229585 34.763943 
L 227.436626 34.672621 
L 233.471833 35.127864 
L 239.50704 34.848884 
L 240.714082 34.717574 
L 244.335206 34.908457 
L 245.542247 34.558192 
L 246.749289 34.594473 
L 249.163372 34.530744 
L 250.370413 34.709114 
L 257.612661 34.599076 
L 258.819703 34.469271 
L 261.233786 34.598995 
L 263.647868 34.447776 
L 267.268993 34.257748 
L 270.890117 34.418565 
L 274.511241 34.1482 
L 276.925324 34.300942 
L 279.339407 34.344654 
L 281.75349 34.587034 
L 284.167573 34.599735 
L 286.581655 34.773823 
L 288.995738 34.739529 
L 291.409821 34.582393 
L 293.823904 34.780742 
L 296.237987 34.50528 
L 298.652069 34.513374 
L 299.859111 34.490763 
L 301.066152 34.085494 
L 305.894318 34.242876 
L 310.722484 34.400153 
L 313.136566 34.270154 
L 319.171773 34.472647 
L 321.585856 34.306063 
L 323.999939 34.200805 
L 326.414022 34.418321 
L 327.621063 34.501973 
L 328.828105 34.448988 
L 330.035146 34.549616 
L 332.449229 34.603725 
L 333.65627 34.352584 
L 336.070353 34.285502 
L 338.484436 34.411324 
L 344.519643 34.219073 
L 346.933726 34.238244 
L 354.175974 34.227822 
L 359.00414 34.2878 
L 362.625264 34.20757 
L 363.832306 34.164549 
L 366.246389 34.294933 
L 369.867513 34.242323 
L 380.730886 34.383767 
L 387.973134 34.329455 
L 390.387217 34.191182 
L 394.008341 34.421683 
L 395.215383 34.213166 
L 402.457631 34.280381 
L 404.871714 34.373432 
L 407.285797 34.251934 
L 410.906921 34.139841 
L 412.113962 34.074635 
L 418.149169 34.259898 
L 424.184376 34.351713 
L 425.391418 34.253158 
L 436.254791 34.591364 
L 439.875915 34.666461 
L 444.70408 34.7541 
L 445.911122 34.634884 
L 455.567453 34.815032 
L 457.981536 34.738047 
L 459.188577 34.592261 
L 467.637867 34.471821 
L 472.466033 34.607961 
L 477.294199 34.694906 
L 483.329406 34.730945 
L 485.743488 34.859633 
L 496.606861 35.064415 
L 501.435027 35.105918 
L 503.84911 35.205295 
L 505.056151 35.111209 
L 509.884317 35.17492 
L 512.2984 35.139592 
L 514.712482 35.208078 
L 515.919524 35.213333 
L 515.919524 35.213333 
" clip-path="url(#p4a5ee6a103)" style="fill: none; stroke: #4169e1; stroke-width: 1.5; stroke-linecap: square"/>
   </g>
   <g id="line2d_28">
    <path d="M 34.31 98.44 
L 35.517041 71.028983 
L 36.724083 78.805571 
L 37.931124 78.735182 
L 39.138166 82.591041 
L 40.345207 74.792924 
L 41.552248 73.484409 
L 42.75929 55.814661 
L 43.966331 53.888452 
L 45.173373 52.88398 
L 46.380414 55.76788 
L 47.587456 55.914684 
L 48.794497 56.338059 
L 50.001538 57.263751 
L 51.20858 57.60398 
L 52.415621 59.956237 
L 54.829704 63.890829 
L 56.036745 64.87635 
L 57.243787 61.255752 
L 58.450828 63.02624 
L 59.65787 63.040733 
L 60.864911 56.414425 
L 62.071953 58.131939 
L 63.278994 59.646378 
L 65.693077 61.331163 
L 66.900118 60.643496 
L 68.10716 61.946055 
L 69.314201 62.821045 
L 70.521242 61.591726 
L 71.728284 62.168476 
L 72.935325 63.265125 
L 74.142367 63.112101 
L 75.349408 61.73882 
L 76.556449 57.064429 
L 77.763491 58.134478 
L 78.970532 58.89656 
L 80.177574 50.872544 
L 81.384615 50.001524 
L 82.591657 43.806521 
L 83.798698 44.952742 
L 86.212781 45.920284 
L 87.419822 46.767874 
L 88.626864 41.078305 
L 89.833905 40.228449 
L 91.040946 41.294261 
L 92.247988 41.149528 
L 93.455029 40.858025 
L 94.662071 39.580109 
L 95.869112 40.09089 
L 97.076153 40.003614 
L 99.490236 42.039585 
L 100.697278 33.86936 
L 101.904319 19.576061 
L 103.111361 19.888383 
L 104.318402 21.07806 
L 105.525443 19.810213 
L 107.939526 22.25949 
L 109.146568 22.347791 
L 110.353609 22.77212 
L 111.56065 21.021044 
L 112.767692 21.572057 
L 113.974733 22.454129 
L 115.181775 23.484349 
L 116.388816 18.638369 
L 117.595858 18.347759 
L 118.802899 18.559218 
L 120.00994 19.591885 
L 122.424023 20.756281 
L 123.631065 20.553024 
L 124.838106 21.33908 
L 126.045147 21.590044 
L 127.252189 21.726564 
L 128.45923 22.53614 
L 129.666272 23.19821 
L 130.873313 24.068229 
L 132.080354 24.758049 
L 133.287396 25.576506 
L 134.494437 24.859355 
L 135.701479 25.277211 
L 138.115562 25.797012 
L 139.322603 25.056543 
L 141.736686 26.55998 
L 142.943727 24.542193 
L 144.150769 24.924029 
L 145.35781 25.607343 
L 146.564851 25.721446 
L 147.771893 26.406522 
L 148.978934 25.173622 
L 151.393017 26.5105 
L 152.600058 27.206896 
L 153.8071 25.5952 
L 155.014141 24.558559 
L 156.221183 25.163856 
L 157.428224 25.599303 
L 158.635266 26.16581 
L 159.842307 26.15591 
L 161.049348 25.291101 
L 164.670473 27.27894 
L 165.877514 27.386837 
L 167.084555 27.635199 
L 168.291597 28.250702 
L 169.498638 28.205478 
L 170.70568 28.73558 
L 171.912721 28.919256 
L 173.119763 28.898621 
L 174.326804 29.323198 
L 176.740887 30.458361 
L 177.947928 30.326752 
L 183.983135 32.818139 
L 185.190177 33.107885 
L 186.397218 33.594918 
L 187.604259 33.815625 
L 188.811301 33.228577 
L 190.018342 33.261471 
L 191.225384 32.894959 
L 192.432425 32.398661 
L 193.639467 31.708249 
L 194.846508 32.070473 
L 196.053549 31.983643 
L 198.467632 32.676548 
L 199.674674 32.009634 
L 202.088756 32.943396 
L 203.295798 33.058394 
L 204.502839 32.813821 
L 205.709881 33.194563 
L 206.916922 32.451402 
L 208.123963 32.649394 
L 210.538046 33.510982 
L 211.745088 33.379727 
L 212.952129 32.561331 
L 214.159171 32.774869 
L 215.366212 33.209679 
L 216.573253 33.484269 
L 217.780295 33.610741 
L 218.987336 33.444643 
L 220.194378 32.510147 
L 222.60846 32.801746 
L 223.815502 33.122063 
L 225.022543 32.757333 
L 226.229585 32.809452 
L 228.643668 33.063784 
L 229.850709 32.885363 
L 239.50704 34.998421 
L 240.714082 34.863378 
L 241.921123 35.068169 
L 243.128164 34.717898 
L 244.335206 35.03687 
L 245.542247 31.727859 
L 246.749289 32.065171 
L 247.95633 32.22861 
L 249.163372 32.586959 
L 250.370413 31.979518 
L 251.577454 32.345585 
L 253.991537 32.589767 
L 256.40562 32.612411 
L 257.612661 32.749494 
L 258.819703 32.565175 
L 260.026744 32.678706 
L 261.233786 32.965481 
L 262.440827 32.791205 
L 263.647868 33.115466 
L 266.061951 33.419881 
L 269.683076 34.302889 
L 270.890117 34.061749 
L 272.097158 33.983482 
L 273.3042 34.275503 
L 275.718283 33.866557 
L 279.339407 34.652329 
L 280.546448 33.962005 
L 281.75349 34.088851 
L 284.167573 34.702995 
L 285.374614 34.337251 
L 287.788697 34.851226 
L 288.995738 34.974628 
L 290.20278 34.926568 
L 292.616862 35.16156 
L 293.823904 34.930675 
L 295.030945 34.397462 
L 296.237987 34.103526 
L 299.859111 34.793731 
L 301.066152 28.877101 
L 302.273194 29.182721 
L 304.687277 29.587794 
L 307.101359 30.028858 
L 308.308401 30.12891 
L 310.722484 30.695886 
L 311.929525 30.432194 
L 314.343608 30.916624 
L 315.550649 30.796496 
L 320.378815 31.585846 
L 321.585856 31.085982 
L 323.999939 31.418179 
L 325.206981 30.611565 
L 326.414022 30.764137 
L 327.621063 30.750889 
L 328.828105 30.910104 
L 330.035146 30.760636 
L 331.242188 31.020322 
L 332.449229 31.069903 
L 333.65627 28.667266 
L 334.863312 28.749499 
L 336.070353 29.027113 
L 337.277395 28.841938 
L 339.691478 29.285555 
L 340.898519 28.75989 
L 344.519643 29.530321 
L 346.933726 29.930561 
L 350.55485 30.622291 
L 354.175974 31.177094 
L 356.590057 31.599655 
L 359.00414 32.042987 
L 360.211182 32.110414 
L 363.832306 32.73647 
L 365.039347 32.384417 
L 368.660471 32.962281 
L 371.074554 33.359779 
L 372.281596 33.255539 
L 375.90272 33.884733 
L 377.109761 33.771948 
L 379.523844 33.832405 
L 380.730886 33.70373 
L 383.144968 34.040722 
L 385.559051 34.376732 
L 386.766093 34.593457 
L 387.973134 34.654464 
L 389.180175 34.322338 
L 390.387217 34.481334 
L 392.8013 34.192549 
L 394.008341 34.209116 
L 395.215383 32.201445 
L 396.422424 32.4215 
L 397.629465 32.363597 
L 402.457631 33.16595 
L 404.871714 33.363407 
L 406.078755 32.91617 
L 409.699879 33.516636 
L 410.906921 32.864488 
L 413.321004 32.88624 
L 415.735087 33.260151 
L 416.942128 32.920956 
L 422.977335 33.851321 
L 424.184376 33.994212 
L 425.391418 33.654678 
L 426.598459 33.720065 
L 429.012542 34.023028 
L 430.219583 33.606644 
L 433.840708 33.793834 
L 435.047749 33.813968 
L 438.668873 34.333275 
L 439.875915 34.281184 
L 444.70408 34.810944 
L 445.911122 34.168731 
L 457.981536 35.259838 
L 459.188577 34.16027 
L 462.809702 34.55889 
L 464.016743 34.544135 
L 470.05195 35.125426 
L 471.258992 35.1036 
L 476.087157 35.582342 
L 477.294199 35.510059 
L 480.915323 35.907177 
L 482.122364 36.03448 
L 483.329406 36.047056 
L 484.536447 35.611293 
L 486.95053 35.817357 
L 488.157571 35.741712 
L 489.364613 35.904655 
L 490.571654 35.907789 
L 492.985737 36.186028 
L 494.192778 36.162031 
L 497.813903 36.582253 
L 499.020944 36.024785 
L 501.435027 35.518028 
L 503.84911 35.513124 
L 505.056151 35.084058 
L 507.470234 35.237225 
L 508.677275 35.182198 
L 509.884317 35.295504 
L 511.091358 35.14415 
L 512.2984 35.231986 
L 513.505441 34.913628 
L 515.919524 35.213333 
L 515.919524 35.213333 
" clip-path="url(#p4a5ee6a103)" style="fill: none; stroke-dasharray: 5.55,2.4; stroke-dashoffset: 0; stroke: #4169e1; stroke-width: 1.5"/>
   </g>
   <g id="line2d_29">
    <path d="M 34.31 39.424411 
L 35.517041 47.005218 
L 36.724083 43.905173 
L 37.931124 42.562209 
L 39.138166 42.653575 
L 40.345207 39.498739 
L 41.552248 37.702932 
L 42.75929 34.93637 
L 43.966331 32.871918 
L 45.173373 31.212109 
L 46.380414 30.493625 
L 47.587456 31.515744 
L 48.794497 32.164998 
L 50.001538 31.417335 
L 51.20858 31.902339 
L 52.415621 31.950547 
L 53.622663 31.662713 
L 54.829704 31.492318 
L 56.036745 32.066828 
L 57.243787 31.312378 
L 58.450828 31.206041 
L 59.65787 30.980585 
L 60.864911 29.708163 
L 62.071953 30.014171 
L 63.278994 30.45373 
L 64.486035 30.126088 
L 65.693077 30.10713 
L 66.900118 30.704127 
L 68.10716 30.588437 
L 69.314201 31.016651 
L 70.521242 31.65394 
L 71.728284 31.732957 
L 74.142367 31.239673 
L 75.349408 31.770945 
L 76.556449 32.491324 
L 78.970532 32.669816 
L 80.177574 33.592877 
L 81.384615 34.004343 
L 82.591657 33.113634 
L 83.798698 33.139528 
L 87.419822 33.758187 
L 88.626864 33.155097 
L 89.833905 33.520499 
L 91.040946 33.559938 
L 93.455029 34.004393 
L 95.869112 33.617543 
L 98.283195 33.327412 
L 99.490236 33.263917 
L 101.904319 31.522061 
L 103.111361 31.29983 
L 104.318402 31.31255 
L 105.525443 31.62525 
L 107.939526 31.693205 
L 109.146568 31.984147 
L 110.353609 31.772956 
L 111.56065 32.171455 
L 112.767692 32.029018 
L 113.974733 32.191582 
L 115.181775 32.169374 
L 116.388816 31.712137 
L 118.802899 32.164598 
L 121.216982 32.278995 
L 122.424023 32.41225 
L 123.631065 32.752027 
L 126.045147 32.97366 
L 127.252189 33.216061 
L 128.45923 33.317208 
L 129.666272 33.209617 
L 133.287396 33.441953 
L 134.494437 33.720652 
L 135.701479 33.524187 
L 136.90852 33.709055 
L 138.115562 33.60826 
L 139.322603 33.314486 
L 141.736686 33.189599 
L 142.943727 32.996468 
L 145.35781 33.14966 
L 147.771893 32.872367 
L 148.978934 33.120328 
L 151.393017 33.193459 
L 152.600058 33.175856 
L 155.014141 33.678121 
L 156.221183 33.54559 
L 159.842307 33.872117 
L 161.049348 34.087306 
L 163.463431 34.139061 
L 164.670473 34.164934 
L 165.877514 34.013488 
L 167.084555 34.087615 
L 168.291597 34.03577 
L 169.498638 33.85035 
L 170.70568 33.848185 
L 175.533845 34.243235 
L 176.740887 34.167548 
L 179.15497 34.346128 
L 181.569052 34.422773 
L 185.190177 34.520684 
L 187.604259 34.573952 
L 188.811301 34.723832 
L 191.225384 34.549608 
L 193.639467 34.330825 
L 203.295798 34.766468 
L 205.709881 34.891013 
L 206.916922 34.688883 
L 208.123963 34.801065 
L 211.745088 34.890465 
L 214.159171 35.139287 
L 220.194378 35.186222 
L 222.60846 35.315501 
L 223.815502 35.355711 
L 227.436626 35.010252 
L 233.471833 35.311143 
L 240.714082 35.022548 
L 244.335206 35.113071 
L 245.542247 34.907189 
L 256.40562 34.998232 
L 258.819703 34.810705 
L 261.233786 34.864921 
L 263.647868 34.806019 
L 269.683076 34.76372 
L 270.890117 34.852951 
L 274.511241 34.722543 
L 276.925324 34.871131 
L 279.339407 34.948629 
L 281.75349 35.104879 
L 296.237987 35.034985 
L 299.859111 35.001163 
L 301.066152 34.726767 
L 303.480235 34.741274 
L 309.515442 34.870743 
L 325.206981 34.743716 
L 330.035146 34.88332 
L 337.277395 34.801426 
L 339.691478 34.794715 
L 342.10556 34.680816 
L 348.140767 34.692575 
L 352.968933 34.736066 
L 355.383016 34.697755 
L 362.625264 34.642913 
L 363.832306 34.617196 
L 366.246389 34.710313 
L 371.074554 34.703506 
L 374.695678 34.819587 
L 377.109761 34.90675 
L 379.523844 34.914123 
L 383.144968 34.784086 
L 387.973134 34.79734 
L 390.387217 34.686979 
L 394.008341 34.845835 
L 395.215383 34.672973 
L 402.457631 34.719352 
L 404.871714 34.778029 
L 408.492838 34.685389 
L 410.906921 34.623094 
L 414.528045 34.627972 
L 420.563252 34.695182 
L 438.668873 34.960801 
L 443.497039 35.036952 
L 462.809702 34.895131 
L 467.637867 34.816946 
L 476.087157 34.877678 
L 479.708281 34.95046 
L 483.329406 34.933843 
L 485.743488 35.038725 
L 500.227985 35.11635 
L 503.84911 35.235304 
L 506.263193 35.161189 
L 511.091358 35.140892 
L 515.919524 35.213333 
L 515.919524 35.213333 
" clip-path="url(#p4a5ee6a103)" style="fill: none; stroke: #ff8c00; stroke-width: 1.5; stroke-linecap: square"/>
   </g>
   <g id="line2d_30">
    <path d="M 34.31 98.44 
L 35.517041 80.061426 
L 36.724083 80.040849 
L 39.138166 86.005559 
L 40.345207 72.163042 
L 41.552248 69.728877 
L 42.75929 56.183735 
L 43.966331 49.975008 
L 45.173373 46.892127 
L 46.380414 49.927418 
L 47.587456 50.294969 
L 48.794497 52.380759 
L 50.001538 53.346707 
L 51.20858 55.299754 
L 52.415621 57.984871 
L 54.829704 61.921668 
L 56.036745 61.943704 
L 57.243787 60.309957 
L 58.450828 62.05335 
L 59.65787 63.36592 
L 60.864911 53.499771 
L 62.071953 54.683508 
L 63.278994 54.950822 
L 64.486035 55.765221 
L 65.693077 57.34278 
L 66.900118 55.733099 
L 68.10716 57.085904 
L 69.314201 56.763785 
L 70.521242 54.211678 
L 71.728284 55.531913 
L 72.935325 56.359626 
L 74.142367 56.779308 
L 75.349408 54.900635 
L 76.556449 50.301466 
L 78.970532 52.647463 
L 80.177574 43.467234 
L 81.384615 42.729939 
L 82.591657 33.939972 
L 83.798698 35.466896 
L 85.005739 36.169311 
L 87.419822 37.941324 
L 88.626864 34.022228 
L 89.833905 33.428647 
L 91.040946 34.759671 
L 93.455029 35.790489 
L 94.662071 36.032286 
L 95.869112 36.919798 
L 97.076153 37.424771 
L 99.490236 39.434406 
L 101.904319 14.814713 
L 103.111361 15.356268 
L 104.318402 16.761465 
L 105.525443 16.277808 
L 107.939526 18.848184 
L 109.146568 18.433186 
L 110.353609 18.784681 
L 111.56065 16.759912 
L 112.767692 17.575754 
L 113.974733 18.22489 
L 115.181775 19.393958 
L 116.388816 15.993091 
L 117.595858 15.94524 
L 118.802899 16.05511 
L 120.00994 17.195419 
L 121.216982 18.072322 
L 122.424023 18.74383 
L 123.631065 17.074312 
L 126.045147 18.596031 
L 127.252189 18.172767 
L 133.287396 22.001705 
L 134.494437 20.849963 
L 136.90852 20.700534 
L 138.115562 21.314669 
L 139.322603 19.789899 
L 140.529644 20.665474 
L 141.736686 21.198346 
L 142.943727 20.973589 
L 144.150769 21.695685 
L 145.35781 22.28786 
L 146.564851 22.094251 
L 147.771893 22.634608 
L 148.978934 21.556272 
L 151.393017 23.018916 
L 152.600058 23.771034 
L 153.8071 22.831611 
L 155.014141 21.223004 
L 156.221183 21.412701 
L 157.428224 21.926688 
L 158.635266 22.310425 
L 159.842307 22.397595 
L 161.049348 21.560051 
L 162.25639 22.128932 
L 164.670473 23.498708 
L 165.877514 23.380483 
L 168.291597 24.43384 
L 169.498638 23.857317 
L 170.70568 24.511381 
L 171.912721 24.589323 
L 173.119763 24.444587 
L 176.740887 25.807257 
L 177.947928 25.854623 
L 183.983135 28.156114 
L 185.190177 28.474943 
L 186.397218 29.020277 
L 187.604259 29.390872 
L 188.811301 29.006587 
L 190.018342 29.480873 
L 191.225384 29.236674 
L 192.432425 29.164358 
L 193.639467 29.26772 
L 194.846508 29.705337 
L 196.053549 29.618842 
L 197.260591 29.849721 
L 198.467632 30.250491 
L 199.674674 29.8822 
L 200.881715 30.375322 
L 202.088756 30.693454 
L 204.502839 30.632215 
L 205.709881 31.091745 
L 206.916922 29.691015 
L 208.123963 29.585603 
L 210.538046 30.521282 
L 211.745088 30.548565 
L 212.952129 29.537618 
L 214.159171 29.74448 
L 215.366212 30.197537 
L 217.780295 30.594698 
L 218.987336 30.237159 
L 220.194378 29.311996 
L 221.401419 29.155111 
L 223.815502 29.932568 
L 225.022543 29.324086 
L 226.229585 29.33286 
L 227.436626 29.133819 
L 228.643668 29.341907 
L 229.850709 29.279905 
L 235.885916 30.738652 
L 237.092957 30.799995 
L 239.50704 31.487093 
L 241.921123 32.040765 
L 243.128164 31.644214 
L 244.335206 31.813166 
L 245.542247 29.819493 
L 249.163372 30.858246 
L 250.370413 30.534761 
L 251.577454 30.894264 
L 255.198579 31.329126 
L 256.40562 31.428166 
L 257.612661 31.178496 
L 258.819703 31.09834 
L 261.233786 31.715 
L 262.440827 31.804273 
L 267.268993 33.096035 
L 269.683076 33.739096 
L 270.890117 33.568447 
L 272.097158 33.627294 
L 273.3042 33.950131 
L 274.511241 34.055707 
L 275.718283 33.538481 
L 278.132365 34.100324 
L 279.339407 34.09096 
L 280.546448 33.628971 
L 281.75349 33.797561 
L 284.167573 34.385772 
L 285.374614 34.080178 
L 288.995738 34.929751 
L 292.616862 35.401814 
L 296.237987 35.09951 
L 299.859111 35.682189 
L 301.066152 30.643456 
L 303.480235 31.048762 
L 305.894318 31.479682 
L 310.722484 32.495492 
L 311.929525 32.251322 
L 314.343608 32.526691 
L 315.550649 32.505318 
L 319.171773 33.024034 
L 320.378815 33.278661 
L 321.585856 32.439883 
L 322.792898 32.395369 
L 323.999939 32.533076 
L 325.206981 31.598756 
L 327.621063 31.756519 
L 328.828105 31.893612 
L 330.035146 31.648716 
L 331.242188 31.856961 
L 332.449229 31.919907 
L 333.65627 30.158103 
L 336.070353 30.58811 
L 337.277395 30.277327 
L 339.691478 30.720396 
L 340.898519 30.132762 
L 348.140767 31.572591 
L 352.968933 32.336004 
L 354.175974 32.312591 
L 363.832306 34.028303 
L 365.039347 33.563077 
L 368.660471 34.162799 
L 371.074554 34.469876 
L 372.281596 34.374934 
L 375.90272 34.908764 
L 377.109761 34.493281 
L 379.523844 34.715199 
L 380.730886 34.535538 
L 381.937927 34.731316 
L 383.144968 34.743732 
L 385.559051 35.09559 
L 387.973134 35.513525 
L 389.180175 35.136255 
L 390.387217 35.258835 
L 391.594258 35.060191 
L 394.008341 35.072434 
L 395.215383 32.426394 
L 396.422424 32.638656 
L 397.629465 32.63068 
L 402.457631 33.446502 
L 403.664672 33.457576 
L 404.871714 33.650936 
L 406.078755 33.607526 
L 409.699879 34.083392 
L 410.906921 33.539708 
L 414.528045 33.962626 
L 415.735087 34.160342 
L 416.942128 33.904766 
L 424.184376 35.005466 
L 426.598459 34.931115 
L 429.012542 35.286036 
L 430.219583 34.664072 
L 431.426625 34.812733 
L 435.047749 34.853936 
L 438.668873 35.385448 
L 439.875915 35.376378 
L 444.70408 35.974272 
L 445.911122 35.31981 
L 448.325205 35.517309 
L 453.15337 36.055332 
L 454.360412 35.950715 
L 456.774495 36.240054 
L 457.981536 36.165541 
L 459.188577 35.226286 
L 462.809702 35.572528 
L 464.016743 35.581344 
L 466.430826 35.796915 
L 467.637867 35.831209 
L 470.05195 36.139238 
L 471.258992 36.026047 
L 476.087157 36.602232 
L 477.294199 36.430014 
L 478.50124 36.555386 
L 480.915323 36.618108 
L 483.329406 36.846187 
L 484.536447 36.267516 
L 486.95053 36.517607 
L 488.157571 36.329966 
L 489.364613 36.494035 
L 491.778696 36.64452 
L 492.985737 36.806493 
L 494.192778 36.710805 
L 497.813903 37.176981 
L 499.020944 36.44425 
L 501.435027 35.805472 
L 503.84911 35.936236 
L 505.056151 35.230478 
L 507.470234 35.450795 
L 512.2984 35.521652 
L 513.505441 35.019369 
L 515.919524 35.213333 
L 515.919524 35.213333 
" clip-path="url(#p4a5ee6a103)" style="fill: none; stroke-dasharray: 5.55,2.4; stroke-dashoffset: 0; stroke: #ff8c00; stroke-width: 1.5"/>
   </g>
   <g id="patch_3">
    <path d="M 34.31 98.44 
L 34.31 3.6 
" style="fill: none; stroke: #000000; stroke-width: 0.8; stroke-linejoin: miter; stroke-linecap: square"/>
   </g>
   <g id="patch_4">
    <path d="M 540 98.44 
L 540 3.6 
" style="fill: none; stroke: #000000; stroke-width: 0.8; stroke-linejoin: miter; stroke-linecap: square"/>
   </g>
   <g id="patch_5">
    <path d="M 34.31 98.44 
L 540 98.44 
" style="fill: none; stroke: #000000; stroke-width: 0.8; stroke-linejoin: miter; stroke-linecap: square"/>
   </g>
   <g id="patch_6">
    <path d="M 34.31 3.6 
L 540 3.6 
" style="fill: none; stroke: #000000; stroke-width: 0.8; stroke-linejoin: miter; stroke-linecap: square"/>
   </g>
  </g>
 </g>
 <defs>
  <clipPath id="p4a5ee6a103">
   <rect x="34.31" y="3.6" width="505.69" height="94.84"/>
  </clipPath>
 </defs>
</svg>
