<?xml version="1.0" encoding="utf-8" standalone="no"?>
<!DOCTYPE svg PUBLIC "-//W3C//DTD SVG 1.1//EN"
  "http://www.w3.org/Graphics/SVG/1.1/DTD/svg11.dtd">
<svg xmlns:xlink="http://www.w3.org/1999/xlink" width="540pt" height="129.6pt" viewBox="0 0 540 129.6" xmlns="http://www.w3.org/2000/svg" version="1.1">
 <metadata>
  <rdf:RDF xmlns:dc="http://purl.org/dc/elements/1.1/" xmlns:cc="http://creativecommons.org/ns#" xmlns:rdf="http://www.w3.org/1999/02/22-rdf-syntax-ns#">
   <cc:Work>
    <dc:type rdf:resource="http://purl.org/dc/dcmitype/StillImage"/>
    <dc:date>2025-03-31T00:00:19.346514</dc:date>
    <dc:format>image/svg+xml</dc:format>
    <dc:creator>
     <cc:Agent>
      <dc:title>Matplotlib v3.10.1, https://matplotlib.org/</dc:title>
     </cc:Agent>
    </dc:creator>
   </cc:Work>
  </rdf:RDF>
 </metadata>
 <defs>
  <style type="text/css">*{stroke-linejoin: round; stroke-linecap: butt}</style>
 </defs>
 <g id="figure_1">
  <g id="patch_1">
   <path d="M 0 129.6 
L 540 129.6 
L 540 0 
L 0 0 
z
" style="fill: #ffffff"/>
  </g>
  <g id="axes_1">
   <g id="patch_2">
    <path d="M 27.56 97 
L 540 97 
L 540 0 
L 27.56 0 
z
" style="fill: #ffffff"/>
   </g>
   <g id="matplotlib.axis_1">
    <g id="xtick_1">
     <g id="line2d_1">
      <path d="M 27.56 97 
L 27.56 0 
" clip-path="url(#pe6025a5864)" style="fill: none; stroke: #b0b0b0; stroke-width: 0.8; stroke-linecap: square"/>
     </g>
     <g id="line2d_2">
      <defs>
       <path id="m7435dc2349" d="M 0 0 
L 0 3.5 
" style="stroke: #000000; stroke-width: 0.8"/>
      </defs>
      <g>
       <use xlink:href="#m7435dc2349" x="27.56" y="97" style="stroke: #000000; stroke-width: 0.8"/>
      </g>
     </g>
     <g id="text_1">
      <text style="font-size: 10px; font-family: 'Times New Roman'; text-anchor: middle" x="27.56" y="110.94375" transform="rotate(-0 27.56 110.94375)">0</text>
     </g>
    </g>
    <g id="xtick_2">
     <g id="line2d_3">
      <path d="M 88.717656 97 
L 88.717656 0 
" clip-path="url(#pe6025a5864)" style="fill: none; stroke: #b0b0b0; stroke-width: 0.8; stroke-linecap: square"/>
     </g>
     <g id="line2d_4">
      <g>
       <use xlink:href="#m7435dc2349" x="88.717656" y="97" style="stroke: #000000; stroke-width: 0.8"/>
      </g>
     </g>
     <g id="text_2">
      <text style="font-size: 10px; font-family: 'Times New Roman'; text-anchor: middle" x="88.717656" y="110.94375" transform="rotate(-0 88.717656 110.94375)">50</text>
     </g>
    </g>
    <g id="xtick_3">
     <g id="line2d_5">
      <path d="M 149.875312 97 
L 149.875312 0 
" clip-path="url(#pe6025a5864)" style="fill: none; stroke: #b0b0b0; stroke-width: 0.8; stroke-linecap: square"/>
     </g>
     <g id="line2d_6">
      <g>
       <use xlink:href="#m7435dc2349" x="149.875312" y="97" style="stroke: #000000; stroke-width: 0.8"/>
      </g>
     </g>
     <g id="text_3">
      <text style="font-size: 10px; font-family: 'Times New Roman'; text-anchor: middle" x="149.875312" y="110.94375" transform="rotate(-0 149.875312 110.94375)">100</text>
     </g>
    </g>
    <g id="xtick_4">
     <g id="line2d_7">
      <path d="M 211.032968 97 
L 211.032968 0 
" clip-path="url(#pe6025a5864)" style="fill: none; stroke: #b0b0b0; stroke-width: 0.8; stroke-linecap: square"/>
     </g>
     <g id="line2d_8">
      <g>
       <use xlink:href="#m7435dc2349" x="211.032968" y="97" style="stroke: #000000; stroke-width: 0.8"/>
      </g>
     </g>
     <g id="text_4">
      <text style="font-size: 10px; font-family: 'Times New Roman'; text-anchor: middle" x="211.032968" y="110.94375" transform="rotate(-0 211.032968 110.94375)">150</text>
     </g>
    </g>
    <g id="xtick_5">
     <g id="line2d_9">
      <path d="M 272.190624 97 
L 272.190624 0 
" clip-path="url(#pe6025a5864)" style="fill: none; stroke: #b0b0b0; stroke-width: 0.8; stroke-linecap: square"/>
     </g>
     <g id="line2d_10">
      <g>
       <use xlink:href="#m7435dc2349" x="272.190624" y="97" style="stroke: #000000; stroke-width: 0.8"/>
      </g>
     </g>
     <g id="text_5">
      <text style="font-size: 10px; font-family: 'Times New Roman'; text-anchor: middle" x="272.190624" y="110.94375" transform="rotate(-0 272.190624 110.94375)">200</text>
     </g>
    </g>
    <g id="xtick_6">
     <g id="line2d_11">
      <path d="M 333.34828 97 
L 333.34828 0 
" clip-path="url(#pe6025a5864)" style="fill: none; stroke: #b0b0b0; stroke-width: 0.8; stroke-linecap: square"/>
     </g>
     <g id="line2d_12">
      <g>
       <use xlink:href="#m7435dc2349" x="333.34828" y="97" style="stroke: #000000; stroke-width: 0.8"/>
      </g>
     </g>
     <g id="text_6">
      <text style="font-size: 10px; font-family: 'Times New Roman'; text-anchor: middle" x="333.34828" y="110.94375" transform="rotate(-0 333.34828 110.94375)">250</text>
     </g>
    </g>
    <g id="xtick_7">
     <g id="line2d_13">
      <path d="M 394.505936 97 
L 394.505936 0 
" clip-path="url(#pe6025a5864)" style="fill: none; stroke: #b0b0b0; stroke-width: 0.8; stroke-linecap: square"/>
     </g>
     <g id="line2d_14">
      <g>
       <use xlink:href="#m7435dc2349" x="394.505936" y="97" style="stroke: #000000; stroke-width: 0.8"/>
      </g>
     </g>
     <g id="text_7">
      <text style="font-size: 10px; font-family: 'Times New Roman'; text-anchor: middle" x="394.505936" y="110.94375" transform="rotate(-0 394.505936 110.94375)">300</text>
     </g>
    </g>
    <g id="xtick_8">
     <g id="line2d_15">
      <path d="M 455.663592 97 
L 455.663592 0 
" clip-path="url(#pe6025a5864)" style="fill: none; stroke: #b0b0b0; stroke-width: 0.8; stroke-linecap: square"/>
     </g>
     <g id="line2d_16">
      <g>
       <use xlink:href="#m7435dc2349" x="455.663592" y="97" style="stroke: #000000; stroke-width: 0.8"/>
      </g>
     </g>
     <g id="text_8">
      <text style="font-size: 10px; font-family: 'Times New Roman'; text-anchor: middle" x="455.663592" y="110.94375" transform="rotate(-0 455.663592 110.94375)">350</text>
     </g>
    </g>
    <g id="xtick_9">
     <g id="line2d_17">
      <path d="M 516.821248 97 
L 516.821248 0 
" clip-path="url(#pe6025a5864)" style="fill: none; stroke: #b0b0b0; stroke-width: 0.8; stroke-linecap: square"/>
     </g>
     <g id="line2d_18">
      <g>
       <use xlink:href="#m7435dc2349" x="516.821248" y="97" style="stroke: #000000; stroke-width: 0.8"/>
      </g>
     </g>
     <g id="text_9">
      <text style="font-size: 10px; font-family: 'Times New Roman'; text-anchor: middle" x="516.821248" y="110.94375" transform="rotate(-0 516.821248 110.94375)">400</text>
     </g>
    </g>
    <g id="text_10">
     <text style="font-size: 12px; font-family: 'Times New Roman'; text-anchor: middle" x="283.78" y="125.415312" transform="rotate(-0 283.78 125.415312)">Simulation Run</text>
    </g>
   </g>
   <g id="matplotlib.axis_2">
    <g id="ytick_1">
     <g id="line2d_19">
      <path d="M 27.56 97 
L 540 97 
" clip-path="url(#pe6025a5864)" style="fill: none; stroke: #b0b0b0; stroke-width: 0.8; stroke-linecap: square"/>
     </g>
     <g id="line2d_20">
      <defs>
       <path id="m5542968afa" d="M 0 0 
L -3.5 0 
" style="stroke: #000000; stroke-width: 0.8"/>
      </defs>
      <g>
       <use xlink:href="#m5542968afa" x="27.56" y="97" style="stroke: #000000; stroke-width: 0.8"/>
      </g>
     </g>
     <g id="text_11">
      <text style="font-size: 10px; font-family: 'Times New Roman'; text-anchor: end" x="20.56" y="100.471875" transform="rotate(-0 20.56 100.471875)">0</text>
     </g>
    </g>
    <g id="ytick_2">
     <g id="line2d_21">
      <path d="M 27.56 50.809524 
L 540 50.809524 
" clip-path="url(#pe6025a5864)" style="fill: none; stroke: #b0b0b0; stroke-width: 0.8; stroke-linecap: square"/>
     </g>
     <g id="line2d_22">
      <g>
       <use xlink:href="#m5542968afa" x="27.56" y="50.809524" style="stroke: #000000; stroke-width: 0.8"/>
      </g>
     </g>
     <g id="text_12">
      <text style="font-size: 10px; font-family: 'Times New Roman'; text-anchor: end" x="20.56" y="54.281399" transform="rotate(-0 20.56 54.281399)">1</text>
     </g>
    </g>
    <g id="ytick_3">
     <g id="line2d_23">
      <path d="M 27.56 4.619048 
L 540 4.619048 
" clip-path="url(#pe6025a5864)" style="fill: none; stroke: #b0b0b0; stroke-width: 0.8; stroke-linecap: square"/>
     </g>
     <g id="line2d_24">
      <g>
       <use xlink:href="#m5542968afa" x="27.56" y="4.619048" style="stroke: #000000; stroke-width: 0.8"/>
      </g>
     </g>
     <g id="text_13">
      <text style="font-size: 10px; font-family: 'Times New Roman'; text-anchor: end" x="20.56" y="8.090923" transform="rotate(-0 20.56 8.090923)">2</text>
     </g>
    </g>
    <g id="text_14">
     <text style="font-size: 12px; font-family: 'Times New Roman'; text-anchor: middle" x="8.993125" y="48.5" transform="rotate(-90 8.993125 48.5)">Normalized Value</text>
    </g>
   </g>
   <g id="line2d_25">
    <path d="M 27.56 38.803776 
L 28.783153 49.585085 
L 30.006306 54.256548 
L 31.229459 54.880476 
L 32.452612 53.07041 
L 33.675766 53.83641 
L 34.898919 56.299277 
L 36.122072 51.194673 
L 37.345225 48.634107 
L 38.568378 50.10933 
L 39.791531 50.3135 
L 41.014684 49.240145 
L 42.237837 48.65037 
L 43.460991 49.289618 
L 44.684144 49.353731 
L 47.13045 50.07322 
L 48.353603 50.225641 
L 49.576756 50.565658 
L 50.799909 49.110205 
L 52.023062 49.493327 
L 53.246216 48.711455 
L 54.469369 47.248814 
L 55.692522 47.55423 
L 56.915675 48.516674 
L 58.138828 48.681484 
L 59.361981 47.855205 
L 60.585134 47.912329 
L 61.808287 48.409831 
L 63.031441 48.549534 
L 64.254594 49.143206 
L 65.477747 49.292445 
L 66.7009 48.72746 
L 67.924053 49.207398 
L 69.147206 49.18613 
L 70.370359 48.756924 
L 71.593512 48.089622 
L 72.816665 48.146422 
L 77.709278 49.468242 
L 80.155584 49.9507 
L 81.378737 50.337279 
L 83.825044 49.866122 
L 85.048197 49.216643 
L 86.27135 49.157298 
L 87.494503 49.38657 
L 88.717656 49.764357 
L 89.940809 49.587867 
L 91.163962 50.03918 
L 93.610269 50.467372 
L 94.833422 50.282657 
L 96.056575 49.519709 
L 97.279728 49.38479 
L 98.502881 49.708197 
L 99.726034 49.893577 
L 102.17234 49.786146 
L 103.395493 49.768232 
L 104.618647 49.635033 
L 105.8418 49.931489 
L 107.064953 49.785774 
L 108.288106 49.917346 
L 110.734412 49.112811 
L 114.403872 48.970764 
L 116.850178 49.525762 
L 118.073331 49.08374 
L 119.296484 48.977854 
L 122.965943 49.223168 
L 124.189097 48.88591 
L 126.635403 49.158763 
L 127.858556 48.935672 
L 129.081709 49.083622 
L 130.304862 49.088861 
L 131.528015 49.292676 
L 132.751168 49.22736 
L 133.974322 49.4226 
L 136.420628 49.003382 
L 137.643781 49.080629 
L 140.090087 48.870992 
L 142.536393 48.697048 
L 143.759546 48.5453 
L 146.205853 48.897454 
L 148.652159 49.023696 
L 151.098465 48.646107 
L 155.991078 48.753497 
L 157.214231 48.962231 
L 158.437384 48.965517 
L 159.660537 48.647936 
L 160.88369 48.698356 
L 162.106843 48.878104 
L 166.999456 49.224624 
L 168.222609 49.397812 
L 170.668915 49.393627 
L 171.892068 49.463162 
L 173.115221 49.279531 
L 175.561528 49.380971 
L 178.007834 49.510058 
L 180.45414 49.180347 
L 181.677293 49.30993 
L 182.900446 49.278128 
L 185.346753 49.443716 
L 193.908824 49.519145 
L 196.355131 49.399982 
L 197.578284 49.529011 
L 198.801437 49.482765 
L 201.247743 49.68554 
L 204.917203 49.578415 
L 220.818193 49.856866 
L 223.264499 49.890736 
L 234.272877 49.807305 
L 237.942337 50.002906 
L 241.611796 50.007353 
L 242.834949 50.092286 
L 244.058102 50.007818 
L 245.281256 50.069752 
L 247.727562 49.980848 
L 251.397021 50.137723 
L 267.298012 50.360023 
L 268.521165 50.202331 
L 270.967471 50.166285 
L 280.752696 50.119076 
L 281.975849 50.029343 
L 284.422155 50.130435 
L 289.314768 49.995404 
L 291.761074 50.09017 
L 296.653687 49.966112 
L 297.87684 49.832897 
L 299.099993 49.947056 
L 300.323146 49.8624 
L 302.769452 49.911738 
L 305.215758 49.963062 
L 306.438912 49.813842 
L 328.455668 50.063742 
L 329.678821 49.977281 
L 341.910352 50.168455 
L 351.695577 50.289272 
L 352.91873 50.323599 
L 354.141883 50.188588 
L 360.257649 50.230641 
L 361.480802 50.325459 
L 363.927108 50.2915 
L 370.042874 50.405039 
L 373.712333 50.54225 
L 377.381793 50.583117 
L 381.051252 50.716095 
L 383.497558 50.584478 
L 395.729089 50.63438 
L 401.844855 50.690277 
L 404.291161 50.683325 
L 451.994133 50.867328 
L 456.886745 50.747036 
L 476.457195 50.914008 
L 478.903502 50.844123 
L 482.572961 50.806525 
L 492.358186 50.862613 
L 497.250798 50.908911 
L 504.589717 50.947792 
L 507.036023 50.916615 
L 509.48233 50.828302 
L 515.598095 50.809524 
L 515.598095 50.809524 
" clip-path="url(#pe6025a5864)" style="fill: none; stroke: #4169e1; stroke-width: 1.5; stroke-linecap: square"/>
   </g>
   <g id="line2d_26">
    <path d="M 27.56 97 
L 28.783153 67.045691 
L 30.006306 65.783064 
L 31.229459 73.286339 
L 32.452612 74.651806 
L 33.675766 77.620467 
L 34.898919 71.010124 
L 36.122072 27.254463 
L 37.345225 21.487029 
L 38.568378 23.990846 
L 39.791531 30.520618 
L 41.014684 32.794719 
L 42.237837 36.657938 
L 43.460991 39.599101 
L 44.684144 43.410998 
L 45.907297 46.338243 
L 48.353603 51.276122 
L 49.576756 53.146364 
L 50.799909 44.966954 
L 52.023062 46.688195 
L 53.246216 45.666781 
L 54.469369 35.769949 
L 55.692522 37.768325 
L 56.915675 34.408599 
L 58.138828 36.640967 
L 59.361981 34.301996 
L 60.585134 36.518506 
L 61.808287 36.818148 
L 63.031441 38.678353 
L 64.254594 37.834923 
L 65.477747 39.505903 
L 66.7009 38.615819 
L 67.924053 38.374156 
L 69.147206 40.045217 
L 70.370359 39.965738 
L 71.593512 37.376116 
L 72.816665 38.914404 
L 74.039819 39.246894 
L 76.486125 40.186801 
L 77.709278 40.117231 
L 80.155584 41.441018 
L 81.378737 40.981149 
L 83.825044 42.077778 
L 85.048197 38.112895 
L 86.27135 39.271108 
L 87.494503 39.761922 
L 88.717656 39.04524 
L 89.940809 39.750374 
L 91.163962 38.101105 
L 92.387115 38.771695 
L 93.610269 38.94102 
L 94.833422 39.494194 
L 96.056575 32.102773 
L 97.279728 32.954307 
L 98.502881 32.476525 
L 99.726034 33.029407 
L 102.17234 34.931345 
L 103.395493 35.911434 
L 104.618647 36.5779 
L 105.8418 36.057978 
L 108.288106 37.232355 
L 109.511259 34.482366 
L 110.734412 33.289548 
L 113.180718 35.069001 
L 114.403872 35.736796 
L 115.627025 35.556966 
L 116.850178 34.453158 
L 118.073331 31.56118 
L 119.296484 32.20552 
L 121.74279 33.698627 
L 122.965943 34.229773 
L 124.189097 32.698779 
L 125.41225 33.192033 
L 126.635403 33.487253 
L 127.858556 33.200758 
L 129.081709 33.492075 
L 130.304862 34.238633 
L 131.528015 34.058487 
L 132.751168 34.687402 
L 133.974322 34.540878 
L 135.197475 34.652444 
L 136.420628 33.819824 
L 137.643781 34.375715 
L 138.866934 34.632435 
L 141.31324 35.745555 
L 142.536393 36.066026 
L 143.759546 36.137004 
L 146.205853 35.845058 
L 147.429006 36.41498 
L 148.652159 36.846198 
L 149.875312 35.893944 
L 151.098465 36.035997 
L 154.767925 37.633031 
L 155.991078 37.967826 
L 157.214231 37.329365 
L 158.437384 37.881573 
L 159.660537 35.616893 
L 160.88369 36.103512 
L 162.106843 35.736247 
L 163.329996 36.172954 
L 164.55315 36.163925 
L 165.776303 36.686473 
L 166.999456 36.735658 
L 168.222609 36.366281 
L 170.668915 37.364177 
L 171.892068 37.718287 
L 173.115221 37.178221 
L 174.338375 37.649334 
L 175.561528 37.965058 
L 176.784681 38.136708 
L 178.007834 38.58277 
L 179.230987 38.093234 
L 180.45414 37.770113 
L 181.677293 37.69126 
L 182.900446 38.121509 
L 184.123599 38.16443 
L 186.569906 38.952738 
L 193.908824 41.253671 
L 195.131978 41.283532 
L 196.355131 41.675008 
L 197.578284 41.473834 
L 198.801437 41.790475 
L 200.02459 41.3076 
L 202.470896 41.893211 
L 203.694049 42.081024 
L 208.586662 43.42635 
L 209.809815 43.779213 
L 211.032968 43.178246 
L 214.702427 44.107398 
L 218.371887 45.047946 
L 219.59504 45.176692 
L 220.818193 45.495841 
L 223.264499 45.977987 
L 224.487652 46.285592 
L 226.933959 46.612639 
L 228.157112 46.916817 
L 229.380265 47.044888 
L 230.603418 46.973257 
L 231.826571 47.066449 
L 234.272877 47.642546 
L 235.496031 47.657199 
L 236.719184 47.864332 
L 237.942337 47.905772 
L 241.611796 48.69865 
L 244.058102 48.590588 
L 245.281256 48.68508 
L 246.504409 48.654323 
L 247.727562 48.918176 
L 250.173868 49.003234 
L 252.620174 49.496109 
L 253.843327 49.398135 
L 255.06648 49.485836 
L 256.289634 49.694117 
L 257.512787 49.429386 
L 258.73594 49.673719 
L 261.182246 49.861475 
L 263.628552 50.309834 
L 266.074859 50.585836 
L 267.298012 50.816535 
L 268.521165 49.787357 
L 269.744318 49.977897 
L 270.967471 49.987572 
L 273.413777 50.446371 
L 274.63693 50.375979 
L 275.860084 50.593614 
L 277.083237 50.443708 
L 278.30639 50.638854 
L 279.529543 50.662476 
L 280.752696 50.337825 
L 283.199002 49.984318 
L 288.091615 50.754112 
L 289.314768 50.637854 
L 290.537921 50.372098 
L 294.20738 50.965353 
L 296.653687 50.923289 
L 297.87684 50.120155 
L 299.099993 49.584796 
L 300.323146 49.384621 
L 301.546299 49.313175 
L 305.215758 49.829372 
L 306.438912 48.727067 
L 312.554677 49.592145 
L 315.000983 49.837841 
L 318.670443 50.307792 
L 319.893596 50.317892 
L 322.339902 50.631285 
L 323.563055 50.36 
L 324.786208 50.381219 
L 327.232515 50.695944 
L 328.455668 50.708712 
L 329.678821 50.419546 
L 330.901974 50.55069 
L 332.125127 50.559655 
L 334.571433 50.866175 
L 349.249271 52.484445 
L 351.695577 52.766517 
L 352.91873 52.851409 
L 354.141883 51.761947 
L 355.365036 51.92996 
L 356.58819 51.885567 
L 360.257649 52.306608 
L 361.480802 51.837225 
L 362.703955 51.673301 
L 365.150261 51.917697 
L 366.373414 52.033893 
L 367.596568 51.977628 
L 370.042874 52.210867 
L 372.48918 52.053889 
L 374.935486 52.31614 
L 376.158639 52.253063 
L 377.381793 52.408956 
L 381.051252 52.417564 
L 382.274405 51.741151 
L 388.390171 52.189758 
L 389.613324 51.990969 
L 390.836477 51.224514 
L 395.729089 51.779844 
L 396.952243 51.928651 
L 398.175396 51.828229 
L 399.398549 51.159275 
L 400.621702 50.936059 
L 403.068008 50.96702 
L 404.291161 50.888655 
L 405.514314 51.034538 
L 406.737467 50.866699 
L 409.183774 51.066423 
L 411.63008 50.919575 
L 412.853233 51.044277 
L 414.076386 50.638367 
L 417.745846 51.042376 
L 418.968999 50.790321 
L 420.192152 50.704118 
L 421.415305 50.807395 
L 422.638458 50.547545 
L 428.754224 50.902086 
L 431.20053 50.917505 
L 433.646836 51.107043 
L 436.093142 51.353058 
L 437.316296 51.314097 
L 438.539449 51.137442 
L 442.208908 51.122152 
L 445.878367 51.411879 
L 447.10152 51.251528 
L 450.77098 51.523781 
L 451.994133 51.505583 
L 453.217286 51.34827 
L 454.440439 51.444609 
L 455.663592 51.154693 
L 459.333052 51.46012 
L 460.556205 50.91624 
L 464.225664 51.230543 
L 467.895124 51.023276 
L 472.787736 51.040596 
L 475.234042 51.169116 
L 476.457195 50.898201 
L 477.680348 50.314236 
L 478.903502 50.414292 
L 481.349808 50.338514 
L 482.572961 50.275683 
L 489.91188 50.718081 
L 491.135033 50.51921 
L 493.581339 50.713843 
L 494.804492 50.695956 
L 504.589717 51.539337 
L 505.81287 51.523984 
L 507.036023 51.182446 
L 508.259177 50.653746 
L 511.928636 50.933261 
L 513.151789 50.749849 
L 515.598095 50.809524 
L 515.598095 50.809524 
" clip-path="url(#pe6025a5864)" style="fill: none; stroke-dasharray: 5.55,2.4; stroke-dashoffset: 0; stroke: #4169e1; stroke-width: 1.5"/>
   </g>
   <g id="line2d_27">
    <path d="M 27.56 39.472039 
L 28.783153 51.269665 
L 30.006306 55.648614 
L 31.229459 55.753396 
L 32.452612 53.696282 
L 33.675766 53.762061 
L 34.898919 55.85182 
L 36.122072 50.980339 
L 37.345225 48.470774 
L 38.568378 49.825242 
L 39.791531 49.885077 
L 41.014684 48.965375 
L 42.237837 48.546227 
L 43.460991 49.358842 
L 47.13045 49.691101 
L 48.353603 49.971396 
L 49.576756 50.442988 
L 50.799909 48.792906 
L 52.023062 49.034971 
L 53.246216 48.226126 
L 54.469369 46.90934 
L 55.692522 47.209155 
L 56.915675 48.26697 
L 58.138828 48.3614 
L 59.361981 47.694021 
L 60.585134 47.853372 
L 63.031441 48.497941 
L 64.254594 49.00777 
L 65.477747 49.031659 
L 66.7009 48.51806 
L 67.924053 48.854577 
L 69.147206 48.872794 
L 71.593512 48.259711 
L 72.816665 48.30496 
L 75.262972 48.890148 
L 81.378737 50.386698 
L 83.825044 49.969845 
L 85.048197 49.556546 
L 86.27135 49.584091 
L 87.494503 49.758012 
L 88.717656 50.061141 
L 89.940809 49.800333 
L 91.163962 50.198405 
L 93.610269 50.549858 
L 94.833422 50.402554 
L 96.056575 49.748114 
L 97.279728 49.646784 
L 98.502881 50.04451 
L 99.726034 50.209394 
L 100.949187 50.09901 
L 103.395493 50.153527 
L 104.618647 50.154504 
L 105.8418 50.452458 
L 107.064953 50.361774 
L 108.288106 50.436161 
L 110.734412 49.776702 
L 114.403872 49.657112 
L 116.850178 50.110495 
L 118.073331 49.819377 
L 119.296484 49.681598 
L 121.74279 49.722059 
L 122.965943 49.835873 
L 124.189097 49.511565 
L 126.635403 49.745352 
L 127.858556 49.546098 
L 129.081709 49.653314 
L 130.304862 49.605207 
L 131.528015 49.788195 
L 132.751168 49.795361 
L 133.974322 49.977991 
L 136.420628 49.612421 
L 137.643781 49.683382 
L 140.090087 49.491553 
L 142.536393 49.373615 
L 143.759546 49.203649 
L 147.429006 49.546875 
L 148.652159 49.623887 
L 151.098465 49.246169 
L 155.991078 49.379949 
L 157.214231 49.558584 
L 158.437384 49.551065 
L 159.660537 49.251407 
L 160.88369 49.276272 
L 164.55315 49.632884 
L 165.776303 49.629023 
L 169.445762 49.853005 
L 171.892068 49.918605 
L 173.115221 49.801791 
L 179.230987 49.817614 
L 180.45414 49.705438 
L 181.677293 49.800026 
L 182.900446 49.758481 
L 185.346753 49.884303 
L 186.569906 49.903411 
L 187.793059 49.806411 
L 190.239365 49.855119 
L 198.801437 49.775324 
L 201.247743 49.993842 
L 203.694049 49.867768 
L 223.264499 50.055772 
L 229.380265 49.962444 
L 230.603418 49.873501 
L 233.049724 49.920829 
L 235.496031 49.979064 
L 242.834949 50.194089 
L 244.058102 50.102548 
L 246.504409 50.103807 
L 248.950715 50.148361 
L 253.843327 50.286142 
L 256.289634 50.233953 
L 258.73594 50.337108 
L 262.405399 50.344682 
L 266.074859 50.403796 
L 267.298012 50.412773 
L 268.521165 50.267624 
L 272.190624 50.255524 
L 278.30639 50.203378 
L 279.529543 50.254 
L 281.975849 50.090727 
L 285.645309 50.140944 
L 288.091615 50.120125 
L 289.314768 50.029779 
L 291.761074 50.128186 
L 296.653687 50.031941 
L 297.87684 49.916804 
L 299.099993 50.019825 
L 300.323146 49.958697 
L 302.769452 49.993826 
L 305.215758 50.031884 
L 307.662065 49.914224 
L 312.554677 49.943742 
L 321.116749 50.088498 
L 333.34828 50.118771 
L 344.356658 50.201528 
L 349.249271 50.25882 
L 360.257649 50.264321 
L 361.480802 50.349589 
L 365.150261 50.354953 
L 371.266027 50.508393 
L 377.381793 50.62734 
L 381.051252 50.738132 
L 383.497558 50.600516 
L 398.175396 50.698833 
L 399.398549 50.605744 
L 403.068008 50.747054 
L 405.514314 50.713053 
L 409.183774 50.816692 
L 411.63008 50.826064 
L 421.415305 50.778268 
L 423.861611 50.763195 
L 431.20053 50.787618 
L 434.869989 50.809866 
L 440.985755 50.899786 
L 448.324674 50.942102 
L 460.556205 50.893858 
L 480.126655 50.837262 
L 482.572961 50.824791 
L 507.036023 50.910399 
L 509.48233 50.832055 
L 515.598095 50.809524 
L 515.598095 50.809524 
" clip-path="url(#pe6025a5864)" style="fill: none; stroke: #ff8c00; stroke-width: 1.5; stroke-linecap: square"/>
   </g>
   <g id="line2d_28">
    <path d="M 27.56 97 
L 28.783153 51.376172 
L 30.006306 54.013042 
L 31.229459 64.748985 
L 32.452612 65.650644 
L 33.675766 70.868445 
L 34.898919 66.012459 
L 36.122072 15.432813 
L 37.345225 7.980427 
L 38.568378 11.470079 
L 39.791531 19.23379 
L 41.014684 22.664377 
L 42.237837 27.691438 
L 43.460991 29.828108 
L 44.684144 34.276073 
L 45.907297 38.113257 
L 47.13045 41.500119 
L 48.353603 44.145638 
L 49.576756 45.615222 
L 50.799909 31.226747 
L 52.023062 33.974661 
L 53.246216 32.335925 
L 54.469369 22.64321 
L 55.692522 25.063706 
L 56.915675 19.138118 
L 58.138828 22.059732 
L 59.361981 21.039342 
L 60.585134 23.527486 
L 63.031441 26.518898 
L 64.254594 26.236409 
L 65.477747 28.441972 
L 66.7009 27.75254 
L 67.924053 28.564243 
L 69.147206 30.515852 
L 70.370359 31.621157 
L 71.593512 31.868461 
L 72.816665 33.557616 
L 74.039819 33.663685 
L 75.262972 34.536355 
L 76.486125 34.915024 
L 77.709278 34.702804 
L 80.155584 36.148855 
L 81.378737 35.219234 
L 82.60189 35.802455 
L 83.825044 36.560819 
L 85.048197 35.188309 
L 86.27135 36.437834 
L 87.494503 37.163228 
L 88.717656 36.830491 
L 89.940809 36.850456 
L 91.163962 35.284326 
L 93.610269 36.454469 
L 94.833422 37.144446 
L 96.056575 30.33259 
L 97.279728 31.29018 
L 98.502881 29.396453 
L 99.726034 29.997387 
L 102.17234 31.824659 
L 104.618647 33.856497 
L 105.8418 32.965504 
L 108.288106 34.58467 
L 109.511259 32.863158 
L 110.734412 31.611845 
L 113.180718 33.430606 
L 114.403872 34.033023 
L 115.627025 34.125523 
L 116.850178 33.195029 
L 118.073331 31.990002 
L 119.296484 32.378706 
L 121.74279 33.957039 
L 122.965943 34.423856 
L 124.189097 32.482453 
L 125.41225 33.036256 
L 126.635403 33.313713 
L 127.858556 33.013853 
L 129.081709 33.462837 
L 130.304862 34.14661 
L 131.528015 33.944498 
L 132.751168 34.667826 
L 136.420628 33.884234 
L 137.643781 34.42926 
L 138.866934 34.562699 
L 142.536393 36.227213 
L 143.759546 35.960651 
L 146.205853 35.852551 
L 147.429006 36.390165 
L 148.652159 36.803802 
L 149.875312 35.6431 
L 151.098465 35.536805 
L 153.544771 36.679961 
L 154.767925 37.165463 
L 155.991078 37.375617 
L 157.214231 36.824089 
L 158.437384 37.379291 
L 159.660537 34.747372 
L 160.88369 35.291214 
L 162.106843 34.972732 
L 163.329996 35.374077 
L 164.55315 35.238879 
L 165.776303 35.780091 
L 166.999456 35.861852 
L 168.222609 35.480645 
L 171.892068 36.877609 
L 173.115221 36.846347 
L 175.561528 37.760736 
L 176.784681 37.958222 
L 178.007834 38.408212 
L 179.230987 37.947765 
L 180.45414 37.900829 
L 181.677293 37.996646 
L 182.900446 38.385758 
L 184.123599 38.492708 
L 186.569906 39.319498 
L 187.793059 39.35244 
L 189.016212 39.566775 
L 193.908824 41.137541 
L 195.131978 41.202844 
L 196.355131 41.556477 
L 197.578284 41.499859 
L 198.801437 41.73555 
L 200.02459 40.995775 
L 203.694049 41.593207 
L 209.809815 43.337232 
L 211.032968 42.568526 
L 218.371887 44.33739 
L 219.59504 44.452102 
L 224.487652 45.658657 
L 225.710806 45.650543 
L 226.933959 45.810595 
L 229.380265 46.307001 
L 230.603418 46.180087 
L 233.049724 46.667771 
L 234.272877 46.935932 
L 235.496031 46.865961 
L 236.719184 47.032927 
L 237.942337 47.005952 
L 241.611796 47.815039 
L 242.834949 47.893007 
L 244.058102 47.682703 
L 246.504409 47.994079 
L 247.727562 48.260242 
L 250.173868 48.495838 
L 252.620174 49.018381 
L 253.843327 48.85123 
L 255.06648 48.969549 
L 256.289634 49.223835 
L 257.512787 48.925055 
L 259.959093 49.364508 
L 262.405399 49.75766 
L 264.851705 50.141841 
L 267.298012 50.546832 
L 268.521165 49.42094 
L 269.744318 49.612493 
L 270.967471 49.57715 
L 273.413777 49.954093 
L 274.63693 49.926485 
L 275.860084 50.095502 
L 277.083237 49.945693 
L 278.30639 50.150815 
L 279.529543 50.204097 
L 280.752696 49.858309 
L 281.975849 49.734746 
L 283.199002 49.762775 
L 286.868462 50.386416 
L 288.091615 50.506563 
L 289.314768 50.150239 
L 290.537921 49.933228 
L 294.20738 50.492741 
L 296.653687 50.511985 
L 297.87684 49.761066 
L 299.099993 49.200563 
L 301.546299 49.060127 
L 305.215758 49.562201 
L 306.438912 48.986769 
L 308.885218 49.369466 
L 310.108371 49.399377 
L 317.44729 50.487863 
L 321.116749 50.811907 
L 322.339902 50.998165 
L 323.563055 50.754668 
L 326.009361 50.944051 
L 327.232515 51.131159 
L 328.455668 51.1699 
L 329.678821 50.826937 
L 330.901974 50.900106 
L 332.125127 50.784235 
L 337.01774 51.446369 
L 339.464046 51.595902 
L 344.356658 52.22864 
L 346.802965 52.437926 
L 351.695577 53.000909 
L 352.91873 53.085074 
L 354.141883 52.485904 
L 355.365036 52.6492 
L 356.58819 52.685909 
L 360.257649 53.130636 
L 361.480802 52.640116 
L 363.927108 52.795808 
L 366.373414 53.096966 
L 367.596568 52.97528 
L 370.042874 53.176559 
L 371.266027 52.915904 
L 372.48918 52.884596 
L 379.828099 53.319628 
L 381.051252 53.248456 
L 382.274405 52.462701 
L 383.497558 52.474703 
L 385.943864 52.762745 
L 387.167018 52.672385 
L 388.390171 52.710184 
L 389.613324 52.519683 
L 390.836477 51.708587 
L 394.505936 52.06873 
L 396.952243 52.356419 
L 398.175396 52.181519 
L 399.398549 51.464944 
L 400.621702 51.225793 
L 404.291161 51.149552 
L 405.514314 51.284306 
L 406.737467 51.10012 
L 407.960621 51.120213 
L 409.183774 51.253847 
L 412.853233 51.294546 
L 414.076386 50.968629 
L 417.745846 51.389815 
L 420.192152 51.066857 
L 421.415305 51.192824 
L 422.638458 51.106563 
L 431.20053 51.320555 
L 432.423683 51.290648 
L 436.093142 51.668312 
L 440.985755 51.178502 
L 451.994133 51.774018 
L 453.217286 51.654834 
L 454.440439 51.701453 
L 455.663592 51.503611 
L 459.333052 51.793247 
L 460.556205 51.25447 
L 464.225664 51.570884 
L 465.448817 51.530154 
L 466.67197 51.239586 
L 467.895124 51.319504 
L 469.118277 51.166807 
L 475.234042 51.326033 
L 476.457195 51.017234 
L 477.680348 50.490475 
L 480.126655 50.623887 
L 481.349808 50.414206 
L 482.572961 50.344357 
L 486.24242 50.588942 
L 488.688727 50.722448 
L 489.91188 50.784474 
L 491.135033 50.661389 
L 493.581339 50.770156 
L 497.250798 51.055644 
L 504.589717 51.686269 
L 505.81287 51.694184 
L 507.036023 51.402397 
L 508.259177 50.7478 
L 511.928636 51.032691 
L 513.151789 50.815389 
L 515.598095 50.809524 
L 515.598095 50.809524 
" clip-path="url(#pe6025a5864)" style="fill: none; stroke-dasharray: 5.55,2.4; stroke-dashoffset: 0; stroke: #ff8c00; stroke-width: 1.5"/>
   </g>
   <g id="patch_3">
    <path d="M 27.56 97 
L 27.56 0 
" style="fill: none; stroke: #000000; stroke-width: 0.8; stroke-linejoin: miter; stroke-linecap: square"/>
   </g>
   <g id="patch_4">
    <path d="M 540 97 
L 540 0 
" style="fill: none; stroke: #000000; stroke-width: 0.8; stroke-linejoin: miter; stroke-linecap: square"/>
   </g>
   <g id="patch_5">
    <path d="M 27.56 97 
L 540 97 
" style="fill: none; stroke: #000000; stroke-width: 0.8; stroke-linejoin: miter; stroke-linecap: square"/>
   </g>
   <g id="patch_6">
    <path d="M 27.56 0 
L 540 0 
" style="fill: none; stroke: #000000; stroke-width: 0.8; stroke-linejoin: miter; stroke-linecap: square"/>
   </g>
  </g>
 </g>
 <defs>
  <clipPath id="pe6025a5864">
   <rect x="27.56" y="0" width="512.44" height="97"/>
  </clipPath>
 </defs>
</svg>
