<?xml version="1.0" encoding="utf-8" standalone="no"?>
<!DOCTYPE svg PUBLIC "-//W3C//DTD SVG 1.1//EN"
  "http://www.w3.org/Graphics/SVG/1.1/DTD/svg11.dtd">
<svg xmlns:xlink="http://www.w3.org/1999/xlink" width="540pt" height="129.6pt" viewBox="0 0 540 129.6" xmlns="http://www.w3.org/2000/svg" version="1.1">
 <metadata>
  <rdf:RDF xmlns:dc="http://purl.org/dc/elements/1.1/" xmlns:cc="http://creativecommons.org/ns#" xmlns:rdf="http://www.w3.org/1999/02/22-rdf-syntax-ns#">
   <cc:Work>
    <dc:type rdf:resource="http://purl.org/dc/dcmitype/StillImage"/>
    <dc:date>2025-04-05T18:36:17.938416</dc:date>
    <dc:format>image/svg+xml</dc:format>
    <dc:creator>
     <cc:Agent>
      <dc:title>Matplotlib v3.10.1, https://matplotlib.org/</dc:title>
     </cc:Agent>
    </dc:creator>
   </cc:Work>
  </rdf:RDF>
 </metadata>
 <defs>
  <style type="text/css">*{stroke-linejoin: round; stroke-linecap: butt}</style>
 </defs>
 <g id="figure_1">
  <g id="patch_1">
   <path d="M 0 129.6 
L 540 129.6 
L 540 0 
L 0 0 
z
" style="fill: #ffffff"/>
  </g>
  <g id="axes_1">
   <g id="patch_2">
    <path d="M 34.31 98.44 
L 540 98.44 
L 540 0 
L 34.31 0 
z
" style="fill: #ffffff"/>
   </g>
   <g id="matplotlib.axis_1">
    <g id="xtick_1">
     <g id="line2d_1">
      <path d="M 34.31 98.44 
L 34.31 0 
" clip-path="url(#pa009954a06)" style="fill: none; stroke: #b0b0b0; stroke-width: 0.8; stroke-linecap: square"/>
     </g>
     <g id="line2d_2">
      <defs>
       <path id="mf84df1cc33" d="M 0 0 
L 0 3.5 
" style="stroke: #000000; stroke-width: 0.8"/>
      </defs>
      <g>
       <use xlink:href="#mf84df1cc33" x="34.31" y="98.44" style="stroke: #000000; stroke-width: 0.8"/>
      </g>
     </g>
     <g id="text_1">
      <text style="font-size: 10px; font-family: 'Times New Roman'; text-anchor: middle" x="34.31" y="112.38375" transform="rotate(-0 34.31 112.38375)">0</text>
     </g>
    </g>
    <g id="xtick_2">
     <g id="line2d_3">
      <path d="M 94.662071 98.44 
L 94.662071 0 
" clip-path="url(#pa009954a06)" style="fill: none; stroke: #b0b0b0; stroke-width: 0.8; stroke-linecap: square"/>
     </g>
     <g id="line2d_4">
      <g>
       <use xlink:href="#mf84df1cc33" x="94.662071" y="98.44" style="stroke: #000000; stroke-width: 0.8"/>
      </g>
     </g>
     <g id="text_2">
      <text style="font-size: 10px; font-family: 'Times New Roman'; text-anchor: middle" x="94.662071" y="112.38375" transform="rotate(-0 94.662071 112.38375)">50</text>
     </g>
    </g>
    <g id="xtick_3">
     <g id="line2d_5">
      <path d="M 155.014141 98.44 
L 155.014141 0 
" clip-path="url(#pa009954a06)" style="fill: none; stroke: #b0b0b0; stroke-width: 0.8; stroke-linecap: square"/>
     </g>
     <g id="line2d_6">
      <g>
       <use xlink:href="#mf84df1cc33" x="155.014141" y="98.44" style="stroke: #000000; stroke-width: 0.8"/>
      </g>
     </g>
     <g id="text_3">
      <text style="font-size: 10px; font-family: 'Times New Roman'; text-anchor: middle" x="155.014141" y="112.38375" transform="rotate(-0 155.014141 112.38375)">100</text>
     </g>
    </g>
    <g id="xtick_4">
     <g id="line2d_7">
      <path d="M 215.366212 98.44 
L 215.366212 0 
" clip-path="url(#pa009954a06)" style="fill: none; stroke: #b0b0b0; stroke-width: 0.8; stroke-linecap: square"/>
     </g>
     <g id="line2d_8">
      <g>
       <use xlink:href="#mf84df1cc33" x="215.366212" y="98.44" style="stroke: #000000; stroke-width: 0.8"/>
      </g>
     </g>
     <g id="text_4">
      <text style="font-size: 10px; font-family: 'Times New Roman'; text-anchor: middle" x="215.366212" y="112.38375" transform="rotate(-0 215.366212 112.38375)">150</text>
     </g>
    </g>
    <g id="xtick_5">
     <g id="line2d_9">
      <path d="M 275.718283 98.44 
L 275.718283 0 
" clip-path="url(#pa009954a06)" style="fill: none; stroke: #b0b0b0; stroke-width: 0.8; stroke-linecap: square"/>
     </g>
     <g id="line2d_10">
      <g>
       <use xlink:href="#mf84df1cc33" x="275.718283" y="98.44" style="stroke: #000000; stroke-width: 0.8"/>
      </g>
     </g>
     <g id="text_5">
      <text style="font-size: 10px; font-family: 'Times New Roman'; text-anchor: middle" x="275.718283" y="112.38375" transform="rotate(-0 275.718283 112.38375)">200</text>
     </g>
    </g>
    <g id="xtick_6">
     <g id="line2d_11">
      <path d="M 336.070353 98.44 
L 336.070353 0 
" clip-path="url(#pa009954a06)" style="fill: none; stroke: #b0b0b0; stroke-width: 0.8; stroke-linecap: square"/>
     </g>
     <g id="line2d_12">
      <g>
       <use xlink:href="#mf84df1cc33" x="336.070353" y="98.44" style="stroke: #000000; stroke-width: 0.8"/>
      </g>
     </g>
     <g id="text_6">
      <text style="font-size: 10px; font-family: 'Times New Roman'; text-anchor: middle" x="336.070353" y="112.38375" transform="rotate(-0 336.070353 112.38375)">250</text>
     </g>
    </g>
    <g id="xtick_7">
     <g id="line2d_13">
      <path d="M 396.422424 98.44 
L 396.422424 0 
" clip-path="url(#pa009954a06)" style="fill: none; stroke: #b0b0b0; stroke-width: 0.8; stroke-linecap: square"/>
     </g>
     <g id="line2d_14">
      <g>
       <use xlink:href="#mf84df1cc33" x="396.422424" y="98.44" style="stroke: #000000; stroke-width: 0.8"/>
      </g>
     </g>
     <g id="text_7">
      <text style="font-size: 10px; font-family: 'Times New Roman'; text-anchor: middle" x="396.422424" y="112.38375" transform="rotate(-0 396.422424 112.38375)">300</text>
     </g>
    </g>
    <g id="xtick_8">
     <g id="line2d_15">
      <path d="M 456.774495 98.44 
L 456.774495 0 
" clip-path="url(#pa009954a06)" style="fill: none; stroke: #b0b0b0; stroke-width: 0.8; stroke-linecap: square"/>
     </g>
     <g id="line2d_16">
      <g>
       <use xlink:href="#mf84df1cc33" x="456.774495" y="98.44" style="stroke: #000000; stroke-width: 0.8"/>
      </g>
     </g>
     <g id="text_8">
      <text style="font-size: 10px; font-family: 'Times New Roman'; text-anchor: middle" x="456.774495" y="112.38375" transform="rotate(-0 456.774495 112.38375)">350</text>
     </g>
    </g>
    <g id="xtick_9">
     <g id="line2d_17">
      <path d="M 517.126565 98.44 
L 517.126565 0 
" clip-path="url(#pa009954a06)" style="fill: none; stroke: #b0b0b0; stroke-width: 0.8; stroke-linecap: square"/>
     </g>
     <g id="line2d_18">
      <g>
       <use xlink:href="#mf84df1cc33" x="517.126565" y="98.44" style="stroke: #000000; stroke-width: 0.8"/>
      </g>
     </g>
     <g id="text_9">
      <text style="font-size: 10px; font-family: 'Times New Roman'; text-anchor: middle" x="517.126565" y="112.38375" transform="rotate(-0 517.126565 112.38375)">400</text>
     </g>
    </g>
    <g id="text_10">
     <text style="font-size: 12px; font-family: 'Times New Roman'; text-anchor: middle" x="287.155" y="126.855312" transform="rotate(-0 287.155 126.855312)">Simulation Run</text>
    </g>
   </g>
   <g id="matplotlib.axis_2">
    <g id="ytick_1">
     <g id="line2d_19">
      <path d="M 34.31 98.44 
L 540 98.44 
" clip-path="url(#pa009954a06)" style="fill: none; stroke: #b0b0b0; stroke-width: 0.8; stroke-linecap: square"/>
     </g>
     <g id="line2d_20">
      <defs>
       <path id="m32bbd2ec88" d="M 0 0 
L -3.5 0 
" style="stroke: #000000; stroke-width: 0.8"/>
      </defs>
      <g>
       <use xlink:href="#m32bbd2ec88" x="34.31" y="98.44" style="stroke: #000000; stroke-width: 0.8"/>
      </g>
     </g>
     <g id="text_11">
      <text style="font-size: 10px; font-family: 'Times New Roman'; text-anchor: end" x="27.31" y="101.911875" transform="rotate(-0 27.31 101.911875)">0.0</text>
     </g>
    </g>
    <g id="ytick_2">
     <g id="line2d_21">
      <path d="M 34.31 69.487059 
L 540 69.487059 
" clip-path="url(#pa009954a06)" style="fill: none; stroke: #b0b0b0; stroke-width: 0.8; stroke-linecap: square"/>
     </g>
     <g id="line2d_22">
      <g>
       <use xlink:href="#m32bbd2ec88" x="34.31" y="69.487059" style="stroke: #000000; stroke-width: 0.8"/>
      </g>
     </g>
     <g id="text_12">
      <text style="font-size: 10px; font-family: 'Times New Roman'; text-anchor: end" x="27.31" y="72.958934" transform="rotate(-0 27.31 72.958934)">0.5</text>
     </g>
    </g>
    <g id="ytick_3">
     <g id="line2d_23">
      <path d="M 34.31 40.534118 
L 540 40.534118 
" clip-path="url(#pa009954a06)" style="fill: none; stroke: #b0b0b0; stroke-width: 0.8; stroke-linecap: square"/>
     </g>
     <g id="line2d_24">
      <g>
       <use xlink:href="#m32bbd2ec88" x="34.31" y="40.534118" style="stroke: #000000; stroke-width: 0.8"/>
      </g>
     </g>
     <g id="text_13">
      <text style="font-size: 10px; font-family: 'Times New Roman'; text-anchor: end" x="27.31" y="44.005993" transform="rotate(-0 27.31 44.005993)">1.0</text>
     </g>
    </g>
    <g id="ytick_4">
     <g id="line2d_25">
      <path d="M 34.31 11.581176 
L 540 11.581176 
" clip-path="url(#pa009954a06)" style="fill: none; stroke: #b0b0b0; stroke-width: 0.8; stroke-linecap: square"/>
     </g>
     <g id="line2d_26">
      <g>
       <use xlink:href="#m32bbd2ec88" x="34.31" y="11.581176" style="stroke: #000000; stroke-width: 0.8"/>
      </g>
     </g>
     <g id="text_14">
      <text style="font-size: 10px; font-family: 'Times New Roman'; text-anchor: end" x="27.31" y="15.053051" transform="rotate(-0 27.31 15.053051)">1.5</text>
     </g>
    </g>
    <g id="text_15">
     <text style="font-size: 12px; font-family: 'Times New Roman'; text-anchor: middle" x="8.243125" y="49.22" transform="rotate(-90 8.243125 49.22)">Normalized Value</text>
    </g>
   </g>
   <g id="line2d_27">
    <path d="M 34.31 11.541429 
L 35.517041 32.260989 
L 36.724083 32.981296 
L 37.931124 40.109091 
L 39.138166 45.146572 
L 40.345207 46.033437 
L 41.552248 47.957058 
L 42.75929 47.4828 
L 43.966331 48.380355 
L 45.173373 47.828134 
L 46.380414 48.364542 
L 47.587456 48.077808 
L 48.794497 48.178989 
L 50.001538 46.388093 
L 51.20858 46.275056 
L 52.415621 46.027868 
L 53.622663 46.620076 
L 56.036745 46.985357 
L 57.243787 46.892791 
L 58.450828 45.770635 
L 59.65787 45.469514 
L 60.864911 44.847324 
L 62.071953 45.22973 
L 63.278994 44.092051 
L 64.486035 42.580242 
L 65.693077 43.161847 
L 68.10716 42.653833 
L 69.314201 42.506299 
L 70.521242 41.779528 
L 71.728284 41.41402 
L 72.935325 41.658385 
L 74.142367 40.58916 
L 75.349408 40.866755 
L 76.556449 40.438638 
L 78.970532 40.320488 
L 80.177574 40.099151 
L 82.591657 41.368536 
L 83.798698 40.421233 
L 85.005739 41.359857 
L 86.212781 41.659954 
L 87.419822 41.465664 
L 88.626864 42.160209 
L 89.833905 41.612607 
L 91.040946 41.47731 
L 92.247988 41.472966 
L 94.662071 41.901428 
L 95.869112 42.078011 
L 97.076153 41.110514 
L 99.490236 41.775314 
L 100.697278 41.447049 
L 101.904319 41.638628 
L 103.111361 41.514224 
L 104.318402 41.845092 
L 105.525443 40.78139 
L 106.732485 40.688403 
L 107.939526 40.800906 
L 109.146568 40.371388 
L 110.353609 40.064712 
L 111.56065 40.569526 
L 113.974733 41.095013 
L 116.388816 41.545959 
L 117.595858 41.27904 
L 121.216982 41.568123 
L 122.424023 41.522068 
L 123.631065 41.591785 
L 124.838106 41.225315 
L 127.252189 41.428278 
L 130.873313 42.214395 
L 132.080354 42.094291 
L 133.287396 42.164051 
L 134.494437 42.083589 
L 135.701479 42.180423 
L 138.115562 42.226757 
L 141.736686 42.588982 
L 144.150769 42.660317 
L 146.564851 42.256147 
L 148.978934 41.886316 
L 151.393017 42.163732 
L 152.600058 41.823807 
L 153.8071 42.016544 
L 155.014141 41.963934 
L 156.221183 42.067366 
L 157.428224 41.796977 
L 158.635266 41.957128 
L 159.842307 41.934518 
L 161.049348 42.054463 
L 162.25639 41.907244 
L 163.463431 41.921078 
L 164.670473 41.534405 
L 168.291597 41.458566 
L 169.498638 41.406312 
L 170.70568 41.517183 
L 171.912721 41.290217 
L 174.326804 41.487916 
L 176.740887 41.034394 
L 177.947928 41.125702 
L 181.569052 41.100768 
L 182.776094 41.270752 
L 186.397218 41.180692 
L 187.604259 40.977023 
L 188.811301 40.967457 
L 190.018342 40.769147 
L 191.225384 40.727735 
L 192.432425 40.853806 
L 193.639467 40.706108 
L 196.053549 40.837649 
L 198.467632 40.862106 
L 204.502839 41.6098 
L 205.709881 41.532396 
L 206.916922 41.623369 
L 208.123963 41.379857 
L 209.331005 41.353634 
L 210.538046 41.502448 
L 211.745088 41.45212 
L 212.952129 41.662094 
L 215.366212 41.582243 
L 217.780295 41.464996 
L 218.987336 41.523887 
L 226.229585 41.181713 
L 227.436626 41.274307 
L 228.643668 41.100161 
L 232.264792 41.145704 
L 233.471833 41.213778 
L 234.678875 40.933322 
L 235.885916 40.877857 
L 238.299999 41.08415 
L 239.50704 41.051037 
L 241.921123 40.535082 
L 243.128164 40.389854 
L 246.749289 40.496227 
L 247.95633 40.558634 
L 250.370413 40.357576 
L 255.198579 40.720215 
L 256.40562 40.616716 
L 260.026744 40.888354 
L 261.233786 40.772511 
L 264.85491 41.030859 
L 275.718283 40.761923 
L 278.132365 40.820098 
L 282.960531 40.959891 
L 284.167573 40.77535 
L 287.788697 40.782323 
L 290.20278 40.907816 
L 291.409821 40.835319 
L 292.616862 40.939801 
L 293.823904 40.873002 
L 295.030945 40.950774 
L 297.445028 40.898457 
L 299.859111 40.95066 
L 301.066152 40.854518 
L 302.273194 40.904441 
L 303.480235 40.778513 
L 304.687277 40.889169 
L 307.101359 40.77359 
L 310.722484 40.861664 
L 311.929525 40.800926 
L 313.136566 40.854337 
L 320.378815 40.493645 
L 323.999939 40.619295 
L 326.414022 40.723413 
L 327.621063 40.638687 
L 328.828105 40.745173 
L 334.863312 40.472334 
L 339.691478 40.383894 
L 343.312602 40.242791 
L 344.519643 40.269175 
L 345.726685 40.132124 
L 348.140767 40.161509 
L 349.347809 40.003527 
L 356.590057 40.305242 
L 357.797099 40.193858 
L 363.832306 40.350734 
L 371.074554 40.260734 
L 374.695678 39.997399 
L 378.316803 40.022346 
L 380.730886 40.066391 
L 385.559051 40.172106 
L 391.594258 40.161872 
L 394.008341 40.066315 
L 408.492838 40.153239 
L 410.906921 39.852935 
L 416.942128 39.828906 
L 419.356211 39.895627 
L 421.770294 39.834746 
L 426.598459 39.902026 
L 430.219583 39.862738 
L 449.532246 40.239007 
L 451.946329 40.216945 
L 455.567453 40.36882 
L 457.981536 40.402683 
L 460.395619 40.309833 
L 466.430826 40.457227 
L 468.844909 40.470581 
L 476.087157 40.528949 
L 485.743488 40.721418 
L 494.192778 40.824766 
L 496.606861 40.625944 
L 497.813903 40.537012 
L 499.020944 40.610356 
L 500.227985 40.527188 
L 503.84911 40.609691 
L 506.263193 40.512573 
L 507.470234 40.562486 
L 509.884317 40.516795 
L 514.712482 40.617448 
L 515.919524 40.534118 
L 515.919524 40.534118 
" clip-path="url(#pa009954a06)" style="fill: none; stroke: #4169e1; stroke-width: 1.5; stroke-linecap: square"/>
   </g>
   <g id="line2d_28">
    <path d="M 34.31 98.44 
L 35.517041 19.922668 
L 36.724083 45.905324 
L 37.931124 31.162624 
L 39.138166 26.053257 
L 40.345207 37.398448 
L 41.552248 42.058029 
L 42.75929 48.817815 
L 45.173373 57.179425 
L 47.587456 63.408381 
L 48.794497 66.080652 
L 50.001538 60.766184 
L 51.20858 63.245055 
L 52.415621 65.27711 
L 53.622663 66.201571 
L 54.829704 67.900773 
L 57.243787 70.807901 
L 58.450828 67.517536 
L 59.65787 68.574841 
L 60.864911 68.315665 
L 62.071953 68.955696 
L 63.278994 64.453668 
L 64.486035 55.310311 
L 65.693077 55.299162 
L 68.10716 57.628404 
L 69.314201 58.873343 
L 70.521242 57.251536 
L 71.728284 57.781217 
L 72.935325 58.663815 
L 74.142367 52.93359 
L 75.349408 53.754586 
L 76.556449 53.82258 
L 78.970532 56.1225 
L 80.177574 56.867083 
L 81.384615 55.18159 
L 82.591657 53.133168 
L 85.005739 41.900071 
L 86.212781 42.476805 
L 87.419822 43.416652 
L 88.626864 40.642558 
L 89.833905 39.349432 
L 92.247988 41.606984 
L 93.455029 42.157093 
L 95.869112 43.763678 
L 97.076153 35.8929 
L 98.283195 36.252087 
L 99.490236 35.973958 
L 100.697278 36.005452 
L 101.904319 36.724879 
L 103.111361 37.62759 
L 104.318402 37.497012 
L 105.525443 26.303256 
L 107.939526 28.395682 
L 109.146568 27.415515 
L 110.353609 27.441582 
L 111.56065 25.550909 
L 112.767692 25.723586 
L 113.974733 26.081152 
L 115.181775 26.776272 
L 117.595858 26.981195 
L 118.802899 27.858817 
L 120.00994 28.58456 
L 123.631065 31.254583 
L 124.838106 30.296373 
L 126.045147 31.121135 
L 127.252189 31.719322 
L 128.45923 31.318976 
L 130.873313 31.234812 
L 133.287396 32.570103 
L 138.115562 35.293632 
L 139.322603 35.690225 
L 140.529644 36.323211 
L 141.736686 36.630953 
L 142.943727 37.307146 
L 144.150769 37.851682 
L 145.35781 37.399176 
L 146.564851 37.675853 
L 147.771893 37.801197 
L 148.978934 37.759388 
L 151.393017 38.322045 
L 152.600058 36.858215 
L 153.8071 36.801411 
L 155.014141 37.36107 
L 156.221183 37.76226 
L 157.428224 36.987466 
L 158.635266 37.095184 
L 159.842307 37.669696 
L 161.049348 37.966716 
L 162.25639 38.111707 
L 163.463431 38.666557 
L 164.670473 36.261579 
L 168.291597 37.870395 
L 169.498638 38.350476 
L 170.70568 38.623526 
L 171.912721 38.069601 
L 173.119763 38.485431 
L 174.326804 38.654717 
L 175.533845 37.740766 
L 176.740887 37.422893 
L 177.947928 37.74991 
L 181.569052 39.208042 
L 182.776094 39.0357 
L 185.190177 39.978404 
L 186.397218 40.262358 
L 187.604259 39.753359 
L 188.811301 40.206151 
L 190.018342 39.726237 
L 191.225384 40.133658 
L 192.432425 40.19456 
L 193.639467 40.10584 
L 196.053549 40.750941 
L 198.467632 41.475661 
L 199.674674 41.264575 
L 200.881715 41.214975 
L 202.088756 41.467127 
L 204.502839 40.455933 
L 206.916922 40.890287 
L 208.123963 39.725444 
L 209.331005 40.109362 
L 210.538046 39.914817 
L 211.745088 40.242159 
L 212.952129 39.439316 
L 214.159171 39.826898 
L 216.573253 40.153341 
L 218.987336 40.78546 
L 221.401419 41.388028 
L 222.60846 41.230154 
L 225.022543 41.688084 
L 227.436626 41.837156 
L 228.643668 41.29354 
L 232.264792 42.244054 
L 233.471833 42.442738 
L 234.678875 40.390005 
L 235.885916 40.641577 
L 237.092957 40.453171 
L 238.299999 40.620834 
L 239.50704 40.924865 
L 240.714082 38.315587 
L 241.921123 37.286873 
L 243.128164 36.970976 
L 244.335206 37.317362 
L 245.542247 37.489126 
L 246.749289 37.820664 
L 247.95633 38.035141 
L 249.163372 37.795299 
L 250.370413 37.981303 
L 251.577454 37.883039 
L 252.784496 37.901234 
L 253.991537 38.193264 
L 256.40562 38.032751 
L 258.819703 38.225359 
L 262.440827 37.987658 
L 264.85491 38.168085 
L 267.268993 38.690999 
L 269.683076 38.916981 
L 272.097158 39.498964 
L 273.3042 38.952544 
L 275.718283 39.539123 
L 276.925324 39.658813 
L 280.546448 40.498331 
L 282.960531 40.794493 
L 284.167573 39.782314 
L 287.788697 40.534035 
L 288.995738 40.430886 
L 290.20278 40.67549 
L 291.409821 40.740667 
L 292.616862 40.581765 
L 298.652069 41.079905 
L 299.859111 41.314762 
L 301.066152 41.198468 
L 302.273194 41.353962 
L 303.480235 40.96203 
L 304.687277 40.715831 
L 307.101359 40.946722 
L 313.136566 41.789032 
L 314.343608 41.843472 
L 315.550649 42.085167 
L 316.757691 41.116284 
L 317.964732 41.338165 
L 319.171773 41.047241 
L 321.585856 41.523814 
L 322.792898 41.424745 
L 323.999939 41.621048 
L 325.206981 41.55877 
L 326.414022 41.77138 
L 327.621063 41.684587 
L 328.828105 41.41021 
L 330.035146 41.444304 
L 331.242188 41.213232 
L 332.449229 41.424267 
L 333.65627 40.871512 
L 338.484436 41.739593 
L 339.691478 41.822352 
L 340.898519 41.737953 
L 342.10556 41.956057 
L 343.312602 41.956719 
L 344.519643 42.142927 
L 345.726685 41.473975 
L 348.140767 41.859276 
L 349.347809 40.883834 
L 350.55485 40.967906 
L 351.761892 40.777582 
L 355.383016 41.277729 
L 356.590057 41.303355 
L 357.797099 40.907647 
L 360.211182 41.064682 
L 361.418223 41.028666 
L 363.832306 41.334092 
L 367.45343 41.847826 
L 369.867513 42.225316 
L 373.488637 41.345896 
L 374.695678 41.329277 
L 375.90272 41.469055 
L 380.730886 41.535896 
L 384.35201 41.771621 
L 385.559051 41.736232 
L 386.766093 41.914372 
L 387.973134 41.637996 
L 389.180175 41.517167 
L 391.594258 41.885885 
L 392.8013 41.611138 
L 401.25059 42.849144 
L 403.664672 43.075223 
L 404.871714 43.252273 
L 406.078755 42.893537 
L 407.285797 43.071155 
L 408.492838 43.118626 
L 409.699879 41.470714 
L 410.906921 40.814885 
L 416.942128 41.61715 
L 418.149169 41.579017 
L 419.356211 41.754783 
L 422.977335 42.037943 
L 424.184376 42.204496 
L 426.598459 41.928402 
L 432.633666 42.347662 
L 433.840708 42.242796 
L 435.047749 42.41151 
L 436.254791 42.412801 
L 437.461832 42.559315 
L 442.289998 42.190581 
L 443.497039 41.731305 
L 444.70408 41.823289 
L 445.911122 41.546804 
L 449.532246 41.984189 
L 450.739288 41.947262 
L 451.946329 42.035832 
L 453.15337 41.733062 
L 456.774495 41.884635 
L 457.981536 42.022236 
L 459.188577 41.882516 
L 461.60266 42.040164 
L 462.809702 41.98894 
L 465.223784 42.262038 
L 466.430826 41.975072 
L 474.880116 42.555425 
L 476.087157 42.449918 
L 478.50124 42.598482 
L 479.708281 42.30753 
L 483.329406 42.65732 
L 486.95053 43.060707 
L 488.157571 43.041295 
L 491.778696 43.302235 
L 492.985737 43.227214 
L 494.192778 43.327042 
L 495.39982 41.893377 
L 496.606861 41.87548 
L 497.813903 41.466946 
L 500.227985 40.895245 
L 502.642068 40.962826 
L 503.84911 41.109529 
L 505.056151 40.649454 
L 506.263193 40.795168 
L 507.470234 40.763231 
L 508.677275 40.538017 
L 511.091358 40.72753 
L 512.2984 40.711518 
L 514.712482 40.897003 
L 515.919524 40.534118 
L 515.919524 40.534118 
" clip-path="url(#pa009954a06)" style="fill: none; stroke-dasharray: 5.55,2.4; stroke-dashoffset: 0; stroke: #4169e1; stroke-width: 1.5"/>
   </g>
   <g id="line2d_29">
    <path d="M 34.31 19.510477 
L 35.517041 34.447418 
L 36.724083 34.002567 
L 39.138166 44.730883 
L 40.345207 45.005563 
L 41.552248 46.212801 
L 42.75929 45.583767 
L 43.966331 45.292306 
L 45.173373 44.678421 
L 46.380414 45.247259 
L 47.587456 44.786562 
L 48.794497 44.800322 
L 50.001538 44.131601 
L 51.20858 44.150177 
L 52.415621 43.643505 
L 53.622663 44.115414 
L 56.036745 44.461556 
L 57.243787 44.511659 
L 58.450828 43.695838 
L 59.65787 43.515019 
L 60.864911 43.11687 
L 62.071953 43.599083 
L 64.486035 41.397852 
L 65.693077 41.820916 
L 66.900118 41.760503 
L 68.10716 41.401119 
L 69.314201 41.241114 
L 70.521242 40.767306 
L 71.728284 40.494246 
L 72.935325 40.785565 
L 74.142367 40.026985 
L 75.349408 40.180476 
L 77.763491 39.821705 
L 78.970532 40.044636 
L 80.177574 39.639052 
L 81.384615 40.068871 
L 82.591657 40.652258 
L 83.798698 40.013179 
L 85.005739 40.871669 
L 86.212781 41.12131 
L 87.419822 40.882174 
L 88.626864 41.487921 
L 89.833905 41.163741 
L 91.040946 41.088792 
L 92.247988 41.148385 
L 95.869112 41.612916 
L 97.076153 40.914122 
L 98.283195 41.049243 
L 99.490236 41.324741 
L 100.697278 41.071096 
L 101.904319 41.228571 
L 103.111361 41.003386 
L 104.318402 41.268475 
L 105.525443 40.547322 
L 106.732485 40.495799 
L 107.939526 40.573044 
L 110.353609 40.061605 
L 111.56065 40.473779 
L 116.388816 41.23907 
L 117.595858 41.051575 
L 121.216982 41.311933 
L 122.424023 41.243206 
L 123.631065 41.320759 
L 124.838106 41.090795 
L 127.252189 41.216592 
L 129.666272 41.650164 
L 130.873313 41.846198 
L 132.080354 41.736832 
L 133.287396 41.830559 
L 136.90852 41.726098 
L 139.322603 41.798877 
L 144.150769 42.116921 
L 146.564851 41.778152 
L 147.771893 41.722654 
L 148.978934 41.524234 
L 151.393017 41.728566 
L 152.600058 41.469902 
L 153.8071 41.640622 
L 155.014141 41.554406 
L 156.221183 41.658601 
L 157.428224 41.442656 
L 158.635266 41.574448 
L 159.842307 41.488228 
L 161.049348 41.569793 
L 163.463431 41.516185 
L 164.670473 41.234955 
L 170.70568 41.357846 
L 171.912721 41.173151 
L 174.326804 41.337964 
L 176.740887 41.018868 
L 186.397218 41.085813 
L 187.604259 40.963956 
L 188.811301 40.979141 
L 190.018342 40.785457 
L 191.225384 40.756959 
L 192.432425 40.849153 
L 193.639467 40.676559 
L 197.260591 40.797574 
L 199.674674 40.97867 
L 204.502839 41.460773 
L 205.709881 41.35238 
L 206.916922 41.436228 
L 208.123963 41.300993 
L 209.331005 41.3122 
L 210.538046 41.448169 
L 211.745088 41.45968 
L 212.952129 41.645057 
L 215.366212 41.577902 
L 221.401419 41.48039 
L 226.229585 41.243006 
L 227.436626 41.311351 
L 228.643668 41.154507 
L 231.05775 41.185224 
L 233.471833 41.22673 
L 234.678875 40.950757 
L 235.885916 40.892179 
L 238.299999 41.039077 
L 239.50704 41.045419 
L 243.128164 40.538519 
L 249.163372 40.535274 
L 251.577454 40.59236 
L 255.198579 40.757169 
L 256.40562 40.688528 
L 260.026744 40.874158 
L 261.233786 40.771731 
L 264.85491 40.947589 
L 280.546448 40.732867 
L 282.960531 40.81246 
L 284.167573 40.680496 
L 317.964732 40.616095 
L 320.378815 40.575953 
L 323.999939 40.674387 
L 326.414022 40.760163 
L 327.621063 40.686442 
L 328.828105 40.775354 
L 337.277395 40.554343 
L 339.691478 40.514963 
L 343.312602 40.405171 
L 348.140767 40.361406 
L 349.347809 40.226676 
L 361.418223 40.481795 
L 365.039347 40.453977 
L 372.281596 40.31888 
L 374.695678 40.190023 
L 378.316803 40.192378 
L 380.730886 40.22558 
L 383.144968 40.297526 
L 384.35201 40.223631 
L 386.766093 40.288025 
L 387.973134 40.212125 
L 390.387217 40.295076 
L 400.043548 40.241537 
L 408.492838 40.290147 
L 410.906921 40.079171 
L 422.977335 40.116253 
L 427.805501 40.098701 
L 430.219583 40.078882 
L 441.082956 40.232952 
L 442.289998 40.286192 
L 444.70408 40.235233 
L 447.118163 40.323855 
L 494.192778 40.804515 
L 496.606861 40.640198 
L 497.813903 40.576156 
L 500.227985 40.590827 
L 503.84911 40.647887 
L 506.263193 40.573721 
L 508.677275 40.539261 
L 515.919524 40.534118 
L 515.919524 40.534118 
" clip-path="url(#pa009954a06)" style="fill: none; stroke: #ff8c00; stroke-width: 1.5; stroke-linecap: square"/>
   </g>
   <g id="line2d_30">
    <path d="M 34.31 98.44 
L 35.517041 32.112022 
L 36.724083 54.103687 
L 37.931124 37.582997 
L 39.138166 18.033146 
L 40.345207 31.322139 
L 42.75929 45.003516 
L 43.966331 50.73887 
L 45.173373 54.50068 
L 46.380414 57.533217 
L 48.794497 63.185221 
L 50.001538 63.97517 
L 51.20858 66.271389 
L 53.622663 67.91922 
L 57.243787 72.188858 
L 58.450828 69.481657 
L 59.65787 70.593829 
L 60.864911 70.767751 
L 62.071953 70.33083 
L 64.486035 55.175534 
L 65.693077 55.394485 
L 66.900118 56.902529 
L 68.10716 57.259755 
L 69.314201 58.411714 
L 70.521242 57.700779 
L 71.728284 58.286731 
L 72.935325 58.696148 
L 74.142367 54.219743 
L 75.349408 55.245046 
L 76.556449 55.882757 
L 77.763491 56.862141 
L 78.970532 57.409638 
L 80.177574 56.60339 
L 81.384615 55.507361 
L 82.591657 52.507368 
L 83.798698 48.622876 
L 85.005739 40.579176 
L 87.419822 41.623787 
L 88.626864 37.950191 
L 89.833905 37.800051 
L 92.247988 40.147589 
L 93.455029 40.885417 
L 94.662071 41.81991 
L 95.869112 42.423698 
L 97.076153 35.931853 
L 98.283195 36.801742 
L 99.490236 36.703999 
L 100.697278 36.7545 
L 101.904319 37.423858 
L 103.111361 37.616592 
L 104.318402 37.435821 
L 105.525443 29.330756 
L 107.939526 31.405298 
L 109.146568 30.716423 
L 110.353609 31.002422 
L 111.56065 28.807596 
L 112.767692 28.995677 
L 113.974733 29.371765 
L 115.181775 30.006449 
L 116.388816 29.912923 
L 117.595858 30.170767 
L 123.631065 33.951064 
L 124.838106 33.620486 
L 126.045147 34.442382 
L 127.252189 35.051425 
L 128.45923 34.190034 
L 129.666272 34.348264 
L 130.873313 34.225561 
L 133.287396 35.274198 
L 139.322603 38.548134 
L 140.529644 38.985823 
L 141.736686 39.080459 
L 142.943727 39.681326 
L 144.150769 39.925204 
L 145.35781 39.321683 
L 146.564851 39.508401 
L 147.771893 40.04266 
L 148.978934 39.539061 
L 150.185976 39.941998 
L 151.393017 40.12556 
L 152.600058 38.76533 
L 153.8071 38.504296 
L 156.221183 39.134725 
L 157.428224 38.296474 
L 158.635266 38.342928 
L 161.049348 39.041501 
L 163.463431 40.04995 
L 164.670473 38.0463 
L 167.084555 39.090879 
L 170.70568 40.237498 
L 171.912721 39.587534 
L 174.326804 40.125436 
L 175.533845 39.423908 
L 176.740887 39.292907 
L 181.569052 41.148952 
L 182.776094 41.106614 
L 185.190177 42.013795 
L 186.397218 42.014675 
L 187.604259 41.894865 
L 188.811301 42.324424 
L 190.018342 41.31745 
L 191.225384 41.722113 
L 192.432425 41.820776 
L 193.639467 41.077518 
L 196.053549 41.599552 
L 197.260591 42.01608 
L 198.467632 42.280871 
L 200.881715 41.925644 
L 202.088756 42.289138 
L 203.295798 41.719275 
L 204.502839 40.757765 
L 205.709881 40.665161 
L 206.916922 40.7675 
L 208.123963 40.382326 
L 209.331005 40.774568 
L 210.538046 40.364422 
L 211.745088 40.751034 
L 212.952129 39.626222 
L 214.159171 40.002485 
L 215.366212 40.059234 
L 218.987336 41.121876 
L 223.815502 42.00858 
L 225.022543 41.728733 
L 227.436626 42.029827 
L 228.643668 41.200604 
L 229.850709 41.513292 
L 231.05775 41.69183 
L 233.471833 42.31134 
L 234.678875 38.888931 
L 235.885916 39.073045 
L 237.092957 38.826963 
L 239.50704 39.451795 
L 240.714082 37.629596 
L 243.128164 36.018722 
L 247.95633 37.328541 
L 249.163372 37.265304 
L 250.370413 37.576905 
L 251.577454 37.569586 
L 252.784496 37.721158 
L 253.991537 38.000336 
L 256.40562 38.089 
L 260.026744 38.414968 
L 261.233786 38.146209 
L 263.647868 38.203072 
L 267.268993 38.94347 
L 268.476034 39.073305 
L 269.683076 39.072058 
L 272.097158 39.625046 
L 273.3042 38.841574 
L 275.718283 39.359022 
L 276.925324 39.342757 
L 282.960531 40.518731 
L 284.167573 39.725534 
L 286.581655 40.206864 
L 287.788697 40.442709 
L 288.995738 40.302342 
L 290.20278 40.574688 
L 292.616862 40.534545 
L 293.823904 40.62133 
L 295.030945 40.515225 
L 296.237987 40.55252 
L 297.445028 40.811802 
L 299.859111 41.094258 
L 303.480235 40.389744 
L 304.687277 40.085562 
L 305.894318 40.049003 
L 311.929525 41.077219 
L 313.136566 41.131998 
L 314.343608 41.039802 
L 315.550649 41.194123 
L 316.757691 40.979102 
L 317.964732 41.194816 
L 319.171773 41.219686 
L 321.585856 41.677822 
L 322.792898 41.57641 
L 323.999939 41.777948 
L 325.206981 41.743508 
L 326.414022 41.933469 
L 327.621063 41.77244 
L 328.828105 41.4303 
L 330.035146 41.528114 
L 331.242188 41.492266 
L 332.449229 41.721783 
L 333.65627 41.609236 
L 338.484436 42.39435 
L 339.691478 42.464433 
L 340.898519 42.307105 
L 342.10556 42.50794 
L 343.312602 42.497516 
L 344.519643 42.699476 
L 345.726685 42.433156 
L 348.140767 42.83105 
L 349.347809 41.634844 
L 350.55485 41.777452 
L 351.761892 41.722672 
L 355.383016 42.252501 
L 356.590057 42.309936 
L 357.797099 41.986417 
L 362.625264 42.114889 
L 369.867513 43.131975 
L 372.281596 42.922774 
L 373.488637 42.515533 
L 375.90272 42.662315 
L 377.109761 42.741653 
L 378.316803 42.557588 
L 379.523844 42.700208 
L 380.730886 42.607172 
L 383.144968 42.768452 
L 384.35201 42.489004 
L 385.559051 42.512941 
L 386.766093 42.667805 
L 389.180175 42.11563 
L 391.594258 42.456006 
L 392.8013 42.216249 
L 398.836507 43.051022 
L 401.25059 43.372285 
L 402.457631 43.400655 
L 404.871714 43.728266 
L 406.078755 43.176798 
L 407.285797 43.344188 
L 408.492838 43.298842 
L 409.699879 41.948715 
L 410.906921 41.498411 
L 413.321004 41.75883 
L 415.735087 42.019151 
L 416.942128 42.181575 
L 418.149169 42.036138 
L 421.770294 42.472335 
L 424.184376 42.7097 
L 426.598459 42.421729 
L 427.805501 42.449926 
L 429.012542 42.341568 
L 431.426625 42.565594 
L 432.633666 42.713481 
L 433.840708 42.651079 
L 435.047749 42.799981 
L 436.254791 42.812587 
L 437.461832 42.970969 
L 438.668873 42.964156 
L 442.289998 42.271563 
L 443.497039 41.772998 
L 444.70408 41.847006 
L 445.911122 41.330522 
L 451.946329 42.048657 
L 453.15337 41.647534 
L 456.774495 41.727654 
L 457.981536 41.881375 
L 462.809702 41.812203 
L 465.223784 42.078949 
L 466.430826 41.782626 
L 476.087157 42.472115 
L 478.50124 42.592973 
L 479.708281 42.271305 
L 482.122364 42.504949 
L 484.536447 42.727484 
L 488.157571 43.074538 
L 489.364613 43.171629 
L 490.571654 43.100329 
L 491.778696 43.234117 
L 492.985737 43.09145 
L 494.192778 43.22622 
L 495.39982 41.637412 
L 496.606861 41.595931 
L 499.020944 41.045705 
L 501.435027 40.977893 
L 503.84911 41.2135 
L 505.056151 40.839825 
L 506.263193 40.980749 
L 507.470234 40.97232 
L 508.677275 40.531104 
L 511.091358 40.791804 
L 512.2984 40.700167 
L 514.712482 40.959901 
L 515.919524 40.534118 
L 515.919524 40.534118 
" clip-path="url(#pa009954a06)" style="fill: none; stroke-dasharray: 5.55,2.4; stroke-dashoffset: 0; stroke: #ff8c00; stroke-width: 1.5"/>
   </g>
   <g id="patch_3">
    <path d="M 34.31 98.44 
L 34.31 0 
" style="fill: none; stroke: #000000; stroke-width: 0.8; stroke-linejoin: miter; stroke-linecap: square"/>
   </g>
   <g id="patch_4">
    <path d="M 540 98.44 
L 540 0 
" style="fill: none; stroke: #000000; stroke-width: 0.8; stroke-linejoin: miter; stroke-linecap: square"/>
   </g>
   <g id="patch_5">
    <path d="M 34.31 98.44 
L 540 98.44 
" style="fill: none; stroke: #000000; stroke-width: 0.8; stroke-linejoin: miter; stroke-linecap: square"/>
   </g>
   <g id="patch_6">
    <path d="M 34.31 0 
L 540 0 
" style="fill: none; stroke: #000000; stroke-width: 0.8; stroke-linejoin: miter; stroke-linecap: square"/>
   </g>
  </g>
 </g>
 <defs>
  <clipPath id="pa009954a06">
   <rect x="34.31" y="0" width="505.69" height="98.44"/>
  </clipPath>
 </defs>
</svg>
