<?xml version="1.0" encoding="utf-8" standalone="no"?>
<!DOCTYPE svg PUBLIC "-//W3C//DTD SVG 1.1//EN"
  "http://www.w3.org/Graphics/SVG/1.1/DTD/svg11.dtd">
<svg xmlns:xlink="http://www.w3.org/1999/xlink" width="540pt" height="129.6pt" viewBox="0 0 540 129.6" xmlns="http://www.w3.org/2000/svg" version="1.1">
 <metadata>
  <rdf:RDF xmlns:dc="http://purl.org/dc/elements/1.1/" xmlns:cc="http://creativecommons.org/ns#" xmlns:rdf="http://www.w3.org/1999/02/22-rdf-syntax-ns#">
   <cc:Work>
    <dc:type rdf:resource="http://purl.org/dc/dcmitype/StillImage"/>
    <dc:date>2025-03-30T22:04:21.078170</dc:date>
    <dc:format>image/svg+xml</dc:format>
    <dc:creator>
     <cc:Agent>
      <dc:title>Matplotlib v3.10.1, https://matplotlib.org/</dc:title>
     </cc:Agent>
    </dc:creator>
   </cc:Work>
  </rdf:RDF>
 </metadata>
 <defs>
  <style type="text/css">*{stroke-linejoin: round; stroke-linecap: butt}</style>
 </defs>
 <g id="figure_1">
  <g id="patch_1">
   <path d="M 0 129.6 
L 540 129.6 
L 540 0 
L 0 0 
z
" style="fill: #ffffff"/>
  </g>
  <g id="axes_1">
   <g id="patch_2">
    <path d="M 35.12 97 
L 540 97 
L 540 3.96 
L 35.12 3.96 
z
" style="fill: #ffffff"/>
   </g>
   <g id="matplotlib.axis_1">
    <g id="xtick_1">
     <g id="line2d_1">
      <path d="M 35.12 97 
L 35.12 3.96 
" clip-path="url(#p69264a2a38)" style="fill: none; stroke: #b0b0b0; stroke-width: 0.8; stroke-linecap: square"/>
     </g>
     <g id="line2d_2">
      <defs>
       <path id="ma9163ebe62" d="M 0 0 
L 0 3.5 
" style="stroke: #000000; stroke-width: 0.8"/>
      </defs>
      <g>
       <use xlink:href="#ma9163ebe62" x="35.12" y="97" style="stroke: #000000; stroke-width: 0.8"/>
      </g>
     </g>
     <g id="text_1">
      <text style="font-size: 10px; font-family: 'Times New Roman'; text-anchor: middle" x="35.12" y="110.94375" transform="rotate(-0 35.12 110.94375)">0</text>
     </g>
    </g>
    <g id="xtick_2">
     <g id="line2d_3">
      <path d="M 95.3754 97 
L 95.3754 3.96 
" clip-path="url(#p69264a2a38)" style="fill: none; stroke: #b0b0b0; stroke-width: 0.8; stroke-linecap: square"/>
     </g>
     <g id="line2d_4">
      <g>
       <use xlink:href="#ma9163ebe62" x="95.3754" y="97" style="stroke: #000000; stroke-width: 0.8"/>
      </g>
     </g>
     <g id="text_2">
      <text style="font-size: 10px; font-family: 'Times New Roman'; text-anchor: middle" x="95.3754" y="110.94375" transform="rotate(-0 95.3754 110.94375)">50</text>
     </g>
    </g>
    <g id="xtick_3">
     <g id="line2d_5">
      <path d="M 155.630801 97 
L 155.630801 3.96 
" clip-path="url(#p69264a2a38)" style="fill: none; stroke: #b0b0b0; stroke-width: 0.8; stroke-linecap: square"/>
     </g>
     <g id="line2d_6">
      <g>
       <use xlink:href="#ma9163ebe62" x="155.630801" y="97" style="stroke: #000000; stroke-width: 0.8"/>
      </g>
     </g>
     <g id="text_3">
      <text style="font-size: 10px; font-family: 'Times New Roman'; text-anchor: middle" x="155.630801" y="110.94375" transform="rotate(-0 155.630801 110.94375)">100</text>
     </g>
    </g>
    <g id="xtick_4">
     <g id="line2d_7">
      <path d="M 215.886201 97 
L 215.886201 3.96 
" clip-path="url(#p69264a2a38)" style="fill: none; stroke: #b0b0b0; stroke-width: 0.8; stroke-linecap: square"/>
     </g>
     <g id="line2d_8">
      <g>
       <use xlink:href="#ma9163ebe62" x="215.886201" y="97" style="stroke: #000000; stroke-width: 0.8"/>
      </g>
     </g>
     <g id="text_4">
      <text style="font-size: 10px; font-family: 'Times New Roman'; text-anchor: middle" x="215.886201" y="110.94375" transform="rotate(-0 215.886201 110.94375)">150</text>
     </g>
    </g>
    <g id="xtick_5">
     <g id="line2d_9">
      <path d="M 276.141602 97 
L 276.141602 3.96 
" clip-path="url(#p69264a2a38)" style="fill: none; stroke: #b0b0b0; stroke-width: 0.8; stroke-linecap: square"/>
     </g>
     <g id="line2d_10">
      <g>
       <use xlink:href="#ma9163ebe62" x="276.141602" y="97" style="stroke: #000000; stroke-width: 0.8"/>
      </g>
     </g>
     <g id="text_5">
      <text style="font-size: 10px; font-family: 'Times New Roman'; text-anchor: middle" x="276.141602" y="110.94375" transform="rotate(-0 276.141602 110.94375)">200</text>
     </g>
    </g>
    <g id="xtick_6">
     <g id="line2d_11">
      <path d="M 336.397002 97 
L 336.397002 3.96 
" clip-path="url(#p69264a2a38)" style="fill: none; stroke: #b0b0b0; stroke-width: 0.8; stroke-linecap: square"/>
     </g>
     <g id="line2d_12">
      <g>
       <use xlink:href="#ma9163ebe62" x="336.397002" y="97" style="stroke: #000000; stroke-width: 0.8"/>
      </g>
     </g>
     <g id="text_6">
      <text style="font-size: 10px; font-family: 'Times New Roman'; text-anchor: middle" x="336.397002" y="110.94375" transform="rotate(-0 336.397002 110.94375)">250</text>
     </g>
    </g>
    <g id="xtick_7">
     <g id="line2d_13">
      <path d="M 396.652402 97 
L 396.652402 3.96 
" clip-path="url(#p69264a2a38)" style="fill: none; stroke: #b0b0b0; stroke-width: 0.8; stroke-linecap: square"/>
     </g>
     <g id="line2d_14">
      <g>
       <use xlink:href="#ma9163ebe62" x="396.652402" y="97" style="stroke: #000000; stroke-width: 0.8"/>
      </g>
     </g>
     <g id="text_7">
      <text style="font-size: 10px; font-family: 'Times New Roman'; text-anchor: middle" x="396.652402" y="110.94375" transform="rotate(-0 396.652402 110.94375)">300</text>
     </g>
    </g>
    <g id="xtick_8">
     <g id="line2d_15">
      <path d="M 456.907803 97 
L 456.907803 3.96 
" clip-path="url(#p69264a2a38)" style="fill: none; stroke: #b0b0b0; stroke-width: 0.8; stroke-linecap: square"/>
     </g>
     <g id="line2d_16">
      <g>
       <use xlink:href="#ma9163ebe62" x="456.907803" y="97" style="stroke: #000000; stroke-width: 0.8"/>
      </g>
     </g>
     <g id="text_8">
      <text style="font-size: 10px; font-family: 'Times New Roman'; text-anchor: middle" x="456.907803" y="110.94375" transform="rotate(-0 456.907803 110.94375)">350</text>
     </g>
    </g>
    <g id="xtick_9">
     <g id="line2d_17">
      <path d="M 517.163203 97 
L 517.163203 3.96 
" clip-path="url(#p69264a2a38)" style="fill: none; stroke: #b0b0b0; stroke-width: 0.8; stroke-linecap: square"/>
     </g>
     <g id="line2d_18">
      <g>
       <use xlink:href="#ma9163ebe62" x="517.163203" y="97" style="stroke: #000000; stroke-width: 0.8"/>
      </g>
     </g>
     <g id="text_9">
      <text style="font-size: 10px; font-family: 'Times New Roman'; text-anchor: middle" x="517.163203" y="110.94375" transform="rotate(-0 517.163203 110.94375)">400</text>
     </g>
    </g>
    <g id="text_10">
     <text style="font-size: 12px; font-family: 'Times New Roman'; text-anchor: middle" x="287.56" y="125.415312" transform="rotate(-0 287.56 125.415312)">Simulation Run</text>
    </g>
   </g>
   <g id="matplotlib.axis_2">
    <g id="ytick_1">
     <g id="line2d_19">
      <path d="M 35.12 97 
L 540 97 
" clip-path="url(#p69264a2a38)" style="fill: none; stroke: #b0b0b0; stroke-width: 0.8; stroke-linecap: square"/>
     </g>
     <g id="line2d_20">
      <defs>
       <path id="m0ccb1cbbb9" d="M 0 0 
L -3.5 0 
" style="stroke: #000000; stroke-width: 0.8"/>
      </defs>
      <g>
       <use xlink:href="#m0ccb1cbbb9" x="35.12" y="97" style="stroke: #000000; stroke-width: 0.8"/>
      </g>
     </g>
     <g id="text_11">
      <text style="font-size: 10px; font-family: 'Times New Roman'; text-anchor: end" x="28.12" y="100.471875" transform="rotate(-0 28.12 100.471875)">0.0</text>
     </g>
    </g>
    <g id="ytick_2">
     <g id="line2d_21">
      <path d="M 35.12 65.986667 
L 540 65.986667 
" clip-path="url(#p69264a2a38)" style="fill: none; stroke: #b0b0b0; stroke-width: 0.8; stroke-linecap: square"/>
     </g>
     <g id="line2d_22">
      <g>
       <use xlink:href="#m0ccb1cbbb9" x="35.12" y="65.986667" style="stroke: #000000; stroke-width: 0.8"/>
      </g>
     </g>
     <g id="text_12">
      <text style="font-size: 10px; font-family: 'Times New Roman'; text-anchor: end" x="28.12" y="69.458542" transform="rotate(-0 28.12 69.458542)">0.5</text>
     </g>
    </g>
    <g id="ytick_3">
     <g id="line2d_23">
      <path d="M 35.12 34.973333 
L 540 34.973333 
" clip-path="url(#p69264a2a38)" style="fill: none; stroke: #b0b0b0; stroke-width: 0.8; stroke-linecap: square"/>
     </g>
     <g id="line2d_24">
      <g>
       <use xlink:href="#m0ccb1cbbb9" x="35.12" y="34.973333" style="stroke: #000000; stroke-width: 0.8"/>
      </g>
     </g>
     <g id="text_13">
      <text style="font-size: 10px; font-family: 'Times New Roman'; text-anchor: end" x="28.12" y="38.445208" transform="rotate(-0 28.12 38.445208)">1.0</text>
     </g>
    </g>
    <g id="ytick_4">
     <g id="line2d_25">
      <path d="M 35.12 3.96 
L 540 3.96 
" clip-path="url(#p69264a2a38)" style="fill: none; stroke: #b0b0b0; stroke-width: 0.8; stroke-linecap: square"/>
     </g>
     <g id="line2d_26">
      <g>
       <use xlink:href="#m0ccb1cbbb9" x="35.12" y="3.96" style="stroke: #000000; stroke-width: 0.8"/>
      </g>
     </g>
     <g id="text_14">
      <text style="font-size: 10px; font-family: 'Times New Roman'; text-anchor: end" x="28.12" y="7.431875" transform="rotate(-0 28.12 7.431875)">1.5</text>
     </g>
    </g>
    <g id="text_15">
     <text style="font-size: 12px; font-family: 'Times New Roman'; text-anchor: middle" x="9.053125" y="50.48" transform="rotate(-90 9.053125 50.48)">Normalized Value</text>
    </g>
   </g>
   <g id="line2d_27">
    <path d="M 35.12 15.731512 
L 36.325108 19.526652 
L 37.530216 28.712073 
L 38.735324 31.954075 
L 39.940432 36.621433 
L 41.14554 36.560386 
L 42.350648 40.697408 
L 43.555756 41.904801 
L 44.760864 42.827145 
L 45.965972 43.926934 
L 47.17108 44.586998 
L 48.376188 42.585532 
L 49.581296 40.197137 
L 50.786404 39.431297 
L 51.991512 40.263194 
L 53.19662 39.144661 
L 54.401728 38.746853 
L 55.606836 36.799418 
L 56.811944 35.432069 
L 58.017052 36.051571 
L 59.22216 36.088741 
L 60.427268 35.849033 
L 61.632376 36.484009 
L 62.837484 34.631262 
L 64.042592 35.056413 
L 65.2477 33.719874 
L 66.452808 32.594935 
L 67.657916 33.279944 
L 68.863024 33.810125 
L 70.068132 34.031229 
L 72.478348 34.74097 
L 73.683456 34.396046 
L 74.888564 34.694897 
L 76.093672 35.197038 
L 77.29878 35.015324 
L 78.503888 35.582977 
L 79.708996 34.768757 
L 80.914104 35.096454 
L 82.119212 35.688428 
L 83.32432 35.489821 
L 84.529428 35.645063 
L 86.939644 34.970454 
L 88.144752 34.773875 
L 89.34986 34.897581 
L 90.554968 34.559647 
L 91.760076 34.062336 
L 92.965184 33.811402 
L 94.170292 34.122299 
L 95.3754 33.915586 
L 96.580508 33.441141 
L 97.785616 32.456774 
L 98.990724 32.633965 
L 100.195832 32.651094 
L 101.40094 32.515069 
L 102.606048 31.802015 
L 103.811156 31.961867 
L 105.016264 32.358874 
L 106.221372 32.479444 
L 107.42648 32.926488 
L 108.631588 33.49502 
L 109.836697 33.680188 
L 112.246913 33.534949 
L 114.657129 33.884951 
L 115.862237 33.942449 
L 117.067345 33.614223 
L 118.272453 33.731064 
L 119.477561 33.72922 
L 120.682669 33.878155 
L 121.887777 34.176364 
L 123.092885 34.665013 
L 124.297993 34.682833 
L 125.503101 34.820771 
L 126.708209 34.726542 
L 127.913317 34.815503 
L 132.733749 34.638008 
L 135.143965 34.855845 
L 136.349073 35.25486 
L 137.554181 34.683438 
L 138.759289 34.621122 
L 143.579721 35.072659 
L 144.784829 35.339358 
L 147.195045 35.403333 
L 148.400153 35.052007 
L 150.810369 35.24298 
L 152.015477 35.59752 
L 153.220585 35.712438 
L 156.835909 35.564491 
L 158.041017 35.750174 
L 159.246125 35.75149 
L 161.656341 35.995724 
L 162.861449 35.726484 
L 164.066557 35.149668 
L 165.271665 35.118784 
L 167.681881 35.678267 
L 168.886989 35.174143 
L 171.297205 35.358889 
L 172.502313 35.138074 
L 174.912529 35.476355 
L 176.117637 35.488913 
L 177.322745 35.654076 
L 179.732961 35.775364 
L 182.143177 35.473204 
L 183.348285 35.497937 
L 184.553393 35.254131 
L 185.758501 35.355595 
L 188.168717 34.990882 
L 189.373825 35.032155 
L 190.578933 34.857924 
L 195.399365 35.203006 
L 196.604473 35.134741 
L 197.809581 35.291622 
L 199.014689 35.261663 
L 200.219797 35.494933 
L 202.630013 35.71401 
L 205.040229 35.757816 
L 211.065769 36.028167 
L 212.270877 36.152589 
L 213.475985 35.986568 
L 214.681093 36.103157 
L 215.886201 35.944345 
L 217.091309 35.973923 
L 218.296417 36.168732 
L 220.706633 36.275208 
L 223.116849 36.361582 
L 224.321957 36.120569 
L 225.527065 35.997001 
L 226.732173 36.097815 
L 227.937281 36.055291 
L 230.347497 36.329468 
L 232.757713 36.098903 
L 233.962821 36.032971 
L 235.167929 36.223361 
L 236.373037 36.115231 
L 237.578145 36.149567 
L 241.193469 35.679537 
L 242.398577 35.592845 
L 243.603685 35.328401 
L 247.219009 35.082291 
L 248.424117 35.052786 
L 250.834333 35.229817 
L 252.039441 35.156097 
L 254.449657 35.429302 
L 255.654765 35.234681 
L 256.859873 35.240029 
L 258.064982 35.120441 
L 259.27009 35.209568 
L 260.475198 35.080415 
L 266.500738 35.546981 
L 270.116062 35.346648 
L 271.32117 35.432611 
L 278.551818 35.144363 
L 280.962034 35.244483 
L 285.782466 34.92386 
L 294.218222 34.979558 
L 296.628438 35.07841 
L 297.833546 34.911987 
L 301.44887 34.810013 
L 305.064194 35.043319 
L 307.47441 34.917371 
L 313.49995 34.870979 
L 321.935706 35.281716 
L 323.140814 35.09735 
L 327.961246 35.323971 
L 329.166354 35.198251 
L 336.397002 35.400329 
L 337.60211 35.232958 
L 338.807218 35.261769 
L 340.012326 35.178831 
L 341.217434 35.232081 
L 342.422542 34.98791 
L 344.832758 35.124759 
L 346.037866 35.044377 
L 352.063406 35.31196 
L 354.473622 35.402281 
L 355.67873 35.233004 
L 359.294054 35.524791 
L 367.72981 35.648496 
L 370.140026 35.389635 
L 374.960458 35.459962 
L 376.165566 35.571743 
L 379.78089 35.54388 
L 382.191106 35.549021 
L 383.396214 35.33907 
L 394.242186 35.5024 
L 399.062618 35.309292 
L 401.472834 35.354485 
L 403.88305 35.430892 
L 405.088158 35.388133 
L 406.293266 35.220005 
L 408.703483 35.149439 
L 414.729023 35.057171 
L 420.754563 35.26975 
L 423.164779 35.294391 
L 425.574995 34.905974 
L 430.395427 34.825539 
L 437.626075 34.880948 
L 438.831183 34.909071 
L 440.036291 34.814634 
L 442.446507 34.922963 
L 443.651615 34.768028 
L 448.472047 34.90426 
L 449.677155 34.814558 
L 453.292479 34.959737 
L 458.112911 34.955639 
L 461.728235 35.02631 
L 464.138451 34.955805 
L 466.548667 35.001901 
L 470.163991 34.784706 
L 471.369099 34.832533 
L 472.574207 34.759922 
L 473.779315 34.85872 
L 477.394639 34.735077 
L 481.009963 34.786431 
L 483.420179 34.797383 
L 494.266151 35.094834 
L 496.676367 35.203444 
L 501.496799 35.139273 
L 508.727447 35.168544 
L 513.547879 35.083899 
L 515.958095 34.973333 
L 515.958095 34.973333 
" clip-path="url(#p69264a2a38)" style="fill: none; stroke: #4169e1; stroke-width: 1.5; stroke-linecap: square"/>
   </g>
   <g id="line2d_28">
    <path d="M 35.12 97 
L 36.325108 94.781813 
L 37.530216 69.533349 
L 38.735324 71.543883 
L 39.940432 63.215352 
L 41.14554 68.843257 
L 42.350648 57.050644 
L 43.555756 60.472728 
L 44.760864 63.483175 
L 45.965972 65.158358 
L 47.17108 67.382065 
L 48.376188 63.063949 
L 49.581296 55.132098 
L 50.786404 56.948407 
L 51.991512 58.126371 
L 53.19662 57.665751 
L 54.401728 59.58958 
L 55.606836 51.738665 
L 56.811944 48.937935 
L 58.017052 50.218034 
L 59.22216 52.441491 
L 60.427268 54.281043 
L 61.632376 54.772299 
L 62.837484 44.372666 
L 64.042592 45.809661 
L 65.2477 40.900778 
L 66.452808 37.911262 
L 67.657916 38.070389 
L 68.863024 38.890314 
L 70.068132 40.608964 
L 71.27324 41.698714 
L 72.478348 42.96084 
L 74.888564 45.116622 
L 76.093672 45.278707 
L 77.29878 46.537422 
L 78.503888 46.11474 
L 79.708996 43.676125 
L 80.914104 44.414955 
L 82.119212 43.624774 
L 84.529428 45.777068 
L 85.734536 45.997332 
L 86.939644 46.610373 
L 89.34986 48.439004 
L 90.554968 48.663188 
L 91.760076 47.880028 
L 92.965184 48.416996 
L 94.170292 48.659248 
L 95.3754 49.278064 
L 96.580508 48.427793 
L 97.785616 41.584278 
L 98.990724 42.354224 
L 100.195832 43.345343 
L 101.40094 44.146735 
L 102.606048 40.688922 
L 103.811156 41.435489 
L 105.016264 40.969378 
L 106.221372 41.771131 
L 107.42648 40.829832 
L 108.631588 38.699235 
L 109.836697 39.297253 
L 112.246913 40.968966 
L 113.452021 41.293816 
L 115.862237 42.75103 
L 117.067345 42.409018 
L 120.682669 44.300018 
L 121.887777 44.035847 
L 123.092885 42.067111 
L 124.297993 42.795931 
L 126.708209 43.882984 
L 130.323533 45.740483 
L 132.733749 46.921779 
L 135.143965 47.813837 
L 136.349073 46.33282 
L 137.554181 42.647576 
L 139.964397 43.714016 
L 141.169505 44.174551 
L 142.374613 44.758494 
L 144.784829 43.886535 
L 147.195045 44.948614 
L 148.400153 43.709658 
L 150.810369 44.538763 
L 152.015477 43.196309 
L 153.220585 43.540462 
L 156.835909 44.954955 
L 158.041017 44.918641 
L 159.246125 45.419396 
L 160.451233 45.473783 
L 161.656341 45.858746 
L 162.861449 45.153318 
L 164.066557 40.150594 
L 165.271665 40.656284 
L 166.476773 39.977194 
L 167.681881 39.035689 
L 168.886989 35.208713 
L 171.297205 35.998322 
L 172.502313 35.672707 
L 173.707421 35.473475 
L 174.912529 35.671095 
L 176.117637 36.18799 
L 177.322745 36.203284 
L 178.527853 36.703355 
L 179.732961 37.008053 
L 180.938069 36.848586 
L 182.143177 37.088176 
L 183.348285 37.559748 
L 184.553393 36.900127 
L 185.758501 37.178924 
L 188.168717 36.82214 
L 189.373825 37.255053 
L 190.578933 37.111534 
L 191.784041 37.394069 
L 194.194257 38.132802 
L 195.399365 38.211388 
L 196.604473 38.55069 
L 197.809581 38.468768 
L 199.014689 38.877204 
L 200.219797 38.150283 
L 202.630013 38.478346 
L 205.040229 39.166091 
L 209.860661 40.631257 
L 211.065769 40.38534 
L 212.270877 40.417396 
L 213.475985 40.168893 
L 214.681093 40.235843 
L 215.886201 40.029119 
L 217.091309 40.383582 
L 218.296417 39.865236 
L 219.501525 40.236067 
L 220.706633 40.346943 
L 223.116849 40.979015 
L 224.321957 39.929083 
L 225.527065 39.916473 
L 226.732173 40.024371 
L 227.937281 40.333698 
L 229.142389 40.413102 
L 230.347497 40.041332 
L 231.552605 39.884724 
L 233.962821 40.264059 
L 235.167929 39.677102 
L 236.373037 39.717598 
L 237.578145 40.026043 
L 238.783253 39.618782 
L 239.988361 38.212227 
L 241.193469 38.5049 
L 242.398577 38.643944 
L 243.603685 37.116136 
L 244.808793 37.084371 
L 248.424117 37.842479 
L 249.629225 37.73513 
L 252.039441 38.169002 
L 253.244549 38.225127 
L 254.449657 37.684821 
L 255.654765 36.939667 
L 256.859873 37.263507 
L 258.064982 37.177208 
L 259.27009 37.269567 
L 260.475198 37.106891 
L 261.680306 37.160659 
L 262.885414 36.883853 
L 264.090522 37.186143 
L 265.29563 37.059069 
L 267.705846 37.339915 
L 268.910954 37.01164 
L 270.116062 37.315327 
L 272.526278 37.582883 
L 273.731386 37.336832 
L 274.936494 37.621165 
L 276.141602 37.460804 
L 280.962034 38.256269 
L 282.167142 38.229747 
L 283.37225 37.453322 
L 285.782466 37.948207 
L 288.192682 38.506124 
L 289.39779 38.615194 
L 290.602898 38.886479 
L 291.808006 38.585452 
L 295.42333 38.513462 
L 296.628438 38.780978 
L 297.833546 38.116935 
L 299.038654 38.306206 
L 300.243762 38.250805 
L 301.44887 38.450843 
L 302.653978 38.467231 
L 303.859086 38.00855 
L 305.064194 38.270272 
L 306.269302 38.123984 
L 313.49995 39.559613 
L 318.320382 40.02203 
L 319.52549 40.044464 
L 320.730598 40.281707 
L 321.935706 40.207394 
L 323.140814 39.192899 
L 324.345922 39.333794 
L 325.55103 39.250138 
L 326.756138 39.479716 
L 327.961246 39.36724 
L 329.166354 39.008539 
L 330.371462 39.206528 
L 331.57657 38.795141 
L 336.397002 39.543599 
L 337.60211 38.688728 
L 338.807218 38.886992 
L 340.012326 38.847758 
L 341.217434 38.964884 
L 342.422542 36.850207 
L 344.832758 36.942312 
L 348.448082 36.954482 
L 353.268514 37.61219 
L 354.473622 37.65551 
L 355.67873 36.703901 
L 356.883838 36.395485 
L 358.088946 36.457739 
L 359.294054 36.133681 
L 362.909378 36.77963 
L 364.114486 36.647377 
L 367.72981 37.250862 
L 368.934918 36.455299 
L 370.140026 36.200676 
L 371.345134 36.417199 
L 372.550242 36.340435 
L 374.960458 36.767647 
L 376.165566 36.435147 
L 378.575782 36.686052 
L 379.78089 36.73479 
L 382.191106 37.146004 
L 383.396214 35.390494 
L 387.011538 35.993703 
L 388.216646 36.033271 
L 389.421754 36.222053 
L 390.626862 36.284909 
L 391.83197 36.483417 
L 395.447294 36.613304 
L 396.652402 35.609859 
L 397.85751 35.777024 
L 399.062618 35.770509 
L 400.267726 35.96829 
L 402.677942 36.118527 
L 405.088158 36.391983 
L 406.293266 35.247295 
L 407.498375 35.443212 
L 408.703483 35.344128 
L 409.908591 35.507675 
L 411.113699 35.307968 
L 412.318807 35.365508 
L 413.523915 35.207902 
L 415.934131 35.25651 
L 418.344347 35.541121 
L 421.959671 35.723857 
L 423.164779 35.903435 
L 424.369887 33.145499 
L 425.574995 32.292295 
L 429.190319 32.733314 
L 431.600535 33.067224 
L 432.805643 32.97536 
L 436.420967 33.434376 
L 438.831183 33.756642 
L 440.036291 33.482816 
L 441.241399 33.447931 
L 442.446507 33.540004 
L 443.651615 32.473383 
L 447.266939 32.791441 
L 448.472047 32.808935 
L 450.882263 32.396677 
L 452.087371 32.409927 
L 458.112911 33.262879 
L 459.318019 33.320217 
L 461.728235 33.646916 
L 462.933343 33.566976 
L 465.343559 33.809835 
L 466.548667 33.985786 
L 467.753775 33.647192 
L 470.163991 33.585261 
L 471.369099 33.632433 
L 472.574207 33.511775 
L 473.779315 33.138531 
L 476.189531 33.052967 
L 478.599747 33.306136 
L 481.009963 33.453516 
L 487.035503 33.967627 
L 488.240611 33.66558 
L 491.855935 34.060899 
L 493.061043 34.16249 
L 496.676367 34.073713 
L 501.496799 34.530625 
L 502.701907 34.667558 
L 503.907015 34.591877 
L 509.932555 35.282793 
L 511.137663 35.433579 
L 512.342771 35.008785 
L 513.547879 35.155263 
L 514.752987 34.854306 
L 515.958095 34.973333 
L 515.958095 34.973333 
" clip-path="url(#p69264a2a38)" style="fill: none; stroke-dasharray: 5.55,2.4; stroke-dashoffset: 0; stroke: #4169e1; stroke-width: 1.5"/>
   </g>
   <g id="line2d_29">
    <path d="M 35.12 13.399874 
L 36.325108 17.737063 
L 37.530216 26.391793 
L 38.735324 29.800663 
L 39.940432 34.106664 
L 41.14554 34.074212 
L 42.350648 37.627084 
L 43.555756 38.803601 
L 44.760864 39.504715 
L 45.965972 40.585966 
L 47.17108 40.87711 
L 48.376188 39.312529 
L 49.581296 37.448232 
L 50.786404 37.294902 
L 51.991512 38.099032 
L 54.401728 37.290078 
L 55.606836 35.292279 
L 56.811944 34.153624 
L 58.017052 34.72115 
L 60.427268 34.648499 
L 61.632376 35.402777 
L 62.837484 33.877876 
L 64.042592 34.317604 
L 66.452808 32.231225 
L 68.863024 33.284153 
L 70.068132 33.450833 
L 71.27324 33.797479 
L 72.478348 34.021448 
L 73.683456 33.822562 
L 74.888564 34.052386 
L 76.093672 34.569673 
L 77.29878 34.523479 
L 78.503888 34.958995 
L 79.708996 34.222027 
L 80.914104 34.494059 
L 82.119212 35.046276 
L 83.32432 34.87838 
L 84.529428 35.004917 
L 86.939644 34.587565 
L 88.144752 34.3962 
L 89.34986 34.563957 
L 90.554968 34.301459 
L 91.760076 33.897058 
L 92.965184 33.675184 
L 94.170292 33.937512 
L 95.3754 33.769278 
L 96.580508 33.230749 
L 97.785616 32.550576 
L 98.990724 32.76252 
L 100.195832 32.771113 
L 101.40094 32.649397 
L 102.606048 32.164003 
L 107.42648 33.129958 
L 108.631588 33.686246 
L 109.836697 33.880222 
L 112.246913 33.703546 
L 113.452021 33.946948 
L 115.862237 33.963443 
L 117.067345 33.697227 
L 118.272453 33.783469 
L 119.477561 33.727813 
L 121.887777 34.106496 
L 123.092885 34.517661 
L 125.503101 34.656193 
L 126.708209 34.582134 
L 127.913317 34.657221 
L 132.733749 34.498121 
L 135.143965 34.712635 
L 136.349073 35.031847 
L 137.554181 34.65632 
L 139.964397 34.626422 
L 143.579721 34.93486 
L 144.784829 35.162412 
L 147.195045 35.240744 
L 148.400153 34.877629 
L 149.605261 34.925447 
L 150.810369 35.099775 
L 152.015477 35.393819 
L 154.425693 35.471707 
L 156.835909 35.339703 
L 159.246125 35.567868 
L 161.656341 35.728563 
L 162.861449 35.513154 
L 164.066557 35.061333 
L 165.271665 35.002451 
L 167.681881 35.463887 
L 168.886989 35.080039 
L 171.297205 35.254231 
L 172.502313 35.025674 
L 174.912529 35.226706 
L 176.117637 35.218338 
L 178.527853 35.408012 
L 179.732961 35.484906 
L 182.143177 35.263176 
L 183.348285 35.307981 
L 184.553393 35.118542 
L 185.758501 35.153387 
L 188.168717 34.871376 
L 189.373825 34.894517 
L 190.578933 34.753626 
L 195.399365 35.037029 
L 196.604473 34.940923 
L 197.809581 35.076838 
L 199.014689 35.032596 
L 201.424905 35.33059 
L 205.040229 35.454548 
L 211.065769 35.578758 
L 212.270877 35.724867 
L 213.475985 35.603961 
L 214.681093 35.68377 
L 215.886201 35.554248 
L 217.091309 35.585548 
L 218.296417 35.741438 
L 223.116849 35.876631 
L 225.527065 35.61039 
L 226.732173 35.697115 
L 229.142389 35.749444 
L 230.347497 35.902618 
L 232.757713 35.700121 
L 233.962821 35.684701 
L 235.167929 35.832995 
L 236.373037 35.743034 
L 238.783253 35.704986 
L 239.988361 35.502924 
L 242.398577 35.377579 
L 244.808793 35.088077 
L 248.424117 34.957303 
L 250.834333 35.117672 
L 252.039441 35.077857 
L 254.449657 35.306343 
L 256.859873 35.175039 
L 258.064982 35.079514 
L 259.27009 35.131222 
L 260.475198 35.033136 
L 266.500738 35.374894 
L 270.116062 35.235299 
L 272.526278 35.296757 
L 273.731386 35.160984 
L 274.936494 35.159994 
L 277.34671 35.010127 
L 282.167142 35.016619 
L 284.577358 34.789972 
L 294.218222 34.726346 
L 296.628438 34.828047 
L 297.833546 34.665492 
L 301.44887 34.609516 
L 305.064194 34.801765 
L 307.47441 34.659774 
L 314.705058 34.730263 
L 321.935706 35.046682 
L 323.140814 34.90408 
L 327.961246 35.109358 
L 329.166354 35.007301 
L 341.217434 35.086981 
L 342.422542 34.889302 
L 354.473622 35.232462 
L 355.67873 35.074642 
L 359.294054 35.336104 
L 368.934918 35.298638 
L 371.345134 35.236977 
L 373.75535 35.305825 
L 374.960458 35.293967 
L 376.165566 35.393542 
L 379.78089 35.363798 
L 382.191106 35.386082 
L 383.396214 35.26584 
L 396.652402 35.209335 
L 400.267726 35.231487 
L 405.088158 35.29374 
L 406.293266 35.14809 
L 408.703483 35.075281 
L 414.729023 34.983949 
L 421.959671 35.205211 
L 423.164779 35.19027 
L 425.574995 34.913348 
L 431.600535 34.837981 
L 434.010751 34.890247 
L 450.882263 34.944801 
L 453.292479 35.005924 
L 458.112911 34.989287 
L 461.728235 35.031778 
L 465.343559 34.980378 
L 468.958883 34.898615 
L 472.574207 34.825902 
L 473.779315 34.912822 
L 477.394639 34.80211 
L 485.830395 34.92068 
L 490.650827 34.996197 
L 499.086583 35.113323 
L 502.701907 35.136888 
L 505.112123 35.086161 
L 513.547879 35.061618 
L 515.958095 34.973333 
L 515.958095 34.973333 
" clip-path="url(#p69264a2a38)" style="fill: none; stroke: #ff8c00; stroke-width: 1.5; stroke-linecap: square"/>
   </g>
   <g id="line2d_30">
    <path d="M 35.12 97 
L 36.325108 92.652908 
L 37.530216 59.482563 
L 38.735324 60.805833 
L 39.940432 50.905471 
L 41.14554 58.586675 
L 42.350648 46.572094 
L 44.760864 54.87921 
L 45.965972 56.659768 
L 47.17108 60.131178 
L 48.376188 56.980987 
L 49.581296 50.42123 
L 50.786404 53.677657 
L 51.991512 54.473805 
L 54.401728 58.342219 
L 55.606836 44.810289 
L 56.811944 42.164005 
L 58.017052 43.491615 
L 60.427268 48.343782 
L 61.632376 47.56681 
L 62.837484 37.267251 
L 64.042592 38.584154 
L 65.2477 33.915072 
L 66.452808 30.335761 
L 67.657916 30.675003 
L 68.863024 31.465644 
L 70.068132 33.463936 
L 71.27324 34.68043 
L 73.683456 37.816399 
L 74.888564 39.154294 
L 76.093672 38.704584 
L 77.29878 40.306641 
L 78.503888 40.260951 
L 79.708996 37.110208 
L 80.914104 37.996005 
L 82.119212 36.72279 
L 84.529428 39.187062 
L 85.734536 39.930698 
L 88.144752 41.818755 
L 89.34986 42.725693 
L 90.554968 43.147995 
L 91.760076 42.49366 
L 92.965184 43.059977 
L 94.170292 43.359542 
L 95.3754 44.08429 
L 96.580508 41.683922 
L 97.785616 37.168261 
L 98.990724 37.726083 
L 100.195832 38.802869 
L 101.40094 39.653809 
L 102.606048 37.610869 
L 103.811156 37.868889 
L 105.016264 37.969554 
L 106.221372 38.767345 
L 107.42648 38.036548 
L 108.631588 34.625321 
L 109.836697 35.076294 
L 112.246913 36.752912 
L 113.452021 36.775842 
L 115.862237 38.544019 
L 117.067345 38.277528 
L 119.477561 39.76465 
L 120.682669 40.242466 
L 121.887777 40.064312 
L 123.092885 37.981791 
L 129.118425 41.334439 
L 130.323533 41.820138 
L 132.733749 43.164195 
L 133.938857 43.699304 
L 135.143965 43.973222 
L 136.349073 42.619096 
L 137.554181 40.481408 
L 142.374613 42.72023 
L 144.784829 41.731604 
L 147.195045 42.840822 
L 148.400153 40.546748 
L 149.605261 41.084604 
L 150.810369 40.986851 
L 152.015477 39.620308 
L 153.220585 40.00301 
L 154.425693 40.567588 
L 155.630801 40.825862 
L 156.835909 41.369045 
L 158.041017 41.298463 
L 159.246125 41.726551 
L 160.451233 41.986453 
L 161.656341 42.431006 
L 162.861449 41.804376 
L 164.066557 37.267683 
L 165.271665 37.729158 
L 166.476773 37.016031 
L 167.681881 36.110541 
L 168.886989 32.874787 
L 170.092097 33.328839 
L 171.297205 33.582825 
L 172.502313 32.758097 
L 173.707421 32.972578 
L 174.912529 33.312069 
L 176.117637 33.849905 
L 177.322745 33.820749 
L 179.732961 34.642377 
L 180.938069 34.730686 
L 182.143177 34.961948 
L 183.348285 35.405196 
L 184.553393 34.869605 
L 185.758501 35.327631 
L 186.963609 35.115713 
L 188.168717 35.124069 
L 189.373825 35.587887 
L 190.578933 35.468539 
L 191.784041 35.705612 
L 194.194257 36.512274 
L 196.604473 36.764024 
L 197.809581 36.630626 
L 199.014689 37.009759 
L 200.219797 36.253219 
L 201.424905 36.345204 
L 202.630013 36.626048 
L 203.835121 37.04832 
L 205.040229 37.317201 
L 209.860661 38.881113 
L 211.065769 38.777535 
L 212.270877 38.445739 
L 213.475985 38.338761 
L 214.681093 38.510522 
L 215.886201 38.316359 
L 217.091309 38.66825 
L 218.296417 38.195885 
L 220.706633 38.81971 
L 221.911741 39.03859 
L 223.116849 39.405232 
L 224.321957 38.906067 
L 225.527065 38.813832 
L 226.732173 38.901143 
L 227.937281 39.234694 
L 229.142389 39.356083 
L 231.552605 38.38357 
L 233.962821 38.960321 
L 235.167929 38.464267 
L 236.373037 38.50037 
L 237.578145 38.812258 
L 238.783253 38.975247 
L 239.988361 37.710587 
L 241.193469 37.966412 
L 242.398577 38.066324 
L 243.603685 36.793056 
L 244.808793 36.820729 
L 246.013901 37.110634 
L 247.219009 37.276053 
L 248.424117 37.575499 
L 249.629225 37.251463 
L 252.039441 37.797939 
L 253.244549 37.844953 
L 254.449657 37.260337 
L 255.654765 36.980201 
L 256.859873 37.298797 
L 258.064982 37.229656 
L 259.27009 37.434356 
L 260.475198 37.335436 
L 261.680306 37.44154 
L 262.885414 37.275776 
L 264.090522 37.588298 
L 265.29563 37.426062 
L 267.705846 37.740521 
L 268.910954 37.488035 
L 270.116062 37.762218 
L 271.32117 37.832246 
L 272.526278 38.126606 
L 273.731386 37.578972 
L 274.936494 37.876032 
L 276.141602 37.489206 
L 280.962034 38.447608 
L 282.167142 38.37193 
L 283.37225 37.406466 
L 284.577358 37.492799 
L 288.192682 38.293811 
L 289.39779 38.321362 
L 290.602898 38.583104 
L 293.013114 38.062757 
L 295.42333 38.050645 
L 296.628438 38.284349 
L 297.833546 37.221267 
L 301.44887 37.690631 
L 302.653978 37.675061 
L 303.859086 37.276059 
L 305.064194 37.54037 
L 306.269302 37.12657 
L 314.705058 38.658267 
L 318.320382 38.921558 
L 319.52549 38.882652 
L 320.730598 39.117158 
L 321.935706 38.81737 
L 323.140814 37.93667 
L 326.756138 38.271089 
L 327.961246 38.133048 
L 329.166354 37.786026 
L 330.371462 38.021551 
L 331.57657 37.517807 
L 336.397002 38.355316 
L 337.60211 37.35646 
L 341.217434 37.83756 
L 342.422542 35.765917 
L 343.62765 35.895471 
L 347.242974 35.879554 
L 348.448082 35.768168 
L 352.063406 36.244337 
L 353.268514 36.473576 
L 354.473622 36.419296 
L 355.67873 35.115156 
L 356.883838 34.761632 
L 358.088946 34.796772 
L 359.294054 34.304111 
L 362.909378 34.948255 
L 364.114486 34.837903 
L 367.72981 35.480905 
L 368.934918 34.822604 
L 370.140026 34.751081 
L 371.345134 34.971053 
L 372.550242 34.875059 
L 374.960458 35.30486 
L 376.165566 34.873657 
L 378.575782 35.123223 
L 380.985998 35.410069 
L 382.191106 35.622278 
L 383.396214 34.868331 
L 387.011538 35.500269 
L 388.216646 35.450272 
L 389.421754 35.657651 
L 390.626862 35.68009 
L 391.83197 35.845926 
L 395.447294 35.848177 
L 396.652402 35.042287 
L 397.85751 35.192154 
L 399.062618 35.208723 
L 401.472834 35.510957 
L 405.088158 35.898196 
L 406.293266 34.586018 
L 407.498375 34.784589 
L 408.703483 34.537196 
L 409.908591 34.644995 
L 411.113699 34.481743 
L 412.318807 34.641785 
L 415.934131 34.57022 
L 417.139239 34.753819 
L 421.959671 34.925648 
L 423.164779 35.101216 
L 424.369887 32.970855 
L 425.574995 32.410594 
L 427.985211 32.643699 
L 431.600535 33.137535 
L 432.805643 33.021743 
L 438.831183 33.830298 
L 440.036291 33.540805 
L 441.241399 33.459272 
L 442.446507 33.556861 
L 443.651615 32.447924 
L 447.266939 32.803847 
L 448.472047 32.801445 
L 450.882263 32.529461 
L 452.087371 32.515872 
L 458.112911 33.287277 
L 460.523127 33.506402 
L 461.728235 33.635103 
L 462.933343 33.588225 
L 467.753775 34.140724 
L 468.958883 34.031123 
L 471.369099 34.160943 
L 472.574207 34.00427 
L 473.779315 33.541352 
L 474.984423 33.426987 
L 477.394639 33.642328 
L 484.625287 34.197774 
L 485.830395 34.209819 
L 487.035503 34.371398 
L 488.240611 34.059894 
L 491.855935 34.4602 
L 493.061043 34.602315 
L 495.471259 34.346941 
L 496.676367 34.423331 
L 497.881475 34.376814 
L 501.496799 34.738367 
L 502.701907 34.881385 
L 503.907015 34.636918 
L 511.137663 35.422559 
L 512.342771 35.015539 
L 513.547879 35.153524 
L 514.752987 34.845691 
L 515.958095 34.973333 
L 515.958095 34.973333 
" clip-path="url(#p69264a2a38)" style="fill: none; stroke-dasharray: 5.55,2.4; stroke-dashoffset: 0; stroke: #ff8c00; stroke-width: 1.5"/>
   </g>
   <g id="patch_3">
    <path d="M 35.12 97 
L 35.12 3.96 
" style="fill: none; stroke: #000000; stroke-width: 0.8; stroke-linejoin: miter; stroke-linecap: square"/>
   </g>
   <g id="patch_4">
    <path d="M 540 97 
L 540 3.96 
" style="fill: none; stroke: #000000; stroke-width: 0.8; stroke-linejoin: miter; stroke-linecap: square"/>
   </g>
   <g id="patch_5">
    <path d="M 35.12 97 
L 540 97 
" style="fill: none; stroke: #000000; stroke-width: 0.8; stroke-linejoin: miter; stroke-linecap: square"/>
   </g>
   <g id="patch_6">
    <path d="M 35.12 3.96 
L 540 3.96 
" style="fill: none; stroke: #000000; stroke-width: 0.8; stroke-linejoin: miter; stroke-linecap: square"/>
   </g>
  </g>
 </g>
 <defs>
  <clipPath id="p69264a2a38">
   <rect x="35.12" y="3.96" width="504.88" height="93.04"/>
  </clipPath>
 </defs>
</svg>
