<?xml version="1.0" encoding="utf-8" standalone="no"?>
<!DOCTYPE svg PUBLIC "-//W3C//DTD SVG 1.1//EN"
  "http://www.w3.org/Graphics/SVG/1.1/DTD/svg11.dtd">
<svg xmlns:xlink="http://www.w3.org/1999/xlink" width="540pt" height="129.6pt" viewBox="0 0 540 129.6" xmlns="http://www.w3.org/2000/svg" version="1.1">
 <metadata>
  <rdf:RDF xmlns:dc="http://purl.org/dc/elements/1.1/" xmlns:cc="http://creativecommons.org/ns#" xmlns:rdf="http://www.w3.org/1999/02/22-rdf-syntax-ns#">
   <cc:Work>
    <dc:type rdf:resource="http://purl.org/dc/dcmitype/StillImage"/>
    <dc:date>2025-04-07T00:21:27.238363</dc:date>
    <dc:format>image/svg+xml</dc:format>
    <dc:creator>
     <cc:Agent>
      <dc:title>Matplotlib v3.10.1, https://matplotlib.org/</dc:title>
     </cc:Agent>
    </dc:creator>
   </cc:Work>
  </rdf:RDF>
 </metadata>
 <defs>
  <style type="text/css">*{stroke-linejoin: round; stroke-linecap: butt}</style>
 </defs>
 <g id="figure_1">
  <g id="patch_1">
   <path d="M 0 129.6 
L 540 129.6 
L 540 0 
L 0 0 
z
" style="fill: #ffffff"/>
  </g>
  <g id="axes_1">
   <g id="patch_2">
    <path d="M 34.31 98.44 
L 540 98.44 
L 540 0 
L 34.31 0 
z
" style="fill: #ffffff"/>
   </g>
   <g id="matplotlib.axis_1">
    <g id="xtick_1">
     <g id="line2d_1">
      <path d="M 34.31 98.44 
L 34.31 0 
" clip-path="url(#p610855172b)" style="fill: none; stroke: #b0b0b0; stroke-width: 0.8; stroke-linecap: square"/>
     </g>
     <g id="line2d_2">
      <defs>
       <path id="m0c73f24de8" d="M 0 0 
L 0 3.5 
" style="stroke: #000000; stroke-width: 0.8"/>
      </defs>
      <g>
       <use xlink:href="#m0c73f24de8" x="34.31" y="98.44" style="stroke: #000000; stroke-width: 0.8"/>
      </g>
     </g>
     <g id="text_1">
      <text style="font-size: 10px; font-family: 'Times New Roman'; text-anchor: middle" x="34.31" y="112.38375" transform="rotate(-0 34.31 112.38375)">0</text>
     </g>
    </g>
    <g id="xtick_2">
     <g id="line2d_3">
      <path d="M 94.662071 98.44 
L 94.662071 0 
" clip-path="url(#p610855172b)" style="fill: none; stroke: #b0b0b0; stroke-width: 0.8; stroke-linecap: square"/>
     </g>
     <g id="line2d_4">
      <g>
       <use xlink:href="#m0c73f24de8" x="94.662071" y="98.44" style="stroke: #000000; stroke-width: 0.8"/>
      </g>
     </g>
     <g id="text_2">
      <text style="font-size: 10px; font-family: 'Times New Roman'; text-anchor: middle" x="94.662071" y="112.38375" transform="rotate(-0 94.662071 112.38375)">50</text>
     </g>
    </g>
    <g id="xtick_3">
     <g id="line2d_5">
      <path d="M 155.014141 98.44 
L 155.014141 0 
" clip-path="url(#p610855172b)" style="fill: none; stroke: #b0b0b0; stroke-width: 0.8; stroke-linecap: square"/>
     </g>
     <g id="line2d_6">
      <g>
       <use xlink:href="#m0c73f24de8" x="155.014141" y="98.44" style="stroke: #000000; stroke-width: 0.8"/>
      </g>
     </g>
     <g id="text_3">
      <text style="font-size: 10px; font-family: 'Times New Roman'; text-anchor: middle" x="155.014141" y="112.38375" transform="rotate(-0 155.014141 112.38375)">100</text>
     </g>
    </g>
    <g id="xtick_4">
     <g id="line2d_7">
      <path d="M 215.366212 98.44 
L 215.366212 0 
" clip-path="url(#p610855172b)" style="fill: none; stroke: #b0b0b0; stroke-width: 0.8; stroke-linecap: square"/>
     </g>
     <g id="line2d_8">
      <g>
       <use xlink:href="#m0c73f24de8" x="215.366212" y="98.44" style="stroke: #000000; stroke-width: 0.8"/>
      </g>
     </g>
     <g id="text_4">
      <text style="font-size: 10px; font-family: 'Times New Roman'; text-anchor: middle" x="215.366212" y="112.38375" transform="rotate(-0 215.366212 112.38375)">150</text>
     </g>
    </g>
    <g id="xtick_5">
     <g id="line2d_9">
      <path d="M 275.718283 98.44 
L 275.718283 0 
" clip-path="url(#p610855172b)" style="fill: none; stroke: #b0b0b0; stroke-width: 0.8; stroke-linecap: square"/>
     </g>
     <g id="line2d_10">
      <g>
       <use xlink:href="#m0c73f24de8" x="275.718283" y="98.44" style="stroke: #000000; stroke-width: 0.8"/>
      </g>
     </g>
     <g id="text_5">
      <text style="font-size: 10px; font-family: 'Times New Roman'; text-anchor: middle" x="275.718283" y="112.38375" transform="rotate(-0 275.718283 112.38375)">200</text>
     </g>
    </g>
    <g id="xtick_6">
     <g id="line2d_11">
      <path d="M 336.070353 98.44 
L 336.070353 0 
" clip-path="url(#p610855172b)" style="fill: none; stroke: #b0b0b0; stroke-width: 0.8; stroke-linecap: square"/>
     </g>
     <g id="line2d_12">
      <g>
       <use xlink:href="#m0c73f24de8" x="336.070353" y="98.44" style="stroke: #000000; stroke-width: 0.8"/>
      </g>
     </g>
     <g id="text_6">
      <text style="font-size: 10px; font-family: 'Times New Roman'; text-anchor: middle" x="336.070353" y="112.38375" transform="rotate(-0 336.070353 112.38375)">250</text>
     </g>
    </g>
    <g id="xtick_7">
     <g id="line2d_13">
      <path d="M 396.422424 98.44 
L 396.422424 0 
" clip-path="url(#p610855172b)" style="fill: none; stroke: #b0b0b0; stroke-width: 0.8; stroke-linecap: square"/>
     </g>
     <g id="line2d_14">
      <g>
       <use xlink:href="#m0c73f24de8" x="396.422424" y="98.44" style="stroke: #000000; stroke-width: 0.8"/>
      </g>
     </g>
     <g id="text_7">
      <text style="font-size: 10px; font-family: 'Times New Roman'; text-anchor: middle" x="396.422424" y="112.38375" transform="rotate(-0 396.422424 112.38375)">300</text>
     </g>
    </g>
    <g id="xtick_8">
     <g id="line2d_15">
      <path d="M 456.774495 98.44 
L 456.774495 0 
" clip-path="url(#p610855172b)" style="fill: none; stroke: #b0b0b0; stroke-width: 0.8; stroke-linecap: square"/>
     </g>
     <g id="line2d_16">
      <g>
       <use xlink:href="#m0c73f24de8" x="456.774495" y="98.44" style="stroke: #000000; stroke-width: 0.8"/>
      </g>
     </g>
     <g id="text_8">
      <text style="font-size: 10px; font-family: 'Times New Roman'; text-anchor: middle" x="456.774495" y="112.38375" transform="rotate(-0 456.774495 112.38375)">350</text>
     </g>
    </g>
    <g id="xtick_9">
     <g id="line2d_17">
      <path d="M 517.126565 98.44 
L 517.126565 0 
" clip-path="url(#p610855172b)" style="fill: none; stroke: #b0b0b0; stroke-width: 0.8; stroke-linecap: square"/>
     </g>
     <g id="line2d_18">
      <g>
       <use xlink:href="#m0c73f24de8" x="517.126565" y="98.44" style="stroke: #000000; stroke-width: 0.8"/>
      </g>
     </g>
     <g id="text_9">
      <text style="font-size: 10px; font-family: 'Times New Roman'; text-anchor: middle" x="517.126565" y="112.38375" transform="rotate(-0 517.126565 112.38375)">400</text>
     </g>
    </g>
    <g id="text_10">
     <text style="font-size: 12px; font-family: 'Times New Roman'; text-anchor: middle" x="287.155" y="126.855312" transform="rotate(-0 287.155 126.855312)">Simulation Run</text>
    </g>
   </g>
   <g id="matplotlib.axis_2">
    <g id="ytick_1">
     <g id="line2d_19">
      <path d="M 34.31 98.44 
L 540 98.44 
" clip-path="url(#p610855172b)" style="fill: none; stroke: #b0b0b0; stroke-width: 0.8; stroke-linecap: square"/>
     </g>
     <g id="line2d_20">
      <defs>
       <path id="m7443742e51" d="M 0 0 
L -3.5 0 
" style="stroke: #000000; stroke-width: 0.8"/>
      </defs>
      <g>
       <use xlink:href="#m7443742e51" x="34.31" y="98.44" style="stroke: #000000; stroke-width: 0.8"/>
      </g>
     </g>
     <g id="text_11">
      <text style="font-size: 10px; font-family: 'Times New Roman'; text-anchor: end" x="27.31" y="101.911875" transform="rotate(-0 27.31 101.911875)">0.0</text>
     </g>
    </g>
    <g id="ytick_2">
     <g id="line2d_21">
      <path d="M 34.31 63.282857 
L 540 63.282857 
" clip-path="url(#p610855172b)" style="fill: none; stroke: #b0b0b0; stroke-width: 0.8; stroke-linecap: square"/>
     </g>
     <g id="line2d_22">
      <g>
       <use xlink:href="#m7443742e51" x="34.31" y="63.282857" style="stroke: #000000; stroke-width: 0.8"/>
      </g>
     </g>
     <g id="text_12">
      <text style="font-size: 10px; font-family: 'Times New Roman'; text-anchor: end" x="27.31" y="66.754732" transform="rotate(-0 27.31 66.754732)">0.5</text>
     </g>
    </g>
    <g id="ytick_3">
     <g id="line2d_23">
      <path d="M 34.31 28.125714 
L 540 28.125714 
" clip-path="url(#p610855172b)" style="fill: none; stroke: #b0b0b0; stroke-width: 0.8; stroke-linecap: square"/>
     </g>
     <g id="line2d_24">
      <g>
       <use xlink:href="#m7443742e51" x="34.31" y="28.125714" style="stroke: #000000; stroke-width: 0.8"/>
      </g>
     </g>
     <g id="text_13">
      <text style="font-size: 10px; font-family: 'Times New Roman'; text-anchor: end" x="27.31" y="31.597589" transform="rotate(-0 27.31 31.597589)">1.0</text>
     </g>
    </g>
    <g id="text_14">
     <text style="font-size: 12px; font-family: 'Times New Roman'; text-anchor: middle" x="8.243125" y="49.22" transform="rotate(-90 8.243125 49.22)">Normalized Value</text>
    </g>
   </g>
   <g id="line2d_25">
    <path d="M 34.31 11.838156 
L 35.517041 21.692333 
L 36.724083 24.911537 
L 37.931124 26.054243 
L 39.138166 29.164054 
L 40.345207 22.321197 
L 41.552248 21.429979 
L 42.75929 17.888312 
L 43.966331 21.077821 
L 45.173373 20.029478 
L 46.380414 18.1077 
L 47.587456 20.421248 
L 48.794497 18.987178 
L 50.001538 21.105322 
L 51.20858 19.720893 
L 52.415621 20.279575 
L 53.622663 21.882571 
L 54.829704 21.918419 
L 56.036745 22.578115 
L 57.243787 23.021524 
L 60.864911 23.4259 
L 62.071953 24.606015 
L 63.278994 25.23626 
L 64.486035 25.697975 
L 65.693077 26.394504 
L 66.900118 25.623312 
L 68.10716 25.956225 
L 69.314201 25.696919 
L 71.728284 27.103531 
L 72.935325 26.484019 
L 74.142367 25.992141 
L 76.556449 26.905305 
L 77.763491 27.129031 
L 78.970532 27.706317 
L 80.177574 27.826306 
L 81.384615 28.3185 
L 82.591657 28.40974 
L 83.798698 29.331527 
L 85.005739 29.433664 
L 86.212781 28.973009 
L 87.419822 28.931018 
L 89.833905 29.816516 
L 92.247988 30.037504 
L 93.455029 30.162942 
L 94.662071 30.562338 
L 95.869112 30.38013 
L 97.076153 29.918627 
L 98.283195 30.278741 
L 99.490236 30.840997 
L 100.697278 30.386884 
L 101.904319 31.029431 
L 103.111361 31.149082 
L 104.318402 30.843181 
L 106.732485 30.920505 
L 109.146568 30.449716 
L 110.353609 30.552797 
L 111.56065 30.330305 
L 112.767692 30.227887 
L 116.388816 30.400885 
L 117.595858 30.189038 
L 118.802899 29.667857 
L 120.00994 29.796217 
L 121.216982 29.560501 
L 122.424023 28.809608 
L 123.631065 28.958221 
L 124.838106 28.932291 
L 126.045147 28.750786 
L 129.666272 29.284521 
L 130.873313 29.176806 
L 133.287396 29.156457 
L 134.494437 29.40952 
L 135.701479 29.511488 
L 136.90852 29.418051 
L 138.115562 29.857078 
L 139.322603 29.828092 
L 140.529644 29.152017 
L 141.736686 29.07831 
L 144.150769 28.619075 
L 146.564851 29.11175 
L 147.771893 28.848018 
L 150.185976 29.242763 
L 151.393017 29.245177 
L 152.600058 28.652768 
L 155.014141 29.000672 
L 157.428224 29.464623 
L 161.049348 29.060746 
L 162.25639 29.089755 
L 167.084555 29.696739 
L 169.498638 29.517327 
L 170.70568 29.59596 
L 171.912721 29.316355 
L 174.326804 29.162447 
L 175.533845 28.903337 
L 176.740887 28.905397 
L 177.947928 28.793475 
L 179.15497 28.53933 
L 180.362011 28.552945 
L 181.569052 28.317756 
L 183.983135 28.820716 
L 185.190177 28.468714 
L 186.397218 28.267759 
L 187.604259 28.370279 
L 188.811301 28.270354 
L 190.018342 27.907905 
L 191.225384 28.047202 
L 192.432425 27.996854 
L 193.639467 28.170868 
L 196.053549 27.699251 
L 197.260591 27.74268 
L 198.467632 27.47464 
L 199.674674 27.340392 
L 202.088756 27.542028 
L 203.295798 27.455841 
L 204.502839 27.240064 
L 205.709881 27.290522 
L 206.916922 27.102665 
L 208.123963 27.088958 
L 210.538046 27.429596 
L 211.745088 27.192543 
L 212.952129 27.264206 
L 214.159171 27.088957 
L 218.987336 27.030262 
L 220.194378 27.127721 
L 221.401419 27.377449 
L 222.60846 27.33937 
L 223.815502 27.094385 
L 226.229585 26.971859 
L 227.436626 26.423219 
L 228.643668 26.470807 
L 231.05775 26.351996 
L 232.264792 26.346435 
L 233.471833 26.517738 
L 234.678875 26.198832 
L 238.299999 26.031498 
L 239.50704 25.923623 
L 241.921123 26.121008 
L 244.335206 26.04732 
L 246.749289 26.243618 
L 249.163372 26.117528 
L 250.370413 26.215609 
L 251.577454 26.169538 
L 253.991537 26.402831 
L 256.40562 26.614354 
L 258.819703 26.596673 
L 260.026744 26.537565 
L 264.85491 26.932871 
L 267.268993 27.008902 
L 268.476034 27.087529 
L 269.683076 26.977548 
L 273.3042 27.181503 
L 275.718283 26.891226 
L 281.75349 27.295589 
L 284.167573 27.384395 
L 286.581655 27.471054 
L 288.995738 27.50511 
L 291.409821 27.49787 
L 292.616862 27.509027 
L 295.030945 27.712414 
L 298.652069 27.785846 
L 299.859111 27.563067 
L 305.894318 27.538419 
L 307.101359 27.397978 
L 308.308401 27.383418 
L 309.515442 27.191125 
L 311.929525 27.302538 
L 316.757691 27.261379 
L 319.171773 26.976812 
L 323.999939 27.071963 
L 326.414022 26.938123 
L 333.65627 26.866877 
L 337.277395 27.015197 
L 340.898519 26.733988 
L 342.10556 26.636618 
L 348.140767 26.802916 
L 349.347809 26.632222 
L 359.00414 26.992927 
L 363.832306 27.201309 
L 369.867513 26.865168 
L 373.488637 27.039554 
L 378.316803 27.005002 
L 380.730886 27.182032 
L 381.937927 26.992652 
L 384.35201 27.094867 
L 385.559051 27.014922 
L 387.973134 27.118417 
L 390.387217 27.091703 
L 398.836507 27.316716 
L 401.25059 27.322601 
L 406.078755 27.416859 
L 407.285797 27.301039 
L 409.699879 27.244775 
L 410.906921 27.089635 
L 414.528045 27.096514 
L 419.356211 27.27233 
L 425.391418 27.489369 
L 427.805501 27.497616 
L 448.325205 27.700987 
L 450.739288 27.685111 
L 453.15337 27.802341 
L 455.567453 27.743445 
L 459.188577 27.88648 
L 462.809702 28.005888 
L 482.122364 27.967615 
L 485.743488 28.052956 
L 488.157571 27.897923 
L 489.364613 27.978886 
L 490.571654 27.87832 
L 491.778696 27.973649 
L 494.192778 27.958644 
L 511.091358 27.90831 
L 514.712482 28.168574 
L 515.919524 28.125714 
L 515.919524 28.125714 
" clip-path="url(#p610855172b)" style="fill: none; stroke: #4169e1; stroke-width: 1.5; stroke-linecap: square"/>
   </g>
   <g id="line2d_26">
    <path d="M 34.31 98.44 
L 35.517041 82.401852 
L 36.724083 84.324636 
L 37.931124 87.206478 
L 39.138166 83.064054 
L 40.345207 46.958113 
L 41.552248 53.525562 
L 42.75929 44.637898 
L 43.966331 37.174301 
L 45.173373 41.667208 
L 46.380414 40.728507 
L 47.587456 35.813389 
L 48.794497 36.55481 
L 50.001538 31.34204 
L 51.20858 31.383406 
L 52.415621 34.801167 
L 53.622663 31.754187 
L 54.829704 35.455346 
L 56.036745 37.476507 
L 57.243787 39.907696 
L 58.450828 42.643182 
L 60.864911 47.3337 
L 62.071953 44.172713 
L 63.278994 44.768903 
L 64.486035 45.952935 
L 65.693077 45.813536 
L 66.900118 45.040876 
L 69.314201 47.783297 
L 70.521242 47.253879 
L 71.728284 46.005391 
L 72.935325 45.565875 
L 74.142367 45.80231 
L 75.349408 46.291285 
L 76.556449 46.363062 
L 77.763491 47.472935 
L 78.970532 46.77762 
L 80.177574 48.011934 
L 81.384615 47.712181 
L 82.591657 48.894448 
L 83.798698 44.320253 
L 85.005739 45.506487 
L 86.212781 45.202455 
L 87.419822 46.372697 
L 88.626864 45.754692 
L 89.833905 45.658397 
L 91.040946 46.545413 
L 93.455029 48.469927 
L 94.662071 48.132417 
L 95.869112 48.820218 
L 97.076153 47.92722 
L 98.283195 47.727446 
L 99.490236 45.829976 
L 100.697278 44.896159 
L 101.904319 42.016865 
L 103.111361 42.854898 
L 104.318402 42.900616 
L 106.732485 44.652918 
L 107.939526 45.154043 
L 109.146568 45.196544 
L 110.353609 45.917911 
L 111.56065 46.202681 
L 115.181775 48.344686 
L 116.388816 48.674986 
L 117.595858 48.87446 
L 118.802899 46.432142 
L 120.00994 46.961266 
L 121.216982 47.005727 
L 122.424023 40.902603 
L 123.631065 41.399832 
L 124.838106 42.142032 
L 129.666272 43.348091 
L 130.873313 43.874933 
L 133.287396 45.142808 
L 134.494437 44.899391 
L 136.90852 45.879382 
L 138.115562 43.745772 
L 139.322603 44.355225 
L 140.529644 38.319592 
L 141.736686 38.907737 
L 142.943727 38.892408 
L 144.150769 38.622673 
L 145.35781 37.926477 
L 146.564851 37.981488 
L 147.771893 37.538034 
L 148.978934 37.454138 
L 150.185976 37.564638 
L 151.393017 38.185722 
L 152.600058 33.113889 
L 153.8071 33.438091 
L 155.014141 33.380492 
L 156.221183 32.901959 
L 157.428224 32.828498 
L 159.842307 33.66163 
L 161.049348 33.687001 
L 162.25639 34.277437 
L 164.670473 34.345329 
L 165.877514 34.180166 
L 167.084555 34.715565 
L 169.498638 35.538792 
L 170.70568 35.975155 
L 171.912721 35.046326 
L 174.326804 35.90167 
L 175.533845 35.134278 
L 176.740887 35.666176 
L 177.947928 35.943092 
L 179.15497 35.17945 
L 180.362011 35.694274 
L 181.569052 35.089837 
L 182.776094 34.042809 
L 183.983135 33.511619 
L 185.190177 31.468852 
L 186.397218 31.155788 
L 188.811301 31.76911 
L 190.018342 29.482999 
L 191.225384 29.592767 
L 192.432425 30.059488 
L 193.639467 29.913452 
L 194.846508 28.579584 
L 196.053549 28.365703 
L 197.260591 28.838903 
L 198.467632 27.733139 
L 200.881715 27.894049 
L 203.295798 28.638462 
L 204.502839 28.045731 
L 205.709881 28.478284 
L 206.916922 28.13063 
L 208.123963 28.611054 
L 209.331005 27.928215 
L 210.538046 28.058055 
L 211.745088 27.169275 
L 212.952129 27.522068 
L 214.159171 27.239053 
L 215.366212 27.702631 
L 216.573253 27.893571 
L 220.194378 28.93043 
L 221.401419 27.779457 
L 222.60846 28.192163 
L 223.815502 27.08048 
L 225.022543 27.483987 
L 226.229585 27.755741 
L 227.436626 20.240344 
L 228.643668 20.662838 
L 229.850709 20.862797 
L 232.264792 21.794532 
L 233.471833 21.456555 
L 234.678875 19.129183 
L 237.092957 20.029724 
L 240.714082 20.338638 
L 243.128164 20.836498 
L 244.335206 21.277658 
L 247.95633 21.754918 
L 249.163372 22.156595 
L 250.370413 22.295991 
L 251.577454 22.653575 
L 252.784496 22.259654 
L 253.991537 22.534263 
L 256.40562 22.677138 
L 260.026744 23.593511 
L 261.233786 23.668545 
L 262.440827 24.047755 
L 263.647868 23.993642 
L 264.85491 23.639851 
L 266.061951 24.020579 
L 269.683076 24.313367 
L 272.097158 24.519664 
L 273.3042 24.876617 
L 274.511241 24.895404 
L 275.718283 24.103366 
L 276.925324 24.156353 
L 279.339407 23.395337 
L 281.75349 23.532894 
L 282.960531 23.884253 
L 286.581655 24.507098 
L 292.616862 26.020667 
L 293.823904 25.692008 
L 295.030945 25.868776 
L 298.652069 26.790767 
L 299.859111 25.311602 
L 301.066152 25.64099 
L 302.273194 25.808722 
L 303.480235 25.65803 
L 305.894318 26.090937 
L 307.101359 25.673439 
L 308.308401 25.984642 
L 309.515442 24.908604 
L 310.722484 24.892025 
L 314.343608 25.826845 
L 315.550649 25.953342 
L 316.757691 26.228456 
L 317.964732 25.888147 
L 319.171773 25.251421 
L 322.792898 26.131558 
L 323.999939 26.202048 
L 325.206981 26.118162 
L 328.828105 26.873489 
L 330.035146 26.947065 
L 331.242188 27.211445 
L 332.449229 27.320833 
L 333.65627 27.586141 
L 336.070353 27.870437 
L 338.484436 28.239031 
L 339.691478 28.283243 
L 340.898519 27.6452 
L 342.10556 27.522438 
L 343.312602 27.701799 
L 344.519643 27.093221 
L 345.726685 27.257914 
L 346.933726 26.594918 
L 348.140767 26.651948 
L 349.347809 25.669953 
L 351.761892 26.138665 
L 354.175974 26.178708 
L 355.383016 25.948808 
L 357.797099 26.225678 
L 359.00414 26.050894 
L 361.418223 26.162382 
L 362.625264 26.426158 
L 365.039347 26.507371 
L 366.246389 26.109099 
L 367.45343 26.332123 
L 371.074554 26.563048 
L 372.281596 26.762576 
L 373.488637 26.760388 
L 378.316803 27.676976 
L 379.523844 27.67964 
L 380.730886 27.400997 
L 381.937927 25.940829 
L 383.144968 25.86839 
L 384.35201 26.098569 
L 386.766093 25.999734 
L 391.594258 26.740905 
L 396.422424 27.277087 
L 400.043548 27.905776 
L 403.664672 28.368678 
L 404.871714 27.518597 
L 406.078755 26.910158 
L 407.285797 26.456304 
L 408.492838 26.680858 
L 409.699879 26.674192 
L 410.906921 25.663212 
L 413.321004 25.910756 
L 414.528045 25.778865 
L 415.735087 25.97914 
L 416.942128 26.04545 
L 418.149169 25.301829 
L 420.563252 25.292583 
L 421.770294 25.518075 
L 422.977335 25.407835 
L 426.598459 25.835992 
L 429.012542 26.179846 
L 430.219583 26.066212 
L 432.633666 26.356645 
L 433.840708 26.244475 
L 436.254791 26.634799 
L 437.461832 26.48549 
L 439.875915 26.858369 
L 441.082956 26.830405 
L 443.497039 27.10216 
L 445.911122 27.227636 
L 450.739288 28.005557 
L 451.946329 27.607206 
L 453.15337 27.798449 
L 454.360412 27.766301 
L 457.981536 28.278644 
L 459.188577 27.998003 
L 461.60266 27.870844 
L 468.844909 28.902288 
L 470.05195 28.666404 
L 477.294199 29.676876 
L 478.50124 29.604837 
L 482.122364 30.031227 
L 485.743488 30.133247 
L 486.95053 29.737121 
L 488.157571 29.707214 
L 489.364613 29.480891 
L 491.778696 28.645234 
L 494.192778 28.620338 
L 495.39982 28.798065 
L 496.606861 28.458027 
L 500.227985 28.107306 
L 505.056151 28.703126 
L 506.263193 28.692458 
L 507.470234 28.863785 
L 508.677275 28.858324 
L 511.091358 29.109817 
L 512.2984 28.530078 
L 513.505441 28.115922 
L 515.919524 28.125714 
L 515.919524 28.125714 
" clip-path="url(#p610855172b)" style="fill: none; stroke-dasharray: 5.55,2.4; stroke-dashoffset: 0; stroke: #4169e1; stroke-width: 1.5"/>
   </g>
   <g id="line2d_27">
    <path d="M 34.31 21.623414 
L 35.517041 24.968886 
L 36.724083 26.138349 
L 39.138166 29.742206 
L 40.345207 26.404386 
L 41.552248 26.274359 
L 42.75929 23.035968 
L 43.966331 25.16802 
L 46.380414 22.340539 
L 47.587456 23.324749 
L 48.794497 21.633327 
L 50.001538 23.770395 
L 51.20858 22.613674 
L 52.415621 22.617944 
L 53.622663 23.764723 
L 54.829704 23.84835 
L 56.036745 24.267308 
L 59.65787 24.97616 
L 60.864911 25.044861 
L 62.071953 26.278135 
L 65.693077 27.200584 
L 66.900118 26.624171 
L 68.10716 26.973635 
L 69.314201 26.71306 
L 71.728284 27.590567 
L 72.935325 26.996289 
L 74.142367 26.536849 
L 77.763491 27.574421 
L 78.970532 28.067287 
L 80.177574 28.088279 
L 81.384615 28.47387 
L 82.591657 28.489121 
L 83.798698 29.277069 
L 85.005739 29.253354 
L 86.212781 28.935362 
L 87.419822 28.963958 
L 88.626864 29.553317 
L 89.833905 29.83657 
L 91.040946 29.93239 
L 92.247988 29.902591 
L 94.662071 30.333058 
L 95.869112 30.180124 
L 97.076153 29.7891 
L 98.283195 29.990952 
L 99.490236 30.513439 
L 100.697278 30.225467 
L 101.904319 30.672604 
L 103.111361 30.808579 
L 104.318402 30.580628 
L 106.732485 30.674027 
L 107.939526 30.551112 
L 109.146568 30.260012 
L 110.353609 30.431223 
L 111.56065 30.251896 
L 112.767692 30.204102 
L 113.974733 30.303296 
L 115.181775 30.249174 
L 116.388816 30.32437 
L 117.595858 30.095986 
L 118.802899 29.68089 
L 120.00994 29.790612 
L 121.216982 29.682206 
L 122.424023 29.100128 
L 123.631065 29.180686 
L 126.045147 29.059999 
L 129.666272 29.369333 
L 130.873313 29.184547 
L 134.494437 29.42781 
L 135.701479 29.556894 
L 136.90852 29.568581 
L 138.115562 29.921081 
L 139.322603 29.930638 
L 140.529644 29.387429 
L 142.943727 29.136991 
L 144.150769 28.961668 
L 145.35781 29.209107 
L 146.564851 29.33411 
L 147.771893 29.186353 
L 150.185976 29.39406 
L 151.393017 29.359293 
L 152.600058 28.955856 
L 155.014141 29.195215 
L 157.428224 29.483385 
L 158.635266 29.428324 
L 161.049348 29.110442 
L 163.463431 29.247544 
L 165.877514 29.51675 
L 168.291597 29.40522 
L 169.498638 29.328744 
L 170.70568 29.39307 
L 173.119763 29.120748 
L 176.740887 28.821115 
L 180.362011 28.55937 
L 181.569052 28.370731 
L 183.983135 28.74156 
L 186.397218 28.39759 
L 187.604259 28.449387 
L 188.811301 28.310389 
L 190.018342 28.024063 
L 193.639467 28.193147 
L 196.053549 27.904116 
L 197.260591 27.931765 
L 198.467632 27.752134 
L 199.674674 27.689892 
L 202.088756 27.837996 
L 205.709881 27.653584 
L 206.916922 27.461942 
L 208.123963 27.414927 
L 210.538046 27.681919 
L 211.745088 27.558423 
L 212.952129 27.622994 
L 214.159171 27.490372 
L 218.987336 27.501722 
L 220.194378 27.540166 
L 221.401419 27.724564 
L 226.229585 27.457108 
L 227.436626 26.98835 
L 228.643668 27.051174 
L 229.850709 26.918245 
L 232.264792 26.925321 
L 233.471833 27.061959 
L 234.678875 26.762127 
L 238.299999 26.659966 
L 239.50704 26.549405 
L 241.921123 26.759555 
L 244.335206 26.718238 
L 246.749289 26.932227 
L 249.163372 26.8629 
L 250.370413 26.919191 
L 251.577454 26.861837 
L 253.991537 27.042884 
L 257.612661 27.15987 
L 263.647868 27.273131 
L 266.061951 27.409113 
L 268.476034 27.52432 
L 270.890117 27.484919 
L 273.3042 27.50939 
L 276.925324 27.38093 
L 279.339407 27.640644 
L 280.546448 27.729055 
L 282.960531 27.678191 
L 287.788697 27.745874 
L 295.030945 27.919262 
L 298.652069 27.971042 
L 299.859111 27.812455 
L 308.308401 27.741848 
L 309.515442 27.664426 
L 311.929525 27.732214 
L 317.964732 27.582714 
L 321.585856 27.522412 
L 328.828105 27.447713 
L 331.242188 27.374553 
L 336.070353 27.465082 
L 339.691478 27.436891 
L 342.10556 27.280673 
L 348.140767 27.363177 
L 349.347809 27.258662 
L 355.383016 27.383548 
L 361.418223 27.636025 
L 368.660471 27.472178 
L 371.074554 27.444739 
L 377.109761 27.502212 
L 379.523844 27.526877 
L 380.730886 27.607155 
L 381.937927 27.458683 
L 384.35201 27.541684 
L 385.559051 27.455817 
L 389.180175 27.493425 
L 403.664672 27.697232 
L 404.871714 27.81588 
L 408.492838 27.615181 
L 414.528045 27.439021 
L 432.633666 27.903602 
L 436.254791 27.82091 
L 438.668873 27.851949 
L 442.289998 27.838531 
L 447.118163 27.898185 
L 450.739288 27.886029 
L 453.15337 27.992297 
L 457.981536 28.008431 
L 461.60266 28.186427 
L 473.673074 28.109001 
L 495.39982 28.02623 
L 496.606861 27.940056 
L 500.227985 27.988413 
L 511.091358 27.965308 
L 514.712482 28.145606 
L 515.919524 28.125714 
L 515.919524 28.125714 
" clip-path="url(#p610855172b)" style="fill: none; stroke: #ff8c00; stroke-width: 1.5; stroke-linecap: square"/>
   </g>
   <g id="line2d_28">
    <path d="M 34.31 98.44 
L 35.517041 95.192885 
L 36.724083 95.481685 
L 37.931124 93.503769 
L 39.138166 90.575377 
L 40.345207 75.724748 
L 41.552248 78.940353 
L 42.75929 60.07976 
L 43.966331 53.791619 
L 46.380414 51.433106 
L 47.587456 52.258971 
L 48.794497 45.851149 
L 50.001538 32.382332 
L 51.20858 31.351559 
L 52.415621 35.544507 
L 53.622663 33.139573 
L 54.829704 36.732881 
L 56.036745 39.06399 
L 57.243787 41.729682 
L 59.65787 46.232323 
L 60.864911 48.472097 
L 62.071953 40.40492 
L 64.486035 44.018171 
L 65.693077 44.640661 
L 66.900118 43.959424 
L 68.10716 44.845986 
L 69.314201 46.061177 
L 70.521242 46.393583 
L 71.728284 45.925192 
L 72.935325 44.237774 
L 74.142367 43.811011 
L 75.349408 44.189688 
L 76.556449 43.799396 
L 77.763491 44.574801 
L 78.970532 43.384698 
L 80.177574 44.791514 
L 81.384615 44.450432 
L 82.591657 45.764551 
L 83.798698 39.633527 
L 85.005739 40.994267 
L 86.212781 41.03836 
L 87.419822 42.303513 
L 88.626864 38.989101 
L 89.833905 39.183258 
L 92.247988 41.466895 
L 93.455029 42.181745 
L 94.662071 42.321931 
L 95.869112 43.055055 
L 97.076153 41.793345 
L 98.283195 42.215852 
L 99.490236 38.961224 
L 100.697278 38.700084 
L 101.904319 36.49988 
L 103.111361 37.262055 
L 104.318402 37.424599 
L 106.732485 39.346445 
L 107.939526 40.032192 
L 109.146568 39.435041 
L 111.56065 40.125935 
L 112.767692 40.966404 
L 115.181775 42.414224 
L 116.388816 43.114638 
L 117.595858 42.860855 
L 118.802899 40.14438 
L 121.216982 41.251445 
L 122.424023 34.848497 
L 126.045147 37.021676 
L 127.252189 37.372974 
L 129.666272 38.573133 
L 130.873313 38.519704 
L 133.287396 39.886486 
L 134.494437 39.922284 
L 135.701479 40.204654 
L 136.90852 40.878441 
L 138.115562 38.439811 
L 139.322603 39.119326 
L 140.529644 32.252293 
L 141.736686 32.743582 
L 142.943727 32.852667 
L 144.150769 32.75405 
L 145.35781 31.82614 
L 146.564851 32.113192 
L 147.771893 32.215965 
L 150.185976 32.985979 
L 151.393017 33.619861 
L 152.600058 29.646957 
L 153.8071 30.129289 
L 155.014141 30.110832 
L 156.221183 29.717078 
L 157.428224 30.10212 
L 158.635266 30.668618 
L 159.842307 30.39362 
L 161.049348 30.410679 
L 162.25639 31.033048 
L 163.463431 31.237929 
L 164.670473 31.098449 
L 165.877514 31.300574 
L 167.084555 31.905181 
L 168.291597 32.118604 
L 170.70568 32.958112 
L 171.912721 32.530485 
L 173.119763 32.773664 
L 174.326804 32.781376 
L 175.533845 31.841764 
L 176.740887 32.350533 
L 177.947928 32.689387 
L 179.15497 32.201208 
L 180.362011 32.739691 
L 181.569052 32.014322 
L 182.776094 30.787846 
L 183.983135 30.534542 
L 185.190177 29.761882 
L 186.397218 29.438009 
L 187.604259 29.878233 
L 188.811301 29.692231 
L 190.018342 27.152788 
L 191.225384 27.444955 
L 192.432425 27.958428 
L 193.639467 28.002272 
L 196.053549 27.43386 
L 197.260591 27.926022 
L 198.467632 27.167549 
L 200.881715 27.786344 
L 203.295798 28.492669 
L 204.502839 28.368444 
L 205.709881 28.854306 
L 206.916922 27.813839 
L 208.123963 28.20857 
L 209.331005 27.429899 
L 210.538046 27.53911 
L 211.745088 27.367739 
L 212.952129 27.665706 
L 214.159171 27.377203 
L 216.573253 28.253329 
L 220.194378 29.450168 
L 221.401419 28.363346 
L 222.60846 28.575419 
L 223.815502 27.892983 
L 225.022543 28.320821 
L 226.229585 28.609318 
L 227.436626 18.843056 
L 228.643668 19.150039 
L 229.850709 18.805977 
L 232.264792 19.768684 
L 233.471833 19.348878 
L 234.678875 15.492896 
L 237.092957 16.459206 
L 238.299999 16.648368 
L 239.50704 16.523792 
L 240.714082 15.961852 
L 241.921123 16.224586 
L 244.335206 17.075764 
L 245.542247 17.10869 
L 246.749289 16.807845 
L 247.95633 17.079755 
L 249.163372 17.530071 
L 251.577454 18.088668 
L 252.784496 17.633869 
L 253.991537 17.941296 
L 256.40562 18.223187 
L 258.819703 19.020905 
L 260.026744 18.962542 
L 261.233786 19.112176 
L 262.440827 19.47929 
L 263.647868 19.386028 
L 264.85491 19.075799 
L 266.061951 19.460446 
L 268.476034 19.896365 
L 269.683076 20.042999 
L 273.3042 21.10186 
L 274.511241 21.154558 
L 275.718283 20.599515 
L 276.925324 20.658174 
L 278.132365 19.651299 
L 279.339407 19.379459 
L 280.546448 19.3025 
L 281.75349 19.546336 
L 284.167573 20.211612 
L 285.374614 20.291717 
L 286.581655 20.536788 
L 290.20278 21.586853 
L 292.616862 22.221053 
L 293.823904 21.975453 
L 296.237987 22.506359 
L 298.652069 23.175702 
L 299.859111 21.911027 
L 301.066152 22.255744 
L 305.894318 23.114747 
L 307.101359 23.115864 
L 308.308401 23.440278 
L 310.722484 23.362866 
L 314.343608 24.318205 
L 316.757691 24.84227 
L 317.964732 24.630731 
L 319.171773 24.718508 
L 322.792898 25.524674 
L 323.999939 25.590345 
L 328.828105 26.431098 
L 330.035146 26.334968 
L 331.242188 26.626845 
L 332.449229 26.753605 
L 337.277395 27.745818 
L 339.691478 28.228056 
L 340.898519 27.598296 
L 343.312602 27.927335 
L 344.519643 27.231293 
L 345.726685 27.430951 
L 346.933726 26.642349 
L 348.140767 26.870868 
L 349.347809 26.316885 
L 351.761892 26.848384 
L 352.968933 26.607835 
L 354.175974 26.640122 
L 355.383016 26.422131 
L 356.590057 26.321474 
L 357.797099 26.527181 
L 359.00414 26.409265 
L 360.211182 26.601241 
L 361.418223 26.634145 
L 362.625264 26.889241 
L 365.039347 26.950785 
L 366.246389 26.42632 
L 378.316803 28.152354 
L 379.523844 28.145894 
L 380.730886 27.853359 
L 381.937927 26.255695 
L 383.144968 26.176224 
L 384.35201 26.389473 
L 385.559051 26.013738 
L 386.766093 26.104716 
L 390.387217 26.814245 
L 394.008341 27.28558 
L 398.836507 28.134925 
L 400.043548 28.352326 
L 401.25059 28.262985 
L 403.664672 28.699772 
L 404.871714 27.672354 
L 406.078755 26.988815 
L 407.285797 26.582258 
L 408.492838 26.792134 
L 409.699879 26.812891 
L 410.906921 26.056 
L 413.321004 26.375192 
L 414.528045 26.037218 
L 416.942128 26.246396 
L 418.149169 25.44345 
L 420.563252 25.347964 
L 421.770294 25.571131 
L 422.977335 25.554196 
L 429.012542 26.507935 
L 430.219583 26.179375 
L 432.633666 26.539912 
L 433.840708 26.399148 
L 439.875915 27.169065 
L 442.289998 27.153925 
L 445.911122 27.276745 
L 450.739288 28.057564 
L 451.946329 27.434695 
L 457.981536 28.297813 
L 459.188577 27.802046 
L 460.395619 27.82241 
L 461.60266 27.725115 
L 468.844909 28.770267 
L 470.05195 28.462148 
L 477.294199 29.428626 
L 478.50124 29.270464 
L 483.329406 29.855055 
L 484.536447 29.918867 
L 485.743488 29.865245 
L 486.95053 29.399132 
L 489.364613 29.116351 
L 491.778696 28.388657 
L 492.985737 28.363904 
L 495.39982 28.695345 
L 496.606861 28.051826 
L 500.227985 27.767695 
L 505.056151 28.348523 
L 506.263193 28.402489 
L 507.470234 28.57969 
L 508.677275 28.533688 
L 511.091358 28.821834 
L 512.2984 28.291596 
L 513.505441 27.969961 
L 515.919524 28.125714 
L 515.919524 28.125714 
" clip-path="url(#p610855172b)" style="fill: none; stroke-dasharray: 5.55,2.4; stroke-dashoffset: 0; stroke: #ff8c00; stroke-width: 1.5"/>
   </g>
   <g id="patch_3">
    <path d="M 34.31 98.44 
L 34.31 0 
" style="fill: none; stroke: #000000; stroke-width: 0.8; stroke-linejoin: miter; stroke-linecap: square"/>
   </g>
   <g id="patch_4">
    <path d="M 540 98.44 
L 540 0 
" style="fill: none; stroke: #000000; stroke-width: 0.8; stroke-linejoin: miter; stroke-linecap: square"/>
   </g>
   <g id="patch_5">
    <path d="M 34.31 98.44 
L 540 98.44 
" style="fill: none; stroke: #000000; stroke-width: 0.8; stroke-linejoin: miter; stroke-linecap: square"/>
   </g>
   <g id="patch_6">
    <path d="M 34.31 0 
L 540 0 
" style="fill: none; stroke: #000000; stroke-width: 0.8; stroke-linejoin: miter; stroke-linecap: square"/>
   </g>
  </g>
 </g>
 <defs>
  <clipPath id="p610855172b">
   <rect x="34.31" y="0" width="505.69" height="98.44"/>
  </clipPath>
 </defs>
</svg>
