<?xml version="1.0" encoding="utf-8" standalone="no"?>
<!DOCTYPE svg PUBLIC "-//W3C//DTD SVG 1.1//EN"
  "http://www.w3.org/Graphics/SVG/1.1/DTD/svg11.dtd">
<svg xmlns:xlink="http://www.w3.org/1999/xlink" width="540pt" height="129.6pt" viewBox="0 0 540 129.6" xmlns="http://www.w3.org/2000/svg" version="1.1">
 <metadata>
  <rdf:RDF xmlns:dc="http://purl.org/dc/elements/1.1/" xmlns:cc="http://creativecommons.org/ns#" xmlns:rdf="http://www.w3.org/1999/02/22-rdf-syntax-ns#">
   <cc:Work>
    <dc:type rdf:resource="http://purl.org/dc/dcmitype/StillImage"/>
    <dc:date>2025-04-05T01:57:02.731144</dc:date>
    <dc:format>image/svg+xml</dc:format>
    <dc:creator>
     <cc:Agent>
      <dc:title>Matplotlib v3.10.1, https://matplotlib.org/</dc:title>
     </cc:Agent>
    </dc:creator>
   </cc:Work>
  </rdf:RDF>
 </metadata>
 <defs>
  <style type="text/css">*{stroke-linejoin: round; stroke-linecap: butt}</style>
 </defs>
 <g id="figure_1">
  <g id="patch_1">
   <path d="M 0 129.6 
L 540 129.6 
L 540 0 
L 0 0 
z
" style="fill: #ffffff"/>
  </g>
  <g id="axes_1">
   <g id="patch_2">
    <path d="M 34.31 98.44 
L 540 98.44 
L 540 0 
L 34.31 0 
z
" style="fill: #ffffff"/>
   </g>
   <g id="matplotlib.axis_1">
    <g id="xtick_1">
     <g id="line2d_1">
      <path d="M 34.31 98.44 
L 34.31 0 
" clip-path="url(#p6ff20a2f29)" style="fill: none; stroke: #b0b0b0; stroke-width: 0.8; stroke-linecap: square"/>
     </g>
     <g id="line2d_2">
      <defs>
       <path id="m96401d00e5" d="M 0 0 
L 0 3.5 
" style="stroke: #000000; stroke-width: 0.8"/>
      </defs>
      <g>
       <use xlink:href="#m96401d00e5" x="34.31" y="98.44" style="stroke: #000000; stroke-width: 0.8"/>
      </g>
     </g>
     <g id="text_1">
      <text style="font-size: 10px; font-family: 'Times New Roman'; text-anchor: middle" x="34.31" y="112.38375" transform="rotate(-0 34.31 112.38375)">0</text>
     </g>
    </g>
    <g id="xtick_2">
     <g id="line2d_3">
      <path d="M 94.662071 98.44 
L 94.662071 0 
" clip-path="url(#p6ff20a2f29)" style="fill: none; stroke: #b0b0b0; stroke-width: 0.8; stroke-linecap: square"/>
     </g>
     <g id="line2d_4">
      <g>
       <use xlink:href="#m96401d00e5" x="94.662071" y="98.44" style="stroke: #000000; stroke-width: 0.8"/>
      </g>
     </g>
     <g id="text_2">
      <text style="font-size: 10px; font-family: 'Times New Roman'; text-anchor: middle" x="94.662071" y="112.38375" transform="rotate(-0 94.662071 112.38375)">50</text>
     </g>
    </g>
    <g id="xtick_3">
     <g id="line2d_5">
      <path d="M 155.014141 98.44 
L 155.014141 0 
" clip-path="url(#p6ff20a2f29)" style="fill: none; stroke: #b0b0b0; stroke-width: 0.8; stroke-linecap: square"/>
     </g>
     <g id="line2d_6">
      <g>
       <use xlink:href="#m96401d00e5" x="155.014141" y="98.44" style="stroke: #000000; stroke-width: 0.8"/>
      </g>
     </g>
     <g id="text_3">
      <text style="font-size: 10px; font-family: 'Times New Roman'; text-anchor: middle" x="155.014141" y="112.38375" transform="rotate(-0 155.014141 112.38375)">100</text>
     </g>
    </g>
    <g id="xtick_4">
     <g id="line2d_7">
      <path d="M 215.366212 98.44 
L 215.366212 0 
" clip-path="url(#p6ff20a2f29)" style="fill: none; stroke: #b0b0b0; stroke-width: 0.8; stroke-linecap: square"/>
     </g>
     <g id="line2d_8">
      <g>
       <use xlink:href="#m96401d00e5" x="215.366212" y="98.44" style="stroke: #000000; stroke-width: 0.8"/>
      </g>
     </g>
     <g id="text_4">
      <text style="font-size: 10px; font-family: 'Times New Roman'; text-anchor: middle" x="215.366212" y="112.38375" transform="rotate(-0 215.366212 112.38375)">150</text>
     </g>
    </g>
    <g id="xtick_5">
     <g id="line2d_9">
      <path d="M 275.718283 98.44 
L 275.718283 0 
" clip-path="url(#p6ff20a2f29)" style="fill: none; stroke: #b0b0b0; stroke-width: 0.8; stroke-linecap: square"/>
     </g>
     <g id="line2d_10">
      <g>
       <use xlink:href="#m96401d00e5" x="275.718283" y="98.44" style="stroke: #000000; stroke-width: 0.8"/>
      </g>
     </g>
     <g id="text_5">
      <text style="font-size: 10px; font-family: 'Times New Roman'; text-anchor: middle" x="275.718283" y="112.38375" transform="rotate(-0 275.718283 112.38375)">200</text>
     </g>
    </g>
    <g id="xtick_6">
     <g id="line2d_11">
      <path d="M 336.070353 98.44 
L 336.070353 0 
" clip-path="url(#p6ff20a2f29)" style="fill: none; stroke: #b0b0b0; stroke-width: 0.8; stroke-linecap: square"/>
     </g>
     <g id="line2d_12">
      <g>
       <use xlink:href="#m96401d00e5" x="336.070353" y="98.44" style="stroke: #000000; stroke-width: 0.8"/>
      </g>
     </g>
     <g id="text_6">
      <text style="font-size: 10px; font-family: 'Times New Roman'; text-anchor: middle" x="336.070353" y="112.38375" transform="rotate(-0 336.070353 112.38375)">250</text>
     </g>
    </g>
    <g id="xtick_7">
     <g id="line2d_13">
      <path d="M 396.422424 98.44 
L 396.422424 0 
" clip-path="url(#p6ff20a2f29)" style="fill: none; stroke: #b0b0b0; stroke-width: 0.8; stroke-linecap: square"/>
     </g>
     <g id="line2d_14">
      <g>
       <use xlink:href="#m96401d00e5" x="396.422424" y="98.44" style="stroke: #000000; stroke-width: 0.8"/>
      </g>
     </g>
     <g id="text_7">
      <text style="font-size: 10px; font-family: 'Times New Roman'; text-anchor: middle" x="396.422424" y="112.38375" transform="rotate(-0 396.422424 112.38375)">300</text>
     </g>
    </g>
    <g id="xtick_8">
     <g id="line2d_15">
      <path d="M 456.774495 98.44 
L 456.774495 0 
" clip-path="url(#p6ff20a2f29)" style="fill: none; stroke: #b0b0b0; stroke-width: 0.8; stroke-linecap: square"/>
     </g>
     <g id="line2d_16">
      <g>
       <use xlink:href="#m96401d00e5" x="456.774495" y="98.44" style="stroke: #000000; stroke-width: 0.8"/>
      </g>
     </g>
     <g id="text_8">
      <text style="font-size: 10px; font-family: 'Times New Roman'; text-anchor: middle" x="456.774495" y="112.38375" transform="rotate(-0 456.774495 112.38375)">350</text>
     </g>
    </g>
    <g id="xtick_9">
     <g id="line2d_17">
      <path d="M 517.126565 98.44 
L 517.126565 0 
" clip-path="url(#p6ff20a2f29)" style="fill: none; stroke: #b0b0b0; stroke-width: 0.8; stroke-linecap: square"/>
     </g>
     <g id="line2d_18">
      <g>
       <use xlink:href="#m96401d00e5" x="517.126565" y="98.44" style="stroke: #000000; stroke-width: 0.8"/>
      </g>
     </g>
     <g id="text_9">
      <text style="font-size: 10px; font-family: 'Times New Roman'; text-anchor: middle" x="517.126565" y="112.38375" transform="rotate(-0 517.126565 112.38375)">400</text>
     </g>
    </g>
    <g id="text_10">
     <text style="font-size: 12px; font-family: 'Times New Roman'; text-anchor: middle" x="287.155" y="126.855312" transform="rotate(-0 287.155 126.855312)">Simulation Run</text>
    </g>
   </g>
   <g id="matplotlib.axis_2">
    <g id="ytick_1">
     <g id="line2d_19">
      <path d="M 34.31 98.44 
L 540 98.44 
" clip-path="url(#p6ff20a2f29)" style="fill: none; stroke: #b0b0b0; stroke-width: 0.8; stroke-linecap: square"/>
     </g>
     <g id="line2d_20">
      <defs>
       <path id="m2afe664f3f" d="M 0 0 
L -3.5 0 
" style="stroke: #000000; stroke-width: 0.8"/>
      </defs>
      <g>
       <use xlink:href="#m2afe664f3f" x="34.31" y="98.44" style="stroke: #000000; stroke-width: 0.8"/>
      </g>
     </g>
     <g id="text_11">
      <text style="font-size: 10px; font-family: 'Times New Roman'; text-anchor: end" x="27.31" y="101.911875" transform="rotate(-0 27.31 101.911875)">0.0</text>
     </g>
    </g>
    <g id="ytick_2">
     <g id="line2d_21">
      <path d="M 34.31 60.578462 
L 540 60.578462 
" clip-path="url(#p6ff20a2f29)" style="fill: none; stroke: #b0b0b0; stroke-width: 0.8; stroke-linecap: square"/>
     </g>
     <g id="line2d_22">
      <g>
       <use xlink:href="#m2afe664f3f" x="34.31" y="60.578462" style="stroke: #000000; stroke-width: 0.8"/>
      </g>
     </g>
     <g id="text_12">
      <text style="font-size: 10px; font-family: 'Times New Roman'; text-anchor: end" x="27.31" y="64.050337" transform="rotate(-0 27.31 64.050337)">0.5</text>
     </g>
    </g>
    <g id="ytick_3">
     <g id="line2d_23">
      <path d="M 34.31 22.716923 
L 540 22.716923 
" clip-path="url(#p6ff20a2f29)" style="fill: none; stroke: #b0b0b0; stroke-width: 0.8; stroke-linecap: square"/>
     </g>
     <g id="line2d_24">
      <g>
       <use xlink:href="#m2afe664f3f" x="34.31" y="22.716923" style="stroke: #000000; stroke-width: 0.8"/>
      </g>
     </g>
     <g id="text_13">
      <text style="font-size: 10px; font-family: 'Times New Roman'; text-anchor: end" x="27.31" y="26.188798" transform="rotate(-0 27.31 26.188798)">1.0</text>
     </g>
    </g>
    <g id="text_14">
     <text style="font-size: 12px; font-family: 'Times New Roman'; text-anchor: middle" x="8.243125" y="49.22" transform="rotate(-90 8.243125 49.22)">Normalized Value</text>
    </g>
   </g>
   <g id="line2d_25">
    <path d="M 34.31 40.812505 
L 35.517041 35.110799 
L 36.724083 34.643951 
L 37.931124 31.057878 
L 39.138166 30.599196 
L 40.345207 33.440299 
L 41.552248 31.390988 
L 42.75929 24.762213 
L 43.966331 25.62467 
L 45.173373 25.757494 
L 46.380414 27.22638 
L 47.587456 26.389931 
L 50.001538 27.494298 
L 51.20858 25.994198 
L 52.415621 27.209796 
L 53.622663 27.371656 
L 54.829704 28.052084 
L 56.036745 28.397545 
L 58.450828 26.522769 
L 59.65787 27.163514 
L 60.864911 26.34613 
L 62.071953 26.8916 
L 63.278994 26.419546 
L 64.486035 25.749269 
L 65.693077 25.685715 
L 66.900118 24.946207 
L 68.10716 25.584003 
L 69.314201 24.817922 
L 70.521242 25.706752 
L 71.728284 24.865606 
L 72.935325 25.713189 
L 77.763491 24.506224 
L 78.970532 25.031101 
L 80.177574 25.077788 
L 81.384615 24.420015 
L 82.591657 24.761695 
L 83.798698 24.980987 
L 86.212781 24.3042 
L 87.419822 24.411818 
L 88.626864 23.363085 
L 89.833905 23.123178 
L 91.040946 22.720375 
L 93.455029 22.411896 
L 94.662071 22.62258 
L 95.869112 22.435688 
L 97.076153 22.507258 
L 98.283195 22.003868 
L 99.490236 20.953482 
L 100.697278 21.071698 
L 101.904319 21.452895 
L 103.111361 21.134029 
L 104.318402 20.160347 
L 105.525443 20.630467 
L 106.732485 21.221456 
L 107.939526 21.116917 
L 109.146568 21.158807 
L 110.353609 20.864862 
L 111.56065 20.936077 
L 115.181775 21.943919 
L 117.595858 21.351129 
L 121.216982 21.638667 
L 122.424023 21.492216 
L 123.631065 21.163963 
L 124.838106 20.059732 
L 127.252189 20.700577 
L 128.45923 20.432206 
L 130.873313 20.637186 
L 132.080354 20.051605 
L 133.287396 20.319403 
L 134.494437 20.076089 
L 135.701479 19.65193 
L 136.90852 19.429235 
L 138.115562 19.813342 
L 139.322603 19.530912 
L 140.529644 19.829238 
L 141.736686 19.436342 
L 142.943727 19.347641 
L 146.564851 19.730002 
L 150.185976 20.514429 
L 151.393017 20.517784 
L 153.8071 21.106737 
L 157.428224 20.857453 
L 158.635266 20.502183 
L 161.049348 20.334022 
L 163.463431 20.389851 
L 164.670473 20.397227 
L 165.877514 20.612491 
L 167.084555 20.600676 
L 168.291597 20.83065 
L 169.498638 20.73468 
L 170.70568 20.296587 
L 176.740887 20.673362 
L 177.947928 20.532599 
L 179.15497 20.795889 
L 180.362011 20.735054 
L 181.569052 20.809197 
L 185.190177 21.465683 
L 186.397218 21.261277 
L 187.604259 21.233825 
L 191.225384 21.543444 
L 194.846508 21.232418 
L 197.260591 21.317853 
L 198.467632 21.156566 
L 199.674674 21.149644 
L 200.881715 21.305431 
L 203.295798 21.370028 
L 204.502839 21.184699 
L 206.916922 21.306727 
L 209.331005 21.390954 
L 210.538046 21.505659 
L 211.745088 21.391527 
L 212.952129 21.428844 
L 214.159171 21.63774 
L 215.366212 21.646971 
L 216.573253 21.773008 
L 220.194378 21.607823 
L 221.401419 21.930215 
L 222.60846 22.131254 
L 228.643668 22.444766 
L 232.264792 22.457598 
L 233.471833 22.34237 
L 234.678875 22.517398 
L 238.299999 22.661171 
L 241.921123 22.42872 
L 243.128164 22.561121 
L 245.542247 22.327158 
L 246.749289 22.457915 
L 247.95633 22.176891 
L 249.163372 22.366546 
L 253.991537 22.499616 
L 255.198579 22.31818 
L 257.612661 22.500334 
L 258.819703 22.673738 
L 261.233786 22.728137 
L 263.647868 22.859656 
L 264.85491 22.641576 
L 267.268993 22.756489 
L 269.683076 22.800622 
L 272.097158 22.794775 
L 274.511241 22.828595 
L 276.925324 22.73272 
L 279.339407 22.460335 
L 281.75349 22.63931 
L 282.960531 22.709448 
L 285.374614 22.611755 
L 288.995738 22.703692 
L 292.616862 22.917255 
L 296.237987 23.092256 
L 298.652069 23.064351 
L 301.066152 22.935985 
L 302.273194 22.93401 
L 304.687277 23.187313 
L 308.308401 23.047268 
L 309.515442 23.182507 
L 310.722484 23.176323 
L 311.929525 23.288138 
L 314.343608 23.375582 
L 315.550649 23.453251 
L 316.757691 23.380433 
L 317.964732 23.454254 
L 319.171773 23.409404 
L 325.206981 23.870883 
L 330.035146 23.718331 
L 339.691478 23.912482 
L 342.10556 23.738484 
L 344.519643 23.628717 
L 351.761892 23.663096 
L 354.175974 23.674825 
L 355.383016 23.768058 
L 362.625264 23.522786 
L 367.45343 23.672071 
L 371.074554 23.79607 
L 373.488637 23.756635 
L 374.695678 23.860095 
L 379.523844 23.621698 
L 385.559051 23.642145 
L 386.766093 23.55514 
L 390.387217 23.635073 
L 391.594258 23.474299 
L 406.078755 23.246362 
L 409.699879 23.414647 
L 410.906921 23.327191 
L 412.113962 23.415113 
L 413.321004 23.362993 
L 415.735087 23.444253 
L 424.184376 23.451644 
L 425.391418 23.261871 
L 427.805501 23.250664 
L 429.012542 23.368369 
L 436.254791 23.175917 
L 437.461832 22.963509 
L 439.875915 23.044799 
L 443.497039 22.984367 
L 444.70408 23.07621 
L 449.532246 22.824244 
L 453.15337 23.003103 
L 462.809702 23.232114 
L 472.466033 23.314509 
L 474.880116 23.291479 
L 479.708281 23.265966 
L 480.915323 23.124275 
L 486.95053 23.07985 
L 488.157571 23.076069 
L 489.364613 22.87287 
L 503.84911 22.831502 
L 512.2984 22.844745 
L 515.919524 22.716923 
L 515.919524 22.716923 
" clip-path="url(#p6ff20a2f29)" style="fill: none; stroke: #4169e1; stroke-width: 1.5; stroke-linecap: square"/>
   </g>
   <g id="line2d_26">
    <path d="M 34.31 98.44 
L 35.517041 92.807196 
L 36.724083 94.609271 
L 37.931124 88.882368 
L 39.138166 90.648081 
L 40.345207 84.953806 
L 41.552248 82.514422 
L 42.75929 31.210949 
L 45.173373 43.701302 
L 46.380414 44.9391 
L 48.794497 51.343869 
L 50.001538 53.977805 
L 51.20858 51.483325 
L 52.415621 50.577632 
L 53.622663 53.320436 
L 54.829704 54.463348 
L 56.036745 56.405701 
L 57.243787 55.408737 
L 58.450828 54.622205 
L 59.65787 55.120082 
L 60.864911 54.456785 
L 62.071953 55.103692 
L 63.278994 55.910508 
L 64.486035 55.600166 
L 65.693077 57.168631 
L 66.900118 56.084235 
L 68.10716 55.571284 
L 69.314201 54.051327 
L 70.521242 51.3767 
L 72.935325 46.560685 
L 75.349408 48.587005 
L 77.763491 50.059033 
L 78.970532 49.566046 
L 80.177574 50.804874 
L 81.384615 49.072064 
L 82.591657 49.467039 
L 83.798698 50.29144 
L 85.005739 50.299994 
L 86.212781 50.78455 
L 87.419822 51.755266 
L 88.626864 44.194701 
L 89.833905 44.890125 
L 91.040946 44.684458 
L 92.247988 45.484166 
L 93.455029 46.422252 
L 95.869112 47.73713 
L 97.076153 48.647637 
L 98.283195 47.2427 
L 99.490236 37.850542 
L 100.697278 38.799318 
L 101.904319 38.4357 
L 103.111361 38.466087 
L 104.318402 29.955124 
L 105.525443 28.837183 
L 106.732485 26.347223 
L 109.146568 28.503359 
L 110.353609 28.652952 
L 111.56065 29.670359 
L 112.767692 29.272942 
L 113.974733 29.33605 
L 115.181775 28.854335 
L 116.388816 28.938166 
L 117.595858 28.762428 
L 118.802899 29.614083 
L 120.00994 30.124727 
L 121.216982 31.060083 
L 122.424023 31.699337 
L 123.631065 31.207676 
L 124.838106 16.247168 
L 126.045147 16.281708 
L 127.252189 15.59849 
L 128.45923 15.673739 
L 130.873313 17.429702 
L 132.080354 13.605102 
L 133.287396 13.608288 
L 134.494437 13.766801 
L 135.701479 12.144466 
L 136.90852 12.417514 
L 138.115562 11.20783 
L 139.322603 10.996689 
L 140.529644 10.622198 
L 141.736686 9.21749 
L 144.150769 10.879835 
L 145.35781 11.260996 
L 146.564851 12.041687 
L 147.771893 12.114699 
L 148.978934 11.908583 
L 150.185976 11.316863 
L 151.393017 12.205685 
L 152.600058 11.862318 
L 153.8071 10.954854 
L 157.428224 13.116206 
L 158.635266 11.684108 
L 159.842307 12.272565 
L 164.670473 15.258514 
L 165.877514 15.139556 
L 167.084555 15.88735 
L 168.291597 15.607257 
L 169.498638 16.161558 
L 170.70568 13.125562 
L 173.119763 14.507431 
L 174.326804 14.850883 
L 175.533845 15.52112 
L 176.740887 15.295736 
L 177.947928 15.580061 
L 179.15497 14.823522 
L 181.569052 15.989977 
L 182.776094 15.774081 
L 183.983135 14.843694 
L 185.190177 14.797583 
L 186.397218 14.544024 
L 187.604259 15.182878 
L 188.811301 15.573487 
L 190.018342 15.840743 
L 191.225384 16.348786 
L 192.432425 16.673367 
L 193.639467 16.771085 
L 197.260591 18.377815 
L 198.467632 18.349224 
L 199.674674 18.928454 
L 200.881715 18.92017 
L 203.295798 19.996191 
L 204.502839 19.709502 
L 205.709881 20.002835 
L 208.123963 21.074863 
L 209.331005 21.43934 
L 211.745088 21.817519 
L 212.952129 22.296054 
L 214.159171 21.677098 
L 215.366212 22.183247 
L 216.573253 22.269327 
L 218.987336 23.216989 
L 220.194378 23.174766 
L 221.401419 20.865871 
L 222.60846 20.267524 
L 223.815502 20.614294 
L 225.022543 20.795762 
L 227.436626 21.533934 
L 228.643668 21.674076 
L 229.850709 22.144861 
L 232.264792 22.837011 
L 233.471833 22.912862 
L 234.678875 22.483993 
L 235.885916 22.856526 
L 237.092957 23.075373 
L 238.299999 23.518473 
L 239.50704 23.572959 
L 240.714082 23.999799 
L 241.921123 24.123345 
L 243.128164 24.024985 
L 244.335206 24.133049 
L 246.749289 23.930751 
L 247.95633 21.927344 
L 249.163372 21.245457 
L 250.370413 21.641324 
L 251.577454 21.759157 
L 253.991537 22.595062 
L 255.198579 21.963473 
L 256.40562 22.178866 
L 257.612661 22.246506 
L 258.819703 21.684902 
L 260.026744 22.0724 
L 262.440827 22.562894 
L 263.647868 22.77872 
L 264.85491 21.598877 
L 266.061951 21.992623 
L 267.268993 22.029019 
L 276.925324 24.482568 
L 279.339407 23.906446 
L 280.546448 23.668584 
L 282.960531 24.132174 
L 284.167573 24.110789 
L 285.374614 24.46551 
L 286.581655 24.667086 
L 288.995738 25.216496 
L 291.409821 25.840753 
L 292.616862 25.220995 
L 293.823904 25.351832 
L 295.030945 25.676766 
L 296.237987 25.755023 
L 298.652069 26.388461 
L 299.859111 26.226377 
L 302.273194 26.865067 
L 304.687277 26.26165 
L 307.101359 26.284724 
L 308.308401 26.547836 
L 309.515442 26.139256 
L 310.722484 26.45209 
L 311.929525 26.265476 
L 313.136566 26.576435 
L 315.550649 26.627921 
L 317.964732 26.800527 
L 319.171773 27.02055 
L 321.585856 26.716566 
L 322.792898 26.913532 
L 325.206981 26.649371 
L 326.414022 26.770075 
L 327.621063 26.729365 
L 331.242188 27.526394 
L 332.449229 27.66236 
L 333.65627 27.540524 
L 334.863312 27.59563 
L 337.277395 28.077819 
L 338.484436 27.557958 
L 340.898519 27.913124 
L 342.10556 27.34335 
L 343.312602 27.322764 
L 346.933726 28.081232 
L 349.347809 28.131029 
L 350.55485 28.293665 
L 351.761892 27.229158 
L 354.175974 27.533649 
L 355.383016 27.39859 
L 356.590057 27.56295 
L 357.797099 27.363816 
L 360.211182 27.673432 
L 361.418223 26.525457 
L 365.039347 26.978779 
L 366.246389 26.812591 
L 367.45343 27.070531 
L 369.867513 27.207952 
L 373.488637 27.881545 
L 374.695678 27.607851 
L 375.90272 27.496587 
L 377.109761 27.737497 
L 378.316803 27.127513 
L 381.937927 27.70205 
L 385.559051 27.961077 
L 386.766093 27.818628 
L 389.180175 28.152134 
L 390.387217 28.04346 
L 391.594258 26.954808 
L 394.008341 27.406544 
L 395.215383 27.344973 
L 396.422424 27.523391 
L 397.629465 27.276263 
L 398.836507 27.330063 
L 400.043548 27.561029 
L 401.25059 26.44772 
L 403.664672 26.721864 
L 404.871714 26.824469 
L 406.078755 27.048626 
L 407.285797 26.823231 
L 408.492838 27.051571 
L 413.321004 26.622358 
L 414.528045 26.558116 
L 420.563252 27.561096 
L 421.770294 27.221656 
L 422.977335 27.189858 
L 424.184376 26.953854 
L 425.391418 25.152048 
L 427.805501 25.572528 
L 429.012542 25.009715 
L 431.426625 25.314467 
L 432.633666 24.67273 
L 436.254791 24.840845 
L 437.461832 22.449575 
L 438.668873 22.190935 
L 439.875915 22.411254 
L 442.289998 22.546052 
L 443.497039 22.662469 
L 444.70408 22.387769 
L 445.911122 22.293989 
L 447.118163 22.515233 
L 448.325205 21.179806 
L 449.532246 21.378526 
L 450.739288 21.071502 
L 455.567453 21.640415 
L 456.774495 21.859064 
L 457.981536 21.822051 
L 459.188577 22.03861 
L 460.395619 22.109073 
L 461.60266 21.943739 
L 466.430826 22.716814 
L 474.880116 23.434132 
L 476.087157 23.636579 
L 477.294199 23.54469 
L 478.50124 23.293305 
L 479.708281 23.353292 
L 480.915323 22.268615 
L 484.536447 22.82686 
L 488.157571 23.308415 
L 489.364613 20.810054 
L 491.778696 21.140168 
L 492.985737 20.328994 
L 494.192778 20.498738 
L 495.39982 20.530091 
L 496.606861 20.704315 
L 497.813903 20.610666 
L 501.435027 21.073296 
L 507.470234 21.932392 
L 509.884317 22.249189 
L 513.505441 22.641019 
L 514.712482 22.561512 
L 515.919524 22.716923 
L 515.919524 22.716923 
" clip-path="url(#p6ff20a2f29)" style="fill: none; stroke-dasharray: 5.55,2.4; stroke-dashoffset: 0; stroke: #4169e1; stroke-width: 1.5"/>
   </g>
   <g id="line2d_27">
    <path d="M 34.31 35.484995 
L 35.517041 32.082768 
L 36.724083 32.223048 
L 37.931124 31.015444 
L 39.138166 30.075849 
L 40.345207 31.874607 
L 41.552248 30.631091 
L 42.75929 24.717699 
L 43.966331 25.081639 
L 45.173373 24.805468 
L 46.380414 26.148747 
L 47.587456 25.761879 
L 48.794497 25.709963 
L 50.001538 26.197607 
L 51.20858 24.911554 
L 52.415621 25.854694 
L 53.622663 25.930881 
L 54.829704 26.374819 
L 56.036745 27.089453 
L 57.243787 26.108823 
L 58.450828 25.375448 
L 59.65787 25.820654 
L 60.864911 25.049637 
L 62.071953 25.368469 
L 63.278994 25.102951 
L 64.486035 24.274977 
L 65.693077 24.130493 
L 66.900118 23.480043 
L 68.10716 23.841412 
L 69.314201 23.187517 
L 70.521242 24.020188 
L 71.728284 23.551092 
L 72.935325 24.183525 
L 74.142367 24.224336 
L 76.556449 23.775648 
L 77.763491 23.621693 
L 78.970532 23.936887 
L 80.177574 24.031352 
L 81.384615 23.560892 
L 83.798698 23.8444 
L 85.005739 23.686432 
L 87.419822 23.687305 
L 88.626864 22.944284 
L 89.833905 22.892423 
L 91.040946 22.633363 
L 92.247988 22.603533 
L 93.455029 22.438228 
L 94.662071 22.696624 
L 98.283195 22.148299 
L 99.490236 21.579116 
L 100.697278 21.693304 
L 101.904319 21.943261 
L 103.111361 21.655387 
L 104.318402 21.149036 
L 105.525443 21.50185 
L 106.732485 22.07184 
L 107.939526 21.993241 
L 110.353609 22.014751 
L 111.56065 21.971526 
L 113.974733 22.445887 
L 115.181775 22.702716 
L 116.388816 22.606704 
L 117.595858 22.396698 
L 121.216982 22.531096 
L 123.631065 22.266374 
L 124.838106 21.409494 
L 126.045147 21.560621 
L 127.252189 21.884261 
L 128.45923 21.75544 
L 130.873313 21.880542 
L 132.080354 21.392473 
L 133.287396 21.580851 
L 135.701479 21.086608 
L 136.90852 20.905767 
L 138.115562 21.171448 
L 139.322603 20.958195 
L 140.529644 21.204973 
L 141.736686 20.968001 
L 142.943727 20.860834 
L 147.771893 21.234839 
L 150.185976 21.598356 
L 151.393017 21.571466 
L 153.8071 22.018286 
L 156.221183 21.832366 
L 157.428224 21.807341 
L 158.635266 21.473489 
L 164.670473 21.321737 
L 165.877514 21.518432 
L 167.084555 21.482843 
L 168.291597 21.642808 
L 169.498638 21.562676 
L 170.70568 21.197692 
L 174.326804 21.483169 
L 175.533845 21.42857 
L 176.740887 21.628847 
L 177.947928 21.52784 
L 179.15497 21.70911 
L 181.569052 21.744792 
L 185.190177 22.173368 
L 186.397218 22.029433 
L 188.811301 22.142713 
L 191.225384 22.318569 
L 196.053549 21.996847 
L 197.260591 21.972589 
L 198.467632 21.829245 
L 199.674674 21.800383 
L 202.088756 21.900588 
L 212.952129 21.816993 
L 214.159171 21.961377 
L 215.366212 21.9427 
L 216.573253 22.047244 
L 220.194378 21.882732 
L 221.401419 22.161392 
L 223.815502 22.348872 
L 225.022543 22.398291 
L 226.229585 22.298739 
L 228.643668 22.429152 
L 231.05775 22.471693 
L 233.471833 22.334482 
L 234.678875 22.453672 
L 237.092957 22.495126 
L 238.299999 22.536581 
L 241.921123 22.383156 
L 243.128164 22.507159 
L 245.542247 22.294459 
L 246.749289 22.427537 
L 247.95633 22.238612 
L 250.370413 22.44009 
L 252.784496 22.52671 
L 257.612661 22.528791 
L 258.819703 22.718586 
L 260.026744 22.696875 
L 263.647868 22.881194 
L 264.85491 22.744211 
L 267.268993 22.828923 
L 270.890117 22.85381 
L 274.511241 22.892883 
L 280.546448 22.698455 
L 299.859111 22.853675 
L 303.480235 22.951762 
L 304.687277 23.048722 
L 308.308401 22.937674 
L 311.929525 23.103379 
L 314.343608 23.121982 
L 315.550649 23.189266 
L 316.757691 23.123927 
L 317.964732 23.183471 
L 319.171773 23.108515 
L 321.585856 23.284348 
L 323.999939 23.366447 
L 325.206981 23.440269 
L 330.035146 23.293067 
L 336.070353 23.449304 
L 337.277395 23.428727 
L 338.484436 23.522276 
L 343.312602 23.297141 
L 348.140767 23.348085 
L 350.55485 23.411778 
L 351.761892 23.298772 
L 360.211182 23.395166 
L 361.418223 23.221002 
L 367.45343 23.393089 
L 371.074554 23.496068 
L 373.488637 23.461544 
L 374.695678 23.531979 
L 379.523844 23.380379 
L 384.35201 23.400523 
L 406.078755 23.129006 
L 409.699879 23.265015 
L 413.321004 23.255542 
L 416.942128 23.29921 
L 421.770294 23.351395 
L 422.977335 23.404094 
L 427.805501 23.179764 
L 429.012542 23.280253 
L 438.668873 23.049126 
L 447.118163 22.966166 
L 448.325205 22.838901 
L 450.739288 22.906771 
L 457.981536 23.047021 
L 460.395619 23.083331 
L 462.809702 23.157212 
L 479.708281 23.159514 
L 482.122364 23.043559 
L 489.364613 22.894902 
L 496.606861 22.81831 
L 499.020944 22.85024 
L 506.263193 22.851622 
L 512.2984 22.81443 
L 515.919524 22.716923 
L 515.919524 22.716923 
" clip-path="url(#p6ff20a2f29)" style="fill: none; stroke: #ff8c00; stroke-width: 1.5; stroke-linecap: square"/>
   </g>
   <g id="line2d_28">
    <path d="M 34.31 98.44 
L 35.517041 94.989635 
L 36.724083 96.128025 
L 37.931124 95.401925 
L 39.138166 94.9569 
L 40.345207 90.715117 
L 41.552248 89.05305 
L 42.75929 17.262219 
L 43.966331 25.966117 
L 45.173373 33.00889 
L 46.380414 33.578545 
L 48.794497 43.094592 
L 50.001538 46.126353 
L 51.20858 42.711784 
L 52.415621 42.217554 
L 53.622663 45.497074 
L 54.829704 47.439654 
L 56.036745 47.383706 
L 57.243787 44.490202 
L 58.450828 43.852818 
L 59.65787 45.093316 
L 60.864911 43.514314 
L 63.278994 46.734953 
L 64.486035 43.614892 
L 65.693077 45.483662 
L 66.900118 43.969862 
L 68.10716 44.758215 
L 69.314201 42.851434 
L 70.521242 38.444406 
L 71.728284 38.285863 
L 72.935325 36.293505 
L 74.142367 38.10496 
L 75.349408 39.183856 
L 77.763491 41.740904 
L 78.970532 42.137278 
L 80.177574 43.479856 
L 81.384615 42.28081 
L 82.591657 43.200997 
L 83.798698 44.418676 
L 85.005739 45.362573 
L 87.419822 47.680357 
L 88.626864 41.378346 
L 89.833905 42.555546 
L 91.040946 42.779569 
L 92.247988 43.902764 
L 93.455029 44.594389 
L 94.662071 44.655056 
L 95.869112 45.239929 
L 97.076153 46.177046 
L 98.283195 45.618761 
L 99.490236 41.364369 
L 100.697278 42.169809 
L 101.904319 42.11407 
L 103.111361 41.677154 
L 104.318402 38.206534 
L 105.525443 37.021244 
L 106.732485 32.217473 
L 111.56065 36.073059 
L 112.767692 36.317653 
L 113.974733 35.655406 
L 115.181775 35.261364 
L 116.388816 35.990147 
L 117.595858 35.975193 
L 118.802899 36.789838 
L 120.00994 37.420954 
L 121.216982 38.243827 
L 122.424023 38.563515 
L 123.631065 39.074778 
L 124.838106 23.440918 
L 126.045147 23.897517 
L 127.252189 22.449087 
L 128.45923 23.025161 
L 130.873313 24.678144 
L 132.080354 19.826109 
L 133.287396 19.905875 
L 134.494437 18.833538 
L 135.701479 18.67208 
L 136.90852 18.77101 
L 138.115562 17.87725 
L 139.322603 17.613369 
L 141.736686 16.340007 
L 142.943727 16.934096 
L 144.150769 17.681304 
L 145.35781 18.260068 
L 146.564851 19.065224 
L 147.771893 19.199557 
L 150.185976 18.962346 
L 151.393017 19.752437 
L 152.600058 19.213614 
L 153.8071 18.401692 
L 155.014141 18.70432 
L 157.428224 20.13418 
L 158.635266 17.465082 
L 161.049348 18.879054 
L 162.25639 19.161675 
L 164.670473 20.504488 
L 165.877514 19.955943 
L 167.084555 20.621477 
L 168.291597 20.469623 
L 169.498638 20.945255 
L 170.70568 17.137945 
L 171.912721 17.313584 
L 173.119763 17.964601 
L 174.326804 18.130337 
L 175.533845 18.70696 
L 176.740887 17.966138 
L 177.947928 18.274858 
L 179.15497 17.762028 
L 180.362011 18.379928 
L 181.569052 18.850746 
L 182.776094 18.919242 
L 183.983135 17.826996 
L 185.190177 18.182934 
L 186.397218 18.036766 
L 187.604259 18.636407 
L 188.811301 18.973912 
L 190.018342 19.127083 
L 191.225384 19.56009 
L 192.432425 19.774894 
L 193.639467 19.59467 
L 194.846508 19.83472 
L 197.260591 20.962145 
L 198.467632 20.694695 
L 199.674674 21.224049 
L 200.881715 21.48987 
L 203.295798 22.56065 
L 204.502839 22.857693 
L 210.538046 24.871864 
L 211.745088 24.952991 
L 212.952129 25.395986 
L 214.159171 24.957049 
L 215.366212 25.428094 
L 216.573253 25.416498 
L 217.780295 25.736084 
L 218.987336 26.195776 
L 220.194378 26.298088 
L 221.401419 23.172812 
L 222.60846 22.811136 
L 225.022543 23.516832 
L 226.229585 23.515383 
L 227.436626 23.97378 
L 228.643668 23.76156 
L 232.264792 24.896847 
L 233.471833 24.99937 
L 234.678875 24.736179 
L 235.885916 25.162676 
L 238.299999 25.775764 
L 239.50704 25.833619 
L 241.921123 26.541236 
L 243.128164 26.161492 
L 244.335206 26.178063 
L 246.749289 25.251476 
L 247.95633 23.779474 
L 249.163372 23.204152 
L 250.370413 23.398665 
L 251.577454 23.328441 
L 253.991537 24.126844 
L 255.198579 23.719415 
L 257.612661 23.96443 
L 258.819703 22.365511 
L 260.026744 22.743889 
L 261.233786 22.693669 
L 262.440827 22.877414 
L 263.647868 23.211831 
L 264.85491 22.53531 
L 266.061951 22.927738 
L 267.268993 22.865483 
L 269.683076 23.522942 
L 273.3042 24.427367 
L 275.718283 24.922252 
L 276.925324 25.134357 
L 278.132365 24.972552 
L 280.546448 24.285872 
L 281.75349 24.629106 
L 284.167573 24.846714 
L 285.374614 25.166418 
L 286.581655 25.292527 
L 291.409821 26.601561 
L 292.616862 26.243484 
L 298.652069 27.388552 
L 299.859111 27.235587 
L 302.273194 27.864131 
L 303.480235 27.746553 
L 304.687277 27.433013 
L 305.894318 27.474155 
L 307.101359 27.357134 
L 308.308401 27.596911 
L 309.515442 27.38913 
L 310.722484 27.680116 
L 311.929525 27.720614 
L 314.343608 28.131469 
L 319.171773 28.069857 
L 320.378815 27.581278 
L 321.585856 27.525439 
L 322.792898 27.816899 
L 325.206981 27.612689 
L 326.414022 27.759926 
L 327.621063 27.576549 
L 331.242188 28.284538 
L 332.449229 28.463862 
L 333.65627 28.310239 
L 337.277395 28.893495 
L 338.484436 28.510996 
L 339.691478 28.427474 
L 340.898519 28.697511 
L 343.312602 28.402445 
L 345.726685 28.861399 
L 346.933726 29.06527 
L 349.347809 29.19367 
L 350.55485 29.430982 
L 351.761892 28.691236 
L 352.968933 28.898891 
L 354.175974 28.847431 
L 355.383016 28.436285 
L 356.590057 28.674203 
L 357.797099 28.357497 
L 360.211182 28.684857 
L 361.418223 26.490976 
L 363.832306 26.618384 
L 365.039347 26.855288 
L 366.246389 26.666018 
L 367.45343 26.901028 
L 369.867513 26.985593 
L 371.074554 27.240667 
L 372.281596 27.306185 
L 373.488637 27.544453 
L 374.695678 27.377941 
L 375.90272 27.373247 
L 377.109761 27.622533 
L 378.316803 27.206041 
L 380.730886 27.639699 
L 381.937927 27.723898 
L 383.144968 27.954827 
L 384.35201 27.880749 
L 385.559051 28.096561 
L 386.766093 27.957008 
L 389.180175 28.138189 
L 390.387217 28.053791 
L 391.594258 26.629451 
L 394.008341 27.060836 
L 396.422424 27.36004 
L 397.629465 27.094923 
L 398.836507 27.074252 
L 400.043548 27.291944 
L 401.25059 26.451849 
L 406.078755 27.046385 
L 407.285797 26.69517 
L 408.492838 26.921362 
L 409.699879 26.776437 
L 410.906921 26.873444 
L 412.113962 26.743156 
L 413.321004 26.864034 
L 414.528045 26.853831 
L 420.563252 27.922641 
L 421.770294 27.517641 
L 424.184376 27.359039 
L 425.391418 25.416984 
L 427.805501 25.724831 
L 429.012542 24.96224 
L 430.219583 25.019845 
L 431.426625 25.205238 
L 432.633666 24.912952 
L 435.047749 24.874631 
L 436.254791 24.999483 
L 437.461832 23.146431 
L 438.668873 22.813109 
L 439.875915 23.032234 
L 441.082956 22.935416 
L 442.289998 22.956732 
L 443.497039 23.1065 
L 445.911122 22.684021 
L 447.118163 22.904348 
L 448.325205 21.467978 
L 449.532246 21.66832 
L 450.739288 21.185667 
L 451.946329 21.254808 
L 453.15337 21.449993 
L 454.360412 21.523001 
L 456.774495 21.928412 
L 457.981536 21.885481 
L 459.188577 22.074991 
L 460.395619 22.001157 
L 461.60266 21.75973 
L 467.637867 22.707603 
L 468.844909 22.711527 
L 472.466033 23.153822 
L 473.673074 23.083977 
L 476.087157 23.455054 
L 477.294199 23.398723 
L 478.50124 22.994356 
L 479.708281 23.069974 
L 480.915323 22.264427 
L 488.157571 23.255282 
L 489.364613 20.919921 
L 491.778696 21.174154 
L 492.985737 20.494363 
L 496.606861 20.888281 
L 497.813903 20.78119 
L 513.505441 22.737185 
L 514.712482 22.52794 
L 515.919524 22.716923 
L 515.919524 22.716923 
" clip-path="url(#p6ff20a2f29)" style="fill: none; stroke-dasharray: 5.55,2.4; stroke-dashoffset: 0; stroke: #ff8c00; stroke-width: 1.5"/>
   </g>
   <g id="patch_3">
    <path d="M 34.31 98.44 
L 34.31 0 
" style="fill: none; stroke: #000000; stroke-width: 0.8; stroke-linejoin: miter; stroke-linecap: square"/>
   </g>
   <g id="patch_4">
    <path d="M 540 98.44 
L 540 0 
" style="fill: none; stroke: #000000; stroke-width: 0.8; stroke-linejoin: miter; stroke-linecap: square"/>
   </g>
   <g id="patch_5">
    <path d="M 34.31 98.44 
L 540 98.44 
" style="fill: none; stroke: #000000; stroke-width: 0.8; stroke-linejoin: miter; stroke-linecap: square"/>
   </g>
   <g id="patch_6">
    <path d="M 34.31 0 
L 540 0 
" style="fill: none; stroke: #000000; stroke-width: 0.8; stroke-linejoin: miter; stroke-linecap: square"/>
   </g>
  </g>
 </g>
 <defs>
  <clipPath id="p6ff20a2f29">
   <rect x="34.31" y="0" width="505.69" height="98.44"/>
  </clipPath>
 </defs>
</svg>
