<?xml version="1.0" encoding="utf-8" standalone="no"?>
<!DOCTYPE svg PUBLIC "-//W3C//DTD SVG 1.1//EN"
  "http://www.w3.org/Graphics/SVG/1.1/DTD/svg11.dtd">
<svg xmlns:xlink="http://www.w3.org/1999/xlink" width="540pt" height="129.6pt" viewBox="0 0 540 129.6" xmlns="http://www.w3.org/2000/svg" version="1.1">
 <metadata>
  <rdf:RDF xmlns:dc="http://purl.org/dc/elements/1.1/" xmlns:cc="http://creativecommons.org/ns#" xmlns:rdf="http://www.w3.org/1999/02/22-rdf-syntax-ns#">
   <cc:Work>
    <dc:type rdf:resource="http://purl.org/dc/dcmitype/StillImage"/>
    <dc:date>2025-03-31T01:43:24.763279</dc:date>
    <dc:format>image/svg+xml</dc:format>
    <dc:creator>
     <cc:Agent>
      <dc:title>Matplotlib v3.9.0, https://matplotlib.org/</dc:title>
     </cc:Agent>
    </dc:creator>
   </cc:Work>
  </rdf:RDF>
 </metadata>
 <defs>
  <style type="text/css">*{stroke-linejoin: round; stroke-linecap: butt}</style>
 </defs>
 <g id="figure_1">
  <g id="patch_1">
   <path d="M 0 129.6 
L 540 129.6 
L 540 0 
L 0 0 
z
" style="fill: #ffffff"/>
  </g>
  <g id="axes_1">
   <g id="patch_2">
    <path d="M 35.12 97 
L 540 97 
L 540 0 
L 35.12 0 
z
" style="fill: #ffffff"/>
   </g>
   <g id="matplotlib.axis_1">
    <g id="xtick_1">
     <g id="line2d_1">
      <path d="M 35.12 97 
L 35.12 0 
" clip-path="url(#p0ddde236e1)" style="fill: none; stroke: #b0b0b0; stroke-width: 0.8; stroke-linecap: square"/>
     </g>
     <g id="line2d_2">
      <defs>
       <path id="m72994ee22d" d="M 0 0 
L 0 3.5 
" style="stroke: #000000; stroke-width: 0.8"/>
      </defs>
      <g>
       <use xlink:href="#m72994ee22d" x="35.12" y="97" style="stroke: #000000; stroke-width: 0.8"/>
      </g>
     </g>
     <g id="text_1">
      <text style="font: 10px 'Times New Roman'; text-anchor: middle" x="35.12" y="110.94375" transform="rotate(-0 35.12 110.94375)">0</text>
     </g>
    </g>
    <g id="xtick_2">
     <g id="line2d_3">
      <path d="M 95.3754 97 
L 95.3754 0 
" clip-path="url(#p0ddde236e1)" style="fill: none; stroke: #b0b0b0; stroke-width: 0.8; stroke-linecap: square"/>
     </g>
     <g id="line2d_4">
      <g>
       <use xlink:href="#m72994ee22d" x="95.3754" y="97" style="stroke: #000000; stroke-width: 0.8"/>
      </g>
     </g>
     <g id="text_2">
      <text style="font: 10px 'Times New Roman'; text-anchor: middle" x="95.3754" y="110.94375" transform="rotate(-0 95.3754 110.94375)">50</text>
     </g>
    </g>
    <g id="xtick_3">
     <g id="line2d_5">
      <path d="M 155.630801 97 
L 155.630801 0 
" clip-path="url(#p0ddde236e1)" style="fill: none; stroke: #b0b0b0; stroke-width: 0.8; stroke-linecap: square"/>
     </g>
     <g id="line2d_6">
      <g>
       <use xlink:href="#m72994ee22d" x="155.630801" y="97" style="stroke: #000000; stroke-width: 0.8"/>
      </g>
     </g>
     <g id="text_3">
      <text style="font: 10px 'Times New Roman'; text-anchor: middle" x="155.630801" y="110.94375" transform="rotate(-0 155.630801 110.94375)">100</text>
     </g>
    </g>
    <g id="xtick_4">
     <g id="line2d_7">
      <path d="M 215.886201 97 
L 215.886201 0 
" clip-path="url(#p0ddde236e1)" style="fill: none; stroke: #b0b0b0; stroke-width: 0.8; stroke-linecap: square"/>
     </g>
     <g id="line2d_8">
      <g>
       <use xlink:href="#m72994ee22d" x="215.886201" y="97" style="stroke: #000000; stroke-width: 0.8"/>
      </g>
     </g>
     <g id="text_4">
      <text style="font: 10px 'Times New Roman'; text-anchor: middle" x="215.886201" y="110.94375" transform="rotate(-0 215.886201 110.94375)">150</text>
     </g>
    </g>
    <g id="xtick_5">
     <g id="line2d_9">
      <path d="M 276.141602 97 
L 276.141602 0 
" clip-path="url(#p0ddde236e1)" style="fill: none; stroke: #b0b0b0; stroke-width: 0.8; stroke-linecap: square"/>
     </g>
     <g id="line2d_10">
      <g>
       <use xlink:href="#m72994ee22d" x="276.141602" y="97" style="stroke: #000000; stroke-width: 0.8"/>
      </g>
     </g>
     <g id="text_5">
      <text style="font: 10px 'Times New Roman'; text-anchor: middle" x="276.141602" y="110.94375" transform="rotate(-0 276.141602 110.94375)">200</text>
     </g>
    </g>
    <g id="xtick_6">
     <g id="line2d_11">
      <path d="M 336.397002 97 
L 336.397002 0 
" clip-path="url(#p0ddde236e1)" style="fill: none; stroke: #b0b0b0; stroke-width: 0.8; stroke-linecap: square"/>
     </g>
     <g id="line2d_12">
      <g>
       <use xlink:href="#m72994ee22d" x="336.397002" y="97" style="stroke: #000000; stroke-width: 0.8"/>
      </g>
     </g>
     <g id="text_6">
      <text style="font: 10px 'Times New Roman'; text-anchor: middle" x="336.397002" y="110.94375" transform="rotate(-0 336.397002 110.94375)">250</text>
     </g>
    </g>
    <g id="xtick_7">
     <g id="line2d_13">
      <path d="M 396.652402 97 
L 396.652402 0 
" clip-path="url(#p0ddde236e1)" style="fill: none; stroke: #b0b0b0; stroke-width: 0.8; stroke-linecap: square"/>
     </g>
     <g id="line2d_14">
      <g>
       <use xlink:href="#m72994ee22d" x="396.652402" y="97" style="stroke: #000000; stroke-width: 0.8"/>
      </g>
     </g>
     <g id="text_7">
      <text style="font: 10px 'Times New Roman'; text-anchor: middle" x="396.652402" y="110.94375" transform="rotate(-0 396.652402 110.94375)">300</text>
     </g>
    </g>
    <g id="xtick_8">
     <g id="line2d_15">
      <path d="M 456.907803 97 
L 456.907803 0 
" clip-path="url(#p0ddde236e1)" style="fill: none; stroke: #b0b0b0; stroke-width: 0.8; stroke-linecap: square"/>
     </g>
     <g id="line2d_16">
      <g>
       <use xlink:href="#m72994ee22d" x="456.907803" y="97" style="stroke: #000000; stroke-width: 0.8"/>
      </g>
     </g>
     <g id="text_8">
      <text style="font: 10px 'Times New Roman'; text-anchor: middle" x="456.907803" y="110.94375" transform="rotate(-0 456.907803 110.94375)">350</text>
     </g>
    </g>
    <g id="xtick_9">
     <g id="line2d_17">
      <path d="M 517.163203 97 
L 517.163203 0 
" clip-path="url(#p0ddde236e1)" style="fill: none; stroke: #b0b0b0; stroke-width: 0.8; stroke-linecap: square"/>
     </g>
     <g id="line2d_18">
      <g>
       <use xlink:href="#m72994ee22d" x="517.163203" y="97" style="stroke: #000000; stroke-width: 0.8"/>
      </g>
     </g>
     <g id="text_9">
      <text style="font: 10px 'Times New Roman'; text-anchor: middle" x="517.163203" y="110.94375" transform="rotate(-0 517.163203 110.94375)">400</text>
     </g>
    </g>
    <g id="text_10">
     <text style="font: 12px 'Times New Roman'; text-anchor: middle" x="287.56" y="125.415312" transform="rotate(-0 287.56 125.415312)">Simulation Run</text>
    </g>
   </g>
   <g id="matplotlib.axis_2">
    <g id="ytick_1">
     <g id="line2d_19">
      <path d="M 35.12 97 
L 540 97 
" clip-path="url(#p0ddde236e1)" style="fill: none; stroke: #b0b0b0; stroke-width: 0.8; stroke-linecap: square"/>
     </g>
     <g id="line2d_20">
      <defs>
       <path id="medae909296" d="M 0 0 
L -3.5 0 
" style="stroke: #000000; stroke-width: 0.8"/>
      </defs>
      <g>
       <use xlink:href="#medae909296" x="35.12" y="97" style="stroke: #000000; stroke-width: 0.8"/>
      </g>
     </g>
     <g id="text_11">
      <text style="font: 10px 'Times New Roman'; text-anchor: end" x="28.12" y="100.471875" transform="rotate(-0 28.12 100.471875)">0.0</text>
     </g>
    </g>
    <g id="ytick_2">
     <g id="line2d_21">
      <path d="M 35.12 68.470588 
L 540 68.470588 
" clip-path="url(#p0ddde236e1)" style="fill: none; stroke: #b0b0b0; stroke-width: 0.8; stroke-linecap: square"/>
     </g>
     <g id="line2d_22">
      <g>
       <use xlink:href="#medae909296" x="35.12" y="68.470588" style="stroke: #000000; stroke-width: 0.8"/>
      </g>
     </g>
     <g id="text_12">
      <text style="font: 10px 'Times New Roman'; text-anchor: end" x="28.12" y="71.942463" transform="rotate(-0 28.12 71.942463)">0.5</text>
     </g>
    </g>
    <g id="ytick_3">
     <g id="line2d_23">
      <path d="M 35.12 39.941176 
L 540 39.941176 
" clip-path="url(#p0ddde236e1)" style="fill: none; stroke: #b0b0b0; stroke-width: 0.8; stroke-linecap: square"/>
     </g>
     <g id="line2d_24">
      <g>
       <use xlink:href="#medae909296" x="35.12" y="39.941176" style="stroke: #000000; stroke-width: 0.8"/>
      </g>
     </g>
     <g id="text_13">
      <text style="font: 10px 'Times New Roman'; text-anchor: end" x="28.12" y="43.413051" transform="rotate(-0 28.12 43.413051)">1.0</text>
     </g>
    </g>
    <g id="ytick_4">
     <g id="line2d_25">
      <path d="M 35.12 11.411765 
L 540 11.411765 
" clip-path="url(#p0ddde236e1)" style="fill: none; stroke: #b0b0b0; stroke-width: 0.8; stroke-linecap: square"/>
     </g>
     <g id="line2d_26">
      <g>
       <use xlink:href="#medae909296" x="35.12" y="11.411765" style="stroke: #000000; stroke-width: 0.8"/>
      </g>
     </g>
     <g id="text_14">
      <text style="font: 10px 'Times New Roman'; text-anchor: end" x="28.12" y="14.88364" transform="rotate(-0 28.12 14.88364)">1.5</text>
     </g>
    </g>
    <g id="text_15">
     <text style="font: 12px 'Times New Roman'; text-anchor: middle" x="9.053125" y="48.5" transform="rotate(-90 9.053125 48.5)">Normalized Value</text>
    </g>
   </g>
   <g id="line2d_27">
    <path d="M 35.12 11.022611 
L 36.325108 15.309036 
L 37.530216 18.054343 
L 38.735324 22.276809 
L 39.940432 28.317015 
L 41.14554 32.78258 
L 42.350648 32.859459 
L 43.555756 32.150093 
L 44.760864 32.605629 
L 45.965972 31.324596 
L 47.17108 31.596779 
L 48.376188 32.694271 
L 49.581296 32.038079 
L 50.786404 32.790735 
L 51.991512 32.562595 
L 53.19662 33.959751 
L 54.401728 35.851708 
L 55.606836 35.999374 
L 56.811944 36.368802 
L 58.017052 36.591665 
L 60.427268 35.315217 
L 61.632376 33.404661 
L 62.837484 34.115688 
L 64.042592 34.258764 
L 65.2477 34.121645 
L 66.452808 33.734708 
L 67.657916 34.607752 
L 68.863024 35.020627 
L 71.27324 35.245921 
L 73.683456 36.655926 
L 74.888564 36.725288 
L 76.093672 37.016267 
L 77.29878 36.897772 
L 78.503888 36.459305 
L 79.708996 36.410907 
L 82.119212 36.786746 
L 83.32432 37.269882 
L 84.529428 37.078832 
L 86.939644 38.043464 
L 88.144752 38.553437 
L 89.34986 38.696952 
L 90.554968 38.144088 
L 91.760076 38.446317 
L 92.965184 38.388757 
L 95.3754 38.420436 
L 96.580508 38.365667 
L 97.785616 37.725885 
L 100.195832 37.724822 
L 101.40094 37.403296 
L 102.606048 37.252387 
L 103.811156 37.605488 
L 105.016264 38.186411 
L 106.221372 38.339989 
L 112.246913 37.81375 
L 113.452021 38.018798 
L 114.657129 37.850368 
L 115.862237 38.098691 
L 117.067345 37.699875 
L 118.272453 37.783011 
L 119.477561 38.154002 
L 121.887777 38.2793 
L 123.092885 38.117391 
L 124.297993 38.216056 
L 125.503101 38.066565 
L 126.708209 38.481234 
L 127.913317 38.741003 
L 129.118425 38.080189 
L 133.938857 38.610265 
L 135.143965 38.467396 
L 136.349073 38.602018 
L 138.759289 38.579003 
L 139.964397 38.275809 
L 141.169505 38.134948 
L 142.374613 38.289992 
L 144.784829 38.373129 
L 145.989937 38.573852 
L 147.195045 38.537953 
L 148.400153 38.810583 
L 152.015477 38.988128 
L 155.630801 38.957828 
L 156.835909 38.855125 
L 160.451233 39.023644 
L 165.271665 38.893458 
L 167.681881 38.975135 
L 168.886989 38.925721 
L 177.322745 39.403742 
L 179.732961 39.358978 
L 180.938069 39.268819 
L 182.143177 39.42804 
L 184.553393 39.527003 
L 185.758501 39.759906 
L 188.168717 39.710616 
L 191.784041 39.488926 
L 192.989149 39.602069 
L 196.604473 39.370556 
L 199.014689 39.537598 
L 200.219797 39.362771 
L 202.630013 39.677523 
L 206.245337 39.24157 
L 207.450445 39.096006 
L 208.655553 39.212805 
L 209.860661 39.109323 
L 211.065769 39.24962 
L 212.270877 39.102112 
L 218.296417 39.210761 
L 219.501525 39.332657 
L 232.757713 39.263727 
L 236.373037 38.933543 
L 237.578145 38.820615 
L 241.193469 39.03502 
L 242.398577 38.797455 
L 246.013901 39.216294 
L 249.629225 39.124321 
L 255.654765 39.085373 
L 258.064982 39.176175 
L 260.475198 39.162031 
L 261.680306 38.980405 
L 267.705846 39.434065 
L 268.910954 39.420349 
L 270.116062 39.295252 
L 273.731386 39.399164 
L 276.141602 39.412422 
L 282.167142 39.702748 
L 286.987574 39.486259 
L 290.602898 39.676574 
L 295.42333 39.852115 
L 296.628438 39.753516 
L 297.833546 39.51394 
L 300.243762 39.605494 
L 301.44887 39.469127 
L 302.653978 39.547052 
L 305.064194 39.557892 
L 312.294842 39.775089 
L 318.320382 39.513528 
L 323.140814 39.663427 
L 327.961246 39.658379 
L 330.371462 39.610339 
L 340.012326 39.45165 
L 343.62765 39.569519 
L 349.65319 39.653062 
L 350.858298 39.574435 
L 354.473622 39.704357 
L 361.70427 39.792271 
L 362.909378 39.85341 
L 365.319594 39.79168 
L 367.72981 39.743999 
L 372.550242 39.764743 
L 373.75535 39.650182 
L 378.575782 39.642086 
L 380.985998 39.575506 
L 382.191106 39.601934 
L 383.396214 39.507521 
L 385.80643 39.570326 
L 390.626862 39.543732 
L 391.83197 39.627314 
L 393.037078 39.542442 
L 395.447294 39.533887 
L 401.472834 39.264773 
L 407.498375 39.484127 
L 412.318807 39.481442 
L 425.574995 39.826567 
L 427.985211 39.700942 
L 434.010751 39.799325 
L 435.215859 39.864084 
L 438.831183 39.803886 
L 443.651615 39.838939 
L 446.061831 39.825684 
L 468.958883 39.879203 
L 473.779315 39.56836 
L 481.009963 39.646779 
L 482.215071 39.544925 
L 488.240611 39.748256 
L 491.855935 39.699272 
L 494.266151 39.684716 
L 497.881475 39.720118 
L 501.496799 39.795297 
L 508.727447 39.817373 
L 514.752987 39.896592 
L 515.958095 39.941176 
L 515.958095 39.941176 
" clip-path="url(#p0ddde236e1)" style="fill: none; stroke: #4169e1; stroke-width: 1.5; stroke-linecap: square"/>
   </g>
   <g id="line2d_28">
    <path d="M 35.12 97 
L 36.325108 92.795669 
L 37.530216 90.747914 
L 38.735324 80.071542 
L 39.940432 50.063124 
L 41.14554 35.070484 
L 42.350648 43.909443 
L 43.555756 49.739742 
L 44.760864 54.611005 
L 45.965972 55.470271 
L 47.17108 59.076178 
L 48.376188 59.204688 
L 49.581296 60.929659 
L 50.786404 61.820942 
L 51.991512 63.999474 
L 53.19662 59.361813 
L 54.401728 48.470464 
L 55.606836 51.081727 
L 58.017052 54.923587 
L 59.22216 54.714104 
L 60.427268 55.013818 
L 61.632376 38.463416 
L 62.837484 38.241677 
L 65.2477 42.54589 
L 66.452808 43.671951 
L 67.657916 40.867375 
L 68.863024 41.710786 
L 70.068132 43.520981 
L 71.27324 45.081159 
L 72.478348 43.560866 
L 73.683456 41.122716 
L 74.888564 42.729836 
L 76.093672 43.621678 
L 77.29878 44.991955 
L 78.503888 44.813838 
L 79.708996 46.167326 
L 80.914104 47.234483 
L 82.119212 48.081272 
L 83.32432 47.137896 
L 84.529428 47.982647 
L 85.734536 47.302341 
L 88.144752 44.195886 
L 89.34986 45.131714 
L 90.554968 43.017926 
L 91.760076 43.160182 
L 95.3754 46.250467 
L 96.580508 47.191412 
L 97.785616 43.260703 
L 100.195832 45.139872 
L 101.40094 44.764876 
L 102.606048 45.389455 
L 103.811156 44.653069 
L 105.016264 41.061412 
L 108.631588 42.990845 
L 109.836697 43.314528 
L 111.041805 43.879621 
L 112.246913 44.631834 
L 113.452021 44.79993 
L 114.657129 45.150596 
L 115.862237 44.967692 
L 117.067345 43.246873 
L 118.272453 43.905647 
L 119.477561 42.44885 
L 121.887777 43.815716 
L 123.092885 44.096527 
L 124.297993 44.637067 
L 125.503101 44.942527 
L 126.708209 42.62824 
L 127.913317 42.136345 
L 129.118425 35.036848 
L 131.528641 36.137741 
L 132.733749 36.047623 
L 133.938857 36.592752 
L 136.349073 37.282642 
L 138.759289 38.629769 
L 139.964397 37.462992 
L 142.374613 37.901373 
L 144.784829 39.110892 
L 145.989937 38.885171 
L 147.195045 39.475988 
L 148.400153 38.48276 
L 152.015477 40.016173 
L 155.630801 41.65304 
L 158.041017 42.363322 
L 159.246125 42.862249 
L 160.451233 42.97932 
L 164.066557 44.424015 
L 165.271665 44.674751 
L 170.092097 46.233604 
L 171.297205 46.026164 
L 174.912529 46.882121 
L 176.117637 46.78361 
L 179.732961 47.911325 
L 180.938069 48.088624 
L 182.143177 47.778547 
L 183.348285 48.170119 
L 184.553393 48.35506 
L 185.758501 47.189585 
L 188.168717 47.923036 
L 189.373825 47.992799 
L 190.578933 47.034135 
L 191.784041 47.152623 
L 192.989149 47.14652 
L 194.194257 47.33829 
L 195.399365 46.655556 
L 197.809581 47.233226 
L 199.014689 47.272863 
L 200.219797 46.675028 
L 201.424905 46.578804 
L 202.630013 45.738352 
L 203.835121 45.714951 
L 207.450445 44.386433 
L 209.860661 44.305427 
L 212.270877 43.632461 
L 213.475985 43.986129 
L 214.681093 44.043445 
L 218.296417 45.072865 
L 219.501525 44.889848 
L 223.116849 45.818607 
L 224.321957 46.099901 
L 225.527065 46.178441 
L 226.732173 46.428311 
L 227.937281 46.358083 
L 231.552605 47.201395 
L 232.757713 47.240593 
L 233.962821 46.760731 
L 235.167929 46.941971 
L 236.373037 46.590371 
L 237.578145 46.398405 
L 238.783253 46.427792 
L 239.988361 45.568671 
L 241.193469 45.801318 
L 242.398577 43.875998 
L 243.603685 43.469971 
L 244.808793 43.562875 
L 246.013901 42.072629 
L 248.424117 42.403012 
L 252.039441 43.241734 
L 253.244549 42.885283 
L 254.449657 42.868659 
L 255.654765 43.162291 
L 256.859873 43.10191 
L 259.27009 43.597357 
L 260.475198 43.738626 
L 261.680306 42.601311 
L 262.885414 42.502305 
L 264.090522 42.755468 
L 265.29563 42.215568 
L 266.500738 41.84797 
L 267.705846 41.896104 
L 268.910954 42.170337 
L 270.116062 41.751796 
L 271.32117 41.841179 
L 272.526278 41.497732 
L 273.731386 41.495122 
L 276.141602 42.023296 
L 278.551818 42.041048 
L 280.962034 42.482444 
L 282.167142 42.305099 
L 284.577358 42.516952 
L 285.782466 42.483649 
L 286.987574 42.718743 
L 288.192682 42.533065 
L 289.39779 42.785949 
L 290.602898 42.688622 
L 291.808006 42.863555 
L 293.013114 42.864383 
L 295.42333 43.250862 
L 296.628438 43.014682 
L 297.833546 40.397991 
L 299.038654 40.397413 
L 300.243762 40.633754 
L 301.44887 39.947251 
L 302.653978 39.894626 
L 306.269302 40.350996 
L 307.47441 40.138984 
L 311.089734 40.780236 
L 314.705058 41.124973 
L 315.910166 40.803855 
L 317.115274 40.610199 
L 318.320382 40.848275 
L 321.935706 41.1579 
L 327.961246 42.211311 
L 329.166354 42.386272 
L 330.371462 42.271007 
L 331.57657 42.439963 
L 332.781678 42.483633 
L 333.986786 42.688716 
L 335.191894 41.950696 
L 336.397002 41.84285 
L 337.60211 41.978866 
L 338.807218 41.238812 
L 340.012326 41.008967 
L 341.217434 40.911093 
L 342.422542 40.957055 
L 346.037866 41.560197 
L 347.242974 41.408051 
L 349.65319 41.682347 
L 352.063406 41.372462 
L 353.268514 41.417965 
L 356.883838 42.003206 
L 358.088946 41.887167 
L 360.499162 42.190346 
L 361.70427 42.312771 
L 364.114486 42.2142 
L 366.524702 42.553622 
L 367.72981 42.36864 
L 372.550242 43.0967 
L 373.75535 42.443964 
L 378.575782 43.071392 
L 379.78089 42.806748 
L 382.191106 43.117778 
L 383.396214 42.714111 
L 384.601322 42.543498 
L 387.011538 42.898237 
L 388.216646 42.466836 
L 390.626862 42.610107 
L 393.037078 42.014012 
L 395.447294 42.223098 
L 396.652402 42.02813 
L 397.85751 41.433641 
L 399.062618 41.152836 
L 401.472834 41.5116 
L 402.677942 41.401131 
L 403.88305 41.574353 
L 405.088158 41.315295 
L 406.293266 41.481978 
L 407.498375 41.475876 
L 408.703483 41.630774 
L 409.908591 41.301062 
L 411.113699 41.285026 
L 413.523915 41.553794 
L 415.934131 41.771735 
L 417.139239 41.932879 
L 418.344347 41.931175 
L 419.549455 41.763641 
L 425.574995 41.571022 
L 426.780103 40.746803 
L 429.190319 41.082151 
L 430.395427 41.037661 
L 431.600535 41.196932 
L 432.805643 41.193595 
L 434.010751 41.353099 
L 435.215859 41.20161 
L 438.831183 41.219842 
L 447.266939 41.895312 
L 448.472047 42.039668 
L 449.677155 42.008894 
L 450.882263 41.702972 
L 452.087371 41.704222 
L 454.497587 41.98933 
L 455.702695 42.049563 
L 458.112911 41.712619 
L 461.728235 42.002488 
L 462.933343 41.780376 
L 464.138451 41.927748 
L 465.343559 41.75035 
L 468.958883 42.105155 
L 470.163991 41.642047 
L 471.369099 40.992867 
L 472.574207 41.13595 
L 473.779315 39.712095 
L 474.984423 39.822101 
L 476.189531 39.679635 
L 477.394639 39.832775 
L 478.599747 39.458315 
L 479.804855 39.606772 
L 481.009963 39.459729 
L 482.215071 38.733691 
L 483.420179 38.655891 
L 484.625287 38.810976 
L 485.830395 38.764678 
L 487.035503 38.574594 
L 488.240611 38.619912 
L 489.445719 38.544155 
L 495.471259 38.900861 
L 499.086583 39.100306 
L 500.291691 38.992346 
L 507.522339 39.396569 
L 511.137663 39.754464 
L 515.958095 39.941176 
L 515.958095 39.941176 
" clip-path="url(#p0ddde236e1)" style="fill: none; stroke-dasharray: 5.55,2.4; stroke-dashoffset: 0; stroke: #4169e1; stroke-width: 1.5"/>
   </g>
   <g id="line2d_29">
    <path d="M 35.12 13.756182 
L 36.325108 17.640594 
L 37.530216 20.725485 
L 41.14554 32.601287 
L 42.350648 32.204714 
L 44.760864 32.157736 
L 45.965972 31.085201 
L 47.17108 31.041249 
L 48.376188 31.540171 
L 49.581296 31.198119 
L 50.786404 32.115726 
L 51.991512 31.783958 
L 53.19662 32.935874 
L 54.401728 34.73723 
L 55.606836 34.910179 
L 58.017052 35.850895 
L 59.22216 35.260142 
L 60.427268 35.208881 
L 61.632376 33.473035 
L 62.837484 34.087858 
L 64.042592 34.224103 
L 65.2477 34.061041 
L 66.452808 33.610269 
L 67.657916 34.393039 
L 68.863024 34.580181 
L 71.27324 35.183269 
L 72.478348 35.680103 
L 73.683456 36.341129 
L 74.888564 36.23765 
L 76.093672 36.543993 
L 77.29878 36.375948 
L 78.503888 36.001249 
L 79.708996 35.997029 
L 82.119212 36.264342 
L 83.32432 36.757837 
L 84.529428 36.678576 
L 88.144752 38.122917 
L 89.34986 38.345554 
L 90.554968 37.87926 
L 91.760076 38.156444 
L 92.965184 38.009756 
L 94.170292 38.088258 
L 96.580508 37.828195 
L 97.785616 37.164634 
L 100.195832 37.116717 
L 101.40094 36.755905 
L 102.606048 36.632308 
L 103.811156 36.992431 
L 105.016264 37.494099 
L 106.221372 37.585873 
L 108.631588 37.466428 
L 111.041805 37.156991 
L 112.246913 37.19582 
L 113.452021 37.355756 
L 114.657129 37.224175 
L 115.862237 37.518216 
L 117.067345 37.192256 
L 118.272453 37.225014 
L 119.477561 37.514652 
L 121.887777 37.632773 
L 123.092885 37.550037 
L 124.297993 37.696974 
L 125.503101 37.561662 
L 127.913317 38.207557 
L 129.118425 37.814728 
L 133.938857 38.319063 
L 135.143965 38.225438 
L 136.349073 38.366966 
L 138.759289 38.337909 
L 141.169505 37.909373 
L 142.374613 38.046863 
L 144.784829 37.991682 
L 145.989937 38.176403 
L 147.195045 38.06978 
L 148.400153 38.340474 
L 149.605261 38.465977 
L 159.246125 38.513916 
L 160.451233 38.679074 
L 162.861449 38.683083 
L 164.066557 38.747625 
L 165.271665 38.614754 
L 167.681881 38.773748 
L 170.092097 38.773645 
L 171.297205 38.916763 
L 172.502313 38.80308 
L 178.527853 39.090014 
L 180.938069 38.947525 
L 182.143177 39.076171 
L 184.553393 39.195917 
L 185.758501 39.413357 
L 186.963609 39.460132 
L 189.373825 39.286227 
L 190.578933 39.138439 
L 192.989149 39.323938 
L 196.604473 39.113677 
L 201.424905 39.299378 
L 202.630013 39.464024 
L 207.450445 39.011415 
L 208.655553 39.154303 
L 209.860661 39.055713 
L 211.065769 39.177357 
L 212.270877 39.043265 
L 215.886201 39.143763 
L 220.706633 39.306196 
L 226.732173 39.047255 
L 229.142389 39.175491 
L 232.757713 39.198445 
L 233.962821 39.056694 
L 238.783253 38.934376 
L 239.988361 39.068854 
L 242.398577 38.868301 
L 246.013901 39.25213 
L 248.424117 39.112537 
L 259.27009 39.311428 
L 262.885414 39.207006 
L 265.29563 39.364526 
L 267.705846 39.53761 
L 271.32117 39.437053 
L 272.526278 39.53308 
L 274.936494 39.49219 
L 280.962034 39.680625 
L 283.37225 39.749174 
L 286.987574 39.544412 
L 290.602898 39.713705 
L 295.42333 39.793516 
L 297.833546 39.540841 
L 300.243762 39.642286 
L 301.44887 39.528509 
L 302.653978 39.608821 
L 305.064194 39.583566 
L 312.294842 39.772745 
L 320.730598 39.666091 
L 329.166354 39.678584 
L 335.191894 39.446037 
L 337.60211 39.52351 
L 338.807218 39.433281 
L 343.62765 39.592984 
L 349.65319 39.690235 
L 350.858298 39.6328 
L 354.473622 39.723378 
L 372.550242 39.78117 
L 373.75535 39.675511 
L 378.575782 39.698729 
L 380.985998 39.621634 
L 384.601322 39.636993 
L 390.626862 39.580017 
L 391.83197 39.656383 
L 400.267726 39.406282 
L 403.88305 39.448548 
L 407.498375 39.562536 
L 412.318807 39.567728 
L 426.780103 39.775077 
L 432.805643 39.857815 
L 447.266939 39.899718 
L 452.087371 39.903698 
L 461.728235 39.931627 
L 464.138451 39.848466 
L 466.548667 39.921527 
L 472.574207 39.754441 
L 473.779315 39.649426 
L 481.009963 39.743727 
L 482.215071 39.66611 
L 488.240611 39.83012 
L 490.650827 39.75228 
L 495.471259 39.83896 
L 508.727447 39.872861 
L 515.958095 39.941176 
L 515.958095 39.941176 
" clip-path="url(#p0ddde236e1)" style="fill: none; stroke: #ff8c00; stroke-width: 1.5; stroke-linecap: square"/>
   </g>
   <g id="line2d_30">
    <path d="M 35.12 97 
L 37.530216 88.059913 
L 38.735324 76.318917 
L 41.14554 43.05116 
L 42.350648 50.468161 
L 43.555756 56.284053 
L 44.760864 60.79813 
L 45.965972 61.236832 
L 47.17108 64.482092 
L 49.581296 68.276682 
L 50.786404 66.964613 
L 51.991512 68.493428 
L 53.19662 64.158658 
L 54.401728 50.135973 
L 55.606836 52.583269 
L 56.811944 53.749842 
L 58.017052 54.563859 
L 59.22216 54.439726 
L 60.427268 56.357327 
L 61.632376 37.753498 
L 62.837484 37.55037 
L 64.042592 39.79145 
L 65.2477 41.787507 
L 66.452808 42.208911 
L 67.657916 39.081837 
L 68.863024 40.777667 
L 70.068132 41.702186 
L 71.27324 42.780323 
L 72.478348 42.123166 
L 73.683456 39.48923 
L 74.888564 41.072136 
L 76.093672 41.689548 
L 77.29878 42.922221 
L 78.503888 42.830562 
L 79.708996 44.255871 
L 82.119212 46.475787 
L 83.32432 44.714505 
L 84.529428 45.880244 
L 85.734536 43.557871 
L 86.939644 42.098474 
L 88.144752 40.294492 
L 89.34986 40.841776 
L 90.554968 38.963076 
L 91.760076 39.062501 
L 92.965184 39.927507 
L 95.3754 41.92411 
L 96.580508 42.576638 
L 97.785616 36.567418 
L 100.195832 38.726325 
L 101.40094 37.566583 
L 102.606048 38.346389 
L 103.811156 37.086005 
L 105.016264 33.615839 
L 108.631588 36.356845 
L 109.836697 36.997764 
L 111.041805 37.311505 
L 112.246913 38.200138 
L 113.452021 38.580104 
L 114.657129 39.100892 
L 115.862237 38.172209 
L 117.067345 36.804538 
L 118.272453 37.641719 
L 119.477561 36.673187 
L 120.682669 37.335635 
L 121.887777 38.135041 
L 123.092885 38.776956 
L 125.503101 39.40264 
L 127.913317 36.007792 
L 129.118425 33.08099 
L 133.938857 34.609771 
L 135.143965 35.128938 
L 136.349073 35.339792 
L 138.759289 36.654926 
L 139.964397 35.543796 
L 141.169505 35.459317 
L 142.374613 35.626095 
L 144.784829 36.892232 
L 145.989937 36.573865 
L 147.195045 36.891799 
L 148.400153 35.40786 
L 149.605261 35.589614 
L 152.015477 36.796111 
L 159.246125 40.006423 
L 160.451233 39.677464 
L 162.861449 40.726024 
L 164.066557 41.110108 
L 165.271665 41.036929 
L 167.681881 41.61935 
L 170.092097 42.427849 
L 171.297205 42.195282 
L 172.502313 42.219087 
L 174.912529 42.807897 
L 176.117637 42.47392 
L 179.732961 43.744898 
L 180.938069 43.833228 
L 182.143177 43.645013 
L 183.348285 44.070234 
L 184.553393 44.047775 
L 185.758501 42.651861 
L 188.168717 43.245175 
L 189.373825 43.206866 
L 190.578933 42.754832 
L 194.194257 43.023784 
L 195.399365 42.408087 
L 197.809581 43.150791 
L 199.014689 43.209006 
L 200.219797 43.556964 
L 201.424905 43.490121 
L 202.630013 42.714408 
L 203.835121 42.553158 
L 205.040229 42.211048 
L 206.245337 41.646787 
L 207.450445 41.85577 
L 208.655553 41.332585 
L 209.860661 41.280753 
L 211.065769 40.995904 
L 212.270877 40.562072 
L 213.475985 40.940741 
L 214.681093 41.027119 
L 218.296417 42.011752 
L 219.501525 41.683528 
L 220.706633 42.040012 
L 224.321957 42.756609 
L 225.527065 42.489342 
L 226.732173 42.797993 
L 227.937281 42.547642 
L 231.552605 43.397346 
L 232.757713 43.630841 
L 233.962821 42.933519 
L 235.167929 43.23258 
L 236.373037 43.200771 
L 238.783253 43.552406 
L 239.988361 42.92021 
L 241.193469 42.986359 
L 243.603685 41.876799 
L 244.808793 41.941155 
L 246.013901 40.284338 
L 248.424117 40.39202 
L 252.039441 41.170798 
L 254.449657 41.314299 
L 255.654765 41.616637 
L 256.859873 41.425606 
L 259.27009 42.009651 
L 260.475198 42.147791 
L 261.680306 41.584118 
L 262.885414 41.599417 
L 264.090522 41.845771 
L 265.29563 41.138621 
L 267.705846 40.830066 
L 268.910954 40.942048 
L 270.116062 40.807428 
L 271.32117 41.007652 
L 272.526278 40.732207 
L 273.731386 40.845784 
L 276.141602 41.363406 
L 277.34671 41.213377 
L 280.962034 41.683344 
L 282.167142 41.543151 
L 283.37225 41.801944 
L 284.577358 41.824225 
L 285.782466 41.463605 
L 286.987574 41.603217 
L 288.192682 41.3917 
L 289.39779 41.62932 
L 290.602898 41.621821 
L 293.013114 41.99047 
L 295.42333 42.411669 
L 296.628438 42.079347 
L 297.833546 40.632359 
L 299.038654 40.376772 
L 300.243762 40.61928 
L 301.44887 39.994095 
L 302.653978 39.809701 
L 303.859086 39.793494 
L 306.269302 40.078092 
L 307.47441 39.759484 
L 309.884626 40.149131 
L 311.089734 40.309182 
L 312.294842 40.356133 
L 314.705058 40.769801 
L 315.910166 40.767663 
L 317.115274 40.515309 
L 319.52549 40.882658 
L 320.730598 40.975039 
L 329.166354 42.451693 
L 331.57657 42.585708 
L 333.986786 42.918821 
L 335.191894 42.365933 
L 336.397002 42.169297 
L 337.60211 42.385622 
L 338.807218 41.971029 
L 341.217434 41.793198 
L 342.422542 41.790689 
L 346.037866 42.350698 
L 347.242974 42.163748 
L 349.65319 42.458925 
L 353.268514 42.394142 
L 356.883838 42.994218 
L 358.088946 42.867257 
L 359.294054 43.066252 
L 360.499162 43.023242 
L 361.70427 43.215897 
L 362.909378 43.149173 
L 365.319594 43.447243 
L 368.934918 43.923997 
L 372.550242 44.439153 
L 373.75535 43.661529 
L 378.575782 44.193297 
L 379.78089 43.616212 
L 382.191106 43.880944 
L 383.396214 43.586963 
L 384.601322 43.469059 
L 387.011538 43.787159 
L 388.216646 43.217963 
L 390.626862 43.4021 
L 391.83197 43.052102 
L 393.037078 43.015619 
L 395.447294 43.320587 
L 399.062618 42.607912 
L 401.472834 42.947481 
L 402.677942 42.935151 
L 403.88305 43.104586 
L 405.088158 42.896374 
L 406.293266 43.0675 
L 407.498375 43.059461 
L 408.703483 43.175775 
L 409.908591 42.810016 
L 414.729023 43.226416 
L 418.344347 43.403764 
L 420.754563 43.038353 
L 425.574995 42.93113 
L 426.780103 41.891483 
L 429.190319 42.214369 
L 430.395427 41.876877 
L 431.600535 41.991507 
L 432.805643 41.901399 
L 434.010751 42.055787 
L 437.626075 41.98248 
L 440.036291 42.166314 
L 442.446507 42.401075 
L 444.856723 42.240114 
L 446.061831 42.226498 
L 448.472047 42.491701 
L 450.882263 41.792055 
L 452.087371 41.831755 
L 455.702695 42.218337 
L 458.112911 41.899799 
L 460.523127 42.180448 
L 461.728235 42.168382 
L 462.933343 41.637745 
L 464.138451 41.791123 
L 465.343559 41.561341 
L 468.958883 41.928812 
L 471.369099 40.689681 
L 472.574207 40.796637 
L 473.779315 39.717025 
L 474.984423 39.765006 
L 476.189531 39.574965 
L 477.394639 39.730984 
L 478.599747 39.646177 
L 479.804855 39.781591 
L 481.009963 39.752393 
L 482.215071 39.219446 
L 483.420179 39.053726 
L 485.830395 39.268587 
L 487.035503 39.124076 
L 488.240611 39.181102 
L 489.445719 38.916039 
L 490.650827 39.032609 
L 491.855935 38.940148 
L 494.266151 39.196369 
L 495.471259 39.082755 
L 499.086583 39.412438 
L 501.496799 39.209166 
L 503.907015 39.468299 
L 507.522339 39.336973 
L 512.342771 39.798175 
L 515.958095 39.941176 
L 515.958095 39.941176 
" clip-path="url(#p0ddde236e1)" style="fill: none; stroke-dasharray: 5.55,2.4; stroke-dashoffset: 0; stroke: #ff8c00; stroke-width: 1.5"/>
   </g>
   <g id="patch_3">
    <path d="M 35.12 97 
L 35.12 0 
" style="fill: none; stroke: #000000; stroke-width: 0.8; stroke-linejoin: miter; stroke-linecap: square"/>
   </g>
   <g id="patch_4">
    <path d="M 540 97 
L 540 0 
" style="fill: none; stroke: #000000; stroke-width: 0.8; stroke-linejoin: miter; stroke-linecap: square"/>
   </g>
   <g id="patch_5">
    <path d="M 35.12 97 
L 540 97 
" style="fill: none; stroke: #000000; stroke-width: 0.8; stroke-linejoin: miter; stroke-linecap: square"/>
   </g>
   <g id="patch_6">
    <path d="M 35.12 0 
L 540 0 
" style="fill: none; stroke: #000000; stroke-width: 0.8; stroke-linejoin: miter; stroke-linecap: square"/>
   </g>
  </g>
 </g>
 <defs>
  <clipPath id="p0ddde236e1">
   <rect x="35.12" y="0" width="504.88" height="97"/>
  </clipPath>
 </defs>
</svg>
