<?xml version="1.0" encoding="utf-8" standalone="no"?>
<!DOCTYPE svg PUBLIC "-//W3C//DTD SVG 1.1//EN"
  "http://www.w3.org/Graphics/SVG/1.1/DTD/svg11.dtd">
<svg xmlns:xlink="http://www.w3.org/1999/xlink" width="540pt" height="129.6pt" viewBox="0 0 540 129.6" xmlns="http://www.w3.org/2000/svg" version="1.1">
 <metadata>
  <rdf:RDF xmlns:dc="http://purl.org/dc/elements/1.1/" xmlns:cc="http://creativecommons.org/ns#" xmlns:rdf="http://www.w3.org/1999/02/22-rdf-syntax-ns#">
   <cc:Work>
    <dc:type rdf:resource="http://purl.org/dc/dcmitype/StillImage"/>
    <dc:date>2025-04-05T14:33:28.579481</dc:date>
    <dc:format>image/svg+xml</dc:format>
    <dc:creator>
     <cc:Agent>
      <dc:title>Matplotlib v3.10.1, https://matplotlib.org/</dc:title>
     </cc:Agent>
    </dc:creator>
   </cc:Work>
  </rdf:RDF>
 </metadata>
 <defs>
  <style type="text/css">*{stroke-linejoin: round; stroke-linecap: butt}</style>
 </defs>
 <g id="figure_1">
  <g id="patch_1">
   <path d="M 0 129.6 
L 540 129.6 
L 540 0 
L 0 0 
z
" style="fill: #ffffff"/>
  </g>
  <g id="axes_1">
   <g id="patch_2">
    <path d="M 34.31 98.44 
L 540 98.44 
L 540 3.6 
L 34.31 3.6 
z
" style="fill: #ffffff"/>
   </g>
   <g id="matplotlib.axis_1">
    <g id="xtick_1">
     <g id="line2d_1">
      <path d="M 34.31 98.44 
L 34.31 3.6 
" clip-path="url(#pdd91efaa01)" style="fill: none; stroke: #b0b0b0; stroke-width: 0.8; stroke-linecap: square"/>
     </g>
     <g id="line2d_2">
      <defs>
       <path id="m7e0d20239e" d="M 0 0 
L 0 3.5 
" style="stroke: #000000; stroke-width: 0.8"/>
      </defs>
      <g>
       <use xlink:href="#m7e0d20239e" x="34.31" y="98.44" style="stroke: #000000; stroke-width: 0.8"/>
      </g>
     </g>
     <g id="text_1">
      <text style="font-size: 10px; font-family: 'Times New Roman'; text-anchor: middle" x="34.31" y="112.38375" transform="rotate(-0 34.31 112.38375)">0</text>
     </g>
    </g>
    <g id="xtick_2">
     <g id="line2d_3">
      <path d="M 94.662071 98.44 
L 94.662071 3.6 
" clip-path="url(#pdd91efaa01)" style="fill: none; stroke: #b0b0b0; stroke-width: 0.8; stroke-linecap: square"/>
     </g>
     <g id="line2d_4">
      <g>
       <use xlink:href="#m7e0d20239e" x="94.662071" y="98.44" style="stroke: #000000; stroke-width: 0.8"/>
      </g>
     </g>
     <g id="text_2">
      <text style="font-size: 10px; font-family: 'Times New Roman'; text-anchor: middle" x="94.662071" y="112.38375" transform="rotate(-0 94.662071 112.38375)">50</text>
     </g>
    </g>
    <g id="xtick_3">
     <g id="line2d_5">
      <path d="M 155.014141 98.44 
L 155.014141 3.6 
" clip-path="url(#pdd91efaa01)" style="fill: none; stroke: #b0b0b0; stroke-width: 0.8; stroke-linecap: square"/>
     </g>
     <g id="line2d_6">
      <g>
       <use xlink:href="#m7e0d20239e" x="155.014141" y="98.44" style="stroke: #000000; stroke-width: 0.8"/>
      </g>
     </g>
     <g id="text_3">
      <text style="font-size: 10px; font-family: 'Times New Roman'; text-anchor: middle" x="155.014141" y="112.38375" transform="rotate(-0 155.014141 112.38375)">100</text>
     </g>
    </g>
    <g id="xtick_4">
     <g id="line2d_7">
      <path d="M 215.366212 98.44 
L 215.366212 3.6 
" clip-path="url(#pdd91efaa01)" style="fill: none; stroke: #b0b0b0; stroke-width: 0.8; stroke-linecap: square"/>
     </g>
     <g id="line2d_8">
      <g>
       <use xlink:href="#m7e0d20239e" x="215.366212" y="98.44" style="stroke: #000000; stroke-width: 0.8"/>
      </g>
     </g>
     <g id="text_4">
      <text style="font-size: 10px; font-family: 'Times New Roman'; text-anchor: middle" x="215.366212" y="112.38375" transform="rotate(-0 215.366212 112.38375)">150</text>
     </g>
    </g>
    <g id="xtick_5">
     <g id="line2d_9">
      <path d="M 275.718283 98.44 
L 275.718283 3.6 
" clip-path="url(#pdd91efaa01)" style="fill: none; stroke: #b0b0b0; stroke-width: 0.8; stroke-linecap: square"/>
     </g>
     <g id="line2d_10">
      <g>
       <use xlink:href="#m7e0d20239e" x="275.718283" y="98.44" style="stroke: #000000; stroke-width: 0.8"/>
      </g>
     </g>
     <g id="text_5">
      <text style="font-size: 10px; font-family: 'Times New Roman'; text-anchor: middle" x="275.718283" y="112.38375" transform="rotate(-0 275.718283 112.38375)">200</text>
     </g>
    </g>
    <g id="xtick_6">
     <g id="line2d_11">
      <path d="M 336.070353 98.44 
L 336.070353 3.6 
" clip-path="url(#pdd91efaa01)" style="fill: none; stroke: #b0b0b0; stroke-width: 0.8; stroke-linecap: square"/>
     </g>
     <g id="line2d_12">
      <g>
       <use xlink:href="#m7e0d20239e" x="336.070353" y="98.44" style="stroke: #000000; stroke-width: 0.8"/>
      </g>
     </g>
     <g id="text_6">
      <text style="font-size: 10px; font-family: 'Times New Roman'; text-anchor: middle" x="336.070353" y="112.38375" transform="rotate(-0 336.070353 112.38375)">250</text>
     </g>
    </g>
    <g id="xtick_7">
     <g id="line2d_13">
      <path d="M 396.422424 98.44 
L 396.422424 3.6 
" clip-path="url(#pdd91efaa01)" style="fill: none; stroke: #b0b0b0; stroke-width: 0.8; stroke-linecap: square"/>
     </g>
     <g id="line2d_14">
      <g>
       <use xlink:href="#m7e0d20239e" x="396.422424" y="98.44" style="stroke: #000000; stroke-width: 0.8"/>
      </g>
     </g>
     <g id="text_7">
      <text style="font-size: 10px; font-family: 'Times New Roman'; text-anchor: middle" x="396.422424" y="112.38375" transform="rotate(-0 396.422424 112.38375)">300</text>
     </g>
    </g>
    <g id="xtick_8">
     <g id="line2d_15">
      <path d="M 456.774495 98.44 
L 456.774495 3.6 
" clip-path="url(#pdd91efaa01)" style="fill: none; stroke: #b0b0b0; stroke-width: 0.8; stroke-linecap: square"/>
     </g>
     <g id="line2d_16">
      <g>
       <use xlink:href="#m7e0d20239e" x="456.774495" y="98.44" style="stroke: #000000; stroke-width: 0.8"/>
      </g>
     </g>
     <g id="text_8">
      <text style="font-size: 10px; font-family: 'Times New Roman'; text-anchor: middle" x="456.774495" y="112.38375" transform="rotate(-0 456.774495 112.38375)">350</text>
     </g>
    </g>
    <g id="xtick_9">
     <g id="line2d_17">
      <path d="M 517.126565 98.44 
L 517.126565 3.6 
" clip-path="url(#pdd91efaa01)" style="fill: none; stroke: #b0b0b0; stroke-width: 0.8; stroke-linecap: square"/>
     </g>
     <g id="line2d_18">
      <g>
       <use xlink:href="#m7e0d20239e" x="517.126565" y="98.44" style="stroke: #000000; stroke-width: 0.8"/>
      </g>
     </g>
     <g id="text_9">
      <text style="font-size: 10px; font-family: 'Times New Roman'; text-anchor: middle" x="517.126565" y="112.38375" transform="rotate(-0 517.126565 112.38375)">400</text>
     </g>
    </g>
    <g id="text_10">
     <text style="font-size: 12px; font-family: 'Times New Roman'; text-anchor: middle" x="287.155" y="126.855312" transform="rotate(-0 287.155 126.855312)">Simulation Run</text>
    </g>
   </g>
   <g id="matplotlib.axis_2">
    <g id="ytick_1">
     <g id="line2d_19">
      <path d="M 34.31 98.44 
L 540 98.44 
" clip-path="url(#pdd91efaa01)" style="fill: none; stroke: #b0b0b0; stroke-width: 0.8; stroke-linecap: square"/>
     </g>
     <g id="line2d_20">
      <defs>
       <path id="m74c1cba101" d="M 0 0 
L -3.5 0 
" style="stroke: #000000; stroke-width: 0.8"/>
      </defs>
      <g>
       <use xlink:href="#m74c1cba101" x="34.31" y="98.44" style="stroke: #000000; stroke-width: 0.8"/>
      </g>
     </g>
     <g id="text_11">
      <text style="font-size: 10px; font-family: 'Times New Roman'; text-anchor: end" x="27.31" y="101.911875" transform="rotate(-0 27.31 101.911875)">0.0</text>
     </g>
    </g>
    <g id="ytick_2">
     <g id="line2d_21">
      <path d="M 34.31 66.826667 
L 540 66.826667 
" clip-path="url(#pdd91efaa01)" style="fill: none; stroke: #b0b0b0; stroke-width: 0.8; stroke-linecap: square"/>
     </g>
     <g id="line2d_22">
      <g>
       <use xlink:href="#m74c1cba101" x="34.31" y="66.826667" style="stroke: #000000; stroke-width: 0.8"/>
      </g>
     </g>
     <g id="text_12">
      <text style="font-size: 10px; font-family: 'Times New Roman'; text-anchor: end" x="27.31" y="70.298542" transform="rotate(-0 27.31 70.298542)">0.5</text>
     </g>
    </g>
    <g id="ytick_3">
     <g id="line2d_23">
      <path d="M 34.31 35.213333 
L 540 35.213333 
" clip-path="url(#pdd91efaa01)" style="fill: none; stroke: #b0b0b0; stroke-width: 0.8; stroke-linecap: square"/>
     </g>
     <g id="line2d_24">
      <g>
       <use xlink:href="#m74c1cba101" x="34.31" y="35.213333" style="stroke: #000000; stroke-width: 0.8"/>
      </g>
     </g>
     <g id="text_13">
      <text style="font-size: 10px; font-family: 'Times New Roman'; text-anchor: end" x="27.31" y="38.685208" transform="rotate(-0 27.31 38.685208)">1.0</text>
     </g>
    </g>
    <g id="ytick_4">
     <g id="line2d_25">
      <path d="M 34.31 3.6 
L 540 3.6 
" clip-path="url(#pdd91efaa01)" style="fill: none; stroke: #b0b0b0; stroke-width: 0.8; stroke-linecap: square"/>
     </g>
     <g id="line2d_26">
      <g>
       <use xlink:href="#m74c1cba101" x="34.31" y="3.6" style="stroke: #000000; stroke-width: 0.8"/>
      </g>
     </g>
     <g id="text_14">
      <text style="font-size: 10px; font-family: 'Times New Roman'; text-anchor: end" x="27.31" y="7.071875" transform="rotate(-0 27.31 7.071875)">1.5</text>
     </g>
    </g>
    <g id="text_15">
     <text style="font-size: 12px; font-family: 'Times New Roman'; text-anchor: middle" x="8.243125" y="51.02" transform="rotate(-90 8.243125 51.02)">Normalized Value</text>
    </g>
   </g>
   <g id="line2d_27">
    <path d="M 34.31 37.448891 
L 35.517041 33.816751 
L 36.724083 30.682472 
L 37.931124 26.881836 
L 39.138166 31.217163 
L 40.345207 37.125698 
L 41.552248 39.74383 
L 42.75929 40.770671 
L 43.966331 40.916288 
L 45.173373 39.330995 
L 46.380414 35.717832 
L 47.587456 35.19661 
L 48.794497 37.824982 
L 50.001538 35.541264 
L 51.20858 37.125683 
L 52.415621 36.450746 
L 53.622663 35.971792 
L 54.829704 36.692519 
L 56.036745 36.50928 
L 57.243787 36.657828 
L 58.450828 36.342121 
L 59.65787 37.008215 
L 60.864911 36.378728 
L 62.071953 35.267604 
L 63.278994 35.924853 
L 64.486035 35.750618 
L 65.693077 35.346572 
L 66.900118 33.986843 
L 68.10716 34.34359 
L 69.314201 33.240086 
L 70.521242 32.876809 
L 71.728284 33.486009 
L 72.935325 33.714372 
L 74.142367 33.480792 
L 75.349408 33.916706 
L 76.556449 33.88651 
L 78.970532 34.463817 
L 80.177574 34.155118 
L 81.384615 34.66953 
L 83.798698 35.206653 
L 85.005739 35.261385 
L 86.212781 34.83084 
L 88.626864 34.726652 
L 89.833905 34.366491 
L 91.040946 34.433067 
L 93.455029 34.102364 
L 94.662071 34.287716 
L 95.869112 34.349425 
L 98.283195 34.083131 
L 99.490236 34.640604 
L 100.697278 33.926064 
L 101.904319 33.678877 
L 107.939526 33.985322 
L 110.353609 34.449523 
L 111.56065 34.318587 
L 113.974733 34.79899 
L 115.181775 34.825693 
L 116.388816 35.009564 
L 120.00994 35.133065 
L 121.216982 35.466308 
L 122.424023 35.488727 
L 123.631065 35.376085 
L 124.838106 35.43525 
L 127.252189 35.833131 
L 130.873313 36.095444 
L 132.080354 36.470273 
L 133.287396 36.630024 
L 134.494437 36.955562 
L 136.90852 36.604687 
L 138.115562 36.499961 
L 140.529644 36.731 
L 141.736686 36.746313 
L 144.150769 37.338337 
L 145.35781 37.551389 
L 146.564851 35.748201 
L 147.771893 35.908665 
L 148.978934 35.735558 
L 150.185976 35.867758 
L 152.600058 35.59283 
L 153.8071 35.86511 
L 155.014141 36.007736 
L 156.221183 36.00572 
L 157.428224 36.176233 
L 158.635266 36.100072 
L 159.842307 36.233464 
L 161.049348 36.195115 
L 163.463431 36.415012 
L 164.670473 36.395204 
L 167.084555 36.668109 
L 168.291597 36.576237 
L 171.912721 36.85937 
L 173.119763 36.814189 
L 174.326804 36.953633 
L 176.740887 36.807427 
L 177.947928 36.809176 
L 180.362011 36.441261 
L 181.569052 36.469132 
L 183.983135 36.352321 
L 186.397218 36.541151 
L 187.604259 36.384879 
L 192.432425 36.332174 
L 197.260591 36.695614 
L 198.467632 36.680629 
L 200.881715 36.513111 
L 202.088756 36.114854 
L 204.502839 35.874377 
L 206.916922 36.012356 
L 208.123963 35.80406 
L 210.538046 36.047364 
L 211.745088 35.988362 
L 212.952129 35.245677 
L 216.573253 35.012818 
L 217.780295 35.094178 
L 221.401419 35.062127 
L 227.436626 35.037166 
L 231.05775 34.963142 
L 232.264792 35.095643 
L 233.471833 35.0147 
L 234.678875 35.185476 
L 235.885916 35.089217 
L 237.092957 34.808744 
L 240.714082 34.865938 
L 241.921123 34.905984 
L 243.128164 34.776061 
L 245.542247 34.992787 
L 251.577454 35.284509 
L 252.784496 35.20112 
L 256.40562 35.363335 
L 257.612661 35.212429 
L 260.026744 35.459572 
L 262.440827 35.48218 
L 264.85491 35.624585 
L 267.268993 35.499241 
L 276.925324 35.475182 
L 278.132365 35.377279 
L 280.546448 35.591115 
L 281.75349 35.485757 
L 284.167573 35.513625 
L 285.374614 35.399348 
L 287.788697 35.472045 
L 288.995738 35.355951 
L 296.237987 35.480165 
L 299.859111 35.326326 
L 302.273194 35.095891 
L 307.101359 35.100961 
L 309.515442 35.199111 
L 311.929525 35.204818 
L 314.343608 35.298726 
L 316.757691 35.399402 
L 322.792898 35.587906 
L 323.999939 35.385729 
L 331.242188 35.161585 
L 337.277395 34.986121 
L 343.312602 34.868876 
L 345.726685 34.608488 
L 359.00414 34.933897 
L 363.832306 34.816194 
L 366.246389 34.78784 
L 369.867513 34.715427 
L 372.281596 34.903279 
L 379.523844 34.918878 
L 380.730886 33.882935 
L 384.35201 34.000775 
L 387.973134 33.7793 
L 390.387217 33.840539 
L 394.008341 33.864064 
L 396.422424 33.966839 
L 401.25059 33.875735 
L 402.457631 33.897847 
L 404.871714 34.08873 
L 408.492838 34.095788 
L 410.906921 34.202119 
L 412.113962 34.177958 
L 413.321004 34.27551 
L 415.735087 34.331448 
L 418.149169 34.392745 
L 420.563252 34.372199 
L 422.977335 34.432505 
L 424.184376 34.540863 
L 426.598459 34.492149 
L 427.805501 34.381199 
L 431.426625 34.399196 
L 432.633666 34.371167 
L 435.047749 34.485297 
L 438.668873 34.613134 
L 439.875915 34.553138 
L 441.082956 34.632685 
L 443.497039 34.638881 
L 453.15337 34.643914 
L 455.567453 34.745031 
L 466.430826 34.797316 
L 468.844909 34.897545 
L 472.466033 34.793517 
L 474.880116 34.798104 
L 480.915323 34.871351 
L 484.536447 34.811236 
L 485.743488 34.889446 
L 489.364613 34.819645 
L 495.39982 35.005416 
L 497.813903 34.960667 
L 503.84911 34.936563 
L 508.677275 35.035825 
L 512.2984 35.135295 
L 515.919524 35.213333 
L 515.919524 35.213333 
" clip-path="url(#pdd91efaa01)" style="fill: none; stroke: #4169e1; stroke-width: 1.5; stroke-linecap: square"/>
   </g>
   <g id="line2d_28">
    <path d="M 34.31 98.44 
L 35.517041 97.000397 
L 36.724083 95.336274 
L 37.931124 91.383402 
L 39.138166 84.590808 
L 40.345207 67.851103 
L 41.552248 67.732956 
L 43.966331 73.822305 
L 45.173373 73.815881 
L 46.380414 61.80845 
L 47.587456 64.534975 
L 48.794497 58.096722 
L 50.001538 53.579848 
L 51.20858 52.735346 
L 53.622663 57.010055 
L 54.829704 58.348093 
L 57.243787 62.248879 
L 58.450828 63.754737 
L 60.864911 64.847029 
L 62.071953 63.148102 
L 63.278994 63.42845 
L 64.486035 64.69223 
L 65.693077 65.478964 
L 66.900118 61.208787 
L 68.10716 62.10376 
L 69.314201 59.4614 
L 70.521242 60.286743 
L 71.728284 60.223585 
L 74.142367 62.098389 
L 75.349408 62.431705 
L 76.556449 63.428452 
L 77.763491 63.911994 
L 78.970532 64.599342 
L 80.177574 65.071891 
L 81.384615 64.77992 
L 83.798698 65.749811 
L 85.005739 66.496319 
L 86.212781 66.352506 
L 88.626864 67.720629 
L 89.833905 67.723101 
L 91.040946 68.340303 
L 97.076153 70.670779 
L 98.283195 70.987639 
L 99.490236 69.655478 
L 100.697278 67.105178 
L 101.904319 67.281526 
L 103.111361 67.798303 
L 105.525443 68.658039 
L 107.939526 69.524428 
L 110.353609 69.699059 
L 111.56065 70.021494 
L 112.767692 69.844623 
L 113.974733 70.017523 
L 115.181775 70.430287 
L 116.388816 70.585354 
L 120.00994 71.663651 
L 121.216982 71.157936 
L 123.631065 71.779048 
L 124.838106 72.101201 
L 127.252189 72.118553 
L 129.666272 72.732169 
L 130.873313 72.48836 
L 132.080354 71.562994 
L 133.287396 71.658453 
L 134.494437 71.017442 
L 135.701479 70.943586 
L 139.322603 71.412091 
L 141.736686 71.929046 
L 142.943727 71.260624 
L 144.150769 70.780761 
L 145.35781 70.622477 
L 146.564851 37.920811 
L 152.600058 39.839718 
L 153.8071 39.624812 
L 155.014141 39.985159 
L 156.221183 40.558201 
L 157.428224 40.796545 
L 158.635266 41.285614 
L 159.842307 41.628008 
L 161.049348 42.14712 
L 163.463431 42.907922 
L 164.670473 43.412767 
L 168.291597 44.344902 
L 169.498638 44.70437 
L 170.70568 44.713096 
L 173.119763 45.612728 
L 175.533845 46.059982 
L 177.947928 46.927948 
L 179.15497 47.002082 
L 180.362011 46.873896 
L 181.569052 47.282792 
L 182.776094 47.550312 
L 183.983135 47.955192 
L 185.190177 48.134237 
L 186.397218 48.478573 
L 187.604259 48.530453 
L 192.432425 49.990859 
L 193.639467 50.180363 
L 194.846508 50.539085 
L 196.053549 50.538783 
L 200.881715 51.513866 
L 202.088756 49.443256 
L 203.295798 49.454971 
L 206.916922 50.164222 
L 208.123963 49.815379 
L 211.745088 50.277844 
L 212.952129 41.692905 
L 214.159171 41.97735 
L 215.366212 42.087027 
L 217.780295 42.699315 
L 220.194378 43.272815 
L 221.401419 43.483092 
L 222.60846 43.831554 
L 223.815502 44.041061 
L 228.643668 45.321089 
L 232.264792 45.602751 
L 233.471833 45.80308 
L 234.678875 45.589968 
L 235.885916 45.735692 
L 237.092957 44.605412 
L 240.714082 45.487572 
L 241.921123 45.763556 
L 244.335206 45.697315 
L 249.163372 46.405526 
L 251.577454 46.896399 
L 253.991537 47.286014 
L 256.40562 47.688705 
L 257.612661 47.501828 
L 260.026744 47.421766 
L 263.647868 48.109653 
L 264.85491 48.244417 
L 266.061951 48.24139 
L 270.890117 49.164122 
L 274.511241 49.699798 
L 276.925324 50.118814 
L 278.132365 50.145567 
L 279.339407 50.012768 
L 282.960531 50.300331 
L 284.167573 50.530412 
L 285.374614 50.463232 
L 287.788697 50.85297 
L 288.995738 50.767107 
L 297.445028 52.158538 
L 299.859111 52.348908 
L 301.066152 51.986131 
L 302.273194 52.052141 
L 303.480235 52.25218 
L 305.894318 52.486343 
L 307.101359 52.686025 
L 308.308401 52.695709 
L 311.929525 53.25152 
L 313.136566 53.252415 
L 315.550649 53.63765 
L 316.757691 53.565789 
L 317.964732 53.697135 
L 319.171773 53.579834 
L 322.792898 53.950719 
L 323.999939 53.064802 
L 326.414022 53.299662 
L 327.621063 53.470688 
L 328.828105 53.47479 
L 333.65627 54.102101 
L 334.863312 54.161305 
L 338.484436 54.602149 
L 343.312602 54.98866 
L 344.519643 54.550733 
L 345.726685 54.35847 
L 350.55485 54.856471 
L 352.968933 54.957368 
L 357.797099 55.292234 
L 361.418223 55.66413 
L 363.832306 55.802633 
L 367.45343 56.100142 
L 368.660471 56.02701 
L 369.867513 56.135845 
L 371.074554 55.839744 
L 372.281596 55.855589 
L 375.90272 56.209834 
L 377.109761 56.312148 
L 378.316803 56.193286 
L 379.523844 56.239968 
L 380.730886 22.776291 
L 381.937927 22.965342 
L 383.144968 22.984345 
L 384.35201 23.233683 
L 385.559051 23.28317 
L 386.766093 23.53689 
L 387.973134 23.241513 
L 390.387217 23.653445 
L 394.008341 24.372959 
L 395.215383 24.46785 
L 402.457631 25.753821 
L 403.664672 25.278385 
L 407.285797 25.893869 
L 408.492838 26.124593 
L 409.699879 26.020545 
L 412.113962 26.460283 
L 413.321004 26.362711 
L 414.528045 26.568169 
L 416.942128 26.667533 
L 418.149169 26.892449 
L 420.563252 27.158152 
L 422.977335 27.511478 
L 424.184376 27.316551 
L 426.598459 27.698921 
L 427.805501 27.477337 
L 432.633666 28.213389 
L 433.840708 28.116113 
L 437.461832 28.639227 
L 438.668873 28.528134 
L 444.70408 28.974323 
L 447.118163 29.342279 
L 449.532246 29.61167 
L 450.739288 29.749636 
L 451.946329 29.68079 
L 453.15337 29.817473 
L 454.360412 29.816758 
L 461.60266 30.839196 
L 462.809702 30.447561 
L 464.016743 30.414661 
L 470.05195 30.957316 
L 473.673074 31.351803 
L 477.294199 31.780978 
L 479.708281 32.126914 
L 483.329406 32.44331 
L 484.536447 32.619685 
L 485.743488 32.545564 
L 488.157571 32.80655 
L 489.364613 32.973049 
L 495.39982 33.280953 
L 496.606861 33.440348 
L 497.813903 33.456107 
L 500.227985 33.649197 
L 502.642068 33.907178 
L 506.263193 34.293581 
L 508.677275 34.561271 
L 509.884317 34.577939 
L 514.712482 35.154627 
L 515.919524 35.213333 
L 515.919524 35.213333 
" clip-path="url(#pdd91efaa01)" style="fill: none; stroke-dasharray: 5.55,2.4; stroke-dashoffset: 0; stroke: #4169e1; stroke-width: 1.5"/>
   </g>
   <g id="line2d_29">
    <path d="M 34.31 31.619577 
L 35.517041 33.249174 
L 36.724083 29.776316 
L 37.931124 27.246224 
L 39.138166 31.375396 
L 40.345207 36.389059 
L 41.552248 38.540299 
L 43.966331 39.411348 
L 45.173373 38.386749 
L 46.380414 35.164432 
L 47.587456 34.61013 
L 48.794497 36.660907 
L 50.001538 34.974703 
L 51.20858 36.424102 
L 52.415621 35.972455 
L 53.622663 35.872107 
L 54.829704 36.289057 
L 56.036745 36.289008 
L 57.243787 36.696402 
L 58.450828 35.980983 
L 59.65787 36.512809 
L 60.864911 35.723225 
L 62.071953 35.296203 
L 63.278994 35.480151 
L 65.693077 34.77889 
L 66.900118 33.757799 
L 68.10716 34.130614 
L 69.314201 33.404449 
L 70.521242 33.243469 
L 71.728284 33.796043 
L 72.935325 33.878593 
L 74.142367 33.753068 
L 76.556449 34.177057 
L 78.970532 34.539588 
L 80.177574 34.351858 
L 81.384615 34.838063 
L 82.591657 35.044663 
L 83.798698 35.000429 
L 85.005739 35.127679 
L 86.212781 34.643967 
L 87.419822 34.547246 
L 88.626864 34.591299 
L 89.833905 34.24046 
L 92.247988 34.039617 
L 93.455029 33.916293 
L 94.662071 34.058174 
L 98.283195 33.850058 
L 99.490236 34.246904 
L 100.697278 33.7004 
L 101.904319 33.547605 
L 107.939526 33.89921 
L 110.353609 34.189723 
L 111.56065 34.114732 
L 113.974733 34.36628 
L 115.181775 34.338601 
L 116.388816 34.440699 
L 120.00994 34.480334 
L 121.216982 34.787892 
L 127.252189 34.98979 
L 128.45923 35.07686 
L 129.666272 35.029696 
L 130.873313 35.205252 
L 132.080354 35.507413 
L 133.287396 35.605825 
L 134.494437 35.852441 
L 138.115562 35.508146 
L 140.529644 35.60585 
L 141.736686 35.611221 
L 144.150769 36.094231 
L 145.35781 36.250682 
L 146.564851 35.389282 
L 147.771893 35.464599 
L 148.978934 35.330458 
L 150.185976 35.373768 
L 152.600058 35.123397 
L 153.8071 35.352941 
L 155.014141 35.441233 
L 156.221183 35.41638 
L 157.428224 35.550771 
L 158.635266 35.467868 
L 161.049348 35.562599 
L 167.084555 35.77892 
L 169.498638 35.765547 
L 170.70568 35.879342 
L 173.119763 35.785244 
L 174.326804 35.883609 
L 176.740887 35.723056 
L 177.947928 35.773239 
L 180.362011 35.464417 
L 181.569052 35.521306 
L 183.983135 35.46049 
L 186.397218 35.604857 
L 190.018342 35.423327 
L 198.467632 35.755701 
L 199.674674 35.66965 
L 200.881715 35.704626 
L 202.088756 35.419111 
L 204.502839 35.29505 
L 205.709881 35.410508 
L 206.916922 35.407789 
L 208.123963 35.289258 
L 210.538046 35.442384 
L 211.745088 35.400222 
L 212.952129 34.980207 
L 216.573253 34.805799 
L 218.987336 34.872213 
L 220.194378 34.788691 
L 222.60846 34.813735 
L 223.815502 34.73888 
L 227.436626 34.815685 
L 231.05775 34.751335 
L 232.264792 34.83094 
L 233.471833 34.76776 
L 234.678875 34.921776 
L 235.885916 34.843579 
L 237.092957 34.64196 
L 241.921123 34.761513 
L 243.128164 34.662765 
L 249.163372 35.029752 
L 252.784496 34.997051 
L 269.683076 35.362312 
L 272.097158 35.371986 
L 275.718283 35.361848 
L 278.132365 35.27193 
L 280.546448 35.425683 
L 281.75349 35.307627 
L 284.167573 35.31556 
L 285.374614 35.200608 
L 287.788697 35.284972 
L 288.995738 35.167747 
L 297.445028 35.20404 
L 301.066152 35.048754 
L 304.687277 35.024577 
L 311.929525 35.073816 
L 314.343608 35.135548 
L 322.792898 35.323323 
L 323.999939 35.185275 
L 332.449229 35.012336 
L 350.55485 34.741856 
L 354.175974 34.790788 
L 356.590057 34.800814 
L 361.418223 34.799172 
L 366.246389 34.680599 
L 369.867513 34.610246 
L 372.281596 34.774202 
L 377.109761 34.711958 
L 379.523844 34.809945 
L 380.730886 34.342861 
L 385.559051 34.385323 
L 394.008341 34.349578 
L 396.422424 34.375958 
L 398.836507 34.307537 
L 408.492838 34.432267 
L 410.906921 34.529464 
L 413.321004 34.571197 
L 426.598459 34.782634 
L 430.219583 34.683933 
L 445.911122 34.792903 
L 449.532246 34.777276 
L 450.739288 34.826534 
L 453.15337 34.790124 
L 456.774495 34.865104 
L 466.430826 34.946538 
L 468.844909 35.036777 
L 471.258992 34.986982 
L 484.536447 34.946468 
L 486.95053 34.961197 
L 492.985737 35.032221 
L 495.39982 35.080724 
L 499.020944 35.024985 
L 505.056151 35.056008 
L 511.091358 35.174587 
L 515.919524 35.213333 
L 515.919524 35.213333 
" clip-path="url(#pdd91efaa01)" style="fill: none; stroke: #ff8c00; stroke-width: 1.5; stroke-linecap: square"/>
   </g>
   <g id="line2d_30">
    <path d="M 34.31 98.44 
L 35.517041 97.673236 
L 36.724083 90.964079 
L 37.931124 87.288139 
L 39.138166 69.826622 
L 40.345207 38.30597 
L 41.552248 38.879205 
L 42.75929 46.014397 
L 43.966331 51.308435 
L 45.173373 53.293549 
L 46.380414 27.417338 
L 47.587456 32.360035 
L 48.794497 22.871107 
L 50.001538 17.596419 
L 51.20858 14.49409 
L 53.622663 23.492063 
L 54.829704 26.802502 
L 56.036745 30.572897 
L 57.243787 33.055743 
L 58.450828 33.213635 
L 59.65787 34.46349 
L 60.864911 33.284845 
L 62.071953 34.788683 
L 63.278994 37.100257 
L 64.486035 38.830324 
L 65.693077 39.800446 
L 66.900118 33.766518 
L 68.10716 34.872947 
L 69.314201 32.576445 
L 70.521242 34.476603 
L 71.728284 33.742431 
L 74.142367 37.336926 
L 75.349408 38.432608 
L 77.763491 41.191931 
L 80.177574 43.237363 
L 81.384615 41.955447 
L 82.591657 42.840148 
L 83.798698 44.14079 
L 85.005739 45.207196 
L 86.212781 43.512054 
L 88.626864 45.758745 
L 89.833905 45.244788 
L 91.040946 46.30403 
L 95.869112 49.502647 
L 97.076153 50.425989 
L 98.283195 51.001414 
L 99.490236 49.408441 
L 100.697278 45.541041 
L 101.904319 46.091598 
L 103.111361 46.935193 
L 104.318402 47.588489 
L 106.732485 49.144648 
L 107.939526 49.854908 
L 109.146568 50.10361 
L 110.353609 50.598354 
L 111.56065 51.230458 
L 112.767692 51.56813 
L 113.974733 52.038378 
L 115.181775 52.705933 
L 116.388816 53.164082 
L 120.00994 55.005083 
L 121.216982 53.633603 
L 124.838106 55.330869 
L 126.045147 55.730393 
L 127.252189 55.832331 
L 129.666272 56.678176 
L 130.873313 56.481842 
L 132.080354 54.858206 
L 133.287396 55.153987 
L 134.494437 54.211749 
L 135.701479 54.297696 
L 136.90852 54.175347 
L 138.115562 54.623209 
L 139.322603 54.883116 
L 141.736686 55.850302 
L 142.943727 54.39331 
L 144.150769 53.704094 
L 145.35781 53.534929 
L 146.564851 34.087845 
L 147.771893 34.611272 
L 148.978934 34.782584 
L 150.185976 35.386852 
L 152.600058 35.781224 
L 153.8071 34.901671 
L 155.014141 35.30568 
L 156.221183 35.906631 
L 157.428224 35.981838 
L 159.842307 36.715899 
L 162.25639 37.760723 
L 164.670473 38.829988 
L 169.498638 40.470714 
L 170.70568 40.556724 
L 173.119763 41.407729 
L 175.533845 41.654408 
L 177.947928 42.423214 
L 179.15497 41.55731 
L 180.362011 41.57758 
L 183.983135 42.717006 
L 185.190177 42.661298 
L 186.397218 43.074161 
L 187.604259 43.164845 
L 188.811301 43.402961 
L 192.432425 44.540005 
L 193.639467 44.757997 
L 194.846508 45.151857 
L 196.053549 44.960412 
L 200.881715 45.992076 
L 202.088756 43.094994 
L 203.295798 43.24672 
L 204.502839 43.545929 
L 205.709881 43.383241 
L 206.916922 43.765274 
L 208.123963 43.558185 
L 210.538046 43.814041 
L 211.745088 44.107687 
L 212.952129 36.933705 
L 215.366212 37.305278 
L 216.573253 37.664859 
L 217.780295 37.882386 
L 218.987336 38.275357 
L 220.194378 38.353329 
L 222.60846 39.038939 
L 223.815502 39.160889 
L 231.05775 41.043777 
L 233.471833 41.246857 
L 234.678875 40.452381 
L 235.885916 40.502696 
L 237.092957 38.873673 
L 238.299999 39.062761 
L 241.921123 40.025943 
L 245.542247 39.676781 
L 249.163372 40.070943 
L 253.991537 41.052691 
L 255.198579 41.235067 
L 257.612661 41.238657 
L 258.819703 40.835445 
L 260.026744 40.900177 
L 263.647868 41.683709 
L 264.85491 41.602665 
L 270.890117 42.889065 
L 272.097158 42.980431 
L 276.925324 43.835526 
L 278.132365 44.018759 
L 280.546448 43.854846 
L 281.75349 43.294859 
L 284.167573 43.819433 
L 285.374614 43.287181 
L 286.581655 43.203979 
L 287.788697 43.461212 
L 288.995738 42.883357 
L 290.20278 43.12962 
L 291.409821 43.218114 
L 292.616862 43.460584 
L 293.823904 43.481962 
L 297.445028 44.211203 
L 298.652069 44.066354 
L 299.859111 44.309284 
L 301.066152 44.24378 
L 309.515442 45.376066 
L 311.929525 45.764297 
L 313.136566 45.699628 
L 315.550649 46.116285 
L 316.757691 45.994932 
L 317.964732 46.196057 
L 319.171773 45.937564 
L 321.585856 46.220196 
L 322.792898 46.426067 
L 323.999939 45.321293 
L 325.206981 45.533977 
L 328.828105 45.752204 
L 336.070353 46.72762 
L 337.277395 46.684902 
L 338.484436 46.883444 
L 340.898519 46.826653 
L 343.312602 47.104183 
L 344.519643 46.767932 
L 345.726685 46.575767 
L 352.968933 47.459625 
L 357.797099 47.554558 
L 359.00414 47.738864 
L 360.211182 47.79608 
L 361.418223 47.977531 
L 362.625264 47.939813 
L 365.039347 48.289241 
L 366.246389 48.274641 
L 367.45343 48.423823 
L 368.660471 48.350671 
L 369.867513 48.527398 
L 371.074554 47.825721 
L 372.281596 47.720177 
L 375.90272 48.121884 
L 377.109761 47.909411 
L 378.316803 47.399034 
L 379.523844 47.573266 
L 380.730886 29.67094 
L 385.559051 30.253791 
L 386.766093 30.463936 
L 387.973134 30.257345 
L 390.387217 30.556722 
L 396.422424 31.524023 
L 397.629465 31.290604 
L 402.457631 32.107261 
L 403.664672 31.106116 
L 406.078755 31.475962 
L 408.492838 31.871619 
L 409.699879 31.625663 
L 412.113962 31.926 
L 413.321004 31.708473 
L 414.528045 31.874313 
L 416.942128 31.608707 
L 418.149169 31.812052 
L 419.356211 31.53592 
L 422.977335 31.773399 
L 424.184376 31.486489 
L 426.598459 31.861828 
L 427.805501 31.712961 
L 429.012542 31.91591 
L 430.219583 31.968254 
L 431.426625 32.146431 
L 432.633666 32.18842 
L 433.840708 31.77514 
L 436.254791 32.100252 
L 437.461832 32.178379 
L 439.875915 31.660045 
L 441.082956 31.593515 
L 443.497039 31.704351 
L 447.118163 32.194366 
L 450.739288 32.327685 
L 451.946329 31.985763 
L 453.15337 32.04255 
L 454.360412 31.965037 
L 461.60266 32.797714 
L 462.809702 32.586935 
L 464.016743 32.257839 
L 465.223784 32.259214 
L 466.430826 32.426566 
L 467.637867 32.084447 
L 468.844909 32.230579 
L 470.05195 32.032366 
L 473.673074 32.480295 
L 474.880116 32.528477 
L 479.708281 33.156195 
L 480.915323 33.290165 
L 482.122364 33.254239 
L 484.536447 33.587554 
L 485.743488 33.455683 
L 486.95053 33.46886 
L 489.364613 33.745996 
L 492.985737 33.8543 
L 494.192778 33.553454 
L 496.606861 33.826963 
L 497.813903 33.581865 
L 500.227985 33.876849 
L 501.435027 33.882761 
L 505.056151 34.350546 
L 506.263193 34.336091 
L 508.677275 34.627424 
L 509.884317 34.593543 
L 515.919524 35.213333 
L 515.919524 35.213333 
" clip-path="url(#pdd91efaa01)" style="fill: none; stroke-dasharray: 5.55,2.4; stroke-dashoffset: 0; stroke: #ff8c00; stroke-width: 1.5"/>
   </g>
   <g id="patch_3">
    <path d="M 34.31 98.44 
L 34.31 3.6 
" style="fill: none; stroke: #000000; stroke-width: 0.8; stroke-linejoin: miter; stroke-linecap: square"/>
   </g>
   <g id="patch_4">
    <path d="M 540 98.44 
L 540 3.6 
" style="fill: none; stroke: #000000; stroke-width: 0.8; stroke-linejoin: miter; stroke-linecap: square"/>
   </g>
   <g id="patch_5">
    <path d="M 34.31 98.44 
L 540 98.44 
" style="fill: none; stroke: #000000; stroke-width: 0.8; stroke-linejoin: miter; stroke-linecap: square"/>
   </g>
   <g id="patch_6">
    <path d="M 34.31 3.6 
L 540 3.6 
" style="fill: none; stroke: #000000; stroke-width: 0.8; stroke-linejoin: miter; stroke-linecap: square"/>
   </g>
  </g>
 </g>
 <defs>
  <clipPath id="pdd91efaa01">
   <rect x="34.31" y="3.6" width="505.69" height="94.84"/>
  </clipPath>
 </defs>
</svg>
