<?xml version="1.0" encoding="utf-8" standalone="no"?>
<!DOCTYPE svg PUBLIC "-//W3C//DTD SVG 1.1//EN"
  "http://www.w3.org/Graphics/SVG/1.1/DTD/svg11.dtd">
<svg xmlns:xlink="http://www.w3.org/1999/xlink" width="540pt" height="129.6pt" viewBox="0 0 540 129.6" xmlns="http://www.w3.org/2000/svg" version="1.1">
 <metadata>
  <rdf:RDF xmlns:dc="http://purl.org/dc/elements/1.1/" xmlns:cc="http://creativecommons.org/ns#" xmlns:rdf="http://www.w3.org/1999/02/22-rdf-syntax-ns#">
   <cc:Work>
    <dc:type rdf:resource="http://purl.org/dc/dcmitype/StillImage"/>
    <dc:date>2025-03-23T16:11:31.049131</dc:date>
    <dc:format>image/svg+xml</dc:format>
    <dc:creator>
     <cc:Agent>
      <dc:title>Matplotlib v3.9.0, https://matplotlib.org/</dc:title>
     </cc:Agent>
    </dc:creator>
   </cc:Work>
  </rdf:RDF>
 </metadata>
 <defs>
  <style type="text/css">*{stroke-linejoin: round; stroke-linecap: butt}</style>
 </defs>
 <g id="figure_1">
  <g id="patch_1">
   <path d="M 0 129.6 
L 540 129.6 
L 540 0 
L 0 0 
z
" style="fill: #ffffff"/>
  </g>
  <g id="axes_1">
   <g id="patch_2">
    <path d="M 35.03 97 
L 540 97 
L 540 0 
L 35.03 0 
z
" style="fill: #ffffff"/>
   </g>
   <g id="matplotlib.axis_1">
    <g id="xtick_1">
     <g id="line2d_1">
      <path d="M 35.03 97 
L 35.03 0 
" clip-path="url(#pfb411c75e6)" style="fill: none; stroke: #b0b0b0; stroke-width: 0.8; stroke-linecap: square"/>
     </g>
     <g id="line2d_2">
      <defs>
       <path id="m3a31097068" d="M 0 0 
L 0 3.5 
" style="stroke: #000000; stroke-width: 0.8"/>
      </defs>
      <g>
       <use xlink:href="#m3a31097068" x="35.03" y="97" style="stroke: #000000; stroke-width: 0.8"/>
      </g>
     </g>
     <g id="text_1">
      <text style="font: 10px 'Times New Roman'; text-anchor: middle" x="35.03" y="110.94375" transform="rotate(-0 35.03 110.94375)">0</text>
     </g>
    </g>
    <g id="xtick_2">
     <g id="line2d_3">
      <path d="M 95.296142 97 
L 95.296142 0 
" clip-path="url(#pfb411c75e6)" style="fill: none; stroke: #b0b0b0; stroke-width: 0.8; stroke-linecap: square"/>
     </g>
     <g id="line2d_4">
      <g>
       <use xlink:href="#m3a31097068" x="95.296142" y="97" style="stroke: #000000; stroke-width: 0.8"/>
      </g>
     </g>
     <g id="text_2">
      <text style="font: 10px 'Times New Roman'; text-anchor: middle" x="95.296142" y="110.94375" transform="rotate(-0 95.296142 110.94375)">50</text>
     </g>
    </g>
    <g id="xtick_3">
     <g id="line2d_5">
      <path d="M 155.562283 97 
L 155.562283 0 
" clip-path="url(#pfb411c75e6)" style="fill: none; stroke: #b0b0b0; stroke-width: 0.8; stroke-linecap: square"/>
     </g>
     <g id="line2d_6">
      <g>
       <use xlink:href="#m3a31097068" x="155.562283" y="97" style="stroke: #000000; stroke-width: 0.8"/>
      </g>
     </g>
     <g id="text_3">
      <text style="font: 10px 'Times New Roman'; text-anchor: middle" x="155.562283" y="110.94375" transform="rotate(-0 155.562283 110.94375)">100</text>
     </g>
    </g>
    <g id="xtick_4">
     <g id="line2d_7">
      <path d="M 215.828425 97 
L 215.828425 0 
" clip-path="url(#pfb411c75e6)" style="fill: none; stroke: #b0b0b0; stroke-width: 0.8; stroke-linecap: square"/>
     </g>
     <g id="line2d_8">
      <g>
       <use xlink:href="#m3a31097068" x="215.828425" y="97" style="stroke: #000000; stroke-width: 0.8"/>
      </g>
     </g>
     <g id="text_4">
      <text style="font: 10px 'Times New Roman'; text-anchor: middle" x="215.828425" y="110.94375" transform="rotate(-0 215.828425 110.94375)">150</text>
     </g>
    </g>
    <g id="xtick_5">
     <g id="line2d_9">
      <path d="M 276.094566 97 
L 276.094566 0 
" clip-path="url(#pfb411c75e6)" style="fill: none; stroke: #b0b0b0; stroke-width: 0.8; stroke-linecap: square"/>
     </g>
     <g id="line2d_10">
      <g>
       <use xlink:href="#m3a31097068" x="276.094566" y="97" style="stroke: #000000; stroke-width: 0.8"/>
      </g>
     </g>
     <g id="text_5">
      <text style="font: 10px 'Times New Roman'; text-anchor: middle" x="276.094566" y="110.94375" transform="rotate(-0 276.094566 110.94375)">200</text>
     </g>
    </g>
    <g id="xtick_6">
     <g id="line2d_11">
      <path d="M 336.360708 97 
L 336.360708 0 
" clip-path="url(#pfb411c75e6)" style="fill: none; stroke: #b0b0b0; stroke-width: 0.8; stroke-linecap: square"/>
     </g>
     <g id="line2d_12">
      <g>
       <use xlink:href="#m3a31097068" x="336.360708" y="97" style="stroke: #000000; stroke-width: 0.8"/>
      </g>
     </g>
     <g id="text_6">
      <text style="font: 10px 'Times New Roman'; text-anchor: middle" x="336.360708" y="110.94375" transform="rotate(-0 336.360708 110.94375)">250</text>
     </g>
    </g>
    <g id="xtick_7">
     <g id="line2d_13">
      <path d="M 396.626849 97 
L 396.626849 0 
" clip-path="url(#pfb411c75e6)" style="fill: none; stroke: #b0b0b0; stroke-width: 0.8; stroke-linecap: square"/>
     </g>
     <g id="line2d_14">
      <g>
       <use xlink:href="#m3a31097068" x="396.626849" y="97" style="stroke: #000000; stroke-width: 0.8"/>
      </g>
     </g>
     <g id="text_7">
      <text style="font: 10px 'Times New Roman'; text-anchor: middle" x="396.626849" y="110.94375" transform="rotate(-0 396.626849 110.94375)">300</text>
     </g>
    </g>
    <g id="xtick_8">
     <g id="line2d_15">
      <path d="M 456.892991 97 
L 456.892991 0 
" clip-path="url(#pfb411c75e6)" style="fill: none; stroke: #b0b0b0; stroke-width: 0.8; stroke-linecap: square"/>
     </g>
     <g id="line2d_16">
      <g>
       <use xlink:href="#m3a31097068" x="456.892991" y="97" style="stroke: #000000; stroke-width: 0.8"/>
      </g>
     </g>
     <g id="text_8">
      <text style="font: 10px 'Times New Roman'; text-anchor: middle" x="456.892991" y="110.94375" transform="rotate(-0 456.892991 110.94375)">350</text>
     </g>
    </g>
    <g id="xtick_9">
     <g id="line2d_17">
      <path d="M 517.159132 97 
L 517.159132 0 
" clip-path="url(#pfb411c75e6)" style="fill: none; stroke: #b0b0b0; stroke-width: 0.8; stroke-linecap: square"/>
     </g>
     <g id="line2d_18">
      <g>
       <use xlink:href="#m3a31097068" x="517.159132" y="97" style="stroke: #000000; stroke-width: 0.8"/>
      </g>
     </g>
     <g id="text_9">
      <text style="font: 10px 'Times New Roman'; text-anchor: middle" x="517.159132" y="110.94375" transform="rotate(-0 517.159132 110.94375)">400</text>
     </g>
    </g>
    <g id="text_10">
     <text style="font: 12px 'Times New Roman'; text-anchor: middle" x="287.515" y="125.415312" transform="rotate(-0 287.515 125.415312)">Simulation Run</text>
    </g>
   </g>
   <g id="matplotlib.axis_2">
    <g id="ytick_1">
     <g id="line2d_19">
      <path d="M 35.03 97 
L 540 97 
" clip-path="url(#pfb411c75e6)" style="fill: none; stroke: #b0b0b0; stroke-width: 0.8; stroke-linecap: square"/>
     </g>
     <g id="line2d_20">
      <defs>
       <path id="m8208fb4c83" d="M 0 0 
L -3.5 0 
" style="stroke: #000000; stroke-width: 0.8"/>
      </defs>
      <g>
       <use xlink:href="#m8208fb4c83" x="35.03" y="97" style="stroke: #000000; stroke-width: 0.8"/>
      </g>
     </g>
     <g id="text_11">
      <text style="font: 10px 'Times New Roman'; text-anchor: end" x="28.03" y="100.471875" transform="rotate(-0 28.03 100.471875)">0.0</text>
     </g>
    </g>
    <g id="ytick_2">
     <g id="line2d_21">
      <path d="M 35.03 56.583333 
L 540 56.583333 
" clip-path="url(#pfb411c75e6)" style="fill: none; stroke: #b0b0b0; stroke-width: 0.8; stroke-linecap: square"/>
     </g>
     <g id="line2d_22">
      <g>
       <use xlink:href="#m8208fb4c83" x="35.03" y="56.583333" style="stroke: #000000; stroke-width: 0.8"/>
      </g>
     </g>
     <g id="text_12">
      <text style="font: 10px 'Times New Roman'; text-anchor: end" x="28.03" y="60.055208" transform="rotate(-0 28.03 60.055208)">0.5</text>
     </g>
    </g>
    <g id="ytick_3">
     <g id="line2d_23">
      <path d="M 35.03 16.166667 
L 540 16.166667 
" clip-path="url(#pfb411c75e6)" style="fill: none; stroke: #b0b0b0; stroke-width: 0.8; stroke-linecap: square"/>
     </g>
     <g id="line2d_24">
      <g>
       <use xlink:href="#m8208fb4c83" x="35.03" y="16.166667" style="stroke: #000000; stroke-width: 0.8"/>
      </g>
     </g>
     <g id="text_13">
      <text style="font: 10px 'Times New Roman'; text-anchor: end" x="28.03" y="19.638542" transform="rotate(-0 28.03 19.638542)">1.0</text>
     </g>
    </g>
    <g id="text_14">
     <text style="font: 12px 'Times New Roman'; text-anchor: middle" x="8.963125" y="48.5" transform="rotate(-90 8.963125 48.5)">Normalized Value</text>
    </g>
   </g>
   <g id="line2d_25">
    <path d="M 35.03 18.687307 
L 36.235323 22.366578 
L 37.440646 23.587195 
L 39.851291 18.335347 
L 41.056614 21.480168 
L 42.261937 23.449732 
L 43.46726 23.884828 
L 44.672583 26.152412 
L 45.877905 23.127134 
L 47.083228 20.522876 
L 48.288551 20.68802 
L 49.493874 21.634695 
L 50.699197 22.81912 
L 51.90452 21.876906 
L 53.109842 22.302182 
L 54.315165 21.926255 
L 55.520488 22.470796 
L 56.725811 20.217972 
L 57.931134 20.755336 
L 59.136457 20.704816 
L 60.341779 19.605715 
L 61.547102 18.023567 
L 62.752425 18.209133 
L 63.957748 18.111482 
L 65.163071 17.622036 
L 66.368394 17.826214 
L 67.573716 18.522868 
L 68.779039 18.680973 
L 69.984362 18.651327 
L 71.189685 19.118276 
L 72.395008 18.19464 
L 74.805653 18.409806 
L 77.216299 18.323248 
L 79.626945 18.949766 
L 80.832268 18.760717 
L 82.03759 18.197886 
L 83.242913 17.211933 
L 84.448236 17.877835 
L 85.653559 18.023095 
L 86.858882 18.40392 
L 88.064205 18.522764 
L 89.269527 19.223036 
L 90.47485 19.19304 
L 91.680173 18.99487 
L 95.296142 19.076104 
L 97.706787 19.795083 
L 98.91211 20.084075 
L 100.117433 19.072665 
L 101.322756 19.366866 
L 102.528079 18.827989 
L 103.733401 19.120523 
L 104.938724 19.538293 
L 106.144047 19.431009 
L 107.34937 19.882065 
L 108.554693 19.816124 
L 109.760016 19.920789 
L 112.170661 19.541855 
L 113.375984 19.504187 
L 114.581307 19.596325 
L 116.991953 18.9791 
L 118.197275 19.290109 
L 119.402598 19.733237 
L 120.607921 19.75942 
L 124.223889 19.393902 
L 125.429212 19.641479 
L 126.634535 19.695163 
L 127.839858 19.191789 
L 129.045181 19.073228 
L 130.250504 19.070198 
L 131.455826 18.735738 
L 132.661149 18.573205 
L 133.866472 18.809511 
L 136.277118 18.73236 
L 137.482441 18.051574 
L 139.893086 17.916201 
L 141.098409 17.268654 
L 142.303732 17.311084 
L 143.509055 17.188298 
L 145.9197 17.465745 
L 147.125023 17.28895 
L 149.535669 17.921002 
L 151.946315 18.146008 
L 153.151637 17.934167 
L 155.562283 17.923703 
L 156.767606 17.433338 
L 157.972929 17.696316 
L 159.178252 17.225972 
L 160.383574 17.154164 
L 161.588897 17.30949 
L 162.79422 17.15896 
L 163.999543 17.37254 
L 165.204866 16.903285 
L 166.410189 17.08997 
L 167.615511 16.905714 
L 168.820834 16.969102 
L 172.436803 16.479848 
L 174.847448 16.426903 
L 176.052771 16.094951 
L 177.258094 16.341398 
L 180.874063 16.478813 
L 182.079385 16.43793 
L 183.284708 16.197469 
L 188.106 16.921074 
L 191.721968 16.788151 
L 192.927291 17.016719 
L 195.337937 17.054869 
L 196.543259 17.035205 
L 197.748582 16.671111 
L 198.953905 16.633126 
L 200.159228 16.894074 
L 201.364551 16.811209 
L 202.569873 16.566808 
L 203.775196 16.466835 
L 204.980519 16.145338 
L 206.185842 16.014235 
L 208.596488 15.976972 
L 211.007133 15.814825 
L 214.623102 15.739876 
L 217.033747 16.074464 
L 218.23907 15.815101 
L 219.444393 15.910343 
L 221.855039 15.783615 
L 223.060362 15.989354 
L 224.265684 15.833964 
L 225.471007 15.800265 
L 226.67633 15.347115 
L 227.881653 15.130178 
L 230.292299 15.191777 
L 232.702944 15.352318 
L 233.908267 15.138145 
L 236.318913 15.122326 
L 241.140204 15.226619 
L 242.345527 14.938468 
L 245.961495 15.050024 
L 247.166818 15.104978 
L 249.577464 14.928324 
L 250.782787 15.087887 
L 253.193432 14.528291 
L 254.398755 14.356503 
L 258.014724 14.510709 
L 261.630692 14.947089 
L 264.041338 15.028071 
L 265.246661 15.047778 
L 266.451984 14.893293 
L 267.657306 14.858042 
L 270.067952 15.146696 
L 271.273275 14.999352 
L 273.683921 15.346457 
L 274.889243 15.187086 
L 276.094566 15.28966 
L 277.299889 15.097053 
L 282.12118 15.01855 
L 284.531826 15.044049 
L 285.737149 15.054207 
L 286.942472 14.821209 
L 290.55844 15.149827 
L 300.201023 15.521693 
L 301.406346 15.409201 
L 307.43296 15.672245 
L 308.638283 15.760578 
L 311.048928 15.744694 
L 315.87022 15.834969 
L 317.075542 15.729687 
L 318.280865 15.82591 
L 320.691511 15.812867 
L 321.896834 15.833436 
L 324.307479 15.646884 
L 327.923448 15.739698 
L 330.334094 15.579873 
L 337.566031 15.957907 
L 338.771353 15.923628 
L 341.181999 16.035798 
L 344.797968 15.976898 
L 350.824582 15.892263 
L 353.235227 16.029955 
L 355.645873 15.900889 
L 359.261842 16.093761 
L 361.672487 15.994616 
L 365.288456 16.142859 
L 367.699101 16.148467 
L 373.725715 16.223724 
L 374.931038 16.297866 
L 378.547007 15.943828 
L 382.162975 16.130963 
L 383.368298 15.972076 
L 386.984267 15.959361 
L 389.394912 16.10883 
L 395.421526 16.171713 
L 396.626849 16.23059 
L 397.832172 16.048761 
L 400.242818 15.972814 
L 405.064109 16.191154 
L 406.269432 16.036133 
L 411.090723 16.288367 
L 414.706692 16.242162 
L 418.32266 16.087377 
L 419.527983 16.012763 
L 420.733306 16.120192 
L 423.143952 16.114472 
L 424.349274 16.152468 
L 425.554597 16.065514 
L 433.991857 16.325994 
L 435.19718 16.18479 
L 440.018471 16.382876 
L 442.429117 16.533629 
L 446.045085 16.671017 
L 449.661054 16.578766 
L 456.892991 16.666112 
L 459.303636 16.598201 
L 460.508959 16.533601 
L 462.919605 16.658153 
L 468.946219 16.699626 
L 470.151542 16.572092 
L 473.76751 16.515906 
L 474.972833 16.362289 
L 478.588802 16.376504 
L 482.20477 16.366836 
L 487.026062 16.57859 
L 495.463321 16.496226 
L 499.07929 16.629484 
L 502.695258 16.298505 
L 507.51655 16.408274 
L 508.721873 16.502169 
L 509.927195 16.371063 
L 511.132518 16.419813 
L 512.337841 16.320523 
L 513.543164 16.333846 
L 515.95381 16.166667 
L 515.95381 16.166667 
" clip-path="url(#pfb411c75e6)" style="fill: none; stroke: #4169e1; stroke-width: 1.5; stroke-linecap: square"/>
   </g>
   <g id="line2d_26">
    <path d="M 35.03 97 
L 36.235323 94.693241 
L 37.440646 94.95439 
L 39.851291 88.405109 
L 41.056614 81.411221 
L 42.261937 79.672028 
L 43.46726 81.612213 
L 44.672583 76.312327 
L 45.877905 64.344822 
L 47.083228 55.756422 
L 48.288551 59.142266 
L 49.493874 60.221826 
L 50.699197 59.741147 
L 51.90452 60.107164 
L 54.315165 63.627098 
L 55.520488 64.622158 
L 56.725811 50.759223 
L 57.931134 52.13635 
L 59.136457 54.264016 
L 60.341779 51.883678 
L 61.547102 44.461085 
L 63.957748 48.495639 
L 65.163071 49.340653 
L 66.368394 50.921113 
L 67.573716 50.333847 
L 69.984362 53.325287 
L 71.189685 53.619497 
L 72.395008 50.468609 
L 74.805653 53.075639 
L 77.216299 55.462428 
L 78.421622 55.837957 
L 79.626945 56.435518 
L 80.832268 57.244207 
L 82.03759 56.132873 
L 83.242913 50.50363 
L 84.448236 48.512666 
L 85.653559 49.489264 
L 86.858882 49.506384 
L 88.064205 50.455901 
L 89.269527 47.707401 
L 90.47485 48.749127 
L 91.680173 49.439829 
L 95.296142 52.162006 
L 96.501464 51.623592 
L 97.706787 51.58642 
L 98.91211 51.673142 
L 100.117433 43.084292 
L 101.322756 43.235869 
L 102.528079 41.408039 
L 103.733401 41.53532 
L 104.938724 40.750431 
L 106.144047 41.572206 
L 107.34937 40.400721 
L 109.760016 42.037304 
L 110.965338 42.351595 
L 112.170661 42.934625 
L 114.581307 44.437559 
L 115.78663 44.244186 
L 118.197275 43.398137 
L 119.402598 41.810832 
L 120.607921 42.569055 
L 123.018567 43.856215 
L 124.223889 44.035437 
L 125.429212 43.948977 
L 126.634535 44.600629 
L 127.839858 41.947723 
L 129.045181 42.457754 
L 130.250504 43.139408 
L 131.455826 42.279392 
L 132.661149 42.582092 
L 133.866472 42.457467 
L 136.277118 43.677895 
L 137.482441 37.584885 
L 139.893086 38.799354 
L 141.098409 33.165419 
L 142.303732 33.847388 
L 144.714378 34.679804 
L 145.9197 35.061418 
L 147.125023 35.225002 
L 148.330346 33.994805 
L 149.535669 33.295121 
L 150.740992 33.654985 
L 151.946315 34.166614 
L 153.151637 34.051881 
L 155.562283 35.266253 
L 156.767606 31.73302 
L 157.972929 31.164645 
L 159.178252 27.914859 
L 160.383574 28.481432 
L 162.79422 28.925225 
L 163.999543 28.723815 
L 165.204866 25.297723 
L 167.615511 25.311783 
L 168.820834 25.875854 
L 170.026157 25.947971 
L 171.23148 26.369543 
L 172.436803 26.077151 
L 174.847448 27.154171 
L 176.052771 25.549155 
L 177.258094 24.928324 
L 182.079385 27.090321 
L 183.284708 26.442197 
L 184.490031 26.122846 
L 185.695354 26.243826 
L 188.106 25.838278 
L 191.721968 27.24266 
L 192.927291 26.604899 
L 195.337937 27.548571 
L 196.543259 28.054197 
L 197.748582 25.511584 
L 198.953905 25.999958 
L 200.159228 24.924779 
L 201.364551 25.281833 
L 202.569873 24.379289 
L 203.775196 24.655894 
L 204.980519 22.681935 
L 206.185842 22.785739 
L 208.596488 23.765798 
L 209.80181 23.983811 
L 214.623102 25.683033 
L 215.828425 25.352588 
L 217.033747 25.186701 
L 218.23907 23.913707 
L 219.444393 24.151798 
L 220.649716 24.584541 
L 221.855039 24.839276 
L 223.060362 24.173688 
L 224.265684 23.988632 
L 225.471007 24.417248 
L 226.67633 19.307225 
L 227.881653 18.50668 
L 229.086976 18.822674 
L 231.497621 19.732565 
L 232.702944 19.766589 
L 233.908267 18.942142 
L 239.934881 21.067324 
L 241.140204 21.176025 
L 242.345527 19.180729 
L 243.55085 19.4726 
L 244.756173 19.583768 
L 247.166818 20.235509 
L 248.372141 20.314549 
L 249.577464 20.600259 
L 250.782787 20.248105 
L 251.98811 17.597017 
L 253.193432 16.212599 
L 254.398755 15.738825 
L 256.809401 16.522924 
L 258.014724 16.186658 
L 259.220047 15.619701 
L 260.425369 14.25455 
L 261.630692 14.677832 
L 262.836015 14.828553 
L 265.246661 15.666684 
L 266.451984 15.307273 
L 267.657306 15.687502 
L 270.067952 15.137684 
L 271.273275 14.828125 
L 272.478598 14.005306 
L 274.889243 13.166578 
L 276.094566 13.225082 
L 277.299889 12.369174 
L 279.710535 13.183938 
L 280.915858 13.450226 
L 283.326503 14.225705 
L 285.737149 14.905806 
L 286.942472 13.363286 
L 288.147794 13.148783 
L 289.353117 13.280308 
L 290.55844 13.217978 
L 291.763763 13.517671 
L 292.969086 13.267501 
L 294.174409 13.583042 
L 296.585054 13.175332 
L 297.790377 13.118257 
L 298.9957 13.483831 
L 300.201023 13.688383 
L 301.406346 13.587103 
L 306.227637 14.805535 
L 307.43296 14.718268 
L 308.638283 14.777325 
L 311.048928 15.269991 
L 315.87022 16.507597 
L 318.280865 16.378857 
L 320.691511 16.898384 
L 321.896834 17.216378 
L 324.307479 17.166613 
L 327.923448 18.021889 
L 329.128771 17.952774 
L 332.744739 18.432219 
L 333.950062 18.726778 
L 336.360708 18.264821 
L 338.771353 18.828606 
L 339.976676 18.69056 
L 343.592645 19.483661 
L 346.00329 20.003736 
L 347.208613 20.024214 
L 350.824582 20.524672 
L 352.029905 20.476482 
L 354.44055 20.757343 
L 360.467164 21.252443 
L 362.87781 21.530453 
L 364.083133 21.573931 
L 366.493778 22.023625 
L 368.904424 22.452937 
L 372.520393 23.208338 
L 373.725715 22.929725 
L 374.931038 22.927306 
L 376.136361 22.34742 
L 377.341684 22.394058 
L 378.547007 21.483583 
L 379.75233 21.537135 
L 380.957652 21.464082 
L 382.162975 21.651628 
L 383.368298 20.668212 
L 384.573621 20.909399 
L 386.984267 20.785135 
L 388.189589 20.288054 
L 395.421526 21.644859 
L 396.626849 21.717997 
L 397.832172 20.271475 
L 401.448141 20.699745 
L 402.653463 20.204258 
L 403.858786 20.282711 
L 405.064109 20.521326 
L 406.269432 19.507552 
L 407.474755 19.351758 
L 408.680078 19.567624 
L 409.8854 19.456135 
L 412.296046 19.655954 
L 417.117337 20.534595 
L 418.32266 19.66318 
L 419.527983 19.602235 
L 420.733306 19.214037 
L 424.349274 19.712769 
L 425.554597 19.533126 
L 429.170566 20.051557 
L 430.375889 20.153793 
L 432.786534 20.090512 
L 433.991857 20.316284 
L 435.19718 19.418568 
L 436.402503 19.59508 
L 438.813148 19.463971 
L 440.018471 19.664529 
L 441.223794 18.970497 
L 442.429117 19.167537 
L 444.839763 19.254578 
L 446.045085 19.446147 
L 447.250408 19.447764 
L 454.482345 20.526815 
L 456.892991 20.914873 
L 458.098314 20.677066 
L 459.303636 20.871146 
L 460.508959 20.835172 
L 461.714282 20.430251 
L 467.740896 21.383859 
L 468.946219 21.206673 
L 470.151542 20.415504 
L 471.356865 20.626455 
L 472.562188 20.712224 
L 473.76751 20.280775 
L 474.972833 19.022638 
L 482.20477 19.964288 
L 483.410093 19.841019 
L 484.615416 20.021997 
L 485.820739 19.725461 
L 488.231384 20.041799 
L 489.436707 19.839215 
L 490.64203 19.92558 
L 495.463321 20.681932 
L 497.873967 20.948966 
L 499.07929 20.801393 
L 500.284613 19.916002 
L 501.489936 20.089658 
L 502.695258 18.067628 
L 505.105904 18.402035 
L 507.51655 18.629582 
L 508.721873 18.238076 
L 509.927195 17.28343 
L 511.132518 17.324767 
L 512.337841 16.860206 
L 513.543164 17.049554 
L 514.748487 16.041451 
L 515.95381 16.166667 
L 515.95381 16.166667 
" clip-path="url(#pfb411c75e6)" style="fill: none; stroke-dasharray: 5.55,2.4; stroke-dashoffset: 0; stroke: #4169e1; stroke-width: 1.5"/>
   </g>
   <g id="line2d_27">
    <path d="M 35.03 15.769568 
L 37.440646 21.429185 
L 38.645968 21.409427 
L 39.851291 18.575213 
L 41.056614 20.009064 
L 42.261937 21.885949 
L 43.46726 22.463573 
L 44.672583 24.7884 
L 47.083228 21.078647 
L 48.288551 20.954763 
L 49.493874 21.561951 
L 50.699197 22.491706 
L 51.90452 21.128817 
L 53.109842 21.536983 
L 54.315165 21.42321 
L 55.520488 21.866323 
L 56.725811 20.238099 
L 57.931134 20.586055 
L 59.136457 20.72341 
L 60.341779 20.241156 
L 61.547102 19.023006 
L 63.957748 18.834359 
L 65.163071 18.190015 
L 66.368394 18.091426 
L 67.573716 18.557699 
L 68.779039 18.803369 
L 69.984362 18.623548 
L 71.189685 19.094853 
L 72.395008 18.29704 
L 74.805653 18.641314 
L 77.216299 18.830271 
L 78.421622 19.133828 
L 79.626945 19.255782 
L 80.832268 19.07165 
L 82.03759 18.442091 
L 83.242913 17.53747 
L 84.448236 18.072958 
L 85.653559 18.182369 
L 88.064205 18.809301 
L 89.269527 19.445028 
L 90.47485 19.5373 
L 91.680173 19.226712 
L 94.090819 19.242184 
L 95.296142 19.299348 
L 98.91211 20.077005 
L 100.117433 19.140915 
L 101.322756 19.327839 
L 102.528079 18.872962 
L 103.733401 19.021995 
L 104.938724 19.304182 
L 106.144047 19.150328 
L 107.34937 19.50341 
L 110.965338 19.481014 
L 113.375984 19.252764 
L 114.581307 19.27084 
L 115.78663 19.058616 
L 116.991953 18.69685 
L 118.197275 18.932178 
L 119.402598 19.30998 
L 121.813244 19.084272 
L 123.018567 19.049285 
L 124.223889 18.826779 
L 125.429212 19.017502 
L 126.634535 18.961508 
L 127.839858 18.561269 
L 129.045181 18.50106 
L 130.250504 18.563512 
L 131.455826 18.33354 
L 132.661149 18.230009 
L 133.866472 18.385702 
L 136.277118 18.188095 
L 137.482441 17.649941 
L 139.893086 17.651907 
L 141.098409 17.051522 
L 143.509055 16.957022 
L 145.9197 17.042639 
L 147.125023 16.890444 
L 149.535669 17.420154 
L 151.946315 17.621308 
L 153.151637 17.385788 
L 155.562283 17.389054 
L 156.767606 16.95324 
L 157.972929 17.189819 
L 159.178252 16.812597 
L 160.383574 16.758533 
L 161.588897 16.88448 
L 162.79422 16.745142 
L 163.999543 16.983256 
L 165.204866 16.612344 
L 166.410189 16.772869 
L 167.615511 16.602019 
L 168.820834 16.623671 
L 172.436803 16.169557 
L 173.642126 16.171614 
L 174.847448 16.056889 
L 176.052771 15.722084 
L 177.258094 15.955462 
L 180.874063 16.109062 
L 182.079385 16.140763 
L 183.284708 15.885955 
L 189.311322 16.464066 
L 191.721968 16.437461 
L 192.927291 16.627319 
L 195.337937 16.666176 
L 196.543259 16.618719 
L 197.748582 16.327145 
L 198.953905 16.265011 
L 200.159228 16.464734 
L 203.775196 16.1355 
L 206.185842 15.759542 
L 208.596488 15.734598 
L 211.007133 15.603302 
L 214.623102 15.513302 
L 217.033747 15.851007 
L 218.23907 15.617889 
L 219.444393 15.771306 
L 225.471007 15.721812 
L 226.67633 15.32682 
L 227.881653 15.133135 
L 230.292299 15.235825 
L 232.702944 15.391502 
L 233.908267 15.16044 
L 235.11359 15.086691 
L 241.140204 15.279157 
L 242.345527 15.023871 
L 244.756173 15.197671 
L 250.782787 15.185184 
L 253.193432 14.663041 
L 254.398755 14.553276 
L 258.014724 14.696658 
L 261.630692 15.067041 
L 265.246661 15.160424 
L 267.657306 15.021343 
L 270.067952 15.2667 
L 271.273275 15.153385 
L 273.683921 15.44971 
L 274.889243 15.300129 
L 276.094566 15.399087 
L 277.299889 15.253457 
L 279.710535 15.26864 
L 282.12118 15.202437 
L 286.942472 15.016558 
L 290.55844 15.278564 
L 315.87022 15.774392 
L 317.075542 15.720717 
L 318.280865 15.797809 
L 320.691511 15.776317 
L 321.896834 15.818835 
L 325.512802 15.672928 
L 327.923448 15.744779 
L 330.334094 15.605388 
L 337.566031 15.891123 
L 338.771353 15.835405 
L 342.387322 15.961335 
L 349.619259 15.785325 
L 354.44055 15.881492 
L 356.851196 15.865322 
L 360.467164 15.92825 
L 362.87781 15.931665 
L 365.288456 15.993395 
L 367.699101 16.006471 
L 373.725715 16.132474 
L 374.931038 16.197303 
L 378.547007 15.898235 
L 382.162975 16.037717 
L 383.368298 15.889808 
L 386.984267 15.879025 
L 389.394912 16.00371 
L 394.216204 16.038304 
L 396.626849 16.112154 
L 397.832172 15.945578 
L 400.242818 15.881556 
L 405.064109 16.071014 
L 406.269432 15.963835 
L 411.090723 16.195891 
L 414.706692 16.12199 
L 417.117337 16.120873 
L 419.527983 15.898981 
L 420.733306 16.000501 
L 423.143952 15.997733 
L 426.75992 15.988243 
L 440.018471 16.241039 
L 442.429117 16.371127 
L 446.045085 16.511954 
L 450.866377 16.46316 
L 456.892991 16.507371 
L 460.508959 16.381845 
L 462.919605 16.490435 
L 473.76751 16.430198 
L 474.972833 16.296558 
L 478.588802 16.303646 
L 482.20477 16.296261 
L 487.026062 16.47846 
L 490.64203 16.438017 
L 499.07929 16.526886 
L 503.900581 16.274578 
L 508.721873 16.451306 
L 509.927195 16.36042 
L 511.132518 16.394486 
L 514.748487 16.193576 
L 515.95381 16.166667 
L 515.95381 16.166667 
" clip-path="url(#pfb411c75e6)" style="fill: none; stroke: #ff8c00; stroke-width: 1.5; stroke-linecap: square"/>
   </g>
   <g id="line2d_28">
    <path d="M 35.03 97 
L 36.235323 95.297618 
L 37.440646 91.973663 
L 38.645968 93.229981 
L 39.851291 86.673216 
L 41.056614 86.055425 
L 42.261937 82.80983 
L 43.46726 84.052195 
L 44.672583 75.652796 
L 45.877905 69.985493 
L 47.083228 65.410808 
L 48.288551 68.004829 
L 49.493874 69.228605 
L 50.699197 68.655355 
L 51.90452 64.6282 
L 53.109842 66.082841 
L 54.315165 67.854373 
L 55.520488 68.714097 
L 56.725811 59.345119 
L 57.931134 60.704455 
L 59.136457 62.346962 
L 60.341779 62.810855 
L 61.547102 56.869513 
L 62.752425 58.529959 
L 63.957748 59.959504 
L 65.163071 59.022502 
L 66.368394 60.371577 
L 67.573716 60.344123 
L 69.984362 62.202802 
L 71.189685 61.809075 
L 72.395008 58.419263 
L 77.216299 62.155568 
L 78.421622 62.342532 
L 79.626945 63.129362 
L 80.832268 63.704696 
L 82.03759 61.020055 
L 83.242913 54.449767 
L 84.448236 52.787886 
L 85.653559 53.701679 
L 86.858882 53.47932 
L 88.064205 53.685038 
L 89.269527 50.488655 
L 90.47485 51.389146 
L 91.680173 51.307787 
L 95.296142 53.895834 
L 96.501464 53.954242 
L 97.706787 53.862848 
L 98.91211 53.945963 
L 100.117433 43.962468 
L 101.322756 44.472318 
L 102.528079 42.75744 
L 103.733401 43.404597 
L 104.938724 43.26215 
L 106.144047 43.840016 
L 107.34937 43.009569 
L 109.760016 44.620747 
L 113.375984 46.375193 
L 114.581307 47.125881 
L 115.78663 47.17273 
L 116.991953 45.869965 
L 118.197275 45.730964 
L 119.402598 44.179726 
L 121.813244 45.212174 
L 123.018567 45.891679 
L 124.223889 45.739532 
L 125.429212 45.793283 
L 126.634535 46.404089 
L 127.839858 44.246239 
L 130.250504 45.431444 
L 131.455826 45.105425 
L 132.661149 45.540741 
L 133.866472 45.70847 
L 135.071795 46.027013 
L 136.277118 46.52416 
L 137.482441 41.510028 
L 139.893086 42.760025 
L 141.098409 36.152058 
L 145.9197 38.602597 
L 147.125023 38.733707 
L 149.535669 36.946752 
L 151.946315 37.726435 
L 153.151637 37.088299 
L 155.562283 38.154841 
L 156.767606 34.366989 
L 157.972929 33.676128 
L 159.178252 30.950217 
L 160.383574 31.510097 
L 162.79422 31.890528 
L 163.999543 31.113041 
L 165.204866 28.336834 
L 167.615511 28.210116 
L 168.820834 28.81247 
L 170.026157 28.877439 
L 171.23148 29.327905 
L 172.436803 28.506822 
L 173.642126 29.097169 
L 174.847448 29.330155 
L 176.052771 26.919566 
L 177.258094 26.046172 
L 179.66874 26.942274 
L 182.079385 28.049303 
L 183.284708 26.788297 
L 186.900677 26.851898 
L 188.106 26.66979 
L 190.516645 27.660815 
L 191.721968 28.166233 
L 192.927291 27.613297 
L 194.132614 27.978598 
L 196.543259 28.899151 
L 197.748582 26.788508 
L 198.953905 27.18154 
L 200.159228 26.444066 
L 201.364551 26.72722 
L 202.569873 26.436089 
L 203.775196 26.699124 
L 204.980519 25.292084 
L 206.185842 25.226627 
L 208.596488 26.179558 
L 209.80181 26.252903 
L 212.212456 27.101316 
L 214.623102 27.85261 
L 215.828425 27.180605 
L 217.033747 26.806508 
L 218.23907 25.385832 
L 219.444393 25.031495 
L 220.649716 25.492528 
L 221.855039 25.694554 
L 223.060362 25.137104 
L 224.265684 25.141969 
L 225.471007 25.589437 
L 226.67633 20.391435 
L 227.881653 19.501592 
L 229.086976 19.577329 
L 231.497621 20.439947 
L 232.702944 20.461981 
L 233.908267 18.918672 
L 235.11359 19.180798 
L 239.934881 20.802895 
L 241.140204 20.869394 
L 242.345527 18.758983 
L 244.756173 19.058331 
L 247.166818 19.833126 
L 248.372141 19.632854 
L 249.577464 19.952998 
L 250.782787 19.58408 
L 251.98811 16.713868 
L 253.193432 14.814914 
L 254.398755 14.765086 
L 256.809401 15.575021 
L 258.014724 15.432601 
L 259.220047 15.053273 
L 260.425369 13.801153 
L 261.630692 14.196494 
L 262.836015 14.451623 
L 265.246661 15.291747 
L 266.451984 15.15734 
L 267.657306 15.549324 
L 271.273275 14.89303 
L 274.889243 13.153296 
L 276.094566 13.124819 
L 277.299889 12.570128 
L 279.710535 13.364782 
L 280.915858 13.505248 
L 284.531826 14.596285 
L 285.737149 14.990005 
L 286.942472 13.982126 
L 288.147794 13.852948 
L 289.353117 14.057535 
L 290.55844 14.012447 
L 291.763763 14.362588 
L 292.969086 14.166921 
L 294.174409 14.466735 
L 295.379731 14.274606 
L 296.585054 14.303183 
L 297.790377 14.126197 
L 298.9957 14.460379 
L 302.611668 15.025272 
L 306.227637 15.93193 
L 308.638283 15.824638 
L 309.843605 15.891124 
L 315.87022 17.334506 
L 317.075542 17.520121 
L 318.280865 17.539127 
L 319.486188 17.67091 
L 321.896834 18.150644 
L 323.102157 18.182011 
L 324.307479 18.097783 
L 326.718125 18.617423 
L 327.923448 18.902433 
L 329.128771 18.594997 
L 332.744739 19.290038 
L 333.950062 19.488298 
L 335.155385 19.425013 
L 336.360708 19.217713 
L 337.566031 19.516273 
L 339.976676 19.689084 
L 341.181999 19.752492 
L 343.592645 20.250486 
L 346.00329 20.782385 
L 347.208613 20.706915 
L 350.824582 21.203687 
L 352.029905 20.977294 
L 353.235227 21.214194 
L 356.851196 21.528232 
L 358.056519 21.712829 
L 359.261842 21.711618 
L 361.672487 21.977252 
L 365.288456 22.326084 
L 372.520393 23.610042 
L 373.725715 23.384925 
L 374.931038 23.375379 
L 376.136361 22.797665 
L 377.341684 22.94685 
L 378.547007 21.868954 
L 382.162975 22.196222 
L 383.368298 21.015621 
L 384.573621 21.25632 
L 386.984267 20.880642 
L 388.189589 20.501614 
L 396.626849 21.896503 
L 397.832172 20.244845 
L 401.448141 20.536652 
L 402.653463 20.189733 
L 403.858786 20.276696 
L 405.064109 20.502784 
L 406.269432 19.945326 
L 407.474755 19.729785 
L 408.680078 19.961607 
L 409.8854 19.812753 
L 412.296046 19.823716 
L 417.117337 20.676305 
L 418.32266 19.28147 
L 419.527983 19.152143 
L 420.733306 18.64426 
L 424.349274 19.161783 
L 425.554597 19.108895 
L 430.375889 19.837282 
L 431.581211 19.508123 
L 433.991857 19.833748 
L 435.19718 18.991213 
L 436.402503 19.219136 
L 438.813148 18.853342 
L 440.018471 19.065837 
L 441.223794 18.349346 
L 442.429117 18.553731 
L 443.63444 18.470037 
L 446.045085 18.688427 
L 449.661054 19.123118 
L 455.687668 20.043265 
L 456.892991 20.250393 
L 458.098314 20.027889 
L 459.303636 20.22074 
L 460.508959 20.055314 
L 461.714282 19.749722 
L 465.330251 20.293507 
L 467.740896 20.716594 
L 468.946219 20.525619 
L 470.151542 19.895629 
L 471.356865 20.046048 
L 472.562188 20.060485 
L 473.76751 19.782526 
L 474.972833 18.510294 
L 478.588802 18.924281 
L 482.20477 19.488334 
L 483.410093 19.302126 
L 484.615416 19.508347 
L 485.820739 19.219852 
L 489.436707 19.468611 
L 491.847353 19.722884 
L 494.257999 20.029697 
L 496.668644 20.339257 
L 499.07929 20.425897 
L 500.284613 19.928517 
L 501.489936 20.103432 
L 502.695258 17.868541 
L 503.900581 18.039238 
L 505.105904 18.031132 
L 506.311227 18.231713 
L 507.51655 18.292061 
L 509.927195 17.30083 
L 511.132518 17.397793 
L 512.337841 16.835835 
L 513.543164 17.033567 
L 514.748487 16.02998 
L 515.95381 16.166667 
L 515.95381 16.166667 
" clip-path="url(#pfb411c75e6)" style="fill: none; stroke-dasharray: 5.55,2.4; stroke-dashoffset: 0; stroke: #ff8c00; stroke-width: 1.5"/>
   </g>
   <g id="patch_3">
    <path d="M 35.03 97 
L 35.03 0 
" style="fill: none; stroke: #000000; stroke-width: 0.8; stroke-linejoin: miter; stroke-linecap: square"/>
   </g>
   <g id="patch_4">
    <path d="M 540 97 
L 540 0 
" style="fill: none; stroke: #000000; stroke-width: 0.8; stroke-linejoin: miter; stroke-linecap: square"/>
   </g>
   <g id="patch_5">
    <path d="M 35.03 97 
L 540 97 
" style="fill: none; stroke: #000000; stroke-width: 0.8; stroke-linejoin: miter; stroke-linecap: square"/>
   </g>
   <g id="patch_6">
    <path d="M 35.03 0 
L 540 0 
" style="fill: none; stroke: #000000; stroke-width: 0.8; stroke-linejoin: miter; stroke-linecap: square"/>
   </g>
  </g>
 </g>
 <defs>
  <clipPath id="pfb411c75e6">
   <rect x="35.03" y="0" width="504.97" height="97"/>
  </clipPath>
 </defs>
</svg>
