<?xml version="1.0" encoding="utf-8" standalone="no"?>
<!DOCTYPE svg PUBLIC "-//W3C//DTD SVG 1.1//EN"
  "http://www.w3.org/Graphics/SVG/1.1/DTD/svg11.dtd">
<svg xmlns:xlink="http://www.w3.org/1999/xlink" width="540pt" height="129.6pt" viewBox="0 0 540 129.6" xmlns="http://www.w3.org/2000/svg" version="1.1">
 <metadata>
  <rdf:RDF xmlns:dc="http://purl.org/dc/elements/1.1/" xmlns:cc="http://creativecommons.org/ns#" xmlns:rdf="http://www.w3.org/1999/02/22-rdf-syntax-ns#">
   <cc:Work>
    <dc:type rdf:resource="http://purl.org/dc/dcmitype/StillImage"/>
    <dc:date>2025-04-05T14:52:17.255357</dc:date>
    <dc:format>image/svg+xml</dc:format>
    <dc:creator>
     <cc:Agent>
      <dc:title>Matplotlib v3.10.1, https://matplotlib.org/</dc:title>
     </cc:Agent>
    </dc:creator>
   </cc:Work>
  </rdf:RDF>
 </metadata>
 <defs>
  <style type="text/css">*{stroke-linejoin: round; stroke-linecap: butt}</style>
 </defs>
 <g id="figure_1">
  <g id="patch_1">
   <path d="M 0 129.6 
L 540 129.6 
L 540 0 
L 0 0 
z
" style="fill: #ffffff"/>
  </g>
  <g id="axes_1">
   <g id="patch_2">
    <path d="M 34.31 98.44 
L 540 98.44 
L 540 0 
L 34.31 0 
z
" style="fill: #ffffff"/>
   </g>
   <g id="matplotlib.axis_1">
    <g id="xtick_1">
     <g id="line2d_1">
      <path d="M 34.31 98.44 
L 34.31 0 
" clip-path="url(#p9bdda1e9ef)" style="fill: none; stroke: #b0b0b0; stroke-width: 0.8; stroke-linecap: square"/>
     </g>
     <g id="line2d_2">
      <defs>
       <path id="ma3a9f31d87" d="M 0 0 
L 0 3.5 
" style="stroke: #000000; stroke-width: 0.8"/>
      </defs>
      <g>
       <use xlink:href="#ma3a9f31d87" x="34.31" y="98.44" style="stroke: #000000; stroke-width: 0.8"/>
      </g>
     </g>
     <g id="text_1">
      <text style="font-size: 10px; font-family: 'Times New Roman'; text-anchor: middle" x="34.31" y="112.38375" transform="rotate(-0 34.31 112.38375)">0</text>
     </g>
    </g>
    <g id="xtick_2">
     <g id="line2d_3">
      <path d="M 94.662071 98.44 
L 94.662071 0 
" clip-path="url(#p9bdda1e9ef)" style="fill: none; stroke: #b0b0b0; stroke-width: 0.8; stroke-linecap: square"/>
     </g>
     <g id="line2d_4">
      <g>
       <use xlink:href="#ma3a9f31d87" x="94.662071" y="98.44" style="stroke: #000000; stroke-width: 0.8"/>
      </g>
     </g>
     <g id="text_2">
      <text style="font-size: 10px; font-family: 'Times New Roman'; text-anchor: middle" x="94.662071" y="112.38375" transform="rotate(-0 94.662071 112.38375)">50</text>
     </g>
    </g>
    <g id="xtick_3">
     <g id="line2d_5">
      <path d="M 155.014141 98.44 
L 155.014141 0 
" clip-path="url(#p9bdda1e9ef)" style="fill: none; stroke: #b0b0b0; stroke-width: 0.8; stroke-linecap: square"/>
     </g>
     <g id="line2d_6">
      <g>
       <use xlink:href="#ma3a9f31d87" x="155.014141" y="98.44" style="stroke: #000000; stroke-width: 0.8"/>
      </g>
     </g>
     <g id="text_3">
      <text style="font-size: 10px; font-family: 'Times New Roman'; text-anchor: middle" x="155.014141" y="112.38375" transform="rotate(-0 155.014141 112.38375)">100</text>
     </g>
    </g>
    <g id="xtick_4">
     <g id="line2d_7">
      <path d="M 215.366212 98.44 
L 215.366212 0 
" clip-path="url(#p9bdda1e9ef)" style="fill: none; stroke: #b0b0b0; stroke-width: 0.8; stroke-linecap: square"/>
     </g>
     <g id="line2d_8">
      <g>
       <use xlink:href="#ma3a9f31d87" x="215.366212" y="98.44" style="stroke: #000000; stroke-width: 0.8"/>
      </g>
     </g>
     <g id="text_4">
      <text style="font-size: 10px; font-family: 'Times New Roman'; text-anchor: middle" x="215.366212" y="112.38375" transform="rotate(-0 215.366212 112.38375)">150</text>
     </g>
    </g>
    <g id="xtick_5">
     <g id="line2d_9">
      <path d="M 275.718283 98.44 
L 275.718283 0 
" clip-path="url(#p9bdda1e9ef)" style="fill: none; stroke: #b0b0b0; stroke-width: 0.8; stroke-linecap: square"/>
     </g>
     <g id="line2d_10">
      <g>
       <use xlink:href="#ma3a9f31d87" x="275.718283" y="98.44" style="stroke: #000000; stroke-width: 0.8"/>
      </g>
     </g>
     <g id="text_5">
      <text style="font-size: 10px; font-family: 'Times New Roman'; text-anchor: middle" x="275.718283" y="112.38375" transform="rotate(-0 275.718283 112.38375)">200</text>
     </g>
    </g>
    <g id="xtick_6">
     <g id="line2d_11">
      <path d="M 336.070353 98.44 
L 336.070353 0 
" clip-path="url(#p9bdda1e9ef)" style="fill: none; stroke: #b0b0b0; stroke-width: 0.8; stroke-linecap: square"/>
     </g>
     <g id="line2d_12">
      <g>
       <use xlink:href="#ma3a9f31d87" x="336.070353" y="98.44" style="stroke: #000000; stroke-width: 0.8"/>
      </g>
     </g>
     <g id="text_6">
      <text style="font-size: 10px; font-family: 'Times New Roman'; text-anchor: middle" x="336.070353" y="112.38375" transform="rotate(-0 336.070353 112.38375)">250</text>
     </g>
    </g>
    <g id="xtick_7">
     <g id="line2d_13">
      <path d="M 396.422424 98.44 
L 396.422424 0 
" clip-path="url(#p9bdda1e9ef)" style="fill: none; stroke: #b0b0b0; stroke-width: 0.8; stroke-linecap: square"/>
     </g>
     <g id="line2d_14">
      <g>
       <use xlink:href="#ma3a9f31d87" x="396.422424" y="98.44" style="stroke: #000000; stroke-width: 0.8"/>
      </g>
     </g>
     <g id="text_7">
      <text style="font-size: 10px; font-family: 'Times New Roman'; text-anchor: middle" x="396.422424" y="112.38375" transform="rotate(-0 396.422424 112.38375)">300</text>
     </g>
    </g>
    <g id="xtick_8">
     <g id="line2d_15">
      <path d="M 456.774495 98.44 
L 456.774495 0 
" clip-path="url(#p9bdda1e9ef)" style="fill: none; stroke: #b0b0b0; stroke-width: 0.8; stroke-linecap: square"/>
     </g>
     <g id="line2d_16">
      <g>
       <use xlink:href="#ma3a9f31d87" x="456.774495" y="98.44" style="stroke: #000000; stroke-width: 0.8"/>
      </g>
     </g>
     <g id="text_8">
      <text style="font-size: 10px; font-family: 'Times New Roman'; text-anchor: middle" x="456.774495" y="112.38375" transform="rotate(-0 456.774495 112.38375)">350</text>
     </g>
    </g>
    <g id="xtick_9">
     <g id="line2d_17">
      <path d="M 517.126565 98.44 
L 517.126565 0 
" clip-path="url(#p9bdda1e9ef)" style="fill: none; stroke: #b0b0b0; stroke-width: 0.8; stroke-linecap: square"/>
     </g>
     <g id="line2d_18">
      <g>
       <use xlink:href="#ma3a9f31d87" x="517.126565" y="98.44" style="stroke: #000000; stroke-width: 0.8"/>
      </g>
     </g>
     <g id="text_9">
      <text style="font-size: 10px; font-family: 'Times New Roman'; text-anchor: middle" x="517.126565" y="112.38375" transform="rotate(-0 517.126565 112.38375)">400</text>
     </g>
    </g>
    <g id="text_10">
     <text style="font-size: 12px; font-family: 'Times New Roman'; text-anchor: middle" x="287.155" y="126.855312" transform="rotate(-0 287.155 126.855312)">Simulation Run</text>
    </g>
   </g>
   <g id="matplotlib.axis_2">
    <g id="ytick_1">
     <g id="line2d_19">
      <path d="M 34.31 98.44 
L 540 98.44 
" clip-path="url(#p9bdda1e9ef)" style="fill: none; stroke: #b0b0b0; stroke-width: 0.8; stroke-linecap: square"/>
     </g>
     <g id="line2d_20">
      <defs>
       <path id="mdbc0fd6221" d="M 0 0 
L -3.5 0 
" style="stroke: #000000; stroke-width: 0.8"/>
      </defs>
      <g>
       <use xlink:href="#mdbc0fd6221" x="34.31" y="98.44" style="stroke: #000000; stroke-width: 0.8"/>
      </g>
     </g>
     <g id="text_11">
      <text style="font-size: 10px; font-family: 'Times New Roman'; text-anchor: end" x="27.31" y="101.911875" transform="rotate(-0 27.31 101.911875)">0.0</text>
     </g>
    </g>
    <g id="ytick_2">
     <g id="line2d_21">
      <path d="M 34.31 57.423333 
L 540 57.423333 
" clip-path="url(#p9bdda1e9ef)" style="fill: none; stroke: #b0b0b0; stroke-width: 0.8; stroke-linecap: square"/>
     </g>
     <g id="line2d_22">
      <g>
       <use xlink:href="#mdbc0fd6221" x="34.31" y="57.423333" style="stroke: #000000; stroke-width: 0.8"/>
      </g>
     </g>
     <g id="text_12">
      <text style="font-size: 10px; font-family: 'Times New Roman'; text-anchor: end" x="27.31" y="60.895208" transform="rotate(-0 27.31 60.895208)">0.5</text>
     </g>
    </g>
    <g id="ytick_3">
     <g id="line2d_23">
      <path d="M 34.31 16.406667 
L 540 16.406667 
" clip-path="url(#p9bdda1e9ef)" style="fill: none; stroke: #b0b0b0; stroke-width: 0.8; stroke-linecap: square"/>
     </g>
     <g id="line2d_24">
      <g>
       <use xlink:href="#mdbc0fd6221" x="34.31" y="16.406667" style="stroke: #000000; stroke-width: 0.8"/>
      </g>
     </g>
     <g id="text_13">
      <text style="font-size: 10px; font-family: 'Times New Roman'; text-anchor: end" x="27.31" y="19.878542" transform="rotate(-0 27.31 19.878542)">1.0</text>
     </g>
    </g>
    <g id="text_14">
     <text style="font-size: 12px; font-family: 'Times New Roman'; text-anchor: middle" x="8.243125" y="49.22" transform="rotate(-90 8.243125 49.22)">Normalized Value</text>
    </g>
   </g>
   <g id="line2d_25">
    <path d="M 34.31 37.335473 
L 35.517041 37.384773 
L 36.724083 26.268405 
L 37.931124 20.902451 
L 39.138166 25.37194 
L 40.345207 23.361662 
L 41.552248 23.301302 
L 42.75929 21.958306 
L 43.966331 24.374052 
L 45.173373 26.138523 
L 46.380414 24.734836 
L 47.587456 24.468863 
L 48.794497 24.618331 
L 50.001538 26.563443 
L 51.20858 27.32055 
L 52.415621 27.035629 
L 53.622663 23.202614 
L 54.829704 23.873952 
L 56.036745 21.333894 
L 57.243787 19.974425 
L 58.450828 20.543387 
L 59.65787 20.303962 
L 60.864911 20.427448 
L 62.071953 21.428608 
L 63.278994 20.333566 
L 64.486035 21.060333 
L 65.693077 21.272369 
L 66.900118 20.744377 
L 68.10716 19.53329 
L 69.314201 20.176905 
L 70.521242 20.664494 
L 71.728284 20.238742 
L 72.935325 20.663882 
L 74.142367 20.205479 
L 75.349408 19.986983 
L 76.556449 19.373095 
L 77.763491 20.182255 
L 78.970532 19.822029 
L 80.177574 18.980911 
L 81.384615 19.402508 
L 82.591657 19.021538 
L 83.798698 19.016836 
L 85.005739 19.569094 
L 86.212781 19.873292 
L 87.419822 19.916428 
L 88.626864 19.423193 
L 89.833905 18.719941 
L 91.040946 18.661931 
L 92.247988 19.24346 
L 93.455029 19.080111 
L 95.869112 19.286573 
L 98.283195 19.592162 
L 99.490236 20.222825 
L 100.697278 20.291541 
L 104.318402 19.687469 
L 105.525443 19.732297 
L 107.939526 20.626333 
L 109.146568 20.578505 
L 110.353609 19.633552 
L 111.56065 19.805126 
L 113.974733 19.722896 
L 115.181775 19.224285 
L 116.388816 19.322902 
L 117.595858 18.841684 
L 118.802899 19.165701 
L 120.00994 18.906495 
L 121.216982 18.84789 
L 122.424023 18.647998 
L 123.631065 18.303581 
L 124.838106 18.657349 
L 126.045147 18.594993 
L 127.252189 18.283748 
L 128.45923 18.109392 
L 130.873313 18.332773 
L 132.080354 18.260097 
L 133.287396 17.932201 
L 136.90852 18.212295 
L 138.115562 18.137633 
L 139.322603 18.297416 
L 140.529644 18.156233 
L 141.736686 18.182477 
L 142.943727 18.457874 
L 144.150769 18.327722 
L 145.35781 18.504969 
L 146.564851 18.197925 
L 148.978934 18.701142 
L 150.185976 18.5645 
L 151.393017 18.55772 
L 153.8071 19.028823 
L 155.014141 19.100013 
L 157.428224 19.049307 
L 158.635266 19.182971 
L 159.842307 19.02647 
L 161.049348 18.638875 
L 162.25639 18.666054 
L 163.463431 18.948135 
L 164.670473 18.634819 
L 168.291597 18.036943 
L 169.498638 18.120142 
L 171.912721 18.628362 
L 173.119763 18.464091 
L 176.740887 18.680636 
L 177.947928 18.463531 
L 181.569052 18.799416 
L 182.776094 18.53631 
L 183.983135 18.567152 
L 185.190177 18.738423 
L 186.397218 18.683088 
L 187.604259 18.762393 
L 188.811301 18.719291 
L 190.018342 18.811589 
L 191.225384 18.493921 
L 192.432425 18.737261 
L 196.053549 18.528091 
L 197.260591 18.209225 
L 198.467632 17.640309 
L 199.674674 17.54181 
L 202.088756 17.498 
L 203.295798 17.229511 
L 205.709881 17.749651 
L 206.916922 17.777954 
L 208.123963 17.47362 
L 211.745088 17.725321 
L 212.952129 17.86712 
L 215.366212 17.629149 
L 216.573253 17.535568 
L 217.780295 17.633918 
L 220.194378 17.390414 
L 221.401419 17.160454 
L 222.60846 17.163368 
L 223.815502 17.050152 
L 228.643668 17.069339 
L 231.05775 17.210557 
L 233.471833 17.06725 
L 235.885916 16.631215 
L 237.092957 16.691776 
L 238.299999 16.273006 
L 246.749289 16.617338 
L 247.95633 16.582399 
L 250.370413 17.005988 
L 251.577454 16.864674 
L 253.991537 17.060952 
L 255.198579 17.132002 
L 256.40562 16.843963 
L 261.233786 16.769073 
L 262.440827 16.945742 
L 263.647868 16.998223 
L 267.268993 16.498111 
L 269.683076 16.447898 
L 274.511241 16.219502 
L 276.925324 16.304159 
L 278.132365 16.075079 
L 279.339407 16.133428 
L 280.546448 16.07037 
L 284.167573 15.398736 
L 293.823904 15.81964 
L 296.237987 15.822306 
L 299.859111 15.910079 
L 305.894318 15.34613 
L 309.515442 15.370142 
L 310.722484 15.497844 
L 311.929525 15.41142 
L 313.136566 15.449083 
L 314.343608 15.123637 
L 317.964732 15.110859 
L 319.171773 15.282839 
L 327.621063 15.627265 
L 328.828105 15.560549 
L 330.035146 15.741536 
L 331.242188 15.717727 
L 332.449229 15.566544 
L 333.65627 15.70618 
L 334.863312 15.606783 
L 339.691478 15.838284 
L 340.898519 15.63031 
L 342.10556 15.597871 
L 345.726685 15.780006 
L 346.933726 15.804636 
L 348.140767 15.645944 
L 351.761892 15.573536 
L 354.175974 15.825499 
L 361.418223 16.422216 
L 362.625264 16.446045 
L 363.832306 16.323609 
L 365.039347 16.378249 
L 366.246389 16.179739 
L 369.867513 16.349979 
L 373.488637 16.287857 
L 374.695678 16.172603 
L 377.109761 16.231222 
L 384.35201 15.919969 
L 385.559051 15.944703 
L 386.766093 16.087059 
L 387.973134 15.985318 
L 391.594258 15.990957 
L 392.8013 15.948984 
L 395.215383 16.114992 
L 397.629465 15.984585 
L 400.043548 15.889478 
L 401.25059 16.028261 
L 404.871714 16.110827 
L 407.285797 16.235161 
L 409.699879 16.079414 
L 410.906921 16.159344 
L 415.735087 16.003551 
L 418.149169 16.215074 
L 419.356211 16.236638 
L 420.563252 16.389518 
L 425.391418 16.45351 
L 429.012542 16.341161 
L 432.633666 16.501341 
L 433.840708 16.447815 
L 435.047749 16.548492 
L 437.461832 16.441209 
L 438.668873 16.525186 
L 439.875915 16.457376 
L 441.082956 16.585557 
L 442.289998 16.517134 
L 443.497039 16.587732 
L 447.118163 16.451267 
L 449.532246 16.56757 
L 450.739288 16.427623 
L 451.946329 16.493038 
L 457.981536 16.052426 
L 461.60266 16.084782 
L 465.223784 16.185584 
L 468.844909 16.322568 
L 472.466033 16.314364 
L 476.087157 16.381571 
L 478.50124 16.444283 
L 484.536447 16.597129 
L 489.364613 16.453676 
L 492.985737 16.599478 
L 496.606861 16.358216 
L 503.84911 16.275064 
L 506.263193 16.062353 
L 507.470234 16.044848 
L 512.2984 16.354242 
L 515.919524 16.406667 
L 515.919524 16.406667 
" clip-path="url(#p9bdda1e9ef)" style="fill: none; stroke: #4169e1; stroke-width: 1.5; stroke-linecap: square"/>
   </g>
   <g id="line2d_26">
    <path d="M 34.31 98.44 
L 35.517041 98.439638 
L 36.724083 61.659376 
L 39.138166 54.196059 
L 40.345207 58.562987 
L 41.552248 64.25645 
L 42.75929 66.650474 
L 43.966331 63.234751 
L 45.173373 62.585314 
L 46.380414 62.912582 
L 47.587456 65.757394 
L 48.794497 68.231544 
L 50.001538 63.069599 
L 51.20858 64.233353 
L 52.415621 66.190051 
L 53.622663 33.103741 
L 54.829704 35.593304 
L 56.036745 21.61798 
L 57.243787 20.233286 
L 58.450828 22.993904 
L 60.864911 29.333148 
L 62.071953 28.781796 
L 63.278994 27.285267 
L 64.486035 28.056857 
L 65.693077 30.489679 
L 66.900118 31.796317 
L 68.10716 27.982576 
L 69.314201 28.543389 
L 72.935325 32.228878 
L 74.142367 33.144288 
L 75.349408 34.768319 
L 76.556449 34.574039 
L 77.763491 32.792369 
L 78.970532 33.80542 
L 80.177574 31.461822 
L 82.591657 32.858615 
L 83.798698 34.419942 
L 85.005739 34.002472 
L 86.212781 34.874796 
L 87.419822 36.275172 
L 88.626864 35.997357 
L 89.833905 33.940288 
L 91.040946 35.260494 
L 92.247988 34.134162 
L 97.076153 38.445765 
L 98.283195 39.344628 
L 99.490236 37.222777 
L 100.697278 38.277293 
L 101.904319 39.095566 
L 103.111361 39.520046 
L 104.318402 40.270137 
L 105.525443 41.22199 
L 106.732485 40.604165 
L 107.939526 39.474833 
L 109.146568 40.389681 
L 110.353609 32.92487 
L 111.56065 33.65242 
L 113.974733 35.523467 
L 115.181775 33.969808 
L 116.388816 34.805741 
L 117.595858 33.336907 
L 118.802899 33.160162 
L 120.00994 33.356905 
L 121.216982 34.211653 
L 122.424023 34.645523 
L 124.838106 33.638283 
L 126.045147 34.435885 
L 127.252189 34.146372 
L 128.45923 34.607332 
L 130.873313 35.886904 
L 132.080354 36.586079 
L 133.287396 36.019263 
L 138.115562 38.39818 
L 140.529644 39.159554 
L 141.736686 39.809104 
L 142.943727 39.437564 
L 144.150769 39.84949 
L 145.35781 40.049362 
L 146.564851 39.365738 
L 147.771893 38.964157 
L 148.978934 38.817881 
L 150.185976 39.165794 
L 151.393017 39.769969 
L 152.600058 39.420929 
L 153.8071 39.317333 
L 157.428224 40.887739 
L 159.842307 41.333646 
L 161.049348 39.524887 
L 162.25639 40.063842 
L 163.463431 39.337318 
L 164.670473 38.30175 
L 165.877514 38.374482 
L 167.084555 38.042329 
L 168.291597 37.947185 
L 169.498638 38.367142 
L 170.70568 37.332577 
L 171.912721 37.16139 
L 173.119763 37.227827 
L 176.740887 38.343965 
L 177.947928 38.010038 
L 179.15497 38.183048 
L 180.362011 37.831992 
L 181.569052 38.320133 
L 182.776094 37.537827 
L 183.983135 38.007491 
L 185.190177 37.941433 
L 188.811301 39.138517 
L 190.018342 39.431139 
L 191.225384 37.929269 
L 192.432425 37.233272 
L 193.639467 37.526531 
L 194.846508 37.98102 
L 196.053549 38.145954 
L 197.260591 36.546565 
L 198.467632 30.447531 
L 199.674674 30.742419 
L 202.088756 31.617157 
L 203.295798 30.589173 
L 204.502839 29.405456 
L 205.709881 28.68368 
L 206.916922 29.151051 
L 208.123963 27.644065 
L 209.331005 28.042954 
L 211.745088 28.604762 
L 212.952129 28.63059 
L 214.159171 29.001672 
L 215.366212 28.795329 
L 218.987336 29.636399 
L 220.194378 29.371065 
L 221.401419 28.593998 
L 222.60846 29.03868 
L 223.815502 29.178442 
L 226.229585 29.946277 
L 227.436626 29.994929 
L 228.643668 30.25693 
L 229.850709 30.367482 
L 232.264792 31.131894 
L 233.471833 31.281507 
L 234.678875 30.276549 
L 235.885916 29.714091 
L 237.092957 30.029057 
L 238.299999 26.02088 
L 239.50704 26.36953 
L 240.714082 26.517253 
L 243.128164 27.266282 
L 244.335206 27.331858 
L 245.542247 27.080704 
L 246.749289 27.30766 
L 247.95633 27.675125 
L 249.163372 26.546175 
L 250.370413 26.046551 
L 252.784496 25.872329 
L 255.198579 26.39613 
L 256.40562 24.513701 
L 260.026744 25.543787 
L 261.233786 25.844014 
L 262.440827 25.348201 
L 263.647868 25.653002 
L 264.85491 25.164993 
L 266.061951 25.258271 
L 267.268993 24.177042 
L 269.683076 24.826814 
L 270.890117 25.016016 
L 272.097158 24.90701 
L 275.718283 25.69629 
L 276.925324 26.038898 
L 278.132365 24.817993 
L 280.546448 25.31319 
L 282.960531 22.445397 
L 284.167573 21.726468 
L 285.374614 21.965846 
L 286.581655 22.320633 
L 287.788697 21.547044 
L 288.995738 21.891699 
L 291.409821 22.301492 
L 292.616862 22.028545 
L 293.823904 22.019337 
L 297.445028 22.896928 
L 298.652069 23.037302 
L 299.859111 23.294945 
L 302.273194 22.858524 
L 304.687277 23.072238 
L 305.894318 22.761503 
L 307.101359 23.093668 
L 308.308401 23.199357 
L 309.515442 23.105287 
L 310.722484 22.877058 
L 311.929525 22.948513 
L 313.136566 23.225144 
L 314.343608 19.891101 
L 317.964732 20.79428 
L 319.171773 20.0831 
L 320.378815 20.294949 
L 322.792898 20.302694 
L 327.621063 21.418434 
L 328.828105 21.571182 
L 330.035146 20.689346 
L 331.242188 20.983374 
L 332.449229 20.455538 
L 333.65627 20.049106 
L 334.863312 19.996561 
L 339.691478 20.677189 
L 340.898519 19.347168 
L 342.10556 19.616189 
L 343.312602 19.616368 
L 346.933726 20.336626 
L 348.140767 19.661457 
L 350.55485 20.183881 
L 351.761892 20.457869 
L 352.968933 20.536539 
L 354.175974 19.581508 
L 355.383016 19.421855 
L 356.590057 19.563653 
L 359.00414 19.340193 
L 361.418223 18.891115 
L 362.625264 19.159519 
L 363.832306 18.839834 
L 365.039347 19.007548 
L 366.246389 17.68263 
L 367.45343 17.763284 
L 368.660471 18.045089 
L 369.867513 18.039158 
L 371.074554 18.317559 
L 372.281596 18.360069 
L 373.488637 18.609605 
L 374.695678 18.334226 
L 375.90272 18.48389 
L 377.109761 18.764163 
L 378.316803 18.834259 
L 379.523844 18.751199 
L 381.937927 19.187074 
L 383.144968 18.783701 
L 385.559051 19.254253 
L 386.766093 18.643871 
L 387.973134 18.463926 
L 392.8013 19.348118 
L 394.008341 19.131957 
L 395.215383 19.225831 
L 396.422424 19.438582 
L 398.836507 19.212025 
L 400.043548 19.468604 
L 401.25059 18.856147 
L 402.457631 19.11358 
L 403.664672 18.999388 
L 404.871714 19.246307 
L 407.285797 19.397301 
L 408.492838 18.846022 
L 409.699879 19.075319 
L 410.906921 19.032238 
L 412.113962 19.14884 
L 413.321004 18.947015 
L 415.735087 19.18339 
L 416.942128 18.597996 
L 418.149169 18.556566 
L 419.356211 18.784125 
L 420.563252 17.919242 
L 429.012542 19.192333 
L 431.426625 18.968793 
L 432.633666 19.204325 
L 433.840708 19.301858 
L 436.254791 18.812132 
L 437.461832 19.044359 
L 438.668873 18.929072 
L 439.875915 18.935079 
L 441.082956 18.346276 
L 444.70408 18.34275 
L 445.911122 18.542323 
L 447.118163 18.304719 
L 449.532246 18.416768 
L 450.739288 17.642486 
L 451.946329 17.654993 
L 454.360412 16.893306 
L 455.567453 17.126175 
L 457.981536 16.310481 
L 462.809702 17.117195 
L 464.016743 16.859651 
L 465.223784 17.085398 
L 466.430826 17.103253 
L 467.637867 17.289743 
L 468.844909 16.96195 
L 476.087157 17.81637 
L 477.294199 17.631663 
L 479.708281 17.94174 
L 482.122364 18.212144 
L 484.536447 18.5421 
L 490.571654 18.999202 
L 491.778696 18.220876 
L 492.985737 18.285568 
L 494.192778 17.991327 
L 495.39982 18.152356 
L 496.606861 17.573031 
L 499.020944 17.988694 
L 500.227985 18.028963 
L 501.435027 17.13268 
L 503.84911 17.386171 
L 505.056151 16.784184 
L 506.263193 16.471451 
L 507.470234 16.662145 
L 508.677275 16.329811 
L 509.884317 16.484794 
L 511.091358 16.011499 
L 512.2984 15.881344 
L 515.919524 16.406667 
L 515.919524 16.406667 
" clip-path="url(#p9bdda1e9ef)" style="fill: none; stroke-dasharray: 5.55,2.4; stroke-dashoffset: 0; stroke: #4169e1; stroke-width: 1.5"/>
   </g>
   <g id="line2d_27">
    <path d="M 34.31 29.362887 
L 35.517041 31.954136 
L 36.724083 22.622509 
L 37.931124 19.63088 
L 39.138166 23.031207 
L 40.345207 22.80915 
L 41.552248 22.825146 
L 42.75929 21.809363 
L 43.966331 23.652446 
L 45.173373 24.787336 
L 46.380414 23.594309 
L 47.587456 23.385426 
L 48.794497 22.822509 
L 50.001538 24.326791 
L 51.20858 25.312232 
L 52.415621 25.048519 
L 53.622663 22.082593 
L 54.829704 22.346401 
L 56.036745 20.11428 
L 57.243787 19.102039 
L 58.450828 19.644978 
L 59.65787 19.790717 
L 60.864911 19.668394 
L 62.071953 20.43633 
L 63.278994 19.755583 
L 64.486035 20.270339 
L 65.693077 20.280633 
L 66.900118 19.905746 
L 68.10716 18.790919 
L 69.314201 19.179279 
L 70.521242 19.751472 
L 71.728284 19.663883 
L 72.935325 19.765373 
L 75.349408 19.120787 
L 76.556449 18.625351 
L 77.763491 19.101671 
L 78.970532 18.971435 
L 80.177574 18.217872 
L 81.384615 18.598481 
L 82.591657 18.383439 
L 83.798698 18.334599 
L 86.212781 19.138311 
L 88.626864 18.762255 
L 89.833905 18.20697 
L 91.040946 17.874225 
L 92.247988 18.33541 
L 94.662071 18.348695 
L 97.076153 18.749093 
L 98.283195 18.897252 
L 99.490236 19.390912 
L 100.697278 19.410963 
L 104.318402 19.09609 
L 106.732485 19.580651 
L 107.939526 19.878869 
L 109.146568 19.816261 
L 110.353609 19.220794 
L 113.974733 19.207719 
L 115.181775 18.810276 
L 116.388816 18.83213 
L 117.595858 18.564245 
L 118.802899 18.931268 
L 123.631065 18.340667 
L 124.838106 18.645341 
L 126.045147 18.620732 
L 127.252189 18.31619 
L 129.666272 18.258267 
L 130.873313 18.398815 
L 132.080354 18.279931 
L 133.287396 17.993963 
L 145.35781 18.497853 
L 146.564851 18.225665 
L 148.978934 18.575598 
L 151.393017 18.470363 
L 153.8071 18.756666 
L 157.428224 18.605752 
L 158.635266 18.739219 
L 159.842307 18.630789 
L 161.049348 18.257386 
L 162.25639 18.2765 
L 163.463431 18.520493 
L 164.670473 18.278322 
L 169.498638 18.016858 
L 171.912721 18.356877 
L 173.119763 18.263573 
L 175.533845 18.346219 
L 176.740887 18.496754 
L 177.947928 18.348511 
L 181.569052 18.5603 
L 182.776094 18.382218 
L 183.983135 18.370436 
L 185.190177 18.515607 
L 187.604259 18.549014 
L 190.018342 18.538743 
L 191.225384 18.356107 
L 192.432425 18.510023 
L 196.053549 18.315026 
L 197.260591 18.05746 
L 198.467632 17.654399 
L 200.881715 17.553585 
L 202.088756 17.542273 
L 203.295798 17.364163 
L 205.709881 17.809347 
L 206.916922 17.762681 
L 208.123963 17.555818 
L 211.745088 17.64111 
L 212.952129 17.722721 
L 216.573253 17.40388 
L 217.780295 17.507257 
L 220.194378 17.385917 
L 223.815502 17.172029 
L 233.471833 17.126148 
L 235.885916 16.839386 
L 237.092957 16.891998 
L 238.299999 16.673218 
L 241.921123 16.806683 
L 243.128164 16.764542 
L 245.542247 16.958769 
L 247.95633 16.85107 
L 250.370413 17.13799 
L 251.577454 16.98376 
L 253.991537 17.139785 
L 255.198579 17.182902 
L 256.40562 16.975919 
L 261.233786 16.970941 
L 263.647868 17.150759 
L 267.268993 16.781464 
L 269.683076 16.741523 
L 274.511241 16.588756 
L 276.925324 16.597944 
L 278.132365 16.432521 
L 280.546448 16.483535 
L 281.75349 16.381937 
L 284.167573 16.026152 
L 293.823904 16.296066 
L 297.445028 16.298331 
L 299.859111 16.296234 
L 303.480235 16.034604 
L 305.894318 15.91384 
L 309.515442 15.939462 
L 310.722484 16.017452 
L 311.929525 15.937858 
L 313.136566 15.992422 
L 314.343608 15.759461 
L 317.964732 15.721176 
L 321.585856 15.94772 
L 331.242188 16.16449 
L 332.449229 16.045588 
L 333.65627 16.155285 
L 336.070353 16.133058 
L 339.691478 16.242801 
L 340.898519 16.094142 
L 343.312602 16.164375 
L 346.933726 16.293035 
L 349.347809 16.13933 
L 352.968933 16.120004 
L 355.383016 16.337433 
L 365.039347 16.655826 
L 366.246389 16.501876 
L 369.867513 16.658754 
L 377.109761 16.542363 
L 383.144968 16.299336 
L 391.594258 16.329579 
L 392.8013 16.292005 
L 395.215383 16.432227 
L 402.457631 16.395913 
L 403.664672 16.466326 
L 406.078755 16.462821 
L 407.285797 16.505875 
L 409.699879 16.42133 
L 412.113962 16.421467 
L 413.321004 16.331605 
L 419.356211 16.555738 
L 421.770294 16.699475 
L 424.184376 16.611429 
L 426.598459 16.578806 
L 430.219583 16.606928 
L 432.633666 16.666102 
L 437.461832 16.664793 
L 441.082956 16.789694 
L 442.289998 16.711364 
L 444.70408 16.700202 
L 449.532246 16.727261 
L 450.739288 16.632731 
L 451.946329 16.682816 
L 457.981536 16.246942 
L 465.223784 16.302455 
L 468.844909 16.378155 
L 472.466033 16.332974 
L 479.708281 16.433635 
L 486.95053 16.471594 
L 490.571654 16.47703 
L 491.778696 16.583033 
L 499.020944 16.363694 
L 500.227985 16.403535 
L 502.642068 16.246839 
L 505.056151 16.171339 
L 507.470234 16.091886 
L 512.2984 16.337915 
L 515.919524 16.406667 
L 515.919524 16.406667 
" clip-path="url(#p9bdda1e9ef)" style="fill: none; stroke: #ff8c00; stroke-width: 1.5; stroke-linecap: square"/>
   </g>
   <g id="line2d_28">
    <path d="M 34.31 98.44 
L 35.517041 96.665061 
L 36.724083 51.219412 
L 37.931124 55.927117 
L 39.138166 52.2042 
L 40.345207 59.844994 
L 41.552248 65.358161 
L 42.75929 67.584133 
L 43.966331 63.828921 
L 45.173373 64.225843 
L 46.380414 63.573818 
L 47.587456 66.352461 
L 48.794497 67.815573 
L 50.001538 62.226837 
L 51.20858 61.047244 
L 52.415621 63.108539 
L 53.622663 27.981477 
L 54.829704 31.583093 
L 56.036745 11.395062 
L 57.243787 10.601116 
L 58.450828 13.225455 
L 60.864911 20.43562 
L 62.071953 20.100362 
L 63.278994 20.293944 
L 64.486035 21.548473 
L 65.693077 24.395579 
L 66.900118 26.036954 
L 68.10716 19.334665 
L 69.314201 20.815309 
L 70.521242 20.722934 
L 72.935325 25.284968 
L 75.349408 27.652356 
L 77.763491 27.110063 
L 78.970532 28.821273 
L 80.177574 24.902265 
L 81.384615 25.247276 
L 82.591657 26.543508 
L 83.798698 28.229477 
L 85.005739 27.558986 
L 86.212781 27.791515 
L 87.419822 29.14252 
L 88.626864 29.97037 
L 89.833905 27.677818 
L 91.040946 27.776451 
L 92.247988 26.519852 
L 94.662071 29.324367 
L 95.869112 29.820033 
L 98.283195 31.743289 
L 99.490236 29.477276 
L 100.697278 30.702908 
L 101.904319 31.693171 
L 103.111361 32.509698 
L 104.318402 33.588462 
L 105.525443 33.938042 
L 106.732485 33.856092 
L 107.939526 33.463719 
L 109.146568 34.430846 
L 110.353609 29.525986 
L 113.974733 32.584505 
L 115.181775 30.755351 
L 116.388816 31.727704 
L 117.595858 31.371832 
L 118.802899 29.823883 
L 121.216982 30.895507 
L 122.424023 31.005695 
L 123.631065 31.733997 
L 124.838106 30.771372 
L 126.045147 31.638018 
L 127.252189 30.606679 
L 129.666272 32.189992 
L 132.080354 33.090583 
L 133.287396 32.105309 
L 135.701479 33.587696 
L 136.90852 34.047738 
L 138.115562 34.757264 
L 139.322603 35.24318 
L 141.736686 36.55175 
L 142.943727 36.008498 
L 144.150769 36.650333 
L 145.35781 37.022953 
L 146.564851 35.855001 
L 147.771893 35.666918 
L 148.978934 35.63446 
L 151.393017 36.749776 
L 152.600058 36.510973 
L 153.8071 36.847774 
L 156.221183 37.858056 
L 157.428224 38.414449 
L 158.635266 38.506607 
L 159.842307 38.754182 
L 161.049348 35.447253 
L 162.25639 36.025733 
L 164.670473 33.828244 
L 165.877514 34.229721 
L 168.291597 34.722494 
L 169.498638 35.258282 
L 170.70568 35.07555 
L 171.912721 34.617946 
L 173.119763 34.903494 
L 175.533845 35.873228 
L 177.947928 35.523757 
L 179.15497 35.703956 
L 180.362011 35.397601 
L 181.569052 35.823345 
L 182.776094 35.297203 
L 183.983135 35.797795 
L 185.190177 35.598591 
L 186.397218 36.047616 
L 187.604259 36.36827 
L 190.018342 37.302978 
L 191.225384 36.623412 
L 192.432425 36.27136 
L 194.846508 37.006107 
L 196.053549 37.170643 
L 197.260591 35.25374 
L 198.467632 29.87451 
L 199.674674 30.033175 
L 202.088756 31.005081 
L 203.295798 30.309339 
L 204.502839 28.688547 
L 205.709881 27.555685 
L 206.916922 27.965617 
L 208.123963 26.822759 
L 210.538046 27.776951 
L 211.745088 28.135087 
L 212.952129 28.346363 
L 217.780295 28.421071 
L 218.987336 28.854139 
L 221.401419 28.91595 
L 222.60846 29.357334 
L 223.815502 29.234461 
L 225.022543 29.667769 
L 226.229585 29.95222 
L 227.436626 29.709369 
L 228.643668 30.061532 
L 229.850709 30.096098 
L 232.264792 30.878551 
L 233.471833 31.03461 
L 235.885916 30.032604 
L 237.092957 30.314454 
L 238.299999 28.576911 
L 239.50704 28.767134 
L 243.128164 29.794766 
L 244.335206 29.648544 
L 245.542247 29.697053 
L 246.749289 30.048498 
L 247.95633 30.136824 
L 249.163372 28.885243 
L 250.370413 28.792639 
L 251.577454 28.045619 
L 252.784496 27.630841 
L 255.198579 28.27674 
L 256.40562 26.572211 
L 261.233786 28.024178 
L 262.440827 27.595694 
L 263.647868 27.823659 
L 264.85491 27.33975 
L 266.061951 27.194542 
L 267.268993 26.57864 
L 269.683076 27.201634 
L 272.097158 27.498816 
L 275.718283 28.461046 
L 276.925324 28.799454 
L 278.132365 27.681313 
L 279.339407 27.75962 
L 280.546448 28.083413 
L 281.75349 27.865599 
L 282.960531 25.646151 
L 284.167573 24.939711 
L 286.581655 25.547445 
L 287.788697 24.015859 
L 290.20278 24.679308 
L 291.409821 24.933582 
L 292.616862 24.517933 
L 293.823904 24.52481 
L 299.859111 25.878331 
L 302.273194 25.159008 
L 303.480235 25.366127 
L 304.687277 25.688599 
L 305.894318 25.230332 
L 308.308401 25.739526 
L 310.722484 25.548273 
L 311.929525 25.478651 
L 313.136566 25.611347 
L 314.343608 22.595651 
L 316.757691 23.155121 
L 317.964732 23.467164 
L 319.171773 23.137391 
L 320.378815 23.342041 
L 321.585856 23.227636 
L 328.828105 24.781795 
L 330.035146 23.705975 
L 331.242188 23.990642 
L 332.449229 23.367761 
L 333.65627 22.880376 
L 334.863312 22.979338 
L 339.691478 23.816668 
L 340.898519 22.625483 
L 342.10556 22.896653 
L 343.312602 22.648719 
L 346.933726 23.144709 
L 348.140767 22.504021 
L 351.761892 23.166716 
L 352.968933 23.413516 
L 354.175974 22.274998 
L 355.383016 22.164484 
L 356.590057 22.253736 
L 357.797099 21.957751 
L 360.211182 21.961903 
L 361.418223 21.74471 
L 362.625264 22.016242 
L 363.832306 21.639947 
L 365.039347 21.736114 
L 366.246389 20.291139 
L 367.45343 20.084277 
L 368.660471 20.365798 
L 369.867513 20.255391 
L 371.074554 20.531518 
L 372.281596 20.477076 
L 373.488637 20.678899 
L 374.695678 20.444823 
L 377.109761 20.915707 
L 378.316803 20.917992 
L 381.937927 21.382941 
L 383.144968 21.260476 
L 385.559051 21.752957 
L 386.766093 21.214336 
L 387.973134 21.109864 
L 392.8013 21.787177 
L 394.008341 21.399731 
L 395.215383 21.460375 
L 396.422424 21.701856 
L 397.629465 21.424343 
L 400.043548 21.864397 
L 401.25059 21.330185 
L 402.457631 21.564936 
L 403.664672 21.4143 
L 407.285797 21.585235 
L 408.492838 21.389505 
L 409.699879 21.626457 
L 412.113962 21.727734 
L 413.321004 21.301006 
L 415.735087 21.646779 
L 416.942128 20.802446 
L 418.149169 20.636516 
L 419.356211 20.853456 
L 420.563252 19.758485 
L 421.770294 19.975247 
L 422.977335 19.645427 
L 425.391418 20.060208 
L 426.598459 19.985163 
L 429.012542 20.372905 
L 431.426625 20.054389 
L 433.840708 20.499595 
L 435.047749 20.326087 
L 436.254791 20.350765 
L 437.461832 20.581679 
L 438.668873 20.470215 
L 439.875915 20.545799 
L 441.082956 19.802916 
L 442.289998 19.486682 
L 445.911122 19.581634 
L 447.118163 19.410444 
L 449.532246 19.675066 
L 450.739288 19.087777 
L 451.946329 19.087021 
L 453.15337 18.327831 
L 454.360412 17.735629 
L 455.567453 17.84414 
L 456.774495 16.862812 
L 457.981536 16.394927 
L 462.809702 17.293539 
L 464.016743 17.150484 
L 465.223784 17.370675 
L 467.637867 17.573505 
L 468.844909 17.363134 
L 471.258992 17.563885 
L 476.087157 18.166032 
L 477.294199 18.144356 
L 485.743488 19.279795 
L 489.364613 19.700435 
L 490.571654 19.628385 
L 491.778696 18.710052 
L 495.39982 18.691029 
L 496.606861 18.133563 
L 499.020944 18.545649 
L 500.227985 18.590132 
L 501.435027 17.603091 
L 502.642068 17.567506 
L 503.84911 17.762758 
L 505.056151 17.200348 
L 506.263193 16.81922 
L 507.470234 17.025245 
L 508.677275 16.437821 
L 509.884317 16.620732 
L 511.091358 16.203559 
L 512.2984 15.955928 
L 515.919524 16.406667 
L 515.919524 16.406667 
" clip-path="url(#p9bdda1e9ef)" style="fill: none; stroke-dasharray: 5.55,2.4; stroke-dashoffset: 0; stroke: #ff8c00; stroke-width: 1.5"/>
   </g>
   <g id="patch_3">
    <path d="M 34.31 98.44 
L 34.31 0 
" style="fill: none; stroke: #000000; stroke-width: 0.8; stroke-linejoin: miter; stroke-linecap: square"/>
   </g>
   <g id="patch_4">
    <path d="M 540 98.44 
L 540 0 
" style="fill: none; stroke: #000000; stroke-width: 0.8; stroke-linejoin: miter; stroke-linecap: square"/>
   </g>
   <g id="patch_5">
    <path d="M 34.31 98.44 
L 540 98.44 
" style="fill: none; stroke: #000000; stroke-width: 0.8; stroke-linejoin: miter; stroke-linecap: square"/>
   </g>
   <g id="patch_6">
    <path d="M 34.31 0 
L 540 0 
" style="fill: none; stroke: #000000; stroke-width: 0.8; stroke-linejoin: miter; stroke-linecap: square"/>
   </g>
  </g>
 </g>
 <defs>
  <clipPath id="p9bdda1e9ef">
   <rect x="34.31" y="0" width="505.69" height="98.44"/>
  </clipPath>
 </defs>
</svg>
