<?xml version="1.0" encoding="utf-8" standalone="no"?>
<!DOCTYPE svg PUBLIC "-//W3C//DTD SVG 1.1//EN"
  "http://www.w3.org/Graphics/SVG/1.1/DTD/svg11.dtd">
<svg xmlns:xlink="http://www.w3.org/1999/xlink" width="540pt" height="129.6pt" viewBox="0 0 540 129.6" xmlns="http://www.w3.org/2000/svg" version="1.1">
 <metadata>
  <rdf:RDF xmlns:dc="http://purl.org/dc/elements/1.1/" xmlns:cc="http://creativecommons.org/ns#" xmlns:rdf="http://www.w3.org/1999/02/22-rdf-syntax-ns#">
   <cc:Work>
    <dc:type rdf:resource="http://purl.org/dc/dcmitype/StillImage"/>
    <dc:date>2025-03-23T13:25:35.507983</dc:date>
    <dc:format>image/svg+xml</dc:format>
    <dc:creator>
     <cc:Agent>
      <dc:title>Matplotlib v3.8.3, https://matplotlib.org/</dc:title>
     </cc:Agent>
    </dc:creator>
   </cc:Work>
  </rdf:RDF>
 </metadata>
 <defs>
  <style type="text/css">*{stroke-linejoin: round; stroke-linecap: butt}</style>
 </defs>
 <g id="figure_1">
  <g id="patch_1">
   <path d="M 0 129.6 
L 540 129.6 
L 540 0 
L 0 0 
z
" style="fill: #ffffff"/>
  </g>
  <g id="axes_1">
   <g id="patch_2">
    <path d="M 27.56 97 
L 540 97 
L 540 0 
L 27.56 0 
z
" style="fill: #ffffff"/>
   </g>
   <g id="matplotlib.axis_1">
    <g id="xtick_1">
     <g id="line2d_1">
      <path d="M 27.56 97 
L 27.56 0 
" clip-path="url(#p3ed85f89c2)" style="fill: none; stroke: #b0b0b0; stroke-width: 0.8; stroke-linecap: square"/>
     </g>
     <g id="line2d_2">
      <defs>
       <path id="mf7371a1934" d="M 0 0 
L 0 3.5 
" style="stroke: #000000; stroke-width: 0.8"/>
      </defs>
      <g>
       <use xlink:href="#mf7371a1934" x="27.56" y="97" style="stroke: #000000; stroke-width: 0.8"/>
      </g>
     </g>
     <g id="text_1">
      <text style="font: 10px 'Times New Roman'; text-anchor: middle" x="27.56" y="110.94375" transform="rotate(-0 27.56 110.94375)">0</text>
     </g>
    </g>
    <g id="xtick_2">
     <g id="line2d_3">
      <path d="M 88.717656 97 
L 88.717656 0 
" clip-path="url(#p3ed85f89c2)" style="fill: none; stroke: #b0b0b0; stroke-width: 0.8; stroke-linecap: square"/>
     </g>
     <g id="line2d_4">
      <g>
       <use xlink:href="#mf7371a1934" x="88.717656" y="97" style="stroke: #000000; stroke-width: 0.8"/>
      </g>
     </g>
     <g id="text_2">
      <text style="font: 10px 'Times New Roman'; text-anchor: middle" x="88.717656" y="110.94375" transform="rotate(-0 88.717656 110.94375)">50</text>
     </g>
    </g>
    <g id="xtick_3">
     <g id="line2d_5">
      <path d="M 149.875312 97 
L 149.875312 0 
" clip-path="url(#p3ed85f89c2)" style="fill: none; stroke: #b0b0b0; stroke-width: 0.8; stroke-linecap: square"/>
     </g>
     <g id="line2d_6">
      <g>
       <use xlink:href="#mf7371a1934" x="149.875312" y="97" style="stroke: #000000; stroke-width: 0.8"/>
      </g>
     </g>
     <g id="text_3">
      <text style="font: 10px 'Times New Roman'; text-anchor: middle" x="149.875312" y="110.94375" transform="rotate(-0 149.875312 110.94375)">100</text>
     </g>
    </g>
    <g id="xtick_4">
     <g id="line2d_7">
      <path d="M 211.032968 97 
L 211.032968 0 
" clip-path="url(#p3ed85f89c2)" style="fill: none; stroke: #b0b0b0; stroke-width: 0.8; stroke-linecap: square"/>
     </g>
     <g id="line2d_8">
      <g>
       <use xlink:href="#mf7371a1934" x="211.032968" y="97" style="stroke: #000000; stroke-width: 0.8"/>
      </g>
     </g>
     <g id="text_4">
      <text style="font: 10px 'Times New Roman'; text-anchor: middle" x="211.032968" y="110.94375" transform="rotate(-0 211.032968 110.94375)">150</text>
     </g>
    </g>
    <g id="xtick_5">
     <g id="line2d_9">
      <path d="M 272.190624 97 
L 272.190624 0 
" clip-path="url(#p3ed85f89c2)" style="fill: none; stroke: #b0b0b0; stroke-width: 0.8; stroke-linecap: square"/>
     </g>
     <g id="line2d_10">
      <g>
       <use xlink:href="#mf7371a1934" x="272.190624" y="97" style="stroke: #000000; stroke-width: 0.8"/>
      </g>
     </g>
     <g id="text_5">
      <text style="font: 10px 'Times New Roman'; text-anchor: middle" x="272.190624" y="110.94375" transform="rotate(-0 272.190624 110.94375)">200</text>
     </g>
    </g>
    <g id="xtick_6">
     <g id="line2d_11">
      <path d="M 333.34828 97 
L 333.34828 0 
" clip-path="url(#p3ed85f89c2)" style="fill: none; stroke: #b0b0b0; stroke-width: 0.8; stroke-linecap: square"/>
     </g>
     <g id="line2d_12">
      <g>
       <use xlink:href="#mf7371a1934" x="333.34828" y="97" style="stroke: #000000; stroke-width: 0.8"/>
      </g>
     </g>
     <g id="text_6">
      <text style="font: 10px 'Times New Roman'; text-anchor: middle" x="333.34828" y="110.94375" transform="rotate(-0 333.34828 110.94375)">250</text>
     </g>
    </g>
    <g id="xtick_7">
     <g id="line2d_13">
      <path d="M 394.505936 97 
L 394.505936 0 
" clip-path="url(#p3ed85f89c2)" style="fill: none; stroke: #b0b0b0; stroke-width: 0.8; stroke-linecap: square"/>
     </g>
     <g id="line2d_14">
      <g>
       <use xlink:href="#mf7371a1934" x="394.505936" y="97" style="stroke: #000000; stroke-width: 0.8"/>
      </g>
     </g>
     <g id="text_7">
      <text style="font: 10px 'Times New Roman'; text-anchor: middle" x="394.505936" y="110.94375" transform="rotate(-0 394.505936 110.94375)">300</text>
     </g>
    </g>
    <g id="xtick_8">
     <g id="line2d_15">
      <path d="M 455.663592 97 
L 455.663592 0 
" clip-path="url(#p3ed85f89c2)" style="fill: none; stroke: #b0b0b0; stroke-width: 0.8; stroke-linecap: square"/>
     </g>
     <g id="line2d_16">
      <g>
       <use xlink:href="#mf7371a1934" x="455.663592" y="97" style="stroke: #000000; stroke-width: 0.8"/>
      </g>
     </g>
     <g id="text_8">
      <text style="font: 10px 'Times New Roman'; text-anchor: middle" x="455.663592" y="110.94375" transform="rotate(-0 455.663592 110.94375)">350</text>
     </g>
    </g>
    <g id="xtick_9">
     <g id="line2d_17">
      <path d="M 516.821248 97 
L 516.821248 0 
" clip-path="url(#p3ed85f89c2)" style="fill: none; stroke: #b0b0b0; stroke-width: 0.8; stroke-linecap: square"/>
     </g>
     <g id="line2d_18">
      <g>
       <use xlink:href="#mf7371a1934" x="516.821248" y="97" style="stroke: #000000; stroke-width: 0.8"/>
      </g>
     </g>
     <g id="text_9">
      <text style="font: 10px 'Times New Roman'; text-anchor: middle" x="516.821248" y="110.94375" transform="rotate(-0 516.821248 110.94375)">400</text>
     </g>
    </g>
    <g id="text_10">
     <text style="font: 12px 'Times New Roman'; text-anchor: middle" x="283.78" y="125.415312" transform="rotate(-0 283.78 125.415312)">Simulation Run</text>
    </g>
   </g>
   <g id="matplotlib.axis_2">
    <g id="ytick_1">
     <g id="line2d_19">
      <path d="M 27.56 97 
L 540 97 
" clip-path="url(#p3ed85f89c2)" style="fill: none; stroke: #b0b0b0; stroke-width: 0.8; stroke-linecap: square"/>
     </g>
     <g id="line2d_20">
      <defs>
       <path id="m42e12f98e0" d="M 0 0 
L -3.5 0 
" style="stroke: #000000; stroke-width: 0.8"/>
      </defs>
      <g>
       <use xlink:href="#m42e12f98e0" x="27.56" y="97" style="stroke: #000000; stroke-width: 0.8"/>
      </g>
     </g>
     <g id="text_11">
      <text style="font: 10px 'Times New Roman'; text-anchor: end" x="20.56" y="100.471875" transform="rotate(-0 20.56 100.471875)">0</text>
     </g>
    </g>
    <g id="ytick_2">
     <g id="line2d_21">
      <path d="M 27.56 52.909091 
L 540 52.909091 
" clip-path="url(#p3ed85f89c2)" style="fill: none; stroke: #b0b0b0; stroke-width: 0.8; stroke-linecap: square"/>
     </g>
     <g id="line2d_22">
      <g>
       <use xlink:href="#m42e12f98e0" x="27.56" y="52.909091" style="stroke: #000000; stroke-width: 0.8"/>
      </g>
     </g>
     <g id="text_12">
      <text style="font: 10px 'Times New Roman'; text-anchor: end" x="20.56" y="56.380966" transform="rotate(-0 20.56 56.380966)">1</text>
     </g>
    </g>
    <g id="ytick_3">
     <g id="line2d_23">
      <path d="M 27.56 8.818182 
L 540 8.818182 
" clip-path="url(#p3ed85f89c2)" style="fill: none; stroke: #b0b0b0; stroke-width: 0.8; stroke-linecap: square"/>
     </g>
     <g id="line2d_24">
      <g>
       <use xlink:href="#m42e12f98e0" x="27.56" y="8.818182" style="stroke: #000000; stroke-width: 0.8"/>
      </g>
     </g>
     <g id="text_13">
      <text style="font: 10px 'Times New Roman'; text-anchor: end" x="20.56" y="12.290057" transform="rotate(-0 20.56 12.290057)">2</text>
     </g>
    </g>
    <g id="text_14">
     <text style="font: 12px 'Times New Roman'; text-anchor: middle" x="8.993125" y="48.5" transform="rotate(-90 8.993125 48.5)">Normalized Value</text>
    </g>
   </g>
   <g id="line2d_25">
    <path d="M 27.56 55.755258 
L 28.783153 61.519209 
L 30.006306 61.427222 
L 31.229459 58.392929 
L 32.452612 54.926677 
L 33.675766 53.354983 
L 34.898919 54.019237 
L 36.122072 52.008275 
L 37.345225 52.359838 
L 38.568378 47.359114 
L 39.791531 48.364449 
L 41.014684 49.580889 
L 42.237837 50.210692 
L 43.460991 50.01839 
L 44.684144 48.828697 
L 45.907297 48.681572 
L 47.13045 49.216864 
L 48.353603 49.288929 
L 49.576756 48.336545 
L 50.799909 48.384328 
L 52.023062 49.08428 
L 53.246216 48.965913 
L 54.469369 48.649642 
L 55.692522 49.128422 
L 56.915675 48.893195 
L 59.361981 49.230808 
L 61.808287 50.690848 
L 64.254594 51.127718 
L 65.477747 51.535285 
L 66.7009 51.110854 
L 70.370359 52.054669 
L 71.593512 52.608321 
L 72.816665 52.700297 
L 76.486125 53.687323 
L 80.155584 54.083113 
L 81.378737 53.887318 
L 82.60189 53.420251 
L 83.825044 53.444263 
L 85.048197 53.667823 
L 87.494503 53.731886 
L 88.717656 52.853574 
L 89.940809 53.132369 
L 91.163962 53.149247 
L 92.387115 53.376991 
L 93.610269 53.102578 
L 94.833422 53.115004 
L 96.056575 53.299978 
L 99.726034 53.125076 
L 100.949187 53.472514 
L 104.618647 53.066284 
L 105.8418 53.137059 
L 110.734412 53.894821 
L 111.957565 53.936248 
L 113.180718 53.797875 
L 114.403872 53.982945 
L 115.627025 53.917088 
L 118.073331 54.149139 
L 121.74279 53.76601 
L 122.965943 53.835824 
L 124.189097 53.741522 
L 126.635403 53.927828 
L 127.858556 53.680254 
L 129.081709 53.671961 
L 130.304862 53.524246 
L 131.528015 53.562988 
L 132.751168 53.830186 
L 133.974322 53.773477 
L 137.643781 54.049232 
L 138.866934 54.002553 
L 140.090087 54.08158 
L 141.31324 53.948533 
L 144.9827 53.940306 
L 146.205853 53.631697 
L 148.652159 53.817147 
L 149.875312 53.86885 
L 152.321618 53.83724 
L 155.991078 53.900373 
L 157.214231 54.060617 
L 160.88369 53.988946 
L 163.329996 53.533934 
L 168.222609 53.444622 
L 170.668915 53.322138 
L 176.784681 53.334424 
L 178.007834 53.474887 
L 179.230987 53.173373 
L 180.45414 53.046521 
L 181.677293 52.779121 
L 184.123599 52.903627 
L 187.793059 52.834831 
L 191.462518 52.374401 
L 193.908824 52.571099 
L 197.578284 52.802541 
L 198.801437 52.649228 
L 200.02459 52.628824 
L 202.470896 52.765649 
L 208.586662 52.801057 
L 213.479274 52.896906 
L 214.702427 52.752964 
L 217.148734 52.739002 
L 219.59504 52.807193 
L 220.818193 52.802586 
L 222.041346 52.916925 
L 226.933959 52.818131 
L 229.380265 52.85177 
L 231.826571 53.002061 
L 239.16549 52.606042 
L 241.611796 52.573012 
L 242.834949 52.649606 
L 248.950715 52.462219 
L 253.843327 52.596192 
L 256.289634 52.594953 
L 259.959093 52.448791 
L 262.405399 52.369632 
L 263.628552 52.264049 
L 272.190624 52.362404 
L 274.63693 52.182459 
L 279.529543 52.277769 
L 280.752696 52.371602 
L 285.645309 52.362108 
L 291.761074 52.405899 
L 294.20738 52.381704 
L 295.430533 52.461302 
L 297.87684 52.433899 
L 306.438912 52.680895 
L 307.662065 52.56261 
L 311.331524 52.767608 
L 318.670443 52.808258 
L 324.786208 52.812687 
L 329.678821 52.776493 
L 332.125127 52.865919 
L 334.571433 52.876777 
L 335.794586 52.766243 
L 359.034496 52.916887 
L 362.703955 52.847682 
L 378.604946 53.035793 
L 382.274405 52.81433 
L 398.175396 52.820361 
L 404.291161 52.803442 
L 406.737467 52.89847 
L 422.638458 52.931697 
L 425.084764 52.959849 
L 429.977377 52.928236 
L 433.646836 52.927637 
L 438.539449 52.908735 
L 440.985755 52.969421 
L 442.208908 52.772053 
L 480.126655 52.988823 
L 485.019267 52.954542 
L 487.465573 53.016823 
L 489.91188 52.973465 
L 498.473952 52.904867 
L 504.589717 52.972604 
L 510.705483 52.94352 
L 513.151789 52.927815 
L 515.598095 52.909091 
L 515.598095 52.909091 
" clip-path="url(#p3ed85f89c2)" style="fill: none; stroke: #4169e1; stroke-width: 1.5; stroke-linecap: square"/>
   </g>
   <g id="line2d_26">
    <path d="M 27.56 97 
L 28.783153 87.360522 
L 30.006306 90.568771 
L 31.229459 84.162581 
L 32.452612 72.785879 
L 33.675766 73.237971 
L 34.898919 75.864422 
L 36.122072 70.293055 
L 37.345225 72.973608 
L 38.568378 10.075044 
L 39.791531 15.044837 
L 41.014684 17.15177 
L 42.237837 21.912912 
L 43.460991 27.136792 
L 44.684144 26.045099 
L 45.907297 30.385574 
L 47.13045 32.973877 
L 48.353603 36.505268 
L 49.576756 34.952126 
L 50.799909 38.041933 
L 52.023062 38.006447 
L 53.246216 40.602605 
L 54.469369 42.416176 
L 55.692522 43.160779 
L 59.361981 48.354331 
L 60.585134 45.188396 
L 61.808287 43.340127 
L 63.031441 44.899844 
L 64.254594 45.936911 
L 65.477747 46.038558 
L 66.7009 45.910305 
L 69.147206 47.30556 
L 70.370359 47.222858 
L 71.593512 45.366433 
L 72.816665 46.634394 
L 74.039819 46.443498 
L 75.262972 46.835622 
L 76.486125 46.695401 
L 77.709278 47.707191 
L 78.932431 48.300465 
L 80.155584 49.365693 
L 81.378737 49.934827 
L 82.60189 48.109693 
L 83.825044 49.142217 
L 85.048197 49.457703 
L 87.494503 51.322826 
L 88.717656 41.027143 
L 89.940809 40.953397 
L 91.163962 42.006582 
L 92.387115 42.227383 
L 93.610269 42.043428 
L 94.833422 43.022331 
L 96.056575 43.413373 
L 98.502881 45.194241 
L 99.726034 45.840534 
L 100.949187 44.577765 
L 102.17234 45.201503 
L 103.395493 46.01478 
L 104.618647 45.458873 
L 105.8418 46.158798 
L 108.288106 46.306743 
L 109.511259 46.730067 
L 110.734412 46.246093 
L 111.957565 46.936791 
L 113.180718 47.25303 
L 114.403872 47.238387 
L 116.850178 48.338632 
L 119.296484 48.64782 
L 120.519637 48.674975 
L 122.965943 49.697977 
L 124.189097 50.085412 
L 125.41225 50.278946 
L 126.635403 50.771263 
L 127.858556 49.869972 
L 129.081709 50.429388 
L 130.304862 50.445488 
L 131.528015 50.949805 
L 132.751168 49.697638 
L 133.974322 50.153987 
L 135.197475 50.353955 
L 136.420628 50.834884 
L 137.643781 50.936428 
L 138.866934 51.379588 
L 140.090087 51.703423 
L 141.31324 51.707654 
L 144.9827 53.04135 
L 146.205853 50.809499 
L 147.429006 50.796891 
L 155.991078 53.468894 
L 157.214231 53.085996 
L 160.88369 54.195653 
L 162.106843 52.52789 
L 163.329996 51.619098 
L 165.776303 52.300836 
L 168.222609 53.054609 
L 169.445762 53.005725 
L 173.115221 54.066233 
L 174.338375 54.078874 
L 175.561528 54.34124 
L 176.784681 54.295188 
L 178.007834 53.935469 
L 179.230987 51.009226 
L 180.45414 50.790631 
L 181.677293 48.540468 
L 182.900446 48.661153 
L 186.569906 49.655223 
L 187.793059 49.622813 
L 189.016212 48.948576 
L 190.239365 48.068337 
L 191.462518 47.89651 
L 192.685671 47.514723 
L 193.908824 47.738641 
L 195.131978 47.81729 
L 196.355131 47.530967 
L 197.578284 47.865982 
L 198.801437 47.259684 
L 200.02459 47.592936 
L 201.247743 47.317748 
L 206.140356 48.607085 
L 207.363509 48.659569 
L 209.809815 49.229085 
L 211.032968 49.024766 
L 212.256121 49.26441 
L 213.479274 49.169217 
L 214.702427 48.56004 
L 218.371887 49.210196 
L 219.59504 49.183761 
L 220.818193 49.483519 
L 222.041346 49.17738 
L 225.710806 50.017378 
L 226.933959 49.462136 
L 228.157112 49.708081 
L 229.380265 49.800505 
L 230.603418 49.578224 
L 231.826571 49.749305 
L 233.049724 49.695601 
L 234.272877 49.815256 
L 235.496031 49.701352 
L 236.719184 49.93089 
L 237.942337 48.155716 
L 239.16549 48.222678 
L 241.611796 48.74026 
L 242.834949 48.713336 
L 245.281256 48.993529 
L 246.504409 49.216341 
L 247.727562 48.636563 
L 251.397021 49.402492 
L 252.620174 48.841905 
L 255.06648 49.254687 
L 256.289634 49.407512 
L 257.512787 49.399997 
L 258.73594 49.588178 
L 259.959093 49.158044 
L 261.182246 49.405854 
L 262.405399 49.258201 
L 263.628552 48.880046 
L 266.074859 49.339931 
L 267.298012 48.981058 
L 272.190624 49.873122 
L 273.413777 49.337427 
L 274.63693 49.323723 
L 278.30639 49.916628 
L 279.529543 49.838614 
L 280.752696 49.536555 
L 281.975849 49.719313 
L 284.422155 49.733937 
L 291.761074 50.914748 
L 292.984227 50.853021 
L 294.20738 50.953915 
L 295.430533 50.760625 
L 299.099993 51.192862 
L 300.323146 50.791086 
L 303.992605 51.295986 
L 306.438912 51.389853 
L 307.662065 50.658523 
L 310.108371 50.268328 
L 311.331524 50.292682 
L 313.77783 50.653943 
L 315.000983 50.605543 
L 316.224137 50.801192 
L 317.44729 50.620096 
L 319.893596 50.96804 
L 321.116749 50.790584 
L 323.563055 51.131043 
L 324.786208 50.456567 
L 329.678821 50.988608 
L 330.901974 50.577788 
L 332.125127 50.763302 
L 334.571433 50.921099 
L 335.794586 50.209917 
L 337.01774 50.382326 
L 338.240893 50.321016 
L 343.133505 50.775079 
L 348.026118 51.347902 
L 349.249271 51.277437 
L 350.472424 51.432964 
L 352.91873 51.556352 
L 355.365036 51.778068 
L 361.480802 52.023652 
L 365.150261 52.478239 
L 366.373414 52.048059 
L 371.266027 52.533336 
L 373.712333 52.792642 
L 374.935486 52.65651 
L 378.604946 53.002603 
L 379.828099 52.202793 
L 382.274405 51.953509 
L 388.390171 52.617949 
L 389.613324 52.65047 
L 392.05963 52.861769 
L 394.505936 53.002648 
L 396.952243 53.253095 
L 398.175396 52.835477 
L 403.068008 53.352953 
L 404.291161 53.357513 
L 405.514314 52.872189 
L 412.853233 53.623243 
L 415.299539 53.310491 
L 422.638458 53.950258 
L 423.861611 53.738258 
L 431.20053 54.019367 
L 432.423683 54.129507 
L 433.646836 54.082713 
L 440.985755 54.543869 
L 442.208908 50.837271 
L 445.878367 51.150526 
L 447.10152 50.781597 
L 448.324674 50.82698 
L 450.77098 50.736749 
L 454.440439 51.051452 
L 456.886745 51.228427 
L 459.333052 51.305952 
L 463.002511 51.536326 
L 469.118277 52.03464 
L 480.126655 52.831331 
L 482.572961 53.012366 
L 483.796114 52.802635 
L 485.019267 52.709926 
L 486.24242 52.492928 
L 487.465573 52.605923 
L 488.688727 52.255841 
L 496.027645 52.744945 
L 497.250798 52.404196 
L 505.81287 52.903224 
L 510.705483 53.265515 
L 514.374942 53.215262 
L 515.598095 52.909091 
L 515.598095 52.909091 
" clip-path="url(#p3ed85f89c2)" style="fill: none; stroke-dasharray: 5.55,2.4; stroke-dashoffset: 0; stroke: #4169e1; stroke-width: 1.5"/>
   </g>
   <g id="line2d_27">
    <path d="M 27.56 56.256009 
L 28.783153 60.707154 
L 30.006306 61.453513 
L 31.229459 58.568646 
L 32.452612 54.64415 
L 33.675766 53.384464 
L 34.898919 53.576019 
L 36.122072 51.850282 
L 37.345225 52.232836 
L 38.568378 48.212151 
L 39.791531 49.18055 
L 41.014684 50.346268 
L 42.237837 50.864198 
L 43.460991 50.89084 
L 44.684144 49.801005 
L 45.907297 49.705585 
L 47.13045 50.180973 
L 48.353603 50.208646 
L 49.576756 49.16965 
L 50.799909 49.358099 
L 52.023062 49.992915 
L 53.246216 50.067742 
L 54.469369 49.592486 
L 55.692522 49.941496 
L 56.915675 49.768141 
L 59.361981 49.855942 
L 61.808287 51.031086 
L 63.031441 51.057296 
L 65.477747 51.65402 
L 66.7009 51.508436 
L 70.370359 52.313703 
L 71.593512 52.852344 
L 72.816665 52.878848 
L 76.486125 53.853102 
L 78.932431 54.153689 
L 80.155584 54.167671 
L 81.378737 54.005396 
L 82.60189 53.570805 
L 83.825044 53.555223 
L 85.048197 53.747999 
L 87.494503 53.808064 
L 88.717656 53.069631 
L 89.940809 53.315273 
L 91.163962 53.312501 
L 92.387115 53.522675 
L 93.610269 53.193954 
L 97.279728 53.36964 
L 99.726034 53.188394 
L 100.949187 53.487576 
L 103.395493 53.386882 
L 104.618647 53.185046 
L 105.8418 53.240663 
L 110.734412 53.938306 
L 111.957565 53.94966 
L 113.180718 53.826605 
L 114.403872 54.002356 
L 115.627025 53.946277 
L 118.073331 54.120746 
L 121.74279 53.79294 
L 126.635403 53.917883 
L 127.858556 53.662109 
L 129.081709 53.653246 
L 130.304862 53.500824 
L 131.528015 53.578382 
L 132.751168 53.800443 
L 133.974322 53.751387 
L 137.643781 54.017538 
L 141.31324 53.949432 
L 144.9827 53.95747 
L 146.205853 53.668711 
L 148.652159 53.782186 
L 149.875312 53.816315 
L 151.098465 53.739149 
L 158.437384 53.882261 
L 160.88369 53.801905 
L 163.329996 53.365795 
L 168.222609 53.306265 
L 170.668915 53.224265 
L 173.115221 53.213174 
L 174.338375 53.132639 
L 178.007834 53.378904 
L 179.230987 53.100143 
L 180.45414 52.973195 
L 181.677293 52.726368 
L 184.123599 52.850865 
L 189.016212 52.657769 
L 191.462518 52.435823 
L 193.908824 52.598539 
L 197.578284 52.785601 
L 200.02459 52.650863 
L 202.470896 52.765777 
L 215.925581 52.825235 
L 218.371887 52.751961 
L 222.041346 52.921955 
L 225.710806 52.953445 
L 228.157112 52.782396 
L 233.049724 52.882955 
L 236.719184 52.743847 
L 237.942337 52.588218 
L 240.388643 52.657905 
L 253.843327 52.676899 
L 256.289634 52.66373 
L 263.628552 52.357329 
L 272.190624 52.427013 
L 274.63693 52.279367 
L 278.30639 52.280744 
L 281.975849 52.402577 
L 284.422155 52.395602 
L 291.761074 52.489529 
L 292.984227 52.429534 
L 297.87684 52.541447 
L 306.438912 52.748842 
L 307.662065 52.625467 
L 312.554677 52.790849 
L 326.009361 52.848099 
L 329.678821 52.856003 
L 332.125127 52.938254 
L 334.571433 52.950187 
L 337.01774 52.867662 
L 343.133505 53.016167 
L 355.365036 53.048166 
L 361.480802 52.91414 
L 365.150261 52.922886 
L 367.596568 52.988267 
L 372.48918 53.023949 
L 381.051252 52.946265 
L 384.720711 52.896451 
L 420.192152 52.910898 
L 427.531071 52.984177 
L 431.20053 52.967089 
L 436.093142 52.913654 
L 445.878367 52.851437 
L 448.324674 52.809903 
L 451.994133 52.887675 
L 456.886745 52.883111 
L 464.225664 53.018831 
L 470.34143 53.042427 
L 515.598095 52.909091 
L 515.598095 52.909091 
" clip-path="url(#p3ed85f89c2)" style="fill: none; stroke: #ff8c00; stroke-width: 1.5; stroke-linecap: square"/>
   </g>
   <g id="line2d_28">
    <path d="M 27.56 97 
L 28.783153 89.874667 
L 30.006306 91.849107 
L 31.229459 84.157698 
L 32.452612 64.570255 
L 33.675766 67.121854 
L 34.898919 71.310983 
L 36.122072 67.024741 
L 37.345225 69.934272 
L 38.568378 20.316442 
L 39.791531 23.915027 
L 41.014684 24.629671 
L 42.237837 29.038946 
L 43.460991 33.889988 
L 44.684144 32.117188 
L 45.907297 36.123246 
L 47.13045 38.40383 
L 48.353603 41.654491 
L 49.576756 37.579273 
L 50.799909 40.307648 
L 52.023062 40.108687 
L 53.246216 42.65237 
L 54.469369 43.228249 
L 55.692522 44.461191 
L 59.361981 50.006723 
L 60.585134 47.631112 
L 61.808287 46.515508 
L 63.031441 48.19116 
L 64.254594 48.950934 
L 65.477747 49.297038 
L 66.7009 50.498668 
L 67.924053 50.964233 
L 69.147206 51.645548 
L 70.370359 51.758476 
L 71.593512 49.224894 
L 72.816665 50.472786 
L 74.039819 49.951414 
L 75.262972 50.161426 
L 76.486125 49.464219 
L 78.932431 51.008545 
L 80.155584 52.050782 
L 81.378737 52.632958 
L 82.60189 50.540885 
L 83.825044 51.52536 
L 85.048197 51.844595 
L 87.494503 53.587122 
L 88.717656 44.633223 
L 89.940809 44.533556 
L 91.163962 45.523345 
L 92.387115 45.634646 
L 93.610269 44.470053 
L 94.833422 45.339628 
L 96.056575 45.691046 
L 98.502881 47.325592 
L 99.726034 47.79826 
L 100.949187 46.673402 
L 102.17234 47.47153 
L 103.395493 48.129575 
L 104.618647 47.970176 
L 105.8418 48.653285 
L 108.288106 48.456071 
L 109.511259 48.946575 
L 110.734412 48.382301 
L 111.957565 49.07364 
L 113.180718 49.367452 
L 114.403872 49.240307 
L 115.627025 49.813118 
L 118.073331 50.671858 
L 119.296484 50.737724 
L 120.519637 50.44116 
L 122.965943 51.565925 
L 124.189097 52.040033 
L 125.41225 52.346003 
L 126.635403 52.829599 
L 127.858556 51.432523 
L 129.081709 51.972648 
L 130.304862 51.800547 
L 131.528015 52.14224 
L 132.751168 51.132725 
L 133.974322 51.578649 
L 135.197475 51.622766 
L 136.420628 52.096595 
L 137.643781 52.169577 
L 140.090087 52.952163 
L 141.31324 53.247358 
L 144.9827 54.565303 
L 146.205853 52.089587 
L 147.429006 52.269148 
L 149.875312 53.090471 
L 151.098465 53.304663 
L 155.991078 54.880884 
L 157.214231 54.556905 
L 160.88369 55.441741 
L 162.106843 53.122172 
L 163.329996 52.289267 
L 166.999456 53.416996 
L 168.222609 53.691959 
L 169.445762 53.705574 
L 173.115221 54.748736 
L 174.338375 54.818012 
L 175.561528 55.063758 
L 176.784681 55.114073 
L 178.007834 54.846974 
L 179.230987 51.718865 
L 180.45414 51.353762 
L 181.677293 48.952487 
L 182.900446 49.008124 
L 186.569906 49.914139 
L 187.793059 50.010198 
L 189.016212 49.775666 
L 190.239365 49.308867 
L 191.462518 49.262401 
L 192.685671 48.808129 
L 195.131978 49.287789 
L 196.355131 48.784358 
L 197.578284 49.1287 
L 198.801437 48.798657 
L 200.02459 49.118978 
L 201.247743 48.923977 
L 206.140356 50.183174 
L 207.363509 50.277644 
L 209.809815 50.866171 
L 211.032968 50.682142 
L 212.256121 50.978279 
L 213.479274 51.088467 
L 214.702427 50.632141 
L 215.925581 50.848769 
L 217.148734 50.907429 
L 218.371887 51.197381 
L 219.59504 51.103754 
L 220.818193 51.381903 
L 222.041346 51.081666 
L 225.710806 51.874777 
L 226.933959 51.232693 
L 229.380265 51.509883 
L 230.603418 51.219868 
L 231.826571 51.402229 
L 233.049724 51.229489 
L 234.272877 51.382634 
L 235.496031 51.244501 
L 236.719184 51.498429 
L 237.942337 50.263231 
L 239.16549 50.28023 
L 241.611796 50.806183 
L 244.058102 50.70635 
L 246.504409 51.110305 
L 247.727562 50.535454 
L 251.397021 51.229123 
L 252.620174 50.802154 
L 255.06648 51.224104 
L 256.289634 51.32619 
L 257.512787 51.315275 
L 258.73594 51.542674 
L 259.959093 50.94813 
L 261.182246 51.180135 
L 262.405399 51.182289 
L 263.628552 50.70939 
L 266.074859 51.144043 
L 267.298012 50.876739 
L 268.521165 51.109533 
L 269.744318 51.202644 
L 272.190624 51.652022 
L 273.413777 51.045534 
L 277.083237 51.459722 
L 278.30639 51.627863 
L 280.752696 51.328176 
L 281.975849 51.520579 
L 284.422155 51.656546 
L 291.761074 52.7233 
L 294.20738 52.612992 
L 295.430533 52.347704 
L 299.099993 52.732144 
L 300.323146 52.366238 
L 302.769452 52.665448 
L 306.438912 52.909396 
L 307.662065 51.847524 
L 310.108371 51.487766 
L 311.331524 51.454111 
L 316.224137 52.00981 
L 317.44729 51.642684 
L 319.893596 51.905703 
L 321.116749 51.801367 
L 323.563055 52.112782 
L 324.786208 51.370195 
L 328.455668 51.6257 
L 329.678821 51.80866 
L 330.901974 51.400317 
L 332.125127 51.582638 
L 334.571433 51.711204 
L 335.794586 51.108215 
L 337.01774 51.279115 
L 338.240893 51.217997 
L 343.133505 51.626951 
L 348.026118 52.228236 
L 349.249271 51.90463 
L 351.695577 52.118511 
L 357.811343 52.400129 
L 360.257649 52.259707 
L 365.150261 52.846369 
L 366.373414 52.348101 
L 373.712333 53.107241 
L 374.935486 52.930607 
L 378.604946 53.295818 
L 379.828099 52.706845 
L 382.274405 52.405672 
L 388.390171 53.06246 
L 390.836477 53.214366 
L 396.952243 53.735061 
L 398.175396 53.156724 
L 404.291161 53.639991 
L 405.514314 53.10614 
L 412.853233 53.802586 
L 415.299539 53.561109 
L 422.638458 54.158057 
L 423.861611 53.897558 
L 428.754224 53.971619 
L 432.423683 54.307676 
L 433.646836 54.273382 
L 438.539449 54.60318 
L 440.985755 54.61277 
L 442.208908 50.914374 
L 445.878367 51.216273 
L 447.10152 50.636782 
L 448.324674 50.624175 
L 449.547827 50.489294 
L 451.994133 50.657403 
L 459.333052 51.073259 
L 463.002511 51.264336 
L 466.67197 51.600932 
L 467.895124 51.599001 
L 474.010889 52.142465 
L 481.349808 52.522652 
L 482.572961 52.633704 
L 486.24242 52.324276 
L 487.465573 52.441 
L 488.688727 51.969633 
L 494.804492 52.428975 
L 496.027645 52.541655 
L 497.250798 52.143998 
L 500.920258 52.386263 
L 505.81287 52.73203 
L 510.705483 53.097016 
L 514.374942 53.167226 
L 515.598095 52.909091 
L 515.598095 52.909091 
" clip-path="url(#p3ed85f89c2)" style="fill: none; stroke-dasharray: 5.55,2.4; stroke-dashoffset: 0; stroke: #ff8c00; stroke-width: 1.5"/>
   </g>
   <g id="patch_3">
    <path d="M 27.56 97 
L 27.56 0 
" style="fill: none; stroke: #000000; stroke-width: 0.8; stroke-linejoin: miter; stroke-linecap: square"/>
   </g>
   <g id="patch_4">
    <path d="M 540 97 
L 540 0 
" style="fill: none; stroke: #000000; stroke-width: 0.8; stroke-linejoin: miter; stroke-linecap: square"/>
   </g>
   <g id="patch_5">
    <path d="M 27.56 97 
L 540 97 
" style="fill: none; stroke: #000000; stroke-width: 0.8; stroke-linejoin: miter; stroke-linecap: square"/>
   </g>
   <g id="patch_6">
    <path d="M 27.56 0 
L 540 0 
" style="fill: none; stroke: #000000; stroke-width: 0.8; stroke-linejoin: miter; stroke-linecap: square"/>
   </g>
  </g>
 </g>
 <defs>
  <clipPath id="p3ed85f89c2">
   <rect x="27.56" y="0" width="512.44" height="97"/>
  </clipPath>
 </defs>
</svg>
