<?xml version="1.0" encoding="utf-8" standalone="no"?>
<!DOCTYPE svg PUBLIC "-//W3C//DTD SVG 1.1//EN"
  "http://www.w3.org/Graphics/SVG/1.1/DTD/svg11.dtd">
<svg xmlns:xlink="http://www.w3.org/1999/xlink" width="540pt" height="129.6pt" viewBox="0 0 540 129.6" xmlns="http://www.w3.org/2000/svg" version="1.1">
 <metadata>
  <rdf:RDF xmlns:dc="http://purl.org/dc/elements/1.1/" xmlns:cc="http://creativecommons.org/ns#" xmlns:rdf="http://www.w3.org/1999/02/22-rdf-syntax-ns#">
   <cc:Work>
    <dc:type rdf:resource="http://purl.org/dc/dcmitype/StillImage"/>
    <dc:date>2025-03-22T22:37:59.619670</dc:date>
    <dc:format>image/svg+xml</dc:format>
    <dc:creator>
     <cc:Agent>
      <dc:title>Matplotlib v3.8.3, https://matplotlib.org/</dc:title>
     </cc:Agent>
    </dc:creator>
   </cc:Work>
  </rdf:RDF>
 </metadata>
 <defs>
  <style type="text/css">*{stroke-linejoin: round; stroke-linecap: butt}</style>
 </defs>
 <g id="figure_1">
  <g id="patch_1">
   <path d="M 0 129.6 
L 540 129.6 
L 540 0 
L 0 0 
z
" style="fill: #ffffff"/>
  </g>
  <g id="axes_1">
   <g id="patch_2">
    <path d="M 35.12 97 
L 540 97 
L 540 0 
L 35.12 0 
z
" style="fill: #ffffff"/>
   </g>
   <g id="matplotlib.axis_1">
    <g id="xtick_1">
     <g id="line2d_1">
      <path d="M 35.12 97 
L 35.12 0 
" clip-path="url(#p9ce8ef6967)" style="fill: none; stroke: #b0b0b0; stroke-width: 0.8; stroke-linecap: square"/>
     </g>
     <g id="line2d_2">
      <defs>
       <path id="m89c60b2e6c" d="M 0 0 
L 0 3.5 
" style="stroke: #000000; stroke-width: 0.8"/>
      </defs>
      <g>
       <use xlink:href="#m89c60b2e6c" x="35.12" y="97" style="stroke: #000000; stroke-width: 0.8"/>
      </g>
     </g>
     <g id="text_1">
      <text style="font: 10px 'Times New Roman'; text-anchor: middle" x="35.12" y="110.94375" transform="rotate(-0 35.12 110.94375)">0</text>
     </g>
    </g>
    <g id="xtick_2">
     <g id="line2d_3">
      <path d="M 95.3754 97 
L 95.3754 0 
" clip-path="url(#p9ce8ef6967)" style="fill: none; stroke: #b0b0b0; stroke-width: 0.8; stroke-linecap: square"/>
     </g>
     <g id="line2d_4">
      <g>
       <use xlink:href="#m89c60b2e6c" x="95.3754" y="97" style="stroke: #000000; stroke-width: 0.8"/>
      </g>
     </g>
     <g id="text_2">
      <text style="font: 10px 'Times New Roman'; text-anchor: middle" x="95.3754" y="110.94375" transform="rotate(-0 95.3754 110.94375)">50</text>
     </g>
    </g>
    <g id="xtick_3">
     <g id="line2d_5">
      <path d="M 155.630801 97 
L 155.630801 0 
" clip-path="url(#p9ce8ef6967)" style="fill: none; stroke: #b0b0b0; stroke-width: 0.8; stroke-linecap: square"/>
     </g>
     <g id="line2d_6">
      <g>
       <use xlink:href="#m89c60b2e6c" x="155.630801" y="97" style="stroke: #000000; stroke-width: 0.8"/>
      </g>
     </g>
     <g id="text_3">
      <text style="font: 10px 'Times New Roman'; text-anchor: middle" x="155.630801" y="110.94375" transform="rotate(-0 155.630801 110.94375)">100</text>
     </g>
    </g>
    <g id="xtick_4">
     <g id="line2d_7">
      <path d="M 215.886201 97 
L 215.886201 0 
" clip-path="url(#p9ce8ef6967)" style="fill: none; stroke: #b0b0b0; stroke-width: 0.8; stroke-linecap: square"/>
     </g>
     <g id="line2d_8">
      <g>
       <use xlink:href="#m89c60b2e6c" x="215.886201" y="97" style="stroke: #000000; stroke-width: 0.8"/>
      </g>
     </g>
     <g id="text_4">
      <text style="font: 10px 'Times New Roman'; text-anchor: middle" x="215.886201" y="110.94375" transform="rotate(-0 215.886201 110.94375)">150</text>
     </g>
    </g>
    <g id="xtick_5">
     <g id="line2d_9">
      <path d="M 276.141602 97 
L 276.141602 0 
" clip-path="url(#p9ce8ef6967)" style="fill: none; stroke: #b0b0b0; stroke-width: 0.8; stroke-linecap: square"/>
     </g>
     <g id="line2d_10">
      <g>
       <use xlink:href="#m89c60b2e6c" x="276.141602" y="97" style="stroke: #000000; stroke-width: 0.8"/>
      </g>
     </g>
     <g id="text_5">
      <text style="font: 10px 'Times New Roman'; text-anchor: middle" x="276.141602" y="110.94375" transform="rotate(-0 276.141602 110.94375)">200</text>
     </g>
    </g>
    <g id="xtick_6">
     <g id="line2d_11">
      <path d="M 336.397002 97 
L 336.397002 0 
" clip-path="url(#p9ce8ef6967)" style="fill: none; stroke: #b0b0b0; stroke-width: 0.8; stroke-linecap: square"/>
     </g>
     <g id="line2d_12">
      <g>
       <use xlink:href="#m89c60b2e6c" x="336.397002" y="97" style="stroke: #000000; stroke-width: 0.8"/>
      </g>
     </g>
     <g id="text_6">
      <text style="font: 10px 'Times New Roman'; text-anchor: middle" x="336.397002" y="110.94375" transform="rotate(-0 336.397002 110.94375)">250</text>
     </g>
    </g>
    <g id="xtick_7">
     <g id="line2d_13">
      <path d="M 396.652402 97 
L 396.652402 0 
" clip-path="url(#p9ce8ef6967)" style="fill: none; stroke: #b0b0b0; stroke-width: 0.8; stroke-linecap: square"/>
     </g>
     <g id="line2d_14">
      <g>
       <use xlink:href="#m89c60b2e6c" x="396.652402" y="97" style="stroke: #000000; stroke-width: 0.8"/>
      </g>
     </g>
     <g id="text_7">
      <text style="font: 10px 'Times New Roman'; text-anchor: middle" x="396.652402" y="110.94375" transform="rotate(-0 396.652402 110.94375)">300</text>
     </g>
    </g>
    <g id="xtick_8">
     <g id="line2d_15">
      <path d="M 456.907803 97 
L 456.907803 0 
" clip-path="url(#p9ce8ef6967)" style="fill: none; stroke: #b0b0b0; stroke-width: 0.8; stroke-linecap: square"/>
     </g>
     <g id="line2d_16">
      <g>
       <use xlink:href="#m89c60b2e6c" x="456.907803" y="97" style="stroke: #000000; stroke-width: 0.8"/>
      </g>
     </g>
     <g id="text_8">
      <text style="font: 10px 'Times New Roman'; text-anchor: middle" x="456.907803" y="110.94375" transform="rotate(-0 456.907803 110.94375)">350</text>
     </g>
    </g>
    <g id="xtick_9">
     <g id="line2d_17">
      <path d="M 517.163203 97 
L 517.163203 0 
" clip-path="url(#p9ce8ef6967)" style="fill: none; stroke: #b0b0b0; stroke-width: 0.8; stroke-linecap: square"/>
     </g>
     <g id="line2d_18">
      <g>
       <use xlink:href="#m89c60b2e6c" x="517.163203" y="97" style="stroke: #000000; stroke-width: 0.8"/>
      </g>
     </g>
     <g id="text_9">
      <text style="font: 10px 'Times New Roman'; text-anchor: middle" x="517.163203" y="110.94375" transform="rotate(-0 517.163203 110.94375)">400</text>
     </g>
    </g>
    <g id="text_10">
     <text style="font: 12px 'Times New Roman'; text-anchor: middle" x="287.56" y="125.415312" transform="rotate(-0 287.56 125.415312)">Simulation Run</text>
    </g>
   </g>
   <g id="matplotlib.axis_2">
    <g id="ytick_1">
     <g id="line2d_19">
      <path d="M 35.12 97 
L 540 97 
" clip-path="url(#p9ce8ef6967)" style="fill: none; stroke: #b0b0b0; stroke-width: 0.8; stroke-linecap: square"/>
     </g>
     <g id="line2d_20">
      <defs>
       <path id="m4bba398dbf" d="M 0 0 
L -3.5 0 
" style="stroke: #000000; stroke-width: 0.8"/>
      </defs>
      <g>
       <use xlink:href="#m4bba398dbf" x="35.12" y="97" style="stroke: #000000; stroke-width: 0.8"/>
      </g>
     </g>
     <g id="text_11">
      <text style="font: 10px 'Times New Roman'; text-anchor: end" x="28.12" y="100.471875" transform="rotate(-0 28.12 100.471875)">0.0</text>
     </g>
    </g>
    <g id="ytick_2">
     <g id="line2d_21">
      <path d="M 35.12 70.055556 
L 540 70.055556 
" clip-path="url(#p9ce8ef6967)" style="fill: none; stroke: #b0b0b0; stroke-width: 0.8; stroke-linecap: square"/>
     </g>
     <g id="line2d_22">
      <g>
       <use xlink:href="#m4bba398dbf" x="35.12" y="70.055556" style="stroke: #000000; stroke-width: 0.8"/>
      </g>
     </g>
     <g id="text_12">
      <text style="font: 10px 'Times New Roman'; text-anchor: end" x="28.12" y="73.527431" transform="rotate(-0 28.12 73.527431)">0.5</text>
     </g>
    </g>
    <g id="ytick_3">
     <g id="line2d_23">
      <path d="M 35.12 43.111111 
L 540 43.111111 
" clip-path="url(#p9ce8ef6967)" style="fill: none; stroke: #b0b0b0; stroke-width: 0.8; stroke-linecap: square"/>
     </g>
     <g id="line2d_24">
      <g>
       <use xlink:href="#m4bba398dbf" x="35.12" y="43.111111" style="stroke: #000000; stroke-width: 0.8"/>
      </g>
     </g>
     <g id="text_13">
      <text style="font: 10px 'Times New Roman'; text-anchor: end" x="28.12" y="46.582986" transform="rotate(-0 28.12 46.582986)">1.0</text>
     </g>
    </g>
    <g id="ytick_4">
     <g id="line2d_25">
      <path d="M 35.12 16.166667 
L 540 16.166667 
" clip-path="url(#p9ce8ef6967)" style="fill: none; stroke: #b0b0b0; stroke-width: 0.8; stroke-linecap: square"/>
     </g>
     <g id="line2d_26">
      <g>
       <use xlink:href="#m4bba398dbf" x="35.12" y="16.166667" style="stroke: #000000; stroke-width: 0.8"/>
      </g>
     </g>
     <g id="text_14">
      <text style="font: 10px 'Times New Roman'; text-anchor: end" x="28.12" y="19.638542" transform="rotate(-0 28.12 19.638542)">1.5</text>
     </g>
    </g>
    <g id="text_15">
     <text style="font: 12px 'Times New Roman'; text-anchor: middle" x="9.053125" y="48.5" transform="rotate(-90 9.053125 48.5)">Normalized Value</text>
    </g>
   </g>
   <g id="line2d_27">
    <path d="M 35.12 54.652307 
L 36.325108 50.571856 
L 37.530216 48.826212 
L 38.735324 43.636405 
L 39.940432 42.035048 
L 42.350648 42.313036 
L 43.555756 38.505858 
L 44.760864 37.830176 
L 45.965972 38.619201 
L 47.17108 39.996443 
L 48.376188 37.293454 
L 49.581296 36.785356 
L 50.786404 36.556372 
L 51.991512 37.212478 
L 53.19662 37.658849 
L 54.401728 38.584249 
L 55.606836 38.921892 
L 56.811944 38.814315 
L 58.017052 39.73238 
L 59.22216 39.20807 
L 60.427268 40.311112 
L 61.632376 41.617992 
L 62.837484 42.350954 
L 64.042592 42.307831 
L 65.2477 42.917039 
L 66.452808 40.831234 
L 67.657916 40.645144 
L 68.863024 40.983978 
L 70.068132 40.798974 
L 71.27324 38.862795 
L 72.478348 39.168691 
L 73.683456 39.967907 
L 74.888564 40.239867 
L 76.093672 40.32726 
L 77.29878 40.569129 
L 78.503888 40.220158 
L 79.708996 40.523404 
L 80.914104 40.210958 
L 82.119212 40.673917 
L 83.32432 41.265785 
L 84.529428 41.17573 
L 86.939644 42.212233 
L 88.144752 42.065836 
L 89.34986 42.636898 
L 90.554968 42.925508 
L 92.965184 42.857641 
L 94.170292 43.287721 
L 95.3754 43.027172 
L 96.580508 43.20808 
L 98.990724 43.13371 
L 100.195832 43.191339 
L 101.40094 43.069881 
L 105.016264 43.73954 
L 106.221372 43.704679 
L 108.631588 44.314624 
L 109.836697 44.503209 
L 111.041805 44.53138 
L 114.657129 43.887833 
L 115.862237 43.847837 
L 117.067345 43.613507 
L 118.272453 43.557844 
L 119.477561 43.740198 
L 124.297993 43.83122 
L 125.503101 44.101507 
L 130.323533 44.418006 
L 131.528641 44.236182 
L 132.733749 44.279096 
L 133.938857 44.200622 
L 135.143965 44.350642 
L 136.349073 44.191953 
L 137.554181 43.198246 
L 138.759289 43.227376 
L 139.964397 43.394662 
L 141.169505 43.420908 
L 150.810369 44.576101 
L 153.220585 44.3748 
L 154.425693 44.091312 
L 155.630801 44.149735 
L 156.835909 44.078617 
L 158.041017 43.816504 
L 161.656341 44.333101 
L 162.861449 44.194491 
L 170.092097 44.272385 
L 171.297205 44.498811 
L 172.502313 44.498491 
L 174.912529 43.982624 
L 183.348285 44.356732 
L 184.553393 44.210043 
L 186.963609 44.226321 
L 188.168717 44.133337 
L 191.784041 44.156423 
L 194.194257 44.064044 
L 195.399365 44.207579 
L 196.604473 44.165663 
L 200.219797 43.78881 
L 201.424905 43.802692 
L 203.835121 43.62423 
L 213.475985 43.524672 
L 214.681093 43.657121 
L 218.296417 43.347974 
L 221.911741 43.233896 
L 223.116849 43.25836 
L 224.321957 43.170151 
L 225.527065 43.194769 
L 226.732173 42.880523 
L 231.552605 43.040628 
L 238.783253 42.994467 
L 243.603685 43.048879 
L 246.013901 43.190104 
L 248.424117 43.151103 
L 252.039441 43.218497 
L 253.244549 43.191107 
L 254.449657 42.963531 
L 255.654765 42.849189 
L 259.27009 43.097245 
L 260.475198 43.144834 
L 262.885414 42.990129 
L 264.090522 43.055253 
L 268.910954 42.831659 
L 270.116062 42.694846 
L 274.936494 42.691488 
L 278.551818 42.847824 
L 282.167142 42.844055 
L 286.987574 43.174454 
L 294.218222 42.758474 
L 299.038654 42.537505 
L 306.269302 42.710261 
L 308.679518 42.732461 
L 313.49995 42.946793 
L 315.910166 42.93515 
L 337.60211 43.138281 
L 342.422542 43.02277 
L 343.62765 42.973589 
L 346.037866 43.101221 
L 347.242974 43.044523 
L 350.858298 43.196506 
L 352.063406 43.216335 
L 353.268514 43.120967 
L 358.088946 43.175557 
L 368.934918 43.099587 
L 371.345134 43.109723 
L 376.165566 43.21417 
L 385.80643 43.300309 
L 388.216646 43.154325 
L 407.498375 43.007308 
L 408.703483 43.074699 
L 412.318807 43.010587 
L 417.139239 43.091709 
L 421.959671 43.123197 
L 424.369887 43.168365 
L 426.780103 43.111161 
L 437.626075 43.017707 
L 441.241399 42.955013 
L 447.266939 43.073836 
L 448.472047 42.998826 
L 450.882263 43.027436 
L 455.702695 43.122838 
L 459.318019 43.267064 
L 464.138451 43.179074 
L 468.958883 43.247031 
L 471.369099 43.043239 
L 481.009963 43.152646 
L 482.215071 43.081048 
L 487.035503 43.225112 
L 489.445719 43.161547 
L 494.266151 43.186652 
L 495.471259 43.264024 
L 496.676367 43.160979 
L 499.086583 43.161676 
L 507.522339 43.090435 
L 509.932555 43.013072 
L 515.958095 43.111111 
L 515.958095 43.111111 
" clip-path="url(#p9ce8ef6967)" style="fill: none; stroke: #4169e1; stroke-width: 1.5; stroke-linecap: square"/>
   </g>
   <g id="line2d_28">
    <path d="M 35.12 97 
L 36.325108 93.259122 
L 37.530216 93.136781 
L 38.735324 75.948222 
L 39.940432 77.853989 
L 41.14554 81.009194 
L 42.350648 83.280254 
L 43.555756 62.19906 
L 44.760864 65.245231 
L 45.965972 67.161839 
L 47.17108 65.612746 
L 48.376188 50.171639 
L 50.786404 56.061936 
L 51.991512 57.437093 
L 53.19662 59.238286 
L 54.401728 58.381081 
L 56.811944 61.986911 
L 58.017052 60.139595 
L 59.22216 60.659579 
L 60.427268 56.570778 
L 61.632376 49.88644 
L 62.837484 49.073328 
L 64.042592 50.980367 
L 65.2477 50.665726 
L 66.452808 26.967514 
L 67.657916 29.258604 
L 68.863024 30.87226 
L 70.068132 32.85351 
L 71.27324 9.654843 
L 72.478348 11.732651 
L 73.683456 9.724155 
L 74.888564 11.742713 
L 76.093672 14.120292 
L 77.29878 15.962478 
L 80.914104 19.683322 
L 82.119212 19.738189 
L 83.32432 18.47439 
L 84.529428 20.269341 
L 85.734536 20.052294 
L 86.939644 18.596264 
L 88.144752 20.126697 
L 89.34986 18.500718 
L 90.554968 19.310045 
L 92.965184 22.446437 
L 94.170292 21.901158 
L 95.3754 22.611067 
L 96.580508 23.666612 
L 100.195832 27.536596 
L 101.40094 28.59472 
L 102.606048 29.166418 
L 103.811156 28.968895 
L 106.221372 31.037639 
L 107.42648 30.674707 
L 108.631588 30.649731 
L 109.836697 31.2075 
L 111.041805 32.224275 
L 112.246913 32.520777 
L 113.452021 32.684108 
L 114.657129 33.126244 
L 115.862237 34.041483 
L 117.067345 34.115002 
L 118.272453 34.965328 
L 119.477561 35.316077 
L 123.092885 37.796376 
L 124.297993 38.518743 
L 125.503101 38.057209 
L 126.708209 38.641426 
L 127.913317 39.031259 
L 130.323533 40.428299 
L 131.528641 40.532492 
L 133.938857 41.746592 
L 136.349073 42.156662 
L 137.554181 23.93647 
L 138.759289 24.759885 
L 139.964397 25.033778 
L 141.169505 25.828768 
L 142.374613 26.19086 
L 143.579721 26.841796 
L 144.784829 27.204624 
L 145.989937 27.250112 
L 147.195045 27.648396 
L 148.400153 26.844683 
L 152.015477 28.302284 
L 153.220585 28.784009 
L 154.425693 27.678611 
L 156.835909 28.847148 
L 158.041017 27.93436 
L 160.451233 28.32154 
L 161.656341 27.684928 
L 162.861449 27.875163 
L 164.066557 28.511029 
L 166.476773 29.302928 
L 170.092097 30.953702 
L 171.297205 30.231417 
L 172.502313 30.812011 
L 173.707421 29.44244 
L 174.912529 28.495529 
L 178.527853 29.863813 
L 180.938069 29.821152 
L 182.143177 30.079972 
L 183.348285 30.479463 
L 184.553393 30.412147 
L 186.963609 31.450445 
L 188.168717 31.715848 
L 190.578933 32.575473 
L 194.194257 33.834554 
L 195.399365 33.690297 
L 196.604473 34.106362 
L 199.014689 33.597689 
L 200.219797 33.905475 
L 201.424905 34.353418 
L 202.630013 34.420745 
L 203.835121 34.718554 
L 205.040229 35.151667 
L 206.245337 35.454503 
L 207.450445 35.603922 
L 213.475985 37.26477 
L 215.886201 36.980978 
L 217.091309 37.294869 
L 218.296417 37.020353 
L 221.911741 37.968259 
L 223.116849 38.323282 
L 224.321957 38.420192 
L 225.527065 38.767104 
L 226.732173 35.603346 
L 229.142389 36.233208 
L 230.347497 36.588702 
L 231.552605 36.806099 
L 232.757713 37.148176 
L 236.373037 37.56718 
L 239.988361 38.506135 
L 241.193469 38.559569 
L 244.808793 39.170985 
L 249.629225 40.042555 
L 253.244549 40.917625 
L 254.449657 39.106309 
L 256.859873 38.716505 
L 258.064982 38.9922 
L 259.27009 38.795953 
L 260.475198 39.010396 
L 265.29563 39.44119 
L 267.705846 39.992103 
L 268.910954 38.969781 
L 270.116062 38.445794 
L 271.32117 38.719632 
L 272.526278 38.704543 
L 276.141602 39.090518 
L 277.34671 39.052664 
L 279.756926 39.571104 
L 282.167142 40.069459 
L 283.37225 40.0951 
L 284.577358 40.314651 
L 285.782466 40.289157 
L 286.987574 39.595915 
L 289.39779 39.355664 
L 290.602898 39.622443 
L 291.808006 38.267775 
L 295.42333 38.815426 
L 296.628438 38.531242 
L 297.833546 38.790542 
L 299.038654 38.856977 
L 302.653978 39.489197 
L 303.859086 39.745857 
L 305.064194 39.69355 
L 307.47441 40.104987 
L 309.884626 40.218553 
L 311.089734 40.451992 
L 312.294842 40.504566 
L 313.49995 40.418742 
L 315.910166 40.627154 
L 317.115274 40.851491 
L 318.320382 40.955307 
L 319.52549 40.652629 
L 323.140814 41.282455 
L 329.166354 42.216628 
L 330.371462 42.213487 
L 333.986786 42.707979 
L 335.191894 42.743208 
L 337.60211 43.155956 
L 338.807218 43.1898 
L 342.422542 42.949244 
L 343.62765 43.020436 
L 344.832758 42.550053 
L 346.037866 42.739041 
L 347.242974 42.760675 
L 348.448082 42.55742 
L 350.858298 42.828028 
L 352.063406 43.009991 
L 353.268514 42.674258 
L 355.67873 42.977404 
L 360.499162 43.624753 
L 361.70427 43.705541 
L 362.909378 42.283011 
L 365.319594 42.318575 
L 366.524702 42.495454 
L 367.72981 42.233094 
L 371.345134 42.477015 
L 373.75535 42.862246 
L 378.575782 43.161887 
L 379.78089 43.347634 
L 380.985998 43.350898 
L 385.80643 43.911747 
L 387.011538 43.439956 
L 388.216646 43.481508 
L 391.83197 43.911323 
L 393.037078 43.938629 
L 396.652402 44.259639 
L 400.267726 44.535901 
L 401.472834 44.286838 
L 402.677942 44.245362 
L 407.498375 44.518969 
L 409.908591 44.314174 
L 412.318807 44.553778 
L 413.523915 44.557355 
L 419.549455 45.182421 
L 420.754563 44.750224 
L 424.369887 45.068336 
L 425.574995 44.917867 
L 427.985211 45.231127 
L 429.190319 45.121251 
L 431.600535 45.324471 
L 432.805643 44.976291 
L 434.010751 45.020788 
L 437.626075 45.38423 
L 438.831183 45.315398 
L 444.856723 45.944775 
L 446.061831 46.031903 
L 449.677155 45.480148 
L 455.702695 45.920648 
L 456.907803 45.818949 
L 458.112911 45.940383 
L 459.318019 45.689459 
L 460.523127 45.664841 
L 461.728235 45.21871 
L 465.343559 45.463556 
L 466.548667 45.271913 
L 468.958883 45.508296 
L 470.163991 43.914294 
L 471.369099 43.791799 
L 472.574207 43.915273 
L 473.779315 43.857239 
L 476.189531 44.077027 
L 477.394639 44.015738 
L 481.009963 44.384732 
L 482.215071 44.098876 
L 483.420179 43.973562 
L 487.035503 44.17039 
L 488.240611 43.77488 
L 491.855935 44.058627 
L 494.266151 43.701577 
L 495.471259 43.326939 
L 496.676367 42.552998 
L 499.086583 42.574727 
L 501.496799 42.825988 
L 502.701907 42.834016 
L 503.907015 42.963781 
L 505.112123 42.938363 
L 507.522339 43.166709 
L 508.727447 42.794791 
L 511.137663 43.068177 
L 513.547879 43.153719 
L 514.752987 43.245232 
L 515.958095 43.111111 
L 515.958095 43.111111 
" clip-path="url(#p9ce8ef6967)" style="fill: none; stroke-dasharray: 5.55,2.4; stroke-dashoffset: 0; stroke: #4169e1; stroke-width: 1.5"/>
   </g>
   <g id="line2d_29">
    <path d="M 35.12 54.574508 
L 36.325108 53.522172 
L 37.530216 51.76084 
L 38.735324 46.402897 
L 39.940432 44.212781 
L 41.14554 43.296039 
L 42.350648 42.794152 
L 43.555756 39.14964 
L 44.760864 38.53595 
L 45.965972 38.997605 
L 47.17108 40.375829 
L 48.376188 37.67439 
L 49.581296 37.284139 
L 50.786404 37.082604 
L 51.991512 37.771465 
L 53.19662 38.283083 
L 54.401728 39.185935 
L 55.606836 39.525267 
L 56.811944 39.388293 
L 58.017052 40.2414 
L 59.22216 39.768007 
L 60.427268 40.789422 
L 61.632376 41.993931 
L 62.837484 42.529096 
L 64.042592 42.601096 
L 65.2477 43.223732 
L 66.452808 41.109704 
L 67.657916 40.86149 
L 68.863024 41.202748 
L 70.068132 41.038621 
L 71.27324 39.148192 
L 72.478348 39.450496 
L 73.683456 40.291877 
L 74.888564 40.679162 
L 76.093672 40.724171 
L 77.29878 40.963721 
L 78.503888 40.636711 
L 79.708996 40.95801 
L 80.914104 40.690679 
L 82.119212 41.110408 
L 83.32432 41.699436 
L 84.529428 41.685147 
L 85.734536 42.033608 
L 86.939644 42.637081 
L 88.144752 42.455465 
L 89.34986 43.069023 
L 90.554968 43.345505 
L 92.965184 43.283354 
L 94.170292 43.730639 
L 95.3754 43.460149 
L 96.580508 43.680254 
L 98.990724 43.67796 
L 100.195832 43.744456 
L 101.40094 43.558427 
L 102.606048 43.750442 
L 103.811156 44.061486 
L 105.016264 44.163779 
L 106.221372 44.148046 
L 109.836697 44.820841 
L 111.041805 44.830731 
L 113.452021 44.344178 
L 114.657129 44.088359 
L 115.862237 44.005745 
L 117.067345 43.669859 
L 118.272453 43.623357 
L 119.477561 43.794722 
L 124.297993 43.840434 
L 125.503101 44.078973 
L 130.323533 44.359948 
L 131.528641 44.162855 
L 135.143965 44.337126 
L 136.349073 44.211588 
L 137.554181 43.254492 
L 141.169505 43.424915 
L 143.579721 43.691995 
L 147.195045 44.113387 
L 149.605261 44.475615 
L 150.810369 44.566196 
L 153.220585 44.360783 
L 154.425693 44.052466 
L 156.835909 44.04515 
L 158.041017 43.829106 
L 160.451233 44.046285 
L 161.656341 44.282897 
L 162.861449 44.180151 
L 170.092097 44.238343 
L 171.297205 44.437178 
L 172.502313 44.383999 
L 174.912529 43.83938 
L 178.527853 44.076258 
L 179.732961 44.226903 
L 180.938069 44.058691 
L 183.348285 44.256428 
L 184.553393 44.113161 
L 189.373825 44.066616 
L 190.578933 44.02045 
L 191.784041 44.087414 
L 194.194257 44.005333 
L 195.399365 44.137762 
L 196.604473 44.093389 
L 199.014689 43.763521 
L 203.835121 43.548932 
L 213.475985 43.484129 
L 214.681093 43.613961 
L 219.501525 43.283048 
L 224.321957 43.16336 
L 225.527065 43.181492 
L 226.732173 42.904174 
L 231.552605 43.025924 
L 237.578145 42.891078 
L 253.244549 43.124395 
L 254.449657 42.885161 
L 255.654765 42.787902 
L 259.27009 42.999728 
L 260.475198 43.030558 
L 262.885414 42.86224 
L 265.29563 42.897961 
L 267.705846 42.905499 
L 270.116062 42.587309 
L 274.936494 42.573273 
L 278.551818 42.722303 
L 282.167142 42.743676 
L 288.192682 43.012354 
L 293.013114 42.671395 
L 295.42333 42.621933 
L 297.833546 42.538531 
L 300.243762 42.525414 
L 317.115274 42.856338 
L 318.320382 42.795033 
L 320.730598 42.885982 
L 324.345922 42.922011 
L 327.961246 42.991209 
L 333.986786 42.986265 
L 336.397002 43.028722 
L 338.807218 42.975486 
L 341.217434 42.824247 
L 342.422542 42.919365 
L 343.62765 42.883433 
L 346.037866 43.017052 
L 347.242974 42.961896 
L 349.65319 43.089111 
L 352.063406 43.136657 
L 353.268514 43.029277 
L 356.883838 43.06013 
L 361.70427 43.047232 
L 362.909378 42.892092 
L 365.319594 42.886199 
L 367.72981 42.954143 
L 371.345134 43.004799 
L 376.165566 43.103723 
L 378.575782 43.098735 
L 382.191106 43.171356 
L 385.80643 43.19758 
L 388.216646 43.055483 
L 397.85751 43.004091 
L 403.88305 42.930966 
L 406.293266 42.97657 
L 409.908591 42.943404 
L 417.139239 43.021208 
L 421.959671 43.063327 
L 425.574995 43.059924 
L 431.600535 43.083658 
L 434.010751 43.041644 
L 452.087371 43.031921 
L 468.958883 43.248433 
L 471.369099 43.059087 
L 500.291691 43.155332 
L 512.342771 43.04937 
L 515.958095 43.111111 
L 515.958095 43.111111 
" clip-path="url(#p9ce8ef6967)" style="fill: none; stroke: #ff8c00; stroke-width: 1.5; stroke-linecap: square"/>
   </g>
   <g id="line2d_30">
    <path d="M 35.12 97 
L 36.325108 96.739365 
L 37.530216 95.365965 
L 38.735324 75.505096 
L 39.940432 75.288458 
L 42.350648 80.288356 
L 43.555756 60.494668 
L 44.760864 63.841709 
L 45.965972 66.706098 
L 47.17108 64.98952 
L 48.376188 48.763826 
L 50.786404 55.131039 
L 51.991512 56.358744 
L 53.19662 57.974751 
L 54.401728 57.200789 
L 56.811944 60.874244 
L 58.017052 59.426042 
L 59.22216 60.160416 
L 60.427268 56.678541 
L 61.632376 50.91947 
L 62.837484 51.289158 
L 64.042592 53.088309 
L 65.2477 52.496188 
L 66.452808 26.796969 
L 67.657916 28.912713 
L 68.863024 30.493105 
L 70.068132 32.526142 
L 71.27324 9.373176 
L 72.478348 11.44475 
L 73.683456 8.705726 
L 74.888564 10.137686 
L 76.093672 12.603256 
L 77.29878 14.474911 
L 80.914104 18.448347 
L 82.119212 18.795081 
L 83.32432 17.436228 
L 84.529428 19.328633 
L 85.734536 19.934663 
L 86.939644 18.00056 
L 88.144752 19.41453 
L 89.34986 17.11417 
L 90.554968 17.986283 
L 92.965184 21.139336 
L 94.170292 20.349339 
L 95.3754 20.991307 
L 96.580508 21.871508 
L 98.990724 24.621628 
L 100.195832 25.881402 
L 102.606048 27.450744 
L 103.811156 27.351963 
L 106.221372 29.529671 
L 108.631588 29.763994 
L 109.836697 30.509261 
L 111.041805 31.546728 
L 112.246913 32.014971 
L 113.452021 31.646216 
L 114.657129 31.605082 
L 115.862237 32.45915 
L 117.067345 31.588949 
L 118.272453 32.488276 
L 119.477561 32.913091 
L 123.092885 35.491926 
L 124.297993 36.241322 
L 125.503101 36.036385 
L 126.708209 36.674519 
L 127.913317 37.0724 
L 130.323533 38.528065 
L 131.528641 38.518542 
L 133.938857 39.838299 
L 135.143965 40.006705 
L 136.349073 40.365649 
L 137.554181 22.69879 
L 138.759289 23.526457 
L 139.964397 24.105418 
L 141.169505 24.913953 
L 142.374613 25.067023 
L 143.579721 25.68128 
L 144.784829 26.150888 
L 145.989937 26.062184 
L 147.195045 26.581247 
L 148.400153 26.080009 
L 149.605261 26.468044 
L 152.015477 27.434456 
L 153.220585 27.938514 
L 154.425693 26.414242 
L 156.835909 27.70176 
L 158.041017 27.254064 
L 160.451233 28.010709 
L 161.656341 27.278025 
L 162.861449 27.666264 
L 164.066557 28.301068 
L 166.476773 29.05497 
L 170.092097 30.745233 
L 171.297205 30.27497 
L 172.502313 30.77931 
L 173.707421 29.171347 
L 174.912529 27.892836 
L 177.322745 28.698832 
L 178.527853 29.096148 
L 179.732961 29.016406 
L 180.938069 28.767858 
L 182.143177 28.842061 
L 183.348285 29.256396 
L 184.553393 29.199335 
L 186.963609 30.25452 
L 194.194257 32.849671 
L 195.399365 32.779446 
L 196.604473 33.193056 
L 197.809581 32.578273 
L 199.014689 32.374011 
L 200.219797 32.637649 
L 201.424905 33.084486 
L 203.835121 33.586603 
L 205.040229 34.025746 
L 206.245337 34.263353 
L 207.450445 34.33683 
L 212.270877 35.740969 
L 213.475985 36.097257 
L 214.681093 35.912158 
L 215.886201 35.915501 
L 217.091309 36.239744 
L 218.296417 36.034088 
L 225.527065 37.959468 
L 226.732173 35.450569 
L 232.757713 37.027027 
L 236.373037 37.418281 
L 239.988361 38.434689 
L 241.193469 38.548074 
L 243.603685 39.146877 
L 247.219009 39.667541 
L 253.244549 40.984937 
L 254.449657 38.839485 
L 256.859873 38.706208 
L 258.064982 38.99934 
L 259.27009 38.876342 
L 260.475198 39.143678 
L 262.885414 39.125193 
L 264.090522 39.203273 
L 267.705846 39.975765 
L 268.910954 38.391253 
L 270.116062 38.078682 
L 271.32117 38.349504 
L 272.526278 38.354685 
L 276.141602 38.829116 
L 277.34671 38.694198 
L 280.962034 39.434272 
L 282.167142 39.706839 
L 283.37225 39.777039 
L 284.577358 39.966378 
L 285.782466 39.840968 
L 286.987574 39.126149 
L 288.192682 39.155406 
L 289.39779 38.926892 
L 290.602898 39.189934 
L 291.808006 37.682957 
L 295.42333 38.308866 
L 296.628438 38.165547 
L 297.833546 38.432047 
L 300.243762 38.70722 
L 303.859086 39.430418 
L 305.064194 39.408623 
L 307.47441 39.799693 
L 312.294842 40.287199 
L 313.49995 40.144693 
L 314.705058 40.171142 
L 318.320382 40.617172 
L 319.52549 40.386621 
L 321.935706 40.752415 
L 326.756138 41.589348 
L 327.961246 41.682664 
L 329.166354 41.901455 
L 330.371462 41.901982 
L 332.781678 42.215389 
L 338.807218 42.948609 
L 340.012326 42.728482 
L 341.217434 42.681139 
L 342.422542 42.35033 
L 343.62765 42.485184 
L 344.832758 41.937394 
L 346.037866 42.12168 
L 347.242974 42.147311 
L 348.448082 41.813063 
L 352.063406 42.302964 
L 353.268514 41.792932 
L 355.67873 42.107747 
L 359.294054 42.690625 
L 361.70427 42.829107 
L 362.909378 41.486767 
L 366.524702 41.786005 
L 367.72981 41.467298 
L 371.345134 41.83612 
L 373.75535 42.224872 
L 380.985998 42.704978 
L 385.80643 43.273946 
L 387.011538 42.846159 
L 388.216646 42.872834 
L 389.421754 43.054511 
L 390.626862 43.121205 
L 391.83197 43.302614 
L 394.242186 43.456639 
L 396.652402 43.704811 
L 400.267726 43.99133 
L 401.472834 43.780482 
L 402.677942 43.734885 
L 403.88305 43.861886 
L 405.088158 43.829654 
L 407.498375 44.063836 
L 409.908591 43.948687 
L 412.318807 44.130196 
L 414.729023 44.241742 
L 419.549455 44.794261 
L 420.754563 44.352948 
L 424.369887 44.653929 
L 425.574995 44.563401 
L 427.985211 44.842813 
L 429.190319 44.773875 
L 431.600535 44.971969 
L 432.805643 44.697688 
L 436.420967 44.990307 
L 437.626075 45.118867 
L 438.831183 45.044341 
L 442.446507 45.404251 
L 446.061831 45.728504 
L 448.472047 45.368564 
L 449.677155 45.350869 
L 454.497587 45.8641 
L 458.112911 45.852409 
L 459.318019 45.558754 
L 460.523127 45.480091 
L 461.728235 45.090554 
L 465.343559 45.3401 
L 466.548667 45.09379 
L 468.958883 45.355801 
L 470.163991 44.034154 
L 471.369099 43.892813 
L 472.574207 44.032676 
L 473.779315 44.022844 
L 476.189531 44.215597 
L 478.599747 44.32869 
L 481.009963 44.582513 
L 482.215071 44.280645 
L 483.420179 44.199849 
L 487.035503 44.368726 
L 488.240611 44.032382 
L 491.855935 44.271773 
L 494.266151 43.852709 
L 495.471259 43.451876 
L 496.676367 42.651391 
L 499.086583 42.666104 
L 501.496799 42.914716 
L 502.701907 42.924554 
L 503.907015 43.060356 
L 506.317231 43.15613 
L 507.522339 43.289222 
L 508.727447 42.799832 
L 511.137663 43.072251 
L 513.547879 43.134972 
L 514.752987 43.234966 
L 515.958095 43.111111 
L 515.958095 43.111111 
" clip-path="url(#p9ce8ef6967)" style="fill: none; stroke-dasharray: 5.55,2.4; stroke-dashoffset: 0; stroke: #ff8c00; stroke-width: 1.5"/>
   </g>
   <g id="patch_3">
    <path d="M 35.12 97 
L 35.12 0 
" style="fill: none; stroke: #000000; stroke-width: 0.8; stroke-linejoin: miter; stroke-linecap: square"/>
   </g>
   <g id="patch_4">
    <path d="M 540 97 
L 540 0 
" style="fill: none; stroke: #000000; stroke-width: 0.8; stroke-linejoin: miter; stroke-linecap: square"/>
   </g>
   <g id="patch_5">
    <path d="M 35.12 97 
L 540 97 
" style="fill: none; stroke: #000000; stroke-width: 0.8; stroke-linejoin: miter; stroke-linecap: square"/>
   </g>
   <g id="patch_6">
    <path d="M 35.12 0 
L 540 0 
" style="fill: none; stroke: #000000; stroke-width: 0.8; stroke-linejoin: miter; stroke-linecap: square"/>
   </g>
  </g>
 </g>
 <defs>
  <clipPath id="p9ce8ef6967">
   <rect x="35.12" y="0" width="504.88" height="97"/>
  </clipPath>
 </defs>
</svg>
