<?xml version="1.0" encoding="utf-8" standalone="no"?>
<!DOCTYPE svg PUBLIC "-//W3C//DTD SVG 1.1//EN"
  "http://www.w3.org/Graphics/SVG/1.1/DTD/svg11.dtd">
<svg xmlns:xlink="http://www.w3.org/1999/xlink" width="540pt" height="129.6pt" viewBox="0 0 540 129.6" xmlns="http://www.w3.org/2000/svg" version="1.1">
 <metadata>
  <rdf:RDF xmlns:dc="http://purl.org/dc/elements/1.1/" xmlns:cc="http://creativecommons.org/ns#" xmlns:rdf="http://www.w3.org/1999/02/22-rdf-syntax-ns#">
   <cc:Work>
    <dc:type rdf:resource="http://purl.org/dc/dcmitype/StillImage"/>
    <dc:date>2025-03-30T22:50:17.399671</dc:date>
    <dc:format>image/svg+xml</dc:format>
    <dc:creator>
     <cc:Agent>
      <dc:title>Matplotlib v3.8.3, https://matplotlib.org/</dc:title>
     </cc:Agent>
    </dc:creator>
   </cc:Work>
  </rdf:RDF>
 </metadata>
 <defs>
  <style type="text/css">*{stroke-linejoin: round; stroke-linecap: butt}</style>
 </defs>
 <g id="figure_1">
  <g id="patch_1">
   <path d="M 0 129.6 
L 540 129.6 
L 540 0 
L 0 0 
z
" style="fill: #ffffff"/>
  </g>
  <g id="axes_1">
   <g id="patch_2">
    <path d="M 35.03 97 
L 540 97 
L 540 0 
L 35.03 0 
z
" style="fill: #ffffff"/>
   </g>
   <g id="matplotlib.axis_1">
    <g id="xtick_1">
     <g id="line2d_1">
      <path d="M 35.03 97 
L 35.03 0 
" clip-path="url(#p52747836f4)" style="fill: none; stroke: #b0b0b0; stroke-width: 0.8; stroke-linecap: square"/>
     </g>
     <g id="line2d_2">
      <defs>
       <path id="m87b61066eb" d="M 0 0 
L 0 3.5 
" style="stroke: #000000; stroke-width: 0.8"/>
      </defs>
      <g>
       <use xlink:href="#m87b61066eb" x="35.03" y="97" style="stroke: #000000; stroke-width: 0.8"/>
      </g>
     </g>
     <g id="text_1">
      <text style="font: 10px 'Times New Roman'; text-anchor: middle" x="35.03" y="110.94375" transform="rotate(-0 35.03 110.94375)">0</text>
     </g>
    </g>
    <g id="xtick_2">
     <g id="line2d_3">
      <path d="M 95.296142 97 
L 95.296142 0 
" clip-path="url(#p52747836f4)" style="fill: none; stroke: #b0b0b0; stroke-width: 0.8; stroke-linecap: square"/>
     </g>
     <g id="line2d_4">
      <g>
       <use xlink:href="#m87b61066eb" x="95.296142" y="97" style="stroke: #000000; stroke-width: 0.8"/>
      </g>
     </g>
     <g id="text_2">
      <text style="font: 10px 'Times New Roman'; text-anchor: middle" x="95.296142" y="110.94375" transform="rotate(-0 95.296142 110.94375)">50</text>
     </g>
    </g>
    <g id="xtick_3">
     <g id="line2d_5">
      <path d="M 155.562283 97 
L 155.562283 0 
" clip-path="url(#p52747836f4)" style="fill: none; stroke: #b0b0b0; stroke-width: 0.8; stroke-linecap: square"/>
     </g>
     <g id="line2d_6">
      <g>
       <use xlink:href="#m87b61066eb" x="155.562283" y="97" style="stroke: #000000; stroke-width: 0.8"/>
      </g>
     </g>
     <g id="text_3">
      <text style="font: 10px 'Times New Roman'; text-anchor: middle" x="155.562283" y="110.94375" transform="rotate(-0 155.562283 110.94375)">100</text>
     </g>
    </g>
    <g id="xtick_4">
     <g id="line2d_7">
      <path d="M 215.828425 97 
L 215.828425 0 
" clip-path="url(#p52747836f4)" style="fill: none; stroke: #b0b0b0; stroke-width: 0.8; stroke-linecap: square"/>
     </g>
     <g id="line2d_8">
      <g>
       <use xlink:href="#m87b61066eb" x="215.828425" y="97" style="stroke: #000000; stroke-width: 0.8"/>
      </g>
     </g>
     <g id="text_4">
      <text style="font: 10px 'Times New Roman'; text-anchor: middle" x="215.828425" y="110.94375" transform="rotate(-0 215.828425 110.94375)">150</text>
     </g>
    </g>
    <g id="xtick_5">
     <g id="line2d_9">
      <path d="M 276.094566 97 
L 276.094566 0 
" clip-path="url(#p52747836f4)" style="fill: none; stroke: #b0b0b0; stroke-width: 0.8; stroke-linecap: square"/>
     </g>
     <g id="line2d_10">
      <g>
       <use xlink:href="#m87b61066eb" x="276.094566" y="97" style="stroke: #000000; stroke-width: 0.8"/>
      </g>
     </g>
     <g id="text_5">
      <text style="font: 10px 'Times New Roman'; text-anchor: middle" x="276.094566" y="110.94375" transform="rotate(-0 276.094566 110.94375)">200</text>
     </g>
    </g>
    <g id="xtick_6">
     <g id="line2d_11">
      <path d="M 336.360708 97 
L 336.360708 0 
" clip-path="url(#p52747836f4)" style="fill: none; stroke: #b0b0b0; stroke-width: 0.8; stroke-linecap: square"/>
     </g>
     <g id="line2d_12">
      <g>
       <use xlink:href="#m87b61066eb" x="336.360708" y="97" style="stroke: #000000; stroke-width: 0.8"/>
      </g>
     </g>
     <g id="text_6">
      <text style="font: 10px 'Times New Roman'; text-anchor: middle" x="336.360708" y="110.94375" transform="rotate(-0 336.360708 110.94375)">250</text>
     </g>
    </g>
    <g id="xtick_7">
     <g id="line2d_13">
      <path d="M 396.626849 97 
L 396.626849 0 
" clip-path="url(#p52747836f4)" style="fill: none; stroke: #b0b0b0; stroke-width: 0.8; stroke-linecap: square"/>
     </g>
     <g id="line2d_14">
      <g>
       <use xlink:href="#m87b61066eb" x="396.626849" y="97" style="stroke: #000000; stroke-width: 0.8"/>
      </g>
     </g>
     <g id="text_7">
      <text style="font: 10px 'Times New Roman'; text-anchor: middle" x="396.626849" y="110.94375" transform="rotate(-0 396.626849 110.94375)">300</text>
     </g>
    </g>
    <g id="xtick_8">
     <g id="line2d_15">
      <path d="M 456.892991 97 
L 456.892991 0 
" clip-path="url(#p52747836f4)" style="fill: none; stroke: #b0b0b0; stroke-width: 0.8; stroke-linecap: square"/>
     </g>
     <g id="line2d_16">
      <g>
       <use xlink:href="#m87b61066eb" x="456.892991" y="97" style="stroke: #000000; stroke-width: 0.8"/>
      </g>
     </g>
     <g id="text_8">
      <text style="font: 10px 'Times New Roman'; text-anchor: middle" x="456.892991" y="110.94375" transform="rotate(-0 456.892991 110.94375)">350</text>
     </g>
    </g>
    <g id="xtick_9">
     <g id="line2d_17">
      <path d="M 517.159132 97 
L 517.159132 0 
" clip-path="url(#p52747836f4)" style="fill: none; stroke: #b0b0b0; stroke-width: 0.8; stroke-linecap: square"/>
     </g>
     <g id="line2d_18">
      <g>
       <use xlink:href="#m87b61066eb" x="517.159132" y="97" style="stroke: #000000; stroke-width: 0.8"/>
      </g>
     </g>
     <g id="text_9">
      <text style="font: 10px 'Times New Roman'; text-anchor: middle" x="517.159132" y="110.94375" transform="rotate(-0 517.159132 110.94375)">400</text>
     </g>
    </g>
    <g id="text_10">
     <text style="font: 12px 'Times New Roman'; text-anchor: middle" x="287.515" y="125.415312" transform="rotate(-0 287.515 125.415312)">Simulation Run</text>
    </g>
   </g>
   <g id="matplotlib.axis_2">
    <g id="ytick_1">
     <g id="line2d_19">
      <path d="M 35.03 97 
L 540 97 
" clip-path="url(#p52747836f4)" style="fill: none; stroke: #b0b0b0; stroke-width: 0.8; stroke-linecap: square"/>
     </g>
     <g id="line2d_20">
      <defs>
       <path id="mbd238dbe32" d="M 0 0 
L -3.5 0 
" style="stroke: #000000; stroke-width: 0.8"/>
      </defs>
      <g>
       <use xlink:href="#mbd238dbe32" x="35.03" y="97" style="stroke: #000000; stroke-width: 0.8"/>
      </g>
     </g>
     <g id="text_11">
      <text style="font: 10px 'Times New Roman'; text-anchor: end" x="28.03" y="100.471875" transform="rotate(-0 28.03 100.471875)">0.0</text>
     </g>
    </g>
    <g id="ytick_2">
     <g id="line2d_21">
      <path d="M 35.03 52.909091 
L 540 52.909091 
" clip-path="url(#p52747836f4)" style="fill: none; stroke: #b0b0b0; stroke-width: 0.8; stroke-linecap: square"/>
     </g>
     <g id="line2d_22">
      <g>
       <use xlink:href="#mbd238dbe32" x="35.03" y="52.909091" style="stroke: #000000; stroke-width: 0.8"/>
      </g>
     </g>
     <g id="text_12">
      <text style="font: 10px 'Times New Roman'; text-anchor: end" x="28.03" y="56.380966" transform="rotate(-0 28.03 56.380966)">0.5</text>
     </g>
    </g>
    <g id="ytick_3">
     <g id="line2d_23">
      <path d="M 35.03 8.818182 
L 540 8.818182 
" clip-path="url(#p52747836f4)" style="fill: none; stroke: #b0b0b0; stroke-width: 0.8; stroke-linecap: square"/>
     </g>
     <g id="line2d_24">
      <g>
       <use xlink:href="#mbd238dbe32" x="35.03" y="8.818182" style="stroke: #000000; stroke-width: 0.8"/>
      </g>
     </g>
     <g id="text_13">
      <text style="font: 10px 'Times New Roman'; text-anchor: end" x="28.03" y="12.290057" transform="rotate(-0 28.03 12.290057)">1.0</text>
     </g>
    </g>
    <g id="text_14">
     <text style="font: 12px 'Times New Roman'; text-anchor: middle" x="8.963125" y="48.5" transform="rotate(-90 8.963125 48.5)">Normalized Value</text>
    </g>
   </g>
   <g id="line2d_25">
    <path d="M 35.03 38.313243 
L 36.235323 18.88398 
L 37.440646 17.861105 
L 38.645968 22.973336 
L 39.851291 25.332367 
L 41.056614 28.42506 
L 42.261937 24.307934 
L 43.46726 23.474861 
L 44.672583 21.971465 
L 45.877905 18.454019 
L 47.083228 22.141699 
L 48.288551 21.753977 
L 49.493874 22.520752 
L 50.699197 23.707069 
L 53.109842 20.908364 
L 54.315165 19.972073 
L 56.725811 22.497615 
L 57.931134 22.417865 
L 59.136457 20.436028 
L 60.341779 19.712753 
L 61.547102 17.321775 
L 62.752425 15.265768 
L 63.957748 15.491731 
L 65.163071 15.289645 
L 66.368394 14.433329 
L 67.573716 13.963319 
L 68.779039 13.680794 
L 69.984362 13.895952 
L 71.189685 13.006361 
L 72.395008 12.592858 
L 73.600331 11.938028 
L 74.805653 12.142311 
L 76.010976 12.586051 
L 77.216299 12.671324 
L 78.421622 13.335919 
L 79.626945 12.828525 
L 80.832268 12.180373 
L 82.03759 12.729676 
L 83.242913 12.691286 
L 84.448236 12.83159 
L 85.653559 12.526974 
L 86.858882 13.310479 
L 88.064205 13.080817 
L 89.269527 13.207357 
L 90.47485 13.5419 
L 91.680173 13.026883 
L 92.885496 13.282013 
L 94.090819 14.005404 
L 95.296142 13.931877 
L 96.501464 14.075129 
L 97.706787 13.56951 
L 98.91211 13.342167 
L 100.117433 13.479232 
L 101.322756 13.881879 
L 102.528079 13.607079 
L 106.144047 13.197225 
L 108.554693 13.602165 
L 109.760016 13.063971 
L 110.965338 13.412618 
L 112.170661 12.611404 
L 113.375984 12.900608 
L 115.78663 12.359553 
L 116.991953 12.988972 
L 118.197275 13.324449 
L 119.402598 13.522506 
L 125.429212 12.620741 
L 126.634535 12.072909 
L 127.839858 11.331655 
L 129.045181 11.288602 
L 131.455826 11.539036 
L 132.661149 11.237201 
L 133.866472 11.640135 
L 135.071795 11.62731 
L 136.277118 11.983472 
L 137.482441 12.035079 
L 138.687763 12.389068 
L 139.893086 12.496524 
L 142.303732 12.976468 
L 145.9197 12.493656 
L 147.125023 11.726356 
L 148.330346 11.764667 
L 149.535669 11.649191 
L 151.946315 11.057287 
L 153.151637 10.983494 
L 154.35696 11.38351 
L 155.562283 11.522239 
L 159.178252 10.771891 
L 160.383574 11.084483 
L 163.999543 11.295727 
L 165.204866 11.104969 
L 166.410189 11.137942 
L 167.615511 10.79201 
L 170.026157 10.83826 
L 171.23148 10.993989 
L 172.436803 11.017027 
L 173.642126 11.315119 
L 174.847448 10.952538 
L 177.258094 11.417742 
L 178.463417 11.739599 
L 180.874063 11.44321 
L 184.490031 10.355567 
L 185.695354 10.592405 
L 186.900677 10.386722 
L 191.721968 10.448437 
L 192.927291 10.553418 
L 194.132614 10.472072 
L 195.337937 10.677625 
L 198.953905 10.610809 
L 201.364551 10.342417 
L 204.980519 10.647101 
L 207.391165 10.772598 
L 208.596488 11.020176 
L 211.007133 11.209315 
L 212.212456 11.32498 
L 214.623102 11.189253 
L 215.828425 11.019377 
L 221.855039 11.109802 
L 227.881653 11.226372 
L 230.292299 11.643347 
L 231.497621 11.554775 
L 232.702944 11.651742 
L 233.908267 11.46108 
L 239.934881 11.419197 
L 241.140204 11.633067 
L 242.345527 11.406621 
L 243.55085 11.594074 
L 244.756173 11.458616 
L 245.961495 11.09475 
L 247.166818 11.127338 
L 249.577464 10.61063 
L 254.398755 10.745184 
L 255.604078 10.596615 
L 256.809401 10.706448 
L 260.425369 10.763687 
L 262.836015 10.78334 
L 264.041338 10.361956 
L 265.246661 10.278681 
L 266.451984 10.364167 
L 271.273275 9.8739 
L 272.478598 9.890609 
L 273.683921 10.028806 
L 274.889243 9.796094 
L 276.094566 9.835078 
L 277.299889 9.671442 
L 278.505212 9.887807 
L 280.915858 10.017664 
L 282.12118 9.836664 
L 284.531826 9.834679 
L 285.737149 9.918606 
L 288.147794 9.749838 
L 289.353117 9.936337 
L 290.55844 9.871994 
L 291.763763 9.575882 
L 294.174409 9.773548 
L 295.379731 9.757155 
L 298.9957 9.244881 
L 301.406346 9.355444 
L 303.816991 9.347391 
L 305.022314 9.24431 
L 307.43296 9.32259 
L 308.638283 9.150051 
L 309.843605 8.861758 
L 311.048928 8.80681 
L 313.459574 8.981623 
L 314.664897 8.972404 
L 315.87022 9.11052 
L 317.075542 8.971641 
L 321.896834 9.023986 
L 323.102157 8.798202 
L 324.307479 8.79081 
L 325.512802 8.639973 
L 327.923448 8.541926 
L 332.744739 8.403427 
L 333.950062 8.549643 
L 335.155385 8.573063 
L 336.360708 8.713729 
L 338.771353 8.79483 
L 339.976676 8.522947 
L 341.181999 8.604668 
L 344.797968 8.410175 
L 346.00329 8.511979 
L 347.208613 8.452163 
L 348.413936 8.509846 
L 349.619259 8.229099 
L 352.029905 8.288115 
L 353.235227 8.163871 
L 354.44055 8.244227 
L 355.645873 8.115241 
L 356.851196 8.259695 
L 358.056519 8.101782 
L 360.467164 8.120974 
L 364.083133 8.072759 
L 365.288456 8.237256 
L 368.904424 8.297311 
L 370.109747 8.381146 
L 372.520393 8.145596 
L 374.931038 8.348103 
L 378.547007 8.557914 
L 379.75233 8.262739 
L 383.368298 8.167775 
L 390.600235 8.310848 
L 394.216204 8.265617 
L 395.421526 8.319562 
L 397.832172 8.165217 
L 399.037495 8.053457 
L 402.653463 8.179332 
L 405.064109 8.122645 
L 407.474755 8.269258 
L 408.680078 8.126829 
L 412.296046 8.118083 
L 413.501369 8.221803 
L 415.912015 8.173259 
L 418.32266 8.30821 
L 420.733306 7.983777 
L 424.349274 8.116208 
L 425.554597 8.123248 
L 427.965243 8.005516 
L 429.170566 7.952655 
L 433.991857 8.170992 
L 437.607826 8.096913 
L 440.018471 7.866035 
L 442.429117 7.999338 
L 446.045085 7.778583 
L 450.866377 7.969985 
L 453.277022 7.85578 
L 455.687668 7.995951 
L 456.892991 7.956189 
L 459.303636 8.155872 
L 460.508959 7.9844 
L 464.124928 8.150387 
L 478.588802 8.034898 
L 479.794125 7.784863 
L 483.410093 7.872847 
L 484.615416 7.807768 
L 488.231384 8.059713 
L 491.847353 8.235751 
L 494.257999 8.424455 
L 501.489936 8.50827 
L 506.311227 8.76416 
L 513.543164 8.927326 
L 515.95381 8.818182 
L 515.95381 8.818182 
" clip-path="url(#p52747836f4)" style="fill: none; stroke: #4169e1; stroke-width: 1.5; stroke-linecap: square"/>
   </g>
   <g id="line2d_26">
    <path d="M 35.03 97 
L 36.235323 46.475311 
L 37.440646 63.036805 
L 38.645968 61.033795 
L 39.851291 65.247708 
L 41.056614 64.13895 
L 42.261937 55.221112 
L 43.46726 59.793261 
L 44.672583 61.507275 
L 45.877905 50.153042 
L 47.083228 36.210763 
L 48.288551 41.05521 
L 49.493874 44.41436 
L 50.699197 45.721777 
L 51.90452 45.730195 
L 53.109842 44.715503 
L 54.315165 45.913767 
L 55.520488 45.233821 
L 56.725811 43.998367 
L 57.931134 46.632275 
L 59.136457 38.517004 
L 60.341779 39.704983 
L 61.547102 25.362948 
L 62.752425 15.335108 
L 65.163071 21.322671 
L 66.368394 21.573817 
L 67.573716 23.469306 
L 69.984362 27.902508 
L 71.189685 26.953903 
L 72.395008 28.433414 
L 73.600331 28.674656 
L 74.805653 30.499906 
L 76.010976 31.50387 
L 77.216299 33.289144 
L 78.421622 32.882885 
L 79.626945 33.295259 
L 80.832268 32.792085 
L 82.03759 32.822283 
L 84.448236 35.762641 
L 85.653559 36.665158 
L 86.858882 34.503409 
L 88.064205 35.581607 
L 89.269527 36.820349 
L 90.47485 37.411714 
L 91.680173 36.984618 
L 92.885496 37.791251 
L 94.090819 35.543531 
L 96.501464 37.731682 
L 97.706787 37.070683 
L 98.91211 37.813854 
L 100.117433 38.754185 
L 101.322756 38.600845 
L 102.528079 39.059396 
L 103.733401 39.95572 
L 104.938724 40.646188 
L 106.144047 41.498081 
L 108.554693 42.628014 
L 109.760016 41.087469 
L 110.965338 40.936149 
L 112.170661 36.299865 
L 113.375984 36.491927 
L 114.581307 36.914453 
L 115.78663 36.948439 
L 116.991953 34.213136 
L 118.197275 34.07073 
L 121.813244 35.677553 
L 123.018567 36.413203 
L 124.223889 36.895138 
L 125.429212 36.995412 
L 126.634535 34.721882 
L 127.839858 29.857724 
L 129.045181 30.688276 
L 131.455826 31.993518 
L 132.661149 31.798609 
L 133.866472 30.802316 
L 135.071795 31.588557 
L 136.277118 30.931953 
L 137.482441 31.669887 
L 138.687763 30.978465 
L 139.893086 31.594255 
L 141.098409 31.484223 
L 142.303732 31.676275 
L 143.509055 32.029544 
L 144.714378 31.807147 
L 145.9197 32.494961 
L 147.125023 25.852852 
L 148.330346 26.583303 
L 149.535669 27.14726 
L 150.740992 26.308191 
L 151.946315 26.259449 
L 153.151637 26.902575 
L 154.35696 25.483328 
L 155.562283 25.933827 
L 156.767606 25.826625 
L 159.178252 25.443761 
L 160.383574 24.765121 
L 162.79422 25.99833 
L 163.999543 26.554653 
L 165.204866 26.674949 
L 166.410189 27.298407 
L 167.615511 26.164518 
L 170.026157 27.359854 
L 171.23148 27.60395 
L 172.436803 28.199296 
L 173.642126 27.424714 
L 174.847448 25.978306 
L 176.052771 26.021439 
L 177.258094 25.412127 
L 178.463417 24.35877 
L 179.66874 24.390387 
L 180.874063 24.795905 
L 183.284708 20.869261 
L 184.490031 20.003163 
L 185.695354 19.675813 
L 186.900677 19.571226 
L 190.516645 21.27773 
L 191.721968 21.503774 
L 194.132614 22.330369 
L 195.337937 22.135479 
L 196.543259 22.687578 
L 197.748582 23.057218 
L 198.953905 23.023954 
L 200.159228 23.368844 
L 201.364551 23.387847 
L 203.775196 23.912635 
L 207.391165 25.189832 
L 208.596488 24.503731 
L 209.80181 24.970535 
L 211.007133 25.020928 
L 212.212456 25.244057 
L 213.417779 25.715371 
L 214.623102 25.936145 
L 215.828425 25.827413 
L 218.23907 26.722343 
L 221.855039 27.600763 
L 223.060362 28.038094 
L 226.67633 28.834666 
L 227.881653 29.253218 
L 229.086976 28.630316 
L 230.292299 28.206832 
L 232.702944 28.664191 
L 233.908267 28.273067 
L 236.318913 28.956695 
L 239.934881 30.023273 
L 241.140204 29.365816 
L 242.345527 28.576311 
L 243.55085 28.155924 
L 244.756173 28.121998 
L 245.961495 25.412287 
L 247.166818 25.791722 
L 248.372141 25.018359 
L 249.577464 23.359152 
L 254.398755 24.830967 
L 255.604078 24.682563 
L 256.809401 24.776386 
L 258.014724 25.16079 
L 259.220047 25.395094 
L 261.630692 26.047531 
L 262.836015 26.370724 
L 264.041338 22.225059 
L 266.451984 22.635776 
L 268.862629 22.275383 
L 270.067952 21.250768 
L 272.478598 21.973482 
L 273.683921 21.844378 
L 274.889243 20.777769 
L 276.094566 21.116304 
L 277.299889 20.771616 
L 278.505212 19.881459 
L 279.710535 20.027286 
L 280.915858 20.364553 
L 282.12118 19.837696 
L 284.531826 20.569604 
L 285.737149 20.739207 
L 286.942472 20.623838 
L 288.147794 20.945272 
L 289.353117 20.32176 
L 290.55844 20.564285 
L 291.763763 18.421788 
L 294.174409 18.589787 
L 295.379731 18.943355 
L 296.585054 18.720866 
L 297.790377 18.136319 
L 298.9957 17.423105 
L 300.201023 17.553691 
L 303.816991 18.523823 
L 305.022314 18.554038 
L 306.227637 18.770356 
L 307.43296 19.110345 
L 308.638283 18.547503 
L 309.843605 16.353825 
L 311.048928 16.611921 
L 312.254251 16.49816 
L 314.664897 17.102196 
L 317.075542 16.585762 
L 318.280865 16.919203 
L 321.896834 17.349882 
L 323.102157 16.051047 
L 324.307479 16.38518 
L 325.512802 15.984417 
L 326.718125 16.316615 
L 327.923448 16.372234 
L 331.539416 17.148689 
L 332.744739 17.164655 
L 333.950062 16.775648 
L 335.155385 17.078266 
L 336.360708 16.734603 
L 337.566031 17.052907 
L 338.771353 17.160526 
L 339.976676 14.971775 
L 342.387322 15.235787 
L 343.592645 14.998333 
L 344.797968 15.316151 
L 346.00329 15.273648 
L 348.413936 15.660566 
L 349.619259 13.21767 
L 350.824582 13.390349 
L 352.029905 13.705993 
L 353.235227 13.474874 
L 354.44055 13.55986 
L 355.645873 13.280047 
L 356.851196 12.846741 
L 358.056519 12.265121 
L 360.467164 12.758406 
L 361.672487 13.0681 
L 362.87781 13.190713 
L 364.083133 13.475981 
L 365.288456 12.78737 
L 366.493778 13.087969 
L 367.699101 13.129221 
L 368.904424 13.424619 
L 370.109747 13.462663 
L 371.31507 12.781473 
L 372.520393 12.878244 
L 373.725715 12.34501 
L 377.341684 12.986878 
L 378.547007 12.477407 
L 379.75233 9.436762 
L 388.189589 10.936305 
L 389.394912 10.587028 
L 391.805558 11.020474 
L 395.421526 11.73309 
L 396.626849 11.374894 
L 397.832172 11.62695 
L 399.037495 11.40385 
L 401.448141 11.725347 
L 405.064109 12.449647 
L 406.269432 12.204037 
L 407.474755 12.428683 
L 408.680078 11.858929 
L 409.8854 12.124248 
L 413.501369 11.887862 
L 417.117337 12.445765 
L 418.32266 12.480726 
L 420.733306 10.759834 
L 421.938629 10.75351 
L 425.554597 11.488141 
L 426.75992 11.201255 
L 427.965243 11.462379 
L 432.786534 12.099621 
L 433.991857 11.895742 
L 436.402503 12.400953 
L 437.607826 12.344098 
L 438.813148 11.844068 
L 440.018471 11.634621 
L 443.63444 11.609648 
L 444.839763 11.82673 
L 446.045085 11.593627 
L 449.661054 12.096332 
L 450.866377 11.806272 
L 452.071699 11.73033 
L 453.277022 11.931046 
L 454.482345 11.673863 
L 456.892991 12.024059 
L 458.098314 11.491146 
L 459.303636 11.493886 
L 460.508959 10.346277 
L 462.919605 10.288774 
L 466.535573 10.959318 
L 467.740896 10.291585 
L 468.946219 10.459597 
L 471.356865 9.800535 
L 474.972833 10.271695 
L 476.178156 10.228671 
L 477.383479 10.428207 
L 478.588802 10.477586 
L 479.794125 7.623847 
L 480.999447 7.794093 
L 482.20477 7.720176 
L 483.410093 7.91686 
L 484.615416 7.943612 
L 485.820739 7.599994 
L 487.026062 7.68812 
L 488.231384 7.521024 
L 489.436707 7.731184 
L 490.64203 7.206311 
L 491.847353 7.395427 
L 494.257999 6.956872 
L 496.668644 7.366873 
L 497.873967 7.163038 
L 500.284613 7.612036 
L 501.489936 7.700695 
L 502.695258 7.554842 
L 508.721873 7.879413 
L 514.748487 8.812181 
L 515.95381 8.818182 
L 515.95381 8.818182 
" clip-path="url(#p52747836f4)" style="fill: none; stroke-dasharray: 5.55,2.4; stroke-dashoffset: 0; stroke: #4169e1; stroke-width: 1.5"/>
   </g>
   <g id="line2d_27">
    <path d="M 35.03 35.053563 
L 36.235323 14.946005 
L 37.440646 14.260146 
L 38.645968 17.507147 
L 39.851291 19.526916 
L 41.056614 23.212939 
L 42.261937 20.89686 
L 44.672583 18.625838 
L 45.877905 15.826797 
L 47.083228 19.531094 
L 48.288551 19.169879 
L 49.493874 19.96573 
L 50.699197 20.933629 
L 51.90452 19.751316 
L 53.109842 18.207535 
L 54.315165 17.321621 
L 55.520488 18.709491 
L 56.725811 19.659191 
L 57.931134 19.4531 
L 59.136457 17.811049 
L 60.341779 17.196495 
L 62.752425 13.816778 
L 63.957748 14.013987 
L 65.163071 13.56372 
L 66.368394 12.568242 
L 67.573716 12.187472 
L 68.779039 11.965591 
L 69.984362 12.25233 
L 71.189685 11.493604 
L 73.600331 11.069187 
L 78.421622 12.125641 
L 79.626945 11.60236 
L 80.832268 10.955934 
L 82.03759 11.311496 
L 83.242913 11.315787 
L 84.448236 11.465541 
L 85.653559 11.183356 
L 86.858882 11.888023 
L 88.064205 11.541742 
L 89.269527 11.566375 
L 90.47485 11.817952 
L 91.680173 11.331763 
L 92.885496 11.51844 
L 94.090819 12.317727 
L 96.501464 12.322748 
L 97.706787 11.857635 
L 98.91211 11.834714 
L 100.117433 11.965493 
L 101.322756 12.303433 
L 103.733401 12.046922 
L 104.938724 11.725789 
L 106.144047 11.783938 
L 108.554693 12.23921 
L 109.760016 12.077605 
L 110.965338 12.363397 
L 112.170661 11.575952 
L 113.375984 11.768585 
L 114.581307 11.568142 
L 115.78663 11.206792 
L 116.991953 11.741987 
L 119.402598 12.130081 
L 124.223889 11.782823 
L 125.429212 11.498165 
L 127.839858 10.474718 
L 129.045181 10.298473 
L 131.455826 10.369102 
L 132.661149 10.085175 
L 133.866472 10.401372 
L 135.071795 10.226681 
L 136.277118 10.569529 
L 137.482441 10.62843 
L 138.687763 11.008895 
L 139.893086 11.088293 
L 142.303732 11.508178 
L 143.509055 11.258338 
L 145.9197 11.061916 
L 147.125023 10.399193 
L 149.535669 10.295641 
L 150.740992 9.970152 
L 153.151637 9.769855 
L 154.35696 10.114851 
L 155.562283 10.218745 
L 159.178252 9.717951 
L 160.383574 10.073379 
L 163.999543 10.30581 
L 165.204866 10.124744 
L 166.410189 10.151944 
L 167.615511 9.880304 
L 170.026157 9.91227 
L 171.23148 10.017477 
L 172.436803 9.996384 
L 173.642126 10.247185 
L 174.847448 9.887256 
L 177.258094 10.269899 
L 178.463417 10.566187 
L 182.079385 9.895161 
L 183.284708 9.508455 
L 184.490031 9.25747 
L 185.695354 9.442698 
L 186.900677 9.301607 
L 196.543259 9.561812 
L 197.748582 9.689682 
L 198.953905 9.537868 
L 202.569873 9.524666 
L 204.980519 9.744404 
L 207.391165 9.89592 
L 209.80181 10.186366 
L 212.212456 10.382623 
L 218.23907 10.164923 
L 220.649716 10.293404 
L 221.855039 10.199725 
L 223.060362 10.237331 
L 224.265684 10.15332 
L 226.67633 10.365878 
L 227.881653 10.344849 
L 230.292299 10.716962 
L 231.497621 10.638944 
L 232.702944 10.687797 
L 236.318913 10.477792 
L 239.934881 10.584935 
L 241.140204 10.77676 
L 242.345527 10.627055 
L 243.55085 10.791329 
L 244.756173 10.685181 
L 245.961495 10.375114 
L 247.166818 10.371854 
L 250.782787 9.972055 
L 253.193432 10.078837 
L 259.220047 10.211628 
L 262.836015 10.19078 
L 264.041338 9.814423 
L 265.246661 9.723696 
L 266.451984 9.798099 
L 268.862629 9.617635 
L 270.067952 9.415342 
L 276.094566 9.479581 
L 277.299889 9.317224 
L 278.505212 9.520051 
L 280.915858 9.603331 
L 282.12118 9.395185 
L 288.147794 9.40365 
L 289.353117 9.55177 
L 290.55844 9.486819 
L 291.763763 9.273505 
L 294.174409 9.419247 
L 296.585054 9.221537 
L 298.9957 8.868366 
L 301.406346 8.924884 
L 303.816991 8.860428 
L 305.022314 8.712298 
L 307.43296 8.752704 
L 311.048928 8.341826 
L 313.459574 8.51497 
L 314.664897 8.488281 
L 315.87022 8.632085 
L 318.280865 8.504673 
L 320.691511 8.579729 
L 321.896834 8.489864 
L 323.102157 8.276263 
L 326.718125 8.188941 
L 329.128771 8.067425 
L 331.539416 8.111179 
L 332.744739 8.060753 
L 333.950062 8.182202 
L 335.155385 8.174982 
L 337.566031 8.316349 
L 338.771353 8.375448 
L 339.976676 8.21489 
L 341.181999 8.26903 
L 344.797968 8.121091 
L 346.00329 8.21571 
L 347.208613 8.141949 
L 348.413936 8.213971 
L 349.619259 8.030895 
L 352.029905 8.04729 
L 353.235227 7.947497 
L 354.44055 8.005106 
L 355.645873 7.88627 
L 356.851196 8.036003 
L 358.056519 7.923552 
L 359.261842 7.981857 
L 362.87781 7.866397 
L 364.083133 7.886195 
L 365.288456 8.023537 
L 368.904424 8.096677 
L 370.109747 8.195956 
L 372.520393 7.965298 
L 374.931038 8.117389 
L 377.341684 8.209695 
L 378.547007 8.346986 
L 379.75233 8.127527 
L 383.368298 8.097204 
L 386.984267 8.191035 
L 388.189589 8.184577 
L 389.394912 8.304253 
L 400.242818 8.051159 
L 403.858786 8.070321 
L 405.064109 8.051256 
L 407.474755 8.179932 
L 409.8854 8.057868 
L 411.090723 8.136964 
L 412.296046 8.07649 
L 414.706692 8.16466 
L 419.527983 8.178844 
L 420.733306 8.068165 
L 424.349274 8.189529 
L 427.965243 8.139259 
L 430.375889 8.155771 
L 436.402503 8.2614 
L 440.018471 8.01328 
L 442.429117 8.122962 
L 447.250408 7.956527 
L 449.661054 7.984914 
L 450.866377 8.103318 
L 453.277022 7.991855 
L 455.687668 8.086611 
L 456.892991 8.058561 
L 459.303636 8.240188 
L 460.508959 8.058053 
L 466.535573 8.239271 
L 467.740896 8.132216 
L 474.972833 8.140986 
L 477.383479 8.063266 
L 478.588802 8.143056 
L 479.794125 7.958984 
L 489.436707 8.215879 
L 493.052676 8.433944 
L 495.463321 8.507398 
L 497.873967 8.517126 
L 502.695258 8.573271 
L 513.543164 8.88569 
L 515.95381 8.818182 
L 515.95381 8.818182 
" clip-path="url(#p52747836f4)" style="fill: none; stroke: #ff8c00; stroke-width: 1.5; stroke-linecap: square"/>
   </g>
   <g id="line2d_28">
    <path d="M 35.03 97 
L 36.235323 22.44551 
L 37.440646 47.123524 
L 38.645968 53.760324 
L 39.851291 59.399283 
L 41.056614 53.139239 
L 42.261937 53.470164 
L 43.46726 57.430461 
L 44.672583 59.703188 
L 45.877905 50.430692 
L 47.083228 29.36157 
L 48.288551 34.733451 
L 49.493874 38.121661 
L 50.699197 40.081523 
L 51.90452 40.267407 
L 53.109842 37.221191 
L 54.315165 38.422017 
L 55.520488 35.638225 
L 56.725811 35.874149 
L 57.931134 38.781632 
L 59.136457 31.610007 
L 60.341779 33.119781 
L 61.547102 24.604665 
L 62.752425 15.200853 
L 63.957748 18.300704 
L 65.163071 20.392982 
L 66.368394 18.479203 
L 67.573716 20.561671 
L 68.779039 22.943289 
L 69.984362 24.972178 
L 71.189685 24.111121 
L 73.600331 28.007072 
L 77.216299 32.965442 
L 78.421622 33.443499 
L 79.626945 33.247819 
L 80.832268 31.954455 
L 82.03759 32.671409 
L 83.242913 34.240263 
L 84.448236 35.564994 
L 85.653559 36.377021 
L 86.858882 33.817583 
L 88.064205 34.248744 
L 89.269527 35.607866 
L 90.47485 36.377231 
L 91.680173 35.591577 
L 92.885496 36.536363 
L 94.090819 31.973234 
L 96.501464 34.433488 
L 97.706787 33.53967 
L 98.91211 34.709726 
L 100.117433 35.671972 
L 101.322756 35.608882 
L 103.733401 37.382207 
L 104.938724 37.289736 
L 106.144047 38.248121 
L 108.554693 38.996588 
L 109.760016 39.6187 
L 110.965338 39.566434 
L 112.170661 33.132311 
L 114.581307 34.11172 
L 115.78663 33.423351 
L 116.991953 30.753154 
L 119.402598 31.659137 
L 120.607921 32.471122 
L 121.813244 33.021022 
L 123.018567 33.882029 
L 124.223889 34.528711 
L 125.429212 34.230069 
L 126.634535 31.811887 
L 127.839858 28.459452 
L 129.045181 28.880288 
L 131.455826 30.523829 
L 132.661149 30.130443 
L 133.866472 29.424338 
L 135.071795 29.761749 
L 136.277118 28.732085 
L 137.482441 29.47152 
L 138.687763 27.952187 
L 139.893086 28.635687 
L 141.098409 28.760696 
L 142.303732 28.718786 
L 143.509055 28.433222 
L 145.9197 29.578376 
L 147.125023 22.763765 
L 148.330346 23.543978 
L 149.535669 24.15052 
L 150.740992 23.026125 
L 151.946315 23.381349 
L 153.151637 24.078288 
L 154.35696 22.634712 
L 155.562283 23.171963 
L 156.767606 23.287999 
L 157.972929 23.068905 
L 159.178252 23.600275 
L 160.383574 21.876652 
L 163.999543 23.612747 
L 165.204866 23.633116 
L 166.410189 24.285218 
L 167.615511 23.443615 
L 170.026157 24.728184 
L 171.23148 25.131514 
L 172.436803 25.747105 
L 173.642126 25.027484 
L 174.847448 22.871559 
L 176.052771 22.925183 
L 177.258094 22.499797 
L 178.463417 21.194313 
L 179.66874 21.020068 
L 180.874063 21.194661 
L 182.079385 19.224625 
L 183.284708 16.460121 
L 184.490031 15.664077 
L 185.695354 15.518778 
L 186.900677 15.697846 
L 190.516645 17.511256 
L 192.927291 18.255664 
L 194.132614 18.46032 
L 195.337937 18.342763 
L 196.543259 18.87189 
L 197.748582 19.039334 
L 198.953905 19.030406 
L 200.159228 19.592439 
L 202.569873 20.142272 
L 203.775196 20.182462 
L 207.391165 21.28331 
L 208.596488 20.816706 
L 209.80181 21.08447 
L 211.007133 21.143591 
L 214.623102 22.285025 
L 215.828425 22.359793 
L 218.23907 23.266126 
L 219.444393 23.40859 
L 220.649716 23.872799 
L 221.855039 24.090738 
L 223.060362 24.514447 
L 224.265684 24.768889 
L 226.67633 25.013312 
L 227.881653 25.447386 
L 229.086976 24.656637 
L 230.292299 24.253663 
L 233.908267 25.105749 
L 235.11359 25.508089 
L 236.318913 25.646459 
L 238.729558 26.459556 
L 239.934881 26.73106 
L 241.140204 25.979323 
L 242.345527 25.679039 
L 243.55085 25.228057 
L 244.756173 25.276661 
L 245.961495 22.581735 
L 247.166818 23.001833 
L 248.372141 22.634734 
L 249.577464 21.150291 
L 250.782787 21.571057 
L 251.98811 21.748026 
L 255.604078 22.833857 
L 256.809401 22.88038 
L 258.014724 23.241235 
L 259.220047 23.430725 
L 262.836015 24.530962 
L 264.041338 19.947793 
L 266.451984 20.261866 
L 268.862629 20.466191 
L 270.067952 19.385209 
L 272.478598 20.141798 
L 274.889243 19.758052 
L 276.094566 20.114308 
L 277.299889 19.517933 
L 278.505212 18.367267 
L 280.915858 18.993814 
L 282.12118 17.734739 
L 288.147794 19.542323 
L 289.353117 19.054073 
L 290.55844 19.255099 
L 291.763763 17.831205 
L 292.969086 17.862733 
L 295.379731 18.356646 
L 296.585054 17.90911 
L 298.9957 16.121132 
L 300.201023 16.217889 
L 302.611668 16.912585 
L 303.816991 17.03872 
L 305.022314 16.487765 
L 307.43296 17.16322 
L 308.638283 16.501855 
L 309.843605 14.789675 
L 311.048928 15.098662 
L 312.254251 14.838286 
L 314.664897 15.395128 
L 315.87022 14.855371 
L 317.075542 14.594876 
L 319.486188 15.231752 
L 320.691511 15.507557 
L 321.896834 15.494115 
L 323.102157 13.822971 
L 324.307479 14.164653 
L 325.512802 13.998793 
L 326.718125 14.304266 
L 327.923448 14.341445 
L 329.128771 14.608786 
L 330.334094 14.737621 
L 332.744739 15.259652 
L 333.950062 14.913408 
L 335.155385 15.239361 
L 336.360708 14.901682 
L 337.566031 15.206264 
L 338.771353 15.367261 
L 339.976676 14.485996 
L 342.387322 14.789464 
L 343.592645 14.591749 
L 344.797968 14.886723 
L 346.00329 14.777837 
L 348.413936 14.900356 
L 349.619259 13.600614 
L 352.029905 14.120563 
L 353.235227 13.94852 
L 354.44055 14.09857 
L 355.645873 13.716381 
L 356.851196 12.923313 
L 358.056519 12.610959 
L 360.467164 12.92589 
L 361.672487 13.23495 
L 362.87781 13.351412 
L 364.083133 13.636968 
L 365.288456 12.987065 
L 366.493778 13.291079 
L 367.699101 13.364586 
L 368.904424 13.661433 
L 370.109747 13.454875 
L 371.31507 12.985069 
L 372.520393 12.67665 
L 373.725715 12.222414 
L 376.136361 12.703729 
L 377.341684 12.828026 
L 378.547007 12.131757 
L 379.75233 9.8875 
L 384.573621 10.841882 
L 385.778944 10.713673 
L 386.984267 10.884364 
L 388.189589 11.175021 
L 389.394912 10.689495 
L 391.805558 11.063285 
L 393.010881 11.210269 
L 394.216204 11.495055 
L 395.421526 11.613601 
L 396.626849 10.939902 
L 397.832172 11.214165 
L 399.037495 11.101509 
L 401.448141 11.465374 
L 405.064109 12.238668 
L 406.269432 11.781476 
L 407.474755 12.043233 
L 408.680078 11.794874 
L 409.8854 12.027554 
L 411.090723 11.939098 
L 412.296046 11.998911 
L 413.501369 11.82005 
L 415.912015 12.344456 
L 417.117337 12.485561 
L 418.32266 12.499738 
L 420.733306 11.562391 
L 421.938629 11.552709 
L 425.554597 12.251726 
L 426.75992 12.13592 
L 429.170566 12.518055 
L 430.375889 12.563049 
L 432.786534 13.033655 
L 433.991857 12.619812 
L 436.402503 13.102066 
L 440.018471 12.568818 
L 441.223794 12.561065 
L 442.429117 12.682223 
L 443.63444 12.638608 
L 444.839763 12.811443 
L 446.045085 12.565571 
L 448.455731 12.981699 
L 449.661054 13.051947 
L 450.866377 12.402691 
L 452.071699 12.104866 
L 453.277022 12.32492 
L 454.482345 12.219873 
L 456.892991 12.623467 
L 458.098314 12.081918 
L 459.303636 11.988234 
L 460.508959 10.069069 
L 461.714282 10.192026 
L 462.919605 9.998959 
L 465.330251 10.450371 
L 466.535573 10.524736 
L 467.740896 10.006257 
L 468.946219 10.240131 
L 470.151542 9.85458 
L 471.356865 9.697037 
L 474.972833 10.116154 
L 476.178156 9.976237 
L 477.383479 10.2121 
L 478.588802 10.015282 
L 479.794125 7.944916 
L 480.999447 8.142697 
L 482.20477 8.020781 
L 483.410093 8.140968 
L 484.615416 8.141625 
L 485.820739 7.805902 
L 488.231384 7.608569 
L 489.436707 7.785606 
L 490.64203 7.257827 
L 491.847353 7.444156 
L 493.052676 7.152211 
L 494.257999 7.034027 
L 495.463321 7.268474 
L 499.07929 7.530754 
L 501.489936 7.795514 
L 502.695258 7.679766 
L 505.105904 7.919542 
L 506.311227 7.77201 
L 507.51655 7.910724 
L 508.721873 7.804369 
L 512.337841 8.385949 
L 514.748487 8.778091 
L 515.95381 8.818182 
L 515.95381 8.818182 
" clip-path="url(#p52747836f4)" style="fill: none; stroke-dasharray: 5.55,2.4; stroke-dashoffset: 0; stroke: #ff8c00; stroke-width: 1.5"/>
   </g>
   <g id="patch_3">
    <path d="M 35.03 97 
L 35.03 0 
" style="fill: none; stroke: #000000; stroke-width: 0.8; stroke-linejoin: miter; stroke-linecap: square"/>
   </g>
   <g id="patch_4">
    <path d="M 540 97 
L 540 0 
" style="fill: none; stroke: #000000; stroke-width: 0.8; stroke-linejoin: miter; stroke-linecap: square"/>
   </g>
   <g id="patch_5">
    <path d="M 35.03 97 
L 540 97 
" style="fill: none; stroke: #000000; stroke-width: 0.8; stroke-linejoin: miter; stroke-linecap: square"/>
   </g>
   <g id="patch_6">
    <path d="M 35.03 0 
L 540 0 
" style="fill: none; stroke: #000000; stroke-width: 0.8; stroke-linejoin: miter; stroke-linecap: square"/>
   </g>
  </g>
 </g>
 <defs>
  <clipPath id="p52747836f4">
   <rect x="35.03" y="0" width="504.97" height="97"/>
  </clipPath>
 </defs>
</svg>
