<?xml version="1.0" encoding="utf-8" standalone="no"?>
<!DOCTYPE svg PUBLIC "-//W3C//DTD SVG 1.1//EN"
  "http://www.w3.org/Graphics/SVG/1.1/DTD/svg11.dtd">
<svg xmlns:xlink="http://www.w3.org/1999/xlink" width="540pt" height="129.6pt" viewBox="0 0 540 129.6" xmlns="http://www.w3.org/2000/svg" version="1.1">
 <metadata>
  <rdf:RDF xmlns:dc="http://purl.org/dc/elements/1.1/" xmlns:cc="http://creativecommons.org/ns#" xmlns:rdf="http://www.w3.org/1999/02/22-rdf-syntax-ns#">
   <cc:Work>
    <dc:type rdf:resource="http://purl.org/dc/dcmitype/StillImage"/>
    <dc:date>2025-03-23T19:24:04.428329</dc:date>
    <dc:format>image/svg+xml</dc:format>
    <dc:creator>
     <cc:Agent>
      <dc:title>Matplotlib v3.8.3, https://matplotlib.org/</dc:title>
     </cc:Agent>
    </dc:creator>
   </cc:Work>
  </rdf:RDF>
 </metadata>
 <defs>
  <style type="text/css">*{stroke-linejoin: round; stroke-linecap: butt}</style>
 </defs>
 <g id="figure_1">
  <g id="patch_1">
   <path d="M 0 129.6 
L 540 129.6 
L 540 0 
L 0 0 
z
" style="fill: #ffffff"/>
  </g>
  <g id="axes_1">
   <g id="patch_2">
    <path d="M 35.03 97 
L 540 97 
L 540 0 
L 35.03 0 
z
" style="fill: #ffffff"/>
   </g>
   <g id="matplotlib.axis_1">
    <g id="xtick_1">
     <g id="line2d_1">
      <path d="M 35.03 97 
L 35.03 0 
" clip-path="url(#pcbf7115c72)" style="fill: none; stroke: #b0b0b0; stroke-width: 0.8; stroke-linecap: square"/>
     </g>
     <g id="line2d_2">
      <defs>
       <path id="m15d9b08eff" d="M 0 0 
L 0 3.5 
" style="stroke: #000000; stroke-width: 0.8"/>
      </defs>
      <g>
       <use xlink:href="#m15d9b08eff" x="35.03" y="97" style="stroke: #000000; stroke-width: 0.8"/>
      </g>
     </g>
     <g id="text_1">
      <text style="font: 10px 'Times New Roman'; text-anchor: middle" x="35.03" y="110.94375" transform="rotate(-0 35.03 110.94375)">0</text>
     </g>
    </g>
    <g id="xtick_2">
     <g id="line2d_3">
      <path d="M 95.296142 97 
L 95.296142 0 
" clip-path="url(#pcbf7115c72)" style="fill: none; stroke: #b0b0b0; stroke-width: 0.8; stroke-linecap: square"/>
     </g>
     <g id="line2d_4">
      <g>
       <use xlink:href="#m15d9b08eff" x="95.296142" y="97" style="stroke: #000000; stroke-width: 0.8"/>
      </g>
     </g>
     <g id="text_2">
      <text style="font: 10px 'Times New Roman'; text-anchor: middle" x="95.296142" y="110.94375" transform="rotate(-0 95.296142 110.94375)">50</text>
     </g>
    </g>
    <g id="xtick_3">
     <g id="line2d_5">
      <path d="M 155.562283 97 
L 155.562283 0 
" clip-path="url(#pcbf7115c72)" style="fill: none; stroke: #b0b0b0; stroke-width: 0.8; stroke-linecap: square"/>
     </g>
     <g id="line2d_6">
      <g>
       <use xlink:href="#m15d9b08eff" x="155.562283" y="97" style="stroke: #000000; stroke-width: 0.8"/>
      </g>
     </g>
     <g id="text_3">
      <text style="font: 10px 'Times New Roman'; text-anchor: middle" x="155.562283" y="110.94375" transform="rotate(-0 155.562283 110.94375)">100</text>
     </g>
    </g>
    <g id="xtick_4">
     <g id="line2d_7">
      <path d="M 215.828425 97 
L 215.828425 0 
" clip-path="url(#pcbf7115c72)" style="fill: none; stroke: #b0b0b0; stroke-width: 0.8; stroke-linecap: square"/>
     </g>
     <g id="line2d_8">
      <g>
       <use xlink:href="#m15d9b08eff" x="215.828425" y="97" style="stroke: #000000; stroke-width: 0.8"/>
      </g>
     </g>
     <g id="text_4">
      <text style="font: 10px 'Times New Roman'; text-anchor: middle" x="215.828425" y="110.94375" transform="rotate(-0 215.828425 110.94375)">150</text>
     </g>
    </g>
    <g id="xtick_5">
     <g id="line2d_9">
      <path d="M 276.094566 97 
L 276.094566 0 
" clip-path="url(#pcbf7115c72)" style="fill: none; stroke: #b0b0b0; stroke-width: 0.8; stroke-linecap: square"/>
     </g>
     <g id="line2d_10">
      <g>
       <use xlink:href="#m15d9b08eff" x="276.094566" y="97" style="stroke: #000000; stroke-width: 0.8"/>
      </g>
     </g>
     <g id="text_5">
      <text style="font: 10px 'Times New Roman'; text-anchor: middle" x="276.094566" y="110.94375" transform="rotate(-0 276.094566 110.94375)">200</text>
     </g>
    </g>
    <g id="xtick_6">
     <g id="line2d_11">
      <path d="M 336.360708 97 
L 336.360708 0 
" clip-path="url(#pcbf7115c72)" style="fill: none; stroke: #b0b0b0; stroke-width: 0.8; stroke-linecap: square"/>
     </g>
     <g id="line2d_12">
      <g>
       <use xlink:href="#m15d9b08eff" x="336.360708" y="97" style="stroke: #000000; stroke-width: 0.8"/>
      </g>
     </g>
     <g id="text_6">
      <text style="font: 10px 'Times New Roman'; text-anchor: middle" x="336.360708" y="110.94375" transform="rotate(-0 336.360708 110.94375)">250</text>
     </g>
    </g>
    <g id="xtick_7">
     <g id="line2d_13">
      <path d="M 396.626849 97 
L 396.626849 0 
" clip-path="url(#pcbf7115c72)" style="fill: none; stroke: #b0b0b0; stroke-width: 0.8; stroke-linecap: square"/>
     </g>
     <g id="line2d_14">
      <g>
       <use xlink:href="#m15d9b08eff" x="396.626849" y="97" style="stroke: #000000; stroke-width: 0.8"/>
      </g>
     </g>
     <g id="text_7">
      <text style="font: 10px 'Times New Roman'; text-anchor: middle" x="396.626849" y="110.94375" transform="rotate(-0 396.626849 110.94375)">300</text>
     </g>
    </g>
    <g id="xtick_8">
     <g id="line2d_15">
      <path d="M 456.892991 97 
L 456.892991 0 
" clip-path="url(#pcbf7115c72)" style="fill: none; stroke: #b0b0b0; stroke-width: 0.8; stroke-linecap: square"/>
     </g>
     <g id="line2d_16">
      <g>
       <use xlink:href="#m15d9b08eff" x="456.892991" y="97" style="stroke: #000000; stroke-width: 0.8"/>
      </g>
     </g>
     <g id="text_8">
      <text style="font: 10px 'Times New Roman'; text-anchor: middle" x="456.892991" y="110.94375" transform="rotate(-0 456.892991 110.94375)">350</text>
     </g>
    </g>
    <g id="xtick_9">
     <g id="line2d_17">
      <path d="M 517.159132 97 
L 517.159132 0 
" clip-path="url(#pcbf7115c72)" style="fill: none; stroke: #b0b0b0; stroke-width: 0.8; stroke-linecap: square"/>
     </g>
     <g id="line2d_18">
      <g>
       <use xlink:href="#m15d9b08eff" x="517.159132" y="97" style="stroke: #000000; stroke-width: 0.8"/>
      </g>
     </g>
     <g id="text_9">
      <text style="font: 10px 'Times New Roman'; text-anchor: middle" x="517.159132" y="110.94375" transform="rotate(-0 517.159132 110.94375)">400</text>
     </g>
    </g>
    <g id="text_10">
     <text style="font: 12px 'Times New Roman'; text-anchor: middle" x="287.515" y="125.415312" transform="rotate(-0 287.515 125.415312)">Simulation Run</text>
    </g>
   </g>
   <g id="matplotlib.axis_2">
    <g id="ytick_1">
     <g id="line2d_19">
      <path d="M 35.03 97 
L 540 97 
" clip-path="url(#pcbf7115c72)" style="fill: none; stroke: #b0b0b0; stroke-width: 0.8; stroke-linecap: square"/>
     </g>
     <g id="line2d_20">
      <defs>
       <path id="mb693842ade" d="M 0 0 
L -3.5 0 
" style="stroke: #000000; stroke-width: 0.8"/>
      </defs>
      <g>
       <use xlink:href="#mb693842ade" x="35.03" y="97" style="stroke: #000000; stroke-width: 0.8"/>
      </g>
     </g>
     <g id="text_11">
      <text style="font: 10px 'Times New Roman'; text-anchor: end" x="28.03" y="100.471875" transform="rotate(-0 28.03 100.471875)">0.0</text>
     </g>
    </g>
    <g id="ytick_2">
     <g id="line2d_21">
      <path d="M 35.03 56.583333 
L 540 56.583333 
" clip-path="url(#pcbf7115c72)" style="fill: none; stroke: #b0b0b0; stroke-width: 0.8; stroke-linecap: square"/>
     </g>
     <g id="line2d_22">
      <g>
       <use xlink:href="#mb693842ade" x="35.03" y="56.583333" style="stroke: #000000; stroke-width: 0.8"/>
      </g>
     </g>
     <g id="text_12">
      <text style="font: 10px 'Times New Roman'; text-anchor: end" x="28.03" y="60.055208" transform="rotate(-0 28.03 60.055208)">0.5</text>
     </g>
    </g>
    <g id="ytick_3">
     <g id="line2d_23">
      <path d="M 35.03 16.166667 
L 540 16.166667 
" clip-path="url(#pcbf7115c72)" style="fill: none; stroke: #b0b0b0; stroke-width: 0.8; stroke-linecap: square"/>
     </g>
     <g id="line2d_24">
      <g>
       <use xlink:href="#mb693842ade" x="35.03" y="16.166667" style="stroke: #000000; stroke-width: 0.8"/>
      </g>
     </g>
     <g id="text_13">
      <text style="font: 10px 'Times New Roman'; text-anchor: end" x="28.03" y="19.638542" transform="rotate(-0 28.03 19.638542)">1.0</text>
     </g>
    </g>
    <g id="text_14">
     <text style="font: 12px 'Times New Roman'; text-anchor: middle" x="8.963125" y="48.5" transform="rotate(-90 8.963125 48.5)">Normalized Value</text>
    </g>
   </g>
   <g id="line2d_25">
    <path d="M 35.03 48.631881 
L 38.645968 35.191077 
L 39.851291 29.032998 
L 41.056614 33.996186 
L 42.261937 32.371067 
L 43.46726 31.532028 
L 44.672583 32.662328 
L 45.877905 30.124336 
L 47.083228 29.598559 
L 48.288551 25.727279 
L 49.493874 26.307076 
L 50.699197 24.568531 
L 51.90452 25.282621 
L 54.315165 25.495999 
L 55.520488 24.873494 
L 56.725811 25.110462 
L 57.931134 24.002705 
L 59.136457 24.963093 
L 60.341779 25.678438 
L 61.547102 25.677973 
L 62.752425 26.556522 
L 63.957748 26.744309 
L 66.368394 25.5307 
L 67.573716 25.416572 
L 69.984362 24.489502 
L 71.189685 24.549924 
L 72.395008 24.453559 
L 73.600331 23.659702 
L 76.010976 24.098166 
L 77.216299 23.43982 
L 78.421622 23.161683 
L 79.626945 23.083767 
L 80.832268 23.241193 
L 83.242913 24.306972 
L 84.448236 24.691333 
L 85.653559 25.227161 
L 86.858882 25.044647 
L 90.47485 24.768232 
L 91.680173 24.137638 
L 92.885496 23.143097 
L 94.090819 23.2072 
L 95.296142 21.797397 
L 96.501464 21.810382 
L 97.706787 22.402898 
L 98.91211 22.351223 
L 100.117433 22.520434 
L 101.322756 21.943414 
L 102.528079 21.859705 
L 103.733401 21.559049 
L 104.938724 21.465273 
L 106.144047 21.742907 
L 107.34937 21.171571 
L 109.760016 21.858035 
L 110.965338 21.399306 
L 112.170661 21.294739 
L 113.375984 21.506173 
L 114.581307 21.274359 
L 115.78663 21.159068 
L 116.991953 21.23046 
L 118.197275 21.508623 
L 119.402598 21.206924 
L 121.813244 21.517063 
L 124.223889 21.28839 
L 126.634535 21.596969 
L 127.839858 21.39879 
L 129.045181 21.434638 
L 130.250504 21.223403 
L 131.455826 20.853001 
L 132.661149 20.750529 
L 133.866472 19.228958 
L 135.071795 19.085235 
L 136.277118 19.06628 
L 137.482441 18.475166 
L 141.098409 18.500546 
L 142.303732 18.63252 
L 144.714378 18.383789 
L 145.9197 18.083588 
L 147.125023 17.938082 
L 148.330346 17.922666 
L 151.946315 18.340921 
L 153.151637 17.826172 
L 154.35696 17.446775 
L 155.562283 17.452711 
L 156.767606 17.803274 
L 159.178252 17.96668 
L 162.79422 18.351092 
L 163.999543 18.352046 
L 165.204866 18.507007 
L 167.615511 18.511447 
L 172.436803 19.096657 
L 173.642126 19.037881 
L 176.052771 19.239981 
L 177.258094 19.216719 
L 178.463417 19.479641 
L 179.66874 19.4213 
L 182.079385 19.726861 
L 183.284708 19.382295 
L 185.695354 19.124226 
L 188.106 18.650091 
L 189.311322 18.958073 
L 194.132614 18.538511 
L 197.748582 18.60647 
L 198.953905 18.229539 
L 201.364551 18.202157 
L 206.185842 18.606156 
L 207.391165 18.309164 
L 208.596488 18.462825 
L 209.80181 18.104248 
L 213.417779 18.093409 
L 217.033747 18.377801 
L 218.23907 17.695457 
L 220.649716 17.828472 
L 221.855039 17.411108 
L 224.265684 17.397299 
L 229.086976 17.71166 
L 231.497621 17.760503 
L 232.702944 17.89953 
L 233.908267 17.906492 
L 235.11359 17.680399 
L 248.372141 17.657392 
L 249.577464 17.704421 
L 250.782787 17.34669 
L 254.398755 17.659966 
L 255.604078 17.511492 
L 256.809401 17.504324 
L 258.014724 17.653891 
L 261.630692 17.852243 
L 264.041338 17.975881 
L 266.451984 17.798882 
L 267.657306 17.854831 
L 270.067952 17.298802 
L 271.273275 17.226757 
L 273.683921 17.431667 
L 276.094566 17.39125 
L 279.710535 17.59198 
L 282.12118 17.529596 
L 286.942472 17.603548 
L 289.353117 17.510774 
L 291.763763 17.623147 
L 292.969086 17.403426 
L 296.585054 17.292951 
L 298.9957 17.466651 
L 302.611668 17.139615 
L 309.843605 16.941307 
L 311.048928 16.66905 
L 312.254251 16.738462 
L 317.075542 16.421518 
L 319.486188 16.586511 
L 325.512802 16.850036 
L 327.923448 16.832179 
L 332.744739 17.094675 
L 335.155385 16.740428 
L 338.771353 16.4999 
L 339.976676 16.433073 
L 341.181999 16.534551 
L 342.387322 16.516859 
L 343.592645 16.626584 
L 349.619259 16.492037 
L 350.824582 16.34504 
L 366.493778 16.277231 
L 377.341684 16.049899 
L 378.547007 16.148655 
L 379.75233 16.12176 
L 380.957652 15.916188 
L 383.368298 16.111452 
L 388.189589 16.253452 
L 389.394912 16.229753 
L 393.010881 16.530627 
L 394.216204 16.278901 
L 397.832172 16.342412 
L 400.242818 16.35874 
L 401.448141 16.355283 
L 402.653463 16.469142 
L 403.858786 16.443363 
L 405.064109 16.239747 
L 406.269432 16.331014 
L 411.090723 16.214974 
L 418.32266 16.335384 
L 420.733306 16.377389 
L 421.938629 16.47662 
L 424.349274 16.335578 
L 427.965243 16.397317 
L 432.786534 16.492662 
L 440.018471 16.312031 
L 449.661054 16.540186 
L 450.866377 16.406769 
L 456.892991 16.410826 
L 459.303636 16.519673 
L 461.714282 16.455096 
L 465.330251 16.488444 
L 467.740896 16.398942 
L 471.356865 16.603064 
L 473.76751 16.595988 
L 476.178156 16.611654 
L 482.20477 16.588692 
L 494.257999 16.549398 
L 495.463321 16.44083 
L 508.721873 16.404687 
L 509.927195 16.368096 
L 511.132518 16.109573 
L 514.748487 16.141055 
L 515.95381 16.166667 
L 515.95381 16.166667 
" clip-path="url(#pcbf7115c72)" style="fill: none; stroke: #4169e1; stroke-width: 1.5; stroke-linecap: square"/>
   </g>
   <g id="line2d_26">
    <path d="M 35.03 97 
L 36.235323 93.885891 
L 37.440646 89.211433 
L 38.645968 81.626978 
L 39.851291 61.671377 
L 41.056614 48.859603 
L 43.46726 58.041396 
L 44.672583 60.818371 
L 45.877905 55.634762 
L 47.083228 58.975526 
L 48.288551 37.11491 
L 49.493874 41.108991 
L 50.699197 39.135491 
L 51.90452 41.909245 
L 53.109842 45.301797 
L 54.315165 48.332827 
L 55.520488 50.036369 
L 56.725811 52.354677 
L 57.931134 51.047055 
L 59.136457 50.434565 
L 60.341779 50.919634 
L 61.547102 52.923127 
L 62.752425 52.064363 
L 63.957748 53.733293 
L 65.163071 53.739583 
L 66.368394 54.135837 
L 67.573716 55.613305 
L 68.779039 56.206966 
L 69.984362 56.534093 
L 72.395008 59.003396 
L 73.600331 57.092977 
L 74.805653 58.061423 
L 76.010976 58.886338 
L 77.216299 57.641893 
L 78.421622 58.282793 
L 79.626945 59.267563 
L 80.832268 60.092077 
L 83.242913 58.52781 
L 84.448236 58.524191 
L 85.653559 57.588156 
L 86.858882 58.266406 
L 89.269527 59.928981 
L 90.47485 60.375349 
L 91.680173 58.300801 
L 92.885496 51.882273 
L 94.090819 52.754057 
L 95.296142 38.533525 
L 96.501464 39.656575 
L 97.706787 37.9668 
L 98.91211 39.03852 
L 100.117433 39.857619 
L 101.322756 38.097716 
L 102.528079 39.071513 
L 103.733401 39.287997 
L 104.938724 40.188728 
L 106.144047 40.445111 
L 107.34937 38.398648 
L 108.554693 38.552331 
L 109.760016 38.017878 
L 110.965338 36.92668 
L 112.170661 37.744638 
L 114.581307 38.540381 
L 116.991953 40.048991 
L 118.197275 40.051996 
L 119.402598 39.886706 
L 121.813244 40.932942 
L 123.018567 41.619669 
L 125.429212 42.707627 
L 127.839858 43.166197 
L 129.045181 43.83242 
L 130.250504 43.961826 
L 131.455826 42.950207 
L 132.661149 43.480216 
L 133.866472 15.301609 
L 135.071795 16.013907 
L 136.277118 16.962103 
L 137.482441 13.383473 
L 138.687763 14.336516 
L 139.893086 15.127995 
L 142.303732 16.390307 
L 143.509055 17.190601 
L 144.714378 17.660609 
L 145.9197 17.254907 
L 147.125023 17.804316 
L 148.330346 18.634563 
L 151.946315 20.189292 
L 153.151637 17.022711 
L 154.35696 15.658924 
L 155.562283 16.463746 
L 156.767606 15.368798 
L 159.178252 16.719389 
L 160.383574 17.18502 
L 161.588897 17.887771 
L 162.79422 18.041941 
L 163.999543 18.773019 
L 165.204866 19.096952 
L 167.615511 20.485974 
L 168.820834 20.841458 
L 171.23148 21.808695 
L 172.436803 21.477332 
L 173.642126 22.068072 
L 174.847448 22.405048 
L 177.258094 23.560672 
L 178.463417 22.923711 
L 179.66874 23.473899 
L 180.874063 23.485596 
L 182.079385 23.788251 
L 183.284708 22.1615 
L 184.490031 22.579435 
L 185.695354 22.683753 
L 186.900677 21.808899 
L 188.106 21.641368 
L 189.311322 20.382192 
L 190.516645 20.716309 
L 191.721968 21.298465 
L 192.927291 21.241674 
L 194.132614 21.500525 
L 196.543259 22.580659 
L 197.748582 22.990765 
L 198.953905 20.597312 
L 201.364551 21.687186 
L 203.775196 22.24209 
L 204.980519 22.742579 
L 206.185842 22.785435 
L 207.391165 21.385796 
L 208.596488 21.391048 
L 209.80181 19.078303 
L 212.212456 20.000543 
L 214.623102 20.691419 
L 215.828425 21.195715 
L 217.033747 20.774763 
L 218.23907 10.528202 
L 219.444393 11.042432 
L 220.649716 11.416335 
L 221.855039 7.865654 
L 224.265684 8.94839 
L 225.471007 9.280437 
L 226.67633 9.826044 
L 227.881653 10.215253 
L 229.086976 10.346749 
L 231.497621 11.361088 
L 232.702944 11.398835 
L 233.908267 11.913291 
L 235.11359 11.134461 
L 241.140204 13.56791 
L 242.345527 13.477634 
L 244.756173 14.153191 
L 249.577464 15.830231 
L 250.782787 12.803308 
L 251.98811 12.856171 
L 253.193432 12.243402 
L 254.398755 12.705061 
L 255.604078 12.550692 
L 256.809401 13.005739 
L 258.014724 12.828987 
L 259.220047 13.239904 
L 260.425369 13.145948 
L 262.836015 13.902135 
L 264.041338 14.228437 
L 265.246661 14.252544 
L 267.657306 14.91454 
L 268.862629 13.397225 
L 270.067952 11.168041 
L 271.273275 11.44928 
L 272.478598 11.429353 
L 273.683921 11.657326 
L 276.094566 12.479559 
L 277.299889 12.723492 
L 278.505212 13.125685 
L 279.710535 12.882789 
L 280.915858 13.096447 
L 284.531826 14.255623 
L 288.147794 15.096232 
L 289.353117 15.464066 
L 290.55844 15.50106 
L 291.763763 15.879436 
L 292.969086 14.688175 
L 294.174409 14.914203 
L 296.585054 15.636416 
L 298.9957 15.875368 
L 300.201023 15.68956 
L 301.406346 15.313844 
L 309.843605 17.200735 
L 311.048928 14.970539 
L 312.254251 15.157401 
L 314.664897 15.049038 
L 315.87022 13.989552 
L 317.075542 14.004073 
L 318.280865 14.313939 
L 319.486188 14.050173 
L 324.307479 15.029225 
L 325.512802 14.789153 
L 330.334094 15.683133 
L 331.539416 15.956573 
L 332.744739 15.818847 
L 333.950062 14.285511 
L 335.155385 13.957384 
L 336.360708 13.766227 
L 337.566031 13.17412 
L 338.771353 13.465475 
L 339.976676 13.622809 
L 341.181999 13.552658 
L 342.387322 13.866505 
L 343.592645 13.722032 
L 348.413936 14.886925 
L 349.619259 15.067648 
L 350.824582 14.519639 
L 353.235227 15.032829 
L 358.056519 16.173678 
L 359.261842 16.442439 
L 360.467164 16.469503 
L 365.288456 17.499431 
L 367.699101 18.041699 
L 368.904424 18.128352 
L 371.31507 18.675641 
L 372.520393 17.900014 
L 376.136361 18.497643 
L 377.341684 18.044933 
L 378.547007 17.898996 
L 379.75233 18.143201 
L 380.957652 16.57557 
L 382.162975 16.103329 
L 385.778944 16.485233 
L 389.394912 17.256939 
L 390.600235 17.004257 
L 391.805558 16.481503 
L 393.010881 16.588571 
L 394.216204 13.990555 
L 400.242818 14.742822 
L 401.448141 15.011966 
L 402.653463 14.679585 
L 403.858786 14.916854 
L 405.064109 13.250906 
L 406.269432 13.132425 
L 407.474755 13.272347 
L 408.680078 12.946981 
L 409.8854 13.069834 
L 415.912015 14.288327 
L 417.117337 14.509807 
L 420.733306 14.788279 
L 421.938629 14.563695 
L 423.143952 14.135041 
L 427.965243 14.964775 
L 433.991857 15.896845 
L 435.19718 15.462893 
L 436.402503 15.65036 
L 437.607826 15.512141 
L 440.018471 15.88869 
L 443.63444 16.524323 
L 444.839763 16.352922 
L 447.250408 16.570604 
L 449.661054 16.9354 
L 450.866377 16.234427 
L 456.892991 17.264529 
L 459.303636 17.398678 
L 460.508959 17.343569 
L 462.919605 17.69481 
L 465.330251 17.900306 
L 466.535573 17.934766 
L 467.740896 18.101929 
L 468.946219 17.743245 
L 470.151542 17.919084 
L 471.356865 17.841534 
L 478.588802 18.802031 
L 479.794125 18.434053 
L 480.999447 18.426283 
L 485.820739 19.177456 
L 487.026062 19.2401 
L 489.436707 19.640444 
L 490.64203 19.039746 
L 491.847353 19.030309 
L 494.257999 19.380073 
L 495.463321 18.899123 
L 497.873967 19.239906 
L 499.07929 18.923528 
L 506.311227 19.72907 
L 507.51655 19.440395 
L 509.927195 19.748955 
L 511.132518 15.935896 
L 512.337841 16.115982 
L 513.543164 15.872757 
L 515.95381 16.166667 
L 515.95381 16.166667 
" clip-path="url(#pcbf7115c72)" style="fill: none; stroke-dasharray: 5.55,2.4; stroke-dashoffset: 0; stroke: #4169e1; stroke-width: 1.5"/>
   </g>
   <g id="line2d_27">
    <path d="M 35.03 48.28365 
L 36.235323 44.652012 
L 37.440646 39.593642 
L 38.645968 35.37047 
L 39.851291 29.130063 
L 41.056614 34.10812 
L 42.261937 32.411167 
L 43.46726 30.984683 
L 44.672583 32.080282 
L 45.877905 30.306117 
L 47.083228 29.432795 
L 48.288551 25.950445 
L 49.493874 26.263065 
L 50.699197 24.513953 
L 51.90452 25.214535 
L 53.109842 25.179381 
L 54.315165 25.281976 
L 55.520488 24.35864 
L 56.725811 24.844408 
L 57.931134 23.730086 
L 59.136457 24.79183 
L 60.341779 25.372481 
L 61.547102 25.272847 
L 62.752425 26.247463 
L 63.957748 26.28464 
L 66.368394 24.926704 
L 67.573716 24.854543 
L 69.984362 23.97286 
L 72.395008 24.037355 
L 73.600331 23.081862 
L 76.010976 23.555909 
L 77.216299 22.980444 
L 78.421622 22.684545 
L 79.626945 22.699464 
L 80.832268 22.845712 
L 82.03759 23.245971 
L 85.653559 24.74277 
L 88.064205 24.656631 
L 89.269527 24.699301 
L 90.47485 24.518453 
L 91.680173 24.002084 
L 92.885496 23.174015 
L 94.090819 23.187431 
L 95.296142 21.671236 
L 96.501464 21.675577 
L 97.706787 22.226844 
L 100.117433 22.482915 
L 101.322756 21.953959 
L 102.528079 21.895759 
L 104.938724 21.55675 
L 106.144047 21.845867 
L 107.34937 21.260178 
L 109.760016 21.843507 
L 110.965338 21.425968 
L 112.170661 21.28004 
L 113.375984 21.470159 
L 114.581307 21.156858 
L 115.78663 20.976448 
L 116.991953 20.992981 
L 118.197275 21.233039 
L 119.402598 20.857524 
L 121.813244 21.167467 
L 123.018567 21.067915 
L 125.429212 21.152543 
L 126.634535 21.317627 
L 127.839858 21.178666 
L 129.045181 21.170215 
L 132.661149 20.467497 
L 133.866472 18.995463 
L 135.071795 18.846715 
L 136.277118 18.886585 
L 137.482441 18.285822 
L 141.098409 18.359101 
L 142.303732 18.510682 
L 144.714378 18.379186 
L 147.125023 17.873884 
L 148.330346 17.841733 
L 150.740992 18.059746 
L 151.946315 18.232662 
L 154.35696 17.453316 
L 155.562283 17.450864 
L 156.767606 17.804472 
L 178.463417 19.374615 
L 179.66874 19.27202 
L 182.079385 19.514376 
L 183.284708 19.152352 
L 185.695354 18.928247 
L 188.106 18.482674 
L 189.311322 18.780022 
L 195.337937 18.391925 
L 196.543259 18.372801 
L 197.748582 18.470065 
L 198.953905 18.078028 
L 201.364551 18.03173 
L 206.185842 18.397274 
L 207.391165 18.122959 
L 208.596488 18.299423 
L 209.80181 17.96582 
L 213.417779 17.986533 
L 217.033747 18.216767 
L 218.23907 17.562775 
L 220.649716 17.671767 
L 221.855039 17.291249 
L 224.265684 17.317436 
L 233.908267 17.697777 
L 235.11359 17.46922 
L 241.140204 17.418585 
L 242.345527 17.283431 
L 244.756173 17.448962 
L 248.372141 17.391974 
L 249.577464 17.414799 
L 250.782787 17.06569 
L 254.398755 17.3676 
L 255.604078 17.183743 
L 258.014724 17.332398 
L 260.425369 17.522618 
L 265.246661 17.651987 
L 268.862629 17.425016 
L 270.067952 17.166436 
L 271.273275 17.105871 
L 273.683921 17.316083 
L 276.094566 17.290651 
L 279.710535 17.449678 
L 282.12118 17.381481 
L 285.737149 17.47207 
L 289.353117 17.289123 
L 290.55844 17.402046 
L 291.763763 17.397573 
L 292.969086 17.190371 
L 295.379731 17.094036 
L 297.790377 17.202724 
L 298.9957 17.283729 
L 302.611668 16.923913 
L 306.227637 16.800163 
L 308.638283 16.823609 
L 309.843605 16.755924 
L 311.048928 16.475235 
L 312.254251 16.520526 
L 315.87022 16.149429 
L 320.691511 16.439553 
L 331.539416 16.831743 
L 332.744739 16.963149 
L 335.155385 16.628455 
L 337.566031 16.364734 
L 344.797968 16.487111 
L 349.619259 16.345957 
L 350.824582 16.206105 
L 367.699101 16.123909 
L 370.109747 16.05364 
L 371.31507 16.077298 
L 372.520393 15.950663 
L 376.136361 16.074817 
L 377.341684 15.964706 
L 378.547007 16.060834 
L 379.75233 16.019958 
L 380.957652 15.80725 
L 383.368298 15.984824 
L 388.189589 16.142014 
L 389.394912 16.101448 
L 393.010881 16.418015 
L 394.216204 16.184038 
L 396.626849 16.290273 
L 399.037495 16.237919 
L 402.653463 16.424379 
L 403.858786 16.38207 
L 405.064109 16.195882 
L 406.269432 16.274679 
L 411.090723 16.130078 
L 421.938629 16.419444 
L 424.349274 16.27443 
L 426.75992 16.286644 
L 431.581211 16.406644 
L 433.991857 16.407818 
L 435.19718 16.3054 
L 437.607826 16.269942 
L 443.63444 16.347619 
L 447.250408 16.51995 
L 452.071699 16.421364 
L 455.687668 16.427888 
L 470.151542 16.518562 
L 472.562188 16.564143 
L 478.588802 16.621615 
L 479.794125 16.506816 
L 483.410093 16.565588 
L 489.436707 16.647146 
L 491.847353 16.481915 
L 505.105904 16.416754 
L 506.311227 16.46657 
L 508.721873 16.368812 
L 509.927195 16.339063 
L 511.132518 16.105724 
L 515.95381 16.166667 
L 515.95381 16.166667 
" clip-path="url(#pcbf7115c72)" style="fill: none; stroke: #ff8c00; stroke-width: 1.5; stroke-linecap: square"/>
   </g>
   <g id="line2d_28">
    <path d="M 35.03 97 
L 36.235323 94.844055 
L 37.440646 87.197361 
L 38.645968 80.901579 
L 39.851291 58.65775 
L 41.056614 44.793586 
L 42.261937 49.427263 
L 44.672583 56.359524 
L 45.877905 55.792694 
L 47.083228 58.292058 
L 48.288551 39.712016 
L 49.493874 43.927073 
L 50.699197 41.216528 
L 51.90452 43.812169 
L 53.109842 47.133379 
L 54.315165 50.03918 
L 55.520488 50.278921 
L 56.725811 52.043602 
L 59.136457 48.966638 
L 60.341779 49.992576 
L 61.547102 52.000676 
L 62.752425 50.304339 
L 63.957748 52.166743 
L 66.368394 51.719336 
L 67.573716 53.313519 
L 68.779039 54.024854 
L 69.984362 54.432791 
L 72.395008 57.061406 
L 73.600331 53.49596 
L 74.805653 54.507712 
L 76.010976 55.370934 
L 77.216299 54.632607 
L 78.421622 55.262416 
L 79.626945 56.359427 
L 80.832268 57.268634 
L 82.03759 57.240555 
L 83.242913 56.326343 
L 84.448236 56.103166 
L 85.653559 55.064271 
L 89.269527 57.726741 
L 90.47485 58.31641 
L 91.680173 57.073745 
L 92.885496 52.508262 
L 94.090819 53.396655 
L 95.296142 35.462243 
L 96.501464 36.645504 
L 97.706787 35.201056 
L 100.117433 37.152772 
L 101.322756 35.705913 
L 102.528079 36.75024 
L 103.733401 37.341743 
L 104.938724 38.216574 
L 106.144047 38.390118 
L 107.34937 35.986463 
L 108.554693 36.21602 
L 109.760016 36.217839 
L 110.965338 35.372137 
L 112.170661 36.097471 
L 113.375984 36.636178 
L 114.581307 36.478119 
L 115.78663 37.01167 
L 116.991953 37.878027 
L 118.197275 38.072625 
L 119.402598 37.289028 
L 120.607921 37.68477 
L 123.018567 39.0116 
L 125.429212 40.486916 
L 127.839858 41.358677 
L 129.045181 42.062087 
L 130.250504 42.081979 
L 131.455826 41.343579 
L 132.661149 41.738606 
L 133.866472 13.358689 
L 135.071795 14.05422 
L 136.277118 15.008226 
L 137.482441 10.946776 
L 139.893086 12.857527 
L 143.509055 15.015694 
L 144.714378 15.785729 
L 145.9197 15.294544 
L 147.125023 15.530515 
L 149.535669 17.101119 
L 150.740992 17.645196 
L 151.946315 17.980836 
L 153.151637 15.84179 
L 154.35696 14.657824 
L 155.562283 15.472995 
L 156.767606 14.207852 
L 159.178252 15.479365 
L 160.383574 15.906738 
L 161.588897 16.659304 
L 162.79422 16.973001 
L 163.999543 17.713904 
L 165.204866 18.222454 
L 167.615511 19.532996 
L 168.820834 19.733301 
L 171.23148 20.787632 
L 172.436803 20.728752 
L 173.642126 21.337869 
L 174.847448 21.59585 
L 177.258094 22.802308 
L 178.463417 22.263385 
L 179.66874 22.674569 
L 182.079385 23.297487 
L 183.284708 21.25667 
L 184.490031 21.775409 
L 185.695354 21.859009 
L 186.900677 21.190124 
L 188.106 20.966973 
L 189.311322 19.706374 
L 190.516645 20.141074 
L 191.721968 20.727609 
L 192.927291 20.264699 
L 194.132614 20.459503 
L 196.543259 21.532243 
L 197.748582 21.878383 
L 198.953905 19.009863 
L 201.364551 20.107995 
L 203.775196 20.734752 
L 204.980519 21.256209 
L 206.185842 21.347164 
L 207.391165 20.11352 
L 208.596488 19.910765 
L 209.80181 17.800869 
L 212.212456 18.839211 
L 214.623102 19.702144 
L 215.828425 20.21397 
L 217.033747 19.947431 
L 218.23907 9.823804 
L 220.649716 10.785273 
L 221.855039 7.669209 
L 224.265684 8.740875 
L 227.881653 10.230031 
L 229.086976 10.464896 
L 231.497621 11.464475 
L 232.702944 11.704868 
L 233.908267 12.218587 
L 235.11359 11.30875 
L 238.729558 12.722168 
L 241.140204 13.552734 
L 242.345527 13.521498 
L 244.756173 14.087551 
L 249.577464 15.723444 
L 250.782787 12.60876 
L 251.98811 12.597416 
L 253.193432 11.74819 
L 254.398755 12.175173 
L 255.604078 11.624953 
L 256.809401 12.069509 
L 258.014724 12.054129 
L 259.220047 12.455459 
L 260.425369 12.231075 
L 261.630692 12.584559 
L 262.836015 12.749904 
L 267.657306 13.901927 
L 270.067952 10.646657 
L 271.273275 10.967472 
L 272.478598 10.901811 
L 273.683921 11.097379 
L 278.505212 12.573272 
L 279.710535 12.408058 
L 282.12118 13.128376 
L 285.737149 14.19146 
L 289.353117 14.947263 
L 290.55844 14.890574 
L 291.763763 15.273566 
L 292.969086 14.151822 
L 294.174409 14.337097 
L 296.585054 15.05964 
L 298.9957 15.313683 
L 300.201023 15.03004 
L 301.406346 14.468675 
L 305.022314 15.143956 
L 308.638283 16.172476 
L 309.843605 16.354686 
L 311.048928 13.756016 
L 312.254251 14.039256 
L 314.664897 14.039866 
L 315.87022 13.199422 
L 317.075542 13.229452 
L 318.280865 13.541793 
L 319.486188 13.403441 
L 324.307479 14.369385 
L 325.512802 14.199277 
L 327.923448 14.708739 
L 330.334094 15.131175 
L 331.539416 15.340081 
L 332.744739 14.972145 
L 333.950062 13.343519 
L 335.155385 13.140562 
L 337.566031 12.384357 
L 338.771353 12.662374 
L 339.976676 12.80156 
L 341.181999 12.699681 
L 342.387322 13.027824 
L 343.592645 13.05435 
L 348.413936 14.147324 
L 349.619259 14.289623 
L 350.824582 13.76645 
L 356.851196 15.279686 
L 359.261842 15.792151 
L 360.467164 15.889077 
L 365.288456 16.903392 
L 367.699101 17.40723 
L 368.904424 17.543421 
L 371.31507 18.078147 
L 372.520393 17.624996 
L 376.136361 18.215519 
L 377.341684 17.929078 
L 378.547007 17.775049 
L 379.75233 17.972979 
L 380.957652 16.124711 
L 382.162975 15.663325 
L 386.984267 16.321671 
L 389.394912 16.750691 
L 390.600235 16.551037 
L 391.805558 15.799347 
L 393.010881 15.817413 
L 394.216204 13.4221 
L 396.626849 13.691658 
L 401.448141 14.482135 
L 402.653463 14.157182 
L 403.858786 14.337488 
L 405.064109 12.866173 
L 406.269432 12.825842 
L 407.474755 12.981863 
L 408.680078 12.585269 
L 419.527983 14.496709 
L 420.733306 14.453604 
L 421.938629 14.196689 
L 423.143952 13.63042 
L 426.75992 14.274768 
L 429.170566 14.575 
L 431.581211 14.971762 
L 433.991857 15.407013 
L 435.19718 15.082753 
L 436.402503 15.286013 
L 437.607826 15.311617 
L 440.018471 15.688818 
L 442.429117 16.065292 
L 443.63444 16.285071 
L 444.839763 16.083257 
L 448.455731 16.590942 
L 449.661054 16.63012 
L 450.866377 15.698143 
L 456.892991 16.761225 
L 459.303636 16.988551 
L 460.508959 16.674674 
L 462.919605 17.082772 
L 467.740896 17.479819 
L 468.946219 17.087865 
L 470.151542 17.22162 
L 471.356865 17.101827 
L 478.588802 18.050983 
L 479.794125 17.469414 
L 480.999447 17.516116 
L 485.820739 18.318252 
L 487.026062 18.403061 
L 489.436707 18.809142 
L 490.64203 18.19908 
L 491.847353 18.249777 
L 494.257999 18.604637 
L 495.463321 18.19593 
L 497.873967 18.568339 
L 499.07929 18.370532 
L 506.311227 19.105486 
L 507.51655 18.773484 
L 509.927195 19.109608 
L 511.132518 15.790667 
L 512.337841 15.994942 
L 513.543164 15.85714 
L 515.95381 16.166667 
L 515.95381 16.166667 
" clip-path="url(#pcbf7115c72)" style="fill: none; stroke-dasharray: 5.55,2.4; stroke-dashoffset: 0; stroke: #ff8c00; stroke-width: 1.5"/>
   </g>
   <g id="patch_3">
    <path d="M 35.03 97 
L 35.03 0 
" style="fill: none; stroke: #000000; stroke-width: 0.8; stroke-linejoin: miter; stroke-linecap: square"/>
   </g>
   <g id="patch_4">
    <path d="M 540 97 
L 540 0 
" style="fill: none; stroke: #000000; stroke-width: 0.8; stroke-linejoin: miter; stroke-linecap: square"/>
   </g>
   <g id="patch_5">
    <path d="M 35.03 97 
L 540 97 
" style="fill: none; stroke: #000000; stroke-width: 0.8; stroke-linejoin: miter; stroke-linecap: square"/>
   </g>
   <g id="patch_6">
    <path d="M 35.03 0 
L 540 0 
" style="fill: none; stroke: #000000; stroke-width: 0.8; stroke-linejoin: miter; stroke-linecap: square"/>
   </g>
  </g>
 </g>
 <defs>
  <clipPath id="pcbf7115c72">
   <rect x="35.03" y="0" width="504.97" height="97"/>
  </clipPath>
 </defs>
</svg>
