<?xml version="1.0" encoding="utf-8" standalone="no"?>
<!DOCTYPE svg PUBLIC "-//W3C//DTD SVG 1.1//EN"
  "http://www.w3.org/Graphics/SVG/1.1/DTD/svg11.dtd">
<svg xmlns:xlink="http://www.w3.org/1999/xlink" width="540pt" height="129.6pt" viewBox="0 0 540 129.6" xmlns="http://www.w3.org/2000/svg" version="1.1">
 <metadata>
  <rdf:RDF xmlns:dc="http://purl.org/dc/elements/1.1/" xmlns:cc="http://creativecommons.org/ns#" xmlns:rdf="http://www.w3.org/1999/02/22-rdf-syntax-ns#">
   <cc:Work>
    <dc:type rdf:resource="http://purl.org/dc/dcmitype/StillImage"/>
    <dc:date>2025-03-29T15:04:28.095436</dc:date>
    <dc:format>image/svg+xml</dc:format>
    <dc:creator>
     <cc:Agent>
      <dc:title>Matplotlib v3.8.3, https://matplotlib.org/</dc:title>
     </cc:Agent>
    </dc:creator>
   </cc:Work>
  </rdf:RDF>
 </metadata>
 <defs>
  <style type="text/css">*{stroke-linejoin: round; stroke-linecap: butt}</style>
 </defs>
 <g id="figure_1">
  <g id="patch_1">
   <path d="M 0 129.6 
L 540 129.6 
L 540 0 
L 0 0 
z
" style="fill: #ffffff"/>
  </g>
  <g id="axes_1">
   <g id="patch_2">
    <path d="M 27.56 97 
L 540 97 
L 540 0 
L 27.56 0 
z
" style="fill: #ffffff"/>
   </g>
   <g id="matplotlib.axis_1">
    <g id="xtick_1">
     <g id="line2d_1">
      <path d="M 27.56 97 
L 27.56 0 
" clip-path="url(#pe4e5685ed1)" style="fill: none; stroke: #b0b0b0; stroke-width: 0.8; stroke-linecap: square"/>
     </g>
     <g id="line2d_2">
      <defs>
       <path id="meda56a3b99" d="M 0 0 
L 0 3.5 
" style="stroke: #000000; stroke-width: 0.8"/>
      </defs>
      <g>
       <use xlink:href="#meda56a3b99" x="27.56" y="97" style="stroke: #000000; stroke-width: 0.8"/>
      </g>
     </g>
     <g id="text_1">
      <text style="font: 10px 'Times New Roman'; text-anchor: middle" x="27.56" y="110.94375" transform="rotate(-0 27.56 110.94375)">0</text>
     </g>
    </g>
    <g id="xtick_2">
     <g id="line2d_3">
      <path d="M 88.717656 97 
L 88.717656 0 
" clip-path="url(#pe4e5685ed1)" style="fill: none; stroke: #b0b0b0; stroke-width: 0.8; stroke-linecap: square"/>
     </g>
     <g id="line2d_4">
      <g>
       <use xlink:href="#meda56a3b99" x="88.717656" y="97" style="stroke: #000000; stroke-width: 0.8"/>
      </g>
     </g>
     <g id="text_2">
      <text style="font: 10px 'Times New Roman'; text-anchor: middle" x="88.717656" y="110.94375" transform="rotate(-0 88.717656 110.94375)">50</text>
     </g>
    </g>
    <g id="xtick_3">
     <g id="line2d_5">
      <path d="M 149.875312 97 
L 149.875312 0 
" clip-path="url(#pe4e5685ed1)" style="fill: none; stroke: #b0b0b0; stroke-width: 0.8; stroke-linecap: square"/>
     </g>
     <g id="line2d_6">
      <g>
       <use xlink:href="#meda56a3b99" x="149.875312" y="97" style="stroke: #000000; stroke-width: 0.8"/>
      </g>
     </g>
     <g id="text_3">
      <text style="font: 10px 'Times New Roman'; text-anchor: middle" x="149.875312" y="110.94375" transform="rotate(-0 149.875312 110.94375)">100</text>
     </g>
    </g>
    <g id="xtick_4">
     <g id="line2d_7">
      <path d="M 211.032968 97 
L 211.032968 0 
" clip-path="url(#pe4e5685ed1)" style="fill: none; stroke: #b0b0b0; stroke-width: 0.8; stroke-linecap: square"/>
     </g>
     <g id="line2d_8">
      <g>
       <use xlink:href="#meda56a3b99" x="211.032968" y="97" style="stroke: #000000; stroke-width: 0.8"/>
      </g>
     </g>
     <g id="text_4">
      <text style="font: 10px 'Times New Roman'; text-anchor: middle" x="211.032968" y="110.94375" transform="rotate(-0 211.032968 110.94375)">150</text>
     </g>
    </g>
    <g id="xtick_5">
     <g id="line2d_9">
      <path d="M 272.190624 97 
L 272.190624 0 
" clip-path="url(#pe4e5685ed1)" style="fill: none; stroke: #b0b0b0; stroke-width: 0.8; stroke-linecap: square"/>
     </g>
     <g id="line2d_10">
      <g>
       <use xlink:href="#meda56a3b99" x="272.190624" y="97" style="stroke: #000000; stroke-width: 0.8"/>
      </g>
     </g>
     <g id="text_5">
      <text style="font: 10px 'Times New Roman'; text-anchor: middle" x="272.190624" y="110.94375" transform="rotate(-0 272.190624 110.94375)">200</text>
     </g>
    </g>
    <g id="xtick_6">
     <g id="line2d_11">
      <path d="M 333.34828 97 
L 333.34828 0 
" clip-path="url(#pe4e5685ed1)" style="fill: none; stroke: #b0b0b0; stroke-width: 0.8; stroke-linecap: square"/>
     </g>
     <g id="line2d_12">
      <g>
       <use xlink:href="#meda56a3b99" x="333.34828" y="97" style="stroke: #000000; stroke-width: 0.8"/>
      </g>
     </g>
     <g id="text_6">
      <text style="font: 10px 'Times New Roman'; text-anchor: middle" x="333.34828" y="110.94375" transform="rotate(-0 333.34828 110.94375)">250</text>
     </g>
    </g>
    <g id="xtick_7">
     <g id="line2d_13">
      <path d="M 394.505936 97 
L 394.505936 0 
" clip-path="url(#pe4e5685ed1)" style="fill: none; stroke: #b0b0b0; stroke-width: 0.8; stroke-linecap: square"/>
     </g>
     <g id="line2d_14">
      <g>
       <use xlink:href="#meda56a3b99" x="394.505936" y="97" style="stroke: #000000; stroke-width: 0.8"/>
      </g>
     </g>
     <g id="text_7">
      <text style="font: 10px 'Times New Roman'; text-anchor: middle" x="394.505936" y="110.94375" transform="rotate(-0 394.505936 110.94375)">300</text>
     </g>
    </g>
    <g id="xtick_8">
     <g id="line2d_15">
      <path d="M 455.663592 97 
L 455.663592 0 
" clip-path="url(#pe4e5685ed1)" style="fill: none; stroke: #b0b0b0; stroke-width: 0.8; stroke-linecap: square"/>
     </g>
     <g id="line2d_16">
      <g>
       <use xlink:href="#meda56a3b99" x="455.663592" y="97" style="stroke: #000000; stroke-width: 0.8"/>
      </g>
     </g>
     <g id="text_8">
      <text style="font: 10px 'Times New Roman'; text-anchor: middle" x="455.663592" y="110.94375" transform="rotate(-0 455.663592 110.94375)">350</text>
     </g>
    </g>
    <g id="xtick_9">
     <g id="line2d_17">
      <path d="M 516.821248 97 
L 516.821248 0 
" clip-path="url(#pe4e5685ed1)" style="fill: none; stroke: #b0b0b0; stroke-width: 0.8; stroke-linecap: square"/>
     </g>
     <g id="line2d_18">
      <g>
       <use xlink:href="#meda56a3b99" x="516.821248" y="97" style="stroke: #000000; stroke-width: 0.8"/>
      </g>
     </g>
     <g id="text_9">
      <text style="font: 10px 'Times New Roman'; text-anchor: middle" x="516.821248" y="110.94375" transform="rotate(-0 516.821248 110.94375)">400</text>
     </g>
    </g>
    <g id="text_10">
     <text style="font: 12px 'Times New Roman'; text-anchor: middle" x="283.78" y="125.415312" transform="rotate(-0 283.78 125.415312)">Simulation Run</text>
    </g>
   </g>
   <g id="matplotlib.axis_2">
    <g id="ytick_1">
     <g id="line2d_19">
      <path d="M 27.56 97 
L 540 97 
" clip-path="url(#pe4e5685ed1)" style="fill: none; stroke: #b0b0b0; stroke-width: 0.8; stroke-linecap: square"/>
     </g>
     <g id="line2d_20">
      <defs>
       <path id="m3563f17806" d="M 0 0 
L -3.5 0 
" style="stroke: #000000; stroke-width: 0.8"/>
      </defs>
      <g>
       <use xlink:href="#m3563f17806" x="27.56" y="97" style="stroke: #000000; stroke-width: 0.8"/>
      </g>
     </g>
     <g id="text_11">
      <text style="font: 10px 'Times New Roman'; text-anchor: end" x="20.56" y="100.471875" transform="rotate(-0 20.56 100.471875)">0</text>
     </g>
    </g>
    <g id="ytick_2">
     <g id="line2d_21">
      <path d="M 27.56 59.692308 
L 540 59.692308 
" clip-path="url(#pe4e5685ed1)" style="fill: none; stroke: #b0b0b0; stroke-width: 0.8; stroke-linecap: square"/>
     </g>
     <g id="line2d_22">
      <g>
       <use xlink:href="#m3563f17806" x="27.56" y="59.692308" style="stroke: #000000; stroke-width: 0.8"/>
      </g>
     </g>
     <g id="text_12">
      <text style="font: 10px 'Times New Roman'; text-anchor: end" x="20.56" y="63.164183" transform="rotate(-0 20.56 63.164183)">2</text>
     </g>
    </g>
    <g id="ytick_3">
     <g id="line2d_23">
      <path d="M 27.56 22.384615 
L 540 22.384615 
" clip-path="url(#pe4e5685ed1)" style="fill: none; stroke: #b0b0b0; stroke-width: 0.8; stroke-linecap: square"/>
     </g>
     <g id="line2d_24">
      <g>
       <use xlink:href="#m3563f17806" x="27.56" y="22.384615" style="stroke: #000000; stroke-width: 0.8"/>
      </g>
     </g>
     <g id="text_13">
      <text style="font: 10px 'Times New Roman'; text-anchor: end" x="20.56" y="25.85649" transform="rotate(-0 20.56 25.85649)">4</text>
     </g>
    </g>
    <g id="text_14">
     <text style="font: 12px 'Times New Roman'; text-anchor: middle" x="8.993125" y="48.5" transform="rotate(-90 8.993125 48.5)">Normalized Value</text>
    </g>
   </g>
   <g id="line2d_25">
    <path d="M 27.56 63.527084 
L 28.783153 73.601983 
L 30.006306 75.402369 
L 31.229459 75.301092 
L 32.452612 74.98345 
L 33.675766 75.442739 
L 34.898919 74.850171 
L 36.122072 75.465441 
L 37.345225 76.226454 
L 38.568378 76.658782 
L 39.791531 76.250913 
L 43.460991 77.258867 
L 44.684144 76.948275 
L 47.13045 77.740005 
L 49.576756 77.584112 
L 50.799909 77.255487 
L 52.023062 77.513885 
L 53.246216 77.370672 
L 54.469369 77.542283 
L 56.915675 77.636948 
L 58.138828 77.460965 
L 59.361981 76.996148 
L 64.254594 77.731222 
L 65.477747 77.762045 
L 66.7009 77.937572 
L 67.924053 77.924698 
L 69.147206 78.045434 
L 70.370359 77.812747 
L 76.486125 78.195242 
L 77.709278 78.24549 
L 78.932431 78.011454 
L 81.378737 78.00884 
L 82.60189 78.113944 
L 85.048197 77.946788 
L 86.27135 78.092793 
L 87.494503 77.894232 
L 89.940809 78.055639 
L 91.163962 77.885909 
L 98.502881 77.936959 
L 103.395493 78.113923 
L 105.8418 77.957289 
L 108.288106 77.860666 
L 111.957565 78.101901 
L 113.180718 78.143488 
L 115.627025 78.06092 
L 120.519637 78.116417 
L 124.189097 78.130288 
L 131.528015 78.036872 
L 133.974322 78.020964 
L 135.197475 78.081351 
L 136.420628 77.98588 
L 144.9827 78.085205 
L 147.429006 78.107246 
L 155.991078 78.253178 
L 158.437384 78.194193 
L 163.329996 78.293113 
L 169.445762 78.059616 
L 171.892068 78.168388 
L 173.115221 78.08889 
L 180.45414 78.218372 
L 184.123599 78.12514 
L 186.569906 78.143966 
L 189.016212 78.20167 
L 191.462518 78.18297 
L 195.131978 78.047935 
L 204.917203 78.070641 
L 207.363509 78.041305 
L 209.809815 78.088967 
L 214.702427 78.105381 
L 219.59504 78.209496 
L 222.041346 78.14846 
L 228.157112 78.219192 
L 234.272877 78.221631 
L 239.16549 78.234725 
L 242.834949 78.279422 
L 245.281256 78.29407 
L 266.074859 78.301748 
L 283.199002 78.488576 
L 292.984227 78.466193 
L 295.430533 78.428449 
L 316.224137 78.554105 
L 322.339902 78.53436 
L 346.802965 78.570157 
L 350.472424 78.575813 
L 363.927108 78.670662 
L 368.819721 78.653881 
L 389.613324 78.538947 
L 392.05963 78.508369 
L 405.514314 78.532647 
L 407.960621 78.484232 
L 422.638458 78.449627 
L 429.977377 78.36609 
L 436.093142 78.341258 
L 459.333052 78.315834 
L 467.895124 78.295014 
L 485.019267 78.245895 
L 515.598095 78.346154 
L 515.598095 78.346154 
" clip-path="url(#pe4e5685ed1)" style="fill: none; stroke: #4169e1; stroke-width: 1.5; stroke-linecap: square"/>
   </g>
   <g id="line2d_26">
    <path d="M 27.56 97 
L 28.783153 29.640461 
L 30.006306 47.791555 
L 31.229459 60.073246 
L 32.452612 67.190771 
L 33.675766 71.459038 
L 34.898919 73.709626 
L 36.122072 74.862406 
L 37.345225 74.247512 
L 38.568378 75.406447 
L 41.014684 77.168228 
L 42.237837 78.220809 
L 43.460991 77.981545 
L 44.684144 78.353196 
L 47.13045 77.423844 
L 48.353603 78.50184 
L 49.576756 79.283462 
L 50.799909 78.807623 
L 52.023062 78.787744 
L 53.246216 79.329749 
L 54.469369 79.668057 
L 55.692522 80.386807 
L 56.915675 80.950146 
L 58.138828 81.053639 
L 59.361981 77.916435 
L 60.585134 77.966068 
L 61.808287 78.474114 
L 63.031441 76.691626 
L 64.254594 77.12809 
L 65.477747 77.729543 
L 66.7009 77.659223 
L 67.924053 78.224439 
L 69.147206 78.431979 
L 70.370359 77.690196 
L 72.816665 78.404946 
L 74.039819 78.298635 
L 76.486125 79.133896 
L 77.709278 79.490583 
L 78.932431 78.371151 
L 81.378737 79.158747 
L 82.60189 79.216708 
L 83.825044 79.451737 
L 85.048197 79.513897 
L 86.27135 79.191714 
L 87.494503 78.265837 
L 88.717656 78.258965 
L 89.940809 78.516207 
L 91.163962 77.870847 
L 94.833422 78.830377 
L 98.502881 79.740186 
L 99.726034 79.943081 
L 100.949187 79.717392 
L 103.395493 80.255068 
L 104.618647 79.962344 
L 108.288106 80.44801 
L 109.511259 80.198675 
L 110.734412 80.375924 
L 111.957565 80.176813 
L 113.180718 80.333419 
L 114.403872 80.183002 
L 119.296484 81.03286 
L 126.635403 81.946495 
L 127.858556 81.904891 
L 129.081709 82.067022 
L 130.304862 81.579778 
L 132.751168 81.640045 
L 133.974322 81.779597 
L 135.197475 81.737656 
L 136.420628 81.368912 
L 140.090087 81.761736 
L 141.31324 81.487266 
L 143.759546 81.788167 
L 144.9827 81.714451 
L 146.205853 81.791468 
L 147.429006 81.733318 
L 155.991078 82.366097 
L 157.214231 82.20545 
L 158.437384 82.339847 
L 163.329996 82.173943 
L 164.55315 82.001716 
L 165.776303 82.002715 
L 166.999456 81.732062 
L 169.445762 81.877047 
L 170.668915 81.626488 
L 171.892068 81.63699 
L 173.115221 81.265923 
L 178.007834 81.460866 
L 180.45414 81.664841 
L 181.677293 81.550013 
L 182.900446 81.660818 
L 186.569906 81.459169 
L 187.793059 81.543808 
L 189.016212 81.137737 
L 191.462518 81.208197 
L 192.685671 80.736352 
L 193.908824 79.927996 
L 195.131978 79.84806 
L 197.578284 80.031644 
L 198.801437 79.955268 
L 203.694049 80.375642 
L 204.917203 79.858903 
L 206.140356 79.753121 
L 207.363509 79.836001 
L 208.586662 79.734491 
L 213.479274 80.144048 
L 218.371887 80.159512 
L 219.59504 80.255735 
L 220.818193 79.873586 
L 222.041346 79.975235 
L 224.487652 80.024822 
L 225.710806 80.115888 
L 228.157112 79.597054 
L 229.380265 79.669982 
L 230.603418 79.629472 
L 234.272877 79.794339 
L 235.496031 79.828069 
L 236.719184 79.674913 
L 239.16549 79.868572 
L 240.388643 79.728496 
L 242.834949 79.913016 
L 244.058102 79.863152 
L 245.281256 79.664908 
L 251.397021 80.032777 
L 256.289634 80.191492 
L 257.512787 80.018151 
L 259.959093 80.06544 
L 262.405399 80.143803 
L 268.521165 80.370902 
L 269.744318 80.206318 
L 272.190624 80.276463 
L 274.63693 80.358718 
L 275.860084 80.052853 
L 278.30639 80.161556 
L 279.529543 79.950907 
L 281.975849 79.940861 
L 288.091615 80.222088 
L 289.314768 80.278485 
L 290.537921 79.84181 
L 292.984227 79.947926 
L 294.20738 79.612582 
L 297.87684 79.746937 
L 301.546299 79.589964 
L 308.885218 79.538486 
L 312.554677 79.71146 
L 313.77783 79.542845 
L 316.224137 79.585792 
L 321.116749 79.639929 
L 328.455668 79.941372 
L 335.794586 79.876101 
L 352.91873 79.696957 
L 363.927108 80.121878 
L 366.373414 80.082294 
L 372.48918 80.264102 
L 373.712333 80.013885 
L 381.051252 79.990671 
L 385.943864 80.129102 
L 387.167018 79.842294 
L 389.613324 79.89592 
L 390.836477 79.573555 
L 395.729089 79.575671 
L 401.844855 79.656003 
L 404.291161 79.767973 
L 405.514314 79.507324 
L 406.737467 78.887103 
L 415.299539 79.070739 
L 417.745846 78.909276 
L 420.192152 78.936338 
L 421.415305 78.775934 
L 422.638458 78.832126 
L 425.084764 78.660758 
L 427.531071 78.771955 
L 428.754224 78.682715 
L 433.646836 78.775196 
L 436.093142 78.746247 
L 437.316296 78.791007 
L 438.539449 78.529743 
L 440.985755 78.598762 
L 442.208908 78.491929 
L 466.67197 78.791835 
L 467.895124 78.436822 
L 480.126655 78.622082 
L 487.465573 78.579598 
L 491.135033 78.581675 
L 492.358186 78.430084 
L 498.473952 78.52576 
L 504.589717 78.474951 
L 507.036023 78.428821 
L 509.48233 78.438212 
L 515.598095 78.346154 
L 515.598095 78.346154 
" clip-path="url(#pe4e5685ed1)" style="fill: none; stroke-dasharray: 5.55,2.4; stroke-dashoffset: 0; stroke: #4169e1; stroke-width: 1.5"/>
   </g>
   <g id="line2d_27">
    <path d="M 27.56 62.835943 
L 28.783153 73.487294 
L 30.006306 75.64306 
L 31.229459 75.555158 
L 33.675766 75.881051 
L 34.898919 75.278552 
L 38.568378 76.887885 
L 39.791531 76.53216 
L 42.237837 77.110581 
L 43.460991 77.452421 
L 44.684144 77.236528 
L 47.13045 77.876707 
L 49.576756 77.632787 
L 50.799909 77.319288 
L 52.023062 77.584453 
L 53.246216 77.52324 
L 54.469369 77.631906 
L 55.692522 77.583202 
L 56.915675 77.649471 
L 58.138828 77.534221 
L 59.361981 77.031633 
L 64.254594 77.664118 
L 65.477747 77.707232 
L 66.7009 77.878077 
L 67.924053 77.874106 
L 69.147206 77.988882 
L 70.370359 77.764948 
L 77.709278 78.122103 
L 78.932431 77.942598 
L 80.155584 77.886013 
L 83.825044 77.958933 
L 85.048197 77.861003 
L 86.27135 78.012398 
L 87.494503 77.861449 
L 89.940809 78.019372 
L 91.163962 77.896005 
L 103.395493 78.160314 
L 105.8418 77.960109 
L 108.288106 77.872471 
L 111.957565 78.098288 
L 114.403872 78.028122 
L 121.74279 78.107578 
L 129.081709 78.15995 
L 132.751168 77.944078 
L 143.759546 78.04446 
L 146.205853 77.954189 
L 153.544771 78.176428 
L 164.55315 78.181495 
L 175.561528 78.118642 
L 180.45414 78.195317 
L 184.123599 78.100212 
L 186.569906 78.117644 
L 189.016212 78.178591 
L 191.462518 78.156688 
L 193.908824 77.983888 
L 200.02459 78.117762 
L 203.694049 78.145413 
L 206.140356 78.015096 
L 219.59504 78.158471 
L 222.041346 78.090911 
L 229.380265 78.176124 
L 233.049724 78.156976 
L 256.289634 78.202691 
L 259.959093 78.184654 
L 273.413777 78.336428 
L 277.083237 78.363707 
L 292.984227 78.402927 
L 295.430533 78.373586 
L 316.224137 78.484494 
L 323.563055 78.488854 
L 337.01774 78.61231 
L 345.579811 78.533685 
L 360.257649 78.589983 
L 371.266027 78.584692 
L 414.076386 78.472196 
L 420.192152 78.451957 
L 426.307917 78.383668 
L 466.67197 78.335907 
L 471.564583 78.288063 
L 477.680348 78.275482 
L 489.91188 78.28297 
L 500.920258 78.248743 
L 509.48233 78.282615 
L 515.598095 78.346154 
L 515.598095 78.346154 
" clip-path="url(#pe4e5685ed1)" style="fill: none; stroke: #ff8c00; stroke-width: 1.5; stroke-linecap: square"/>
   </g>
   <g id="line2d_28">
    <path d="M 27.56 97 
L 28.783153 8.816977 
L 30.006306 30.986798 
L 31.229459 47.472081 
L 32.452612 57.333242 
L 33.675766 63.778866 
L 34.898919 66.831807 
L 36.122072 69.038123 
L 37.345225 69.715388 
L 39.791531 72.416346 
L 41.014684 73.951765 
L 42.237837 74.687793 
L 43.460991 75.100756 
L 44.684144 76.053502 
L 45.907297 75.860701 
L 47.13045 76.120374 
L 48.353603 77.159632 
L 49.576756 77.896008 
L 50.799909 77.399754 
L 52.023062 77.240053 
L 53.246216 78.077071 
L 56.915675 80.039421 
L 58.138828 80.433648 
L 59.361981 75.942478 
L 60.585134 76.056578 
L 61.808287 76.682959 
L 63.031441 74.970817 
L 65.477747 76.203833 
L 66.7009 76.108036 
L 67.924053 76.722101 
L 69.147206 76.953332 
L 70.370359 76.145973 
L 72.816665 77.006051 
L 74.039819 76.863464 
L 76.486125 77.802633 
L 77.709278 78.216083 
L 78.932431 77.601006 
L 81.378737 78.230194 
L 83.825044 78.683651 
L 85.048197 78.71489 
L 87.494503 77.740421 
L 88.717656 77.617283 
L 89.940809 77.91185 
L 91.163962 77.65686 
L 93.610269 78.219966 
L 99.726034 79.555326 
L 100.949187 79.182238 
L 103.395493 79.743906 
L 104.618647 79.115086 
L 105.8418 79.181668 
L 108.288106 79.516205 
L 109.511259 79.308954 
L 110.734412 79.433324 
L 111.957565 79.328832 
L 113.180718 79.556994 
L 114.403872 79.355382 
L 119.296484 80.257874 
L 126.635403 81.176771 
L 127.858556 81.166688 
L 129.081709 81.311575 
L 130.304862 80.77445 
L 131.528015 80.813097 
L 132.751168 80.733131 
L 133.974322 80.899459 
L 135.197475 80.922905 
L 136.420628 80.676677 
L 140.090087 81.143148 
L 141.31324 80.884943 
L 143.759546 81.201462 
L 147.429006 81.161575 
L 152.321618 81.499116 
L 153.544771 81.431487 
L 155.991078 81.709963 
L 157.214231 81.629321 
L 158.437384 81.766435 
L 164.55315 81.505703 
L 165.776303 81.623664 
L 166.999456 81.463598 
L 169.445762 81.582286 
L 170.668915 81.358058 
L 171.892068 81.345808 
L 173.115221 80.949174 
L 180.45414 81.412014 
L 181.677293 81.250328 
L 182.900446 81.365708 
L 185.346753 81.151981 
L 187.793059 81.286469 
L 189.016212 80.793254 
L 190.239365 80.873608 
L 191.462518 80.811785 
L 192.685671 80.209292 
L 193.908824 79.477934 
L 195.131978 79.352451 
L 202.470896 79.682926 
L 203.694049 79.797098 
L 204.917203 79.264754 
L 206.140356 79.049995 
L 207.363509 79.146418 
L 208.586662 79.035026 
L 213.479274 79.409107 
L 219.59504 79.55713 
L 220.818193 78.889465 
L 223.264499 78.997568 
L 225.710806 79.169843 
L 226.933959 78.846173 
L 228.157112 78.695467 
L 231.826571 78.789837 
L 233.049724 78.77145 
L 235.496031 78.894642 
L 236.719184 78.745869 
L 239.16549 78.948259 
L 240.388643 78.829046 
L 242.834949 79.025991 
L 245.281256 78.766466 
L 251.397021 79.156566 
L 255.06648 79.366686 
L 257.512787 79.129974 
L 259.959093 79.188354 
L 264.851705 79.391067 
L 266.074859 79.460945 
L 272.190624 79.319718 
L 274.63693 79.347579 
L 275.860084 79.0705 
L 278.30639 79.228953 
L 279.529543 79.024161 
L 281.975849 78.987839 
L 286.868462 79.223993 
L 289.314768 79.378746 
L 290.537921 78.957166 
L 292.984227 79.06695 
L 294.20738 78.763156 
L 299.099993 78.844213 
L 300.323146 78.699655 
L 301.546299 78.772272 
L 302.769452 78.690198 
L 305.215758 78.703362 
L 306.438912 78.541129 
L 315.000983 78.799343 
L 319.893596 78.79639 
L 326.009361 79.034521 
L 333.34828 78.972457 
L 339.464046 78.938538 
L 341.910352 79.011133 
L 343.133505 78.953883 
L 344.356658 79.008193 
L 345.579811 78.884054 
L 346.802965 78.94924 
L 349.249271 78.878712 
L 351.695577 78.970963 
L 354.141883 78.997963 
L 363.927108 79.38313 
L 370.042874 79.534152 
L 372.48918 79.623404 
L 373.712333 79.397028 
L 374.935486 79.414031 
L 377.381793 79.326153 
L 385.943864 79.619808 
L 387.167018 79.312553 
L 389.613324 79.363801 
L 390.836477 79.047287 
L 396.952243 79.076273 
L 399.398549 79.03326 
L 404.291161 79.259002 
L 405.514314 79.118424 
L 406.737467 78.696838 
L 414.076386 78.9305 
L 415.299539 78.911998 
L 417.745846 78.747199 
L 420.192152 78.819958 
L 421.415305 78.627396 
L 422.638458 78.682308 
L 425.084764 78.571379 
L 431.20053 78.73557 
L 437.316296 78.854142 
L 438.539449 78.703702 
L 444.655214 78.812684 
L 448.324674 78.844907 
L 451.994133 78.842105 
L 455.663592 78.840974 
L 460.556205 78.896716 
L 464.225664 79.028158 
L 466.67197 78.887608 
L 467.895124 78.509421 
L 480.126655 78.708068 
L 487.465573 78.640169 
L 491.135033 78.693537 
L 492.358186 78.433008 
L 497.250798 78.476367 
L 503.366564 78.436731 
L 507.036023 78.341903 
L 510.705483 78.386174 
L 515.598095 78.346154 
L 515.598095 78.346154 
" clip-path="url(#pe4e5685ed1)" style="fill: none; stroke-dasharray: 5.55,2.4; stroke-dashoffset: 0; stroke: #ff8c00; stroke-width: 1.5"/>
   </g>
   <g id="patch_3">
    <path d="M 27.56 97 
L 27.56 0 
" style="fill: none; stroke: #000000; stroke-width: 0.8; stroke-linejoin: miter; stroke-linecap: square"/>
   </g>
   <g id="patch_4">
    <path d="M 540 97 
L 540 0 
" style="fill: none; stroke: #000000; stroke-width: 0.8; stroke-linejoin: miter; stroke-linecap: square"/>
   </g>
   <g id="patch_5">
    <path d="M 27.56 97 
L 540 97 
" style="fill: none; stroke: #000000; stroke-width: 0.8; stroke-linejoin: miter; stroke-linecap: square"/>
   </g>
   <g id="patch_6">
    <path d="M 27.56 0 
L 540 0 
" style="fill: none; stroke: #000000; stroke-width: 0.8; stroke-linejoin: miter; stroke-linecap: square"/>
   </g>
  </g>
 </g>
 <defs>
  <clipPath id="pe4e5685ed1">
   <rect x="27.56" y="0" width="512.44" height="97"/>
  </clipPath>
 </defs>
</svg>
