<?xml version="1.0" encoding="utf-8" standalone="no"?>
<!DOCTYPE svg PUBLIC "-//W3C//DTD SVG 1.1//EN"
  "http://www.w3.org/Graphics/SVG/1.1/DTD/svg11.dtd">
<svg xmlns:xlink="http://www.w3.org/1999/xlink" width="540pt" height="129.6pt" viewBox="0 0 540 129.6" xmlns="http://www.w3.org/2000/svg" version="1.1">
 <metadata>
  <rdf:RDF xmlns:dc="http://purl.org/dc/elements/1.1/" xmlns:cc="http://creativecommons.org/ns#" xmlns:rdf="http://www.w3.org/1999/02/22-rdf-syntax-ns#">
   <cc:Work>
    <dc:type rdf:resource="http://purl.org/dc/dcmitype/StillImage"/>
    <dc:date>2025-04-06T04:52:09.861155</dc:date>
    <dc:format>image/svg+xml</dc:format>
    <dc:creator>
     <cc:Agent>
      <dc:title>Matplotlib v3.10.1, https://matplotlib.org/</dc:title>
     </cc:Agent>
    </dc:creator>
   </cc:Work>
  </rdf:RDF>
 </metadata>
 <defs>
  <style type="text/css">*{stroke-linejoin: round; stroke-linecap: butt}</style>
 </defs>
 <g id="figure_1">
  <g id="patch_1">
   <path d="M 0 129.6 
L 540 129.6 
L 540 0 
L 0 0 
z
" style="fill: #ffffff"/>
  </g>
  <g id="axes_1">
   <g id="patch_2">
    <path d="M 34.31 98.44 
L 540 98.44 
L 540 3.6 
L 34.31 3.6 
z
" style="fill: #ffffff"/>
   </g>
   <g id="matplotlib.axis_1">
    <g id="xtick_1">
     <g id="line2d_1">
      <path d="M 34.31 98.44 
L 34.31 3.6 
" clip-path="url(#p7e4c80480f)" style="fill: none; stroke: #b0b0b0; stroke-width: 0.8; stroke-linecap: square"/>
     </g>
     <g id="line2d_2">
      <defs>
       <path id="me7ffd84fb0" d="M 0 0 
L 0 3.5 
" style="stroke: #000000; stroke-width: 0.8"/>
      </defs>
      <g>
       <use xlink:href="#me7ffd84fb0" x="34.31" y="98.44" style="stroke: #000000; stroke-width: 0.8"/>
      </g>
     </g>
     <g id="text_1">
      <text style="font-size: 10px; font-family: 'Times New Roman'; text-anchor: middle" x="34.31" y="112.38375" transform="rotate(-0 34.31 112.38375)">0</text>
     </g>
    </g>
    <g id="xtick_2">
     <g id="line2d_3">
      <path d="M 94.662071 98.44 
L 94.662071 3.6 
" clip-path="url(#p7e4c80480f)" style="fill: none; stroke: #b0b0b0; stroke-width: 0.8; stroke-linecap: square"/>
     </g>
     <g id="line2d_4">
      <g>
       <use xlink:href="#me7ffd84fb0" x="94.662071" y="98.44" style="stroke: #000000; stroke-width: 0.8"/>
      </g>
     </g>
     <g id="text_2">
      <text style="font-size: 10px; font-family: 'Times New Roman'; text-anchor: middle" x="94.662071" y="112.38375" transform="rotate(-0 94.662071 112.38375)">50</text>
     </g>
    </g>
    <g id="xtick_3">
     <g id="line2d_5">
      <path d="M 155.014141 98.44 
L 155.014141 3.6 
" clip-path="url(#p7e4c80480f)" style="fill: none; stroke: #b0b0b0; stroke-width: 0.8; stroke-linecap: square"/>
     </g>
     <g id="line2d_6">
      <g>
       <use xlink:href="#me7ffd84fb0" x="155.014141" y="98.44" style="stroke: #000000; stroke-width: 0.8"/>
      </g>
     </g>
     <g id="text_3">
      <text style="font-size: 10px; font-family: 'Times New Roman'; text-anchor: middle" x="155.014141" y="112.38375" transform="rotate(-0 155.014141 112.38375)">100</text>
     </g>
    </g>
    <g id="xtick_4">
     <g id="line2d_7">
      <path d="M 215.366212 98.44 
L 215.366212 3.6 
" clip-path="url(#p7e4c80480f)" style="fill: none; stroke: #b0b0b0; stroke-width: 0.8; stroke-linecap: square"/>
     </g>
     <g id="line2d_8">
      <g>
       <use xlink:href="#me7ffd84fb0" x="215.366212" y="98.44" style="stroke: #000000; stroke-width: 0.8"/>
      </g>
     </g>
     <g id="text_4">
      <text style="font-size: 10px; font-family: 'Times New Roman'; text-anchor: middle" x="215.366212" y="112.38375" transform="rotate(-0 215.366212 112.38375)">150</text>
     </g>
    </g>
    <g id="xtick_5">
     <g id="line2d_9">
      <path d="M 275.718283 98.44 
L 275.718283 3.6 
" clip-path="url(#p7e4c80480f)" style="fill: none; stroke: #b0b0b0; stroke-width: 0.8; stroke-linecap: square"/>
     </g>
     <g id="line2d_10">
      <g>
       <use xlink:href="#me7ffd84fb0" x="275.718283" y="98.44" style="stroke: #000000; stroke-width: 0.8"/>
      </g>
     </g>
     <g id="text_5">
      <text style="font-size: 10px; font-family: 'Times New Roman'; text-anchor: middle" x="275.718283" y="112.38375" transform="rotate(-0 275.718283 112.38375)">200</text>
     </g>
    </g>
    <g id="xtick_6">
     <g id="line2d_11">
      <path d="M 336.070353 98.44 
L 336.070353 3.6 
" clip-path="url(#p7e4c80480f)" style="fill: none; stroke: #b0b0b0; stroke-width: 0.8; stroke-linecap: square"/>
     </g>
     <g id="line2d_12">
      <g>
       <use xlink:href="#me7ffd84fb0" x="336.070353" y="98.44" style="stroke: #000000; stroke-width: 0.8"/>
      </g>
     </g>
     <g id="text_6">
      <text style="font-size: 10px; font-family: 'Times New Roman'; text-anchor: middle" x="336.070353" y="112.38375" transform="rotate(-0 336.070353 112.38375)">250</text>
     </g>
    </g>
    <g id="xtick_7">
     <g id="line2d_13">
      <path d="M 396.422424 98.44 
L 396.422424 3.6 
" clip-path="url(#p7e4c80480f)" style="fill: none; stroke: #b0b0b0; stroke-width: 0.8; stroke-linecap: square"/>
     </g>
     <g id="line2d_14">
      <g>
       <use xlink:href="#me7ffd84fb0" x="396.422424" y="98.44" style="stroke: #000000; stroke-width: 0.8"/>
      </g>
     </g>
     <g id="text_7">
      <text style="font-size: 10px; font-family: 'Times New Roman'; text-anchor: middle" x="396.422424" y="112.38375" transform="rotate(-0 396.422424 112.38375)">300</text>
     </g>
    </g>
    <g id="xtick_8">
     <g id="line2d_15">
      <path d="M 456.774495 98.44 
L 456.774495 3.6 
" clip-path="url(#p7e4c80480f)" style="fill: none; stroke: #b0b0b0; stroke-width: 0.8; stroke-linecap: square"/>
     </g>
     <g id="line2d_16">
      <g>
       <use xlink:href="#me7ffd84fb0" x="456.774495" y="98.44" style="stroke: #000000; stroke-width: 0.8"/>
      </g>
     </g>
     <g id="text_8">
      <text style="font-size: 10px; font-family: 'Times New Roman'; text-anchor: middle" x="456.774495" y="112.38375" transform="rotate(-0 456.774495 112.38375)">350</text>
     </g>
    </g>
    <g id="xtick_9">
     <g id="line2d_17">
      <path d="M 517.126565 98.44 
L 517.126565 3.6 
" clip-path="url(#p7e4c80480f)" style="fill: none; stroke: #b0b0b0; stroke-width: 0.8; stroke-linecap: square"/>
     </g>
     <g id="line2d_18">
      <g>
       <use xlink:href="#me7ffd84fb0" x="517.126565" y="98.44" style="stroke: #000000; stroke-width: 0.8"/>
      </g>
     </g>
     <g id="text_9">
      <text style="font-size: 10px; font-family: 'Times New Roman'; text-anchor: middle" x="517.126565" y="112.38375" transform="rotate(-0 517.126565 112.38375)">400</text>
     </g>
    </g>
    <g id="text_10">
     <text style="font-size: 12px; font-family: 'Times New Roman'; text-anchor: middle" x="287.155" y="126.855312" transform="rotate(-0 287.155 126.855312)">Simulation Run</text>
    </g>
   </g>
   <g id="matplotlib.axis_2">
    <g id="ytick_1">
     <g id="line2d_19">
      <path d="M 34.31 98.44 
L 540 98.44 
" clip-path="url(#p7e4c80480f)" style="fill: none; stroke: #b0b0b0; stroke-width: 0.8; stroke-linecap: square"/>
     </g>
     <g id="line2d_20">
      <defs>
       <path id="mbaea9ba47a" d="M 0 0 
L -3.5 0 
" style="stroke: #000000; stroke-width: 0.8"/>
      </defs>
      <g>
       <use xlink:href="#mbaea9ba47a" x="34.31" y="98.44" style="stroke: #000000; stroke-width: 0.8"/>
      </g>
     </g>
     <g id="text_11">
      <text style="font-size: 10px; font-family: 'Times New Roman'; text-anchor: end" x="27.31" y="101.911875" transform="rotate(-0 27.31 101.911875)">0.0</text>
     </g>
    </g>
    <g id="ytick_2">
     <g id="line2d_21">
      <path d="M 34.31 74.73 
L 540 74.73 
" clip-path="url(#p7e4c80480f)" style="fill: none; stroke: #b0b0b0; stroke-width: 0.8; stroke-linecap: square"/>
     </g>
     <g id="line2d_22">
      <g>
       <use xlink:href="#mbaea9ba47a" x="34.31" y="74.73" style="stroke: #000000; stroke-width: 0.8"/>
      </g>
     </g>
     <g id="text_12">
      <text style="font-size: 10px; font-family: 'Times New Roman'; text-anchor: end" x="27.31" y="78.201875" transform="rotate(-0 27.31 78.201875)">0.5</text>
     </g>
    </g>
    <g id="ytick_3">
     <g id="line2d_23">
      <path d="M 34.31 51.02 
L 540 51.02 
" clip-path="url(#p7e4c80480f)" style="fill: none; stroke: #b0b0b0; stroke-width: 0.8; stroke-linecap: square"/>
     </g>
     <g id="line2d_24">
      <g>
       <use xlink:href="#mbaea9ba47a" x="34.31" y="51.02" style="stroke: #000000; stroke-width: 0.8"/>
      </g>
     </g>
     <g id="text_13">
      <text style="font-size: 10px; font-family: 'Times New Roman'; text-anchor: end" x="27.31" y="54.491875" transform="rotate(-0 27.31 54.491875)">1.0</text>
     </g>
    </g>
    <g id="ytick_4">
     <g id="line2d_25">
      <path d="M 34.31 27.31 
L 540 27.31 
" clip-path="url(#p7e4c80480f)" style="fill: none; stroke: #b0b0b0; stroke-width: 0.8; stroke-linecap: square"/>
     </g>
     <g id="line2d_26">
      <g>
       <use xlink:href="#mbaea9ba47a" x="34.31" y="27.31" style="stroke: #000000; stroke-width: 0.8"/>
      </g>
     </g>
     <g id="text_14">
      <text style="font-size: 10px; font-family: 'Times New Roman'; text-anchor: end" x="27.31" y="30.781875" transform="rotate(-0 27.31 30.781875)">1.5</text>
     </g>
    </g>
    <g id="ytick_5">
     <g id="line2d_27">
      <path d="M 34.31 3.6 
L 540 3.6 
" clip-path="url(#p7e4c80480f)" style="fill: none; stroke: #b0b0b0; stroke-width: 0.8; stroke-linecap: square"/>
     </g>
     <g id="line2d_28">
      <g>
       <use xlink:href="#mbaea9ba47a" x="34.31" y="3.6" style="stroke: #000000; stroke-width: 0.8"/>
      </g>
     </g>
     <g id="text_15">
      <text style="font-size: 10px; font-family: 'Times New Roman'; text-anchor: end" x="27.31" y="7.071875" transform="rotate(-0 27.31 7.071875)">2.0</text>
     </g>
    </g>
    <g id="text_16">
     <text style="font-size: 12px; font-family: 'Times New Roman'; text-anchor: middle" x="8.243125" y="51.02" transform="rotate(-90 8.243125 51.02)">Normalized Value</text>
    </g>
   </g>
   <g id="line2d_29">
    <path d="M 34.31 56.609294 
L 35.517041 45.831996 
L 36.724083 48.400579 
L 37.931124 53.097149 
L 39.138166 50.570775 
L 40.345207 50.857044 
L 41.552248 49.825194 
L 43.966331 52.119808 
L 45.173373 51.757282 
L 46.380414 50.807353 
L 47.587456 51.534125 
L 48.794497 52.104075 
L 50.001538 52.057883 
L 51.20858 52.153547 
L 52.415621 51.259319 
L 53.622663 52.62935 
L 54.829704 52.300197 
L 56.036745 51.704052 
L 57.243787 52.0019 
L 58.450828 51.988049 
L 60.864911 51.358883 
L 63.278994 51.739275 
L 64.486035 51.613044 
L 65.693077 50.313995 
L 66.900118 50.497377 
L 68.10716 49.96071 
L 69.314201 50.590304 
L 70.521242 50.498778 
L 71.728284 51.349285 
L 74.142367 51.175679 
L 75.349408 51.419065 
L 76.556449 51.158904 
L 78.970532 51.634191 
L 81.384615 51.287083 
L 82.591657 50.540197 
L 83.798698 50.478632 
L 85.005739 50.743158 
L 86.212781 50.242128 
L 87.419822 50.527859 
L 88.626864 50.584061 
L 89.833905 50.836214 
L 91.040946 51.345856 
L 93.455029 50.692653 
L 95.869112 50.803503 
L 99.490236 50.864044 
L 100.697278 50.935573 
L 101.904319 50.863006 
L 105.525443 50.947414 
L 106.732485 50.903835 
L 107.939526 51.138229 
L 110.353609 51.312681 
L 111.56065 51.665031 
L 112.767692 51.789238 
L 113.974733 52.089258 
L 115.181775 51.920298 
L 116.388816 51.973161 
L 117.595858 51.845075 
L 118.802899 52.018909 
L 120.00994 51.959658 
L 122.424023 52.060189 
L 123.631065 51.940064 
L 126.045147 52.297071 
L 128.45923 52.242619 
L 129.666272 52.495487 
L 138.115562 52.770331 
L 139.322603 52.635267 
L 141.736686 52.558225 
L 144.150769 52.440155 
L 145.35781 50.707796 
L 152.600058 51.037104 
L 153.8071 51.21893 
L 155.014141 51.134313 
L 158.635266 51.426127 
L 159.842307 51.270598 
L 162.25639 51.417228 
L 168.291597 51.573497 
L 171.912721 51.856932 
L 175.533845 51.824619 
L 180.362011 52.124496 
L 181.569052 52.147442 
L 182.776094 52.029731 
L 187.604259 52.096384 
L 190.018342 52.13321 
L 192.432425 51.867645 
L 193.639467 51.825132 
L 194.846508 51.506875 
L 200.881715 51.085499 
L 203.295798 51.196945 
L 204.502839 51.155664 
L 205.709881 51.237805 
L 208.123963 51.232831 
L 210.538046 51.42154 
L 215.366212 51.426983 
L 216.573253 51.61687 
L 220.194378 51.646982 
L 222.60846 51.564268 
L 238.299999 51.898051 
L 239.50704 51.808304 
L 241.921123 51.855936 
L 245.542247 51.659432 
L 252.784496 51.575108 
L 257.612661 51.265245 
L 260.026744 51.392274 
L 262.440827 51.210712 
L 263.647868 51.287147 
L 264.85491 51.193949 
L 269.683076 51.290195 
L 270.890117 51.202076 
L 273.3042 51.275563 
L 275.718283 51.121467 
L 279.339407 51.228139 
L 280.546448 51.324044 
L 282.960531 51.311627 
L 286.581655 51.363767 
L 287.788697 51.311962 
L 292.616862 51.566239 
L 297.445028 51.582252 
L 302.273194 51.723857 
L 303.480235 51.6253 
L 304.687277 51.67208 
L 305.894318 51.537241 
L 311.929525 51.459272 
L 315.550649 51.385778 
L 322.792898 51.624063 
L 323.999939 51.495228 
L 327.621063 51.55818 
L 330.035146 51.616393 
L 336.070353 51.432284 
L 338.484436 51.546938 
L 340.898519 51.567282 
L 345.726685 51.546562 
L 348.140767 51.398555 
L 350.55485 51.418726 
L 354.175974 51.427931 
L 374.695678 51.104968 
L 375.90272 50.975064 
L 384.35201 51.239445 
L 387.973134 51.203587 
L 390.387217 51.243252 
L 391.594258 51.168179 
L 394.008341 51.202952 
L 403.664672 51.140105 
L 404.871714 51.199876 
L 407.285797 51.115486 
L 412.113962 51.105625 
L 416.942128 51.236809 
L 431.426625 50.918798 
L 435.047749 50.942877 
L 438.668873 50.906218 
L 447.118163 51.066024 
L 456.774495 51.070278 
L 478.50124 51.095247 
L 494.192778 50.911951 
L 515.919524 51.02 
L 515.919524 51.02 
" clip-path="url(#p7e4c80480f)" style="fill: none; stroke: #4169e1; stroke-width: 1.5; stroke-linecap: square"/>
   </g>
   <g id="line2d_30">
    <path d="M 34.31 98.44 
L 35.517041 73.378868 
L 36.724083 78.885509 
L 37.931124 69.496247 
L 39.138166 69.776461 
L 40.345207 74.465308 
L 41.552248 76.511896 
L 42.75929 77.272245 
L 43.966331 77.34359 
L 45.173373 79.198019 
L 46.380414 79.000303 
L 47.587456 79.366646 
L 48.794497 79.992751 
L 50.001538 81.304427 
L 51.20858 82.419154 
L 52.415621 80.83243 
L 53.622663 75.38837 
L 54.829704 76.271619 
L 56.036745 76.058129 
L 57.243787 76.81354 
L 58.450828 77.842544 
L 59.65787 78.375197 
L 60.864911 78.728406 
L 63.278994 79.933015 
L 64.486035 80.558871 
L 65.693077 71.754283 
L 66.900118 72.511432 
L 68.10716 71.665521 
L 69.314201 70.077734 
L 70.521242 70.938422 
L 71.728284 66.959479 
L 72.935325 67.903277 
L 74.142367 68.671167 
L 77.763491 69.82198 
L 78.970532 70.0285 
L 81.384615 70.954092 
L 82.591657 66.809993 
L 83.798698 67.529559 
L 85.005739 67.614292 
L 86.212781 65.985834 
L 87.419822 65.931955 
L 88.626864 66.607983 
L 89.833905 66.654202 
L 91.040946 64.682451 
L 92.247988 63.987804 
L 93.455029 63.801746 
L 95.869112 65.017628 
L 98.283195 66.208154 
L 100.697278 67.126248 
L 104.318402 68.474588 
L 106.732485 69.348738 
L 107.939526 69.094842 
L 110.353609 69.792802 
L 111.56065 68.519143 
L 112.767692 68.756124 
L 113.974733 67.917351 
L 115.181775 67.953525 
L 116.388816 68.354358 
L 117.595858 68.539905 
L 118.802899 68.504632 
L 122.424023 69.52049 
L 123.631065 69.675687 
L 124.838106 69.281204 
L 126.045147 69.34555 
L 128.45923 70.026185 
L 129.666272 69.291431 
L 132.080354 69.845518 
L 133.287396 70.08445 
L 134.494437 69.695247 
L 138.115562 70.428123 
L 139.322603 70.404003 
L 141.736686 70.938873 
L 142.943727 71.028895 
L 144.150769 71.323243 
L 145.35781 12.042485 
L 146.564851 12.919999 
L 151.393017 15.631875 
L 152.600058 16.224112 
L 153.8071 16.34007 
L 156.221183 17.579742 
L 157.428224 17.553002 
L 158.635266 18.330762 
L 159.842307 18.550913 
L 161.049348 19.045367 
L 164.670473 21.061933 
L 167.084555 22.155477 
L 168.291597 22.757655 
L 169.498638 23.095872 
L 170.70568 23.179985 
L 173.119763 24.445228 
L 175.533845 25.516415 
L 176.740887 25.920316 
L 177.947928 25.767972 
L 180.362011 26.821807 
L 181.569052 27.390208 
L 182.776094 27.595462 
L 186.397218 29.046477 
L 190.018342 30.556484 
L 191.225384 30.50623 
L 192.432425 30.591818 
L 193.639467 31.050479 
L 194.846508 28.646762 
L 197.260591 29.297529 
L 198.467632 29.801797 
L 199.674674 30.176988 
L 200.881715 29.56896 
L 202.088756 29.88335 
L 204.502839 30.761382 
L 205.709881 31.027936 
L 208.123963 31.905862 
L 209.331005 31.857708 
L 211.745088 32.631882 
L 215.366212 33.930571 
L 216.573253 33.180214 
L 220.194378 34.384471 
L 221.401419 34.590065 
L 223.815502 35.366379 
L 225.022543 35.328075 
L 227.436626 35.954356 
L 228.643668 36.081883 
L 233.471833 37.531176 
L 234.678875 37.59012 
L 238.299999 38.652915 
L 240.714082 38.851573 
L 241.921123 39.169933 
L 243.128164 39.162734 
L 244.335206 39.49585 
L 245.542247 39.540041 
L 247.95633 40.19931 
L 250.370413 40.610523 
L 251.577454 40.24081 
L 252.784496 40.439785 
L 253.991537 40.495371 
L 255.198579 40.810153 
L 256.40562 40.855754 
L 257.612661 40.287611 
L 258.819703 40.488408 
L 260.026744 40.571923 
L 262.440827 40.50979 
L 263.647868 40.573584 
L 264.85491 40.517014 
L 266.061951 40.78922 
L 272.097158 41.361993 
L 273.3042 41.612127 
L 274.511241 41.407788 
L 279.339407 42.205853 
L 280.546448 42.075317 
L 285.374614 42.918874 
L 292.616862 43.422589 
L 293.823904 43.669659 
L 295.030945 43.756669 
L 299.859111 44.603527 
L 301.066152 44.62091 
L 302.273194 44.848768 
L 303.480235 44.620651 
L 304.687277 44.754081 
L 305.894318 44.108964 
L 307.101359 44.347939 
L 308.308401 44.19185 
L 311.929525 44.877002 
L 316.757691 45.285502 
L 317.964732 45.508789 
L 319.171773 45.514728 
L 320.378815 45.374707 
L 321.585856 45.495864 
L 322.792898 45.14036 
L 323.999939 44.501988 
L 325.206981 44.552413 
L 327.621063 44.325786 
L 332.449229 44.850898 
L 333.65627 44.546677 
L 336.070353 44.841723 
L 337.277395 45.048062 
L 338.484436 44.672979 
L 340.898519 44.935572 
L 345.726685 45.7031 
L 346.933726 45.231821 
L 354.175974 46.039185 
L 355.383016 46.225556 
L 356.590057 46.027416 
L 359.00414 46.285096 
L 360.211182 46.455502 
L 361.418223 46.444075 
L 365.039347 46.921752 
L 366.246389 46.936078 
L 368.660471 47.237707 
L 371.074554 47.443841 
L 372.281596 47.605707 
L 373.488637 47.442379 
L 374.695678 47.57293 
L 375.90272 46.72162 
L 377.109761 46.779584 
L 378.316803 46.315935 
L 383.144968 46.707806 
L 384.35201 46.723997 
L 390.387217 47.357044 
L 391.594258 47.169088 
L 392.8013 47.136373 
L 397.629465 47.663878 
L 400.043548 47.754964 
L 402.457631 47.914023 
L 403.664672 48.063717 
L 404.871714 47.990628 
L 406.078755 47.577056 
L 409.699879 48.006569 
L 413.321004 48.202406 
L 415.735087 48.165442 
L 418.149169 48.382656 
L 419.356211 48.291992 
L 421.770294 48.530574 
L 422.977335 47.467817 
L 424.184376 47.583038 
L 425.391418 47.4033 
L 426.598459 47.556522 
L 430.219583 47.087989 
L 432.633666 47.175537 
L 435.047749 47.481198 
L 438.668873 47.48567 
L 441.082956 47.684016 
L 443.497039 47.973497 
L 444.70408 47.707782 
L 445.911122 47.631967 
L 448.325205 47.91337 
L 449.532246 47.312019 
L 451.946329 47.301778 
L 455.567453 47.689062 
L 461.60266 48.286734 
L 474.880116 49.655853 
L 476.087157 49.554913 
L 479.708281 49.862967 
L 480.915323 49.993902 
L 482.122364 49.626601 
L 485.743488 49.894847 
L 488.157571 49.574149 
L 492.985737 49.988711 
L 495.39982 50.17798 
L 496.606861 50.066193 
L 499.020944 50.284856 
L 500.227985 50.246392 
L 502.642068 50.343674 
L 503.84911 50.300479 
L 506.263193 50.512558 
L 508.677275 50.519319 
L 513.505441 50.937208 
L 514.712482 50.91549 
L 515.919524 51.02 
L 515.919524 51.02 
" clip-path="url(#p7e4c80480f)" style="fill: none; stroke-dasharray: 5.55,2.4; stroke-dashoffset: 0; stroke: #4169e1; stroke-width: 1.5"/>
   </g>
   <g id="line2d_31">
    <path d="M 34.31 55.112146 
L 35.517041 46.268777 
L 37.931124 53.807753 
L 39.138166 52.106386 
L 40.345207 52.147096 
L 41.552248 51.151029 
L 42.75929 52.02281 
L 43.966331 53.051687 
L 45.173373 52.544774 
L 46.380414 51.646361 
L 47.587456 52.159551 
L 48.794497 52.450221 
L 52.415621 51.450366 
L 53.622663 52.665686 
L 54.829704 52.468029 
L 56.036745 51.772977 
L 57.243787 51.85497 
L 60.864911 50.819533 
L 63.278994 51.396055 
L 64.486035 51.270493 
L 65.693077 50.183872 
L 66.900118 50.325695 
L 68.10716 49.964089 
L 69.314201 50.430724 
L 70.521242 50.39724 
L 71.728284 51.159711 
L 74.142367 50.902605 
L 75.349408 51.168532 
L 76.556449 50.979491 
L 78.970532 51.47305 
L 80.177574 51.460424 
L 81.384615 51.210656 
L 82.591657 50.591823 
L 83.798698 50.603835 
L 85.005739 50.8404 
L 86.212781 50.482296 
L 87.419822 50.719365 
L 89.833905 50.96019 
L 91.040946 51.437661 
L 92.247988 51.107882 
L 93.455029 50.993966 
L 107.939526 51.161775 
L 109.146568 51.339776 
L 110.353609 51.292036 
L 111.56065 51.654507 
L 112.767692 51.722758 
L 113.974733 51.988531 
L 115.181775 51.8899 
L 116.388816 51.933187 
L 117.595858 51.768213 
L 118.802899 51.898781 
L 120.00994 51.850871 
L 121.216982 51.960976 
L 123.631065 51.81538 
L 126.045147 52.102543 
L 128.45923 52.055946 
L 129.666272 52.25268 
L 130.873313 52.218851 
L 132.080354 52.349077 
L 133.287396 52.302792 
L 134.494437 52.460023 
L 136.90852 52.394506 
L 138.115562 52.521036 
L 139.322603 52.42627 
L 140.529644 52.446389 
L 142.943727 52.278423 
L 144.150769 52.284106 
L 145.35781 51.210277 
L 148.978934 51.421923 
L 150.185976 51.287045 
L 153.8071 51.601112 
L 155.014141 51.472223 
L 158.635266 51.687982 
L 159.842307 51.55471 
L 162.25639 51.660857 
L 183.983135 52.028743 
L 191.225384 51.958293 
L 192.432425 51.822955 
L 193.639467 51.80258 
L 194.846508 51.560084 
L 197.260591 51.417977 
L 199.674674 51.347024 
L 200.881715 51.190682 
L 205.709881 51.323369 
L 208.123963 51.290289 
L 210.538046 51.42778 
L 215.366212 51.434905 
L 216.573253 51.59699 
L 220.194378 51.593477 
L 222.60846 51.560312 
L 241.921123 51.681278 
L 247.95633 51.499658 
L 250.370413 51.604997 
L 252.784496 51.424352 
L 257.612661 51.169644 
L 260.026744 51.293346 
L 262.440827 51.136813 
L 264.85491 51.13368 
L 269.683076 51.246366 
L 270.890117 51.163065 
L 273.3042 51.226737 
L 276.925324 51.096649 
L 284.167573 51.225367 
L 287.788697 51.20701 
L 293.823904 51.414296 
L 296.237987 51.435958 
L 299.859111 51.466695 
L 302.273194 51.54391 
L 303.480235 51.470312 
L 304.687277 51.515115 
L 307.101359 51.392099 
L 309.515442 51.314016 
L 332.449229 51.484384 
L 334.863312 51.364362 
L 337.277395 51.331074 
L 339.691478 51.472902 
L 343.312602 51.435971 
L 346.933726 51.325301 
L 349.347809 51.285072 
L 352.968933 51.348533 
L 369.867513 51.142517 
L 372.281596 51.146554 
L 377.109761 51.004975 
L 379.523844 51.082801 
L 386.766093 51.163072 
L 414.528045 51.176765 
L 418.149169 51.17986 
L 420.563252 51.136471 
L 421.770294 51.151235 
L 424.184376 51.049803 
L 429.012542 50.859966 
L 433.840708 50.976995 
L 444.70408 51.057336 
L 447.118163 51.09257 
L 455.567453 51.061627 
L 464.016743 51.129685 
L 473.673074 51.185248 
L 502.642068 50.975136 
L 505.056151 51.009418 
L 515.919524 51.02 
L 515.919524 51.02 
" clip-path="url(#p7e4c80480f)" style="fill: none; stroke: #ff8c00; stroke-width: 1.5; stroke-linecap: square"/>
   </g>
   <g id="line2d_32">
    <path d="M 34.31 98.44 
L 35.517041 71.334105 
L 36.724083 70.976386 
L 37.931124 62.366458 
L 39.138166 65.568026 
L 40.345207 71.043816 
L 41.552248 72.894287 
L 42.75929 74.243586 
L 43.966331 73.996827 
L 45.173373 75.63958 
L 46.380414 74.914784 
L 47.587456 75.87112 
L 48.794497 77.255781 
L 51.20858 79.21942 
L 52.415621 79.660838 
L 53.622663 72.574636 
L 54.829704 73.781405 
L 56.036745 72.065277 
L 57.243787 73.339741 
L 59.65787 74.446158 
L 60.864911 73.923733 
L 63.278994 74.557753 
L 64.486035 75.339689 
L 65.693077 65.554865 
L 66.900118 66.541104 
L 68.10716 66.372077 
L 69.314201 65.25234 
L 70.521242 66.311252 
L 71.728284 61.068772 
L 72.935325 62.118857 
L 74.142367 62.852966 
L 75.349408 63.036377 
L 76.556449 63.58629 
L 77.763491 63.816955 
L 78.970532 63.895538 
L 80.177574 64.779194 
L 81.384615 64.777444 
L 82.591657 60.289218 
L 83.798698 61.19552 
L 85.005739 61.247007 
L 86.212781 60.18106 
L 87.419822 60.174156 
L 88.626864 60.845177 
L 89.833905 61.335807 
L 91.040946 58.394989 
L 92.247988 57.402912 
L 93.455029 58.003262 
L 97.076153 60.284807 
L 99.490236 61.579909 
L 104.318402 63.976697 
L 105.525443 64.319999 
L 106.732485 64.869871 
L 109.146568 64.497148 
L 110.353609 64.977737 
L 111.56065 62.578103 
L 112.767692 63.016519 
L 113.974733 61.929409 
L 115.181775 62.240425 
L 116.388816 62.720895 
L 117.595858 62.580275 
L 118.802899 62.671723 
L 120.00994 63.112019 
L 121.216982 63.293429 
L 122.424023 63.69755 
L 123.631065 63.940448 
L 124.838106 63.750254 
L 126.045147 63.757312 
L 128.45923 64.598911 
L 129.666272 63.962141 
L 130.873313 64.35606 
L 132.080354 64.295603 
L 133.287396 64.646095 
L 134.494437 64.337224 
L 135.701479 64.530658 
L 136.90852 64.914361 
L 138.115562 64.822501 
L 139.322603 64.933718 
L 140.529644 65.297847 
L 141.736686 65.223651 
L 144.150769 65.87303 
L 145.35781 29.453822 
L 147.771893 30.628192 
L 148.978934 31.108947 
L 150.185976 31.19777 
L 151.393017 31.627673 
L 152.600058 32.190031 
L 153.8071 31.870062 
L 155.014141 31.953383 
L 156.221183 32.422658 
L 157.428224 32.124985 
L 158.635266 32.749199 
L 159.842307 32.734594 
L 161.049348 33.03647 
L 163.463431 34.217365 
L 165.877514 35.180321 
L 169.498638 36.490923 
L 170.70568 36.533605 
L 171.912721 37.047116 
L 176.740887 38.528062 
L 177.947928 37.778667 
L 181.569052 39.091732 
L 182.776094 39.135642 
L 185.190177 40.006496 
L 186.397218 40.196876 
L 190.018342 41.531051 
L 191.225384 41.408654 
L 192.432425 41.009063 
L 193.639467 41.42188 
L 194.846508 39.136644 
L 196.053549 39.132555 
L 199.674674 40.208614 
L 200.881715 39.458419 
L 203.295798 40.027222 
L 204.502839 40.396086 
L 206.916922 40.973592 
L 208.123963 41.36917 
L 209.331005 41.376273 
L 210.538046 41.637431 
L 215.366212 43.092087 
L 216.573253 42.081241 
L 220.194378 43.115498 
L 222.60846 43.684146 
L 223.815502 44.021833 
L 225.022543 43.816523 
L 226.229585 43.873331 
L 227.436626 44.210517 
L 228.643668 44.25833 
L 232.264792 45.141923 
L 233.471833 45.386565 
L 234.678875 45.425201 
L 238.299999 46.329311 
L 239.50704 46.160119 
L 240.714082 46.153678 
L 244.335206 46.871832 
L 245.542247 46.976538 
L 247.95633 47.436782 
L 250.370413 47.661196 
L 251.577454 46.611739 
L 252.784496 46.821245 
L 253.991537 46.859029 
L 255.198579 47.121971 
L 256.40562 47.03747 
L 257.612661 46.167539 
L 260.026744 46.230279 
L 261.233786 45.950483 
L 263.647868 46.063139 
L 264.85491 46.144662 
L 266.061951 46.353431 
L 272.097158 46.26482 
L 273.3042 46.511128 
L 275.718283 46.584225 
L 279.339407 47.20119 
L 280.546448 46.965475 
L 281.75349 47.079029 
L 285.374614 47.72698 
L 287.788697 48.028405 
L 291.409821 47.963776 
L 295.030945 48.383531 
L 299.859111 49.122995 
L 301.066152 49.06658 
L 302.273194 49.265983 
L 303.480235 49.066854 
L 304.687277 49.130446 
L 305.894318 48.281685 
L 307.101359 48.49978 
L 308.308401 48.293294 
L 311.929525 48.912983 
L 316.757691 49.265377 
L 317.964732 49.464597 
L 319.171773 49.503757 
L 320.378815 49.198786 
L 321.585856 49.33183 
L 322.792898 48.830233 
L 323.999939 48.061524 
L 325.206981 48.005441 
L 327.621063 47.597599 
L 331.242188 47.937841 
L 332.449229 48.127574 
L 333.65627 47.663216 
L 337.277395 48.10013 
L 338.484436 47.5202 
L 340.898519 47.554344 
L 345.726685 48.279086 
L 346.933726 47.932996 
L 348.140767 47.978373 
L 349.347809 48.170966 
L 351.761892 48.330581 
L 355.383016 48.84362 
L 356.590057 48.605345 
L 357.797099 48.641182 
L 360.211182 48.894107 
L 361.418223 48.675239 
L 363.832306 49.029444 
L 366.246389 49.085437 
L 368.660471 49.408337 
L 371.074554 49.621655 
L 372.281596 49.772655 
L 373.488637 49.559847 
L 374.695678 49.684214 
L 375.90272 48.83916 
L 377.109761 48.810495 
L 378.316803 48.259433 
L 380.730886 48.527754 
L 381.937927 48.489606 
L 383.144968 48.661846 
L 385.559051 48.819944 
L 387.973134 49.147696 
L 391.594258 49.219383 
L 392.8013 49.102519 
L 395.215383 49.300573 
L 397.629465 49.542787 
L 400.043548 49.498671 
L 402.457631 49.732421 
L 404.871714 49.836489 
L 406.078755 49.369157 
L 409.699879 49.754555 
L 410.906921 49.673425 
L 413.321004 49.747285 
L 414.528045 49.567718 
L 415.735087 49.596149 
L 418.149169 49.835128 
L 419.356211 49.55454 
L 421.770294 49.79336 
L 422.977335 48.89884 
L 424.184376 49.049312 
L 425.391418 48.739649 
L 426.598459 48.888724 
L 429.012542 48.218353 
L 430.219583 48.111958 
L 432.633666 48.196849 
L 436.254791 48.548677 
L 438.668873 48.621147 
L 441.082956 48.791383 
L 443.497039 49.070978 
L 444.70408 48.670042 
L 445.911122 48.590523 
L 448.325205 48.836356 
L 449.532246 47.962241 
L 453.15337 47.946501 
L 456.774495 48.275397 
L 461.60266 48.634336 
L 466.430826 49.093263 
L 467.637867 49.040952 
L 472.466033 49.497779 
L 474.880116 49.741623 
L 476.087157 49.601409 
L 480.915323 50.050742 
L 482.122364 49.77531 
L 485.743488 50.068742 
L 488.157571 49.70403 
L 490.571654 49.936789 
L 492.985737 50.056959 
L 495.39982 50.283598 
L 496.606861 50.176825 
L 501.435027 50.524665 
L 502.642068 50.504894 
L 503.84911 50.307684 
L 513.505441 50.999244 
L 514.712482 50.946513 
L 515.919524 51.02 
L 515.919524 51.02 
" clip-path="url(#p7e4c80480f)" style="fill: none; stroke-dasharray: 5.55,2.4; stroke-dashoffset: 0; stroke: #ff8c00; stroke-width: 1.5"/>
   </g>
   <g id="patch_3">
    <path d="M 34.31 98.44 
L 34.31 3.6 
" style="fill: none; stroke: #000000; stroke-width: 0.8; stroke-linejoin: miter; stroke-linecap: square"/>
   </g>
   <g id="patch_4">
    <path d="M 540 98.44 
L 540 3.6 
" style="fill: none; stroke: #000000; stroke-width: 0.8; stroke-linejoin: miter; stroke-linecap: square"/>
   </g>
   <g id="patch_5">
    <path d="M 34.31 98.44 
L 540 98.44 
" style="fill: none; stroke: #000000; stroke-width: 0.8; stroke-linejoin: miter; stroke-linecap: square"/>
   </g>
   <g id="patch_6">
    <path d="M 34.31 3.6 
L 540 3.6 
" style="fill: none; stroke: #000000; stroke-width: 0.8; stroke-linejoin: miter; stroke-linecap: square"/>
   </g>
  </g>
 </g>
 <defs>
  <clipPath id="p7e4c80480f">
   <rect x="34.31" y="3.6" width="505.69" height="94.84"/>
  </clipPath>
 </defs>
</svg>
