<?xml version="1.0" encoding="utf-8" standalone="no"?>
<!DOCTYPE svg PUBLIC "-//W3C//DTD SVG 1.1//EN"
  "http://www.w3.org/Graphics/SVG/1.1/DTD/svg11.dtd">
<svg xmlns:xlink="http://www.w3.org/1999/xlink" width="540pt" height="129.6pt" viewBox="0 0 540 129.6" xmlns="http://www.w3.org/2000/svg" version="1.1">
 <metadata>
  <rdf:RDF xmlns:dc="http://purl.org/dc/elements/1.1/" xmlns:cc="http://creativecommons.org/ns#" xmlns:rdf="http://www.w3.org/1999/02/22-rdf-syntax-ns#">
   <cc:Work>
    <dc:type rdf:resource="http://purl.org/dc/dcmitype/StillImage"/>
    <dc:date>2025-03-30T21:24:37.497723</dc:date>
    <dc:format>image/svg+xml</dc:format>
    <dc:creator>
     <cc:Agent>
      <dc:title>Matplotlib v3.8.3, https://matplotlib.org/</dc:title>
     </cc:Agent>
    </dc:creator>
   </cc:Work>
  </rdf:RDF>
 </metadata>
 <defs>
  <style type="text/css">*{stroke-linejoin: round; stroke-linecap: butt}</style>
 </defs>
 <g id="figure_1">
  <g id="patch_1">
   <path d="M 0 129.6 
L 540 129.6 
L 540 0 
L 0 0 
z
" style="fill: #ffffff"/>
  </g>
  <g id="axes_1">
   <g id="patch_2">
    <path d="M 27.56 97 
L 540 97 
L 540 0 
L 27.56 0 
z
" style="fill: #ffffff"/>
   </g>
   <g id="matplotlib.axis_1">
    <g id="xtick_1">
     <g id="line2d_1">
      <path d="M 27.56 97 
L 27.56 0 
" clip-path="url(#p9453ff125a)" style="fill: none; stroke: #b0b0b0; stroke-width: 0.8; stroke-linecap: square"/>
     </g>
     <g id="line2d_2">
      <defs>
       <path id="ma591f30bd6" d="M 0 0 
L 0 3.5 
" style="stroke: #000000; stroke-width: 0.8"/>
      </defs>
      <g>
       <use xlink:href="#ma591f30bd6" x="27.56" y="97" style="stroke: #000000; stroke-width: 0.8"/>
      </g>
     </g>
     <g id="text_1">
      <text style="font: 10px 'Times New Roman'; text-anchor: middle" x="27.56" y="110.94375" transform="rotate(-0 27.56 110.94375)">0</text>
     </g>
    </g>
    <g id="xtick_2">
     <g id="line2d_3">
      <path d="M 88.717656 97 
L 88.717656 0 
" clip-path="url(#p9453ff125a)" style="fill: none; stroke: #b0b0b0; stroke-width: 0.8; stroke-linecap: square"/>
     </g>
     <g id="line2d_4">
      <g>
       <use xlink:href="#ma591f30bd6" x="88.717656" y="97" style="stroke: #000000; stroke-width: 0.8"/>
      </g>
     </g>
     <g id="text_2">
      <text style="font: 10px 'Times New Roman'; text-anchor: middle" x="88.717656" y="110.94375" transform="rotate(-0 88.717656 110.94375)">50</text>
     </g>
    </g>
    <g id="xtick_3">
     <g id="line2d_5">
      <path d="M 149.875312 97 
L 149.875312 0 
" clip-path="url(#p9453ff125a)" style="fill: none; stroke: #b0b0b0; stroke-width: 0.8; stroke-linecap: square"/>
     </g>
     <g id="line2d_6">
      <g>
       <use xlink:href="#ma591f30bd6" x="149.875312" y="97" style="stroke: #000000; stroke-width: 0.8"/>
      </g>
     </g>
     <g id="text_3">
      <text style="font: 10px 'Times New Roman'; text-anchor: middle" x="149.875312" y="110.94375" transform="rotate(-0 149.875312 110.94375)">100</text>
     </g>
    </g>
    <g id="xtick_4">
     <g id="line2d_7">
      <path d="M 211.032968 97 
L 211.032968 0 
" clip-path="url(#p9453ff125a)" style="fill: none; stroke: #b0b0b0; stroke-width: 0.8; stroke-linecap: square"/>
     </g>
     <g id="line2d_8">
      <g>
       <use xlink:href="#ma591f30bd6" x="211.032968" y="97" style="stroke: #000000; stroke-width: 0.8"/>
      </g>
     </g>
     <g id="text_4">
      <text style="font: 10px 'Times New Roman'; text-anchor: middle" x="211.032968" y="110.94375" transform="rotate(-0 211.032968 110.94375)">150</text>
     </g>
    </g>
    <g id="xtick_5">
     <g id="line2d_9">
      <path d="M 272.190624 97 
L 272.190624 0 
" clip-path="url(#p9453ff125a)" style="fill: none; stroke: #b0b0b0; stroke-width: 0.8; stroke-linecap: square"/>
     </g>
     <g id="line2d_10">
      <g>
       <use xlink:href="#ma591f30bd6" x="272.190624" y="97" style="stroke: #000000; stroke-width: 0.8"/>
      </g>
     </g>
     <g id="text_5">
      <text style="font: 10px 'Times New Roman'; text-anchor: middle" x="272.190624" y="110.94375" transform="rotate(-0 272.190624 110.94375)">200</text>
     </g>
    </g>
    <g id="xtick_6">
     <g id="line2d_11">
      <path d="M 333.34828 97 
L 333.34828 0 
" clip-path="url(#p9453ff125a)" style="fill: none; stroke: #b0b0b0; stroke-width: 0.8; stroke-linecap: square"/>
     </g>
     <g id="line2d_12">
      <g>
       <use xlink:href="#ma591f30bd6" x="333.34828" y="97" style="stroke: #000000; stroke-width: 0.8"/>
      </g>
     </g>
     <g id="text_6">
      <text style="font: 10px 'Times New Roman'; text-anchor: middle" x="333.34828" y="110.94375" transform="rotate(-0 333.34828 110.94375)">250</text>
     </g>
    </g>
    <g id="xtick_7">
     <g id="line2d_13">
      <path d="M 394.505936 97 
L 394.505936 0 
" clip-path="url(#p9453ff125a)" style="fill: none; stroke: #b0b0b0; stroke-width: 0.8; stroke-linecap: square"/>
     </g>
     <g id="line2d_14">
      <g>
       <use xlink:href="#ma591f30bd6" x="394.505936" y="97" style="stroke: #000000; stroke-width: 0.8"/>
      </g>
     </g>
     <g id="text_7">
      <text style="font: 10px 'Times New Roman'; text-anchor: middle" x="394.505936" y="110.94375" transform="rotate(-0 394.505936 110.94375)">300</text>
     </g>
    </g>
    <g id="xtick_8">
     <g id="line2d_15">
      <path d="M 455.663592 97 
L 455.663592 0 
" clip-path="url(#p9453ff125a)" style="fill: none; stroke: #b0b0b0; stroke-width: 0.8; stroke-linecap: square"/>
     </g>
     <g id="line2d_16">
      <g>
       <use xlink:href="#ma591f30bd6" x="455.663592" y="97" style="stroke: #000000; stroke-width: 0.8"/>
      </g>
     </g>
     <g id="text_8">
      <text style="font: 10px 'Times New Roman'; text-anchor: middle" x="455.663592" y="110.94375" transform="rotate(-0 455.663592 110.94375)">350</text>
     </g>
    </g>
    <g id="xtick_9">
     <g id="line2d_17">
      <path d="M 516.821248 97 
L 516.821248 0 
" clip-path="url(#p9453ff125a)" style="fill: none; stroke: #b0b0b0; stroke-width: 0.8; stroke-linecap: square"/>
     </g>
     <g id="line2d_18">
      <g>
       <use xlink:href="#ma591f30bd6" x="516.821248" y="97" style="stroke: #000000; stroke-width: 0.8"/>
      </g>
     </g>
     <g id="text_9">
      <text style="font: 10px 'Times New Roman'; text-anchor: middle" x="516.821248" y="110.94375" transform="rotate(-0 516.821248 110.94375)">400</text>
     </g>
    </g>
    <g id="text_10">
     <text style="font: 12px 'Times New Roman'; text-anchor: middle" x="283.78" y="125.415312" transform="rotate(-0 283.78 125.415312)">Simulation Run</text>
    </g>
   </g>
   <g id="matplotlib.axis_2">
    <g id="ytick_1">
     <g id="line2d_19">
      <path d="M 27.56 97 
L 540 97 
" clip-path="url(#p9453ff125a)" style="fill: none; stroke: #b0b0b0; stroke-width: 0.8; stroke-linecap: square"/>
     </g>
     <g id="line2d_20">
      <defs>
       <path id="mc5a985d629" d="M 0 0 
L -3.5 0 
" style="stroke: #000000; stroke-width: 0.8"/>
      </defs>
      <g>
       <use xlink:href="#mc5a985d629" x="27.56" y="97" style="stroke: #000000; stroke-width: 0.8"/>
      </g>
     </g>
     <g id="text_11">
      <text style="font: 10px 'Times New Roman'; text-anchor: end" x="20.56" y="100.471875" transform="rotate(-0 20.56 100.471875)">0</text>
     </g>
    </g>
    <g id="ytick_2">
     <g id="line2d_21">
      <path d="M 27.56 66.6875 
L 540 66.6875 
" clip-path="url(#p9453ff125a)" style="fill: none; stroke: #b0b0b0; stroke-width: 0.8; stroke-linecap: square"/>
     </g>
     <g id="line2d_22">
      <g>
       <use xlink:href="#mc5a985d629" x="27.56" y="66.6875" style="stroke: #000000; stroke-width: 0.8"/>
      </g>
     </g>
     <g id="text_12">
      <text style="font: 10px 'Times New Roman'; text-anchor: end" x="20.56" y="70.159375" transform="rotate(-0 20.56 70.159375)">1</text>
     </g>
    </g>
    <g id="ytick_3">
     <g id="line2d_23">
      <path d="M 27.56 36.375 
L 540 36.375 
" clip-path="url(#p9453ff125a)" style="fill: none; stroke: #b0b0b0; stroke-width: 0.8; stroke-linecap: square"/>
     </g>
     <g id="line2d_24">
      <g>
       <use xlink:href="#mc5a985d629" x="27.56" y="36.375" style="stroke: #000000; stroke-width: 0.8"/>
      </g>
     </g>
     <g id="text_13">
      <text style="font: 10px 'Times New Roman'; text-anchor: end" x="20.56" y="39.846875" transform="rotate(-0 20.56 39.846875)">2</text>
     </g>
    </g>
    <g id="ytick_4">
     <g id="line2d_25">
      <path d="M 27.56 6.0625 
L 540 6.0625 
" clip-path="url(#p9453ff125a)" style="fill: none; stroke: #b0b0b0; stroke-width: 0.8; stroke-linecap: square"/>
     </g>
     <g id="line2d_26">
      <g>
       <use xlink:href="#mc5a985d629" x="27.56" y="6.0625" style="stroke: #000000; stroke-width: 0.8"/>
      </g>
     </g>
     <g id="text_14">
      <text style="font: 10px 'Times New Roman'; text-anchor: end" x="20.56" y="9.534375" transform="rotate(-0 20.56 9.534375)">3</text>
     </g>
    </g>
    <g id="text_15">
     <text style="font: 12px 'Times New Roman'; text-anchor: middle" x="8.993125" y="48.5" transform="rotate(-90 8.993125 48.5)">Normalized Value</text>
    </g>
   </g>
   <g id="line2d_27">
    <path d="M 27.56 77.281112 
L 28.783153 75.444294 
L 30.006306 76.207424 
L 32.452612 71.816382 
L 33.675766 65.695304 
L 34.898919 67.110579 
L 36.122072 67.452342 
L 39.791531 67.964543 
L 41.014684 67.644929 
L 42.237837 67.206413 
L 43.460991 68.049215 
L 44.684144 68.096867 
L 45.907297 67.444488 
L 47.13045 66.94689 
L 48.353603 66.870012 
L 49.576756 66.272673 
L 50.799909 66.453269 
L 52.023062 66.08072 
L 53.246216 66.314209 
L 54.469369 66.808244 
L 55.692522 66.951762 
L 56.915675 66.620682 
L 58.138828 66.525091 
L 59.361981 66.702476 
L 60.585134 66.64324 
L 61.808287 66.284609 
L 64.254594 64.632231 
L 66.7009 65.256245 
L 67.924053 65.407357 
L 69.147206 64.970832 
L 70.370359 65.196475 
L 71.593512 64.943461 
L 72.816665 64.291803 
L 74.039819 64.303462 
L 76.486125 65.073968 
L 80.155584 64.954007 
L 82.60189 65.425284 
L 83.825044 65.297856 
L 86.27135 65.390521 
L 87.494503 65.127851 
L 96.056575 65.588141 
L 97.279728 65.447036 
L 99.726034 65.971089 
L 100.949187 65.881623 
L 102.17234 65.910936 
L 104.618647 66.227056 
L 110.734412 66.261979 
L 111.957565 65.712519 
L 115.627025 65.910069 
L 119.296484 66.034944 
L 120.519637 65.790469 
L 122.965943 66.090354 
L 124.189097 65.986311 
L 125.41225 65.741388 
L 126.635403 65.821851 
L 130.304862 65.339664 
L 135.197475 65.403559 
L 136.420628 65.214496 
L 137.643781 65.335339 
L 138.866934 65.198675 
L 148.652159 65.571356 
L 152.321618 65.508659 
L 153.544771 65.478274 
L 155.991078 65.731745 
L 157.214231 65.658753 
L 158.437384 65.750293 
L 163.329996 65.695958 
L 171.892068 65.721635 
L 173.115221 65.764897 
L 174.338375 65.677261 
L 178.007834 65.802433 
L 181.677293 65.725197 
L 190.239365 65.850354 
L 191.462518 65.785148 
L 197.578284 65.930615 
L 202.470896 65.928179 
L 204.917203 66.025418 
L 212.256121 65.89681 
L 215.925581 65.940188 
L 217.148734 65.862006 
L 228.157112 66.258411 
L 230.603418 66.307383 
L 234.272877 66.365242 
L 237.942337 66.260771 
L 241.611796 66.378742 
L 245.281256 65.971998 
L 248.950715 66.123322 
L 250.173868 66.069828 
L 252.620174 66.174697 
L 264.851705 66.115472 
L 268.521165 65.995834 
L 279.529543 66.15653 
L 281.975849 66.144745 
L 284.422155 66.135101 
L 286.868462 66.082309 
L 290.537921 66.064926 
L 295.430533 66.012275 
L 297.87684 65.950875 
L 315.000983 65.93934 
L 318.670443 66.032188 
L 321.116749 65.990853 
L 334.571433 66.257152 
L 338.240893 66.131499 
L 344.356658 66.137127 
L 348.026118 66.193463 
L 356.58819 66.196573 
L 367.596568 66.327939 
L 370.042874 66.302929 
L 388.390171 66.562843 
L 396.952243 66.46232 
L 403.068008 66.59105 
L 409.183774 66.524444 
L 416.522692 66.37068 
L 440.985755 66.475526 
L 455.663592 66.745763 
L 482.572961 66.669086 
L 511.928636 66.671389 
L 515.598095 66.6875 
L 515.598095 66.6875 
" clip-path="url(#p9453ff125a)" style="fill: none; stroke: #4169e1; stroke-width: 1.5; stroke-linecap: square"/>
   </g>
   <g id="line2d_28">
    <path d="M 27.56 97 
L 28.783153 95.846802 
L 30.006306 95.833096 
L 32.452612 85.889864 
L 33.675766 23.709486 
L 34.898919 30.071806 
L 36.122072 38.15837 
L 37.345225 44.633103 
L 38.568378 49.803421 
L 39.791531 53.938579 
L 41.014684 57.142955 
L 42.237837 59.42016 
L 43.460991 58.948225 
L 44.684144 61.474145 
L 45.907297 61.512473 
L 47.13045 62.245879 
L 48.353603 64.142322 
L 49.576756 63.676409 
L 50.799909 65.130781 
L 52.023062 65.699581 
L 53.246216 66.731016 
L 54.469369 66.21175 
L 55.692522 67.332669 
L 56.915675 67.620177 
L 58.138828 68.67209 
L 59.361981 69.441646 
L 60.585134 70.393491 
L 61.808287 70.080048 
L 63.031441 63.212597 
L 64.254594 58.265432 
L 65.477747 58.116 
L 66.7009 58.521767 
L 67.924053 59.395917 
L 69.147206 58.255854 
L 70.370359 58.722987 
L 71.593512 58.969794 
L 72.816665 54.600125 
L 74.039819 55.685536 
L 75.262972 54.453934 
L 76.486125 53.735976 
L 77.709278 54.732447 
L 78.932431 55.498815 
L 80.155584 56.402501 
L 81.378737 56.053515 
L 82.60189 56.429432 
L 85.048197 57.709834 
L 86.27135 58.510835 
L 87.494503 58.125072 
L 91.163962 60.128906 
L 92.387115 60.599613 
L 93.610269 60.761185 
L 96.056575 61.830509 
L 97.279728 62.048972 
L 98.502881 60.74569 
L 99.726034 60.419285 
L 100.949187 60.854822 
L 102.17234 61.419894 
L 103.395493 61.283549 
L 104.618647 61.453641 
L 108.288106 63.004866 
L 110.734412 63.727309 
L 111.957565 57.082408 
L 113.180718 57.621775 
L 116.850178 58.787216 
L 118.073331 58.956422 
L 119.296484 59.382519 
L 120.519637 58.318484 
L 121.74279 57.847711 
L 124.189097 58.225808 
L 125.41225 57.064211 
L 126.635403 57.371987 
L 127.858556 56.996907 
L 129.081709 57.283929 
L 130.304862 56.283235 
L 131.528015 56.71982 
L 132.751168 57.003213 
L 135.197475 57.854016 
L 136.420628 57.201609 
L 137.643781 57.189733 
L 138.866934 57.041527 
L 140.090087 57.365052 
L 141.31324 57.456903 
L 142.536393 57.372389 
L 148.652159 59.174818 
L 151.098465 59.80918 
L 153.544771 60.488487 
L 154.767925 59.673824 
L 157.214231 59.99088 
L 158.437384 60.027091 
L 168.222609 62.204151 
L 169.445762 62.27383 
L 173.115221 62.938748 
L 174.338375 62.905242 
L 175.561528 63.018973 
L 176.784681 62.935326 
L 178.007834 63.169545 
L 179.230987 63.288627 
L 180.45414 63.219056 
L 181.677293 63.265542 
L 184.123599 63.677138 
L 185.346753 63.499515 
L 186.569906 63.733771 
L 190.239365 63.935733 
L 192.685671 64.120066 
L 193.908824 64.306385 
L 195.131978 64.213479 
L 198.801437 64.804406 
L 200.02459 64.955609 
L 203.694049 64.8834 
L 206.140356 65.26418 
L 207.363509 65.193727 
L 209.809815 65.503999 
L 211.032968 65.674887 
L 212.256121 65.695853 
L 214.702427 65.920298 
L 215.925581 65.95945 
L 217.148734 65.834599 
L 218.371887 65.872629 
L 219.59504 65.466397 
L 222.041346 65.851183 
L 223.264499 65.645403 
L 228.157112 66.060734 
L 229.380265 66.243014 
L 231.826571 66.25389 
L 234.272877 66.614813 
L 235.496031 66.652089 
L 236.719184 66.435087 
L 237.942337 66.569747 
L 239.16549 66.581762 
L 240.388643 66.750391 
L 241.611796 66.733699 
L 242.834949 65.755904 
L 244.058102 65.460333 
L 245.281256 63.658528 
L 246.504409 63.507838 
L 250.173868 63.689044 
L 251.397021 63.526132 
L 256.289634 63.904679 
L 257.512787 63.888659 
L 264.851705 64.591754 
L 266.074859 64.388815 
L 272.190624 65.053027 
L 274.63693 65.170156 
L 281.975849 65.774857 
L 285.645309 65.765531 
L 286.868462 65.539573 
L 289.314768 65.681465 
L 292.984227 66.103712 
L 294.20738 66.125608 
L 295.430533 65.460809 
L 296.653687 65.333828 
L 299.099993 65.61523 
L 301.546299 65.539124 
L 302.769452 65.676514 
L 305.215758 65.792723 
L 307.662065 65.948195 
L 310.108371 66.161584 
L 311.331524 65.604271 
L 312.554677 65.710275 
L 318.670443 65.665788 
L 319.893596 65.481701 
L 322.339902 65.614283 
L 323.563055 65.39211 
L 324.786208 65.371431 
L 326.009361 65.497764 
L 329.678821 65.465658 
L 334.571433 65.880758 
L 335.794586 65.502982 
L 337.01774 65.625708 
L 338.240893 65.568547 
L 344.356658 65.989388 
L 345.579811 65.921829 
L 349.249271 66.223831 
L 350.472424 66.137601 
L 355.365036 66.392364 
L 356.58819 66.281944 
L 359.034496 66.47165 
L 360.257649 66.275974 
L 366.373414 66.775609 
L 367.596568 66.789652 
L 368.819721 66.566217 
L 373.712333 66.650589 
L 377.381793 66.890596 
L 378.604946 66.723262 
L 381.051252 66.821334 
L 384.720711 67.121535 
L 385.943864 67.043391 
L 388.390171 67.178456 
L 392.05963 67.181125 
L 394.505936 67.144989 
L 396.952243 67.3217 
L 398.175396 67.217783 
L 399.398549 67.255626 
L 400.621702 67.17518 
L 401.844855 67.251581 
L 403.068008 67.050722 
L 406.737467 67.237605 
L 407.960621 67.138276 
L 409.183774 66.712817 
L 410.406927 66.652329 
L 414.076386 66.845117 
L 415.299539 65.98662 
L 418.968999 66.154973 
L 422.638458 66.305519 
L 427.531071 66.547855 
L 436.093142 66.991884 
L 437.316296 66.606073 
L 438.539449 66.696255 
L 445.878367 66.609291 
L 447.10152 66.680417 
L 448.324674 66.615904 
L 450.77098 66.678997 
L 451.994133 66.556023 
L 455.663592 66.681151 
L 459.333052 66.874002 
L 463.002511 66.920831 
L 464.225664 66.621683 
L 466.67197 66.683794 
L 469.118277 66.623196 
L 470.34143 66.615872 
L 471.564583 66.302273 
L 474.010889 66.27259 
L 476.457195 66.413355 
L 478.903502 66.342622 
L 480.126655 66.4232 
L 481.349808 66.069273 
L 488.688727 66.237311 
L 489.91188 65.79688 
L 500.920258 66.176811 
L 505.81287 66.213563 
L 515.598095 66.6875 
L 515.598095 66.6875 
" clip-path="url(#p9453ff125a)" style="fill: none; stroke-dasharray: 5.55,2.4; stroke-dashoffset: 0; stroke: #4169e1; stroke-width: 1.5"/>
   </g>
   <g id="line2d_29">
    <path d="M 27.56 76.212926 
L 28.783153 75.391223 
L 30.006306 76.112465 
L 31.229459 74.493557 
L 32.452612 71.761404 
L 33.675766 66.188591 
L 34.898919 67.153039 
L 36.122072 67.716641 
L 38.568378 67.513762 
L 39.791531 67.939361 
L 41.014684 67.584005 
L 42.237837 67.419169 
L 43.460991 68.09008 
L 44.684144 67.939699 
L 45.907297 67.315903 
L 47.13045 67.010631 
L 48.353603 66.822967 
L 49.576756 66.22384 
L 50.799909 66.441906 
L 52.023062 66.049481 
L 53.246216 66.308071 
L 54.469369 66.732585 
L 55.692522 66.861814 
L 58.138828 66.532248 
L 59.361981 66.67331 
L 60.585134 66.64011 
L 61.808287 66.235687 
L 64.254594 64.958598 
L 66.7009 65.431528 
L 67.924053 65.511538 
L 69.147206 65.131372 
L 70.370359 65.302134 
L 71.593512 65.01929 
L 72.816665 64.53729 
L 74.039819 64.664096 
L 76.486125 65.335541 
L 80.155584 65.128289 
L 82.60189 65.498021 
L 83.825044 65.409943 
L 86.27135 65.51598 
L 87.494503 65.28987 
L 91.163962 65.504954 
L 94.833422 65.612561 
L 96.056575 65.635454 
L 97.279728 65.485353 
L 99.726034 66.025628 
L 102.17234 65.974144 
L 104.618647 66.283318 
L 107.064953 66.263675 
L 108.288106 66.330338 
L 110.734412 66.279641 
L 111.957565 65.915251 
L 115.627025 66.02205 
L 119.296484 66.143182 
L 120.519637 65.971829 
L 122.965943 66.229356 
L 124.189097 66.143075 
L 125.41225 65.923416 
L 126.635403 65.983417 
L 130.304862 65.500362 
L 135.197475 65.59708 
L 136.420628 65.392511 
L 137.643781 65.503677 
L 138.866934 65.381943 
L 148.652159 65.721765 
L 153.544771 65.651325 
L 155.991078 65.863824 
L 157.214231 65.807905 
L 158.437384 65.887234 
L 162.106843 65.824771 
L 175.561528 65.904167 
L 176.784681 65.985812 
L 182.900446 65.859492 
L 190.239365 65.950283 
L 192.685671 65.913044 
L 195.131978 65.924665 
L 215.925581 65.993475 
L 217.148734 65.918923 
L 233.049724 66.350151 
L 244.058102 66.196596 
L 245.281256 66.047516 
L 248.950715 66.18793 
L 250.173868 66.13376 
L 253.843327 66.216549 
L 258.73594 66.177357 
L 264.851705 66.189704 
L 269.744318 66.099845 
L 275.860084 66.173499 
L 284.422155 66.220577 
L 294.20738 66.193877 
L 296.653687 66.038242 
L 310.108371 66.009036 
L 312.554677 65.952486 
L 330.901974 66.32615 
L 337.01774 66.252655 
L 341.910352 66.266643 
L 363.927108 66.340444 
L 384.720711 66.512316 
L 389.613324 66.554129 
L 401.844855 66.544164 
L 406.737467 66.630598 
L 416.522692 66.440113 
L 442.208908 66.583544 
L 451.994133 66.747962 
L 461.779358 66.78415 
L 466.67197 66.728672 
L 475.234042 66.785255 
L 509.48233 66.680893 
L 515.598095 66.6875 
L 515.598095 66.6875 
" clip-path="url(#p9453ff125a)" style="fill: none; stroke: #ff8c00; stroke-width: 1.5; stroke-linecap: square"/>
   </g>
   <g id="line2d_30">
    <path d="M 27.56 97 
L 30.006306 96.302709 
L 31.229459 92.798755 
L 32.452612 79.670554 
L 33.675766 9.915168 
L 34.898919 19.744974 
L 36.122072 28.361642 
L 37.345225 35.970163 
L 38.568378 41.997997 
L 39.791531 46.150795 
L 42.237837 53.221375 
L 43.460991 53.610937 
L 44.684144 56.355428 
L 45.907297 56.165133 
L 48.353603 59.763463 
L 49.576756 58.700627 
L 50.799909 60.192922 
L 52.023062 60.504781 
L 53.246216 61.506719 
L 54.469369 61.195157 
L 55.692522 62.507334 
L 60.585134 66.621275 
L 61.808287 65.526372 
L 63.031441 60.22324 
L 64.254594 56.477308 
L 65.477747 56.662162 
L 66.7009 57.286607 
L 67.924053 58.35582 
L 69.147206 57.161125 
L 70.370359 57.790309 
L 71.593512 57.502695 
L 72.816665 54.520724 
L 74.039819 55.324083 
L 75.262972 53.688139 
L 76.486125 53.188775 
L 77.709278 54.048909 
L 78.932431 54.650899 
L 80.155584 55.592071 
L 81.378737 55.36687 
L 82.60189 55.894822 
L 86.27135 58.125088 
L 87.494503 57.730618 
L 89.940809 59.099887 
L 91.163962 59.523099 
L 92.387115 60.120235 
L 93.610269 60.529254 
L 96.056575 61.71408 
L 97.279728 61.721665 
L 98.502881 59.479696 
L 99.726034 58.808221 
L 102.17234 59.909763 
L 103.395493 59.289054 
L 104.618647 59.553519 
L 108.288106 61.038653 
L 109.511259 61.377122 
L 110.734412 61.869796 
L 111.957565 58.085561 
L 114.403872 59.092661 
L 116.850178 59.880081 
L 118.073331 59.998963 
L 119.296484 60.406207 
L 121.74279 59.288499 
L 124.189097 59.67198 
L 125.41225 58.327039 
L 126.635403 58.662238 
L 127.858556 58.148458 
L 129.081709 58.320254 
L 130.304862 56.567193 
L 131.528015 57.034833 
L 132.751168 57.153013 
L 135.197475 58.020863 
L 136.420628 56.711563 
L 137.643781 56.633983 
L 138.866934 56.441863 
L 140.090087 56.748095 
L 141.31324 56.917447 
L 142.536393 56.757625 
L 146.205853 57.905196 
L 153.544771 59.893383 
L 154.767925 59.064918 
L 157.214231 59.462808 
L 158.437384 59.495361 
L 159.660537 59.684239 
L 165.776303 61.104871 
L 168.222609 61.549033 
L 169.445762 61.646716 
L 173.115221 62.363814 
L 175.561528 62.63653 
L 176.784681 62.535457 
L 179.230987 62.825584 
L 180.45414 62.546533 
L 181.677293 62.622309 
L 184.123599 63.10064 
L 185.346753 62.913164 
L 187.793059 63.311574 
L 189.016212 63.35482 
L 191.462518 63.222545 
L 193.908824 63.533864 
L 195.131978 63.582007 
L 200.02459 64.425112 
L 201.247743 64.129312 
L 202.470896 64.211126 
L 203.694049 64.154274 
L 206.140356 64.555982 
L 207.363509 64.514658 
L 209.809815 64.854752 
L 214.702427 65.5152 
L 215.925581 65.535096 
L 217.148734 65.333777 
L 218.371887 65.426031 
L 219.59504 65.021569 
L 222.041346 65.371339 
L 223.264499 65.066874 
L 228.157112 65.400036 
L 229.380265 65.59034 
L 231.826571 65.614217 
L 235.496031 66.110073 
L 236.719184 65.824367 
L 237.942337 65.971554 
L 241.611796 66.098747 
L 244.058102 64.994559 
L 245.281256 63.322652 
L 246.504409 63.13217 
L 250.173868 63.211861 
L 251.397021 63.08969 
L 255.06648 63.461723 
L 257.512787 63.502756 
L 262.405399 64.098736 
L 264.851705 64.282354 
L 266.074859 64.223004 
L 267.298012 64.364616 
L 268.521165 64.362258 
L 272.190624 64.802227 
L 273.413777 64.75128 
L 277.083237 65.087315 
L 281.975849 65.615351 
L 284.422155 65.549059 
L 285.645309 65.68995 
L 288.091615 65.67982 
L 290.537921 65.903823 
L 294.20738 66.284238 
L 295.430533 65.541239 
L 296.653687 65.277437 
L 300.323146 65.63829 
L 301.546299 65.507028 
L 302.769452 65.624773 
L 303.992605 65.588585 
L 310.108371 66.053331 
L 311.331524 65.534728 
L 313.77783 65.658543 
L 315.000983 65.659378 
L 317.44729 65.42524 
L 318.670443 65.550624 
L 319.893596 65.428322 
L 321.116749 65.524591 
L 322.339902 65.502691 
L 323.563055 65.323288 
L 324.786208 65.300363 
L 327.232515 65.447532 
L 328.455668 65.316447 
L 334.571433 65.615852 
L 335.794586 65.403972 
L 340.687199 65.808954 
L 343.133505 65.941511 
L 344.356658 66.038243 
L 345.579811 65.937377 
L 349.249271 66.258695 
L 351.695577 66.205867 
L 352.91873 66.308634 
L 354.141883 66.200161 
L 355.365036 66.314007 
L 356.58819 66.088074 
L 359.034496 66.282011 
L 360.257649 66.132538 
L 366.373414 66.660176 
L 367.596568 66.671048 
L 368.819721 66.418145 
L 371.266027 66.438355 
L 373.712333 66.537153 
L 377.381793 66.812607 
L 378.604946 66.641751 
L 381.051252 66.7465 
L 384.720711 67.042523 
L 385.943864 66.947233 
L 390.836477 67.28 
L 393.282783 67.148858 
L 396.952243 67.338799 
L 399.398549 67.158048 
L 400.621702 67.081132 
L 401.844855 67.171902 
L 403.068008 66.944399 
L 405.514314 67.10759 
L 407.960621 67.046698 
L 409.183774 66.689692 
L 410.406927 66.575378 
L 414.076386 66.843729 
L 415.299539 66.302242 
L 418.968999 66.449741 
L 423.861611 66.710369 
L 426.307917 66.877996 
L 427.531071 66.812662 
L 433.646836 67.216831 
L 434.869989 67.136612 
L 436.093142 67.203536 
L 437.316296 67.013644 
L 438.539449 67.089809 
L 444.655214 66.86773 
L 447.10152 67.030315 
L 448.324674 66.907642 
L 449.547827 66.994344 
L 453.217286 66.851288 
L 461.779358 67.274514 
L 463.002511 67.130318 
L 464.225664 66.791232 
L 467.895124 66.868785 
L 471.564583 66.612033 
L 474.010889 66.549785 
L 476.457195 66.699864 
L 478.903502 66.613911 
L 480.126655 66.694277 
L 481.349808 66.276844 
L 486.24242 66.404579 
L 488.688727 66.495585 
L 489.91188 65.928774 
L 494.804492 66.036728 
L 497.250798 66.110848 
L 499.697105 66.231666 
L 502.143411 66.166133 
L 507.036023 66.227896 
L 515.598095 66.6875 
L 515.598095 66.6875 
" clip-path="url(#p9453ff125a)" style="fill: none; stroke-dasharray: 5.55,2.4; stroke-dashoffset: 0; stroke: #ff8c00; stroke-width: 1.5"/>
   </g>
   <g id="patch_3">
    <path d="M 27.56 97 
L 27.56 0 
" style="fill: none; stroke: #000000; stroke-width: 0.8; stroke-linejoin: miter; stroke-linecap: square"/>
   </g>
   <g id="patch_4">
    <path d="M 540 97 
L 540 0 
" style="fill: none; stroke: #000000; stroke-width: 0.8; stroke-linejoin: miter; stroke-linecap: square"/>
   </g>
   <g id="patch_5">
    <path d="M 27.56 97 
L 540 97 
" style="fill: none; stroke: #000000; stroke-width: 0.8; stroke-linejoin: miter; stroke-linecap: square"/>
   </g>
   <g id="patch_6">
    <path d="M 27.56 0 
L 540 0 
" style="fill: none; stroke: #000000; stroke-width: 0.8; stroke-linejoin: miter; stroke-linecap: square"/>
   </g>
  </g>
 </g>
 <defs>
  <clipPath id="p9453ff125a">
   <rect x="27.56" y="0" width="512.44" height="97"/>
  </clipPath>
 </defs>
</svg>
