<?xml version="1.0" encoding="utf-8" standalone="no"?>
<!DOCTYPE svg PUBLIC "-//W3C//DTD SVG 1.1//EN"
  "http://www.w3.org/Graphics/SVG/1.1/DTD/svg11.dtd">
<svg xmlns:xlink="http://www.w3.org/1999/xlink" width="540pt" height="129.6pt" viewBox="0 0 540 129.6" xmlns="http://www.w3.org/2000/svg" version="1.1">
 <metadata>
  <rdf:RDF xmlns:dc="http://purl.org/dc/elements/1.1/" xmlns:cc="http://creativecommons.org/ns#" xmlns:rdf="http://www.w3.org/1999/02/22-rdf-syntax-ns#">
   <cc:Work>
    <dc:type rdf:resource="http://purl.org/dc/dcmitype/StillImage"/>
    <dc:date>2025-04-07T03:56:02.178363</dc:date>
    <dc:format>image/svg+xml</dc:format>
    <dc:creator>
     <cc:Agent>
      <dc:title>Matplotlib v3.10.1, https://matplotlib.org/</dc:title>
     </cc:Agent>
    </dc:creator>
   </cc:Work>
  </rdf:RDF>
 </metadata>
 <defs>
  <style type="text/css">*{stroke-linejoin: round; stroke-linecap: butt}</style>
 </defs>
 <g id="figure_1">
  <g id="patch_1">
   <path d="M 0 129.6 
L 540 129.6 
L 540 0 
L 0 0 
z
" style="fill: #ffffff"/>
  </g>
  <g id="axes_1">
   <g id="patch_2">
    <path d="M 26.795 98.44 
L 540 98.44 
L 540 0 
L 26.795 0 
z
" style="fill: #ffffff"/>
   </g>
   <g id="matplotlib.axis_1">
    <g id="xtick_1">
     <g id="line2d_1">
      <path d="M 26.795 98.44 
L 26.795 0 
" clip-path="url(#p413f71ad33)" style="fill: none; stroke: #b0b0b0; stroke-width: 0.8; stroke-linecap: square"/>
     </g>
     <g id="line2d_2">
      <defs>
       <path id="m045dcbbc65" d="M 0 0 
L 0 3.5 
" style="stroke: #000000; stroke-width: 0.8"/>
      </defs>
      <g>
       <use xlink:href="#m045dcbbc65" x="26.795" y="98.44" style="stroke: #000000; stroke-width: 0.8"/>
      </g>
     </g>
     <g id="text_1">
      <text style="font-size: 10px; font-family: 'Times New Roman'; text-anchor: middle" x="26.795" y="112.38375" transform="rotate(-0 26.795 112.38375)">0</text>
     </g>
    </g>
    <g id="xtick_2">
     <g id="line2d_3">
      <path d="M 88.043956 98.44 
L 88.043956 0 
" clip-path="url(#p413f71ad33)" style="fill: none; stroke: #b0b0b0; stroke-width: 0.8; stroke-linecap: square"/>
     </g>
     <g id="line2d_4">
      <g>
       <use xlink:href="#m045dcbbc65" x="88.043956" y="98.44" style="stroke: #000000; stroke-width: 0.8"/>
      </g>
     </g>
     <g id="text_2">
      <text style="font-size: 10px; font-family: 'Times New Roman'; text-anchor: middle" x="88.043956" y="112.38375" transform="rotate(-0 88.043956 112.38375)">50</text>
     </g>
    </g>
    <g id="xtick_3">
     <g id="line2d_5">
      <path d="M 149.292911 98.44 
L 149.292911 0 
" clip-path="url(#p413f71ad33)" style="fill: none; stroke: #b0b0b0; stroke-width: 0.8; stroke-linecap: square"/>
     </g>
     <g id="line2d_6">
      <g>
       <use xlink:href="#m045dcbbc65" x="149.292911" y="98.44" style="stroke: #000000; stroke-width: 0.8"/>
      </g>
     </g>
     <g id="text_3">
      <text style="font-size: 10px; font-family: 'Times New Roman'; text-anchor: middle" x="149.292911" y="112.38375" transform="rotate(-0 149.292911 112.38375)">100</text>
     </g>
    </g>
    <g id="xtick_4">
     <g id="line2d_7">
      <path d="M 210.541867 98.44 
L 210.541867 0 
" clip-path="url(#p413f71ad33)" style="fill: none; stroke: #b0b0b0; stroke-width: 0.8; stroke-linecap: square"/>
     </g>
     <g id="line2d_8">
      <g>
       <use xlink:href="#m045dcbbc65" x="210.541867" y="98.44" style="stroke: #000000; stroke-width: 0.8"/>
      </g>
     </g>
     <g id="text_4">
      <text style="font-size: 10px; font-family: 'Times New Roman'; text-anchor: middle" x="210.541867" y="112.38375" transform="rotate(-0 210.541867 112.38375)">150</text>
     </g>
    </g>
    <g id="xtick_5">
     <g id="line2d_9">
      <path d="M 271.790823 98.44 
L 271.790823 0 
" clip-path="url(#p413f71ad33)" style="fill: none; stroke: #b0b0b0; stroke-width: 0.8; stroke-linecap: square"/>
     </g>
     <g id="line2d_10">
      <g>
       <use xlink:href="#m045dcbbc65" x="271.790823" y="98.44" style="stroke: #000000; stroke-width: 0.8"/>
      </g>
     </g>
     <g id="text_5">
      <text style="font-size: 10px; font-family: 'Times New Roman'; text-anchor: middle" x="271.790823" y="112.38375" transform="rotate(-0 271.790823 112.38375)">200</text>
     </g>
    </g>
    <g id="xtick_6">
     <g id="line2d_11">
      <path d="M 333.039779 98.44 
L 333.039779 0 
" clip-path="url(#p413f71ad33)" style="fill: none; stroke: #b0b0b0; stroke-width: 0.8; stroke-linecap: square"/>
     </g>
     <g id="line2d_12">
      <g>
       <use xlink:href="#m045dcbbc65" x="333.039779" y="98.44" style="stroke: #000000; stroke-width: 0.8"/>
      </g>
     </g>
     <g id="text_6">
      <text style="font-size: 10px; font-family: 'Times New Roman'; text-anchor: middle" x="333.039779" y="112.38375" transform="rotate(-0 333.039779 112.38375)">250</text>
     </g>
    </g>
    <g id="xtick_7">
     <g id="line2d_13">
      <path d="M 394.288734 98.44 
L 394.288734 0 
" clip-path="url(#p413f71ad33)" style="fill: none; stroke: #b0b0b0; stroke-width: 0.8; stroke-linecap: square"/>
     </g>
     <g id="line2d_14">
      <g>
       <use xlink:href="#m045dcbbc65" x="394.288734" y="98.44" style="stroke: #000000; stroke-width: 0.8"/>
      </g>
     </g>
     <g id="text_7">
      <text style="font-size: 10px; font-family: 'Times New Roman'; text-anchor: middle" x="394.288734" y="112.38375" transform="rotate(-0 394.288734 112.38375)">300</text>
     </g>
    </g>
    <g id="xtick_8">
     <g id="line2d_15">
      <path d="M 455.53769 98.44 
L 455.53769 0 
" clip-path="url(#p413f71ad33)" style="fill: none; stroke: #b0b0b0; stroke-width: 0.8; stroke-linecap: square"/>
     </g>
     <g id="line2d_16">
      <g>
       <use xlink:href="#m045dcbbc65" x="455.53769" y="98.44" style="stroke: #000000; stroke-width: 0.8"/>
      </g>
     </g>
     <g id="text_8">
      <text style="font-size: 10px; font-family: 'Times New Roman'; text-anchor: middle" x="455.53769" y="112.38375" transform="rotate(-0 455.53769 112.38375)">350</text>
     </g>
    </g>
    <g id="xtick_9">
     <g id="line2d_17">
      <path d="M 516.786646 98.44 
L 516.786646 0 
" clip-path="url(#p413f71ad33)" style="fill: none; stroke: #b0b0b0; stroke-width: 0.8; stroke-linecap: square"/>
     </g>
     <g id="line2d_18">
      <g>
       <use xlink:href="#m045dcbbc65" x="516.786646" y="98.44" style="stroke: #000000; stroke-width: 0.8"/>
      </g>
     </g>
     <g id="text_9">
      <text style="font-size: 10px; font-family: 'Times New Roman'; text-anchor: middle" x="516.786646" y="112.38375" transform="rotate(-0 516.786646 112.38375)">400</text>
     </g>
    </g>
    <g id="text_10">
     <text style="font-size: 12px; font-family: 'Times New Roman'; text-anchor: middle" x="283.3975" y="126.855312" transform="rotate(-0 283.3975 126.855312)">Simulation Run</text>
    </g>
   </g>
   <g id="matplotlib.axis_2">
    <g id="ytick_1">
     <g id="line2d_19">
      <path d="M 26.795 98.44 
L 540 98.44 
" clip-path="url(#p413f71ad33)" style="fill: none; stroke: #b0b0b0; stroke-width: 0.8; stroke-linecap: square"/>
     </g>
     <g id="line2d_20">
      <defs>
       <path id="m5a9dde85e7" d="M 0 0 
L -3.5 0 
" style="stroke: #000000; stroke-width: 0.8"/>
      </defs>
      <g>
       <use xlink:href="#m5a9dde85e7" x="26.795" y="98.44" style="stroke: #000000; stroke-width: 0.8"/>
      </g>
     </g>
     <g id="text_11">
      <text style="font-size: 10px; font-family: 'Times New Roman'; text-anchor: end" x="19.795" y="101.911875" transform="rotate(-0 19.795 101.911875)">0</text>
     </g>
    </g>
    <g id="ytick_2">
     <g id="line2d_21">
      <path d="M 26.795 51.56381 
L 540 51.56381 
" clip-path="url(#p413f71ad33)" style="fill: none; stroke: #b0b0b0; stroke-width: 0.8; stroke-linecap: square"/>
     </g>
     <g id="line2d_22">
      <g>
       <use xlink:href="#m5a9dde85e7" x="26.795" y="51.56381" style="stroke: #000000; stroke-width: 0.8"/>
      </g>
     </g>
     <g id="text_12">
      <text style="font-size: 10px; font-family: 'Times New Roman'; text-anchor: end" x="19.795" y="55.035685" transform="rotate(-0 19.795 55.035685)">1</text>
     </g>
    </g>
    <g id="ytick_3">
     <g id="line2d_23">
      <path d="M 26.795 4.687619 
L 540 4.687619 
" clip-path="url(#p413f71ad33)" style="fill: none; stroke: #b0b0b0; stroke-width: 0.8; stroke-linecap: square"/>
     </g>
     <g id="line2d_24">
      <g>
       <use xlink:href="#m5a9dde85e7" x="26.795" y="4.687619" style="stroke: #000000; stroke-width: 0.8"/>
      </g>
     </g>
     <g id="text_13">
      <text style="font-size: 10px; font-family: 'Times New Roman'; text-anchor: end" x="19.795" y="8.159494" transform="rotate(-0 19.795 8.159494)">2</text>
     </g>
    </g>
    <g id="text_14">
     <text style="font-size: 12px; font-family: 'Times New Roman'; text-anchor: middle" x="8.228125" y="49.22" transform="rotate(-90 8.228125 49.22)">Normalized Value</text>
    </g>
   </g>
   <g id="line2d_25">
    <path d="M 26.795 38.586292 
L 28.019979 44.292803 
L 29.244958 50.826502 
L 30.469937 50.340342 
L 31.694916 48.613934 
L 32.919896 51.323359 
L 34.144875 51.191475 
L 35.369854 45.364499 
L 36.594833 47.938882 
L 37.819812 49.450459 
L 39.044791 49.660412 
L 40.26977 50.216921 
L 41.494749 49.160864 
L 42.719728 50.44753 
L 43.944708 50.59672 
L 45.169687 50.440862 
L 46.394666 49.30102 
L 47.619645 48.926069 
L 48.844624 47.84528 
L 51.294582 47.469069 
L 52.519561 47.480108 
L 53.744541 47.300092 
L 54.96952 46.912587 
L 56.194499 47.748984 
L 59.869436 48.309013 
L 63.544373 49.377683 
L 64.769353 49.421466 
L 65.994332 49.730007 
L 67.219311 50.177722 
L 68.44429 50.062531 
L 69.669269 50.244123 
L 70.894248 50.620364 
L 72.119227 50.720946 
L 73.344206 51.000321 
L 74.569185 50.957272 
L 75.794165 50.571037 
L 77.019144 51.073221 
L 79.469102 51.09258 
L 80.694081 50.885769 
L 83.144039 50.877303 
L 84.369018 51.086279 
L 85.593997 51.170523 
L 86.818977 50.831188 
L 88.043956 51.126023 
L 89.268935 50.908727 
L 90.493914 51.242643 
L 91.718893 51.405629 
L 92.943872 51.412234 
L 94.168851 51.635437 
L 96.61881 51.745304 
L 97.843789 51.581882 
L 99.068768 51.992978 
L 100.293747 51.847813 
L 102.743705 52.070071 
L 106.418642 51.948268 
L 108.868601 52.325797 
L 110.09358 52.342344 
L 111.318559 52.034608 
L 112.543538 52.01867 
L 113.768517 51.855645 
L 114.993496 52.048251 
L 116.218475 51.616489 
L 117.443454 51.841174 
L 118.668434 51.89846 
L 119.893413 51.668588 
L 121.118392 51.594575 
L 123.56835 51.807562 
L 124.793329 51.445264 
L 126.018308 51.227115 
L 127.243287 50.890832 
L 128.468266 50.977999 
L 129.693246 50.856632 
L 132.143204 51.17009 
L 133.368183 51.071572 
L 135.818141 50.665666 
L 137.04312 50.611795 
L 138.268099 50.669744 
L 139.493079 50.887132 
L 140.718058 50.900636 
L 141.943037 51.042394 
L 144.392995 50.91519 
L 146.842953 51.27597 
L 148.067932 50.881285 
L 149.292911 50.992144 
L 150.517891 50.967792 
L 152.967849 50.69639 
L 154.192828 50.80098 
L 155.417807 50.605688 
L 157.867765 50.702134 
L 159.092744 50.628614 
L 160.317723 50.396858 
L 163.992661 50.6376 
L 166.442619 50.501049 
L 167.667598 50.672885 
L 170.117556 50.489627 
L 171.342536 50.347312 
L 175.017473 50.521841 
L 177.467431 50.879222 
L 179.917389 51.050254 
L 181.142368 50.757191 
L 184.817306 50.887959 
L 190.942201 50.500703 
L 192.16718 50.268032 
L 199.517055 50.624478 
L 200.742034 50.523371 
L 208.091909 50.741457 
L 209.316888 50.519876 
L 217.891742 50.524105 
L 220.3417 50.620581 
L 221.566679 50.468275 
L 225.241617 50.44493 
L 230.141533 50.53711 
L 233.81647 50.961828 
L 235.041449 50.930952 
L 237.491408 51.046541 
L 239.941366 50.858203 
L 247.291241 51.071229 
L 249.741199 51.239556 
L 250.966178 51.18067 
L 252.191157 51.26565 
L 257.091074 51.167097 
L 258.316053 51.185977 
L 259.541032 51.320844 
L 261.99099 51.260131 
L 263.215969 51.205904 
L 264.440948 51.021638 
L 270.565844 51.068599 
L 274.240781 51.062139 
L 280.365677 51.133565 
L 282.815635 51.208227 
L 287.715551 51.406845 
L 288.94053 51.234208 
L 292.615468 51.349578 
L 295.065426 51.188073 
L 299.965343 51.250787 
L 301.190322 51.055258 
L 306.090238 50.976926 
L 307.315217 50.836786 
L 309.765175 50.850052 
L 315.890071 50.88246 
L 318.340029 50.970394 
L 320.789987 50.866486 
L 323.239946 50.945289 
L 325.689904 50.979409 
L 329.364841 50.914217 
L 333.039779 51.073567 
L 334.264758 50.907168 
L 337.939695 50.978895 
L 339.164674 50.861841 
L 341.614632 50.92708 
L 359.989319 51.149252 
L 362.439277 51.025549 
L 379.588985 51.27518 
L 380.813964 51.186859 
L 385.713881 51.228086 
L 391.838776 51.177429 
L 410.213463 51.21979 
L 416.338358 51.281928 
L 421.238275 51.216468 
L 426.138191 51.31198 
L 443.287899 51.567202 
L 445.737857 51.562017 
L 446.962836 51.631308 
L 449.412794 51.641152 
L 482.487231 51.599678 
L 486.162168 51.673552 
L 491.062084 51.67859 
L 497.18698 51.817959 
L 503.311876 51.621412 
L 506.986813 51.628822 
L 510.66175 51.549755 
L 515.561667 51.56381 
L 515.561667 51.56381 
" clip-path="url(#p413f71ad33)" style="fill: none; stroke: #4169e1; stroke-width: 1.5; stroke-linecap: square"/>
   </g>
   <g id="line2d_26">
    <path d="M 26.795 98.44 
L 28.019979 90.08904 
L 29.244958 70.977773 
L 30.469937 77.661496 
L 31.694916 78.75987 
L 32.919896 72.627084 
L 34.144875 76.287881 
L 35.369854 18.106066 
L 36.594833 13.435419 
L 37.819812 16.662384 
L 39.044791 23.983672 
L 40.26977 29.314726 
L 41.494749 31.200025 
L 42.719728 30.483756 
L 43.944708 34.934262 
L 45.169687 38.809928 
L 46.394666 36.986631 
L 47.619645 39.787802 
L 48.844624 37.482762 
L 51.294582 42.92471 
L 52.519561 45.447476 
L 53.744541 47.568672 
L 54.96952 48.802628 
L 56.194499 46.482542 
L 58.644457 50.135649 
L 59.869436 51.091635 
L 61.094415 51.651105 
L 62.319394 51.475364 
L 63.544373 52.685676 
L 64.769353 54.100259 
L 65.994332 54.662674 
L 67.219311 54.2539 
L 68.44429 55.400665 
L 69.669269 56.300223 
L 70.894248 56.132275 
L 72.119227 57.149644 
L 73.344206 57.447775 
L 74.569185 58.454046 
L 75.794165 57.899074 
L 77.019144 56.212756 
L 79.469102 58.115842 
L 80.694081 58.529325 
L 83.144039 60.222117 
L 84.369018 60.491961 
L 85.593997 61.179049 
L 86.818977 60.477336 
L 88.043956 60.107098 
L 89.268935 60.226727 
L 90.493914 59.46086 
L 91.718893 59.821644 
L 92.943872 60.523192 
L 94.168851 60.4976 
L 95.39383 61.155844 
L 96.61881 61.687659 
L 97.843789 61.913352 
L 99.068768 59.96512 
L 101.518726 60.586604 
L 105.193663 62.171042 
L 106.418642 62.693862 
L 107.643622 62.338275 
L 108.868601 62.491138 
L 110.09358 63.007361 
L 111.318559 61.837827 
L 112.543538 62.348791 
L 113.768517 62.366147 
L 114.993496 62.175348 
L 116.218475 59.175566 
L 117.443454 58.74107 
L 118.668434 59.200306 
L 119.893413 58.680049 
L 121.118392 59.081622 
L 123.56835 59.607897 
L 124.793329 57.394426 
L 126.018308 56.906462 
L 127.243287 55.028828 
L 128.468266 55.383905 
L 130.918225 55.682915 
L 132.143204 55.460414 
L 133.368183 55.732274 
L 134.593162 55.081168 
L 135.818141 54.806584 
L 138.268099 55.610517 
L 139.493079 54.956097 
L 140.718058 55.414343 
L 141.943037 55.382829 
L 144.392995 56.057826 
L 145.617974 55.60596 
L 146.842953 55.293136 
L 148.067932 51.769731 
L 149.292911 51.916647 
L 150.517891 52.357398 
L 151.74287 51.935444 
L 154.192828 52.321823 
L 155.417807 51.72994 
L 159.092744 52.727026 
L 160.317723 51.641252 
L 161.542703 51.816792 
L 162.767682 52.157351 
L 163.992661 52.303507 
L 165.21764 52.328526 
L 166.442619 52.715236 
L 167.667598 52.238605 
L 168.892577 52.589212 
L 171.342536 52.124161 
L 172.567515 52.425464 
L 173.792494 52.278086 
L 175.017473 52.6539 
L 176.242452 51.799919 
L 177.467431 51.374527 
L 179.917389 51.656302 
L 181.142368 49.249526 
L 183.592327 49.744198 
L 184.817306 50.118531 
L 186.042285 50.316689 
L 188.492243 50.323421 
L 189.717222 50.535901 
L 190.942201 49.841375 
L 192.16718 48.324536 
L 193.39216 48.52849 
L 194.617139 48.437516 
L 197.067097 49.024392 
L 199.517055 49.388302 
L 200.742034 49.359061 
L 203.191992 49.907965 
L 204.416972 49.8793 
L 205.641951 50.043889 
L 206.86693 50.370886 
L 208.091909 50.48361 
L 209.316888 48.927257 
L 210.541867 49.253306 
L 211.766846 49.234278 
L 212.991825 49.086275 
L 217.891742 50.259018 
L 219.116721 50.14512 
L 220.3417 50.447627 
L 221.566679 49.801721 
L 230.141533 51.571338 
L 231.366512 51.129914 
L 232.591491 50.189575 
L 233.81647 49.777429 
L 235.041449 50.020445 
L 236.266429 49.856109 
L 237.491408 50.127336 
L 238.716387 49.43136 
L 243.616303 50.270987 
L 244.841282 50.14152 
L 247.291241 50.671138 
L 248.51622 50.408849 
L 250.966178 50.589761 
L 252.191157 50.507653 
L 254.641115 50.928627 
L 255.866094 51.179064 
L 257.091074 51.243236 
L 258.316053 51.474363 
L 259.541032 50.834008 
L 260.766011 51.079738 
L 263.215969 51.199653 
L 264.440948 49.752684 
L 265.665927 49.976585 
L 266.890906 50.037509 
L 269.340865 50.464331 
L 270.565844 50.365754 
L 275.46576 51.129107 
L 276.690739 50.964276 
L 277.915718 50.91511 
L 279.140698 51.089135 
L 280.365677 51.122702 
L 281.590656 51.342637 
L 282.815635 51.173544 
L 286.490572 51.596196 
L 287.715551 51.399772 
L 288.94053 49.982982 
L 291.390489 49.978605 
L 292.615468 50.192203 
L 295.065426 49.900612 
L 296.290405 50.033579 
L 297.515384 49.99222 
L 299.965343 50.33871 
L 301.190322 48.356334 
L 302.415301 48.568089 
L 303.64028 48.398442 
L 306.090238 48.799565 
L 307.315217 47.862055 
L 309.765175 48.137293 
L 310.990155 48.349249 
L 312.215134 47.874335 
L 313.440113 47.546192 
L 314.665092 47.724792 
L 317.11505 47.505857 
L 318.340029 47.695155 
L 319.565008 47.566808 
L 320.789987 47.724517 
L 322.014967 47.546269 
L 325.689904 48.082219 
L 331.814799 48.437523 
L 333.039779 48.371182 
L 334.264758 46.787604 
L 336.714716 46.954104 
L 337.939695 47.14445 
L 339.164674 46.44882 
L 340.389653 46.252183 
L 342.839612 46.62101 
L 345.28957 46.350182 
L 346.514549 46.514794 
L 347.739528 46.14508 
L 350.189486 46.53672 
L 351.414465 46.404268 
L 353.864424 46.613895 
L 356.314382 46.974868 
L 358.76434 47.229662 
L 359.989319 47.386584 
L 361.214298 47.09047 
L 363.664256 47.320611 
L 364.889236 47.433658 
L 366.114215 47.392845 
L 369.789152 47.886857 
L 371.014131 47.888011 
L 373.464089 48.236227 
L 374.689069 48.023536 
L 378.364006 48.339685 
L 379.588985 48.371256 
L 380.813964 47.965781 
L 383.263922 48.218712 
L 386.93886 48.659402 
L 388.163839 47.519998 
L 390.613797 47.791208 
L 391.838776 47.433732 
L 394.288734 47.674783 
L 397.963672 48.090967 
L 399.188651 47.99284 
L 404.088567 48.623306 
L 405.313546 48.500961 
L 406.538525 48.660395 
L 408.988484 48.528726 
L 411.438442 48.782751 
L 417.563338 49.172151 
L 418.788317 48.975653 
L 420.013296 49.05195 
L 421.238275 48.823544 
L 422.463254 48.976543 
L 424.913212 49.108401 
L 428.58815 49.415592 
L 429.813129 49.494253 
L 431.038108 49.309606 
L 435.938024 49.695952 
L 438.387982 49.893099 
L 440.837941 50.021875 
L 443.287899 49.938992 
L 445.737857 50.188993 
L 446.962836 49.906939 
L 450.637774 49.910654 
L 453.087732 50.152336 
L 455.53769 50.257762 
L 462.887565 50.985707 
L 464.112544 50.90519 
L 465.337523 51.002724 
L 466.562502 50.589787 
L 467.787481 50.715371 
L 469.01246 50.69077 
L 470.237439 50.821263 
L 471.462419 50.830579 
L 473.912377 51.087824 
L 475.137356 50.946101 
L 478.812293 51.230925 
L 484.937189 51.164536 
L 488.612126 51.497272 
L 489.837105 51.483601 
L 491.062084 51.600069 
L 495.962001 51.580349 
L 497.18698 51.700579 
L 498.411959 51.470091 
L 499.636938 51.359766 
L 500.861917 51.479245 
L 503.311876 51.287602 
L 506.986813 51.307358 
L 508.211792 51.090025 
L 513.111708 51.458918 
L 515.561667 51.56381 
L 515.561667 51.56381 
" clip-path="url(#p413f71ad33)" style="fill: none; stroke-dasharray: 5.55,2.4; stroke-dashoffset: 0; stroke: #4169e1; stroke-width: 1.5"/>
   </g>
   <g id="line2d_27">
    <path d="M 26.795 40.055211 
L 28.019979 45.31585 
L 29.244958 49.540225 
L 30.469937 49.059076 
L 31.694916 47.168627 
L 32.919896 49.946232 
L 34.144875 50.185239 
L 35.369854 45.993581 
L 36.594833 48.296268 
L 37.819812 49.534433 
L 39.044791 49.565641 
L 40.26977 49.876095 
L 41.494749 49.513295 
L 42.719728 50.639933 
L 43.944708 50.421278 
L 45.169687 50.352289 
L 46.394666 49.71154 
L 47.619645 49.888506 
L 48.844624 49.210505 
L 51.294582 48.948578 
L 52.519561 48.642867 
L 53.744541 48.539569 
L 54.96952 48.057723 
L 56.194499 48.752213 
L 57.419478 48.90919 
L 58.644457 48.909221 
L 61.094415 49.294264 
L 62.319394 49.774665 
L 63.544373 49.998505 
L 64.769353 50.044665 
L 67.219311 50.471541 
L 68.44429 50.308474 
L 69.669269 50.464257 
L 70.894248 50.845106 
L 72.119227 50.939576 
L 73.344206 51.237223 
L 75.794165 50.95817 
L 77.019144 51.424438 
L 79.469102 51.462736 
L 80.694081 51.220302 
L 81.91906 51.25325 
L 83.144039 51.167478 
L 85.593997 51.355756 
L 86.818977 51.120849 
L 88.043956 51.347036 
L 89.268935 51.111588 
L 90.493914 51.371287 
L 94.168851 51.704889 
L 97.843789 51.466925 
L 99.068768 51.835246 
L 100.293747 51.719134 
L 103.968684 51.947799 
L 107.643622 51.979201 
L 110.09358 52.080615 
L 111.318559 51.877555 
L 113.768517 51.803016 
L 114.993496 51.956649 
L 116.218475 51.624973 
L 117.443454 51.807795 
L 118.668434 51.820263 
L 119.893413 51.630427 
L 123.56835 51.747599 
L 126.018308 51.291225 
L 127.243287 51.078473 
L 128.468266 51.140661 
L 129.693246 51.022446 
L 133.368183 51.149484 
L 135.818141 50.89258 
L 138.268099 50.884587 
L 139.493079 51.076769 
L 140.718058 51.08603 
L 141.943037 51.208578 
L 143.168016 51.018305 
L 144.392995 50.99922 
L 146.842953 51.293136 
L 148.067932 51.00664 
L 149.292911 51.097304 
L 152.967849 50.898179 
L 154.192828 50.95952 
L 155.417807 50.826924 
L 157.867765 50.877458 
L 159.092744 50.814653 
L 160.317723 50.633099 
L 163.992661 50.816839 
L 166.442619 50.733798 
L 167.667598 50.88489 
L 170.117556 50.81205 
L 171.342536 50.657046 
L 173.792494 50.745274 
L 175.017473 50.747297 
L 178.69241 51.107235 
L 179.917389 51.192256 
L 181.142368 51.031246 
L 184.817306 51.12225 
L 193.39216 50.627876 
L 195.842118 50.68154 
L 201.967013 50.814966 
L 203.191992 50.750834 
L 205.641951 50.873898 
L 227.691575 50.70438 
L 232.591491 50.956546 
L 233.81647 51.057241 
L 236.266429 51.131227 
L 238.716387 51.08683 
L 243.616303 51.145398 
L 246.066261 51.217085 
L 248.51622 51.316581 
L 252.191157 51.38792 
L 258.316053 51.329012 
L 259.541032 51.435628 
L 263.215969 51.339867 
L 264.440948 51.21863 
L 270.565844 51.29843 
L 274.240781 51.287915 
L 277.915718 51.307345 
L 281.590656 51.32365 
L 285.265593 51.414777 
L 292.615468 51.450022 
L 296.290405 51.388806 
L 298.740363 51.417149 
L 314.665092 51.051754 
L 318.340029 51.170064 
L 320.789987 51.102768 
L 323.239946 51.157395 
L 326.914883 51.12487 
L 329.364841 51.118387 
L 333.039779 51.260002 
L 334.264758 51.111371 
L 337.939695 51.157979 
L 339.164674 51.076681 
L 341.614632 51.142326 
L 368.564173 51.260391 
L 372.23911 51.271709 
L 386.93886 51.383691 
L 389.388818 51.26984 
L 397.963672 51.395433 
L 406.538525 51.269664 
L 411.438442 51.37513 
L 423.688233 51.316533 
L 438.387982 51.50401 
L 440.837941 51.513345 
L 443.287899 51.51686 
L 448.187815 51.538232 
L 451.862753 51.554209 
L 459.212627 51.534164 
L 465.337523 51.543297 
L 469.01246 51.455198 
L 482.487231 51.557071 
L 486.162168 51.620108 
L 493.512043 51.659757 
L 498.411959 51.684412 
L 510.66175 51.543339 
L 515.561667 51.56381 
L 515.561667 51.56381 
" clip-path="url(#p413f71ad33)" style="fill: none; stroke: #ff8c00; stroke-width: 1.5; stroke-linecap: square"/>
   </g>
   <g id="line2d_28">
    <path d="M 26.795 98.44 
L 29.244958 74.655867 
L 30.469937 80.296796 
L 31.694916 77.645476 
L 32.919896 64.164799 
L 34.144875 68.910686 
L 35.369854 18.571616 
L 36.594833 8.810996 
L 37.819812 11.71258 
L 39.044791 19.592613 
L 40.26977 25.697475 
L 41.494749 30.599174 
L 42.719728 28.195926 
L 45.169687 36.669405 
L 46.394666 37.417189 
L 47.619645 40.573465 
L 48.844624 39.984113 
L 50.069603 42.791433 
L 51.294582 45.258399 
L 52.519561 46.813541 
L 53.744541 48.955042 
L 54.96952 48.671004 
L 56.194499 45.576537 
L 59.869436 50.738208 
L 61.094415 51.677051 
L 62.319394 50.29564 
L 63.544373 51.18835 
L 64.769353 52.635946 
L 65.994332 53.620977 
L 67.219311 53.977427 
L 69.669269 55.688286 
L 70.894248 54.54983 
L 72.119227 55.559772 
L 73.344206 55.180307 
L 74.569185 56.087728 
L 75.794165 56.562347 
L 77.019144 53.643624 
L 79.469102 55.662276 
L 80.694081 55.476814 
L 81.91906 56.389336 
L 83.144039 57.135363 
L 84.369018 57.617668 
L 85.593997 58.391687 
L 89.268935 57.21586 
L 90.493914 56.452991 
L 91.718893 56.990384 
L 92.943872 57.743331 
L 94.168851 57.108246 
L 96.61881 58.381463 
L 97.843789 58.112289 
L 99.068768 55.268229 
L 102.743705 56.413823 
L 105.193663 57.691306 
L 106.418642 58.039258 
L 107.643622 58.116476 
L 108.868601 58.504232 
L 110.09358 59.073429 
L 111.318559 58.385934 
L 113.768517 59.412851 
L 114.993496 59.200903 
L 116.218475 56.203239 
L 117.443454 55.679832 
L 118.668434 56.237344 
L 119.893413 55.582229 
L 122.343371 56.566889 
L 123.56835 57.02705 
L 124.793329 55.029813 
L 126.018308 54.285291 
L 127.243287 53.186745 
L 128.468266 53.584461 
L 129.693246 53.59648 
L 130.918225 53.939506 
L 132.143204 53.411414 
L 133.368183 53.477592 
L 134.593162 52.952989 
L 135.818141 53.11519 
L 138.268099 54.0791 
L 139.493079 53.063372 
L 140.718058 53.542598 
L 141.943037 53.395034 
L 143.168016 52.35331 
L 144.392995 52.81307 
L 145.617974 52.442158 
L 146.842953 51.888307 
L 148.067932 48.784058 
L 149.292911 48.914593 
L 154.192828 50.048234 
L 155.417807 49.693773 
L 159.092744 50.770134 
L 160.317723 49.625134 
L 163.992661 50.371754 
L 165.21764 50.41435 
L 166.442619 50.831021 
L 167.667598 50.088128 
L 168.892577 50.49788 
L 170.117556 50.565758 
L 171.342536 49.722587 
L 172.567515 50.122389 
L 173.792494 50.004015 
L 175.017473 50.400814 
L 176.242452 49.467821 
L 177.467431 48.891894 
L 178.69241 49.030822 
L 179.917389 49.026009 
L 181.142368 47.980113 
L 183.592327 48.476562 
L 184.817306 48.855242 
L 187.267264 48.965574 
L 188.492243 48.710242 
L 189.717222 49.073043 
L 190.942201 48.392423 
L 192.16718 47.023831 
L 193.39216 47.237838 
L 194.617139 47.272751 
L 197.067097 47.89816 
L 199.517055 48.147867 
L 201.967013 48.77063 
L 203.191992 48.852992 
L 204.416972 48.735828 
L 208.091909 49.428999 
L 209.316888 47.810607 
L 210.541867 48.134629 
L 211.766846 48.079425 
L 212.991825 48.209847 
L 215.441784 48.843567 
L 219.116721 49.277562 
L 220.3417 49.523711 
L 221.566679 48.793256 
L 225.241617 49.596898 
L 226.466596 49.893979 
L 228.916554 50.186581 
L 230.141533 50.453545 
L 231.366512 50.172573 
L 232.591491 49.07326 
L 233.81647 48.610861 
L 235.041449 48.889392 
L 236.266429 48.607416 
L 237.491408 48.837219 
L 238.716387 48.726539 
L 241.166345 49.277194 
L 242.391324 49.3985 
L 243.616303 49.649591 
L 244.841282 49.479991 
L 247.291241 50.012458 
L 248.51622 49.63854 
L 252.191157 49.707664 
L 255.866094 50.432383 
L 257.091074 50.440167 
L 258.316053 50.665431 
L 259.541032 49.966786 
L 261.99099 50.32041 
L 263.215969 50.43945 
L 264.440948 49.43293 
L 269.340865 50.077657 
L 271.790823 50.351348 
L 276.690739 50.778397 
L 277.915718 50.589926 
L 279.140698 50.761901 
L 280.365677 50.706843 
L 281.590656 50.917236 
L 282.815635 50.850542 
L 286.490572 51.425262 
L 287.715551 51.168133 
L 288.94053 50.017214 
L 291.390489 50.149573 
L 292.615468 50.347791 
L 297.515384 50.14509 
L 299.965343 50.37113 
L 301.190322 49.006974 
L 302.415301 49.207237 
L 303.64028 49.221452 
L 306.090238 49.601627 
L 307.315217 49.082864 
L 308.540196 49.21184 
L 309.765175 49.106457 
L 310.990155 49.283508 
L 313.440113 48.706232 
L 314.665092 48.835398 
L 315.890071 48.686098 
L 317.11505 48.699855 
L 318.340029 48.880574 
L 319.565008 48.84391 
L 320.789987 49.010951 
L 322.014967 48.757297 
L 325.689904 49.271845 
L 326.914883 49.229705 
L 329.364841 49.480523 
L 330.58982 49.296675 
L 331.814799 49.414897 
L 333.039779 49.268785 
L 334.264758 47.028 
L 336.714716 47.20098 
L 337.939695 47.365759 
L 340.389653 46.35333 
L 342.839612 46.730216 
L 345.28957 46.315325 
L 346.514549 46.486647 
L 347.739528 46.295194 
L 350.189486 46.678008 
L 351.414465 46.520559 
L 353.864424 46.733092 
L 356.314382 47.043347 
L 359.989319 47.386839 
L 361.214298 47.2229 
L 362.439277 47.191628 
L 364.889236 47.422053 
L 366.114215 47.420196 
L 369.789152 47.884382 
L 371.014131 47.937398 
L 373.464089 48.267799 
L 374.689069 48.10368 
L 377.139027 48.360112 
L 379.588985 48.535505 
L 382.038943 48.625302 
L 386.93886 49.263315 
L 388.163839 48.338558 
L 390.613797 48.473138 
L 391.838776 47.993656 
L 393.063755 48.161661 
L 395.513713 48.374394 
L 397.963672 48.652317 
L 399.188651 48.664508 
L 404.088567 49.23636 
L 405.313546 49.002594 
L 406.538525 49.159026 
L 408.988484 48.97691 
L 412.663421 49.379051 
L 416.338358 49.678194 
L 417.563338 49.590534 
L 418.788317 49.173583 
L 420.013296 49.285757 
L 421.238275 49.133638 
L 423.688233 49.379436 
L 426.138191 49.591526 
L 429.813129 49.974523 
L 431.038108 49.759815 
L 434.713045 50.0417 
L 437.163003 50.167083 
L 439.612962 50.384102 
L 440.837941 50.387468 
L 443.287899 50.190571 
L 445.737857 50.400765 
L 446.962836 50.084521 
L 450.637774 50.146496 
L 453.087732 50.350796 
L 455.53769 50.509297 
L 462.887565 51.249958 
L 465.337523 51.184826 
L 466.562502 50.767274 
L 467.787481 50.899019 
L 469.01246 50.882691 
L 473.912377 51.305197 
L 475.137356 51.097374 
L 478.812293 51.319952 
L 481.262251 51.192667 
L 482.487231 51.311841 
L 483.71221 51.009445 
L 486.162168 51.12989 
L 489.837105 51.35863 
L 492.287063 51.43094 
L 495.962001 51.398909 
L 497.18698 51.511145 
L 499.636938 51.441684 
L 502.086896 51.525573 
L 503.311876 51.246212 
L 504.536855 51.298557 
L 505.761834 51.129642 
L 506.986813 51.184197 
L 508.211792 51.05081 
L 514.336688 51.582854 
L 515.561667 51.56381 
L 515.561667 51.56381 
" clip-path="url(#p413f71ad33)" style="fill: none; stroke-dasharray: 5.55,2.4; stroke-dashoffset: 0; stroke: #ff8c00; stroke-width: 1.5"/>
   </g>
   <g id="patch_3">
    <path d="M 26.795 98.44 
L 26.795 0 
" style="fill: none; stroke: #000000; stroke-width: 0.8; stroke-linejoin: miter; stroke-linecap: square"/>
   </g>
   <g id="patch_4">
    <path d="M 540 98.44 
L 540 0 
" style="fill: none; stroke: #000000; stroke-width: 0.8; stroke-linejoin: miter; stroke-linecap: square"/>
   </g>
   <g id="patch_5">
    <path d="M 26.795 98.44 
L 540 98.44 
" style="fill: none; stroke: #000000; stroke-width: 0.8; stroke-linejoin: miter; stroke-linecap: square"/>
   </g>
   <g id="patch_6">
    <path d="M 26.795 0 
L 540 0 
" style="fill: none; stroke: #000000; stroke-width: 0.8; stroke-linejoin: miter; stroke-linecap: square"/>
   </g>
  </g>
 </g>
 <defs>
  <clipPath id="p413f71ad33">
   <rect x="26.795" y="0" width="513.205" height="98.44"/>
  </clipPath>
 </defs>
</svg>
