<?xml version="1.0" encoding="utf-8" standalone="no"?>
<!DOCTYPE svg PUBLIC "-//W3C//DTD SVG 1.1//EN"
  "http://www.w3.org/Graphics/SVG/1.1/DTD/svg11.dtd">
<svg xmlns:xlink="http://www.w3.org/1999/xlink" width="540pt" height="129.6pt" viewBox="0 0 540 129.6" xmlns="http://www.w3.org/2000/svg" version="1.1">
 <metadata>
  <rdf:RDF xmlns:dc="http://purl.org/dc/elements/1.1/" xmlns:cc="http://creativecommons.org/ns#" xmlns:rdf="http://www.w3.org/1999/02/22-rdf-syntax-ns#">
   <cc:Work>
    <dc:type rdf:resource="http://purl.org/dc/dcmitype/StillImage"/>
    <dc:date>2025-03-22T21:15:18.948970</dc:date>
    <dc:format>image/svg+xml</dc:format>
    <dc:creator>
     <cc:Agent>
      <dc:title>Matplotlib v3.8.3, https://matplotlib.org/</dc:title>
     </cc:Agent>
    </dc:creator>
   </cc:Work>
  </rdf:RDF>
 </metadata>
 <defs>
  <style type="text/css">*{stroke-linejoin: round; stroke-linecap: butt}</style>
 </defs>
 <g id="figure_1">
  <g id="patch_1">
   <path d="M 0 129.6 
L 540 129.6 
L 540 0 
L 0 0 
z
" style="fill: #ffffff"/>
  </g>
  <g id="axes_1">
   <g id="patch_2">
    <path d="M 35.12 97 
L 540 97 
L 540 3.96 
L 35.12 3.96 
z
" style="fill: #ffffff"/>
   </g>
   <g id="matplotlib.axis_1">
    <g id="xtick_1">
     <g id="line2d_1">
      <path d="M 35.12 97 
L 35.12 3.96 
" clip-path="url(#p760f73d7d4)" style="fill: none; stroke: #b0b0b0; stroke-width: 0.8; stroke-linecap: square"/>
     </g>
     <g id="line2d_2">
      <defs>
       <path id="mbc6ed0ae59" d="M 0 0 
L 0 3.5 
" style="stroke: #000000; stroke-width: 0.8"/>
      </defs>
      <g>
       <use xlink:href="#mbc6ed0ae59" x="35.12" y="97" style="stroke: #000000; stroke-width: 0.8"/>
      </g>
     </g>
     <g id="text_1">
      <text style="font: 10px 'Times New Roman'; text-anchor: middle" x="35.12" y="110.94375" transform="rotate(-0 35.12 110.94375)">0</text>
     </g>
    </g>
    <g id="xtick_2">
     <g id="line2d_3">
      <path d="M 95.3754 97 
L 95.3754 3.96 
" clip-path="url(#p760f73d7d4)" style="fill: none; stroke: #b0b0b0; stroke-width: 0.8; stroke-linecap: square"/>
     </g>
     <g id="line2d_4">
      <g>
       <use xlink:href="#mbc6ed0ae59" x="95.3754" y="97" style="stroke: #000000; stroke-width: 0.8"/>
      </g>
     </g>
     <g id="text_2">
      <text style="font: 10px 'Times New Roman'; text-anchor: middle" x="95.3754" y="110.94375" transform="rotate(-0 95.3754 110.94375)">50</text>
     </g>
    </g>
    <g id="xtick_3">
     <g id="line2d_5">
      <path d="M 155.630801 97 
L 155.630801 3.96 
" clip-path="url(#p760f73d7d4)" style="fill: none; stroke: #b0b0b0; stroke-width: 0.8; stroke-linecap: square"/>
     </g>
     <g id="line2d_6">
      <g>
       <use xlink:href="#mbc6ed0ae59" x="155.630801" y="97" style="stroke: #000000; stroke-width: 0.8"/>
      </g>
     </g>
     <g id="text_3">
      <text style="font: 10px 'Times New Roman'; text-anchor: middle" x="155.630801" y="110.94375" transform="rotate(-0 155.630801 110.94375)">100</text>
     </g>
    </g>
    <g id="xtick_4">
     <g id="line2d_7">
      <path d="M 215.886201 97 
L 215.886201 3.96 
" clip-path="url(#p760f73d7d4)" style="fill: none; stroke: #b0b0b0; stroke-width: 0.8; stroke-linecap: square"/>
     </g>
     <g id="line2d_8">
      <g>
       <use xlink:href="#mbc6ed0ae59" x="215.886201" y="97" style="stroke: #000000; stroke-width: 0.8"/>
      </g>
     </g>
     <g id="text_4">
      <text style="font: 10px 'Times New Roman'; text-anchor: middle" x="215.886201" y="110.94375" transform="rotate(-0 215.886201 110.94375)">150</text>
     </g>
    </g>
    <g id="xtick_5">
     <g id="line2d_9">
      <path d="M 276.141602 97 
L 276.141602 3.96 
" clip-path="url(#p760f73d7d4)" style="fill: none; stroke: #b0b0b0; stroke-width: 0.8; stroke-linecap: square"/>
     </g>
     <g id="line2d_10">
      <g>
       <use xlink:href="#mbc6ed0ae59" x="276.141602" y="97" style="stroke: #000000; stroke-width: 0.8"/>
      </g>
     </g>
     <g id="text_5">
      <text style="font: 10px 'Times New Roman'; text-anchor: middle" x="276.141602" y="110.94375" transform="rotate(-0 276.141602 110.94375)">200</text>
     </g>
    </g>
    <g id="xtick_6">
     <g id="line2d_11">
      <path d="M 336.397002 97 
L 336.397002 3.96 
" clip-path="url(#p760f73d7d4)" style="fill: none; stroke: #b0b0b0; stroke-width: 0.8; stroke-linecap: square"/>
     </g>
     <g id="line2d_12">
      <g>
       <use xlink:href="#mbc6ed0ae59" x="336.397002" y="97" style="stroke: #000000; stroke-width: 0.8"/>
      </g>
     </g>
     <g id="text_6">
      <text style="font: 10px 'Times New Roman'; text-anchor: middle" x="336.397002" y="110.94375" transform="rotate(-0 336.397002 110.94375)">250</text>
     </g>
    </g>
    <g id="xtick_7">
     <g id="line2d_13">
      <path d="M 396.652402 97 
L 396.652402 3.96 
" clip-path="url(#p760f73d7d4)" style="fill: none; stroke: #b0b0b0; stroke-width: 0.8; stroke-linecap: square"/>
     </g>
     <g id="line2d_14">
      <g>
       <use xlink:href="#mbc6ed0ae59" x="396.652402" y="97" style="stroke: #000000; stroke-width: 0.8"/>
      </g>
     </g>
     <g id="text_7">
      <text style="font: 10px 'Times New Roman'; text-anchor: middle" x="396.652402" y="110.94375" transform="rotate(-0 396.652402 110.94375)">300</text>
     </g>
    </g>
    <g id="xtick_8">
     <g id="line2d_15">
      <path d="M 456.907803 97 
L 456.907803 3.96 
" clip-path="url(#p760f73d7d4)" style="fill: none; stroke: #b0b0b0; stroke-width: 0.8; stroke-linecap: square"/>
     </g>
     <g id="line2d_16">
      <g>
       <use xlink:href="#mbc6ed0ae59" x="456.907803" y="97" style="stroke: #000000; stroke-width: 0.8"/>
      </g>
     </g>
     <g id="text_8">
      <text style="font: 10px 'Times New Roman'; text-anchor: middle" x="456.907803" y="110.94375" transform="rotate(-0 456.907803 110.94375)">350</text>
     </g>
    </g>
    <g id="xtick_9">
     <g id="line2d_17">
      <path d="M 517.163203 97 
L 517.163203 3.96 
" clip-path="url(#p760f73d7d4)" style="fill: none; stroke: #b0b0b0; stroke-width: 0.8; stroke-linecap: square"/>
     </g>
     <g id="line2d_18">
      <g>
       <use xlink:href="#mbc6ed0ae59" x="517.163203" y="97" style="stroke: #000000; stroke-width: 0.8"/>
      </g>
     </g>
     <g id="text_9">
      <text style="font: 10px 'Times New Roman'; text-anchor: middle" x="517.163203" y="110.94375" transform="rotate(-0 517.163203 110.94375)">400</text>
     </g>
    </g>
    <g id="text_10">
     <text style="font: 12px 'Times New Roman'; text-anchor: middle" x="287.56" y="125.415312" transform="rotate(-0 287.56 125.415312)">Simulation Run</text>
    </g>
   </g>
   <g id="matplotlib.axis_2">
    <g id="ytick_1">
     <g id="line2d_19">
      <path d="M 35.12 97 
L 540 97 
" clip-path="url(#p760f73d7d4)" style="fill: none; stroke: #b0b0b0; stroke-width: 0.8; stroke-linecap: square"/>
     </g>
     <g id="line2d_20">
      <defs>
       <path id="m6ffaa567c8" d="M 0 0 
L -3.5 0 
" style="stroke: #000000; stroke-width: 0.8"/>
      </defs>
      <g>
       <use xlink:href="#m6ffaa567c8" x="35.12" y="97" style="stroke: #000000; stroke-width: 0.8"/>
      </g>
     </g>
     <g id="text_11">
      <text style="font: 10px 'Times New Roman'; text-anchor: end" x="28.12" y="100.471875" transform="rotate(-0 28.12 100.471875)">0.0</text>
     </g>
    </g>
    <g id="ytick_2">
     <g id="line2d_21">
      <path d="M 35.12 65.986667 
L 540 65.986667 
" clip-path="url(#p760f73d7d4)" style="fill: none; stroke: #b0b0b0; stroke-width: 0.8; stroke-linecap: square"/>
     </g>
     <g id="line2d_22">
      <g>
       <use xlink:href="#m6ffaa567c8" x="35.12" y="65.986667" style="stroke: #000000; stroke-width: 0.8"/>
      </g>
     </g>
     <g id="text_12">
      <text style="font: 10px 'Times New Roman'; text-anchor: end" x="28.12" y="69.458542" transform="rotate(-0 28.12 69.458542)">0.5</text>
     </g>
    </g>
    <g id="ytick_3">
     <g id="line2d_23">
      <path d="M 35.12 34.973333 
L 540 34.973333 
" clip-path="url(#p760f73d7d4)" style="fill: none; stroke: #b0b0b0; stroke-width: 0.8; stroke-linecap: square"/>
     </g>
     <g id="line2d_24">
      <g>
       <use xlink:href="#m6ffaa567c8" x="35.12" y="34.973333" style="stroke: #000000; stroke-width: 0.8"/>
      </g>
     </g>
     <g id="text_13">
      <text style="font: 10px 'Times New Roman'; text-anchor: end" x="28.12" y="38.445208" transform="rotate(-0 28.12 38.445208)">1.0</text>
     </g>
    </g>
    <g id="ytick_4">
     <g id="line2d_25">
      <path d="M 35.12 3.96 
L 540 3.96 
" clip-path="url(#p760f73d7d4)" style="fill: none; stroke: #b0b0b0; stroke-width: 0.8; stroke-linecap: square"/>
     </g>
     <g id="line2d_26">
      <g>
       <use xlink:href="#m6ffaa567c8" x="35.12" y="3.96" style="stroke: #000000; stroke-width: 0.8"/>
      </g>
     </g>
     <g id="text_14">
      <text style="font: 10px 'Times New Roman'; text-anchor: end" x="28.12" y="7.431875" transform="rotate(-0 28.12 7.431875)">1.5</text>
     </g>
    </g>
    <g id="text_15">
     <text style="font: 12px 'Times New Roman'; text-anchor: middle" x="9.053125" y="50.48" transform="rotate(-90 9.053125 50.48)">Normalized Value</text>
    </g>
   </g>
   <g id="line2d_27">
    <path d="M 35.12 43.580975 
L 36.325108 28.522854 
L 37.530216 38.148603 
L 38.735324 32.65216 
L 39.940432 32.424297 
L 41.14554 34.666691 
L 42.350648 37.179302 
L 43.555756 38.135193 
L 44.760864 39.375314 
L 45.965972 40.881651 
L 47.17108 41.714007 
L 48.376188 41.890822 
L 49.581296 41.601476 
L 50.786404 40.798945 
L 51.991512 41.192205 
L 53.19662 40.694194 
L 54.401728 38.828149 
L 55.606836 40.181977 
L 58.017052 41.391028 
L 59.22216 40.629219 
L 60.427268 40.577797 
L 61.632376 38.443844 
L 62.837484 38.450754 
L 64.042592 38.087535 
L 65.2477 37.428873 
L 66.452808 37.212407 
L 67.657916 37.609614 
L 68.863024 37.686659 
L 72.478348 37.166473 
L 74.888564 38.194843 
L 76.093672 38.500557 
L 78.503888 39.492437 
L 80.914104 38.693327 
L 82.119212 39.003622 
L 83.32432 38.545684 
L 84.529428 38.788504 
L 85.734536 37.893679 
L 86.939644 38.192068 
L 88.144752 38.671054 
L 89.34986 38.254466 
L 91.760076 38.628202 
L 94.170292 38.276195 
L 95.3754 38.642942 
L 96.580508 38.4854 
L 97.785616 38.694347 
L 98.990724 38.607975 
L 102.606048 37.817472 
L 103.811156 37.826661 
L 105.016264 37.539453 
L 106.221372 37.869103 
L 107.42648 37.374122 
L 109.836697 37.82304 
L 111.041805 37.983375 
L 114.657129 38.012368 
L 117.067345 37.263697 
L 118.272453 37.672601 
L 119.477561 37.401649 
L 120.682669 36.971731 
L 125.503101 37.158861 
L 126.708209 37.223134 
L 127.913317 36.861046 
L 129.118425 36.701197 
L 131.528641 36.848157 
L 132.733749 37.008904 
L 133.938857 36.88748 
L 136.349073 37.16512 
L 137.554181 37.172261 
L 143.579721 37.935936 
L 144.784829 37.849998 
L 145.989937 38.05228 
L 147.195045 37.818519 
L 149.605261 37.93873 
L 152.015477 37.715101 
L 153.220585 37.753002 
L 154.425693 37.679224 
L 155.630801 37.807944 
L 158.041017 37.578434 
L 159.246125 37.626783 
L 161.656341 37.029989 
L 162.861449 37.186729 
L 164.066557 36.933909 
L 166.476773 36.789281 
L 167.681881 36.996847 
L 170.092097 36.648904 
L 171.297205 36.826584 
L 172.502313 36.782363 
L 176.117637 37.016205 
L 177.322745 37.239468 
L 178.527853 37.288892 
L 179.732961 37.101321 
L 180.938069 37.078831 
L 182.143177 36.914052 
L 186.963609 36.781102 
L 188.168717 36.799869 
L 189.373825 36.451312 
L 190.578933 36.305319 
L 191.784041 36.007457 
L 192.989149 35.866265 
L 195.399365 35.895556 
L 196.604473 35.783143 
L 200.219797 35.996068 
L 202.630013 36.312751 
L 212.270877 36.577022 
L 213.475985 36.441676 
L 214.681093 36.497495 
L 219.501525 36.134578 
L 220.706633 36.241732 
L 221.911741 36.119823 
L 233.962821 36.054724 
L 235.167929 35.906305 
L 239.988361 35.841091 
L 241.193469 35.7509 
L 246.013901 35.848607 
L 248.424117 35.411735 
L 250.834333 35.518864 
L 253.244549 35.413311 
L 254.449657 35.404957 
L 255.654765 35.542224 
L 259.27009 35.448647 
L 261.680306 35.53167 
L 262.885414 35.542254 
L 264.090522 35.709697 
L 266.500738 35.524057 
L 268.910954 35.605864 
L 271.32117 35.808754 
L 274.936494 35.73273 
L 277.34671 35.636336 
L 278.551818 35.56532 
L 279.756926 35.330481 
L 283.37225 35.348948 
L 293.013114 34.957959 
L 295.42333 35.122925 
L 301.44887 35.142634 
L 302.653978 35.137664 
L 303.859086 35.020111 
L 308.679518 34.922268 
L 313.49995 34.853453 
L 325.55103 34.940117 
L 326.756138 34.754597 
L 330.371462 34.88718 
L 331.57657 34.770732 
L 338.807218 34.853083 
L 343.62765 34.967824 
L 347.242974 35.009545 
L 348.448082 35.082429 
L 350.858298 35.080049 
L 353.268514 35.064744 
L 354.473622 34.95747 
L 356.883838 34.936295 
L 359.294054 35.000754 
L 365.319594 35.144688 
L 368.934918 35.01702 
L 384.601322 35.288625 
L 388.216646 35.404168 
L 397.85751 35.425502 
L 411.113699 35.53775 
L 412.318807 35.464099 
L 414.729023 35.564836 
L 417.139239 35.422256 
L 420.754563 35.535494 
L 421.959671 35.358152 
L 424.369887 35.328516 
L 427.985211 35.307153 
L 441.241399 35.436027 
L 442.446507 35.239188 
L 443.651615 35.178477 
L 446.061831 35.259179 
L 454.497587 34.969762 
L 460.523127 35.077132 
L 465.343559 35.123177 
L 467.753775 35.049769 
L 470.163991 35.052786 
L 474.984423 35.026044 
L 479.804855 35.09872 
L 483.420179 35.235913 
L 485.830395 35.178119 
L 489.445719 35.158032 
L 493.061043 35.194212 
L 495.471259 35.096746 
L 505.112123 35.137109 
L 515.958095 34.973333 
L 515.958095 34.973333 
" clip-path="url(#p760f73d7d4)" style="fill: none; stroke: #4169e1; stroke-width: 1.5; stroke-linecap: square"/>
   </g>
   <g id="line2d_28">
    <path d="M 35.12 97 
L 36.325108 41.900633 
L 37.530216 15.236868 
L 38.735324 13.653981 
L 39.940432 30.272717 
L 41.14554 35.284524 
L 42.350648 34.896381 
L 43.555756 41.105085 
L 44.760864 44.325965 
L 45.965972 44.630964 
L 47.17108 47.708247 
L 48.376188 51.732326 
L 49.581296 54.970325 
L 50.786404 55.937876 
L 51.991512 58.14922 
L 53.19662 59.673382 
L 54.401728 48.330595 
L 55.606836 43.46297 
L 56.811944 44.662046 
L 58.017052 45.612832 
L 59.22216 45.239335 
L 60.427268 47.578599 
L 61.632376 25.38305 
L 62.837484 28.366822 
L 64.042592 30.342748 
L 65.2477 30.270945 
L 66.452808 32.446346 
L 67.657916 33.716685 
L 68.863024 35.858481 
L 70.068132 37.628606 
L 71.27324 39.05655 
L 72.478348 40.833805 
L 73.683456 39.980461 
L 74.888564 39.996537 
L 76.093672 40.853033 
L 77.29878 39.92877 
L 78.503888 39.688247 
L 79.708996 39.954316 
L 80.914104 39.73009 
L 82.119212 40.24937 
L 83.32432 39.595188 
L 84.529428 40.374535 
L 85.734536 33.519366 
L 86.939644 34.031776 
L 88.144752 32.978038 
L 89.34986 32.4721 
L 91.760076 34.377367 
L 94.170292 36.152421 
L 95.3754 35.711299 
L 96.580508 36.58234 
L 97.785616 37.170624 
L 98.990724 38.182499 
L 100.195832 38.209418 
L 101.40094 37.889636 
L 102.606048 38.443039 
L 103.811156 39.451472 
L 105.016264 39.264278 
L 106.221372 38.668555 
L 107.42648 36.05263 
L 108.631588 35.96321 
L 111.041805 36.996875 
L 114.657129 39.635274 
L 115.862237 38.354362 
L 117.067345 36.723938 
L 118.272453 34.781548 
L 119.477561 34.409078 
L 120.682669 32.089531 
L 124.297993 34.651833 
L 125.503101 34.85725 
L 126.708209 35.588006 
L 127.913317 33.922189 
L 129.118425 34.236336 
L 131.528641 35.571598 
L 132.733749 35.812126 
L 133.938857 36.255547 
L 135.143965 36.215851 
L 136.349073 36.789802 
L 137.554181 37.488867 
L 138.759289 37.544669 
L 141.169505 37.187323 
L 142.374613 37.302584 
L 143.579721 37.937704 
L 144.784829 38.416372 
L 145.989937 38.131544 
L 147.195045 37.52291 
L 148.400153 37.911552 
L 149.605261 38.519362 
L 150.810369 38.741929 
L 152.015477 39.119424 
L 154.425693 40.112222 
L 155.630801 40.272852 
L 156.835909 40.558148 
L 158.041017 40.722201 
L 159.246125 41.204827 
L 160.451233 39.10657 
L 161.656341 37.734104 
L 162.861449 37.655185 
L 164.066557 36.542743 
L 165.271665 37.017991 
L 166.476773 37.350539 
L 168.886989 36.058302 
L 170.092097 36.097093 
L 171.297205 35.764445 
L 172.502313 36.242755 
L 173.707421 36.565831 
L 174.912529 37.060197 
L 176.117637 37.151527 
L 177.322745 36.225162 
L 178.527853 36.660982 
L 179.732961 36.133724 
L 180.938069 36.617756 
L 182.143177 36.303711 
L 184.553393 37.176151 
L 185.758501 36.891066 
L 188.168717 37.769524 
L 189.373825 34.449806 
L 190.578933 34.262836 
L 191.784041 31.939023 
L 192.989149 31.797319 
L 195.399365 32.659365 
L 196.604473 32.724486 
L 197.809581 33.154981 
L 199.014689 33.135866 
L 200.219797 33.4945 
L 201.424905 32.83887 
L 202.630013 32.685758 
L 205.040229 33.538432 
L 206.245337 33.633492 
L 207.450445 34.067217 
L 208.655553 34.147187 
L 211.065769 34.989836 
L 212.270877 35.258329 
L 213.475985 35.013899 
L 217.091309 35.906343 
L 218.296417 35.92151 
L 219.501525 35.187319 
L 220.706633 35.156431 
L 221.911741 34.993095 
L 224.321957 35.672828 
L 225.527065 36.056776 
L 226.732173 35.829415 
L 227.937281 36.206919 
L 229.142389 36.017746 
L 231.552605 36.590196 
L 232.757713 36.24346 
L 233.962821 36.606581 
L 235.167929 36.079648 
L 238.783253 37.064141 
L 239.988361 37.366683 
L 241.193469 37.375378 
L 242.398577 37.692016 
L 243.603685 37.872448 
L 246.013901 37.775701 
L 247.219009 35.861142 
L 248.424117 34.351906 
L 249.629225 34.496634 
L 250.834333 34.780265 
L 252.039441 34.742229 
L 254.449657 35.413123 
L 255.654765 34.909931 
L 256.859873 35.160977 
L 258.064982 35.126142 
L 259.27009 35.383593 
L 260.475198 35.38013 
L 262.885414 36.023365 
L 264.090522 35.048131 
L 265.29563 34.546009 
L 266.500738 34.741825 
L 267.705846 35.054605 
L 268.910954 34.947006 
L 270.116062 34.407456 
L 271.32117 34.501875 
L 273.731386 35.108205 
L 276.141602 34.70164 
L 277.34671 35.008571 
L 278.551818 35.066397 
L 279.756926 32.649531 
L 283.37225 33.507273 
L 285.782466 33.889497 
L 286.987574 33.610755 
L 288.192682 33.893147 
L 289.39779 33.951875 
L 290.602898 32.870339 
L 293.013114 33.435237 
L 294.218222 32.8328 
L 299.038654 33.816868 
L 300.243762 33.807653 
L 302.653978 34.355893 
L 303.859086 33.886732 
L 307.47441 34.703332 
L 308.679518 34.662086 
L 309.884626 34.846188 
L 312.294842 35.034671 
L 315.910166 35.700966 
L 317.115274 35.60763 
L 321.935706 36.39629 
L 324.345922 35.399325 
L 325.55103 35.618982 
L 326.756138 33.847626 
L 329.166354 34.034846 
L 330.371462 34.246978 
L 331.57657 33.69045 
L 332.781678 33.945085 
L 333.986786 33.926561 
L 335.191894 34.177546 
L 336.397002 34.297932 
L 337.60211 33.176734 
L 340.012326 33.334002 
L 341.217434 33.581731 
L 342.422542 33.635739 
L 346.037866 34.369451 
L 347.242974 34.499304 
L 348.448082 34.403147 
L 350.858298 34.626828 
L 353.268514 35.03857 
L 354.473622 34.530469 
L 358.088946 34.997557 
L 359.294054 34.822363 
L 360.499162 34.967216 
L 361.70427 34.77623 
L 364.114486 35.035063 
L 365.319594 35.107844 
L 366.524702 34.984954 
L 367.72981 35.197691 
L 370.140026 35.507698 
L 374.960458 36.012541 
L 376.165566 35.974678 
L 378.575782 36.38044 
L 379.78089 36.239709 
L 382.191106 36.536747 
L 383.396214 36.727399 
L 385.80643 36.522823 
L 387.011538 36.288138 
L 389.421754 36.620471 
L 390.626862 36.087128 
L 393.037078 36.222225 
L 400.267726 37.229783 
L 403.88305 37.36851 
L 406.293266 37.679629 
L 408.703483 37.873047 
L 411.113699 38.209772 
L 412.318807 37.984428 
L 413.523915 37.566995 
L 414.729023 37.744583 
L 415.934131 37.239212 
L 418.344347 37.354169 
L 419.549455 37.518104 
L 420.754563 37.39527 
L 421.959671 35.127199 
L 423.164779 35.163394 
L 426.780103 35.657144 
L 427.985211 35.666147 
L 429.190319 35.841551 
L 430.395427 35.846164 
L 431.600535 35.659389 
L 434.010751 35.977775 
L 435.215859 35.875817 
L 441.241399 36.685807 
L 442.446507 33.681389 
L 443.651615 33.563998 
L 444.856723 33.175869 
L 446.061831 33.361903 
L 447.266939 33.289645 
L 448.472047 33.468628 
L 449.677155 33.455385 
L 450.882263 33.615809 
L 452.087371 33.616986 
L 453.292479 32.644949 
L 454.497587 32.828243 
L 458.112911 33.058187 
L 461.728235 33.51788 
L 465.343559 33.92251 
L 466.548667 33.744393 
L 467.753775 33.912008 
L 471.369099 34.01649 
L 474.984423 34.431472 
L 477.394639 34.677255 
L 478.599747 34.714571 
L 479.804855 34.882797 
L 481.009963 34.669128 
L 483.420179 34.756814 
L 484.625287 34.293622 
L 488.240611 34.565447 
L 489.445719 34.133128 
L 493.061043 34.575369 
L 494.266151 33.992583 
L 500.291691 34.696309 
L 506.317231 35.320479 
L 507.522339 34.795817 
L 512.342771 35.099205 
L 513.547879 34.949046 
L 514.752987 35.022714 
L 515.958095 34.973333 
L 515.958095 34.973333 
" clip-path="url(#p760f73d7d4)" style="fill: none; stroke-dasharray: 5.55,2.4; stroke-dashoffset: 0; stroke: #4169e1; stroke-width: 1.5"/>
   </g>
   <g id="line2d_29">
    <path d="M 35.12 44.216557 
L 36.325108 29.844297 
L 37.530216 38.474764 
L 38.735324 33.160781 
L 39.940432 32.652144 
L 42.350648 36.509271 
L 43.555756 37.422983 
L 44.760864 38.600157 
L 45.965972 40.175882 
L 47.17108 40.90273 
L 49.581296 41.224736 
L 50.786404 40.830941 
L 51.991512 40.96131 
L 53.19662 40.272112 
L 54.401728 38.359546 
L 55.606836 39.655794 
L 56.811944 40.073291 
L 58.017052 40.686393 
L 59.22216 40.131544 
L 60.427268 40.09938 
L 61.632376 38.097653 
L 62.837484 38.112136 
L 64.042592 37.691936 
L 65.2477 36.905378 
L 66.452808 36.758951 
L 67.657916 37.143349 
L 68.863024 37.278556 
L 71.27324 36.701345 
L 72.478348 36.625212 
L 73.683456 37.221826 
L 74.888564 37.62143 
L 76.093672 37.828031 
L 78.503888 38.715097 
L 80.914104 38.017222 
L 82.119212 38.269726 
L 83.32432 37.833012 
L 84.529428 38.068401 
L 85.734536 37.451932 
L 86.939644 37.635062 
L 88.144752 38.135475 
L 89.34986 37.850595 
L 91.760076 38.160811 
L 94.170292 37.894273 
L 95.3754 38.272246 
L 96.580508 38.040306 
L 97.785616 38.266234 
L 98.990724 38.153833 
L 102.606048 37.297789 
L 103.811156 37.283239 
L 105.016264 36.995982 
L 106.221372 37.272013 
L 107.42648 36.814646 
L 111.041805 37.363579 
L 114.657129 37.430172 
L 117.067345 36.669884 
L 118.272453 37.00886 
L 120.682669 36.354152 
L 124.297993 36.332391 
L 125.503101 36.557767 
L 126.708209 36.612325 
L 127.913317 36.249532 
L 129.118425 36.105344 
L 131.528641 36.20891 
L 132.733749 36.349149 
L 133.938857 36.300201 
L 136.349073 36.471665 
L 137.554181 36.481884 
L 142.374613 37.160543 
L 143.579721 37.243625 
L 144.784829 37.198036 
L 145.989937 37.367306 
L 147.195045 37.233121 
L 149.605261 37.337468 
L 152.015477 37.105701 
L 155.630801 37.212738 
L 159.246125 37.139491 
L 161.656341 36.603348 
L 162.861449 36.742579 
L 164.066557 36.603274 
L 167.681881 36.729278 
L 168.886989 36.509477 
L 170.092097 36.457475 
L 171.297205 36.616726 
L 172.502313 36.53059 
L 178.527853 36.897013 
L 179.732961 36.728548 
L 182.143177 36.621024 
L 185.758501 36.467931 
L 188.168717 36.509027 
L 189.373825 36.184386 
L 190.578933 36.039178 
L 191.784041 35.74434 
L 192.989149 35.615706 
L 195.399365 35.662452 
L 196.604473 35.550799 
L 200.219797 35.755995 
L 202.630013 36.044061 
L 207.450445 36.166366 
L 209.860661 36.234627 
L 213.475985 36.200583 
L 214.681093 36.263142 
L 221.911741 35.995759 
L 233.962821 35.853107 
L 235.167929 35.698173 
L 238.783253 35.670641 
L 242.398577 35.610082 
L 243.603685 35.671757 
L 244.808793 35.578732 
L 246.013901 35.67122 
L 248.424117 35.308775 
L 250.834333 35.420609 
L 253.244549 35.303297 
L 254.449657 35.294098 
L 255.654765 35.415288 
L 259.27009 35.33103 
L 261.680306 35.333275 
L 262.885414 35.346267 
L 264.090522 35.500447 
L 266.500738 35.331561 
L 268.910954 35.391289 
L 271.32117 35.576648 
L 274.936494 35.482117 
L 277.34671 35.391706 
L 278.551818 35.330682 
L 279.756926 35.103331 
L 285.782466 35.047753 
L 291.808006 34.727363 
L 293.013114 34.741611 
L 295.42333 34.903763 
L 302.653978 34.904966 
L 303.859086 34.77672 
L 319.52549 34.70368 
L 323.140814 34.83962 
L 324.345922 34.753108 
L 325.55103 34.779074 
L 326.756138 34.601976 
L 330.371462 34.750796 
L 331.57657 34.637457 
L 338.807218 34.749283 
L 344.832758 34.826348 
L 349.65319 34.894442 
L 353.268514 34.927977 
L 354.473622 34.826486 
L 356.883838 34.828145 
L 359.294054 34.884144 
L 365.319594 35.054182 
L 368.934918 34.912757 
L 374.960458 34.909948 
L 377.370674 34.974469 
L 379.78089 35.031332 
L 388.216646 35.291142 
L 400.267726 35.279041 
L 403.88305 35.331744 
L 407.498375 35.376206 
L 411.113699 35.404524 
L 412.318807 35.324344 
L 414.729023 35.416134 
L 417.139239 35.284661 
L 420.754563 35.391878 
L 423.164779 35.200168 
L 426.780103 35.243229 
L 429.190319 35.208979 
L 434.010751 35.34492 
L 436.420967 35.32034 
L 441.241399 35.347078 
L 442.446507 35.170813 
L 443.651615 35.113891 
L 446.061831 35.175558 
L 454.497587 34.932817 
L 464.138451 35.086739 
L 476.189531 35.020076 
L 485.830395 35.192011 
L 490.650827 35.193354 
L 493.061043 35.2079 
L 495.471259 35.117366 
L 505.112123 35.158041 
L 515.958095 34.973333 
L 515.958095 34.973333 
" clip-path="url(#p760f73d7d4)" style="fill: none; stroke: #ff8c00; stroke-width: 1.5; stroke-linecap: square"/>
   </g>
   <g id="line2d_30">
    <path d="M 35.12 97 
L 36.325108 37.665114 
L 37.530216 14.651811 
L 38.735324 10.904413 
L 39.940432 27.82627 
L 41.14554 34.243765 
L 42.350648 36.515972 
L 43.555756 42.397764 
L 44.760864 45.280249 
L 45.965972 44.033284 
L 47.17108 47.330876 
L 48.376188 51.39341 
L 49.581296 54.806226 
L 51.991512 59.823234 
L 53.19662 60.100151 
L 54.401728 45.458996 
L 55.606836 40.117269 
L 56.811944 42.20986 
L 59.22216 43.705483 
L 60.427268 46.121721 
L 61.632376 23.012133 
L 62.837484 26.093575 
L 64.042592 27.712573 
L 65.2477 25.934626 
L 66.452808 28.406545 
L 67.657916 29.710307 
L 68.863024 31.883608 
L 70.068132 33.179168 
L 71.27324 34.6858 
L 72.478348 36.581505 
L 73.683456 35.140499 
L 74.888564 35.446217 
L 76.093672 36.788025 
L 77.29878 36.055673 
L 78.503888 36.064919 
L 79.708996 36.598021 
L 80.914104 36.566317 
L 82.119212 37.362892 
L 83.32432 36.626099 
L 84.529428 37.41102 
L 85.734536 34.211891 
L 86.939644 35.224657 
L 88.144752 33.432471 
L 89.34986 33.765321 
L 90.554968 34.845466 
L 91.760076 35.756919 
L 92.965184 36.513327 
L 94.170292 37.638826 
L 95.3754 36.750894 
L 97.785616 37.488778 
L 98.990724 38.398498 
L 100.195832 38.143361 
L 101.40094 37.671504 
L 102.606048 37.676264 
L 103.811156 38.695621 
L 106.221372 37.995942 
L 107.42648 35.357928 
L 108.631588 35.565342 
L 109.836697 36.189035 
L 111.041805 36.440103 
L 114.657129 39.112041 
L 115.862237 36.875544 
L 117.067345 35.21912 
L 118.272453 33.824267 
L 119.477561 32.938883 
L 120.682669 31.220865 
L 124.297993 33.828055 
L 125.503101 33.564966 
L 126.708209 34.323816 
L 127.913317 32.216176 
L 129.118425 32.57041 
L 130.323533 33.370276 
L 131.528641 33.977904 
L 132.733749 34.28887 
L 133.938857 34.987992 
L 135.143965 35.32046 
L 137.554181 36.712218 
L 138.759289 36.573863 
L 139.964397 36.630785 
L 141.169505 36.439769 
L 142.374613 36.529545 
L 144.784829 37.613282 
L 145.989937 37.494655 
L 147.195045 37.646686 
L 148.400153 38.025287 
L 149.605261 38.637463 
L 152.015477 39.08784 
L 154.425693 40.118924 
L 155.630801 40.353084 
L 156.835909 40.858198 
L 158.041017 40.925403 
L 159.246125 41.19146 
L 160.451233 39.31912 
L 161.656341 37.940646 
L 164.066557 37.8531 
L 165.271665 38.389486 
L 166.476773 38.713073 
L 167.681881 38.05434 
L 168.886989 37.040213 
L 170.092097 37.483831 
L 171.297205 37.182709 
L 172.502313 37.459897 
L 176.117637 38.771927 
L 177.322745 38.015668 
L 178.527853 38.408634 
L 179.732961 37.914582 
L 180.938069 38.396855 
L 182.143177 38.523747 
L 184.553393 39.294106 
L 185.758501 39.281619 
L 188.168717 40.110269 
L 189.373825 36.676235 
L 190.578933 36.358941 
L 191.784041 33.575677 
L 192.989149 33.433521 
L 194.194257 33.759271 
L 195.399365 34.220677 
L 196.604473 34.205863 
L 197.809581 34.51194 
L 199.014689 34.617726 
L 200.219797 34.982305 
L 201.424905 34.39692 
L 202.630013 34.202625 
L 205.040229 35.072166 
L 206.245337 34.994582 
L 207.450445 35.423391 
L 208.655553 35.601746 
L 211.065769 36.40285 
L 215.886201 37.212307 
L 218.296417 37.9694 
L 219.501525 37.063572 
L 221.911741 37.241183 
L 224.321957 37.915237 
L 225.527065 38.215942 
L 226.732173 38.021611 
L 227.937281 38.368906 
L 229.142389 38.071468 
L 230.347497 38.150741 
L 231.552605 38.460502 
L 232.757713 37.971371 
L 233.962821 38.316059 
L 235.167929 37.522841 
L 238.783253 38.500097 
L 242.398577 39.127125 
L 243.603685 39.270701 
L 246.013901 39.066654 
L 247.219009 37.574032 
L 248.424117 36.391246 
L 249.629225 36.426231 
L 250.834333 36.700569 
L 252.039441 36.377382 
L 254.449657 37.034385 
L 255.654765 36.58823 
L 256.859873 36.789632 
L 258.064982 36.7805 
L 262.885414 37.662616 
L 264.090522 36.675882 
L 265.29563 36.134036 
L 267.705846 36.632284 
L 268.910954 36.583852 
L 270.116062 35.976114 
L 271.32117 36.099856 
L 273.731386 36.680998 
L 274.936494 36.13982 
L 276.141602 35.904595 
L 277.34671 36.204712 
L 278.551818 36.288117 
L 279.756926 33.571687 
L 282.167142 34.147901 
L 283.37225 34.347224 
L 284.577358 34.350289 
L 285.782466 34.609866 
L 286.987574 34.547909 
L 289.39779 34.984129 
L 290.602898 33.774207 
L 293.013114 34.334657 
L 294.218222 33.605358 
L 299.038654 34.547267 
L 300.243762 34.590932 
L 302.653978 35.113946 
L 303.859086 34.33668 
L 307.47441 35.14252 
L 308.679518 35.210189 
L 309.884626 35.433121 
L 312.294842 35.503291 
L 315.910166 36.162992 
L 317.115274 36.013195 
L 319.52549 36.488497 
L 320.730598 36.468672 
L 321.935706 36.667912 
L 323.140814 36.224474 
L 324.345922 35.960692 
L 325.55103 36.166245 
L 326.756138 34.23636 
L 327.961246 34.363281 
L 329.166354 34.279304 
L 330.371462 34.443051 
L 331.57657 33.788592 
L 332.781678 34.042898 
L 333.986786 34.102962 
L 336.397002 34.54199 
L 337.60211 33.349966 
L 340.012326 33.552951 
L 341.217434 33.80075 
L 342.422542 33.7728 
L 347.242974 34.630199 
L 348.448082 34.487266 
L 352.063406 34.919091 
L 353.268514 35.13869 
L 354.473622 34.587176 
L 360.499162 35.129159 
L 361.70427 34.888941 
L 365.319594 35.182047 
L 366.524702 34.991043 
L 367.72981 35.203228 
L 368.934918 35.168727 
L 370.140026 35.383177 
L 371.345134 35.39911 
L 373.75535 35.77168 
L 374.960458 35.87678 
L 376.165566 35.777126 
L 378.575782 36.199484 
L 379.78089 36.06481 
L 382.191106 36.238938 
L 383.396214 36.444925 
L 385.80643 36.036823 
L 387.011538 35.918858 
L 389.421754 36.273006 
L 390.626862 35.637591 
L 394.242186 36.018381 
L 395.447294 36.027028 
L 400.267726 36.720417 
L 402.677942 36.82793 
L 411.113699 37.77242 
L 413.523915 36.989835 
L 414.729023 37.167918 
L 415.934131 36.684341 
L 417.139239 36.686243 
L 419.549455 36.958917 
L 420.754563 36.820878 
L 421.959671 34.936185 
L 424.369887 35.096096 
L 426.780103 35.446645 
L 427.985211 35.225618 
L 430.395427 35.33288 
L 431.600535 35.078868 
L 434.010751 35.343231 
L 435.215859 35.302857 
L 438.831183 35.798318 
L 441.241399 36.101307 
L 442.446507 33.264402 
L 443.651615 33.136347 
L 444.856723 32.843997 
L 446.061831 33.024657 
L 447.266939 32.984005 
L 448.472047 33.152112 
L 449.677155 33.057798 
L 452.087371 33.335976 
L 453.292479 32.566337 
L 455.702695 32.814952 
L 456.907803 32.806298 
L 460.523127 33.345692 
L 462.933343 33.533991 
L 465.343559 33.817081 
L 466.548667 33.657321 
L 467.753775 33.821183 
L 468.958883 33.687658 
L 471.369099 33.829017 
L 474.984423 34.206854 
L 476.189531 34.377302 
L 479.804855 34.592489 
L 481.009963 34.337534 
L 483.420179 34.414898 
L 484.625287 34.154978 
L 488.240611 34.437204 
L 489.445719 34.132901 
L 493.061043 34.584602 
L 494.266151 33.99966 
L 503.907015 35.169553 
L 506.317231 35.326548 
L 507.522339 34.790936 
L 512.342771 35.113791 
L 513.547879 35.012188 
L 514.752987 35.076827 
L 515.958095 34.973333 
L 515.958095 34.973333 
" clip-path="url(#p760f73d7d4)" style="fill: none; stroke-dasharray: 5.55,2.4; stroke-dashoffset: 0; stroke: #ff8c00; stroke-width: 1.5"/>
   </g>
   <g id="patch_3">
    <path d="M 35.12 97 
L 35.12 3.96 
" style="fill: none; stroke: #000000; stroke-width: 0.8; stroke-linejoin: miter; stroke-linecap: square"/>
   </g>
   <g id="patch_4">
    <path d="M 540 97 
L 540 3.96 
" style="fill: none; stroke: #000000; stroke-width: 0.8; stroke-linejoin: miter; stroke-linecap: square"/>
   </g>
   <g id="patch_5">
    <path d="M 35.12 97 
L 540 97 
" style="fill: none; stroke: #000000; stroke-width: 0.8; stroke-linejoin: miter; stroke-linecap: square"/>
   </g>
   <g id="patch_6">
    <path d="M 35.12 3.96 
L 540 3.96 
" style="fill: none; stroke: #000000; stroke-width: 0.8; stroke-linejoin: miter; stroke-linecap: square"/>
   </g>
  </g>
 </g>
 <defs>
  <clipPath id="p760f73d7d4">
   <rect x="35.12" y="3.96" width="504.88" height="93.04"/>
  </clipPath>
 </defs>
</svg>
