<?xml version="1.0" encoding="utf-8" standalone="no"?>
<!DOCTYPE svg PUBLIC "-//W3C//DTD SVG 1.1//EN"
  "http://www.w3.org/Graphics/SVG/1.1/DTD/svg11.dtd">
<svg xmlns:xlink="http://www.w3.org/1999/xlink" width="540pt" height="129.6pt" viewBox="0 0 540 129.6" xmlns="http://www.w3.org/2000/svg" version="1.1">
 <metadata>
  <rdf:RDF xmlns:dc="http://purl.org/dc/elements/1.1/" xmlns:cc="http://creativecommons.org/ns#" xmlns:rdf="http://www.w3.org/1999/02/22-rdf-syntax-ns#">
   <cc:Work>
    <dc:type rdf:resource="http://purl.org/dc/dcmitype/StillImage"/>
    <dc:date>2025-04-06T15:16:53.472069</dc:date>
    <dc:format>image/svg+xml</dc:format>
    <dc:creator>
     <cc:Agent>
      <dc:title>Matplotlib v3.10.1, https://matplotlib.org/</dc:title>
     </cc:Agent>
    </dc:creator>
   </cc:Work>
  </rdf:RDF>
 </metadata>
 <defs>
  <style type="text/css">*{stroke-linejoin: round; stroke-linecap: butt}</style>
 </defs>
 <g id="figure_1">
  <g id="patch_1">
   <path d="M 0 129.6 
L 540 129.6 
L 540 0 
L 0 0 
z
" style="fill: #ffffff"/>
  </g>
  <g id="axes_1">
   <g id="patch_2">
    <path d="M 34.31 98.44 
L 540 98.44 
L 540 0 
L 34.31 0 
z
" style="fill: #ffffff"/>
   </g>
   <g id="matplotlib.axis_1">
    <g id="xtick_1">
     <g id="line2d_1">
      <path d="M 34.31 98.44 
L 34.31 0 
" clip-path="url(#p6923ebe64d)" style="fill: none; stroke: #b0b0b0; stroke-width: 0.8; stroke-linecap: square"/>
     </g>
     <g id="line2d_2">
      <defs>
       <path id="mb81c2493bd" d="M 0 0 
L 0 3.5 
" style="stroke: #000000; stroke-width: 0.8"/>
      </defs>
      <g>
       <use xlink:href="#mb81c2493bd" x="34.31" y="98.44" style="stroke: #000000; stroke-width: 0.8"/>
      </g>
     </g>
     <g id="text_1">
      <text style="font-size: 10px; font-family: 'Times New Roman'; text-anchor: middle" x="34.31" y="112.38375" transform="rotate(-0 34.31 112.38375)">0</text>
     </g>
    </g>
    <g id="xtick_2">
     <g id="line2d_3">
      <path d="M 94.662071 98.44 
L 94.662071 0 
" clip-path="url(#p6923ebe64d)" style="fill: none; stroke: #b0b0b0; stroke-width: 0.8; stroke-linecap: square"/>
     </g>
     <g id="line2d_4">
      <g>
       <use xlink:href="#mb81c2493bd" x="94.662071" y="98.44" style="stroke: #000000; stroke-width: 0.8"/>
      </g>
     </g>
     <g id="text_2">
      <text style="font-size: 10px; font-family: 'Times New Roman'; text-anchor: middle" x="94.662071" y="112.38375" transform="rotate(-0 94.662071 112.38375)">50</text>
     </g>
    </g>
    <g id="xtick_3">
     <g id="line2d_5">
      <path d="M 155.014141 98.44 
L 155.014141 0 
" clip-path="url(#p6923ebe64d)" style="fill: none; stroke: #b0b0b0; stroke-width: 0.8; stroke-linecap: square"/>
     </g>
     <g id="line2d_6">
      <g>
       <use xlink:href="#mb81c2493bd" x="155.014141" y="98.44" style="stroke: #000000; stroke-width: 0.8"/>
      </g>
     </g>
     <g id="text_3">
      <text style="font-size: 10px; font-family: 'Times New Roman'; text-anchor: middle" x="155.014141" y="112.38375" transform="rotate(-0 155.014141 112.38375)">100</text>
     </g>
    </g>
    <g id="xtick_4">
     <g id="line2d_7">
      <path d="M 215.366212 98.44 
L 215.366212 0 
" clip-path="url(#p6923ebe64d)" style="fill: none; stroke: #b0b0b0; stroke-width: 0.8; stroke-linecap: square"/>
     </g>
     <g id="line2d_8">
      <g>
       <use xlink:href="#mb81c2493bd" x="215.366212" y="98.44" style="stroke: #000000; stroke-width: 0.8"/>
      </g>
     </g>
     <g id="text_4">
      <text style="font-size: 10px; font-family: 'Times New Roman'; text-anchor: middle" x="215.366212" y="112.38375" transform="rotate(-0 215.366212 112.38375)">150</text>
     </g>
    </g>
    <g id="xtick_5">
     <g id="line2d_9">
      <path d="M 275.718283 98.44 
L 275.718283 0 
" clip-path="url(#p6923ebe64d)" style="fill: none; stroke: #b0b0b0; stroke-width: 0.8; stroke-linecap: square"/>
     </g>
     <g id="line2d_10">
      <g>
       <use xlink:href="#mb81c2493bd" x="275.718283" y="98.44" style="stroke: #000000; stroke-width: 0.8"/>
      </g>
     </g>
     <g id="text_5">
      <text style="font-size: 10px; font-family: 'Times New Roman'; text-anchor: middle" x="275.718283" y="112.38375" transform="rotate(-0 275.718283 112.38375)">200</text>
     </g>
    </g>
    <g id="xtick_6">
     <g id="line2d_11">
      <path d="M 336.070353 98.44 
L 336.070353 0 
" clip-path="url(#p6923ebe64d)" style="fill: none; stroke: #b0b0b0; stroke-width: 0.8; stroke-linecap: square"/>
     </g>
     <g id="line2d_12">
      <g>
       <use xlink:href="#mb81c2493bd" x="336.070353" y="98.44" style="stroke: #000000; stroke-width: 0.8"/>
      </g>
     </g>
     <g id="text_6">
      <text style="font-size: 10px; font-family: 'Times New Roman'; text-anchor: middle" x="336.070353" y="112.38375" transform="rotate(-0 336.070353 112.38375)">250</text>
     </g>
    </g>
    <g id="xtick_7">
     <g id="line2d_13">
      <path d="M 396.422424 98.44 
L 396.422424 0 
" clip-path="url(#p6923ebe64d)" style="fill: none; stroke: #b0b0b0; stroke-width: 0.8; stroke-linecap: square"/>
     </g>
     <g id="line2d_14">
      <g>
       <use xlink:href="#mb81c2493bd" x="396.422424" y="98.44" style="stroke: #000000; stroke-width: 0.8"/>
      </g>
     </g>
     <g id="text_7">
      <text style="font-size: 10px; font-family: 'Times New Roman'; text-anchor: middle" x="396.422424" y="112.38375" transform="rotate(-0 396.422424 112.38375)">300</text>
     </g>
    </g>
    <g id="xtick_8">
     <g id="line2d_15">
      <path d="M 456.774495 98.44 
L 456.774495 0 
" clip-path="url(#p6923ebe64d)" style="fill: none; stroke: #b0b0b0; stroke-width: 0.8; stroke-linecap: square"/>
     </g>
     <g id="line2d_16">
      <g>
       <use xlink:href="#mb81c2493bd" x="456.774495" y="98.44" style="stroke: #000000; stroke-width: 0.8"/>
      </g>
     </g>
     <g id="text_8">
      <text style="font-size: 10px; font-family: 'Times New Roman'; text-anchor: middle" x="456.774495" y="112.38375" transform="rotate(-0 456.774495 112.38375)">350</text>
     </g>
    </g>
    <g id="xtick_9">
     <g id="line2d_17">
      <path d="M 517.126565 98.44 
L 517.126565 0 
" clip-path="url(#p6923ebe64d)" style="fill: none; stroke: #b0b0b0; stroke-width: 0.8; stroke-linecap: square"/>
     </g>
     <g id="line2d_18">
      <g>
       <use xlink:href="#mb81c2493bd" x="517.126565" y="98.44" style="stroke: #000000; stroke-width: 0.8"/>
      </g>
     </g>
     <g id="text_9">
      <text style="font-size: 10px; font-family: 'Times New Roman'; text-anchor: middle" x="517.126565" y="112.38375" transform="rotate(-0 517.126565 112.38375)">400</text>
     </g>
    </g>
    <g id="text_10">
     <text style="font-size: 12px; font-family: 'Times New Roman'; text-anchor: middle" x="287.155" y="126.855312" transform="rotate(-0 287.155 126.855312)">Simulation Run</text>
    </g>
   </g>
   <g id="matplotlib.axis_2">
    <g id="ytick_1">
     <g id="line2d_19">
      <path d="M 34.31 98.44 
L 540 98.44 
" clip-path="url(#p6923ebe64d)" style="fill: none; stroke: #b0b0b0; stroke-width: 0.8; stroke-linecap: square"/>
     </g>
     <g id="line2d_20">
      <defs>
       <path id="m140de873d9" d="M 0 0 
L -3.5 0 
" style="stroke: #000000; stroke-width: 0.8"/>
      </defs>
      <g>
       <use xlink:href="#m140de873d9" x="34.31" y="98.44" style="stroke: #000000; stroke-width: 0.8"/>
      </g>
     </g>
     <g id="text_11">
      <text style="font-size: 10px; font-family: 'Times New Roman'; text-anchor: end" x="27.31" y="101.911875" transform="rotate(-0 27.31 101.911875)">0.0</text>
     </g>
    </g>
    <g id="ytick_2">
     <g id="line2d_21">
      <path d="M 34.31 63.282857 
L 540 63.282857 
" clip-path="url(#p6923ebe64d)" style="fill: none; stroke: #b0b0b0; stroke-width: 0.8; stroke-linecap: square"/>
     </g>
     <g id="line2d_22">
      <g>
       <use xlink:href="#m140de873d9" x="34.31" y="63.282857" style="stroke: #000000; stroke-width: 0.8"/>
      </g>
     </g>
     <g id="text_12">
      <text style="font-size: 10px; font-family: 'Times New Roman'; text-anchor: end" x="27.31" y="66.754732" transform="rotate(-0 27.31 66.754732)">0.5</text>
     </g>
    </g>
    <g id="ytick_3">
     <g id="line2d_23">
      <path d="M 34.31 28.125714 
L 540 28.125714 
" clip-path="url(#p6923ebe64d)" style="fill: none; stroke: #b0b0b0; stroke-width: 0.8; stroke-linecap: square"/>
     </g>
     <g id="line2d_24">
      <g>
       <use xlink:href="#m140de873d9" x="34.31" y="28.125714" style="stroke: #000000; stroke-width: 0.8"/>
      </g>
     </g>
     <g id="text_13">
      <text style="font-size: 10px; font-family: 'Times New Roman'; text-anchor: end" x="27.31" y="31.597589" transform="rotate(-0 27.31 31.597589)">1.0</text>
     </g>
    </g>
    <g id="text_14">
     <text style="font-size: 12px; font-family: 'Times New Roman'; text-anchor: middle" x="8.243125" y="49.22" transform="rotate(-90 8.243125 49.22)">Normalized Value</text>
    </g>
   </g>
   <g id="line2d_25">
    <path d="M 34.31 48.939108 
L 35.517041 35.017076 
L 36.724083 34.816995 
L 37.931124 34.260962 
L 39.138166 30.192812 
L 40.345207 23.614274 
L 41.552248 27.840668 
L 42.75929 28.834298 
L 43.966331 29.134895 
L 45.173373 28.006162 
L 46.380414 24.626824 
L 47.587456 23.352857 
L 48.794497 22.270849 
L 50.001538 22.70425 
L 52.415621 22.755794 
L 53.622663 22.944022 
L 54.829704 24.087893 
L 56.036745 24.698327 
L 57.243787 24.824648 
L 58.450828 24.274033 
L 59.65787 24.175136 
L 60.864911 24.754607 
L 62.071953 25.902324 
L 63.278994 25.288501 
L 64.486035 25.779692 
L 65.693077 26.848432 
L 66.900118 26.224673 
L 68.10716 26.120066 
L 69.314201 27.158727 
L 70.521242 26.621308 
L 71.728284 25.366326 
L 72.935325 25.014264 
L 74.142367 25.41906 
L 76.556449 26.55048 
L 77.763491 26.600197 
L 78.970532 26.373977 
L 80.177574 26.285241 
L 82.591657 26.469926 
L 83.798698 26.387869 
L 85.005739 26.611681 
L 86.212781 26.430961 
L 88.626864 25.62522 
L 89.833905 25.338555 
L 91.040946 25.643851 
L 92.247988 26.169847 
L 93.455029 25.538034 
L 97.076153 25.496136 
L 98.283195 25.640791 
L 99.490236 25.336247 
L 100.697278 25.796048 
L 101.904319 25.792178 
L 104.318402 26.335423 
L 106.732485 27.022071 
L 107.939526 26.986117 
L 109.146568 26.196384 
L 111.56065 25.597623 
L 112.767692 25.640807 
L 113.974733 25.190443 
L 117.595858 25.112383 
L 118.802899 25.341254 
L 121.216982 25.489055 
L 122.424023 25.705071 
L 123.631065 25.646584 
L 124.838106 25.36804 
L 126.045147 25.245266 
L 127.252189 24.615 
L 128.45923 24.560759 
L 129.666272 24.229627 
L 130.873313 24.294558 
L 132.080354 23.858217 
L 139.322603 24.954864 
L 140.529644 24.678825 
L 141.736686 24.719408 
L 142.943727 25.095358 
L 145.35781 25.445358 
L 146.564851 25.45077 
L 147.771893 25.268242 
L 148.978934 25.35944 
L 150.185976 25.225547 
L 155.014141 26.210628 
L 156.221183 26.26295 
L 157.428224 26.639605 
L 158.635266 26.671768 
L 159.842307 26.535634 
L 161.049348 26.57919 
L 162.25639 26.750412 
L 163.463431 26.7006 
L 164.670473 26.83521 
L 167.084555 26.414262 
L 168.291597 26.541396 
L 170.70568 26.439085 
L 171.912721 26.532881 
L 173.119763 26.420724 
L 174.326804 26.475809 
L 176.740887 26.884899 
L 179.15497 26.641859 
L 180.362011 26.772993 
L 181.569052 26.785657 
L 182.776094 26.398557 
L 183.983135 26.318213 
L 185.190177 26.545482 
L 186.397218 26.541273 
L 188.811301 26.710753 
L 190.018342 26.688425 
L 191.225384 26.834636 
L 192.432425 26.549255 
L 194.846508 26.475336 
L 196.053549 26.595947 
L 197.260591 26.488933 
L 198.467632 26.628967 
L 199.674674 26.294704 
L 203.295798 26.604126 
L 204.502839 26.512068 
L 205.709881 26.673478 
L 208.123963 26.284262 
L 209.331005 26.44926 
L 210.538046 26.482692 
L 215.366212 26.210549 
L 217.780295 26.31769 
L 220.194378 26.427804 
L 222.60846 26.726069 
L 225.022543 26.824092 
L 226.229585 26.881893 
L 229.850709 26.764229 
L 233.471833 27.04455 
L 235.885916 27.014243 
L 237.092957 27.168766 
L 239.50704 27.13328 
L 240.714082 27.329467 
L 244.335206 27.292716 
L 245.542247 27.251847 
L 256.40562 27.820812 
L 258.819703 27.909924 
L 261.233786 28.15607 
L 268.476034 28.040029 
L 269.683076 27.9294 
L 270.890117 28.041116 
L 272.097158 27.889956 
L 273.3042 27.865298 
L 274.511241 27.957931 
L 278.132365 27.833147 
L 279.339407 27.942005 
L 282.960531 27.811656 
L 284.167573 27.825341 
L 287.788697 27.576028 
L 290.20278 27.627531 
L 291.409821 27.729962 
L 292.616862 27.613845 
L 295.030945 27.638322 
L 297.445028 27.346256 
L 302.273194 27.452858 
L 303.480235 27.294545 
L 305.894318 27.37897 
L 307.101359 27.30528 
L 308.308401 27.388023 
L 310.722484 27.161387 
L 314.343608 27.296689 
L 316.757691 27.159793 
L 317.964732 27.33163 
L 320.378815 27.14997 
L 321.585856 27.149576 
L 322.792898 27.325719 
L 323.999939 27.264348 
L 326.414022 27.460959 
L 332.449229 27.608181 
L 337.277395 27.504652 
L 339.691478 27.504286 
L 342.10556 27.643659 
L 344.519643 27.612646 
L 345.726685 27.643597 
L 346.933726 27.505222 
L 349.347809 27.540033 
L 350.55485 27.410312 
L 379.523844 27.999922 
L 383.144968 28.188554 
L 385.559051 28.229296 
L 387.973134 28.220814 
L 390.387217 28.143778 
L 392.8013 28.237891 
L 394.008341 28.180193 
L 396.422424 28.256108 
L 398.836507 28.295822 
L 402.457631 28.397642 
L 403.664672 28.273665 
L 410.906921 28.442653 
L 413.321004 28.368546 
L 416.942128 28.43825 
L 424.184376 28.226237 
L 426.598459 28.34943 
L 430.219583 28.415124 
L 436.254791 28.382891 
L 444.70408 28.537399 
L 448.325205 28.382791 
L 451.946329 28.44294 
L 453.15337 28.376129 
L 455.567453 28.495707 
L 459.188577 28.432942 
L 477.294199 28.697351 
L 478.50124 28.564061 
L 479.708281 28.584631 
L 480.915323 28.379814 
L 483.329406 28.307014 
L 500.227985 28.207728 
L 505.056151 28.124007 
L 508.677275 28.215225 
L 515.919524 28.125714 
L 515.919524 28.125714 
" clip-path="url(#p6923ebe64d)" style="fill: none; stroke: #4169e1; stroke-width: 1.5; stroke-linecap: square"/>
   </g>
   <g id="line2d_26">
    <path d="M 34.31 98.44 
L 35.517041 55.975791 
L 36.724083 70.112986 
L 37.931124 76.991532 
L 39.138166 66.777767 
L 40.345207 24.64736 
L 41.552248 11.708575 
L 42.75929 21.035867 
L 43.966331 29.477955 
L 45.173373 33.862026 
L 46.380414 14.713105 
L 48.794497 20.905749 
L 51.20858 30.743975 
L 52.415621 34.969514 
L 53.622663 38.578876 
L 54.829704 37.031218 
L 56.036745 38.793767 
L 57.243787 41.709655 
L 58.450828 43.082657 
L 59.65787 45.5539 
L 60.864911 46.234828 
L 62.071953 41.772377 
L 63.278994 42.057939 
L 64.486035 42.905002 
L 65.693077 38.455543 
L 66.900118 38.296324 
L 68.10716 40.303116 
L 69.314201 35.386706 
L 70.521242 35.522383 
L 71.728284 26.791747 
L 72.935325 28.093935 
L 74.142367 28.978247 
L 75.349408 28.616089 
L 76.556449 28.06316 
L 77.763491 29.945741 
L 78.970532 31.333381 
L 81.384615 34.506807 
L 83.798698 37.452159 
L 86.212781 39.4662 
L 87.419822 39.084149 
L 88.626864 38.900092 
L 89.833905 39.338714 
L 91.040946 39.610239 
L 92.247988 37.901313 
L 93.455029 34.826692 
L 95.869112 37.234025 
L 97.076153 38.381812 
L 98.283195 39.251027 
L 99.490236 39.229927 
L 100.697278 37.739721 
L 101.904319 38.804454 
L 103.111361 39.13494 
L 104.318402 38.943455 
L 105.525443 38.467189 
L 106.732485 37.843145 
L 107.939526 38.803238 
L 109.146568 31.278162 
L 110.353609 30.664169 
L 111.56065 30.819199 
L 112.767692 31.8172 
L 113.974733 29.87873 
L 116.388816 31.861933 
L 117.595858 32.722785 
L 118.802899 32.845046 
L 121.216982 34.461351 
L 122.424023 34.579625 
L 123.631065 35.375638 
L 124.838106 34.930557 
L 126.045147 35.504375 
L 127.252189 29.60997 
L 128.45923 30.43096 
L 129.666272 29.383285 
L 130.873313 30.161944 
L 132.080354 27.61587 
L 133.287396 27.975148 
L 134.494437 28.490277 
L 135.701479 29.168366 
L 136.90852 27.298696 
L 138.115562 28.115488 
L 139.322603 26.930285 
L 140.529644 26.264697 
L 141.736686 27.03453 
L 142.943727 25.032322 
L 145.35781 25.387072 
L 146.564851 26.163634 
L 147.771893 26.238314 
L 148.978934 26.817309 
L 150.185976 27.178627 
L 151.393017 26.424514 
L 152.600058 26.555917 
L 153.8071 23.753272 
L 155.014141 23.989755 
L 156.221183 24.659081 
L 157.428224 22.205063 
L 158.635266 22.914748 
L 159.842307 23.211773 
L 161.049348 23.877832 
L 162.25639 23.893841 
L 163.463431 24.525919 
L 164.670473 24.775292 
L 165.877514 24.273874 
L 167.084555 23.982877 
L 168.291597 24.254605 
L 169.498638 24.724158 
L 170.70568 25.3652 
L 174.326804 26.631602 
L 176.740887 25.693526 
L 177.947928 25.620067 
L 179.15497 26.046918 
L 180.362011 26.18444 
L 181.569052 26.767597 
L 182.776094 23.307584 
L 183.983135 23.733274 
L 185.190177 22.911659 
L 186.397218 23.505882 
L 187.604259 23.750489 
L 190.018342 24.789241 
L 191.225384 24.74259 
L 192.432425 22.963472 
L 194.846508 24.009744 
L 198.467632 24.298234 
L 199.674674 21.481863 
L 200.881715 21.573886 
L 202.088756 22.095754 
L 203.295798 21.890925 
L 204.502839 22.168211 
L 206.916922 21.555285 
L 208.123963 20.519074 
L 209.331005 20.18793 
L 210.538046 20.684504 
L 211.745088 20.967212 
L 212.952129 21.481436 
L 214.159171 20.14944 
L 215.366212 20.52611 
L 216.573253 20.764613 
L 218.987336 21.6786 
L 220.194378 22.054759 
L 221.401419 21.638121 
L 222.60846 21.505344 
L 223.815502 21.991766 
L 225.022543 22.113425 
L 227.436626 22.818311 
L 228.643668 22.993904 
L 229.850709 23.416854 
L 231.05775 23.489308 
L 232.264792 23.254473 
L 235.885916 24.522272 
L 237.092957 24.080809 
L 239.50704 24.902687 
L 240.714082 23.888266 
L 243.128164 24.659542 
L 245.542247 25.428155 
L 246.749289 25.645863 
L 247.95633 26.05139 
L 249.163372 25.541114 
L 250.370413 25.945698 
L 251.577454 26.132546 
L 252.784496 26.488019 
L 253.991537 25.606327 
L 257.612661 26.73336 
L 258.819703 26.802707 
L 260.026744 26.397369 
L 261.233786 26.301665 
L 264.85491 27.329329 
L 267.268993 27.983742 
L 268.476034 28.024964 
L 270.890117 27.683692 
L 272.097158 27.05486 
L 273.3042 27.387204 
L 274.511241 27.368351 
L 275.718283 27.63039 
L 276.925324 27.699786 
L 278.132365 28.04823 
L 279.339407 27.866259 
L 280.546448 28.001342 
L 281.75349 28.339446 
L 282.960531 28.449478 
L 284.167573 28.777478 
L 285.374614 28.531343 
L 286.581655 28.82736 
L 287.788697 28.618949 
L 290.20278 29.182846 
L 291.409821 29.016852 
L 292.616862 28.707588 
L 295.030945 29.299753 
L 296.237987 28.119011 
L 297.445028 27.81324 
L 299.859111 28.349209 
L 301.066152 27.97374 
L 302.273194 28.18222 
L 303.480235 27.271373 
L 304.687277 27.389736 
L 305.894318 27.682552 
L 308.308401 27.695052 
L 309.515442 27.083597 
L 311.929525 26.972553 
L 314.343608 27.50637 
L 315.550649 27.114594 
L 316.757691 27.397144 
L 317.964732 26.177914 
L 319.171773 25.758091 
L 320.378815 25.855633 
L 321.585856 26.159325 
L 322.792898 24.835887 
L 323.999939 24.943259 
L 325.206981 24.118448 
L 331.242188 24.888814 
L 332.449229 24.970491 
L 336.070353 25.762446 
L 339.691478 26.235849 
L 342.10556 26.25811 
L 344.519643 26.706968 
L 345.726685 26.929783 
L 346.933726 26.118317 
L 349.347809 26.583231 
L 350.55485 25.890532 
L 352.968933 26.358458 
L 354.175974 26.305481 
L 357.797099 26.99383 
L 360.211182 27.03497 
L 365.039347 28.00049 
L 366.246389 27.674343 
L 368.660471 28.074892 
L 371.074554 28.515536 
L 372.281596 28.475831 
L 373.488637 28.56933 
L 374.695678 28.260377 
L 375.90272 28.490237 
L 377.109761 28.569954 
L 379.523844 28.948983 
L 380.730886 28.709272 
L 381.937927 28.912455 
L 383.144968 28.780729 
L 384.35201 28.993707 
L 385.559051 28.993322 
L 387.973134 29.439448 
L 389.180175 29.228216 
L 390.387217 29.459638 
L 391.594258 29.178731 
L 392.8013 29.40942 
L 394.008341 29.422944 
L 395.215383 29.12467 
L 397.629465 29.560432 
L 400.043548 29.753507 
L 401.25059 29.824193 
L 402.457631 30.02385 
L 403.664672 29.21627 
L 404.871714 29.316467 
L 406.078755 29.192684 
L 408.492838 28.517394 
L 409.699879 28.439665 
L 410.906921 28.656371 
L 412.113962 28.422155 
L 413.321004 28.640585 
L 414.528045 28.734475 
L 418.149169 29.253634 
L 419.356211 28.322652 
L 420.563252 28.416553 
L 421.770294 28.630206 
L 424.184376 28.576845 
L 425.391418 28.041377 
L 426.598459 28.227768 
L 427.805501 28.266712 
L 431.426625 28.774111 
L 432.633666 28.70762 
L 438.668873 29.075633 
L 439.875915 28.84921 
L 441.082956 28.873902 
L 442.289998 29.079091 
L 443.497039 28.972774 
L 444.70408 29.176191 
L 447.118163 28.690639 
L 448.325205 28.89339 
L 451.946329 29.232213 
L 453.15337 29.091741 
L 454.360412 28.682145 
L 462.809702 29.690174 
L 465.223784 30.056667 
L 468.844909 30.157889 
L 470.05195 29.926091 
L 471.258992 30.060162 
L 472.466033 29.654991 
L 477.294199 30.274545 
L 478.50124 29.026885 
L 479.708281 29.180281 
L 480.915323 25.96639 
L 482.122364 26.146944 
L 483.329406 25.737304 
L 485.743488 26.122788 
L 486.95053 26.074161 
L 490.571654 26.552109 
L 491.778696 26.592556 
L 492.985737 26.780937 
L 494.192778 26.560269 
L 495.39982 26.739809 
L 497.813903 26.613686 
L 500.227985 26.858001 
L 502.642068 27.088058 
L 503.84911 27.270318 
L 506.263193 27.081806 
L 515.919524 28.125714 
L 515.919524 28.125714 
" clip-path="url(#p6923ebe64d)" style="fill: none; stroke-dasharray: 5.55,2.4; stroke-dashoffset: 0; stroke: #4169e1; stroke-width: 1.5"/>
   </g>
   <g id="line2d_27">
    <path d="M 34.31 41.724627 
L 35.517041 29.999579 
L 36.724083 30.029517 
L 37.931124 31.134067 
L 39.138166 28.223078 
L 40.345207 23.791607 
L 41.552248 26.031798 
L 42.75929 27.749083 
L 43.966331 28.026504 
L 45.173373 27.271076 
L 46.380414 24.913283 
L 47.587456 24.070343 
L 48.794497 22.940102 
L 50.001538 23.954107 
L 52.415621 24.790534 
L 53.622663 24.339368 
L 54.829704 25.325026 
L 57.243787 25.729764 
L 58.450828 24.72821 
L 59.65787 24.577736 
L 60.864911 24.858497 
L 62.071953 25.938277 
L 63.278994 25.789648 
L 64.486035 26.176105 
L 65.693077 26.745131 
L 66.900118 26.225514 
L 68.10716 26.448268 
L 69.314201 27.367198 
L 70.521242 26.573913 
L 71.728284 25.559063 
L 72.935325 25.430026 
L 74.142367 25.671579 
L 76.556449 26.414597 
L 77.763491 26.475979 
L 80.177574 26.289564 
L 81.384615 26.499684 
L 83.798698 26.457705 
L 85.005739 26.524746 
L 86.212781 26.363543 
L 87.419822 25.952833 
L 88.626864 25.692818 
L 89.833905 25.26201 
L 91.040946 25.451614 
L 92.247988 25.914673 
L 93.455029 25.570019 
L 97.076153 25.327948 
L 98.283195 25.670809 
L 99.490236 25.538503 
L 100.697278 25.98951 
L 101.904319 26.018909 
L 106.732485 26.961718 
L 107.939526 26.91806 
L 110.353609 26.041765 
L 111.56065 25.898409 
L 112.767692 25.988826 
L 113.974733 25.756887 
L 117.595858 25.631037 
L 118.802899 25.888379 
L 122.424023 26.161228 
L 124.838106 25.930494 
L 126.045147 25.838043 
L 127.252189 25.366746 
L 128.45923 25.354822 
L 129.666272 25.039576 
L 130.873313 25.186861 
L 132.080354 24.845029 
L 139.322603 25.708363 
L 140.529644 25.486121 
L 141.736686 25.56841 
L 142.943727 25.834405 
L 146.564851 26.108503 
L 147.771893 25.99364 
L 150.185976 25.92876 
L 151.393017 26.177168 
L 152.600058 26.26559 
L 153.8071 26.587777 
L 157.428224 27.062027 
L 163.463431 27.097903 
L 164.670473 27.156038 
L 167.084555 26.806072 
L 168.291597 26.898925 
L 170.70568 26.81027 
L 173.119763 26.857832 
L 174.326804 26.871749 
L 176.740887 27.13861 
L 179.15497 26.9279 
L 181.569052 26.970073 
L 182.776094 26.731505 
L 183.983135 26.68191 
L 185.190177 26.835709 
L 186.397218 26.77427 
L 188.811301 26.925307 
L 198.467632 26.833655 
L 199.674674 26.632164 
L 203.295798 26.792998 
L 204.502839 26.760824 
L 205.709881 26.877367 
L 208.123963 26.626526 
L 210.538046 26.781938 
L 212.952129 26.724255 
L 214.159171 26.529523 
L 220.194378 26.767393 
L 222.60846 27.025738 
L 225.022543 27.072206 
L 227.436626 27.126823 
L 228.643668 27.033774 
L 231.05775 27.166361 
L 233.471833 27.278247 
L 235.885916 27.24496 
L 237.092957 27.339638 
L 239.50704 27.299958 
L 240.714082 27.440082 
L 243.128164 27.399462 
L 247.95633 27.377154 
L 250.370413 27.452228 
L 260.026744 27.882535 
L 261.233786 27.95571 
L 263.647868 27.866254 
L 264.85491 27.92968 
L 269.683076 27.743619 
L 270.890117 27.840374 
L 273.3042 27.674185 
L 275.718283 27.7367 
L 278.132365 27.681503 
L 279.339407 27.796851 
L 282.960531 27.677689 
L 284.167573 27.692408 
L 286.581655 27.545391 
L 288.995738 27.497836 
L 291.409821 27.581529 
L 292.616862 27.471128 
L 295.030945 27.48828 
L 297.445028 27.258309 
L 302.273194 27.312639 
L 303.480235 27.177649 
L 305.894318 27.268587 
L 307.101359 27.199664 
L 309.515442 27.212739 
L 310.722484 27.145598 
L 314.343608 27.235124 
L 315.550649 27.11363 
L 316.757691 27.129091 
L 317.964732 27.277532 
L 320.378815 27.121112 
L 321.585856 27.1214 
L 322.792898 27.251098 
L 323.999939 27.199025 
L 326.414022 27.36164 
L 333.65627 27.452658 
L 338.484436 27.246941 
L 345.726685 27.368349 
L 346.933726 27.254084 
L 375.90272 27.532786 
L 385.559051 27.78243 
L 394.008341 27.778343 
L 396.422424 27.83405 
L 400.043548 27.889152 
L 402.457631 27.930765 
L 404.871714 27.893686 
L 407.285797 28.021119 
L 408.492838 27.916207 
L 410.906921 27.950704 
L 413.321004 27.922462 
L 418.149169 27.981054 
L 420.563252 27.876333 
L 426.598459 28.0103 
L 430.219583 28.076111 
L 437.461832 28.114326 
L 442.289998 28.250476 
L 449.532246 28.104923 
L 451.946329 28.136361 
L 454.360412 28.144696 
L 460.395619 28.231337 
L 466.430826 28.305778 
L 472.466033 28.429967 
L 494.192778 28.249902 
L 496.606861 28.203644 
L 501.435027 28.107397 
L 514.712482 28.155031 
L 515.919524 28.125714 
L 515.919524 28.125714 
" clip-path="url(#p6923ebe64d)" style="fill: none; stroke: #ff8c00; stroke-width: 1.5; stroke-linecap: square"/>
   </g>
   <g id="line2d_28">
    <path d="M 34.31 98.44 
L 35.517041 46.764232 
L 36.724083 63.988814 
L 37.931124 71.225828 
L 39.138166 63.927798 
L 40.345207 32.771577 
L 41.552248 30.834541 
L 42.75929 31.5256 
L 43.966331 38.7291 
L 45.173373 42.769617 
L 46.380414 26.93427 
L 47.587456 29.955138 
L 48.794497 29.4611 
L 50.001538 29.363794 
L 51.20858 33.09189 
L 52.415621 36.142341 
L 53.622663 38.582714 
L 54.829704 35.700008 
L 56.036745 38.75765 
L 57.243787 41.412692 
L 58.450828 36.587154 
L 59.65787 39.219916 
L 60.864911 41.142846 
L 62.071953 33.450318 
L 63.278994 35.850618 
L 64.486035 36.854441 
L 65.693077 35.970955 
L 66.900118 35.461761 
L 68.10716 37.111191 
L 69.314201 29.950548 
L 70.521242 25.063491 
L 71.728284 15.355359 
L 72.935325 17.672796 
L 74.142367 19.324542 
L 75.349408 19.938463 
L 76.556449 20.178276 
L 78.970532 24.19551 
L 80.177574 25.875409 
L 81.384615 27.042297 
L 85.005739 31.875824 
L 86.212781 32.968624 
L 87.419822 31.633697 
L 88.626864 31.942425 
L 89.833905 30.148173 
L 91.040946 30.935809 
L 92.247988 28.444681 
L 93.455029 27.656717 
L 95.869112 30.180697 
L 97.076153 31.284997 
L 98.283195 30.186706 
L 99.490236 31.072362 
L 100.697278 28.070147 
L 101.904319 29.286513 
L 103.111361 29.026366 
L 104.318402 29.615302 
L 105.525443 29.099047 
L 106.732485 28.888507 
L 107.939526 29.966601 
L 109.146568 26.148153 
L 110.353609 23.149798 
L 111.56065 23.813715 
L 112.767692 24.744671 
L 113.974733 24.510001 
L 116.388816 26.607574 
L 117.595858 27.285889 
L 118.802899 26.545538 
L 120.00994 27.232139 
L 121.216982 28.188395 
L 122.424023 28.614374 
L 123.631065 29.435768 
L 124.838106 29.548432 
L 126.045147 30.198956 
L 127.252189 24.644951 
L 128.45923 25.574896 
L 129.666272 23.534624 
L 130.873313 23.807054 
L 132.080354 21.159519 
L 133.287396 21.564027 
L 134.494437 22.358061 
L 135.701479 22.92902 
L 136.90852 21.2001 
L 138.115562 22.081174 
L 139.322603 20.584183 
L 140.529644 19.825198 
L 141.736686 20.472164 
L 142.943727 18.935381 
L 144.150769 19.360439 
L 145.35781 19.603192 
L 146.564851 20.413989 
L 147.771893 20.769138 
L 148.978934 21.567585 
L 150.185976 22.116685 
L 151.393017 20.645611 
L 152.600058 21.143408 
L 153.8071 18.053517 
L 155.014141 17.950967 
L 156.221183 18.608837 
L 157.428224 16.775057 
L 158.635266 17.557688 
L 159.842307 18.101363 
L 161.049348 18.799153 
L 162.25639 19.227748 
L 163.463431 19.958735 
L 164.670473 20.541544 
L 165.877514 19.871185 
L 167.084555 19.432245 
L 168.291597 19.777948 
L 173.119763 22.139729 
L 174.326804 22.783423 
L 175.533845 22.405142 
L 177.947928 22.535837 
L 179.15497 22.721575 
L 181.569052 23.900784 
L 182.776094 21.870496 
L 183.983135 22.368408 
L 185.190177 21.860745 
L 186.397218 22.284957 
L 187.604259 22.353085 
L 190.018342 23.415419 
L 191.225384 23.657547 
L 192.432425 22.84337 
L 194.846508 23.857214 
L 196.053549 24.008841 
L 197.260591 23.728899 
L 198.467632 23.782233 
L 199.674674 22.232538 
L 200.881715 22.409762 
L 202.088756 22.921723 
L 203.295798 22.924076 
L 204.502839 23.401012 
L 206.916922 22.970144 
L 208.123963 22.540758 
L 209.331005 22.656136 
L 210.538046 22.908377 
L 212.952129 23.810013 
L 214.159171 22.183709 
L 215.366212 22.573979 
L 216.573253 22.429437 
L 217.780295 22.877068 
L 218.987336 23.078403 
L 220.194378 23.449069 
L 221.401419 22.384152 
L 222.60846 22.334144 
L 223.815502 22.755891 
L 226.229585 22.994924 
L 227.436626 23.436134 
L 228.643668 23.375139 
L 229.850709 23.747898 
L 232.264792 23.560392 
L 235.885916 24.776833 
L 237.092957 24.64665 
L 238.299999 24.876219 
L 239.50704 25.28782 
L 240.714082 24.451057 
L 241.921123 24.616914 
L 245.542247 25.761532 
L 247.95633 26.387126 
L 249.163372 26.344519 
L 251.577454 27.024382 
L 252.784496 27.384224 
L 253.991537 25.822293 
L 255.198579 26.216653 
L 256.40562 26.400641 
L 257.612661 26.769199 
L 258.819703 26.908945 
L 260.026744 26.597215 
L 262.440827 26.698094 
L 263.647868 27.022437 
L 266.061951 27.084408 
L 267.268993 27.389514 
L 268.476034 27.14689 
L 269.683076 27.322653 
L 270.890117 26.993957 
L 272.097158 26.361333 
L 273.3042 26.534779 
L 274.511241 26.511624 
L 278.132365 27.452858 
L 279.339407 26.785582 
L 280.546448 26.692849 
L 282.960531 27.278068 
L 284.167573 27.603334 
L 285.374614 26.934215 
L 290.20278 27.876722 
L 291.409821 28.057057 
L 292.616862 27.403985 
L 295.030945 28.044571 
L 296.237987 27.167958 
L 297.445028 26.525127 
L 299.859111 27.104613 
L 301.066152 26.953249 
L 302.273194 27.226976 
L 303.480235 26.017459 
L 304.687277 25.897059 
L 305.894318 26.189221 
L 308.308401 26.092144 
L 309.515442 26.202064 
L 311.929525 26.118919 
L 314.343608 26.704481 
L 315.550649 25.718254 
L 316.757691 26.006682 
L 317.964732 24.367198 
L 319.171773 23.541486 
L 320.378815 23.690355 
L 321.585856 24.003107 
L 322.792898 22.802068 
L 323.999939 22.871293 
L 325.206981 21.730492 
L 333.65627 23.185706 
L 334.863312 23.071014 
L 336.070353 23.328792 
L 340.898519 23.433554 
L 343.312602 23.735277 
L 345.726685 24.293667 
L 346.933726 23.307719 
L 349.347809 23.867941 
L 350.55485 23.704236 
L 352.968933 24.255665 
L 355.383016 24.476302 
L 357.797099 24.96753 
L 360.211182 25.045296 
L 361.418223 25.314534 
L 363.832306 25.697494 
L 365.039347 25.879382 
L 366.246389 25.745997 
L 367.45343 25.810471 
L 371.074554 26.515007 
L 373.488637 26.635268 
L 374.695678 26.240283 
L 379.523844 26.821712 
L 380.730886 26.420995 
L 381.937927 26.528833 
L 383.144968 26.160335 
L 387.973134 26.971503 
L 389.180175 26.967559 
L 390.387217 27.088121 
L 391.594258 26.790169 
L 392.8013 27.01321 
L 394.008341 26.975006 
L 395.215383 26.532755 
L 397.629465 26.938847 
L 398.836507 26.935613 
L 402.457631 27.444534 
L 403.664672 27.248219 
L 404.871714 27.413497 
L 406.078755 27.301258 
L 407.285797 26.910523 
L 408.492838 25.857988 
L 409.699879 25.787118 
L 410.906921 25.987478 
L 412.113962 25.874381 
L 416.942128 26.390601 
L 418.149169 26.513184 
L 419.356211 25.791811 
L 422.977335 26.338123 
L 424.184376 26.392368 
L 425.391418 25.879694 
L 426.598459 25.977244 
L 427.805501 25.852439 
L 431.426625 26.4916 
L 432.633666 26.386951 
L 433.840708 26.399196 
L 436.254791 26.715229 
L 437.461832 26.690611 
L 438.668873 26.547105 
L 441.082956 26.583976 
L 442.289998 26.793091 
L 443.497039 26.789336 
L 444.70408 26.989864 
L 445.911122 26.471036 
L 447.118163 26.292929 
L 449.532246 26.610502 
L 450.739288 26.545184 
L 451.946329 26.725268 
L 453.15337 26.63143 
L 454.360412 26.422755 
L 455.567453 26.487051 
L 457.981536 26.877323 
L 459.188577 26.890549 
L 462.809702 27.420083 
L 464.016743 27.44219 
L 465.223784 27.632871 
L 466.430826 27.42239 
L 467.637867 27.411871 
L 468.844909 27.562246 
L 470.05195 27.464121 
L 471.258992 27.659006 
L 472.466033 27.377021 
L 474.880116 27.73003 
L 476.087157 27.61454 
L 477.294199 27.794655 
L 478.50124 27.506136 
L 479.708281 27.689954 
L 480.915323 26.491146 
L 482.122364 26.683046 
L 483.329406 26.375772 
L 485.743488 26.752448 
L 486.95053 26.702383 
L 489.364613 26.931424 
L 492.985737 27.384352 
L 494.192778 27.035357 
L 495.39982 27.212056 
L 497.813903 26.768488 
L 500.227985 27.119499 
L 501.435027 27.096 
L 503.84911 27.402312 
L 506.263193 27.157814 
L 511.091358 27.782691 
L 513.505441 27.905526 
L 514.712482 28.078717 
L 515.919524 28.125714 
L 515.919524 28.125714 
" clip-path="url(#p6923ebe64d)" style="fill: none; stroke-dasharray: 5.55,2.4; stroke-dashoffset: 0; stroke: #ff8c00; stroke-width: 1.5"/>
   </g>
   <g id="patch_3">
    <path d="M 34.31 98.44 
L 34.31 0 
" style="fill: none; stroke: #000000; stroke-width: 0.8; stroke-linejoin: miter; stroke-linecap: square"/>
   </g>
   <g id="patch_4">
    <path d="M 540 98.44 
L 540 0 
" style="fill: none; stroke: #000000; stroke-width: 0.8; stroke-linejoin: miter; stroke-linecap: square"/>
   </g>
   <g id="patch_5">
    <path d="M 34.31 98.44 
L 540 98.44 
" style="fill: none; stroke: #000000; stroke-width: 0.8; stroke-linejoin: miter; stroke-linecap: square"/>
   </g>
   <g id="patch_6">
    <path d="M 34.31 0 
L 540 0 
" style="fill: none; stroke: #000000; stroke-width: 0.8; stroke-linejoin: miter; stroke-linecap: square"/>
   </g>
  </g>
 </g>
 <defs>
  <clipPath id="p6923ebe64d">
   <rect x="34.31" y="0" width="505.69" height="98.44"/>
  </clipPath>
 </defs>
</svg>
