<?xml version="1.0" encoding="utf-8" standalone="no"?>
<!DOCTYPE svg PUBLIC "-//W3C//DTD SVG 1.1//EN"
  "http://www.w3.org/Graphics/SVG/1.1/DTD/svg11.dtd">
<svg xmlns:xlink="http://www.w3.org/1999/xlink" width="540pt" height="129.6pt" viewBox="0 0 540 129.6" xmlns="http://www.w3.org/2000/svg" version="1.1">
 <metadata>
  <rdf:RDF xmlns:dc="http://purl.org/dc/elements/1.1/" xmlns:cc="http://creativecommons.org/ns#" xmlns:rdf="http://www.w3.org/1999/02/22-rdf-syntax-ns#">
   <cc:Work>
    <dc:type rdf:resource="http://purl.org/dc/dcmitype/StillImage"/>
    <dc:date>2025-04-06T03:59:41.134553</dc:date>
    <dc:format>image/svg+xml</dc:format>
    <dc:creator>
     <cc:Agent>
      <dc:title>Matplotlib v3.10.1, https://matplotlib.org/</dc:title>
     </cc:Agent>
    </dc:creator>
   </cc:Work>
  </rdf:RDF>
 </metadata>
 <defs>
  <style type="text/css">*{stroke-linejoin: round; stroke-linecap: butt}</style>
 </defs>
 <g id="figure_1">
  <g id="patch_1">
   <path d="M 0 129.6 
L 540 129.6 
L 540 0 
L 0 0 
z
" style="fill: #ffffff"/>
  </g>
  <g id="axes_1">
   <g id="patch_2">
    <path d="M 34.31 98.44 
L 540 98.44 
L 540 0 
L 34.31 0 
z
" style="fill: #ffffff"/>
   </g>
   <g id="matplotlib.axis_1">
    <g id="xtick_1">
     <g id="line2d_1">
      <path d="M 34.31 98.44 
L 34.31 0 
" clip-path="url(#pab2fbd0990)" style="fill: none; stroke: #b0b0b0; stroke-width: 0.8; stroke-linecap: square"/>
     </g>
     <g id="line2d_2">
      <defs>
       <path id="m858a6a7bd5" d="M 0 0 
L 0 3.5 
" style="stroke: #000000; stroke-width: 0.8"/>
      </defs>
      <g>
       <use xlink:href="#m858a6a7bd5" x="34.31" y="98.44" style="stroke: #000000; stroke-width: 0.8"/>
      </g>
     </g>
     <g id="text_1">
      <text style="font-size: 10px; font-family: 'Times New Roman'; text-anchor: middle" x="34.31" y="112.38375" transform="rotate(-0 34.31 112.38375)">0</text>
     </g>
    </g>
    <g id="xtick_2">
     <g id="line2d_3">
      <path d="M 94.662071 98.44 
L 94.662071 0 
" clip-path="url(#pab2fbd0990)" style="fill: none; stroke: #b0b0b0; stroke-width: 0.8; stroke-linecap: square"/>
     </g>
     <g id="line2d_4">
      <g>
       <use xlink:href="#m858a6a7bd5" x="94.662071" y="98.44" style="stroke: #000000; stroke-width: 0.8"/>
      </g>
     </g>
     <g id="text_2">
      <text style="font-size: 10px; font-family: 'Times New Roman'; text-anchor: middle" x="94.662071" y="112.38375" transform="rotate(-0 94.662071 112.38375)">50</text>
     </g>
    </g>
    <g id="xtick_3">
     <g id="line2d_5">
      <path d="M 155.014141 98.44 
L 155.014141 0 
" clip-path="url(#pab2fbd0990)" style="fill: none; stroke: #b0b0b0; stroke-width: 0.8; stroke-linecap: square"/>
     </g>
     <g id="line2d_6">
      <g>
       <use xlink:href="#m858a6a7bd5" x="155.014141" y="98.44" style="stroke: #000000; stroke-width: 0.8"/>
      </g>
     </g>
     <g id="text_3">
      <text style="font-size: 10px; font-family: 'Times New Roman'; text-anchor: middle" x="155.014141" y="112.38375" transform="rotate(-0 155.014141 112.38375)">100</text>
     </g>
    </g>
    <g id="xtick_4">
     <g id="line2d_7">
      <path d="M 215.366212 98.44 
L 215.366212 0 
" clip-path="url(#pab2fbd0990)" style="fill: none; stroke: #b0b0b0; stroke-width: 0.8; stroke-linecap: square"/>
     </g>
     <g id="line2d_8">
      <g>
       <use xlink:href="#m858a6a7bd5" x="215.366212" y="98.44" style="stroke: #000000; stroke-width: 0.8"/>
      </g>
     </g>
     <g id="text_4">
      <text style="font-size: 10px; font-family: 'Times New Roman'; text-anchor: middle" x="215.366212" y="112.38375" transform="rotate(-0 215.366212 112.38375)">150</text>
     </g>
    </g>
    <g id="xtick_5">
     <g id="line2d_9">
      <path d="M 275.718283 98.44 
L 275.718283 0 
" clip-path="url(#pab2fbd0990)" style="fill: none; stroke: #b0b0b0; stroke-width: 0.8; stroke-linecap: square"/>
     </g>
     <g id="line2d_10">
      <g>
       <use xlink:href="#m858a6a7bd5" x="275.718283" y="98.44" style="stroke: #000000; stroke-width: 0.8"/>
      </g>
     </g>
     <g id="text_5">
      <text style="font-size: 10px; font-family: 'Times New Roman'; text-anchor: middle" x="275.718283" y="112.38375" transform="rotate(-0 275.718283 112.38375)">200</text>
     </g>
    </g>
    <g id="xtick_6">
     <g id="line2d_11">
      <path d="M 336.070353 98.44 
L 336.070353 0 
" clip-path="url(#pab2fbd0990)" style="fill: none; stroke: #b0b0b0; stroke-width: 0.8; stroke-linecap: square"/>
     </g>
     <g id="line2d_12">
      <g>
       <use xlink:href="#m858a6a7bd5" x="336.070353" y="98.44" style="stroke: #000000; stroke-width: 0.8"/>
      </g>
     </g>
     <g id="text_6">
      <text style="font-size: 10px; font-family: 'Times New Roman'; text-anchor: middle" x="336.070353" y="112.38375" transform="rotate(-0 336.070353 112.38375)">250</text>
     </g>
    </g>
    <g id="xtick_7">
     <g id="line2d_13">
      <path d="M 396.422424 98.44 
L 396.422424 0 
" clip-path="url(#pab2fbd0990)" style="fill: none; stroke: #b0b0b0; stroke-width: 0.8; stroke-linecap: square"/>
     </g>
     <g id="line2d_14">
      <g>
       <use xlink:href="#m858a6a7bd5" x="396.422424" y="98.44" style="stroke: #000000; stroke-width: 0.8"/>
      </g>
     </g>
     <g id="text_7">
      <text style="font-size: 10px; font-family: 'Times New Roman'; text-anchor: middle" x="396.422424" y="112.38375" transform="rotate(-0 396.422424 112.38375)">300</text>
     </g>
    </g>
    <g id="xtick_8">
     <g id="line2d_15">
      <path d="M 456.774495 98.44 
L 456.774495 0 
" clip-path="url(#pab2fbd0990)" style="fill: none; stroke: #b0b0b0; stroke-width: 0.8; stroke-linecap: square"/>
     </g>
     <g id="line2d_16">
      <g>
       <use xlink:href="#m858a6a7bd5" x="456.774495" y="98.44" style="stroke: #000000; stroke-width: 0.8"/>
      </g>
     </g>
     <g id="text_8">
      <text style="font-size: 10px; font-family: 'Times New Roman'; text-anchor: middle" x="456.774495" y="112.38375" transform="rotate(-0 456.774495 112.38375)">350</text>
     </g>
    </g>
    <g id="xtick_9">
     <g id="line2d_17">
      <path d="M 517.126565 98.44 
L 517.126565 0 
" clip-path="url(#pab2fbd0990)" style="fill: none; stroke: #b0b0b0; stroke-width: 0.8; stroke-linecap: square"/>
     </g>
     <g id="line2d_18">
      <g>
       <use xlink:href="#m858a6a7bd5" x="517.126565" y="98.44" style="stroke: #000000; stroke-width: 0.8"/>
      </g>
     </g>
     <g id="text_9">
      <text style="font-size: 10px; font-family: 'Times New Roman'; text-anchor: middle" x="517.126565" y="112.38375" transform="rotate(-0 517.126565 112.38375)">400</text>
     </g>
    </g>
    <g id="text_10">
     <text style="font-size: 12px; font-family: 'Times New Roman'; text-anchor: middle" x="287.155" y="126.855312" transform="rotate(-0 287.155 126.855312)">Simulation Run</text>
    </g>
   </g>
   <g id="matplotlib.axis_2">
    <g id="ytick_1">
     <g id="line2d_19">
      <path d="M 34.31 98.44 
L 540 98.44 
" clip-path="url(#pab2fbd0990)" style="fill: none; stroke: #b0b0b0; stroke-width: 0.8; stroke-linecap: square"/>
     </g>
     <g id="line2d_20">
      <defs>
       <path id="m90a4b996fd" d="M 0 0 
L -3.5 0 
" style="stroke: #000000; stroke-width: 0.8"/>
      </defs>
      <g>
       <use xlink:href="#m90a4b996fd" x="34.31" y="98.44" style="stroke: #000000; stroke-width: 0.8"/>
      </g>
     </g>
     <g id="text_11">
      <text style="font-size: 10px; font-family: 'Times New Roman'; text-anchor: end" x="27.31" y="101.911875" transform="rotate(-0 27.31 101.911875)">0.0</text>
     </g>
    </g>
    <g id="ytick_2">
     <g id="line2d_21">
      <path d="M 34.31 60.578462 
L 540 60.578462 
" clip-path="url(#pab2fbd0990)" style="fill: none; stroke: #b0b0b0; stroke-width: 0.8; stroke-linecap: square"/>
     </g>
     <g id="line2d_22">
      <g>
       <use xlink:href="#m90a4b996fd" x="34.31" y="60.578462" style="stroke: #000000; stroke-width: 0.8"/>
      </g>
     </g>
     <g id="text_12">
      <text style="font-size: 10px; font-family: 'Times New Roman'; text-anchor: end" x="27.31" y="64.050337" transform="rotate(-0 27.31 64.050337)">0.5</text>
     </g>
    </g>
    <g id="ytick_3">
     <g id="line2d_23">
      <path d="M 34.31 22.716923 
L 540 22.716923 
" clip-path="url(#pab2fbd0990)" style="fill: none; stroke: #b0b0b0; stroke-width: 0.8; stroke-linecap: square"/>
     </g>
     <g id="line2d_24">
      <g>
       <use xlink:href="#m90a4b996fd" x="34.31" y="22.716923" style="stroke: #000000; stroke-width: 0.8"/>
      </g>
     </g>
     <g id="text_13">
      <text style="font-size: 10px; font-family: 'Times New Roman'; text-anchor: end" x="27.31" y="26.188798" transform="rotate(-0 27.31 26.188798)">1.0</text>
     </g>
    </g>
    <g id="text_14">
     <text style="font-size: 12px; font-family: 'Times New Roman'; text-anchor: middle" x="8.243125" y="49.22" transform="rotate(-90 8.243125 49.22)">Normalized Value</text>
    </g>
   </g>
   <g id="line2d_25">
    <path d="M 34.31 40.060999 
L 35.517041 20.287673 
L 36.724083 17.895876 
L 37.931124 21.427395 
L 39.138166 29.964333 
L 40.345207 31.752081 
L 41.552248 28.84571 
L 42.75929 23.185772 
L 45.173373 23.993562 
L 46.380414 19.982486 
L 47.587456 20.079265 
L 48.794497 18.462477 
L 50.001538 17.843614 
L 51.20858 18.88057 
L 52.415621 17.067882 
L 53.622663 18.218684 
L 54.829704 19.051238 
L 56.036745 20.90011 
L 57.243787 20.159832 
L 58.450828 19.858926 
L 59.65787 21.193796 
L 60.864911 22.35846 
L 63.278994 23.737309 
L 64.486035 23.661842 
L 66.900118 23.259473 
L 68.10716 24.242341 
L 69.314201 23.493133 
L 70.521242 23.498132 
L 71.728284 23.139535 
L 72.935325 23.128263 
L 74.142367 22.94535 
L 75.349408 22.628866 
L 76.556449 22.945367 
L 77.763491 22.402342 
L 80.177574 23.169 
L 81.384615 23.19936 
L 82.591657 23.603488 
L 83.798698 22.585741 
L 85.005739 23.241491 
L 86.212781 22.970566 
L 87.419822 23.462121 
L 88.626864 22.881106 
L 89.833905 23.1005 
L 91.040946 22.473954 
L 93.455029 22.245825 
L 94.662071 22.21345 
L 95.869112 22.646343 
L 97.076153 22.558598 
L 98.283195 22.348808 
L 100.697278 22.649699 
L 101.904319 23.160248 
L 103.111361 23.467061 
L 104.318402 23.348278 
L 106.732485 22.687866 
L 107.939526 22.920186 
L 109.146568 22.722937 
L 112.767692 22.574402 
L 113.974733 22.989723 
L 115.181775 22.844339 
L 116.388816 22.310558 
L 120.00994 21.689706 
L 121.216982 20.9678 
L 122.424023 21.185549 
L 123.631065 20.957851 
L 126.045147 20.825692 
L 127.252189 20.397599 
L 128.45923 20.856138 
L 130.873313 20.806324 
L 132.080354 20.757604 
L 133.287396 20.998817 
L 134.494437 20.829977 
L 136.90852 20.857937 
L 140.529644 21.023294 
L 141.736686 21.510925 
L 142.943727 20.887174 
L 144.150769 21.426473 
L 145.35781 21.019309 
L 146.564851 21.285061 
L 147.771893 21.665687 
L 148.978934 21.673161 
L 150.185976 21.956287 
L 153.8071 22.237831 
L 155.014141 22.134193 
L 156.221183 22.368275 
L 158.635266 22.325574 
L 159.842307 22.133985 
L 161.049348 22.410125 
L 165.877514 22.886071 
L 168.291597 23.455582 
L 169.498638 23.107302 
L 179.15497 22.897817 
L 180.362011 22.786747 
L 181.569052 23.035481 
L 186.397218 22.542744 
L 187.604259 22.677491 
L 188.811301 22.570594 
L 190.018342 22.77505 
L 196.053549 22.135764 
L 199.674674 22.569753 
L 200.881715 22.828376 
L 203.295798 22.857913 
L 206.916922 22.51869 
L 208.123963 22.659386 
L 209.331005 22.455296 
L 210.538046 22.465936 
L 214.159171 22.880269 
L 215.366212 22.869289 
L 218.987336 23.285246 
L 220.194378 22.962201 
L 222.60846 23.199829 
L 225.022543 22.994694 
L 233.471833 23.413137 
L 237.092957 23.369462 
L 238.299999 23.442644 
L 239.50704 23.348524 
L 243.128164 23.45727 
L 244.335206 23.13765 
L 245.542247 23.067448 
L 246.749289 23.235612 
L 247.95633 23.048186 
L 255.198579 23.220977 
L 257.612661 23.277914 
L 258.819703 23.045801 
L 260.026744 23.164939 
L 267.268993 23.191649 
L 269.683076 23.416021 
L 272.097158 23.200914 
L 274.511241 23.353208 
L 275.718283 23.192067 
L 279.339407 23.449149 
L 280.546448 23.344248 
L 281.75349 23.496138 
L 285.374614 23.568673 
L 288.995738 23.842263 
L 291.409821 23.443548 
L 293.823904 23.598578 
L 301.066152 23.657002 
L 303.480235 23.675441 
L 304.687277 23.802705 
L 314.343608 23.823845 
L 315.550649 23.715766 
L 317.964732 23.935151 
L 319.171773 23.835471 
L 327.621063 23.832508 
L 331.242188 23.879238 
L 332.449229 23.985892 
L 333.65627 23.904308 
L 336.070353 23.938935 
L 338.484436 23.809928 
L 339.691478 23.56679 
L 340.898519 23.461831 
L 342.10556 23.208835 
L 345.726685 23.43305 
L 346.933726 23.327527 
L 348.140767 23.347064 
L 352.968933 22.944152 
L 357.797099 23.182052 
L 359.00414 22.923193 
L 362.625264 23.102265 
L 365.039347 23.10296 
L 369.867513 23.125052 
L 371.074554 21.639344 
L 377.109761 21.914418 
L 383.144968 21.852039 
L 384.35201 21.689823 
L 392.8013 21.730729 
L 395.215383 21.691667 
L 397.629465 21.803647 
L 402.457631 21.59865 
L 403.664672 21.616793 
L 404.871714 21.43297 
L 429.012542 21.287459 
L 433.840708 21.364374 
L 435.047749 21.448059 
L 437.461832 21.400202 
L 443.497039 21.753961 
L 444.70408 21.717316 
L 445.911122 21.557863 
L 448.325205 21.622955 
L 450.739288 21.568844 
L 451.946329 21.644674 
L 454.360412 21.647128 
L 459.188577 21.782204 
L 462.809702 21.657075 
L 465.223784 21.807896 
L 470.05195 22.028908 
L 471.258992 22.074059 
L 473.673074 22.01784 
L 476.087157 22.245731 
L 479.708281 22.128403 
L 480.915323 22.242257 
L 486.95053 22.277548 
L 496.606861 22.531492 
L 497.813903 22.520176 
L 499.020944 22.354894 
L 512.2984 22.788032 
L 515.919524 22.716923 
L 515.919524 22.716923 
" clip-path="url(#pab2fbd0990)" style="fill: none; stroke: #4169e1; stroke-width: 1.5; stroke-linecap: square"/>
   </g>
   <g id="line2d_26">
    <path d="M 34.31 98.44 
L 35.517041 65.389651 
L 36.724083 75.439282 
L 37.931124 78.026741 
L 39.138166 57.467117 
L 40.345207 62.945106 
L 41.552248 63.731604 
L 42.75929 49.114538 
L 43.966331 54.473572 
L 45.173373 58.758156 
L 46.380414 48.765616 
L 47.587456 52.896439 
L 48.794497 53.748216 
L 50.001538 56.519616 
L 51.20858 58.041787 
L 52.415621 56.400343 
L 53.622663 57.082091 
L 54.829704 58.383683 
L 56.036745 55.290716 
L 57.243787 56.568022 
L 58.450828 58.40885 
L 59.65787 57.065341 
L 60.864911 56.341685 
L 62.071953 57.006831 
L 63.278994 57.857791 
L 64.486035 59.406609 
L 66.900118 62.011418 
L 68.10716 60.981112 
L 69.314201 60.853739 
L 70.521242 62.066136 
L 71.728284 62.86585 
L 72.935325 63.943511 
L 74.142367 64.864784 
L 76.556449 66.153828 
L 77.763491 66.129087 
L 78.970532 66.595056 
L 80.177574 66.855388 
L 81.384615 67.641965 
L 82.591657 67.840913 
L 83.798698 64.979584 
L 85.005739 64.231073 
L 86.212781 64.74175 
L 87.419822 64.591901 
L 88.626864 64.043613 
L 89.833905 64.588286 
L 91.040946 63.733905 
L 94.662071 65.666379 
L 95.869112 65.488761 
L 97.076153 66.07664 
L 100.697278 67.396968 
L 101.904319 66.707684 
L 103.111361 66.801227 
L 104.318402 67.268301 
L 105.525443 67.099048 
L 106.732485 67.189856 
L 109.146568 67.70413 
L 112.767692 69.05399 
L 113.974733 68.530249 
L 115.181775 68.850391 
L 116.388816 67.641459 
L 118.802899 68.18863 
L 120.00994 68.097721 
L 121.216982 65.341539 
L 123.631065 65.61117 
L 126.045147 66.406496 
L 127.252189 65.624341 
L 128.45923 64.65341 
L 132.080354 65.824264 
L 133.287396 65.813921 
L 134.494437 66.002322 
L 139.322603 67.416647 
L 140.529644 67.698793 
L 141.736686 66.251451 
L 142.943727 63.645245 
L 144.150769 61.786189 
L 145.35781 60.891047 
L 146.564851 60.735299 
L 147.771893 59.981016 
L 148.978934 60.381182 
L 150.185976 60.123042 
L 152.600058 60.716805 
L 155.014141 61.321428 
L 156.221183 61.217522 
L 158.635266 61.885663 
L 159.842307 61.911102 
L 161.049348 61.578903 
L 163.463431 62.127929 
L 164.670473 61.950806 
L 165.877514 62.223841 
L 167.084555 61.901051 
L 168.291597 61.352682 
L 169.498638 60.532493 
L 173.119763 61.486811 
L 174.326804 61.611904 
L 176.740887 62.127763 
L 179.15497 62.272027 
L 180.362011 62.442304 
L 181.569052 62.096927 
L 183.983135 62.571354 
L 187.604259 62.422386 
L 188.811301 62.577954 
L 190.018342 62.397982 
L 191.225384 62.458223 
L 192.432425 62.150036 
L 193.639467 62.41626 
L 194.846508 61.774445 
L 196.053549 62.044861 
L 197.260591 62.164296 
L 199.674674 62.10126 
L 200.881715 61.582446 
L 203.295798 62.0861 
L 208.123963 62.359471 
L 209.331005 62.096061 
L 210.538046 62.341902 
L 211.745088 62.259436 
L 217.780295 62.695815 
L 218.987336 62.479718 
L 220.194378 61.353204 
L 223.815502 61.583007 
L 225.022543 61.627427 
L 226.229585 61.807367 
L 227.436626 61.63441 
L 231.05775 62.114635 
L 232.264792 62.112157 
L 234.678875 62.516915 
L 237.092957 62.375952 
L 243.128164 63.135047 
L 244.335206 61.834223 
L 245.542247 61.969307 
L 247.95633 61.435143 
L 252.784496 62.199989 
L 253.991537 62.074453 
L 257.612661 62.557287 
L 258.819703 61.902088 
L 260.026744 61.872072 
L 263.647868 62.347196 
L 264.85491 62.494246 
L 269.683076 62.464286 
L 270.890117 62.231357 
L 272.097158 62.360623 
L 273.3042 62.257421 
L 274.511241 62.430255 
L 275.718283 62.170412 
L 276.925324 62.268702 
L 278.132365 61.952812 
L 279.339407 62.126221 
L 280.546448 62.1136 
L 281.75349 61.890154 
L 285.374614 62.324086 
L 288.995738 62.36357 
L 290.20278 62.105418 
L 291.409821 61.200978 
L 292.616862 61.081807 
L 298.652069 61.863815 
L 301.066152 61.91799 
L 303.480235 62.173436 
L 304.687277 62.027947 
L 307.101359 62.326232 
L 308.308401 62.334329 
L 314.343608 62.944562 
L 315.550649 62.866184 
L 316.757691 62.614819 
L 320.378815 62.74984 
L 325.206981 63.294542 
L 326.414022 63.011114 
L 327.621063 62.877845 
L 331.242188 63.18718 
L 333.65627 63.09426 
L 338.484436 63.424381 
L 339.691478 62.297956 
L 340.898519 62.203157 
L 342.10556 60.965016 
L 346.933726 60.772571 
L 348.140767 60.908502 
L 349.347809 60.699221 
L 350.55485 60.713359 
L 352.968933 60.552235 
L 354.175974 60.578382 
L 355.383016 60.379134 
L 356.590057 60.477844 
L 357.797099 60.449472 
L 359.00414 59.066491 
L 361.418223 59.024446 
L 366.246389 59.483986 
L 369.867513 59.887806 
L 371.074554 7.967471 
L 373.488637 8.319304 
L 374.695678 8.330379 
L 379.523844 9.566838 
L 381.937927 9.864583 
L 383.144968 10.158082 
L 384.35201 9.816398 
L 390.387217 11.192729 
L 391.594258 11.362012 
L 392.8013 11.040265 
L 395.215383 11.579013 
L 396.422424 11.667571 
L 397.629465 11.941239 
L 398.836507 12.067736 
L 400.043548 12.350806 
L 401.25059 12.035005 
L 403.664672 12.579035 
L 404.871714 11.980893 
L 408.492838 12.699251 
L 413.321004 13.542721 
L 414.528045 13.586087 
L 415.735087 13.848076 
L 416.942128 13.824322 
L 425.391418 15.525493 
L 427.805501 15.947426 
L 429.012542 16.014787 
L 433.840708 16.944285 
L 436.254791 17.130352 
L 437.461832 17.367921 
L 439.875915 17.607007 
L 441.082956 17.838455 
L 442.289998 17.684838 
L 443.497039 17.681266 
L 444.70408 17.8795 
L 445.911122 17.382173 
L 448.325205 17.791945 
L 449.532246 17.859619 
L 450.739288 18.079074 
L 453.15337 18.31589 
L 461.60266 19.394377 
L 464.016743 18.97873 
L 468.844909 19.725798 
L 470.05195 19.484938 
L 473.673074 19.915207 
L 474.880116 19.826008 
L 476.087157 19.527997 
L 478.50124 19.700054 
L 479.708281 19.909103 
L 480.915323 19.715343 
L 483.329406 20.108855 
L 485.743488 20.421411 
L 488.157571 20.765041 
L 489.364613 20.898192 
L 490.571654 20.78104 
L 497.813903 21.626901 
L 499.020944 20.936843 
L 502.642068 21.348625 
L 503.84911 21.545992 
L 506.263193 21.77947 
L 509.884317 22.221574 
L 512.2984 22.39681 
L 513.505441 22.587271 
L 514.712482 22.530714 
L 515.919524 22.716923 
L 515.919524 22.716923 
" clip-path="url(#pab2fbd0990)" style="fill: none; stroke-dasharray: 5.55,2.4; stroke-dashoffset: 0; stroke: #4169e1; stroke-width: 1.5"/>
   </g>
   <g id="line2d_27">
    <path d="M 34.31 30.698028 
L 36.724083 23.21895 
L 37.931124 25.310501 
L 39.138166 30.090104 
L 40.345207 31.394092 
L 41.552248 28.564814 
L 42.75929 24.472985 
L 43.966331 24.474483 
L 45.173373 24.612256 
L 46.380414 21.429257 
L 47.587456 21.67156 
L 48.794497 20.192291 
L 50.001538 19.189904 
L 51.20858 19.763674 
L 52.415621 18.580727 
L 53.622663 19.522051 
L 54.829704 20.1205 
L 56.036745 21.718615 
L 57.243787 21.063202 
L 58.450828 20.795014 
L 60.864911 22.587161 
L 62.071953 22.99813 
L 63.278994 23.21809 
L 64.486035 23.306071 
L 65.693077 23.106949 
L 66.900118 22.59577 
L 68.10716 23.384545 
L 69.314201 22.586624 
L 71.728284 22.402167 
L 72.935325 22.645174 
L 74.142367 22.619804 
L 75.349408 22.4738 
L 76.556449 22.669313 
L 77.763491 21.893551 
L 80.177574 22.565236 
L 81.384615 22.485142 
L 82.591657 22.734755 
L 83.798698 22.007805 
L 85.005739 22.539727 
L 86.212781 22.448117 
L 87.419822 22.835715 
L 88.626864 22.453432 
L 89.833905 22.685494 
L 91.040946 22.182282 
L 94.662071 22.091348 
L 95.869112 22.49136 
L 99.490236 22.353784 
L 100.697278 22.477023 
L 103.111361 23.092811 
L 104.318402 23.042133 
L 105.525443 22.702788 
L 106.732485 22.510352 
L 107.939526 22.714441 
L 109.146568 22.517597 
L 111.56065 22.591192 
L 112.767692 22.543382 
L 113.974733 22.835728 
L 115.181775 22.69055 
L 116.388816 22.322628 
L 118.802899 22.017086 
L 120.00994 21.670754 
L 121.216982 21.066277 
L 122.424023 21.277924 
L 123.631065 20.999114 
L 126.045147 20.788664 
L 127.252189 20.417191 
L 128.45923 20.762409 
L 132.080354 20.796807 
L 133.287396 21.001409 
L 136.90852 20.934075 
L 140.529644 21.186807 
L 141.736686 21.582176 
L 142.943727 21.039393 
L 144.150769 21.453907 
L 145.35781 21.153158 
L 147.771893 21.661919 
L 150.185976 21.843759 
L 153.8071 22.053518 
L 155.014141 21.965452 
L 156.221183 22.160415 
L 158.635266 22.109116 
L 159.842307 22.038052 
L 161.049348 22.204327 
L 163.463431 22.321753 
L 164.670473 22.530817 
L 165.877514 22.554302 
L 168.291597 22.999739 
L 169.498638 22.689038 
L 175.533845 22.725665 
L 176.740887 22.683776 
L 177.947928 22.803552 
L 180.362011 22.564088 
L 181.569052 22.676932 
L 185.190177 22.526037 
L 186.397218 22.380003 
L 187.604259 22.476551 
L 188.811301 22.458711 
L 190.018342 22.576652 
L 191.225384 22.532347 
L 192.432425 22.334729 
L 193.639467 22.340262 
L 194.846508 22.129629 
L 197.260591 22.226101 
L 199.674674 22.422909 
L 200.881715 22.658079 
L 204.502839 22.605245 
L 206.916922 22.392031 
L 208.123963 22.520848 
L 209.331005 22.383993 
L 210.538046 22.376987 
L 214.159171 22.638039 
L 215.366212 22.59773 
L 218.987336 23.011931 
L 220.194378 22.777365 
L 222.60846 22.899336 
L 225.022543 22.690738 
L 232.264792 22.988617 
L 237.092957 22.926069 
L 238.299999 22.993711 
L 240.714082 22.955891 
L 243.128164 22.988975 
L 244.335206 22.683696 
L 245.542247 22.58848 
L 246.749289 22.731539 
L 247.95633 22.572799 
L 257.612661 22.67554 
L 258.819703 22.529496 
L 263.647868 22.677275 
L 264.85491 22.646544 
L 266.061951 22.737411 
L 267.268993 22.669059 
L 269.683076 22.828966 
L 272.097158 22.712194 
L 274.511241 22.88136 
L 275.718283 22.794945 
L 282.960531 23.06676 
L 290.20278 23.12027 
L 291.409821 22.939439 
L 293.823904 23.097891 
L 299.859111 23.265151 
L 303.480235 23.230034 
L 305.894318 23.32036 
L 311.929525 23.289187 
L 315.550649 23.2213 
L 317.964732 23.388572 
L 321.585856 23.200269 
L 325.206981 23.158319 
L 326.414022 23.288454 
L 328.828105 23.164659 
L 331.242188 23.255083 
L 332.449229 23.356863 
L 334.863312 23.340207 
L 337.277395 23.379088 
L 338.484436 23.311178 
L 339.691478 23.114778 
L 340.898519 23.033563 
L 342.10556 22.838449 
L 345.726685 23.062965 
L 352.968933 22.729296 
L 357.797099 22.88334 
L 359.00414 22.702386 
L 361.418223 22.806094 
L 369.867513 22.810545 
L 371.074554 21.999336 
L 378.316803 22.250011 
L 386.766093 22.09327 
L 391.594258 22.211604 
L 392.8013 22.073473 
L 395.215383 22.068347 
L 397.629465 22.131639 
L 409.699879 21.725737 
L 412.113962 21.737732 
L 414.528045 21.755943 
L 425.391418 21.683424 
L 429.012542 21.677402 
L 441.082956 21.874233 
L 443.497039 22.010215 
L 450.739288 21.883111 
L 455.567453 22.01882 
L 457.981536 22.061378 
L 461.60266 22.084396 
L 462.809702 21.965282 
L 465.223784 22.083465 
L 482.122364 22.433167 
L 485.743488 22.457461 
L 497.813903 22.608359 
L 499.020944 22.45493 
L 513.505441 22.792214 
L 515.919524 22.716923 
L 515.919524 22.716923 
" clip-path="url(#pab2fbd0990)" style="fill: none; stroke: #ff8c00; stroke-width: 1.5; stroke-linecap: square"/>
   </g>
   <g id="line2d_28">
    <path d="M 34.31 98.44 
L 35.517041 95.923628 
L 36.724083 91.764248 
L 37.931124 91.079755 
L 39.138166 76.165286 
L 40.345207 78.353123 
L 41.552248 72.609852 
L 42.75929 54.821359 
L 43.966331 59.667871 
L 45.173373 63.51445 
L 46.380414 48.521126 
L 47.587456 52.56522 
L 48.794497 51.385159 
L 50.001538 52.40384 
L 51.20858 54.64641 
L 52.415621 53.619378 
L 53.622663 53.713498 
L 54.829704 55.106496 
L 56.036745 49.143333 
L 57.243787 50.144552 
L 58.450828 52.186377 
L 60.864911 50.157676 
L 62.071953 51.472832 
L 64.486035 54.850768 
L 65.693077 56.28032 
L 66.900118 56.52084 
L 69.314201 52.984597 
L 71.728284 55.734033 
L 72.935325 56.689285 
L 74.142367 57.913439 
L 75.349408 58.941367 
L 76.556449 59.798632 
L 77.763491 56.957886 
L 80.177574 57.587711 
L 81.384615 58.564152 
L 82.591657 59.089803 
L 83.798698 56.141309 
L 85.005739 54.993976 
L 86.212781 55.916672 
L 88.626864 55.426592 
L 89.833905 55.897541 
L 91.040946 54.649606 
L 94.662071 57.16991 
L 95.869112 56.500177 
L 99.490236 58.628403 
L 100.697278 59.189528 
L 101.904319 58.619284 
L 103.111361 58.605629 
L 104.318402 59.254077 
L 105.525443 58.688805 
L 107.939526 59.123456 
L 109.146568 59.316725 
L 112.767692 61.036198 
L 113.974733 60.582933 
L 115.181775 60.886422 
L 116.388816 59.779997 
L 117.595858 60.113554 
L 118.802899 60.279462 
L 120.00994 59.282302 
L 121.216982 55.100968 
L 122.424023 55.100237 
L 123.631065 54.646543 
L 126.045147 55.48619 
L 127.252189 54.131469 
L 128.45923 53.025375 
L 132.080354 54.654478 
L 133.287396 54.566448 
L 136.90852 56.057506 
L 138.115562 56.38387 
L 139.322603 56.828476 
L 140.529644 57.123951 
L 141.736686 55.088211 
L 142.943727 50.809736 
L 144.150769 48.523542 
L 145.35781 47.568032 
L 146.564851 47.197599 
L 147.771893 46.462577 
L 148.978934 46.980709 
L 150.185976 47.149971 
L 152.600058 47.804687 
L 153.8071 48.311038 
L 155.014141 48.668286 
L 156.221183 48.4678 
L 158.635266 49.315177 
L 159.842307 49.688849 
L 161.049348 49.628187 
L 163.463431 50.393284 
L 164.670473 49.987589 
L 165.877514 50.417285 
L 168.291597 49.315721 
L 169.498638 47.811579 
L 170.70568 48.248048 
L 171.912721 48.45551 
L 173.119763 48.884581 
L 175.533845 49.604501 
L 176.740887 49.977754 
L 177.947928 50.075459 
L 179.15497 49.927372 
L 180.362011 50.186442 
L 181.569052 50.300162 
L 183.983135 50.932562 
L 185.190177 51.260467 
L 186.397218 51.1501 
L 187.604259 51.307261 
L 188.811301 51.665325 
L 190.018342 51.703346 
L 191.225384 52.014354 
L 192.432425 51.448647 
L 193.639467 51.801241 
L 194.846508 51.091136 
L 196.053549 51.441765 
L 197.260591 51.552241 
L 198.467632 51.775544 
L 199.674674 51.717617 
L 200.881715 50.685114 
L 204.502839 51.653966 
L 208.123963 51.614212 
L 209.331005 51.447937 
L 210.538046 51.766326 
L 211.745088 51.790625 
L 212.952129 52.004281 
L 214.159171 52.073893 
L 215.366212 52.337247 
L 216.573253 51.970382 
L 217.780295 52.06528 
L 218.987336 51.579511 
L 220.194378 50.362364 
L 221.401419 50.490278 
L 222.60846 50.747658 
L 223.815502 50.796514 
L 225.022543 50.729203 
L 226.229585 50.928095 
L 227.436626 50.731932 
L 231.05775 51.491424 
L 232.264792 51.461245 
L 233.471833 51.714924 
L 235.885916 51.978695 
L 237.092957 51.897991 
L 240.714082 52.382156 
L 243.128164 52.779049 
L 244.335206 50.132016 
L 245.542247 50.121984 
L 246.749289 49.749042 
L 247.95633 49.222777 
L 251.577454 49.904568 
L 252.784496 50.155959 
L 253.991537 50.222712 
L 255.198579 50.459779 
L 256.40562 50.510533 
L 257.612661 50.758963 
L 258.819703 50.302528 
L 260.026744 50.438397 
L 261.233786 50.692186 
L 262.440827 50.562453 
L 264.85491 51.020411 
L 266.061951 50.981818 
L 267.268993 51.06475 
L 268.476034 50.940182 
L 269.683076 51.068415 
L 270.890117 50.962605 
L 272.097158 51.191552 
L 273.3042 51.029319 
L 274.511241 51.124411 
L 275.718283 51.091986 
L 276.925324 51.189023 
L 278.132365 50.635834 
L 279.339407 50.804521 
L 280.546448 50.813561 
L 281.75349 50.553186 
L 285.374614 51.200133 
L 286.581655 51.202167 
L 288.995738 51.543432 
L 290.20278 51.143821 
L 291.409821 50.115816 
L 292.616862 49.777065 
L 298.652069 50.616243 
L 299.859111 50.559094 
L 302.273194 50.894004 
L 303.480235 51.090262 
L 304.687277 51.0099 
L 307.101359 51.419219 
L 308.308401 51.402993 
L 314.343608 52.319004 
L 315.550649 52.401552 
L 316.757691 52.202506 
L 317.964732 52.190421 
L 319.171773 51.974499 
L 320.378815 52.163952 
L 321.585856 52.097345 
L 325.206981 52.646487 
L 326.414022 52.100006 
L 327.621063 51.702621 
L 330.035146 52.059657 
L 331.242188 52.038022 
L 332.449229 51.766287 
L 334.863312 51.880313 
L 337.277395 52.209914 
L 338.484436 52.184233 
L 339.691478 50.616317 
L 340.898519 50.503427 
L 342.10556 48.949833 
L 344.519643 48.332116 
L 345.726685 48.513831 
L 346.933726 48.522142 
L 348.140767 48.648519 
L 351.761892 48.52995 
L 352.968933 48.216989 
L 354.175974 48.332796 
L 355.383016 48.240746 
L 356.590057 48.386901 
L 357.797099 48.353409 
L 359.00414 46.959369 
L 360.211182 46.872282 
L 369.867513 48.024744 
L 371.074554 15.280769 
L 372.281596 15.397902 
L 373.488637 15.352249 
L 374.695678 15.133782 
L 379.523844 16.221731 
L 383.144968 16.70468 
L 384.35201 16.491396 
L 390.387217 17.746398 
L 391.594258 17.880707 
L 392.8013 17.134838 
L 395.215383 17.619055 
L 396.422424 17.678227 
L 397.629465 17.945605 
L 398.836507 18.09439 
L 400.043548 18.358437 
L 401.25059 17.39324 
L 403.664672 17.895182 
L 404.871714 17.065074 
L 407.285797 17.578073 
L 416.942128 18.588657 
L 422.977335 19.764066 
L 427.805501 20.460991 
L 429.012542 20.393383 
L 431.426625 20.787531 
L 441.082956 21.926457 
L 442.289998 21.811348 
L 443.497039 21.810551 
L 444.70408 21.939183 
L 445.911122 21.148884 
L 447.118163 21.246296 
L 450.739288 21.772946 
L 451.946329 21.830136 
L 454.360412 22.177731 
L 461.60266 22.87767 
L 462.809702 22.186701 
L 464.016743 21.719027 
L 467.637867 22.222639 
L 468.844909 22.381513 
L 470.05195 21.905527 
L 471.258992 22.092421 
L 472.466033 22.162351 
L 473.673074 22.366387 
L 474.880116 22.168574 
L 476.087157 21.521698 
L 477.294199 21.541579 
L 479.708281 21.890393 
L 480.915323 21.596592 
L 483.329406 21.941342 
L 484.536447 22.000642 
L 488.157571 22.538556 
L 489.364613 22.582963 
L 490.571654 22.357558 
L 492.985737 22.556225 
L 494.192778 22.522059 
L 496.606861 22.819385 
L 497.813903 22.945178 
L 499.020944 21.515507 
L 509.884317 22.590624 
L 511.091358 22.512022 
L 513.505441 22.840836 
L 514.712482 22.532039 
L 515.919524 22.716923 
L 515.919524 22.716923 
" clip-path="url(#pab2fbd0990)" style="fill: none; stroke-dasharray: 5.55,2.4; stroke-dashoffset: 0; stroke: #ff8c00; stroke-width: 1.5"/>
   </g>
   <g id="patch_3">
    <path d="M 34.31 98.44 
L 34.31 0 
" style="fill: none; stroke: #000000; stroke-width: 0.8; stroke-linejoin: miter; stroke-linecap: square"/>
   </g>
   <g id="patch_4">
    <path d="M 540 98.44 
L 540 0 
" style="fill: none; stroke: #000000; stroke-width: 0.8; stroke-linejoin: miter; stroke-linecap: square"/>
   </g>
   <g id="patch_5">
    <path d="M 34.31 98.44 
L 540 98.44 
" style="fill: none; stroke: #000000; stroke-width: 0.8; stroke-linejoin: miter; stroke-linecap: square"/>
   </g>
   <g id="patch_6">
    <path d="M 34.31 0 
L 540 0 
" style="fill: none; stroke: #000000; stroke-width: 0.8; stroke-linejoin: miter; stroke-linecap: square"/>
   </g>
  </g>
 </g>
 <defs>
  <clipPath id="pab2fbd0990">
   <rect x="34.31" y="0" width="505.69" height="98.44"/>
  </clipPath>
 </defs>
</svg>
