<?xml version="1.0" encoding="utf-8" standalone="no"?>
<!DOCTYPE svg PUBLIC "-//W3C//DTD SVG 1.1//EN"
  "http://www.w3.org/Graphics/SVG/1.1/DTD/svg11.dtd">
<svg xmlns:xlink="http://www.w3.org/1999/xlink" width="540pt" height="129.6pt" viewBox="0 0 540 129.6" xmlns="http://www.w3.org/2000/svg" version="1.1">
 <metadata>
  <rdf:RDF xmlns:dc="http://purl.org/dc/elements/1.1/" xmlns:cc="http://creativecommons.org/ns#" xmlns:rdf="http://www.w3.org/1999/02/22-rdf-syntax-ns#">
   <cc:Work>
    <dc:type rdf:resource="http://purl.org/dc/dcmitype/StillImage"/>
    <dc:date>2025-03-30T22:34:36.472193</dc:date>
    <dc:format>image/svg+xml</dc:format>
    <dc:creator>
     <cc:Agent>
      <dc:title>Matplotlib v3.8.3, https://matplotlib.org/</dc:title>
     </cc:Agent>
    </dc:creator>
   </cc:Work>
  </rdf:RDF>
 </metadata>
 <defs>
  <style type="text/css">*{stroke-linejoin: round; stroke-linecap: butt}</style>
 </defs>
 <g id="figure_1">
  <g id="patch_1">
   <path d="M 0 129.6 
L 540 129.6 
L 540 0 
L 0 0 
z
" style="fill: #ffffff"/>
  </g>
  <g id="axes_1">
   <g id="patch_2">
    <path d="M 35.03 97 
L 540 97 
L 540 0 
L 35.03 0 
z
" style="fill: #ffffff"/>
   </g>
   <g id="matplotlib.axis_1">
    <g id="xtick_1">
     <g id="line2d_1">
      <path d="M 35.03 97 
L 35.03 0 
" clip-path="url(#p14fdf780f7)" style="fill: none; stroke: #b0b0b0; stroke-width: 0.8; stroke-linecap: square"/>
     </g>
     <g id="line2d_2">
      <defs>
       <path id="m2175a49dd2" d="M 0 0 
L 0 3.5 
" style="stroke: #000000; stroke-width: 0.8"/>
      </defs>
      <g>
       <use xlink:href="#m2175a49dd2" x="35.03" y="97" style="stroke: #000000; stroke-width: 0.8"/>
      </g>
     </g>
     <g id="text_1">
      <text style="font: 10px 'Times New Roman'; text-anchor: middle" x="35.03" y="110.94375" transform="rotate(-0 35.03 110.94375)">0</text>
     </g>
    </g>
    <g id="xtick_2">
     <g id="line2d_3">
      <path d="M 95.296142 97 
L 95.296142 0 
" clip-path="url(#p14fdf780f7)" style="fill: none; stroke: #b0b0b0; stroke-width: 0.8; stroke-linecap: square"/>
     </g>
     <g id="line2d_4">
      <g>
       <use xlink:href="#m2175a49dd2" x="95.296142" y="97" style="stroke: #000000; stroke-width: 0.8"/>
      </g>
     </g>
     <g id="text_2">
      <text style="font: 10px 'Times New Roman'; text-anchor: middle" x="95.296142" y="110.94375" transform="rotate(-0 95.296142 110.94375)">50</text>
     </g>
    </g>
    <g id="xtick_3">
     <g id="line2d_5">
      <path d="M 155.562283 97 
L 155.562283 0 
" clip-path="url(#p14fdf780f7)" style="fill: none; stroke: #b0b0b0; stroke-width: 0.8; stroke-linecap: square"/>
     </g>
     <g id="line2d_6">
      <g>
       <use xlink:href="#m2175a49dd2" x="155.562283" y="97" style="stroke: #000000; stroke-width: 0.8"/>
      </g>
     </g>
     <g id="text_3">
      <text style="font: 10px 'Times New Roman'; text-anchor: middle" x="155.562283" y="110.94375" transform="rotate(-0 155.562283 110.94375)">100</text>
     </g>
    </g>
    <g id="xtick_4">
     <g id="line2d_7">
      <path d="M 215.828425 97 
L 215.828425 0 
" clip-path="url(#p14fdf780f7)" style="fill: none; stroke: #b0b0b0; stroke-width: 0.8; stroke-linecap: square"/>
     </g>
     <g id="line2d_8">
      <g>
       <use xlink:href="#m2175a49dd2" x="215.828425" y="97" style="stroke: #000000; stroke-width: 0.8"/>
      </g>
     </g>
     <g id="text_4">
      <text style="font: 10px 'Times New Roman'; text-anchor: middle" x="215.828425" y="110.94375" transform="rotate(-0 215.828425 110.94375)">150</text>
     </g>
    </g>
    <g id="xtick_5">
     <g id="line2d_9">
      <path d="M 276.094566 97 
L 276.094566 0 
" clip-path="url(#p14fdf780f7)" style="fill: none; stroke: #b0b0b0; stroke-width: 0.8; stroke-linecap: square"/>
     </g>
     <g id="line2d_10">
      <g>
       <use xlink:href="#m2175a49dd2" x="276.094566" y="97" style="stroke: #000000; stroke-width: 0.8"/>
      </g>
     </g>
     <g id="text_5">
      <text style="font: 10px 'Times New Roman'; text-anchor: middle" x="276.094566" y="110.94375" transform="rotate(-0 276.094566 110.94375)">200</text>
     </g>
    </g>
    <g id="xtick_6">
     <g id="line2d_11">
      <path d="M 336.360708 97 
L 336.360708 0 
" clip-path="url(#p14fdf780f7)" style="fill: none; stroke: #b0b0b0; stroke-width: 0.8; stroke-linecap: square"/>
     </g>
     <g id="line2d_12">
      <g>
       <use xlink:href="#m2175a49dd2" x="336.360708" y="97" style="stroke: #000000; stroke-width: 0.8"/>
      </g>
     </g>
     <g id="text_6">
      <text style="font: 10px 'Times New Roman'; text-anchor: middle" x="336.360708" y="110.94375" transform="rotate(-0 336.360708 110.94375)">250</text>
     </g>
    </g>
    <g id="xtick_7">
     <g id="line2d_13">
      <path d="M 396.626849 97 
L 396.626849 0 
" clip-path="url(#p14fdf780f7)" style="fill: none; stroke: #b0b0b0; stroke-width: 0.8; stroke-linecap: square"/>
     </g>
     <g id="line2d_14">
      <g>
       <use xlink:href="#m2175a49dd2" x="396.626849" y="97" style="stroke: #000000; stroke-width: 0.8"/>
      </g>
     </g>
     <g id="text_7">
      <text style="font: 10px 'Times New Roman'; text-anchor: middle" x="396.626849" y="110.94375" transform="rotate(-0 396.626849 110.94375)">300</text>
     </g>
    </g>
    <g id="xtick_8">
     <g id="line2d_15">
      <path d="M 456.892991 97 
L 456.892991 0 
" clip-path="url(#p14fdf780f7)" style="fill: none; stroke: #b0b0b0; stroke-width: 0.8; stroke-linecap: square"/>
     </g>
     <g id="line2d_16">
      <g>
       <use xlink:href="#m2175a49dd2" x="456.892991" y="97" style="stroke: #000000; stroke-width: 0.8"/>
      </g>
     </g>
     <g id="text_8">
      <text style="font: 10px 'Times New Roman'; text-anchor: middle" x="456.892991" y="110.94375" transform="rotate(-0 456.892991 110.94375)">350</text>
     </g>
    </g>
    <g id="xtick_9">
     <g id="line2d_17">
      <path d="M 517.159132 97 
L 517.159132 0 
" clip-path="url(#p14fdf780f7)" style="fill: none; stroke: #b0b0b0; stroke-width: 0.8; stroke-linecap: square"/>
     </g>
     <g id="line2d_18">
      <g>
       <use xlink:href="#m2175a49dd2" x="517.159132" y="97" style="stroke: #000000; stroke-width: 0.8"/>
      </g>
     </g>
     <g id="text_9">
      <text style="font: 10px 'Times New Roman'; text-anchor: middle" x="517.159132" y="110.94375" transform="rotate(-0 517.159132 110.94375)">400</text>
     </g>
    </g>
    <g id="text_10">
     <text style="font: 12px 'Times New Roman'; text-anchor: middle" x="287.515" y="125.415312" transform="rotate(-0 287.515 125.415312)">Simulation Run</text>
    </g>
   </g>
   <g id="matplotlib.axis_2">
    <g id="ytick_1">
     <g id="line2d_19">
      <path d="M 35.03 97 
L 540 97 
" clip-path="url(#p14fdf780f7)" style="fill: none; stroke: #b0b0b0; stroke-width: 0.8; stroke-linecap: square"/>
     </g>
     <g id="line2d_20">
      <defs>
       <path id="me1fe11bda2" d="M 0 0 
L -3.5 0 
" style="stroke: #000000; stroke-width: 0.8"/>
      </defs>
      <g>
       <use xlink:href="#me1fe11bda2" x="35.03" y="97" style="stroke: #000000; stroke-width: 0.8"/>
      </g>
     </g>
     <g id="text_11">
      <text style="font: 10px 'Times New Roman'; text-anchor: end" x="28.03" y="100.471875" transform="rotate(-0 28.03 100.471875)">0.0</text>
     </g>
    </g>
    <g id="ytick_2">
     <g id="line2d_21">
      <path d="M 35.03 62.357143 
L 540 62.357143 
" clip-path="url(#p14fdf780f7)" style="fill: none; stroke: #b0b0b0; stroke-width: 0.8; stroke-linecap: square"/>
     </g>
     <g id="line2d_22">
      <g>
       <use xlink:href="#me1fe11bda2" x="35.03" y="62.357143" style="stroke: #000000; stroke-width: 0.8"/>
      </g>
     </g>
     <g id="text_12">
      <text style="font: 10px 'Times New Roman'; text-anchor: end" x="28.03" y="65.829018" transform="rotate(-0 28.03 65.829018)">0.5</text>
     </g>
    </g>
    <g id="ytick_3">
     <g id="line2d_23">
      <path d="M 35.03 27.714286 
L 540 27.714286 
" clip-path="url(#p14fdf780f7)" style="fill: none; stroke: #b0b0b0; stroke-width: 0.8; stroke-linecap: square"/>
     </g>
     <g id="line2d_24">
      <g>
       <use xlink:href="#me1fe11bda2" x="35.03" y="27.714286" style="stroke: #000000; stroke-width: 0.8"/>
      </g>
     </g>
     <g id="text_13">
      <text style="font: 10px 'Times New Roman'; text-anchor: end" x="28.03" y="31.186161" transform="rotate(-0 28.03 31.186161)">1.0</text>
     </g>
    </g>
    <g id="text_14">
     <text style="font: 12px 'Times New Roman'; text-anchor: middle" x="8.963125" y="48.5" transform="rotate(-90 8.963125 48.5)">Normalized Value</text>
    </g>
   </g>
   <g id="line2d_25">
    <path d="M 35.03 51.168585 
L 36.235323 27.517166 
L 37.440646 21.419816 
L 38.645968 19.217692 
L 39.851291 21.580244 
L 41.056614 21.173701 
L 42.261937 17.448695 
L 43.46726 17.590545 
L 44.672583 21.624619 
L 45.877905 24.061077 
L 47.083228 21.401113 
L 48.288551 22.158966 
L 49.493874 23.12405 
L 50.699197 23.741187 
L 51.90452 25.618055 
L 53.109842 25.055264 
L 54.315165 26.330956 
L 55.520488 28.3664 
L 56.725811 29.339106 
L 57.931134 27.884912 
L 59.136457 27.753341 
L 60.341779 28.438342 
L 61.547102 28.235233 
L 62.752425 27.004322 
L 63.957748 28.201492 
L 66.368394 28.770218 
L 67.573716 27.556971 
L 68.779039 26.74315 
L 69.984362 26.882592 
L 71.189685 27.692888 
L 72.395008 27.069157 
L 73.600331 27.713059 
L 76.010976 28.54688 
L 78.421622 28.951235 
L 79.626945 28.52036 
L 80.832268 27.849538 
L 82.03759 27.892352 
L 83.242913 28.259082 
L 84.448236 28.15666 
L 85.653559 28.41672 
L 86.858882 28.464221 
L 88.064205 28.209941 
L 89.269527 28.227856 
L 90.47485 28.426555 
L 91.680173 28.033064 
L 94.090819 28.104673 
L 95.296142 27.835526 
L 96.501464 28.079257 
L 97.706787 27.854911 
L 98.91211 27.160528 
L 101.322756 27.338396 
L 102.528079 26.769459 
L 103.733401 26.657756 
L 104.938724 26.858486 
L 106.144047 26.757698 
L 107.34937 26.912637 
L 108.554693 27.301667 
L 109.760016 26.941395 
L 110.965338 27.015191 
L 113.375984 27.454586 
L 114.581307 27.246941 
L 115.78663 27.381434 
L 116.991953 27.727301 
L 118.197275 26.889779 
L 120.607921 27.430603 
L 121.813244 27.140888 
L 124.223889 27.352994 
L 126.634535 26.681161 
L 127.839858 26.870672 
L 129.045181 26.852736 
L 130.250504 27.110604 
L 131.455826 27.159019 
L 133.866472 26.773471 
L 136.277118 27.198467 
L 137.482441 27.075134 
L 138.687763 26.621879 
L 141.098409 26.95772 
L 143.509055 27.511621 
L 145.9197 27.678874 
L 148.330346 27.882418 
L 149.535669 28.294886 
L 150.740992 28.262202 
L 153.151637 28.551223 
L 154.35696 28.288434 
L 155.562283 28.558606 
L 157.972929 28.669137 
L 159.178252 28.212809 
L 160.383574 28.23351 
L 161.588897 28.371113 
L 162.79422 28.123162 
L 163.999543 27.698545 
L 165.204866 27.399379 
L 166.410189 27.253202 
L 167.615511 26.784137 
L 168.820834 26.631076 
L 170.026157 26.781817 
L 171.23148 26.361596 
L 174.847448 26.395017 
L 176.052771 26.567248 
L 177.258094 26.293924 
L 180.874063 26.556213 
L 182.079385 26.522307 
L 184.490031 26.650892 
L 186.900677 26.65197 
L 189.311322 27.056505 
L 191.721968 27.079448 
L 192.927291 26.865879 
L 194.132614 26.774366 
L 195.337937 26.866712 
L 196.543259 27.07164 
L 197.748582 26.896128 
L 198.953905 27.052341 
L 201.364551 26.237295 
L 203.775196 26.48022 
L 204.980519 26.050129 
L 207.391165 26.168333 
L 208.596488 26.217829 
L 209.80181 26.50558 
L 212.212456 26.338297 
L 213.417779 26.010503 
L 214.623102 26.030668 
L 215.828425 26.176196 
L 217.033747 25.971167 
L 219.444393 25.933506 
L 223.060362 25.844976 
L 226.67633 26.16892 
L 231.497621 26.293248 
L 233.908267 26.169365 
L 243.55085 26.528055 
L 244.756173 26.495965 
L 245.961495 26.631893 
L 248.372141 26.520857 
L 249.577464 26.181054 
L 250.782787 26.319717 
L 251.98811 26.094864 
L 261.630692 26.592336 
L 264.041338 26.74859 
L 265.246661 26.831805 
L 266.451984 26.749783 
L 267.657306 26.480715 
L 271.273275 26.922161 
L 272.478598 27.095587 
L 273.683921 26.809437 
L 274.889243 26.85639 
L 277.299889 27.179377 
L 280.915858 27.187979 
L 283.326503 27.466878 
L 286.942472 27.34319 
L 291.763763 26.980282 
L 292.969086 26.996684 
L 294.174409 26.83585 
L 298.9957 26.938828 
L 301.406346 26.943368 
L 303.816991 26.743328 
L 308.638283 27.256738 
L 309.843605 27.164171 
L 314.664897 27.40723 
L 315.87022 27.350699 
L 318.280865 27.600192 
L 319.486188 27.443551 
L 320.691511 27.520615 
L 324.307479 27.332581 
L 327.923448 27.434623 
L 330.334094 27.302449 
L 331.539416 27.479996 
L 333.950062 27.282271 
L 343.592645 27.242792 
L 346.00329 27.371373 
L 350.824582 27.219592 
L 352.029905 27.377254 
L 370.109747 27.898036 
L 374.931038 28.004515 
L 378.547007 27.897726 
L 379.75233 27.791592 
L 383.368298 27.878927 
L 384.573621 27.814142 
L 393.010881 28.122632 
L 405.064109 27.713459 
L 407.474755 27.861962 
L 409.8854 27.876248 
L 412.296046 27.990297 
L 415.912015 27.706632 
L 425.554597 27.765793 
L 426.75992 27.697597 
L 429.170566 27.732418 
L 431.581211 27.703476 
L 432.786534 27.501852 
L 436.402503 27.530356 
L 440.018471 27.528969 
L 441.223794 27.351694 
L 452.071699 27.685605 
L 453.277022 27.778186 
L 455.687668 27.751313 
L 461.714282 27.757532 
L 472.562188 28.111393 
L 473.76751 27.990074 
L 474.972833 28.06977 
L 477.383479 28.008019 
L 482.20477 27.946993 
L 496.668644 27.943171 
L 497.873967 27.800123 
L 507.51655 27.780844 
L 508.721873 27.831063 
L 511.132518 27.741365 
L 515.95381 27.714286 
L 515.95381 27.714286 
" clip-path="url(#p14fdf780f7)" style="fill: none; stroke: #4169e1; stroke-width: 1.5; stroke-linecap: square"/>
   </g>
   <g id="line2d_26">
    <path d="M 35.03 97 
L 36.235323 10.998771 
L 37.440646 28.234367 
L 38.645968 43.189142 
L 41.056614 58.138612 
L 42.261937 50.890669 
L 43.46726 56.632681 
L 44.672583 41.102365 
L 45.877905 38.47821 
L 47.083228 32.920561 
L 48.288551 37.289215 
L 49.493874 40.164041 
L 50.699197 43.462556 
L 51.90452 39.449689 
L 53.109842 42.316158 
L 54.315165 41.529706 
L 55.520488 33.783161 
L 56.725811 34.492023 
L 57.931134 31.440267 
L 59.136457 34.508932 
L 60.341779 35.83451 
L 61.547102 38.354348 
L 63.957748 32.614433 
L 66.368394 36.760083 
L 67.573716 32.801344 
L 68.779039 32.164036 
L 69.984362 34.238543 
L 71.189685 33.234811 
L 72.395008 33.373317 
L 73.600331 33.261635 
L 74.805653 34.104915 
L 76.010976 35.135364 
L 78.421622 38.03896 
L 79.626945 38.534488 
L 80.832268 37.404622 
L 82.03759 38.883516 
L 83.242913 39.473921 
L 84.448236 40.777465 
L 85.653559 41.648262 
L 86.858882 42.891339 
L 88.064205 43.656367 
L 89.269527 44.813791 
L 90.47485 45.644921 
L 91.680173 45.596004 
L 94.090819 47.625843 
L 96.501464 48.512924 
L 97.706787 49.0254 
L 98.91211 45.984981 
L 101.322756 47.674815 
L 102.528079 45.753371 
L 103.733401 46.527588 
L 104.938724 47.023765 
L 106.144047 47.764561 
L 107.34937 48.350257 
L 108.554693 47.71559 
L 109.760016 47.260673 
L 110.965338 47.985104 
L 112.170661 48.075977 
L 113.375984 48.49428 
L 114.581307 48.780747 
L 115.78663 49.303532 
L 116.991953 48.744185 
L 118.197275 41.992539 
L 119.402598 42.259556 
L 120.607921 41.876669 
L 121.813244 41.702676 
L 124.223889 42.919713 
L 125.429212 41.882755 
L 126.634535 41.666617 
L 127.839858 41.950864 
L 129.045181 42.643831 
L 130.250504 42.515657 
L 131.455826 43.159474 
L 132.661149 43.472011 
L 133.866472 43.510465 
L 135.071795 43.276058 
L 136.277118 43.562003 
L 137.482441 43.9846 
L 138.687763 41.877689 
L 139.893086 42.317294 
L 141.098409 42.290698 
L 143.509055 41.393308 
L 144.714378 41.984013 
L 145.9197 42.314193 
L 147.125023 42.856843 
L 148.330346 43.096207 
L 149.535669 41.172887 
L 151.946315 42.177187 
L 153.151637 42.131098 
L 155.562283 41.054721 
L 156.767606 41.597538 
L 157.972929 42.004345 
L 159.178252 39.23567 
L 160.383574 39.778954 
L 161.588897 40.013119 
L 162.79422 39.543798 
L 163.999543 37.109816 
L 165.204866 36.173199 
L 166.410189 36.368093 
L 167.615511 33.193425 
L 170.026157 33.535215 
L 171.23148 31.024136 
L 174.847448 32.708962 
L 176.052771 32.72022 
L 177.258094 31.905104 
L 178.463417 32.241157 
L 179.66874 32.303637 
L 182.079385 33.333754 
L 183.284708 33.666929 
L 186.900677 35.120869 
L 188.106 34.726454 
L 189.311322 34.479986 
L 191.721968 35.403307 
L 192.927291 34.95132 
L 195.337937 35.534363 
L 196.543259 35.124503 
L 197.748582 34.940122 
L 198.953905 34.882888 
L 200.159228 32.526837 
L 201.364551 28.693649 
L 203.775196 29.030048 
L 204.980519 25.498836 
L 206.185842 25.768919 
L 208.596488 26.691882 
L 209.80181 25.327608 
L 211.007133 25.735941 
L 212.212456 25.954485 
L 213.417779 23.986431 
L 214.623102 24.463872 
L 215.828425 24.455846 
L 217.033747 23.957225 
L 219.444393 24.800153 
L 223.060362 26.095794 
L 224.265684 26.087952 
L 225.471007 25.554391 
L 229.086976 26.801482 
L 230.292299 27.091102 
L 231.497621 27.501387 
L 232.702944 27.690766 
L 236.318913 28.806784 
L 237.524236 29.157186 
L 238.729558 29.234744 
L 241.140204 29.845151 
L 244.756173 30.923951 
L 245.961495 30.802281 
L 247.166818 31.176016 
L 248.372141 31.228916 
L 249.577464 28.436512 
L 250.782787 28.288284 
L 251.98811 27.26877 
L 253.193432 27.578095 
L 254.398755 27.526776 
L 255.604078 27.693176 
L 261.630692 29.156014 
L 262.836015 29.036281 
L 264.041338 29.368957 
L 266.451984 29.668922 
L 267.657306 27.8678 
L 268.862629 27.772473 
L 270.067952 26.80181 
L 271.273275 26.803445 
L 272.478598 26.247045 
L 273.683921 24.110033 
L 274.889243 24.407033 
L 276.094566 23.35063 
L 277.299889 23.352969 
L 280.915858 24.417624 
L 282.12118 23.650836 
L 283.326503 23.746008 
L 284.531826 24.087524 
L 285.737149 24.192927 
L 286.942472 24.52907 
L 288.147794 24.566395 
L 289.353117 24.852707 
L 290.55844 24.271632 
L 292.969086 24.836258 
L 294.174409 24.315303 
L 296.585054 24.736908 
L 297.790377 24.75726 
L 298.9957 24.654374 
L 301.406346 25.217101 
L 302.611668 25.299653 
L 303.816991 25.156037 
L 306.227637 24.672445 
L 307.43296 24.529096 
L 308.638283 24.129286 
L 311.048928 24.261435 
L 312.254251 24.457646 
L 313.459574 24.769816 
L 314.664897 24.682838 
L 315.87022 24.877407 
L 317.075542 24.868573 
L 319.486188 23.713625 
L 323.102157 23.986331 
L 327.923448 24.934479 
L 329.128771 24.704984 
L 330.334094 24.991456 
L 331.539416 24.090779 
L 332.744739 23.587229 
L 335.155385 24.067252 
L 336.360708 24.300859 
L 337.566031 23.763882 
L 338.771353 24.05335 
L 339.976676 24.054604 
L 342.387322 24.370001 
L 343.592645 24.6429 
L 344.797968 24.417801 
L 349.619259 25.440617 
L 350.824582 25.465847 
L 352.029905 24.731732 
L 353.235227 24.972324 
L 354.44055 24.736957 
L 355.645873 24.995396 
L 356.851196 25.118598 
L 361.672487 26.076135 
L 362.87781 26.112633 
L 364.083133 25.698178 
L 365.288456 24.773084 
L 368.904424 25.389961 
L 370.109747 25.27273 
L 371.31507 25.45579 
L 372.520393 25.093261 
L 373.725715 25.347172 
L 374.931038 25.446706 
L 377.341684 25.902074 
L 378.547007 25.98917 
L 379.75233 25.741305 
L 384.573621 26.415586 
L 390.600235 26.992002 
L 393.010881 27.351161 
L 395.421526 27.67422 
L 396.626849 27.636806 
L 399.037495 28.083958 
L 400.242818 27.465801 
L 402.653463 27.88586 
L 403.858786 27.823737 
L 405.064109 27.924088 
L 406.269432 27.57825 
L 408.680078 27.953101 
L 409.8854 28.162238 
L 411.090723 27.953163 
L 412.296046 28.1548 
L 413.501369 27.850084 
L 414.706692 27.758393 
L 415.912015 27.496058 
L 417.117337 27.699356 
L 420.733306 27.908456 
L 421.938629 28.016554 
L 423.143952 27.989947 
L 425.554597 28.358 
L 426.75992 28.336181 
L 429.170566 28.648422 
L 431.581211 29.024584 
L 432.786534 27.167462 
L 433.991857 27.357807 
L 435.19718 27.209031 
L 440.018471 27.872052 
L 441.223794 26.448344 
L 442.429117 26.619448 
L 443.63444 26.541244 
L 446.045085 26.882534 
L 447.250408 26.77603 
L 452.071699 27.304191 
L 453.277022 27.04721 
L 454.482345 27.090999 
L 458.098314 27.505188 
L 459.303636 27.229315 
L 465.330251 27.843066 
L 466.535573 27.763537 
L 472.562188 28.039205 
L 473.76751 27.404473 
L 476.178156 27.119892 
L 478.588802 27.392721 
L 479.794125 27.549903 
L 482.20477 27.610547 
L 483.410093 27.796158 
L 484.615416 27.414802 
L 485.820739 27.321026 
L 489.436707 27.711701 
L 495.463321 28.324747 
L 496.668644 28.258823 
L 497.873967 27.229322 
L 502.695258 27.79862 
L 503.900581 27.765666 
L 505.105904 27.927518 
L 509.927195 27.687053 
L 512.337841 28.013498 
L 513.543164 27.661105 
L 514.748487 27.550354 
L 515.95381 27.714286 
L 515.95381 27.714286 
" clip-path="url(#p14fdf780f7)" style="fill: none; stroke-dasharray: 5.55,2.4; stroke-dashoffset: 0; stroke: #4169e1; stroke-width: 1.5"/>
   </g>
   <g id="line2d_27">
    <path d="M 35.03 50.57143 
L 36.235323 33.099629 
L 37.440646 24.238852 
L 38.645968 21.095587 
L 39.851291 22.627863 
L 41.056614 21.285091 
L 42.261937 18.728043 
L 43.46726 19.565116 
L 44.672583 22.811156 
L 45.877905 24.672324 
L 47.083228 22.52664 
L 48.288551 23.143901 
L 50.699197 24.710955 
L 51.90452 26.23763 
L 53.109842 25.484547 
L 54.315165 26.523675 
L 55.520488 28.346135 
L 56.725811 29.091455 
L 57.931134 28.416667 
L 59.136457 28.143053 
L 60.341779 28.630052 
L 61.547102 28.269182 
L 62.752425 26.913277 
L 63.957748 27.818837 
L 66.368394 28.110926 
L 67.573716 27.093474 
L 68.779039 26.712236 
L 69.984362 26.791472 
L 71.189685 27.55463 
L 72.395008 27.063505 
L 73.600331 27.666942 
L 78.421622 28.745332 
L 79.626945 28.234168 
L 80.832268 28.012158 
L 82.03759 28.093316 
L 83.242913 28.334897 
L 84.448236 28.19687 
L 86.858882 28.41278 
L 89.269527 28.222644 
L 92.885496 28.319775 
L 94.090819 28.215531 
L 95.296142 27.984515 
L 96.501464 28.153021 
L 97.706787 28.046285 
L 98.91211 27.614833 
L 101.322756 27.731224 
L 102.528079 27.163545 
L 103.733401 27.073397 
L 104.938724 27.353261 
L 106.144047 27.287147 
L 107.34937 27.353577 
L 108.554693 27.63853 
L 109.760016 27.423811 
L 110.965338 27.477325 
L 113.375984 27.796973 
L 114.581307 27.65668 
L 115.78663 27.776756 
L 116.991953 28.056756 
L 118.197275 27.409561 
L 119.402598 27.521167 
L 120.607921 27.798198 
L 121.813244 27.577457 
L 124.223889 27.784746 
L 126.634535 27.127998 
L 127.839858 27.286687 
L 129.045181 27.254185 
L 130.250504 27.447749 
L 132.661149 27.249478 
L 133.866472 27.067176 
L 135.071795 27.345287 
L 136.277118 27.503034 
L 137.482441 27.355257 
L 138.687763 26.928007 
L 141.098409 27.271276 
L 143.509055 27.68707 
L 147.125023 27.804303 
L 148.330346 27.977918 
L 149.535669 28.357226 
L 151.946315 28.327253 
L 153.151637 28.496895 
L 154.35696 28.245772 
L 155.562283 28.483945 
L 157.972929 28.534515 
L 159.178252 28.181216 
L 160.383574 28.205671 
L 161.588897 28.364567 
L 162.79422 28.120504 
L 163.999543 27.746056 
L 165.204866 27.520188 
L 166.410189 27.448978 
L 167.615511 27.056354 
L 168.820834 26.888716 
L 170.026157 27.022262 
L 171.23148 26.674221 
L 176.052771 26.816062 
L 177.258094 26.609575 
L 184.490031 26.912874 
L 186.900677 26.877798 
L 189.311322 27.223159 
L 191.721968 27.257699 
L 194.132614 26.901851 
L 196.543259 27.150119 
L 197.748582 26.975748 
L 198.953905 27.136561 
L 200.159228 26.826685 
L 201.364551 26.373336 
L 203.775196 26.607264 
L 204.980519 26.226025 
L 206.185842 26.323876 
L 208.596488 26.329952 
L 209.80181 26.598875 
L 212.212456 26.41829 
L 213.417779 26.186002 
L 215.828425 26.307325 
L 217.033747 26.073828 
L 221.855039 26.037088 
L 223.060362 26.022205 
L 225.471007 26.34644 
L 229.086976 26.432928 
L 231.497621 26.468726 
L 233.908267 26.359589 
L 236.318913 26.491242 
L 247.166818 26.761137 
L 249.577464 26.464883 
L 250.782787 26.604338 
L 251.98811 26.441027 
L 255.604078 26.612541 
L 262.836015 26.933626 
L 266.451984 27.001584 
L 267.657306 26.7874 
L 271.273275 27.202179 
L 272.478598 27.366141 
L 273.683921 27.095376 
L 274.889243 27.114064 
L 277.299889 27.400511 
L 280.915858 27.374409 
L 283.326503 27.627076 
L 286.942472 27.469791 
L 290.55844 27.160462 
L 295.379731 27.097827 
L 297.790377 27.234532 
L 298.9957 27.128111 
L 302.611668 27.05699 
L 303.816991 26.96858 
L 308.638283 27.428797 
L 309.843605 27.360721 
L 314.664897 27.607261 
L 315.87022 27.534342 
L 318.280865 27.75572 
L 319.486188 27.644561 
L 320.691511 27.73076 
L 323.102157 27.589594 
L 336.360708 27.53044 
L 337.566031 27.368749 
L 339.976676 27.47367 
L 342.387322 27.487122 
L 343.592645 27.46438 
L 346.00329 27.581271 
L 349.619259 27.517487 
L 350.824582 27.419998 
L 352.029905 27.567566 
L 362.87781 27.837036 
L 364.083133 27.731745 
L 365.288456 27.883647 
L 368.904424 27.874966 
L 372.520393 28.107201 
L 378.547007 27.981306 
L 379.75233 27.883496 
L 383.368298 27.928882 
L 384.573621 27.859405 
L 394.216204 28.124238 
L 399.037495 28.005341 
L 401.448141 27.867728 
L 402.653463 27.879718 
L 405.064109 27.729462 
L 407.474755 27.869922 
L 409.8854 27.874259 
L 412.296046 27.975078 
L 419.527983 27.709465 
L 425.554597 27.726527 
L 427.965243 27.716874 
L 431.581211 27.702395 
L 432.786534 27.56984 
L 443.63444 27.552388 
L 458.098314 27.798039 
L 459.303636 27.689113 
L 472.562188 28.051847 
L 473.76751 27.967209 
L 474.972833 28.037699 
L 477.383479 27.990365 
L 480.999447 27.88584 
L 483.410093 27.931737 
L 484.615416 27.85269 
L 487.026062 27.87603 
L 495.463321 27.863203 
L 496.668644 27.920521 
L 499.07929 27.798342 
L 505.105904 27.681605 
L 508.721873 27.820659 
L 513.543164 27.657906 
L 515.95381 27.714286 
L 515.95381 27.714286 
" clip-path="url(#p14fdf780f7)" style="fill: none; stroke: #ff8c00; stroke-width: 1.5; stroke-linecap: square"/>
   </g>
   <g id="line2d_28">
    <path d="M 35.03 97 
L 36.235323 35.186227 
L 37.440646 23.994016 
L 38.645968 36.243552 
L 39.851291 46.493135 
L 41.056614 53.085435 
L 42.261937 51.41495 
L 43.46726 56.119887 
L 44.672583 43.593137 
L 45.877905 42.620998 
L 47.083228 38.241844 
L 48.288551 42.289683 
L 49.493874 45.11226 
L 50.699197 47.083563 
L 51.90452 43.803919 
L 53.109842 45.406066 
L 54.315165 44.942617 
L 55.520488 36.401308 
L 57.931134 38.785821 
L 59.136457 41.254734 
L 60.341779 42.780088 
L 61.547102 44.557335 
L 62.752425 38.18003 
L 63.957748 36.547579 
L 66.368394 40.80653 
L 67.573716 37.153631 
L 68.779039 38.393237 
L 69.984362 40.309927 
L 71.189685 38.600617 
L 72.395008 38.911492 
L 73.600331 38.312231 
L 74.805653 39.556524 
L 77.216299 41.466853 
L 78.421622 42.676572 
L 79.626945 42.148497 
L 80.832268 43.175685 
L 82.03759 44.469276 
L 83.242913 45.277801 
L 86.858882 48.424445 
L 92.885496 53.162477 
L 94.090819 53.931405 
L 95.296142 54.235551 
L 96.501464 54.764713 
L 97.706787 55.441645 
L 98.91211 54.213443 
L 101.322756 55.663122 
L 102.528079 52.734036 
L 103.733401 53.403443 
L 104.938724 53.222483 
L 107.34937 54.552832 
L 108.554693 54.2345 
L 109.760016 54.334504 
L 110.965338 54.964619 
L 112.170661 55.100736 
L 114.581307 55.89809 
L 115.78663 56.306916 
L 116.991953 55.817141 
L 118.197275 50.55313 
L 119.402598 51.030755 
L 120.607921 50.565844 
L 121.813244 50.491522 
L 123.018567 51.040648 
L 124.223889 51.38432 
L 125.429212 49.999729 
L 126.634535 49.26871 
L 127.839858 49.488009 
L 129.045181 50.072742 
L 130.250504 50.059978 
L 131.455826 50.535187 
L 132.661149 50.873328 
L 133.866472 50.87724 
L 135.071795 50.126381 
L 137.482441 50.422242 
L 138.687763 47.778756 
L 139.893086 48.090928 
L 141.098409 47.739792 
L 142.303732 47.633633 
L 143.509055 47.250474 
L 145.9197 48.29699 
L 147.125023 48.726879 
L 148.330346 48.661281 
L 149.535669 46.397112 
L 151.946315 47.406242 
L 153.151637 47.3361 
L 155.562283 45.919194 
L 157.972929 46.861535 
L 159.178252 44.740295 
L 160.383574 45.225412 
L 161.588897 45.177038 
L 162.79422 44.382811 
L 163.999543 41.832079 
L 165.204866 41.222519 
L 166.410189 41.617665 
L 167.615511 38.68296 
L 168.820834 38.571989 
L 170.026157 38.684579 
L 171.23148 36.424401 
L 174.847448 37.968672 
L 176.052771 38.084337 
L 177.258094 37.560652 
L 178.463417 37.978369 
L 179.66874 37.824133 
L 182.079385 38.768612 
L 183.284708 38.988925 
L 186.900677 40.32131 
L 189.311322 39.666157 
L 191.721968 40.402528 
L 192.927291 39.378657 
L 194.132614 39.415138 
L 195.337937 39.569833 
L 196.543259 39.407219 
L 197.748582 38.999515 
L 198.953905 38.710695 
L 200.159228 36.469255 
L 201.364551 31.161518 
L 203.775196 31.322319 
L 204.980519 27.635063 
L 206.185842 27.844816 
L 208.596488 28.771402 
L 209.80181 27.115314 
L 212.212456 27.577562 
L 213.417779 26.426428 
L 214.623102 26.870201 
L 215.828425 27.079977 
L 217.033747 25.87293 
L 223.060362 28.056058 
L 225.471007 27.251174 
L 227.881653 28.046769 
L 232.702944 29.389215 
L 233.908267 29.731738 
L 235.11359 29.720596 
L 237.524236 30.451814 
L 238.729558 30.543646 
L 242.345527 31.61777 
L 244.756173 32.328748 
L 245.961495 32.339367 
L 247.166818 32.704678 
L 248.372141 32.630955 
L 249.577464 31.742308 
L 250.782787 31.399945 
L 251.98811 30.790266 
L 253.193432 31.138271 
L 254.398755 31.12419 
L 261.630692 32.746836 
L 262.836015 32.543331 
L 264.041338 32.784471 
L 266.451984 33.038546 
L 267.657306 31.575406 
L 268.862629 31.438842 
L 270.067952 30.06304 
L 271.273275 30.029109 
L 272.478598 29.294927 
L 273.683921 26.695741 
L 274.889243 27.03319 
L 276.094566 25.930008 
L 277.299889 25.89773 
L 280.915858 26.907436 
L 282.12118 25.868419 
L 283.326503 26.005399 
L 284.531826 26.279848 
L 285.737149 26.282977 
L 286.942472 26.586246 
L 288.147794 26.26683 
L 289.353117 26.583129 
L 290.55844 25.741499 
L 292.969086 26.298114 
L 294.174409 25.965657 
L 295.379731 26.073133 
L 296.585054 26.296682 
L 297.790377 26.273224 
L 298.9957 26.092476 
L 301.406346 26.656676 
L 302.611668 26.886076 
L 303.816991 26.846136 
L 306.227637 26.251914 
L 308.638283 25.673545 
L 312.254251 25.917591 
L 313.459574 26.199628 
L 317.075542 26.186855 
L 318.280865 25.601527 
L 319.486188 25.312291 
L 321.896834 25.105443 
L 324.307479 25.606463 
L 327.923448 26.400821 
L 329.128771 25.744154 
L 330.334094 26.032777 
L 331.539416 25.020145 
L 332.744739 24.176713 
L 336.360708 24.864703 
L 337.566031 23.822171 
L 338.771353 24.098144 
L 339.976676 23.981216 
L 342.387322 24.248943 
L 343.592645 24.505212 
L 344.797968 24.30598 
L 349.619259 25.314901 
L 350.824582 25.083241 
L 352.029905 24.195946 
L 353.235227 24.420915 
L 354.44055 24.127187 
L 361.672487 25.564047 
L 362.87781 25.555916 
L 364.083133 25.203811 
L 365.288456 24.184655 
L 368.904424 24.884379 
L 370.109747 24.679607 
L 371.31507 24.896851 
L 372.520393 24.409257 
L 373.725715 24.662639 
L 374.931038 24.795967 
L 377.341684 25.285072 
L 378.547007 25.400049 
L 379.75233 25.09548 
L 383.368298 25.749191 
L 384.573621 25.710583 
L 386.984267 25.969833 
L 388.189589 25.827957 
L 395.421526 26.921108 
L 396.626849 26.752896 
L 399.037495 27.170014 
L 400.242818 26.459564 
L 402.653463 26.900005 
L 403.858786 26.491712 
L 405.064109 26.572026 
L 406.269432 26.209152 
L 408.680078 26.544062 
L 409.8854 26.759849 
L 411.090723 26.347293 
L 412.296046 26.572291 
L 413.501369 26.554828 
L 414.706692 26.212848 
L 415.912015 25.459483 
L 418.32266 25.838733 
L 420.733306 26.11774 
L 424.349274 26.59975 
L 425.554597 26.715208 
L 427.965243 26.755196 
L 431.581211 27.372349 
L 432.786534 26.408565 
L 433.991857 26.613876 
L 435.19718 26.565551 
L 440.018471 27.21963 
L 441.223794 26.110413 
L 442.429117 26.286269 
L 443.63444 26.108185 
L 446.045085 26.453261 
L 447.250408 26.41556 
L 452.071699 26.936991 
L 454.482345 26.895517 
L 456.892991 27.267519 
L 458.098314 27.312279 
L 459.303636 26.663991 
L 465.330251 27.336703 
L 466.535573 27.14415 
L 467.740896 27.191 
L 470.151542 27.078685 
L 471.356865 27.259407 
L 472.562188 27.322445 
L 473.76751 26.985333 
L 476.178156 26.616469 
L 477.383479 26.762529 
L 478.588802 26.779572 
L 479.794125 26.954436 
L 483.410093 27.224646 
L 484.615416 26.939263 
L 485.820739 26.836062 
L 488.231384 27.084138 
L 495.463321 27.917048 
L 496.668644 27.842159 
L 497.873967 27.041865 
L 501.489936 27.462949 
L 502.695258 27.551756 
L 503.900581 27.492236 
L 505.105904 27.634272 
L 507.51655 27.539386 
L 508.721873 27.630088 
L 509.927195 27.523964 
L 512.337841 27.822763 
L 513.543164 27.609999 
L 514.748487 27.54081 
L 515.95381 27.714286 
L 515.95381 27.714286 
" clip-path="url(#p14fdf780f7)" style="fill: none; stroke-dasharray: 5.55,2.4; stroke-dashoffset: 0; stroke: #ff8c00; stroke-width: 1.5"/>
   </g>
   <g id="patch_3">
    <path d="M 35.03 97 
L 35.03 0 
" style="fill: none; stroke: #000000; stroke-width: 0.8; stroke-linejoin: miter; stroke-linecap: square"/>
   </g>
   <g id="patch_4">
    <path d="M 540 97 
L 540 0 
" style="fill: none; stroke: #000000; stroke-width: 0.8; stroke-linejoin: miter; stroke-linecap: square"/>
   </g>
   <g id="patch_5">
    <path d="M 35.03 97 
L 540 97 
" style="fill: none; stroke: #000000; stroke-width: 0.8; stroke-linejoin: miter; stroke-linecap: square"/>
   </g>
   <g id="patch_6">
    <path d="M 35.03 0 
L 540 0 
" style="fill: none; stroke: #000000; stroke-width: 0.8; stroke-linejoin: miter; stroke-linecap: square"/>
   </g>
  </g>
 </g>
 <defs>
  <clipPath id="p14fdf780f7">
   <rect x="35.03" y="0" width="504.97" height="97"/>
  </clipPath>
 </defs>
</svg>
