<?xml version="1.0" encoding="utf-8" standalone="no"?>
<!DOCTYPE svg PUBLIC "-//W3C//DTD SVG 1.1//EN"
  "http://www.w3.org/Graphics/SVG/1.1/DTD/svg11.dtd">
<svg xmlns:xlink="http://www.w3.org/1999/xlink" width="540pt" height="129.6pt" viewBox="0 0 540 129.6" xmlns="http://www.w3.org/2000/svg" version="1.1">
 <metadata>
  <rdf:RDF xmlns:dc="http://purl.org/dc/elements/1.1/" xmlns:cc="http://creativecommons.org/ns#" xmlns:rdf="http://www.w3.org/1999/02/22-rdf-syntax-ns#">
   <cc:Work>
    <dc:type rdf:resource="http://purl.org/dc/dcmitype/StillImage"/>
    <dc:date>2025-04-05T13:49:14.749200</dc:date>
    <dc:format>image/svg+xml</dc:format>
    <dc:creator>
     <cc:Agent>
      <dc:title>Matplotlib v3.10.1, https://matplotlib.org/</dc:title>
     </cc:Agent>
    </dc:creator>
   </cc:Work>
  </rdf:RDF>
 </metadata>
 <defs>
  <style type="text/css">*{stroke-linejoin: round; stroke-linecap: butt}</style>
 </defs>
 <g id="figure_1">
  <g id="patch_1">
   <path d="M 0 129.6 
L 540 129.6 
L 540 0 
L 0 0 
z
" style="fill: #ffffff"/>
  </g>
  <g id="axes_1">
   <g id="patch_2">
    <path d="M 26.795 98.44 
L 540 98.44 
L 540 0 
L 26.795 0 
z
" style="fill: #ffffff"/>
   </g>
   <g id="matplotlib.axis_1">
    <g id="xtick_1">
     <g id="line2d_1">
      <path d="M 26.795 98.44 
L 26.795 0 
" clip-path="url(#p6173b8e58b)" style="fill: none; stroke: #b0b0b0; stroke-width: 0.8; stroke-linecap: square"/>
     </g>
     <g id="line2d_2">
      <defs>
       <path id="ma1483c40de" d="M 0 0 
L 0 3.5 
" style="stroke: #000000; stroke-width: 0.8"/>
      </defs>
      <g>
       <use xlink:href="#ma1483c40de" x="26.795" y="98.44" style="stroke: #000000; stroke-width: 0.8"/>
      </g>
     </g>
     <g id="text_1">
      <text style="font-size: 10px; font-family: 'Times New Roman'; text-anchor: middle" x="26.795" y="112.38375" transform="rotate(-0 26.795 112.38375)">0</text>
     </g>
    </g>
    <g id="xtick_2">
     <g id="line2d_3">
      <path d="M 88.043956 98.44 
L 88.043956 0 
" clip-path="url(#p6173b8e58b)" style="fill: none; stroke: #b0b0b0; stroke-width: 0.8; stroke-linecap: square"/>
     </g>
     <g id="line2d_4">
      <g>
       <use xlink:href="#ma1483c40de" x="88.043956" y="98.44" style="stroke: #000000; stroke-width: 0.8"/>
      </g>
     </g>
     <g id="text_2">
      <text style="font-size: 10px; font-family: 'Times New Roman'; text-anchor: middle" x="88.043956" y="112.38375" transform="rotate(-0 88.043956 112.38375)">50</text>
     </g>
    </g>
    <g id="xtick_3">
     <g id="line2d_5">
      <path d="M 149.292911 98.44 
L 149.292911 0 
" clip-path="url(#p6173b8e58b)" style="fill: none; stroke: #b0b0b0; stroke-width: 0.8; stroke-linecap: square"/>
     </g>
     <g id="line2d_6">
      <g>
       <use xlink:href="#ma1483c40de" x="149.292911" y="98.44" style="stroke: #000000; stroke-width: 0.8"/>
      </g>
     </g>
     <g id="text_3">
      <text style="font-size: 10px; font-family: 'Times New Roman'; text-anchor: middle" x="149.292911" y="112.38375" transform="rotate(-0 149.292911 112.38375)">100</text>
     </g>
    </g>
    <g id="xtick_4">
     <g id="line2d_7">
      <path d="M 210.541867 98.44 
L 210.541867 0 
" clip-path="url(#p6173b8e58b)" style="fill: none; stroke: #b0b0b0; stroke-width: 0.8; stroke-linecap: square"/>
     </g>
     <g id="line2d_8">
      <g>
       <use xlink:href="#ma1483c40de" x="210.541867" y="98.44" style="stroke: #000000; stroke-width: 0.8"/>
      </g>
     </g>
     <g id="text_4">
      <text style="font-size: 10px; font-family: 'Times New Roman'; text-anchor: middle" x="210.541867" y="112.38375" transform="rotate(-0 210.541867 112.38375)">150</text>
     </g>
    </g>
    <g id="xtick_5">
     <g id="line2d_9">
      <path d="M 271.790823 98.44 
L 271.790823 0 
" clip-path="url(#p6173b8e58b)" style="fill: none; stroke: #b0b0b0; stroke-width: 0.8; stroke-linecap: square"/>
     </g>
     <g id="line2d_10">
      <g>
       <use xlink:href="#ma1483c40de" x="271.790823" y="98.44" style="stroke: #000000; stroke-width: 0.8"/>
      </g>
     </g>
     <g id="text_5">
      <text style="font-size: 10px; font-family: 'Times New Roman'; text-anchor: middle" x="271.790823" y="112.38375" transform="rotate(-0 271.790823 112.38375)">200</text>
     </g>
    </g>
    <g id="xtick_6">
     <g id="line2d_11">
      <path d="M 333.039779 98.44 
L 333.039779 0 
" clip-path="url(#p6173b8e58b)" style="fill: none; stroke: #b0b0b0; stroke-width: 0.8; stroke-linecap: square"/>
     </g>
     <g id="line2d_12">
      <g>
       <use xlink:href="#ma1483c40de" x="333.039779" y="98.44" style="stroke: #000000; stroke-width: 0.8"/>
      </g>
     </g>
     <g id="text_6">
      <text style="font-size: 10px; font-family: 'Times New Roman'; text-anchor: middle" x="333.039779" y="112.38375" transform="rotate(-0 333.039779 112.38375)">250</text>
     </g>
    </g>
    <g id="xtick_7">
     <g id="line2d_13">
      <path d="M 394.288734 98.44 
L 394.288734 0 
" clip-path="url(#p6173b8e58b)" style="fill: none; stroke: #b0b0b0; stroke-width: 0.8; stroke-linecap: square"/>
     </g>
     <g id="line2d_14">
      <g>
       <use xlink:href="#ma1483c40de" x="394.288734" y="98.44" style="stroke: #000000; stroke-width: 0.8"/>
      </g>
     </g>
     <g id="text_7">
      <text style="font-size: 10px; font-family: 'Times New Roman'; text-anchor: middle" x="394.288734" y="112.38375" transform="rotate(-0 394.288734 112.38375)">300</text>
     </g>
    </g>
    <g id="xtick_8">
     <g id="line2d_15">
      <path d="M 455.53769 98.44 
L 455.53769 0 
" clip-path="url(#p6173b8e58b)" style="fill: none; stroke: #b0b0b0; stroke-width: 0.8; stroke-linecap: square"/>
     </g>
     <g id="line2d_16">
      <g>
       <use xlink:href="#ma1483c40de" x="455.53769" y="98.44" style="stroke: #000000; stroke-width: 0.8"/>
      </g>
     </g>
     <g id="text_8">
      <text style="font-size: 10px; font-family: 'Times New Roman'; text-anchor: middle" x="455.53769" y="112.38375" transform="rotate(-0 455.53769 112.38375)">350</text>
     </g>
    </g>
    <g id="xtick_9">
     <g id="line2d_17">
      <path d="M 516.786646 98.44 
L 516.786646 0 
" clip-path="url(#p6173b8e58b)" style="fill: none; stroke: #b0b0b0; stroke-width: 0.8; stroke-linecap: square"/>
     </g>
     <g id="line2d_18">
      <g>
       <use xlink:href="#ma1483c40de" x="516.786646" y="98.44" style="stroke: #000000; stroke-width: 0.8"/>
      </g>
     </g>
     <g id="text_9">
      <text style="font-size: 10px; font-family: 'Times New Roman'; text-anchor: middle" x="516.786646" y="112.38375" transform="rotate(-0 516.786646 112.38375)">400</text>
     </g>
    </g>
    <g id="text_10">
     <text style="font-size: 12px; font-family: 'Times New Roman'; text-anchor: middle" x="283.3975" y="126.855312" transform="rotate(-0 283.3975 126.855312)">Simulation Run</text>
    </g>
   </g>
   <g id="matplotlib.axis_2">
    <g id="ytick_1">
     <g id="line2d_19">
      <path d="M 26.795 98.44 
L 540 98.44 
" clip-path="url(#p6173b8e58b)" style="fill: none; stroke: #b0b0b0; stroke-width: 0.8; stroke-linecap: square"/>
     </g>
     <g id="line2d_20">
      <defs>
       <path id="m223c3b2fec" d="M 0 0 
L -3.5 0 
" style="stroke: #000000; stroke-width: 0.8"/>
      </defs>
      <g>
       <use xlink:href="#m223c3b2fec" x="26.795" y="98.44" style="stroke: #000000; stroke-width: 0.8"/>
      </g>
     </g>
     <g id="text_11">
      <text style="font-size: 10px; font-family: 'Times New Roman'; text-anchor: end" x="19.795" y="101.911875" transform="rotate(-0 19.795 101.911875)">0</text>
     </g>
    </g>
    <g id="ytick_2">
     <g id="line2d_21">
      <path d="M 26.795 63.282857 
L 540 63.282857 
" clip-path="url(#p6173b8e58b)" style="fill: none; stroke: #b0b0b0; stroke-width: 0.8; stroke-linecap: square"/>
     </g>
     <g id="line2d_22">
      <g>
       <use xlink:href="#m223c3b2fec" x="26.795" y="63.282857" style="stroke: #000000; stroke-width: 0.8"/>
      </g>
     </g>
     <g id="text_12">
      <text style="font-size: 10px; font-family: 'Times New Roman'; text-anchor: end" x="19.795" y="66.754732" transform="rotate(-0 19.795 66.754732)">1</text>
     </g>
    </g>
    <g id="ytick_3">
     <g id="line2d_23">
      <path d="M 26.795 28.125714 
L 540 28.125714 
" clip-path="url(#p6173b8e58b)" style="fill: none; stroke: #b0b0b0; stroke-width: 0.8; stroke-linecap: square"/>
     </g>
     <g id="line2d_24">
      <g>
       <use xlink:href="#m223c3b2fec" x="26.795" y="28.125714" style="stroke: #000000; stroke-width: 0.8"/>
      </g>
     </g>
     <g id="text_13">
      <text style="font-size: 10px; font-family: 'Times New Roman'; text-anchor: end" x="19.795" y="31.597589" transform="rotate(-0 19.795 31.597589)">2</text>
     </g>
    </g>
    <g id="text_14">
     <text style="font-size: 12px; font-family: 'Times New Roman'; text-anchor: middle" x="8.228125" y="49.22" transform="rotate(-90 8.228125 49.22)">Normalized Value</text>
    </g>
   </g>
   <g id="line2d_25">
    <path d="M 26.795 61.921856 
L 29.244958 70.041525 
L 30.469937 67.719401 
L 31.694916 60.595795 
L 32.919896 62.651197 
L 34.144875 61.77411 
L 35.369854 62.690208 
L 36.594833 62.046276 
L 37.819812 62.069302 
L 39.044791 62.33414 
L 40.26977 62.46853 
L 41.494749 63.456258 
L 42.719728 62.853526 
L 47.619645 64.97831 
L 48.844624 64.913792 
L 50.069603 65.630023 
L 51.294582 65.57193 
L 52.519561 65.10569 
L 53.744541 64.981604 
L 54.96952 65.40838 
L 56.194499 66.017174 
L 57.419478 65.990036 
L 58.644457 65.818089 
L 59.869436 66.461265 
L 61.094415 66.700174 
L 65.994332 66.460596 
L 67.219311 66.47897 
L 68.44429 66.21544 
L 74.569185 66.346468 
L 75.794165 66.52962 
L 77.019144 66.560339 
L 78.244123 66.132351 
L 79.469102 65.861142 
L 80.694081 65.312383 
L 81.91906 65.195444 
L 83.144039 65.357102 
L 84.369018 65.018756 
L 85.593997 65.252099 
L 88.043956 65.014438 
L 89.268935 65.235901 
L 90.493914 65.23366 
L 91.718893 65.393355 
L 92.943872 65.361061 
L 95.39383 65.45512 
L 96.61881 65.069293 
L 100.293747 64.949911 
L 101.518726 65.100246 
L 102.743705 64.984432 
L 103.968684 64.980564 
L 105.193663 65.215797 
L 106.418642 65.230841 
L 107.643622 65.072631 
L 108.868601 65.180564 
L 111.318559 64.982466 
L 113.768517 65.050998 
L 114.993496 64.929633 
L 118.668434 65.171041 
L 122.343371 64.961306 
L 123.56835 65.049302 
L 126.018308 64.936097 
L 134.593162 65.443883 
L 135.818141 65.353478 
L 137.04312 65.478751 
L 138.268099 65.487877 
L 139.493079 65.380508 
L 141.943037 65.425281 
L 143.168016 65.271038 
L 145.617974 65.298558 
L 146.842953 65.14222 
L 149.292911 65.236368 
L 150.517891 64.99507 
L 154.192828 65.000729 
L 157.867765 65.06714 
L 160.317723 64.997796 
L 166.442619 65.202483 
L 168.892577 64.948025 
L 171.342536 64.991286 
L 172.567515 64.855801 
L 176.242452 65.065797 
L 178.69241 65.017895 
L 183.592327 65.280502 
L 192.16718 65.315557 
L 194.617139 65.020447 
L 199.517055 64.979897 
L 200.742034 64.896669 
L 203.191992 64.572432 
L 209.316888 64.542464 
L 211.766846 64.739765 
L 212.991825 64.623379 
L 216.666763 64.576866 
L 219.116721 64.541366 
L 220.3417 64.583459 
L 221.566679 64.502836 
L 226.466596 64.58795 
L 228.916554 64.552075 
L 233.81647 64.567803 
L 235.041449 64.34888 
L 237.491408 64.252466 
L 238.716387 64.089047 
L 239.941366 64.136764 
L 242.391324 63.896364 
L 246.066261 63.843119 
L 250.966178 63.819644 
L 261.99099 63.698246 
L 265.665927 63.720837 
L 271.790823 63.742846 
L 276.690739 63.8239 
L 279.140698 63.765968 
L 282.815635 63.749254 
L 284.040614 63.719483 
L 285.265593 63.56918 
L 293.840447 63.288602 
L 297.515384 63.26901 
L 320.789987 63.340046 
L 326.914883 63.432535 
L 330.58982 63.427108 
L 339.164674 63.278786 
L 341.614632 63.173882 
L 347.739528 63.248142 
L 352.639444 63.290251 
L 355.089403 63.282199 
L 358.76434 63.274964 
L 363.664256 63.288832 
L 366.114215 63.279115 
L 369.789152 63.417315 
L 372.23911 63.316832 
L 378.364006 63.403395 
L 386.93886 63.489506 
L 390.613797 63.452754 
L 421.238275 63.653463 
L 423.688233 63.640547 
L 433.488066 63.650068 
L 437.163003 63.682361 
L 442.06292 63.701325 
L 446.962836 63.730961 
L 450.637774 63.657963 
L 455.53769 63.627265 
L 459.212627 63.6332 
L 460.437607 63.614216 
L 461.662586 63.346795 
L 472.687398 63.372365 
L 487.387147 63.332233 
L 491.062084 63.29208 
L 500.861917 63.27168 
L 511.886729 63.257002 
L 515.561667 63.282857 
L 515.561667 63.282857 
" clip-path="url(#p6173b8e58b)" style="fill: none; stroke: #4169e1; stroke-width: 1.5; stroke-linecap: square"/>
   </g>
   <g id="line2d_26">
    <path d="M 26.795 98.44 
L 28.019979 93.543902 
L 29.244958 84.929432 
L 30.469937 83.390878 
L 31.694916 24.713274 
L 32.919896 30.581572 
L 34.144875 38.872904 
L 35.369854 44.533462 
L 37.819812 54.406024 
L 39.044791 58.195956 
L 40.26977 61.489251 
L 41.494749 60.773725 
L 43.944708 63.187901 
L 45.169687 63.633458 
L 46.394666 64.863273 
L 47.619645 65.178516 
L 48.844624 66.906351 
L 50.069603 65.520948 
L 51.294582 67.068009 
L 52.519561 67.106694 
L 53.744541 68.366068 
L 54.96952 68.346044 
L 56.194499 66.846536 
L 57.419478 68.056074 
L 58.644457 68.947789 
L 59.869436 66.606698 
L 61.094415 67.218708 
L 62.319394 68.213987 
L 67.219311 71.630719 
L 68.44429 71.679108 
L 70.894248 73.040959 
L 73.344206 74.27244 
L 74.569185 74.675789 
L 75.794165 74.84763 
L 77.019144 75.397595 
L 78.244123 73.595433 
L 79.469102 73.198888 
L 80.694081 69.733059 
L 81.91906 70.170111 
L 83.144039 70.406265 
L 84.369018 69.355159 
L 85.593997 69.154458 
L 86.818977 69.599531 
L 88.043956 69.865162 
L 89.268935 69.654512 
L 90.493914 70.197555 
L 91.718893 70.309798 
L 94.168851 71.181229 
L 95.39383 71.657539 
L 96.61881 69.540619 
L 99.068768 70.425018 
L 100.293747 70.569015 
L 101.518726 70.599574 
L 102.743705 70.78876 
L 103.968684 71.220525 
L 105.193663 70.563035 
L 106.418642 70.980943 
L 107.643622 70.888729 
L 111.318559 71.412886 
L 113.768517 72.110766 
L 116.218475 72.217806 
L 117.443454 71.519687 
L 124.793329 72.59231 
L 126.018308 72.88314 
L 127.243287 73.055991 
L 128.468266 73.357965 
L 132.143204 73.080904 
L 133.368183 73.362793 
L 135.818141 73.528018 
L 137.04312 73.372544 
L 138.268099 73.642712 
L 139.493079 73.587031 
L 141.943037 74.081911 
L 143.168016 73.648776 
L 145.617974 74.137699 
L 146.842953 73.655242 
L 149.292911 74.007219 
L 150.517891 72.459586 
L 156.642786 73.503048 
L 163.992661 74.233886 
L 166.442619 74.46478 
L 168.892577 73.742852 
L 171.342536 74.037862 
L 172.567515 73.577366 
L 173.792494 73.447736 
L 175.017473 73.447012 
L 178.69241 73.906319 
L 179.917389 73.834433 
L 181.142368 73.953336 
L 183.592327 73.981971 
L 190.942201 75.019476 
L 192.16718 75.016644 
L 193.39216 74.361762 
L 194.617139 73.551979 
L 197.067097 73.881429 
L 200.742034 73.825302 
L 201.967013 72.299985 
L 203.191992 71.778053 
L 206.86693 72.305155 
L 208.091909 72.192334 
L 209.316888 72.24186 
L 210.541867 71.740139 
L 211.766846 71.653553 
L 212.991825 71.202904 
L 215.441784 71.490181 
L 216.666763 71.303056 
L 219.116721 71.523164 
L 220.3417 71.607373 
L 221.566679 71.460984 
L 222.791658 71.549577 
L 224.016637 71.293284 
L 225.241617 71.439745 
L 226.466596 71.373392 
L 228.916554 71.599777 
L 231.366512 71.903882 
L 233.81647 71.895087 
L 235.041449 69.574211 
L 236.266429 69.730746 
L 237.491408 69.548001 
L 238.716387 68.309979 
L 239.941366 68.36175 
L 241.166345 67.088688 
L 242.391324 66.959911 
L 244.841282 67.219391 
L 248.51622 67.68856 
L 250.966178 67.922384 
L 253.416136 68.186891 
L 254.641115 67.892247 
L 255.866094 67.949888 
L 257.091074 67.706214 
L 259.541032 67.947025 
L 273.015802 69.137291 
L 274.240781 69.049756 
L 275.46576 69.138644 
L 277.915718 69.106535 
L 281.590656 69.45952 
L 284.040614 69.614027 
L 285.265593 68.301378 
L 292.615468 68.864904 
L 293.840447 65.701774 
L 299.965343 66.159241 
L 303.64028 66.446203 
L 304.865259 66.419222 
L 310.990155 67.019829 
L 312.215134 66.642424 
L 320.789987 67.445391 
L 323.239946 67.538081 
L 326.914883 67.80824 
L 329.364841 67.943453 
L 330.58982 67.793561 
L 331.814799 67.901772 
L 334.264758 67.984482 
L 336.714716 68.092508 
L 337.939695 67.735517 
L 339.164674 67.829891 
L 340.389653 67.215879 
L 344.064591 67.453509 
L 345.28957 67.556065 
L 347.739528 67.482534 
L 353.864424 67.868024 
L 359.989319 68.096459 
L 363.664256 68.353504 
L 368.564173 67.92741 
L 369.789152 67.965452 
L 371.014131 67.712293 
L 373.464089 67.727341 
L 382.038943 68.372932 
L 388.163839 68.648829 
L 389.388818 68.54892 
L 391.838776 68.719006 
L 394.288734 68.651562 
L 401.638609 69.041924 
L 404.088567 68.820814 
L 406.538525 68.931639 
L 407.763505 68.651057 
L 411.438442 68.852056 
L 412.663421 68.681043 
L 420.013296 68.827147 
L 421.238275 68.873611 
L 423.688233 68.726773 
L 426.138191 68.893991 
L 427.36317 68.808837 
L 431.038108 68.891276 
L 432.263087 68.799385 
L 433.488066 68.887564 
L 435.938024 68.832078 
L 443.287899 69.03856 
L 445.737857 68.850306 
L 448.187815 69.010892 
L 450.637774 68.811767 
L 453.087732 68.904297 
L 457.987648 69.140256 
L 460.437607 69.137747 
L 461.662586 61.504705 
L 464.112544 61.658271 
L 466.562502 61.728592 
L 470.237439 61.949632 
L 471.462419 61.861491 
L 480.037272 62.420398 
L 481.262251 62.474365 
L 482.487231 62.185799 
L 484.937189 62.271793 
L 487.387147 62.437488 
L 488.612126 62.382954 
L 492.287063 62.63726 
L 493.512043 62.613033 
L 497.18698 62.86487 
L 499.636938 62.620166 
L 504.536855 62.651301 
L 513.111708 63.157693 
L 515.561667 63.282857 
L 515.561667 63.282857 
" clip-path="url(#p6173b8e58b)" style="fill: none; stroke-dasharray: 5.55,2.4; stroke-dashoffset: 0; stroke: #4169e1; stroke-width: 1.5"/>
   </g>
   <g id="line2d_27">
    <path d="M 26.795 62.920571 
L 28.019979 66.50083 
L 29.244958 68.988884 
L 30.469937 66.548277 
L 31.694916 61.142733 
L 32.919896 62.437525 
L 34.144875 61.433399 
L 35.369854 61.820197 
L 36.594833 61.970808 
L 40.26977 62.947806 
L 41.494749 63.676879 
L 42.719728 63.291962 
L 47.619645 64.320059 
L 48.844624 64.317866 
L 50.069603 64.915517 
L 51.294582 64.775249 
L 52.519561 64.414992 
L 53.744541 64.365061 
L 56.194499 65.213653 
L 58.644457 64.93196 
L 59.869436 65.444138 
L 61.094415 65.718785 
L 63.544373 65.394174 
L 65.994332 65.537502 
L 67.219311 65.502066 
L 68.44429 65.234611 
L 69.669269 65.17381 
L 70.894248 65.306212 
L 73.344206 65.136687 
L 77.019144 65.422841 
L 79.469102 64.94034 
L 80.694081 64.534436 
L 81.91906 64.482523 
L 83.144039 64.692672 
L 84.369018 64.428448 
L 86.818977 64.582114 
L 88.043956 64.431584 
L 89.268935 64.578613 
L 90.493914 64.47337 
L 91.718893 64.561549 
L 95.39383 64.492536 
L 96.61881 64.229864 
L 97.843789 64.190789 
L 99.068768 64.267062 
L 100.293747 64.210361 
L 101.518726 64.355121 
L 103.968684 64.176333 
L 105.193663 64.372105 
L 110.09358 64.297536 
L 111.318559 64.166574 
L 116.218475 64.21389 
L 117.443454 64.376211 
L 126.018308 64.16749 
L 132.143204 64.511334 
L 135.818141 64.543322 
L 138.268099 64.628163 
L 139.493079 64.475618 
L 141.943037 64.481755 
L 143.168016 64.334128 
L 149.292911 64.290472 
L 150.517891 64.121975 
L 152.967849 64.083456 
L 166.442619 64.371405 
L 168.892577 64.216407 
L 171.342536 64.25146 
L 172.567515 64.140302 
L 175.017473 64.270982 
L 182.367348 64.399561 
L 184.817306 64.456427 
L 189.717222 64.47675 
L 197.067097 64.309576 
L 203.191992 64.013129 
L 206.86693 64.053543 
L 208.091909 63.972354 
L 215.441784 64.11768 
L 219.116721 64.035036 
L 220.3417 64.059361 
L 221.566679 63.960502 
L 226.466596 64.035667 
L 232.591491 63.968728 
L 233.81647 64.011775 
L 236.266429 63.83304 
L 244.841282 63.481693 
L 261.99099 63.382245 
L 265.665927 63.400918 
L 273.015802 63.433216 
L 276.690739 63.478627 
L 279.140698 63.393229 
L 281.590656 63.401487 
L 290.16551 63.209641 
L 301.190322 63.074543 
L 308.540196 63.059011 
L 312.215134 63.136207 
L 331.814799 63.213489 
L 345.28957 63.058442 
L 350.189486 63.136442 
L 366.114215 63.130263 
L 371.014131 63.190316 
L 374.689069 63.20257 
L 388.163839 63.322002 
L 393.063755 63.237144 
L 397.963672 63.237975 
L 406.538525 63.309013 
L 412.663421 63.44545 
L 422.463254 63.394372 
L 426.138191 63.412533 
L 429.813129 63.378336 
L 443.287899 63.50702 
L 446.962836 63.508736 
L 454.312711 63.459197 
L 460.437607 63.438053 
L 461.662586 63.297571 
L 471.462419 63.304996 
L 481.262251 63.330291 
L 483.71221 63.298876 
L 495.962001 63.311602 
L 515.561667 63.282857 
L 515.561667 63.282857 
" clip-path="url(#p6173b8e58b)" style="fill: none; stroke: #ff8c00; stroke-width: 1.5; stroke-linecap: square"/>
   </g>
   <g id="line2d_28">
    <path d="M 26.795 98.44 
L 28.019979 90.503895 
L 29.244958 85.483979 
L 30.469937 77.659405 
L 31.694916 9.452371 
L 32.919896 19.093865 
L 34.144875 26.683559 
L 35.369854 35.00471 
L 36.594833 41.940724 
L 37.819812 47.045801 
L 40.26977 54.232608 
L 41.494749 53.684043 
L 42.719728 55.688405 
L 43.944708 58.051826 
L 46.394666 61.692936 
L 47.619645 62.763188 
L 48.844624 64.640862 
L 50.069603 62.129093 
L 51.294582 63.614556 
L 52.519561 63.51011 
L 53.744541 64.994844 
L 54.96952 64.403818 
L 56.194499 62.408848 
L 57.419478 63.67066 
L 58.644457 64.363848 
L 59.869436 61.195705 
L 61.094415 61.172351 
L 62.319394 62.067714 
L 63.544373 62.601107 
L 64.769353 63.467651 
L 67.219311 65.483661 
L 68.44429 64.919505 
L 69.669269 65.770523 
L 70.894248 66.262761 
L 74.569185 68.224942 
L 75.794165 68.48657 
L 77.019144 69.051568 
L 78.244123 68.010084 
L 79.469102 67.354568 
L 80.694081 63.557108 
L 81.91906 64.240347 
L 83.144039 63.71025 
L 84.369018 62.402263 
L 85.593997 62.654889 
L 86.818977 63.349765 
L 89.268935 63.328856 
L 91.718893 64.024139 
L 95.39383 65.769465 
L 96.61881 63.897842 
L 97.843789 64.428474 
L 100.293747 65.21515 
L 102.743705 64.808162 
L 103.968684 65.253231 
L 105.193663 64.245128 
L 106.418642 64.759585 
L 107.643622 64.995079 
L 108.868601 64.892691 
L 110.09358 64.924634 
L 111.318559 64.670742 
L 112.543538 65.145789 
L 113.768517 65.469321 
L 114.993496 65.210747 
L 116.218475 65.075651 
L 117.443454 64.313369 
L 119.893413 65.127175 
L 121.118392 65.13676 
L 123.56835 65.77375 
L 126.018308 66.315176 
L 127.243287 66.394534 
L 128.468266 66.765857 
L 129.693246 66.57925 
L 132.143204 66.732481 
L 133.368183 67.085207 
L 134.593162 67.31643 
L 135.818141 67.661652 
L 137.04312 67.674187 
L 138.268099 68.004633 
L 139.493079 67.006434 
L 141.943037 67.650022 
L 143.168016 66.688917 
L 145.617974 67.321949 
L 146.842953 67.229523 
L 149.292911 67.775971 
L 150.517891 66.301237 
L 155.417807 67.235748 
L 156.642786 67.519453 
L 157.867765 67.53234 
L 161.542703 68.360179 
L 165.21764 68.626979 
L 166.442619 68.858033 
L 168.892577 68.508189 
L 170.117556 68.582965 
L 171.342536 68.818204 
L 172.567515 68.15471 
L 173.792494 67.691553 
L 178.69241 68.432007 
L 179.917389 68.212364 
L 182.367348 68.515948 
L 183.592327 68.394072 
L 190.942201 69.621273 
L 192.16718 69.603124 
L 193.39216 69.442528 
L 194.617139 68.618047 
L 197.067097 68.938017 
L 198.292076 68.618694 
L 199.517055 68.771009 
L 200.742034 68.453136 
L 201.967013 67.354177 
L 203.191992 67.385994 
L 206.86693 67.94024 
L 208.091909 67.540951 
L 209.316888 67.618461 
L 210.541867 67.044247 
L 211.766846 66.834073 
L 212.991825 66.20533 
L 215.441784 66.516261 
L 216.666763 66.405248 
L 217.891742 66.460437 
L 220.3417 66.785973 
L 221.566679 66.021738 
L 222.791658 66.105043 
L 224.016637 65.901469 
L 225.241617 66.058045 
L 227.691575 66.135354 
L 232.591491 66.735634 
L 233.81647 66.728237 
L 235.041449 64.816436 
L 236.266429 64.862445 
L 237.491408 64.637755 
L 238.716387 63.637243 
L 239.941366 63.730072 
L 241.166345 62.67682 
L 243.616303 62.677939 
L 248.51622 63.350133 
L 249.741199 63.286037 
L 253.416136 63.617181 
L 254.641115 63.370501 
L 255.866094 63.361649 
L 257.091074 63.021336 
L 261.99099 63.653101 
L 264.440948 63.815557 
L 271.790823 64.727428 
L 273.015802 64.796157 
L 274.240781 64.717166 
L 276.690739 65.030195 
L 277.915718 64.722967 
L 281.590656 64.871307 
L 284.040614 64.783691 
L 285.265593 64.320057 
L 291.390489 64.98687 
L 292.615468 65.057027 
L 293.840447 64.200183 
L 296.290405 64.29852 
L 303.64028 65.070488 
L 304.865259 65.030461 
L 310.990155 65.626323 
L 312.215134 65.02598 
L 314.665092 65.290945 
L 315.890071 65.23851 
L 325.689904 66.183465 
L 326.914883 66.079735 
L 329.364841 66.088019 
L 330.58982 65.770803 
L 334.264758 66.08204 
L 336.714716 66.060286 
L 337.939695 65.528019 
L 339.164674 65.653102 
L 340.389653 65.035739 
L 342.839612 65.208685 
L 345.28957 65.393453 
L 347.739528 65.225805 
L 355.089403 65.617452 
L 357.539361 65.518869 
L 363.664256 66.008668 
L 364.889236 65.980935 
L 369.789152 65.46605 
L 371.014131 65.124185 
L 375.914048 65.200508 
L 383.263922 65.761639 
L 384.488901 65.718761 
L 388.163839 65.935454 
L 389.388818 65.798569 
L 391.838776 66.001862 
L 393.063755 65.786299 
L 395.513713 65.881304 
L 399.188651 66.096337 
L 401.638609 66.22179 
L 404.088567 65.958102 
L 406.538525 66.099224 
L 407.763505 65.791782 
L 411.438442 65.857526 
L 412.663421 65.683824 
L 422.463254 66.091286 
L 423.688233 66.020751 
L 426.138191 66.178605 
L 427.36317 65.966551 
L 432.263087 65.880583 
L 435.938024 66.011442 
L 438.387982 66.094354 
L 440.837941 66.190467 
L 446.962836 65.992856 
L 448.187815 66.067619 
L 449.412794 65.873911 
L 451.862753 65.970774 
L 457.987648 66.355961 
L 460.437607 66.402696 
L 461.662586 62.155108 
L 464.112544 62.301146 
L 466.562502 62.243844 
L 470.237439 62.527257 
L 471.462419 62.432407 
L 475.137356 62.673454 
L 478.812293 62.901544 
L 481.262251 62.886004 
L 482.487231 62.499024 
L 491.062084 62.931478 
L 492.287063 63.022067 
L 493.512043 62.942098 
L 497.18698 63.201393 
L 498.411959 62.833645 
L 500.861917 62.794551 
L 502.086896 62.885423 
L 506.986813 62.837124 
L 515.561667 63.282857 
L 515.561667 63.282857 
" clip-path="url(#p6173b8e58b)" style="fill: none; stroke-dasharray: 5.55,2.4; stroke-dashoffset: 0; stroke: #ff8c00; stroke-width: 1.5"/>
   </g>
   <g id="patch_3">
    <path d="M 26.795 98.44 
L 26.795 0 
" style="fill: none; stroke: #000000; stroke-width: 0.8; stroke-linejoin: miter; stroke-linecap: square"/>
   </g>
   <g id="patch_4">
    <path d="M 540 98.44 
L 540 0 
" style="fill: none; stroke: #000000; stroke-width: 0.8; stroke-linejoin: miter; stroke-linecap: square"/>
   </g>
   <g id="patch_5">
    <path d="M 26.795 98.44 
L 540 98.44 
" style="fill: none; stroke: #000000; stroke-width: 0.8; stroke-linejoin: miter; stroke-linecap: square"/>
   </g>
   <g id="patch_6">
    <path d="M 26.795 0 
L 540 0 
" style="fill: none; stroke: #000000; stroke-width: 0.8; stroke-linejoin: miter; stroke-linecap: square"/>
   </g>
  </g>
 </g>
 <defs>
  <clipPath id="p6173b8e58b">
   <rect x="26.795" y="0" width="513.205" height="98.44"/>
  </clipPath>
 </defs>
</svg>
