<?xml version="1.0" encoding="utf-8" standalone="no"?>
<!DOCTYPE svg PUBLIC "-//W3C//DTD SVG 1.1//EN"
  "http://www.w3.org/Graphics/SVG/1.1/DTD/svg11.dtd">
<svg xmlns:xlink="http://www.w3.org/1999/xlink" width="540pt" height="129.6pt" viewBox="0 0 540 129.6" xmlns="http://www.w3.org/2000/svg" version="1.1">
 <metadata>
  <rdf:RDF xmlns:dc="http://purl.org/dc/elements/1.1/" xmlns:cc="http://creativecommons.org/ns#" xmlns:rdf="http://www.w3.org/1999/02/22-rdf-syntax-ns#">
   <cc:Work>
    <dc:type rdf:resource="http://purl.org/dc/dcmitype/StillImage"/>
    <dc:date>2025-04-05T05:49:10.429239</dc:date>
    <dc:format>image/svg+xml</dc:format>
    <dc:creator>
     <cc:Agent>
      <dc:title>Matplotlib v3.10.1, https://matplotlib.org/</dc:title>
     </cc:Agent>
    </dc:creator>
   </cc:Work>
  </rdf:RDF>
 </metadata>
 <defs>
  <style type="text/css">*{stroke-linejoin: round; stroke-linecap: butt}</style>
 </defs>
 <g id="figure_1">
  <g id="patch_1">
   <path d="M 0 129.6 
L 540 129.6 
L 540 0 
L 0 0 
z
" style="fill: #ffffff"/>
  </g>
  <g id="axes_1">
   <g id="patch_2">
    <path d="M 34.31 98.44 
L 540 98.44 
L 540 3.6 
L 34.31 3.6 
z
" style="fill: #ffffff"/>
   </g>
   <g id="matplotlib.axis_1">
    <g id="xtick_1">
     <g id="line2d_1">
      <path d="M 34.31 98.44 
L 34.31 3.6 
" clip-path="url(#pf0653c4d4f)" style="fill: none; stroke: #b0b0b0; stroke-width: 0.8; stroke-linecap: square"/>
     </g>
     <g id="line2d_2">
      <defs>
       <path id="mc2138a8e5e" d="M 0 0 
L 0 3.5 
" style="stroke: #000000; stroke-width: 0.8"/>
      </defs>
      <g>
       <use xlink:href="#mc2138a8e5e" x="34.31" y="98.44" style="stroke: #000000; stroke-width: 0.8"/>
      </g>
     </g>
     <g id="text_1">
      <text style="font-size: 10px; font-family: 'Times New Roman'; text-anchor: middle" x="34.31" y="112.38375" transform="rotate(-0 34.31 112.38375)">0</text>
     </g>
    </g>
    <g id="xtick_2">
     <g id="line2d_3">
      <path d="M 94.662071 98.44 
L 94.662071 3.6 
" clip-path="url(#pf0653c4d4f)" style="fill: none; stroke: #b0b0b0; stroke-width: 0.8; stroke-linecap: square"/>
     </g>
     <g id="line2d_4">
      <g>
       <use xlink:href="#mc2138a8e5e" x="94.662071" y="98.44" style="stroke: #000000; stroke-width: 0.8"/>
      </g>
     </g>
     <g id="text_2">
      <text style="font-size: 10px; font-family: 'Times New Roman'; text-anchor: middle" x="94.662071" y="112.38375" transform="rotate(-0 94.662071 112.38375)">50</text>
     </g>
    </g>
    <g id="xtick_3">
     <g id="line2d_5">
      <path d="M 155.014141 98.44 
L 155.014141 3.6 
" clip-path="url(#pf0653c4d4f)" style="fill: none; stroke: #b0b0b0; stroke-width: 0.8; stroke-linecap: square"/>
     </g>
     <g id="line2d_6">
      <g>
       <use xlink:href="#mc2138a8e5e" x="155.014141" y="98.44" style="stroke: #000000; stroke-width: 0.8"/>
      </g>
     </g>
     <g id="text_3">
      <text style="font-size: 10px; font-family: 'Times New Roman'; text-anchor: middle" x="155.014141" y="112.38375" transform="rotate(-0 155.014141 112.38375)">100</text>
     </g>
    </g>
    <g id="xtick_4">
     <g id="line2d_7">
      <path d="M 215.366212 98.44 
L 215.366212 3.6 
" clip-path="url(#pf0653c4d4f)" style="fill: none; stroke: #b0b0b0; stroke-width: 0.8; stroke-linecap: square"/>
     </g>
     <g id="line2d_8">
      <g>
       <use xlink:href="#mc2138a8e5e" x="215.366212" y="98.44" style="stroke: #000000; stroke-width: 0.8"/>
      </g>
     </g>
     <g id="text_4">
      <text style="font-size: 10px; font-family: 'Times New Roman'; text-anchor: middle" x="215.366212" y="112.38375" transform="rotate(-0 215.366212 112.38375)">150</text>
     </g>
    </g>
    <g id="xtick_5">
     <g id="line2d_9">
      <path d="M 275.718283 98.44 
L 275.718283 3.6 
" clip-path="url(#pf0653c4d4f)" style="fill: none; stroke: #b0b0b0; stroke-width: 0.8; stroke-linecap: square"/>
     </g>
     <g id="line2d_10">
      <g>
       <use xlink:href="#mc2138a8e5e" x="275.718283" y="98.44" style="stroke: #000000; stroke-width: 0.8"/>
      </g>
     </g>
     <g id="text_5">
      <text style="font-size: 10px; font-family: 'Times New Roman'; text-anchor: middle" x="275.718283" y="112.38375" transform="rotate(-0 275.718283 112.38375)">200</text>
     </g>
    </g>
    <g id="xtick_6">
     <g id="line2d_11">
      <path d="M 336.070353 98.44 
L 336.070353 3.6 
" clip-path="url(#pf0653c4d4f)" style="fill: none; stroke: #b0b0b0; stroke-width: 0.8; stroke-linecap: square"/>
     </g>
     <g id="line2d_12">
      <g>
       <use xlink:href="#mc2138a8e5e" x="336.070353" y="98.44" style="stroke: #000000; stroke-width: 0.8"/>
      </g>
     </g>
     <g id="text_6">
      <text style="font-size: 10px; font-family: 'Times New Roman'; text-anchor: middle" x="336.070353" y="112.38375" transform="rotate(-0 336.070353 112.38375)">250</text>
     </g>
    </g>
    <g id="xtick_7">
     <g id="line2d_13">
      <path d="M 396.422424 98.44 
L 396.422424 3.6 
" clip-path="url(#pf0653c4d4f)" style="fill: none; stroke: #b0b0b0; stroke-width: 0.8; stroke-linecap: square"/>
     </g>
     <g id="line2d_14">
      <g>
       <use xlink:href="#mc2138a8e5e" x="396.422424" y="98.44" style="stroke: #000000; stroke-width: 0.8"/>
      </g>
     </g>
     <g id="text_7">
      <text style="font-size: 10px; font-family: 'Times New Roman'; text-anchor: middle" x="396.422424" y="112.38375" transform="rotate(-0 396.422424 112.38375)">300</text>
     </g>
    </g>
    <g id="xtick_8">
     <g id="line2d_15">
      <path d="M 456.774495 98.44 
L 456.774495 3.6 
" clip-path="url(#pf0653c4d4f)" style="fill: none; stroke: #b0b0b0; stroke-width: 0.8; stroke-linecap: square"/>
     </g>
     <g id="line2d_16">
      <g>
       <use xlink:href="#mc2138a8e5e" x="456.774495" y="98.44" style="stroke: #000000; stroke-width: 0.8"/>
      </g>
     </g>
     <g id="text_8">
      <text style="font-size: 10px; font-family: 'Times New Roman'; text-anchor: middle" x="456.774495" y="112.38375" transform="rotate(-0 456.774495 112.38375)">350</text>
     </g>
    </g>
    <g id="xtick_9">
     <g id="line2d_17">
      <path d="M 517.126565 98.44 
L 517.126565 3.6 
" clip-path="url(#pf0653c4d4f)" style="fill: none; stroke: #b0b0b0; stroke-width: 0.8; stroke-linecap: square"/>
     </g>
     <g id="line2d_18">
      <g>
       <use xlink:href="#mc2138a8e5e" x="517.126565" y="98.44" style="stroke: #000000; stroke-width: 0.8"/>
      </g>
     </g>
     <g id="text_9">
      <text style="font-size: 10px; font-family: 'Times New Roman'; text-anchor: middle" x="517.126565" y="112.38375" transform="rotate(-0 517.126565 112.38375)">400</text>
     </g>
    </g>
    <g id="text_10">
     <text style="font-size: 12px; font-family: 'Times New Roman'; text-anchor: middle" x="287.155" y="126.855312" transform="rotate(-0 287.155 126.855312)">Simulation Run</text>
    </g>
   </g>
   <g id="matplotlib.axis_2">
    <g id="ytick_1">
     <g id="line2d_19">
      <path d="M 34.31 98.44 
L 540 98.44 
" clip-path="url(#pf0653c4d4f)" style="fill: none; stroke: #b0b0b0; stroke-width: 0.8; stroke-linecap: square"/>
     </g>
     <g id="line2d_20">
      <defs>
       <path id="m6a57261397" d="M 0 0 
L -3.5 0 
" style="stroke: #000000; stroke-width: 0.8"/>
      </defs>
      <g>
       <use xlink:href="#m6a57261397" x="34.31" y="98.44" style="stroke: #000000; stroke-width: 0.8"/>
      </g>
     </g>
     <g id="text_11">
      <text style="font-size: 10px; font-family: 'Times New Roman'; text-anchor: end" x="27.31" y="101.911875" transform="rotate(-0 27.31 101.911875)">0.0</text>
     </g>
    </g>
    <g id="ytick_2">
     <g id="line2d_21">
      <path d="M 34.31 74.73 
L 540 74.73 
" clip-path="url(#pf0653c4d4f)" style="fill: none; stroke: #b0b0b0; stroke-width: 0.8; stroke-linecap: square"/>
     </g>
     <g id="line2d_22">
      <g>
       <use xlink:href="#m6a57261397" x="34.31" y="74.73" style="stroke: #000000; stroke-width: 0.8"/>
      </g>
     </g>
     <g id="text_12">
      <text style="font-size: 10px; font-family: 'Times New Roman'; text-anchor: end" x="27.31" y="78.201875" transform="rotate(-0 27.31 78.201875)">0.5</text>
     </g>
    </g>
    <g id="ytick_3">
     <g id="line2d_23">
      <path d="M 34.31 51.02 
L 540 51.02 
" clip-path="url(#pf0653c4d4f)" style="fill: none; stroke: #b0b0b0; stroke-width: 0.8; stroke-linecap: square"/>
     </g>
     <g id="line2d_24">
      <g>
       <use xlink:href="#m6a57261397" x="34.31" y="51.02" style="stroke: #000000; stroke-width: 0.8"/>
      </g>
     </g>
     <g id="text_13">
      <text style="font-size: 10px; font-family: 'Times New Roman'; text-anchor: end" x="27.31" y="54.491875" transform="rotate(-0 27.31 54.491875)">1.0</text>
     </g>
    </g>
    <g id="ytick_4">
     <g id="line2d_25">
      <path d="M 34.31 27.31 
L 540 27.31 
" clip-path="url(#pf0653c4d4f)" style="fill: none; stroke: #b0b0b0; stroke-width: 0.8; stroke-linecap: square"/>
     </g>
     <g id="line2d_26">
      <g>
       <use xlink:href="#m6a57261397" x="34.31" y="27.31" style="stroke: #000000; stroke-width: 0.8"/>
      </g>
     </g>
     <g id="text_14">
      <text style="font-size: 10px; font-family: 'Times New Roman'; text-anchor: end" x="27.31" y="30.781875" transform="rotate(-0 27.31 30.781875)">1.5</text>
     </g>
    </g>
    <g id="ytick_5">
     <g id="line2d_27">
      <path d="M 34.31 3.6 
L 540 3.6 
" clip-path="url(#pf0653c4d4f)" style="fill: none; stroke: #b0b0b0; stroke-width: 0.8; stroke-linecap: square"/>
     </g>
     <g id="line2d_28">
      <g>
       <use xlink:href="#m6a57261397" x="34.31" y="3.6" style="stroke: #000000; stroke-width: 0.8"/>
      </g>
     </g>
     <g id="text_15">
      <text style="font-size: 10px; font-family: 'Times New Roman'; text-anchor: end" x="27.31" y="7.071875" transform="rotate(-0 27.31 7.071875)">2.0</text>
     </g>
    </g>
    <g id="text_16">
     <text style="font-size: 12px; font-family: 'Times New Roman'; text-anchor: middle" x="8.243125" y="51.02" transform="rotate(-90 8.243125 51.02)">Normalized Value</text>
    </g>
   </g>
   <g id="line2d_29">
    <path d="M 34.31 59.797737 
L 36.724083 50.394541 
L 37.931124 46.939807 
L 39.138166 41.986016 
L 40.345207 42.100107 
L 41.552248 41.970271 
L 42.75929 43.349606 
L 43.966331 43.607723 
L 45.173373 45.198642 
L 46.380414 45.447051 
L 47.587456 47.296667 
L 48.794497 46.49983 
L 50.001538 45.981953 
L 51.20858 46.277698 
L 52.415621 46.810456 
L 53.622663 47.736706 
L 54.829704 47.152335 
L 56.036745 47.587061 
L 58.450828 47.916441 
L 59.65787 47.722022 
L 60.864911 47.980198 
L 62.071953 48.890091 
L 63.278994 49.442549 
L 64.486035 49.622361 
L 65.693077 50.288033 
L 66.900118 50.401828 
L 68.10716 50.872224 
L 69.314201 50.461695 
L 70.521242 51.014274 
L 71.728284 51.25419 
L 72.935325 51.865545 
L 74.142367 51.542012 
L 76.556449 51.65692 
L 78.970532 51.291691 
L 81.384615 51.153698 
L 83.798698 50.861935 
L 85.005739 51.109241 
L 86.212781 51.190274 
L 88.626864 51.083646 
L 89.833905 51.489817 
L 91.040946 51.382038 
L 92.247988 51.682798 
L 93.455029 51.667741 
L 94.662071 51.288536 
L 95.869112 51.660844 
L 97.076153 51.620859 
L 99.490236 51.949098 
L 101.904319 52.004843 
L 103.111361 51.523189 
L 106.732485 51.320066 
L 109.146568 51.533327 
L 110.353609 51.296794 
L 112.767692 51.650969 
L 115.181775 51.792154 
L 117.595858 51.54064 
L 128.45923 51.442361 
L 132.080354 51.08268 
L 134.494437 51.353904 
L 135.701479 51.329841 
L 136.90852 51.193226 
L 142.943727 51.567344 
L 144.150769 51.386883 
L 145.35781 51.641618 
L 147.771893 51.620451 
L 150.185976 51.596628 
L 151.393017 51.698603 
L 152.600058 51.569102 
L 153.8071 51.681892 
L 155.014141 51.587578 
L 156.221183 51.754917 
L 157.428224 51.425516 
L 159.842307 51.56952 
L 161.049348 51.412879 
L 164.670473 51.347951 
L 165.877514 51.072628 
L 167.084555 51.160375 
L 168.291597 51.113462 
L 170.70568 51.301426 
L 177.947928 51.454945 
L 181.569052 50.896852 
L 196.053549 50.885476 
L 198.467632 50.998416 
L 202.088756 50.824112 
L 204.502839 50.992433 
L 209.331005 50.926582 
L 215.366212 51.095225 
L 218.987336 51.006054 
L 220.194378 51.094613 
L 221.401419 51.053634 
L 226.229585 51.270706 
L 228.643668 51.260003 
L 232.264792 51.431971 
L 245.542247 51.114 
L 246.749289 51.161218 
L 247.95633 51.011045 
L 251.577454 51.144898 
L 257.612661 51.06889 
L 260.026744 51.15857 
L 263.647868 51.083654 
L 266.061951 51.167219 
L 268.476034 51.152437 
L 274.511241 51.124518 
L 278.132365 51.07274 
L 282.960531 51.084498 
L 304.687277 51.366645 
L 307.101359 51.364646 
L 309.515442 51.428389 
L 310.722484 51.335679 
L 314.343608 51.347296 
L 319.171773 51.29236 
L 321.585856 51.229838 
L 328.828105 51.389836 
L 348.140767 51.265876 
L 350.55485 51.229461 
L 354.175974 51.210982 
L 363.832306 51.098843 
L 366.246389 51.099287 
L 373.488637 51.177606 
L 378.316803 51.069535 
L 392.8013 51.086725 
L 395.215383 51.104926 
L 397.629465 50.990808 
L 404.871714 50.956887 
L 408.492838 51.003212 
L 415.735087 51.074487 
L 424.184376 51.078769 
L 426.598459 51.033535 
L 431.426625 51.149656 
L 436.254791 51.064141 
L 442.289998 51.230354 
L 444.70408 51.113676 
L 448.325205 51.113267 
L 457.981536 51.103776 
L 490.571654 51.072952 
L 494.192778 51.053246 
L 515.919524 51.02 
L 515.919524 51.02 
" clip-path="url(#pf0653c4d4f)" style="fill: none; stroke: #4169e1; stroke-width: 1.5; stroke-linecap: square"/>
   </g>
   <g id="line2d_30">
    <path d="M 34.31 98.44 
L 35.517041 89.80412 
L 36.724083 73.789259 
L 37.931124 65.314248 
L 39.138166 31.810482 
L 40.345207 42.888794 
L 41.552248 50.783332 
L 42.75929 51.295891 
L 43.966331 56.316233 
L 45.173373 51.216225 
L 46.380414 55.257031 
L 47.587456 43.471309 
L 48.794497 44.584781 
L 50.001538 47.006243 
L 51.20858 49.934565 
L 52.415621 51.225659 
L 53.622663 48.391224 
L 54.829704 48.798435 
L 56.036745 50.020474 
L 57.243787 52.236658 
L 58.450828 54.208775 
L 59.65787 55.894779 
L 60.864911 57.145088 
L 62.071953 51.0812 
L 63.278994 49.981002 
L 64.486035 51.514365 
L 65.693077 48.542403 
L 66.900118 50.181529 
L 68.10716 49.312773 
L 69.314201 48.952289 
L 70.521242 46.803829 
L 71.728284 47.688001 
L 72.935325 44.336503 
L 74.142367 44.515658 
L 76.556449 47.342601 
L 77.763491 48.295015 
L 78.970532 49.04195 
L 80.177574 50.305526 
L 82.591657 52.191086 
L 83.798698 52.779457 
L 85.005739 52.791199 
L 88.626864 55.552912 
L 89.833905 53.363007 
L 91.040946 54.078914 
L 92.247988 53.209221 
L 93.455029 54.109295 
L 95.869112 50.041573 
L 97.076153 50.920763 
L 98.283195 51.027294 
L 99.490236 51.460971 
L 101.904319 53.06408 
L 103.111361 48.440525 
L 104.318402 49.19969 
L 105.525443 49.766464 
L 106.732485 50.526111 
L 107.939526 50.86818 
L 109.146568 51.453541 
L 111.56065 50.144197 
L 112.767692 50.439369 
L 113.974733 50.873591 
L 115.181775 51.531618 
L 116.388816 51.52037 
L 117.595858 51.942234 
L 118.802899 52.597109 
L 120.00994 52.895889 
L 121.216982 52.953666 
L 124.838106 54.73951 
L 126.045147 55.277527 
L 127.252189 55.69389 
L 129.666272 55.583159 
L 130.873313 56.096857 
L 132.080354 55.210239 
L 133.287396 54.987116 
L 134.494437 54.997299 
L 135.701479 55.488505 
L 136.90852 55.3394 
L 138.115562 55.701042 
L 139.322603 55.771867 
L 140.529644 56.250202 
L 141.736686 56.227596 
L 142.943727 56.439601 
L 144.150769 55.684607 
L 145.35781 53.70379 
L 147.771893 54.444284 
L 150.185976 55.318351 
L 151.393017 55.346004 
L 152.600058 55.109406 
L 153.8071 55.027841 
L 155.014141 55.094027 
L 156.221183 54.362784 
L 157.428224 50.266198 
L 158.635266 50.435498 
L 159.842307 50.737277 
L 161.049348 50.134066 
L 162.25639 50.581412 
L 163.463431 50.531253 
L 164.670473 49.52655 
L 165.877514 46.593411 
L 167.084555 46.714256 
L 168.291597 47.076225 
L 169.498638 47.014331 
L 170.70568 47.156626 
L 174.326804 48.384802 
L 176.740887 48.965813 
L 177.947928 48.810078 
L 179.15497 47.158227 
L 180.362011 46.56802 
L 181.569052 44.787247 
L 183.983135 45.644913 
L 187.604259 46.620197 
L 188.811301 47.0217 
L 192.432425 47.755737 
L 193.639467 47.852065 
L 194.846508 48.228012 
L 196.053549 48.374985 
L 197.260591 48.240603 
L 198.467632 48.589958 
L 199.674674 48.541801 
L 200.881715 48.899603 
L 202.088756 48.850225 
L 203.295798 48.26719 
L 206.916922 48.963935 
L 209.331005 49.466182 
L 210.538046 49.687093 
L 211.745088 48.88339 
L 212.952129 49.175847 
L 214.159171 49.136942 
L 218.987336 50.110807 
L 220.194378 49.928858 
L 221.401419 50.133419 
L 222.60846 50.04694 
L 223.815502 49.76553 
L 228.643668 50.77314 
L 229.850709 50.731451 
L 231.05775 50.274767 
L 233.471833 50.773546 
L 234.678875 50.359669 
L 238.299999 51.082375 
L 240.714082 51.394589 
L 241.921123 51.286737 
L 243.128164 51.557376 
L 244.335206 50.604507 
L 246.749289 50.809399 
L 247.95633 49.44515 
L 250.370413 49.243275 
L 252.784496 49.736613 
L 253.991537 49.856316 
L 255.198579 47.114274 
L 258.819703 47.21123 
L 260.026744 47.436965 
L 262.440827 47.622888 
L 264.85491 48.119482 
L 266.061951 47.81819 
L 269.683076 48.253581 
L 270.890117 48.104601 
L 272.097158 47.735187 
L 273.3042 47.874863 
L 275.718283 47.908422 
L 278.132365 46.751156 
L 281.75349 47.323483 
L 282.960531 47.280792 
L 286.581655 47.83783 
L 291.409821 47.964168 
L 292.616862 47.816203 
L 293.823904 48.040397 
L 295.030945 47.094134 
L 297.445028 47.151626 
L 298.652069 47.21536 
L 299.859111 47.078398 
L 303.480235 47.690378 
L 305.894318 47.954413 
L 309.515442 48.258833 
L 310.722484 47.672348 
L 311.929525 47.775469 
L 313.136566 47.582773 
L 314.343608 47.630763 
L 315.550649 47.843064 
L 316.757691 47.89993 
L 319.171773 48.264841 
L 320.378815 48.221974 
L 321.585856 48.419553 
L 323.999939 48.507176 
L 327.621063 48.996545 
L 328.828105 48.924358 
L 330.035146 49.109421 
L 331.242188 48.864596 
L 338.484436 49.828411 
L 339.691478 49.866585 
L 343.312602 50.308544 
L 344.519643 49.782224 
L 346.933726 50.025983 
L 349.347809 50.315845 
L 350.55485 50.11823 
L 352.968933 50.228338 
L 355.383016 50.585778 
L 356.590057 50.293853 
L 359.00414 50.534909 
L 360.211182 50.537865 
L 365.039347 50.987155 
L 367.45343 51.057425 
L 368.660471 51.079738 
L 373.488637 51.596994 
L 375.90272 51.312072 
L 381.937927 52.05583 
L 383.144968 51.938972 
L 385.559051 52.221933 
L 386.766093 52.25935 
L 387.973134 52.416134 
L 389.180175 52.249401 
L 390.387217 52.401204 
L 391.594258 52.314216 
L 392.8013 52.450367 
L 394.008341 52.399089 
L 395.215383 52.488856 
L 396.422424 51.45699 
L 400.043548 51.805173 
L 401.25059 51.505854 
L 404.871714 51.767384 
L 406.078755 51.581318 
L 408.492838 51.529255 
L 409.699879 51.582828 
L 410.906921 51.359461 
L 414.528045 51.6432 
L 415.735087 51.5929 
L 418.149169 51.87196 
L 419.356211 51.812503 
L 424.184376 52.273366 
L 425.391418 52.115043 
L 426.598459 52.256387 
L 427.805501 52.008714 
L 429.012542 51.643119 
L 431.426625 51.818139 
L 432.633666 51.697256 
L 436.254791 52.028645 
L 437.461832 51.834768 
L 439.875915 51.656465 
L 442.289998 50.950994 
L 443.497039 50.181515 
L 445.911122 50.183611 
L 447.118163 49.957969 
L 448.325205 49.226791 
L 450.739288 49.3515 
L 453.15337 49.453599 
L 456.774495 49.793768 
L 457.981536 49.80814 
L 460.395619 50.069832 
L 462.809702 50.047667 
L 465.223784 50.275115 
L 466.430826 50.179899 
L 468.844909 50.43563 
L 473.673074 50.004746 
L 476.087157 50.217756 
L 484.536447 50.604927 
L 485.743488 50.323579 
L 486.95053 50.44934 
L 488.157571 50.346202 
L 490.571654 50.506624 
L 492.985737 50.429399 
L 495.39982 50.660409 
L 497.813903 50.700396 
L 500.227985 50.851137 
L 501.435027 50.927908 
L 503.84911 50.733829 
L 509.884317 50.904371 
L 511.091358 51.024169 
L 513.505441 50.843031 
L 515.919524 51.02 
L 515.919524 51.02 
" clip-path="url(#pf0653c4d4f)" style="fill: none; stroke-dasharray: 5.55,2.4; stroke-dashoffset: 0; stroke: #4169e1; stroke-width: 1.5"/>
   </g>
   <g id="line2d_31">
    <path d="M 34.31 59.502026 
L 35.517041 55.395033 
L 36.724083 52.56582 
L 37.931124 46.672376 
L 39.138166 42.32994 
L 40.345207 42.257603 
L 41.552248 42.575073 
L 42.75929 43.441696 
L 43.966331 43.55934 
L 45.173373 45.081238 
L 46.380414 45.398459 
L 47.587456 47.383436 
L 48.794497 46.547392 
L 50.001538 46.158801 
L 51.20858 46.491037 
L 53.622663 48.037315 
L 54.829704 47.383901 
L 56.036745 47.906586 
L 57.243787 48.195481 
L 58.450828 48.146966 
L 59.65787 47.862934 
L 60.864911 47.849895 
L 62.071953 48.567949 
L 63.278994 49.038892 
L 64.486035 49.320053 
L 65.693077 49.88191 
L 66.900118 50.057798 
L 68.10716 50.400008 
L 69.314201 50.08128 
L 70.521242 50.541726 
L 71.728284 50.78365 
L 72.935325 51.261426 
L 74.142367 51.020022 
L 76.556449 51.005152 
L 80.177574 50.663645 
L 83.798698 50.227421 
L 85.005739 50.489868 
L 86.212781 50.560202 
L 88.626864 50.367322 
L 89.833905 50.750255 
L 91.040946 50.685618 
L 92.247988 50.972582 
L 93.455029 50.917993 
L 94.662071 50.694072 
L 95.869112 51.042302 
L 97.076153 50.977963 
L 99.490236 51.246913 
L 101.904319 51.377299 
L 103.111361 50.93229 
L 107.939526 50.905627 
L 109.146568 50.994286 
L 110.353609 50.789621 
L 112.767692 51.130602 
L 115.181775 51.248568 
L 117.595858 50.997336 
L 124.838106 51.064313 
L 128.45923 50.949714 
L 132.080354 50.615895 
L 134.494437 50.927 
L 140.529644 50.974497 
L 142.943727 51.143182 
L 144.150769 50.997976 
L 145.35781 51.221797 
L 147.771893 51.193004 
L 156.221183 51.336234 
L 157.428224 51.038911 
L 159.842307 51.150598 
L 161.049348 51.008789 
L 164.670473 50.913092 
L 165.877514 50.635393 
L 175.533845 51.043687 
L 176.740887 51.043589 
L 177.947928 51.176213 
L 181.569052 50.697955 
L 196.053549 50.677222 
L 198.467632 50.747536 
L 202.088756 50.583699 
L 204.502839 50.751092 
L 209.331005 50.724286 
L 215.366212 50.863356 
L 218.987336 50.804206 
L 226.229585 51.051431 
L 228.643668 51.057324 
L 232.264792 51.220596 
L 243.128164 50.999397 
L 244.335206 50.895568 
L 246.749289 50.960569 
L 247.95633 50.794932 
L 250.370413 50.937369 
L 252.784496 50.909348 
L 253.991537 50.955918 
L 255.198579 50.819049 
L 260.026744 50.996293 
L 264.85491 50.901042 
L 267.268993 51.01845 
L 269.683076 50.950742 
L 270.890117 51.014227 
L 272.097158 50.938696 
L 274.511241 50.946299 
L 276.925324 50.805614 
L 278.132365 50.902657 
L 281.75349 50.862495 
L 284.167573 50.927918 
L 317.964732 51.151668 
L 322.792898 51.120802 
L 330.035146 51.237323 
L 332.449229 51.206799 
L 338.484436 51.218717 
L 345.726685 51.144544 
L 349.347809 51.213837 
L 352.968933 51.125021 
L 369.867513 51.09527 
L 377.109761 51.068031 
L 387.973134 50.944808 
L 394.008341 51.079542 
L 401.25059 50.995889 
L 409.699879 51.027775 
L 412.113962 51.046821 
L 429.012542 51.123283 
L 432.633666 51.089033 
L 441.082956 51.151913 
L 442.289998 51.213352 
L 444.70408 51.112077 
L 450.739288 51.128534 
L 456.774495 51.065854 
L 460.395619 51.081473 
L 466.430826 51.000957 
L 490.571654 51.073683 
L 494.192778 51.037007 
L 515.919524 51.02 
L 515.919524 51.02 
" clip-path="url(#pf0653c4d4f)" style="fill: none; stroke: #ff8c00; stroke-width: 1.5; stroke-linecap: square"/>
   </g>
   <g id="line2d_32">
    <path d="M 34.31 98.44 
L 35.517041 90.173945 
L 36.724083 85.083963 
L 37.931124 37.359548 
L 39.138166 12.611792 
L 40.345207 26.903672 
L 41.552248 36.826796 
L 42.75929 41.952072 
L 43.966331 48.174249 
L 45.173373 42.985224 
L 46.380414 47.533423 
L 47.587456 30.53566 
L 48.794497 31.648615 
L 51.20858 38.898954 
L 52.415621 38.664865 
L 53.622663 37.001768 
L 54.829704 36.858074 
L 56.036745 37.68931 
L 57.243787 39.949734 
L 58.450828 42.711916 
L 59.65787 44.414769 
L 60.864911 46.76186 
L 62.071953 43.10356 
L 63.278994 42.708477 
L 64.486035 43.883497 
L 65.693077 41.8818 
L 66.900118 43.492392 
L 69.314201 44.158462 
L 70.521242 42.792527 
L 71.728284 43.642375 
L 72.935325 41.723187 
L 74.142367 42.448891 
L 76.556449 45.557664 
L 78.970532 47.714829 
L 80.177574 48.907284 
L 82.591657 51.01492 
L 85.005739 50.469715 
L 86.212781 51.455706 
L 87.419822 52.185861 
L 88.626864 53.076374 
L 89.833905 50.735933 
L 91.040946 51.633538 
L 92.247988 50.6517 
L 93.455029 51.535908 
L 94.662071 51.227 
L 95.869112 49.104176 
L 97.076153 49.929555 
L 98.283195 50.102572 
L 99.490236 50.706975 
L 101.904319 52.145796 
L 103.111361 47.412208 
L 104.318402 48.269129 
L 105.525443 48.704078 
L 106.732485 49.511815 
L 109.146568 50.578415 
L 110.353609 50.033012 
L 111.56065 49.675619 
L 112.767692 49.663667 
L 113.974733 50.07745 
L 115.181775 50.776305 
L 116.388816 50.63473 
L 117.595858 51.024013 
L 118.802899 51.672451 
L 120.00994 52.169858 
L 121.216982 52.360142 
L 124.838106 54.170297 
L 126.045147 54.703732 
L 127.252189 55.1056 
L 129.666272 54.585163 
L 130.873313 55.069841 
L 132.080354 54.679188 
L 133.287396 54.071366 
L 134.494437 53.767329 
L 135.701479 54.288564 
L 136.90852 54.455851 
L 138.115562 54.848012 
L 139.322603 55.032788 
L 140.529644 55.51463 
L 142.943727 55.837457 
L 144.150769 55.36024 
L 145.35781 53.56485 
L 146.564851 53.862153 
L 150.185976 55.160798 
L 152.600058 55.09831 
L 155.014141 55.354758 
L 156.221183 54.301135 
L 157.428224 50.310847 
L 159.842307 50.912209 
L 161.049348 50.325816 
L 162.25639 50.761938 
L 163.463431 50.821458 
L 164.670473 49.819204 
L 165.877514 46.141906 
L 167.084555 46.422495 
L 168.291597 46.853638 
L 169.498638 46.74215 
L 175.533845 48.032178 
L 176.740887 48.455772 
L 177.947928 47.846553 
L 179.15497 46.136808 
L 180.362011 45.715521 
L 181.569052 44.450491 
L 185.190177 45.67762 
L 188.811301 46.827808 
L 191.225384 47.032274 
L 196.053549 48.166937 
L 197.260591 48.124925 
L 198.467632 48.487295 
L 199.674674 48.527252 
L 200.881715 48.883255 
L 202.088756 48.53779 
L 203.295798 47.901882 
L 204.502839 48.103319 
L 205.709881 48.42912 
L 206.916922 48.512341 
L 208.123963 48.405967 
L 210.538046 48.905508 
L 211.745088 48.003797 
L 212.952129 48.310685 
L 214.159171 48.08386 
L 221.401419 49.630046 
L 223.815502 49.170555 
L 227.436626 49.96543 
L 228.643668 50.160606 
L 229.850709 50.048726 
L 231.05775 49.573315 
L 233.471833 50.134093 
L 234.678875 49.703148 
L 238.299999 50.501528 
L 239.50704 50.708858 
L 240.714082 50.797763 
L 241.921123 50.498103 
L 243.128164 50.770935 
L 244.335206 50.124086 
L 246.749289 50.485502 
L 247.95633 48.375139 
L 249.163372 48.046246 
L 250.370413 48.021789 
L 251.577454 48.174087 
L 252.784496 48.441733 
L 253.991537 48.521517 
L 255.198579 47.112819 
L 256.40562 47.061897 
L 263.647868 47.640723 
L 264.85491 47.905238 
L 266.061951 47.676476 
L 270.890117 47.853185 
L 272.097158 47.557908 
L 274.511241 47.826555 
L 275.718283 47.739061 
L 276.925324 47.330195 
L 278.132365 46.649738 
L 280.546448 46.952712 
L 281.75349 47.138341 
L 282.960531 46.971593 
L 285.374614 47.449717 
L 286.581655 47.573304 
L 288.995738 47.47357 
L 290.20278 47.37196 
L 291.409821 47.488472 
L 292.616862 47.428276 
L 293.823904 47.656399 
L 295.030945 46.833461 
L 296.237987 46.745362 
L 298.652069 47.03198 
L 299.859111 47.024958 
L 303.480235 47.652489 
L 304.687277 47.703106 
L 308.308401 47.540157 
L 311.929525 48.022 
L 314.343608 47.887753 
L 319.171773 48.437184 
L 320.378815 48.427686 
L 321.585856 48.628137 
L 322.792898 48.604043 
L 325.206981 48.848744 
L 327.621063 49.221242 
L 328.828105 49.165368 
L 330.035146 49.363007 
L 331.242188 49.154096 
L 334.863312 49.580288 
L 336.070353 49.738765 
L 337.277395 49.697352 
L 340.898519 50.173163 
L 342.10556 50.220119 
L 343.312602 50.406001 
L 344.519643 49.904026 
L 345.726685 50.091373 
L 346.933726 50.048369 
L 349.347809 50.37074 
L 350.55485 49.991649 
L 351.761892 49.999175 
L 355.383016 50.473098 
L 356.590057 50.21175 
L 357.797099 50.348599 
L 360.211182 50.413996 
L 365.039347 50.982087 
L 366.246389 50.964477 
L 373.488637 51.732189 
L 377.109761 51.761451 
L 380.730886 52.115208 
L 381.937927 52.264456 
L 383.144968 52.242954 
L 385.559051 52.53227 
L 386.766093 52.473595 
L 387.973134 52.628381 
L 389.180175 52.52894 
L 390.387217 52.65793 
L 391.594258 52.641983 
L 394.008341 52.782421 
L 395.215383 52.809389 
L 396.422424 52.27953 
L 400.043548 52.581395 
L 401.25059 52.098973 
L 404.871714 52.418386 
L 406.078755 52.226267 
L 409.699879 52.316758 
L 410.906921 52.165553 
L 420.563252 52.676712 
L 424.184376 53.07899 
L 425.391418 52.940259 
L 426.598459 53.079733 
L 429.012542 52.545449 
L 431.426625 52.710768 
L 432.633666 52.655554 
L 436.254791 52.990838 
L 437.461832 52.828721 
L 439.875915 52.739508 
L 441.082956 52.387193 
L 442.289998 51.897789 
L 443.497039 51.066383 
L 445.911122 51.179036 
L 447.118163 50.935469 
L 448.325205 50.237964 
L 450.739288 50.398054 
L 451.946329 50.36952 
L 456.774495 50.740923 
L 459.188577 50.881237 
L 461.60266 50.919025 
L 462.809702 50.888784 
L 465.223784 51.109001 
L 466.430826 50.948143 
L 468.844909 51.200948 
L 470.05195 50.944502 
L 472.466033 50.74146 
L 474.880116 50.849929 
L 477.294199 50.972311 
L 480.915323 51.246188 
L 484.536447 51.477031 
L 485.743488 50.849747 
L 486.95053 50.971942 
L 488.157571 50.843636 
L 490.571654 51.012091 
L 491.778696 50.848561 
L 494.192778 50.83257 
L 495.39982 50.956856 
L 497.813903 50.96894 
L 501.435027 51.184439 
L 502.642068 51.105976 
L 503.84911 50.898393 
L 505.056151 50.932571 
L 506.263193 50.69062 
L 509.884317 50.891488 
L 511.091358 51.007141 
L 513.505441 50.855411 
L 515.919524 51.02 
L 515.919524 51.02 
" clip-path="url(#pf0653c4d4f)" style="fill: none; stroke-dasharray: 5.55,2.4; stroke-dashoffset: 0; stroke: #ff8c00; stroke-width: 1.5"/>
   </g>
   <g id="patch_3">
    <path d="M 34.31 98.44 
L 34.31 3.6 
" style="fill: none; stroke: #000000; stroke-width: 0.8; stroke-linejoin: miter; stroke-linecap: square"/>
   </g>
   <g id="patch_4">
    <path d="M 540 98.44 
L 540 3.6 
" style="fill: none; stroke: #000000; stroke-width: 0.8; stroke-linejoin: miter; stroke-linecap: square"/>
   </g>
   <g id="patch_5">
    <path d="M 34.31 98.44 
L 540 98.44 
" style="fill: none; stroke: #000000; stroke-width: 0.8; stroke-linejoin: miter; stroke-linecap: square"/>
   </g>
   <g id="patch_6">
    <path d="M 34.31 3.6 
L 540 3.6 
" style="fill: none; stroke: #000000; stroke-width: 0.8; stroke-linejoin: miter; stroke-linecap: square"/>
   </g>
  </g>
 </g>
 <defs>
  <clipPath id="pf0653c4d4f">
   <rect x="34.31" y="3.6" width="505.69" height="94.84"/>
  </clipPath>
 </defs>
</svg>
