<?xml version="1.0" encoding="utf-8" standalone="no"?>
<!DOCTYPE svg PUBLIC "-//W3C//DTD SVG 1.1//EN"
  "http://www.w3.org/Graphics/SVG/1.1/DTD/svg11.dtd">
<svg xmlns:xlink="http://www.w3.org/1999/xlink" width="540pt" height="129.6pt" viewBox="0 0 540 129.6" xmlns="http://www.w3.org/2000/svg" version="1.1">
 <metadata>
  <rdf:RDF xmlns:dc="http://purl.org/dc/elements/1.1/" xmlns:cc="http://creativecommons.org/ns#" xmlns:rdf="http://www.w3.org/1999/02/22-rdf-syntax-ns#">
   <cc:Work>
    <dc:type rdf:resource="http://purl.org/dc/dcmitype/StillImage"/>
    <dc:date>2025-03-23T15:21:03.100884</dc:date>
    <dc:format>image/svg+xml</dc:format>
    <dc:creator>
     <cc:Agent>
      <dc:title>Matplotlib v3.8.3, https://matplotlib.org/</dc:title>
     </cc:Agent>
    </dc:creator>
   </cc:Work>
  </rdf:RDF>
 </metadata>
 <defs>
  <style type="text/css">*{stroke-linejoin: round; stroke-linecap: butt}</style>
 </defs>
 <g id="figure_1">
  <g id="patch_1">
   <path d="M 0 129.6 
L 540 129.6 
L 540 0 
L 0 0 
z
" style="fill: #ffffff"/>
  </g>
  <g id="axes_1">
   <g id="patch_2">
    <path d="M 35.03 97 
L 540 97 
L 540 0 
L 35.03 0 
z
" style="fill: #ffffff"/>
   </g>
   <g id="matplotlib.axis_1">
    <g id="xtick_1">
     <g id="line2d_1">
      <path d="M 35.03 97 
L 35.03 0 
" clip-path="url(#p5d81cfffcc)" style="fill: none; stroke: #b0b0b0; stroke-width: 0.8; stroke-linecap: square"/>
     </g>
     <g id="line2d_2">
      <defs>
       <path id="meb75e8a0c9" d="M 0 0 
L 0 3.5 
" style="stroke: #000000; stroke-width: 0.8"/>
      </defs>
      <g>
       <use xlink:href="#meb75e8a0c9" x="35.03" y="97" style="stroke: #000000; stroke-width: 0.8"/>
      </g>
     </g>
     <g id="text_1">
      <text style="font: 10px 'Times New Roman'; text-anchor: middle" x="35.03" y="110.94375" transform="rotate(-0 35.03 110.94375)">0</text>
     </g>
    </g>
    <g id="xtick_2">
     <g id="line2d_3">
      <path d="M 95.296142 97 
L 95.296142 0 
" clip-path="url(#p5d81cfffcc)" style="fill: none; stroke: #b0b0b0; stroke-width: 0.8; stroke-linecap: square"/>
     </g>
     <g id="line2d_4">
      <g>
       <use xlink:href="#meb75e8a0c9" x="95.296142" y="97" style="stroke: #000000; stroke-width: 0.8"/>
      </g>
     </g>
     <g id="text_2">
      <text style="font: 10px 'Times New Roman'; text-anchor: middle" x="95.296142" y="110.94375" transform="rotate(-0 95.296142 110.94375)">50</text>
     </g>
    </g>
    <g id="xtick_3">
     <g id="line2d_5">
      <path d="M 155.562283 97 
L 155.562283 0 
" clip-path="url(#p5d81cfffcc)" style="fill: none; stroke: #b0b0b0; stroke-width: 0.8; stroke-linecap: square"/>
     </g>
     <g id="line2d_6">
      <g>
       <use xlink:href="#meb75e8a0c9" x="155.562283" y="97" style="stroke: #000000; stroke-width: 0.8"/>
      </g>
     </g>
     <g id="text_3">
      <text style="font: 10px 'Times New Roman'; text-anchor: middle" x="155.562283" y="110.94375" transform="rotate(-0 155.562283 110.94375)">100</text>
     </g>
    </g>
    <g id="xtick_4">
     <g id="line2d_7">
      <path d="M 215.828425 97 
L 215.828425 0 
" clip-path="url(#p5d81cfffcc)" style="fill: none; stroke: #b0b0b0; stroke-width: 0.8; stroke-linecap: square"/>
     </g>
     <g id="line2d_8">
      <g>
       <use xlink:href="#meb75e8a0c9" x="215.828425" y="97" style="stroke: #000000; stroke-width: 0.8"/>
      </g>
     </g>
     <g id="text_4">
      <text style="font: 10px 'Times New Roman'; text-anchor: middle" x="215.828425" y="110.94375" transform="rotate(-0 215.828425 110.94375)">150</text>
     </g>
    </g>
    <g id="xtick_5">
     <g id="line2d_9">
      <path d="M 276.094566 97 
L 276.094566 0 
" clip-path="url(#p5d81cfffcc)" style="fill: none; stroke: #b0b0b0; stroke-width: 0.8; stroke-linecap: square"/>
     </g>
     <g id="line2d_10">
      <g>
       <use xlink:href="#meb75e8a0c9" x="276.094566" y="97" style="stroke: #000000; stroke-width: 0.8"/>
      </g>
     </g>
     <g id="text_5">
      <text style="font: 10px 'Times New Roman'; text-anchor: middle" x="276.094566" y="110.94375" transform="rotate(-0 276.094566 110.94375)">200</text>
     </g>
    </g>
    <g id="xtick_6">
     <g id="line2d_11">
      <path d="M 336.360708 97 
L 336.360708 0 
" clip-path="url(#p5d81cfffcc)" style="fill: none; stroke: #b0b0b0; stroke-width: 0.8; stroke-linecap: square"/>
     </g>
     <g id="line2d_12">
      <g>
       <use xlink:href="#meb75e8a0c9" x="336.360708" y="97" style="stroke: #000000; stroke-width: 0.8"/>
      </g>
     </g>
     <g id="text_6">
      <text style="font: 10px 'Times New Roman'; text-anchor: middle" x="336.360708" y="110.94375" transform="rotate(-0 336.360708 110.94375)">250</text>
     </g>
    </g>
    <g id="xtick_7">
     <g id="line2d_13">
      <path d="M 396.626849 97 
L 396.626849 0 
" clip-path="url(#p5d81cfffcc)" style="fill: none; stroke: #b0b0b0; stroke-width: 0.8; stroke-linecap: square"/>
     </g>
     <g id="line2d_14">
      <g>
       <use xlink:href="#meb75e8a0c9" x="396.626849" y="97" style="stroke: #000000; stroke-width: 0.8"/>
      </g>
     </g>
     <g id="text_7">
      <text style="font: 10px 'Times New Roman'; text-anchor: middle" x="396.626849" y="110.94375" transform="rotate(-0 396.626849 110.94375)">300</text>
     </g>
    </g>
    <g id="xtick_8">
     <g id="line2d_15">
      <path d="M 456.892991 97 
L 456.892991 0 
" clip-path="url(#p5d81cfffcc)" style="fill: none; stroke: #b0b0b0; stroke-width: 0.8; stroke-linecap: square"/>
     </g>
     <g id="line2d_16">
      <g>
       <use xlink:href="#meb75e8a0c9" x="456.892991" y="97" style="stroke: #000000; stroke-width: 0.8"/>
      </g>
     </g>
     <g id="text_8">
      <text style="font: 10px 'Times New Roman'; text-anchor: middle" x="456.892991" y="110.94375" transform="rotate(-0 456.892991 110.94375)">350</text>
     </g>
    </g>
    <g id="xtick_9">
     <g id="line2d_17">
      <path d="M 517.159132 97 
L 517.159132 0 
" clip-path="url(#p5d81cfffcc)" style="fill: none; stroke: #b0b0b0; stroke-width: 0.8; stroke-linecap: square"/>
     </g>
     <g id="line2d_18">
      <g>
       <use xlink:href="#meb75e8a0c9" x="517.159132" y="97" style="stroke: #000000; stroke-width: 0.8"/>
      </g>
     </g>
     <g id="text_9">
      <text style="font: 10px 'Times New Roman'; text-anchor: middle" x="517.159132" y="110.94375" transform="rotate(-0 517.159132 110.94375)">400</text>
     </g>
    </g>
    <g id="text_10">
     <text style="font: 12px 'Times New Roman'; text-anchor: middle" x="287.515" y="125.415312" transform="rotate(-0 287.515 125.415312)">Simulation Run</text>
    </g>
   </g>
   <g id="matplotlib.axis_2">
    <g id="ytick_1">
     <g id="line2d_19">
      <path d="M 35.03 97 
L 540 97 
" clip-path="url(#p5d81cfffcc)" style="fill: none; stroke: #b0b0b0; stroke-width: 0.8; stroke-linecap: square"/>
     </g>
     <g id="line2d_20">
      <defs>
       <path id="m92c1fd4aa7" d="M 0 0 
L -3.5 0 
" style="stroke: #000000; stroke-width: 0.8"/>
      </defs>
      <g>
       <use xlink:href="#m92c1fd4aa7" x="35.03" y="97" style="stroke: #000000; stroke-width: 0.8"/>
      </g>
     </g>
     <g id="text_11">
      <text style="font: 10px 'Times New Roman'; text-anchor: end" x="28.03" y="100.471875" transform="rotate(-0 28.03 100.471875)">0.0</text>
     </g>
    </g>
    <g id="ytick_2">
     <g id="line2d_21">
      <path d="M 35.03 56.583333 
L 540 56.583333 
" clip-path="url(#p5d81cfffcc)" style="fill: none; stroke: #b0b0b0; stroke-width: 0.8; stroke-linecap: square"/>
     </g>
     <g id="line2d_22">
      <g>
       <use xlink:href="#m92c1fd4aa7" x="35.03" y="56.583333" style="stroke: #000000; stroke-width: 0.8"/>
      </g>
     </g>
     <g id="text_12">
      <text style="font: 10px 'Times New Roman'; text-anchor: end" x="28.03" y="60.055208" transform="rotate(-0 28.03 60.055208)">0.5</text>
     </g>
    </g>
    <g id="ytick_3">
     <g id="line2d_23">
      <path d="M 35.03 16.166667 
L 540 16.166667 
" clip-path="url(#p5d81cfffcc)" style="fill: none; stroke: #b0b0b0; stroke-width: 0.8; stroke-linecap: square"/>
     </g>
     <g id="line2d_24">
      <g>
       <use xlink:href="#m92c1fd4aa7" x="35.03" y="16.166667" style="stroke: #000000; stroke-width: 0.8"/>
      </g>
     </g>
     <g id="text_13">
      <text style="font: 10px 'Times New Roman'; text-anchor: end" x="28.03" y="19.638542" transform="rotate(-0 28.03 19.638542)">1.0</text>
     </g>
    </g>
    <g id="text_14">
     <text style="font: 12px 'Times New Roman'; text-anchor: middle" x="8.963125" y="48.5" transform="rotate(-90 8.963125 48.5)">Normalized Value</text>
    </g>
   </g>
   <g id="line2d_25">
    <path d="M 35.03 47.066584 
L 36.235323 39.191844 
L 37.440646 39.853356 
L 38.645968 42.107751 
L 39.851291 36.870997 
L 41.056614 36.867906 
L 42.261937 37.963059 
L 43.46726 36.25733 
L 45.877905 34.760858 
L 47.083228 31.120584 
L 48.288551 33.760371 
L 49.493874 32.147067 
L 50.699197 31.648045 
L 51.90452 31.665577 
L 53.109842 30.717752 
L 54.315165 30.009126 
L 55.520488 27.869178 
L 56.725811 27.764985 
L 59.136457 29.72715 
L 60.341779 30.099167 
L 61.547102 28.833615 
L 62.752425 27.743966 
L 63.957748 26.83708 
L 66.368394 27.443967 
L 67.573716 27.602628 
L 69.984362 27.524575 
L 71.189685 27.126757 
L 72.395008 27.569833 
L 73.600331 26.47965 
L 74.805653 26.359162 
L 76.010976 25.895042 
L 77.216299 26.064743 
L 78.421622 26.108597 
L 82.03759 27.087416 
L 83.242913 26.861151 
L 84.448236 26.125035 
L 85.653559 26.004863 
L 86.858882 25.753118 
L 89.269527 26.150503 
L 90.47485 25.929761 
L 91.680173 26.234858 
L 92.885496 26.228005 
L 94.090819 25.822243 
L 95.296142 25.054983 
L 96.501464 25.475786 
L 98.91211 25.936378 
L 101.322756 26.729702 
L 102.528079 26.683148 
L 103.733401 26.163538 
L 104.938724 26.242485 
L 106.144047 25.785648 
L 107.34937 25.816667 
L 108.554693 25.222447 
L 109.760016 24.87802 
L 112.170661 24.746173 
L 113.375984 25.199343 
L 115.78663 25.095571 
L 116.991953 24.490126 
L 118.197275 24.322779 
L 120.607921 24.543268 
L 121.813244 24.197606 
L 123.018567 24.459208 
L 124.223889 24.534634 
L 125.429212 24.120413 
L 126.634535 24.069991 
L 127.839858 24.193611 
L 129.045181 23.910515 
L 130.250504 23.894692 
L 131.455826 23.494399 
L 132.661149 23.554463 
L 133.866472 23.495507 
L 135.071795 23.764342 
L 136.277118 23.149637 
L 137.482441 23.065583 
L 141.098409 23.431295 
L 142.303732 23.443728 
L 145.9197 23.129655 
L 149.535669 23.222338 
L 150.740992 22.973374 
L 151.946315 23.082864 
L 153.151637 22.806393 
L 154.35696 23.024666 
L 159.178252 22.461561 
L 161.588897 22.557834 
L 162.79422 22.42709 
L 163.999543 22.521625 
L 165.204866 22.091222 
L 166.410189 22.14431 
L 171.23148 21.527724 
L 176.052771 21.494076 
L 177.258094 21.538004 
L 178.463417 21.752726 
L 179.66874 21.689448 
L 180.874063 21.883563 
L 182.079385 21.922819 
L 183.284708 21.784119 
L 185.695354 21.863624 
L 188.106 21.709454 
L 190.516645 21.487623 
L 191.721968 21.485279 
L 192.927291 21.097686 
L 197.748582 20.857299 
L 201.364551 21.141702 
L 203.775196 21.184971 
L 206.185842 21.304574 
L 207.391165 21.354645 
L 208.596488 21.189201 
L 209.80181 21.307201 
L 213.417779 21.302466 
L 217.033747 21.50293 
L 218.23907 21.107126 
L 219.444393 21.12814 
L 220.649716 20.936131 
L 221.855039 21.061838 
L 223.060362 21.012253 
L 224.265684 20.816262 
L 227.881653 20.900412 
L 229.086976 20.707661 
L 230.292299 20.651743 
L 231.497621 20.43873 
L 235.11359 20.427586 
L 236.318913 20.331325 
L 237.524236 19.831008 
L 238.729558 19.685563 
L 239.934881 19.68874 
L 241.140204 19.266599 
L 242.345527 19.16795 
L 243.55085 19.221132 
L 248.372141 18.841994 
L 249.577464 18.999679 
L 250.782787 19.028636 
L 251.98811 18.942954 
L 253.193432 19.014755 
L 254.398755 18.79991 
L 255.604078 18.726042 
L 256.809401 18.816076 
L 258.014724 18.607028 
L 259.220047 18.650523 
L 262.836015 18.382242 
L 265.246661 18.478602 
L 270.067952 18.591285 
L 272.478598 18.439569 
L 273.683921 18.456482 
L 274.889243 18.081679 
L 276.094566 17.893778 
L 277.299889 17.871496 
L 278.505212 18.023514 
L 279.710535 17.94594 
L 284.531826 18.1896 
L 286.942472 18.255558 
L 288.147794 18.003908 
L 289.353117 18.089415 
L 290.55844 17.825044 
L 291.763763 17.913905 
L 292.969086 17.795927 
L 294.174409 17.858451 
L 295.379731 17.604981 
L 296.585054 17.704191 
L 300.201023 17.716173 
L 302.611668 17.781413 
L 303.816991 17.555576 
L 305.022314 17.612394 
L 306.227637 17.347156 
L 307.43296 17.329692 
L 308.638283 17.101306 
L 311.048928 17.031314 
L 314.664897 17.006645 
L 318.280865 17.184833 
L 319.486188 17.046897 
L 325.512802 17.215007 
L 326.718125 17.064529 
L 330.334094 17.020529 
L 332.744739 16.953795 
L 335.155385 17.04988 
L 337.566031 17.041256 
L 338.771353 16.776182 
L 339.976676 16.663362 
L 343.592645 16.954162 
L 353.235227 16.891438 
L 355.645873 17.036745 
L 356.851196 16.926082 
L 360.467164 16.97955 
L 362.87781 16.828916 
L 365.288456 16.872926 
L 367.699101 16.727467 
L 368.904424 16.724546 
L 371.31507 16.891004 
L 399.037495 16.809279 
L 400.242818 16.919812 
L 402.653463 16.906524 
L 406.269432 16.772542 
L 408.680078 16.675718 
L 418.32266 16.864491 
L 420.733306 16.801994 
L 430.375889 16.777497 
L 431.581211 16.857279 
L 433.991857 16.660204 
L 437.607826 16.683252 
L 438.813148 16.745362 
L 440.018471 16.558269 
L 441.223794 16.546426 
L 442.429117 16.395128 
L 446.045085 16.36487 
L 448.455731 16.438833 
L 450.866377 16.431539 
L 455.687668 16.322767 
L 458.098314 16.181333 
L 470.151542 16.264481 
L 476.178156 16.287115 
L 478.588802 16.259855 
L 482.20477 16.394445 
L 483.410093 16.15097 
L 485.820739 16.265778 
L 488.231384 16.251457 
L 490.64203 16.265791 
L 493.052676 16.156879 
L 501.489936 16.211844 
L 503.900581 16.157611 
L 505.105904 16.055166 
L 509.927195 16.1639 
L 512.337841 16.18896 
L 515.95381 16.166667 
L 515.95381 16.166667 
" clip-path="url(#p5d81cfffcc)" style="fill: none; stroke: #4169e1; stroke-width: 1.5; stroke-linecap: square"/>
   </g>
   <g id="line2d_26">
    <path d="M 35.03 97 
L 36.235323 85.14279 
L 37.440646 88.927847 
L 38.645968 88.030531 
L 39.851291 68.849794 
L 41.056614 73.541486 
L 42.261937 75.516726 
L 43.46726 74.307844 
L 44.672583 75.89874 
L 45.877905 77.125273 
L 47.083228 53.593722 
L 48.288551 42.554073 
L 49.493874 40.770167 
L 51.90452 47.688919 
L 53.109842 48.194197 
L 54.315165 49.528867 
L 55.520488 37.280582 
L 56.725811 40.386345 
L 57.931134 40.13086 
L 59.136457 38.698765 
L 60.341779 40.793105 
L 61.547102 36.499478 
L 62.752425 33.798646 
L 63.957748 32.552484 
L 69.984362 42.341616 
L 71.189685 43.196969 
L 72.395008 43.714648 
L 73.600331 38.057279 
L 74.805653 39.699285 
L 76.010976 39.936059 
L 78.421622 42.819839 
L 82.03759 44.62277 
L 83.242913 45.508696 
L 84.448236 42.486666 
L 85.653559 43.638442 
L 88.064205 45.115937 
L 89.269527 45.953906 
L 90.47485 46.611407 
L 91.680173 46.824633 
L 92.885496 47.848189 
L 94.090819 47.288641 
L 95.296142 42.635232 
L 96.501464 41.95392 
L 97.706787 42.573213 
L 98.91211 42.920939 
L 100.117433 42.464099 
L 101.322756 41.584037 
L 102.528079 42.533041 
L 103.733401 40.529464 
L 104.938724 41.417471 
L 106.144047 39.989423 
L 107.34937 40.912984 
L 108.554693 37.69915 
L 109.760016 37.234079 
L 112.170661 38.956267 
L 113.375984 37.283337 
L 115.78663 38.932367 
L 116.991953 35.007767 
L 118.197275 35.523891 
L 120.607921 36.90588 
L 121.813244 36.08416 
L 123.018567 35.952105 
L 124.223889 36.685578 
L 125.429212 35.018618 
L 126.634535 35.786625 
L 127.839858 36.346413 
L 129.045181 35.918889 
L 130.250504 36.678621 
L 131.455826 34.972266 
L 133.866472 36.35721 
L 135.071795 35.932152 
L 136.277118 30.581511 
L 137.482441 31.238991 
L 138.687763 31.663937 
L 139.893086 32.342651 
L 141.098409 32.627814 
L 142.303732 33.340429 
L 143.509055 33.867439 
L 144.714378 34.553336 
L 145.9197 34.386735 
L 147.125023 35.015203 
L 149.535669 36.079578 
L 150.740992 35.569856 
L 151.946315 35.974349 
L 153.151637 35.158466 
L 154.35696 34.875006 
L 155.562283 35.092785 
L 156.767606 34.7996 
L 157.972929 35.252629 
L 159.178252 35.585368 
L 161.588897 36.626501 
L 162.79422 36.844275 
L 163.999543 37.218433 
L 165.204866 33.941431 
L 166.410189 34.45595 
L 167.615511 34.349276 
L 168.820834 33.506212 
L 170.026157 33.693665 
L 172.436803 34.733409 
L 173.642126 34.996144 
L 177.258094 36.403091 
L 178.463417 35.858981 
L 179.66874 36.272403 
L 180.874063 35.898376 
L 182.079385 36.359189 
L 183.284708 36.395778 
L 186.900677 37.681767 
L 188.106 37.865944 
L 189.311322 37.670025 
L 191.721968 38.492423 
L 192.927291 35.172672 
L 196.543259 36.381842 
L 198.953905 36.645734 
L 200.159228 37.075154 
L 201.364551 36.853199 
L 203.775196 37.665764 
L 204.980519 37.826979 
L 207.391165 38.567179 
L 208.596488 38.216503 
L 209.80181 38.23308 
L 211.007133 38.617383 
L 214.623102 39.291322 
L 215.828425 39.374105 
L 217.033747 39.753217 
L 218.23907 35.574204 
L 219.444393 35.960155 
L 220.649716 35.268351 
L 221.855039 35.19573 
L 223.060362 35.516051 
L 224.265684 34.752043 
L 227.881653 35.830744 
L 229.086976 35.064582 
L 230.292299 35.347698 
L 231.497621 34.309432 
L 233.908267 34.93616 
L 235.11359 35.272144 
L 236.318913 35.343688 
L 237.524236 27.667513 
L 238.729558 27.391759 
L 239.934881 27.798496 
L 241.140204 22.374146 
L 242.345527 22.485457 
L 243.55085 22.820143 
L 244.756173 23.000575 
L 245.961495 23.419382 
L 247.166818 21.707408 
L 248.372141 22.048606 
L 249.577464 21.621057 
L 250.782787 22.011129 
L 253.193432 22.405468 
L 254.398755 21.206769 
L 256.809401 21.551059 
L 258.014724 20.410829 
L 259.220047 20.753115 
L 260.425369 20.585185 
L 261.630692 20.006334 
L 262.836015 20.391191 
L 264.041338 20.515834 
L 266.451984 21.272952 
L 268.862629 21.946134 
L 270.067952 21.716288 
L 271.273275 21.730203 
L 273.683921 22.372193 
L 274.889243 17.400058 
L 276.094566 16.445879 
L 277.299889 16.825581 
L 278.505212 16.327943 
L 279.710535 16.489812 
L 280.915858 16.820405 
L 282.12118 16.516422 
L 283.326503 16.884665 
L 284.531826 16.922969 
L 285.737149 17.072588 
L 286.942472 17.448646 
L 288.147794 15.282817 
L 289.353117 15.373299 
L 290.55844 12.923348 
L 291.763763 12.994629 
L 292.969086 12.815808 
L 294.174409 13.044841 
L 295.379731 10.778249 
L 296.585054 10.765369 
L 301.406346 12.13873 
L 302.611668 12.436678 
L 303.816991 10.639468 
L 305.022314 10.885019 
L 306.227637 8.239385 
L 307.43296 8.617221 
L 308.638283 6.740883 
L 309.843605 6.812216 
L 312.254251 7.497247 
L 314.664897 8.087609 
L 315.87022 8.06093 
L 318.280865 8.64467 
L 319.486188 8.158914 
L 320.691511 8.500245 
L 321.896834 8.634368 
L 324.307479 9.147098 
L 325.512802 9.271959 
L 326.718125 8.5852 
L 330.334094 9.60433 
L 331.539416 9.759608 
L 332.744739 10.111237 
L 333.950062 10.12371 
L 337.566031 11.144322 
L 338.771353 8.097992 
L 342.387322 7.280741 
L 343.592645 7.428724 
L 348.413936 8.669596 
L 350.824582 8.920209 
L 353.235227 9.566421 
L 354.44055 9.157335 
L 355.645873 9.455454 
L 356.851196 9.156906 
L 359.261842 9.721367 
L 360.467164 9.810065 
L 361.672487 9.279482 
L 365.288456 10.111716 
L 366.493778 9.879495 
L 368.904424 10.406482 
L 370.109747 10.088683 
L 371.31507 10.221165 
L 373.725715 10.774258 
L 374.931038 10.826021 
L 378.547007 11.611837 
L 388.189589 13.389037 
L 391.805558 14.039023 
L 393.010881 14.189723 
L 396.626849 14.925016 
L 397.832172 14.862218 
L 399.037495 15.116094 
L 400.242818 14.677614 
L 402.653463 14.985443 
L 403.858786 15.245396 
L 405.064109 15.087876 
L 406.269432 15.267883 
L 407.474755 15.16777 
L 409.8854 15.630757 
L 411.090723 15.783295 
L 412.296046 15.728363 
L 417.117337 16.429473 
L 418.32266 16.530749 
L 419.527983 16.464986 
L 423.143952 17.197373 
L 425.554597 17.566094 
L 427.965243 18.020985 
L 429.170566 18.076985 
L 430.375889 18.295186 
L 431.581211 18.133267 
L 432.786534 16.978177 
L 433.991857 17.070486 
L 437.607826 17.720368 
L 438.813148 17.709218 
L 440.018471 15.695624 
L 441.223794 15.927132 
L 442.429117 14.686853 
L 446.045085 15.28813 
L 447.250408 15.132866 
L 449.661054 15.525636 
L 450.866377 15.642629 
L 454.482345 16.283799 
L 455.687668 16.082158 
L 456.892991 15.25212 
L 461.714282 16.125367 
L 465.330251 16.487498 
L 467.740896 16.750628 
L 470.151542 16.380888 
L 472.562188 16.796947 
L 473.76751 16.779882 
L 478.588802 17.38967 
L 479.794125 17.368031 
L 480.999447 17.582632 
L 482.20477 17.370993 
L 483.410093 13.367867 
L 485.820739 13.340988 
L 488.231384 13.531333 
L 490.64203 13.943781 
L 491.847353 13.723419 
L 495.463321 14.269169 
L 502.695258 15.442066 
L 503.900581 15.473707 
L 505.105904 14.899578 
L 506.311227 14.893681 
L 509.927195 15.407831 
L 512.337841 15.681237 
L 515.95381 16.166667 
L 515.95381 16.166667 
" clip-path="url(#p5d81cfffcc)" style="fill: none; stroke-dasharray: 5.55,2.4; stroke-dashoffset: 0; stroke: #4169e1; stroke-width: 1.5"/>
   </g>
   <g id="line2d_27">
    <path d="M 35.03 48.012589 
L 36.235323 38.614273 
L 37.440646 39.671476 
L 38.645968 41.588057 
L 39.851291 37.166424 
L 41.056614 36.595251 
L 42.261937 37.297414 
L 43.46726 35.148244 
L 44.672583 34.219108 
L 45.877905 33.642473 
L 47.083228 30.030005 
L 48.288551 32.425374 
L 49.493874 30.81 
L 50.699197 30.294758 
L 51.90452 30.164621 
L 53.109842 29.173792 
L 54.315165 28.643899 
L 55.520488 26.861305 
L 56.725811 26.999602 
L 57.931134 27.8043 
L 59.136457 28.881996 
L 60.341779 29.042198 
L 61.547102 27.566389 
L 63.957748 25.616963 
L 66.368394 26.122042 
L 67.573716 26.217083 
L 71.189685 25.740067 
L 72.395008 26.200779 
L 73.600331 25.202241 
L 74.805653 25.398901 
L 76.010976 24.98259 
L 77.216299 25.017099 
L 78.421622 25.169814 
L 82.03759 26.044244 
L 83.242913 25.85267 
L 84.448236 25.14998 
L 88.064205 25.00888 
L 89.269527 25.156932 
L 90.47485 24.918915 
L 91.680173 25.21513 
L 92.885496 25.140333 
L 94.090819 24.636322 
L 95.296142 23.84033 
L 96.501464 24.232444 
L 100.117433 25.002512 
L 101.322756 25.44147 
L 102.528079 25.391109 
L 103.733401 25.043284 
L 104.938724 25.095111 
L 106.144047 24.690552 
L 107.34937 24.771678 
L 108.554693 24.277157 
L 109.760016 23.927609 
L 112.170661 23.798347 
L 113.375984 24.268249 
L 115.78663 24.205982 
L 116.991953 23.66392 
L 118.197275 23.439681 
L 120.607921 23.650735 
L 121.813244 23.368105 
L 123.018567 23.529231 
L 124.223889 23.563513 
L 125.429212 23.127216 
L 127.839858 23.118233 
L 129.045181 22.848599 
L 130.250504 22.880153 
L 131.455826 22.515967 
L 132.661149 22.560313 
L 133.866472 22.451652 
L 135.071795 22.666583 
L 136.277118 22.129319 
L 137.482441 22.096134 
L 141.098409 22.39111 
L 144.714378 22.246062 
L 145.9197 22.067692 
L 149.535669 22.245414 
L 150.740992 22.061765 
L 151.946315 22.167579 
L 153.151637 21.922472 
L 154.35696 22.116226 
L 159.178252 21.551992 
L 161.588897 21.63595 
L 162.79422 21.529959 
L 163.999543 21.583535 
L 165.204866 21.184458 
L 166.410189 21.238175 
L 170.026157 20.790326 
L 173.642126 20.646323 
L 177.258094 20.82482 
L 178.463417 21.011945 
L 179.66874 20.935888 
L 180.874063 21.148175 
L 182.079385 21.19766 
L 183.284708 21.104265 
L 186.900677 21.223308 
L 190.516645 20.991487 
L 191.721968 20.996926 
L 192.927291 20.636815 
L 197.748582 20.454161 
L 201.364551 20.665374 
L 204.980519 20.769773 
L 207.391165 20.85981 
L 208.596488 20.68903 
L 212.212456 20.864448 
L 214.623102 20.92251 
L 217.033747 21.027142 
L 218.23907 20.728467 
L 219.444393 20.742956 
L 220.649716 20.536809 
L 223.060362 20.624124 
L 224.265684 20.444683 
L 229.086976 20.286505 
L 236.318913 19.978955 
L 237.524236 19.519003 
L 238.729558 19.380467 
L 239.934881 19.357451 
L 241.140204 18.952405 
L 242.345527 18.846832 
L 243.55085 18.905414 
L 248.372141 18.600822 
L 250.782787 18.738659 
L 251.98811 18.639677 
L 253.193432 18.71727 
L 255.604078 18.437236 
L 256.809401 18.525595 
L 258.014724 18.36725 
L 259.220047 18.413878 
L 262.836015 18.152259 
L 265.246661 18.250943 
L 273.683921 18.250518 
L 274.889243 17.908921 
L 276.094566 17.716423 
L 277.299889 17.682048 
L 278.505212 17.808726 
L 279.710535 17.757161 
L 286.942472 18.047752 
L 288.147794 17.775504 
L 289.353117 17.873836 
L 290.55844 17.644641 
L 291.763763 17.729427 
L 292.969086 17.597849 
L 294.174409 17.663023 
L 295.379731 17.406046 
L 296.585054 17.537111 
L 300.201023 17.520059 
L 302.611668 17.610275 
L 303.816991 17.403198 
L 305.022314 17.469605 
L 306.227637 17.229399 
L 307.43296 17.219483 
L 308.638283 16.993529 
L 309.843605 16.898827 
L 318.280865 17.116884 
L 319.486188 17.003819 
L 325.512802 17.138683 
L 326.718125 17.004644 
L 330.334094 16.98501 
L 332.744739 16.945554 
L 335.155385 17.048969 
L 337.566031 17.017557 
L 338.771353 16.750201 
L 339.976676 16.634417 
L 343.592645 16.873873 
L 365.288456 16.857894 
L 367.699101 16.686938 
L 370.109747 16.794247 
L 372.520393 16.849807 
L 374.931038 16.88549 
L 382.162975 16.771256 
L 384.573621 16.693603 
L 389.394912 16.771465 
L 396.626849 16.666192 
L 400.242818 16.866212 
L 402.653463 16.853996 
L 405.064109 16.757566 
L 408.680078 16.657685 
L 419.527983 16.720046 
L 432.786534 16.587079 
L 436.402503 16.545026 
L 438.813148 16.638374 
L 440.018471 16.474779 
L 441.223794 16.457802 
L 442.429117 16.31166 
L 446.045085 16.271085 
L 449.661054 16.392797 
L 460.508959 16.124259 
L 467.740896 16.118826 
L 471.356865 16.24842 
L 478.588802 16.244409 
L 482.20477 16.359675 
L 483.410093 16.124965 
L 488.231384 16.218949 
L 491.847353 16.150103 
L 495.463321 16.157533 
L 508.721873 16.087334 
L 513.543164 16.163284 
L 515.95381 16.166667 
L 515.95381 16.166667 
" clip-path="url(#p5d81cfffcc)" style="fill: none; stroke: #ff8c00; stroke-width: 1.5; stroke-linecap: square"/>
   </g>
   <g id="line2d_28">
    <path d="M 35.03 97 
L 36.235323 77.730646 
L 37.440646 83.666107 
L 38.645968 84.595536 
L 39.851291 70.015904 
L 41.056614 74.157398 
L 42.261937 76.775277 
L 43.46726 72.249834 
L 44.672583 73.493192 
L 45.877905 75.191025 
L 47.083228 48.704478 
L 48.288551 38.960045 
L 49.493874 36.593499 
L 51.90452 43.893276 
L 53.109842 43.999848 
L 54.315165 46.137421 
L 55.520488 37.178362 
L 56.725811 40.251765 
L 57.931134 40.405147 
L 59.136457 38.032695 
L 60.341779 40.59545 
L 61.547102 32.594598 
L 62.752425 31.127409 
L 63.957748 28.100436 
L 67.573716 34.758432 
L 69.984362 38.771574 
L 71.189685 40.087105 
L 72.395008 40.430186 
L 73.600331 35.183825 
L 74.805653 36.723517 
L 76.010976 37.160173 
L 77.216299 38.813298 
L 78.421622 40.202751 
L 79.626945 40.83868 
L 80.832268 41.817159 
L 82.03759 42.366924 
L 83.242913 43.37918 
L 84.448236 40.239361 
L 85.653559 41.52487 
L 89.269527 44.662781 
L 90.47485 45.207824 
L 91.680173 45.387169 
L 92.885496 46.381908 
L 94.090819 44.678813 
L 95.296142 38.7935 
L 96.501464 38.2022 
L 97.706787 38.605838 
L 98.91211 39.192129 
L 100.117433 39.083783 
L 101.322756 37.806074 
L 102.528079 38.813581 
L 103.733401 38.312392 
L 104.938724 39.273111 
L 106.144047 38.128624 
L 107.34937 39.007583 
L 108.554693 36.688577 
L 109.760016 35.993284 
L 112.170661 37.753809 
L 113.375984 35.520398 
L 115.78663 37.274446 
L 116.991953 33.781164 
L 118.197275 33.927392 
L 119.402598 34.758408 
L 120.607921 35.275382 
L 121.813244 34.866231 
L 123.018567 35.292428 
L 124.223889 36.096222 
L 125.429212 33.783054 
L 127.839858 35.348382 
L 129.045181 34.891669 
L 130.250504 35.650864 
L 131.455826 34.093512 
L 132.661149 34.825913 
L 133.866472 35.363785 
L 135.071795 35.261096 
L 136.277118 30.69784 
L 137.482441 31.448375 
L 138.687763 31.924043 
L 139.893086 32.616827 
L 141.098409 33.046569 
L 142.303732 33.719547 
L 143.509055 34.092347 
L 144.714378 34.761495 
L 145.9197 34.79217 
L 147.125023 35.382121 
L 148.330346 35.797545 
L 149.535669 36.43229 
L 150.740992 36.350354 
L 151.946315 36.732294 
L 153.151637 36.05664 
L 154.35696 35.855288 
L 155.562283 36.002355 
L 156.767606 35.676941 
L 157.972929 35.943227 
L 159.178252 36.336132 
L 161.588897 37.400716 
L 162.79422 37.697937 
L 163.999543 38.180029 
L 165.204866 34.967306 
L 166.410189 35.462623 
L 167.615511 35.42167 
L 168.820834 35.158727 
L 170.026157 35.425534 
L 172.436803 36.388003 
L 173.642126 36.517442 
L 174.847448 36.94151 
L 176.052771 37.214868 
L 177.258094 37.704988 
L 178.463417 37.290086 
L 179.66874 37.632122 
L 180.874063 36.929152 
L 182.079385 37.352358 
L 183.284708 37.59933 
L 184.490031 37.962836 
L 185.695354 38.174288 
L 186.900677 38.588267 
L 188.106 38.829932 
L 189.311322 38.702563 
L 191.721968 39.591761 
L 192.927291 36.320624 
L 200.159228 38.397642 
L 201.364551 38.296247 
L 203.775196 39.123862 
L 204.980519 39.263535 
L 207.391165 39.920677 
L 208.596488 39.3981 
L 209.80181 39.515459 
L 213.417779 40.544998 
L 214.623102 40.758615 
L 215.828425 40.843242 
L 217.033747 41.20882 
L 218.23907 38.615408 
L 219.444393 38.987522 
L 220.649716 37.934086 
L 221.855039 38.000307 
L 223.060362 38.373463 
L 224.265684 37.641685 
L 227.881653 38.740677 
L 229.086976 38.307772 
L 230.292299 38.52627 
L 231.497621 38.07843 
L 232.702944 38.434744 
L 233.908267 38.497611 
L 236.318913 38.968545 
L 237.524236 31.558347 
L 238.729558 31.235713 
L 239.934881 31.600653 
L 241.140204 25.860606 
L 242.345527 25.8536 
L 245.961495 26.683442 
L 247.166818 25.397397 
L 248.372141 25.697885 
L 249.577464 25.63976 
L 250.782787 26.002412 
L 251.98811 26.009939 
L 253.193432 26.16226 
L 254.398755 25.14338 
L 256.809401 25.271785 
L 258.014724 24.645489 
L 259.220047 24.944189 
L 260.425369 24.836432 
L 261.630692 23.973093 
L 262.836015 24.336881 
L 264.041338 24.341149 
L 266.451984 25.086148 
L 267.657306 25.275015 
L 268.862629 25.642563 
L 270.067952 25.368535 
L 273.683921 26.246848 
L 274.889243 21.534812 
L 276.094566 20.293487 
L 277.299889 20.621408 
L 278.505212 20.29049 
L 280.915858 20.753604 
L 282.12118 20.40022 
L 283.326503 20.759916 
L 284.531826 20.740062 
L 286.942472 21.363293 
L 288.147794 18.326176 
L 289.353117 18.252204 
L 290.55844 16.192441 
L 291.763763 16.23601 
L 292.969086 15.803408 
L 294.174409 15.980091 
L 295.379731 13.241687 
L 296.585054 12.812696 
L 302.611668 14.262241 
L 303.816991 12.545491 
L 305.022314 12.705347 
L 306.227637 10.246177 
L 307.43296 10.623505 
L 308.638283 8.474011 
L 309.843605 8.414503 
L 312.254251 9.107033 
L 313.459574 9.237917 
L 314.664897 9.597899 
L 315.87022 9.642966 
L 317.075542 10.012259 
L 318.280865 10.211709 
L 319.486188 9.919743 
L 320.691511 10.220773 
L 321.896834 10.305453 
L 323.102157 10.585179 
L 325.512802 10.922514 
L 326.718125 10.328227 
L 330.334094 11.314061 
L 331.539416 11.494334 
L 332.744739 11.824858 
L 333.950062 11.860169 
L 337.566031 12.788625 
L 338.771353 9.191864 
L 339.976676 8.797643 
L 341.181999 8.670717 
L 342.387322 8.340443 
L 346.00329 9.259426 
L 347.208613 9.591168 
L 350.824582 9.98853 
L 353.235227 10.55043 
L 354.44055 10.059013 
L 355.645873 10.31399 
L 356.851196 10.137766 
L 360.467164 10.872354 
L 361.672487 10.429733 
L 365.288456 11.229397 
L 366.493778 10.564846 
L 368.904424 11.073341 
L 370.109747 10.669648 
L 371.31507 10.759372 
L 373.725715 11.322137 
L 374.931038 11.376193 
L 376.136361 11.676531 
L 377.341684 11.791039 
L 379.75233 12.291397 
L 382.162975 12.81971 
L 383.368298 12.934074 
L 391.805558 14.654427 
L 393.010881 14.736747 
L 396.626849 15.363193 
L 397.832172 15.138095 
L 399.037495 15.399553 
L 400.242818 14.984836 
L 402.653463 15.162849 
L 403.858786 15.428414 
L 405.064109 15.119603 
L 407.474755 15.277554 
L 409.8854 15.777263 
L 411.090723 15.944839 
L 412.296046 15.70606 
L 417.117337 16.54719 
L 419.527983 16.578055 
L 423.143952 17.316254 
L 424.349274 17.336096 
L 427.965243 17.993279 
L 429.170566 18.017355 
L 430.375889 18.249948 
L 431.581211 18.216298 
L 432.786534 17.256077 
L 433.991857 17.314498 
L 437.607826 17.863552 
L 438.813148 17.862856 
L 440.018471 16.135927 
L 441.223794 16.353978 
L 442.429117 15.017051 
L 446.045085 15.610872 
L 447.250408 15.428116 
L 449.661054 15.806908 
L 450.866377 15.917784 
L 454.482345 16.537744 
L 455.687668 16.372497 
L 456.892991 15.557009 
L 465.330251 16.892752 
L 467.740896 17.131416 
L 470.151542 17.009723 
L 472.562188 17.420854 
L 473.76751 17.316805 
L 477.383479 17.846879 
L 478.588802 18.054089 
L 479.794125 18.042975 
L 480.999447 18.255784 
L 482.20477 18.147655 
L 483.410093 13.888394 
L 485.820739 13.996941 
L 489.436707 14.305878 
L 490.64203 14.523527 
L 491.847353 14.224049 
L 495.463321 14.683711 
L 502.695258 15.823392 
L 503.900581 15.827634 
L 505.105904 15.014426 
L 506.311227 15.053779 
L 508.721873 15.3805 
L 509.927195 15.47984 
L 511.132518 15.4667 
L 515.95381 16.166667 
L 515.95381 16.166667 
" clip-path="url(#p5d81cfffcc)" style="fill: none; stroke-dasharray: 5.55,2.4; stroke-dashoffset: 0; stroke: #ff8c00; stroke-width: 1.5"/>
   </g>
   <g id="patch_3">
    <path d="M 35.03 97 
L 35.03 0 
" style="fill: none; stroke: #000000; stroke-width: 0.8; stroke-linejoin: miter; stroke-linecap: square"/>
   </g>
   <g id="patch_4">
    <path d="M 540 97 
L 540 0 
" style="fill: none; stroke: #000000; stroke-width: 0.8; stroke-linejoin: miter; stroke-linecap: square"/>
   </g>
   <g id="patch_5">
    <path d="M 35.03 97 
L 540 97 
" style="fill: none; stroke: #000000; stroke-width: 0.8; stroke-linejoin: miter; stroke-linecap: square"/>
   </g>
   <g id="patch_6">
    <path d="M 35.03 0 
L 540 0 
" style="fill: none; stroke: #000000; stroke-width: 0.8; stroke-linejoin: miter; stroke-linecap: square"/>
   </g>
  </g>
 </g>
 <defs>
  <clipPath id="p5d81cfffcc">
   <rect x="35.03" y="0" width="504.97" height="97"/>
  </clipPath>
 </defs>
</svg>
