<?xml version="1.0" encoding="utf-8" standalone="no"?>
<!DOCTYPE svg PUBLIC "-//W3C//DTD SVG 1.1//EN"
  "http://www.w3.org/Graphics/SVG/1.1/DTD/svg11.dtd">
<svg xmlns:xlink="http://www.w3.org/1999/xlink" width="540pt" height="129.6pt" viewBox="0 0 540 129.6" xmlns="http://www.w3.org/2000/svg" version="1.1">
 <metadata>
  <rdf:RDF xmlns:dc="http://purl.org/dc/elements/1.1/" xmlns:cc="http://creativecommons.org/ns#" xmlns:rdf="http://www.w3.org/1999/02/22-rdf-syntax-ns#">
   <cc:Work>
    <dc:type rdf:resource="http://purl.org/dc/dcmitype/StillImage"/>
    <dc:date>2025-04-05T21:36:43.088964</dc:date>
    <dc:format>image/svg+xml</dc:format>
    <dc:creator>
     <cc:Agent>
      <dc:title>Matplotlib v3.10.1, https://matplotlib.org/</dc:title>
     </cc:Agent>
    </dc:creator>
   </cc:Work>
  </rdf:RDF>
 </metadata>
 <defs>
  <style type="text/css">*{stroke-linejoin: round; stroke-linecap: butt}</style>
 </defs>
 <g id="figure_1">
  <g id="patch_1">
   <path d="M 0 129.6 
L 540 129.6 
L 540 0 
L 0 0 
z
" style="fill: #ffffff"/>
  </g>
  <g id="axes_1">
   <g id="patch_2">
    <path d="M 34.31 98.44 
L 540 98.44 
L 540 3.6 
L 34.31 3.6 
z
" style="fill: #ffffff"/>
   </g>
   <g id="matplotlib.axis_1">
    <g id="xtick_1">
     <g id="line2d_1">
      <path d="M 34.31 98.44 
L 34.31 3.6 
" clip-path="url(#pd850ac29b6)" style="fill: none; stroke: #b0b0b0; stroke-width: 0.8; stroke-linecap: square"/>
     </g>
     <g id="line2d_2">
      <defs>
       <path id="m007f8181e3" d="M 0 0 
L 0 3.5 
" style="stroke: #000000; stroke-width: 0.8"/>
      </defs>
      <g>
       <use xlink:href="#m007f8181e3" x="34.31" y="98.44" style="stroke: #000000; stroke-width: 0.8"/>
      </g>
     </g>
     <g id="text_1">
      <text style="font-size: 10px; font-family: 'Times New Roman'; text-anchor: middle" x="34.31" y="112.38375" transform="rotate(-0 34.31 112.38375)">0</text>
     </g>
    </g>
    <g id="xtick_2">
     <g id="line2d_3">
      <path d="M 94.662071 98.44 
L 94.662071 3.6 
" clip-path="url(#pd850ac29b6)" style="fill: none; stroke: #b0b0b0; stroke-width: 0.8; stroke-linecap: square"/>
     </g>
     <g id="line2d_4">
      <g>
       <use xlink:href="#m007f8181e3" x="94.662071" y="98.44" style="stroke: #000000; stroke-width: 0.8"/>
      </g>
     </g>
     <g id="text_2">
      <text style="font-size: 10px; font-family: 'Times New Roman'; text-anchor: middle" x="94.662071" y="112.38375" transform="rotate(-0 94.662071 112.38375)">50</text>
     </g>
    </g>
    <g id="xtick_3">
     <g id="line2d_5">
      <path d="M 155.014141 98.44 
L 155.014141 3.6 
" clip-path="url(#pd850ac29b6)" style="fill: none; stroke: #b0b0b0; stroke-width: 0.8; stroke-linecap: square"/>
     </g>
     <g id="line2d_6">
      <g>
       <use xlink:href="#m007f8181e3" x="155.014141" y="98.44" style="stroke: #000000; stroke-width: 0.8"/>
      </g>
     </g>
     <g id="text_3">
      <text style="font-size: 10px; font-family: 'Times New Roman'; text-anchor: middle" x="155.014141" y="112.38375" transform="rotate(-0 155.014141 112.38375)">100</text>
     </g>
    </g>
    <g id="xtick_4">
     <g id="line2d_7">
      <path d="M 215.366212 98.44 
L 215.366212 3.6 
" clip-path="url(#pd850ac29b6)" style="fill: none; stroke: #b0b0b0; stroke-width: 0.8; stroke-linecap: square"/>
     </g>
     <g id="line2d_8">
      <g>
       <use xlink:href="#m007f8181e3" x="215.366212" y="98.44" style="stroke: #000000; stroke-width: 0.8"/>
      </g>
     </g>
     <g id="text_4">
      <text style="font-size: 10px; font-family: 'Times New Roman'; text-anchor: middle" x="215.366212" y="112.38375" transform="rotate(-0 215.366212 112.38375)">150</text>
     </g>
    </g>
    <g id="xtick_5">
     <g id="line2d_9">
      <path d="M 275.718283 98.44 
L 275.718283 3.6 
" clip-path="url(#pd850ac29b6)" style="fill: none; stroke: #b0b0b0; stroke-width: 0.8; stroke-linecap: square"/>
     </g>
     <g id="line2d_10">
      <g>
       <use xlink:href="#m007f8181e3" x="275.718283" y="98.44" style="stroke: #000000; stroke-width: 0.8"/>
      </g>
     </g>
     <g id="text_5">
      <text style="font-size: 10px; font-family: 'Times New Roman'; text-anchor: middle" x="275.718283" y="112.38375" transform="rotate(-0 275.718283 112.38375)">200</text>
     </g>
    </g>
    <g id="xtick_6">
     <g id="line2d_11">
      <path d="M 336.070353 98.44 
L 336.070353 3.6 
" clip-path="url(#pd850ac29b6)" style="fill: none; stroke: #b0b0b0; stroke-width: 0.8; stroke-linecap: square"/>
     </g>
     <g id="line2d_12">
      <g>
       <use xlink:href="#m007f8181e3" x="336.070353" y="98.44" style="stroke: #000000; stroke-width: 0.8"/>
      </g>
     </g>
     <g id="text_6">
      <text style="font-size: 10px; font-family: 'Times New Roman'; text-anchor: middle" x="336.070353" y="112.38375" transform="rotate(-0 336.070353 112.38375)">250</text>
     </g>
    </g>
    <g id="xtick_7">
     <g id="line2d_13">
      <path d="M 396.422424 98.44 
L 396.422424 3.6 
" clip-path="url(#pd850ac29b6)" style="fill: none; stroke: #b0b0b0; stroke-width: 0.8; stroke-linecap: square"/>
     </g>
     <g id="line2d_14">
      <g>
       <use xlink:href="#m007f8181e3" x="396.422424" y="98.44" style="stroke: #000000; stroke-width: 0.8"/>
      </g>
     </g>
     <g id="text_7">
      <text style="font-size: 10px; font-family: 'Times New Roman'; text-anchor: middle" x="396.422424" y="112.38375" transform="rotate(-0 396.422424 112.38375)">300</text>
     </g>
    </g>
    <g id="xtick_8">
     <g id="line2d_15">
      <path d="M 456.774495 98.44 
L 456.774495 3.6 
" clip-path="url(#pd850ac29b6)" style="fill: none; stroke: #b0b0b0; stroke-width: 0.8; stroke-linecap: square"/>
     </g>
     <g id="line2d_16">
      <g>
       <use xlink:href="#m007f8181e3" x="456.774495" y="98.44" style="stroke: #000000; stroke-width: 0.8"/>
      </g>
     </g>
     <g id="text_8">
      <text style="font-size: 10px; font-family: 'Times New Roman'; text-anchor: middle" x="456.774495" y="112.38375" transform="rotate(-0 456.774495 112.38375)">350</text>
     </g>
    </g>
    <g id="xtick_9">
     <g id="line2d_17">
      <path d="M 517.126565 98.44 
L 517.126565 3.6 
" clip-path="url(#pd850ac29b6)" style="fill: none; stroke: #b0b0b0; stroke-width: 0.8; stroke-linecap: square"/>
     </g>
     <g id="line2d_18">
      <g>
       <use xlink:href="#m007f8181e3" x="517.126565" y="98.44" style="stroke: #000000; stroke-width: 0.8"/>
      </g>
     </g>
     <g id="text_9">
      <text style="font-size: 10px; font-family: 'Times New Roman'; text-anchor: middle" x="517.126565" y="112.38375" transform="rotate(-0 517.126565 112.38375)">400</text>
     </g>
    </g>
    <g id="text_10">
     <text style="font-size: 12px; font-family: 'Times New Roman'; text-anchor: middle" x="287.155" y="126.855312" transform="rotate(-0 287.155 126.855312)">Simulation Run</text>
    </g>
   </g>
   <g id="matplotlib.axis_2">
    <g id="ytick_1">
     <g id="line2d_19">
      <path d="M 34.31 98.44 
L 540 98.44 
" clip-path="url(#pd850ac29b6)" style="fill: none; stroke: #b0b0b0; stroke-width: 0.8; stroke-linecap: square"/>
     </g>
     <g id="line2d_20">
      <defs>
       <path id="m6502886949" d="M 0 0 
L -3.5 0 
" style="stroke: #000000; stroke-width: 0.8"/>
      </defs>
      <g>
       <use xlink:href="#m6502886949" x="34.31" y="98.44" style="stroke: #000000; stroke-width: 0.8"/>
      </g>
     </g>
     <g id="text_11">
      <text style="font-size: 10px; font-family: 'Times New Roman'; text-anchor: end" x="27.31" y="101.911875" transform="rotate(-0 27.31 101.911875)">0.0</text>
     </g>
    </g>
    <g id="ytick_2">
     <g id="line2d_21">
      <path d="M 34.31 66.826667 
L 540 66.826667 
" clip-path="url(#pd850ac29b6)" style="fill: none; stroke: #b0b0b0; stroke-width: 0.8; stroke-linecap: square"/>
     </g>
     <g id="line2d_22">
      <g>
       <use xlink:href="#m6502886949" x="34.31" y="66.826667" style="stroke: #000000; stroke-width: 0.8"/>
      </g>
     </g>
     <g id="text_12">
      <text style="font-size: 10px; font-family: 'Times New Roman'; text-anchor: end" x="27.31" y="70.298542" transform="rotate(-0 27.31 70.298542)">0.5</text>
     </g>
    </g>
    <g id="ytick_3">
     <g id="line2d_23">
      <path d="M 34.31 35.213333 
L 540 35.213333 
" clip-path="url(#pd850ac29b6)" style="fill: none; stroke: #b0b0b0; stroke-width: 0.8; stroke-linecap: square"/>
     </g>
     <g id="line2d_24">
      <g>
       <use xlink:href="#m6502886949" x="34.31" y="35.213333" style="stroke: #000000; stroke-width: 0.8"/>
      </g>
     </g>
     <g id="text_13">
      <text style="font-size: 10px; font-family: 'Times New Roman'; text-anchor: end" x="27.31" y="38.685208" transform="rotate(-0 27.31 38.685208)">1.0</text>
     </g>
    </g>
    <g id="ytick_4">
     <g id="line2d_25">
      <path d="M 34.31 3.6 
L 540 3.6 
" clip-path="url(#pd850ac29b6)" style="fill: none; stroke: #b0b0b0; stroke-width: 0.8; stroke-linecap: square"/>
     </g>
     <g id="line2d_26">
      <g>
       <use xlink:href="#m6502886949" x="34.31" y="3.6" style="stroke: #000000; stroke-width: 0.8"/>
      </g>
     </g>
     <g id="text_14">
      <text style="font-size: 10px; font-family: 'Times New Roman'; text-anchor: end" x="27.31" y="7.071875" transform="rotate(-0 27.31 7.071875)">1.5</text>
     </g>
    </g>
    <g id="text_15">
     <text style="font-size: 12px; font-family: 'Times New Roman'; text-anchor: middle" x="8.243125" y="51.02" transform="rotate(-90 8.243125 51.02)">Normalized Value</text>
    </g>
   </g>
   <g id="line2d_27">
    <path d="M 34.31 40.329628 
L 35.517041 50.126277 
L 36.724083 48.480404 
L 37.931124 46.197406 
L 40.345207 45.647657 
L 41.552248 41.112064 
L 42.75929 38.424583 
L 43.966331 39.424328 
L 45.173373 41.117486 
L 46.380414 41.890405 
L 47.587456 39.094379 
L 48.794497 38.72815 
L 50.001538 39.971348 
L 51.20858 39.219234 
L 52.415621 37.075192 
L 53.622663 38.326505 
L 54.829704 37.231666 
L 56.036745 36.579509 
L 57.243787 37.110142 
L 58.450828 38.161819 
L 59.65787 38.286891 
L 60.864911 35.415655 
L 62.071953 35.957547 
L 63.278994 36.972784 
L 64.486035 37.233991 
L 66.900118 36.919613 
L 68.10716 35.985463 
L 70.521242 37.671885 
L 71.728284 37.476396 
L 72.935325 36.595465 
L 75.349408 36.447628 
L 76.556449 35.980226 
L 77.763491 35.849296 
L 78.970532 36.001168 
L 80.177574 35.844768 
L 81.384615 36.65936 
L 83.798698 37.263075 
L 85.005739 36.125072 
L 89.833905 36.57969 
L 93.455029 36.007063 
L 94.662071 35.63103 
L 95.869112 35.681599 
L 97.076153 36.033867 
L 98.283195 36.603049 
L 100.697278 36.820852 
L 104.318402 38.196172 
L 105.525443 37.937857 
L 106.732485 37.43385 
L 107.939526 37.300891 
L 111.56065 37.696186 
L 112.767692 37.646552 
L 115.181775 37.839519 
L 116.388816 37.636578 
L 118.802899 37.789236 
L 121.216982 38.306447 
L 122.424023 37.994034 
L 123.631065 37.891052 
L 124.838106 38.072622 
L 126.045147 37.888678 
L 127.252189 37.823117 
L 130.873313 38.195074 
L 132.080354 37.850126 
L 133.287396 37.855979 
L 134.494437 38.159565 
L 135.701479 37.59601 
L 136.90852 37.77901 
L 138.115562 37.783101 
L 139.322603 37.980113 
L 142.943727 37.439398 
L 144.150769 37.425243 
L 145.35781 37.56182 
L 146.564851 37.395221 
L 148.978934 37.392548 
L 150.185976 37.134867 
L 152.600058 36.751408 
L 156.221183 37.080256 
L 158.635266 36.838769 
L 159.842307 36.985684 
L 161.049348 36.921016 
L 164.670473 37.142401 
L 165.877514 37.096886 
L 167.084555 37.331545 
L 168.291597 37.300972 
L 169.498638 37.51 
L 170.70568 37.458385 
L 171.912721 37.599576 
L 173.119763 37.402668 
L 174.326804 37.576745 
L 175.533845 37.484487 
L 176.740887 37.25927 
L 177.947928 37.459325 
L 179.15497 36.968811 
L 180.362011 37.008774 
L 181.569052 37.27056 
L 187.604259 37.562324 
L 192.432425 37.455549 
L 193.639467 37.544365 
L 194.846508 37.287491 
L 196.053549 37.262548 
L 197.260591 37.048187 
L 198.467632 37.079039 
L 202.088756 36.834557 
L 203.295798 36.889779 
L 204.502839 36.627813 
L 206.916922 36.381134 
L 208.123963 36.176323 
L 209.331005 36.169058 
L 211.745088 36.352472 
L 214.159171 36.312317 
L 215.366212 36.036157 
L 216.573253 35.939494 
L 217.780295 36.076532 
L 218.987336 36.091184 
L 220.194378 36.295652 
L 221.401419 36.119183 
L 222.60846 36.180646 
L 226.229585 36.052255 
L 227.436626 36.09094 
L 228.643668 35.965451 
L 229.850709 36.01067 
L 231.05775 35.816701 
L 234.678875 35.882995 
L 237.092957 35.819932 
L 243.128164 35.59425 
L 244.335206 35.737356 
L 246.749289 35.542792 
L 247.95633 35.651257 
L 249.163372 35.585205 
L 252.784496 35.676541 
L 261.233786 35.527239 
L 262.440827 35.346491 
L 263.647868 35.288904 
L 266.061951 35.539349 
L 269.683076 35.588828 
L 276.925324 35.780089 
L 282.960531 35.679256 
L 285.374614 35.831544 
L 286.581655 35.621038 
L 290.20278 35.799972 
L 292.616862 36.0781 
L 295.030945 36.036725 
L 298.652069 36.187961 
L 307.101359 36.156597 
L 308.308401 36.300314 
L 310.722484 36.154329 
L 311.929525 36.245468 
L 313.136566 36.096802 
L 317.964732 36.146638 
L 320.378815 36.171985 
L 322.792898 36.279363 
L 323.999939 36.186545 
L 330.035146 36.329318 
L 332.449229 36.359099 
L 333.65627 36.435385 
L 334.863312 36.282987 
L 350.55485 36.327834 
L 351.761892 36.128695 
L 354.175974 36.306423 
L 356.590057 36.226738 
L 357.797099 36.282627 
L 360.211182 35.965557 
L 371.074554 35.756666 
L 372.281596 35.708617 
L 374.695678 35.783225 
L 375.90272 35.730817 
L 379.523844 35.809679 
L 387.973134 35.882066 
L 389.180175 35.927475 
L 392.8013 35.717522 
L 395.215383 35.682928 
L 397.629465 35.6189 
L 401.25059 35.606082 
L 404.871714 35.442222 
L 410.906921 35.349262 
L 419.356211 35.253122 
L 421.770294 35.343291 
L 425.391418 35.326784 
L 431.426625 35.62293 
L 437.461832 35.590134 
L 441.082956 35.681187 
L 444.70408 35.521324 
L 462.809702 35.646353 
L 467.637867 35.844968 
L 468.844909 35.811304 
L 470.05195 35.916004 
L 480.915323 35.776492 
L 485.743488 35.76458 
L 486.95053 35.660479 
L 489.364613 35.74006 
L 492.985737 35.471149 
L 494.192778 35.503371 
L 495.39982 35.35093 
L 499.020944 35.367878 
L 501.435027 35.216197 
L 505.056151 35.145898 
L 515.919524 35.213333 
L 515.919524 35.213333 
" clip-path="url(#pd850ac29b6)" style="fill: none; stroke: #4169e1; stroke-width: 1.5; stroke-linecap: square"/>
   </g>
   <g id="line2d_28">
    <path d="M 34.31 98.44 
L 35.517041 80.275334 
L 36.724083 85.304818 
L 37.931124 85.629209 
L 39.138166 88.129082 
L 40.345207 89.782153 
L 41.552248 67.657967 
L 42.75929 61.936845 
L 43.966331 64.479398 
L 45.173373 62.992199 
L 46.380414 65.084045 
L 47.587456 51.587722 
L 48.794497 54.887122 
L 50.001538 54.1953 
L 51.20858 55.646063 
L 52.415621 45.270099 
L 53.622663 43.65615 
L 54.829704 42.842944 
L 56.036745 44.320171 
L 57.243787 46.013618 
L 58.450828 44.323462 
L 59.65787 46.721129 
L 60.864911 14.643009 
L 62.071953 16.856272 
L 63.278994 15.437758 
L 66.900118 23.78355 
L 68.10716 21.733424 
L 69.314201 20.881681 
L 70.521242 18.801046 
L 71.728284 21.065542 
L 72.935325 18.710134 
L 75.349408 23.19619 
L 76.556449 23.839119 
L 78.970532 27.49023 
L 80.177574 29.133529 
L 81.384615 25.968205 
L 82.591657 27.128985 
L 83.798698 28.029278 
L 85.005739 19.372149 
L 87.419822 22.638167 
L 88.626864 23.972646 
L 89.833905 25.554613 
L 93.455029 28.954615 
L 94.662071 28.97895 
L 95.869112 30.290056 
L 97.076153 30.354605 
L 98.283195 28.365693 
L 100.697278 30.597031 
L 101.904319 29.172362 
L 103.111361 28.601657 
L 104.318402 27.317557 
L 105.525443 27.757815 
L 106.732485 26.031869 
L 107.939526 26.995643 
L 109.146568 27.814841 
L 110.353609 28.101721 
L 112.767692 30.191992 
L 115.181775 31.954169 
L 116.388816 32.387675 
L 118.802899 34.088279 
L 121.216982 34.052455 
L 122.424023 33.574043 
L 123.631065 34.290389 
L 126.045147 35.008018 
L 127.252189 35.758609 
L 130.873313 37.398333 
L 132.080354 36.318578 
L 133.287396 37.066497 
L 134.494437 36.34932 
L 135.701479 32.030582 
L 136.90852 32.26403 
L 138.115562 33.024401 
L 140.529644 33.305262 
L 141.736686 33.731982 
L 142.943727 33.580552 
L 144.150769 34.282095 
L 145.35781 34.647167 
L 146.564851 34.837275 
L 148.978934 36.157051 
L 150.185976 35.592697 
L 151.393017 35.888762 
L 152.600058 35.395142 
L 153.8071 35.73186 
L 155.014141 36.249536 
L 159.842307 37.316411 
L 162.25639 38.209032 
L 163.463431 38.214134 
L 165.877514 39.241337 
L 167.084555 38.628251 
L 168.291597 39.142648 
L 169.498638 38.741217 
L 170.70568 39.207912 
L 171.912721 39.292851 
L 173.119763 38.958829 
L 174.326804 38.801922 
L 175.533845 39.118849 
L 176.740887 38.484537 
L 177.947928 38.082766 
L 179.15497 33.117016 
L 180.362011 33.615876 
L 181.569052 32.560472 
L 183.983135 33.504206 
L 185.190177 33.27911 
L 186.397218 33.59019 
L 188.811301 34.54603 
L 192.432425 35.307138 
L 193.639467 35.58475 
L 194.846508 34.392846 
L 196.053549 34.851491 
L 197.260591 34.144974 
L 198.467632 34.589782 
L 199.674674 34.831227 
L 200.881715 35.283083 
L 202.088756 35.238557 
L 203.295798 35.60599 
L 204.502839 34.217087 
L 205.709881 34.453227 
L 206.916922 34.224829 
L 208.123963 33.524438 
L 209.331005 33.967617 
L 210.538046 34.074538 
L 211.745088 34.357675 
L 214.159171 35.189523 
L 215.366212 33.443262 
L 216.573253 33.603835 
L 217.780295 33.487344 
L 218.987336 33.902898 
L 220.194378 33.100721 
L 221.401419 32.605995 
L 227.436626 34.151525 
L 228.643668 34.068516 
L 229.850709 34.40074 
L 231.05775 33.630514 
L 234.678875 34.557239 
L 235.885916 34.757244 
L 239.50704 35.764923 
L 240.714082 36.106951 
L 241.921123 35.909795 
L 243.128164 36.216055 
L 244.335206 35.897195 
L 245.542247 36.015142 
L 247.95633 35.922357 
L 251.577454 36.588307 
L 256.40562 37.833264 
L 257.612661 37.988197 
L 260.026744 38.5643 
L 261.233786 38.666216 
L 262.440827 37.812167 
L 263.647868 38.010336 
L 264.85491 37.69545 
L 266.061951 37.500152 
L 267.268993 37.805995 
L 268.476034 37.841268 
L 272.097158 38.641548 
L 273.3042 38.572947 
L 278.132365 39.668104 
L 279.339407 39.774122 
L 282.960531 40.606007 
L 284.167573 40.513111 
L 285.374614 40.671259 
L 286.581655 39.19349 
L 287.788697 39.408525 
L 288.995738 39.249556 
L 290.20278 39.482139 
L 292.616862 38.469846 
L 293.823904 38.595988 
L 295.030945 38.855995 
L 296.237987 38.823985 
L 303.480235 40.265135 
L 307.101359 40.970977 
L 308.308401 40.335641 
L 310.722484 40.38091 
L 311.929525 40.270668 
L 313.136566 39.555116 
L 320.378815 40.646835 
L 321.585856 40.640484 
L 322.792898 40.831593 
L 323.999939 40.679294 
L 332.449229 41.738908 
L 333.65627 41.693462 
L 334.863312 40.825903 
L 337.277395 41.281888 
L 338.484436 41.354545 
L 339.691478 41.200891 
L 340.898519 41.288777 
L 343.312602 40.891401 
L 344.519643 41.109173 
L 346.933726 41.022838 
L 350.55485 41.296681 
L 351.761892 39.539158 
L 352.968933 39.172021 
L 355.383016 39.066919 
L 356.590057 39.288391 
L 357.797099 39.349849 
L 359.00414 38.120473 
L 360.211182 37.21748 
L 361.418223 37.432739 
L 362.625264 37.508555 
L 363.832306 37.059502 
L 368.660471 37.520217 
L 369.867513 37.727412 
L 373.488637 37.834035 
L 374.695678 38.042772 
L 386.766093 38.607111 
L 387.973134 38.500888 
L 389.180175 38.589333 
L 390.387217 38.359881 
L 391.594258 38.482162 
L 392.8013 38.2845 
L 394.008341 38.470414 
L 395.215383 38.522826 
L 396.422424 38.394829 
L 401.25059 39.075971 
L 402.457631 38.830224 
L 403.664672 37.757202 
L 404.871714 37.658521 
L 409.699879 38.362125 
L 410.906921 38.375376 
L 413.321004 38.576249 
L 414.528045 38.002546 
L 415.735087 38.008252 
L 418.149169 38.373448 
L 422.977335 38.667223 
L 425.391418 39.001631 
L 426.598459 38.908567 
L 427.805501 38.684503 
L 429.012542 38.843428 
L 430.219583 38.602518 
L 432.633666 38.779861 
L 437.461832 39.401721 
L 441.082956 39.74463 
L 442.289998 39.614624 
L 443.497039 38.992771 
L 448.325205 39.605553 
L 449.532246 39.555336 
L 453.15337 40.020951 
L 454.360412 39.822432 
L 456.774495 39.131613 
L 457.981536 38.997074 
L 459.188577 39.159929 
L 461.60266 38.828103 
L 462.809702 38.976454 
L 464.016743 38.931768 
L 465.223784 38.555816 
L 468.844909 38.877025 
L 470.05195 38.292584 
L 471.258992 38.409092 
L 472.466033 38.40251 
L 478.50124 39.051707 
L 480.915323 39.135293 
L 482.122364 39.291375 
L 484.536447 39.142843 
L 485.743488 39.235628 
L 486.95053 38.623928 
L 488.157571 38.560699 
L 489.364613 38.678888 
L 490.571654 38.239238 
L 491.778696 37.192495 
L 494.192778 37.273585 
L 495.39982 35.753174 
L 499.020944 36.189881 
L 500.227985 35.146337 
L 501.435027 35.269755 
L 502.642068 35.25137 
L 507.470234 35.784066 
L 508.677275 35.615157 
L 509.884317 35.212681 
L 511.091358 34.936045 
L 512.2984 34.913246 
L 515.919524 35.213333 
L 515.919524 35.213333 
" clip-path="url(#pd850ac29b6)" style="fill: none; stroke-dasharray: 5.55,2.4; stroke-dashoffset: 0; stroke: #4169e1; stroke-width: 1.5"/>
   </g>
   <g id="line2d_29">
    <path d="M 34.31 35.369095 
L 35.517041 43.02323 
L 36.724083 42.193359 
L 37.931124 40.161316 
L 39.138166 39.444249 
L 40.345207 38.909769 
L 41.552248 37.397043 
L 42.75929 35.219933 
L 43.966331 35.9499 
L 45.173373 37.484448 
L 46.380414 38.804963 
L 47.587456 36.83784 
L 48.794497 36.304589 
L 50.001538 37.398708 
L 51.20858 37.694443 
L 52.415621 36.373137 
L 53.622663 37.328174 
L 54.829704 36.671359 
L 56.036745 36.349181 
L 57.243787 36.781095 
L 58.450828 37.468958 
L 59.65787 37.629629 
L 60.864911 35.514005 
L 62.071953 35.834086 
L 63.278994 36.594809 
L 64.486035 36.91821 
L 65.693077 37.000754 
L 66.900118 36.806739 
L 68.10716 36.29361 
L 70.521242 37.615265 
L 72.935325 37.058743 
L 75.349408 36.863749 
L 76.556449 36.45234 
L 77.763491 36.275641 
L 78.970532 36.424936 
L 80.177574 36.329981 
L 81.384615 37.059213 
L 82.591657 37.325571 
L 83.798698 37.70914 
L 85.005739 37.163701 
L 87.419822 37.33408 
L 88.626864 37.334137 
L 93.455029 36.639099 
L 94.662071 36.320368 
L 95.869112 36.315319 
L 97.076153 36.641018 
L 98.283195 37.111451 
L 100.697278 37.046338 
L 104.318402 38.107719 
L 105.525443 37.959923 
L 106.732485 37.605504 
L 107.939526 37.540246 
L 109.146568 37.613964 
L 110.353609 37.930792 
L 115.181775 37.895387 
L 116.388816 37.713649 
L 120.00994 37.983226 
L 121.216982 38.186312 
L 122.424023 37.872907 
L 123.631065 37.72235 
L 124.838106 37.857946 
L 127.252189 37.691673 
L 129.666272 37.891109 
L 130.873313 38.053582 
L 132.080354 37.766581 
L 133.287396 37.715991 
L 134.494437 37.897392 
L 135.701479 37.565818 
L 136.90852 37.69966 
L 138.115562 37.687705 
L 139.322603 37.820455 
L 141.736686 37.556189 
L 142.943727 37.302266 
L 144.150769 37.218632 
L 145.35781 37.31108 
L 146.564851 37.225424 
L 148.978934 37.245991 
L 152.600058 36.697007 
L 155.014141 36.854426 
L 156.221183 36.939736 
L 161.049348 36.778732 
L 163.463431 36.992144 
L 165.877514 36.90414 
L 167.084555 37.092189 
L 168.291597 37.098005 
L 169.498638 37.253751 
L 170.70568 37.191294 
L 171.912721 37.277402 
L 173.119763 37.162719 
L 174.326804 37.309466 
L 175.533845 37.201823 
L 176.740887 36.947725 
L 177.947928 37.098035 
L 179.15497 36.73171 
L 180.362011 36.781189 
L 181.569052 36.965187 
L 185.190177 37.094142 
L 186.397218 37.182021 
L 190.018342 37.069158 
L 191.225384 37.191877 
L 192.432425 37.091234 
L 193.639467 37.175692 
L 194.846508 37.024714 
L 196.053549 37.033562 
L 197.260591 36.87509 
L 198.467632 36.941691 
L 202.088756 36.714265 
L 203.295798 36.75745 
L 209.331005 36.343356 
L 211.745088 36.516464 
L 214.159171 36.474323 
L 216.573253 36.136682 
L 220.194378 36.42039 
L 221.401419 36.284751 
L 225.022543 36.303584 
L 228.643668 36.215708 
L 232.264792 36.200644 
L 243.128164 35.984765 
L 244.335206 36.0887 
L 246.749289 35.886443 
L 249.163372 35.991148 
L 256.40562 35.989073 
L 258.819703 35.90042 
L 260.026744 35.93838 
L 263.647868 35.735281 
L 266.061951 35.946265 
L 272.097158 35.927973 
L 274.511241 35.999033 
L 278.132365 35.981271 
L 281.75349 35.928314 
L 290.20278 35.973603 
L 292.616862 36.198418 
L 295.030945 36.168971 
L 297.445028 36.238566 
L 301.066152 36.223003 
L 307.101359 36.185378 
L 308.308401 36.300931 
L 310.722484 36.173262 
L 311.929525 36.25044 
L 313.136566 36.130211 
L 317.964732 36.111167 
L 320.378815 36.083804 
L 322.792898 36.178491 
L 325.206981 36.151775 
L 332.449229 36.24554 
L 333.65627 36.292665 
L 336.070353 36.20126 
L 348.140767 36.080247 
L 350.55485 36.143163 
L 351.761892 36.073095 
L 354.175974 36.205423 
L 356.590057 36.144068 
L 357.797099 36.154763 
L 361.418223 35.888773 
L 362.625264 35.846685 
L 363.832306 35.941668 
L 372.281596 35.720789 
L 380.730886 35.844555 
L 383.144968 35.81081 
L 385.559051 35.911473 
L 386.766093 35.849446 
L 389.180175 35.936432 
L 394.008341 35.786787 
L 402.457631 35.593869 
L 403.664672 35.488344 
L 406.078755 35.523248 
L 418.149169 35.346227 
L 422.977335 35.443177 
L 442.289998 35.597022 
L 444.70408 35.534701 
L 454.360412 35.576854 
L 455.567453 35.493808 
L 456.774495 35.560377 
L 459.188577 35.495466 
L 466.430826 35.716534 
L 490.571654 35.540136 
L 492.985737 35.402266 
L 494.192778 35.427384 
L 495.39982 35.332588 
L 499.020944 35.385801 
L 501.435027 35.260422 
L 505.056151 35.175095 
L 515.919524 35.213333 
L 515.919524 35.213333 
" clip-path="url(#pd850ac29b6)" style="fill: none; stroke: #ff8c00; stroke-width: 1.5; stroke-linecap: square"/>
   </g>
   <g id="line2d_30">
    <path d="M 34.31 98.44 
L 35.517041 79.162277 
L 36.724083 85.13496 
L 37.931124 84.385064 
L 39.138166 86.519279 
L 40.345207 88.036067 
L 41.552248 85.004459 
L 42.75929 75.766414 
L 43.966331 76.883017 
L 45.173373 72.064947 
L 46.380414 68.72482 
L 47.587456 57.194925 
L 48.794497 59.244809 
L 50.001538 56.923694 
L 51.20858 59.288548 
L 52.415621 53.118407 
L 53.622663 50.982365 
L 54.829704 51.205674 
L 56.036745 53.076899 
L 57.243787 54.178749 
L 58.450828 53.172578 
L 59.65787 55.051803 
L 60.864911 24.536862 
L 62.071953 26.840782 
L 63.278994 25.134634 
L 64.486035 27.093696 
L 65.693077 29.67786 
L 66.900118 31.799227 
L 68.10716 31.671272 
L 70.521242 27.640926 
L 71.728284 29.232506 
L 72.935325 30.319062 
L 74.142367 32.287968 
L 75.349408 33.963409 
L 76.556449 33.805116 
L 80.177574 38.048993 
L 81.384615 32.734447 
L 82.591657 33.403221 
L 83.798698 32.966828 
L 85.005739 30.377912 
L 87.419822 33.162515 
L 88.626864 34.581591 
L 89.833905 35.496354 
L 91.040946 35.887397 
L 93.455029 37.771035 
L 94.662071 37.289211 
L 95.869112 38.46476 
L 97.076153 37.781262 
L 98.283195 35.045039 
L 100.697278 37.268166 
L 101.904319 35.553395 
L 103.111361 34.308345 
L 104.318402 33.440975 
L 105.525443 34.100214 
L 106.732485 32.674987 
L 109.146568 34.567774 
L 110.353609 33.484882 
L 112.767692 35.415958 
L 115.181775 36.938582 
L 116.388816 37.090875 
L 118.802899 38.635257 
L 120.00994 38.981797 
L 121.216982 38.81915 
L 122.424023 37.265446 
L 124.838106 37.876865 
L 126.045147 38.194702 
L 128.45923 39.565819 
L 129.666272 39.878593 
L 130.873313 39.906681 
L 132.080354 38.425082 
L 133.287396 39.079098 
L 134.494437 38.887066 
L 135.701479 36.548882 
L 136.90852 36.767516 
L 138.115562 37.472351 
L 141.736686 37.997693 
L 142.943727 36.752433 
L 147.771893 38.641249 
L 148.978934 39.260557 
L 150.185976 38.616376 
L 151.393017 38.74899 
L 152.600058 37.684922 
L 153.8071 37.825043 
L 155.014141 38.37859 
L 156.221183 38.725555 
L 157.428224 39.207758 
L 159.842307 39.318676 
L 164.670473 40.062279 
L 165.877514 40.59275 
L 167.084555 39.83393 
L 168.291597 40.355963 
L 169.498638 39.976035 
L 170.70568 40.343833 
L 171.912721 40.570878 
L 173.119763 40.572053 
L 174.326804 40.244668 
L 175.533845 40.291754 
L 176.740887 38.273434 
L 177.947928 37.890135 
L 179.15497 33.091722 
L 180.362011 33.529887 
L 181.569052 32.698518 
L 183.983135 33.737693 
L 185.190177 33.79765 
L 186.397218 33.986456 
L 190.018342 35.234676 
L 191.225384 35.072951 
L 192.432425 35.116389 
L 193.639467 35.282679 
L 194.846508 34.756441 
L 196.053549 35.224719 
L 197.260591 34.57395 
L 198.467632 34.841623 
L 199.674674 34.76414 
L 200.881715 35.222131 
L 202.088756 35.051892 
L 203.295798 35.415539 
L 204.502839 35.571749 
L 205.709881 35.951382 
L 208.123963 35.222003 
L 209.331005 35.580481 
L 210.538046 35.55369 
L 211.745088 35.700297 
L 214.159171 36.471873 
L 215.366212 35.234366 
L 216.573253 34.457698 
L 217.780295 34.351635 
L 218.987336 34.763844 
L 220.194378 33.667301 
L 221.401419 33.14416 
L 225.022543 34.152601 
L 228.643668 34.84362 
L 229.850709 35.181177 
L 231.05775 35.241369 
L 233.471833 35.914664 
L 234.678875 36.078822 
L 238.299999 37.065146 
L 239.50704 37.176074 
L 240.714082 37.529714 
L 241.921123 37.450442 
L 243.128164 37.73125 
L 244.335206 37.459669 
L 245.542247 37.369446 
L 247.95633 36.617444 
L 250.370413 37.291274 
L 251.577454 37.28193 
L 252.784496 37.590678 
L 253.991537 37.748712 
L 256.40562 38.376634 
L 257.612661 38.473102 
L 260.026744 38.975798 
L 261.233786 38.85501 
L 262.440827 38.577957 
L 263.647868 38.8618 
L 264.85491 38.299294 
L 266.061951 38.062843 
L 272.097158 39.506989 
L 273.3042 39.36377 
L 278.132365 40.41963 
L 279.339407 40.546614 
L 282.960531 41.384964 
L 284.167573 41.364466 
L 285.374614 41.567117 
L 286.581655 40.599092 
L 287.788697 40.871 
L 288.995738 40.801301 
L 290.20278 41.068988 
L 291.409821 40.273882 
L 292.616862 39.816814 
L 295.030945 40.304732 
L 296.237987 40.169414 
L 298.652069 40.641651 
L 302.273194 41.325002 
L 307.101359 42.268956 
L 308.308401 41.517962 
L 309.515442 41.52066 
L 311.929525 41.190608 
L 313.136566 40.338634 
L 316.757691 40.944229 
L 317.964732 40.751238 
L 320.378815 41.146203 
L 321.585856 41.066214 
L 322.792898 41.230696 
L 323.999939 41.177747 
L 328.828105 41.814658 
L 332.449229 42.378973 
L 333.65627 42.42289 
L 334.863312 41.890209 
L 338.484436 42.486339 
L 339.691478 42.504322 
L 340.898519 42.647556 
L 342.10556 42.582715 
L 343.312602 42.394542 
L 344.519643 42.567466 
L 345.726685 42.47334 
L 346.933726 42.632084 
L 349.347809 42.420637 
L 350.55485 42.633636 
L 355.383016 41.846299 
L 357.797099 42.250311 
L 360.211182 39.988439 
L 361.418223 40.167205 
L 362.625264 40.222118 
L 363.832306 39.624165 
L 368.660471 39.813414 
L 372.281596 40.339465 
L 377.109761 40.672374 
L 378.316803 40.613406 
L 383.144968 41.067681 
L 384.35201 40.950536 
L 385.559051 40.968125 
L 387.973134 40.614043 
L 389.180175 40.752074 
L 390.387217 40.622934 
L 391.594258 40.649632 
L 392.8013 40.389349 
L 395.215383 40.706289 
L 396.422424 40.470474 
L 398.836507 40.835818 
L 400.043548 40.787725 
L 401.25059 40.956485 
L 402.457631 40.782388 
L 403.664672 39.848969 
L 404.871714 39.768483 
L 409.699879 40.379461 
L 410.906921 40.28131 
L 413.321004 40.46908 
L 414.528045 40.141952 
L 416.942128 40.420644 
L 418.149169 40.602475 
L 420.563252 40.407278 
L 425.391418 41.088778 
L 426.598459 41.101484 
L 427.805501 40.786638 
L 429.012542 40.961335 
L 430.219583 40.612471 
L 431.426625 40.779716 
L 432.633666 40.807162 
L 437.461832 41.438692 
L 438.668873 41.444514 
L 441.082956 41.682429 
L 442.289998 41.406253 
L 443.497039 40.811003 
L 448.325205 41.365388 
L 449.532246 41.21964 
L 453.15337 41.494292 
L 455.567453 40.308382 
L 457.981536 39.51671 
L 459.188577 39.67632 
L 460.395619 39.578337 
L 461.60266 39.278902 
L 464.016743 39.480505 
L 465.223784 39.161546 
L 467.637867 39.487368 
L 468.844909 39.466878 
L 470.05195 38.38121 
L 477.294199 38.932928 
L 482.122364 39.432993 
L 483.329406 39.395126 
L 484.536447 39.113404 
L 485.743488 39.084028 
L 486.95053 38.862317 
L 488.157571 38.832098 
L 489.364613 38.963694 
L 490.571654 38.489137 
L 491.778696 37.753543 
L 492.985737 37.558488 
L 494.192778 37.638766 
L 495.39982 36.667963 
L 497.813903 36.847463 
L 499.020944 36.995698 
L 500.227985 35.907676 
L 501.435027 35.980742 
L 502.642068 35.766543 
L 506.263193 36.184138 
L 507.470234 36.158231 
L 508.677275 35.946986 
L 511.091358 35.116237 
L 512.2984 34.926688 
L 514.712482 35.234004 
L 515.919524 35.213333 
L 515.919524 35.213333 
" clip-path="url(#pd850ac29b6)" style="fill: none; stroke-dasharray: 5.55,2.4; stroke-dashoffset: 0; stroke: #ff8c00; stroke-width: 1.5"/>
   </g>
   <g id="patch_3">
    <path d="M 34.31 98.44 
L 34.31 3.6 
" style="fill: none; stroke: #000000; stroke-width: 0.8; stroke-linejoin: miter; stroke-linecap: square"/>
   </g>
   <g id="patch_4">
    <path d="M 540 98.44 
L 540 3.6 
" style="fill: none; stroke: #000000; stroke-width: 0.8; stroke-linejoin: miter; stroke-linecap: square"/>
   </g>
   <g id="patch_5">
    <path d="M 34.31 98.44 
L 540 98.44 
" style="fill: none; stroke: #000000; stroke-width: 0.8; stroke-linejoin: miter; stroke-linecap: square"/>
   </g>
   <g id="patch_6">
    <path d="M 34.31 3.6 
L 540 3.6 
" style="fill: none; stroke: #000000; stroke-width: 0.8; stroke-linejoin: miter; stroke-linecap: square"/>
   </g>
  </g>
 </g>
 <defs>
  <clipPath id="pd850ac29b6">
   <rect x="34.31" y="3.6" width="505.69" height="94.84"/>
  </clipPath>
 </defs>
</svg>
