<?xml version="1.0" encoding="utf-8" standalone="no"?>
<!DOCTYPE svg PUBLIC "-//W3C//DTD SVG 1.1//EN"
  "http://www.w3.org/Graphics/SVG/1.1/DTD/svg11.dtd">
<svg xmlns:xlink="http://www.w3.org/1999/xlink" width="540pt" height="129.6pt" viewBox="0 0 540 129.6" xmlns="http://www.w3.org/2000/svg" version="1.1">
 <metadata>
  <rdf:RDF xmlns:dc="http://purl.org/dc/elements/1.1/" xmlns:cc="http://creativecommons.org/ns#" xmlns:rdf="http://www.w3.org/1999/02/22-rdf-syntax-ns#">
   <cc:Work>
    <dc:type rdf:resource="http://purl.org/dc/dcmitype/StillImage"/>
    <dc:date>2025-04-05T19:54:49.047695</dc:date>
    <dc:format>image/svg+xml</dc:format>
    <dc:creator>
     <cc:Agent>
      <dc:title>Matplotlib v3.10.1, https://matplotlib.org/</dc:title>
     </cc:Agent>
    </dc:creator>
   </cc:Work>
  </rdf:RDF>
 </metadata>
 <defs>
  <style type="text/css">*{stroke-linejoin: round; stroke-linecap: butt}</style>
 </defs>
 <g id="figure_1">
  <g id="patch_1">
   <path d="M 0 129.6 
L 540 129.6 
L 540 0 
L 0 0 
z
" style="fill: #ffffff"/>
  </g>
  <g id="axes_1">
   <g id="patch_2">
    <path d="M 34.31 98.44 
L 540 98.44 
L 540 3.6 
L 34.31 3.6 
z
" style="fill: #ffffff"/>
   </g>
   <g id="matplotlib.axis_1">
    <g id="xtick_1">
     <g id="line2d_1">
      <path d="M 34.31 98.44 
L 34.31 3.6 
" clip-path="url(#p7aa9ec10c8)" style="fill: none; stroke: #b0b0b0; stroke-width: 0.8; stroke-linecap: square"/>
     </g>
     <g id="line2d_2">
      <defs>
       <path id="m89305de703" d="M 0 0 
L 0 3.5 
" style="stroke: #000000; stroke-width: 0.8"/>
      </defs>
      <g>
       <use xlink:href="#m89305de703" x="34.31" y="98.44" style="stroke: #000000; stroke-width: 0.8"/>
      </g>
     </g>
     <g id="text_1">
      <text style="font-size: 10px; font-family: 'Times New Roman'; text-anchor: middle" x="34.31" y="112.38375" transform="rotate(-0 34.31 112.38375)">0</text>
     </g>
    </g>
    <g id="xtick_2">
     <g id="line2d_3">
      <path d="M 94.662071 98.44 
L 94.662071 3.6 
" clip-path="url(#p7aa9ec10c8)" style="fill: none; stroke: #b0b0b0; stroke-width: 0.8; stroke-linecap: square"/>
     </g>
     <g id="line2d_4">
      <g>
       <use xlink:href="#m89305de703" x="94.662071" y="98.44" style="stroke: #000000; stroke-width: 0.8"/>
      </g>
     </g>
     <g id="text_2">
      <text style="font-size: 10px; font-family: 'Times New Roman'; text-anchor: middle" x="94.662071" y="112.38375" transform="rotate(-0 94.662071 112.38375)">50</text>
     </g>
    </g>
    <g id="xtick_3">
     <g id="line2d_5">
      <path d="M 155.014141 98.44 
L 155.014141 3.6 
" clip-path="url(#p7aa9ec10c8)" style="fill: none; stroke: #b0b0b0; stroke-width: 0.8; stroke-linecap: square"/>
     </g>
     <g id="line2d_6">
      <g>
       <use xlink:href="#m89305de703" x="155.014141" y="98.44" style="stroke: #000000; stroke-width: 0.8"/>
      </g>
     </g>
     <g id="text_3">
      <text style="font-size: 10px; font-family: 'Times New Roman'; text-anchor: middle" x="155.014141" y="112.38375" transform="rotate(-0 155.014141 112.38375)">100</text>
     </g>
    </g>
    <g id="xtick_4">
     <g id="line2d_7">
      <path d="M 215.366212 98.44 
L 215.366212 3.6 
" clip-path="url(#p7aa9ec10c8)" style="fill: none; stroke: #b0b0b0; stroke-width: 0.8; stroke-linecap: square"/>
     </g>
     <g id="line2d_8">
      <g>
       <use xlink:href="#m89305de703" x="215.366212" y="98.44" style="stroke: #000000; stroke-width: 0.8"/>
      </g>
     </g>
     <g id="text_4">
      <text style="font-size: 10px; font-family: 'Times New Roman'; text-anchor: middle" x="215.366212" y="112.38375" transform="rotate(-0 215.366212 112.38375)">150</text>
     </g>
    </g>
    <g id="xtick_5">
     <g id="line2d_9">
      <path d="M 275.718283 98.44 
L 275.718283 3.6 
" clip-path="url(#p7aa9ec10c8)" style="fill: none; stroke: #b0b0b0; stroke-width: 0.8; stroke-linecap: square"/>
     </g>
     <g id="line2d_10">
      <g>
       <use xlink:href="#m89305de703" x="275.718283" y="98.44" style="stroke: #000000; stroke-width: 0.8"/>
      </g>
     </g>
     <g id="text_5">
      <text style="font-size: 10px; font-family: 'Times New Roman'; text-anchor: middle" x="275.718283" y="112.38375" transform="rotate(-0 275.718283 112.38375)">200</text>
     </g>
    </g>
    <g id="xtick_6">
     <g id="line2d_11">
      <path d="M 336.070353 98.44 
L 336.070353 3.6 
" clip-path="url(#p7aa9ec10c8)" style="fill: none; stroke: #b0b0b0; stroke-width: 0.8; stroke-linecap: square"/>
     </g>
     <g id="line2d_12">
      <g>
       <use xlink:href="#m89305de703" x="336.070353" y="98.44" style="stroke: #000000; stroke-width: 0.8"/>
      </g>
     </g>
     <g id="text_6">
      <text style="font-size: 10px; font-family: 'Times New Roman'; text-anchor: middle" x="336.070353" y="112.38375" transform="rotate(-0 336.070353 112.38375)">250</text>
     </g>
    </g>
    <g id="xtick_7">
     <g id="line2d_13">
      <path d="M 396.422424 98.44 
L 396.422424 3.6 
" clip-path="url(#p7aa9ec10c8)" style="fill: none; stroke: #b0b0b0; stroke-width: 0.8; stroke-linecap: square"/>
     </g>
     <g id="line2d_14">
      <g>
       <use xlink:href="#m89305de703" x="396.422424" y="98.44" style="stroke: #000000; stroke-width: 0.8"/>
      </g>
     </g>
     <g id="text_7">
      <text style="font-size: 10px; font-family: 'Times New Roman'; text-anchor: middle" x="396.422424" y="112.38375" transform="rotate(-0 396.422424 112.38375)">300</text>
     </g>
    </g>
    <g id="xtick_8">
     <g id="line2d_15">
      <path d="M 456.774495 98.44 
L 456.774495 3.6 
" clip-path="url(#p7aa9ec10c8)" style="fill: none; stroke: #b0b0b0; stroke-width: 0.8; stroke-linecap: square"/>
     </g>
     <g id="line2d_16">
      <g>
       <use xlink:href="#m89305de703" x="456.774495" y="98.44" style="stroke: #000000; stroke-width: 0.8"/>
      </g>
     </g>
     <g id="text_8">
      <text style="font-size: 10px; font-family: 'Times New Roman'; text-anchor: middle" x="456.774495" y="112.38375" transform="rotate(-0 456.774495 112.38375)">350</text>
     </g>
    </g>
    <g id="xtick_9">
     <g id="line2d_17">
      <path d="M 517.126565 98.44 
L 517.126565 3.6 
" clip-path="url(#p7aa9ec10c8)" style="fill: none; stroke: #b0b0b0; stroke-width: 0.8; stroke-linecap: square"/>
     </g>
     <g id="line2d_18">
      <g>
       <use xlink:href="#m89305de703" x="517.126565" y="98.44" style="stroke: #000000; stroke-width: 0.8"/>
      </g>
     </g>
     <g id="text_9">
      <text style="font-size: 10px; font-family: 'Times New Roman'; text-anchor: middle" x="517.126565" y="112.38375" transform="rotate(-0 517.126565 112.38375)">400</text>
     </g>
    </g>
    <g id="text_10">
     <text style="font-size: 12px; font-family: 'Times New Roman'; text-anchor: middle" x="287.155" y="126.855312" transform="rotate(-0 287.155 126.855312)">Simulation Run</text>
    </g>
   </g>
   <g id="matplotlib.axis_2">
    <g id="ytick_1">
     <g id="line2d_19">
      <path d="M 34.31 98.44 
L 540 98.44 
" clip-path="url(#p7aa9ec10c8)" style="fill: none; stroke: #b0b0b0; stroke-width: 0.8; stroke-linecap: square"/>
     </g>
     <g id="line2d_20">
      <defs>
       <path id="ma4b8ac14c5" d="M 0 0 
L -3.5 0 
" style="stroke: #000000; stroke-width: 0.8"/>
      </defs>
      <g>
       <use xlink:href="#ma4b8ac14c5" x="34.31" y="98.44" style="stroke: #000000; stroke-width: 0.8"/>
      </g>
     </g>
     <g id="text_11">
      <text style="font-size: 10px; font-family: 'Times New Roman'; text-anchor: end" x="27.31" y="101.911875" transform="rotate(-0 27.31 101.911875)">0.0</text>
     </g>
    </g>
    <g id="ytick_2">
     <g id="line2d_21">
      <path d="M 34.31 66.826667 
L 540 66.826667 
" clip-path="url(#p7aa9ec10c8)" style="fill: none; stroke: #b0b0b0; stroke-width: 0.8; stroke-linecap: square"/>
     </g>
     <g id="line2d_22">
      <g>
       <use xlink:href="#ma4b8ac14c5" x="34.31" y="66.826667" style="stroke: #000000; stroke-width: 0.8"/>
      </g>
     </g>
     <g id="text_12">
      <text style="font-size: 10px; font-family: 'Times New Roman'; text-anchor: end" x="27.31" y="70.298542" transform="rotate(-0 27.31 70.298542)">0.5</text>
     </g>
    </g>
    <g id="ytick_3">
     <g id="line2d_23">
      <path d="M 34.31 35.213333 
L 540 35.213333 
" clip-path="url(#p7aa9ec10c8)" style="fill: none; stroke: #b0b0b0; stroke-width: 0.8; stroke-linecap: square"/>
     </g>
     <g id="line2d_24">
      <g>
       <use xlink:href="#ma4b8ac14c5" x="34.31" y="35.213333" style="stroke: #000000; stroke-width: 0.8"/>
      </g>
     </g>
     <g id="text_13">
      <text style="font-size: 10px; font-family: 'Times New Roman'; text-anchor: end" x="27.31" y="38.685208" transform="rotate(-0 27.31 38.685208)">1.0</text>
     </g>
    </g>
    <g id="ytick_4">
     <g id="line2d_25">
      <path d="M 34.31 3.6 
L 540 3.6 
" clip-path="url(#p7aa9ec10c8)" style="fill: none; stroke: #b0b0b0; stroke-width: 0.8; stroke-linecap: square"/>
     </g>
     <g id="line2d_26">
      <g>
       <use xlink:href="#ma4b8ac14c5" x="34.31" y="3.6" style="stroke: #000000; stroke-width: 0.8"/>
      </g>
     </g>
     <g id="text_14">
      <text style="font-size: 10px; font-family: 'Times New Roman'; text-anchor: end" x="27.31" y="7.071875" transform="rotate(-0 27.31 7.071875)">1.5</text>
     </g>
    </g>
    <g id="text_15">
     <text style="font-size: 12px; font-family: 'Times New Roman'; text-anchor: middle" x="8.243125" y="51.02" transform="rotate(-90 8.243125 51.02)">Normalized Value</text>
    </g>
   </g>
   <g id="line2d_27">
    <path d="M 34.31 54.727002 
L 35.517041 50.217312 
L 36.724083 50.113459 
L 39.138166 41.676855 
L 40.345207 41.097347 
L 41.552248 40.246048 
L 42.75929 41.011887 
L 43.966331 39.995343 
L 45.173373 36.541207 
L 46.380414 36.911591 
L 47.587456 35.073688 
L 48.794497 34.204949 
L 50.001538 30.566132 
L 51.20858 29.742501 
L 52.415621 31.111109 
L 54.829704 31.460853 
L 57.243787 32.695874 
L 58.450828 33.164547 
L 59.65787 33.188992 
L 60.864911 32.826994 
L 62.071953 32.246469 
L 63.278994 32.726437 
L 64.486035 32.847907 
L 65.693077 32.836433 
L 66.900118 31.974934 
L 68.10716 31.848266 
L 69.314201 32.172375 
L 70.521242 31.76538 
L 72.935325 32.918048 
L 77.763491 32.798515 
L 78.970532 32.500662 
L 81.384615 32.839167 
L 82.591657 33.010042 
L 83.798698 32.80647 
L 85.005739 33.014245 
L 86.212781 33.0448 
L 87.419822 33.285607 
L 89.833905 34.447027 
L 91.040946 33.852826 
L 92.247988 33.974676 
L 93.455029 33.686645 
L 94.662071 33.933077 
L 95.869112 33.71193 
L 97.076153 34.117102 
L 98.283195 33.998772 
L 99.490236 33.725879 
L 100.697278 34.447253 
L 101.904319 34.294127 
L 103.111361 34.503725 
L 104.318402 34.034066 
L 106.732485 34.355037 
L 110.353609 34.627945 
L 111.56065 35.170504 
L 112.767692 35.049088 
L 113.974733 35.206498 
L 115.181775 34.809705 
L 120.00994 34.404465 
L 121.216982 34.422367 
L 122.424023 33.995798 
L 123.631065 33.86342 
L 124.838106 33.92547 
L 127.252189 33.660673 
L 129.666272 32.607139 
L 130.873313 32.884962 
L 135.701479 33.296575 
L 136.90852 33.619529 
L 138.115562 33.285819 
L 139.322603 33.56441 
L 141.736686 33.434829 
L 142.943727 33.438798 
L 144.150769 33.608673 
L 145.35781 33.492907 
L 152.600058 34.318569 
L 155.014141 34.695063 
L 156.221183 34.66625 
L 157.428224 34.859239 
L 159.842307 34.52964 
L 161.049348 34.425515 
L 163.463431 34.820982 
L 164.670473 34.520616 
L 165.877514 34.420362 
L 169.498638 34.702497 
L 170.70568 34.915878 
L 171.912721 34.957703 
L 173.119763 35.126334 
L 177.947928 34.937766 
L 179.15497 34.69812 
L 180.362011 34.789762 
L 181.569052 34.562264 
L 182.776094 34.473149 
L 185.190177 34.585634 
L 186.397218 34.318506 
L 187.604259 34.397562 
L 190.018342 34.719771 
L 191.225384 34.629791 
L 192.432425 34.652589 
L 197.260591 35.293886 
L 198.467632 35.064795 
L 199.674674 35.068813 
L 200.881715 35.270419 
L 202.088756 35.145221 
L 203.295798 35.28342 
L 205.709881 35.31607 
L 206.916922 35.552114 
L 208.123963 35.404014 
L 211.745088 35.482061 
L 212.952129 35.091704 
L 214.159171 34.933137 
L 215.366212 35.027941 
L 220.194378 34.957344 
L 221.401419 35.0963 
L 222.60846 34.929539 
L 223.815502 35.094842 
L 226.229585 35.179275 
L 227.436626 35.085932 
L 228.643668 34.864463 
L 229.850709 34.827107 
L 232.264792 34.98388 
L 233.471833 34.919338 
L 234.678875 34.98095 
L 235.885916 35.1539 
L 237.092957 35.098603 
L 241.921123 35.448571 
L 243.128164 35.449396 
L 244.335206 35.270269 
L 246.749289 35.426706 
L 249.163372 35.264531 
L 251.577454 34.728603 
L 252.784496 34.844272 
L 255.198579 34.520997 
L 260.026744 34.781701 
L 263.647868 34.6649 
L 264.85491 34.705343 
L 266.061951 34.451806 
L 272.097158 34.519803 
L 276.925324 34.316421 
L 279.339407 34.436 
L 280.546448 34.373353 
L 281.75349 34.439466 
L 286.581655 34.132467 
L 288.995738 34.060792 
L 290.20278 33.876346 
L 293.823904 33.901228 
L 299.859111 34.250643 
L 304.687277 33.888841 
L 305.894318 33.941556 
L 308.308401 33.838684 
L 310.722484 34.047822 
L 311.929525 34.046637 
L 313.136566 33.757748 
L 316.757691 33.8464 
L 317.964732 33.700848 
L 320.378815 33.777857 
L 328.828105 34.107254 
L 332.449229 34.056429 
L 333.65627 34.00282 
L 336.070353 34.227223 
L 338.484436 34.228994 
L 346.933726 34.392255 
L 348.140767 34.343923 
L 354.175974 34.661582 
L 359.00414 34.805829 
L 361.418223 34.621114 
L 365.039347 34.709653 
L 366.246389 34.793936 
L 373.488637 34.1679 
L 379.523844 34.217391 
L 381.937927 34.069468 
L 385.559051 34.198406 
L 389.180175 34.297656 
L 391.594258 34.416767 
L 396.422424 34.578127 
L 398.836507 34.787765 
L 403.664672 34.630064 
L 408.492838 34.798873 
L 410.906921 34.84729 
L 413.321004 34.874076 
L 414.528045 34.72564 
L 426.598459 34.672495 
L 432.633666 34.878417 
L 435.047749 34.833731 
L 436.254791 34.923201 
L 439.875915 34.792247 
L 443.497039 35.019819 
L 445.911122 34.976103 
L 478.50124 35.127988 
L 480.915323 35.166053 
L 484.536447 35.191379 
L 489.364613 35.249875 
L 496.606861 35.028681 
L 506.263193 35.102784 
L 509.884317 35.056319 
L 512.2984 35.1322 
L 515.919524 35.213333 
L 515.919524 35.213333 
" clip-path="url(#p7aa9ec10c8)" style="fill: none; stroke: #4169e1; stroke-width: 1.5; stroke-linecap: square"/>
   </g>
   <g id="line2d_28">
    <path d="M 34.31 98.44 
L 35.517041 94.816459 
L 36.724083 96.020463 
L 37.931124 86.856402 
L 39.138166 76.830525 
L 40.345207 80.132928 
L 41.552248 81.973485 
L 42.75929 83.300302 
L 43.966331 83.509561 
L 45.173373 65.870567 
L 46.380414 68.587 
L 47.587456 64.454451 
L 48.794497 65.455111 
L 50.001538 37.141895 
L 51.20858 39.536305 
L 52.415621 38.211803 
L 53.622663 41.657263 
L 54.829704 44.72947 
L 56.036745 46.313645 
L 57.243787 47.649794 
L 58.450828 49.285649 
L 59.65787 51.517702 
L 60.864911 53.044143 
L 62.071953 53.554589 
L 63.278994 54.364914 
L 65.693077 57.565838 
L 66.900118 55.455253 
L 68.10716 56.857442 
L 69.314201 57.700754 
L 70.521242 58.129525 
L 71.728284 57.608759 
L 72.935325 56.8955 
L 75.349408 59.251613 
L 77.763491 61.360002 
L 78.970532 61.750942 
L 80.177574 62.37729 
L 81.384615 63.173706 
L 82.591657 63.825767 
L 85.005739 64.816984 
L 86.212781 65.573991 
L 87.419822 65.849747 
L 91.040946 59.635003 
L 92.247988 60.299964 
L 93.455029 60.338474 
L 95.869112 60.828911 
L 97.076153 60.017581 
L 98.283195 60.596885 
L 99.490236 60.568438 
L 100.697278 56.145258 
L 101.904319 56.653319 
L 103.111361 56.927622 
L 104.318402 55.351759 
L 105.525443 55.624993 
L 107.939526 56.790567 
L 109.146568 57.431489 
L 110.353609 57.830937 
L 111.56065 55.098979 
L 112.767692 55.584931 
L 113.974733 55.933186 
L 115.181775 54.678787 
L 116.388816 55.123726 
L 117.595858 55.079051 
L 121.216982 56.742595 
L 122.424023 54.939384 
L 123.631065 55.288343 
L 124.838106 55.804678 
L 126.045147 56.009878 
L 127.252189 56.40441 
L 128.45923 52.267201 
L 129.666272 49.683334 
L 130.873313 49.185082 
L 133.287396 49.97142 
L 134.494437 50.283753 
L 135.701479 50.823503 
L 138.115562 48.650331 
L 139.322603 48.013053 
L 140.529644 48.391156 
L 142.943727 49.484645 
L 144.150769 49.54888 
L 146.564851 50.110583 
L 147.771893 50.58502 
L 148.978934 50.674853 
L 150.185976 50.954972 
L 151.393017 50.718569 
L 152.600058 50.610549 
L 153.8071 50.23141 
L 155.014141 50.275029 
L 156.221183 50.732295 
L 158.635266 50.20018 
L 161.049348 50.627389 
L 163.463431 50.034419 
L 164.670473 48.742443 
L 167.084555 49.299956 
L 168.291597 49.117998 
L 169.498638 49.547189 
L 170.70568 49.059364 
L 171.912721 49.453228 
L 173.119763 49.292872 
L 176.740887 50.385132 
L 177.947928 50.541486 
L 179.15497 49.709449 
L 180.362011 49.927821 
L 181.569052 49.19722 
L 183.983135 49.721035 
L 185.190177 50.056041 
L 186.397218 48.835063 
L 187.604259 49.081178 
L 188.811301 48.631748 
L 190.018342 48.619248 
L 191.225384 48.81203 
L 192.432425 49.175868 
L 193.639467 48.827509 
L 194.846508 48.275888 
L 196.053549 48.584738 
L 198.467632 46.906259 
L 199.674674 47.279298 
L 200.881715 46.647992 
L 203.295798 46.520775 
L 205.709881 47.232044 
L 206.916922 46.168069 
L 208.123963 45.965816 
L 210.538046 46.630227 
L 211.745088 46.703931 
L 212.952129 43.033013 
L 214.159171 42.734887 
L 215.366212 42.863586 
L 217.780295 43.532031 
L 220.194378 43.867572 
L 221.401419 43.684157 
L 223.815502 42.844849 
L 226.229585 43.435431 
L 227.436626 43.52869 
L 228.643668 42.460661 
L 229.850709 42.763814 
L 232.264792 43.07766 
L 234.678875 43.506678 
L 235.885916 42.943648 
L 237.092957 43.180501 
L 238.299999 43.130946 
L 239.50704 42.947785 
L 243.128164 43.724199 
L 244.335206 43.042113 
L 249.163372 43.485835 
L 250.370413 41.607255 
L 251.577454 39.509109 
L 252.784496 39.401434 
L 253.991537 38.64171 
L 255.198579 38.322328 
L 256.40562 38.41744 
L 257.612661 38.739015 
L 258.819703 38.52269 
L 264.85491 39.787222 
L 266.061951 37.892138 
L 272.097158 39.312098 
L 275.718283 39.952232 
L 278.132365 39.776555 
L 279.339407 40.055178 
L 281.75349 40.320411 
L 282.960531 40.243438 
L 285.374614 39.615719 
L 288.995738 40.22377 
L 290.20278 39.21205 
L 291.409821 39.46225 
L 292.616862 39.560085 
L 293.823904 39.822003 
L 295.030945 39.82593 
L 296.237987 39.111495 
L 297.445028 39.211488 
L 299.859111 39.632068 
L 301.066152 39.581762 
L 302.273194 39.767863 
L 303.480235 38.700603 
L 305.894318 39.037165 
L 307.101359 38.99732 
L 308.308401 39.247238 
L 309.515442 38.890879 
L 310.722484 38.847227 
L 311.929525 39.105146 
L 313.136566 35.926011 
L 316.757691 36.442134 
L 317.964732 35.817796 
L 319.171773 35.757148 
L 320.378815 36.015514 
L 321.585856 36.130874 
L 323.999939 36.541313 
L 325.206981 35.805985 
L 326.414022 35.815731 
L 327.621063 35.3372 
L 330.035146 35.849454 
L 331.242188 35.872337 
L 332.449229 36.111103 
L 333.65627 36.234429 
L 334.863312 35.631789 
L 336.070353 35.553601 
L 339.691478 35.980669 
L 340.898519 35.852627 
L 343.312602 36.108928 
L 346.933726 36.707326 
L 348.140767 36.835633 
L 350.55485 36.559812 
L 352.968933 36.93996 
L 354.175974 36.881827 
L 355.383016 37.000867 
L 356.590057 36.989802 
L 359.00414 37.363843 
L 360.211182 36.855298 
L 361.418223 36.900867 
L 362.625264 37.122165 
L 365.039347 37.398304 
L 366.246389 37.271408 
L 367.45343 36.881614 
L 368.660471 34.986607 
L 369.867513 35.105283 
L 371.074554 35.035707 
L 372.281596 35.197324 
L 373.488637 34.329318 
L 378.316803 35.060443 
L 379.523844 35.131431 
L 380.730886 34.994219 
L 383.144968 34.984853 
L 384.35201 35.1947 
L 385.559051 35.288005 
L 386.766093 35.501814 
L 389.180175 35.698191 
L 390.387217 35.3015 
L 395.215383 36.049379 
L 398.836507 34.856385 
L 401.25059 35.080873 
L 402.457631 34.819896 
L 403.664672 35.006338 
L 406.078755 34.988559 
L 409.699879 35.501066 
L 410.906921 35.396289 
L 413.321004 35.771993 
L 414.528045 34.733711 
L 422.977335 35.972744 
L 424.184376 35.059293 
L 425.391418 34.879286 
L 426.598459 35.056769 
L 429.012542 35.005291 
L 430.219583 34.536789 
L 433.840708 34.82011 
L 435.047749 35.008965 
L 436.254791 34.723933 
L 437.461832 34.781199 
L 438.668873 33.850421 
L 439.875915 33.871969 
L 441.082956 33.418754 
L 445.911122 33.486293 
L 447.118163 33.674892 
L 448.325205 33.719509 
L 451.946329 34.254569 
L 453.15337 34.118138 
L 454.360412 34.181025 
L 459.188577 34.856787 
L 460.395619 34.70593 
L 462.809702 34.935166 
L 465.223784 35.139424 
L 466.430826 35.283485 
L 467.637867 34.288623 
L 471.258992 34.695409 
L 472.466033 34.250982 
L 473.673074 34.2797 
L 476.087157 33.553682 
L 478.50124 33.794221 
L 479.708281 33.715907 
L 482.122364 34.00889 
L 483.329406 33.931401 
L 489.364613 34.664559 
L 491.778696 34.631036 
L 492.985737 34.140284 
L 494.192778 34.298845 
L 495.39982 34.12547 
L 497.813903 34.316937 
L 503.84911 35.032626 
L 505.056151 35.037549 
L 508.677275 35.321757 
L 509.884317 35.256777 
L 511.091358 34.992777 
L 514.712482 35.426905 
L 515.919524 35.213333 
L 515.919524 35.213333 
" clip-path="url(#p7aa9ec10c8)" style="fill: none; stroke-dasharray: 5.55,2.4; stroke-dashoffset: 0; stroke: #4169e1; stroke-width: 1.5"/>
   </g>
   <g id="line2d_29">
    <path d="M 34.31 53.073022 
L 35.517041 45.339625 
L 36.724083 44.998851 
L 37.931124 40.951661 
L 39.138166 38.169298 
L 40.345207 36.979213 
L 41.552248 37.203612 
L 42.75929 37.709777 
L 43.966331 37.095028 
L 45.173373 34.273005 
L 46.380414 34.881046 
L 47.587456 33.346391 
L 48.794497 32.632167 
L 50.001538 29.092952 
L 51.20858 28.721163 
L 52.415621 30.085377 
L 54.829704 30.600205 
L 56.036745 31.308322 
L 58.450828 32.202994 
L 59.65787 32.205979 
L 60.864911 31.946044 
L 62.071953 31.564633 
L 63.278994 31.946117 
L 64.486035 31.921266 
L 65.693077 32.014183 
L 66.900118 31.479686 
L 68.10716 31.400155 
L 69.314201 31.555521 
L 70.521242 31.282951 
L 72.935325 32.118846 
L 75.349408 31.932272 
L 76.556449 32.050253 
L 78.970532 31.852515 
L 80.177574 32.026951 
L 81.384615 32.07344 
L 82.591657 32.25266 
L 83.798698 32.169806 
L 85.005739 32.325879 
L 86.212781 32.271428 
L 87.419822 32.524213 
L 89.833905 33.435042 
L 91.040946 32.998813 
L 92.247988 33.106158 
L 93.455029 32.824335 
L 94.662071 32.903687 
L 95.869112 32.843915 
L 97.076153 33.16087 
L 99.490236 32.951825 
L 100.697278 33.555482 
L 101.904319 33.417498 
L 103.111361 33.650418 
L 104.318402 33.374655 
L 107.939526 33.558446 
L 110.353609 33.77487 
L 111.56065 34.260373 
L 112.767692 34.116352 
L 113.974733 34.251411 
L 115.181775 33.947379 
L 117.595858 33.764295 
L 118.802899 33.837055 
L 121.216982 33.801393 
L 122.424023 33.485805 
L 124.838106 33.541113 
L 127.252189 33.310693 
L 129.666272 32.740779 
L 130.873313 32.96707 
L 133.287396 33.133836 
L 136.90852 33.662073 
L 138.115562 33.271597 
L 139.322603 33.49957 
L 141.736686 33.434206 
L 150.185976 33.960626 
L 155.014141 34.588336 
L 156.221183 34.514696 
L 157.428224 34.661328 
L 161.049348 34.30078 
L 163.463431 34.64349 
L 164.670473 34.406751 
L 165.877514 34.296859 
L 175.533845 34.692718 
L 177.947928 34.549914 
L 179.15497 34.414879 
L 180.362011 34.4863 
L 181.569052 34.306886 
L 183.983135 34.307833 
L 185.190177 34.386748 
L 186.397218 34.163091 
L 188.811301 34.404896 
L 190.018342 34.518752 
L 191.225384 34.459559 
L 193.639467 34.685806 
L 197.260591 35.10173 
L 199.674674 34.944221 
L 200.881715 35.109918 
L 202.088756 34.997159 
L 203.295798 35.138824 
L 205.709881 35.137532 
L 206.916922 35.301215 
L 208.123963 35.17076 
L 211.745088 35.225253 
L 212.952129 34.922963 
L 214.159171 34.800642 
L 216.573253 34.882907 
L 217.780295 34.855791 
L 221.401419 35.060004 
L 222.60846 34.966247 
L 225.022543 35.116672 
L 227.436626 35.023305 
L 228.643668 34.855592 
L 231.05775 34.914254 
L 233.471833 34.921224 
L 238.299999 35.109401 
L 240.714082 35.232939 
L 243.128164 35.341715 
L 244.335206 35.221177 
L 247.95633 35.276707 
L 250.370413 35.042076 
L 251.577454 34.868537 
L 252.784496 34.975081 
L 255.198579 34.717922 
L 260.026744 34.953573 
L 263.647868 34.856306 
L 264.85491 34.901668 
L 267.268993 34.733502 
L 281.75349 34.731143 
L 286.581655 34.556235 
L 288.995738 34.50409 
L 290.20278 34.3699 
L 295.030945 34.428751 
L 297.445028 34.603442 
L 302.273194 34.508876 
L 303.480235 34.353367 
L 308.308401 34.276646 
L 311.929525 34.430881 
L 313.136566 34.221607 
L 316.757691 34.287327 
L 317.964732 34.159712 
L 320.378815 34.227012 
L 330.035146 34.431391 
L 332.449229 34.360382 
L 333.65627 34.324231 
L 336.070353 34.498456 
L 346.933726 34.603644 
L 349.347809 34.619292 
L 351.761892 34.727733 
L 355.383016 34.824912 
L 359.00414 34.911559 
L 362.625264 34.802947 
L 367.45343 34.798658 
L 368.660471 34.626525 
L 384.35201 34.497649 
L 392.8013 34.731145 
L 396.422424 34.816923 
L 398.836507 34.977747 
L 401.25059 34.90603 
L 403.664672 34.803816 
L 408.492838 34.915624 
L 410.906921 34.939311 
L 413.321004 34.945768 
L 414.528045 34.809764 
L 427.805501 34.762511 
L 431.426625 34.883899 
L 437.461832 34.899933 
L 438.668873 34.805882 
L 445.911122 34.972685 
L 473.673074 34.990096 
L 474.880116 35.066756 
L 477.294199 35.004303 
L 480.915323 35.06558 
L 509.884317 35.077488 
L 512.2984 35.147907 
L 515.919524 35.213333 
L 515.919524 35.213333 
" clip-path="url(#p7aa9ec10c8)" style="fill: none; stroke: #ff8c00; stroke-width: 1.5; stroke-linecap: square"/>
   </g>
   <g id="line2d_30">
    <path d="M 34.31 98.44 
L 35.517041 80.360637 
L 36.724083 86.316881 
L 37.931124 74.492718 
L 39.138166 69.921003 
L 40.345207 72.533407 
L 41.552248 76.143014 
L 42.75929 78.38798 
L 43.966331 79.702021 
L 45.173373 59.908446 
L 46.380414 62.293657 
L 47.587456 57.474141 
L 48.794497 58.774847 
L 50.001538 12.381475 
L 51.20858 17.533699 
L 52.415621 14.151188 
L 53.622663 18.812501 
L 54.829704 22.869632 
L 56.036745 24.11852 
L 57.243787 26.69054 
L 58.450828 28.891682 
L 59.65787 32.052913 
L 60.864911 34.48995 
L 62.071953 36.143055 
L 63.278994 37.579074 
L 65.693077 42.014938 
L 66.900118 41.698296 
L 68.10716 43.601367 
L 69.314201 45.217703 
L 70.521242 46.260769 
L 71.728284 46.325089 
L 72.935325 46.139922 
L 76.556449 50.164619 
L 77.763491 51.424987 
L 78.970532 52.461728 
L 80.177574 53.291119 
L 81.384615 54.39436 
L 82.591657 55.080247 
L 83.798698 56.027537 
L 85.005739 56.704599 
L 86.212781 57.614591 
L 87.419822 57.671864 
L 88.626864 56.041633 
L 89.833905 53.730075 
L 91.040946 51.957767 
L 92.247988 52.739178 
L 93.455029 52.47669 
L 95.869112 54.09608 
L 97.076153 53.353549 
L 98.283195 54.137969 
L 99.490236 54.561848 
L 100.697278 49.286591 
L 101.904319 49.826608 
L 103.111361 49.729941 
L 104.318402 49.222195 
L 109.146568 51.938202 
L 110.353609 52.243519 
L 111.56065 48.393785 
L 113.974733 49.122266 
L 115.181775 47.975312 
L 121.216982 50.884268 
L 122.424023 49.329023 
L 124.838106 50.576318 
L 126.045147 50.781387 
L 127.252189 51.178888 
L 128.45923 49.445983 
L 129.666272 48.49952 
L 130.873313 47.877649 
L 132.080354 48.475183 
L 134.494437 48.652786 
L 135.701479 49.067446 
L 136.90852 47.336893 
L 138.115562 43.960322 
L 139.322603 43.212532 
L 145.35781 45.819268 
L 146.564851 45.891107 
L 147.771893 46.430528 
L 148.978934 46.077626 
L 150.185976 46.58341 
L 151.393017 46.177771 
L 152.600058 46.344624 
L 153.8071 45.885095 
L 155.014141 45.652982 
L 156.221183 46.004925 
L 158.635266 45.792266 
L 159.842307 45.803935 
L 161.049348 45.976036 
L 163.463431 45.065734 
L 164.670473 43.7256 
L 165.877514 43.825078 
L 167.084555 44.195235 
L 168.291597 43.994887 
L 169.498638 44.473277 
L 170.70568 44.112005 
L 171.912721 44.574172 
L 173.119763 44.675229 
L 176.740887 45.902523 
L 179.15497 45.541718 
L 180.362011 45.788726 
L 181.569052 45.029612 
L 183.983135 45.835496 
L 185.190177 46.017664 
L 186.397218 44.52507 
L 187.604259 44.731436 
L 188.811301 44.068643 
L 190.018342 43.98135 
L 191.225384 44.259366 
L 192.432425 44.368241 
L 193.639467 44.004027 
L 194.846508 43.223329 
L 196.053549 43.448871 
L 197.260591 42.577434 
L 198.467632 42.264982 
L 199.674674 42.645841 
L 200.881715 41.901861 
L 202.088756 41.771441 
L 203.295798 41.323984 
L 205.709881 42.044469 
L 206.916922 41.277894 
L 208.123963 40.931266 
L 210.538046 41.70378 
L 211.745088 41.95205 
L 212.952129 38.242763 
L 214.159171 37.970122 
L 215.366212 38.152515 
L 217.780295 38.899231 
L 218.987336 38.776681 
L 220.194378 39.161605 
L 222.60846 39.044462 
L 223.815502 38.797734 
L 226.229585 39.464126 
L 227.436626 39.565491 
L 228.643668 38.559907 
L 229.850709 38.910839 
L 231.05775 38.981826 
L 233.471833 39.441686 
L 234.678875 39.752525 
L 235.885916 39.211118 
L 237.092957 39.502381 
L 238.299999 39.662642 
L 239.50704 39.465092 
L 240.714082 39.785368 
L 241.921123 39.855845 
L 243.128164 40.121295 
L 244.335206 39.69028 
L 245.542247 39.89381 
L 249.163372 40.038234 
L 250.370413 39.034765 
L 251.577454 37.724234 
L 252.784496 37.436711 
L 253.991537 36.422509 
L 255.198579 36.199029 
L 256.40562 36.254878 
L 257.612661 36.537832 
L 258.819703 36.466871 
L 261.233786 36.824712 
L 263.647868 37.373315 
L 264.85491 37.572558 
L 266.061951 36.786404 
L 276.925324 39.053656 
L 278.132365 39.145812 
L 280.546448 39.66518 
L 281.75349 39.865896 
L 282.960531 39.908115 
L 284.167573 39.711083 
L 285.374614 39.82032 
L 288.995738 40.49423 
L 290.20278 39.612241 
L 291.409821 39.879646 
L 292.616862 40.022116 
L 295.030945 40.500399 
L 296.237987 39.688004 
L 297.445028 39.813844 
L 299.859111 40.320132 
L 302.273194 40.427925 
L 303.480235 39.056635 
L 308.308401 39.770186 
L 309.515442 39.552004 
L 310.722484 39.522513 
L 311.929525 39.774109 
L 313.136566 36.968666 
L 316.757691 37.468714 
L 317.964732 36.57012 
L 319.171773 36.37967 
L 322.792898 37.035017 
L 323.999939 37.257935 
L 325.206981 36.675813 
L 326.414022 36.665777 
L 327.621063 36.219405 
L 330.035146 36.708515 
L 331.242188 36.543869 
L 333.65627 36.942053 
L 334.863312 35.957661 
L 336.070353 36.044055 
L 339.691478 36.651569 
L 340.898519 36.468174 
L 343.312602 36.753125 
L 346.933726 37.365208 
L 348.140767 37.424398 
L 349.347809 37.346017 
L 350.55485 37.13187 
L 355.383016 37.620008 
L 356.590057 37.615178 
L 359.00414 37.988841 
L 360.211182 37.811205 
L 361.418223 37.751161 
L 365.039347 38.340385 
L 366.246389 38.162658 
L 367.45343 37.509221 
L 368.660471 35.247259 
L 371.074554 35.626197 
L 372.281596 35.736213 
L 373.488637 35.429805 
L 378.316803 36.231355 
L 380.730886 36.023203 
L 383.144968 35.853009 
L 384.35201 36.067881 
L 385.559051 36.098258 
L 387.973134 36.459434 
L 389.180175 36.37802 
L 390.387217 35.919289 
L 395.215383 36.700236 
L 396.422424 36.421767 
L 397.629465 35.859325 
L 398.836507 35.631635 
L 400.043548 35.805915 
L 401.25059 35.753796 
L 402.457631 35.013964 
L 403.664672 35.220472 
L 406.078755 35.16427 
L 408.492838 35.563837 
L 409.699879 35.58686 
L 410.906921 35.360982 
L 413.321004 35.752373 
L 414.528045 34.189345 
L 420.563252 35.057267 
L 421.770294 35.12376 
L 422.977335 35.312986 
L 424.184376 34.365736 
L 425.391418 34.17401 
L 426.598459 34.367911 
L 427.805501 34.423027 
L 429.012542 34.16124 
L 430.219583 33.757821 
L 435.047749 34.336198 
L 436.254791 33.967962 
L 437.461832 34.026514 
L 438.668873 33.322414 
L 439.875915 33.318351 
L 441.082956 32.870944 
L 445.911122 32.985527 
L 449.532246 33.453891 
L 451.946329 33.803689 
L 453.15337 33.5225 
L 455.567453 33.787592 
L 459.188577 34.326124 
L 460.395619 34.196443 
L 462.809702 34.525701 
L 464.016743 34.569293 
L 465.223784 34.735547 
L 466.430826 34.726388 
L 467.637867 34.067276 
L 471.258992 34.492467 
L 472.466033 34.166117 
L 473.673074 34.185169 
L 476.087157 33.306885 
L 477.294199 33.472653 
L 479.708281 33.338871 
L 480.915323 33.401056 
L 482.122364 33.575627 
L 483.329406 33.516888 
L 488.157571 34.091219 
L 490.571654 34.33701 
L 491.778696 34.401142 
L 492.985737 34.124007 
L 494.192778 34.288208 
L 497.813903 34.463905 
L 499.020944 34.629464 
L 500.227985 34.66779 
L 503.84911 35.116672 
L 505.056151 35.104088 
L 507.470234 35.384165 
L 509.884317 35.430383 
L 511.091358 35.012478 
L 514.712482 35.468408 
L 515.919524 35.213333 
L 515.919524 35.213333 
" clip-path="url(#p7aa9ec10c8)" style="fill: none; stroke-dasharray: 5.55,2.4; stroke-dashoffset: 0; stroke: #ff8c00; stroke-width: 1.5"/>
   </g>
   <g id="patch_3">
    <path d="M 34.31 98.44 
L 34.31 3.6 
" style="fill: none; stroke: #000000; stroke-width: 0.8; stroke-linejoin: miter; stroke-linecap: square"/>
   </g>
   <g id="patch_4">
    <path d="M 540 98.44 
L 540 3.6 
" style="fill: none; stroke: #000000; stroke-width: 0.8; stroke-linejoin: miter; stroke-linecap: square"/>
   </g>
   <g id="patch_5">
    <path d="M 34.31 98.44 
L 540 98.44 
" style="fill: none; stroke: #000000; stroke-width: 0.8; stroke-linejoin: miter; stroke-linecap: square"/>
   </g>
   <g id="patch_6">
    <path d="M 34.31 3.6 
L 540 3.6 
" style="fill: none; stroke: #000000; stroke-width: 0.8; stroke-linejoin: miter; stroke-linecap: square"/>
   </g>
  </g>
 </g>
 <defs>
  <clipPath id="p7aa9ec10c8">
   <rect x="34.31" y="3.6" width="505.69" height="94.84"/>
  </clipPath>
 </defs>
</svg>
