<?xml version="1.0" encoding="utf-8" standalone="no"?>
<!DOCTYPE svg PUBLIC "-//W3C//DTD SVG 1.1//EN"
  "http://www.w3.org/Graphics/SVG/1.1/DTD/svg11.dtd">
<svg xmlns:xlink="http://www.w3.org/1999/xlink" width="540pt" height="129.6pt" viewBox="0 0 540 129.6" xmlns="http://www.w3.org/2000/svg" version="1.1">
 <metadata>
  <rdf:RDF xmlns:dc="http://purl.org/dc/elements/1.1/" xmlns:cc="http://creativecommons.org/ns#" xmlns:rdf="http://www.w3.org/1999/02/22-rdf-syntax-ns#">
   <cc:Work>
    <dc:type rdf:resource="http://purl.org/dc/dcmitype/StillImage"/>
    <dc:date>2025-04-07T03:08:25.751544</dc:date>
    <dc:format>image/svg+xml</dc:format>
    <dc:creator>
     <cc:Agent>
      <dc:title>Matplotlib v3.10.1, https://matplotlib.org/</dc:title>
     </cc:Agent>
    </dc:creator>
   </cc:Work>
  </rdf:RDF>
 </metadata>
 <defs>
  <style type="text/css">*{stroke-linejoin: round; stroke-linecap: butt}</style>
 </defs>
 <g id="figure_1">
  <g id="patch_1">
   <path d="M 0 129.6 
L 540 129.6 
L 540 0 
L 0 0 
z
" style="fill: #ffffff"/>
  </g>
  <g id="axes_1">
   <g id="patch_2">
    <path d="M 34.31 98.44 
L 540 98.44 
L 540 3.6 
L 34.31 3.6 
z
" style="fill: #ffffff"/>
   </g>
   <g id="matplotlib.axis_1">
    <g id="xtick_1">
     <g id="line2d_1">
      <path d="M 34.31 98.44 
L 34.31 3.6 
" clip-path="url(#pfeb575ae1d)" style="fill: none; stroke: #b0b0b0; stroke-width: 0.8; stroke-linecap: square"/>
     </g>
     <g id="line2d_2">
      <defs>
       <path id="m58e6607105" d="M 0 0 
L 0 3.5 
" style="stroke: #000000; stroke-width: 0.8"/>
      </defs>
      <g>
       <use xlink:href="#m58e6607105" x="34.31" y="98.44" style="stroke: #000000; stroke-width: 0.8"/>
      </g>
     </g>
     <g id="text_1">
      <text style="font-size: 10px; font-family: 'Times New Roman'; text-anchor: middle" x="34.31" y="112.38375" transform="rotate(-0 34.31 112.38375)">0</text>
     </g>
    </g>
    <g id="xtick_2">
     <g id="line2d_3">
      <path d="M 94.662071 98.44 
L 94.662071 3.6 
" clip-path="url(#pfeb575ae1d)" style="fill: none; stroke: #b0b0b0; stroke-width: 0.8; stroke-linecap: square"/>
     </g>
     <g id="line2d_4">
      <g>
       <use xlink:href="#m58e6607105" x="94.662071" y="98.44" style="stroke: #000000; stroke-width: 0.8"/>
      </g>
     </g>
     <g id="text_2">
      <text style="font-size: 10px; font-family: 'Times New Roman'; text-anchor: middle" x="94.662071" y="112.38375" transform="rotate(-0 94.662071 112.38375)">50</text>
     </g>
    </g>
    <g id="xtick_3">
     <g id="line2d_5">
      <path d="M 155.014141 98.44 
L 155.014141 3.6 
" clip-path="url(#pfeb575ae1d)" style="fill: none; stroke: #b0b0b0; stroke-width: 0.8; stroke-linecap: square"/>
     </g>
     <g id="line2d_6">
      <g>
       <use xlink:href="#m58e6607105" x="155.014141" y="98.44" style="stroke: #000000; stroke-width: 0.8"/>
      </g>
     </g>
     <g id="text_3">
      <text style="font-size: 10px; font-family: 'Times New Roman'; text-anchor: middle" x="155.014141" y="112.38375" transform="rotate(-0 155.014141 112.38375)">100</text>
     </g>
    </g>
    <g id="xtick_4">
     <g id="line2d_7">
      <path d="M 215.366212 98.44 
L 215.366212 3.6 
" clip-path="url(#pfeb575ae1d)" style="fill: none; stroke: #b0b0b0; stroke-width: 0.8; stroke-linecap: square"/>
     </g>
     <g id="line2d_8">
      <g>
       <use xlink:href="#m58e6607105" x="215.366212" y="98.44" style="stroke: #000000; stroke-width: 0.8"/>
      </g>
     </g>
     <g id="text_4">
      <text style="font-size: 10px; font-family: 'Times New Roman'; text-anchor: middle" x="215.366212" y="112.38375" transform="rotate(-0 215.366212 112.38375)">150</text>
     </g>
    </g>
    <g id="xtick_5">
     <g id="line2d_9">
      <path d="M 275.718283 98.44 
L 275.718283 3.6 
" clip-path="url(#pfeb575ae1d)" style="fill: none; stroke: #b0b0b0; stroke-width: 0.8; stroke-linecap: square"/>
     </g>
     <g id="line2d_10">
      <g>
       <use xlink:href="#m58e6607105" x="275.718283" y="98.44" style="stroke: #000000; stroke-width: 0.8"/>
      </g>
     </g>
     <g id="text_5">
      <text style="font-size: 10px; font-family: 'Times New Roman'; text-anchor: middle" x="275.718283" y="112.38375" transform="rotate(-0 275.718283 112.38375)">200</text>
     </g>
    </g>
    <g id="xtick_6">
     <g id="line2d_11">
      <path d="M 336.070353 98.44 
L 336.070353 3.6 
" clip-path="url(#pfeb575ae1d)" style="fill: none; stroke: #b0b0b0; stroke-width: 0.8; stroke-linecap: square"/>
     </g>
     <g id="line2d_12">
      <g>
       <use xlink:href="#m58e6607105" x="336.070353" y="98.44" style="stroke: #000000; stroke-width: 0.8"/>
      </g>
     </g>
     <g id="text_6">
      <text style="font-size: 10px; font-family: 'Times New Roman'; text-anchor: middle" x="336.070353" y="112.38375" transform="rotate(-0 336.070353 112.38375)">250</text>
     </g>
    </g>
    <g id="xtick_7">
     <g id="line2d_13">
      <path d="M 396.422424 98.44 
L 396.422424 3.6 
" clip-path="url(#pfeb575ae1d)" style="fill: none; stroke: #b0b0b0; stroke-width: 0.8; stroke-linecap: square"/>
     </g>
     <g id="line2d_14">
      <g>
       <use xlink:href="#m58e6607105" x="396.422424" y="98.44" style="stroke: #000000; stroke-width: 0.8"/>
      </g>
     </g>
     <g id="text_7">
      <text style="font-size: 10px; font-family: 'Times New Roman'; text-anchor: middle" x="396.422424" y="112.38375" transform="rotate(-0 396.422424 112.38375)">300</text>
     </g>
    </g>
    <g id="xtick_8">
     <g id="line2d_15">
      <path d="M 456.774495 98.44 
L 456.774495 3.6 
" clip-path="url(#pfeb575ae1d)" style="fill: none; stroke: #b0b0b0; stroke-width: 0.8; stroke-linecap: square"/>
     </g>
     <g id="line2d_16">
      <g>
       <use xlink:href="#m58e6607105" x="456.774495" y="98.44" style="stroke: #000000; stroke-width: 0.8"/>
      </g>
     </g>
     <g id="text_8">
      <text style="font-size: 10px; font-family: 'Times New Roman'; text-anchor: middle" x="456.774495" y="112.38375" transform="rotate(-0 456.774495 112.38375)">350</text>
     </g>
    </g>
    <g id="xtick_9">
     <g id="line2d_17">
      <path d="M 517.126565 98.44 
L 517.126565 3.6 
" clip-path="url(#pfeb575ae1d)" style="fill: none; stroke: #b0b0b0; stroke-width: 0.8; stroke-linecap: square"/>
     </g>
     <g id="line2d_18">
      <g>
       <use xlink:href="#m58e6607105" x="517.126565" y="98.44" style="stroke: #000000; stroke-width: 0.8"/>
      </g>
     </g>
     <g id="text_9">
      <text style="font-size: 10px; font-family: 'Times New Roman'; text-anchor: middle" x="517.126565" y="112.38375" transform="rotate(-0 517.126565 112.38375)">400</text>
     </g>
    </g>
    <g id="text_10">
     <text style="font-size: 12px; font-family: 'Times New Roman'; text-anchor: middle" x="287.155" y="126.855312" transform="rotate(-0 287.155 126.855312)">Simulation Run</text>
    </g>
   </g>
   <g id="matplotlib.axis_2">
    <g id="ytick_1">
     <g id="line2d_19">
      <path d="M 34.31 98.44 
L 540 98.44 
" clip-path="url(#pfeb575ae1d)" style="fill: none; stroke: #b0b0b0; stroke-width: 0.8; stroke-linecap: square"/>
     </g>
     <g id="line2d_20">
      <defs>
       <path id="m724f1409c5" d="M 0 0 
L -3.5 0 
" style="stroke: #000000; stroke-width: 0.8"/>
      </defs>
      <g>
       <use xlink:href="#m724f1409c5" x="34.31" y="98.44" style="stroke: #000000; stroke-width: 0.8"/>
      </g>
     </g>
     <g id="text_11">
      <text style="font-size: 10px; font-family: 'Times New Roman'; text-anchor: end" x="27.31" y="101.911875" transform="rotate(-0 27.31 101.911875)">0.0</text>
     </g>
    </g>
    <g id="ytick_2">
     <g id="line2d_21">
      <path d="M 34.31 66.826667 
L 540 66.826667 
" clip-path="url(#pfeb575ae1d)" style="fill: none; stroke: #b0b0b0; stroke-width: 0.8; stroke-linecap: square"/>
     </g>
     <g id="line2d_22">
      <g>
       <use xlink:href="#m724f1409c5" x="34.31" y="66.826667" style="stroke: #000000; stroke-width: 0.8"/>
      </g>
     </g>
     <g id="text_12">
      <text style="font-size: 10px; font-family: 'Times New Roman'; text-anchor: end" x="27.31" y="70.298542" transform="rotate(-0 27.31 70.298542)">0.5</text>
     </g>
    </g>
    <g id="ytick_3">
     <g id="line2d_23">
      <path d="M 34.31 35.213333 
L 540 35.213333 
" clip-path="url(#pfeb575ae1d)" style="fill: none; stroke: #b0b0b0; stroke-width: 0.8; stroke-linecap: square"/>
     </g>
     <g id="line2d_24">
      <g>
       <use xlink:href="#m724f1409c5" x="34.31" y="35.213333" style="stroke: #000000; stroke-width: 0.8"/>
      </g>
     </g>
     <g id="text_13">
      <text style="font-size: 10px; font-family: 'Times New Roman'; text-anchor: end" x="27.31" y="38.685208" transform="rotate(-0 27.31 38.685208)">1.0</text>
     </g>
    </g>
    <g id="ytick_4">
     <g id="line2d_25">
      <path d="M 34.31 3.6 
L 540 3.6 
" clip-path="url(#pfeb575ae1d)" style="fill: none; stroke: #b0b0b0; stroke-width: 0.8; stroke-linecap: square"/>
     </g>
     <g id="line2d_26">
      <g>
       <use xlink:href="#m724f1409c5" x="34.31" y="3.6" style="stroke: #000000; stroke-width: 0.8"/>
      </g>
     </g>
     <g id="text_14">
      <text style="font-size: 10px; font-family: 'Times New Roman'; text-anchor: end" x="27.31" y="7.071875" transform="rotate(-0 27.31 7.071875)">1.5</text>
     </g>
    </g>
    <g id="text_15">
     <text style="font-size: 12px; font-family: 'Times New Roman'; text-anchor: middle" x="8.243125" y="51.02" transform="rotate(-90 8.243125 51.02)">Normalized Value</text>
    </g>
   </g>
   <g id="line2d_27">
    <path d="M 34.31 47.664887 
L 35.517041 31.295606 
L 36.724083 40.760545 
L 37.931124 35.01463 
L 39.138166 30.98689 
L 40.345207 36.330297 
L 41.552248 38.25396 
L 42.75929 39.745246 
L 43.966331 39.646606 
L 45.173373 37.588391 
L 46.380414 37.669759 
L 47.587456 37.484053 
L 48.794497 38.25144 
L 50.001538 36.808162 
L 51.20858 37.467448 
L 52.415621 37.598537 
L 53.622663 38.17858 
L 54.829704 38.446163 
L 56.036745 38.47157 
L 57.243787 38.830814 
L 58.450828 37.59086 
L 59.65787 36.743336 
L 60.864911 36.447662 
L 63.278994 35.689388 
L 64.486035 36.565553 
L 65.693077 37.005165 
L 66.900118 37.259002 
L 68.10716 36.551382 
L 69.314201 36.76619 
L 70.521242 37.199083 
L 71.728284 36.806148 
L 72.935325 35.76323 
L 74.142367 35.551992 
L 75.349408 34.913288 
L 76.556449 34.500163 
L 77.763491 34.950444 
L 78.970532 35.094477 
L 81.384615 36.023434 
L 82.591657 35.92732 
L 83.798698 36.088234 
L 85.005739 35.230939 
L 87.419822 35.656891 
L 88.626864 35.540821 
L 91.040946 36.383812 
L 93.455029 36.185705 
L 95.869112 36.98873 
L 97.076153 37.002075 
L 98.283195 37.146896 
L 99.490236 36.513823 
L 100.697278 36.421805 
L 103.111361 36.693459 
L 104.318402 36.971335 
L 105.525443 36.250635 
L 106.732485 36.55446 
L 107.939526 36.060566 
L 109.146568 36.021024 
L 111.56065 36.780237 
L 112.767692 36.856865 
L 113.974733 36.805756 
L 115.181775 37.206107 
L 116.388816 36.962126 
L 118.802899 36.997518 
L 120.00994 37.245346 
L 123.631065 37.080041 
L 124.838106 36.408369 
L 126.045147 36.208531 
L 129.666272 36.518091 
L 130.873313 36.9055 
L 134.494437 36.831408 
L 135.701479 36.942121 
L 136.90852 36.940475 
L 140.529644 36.625142 
L 141.736686 36.351185 
L 144.150769 36.544168 
L 145.35781 36.332618 
L 146.564851 36.351348 
L 147.771893 36.154387 
L 148.978934 36.091086 
L 150.185976 35.910376 
L 152.600058 36.152389 
L 155.014141 36.573168 
L 156.221183 36.451743 
L 157.428224 36.196303 
L 159.842307 36.47055 
L 161.049348 36.249578 
L 164.670473 36.332903 
L 167.084555 36.159469 
L 169.498638 36.217645 
L 170.70568 36.083106 
L 176.740887 36.689525 
L 179.15497 37.044036 
L 180.362011 36.986788 
L 185.190177 37.262452 
L 188.811301 37.060515 
L 193.639467 37.551377 
L 194.846508 37.24169 
L 198.467632 36.873106 
L 199.674674 36.705206 
L 204.502839 37.017063 
L 212.952129 37.376496 
L 215.366212 37.518204 
L 216.573253 37.543714 
L 217.780295 37.693048 
L 218.987336 37.662826 
L 220.194378 37.423909 
L 221.401419 37.474237 
L 223.815502 37.229384 
L 225.022543 37.097342 
L 231.05775 37.155689 
L 234.678875 37.033362 
L 235.885916 37.132054 
L 240.714082 37.111418 
L 241.921123 37.211263 
L 244.335206 36.879409 
L 250.370413 36.865209 
L 251.577454 36.53932 
L 252.784496 36.57017 
L 255.198579 36.315978 
L 256.40562 36.294126 
L 257.612661 36.064532 
L 260.026744 36.224008 
L 262.440827 36.012413 
L 267.268993 36.516611 
L 268.476034 36.547251 
L 270.890117 36.336008 
L 285.374614 36.898191 
L 287.788697 36.8647 
L 290.20278 36.763812 
L 293.823904 36.598644 
L 299.859111 36.782205 
L 301.066152 36.70183 
L 302.273194 36.817918 
L 303.480235 36.673452 
L 304.687277 36.732024 
L 305.894318 36.493636 
L 313.136566 36.397727 
L 315.550649 36.302162 
L 317.964732 36.475437 
L 320.378815 36.527857 
L 323.999939 36.593422 
L 326.414022 36.487271 
L 327.621063 36.556423 
L 330.035146 36.318851 
L 331.242188 36.331001 
L 332.449229 36.226753 
L 333.65627 36.234208 
L 334.863312 36.066208 
L 338.484436 36.257427 
L 340.898519 36.182483 
L 343.312602 36.225482 
L 344.519643 36.259503 
L 348.140767 36.003767 
L 351.761892 35.983124 
L 354.175974 36.033929 
L 355.383016 35.929985 
L 356.590057 36.013549 
L 359.00414 35.94059 
L 360.211182 35.96307 
L 361.418223 35.827747 
L 363.832306 35.77817 
L 367.45343 35.653039 
L 369.867513 35.737492 
L 373.488637 35.769403 
L 378.316803 35.829824 
L 380.730886 35.641996 
L 381.937927 35.770646 
L 384.35201 35.67677 
L 386.766093 35.440503 
L 389.180175 35.433903 
L 412.113962 35.497867 
L 414.528045 35.661368 
L 418.149169 35.570491 
L 425.391418 35.649408 
L 427.805501 35.403438 
L 431.426625 35.468774 
L 433.840708 35.425307 
L 436.254791 35.456135 
L 438.668873 35.415232 
L 441.082956 35.461086 
L 450.739288 35.373289 
L 455.567453 35.393645 
L 460.395619 35.419715 
L 462.809702 35.2772 
L 467.637867 35.314736 
L 468.844909 35.103121 
L 473.673074 35.091931 
L 476.087157 35.120056 
L 477.294199 35.20349 
L 478.50124 35.124381 
L 480.915323 35.185481 
L 483.329406 35.169831 
L 484.536447 35.200603 
L 485.743488 35.106719 
L 489.364613 35.188186 
L 495.39982 35.245904 
L 499.020944 35.351386 
L 500.227985 35.402718 
L 501.435027 35.262266 
L 505.056151 35.421246 
L 507.470234 35.275704 
L 509.884317 35.286642 
L 515.919524 35.213333 
L 515.919524 35.213333 
" clip-path="url(#pfeb575ae1d)" style="fill: none; stroke: #4169e1; stroke-width: 1.5; stroke-linecap: square"/>
   </g>
   <g id="line2d_28">
    <path d="M 34.31 98.44 
L 35.517041 46.4243 
L 36.724083 28.981962 
L 37.931124 27.119318 
L 39.138166 28.78672 
L 40.345207 12.682712 
L 41.552248 20.623685 
L 42.75929 27.328716 
L 43.966331 35.21486 
L 45.173373 34.136224 
L 46.380414 39.96917 
L 47.587456 44.768098 
L 48.794497 47.524923 
L 50.001538 45.904952 
L 51.20858 48.226013 
L 52.415621 51.31435 
L 53.622663 53.041447 
L 56.036745 57.594136 
L 57.243787 59.160427 
L 58.450828 55.061678 
L 59.65787 54.105239 
L 60.864911 55.659479 
L 62.071953 56.585759 
L 63.278994 57.781805 
L 64.486035 55.62006 
L 65.693077 56.230575 
L 66.900118 57.40034 
L 68.10716 56.093848 
L 69.314201 57.245626 
L 70.521242 57.483143 
L 71.728284 57.833912 
L 72.935325 52.307842 
L 74.142367 53.378823 
L 75.349408 51.973797 
L 76.556449 52.10493 
L 77.763491 51.940307 
L 78.970532 53.014978 
L 80.177574 52.837178 
L 81.384615 52.066777 
L 82.591657 53.1261 
L 83.798698 53.998917 
L 85.005739 49.040246 
L 86.212781 49.833397 
L 87.419822 50.472443 
L 88.626864 51.397529 
L 89.833905 50.358862 
L 91.040946 50.144555 
L 93.455029 51.890267 
L 94.662071 51.644759 
L 95.869112 50.47176 
L 97.076153 51.375024 
L 98.283195 52.030816 
L 99.490236 48.673386 
L 101.904319 50.248088 
L 103.111361 50.702557 
L 104.318402 50.642292 
L 105.525443 45.49002 
L 106.732485 45.282886 
L 107.939526 43.251747 
L 109.146568 44.108934 
L 110.353609 42.869066 
L 111.56065 42.237209 
L 113.974733 43.808454 
L 115.181775 42.527221 
L 116.388816 42.551781 
L 118.802899 44.083097 
L 120.00994 43.991539 
L 123.631065 46.020968 
L 124.838106 40.142423 
L 126.045147 40.310361 
L 128.45923 41.449873 
L 129.666272 42.003804 
L 130.873313 40.369747 
L 132.080354 41.063146 
L 133.287396 41.524473 
L 136.90852 43.219592 
L 138.115562 43.628811 
L 139.322603 44.163077 
L 140.529644 44.49876 
L 141.736686 43.80144 
L 142.943727 44.045942 
L 144.150769 44.592574 
L 145.35781 44.372322 
L 146.564851 44.941176 
L 147.771893 44.796431 
L 148.978934 45.281324 
L 150.185976 45.220776 
L 151.393017 45.64615 
L 152.600058 45.674228 
L 153.8071 45.118691 
L 155.014141 44.993901 
L 156.221183 45.228805 
L 157.428224 44.453448 
L 158.635266 44.713156 
L 159.842307 44.705765 
L 161.049348 44.217425 
L 164.670473 45.579782 
L 165.877514 45.636009 
L 169.498638 46.973158 
L 170.70568 47.027568 
L 171.912721 47.252747 
L 173.119763 47.051341 
L 175.533845 47.813819 
L 176.740887 46.933049 
L 177.947928 46.853061 
L 179.15497 46.290477 
L 183.983135 47.651917 
L 185.190177 47.738855 
L 186.397218 47.983343 
L 187.604259 48.026621 
L 188.811301 48.417184 
L 192.432425 48.17258 
L 193.639467 48.361705 
L 194.846508 46.259296 
L 196.053549 46.364981 
L 197.260591 46.724143 
L 198.467632 45.648879 
L 199.674674 45.281705 
L 202.088756 45.418868 
L 203.295798 45.307017 
L 205.709881 45.963082 
L 208.123963 46.346812 
L 211.745088 47.2926 
L 212.952129 47.290329 
L 214.159171 47.170178 
L 216.573253 47.818809 
L 217.780295 47.491647 
L 218.987336 47.795353 
L 220.194378 46.415656 
L 222.60846 46.863287 
L 223.815502 46.234763 
L 225.022543 46.028338 
L 226.229585 46.335713 
L 228.643668 46.753333 
L 232.264792 47.533989 
L 233.471833 47.701661 
L 234.678875 47.332697 
L 235.885916 47.321147 
L 237.092957 47.591441 
L 238.299999 47.671632 
L 239.50704 47.604972 
L 240.714082 47.895343 
L 241.921123 47.854652 
L 243.128164 46.863686 
L 244.335206 46.529101 
L 246.749289 47.111643 
L 247.95633 47.191635 
L 250.370413 47.695148 
L 251.577454 44.264541 
L 252.784496 44.528769 
L 253.991537 43.993437 
L 255.198579 43.927495 
L 256.40562 44.205101 
L 257.612661 42.603617 
L 261.233786 42.857468 
L 263.647868 42.052705 
L 264.85491 41.290213 
L 266.061951 41.28922 
L 267.268993 41.099691 
L 268.476034 41.358389 
L 269.683076 40.963021 
L 270.890117 41.031742 
L 273.3042 41.328068 
L 274.511241 40.940327 
L 275.718283 41.223891 
L 276.925324 41.136836 
L 278.132365 41.396572 
L 279.339407 41.319258 
L 281.75349 41.665649 
L 282.960531 41.556122 
L 284.167573 41.812177 
L 286.581655 42.073512 
L 288.995738 42.587217 
L 290.20278 42.505923 
L 293.823904 42.903465 
L 295.030945 43.054201 
L 298.652069 43.052768 
L 299.859111 43.207435 
L 301.066152 43.179082 
L 302.273194 42.846119 
L 303.480235 42.190843 
L 304.687277 42.291665 
L 305.894318 40.057969 
L 310.722484 41.033943 
L 314.343608 41.463361 
L 315.550649 41.532753 
L 316.757691 41.082648 
L 319.171773 41.414828 
L 320.378815 41.347911 
L 323.999939 41.919029 
L 325.206981 41.921363 
L 326.414022 42.09358 
L 327.621063 42.098933 
L 328.828105 41.221723 
L 330.035146 41.113253 
L 331.242188 41.338296 
L 332.449229 41.04746 
L 333.65627 41.275277 
L 334.863312 40.139696 
L 336.070353 40.150281 
L 337.277395 40.321915 
L 339.691478 40.079499 
L 342.10556 40.509721 
L 343.312602 40.52424 
L 344.519643 40.690979 
L 345.726685 40.242676 
L 346.933726 38.854678 
L 354.175974 39.871693 
L 355.383016 39.533143 
L 357.797099 39.25297 
L 360.211182 39.658143 
L 361.418223 38.910899 
L 362.625264 39.128205 
L 365.039347 39.269194 
L 366.246389 39.481172 
L 367.45343 39.452866 
L 368.660471 39.313036 
L 371.074554 39.651943 
L 373.488637 39.646101 
L 375.90272 39.938632 
L 378.316803 40.102825 
L 379.523844 39.418343 
L 380.730886 39.413411 
L 381.937927 38.692355 
L 383.144968 38.860786 
L 384.35201 38.805302 
L 385.559051 38.132116 
L 386.766093 37.631487 
L 390.387217 37.987886 
L 392.8013 37.664038 
L 395.215383 38.0281 
L 396.422424 38.136166 
L 397.629465 38.121059 
L 398.836507 38.291899 
L 404.871714 38.616738 
L 406.078755 38.769204 
L 407.285797 38.531065 
L 408.492838 38.722209 
L 409.699879 38.605954 
L 412.113962 38.981748 
L 414.528045 38.543236 
L 415.735087 38.504851 
L 418.149169 38.772622 
L 419.356211 38.910304 
L 420.563252 38.911116 
L 425.391418 39.605664 
L 427.805501 38.055942 
L 430.219583 38.266042 
L 431.426625 38.447008 
L 432.633666 38.513544 
L 433.840708 38.69396 
L 435.047749 38.590383 
L 438.668873 38.897742 
L 439.875915 38.812095 
L 443.497039 39.253303 
L 444.70408 39.035881 
L 447.118163 39.255476 
L 449.532246 39.481438 
L 453.15337 39.840886 
L 457.981536 40.426273 
L 459.188577 40.42129 
L 460.395619 40.560497 
L 461.60266 39.648105 
L 467.637867 40.311596 
L 468.844909 37.343145 
L 473.673074 37.77153 
L 474.880116 37.855093 
L 476.087157 37.74543 
L 478.50124 37.132749 
L 479.708281 36.965845 
L 483.329406 37.344727 
L 484.536447 37.439519 
L 485.743488 36.962264 
L 486.95053 36.951809 
L 490.571654 37.384904 
L 495.39982 37.502221 
L 497.813903 37.772683 
L 499.020944 37.43543 
L 500.227985 37.395624 
L 501.435027 36.070968 
L 502.642068 35.986756 
L 503.84911 35.726715 
L 505.056151 35.830243 
L 506.263193 34.969828 
L 507.470234 35.064612 
L 509.884317 34.911403 
L 512.2984 35.195461 
L 513.505441 34.974138 
L 515.919524 35.213333 
L 515.919524 35.213333 
" clip-path="url(#pfeb575ae1d)" style="fill: none; stroke-dasharray: 5.55,2.4; stroke-dashoffset: 0; stroke: #4169e1; stroke-width: 1.5"/>
   </g>
   <g id="line2d_29">
    <path d="M 34.31 41.243278 
L 35.517041 33.564939 
L 36.724083 39.56269 
L 37.931124 33.566717 
L 39.138166 32.0055 
L 40.345207 36.241271 
L 41.552248 38.176932 
L 42.75929 39.243905 
L 43.966331 39.317556 
L 45.173373 37.939532 
L 46.380414 37.757251 
L 47.587456 37.847829 
L 48.794497 38.195146 
L 50.001538 38.01513 
L 51.20858 38.489826 
L 53.622663 38.942199 
L 54.829704 38.781418 
L 56.036745 38.913695 
L 57.243787 39.159694 
L 58.450828 38.087878 
L 59.65787 37.196874 
L 63.278994 36.591308 
L 64.486035 37.343339 
L 65.693077 37.826641 
L 66.900118 38.166358 
L 68.10716 37.469075 
L 69.314201 37.50334 
L 70.521242 37.849826 
L 71.728284 37.321487 
L 72.935325 36.56743 
L 74.142367 36.54792 
L 76.556449 35.824746 
L 77.763491 36.192584 
L 78.970532 36.291602 
L 81.384615 37.113829 
L 82.591657 37.054137 
L 83.798698 37.164438 
L 85.005739 36.439864 
L 87.419822 36.797051 
L 88.626864 36.558527 
L 91.040946 37.092652 
L 93.455029 36.804233 
L 94.662071 36.953646 
L 95.869112 37.376993 
L 97.076153 37.337402 
L 98.283195 37.436499 
L 99.490236 36.878885 
L 100.697278 36.822095 
L 104.318402 37.273509 
L 105.525443 36.73573 
L 106.732485 36.985644 
L 107.939526 36.633389 
L 109.146568 36.580339 
L 111.56065 37.096806 
L 113.974733 37.033329 
L 115.181775 37.316104 
L 116.388816 37.051219 
L 123.631065 37.145252 
L 124.838106 36.636208 
L 126.045147 36.383314 
L 129.666272 36.5931 
L 130.873313 36.923569 
L 134.494437 36.705621 
L 136.90852 36.802901 
L 141.736686 36.41851 
L 142.943727 36.549351 
L 144.150769 36.566783 
L 145.35781 36.329539 
L 146.564851 36.389368 
L 150.185976 36.057865 
L 152.600058 36.251604 
L 155.014141 36.551287 
L 158.635266 36.254934 
L 159.842307 36.370557 
L 162.25639 36.239058 
L 164.670473 36.267093 
L 167.084555 36.05663 
L 177.947928 36.548905 
L 179.15497 36.701995 
L 180.362011 36.591203 
L 185.190177 36.809137 
L 190.018342 36.749604 
L 193.639467 37.001113 
L 194.846508 36.748555 
L 199.674674 36.399181 
L 205.709881 36.630008 
L 218.987336 37.096851 
L 220.194378 36.919805 
L 222.60846 36.92161 
L 225.022543 36.692602 
L 226.229585 36.642301 
L 228.643668 36.688172 
L 232.264792 36.641195 
L 233.471833 36.66039 
L 234.678875 36.535025 
L 235.885916 36.601967 
L 238.299999 36.49978 
L 241.921123 36.590408 
L 244.335206 36.363217 
L 252.784496 36.189433 
L 255.198579 36.010878 
L 256.40562 36.014067 
L 257.612661 35.810602 
L 260.026744 35.927933 
L 263.647868 35.835499 
L 267.268993 36.191252 
L 268.476034 36.206755 
L 270.890117 36.044808 
L 280.546448 36.453813 
L 281.75349 36.387833 
L 285.374614 36.500395 
L 301.066152 36.318291 
L 302.273194 36.421833 
L 303.480235 36.311701 
L 304.687277 36.343735 
L 305.894318 36.158405 
L 319.171773 36.111172 
L 321.585856 36.221666 
L 328.828105 36.120252 
L 332.449229 35.947558 
L 333.65627 35.96265 
L 334.863312 35.83989 
L 339.691478 35.91871 
L 343.312602 35.939196 
L 344.519643 35.977903 
L 346.933726 35.76842 
L 354.175974 35.80589 
L 355.383016 35.741342 
L 357.797099 35.747774 
L 362.625264 35.706177 
L 372.281596 35.616088 
L 378.316803 35.699346 
L 380.730886 35.534286 
L 381.937927 35.628883 
L 385.559051 35.445081 
L 386.766093 35.353814 
L 389.180175 35.33151 
L 413.321004 35.358227 
L 414.528045 35.42884 
L 418.149169 35.354468 
L 422.977335 35.435257 
L 426.598459 35.331814 
L 429.012542 35.268513 
L 432.633666 35.253217 
L 438.668873 35.260596 
L 441.082956 35.308665 
L 449.532246 35.223204 
L 454.360412 35.265805 
L 459.188577 35.252071 
L 467.637867 35.198798 
L 468.844909 35.050501 
L 480.915323 35.150042 
L 486.95053 35.144369 
L 511.091358 35.26583 
L 515.919524 35.213333 
L 515.919524 35.213333 
" clip-path="url(#pfeb575ae1d)" style="fill: none; stroke: #ff8c00; stroke-width: 1.5; stroke-linecap: square"/>
   </g>
   <g id="line2d_30">
    <path d="M 34.31 98.44 
L 35.517041 78.674082 
L 36.724083 61.142055 
L 37.931124 34.306986 
L 39.138166 43.864933 
L 40.345207 22.884951 
L 41.552248 26.141636 
L 42.75929 32.507235 
L 43.966331 39.818549 
L 45.173373 39.9509 
L 46.380414 45.156696 
L 47.587456 49.566715 
L 50.001538 55.956731 
L 51.20858 57.731296 
L 52.415621 60.095585 
L 56.036745 65.572366 
L 57.243787 66.830269 
L 58.450828 60.632619 
L 59.65787 56.761787 
L 60.864911 58.321597 
L 62.071953 59.674982 
L 63.278994 60.84503 
L 64.486035 57.550813 
L 65.693077 57.029159 
L 66.900118 57.463446 
L 68.10716 54.312302 
L 69.314201 55.771811 
L 70.521242 55.940738 
L 71.728284 54.3677 
L 72.935325 49.603072 
L 74.142367 51.035241 
L 75.349408 51.002765 
L 77.763491 50.333848 
L 78.970532 51.478176 
L 80.177574 50.348258 
L 81.384615 49.518778 
L 82.591657 50.664195 
L 83.798698 51.63448 
L 85.005739 45.330388 
L 86.212781 45.740907 
L 87.419822 46.691967 
L 88.626864 46.958586 
L 89.833905 46.454533 
L 91.040946 46.828796 
L 92.247988 47.630876 
L 94.662071 48.818742 
L 95.869112 46.708595 
L 97.076153 47.657333 
L 98.283195 48.423261 
L 99.490236 43.703499 
L 100.697278 44.621468 
L 101.904319 45.298411 
L 103.111361 46.123314 
L 104.318402 45.665301 
L 105.525443 40.824288 
L 106.732485 40.512451 
L 107.939526 38.909141 
L 109.146568 39.795577 
L 110.353609 38.922545 
L 111.56065 38.748045 
L 113.974733 40.466593 
L 115.181775 39.523003 
L 116.388816 38.777292 
L 118.802899 40.384695 
L 120.00994 40.883212 
L 121.216982 41.631838 
L 122.424023 42.243106 
L 123.631065 42.979176 
L 124.838106 37.193321 
L 126.045147 36.359171 
L 127.252189 37.053578 
L 128.45923 37.542065 
L 129.666272 38.256489 
L 130.873313 36.070402 
L 132.080354 36.713151 
L 133.287396 36.916329 
L 134.494437 37.644845 
L 140.529644 40.484875 
L 141.736686 40.172056 
L 142.943727 40.295816 
L 144.150769 40.918547 
L 145.35781 39.801011 
L 146.564851 40.313222 
L 147.771893 40.397591 
L 148.978934 40.849365 
L 150.185976 40.875004 
L 151.393017 41.314902 
L 152.600058 41.367066 
L 153.8071 40.828619 
L 155.014141 40.941059 
L 156.221183 40.916885 
L 157.428224 39.533075 
L 158.635266 39.911749 
L 161.049348 40.095413 
L 164.670473 41.667254 
L 165.877514 41.549193 
L 167.084555 41.833142 
L 171.912721 43.487384 
L 173.119763 43.434347 
L 175.533845 44.361601 
L 176.740887 43.622615 
L 177.947928 43.381889 
L 179.15497 42.894034 
L 180.362011 42.851379 
L 181.569052 43.092893 
L 183.983135 43.931329 
L 185.190177 43.904821 
L 186.397218 44.278351 
L 187.604259 44.423275 
L 188.811301 44.839723 
L 191.225384 45.23651 
L 193.639467 45.345023 
L 194.846508 42.897072 
L 196.053549 43.004003 
L 197.260591 43.409016 
L 198.467632 42.956962 
L 199.674674 42.668379 
L 200.881715 42.864955 
L 202.088756 43.21816 
L 203.295798 43.26045 
L 205.709881 43.960212 
L 209.331005 44.794804 
L 210.538046 45.131752 
L 211.745088 45.279937 
L 212.952129 44.897448 
L 214.159171 44.93475 
L 216.573253 45.627243 
L 217.780295 45.192044 
L 218.987336 45.464041 
L 220.194378 44.187454 
L 222.60846 44.82348 
L 223.815502 44.116905 
L 225.022543 44.047943 
L 231.05775 45.178882 
L 233.471833 45.706779 
L 234.678875 45.147883 
L 237.092957 45.304311 
L 240.714082 45.922131 
L 241.921123 45.92427 
L 243.128164 44.973268 
L 244.335206 44.903382 
L 246.749289 45.423555 
L 247.95633 44.929113 
L 250.370413 45.4353 
L 251.577454 44.46912 
L 252.784496 44.744465 
L 253.991537 43.89047 
L 256.40562 44.374852 
L 257.612661 42.097884 
L 258.819703 42.052744 
L 261.233786 42.338062 
L 262.440827 41.355647 
L 263.647868 40.94559 
L 264.85491 40.119715 
L 266.061951 39.904231 
L 267.268993 39.05259 
L 268.476034 39.341509 
L 269.683076 38.822387 
L 270.890117 38.961343 
L 273.3042 39.093218 
L 274.511241 38.769884 
L 275.718283 39.048565 
L 276.925324 38.985023 
L 278.132365 39.27692 
L 279.339407 39.114627 
L 280.546448 39.353291 
L 282.960531 39.303986 
L 284.167573 39.579055 
L 285.374614 39.643775 
L 288.995738 40.450541 
L 291.409821 40.221913 
L 295.030945 40.902518 
L 296.237987 40.857576 
L 297.445028 40.558412 
L 298.652069 40.523275 
L 301.066152 40.693508 
L 303.480235 39.507926 
L 304.687277 39.692783 
L 305.894318 37.361803 
L 307.101359 37.621241 
L 309.515442 37.956004 
L 311.929525 38.410985 
L 314.343608 38.842453 
L 315.550649 38.760924 
L 316.757691 37.932191 
L 319.171773 38.234953 
L 320.378815 37.919225 
L 326.414022 38.833922 
L 327.621063 38.93566 
L 328.828105 38.408983 
L 330.035146 38.110916 
L 331.242188 38.32594 
L 332.449229 38.131484 
L 333.65627 38.354749 
L 334.863312 37.337034 
L 337.277395 37.678817 
L 338.484436 37.545708 
L 340.898519 37.781419 
L 342.10556 38.014993 
L 344.519643 38.195891 
L 345.726685 37.569654 
L 346.933726 36.756195 
L 354.175974 37.830579 
L 355.383016 37.68602 
L 357.797099 37.693079 
L 360.211182 38.096225 
L 361.418223 37.80978 
L 363.832306 38.208674 
L 365.039347 38.30416 
L 366.246389 38.51595 
L 367.45343 38.562502 
L 368.660471 38.475691 
L 371.074554 38.888843 
L 373.488637 39.101536 
L 375.90272 39.376179 
L 378.316803 39.453231 
L 379.523844 38.477654 
L 380.730886 38.404521 
L 381.937927 37.748236 
L 383.144968 37.881868 
L 384.35201 37.823488 
L 385.559051 36.985866 
L 386.766093 36.380158 
L 387.973134 36.483086 
L 389.180175 36.389651 
L 390.387217 36.597756 
L 392.8013 36.146773 
L 396.422424 36.666566 
L 397.629465 36.623275 
L 400.043548 36.957741 
L 401.25059 36.876589 
L 408.492838 37.65852 
L 409.699879 37.539674 
L 412.113962 37.870061 
L 414.528045 37.225703 
L 415.735087 37.216986 
L 418.149169 37.5354 
L 420.563252 37.453099 
L 425.391418 38.094668 
L 427.805501 37.192272 
L 431.426625 37.619398 
L 432.633666 37.619526 
L 433.840708 37.786899 
L 435.047749 37.792094 
L 438.668873 38.257764 
L 439.875915 38.056896 
L 443.497039 38.479649 
L 444.70408 38.214599 
L 449.532246 38.760994 
L 451.946329 38.81795 
L 454.360412 39.111347 
L 456.774495 39.334131 
L 460.395619 39.800599 
L 461.60266 39.057259 
L 467.637867 39.817009 
L 468.844909 37.325085 
L 471.258992 37.520352 
L 472.466033 37.481211 
L 474.880116 37.760376 
L 476.087157 37.668685 
L 477.294199 37.39691 
L 478.50124 37.433663 
L 479.708281 37.259549 
L 483.329406 37.526612 
L 484.536447 37.686062 
L 485.743488 37.412652 
L 486.95053 37.287638 
L 490.571654 37.705743 
L 494.192778 37.659682 
L 497.813903 38.026343 
L 499.020944 37.575387 
L 500.227985 37.598506 
L 501.435027 36.504636 
L 502.642068 36.409083 
L 503.84911 35.899794 
L 505.056151 36.028111 
L 506.263193 35.101093 
L 507.470234 35.228137 
L 508.677275 34.995375 
L 509.884317 34.981506 
L 512.2984 35.278704 
L 513.505441 34.941477 
L 515.919524 35.213333 
L 515.919524 35.213333 
" clip-path="url(#pfeb575ae1d)" style="fill: none; stroke-dasharray: 5.55,2.4; stroke-dashoffset: 0; stroke: #ff8c00; stroke-width: 1.5"/>
   </g>
   <g id="patch_3">
    <path d="M 34.31 98.44 
L 34.31 3.6 
" style="fill: none; stroke: #000000; stroke-width: 0.8; stroke-linejoin: miter; stroke-linecap: square"/>
   </g>
   <g id="patch_4">
    <path d="M 540 98.44 
L 540 3.6 
" style="fill: none; stroke: #000000; stroke-width: 0.8; stroke-linejoin: miter; stroke-linecap: square"/>
   </g>
   <g id="patch_5">
    <path d="M 34.31 98.44 
L 540 98.44 
" style="fill: none; stroke: #000000; stroke-width: 0.8; stroke-linejoin: miter; stroke-linecap: square"/>
   </g>
   <g id="patch_6">
    <path d="M 34.31 3.6 
L 540 3.6 
" style="fill: none; stroke: #000000; stroke-width: 0.8; stroke-linejoin: miter; stroke-linecap: square"/>
   </g>
  </g>
 </g>
 <defs>
  <clipPath id="pfeb575ae1d">
   <rect x="34.31" y="3.6" width="505.69" height="94.84"/>
  </clipPath>
 </defs>
</svg>
