<?xml version="1.0" encoding="utf-8" standalone="no"?>
<!DOCTYPE svg PUBLIC "-//W3C//DTD SVG 1.1//EN"
  "http://www.w3.org/Graphics/SVG/1.1/DTD/svg11.dtd">
<svg xmlns:xlink="http://www.w3.org/1999/xlink" width="216pt" height="208.8pt" viewBox="0 0 216 208.8" xmlns="http://www.w3.org/2000/svg" version="1.1">
 <metadata>
  <rdf:RDF xmlns:dc="http://purl.org/dc/elements/1.1/" xmlns:cc="http://creativecommons.org/ns#" xmlns:rdf="http://www.w3.org/1999/02/22-rdf-syntax-ns#">
   <cc:Work>
    <dc:type rdf:resource="http://purl.org/dc/dcmitype/StillImage"/>
    <dc:date>2025-03-18T23:51:28.801034</dc:date>
    <dc:format>image/svg+xml</dc:format>
    <dc:creator>
     <cc:Agent>
      <dc:title>Matplotlib v3.9.0, https://matplotlib.org/</dc:title>
     </cc:Agent>
    </dc:creator>
   </cc:Work>
  </rdf:RDF>
 </metadata>
 <defs>
  <style type="text/css">*{stroke-linejoin: round; stroke-linecap: butt}</style>
 </defs>
 <g id="figure_1">
  <g id="patch_1">
   <path d="M 0 208.8 
L 216 208.8 
L 216 0 
L 0 0 
z
" style="fill: #ffffff"/>
  </g>
  <g id="axes_1">
   <g id="patch_2">
    <path d="M 42.74 173.32 
L 209.16 173.32 
L 209.16 3.96 
L 42.74 3.96 
z
" style="fill: #ffffff"/>
   </g>
   <g id="matplotlib.axis_1">
    <g id="xtick_1">
     <g id="line2d_1">
      <defs>
       <path id="m86894c8e70" d="M 0 0 
L 0 3.5 
" style="stroke: #000000; stroke-width: 0.8"/>
      </defs>
      <g>
       <use xlink:href="#m86894c8e70" x="42.74" y="173.32" style="stroke: #000000; stroke-width: 0.8"/>
      </g>
     </g>
     <g id="text_1">
      <text style="font: 11px 'Times New Roman'; text-anchor: middle" x="42.74" y="187.958125" transform="rotate(-0 42.74 187.958125)">0.0</text>
     </g>
    </g>
    <g id="xtick_2">
     <g id="line2d_2">
      <g>
       <use xlink:href="#m86894c8e70" x="76.024" y="173.32" style="stroke: #000000; stroke-width: 0.8"/>
      </g>
     </g>
     <g id="text_2">
      <text style="font: 11px 'Times New Roman'; text-anchor: middle" x="76.024" y="187.958125" transform="rotate(-0 76.024 187.958125)">0.2</text>
     </g>
    </g>
    <g id="xtick_3">
     <g id="line2d_3">
      <g>
       <use xlink:href="#m86894c8e70" x="109.308" y="173.32" style="stroke: #000000; stroke-width: 0.8"/>
      </g>
     </g>
     <g id="text_3">
      <text style="font: 11px 'Times New Roman'; text-anchor: middle" x="109.308" y="187.958125" transform="rotate(-0 109.308 187.958125)">0.4</text>
     </g>
    </g>
    <g id="xtick_4">
     <g id="line2d_4">
      <g>
       <use xlink:href="#m86894c8e70" x="142.592" y="173.32" style="stroke: #000000; stroke-width: 0.8"/>
      </g>
     </g>
     <g id="text_4">
      <text style="font: 11px 'Times New Roman'; text-anchor: middle" x="142.592" y="187.958125" transform="rotate(-0 142.592 187.958125)">0.6</text>
     </g>
    </g>
    <g id="xtick_5">
     <g id="line2d_5">
      <g>
       <use xlink:href="#m86894c8e70" x="175.876" y="173.32" style="stroke: #000000; stroke-width: 0.8"/>
      </g>
     </g>
     <g id="text_5">
      <text style="font: 11px 'Times New Roman'; text-anchor: middle" x="175.876" y="187.958125" transform="rotate(-0 175.876 187.958125)">0.8</text>
     </g>
    </g>
    <g id="xtick_6">
     <g id="line2d_6">
      <g>
       <use xlink:href="#m86894c8e70" x="209.16" y="173.32" style="stroke: #000000; stroke-width: 0.8"/>
      </g>
     </g>
     <g id="text_6">
      <text style="font: 11px 'Times New Roman'; text-anchor: middle" x="209.16" y="187.958125" transform="rotate(-0 209.16 187.958125)">1.0</text>
     </g>
    </g>
    <g id="text_7">
     <!-- Actual Quality $Q$ -->
     <g transform="translate(84.61 202.711094)">
      <text>
       <tspan style="font: 12px 'Times New Roman'" x="0 8.666016 13.992188 17.326172 23.326172 28.652344 31.986328 34.986328 43.652344 49.652344 54.978516 58.3125 61.646484 64.980469 70.980469" y="-0.671875">Actual Quality </tspan>
       <tspan style="font: italic 12px 'STIXGeneral'" x="73.980469" y="-0.671875">Q</tspan>
      </text>
     </g>
    </g>
   </g>
   <g id="matplotlib.axis_2">
    <g id="ytick_1">
     <g id="line2d_7">
      <defs>
       <path id="m84db9d402b" d="M 0 0 
L -3.5 0 
" style="stroke: #000000; stroke-width: 0.8"/>
      </defs>
      <g>
       <use xlink:href="#m84db9d402b" x="42.74" y="173.32" style="stroke: #000000; stroke-width: 0.8"/>
      </g>
     </g>
     <g id="text_8">
      <text style="font: 11px 'Times New Roman'; text-anchor: end" x="35.74" y="177.139062" transform="rotate(-0 35.74 177.139062)">0.0</text>
     </g>
    </g>
    <g id="ytick_2">
     <g id="line2d_8">
      <g>
       <use xlink:href="#m84db9d402b" x="42.74" y="139.448" style="stroke: #000000; stroke-width: 0.8"/>
      </g>
     </g>
     <g id="text_9">
      <text style="font: 11px 'Times New Roman'; text-anchor: end" x="35.74" y="143.267062" transform="rotate(-0 35.74 143.267062)">0.2</text>
     </g>
    </g>
    <g id="ytick_3">
     <g id="line2d_9">
      <g>
       <use xlink:href="#m84db9d402b" x="42.74" y="105.576" style="stroke: #000000; stroke-width: 0.8"/>
      </g>
     </g>
     <g id="text_10">
      <text style="font: 11px 'Times New Roman'; text-anchor: end" x="35.74" y="109.395062" transform="rotate(-0 35.74 109.395062)">0.4</text>
     </g>
    </g>
    <g id="ytick_4">
     <g id="line2d_10">
      <g>
       <use xlink:href="#m84db9d402b" x="42.74" y="71.704" style="stroke: #000000; stroke-width: 0.8"/>
      </g>
     </g>
     <g id="text_11">
      <text style="font: 11px 'Times New Roman'; text-anchor: end" x="35.74" y="75.523062" transform="rotate(-0 35.74 75.523062)">0.6</text>
     </g>
    </g>
    <g id="ytick_5">
     <g id="line2d_11">
      <g>
       <use xlink:href="#m84db9d402b" x="42.74" y="37.832" style="stroke: #000000; stroke-width: 0.8"/>
      </g>
     </g>
     <g id="text_12">
      <text style="font: 11px 'Times New Roman'; text-anchor: end" x="35.74" y="41.651062" transform="rotate(-0 35.74 41.651062)">0.8</text>
     </g>
    </g>
    <g id="ytick_6">
     <g id="line2d_12">
      <g>
       <use xlink:href="#m84db9d402b" x="42.74" y="3.96" style="stroke: #000000; stroke-width: 0.8"/>
      </g>
     </g>
     <g id="text_13">
      <text style="font: 11px 'Times New Roman'; text-anchor: end" x="35.74" y="7.779063" transform="rotate(-0 35.74 7.779063)">1.0</text>
     </g>
    </g>
    <g id="text_14">
     <!-- Measured Quality $\hat{Q}$ -->
     <g transform="translate(15.35 137.66) rotate(-90)">
      <text>
       <tspan style="font: 12px 'Times New Roman'" x="0 10.669922 15.996094 21.322266 25.992188 31.992188 35.988281 41.314453 47.314453 50.314453 58.980469 64.980469 70.306641 73.640625 76.974609 80.308594 86.308594" y="-0.5">Measured Quality </tspan>
       <tspan style="font: 12px 'STIXGeneral'" x="97.115215" y="-3.90625">̂</tspan>
       <tspan style="font: italic 12px 'STIXGeneral'" x="89.308594" y="-0.5">Q</tspan>
      </text>
     </g>
    </g>
   </g>
   <g id="line2d_13">
    <path d="M 42.74 173.32 
L 209.16 3.96 
L 209.16 3.96 
" clip-path="url(#pb9f856b6c5)" style="fill: none; stroke: #000000; stroke-linecap: square"/>
   </g>
   <g id="line2d_14">
    <path d="M 42.74 173.32 
L 56.233514 156.332761 
L 69.227267 140.325055 
L 81.721261 125.279547 
L 93.715495 111.178698 
L 105.20997 98.004786 
L 116.204685 85.73993 
L 126.533053 74.54397 
L 136.361662 64.209824 
L 145.690511 54.718667 
L 154.5196 46.051683 
L 162.682342 38.344225 
L 170.345325 31.410413 
L 177.341962 25.371431 
L 183.838839 20.053795 
L 189.669369 15.563428 
L 194.833554 11.857271 
L 199.331391 8.890818 
L 203.162883 6.619084 
L 206.161441 5.078007 
L 208.327067 4.185458 
L 209.16 3.96 
L 209.16 3.96 
" clip-path="url(#pb9f856b6c5)" style="fill: none; stroke-dasharray: 3.7,1.6; stroke-dashoffset: 0; stroke: #000000"/>
   </g>
   <g id="line2d_15">
    <path d="M 42.74 173.32 
L 49.236877 160.354809 
L 55.567167 148.218599 
L 61.730871 136.872678 
L 67.894575 125.991394 
L 73.891692 115.850168 
L 79.888809 106.148803 
L 85.719339 97.138622 
L 91.383283 88.78399 
L 97.047227 80.821702 
L 102.544585 73.468804 
L 108.041942 66.485511 
L 113.372713 60.066808 
L 118.703483 53.995648 
L 123.867668 48.445635 
L 129.031852 43.221783 
L 134.029449 38.476993 
L 139.027047 34.037661 
L 143.858058 30.036662 
L 148.689069 26.321098 
L 153.52008 22.890967 
L 158.184505 19.849957 
L 162.848929 17.075035 
L 167.346767 14.651221 
L 171.844605 12.474829 
L 176.342442 10.545857 
L 180.84028 8.864308 
L 185.171532 7.478883 
L 189.502783 6.322892 
L 193.834034 5.396334 
L 198.165285 4.69921 
L 202.496537 4.231519 
L 206.827788 3.993261 
L 209.16 3.96 
L 209.16 3.96 
" clip-path="url(#pb9f856b6c5)" style="fill: none; stroke-dasharray: 1,1.65; stroke-dashoffset: 0; stroke: #000000"/>
   </g>
   <g id="line2d_16">
    <path d="M 42.74 173.32 
L 45.905145 157.815768 
L 48.903704 144.195757 
L 51.902262 131.557855 
L 54.900821 119.847965 
L 57.899379 109.014013 
L 60.897938 99.005911 
L 63.896496 89.775518 
L 66.895055 81.276602 
L 69.893614 73.464799 
L 72.892172 66.297578 
L 75.724144 60.08366 
L 78.556116 54.375458 
L 81.388088 49.141456 
L 84.22006 44.351476 
L 87.052032 39.976647 
L 89.884004 35.989379 
L 92.715976 32.363332 
L 95.714535 28.88981 
L 98.713093 25.764747 
L 101.711652 22.961241 
L 104.71021 20.453815 
L 107.875355 18.10169 
L 111.040501 16.025904 
L 114.372232 14.111839 
L 117.703964 12.448777 
L 121.202282 10.944785 
L 124.867187 9.605936 
L 128.865265 8.388112 
L 133.02993 7.352848 
L 137.527768 6.462221 
L 142.525365 5.702944 
L 148.189309 5.077864 
L 154.686186 4.596388 
L 162.515756 4.252937 
L 172.677538 4.045744 
L 189.16961 3.964235 
L 209.16 3.96 
L 209.16 3.96 
" clip-path="url(#pb9f856b6c5)" style="fill: none; stroke-dasharray: 6.4,1.6,1,1.6; stroke-dashoffset: 0; stroke: #000000"/>
   </g>
   <g id="patch_3">
    <path d="M 42.74 173.32 
L 42.74 3.96 
" style="fill: none; stroke: #000000; stroke-width: 0.8; stroke-linejoin: miter; stroke-linecap: square"/>
   </g>
   <g id="patch_4">
    <path d="M 209.16 173.32 
L 209.16 3.96 
" style="fill: none; stroke: #000000; stroke-width: 0.8; stroke-linejoin: miter; stroke-linecap: square"/>
   </g>
   <g id="patch_5">
    <path d="M 42.74 173.32 
L 209.16 173.32 
" style="fill: none; stroke: #000000; stroke-width: 0.8; stroke-linejoin: miter; stroke-linecap: square"/>
   </g>
   <g id="patch_6">
    <path d="M 42.74 3.96 
L 209.16 3.96 
" style="fill: none; stroke: #000000; stroke-width: 0.8; stroke-linejoin: miter; stroke-linecap: square"/>
   </g>
   <g id="legend_1">
    <g id="text_15">
     <text style="font: 10px 'Times New Roman'; text-anchor: start" x="160.756094" y="105.605937" transform="rotate(-0 160.756094 105.605937)">Accuracy</text>
    </g>
    <g id="line2d_17">
     <path d="M 159.66 116.26375 
L 169.66 116.26375 
L 179.66 116.26375 
" style="fill: none; stroke: #000000; stroke-linecap: square"/>
    </g>
    <g id="text_16">
     <text style="font: 10px 'Times New Roman'; text-anchor: start" x="187.66" y="119.76375" transform="rotate(-0 187.66 119.76375)">1.0</text>
    </g>
    <g id="line2d_18">
     <path d="M 159.66 130.402812 
L 169.66 130.402812 
L 179.66 130.402812 
" style="fill: none; stroke-dasharray: 3.7,1.6; stroke-dashoffset: 0; stroke: #000000"/>
    </g>
    <g id="text_17">
     <text style="font: 10px 'Times New Roman'; text-anchor: start" x="187.66" y="133.902812" transform="rotate(-0 187.66 133.902812)">0.8</text>
    </g>
    <g id="line2d_19">
     <path d="M 159.66 144.541875 
L 169.66 144.541875 
L 179.66 144.541875 
" style="fill: none; stroke-dasharray: 1,1.65; stroke-dashoffset: 0; stroke: #000000"/>
    </g>
    <g id="text_18">
     <text style="font: 10px 'Times New Roman'; text-anchor: start" x="187.66" y="148.041875" transform="rotate(-0 187.66 148.041875)">0.5</text>
    </g>
    <g id="line2d_20">
     <path d="M 159.66 158.680937 
L 169.66 158.680937 
L 179.66 158.680937 
" style="fill: none; stroke-dasharray: 6.4,1.6,1,1.6; stroke-dashoffset: 0; stroke: #000000"/>
    </g>
    <g id="text_19">
     <text style="font: 10px 'Times New Roman'; text-anchor: start" x="187.66" y="162.180937" transform="rotate(-0 187.66 162.180937)">0.2</text>
    </g>
   </g>
  </g>
 </g>
 <defs>
  <clipPath id="pb9f856b6c5">
   <rect x="42.74" y="3.96" width="166.42" height="169.36"/>
  </clipPath>
 </defs>
</svg>
