<?xml version="1.0" encoding="utf-8" standalone="no"?>
<!DOCTYPE svg PUBLIC "-//W3C//DTD SVG 1.1//EN"
  "http://www.w3.org/Graphics/SVG/1.1/DTD/svg11.dtd">
<svg xmlns:xlink="http://www.w3.org/1999/xlink" width="540pt" height="129.6pt" viewBox="0 0 540 129.6" xmlns="http://www.w3.org/2000/svg" version="1.1">
 <metadata>
  <rdf:RDF xmlns:dc="http://purl.org/dc/elements/1.1/" xmlns:cc="http://creativecommons.org/ns#" xmlns:rdf="http://www.w3.org/1999/02/22-rdf-syntax-ns#">
   <cc:Work>
    <dc:type rdf:resource="http://purl.org/dc/dcmitype/StillImage"/>
    <dc:date>2024-12-06T08:13:44.662226</dc:date>
    <dc:format>image/svg+xml</dc:format>
    <dc:creator>
     <cc:Agent>
      <dc:title>Matplotlib v3.8.3, https://matplotlib.org/</dc:title>
     </cc:Agent>
    </dc:creator>
   </cc:Work>
  </rdf:RDF>
 </metadata>
 <defs>
  <style type="text/css">*{stroke-linejoin: round; stroke-linecap: butt}</style>
 </defs>
 <g id="figure_1">
  <g id="patch_1">
   <path d="M 0 129.6 
L 540 129.6 
L 540 0 
L 0 0 
z
" style="fill: #ffffff"/>
  </g>
  <g id="axes_1">
   <g id="patch_2">
    <path d="M 35.12 97 
L 530.062306 97 
L 530.062306 3.96 
L 35.12 3.96 
z
" style="fill: #ffffff"/>
   </g>
   <g id="matplotlib.axis_1">
    <g id="xtick_1">
     <g id="line2d_1">
      <path d="M 35.12 97 
L 35.12 3.96 
" clip-path="url(#p3608d465b6)" style="fill: none; stroke: #b0b0b0; stroke-width: 0.8; stroke-linecap: square"/>
     </g>
     <g id="line2d_2">
      <defs>
       <path id="mac217468fb" d="M 0 0 
L 0 3.5 
" style="stroke: #000000; stroke-width: 0.8"/>
      </defs>
      <g>
       <use xlink:href="#mac217468fb" x="35.12" y="97" style="stroke: #000000; stroke-width: 0.8"/>
      </g>
     </g>
     <g id="text_1">
      <text style="font: 10px 'Times New Roman'; text-anchor: middle" x="35.12" y="110.94375" transform="rotate(-0 35.12 110.94375)">0</text>
     </g>
    </g>
    <g id="xtick_2">
     <g id="line2d_3">
      <path d="M 96.980056 97 
L 96.980056 3.96 
" clip-path="url(#p3608d465b6)" style="fill: none; stroke: #b0b0b0; stroke-width: 0.8; stroke-linecap: square"/>
     </g>
     <g id="line2d_4">
      <g>
       <use xlink:href="#mac217468fb" x="96.980056" y="97" style="stroke: #000000; stroke-width: 0.8"/>
      </g>
     </g>
     <g id="text_2">
      <text style="font: 10px 'Times New Roman'; text-anchor: middle" x="96.980056" y="110.94375" transform="rotate(-0 96.980056 110.94375)">200</text>
     </g>
    </g>
    <g id="xtick_3">
     <g id="line2d_5">
      <path d="M 158.840111 97 
L 158.840111 3.96 
" clip-path="url(#p3608d465b6)" style="fill: none; stroke: #b0b0b0; stroke-width: 0.8; stroke-linecap: square"/>
     </g>
     <g id="line2d_6">
      <g>
       <use xlink:href="#mac217468fb" x="158.840111" y="97" style="stroke: #000000; stroke-width: 0.8"/>
      </g>
     </g>
     <g id="text_3">
      <text style="font: 10px 'Times New Roman'; text-anchor: middle" x="158.840111" y="110.94375" transform="rotate(-0 158.840111 110.94375)">400</text>
     </g>
    </g>
    <g id="xtick_4">
     <g id="line2d_7">
      <path d="M 220.700167 97 
L 220.700167 3.96 
" clip-path="url(#p3608d465b6)" style="fill: none; stroke: #b0b0b0; stroke-width: 0.8; stroke-linecap: square"/>
     </g>
     <g id="line2d_8">
      <g>
       <use xlink:href="#mac217468fb" x="220.700167" y="97" style="stroke: #000000; stroke-width: 0.8"/>
      </g>
     </g>
     <g id="text_4">
      <text style="font: 10px 'Times New Roman'; text-anchor: middle" x="220.700167" y="110.94375" transform="rotate(-0 220.700167 110.94375)">600</text>
     </g>
    </g>
    <g id="xtick_5">
     <g id="line2d_9">
      <path d="M 282.560223 97 
L 282.560223 3.96 
" clip-path="url(#p3608d465b6)" style="fill: none; stroke: #b0b0b0; stroke-width: 0.8; stroke-linecap: square"/>
     </g>
     <g id="line2d_10">
      <g>
       <use xlink:href="#mac217468fb" x="282.560223" y="97" style="stroke: #000000; stroke-width: 0.8"/>
      </g>
     </g>
     <g id="text_5">
      <text style="font: 10px 'Times New Roman'; text-anchor: middle" x="282.560223" y="110.94375" transform="rotate(-0 282.560223 110.94375)">800</text>
     </g>
    </g>
    <g id="xtick_6">
     <g id="line2d_11">
      <path d="M 344.420279 97 
L 344.420279 3.96 
" clip-path="url(#p3608d465b6)" style="fill: none; stroke: #b0b0b0; stroke-width: 0.8; stroke-linecap: square"/>
     </g>
     <g id="line2d_12">
      <g>
       <use xlink:href="#mac217468fb" x="344.420279" y="97" style="stroke: #000000; stroke-width: 0.8"/>
      </g>
     </g>
     <g id="text_6">
      <text style="font: 10px 'Times New Roman'; text-anchor: middle" x="344.420279" y="110.94375" transform="rotate(-0 344.420279 110.94375)">1000</text>
     </g>
    </g>
    <g id="xtick_7">
     <g id="line2d_13">
      <path d="M 406.280334 97 
L 406.280334 3.96 
" clip-path="url(#p3608d465b6)" style="fill: none; stroke: #b0b0b0; stroke-width: 0.8; stroke-linecap: square"/>
     </g>
     <g id="line2d_14">
      <g>
       <use xlink:href="#mac217468fb" x="406.280334" y="97" style="stroke: #000000; stroke-width: 0.8"/>
      </g>
     </g>
     <g id="text_7">
      <text style="font: 10px 'Times New Roman'; text-anchor: middle" x="406.280334" y="110.94375" transform="rotate(-0 406.280334 110.94375)">1200</text>
     </g>
    </g>
    <g id="xtick_8">
     <g id="line2d_15">
      <path d="M 468.14039 97 
L 468.14039 3.96 
" clip-path="url(#p3608d465b6)" style="fill: none; stroke: #b0b0b0; stroke-width: 0.8; stroke-linecap: square"/>
     </g>
     <g id="line2d_16">
      <g>
       <use xlink:href="#mac217468fb" x="468.14039" y="97" style="stroke: #000000; stroke-width: 0.8"/>
      </g>
     </g>
     <g id="text_8">
      <text style="font: 10px 'Times New Roman'; text-anchor: middle" x="468.14039" y="110.94375" transform="rotate(-0 468.14039 110.94375)">1400</text>
     </g>
    </g>
    <g id="xtick_9">
     <g id="line2d_17">
      <path d="M 530.000446 97 
L 530.000446 3.96 
" clip-path="url(#p3608d465b6)" style="fill: none; stroke: #b0b0b0; stroke-width: 0.8; stroke-linecap: square"/>
     </g>
     <g id="line2d_18">
      <g>
       <use xlink:href="#mac217468fb" x="530.000446" y="97" style="stroke: #000000; stroke-width: 0.8"/>
      </g>
     </g>
     <g id="text_9">
      <text style="font: 10px 'Times New Roman'; text-anchor: middle" x="530.000446" y="110.94375" transform="rotate(-0 530.000446 110.94375)">1600</text>
     </g>
    </g>
    <g id="text_10">
     <text style="font: 12px 'Times New Roman'; text-anchor: middle" x="282.591153" y="125.415312" transform="rotate(-0 282.591153 125.415312)">Simulation Run</text>
    </g>
   </g>
   <g id="matplotlib.axis_2">
    <g id="ytick_1">
     <g id="line2d_19">
      <path d="M 35.12 97 
L 530.062306 97 
" clip-path="url(#p3608d465b6)" style="fill: none; stroke: #b0b0b0; stroke-width: 0.8; stroke-linecap: square"/>
     </g>
     <g id="line2d_20">
      <defs>
       <path id="m2195474caa" d="M 0 0 
L -3.5 0 
" style="stroke: #000000; stroke-width: 0.8"/>
      </defs>
      <g>
       <use xlink:href="#m2195474caa" x="35.12" y="97" style="stroke: #000000; stroke-width: 0.8"/>
      </g>
     </g>
     <g id="text_11">
      <text style="font: 10px 'Times New Roman'; text-anchor: end" x="28.12" y="100.471875" transform="rotate(-0 28.12 100.471875)">0.0</text>
     </g>
    </g>
    <g id="ytick_2">
     <g id="line2d_21">
      <path d="M 35.12 65.986667 
L 530.062306 65.986667 
" clip-path="url(#p3608d465b6)" style="fill: none; stroke: #b0b0b0; stroke-width: 0.8; stroke-linecap: square"/>
     </g>
     <g id="line2d_22">
      <g>
       <use xlink:href="#m2195474caa" x="35.12" y="65.986667" style="stroke: #000000; stroke-width: 0.8"/>
      </g>
     </g>
     <g id="text_12">
      <text style="font: 10px 'Times New Roman'; text-anchor: end" x="28.12" y="69.458542" transform="rotate(-0 28.12 69.458542)">0.5</text>
     </g>
    </g>
    <g id="ytick_3">
     <g id="line2d_23">
      <path d="M 35.12 34.973333 
L 530.062306 34.973333 
" clip-path="url(#p3608d465b6)" style="fill: none; stroke: #b0b0b0; stroke-width: 0.8; stroke-linecap: square"/>
     </g>
     <g id="line2d_24">
      <g>
       <use xlink:href="#m2195474caa" x="35.12" y="34.973333" style="stroke: #000000; stroke-width: 0.8"/>
      </g>
     </g>
     <g id="text_13">
      <text style="font: 10px 'Times New Roman'; text-anchor: end" x="28.12" y="38.445208" transform="rotate(-0 28.12 38.445208)">1.0</text>
     </g>
    </g>
    <g id="ytick_4">
     <g id="line2d_25">
      <path d="M 35.12 3.96 
L 530.062306 3.96 
" clip-path="url(#p3608d465b6)" style="fill: none; stroke: #b0b0b0; stroke-width: 0.8; stroke-linecap: square"/>
     </g>
     <g id="line2d_26">
      <g>
       <use xlink:href="#m2195474caa" x="35.12" y="3.96" style="stroke: #000000; stroke-width: 0.8"/>
      </g>
     </g>
     <g id="text_14">
      <text style="font: 10px 'Times New Roman'; text-anchor: end" x="28.12" y="7.431875" transform="rotate(-0 28.12 7.431875)">1.5</text>
     </g>
    </g>
    <g id="text_15">
     <text style="font: 12px 'Times New Roman'; text-anchor: middle" x="9.053125" y="50.48" transform="rotate(-90 9.053125 50.48)">Normalized Value</text>
    </g>
   </g>
   <g id="line2d_27">
    <path d="M 35.12 46.971279 
L 35.738601 34.628937 
L 36.047901 31.929954 
L 36.666501 36.91196 
L 37.594402 40.232432 
L 37.903703 40.701575 
L 38.213003 40.770306 
L 38.522303 40.449045 
L 38.831603 40.758631 
L 39.140904 40.756614 
L 39.450204 39.467304 
L 39.759504 38.696116 
L 40.068804 38.993805 
L 40.378105 37.853629 
L 40.687405 36.042096 
L 40.996705 36.67333 
L 41.306006 36.80348 
L 41.924606 37.628995 
L 42.233906 36.982775 
L 42.543207 37.482309 
L 42.852507 36.697291 
L 43.161807 36.530282 
L 43.471108 36.922485 
L 43.780408 36.731991 
L 44.708309 36.926774 
L 45.326909 35.993633 
L 45.94551 36.132884 
L 46.25481 35.958854 
L 46.873411 34.731993 
L 47.182711 34.837943 
L 47.492011 34.606596 
L 47.801311 34.661607 
L 48.110612 35.049178 
L 48.419912 35.166286 
L 48.729212 35.440519 
L 49.038513 35.314002 
L 49.657113 35.405896 
L 49.966413 35.185759 
L 50.585014 35.502654 
L 50.894314 35.175629 
L 51.203614 35.092566 
L 51.512915 35.16093 
L 51.822215 34.786592 
L 52.440816 34.747125 
L 52.750116 34.94373 
L 53.059416 34.702464 
L 53.368716 34.666429 
L 53.678017 34.150151 
L 54.296617 34.224979 
L 54.605918 33.691201 
L 56.461719 34.631835 
L 56.77102 34.497278 
L 57.38962 33.957425 
L 57.69892 34.142885 
L 58.008221 34.097744 
L 58.317521 33.625167 
L 58.936121 33.907641 
L 59.554722 34.15954 
L 59.864022 33.658537 
L 60.791923 33.941896 
L 61.101223 33.846004 
L 61.410524 33.622927 
L 61.719824 33.792826 
L 62.029124 33.610666 
L 62.957025 34.108569 
L 63.575626 34.21962 
L 64.812827 34.145196 
L 65.431427 34.210171 
L 66.668628 34.636138 
L 66.977929 34.696491 
L 67.287229 34.637018 
L 67.596529 34.734095 
L 68.21513 34.746284 
L 69.452331 35.065275 
L 69.761631 34.901926 
L 70.998832 34.997322 
L 71.308133 35.114529 
L 71.926733 34.923982 
L 72.854634 35.116178 
L 76.875538 34.838634 
L 77.184838 34.878478 
L 77.494138 34.790092 
L 77.803438 34.584981 
L 78.731339 34.600142 
L 79.34994 34.44175 
L 79.96854 34.281662 
L 80.587141 34.321998 
L 81.824342 34.380771 
L 82.442943 34.576593 
L 83.680144 34.425036 
L 84.298744 34.228095 
L 85.226645 34.244721 
L 85.845246 34.15834 
L 87.391747 34.269223 
L 88.010348 34.294844 
L 88.628948 34.284929 
L 89.866149 34.223737 
L 90.48475 34.360852 
L 90.79405 34.231844 
L 91.412651 34.387515 
L 92.340552 34.196618 
L 93.268452 34.315037 
L 93.577753 34.265983 
L 94.814954 34.429149 
L 95.433554 34.453503 
L 103.166061 35.015802 
L 103.784662 34.98286 
L 105.021863 35.151213 
L 105.640464 35.063145 
L 106.259064 35.080317 
L 107.805565 35.285713 
L 108.424166 35.301576 
L 112.44507 35.155544 
L 116.156673 35.517944 
L 116.775274 35.398419 
L 118.321775 35.396738 
L 125.435681 35.458528 
L 126.054282 35.466243 
L 129.456585 35.325496 
L 130.384486 35.299213 
L 131.003086 35.252558 
L 134.71469 35.156685 
L 136.570491 35.273276 
L 138.116993 35.356009 
L 139.972794 35.449937 
L 140.591395 35.369461 
L 141.519296 35.346615 
L 142.137896 35.285625 
L 143.375098 35.297818 
L 143.993698 35.243864 
L 147.396001 35.286837 
L 148.323902 35.305696 
L 149.870403 35.345737 
L 154.200607 35.193585 
L 155.437808 35.04708 
L 156.67501 35.089929 
L 167.500519 35.186018 
L 168.11912 35.228911 
L 168.73772 35.125672 
L 169.974922 35.195355 
L 171.212123 35.202989 
L 172.449324 35.165285 
L 173.067924 35.13905 
L 174.305125 35.175323 
L 174.614426 35.037373 
L 180.181831 35.06099 
L 181.109732 35.079534 
L 183.274833 35.195433 
L 184.202734 35.203724 
L 185.130635 35.151235 
L 185.749236 35.129435 
L 188.223638 35.175719 
L 189.770139 34.994258 
L 192.553842 35.055781 
L 194.409644 35.089555 
L 198.121247 35.111181 
L 199.977049 35.093819 
L 201.21425 35.110456 
L 204.616553 35.099436 
L 208.946757 35.216775 
L 210.183958 35.188251 
L 217.916465 35.152608 
L 219.462966 35.084998 
L 222.555969 34.983061 
L 227.814074 34.974289 
L 228.432674 34.925434 
L 232.453578 35.101905 
L 233.690779 35.108184 
L 236.783782 35.050247 
L 238.020983 35.008432 
L 238.948884 35.014658 
L 240.804685 35.03751 
L 242.969787 35.018397 
L 243.897688 34.967421 
L 245.134889 34.940603 
L 250.083694 34.968578 
L 252.248796 34.991924 
L 255.032498 34.9464 
L 257.816201 35.044291 
L 259.672002 35.029727 
L 262.455705 35.037302 
L 264.311507 35.009516 
L 266.476608 34.93256 
L 267.404509 34.922898 
L 284.725325 35.021697 
L 285.962526 35.015612 
L 302.046141 35.223808 
L 304.829843 35.302494 
L 306.685645 35.284038 
L 309.160047 35.329917 
L 312.25305 35.348409 
L 358.029491 35.334916 
L 362.359695 35.337725 
L 363.596896 35.339973 
L 369.473601 35.393531 
L 370.710802 35.392572 
L 373.494505 35.412751 
L 380.608411 35.416006 
L 387.722318 35.404959 
L 394.526924 35.462055 
L 397.310626 35.421189 
L 400.403629 35.395673 
L 403.187332 35.40135 
L 405.661734 35.397707 
L 413.394241 35.365721 
L 416.177943 35.364791 
L 418.961646 35.34301 
L 421.745348 35.323517 
L 435.663861 35.338013 
L 443.087068 35.359197 
L 447.107971 35.355555 
L 456.077679 35.334628 
L 458.552082 35.348125 
L 464.738087 35.28896 
L 468.44969 35.269464 
L 471.851994 35.281006 
L 474.635696 35.278997 
L 478.037999 35.219892 
L 480.512401 35.210056 
L 481.749602 35.174546 
L 485.770506 35.178817 
L 487.935608 35.154285 
L 493.193713 35.105463 
L 496.596016 35.071527 
L 501.854121 35.04475 
L 504.637823 34.977214 
L 506.493625 34.973333 
L 506.493625 34.973333 
" clip-path="url(#p3608d465b6)" style="fill: none; stroke: #4169e1; stroke-width: 1.5; stroke-linecap: square"/>
   </g>
   <g id="line2d_28">
    <path d="M 35.12 97 
L 35.738601 57.33597 
L 36.047901 57.333659 
L 36.666501 47.499499 
L 36.975802 51.399235 
L 37.285102 53.781548 
L 37.594402 53.185523 
L 38.522303 62.855047 
L 39.140904 67.248171 
L 39.450204 58.669321 
L 39.759504 57.016174 
L 40.068804 58.724645 
L 40.378105 50.820866 
L 40.687405 26.442303 
L 40.996705 26.534213 
L 41.306006 29.735969 
L 41.615306 31.607074 
L 41.924606 32.219125 
L 42.233906 30.559147 
L 42.543207 30.498731 
L 42.852507 26.064232 
L 43.161807 28.362353 
L 43.471108 28.928739 
L 44.708309 36.723771 
L 45.017609 33.924486 
L 45.326909 33.742841 
L 45.94551 37.105689 
L 46.25481 38.229613 
L 46.873411 28.597557 
L 47.182711 30.108924 
L 47.492011 30.768775 
L 47.801311 32.289399 
L 48.110612 30.93098 
L 48.419912 32.164903 
L 48.729212 32.103895 
L 49.657113 35.685783 
L 49.966413 35.881387 
L 50.585014 37.1612 
L 50.894314 35.836524 
L 51.512915 37.829603 
L 51.822215 35.471136 
L 52.440816 37.572154 
L 52.750116 37.596814 
L 53.059416 37.071373 
L 53.368716 38.035412 
L 53.678017 31.743727 
L 54.296617 33.713421 
L 54.605918 26.555638 
L 55.224518 27.432215 
L 55.533818 27.580886 
L 55.843119 27.415341 
L 56.152419 28.195259 
L 56.461719 28.041714 
L 56.77102 28.437746 
L 57.08032 26.239618 
L 57.38962 25.522465 
L 57.69892 25.348815 
L 58.008221 26.235729 
L 58.317521 19.564933 
L 58.626821 19.242892 
L 58.936121 19.97962 
L 59.245422 20.222845 
L 59.554722 20.763348 
L 59.864022 12.590997 
L 60.173323 13.062598 
L 60.791923 14.536519 
L 61.101223 15.156116 
L 61.410524 14.188033 
L 61.719824 14.013215 
L 62.647725 12.852101 
L 62.957025 13.044593 
L 63.266325 13.654721 
L 64.194226 16.054778 
L 65.431427 19.001905 
L 66.050028 19.031307 
L 66.359328 19.230341 
L 67.287229 20.977758 
L 67.596529 21.245852 
L 68.21513 22.537955 
L 68.52443 22.829649 
L 68.83373 22.893275 
L 69.143031 23.504082 
L 69.452331 23.798138 
L 69.761631 23.089599 
L 70.380232 24.305003 
L 70.689532 24.175887 
L 70.998832 24.792739 
L 71.617433 24.653786 
L 71.926733 24.892122 
L 72.236033 24.956903 
L 72.545334 24.770613 
L 73.163934 25.86274 
L 73.473235 25.610389 
L 74.091835 26.579987 
L 74.710436 27.446838 
L 75.019736 27.077406 
L 75.947637 28.417945 
L 76.566237 29.243121 
L 76.875538 29.440025 
L 77.184838 29.835174 
L 77.494138 29.836133 
L 77.803438 27.684358 
L 78.731339 28.848229 
L 79.04064 28.058651 
L 79.34994 28.51585 
L 79.65924 28.363497 
L 80.277841 28.762846 
L 81.824342 30.832472 
L 82.133642 30.35625 
L 82.442943 30.33282 
L 82.752243 30.72975 
L 83.061543 30.909604 
L 83.370843 30.879384 
L 83.680144 31.29201 
L 83.989444 31.078414 
L 84.298744 30.718235 
L 85.226645 31.462008 
L 85.535945 31.451998 
L 86.463846 32.523286 
L 86.773147 32.510178 
L 88.319648 33.555397 
L 88.628948 33.628324 
L 89.866149 34.83869 
L 90.17545 34.608259 
L 90.48475 34.730523 
L 90.79405 33.714921 
L 91.10335 33.432265 
L 91.412651 33.396873 
L 92.031251 32.750234 
L 92.340552 33.083969 
L 92.649852 33.042602 
L 92.959152 33.311209 
L 93.268452 33.100869 
L 93.577753 33.230775 
L 94.196353 33.198373 
L 94.505654 33.460391 
L 94.814954 33.427973 
L 95.433554 33.849669 
L 96.980056 35.162022 
L 97.289356 35.248627 
L 97.598656 34.976426 
L 98.217257 35.069153 
L 98.526557 35.253694 
L 98.835857 35.154606 
L 99.145158 35.41405 
L 99.454458 35.437603 
L 100.073059 35.931947 
L 100.382359 35.810975 
L 101.000959 36.221492 
L 101.61956 36.61065 
L 101.92886 36.682805 
L 102.23816 36.586639 
L 102.856761 36.986717 
L 103.166061 37.235718 
L 103.475362 37.221144 
L 103.784662 37.4479 
L 104.403262 37.360493 
L 105.021863 37.709452 
L 105.331163 37.062367 
L 105.949764 37.536152 
L 106.259064 37.644867 
L 107.496265 37.327094 
L 107.805565 37.553178 
L 108.114866 37.625596 
L 108.424166 37.529551 
L 108.733466 37.740909 
L 109.042767 36.926319 
L 109.352067 37.08388 
L 110.589268 37.156133 
L 111.207869 37.450202 
L 111.517169 37.402752 
L 112.44507 38.031278 
L 112.75437 38.094721 
L 113.06367 37.868441 
L 113.991571 38.327326 
L 114.300871 38.296652 
L 114.610172 38.138414 
L 115.538072 38.688304 
L 116.156673 38.682728 
L 116.465973 37.341222 
L 117.393874 37.944903 
L 118.012475 38.292855 
L 118.321775 38.0423 
L 119.558976 38.780263 
L 119.868276 38.873171 
L 120.177577 39.082457 
L 121.414778 39.237526 
L 121.724078 39.073814 
L 122.651979 39.546547 
L 122.961279 39.507516 
L 123.88918 39.879359 
L 124.19848 39.796094 
L 124.817081 40.105265 
L 125.126381 40.003356 
L 125.435681 40.173287 
L 126.054282 40.298883 
L 126.672882 40.611569 
L 126.982183 38.28509 
L 129.147285 39.088787 
L 129.765885 39.404056 
L 130.075186 39.314116 
L 130.384486 39.500713 
L 130.693786 39.141679 
L 131.312387 39.441727 
L 131.621687 38.488104 
L 132.549588 38.979163 
L 132.858888 38.625029 
L 133.477489 38.962861 
L 133.786789 38.68439 
L 134.096089 38.568746 
L 134.71469 38.517662 
L 135.02399 38.521057 
L 135.33329 38.410977 
L 137.498392 39.340793 
L 137.807693 39.423898 
L 138.116993 39.171201 
L 139.044894 39.271698 
L 139.663494 39.48062 
L 139.972794 39.438129 
L 140.282095 38.526579 
L 140.900695 38.818848 
L 141.209996 38.868793 
L 141.519296 38.316711 
L 141.828596 38.014313 
L 142.756497 38.435021 
L 143.375098 38.708848 
L 143.684398 37.902114 
L 144.302998 38.141112 
L 144.612299 37.943201 
L 145.8495 38.214378 
L 146.1588 38.114865 
L 147.396001 38.40966 
L 147.705301 38.292355 
L 148.014602 38.336215 
L 148.323902 38.492884 
L 148.633202 38.515923 
L 148.942503 38.407232 
L 150.179704 38.960837 
L 150.489004 38.985949 
L 151.107605 39.222162 
L 151.416905 39.172487 
L 152.344806 39.430798 
L 152.654106 37.719765 
L 152.963406 37.534708 
L 153.582007 37.739567 
L 153.891307 37.65149 
L 154.200607 37.768495 
L 154.509908 37.333785 
L 154.819208 37.389425 
L 155.437808 36.585707 
L 156.365709 36.484294 
L 156.98431 36.700773 
L 157.912211 37.060564 
L 158.840111 37.490912 
L 159.149412 37.423479 
L 160.695913 37.916046 
L 161.005213 38.060182 
L 161.314514 38.050923 
L 161.623814 38.194688 
L 162.861015 38.241364 
L 163.170315 38.257688 
L 165.026117 38.922598 
L 165.644718 38.49243 
L 167.191219 38.245394 
L 167.500519 38.365705 
L 167.80982 38.302999 
L 168.11912 38.415922 
L 168.42842 37.618502 
L 169.047021 37.444093 
L 169.665621 37.592899 
L 170.284222 37.775619 
L 171.212123 38.090918 
L 171.521423 38.174611 
L 172.140023 38.072156 
L 172.449324 38.196033 
L 172.758624 37.954902 
L 174.305125 38.365067 
L 174.614426 34.599532 
L 175.233026 34.866951 
L 175.851627 34.833112 
L 176.160927 34.968758 
L 176.779528 35.003301 
L 178.326029 35.499428 
L 178.635329 35.566682 
L 178.94463 35.439458 
L 180.181831 35.710328 
L 180.491131 35.666467 
L 180.800431 35.752254 
L 181.728332 35.48383 
L 182.037632 35.612417 
L 182.965533 35.666423 
L 184.821335 35.959353 
L 185.130635 35.841082 
L 185.439935 35.36315 
L 185.749236 35.283743 
L 187.295737 35.657376 
L 188.223638 35.55004 
L 188.532938 34.950175 
L 188.842239 34.687456 
L 189.151539 34.632124 
L 189.460839 34.723566 
L 189.770139 34.428878 
L 190.07944 34.481104 
L 190.38874 34.055896 
L 191.00734 34.132377 
L 191.625941 34.304046 
L 191.935241 34.274357 
L 192.863142 34.588346 
L 193.481743 34.521209 
L 194.100343 34.68772 
L 197.193346 35.521459 
L 197.502646 35.078905 
L 198.430547 35.297828 
L 199.049148 35.132745 
L 199.977049 35.440597 
L 200.286349 35.347271 
L 200.904949 35.506019 
L 203.070051 36.185122 
L 204.925853 36.571196 
L 205.853754 36.598437 
L 206.781655 36.834768 
L 208.018856 37.098696 
L 208.946757 37.260036 
L 209.256057 37.063373 
L 212.039759 37.598856 
L 212.65836 37.658238 
L 212.96766 36.923122 
L 213.276961 36.59338 
L 213.586261 36.439782 
L 213.895561 36.485464 
L 214.204861 36.219815 
L 219.153666 37.249972 
L 219.462966 36.861604 
L 220.081567 36.911449 
L 220.390867 36.688486 
L 222.246669 36.893438 
L 222.555969 36.730232 
L 224.10247 37.11316 
L 224.411771 35.85433 
L 224.721071 35.916117 
L 225.030371 35.819471 
L 227.814074 36.086783 
L 228.123374 35.300657 
L 229.051275 35.45557 
L 229.360575 35.390367 
L 230.288476 35.583507 
L 230.907076 35.637373 
L 231.834977 35.741126 
L 232.762878 35.618491 
L 233.072178 35.662003 
L 233.381479 35.585287 
L 234.000079 35.683919 
L 234.309379 34.82272 
L 235.23728 34.9426 
L 235.546581 34.919131 
L 235.855881 34.492672 
L 236.474481 34.389032 
L 237.093082 34.448614 
L 237.402382 34.211856 
L 238.330283 34.079788 
L 238.948884 34.046607 
L 241.732586 34.462668 
L 242.041886 34.163079 
L 242.969787 34.34309 
L 243.279088 33.738769 
L 244.206988 33.912484 
L 244.516289 33.837244 
L 245.75349 34.09867 
L 247.299991 34.149311 
L 247.609291 34.027871 
L 249.155793 34.257295 
L 252.867396 34.757165 
L 253.176696 34.611117 
L 253.485997 34.643468 
L 253.795297 34.478525 
L 256.269699 34.849714 
L 258.125501 34.978869 
L 259.362702 35.113636 
L 259.981303 35.158265 
L 260.909203 35.299603 
L 261.837104 35.459699 
L 262.455705 35.565719 
L 262.765005 35.497948 
L 263.692906 35.711252 
L 264.002206 35.600711 
L 265.548708 35.844433 
L 265.858008 35.02666 
L 266.167308 35.068815 
L 266.476608 34.972981 
L 266.785909 34.701853 
L 267.404509 34.766023 
L 267.71381 34.844575 
L 268.02311 34.69053 
L 269.569611 34.792338 
L 270.188212 34.928467 
L 270.497512 34.767549 
L 271.116113 34.816217 
L 272.662614 34.87352 
L 276.374217 35.321246 
L 276.683518 34.928081 
L 278.230019 35.247589 
L 279.15792 35.141282 
L 280.085821 35.304706 
L 280.704421 35.20409 
L 282.869523 35.535165 
L 283.178824 35.475648 
L 284.416025 35.671877 
L 284.725325 35.706874 
L 285.034625 35.579794 
L 286.271826 35.781473 
L 286.890427 35.820762 
L 287.818328 35.984039 
L 288.746229 36.103479 
L 289.98343 36.197965 
L 290.60203 36.240384 
L 291.220631 36.291938 
L 292.457832 36.496809 
L 293.695033 36.627101 
L 294.313634 36.646639 
L 294.932234 36.604337 
L 296.169435 36.817029 
L 297.097336 36.717137 
L 298.334537 36.855767 
L 298.643837 36.522389 
L 300.190339 36.688171 
L 300.499639 36.476351 
L 302.046141 36.442117 
L 302.664741 36.391756 
L 305.448444 36.527234 
L 306.067044 36.549684 
L 306.994945 36.488672 
L 309.160047 36.802423 
L 310.706548 36.925415 
L 311.325149 37.047428 
L 312.25305 36.799587 
L 313.180951 36.922325 
L 313.799551 36.94587 
L 314.108851 36.847065 
L 315.964653 37.069051 
L 316.892554 37.108549 
L 317.820455 36.366271 
L 321.532058 36.740823 
L 322.769259 36.896156 
L 323.078559 36.828425 
L 323.38786 35.651871 
L 324.00646 35.76753 
L 324.315761 35.569103 
L 324.625061 35.624376 
L 324.934361 35.444246 
L 325.862262 35.542158 
L 326.790163 35.647656 
L 327.408763 35.594166 
L 328.645964 35.730326 
L 329.573865 35.85192 
L 331.120367 36.085866 
L 332.666868 35.987513 
L 333.594769 36.088016 
L 333.904069 36.149382 
L 334.83197 35.964902 
L 336.069171 36.104373 
L 336.687772 36.115776 
L 338.852874 36.357861 
L 339.780775 36.306398 
L 340.399375 36.350849 
L 341.327276 36.402777 
L 342.873777 36.600407 
L 343.492378 36.619927 
L 344.420279 36.770088 
L 344.729579 36.511007 
L 348.750483 36.654921 
L 349.059783 36.494885 
L 352.771386 36.652743 
L 353.389987 36.689468 
L 354.008587 36.803077 
L 354.317888 36.477913 
L 355.245788 36.541242 
L 356.48299 36.657325 
L 357.10159 36.627888 
L 359.575992 36.991368 
L 361.741094 37.211688 
L 362.050395 36.419914 
L 362.359695 36.470149 
L 362.668995 36.243559 
L 363.287596 36.269926 
L 365.143397 36.260372 
L 366.380598 36.393016 
L 367.6178 36.402602 
L 369.473601 36.505963 
L 369.782902 36.307141 
L 370.710802 36.370321 
L 371.638703 36.308485 
L 376.896808 36.841508 
L 377.206108 36.746799 
L 379.37121 36.930461 
L 379.68051 36.950476 
L 379.989811 36.840437 
L 383.082814 36.976403 
L 383.392114 36.550553 
L 384.010714 36.619072 
L 384.320015 36.360668 
L 385.866516 36.526637 
L 388.031618 36.422781 
L 388.959519 36.548764 
L 389.268819 36.285987 
L 395.145524 36.378105 
L 395.764125 36.09345 
L 397.310626 36.253109 
L 398.857128 36.309865 
L 399.166428 36.196728 
L 404.115232 36.424981 
L 404.424533 36.309329 
L 405.352434 36.350721 
L 406.898935 36.500325 
L 407.208235 36.319849 
L 412.15704 36.619011 
L 412.46634 36.480305 
L 413.703541 36.564608 
L 414.322142 36.595869 
L 414.940742 36.655769 
L 415.250043 36.433038 
L 416.177943 36.46929 
L 416.796544 36.464517 
L 417.105844 36.124799 
L 418.033745 36.192894 
L 419.889547 36.369248 
L 420.817448 36.447927 
L 421.126748 36.050601 
L 422.982549 36.09877 
L 423.29185 35.870171 
L 424.529051 36.045279 
L 424.838351 35.684622 
L 426.694153 35.890077 
L 427.003453 35.898314 
L 427.312753 35.743538 
L 431.333657 36.090849 
L 433.498759 36.248916 
L 434.11736 36.237453 
L 435.663861 36.362671 
L 437.828963 36.538343 
L 438.138263 36.283087 
L 440.303365 36.470938 
L 440.921966 36.348321 
L 443.087068 36.574529 
L 444.014968 36.66836 
L 445.25217 36.793296 
L 445.56147 36.707125 
L 448.345172 37.003346 
L 448.654473 36.845616 
L 456.077679 37.41992 
L 456.69628 37.414356 
L 458.552082 37.461429 
L 460.098583 37.504701 
L 460.717183 37.265271 
L 462.882285 37.40548 
L 463.191586 37.114018 
L 465.356688 37.228076 
L 465.975288 37.261611 
L 466.284588 37.011904 
L 466.903189 37.004852 
L 469.377591 37.244309 
L 474.326396 37.410685 
L 475.563597 37.320724 
L 477.110098 37.400211 
L 478.347299 37.330807 
L 480.203101 37.334337 
L 480.512401 37.259408 
L 480.821702 36.787869 
L 481.131002 36.687756 
L 482.058903 36.753862 
L 482.368203 36.637 
L 483.296104 36.659669 
L 483.605404 36.467074 
L 485.770506 36.521147 
L 486.079806 36.360262 
L 486.389107 36.379272 
L 486.698407 36.225931 
L 490.719311 36.589211 
L 491.337911 36.166617 
L 492.575112 36.269301 
L 492.884412 36.304983 
L 493.503013 36.096214 
L 493.812313 36.135158 
L 494.121614 35.859914 
L 495.977415 35.986495 
L 498.142517 36.059569 
L 498.451817 35.756674 
L 499.070418 35.662548 
L 501.854121 35.799091 
L 502.163421 35.593117 
L 503.091322 35.620008 
L 503.400622 35.189025 
L 504.328523 35.245658 
L 505.256424 35.182731 
L 505.875024 35.247472 
L 506.184324 34.939541 
L 506.493625 34.973333 
L 506.493625 34.973333 
" clip-path="url(#p3608d465b6)" style="fill: none; stroke-dasharray: 5.55,2.4; stroke-dashoffset: 0; stroke: #4169e1; stroke-width: 1.5"/>
   </g>
   <g id="line2d_29">
    <path d="M 35.12 47.021935 
L 35.4293 41.267389 
L 36.047901 36.03256 
L 36.666501 39.790271 
L 36.975802 41.074272 
L 37.285102 41.531595 
L 37.594402 42.341415 
L 37.903703 41.579958 
L 38.522303 41.303664 
L 38.831603 41.659698 
L 39.140904 41.756895 
L 39.759504 39.392645 
L 40.068804 39.77177 
L 40.687405 36.157796 
L 41.306006 36.971254 
L 41.924606 37.876596 
L 42.233906 36.855813 
L 42.543207 37.355035 
L 42.852507 36.376929 
L 43.161807 36.332578 
L 43.471108 36.735371 
L 43.780408 36.681325 
L 44.708309 37.110174 
L 45.326909 35.948929 
L 46.25481 36.245288 
L 46.873411 34.89929 
L 47.182711 34.92605 
L 47.492011 34.528268 
L 47.801311 34.655795 
L 48.110612 35.027297 
L 48.419912 35.134713 
L 48.729212 35.41027 
L 49.038513 35.403243 
L 49.347813 35.640678 
L 49.657113 35.667748 
L 49.966413 35.269746 
L 50.585014 35.643134 
L 50.894314 34.885936 
L 51.512915 34.978377 
L 51.822215 34.271324 
L 52.131515 34.333995 
L 52.440816 34.220377 
L 52.750116 34.428026 
L 53.059416 34.105842 
L 53.368716 34.161407 
L 53.678017 33.622918 
L 54.296617 33.786427 
L 54.605918 33.042476 
L 54.915218 33.187097 
L 55.224518 33.169245 
L 56.461719 33.929839 
L 56.77102 33.770689 
L 57.38962 32.833268 
L 57.69892 33.011166 
L 58.008221 33.041595 
L 58.317521 32.393098 
L 59.245422 32.870607 
L 59.554722 33.037794 
L 59.864022 32.612182 
L 60.791923 32.97174 
L 61.101223 32.722484 
L 61.410524 32.673092 
L 61.719824 32.859214 
L 62.029124 32.482936 
L 63.266325 33.08217 
L 63.884926 33.144897 
L 64.194226 32.983761 
L 64.503526 33.072203 
L 64.812827 32.957055 
L 65.431427 33.129598 
L 66.668628 33.592658 
L 67.596529 33.804469 
L 68.52443 33.962835 
L 69.452331 34.280789 
L 69.761631 34.076248 
L 71.308133 34.454975 
L 71.617433 34.23377 
L 71.926733 34.224894 
L 72.854634 34.482273 
L 73.163934 34.478499 
L 73.473235 34.319357 
L 74.401135 34.402509 
L 74.710436 34.482559 
L 75.019736 34.324073 
L 76.875538 34.490471 
L 77.184838 34.578385 
L 77.494138 34.491582 
L 77.803438 34.234988 
L 78.731339 34.311317 
L 79.04064 34.071635 
L 80.587141 33.933316 
L 81.824342 34.038774 
L 82.442943 34.232199 
L 83.370843 34.017099 
L 83.989444 34.046544 
L 84.298744 33.955778 
L 85.226645 34.06914 
L 85.845246 34.018877 
L 87.082447 34.142232 
L 87.701047 34.066144 
L 88.628948 34.169976 
L 90.17545 34.18108 
L 90.48475 34.24789 
L 90.79405 34.052265 
L 91.412651 34.207588 
L 92.031251 33.881835 
L 92.959152 33.843816 
L 93.268452 33.908622 
L 93.577753 33.832875 
L 94.814954 34.063813 
L 95.433554 34.051124 
L 96.361455 34.133262 
L 96.980056 34.153416 
L 100.691659 34.701793 
L 103.784662 34.843756 
L 105.021863 35.041738 
L 105.331163 34.860522 
L 107.186965 35.088279 
L 107.805565 35.103735 
L 110.898568 34.964332 
L 112.135769 35.07032 
L 113.991571 35.239374 
L 116.156673 35.521216 
L 116.465973 35.352992 
L 117.393874 35.395235 
L 118.012475 35.436367 
L 118.321775 35.330686 
L 126.672882 35.594888 
L 126.982183 35.435586 
L 127.600783 35.432319 
L 128.837984 35.400657 
L 130.384486 35.431893 
L 131.003086 35.381848 
L 133.168188 35.157888 
L 139.972794 35.457772 
L 140.591395 35.296156 
L 141.519296 35.245328 
L 142.137896 35.196867 
L 143.375098 35.212176 
L 143.684398 35.093269 
L 145.8495 35.218895 
L 148.014602 35.207827 
L 152.344806 35.348918 
L 152.963406 35.208858 
L 154.200607 35.212477 
L 154.509908 35.107969 
L 155.128508 35.060168 
L 156.056409 35.007011 
L 157.60291 35.038234 
L 165.026117 35.22587 
L 165.644718 35.203595 
L 168.11912 35.379206 
L 168.73772 35.230887 
L 169.974922 35.299092 
L 172.140023 35.34015 
L 173.995825 35.360084 
L 174.305125 35.366912 
L 174.614426 35.158514 
L 176.470227 35.195974 
L 178.635329 35.243051 
L 181.419032 35.287611 
L 183.274833 35.348998 
L 186.986437 35.323206 
L 188.223638 35.385714 
L 189.151539 35.19289 
L 195.646845 35.349699 
L 197.193346 35.425561 
L 197.811947 35.370758 
L 205.235153 35.381627 
L 206.163054 35.352557 
L 212.96766 35.355209 
L 214.204861 35.247494 
L 219.153666 35.332387 
L 219.772266 35.226892 
L 221.009467 35.209313 
L 223.79317 35.091885 
L 224.411771 35.045451 
L 226.267572 35.083251 
L 227.814074 35.054042 
L 228.432674 34.983811 
L 232.453578 35.190911 
L 235.23728 35.156319 
L 236.165181 35.124193 
L 239.258184 35.109637 
L 241.732586 35.166271 
L 242.351187 35.118914 
L 243.588388 35.092165 
L 247.299991 35.069591 
L 248.537192 35.074127 
L 252.248796 35.186176 
L 256.8883 35.237261 
L 258.125501 35.22912 
L 259.672002 35.197084 
L 262.455705 35.216201 
L 263.383606 35.185258 
L 264.930107 35.153274 
L 267.404509 35.028193 
L 270.188212 35.016268 
L 271.425413 34.981549 
L 274.518416 35.059615 
L 277.611418 35.101725 
L 283.488124 35.171577 
L 291.529931 35.244545 
L 298.334537 35.425824 
L 299.262438 35.366995 
L 306.067044 35.523282 
L 308.541446 35.551708 
L 312.25305 35.582817 
L 323.078559 35.601619 
L 323.69716 35.524835 
L 328.027364 35.509836 
L 329.573865 35.496947 
L 336.069171 35.462204 
L 341.636576 35.465032 
L 344.420279 35.521762 
L 345.65748 35.451034 
L 356.79229 35.468882 
L 361.741094 35.56749 
L 362.668995 35.478713 
L 384.010714 35.579941 
L 384.938615 35.555509 
L 394.836224 35.596176 
L 397.001326 35.560383 
L 400.403629 35.531697 
L 405.661734 35.518212 
L 416.796544 35.470266 
L 417.724445 35.433945 
L 422.982549 35.401987 
L 423.91045 35.378258 
L 434.42666 35.41036 
L 436.282461 35.429535 
L 448.345172 35.439326 
L 449.582373 35.41829 
L 480.821702 35.260988 
L 482.368203 35.246197 
L 486.389107 35.256534 
L 487.935608 35.236045 
L 492.884412 35.213231 
L 495.358815 35.148551 
L 498.761118 35.086572 
L 501.23552 35.084091 
L 505.875024 35.012579 
L 506.493625 34.973333 
L 506.493625 34.973333 
" clip-path="url(#p3608d465b6)" style="fill: none; stroke: #ff8c00; stroke-width: 1.5; stroke-linecap: square"/>
   </g>
   <g id="line2d_30">
    <path d="M 35.12 97 
L 35.4293 87.819555 
L 35.738601 86.605458 
L 36.357201 81.018008 
L 36.975802 80.219299 
L 37.285102 81.911016 
L 37.594402 82.133089 
L 37.903703 82.173094 
L 38.522303 84.533808 
L 38.831603 85.071044 
L 39.140904 85.889064 
L 39.759504 76.417726 
L 40.068804 76.990879 
L 40.378105 64.77667 
L 40.687405 47.837479 
L 40.996705 48.91347 
L 41.306006 50.700247 
L 41.924606 52.336262 
L 42.233906 47.553143 
L 42.543207 47.872803 
L 42.852507 43.131698 
L 43.161807 45.112642 
L 43.471108 45.751338 
L 44.399008 50.391537 
L 44.708309 51.62088 
L 45.017609 49.021104 
L 45.326909 48.218841 
L 46.25481 51.704226 
L 46.56411 47.35842 
L 46.873411 44.695398 
L 47.182711 45.995271 
L 47.492011 45.484637 
L 47.801311 46.526338 
L 48.110612 46.093152 
L 48.419912 47.112581 
L 48.729212 47.294965 
L 49.038513 48.374893 
L 49.347813 48.690531 
L 49.657113 49.687431 
L 49.966413 48.545076 
L 50.585014 49.484234 
L 50.894314 42.291552 
L 51.512915 44.222264 
L 51.822215 37.697775 
L 52.440816 39.519306 
L 52.750116 39.828992 
L 53.059416 39.12891 
L 53.368716 40.042928 
L 53.678017 36.153327 
L 54.296617 37.827497 
L 54.605918 29.085525 
L 54.915218 29.759268 
L 55.224518 30.772323 
L 55.533818 31.054192 
L 55.843119 31.147149 
L 56.152419 31.843186 
L 56.461719 31.764333 
L 56.77102 32.191609 
L 57.08032 26.334334 
L 57.38962 24.836182 
L 57.69892 25.170885 
L 58.008221 26.109611 
L 58.317521 18.298196 
L 58.626821 18.491205 
L 58.936121 19.220406 
L 59.554722 19.970233 
L 59.864022 16.903688 
L 60.173323 17.366872 
L 60.791923 18.7418 
L 61.101223 18.21567 
L 61.410524 19.07428 
L 61.719824 19.144066 
L 62.029124 16.6139 
L 62.647725 16.838134 
L 63.266325 17.847127 
L 63.884926 19.367432 
L 64.194226 19.507977 
L 65.122127 21.215001 
L 65.431427 21.667092 
L 66.050028 22.142946 
L 66.359328 22.47626 
L 67.287229 24.131948 
L 67.596529 24.498462 
L 68.21513 25.809386 
L 69.452331 26.923173 
L 69.761631 26.244282 
L 70.380232 27.284146 
L 70.689532 27.347811 
L 70.998832 27.924261 
L 71.308133 27.919272 
L 71.617433 26.899072 
L 71.926733 27.480647 
L 72.236033 27.691551 
L 72.545334 27.656107 
L 73.163934 28.762347 
L 73.473235 28.437617 
L 74.401135 29.871227 
L 74.710436 30.16421 
L 75.019736 29.780051 
L 76.566237 32.126408 
L 77.494138 32.665108 
L 77.803438 30.609027 
L 78.422039 31.398595 
L 78.731339 31.860566 
L 79.04064 30.054558 
L 79.65924 30.65215 
L 79.96854 30.730119 
L 80.277841 30.935464 
L 81.515042 32.53646 
L 81.824342 32.950996 
L 82.133642 32.825117 
L 83.370843 33.48686 
L 83.989444 34.14843 
L 84.298744 34.178098 
L 85.226645 34.990619 
L 87.082447 36.554782 
L 88.628948 37.782448 
L 89.556849 38.759807 
L 90.48475 38.920493 
L 90.79405 37.331681 
L 91.412651 37.377494 
L 91.721951 35.754679 
L 92.031251 35.225509 
L 92.340552 35.483858 
L 93.577753 35.73816 
L 94.196353 35.723904 
L 94.505654 36.041047 
L 94.814954 36.042961 
L 95.742855 36.620683 
L 96.670755 37.397323 
L 97.289356 37.684858 
L 97.598656 37.616134 
L 98.217257 37.84619 
L 98.526557 37.979375 
L 99.145158 38.447847 
L 99.763758 38.792206 
L 100.382359 39.009741 
L 100.691659 39.139592 
L 101.31026 39.636771 
L 101.61956 39.730195 
L 101.92886 39.5859 
L 102.23816 39.581725 
L 103.784662 40.451138 
L 104.403262 40.550209 
L 105.021863 40.823554 
L 105.331163 39.003305 
L 106.259064 39.576292 
L 108.424166 40.327095 
L 108.733466 40.562778 
L 109.042767 39.105991 
L 109.352067 39.03532 
L 109.661367 39.13638 
L 110.589268 39.800079 
L 111.517169 39.994309 
L 112.75437 40.7965 
L 113.06367 40.771213 
L 113.372971 40.863987 
L 113.991571 41.231212 
L 114.610172 41.20028 
L 115.538072 41.663942 
L 116.156673 41.79541 
L 116.465973 39.941166 
L 117.393874 40.462287 
L 118.012475 40.805037 
L 118.321775 40.180286 
L 120.177577 41.268775 
L 120.796177 41.40654 
L 121.105477 41.419761 
L 121.414778 41.618258 
L 121.724078 41.407165 
L 124.19848 42.608561 
L 125.126381 42.885231 
L 125.435681 43.069919 
L 125.744982 43.092009 
L 126.672882 43.622978 
L 126.982183 41.712611 
L 127.910084 42.056839 
L 128.219384 42.044757 
L 128.837984 42.316221 
L 130.075186 42.899459 
L 130.384486 43.071459 
L 130.693786 42.692183 
L 131.312387 42.783589 
L 131.621687 41.26895 
L 132.549588 41.747042 
L 132.858888 41.389167 
L 133.477489 41.684946 
L 133.786789 41.320392 
L 136.570491 41.77174 
L 137.807693 42.331495 
L 139.354194 42.526568 
L 139.972794 42.696498 
L 140.282095 41.236552 
L 141.209996 41.557676 
L 141.519296 40.929637 
L 141.828596 40.712143 
L 142.756497 41.022431 
L 143.375098 41.281113 
L 143.684398 40.063583 
L 144.612299 40.380743 
L 145.230899 40.623274 
L 146.777401 41.018808 
L 147.086701 41.052261 
L 147.396001 41.204322 
L 147.705301 41.148377 
L 148.633202 41.441956 
L 148.942503 41.460271 
L 150.798304 42.175659 
L 152.344806 42.562743 
L 152.654106 40.973834 
L 153.582007 41.320663 
L 153.891307 41.246366 
L 154.200607 41.374816 
L 154.509908 40.34979 
L 154.819208 40.415824 
L 155.128508 39.954566 
L 155.747109 39.849356 
L 156.056409 39.786934 
L 156.98431 40.034774 
L 157.29361 39.789446 
L 158.530811 40.267765 
L 158.840111 40.406256 
L 159.458712 40.501732 
L 160.077313 40.774877 
L 160.386613 40.747478 
L 161.623814 41.132517 
L 162.242415 41.235487 
L 163.479616 41.530241 
L 164.407516 41.807304 
L 165.026117 42.05718 
L 165.335417 41.804623 
L 166.263318 41.832231 
L 166.881919 41.970011 
L 167.191219 41.969637 
L 167.500519 42.082335 
L 167.80982 42.057069 
L 168.11912 42.152236 
L 168.42842 41.142294 
L 168.73772 40.962532 
L 169.356321 41.018317 
L 170.593522 41.434873 
L 172.449324 42.029285 
L 172.758624 41.411294 
L 174.305125 41.813089 
L 174.614426 36.50509 
L 176.160927 37.030003 
L 176.779528 37.136229 
L 178.94463 37.925984 
L 179.56323 38.135396 
L 180.181831 38.277376 
L 180.491131 37.865582 
L 181.109732 37.977922 
L 181.728332 38.015931 
L 182.346933 38.178545 
L 182.965533 38.197689 
L 184.512035 38.646351 
L 184.821335 38.549196 
L 185.130635 38.66878 
L 185.439935 38.17838 
L 186.058536 38.285136 
L 188.223638 38.729189 
L 188.842239 36.864784 
L 189.460839 37.058541 
L 189.770139 36.782399 
L 190.07944 36.818337 
L 190.38874 36.520748 
L 192.244542 36.93674 
L 193.172442 37.177246 
L 193.791043 37.312971 
L 194.718944 37.589319 
L 195.337544 37.68352 
L 196.574745 38.022399 
L 197.193346 38.159206 
L 197.502646 37.827179 
L 198.739847 38.15902 
L 199.049148 37.581262 
L 200.286349 37.901318 
L 201.21425 38.117989 
L 201.83285 38.185205 
L 203.688652 38.730544 
L 203.997952 38.806803 
L 204.307252 38.752986 
L 205.235153 38.960115 
L 205.544454 38.775545 
L 207.090955 39.21124 
L 208.946757 39.561467 
L 209.256057 39.384323 
L 210.802558 39.637592 
L 211.111859 39.540107 
L 212.039759 39.773967 
L 212.65836 39.836004 
L 212.96766 38.407636 
L 213.586261 38.135455 
L 213.895561 38.209528 
L 214.204861 37.993657 
L 217.297864 38.713223 
L 217.607164 38.556361 
L 218.225765 38.645552 
L 218.535065 38.741125 
L 218.844366 38.680382 
L 219.153666 38.773038 
L 219.462966 37.902144 
L 220.081567 37.926489 
L 222.246669 38.256665 
L 222.555969 37.872818 
L 223.174569 37.967682 
L 224.10247 38.080794 
L 224.411771 37.398559 
L 227.504773 38.059143 
L 227.814074 37.390368 
L 228.123374 36.438262 
L 229.051275 36.611322 
L 229.669875 36.674888 
L 230.288476 36.77932 
L 231.525677 36.93674 
L 232.453578 37.087596 
L 234.000079 37.328284 
L 234.309379 36.658076 
L 235.23728 36.872382 
L 235.546581 36.890145 
L 235.855881 35.979567 
L 236.474481 36.058347 
L 237.402382 36.177045 
L 237.711683 36.040808 
L 238.639583 36.202692 
L 240.186085 36.540403 
L 240.804685 36.614898 
L 241.732586 36.79366 
L 242.041886 36.309628 
L 242.969787 36.504635 
L 243.279088 36.100709 
L 244.206988 36.298063 
L 244.825589 36.210638 
L 245.134889 36.181158 
L 246.37209 36.487097 
L 246.990691 36.576678 
L 247.299991 36.655832 
L 247.918592 36.674558 
L 252.867396 37.524122 
L 253.176696 37.374869 
L 253.485997 37.3968 
L 253.795297 37.293198 
L 254.723198 37.495573 
L 256.269699 37.813866 
L 257.5069 37.93821 
L 257.816201 37.990634 
L 258.125501 37.625308 
L 259.362702 37.63686 
L 262.455705 38.066051 
L 262.765005 37.802654 
L 263.692906 38.006892 
L 264.002206 37.457696 
L 265.548708 37.673837 
L 265.858008 36.436507 
L 266.476608 36.411559 
L 266.785909 36.252693 
L 267.71381 36.402827 
L 268.02311 35.91002 
L 270.188212 36.050807 
L 270.497512 35.94542 
L 272.971914 36.200759 
L 274.209115 36.411667 
L 276.374217 36.713443 
L 276.683518 36.426931 
L 278.230019 36.712659 
L 278.84862 36.731722 
L 279.15792 36.462163 
L 282.869523 37.079401 
L 283.178824 36.874996 
L 284.725325 37.191841 
L 285.034625 37.068751 
L 286.271826 37.253385 
L 286.581127 37.178937 
L 288.436928 37.494857 
L 296.788036 38.763712 
L 297.715937 38.827964 
L 298.334537 38.932699 
L 298.643837 38.57953 
L 299.571738 38.682382 
L 306.994945 39.210479 
L 308.850747 39.488546 
L 311.325149 39.809022 
L 311.634449 39.407684 
L 311.943749 39.430427 
L 312.25305 39.339643 
L 313.799551 39.558761 
L 314.108851 39.338539 
L 316.273953 39.607559 
L 316.892554 39.639006 
L 317.201854 38.813115 
L 317.511154 38.668573 
L 320.604157 38.988531 
L 322.769259 39.293536 
L 323.078559 39.22999 
L 323.38786 37.619456 
L 324.00646 37.734771 
L 324.315761 37.626052 
L 324.625061 37.68111 
L 325.243661 37.631026 
L 326.790163 37.895108 
L 327.408763 37.872208 
L 328.027364 37.980039 
L 328.645964 37.976027 
L 329.573865 38.052355 
L 331.120367 38.310926 
L 331.429667 38.053085 
L 331.738967 38.100226 
L 332.048268 37.981982 
L 334.52267 38.150242 
L 334.83197 38.067497 
L 337.615673 38.512797 
L 337.924973 38.435009 
L 339.471474 38.664208 
L 339.780775 38.482455 
L 341.636576 38.717533 
L 342.564477 38.835692 
L 344.420279 39.080327 
L 344.729579 38.620326 
L 348.441182 38.948075 
L 349.369083 38.76453 
L 351.224885 38.994193 
L 351.534185 38.852421 
L 352.462086 38.98272 
L 353.080686 38.919184 
L 354.008587 39.078699 
L 354.317888 38.708386 
L 356.48299 38.991509 
L 357.41089 39.047831 
L 359.885293 39.368393 
L 361.741094 39.577776 
L 362.050395 38.619117 
L 362.359695 38.674008 
L 362.668995 38.449019 
L 363.906196 38.558835 
L 365.761998 38.758616 
L 366.999199 38.834012 
L 367.6178 38.84452 
L 369.473601 38.972773 
L 369.782902 38.769751 
L 371.329403 38.932371 
L 371.638703 38.778643 
L 375.350307 39.155852 
L 376.587508 39.263432 
L 376.896808 39.278835 
L 377.206108 39.180868 
L 377.515409 39.220711 
L 377.824709 39.064529 
L 383.082814 39.508651 
L 383.392114 39.144542 
L 384.010714 39.206316 
L 384.320015 38.883431 
L 386.175816 39.077257 
L 389.578119 39.162364 
L 390.19672 39.13587 
L 391.743221 39.242259 
L 392.671122 39.340272 
L 394.217624 39.503146 
L 394.836224 39.46038 
L 396.382726 39.264189 
L 398.857128 39.354459 
L 399.475728 39.31591 
L 401.950131 39.589747 
L 403.496632 39.556507 
L 404.115232 39.551183 
L 404.424533 39.249831 
L 406.898935 39.548464 
L 407.208235 39.30843 
L 408.754737 39.448523 
L 410.301238 39.609195 
L 411.538439 39.709147 
L 412.15704 39.641068 
L 412.46634 39.249177 
L 414.631442 39.43557 
L 414.940742 39.456094 
L 415.250043 39.041893 
L 416.177943 39.052582 
L 416.796544 39.019114 
L 417.105844 38.519623 
L 420.817448 38.912878 
L 421.126748 37.939418 
L 421.436048 37.964702 
L 421.745348 37.841046 
L 422.673249 37.874755 
L 422.982549 37.896229 
L 423.29185 37.565094 
L 424.529051 37.731209 
L 424.838351 37.266211 
L 426.694153 37.461441 
L 428.549954 37.44951 
L 433.189459 37.890111 
L 433.808059 37.846317 
L 434.73596 37.883027 
L 437.828963 38.152345 
L 438.138263 37.749877 
L 440.612665 37.925123 
L 441.849866 38.015336 
L 444.633569 38.301103 
L 445.25217 38.363261 
L 445.56147 38.124249 
L 448.345172 38.458763 
L 448.654473 38.150418 
L 450.510274 38.321553 
L 450.819575 38.337641 
L 451.128875 38.102307 
L 455.768379 38.607341 
L 456.077679 38.326774 
L 457.00558 38.413333 
L 458.242781 38.475964 
L 460.098583 38.521103 
L 460.407883 38.308901 
L 461.026484 38.256575 
L 462.572985 38.363346 
L 462.882285 38.405653 
L 463.191586 37.975911 
L 465.975288 38.115843 
L 466.284588 37.832477 
L 466.903189 37.848012 
L 469.377591 38.068535 
L 474.635696 38.28915 
L 474.944996 38.168216 
L 478.9659 38.447768 
L 479.893801 38.478245 
L 480.512401 38.19294 
L 480.821702 37.70204 
L 481.131002 37.537293 
L 483.914704 37.625585 
L 485.151905 37.741623 
L 486.389107 37.67912 
L 486.698407 37.439095 
L 490.41001 37.798763 
L 490.719311 37.727602 
L 491.028611 37.327347 
L 491.337911 37.233968 
L 492.884412 37.402721 
L 493.503013 37.209791 
L 493.812313 37.24548 
L 494.121614 36.859844 
L 495.668115 36.950775 
L 497.523917 37.070374 
L 498.142517 37.108985 
L 498.451817 36.412638 
L 498.761118 36.174841 
L 499.689019 36.149366 
L 501.854121 36.344346 
L 502.163421 36.042354 
L 503.091322 36.06946 
L 503.400622 35.304772 
L 504.019222 35.379471 
L 504.637823 35.232666 
L 505.875024 35.323728 
L 506.184324 34.962458 
L 506.493625 34.973333 
L 506.493625 34.973333 
" clip-path="url(#p3608d465b6)" style="fill: none; stroke-dasharray: 5.55,2.4; stroke-dashoffset: 0; stroke: #ff8c00; stroke-width: 1.5"/>
   </g>
   <g id="patch_3">
    <path d="M 35.12 97 
L 35.12 3.96 
" style="fill: none; stroke: #000000; stroke-width: 0.8; stroke-linejoin: miter; stroke-linecap: square"/>
   </g>
   <g id="patch_4">
    <path d="M 530.062306 97 
L 530.062306 3.96 
" style="fill: none; stroke: #000000; stroke-width: 0.8; stroke-linejoin: miter; stroke-linecap: square"/>
   </g>
   <g id="patch_5">
    <path d="M 35.12 97 
L 530.062306 97 
" style="fill: none; stroke: #000000; stroke-width: 0.8; stroke-linejoin: miter; stroke-linecap: square"/>
   </g>
   <g id="patch_6">
    <path d="M 35.12 3.96 
L 530.062306 3.96 
" style="fill: none; stroke: #000000; stroke-width: 0.8; stroke-linejoin: miter; stroke-linecap: square"/>
   </g>
  </g>
 </g>
 <defs>
  <clipPath id="p3608d465b6">
   <rect x="35.12" y="3.96" width="494.942306" height="93.04"/>
  </clipPath>
 </defs>
</svg>
