<?xml version="1.0" encoding="utf-8" standalone="no"?>
<!DOCTYPE svg PUBLIC "-//W3C//DTD SVG 1.1//EN"
  "http://www.w3.org/Graphics/SVG/1.1/DTD/svg11.dtd">
<svg xmlns:xlink="http://www.w3.org/1999/xlink" width="540pt" height="129.6pt" viewBox="0 0 540 129.6" xmlns="http://www.w3.org/2000/svg" version="1.1">
 <metadata>
  <rdf:RDF xmlns:dc="http://purl.org/dc/elements/1.1/" xmlns:cc="http://creativecommons.org/ns#" xmlns:rdf="http://www.w3.org/1999/02/22-rdf-syntax-ns#">
   <cc:Work>
    <dc:type rdf:resource="http://purl.org/dc/dcmitype/StillImage"/>
    <dc:date>2025-04-05T19:48:53.414061</dc:date>
    <dc:format>image/svg+xml</dc:format>
    <dc:creator>
     <cc:Agent>
      <dc:title>Matplotlib v3.10.1, https://matplotlib.org/</dc:title>
     </cc:Agent>
    </dc:creator>
   </cc:Work>
  </rdf:RDF>
 </metadata>
 <defs>
  <style type="text/css">*{stroke-linejoin: round; stroke-linecap: butt}</style>
 </defs>
 <g id="figure_1">
  <g id="patch_1">
   <path d="M 0 129.6 
L 540 129.6 
L 540 0 
L 0 0 
z
" style="fill: #ffffff"/>
  </g>
  <g id="axes_1">
   <g id="patch_2">
    <path d="M 34.31 98.44 
L 540 98.44 
L 540 3.6 
L 34.31 3.6 
z
" style="fill: #ffffff"/>
   </g>
   <g id="matplotlib.axis_1">
    <g id="xtick_1">
     <g id="line2d_1">
      <path d="M 34.31 98.44 
L 34.31 3.6 
" clip-path="url(#peb0cfcbf4c)" style="fill: none; stroke: #b0b0b0; stroke-width: 0.8; stroke-linecap: square"/>
     </g>
     <g id="line2d_2">
      <defs>
       <path id="m7a2703c2d1" d="M 0 0 
L 0 3.5 
" style="stroke: #000000; stroke-width: 0.8"/>
      </defs>
      <g>
       <use xlink:href="#m7a2703c2d1" x="34.31" y="98.44" style="stroke: #000000; stroke-width: 0.8"/>
      </g>
     </g>
     <g id="text_1">
      <text style="font-size: 10px; font-family: 'Times New Roman'; text-anchor: middle" x="34.31" y="112.38375" transform="rotate(-0 34.31 112.38375)">0</text>
     </g>
    </g>
    <g id="xtick_2">
     <g id="line2d_3">
      <path d="M 94.662071 98.44 
L 94.662071 3.6 
" clip-path="url(#peb0cfcbf4c)" style="fill: none; stroke: #b0b0b0; stroke-width: 0.8; stroke-linecap: square"/>
     </g>
     <g id="line2d_4">
      <g>
       <use xlink:href="#m7a2703c2d1" x="94.662071" y="98.44" style="stroke: #000000; stroke-width: 0.8"/>
      </g>
     </g>
     <g id="text_2">
      <text style="font-size: 10px; font-family: 'Times New Roman'; text-anchor: middle" x="94.662071" y="112.38375" transform="rotate(-0 94.662071 112.38375)">50</text>
     </g>
    </g>
    <g id="xtick_3">
     <g id="line2d_5">
      <path d="M 155.014141 98.44 
L 155.014141 3.6 
" clip-path="url(#peb0cfcbf4c)" style="fill: none; stroke: #b0b0b0; stroke-width: 0.8; stroke-linecap: square"/>
     </g>
     <g id="line2d_6">
      <g>
       <use xlink:href="#m7a2703c2d1" x="155.014141" y="98.44" style="stroke: #000000; stroke-width: 0.8"/>
      </g>
     </g>
     <g id="text_3">
      <text style="font-size: 10px; font-family: 'Times New Roman'; text-anchor: middle" x="155.014141" y="112.38375" transform="rotate(-0 155.014141 112.38375)">100</text>
     </g>
    </g>
    <g id="xtick_4">
     <g id="line2d_7">
      <path d="M 215.366212 98.44 
L 215.366212 3.6 
" clip-path="url(#peb0cfcbf4c)" style="fill: none; stroke: #b0b0b0; stroke-width: 0.8; stroke-linecap: square"/>
     </g>
     <g id="line2d_8">
      <g>
       <use xlink:href="#m7a2703c2d1" x="215.366212" y="98.44" style="stroke: #000000; stroke-width: 0.8"/>
      </g>
     </g>
     <g id="text_4">
      <text style="font-size: 10px; font-family: 'Times New Roman'; text-anchor: middle" x="215.366212" y="112.38375" transform="rotate(-0 215.366212 112.38375)">150</text>
     </g>
    </g>
    <g id="xtick_5">
     <g id="line2d_9">
      <path d="M 275.718283 98.44 
L 275.718283 3.6 
" clip-path="url(#peb0cfcbf4c)" style="fill: none; stroke: #b0b0b0; stroke-width: 0.8; stroke-linecap: square"/>
     </g>
     <g id="line2d_10">
      <g>
       <use xlink:href="#m7a2703c2d1" x="275.718283" y="98.44" style="stroke: #000000; stroke-width: 0.8"/>
      </g>
     </g>
     <g id="text_5">
      <text style="font-size: 10px; font-family: 'Times New Roman'; text-anchor: middle" x="275.718283" y="112.38375" transform="rotate(-0 275.718283 112.38375)">200</text>
     </g>
    </g>
    <g id="xtick_6">
     <g id="line2d_11">
      <path d="M 336.070353 98.44 
L 336.070353 3.6 
" clip-path="url(#peb0cfcbf4c)" style="fill: none; stroke: #b0b0b0; stroke-width: 0.8; stroke-linecap: square"/>
     </g>
     <g id="line2d_12">
      <g>
       <use xlink:href="#m7a2703c2d1" x="336.070353" y="98.44" style="stroke: #000000; stroke-width: 0.8"/>
      </g>
     </g>
     <g id="text_6">
      <text style="font-size: 10px; font-family: 'Times New Roman'; text-anchor: middle" x="336.070353" y="112.38375" transform="rotate(-0 336.070353 112.38375)">250</text>
     </g>
    </g>
    <g id="xtick_7">
     <g id="line2d_13">
      <path d="M 396.422424 98.44 
L 396.422424 3.6 
" clip-path="url(#peb0cfcbf4c)" style="fill: none; stroke: #b0b0b0; stroke-width: 0.8; stroke-linecap: square"/>
     </g>
     <g id="line2d_14">
      <g>
       <use xlink:href="#m7a2703c2d1" x="396.422424" y="98.44" style="stroke: #000000; stroke-width: 0.8"/>
      </g>
     </g>
     <g id="text_7">
      <text style="font-size: 10px; font-family: 'Times New Roman'; text-anchor: middle" x="396.422424" y="112.38375" transform="rotate(-0 396.422424 112.38375)">300</text>
     </g>
    </g>
    <g id="xtick_8">
     <g id="line2d_15">
      <path d="M 456.774495 98.44 
L 456.774495 3.6 
" clip-path="url(#peb0cfcbf4c)" style="fill: none; stroke: #b0b0b0; stroke-width: 0.8; stroke-linecap: square"/>
     </g>
     <g id="line2d_16">
      <g>
       <use xlink:href="#m7a2703c2d1" x="456.774495" y="98.44" style="stroke: #000000; stroke-width: 0.8"/>
      </g>
     </g>
     <g id="text_8">
      <text style="font-size: 10px; font-family: 'Times New Roman'; text-anchor: middle" x="456.774495" y="112.38375" transform="rotate(-0 456.774495 112.38375)">350</text>
     </g>
    </g>
    <g id="xtick_9">
     <g id="line2d_17">
      <path d="M 517.126565 98.44 
L 517.126565 3.6 
" clip-path="url(#peb0cfcbf4c)" style="fill: none; stroke: #b0b0b0; stroke-width: 0.8; stroke-linecap: square"/>
     </g>
     <g id="line2d_18">
      <g>
       <use xlink:href="#m7a2703c2d1" x="517.126565" y="98.44" style="stroke: #000000; stroke-width: 0.8"/>
      </g>
     </g>
     <g id="text_9">
      <text style="font-size: 10px; font-family: 'Times New Roman'; text-anchor: middle" x="517.126565" y="112.38375" transform="rotate(-0 517.126565 112.38375)">400</text>
     </g>
    </g>
    <g id="text_10">
     <text style="font-size: 12px; font-family: 'Times New Roman'; text-anchor: middle" x="287.155" y="126.855312" transform="rotate(-0 287.155 126.855312)">Simulation Run</text>
    </g>
   </g>
   <g id="matplotlib.axis_2">
    <g id="ytick_1">
     <g id="line2d_19">
      <path d="M 34.31 98.44 
L 540 98.44 
" clip-path="url(#peb0cfcbf4c)" style="fill: none; stroke: #b0b0b0; stroke-width: 0.8; stroke-linecap: square"/>
     </g>
     <g id="line2d_20">
      <defs>
       <path id="mec3b6636f5" d="M 0 0 
L -3.5 0 
" style="stroke: #000000; stroke-width: 0.8"/>
      </defs>
      <g>
       <use xlink:href="#mec3b6636f5" x="34.31" y="98.44" style="stroke: #000000; stroke-width: 0.8"/>
      </g>
     </g>
     <g id="text_11">
      <text style="font-size: 10px; font-family: 'Times New Roman'; text-anchor: end" x="27.31" y="101.911875" transform="rotate(-0 27.31 101.911875)">0.0</text>
     </g>
    </g>
    <g id="ytick_2">
     <g id="line2d_21">
      <path d="M 34.31 66.826667 
L 540 66.826667 
" clip-path="url(#peb0cfcbf4c)" style="fill: none; stroke: #b0b0b0; stroke-width: 0.8; stroke-linecap: square"/>
     </g>
     <g id="line2d_22">
      <g>
       <use xlink:href="#mec3b6636f5" x="34.31" y="66.826667" style="stroke: #000000; stroke-width: 0.8"/>
      </g>
     </g>
     <g id="text_12">
      <text style="font-size: 10px; font-family: 'Times New Roman'; text-anchor: end" x="27.31" y="70.298542" transform="rotate(-0 27.31 70.298542)">0.5</text>
     </g>
    </g>
    <g id="ytick_3">
     <g id="line2d_23">
      <path d="M 34.31 35.213333 
L 540 35.213333 
" clip-path="url(#peb0cfcbf4c)" style="fill: none; stroke: #b0b0b0; stroke-width: 0.8; stroke-linecap: square"/>
     </g>
     <g id="line2d_24">
      <g>
       <use xlink:href="#mec3b6636f5" x="34.31" y="35.213333" style="stroke: #000000; stroke-width: 0.8"/>
      </g>
     </g>
     <g id="text_13">
      <text style="font-size: 10px; font-family: 'Times New Roman'; text-anchor: end" x="27.31" y="38.685208" transform="rotate(-0 27.31 38.685208)">1.0</text>
     </g>
    </g>
    <g id="ytick_4">
     <g id="line2d_25">
      <path d="M 34.31 3.6 
L 540 3.6 
" clip-path="url(#peb0cfcbf4c)" style="fill: none; stroke: #b0b0b0; stroke-width: 0.8; stroke-linecap: square"/>
     </g>
     <g id="line2d_26">
      <g>
       <use xlink:href="#mec3b6636f5" x="34.31" y="3.6" style="stroke: #000000; stroke-width: 0.8"/>
      </g>
     </g>
     <g id="text_14">
      <text style="font-size: 10px; font-family: 'Times New Roman'; text-anchor: end" x="27.31" y="7.071875" transform="rotate(-0 27.31 7.071875)">1.5</text>
     </g>
    </g>
    <g id="text_15">
     <text style="font-size: 12px; font-family: 'Times New Roman'; text-anchor: middle" x="8.243125" y="51.02" transform="rotate(-90 8.243125 51.02)">Normalized Value</text>
    </g>
   </g>
   <g id="line2d_27">
    <path d="M 34.31 42.163555 
L 35.517041 52.224615 
L 36.724083 45.614239 
L 37.931124 43.685318 
L 39.138166 42.562524 
L 40.345207 42.277022 
L 42.75929 43.913712 
L 43.966331 42.920764 
L 45.173373 42.075342 
L 46.380414 40.385178 
L 47.587456 37.768337 
L 48.794497 36.65013 
L 50.001538 37.14377 
L 51.20858 36.091996 
L 52.415621 36.004078 
L 54.829704 36.231123 
L 56.036745 34.561065 
L 57.243787 33.203447 
L 58.450828 33.652439 
L 59.65787 33.954774 
L 62.071953 35.006961 
L 63.278994 34.567922 
L 64.486035 34.554369 
L 65.693077 33.301953 
L 66.900118 34.631701 
L 68.10716 34.553246 
L 69.314201 34.195406 
L 70.521242 34.384303 
L 71.728284 35.162605 
L 72.935325 35.174942 
L 74.142367 35.651541 
L 75.349408 36.332994 
L 76.556449 36.533858 
L 77.763491 37.259569 
L 78.970532 37.131839 
L 80.177574 36.488077 
L 81.384615 36.302435 
L 82.591657 35.838032 
L 83.798698 36.246495 
L 86.212781 36.537535 
L 87.419822 36.214401 
L 88.626864 36.637927 
L 89.833905 36.393864 
L 91.040946 36.366064 
L 92.247988 36.020295 
L 93.455029 36.066192 
L 94.662071 35.911341 
L 95.869112 36.229916 
L 97.076153 36.127243 
L 98.283195 35.738686 
L 99.490236 35.973113 
L 100.697278 35.988676 
L 101.904319 36.138652 
L 103.111361 36.049353 
L 104.318402 35.682231 
L 105.525443 35.485135 
L 107.939526 35.359036 
L 110.353609 34.911221 
L 111.56065 34.561103 
L 113.974733 34.495872 
L 115.181775 34.763552 
L 116.388816 34.797284 
L 117.595858 34.433963 
L 118.802899 34.693504 
L 120.00994 34.622937 
L 121.216982 34.977675 
L 123.631065 35.212757 
L 124.838106 35.369365 
L 126.045147 35.250594 
L 127.252189 35.016684 
L 128.45923 35.193814 
L 130.873313 35.237606 
L 132.080354 35.618577 
L 134.494437 35.430245 
L 136.90852 35.650235 
L 138.115562 35.524397 
L 139.322603 35.28233 
L 140.529644 35.190022 
L 142.943727 35.263846 
L 145.35781 35.341402 
L 146.564851 35.135601 
L 150.185976 35.554251 
L 151.393017 35.605682 
L 152.600058 35.364516 
L 155.014141 35.22368 
L 156.221183 35.377891 
L 157.428224 35.379314 
L 158.635266 35.50476 
L 159.842307 35.485676 
L 161.049348 35.775249 
L 163.463431 36.128419 
L 167.084555 36.037203 
L 168.291597 36.255742 
L 171.912721 36.476099 
L 173.119763 36.765348 
L 176.740887 36.3605 
L 177.947928 36.487417 
L 179.15497 36.372894 
L 180.362011 36.374323 
L 181.569052 36.546458 
L 185.190177 36.487695 
L 186.397218 36.439582 
L 188.811301 36.068216 
L 190.018342 35.882289 
L 192.432425 36.008575 
L 196.053549 36.03823 
L 197.260591 36.222553 
L 198.467632 36.222133 
L 199.674674 36.057232 
L 204.502839 36.154837 
L 211.745088 36.024983 
L 214.159171 36.275988 
L 216.573253 36.158036 
L 218.987336 35.894548 
L 220.194378 35.794836 
L 221.401419 35.491509 
L 222.60846 35.538897 
L 229.850709 35.187094 
L 233.471833 35.313382 
L 234.678875 35.192632 
L 237.092957 35.26292 
L 241.921123 35.328491 
L 244.335206 35.232256 
L 246.749289 35.377466 
L 249.163372 35.400118 
L 252.784496 35.576701 
L 255.198579 35.499428 
L 261.233786 35.546403 
L 263.647868 35.71668 
L 269.683076 35.698504 
L 272.097158 35.487135 
L 273.3042 35.576765 
L 278.132365 35.448481 
L 279.339407 35.54982 
L 285.374614 35.482104 
L 286.581655 35.240317 
L 290.20278 35.229306 
L 292.616862 35.248546 
L 295.030945 35.185642 
L 297.445028 34.944206 
L 317.964732 35.201205 
L 319.171773 35.076455 
L 321.585856 35.109575 
L 322.792898 34.945043 
L 323.999939 35.004661 
L 325.206981 34.921591 
L 328.828105 35.029963 
L 336.070353 35.205524 
L 346.933726 35.32672 
L 349.347809 35.332476 
L 360.211182 35.280416 
L 362.625264 35.266428 
L 365.039347 35.172225 
L 367.45343 35.168698 
L 374.695678 35.252027 
L 377.109761 35.287201 
L 379.523844 35.415431 
L 381.937927 35.382851 
L 385.559051 35.436632 
L 387.973134 35.35095 
L 395.215383 35.400785 
L 398.836507 35.3944 
L 402.457631 35.429163 
L 412.113962 35.449318 
L 413.321004 35.555973 
L 425.391418 35.495261 
L 427.805501 35.507761 
L 430.219583 35.464956 
L 460.395619 35.50951 
L 467.637867 35.605962 
L 474.880116 35.602973 
L 477.294199 35.619434 
L 479.708281 35.485724 
L 483.329406 35.475085 
L 485.743488 35.420583 
L 488.157571 35.363959 
L 494.192778 35.369242 
L 499.020944 35.392674 
L 502.642068 35.360445 
L 506.263193 35.411666 
L 509.884317 35.369647 
L 512.2984 35.37641 
L 515.919524 35.213333 
L 515.919524 35.213333 
" clip-path="url(#peb0cfcbf4c)" style="fill: none; stroke: #4169e1; stroke-width: 1.5; stroke-linecap: square"/>
   </g>
   <g id="line2d_28">
    <path d="M 34.31 98.44 
L 35.517041 66.059578 
L 36.724083 48.896902 
L 37.931124 57.712041 
L 39.138166 64.244557 
L 40.345207 69.813426 
L 41.552248 72.730498 
L 42.75929 74.306844 
L 43.966331 74.465187 
L 45.173373 74.804954 
L 46.380414 67.81556 
L 47.587456 46.271744 
L 48.794497 45.484915 
L 50.001538 48.254072 
L 51.20858 46.645659 
L 52.415621 49.845717 
L 53.622663 52.619112 
L 54.829704 55.112378 
L 56.036745 41.333327 
L 57.243787 32.986447 
L 58.450828 34.813543 
L 59.65787 37.091621 
L 62.071953 38.306457 
L 63.278994 39.231969 
L 64.486035 41.507732 
L 65.693077 30.570693 
L 66.900118 17.722534 
L 68.10716 20.450763 
L 69.314201 21.862527 
L 70.521242 23.990341 
L 71.728284 20.309953 
L 72.935325 22.675972 
L 74.142367 22.506518 
L 75.349408 19.625409 
L 76.556449 21.362987 
L 77.763491 17.381227 
L 78.970532 19.321252 
L 80.177574 16.312271 
L 81.384615 17.935521 
L 82.591657 17.139452 
L 83.798698 16.88699 
L 86.212781 20.024619 
L 87.419822 20.297539 
L 88.626864 19.414215 
L 89.833905 20.219104 
L 91.040946 21.837086 
L 92.247988 21.564684 
L 93.455029 23.069172 
L 94.662071 24.16351 
L 95.869112 23.936184 
L 97.076153 25.166566 
L 98.283195 23.963836 
L 99.490236 24.368652 
L 100.697278 25.687093 
L 101.904319 26.560534 
L 103.111361 27.654436 
L 104.318402 26.353595 
L 105.525443 26.821864 
L 107.939526 28.979169 
L 109.146568 29.315215 
L 110.353609 29.123379 
L 111.56065 27.680187 
L 113.974733 29.747463 
L 115.181775 29.221967 
L 116.388816 30.200375 
L 117.595858 28.261655 
L 118.802899 27.741721 
L 120.00994 28.610543 
L 121.216982 26.668824 
L 122.424023 27.435907 
L 123.631065 27.906046 
L 124.838106 28.245706 
L 126.045147 28.814371 
L 127.252189 28.359339 
L 128.45923 28.463593 
L 130.873313 30.163572 
L 132.080354 27.235553 
L 133.287396 27.567183 
L 134.494437 28.35303 
L 135.701479 28.508302 
L 136.90852 29.216372 
L 138.115562 29.576413 
L 139.322603 28.728215 
L 141.736686 29.839205 
L 144.150769 31.300576 
L 145.35781 31.957207 
L 146.564851 31.404467 
L 148.978934 31.514276 
L 150.185976 31.715939 
L 151.393017 32.314721 
L 152.600058 31.159374 
L 155.014141 32.172138 
L 156.221183 32.053495 
L 157.428224 32.697958 
L 158.635266 32.811597 
L 159.842307 33.424512 
L 161.049348 31.221425 
L 162.25639 30.901655 
L 163.463431 30.343307 
L 165.877514 31.569885 
L 167.084555 31.992559 
L 168.291597 30.890023 
L 169.498638 31.133172 
L 170.70568 30.605156 
L 171.912721 31.08457 
L 173.119763 28.587441 
L 174.326804 28.501876 
L 175.533845 29.003196 
L 176.740887 27.762968 
L 179.15497 27.819626 
L 180.362011 28.398402 
L 181.569052 27.811495 
L 183.983135 28.937406 
L 186.397218 29.725628 
L 187.604259 28.221719 
L 188.811301 27.878374 
L 190.018342 26.994669 
L 191.225384 27.307554 
L 193.639467 28.240609 
L 196.053549 29.193417 
L 197.260591 28.235383 
L 198.467632 28.747817 
L 199.674674 28.061148 
L 203.295798 29.46067 
L 208.123963 31.253727 
L 209.331005 31.034737 
L 210.538046 31.326068 
L 211.745088 31.740927 
L 212.952129 31.084614 
L 214.159171 31.073074 
L 215.366212 31.504031 
L 216.573253 31.459791 
L 217.780295 30.357812 
L 218.987336 30.441828 
L 220.194378 30.390737 
L 221.401419 26.265035 
L 222.60846 26.612689 
L 223.815502 26.770543 
L 225.022543 26.246699 
L 231.05775 28.089496 
L 232.264792 28.330455 
L 233.471833 28.719545 
L 234.678875 28.362793 
L 235.885916 28.779506 
L 237.092957 28.904792 
L 239.50704 29.598674 
L 241.921123 29.475491 
L 244.335206 30.007341 
L 245.542247 30.009853 
L 246.749289 30.179078 
L 249.163372 30.866485 
L 250.370413 31.006329 
L 251.577454 31.37885 
L 252.784496 31.004329 
L 253.991537 30.994329 
L 257.612661 32.062147 
L 258.819703 32.247882 
L 261.233786 32.334341 
L 262.440827 31.720989 
L 264.85491 32.287042 
L 269.683076 33.445583 
L 270.890117 33.311513 
L 272.097158 32.650385 
L 273.3042 32.472158 
L 278.132365 33.296278 
L 279.339407 32.948735 
L 280.546448 33.246935 
L 284.167573 33.821134 
L 285.374614 33.615503 
L 286.581655 30.015733 
L 290.20278 30.756186 
L 292.616862 31.147547 
L 295.030945 31.631604 
L 296.237987 29.866859 
L 297.445028 29.850853 
L 298.652069 30.148531 
L 299.859111 30.139134 
L 303.480235 30.996671 
L 305.894318 31.490199 
L 307.101359 31.534901 
L 311.929525 32.58583 
L 313.136566 32.63736 
L 314.343608 32.491767 
L 317.964732 33.105199 
L 319.171773 32.206007 
L 321.585856 32.713454 
L 322.792898 30.917667 
L 323.999939 30.924964 
L 325.206981 30.671958 
L 326.414022 30.55856 
L 327.621063 30.83088 
L 333.65627 31.488524 
L 337.277395 31.93724 
L 338.484436 31.372271 
L 340.898519 31.822047 
L 342.10556 31.459912 
L 343.312602 31.720498 
L 344.519643 31.569078 
L 346.933726 32.055225 
L 349.347809 32.337749 
L 350.55485 32.561745 
L 351.761892 31.911556 
L 354.175974 32.262803 
L 355.383016 32.50444 
L 357.797099 32.862091 
L 361.418223 33.425883 
L 362.625264 33.447543 
L 363.832306 32.983439 
L 365.039347 33.219617 
L 368.660471 33.526226 
L 371.074554 33.945767 
L 373.488637 33.989296 
L 377.109761 34.512825 
L 379.523844 34.205313 
L 380.730886 34.209956 
L 381.937927 34.408048 
L 384.35201 34.558466 
L 385.559051 34.718613 
L 386.766093 34.238693 
L 390.387217 34.832017 
L 391.594258 34.993462 
L 394.008341 35.021297 
L 398.836507 35.739861 
L 401.25059 35.886817 
L 404.871714 36.363717 
L 406.078755 36.132394 
L 407.285797 36.087726 
L 408.492838 35.782593 
L 412.113962 36.222038 
L 413.321004 35.276965 
L 416.942128 35.802606 
L 418.149169 35.470362 
L 419.356211 35.59666 
L 420.563252 34.930546 
L 425.391418 35.338813 
L 429.012542 35.265708 
L 431.426625 35.637472 
L 432.633666 35.555133 
L 438.668873 36.235587 
L 439.875915 35.97017 
L 442.289998 36.239531 
L 444.70408 36.397213 
L 450.739288 36.840762 
L 453.15337 37.16603 
L 454.360412 37.087622 
L 456.774495 37.327894 
L 457.981536 37.290984 
L 459.188577 37.379331 
L 460.395619 37.214504 
L 462.809702 37.466318 
L 464.016743 37.291081 
L 467.637867 37.662833 
L 468.844909 37.802438 
L 470.05195 37.717259 
L 471.258992 37.876239 
L 472.466033 37.645462 
L 477.294199 37.718442 
L 478.50124 37.155451 
L 479.708281 36.962795 
L 480.915323 37.019052 
L 482.122364 36.915596 
L 483.329406 37.075478 
L 484.536447 36.705518 
L 486.95053 36.947125 
L 488.157571 36.330682 
L 489.364613 36.462858 
L 490.571654 36.215884 
L 491.778696 36.105976 
L 494.192778 36.213404 
L 495.39982 36.330458 
L 496.606861 36.122837 
L 501.435027 36.371592 
L 503.84911 36.577405 
L 505.056151 36.572651 
L 506.263193 36.704569 
L 507.470234 36.602763 
L 512.2984 37.129308 
L 513.505441 36.432901 
L 514.712482 36.50691 
L 515.919524 35.213333 
L 515.919524 35.213333 
" clip-path="url(#peb0cfcbf4c)" style="fill: none; stroke-dasharray: 5.55,2.4; stroke-dashoffset: 0; stroke: #4169e1; stroke-width: 1.5"/>
   </g>
   <g id="line2d_29">
    <path d="M 34.31 48.938711 
L 35.517041 53.764419 
L 36.724083 44.203861 
L 37.931124 41.719501 
L 39.138166 41.192106 
L 40.345207 40.917314 
L 41.552248 42.400556 
L 42.75929 43.166549 
L 45.173373 41.44589 
L 46.380414 40.330023 
L 47.587456 38.000393 
L 48.794497 36.847338 
L 50.001538 37.35484 
L 51.20858 36.707132 
L 52.415621 36.588182 
L 53.622663 36.807579 
L 54.829704 36.798721 
L 57.243787 34.231623 
L 58.450828 34.416619 
L 59.65787 34.445412 
L 60.864911 34.756717 
L 62.071953 35.273195 
L 63.278994 34.832712 
L 64.486035 34.812426 
L 65.693077 33.660169 
L 66.900118 34.764788 
L 68.10716 34.67443 
L 69.314201 34.199866 
L 70.521242 34.239711 
L 71.728284 34.979329 
L 72.935325 34.880706 
L 74.142367 35.351758 
L 75.349408 35.952922 
L 76.556449 36.161714 
L 77.763491 36.724678 
L 78.970532 36.699906 
L 80.177574 36.426874 
L 81.384615 36.366013 
L 82.591657 36.030708 
L 83.798698 36.306726 
L 85.005739 36.354254 
L 86.212781 36.556742 
L 87.419822 36.238275 
L 88.626864 36.677966 
L 89.833905 36.384516 
L 91.040946 36.45975 
L 92.247988 36.220596 
L 93.455029 36.23007 
L 94.662071 36.001586 
L 95.869112 36.277487 
L 97.076153 36.206783 
L 98.283195 35.909405 
L 103.111361 36.090777 
L 104.318402 35.764665 
L 105.525443 35.573681 
L 107.939526 35.510368 
L 110.353609 35.121015 
L 111.56065 34.846063 
L 116.388816 35.248898 
L 117.595858 35.006314 
L 118.802899 35.19815 
L 120.00994 35.174938 
L 121.216982 35.415353 
L 123.631065 35.525256 
L 124.838106 35.670414 
L 127.252189 35.372152 
L 129.666272 35.562527 
L 130.873313 35.579833 
L 132.080354 35.940791 
L 134.494437 35.7815 
L 136.90852 35.971815 
L 139.322603 35.842945 
L 140.529644 35.743051 
L 141.736686 35.815838 
L 144.150769 35.798329 
L 145.35781 35.880029 
L 146.564851 35.718864 
L 151.393017 36.17418 
L 152.600058 35.943448 
L 157.428224 35.891665 
L 158.635266 35.977131 
L 159.842307 35.935024 
L 161.049348 36.188492 
L 163.463431 36.427576 
L 167.084555 36.356017 
L 170.70568 36.698256 
L 171.912721 36.687634 
L 173.119763 36.948356 
L 176.740887 36.573203 
L 177.947928 36.640333 
L 180.362011 36.545207 
L 182.776094 36.740274 
L 186.397218 36.548465 
L 187.604259 36.305468 
L 190.018342 36.040207 
L 192.432425 36.168664 
L 196.053549 36.107994 
L 197.260591 36.28177 
L 198.467632 36.250222 
L 199.674674 36.103894 
L 204.502839 36.145232 
L 209.331005 35.943797 
L 215.366212 36.085854 
L 220.194378 35.724984 
L 221.401419 35.449456 
L 223.815502 35.415719 
L 226.229585 35.293489 
L 231.05775 35.262513 
L 233.471833 35.366266 
L 235.885916 35.288231 
L 238.299999 35.377138 
L 243.128164 35.347968 
L 244.335206 35.251171 
L 247.95633 35.360283 
L 251.577454 35.429851 
L 252.784496 35.524407 
L 255.198579 35.44882 
L 267.268993 35.684576 
L 278.132365 35.502679 
L 280.546448 35.552317 
L 284.167573 35.626201 
L 285.374614 35.557716 
L 286.581655 35.361167 
L 290.20278 35.311146 
L 292.616862 35.320012 
L 295.030945 35.230614 
L 296.237987 35.062508 
L 298.652069 35.007281 
L 302.273194 35.095397 
L 305.894318 35.085793 
L 308.308401 35.159355 
L 313.136566 35.15102 
L 316.757691 35.270151 
L 321.585856 35.156258 
L 322.792898 34.990038 
L 323.999939 35.037329 
L 325.206981 34.962675 
L 331.242188 35.125262 
L 333.65627 35.131943 
L 337.277395 35.190266 
L 339.691478 35.141923 
L 350.55485 35.243191 
L 352.968933 35.110633 
L 421.770294 35.280957 
L 425.391418 35.334833 
L 427.805501 35.363449 
L 430.219583 35.327372 
L 459.188577 35.361284 
L 464.016743 35.470759 
L 468.844909 35.491582 
L 474.880116 35.517785 
L 477.294199 35.552808 
L 482.122364 35.417821 
L 515.919524 35.213333 
L 515.919524 35.213333 
" clip-path="url(#peb0cfcbf4c)" style="fill: none; stroke: #ff8c00; stroke-width: 1.5; stroke-linecap: square"/>
   </g>
   <g id="line2d_30">
    <path d="M 34.31 98.44 
L 35.517041 88.497168 
L 36.724083 13.759368 
L 39.138166 40.832062 
L 40.345207 50.272185 
L 41.552248 51.517404 
L 42.75929 55.629104 
L 43.966331 58.123979 
L 45.173373 58.995137 
L 46.380414 57.2647 
L 47.587456 35.206875 
L 48.794497 33.259044 
L 50.001538 36.485256 
L 51.20858 38.107884 
L 52.415621 41.788024 
L 54.829704 47.77156 
L 57.243787 27.48374 
L 59.65787 33.647916 
L 60.864911 35.554664 
L 62.071953 35.555384 
L 63.278994 36.082584 
L 64.486035 38.476554 
L 66.900118 14.481087 
L 68.10716 17.278615 
L 69.314201 17.195464 
L 70.521242 19.79592 
L 71.728284 15.013118 
L 72.935325 17.408315 
L 74.142367 16.665237 
L 75.349408 13.755351 
L 76.556449 15.456251 
L 77.763491 12.827673 
L 78.970532 15.070934 
L 80.177574 15.999126 
L 81.384615 17.998469 
L 82.591657 18.040337 
L 83.798698 18.620944 
L 85.005739 20.436695 
L 86.212781 21.456737 
L 87.419822 21.262145 
L 88.626864 19.225462 
L 89.833905 19.219603 
L 91.040946 20.756442 
L 92.247988 21.16966 
L 93.455029 22.713189 
L 94.662071 23.083556 
L 95.869112 22.875174 
L 97.076153 24.189937 
L 98.283195 23.563789 
L 101.904319 27.212686 
L 103.111361 28.416142 
L 104.318402 26.969395 
L 105.525443 27.241739 
L 107.939526 29.486542 
L 109.146568 29.85156 
L 110.353609 29.581423 
L 111.56065 28.575023 
L 112.767692 29.432491 
L 113.974733 30.443174 
L 115.181775 29.871222 
L 116.388816 30.770175 
L 117.595858 30.003245 
L 118.802899 29.86726 
L 120.00994 30.803326 
L 121.216982 29.953032 
L 123.631065 31.586529 
L 124.838106 31.791448 
L 126.045147 32.248552 
L 127.252189 31.958963 
L 128.45923 32.140677 
L 130.873313 33.68545 
L 132.080354 29.969194 
L 133.287396 30.412739 
L 134.494437 31.115713 
L 135.701479 31.30905 
L 138.115562 32.713707 
L 139.322603 32.946333 
L 140.529644 33.307288 
L 142.943727 34.46881 
L 144.150769 35.139018 
L 145.35781 35.557482 
L 146.564851 35.195085 
L 147.771893 35.169876 
L 150.185976 35.478594 
L 151.393017 35.685092 
L 152.600058 34.091412 
L 155.014141 35.223434 
L 156.221183 35.494371 
L 157.428224 35.942989 
L 158.635266 36.222702 
L 159.842307 36.736521 
L 161.049348 34.438412 
L 162.25639 34.501428 
L 163.463431 34.317273 
L 164.670473 34.77084 
L 167.084555 35.902084 
L 168.291597 35.564731 
L 169.498638 35.836033 
L 170.70568 35.600326 
L 171.912721 36.141267 
L 173.119763 33.340662 
L 174.326804 33.308917 
L 175.533845 33.515355 
L 176.740887 32.373476 
L 180.362011 33.436143 
L 181.569052 33.16661 
L 182.776094 33.426092 
L 183.983135 33.873034 
L 185.190177 33.958666 
L 186.397218 34.237655 
L 187.604259 31.537437 
L 188.811301 31.482733 
L 190.018342 30.537349 
L 191.225384 30.726649 
L 196.053549 32.259085 
L 197.260591 31.005111 
L 198.467632 31.439544 
L 199.674674 30.672601 
L 204.502839 32.472371 
L 205.709881 32.664191 
L 208.123963 33.42903 
L 209.331005 33.587538 
L 211.745088 34.289647 
L 212.952129 33.898606 
L 214.159171 34.040206 
L 215.366212 34.406056 
L 216.573253 34.293926 
L 217.780295 33.505544 
L 218.987336 33.817521 
L 220.194378 33.671551 
L 221.401419 29.062723 
L 222.60846 29.492485 
L 223.815502 29.779311 
L 225.022543 29.451322 
L 228.643668 30.641107 
L 233.471833 31.671118 
L 234.678875 31.610341 
L 235.885916 32.007662 
L 237.092957 32.054761 
L 239.50704 32.801983 
L 241.921123 32.306484 
L 243.128164 32.623783 
L 244.335206 32.303799 
L 246.749289 32.544252 
L 249.163372 33.276546 
L 250.370413 33.465597 
L 251.577454 33.789011 
L 252.784496 33.453278 
L 253.991537 33.458895 
L 256.40562 34.087198 
L 257.612661 34.310994 
L 258.819703 34.271642 
L 260.026744 34.459852 
L 261.233786 34.368335 
L 262.440827 33.77087 
L 263.647868 33.850317 
L 270.890117 35.242942 
L 272.097158 34.493507 
L 273.3042 34.311437 
L 275.718283 34.422522 
L 278.132365 34.97094 
L 279.339407 34.765209 
L 280.546448 35.009542 
L 281.75349 35.046984 
L 282.960531 35.229588 
L 284.167573 35.258408 
L 285.374614 35.144177 
L 286.581655 31.998318 
L 288.995738 32.296662 
L 293.823904 33.164607 
L 295.030945 33.173386 
L 296.237987 30.854499 
L 297.445028 30.958511 
L 298.652069 31.258737 
L 299.859111 31.152159 
L 302.273194 31.637369 
L 305.894318 32.461131 
L 307.101359 32.326607 
L 309.515442 32.845879 
L 310.722484 32.951033 
L 311.929525 33.229128 
L 313.136566 33.258445 
L 314.343608 32.981305 
L 316.757691 33.420538 
L 317.964732 33.682797 
L 319.171773 32.814499 
L 321.585856 33.35892 
L 322.792898 30.810729 
L 323.999939 30.862175 
L 325.206981 30.567953 
L 326.414022 30.557752 
L 328.828105 30.916116 
L 336.070353 31.357262 
L 337.277395 31.573319 
L 338.484436 31.455295 
L 340.898519 31.945031 
L 342.10556 31.728816 
L 343.312602 31.985098 
L 344.519643 31.779839 
L 348.140767 32.470273 
L 350.55485 32.691554 
L 351.761892 31.743467 
L 354.175974 32.145813 
L 355.383016 32.33007 
L 356.590057 32.336007 
L 360.211182 32.916061 
L 361.418223 33.059271 
L 363.832306 32.842253 
L 365.039347 33.052477 
L 369.867513 33.418639 
L 371.074554 33.57301 
L 372.281596 33.587739 
L 375.90272 34.051058 
L 377.109761 34.221778 
L 379.523844 33.772079 
L 384.35201 34.188483 
L 385.559051 34.40852 
L 386.766093 33.816232 
L 390.387217 34.4625 
L 392.8013 34.756798 
L 394.008341 34.644459 
L 395.215383 34.815223 
L 396.422424 34.730543 
L 403.664672 35.783899 
L 404.871714 35.875754 
L 406.078755 35.497946 
L 407.285797 35.389998 
L 408.492838 35.112772 
L 412.113962 35.61814 
L 413.321004 34.66466 
L 416.942128 35.243058 
L 418.149169 34.655873 
L 419.356211 34.823542 
L 420.563252 34.003201 
L 424.184376 34.520245 
L 426.598459 34.237169 
L 427.805501 34.371089 
L 429.012542 34.22187 
L 432.633666 34.645574 
L 436.254791 35.083512 
L 437.461832 35.272074 
L 438.668873 35.303086 
L 439.875915 35.038074 
L 453.15337 36.226758 
L 455.567453 36.295055 
L 459.188577 36.286752 
L 460.395619 36.029302 
L 462.809702 36.369427 
L 464.016743 36.245134 
L 465.223784 36.27076 
L 471.258992 37.027409 
L 472.466033 36.8336 
L 477.294199 37.014181 
L 478.50124 36.754764 
L 479.708281 36.371405 
L 480.915323 36.371134 
L 482.122364 36.034021 
L 483.329406 36.198753 
L 484.536447 35.541117 
L 486.95053 35.847922 
L 488.157571 35.210726 
L 489.364613 35.370631 
L 490.571654 35.151957 
L 495.39982 35.522807 
L 496.606861 35.057928 
L 497.813903 35.116263 
L 499.020944 35.027524 
L 500.227985 35.055527 
L 502.642068 35.349819 
L 506.263193 35.482145 
L 507.470234 35.438454 
L 512.2984 35.907476 
L 513.505441 35.708675 
L 514.712482 35.816282 
L 515.919524 35.213333 
L 515.919524 35.213333 
" clip-path="url(#peb0cfcbf4c)" style="fill: none; stroke-dasharray: 5.55,2.4; stroke-dashoffset: 0; stroke: #ff8c00; stroke-width: 1.5"/>
   </g>
   <g id="patch_3">
    <path d="M 34.31 98.44 
L 34.31 3.6 
" style="fill: none; stroke: #000000; stroke-width: 0.8; stroke-linejoin: miter; stroke-linecap: square"/>
   </g>
   <g id="patch_4">
    <path d="M 540 98.44 
L 540 3.6 
" style="fill: none; stroke: #000000; stroke-width: 0.8; stroke-linejoin: miter; stroke-linecap: square"/>
   </g>
   <g id="patch_5">
    <path d="M 34.31 98.44 
L 540 98.44 
" style="fill: none; stroke: #000000; stroke-width: 0.8; stroke-linejoin: miter; stroke-linecap: square"/>
   </g>
   <g id="patch_6">
    <path d="M 34.31 3.6 
L 540 3.6 
" style="fill: none; stroke: #000000; stroke-width: 0.8; stroke-linejoin: miter; stroke-linecap: square"/>
   </g>
  </g>
 </g>
 <defs>
  <clipPath id="peb0cfcbf4c">
   <rect x="34.31" y="3.6" width="505.69" height="94.84"/>
  </clipPath>
 </defs>
</svg>
