<?xml version="1.0" encoding="utf-8" standalone="no"?>
<!DOCTYPE svg PUBLIC "-//W3C//DTD SVG 1.1//EN"
  "http://www.w3.org/Graphics/SVG/1.1/DTD/svg11.dtd">
<svg xmlns:xlink="http://www.w3.org/1999/xlink" width="432pt" height="158.4pt" viewBox="0 0 432 158.4" xmlns="http://www.w3.org/2000/svg" version="1.1">
 <metadata>
  <rdf:RDF xmlns:dc="http://purl.org/dc/elements/1.1/" xmlns:cc="http://creativecommons.org/ns#" xmlns:rdf="http://www.w3.org/1999/02/22-rdf-syntax-ns#">
   <cc:Work>
    <dc:type rdf:resource="http://purl.org/dc/dcmitype/StillImage"/>
    <dc:date>2025-04-05T01:15:45.954328</dc:date>
    <dc:format>image/svg+xml</dc:format>
    <dc:creator>
     <cc:Agent>
      <dc:title>Matplotlib v3.10.1, https://matplotlib.org/</dc:title>
     </cc:Agent>
    </dc:creator>
   </cc:Work>
  </rdf:RDF>
 </metadata>
 <defs>
  <style type="text/css">*{stroke-linejoin: round; stroke-linecap: butt}</style>
 </defs>
 <g id="figure_1">
  <g id="patch_1">
   <path d="M 0 158.4 
L 432 158.4 
L 432 0 
L 0 0 
z
" style="fill: #ffffff"/>
  </g>
  <g id="axes_1">
   <g id="patch_2">
    <path d="M 33.23 126.89125 
L 173.805 126.89125 
L 173.805 9.36 
L 33.23 9.36 
z
" style="fill: #ffffff"/>
   </g>
   <g id="patch_3">
    <path d="M 33.23 126.89125 
L 40.25875 126.89125 
L 40.25875 123.365313 
L 33.23 123.365313 
z
" clip-path="url(#p1133325f58)" style="fill: #d3d3d3; stroke: #000000; stroke-width: 0.7; stroke-linejoin: miter"/>
   </g>
   <g id="patch_4">
    <path d="M 40.25875 126.89125 
L 47.2875 126.89125 
L 47.2875 111.612188 
L 40.25875 111.612188 
z
" clip-path="url(#p1133325f58)" style="fill: #d3d3d3; stroke: #000000; stroke-width: 0.7; stroke-linejoin: miter"/>
   </g>
   <g id="patch_5">
    <path d="M 47.2875 126.89125 
L 54.31625 126.89125 
L 54.31625 115.138125 
L 47.2875 115.138125 
z
" clip-path="url(#p1133325f58)" style="fill: #d3d3d3; stroke: #000000; stroke-width: 0.7; stroke-linejoin: miter"/>
   </g>
   <g id="patch_6">
    <path d="M 54.31625 126.89125 
L 61.345 126.89125 
L 61.345 97.508437 
L 54.31625 97.508437 
z
" clip-path="url(#p1133325f58)" style="fill: #d3d3d3; stroke: #000000; stroke-width: 0.7; stroke-linejoin: miter"/>
   </g>
   <g id="patch_7">
    <path d="M 61.345 126.89125 
L 68.37375 126.89125 
L 68.37375 91.631875 
L 61.345 91.631875 
z
" clip-path="url(#p1133325f58)" style="fill: #d3d3d3; stroke: #000000; stroke-width: 0.7; stroke-linejoin: miter"/>
   </g>
   <g id="patch_8">
    <path d="M 68.37375 126.89125 
L 75.4025 126.89125 
L 75.4025 79.87875 
L 68.37375 79.87875 
z
" clip-path="url(#p1133325f58)" style="fill: #d3d3d3; stroke: #000000; stroke-width: 0.7; stroke-linejoin: miter"/>
   </g>
   <g id="patch_9">
    <path d="M 75.4025 126.89125 
L 82.43125 126.89125 
L 82.43125 96.333125 
L 75.4025 96.333125 
z
" clip-path="url(#p1133325f58)" style="fill: #d3d3d3; stroke: #000000; stroke-width: 0.7; stroke-linejoin: miter"/>
   </g>
   <g id="patch_10">
    <path d="M 82.43125 126.89125 
L 89.46 126.89125 
L 89.46 77.528125 
L 82.43125 77.528125 
z
" clip-path="url(#p1133325f58)" style="fill: #d3d3d3; stroke: #000000; stroke-width: 0.7; stroke-linejoin: miter"/>
   </g>
   <g id="patch_11">
    <path d="M 89.46 126.89125 
L 96.48875 126.89125 
L 96.48875 89.28125 
L 89.46 89.28125 
z
" clip-path="url(#p1133325f58)" style="fill: #d3d3d3; stroke: #000000; stroke-width: 0.7; stroke-linejoin: miter"/>
   </g>
   <g id="patch_12">
    <path d="M 96.48875 126.89125 
L 103.5175 126.89125 
L 103.5175 92.807187 
L 96.48875 92.807187 
z
" clip-path="url(#p1133325f58)" style="fill: #d3d3d3; stroke: #000000; stroke-width: 0.7; stroke-linejoin: miter"/>
   </g>
   <g id="patch_13">
    <path d="M 103.5175 126.89125 
L 110.54625 126.89125 
L 110.54625 90.456563 
L 103.5175 90.456563 
z
" clip-path="url(#p1133325f58)" style="fill: #d3d3d3; stroke: #000000; stroke-width: 0.7; stroke-linejoin: miter"/>
   </g>
   <g id="patch_14">
    <path d="M 110.54625 126.89125 
L 117.575 126.89125 
L 117.575 97.508437 
L 110.54625 97.508437 
z
" clip-path="url(#p1133325f58)" style="fill: #d3d3d3; stroke: #000000; stroke-width: 0.7; stroke-linejoin: miter"/>
   </g>
   <g id="patch_15">
    <path d="M 117.575 126.89125 
L 124.60375 126.89125 
L 124.60375 96.333125 
L 117.575 96.333125 
z
" clip-path="url(#p1133325f58)" style="fill: #d3d3d3; stroke: #000000; stroke-width: 0.7; stroke-linejoin: miter"/>
   </g>
   <g id="patch_16">
    <path d="M 124.60375 126.89125 
L 131.6325 126.89125 
L 131.6325 99.859062 
L 124.60375 99.859062 
z
" clip-path="url(#p1133325f58)" style="fill: #d3d3d3; stroke: #000000; stroke-width: 0.7; stroke-linejoin: miter"/>
   </g>
   <g id="patch_17">
    <path d="M 131.6325 126.89125 
L 138.66125 126.89125 
L 138.66125 112.7875 
L 131.6325 112.7875 
z
" clip-path="url(#p1133325f58)" style="fill: #d3d3d3; stroke: #000000; stroke-width: 0.7; stroke-linejoin: miter"/>
   </g>
   <g id="patch_18">
    <path d="M 138.66125 126.89125 
L 145.69 126.89125 
L 145.69 113.962812 
L 138.66125 113.962812 
z
" clip-path="url(#p1133325f58)" style="fill: #d3d3d3; stroke: #000000; stroke-width: 0.7; stroke-linejoin: miter"/>
   </g>
   <g id="patch_19">
    <path d="M 145.69 126.89125 
L 152.71875 126.89125 
L 152.71875 115.138125 
L 145.69 115.138125 
z
" clip-path="url(#p1133325f58)" style="fill: #d3d3d3; stroke: #000000; stroke-width: 0.7; stroke-linejoin: miter"/>
   </g>
   <g id="patch_20">
    <path d="M 152.71875 126.89125 
L 159.7475 126.89125 
L 159.7475 117.48875 
L 152.71875 117.48875 
z
" clip-path="url(#p1133325f58)" style="fill: #d3d3d3; stroke: #000000; stroke-width: 0.7; stroke-linejoin: miter"/>
   </g>
   <g id="patch_21">
    <path d="M 159.7475 126.89125 
L 166.77625 126.89125 
L 166.77625 126.89125 
L 159.7475 126.89125 
z
" clip-path="url(#p1133325f58)" style="fill: #d3d3d3; stroke: #000000; stroke-width: 0.7; stroke-linejoin: miter"/>
   </g>
   <g id="patch_22">
    <path d="M 166.77625 126.89125 
L 173.805 126.89125 
L 173.805 122.19 
L 166.77625 122.19 
z
" clip-path="url(#p1133325f58)" style="fill: #d3d3d3; stroke: #000000; stroke-width: 0.7; stroke-linejoin: miter"/>
   </g>
   <g id="matplotlib.axis_1">
    <g id="xtick_1">
     <g id="line2d_1">
      <defs>
       <path id="mdb09c5803c" d="M 0 0 
L 0 3.5 
" style="stroke: #000000; stroke-width: 0.8"/>
      </defs>
      <g>
       <use xlink:href="#mdb09c5803c" x="33.23" y="126.89125" style="stroke: #000000; stroke-width: 0.8"/>
      </g>
     </g>
     <g id="text_1">
      <text style="font-size: 10px; font-family: 'Times New Roman'; text-anchor: middle" x="33.23" y="140.835" transform="rotate(-0 33.23 140.835)">16.8</text>
     </g>
    </g>
    <g id="xtick_2">
     <g id="line2d_2">
      <g>
       <use xlink:href="#mdb09c5803c" x="68.37375" y="126.89125" style="stroke: #000000; stroke-width: 0.8"/>
      </g>
     </g>
     <g id="text_2">
      <text style="font-size: 10px; font-family: 'Times New Roman'; text-anchor: middle" x="68.37375" y="140.835" transform="rotate(-0 68.37375 140.835)">28.2</text>
     </g>
    </g>
    <g id="xtick_3">
     <g id="line2d_3">
      <g>
       <use xlink:href="#mdb09c5803c" x="103.5175" y="126.89125" style="stroke: #000000; stroke-width: 0.8"/>
      </g>
     </g>
     <g id="text_3">
      <text style="font-size: 10px; font-family: 'Times New Roman'; text-anchor: middle" x="103.5175" y="140.835" transform="rotate(-0 103.5175 140.835)">39.6</text>
     </g>
    </g>
    <g id="xtick_4">
     <g id="line2d_4">
      <g>
       <use xlink:href="#mdb09c5803c" x="138.66125" y="126.89125" style="stroke: #000000; stroke-width: 0.8"/>
      </g>
     </g>
     <g id="text_4">
      <text style="font-size: 10px; font-family: 'Times New Roman'; text-anchor: middle" x="138.66125" y="140.835" transform="rotate(-0 138.66125 140.835)">51.1</text>
     </g>
    </g>
    <g id="xtick_5">
     <g id="line2d_5">
      <g>
       <use xlink:href="#mdb09c5803c" x="173.805" y="126.89125" style="stroke: #000000; stroke-width: 0.8"/>
      </g>
     </g>
     <g id="text_5">
      <text style="font-size: 10px; font-family: 'Times New Roman'; text-anchor: middle" x="173.805" y="140.835" transform="rotate(-0 173.805 140.835)">62.5</text>
     </g>
    </g>
    <g id="text_6">
     <text style="font-size: 12px; font-family: 'Times New Roman'; text-anchor: middle" x="103.5175" y="155.306563" transform="rotate(-0 103.5175 155.306563)">Lead Time (months)</text>
    </g>
   </g>
   <g id="matplotlib.axis_2">
    <g id="ytick_1">
     <g id="line2d_6">
      <defs>
       <path id="m5332fee0e4" d="M 0 0 
L -3.5 0 
" style="stroke: #000000; stroke-width: 0.8"/>
      </defs>
      <g>
       <use xlink:href="#m5332fee0e4" x="33.23" y="126.89125" style="stroke: #000000; stroke-width: 0.8"/>
      </g>
     </g>
     <g id="text_7">
      <text style="font-size: 10px; font-family: 'Times New Roman'; text-anchor: end" x="26.23" y="130.363125" transform="rotate(-0 26.23 130.363125)">0.0</text>
     </g>
    </g>
    <g id="ytick_2">
     <g id="line2d_7">
      <g>
       <use xlink:href="#m5332fee0e4" x="33.23" y="103.385" style="stroke: #000000; stroke-width: 0.8"/>
      </g>
     </g>
     <g id="text_8">
      <text style="font-size: 10px; font-family: 'Times New Roman'; text-anchor: end" x="26.23" y="106.856875" transform="rotate(-0 26.23 106.856875)">0.1</text>
     </g>
    </g>
    <g id="ytick_3">
     <g id="line2d_8">
      <g>
       <use xlink:href="#m5332fee0e4" x="33.23" y="79.87875" style="stroke: #000000; stroke-width: 0.8"/>
      </g>
     </g>
     <g id="text_9">
      <text style="font-size: 10px; font-family: 'Times New Roman'; text-anchor: end" x="26.23" y="83.350625" transform="rotate(-0 26.23 83.350625)">0.1</text>
     </g>
    </g>
    <g id="ytick_4">
     <g id="line2d_9">
      <g>
       <use xlink:href="#m5332fee0e4" x="33.23" y="56.3725" style="stroke: #000000; stroke-width: 0.8"/>
      </g>
     </g>
     <g id="text_10">
      <text style="font-size: 10px; font-family: 'Times New Roman'; text-anchor: end" x="26.23" y="59.844375" transform="rotate(-0 26.23 59.844375)">0.1</text>
     </g>
    </g>
    <g id="ytick_5">
     <g id="line2d_10">
      <g>
       <use xlink:href="#m5332fee0e4" x="33.23" y="32.86625" style="stroke: #000000; stroke-width: 0.8"/>
      </g>
     </g>
     <g id="text_11">
      <text style="font-size: 10px; font-family: 'Times New Roman'; text-anchor: end" x="26.23" y="36.338125" transform="rotate(-0 26.23 36.338125)">0.2</text>
     </g>
    </g>
    <g id="ytick_6">
     <g id="line2d_11">
      <g>
       <use xlink:href="#m5332fee0e4" x="33.23" y="9.36" style="stroke: #000000; stroke-width: 0.8"/>
      </g>
     </g>
     <g id="text_12">
      <text style="font-size: 10px; font-family: 'Times New Roman'; text-anchor: end" x="26.23" y="12.831875" transform="rotate(-0 26.23 12.831875)">0.2</text>
     </g>
    </g>
    <g id="text_13">
     <text style="font-size: 11px; font-family: 'Times New Roman'; text-anchor: middle" x="7.356406" y="68.125625" transform="rotate(-90 7.356406 68.125625)">Relative Probability</text>
    </g>
   </g>
   <g id="line2d_12">
    <path d="M 55.165707 126.89125 
L 55.165707 9.36 
" clip-path="url(#p1133325f58)" style="fill: none; stroke-dasharray: 5.55,2.4; stroke-dashoffset: 0; stroke: #696969; stroke-width: 1.5"/>
   </g>
   <g id="patch_23">
    <path d="M 33.23 126.89125 
L 33.23 9.36 
" style="fill: none; stroke: #000000; stroke-width: 0.8; stroke-linejoin: miter; stroke-linecap: square"/>
   </g>
   <g id="patch_24">
    <path d="M 173.805 126.89125 
L 173.805 9.36 
" style="fill: none; stroke: #000000; stroke-width: 0.8; stroke-linejoin: miter; stroke-linecap: square"/>
   </g>
   <g id="patch_25">
    <path d="M 33.23 126.89125 
L 173.805 126.89125 
" style="fill: none; stroke: #000000; stroke-width: 0.8; stroke-linejoin: miter; stroke-linecap: square"/>
   </g>
   <g id="patch_26">
    <path d="M 33.23 9.36 
L 173.805 9.36 
" style="fill: none; stroke: #000000; stroke-width: 0.8; stroke-linejoin: miter; stroke-linecap: square"/>
   </g>
   <g id="text_14">
    <text style="font-size: 10px; font-family: 'Times New Roman'; text-anchor: middle" x="55.165707" y="7.202188" transform="rotate(-0 55.165707 7.202188)">Target</text>
   </g>
  </g>
  <g id="axes_2">
   <g id="patch_27">
    <path d="M 258.15 126.89125 
L 398.725 126.89125 
L 398.725 9.36 
L 258.15 9.36 
z
" style="fill: #ffffff"/>
   </g>
   <g id="patch_28">
    <path d="M 258.15 126.89125 
L 265.17875 126.89125 
L 265.17875 123.365313 
L 258.15 123.365313 
z
" clip-path="url(#pe45eb27559)" style="fill: #d3d3d3; stroke: #000000; stroke-width: 0.7; stroke-linejoin: miter"/>
   </g>
   <g id="patch_29">
    <path d="M 265.17875 126.89125 
L 272.2075 126.89125 
L 272.2075 115.138125 
L 265.17875 115.138125 
z
" clip-path="url(#pe45eb27559)" style="fill: #d3d3d3; stroke: #000000; stroke-width: 0.7; stroke-linejoin: miter"/>
   </g>
   <g id="patch_30">
    <path d="M 272.2075 126.89125 
L 279.23625 126.89125 
L 279.23625 111.612188 
L 272.2075 111.612188 
z
" clip-path="url(#pe45eb27559)" style="fill: #d3d3d3; stroke: #000000; stroke-width: 0.7; stroke-linejoin: miter"/>
   </g>
   <g id="patch_31">
    <path d="M 279.23625 126.89125 
L 286.265 126.89125 
L 286.265 116.313438 
L 279.23625 116.313438 
z
" clip-path="url(#pe45eb27559)" style="fill: #d3d3d3; stroke: #000000; stroke-width: 0.7; stroke-linejoin: miter"/>
   </g>
   <g id="patch_32">
    <path d="M 286.265 126.89125 
L 293.29375 126.89125 
L 293.29375 95.157813 
L 286.265 95.157813 
z
" clip-path="url(#pe45eb27559)" style="fill: #d3d3d3; stroke: #000000; stroke-width: 0.7; stroke-linejoin: miter"/>
   </g>
   <g id="patch_33">
    <path d="M 293.29375 126.89125 
L 300.3225 126.89125 
L 300.3225 88.105938 
L 293.29375 88.105938 
z
" clip-path="url(#pe45eb27559)" style="fill: #d3d3d3; stroke: #000000; stroke-width: 0.7; stroke-linejoin: miter"/>
   </g>
   <g id="patch_34">
    <path d="M 300.3225 126.89125 
L 307.35125 126.89125 
L 307.35125 76.352812 
L 300.3225 76.352812 
z
" clip-path="url(#pe45eb27559)" style="fill: #d3d3d3; stroke: #000000; stroke-width: 0.7; stroke-linejoin: miter"/>
   </g>
   <g id="patch_35">
    <path d="M 307.35125 126.89125 
L 314.38 126.89125 
L 314.38 86.930625 
L 307.35125 86.930625 
z
" clip-path="url(#pe45eb27559)" style="fill: #d3d3d3; stroke: #000000; stroke-width: 0.7; stroke-linejoin: miter"/>
   </g>
   <g id="patch_36">
    <path d="M 314.38 126.89125 
L 321.40875 126.89125 
L 321.40875 84.58 
L 314.38 84.58 
z
" clip-path="url(#pe45eb27559)" style="fill: #d3d3d3; stroke: #000000; stroke-width: 0.7; stroke-linejoin: miter"/>
   </g>
   <g id="patch_37">
    <path d="M 321.40875 126.89125 
L 328.4375 126.89125 
L 328.4375 77.528125 
L 321.40875 77.528125 
z
" clip-path="url(#pe45eb27559)" style="fill: #d3d3d3; stroke: #000000; stroke-width: 0.7; stroke-linejoin: miter"/>
   </g>
   <g id="patch_38">
    <path d="M 328.4375 126.89125 
L 335.46625 126.89125 
L 335.46625 99.859062 
L 328.4375 99.859062 
z
" clip-path="url(#pe45eb27559)" style="fill: #d3d3d3; stroke: #000000; stroke-width: 0.7; stroke-linejoin: miter"/>
   </g>
   <g id="patch_39">
    <path d="M 335.46625 126.89125 
L 342.495 126.89125 
L 342.495 90.456563 
L 335.46625 90.456563 
z
" clip-path="url(#pe45eb27559)" style="fill: #d3d3d3; stroke: #000000; stroke-width: 0.7; stroke-linejoin: miter"/>
   </g>
   <g id="patch_40">
    <path d="M 342.495 126.89125 
L 349.52375 126.89125 
L 349.52375 86.930625 
L 342.495 86.930625 
z
" clip-path="url(#pe45eb27559)" style="fill: #d3d3d3; stroke: #000000; stroke-width: 0.7; stroke-linejoin: miter"/>
   </g>
   <g id="patch_41">
    <path d="M 349.52375 126.89125 
L 356.5525 126.89125 
L 356.5525 105.735625 
L 349.52375 105.735625 
z
" clip-path="url(#pe45eb27559)" style="fill: #d3d3d3; stroke: #000000; stroke-width: 0.7; stroke-linejoin: miter"/>
   </g>
   <g id="patch_42">
    <path d="M 356.5525 126.89125 
L 363.58125 126.89125 
L 363.58125 111.612188 
L 356.5525 111.612188 
z
" clip-path="url(#pe45eb27559)" style="fill: #d3d3d3; stroke: #000000; stroke-width: 0.7; stroke-linejoin: miter"/>
   </g>
   <g id="patch_43">
    <path d="M 363.58125 126.89125 
L 370.61 126.89125 
L 370.61 112.7875 
L 363.58125 112.7875 
z
" clip-path="url(#pe45eb27559)" style="fill: #d3d3d3; stroke: #000000; stroke-width: 0.7; stroke-linejoin: miter"/>
   </g>
   <g id="patch_44">
    <path d="M 370.61 126.89125 
L 377.63875 126.89125 
L 377.63875 112.7875 
L 370.61 112.7875 
z
" clip-path="url(#pe45eb27559)" style="fill: #d3d3d3; stroke: #000000; stroke-width: 0.7; stroke-linejoin: miter"/>
   </g>
   <g id="patch_45">
    <path d="M 377.63875 126.89125 
L 384.6675 126.89125 
L 384.6675 123.365313 
L 377.63875 123.365313 
z
" clip-path="url(#pe45eb27559)" style="fill: #d3d3d3; stroke: #000000; stroke-width: 0.7; stroke-linejoin: miter"/>
   </g>
   <g id="patch_46">
    <path d="M 384.6675 126.89125 
L 391.69625 126.89125 
L 391.69625 126.89125 
L 384.6675 126.89125 
z
" clip-path="url(#pe45eb27559)" style="fill: #d3d3d3; stroke: #000000; stroke-width: 0.7; stroke-linejoin: miter"/>
   </g>
   <g id="patch_47">
    <path d="M 391.69625 126.89125 
L 398.725 126.89125 
L 398.725 122.19 
L 391.69625 122.19 
z
" clip-path="url(#pe45eb27559)" style="fill: #d3d3d3; stroke: #000000; stroke-width: 0.7; stroke-linejoin: miter"/>
   </g>
   <g id="matplotlib.axis_3">
    <g id="xtick_6">
     <g id="line2d_13">
      <g>
       <use xlink:href="#mdb09c5803c" x="258.15" y="126.89125" style="stroke: #000000; stroke-width: 0.8"/>
      </g>
     </g>
     <g id="text_15">
      <text style="font-size: 10px; font-family: 'Times New Roman'; text-anchor: middle" x="258.15" y="140.835" transform="rotate(-0 258.15 140.835)">1.04</text>
     </g>
    </g>
    <g id="xtick_7">
     <g id="line2d_14">
      <g>
       <use xlink:href="#mdb09c5803c" x="293.29375" y="126.89125" style="stroke: #000000; stroke-width: 0.8"/>
      </g>
     </g>
     <g id="text_16">
      <text style="font-size: 10px; font-family: 'Times New Roman'; text-anchor: middle" x="293.29375" y="140.835" transform="rotate(-0 293.29375 140.835)">1.53</text>
     </g>
    </g>
    <g id="xtick_8">
     <g id="line2d_15">
      <g>
       <use xlink:href="#mdb09c5803c" x="328.4375" y="126.89125" style="stroke: #000000; stroke-width: 0.8"/>
      </g>
     </g>
     <g id="text_17">
      <text style="font-size: 10px; font-family: 'Times New Roman'; text-anchor: middle" x="328.4375" y="140.835" transform="rotate(-0 328.4375 140.835)">2.01</text>
     </g>
    </g>
    <g id="xtick_9">
     <g id="line2d_16">
      <g>
       <use xlink:href="#mdb09c5803c" x="363.58125" y="126.89125" style="stroke: #000000; stroke-width: 0.8"/>
      </g>
     </g>
     <g id="text_18">
      <text style="font-size: 10px; font-family: 'Times New Roman'; text-anchor: middle" x="363.58125" y="140.835" transform="rotate(-0 363.58125 140.835)">2.49</text>
     </g>
    </g>
    <g id="xtick_10">
     <g id="line2d_17">
      <g>
       <use xlink:href="#mdb09c5803c" x="398.725" y="126.89125" style="stroke: #000000; stroke-width: 0.8"/>
      </g>
     </g>
     <g id="text_19">
      <text style="font-size: 10px; font-family: 'Times New Roman'; text-anchor: middle" x="398.725" y="140.835" transform="rotate(-0 398.725 140.835)">2.97</text>
     </g>
    </g>
    <g id="text_20">
     <text style="font-size: 12px; font-family: 'Times New Roman'; text-anchor: middle" x="328.4375" y="155.587813" transform="rotate(-0 328.4375 155.587813)">Cost ($m)</text>
    </g>
   </g>
   <g id="matplotlib.axis_4">
    <g id="ytick_7">
     <g id="line2d_18">
      <g>
       <use xlink:href="#m5332fee0e4" x="258.15" y="126.89125" style="stroke: #000000; stroke-width: 0.8"/>
      </g>
     </g>
     <g id="text_21">
      <text style="font-size: 10px; font-family: 'Times New Roman'; text-anchor: end" x="251.15" y="130.363125" transform="rotate(-0 251.15 130.363125)">0.0</text>
     </g>
    </g>
    <g id="ytick_8">
     <g id="line2d_19">
      <g>
       <use xlink:href="#m5332fee0e4" x="258.15" y="103.385" style="stroke: #000000; stroke-width: 0.8"/>
      </g>
     </g>
     <g id="text_22">
      <text style="font-size: 10px; font-family: 'Times New Roman'; text-anchor: end" x="251.15" y="106.856875" transform="rotate(-0 251.15 106.856875)">0.1</text>
     </g>
    </g>
    <g id="ytick_9">
     <g id="line2d_20">
      <g>
       <use xlink:href="#m5332fee0e4" x="258.15" y="79.87875" style="stroke: #000000; stroke-width: 0.8"/>
      </g>
     </g>
     <g id="text_23">
      <text style="font-size: 10px; font-family: 'Times New Roman'; text-anchor: end" x="251.15" y="83.350625" transform="rotate(-0 251.15 83.350625)">0.1</text>
     </g>
    </g>
    <g id="ytick_10">
     <g id="line2d_21">
      <g>
       <use xlink:href="#m5332fee0e4" x="258.15" y="56.3725" style="stroke: #000000; stroke-width: 0.8"/>
      </g>
     </g>
     <g id="text_24">
      <text style="font-size: 10px; font-family: 'Times New Roman'; text-anchor: end" x="251.15" y="59.844375" transform="rotate(-0 251.15 59.844375)">0.1</text>
     </g>
    </g>
    <g id="ytick_11">
     <g id="line2d_22">
      <g>
       <use xlink:href="#m5332fee0e4" x="258.15" y="32.86625" style="stroke: #000000; stroke-width: 0.8"/>
      </g>
     </g>
     <g id="text_25">
      <text style="font-size: 10px; font-family: 'Times New Roman'; text-anchor: end" x="251.15" y="36.338125" transform="rotate(-0 251.15 36.338125)">0.2</text>
     </g>
    </g>
    <g id="ytick_12">
     <g id="line2d_23">
      <g>
       <use xlink:href="#m5332fee0e4" x="258.15" y="9.36" style="stroke: #000000; stroke-width: 0.8"/>
      </g>
     </g>
     <g id="text_26">
      <text style="font-size: 10px; font-family: 'Times New Roman'; text-anchor: end" x="251.15" y="12.831875" transform="rotate(-0 251.15 12.831875)">0.2</text>
     </g>
    </g>
    <g id="text_27">
     <text style="font-size: 11px; font-family: 'Times New Roman'; text-anchor: middle" x="232.276406" y="68.125625" transform="rotate(-90 232.276406 68.125625)">Relative Probability</text>
    </g>
   </g>
   <g id="line2d_24">
    <path d="M 284.150435 126.89125 
L 284.150435 9.36 
" clip-path="url(#pe45eb27559)" style="fill: none; stroke-dasharray: 5.55,2.4; stroke-dashoffset: 0; stroke: #696969; stroke-width: 1.5"/>
   </g>
   <g id="patch_48">
    <path d="M 258.15 126.89125 
L 258.15 9.36 
" style="fill: none; stroke: #000000; stroke-width: 0.8; stroke-linejoin: miter; stroke-linecap: square"/>
   </g>
   <g id="patch_49">
    <path d="M 398.725 126.89125 
L 398.725 9.36 
" style="fill: none; stroke: #000000; stroke-width: 0.8; stroke-linejoin: miter; stroke-linecap: square"/>
   </g>
   <g id="patch_50">
    <path d="M 258.15 126.89125 
L 398.725 126.89125 
" style="fill: none; stroke: #000000; stroke-width: 0.8; stroke-linejoin: miter; stroke-linecap: square"/>
   </g>
   <g id="patch_51">
    <path d="M 258.15 9.36 
L 398.725 9.36 
" style="fill: none; stroke: #000000; stroke-width: 0.8; stroke-linejoin: miter; stroke-linecap: square"/>
   </g>
   <g id="text_28">
    <text style="font-size: 10px; font-family: 'Times New Roman'; text-anchor: middle" x="284.150435" y="7.202188" transform="rotate(-0 284.150435 7.202188)">Target</text>
   </g>
  </g>
  <g id="axes_3">
   <g id="matplotlib.axis_5">
    <g id="ytick_13">
     <g id="line2d_25">
      <defs>
       <path id="mad99e7c6f2" d="M 0 0 
L 3.5 0 
" style="stroke: #000000; stroke-width: 0.8"/>
      </defs>
      <g>
       <use xlink:href="#mad99e7c6f2" x="173.805" y="126.89125" style="stroke: #000000; stroke-width: 0.8"/>
      </g>
     </g>
     <g id="text_29">
      <text style="font-size: 10px; font-family: 'Times New Roman'; text-anchor: start" x="180.805" y="130.363125" transform="rotate(-0 180.805 130.363125)">0.0</text>
     </g>
    </g>
    <g id="ytick_14">
     <g id="line2d_26">
      <g>
       <use xlink:href="#mad99e7c6f2" x="173.805" y="103.385" style="stroke: #000000; stroke-width: 0.8"/>
      </g>
     </g>
     <g id="text_30">
      <text style="font-size: 10px; font-family: 'Times New Roman'; text-anchor: start" x="180.805" y="106.856875" transform="rotate(-0 180.805 106.856875)">0.2</text>
     </g>
    </g>
    <g id="ytick_15">
     <g id="line2d_27">
      <g>
       <use xlink:href="#mad99e7c6f2" x="173.805" y="79.87875" style="stroke: #000000; stroke-width: 0.8"/>
      </g>
     </g>
     <g id="text_31">
      <text style="font-size: 10px; font-family: 'Times New Roman'; text-anchor: start" x="180.805" y="83.350625" transform="rotate(-0 180.805 83.350625)">0.4</text>
     </g>
    </g>
    <g id="ytick_16">
     <g id="line2d_28">
      <g>
       <use xlink:href="#mad99e7c6f2" x="173.805" y="56.3725" style="stroke: #000000; stroke-width: 0.8"/>
      </g>
     </g>
     <g id="text_32">
      <text style="font-size: 10px; font-family: 'Times New Roman'; text-anchor: start" x="180.805" y="59.844375" transform="rotate(-0 180.805 59.844375)">0.6</text>
     </g>
    </g>
    <g id="ytick_17">
     <g id="line2d_29">
      <g>
       <use xlink:href="#mad99e7c6f2" x="173.805" y="32.86625" style="stroke: #000000; stroke-width: 0.8"/>
      </g>
     </g>
     <g id="text_33">
      <text style="font-size: 10px; font-family: 'Times New Roman'; text-anchor: start" x="180.805" y="36.338125" transform="rotate(-0 180.805 36.338125)">0.8</text>
     </g>
    </g>
    <g id="ytick_18">
     <g id="line2d_30">
      <g>
       <use xlink:href="#mad99e7c6f2" x="173.805" y="9.36" style="stroke: #000000; stroke-width: 0.8"/>
      </g>
     </g>
     <g id="text_34">
      <text style="font-size: 10px; font-family: 'Times New Roman'; text-anchor: start" x="180.805" y="12.831875" transform="rotate(-0 180.805 12.831875)">1.0</text>
     </g>
    </g>
    <g id="text_35">
     <text style="font-size: 11px; font-family: 'Times New Roman'; text-anchor: middle" x="204.943125" y="68.125625" transform="rotate(-90 204.943125 68.125625)">Cumulative Probability</text>
    </g>
   </g>
   <g id="line2d_31">
    <path d="M 33.23 126.89125 
L 36.744375 126.009766 
L 43.773125 122.19 
L 50.801875 119.251719 
L 57.830625 111.906016 
L 64.859375 103.091172 
L 71.888125 91.338047 
L 78.916875 83.698516 
L 85.945625 71.357734 
L 92.974375 61.955234 
L 100.003125 53.434219 
L 107.031875 44.325547 
L 114.060625 36.979844 
L 121.089375 29.340313 
L 128.118125 22.582266 
L 135.146875 19.056328 
L 142.175625 15.824219 
L 149.204375 12.885938 
L 156.233125 10.535313 
L 163.261875 10.535313 
L 170.290625 9.36 
L 173.805 9.36 
" clip-path="url(#p1133325f58)" style="fill: none; stroke: #000000; stroke-linecap: square"/>
   </g>
   <g id="patch_52">
    <path d="M 33.23 126.89125 
L 33.23 9.36 
" style="fill: none; stroke: #000000; stroke-width: 0.8; stroke-linejoin: miter; stroke-linecap: square"/>
   </g>
   <g id="patch_53">
    <path d="M 173.805 126.89125 
L 173.805 9.36 
" style="fill: none; stroke: #000000; stroke-width: 0.8; stroke-linejoin: miter; stroke-linecap: square"/>
   </g>
   <g id="patch_54">
    <path d="M 33.23 126.89125 
L 173.805 126.89125 
" style="fill: none; stroke: #000000; stroke-width: 0.8; stroke-linejoin: miter; stroke-linecap: square"/>
   </g>
   <g id="patch_55">
    <path d="M 33.23 9.36 
L 173.805 9.36 
" style="fill: none; stroke: #000000; stroke-width: 0.8; stroke-linejoin: miter; stroke-linecap: square"/>
   </g>
  </g>
  <g id="axes_4">
   <g id="matplotlib.axis_6">
    <g id="ytick_19">
     <g id="line2d_32">
      <g>
       <use xlink:href="#mad99e7c6f2" x="398.725" y="126.89125" style="stroke: #000000; stroke-width: 0.8"/>
      </g>
     </g>
     <g id="text_36">
      <text style="font-size: 10px; font-family: 'Times New Roman'; text-anchor: start" x="405.725" y="130.363125" transform="rotate(-0 405.725 130.363125)">0.0</text>
     </g>
    </g>
    <g id="ytick_20">
     <g id="line2d_33">
      <g>
       <use xlink:href="#mad99e7c6f2" x="398.725" y="103.385" style="stroke: #000000; stroke-width: 0.8"/>
      </g>
     </g>
     <g id="text_37">
      <text style="font-size: 10px; font-family: 'Times New Roman'; text-anchor: start" x="405.725" y="106.856875" transform="rotate(-0 405.725 106.856875)">0.2</text>
     </g>
    </g>
    <g id="ytick_21">
     <g id="line2d_34">
      <g>
       <use xlink:href="#mad99e7c6f2" x="398.725" y="79.87875" style="stroke: #000000; stroke-width: 0.8"/>
      </g>
     </g>
     <g id="text_38">
      <text style="font-size: 10px; font-family: 'Times New Roman'; text-anchor: start" x="405.725" y="83.350625" transform="rotate(-0 405.725 83.350625)">0.4</text>
     </g>
    </g>
    <g id="ytick_22">
     <g id="line2d_35">
      <g>
       <use xlink:href="#mad99e7c6f2" x="398.725" y="56.3725" style="stroke: #000000; stroke-width: 0.8"/>
      </g>
     </g>
     <g id="text_39">
      <text style="font-size: 10px; font-family: 'Times New Roman'; text-anchor: start" x="405.725" y="59.844375" transform="rotate(-0 405.725 59.844375)">0.6</text>
     </g>
    </g>
    <g id="ytick_23">
     <g id="line2d_36">
      <g>
       <use xlink:href="#mad99e7c6f2" x="398.725" y="32.86625" style="stroke: #000000; stroke-width: 0.8"/>
      </g>
     </g>
     <g id="text_40">
      <text style="font-size: 10px; font-family: 'Times New Roman'; text-anchor: start" x="405.725" y="36.338125" transform="rotate(-0 405.725 36.338125)">0.8</text>
     </g>
    </g>
    <g id="ytick_24">
     <g id="line2d_37">
      <g>
       <use xlink:href="#mad99e7c6f2" x="398.725" y="9.36" style="stroke: #000000; stroke-width: 0.8"/>
      </g>
     </g>
     <g id="text_41">
      <text style="font-size: 10px; font-family: 'Times New Roman'; text-anchor: start" x="405.725" y="12.831875" transform="rotate(-0 405.725 12.831875)">1.0</text>
     </g>
    </g>
    <g id="text_42">
     <text style="font-size: 11px; font-family: 'Times New Roman'; text-anchor: middle" x="429.863125" y="68.125625" transform="rotate(-90 429.863125 68.125625)">Cumulative Probability</text>
    </g>
   </g>
   <g id="line2d_38">
    <path d="M 258.15 126.89125 
L 261.664375 126.009766 
L 268.693125 123.071484 
L 275.721875 119.251719 
L 282.750625 116.607266 
L 289.779375 108.673906 
L 296.808125 98.977578 
L 303.836875 86.342969 
L 310.865625 76.352812 
L 317.894375 65.775 
L 324.923125 53.434219 
L 331.951875 46.676172 
L 338.980625 37.5675 
L 346.009375 27.577344 
L 353.038125 22.288438 
L 360.066875 18.468672 
L 367.095625 14.942734 
L 374.124375 11.416797 
L 381.153125 10.535313 
L 388.181875 10.535313 
L 395.210625 9.36 
L 398.725 9.36 
" clip-path="url(#pe45eb27559)" style="fill: none; stroke: #000000; stroke-linecap: square"/>
   </g>
   <g id="patch_56">
    <path d="M 258.15 126.89125 
L 258.15 9.36 
" style="fill: none; stroke: #000000; stroke-width: 0.8; stroke-linejoin: miter; stroke-linecap: square"/>
   </g>
   <g id="patch_57">
    <path d="M 398.725 126.89125 
L 398.725 9.36 
" style="fill: none; stroke: #000000; stroke-width: 0.8; stroke-linejoin: miter; stroke-linecap: square"/>
   </g>
   <g id="patch_58">
    <path d="M 258.15 126.89125 
L 398.725 126.89125 
" style="fill: none; stroke: #000000; stroke-width: 0.8; stroke-linejoin: miter; stroke-linecap: square"/>
   </g>
   <g id="patch_59">
    <path d="M 258.15 9.36 
L 398.725 9.36 
" style="fill: none; stroke: #000000; stroke-width: 0.8; stroke-linejoin: miter; stroke-linecap: square"/>
   </g>
  </g>
 </g>
 <defs>
  <clipPath id="p1133325f58">
   <rect x="33.23" y="9.36" width="140.575" height="117.53125"/>
  </clipPath>
  <clipPath id="pe45eb27559">
   <rect x="258.15" y="9.36" width="140.575" height="117.53125"/>
  </clipPath>
 </defs>
</svg>
