<?xml version="1.0" encoding="utf-8" standalone="no"?>
<!DOCTYPE svg PUBLIC "-//W3C//DTD SVG 1.1//EN"
  "http://www.w3.org/Graphics/SVG/1.1/DTD/svg11.dtd">
<svg xmlns:xlink="http://www.w3.org/1999/xlink" width="540pt" height="129.6pt" viewBox="0 0 540 129.6" xmlns="http://www.w3.org/2000/svg" version="1.1">
 <metadata>
  <rdf:RDF xmlns:dc="http://purl.org/dc/elements/1.1/" xmlns:cc="http://creativecommons.org/ns#" xmlns:rdf="http://www.w3.org/1999/02/22-rdf-syntax-ns#">
   <cc:Work>
    <dc:type rdf:resource="http://purl.org/dc/dcmitype/StillImage"/>
    <dc:date>2025-04-06T02:59:59.505570</dc:date>
    <dc:format>image/svg+xml</dc:format>
    <dc:creator>
     <cc:Agent>
      <dc:title>Matplotlib v3.10.1, https://matplotlib.org/</dc:title>
     </cc:Agent>
    </dc:creator>
   </cc:Work>
  </rdf:RDF>
 </metadata>
 <defs>
  <style type="text/css">*{stroke-linejoin: round; stroke-linecap: butt}</style>
 </defs>
 <g id="figure_1">
  <g id="patch_1">
   <path d="M 0 129.6 
L 540 129.6 
L 540 0 
L 0 0 
z
" style="fill: #ffffff"/>
  </g>
  <g id="axes_1">
   <g id="patch_2">
    <path d="M 34.31 98.44 
L 540 98.44 
L 540 0 
L 34.31 0 
z
" style="fill: #ffffff"/>
   </g>
   <g id="matplotlib.axis_1">
    <g id="xtick_1">
     <g id="line2d_1">
      <path d="M 34.31 98.44 
L 34.31 0 
" clip-path="url(#p248adf9472)" style="fill: none; stroke: #b0b0b0; stroke-width: 0.8; stroke-linecap: square"/>
     </g>
     <g id="line2d_2">
      <defs>
       <path id="m7a59c2cd32" d="M 0 0 
L 0 3.5 
" style="stroke: #000000; stroke-width: 0.8"/>
      </defs>
      <g>
       <use xlink:href="#m7a59c2cd32" x="34.31" y="98.44" style="stroke: #000000; stroke-width: 0.8"/>
      </g>
     </g>
     <g id="text_1">
      <text style="font-size: 10px; font-family: 'Times New Roman'; text-anchor: middle" x="34.31" y="112.38375" transform="rotate(-0 34.31 112.38375)">0</text>
     </g>
    </g>
    <g id="xtick_2">
     <g id="line2d_3">
      <path d="M 94.662071 98.44 
L 94.662071 0 
" clip-path="url(#p248adf9472)" style="fill: none; stroke: #b0b0b0; stroke-width: 0.8; stroke-linecap: square"/>
     </g>
     <g id="line2d_4">
      <g>
       <use xlink:href="#m7a59c2cd32" x="94.662071" y="98.44" style="stroke: #000000; stroke-width: 0.8"/>
      </g>
     </g>
     <g id="text_2">
      <text style="font-size: 10px; font-family: 'Times New Roman'; text-anchor: middle" x="94.662071" y="112.38375" transform="rotate(-0 94.662071 112.38375)">50</text>
     </g>
    </g>
    <g id="xtick_3">
     <g id="line2d_5">
      <path d="M 155.014141 98.44 
L 155.014141 0 
" clip-path="url(#p248adf9472)" style="fill: none; stroke: #b0b0b0; stroke-width: 0.8; stroke-linecap: square"/>
     </g>
     <g id="line2d_6">
      <g>
       <use xlink:href="#m7a59c2cd32" x="155.014141" y="98.44" style="stroke: #000000; stroke-width: 0.8"/>
      </g>
     </g>
     <g id="text_3">
      <text style="font-size: 10px; font-family: 'Times New Roman'; text-anchor: middle" x="155.014141" y="112.38375" transform="rotate(-0 155.014141 112.38375)">100</text>
     </g>
    </g>
    <g id="xtick_4">
     <g id="line2d_7">
      <path d="M 215.366212 98.44 
L 215.366212 0 
" clip-path="url(#p248adf9472)" style="fill: none; stroke: #b0b0b0; stroke-width: 0.8; stroke-linecap: square"/>
     </g>
     <g id="line2d_8">
      <g>
       <use xlink:href="#m7a59c2cd32" x="215.366212" y="98.44" style="stroke: #000000; stroke-width: 0.8"/>
      </g>
     </g>
     <g id="text_4">
      <text style="font-size: 10px; font-family: 'Times New Roman'; text-anchor: middle" x="215.366212" y="112.38375" transform="rotate(-0 215.366212 112.38375)">150</text>
     </g>
    </g>
    <g id="xtick_5">
     <g id="line2d_9">
      <path d="M 275.718283 98.44 
L 275.718283 0 
" clip-path="url(#p248adf9472)" style="fill: none; stroke: #b0b0b0; stroke-width: 0.8; stroke-linecap: square"/>
     </g>
     <g id="line2d_10">
      <g>
       <use xlink:href="#m7a59c2cd32" x="275.718283" y="98.44" style="stroke: #000000; stroke-width: 0.8"/>
      </g>
     </g>
     <g id="text_5">
      <text style="font-size: 10px; font-family: 'Times New Roman'; text-anchor: middle" x="275.718283" y="112.38375" transform="rotate(-0 275.718283 112.38375)">200</text>
     </g>
    </g>
    <g id="xtick_6">
     <g id="line2d_11">
      <path d="M 336.070353 98.44 
L 336.070353 0 
" clip-path="url(#p248adf9472)" style="fill: none; stroke: #b0b0b0; stroke-width: 0.8; stroke-linecap: square"/>
     </g>
     <g id="line2d_12">
      <g>
       <use xlink:href="#m7a59c2cd32" x="336.070353" y="98.44" style="stroke: #000000; stroke-width: 0.8"/>
      </g>
     </g>
     <g id="text_6">
      <text style="font-size: 10px; font-family: 'Times New Roman'; text-anchor: middle" x="336.070353" y="112.38375" transform="rotate(-0 336.070353 112.38375)">250</text>
     </g>
    </g>
    <g id="xtick_7">
     <g id="line2d_13">
      <path d="M 396.422424 98.44 
L 396.422424 0 
" clip-path="url(#p248adf9472)" style="fill: none; stroke: #b0b0b0; stroke-width: 0.8; stroke-linecap: square"/>
     </g>
     <g id="line2d_14">
      <g>
       <use xlink:href="#m7a59c2cd32" x="396.422424" y="98.44" style="stroke: #000000; stroke-width: 0.8"/>
      </g>
     </g>
     <g id="text_7">
      <text style="font-size: 10px; font-family: 'Times New Roman'; text-anchor: middle" x="396.422424" y="112.38375" transform="rotate(-0 396.422424 112.38375)">300</text>
     </g>
    </g>
    <g id="xtick_8">
     <g id="line2d_15">
      <path d="M 456.774495 98.44 
L 456.774495 0 
" clip-path="url(#p248adf9472)" style="fill: none; stroke: #b0b0b0; stroke-width: 0.8; stroke-linecap: square"/>
     </g>
     <g id="line2d_16">
      <g>
       <use xlink:href="#m7a59c2cd32" x="456.774495" y="98.44" style="stroke: #000000; stroke-width: 0.8"/>
      </g>
     </g>
     <g id="text_8">
      <text style="font-size: 10px; font-family: 'Times New Roman'; text-anchor: middle" x="456.774495" y="112.38375" transform="rotate(-0 456.774495 112.38375)">350</text>
     </g>
    </g>
    <g id="xtick_9">
     <g id="line2d_17">
      <path d="M 517.126565 98.44 
L 517.126565 0 
" clip-path="url(#p248adf9472)" style="fill: none; stroke: #b0b0b0; stroke-width: 0.8; stroke-linecap: square"/>
     </g>
     <g id="line2d_18">
      <g>
       <use xlink:href="#m7a59c2cd32" x="517.126565" y="98.44" style="stroke: #000000; stroke-width: 0.8"/>
      </g>
     </g>
     <g id="text_9">
      <text style="font-size: 10px; font-family: 'Times New Roman'; text-anchor: middle" x="517.126565" y="112.38375" transform="rotate(-0 517.126565 112.38375)">400</text>
     </g>
    </g>
    <g id="text_10">
     <text style="font-size: 12px; font-family: 'Times New Roman'; text-anchor: middle" x="287.155" y="126.855312" transform="rotate(-0 287.155 126.855312)">Simulation Run</text>
    </g>
   </g>
   <g id="matplotlib.axis_2">
    <g id="ytick_1">
     <g id="line2d_19">
      <path d="M 34.31 98.44 
L 540 98.44 
" clip-path="url(#p248adf9472)" style="fill: none; stroke: #b0b0b0; stroke-width: 0.8; stroke-linecap: square"/>
     </g>
     <g id="line2d_20">
      <defs>
       <path id="med06a43272" d="M 0 0 
L -3.5 0 
" style="stroke: #000000; stroke-width: 0.8"/>
      </defs>
      <g>
       <use xlink:href="#med06a43272" x="34.31" y="98.44" style="stroke: #000000; stroke-width: 0.8"/>
      </g>
     </g>
     <g id="text_11">
      <text style="font-size: 10px; font-family: 'Times New Roman'; text-anchor: end" x="27.31" y="101.911875" transform="rotate(-0 27.31 101.911875)">0.0</text>
     </g>
    </g>
    <g id="ytick_2">
     <g id="line2d_21">
      <path d="M 34.31 60.578462 
L 540 60.578462 
" clip-path="url(#p248adf9472)" style="fill: none; stroke: #b0b0b0; stroke-width: 0.8; stroke-linecap: square"/>
     </g>
     <g id="line2d_22">
      <g>
       <use xlink:href="#med06a43272" x="34.31" y="60.578462" style="stroke: #000000; stroke-width: 0.8"/>
      </g>
     </g>
     <g id="text_12">
      <text style="font-size: 10px; font-family: 'Times New Roman'; text-anchor: end" x="27.31" y="64.050337" transform="rotate(-0 27.31 64.050337)">0.5</text>
     </g>
    </g>
    <g id="ytick_3">
     <g id="line2d_23">
      <path d="M 34.31 22.716923 
L 540 22.716923 
" clip-path="url(#p248adf9472)" style="fill: none; stroke: #b0b0b0; stroke-width: 0.8; stroke-linecap: square"/>
     </g>
     <g id="line2d_24">
      <g>
       <use xlink:href="#med06a43272" x="34.31" y="22.716923" style="stroke: #000000; stroke-width: 0.8"/>
      </g>
     </g>
     <g id="text_13">
      <text style="font-size: 10px; font-family: 'Times New Roman'; text-anchor: end" x="27.31" y="26.188798" transform="rotate(-0 27.31 26.188798)">1.0</text>
     </g>
    </g>
    <g id="text_14">
     <text style="font-size: 12px; font-family: 'Times New Roman'; text-anchor: middle" x="8.243125" y="49.22" transform="rotate(-90 8.243125 49.22)">Normalized Value</text>
    </g>
   </g>
   <g id="line2d_25">
    <path d="M 34.31 45.318861 
L 35.517041 27.954435 
L 36.724083 21.908583 
L 37.931124 18.292934 
L 39.138166 18.331043 
L 40.345207 21.556285 
L 42.75929 17.088225 
L 43.966331 20.037573 
L 45.173373 22.161862 
L 47.587456 25.13094 
L 48.794497 25.85409 
L 50.001538 26.261621 
L 51.20858 24.795964 
L 52.415621 24.479359 
L 53.622663 25.942206 
L 54.829704 26.527106 
L 56.036745 25.066834 
L 57.243787 25.114536 
L 58.450828 22.483271 
L 59.65787 23.397366 
L 62.071953 23.912657 
L 63.278994 24.919588 
L 64.486035 25.308985 
L 65.693077 26.219112 
L 68.10716 23.101906 
L 69.314201 22.594651 
L 70.521242 21.300608 
L 71.728284 21.710936 
L 72.935325 20.231875 
L 74.142367 20.180345 
L 75.349408 20.357568 
L 76.556449 20.783112 
L 77.763491 21.050619 
L 78.970532 20.872704 
L 80.177574 21.611636 
L 81.384615 22.655377 
L 82.591657 22.923439 
L 85.005739 24.199122 
L 86.212781 25.240904 
L 87.419822 25.963652 
L 88.626864 26.307892 
L 89.833905 25.956747 
L 93.455029 26.267678 
L 94.662071 26.429443 
L 97.076153 25.952803 
L 98.283195 25.915115 
L 99.490236 26.205707 
L 100.697278 25.781616 
L 101.904319 25.999514 
L 103.111361 25.776133 
L 104.318402 25.961787 
L 105.525443 25.593346 
L 106.732485 24.930832 
L 107.939526 24.997898 
L 109.146568 24.745771 
L 110.353609 25.091945 
L 112.767692 25.068335 
L 113.974733 24.675608 
L 115.181775 24.957182 
L 116.388816 25.093406 
L 117.595858 24.882416 
L 118.802899 24.815725 
L 120.00994 24.972396 
L 121.216982 25.292933 
L 122.424023 24.754588 
L 124.838106 24.749997 
L 126.045147 24.261082 
L 127.252189 24.043355 
L 129.666272 24.103863 
L 130.873313 24.315875 
L 132.080354 23.827915 
L 133.287396 23.965124 
L 134.494437 23.899914 
L 140.529644 24.463618 
L 141.736686 24.261922 
L 144.150769 24.423165 
L 145.35781 24.584627 
L 148.978934 24.819814 
L 150.185976 24.54028 
L 151.393017 24.571595 
L 152.600058 24.943136 
L 153.8071 24.676217 
L 156.221183 25.029059 
L 157.428224 25.048857 
L 158.635266 24.816331 
L 159.842307 25.008091 
L 163.463431 24.751553 
L 165.877514 24.573226 
L 167.084555 24.4514 
L 168.291597 24.835744 
L 171.912721 25.32334 
L 173.119763 25.189717 
L 174.326804 24.93166 
L 179.15497 24.817131 
L 180.362011 24.51302 
L 181.569052 24.339962 
L 182.776094 24.401586 
L 183.983135 24.215511 
L 185.190177 24.209678 
L 186.397218 23.916776 
L 187.604259 24.066767 
L 188.811301 23.891778 
L 190.018342 23.936548 
L 191.225384 23.83533 
L 192.432425 23.537764 
L 196.053549 23.849516 
L 197.260591 24.139367 
L 203.295798 24.599925 
L 204.502839 24.46114 
L 208.123963 24.995961 
L 214.159171 24.571599 
L 217.780295 24.807954 
L 218.987336 24.958658 
L 221.401419 24.858843 
L 222.60846 24.867947 
L 223.815502 24.446958 
L 226.229585 24.384151 
L 227.436626 24.197877 
L 228.643668 24.209252 
L 229.850709 23.960622 
L 231.05775 23.904318 
L 232.264792 23.970892 
L 233.471833 23.889796 
L 234.678875 23.66272 
L 239.50704 23.820106 
L 243.128164 23.469975 
L 245.542247 23.696159 
L 246.749289 23.735495 
L 247.95633 23.948282 
L 249.163372 23.859106 
L 252.784496 24.018047 
L 253.991537 23.722551 
L 255.198579 23.690307 
L 257.612661 23.785285 
L 261.233786 23.725861 
L 267.268993 23.923326 
L 268.476034 23.707085 
L 270.890117 23.923709 
L 272.097158 23.930774 
L 273.3042 23.810893 
L 276.925324 23.762195 
L 278.132365 23.527271 
L 279.339407 23.562735 
L 284.167573 23.122157 
L 288.995738 23.400579 
L 291.409821 23.543842 
L 292.616862 23.435607 
L 293.823904 23.494659 
L 295.030945 23.363298 
L 296.237987 23.394764 
L 298.652069 23.311485 
L 299.859111 23.442715 
L 302.273194 23.189252 
L 303.480235 23.324806 
L 307.101359 23.408718 
L 309.515442 23.692228 
L 310.722484 23.614304 
L 311.929525 23.701777 
L 313.136566 23.623743 
L 314.343608 23.692017 
L 315.550649 23.488103 
L 317.964732 23.556353 
L 326.414022 23.915656 
L 327.621063 23.744401 
L 336.070353 23.885873 
L 338.484436 23.914961 
L 343.312602 24.108225 
L 345.726685 24.246232 
L 348.140767 24.182276 
L 349.347809 24.081256 
L 351.761892 24.13046 
L 355.383016 24.204964 
L 365.039347 24.484631 
L 367.45343 24.252799 
L 368.660471 24.165856 
L 373.488637 24.207497 
L 374.695678 24.156913 
L 375.90272 24.256122 
L 377.109761 24.209732 
L 378.316803 24.364092 
L 379.523844 24.395284 
L 380.730886 23.961536 
L 396.422424 24.046034 
L 401.25059 24.281168 
L 415.735087 24.246223 
L 416.942128 24.032684 
L 419.356211 23.93671 
L 420.563252 23.680568 
L 422.977335 23.58223 
L 427.805501 23.518656 
L 429.012542 23.634018 
L 433.840708 23.352815 
L 436.254791 23.299286 
L 439.875915 23.187633 
L 442.289998 23.276 
L 447.118163 23.319777 
L 450.739288 23.390647 
L 451.946329 23.268662 
L 455.567453 23.463098 
L 459.188577 23.642308 
L 462.809702 23.436919 
L 465.223784 23.44117 
L 470.05195 23.328208 
L 472.466033 23.375068 
L 474.880116 23.494686 
L 479.708281 23.40391 
L 482.122364 23.421068 
L 484.536447 23.363738 
L 491.778696 23.330356 
L 495.39982 23.481245 
L 497.813903 23.18368 
L 500.227985 23.181189 
L 502.642068 23.027979 
L 505.056151 22.958179 
L 506.263193 22.889079 
L 508.677275 22.936821 
L 511.091358 22.817011 
L 514.712482 22.642917 
L 515.919524 22.716923 
L 515.919524 22.716923 
" clip-path="url(#p248adf9472)" style="fill: none; stroke: #4169e1; stroke-width: 1.5; stroke-linecap: square"/>
   </g>
   <g id="line2d_26">
    <path d="M 34.31 98.44 
L 35.517041 52.790682 
L 37.931124 61.376996 
L 39.138166 68.788718 
L 40.345207 65.856369 
L 41.552248 66.100345 
L 42.75929 64.708417 
L 43.966331 57.920861 
L 45.173373 55.824078 
L 46.380414 56.256431 
L 47.587456 56.215544 
L 50.001538 61.038535 
L 51.20858 58.978878 
L 52.415621 61.217562 
L 53.622663 58.223517 
L 54.829704 59.577276 
L 56.036745 55.811651 
L 57.243787 57.936523 
L 58.450828 38.901336 
L 59.65787 38.951105 
L 62.071953 43.466118 
L 63.278994 41.98104 
L 64.486035 43.578635 
L 65.693077 42.349986 
L 68.10716 26.345999 
L 69.314201 27.619426 
L 70.521242 22.298394 
L 71.728284 23.887619 
L 72.935325 15.548499 
L 74.142367 17.973218 
L 75.349408 20.110597 
L 76.556449 21.326855 
L 78.970532 24.828376 
L 80.177574 23.574578 
L 81.384615 19.013952 
L 82.591657 20.516018 
L 85.005739 19.08735 
L 86.212781 13.825436 
L 87.419822 12.226074 
L 89.833905 14.245901 
L 92.247988 17.637977 
L 95.869112 21.42256 
L 97.076153 22.370917 
L 98.283195 23.768207 
L 99.490236 24.43552 
L 100.697278 24.259433 
L 104.318402 26.91647 
L 105.525443 26.895974 
L 106.732485 24.081752 
L 107.939526 25.23954 
L 109.146568 25.804766 
L 110.353609 25.7967 
L 112.767692 27.995096 
L 113.974733 27.505387 
L 115.181775 27.744327 
L 116.388816 28.577861 
L 117.595858 29.110858 
L 118.802899 30.040189 
L 120.00994 30.72634 
L 121.216982 30.533967 
L 122.424023 28.248605 
L 124.838106 30.084021 
L 126.045147 28.221372 
L 127.252189 28.568987 
L 129.666272 30.274649 
L 130.873313 30.571791 
L 132.080354 28.47956 
L 133.287396 29.088737 
L 135.701479 30.51801 
L 138.115562 31.786377 
L 139.322603 32.117614 
L 140.529644 32.81085 
L 141.736686 32.991912 
L 144.150769 34.219948 
L 145.35781 34.547374 
L 147.771893 35.786006 
L 148.978934 36.247668 
L 150.185976 35.753147 
L 151.393017 36.378408 
L 152.600058 34.957186 
L 153.8071 34.524176 
L 155.014141 34.748245 
L 156.221183 34.829199 
L 157.428224 35.440727 
L 158.635266 35.203361 
L 159.842307 35.226637 
L 161.049348 35.612027 
L 164.670473 37.16049 
L 167.084555 37.689 
L 168.291597 35.748993 
L 173.119763 36.266612 
L 174.326804 35.628498 
L 176.740887 36.618586 
L 179.15497 37.205995 
L 180.362011 36.013721 
L 181.569052 35.96808 
L 182.776094 36.40117 
L 183.983135 36.247486 
L 185.190177 36.740433 
L 186.397218 35.58971 
L 187.604259 35.648167 
L 188.811301 35.54153 
L 190.018342 35.986218 
L 191.225384 36.261325 
L 192.432425 34.976266 
L 193.639467 35.316674 
L 194.846508 35.256587 
L 196.053549 35.6346 
L 197.260591 34.3793 
L 198.467632 34.60997 
L 199.674674 34.470175 
L 203.295798 35.583877 
L 204.502839 35.615362 
L 206.916922 35.35278 
L 208.123963 34.827768 
L 209.331005 35.052872 
L 210.538046 35.481004 
L 212.952129 35.450952 
L 216.573253 36.506037 
L 218.987336 36.302492 
L 220.194378 36.500531 
L 222.60846 37.286614 
L 223.815502 33.461003 
L 226.229585 34.19853 
L 227.436626 33.757045 
L 228.643668 34.153169 
L 229.850709 33.031449 
L 232.264792 33.636476 
L 233.471833 33.862574 
L 234.678875 32.953388 
L 235.885916 33.282365 
L 239.50704 33.688415 
L 240.714082 33.565071 
L 241.921123 33.906315 
L 243.128164 33.473426 
L 244.335206 33.333661 
L 245.542247 33.503479 
L 246.749289 33.829123 
L 247.95633 32.97878 
L 249.163372 33.130181 
L 250.370413 33.47305 
L 251.577454 33.637789 
L 252.784496 33.93232 
L 253.991537 31.878868 
L 255.198579 32.211808 
L 256.40562 32.320356 
L 258.819703 32.943892 
L 266.061951 34.791698 
L 267.268993 34.827975 
L 268.476034 33.780803 
L 269.683076 33.665857 
L 270.890117 33.733174 
L 272.097158 34.058487 
L 273.3042 33.951207 
L 275.718283 34.582029 
L 276.925324 34.766126 
L 278.132365 33.391995 
L 279.339407 33.672204 
L 280.546448 33.5002 
L 281.75349 33.125061 
L 282.960531 33.409393 
L 284.167573 33.158398 
L 286.581655 33.661887 
L 287.788697 33.265285 
L 288.995738 33.494837 
L 290.20278 33.301309 
L 291.409821 33.594484 
L 292.616862 33.516551 
L 293.823904 33.703619 
L 295.030945 33.437656 
L 296.237987 33.703304 
L 297.445028 33.730997 
L 298.652069 34.023587 
L 299.859111 33.741477 
L 301.066152 33.788507 
L 302.273194 33.129875 
L 303.480235 32.801076 
L 305.894318 33.376775 
L 307.101359 33.461884 
L 308.308401 32.851948 
L 309.515442 32.623413 
L 314.343608 32.905598 
L 315.550649 31.718888 
L 316.757691 31.721669 
L 319.171773 32.202063 
L 320.378815 31.815372 
L 323.999939 32.505316 
L 325.206981 32.58293 
L 327.621063 30.985572 
L 328.828105 31.228956 
L 330.035146 31.101884 
L 332.449229 31.5783 
L 333.65627 31.709713 
L 334.863312 31.625832 
L 336.070353 31.273561 
L 340.898519 32.047058 
L 343.312602 32.235195 
L 344.519643 32.227086 
L 346.933726 32.608346 
L 348.140767 32.763853 
L 349.347809 32.611274 
L 350.55485 32.747184 
L 354.175974 33.448308 
L 356.590057 33.777939 
L 357.797099 33.682223 
L 363.832306 34.701068 
L 365.039347 34.882778 
L 366.246389 34.053939 
L 373.488637 34.234265 
L 374.695678 34.351897 
L 375.90272 34.155863 
L 377.109761 34.288895 
L 378.316803 33.485125 
L 379.523844 33.669322 
L 380.730886 25.71956 
L 381.937927 25.971113 
L 383.144968 25.730633 
L 385.559051 26.111706 
L 386.766093 26.042565 
L 390.387217 26.672388 
L 391.594258 26.715879 
L 392.8013 26.478938 
L 394.008341 26.473711 
L 396.422424 26.905121 
L 397.629465 26.871135 
L 398.836507 27.106011 
L 400.043548 27.185517 
L 401.25059 27.008127 
L 403.664672 27.458722 
L 406.078755 27.470089 
L 409.699879 28.097807 
L 410.906921 28.171329 
L 413.321004 28.576479 
L 414.528045 28.529905 
L 415.735087 28.612309 
L 416.942128 26.643487 
L 419.356211 26.861546 
L 420.563252 23.906015 
L 421.770294 24.137102 
L 422.977335 23.922286 
L 424.184376 24.112084 
L 426.598459 24.100066 
L 427.805501 24.275758 
L 429.012542 23.843017 
L 430.219583 23.669918 
L 431.426625 23.875231 
L 433.840708 23.594233 
L 435.047749 23.813323 
L 436.254791 23.829273 
L 439.875915 24.195436 
L 441.082956 23.988935 
L 444.70408 24.629237 
L 445.911122 24.703347 
L 448.325205 25.065929 
L 450.739288 25.386155 
L 451.946329 24.817202 
L 453.15337 24.566621 
L 457.981536 24.778545 
L 459.188577 24.780302 
L 460.395619 24.607999 
L 461.60266 24.809699 
L 462.809702 24.363827 
L 472.466033 25.368809 
L 473.673074 25.163336 
L 478.50124 25.778824 
L 479.708281 25.660358 
L 482.122364 25.784725 
L 483.329406 25.966869 
L 484.536447 25.865352 
L 486.95053 26.201833 
L 488.157571 26.15934 
L 489.364613 26.296294 
L 490.571654 26.195301 
L 491.778696 26.264029 
L 492.985737 26.097526 
L 494.192778 25.552196 
L 495.39982 25.647041 
L 496.606861 24.879086 
L 497.813903 23.408554 
L 500.227985 23.691436 
L 501.435027 23.325116 
L 502.642068 23.337047 
L 503.84911 23.50588 
L 505.056151 23.220577 
L 507.470234 23.015445 
L 508.677275 23.172425 
L 509.884317 22.792744 
L 511.091358 22.954731 
L 512.2984 22.93728 
L 513.505441 23.04974 
L 515.919524 22.716923 
L 515.919524 22.716923 
" clip-path="url(#p248adf9472)" style="fill: none; stroke-dasharray: 5.55,2.4; stroke-dashoffset: 0; stroke: #4169e1; stroke-width: 1.5"/>
   </g>
   <g id="line2d_27">
    <path d="M 34.31 31.135002 
L 35.517041 28.290708 
L 36.724083 22.442616 
L 37.931124 21.341471 
L 39.138166 21.513461 
L 40.345207 22.729906 
L 41.552248 21.079787 
L 42.75929 18.741911 
L 43.966331 20.991884 
L 45.173373 22.339953 
L 47.587456 23.648762 
L 48.794497 24.062522 
L 50.001538 24.81857 
L 52.415621 23.642513 
L 53.622663 24.980626 
L 54.829704 25.534868 
L 56.036745 24.362388 
L 57.243787 24.212127 
L 58.450828 22.251869 
L 59.65787 22.988232 
L 60.864911 23.10205 
L 62.071953 23.533731 
L 63.278994 24.300091 
L 64.486035 24.399623 
L 65.693077 25.368202 
L 68.10716 23.377101 
L 69.314201 22.857271 
L 70.521242 21.999987 
L 71.728284 22.09506 
L 72.935325 20.987398 
L 74.142367 20.817517 
L 75.349408 20.932281 
L 76.556449 21.238142 
L 77.763491 21.343121 
L 78.970532 20.95 
L 80.177574 21.507158 
L 81.384615 22.3394 
L 82.591657 22.347542 
L 85.005739 23.397714 
L 86.212781 24.266086 
L 87.419822 24.828292 
L 88.626864 25.030185 
L 91.040946 24.687874 
L 92.247988 24.769688 
L 94.662071 25.128977 
L 98.283195 24.606583 
L 99.490236 24.820203 
L 100.697278 24.435257 
L 101.904319 24.653684 
L 103.111361 24.457434 
L 104.318402 24.580933 
L 105.525443 24.436746 
L 106.732485 23.947899 
L 107.939526 24.044784 
L 109.146568 23.937776 
L 110.353609 24.13596 
L 112.767692 24.291595 
L 113.974733 23.986453 
L 116.388816 24.247034 
L 117.595858 24.046231 
L 120.00994 24.193646 
L 121.216982 24.457706 
L 122.424023 24.035798 
L 124.838106 23.910743 
L 126.045147 23.631099 
L 127.252189 23.47463 
L 129.666272 23.482646 
L 130.873313 23.696524 
L 132.080354 23.36888 
L 138.115562 23.696236 
L 139.322603 23.888167 
L 140.529644 23.920183 
L 141.736686 23.770382 
L 148.978934 24.224589 
L 150.185976 24.025351 
L 151.393017 24.047684 
L 152.600058 24.347981 
L 153.8071 24.208482 
L 156.221183 24.40061 
L 161.049348 24.479417 
L 167.084555 24.131784 
L 168.291597 24.438626 
L 171.912721 24.762257 
L 177.947928 24.291847 
L 179.15497 24.304066 
L 181.569052 23.973676 
L 182.776094 23.97109 
L 183.983135 23.835529 
L 185.190177 23.846836 
L 186.397218 23.563759 
L 187.604259 23.639463 
L 188.811301 23.534244 
L 190.018342 23.559596 
L 193.639467 23.312974 
L 199.674674 23.878654 
L 205.709881 24.004382 
L 208.123963 24.324236 
L 212.952129 23.988557 
L 214.159171 23.918812 
L 221.401419 24.205938 
L 222.60846 24.214345 
L 223.815502 23.888615 
L 225.022543 23.894188 
L 227.436626 23.647148 
L 228.643668 23.691907 
L 229.850709 23.522699 
L 235.885916 23.316025 
L 238.299999 23.486024 
L 243.128164 23.084479 
L 245.542247 23.202413 
L 246.749289 23.242713 
L 247.95633 23.394338 
L 250.370413 23.39482 
L 252.784496 23.481778 
L 253.991537 23.251446 
L 255.198579 23.1856 
L 256.40562 23.294165 
L 266.061951 23.320347 
L 267.268993 23.396607 
L 268.476034 23.266143 
L 272.097158 23.446066 
L 274.511241 23.372045 
L 276.925324 23.367809 
L 278.132365 23.181218 
L 280.546448 23.099643 
L 282.960531 23.023386 
L 285.374614 23.021471 
L 286.581655 23.006623 
L 290.20278 23.305954 
L 293.823904 23.238784 
L 295.030945 23.127804 
L 297.445028 23.099667 
L 301.066152 23.171699 
L 302.273194 23.070622 
L 304.687277 23.164903 
L 307.101359 23.22348 
L 309.515442 23.440865 
L 310.722484 23.357218 
L 314.343608 23.392363 
L 315.550649 23.254895 
L 320.378815 23.476115 
L 325.206981 23.440962 
L 326.414022 23.56184 
L 327.621063 23.458885 
L 332.449229 23.521175 
L 343.312602 23.637247 
L 345.726685 23.764936 
L 354.175974 23.767396 
L 365.039347 23.9265 
L 368.660471 23.761881 
L 374.695678 23.811768 
L 375.90272 23.894849 
L 377.109761 23.852887 
L 379.523844 23.993269 
L 380.730886 23.725169 
L 381.937927 23.765057 
L 384.35201 23.651625 
L 387.973134 23.681189 
L 396.422424 23.753728 
L 403.664672 23.8432 
L 406.078755 23.85071 
L 413.321004 23.919821 
L 419.356211 23.577841 
L 420.563252 23.390517 
L 444.70408 23.119418 
L 450.739288 23.172237 
L 451.946329 23.059579 
L 457.981536 23.273094 
L 461.60266 23.251173 
L 464.016743 23.222885 
L 482.122364 23.199046 
L 485.743488 23.152686 
L 491.778696 23.153935 
L 495.39982 23.260885 
L 499.020944 23.085722 
L 509.884317 22.839029 
L 514.712482 22.668724 
L 515.919524 22.716923 
L 515.919524 22.716923 
" clip-path="url(#p248adf9472)" style="fill: none; stroke: #ff8c00; stroke-width: 1.5; stroke-linecap: square"/>
   </g>
   <g id="line2d_28">
    <path d="M 34.31 98.44 
L 35.517041 96.172706 
L 36.724083 77.75868 
L 37.931124 81.909552 
L 39.138166 85.182481 
L 40.345207 85.318519 
L 41.552248 82.614331 
L 43.966331 65.249745 
L 45.173373 63.984968 
L 46.380414 66.012062 
L 47.587456 67.285354 
L 48.794497 69.106113 
L 50.001538 69.118814 
L 52.415621 70.069661 
L 53.622663 63.709447 
L 54.829704 64.175375 
L 56.036745 59.043837 
L 57.243787 60.893418 
L 58.450828 41.142853 
L 59.65787 40.556007 
L 60.864911 42.992829 
L 62.071953 44.101932 
L 63.278994 42.3251 
L 64.486035 44.413956 
L 65.693077 39.578907 
L 68.10716 28.624659 
L 69.314201 28.755599 
L 70.521242 24.82431 
L 71.728284 27.04627 
L 72.935325 18.206406 
L 75.349408 22.406396 
L 76.556449 23.600794 
L 77.763491 25.512286 
L 78.970532 25.828884 
L 80.177574 24.384738 
L 81.384615 18.665654 
L 82.591657 20.610626 
L 83.798698 18.95122 
L 85.005739 17.888951 
L 86.212781 10.63226 
L 87.419822 8.685903 
L 91.040946 13.031925 
L 92.247988 14.684905 
L 93.455029 15.598714 
L 95.869112 18.288025 
L 97.076153 18.992057 
L 98.283195 20.14926 
L 99.490236 20.882114 
L 100.697278 19.982948 
L 103.111361 21.33723 
L 105.525443 23.319769 
L 106.732485 20.532808 
L 109.146568 22.649154 
L 110.353609 23.139901 
L 111.56065 24.261665 
L 112.767692 25.163547 
L 113.974733 24.534934 
L 115.181775 25.045337 
L 116.388816 25.970131 
L 117.595858 26.225678 
L 120.00994 28.015194 
L 121.216982 27.572905 
L 122.424023 24.88876 
L 124.838106 26.658423 
L 126.045147 25.925 
L 127.252189 26.326351 
L 129.666272 28.089185 
L 130.873313 27.932101 
L 132.080354 26.354993 
L 134.494437 28.011609 
L 135.701479 28.457669 
L 138.115562 29.795222 
L 139.322603 29.677089 
L 140.529644 30.424426 
L 141.736686 30.620426 
L 142.943727 31.242792 
L 144.150769 31.720668 
L 147.771893 33.667898 
L 148.978934 33.732557 
L 150.185976 33.331639 
L 151.393017 33.982452 
L 152.600058 32.156754 
L 153.8071 32.27966 
L 155.014141 32.596094 
L 156.221183 33.050325 
L 157.428224 33.666672 
L 158.635266 34.145702 
L 159.842307 34.072588 
L 161.049348 34.654375 
L 162.25639 35.071301 
L 163.463431 35.655453 
L 164.670473 35.87993 
L 165.877514 35.864906 
L 167.084555 36.422021 
L 168.291597 34.046818 
L 169.498638 34.255559 
L 170.70568 34.300559 
L 171.912721 34.608184 
L 173.119763 34.75154 
L 174.326804 34.53068 
L 175.533845 34.772562 
L 176.740887 35.305908 
L 177.947928 35.382206 
L 179.15497 35.898324 
L 180.362011 34.977538 
L 181.569052 34.961011 
L 182.776094 35.472707 
L 183.983135 35.337808 
L 185.190177 35.83414 
L 186.397218 33.49741 
L 187.604259 33.800789 
L 188.811301 33.904711 
L 190.018342 34.377899 
L 191.225384 34.479976 
L 192.432425 33.489222 
L 193.639467 33.85783 
L 194.846508 33.690499 
L 196.053549 34.138421 
L 197.260591 33.14295 
L 198.467632 33.312593 
L 199.674674 33.250783 
L 202.088756 34.131968 
L 203.295798 34.383259 
L 206.916922 33.597279 
L 208.123963 32.440015 
L 209.331005 32.417193 
L 210.538046 32.745434 
L 211.745088 32.729846 
L 215.366212 33.4965 
L 216.573253 33.903832 
L 217.780295 33.887383 
L 218.987336 33.56498 
L 220.194378 33.76329 
L 222.60846 34.499777 
L 223.815502 30.235974 
L 225.022543 30.663555 
L 226.229585 30.569459 
L 227.436626 30.121452 
L 228.643668 30.452776 
L 229.850709 29.569962 
L 233.471833 30.372581 
L 234.678875 29.686734 
L 235.885916 30.041901 
L 237.092957 30.206859 
L 239.50704 30.145884 
L 240.714082 29.513437 
L 241.921123 29.793077 
L 243.128164 29.561821 
L 244.335206 29.452013 
L 246.749289 30.138422 
L 247.95633 29.381689 
L 251.577454 30.33152 
L 252.784496 30.623542 
L 253.991537 28.288067 
L 255.198579 28.446958 
L 256.40562 28.217509 
L 257.612661 28.594187 
L 258.819703 28.782638 
L 261.233786 29.336508 
L 262.440827 29.556068 
L 266.061951 30.552418 
L 267.268993 30.587789 
L 268.476034 30.010335 
L 269.683076 29.900059 
L 270.890117 29.995194 
L 272.097158 30.317899 
L 273.3042 30.227811 
L 275.718283 30.780039 
L 276.925324 30.97654 
L 278.132365 29.33786 
L 279.339407 29.676176 
L 281.75349 29.528548 
L 282.960531 29.857454 
L 285.374614 30.228243 
L 286.581655 30.540146 
L 287.788697 29.853892 
L 288.995738 29.654302 
L 290.20278 29.64832 
L 291.409821 29.96283 
L 292.616862 30.021777 
L 293.823904 30.333202 
L 295.030945 29.901463 
L 296.237987 30.119513 
L 297.445028 30.149476 
L 298.652069 30.386139 
L 299.859111 30.114861 
L 301.066152 30.202952 
L 303.480235 29.54881 
L 305.894318 30.152622 
L 307.101359 30.177612 
L 308.308401 29.355709 
L 310.722484 29.051784 
L 314.343608 29.519688 
L 315.550649 28.580201 
L 316.757691 28.597488 
L 319.171773 29.116179 
L 320.378815 28.505842 
L 321.585856 28.787985 
L 322.792898 28.877995 
L 325.206981 29.339369 
L 326.414022 28.63274 
L 327.621063 28.196966 
L 328.828105 28.358215 
L 330.035146 28.263506 
L 333.65627 28.982019 
L 334.863312 28.920845 
L 336.070353 28.062071 
L 342.10556 29.224428 
L 343.312602 29.170654 
L 344.519643 28.952629 
L 345.726685 29.071214 
L 348.140767 29.573428 
L 349.347809 29.480089 
L 350.55485 29.508984 
L 355.383016 30.439145 
L 356.590057 30.479145 
L 357.797099 30.313754 
L 363.832306 31.363128 
L 366.246389 31.0471 
L 367.45343 31.225037 
L 368.660471 31.195053 
L 369.867513 31.43561 
L 371.074554 31.085494 
L 373.488637 31.420823 
L 374.695678 31.630435 
L 375.90272 31.318225 
L 377.109761 31.413586 
L 378.316803 30.506275 
L 379.523844 30.708209 
L 380.730886 25.161979 
L 381.937927 25.28712 
L 383.144968 24.553378 
L 385.559051 25.018 
L 386.766093 25.056218 
L 390.387217 25.795141 
L 391.594258 25.793381 
L 392.8013 25.240949 
L 394.008341 25.301668 
L 395.215383 25.505763 
L 397.629465 25.726134 
L 400.043548 26.105748 
L 401.25059 25.771066 
L 403.664672 26.098198 
L 407.285797 26.358379 
L 409.699879 26.759494 
L 410.906921 26.835383 
L 413.321004 27.282905 
L 414.528045 27.139583 
L 415.735087 27.25137 
L 416.942128 26.275314 
L 419.356211 26.022324 
L 420.563252 23.100929 
L 421.770294 23.306003 
L 422.977335 23.103489 
L 424.184376 23.249982 
L 426.598459 23.301441 
L 427.805501 23.507095 
L 429.012542 22.755249 
L 430.219583 22.575777 
L 433.840708 22.545178 
L 435.047749 22.770608 
L 436.254791 22.826801 
L 438.668873 23.265436 
L 439.875915 23.300768 
L 441.082956 23.073173 
L 448.325205 24.292046 
L 449.532246 24.368642 
L 450.739288 24.572101 
L 451.946329 23.554254 
L 453.15337 23.378502 
L 455.567453 23.625234 
L 456.774495 23.538739 
L 459.188577 23.818113 
L 460.395619 23.695042 
L 461.60266 23.870939 
L 462.809702 23.751657 
L 472.466033 24.706739 
L 473.673074 24.365641 
L 478.50124 24.996198 
L 480.915323 25.09067 
L 483.329406 25.447644 
L 484.536447 25.46508 
L 486.95053 25.765007 
L 488.157571 25.550131 
L 489.364613 25.735138 
L 490.571654 25.589056 
L 491.778696 25.733683 
L 492.985737 25.616201 
L 494.192778 24.994415 
L 495.39982 25.061821 
L 496.606861 24.490618 
L 497.813903 23.341024 
L 500.227985 23.651736 
L 502.642068 23.409731 
L 503.84911 23.533401 
L 505.056151 23.461407 
L 507.470234 23.067203 
L 508.677275 23.197057 
L 509.884317 22.870324 
L 511.091358 22.697489 
L 513.505441 22.761659 
L 515.919524 22.716923 
L 515.919524 22.716923 
" clip-path="url(#p248adf9472)" style="fill: none; stroke-dasharray: 5.55,2.4; stroke-dashoffset: 0; stroke: #ff8c00; stroke-width: 1.5"/>
   </g>
   <g id="patch_3">
    <path d="M 34.31 98.44 
L 34.31 0 
" style="fill: none; stroke: #000000; stroke-width: 0.8; stroke-linejoin: miter; stroke-linecap: square"/>
   </g>
   <g id="patch_4">
    <path d="M 540 98.44 
L 540 0 
" style="fill: none; stroke: #000000; stroke-width: 0.8; stroke-linejoin: miter; stroke-linecap: square"/>
   </g>
   <g id="patch_5">
    <path d="M 34.31 98.44 
L 540 98.44 
" style="fill: none; stroke: #000000; stroke-width: 0.8; stroke-linejoin: miter; stroke-linecap: square"/>
   </g>
   <g id="patch_6">
    <path d="M 34.31 0 
L 540 0 
" style="fill: none; stroke: #000000; stroke-width: 0.8; stroke-linejoin: miter; stroke-linecap: square"/>
   </g>
  </g>
 </g>
 <defs>
  <clipPath id="p248adf9472">
   <rect x="34.31" y="0" width="505.69" height="98.44"/>
  </clipPath>
 </defs>
</svg>
