<?xml version="1.0" encoding="utf-8" standalone="no"?>
<!DOCTYPE svg PUBLIC "-//W3C//DTD SVG 1.1//EN"
  "http://www.w3.org/Graphics/SVG/1.1/DTD/svg11.dtd">
<svg xmlns:xlink="http://www.w3.org/1999/xlink" width="540pt" height="129.6pt" viewBox="0 0 540 129.6" xmlns="http://www.w3.org/2000/svg" version="1.1">
 <metadata>
  <rdf:RDF xmlns:dc="http://purl.org/dc/elements/1.1/" xmlns:cc="http://creativecommons.org/ns#" xmlns:rdf="http://www.w3.org/1999/02/22-rdf-syntax-ns#">
   <cc:Work>
    <dc:type rdf:resource="http://purl.org/dc/dcmitype/StillImage"/>
    <dc:date>2025-04-05T17:44:45.201687</dc:date>
    <dc:format>image/svg+xml</dc:format>
    <dc:creator>
     <cc:Agent>
      <dc:title>Matplotlib v3.10.1, https://matplotlib.org/</dc:title>
     </cc:Agent>
    </dc:creator>
   </cc:Work>
  </rdf:RDF>
 </metadata>
 <defs>
  <style type="text/css">*{stroke-linejoin: round; stroke-linecap: butt}</style>
 </defs>
 <g id="figure_1">
  <g id="patch_1">
   <path d="M 0 129.6 
L 540 129.6 
L 540 0 
L 0 0 
z
" style="fill: #ffffff"/>
  </g>
  <g id="axes_1">
   <g id="patch_2">
    <path d="M 26.795 98.44 
L 540 98.44 
L 540 0 
L 26.795 0 
z
" style="fill: #ffffff"/>
   </g>
   <g id="matplotlib.axis_1">
    <g id="xtick_1">
     <g id="line2d_1">
      <path d="M 26.795 98.44 
L 26.795 0 
" clip-path="url(#p47840c5432)" style="fill: none; stroke: #b0b0b0; stroke-width: 0.8; stroke-linecap: square"/>
     </g>
     <g id="line2d_2">
      <defs>
       <path id="m004f9e7d5b" d="M 0 0 
L 0 3.5 
" style="stroke: #000000; stroke-width: 0.8"/>
      </defs>
      <g>
       <use xlink:href="#m004f9e7d5b" x="26.795" y="98.44" style="stroke: #000000; stroke-width: 0.8"/>
      </g>
     </g>
     <g id="text_1">
      <text style="font-size: 10px; font-family: 'Times New Roman'; text-anchor: middle" x="26.795" y="112.38375" transform="rotate(-0 26.795 112.38375)">0</text>
     </g>
    </g>
    <g id="xtick_2">
     <g id="line2d_3">
      <path d="M 88.043956 98.44 
L 88.043956 0 
" clip-path="url(#p47840c5432)" style="fill: none; stroke: #b0b0b0; stroke-width: 0.8; stroke-linecap: square"/>
     </g>
     <g id="line2d_4">
      <g>
       <use xlink:href="#m004f9e7d5b" x="88.043956" y="98.44" style="stroke: #000000; stroke-width: 0.8"/>
      </g>
     </g>
     <g id="text_2">
      <text style="font-size: 10px; font-family: 'Times New Roman'; text-anchor: middle" x="88.043956" y="112.38375" transform="rotate(-0 88.043956 112.38375)">50</text>
     </g>
    </g>
    <g id="xtick_3">
     <g id="line2d_5">
      <path d="M 149.292911 98.44 
L 149.292911 0 
" clip-path="url(#p47840c5432)" style="fill: none; stroke: #b0b0b0; stroke-width: 0.8; stroke-linecap: square"/>
     </g>
     <g id="line2d_6">
      <g>
       <use xlink:href="#m004f9e7d5b" x="149.292911" y="98.44" style="stroke: #000000; stroke-width: 0.8"/>
      </g>
     </g>
     <g id="text_3">
      <text style="font-size: 10px; font-family: 'Times New Roman'; text-anchor: middle" x="149.292911" y="112.38375" transform="rotate(-0 149.292911 112.38375)">100</text>
     </g>
    </g>
    <g id="xtick_4">
     <g id="line2d_7">
      <path d="M 210.541867 98.44 
L 210.541867 0 
" clip-path="url(#p47840c5432)" style="fill: none; stroke: #b0b0b0; stroke-width: 0.8; stroke-linecap: square"/>
     </g>
     <g id="line2d_8">
      <g>
       <use xlink:href="#m004f9e7d5b" x="210.541867" y="98.44" style="stroke: #000000; stroke-width: 0.8"/>
      </g>
     </g>
     <g id="text_4">
      <text style="font-size: 10px; font-family: 'Times New Roman'; text-anchor: middle" x="210.541867" y="112.38375" transform="rotate(-0 210.541867 112.38375)">150</text>
     </g>
    </g>
    <g id="xtick_5">
     <g id="line2d_9">
      <path d="M 271.790823 98.44 
L 271.790823 0 
" clip-path="url(#p47840c5432)" style="fill: none; stroke: #b0b0b0; stroke-width: 0.8; stroke-linecap: square"/>
     </g>
     <g id="line2d_10">
      <g>
       <use xlink:href="#m004f9e7d5b" x="271.790823" y="98.44" style="stroke: #000000; stroke-width: 0.8"/>
      </g>
     </g>
     <g id="text_5">
      <text style="font-size: 10px; font-family: 'Times New Roman'; text-anchor: middle" x="271.790823" y="112.38375" transform="rotate(-0 271.790823 112.38375)">200</text>
     </g>
    </g>
    <g id="xtick_6">
     <g id="line2d_11">
      <path d="M 333.039779 98.44 
L 333.039779 0 
" clip-path="url(#p47840c5432)" style="fill: none; stroke: #b0b0b0; stroke-width: 0.8; stroke-linecap: square"/>
     </g>
     <g id="line2d_12">
      <g>
       <use xlink:href="#m004f9e7d5b" x="333.039779" y="98.44" style="stroke: #000000; stroke-width: 0.8"/>
      </g>
     </g>
     <g id="text_6">
      <text style="font-size: 10px; font-family: 'Times New Roman'; text-anchor: middle" x="333.039779" y="112.38375" transform="rotate(-0 333.039779 112.38375)">250</text>
     </g>
    </g>
    <g id="xtick_7">
     <g id="line2d_13">
      <path d="M 394.288734 98.44 
L 394.288734 0 
" clip-path="url(#p47840c5432)" style="fill: none; stroke: #b0b0b0; stroke-width: 0.8; stroke-linecap: square"/>
     </g>
     <g id="line2d_14">
      <g>
       <use xlink:href="#m004f9e7d5b" x="394.288734" y="98.44" style="stroke: #000000; stroke-width: 0.8"/>
      </g>
     </g>
     <g id="text_7">
      <text style="font-size: 10px; font-family: 'Times New Roman'; text-anchor: middle" x="394.288734" y="112.38375" transform="rotate(-0 394.288734 112.38375)">300</text>
     </g>
    </g>
    <g id="xtick_8">
     <g id="line2d_15">
      <path d="M 455.53769 98.44 
L 455.53769 0 
" clip-path="url(#p47840c5432)" style="fill: none; stroke: #b0b0b0; stroke-width: 0.8; stroke-linecap: square"/>
     </g>
     <g id="line2d_16">
      <g>
       <use xlink:href="#m004f9e7d5b" x="455.53769" y="98.44" style="stroke: #000000; stroke-width: 0.8"/>
      </g>
     </g>
     <g id="text_8">
      <text style="font-size: 10px; font-family: 'Times New Roman'; text-anchor: middle" x="455.53769" y="112.38375" transform="rotate(-0 455.53769 112.38375)">350</text>
     </g>
    </g>
    <g id="xtick_9">
     <g id="line2d_17">
      <path d="M 516.786646 98.44 
L 516.786646 0 
" clip-path="url(#p47840c5432)" style="fill: none; stroke: #b0b0b0; stroke-width: 0.8; stroke-linecap: square"/>
     </g>
     <g id="line2d_18">
      <g>
       <use xlink:href="#m004f9e7d5b" x="516.786646" y="98.44" style="stroke: #000000; stroke-width: 0.8"/>
      </g>
     </g>
     <g id="text_9">
      <text style="font-size: 10px; font-family: 'Times New Roman'; text-anchor: middle" x="516.786646" y="112.38375" transform="rotate(-0 516.786646 112.38375)">400</text>
     </g>
    </g>
    <g id="text_10">
     <text style="font-size: 12px; font-family: 'Times New Roman'; text-anchor: middle" x="283.3975" y="126.855312" transform="rotate(-0 283.3975 126.855312)">Simulation Run</text>
    </g>
   </g>
   <g id="matplotlib.axis_2">
    <g id="ytick_1">
     <g id="line2d_19">
      <path d="M 26.795 98.44 
L 540 98.44 
" clip-path="url(#p47840c5432)" style="fill: none; stroke: #b0b0b0; stroke-width: 0.8; stroke-linecap: square"/>
     </g>
     <g id="line2d_20">
      <defs>
       <path id="m888c642d69" d="M 0 0 
L -3.5 0 
" style="stroke: #000000; stroke-width: 0.8"/>
      </defs>
      <g>
       <use xlink:href="#m888c642d69" x="26.795" y="98.44" style="stroke: #000000; stroke-width: 0.8"/>
      </g>
     </g>
     <g id="text_11">
      <text style="font-size: 10px; font-family: 'Times New Roman'; text-anchor: end" x="19.795" y="101.911875" transform="rotate(-0 19.795 101.911875)">0</text>
     </g>
    </g>
    <g id="ytick_2">
     <g id="line2d_21">
      <path d="M 26.795 71.834595 
L 540 71.834595 
" clip-path="url(#p47840c5432)" style="fill: none; stroke: #b0b0b0; stroke-width: 0.8; stroke-linecap: square"/>
     </g>
     <g id="line2d_22">
      <g>
       <use xlink:href="#m888c642d69" x="26.795" y="71.834595" style="stroke: #000000; stroke-width: 0.8"/>
      </g>
     </g>
     <g id="text_12">
      <text style="font-size: 10px; font-family: 'Times New Roman'; text-anchor: end" x="19.795" y="75.30647" transform="rotate(-0 19.795 75.30647)">1</text>
     </g>
    </g>
    <g id="ytick_3">
     <g id="line2d_23">
      <path d="M 26.795 45.229189 
L 540 45.229189 
" clip-path="url(#p47840c5432)" style="fill: none; stroke: #b0b0b0; stroke-width: 0.8; stroke-linecap: square"/>
     </g>
     <g id="line2d_24">
      <g>
       <use xlink:href="#m888c642d69" x="26.795" y="45.229189" style="stroke: #000000; stroke-width: 0.8"/>
      </g>
     </g>
     <g id="text_13">
      <text style="font-size: 10px; font-family: 'Times New Roman'; text-anchor: end" x="19.795" y="48.701064" transform="rotate(-0 19.795 48.701064)">2</text>
     </g>
    </g>
    <g id="ytick_4">
     <g id="line2d_25">
      <path d="M 26.795 18.623784 
L 540 18.623784 
" clip-path="url(#p47840c5432)" style="fill: none; stroke: #b0b0b0; stroke-width: 0.8; stroke-linecap: square"/>
     </g>
     <g id="line2d_26">
      <g>
       <use xlink:href="#m888c642d69" x="26.795" y="18.623784" style="stroke: #000000; stroke-width: 0.8"/>
      </g>
     </g>
     <g id="text_14">
      <text style="font-size: 10px; font-family: 'Times New Roman'; text-anchor: end" x="19.795" y="22.095659" transform="rotate(-0 19.795 22.095659)">3</text>
     </g>
    </g>
    <g id="text_15">
     <text style="font-size: 12px; font-family: 'Times New Roman'; text-anchor: middle" x="8.228125" y="49.22" transform="rotate(-90 8.228125 49.22)">Normalized Value</text>
    </g>
   </g>
   <g id="line2d_27">
    <path d="M 26.795 77.407001 
L 28.019979 76.685408 
L 29.244958 71.168818 
L 30.469937 64.850671 
L 31.694916 64.197343 
L 32.919896 64.984736 
L 34.144875 66.737157 
L 35.369854 68.795429 
L 36.594833 70.187913 
L 37.819812 70.627285 
L 39.044791 70.840293 
L 40.26977 70.000512 
L 41.494749 70.747751 
L 42.719728 69.837564 
L 43.944708 70.21956 
L 45.169687 70.467729 
L 46.394666 70.183131 
L 47.619645 69.743969 
L 48.844624 69.964226 
L 51.294582 68.637261 
L 53.744541 68.958167 
L 54.96952 69.351571 
L 57.419478 69.631049 
L 58.644457 69.679049 
L 59.869436 69.38669 
L 61.094415 69.67378 
L 62.319394 69.301201 
L 63.544373 69.764439 
L 64.769353 69.868635 
L 65.994332 70.182982 
L 67.219311 70.208016 
L 68.44429 70.491872 
L 69.669269 70.294931 
L 70.894248 70.598407 
L 73.344206 70.445984 
L 74.569185 70.66771 
L 75.794165 70.557737 
L 77.019144 70.919954 
L 78.244123 70.90095 
L 79.469102 71.095912 
L 80.694081 70.980454 
L 81.91906 71.001476 
L 83.144039 71.151154 
L 84.369018 71.079338 
L 85.593997 71.218641 
L 88.043956 71.040897 
L 89.268935 71.239898 
L 94.168851 71.541422 
L 95.39383 71.474686 
L 96.61881 71.571924 
L 100.293747 71.469837 
L 101.518726 71.507234 
L 102.743705 71.411954 
L 105.193663 71.461027 
L 107.643622 71.371107 
L 110.09358 71.376493 
L 116.218475 71.517821 
L 118.668434 71.28937 
L 121.118392 71.564438 
L 122.343371 71.61514 
L 123.56835 71.805227 
L 127.243287 71.709411 
L 130.918225 71.92047 
L 132.143204 71.697742 
L 133.368183 71.875632 
L 134.593162 71.777077 
L 137.04312 71.776876 
L 148.067932 71.821833 
L 151.74287 71.940929 
L 152.967849 71.831199 
L 155.417807 71.940811 
L 157.867765 71.929113 
L 160.317723 71.869701 
L 162.767682 71.994494 
L 171.342536 72.135449 
L 175.017473 72.192907 
L 179.917389 72.230703 
L 183.592327 72.16094 
L 187.267264 72.217481 
L 189.717222 72.170778 
L 195.842118 72.381855 
L 197.067097 72.414458 
L 199.517055 72.25589 
L 217.891742 72.158376 
L 220.3417 72.186569 
L 237.491408 71.823504 
L 254.641115 71.873128 
L 265.665927 71.867113 
L 268.115886 71.982951 
L 271.790823 71.921116 
L 280.365677 72.010168 
L 284.040614 71.97847 
L 286.490572 71.999357 
L 310.990155 72.130573 
L 319.565008 72.133997 
L 329.364841 72.117967 
L 331.814799 72.094132 
L 335.489737 72.092696 
L 337.939695 72.119833 
L 344.064591 72.007598 
L 350.189486 72.115459 
L 356.314382 72.122932 
L 378.364006 72.041668 
L 382.038943 71.990102 
L 393.063755 72.051257 
L 397.963672 72.022877 
L 423.688233 72.158049 
L 428.58815 72.185595 
L 446.962836 72.094151 
L 450.637774 72.006449 
L 459.212627 72.038339 
L 462.887565 72.039738 
L 466.562502 71.96723 
L 509.436771 71.947823 
L 515.561667 71.834595 
L 515.561667 71.834595 
" clip-path="url(#p47840c5432)" style="fill: none; stroke: #4169e1; stroke-width: 1.5; stroke-linecap: square"/>
   </g>
   <g id="line2d_28">
    <path d="M 26.795 98.44 
L 28.019979 98.182129 
L 29.244958 68.124984 
L 30.469937 16.395189 
L 31.694916 31.958604 
L 32.919896 41.503622 
L 34.144875 40.512133 
L 35.369854 33.066566 
L 36.594833 32.648053 
L 39.044791 43.603299 
L 41.494749 45.175073 
L 42.719728 43.646097 
L 46.394666 51.350508 
L 47.619645 52.342855 
L 48.844624 54.336559 
L 51.294582 50.243907 
L 52.519561 52.318207 
L 53.744541 53.819407 
L 54.96952 53.915716 
L 58.644457 58.385713 
L 61.094415 58.901679 
L 62.319394 58.225967 
L 63.544373 56.334985 
L 64.769353 57.484091 
L 65.994332 57.159196 
L 67.219311 58.363096 
L 68.44429 58.15142 
L 69.669269 58.598257 
L 70.894248 58.033083 
L 72.119227 59.050354 
L 73.344206 59.863464 
L 74.569185 59.878334 
L 75.794165 60.579285 
L 77.019144 58.816707 
L 78.244123 59.730667 
L 79.469102 59.800989 
L 80.694081 60.369153 
L 81.91906 61.186931 
L 83.144039 61.469173 
L 84.369018 62.119352 
L 85.593997 62.399299 
L 86.818977 63.084993 
L 88.043956 63.294967 
L 89.268935 62.970613 
L 92.943872 64.499085 
L 97.843789 66.12404 
L 100.293747 67.046485 
L 101.518726 67.510581 
L 102.743705 67.722772 
L 105.193663 68.601278 
L 106.418642 68.764535 
L 108.868601 69.5865 
L 116.218475 71.661208 
L 117.443454 71.725094 
L 118.668434 71.35885 
L 119.893413 70.560804 
L 121.118392 70.534677 
L 122.343371 70.788608 
L 123.56835 69.720575 
L 124.793329 69.895641 
L 127.243287 70.474803 
L 128.468266 70.56491 
L 129.693246 70.481308 
L 130.918225 70.755611 
L 132.143204 68.960994 
L 133.368183 67.932531 
L 134.593162 67.852006 
L 138.268099 68.630866 
L 141.943037 69.366531 
L 144.392995 69.485788 
L 146.842953 69.847899 
L 149.292911 70.074731 
L 150.517891 70.151006 
L 151.74287 70.42319 
L 152.967849 70.078381 
L 154.192828 69.941706 
L 156.642786 70.398287 
L 160.317723 70.953388 
L 161.542703 70.697353 
L 163.992661 71.078585 
L 165.21764 70.543784 
L 166.442619 70.506848 
L 173.792494 71.825254 
L 175.017473 71.763099 
L 178.69241 72.307889 
L 179.917389 72.514105 
L 181.142368 72.510627 
L 187.267264 73.381916 
L 192.16718 73.738122 
L 193.39216 73.074768 
L 194.617139 73.251655 
L 197.067097 73.409203 
L 198.292076 72.752207 
L 199.517055 72.766418 
L 209.316888 73.991065 
L 210.541867 74.129246 
L 211.766846 73.517091 
L 212.991825 73.466325 
L 214.216805 72.59461 
L 215.441784 72.706112 
L 216.666763 72.51307 
L 221.566679 72.878751 
L 224.016637 73.154306 
L 225.241617 73.090523 
L 226.466596 73.233331 
L 227.691575 72.803143 
L 230.141533 73.069076 
L 231.366512 72.925828 
L 232.591491 73.060048 
L 233.81647 72.986915 
L 235.041449 73.07467 
L 236.266429 72.501986 
L 237.491408 72.342836 
L 239.941366 72.610189 
L 242.391324 72.12433 
L 243.616303 72.180382 
L 244.841282 71.167288 
L 247.291241 71.359229 
L 248.51622 71.32961 
L 259.541032 72.285045 
L 264.440948 71.992552 
L 265.665927 72.108381 
L 266.890906 71.745077 
L 268.115886 71.688571 
L 271.790823 71.111762 
L 280.365677 71.613186 
L 281.590656 71.609189 
L 284.040614 71.85863 
L 285.265593 71.691267 
L 287.715551 71.819708 
L 288.94053 71.54396 
L 290.16551 71.628805 
L 291.390489 71.523829 
L 295.065426 71.747951 
L 298.740363 71.662738 
L 299.965343 71.371367 
L 303.64028 71.620478 
L 306.090238 71.528177 
L 307.315217 71.276158 
L 313.440113 71.772283 
L 314.665092 71.54056 
L 326.914883 72.0668 
L 329.364841 72.200979 
L 330.58982 71.929617 
L 333.039779 71.947122 
L 335.489737 72.057099 
L 336.714716 71.959337 
L 337.939695 72.041994 
L 339.164674 71.958255 
L 341.614632 71.967424 
L 342.839612 72.010459 
L 344.064591 71.537592 
L 346.514549 71.520681 
L 347.739528 71.622475 
L 348.964507 71.501711 
L 352.639444 71.706978 
L 355.089403 71.757427 
L 362.439277 72.037447 
L 364.889236 71.715542 
L 374.689069 72.363159 
L 378.364006 72.491518 
L 379.588985 72.293168 
L 384.488901 72.535653 
L 388.163839 72.407996 
L 389.388818 71.789524 
L 390.613797 71.619335 
L 399.188651 71.755108 
L 400.41363 71.106518 
L 401.638609 71.000392 
L 404.088567 71.078694 
L 407.763505 71.188303 
L 408.988484 71.275369 
L 411.438442 71.242644 
L 417.563338 71.621965 
L 418.788317 71.492607 
L 422.463254 71.637225 
L 423.688233 71.468423 
L 426.138191 71.428308 
L 431.038108 71.668003 
L 432.263087 71.597602 
L 433.488066 71.648232 
L 434.713045 71.58334 
L 435.938024 71.657901 
L 437.163003 71.607367 
L 446.962836 72.029343 
L 448.187815 71.646843 
L 449.412794 71.523244 
L 451.862753 71.66942 
L 455.53769 71.574639 
L 459.212627 71.699097 
L 460.437607 71.57464 
L 462.887565 71.631222 
L 464.112544 71.264571 
L 469.01246 71.484792 
L 471.462419 71.564145 
L 475.137356 71.269319 
L 482.487231 71.583117 
L 484.937189 71.636916 
L 494.737022 71.909672 
L 500.861917 72.178267 
L 502.086896 72.02943 
L 505.761834 72.113209 
L 508.211792 72.107007 
L 509.436771 72.168287 
L 511.886729 71.898211 
L 513.111708 71.964865 
L 514.336688 71.831684 
L 515.561667 71.834595 
L 515.561667 71.834595 
" clip-path="url(#p47840c5432)" style="fill: none; stroke-dasharray: 5.55,2.4; stroke-dashoffset: 0; stroke: #4169e1; stroke-width: 1.5"/>
   </g>
   <g id="line2d_29">
    <path d="M 26.795 78.752998 
L 28.019979 76.30774 
L 30.469937 65.970852 
L 31.694916 66.151935 
L 32.919896 66.881861 
L 35.369854 69.799254 
L 36.594833 71.06477 
L 39.044791 71.417872 
L 40.26977 70.798366 
L 41.494749 71.272343 
L 42.719728 70.477757 
L 43.944708 70.869872 
L 45.169687 71.03146 
L 47.619645 70.540313 
L 48.844624 70.802617 
L 50.069603 70.411078 
L 51.294582 69.776485 
L 52.519561 69.780474 
L 56.194499 70.313753 
L 57.419478 70.437243 
L 59.869436 70.287424 
L 61.094415 70.474731 
L 62.319394 70.110359 
L 63.544373 70.5153 
L 64.769353 70.632239 
L 65.994332 70.898403 
L 67.219311 70.882805 
L 68.44429 71.141102 
L 69.669269 70.980254 
L 70.894248 71.199348 
L 73.344206 70.994934 
L 74.569185 71.180569 
L 75.794165 71.038959 
L 77.019144 71.356678 
L 78.244123 71.325612 
L 79.469102 71.471733 
L 80.694081 71.325123 
L 81.91906 71.301046 
L 85.593997 71.500872 
L 88.043956 71.342972 
L 90.493914 71.51976 
L 97.843789 71.746403 
L 100.293747 71.683379 
L 101.518726 71.739587 
L 102.743705 71.638 
L 105.193663 71.639927 
L 107.643622 71.582451 
L 112.543538 71.599376 
L 114.993496 71.614399 
L 117.443454 71.525559 
L 118.668434 71.439327 
L 121.118392 71.635879 
L 122.343371 71.667745 
L 123.56835 71.827059 
L 126.018308 71.801844 
L 128.468266 71.88104 
L 130.918225 71.983112 
L 132.143204 71.848313 
L 133.368183 71.992436 
L 137.04312 71.933317 
L 149.292911 72.093977 
L 151.74287 72.128326 
L 152.967849 72.048176 
L 156.642786 72.179223 
L 160.317723 72.0492 
L 162.767682 72.132666 
L 179.917389 72.316743 
L 183.592327 72.261502 
L 187.267264 72.331304 
L 192.16718 72.335487 
L 194.617139 72.44169 
L 197.067097 72.505568 
L 200.742034 72.396547 
L 204.416972 72.338416 
L 209.316888 72.329066 
L 221.566679 72.266444 
L 232.591491 72.063203 
L 238.716387 72.004371 
L 241.166345 72.036073 
L 243.616303 72.116785 
L 246.066261 72.015806 
L 248.51622 72.017349 
L 255.866094 71.996372 
L 260.766011 71.960319 
L 264.440948 72.01155 
L 277.915718 72.082123 
L 281.590656 72.112673 
L 285.265593 72.127647 
L 290.16551 72.147248 
L 293.840447 72.203411 
L 297.515384 72.173325 
L 299.965343 72.146312 
L 304.865259 72.185023 
L 308.540196 72.155083 
L 417.563338 72.065322 
L 421.238275 72.055297 
L 445.737857 72.049091 
L 472.687398 71.929212 
L 477.587314 71.944451 
L 497.18698 71.955591 
L 505.761834 71.938564 
L 515.561667 71.834595 
L 515.561667 71.834595 
" clip-path="url(#p47840c5432)" style="fill: none; stroke: #ff8c00; stroke-width: 1.5; stroke-linecap: square"/>
   </g>
   <g id="line2d_30">
    <path d="M 26.795 98.44 
L 28.019979 94.223357 
L 29.244958 60.424007 
L 30.469937 9.581004 
L 31.694916 27.260305 
L 32.919896 37.24494 
L 34.144875 36.795365 
L 35.369854 34.214801 
L 36.594833 32.315622 
L 37.819812 38.776665 
L 39.044791 43.9223 
L 40.26977 45.488291 
L 41.494749 47.660361 
L 42.719728 45.499296 
L 43.944708 47.510677 
L 45.169687 50.417557 
L 46.394666 52.536047 
L 47.619645 54.390287 
L 48.844624 55.835317 
L 50.069603 55.91145 
L 51.294582 52.256756 
L 52.519561 54.355759 
L 53.744541 55.657387 
L 54.96952 56.113035 
L 56.194499 57.766889 
L 59.869436 61.566978 
L 61.094415 62.1457 
L 62.319394 60.640278 
L 63.544373 58.390472 
L 64.769353 59.343069 
L 65.994332 58.929131 
L 67.219311 60.085553 
L 68.44429 59.581714 
L 69.669269 60.022531 
L 70.894248 59.842188 
L 72.119227 60.690388 
L 73.344206 61.244389 
L 74.569185 61.226513 
L 75.794165 61.568482 
L 77.019144 59.527673 
L 78.244123 60.404024 
L 80.694081 60.794486 
L 81.91906 61.59447 
L 83.144039 62.116442 
L 84.369018 62.870375 
L 85.593997 63.115608 
L 86.818977 63.716061 
L 88.043956 64.026428 
L 89.268935 64.138508 
L 91.718893 65.191683 
L 92.943872 65.587803 
L 94.168851 65.559055 
L 95.39383 65.960674 
L 96.61881 66.112081 
L 99.068768 66.884863 
L 100.293747 67.401464 
L 101.518726 67.766182 
L 102.743705 67.801851 
L 105.193663 68.674059 
L 106.418642 68.886667 
L 110.09358 70.14183 
L 116.218475 71.790915 
L 118.668434 71.735455 
L 119.893413 71.189349 
L 121.118392 71.29147 
L 122.343371 71.579269 
L 123.56835 70.501019 
L 126.018308 71.000587 
L 127.243287 71.324559 
L 129.693246 71.323961 
L 130.918225 71.606623 
L 132.143204 70.81304 
L 133.368183 69.852599 
L 135.818141 70.291577 
L 138.268099 70.799909 
L 141.943037 71.640704 
L 143.168016 71.491538 
L 144.392995 71.460426 
L 149.292911 71.987165 
L 151.74287 72.417679 
L 152.967849 72.20128 
L 154.192828 72.117593 
L 159.092744 72.667484 
L 160.317723 72.74062 
L 161.542703 72.470344 
L 163.992661 72.895286 
L 165.21764 72.338327 
L 166.442619 72.358086 
L 167.667598 72.572195 
L 168.892577 72.671275 
L 173.792494 73.509308 
L 176.242452 73.612044 
L 179.917389 74.185212 
L 181.142368 74.145408 
L 183.592327 74.486989 
L 186.042285 74.592955 
L 189.717222 75.071833 
L 190.942201 75.01952 
L 192.16718 75.169258 
L 193.39216 74.595607 
L 194.617139 74.736544 
L 195.842118 74.732281 
L 197.067097 74.85632 
L 198.292076 74.68748 
L 200.742034 74.872479 
L 203.191992 75.11071 
L 205.641951 75.177346 
L 208.091909 75.387166 
L 210.541867 75.641508 
L 211.766846 74.807344 
L 212.991825 74.804601 
L 214.216805 74.020884 
L 215.441784 74.160712 
L 216.666763 73.809809 
L 224.016637 74.503034 
L 225.241617 74.333024 
L 226.466596 74.451782 
L 227.691575 74.360722 
L 230.141533 74.58238 
L 231.366512 74.363225 
L 232.591491 74.487208 
L 235.041449 74.521336 
L 236.266429 74.121867 
L 237.491408 73.987635 
L 239.941366 74.161931 
L 242.391324 73.883166 
L 243.616303 73.878678 
L 244.841282 72.968655 
L 246.066261 73.09843 
L 248.51622 72.975 
L 259.541032 73.912286 
L 260.766011 73.924073 
L 261.99099 73.760597 
L 265.665927 73.97263 
L 266.890906 73.570755 
L 268.115886 73.475645 
L 269.340865 73.048605 
L 271.790823 72.801973 
L 276.690739 73.149491 
L 277.915718 73.239826 
L 281.590656 73.136069 
L 282.815635 73.110482 
L 284.040614 73.213965 
L 285.265593 73.14138 
L 287.715551 73.31961 
L 288.94053 73.000653 
L 292.615468 72.995258 
L 293.840447 73.104754 
L 297.515384 73.117474 
L 298.740363 73.114789 
L 299.965343 72.764814 
L 304.865259 73.029258 
L 306.090238 73.026283 
L 307.315217 72.605592 
L 310.990155 72.871967 
L 313.440113 72.996335 
L 314.665092 72.839071 
L 318.340029 72.989477 
L 319.565008 72.949413 
L 322.014967 73.041726 
L 328.139862 73.33455 
L 329.364841 73.287927 
L 330.58982 72.95477 
L 333.039779 72.913981 
L 335.489737 73.044649 
L 336.714716 72.93091 
L 337.939695 72.952769 
L 339.164674 72.806076 
L 342.839612 72.754052 
L 344.064591 72.380441 
L 345.28957 72.275838 
L 352.639444 72.479661 
L 356.314382 72.603726 
L 358.76434 72.767149 
L 359.989319 72.640087 
L 362.439277 72.705756 
L 364.889236 72.287244 
L 372.23911 72.74464 
L 374.689069 72.881053 
L 375.914048 72.797541 
L 378.364006 72.886503 
L 379.588985 72.686606 
L 384.488901 72.883159 
L 388.163839 72.799907 
L 389.388818 72.299932 
L 390.613797 72.056922 
L 399.188651 72.325476 
L 400.41363 71.639836 
L 401.638609 71.570007 
L 404.088567 71.661055 
L 406.538525 71.728241 
L 417.563338 72.234277 
L 420.013296 72.047645 
L 423.688233 71.961742 
L 426.138191 71.889223 
L 431.038108 72.179044 
L 432.263087 72.073631 
L 433.488066 72.130987 
L 434.713045 71.918055 
L 435.938024 71.994264 
L 438.387982 72.010277 
L 446.962836 72.362705 
L 448.187815 72.099279 
L 449.412794 72.007148 
L 451.862753 72.148628 
L 455.53769 72.055628 
L 459.212627 72.138452 
L 460.437607 71.887313 
L 462.887565 72.009409 
L 464.112544 71.343046 
L 465.337523 71.283389 
L 470.237439 71.490309 
L 471.462419 71.512479 
L 473.912377 71.226431 
L 477.587314 71.345623 
L 482.487231 71.609335 
L 483.71221 71.52806 
L 486.162168 71.620398 
L 493.512043 71.726469 
L 500.861917 72.022983 
L 502.086896 71.863807 
L 505.761834 71.906689 
L 506.986813 71.781673 
L 513.111708 72.004478 
L 515.561667 71.834595 
L 515.561667 71.834595 
" clip-path="url(#p47840c5432)" style="fill: none; stroke-dasharray: 5.55,2.4; stroke-dashoffset: 0; stroke: #ff8c00; stroke-width: 1.5"/>
   </g>
   <g id="patch_3">
    <path d="M 26.795 98.44 
L 26.795 0 
" style="fill: none; stroke: #000000; stroke-width: 0.8; stroke-linejoin: miter; stroke-linecap: square"/>
   </g>
   <g id="patch_4">
    <path d="M 540 98.44 
L 540 0 
" style="fill: none; stroke: #000000; stroke-width: 0.8; stroke-linejoin: miter; stroke-linecap: square"/>
   </g>
   <g id="patch_5">
    <path d="M 26.795 98.44 
L 540 98.44 
" style="fill: none; stroke: #000000; stroke-width: 0.8; stroke-linejoin: miter; stroke-linecap: square"/>
   </g>
   <g id="patch_6">
    <path d="M 26.795 0 
L 540 0 
" style="fill: none; stroke: #000000; stroke-width: 0.8; stroke-linejoin: miter; stroke-linecap: square"/>
   </g>
  </g>
 </g>
 <defs>
  <clipPath id="p47840c5432">
   <rect x="26.795" y="0" width="513.205" height="98.44"/>
  </clipPath>
 </defs>
</svg>
