<?xml version="1.0" encoding="utf-8" standalone="no"?>
<!DOCTYPE svg PUBLIC "-//W3C//DTD SVG 1.1//EN"
  "http://www.w3.org/Graphics/SVG/1.1/DTD/svg11.dtd">
<svg xmlns:xlink="http://www.w3.org/1999/xlink" width="540pt" height="129.6pt" viewBox="0 0 540 129.6" xmlns="http://www.w3.org/2000/svg" version="1.1">
 <metadata>
  <rdf:RDF xmlns:dc="http://purl.org/dc/elements/1.1/" xmlns:cc="http://creativecommons.org/ns#" xmlns:rdf="http://www.w3.org/1999/02/22-rdf-syntax-ns#">
   <cc:Work>
    <dc:type rdf:resource="http://purl.org/dc/dcmitype/StillImage"/>
    <dc:date>2025-04-06T20:10:28.481357</dc:date>
    <dc:format>image/svg+xml</dc:format>
    <dc:creator>
     <cc:Agent>
      <dc:title>Matplotlib v3.10.1, https://matplotlib.org/</dc:title>
     </cc:Agent>
    </dc:creator>
   </cc:Work>
  </rdf:RDF>
 </metadata>
 <defs>
  <style type="text/css">*{stroke-linejoin: round; stroke-linecap: butt}</style>
 </defs>
 <g id="figure_1">
  <g id="patch_1">
   <path d="M 0 129.6 
L 540 129.6 
L 540 0 
L 0 0 
z
" style="fill: #ffffff"/>
  </g>
  <g id="axes_1">
   <g id="patch_2">
    <path d="M 34.31 98.44 
L 540 98.44 
L 540 0 
L 34.31 0 
z
" style="fill: #ffffff"/>
   </g>
   <g id="matplotlib.axis_1">
    <g id="xtick_1">
     <g id="line2d_1">
      <path d="M 34.31 98.44 
L 34.31 0 
" clip-path="url(#p5fc2627d7b)" style="fill: none; stroke: #b0b0b0; stroke-width: 0.8; stroke-linecap: square"/>
     </g>
     <g id="line2d_2">
      <defs>
       <path id="m14dd65c549" d="M 0 0 
L 0 3.5 
" style="stroke: #000000; stroke-width: 0.8"/>
      </defs>
      <g>
       <use xlink:href="#m14dd65c549" x="34.31" y="98.44" style="stroke: #000000; stroke-width: 0.8"/>
      </g>
     </g>
     <g id="text_1">
      <text style="font-size: 10px; font-family: 'Times New Roman'; text-anchor: middle" x="34.31" y="112.38375" transform="rotate(-0 34.31 112.38375)">0</text>
     </g>
    </g>
    <g id="xtick_2">
     <g id="line2d_3">
      <path d="M 94.662071 98.44 
L 94.662071 0 
" clip-path="url(#p5fc2627d7b)" style="fill: none; stroke: #b0b0b0; stroke-width: 0.8; stroke-linecap: square"/>
     </g>
     <g id="line2d_4">
      <g>
       <use xlink:href="#m14dd65c549" x="94.662071" y="98.44" style="stroke: #000000; stroke-width: 0.8"/>
      </g>
     </g>
     <g id="text_2">
      <text style="font-size: 10px; font-family: 'Times New Roman'; text-anchor: middle" x="94.662071" y="112.38375" transform="rotate(-0 94.662071 112.38375)">50</text>
     </g>
    </g>
    <g id="xtick_3">
     <g id="line2d_5">
      <path d="M 155.014141 98.44 
L 155.014141 0 
" clip-path="url(#p5fc2627d7b)" style="fill: none; stroke: #b0b0b0; stroke-width: 0.8; stroke-linecap: square"/>
     </g>
     <g id="line2d_6">
      <g>
       <use xlink:href="#m14dd65c549" x="155.014141" y="98.44" style="stroke: #000000; stroke-width: 0.8"/>
      </g>
     </g>
     <g id="text_3">
      <text style="font-size: 10px; font-family: 'Times New Roman'; text-anchor: middle" x="155.014141" y="112.38375" transform="rotate(-0 155.014141 112.38375)">100</text>
     </g>
    </g>
    <g id="xtick_4">
     <g id="line2d_7">
      <path d="M 215.366212 98.44 
L 215.366212 0 
" clip-path="url(#p5fc2627d7b)" style="fill: none; stroke: #b0b0b0; stroke-width: 0.8; stroke-linecap: square"/>
     </g>
     <g id="line2d_8">
      <g>
       <use xlink:href="#m14dd65c549" x="215.366212" y="98.44" style="stroke: #000000; stroke-width: 0.8"/>
      </g>
     </g>
     <g id="text_4">
      <text style="font-size: 10px; font-family: 'Times New Roman'; text-anchor: middle" x="215.366212" y="112.38375" transform="rotate(-0 215.366212 112.38375)">150</text>
     </g>
    </g>
    <g id="xtick_5">
     <g id="line2d_9">
      <path d="M 275.718283 98.44 
L 275.718283 0 
" clip-path="url(#p5fc2627d7b)" style="fill: none; stroke: #b0b0b0; stroke-width: 0.8; stroke-linecap: square"/>
     </g>
     <g id="line2d_10">
      <g>
       <use xlink:href="#m14dd65c549" x="275.718283" y="98.44" style="stroke: #000000; stroke-width: 0.8"/>
      </g>
     </g>
     <g id="text_5">
      <text style="font-size: 10px; font-family: 'Times New Roman'; text-anchor: middle" x="275.718283" y="112.38375" transform="rotate(-0 275.718283 112.38375)">200</text>
     </g>
    </g>
    <g id="xtick_6">
     <g id="line2d_11">
      <path d="M 336.070353 98.44 
L 336.070353 0 
" clip-path="url(#p5fc2627d7b)" style="fill: none; stroke: #b0b0b0; stroke-width: 0.8; stroke-linecap: square"/>
     </g>
     <g id="line2d_12">
      <g>
       <use xlink:href="#m14dd65c549" x="336.070353" y="98.44" style="stroke: #000000; stroke-width: 0.8"/>
      </g>
     </g>
     <g id="text_6">
      <text style="font-size: 10px; font-family: 'Times New Roman'; text-anchor: middle" x="336.070353" y="112.38375" transform="rotate(-0 336.070353 112.38375)">250</text>
     </g>
    </g>
    <g id="xtick_7">
     <g id="line2d_13">
      <path d="M 396.422424 98.44 
L 396.422424 0 
" clip-path="url(#p5fc2627d7b)" style="fill: none; stroke: #b0b0b0; stroke-width: 0.8; stroke-linecap: square"/>
     </g>
     <g id="line2d_14">
      <g>
       <use xlink:href="#m14dd65c549" x="396.422424" y="98.44" style="stroke: #000000; stroke-width: 0.8"/>
      </g>
     </g>
     <g id="text_7">
      <text style="font-size: 10px; font-family: 'Times New Roman'; text-anchor: middle" x="396.422424" y="112.38375" transform="rotate(-0 396.422424 112.38375)">300</text>
     </g>
    </g>
    <g id="xtick_8">
     <g id="line2d_15">
      <path d="M 456.774495 98.44 
L 456.774495 0 
" clip-path="url(#p5fc2627d7b)" style="fill: none; stroke: #b0b0b0; stroke-width: 0.8; stroke-linecap: square"/>
     </g>
     <g id="line2d_16">
      <g>
       <use xlink:href="#m14dd65c549" x="456.774495" y="98.44" style="stroke: #000000; stroke-width: 0.8"/>
      </g>
     </g>
     <g id="text_8">
      <text style="font-size: 10px; font-family: 'Times New Roman'; text-anchor: middle" x="456.774495" y="112.38375" transform="rotate(-0 456.774495 112.38375)">350</text>
     </g>
    </g>
    <g id="xtick_9">
     <g id="line2d_17">
      <path d="M 517.126565 98.44 
L 517.126565 0 
" clip-path="url(#p5fc2627d7b)" style="fill: none; stroke: #b0b0b0; stroke-width: 0.8; stroke-linecap: square"/>
     </g>
     <g id="line2d_18">
      <g>
       <use xlink:href="#m14dd65c549" x="517.126565" y="98.44" style="stroke: #000000; stroke-width: 0.8"/>
      </g>
     </g>
     <g id="text_9">
      <text style="font-size: 10px; font-family: 'Times New Roman'; text-anchor: middle" x="517.126565" y="112.38375" transform="rotate(-0 517.126565 112.38375)">400</text>
     </g>
    </g>
    <g id="text_10">
     <text style="font-size: 12px; font-family: 'Times New Roman'; text-anchor: middle" x="287.155" y="126.855312" transform="rotate(-0 287.155 126.855312)">Simulation Run</text>
    </g>
   </g>
   <g id="matplotlib.axis_2">
    <g id="ytick_1">
     <g id="line2d_19">
      <path d="M 34.31 98.44 
L 540 98.44 
" clip-path="url(#p5fc2627d7b)" style="fill: none; stroke: #b0b0b0; stroke-width: 0.8; stroke-linecap: square"/>
     </g>
     <g id="line2d_20">
      <defs>
       <path id="m8d432d649e" d="M 0 0 
L -3.5 0 
" style="stroke: #000000; stroke-width: 0.8"/>
      </defs>
      <g>
       <use xlink:href="#m8d432d649e" x="34.31" y="98.44" style="stroke: #000000; stroke-width: 0.8"/>
      </g>
     </g>
     <g id="text_11">
      <text style="font-size: 10px; font-family: 'Times New Roman'; text-anchor: end" x="27.31" y="101.911875" transform="rotate(-0 27.31 101.911875)">0.0</text>
     </g>
    </g>
    <g id="ytick_2">
     <g id="line2d_21">
      <path d="M 34.31 63.282857 
L 540 63.282857 
" clip-path="url(#p5fc2627d7b)" style="fill: none; stroke: #b0b0b0; stroke-width: 0.8; stroke-linecap: square"/>
     </g>
     <g id="line2d_22">
      <g>
       <use xlink:href="#m8d432d649e" x="34.31" y="63.282857" style="stroke: #000000; stroke-width: 0.8"/>
      </g>
     </g>
     <g id="text_12">
      <text style="font-size: 10px; font-family: 'Times New Roman'; text-anchor: end" x="27.31" y="66.754732" transform="rotate(-0 27.31 66.754732)">0.5</text>
     </g>
    </g>
    <g id="ytick_3">
     <g id="line2d_23">
      <path d="M 34.31 28.125714 
L 540 28.125714 
" clip-path="url(#p5fc2627d7b)" style="fill: none; stroke: #b0b0b0; stroke-width: 0.8; stroke-linecap: square"/>
     </g>
     <g id="line2d_24">
      <g>
       <use xlink:href="#m8d432d649e" x="34.31" y="28.125714" style="stroke: #000000; stroke-width: 0.8"/>
      </g>
     </g>
     <g id="text_13">
      <text style="font-size: 10px; font-family: 'Times New Roman'; text-anchor: end" x="27.31" y="31.597589" transform="rotate(-0 27.31 31.597589)">1.0</text>
     </g>
    </g>
    <g id="text_14">
     <text style="font-size: 12px; font-family: 'Times New Roman'; text-anchor: middle" x="8.243125" y="49.22" transform="rotate(-90 8.243125 49.22)">Normalized Value</text>
    </g>
   </g>
   <g id="line2d_25">
    <path d="M 34.31 38.26771 
L 35.517041 32.759894 
L 36.724083 35.311796 
L 37.931124 25.314171 
L 39.138166 21.594046 
L 40.345207 27.041604 
L 41.552248 26.695784 
L 42.75929 30.200963 
L 43.966331 31.660493 
L 45.173373 29.137434 
L 46.380414 29.419725 
L 47.587456 25.613208 
L 48.794497 25.918952 
L 50.001538 26.37112 
L 51.20858 25.852294 
L 52.415621 26.763531 
L 53.622663 28.12621 
L 54.829704 28.385021 
L 56.036745 27.586902 
L 58.450828 27.912818 
L 59.65787 26.73045 
L 60.864911 27.124986 
L 62.071953 27.255085 
L 63.278994 26.63722 
L 64.486035 27.432298 
L 65.693077 27.027285 
L 66.900118 27.515821 
L 68.10716 27.346975 
L 69.314201 28.259892 
L 70.521242 28.215423 
L 71.728284 28.632109 
L 72.935325 28.698638 
L 74.142367 28.511769 
L 77.763491 29.215995 
L 78.970532 28.849816 
L 80.177574 29.513555 
L 82.591657 29.068131 
L 83.798698 29.36294 
L 85.005739 29.30459 
L 86.212781 29.599928 
L 87.419822 29.395146 
L 88.626864 28.70367 
L 91.040946 29.53895 
L 92.247988 29.663366 
L 93.455029 30.048241 
L 94.662071 30.286738 
L 97.076153 29.480486 
L 98.283195 29.982937 
L 99.490236 29.472615 
L 100.697278 29.676727 
L 101.904319 29.516593 
L 103.111361 29.884908 
L 104.318402 28.762771 
L 105.525443 28.208611 
L 106.732485 28.112429 
L 107.939526 28.752993 
L 109.146568 28.89364 
L 110.353609 28.885681 
L 111.56065 28.766443 
L 113.974733 29.089065 
L 115.181775 28.605092 
L 117.595858 28.490893 
L 118.802899 28.117902 
L 120.00994 28.092898 
L 121.216982 27.422038 
L 122.424023 27.469353 
L 123.631065 27.650804 
L 124.838106 27.981245 
L 126.045147 27.680529 
L 127.252189 27.603556 
L 132.080354 27.919079 
L 133.287396 27.812223 
L 134.494437 28.220029 
L 135.701479 27.813254 
L 136.90852 27.856073 
L 138.115562 27.749358 
L 139.322603 28.184287 
L 140.529644 28.39176 
L 141.736686 28.127967 
L 142.943727 28.053034 
L 144.150769 27.846732 
L 145.35781 28.020433 
L 146.564851 27.793914 
L 147.771893 27.829626 
L 148.978934 28.042158 
L 150.185976 27.720284 
L 151.393017 28.028484 
L 152.600058 28.184068 
L 153.8071 27.887386 
L 155.014141 28.133669 
L 156.221183 28.227426 
L 159.842307 28.037939 
L 161.049348 28.357388 
L 162.25639 28.211426 
L 163.463431 28.201555 
L 165.877514 28.530996 
L 173.119763 28.756875 
L 176.740887 28.877636 
L 177.947928 29.03343 
L 179.15497 28.9681 
L 180.362011 29.082882 
L 182.776094 29.061474 
L 183.983135 29.324879 
L 185.190177 28.965323 
L 186.397218 28.733781 
L 187.604259 28.833222 
L 188.811301 28.580051 
L 193.639467 28.082394 
L 196.053549 28.222748 
L 200.881715 27.995172 
L 204.502839 28.196124 
L 209.331005 27.636027 
L 210.538046 27.350798 
L 215.366212 27.805233 
L 217.780295 27.570806 
L 220.194378 27.636446 
L 221.401419 27.407517 
L 226.229585 27.569097 
L 227.436626 27.40277 
L 228.643668 27.661519 
L 229.850709 27.78309 
L 234.678875 27.633881 
L 235.885916 27.751414 
L 244.335206 27.645543 
L 246.749289 27.59908 
L 253.991537 27.755652 
L 255.198579 27.887018 
L 256.40562 27.779654 
L 260.026744 28.096156 
L 261.233786 27.978002 
L 267.268993 28.523141 
L 269.683076 28.432834 
L 272.097158 28.668894 
L 274.511241 28.550676 
L 275.718283 28.454166 
L 276.925324 28.513379 
L 280.546448 28.255109 
L 285.374614 28.171377 
L 286.581655 27.983554 
L 287.788697 27.929211 
L 290.20278 28.14739 
L 291.409821 27.962711 
L 292.616862 28.00839 
L 295.030945 27.917626 
L 301.066152 27.861168 
L 303.480235 27.974284 
L 304.687277 27.85845 
L 305.894318 27.621604 
L 307.101359 27.627353 
L 309.515442 27.479729 
L 313.136566 27.652075 
L 316.757691 27.71227 
L 321.585856 27.57953 
L 323.999939 27.589144 
L 326.414022 27.423623 
L 328.828105 27.528993 
L 330.035146 27.58863 
L 331.242188 27.507134 
L 338.484436 27.76623 
L 345.726685 27.792291 
L 346.933726 27.62211 
L 354.175974 27.720131 
L 356.590057 27.902431 
L 359.00414 27.911452 
L 365.039347 28.21233 
L 367.45343 28.251578 
L 374.695678 28.212172 
L 375.90272 28.084759 
L 385.559051 28.274212 
L 386.766093 28.196115 
L 389.180175 28.273549 
L 390.387217 28.187653 
L 394.008341 28.383944 
L 396.422424 28.397586 
L 401.25059 28.63495 
L 413.321004 28.79706 
L 421.770294 29.010411 
L 426.598459 28.952092 
L 427.805501 29.059198 
L 430.219583 28.648927 
L 432.633666 28.656648 
L 435.047749 28.674169 
L 437.461832 28.46359 
L 443.497039 28.697903 
L 445.911122 28.669243 
L 448.325205 28.690518 
L 470.05195 28.402505 
L 479.708281 28.482567 
L 482.122364 28.376504 
L 486.95053 28.298171 
L 491.778696 28.217162 
L 500.227985 28.2789 
L 506.263193 28.55873 
L 509.884317 28.436998 
L 512.2984 28.358173 
L 513.505441 28.190516 
L 514.712482 28.233898 
L 515.919524 28.125714 
L 515.919524 28.125714 
" clip-path="url(#p5fc2627d7b)" style="fill: none; stroke: #4169e1; stroke-width: 1.5; stroke-linecap: square"/>
   </g>
   <g id="line2d_26">
    <path d="M 34.31 98.44 
L 35.517041 92.706093 
L 36.724083 92.155612 
L 37.931124 37.049732 
L 39.138166 38.86453 
L 40.345207 20.748128 
L 41.552248 31.711341 
L 42.75929 23.796552 
L 43.966331 28.869144 
L 45.173373 24.997215 
L 46.380414 31.52321 
L 47.587456 6.973716 
L 48.794497 13.797558 
L 50.001538 19.341064 
L 51.20858 23.902025 
L 52.415621 26.206439 
L 53.622663 24.839832 
L 54.829704 28.713499 
L 56.036745 30.216114 
L 57.243787 33.583346 
L 58.450828 36.496569 
L 59.65787 33.763151 
L 60.864911 35.927911 
L 62.071953 38.459001 
L 63.278994 39.12647 
L 64.486035 38.42065 
L 65.693077 39.837462 
L 66.900118 40.712404 
L 68.10716 42.552132 
L 69.314201 39.84679 
L 70.521242 41.72568 
L 71.728284 42.480651 
L 72.935325 44.149618 
L 74.142367 45.528582 
L 76.556449 47.876183 
L 77.763491 48.727829 
L 78.970532 49.098307 
L 80.177574 47.199232 
L 82.591657 48.962276 
L 83.798698 49.466786 
L 85.005739 50.578669 
L 86.212781 50.957504 
L 87.419822 51.663907 
L 88.626864 48.613931 
L 89.833905 47.97919 
L 91.040946 47.65303 
L 92.247988 48.549061 
L 93.455029 48.174965 
L 94.662071 48.622993 
L 95.869112 47.874648 
L 97.076153 47.367914 
L 99.490236 44.083908 
L 100.697278 44.621452 
L 101.904319 45.294214 
L 103.111361 44.748999 
L 104.318402 31.854823 
L 105.525443 29.539935 
L 106.732485 30.564532 
L 107.939526 26.928371 
L 109.146568 27.831661 
L 110.353609 28.934162 
L 112.767692 30.651576 
L 113.974733 31.217839 
L 115.181775 29.240139 
L 117.595858 31.095817 
L 118.802899 30.20362 
L 120.00994 31.142957 
L 121.216982 25.940091 
L 122.424023 26.888931 
L 123.631065 27.38243 
L 124.838106 26.769508 
L 126.045147 26.40127 
L 128.45923 28.028169 
L 133.287396 30.96002 
L 135.701479 27.342351 
L 136.90852 28.139612 
L 138.115562 28.762547 
L 139.322603 26.443704 
L 140.529644 26.536676 
L 141.736686 26.165003 
L 142.943727 26.863715 
L 144.150769 26.909672 
L 145.35781 27.154149 
L 146.564851 27.010558 
L 147.771893 27.739787 
L 148.978934 27.665164 
L 151.393017 25.507294 
L 152.600058 25.795608 
L 153.8071 24.874992 
L 155.014141 24.456896 
L 159.842307 26.779933 
L 161.049348 25.430689 
L 162.25639 25.686164 
L 163.463431 26.35784 
L 164.670473 26.12763 
L 165.877514 26.486059 
L 167.084555 27.079635 
L 168.291597 27.396721 
L 169.498638 27.852717 
L 170.70568 28.454685 
L 171.912721 28.357851 
L 176.740887 30.346696 
L 177.947928 30.368209 
L 179.15497 30.833981 
L 180.362011 31.086812 
L 182.776094 32.166319 
L 183.983135 31.070357 
L 185.190177 28.550578 
L 186.397218 27.824084 
L 187.604259 28.138398 
L 188.811301 27.132667 
L 191.225384 27.40917 
L 192.432425 27.045521 
L 194.846508 27.924645 
L 197.260591 28.771467 
L 198.467632 29.273187 
L 199.674674 29.345995 
L 200.881715 29.818667 
L 202.088756 30.055436 
L 203.295798 29.848806 
L 204.502839 30.239314 
L 205.709881 30.334429 
L 206.916922 29.782279 
L 208.123963 30.246944 
L 209.331005 29.288546 
L 210.538046 27.513885 
L 211.745088 27.574149 
L 212.952129 27.862549 
L 214.159171 27.5782 
L 215.366212 27.837234 
L 216.573253 27.81442 
L 217.780295 27.96672 
L 220.194378 28.808574 
L 221.401419 27.719516 
L 226.229585 29.216565 
L 227.436626 28.809888 
L 228.643668 27.20231 
L 229.850709 27.186803 
L 234.678875 28.676531 
L 235.885916 28.655746 
L 238.299999 29.371777 
L 240.714082 29.812148 
L 241.921123 29.779812 
L 249.163372 31.698908 
L 252.784496 32.258998 
L 253.991537 32.608977 
L 255.198579 32.369838 
L 256.40562 32.326081 
L 257.612661 32.055779 
L 260.026744 32.17269 
L 262.440827 31.977578 
L 263.647868 31.961688 
L 264.85491 31.582694 
L 266.061951 31.462274 
L 267.268993 31.552452 
L 269.683076 32.081869 
L 270.890117 31.534717 
L 272.097158 31.624764 
L 273.3042 31.930357 
L 275.718283 31.938039 
L 276.925324 32.134051 
L 278.132365 32.072651 
L 279.339407 31.306383 
L 281.75349 31.953081 
L 282.960531 31.964247 
L 284.167573 32.153365 
L 285.374614 31.971874 
L 286.581655 30.894798 
L 287.788697 31.097701 
L 288.995738 30.490567 
L 290.20278 30.635549 
L 291.409821 29.579284 
L 292.616862 29.815168 
L 293.823904 29.75862 
L 297.445028 30.689892 
L 298.652069 30.757793 
L 299.859111 31.014661 
L 301.066152 31.057606 
L 302.273194 30.859596 
L 303.480235 31.160641 
L 304.687277 30.89158 
L 305.894318 28.804815 
L 307.101359 29.110167 
L 308.308401 28.715441 
L 309.515442 29.002672 
L 310.722484 28.970684 
L 314.343608 29.637628 
L 315.550649 29.75881 
L 316.757691 29.749924 
L 317.964732 29.917797 
L 320.378815 30.472017 
L 322.792898 30.842907 
L 323.999939 31.101667 
L 325.206981 31.000232 
L 326.414022 31.025772 
L 327.621063 31.301382 
L 328.828105 31.100026 
L 330.035146 31.209064 
L 331.242188 31.172433 
L 333.65627 31.459742 
L 337.277395 32.05041 
L 339.691478 32.475988 
L 342.10556 32.917518 
L 343.312602 32.605832 
L 344.519643 32.542037 
L 345.726685 32.791844 
L 346.933726 31.62655 
L 348.140767 31.879187 
L 349.347809 31.695867 
L 352.968933 32.379555 
L 354.175974 32.626984 
L 355.383016 32.281078 
L 356.590057 32.253428 
L 360.211182 32.642434 
L 361.418223 32.193038 
L 362.625264 32.422376 
L 363.832306 32.145819 
L 366.246389 32.250276 
L 372.281596 33.306754 
L 373.488637 33.170824 
L 374.695678 33.274452 
L 375.90272 32.635546 
L 381.937927 33.469908 
L 383.144968 32.530335 
L 386.766093 32.144553 
L 389.180175 32.427356 
L 390.387217 32.23897 
L 391.594258 31.892809 
L 395.215383 32.301067 
L 396.422424 32.498179 
L 398.836507 32.035456 
L 400.043548 31.760446 
L 406.078755 32.473589 
L 408.492838 32.766397 
L 412.113962 33.31186 
L 416.942128 33.811688 
L 418.149169 33.489717 
L 421.770294 33.82674 
L 424.184376 34.181443 
L 426.598459 34.346988 
L 427.805501 33.836128 
L 429.012542 31.072908 
L 430.219583 29.005919 
L 432.633666 29.104616 
L 435.047749 29.510805 
L 436.254791 28.91226 
L 437.461832 28.519752 
L 438.668873 28.522838 
L 439.875915 28.057278 
L 450.739288 29.316498 
L 451.946329 29.159207 
L 459.188577 30.006627 
L 460.395619 29.448575 
L 464.016743 29.963106 
L 465.223784 30.064459 
L 466.430826 29.943854 
L 467.637867 30.111526 
L 468.844909 30.12218 
L 472.466033 30.579775 
L 473.673074 30.474783 
L 474.880116 30.623017 
L 476.087157 30.556753 
L 477.294199 30.603946 
L 478.50124 30.480668 
L 479.708281 30.61337 
L 480.915323 30.166033 
L 483.329406 30.523437 
L 484.536447 30.32148 
L 486.95053 30.602514 
L 488.157571 30.644986 
L 492.985737 31.260479 
L 500.227985 31.475236 
L 502.642068 31.056017 
L 503.84911 31.202388 
L 505.056151 30.867548 
L 506.263193 30.956982 
L 508.677275 30.516901 
L 511.091358 30.758269 
L 512.2984 30.740537 
L 513.505441 28.801394 
L 514.712482 28.834349 
L 515.919524 28.125714 
L 515.919524 28.125714 
" clip-path="url(#p5fc2627d7b)" style="fill: none; stroke-dasharray: 5.55,2.4; stroke-dashoffset: 0; stroke: #4169e1; stroke-width: 1.5"/>
   </g>
   <g id="line2d_27">
    <path d="M 34.31 24.595374 
L 35.517041 25.873515 
L 36.724083 29.705755 
L 37.931124 22.640779 
L 39.138166 22.515487 
L 40.345207 26.545049 
L 41.552248 25.582026 
L 42.75929 28.366721 
L 43.966331 29.322375 
L 45.173373 27.75282 
L 46.380414 27.961427 
L 47.587456 25.372411 
L 48.794497 25.245719 
L 50.001538 25.313865 
L 51.20858 25.500158 
L 52.415621 25.910124 
L 53.622663 26.974167 
L 54.829704 27.323602 
L 56.036745 26.943898 
L 57.243787 27.253574 
L 58.450828 27.348565 
L 59.65787 25.830747 
L 60.864911 26.471582 
L 62.071953 26.455469 
L 63.278994 25.950009 
L 64.486035 26.482074 
L 65.693077 26.195539 
L 66.900118 26.588616 
L 68.10716 26.594098 
L 69.314201 27.134564 
L 70.521242 27.222953 
L 71.728284 27.635472 
L 76.556449 28.155187 
L 77.763491 28.368382 
L 78.970532 28.166896 
L 80.177574 28.62398 
L 82.591657 28.459024 
L 83.798698 28.672852 
L 85.005739 28.438818 
L 86.212781 28.753696 
L 87.419822 28.443949 
L 88.626864 27.964267 
L 92.247988 28.404255 
L 93.455029 28.709481 
L 94.662071 28.878849 
L 95.869112 28.787826 
L 97.076153 28.440865 
L 98.283195 28.886263 
L 99.490236 28.624819 
L 100.697278 28.746688 
L 101.904319 28.642979 
L 103.111361 29.086919 
L 104.318402 28.332413 
L 106.732485 27.706957 
L 107.939526 28.16377 
L 109.146568 28.325106 
L 111.56065 28.234893 
L 113.974733 28.563313 
L 115.181775 28.284415 
L 117.595858 28.358102 
L 118.802899 28.207313 
L 120.00994 28.173746 
L 121.216982 27.679895 
L 122.424023 27.678036 
L 123.631065 27.799033 
L 124.838106 28.045181 
L 126.045147 27.798432 
L 128.45923 27.748501 
L 130.873313 27.81918 
L 133.287396 27.874373 
L 134.494437 28.199068 
L 135.701479 27.939854 
L 138.115562 27.795813 
L 139.322603 28.115034 
L 140.529644 28.262256 
L 141.736686 28.032806 
L 146.564851 27.844852 
L 147.771893 27.907088 
L 148.978934 28.114474 
L 150.185976 27.957739 
L 152.600058 28.328602 
L 153.8071 28.11004 
L 155.014141 28.3215 
L 158.635266 28.286176 
L 159.842307 28.197192 
L 161.049348 28.426359 
L 163.463431 28.33104 
L 165.877514 28.556632 
L 167.084555 28.525802 
L 168.291597 28.649735 
L 170.70568 28.604117 
L 171.912721 28.729572 
L 175.533845 28.642358 
L 176.740887 28.632462 
L 177.947928 28.736602 
L 179.15497 28.636954 
L 180.362011 28.738317 
L 182.776094 28.674848 
L 183.983135 28.889999 
L 186.397218 28.529767 
L 187.604259 28.622556 
L 192.432425 28.157129 
L 194.846508 28.166061 
L 196.053549 28.220371 
L 200.881715 27.998161 
L 203.295798 28.214102 
L 205.709881 28.110447 
L 206.916922 27.994459 
L 208.123963 27.993677 
L 210.538046 27.713102 
L 215.366212 28.074792 
L 217.780295 27.936171 
L 220.194378 27.923021 
L 221.401419 27.745033 
L 226.229585 27.867278 
L 227.436626 27.763607 
L 228.643668 27.977288 
L 231.05775 27.988325 
L 234.678875 27.909062 
L 237.092957 28.034529 
L 241.921123 27.89085 
L 244.335206 27.839725 
L 247.95633 27.820523 
L 249.163372 27.872232 
L 250.370413 27.791402 
L 255.198579 28.043035 
L 256.40562 27.976815 
L 258.819703 28.151893 
L 260.026744 28.227689 
L 261.233786 28.156075 
L 267.268993 28.523955 
L 269.683076 28.447721 
L 272.097158 28.635995 
L 278.132365 28.415542 
L 279.339407 28.291285 
L 285.374614 28.278335 
L 287.788697 28.167303 
L 290.20278 28.305832 
L 291.409821 28.167295 
L 292.616862 28.222213 
L 295.030945 28.154724 
L 299.859111 28.202684 
L 301.066152 28.134637 
L 303.480235 28.218138 
L 304.687277 28.172749 
L 305.894318 27.951557 
L 308.308401 27.817874 
L 310.722484 27.859771 
L 316.757691 28.045292 
L 319.171773 28.003238 
L 323.999939 28.02579 
L 327.621063 27.846557 
L 330.035146 27.925568 
L 332.449229 27.905316 
L 336.070353 27.973699 
L 346.933726 27.907094 
L 350.55485 27.985178 
L 360.211182 28.173151 
L 363.832306 28.363211 
L 368.660471 28.376536 
L 378.316803 28.272625 
L 398.836507 28.626562 
L 401.25059 28.680296 
L 409.699879 28.753814 
L 412.113962 28.771648 
L 422.977335 28.925069 
L 426.598459 28.866864 
L 427.805501 28.961246 
L 430.219583 28.661543 
L 432.633666 28.662173 
L 436.254791 28.561421 
L 437.461832 28.491081 
L 443.497039 28.673702 
L 451.946329 28.651031 
L 459.188577 28.521634 
L 461.60266 28.425027 
L 464.016743 28.4717 
L 468.844909 28.425372 
L 480.915323 28.453937 
L 501.435027 28.336263 
L 506.263193 28.501726 
L 515.919524 28.125714 
L 515.919524 28.125714 
" clip-path="url(#p5fc2627d7b)" style="fill: none; stroke: #ff8c00; stroke-width: 1.5; stroke-linecap: square"/>
   </g>
   <g id="line2d_28">
    <path d="M 34.31 98.44 
L 35.517041 97.919364 
L 36.724083 88.732131 
L 37.931124 43.437033 
L 39.138166 54.417615 
L 40.345207 35.880757 
L 41.552248 43.044413 
L 42.75929 32.669507 
L 43.966331 37.648884 
L 45.173373 36.662022 
L 46.380414 42.139515 
L 47.587456 23.332805 
L 48.794497 29.048897 
L 50.001538 33.986165 
L 51.20858 38.128242 
L 52.415621 41.094269 
L 53.622663 38.694367 
L 54.829704 41.352024 
L 57.243787 45.694415 
L 58.450828 48.148595 
L 59.65787 35.016316 
L 60.864911 34.894535 
L 62.071953 37.540359 
L 63.278994 38.022181 
L 64.486035 38.090426 
L 65.693077 39.645288 
L 66.900118 40.415579 
L 68.10716 42.416153 
L 69.314201 41.58394 
L 70.521242 43.343311 
L 71.728284 43.383854 
L 74.142367 46.471906 
L 75.349408 47.72751 
L 77.763491 49.450593 
L 78.970532 50.261085 
L 80.177574 48.966259 
L 81.384615 50.17867 
L 82.591657 51.170307 
L 83.798698 51.698346 
L 85.005739 52.052226 
L 87.419822 51.440011 
L 88.626864 49.16189 
L 89.833905 49.888144 
L 91.040946 50.183053 
L 92.247988 51.086349 
L 93.455029 50.578582 
L 94.662071 51.059938 
L 95.869112 51.83643 
L 97.076153 50.720748 
L 98.283195 48.253644 
L 99.490236 47.989804 
L 101.904319 49.312273 
L 103.111361 46.579172 
L 104.318402 36.93541 
L 105.525443 35.607849 
L 106.732485 35.225951 
L 107.939526 32.188725 
L 109.146568 32.726015 
L 111.56065 34.645082 
L 112.767692 34.947298 
L 113.974733 35.425882 
L 115.181775 34.691672 
L 116.388816 35.437684 
L 117.595858 36.331429 
L 118.802899 36.698959 
L 120.00994 37.530977 
L 121.216982 32.769063 
L 122.424023 33.656427 
L 123.631065 34.174941 
L 126.045147 32.940059 
L 133.287396 37.367327 
L 134.494437 35.305666 
L 135.701479 34.249666 
L 136.90852 34.924823 
L 138.115562 35.419064 
L 139.322603 33.309816 
L 140.529644 33.433757 
L 141.736686 32.662766 
L 142.943727 33.242922 
L 144.150769 33.623258 
L 147.771893 35.181912 
L 148.978934 34.538711 
L 150.185976 34.445901 
L 151.393017 33.77515 
L 152.600058 33.589022 
L 155.014141 31.955904 
L 157.428224 33.209555 
L 159.842307 33.963139 
L 161.049348 32.814012 
L 162.25639 33.179049 
L 163.463431 33.780182 
L 164.670473 33.77044 
L 165.877514 34.056365 
L 167.084555 34.603078 
L 168.291597 34.629706 
L 169.498638 35.024234 
L 170.70568 35.560747 
L 171.912721 35.535701 
L 175.533845 36.868627 
L 176.740887 37.38235 
L 180.362011 37.70637 
L 182.776094 38.605668 
L 183.983135 37.255042 
L 185.190177 35.692016 
L 186.397218 35.470841 
L 187.604259 35.614307 
L 188.811301 35.37387 
L 190.018342 35.501105 
L 192.432425 35.275482 
L 194.846508 36.140799 
L 198.467632 37.156112 
L 199.674674 36.81761 
L 200.881715 37.256608 
L 203.295798 37.089918 
L 204.502839 37.505556 
L 205.709881 37.608169 
L 206.916922 37.417499 
L 208.123963 37.838316 
L 209.331005 37.426 
L 210.538046 36.838796 
L 214.159171 36.607777 
L 215.366212 36.868862 
L 216.573253 36.671587 
L 220.194378 37.82869 
L 221.401419 36.652322 
L 223.815502 37.332009 
L 225.022543 37.716335 
L 226.229585 37.901294 
L 227.436626 37.729276 
L 228.643668 35.761233 
L 232.264792 36.590343 
L 234.678875 37.267558 
L 235.885916 36.888417 
L 238.299999 37.603292 
L 239.50704 37.663281 
L 240.714082 37.929117 
L 241.921123 37.742306 
L 243.128164 37.869866 
L 245.542247 38.51569 
L 249.163372 39.218289 
L 252.784496 39.152088 
L 253.991537 39.430658 
L 256.40562 39.519076 
L 257.612661 38.943228 
L 258.819703 39.100894 
L 267.268993 38.97744 
L 269.683076 39.388791 
L 270.890117 38.700649 
L 272.097158 38.756997 
L 273.3042 38.983737 
L 274.511241 38.687738 
L 276.925324 38.971832 
L 278.132365 38.587724 
L 279.339407 37.882226 
L 281.75349 38.439188 
L 282.960531 38.099773 
L 285.374614 38.016135 
L 286.581655 37.771084 
L 287.788697 38.027404 
L 288.995738 37.434798 
L 290.20278 37.681341 
L 291.409821 36.662415 
L 292.616862 36.744055 
L 293.823904 36.710542 
L 297.445028 37.50501 
L 298.652069 37.631781 
L 299.859111 37.879142 
L 301.066152 37.825816 
L 302.273194 37.468712 
L 303.480235 37.732644 
L 304.687277 37.855381 
L 305.894318 34.61515 
L 307.101359 34.885006 
L 308.308401 34.101916 
L 309.515442 34.330167 
L 310.722484 34.263169 
L 314.343608 34.596318 
L 315.550649 34.805582 
L 316.757691 34.670177 
L 317.964732 34.745465 
L 321.585856 35.469432 
L 323.999939 35.731196 
L 325.206981 35.465362 
L 326.414022 35.459011 
L 327.621063 35.605972 
L 328.828105 35.535606 
L 330.035146 35.775614 
L 331.242188 35.847463 
L 337.277395 36.744463 
L 338.484436 36.857865 
L 342.10556 37.556489 
L 343.312602 37.158012 
L 344.519643 37.153705 
L 345.726685 37.387247 
L 346.933726 36.987124 
L 348.140767 37.217345 
L 349.347809 36.87981 
L 354.175974 37.777032 
L 355.383016 37.084906 
L 359.00414 37.091658 
L 360.211182 37.258795 
L 361.418223 36.623199 
L 362.625264 36.826385 
L 363.832306 36.576547 
L 366.246389 36.804987 
L 367.45343 36.861797 
L 369.867513 37.238143 
L 371.074554 37.157285 
L 372.281596 37.373816 
L 373.488637 37.011143 
L 374.695678 37.128932 
L 375.90272 36.164087 
L 377.109761 36.145998 
L 379.523844 36.560923 
L 380.730886 36.644974 
L 381.937927 36.546215 
L 383.144968 35.447602 
L 386.766093 34.901615 
L 389.180175 35.21655 
L 390.387217 35.132934 
L 391.594258 34.904139 
L 394.008341 34.912049 
L 396.422424 35.310571 
L 397.629465 34.965008 
L 398.836507 34.818997 
L 400.043548 34.549738 
L 404.871714 35.252704 
L 406.078755 35.297324 
L 410.906921 35.977551 
L 412.113962 35.935063 
L 416.942128 36.463854 
L 418.149169 36.16937 
L 420.563252 36.243492 
L 424.184376 36.638538 
L 425.391418 36.573332 
L 426.598459 36.708685 
L 427.805501 35.971969 
L 429.012542 33.414696 
L 430.219583 31.64101 
L 432.633666 31.751922 
L 435.047749 32.137519 
L 436.254791 31.394519 
L 437.461832 31.068011 
L 438.668873 30.995178 
L 439.875915 30.459609 
L 448.325205 31.521379 
L 450.739288 31.795403 
L 451.946329 31.813711 
L 453.15337 31.989838 
L 454.360412 31.87396 
L 456.774495 32.092285 
L 459.188577 32.313655 
L 460.395619 31.863437 
L 461.60266 31.99951 
L 462.809702 31.831789 
L 465.223784 32.073366 
L 466.430826 31.836434 
L 472.466033 32.534617 
L 476.087157 32.485493 
L 477.294199 32.167599 
L 478.50124 31.671378 
L 479.708281 31.669214 
L 480.915323 31.23603 
L 483.329406 31.571785 
L 484.536447 31.118575 
L 490.571654 31.870601 
L 491.778696 31.917339 
L 492.985737 32.090019 
L 494.192778 31.903824 
L 496.606861 32.202071 
L 497.813903 32.211108 
L 499.020944 32.074613 
L 500.227985 32.246083 
L 502.642068 31.964739 
L 503.84911 32.084448 
L 505.056151 31.732896 
L 506.263193 31.799319 
L 507.470234 31.731112 
L 508.677275 30.999666 
L 511.091358 31.24892 
L 512.2984 31.141102 
L 513.505441 28.754872 
L 514.712482 28.772455 
L 515.919524 28.125714 
L 515.919524 28.125714 
" clip-path="url(#p5fc2627d7b)" style="fill: none; stroke-dasharray: 5.55,2.4; stroke-dashoffset: 0; stroke: #ff8c00; stroke-width: 1.5"/>
   </g>
   <g id="patch_3">
    <path d="M 34.31 98.44 
L 34.31 0 
" style="fill: none; stroke: #000000; stroke-width: 0.8; stroke-linejoin: miter; stroke-linecap: square"/>
   </g>
   <g id="patch_4">
    <path d="M 540 98.44 
L 540 0 
" style="fill: none; stroke: #000000; stroke-width: 0.8; stroke-linejoin: miter; stroke-linecap: square"/>
   </g>
   <g id="patch_5">
    <path d="M 34.31 98.44 
L 540 98.44 
" style="fill: none; stroke: #000000; stroke-width: 0.8; stroke-linejoin: miter; stroke-linecap: square"/>
   </g>
   <g id="patch_6">
    <path d="M 34.31 0 
L 540 0 
" style="fill: none; stroke: #000000; stroke-width: 0.8; stroke-linejoin: miter; stroke-linecap: square"/>
   </g>
  </g>
 </g>
 <defs>
  <clipPath id="p5fc2627d7b">
   <rect x="34.31" y="0" width="505.69" height="98.44"/>
  </clipPath>
 </defs>
</svg>
