<?xml version="1.0" encoding="utf-8" standalone="no"?>
<!DOCTYPE svg PUBLIC "-//W3C//DTD SVG 1.1//EN"
  "http://www.w3.org/Graphics/SVG/1.1/DTD/svg11.dtd">
<svg xmlns:xlink="http://www.w3.org/1999/xlink" width="540pt" height="129.6pt" viewBox="0 0 540 129.6" xmlns="http://www.w3.org/2000/svg" version="1.1">
 <metadata>
  <rdf:RDF xmlns:dc="http://purl.org/dc/elements/1.1/" xmlns:cc="http://creativecommons.org/ns#" xmlns:rdf="http://www.w3.org/1999/02/22-rdf-syntax-ns#">
   <cc:Work>
    <dc:type rdf:resource="http://purl.org/dc/dcmitype/StillImage"/>
    <dc:date>2025-03-30T22:16:35.617311</dc:date>
    <dc:format>image/svg+xml</dc:format>
    <dc:creator>
     <cc:Agent>
      <dc:title>Matplotlib v3.8.3, https://matplotlib.org/</dc:title>
     </cc:Agent>
    </dc:creator>
   </cc:Work>
  </rdf:RDF>
 </metadata>
 <defs>
  <style type="text/css">*{stroke-linejoin: round; stroke-linecap: butt}</style>
 </defs>
 <g id="figure_1">
  <g id="patch_1">
   <path d="M 0 129.6 
L 540 129.6 
L 540 0 
L 0 0 
z
" style="fill: #ffffff"/>
  </g>
  <g id="axes_1">
   <g id="patch_2">
    <path d="M 35.12 97 
L 540 97 
L 540 0 
L 35.12 0 
z
" style="fill: #ffffff"/>
   </g>
   <g id="matplotlib.axis_1">
    <g id="xtick_1">
     <g id="line2d_1">
      <path d="M 35.12 97 
L 35.12 0 
" clip-path="url(#p376f673860)" style="fill: none; stroke: #b0b0b0; stroke-width: 0.8; stroke-linecap: square"/>
     </g>
     <g id="line2d_2">
      <defs>
       <path id="m5c618dec68" d="M 0 0 
L 0 3.5 
" style="stroke: #000000; stroke-width: 0.8"/>
      </defs>
      <g>
       <use xlink:href="#m5c618dec68" x="35.12" y="97" style="stroke: #000000; stroke-width: 0.8"/>
      </g>
     </g>
     <g id="text_1">
      <text style="font: 10px 'Times New Roman'; text-anchor: middle" x="35.12" y="110.94375" transform="rotate(-0 35.12 110.94375)">0</text>
     </g>
    </g>
    <g id="xtick_2">
     <g id="line2d_3">
      <path d="M 95.3754 97 
L 95.3754 0 
" clip-path="url(#p376f673860)" style="fill: none; stroke: #b0b0b0; stroke-width: 0.8; stroke-linecap: square"/>
     </g>
     <g id="line2d_4">
      <g>
       <use xlink:href="#m5c618dec68" x="95.3754" y="97" style="stroke: #000000; stroke-width: 0.8"/>
      </g>
     </g>
     <g id="text_2">
      <text style="font: 10px 'Times New Roman'; text-anchor: middle" x="95.3754" y="110.94375" transform="rotate(-0 95.3754 110.94375)">50</text>
     </g>
    </g>
    <g id="xtick_3">
     <g id="line2d_5">
      <path d="M 155.630801 97 
L 155.630801 0 
" clip-path="url(#p376f673860)" style="fill: none; stroke: #b0b0b0; stroke-width: 0.8; stroke-linecap: square"/>
     </g>
     <g id="line2d_6">
      <g>
       <use xlink:href="#m5c618dec68" x="155.630801" y="97" style="stroke: #000000; stroke-width: 0.8"/>
      </g>
     </g>
     <g id="text_3">
      <text style="font: 10px 'Times New Roman'; text-anchor: middle" x="155.630801" y="110.94375" transform="rotate(-0 155.630801 110.94375)">100</text>
     </g>
    </g>
    <g id="xtick_4">
     <g id="line2d_7">
      <path d="M 215.886201 97 
L 215.886201 0 
" clip-path="url(#p376f673860)" style="fill: none; stroke: #b0b0b0; stroke-width: 0.8; stroke-linecap: square"/>
     </g>
     <g id="line2d_8">
      <g>
       <use xlink:href="#m5c618dec68" x="215.886201" y="97" style="stroke: #000000; stroke-width: 0.8"/>
      </g>
     </g>
     <g id="text_4">
      <text style="font: 10px 'Times New Roman'; text-anchor: middle" x="215.886201" y="110.94375" transform="rotate(-0 215.886201 110.94375)">150</text>
     </g>
    </g>
    <g id="xtick_5">
     <g id="line2d_9">
      <path d="M 276.141602 97 
L 276.141602 0 
" clip-path="url(#p376f673860)" style="fill: none; stroke: #b0b0b0; stroke-width: 0.8; stroke-linecap: square"/>
     </g>
     <g id="line2d_10">
      <g>
       <use xlink:href="#m5c618dec68" x="276.141602" y="97" style="stroke: #000000; stroke-width: 0.8"/>
      </g>
     </g>
     <g id="text_5">
      <text style="font: 10px 'Times New Roman'; text-anchor: middle" x="276.141602" y="110.94375" transform="rotate(-0 276.141602 110.94375)">200</text>
     </g>
    </g>
    <g id="xtick_6">
     <g id="line2d_11">
      <path d="M 336.397002 97 
L 336.397002 0 
" clip-path="url(#p376f673860)" style="fill: none; stroke: #b0b0b0; stroke-width: 0.8; stroke-linecap: square"/>
     </g>
     <g id="line2d_12">
      <g>
       <use xlink:href="#m5c618dec68" x="336.397002" y="97" style="stroke: #000000; stroke-width: 0.8"/>
      </g>
     </g>
     <g id="text_6">
      <text style="font: 10px 'Times New Roman'; text-anchor: middle" x="336.397002" y="110.94375" transform="rotate(-0 336.397002 110.94375)">250</text>
     </g>
    </g>
    <g id="xtick_7">
     <g id="line2d_13">
      <path d="M 396.652402 97 
L 396.652402 0 
" clip-path="url(#p376f673860)" style="fill: none; stroke: #b0b0b0; stroke-width: 0.8; stroke-linecap: square"/>
     </g>
     <g id="line2d_14">
      <g>
       <use xlink:href="#m5c618dec68" x="396.652402" y="97" style="stroke: #000000; stroke-width: 0.8"/>
      </g>
     </g>
     <g id="text_7">
      <text style="font: 10px 'Times New Roman'; text-anchor: middle" x="396.652402" y="110.94375" transform="rotate(-0 396.652402 110.94375)">300</text>
     </g>
    </g>
    <g id="xtick_8">
     <g id="line2d_15">
      <path d="M 456.907803 97 
L 456.907803 0 
" clip-path="url(#p376f673860)" style="fill: none; stroke: #b0b0b0; stroke-width: 0.8; stroke-linecap: square"/>
     </g>
     <g id="line2d_16">
      <g>
       <use xlink:href="#m5c618dec68" x="456.907803" y="97" style="stroke: #000000; stroke-width: 0.8"/>
      </g>
     </g>
     <g id="text_8">
      <text style="font: 10px 'Times New Roman'; text-anchor: middle" x="456.907803" y="110.94375" transform="rotate(-0 456.907803 110.94375)">350</text>
     </g>
    </g>
    <g id="xtick_9">
     <g id="line2d_17">
      <path d="M 517.163203 97 
L 517.163203 0 
" clip-path="url(#p376f673860)" style="fill: none; stroke: #b0b0b0; stroke-width: 0.8; stroke-linecap: square"/>
     </g>
     <g id="line2d_18">
      <g>
       <use xlink:href="#m5c618dec68" x="517.163203" y="97" style="stroke: #000000; stroke-width: 0.8"/>
      </g>
     </g>
     <g id="text_9">
      <text style="font: 10px 'Times New Roman'; text-anchor: middle" x="517.163203" y="110.94375" transform="rotate(-0 517.163203 110.94375)">400</text>
     </g>
    </g>
    <g id="text_10">
     <text style="font: 12px 'Times New Roman'; text-anchor: middle" x="287.56" y="125.415312" transform="rotate(-0 287.56 125.415312)">Simulation Run</text>
    </g>
   </g>
   <g id="matplotlib.axis_2">
    <g id="ytick_1">
     <g id="line2d_19">
      <path d="M 35.12 97 
L 540 97 
" clip-path="url(#p376f673860)" style="fill: none; stroke: #b0b0b0; stroke-width: 0.8; stroke-linecap: square"/>
     </g>
     <g id="line2d_20">
      <defs>
       <path id="mf56b56971b" d="M 0 0 
L -3.5 0 
" style="stroke: #000000; stroke-width: 0.8"/>
      </defs>
      <g>
       <use xlink:href="#mf56b56971b" x="35.12" y="97" style="stroke: #000000; stroke-width: 0.8"/>
      </g>
     </g>
     <g id="text_11">
      <text style="font: 10px 'Times New Roman'; text-anchor: end" x="28.12" y="100.471875" transform="rotate(-0 28.12 100.471875)">0.0</text>
     </g>
    </g>
    <g id="ytick_2">
     <g id="line2d_21">
      <path d="M 35.12 70.055556 
L 540 70.055556 
" clip-path="url(#p376f673860)" style="fill: none; stroke: #b0b0b0; stroke-width: 0.8; stroke-linecap: square"/>
     </g>
     <g id="line2d_22">
      <g>
       <use xlink:href="#mf56b56971b" x="35.12" y="70.055556" style="stroke: #000000; stroke-width: 0.8"/>
      </g>
     </g>
     <g id="text_12">
      <text style="font: 10px 'Times New Roman'; text-anchor: end" x="28.12" y="73.527431" transform="rotate(-0 28.12 73.527431)">0.5</text>
     </g>
    </g>
    <g id="ytick_3">
     <g id="line2d_23">
      <path d="M 35.12 43.111111 
L 540 43.111111 
" clip-path="url(#p376f673860)" style="fill: none; stroke: #b0b0b0; stroke-width: 0.8; stroke-linecap: square"/>
     </g>
     <g id="line2d_24">
      <g>
       <use xlink:href="#mf56b56971b" x="35.12" y="43.111111" style="stroke: #000000; stroke-width: 0.8"/>
      </g>
     </g>
     <g id="text_13">
      <text style="font: 10px 'Times New Roman'; text-anchor: end" x="28.12" y="46.582986" transform="rotate(-0 28.12 46.582986)">1.0</text>
     </g>
    </g>
    <g id="ytick_4">
     <g id="line2d_25">
      <path d="M 35.12 16.166667 
L 540 16.166667 
" clip-path="url(#p376f673860)" style="fill: none; stroke: #b0b0b0; stroke-width: 0.8; stroke-linecap: square"/>
     </g>
     <g id="line2d_26">
      <g>
       <use xlink:href="#mf56b56971b" x="35.12" y="16.166667" style="stroke: #000000; stroke-width: 0.8"/>
      </g>
     </g>
     <g id="text_14">
      <text style="font: 10px 'Times New Roman'; text-anchor: end" x="28.12" y="19.638542" transform="rotate(-0 28.12 19.638542)">1.5</text>
     </g>
    </g>
    <g id="text_15">
     <text style="font: 12px 'Times New Roman'; text-anchor: middle" x="9.053125" y="48.5" transform="rotate(-90 9.053125 48.5)">Normalized Value</text>
    </g>
   </g>
   <g id="line2d_27">
    <path d="M 35.12 51.072644 
L 36.325108 46.985541 
L 37.530216 49.510388 
L 38.735324 39.77893 
L 39.940432 42.057796 
L 41.14554 42.152314 
L 42.350648 44.740092 
L 43.555756 43.718604 
L 44.760864 44.750762 
L 45.965972 43.849679 
L 47.17108 45.350314 
L 48.376188 46.532619 
L 49.581296 46.600169 
L 51.991512 48.214165 
L 53.19662 47.687423 
L 55.606836 48.27909 
L 56.811944 47.7453 
L 58.017052 48.435184 
L 59.22216 48.783757 
L 60.427268 48.767342 
L 61.632376 47.801837 
L 62.837484 45.742708 
L 64.042592 45.320745 
L 65.2477 43.797415 
L 66.452808 43.873433 
L 68.863024 44.217658 
L 71.27324 45.253096 
L 72.478348 45.699487 
L 73.683456 45.319894 
L 74.888564 44.125675 
L 76.093672 44.56043 
L 77.29878 44.618661 
L 78.503888 44.239494 
L 79.708996 43.979448 
L 80.914104 44.406665 
L 82.119212 43.671415 
L 83.32432 44.071486 
L 84.529428 43.565171 
L 85.734536 43.378892 
L 88.144752 43.480324 
L 89.34986 43.182732 
L 90.554968 43.159085 
L 91.760076 43.616491 
L 92.965184 43.695612 
L 94.170292 43.432059 
L 95.3754 43.304802 
L 96.580508 43.577898 
L 97.785616 44.15431 
L 100.195832 44.537877 
L 103.811156 44.195575 
L 105.016264 43.663491 
L 106.221372 43.776335 
L 108.631588 43.592974 
L 109.836697 43.490468 
L 111.041805 43.712142 
L 112.246913 43.629332 
L 113.452021 43.832597 
L 114.657129 43.684461 
L 115.862237 43.91063 
L 118.272453 43.700802 
L 119.477561 44.003644 
L 120.682669 43.968002 
L 121.887777 44.077799 
L 123.092885 44.051925 
L 124.297993 44.215564 
L 125.503101 44.018172 
L 127.913317 44.143904 
L 129.118425 44.352688 
L 130.323533 44.428897 
L 131.528641 44.219794 
L 132.733749 44.176844 
L 133.938857 44.454816 
L 135.143965 44.525944 
L 137.554181 44.148767 
L 145.989937 44.480793 
L 147.195045 44.415261 
L 148.400153 44.026445 
L 150.810369 44.017369 
L 152.015477 44.200075 
L 153.220585 43.963565 
L 154.425693 43.943805 
L 156.835909 44.214928 
L 158.041017 44.149769 
L 160.451233 44.251003 
L 161.656341 44.140329 
L 162.861449 44.345013 
L 164.066557 44.407416 
L 165.271665 44.314343 
L 166.476773 44.03702 
L 167.681881 43.887916 
L 173.707421 43.888344 
L 174.912529 44.108329 
L 176.117637 44.205426 
L 180.938069 43.924953 
L 184.553393 44.086168 
L 185.758501 44.229071 
L 186.963609 44.12749 
L 188.168717 43.820165 
L 189.373825 43.694203 
L 190.578933 43.686675 
L 192.989149 43.907008 
L 196.604473 43.657682 
L 197.809581 43.63251 
L 199.014689 43.818159 
L 200.219797 43.621209 
L 201.424905 43.697415 
L 202.630013 43.443756 
L 205.040229 43.41927 
L 206.245337 43.271182 
L 208.655553 43.235059 
L 209.860661 43.336474 
L 212.270877 43.350409 
L 214.681093 43.501892 
L 215.886201 43.370935 
L 217.091309 43.443899 
L 218.296417 43.385112 
L 220.706633 43.430896 
L 226.732173 43.473611 
L 230.347497 43.346637 
L 231.552605 43.365868 
L 236.373037 43.070746 
L 238.783253 43.218361 
L 239.988361 43.006083 
L 242.398577 43.106172 
L 243.603685 43.127723 
L 246.013901 42.837732 
L 247.219009 42.462574 
L 250.834333 42.517453 
L 255.654765 42.874391 
L 256.859873 42.714831 
L 259.27009 42.858257 
L 264.090522 43.063643 
L 265.29563 43.129328 
L 267.705846 42.921538 
L 272.526278 43.068282 
L 273.731386 43.069716 
L 277.34671 42.817632 
L 278.551818 42.732521 
L 279.756926 42.832795 
L 280.962034 42.744506 
L 282.167142 42.841072 
L 285.782466 42.727751 
L 288.192682 42.812155 
L 291.808006 42.874526 
L 293.013114 42.97336 
L 303.859086 42.565329 
L 305.064194 42.472993 
L 307.47441 42.588382 
L 308.679518 42.375935 
L 312.294842 42.53513 
L 315.910166 42.741628 
L 326.756138 42.726635 
L 327.961246 42.492152 
L 332.781678 42.419922 
L 337.60211 42.528561 
L 338.807218 42.318533 
L 343.62765 42.035814 
L 347.242974 42.029539 
L 349.65319 42.108348 
L 352.063406 42.059165 
L 353.268514 42.159036 
L 354.473622 42.062402 
L 360.499162 42.157126 
L 361.70427 42.024812 
L 364.114486 42.016424 
L 365.319594 41.85336 
L 373.75535 42.098893 
L 385.80643 42.262052 
L 387.011538 42.138239 
L 389.421754 42.212534 
L 390.626862 42.066657 
L 394.242186 42.236519 
L 399.062618 42.115721 
L 415.934131 42.383604 
L 418.344347 42.385155 
L 436.420967 42.571297 
L 437.626075 42.611992 
L 438.831183 42.530334 
L 446.061831 42.770729 
L 447.266939 42.677154 
L 450.882263 42.707807 
L 454.497587 42.559569 
L 458.112911 42.540557 
L 459.318019 42.624818 
L 467.753775 42.502506 
L 470.163991 42.547109 
L 473.779315 42.604165 
L 490.650827 42.790424 
L 493.061043 42.737071 
L 496.676367 42.774921 
L 500.291691 42.812405 
L 503.907015 42.877787 
L 506.317231 42.91846 
L 509.932555 43.051375 
L 515.958095 43.111111 
L 515.958095 43.111111 
" clip-path="url(#p376f673860)" style="fill: none; stroke: #4169e1; stroke-width: 1.5; stroke-linecap: square"/>
   </g>
   <g id="line2d_28">
    <path d="M 35.12 97 
L 36.325108 93.73872 
L 37.530216 92.33663 
L 38.735324 38.035566 
L 39.940432 45.77286 
L 41.14554 54.301996 
L 42.350648 52.557266 
L 43.555756 56.686599 
L 44.760864 59.501919 
L 45.965972 61.82504 
L 47.17108 60.626264 
L 48.376188 60.65542 
L 49.581296 63.440467 
L 50.786404 64.215381 
L 51.991512 64.587609 
L 53.19662 65.800845 
L 54.401728 67.451137 
L 55.606836 68.690014 
L 56.811944 69.178697 
L 58.017052 68.80428 
L 59.22216 69.672503 
L 60.427268 70.913557 
L 61.632376 68.043804 
L 62.837484 50.21097 
L 64.042592 51.248242 
L 65.2477 41.681703 
L 66.452808 43.701196 
L 68.863024 47.050924 
L 70.068132 46.826907 
L 72.478348 47.567426 
L 73.683456 48.165177 
L 74.888564 40.413113 
L 76.093672 40.775223 
L 77.29878 42.313853 
L 78.503888 42.781396 
L 79.708996 43.719707 
L 80.914104 43.73181 
L 82.119212 40.947356 
L 83.32432 41.064547 
L 84.529428 40.344323 
L 85.734536 41.377362 
L 88.144752 43.805037 
L 89.34986 44.183391 
L 90.554968 45.302127 
L 91.760076 44.459352 
L 92.965184 45.472946 
L 94.170292 45.838996 
L 95.3754 46.684068 
L 96.580508 46.909076 
L 97.785616 44.481106 
L 98.990724 44.914198 
L 101.40094 46.307389 
L 102.606048 46.813499 
L 103.811156 47.676973 
L 105.016264 45.307098 
L 109.836697 48.094529 
L 111.041805 48.254275 
L 112.246913 48.918525 
L 113.452021 49.122713 
L 114.657129 49.554536 
L 115.862237 49.58315 
L 117.067345 49.980183 
L 118.272453 50.600131 
L 119.477561 50.000258 
L 120.682669 50.635424 
L 121.887777 51.101095 
L 123.092885 51.71181 
L 124.297993 51.928785 
L 125.503101 51.951302 
L 127.913317 52.988623 
L 129.118425 52.881915 
L 130.323533 53.343813 
L 131.528641 53.199858 
L 132.733749 53.704835 
L 133.938857 52.989454 
L 135.143965 53.431408 
L 137.554181 53.277948 
L 139.964397 54.207665 
L 141.169505 54.461087 
L 142.374613 54.933615 
L 143.579721 55.128583 
L 147.195045 56.065884 
L 148.400153 53.722349 
L 150.810369 54.520598 
L 152.015477 54.321896 
L 153.220585 53.682745 
L 154.425693 54.108371 
L 155.630801 54.290577 
L 156.835909 54.206497 
L 160.451233 55.222794 
L 161.656341 55.365822 
L 162.861449 54.887902 
L 165.271665 55.397347 
L 166.476773 54.138903 
L 167.681881 54.047592 
L 170.092097 54.738535 
L 171.297205 54.811745 
L 172.502313 54.240582 
L 173.707421 54.04037 
L 174.912529 53.311576 
L 177.322745 53.637775 
L 178.527853 53.226687 
L 183.348285 54.463405 
L 184.553393 54.673015 
L 185.758501 54.510575 
L 186.963609 54.5913 
L 188.168717 52.580782 
L 189.373825 52.528615 
L 190.578933 52.869276 
L 194.194257 52.923463 
L 197.809581 53.638942 
L 200.219797 52.321357 
L 201.424905 52.486321 
L 202.630013 51.058161 
L 205.040229 51.696813 
L 206.245337 51.405649 
L 208.655553 52.002753 
L 209.860661 52.019789 
L 212.270877 52.564776 
L 214.681093 52.825042 
L 215.886201 52.615363 
L 219.501525 53.068745 
L 224.321957 54.036232 
L 225.527065 54.182048 
L 226.732173 53.938837 
L 229.142389 54.353322 
L 231.552605 54.763137 
L 232.757713 54.722912 
L 233.962821 54.973211 
L 235.167929 52.563309 
L 236.373037 52.639635 
L 237.578145 52.868297 
L 238.783253 52.687727 
L 239.988361 51.451263 
L 241.193469 51.438632 
L 243.603685 51.943979 
L 244.808793 51.647128 
L 246.013901 51.005383 
L 247.219009 46.429108 
L 249.629225 46.973619 
L 252.039441 47.091797 
L 253.244549 47.119844 
L 254.449657 47.315839 
L 255.654765 46.85805 
L 256.859873 46.214509 
L 258.064982 46.141922 
L 261.680306 46.839148 
L 262.885414 46.50597 
L 265.29563 46.778951 
L 266.500738 46.293546 
L 268.910954 46.539448 
L 270.116062 46.793822 
L 272.526278 47.147017 
L 273.731386 47.397455 
L 274.936494 47.13398 
L 278.551818 47.217301 
L 282.167142 46.865499 
L 284.577358 47.275541 
L 286.987574 47.153843 
L 289.39779 47.621866 
L 290.602898 47.34544 
L 291.808006 47.470712 
L 293.013114 47.292968 
L 294.218222 47.460846 
L 295.42333 47.040095 
L 296.628438 47.207282 
L 297.833546 47.237468 
L 300.243762 46.88439 
L 303.859086 47.442195 
L 306.269302 47.137421 
L 307.47441 47.333026 
L 308.679518 45.550614 
L 309.884626 45.755247 
L 311.089734 45.551711 
L 312.294842 45.701407 
L 313.49995 45.60479 
L 314.705058 45.779023 
L 315.910166 45.624726 
L 317.115274 45.838966 
L 318.320382 45.863928 
L 326.756138 47.205833 
L 327.961246 44.801454 
L 330.371462 45.140683 
L 331.57657 44.948602 
L 337.60211 45.735509 
L 338.807218 43.767867 
L 340.012326 43.588608 
L 341.217434 43.798063 
L 342.422542 43.077453 
L 343.62765 43.12144 
L 347.242974 43.607841 
L 348.448082 43.534152 
L 352.063406 44.07344 
L 354.473622 43.476085 
L 360.499162 44.281481 
L 361.70427 43.549037 
L 364.114486 43.88004 
L 365.319594 42.650798 
L 367.72981 42.714432 
L 368.934918 42.466175 
L 376.165566 43.41156 
L 378.575782 43.694041 
L 379.78089 43.516568 
L 382.191106 43.820086 
L 383.396214 43.535603 
L 385.80643 43.821068 
L 387.011538 43.128635 
L 389.421754 43.318146 
L 390.626862 42.273902 
L 391.83197 42.142637 
L 394.242186 42.233909 
L 395.447294 42.308099 
L 396.652402 42.263405 
L 397.85751 40.391619 
L 401.472834 40.574272 
L 405.088158 41.012756 
L 406.293266 41.07467 
L 408.703483 40.767035 
L 414.729023 41.436879 
L 415.934131 41.611334 
L 418.344347 41.667276 
L 420.754563 42.009287 
L 421.959671 42.012197 
L 423.164779 42.14992 
L 425.574995 42.132695 
L 435.215859 42.955157 
L 436.420967 42.569647 
L 437.626075 42.624138 
L 438.831183 42.349858 
L 446.061831 42.633276 
L 447.266939 42.207119 
L 448.472047 42.319221 
L 450.882263 42.293166 
L 452.087371 41.988188 
L 456.907803 42.394032 
L 458.112911 42.483798 
L 459.318019 42.150301 
L 460.523127 42.239607 
L 461.728235 41.772654 
L 470.163991 42.267246 
L 471.369099 42.242452 
L 476.189531 42.664849 
L 477.394639 42.601216 
L 478.599747 42.397529 
L 479.804855 42.523359 
L 481.009963 42.432052 
L 482.215071 42.575836 
L 483.420179 42.305202 
L 487.035503 42.245177 
L 490.650827 42.498106 
L 491.855935 42.154909 
L 494.266151 42.288678 
L 496.676367 42.232302 
L 500.291691 42.516032 
L 503.907015 42.524647 
L 505.112123 42.662365 
L 506.317231 42.644579 
L 507.522339 42.49394 
L 509.932555 42.5722 
L 514.752987 43.006402 
L 515.958095 43.111111 
L 515.958095 43.111111 
" clip-path="url(#p376f673860)" style="fill: none; stroke-dasharray: 5.55,2.4; stroke-dashoffset: 0; stroke: #4169e1; stroke-width: 1.5"/>
   </g>
   <g id="line2d_29">
    <path d="M 35.12 46.993992 
L 36.325108 42.953362 
L 37.530216 47.332347 
L 38.735324 37.794583 
L 39.940432 40.788227 
L 41.14554 40.655075 
L 42.350648 43.587653 
L 43.555756 42.80153 
L 44.760864 43.374054 
L 45.965972 42.945962 
L 47.17108 44.522823 
L 48.376188 45.420544 
L 49.581296 45.702949 
L 51.991512 47.08754 
L 53.19662 46.55549 
L 54.401728 47.1424 
L 55.606836 47.299567 
L 56.811944 46.953882 
L 58.017052 47.577109 
L 60.427268 47.990415 
L 61.632376 47.011894 
L 62.837484 45.321336 
L 64.042592 44.975026 
L 65.2477 43.836163 
L 66.452808 43.847949 
L 67.657916 44.234159 
L 68.863024 44.274767 
L 70.068132 44.826859 
L 72.478348 45.60538 
L 73.683456 45.151816 
L 74.888564 44.245398 
L 76.093672 44.591873 
L 77.29878 44.791571 
L 78.503888 44.190248 
L 79.708996 43.922287 
L 80.914104 44.240705 
L 82.119212 43.571463 
L 83.32432 44.000001 
L 84.529428 43.538663 
L 86.939644 43.321157 
L 88.144752 43.393609 
L 89.34986 43.097627 
L 90.554968 42.976685 
L 91.760076 43.403732 
L 92.965184 43.469661 
L 95.3754 43.223888 
L 96.580508 43.438679 
L 97.785616 43.897367 
L 100.195832 44.215606 
L 102.606048 43.97499 
L 103.811156 44.088556 
L 105.016264 43.550621 
L 106.221372 43.862635 
L 107.42648 43.909175 
L 109.836697 43.672351 
L 111.041805 43.852167 
L 112.246913 43.676148 
L 113.452021 43.76965 
L 114.657129 43.542086 
L 115.862237 43.819398 
L 118.272453 43.781595 
L 119.477561 43.994142 
L 120.682669 43.907555 
L 121.887777 43.991273 
L 123.092885 43.948173 
L 124.297993 44.059588 
L 125.503101 43.896034 
L 127.913317 43.940234 
L 130.323533 44.172526 
L 131.528641 43.973347 
L 132.733749 43.89456 
L 133.938857 44.128771 
L 135.143965 44.21539 
L 138.759289 44.028554 
L 142.374613 44.043677 
L 143.579721 44.130997 
L 144.784829 44.072974 
L 145.989937 44.166697 
L 147.195045 44.0803 
L 148.400153 43.838935 
L 150.810369 43.766202 
L 152.015477 43.945126 
L 153.220585 43.743393 
L 155.630801 43.761381 
L 156.835909 43.916817 
L 159.246125 43.932063 
L 160.451233 43.948158 
L 161.656341 43.851161 
L 162.861449 44.044127 
L 165.271665 43.983306 
L 167.681881 43.655943 
L 172.502313 43.503437 
L 176.117637 43.889667 
L 182.143177 43.673866 
L 184.553393 43.763964 
L 185.758501 43.910671 
L 186.963609 43.864658 
L 188.168717 43.616499 
L 190.578933 43.48581 
L 192.989149 43.664996 
L 196.604473 43.507374 
L 197.809581 43.490857 
L 199.014689 43.662065 
L 200.219797 43.461556 
L 201.424905 43.503954 
L 202.630013 43.29158 
L 212.270877 43.141143 
L 214.681093 43.231919 
L 215.886201 43.125573 
L 217.091309 43.180458 
L 218.296417 43.101684 
L 224.321957 43.275983 
L 225.527065 43.298772 
L 227.937281 43.096858 
L 232.757713 42.946673 
L 233.962821 42.974526 
L 235.167929 42.756056 
L 238.783253 42.890168 
L 239.988361 42.72728 
L 242.398577 42.820074 
L 243.603685 42.842217 
L 246.013901 42.615525 
L 247.219009 42.344603 
L 252.039441 42.461366 
L 255.654765 42.670559 
L 256.859873 42.534248 
L 260.475198 42.720691 
L 262.885414 42.838764 
L 265.29563 42.961228 
L 267.705846 42.784577 
L 272.526278 42.907583 
L 277.34671 42.733126 
L 278.551818 42.643267 
L 279.756926 42.720882 
L 280.962034 42.674682 
L 283.37225 42.708512 
L 295.42333 42.672695 
L 305.064194 42.423154 
L 307.47441 42.509727 
L 308.679518 42.361097 
L 311.089734 42.443009 
L 320.730598 42.608553 
L 326.756138 42.60657 
L 327.961246 42.419496 
L 332.781678 42.354927 
L 337.60211 42.437999 
L 340.012326 42.237547 
L 341.217434 42.260108 
L 344.832758 42.089801 
L 349.65319 42.147055 
L 356.883838 42.164718 
L 364.114486 42.081128 
L 365.319594 41.954541 
L 384.601322 42.408834 
L 390.626862 42.22716 
L 394.242186 42.370568 
L 399.062618 42.256789 
L 415.934131 42.473053 
L 418.344347 42.491077 
L 441.241399 42.690827 
L 447.266939 42.74991 
L 450.882263 42.766944 
L 455.702695 42.655711 
L 460.523127 42.694614 
L 462.933343 42.57907 
L 466.548667 42.594445 
L 476.189531 42.712524 
L 477.394639 42.764949 
L 479.804855 42.700811 
L 484.625287 42.853644 
L 488.240611 42.812253 
L 490.650827 42.843814 
L 493.061043 42.80688 
L 496.676367 42.840276 
L 500.291691 42.85026 
L 503.907015 42.908038 
L 507.522339 42.992063 
L 515.958095 43.111111 
L 515.958095 43.111111 
" clip-path="url(#p376f673860)" style="fill: none; stroke: #ff8c00; stroke-width: 1.5; stroke-linecap: square"/>
   </g>
   <g id="line2d_30">
    <path d="M 35.12 97 
L 36.325108 92.386947 
L 37.530216 83.088678 
L 38.735324 9.457598 
L 39.940432 16.837455 
L 41.14554 30.172832 
L 42.350648 25.140137 
L 43.555756 32.900344 
L 44.760864 39.281615 
L 45.965972 44.587432 
L 47.17108 42.326713 
L 48.376188 44.378068 
L 49.581296 48.155501 
L 50.786404 50.06648 
L 51.991512 51.092248 
L 53.19662 52.761745 
L 54.401728 53.80676 
L 55.606836 56.087736 
L 56.811944 57.633267 
L 58.017052 57.516461 
L 59.22216 59.224031 
L 60.427268 60.603499 
L 61.632376 56.234081 
L 62.837484 39.359845 
L 64.042592 40.852188 
L 65.2477 33.850078 
L 66.452808 36.187944 
L 67.657916 37.221915 
L 68.863024 39.270182 
L 70.068132 38.696976 
L 71.27324 39.566349 
L 72.478348 39.71819 
L 73.683456 39.593984 
L 74.888564 33.621831 
L 76.093672 34.279414 
L 77.29878 35.62728 
L 78.503888 33.608025 
L 79.708996 34.52559 
L 80.914104 35.038901 
L 82.119212 31.652549 
L 83.32432 31.170855 
L 84.529428 30.272673 
L 85.734536 31.53853 
L 88.144752 34.336593 
L 89.34986 34.584976 
L 90.554968 35.722845 
L 91.760076 34.577645 
L 92.965184 35.79262 
L 94.170292 36.579825 
L 95.3754 37.698977 
L 96.580508 38.174578 
L 97.785616 36.193283 
L 98.990724 36.843035 
L 103.811156 40.02381 
L 105.016264 36.247343 
L 106.221372 35.636992 
L 107.42648 36.606224 
L 108.631588 37.153684 
L 109.836697 37.992931 
L 112.246913 38.681571 
L 113.452021 39.404619 
L 114.657129 39.298554 
L 115.862237 38.691306 
L 118.272453 40.292563 
L 119.477561 40.197756 
L 124.297993 42.646701 
L 125.503101 42.795019 
L 127.913317 44.159398 
L 129.118425 44.252852 
L 130.323533 44.800593 
L 131.528641 44.548288 
L 132.733749 45.04588 
L 133.938857 44.400913 
L 136.349073 45.264213 
L 137.554181 45.102669 
L 138.759289 45.530504 
L 142.374613 47.198483 
L 147.195045 48.623232 
L 148.400153 47.585192 
L 149.605261 47.95893 
L 150.810369 48.464507 
L 152.015477 48.082366 
L 153.220585 47.449621 
L 155.630801 48.336906 
L 156.835909 48.124526 
L 160.451233 49.383289 
L 161.656341 49.553377 
L 162.861449 48.881589 
L 164.066557 49.325703 
L 165.271665 49.623261 
L 166.476773 48.80503 
L 167.681881 48.745898 
L 170.092097 49.4307 
L 171.297205 49.604801 
L 173.707421 49.177394 
L 174.912529 48.368157 
L 177.322745 48.955664 
L 178.527853 48.638254 
L 180.938069 49.329215 
L 184.553393 50.267004 
L 185.758501 49.877748 
L 186.963609 50.173416 
L 188.168717 48.32944 
L 189.373825 48.419473 
L 190.578933 48.730193 
L 191.784041 48.737967 
L 194.194257 49.024992 
L 197.809581 49.941712 
L 199.014689 49.158846 
L 200.219797 47.949276 
L 201.424905 48.23207 
L 202.630013 46.809058 
L 205.040229 47.472072 
L 206.245337 47.219192 
L 208.655553 47.861314 
L 209.860661 47.970227 
L 212.270877 48.617253 
L 213.475985 48.743007 
L 214.681093 49.044717 
L 215.886201 48.882979 
L 217.091309 49.071019 
L 218.296417 49.117782 
L 219.501525 49.305646 
L 221.911741 49.884155 
L 225.527065 50.486725 
L 226.732173 49.696682 
L 231.552605 50.457872 
L 232.757713 50.5091 
L 233.962821 50.752998 
L 235.167929 48.791294 
L 236.373037 48.956036 
L 237.578145 49.24027 
L 238.783253 49.182369 
L 239.988361 48.187571 
L 241.193469 47.983827 
L 243.603685 48.520432 
L 244.808793 48.346144 
L 246.013901 47.775601 
L 247.219009 44.403716 
L 249.629225 44.961502 
L 254.449657 45.368662 
L 255.654765 44.999371 
L 256.859873 44.31447 
L 258.064982 44.098762 
L 260.475198 44.441583 
L 261.680306 44.710891 
L 262.885414 44.394904 
L 264.090522 44.566211 
L 265.29563 44.507375 
L 266.500738 44.173915 
L 267.705846 44.171256 
L 268.910954 44.323775 
L 270.116062 44.592247 
L 271.32117 44.679547 
L 274.936494 45.302522 
L 276.141602 45.24823 
L 277.34671 45.430999 
L 278.551818 45.224182 
L 279.756926 45.132464 
L 280.962034 45.26245 
L 282.167142 45.23108 
L 284.577358 45.651314 
L 286.987574 45.344617 
L 289.39779 45.821458 
L 290.602898 45.515997 
L 291.808006 45.633561 
L 293.013114 45.448756 
L 294.218222 45.613069 
L 295.42333 45.073188 
L 296.628438 45.249227 
L 299.038654 45.028819 
L 300.243762 44.908726 
L 302.653978 45.204445 
L 303.859086 45.435326 
L 305.064194 45.415051 
L 306.269302 45.26688 
L 307.47441 45.488865 
L 308.679518 44.297929 
L 309.884626 44.52791 
L 311.089734 44.305126 
L 312.294842 44.469496 
L 313.49995 44.372351 
L 314.705058 44.474901 
L 315.910166 44.352079 
L 317.115274 44.557224 
L 318.320382 44.412751 
L 319.52549 44.463045 
L 326.756138 45.716408 
L 327.961246 43.523741 
L 330.371462 43.868117 
L 331.57657 43.650848 
L 333.986786 43.952473 
L 337.60211 44.454117 
L 338.807218 43.410535 
L 340.012326 43.292073 
L 341.217434 43.466164 
L 342.422542 43.076628 
L 344.832758 43.260262 
L 347.242974 43.471028 
L 348.448082 43.411426 
L 352.063406 43.99419 
L 353.268514 43.555389 
L 354.473622 43.440463 
L 359.294054 44.211917 
L 360.499162 44.278399 
L 361.70427 43.642307 
L 364.114486 43.957355 
L 365.319594 42.909684 
L 366.524702 43.022691 
L 367.72981 42.915021 
L 368.934918 42.634927 
L 371.345134 42.948232 
L 372.550242 43.014532 
L 373.75535 43.205497 
L 374.960458 43.196174 
L 378.575782 43.680929 
L 379.78089 43.545877 
L 382.191106 43.901111 
L 383.396214 43.58439 
L 384.601322 43.733066 
L 385.80643 43.743291 
L 387.011538 43.329353 
L 389.421754 43.574923 
L 390.626862 42.972494 
L 391.83197 42.802268 
L 394.242186 42.895027 
L 396.652402 42.831086 
L 397.85751 40.828811 
L 399.062618 40.865357 
L 400.267726 41.014507 
L 401.472834 41.050743 
L 405.088158 41.505064 
L 406.293266 41.502701 
L 408.703483 41.142468 
L 415.934131 41.903296 
L 417.139239 41.990009 
L 418.344347 41.945768 
L 420.754563 42.267336 
L 421.959671 42.088413 
L 423.164779 42.246004 
L 425.574995 42.147693 
L 427.985211 42.391234 
L 429.190319 42.255554 
L 435.215859 42.859154 
L 436.420967 42.365012 
L 442.446507 42.67222 
L 443.651615 42.542668 
L 446.061831 42.745185 
L 447.266939 42.313406 
L 449.677155 42.470705 
L 450.882263 42.482538 
L 452.087371 42.347606 
L 456.907803 42.786429 
L 458.112911 42.861431 
L 459.318019 42.367258 
L 460.523127 42.356584 
L 461.728235 41.986344 
L 464.138451 41.969596 
L 465.343559 42.09299 
L 466.548667 42.09132 
L 468.958883 42.371456 
L 471.369099 42.260593 
L 474.984423 42.679465 
L 476.189531 42.693063 
L 478.599747 42.33341 
L 479.804855 42.479042 
L 481.009963 42.396533 
L 482.215071 42.53488 
L 483.420179 42.283419 
L 488.240611 42.447712 
L 490.650827 42.640964 
L 491.855935 42.399058 
L 494.266151 42.512728 
L 496.676367 42.383981 
L 501.496799 42.530269 
L 506.317231 42.677594 
L 507.522339 42.543775 
L 511.137663 42.727072 
L 514.752987 43.048703 
L 515.958095 43.111111 
L 515.958095 43.111111 
" clip-path="url(#p376f673860)" style="fill: none; stroke-dasharray: 5.55,2.4; stroke-dashoffset: 0; stroke: #ff8c00; stroke-width: 1.5"/>
   </g>
   <g id="patch_3">
    <path d="M 35.12 97 
L 35.12 0 
" style="fill: none; stroke: #000000; stroke-width: 0.8; stroke-linejoin: miter; stroke-linecap: square"/>
   </g>
   <g id="patch_4">
    <path d="M 540 97 
L 540 0 
" style="fill: none; stroke: #000000; stroke-width: 0.8; stroke-linejoin: miter; stroke-linecap: square"/>
   </g>
   <g id="patch_5">
    <path d="M 35.12 97 
L 540 97 
" style="fill: none; stroke: #000000; stroke-width: 0.8; stroke-linejoin: miter; stroke-linecap: square"/>
   </g>
   <g id="patch_6">
    <path d="M 35.12 0 
L 540 0 
" style="fill: none; stroke: #000000; stroke-width: 0.8; stroke-linejoin: miter; stroke-linecap: square"/>
   </g>
  </g>
 </g>
 <defs>
  <clipPath id="p376f673860">
   <rect x="35.12" y="0" width="504.88" height="97"/>
  </clipPath>
 </defs>
</svg>
