<?xml version="1.0" encoding="utf-8" standalone="no"?>
<!DOCTYPE svg PUBLIC "-//W3C//DTD SVG 1.1//EN"
  "http://www.w3.org/Graphics/SVG/1.1/DTD/svg11.dtd">
<svg xmlns:xlink="http://www.w3.org/1999/xlink" width="540pt" height="129.6pt" viewBox="0 0 540 129.6" xmlns="http://www.w3.org/2000/svg" version="1.1">
 <metadata>
  <rdf:RDF xmlns:dc="http://purl.org/dc/elements/1.1/" xmlns:cc="http://creativecommons.org/ns#" xmlns:rdf="http://www.w3.org/1999/02/22-rdf-syntax-ns#">
   <cc:Work>
    <dc:type rdf:resource="http://purl.org/dc/dcmitype/StillImage"/>
    <dc:date>2025-04-07T05:20:20.448845</dc:date>
    <dc:format>image/svg+xml</dc:format>
    <dc:creator>
     <cc:Agent>
      <dc:title>Matplotlib v3.10.1, https://matplotlib.org/</dc:title>
     </cc:Agent>
    </dc:creator>
   </cc:Work>
  </rdf:RDF>
 </metadata>
 <defs>
  <style type="text/css">*{stroke-linejoin: round; stroke-linecap: butt}</style>
 </defs>
 <g id="figure_1">
  <g id="patch_1">
   <path d="M 0 129.6 
L 540 129.6 
L 540 0 
L 0 0 
z
" style="fill: #ffffff"/>
  </g>
  <g id="axes_1">
   <g id="patch_2">
    <path d="M 34.31 98.44 
L 540 98.44 
L 540 0 
L 34.31 0 
z
" style="fill: #ffffff"/>
   </g>
   <g id="matplotlib.axis_1">
    <g id="xtick_1">
     <g id="line2d_1">
      <path d="M 34.31 98.44 
L 34.31 0 
" clip-path="url(#pc9c8050ced)" style="fill: none; stroke: #b0b0b0; stroke-width: 0.8; stroke-linecap: square"/>
     </g>
     <g id="line2d_2">
      <defs>
       <path id="m38ba01e493" d="M 0 0 
L 0 3.5 
" style="stroke: #000000; stroke-width: 0.8"/>
      </defs>
      <g>
       <use xlink:href="#m38ba01e493" x="34.31" y="98.44" style="stroke: #000000; stroke-width: 0.8"/>
      </g>
     </g>
     <g id="text_1">
      <text style="font-size: 10px; font-family: 'Times New Roman'; text-anchor: middle" x="34.31" y="112.38375" transform="rotate(-0 34.31 112.38375)">0</text>
     </g>
    </g>
    <g id="xtick_2">
     <g id="line2d_3">
      <path d="M 94.662071 98.44 
L 94.662071 0 
" clip-path="url(#pc9c8050ced)" style="fill: none; stroke: #b0b0b0; stroke-width: 0.8; stroke-linecap: square"/>
     </g>
     <g id="line2d_4">
      <g>
       <use xlink:href="#m38ba01e493" x="94.662071" y="98.44" style="stroke: #000000; stroke-width: 0.8"/>
      </g>
     </g>
     <g id="text_2">
      <text style="font-size: 10px; font-family: 'Times New Roman'; text-anchor: middle" x="94.662071" y="112.38375" transform="rotate(-0 94.662071 112.38375)">50</text>
     </g>
    </g>
    <g id="xtick_3">
     <g id="line2d_5">
      <path d="M 155.014141 98.44 
L 155.014141 0 
" clip-path="url(#pc9c8050ced)" style="fill: none; stroke: #b0b0b0; stroke-width: 0.8; stroke-linecap: square"/>
     </g>
     <g id="line2d_6">
      <g>
       <use xlink:href="#m38ba01e493" x="155.014141" y="98.44" style="stroke: #000000; stroke-width: 0.8"/>
      </g>
     </g>
     <g id="text_3">
      <text style="font-size: 10px; font-family: 'Times New Roman'; text-anchor: middle" x="155.014141" y="112.38375" transform="rotate(-0 155.014141 112.38375)">100</text>
     </g>
    </g>
    <g id="xtick_4">
     <g id="line2d_7">
      <path d="M 215.366212 98.44 
L 215.366212 0 
" clip-path="url(#pc9c8050ced)" style="fill: none; stroke: #b0b0b0; stroke-width: 0.8; stroke-linecap: square"/>
     </g>
     <g id="line2d_8">
      <g>
       <use xlink:href="#m38ba01e493" x="215.366212" y="98.44" style="stroke: #000000; stroke-width: 0.8"/>
      </g>
     </g>
     <g id="text_4">
      <text style="font-size: 10px; font-family: 'Times New Roman'; text-anchor: middle" x="215.366212" y="112.38375" transform="rotate(-0 215.366212 112.38375)">150</text>
     </g>
    </g>
    <g id="xtick_5">
     <g id="line2d_9">
      <path d="M 275.718283 98.44 
L 275.718283 0 
" clip-path="url(#pc9c8050ced)" style="fill: none; stroke: #b0b0b0; stroke-width: 0.8; stroke-linecap: square"/>
     </g>
     <g id="line2d_10">
      <g>
       <use xlink:href="#m38ba01e493" x="275.718283" y="98.44" style="stroke: #000000; stroke-width: 0.8"/>
      </g>
     </g>
     <g id="text_5">
      <text style="font-size: 10px; font-family: 'Times New Roman'; text-anchor: middle" x="275.718283" y="112.38375" transform="rotate(-0 275.718283 112.38375)">200</text>
     </g>
    </g>
    <g id="xtick_6">
     <g id="line2d_11">
      <path d="M 336.070353 98.44 
L 336.070353 0 
" clip-path="url(#pc9c8050ced)" style="fill: none; stroke: #b0b0b0; stroke-width: 0.8; stroke-linecap: square"/>
     </g>
     <g id="line2d_12">
      <g>
       <use xlink:href="#m38ba01e493" x="336.070353" y="98.44" style="stroke: #000000; stroke-width: 0.8"/>
      </g>
     </g>
     <g id="text_6">
      <text style="font-size: 10px; font-family: 'Times New Roman'; text-anchor: middle" x="336.070353" y="112.38375" transform="rotate(-0 336.070353 112.38375)">250</text>
     </g>
    </g>
    <g id="xtick_7">
     <g id="line2d_13">
      <path d="M 396.422424 98.44 
L 396.422424 0 
" clip-path="url(#pc9c8050ced)" style="fill: none; stroke: #b0b0b0; stroke-width: 0.8; stroke-linecap: square"/>
     </g>
     <g id="line2d_14">
      <g>
       <use xlink:href="#m38ba01e493" x="396.422424" y="98.44" style="stroke: #000000; stroke-width: 0.8"/>
      </g>
     </g>
     <g id="text_7">
      <text style="font-size: 10px; font-family: 'Times New Roman'; text-anchor: middle" x="396.422424" y="112.38375" transform="rotate(-0 396.422424 112.38375)">300</text>
     </g>
    </g>
    <g id="xtick_8">
     <g id="line2d_15">
      <path d="M 456.774495 98.44 
L 456.774495 0 
" clip-path="url(#pc9c8050ced)" style="fill: none; stroke: #b0b0b0; stroke-width: 0.8; stroke-linecap: square"/>
     </g>
     <g id="line2d_16">
      <g>
       <use xlink:href="#m38ba01e493" x="456.774495" y="98.44" style="stroke: #000000; stroke-width: 0.8"/>
      </g>
     </g>
     <g id="text_8">
      <text style="font-size: 10px; font-family: 'Times New Roman'; text-anchor: middle" x="456.774495" y="112.38375" transform="rotate(-0 456.774495 112.38375)">350</text>
     </g>
    </g>
    <g id="xtick_9">
     <g id="line2d_17">
      <path d="M 517.126565 98.44 
L 517.126565 0 
" clip-path="url(#pc9c8050ced)" style="fill: none; stroke: #b0b0b0; stroke-width: 0.8; stroke-linecap: square"/>
     </g>
     <g id="line2d_18">
      <g>
       <use xlink:href="#m38ba01e493" x="517.126565" y="98.44" style="stroke: #000000; stroke-width: 0.8"/>
      </g>
     </g>
     <g id="text_9">
      <text style="font-size: 10px; font-family: 'Times New Roman'; text-anchor: middle" x="517.126565" y="112.38375" transform="rotate(-0 517.126565 112.38375)">400</text>
     </g>
    </g>
    <g id="text_10">
     <text style="font-size: 12px; font-family: 'Times New Roman'; text-anchor: middle" x="287.155" y="126.855312" transform="rotate(-0 287.155 126.855312)">Simulation Run</text>
    </g>
   </g>
   <g id="matplotlib.axis_2">
    <g id="ytick_1">
     <g id="line2d_19">
      <path d="M 34.31 98.44 
L 540 98.44 
" clip-path="url(#pc9c8050ced)" style="fill: none; stroke: #b0b0b0; stroke-width: 0.8; stroke-linecap: square"/>
     </g>
     <g id="line2d_20">
      <defs>
       <path id="mb5537c093e" d="M 0 0 
L -3.5 0 
" style="stroke: #000000; stroke-width: 0.8"/>
      </defs>
      <g>
       <use xlink:href="#mb5537c093e" x="34.31" y="98.44" style="stroke: #000000; stroke-width: 0.8"/>
      </g>
     </g>
     <g id="text_11">
      <text style="font-size: 10px; font-family: 'Times New Roman'; text-anchor: end" x="27.31" y="101.911875" transform="rotate(-0 27.31 101.911875)">0.0</text>
     </g>
    </g>
    <g id="ytick_2">
     <g id="line2d_21">
      <path d="M 34.31 67.6775 
L 540 67.6775 
" clip-path="url(#pc9c8050ced)" style="fill: none; stroke: #b0b0b0; stroke-width: 0.8; stroke-linecap: square"/>
     </g>
     <g id="line2d_22">
      <g>
       <use xlink:href="#mb5537c093e" x="34.31" y="67.6775" style="stroke: #000000; stroke-width: 0.8"/>
      </g>
     </g>
     <g id="text_12">
      <text style="font-size: 10px; font-family: 'Times New Roman'; text-anchor: end" x="27.31" y="71.149375" transform="rotate(-0 27.31 71.149375)">0.5</text>
     </g>
    </g>
    <g id="ytick_3">
     <g id="line2d_23">
      <path d="M 34.31 36.915 
L 540 36.915 
" clip-path="url(#pc9c8050ced)" style="fill: none; stroke: #b0b0b0; stroke-width: 0.8; stroke-linecap: square"/>
     </g>
     <g id="line2d_24">
      <g>
       <use xlink:href="#mb5537c093e" x="34.31" y="36.915" style="stroke: #000000; stroke-width: 0.8"/>
      </g>
     </g>
     <g id="text_13">
      <text style="font-size: 10px; font-family: 'Times New Roman'; text-anchor: end" x="27.31" y="40.386875" transform="rotate(-0 27.31 40.386875)">1.0</text>
     </g>
    </g>
    <g id="ytick_4">
     <g id="line2d_25">
      <path d="M 34.31 6.1525 
L 540 6.1525 
" clip-path="url(#pc9c8050ced)" style="fill: none; stroke: #b0b0b0; stroke-width: 0.8; stroke-linecap: square"/>
     </g>
     <g id="line2d_26">
      <g>
       <use xlink:href="#mb5537c093e" x="34.31" y="6.1525" style="stroke: #000000; stroke-width: 0.8"/>
      </g>
     </g>
     <g id="text_14">
      <text style="font-size: 10px; font-family: 'Times New Roman'; text-anchor: end" x="27.31" y="9.624375" transform="rotate(-0 27.31 9.624375)">1.5</text>
     </g>
    </g>
    <g id="text_15">
     <text style="font-size: 12px; font-family: 'Times New Roman'; text-anchor: middle" x="8.243125" y="49.22" transform="rotate(-90 8.243125 49.22)">Normalized Value</text>
    </g>
   </g>
   <g id="line2d_27">
    <path d="M 34.31 9.716035 
L 35.517041 25.12075 
L 36.724083 36.626711 
L 37.931124 38.2714 
L 39.138166 37.532683 
L 40.345207 36.244369 
L 41.552248 37.089323 
L 42.75929 36.331034 
L 43.966331 38.97255 
L 45.173373 38.580846 
L 46.380414 40.421003 
L 47.587456 41.740114 
L 48.794497 41.740113 
L 50.001538 43.309926 
L 51.20858 43.439361 
L 53.622663 42.989177 
L 54.829704 44.020948 
L 56.036745 42.558828 
L 57.243787 42.925777 
L 58.450828 43.679358 
L 59.65787 42.682974 
L 60.864911 42.069618 
L 62.071953 42.133865 
L 63.278994 41.575299 
L 64.486035 40.571715 
L 65.693077 40.721233 
L 66.900118 41.379785 
L 68.10716 41.587014 
L 69.314201 42.136297 
L 70.521242 41.909537 
L 71.728284 41.454634 
L 72.935325 40.572291 
L 74.142367 40.783332 
L 75.349408 41.312054 
L 76.556449 41.469718 
L 77.763491 41.441115 
L 78.970532 41.636365 
L 80.177574 41.35384 
L 81.384615 41.311279 
L 82.591657 40.375523 
L 83.798698 40.717345 
L 85.005739 40.870088 
L 87.419822 40.891251 
L 88.626864 40.346514 
L 89.833905 40.397407 
L 91.040946 40.25931 
L 93.455029 40.557729 
L 94.662071 40.405033 
L 95.869112 40.672986 
L 97.076153 40.776908 
L 99.490236 41.343771 
L 100.697278 40.939167 
L 104.318402 41.134129 
L 105.525443 41.524872 
L 106.732485 41.243871 
L 107.939526 41.204221 
L 109.146568 41.335048 
L 110.353609 41.236828 
L 111.56065 41.272597 
L 113.974733 41.784902 
L 115.181775 41.512658 
L 116.388816 41.616459 
L 117.595858 41.966219 
L 118.802899 41.295284 
L 120.00994 41.401834 
L 124.838106 41.085549 
L 126.045147 41.31579 
L 128.45923 41.311286 
L 129.666272 41.548321 
L 130.873313 40.995538 
L 132.080354 40.839921 
L 133.287396 40.904299 
L 135.701479 40.692479 
L 138.115562 40.470951 
L 139.322603 40.226015 
L 142.943727 40.131643 
L 145.35781 39.764181 
L 146.564851 40.036369 
L 147.771893 38.691192 
L 148.978934 38.721882 
L 150.185976 38.638375 
L 151.393017 38.734872 
L 152.600058 38.575316 
L 153.8071 38.59241 
L 155.014141 38.800151 
L 157.428224 38.748249 
L 158.635266 38.588837 
L 161.049348 38.814929 
L 162.25639 38.413297 
L 167.084555 38.07792 
L 169.498638 38.184086 
L 170.70568 38.100343 
L 171.912721 38.297255 
L 173.119763 38.245105 
L 179.15497 38.621981 
L 181.569052 38.820685 
L 183.983135 38.847373 
L 185.190177 38.638823 
L 190.018342 38.475515 
L 193.639467 38.804638 
L 194.846508 38.720139 
L 196.053549 38.771906 
L 197.260591 38.68749 
L 198.467632 38.857763 
L 200.881715 38.982762 
L 202.088756 38.772349 
L 203.295798 38.86775 
L 208.123963 38.668437 
L 214.159171 38.358619 
L 215.366212 38.382267 
L 217.780295 38.237449 
L 220.194378 38.203074 
L 221.401419 37.838893 
L 222.60846 37.935353 
L 223.815502 37.674152 
L 227.436626 37.312633 
L 228.643668 37.485635 
L 231.05775 37.162566 
L 233.471833 37.260245 
L 235.885916 36.847321 
L 237.092957 36.98596 
L 238.299999 36.919059 
L 239.50704 37.095162 
L 241.921123 36.843545 
L 243.128164 36.989949 
L 250.370413 37.06143 
L 252.784496 37.244172 
L 258.819703 37.150604 
L 261.233786 37.437211 
L 262.440827 37.325925 
L 267.268993 37.343792 
L 274.511241 37.41763 
L 275.718283 37.563842 
L 278.132365 37.529608 
L 280.546448 37.638122 
L 281.75349 37.488923 
L 285.374614 37.661057 
L 293.823904 37.526085 
L 296.237987 37.533033 
L 299.859111 37.479829 
L 301.066152 37.36865 
L 302.273194 37.377038 
L 303.480235 37.235592 
L 304.687277 37.340838 
L 305.894318 37.280964 
L 309.515442 37.51877 
L 313.136566 37.72382 
L 315.550649 37.577004 
L 319.171773 37.586508 
L 321.585856 37.690304 
L 322.792898 37.548187 
L 325.206981 37.618532 
L 326.414022 37.697118 
L 333.65627 37.505792 
L 339.691478 37.845494 
L 340.898519 37.743166 
L 349.347809 37.957561 
L 350.55485 38.066361 
L 351.761892 37.993829 
L 354.175974 38.129299 
L 356.590057 38.084975 
L 359.00414 38.142986 
L 361.418223 38.305013 
L 363.832306 38.140009 
L 365.039347 38.015884 
L 367.45343 38.154112 
L 374.695678 38.284651 
L 377.109761 38.343478 
L 381.937927 38.319641 
L 383.144968 38.195058 
L 386.766093 38.237356 
L 392.8013 38.077334 
L 395.215383 38.128432 
L 396.422424 36.627143 
L 401.25059 36.75625 
L 403.664672 36.696918 
L 412.113962 37.019262 
L 415.735087 37.050571 
L 419.356211 36.931864 
L 422.977335 37.030325 
L 429.012542 37.185167 
L 430.219583 37.035972 
L 431.426625 37.082907 
L 436.254791 36.817989 
L 441.082956 37.002318 
L 443.497039 36.952227 
L 448.325205 36.938734 
L 453.15337 36.872976 
L 455.567453 36.89918 
L 461.60266 36.757214 
L 497.813903 37.000912 
L 501.435027 36.942877 
L 506.263193 36.99993 
L 508.677275 36.954241 
L 511.091358 36.976823 
L 515.919524 36.915 
L 515.919524 36.915 
" clip-path="url(#pc9c8050ced)" style="fill: none; stroke: #4169e1; stroke-width: 1.5; stroke-linecap: square"/>
   </g>
   <g id="line2d_28">
    <path d="M 34.31 98.44 
L 35.517041 80.352089 
L 36.724083 66.199734 
L 37.931124 73.641258 
L 39.138166 78.434628 
L 40.345207 81.136307 
L 41.552248 83.281751 
L 42.75929 84.869737 
L 43.966331 82.12276 
L 45.173373 83.64923 
L 46.380414 82.412829 
L 47.587456 82.289489 
L 48.794497 83.531836 
L 50.001538 82.154847 
L 51.20858 83.222647 
L 53.622663 84.897 
L 54.829704 84.269966 
L 56.036745 82.082705 
L 57.243787 82.705564 
L 58.450828 82.589117 
L 59.65787 81.720504 
L 60.864911 81.816585 
L 62.071953 82.501991 
L 63.278994 82.568766 
L 64.486035 81.259962 
L 65.693077 81.851956 
L 66.900118 81.551852 
L 68.10716 82.04255 
L 69.314201 81.922216 
L 70.521242 82.337467 
L 71.728284 82.351705 
L 72.935325 80.94031 
L 74.142367 81.342977 
L 75.349408 81.107002 
L 78.970532 82.302872 
L 80.177574 82.485449 
L 81.384615 82.878928 
L 82.591657 80.588743 
L 83.798698 80.648627 
L 87.419822 81.76243 
L 88.626864 81.107175 
L 91.040946 81.752165 
L 94.662071 82.484927 
L 95.869112 82.51265 
L 97.076153 82.77036 
L 99.490236 82.691107 
L 100.697278 82.286053 
L 103.111361 82.830654 
L 104.318402 82.908586 
L 105.525443 82.480825 
L 106.732485 82.381334 
L 109.146568 82.803054 
L 111.56065 83.232336 
L 115.181775 82.883324 
L 116.388816 83.052937 
L 117.595858 82.629368 
L 118.802899 80.450228 
L 122.424023 81.09602 
L 123.631065 81.068425 
L 124.838106 81.294881 
L 126.045147 81.21046 
L 128.45923 81.643837 
L 129.666272 81.515464 
L 130.873313 79.861116 
L 132.080354 79.938175 
L 134.494437 80.331851 
L 136.90852 80.528913 
L 138.115562 80.648874 
L 139.322603 80.453207 
L 142.943727 81.024365 
L 144.150769 80.836261 
L 145.35781 80.899256 
L 146.564851 80.560686 
L 147.771893 67.784022 
L 150.185976 68.358329 
L 151.393017 68.596439 
L 152.600058 68.707723 
L 153.8071 69.002841 
L 155.014141 68.965349 
L 157.428224 69.526516 
L 159.842307 69.763351 
L 161.049348 69.945693 
L 162.25639 68.908696 
L 164.670473 69.387359 
L 165.877514 69.173217 
L 169.498638 69.90055 
L 170.70568 70.090494 
L 171.912721 70.000088 
L 176.740887 70.782955 
L 177.947928 70.844444 
L 179.15497 71.037347 
L 180.362011 71.09264 
L 183.983135 71.684236 
L 185.190177 71.482191 
L 190.018342 72.212572 
L 192.432425 72.479091 
L 193.639467 72.372538 
L 197.260591 72.775739 
L 198.467632 72.662521 
L 199.674674 72.846256 
L 200.881715 72.907956 
L 202.088756 72.621256 
L 204.502839 72.879175 
L 206.916922 73.201482 
L 208.123963 72.883969 
L 211.745088 73.260749 
L 212.952129 73.201424 
L 215.366212 73.521981 
L 217.780295 73.706977 
L 220.194378 74.013017 
L 221.401419 72.602672 
L 222.60846 72.656603 
L 223.815502 72.003336 
L 225.022543 71.924875 
L 226.229585 71.524397 
L 227.436626 71.691478 
L 231.05775 71.173566 
L 232.264792 71.338682 
L 233.471833 71.373743 
L 234.678875 70.875321 
L 235.885916 70.606338 
L 237.092957 70.524907 
L 238.299999 70.631459 
L 239.50704 70.392231 
L 240.714082 70.451725 
L 243.128164 70.146697 
L 246.749289 70.540146 
L 250.370413 70.971647 
L 251.577454 70.910083 
L 258.819703 71.626303 
L 262.440827 71.288231 
L 270.890117 72.147969 
L 273.3042 72.322196 
L 274.511241 72.429929 
L 275.718283 72.233437 
L 280.546448 72.583737 
L 281.75349 72.361426 
L 285.374614 72.447836 
L 286.581655 72.557312 
L 287.788697 72.400754 
L 297.445028 73.228081 
L 298.652069 73.186277 
L 299.859111 73.271443 
L 301.066152 73.176595 
L 302.273194 73.288693 
L 303.480235 73.060903 
L 304.687277 72.984575 
L 305.894318 73.035728 
L 307.101359 72.950815 
L 310.722484 73.047536 
L 311.929525 73.002913 
L 313.136566 73.083839 
L 314.343608 72.930737 
L 317.964732 73.168107 
L 320.378815 73.118074 
L 321.585856 73.209454 
L 322.792898 72.946646 
L 325.206981 73.078683 
L 327.621063 73.133556 
L 333.65627 73.511886 
L 336.070353 73.412632 
L 337.277395 73.327571 
L 339.691478 73.473525 
L 340.898519 73.368709 
L 342.10556 73.457817 
L 344.519643 73.48746 
L 346.933726 73.535108 
L 356.590057 73.524331 
L 359.00414 73.642892 
L 363.832306 73.425436 
L 365.039347 73.194627 
L 366.246389 73.122092 
L 373.488637 73.321005 
L 375.90272 73.166533 
L 381.937927 73.549474 
L 383.144968 73.293402 
L 385.559051 73.351284 
L 394.008341 73.583761 
L 395.215383 73.666487 
L 396.422424 22.210405 
L 407.285797 23.964897 
L 409.699879 24.169794 
L 416.942128 25.449681 
L 421.770294 26.162122 
L 424.184376 26.565758 
L 425.391418 26.655235 
L 429.012542 27.259651 
L 430.219583 26.919508 
L 431.426625 27.080995 
L 433.840708 27.206353 
L 436.254791 27.462737 
L 437.461832 27.543467 
L 439.875915 27.936668 
L 443.497039 28.245263 
L 449.532246 29.146338 
L 450.739288 29.22327 
L 455.567453 29.922752 
L 482.122364 33.211512 
L 484.536447 33.480701 
L 488.157571 33.890573 
L 501.435027 35.419518 
L 508.677275 36.1806 
L 511.091358 36.348201 
L 515.919524 36.915 
L 515.919524 36.915 
" clip-path="url(#pc9c8050ced)" style="fill: none; stroke-dasharray: 5.55,2.4; stroke-dashoffset: 0; stroke: #4169e1; stroke-width: 1.5"/>
   </g>
   <g id="line2d_29">
    <path d="M 34.31 14.947089 
L 35.517041 27.800473 
L 36.724083 36.513152 
L 37.931124 35.632944 
L 39.138166 35.339618 
L 40.345207 33.989187 
L 41.552248 34.260665 
L 42.75929 33.492282 
L 43.966331 35.854706 
L 45.173373 35.013104 
L 46.380414 37.005869 
L 47.587456 37.879006 
L 48.794497 37.653301 
L 50.001538 38.872783 
L 51.20858 39.240472 
L 53.622663 39.344514 
L 54.829704 40.422688 
L 56.036745 39.153491 
L 57.243787 39.350206 
L 58.450828 40.085332 
L 59.65787 39.319271 
L 60.864911 38.730495 
L 62.071953 38.690513 
L 63.278994 38.475192 
L 64.486035 38.049465 
L 68.10716 38.932873 
L 69.314201 39.423525 
L 70.521242 39.098281 
L 72.935325 38.122355 
L 74.142367 38.420009 
L 75.349408 38.865076 
L 76.556449 39.143693 
L 77.763491 39.021048 
L 78.970532 39.114193 
L 80.177574 38.91422 
L 81.384615 38.88644 
L 82.591657 38.143251 
L 83.798698 38.32933 
L 85.005739 38.293235 
L 86.212781 38.380176 
L 87.419822 38.281076 
L 88.626864 37.920739 
L 91.040946 37.78691 
L 97.076153 38.202904 
L 99.490236 38.698715 
L 100.697278 38.420026 
L 104.318402 38.738557 
L 105.525443 39.139841 
L 106.732485 38.861719 
L 107.939526 38.896799 
L 109.146568 39.112045 
L 111.56065 39.066565 
L 113.974733 39.414482 
L 115.181775 39.254874 
L 116.388816 39.315661 
L 117.595858 39.561827 
L 118.802899 39.124213 
L 120.00994 39.205958 
L 122.424023 39.122784 
L 123.631065 38.928053 
L 128.45923 39.121807 
L 129.666272 39.331097 
L 130.873313 38.907431 
L 132.080354 38.744673 
L 134.494437 38.765218 
L 145.35781 37.959742 
L 146.564851 38.16883 
L 147.771893 37.57976 
L 148.978934 37.63438 
L 150.185976 37.524038 
L 151.393017 37.596668 
L 153.8071 37.520173 
L 155.014141 37.734927 
L 157.428224 37.867701 
L 158.635266 37.706523 
L 159.842307 37.850556 
L 161.049348 37.86131 
L 162.25639 37.611564 
L 168.291597 37.361483 
L 169.498638 37.388885 
L 170.70568 37.298374 
L 171.912721 37.461663 
L 176.740887 37.554255 
L 180.362011 37.766285 
L 183.983135 37.800694 
L 186.397218 37.570835 
L 192.432425 37.611997 
L 194.846508 37.743544 
L 196.053549 37.761017 
L 197.260591 37.649557 
L 199.674674 37.768286 
L 200.881715 37.817486 
L 202.088756 37.751193 
L 205.709881 37.852422 
L 209.331005 37.670964 
L 214.159171 37.552119 
L 216.573253 37.53566 
L 227.436626 36.769924 
L 228.643668 36.925108 
L 232.264792 36.761721 
L 233.471833 36.822796 
L 235.885916 36.517212 
L 237.092957 36.5912 
L 238.299999 36.545316 
L 239.50704 36.687239 
L 244.335206 36.631698 
L 246.749289 36.677377 
L 250.370413 36.644921 
L 252.784496 36.769046 
L 258.819703 36.612598 
L 261.233786 36.832854 
L 263.647868 36.738831 
L 267.268993 36.750597 
L 272.097158 36.889173 
L 274.511241 36.794574 
L 275.718283 36.909129 
L 278.132365 36.848829 
L 286.581655 36.932126 
L 287.788697 36.795099 
L 299.859111 36.815605 
L 303.480235 36.633045 
L 304.687277 36.72584 
L 305.894318 36.691899 
L 310.722484 36.906342 
L 313.136566 36.99711 
L 315.550649 36.907378 
L 319.171773 36.925758 
L 321.585856 37.006176 
L 322.792898 36.895873 
L 330.035146 36.85497 
L 333.65627 36.750472 
L 344.519643 37.01502 
L 346.933726 37.060058 
L 354.175974 37.289599 
L 359.00414 37.323307 
L 362.625264 37.427626 
L 365.039347 37.247482 
L 368.660471 37.382585 
L 369.867513 37.32798 
L 372.281596 37.397265 
L 374.695678 37.460512 
L 378.316803 37.559934 
L 395.215383 37.402093 
L 396.422424 36.693518 
L 401.25059 36.799668 
L 403.664672 36.745482 
L 413.321004 37.056964 
L 432.633666 36.980962 
L 436.254791 36.850969 
L 441.082956 37.032526 
L 444.70408 37.015414 
L 448.325205 37.035943 
L 451.946329 36.936068 
L 456.774495 36.957438 
L 484.536447 36.970471 
L 489.364613 37.013721 
L 492.985737 37.004318 
L 495.39982 37.041393 
L 508.677275 36.934616 
L 511.091358 36.93559 
L 515.919524 36.915 
L 515.919524 36.915 
" clip-path="url(#pc9c8050ced)" style="fill: none; stroke: #ff8c00; stroke-width: 1.5; stroke-linecap: square"/>
   </g>
   <g id="line2d_30">
    <path d="M 34.31 98.44 
L 35.517041 60.928437 
L 36.724083 38.960512 
L 37.931124 53.302642 
L 39.138166 62.25197 
L 40.345207 66.212954 
L 41.552248 70.716414 
L 42.75929 73.24347 
L 43.966331 65.905463 
L 45.173373 67.711525 
L 46.380414 61.488432 
L 47.587456 62.663639 
L 48.794497 65.276866 
L 50.001538 63.256073 
L 53.622663 69.067096 
L 54.829704 66.211916 
L 56.036745 61.324567 
L 57.243787 63.013399 
L 58.450828 62.246326 
L 59.65787 61.093308 
L 60.864911 60.985457 
L 62.071953 62.537714 
L 63.278994 63.721159 
L 64.486035 64.027693 
L 65.693077 64.879808 
L 66.900118 65.320987 
L 68.10716 66.018516 
L 69.314201 65.514068 
L 70.521242 65.855637 
L 71.728284 65.493727 
L 72.935325 64.427103 
L 74.142367 64.763634 
L 75.349408 64.196632 
L 76.556449 64.530939 
L 78.970532 66.123025 
L 80.177574 66.606637 
L 81.384615 67.395638 
L 82.591657 63.136457 
L 83.798698 63.65468 
L 86.212781 65.149892 
L 87.419822 65.79156 
L 88.626864 65.174647 
L 92.247988 67.043536 
L 93.455029 67.514344 
L 94.662071 68.11989 
L 95.869112 68.191226 
L 97.076153 68.758652 
L 98.283195 68.739873 
L 100.697278 67.896859 
L 103.111361 68.84649 
L 104.318402 68.82819 
L 105.525443 67.164544 
L 106.732485 66.623475 
L 107.939526 67.119601 
L 109.146568 66.964534 
L 111.56065 67.906186 
L 112.767692 68.0733 
L 113.974733 67.888062 
L 115.181775 67.94982 
L 116.388816 68.334657 
L 117.595858 67.815361 
L 118.802899 65.202932 
L 121.216982 65.970361 
L 122.424023 66.388077 
L 123.631065 66.178302 
L 124.838106 66.563715 
L 126.045147 66.667799 
L 128.45923 67.422535 
L 129.666272 67.024553 
L 130.873313 64.152013 
L 132.080354 64.082969 
L 135.701479 65.03405 
L 138.115562 65.481301 
L 139.322603 65.340512 
L 141.736686 66.017189 
L 142.943727 66.155018 
L 144.150769 65.903108 
L 145.35781 66.160701 
L 146.564851 65.580952 
L 147.771893 58.520701 
L 148.978934 58.872176 
L 150.185976 59.014702 
L 153.8071 59.912412 
L 155.014141 59.246711 
L 157.428224 59.793364 
L 158.635266 59.557421 
L 159.842307 59.437856 
L 161.049348 59.803043 
L 162.25639 58.662957 
L 164.670473 59.2305 
L 165.877514 59.04009 
L 169.498638 60.039301 
L 170.70568 60.165959 
L 171.912721 59.808621 
L 175.533845 60.73715 
L 176.740887 60.966741 
L 177.947928 61.041506 
L 179.15497 61.323874 
L 180.362011 61.420336 
L 183.983135 62.1808 
L 185.190177 61.793476 
L 186.397218 61.918389 
L 188.811301 62.480016 
L 191.225384 62.652485 
L 192.432425 62.883019 
L 193.639467 62.713249 
L 196.053549 63.229761 
L 198.467632 62.990854 
L 200.881715 63.422811 
L 203.295798 63.70245 
L 204.502839 63.94313 
L 206.916922 64.279357 
L 208.123963 64.034951 
L 216.573253 65.332747 
L 218.987336 65.255713 
L 220.194378 65.468272 
L 221.401419 64.29177 
L 222.60846 64.45242 
L 223.815502 63.716009 
L 225.022543 63.502064 
L 226.229585 63.028973 
L 227.436626 63.214274 
L 228.643668 62.551378 
L 232.264792 62.71452 
L 233.471833 62.789985 
L 235.885916 61.454391 
L 237.092957 61.464423 
L 238.299999 61.601139 
L 239.50704 61.039096 
L 240.714082 61.190958 
L 241.921123 60.765385 
L 243.128164 60.538436 
L 245.542247 60.854772 
L 250.370413 61.673016 
L 251.577454 61.486825 
L 255.198579 62.024679 
L 257.612661 61.998472 
L 258.819703 62.191661 
L 262.440827 61.336844 
L 267.268993 62.044897 
L 268.476034 62.096076 
L 269.683076 62.276862 
L 274.511241 62.601693 
L 275.718283 62.184069 
L 276.925324 62.224094 
L 279.339407 62.543348 
L 280.546448 62.451988 
L 281.75349 61.947174 
L 284.167573 61.68268 
L 286.581655 61.942766 
L 287.788697 61.220454 
L 293.823904 62.051196 
L 295.030945 62.036161 
L 299.859111 62.40652 
L 301.066152 62.109279 
L 302.273194 62.27219 
L 304.687277 61.778714 
L 305.894318 61.882079 
L 307.101359 61.711935 
L 310.722484 61.8807 
L 311.929525 61.74312 
L 313.136566 61.888693 
L 314.343608 61.53848 
L 317.964732 61.901564 
L 319.171773 61.758417 
L 321.585856 61.883599 
L 322.792898 61.375669 
L 325.206981 61.568149 
L 331.242188 61.704811 
L 332.449229 61.662925 
L 334.863312 61.870375 
L 336.070353 61.519497 
L 337.277395 61.298024 
L 339.691478 61.549714 
L 340.898519 61.364833 
L 342.10556 61.464367 
L 343.312602 61.177765 
L 345.726685 61.437272 
L 348.140767 61.344167 
L 349.347809 61.394694 
L 350.55485 61.023466 
L 352.968933 60.777295 
L 354.175974 60.743166 
L 359.00414 61.248338 
L 361.418223 61.004588 
L 362.625264 61.10179 
L 363.832306 60.539236 
L 366.246389 60.213786 
L 367.45343 60.192438 
L 368.660471 60.304792 
L 372.281596 60.234234 
L 373.488637 60.355948 
L 374.695678 60.101601 
L 375.90272 59.993489 
L 380.730886 60.425203 
L 381.937927 60.526598 
L 383.144968 60.383016 
L 385.559051 60.480561 
L 386.766093 60.334556 
L 390.387217 60.407742 
L 395.215383 60.802373 
L 396.422424 26.727724 
L 397.629465 26.770311 
L 401.25059 27.387999 
L 402.457631 27.344451 
L 403.664672 27.570511 
L 404.871714 27.626734 
L 406.078755 27.821974 
L 409.699879 27.352779 
L 415.735087 28.376235 
L 421.770294 29.036154 
L 424.184376 29.402327 
L 425.391418 29.431437 
L 429.012542 29.974406 
L 430.219583 29.51486 
L 431.426625 29.65227 
L 433.840708 29.34116 
L 436.254791 29.60289 
L 437.461832 29.563883 
L 438.668873 29.752713 
L 439.875915 29.814436 
L 441.082956 29.673526 
L 443.497039 29.961275 
L 448.325205 30.69443 
L 449.532246 30.581017 
L 451.946329 30.879566 
L 456.774495 31.528148 
L 460.395619 31.991361 
L 461.60266 32.012922 
L 464.016743 32.276227 
L 465.223784 32.040928 
L 470.05195 32.677138 
L 472.466033 33.02412 
L 474.880116 33.227448 
L 479.708281 33.842368 
L 480.915323 33.850119 
L 484.536447 34.213137 
L 491.778696 34.932638 
L 492.985737 35.095502 
L 494.192778 35.087132 
L 499.020944 35.631025 
L 505.056151 36.150699 
L 506.263193 36.307246 
L 507.470234 36.204734 
L 508.677275 36.361294 
L 511.091358 36.358155 
L 515.919524 36.915 
L 515.919524 36.915 
" clip-path="url(#pc9c8050ced)" style="fill: none; stroke-dasharray: 5.55,2.4; stroke-dashoffset: 0; stroke: #ff8c00; stroke-width: 1.5"/>
   </g>
   <g id="patch_3">
    <path d="M 34.31 98.44 
L 34.31 0 
" style="fill: none; stroke: #000000; stroke-width: 0.8; stroke-linejoin: miter; stroke-linecap: square"/>
   </g>
   <g id="patch_4">
    <path d="M 540 98.44 
L 540 0 
" style="fill: none; stroke: #000000; stroke-width: 0.8; stroke-linejoin: miter; stroke-linecap: square"/>
   </g>
   <g id="patch_5">
    <path d="M 34.31 98.44 
L 540 98.44 
" style="fill: none; stroke: #000000; stroke-width: 0.8; stroke-linejoin: miter; stroke-linecap: square"/>
   </g>
   <g id="patch_6">
    <path d="M 34.31 0 
L 540 0 
" style="fill: none; stroke: #000000; stroke-width: 0.8; stroke-linejoin: miter; stroke-linecap: square"/>
   </g>
  </g>
 </g>
 <defs>
  <clipPath id="pc9c8050ced">
   <rect x="34.31" y="0" width="505.69" height="98.44"/>
  </clipPath>
 </defs>
</svg>
