<?xml version="1.0" encoding="utf-8" standalone="no"?>
<!DOCTYPE svg PUBLIC "-//W3C//DTD SVG 1.1//EN"
  "http://www.w3.org/Graphics/SVG/1.1/DTD/svg11.dtd">
<svg xmlns:xlink="http://www.w3.org/1999/xlink" width="540pt" height="129.6pt" viewBox="0 0 540 129.6" xmlns="http://www.w3.org/2000/svg" version="1.1">
 <metadata>
  <rdf:RDF xmlns:dc="http://purl.org/dc/elements/1.1/" xmlns:cc="http://creativecommons.org/ns#" xmlns:rdf="http://www.w3.org/1999/02/22-rdf-syntax-ns#">
   <cc:Work>
    <dc:type rdf:resource="http://purl.org/dc/dcmitype/StillImage"/>
    <dc:date>2025-03-29T17:31:13.643842</dc:date>
    <dc:format>image/svg+xml</dc:format>
    <dc:creator>
     <cc:Agent>
      <dc:title>Matplotlib v3.8.3, https://matplotlib.org/</dc:title>
     </cc:Agent>
    </dc:creator>
   </cc:Work>
  </rdf:RDF>
 </metadata>
 <defs>
  <style type="text/css">*{stroke-linejoin: round; stroke-linecap: butt}</style>
 </defs>
 <g id="figure_1">
  <g id="patch_1">
   <path d="M 0 129.6 
L 540 129.6 
L 540 0 
L 0 0 
z
" style="fill: #ffffff"/>
  </g>
  <g id="axes_1">
   <g id="patch_2">
    <path d="M 35.12 97 
L 540 97 
L 540 3.96 
L 35.12 3.96 
z
" style="fill: #ffffff"/>
   </g>
   <g id="matplotlib.axis_1">
    <g id="xtick_1">
     <g id="line2d_1">
      <path d="M 35.12 97 
L 35.12 3.96 
" clip-path="url(#p0a6855c883)" style="fill: none; stroke: #b0b0b0; stroke-width: 0.8; stroke-linecap: square"/>
     </g>
     <g id="line2d_2">
      <defs>
       <path id="m63fed1ac8a" d="M 0 0 
L 0 3.5 
" style="stroke: #000000; stroke-width: 0.8"/>
      </defs>
      <g>
       <use xlink:href="#m63fed1ac8a" x="35.12" y="97" style="stroke: #000000; stroke-width: 0.8"/>
      </g>
     </g>
     <g id="text_1">
      <text style="font: 10px 'Times New Roman'; text-anchor: middle" x="35.12" y="110.94375" transform="rotate(-0 35.12 110.94375)">0</text>
     </g>
    </g>
    <g id="xtick_2">
     <g id="line2d_3">
      <path d="M 95.3754 97 
L 95.3754 3.96 
" clip-path="url(#p0a6855c883)" style="fill: none; stroke: #b0b0b0; stroke-width: 0.8; stroke-linecap: square"/>
     </g>
     <g id="line2d_4">
      <g>
       <use xlink:href="#m63fed1ac8a" x="95.3754" y="97" style="stroke: #000000; stroke-width: 0.8"/>
      </g>
     </g>
     <g id="text_2">
      <text style="font: 10px 'Times New Roman'; text-anchor: middle" x="95.3754" y="110.94375" transform="rotate(-0 95.3754 110.94375)">50</text>
     </g>
    </g>
    <g id="xtick_3">
     <g id="line2d_5">
      <path d="M 155.630801 97 
L 155.630801 3.96 
" clip-path="url(#p0a6855c883)" style="fill: none; stroke: #b0b0b0; stroke-width: 0.8; stroke-linecap: square"/>
     </g>
     <g id="line2d_6">
      <g>
       <use xlink:href="#m63fed1ac8a" x="155.630801" y="97" style="stroke: #000000; stroke-width: 0.8"/>
      </g>
     </g>
     <g id="text_3">
      <text style="font: 10px 'Times New Roman'; text-anchor: middle" x="155.630801" y="110.94375" transform="rotate(-0 155.630801 110.94375)">100</text>
     </g>
    </g>
    <g id="xtick_4">
     <g id="line2d_7">
      <path d="M 215.886201 97 
L 215.886201 3.96 
" clip-path="url(#p0a6855c883)" style="fill: none; stroke: #b0b0b0; stroke-width: 0.8; stroke-linecap: square"/>
     </g>
     <g id="line2d_8">
      <g>
       <use xlink:href="#m63fed1ac8a" x="215.886201" y="97" style="stroke: #000000; stroke-width: 0.8"/>
      </g>
     </g>
     <g id="text_4">
      <text style="font: 10px 'Times New Roman'; text-anchor: middle" x="215.886201" y="110.94375" transform="rotate(-0 215.886201 110.94375)">150</text>
     </g>
    </g>
    <g id="xtick_5">
     <g id="line2d_9">
      <path d="M 276.141602 97 
L 276.141602 3.96 
" clip-path="url(#p0a6855c883)" style="fill: none; stroke: #b0b0b0; stroke-width: 0.8; stroke-linecap: square"/>
     </g>
     <g id="line2d_10">
      <g>
       <use xlink:href="#m63fed1ac8a" x="276.141602" y="97" style="stroke: #000000; stroke-width: 0.8"/>
      </g>
     </g>
     <g id="text_5">
      <text style="font: 10px 'Times New Roman'; text-anchor: middle" x="276.141602" y="110.94375" transform="rotate(-0 276.141602 110.94375)">200</text>
     </g>
    </g>
    <g id="xtick_6">
     <g id="line2d_11">
      <path d="M 336.397002 97 
L 336.397002 3.96 
" clip-path="url(#p0a6855c883)" style="fill: none; stroke: #b0b0b0; stroke-width: 0.8; stroke-linecap: square"/>
     </g>
     <g id="line2d_12">
      <g>
       <use xlink:href="#m63fed1ac8a" x="336.397002" y="97" style="stroke: #000000; stroke-width: 0.8"/>
      </g>
     </g>
     <g id="text_6">
      <text style="font: 10px 'Times New Roman'; text-anchor: middle" x="336.397002" y="110.94375" transform="rotate(-0 336.397002 110.94375)">250</text>
     </g>
    </g>
    <g id="xtick_7">
     <g id="line2d_13">
      <path d="M 396.652402 97 
L 396.652402 3.96 
" clip-path="url(#p0a6855c883)" style="fill: none; stroke: #b0b0b0; stroke-width: 0.8; stroke-linecap: square"/>
     </g>
     <g id="line2d_14">
      <g>
       <use xlink:href="#m63fed1ac8a" x="396.652402" y="97" style="stroke: #000000; stroke-width: 0.8"/>
      </g>
     </g>
     <g id="text_7">
      <text style="font: 10px 'Times New Roman'; text-anchor: middle" x="396.652402" y="110.94375" transform="rotate(-0 396.652402 110.94375)">300</text>
     </g>
    </g>
    <g id="xtick_8">
     <g id="line2d_15">
      <path d="M 456.907803 97 
L 456.907803 3.96 
" clip-path="url(#p0a6855c883)" style="fill: none; stroke: #b0b0b0; stroke-width: 0.8; stroke-linecap: square"/>
     </g>
     <g id="line2d_16">
      <g>
       <use xlink:href="#m63fed1ac8a" x="456.907803" y="97" style="stroke: #000000; stroke-width: 0.8"/>
      </g>
     </g>
     <g id="text_8">
      <text style="font: 10px 'Times New Roman'; text-anchor: middle" x="456.907803" y="110.94375" transform="rotate(-0 456.907803 110.94375)">350</text>
     </g>
    </g>
    <g id="xtick_9">
     <g id="line2d_17">
      <path d="M 517.163203 97 
L 517.163203 3.96 
" clip-path="url(#p0a6855c883)" style="fill: none; stroke: #b0b0b0; stroke-width: 0.8; stroke-linecap: square"/>
     </g>
     <g id="line2d_18">
      <g>
       <use xlink:href="#m63fed1ac8a" x="517.163203" y="97" style="stroke: #000000; stroke-width: 0.8"/>
      </g>
     </g>
     <g id="text_9">
      <text style="font: 10px 'Times New Roman'; text-anchor: middle" x="517.163203" y="110.94375" transform="rotate(-0 517.163203 110.94375)">400</text>
     </g>
    </g>
    <g id="text_10">
     <text style="font: 12px 'Times New Roman'; text-anchor: middle" x="287.56" y="125.415312" transform="rotate(-0 287.56 125.415312)">Simulation Run</text>
    </g>
   </g>
   <g id="matplotlib.axis_2">
    <g id="ytick_1">
     <g id="line2d_19">
      <path d="M 35.12 97 
L 540 97 
" clip-path="url(#p0a6855c883)" style="fill: none; stroke: #b0b0b0; stroke-width: 0.8; stroke-linecap: square"/>
     </g>
     <g id="line2d_20">
      <defs>
       <path id="m1f970dab50" d="M 0 0 
L -3.5 0 
" style="stroke: #000000; stroke-width: 0.8"/>
      </defs>
      <g>
       <use xlink:href="#m1f970dab50" x="35.12" y="97" style="stroke: #000000; stroke-width: 0.8"/>
      </g>
     </g>
     <g id="text_11">
      <text style="font: 10px 'Times New Roman'; text-anchor: end" x="28.12" y="100.471875" transform="rotate(-0 28.12 100.471875)">0.0</text>
     </g>
    </g>
    <g id="ytick_2">
     <g id="line2d_21">
      <path d="M 35.12 65.986667 
L 540 65.986667 
" clip-path="url(#p0a6855c883)" style="fill: none; stroke: #b0b0b0; stroke-width: 0.8; stroke-linecap: square"/>
     </g>
     <g id="line2d_22">
      <g>
       <use xlink:href="#m1f970dab50" x="35.12" y="65.986667" style="stroke: #000000; stroke-width: 0.8"/>
      </g>
     </g>
     <g id="text_12">
      <text style="font: 10px 'Times New Roman'; text-anchor: end" x="28.12" y="69.458542" transform="rotate(-0 28.12 69.458542)">0.5</text>
     </g>
    </g>
    <g id="ytick_3">
     <g id="line2d_23">
      <path d="M 35.12 34.973333 
L 540 34.973333 
" clip-path="url(#p0a6855c883)" style="fill: none; stroke: #b0b0b0; stroke-width: 0.8; stroke-linecap: square"/>
     </g>
     <g id="line2d_24">
      <g>
       <use xlink:href="#m1f970dab50" x="35.12" y="34.973333" style="stroke: #000000; stroke-width: 0.8"/>
      </g>
     </g>
     <g id="text_13">
      <text style="font: 10px 'Times New Roman'; text-anchor: end" x="28.12" y="38.445208" transform="rotate(-0 28.12 38.445208)">1.0</text>
     </g>
    </g>
    <g id="ytick_4">
     <g id="line2d_25">
      <path d="M 35.12 3.96 
L 540 3.96 
" clip-path="url(#p0a6855c883)" style="fill: none; stroke: #b0b0b0; stroke-width: 0.8; stroke-linecap: square"/>
     </g>
     <g id="line2d_26">
      <g>
       <use xlink:href="#m1f970dab50" x="35.12" y="3.96" style="stroke: #000000; stroke-width: 0.8"/>
      </g>
     </g>
     <g id="text_14">
      <text style="font: 10px 'Times New Roman'; text-anchor: end" x="28.12" y="7.431875" transform="rotate(-0 28.12 7.431875)">1.5</text>
     </g>
    </g>
    <g id="text_15">
     <text style="font: 12px 'Times New Roman'; text-anchor: middle" x="9.053125" y="50.48" transform="rotate(-90 9.053125 50.48)">Normalized Value</text>
    </g>
   </g>
   <g id="line2d_27">
    <path d="M 35.12 49.118906 
L 36.325108 46.585903 
L 37.530216 34.542047 
L 38.735324 32.890622 
L 39.940432 36.898665 
L 42.350648 37.763139 
L 43.555756 39.32628 
L 44.760864 37.406954 
L 45.965972 39.199824 
L 47.17108 39.138627 
L 48.376188 35.904444 
L 49.581296 35.813718 
L 50.786404 37.845415 
L 51.991512 36.917719 
L 53.19662 35.706328 
L 54.401728 35.014043 
L 55.606836 35.21607 
L 56.811944 34.772858 
L 58.017052 33.721087 
L 59.22216 31.350014 
L 60.427268 30.955194 
L 61.632376 32.136497 
L 62.837484 31.319618 
L 64.042592 32.46379 
L 65.2477 31.351257 
L 66.452808 30.73033 
L 67.657916 31.856712 
L 70.068132 32.445845 
L 71.27324 32.571352 
L 72.478348 32.957092 
L 73.683456 32.63316 
L 74.888564 32.708287 
L 76.093672 33.834572 
L 77.29878 34.235211 
L 78.503888 34.489999 
L 79.708996 34.950732 
L 80.914104 34.406695 
L 82.119212 34.954639 
L 83.32432 34.893744 
L 84.529428 35.283175 
L 85.734536 35.283998 
L 86.939644 35.698401 
L 88.144752 35.701935 
L 89.34986 36.058911 
L 90.554968 35.975209 
L 94.170292 34.937586 
L 95.3754 35.491752 
L 96.580508 35.800268 
L 97.785616 35.842711 
L 98.990724 36.271243 
L 100.195832 35.598471 
L 101.40094 35.808992 
L 102.606048 36.296544 
L 103.811156 35.996064 
L 106.221372 35.624947 
L 107.42648 35.863726 
L 109.836697 35.249873 
L 112.246913 35.258251 
L 113.452021 35.500801 
L 115.862237 35.259347 
L 117.067345 35.613114 
L 118.272453 34.736857 
L 120.682669 33.854943 
L 121.887777 33.586594 
L 123.092885 33.886637 
L 124.297993 34.301429 
L 125.503101 33.822777 
L 126.708209 33.974033 
L 127.913317 33.90836 
L 129.118425 34.138019 
L 130.323533 33.889515 
L 131.528641 33.917177 
L 132.733749 34.291171 
L 133.938857 34.062801 
L 139.964397 34.593457 
L 141.169505 34.559085 
L 142.374613 34.392025 
L 143.579721 34.603098 
L 147.195045 34.56596 
L 148.400153 34.803491 
L 149.605261 34.515114 
L 150.810369 34.77712 
L 155.630801 34.74744 
L 156.835909 34.842583 
L 158.041017 34.705478 
L 162.861449 34.977335 
L 164.066557 34.562182 
L 166.476773 34.408877 
L 170.092097 34.650966 
L 171.297205 34.821193 
L 172.502313 34.82609 
L 173.707421 34.995843 
L 176.117637 34.853902 
L 179.732961 35.073485 
L 180.938069 35.022021 
L 183.348285 34.727564 
L 184.553393 34.760669 
L 185.758501 34.593759 
L 188.168717 34.788013 
L 189.373825 34.469228 
L 190.578933 34.479366 
L 191.784041 34.63039 
L 192.989149 34.588673 
L 195.399365 34.662458 
L 197.809581 34.505026 
L 200.219797 34.311739 
L 201.424905 34.020795 
L 202.630013 34.029154 
L 203.835121 34.166906 
L 205.040229 34.132277 
L 206.245337 34.248791 
L 208.655553 34.127132 
L 211.065769 34.310304 
L 212.270877 34.064446 
L 213.475985 34.025549 
L 214.681093 34.105381 
L 218.296417 34.087942 
L 221.911741 34.179313 
L 225.527065 34.324599 
L 229.142389 34.241057 
L 231.552605 34.42986 
L 232.757713 34.287457 
L 233.962821 34.404971 
L 235.167929 34.279506 
L 236.373037 34.410335 
L 242.398577 34.517719 
L 243.603685 34.626592 
L 248.424117 34.544871 
L 250.834333 34.252503 
L 260.475198 33.986065 
L 262.885414 34.139827 
L 264.090522 34.098537 
L 272.526278 34.662542 
L 273.731386 34.649095 
L 274.936494 34.467826 
L 277.34671 34.471698 
L 283.37225 34.666907 
L 285.782466 34.6825 
L 288.192682 34.751793 
L 291.808006 34.832734 
L 293.013114 34.944833 
L 295.42333 34.850936 
L 300.243762 34.991149 
L 302.653978 35.050567 
L 303.859086 35.182396 
L 311.089734 35.080279 
L 314.705058 34.916957 
L 318.320382 35.166717 
L 319.52549 35.001706 
L 325.55103 35.019405 
L 326.756138 34.817373 
L 336.397002 34.761984 
L 340.012326 34.763679 
L 342.422542 34.575144 
L 344.832758 34.633493 
L 352.063406 35.04845 
L 366.524702 35.049467 
L 370.140026 34.995376 
L 389.421754 34.748882 
L 390.626862 34.640514 
L 395.447294 34.782087 
L 420.754563 34.981739 
L 426.780103 35.1273 
L 427.985211 35.141577 
L 429.190319 35.010855 
L 436.420967 35.012531 
L 440.036291 34.882035 
L 447.266939 34.764079 
L 454.497587 34.433607 
L 466.548667 34.613683 
L 468.958883 34.632779 
L 481.009963 34.645712 
L 482.215071 34.548444 
L 484.625287 34.670964 
L 487.035503 34.66669 
L 489.445719 34.745813 
L 500.291691 34.958255 
L 506.317231 34.862077 
L 515.958095 34.973333 
L 515.958095 34.973333 
" clip-path="url(#p0a6855c883)" style="fill: none; stroke: #4169e1; stroke-width: 1.5; stroke-linecap: square"/>
   </g>
   <g id="line2d_28">
    <path d="M 35.12 97 
L 36.325108 95.665328 
L 37.530216 35.761986 
L 38.735324 49.369555 
L 39.940432 45.528818 
L 41.14554 53.866905 
L 42.350648 59.845051 
L 43.555756 60.931489 
L 45.965972 56.609921 
L 47.17108 60.273956 
L 48.376188 39.399914 
L 49.581296 43.810142 
L 50.786404 36.446831 
L 51.991512 37.977355 
L 53.19662 37.087347 
L 54.401728 39.016501 
L 55.606836 42.093471 
L 56.811944 44.247761 
L 58.017052 42.513171 
L 59.22216 21.718168 
L 60.427268 24.459109 
L 61.632376 21.226767 
L 62.837484 21.191368 
L 65.2477 14.301602 
L 66.452808 15.279261 
L 67.657916 11.071979 
L 70.068132 15.781603 
L 71.27324 18.303251 
L 73.683456 21.44381 
L 74.888564 23.627307 
L 76.093672 16.751876 
L 77.29878 17.812358 
L 78.503888 19.46642 
L 79.708996 19.872959 
L 80.914104 19.510955 
L 82.119212 19.012384 
L 83.32432 20.883666 
L 84.529428 21.402512 
L 85.734536 23.160588 
L 86.939644 23.302661 
L 88.144752 24.940265 
L 89.34986 25.313907 
L 90.554968 26.772103 
L 91.760076 27.08664 
L 92.965184 27.863893 
L 94.170292 27.274863 
L 95.3754 25.447886 
L 96.580508 25.814106 
L 97.785616 27.137751 
L 98.990724 26.406866 
L 100.195832 22.606059 
L 101.40094 23.427465 
L 102.606048 21.949141 
L 103.811156 22.172564 
L 105.016264 23.172931 
L 106.221372 23.797931 
L 107.42648 24.286344 
L 108.631588 24.458958 
L 109.836697 24.179382 
L 112.246913 26.419447 
L 113.452021 26.69339 
L 115.862237 28.35532 
L 117.067345 27.579877 
L 118.272453 17.550735 
L 120.682669 14.094955 
L 121.887777 14.152098 
L 123.092885 13.904584 
L 124.297993 12.364048 
L 125.503101 9.903272 
L 126.708209 10.672705 
L 127.913317 11.710384 
L 129.118425 11.934209 
L 130.323533 11.982688 
L 131.528641 13.019551 
L 132.733749 11.68693 
L 133.938857 11.825198 
L 135.143965 12.613981 
L 136.349073 13.598257 
L 137.554181 14.302826 
L 138.759289 13.952506 
L 141.169505 15.797025 
L 142.374613 16.182577 
L 143.579721 16.236593 
L 147.195045 18.785185 
L 148.400153 18.505259 
L 149.605261 17.679495 
L 150.810369 17.126353 
L 152.015477 17.918291 
L 154.425693 19.07571 
L 155.630801 19.823425 
L 156.835909 20.389871 
L 158.041017 20.734809 
L 159.246125 21.411253 
L 160.451233 21.925477 
L 161.656341 22.602448 
L 162.861449 23.138479 
L 164.066557 19.986173 
L 165.271665 20.33422 
L 167.681881 21.631052 
L 168.886989 21.793356 
L 170.092097 22.423835 
L 171.297205 22.396867 
L 172.502313 23.045021 
L 173.707421 22.993223 
L 177.322745 24.363367 
L 178.527853 24.758936 
L 180.938069 25.859748 
L 182.143177 25.673328 
L 183.348285 25.874795 
L 184.553393 26.415526 
L 185.758501 26.251314 
L 186.963609 26.429317 
L 188.168717 26.836011 
L 189.373825 24.674037 
L 190.578933 25.227633 
L 191.784041 25.158721 
L 192.989149 25.655549 
L 194.194257 26.017092 
L 195.399365 26.545812 
L 196.604473 26.614893 
L 199.014689 27.552266 
L 200.219797 27.453681 
L 201.424905 25.52405 
L 202.630013 26.032572 
L 203.835121 25.983266 
L 205.040229 26.448212 
L 206.245337 26.540577 
L 208.655553 27.286877 
L 209.860661 27.281967 
L 211.065769 27.658573 
L 212.270877 26.278726 
L 213.475985 26.706786 
L 214.681093 26.977876 
L 217.091309 27.718853 
L 220.706633 28.833827 
L 221.911741 28.492026 
L 224.321957 29.042204 
L 226.732173 29.808984 
L 229.142389 30.488691 
L 230.347497 30.428178 
L 231.552605 30.663722 
L 232.757713 30.373958 
L 235.167929 30.157167 
L 236.373037 29.960444 
L 239.988361 31.061427 
L 241.193469 30.987086 
L 242.398577 31.25382 
L 243.603685 31.205102 
L 246.013901 31.940329 
L 247.219009 32.141002 
L 248.424117 32.504081 
L 249.629225 31.620186 
L 250.834333 31.540534 
L 253.244549 32.196683 
L 254.449657 32.269918 
L 255.654765 32.16216 
L 258.064982 32.544526 
L 260.475198 32.948643 
L 261.680306 32.621221 
L 264.090522 33.206851 
L 265.29563 33.245976 
L 266.500738 33.514085 
L 267.705846 33.239068 
L 268.910954 33.119342 
L 270.116062 32.857181 
L 271.32117 32.959938 
L 273.731386 33.584854 
L 274.936494 32.541723 
L 277.34671 33.115027 
L 278.551818 33.294371 
L 279.756926 33.59789 
L 280.962034 33.700448 
L 285.782466 34.672994 
L 286.987574 34.748901 
L 290.602898 35.532647 
L 291.808006 35.76612 
L 293.013114 35.491532 
L 294.218222 35.483342 
L 295.42333 35.759277 
L 302.653978 36.518953 
L 303.859086 35.982783 
L 305.064194 36.251236 
L 308.679518 36.51097 
L 309.884626 35.009549 
L 311.089734 35.231487 
L 312.294842 35.268928 
L 313.49995 35.532458 
L 314.705058 35.433451 
L 315.910166 35.180799 
L 317.115274 35.417857 
L 318.320382 34.933303 
L 319.52549 33.85846 
L 320.730598 34.123653 
L 321.935706 33.967258 
L 323.140814 34.036735 
L 324.345922 34.253619 
L 325.55103 34.202343 
L 326.756138 32.40602 
L 327.961246 32.656098 
L 330.371462 32.826644 
L 333.986786 33.546209 
L 336.397002 33.859799 
L 340.012326 34.459427 
L 341.217434 33.818384 
L 342.422542 33.880413 
L 343.62765 34.12288 
L 346.037866 34.044752 
L 347.242974 33.872463 
L 348.448082 34.038004 
L 349.65319 33.383878 
L 350.858298 33.577389 
L 352.063406 32.920195 
L 353.268514 33.158165 
L 354.473622 33.15832 
L 355.67873 33.024445 
L 356.883838 33.077933 
L 358.088946 33.315555 
L 359.294054 33.334121 
L 362.909378 33.948498 
L 364.114486 33.50912 
L 366.524702 33.949225 
L 367.72981 34.054608 
L 374.960458 35.297409 
L 376.165566 34.150041 
L 380.985998 34.841614 
L 382.191106 34.188298 
L 383.396214 34.217323 
L 384.601322 33.476252 
L 389.421754 34.266281 
L 390.626862 33.757572 
L 391.83197 33.770062 
L 393.037078 33.981754 
L 394.242186 33.719894 
L 399.062618 34.504384 
L 403.88305 35.212175 
L 405.088158 35.050568 
L 407.498375 35.35236 
L 408.703483 35.382327 
L 409.908591 34.964758 
L 411.113699 35.153701 
L 413.523915 35.144825 
L 414.729023 35.288765 
L 415.934131 35.298631 
L 417.139239 35.039686 
L 418.344347 35.109133 
L 419.549455 34.877817 
L 421.959671 34.956158 
L 423.164779 34.735672 
L 426.780103 34.971511 
L 427.985211 35.147377 
L 429.190319 34.173562 
L 432.805643 34.647791 
L 436.420967 34.992426 
L 437.626075 34.736716 
L 438.831183 34.91787 
L 440.036291 34.862376 
L 441.241399 35.042181 
L 442.446507 34.514208 
L 443.651615 34.579098 
L 444.856723 34.248787 
L 446.061831 34.23206 
L 447.266939 33.925432 
L 448.472047 33.772232 
L 449.677155 33.891768 
L 450.882263 33.891276 
L 452.087371 33.122018 
L 453.292479 32.606646 
L 465.343559 33.794026 
L 466.548667 33.943843 
L 467.753775 33.967422 
L 468.958883 33.833871 
L 472.574207 34.249381 
L 474.984423 34.469552 
L 477.394639 34.72746 
L 478.599747 34.647948 
L 481.009963 34.949251 
L 483.420179 33.899108 
L 487.035503 34.249236 
L 488.240611 33.721206 
L 491.855935 34.114437 
L 494.266151 34.096178 
L 499.086583 34.671748 
L 500.291691 34.598954 
L 501.496799 34.659308 
L 502.701907 34.17628 
L 503.907015 34.194645 
L 505.112123 34.331601 
L 506.317231 34.260048 
L 508.727447 34.53087 
L 509.932555 34.51861 
L 513.547879 34.924351 
L 514.752987 34.818754 
L 515.958095 34.973333 
L 515.958095 34.973333 
" clip-path="url(#p0a6855c883)" style="fill: none; stroke-dasharray: 5.55,2.4; stroke-dashoffset: 0; stroke: #4169e1; stroke-width: 1.5"/>
   </g>
   <g id="line2d_29">
    <path d="M 35.12 46.986781 
L 36.325108 44.447927 
L 37.530216 34.389351 
L 38.735324 33.543922 
L 39.940432 36.693155 
L 41.14554 36.447665 
L 42.350648 36.772931 
L 43.555756 38.299715 
L 44.760864 36.589503 
L 45.965972 38.167506 
L 47.17108 37.968239 
L 48.376188 35.153724 
L 49.581296 35.667052 
L 50.786404 37.517418 
L 51.991512 36.656892 
L 53.19662 35.64329 
L 54.401728 34.930036 
L 55.606836 34.882938 
L 56.811944 34.692674 
L 58.017052 34.142852 
L 59.22216 31.992055 
L 60.427268 31.692631 
L 61.632376 32.815983 
L 62.837484 32.048815 
L 64.042592 33.065608 
L 65.2477 31.871778 
L 66.452808 31.504235 
L 67.657916 32.518306 
L 68.863024 32.697962 
L 70.068132 33.025984 
L 71.27324 33.165704 
L 72.478348 33.542092 
L 73.683456 33.288952 
L 74.888564 33.391078 
L 76.093672 34.388563 
L 77.29878 34.84507 
L 78.503888 35.056025 
L 79.708996 35.428045 
L 80.914104 34.91232 
L 82.119212 35.442246 
L 83.32432 35.328992 
L 84.529428 35.711339 
L 85.734536 35.719568 
L 86.939644 36.050241 
L 88.144752 36.045872 
L 89.34986 36.328099 
L 90.554968 36.198451 
L 94.170292 35.005638 
L 95.3754 35.516394 
L 96.580508 35.772681 
L 97.785616 35.875229 
L 98.990724 36.236257 
L 100.195832 35.568688 
L 101.40094 35.774667 
L 102.606048 36.218135 
L 103.811156 35.960081 
L 105.016264 35.900924 
L 106.221372 35.615056 
L 107.42648 35.806389 
L 109.836697 35.269168 
L 112.246913 35.290138 
L 113.452021 35.540203 
L 115.862237 35.425284 
L 117.067345 35.781046 
L 118.272453 35.005094 
L 120.682669 33.960477 
L 121.887777 33.780846 
L 123.092885 34.030068 
L 124.297993 34.416076 
L 125.503101 33.967982 
L 126.708209 34.119858 
L 127.913317 34.128244 
L 129.118425 34.333048 
L 130.323533 34.132014 
L 131.528641 34.212067 
L 132.733749 34.542734 
L 133.938857 34.276313 
L 135.143965 34.433026 
L 137.554181 34.515636 
L 138.759289 34.778959 
L 141.169505 34.691952 
L 142.374613 34.594098 
L 143.579721 34.79237 
L 145.989937 34.703523 
L 147.195045 34.739966 
L 148.400153 34.957764 
L 149.605261 34.71527 
L 150.810369 34.942158 
L 154.425693 34.830123 
L 156.835909 34.987548 
L 158.041017 34.867306 
L 162.861449 35.134772 
L 164.066557 34.874062 
L 166.476773 34.707062 
L 170.092097 34.915727 
L 171.297205 35.061839 
L 172.502313 35.073243 
L 173.707421 35.256458 
L 176.117637 35.089858 
L 179.732961 35.273718 
L 180.938069 35.227524 
L 182.143177 35.026242 
L 185.758501 34.815414 
L 188.168717 35.049818 
L 189.373825 34.703342 
L 190.578933 34.706475 
L 191.784041 34.849358 
L 199.014689 34.685814 
L 200.219797 34.545785 
L 201.424905 34.255543 
L 202.630013 34.227046 
L 203.835121 34.356013 
L 205.040229 34.283472 
L 206.245337 34.39317 
L 208.655553 34.270713 
L 211.065769 34.502744 
L 212.270877 34.254925 
L 213.475985 34.204833 
L 215.886201 34.331359 
L 218.296417 34.335137 
L 221.911741 34.428468 
L 225.527065 34.573719 
L 226.732173 34.490208 
L 227.937281 34.53533 
L 229.142389 34.458928 
L 231.552605 34.645491 
L 232.757713 34.508603 
L 233.962821 34.607553 
L 235.167929 34.490631 
L 236.373037 34.61496 
L 241.193469 34.614999 
L 246.013901 34.772947 
L 256.859873 34.12202 
L 258.064982 34.18552 
L 259.27009 34.109594 
L 262.885414 34.3111 
L 264.090522 34.254213 
L 273.731386 34.7442 
L 274.936494 34.590055 
L 277.34671 34.59601 
L 283.37225 34.792721 
L 285.782466 34.805938 
L 288.192682 34.860322 
L 291.808006 34.908101 
L 293.013114 35.01211 
L 295.42333 34.909168 
L 297.833546 34.928179 
L 308.679518 35.270844 
L 309.884626 35.065805 
L 311.089734 35.109474 
L 314.705058 34.974922 
L 318.320382 35.175991 
L 320.730598 35.04207 
L 321.935706 34.961993 
L 325.55103 35.072713 
L 326.756138 34.869793 
L 336.397002 34.85006 
L 340.012326 34.883308 
L 342.422542 34.687625 
L 344.832758 34.754099 
L 353.268514 35.15307 
L 354.473622 35.199793 
L 355.67873 35.127837 
L 360.499162 35.255715 
L 384.601322 34.877879 
L 393.037078 34.814661 
L 395.447294 34.870318 
L 421.959671 35.118494 
L 424.369887 35.246078 
L 426.780103 35.193419 
L 429.190319 35.121441 
L 438.831183 35.058512 
L 442.446507 34.868699 
L 446.061831 34.938399 
L 453.292479 34.585266 
L 461.728235 34.755012 
L 464.138451 34.734762 
L 471.369099 34.790752 
L 476.189531 34.788734 
L 489.445719 34.796499 
L 500.291691 34.98631 
L 507.522339 34.87618 
L 511.137663 34.91971 
L 515.958095 34.973333 
L 515.958095 34.973333 
" clip-path="url(#p0a6855c883)" style="fill: none; stroke: #ff8c00; stroke-width: 1.5; stroke-linecap: square"/>
   </g>
   <g id="line2d_30">
    <path d="M 35.12 97 
L 36.325108 95.455585 
L 37.530216 47.487134 
L 38.735324 59.351585 
L 39.940432 57.376129 
L 41.14554 63.907909 
L 42.350648 68.483254 
L 43.555756 68.138161 
L 45.965972 63.495173 
L 47.17108 66.445927 
L 48.376188 48.114113 
L 49.581296 51.116933 
L 50.786404 43.729616 
L 51.991512 44.797012 
L 53.19662 44.367249 
L 54.401728 45.513013 
L 55.606836 48.364366 
L 56.811944 50.76801 
L 58.017052 51.703396 
L 59.22216 31.692832 
L 60.427268 34.21023 
L 61.632376 30.288363 
L 62.837484 29.82464 
L 64.042592 26.566476 
L 65.2477 20.7383 
L 66.452808 22.721256 
L 67.657916 18.721491 
L 68.863024 21.204215 
L 70.068132 22.983099 
L 71.27324 25.230418 
L 72.478348 26.420962 
L 73.683456 28.068405 
L 74.888564 30.01334 
L 76.093672 23.821719 
L 77.29878 24.106816 
L 78.503888 25.693042 
L 79.708996 26.342599 
L 80.914104 25.732688 
L 82.119212 24.890256 
L 83.32432 26.526102 
L 84.529428 26.767945 
L 85.734536 28.400567 
L 86.939644 28.833083 
L 88.144752 30.347702 
L 89.34986 30.937853 
L 90.554968 32.158172 
L 91.760076 32.039463 
L 92.965184 32.347193 
L 94.170292 30.291722 
L 95.3754 28.474462 
L 96.580508 28.989637 
L 97.785616 30.141831 
L 98.990724 29.724753 
L 100.195832 25.18193 
L 101.40094 25.905288 
L 102.606048 24.513795 
L 103.811156 24.8541 
L 105.016264 26.028278 
L 106.221372 26.055905 
L 107.42648 26.692639 
L 108.631588 26.683489 
L 109.836697 26.814209 
L 112.246913 28.966006 
L 113.452021 29.022937 
L 115.862237 30.916586 
L 117.067345 29.812187 
L 118.272453 20.817782 
L 119.477561 16.229906 
L 120.682669 13.694625 
L 121.887777 14.279144 
L 123.092885 14.31061 
L 124.297993 12.771254 
L 125.503101 10.271344 
L 126.708209 10.977658 
L 127.913317 12.079211 
L 130.323533 12.663139 
L 131.528641 13.581496 
L 132.733749 12.476744 
L 133.938857 12.100532 
L 135.143965 12.622841 
L 136.349073 13.615049 
L 137.554181 14.429009 
L 138.759289 13.949324 
L 139.964397 14.891772 
L 142.374613 16.381811 
L 143.579721 16.420008 
L 145.989937 18.036107 
L 147.195045 18.846555 
L 148.400153 18.600841 
L 149.605261 18.079009 
L 150.810369 17.708548 
L 152.015477 18.476054 
L 153.220585 18.889241 
L 155.630801 20.229126 
L 156.835909 20.811139 
L 158.041017 21.197491 
L 160.451233 22.332679 
L 162.861449 23.575556 
L 164.066557 22.512852 
L 165.271665 22.755331 
L 167.681881 24.01517 
L 168.886989 24.296744 
L 170.092097 24.872812 
L 171.297205 24.927491 
L 172.502313 25.550656 
L 173.707421 25.241672 
L 177.322745 26.448981 
L 179.732961 27.454802 
L 180.938069 27.962979 
L 182.143177 27.339964 
L 183.348285 27.686204 
L 184.553393 28.222088 
L 185.758501 28.090933 
L 188.168717 28.335754 
L 189.373825 25.186384 
L 190.578933 25.738494 
L 191.784041 25.64656 
L 195.399365 27.140938 
L 196.604473 27.092901 
L 199.014689 28.056842 
L 200.219797 27.912789 
L 201.424905 25.624415 
L 202.630013 26.107194 
L 203.835121 26.052054 
L 205.040229 26.373907 
L 206.245337 26.458365 
L 207.450445 26.882613 
L 208.655553 27.152522 
L 209.860661 26.913121 
L 211.065769 27.117208 
L 212.270877 25.426304 
L 213.475985 25.817686 
L 214.681093 25.943338 
L 217.091309 26.74508 
L 220.706633 27.853058 
L 221.911741 27.37678 
L 224.321957 28.005243 
L 225.527065 28.406422 
L 226.732173 28.569443 
L 227.937281 28.916425 
L 229.142389 29.111516 
L 230.347497 29.001237 
L 231.552605 29.224128 
L 232.757713 28.898585 
L 233.962821 28.921758 
L 236.373037 28.573212 
L 238.783253 29.353964 
L 239.988361 29.572615 
L 241.193469 29.551128 
L 242.398577 29.819635 
L 243.603685 29.80349 
L 246.013901 30.531868 
L 247.219009 30.645974 
L 248.424117 31.018171 
L 249.629225 30.068904 
L 250.834333 30.017568 
L 254.449657 30.816887 
L 256.859873 30.877108 
L 260.475198 31.304514 
L 261.680306 30.994005 
L 262.885414 31.331751 
L 266.500738 31.9042 
L 268.910954 31.660546 
L 270.116062 31.307983 
L 272.526278 31.764984 
L 273.731386 32.058633 
L 274.936494 31.250424 
L 277.34671 31.854962 
L 278.551818 32.042393 
L 279.756926 32.357144 
L 283.37225 32.991549 
L 285.782466 33.418694 
L 286.987574 33.53083 
L 291.808006 34.65612 
L 293.013114 34.391412 
L 294.218222 34.284194 
L 295.42333 34.561333 
L 297.833546 34.820541 
L 299.038654 35.006432 
L 300.243762 35.078555 
L 301.44887 35.339741 
L 302.653978 35.433327 
L 303.859086 34.886655 
L 305.064194 35.162518 
L 308.679518 35.510589 
L 309.884626 33.482449 
L 311.089734 33.653981 
L 312.294842 33.661935 
L 313.49995 33.932515 
L 314.705058 34.013499 
L 315.910166 33.743112 
L 317.115274 34.010809 
L 319.52549 33.190319 
L 320.730598 33.429123 
L 323.140814 33.319656 
L 324.345922 33.502148 
L 325.55103 33.403126 
L 326.756138 31.27727 
L 327.961246 31.535979 
L 329.166354 31.559144 
L 332.781678 32.191825 
L 333.986786 32.382986 
L 336.397002 32.602009 
L 338.807218 32.972863 
L 340.012326 33.223584 
L 341.217434 32.498479 
L 342.422542 32.458736 
L 343.62765 32.707307 
L 346.037866 32.676386 
L 347.242974 32.428741 
L 348.448082 32.569947 
L 349.65319 31.872389 
L 350.858298 32.099051 
L 352.063406 31.484992 
L 354.473622 31.806767 
L 355.67873 31.720941 
L 356.883838 31.750866 
L 358.088946 31.98512 
L 359.294054 31.908538 
L 362.909378 32.554767 
L 364.114486 32.020772 
L 366.524702 32.487606 
L 367.72981 32.537212 
L 374.960458 33.841545 
L 376.165566 32.691247 
L 380.985998 33.422471 
L 382.191106 32.840481 
L 383.396214 32.898056 
L 384.601322 32.131029 
L 389.421754 32.937602 
L 390.626862 32.530466 
L 391.83197 32.440062 
L 393.037078 32.653829 
L 394.242186 32.532453 
L 403.88305 34.059358 
L 405.088158 33.861668 
L 407.498375 34.193398 
L 408.703483 34.166152 
L 409.908591 33.690417 
L 411.113699 33.855411 
L 412.318807 33.796178 
L 414.729023 34.049508 
L 417.139239 34.129934 
L 418.344347 34.11831 
L 419.549455 33.908638 
L 421.959671 34.079222 
L 424.369887 33.836447 
L 425.574995 33.812978 
L 427.985211 34.172171 
L 429.190319 33.719724 
L 432.805643 34.236163 
L 436.420967 34.558669 
L 437.626075 34.393314 
L 438.831183 34.57842 
L 440.036291 34.255952 
L 441.241399 34.435359 
L 442.446507 33.783622 
L 443.651615 33.795939 
L 444.856723 33.437193 
L 446.061831 33.345752 
L 448.472047 32.840621 
L 449.677155 33.00025 
L 450.882263 32.953213 
L 452.087371 32.577123 
L 453.292479 32.520813 
L 459.318019 33.053036 
L 461.728235 33.338615 
L 462.933343 33.329529 
L 467.753775 33.843757 
L 468.958883 33.707233 
L 471.369099 33.968382 
L 472.574207 34.098953 
L 473.779315 34.110237 
L 477.394639 34.6032 
L 478.599747 34.386995 
L 481.009963 34.649285 
L 483.420179 33.792449 
L 487.035503 34.214778 
L 488.240611 33.658704 
L 491.855935 34.034308 
L 494.266151 34.025485 
L 499.086583 34.631068 
L 501.496799 34.61898 
L 502.701907 34.131889 
L 503.907015 34.113668 
L 505.112123 34.273913 
L 506.317231 34.195309 
L 508.727447 34.48794 
L 509.932555 34.453434 
L 513.547879 34.869751 
L 514.752987 34.821811 
L 515.958095 34.973333 
L 515.958095 34.973333 
" clip-path="url(#p0a6855c883)" style="fill: none; stroke-dasharray: 5.55,2.4; stroke-dashoffset: 0; stroke: #ff8c00; stroke-width: 1.5"/>
   </g>
   <g id="patch_3">
    <path d="M 35.12 97 
L 35.12 3.96 
" style="fill: none; stroke: #000000; stroke-width: 0.8; stroke-linejoin: miter; stroke-linecap: square"/>
   </g>
   <g id="patch_4">
    <path d="M 540 97 
L 540 3.96 
" style="fill: none; stroke: #000000; stroke-width: 0.8; stroke-linejoin: miter; stroke-linecap: square"/>
   </g>
   <g id="patch_5">
    <path d="M 35.12 97 
L 540 97 
" style="fill: none; stroke: #000000; stroke-width: 0.8; stroke-linejoin: miter; stroke-linecap: square"/>
   </g>
   <g id="patch_6">
    <path d="M 35.12 3.96 
L 540 3.96 
" style="fill: none; stroke: #000000; stroke-width: 0.8; stroke-linejoin: miter; stroke-linecap: square"/>
   </g>
  </g>
 </g>
 <defs>
  <clipPath id="p0a6855c883">
   <rect x="35.12" y="3.96" width="504.88" height="93.04"/>
  </clipPath>
 </defs>
</svg>
