<?xml version="1.0" encoding="utf-8" standalone="no"?>
<!DOCTYPE svg PUBLIC "-//W3C//DTD SVG 1.1//EN"
  "http://www.w3.org/Graphics/SVG/1.1/DTD/svg11.dtd">
<svg xmlns:xlink="http://www.w3.org/1999/xlink" width="540pt" height="129.6pt" viewBox="0 0 540 129.6" xmlns="http://www.w3.org/2000/svg" version="1.1">
 <metadata>
  <rdf:RDF xmlns:dc="http://purl.org/dc/elements/1.1/" xmlns:cc="http://creativecommons.org/ns#" xmlns:rdf="http://www.w3.org/1999/02/22-rdf-syntax-ns#">
   <cc:Work>
    <dc:type rdf:resource="http://purl.org/dc/dcmitype/StillImage"/>
    <dc:date>2025-03-23T15:11:52.859624</dc:date>
    <dc:format>image/svg+xml</dc:format>
    <dc:creator>
     <cc:Agent>
      <dc:title>Matplotlib v3.9.0, https://matplotlib.org/</dc:title>
     </cc:Agent>
    </dc:creator>
   </cc:Work>
  </rdf:RDF>
 </metadata>
 <defs>
  <style type="text/css">*{stroke-linejoin: round; stroke-linecap: butt}</style>
 </defs>
 <g id="figure_1">
  <g id="patch_1">
   <path d="M 0 129.6 
L 540 129.6 
L 540 0 
L 0 0 
z
" style="fill: #ffffff"/>
  </g>
  <g id="axes_1">
   <g id="patch_2">
    <path d="M 27.56 97 
L 540 97 
L 540 0 
L 27.56 0 
z
" style="fill: #ffffff"/>
   </g>
   <g id="matplotlib.axis_1">
    <g id="xtick_1">
     <g id="line2d_1">
      <path d="M 27.56 97 
L 27.56 0 
" clip-path="url(#p468b101ec9)" style="fill: none; stroke: #b0b0b0; stroke-width: 0.8; stroke-linecap: square"/>
     </g>
     <g id="line2d_2">
      <defs>
       <path id="mbcb12abeb9" d="M 0 0 
L 0 3.5 
" style="stroke: #000000; stroke-width: 0.8"/>
      </defs>
      <g>
       <use xlink:href="#mbcb12abeb9" x="27.56" y="97" style="stroke: #000000; stroke-width: 0.8"/>
      </g>
     </g>
     <g id="text_1">
      <text style="font: 10px 'Times New Roman'; text-anchor: middle" x="27.56" y="110.94375" transform="rotate(-0 27.56 110.94375)">0</text>
     </g>
    </g>
    <g id="xtick_2">
     <g id="line2d_3">
      <path d="M 88.717656 97 
L 88.717656 0 
" clip-path="url(#p468b101ec9)" style="fill: none; stroke: #b0b0b0; stroke-width: 0.8; stroke-linecap: square"/>
     </g>
     <g id="line2d_4">
      <g>
       <use xlink:href="#mbcb12abeb9" x="88.717656" y="97" style="stroke: #000000; stroke-width: 0.8"/>
      </g>
     </g>
     <g id="text_2">
      <text style="font: 10px 'Times New Roman'; text-anchor: middle" x="88.717656" y="110.94375" transform="rotate(-0 88.717656 110.94375)">50</text>
     </g>
    </g>
    <g id="xtick_3">
     <g id="line2d_5">
      <path d="M 149.875312 97 
L 149.875312 0 
" clip-path="url(#p468b101ec9)" style="fill: none; stroke: #b0b0b0; stroke-width: 0.8; stroke-linecap: square"/>
     </g>
     <g id="line2d_6">
      <g>
       <use xlink:href="#mbcb12abeb9" x="149.875312" y="97" style="stroke: #000000; stroke-width: 0.8"/>
      </g>
     </g>
     <g id="text_3">
      <text style="font: 10px 'Times New Roman'; text-anchor: middle" x="149.875312" y="110.94375" transform="rotate(-0 149.875312 110.94375)">100</text>
     </g>
    </g>
    <g id="xtick_4">
     <g id="line2d_7">
      <path d="M 211.032968 97 
L 211.032968 0 
" clip-path="url(#p468b101ec9)" style="fill: none; stroke: #b0b0b0; stroke-width: 0.8; stroke-linecap: square"/>
     </g>
     <g id="line2d_8">
      <g>
       <use xlink:href="#mbcb12abeb9" x="211.032968" y="97" style="stroke: #000000; stroke-width: 0.8"/>
      </g>
     </g>
     <g id="text_4">
      <text style="font: 10px 'Times New Roman'; text-anchor: middle" x="211.032968" y="110.94375" transform="rotate(-0 211.032968 110.94375)">150</text>
     </g>
    </g>
    <g id="xtick_5">
     <g id="line2d_9">
      <path d="M 272.190624 97 
L 272.190624 0 
" clip-path="url(#p468b101ec9)" style="fill: none; stroke: #b0b0b0; stroke-width: 0.8; stroke-linecap: square"/>
     </g>
     <g id="line2d_10">
      <g>
       <use xlink:href="#mbcb12abeb9" x="272.190624" y="97" style="stroke: #000000; stroke-width: 0.8"/>
      </g>
     </g>
     <g id="text_5">
      <text style="font: 10px 'Times New Roman'; text-anchor: middle" x="272.190624" y="110.94375" transform="rotate(-0 272.190624 110.94375)">200</text>
     </g>
    </g>
    <g id="xtick_6">
     <g id="line2d_11">
      <path d="M 333.34828 97 
L 333.34828 0 
" clip-path="url(#p468b101ec9)" style="fill: none; stroke: #b0b0b0; stroke-width: 0.8; stroke-linecap: square"/>
     </g>
     <g id="line2d_12">
      <g>
       <use xlink:href="#mbcb12abeb9" x="333.34828" y="97" style="stroke: #000000; stroke-width: 0.8"/>
      </g>
     </g>
     <g id="text_6">
      <text style="font: 10px 'Times New Roman'; text-anchor: middle" x="333.34828" y="110.94375" transform="rotate(-0 333.34828 110.94375)">250</text>
     </g>
    </g>
    <g id="xtick_7">
     <g id="line2d_13">
      <path d="M 394.505936 97 
L 394.505936 0 
" clip-path="url(#p468b101ec9)" style="fill: none; stroke: #b0b0b0; stroke-width: 0.8; stroke-linecap: square"/>
     </g>
     <g id="line2d_14">
      <g>
       <use xlink:href="#mbcb12abeb9" x="394.505936" y="97" style="stroke: #000000; stroke-width: 0.8"/>
      </g>
     </g>
     <g id="text_7">
      <text style="font: 10px 'Times New Roman'; text-anchor: middle" x="394.505936" y="110.94375" transform="rotate(-0 394.505936 110.94375)">300</text>
     </g>
    </g>
    <g id="xtick_8">
     <g id="line2d_15">
      <path d="M 455.663592 97 
L 455.663592 0 
" clip-path="url(#p468b101ec9)" style="fill: none; stroke: #b0b0b0; stroke-width: 0.8; stroke-linecap: square"/>
     </g>
     <g id="line2d_16">
      <g>
       <use xlink:href="#mbcb12abeb9" x="455.663592" y="97" style="stroke: #000000; stroke-width: 0.8"/>
      </g>
     </g>
     <g id="text_8">
      <text style="font: 10px 'Times New Roman'; text-anchor: middle" x="455.663592" y="110.94375" transform="rotate(-0 455.663592 110.94375)">350</text>
     </g>
    </g>
    <g id="xtick_9">
     <g id="line2d_17">
      <path d="M 516.821248 97 
L 516.821248 0 
" clip-path="url(#p468b101ec9)" style="fill: none; stroke: #b0b0b0; stroke-width: 0.8; stroke-linecap: square"/>
     </g>
     <g id="line2d_18">
      <g>
       <use xlink:href="#mbcb12abeb9" x="516.821248" y="97" style="stroke: #000000; stroke-width: 0.8"/>
      </g>
     </g>
     <g id="text_9">
      <text style="font: 10px 'Times New Roman'; text-anchor: middle" x="516.821248" y="110.94375" transform="rotate(-0 516.821248 110.94375)">400</text>
     </g>
    </g>
    <g id="text_10">
     <text style="font: 12px 'Times New Roman'; text-anchor: middle" x="283.78" y="125.415312" transform="rotate(-0 283.78 125.415312)">Simulation Run</text>
    </g>
   </g>
   <g id="matplotlib.axis_2">
    <g id="ytick_1">
     <g id="line2d_19">
      <path d="M 27.56 97 
L 540 97 
" clip-path="url(#p468b101ec9)" style="fill: none; stroke: #b0b0b0; stroke-width: 0.8; stroke-linecap: square"/>
     </g>
     <g id="line2d_20">
      <defs>
       <path id="mfe846ea50e" d="M 0 0 
L -3.5 0 
" style="stroke: #000000; stroke-width: 0.8"/>
      </defs>
      <g>
       <use xlink:href="#mfe846ea50e" x="27.56" y="97" style="stroke: #000000; stroke-width: 0.8"/>
      </g>
     </g>
     <g id="text_11">
      <text style="font: 10px 'Times New Roman'; text-anchor: end" x="20.56" y="100.471875" transform="rotate(-0 20.56 100.471875)">0</text>
     </g>
    </g>
    <g id="ytick_2">
     <g id="line2d_21">
      <path d="M 27.56 63.551724 
L 540 63.551724 
" clip-path="url(#p468b101ec9)" style="fill: none; stroke: #b0b0b0; stroke-width: 0.8; stroke-linecap: square"/>
     </g>
     <g id="line2d_22">
      <g>
       <use xlink:href="#mfe846ea50e" x="27.56" y="63.551724" style="stroke: #000000; stroke-width: 0.8"/>
      </g>
     </g>
     <g id="text_12">
      <text style="font: 10px 'Times New Roman'; text-anchor: end" x="20.56" y="67.023599" transform="rotate(-0 20.56 67.023599)">1</text>
     </g>
    </g>
    <g id="ytick_3">
     <g id="line2d_23">
      <path d="M 27.56 30.103448 
L 540 30.103448 
" clip-path="url(#p468b101ec9)" style="fill: none; stroke: #b0b0b0; stroke-width: 0.8; stroke-linecap: square"/>
     </g>
     <g id="line2d_24">
      <g>
       <use xlink:href="#mfe846ea50e" x="27.56" y="30.103448" style="stroke: #000000; stroke-width: 0.8"/>
      </g>
     </g>
     <g id="text_13">
      <text style="font: 10px 'Times New Roman'; text-anchor: end" x="20.56" y="33.575323" transform="rotate(-0 20.56 33.575323)">2</text>
     </g>
    </g>
    <g id="text_14">
     <text style="font: 12px 'Times New Roman'; text-anchor: middle" x="8.993125" y="48.5" transform="rotate(-90 8.993125 48.5)">Normalized Value</text>
    </g>
   </g>
   <g id="line2d_25">
    <path d="M 27.56 62.26485 
L 28.783153 57.13071 
L 31.229459 64.661389 
L 32.452612 58.932183 
L 33.675766 61.187526 
L 34.898919 62.950102 
L 36.122072 63.749224 
L 37.345225 63.89296 
L 38.568378 64.193773 
L 39.791531 64.979033 
L 41.014684 64.836782 
L 42.237837 65.482463 
L 43.460991 65.089852 
L 44.684144 65.224702 
L 45.907297 62.381306 
L 47.13045 62.407232 
L 48.353603 63.286406 
L 49.576756 62.963237 
L 50.799909 63.370212 
L 52.023062 63.604066 
L 53.246216 63.986338 
L 54.469369 63.943905 
L 55.692522 64.238082 
L 59.361981 64.596055 
L 61.808287 64.202733 
L 63.031441 64.156338 
L 65.477747 64.400787 
L 66.7009 64.236425 
L 67.924053 64.329873 
L 69.147206 64.245972 
L 70.370359 63.857738 
L 71.593512 64.137159 
L 76.486125 64.513817 
L 80.155584 64.257728 
L 81.378737 64.368404 
L 82.60189 64.114962 
L 91.163962 65.071085 
L 92.387115 64.90847 
L 94.833422 64.915631 
L 97.279728 65.126488 
L 98.502881 65.178168 
L 100.949187 64.915898 
L 102.17234 64.685379 
L 103.395493 64.774431 
L 107.064953 64.569577 
L 108.288106 64.682123 
L 111.957565 64.618036 
L 113.180718 64.782757 
L 114.403872 64.683716 
L 115.627025 64.775945 
L 116.850178 64.655896 
L 119.296484 64.780992 
L 120.519637 64.751521 
L 121.74279 64.506927 
L 122.965943 64.449672 
L 131.528015 63.247099 
L 132.751168 63.279909 
L 133.974322 62.986725 
L 137.643781 63.079256 
L 140.090087 63.185051 
L 146.205853 63.416302 
L 148.652159 63.585256 
L 154.767925 63.562559 
L 157.214231 63.501437 
L 160.88369 63.53869 
L 168.222609 63.190473 
L 175.561528 63.108125 
L 178.007834 63.279899 
L 182.900446 63.414294 
L 185.346753 63.539309 
L 186.569906 63.399137 
L 189.016212 63.435631 
L 191.462518 63.517715 
L 193.908824 63.206698 
L 196.355131 63.06975 
L 197.578284 63.186788 
L 206.140356 63.122212 
L 211.032968 63.301947 
L 213.479274 63.336224 
L 217.148734 63.462931 
L 223.264499 63.513741 
L 224.487652 63.540975 
L 226.933959 63.377585 
L 231.826571 63.587975 
L 235.496031 63.355564 
L 239.16549 63.283203 
L 244.058102 63.408224 
L 246.504409 63.285276 
L 247.727562 63.348322 
L 248.950715 63.283452 
L 251.397021 63.369327 
L 252.620174 63.317368 
L 253.843327 63.38724 
L 256.289634 63.267637 
L 259.959093 63.350485 
L 264.851705 63.156691 
L 268.521165 63.169314 
L 274.63693 63.198707 
L 275.860084 63.077632 
L 279.529543 63.085562 
L 283.199002 63.087192 
L 286.868462 63.129621 
L 290.537921 63.045631 
L 299.099993 63.125424 
L 302.769452 63.120353 
L 310.108371 63.18125 
L 315.000983 63.153785 
L 332.125127 63.339755 
L 337.01774 63.161082 
L 341.910352 63.109907 
L 357.811343 63.3803 
L 359.034496 63.301849 
L 361.480802 63.291056 
L 371.266027 63.22358 
L 374.935486 63.218894 
L 382.274405 63.271648 
L 390.836477 63.260572 
L 393.282783 63.263002 
L 398.175396 63.19535 
L 401.844855 63.242977 
L 406.737467 63.247999 
L 421.415305 63.307067 
L 423.861611 63.282094 
L 427.531071 63.292263 
L 431.20053 63.258614 
L 449.547827 63.329019 
L 454.440439 63.376575 
L 458.109899 63.459004 
L 460.556205 63.445548 
L 464.225664 63.441833 
L 476.457195 63.48901 
L 478.903502 63.414424 
L 515.598095 63.551724 
L 515.598095 63.551724 
" clip-path="url(#p468b101ec9)" style="fill: none; stroke: #4169e1; stroke-width: 1.5; stroke-linecap: square"/>
   </g>
   <g id="line2d_26">
    <path d="M 27.56 97 
L 28.783153 86.64255 
L 30.006306 78.147982 
L 31.229459 67.313997 
L 32.452612 21.6611 
L 33.675766 24.224195 
L 34.898919 27.29647 
L 37.345225 41.159888 
L 38.568378 46.423897 
L 39.791531 48.598773 
L 41.014684 52.544746 
L 42.237837 53.998605 
L 43.460991 56.282751 
L 44.684144 58.897201 
L 45.907297 13.62639 
L 47.13045 18.526494 
L 48.353603 17.722965 
L 49.576756 21.156772 
L 50.799909 23.712398 
L 52.023062 26.772515 
L 53.246216 28.758853 
L 54.469369 31.710294 
L 55.692522 33.648599 
L 56.915675 36.058784 
L 58.138828 38.005147 
L 59.361981 40.171951 
L 61.808287 43.264212 
L 63.031441 45.030877 
L 64.254594 46.339251 
L 65.477747 47.866488 
L 67.924053 50.313774 
L 69.147206 51.553623 
L 70.370359 50.743155 
L 71.593512 50.888913 
L 72.816665 52.009966 
L 74.039819 52.864282 
L 75.262972 53.949228 
L 77.709278 55.620765 
L 78.932431 56.256267 
L 80.155584 57.177234 
L 81.378737 57.850406 
L 82.60189 57.565724 
L 83.825044 58.021569 
L 85.048197 58.106155 
L 86.27135 58.821373 
L 87.494503 58.391825 
L 88.717656 59.129473 
L 89.940809 58.933326 
L 91.163962 59.380351 
L 92.387115 59.52631 
L 94.833422 60.864103 
L 96.056575 60.995884 
L 98.502881 62.076794 
L 99.726034 62.475104 
L 100.949187 62.333502 
L 102.17234 61.618953 
L 104.618647 62.386543 
L 105.8418 62.561091 
L 107.064953 63.081153 
L 108.288106 63.258918 
L 111.957565 64.656625 
L 113.180718 64.365864 
L 115.627025 64.749392 
L 116.850178 64.771825 
L 119.296484 65.38436 
L 120.519637 65.769016 
L 121.74279 64.359316 
L 122.965943 64.672019 
L 124.189097 64.143012 
L 125.41225 62.419574 
L 126.635403 62.838298 
L 127.858556 61.950924 
L 129.081709 61.839028 
L 130.304862 58.9097 
L 131.528015 58.927328 
L 132.751168 59.328566 
L 133.974322 56.818197 
L 137.643781 58.035741 
L 138.866934 58.057522 
L 141.31324 58.831833 
L 142.536393 58.777057 
L 144.9827 59.521611 
L 146.205853 59.776011 
L 147.429006 59.539457 
L 153.544771 60.975043 
L 154.767925 60.872672 
L 160.88369 62.168101 
L 162.106843 62.251098 
L 163.329996 61.840747 
L 165.776303 62.073311 
L 166.999456 60.284751 
L 169.445762 60.728204 
L 170.668915 61.023961 
L 171.892068 60.310858 
L 174.338375 60.909512 
L 175.561528 60.986589 
L 176.784681 60.827504 
L 178.007834 60.849637 
L 179.230987 61.135728 
L 180.45414 61.181981 
L 181.677293 61.456169 
L 185.346753 61.641989 
L 186.569906 60.908249 
L 187.793059 61.172114 
L 191.462518 61.660938 
L 192.685671 60.540908 
L 193.908824 59.60895 
L 195.131978 59.750544 
L 196.355131 59.599297 
L 197.578284 59.118301 
L 202.470896 60.050176 
L 206.140356 60.669407 
L 207.363509 60.609458 
L 208.586662 60.845194 
L 209.809815 60.860346 
L 213.479274 61.373185 
L 215.925581 61.336834 
L 222.041346 62.443747 
L 223.264499 62.474367 
L 224.487652 62.640565 
L 225.710806 61.879009 
L 229.380265 62.148874 
L 230.603418 62.186812 
L 231.826571 62.070845 
L 233.049724 61.472152 
L 235.496031 61.393284 
L 237.942337 61.506101 
L 239.16549 61.677649 
L 241.611796 61.690417 
L 244.058102 62.018268 
L 245.281256 61.412557 
L 246.504409 61.592432 
L 250.173868 61.309048 
L 251.397021 61.46694 
L 252.620174 61.463818 
L 255.06648 61.179861 
L 258.73594 61.195901 
L 259.959093 61.376983 
L 261.182246 61.18676 
L 262.405399 61.132831 
L 263.628552 61.266315 
L 264.851705 60.794119 
L 272.190624 61.54327 
L 273.413777 61.698109 
L 274.63693 61.693892 
L 275.860084 60.697657 
L 279.529543 61.099299 
L 284.422155 61.543251 
L 289.314768 61.39367 
L 296.653687 62.213008 
L 300.323146 62.348311 
L 301.546299 62.483531 
L 302.769452 62.378692 
L 303.992605 62.459185 
L 306.438912 62.215405 
L 307.662065 61.991435 
L 311.331524 62.335915 
L 313.77783 62.479454 
L 316.224137 62.729386 
L 321.116749 62.670958 
L 323.563055 62.90705 
L 324.786208 62.657377 
L 327.232515 62.936217 
L 328.455668 62.804216 
L 330.901974 63.045092 
L 332.125127 62.89249 
L 333.34828 62.522009 
L 334.571433 62.02651 
L 337.01774 62.241476 
L 338.240893 62.219731 
L 344.356658 62.740386 
L 348.026118 62.883015 
L 349.249271 62.976878 
L 350.472424 62.88495 
L 352.91873 63.1358 
L 355.365036 62.992788 
L 356.58819 62.787843 
L 357.811343 62.914005 
L 359.034496 62.383963 
L 362.703955 62.390694 
L 365.150261 62.603788 
L 367.596568 62.757178 
L 368.819721 62.870003 
L 370.042874 62.575989 
L 373.712333 62.862626 
L 378.604946 63.052136 
L 389.613324 63.891871 
L 390.836477 63.763496 
L 401.844855 64.013595 
L 409.183774 64.370894 
L 410.406927 64.468608 
L 411.63008 64.378016 
L 412.853233 64.428763 
L 415.299539 64.263256 
L 416.522692 64.172343 
L 421.415305 64.559329 
L 422.638458 64.493548 
L 423.861611 64.577647 
L 425.084764 64.485602 
L 427.531071 64.620027 
L 428.754224 64.565239 
L 437.316296 65.001228 
L 438.539449 64.268491 
L 440.985755 64.225789 
L 442.208908 64.307171 
L 443.432061 64.208648 
L 445.878367 64.359086 
L 447.10152 64.138997 
L 450.77098 64.383058 
L 451.994133 64.306896 
L 453.217286 64.378531 
L 454.440439 64.260591 
L 455.663592 63.94837 
L 458.109899 64.045972 
L 459.333052 63.919119 
L 467.895124 64.002766 
L 470.34143 64.14756 
L 471.564583 63.966277 
L 474.010889 63.937564 
L 476.457195 64.001752 
L 477.680348 63.20488 
L 483.796114 63.552021 
L 486.24242 63.688202 
L 488.688727 63.490927 
L 494.804492 63.739067 
L 496.027645 63.632458 
L 498.473952 63.687073 
L 499.697105 63.636524 
L 500.920258 63.377701 
L 505.81287 63.299954 
L 511.928636 63.508287 
L 514.374942 63.469423 
L 515.598095 63.551724 
L 515.598095 63.551724 
" clip-path="url(#p468b101ec9)" style="fill: none; stroke-dasharray: 5.55,2.4; stroke-dashoffset: 0; stroke: #4169e1; stroke-width: 1.5"/>
   </g>
   <g id="line2d_27">
    <path d="M 27.56 60.622606 
L 28.783153 57.198851 
L 30.006306 60.034906 
L 31.229459 63.278557 
L 32.452612 57.882889 
L 33.675766 60.001612 
L 34.898919 61.494666 
L 36.122072 62.577784 
L 37.345225 63.0061 
L 38.568378 63.567893 
L 39.791531 64.340479 
L 41.014684 64.236029 
L 42.237837 64.711637 
L 43.460991 64.283006 
L 44.684144 64.663749 
L 45.907297 62.545271 
L 47.13045 62.598045 
L 48.353603 63.465612 
L 49.576756 63.01165 
L 50.799909 63.28373 
L 52.023062 63.389903 
L 53.246216 63.672691 
L 54.469369 63.765359 
L 55.692522 64.04749 
L 59.361981 64.272148 
L 64.254594 64.131389 
L 65.477747 64.211263 
L 66.7009 64.063449 
L 69.147206 64.095034 
L 70.370359 63.703204 
L 71.593512 63.907242 
L 72.816665 63.936206 
L 74.039819 64.188828 
L 77.709278 64.203031 
L 80.155584 64.033899 
L 83.825044 64.124955 
L 87.494503 64.543915 
L 88.717656 64.511006 
L 91.163962 64.773259 
L 92.387115 64.601321 
L 94.833422 64.607782 
L 98.502881 64.817302 
L 100.949187 64.630904 
L 102.17234 64.469383 
L 103.395493 64.553587 
L 108.288106 64.421325 
L 111.957565 64.423714 
L 113.180718 64.556691 
L 114.403872 64.457879 
L 115.627025 64.546684 
L 116.850178 64.458179 
L 120.519637 64.587838 
L 121.74279 64.351061 
L 124.189097 64.151554 
L 125.41225 63.943254 
L 126.635403 63.930193 
L 127.858556 63.734824 
L 129.081709 63.660335 
L 130.304862 63.345466 
L 131.528015 63.224675 
L 132.751168 63.243934 
L 133.974322 63.012401 
L 137.643781 63.060939 
L 143.759546 63.27614 
L 146.205853 63.348176 
L 148.652159 63.512738 
L 155.991078 63.517307 
L 165.776303 63.363441 
L 166.999456 63.146969 
L 170.668915 63.127471 
L 171.892068 62.986763 
L 175.561528 63.039038 
L 179.230987 63.168879 
L 185.346753 63.389796 
L 187.793059 63.337606 
L 191.462518 63.453562 
L 193.908824 63.210503 
L 196.355131 63.06783 
L 197.578284 63.176323 
L 206.140356 63.143147 
L 212.256121 63.295067 
L 224.487652 63.545563 
L 226.933959 63.435161 
L 231.826571 63.624334 
L 234.272877 63.511094 
L 239.16549 63.413239 
L 244.058102 63.55639 
L 246.504409 63.468787 
L 250.173868 63.539484 
L 255.06648 63.525205 
L 257.512787 63.514015 
L 259.959093 63.527764 
L 263.628552 63.425921 
L 266.074859 63.343383 
L 270.967471 63.400934 
L 281.975849 63.285747 
L 327.232515 63.318339 
L 332.125127 63.370821 
L 338.240893 63.193815 
L 368.819721 63.354683 
L 373.712333 63.288901 
L 381.051252 63.342301 
L 390.836477 63.346451 
L 395.729089 63.322097 
L 399.398549 63.32697 
L 454.440439 63.459216 
L 458.109899 63.531097 
L 460.556205 63.509358 
L 469.118277 63.561087 
L 476.457195 63.527129 
L 478.903502 63.47527 
L 515.598095 63.551724 
L 515.598095 63.551724 
" clip-path="url(#p468b101ec9)" style="fill: none; stroke: #ff8c00; stroke-width: 1.5; stroke-linecap: square"/>
   </g>
   <g id="line2d_28">
    <path d="M 27.56 97 
L 30.006306 83.669984 
L 31.229459 69.398896 
L 32.452612 9.971651 
L 33.675766 11.95852 
L 34.898919 16.647724 
L 36.122072 22.111802 
L 37.345225 29.61419 
L 38.568378 34.768581 
L 39.791531 37.097051 
L 41.014684 42.022034 
L 42.237837 44.737232 
L 44.684144 49.330457 
L 45.907297 14.764893 
L 47.13045 19.577399 
L 48.353603 16.742461 
L 49.576756 18.897715 
L 50.799909 22.018391 
L 52.023062 25.463205 
L 53.246216 27.778281 
L 54.469369 30.682556 
L 55.692522 32.424743 
L 56.915675 34.893831 
L 60.585134 41.310593 
L 61.808287 42.889472 
L 63.031441 44.654875 
L 65.477747 47.611618 
L 66.7009 48.718296 
L 69.147206 51.421592 
L 70.370359 49.690735 
L 71.593512 50.1335 
L 72.816665 51.349518 
L 74.039819 51.167537 
L 76.486125 53.312577 
L 77.709278 54.256658 
L 78.932431 54.903234 
L 81.378737 56.701256 
L 82.60189 57.421794 
L 85.048197 57.973311 
L 86.27135 58.701083 
L 87.494503 58.177891 
L 88.717656 58.908908 
L 89.940809 58.89509 
L 91.163962 59.322487 
L 92.387115 59.146379 
L 94.833422 60.432092 
L 96.056575 60.769073 
L 98.502881 61.790857 
L 99.726034 62.305416 
L 100.949187 62.222642 
L 102.17234 61.896004 
L 103.395493 62.208042 
L 104.618647 62.657877 
L 105.8418 62.530686 
L 107.064953 63.052607 
L 109.511259 63.928211 
L 111.957565 64.787141 
L 113.180718 64.550504 
L 115.627025 64.741531 
L 118.073331 65.044699 
L 120.519637 65.811819 
L 121.74279 63.804079 
L 122.965943 64.005386 
L 124.189097 63.689487 
L 125.41225 62.164838 
L 126.635403 62.58195 
L 127.858556 61.251072 
L 129.081709 61.419803 
L 130.304862 57.193768 
L 131.528015 56.964962 
L 132.751168 57.407346 
L 133.974322 55.256179 
L 135.197475 55.724573 
L 136.420628 56.043285 
L 137.643781 56.493314 
L 140.090087 57.07668 
L 141.31324 57.423637 
L 142.536393 57.408452 
L 144.9827 58.190989 
L 146.205853 58.410522 
L 147.429006 58.139541 
L 148.652159 58.363493 
L 151.098465 58.989431 
L 153.544771 59.62408 
L 154.767925 59.781652 
L 159.660537 61.095742 
L 160.88369 61.363824 
L 162.106843 61.480341 
L 163.329996 61.026304 
L 165.776303 61.100368 
L 166.999456 58.433199 
L 170.668915 59.225983 
L 171.892068 58.240453 
L 174.338375 58.872338 
L 175.561528 58.979447 
L 176.784681 58.853502 
L 178.007834 58.91512 
L 179.230987 59.212874 
L 180.45414 59.227491 
L 181.677293 59.524904 
L 186.569906 59.732638 
L 189.016212 60.215088 
L 191.462518 60.461648 
L 192.685671 58.901711 
L 193.908824 58.602849 
L 196.355131 58.374152 
L 197.578284 57.737564 
L 200.02459 58.262353 
L 201.247743 58.339718 
L 206.140356 59.302285 
L 207.363509 59.339538 
L 208.586662 59.544456 
L 209.809815 59.501214 
L 214.702427 60.076721 
L 215.925581 60.043265 
L 222.041346 61.061878 
L 223.264499 61.054363 
L 224.487652 61.192484 
L 225.710806 60.774411 
L 226.933959 60.932003 
L 228.157112 60.947951 
L 229.380265 61.108649 
L 231.826571 60.898696 
L 233.049724 60.313931 
L 234.272877 60.488442 
L 235.496031 60.452791 
L 239.16549 60.929446 
L 241.611796 60.83983 
L 244.058102 61.156383 
L 245.281256 60.586752 
L 246.504409 60.789027 
L 250.173868 60.5892 
L 252.620174 60.899241 
L 256.289634 60.403643 
L 257.512787 60.415312 
L 259.959093 60.719878 
L 262.405399 60.127283 
L 263.628552 60.200315 
L 264.851705 59.969614 
L 267.298012 60.158891 
L 269.744318 60.397159 
L 274.63693 60.875028 
L 275.860084 59.73517 
L 283.199002 60.561928 
L 286.868462 60.545677 
L 288.091615 60.311222 
L 289.314768 60.25977 
L 292.984227 60.746609 
L 294.20738 60.718706 
L 296.653687 61.044228 
L 297.87684 61.001217 
L 301.546299 61.38657 
L 302.769452 61.13604 
L 305.215758 61.12991 
L 306.438912 60.960283 
L 307.662065 60.60941 
L 310.108371 60.887563 
L 312.554677 60.961868 
L 317.44729 61.428687 
L 318.670443 61.550131 
L 321.116749 61.292572 
L 323.563055 61.508194 
L 324.786208 61.291403 
L 327.232515 61.567532 
L 328.455668 61.484483 
L 332.125127 61.785666 
L 334.571433 61.273711 
L 337.01774 61.482142 
L 338.240893 61.378308 
L 345.579811 62.02803 
L 355.365036 62.45282 
L 356.58819 62.217104 
L 357.811343 62.245682 
L 359.034496 61.699305 
L 360.257649 61.735046 
L 361.480802 61.65636 
L 368.819721 62.266636 
L 370.042874 62.096625 
L 373.712333 62.391526 
L 376.158639 62.492173 
L 378.604946 62.646758 
L 388.390171 63.476495 
L 390.836477 63.141442 
L 395.729089 63.400323 
L 396.952243 63.35771 
L 398.175396 63.468346 
L 399.398549 63.364885 
L 405.514314 63.827105 
L 406.737467 63.732794 
L 410.406927 63.994832 
L 411.63008 63.768253 
L 412.853233 63.821936 
L 416.522692 63.659411 
L 421.415305 64.008334 
L 422.638458 63.980225 
L 423.861611 64.076855 
L 425.084764 64.022075 
L 427.531071 64.125257 
L 429.977377 64.192211 
L 437.316296 64.502806 
L 438.539449 64.018291 
L 444.655214 64.068297 
L 445.878367 64.161176 
L 447.10152 63.929713 
L 453.217286 64.090436 
L 454.440439 64.026362 
L 455.663592 63.670605 
L 458.109899 63.772349 
L 459.333052 63.559373 
L 470.34143 63.902544 
L 471.564583 63.544421 
L 475.234042 63.56885 
L 476.457195 63.616004 
L 477.680348 63.089098 
L 483.796114 63.46711 
L 486.24242 63.585376 
L 487.465573 63.345101 
L 489.91188 63.396454 
L 494.804492 63.596458 
L 496.027645 63.523288 
L 498.473952 63.596127 
L 499.697105 63.586233 
L 500.920258 63.294129 
L 508.259177 63.43523 
L 511.928636 63.586444 
L 514.374942 63.505743 
L 515.598095 63.551724 
L 515.598095 63.551724 
" clip-path="url(#p468b101ec9)" style="fill: none; stroke-dasharray: 5.55,2.4; stroke-dashoffset: 0; stroke: #ff8c00; stroke-width: 1.5"/>
   </g>
   <g id="patch_3">
    <path d="M 27.56 97 
L 27.56 0 
" style="fill: none; stroke: #000000; stroke-width: 0.8; stroke-linejoin: miter; stroke-linecap: square"/>
   </g>
   <g id="patch_4">
    <path d="M 540 97 
L 540 0 
" style="fill: none; stroke: #000000; stroke-width: 0.8; stroke-linejoin: miter; stroke-linecap: square"/>
   </g>
   <g id="patch_5">
    <path d="M 27.56 97 
L 540 97 
" style="fill: none; stroke: #000000; stroke-width: 0.8; stroke-linejoin: miter; stroke-linecap: square"/>
   </g>
   <g id="patch_6">
    <path d="M 27.56 0 
L 540 0 
" style="fill: none; stroke: #000000; stroke-width: 0.8; stroke-linejoin: miter; stroke-linecap: square"/>
   </g>
  </g>
 </g>
 <defs>
  <clipPath id="p468b101ec9">
   <rect x="27.56" y="0" width="512.44" height="97"/>
  </clipPath>
 </defs>
</svg>
