<?xml version="1.0" encoding="utf-8" standalone="no"?>
<!DOCTYPE svg PUBLIC "-//W3C//DTD SVG 1.1//EN"
  "http://www.w3.org/Graphics/SVG/1.1/DTD/svg11.dtd">
<svg xmlns:xlink="http://www.w3.org/1999/xlink" width="540pt" height="129.6pt" viewBox="0 0 540 129.6" xmlns="http://www.w3.org/2000/svg" version="1.1">
 <metadata>
  <rdf:RDF xmlns:dc="http://purl.org/dc/elements/1.1/" xmlns:cc="http://creativecommons.org/ns#" xmlns:rdf="http://www.w3.org/1999/02/22-rdf-syntax-ns#">
   <cc:Work>
    <dc:type rdf:resource="http://purl.org/dc/dcmitype/StillImage"/>
    <dc:date>2025-03-30T13:00:34.822484</dc:date>
    <dc:format>image/svg+xml</dc:format>
    <dc:creator>
     <cc:Agent>
      <dc:title>Matplotlib v3.8.3, https://matplotlib.org/</dc:title>
     </cc:Agent>
    </dc:creator>
   </cc:Work>
  </rdf:RDF>
 </metadata>
 <defs>
  <style type="text/css">*{stroke-linejoin: round; stroke-linecap: butt}</style>
 </defs>
 <g id="figure_1">
  <g id="patch_1">
   <path d="M 0 129.6 
L 540 129.6 
L 540 0 
L 0 0 
z
" style="fill: #ffffff"/>
  </g>
  <g id="axes_1">
   <g id="patch_2">
    <path d="M 35.03 97 
L 540 97 
L 540 0 
L 35.03 0 
z
" style="fill: #ffffff"/>
   </g>
   <g id="matplotlib.axis_1">
    <g id="xtick_1">
     <g id="line2d_1">
      <path d="M 35.03 97 
L 35.03 0 
" clip-path="url(#pf6363762fc)" style="fill: none; stroke: #b0b0b0; stroke-width: 0.8; stroke-linecap: square"/>
     </g>
     <g id="line2d_2">
      <defs>
       <path id="m1acf18648f" d="M 0 0 
L 0 3.5 
" style="stroke: #000000; stroke-width: 0.8"/>
      </defs>
      <g>
       <use xlink:href="#m1acf18648f" x="35.03" y="97" style="stroke: #000000; stroke-width: 0.8"/>
      </g>
     </g>
     <g id="text_1">
      <text style="font: 10px 'Times New Roman'; text-anchor: middle" x="35.03" y="110.94375" transform="rotate(-0 35.03 110.94375)">0</text>
     </g>
    </g>
    <g id="xtick_2">
     <g id="line2d_3">
      <path d="M 95.296142 97 
L 95.296142 0 
" clip-path="url(#pf6363762fc)" style="fill: none; stroke: #b0b0b0; stroke-width: 0.8; stroke-linecap: square"/>
     </g>
     <g id="line2d_4">
      <g>
       <use xlink:href="#m1acf18648f" x="95.296142" y="97" style="stroke: #000000; stroke-width: 0.8"/>
      </g>
     </g>
     <g id="text_2">
      <text style="font: 10px 'Times New Roman'; text-anchor: middle" x="95.296142" y="110.94375" transform="rotate(-0 95.296142 110.94375)">50</text>
     </g>
    </g>
    <g id="xtick_3">
     <g id="line2d_5">
      <path d="M 155.562283 97 
L 155.562283 0 
" clip-path="url(#pf6363762fc)" style="fill: none; stroke: #b0b0b0; stroke-width: 0.8; stroke-linecap: square"/>
     </g>
     <g id="line2d_6">
      <g>
       <use xlink:href="#m1acf18648f" x="155.562283" y="97" style="stroke: #000000; stroke-width: 0.8"/>
      </g>
     </g>
     <g id="text_3">
      <text style="font: 10px 'Times New Roman'; text-anchor: middle" x="155.562283" y="110.94375" transform="rotate(-0 155.562283 110.94375)">100</text>
     </g>
    </g>
    <g id="xtick_4">
     <g id="line2d_7">
      <path d="M 215.828425 97 
L 215.828425 0 
" clip-path="url(#pf6363762fc)" style="fill: none; stroke: #b0b0b0; stroke-width: 0.8; stroke-linecap: square"/>
     </g>
     <g id="line2d_8">
      <g>
       <use xlink:href="#m1acf18648f" x="215.828425" y="97" style="stroke: #000000; stroke-width: 0.8"/>
      </g>
     </g>
     <g id="text_4">
      <text style="font: 10px 'Times New Roman'; text-anchor: middle" x="215.828425" y="110.94375" transform="rotate(-0 215.828425 110.94375)">150</text>
     </g>
    </g>
    <g id="xtick_5">
     <g id="line2d_9">
      <path d="M 276.094566 97 
L 276.094566 0 
" clip-path="url(#pf6363762fc)" style="fill: none; stroke: #b0b0b0; stroke-width: 0.8; stroke-linecap: square"/>
     </g>
     <g id="line2d_10">
      <g>
       <use xlink:href="#m1acf18648f" x="276.094566" y="97" style="stroke: #000000; stroke-width: 0.8"/>
      </g>
     </g>
     <g id="text_5">
      <text style="font: 10px 'Times New Roman'; text-anchor: middle" x="276.094566" y="110.94375" transform="rotate(-0 276.094566 110.94375)">200</text>
     </g>
    </g>
    <g id="xtick_6">
     <g id="line2d_11">
      <path d="M 336.360708 97 
L 336.360708 0 
" clip-path="url(#pf6363762fc)" style="fill: none; stroke: #b0b0b0; stroke-width: 0.8; stroke-linecap: square"/>
     </g>
     <g id="line2d_12">
      <g>
       <use xlink:href="#m1acf18648f" x="336.360708" y="97" style="stroke: #000000; stroke-width: 0.8"/>
      </g>
     </g>
     <g id="text_6">
      <text style="font: 10px 'Times New Roman'; text-anchor: middle" x="336.360708" y="110.94375" transform="rotate(-0 336.360708 110.94375)">250</text>
     </g>
    </g>
    <g id="xtick_7">
     <g id="line2d_13">
      <path d="M 396.626849 97 
L 396.626849 0 
" clip-path="url(#pf6363762fc)" style="fill: none; stroke: #b0b0b0; stroke-width: 0.8; stroke-linecap: square"/>
     </g>
     <g id="line2d_14">
      <g>
       <use xlink:href="#m1acf18648f" x="396.626849" y="97" style="stroke: #000000; stroke-width: 0.8"/>
      </g>
     </g>
     <g id="text_7">
      <text style="font: 10px 'Times New Roman'; text-anchor: middle" x="396.626849" y="110.94375" transform="rotate(-0 396.626849 110.94375)">300</text>
     </g>
    </g>
    <g id="xtick_8">
     <g id="line2d_15">
      <path d="M 456.892991 97 
L 456.892991 0 
" clip-path="url(#pf6363762fc)" style="fill: none; stroke: #b0b0b0; stroke-width: 0.8; stroke-linecap: square"/>
     </g>
     <g id="line2d_16">
      <g>
       <use xlink:href="#m1acf18648f" x="456.892991" y="97" style="stroke: #000000; stroke-width: 0.8"/>
      </g>
     </g>
     <g id="text_8">
      <text style="font: 10px 'Times New Roman'; text-anchor: middle" x="456.892991" y="110.94375" transform="rotate(-0 456.892991 110.94375)">350</text>
     </g>
    </g>
    <g id="xtick_9">
     <g id="line2d_17">
      <path d="M 517.159132 97 
L 517.159132 0 
" clip-path="url(#pf6363762fc)" style="fill: none; stroke: #b0b0b0; stroke-width: 0.8; stroke-linecap: square"/>
     </g>
     <g id="line2d_18">
      <g>
       <use xlink:href="#m1acf18648f" x="517.159132" y="97" style="stroke: #000000; stroke-width: 0.8"/>
      </g>
     </g>
     <g id="text_9">
      <text style="font: 10px 'Times New Roman'; text-anchor: middle" x="517.159132" y="110.94375" transform="rotate(-0 517.159132 110.94375)">400</text>
     </g>
    </g>
    <g id="text_10">
     <text style="font: 12px 'Times New Roman'; text-anchor: middle" x="287.515" y="125.415312" transform="rotate(-0 287.515 125.415312)">Simulation Run</text>
    </g>
   </g>
   <g id="matplotlib.axis_2">
    <g id="ytick_1">
     <g id="line2d_19">
      <path d="M 35.03 97 
L 540 97 
" clip-path="url(#pf6363762fc)" style="fill: none; stroke: #b0b0b0; stroke-width: 0.8; stroke-linecap: square"/>
     </g>
     <g id="line2d_20">
      <defs>
       <path id="m2cbc558127" d="M 0 0 
L -3.5 0 
" style="stroke: #000000; stroke-width: 0.8"/>
      </defs>
      <g>
       <use xlink:href="#m2cbc558127" x="35.03" y="97" style="stroke: #000000; stroke-width: 0.8"/>
      </g>
     </g>
     <g id="text_11">
      <text style="font: 10px 'Times New Roman'; text-anchor: end" x="28.03" y="100.471875" transform="rotate(-0 28.03 100.471875)">0.0</text>
     </g>
    </g>
    <g id="ytick_2">
     <g id="line2d_21">
      <path d="M 35.03 56.583333 
L 540 56.583333 
" clip-path="url(#pf6363762fc)" style="fill: none; stroke: #b0b0b0; stroke-width: 0.8; stroke-linecap: square"/>
     </g>
     <g id="line2d_22">
      <g>
       <use xlink:href="#m2cbc558127" x="35.03" y="56.583333" style="stroke: #000000; stroke-width: 0.8"/>
      </g>
     </g>
     <g id="text_12">
      <text style="font: 10px 'Times New Roman'; text-anchor: end" x="28.03" y="60.055208" transform="rotate(-0 28.03 60.055208)">0.5</text>
     </g>
    </g>
    <g id="ytick_3">
     <g id="line2d_23">
      <path d="M 35.03 16.166667 
L 540 16.166667 
" clip-path="url(#pf6363762fc)" style="fill: none; stroke: #b0b0b0; stroke-width: 0.8; stroke-linecap: square"/>
     </g>
     <g id="line2d_24">
      <g>
       <use xlink:href="#m2cbc558127" x="35.03" y="16.166667" style="stroke: #000000; stroke-width: 0.8"/>
      </g>
     </g>
     <g id="text_13">
      <text style="font: 10px 'Times New Roman'; text-anchor: end" x="28.03" y="19.638542" transform="rotate(-0 28.03 19.638542)">1.0</text>
     </g>
    </g>
    <g id="text_14">
     <text style="font: 12px 'Times New Roman'; text-anchor: middle" x="8.963125" y="48.5" transform="rotate(-90 8.963125 48.5)">Normalized Value</text>
    </g>
   </g>
   <g id="line2d_25">
    <path d="M 35.03 28.708683 
L 36.235323 39.032062 
L 37.440646 36.465949 
L 38.645968 30.033022 
L 39.851291 30.371457 
L 41.056614 25.98916 
L 42.261937 26.926693 
L 43.46726 23.03646 
L 45.877905 16.579109 
L 47.083228 17.385584 
L 48.288551 18.462433 
L 49.493874 17.888994 
L 50.699197 17.491714 
L 51.90452 16.334381 
L 54.315165 15.188673 
L 55.520488 13.840937 
L 57.931134 16.082855 
L 60.341779 16.439263 
L 61.547102 15.333876 
L 62.752425 16.157268 
L 63.957748 16.281106 
L 65.163071 17.278737 
L 66.368394 17.261255 
L 68.779039 16.936244 
L 69.984362 15.088017 
L 71.189685 15.395202 
L 72.395008 15.090573 
L 73.600331 15.176697 
L 74.805653 15.470555 
L 77.216299 15.409934 
L 78.421622 15.285391 
L 79.626945 15.465878 
L 80.832268 14.437975 
L 82.03759 14.480902 
L 83.242913 14.951998 
L 84.448236 14.819846 
L 85.653559 15.293303 
L 88.064205 15.807289 
L 89.269527 15.715274 
L 90.47485 15.79232 
L 91.680173 16.425346 
L 92.885496 16.373777 
L 94.090819 17.009047 
L 95.296142 17.014448 
L 96.501464 17.605391 
L 97.706787 17.834407 
L 100.117433 17.575217 
L 101.322756 17.171642 
L 103.733401 17.170638 
L 104.938724 17.762271 
L 106.144047 16.391806 
L 108.554693 16.889374 
L 109.760016 16.805062 
L 110.965338 16.86233 
L 112.170661 17.357764 
L 115.78663 17.456274 
L 116.991953 17.626571 
L 119.402598 17.586248 
L 120.607921 17.781337 
L 121.813244 17.66646 
L 123.018567 17.415603 
L 125.429212 17.328032 
L 127.839858 17.082 
L 129.045181 17.216468 
L 130.250504 17.486958 
L 131.455826 17.536681 
L 133.866472 17.246753 
L 135.071795 17.382186 
L 137.482441 17.453774 
L 139.893086 17.697438 
L 141.098409 17.448473 
L 142.303732 17.624667 
L 143.509055 17.6239 
L 144.714378 16.97388 
L 148.330346 17.152427 
L 149.535669 16.273653 
L 150.740992 15.795842 
L 151.946315 15.752585 
L 153.151637 15.861011 
L 155.562283 16.356174 
L 159.178252 16.179296 
L 160.383574 16.257601 
L 161.588897 15.925849 
L 162.79422 15.719396 
L 163.999543 16.052368 
L 165.204866 16.011166 
L 166.410189 15.676716 
L 167.615511 15.787433 
L 168.820834 15.685355 
L 170.026157 15.862898 
L 173.642126 15.94093 
L 174.847448 15.783285 
L 176.052771 15.792041 
L 179.66874 15.552214 
L 182.079385 15.861771 
L 184.490031 15.925645 
L 185.695354 15.958838 
L 186.900677 15.738798 
L 189.311322 15.775741 
L 194.132614 16.033192 
L 195.337937 16.237843 
L 200.159228 16.498419 
L 201.364551 16.274603 
L 206.185842 16.69496 
L 209.80181 16.463843 
L 211.007133 16.617965 
L 213.417779 16.381507 
L 214.623102 16.575006 
L 217.033747 16.367746 
L 219.444393 16.577582 
L 220.649716 16.338288 
L 221.855039 16.549954 
L 223.060362 16.573189 
L 224.265684 16.755638 
L 226.67633 16.604667 
L 227.881653 16.535472 
L 229.086976 16.127952 
L 230.292299 16.132073 
L 231.497621 16.34841 
L 233.908267 16.184034 
L 235.11359 16.384403 
L 241.140204 16.319943 
L 244.756173 16.593839 
L 245.961495 16.366475 
L 247.166818 16.342049 
L 248.372141 16.447981 
L 249.577464 16.266178 
L 251.98811 16.062852 
L 253.193432 15.886593 
L 255.604078 16.05617 
L 256.809401 15.881779 
L 272.478598 16.00663 
L 273.683921 15.845711 
L 277.299889 16.082802 
L 278.505212 16.222622 
L 279.710535 16.047661 
L 284.531826 15.925485 
L 285.737149 16.026708 
L 289.353117 16.04017 
L 291.763763 16.27516 
L 305.022314 16.308057 
L 311.048928 16.402274 
L 313.459574 16.332165 
L 315.87022 16.369489 
L 318.280865 16.0892 
L 324.307479 16.259103 
L 326.718125 16.305841 
L 332.744739 16.161449 
L 335.155385 15.930016 
L 337.566031 15.928165 
L 338.771353 16.039529 
L 341.181999 16.008011 
L 346.00329 16.230892 
L 355.645873 16.223391 
L 356.851196 16.249785 
L 358.056519 16.114893 
L 362.87781 16.118533 
L 367.699101 15.824423 
L 368.904424 15.909911 
L 370.109747 15.793541 
L 372.520393 15.893543 
L 373.725715 15.742901 
L 378.547007 15.671733 
L 380.957652 15.622111 
L 388.189589 15.35153 
L 393.010881 15.460241 
L 395.421526 15.33708 
L 397.832172 15.486302 
L 400.242818 15.433607 
L 403.858786 15.54449 
L 409.8854 15.584713 
L 412.296046 15.681518 
L 413.501369 15.745232 
L 417.117337 15.49528 
L 418.32266 15.534136 
L 420.733306 15.337977 
L 423.143952 15.442909 
L 424.349274 15.459324 
L 426.75992 15.328172 
L 429.170566 15.285997 
L 431.581211 15.084219 
L 440.018471 15.205349 
L 441.223794 14.9882 
L 443.63444 15.088562 
L 446.045085 15.153771 
L 450.866377 15.31368 
L 453.277022 15.282164 
L 458.098314 15.222626 
L 460.508959 15.188172 
L 461.714282 15.273307 
L 464.124928 15.204998 
L 479.794125 15.45704 
L 485.820739 15.748598 
L 489.436707 15.742413 
L 494.257999 15.942889 
L 503.900581 15.909728 
L 514.748487 16.199833 
L 515.95381 16.166667 
L 515.95381 16.166667 
" clip-path="url(#pf6363762fc)" style="fill: none; stroke: #4169e1; stroke-width: 1.5; stroke-linecap: square"/>
   </g>
   <g id="line2d_26">
    <path d="M 35.03 97 
L 36.235323 75.616734 
L 37.440646 80.10201 
L 38.645968 59.416787 
L 39.851291 66.841503 
L 41.056614 52.601372 
L 42.261937 57.885864 
L 43.46726 41.519228 
L 45.877905 18.948136 
L 47.083228 24.738755 
L 48.288551 28.201157 
L 50.699197 36.882684 
L 51.90452 37.128016 
L 53.109842 39.841112 
L 54.315165 42.192979 
L 55.520488 39.042131 
L 56.725811 37.212034 
L 57.931134 35.759327 
L 59.136457 38.56797 
L 60.341779 41.067548 
L 61.547102 38.10576 
L 62.752425 37.430933 
L 63.957748 39.739846 
L 65.163071 36.949755 
L 66.368394 39.172244 
L 68.779039 42.87194 
L 69.984362 24.799741 
L 73.600331 30.222477 
L 74.805653 31.614755 
L 77.216299 35.199401 
L 78.421622 36.757647 
L 79.626945 38.101132 
L 80.832268 31.555375 
L 82.03759 33.177071 
L 83.242913 32.95254 
L 84.448236 34.33381 
L 85.653559 33.902125 
L 88.064205 35.566511 
L 90.47485 38.051093 
L 91.680173 35.500243 
L 92.885496 36.729727 
L 94.090819 33.967395 
L 95.296142 35.203036 
L 96.501464 32.817963 
L 97.706787 33.481721 
L 100.117433 35.434215 
L 101.322756 34.736216 
L 103.733401 36.826178 
L 104.938724 33.772617 
L 106.144047 12.592371 
L 108.554693 13.824896 
L 110.965338 16.295614 
L 112.170661 14.385249 
L 113.375984 15.630894 
L 115.78663 17.821893 
L 116.991953 18.57371 
L 119.402598 20.748654 
L 120.607921 21.265511 
L 121.813244 22.112325 
L 123.018567 22.202585 
L 125.429212 24.077405 
L 129.045181 26.0992 
L 130.250504 25.825722 
L 131.455826 26.664731 
L 132.661149 27.25186 
L 135.071795 28.186248 
L 137.482441 29.719808 
L 139.893086 30.736492 
L 141.098409 30.386592 
L 142.303732 30.572368 
L 143.509055 31.302331 
L 144.714378 24.301617 
L 145.9197 25.061441 
L 148.330346 26.373815 
L 149.535669 12.389501 
L 150.740992 8.864189 
L 151.946315 9.727116 
L 153.151637 10.377491 
L 154.35696 9.430388 
L 155.562283 9.549835 
L 160.383574 12.419784 
L 161.588897 10.898996 
L 162.79422 10.797154 
L 163.999543 9.215033 
L 165.204866 9.983612 
L 166.410189 8.328312 
L 168.820834 9.411525 
L 170.026157 9.478281 
L 173.642126 11.689641 
L 174.847448 11.840366 
L 176.052771 12.560258 
L 177.258094 13.001608 
L 178.463417 13.701579 
L 179.66874 13.96671 
L 180.874063 13.949253 
L 182.079385 14.144742 
L 183.284708 14.806779 
L 184.490031 15.306442 
L 185.695354 15.927169 
L 186.900677 15.341469 
L 189.311322 16.452387 
L 191.721968 17.630599 
L 192.927291 17.733705 
L 194.132614 18.039957 
L 195.337937 17.511551 
L 197.748582 18.521393 
L 198.953905 18.248242 
L 200.159228 18.503935 
L 201.364551 17.681597 
L 202.569873 17.883851 
L 203.775196 17.529627 
L 204.980519 17.841543 
L 206.185842 18.365967 
L 207.391165 18.681645 
L 208.596488 19.14318 
L 209.80181 19.444163 
L 211.007133 19.275909 
L 212.212456 19.657921 
L 213.417779 19.35088 
L 214.623102 18.74917 
L 217.033747 19.127491 
L 218.23907 19.232266 
L 219.444393 19.461859 
L 220.649716 18.192742 
L 221.855039 17.304555 
L 223.060362 17.79527 
L 224.265684 17.247961 
L 225.471007 17.294055 
L 226.67633 17.761351 
L 227.881653 18.099806 
L 229.086976 13.222049 
L 230.292299 13.735472 
L 231.497621 12.712525 
L 233.908267 13.27764 
L 235.11359 12.441757 
L 241.140204 14.793998 
L 242.345527 15.162882 
L 243.55085 14.690794 
L 244.756173 15.060736 
L 245.961495 13.711159 
L 247.166818 14.160648 
L 248.372141 14.227507 
L 249.577464 13.509458 
L 250.782787 13.841573 
L 251.98811 13.56488 
L 253.193432 12.895051 
L 254.398755 13.23031 
L 255.604078 13.231322 
L 256.809401 12.561344 
L 258.014724 13.008013 
L 262.836015 14.087188 
L 264.041338 13.671239 
L 266.451984 14.428408 
L 267.657306 14.533674 
L 270.067952 15.197555 
L 271.273275 14.638339 
L 272.478598 14.324365 
L 273.683921 13.71107 
L 276.094566 14.378074 
L 278.505212 13.523998 
L 279.710535 12.686349 
L 284.531826 13.927051 
L 285.737149 13.896912 
L 286.942472 14.278947 
L 288.147794 14.506414 
L 289.353117 14.854943 
L 290.55844 14.3906 
L 291.763763 14.401957 
L 296.585054 15.817627 
L 297.790377 16.117487 
L 298.9957 16.27421 
L 301.406346 16.929985 
L 302.611668 16.595665 
L 303.816991 16.949039 
L 305.022314 15.656548 
L 309.843605 16.932653 
L 311.048928 16.853689 
L 312.254251 16.976375 
L 313.459574 17.321297 
L 314.664897 17.439858 
L 315.87022 17.732128 
L 317.075542 16.310049 
L 318.280865 16.297435 
L 320.691511 16.883251 
L 321.896834 17.044527 
L 323.102157 16.382408 
L 324.307479 16.675595 
L 325.512802 16.828418 
L 327.923448 17.462255 
L 329.128771 17.63283 
L 331.539416 18.168912 
L 332.744739 17.4171 
L 333.950062 17.008854 
L 335.155385 16.718898 
L 337.566031 17.325075 
L 338.771353 17.012912 
L 341.181999 17.603407 
L 342.387322 17.564497 
L 343.592645 16.75879 
L 346.00329 16.848542 
L 347.208613 17.150417 
L 348.413936 17.239905 
L 350.824582 17.786984 
L 352.029905 17.752366 
L 353.235227 18.011855 
L 354.44055 17.865634 
L 356.851196 18.384769 
L 358.056519 17.698578 
L 360.467164 18.23895 
L 361.672487 18.221047 
L 364.083133 17.629028 
L 365.288456 17.039533 
L 366.493778 16.832442 
L 367.699101 17.086459 
L 368.904424 16.967734 
L 370.109747 16.49922 
L 371.31507 16.382235 
L 372.520393 16.656492 
L 373.725715 15.661931 
L 377.341684 16.493296 
L 378.547007 16.236342 
L 379.75233 16.168849 
L 380.957652 16.403225 
L 382.162975 16.464426 
L 383.368298 16.70553 
L 384.573621 15.276116 
L 390.600235 16.270364 
L 391.805558 16.284981 
L 393.010881 16.492367 
L 394.216204 16.067395 
L 395.421526 16.322927 
L 399.037495 16.13841 
L 400.242818 16.381546 
L 402.653463 16.469345 
L 407.474755 17.436578 
L 408.680078 17.51736 
L 409.8854 17.720615 
L 411.090723 17.327693 
L 412.296046 17.579982 
L 413.501369 17.576346 
L 414.706692 16.930101 
L 415.912015 16.82382 
L 418.32266 17.034501 
L 419.527983 16.571457 
L 420.733306 16.29475 
L 421.938629 15.826423 
L 424.349274 16.309999 
L 425.554597 15.889404 
L 429.170566 16.486166 
L 430.375889 15.739885 
L 431.581211 15.573449 
L 432.786534 15.783352 
L 435.19718 15.793939 
L 437.607826 16.273215 
L 438.813148 16.291158 
L 440.018471 16.433317 
L 441.223794 13.483244 
L 442.429117 13.176431 
L 444.839763 13.646987 
L 446.045085 13.456617 
L 447.250408 13.438592 
L 448.455731 13.667116 
L 449.661054 13.668554 
L 450.866377 13.867071 
L 452.071699 13.841161 
L 454.482345 14.250072 
L 455.687668 14.035037 
L 459.303636 14.613896 
L 460.508959 14.832813 
L 461.714282 14.549458 
L 462.919605 14.490359 
L 465.330251 14.933788 
L 471.356865 15.303307 
L 472.562188 15.322095 
L 477.383479 16.075087 
L 480.999447 15.91489 
L 484.615416 15.593818 
L 489.436707 16.29183 
L 493.052676 15.883545 
L 495.463321 16.288456 
L 496.668644 16.29715 
L 499.07929 16.658445 
L 500.284613 16.732454 
L 502.695258 16.322985 
L 505.105904 16.589062 
L 506.311227 16.562702 
L 508.721873 16.764835 
L 509.927195 16.406425 
L 511.132518 16.233447 
L 513.543164 16.263531 
L 514.748487 16.052361 
L 515.95381 16.166667 
L 515.95381 16.166667 
" clip-path="url(#pf6363762fc)" style="fill: none; stroke-dasharray: 5.55,2.4; stroke-dashoffset: 0; stroke: #4169e1; stroke-width: 1.5"/>
   </g>
   <g id="line2d_27">
    <path d="M 35.03 26.085792 
L 36.235323 35.43056 
L 37.440646 34.874966 
L 38.645968 28.634283 
L 39.851291 27.925698 
L 41.056614 25.436006 
L 42.261937 26.725287 
L 43.46726 22.564293 
L 45.877905 16.644731 
L 47.083228 17.371057 
L 48.288551 17.963721 
L 49.493874 17.756955 
L 50.699197 17.181868 
L 51.90452 15.652086 
L 54.315165 15.245266 
L 55.520488 13.915081 
L 56.725811 14.875333 
L 57.931134 15.979651 
L 60.341779 16.283049 
L 61.547102 15.189882 
L 62.752425 15.784068 
L 63.957748 15.83631 
L 65.163071 16.700032 
L 66.368394 16.782023 
L 68.779039 16.191019 
L 69.984362 14.460919 
L 71.189685 14.86427 
L 72.395008 14.581678 
L 73.600331 14.65989 
L 76.010976 15.174245 
L 78.421622 15.12678 
L 79.626945 15.210018 
L 80.832268 14.037775 
L 82.03759 14.14888 
L 83.242913 14.678004 
L 84.448236 14.489317 
L 85.653559 15.068326 
L 88.064205 15.503219 
L 89.269527 15.330877 
L 90.47485 15.427837 
L 91.680173 16.020607 
L 92.885496 15.977963 
L 94.090819 16.50291 
L 95.296142 16.414099 
L 96.501464 16.921563 
L 97.706787 17.064813 
L 98.91211 17.049727 
L 100.117433 16.884034 
L 101.322756 16.524865 
L 102.528079 16.39425 
L 103.733401 16.55414 
L 104.938724 17.09356 
L 106.144047 16.006144 
L 108.554693 16.456141 
L 110.965338 16.408137 
L 112.170661 16.940265 
L 115.78663 17.032134 
L 116.991953 17.225546 
L 124.223889 17.112725 
L 127.839858 16.838198 
L 129.045181 16.991753 
L 130.250504 17.301639 
L 131.455826 17.37276 
L 133.866472 17.156081 
L 135.071795 17.260246 
L 137.482441 17.292955 
L 139.893086 17.548671 
L 141.098409 17.238102 
L 142.303732 17.38785 
L 143.509055 17.388554 
L 144.714378 16.830248 
L 148.330346 16.928081 
L 149.535669 16.078578 
L 150.740992 15.620928 
L 151.946315 15.565111 
L 153.151637 15.714858 
L 155.562283 16.180073 
L 159.178252 16.111021 
L 160.383574 16.216004 
L 162.79422 15.777881 
L 163.999543 16.088187 
L 165.204866 16.093997 
L 166.410189 15.855933 
L 167.615511 15.953153 
L 168.820834 15.878846 
L 171.23148 16.07467 
L 173.642126 16.131239 
L 174.847448 15.900654 
L 178.463417 15.805617 
L 179.66874 15.677726 
L 182.079385 15.942603 
L 183.284708 15.889329 
L 185.695354 15.941896 
L 188.106 15.699349 
L 194.132614 15.966157 
L 195.337937 16.136617 
L 200.159228 16.431968 
L 201.364551 16.187862 
L 206.185842 16.627246 
L 209.80181 16.446745 
L 211.007133 16.616782 
L 213.417779 16.379445 
L 214.623102 16.546843 
L 215.828425 16.527773 
L 217.033747 16.394572 
L 219.444393 16.580301 
L 220.649716 16.372963 
L 221.855039 16.576372 
L 223.060362 16.605047 
L 224.265684 16.752402 
L 230.292299 16.167766 
L 231.497621 16.376149 
L 233.908267 16.302153 
L 235.11359 16.53507 
L 242.345527 16.546655 
L 244.756173 16.711239 
L 245.961495 16.461261 
L 248.372141 16.565496 
L 249.577464 16.388717 
L 250.782787 16.376415 
L 253.193432 16.061501 
L 255.604078 16.200681 
L 256.809401 16.006286 
L 259.220047 16.093848 
L 261.630692 16.062629 
L 262.836015 16.005218 
L 265.246661 16.181306 
L 266.451984 16.212001 
L 268.862629 16.12705 
L 270.067952 16.175503 
L 271.273275 16.336385 
L 273.683921 16.037143 
L 277.299889 16.242832 
L 278.505212 16.381356 
L 280.915858 16.199666 
L 283.326503 16.137132 
L 284.531826 16.103902 
L 286.942472 16.222793 
L 292.969086 16.542511 
L 298.9957 16.524181 
L 303.816991 16.384118 
L 305.022314 16.556472 
L 311.048928 16.606586 
L 313.459574 16.538409 
L 314.664897 16.607757 
L 315.87022 16.541122 
L 317.075542 16.345429 
L 319.486188 16.279626 
L 325.512802 16.469689 
L 332.744739 16.216852 
L 336.360708 15.963577 
L 341.181999 16.044455 
L 344.797968 16.355349 
L 347.208613 16.250577 
L 349.619259 16.293494 
L 362.87781 16.247772 
L 366.493778 15.974514 
L 372.520393 16.044016 
L 373.725715 15.918832 
L 378.547007 15.910728 
L 380.957652 15.843292 
L 386.984267 15.609462 
L 390.600235 15.595746 
L 393.010881 15.670245 
L 395.421526 15.577662 
L 397.832172 15.716523 
L 400.242818 15.623224 
L 403.858786 15.741006 
L 409.8854 15.72388 
L 412.296046 15.80249 
L 413.501369 15.862574 
L 417.117337 15.604328 
L 418.32266 15.661167 
L 420.733306 15.471561 
L 423.143952 15.56971 
L 425.554597 15.504911 
L 429.170566 15.457266 
L 431.581211 15.241349 
L 440.018471 15.361554 
L 441.223794 15.157338 
L 443.63444 15.237442 
L 446.045085 15.296832 
L 450.866377 15.426868 
L 453.277022 15.388143 
L 459.303636 15.340638 
L 460.508959 15.314898 
L 461.714282 15.400329 
L 464.124928 15.349143 
L 474.972833 15.426342 
L 477.383479 15.44254 
L 487.026062 15.778246 
L 489.436707 15.778251 
L 494.257999 15.96439 
L 499.07929 15.856585 
L 501.489936 15.976937 
L 502.695258 15.889888 
L 509.927195 16.15177 
L 512.337841 16.178083 
L 513.543164 16.136167 
L 514.748487 16.209564 
L 515.95381 16.166667 
L 515.95381 16.166667 
" clip-path="url(#pf6363762fc)" style="fill: none; stroke: #ff8c00; stroke-width: 1.5; stroke-linecap: square"/>
   </g>
   <g id="line2d_28">
    <path d="M 35.03 97 
L 36.235323 76.8979 
L 37.440646 83.456482 
L 38.645968 59.946224 
L 39.851291 66.894654 
L 41.056614 64.777676 
L 42.261937 67.084976 
L 43.46726 42.924839 
L 45.877905 21.231659 
L 47.083228 26.905273 
L 49.493874 36.749964 
L 50.699197 40.063811 
L 51.90452 36.317474 
L 53.109842 39.972975 
L 54.315165 43.168893 
L 55.520488 39.235186 
L 56.725811 38.454706 
L 57.931134 36.04805 
L 60.341779 41.376814 
L 61.547102 37.743201 
L 62.752425 38.342948 
L 63.957748 40.674152 
L 65.163071 38.547222 
L 66.368394 40.671904 
L 67.573716 42.191018 
L 68.779039 43.463637 
L 69.984362 25.265916 
L 71.189685 26.456372 
L 72.395008 28.090978 
L 73.600331 30.134068 
L 74.805653 31.702732 
L 76.010976 32.930552 
L 78.421622 36.350801 
L 79.626945 37.887818 
L 80.832268 27.382988 
L 82.03759 29.012588 
L 83.242913 28.092843 
L 84.448236 29.397464 
L 85.653559 27.72828 
L 90.47485 32.326085 
L 91.680173 29.871775 
L 92.885496 31.221645 
L 94.090819 29.428853 
L 95.296142 30.662994 
L 96.501464 28.915387 
L 97.706787 29.954363 
L 98.91211 31.193172 
L 100.117433 32.048382 
L 101.322756 31.574937 
L 102.528079 32.502817 
L 103.733401 33.27939 
L 104.938724 30.474444 
L 106.144047 15.523112 
L 107.34937 16.307255 
L 108.554693 16.729946 
L 110.965338 19.218861 
L 112.170661 16.24377 
L 114.581307 18.500292 
L 115.78663 19.633644 
L 116.991953 20.169327 
L 118.197275 21.266229 
L 119.402598 22.189746 
L 120.607921 22.699965 
L 121.813244 23.649173 
L 123.018567 24.245638 
L 125.429212 26.090857 
L 126.634535 26.686685 
L 127.839858 27.474346 
L 129.045181 27.931039 
L 130.250504 27.048042 
L 132.661149 28.514428 
L 135.071795 29.633735 
L 137.482441 31.164953 
L 139.893086 32.01256 
L 141.098409 30.788851 
L 142.303732 31.065103 
L 143.509055 31.789652 
L 144.714378 25.968798 
L 148.330346 28.133546 
L 149.535669 13.069062 
L 150.740992 9.305795 
L 151.946315 10.131066 
L 153.151637 10.502646 
L 154.35696 9.723438 
L 155.562283 9.697667 
L 159.178252 12.093418 
L 160.383574 12.638192 
L 161.588897 12.126592 
L 162.79422 11.888886 
L 163.999543 10.305217 
L 165.204866 11.099743 
L 166.410189 10.458599 
L 168.820834 11.625697 
L 170.026157 11.925627 
L 172.436803 13.285415 
L 173.642126 13.982389 
L 174.847448 13.272151 
L 177.258094 14.569436 
L 178.463417 15.227275 
L 182.079385 15.798802 
L 185.695354 17.506424 
L 186.900677 17.360464 
L 188.106 17.798274 
L 191.721968 19.44709 
L 194.132614 19.865225 
L 195.337937 19.551247 
L 197.748582 20.546381 
L 200.159228 20.344632 
L 201.364551 19.003162 
L 202.569873 19.150049 
L 203.775196 18.772954 
L 204.980519 19.036807 
L 207.391165 19.888375 
L 208.596488 20.149835 
L 209.80181 20.638391 
L 211.007133 20.18613 
L 212.212456 20.512202 
L 214.623102 19.684608 
L 215.828425 20.184073 
L 217.033747 20.072707 
L 218.23907 20.198482 
L 219.444393 20.460791 
L 221.855039 18.451513 
L 223.060362 18.922293 
L 224.265684 18.631701 
L 225.471007 18.472703 
L 226.67633 18.881934 
L 227.881653 18.895681 
L 229.086976 16.610663 
L 230.292299 17.092853 
L 231.497621 15.950736 
L 232.702944 16.431779 
L 233.908267 16.791168 
L 235.11359 15.198393 
L 238.729558 16.581354 
L 242.345527 17.854089 
L 243.55085 17.559581 
L 244.756173 17.983433 
L 245.961495 15.915018 
L 247.166818 16.34497 
L 248.372141 16.550991 
L 249.577464 15.719904 
L 250.782787 16.165224 
L 253.193432 14.997231 
L 254.398755 15.384821 
L 255.604078 15.397153 
L 256.809401 14.237614 
L 262.836015 15.838604 
L 264.041338 15.519034 
L 266.451984 16.23072 
L 267.657306 16.342549 
L 270.067952 17.059993 
L 272.478598 15.5236 
L 273.683921 15.0675 
L 274.889243 15.336049 
L 276.094566 15.734728 
L 279.710535 14.284223 
L 280.915858 14.599232 
L 282.12118 14.769607 
L 284.531826 15.505202 
L 285.737149 15.323597 
L 286.942472 15.708063 
L 288.147794 15.741366 
L 289.353117 16.113373 
L 290.55844 15.515718 
L 291.763763 15.409603 
L 294.174409 16.158344 
L 295.379731 16.353169 
L 297.790377 17.022044 
L 301.406346 17.793829 
L 302.611668 17.305508 
L 303.816991 17.661126 
L 305.022314 16.48196 
L 309.843605 17.769988 
L 312.254251 17.895865 
L 313.459574 18.234018 
L 315.87022 18.413329 
L 317.075542 16.684876 
L 318.280865 16.713236 
L 319.486188 17.046417 
L 321.896834 17.383448 
L 323.102157 16.658248 
L 326.718125 17.498323 
L 329.128771 17.961515 
L 330.334094 18.282756 
L 331.539416 18.460744 
L 332.744739 17.38269 
L 335.155385 16.631359 
L 337.566031 17.20131 
L 338.771353 17.018981 
L 341.181999 17.597599 
L 342.387322 17.272805 
L 343.592645 16.333191 
L 344.797968 16.423849 
L 346.00329 16.288916 
L 347.208613 16.579788 
L 348.413936 16.562805 
L 353.235227 17.615629 
L 354.44055 17.621705 
L 356.851196 18.183101 
L 358.056519 17.718518 
L 360.467164 18.233388 
L 361.672487 18.164145 
L 364.083133 17.606198 
L 365.288456 17.020998 
L 366.493778 17.073175 
L 367.699101 17.356079 
L 368.904424 17.278689 
L 370.109747 16.921806 
L 371.31507 16.881396 
L 372.520393 17.154843 
L 373.725715 16.42429 
L 377.341684 17.198158 
L 378.547007 17.197434 
L 379.75233 17.026332 
L 380.957652 17.288831 
L 382.162975 17.256975 
L 383.368298 17.501419 
L 384.573621 16.255702 
L 388.189589 16.938118 
L 391.805558 17.38073 
L 393.010881 17.620789 
L 394.216204 17.359018 
L 395.421526 17.622826 
L 396.626849 17.463688 
L 397.832172 17.472492 
L 399.037495 17.300488 
L 400.242818 17.548503 
L 402.653463 17.511023 
L 406.269432 18.239505 
L 408.680078 18.461369 
L 409.8854 18.702149 
L 411.090723 18.314153 
L 412.296046 18.547095 
L 413.501369 18.535208 
L 414.706692 17.872755 
L 417.117337 17.593003 
L 418.32266 17.605428 
L 420.733306 16.778475 
L 421.938629 16.315974 
L 424.349274 16.781479 
L 425.554597 16.480258 
L 427.965243 16.970274 
L 429.170566 17.09631 
L 430.375889 16.241504 
L 431.581211 15.797753 
L 432.786534 15.992911 
L 435.19718 16.02416 
L 438.813148 16.619538 
L 440.018471 16.809399 
L 441.223794 13.811335 
L 442.429117 13.411808 
L 444.839763 13.891555 
L 447.250408 13.836846 
L 448.455731 14.076215 
L 449.661054 14.152165 
L 450.866377 14.340229 
L 452.071699 14.257946 
L 454.482345 14.678018 
L 455.687668 14.464939 
L 458.098314 14.848435 
L 460.508959 15.223954 
L 461.714282 14.859554 
L 462.919605 14.803864 
L 465.330251 15.233308 
L 473.76751 16.047777 
L 477.383479 16.581742 
L 479.794125 16.690441 
L 480.999447 16.353608 
L 482.20477 16.249092 
L 483.410093 16.335377 
L 484.615416 16.121988 
L 489.436707 16.858525 
L 491.847353 16.640954 
L 493.052676 16.441512 
L 495.463321 16.758252 
L 499.07929 17.221846 
L 500.284613 17.221433 
L 501.489936 16.963444 
L 502.695258 16.492392 
L 503.900581 16.638521 
L 507.51655 16.779921 
L 508.721873 16.857801 
L 511.132518 16.333188 
L 513.543164 16.425139 
L 514.748487 16.133519 
L 515.95381 16.166667 
L 515.95381 16.166667 
" clip-path="url(#pf6363762fc)" style="fill: none; stroke-dasharray: 5.55,2.4; stroke-dashoffset: 0; stroke: #ff8c00; stroke-width: 1.5"/>
   </g>
   <g id="patch_3">
    <path d="M 35.03 97 
L 35.03 0 
" style="fill: none; stroke: #000000; stroke-width: 0.8; stroke-linejoin: miter; stroke-linecap: square"/>
   </g>
   <g id="patch_4">
    <path d="M 540 97 
L 540 0 
" style="fill: none; stroke: #000000; stroke-width: 0.8; stroke-linejoin: miter; stroke-linecap: square"/>
   </g>
   <g id="patch_5">
    <path d="M 35.03 97 
L 540 97 
" style="fill: none; stroke: #000000; stroke-width: 0.8; stroke-linejoin: miter; stroke-linecap: square"/>
   </g>
   <g id="patch_6">
    <path d="M 35.03 0 
L 540 0 
" style="fill: none; stroke: #000000; stroke-width: 0.8; stroke-linejoin: miter; stroke-linecap: square"/>
   </g>
  </g>
 </g>
 <defs>
  <clipPath id="pf6363762fc">
   <rect x="35.03" y="0" width="504.97" height="97"/>
  </clipPath>
 </defs>
</svg>
