<?xml version="1.0" encoding="utf-8" standalone="no"?>
<!DOCTYPE svg PUBLIC "-//W3C//DTD SVG 1.1//EN"
  "http://www.w3.org/Graphics/SVG/1.1/DTD/svg11.dtd">
<svg xmlns:xlink="http://www.w3.org/1999/xlink" width="540pt" height="129.6pt" viewBox="0 0 540 129.6" xmlns="http://www.w3.org/2000/svg" version="1.1">
 <metadata>
  <rdf:RDF xmlns:dc="http://purl.org/dc/elements/1.1/" xmlns:cc="http://creativecommons.org/ns#" xmlns:rdf="http://www.w3.org/1999/02/22-rdf-syntax-ns#">
   <cc:Work>
    <dc:type rdf:resource="http://purl.org/dc/dcmitype/StillImage"/>
    <dc:date>2025-03-22T18:35:47.555803</dc:date>
    <dc:format>image/svg+xml</dc:format>
    <dc:creator>
     <cc:Agent>
      <dc:title>Matplotlib v3.8.3, https://matplotlib.org/</dc:title>
     </cc:Agent>
    </dc:creator>
   </cc:Work>
  </rdf:RDF>
 </metadata>
 <defs>
  <style type="text/css">*{stroke-linejoin: round; stroke-linecap: butt}</style>
 </defs>
 <g id="figure_1">
  <g id="patch_1">
   <path d="M 0 129.6 
L 540 129.6 
L 540 0 
L 0 0 
z
" style="fill: #ffffff"/>
  </g>
  <g id="axes_1">
   <g id="patch_2">
    <path d="M 35.03 97 
L 540 97 
L 540 0 
L 35.03 0 
z
" style="fill: #ffffff"/>
   </g>
   <g id="matplotlib.axis_1">
    <g id="xtick_1">
     <g id="line2d_1">
      <path d="M 35.03 97 
L 35.03 0 
" clip-path="url(#p81bfc9b300)" style="fill: none; stroke: #b0b0b0; stroke-width: 0.8; stroke-linecap: square"/>
     </g>
     <g id="line2d_2">
      <defs>
       <path id="m2b6ba1372a" d="M 0 0 
L 0 3.5 
" style="stroke: #000000; stroke-width: 0.8"/>
      </defs>
      <g>
       <use xlink:href="#m2b6ba1372a" x="35.03" y="97" style="stroke: #000000; stroke-width: 0.8"/>
      </g>
     </g>
     <g id="text_1">
      <text style="font: 10px 'Times New Roman'; text-anchor: middle" x="35.03" y="110.94375" transform="rotate(-0 35.03 110.94375)">0</text>
     </g>
    </g>
    <g id="xtick_2">
     <g id="line2d_3">
      <path d="M 95.296142 97 
L 95.296142 0 
" clip-path="url(#p81bfc9b300)" style="fill: none; stroke: #b0b0b0; stroke-width: 0.8; stroke-linecap: square"/>
     </g>
     <g id="line2d_4">
      <g>
       <use xlink:href="#m2b6ba1372a" x="95.296142" y="97" style="stroke: #000000; stroke-width: 0.8"/>
      </g>
     </g>
     <g id="text_2">
      <text style="font: 10px 'Times New Roman'; text-anchor: middle" x="95.296142" y="110.94375" transform="rotate(-0 95.296142 110.94375)">50</text>
     </g>
    </g>
    <g id="xtick_3">
     <g id="line2d_5">
      <path d="M 155.562283 97 
L 155.562283 0 
" clip-path="url(#p81bfc9b300)" style="fill: none; stroke: #b0b0b0; stroke-width: 0.8; stroke-linecap: square"/>
     </g>
     <g id="line2d_6">
      <g>
       <use xlink:href="#m2b6ba1372a" x="155.562283" y="97" style="stroke: #000000; stroke-width: 0.8"/>
      </g>
     </g>
     <g id="text_3">
      <text style="font: 10px 'Times New Roman'; text-anchor: middle" x="155.562283" y="110.94375" transform="rotate(-0 155.562283 110.94375)">100</text>
     </g>
    </g>
    <g id="xtick_4">
     <g id="line2d_7">
      <path d="M 215.828425 97 
L 215.828425 0 
" clip-path="url(#p81bfc9b300)" style="fill: none; stroke: #b0b0b0; stroke-width: 0.8; stroke-linecap: square"/>
     </g>
     <g id="line2d_8">
      <g>
       <use xlink:href="#m2b6ba1372a" x="215.828425" y="97" style="stroke: #000000; stroke-width: 0.8"/>
      </g>
     </g>
     <g id="text_4">
      <text style="font: 10px 'Times New Roman'; text-anchor: middle" x="215.828425" y="110.94375" transform="rotate(-0 215.828425 110.94375)">150</text>
     </g>
    </g>
    <g id="xtick_5">
     <g id="line2d_9">
      <path d="M 276.094566 97 
L 276.094566 0 
" clip-path="url(#p81bfc9b300)" style="fill: none; stroke: #b0b0b0; stroke-width: 0.8; stroke-linecap: square"/>
     </g>
     <g id="line2d_10">
      <g>
       <use xlink:href="#m2b6ba1372a" x="276.094566" y="97" style="stroke: #000000; stroke-width: 0.8"/>
      </g>
     </g>
     <g id="text_5">
      <text style="font: 10px 'Times New Roman'; text-anchor: middle" x="276.094566" y="110.94375" transform="rotate(-0 276.094566 110.94375)">200</text>
     </g>
    </g>
    <g id="xtick_6">
     <g id="line2d_11">
      <path d="M 336.360708 97 
L 336.360708 0 
" clip-path="url(#p81bfc9b300)" style="fill: none; stroke: #b0b0b0; stroke-width: 0.8; stroke-linecap: square"/>
     </g>
     <g id="line2d_12">
      <g>
       <use xlink:href="#m2b6ba1372a" x="336.360708" y="97" style="stroke: #000000; stroke-width: 0.8"/>
      </g>
     </g>
     <g id="text_6">
      <text style="font: 10px 'Times New Roman'; text-anchor: middle" x="336.360708" y="110.94375" transform="rotate(-0 336.360708 110.94375)">250</text>
     </g>
    </g>
    <g id="xtick_7">
     <g id="line2d_13">
      <path d="M 396.626849 97 
L 396.626849 0 
" clip-path="url(#p81bfc9b300)" style="fill: none; stroke: #b0b0b0; stroke-width: 0.8; stroke-linecap: square"/>
     </g>
     <g id="line2d_14">
      <g>
       <use xlink:href="#m2b6ba1372a" x="396.626849" y="97" style="stroke: #000000; stroke-width: 0.8"/>
      </g>
     </g>
     <g id="text_7">
      <text style="font: 10px 'Times New Roman'; text-anchor: middle" x="396.626849" y="110.94375" transform="rotate(-0 396.626849 110.94375)">300</text>
     </g>
    </g>
    <g id="xtick_8">
     <g id="line2d_15">
      <path d="M 456.892991 97 
L 456.892991 0 
" clip-path="url(#p81bfc9b300)" style="fill: none; stroke: #b0b0b0; stroke-width: 0.8; stroke-linecap: square"/>
     </g>
     <g id="line2d_16">
      <g>
       <use xlink:href="#m2b6ba1372a" x="456.892991" y="97" style="stroke: #000000; stroke-width: 0.8"/>
      </g>
     </g>
     <g id="text_8">
      <text style="font: 10px 'Times New Roman'; text-anchor: middle" x="456.892991" y="110.94375" transform="rotate(-0 456.892991 110.94375)">350</text>
     </g>
    </g>
    <g id="xtick_9">
     <g id="line2d_17">
      <path d="M 517.159132 97 
L 517.159132 0 
" clip-path="url(#p81bfc9b300)" style="fill: none; stroke: #b0b0b0; stroke-width: 0.8; stroke-linecap: square"/>
     </g>
     <g id="line2d_18">
      <g>
       <use xlink:href="#m2b6ba1372a" x="517.159132" y="97" style="stroke: #000000; stroke-width: 0.8"/>
      </g>
     </g>
     <g id="text_9">
      <text style="font: 10px 'Times New Roman'; text-anchor: middle" x="517.159132" y="110.94375" transform="rotate(-0 517.159132 110.94375)">400</text>
     </g>
    </g>
    <g id="text_10">
     <text style="font: 12px 'Times New Roman'; text-anchor: middle" x="287.515" y="125.415312" transform="rotate(-0 287.515 125.415312)">Simulation Run</text>
    </g>
   </g>
   <g id="matplotlib.axis_2">
    <g id="ytick_1">
     <g id="line2d_19">
      <path d="M 35.03 97 
L 540 97 
" clip-path="url(#p81bfc9b300)" style="fill: none; stroke: #b0b0b0; stroke-width: 0.8; stroke-linecap: square"/>
     </g>
     <g id="line2d_20">
      <defs>
       <path id="m033311e297" d="M 0 0 
L -3.5 0 
" style="stroke: #000000; stroke-width: 0.8"/>
      </defs>
      <g>
       <use xlink:href="#m033311e297" x="35.03" y="97" style="stroke: #000000; stroke-width: 0.8"/>
      </g>
     </g>
     <g id="text_11">
      <text style="font: 10px 'Times New Roman'; text-anchor: end" x="28.03" y="100.471875" transform="rotate(-0 28.03 100.471875)">0.0</text>
     </g>
    </g>
    <g id="ytick_2">
     <g id="line2d_21">
      <path d="M 35.03 56.583333 
L 540 56.583333 
" clip-path="url(#p81bfc9b300)" style="fill: none; stroke: #b0b0b0; stroke-width: 0.8; stroke-linecap: square"/>
     </g>
     <g id="line2d_22">
      <g>
       <use xlink:href="#m033311e297" x="35.03" y="56.583333" style="stroke: #000000; stroke-width: 0.8"/>
      </g>
     </g>
     <g id="text_12">
      <text style="font: 10px 'Times New Roman'; text-anchor: end" x="28.03" y="60.055208" transform="rotate(-0 28.03 60.055208)">0.5</text>
     </g>
    </g>
    <g id="ytick_3">
     <g id="line2d_23">
      <path d="M 35.03 16.166667 
L 540 16.166667 
" clip-path="url(#p81bfc9b300)" style="fill: none; stroke: #b0b0b0; stroke-width: 0.8; stroke-linecap: square"/>
     </g>
     <g id="line2d_24">
      <g>
       <use xlink:href="#m033311e297" x="35.03" y="16.166667" style="stroke: #000000; stroke-width: 0.8"/>
      </g>
     </g>
     <g id="text_13">
      <text style="font: 10px 'Times New Roman'; text-anchor: end" x="28.03" y="19.638542" transform="rotate(-0 28.03 19.638542)">1.0</text>
     </g>
    </g>
    <g id="text_14">
     <text style="font: 12px 'Times New Roman'; text-anchor: middle" x="8.963125" y="48.5" transform="rotate(-90 8.963125 48.5)">Normalized Value</text>
    </g>
   </g>
   <g id="line2d_25">
    <path d="M 35.03 34.697744 
L 36.235323 35.407383 
L 37.440646 29.257092 
L 38.645968 17.38915 
L 39.851291 15.358155 
L 41.056614 16.232234 
L 42.261937 16.402864 
L 43.46726 18.75034 
L 44.672583 19.985598 
L 47.083228 21.400103 
L 48.288551 18.513753 
L 49.493874 20.315784 
L 50.699197 21.43567 
L 51.90452 19.384823 
L 53.109842 20.297451 
L 54.315165 20.440415 
L 55.520488 22.205945 
L 56.725811 22.295857 
L 57.931134 21.54931 
L 59.136457 22.807438 
L 61.547102 23.70269 
L 62.752425 23.015968 
L 63.957748 24.481973 
L 65.163071 23.795221 
L 66.368394 23.397064 
L 67.573716 22.366792 
L 68.779039 22.044483 
L 69.984362 21.882201 
L 71.189685 21.36379 
L 72.395008 20.685477 
L 73.600331 20.170019 
L 74.805653 20.422903 
L 76.010976 20.448517 
L 77.216299 20.880849 
L 78.421622 19.824159 
L 79.626945 19.863534 
L 80.832268 19.299825 
L 82.03759 18.462427 
L 83.242913 18.188387 
L 84.448236 18.967524 
L 85.653559 19.054939 
L 86.858882 18.91577 
L 88.064205 19.545064 
L 89.269527 19.509156 
L 90.47485 19.109836 
L 91.680173 19.414944 
L 92.885496 19.016549 
L 94.090819 19.363709 
L 95.296142 19.174839 
L 96.501464 19.755687 
L 97.706787 20.128988 
L 98.91211 20.161978 
L 100.117433 18.861653 
L 101.322756 19.1278 
L 102.528079 19.226426 
L 104.938724 18.059729 
L 106.144047 17.963899 
L 108.554693 18.576736 
L 109.760016 18.079115 
L 112.170661 17.79991 
L 113.375984 17.643448 
L 115.78663 17.788107 
L 116.991953 17.547655 
L 118.197275 17.483465 
L 119.402598 17.284066 
L 120.607921 16.328794 
L 121.813244 16.559245 
L 123.018567 16.956429 
L 125.429212 16.772358 
L 126.634535 16.958943 
L 127.839858 16.820675 
L 129.045181 17.087432 
L 130.250504 16.78093 
L 132.661149 17.489257 
L 133.866472 17.535457 
L 135.071795 17.423899 
L 137.482441 17.602671 
L 138.687763 17.740767 
L 139.893086 18.20797 
L 141.098409 18.366891 
L 142.303732 17.710383 
L 144.714378 18.056455 
L 145.9197 17.546693 
L 148.330346 17.851743 
L 149.535669 17.663517 
L 150.740992 17.74169 
L 151.946315 17.53407 
L 153.151637 17.59608 
L 154.35696 17.808644 
L 155.562283 17.752066 
L 156.767606 17.18449 
L 157.972929 16.920008 
L 159.178252 17.095506 
L 160.383574 16.680067 
L 162.79422 16.996694 
L 165.204866 17.421772 
L 166.410189 17.410811 
L 168.820834 17.753193 
L 170.026157 17.785708 
L 171.23148 17.538357 
L 173.642126 17.775971 
L 177.258094 17.773723 
L 179.66874 17.933158 
L 180.874063 17.887256 
L 183.284708 17.364042 
L 184.490031 17.553902 
L 185.695354 17.361261 
L 186.900677 17.446483 
L 188.106 17.145739 
L 190.516645 16.941337 
L 195.337937 17.101357 
L 198.953905 17.003795 
L 200.159228 16.842942 
L 202.569873 17.216481 
L 204.980519 16.835802 
L 206.185842 17.033505 
L 207.391165 16.860932 
L 208.596488 16.899056 
L 211.007133 16.787861 
L 212.212456 16.964939 
L 213.417779 16.938468 
L 214.623102 16.778947 
L 215.828425 16.391933 
L 217.033747 16.44076 
L 218.23907 16.214189 
L 219.444393 16.407307 
L 220.649716 16.071529 
L 226.67633 16.287346 
L 227.881653 16.122962 
L 230.292299 16.105485 
L 231.497621 15.939483 
L 237.524236 16.137406 
L 238.729558 16.156812 
L 239.934881 15.92868 
L 244.756173 16.195523 
L 247.166818 16.296306 
L 248.372141 16.129689 
L 256.809401 16.48157 
L 258.014724 16.350933 
L 261.630692 16.583353 
L 265.246661 16.493218 
L 266.451984 16.598712 
L 267.657306 16.481437 
L 272.478598 16.530269 
L 273.683921 16.516976 
L 274.889243 16.310091 
L 277.299889 16.325327 
L 280.915858 16.398647 
L 282.12118 16.438083 
L 283.326503 16.362145 
L 286.942472 16.655652 
L 288.147794 16.586919 
L 290.55844 16.746466 
L 291.763763 16.468459 
L 294.174409 16.488171 
L 296.585054 16.528346 
L 303.816991 16.255793 
L 314.664897 16.503981 
L 317.075542 16.060396 
L 319.486188 16.047975 
L 323.102157 15.977821 
L 325.512802 16.042513 
L 330.334094 15.881137 
L 331.539416 16.030755 
L 336.360708 15.800167 
L 337.566031 15.901006 
L 338.771353 15.839673 
L 339.976676 15.935839 
L 342.387322 15.967232 
L 344.797968 16.011959 
L 347.208613 15.864352 
L 354.44055 15.965661 
L 358.056519 16.025335 
L 361.672487 15.994567 
L 364.083133 16.155308 
L 366.493778 15.917786 
L 367.699101 15.829097 
L 377.341684 15.993289 
L 378.547007 15.789195 
L 382.162975 15.885935 
L 383.368298 15.772859 
L 386.984267 15.969881 
L 390.600235 16.075788 
L 391.805558 16.166745 
L 393.010881 16.10971 
L 396.626849 16.324538 
L 405.064109 16.641552 
L 407.474755 16.750776 
L 412.296046 16.902946 
L 413.501369 16.748173 
L 437.607826 16.995535 
L 444.839763 17.103774 
L 452.071699 17.259056 
L 454.482345 17.1962 
L 465.330251 17.065152 
L 466.535573 16.887676 
L 468.946219 16.887611 
L 470.151542 16.586521 
L 471.356865 16.665414 
L 472.562188 16.610216 
L 473.76751 16.670797 
L 474.972833 16.494898 
L 478.588802 16.594449 
L 479.794125 16.448877 
L 480.999447 16.450847 
L 482.20477 16.326469 
L 485.820739 16.447986 
L 493.052676 16.3812 
L 495.463321 16.18014 
L 497.873967 16.197931 
L 502.695258 16.244312 
L 505.105904 16.296659 
L 508.721873 16.242921 
L 511.132518 16.051208 
L 512.337841 16.141702 
L 513.543164 16.089559 
L 515.95381 16.166667 
L 515.95381 16.166667 
" clip-path="url(#p81bfc9b300)" style="fill: none; stroke: #4169e1; stroke-width: 1.5; stroke-linecap: square"/>
   </g>
   <g id="line2d_26">
    <path d="M 35.03 97 
L 36.235323 96.915928 
L 37.440646 84.314189 
L 38.645968 16.943941 
L 39.851291 30.200598 
L 41.056614 40.696089 
L 42.261937 48.710342 
L 43.46726 48.306719 
L 44.672583 51.679203 
L 45.877905 55.570416 
L 47.083228 58.368882 
L 48.288551 46.289087 
L 49.493874 43.68444 
L 50.699197 44.770841 
L 51.90452 38.422445 
L 53.109842 39.997838 
L 54.315165 43.296312 
L 55.520488 37.433326 
L 56.725811 40.544121 
L 57.931134 41.599077 
L 59.136457 38.952111 
L 61.547102 42.592302 
L 62.752425 43.048516 
L 63.957748 36.595523 
L 65.163071 36.950367 
L 66.368394 38.486321 
L 67.573716 35.791546 
L 68.779039 37.416584 
L 69.984362 39.275198 
L 71.189685 39.79129 
L 72.395008 39.197864 
L 73.600331 39.530028 
L 74.805653 40.868009 
L 76.010976 42.468056 
L 77.216299 42.8907 
L 78.421622 37.642367 
L 79.626945 39.194834 
L 80.832268 38.661123 
L 82.03759 35.553947 
L 83.242913 36.551141 
L 84.448236 33.835259 
L 86.858882 36.514987 
L 88.064205 34.950172 
L 89.269527 36.289395 
L 90.47485 36.356567 
L 91.680173 36.889542 
L 92.885496 36.844415 
L 94.090819 37.061637 
L 95.296142 37.939138 
L 96.501464 36.202367 
L 97.706787 36.13974 
L 98.91211 37.257153 
L 100.117433 23.100371 
L 101.322756 23.76961 
L 102.528079 24.963417 
L 103.733401 23.580866 
L 104.938724 20.840293 
L 106.144047 22.019167 
L 107.34937 22.575716 
L 108.554693 22.502103 
L 109.760016 21.121528 
L 110.965338 22.191741 
L 113.375984 23.872733 
L 115.78663 25.897303 
L 116.991953 26.271422 
L 118.197275 27.234367 
L 119.402598 27.752338 
L 120.607921 17.897641 
L 121.813244 18.34288 
L 123.018567 17.483255 
L 124.223889 18.520696 
L 125.429212 19.303942 
L 126.634535 19.871266 
L 127.839858 20.614338 
L 129.045181 20.654631 
L 131.455826 20.090726 
L 132.661149 18.805832 
L 133.866472 19.718711 
L 137.482441 21.966548 
L 138.687763 22.555199 
L 139.893086 20.23084 
L 141.098409 20.722372 
L 142.303732 15.165994 
L 143.509055 15.696733 
L 144.714378 16.035158 
L 145.9197 12.91462 
L 149.535669 14.262857 
L 150.740992 15.017879 
L 151.946315 15.156385 
L 153.151637 15.920178 
L 154.35696 15.984204 
L 155.562283 16.732902 
L 156.767606 12.088031 
L 157.972929 11.72127 
L 159.178252 12.011647 
L 160.383574 9.824504 
L 161.588897 10.282607 
L 162.79422 10.566697 
L 163.999543 10.224823 
L 165.204866 10.486199 
L 166.410189 11.270502 
L 168.820834 11.724854 
L 170.026157 12.459733 
L 171.23148 12.047115 
L 172.436803 12.237094 
L 178.463417 15.356046 
L 180.874063 16.541666 
L 182.079385 15.42955 
L 183.284708 15.013058 
L 185.695354 14.799717 
L 186.900677 15.29419 
L 188.106 14.014852 
L 189.311322 14.345881 
L 191.721968 15.402941 
L 192.927291 15.99887 
L 194.132614 16.254919 
L 197.748582 17.863035 
L 198.953905 17.963655 
L 200.159228 17.944607 
L 201.364551 17.240728 
L 202.569873 17.365247 
L 203.775196 17.371094 
L 204.980519 16.72919 
L 206.185842 16.363936 
L 207.391165 16.212932 
L 208.596488 16.735143 
L 209.80181 16.992581 
L 211.007133 17.536808 
L 212.212456 17.304202 
L 213.417779 17.821761 
L 214.623102 17.716626 
L 215.828425 14.49093 
L 217.033747 14.973653 
L 218.23907 14.207133 
L 219.444393 13.792152 
L 220.649716 11.430313 
L 223.060362 12.466291 
L 224.265684 12.696239 
L 225.471007 13.183685 
L 226.67633 13.416402 
L 227.881653 13.21376 
L 230.292299 14.237595 
L 231.497621 13.992374 
L 233.908267 14.883428 
L 235.11359 14.788705 
L 238.729558 16.216605 
L 239.934881 15.211966 
L 241.140204 15.64115 
L 242.345527 15.774916 
L 243.55085 16.234288 
L 244.756173 16.17147 
L 245.961495 16.458204 
L 247.166818 16.896406 
L 248.372141 16.526108 
L 250.782787 17.308586 
L 251.98811 17.342066 
L 253.193432 17.760078 
L 254.398755 17.49609 
L 256.809401 18.162537 
L 258.014724 18.059309 
L 259.220047 18.237603 
L 260.425369 18.650335 
L 261.630692 18.53698 
L 264.041338 19.235097 
L 267.657306 19.23642 
L 270.067952 19.981245 
L 272.478598 20.409419 
L 273.683921 20.788456 
L 274.889243 19.747551 
L 278.505212 20.708767 
L 279.710535 20.894673 
L 282.12118 21.580332 
L 285.737149 21.979494 
L 286.942472 21.777813 
L 289.353117 22.136711 
L 290.55844 22.22091 
L 291.763763 19.822049 
L 294.174409 20.496571 
L 295.379731 20.699638 
L 297.790377 21.272455 
L 300.201023 21.772789 
L 301.406346 20.877695 
L 303.816991 21.471317 
L 305.022314 21.7633 
L 306.227637 21.672999 
L 307.43296 21.942891 
L 308.638283 21.960558 
L 309.843605 22.280871 
L 313.459574 22.835813 
L 314.664897 23.103882 
L 317.075542 19.904881 
L 319.486188 20.506851 
L 324.307479 21.258529 
L 326.718125 21.768442 
L 329.128771 22.34047 
L 330.334094 22.472706 
L 331.539416 21.855105 
L 332.744739 22.003421 
L 335.155385 22.535084 
L 337.566031 22.165885 
L 338.771353 22.303419 
L 339.976676 22.206896 
L 342.387322 22.671357 
L 343.592645 22.755885 
L 344.797968 23.017944 
L 346.00329 22.685371 
L 350.824582 23.771933 
L 352.029905 23.794058 
L 354.44055 24.338849 
L 360.467164 25.038124 
L 361.672487 25.18832 
L 362.87781 24.925672 
L 364.083133 25.059992 
L 365.288456 24.196302 
L 367.699101 24.061787 
L 368.904424 24.291511 
L 371.31507 24.360973 
L 372.520393 24.266544 
L 377.341684 25.20249 
L 378.547007 23.471652 
L 382.162975 24.055133 
L 383.368298 23.689778 
L 384.573621 23.58918 
L 385.778944 23.795568 
L 386.984267 23.723608 
L 388.189589 23.961843 
L 389.394912 23.999219 
L 390.600235 24.21391 
L 391.805558 24.050153 
L 393.010881 24.133661 
L 394.216204 23.869739 
L 395.421526 24.035645 
L 396.626849 24.001414 
L 399.037495 24.110821 
L 400.242818 23.936719 
L 401.448141 24.029467 
L 402.653463 24.250428 
L 403.858786 24.30482 
L 405.064109 24.099749 
L 406.269432 24.334306 
L 407.474755 24.010026 
L 408.680078 24.100453 
L 409.8854 23.704185 
L 412.296046 24.037762 
L 413.501369 23.013668 
L 415.912015 23.40036 
L 417.117337 23.174138 
L 418.32266 23.173558 
L 421.938629 23.777116 
L 424.349274 23.154715 
L 429.170566 23.659066 
L 431.581211 24.081525 
L 437.607826 24.145204 
L 438.813148 24.361641 
L 440.018471 24.418618 
L 442.429117 24.69711 
L 443.63444 24.714816 
L 447.250408 25.255453 
L 448.455731 25.168982 
L 450.866377 25.580333 
L 453.277022 25.323887 
L 459.303636 26.170584 
L 460.508959 25.971965 
L 461.714282 26.012556 
L 462.919605 26.208855 
L 464.124928 25.638878 
L 465.330251 25.751508 
L 466.535573 24.067474 
L 468.946219 24.250938 
L 470.151542 18.988367 
L 471.356865 18.827127 
L 473.76751 18.848319 
L 474.972833 17.176491 
L 476.178156 17.343916 
L 477.383479 17.133624 
L 478.588802 17.34041 
L 479.794125 16.250271 
L 480.999447 16.467686 
L 482.20477 15.726006 
L 484.615416 15.856225 
L 488.231384 16.326393 
L 491.847353 16.763112 
L 493.052676 16.965408 
L 494.257999 16.20166 
L 495.463321 16.030957 
L 496.668644 16.134918 
L 497.873967 16.124223 
L 501.489936 16.72856 
L 503.900581 16.523929 
L 508.721873 17.15258 
L 509.927195 16.601639 
L 512.337841 15.993256 
L 515.95381 16.166667 
L 515.95381 16.166667 
" clip-path="url(#p81bfc9b300)" style="fill: none; stroke-dasharray: 5.55,2.4; stroke-dashoffset: 0; stroke: #4169e1; stroke-width: 1.5"/>
   </g>
   <g id="line2d_27">
    <path d="M 35.03 32.997187 
L 36.235323 31.469284 
L 37.440646 26.137488 
L 38.645968 16.354053 
L 39.851291 13.345411 
L 41.056614 13.787293 
L 42.261937 13.984531 
L 43.46726 16.427498 
L 44.672583 17.589741 
L 47.083228 18.874837 
L 48.288551 16.32732 
L 49.493874 18.329307 
L 50.699197 19.563733 
L 51.90452 18.020522 
L 53.109842 18.919503 
L 54.315165 18.935955 
L 55.520488 20.560877 
L 56.725811 20.713727 
L 57.931134 20.124447 
L 59.136457 21.344363 
L 61.547102 22.288807 
L 62.752425 21.431367 
L 63.957748 22.98666 
L 65.163071 22.463072 
L 66.368394 22.2456 
L 67.573716 21.091997 
L 68.779039 20.804549 
L 69.984362 20.709066 
L 71.189685 20.181228 
L 72.395008 19.489832 
L 73.600331 19.017607 
L 76.010976 19.169883 
L 77.216299 19.58882 
L 78.421622 19.065149 
L 79.626945 19.204122 
L 82.03759 17.75446 
L 83.242913 17.4528 
L 84.448236 18.112056 
L 86.858882 18.125587 
L 88.064205 18.752623 
L 89.269527 18.709883 
L 90.47485 18.291389 
L 91.680173 18.464614 
L 92.885496 18.003212 
L 94.090819 18.379943 
L 95.296142 18.332414 
L 96.501464 18.858288 
L 97.706787 19.140927 
L 98.91211 19.206536 
L 100.117433 18.054795 
L 101.322756 18.338521 
L 102.528079 18.399415 
L 104.938724 17.369879 
L 106.144047 17.317953 
L 108.554693 18.004687 
L 109.760016 17.552083 
L 113.375984 17.231516 
L 114.581307 17.264938 
L 115.78663 17.49601 
L 116.991953 17.302518 
L 118.197275 17.237863 
L 119.402598 17.019556 
L 120.607921 16.200723 
L 121.813244 16.382688 
L 123.018567 16.707473 
L 125.429212 16.52311 
L 126.634535 16.700035 
L 127.839858 16.51565 
L 129.045181 16.807117 
L 130.250504 16.592704 
L 131.455826 16.825186 
L 132.661149 17.231984 
L 133.866472 17.278981 
L 135.071795 17.137383 
L 136.277118 17.184736 
L 138.687763 17.485889 
L 139.893086 17.938842 
L 141.098409 18.075664 
L 142.303732 17.522058 
L 144.714378 17.808034 
L 145.9197 17.321372 
L 148.330346 17.580272 
L 149.535669 17.452033 
L 150.740992 17.556942 
L 151.946315 17.336386 
L 153.151637 17.412393 
L 154.35696 17.650977 
L 155.562283 17.656956 
L 156.767606 17.225857 
L 157.972929 16.977026 
L 159.178252 17.143413 
L 160.383574 16.760258 
L 162.79422 17.065835 
L 165.204866 17.468224 
L 166.410189 17.465826 
L 170.026157 17.785281 
L 171.23148 17.518653 
L 173.642126 17.713616 
L 174.847448 17.629422 
L 176.052771 17.719207 
L 177.258094 17.647162 
L 179.66874 17.787078 
L 180.874063 17.707872 
L 183.284708 17.213536 
L 184.490031 17.36505 
L 185.695354 17.148839 
L 186.900677 17.232251 
L 188.106 16.982377 
L 190.516645 16.782064 
L 197.748582 16.928221 
L 200.159228 16.643414 
L 201.364551 16.885493 
L 202.569873 17.006534 
L 204.980519 16.627951 
L 206.185842 16.824339 
L 207.391165 16.627201 
L 208.596488 16.670103 
L 211.007133 16.571335 
L 212.212456 16.754266 
L 214.623102 16.602254 
L 215.828425 16.259779 
L 217.033747 16.312844 
L 218.23907 16.095149 
L 219.444393 16.262964 
L 220.649716 15.964029 
L 226.67633 16.205982 
L 227.881653 16.053208 
L 230.292299 16.035026 
L 231.497621 15.897014 
L 236.318913 16.09993 
L 238.729558 16.093529 
L 239.934881 15.906581 
L 243.55085 16.038803 
L 245.961495 16.220709 
L 247.166818 16.254516 
L 248.372141 16.09696 
L 254.398755 16.308994 
L 256.809401 16.430002 
L 258.014724 16.298241 
L 261.630692 16.492527 
L 265.246661 16.406507 
L 266.451984 16.501371 
L 268.862629 16.460884 
L 273.683921 16.445533 
L 274.889243 16.255432 
L 276.094566 16.180155 
L 279.710535 16.293452 
L 283.326503 16.252923 
L 286.942472 16.544997 
L 288.147794 16.485591 
L 290.55844 16.617068 
L 291.763763 16.368324 
L 294.174409 16.372593 
L 296.585054 16.409888 
L 306.227637 16.359467 
L 307.43296 16.412188 
L 309.843605 16.353022 
L 312.254251 16.45044 
L 315.87022 16.236927 
L 317.075542 16.013621 
L 320.691511 15.930792 
L 323.102157 15.900707 
L 325.512802 15.947058 
L 330.334094 15.863518 
L 331.539416 15.979807 
L 338.771353 15.832826 
L 341.181999 15.940953 
L 344.797968 16.022214 
L 347.208613 15.849055 
L 352.029905 15.90458 
L 358.056519 16.002147 
L 360.467164 16.004129 
L 362.87781 16.106982 
L 364.083133 16.157538 
L 366.493778 15.95533 
L 368.904424 15.909114 
L 370.109747 15.955066 
L 371.31507 15.866269 
L 373.725715 15.968716 
L 377.341684 16.014259 
L 378.547007 15.85193 
L 390.600235 16.073364 
L 391.805558 16.157053 
L 393.010881 16.109653 
L 397.832172 16.385641 
L 402.653463 16.583018 
L 403.858786 16.522804 
L 409.8854 16.872762 
L 412.296046 16.901975 
L 413.501369 16.770913 
L 438.813148 16.968315 
L 441.223794 16.949282 
L 449.661054 17.160355 
L 465.330251 17.052647 
L 466.535573 16.862836 
L 468.946219 16.861716 
L 470.151542 16.593516 
L 471.356865 16.667099 
L 472.562188 16.607685 
L 473.76751 16.659727 
L 474.972833 16.499237 
L 478.588802 16.577778 
L 479.794125 16.442736 
L 480.999447 16.451399 
L 482.20477 16.32756 
L 485.820739 16.450555 
L 501.489936 16.212087 
L 505.105904 16.300155 
L 508.721873 16.240139 
L 511.132518 16.06865 
L 512.337841 16.16015 
L 514.748487 16.156691 
L 515.95381 16.166667 
L 515.95381 16.166667 
" clip-path="url(#p81bfc9b300)" style="fill: none; stroke: #ff8c00; stroke-width: 1.5; stroke-linecap: square"/>
   </g>
   <g id="line2d_28">
    <path d="M 35.03 97 
L 36.235323 96.539847 
L 37.440646 85.486259 
L 38.645968 31.764835 
L 39.851291 37.674926 
L 41.056614 47.369999 
L 42.261937 54.41399 
L 43.46726 51.502605 
L 44.672583 54.427795 
L 45.877905 57.870428 
L 47.083228 60.700289 
L 48.288551 49.653841 
L 49.493874 43.815709 
L 50.699197 43.709913 
L 51.90452 40.690704 
L 53.109842 41.820555 
L 54.315165 45.065551 
L 55.520488 39.103198 
L 56.725811 42.067507 
L 57.931134 43.513638 
L 59.136457 40.193804 
L 61.547102 43.284015 
L 62.752425 42.189095 
L 63.957748 32.938344 
L 65.163071 34.051326 
L 66.368394 36.140383 
L 67.573716 31.231425 
L 68.779039 33.043281 
L 69.984362 35.123057 
L 71.189685 35.471553 
L 72.395008 34.473354 
L 73.600331 34.961538 
L 76.010976 38.395804 
L 77.216299 38.812889 
L 78.421622 38.439571 
L 79.626945 39.839779 
L 80.832268 37.641045 
L 82.03759 34.79837 
L 83.242913 35.598009 
L 84.448236 33.54756 
L 86.858882 36.430615 
L 88.064205 34.366647 
L 89.269527 35.712038 
L 90.47485 35.428054 
L 91.680173 36.432814 
L 92.885496 35.654636 
L 94.090819 35.510754 
L 95.296142 36.694162 
L 96.501464 35.073884 
L 97.706787 35.4235 
L 98.91211 36.518837 
L 100.117433 23.499135 
L 101.322756 23.938935 
L 102.528079 25.179777 
L 103.733401 23.618679 
L 104.938724 21.646467 
L 106.144047 22.871003 
L 107.34937 22.989361 
L 108.554693 22.426757 
L 109.760016 21.10701 
L 114.581307 25.195975 
L 115.78663 25.54677 
L 116.991953 26.080507 
L 118.197275 27.036788 
L 119.402598 27.364607 
L 120.607921 18.948386 
L 121.813244 19.547674 
L 123.018567 19.076485 
L 125.429212 20.869846 
L 127.839858 21.842982 
L 129.045181 21.488209 
L 130.250504 21.716223 
L 131.455826 21.793374 
L 132.661149 20.068404 
L 133.866472 20.95959 
L 135.071795 21.536811 
L 136.277118 22.387488 
L 137.482441 22.779807 
L 138.687763 23.334276 
L 139.893086 20.65305 
L 141.098409 21.186166 
L 142.303732 16.652016 
L 143.509055 17.224106 
L 144.714378 17.668038 
L 145.9197 14.226168 
L 147.125023 14.702693 
L 150.740992 16.513619 
L 151.946315 16.404829 
L 153.151637 17.107326 
L 154.35696 16.795469 
L 155.562283 17.588868 
L 156.767606 14.667528 
L 157.972929 14.222017 
L 159.178252 14.455893 
L 160.383574 12.232529 
L 161.588897 12.674218 
L 162.79422 12.829323 
L 163.999543 12.533737 
L 165.204866 12.64451 
L 166.410189 13.411254 
L 167.615511 13.811519 
L 168.820834 13.948871 
L 170.026157 14.66942 
L 171.23148 13.808177 
L 172.436803 14.034415 
L 174.847448 15.24254 
L 178.463417 16.855825 
L 180.874063 17.91781 
L 182.079385 17.013746 
L 183.284708 16.254144 
L 184.490031 16.339015 
L 185.695354 15.827381 
L 186.900677 16.293738 
L 188.106 15.361263 
L 189.311322 15.626005 
L 190.516645 16.09116 
L 192.927291 17.245057 
L 194.132614 17.492967 
L 197.748582 19.007847 
L 200.159228 19.049843 
L 201.364551 18.016579 
L 202.569873 18.179336 
L 203.775196 18.017958 
L 204.980519 17.2653 
L 207.391165 16.205269 
L 211.007133 17.633595 
L 212.212456 17.200234 
L 213.417779 17.719468 
L 214.623102 17.76419 
L 215.828425 14.821066 
L 217.033747 15.277905 
L 218.23907 14.392162 
L 219.444393 14.079277 
L 220.649716 11.901648 
L 225.471007 13.64138 
L 226.67633 13.881987 
L 227.881653 13.662154 
L 230.292299 14.651979 
L 231.497621 14.542129 
L 232.702944 14.842825 
L 233.908267 15.315732 
L 235.11359 15.332672 
L 238.729558 16.722916 
L 239.934881 16.021248 
L 241.140204 16.459474 
L 242.345527 16.6887 
L 243.55085 17.139646 
L 244.756173 17.129561 
L 247.166818 17.846197 
L 248.372141 17.424805 
L 250.782787 18.205496 
L 251.98811 18.052847 
L 253.193432 18.446219 
L 254.398755 18.168869 
L 256.809401 18.753622 
L 258.014724 18.541225 
L 259.220047 18.780065 
L 260.425369 19.189102 
L 261.630692 19.150216 
L 264.041338 19.871053 
L 267.657306 20.267207 
L 270.067952 21.000967 
L 272.478598 21.333741 
L 273.683921 21.691595 
L 274.889243 20.650594 
L 277.299889 21.07238 
L 278.505212 21.426533 
L 279.710535 21.524635 
L 282.12118 22.145562 
L 283.326503 22.300597 
L 284.531826 22.057514 
L 285.737149 22.253654 
L 286.942472 22.132261 
L 290.55844 22.682479 
L 291.763763 20.432017 
L 294.174409 21.110628 
L 295.379731 21.293303 
L 300.201023 22.505121 
L 301.406346 21.803593 
L 305.022314 22.739474 
L 306.227637 22.510569 
L 314.664897 24.033604 
L 315.87022 22.285959 
L 317.075542 20.303895 
L 319.486188 20.921058 
L 321.896834 21.130633 
L 327.923448 22.474689 
L 330.334094 23.012819 
L 331.539416 22.656642 
L 335.155385 23.411858 
L 337.566031 23.165903 
L 338.771353 23.272072 
L 339.976676 23.093356 
L 342.387322 23.586339 
L 344.797968 24.051684 
L 346.00329 23.598468 
L 347.208613 23.737649 
L 350.824582 24.570935 
L 352.029905 24.649826 
L 356.851196 25.400031 
L 360.467164 25.832064 
L 361.672487 26.093674 
L 362.87781 25.776928 
L 364.083133 25.899326 
L 365.288456 25.178724 
L 367.699101 25.183883 
L 370.109747 25.552108 
L 371.31507 25.373655 
L 372.520393 25.31337 
L 377.341684 26.201722 
L 378.547007 24.968966 
L 382.162975 25.562759 
L 383.368298 25.021968 
L 384.573621 24.951554 
L 385.778944 25.197565 
L 386.984267 25.054069 
L 388.189589 25.291617 
L 389.394912 25.249724 
L 390.600235 25.465514 
L 391.805558 25.29774 
L 393.010881 25.406824 
L 394.216204 25.108912 
L 395.421526 25.250445 
L 399.037495 25.183205 
L 400.242818 24.968557 
L 403.858786 25.338981 
L 405.064109 25.130076 
L 406.269432 25.35128 
L 407.474755 25.044437 
L 408.680078 25.103121 
L 409.8854 24.674359 
L 412.296046 25.075613 
L 413.501369 24.240798 
L 415.912015 24.581498 
L 417.117337 24.254872 
L 418.32266 24.183579 
L 421.938629 24.668776 
L 424.349274 24.047686 
L 429.170566 24.554003 
L 431.581211 24.992092 
L 432.786534 25.012313 
L 433.991857 24.83551 
L 435.19718 24.774941 
L 436.402503 24.833299 
L 437.607826 24.751655 
L 441.223794 25.293981 
L 442.429117 25.388245 
L 443.63444 25.261566 
L 447.250408 25.803029 
L 448.455731 25.735634 
L 450.866377 26.12735 
L 453.277022 25.830172 
L 459.303636 26.669387 
L 460.508959 26.418398 
L 461.714282 26.428153 
L 462.919605 26.621189 
L 464.124928 26.261796 
L 465.330251 26.415795 
L 466.535573 24.070054 
L 468.946219 24.293654 
L 470.151542 19.376063 
L 471.356865 19.203555 
L 473.76751 19.183621 
L 474.972833 17.54312 
L 476.178156 17.717345 
L 477.383479 17.507835 
L 478.588802 17.68715 
L 479.794125 16.575115 
L 480.999447 16.786421 
L 482.20477 15.880553 
L 483.410093 15.860607 
L 488.231384 16.435289 
L 493.052676 17.019365 
L 494.257999 16.130323 
L 495.463321 15.994661 
L 502.695258 16.618823 
L 503.900581 16.570556 
L 508.721873 17.170523 
L 509.927195 16.543514 
L 511.132518 16.384914 
L 512.337841 15.93446 
L 514.748487 15.971924 
L 515.95381 16.166667 
L 515.95381 16.166667 
" clip-path="url(#p81bfc9b300)" style="fill: none; stroke-dasharray: 5.55,2.4; stroke-dashoffset: 0; stroke: #ff8c00; stroke-width: 1.5"/>
   </g>
   <g id="patch_3">
    <path d="M 35.03 97 
L 35.03 0 
" style="fill: none; stroke: #000000; stroke-width: 0.8; stroke-linejoin: miter; stroke-linecap: square"/>
   </g>
   <g id="patch_4">
    <path d="M 540 97 
L 540 0 
" style="fill: none; stroke: #000000; stroke-width: 0.8; stroke-linejoin: miter; stroke-linecap: square"/>
   </g>
   <g id="patch_5">
    <path d="M 35.03 97 
L 540 97 
" style="fill: none; stroke: #000000; stroke-width: 0.8; stroke-linejoin: miter; stroke-linecap: square"/>
   </g>
   <g id="patch_6">
    <path d="M 35.03 0 
L 540 0 
" style="fill: none; stroke: #000000; stroke-width: 0.8; stroke-linejoin: miter; stroke-linecap: square"/>
   </g>
  </g>
 </g>
 <defs>
  <clipPath id="p81bfc9b300">
   <rect x="35.03" y="0" width="504.97" height="97"/>
  </clipPath>
 </defs>
</svg>
