<?xml version="1.0" encoding="utf-8" standalone="no"?>
<!DOCTYPE svg PUBLIC "-//W3C//DTD SVG 1.1//EN"
  "http://www.w3.org/Graphics/SVG/1.1/DTD/svg11.dtd">
<svg xmlns:xlink="http://www.w3.org/1999/xlink" width="540pt" height="129.6pt" viewBox="0 0 540 129.6" xmlns="http://www.w3.org/2000/svg" version="1.1">
 <metadata>
  <rdf:RDF xmlns:dc="http://purl.org/dc/elements/1.1/" xmlns:cc="http://creativecommons.org/ns#" xmlns:rdf="http://www.w3.org/1999/02/22-rdf-syntax-ns#">
   <cc:Work>
    <dc:type rdf:resource="http://purl.org/dc/dcmitype/StillImage"/>
    <dc:date>2025-03-29T00:46:19.345189</dc:date>
    <dc:format>image/svg+xml</dc:format>
    <dc:creator>
     <cc:Agent>
      <dc:title>Matplotlib v3.8.3, https://matplotlib.org/</dc:title>
     </cc:Agent>
    </dc:creator>
   </cc:Work>
  </rdf:RDF>
 </metadata>
 <defs>
  <style type="text/css">*{stroke-linejoin: round; stroke-linecap: butt}</style>
 </defs>
 <g id="figure_1">
  <g id="patch_1">
   <path d="M 0 129.6 
L 540 129.6 
L 540 0 
L 0 0 
z
" style="fill: #ffffff"/>
  </g>
  <g id="axes_1">
   <g id="patch_2">
    <path d="M 35.03 97 
L 540 97 
L 540 0 
L 35.03 0 
z
" style="fill: #ffffff"/>
   </g>
   <g id="matplotlib.axis_1">
    <g id="xtick_1">
     <g id="line2d_1">
      <path d="M 35.03 97 
L 35.03 0 
" clip-path="url(#pfc676baf8a)" style="fill: none; stroke: #b0b0b0; stroke-width: 0.8; stroke-linecap: square"/>
     </g>
     <g id="line2d_2">
      <defs>
       <path id="m45d6574095" d="M 0 0 
L 0 3.5 
" style="stroke: #000000; stroke-width: 0.8"/>
      </defs>
      <g>
       <use xlink:href="#m45d6574095" x="35.03" y="97" style="stroke: #000000; stroke-width: 0.8"/>
      </g>
     </g>
     <g id="text_1">
      <text style="font: 10px 'Times New Roman'; text-anchor: middle" x="35.03" y="110.94375" transform="rotate(-0 35.03 110.94375)">0</text>
     </g>
    </g>
    <g id="xtick_2">
     <g id="line2d_3">
      <path d="M 95.296142 97 
L 95.296142 0 
" clip-path="url(#pfc676baf8a)" style="fill: none; stroke: #b0b0b0; stroke-width: 0.8; stroke-linecap: square"/>
     </g>
     <g id="line2d_4">
      <g>
       <use xlink:href="#m45d6574095" x="95.296142" y="97" style="stroke: #000000; stroke-width: 0.8"/>
      </g>
     </g>
     <g id="text_2">
      <text style="font: 10px 'Times New Roman'; text-anchor: middle" x="95.296142" y="110.94375" transform="rotate(-0 95.296142 110.94375)">50</text>
     </g>
    </g>
    <g id="xtick_3">
     <g id="line2d_5">
      <path d="M 155.562283 97 
L 155.562283 0 
" clip-path="url(#pfc676baf8a)" style="fill: none; stroke: #b0b0b0; stroke-width: 0.8; stroke-linecap: square"/>
     </g>
     <g id="line2d_6">
      <g>
       <use xlink:href="#m45d6574095" x="155.562283" y="97" style="stroke: #000000; stroke-width: 0.8"/>
      </g>
     </g>
     <g id="text_3">
      <text style="font: 10px 'Times New Roman'; text-anchor: middle" x="155.562283" y="110.94375" transform="rotate(-0 155.562283 110.94375)">100</text>
     </g>
    </g>
    <g id="xtick_4">
     <g id="line2d_7">
      <path d="M 215.828425 97 
L 215.828425 0 
" clip-path="url(#pfc676baf8a)" style="fill: none; stroke: #b0b0b0; stroke-width: 0.8; stroke-linecap: square"/>
     </g>
     <g id="line2d_8">
      <g>
       <use xlink:href="#m45d6574095" x="215.828425" y="97" style="stroke: #000000; stroke-width: 0.8"/>
      </g>
     </g>
     <g id="text_4">
      <text style="font: 10px 'Times New Roman'; text-anchor: middle" x="215.828425" y="110.94375" transform="rotate(-0 215.828425 110.94375)">150</text>
     </g>
    </g>
    <g id="xtick_5">
     <g id="line2d_9">
      <path d="M 276.094566 97 
L 276.094566 0 
" clip-path="url(#pfc676baf8a)" style="fill: none; stroke: #b0b0b0; stroke-width: 0.8; stroke-linecap: square"/>
     </g>
     <g id="line2d_10">
      <g>
       <use xlink:href="#m45d6574095" x="276.094566" y="97" style="stroke: #000000; stroke-width: 0.8"/>
      </g>
     </g>
     <g id="text_5">
      <text style="font: 10px 'Times New Roman'; text-anchor: middle" x="276.094566" y="110.94375" transform="rotate(-0 276.094566 110.94375)">200</text>
     </g>
    </g>
    <g id="xtick_6">
     <g id="line2d_11">
      <path d="M 336.360708 97 
L 336.360708 0 
" clip-path="url(#pfc676baf8a)" style="fill: none; stroke: #b0b0b0; stroke-width: 0.8; stroke-linecap: square"/>
     </g>
     <g id="line2d_12">
      <g>
       <use xlink:href="#m45d6574095" x="336.360708" y="97" style="stroke: #000000; stroke-width: 0.8"/>
      </g>
     </g>
     <g id="text_6">
      <text style="font: 10px 'Times New Roman'; text-anchor: middle" x="336.360708" y="110.94375" transform="rotate(-0 336.360708 110.94375)">250</text>
     </g>
    </g>
    <g id="xtick_7">
     <g id="line2d_13">
      <path d="M 396.626849 97 
L 396.626849 0 
" clip-path="url(#pfc676baf8a)" style="fill: none; stroke: #b0b0b0; stroke-width: 0.8; stroke-linecap: square"/>
     </g>
     <g id="line2d_14">
      <g>
       <use xlink:href="#m45d6574095" x="396.626849" y="97" style="stroke: #000000; stroke-width: 0.8"/>
      </g>
     </g>
     <g id="text_7">
      <text style="font: 10px 'Times New Roman'; text-anchor: middle" x="396.626849" y="110.94375" transform="rotate(-0 396.626849 110.94375)">300</text>
     </g>
    </g>
    <g id="xtick_8">
     <g id="line2d_15">
      <path d="M 456.892991 97 
L 456.892991 0 
" clip-path="url(#pfc676baf8a)" style="fill: none; stroke: #b0b0b0; stroke-width: 0.8; stroke-linecap: square"/>
     </g>
     <g id="line2d_16">
      <g>
       <use xlink:href="#m45d6574095" x="456.892991" y="97" style="stroke: #000000; stroke-width: 0.8"/>
      </g>
     </g>
     <g id="text_8">
      <text style="font: 10px 'Times New Roman'; text-anchor: middle" x="456.892991" y="110.94375" transform="rotate(-0 456.892991 110.94375)">350</text>
     </g>
    </g>
    <g id="xtick_9">
     <g id="line2d_17">
      <path d="M 517.159132 97 
L 517.159132 0 
" clip-path="url(#pfc676baf8a)" style="fill: none; stroke: #b0b0b0; stroke-width: 0.8; stroke-linecap: square"/>
     </g>
     <g id="line2d_18">
      <g>
       <use xlink:href="#m45d6574095" x="517.159132" y="97" style="stroke: #000000; stroke-width: 0.8"/>
      </g>
     </g>
     <g id="text_9">
      <text style="font: 10px 'Times New Roman'; text-anchor: middle" x="517.159132" y="110.94375" transform="rotate(-0 517.159132 110.94375)">400</text>
     </g>
    </g>
    <g id="text_10">
     <text style="font: 12px 'Times New Roman'; text-anchor: middle" x="287.515" y="125.415312" transform="rotate(-0 287.515 125.415312)">Simulation Run</text>
    </g>
   </g>
   <g id="matplotlib.axis_2">
    <g id="ytick_1">
     <g id="line2d_19">
      <path d="M 35.03 97 
L 540 97 
" clip-path="url(#pfc676baf8a)" style="fill: none; stroke: #b0b0b0; stroke-width: 0.8; stroke-linecap: square"/>
     </g>
     <g id="line2d_20">
      <defs>
       <path id="m1e023e65d0" d="M 0 0 
L -3.5 0 
" style="stroke: #000000; stroke-width: 0.8"/>
      </defs>
      <g>
       <use xlink:href="#m1e023e65d0" x="35.03" y="97" style="stroke: #000000; stroke-width: 0.8"/>
      </g>
     </g>
     <g id="text_11">
      <text style="font: 10px 'Times New Roman'; text-anchor: end" x="28.03" y="100.471875" transform="rotate(-0 28.03 100.471875)">0.0</text>
     </g>
    </g>
    <g id="ytick_2">
     <g id="line2d_21">
      <path d="M 35.03 56.583333 
L 540 56.583333 
" clip-path="url(#pfc676baf8a)" style="fill: none; stroke: #b0b0b0; stroke-width: 0.8; stroke-linecap: square"/>
     </g>
     <g id="line2d_22">
      <g>
       <use xlink:href="#m1e023e65d0" x="35.03" y="56.583333" style="stroke: #000000; stroke-width: 0.8"/>
      </g>
     </g>
     <g id="text_12">
      <text style="font: 10px 'Times New Roman'; text-anchor: end" x="28.03" y="60.055208" transform="rotate(-0 28.03 60.055208)">0.5</text>
     </g>
    </g>
    <g id="ytick_3">
     <g id="line2d_23">
      <path d="M 35.03 16.166667 
L 540 16.166667 
" clip-path="url(#pfc676baf8a)" style="fill: none; stroke: #b0b0b0; stroke-width: 0.8; stroke-linecap: square"/>
     </g>
     <g id="line2d_24">
      <g>
       <use xlink:href="#m1e023e65d0" x="35.03" y="16.166667" style="stroke: #000000; stroke-width: 0.8"/>
      </g>
     </g>
     <g id="text_13">
      <text style="font: 10px 'Times New Roman'; text-anchor: end" x="28.03" y="19.638542" transform="rotate(-0 28.03 19.638542)">1.0</text>
     </g>
    </g>
    <g id="text_14">
     <text style="font: 12px 'Times New Roman'; text-anchor: middle" x="8.963125" y="48.5" transform="rotate(-90 8.963125 48.5)">Normalized Value</text>
    </g>
   </g>
   <g id="line2d_25">
    <path d="M 35.03 10.30037 
L 36.235323 15.536995 
L 37.440646 13.015369 
L 38.645968 12.265393 
L 39.851291 13.497029 
L 41.056614 13.88428 
L 42.261937 8.076646 
L 43.46726 10.676784 
L 44.672583 12.179994 
L 45.877905 11.29916 
L 47.083228 14.077935 
L 48.288551 14.859705 
L 50.699197 18.312618 
L 53.109842 20.672693 
L 54.315165 20.491741 
L 55.520488 20.018164 
L 56.725811 19.044033 
L 57.931134 18.396559 
L 59.136457 19.354524 
L 61.547102 16.281139 
L 62.752425 15.938465 
L 63.957748 17.289319 
L 65.163071 17.232723 
L 66.368394 16.159882 
L 67.573716 14.605755 
L 68.779039 15.700631 
L 69.984362 16.292776 
L 71.189685 16.063602 
L 72.395008 16.618755 
L 73.600331 16.772896 
L 76.010976 17.686596 
L 78.421622 17.761535 
L 80.832268 18.367924 
L 82.03759 18.920504 
L 83.242913 19.049658 
L 84.448236 18.959244 
L 86.858882 19.506415 
L 88.064205 20.015906 
L 89.269527 19.567425 
L 90.47485 19.404297 
L 91.680173 18.455356 
L 92.885496 19.064798 
L 94.090819 18.054374 
L 96.501464 18.393699 
L 97.706787 18.008291 
L 98.91211 17.770217 
L 100.117433 18.169572 
L 101.322756 17.462062 
L 102.528079 17.09883 
L 103.733401 17.176643 
L 104.938724 17.642749 
L 106.144047 17.968947 
L 107.34937 18.545872 
L 108.554693 18.308973 
L 109.760016 18.577729 
L 110.965338 18.693476 
L 113.375984 18.316025 
L 114.581307 18.286964 
L 115.78663 18.488374 
L 118.197275 18.427769 
L 119.402598 18.923623 
L 121.813244 18.981548 
L 123.018567 18.811287 
L 124.223889 18.524506 
L 126.634535 18.560744 
L 127.839858 18.161597 
L 129.045181 18.542206 
L 131.455826 18.367231 
L 132.661149 18.750588 
L 136.277118 18.739165 
L 137.482441 19.0614 
L 138.687763 18.632107 
L 139.893086 18.680675 
L 142.303732 19.176441 
L 143.509055 19.222653 
L 144.714378 19.525678 
L 145.9197 19.205368 
L 148.330346 18.929339 
L 150.740992 19.009468 
L 153.151637 19.22506 
L 155.562283 19.17433 
L 156.767606 19.2825 
L 159.178252 19.072002 
L 160.383574 18.415568 
L 162.79422 18.500412 
L 165.204866 18.072053 
L 166.410189 17.933474 
L 167.615511 17.63757 
L 170.026157 17.817746 
L 172.436803 18.162096 
L 173.642126 17.841437 
L 176.052771 17.930577 
L 177.258094 17.753466 
L 178.463417 18.010466 
L 179.66874 18.105033 
L 180.874063 17.963052 
L 183.284708 17.896163 
L 184.490031 18.144127 
L 185.695354 18.032189 
L 186.900677 18.221466 
L 189.311322 18.104364 
L 190.516645 17.83319 
L 192.927291 17.620094 
L 194.132614 17.546748 
L 195.337937 17.692806 
L 196.543259 17.311563 
L 197.748582 17.424758 
L 198.953905 17.4075 
L 200.159228 17.574594 
L 201.364551 17.30723 
L 202.569873 17.178471 
L 204.980519 17.359155 
L 206.185842 17.382946 
L 207.391165 17.274766 
L 208.596488 17.339951 
L 211.007133 17.304576 
L 212.212456 17.372175 
L 215.828425 17.241543 
L 217.033747 17.477993 
L 218.23907 17.577054 
L 219.444393 17.419417 
L 220.649716 17.386663 
L 221.855039 17.194483 
L 223.060362 17.123255 
L 229.086976 17.52908 
L 231.497621 17.356048 
L 232.702944 17.18468 
L 236.318913 17.049015 
L 237.524236 16.944914 
L 243.55085 17.304377 
L 244.756173 17.25748 
L 245.961495 17.465351 
L 248.372141 17.487127 
L 249.577464 17.141233 
L 251.98811 17.169734 
L 254.398755 17.247812 
L 258.014724 16.956276 
L 259.220047 16.722863 
L 260.425369 16.617229 
L 262.836015 16.78117 
L 265.246661 16.68738 
L 266.451984 16.438975 
L 267.657306 16.465128 
L 268.862629 16.357403 
L 273.683921 16.539296 
L 274.889243 16.322185 
L 278.505212 16.298536 
L 279.710535 16.193995 
L 282.12118 16.450199 
L 283.326503 16.606829 
L 285.737149 16.119653 
L 291.763763 16.280932 
L 292.969086 16.104156 
L 294.174409 16.045766 
L 295.379731 16.167294 
L 297.790377 16.191251 
L 298.9957 16.182305 
L 300.201023 16.035266 
L 303.816991 16.190218 
L 305.022314 16.367447 
L 309.843605 16.371625 
L 311.048928 16.096689 
L 312.254251 16.029916 
L 313.459574 16.087345 
L 317.075542 15.857284 
L 319.486188 15.919578 
L 320.691511 15.946621 
L 321.896834 16.095696 
L 323.102157 16.081284 
L 324.307479 15.905418 
L 326.718125 16.0576 
L 329.128771 15.949215 
L 330.334094 15.995679 
L 331.539416 15.915919 
L 333.950062 15.963024 
L 335.155385 15.8656 
L 336.360708 15.936152 
L 338.771353 15.895663 
L 339.976676 15.913358 
L 342.387322 15.719913 
L 358.056519 15.937513 
L 359.261842 15.795595 
L 361.672487 15.90519 
L 364.083133 16.006074 
L 365.288456 15.714273 
L 371.31507 15.690816 
L 374.931038 15.925466 
L 376.136361 15.881303 
L 377.341684 16.008506 
L 380.957652 15.939606 
L 384.573621 16.013472 
L 386.984267 15.942256 
L 391.805558 15.953301 
L 394.216204 15.961017 
L 396.626849 15.715803 
L 397.832172 15.386131 
L 403.858786 15.454875 
L 411.090723 15.467173 
L 425.554597 15.50615 
L 429.170566 15.650489 
L 435.19718 15.62294 
L 438.813148 15.737231 
L 447.250408 15.629055 
L 452.071699 15.825976 
L 453.277022 15.762331 
L 455.687668 15.921721 
L 459.303636 15.868466 
L 466.535573 16.306932 
L 471.356865 16.397263 
L 473.76751 16.266596 
L 474.972833 16.174482 
L 478.588802 16.136727 
L 480.999447 16.063709 
L 483.410093 16.050534 
L 487.026062 16.143466 
L 488.231384 16.08909 
L 489.436707 16.148402 
L 491.847353 15.98413 
L 497.873967 16.099776 
L 502.695258 16.102099 
L 503.900581 15.958804 
L 507.51655 16.122121 
L 509.927195 16.094032 
L 514.748487 16.061068 
L 515.95381 16.166667 
L 515.95381 16.166667 
" clip-path="url(#pfc676baf8a)" style="fill: none; stroke: #4169e1; stroke-width: 1.5; stroke-linecap: square"/>
   </g>
   <g id="line2d_26">
    <path d="M 35.03 97 
L 36.235323 92.189991 
L 37.440646 91.562662 
L 38.645968 92.626019 
L 39.851291 92.436508 
L 41.056614 93.065568 
L 42.261937 58.130555 
L 43.46726 54.688172 
L 44.672583 56.218662 
L 45.877905 59.071972 
L 47.083228 48.975888 
L 48.288551 51.798682 
L 49.493874 48.945944 
L 50.699197 45.641967 
L 51.90452 45.660924 
L 53.109842 45.190201 
L 54.315165 48.145941 
L 55.520488 50.191291 
L 56.725811 49.65885 
L 57.931134 50.628766 
L 59.136457 49.617545 
L 61.547102 36.290322 
L 62.752425 38.346159 
L 63.957748 33.010368 
L 65.163071 35.457461 
L 66.368394 32.487692 
L 67.573716 23.352913 
L 68.779039 20.004965 
L 69.984362 20.787869 
L 71.189685 22.969953 
L 72.395008 23.607561 
L 73.600331 25.698215 
L 74.805653 26.694072 
L 76.010976 27.342915 
L 78.421622 31.072532 
L 80.832268 33.259278 
L 82.03759 32.763987 
L 84.448236 35.649808 
L 85.653559 36.653609 
L 86.858882 37.311632 
L 88.064205 36.63463 
L 89.269527 36.359308 
L 90.47485 37.434823 
L 91.680173 31.252088 
L 92.885496 29.466732 
L 94.090819 22.042411 
L 96.501464 24.420354 
L 97.706787 24.434944 
L 98.91211 25.251823 
L 100.117433 25.045714 
L 101.322756 21.50146 
L 102.528079 21.53001 
L 103.733401 22.77068 
L 104.938724 21.818551 
L 106.144047 21.970397 
L 107.34937 19.697456 
L 108.554693 20.343793 
L 109.760016 20.775054 
L 110.965338 21.818021 
L 113.375984 23.292441 
L 114.581307 24.382776 
L 115.78663 24.973937 
L 118.197275 27.009881 
L 119.402598 24.97675 
L 121.813244 26.912415 
L 123.018567 27.488352 
L 124.223889 27.347655 
L 126.634535 29.126948 
L 127.839858 27.845328 
L 129.045181 26.738747 
L 130.250504 27.338604 
L 131.455826 28.183126 
L 132.661149 26.934343 
L 136.277118 29.349891 
L 137.482441 28.588393 
L 138.687763 26.594705 
L 139.893086 27.358768 
L 142.303732 27.008738 
L 143.509055 27.74416 
L 144.714378 27.031254 
L 145.9197 26.127944 
L 147.125023 26.321714 
L 150.740992 28.242472 
L 151.946315 28.519196 
L 155.562283 30.472089 
L 159.178252 31.78856 
L 160.383574 24.548968 
L 162.79422 25.798956 
L 163.999543 25.10961 
L 166.410189 25.567183 
L 167.615511 24.521303 
L 168.820834 25.133899 
L 170.026157 25.395429 
L 171.23148 25.310645 
L 172.436803 25.455479 
L 173.642126 23.998148 
L 176.052771 25.149475 
L 177.258094 25.104003 
L 178.463417 24.32447 
L 179.66874 24.73686 
L 180.874063 24.901336 
L 183.284708 26.01042 
L 184.490031 25.240993 
L 185.695354 25.535777 
L 186.900677 25.306696 
L 189.311322 26.251916 
L 190.516645 25.132225 
L 191.721968 25.171622 
L 194.132614 26.03477 
L 195.337937 26.066689 
L 196.543259 23.175865 
L 197.748582 23.415281 
L 198.953905 23.945291 
L 200.159228 23.80373 
L 201.364551 22.599996 
L 203.775196 22.855127 
L 206.185842 23.808405 
L 207.391165 24.023138 
L 214.623102 26.479251 
L 215.828425 26.92428 
L 217.033747 25.904496 
L 218.23907 26.107537 
L 219.444393 25.900987 
L 220.649716 26.330711 
L 221.855039 25.779591 
L 224.265684 26.320881 
L 225.471007 26.289839 
L 226.67633 26.602693 
L 227.881653 26.767205 
L 230.292299 27.574521 
L 231.497621 27.49017 
L 232.702944 27.066652 
L 235.11359 27.862526 
L 236.318913 28.069997 
L 237.524236 28.158516 
L 238.729558 28.373111 
L 239.934881 28.167851 
L 241.140204 28.3343 
L 242.345527 28.138859 
L 243.55085 28.316101 
L 244.756173 28.641454 
L 245.961495 27.703468 
L 248.372141 28.472858 
L 249.577464 25.120177 
L 251.98811 25.711681 
L 255.604078 26.49668 
L 256.809401 26.357227 
L 258.014724 26.557312 
L 259.220047 25.156515 
L 261.630692 25.248749 
L 264.041338 25.726483 
L 265.246661 26.060236 
L 266.451984 24.349706 
L 267.657306 24.701037 
L 268.862629 24.676905 
L 270.067952 24.997319 
L 272.478598 25.169004 
L 273.683921 24.86472 
L 274.889243 23.580049 
L 276.094566 23.938697 
L 277.299889 24.131951 
L 279.710535 24.057207 
L 280.915858 24.156014 
L 282.12118 23.452584 
L 283.326503 22.921423 
L 284.531826 21.000672 
L 285.737149 19.319191 
L 286.942472 19.664077 
L 288.147794 19.67998 
L 291.763763 20.727439 
L 292.969086 19.909189 
L 294.174409 20.137515 
L 295.379731 19.932163 
L 298.9957 20.806902 
L 300.201023 20.317346 
L 301.406346 20.611291 
L 302.611668 20.625893 
L 303.816991 20.938875 
L 305.022314 20.042793 
L 308.638283 20.920557 
L 309.843605 21.224376 
L 311.048928 18.517555 
L 313.459574 18.881394 
L 314.664897 18.78833 
L 315.87022 18.338784 
L 318.280865 18.983988 
L 319.486188 19.032972 
L 320.691511 19.330163 
L 321.896834 18.727387 
L 323.102157 19.044815 
L 324.307479 18.066255 
L 325.512802 18.204174 
L 326.718125 18.218499 
L 327.923448 18.344485 
L 330.334094 18.821546 
L 331.539416 18.863556 
L 333.950062 19.404626 
L 335.155385 19.300459 
L 337.566031 19.588707 
L 339.976676 20.180184 
L 341.181999 19.481169 
L 344.797968 20.211853 
L 346.00329 20.506766 
L 349.619259 20.472743 
L 353.235227 20.95389 
L 354.44055 21.127536 
L 355.645873 21.151692 
L 358.056519 21.712288 
L 359.261842 21.040807 
L 360.467164 20.910794 
L 362.87781 21.453518 
L 364.083133 21.299188 
L 365.288456 17.48217 
L 371.31507 18.821356 
L 372.520393 18.503636 
L 373.725715 18.416205 
L 376.136361 18.800311 
L 377.341684 18.268654 
L 379.75233 18.705456 
L 382.162975 19.14886 
L 384.573621 19.647088 
L 385.778944 19.50792 
L 390.600235 20.412858 
L 394.216204 20.840675 
L 395.421526 20.759705 
L 396.626849 19.574955 
L 397.832172 14.093146 
L 405.064109 15.374022 
L 406.269432 15.502311 
L 407.474755 14.911449 
L 409.8854 15.22568 
L 411.090723 14.718692 
L 413.501369 15.219067 
L 415.912015 15.237423 
L 418.32266 15.543461 
L 421.938629 15.856223 
L 424.349274 15.881273 
L 425.554597 16.056131 
L 427.965243 15.958751 
L 430.375889 16.418437 
L 431.581211 16.333257 
L 432.786534 16.558624 
L 435.19718 16.807278 
L 436.402503 16.733601 
L 437.607826 16.941925 
L 438.813148 16.93873 
L 441.223794 17.269123 
L 444.839763 17.864549 
L 447.250408 18.320754 
L 448.455731 18.40446 
L 449.661054 18.224817 
L 450.866377 18.452482 
L 453.277022 18.39953 
L 455.687668 18.072406 
L 459.303636 18.533604 
L 460.508959 18.270169 
L 462.919605 17.486853 
L 464.124928 17.492646 
L 465.330251 17.714703 
L 466.535573 17.407272 
L 471.356865 17.969643 
L 472.562188 18.176952 
L 473.76751 17.500019 
L 474.972833 17.173996 
L 476.178156 17.359336 
L 477.383479 17.166049 
L 478.588802 17.357508 
L 479.794125 17.057319 
L 480.999447 17.255721 
L 485.820739 17.601993 
L 487.026062 17.793004 
L 489.436707 17.784977 
L 490.64203 17.194457 
L 494.257999 17.293265 
L 495.463321 17.361999 
L 500.284613 18.029226 
L 502.695258 18.01317 
L 503.900581 16.814636 
L 506.311227 16.585067 
L 507.51655 16.74019 
L 508.721873 16.676967 
L 511.132518 16.922464 
L 513.543164 16.554631 
L 514.748487 16.746458 
L 515.95381 16.166667 
L 515.95381 16.166667 
" clip-path="url(#pfc676baf8a)" style="fill: none; stroke-dasharray: 5.55,2.4; stroke-dashoffset: 0; stroke: #4169e1; stroke-width: 1.5"/>
   </g>
   <g id="line2d_27">
    <path d="M 35.03 19.014281 
L 37.440646 15.412444 
L 38.645968 14.289438 
L 39.851291 14.977376 
L 41.056614 14.436267 
L 42.261937 8.377753 
L 43.46726 10.70732 
L 44.672583 12.046198 
L 45.877905 11.902466 
L 47.083228 14.336176 
L 48.288551 15.236935 
L 49.493874 16.339189 
L 50.699197 17.771585 
L 51.90452 18.553614 
L 53.109842 19.804321 
L 55.520488 18.970627 
L 56.725811 17.999878 
L 57.931134 17.636001 
L 59.136457 18.767038 
L 60.341779 17.586776 
L 61.547102 16.859216 
L 62.752425 16.342395 
L 63.957748 17.63338 
L 65.163071 17.593059 
L 66.368394 16.431554 
L 67.573716 14.843206 
L 68.779039 15.822608 
L 69.984362 16.242674 
L 71.189685 16.155909 
L 72.395008 16.628507 
L 73.600331 16.571657 
L 76.010976 17.461421 
L 80.832268 18.089201 
L 82.03759 18.520496 
L 83.242913 18.687382 
L 84.448236 18.666679 
L 86.858882 19.154159 
L 88.064205 19.701269 
L 89.269527 19.245117 
L 90.47485 19.126385 
L 91.680173 18.599208 
L 92.885496 19.029592 
L 94.090819 17.964645 
L 96.501464 18.144378 
L 97.706787 17.679721 
L 98.91211 17.413567 
L 100.117433 17.806157 
L 101.322756 17.150316 
L 102.528079 16.800436 
L 103.733401 16.853612 
L 104.938724 17.314288 
L 106.144047 17.559583 
L 107.34937 18.131988 
L 108.554693 17.938809 
L 109.760016 18.173928 
L 110.965338 18.257108 
L 113.375984 17.877217 
L 114.581307 17.83565 
L 115.78663 17.958621 
L 118.197275 17.895027 
L 119.402598 18.337536 
L 121.813244 18.41121 
L 124.223889 17.932775 
L 125.429212 18.044329 
L 126.634535 17.98074 
L 127.839858 17.559168 
L 129.045181 17.916765 
L 130.250504 17.797402 
L 131.455826 17.860418 
L 132.661149 18.237336 
L 136.277118 18.334005 
L 137.482441 18.659428 
L 138.687763 18.270275 
L 139.893086 18.380025 
L 142.303732 18.789112 
L 143.509055 18.896857 
L 144.714378 19.19086 
L 147.125023 18.718913 
L 149.535669 18.604517 
L 153.151637 18.898087 
L 155.562283 18.738741 
L 156.767606 18.843611 
L 159.178252 18.61026 
L 160.383574 18.130784 
L 161.588897 18.109419 
L 162.79422 18.214319 
L 165.204866 17.832041 
L 166.410189 17.722929 
L 167.615511 17.464808 
L 168.820834 17.490436 
L 172.436803 17.893172 
L 173.642126 17.605761 
L 177.258094 17.487297 
L 178.463417 17.760033 
L 179.66874 17.837988 
L 180.874063 17.693465 
L 183.284708 17.5994 
L 184.490031 17.845026 
L 185.695354 17.734213 
L 186.900677 17.881227 
L 189.311322 17.817329 
L 191.721968 17.51227 
L 194.132614 17.386432 
L 195.337937 17.520178 
L 196.543259 17.163333 
L 200.159228 17.385678 
L 202.569873 16.972547 
L 204.980519 17.098772 
L 206.185842 17.154777 
L 207.391165 17.087593 
L 212.212456 17.227205 
L 215.828425 17.086033 
L 217.033747 17.318743 
L 218.23907 17.431365 
L 219.444393 17.241004 
L 220.649716 17.22931 
L 221.855039 17.039541 
L 223.060362 16.978077 
L 229.086976 17.374487 
L 231.497621 17.218563 
L 232.702944 17.058618 
L 238.729558 16.920418 
L 239.934881 17.065217 
L 241.140204 16.981325 
L 243.55085 17.186175 
L 244.756173 17.168827 
L 245.961495 17.367584 
L 248.372141 17.412367 
L 249.577464 17.068265 
L 251.98811 17.06984 
L 254.398755 17.162785 
L 258.014724 16.839864 
L 259.220047 16.606097 
L 260.425369 16.504059 
L 262.836015 16.645603 
L 265.246661 16.555899 
L 266.451984 16.301744 
L 273.683921 16.476977 
L 274.889243 16.291707 
L 278.505212 16.290157 
L 279.710535 16.191221 
L 282.12118 16.430712 
L 283.326503 16.56701 
L 285.737149 16.077198 
L 292.969086 16.158938 
L 294.174409 16.077664 
L 295.379731 16.186077 
L 296.585054 16.152356 
L 297.790377 16.232785 
L 298.9957 16.196122 
L 300.201023 16.045865 
L 303.816991 16.174246 
L 305.022314 16.355617 
L 309.843605 16.341968 
L 311.048928 16.079316 
L 312.254251 16.003456 
L 313.459574 16.070239 
L 317.075542 15.844838 
L 319.486188 15.881586 
L 320.691511 15.914897 
L 321.896834 16.06885 
L 323.102157 16.037795 
L 324.307479 15.890759 
L 327.923448 15.953295 
L 331.539416 15.965468 
L 333.950062 15.983274 
L 335.155385 15.859672 
L 336.360708 15.923665 
L 338.771353 15.869419 
L 339.976676 15.885018 
L 342.387322 15.678155 
L 347.208613 15.775585 
L 348.413936 15.858086 
L 350.824582 15.854279 
L 358.056519 15.883806 
L 359.261842 15.7511 
L 361.672487 15.872952 
L 364.083133 15.971049 
L 365.288456 15.730008 
L 371.31507 15.707973 
L 374.931038 15.919411 
L 376.136361 15.864653 
L 377.341684 15.98342 
L 380.957652 15.890039 
L 384.573621 15.977153 
L 386.984267 15.90171 
L 389.394912 15.928315 
L 393.010881 15.959786 
L 396.626849 15.65012 
L 397.832172 15.382059 
L 406.269432 15.510866 
L 408.680078 15.346234 
L 414.706692 15.530252 
L 418.32266 15.398322 
L 424.349274 15.560961 
L 425.554597 15.514762 
L 429.170566 15.643488 
L 435.19718 15.603025 
L 438.813148 15.716508 
L 448.455731 15.637277 
L 452.071699 15.791243 
L 453.277022 15.722615 
L 455.687668 15.885266 
L 459.303636 15.822563 
L 467.740896 16.257067 
L 472.562188 16.32821 
L 474.972833 16.10905 
L 477.383479 16.081118 
L 480.999447 16.03149 
L 483.410093 16.027032 
L 485.820739 16.085826 
L 490.64203 16.008037 
L 493.052676 16.022931 
L 495.463321 16.017993 
L 502.695258 16.048004 
L 503.900581 15.918826 
L 507.51655 16.099375 
L 512.337841 15.987709 
L 515.95381 16.166667 
L 515.95381 16.166667 
" clip-path="url(#pfc676baf8a)" style="fill: none; stroke: #ff8c00; stroke-width: 1.5; stroke-linecap: square"/>
   </g>
   <g id="line2d_28">
    <path d="M 35.03 97 
L 36.235323 96.406948 
L 37.440646 95.15089 
L 38.645968 94.845283 
L 41.056614 94.946214 
L 42.261937 50.541014 
L 43.46726 48.638308 
L 44.672583 51.10123 
L 45.877905 55.653371 
L 47.083228 47.390952 
L 48.288551 49.713613 
L 49.493874 50.391958 
L 50.699197 48.307581 
L 51.90452 49.816007 
L 53.109842 48.002743 
L 55.520488 52.318192 
L 56.725811 51.22719 
L 57.931134 53.005238 
L 59.136457 49.907517 
L 60.341779 46.110817 
L 61.547102 45.959808 
L 62.752425 46.83962 
L 63.957748 40.72775 
L 65.163071 42.883818 
L 66.368394 37.769008 
L 67.573716 26.059383 
L 68.779039 23.054434 
L 69.984362 24.480696 
L 71.189685 26.77419 
L 72.395008 27.563486 
L 73.600331 29.646632 
L 74.805653 30.370984 
L 76.010976 30.83593 
L 78.421622 34.270743 
L 79.626945 35.387735 
L 80.832268 36.734286 
L 82.03759 36.768534 
L 84.448236 39.41241 
L 86.858882 41.017182 
L 88.064205 39.588163 
L 89.269527 38.93586 
L 90.47485 40.039652 
L 91.680173 38.575257 
L 92.885496 37.963071 
L 94.090819 27.865015 
L 96.501464 30.337818 
L 97.706787 29.316944 
L 98.91211 29.808339 
L 100.117433 29.340799 
L 101.322756 25.747569 
L 102.528079 25.60626 
L 103.733401 26.804473 
L 104.938724 25.49602 
L 106.144047 25.967242 
L 107.34937 23.141746 
L 108.554693 23.870987 
L 109.760016 24.336138 
L 110.965338 25.383042 
L 113.375984 26.614574 
L 114.581307 27.641959 
L 115.78663 28.456299 
L 118.197275 30.351983 
L 119.402598 28.508722 
L 121.813244 30.339557 
L 123.018567 30.606828 
L 124.223889 30.383769 
L 126.634535 31.864722 
L 127.839858 29.922347 
L 129.045181 28.747044 
L 130.250504 29.371765 
L 131.455826 30.142205 
L 132.661149 28.622 
L 135.071795 30.242785 
L 136.277118 30.948168 
L 137.482441 29.889275 
L 138.687763 28.017348 
L 139.893086 28.588555 
L 141.098409 28.439421 
L 142.303732 28.600241 
L 143.509055 29.139833 
L 145.9197 27.545727 
L 147.125023 27.596257 
L 148.330346 28.101482 
L 149.535669 28.818545 
L 150.740992 29.37313 
L 151.946315 29.377079 
L 153.151637 30.052469 
L 156.767606 31.536804 
L 157.972929 31.573127 
L 159.178252 32.118693 
L 160.383574 27.883983 
L 161.588897 28.526293 
L 162.79422 28.9295 
L 163.999543 28.487007 
L 165.204866 28.554285 
L 166.410189 28.913137 
L 167.615511 28.039059 
L 168.820834 28.639985 
L 170.026157 28.808925 
L 171.23148 28.787452 
L 172.436803 29.149836 
L 173.642126 27.806719 
L 176.052771 28.953643 
L 177.258094 29.057881 
L 178.463417 27.827496 
L 179.66874 28.251163 
L 180.874063 28.301732 
L 183.284708 29.288641 
L 184.490031 28.311941 
L 185.695354 28.545549 
L 186.900677 28.531848 
L 189.311322 29.538421 
L 190.516645 29.274682 
L 191.721968 29.33082 
L 194.132614 30.13589 
L 195.337937 30.152011 
L 196.543259 27.183995 
L 197.748582 27.520263 
L 198.953905 28.020367 
L 200.159228 27.826689 
L 201.364551 26.709849 
L 202.569873 26.367178 
L 203.775196 26.533105 
L 206.185842 27.419414 
L 208.596488 28.163569 
L 211.007133 29.051098 
L 213.417779 29.614409 
L 215.828425 30.436429 
L 217.033747 29.214698 
L 218.23907 29.266448 
L 219.444393 28.581002 
L 220.649716 29.018141 
L 221.855039 28.321018 
L 223.060362 28.63885 
L 224.265684 28.743043 
L 225.471007 28.665586 
L 230.292299 29.958805 
L 231.497621 29.91506 
L 232.702944 29.470112 
L 235.11359 30.188147 
L 238.729558 30.793925 
L 239.934881 30.45767 
L 241.140204 30.600285 
L 242.345527 30.3451 
L 243.55085 30.558305 
L 244.756173 30.927343 
L 245.961495 29.899639 
L 248.372141 30.609747 
L 249.577464 26.702977 
L 254.398755 27.943343 
L 255.604078 28.035813 
L 256.809401 27.750133 
L 258.014724 27.725102 
L 259.220047 26.032602 
L 260.425369 26.014925 
L 265.246661 26.936225 
L 266.451984 24.782103 
L 267.657306 25.126873 
L 268.862629 25.306516 
L 270.067952 25.64838 
L 271.273275 25.59857 
L 272.478598 25.825596 
L 273.683921 25.285535 
L 274.889243 24.257755 
L 276.094566 24.611229 
L 277.299889 24.731223 
L 280.915858 24.834305 
L 282.12118 23.998311 
L 283.326503 23.574273 
L 284.531826 22.029449 
L 285.737149 19.142618 
L 286.942472 19.483518 
L 288.147794 19.59372 
L 291.763763 20.592754 
L 295.379731 20.48283 
L 296.585054 20.783746 
L 297.790377 20.845549 
L 298.9957 21.131959 
L 300.201023 20.467162 
L 301.406346 20.766591 
L 302.611668 20.808655 
L 303.816991 21.138574 
L 305.022314 19.980203 
L 308.638283 20.852273 
L 309.843605 21.131555 
L 311.048928 18.255101 
L 313.459574 18.45736 
L 314.664897 18.320087 
L 315.87022 17.710296 
L 318.280865 18.339911 
L 319.486188 18.489702 
L 320.691511 18.766203 
L 321.896834 17.948656 
L 323.102157 18.231254 
L 324.307479 17.505009 
L 325.512802 17.711107 
L 327.923448 17.783484 
L 329.128771 18.091214 
L 331.539416 18.578466 
L 333.950062 19.149537 
L 335.155385 18.688861 
L 337.566031 18.971637 
L 339.976676 19.572955 
L 341.181999 18.678 
L 342.387322 18.830884 
L 346.00329 19.723877 
L 347.208613 19.541107 
L 348.413936 19.478708 
L 350.824582 19.844957 
L 352.029905 20.127462 
L 353.235227 20.084495 
L 355.645873 20.283442 
L 358.056519 20.833068 
L 359.261842 20.153681 
L 360.467164 19.887416 
L 362.87781 20.426489 
L 364.083133 20.159188 
L 365.288456 17.207562 
L 371.31507 18.495926 
L 372.520393 18.173105 
L 373.725715 18.146662 
L 376.136361 18.458861 
L 377.341684 17.921385 
L 378.547007 17.946453 
L 380.957652 18.450124 
L 382.162975 18.584637 
L 384.573621 19.078796 
L 385.778944 18.894218 
L 388.189589 19.3945 
L 393.010881 19.935393 
L 395.421526 19.822675 
L 396.626849 18.401435 
L 397.832172 14.271888 
L 405.064109 15.50919 
L 406.269432 15.61399 
L 407.474755 14.966202 
L 409.8854 15.271552 
L 411.090723 14.662472 
L 413.501369 15.154249 
L 417.117337 15.350396 
L 419.527983 15.680426 
L 421.938629 15.959318 
L 424.349274 15.999869 
L 425.554597 16.108744 
L 427.965243 16.072593 
L 430.375889 16.52736 
L 431.581211 16.47869 
L 433.991857 16.841047 
L 435.19718 17.046439 
L 436.402503 16.930142 
L 437.607826 17.159923 
L 438.813148 17.209361 
L 440.018471 17.42465 
L 441.223794 17.424006 
L 446.045085 18.155961 
L 448.455731 18.520267 
L 449.661054 18.268478 
L 450.866377 18.495631 
L 453.277022 18.284234 
L 454.482345 17.882371 
L 455.687668 17.77702 
L 459.303636 18.23083 
L 460.508959 18.052069 
L 462.919605 17.140839 
L 464.124928 17.103536 
L 465.330251 17.325502 
L 466.535573 17.032527 
L 467.740896 17.233015 
L 470.151542 17.443642 
L 472.562188 17.868194 
L 473.76751 16.963661 
L 474.972833 16.500184 
L 476.178156 16.620265 
L 477.383479 16.528931 
L 478.588802 16.738168 
L 479.794125 16.600733 
L 483.410093 17.13745 
L 484.615416 17.071366 
L 487.026062 17.495839 
L 489.436707 17.56679 
L 490.64203 17.203288 
L 493.052676 17.444941 
L 496.668644 17.744272 
L 499.07929 18.083046 
L 500.284613 18.285528 
L 501.489936 18.273306 
L 502.695258 18.059754 
L 503.900581 16.944692 
L 506.311227 16.583935 
L 509.927195 16.826164 
L 511.132518 16.993398 
L 513.543164 16.6597 
L 514.748487 16.858816 
L 515.95381 16.166667 
L 515.95381 16.166667 
" clip-path="url(#pfc676baf8a)" style="fill: none; stroke-dasharray: 5.55,2.4; stroke-dashoffset: 0; stroke: #ff8c00; stroke-width: 1.5"/>
   </g>
   <g id="patch_3">
    <path d="M 35.03 97 
L 35.03 0 
" style="fill: none; stroke: #000000; stroke-width: 0.8; stroke-linejoin: miter; stroke-linecap: square"/>
   </g>
   <g id="patch_4">
    <path d="M 540 97 
L 540 0 
" style="fill: none; stroke: #000000; stroke-width: 0.8; stroke-linejoin: miter; stroke-linecap: square"/>
   </g>
   <g id="patch_5">
    <path d="M 35.03 97 
L 540 97 
" style="fill: none; stroke: #000000; stroke-width: 0.8; stroke-linejoin: miter; stroke-linecap: square"/>
   </g>
   <g id="patch_6">
    <path d="M 35.03 0 
L 540 0 
" style="fill: none; stroke: #000000; stroke-width: 0.8; stroke-linejoin: miter; stroke-linecap: square"/>
   </g>
  </g>
 </g>
 <defs>
  <clipPath id="pfc676baf8a">
   <rect x="35.03" y="0" width="504.97" height="97"/>
  </clipPath>
 </defs>
</svg>
