<?xml version="1.0" encoding="utf-8" standalone="no"?>
<!DOCTYPE svg PUBLIC "-//W3C//DTD SVG 1.1//EN"
  "http://www.w3.org/Graphics/SVG/1.1/DTD/svg11.dtd">
<svg xmlns:xlink="http://www.w3.org/1999/xlink" width="540pt" height="129.6pt" viewBox="0 0 540 129.6" xmlns="http://www.w3.org/2000/svg" version="1.1">
 <metadata>
  <rdf:RDF xmlns:dc="http://purl.org/dc/elements/1.1/" xmlns:cc="http://creativecommons.org/ns#" xmlns:rdf="http://www.w3.org/1999/02/22-rdf-syntax-ns#">
   <cc:Work>
    <dc:type rdf:resource="http://purl.org/dc/dcmitype/StillImage"/>
    <dc:date>2025-03-23T04:47:47.777203</dc:date>
    <dc:format>image/svg+xml</dc:format>
    <dc:creator>
     <cc:Agent>
      <dc:title>Matplotlib v3.8.3, https://matplotlib.org/</dc:title>
     </cc:Agent>
    </dc:creator>
   </cc:Work>
  </rdf:RDF>
 </metadata>
 <defs>
  <style type="text/css">*{stroke-linejoin: round; stroke-linecap: butt}</style>
 </defs>
 <g id="figure_1">
  <g id="patch_1">
   <path d="M 0 129.6 
L 540 129.6 
L 540 0 
L 0 0 
z
" style="fill: #ffffff"/>
  </g>
  <g id="axes_1">
   <g id="patch_2">
    <path d="M 35.03 97 
L 540 97 
L 540 0 
L 35.03 0 
z
" style="fill: #ffffff"/>
   </g>
   <g id="matplotlib.axis_1">
    <g id="xtick_1">
     <g id="line2d_1">
      <path d="M 35.03 97 
L 35.03 0 
" clip-path="url(#p3d27d16dca)" style="fill: none; stroke: #b0b0b0; stroke-width: 0.8; stroke-linecap: square"/>
     </g>
     <g id="line2d_2">
      <defs>
       <path id="m21efe971b5" d="M 0 0 
L 0 3.5 
" style="stroke: #000000; stroke-width: 0.8"/>
      </defs>
      <g>
       <use xlink:href="#m21efe971b5" x="35.03" y="97" style="stroke: #000000; stroke-width: 0.8"/>
      </g>
     </g>
     <g id="text_1">
      <text style="font: 10px 'Times New Roman'; text-anchor: middle" x="35.03" y="110.94375" transform="rotate(-0 35.03 110.94375)">0</text>
     </g>
    </g>
    <g id="xtick_2">
     <g id="line2d_3">
      <path d="M 95.296142 97 
L 95.296142 0 
" clip-path="url(#p3d27d16dca)" style="fill: none; stroke: #b0b0b0; stroke-width: 0.8; stroke-linecap: square"/>
     </g>
     <g id="line2d_4">
      <g>
       <use xlink:href="#m21efe971b5" x="95.296142" y="97" style="stroke: #000000; stroke-width: 0.8"/>
      </g>
     </g>
     <g id="text_2">
      <text style="font: 10px 'Times New Roman'; text-anchor: middle" x="95.296142" y="110.94375" transform="rotate(-0 95.296142 110.94375)">50</text>
     </g>
    </g>
    <g id="xtick_3">
     <g id="line2d_5">
      <path d="M 155.562283 97 
L 155.562283 0 
" clip-path="url(#p3d27d16dca)" style="fill: none; stroke: #b0b0b0; stroke-width: 0.8; stroke-linecap: square"/>
     </g>
     <g id="line2d_6">
      <g>
       <use xlink:href="#m21efe971b5" x="155.562283" y="97" style="stroke: #000000; stroke-width: 0.8"/>
      </g>
     </g>
     <g id="text_3">
      <text style="font: 10px 'Times New Roman'; text-anchor: middle" x="155.562283" y="110.94375" transform="rotate(-0 155.562283 110.94375)">100</text>
     </g>
    </g>
    <g id="xtick_4">
     <g id="line2d_7">
      <path d="M 215.828425 97 
L 215.828425 0 
" clip-path="url(#p3d27d16dca)" style="fill: none; stroke: #b0b0b0; stroke-width: 0.8; stroke-linecap: square"/>
     </g>
     <g id="line2d_8">
      <g>
       <use xlink:href="#m21efe971b5" x="215.828425" y="97" style="stroke: #000000; stroke-width: 0.8"/>
      </g>
     </g>
     <g id="text_4">
      <text style="font: 10px 'Times New Roman'; text-anchor: middle" x="215.828425" y="110.94375" transform="rotate(-0 215.828425 110.94375)">150</text>
     </g>
    </g>
    <g id="xtick_5">
     <g id="line2d_9">
      <path d="M 276.094566 97 
L 276.094566 0 
" clip-path="url(#p3d27d16dca)" style="fill: none; stroke: #b0b0b0; stroke-width: 0.8; stroke-linecap: square"/>
     </g>
     <g id="line2d_10">
      <g>
       <use xlink:href="#m21efe971b5" x="276.094566" y="97" style="stroke: #000000; stroke-width: 0.8"/>
      </g>
     </g>
     <g id="text_5">
      <text style="font: 10px 'Times New Roman'; text-anchor: middle" x="276.094566" y="110.94375" transform="rotate(-0 276.094566 110.94375)">200</text>
     </g>
    </g>
    <g id="xtick_6">
     <g id="line2d_11">
      <path d="M 336.360708 97 
L 336.360708 0 
" clip-path="url(#p3d27d16dca)" style="fill: none; stroke: #b0b0b0; stroke-width: 0.8; stroke-linecap: square"/>
     </g>
     <g id="line2d_12">
      <g>
       <use xlink:href="#m21efe971b5" x="336.360708" y="97" style="stroke: #000000; stroke-width: 0.8"/>
      </g>
     </g>
     <g id="text_6">
      <text style="font: 10px 'Times New Roman'; text-anchor: middle" x="336.360708" y="110.94375" transform="rotate(-0 336.360708 110.94375)">250</text>
     </g>
    </g>
    <g id="xtick_7">
     <g id="line2d_13">
      <path d="M 396.626849 97 
L 396.626849 0 
" clip-path="url(#p3d27d16dca)" style="fill: none; stroke: #b0b0b0; stroke-width: 0.8; stroke-linecap: square"/>
     </g>
     <g id="line2d_14">
      <g>
       <use xlink:href="#m21efe971b5" x="396.626849" y="97" style="stroke: #000000; stroke-width: 0.8"/>
      </g>
     </g>
     <g id="text_7">
      <text style="font: 10px 'Times New Roman'; text-anchor: middle" x="396.626849" y="110.94375" transform="rotate(-0 396.626849 110.94375)">300</text>
     </g>
    </g>
    <g id="xtick_8">
     <g id="line2d_15">
      <path d="M 456.892991 97 
L 456.892991 0 
" clip-path="url(#p3d27d16dca)" style="fill: none; stroke: #b0b0b0; stroke-width: 0.8; stroke-linecap: square"/>
     </g>
     <g id="line2d_16">
      <g>
       <use xlink:href="#m21efe971b5" x="456.892991" y="97" style="stroke: #000000; stroke-width: 0.8"/>
      </g>
     </g>
     <g id="text_8">
      <text style="font: 10px 'Times New Roman'; text-anchor: middle" x="456.892991" y="110.94375" transform="rotate(-0 456.892991 110.94375)">350</text>
     </g>
    </g>
    <g id="xtick_9">
     <g id="line2d_17">
      <path d="M 517.159132 97 
L 517.159132 0 
" clip-path="url(#p3d27d16dca)" style="fill: none; stroke: #b0b0b0; stroke-width: 0.8; stroke-linecap: square"/>
     </g>
     <g id="line2d_18">
      <g>
       <use xlink:href="#m21efe971b5" x="517.159132" y="97" style="stroke: #000000; stroke-width: 0.8"/>
      </g>
     </g>
     <g id="text_9">
      <text style="font: 10px 'Times New Roman'; text-anchor: middle" x="517.159132" y="110.94375" transform="rotate(-0 517.159132 110.94375)">400</text>
     </g>
    </g>
    <g id="text_10">
     <text style="font: 12px 'Times New Roman'; text-anchor: middle" x="287.515" y="125.415312" transform="rotate(-0 287.515 125.415312)">Simulation Run</text>
    </g>
   </g>
   <g id="matplotlib.axis_2">
    <g id="ytick_1">
     <g id="line2d_19">
      <path d="M 35.03 97 
L 540 97 
" clip-path="url(#p3d27d16dca)" style="fill: none; stroke: #b0b0b0; stroke-width: 0.8; stroke-linecap: square"/>
     </g>
     <g id="line2d_20">
      <defs>
       <path id="m5d11d4f658" d="M 0 0 
L -3.5 0 
" style="stroke: #000000; stroke-width: 0.8"/>
      </defs>
      <g>
       <use xlink:href="#m5d11d4f658" x="35.03" y="97" style="stroke: #000000; stroke-width: 0.8"/>
      </g>
     </g>
     <g id="text_11">
      <text style="font: 10px 'Times New Roman'; text-anchor: end" x="28.03" y="100.471875" transform="rotate(-0 28.03 100.471875)">0.0</text>
     </g>
    </g>
    <g id="ytick_2">
     <g id="line2d_21">
      <path d="M 35.03 59.692308 
L 540 59.692308 
" clip-path="url(#p3d27d16dca)" style="fill: none; stroke: #b0b0b0; stroke-width: 0.8; stroke-linecap: square"/>
     </g>
     <g id="line2d_22">
      <g>
       <use xlink:href="#m5d11d4f658" x="35.03" y="59.692308" style="stroke: #000000; stroke-width: 0.8"/>
      </g>
     </g>
     <g id="text_12">
      <text style="font: 10px 'Times New Roman'; text-anchor: end" x="28.03" y="63.164183" transform="rotate(-0 28.03 63.164183)">0.5</text>
     </g>
    </g>
    <g id="ytick_3">
     <g id="line2d_23">
      <path d="M 35.03 22.384615 
L 540 22.384615 
" clip-path="url(#p3d27d16dca)" style="fill: none; stroke: #b0b0b0; stroke-width: 0.8; stroke-linecap: square"/>
     </g>
     <g id="line2d_24">
      <g>
       <use xlink:href="#m5d11d4f658" x="35.03" y="22.384615" style="stroke: #000000; stroke-width: 0.8"/>
      </g>
     </g>
     <g id="text_13">
      <text style="font: 10px 'Times New Roman'; text-anchor: end" x="28.03" y="25.85649" transform="rotate(-0 28.03 25.85649)">1.0</text>
     </g>
    </g>
    <g id="text_14">
     <text style="font: 12px 'Times New Roman'; text-anchor: middle" x="8.963125" y="48.5" transform="rotate(-90 8.963125 48.5)">Normalized Value</text>
    </g>
   </g>
   <g id="line2d_25">
    <path d="M 35.03 36.673132 
L 36.235323 36.245054 
L 37.440646 32.641609 
L 38.645968 28.297095 
L 39.851291 26.02507 
L 42.261937 26.939751 
L 43.46726 26.202321 
L 44.672583 28.495437 
L 45.877905 26.786563 
L 47.083228 24.556434 
L 48.288551 25.145984 
L 49.493874 25.44262 
L 50.699197 22.505135 
L 51.90452 22.660175 
L 54.315165 23.430981 
L 55.520488 22.98906 
L 56.725811 21.307156 
L 57.931134 22.331952 
L 59.136457 23.079797 
L 60.341779 23.426176 
L 61.547102 20.833136 
L 62.752425 21.156071 
L 63.957748 20.694492 
L 65.163071 19.582287 
L 66.368394 20.393544 
L 67.573716 18.947917 
L 68.779039 18.972914 
L 69.984362 18.114842 
L 71.189685 18.903424 
L 72.395008 18.835963 
L 73.600331 19.615146 
L 74.805653 20.785865 
L 77.216299 19.748769 
L 78.421622 19.720943 
L 79.626945 20.517568 
L 80.832268 19.579262 
L 83.242913 20.262022 
L 84.448236 20.892738 
L 85.653559 20.79617 
L 86.858882 20.365744 
L 88.064205 20.82355 
L 89.269527 21.120251 
L 90.47485 21.194743 
L 91.680173 21.053932 
L 92.885496 21.280869 
L 94.090819 21.100106 
L 95.296142 21.73658 
L 96.501464 21.404279 
L 97.706787 21.304397 
L 98.91211 20.666369 
L 100.117433 20.181239 
L 101.322756 20.462579 
L 102.528079 19.88605 
L 103.733401 19.797211 
L 104.938724 19.42191 
L 106.144047 19.258335 
L 107.34937 19.430044 
L 108.554693 18.960148 
L 109.760016 18.938016 
L 110.965338 19.159637 
L 113.375984 19.16454 
L 114.581307 18.704086 
L 116.991953 18.978407 
L 118.197275 19.18766 
L 119.402598 18.810596 
L 120.607921 19.028131 
L 123.018567 18.7397 
L 124.223889 18.731082 
L 125.429212 19.016886 
L 126.634535 19.432774 
L 127.839858 19.01517 
L 130.250504 19.468233 
L 131.455826 19.440879 
L 132.661149 19.597091 
L 133.866472 19.193865 
L 137.482441 20.176898 
L 139.893086 20.14659 
L 141.098409 20.134284 
L 142.303732 20.274952 
L 143.509055 20.066515 
L 145.9197 20.176711 
L 147.125023 19.911551 
L 149.535669 19.941426 
L 153.151637 19.476384 
L 154.35696 19.103982 
L 155.562283 19.321694 
L 157.972929 19.350169 
L 159.178252 19.114216 
L 160.383574 19.310251 
L 165.204866 19.226538 
L 167.615511 19.48232 
L 170.026157 19.790234 
L 171.23148 19.629996 
L 174.847448 20.179176 
L 176.052771 20.087007 
L 183.284708 20.637789 
L 184.490031 20.889302 
L 185.695354 20.915471 
L 186.900677 21.184148 
L 189.311322 21.307933 
L 190.516645 21.18895 
L 195.337937 21.445278 
L 196.543259 21.634257 
L 197.748582 21.669956 
L 200.159228 21.990145 
L 201.364551 21.847408 
L 203.775196 22.152871 
L 204.980519 22.104379 
L 207.391165 22.269469 
L 208.596488 22.159078 
L 209.80181 22.354134 
L 211.007133 22.089676 
L 212.212456 21.955068 
L 213.417779 21.668855 
L 214.623102 21.650094 
L 215.828425 21.866169 
L 217.033747 21.953313 
L 219.444393 21.769814 
L 223.060362 21.968316 
L 224.265684 22.251156 
L 226.67633 22.382884 
L 227.881653 22.513251 
L 229.086976 22.33782 
L 231.497621 22.359862 
L 232.702944 22.266796 
L 233.908267 22.008664 
L 237.524236 22.337952 
L 239.934881 22.291612 
L 243.55085 22.212997 
L 245.961495 22.481064 
L 251.98811 22.570615 
L 253.193432 22.727065 
L 254.398755 22.733966 
L 256.809401 22.882857 
L 258.014724 22.755062 
L 259.220047 22.825631 
L 261.630692 22.689167 
L 262.836015 22.513853 
L 264.041338 22.491828 
L 273.683921 23.173542 
L 276.094566 22.848099 
L 278.505212 22.957927 
L 279.710535 22.789629 
L 283.326503 22.879209 
L 284.531826 22.880494 
L 286.942472 23.050255 
L 288.147794 23.049234 
L 290.55844 23.274504 
L 301.406346 22.950591 
L 305.022314 23.029656 
L 309.843605 23.064194 
L 314.664897 22.870581 
L 317.075542 22.772922 
L 321.896834 22.827877 
L 323.102157 22.68012 
L 324.307479 22.768247 
L 325.512802 22.725636 
L 326.718125 22.498583 
L 330.334094 22.473748 
L 346.00329 22.911571 
L 347.208613 22.642948 
L 349.619259 22.770077 
L 350.824582 22.68212 
L 352.029905 22.735456 
L 354.44055 22.508159 
L 364.083133 22.619975 
L 366.493778 22.405216 
L 370.109747 22.465779 
L 372.520393 22.329801 
L 374.931038 22.40179 
L 376.136361 22.513743 
L 378.547007 22.540942 
L 380.957652 22.592729 
L 386.984267 22.752767 
L 390.600235 22.72768 
L 394.216204 22.550403 
L 397.832172 22.670276 
L 400.242818 22.742299 
L 405.064109 22.757424 
L 409.8854 23.025981 
L 412.296046 22.97498 
L 421.938629 23.057281 
L 431.581211 23.293146 
L 432.786534 23.246436 
L 433.991857 23.056878 
L 436.402503 23.219984 
L 444.839763 23.006958 
L 450.866377 22.757578 
L 455.687668 22.893162 
L 458.098314 22.745582 
L 461.714282 22.824235 
L 462.919605 22.550869 
L 465.330251 22.444807 
L 468.946219 22.35704 
L 485.820739 22.528065 
L 489.436707 22.449096 
L 490.64203 22.514839 
L 494.257999 22.32149 
L 495.463321 22.143696 
L 497.873967 22.081086 
L 499.07929 21.989258 
L 508.721873 22.313786 
L 511.132518 22.3444 
L 514.748487 22.304382 
L 515.95381 22.384615 
L 515.95381 22.384615 
" clip-path="url(#p3d27d16dca)" style="fill: none; stroke: #4169e1; stroke-width: 1.5; stroke-linecap: square"/>
   </g>
   <g id="line2d_26">
    <path d="M 35.03 97 
L 36.235323 96.966021 
L 37.440646 92.161907 
L 38.645968 82.8718 
L 39.851291 81.868693 
L 41.056614 84.161167 
L 42.261937 85.801597 
L 43.46726 86.495551 
L 44.672583 79.862393 
L 45.877905 76.702745 
L 47.083228 69.325838 
L 48.288551 70.923086 
L 49.493874 72.733209 
L 50.699197 53.666464 
L 51.90452 56.492966 
L 53.109842 58.643896 
L 54.315165 60.423516 
L 55.520488 61.839927 
L 56.725811 54.248874 
L 57.931134 52.686456 
L 59.136457 52.722557 
L 60.341779 54.267978 
L 61.547102 28.696795 
L 62.752425 31.097999 
L 63.957748 32.785937 
L 65.163071 29.521418 
L 66.368394 28.847695 
L 67.573716 20.818936 
L 68.779039 23.442625 
L 69.984362 21.935263 
L 71.189685 20.897426 
L 72.395008 23.249471 
L 73.600331 21.881882 
L 74.805653 15.704561 
L 76.010976 16.3819 
L 77.216299 16.824137 
L 78.421622 18.985884 
L 79.626945 16.684966 
L 80.832268 12.540732 
L 82.03759 13.593965 
L 83.242913 14.959743 
L 84.448236 13.888805 
L 85.653559 15.748998 
L 86.858882 16.118426 
L 88.064205 16.205833 
L 89.269527 17.227681 
L 90.47485 18.877632 
L 91.680173 20.332382 
L 94.090819 22.652998 
L 95.296142 20.354996 
L 96.501464 20.784691 
L 97.706787 22.126522 
L 98.91211 19.512464 
L 100.117433 18.564757 
L 101.322756 19.158158 
L 102.528079 17.072358 
L 103.733401 18.367005 
L 104.938724 18.184959 
L 107.34937 20.153112 
L 108.554693 18.895089 
L 109.760016 20.129218 
L 110.965338 20.756561 
L 113.375984 23.062354 
L 114.581307 21.571198 
L 115.78663 22.583613 
L 116.991953 23.225723 
L 118.197275 23.719417 
L 119.402598 22.906104 
L 120.607921 23.31219 
L 121.813244 23.871591 
L 124.223889 25.673882 
L 125.429212 25.476409 
L 127.839858 22.414183 
L 129.045181 22.502889 
L 130.250504 22.788916 
L 131.455826 23.694002 
L 132.661149 24.221466 
L 133.866472 22.62613 
L 135.071795 22.190741 
L 137.482441 20.221788 
L 141.098409 22.722776 
L 142.303732 23.221527 
L 143.509055 23.30724 
L 144.714378 23.959718 
L 145.9197 24.740523 
L 147.125023 24.296771 
L 149.535669 25.798487 
L 150.740992 26.034784 
L 151.946315 25.975189 
L 153.151637 26.548407 
L 154.35696 24.707096 
L 155.562283 24.543977 
L 157.972929 25.919351 
L 159.178252 25.539514 
L 160.383574 25.479002 
L 161.588897 26.143181 
L 163.999543 26.916884 
L 165.204866 27.475742 
L 166.410189 27.455037 
L 168.820834 28.37817 
L 170.026157 28.079113 
L 171.23148 28.145685 
L 172.436803 28.029843 
L 173.642126 28.414472 
L 174.847448 27.477645 
L 179.66874 29.196425 
L 180.874063 29.001164 
L 182.079385 29.03968 
L 183.284708 29.474326 
L 184.490031 28.560031 
L 185.695354 29.087333 
L 186.900677 27.93552 
L 188.106 28.299085 
L 189.311322 28.798568 
L 190.516645 28.984561 
L 191.721968 29.417724 
L 192.927291 29.271241 
L 195.337937 30.259777 
L 196.543259 29.866781 
L 197.748582 30.328506 
L 198.953905 29.815068 
L 200.159228 29.929705 
L 201.364551 29.890889 
L 203.775196 29.638855 
L 206.185842 30.37603 
L 208.596488 30.750738 
L 209.80181 30.181538 
L 211.007133 28.742701 
L 212.212456 28.710012 
L 213.417779 26.920264 
L 214.623102 27.377738 
L 215.828425 26.540226 
L 217.033747 26.791149 
L 218.23907 26.899278 
L 220.649716 27.615173 
L 221.855039 28.036641 
L 223.060362 27.450345 
L 224.265684 25.561638 
L 225.471007 26.004442 
L 227.881653 25.982158 
L 229.086976 25.501768 
L 231.497621 26.335015 
L 232.702944 26.4999 
L 233.908267 24.885972 
L 235.11359 25.011314 
L 236.318913 25.437465 
L 237.524236 24.342377 
L 238.729558 24.591171 
L 243.55085 26.096933 
L 244.756173 25.813177 
L 245.961495 25.73513 
L 248.372141 26.467046 
L 250.782787 26.833744 
L 251.98811 27.219327 
L 253.193432 26.781243 
L 254.398755 27.163345 
L 255.604078 27.000804 
L 256.809401 27.361909 
L 258.014724 27.176066 
L 261.630692 27.765248 
L 262.836015 27.052524 
L 264.041338 27.40165 
L 265.246661 27.464984 
L 266.451984 27.822819 
L 267.657306 27.800583 
L 270.067952 26.918367 
L 271.273275 26.627393 
L 272.478598 26.748356 
L 273.683921 27.063719 
L 274.889243 26.265769 
L 276.094566 25.793385 
L 278.505212 26.27011 
L 279.710535 25.550668 
L 283.326503 26.24951 
L 284.531826 26.589593 
L 285.737149 26.312448 
L 288.147794 26.909163 
L 289.353117 26.173052 
L 291.763763 26.607455 
L 292.969086 26.93473 
L 294.174409 26.564984 
L 295.379731 26.884404 
L 296.585054 27.034346 
L 297.790377 27.352927 
L 298.9957 26.384933 
L 300.201023 26.414793 
L 303.816991 27.342262 
L 305.022314 27.218215 
L 311.048928 28.439425 
L 312.254251 28.678435 
L 314.664897 28.92861 
L 315.87022 28.820254 
L 318.280865 29.387101 
L 319.486188 29.541626 
L 321.896834 30.097729 
L 323.102157 29.408957 
L 324.307479 29.343796 
L 325.512802 29.542229 
L 326.718125 27.506489 
L 332.744739 28.701339 
L 333.950062 28.186119 
L 335.155385 28.103434 
L 339.976676 28.861124 
L 342.387322 29.246532 
L 343.592645 29.504817 
L 344.797968 29.350049 
L 346.00329 29.60952 
L 347.208613 26.403297 
L 348.413936 26.304561 
L 349.619259 26.498435 
L 350.824582 26.39065 
L 352.029905 26.519383 
L 354.44055 25.784402 
L 359.261842 26.743388 
L 360.467164 26.783687 
L 361.672487 26.961334 
L 362.87781 26.95081 
L 364.083133 27.201389 
L 365.288456 26.584632 
L 366.493778 26.481168 
L 367.699101 26.710946 
L 368.904424 26.439891 
L 370.109747 26.491785 
L 371.31507 26.28048 
L 373.725715 26.684993 
L 374.931038 26.557584 
L 376.136361 26.147915 
L 378.547007 26.508396 
L 379.75233 26.463191 
L 380.957652 26.681726 
L 382.162975 26.786808 
L 385.778944 27.39636 
L 386.984267 27.487891 
L 389.394912 27.837247 
L 391.805558 27.446494 
L 393.010881 27.64118 
L 394.216204 27.68338 
L 396.626849 28.126208 
L 397.832172 27.817045 
L 399.037495 27.809768 
L 402.653463 28.40704 
L 405.064109 28.640269 
L 407.474755 28.413855 
L 408.680078 28.554863 
L 409.8854 28.417704 
L 411.090723 28.433841 
L 413.501369 28.865248 
L 414.706692 28.878533 
L 419.527983 29.708621 
L 421.938629 29.754306 
L 425.554597 30.15919 
L 426.75992 30.031392 
L 427.965243 30.230851 
L 431.581211 29.976861 
L 432.786534 30.045841 
L 433.991857 28.04213 
L 435.19718 27.258721 
L 437.607826 27.569459 
L 442.429117 28.323949 
L 443.63444 28.283607 
L 444.839763 27.956314 
L 446.045085 27.90171 
L 447.250408 28.091708 
L 448.455731 27.520174 
L 449.661054 27.659873 
L 454.482345 27.598427 
L 455.687668 27.718562 
L 456.892991 27.33523 
L 459.303636 27.466646 
L 461.714282 27.793409 
L 462.919605 23.068665 
L 464.124928 23.266875 
L 465.330251 22.882137 
L 466.535573 22.918525 
L 470.151542 23.459609 
L 473.76751 23.557304 
L 476.178156 23.956523 
L 477.383479 24.019033 
L 479.794125 24.386156 
L 480.999447 24.489527 
L 483.410093 24.461875 
L 485.820739 24.641917 
L 487.026062 24.562597 
L 489.436707 24.82189 
L 491.847353 24.649598 
L 493.052676 24.705494 
L 494.257999 24.321331 
L 495.463321 22.272028 
L 496.668644 22.464852 
L 497.873967 22.422189 
L 499.07929 22.013416 
L 500.284613 21.99712 
L 501.489936 21.478216 
L 502.695258 21.573233 
L 503.900581 21.402928 
L 507.51655 21.889759 
L 511.132518 22.230603 
L 513.543164 22.498299 
L 514.748487 22.67507 
L 515.95381 22.384615 
L 515.95381 22.384615 
" clip-path="url(#p3d27d16dca)" style="fill: none; stroke-dasharray: 5.55,2.4; stroke-dashoffset: 0; stroke: #4169e1; stroke-width: 1.5"/>
   </g>
   <g id="line2d_27">
    <path d="M 35.03 35.164268 
L 36.235323 33.020319 
L 37.440646 31.152623 
L 38.645968 27.452074 
L 39.851291 24.514931 
L 42.261937 25.041103 
L 43.46726 24.216337 
L 44.672583 26.429935 
L 45.877905 25.234896 
L 47.083228 24.266615 
L 48.288551 24.629769 
L 49.493874 24.672502 
L 50.699197 21.759816 
L 53.109842 22.688661 
L 54.315165 23.150862 
L 55.520488 22.680151 
L 56.725811 21.525328 
L 57.931134 22.522057 
L 59.136457 23.133488 
L 60.341779 23.601033 
L 61.547102 20.988114 
L 62.752425 21.099595 
L 63.957748 20.749109 
L 65.163071 19.844268 
L 66.368394 20.552974 
L 67.573716 19.066218 
L 68.779039 19.149731 
L 69.984362 18.212964 
L 71.189685 18.889877 
L 72.395008 18.79606 
L 73.600331 19.549317 
L 74.805653 20.70707 
L 76.010976 20.237404 
L 77.216299 19.54703 
L 78.421622 19.579493 
L 79.626945 20.357016 
L 80.832268 19.450853 
L 83.242913 20.020237 
L 84.448236 20.572026 
L 85.653559 20.583806 
L 86.858882 20.112842 
L 89.269527 21.019294 
L 90.47485 21.165634 
L 91.680173 20.981084 
L 92.885496 21.069213 
L 94.090819 20.84754 
L 95.296142 21.44432 
L 96.501464 21.074958 
L 97.706787 21.099821 
L 98.91211 20.460011 
L 100.117433 20.084349 
L 101.322756 20.343642 
L 102.528079 19.827977 
L 103.733401 19.930535 
L 104.938724 19.548235 
L 106.144047 19.315112 
L 107.34937 19.559517 
L 108.554693 19.241486 
L 109.760016 19.22275 
L 110.965338 19.473802 
L 113.375984 19.556409 
L 114.581307 19.082946 
L 116.991953 19.323589 
L 118.197275 19.512051 
L 119.402598 19.123358 
L 120.607921 19.295839 
L 124.223889 18.976202 
L 126.634535 19.676343 
L 127.839858 19.295938 
L 130.250504 19.68018 
L 131.455826 19.731341 
L 132.661149 19.914674 
L 133.866472 19.536603 
L 137.482441 20.393066 
L 141.098409 20.425828 
L 142.303732 20.565754 
L 143.509055 20.366691 
L 145.9197 20.476722 
L 147.125023 20.217344 
L 150.740992 20.100521 
L 151.946315 19.867116 
L 153.151637 19.754991 
L 154.35696 19.370249 
L 155.562283 19.56408 
L 157.972929 19.590282 
L 159.178252 19.34003 
L 160.383574 19.521742 
L 161.588897 19.510514 
L 162.79422 19.377813 
L 163.999543 19.462049 
L 165.204866 19.36471 
L 167.615511 19.594207 
L 170.026157 19.921822 
L 171.23148 19.772415 
L 174.847448 20.278829 
L 176.052771 20.185053 
L 182.079385 20.595339 
L 185.695354 20.909034 
L 186.900677 21.167829 
L 189.311322 21.282341 
L 191.721968 21.292161 
L 192.927291 21.46408 
L 195.337937 21.487071 
L 198.953905 21.915381 
L 200.159228 22.040929 
L 201.364551 21.893016 
L 203.775196 22.188413 
L 206.185842 22.202909 
L 207.391165 22.282765 
L 208.596488 22.21246 
L 209.80181 22.382468 
L 211.007133 22.08386 
L 212.212456 21.935963 
L 213.417779 21.647023 
L 214.623102 21.706203 
L 217.033747 22.037198 
L 219.444393 21.818999 
L 223.060362 22.008368 
L 224.265684 22.269708 
L 225.471007 22.262218 
L 227.881653 22.508361 
L 229.086976 22.347479 
L 231.497621 22.405706 
L 232.702944 22.307877 
L 233.908267 22.095543 
L 237.524236 22.42883 
L 238.729558 22.35909 
L 241.140204 22.405764 
L 243.55085 22.33227 
L 245.961495 22.556295 
L 256.809401 22.926395 
L 258.014724 22.806866 
L 260.425369 22.808066 
L 265.246661 22.586623 
L 267.657306 22.643643 
L 272.478598 23.083203 
L 273.683921 23.048125 
L 276.094566 22.778696 
L 278.505212 22.871479 
L 279.710535 22.720037 
L 283.326503 22.790532 
L 284.531826 22.790542 
L 286.942472 22.950896 
L 288.147794 22.965258 
L 289.353117 23.126087 
L 291.763763 23.121493 
L 292.969086 23.1228 
L 295.379731 23.010148 
L 296.585054 22.930116 
L 297.790377 22.964413 
L 298.9957 22.809493 
L 301.406346 22.867085 
L 305.022314 22.906874 
L 308.638283 23.038837 
L 318.280865 22.756948 
L 321.896834 22.779103 
L 323.102157 22.610457 
L 324.307479 22.699802 
L 325.512802 22.673182 
L 326.718125 22.474058 
L 330.334094 22.419289 
L 336.360708 22.620365 
L 338.771353 22.655115 
L 341.181999 22.665921 
L 346.00329 22.780917 
L 347.208613 22.55079 
L 349.619259 22.654881 
L 350.824582 22.596658 
L 352.029905 22.662502 
L 354.44055 22.440685 
L 364.083133 22.577138 
L 366.493778 22.388529 
L 370.109747 22.488602 
L 372.520393 22.351919 
L 374.931038 22.405204 
L 376.136361 22.502592 
L 378.547007 22.510607 
L 380.957652 22.53059 
L 389.394912 22.720952 
L 394.216204 22.475528 
L 397.832172 22.606948 
L 401.448141 22.659036 
L 413.501369 22.80989 
L 417.117337 22.804232 
L 424.349274 22.942244 
L 431.581211 23.120773 
L 432.786534 23.06959 
L 433.991857 22.903811 
L 436.402503 23.073022 
L 447.250408 22.93013 
L 449.661054 22.840523 
L 452.071699 22.822652 
L 455.687668 22.883063 
L 458.098314 22.754223 
L 461.714282 22.819187 
L 462.919605 22.600216 
L 467.740896 22.441075 
L 471.356865 22.384491 
L 474.972833 22.471861 
L 493.052676 22.422888 
L 499.07929 22.038591 
L 509.927195 22.37521 
L 515.95381 22.384615 
L 515.95381 22.384615 
" clip-path="url(#p3d27d16dca)" style="fill: none; stroke: #ff8c00; stroke-width: 1.5; stroke-linecap: square"/>
   </g>
   <g id="line2d_28">
    <path d="M 35.03 97 
L 36.235323 96.007982 
L 37.440646 94.832974 
L 38.645968 86.508391 
L 39.851291 81.159379 
L 41.056614 83.722597 
L 42.261937 85.53234 
L 43.46726 85.938136 
L 44.672583 78.707082 
L 45.877905 77.762433 
L 47.083228 77.48785 
L 49.493874 80.195987 
L 50.699197 57.593841 
L 53.109842 61.215298 
L 54.315165 62.582594 
L 55.520488 63.681753 
L 56.725811 60.254578 
L 57.931134 58.018062 
L 59.136457 58.260674 
L 60.341779 59.030819 
L 61.547102 28.265218 
L 62.752425 31.067477 
L 63.957748 33.068506 
L 65.163071 31.109923 
L 66.368394 30.731934 
L 67.573716 20.218108 
L 68.779039 22.823613 
L 69.984362 19.8039 
L 71.189685 19.327371 
L 72.395008 21.695754 
L 73.600331 20.05914 
L 74.805653 12.775774 
L 76.010976 13.563547 
L 77.216299 12.281027 
L 78.421622 14.562542 
L 79.626945 11.904486 
L 80.832268 7.352208 
L 83.242913 10.360072 
L 84.448236 9.728784 
L 85.653559 11.757089 
L 86.858882 11.636005 
L 88.064205 12.03784 
L 89.269527 11.362218 
L 90.47485 12.971692 
L 91.680173 14.376807 
L 92.885496 15.982536 
L 94.090819 17.083234 
L 95.296142 14.807059 
L 96.501464 14.886054 
L 97.706787 16.428437 
L 98.91211 13.238107 
L 100.117433 13.11638 
L 101.322756 13.816245 
L 102.528079 12.061844 
L 103.733401 13.396902 
L 104.938724 12.984423 
L 107.34937 14.284861 
L 108.554693 14.287423 
L 109.760016 15.595623 
L 110.965338 16.01061 
L 113.375984 18.385835 
L 114.581307 16.366124 
L 115.78663 17.462736 
L 116.991953 18.229778 
L 118.197275 18.826146 
L 119.402598 17.644725 
L 120.607921 18.291021 
L 124.223889 20.845929 
L 126.634535 18.854087 
L 127.839858 17.451188 
L 129.045181 17.447078 
L 130.250504 18.111272 
L 131.455826 19.040014 
L 132.661149 19.40318 
L 133.866472 17.808488 
L 135.071795 17.149017 
L 136.277118 16.767965 
L 137.482441 16.184554 
L 141.098409 18.892068 
L 142.303732 19.383857 
L 143.509055 19.467098 
L 144.714378 20.150819 
L 145.9197 20.969176 
L 147.125023 20.427687 
L 149.535669 22.009846 
L 150.740992 22.554993 
L 151.946315 22.174172 
L 153.151637 22.664087 
L 154.35696 20.24468 
L 155.562283 20.193782 
L 157.972929 21.656461 
L 159.178252 20.988773 
L 160.383574 20.971564 
L 161.588897 21.685956 
L 162.79422 21.986975 
L 165.204866 22.980157 
L 166.410189 23.081674 
L 167.615511 23.618843 
L 168.820834 23.977377 
L 170.026157 23.492335 
L 172.436803 23.699945 
L 173.642126 24.102072 
L 174.847448 22.989914 
L 178.463417 24.291327 
L 179.66874 24.795391 
L 180.874063 24.835293 
L 182.079385 24.676236 
L 183.284708 24.955808 
L 184.490031 24.459271 
L 185.695354 25.033848 
L 186.900677 23.779241 
L 188.106 24.071147 
L 190.516645 25.11857 
L 191.721968 25.566856 
L 192.927291 25.272396 
L 195.337937 26.33398 
L 196.543259 26.053995 
L 197.748582 26.440561 
L 198.953905 25.856165 
L 200.159228 25.905659 
L 201.364551 25.765527 
L 202.569873 25.506527 
L 203.775196 25.459532 
L 206.185842 26.330504 
L 208.596488 26.956193 
L 209.80181 26.531465 
L 211.007133 24.201227 
L 212.212456 23.999168 
L 213.417779 21.822441 
L 214.623102 22.211 
L 215.828425 21.299008 
L 218.23907 21.255835 
L 219.444393 21.485652 
L 221.855039 22.39965 
L 223.060362 21.818814 
L 224.265684 19.98044 
L 225.471007 20.462926 
L 227.881653 20.373766 
L 229.086976 19.94742 
L 231.497621 20.80311 
L 232.702944 20.92617 
L 233.908267 19.778923 
L 235.11359 19.804069 
L 236.318913 20.255031 
L 237.524236 19.149215 
L 239.934881 19.749633 
L 241.140204 20.191832 
L 242.345527 20.482187 
L 243.55085 20.918809 
L 244.756173 20.736753 
L 245.961495 20.822973 
L 249.577464 21.794449 
L 251.98811 22.441184 
L 253.193432 21.977645 
L 254.398755 22.385022 
L 255.604078 22.371678 
L 256.809401 22.773891 
L 258.014724 22.602515 
L 260.425369 23.203513 
L 261.630692 23.326516 
L 262.836015 22.551462 
L 264.041338 22.812982 
L 265.246661 22.904927 
L 266.451984 23.276281 
L 267.657306 23.425559 
L 268.862629 23.264845 
L 271.273275 22.687624 
L 272.478598 22.822305 
L 273.683921 23.142476 
L 274.889243 22.307994 
L 276.094566 22.23042 
L 278.505212 22.763408 
L 279.710535 22.122517 
L 284.531826 23.193555 
L 285.737149 22.94377 
L 288.147794 23.547631 
L 289.353117 22.716226 
L 292.969086 23.560518 
L 294.174409 23.32301 
L 295.379731 23.66248 
L 296.585054 23.698924 
L 297.790377 23.97829 
L 298.9957 23.175842 
L 300.201023 23.318345 
L 303.816991 24.197314 
L 305.022314 24.017984 
L 306.227637 24.103104 
L 311.048928 25.163737 
L 313.459574 25.629598 
L 314.664897 25.761962 
L 315.87022 25.731401 
L 321.896834 27.093938 
L 323.102157 25.918188 
L 324.307479 25.799667 
L 325.512802 26.057024 
L 326.718125 24.2781 
L 329.128771 24.744032 
L 332.744739 25.450234 
L 333.950062 25.008039 
L 336.360708 25.262851 
L 337.566031 25.396334 
L 341.181999 26.093324 
L 343.592645 26.600839 
L 344.797968 26.377399 
L 346.00329 26.647557 
L 347.208613 23.9579 
L 348.413936 23.83315 
L 349.619259 24.091699 
L 352.029905 24.206994 
L 353.235227 23.646166 
L 354.44055 23.341736 
L 359.261842 24.272212 
L 360.467164 24.35815 
L 361.672487 24.623992 
L 362.87781 24.577315 
L 364.083133 24.836359 
L 365.288456 24.363444 
L 366.493778 24.273843 
L 367.699101 24.450969 
L 368.904424 24.071518 
L 370.109747 24.230584 
L 371.31507 23.840644 
L 373.725715 24.265498 
L 374.931038 24.177972 
L 376.136361 23.85511 
L 378.547007 24.309955 
L 379.75233 24.340406 
L 383.368298 24.907967 
L 385.778944 25.326754 
L 386.984267 25.428397 
L 388.189589 25.666634 
L 389.394912 25.743658 
L 390.600235 25.51828 
L 393.010881 25.802642 
L 394.216204 25.61185 
L 396.626849 26.045607 
L 397.832172 25.649959 
L 399.037495 25.710578 
L 403.858786 26.521627 
L 405.064109 26.589039 
L 407.474755 26.476025 
L 408.680078 26.622422 
L 411.090723 26.584532 
L 414.706692 27.152156 
L 419.527983 27.981395 
L 423.143952 28.045608 
L 425.554597 28.3062 
L 426.75992 28.251091 
L 427.965243 28.4554 
L 429.170566 28.428042 
L 431.581211 28.19911 
L 432.786534 28.220391 
L 433.991857 26.464309 
L 435.19718 25.536414 
L 436.402503 25.616934 
L 442.429117 26.581729 
L 443.63444 26.604668 
L 444.839763 26.256266 
L 447.250408 26.478644 
L 448.455731 26.068709 
L 449.661054 26.274132 
L 450.866377 26.203452 
L 453.277022 26.253155 
L 455.687668 26.344852 
L 456.892991 26.116481 
L 458.098314 26.10168 
L 461.714282 26.59393 
L 462.919605 23.118098 
L 464.124928 23.310864 
L 465.330251 22.933685 
L 466.535573 22.966927 
L 467.740896 23.162793 
L 468.946219 23.243922 
L 471.356865 23.620651 
L 472.562188 23.549696 
L 474.972833 23.889832 
L 476.178156 24.08904 
L 477.383479 24.151361 
L 479.794125 24.524083 
L 482.20477 24.562773 
L 483.410093 24.551763 
L 485.820739 24.764823 
L 487.026062 24.692345 
L 489.436707 24.867098 
L 490.64203 24.810269 
L 491.847353 24.595978 
L 493.052676 24.646411 
L 494.257999 24.375326 
L 495.463321 22.407745 
L 496.668644 22.596824 
L 497.873967 22.648439 
L 499.07929 22.035678 
L 500.284613 22.02321 
L 501.489936 21.492548 
L 502.695258 21.629062 
L 503.900581 21.492969 
L 507.51655 21.994134 
L 508.721873 22.128746 
L 509.927195 22.132605 
L 511.132518 22.296642 
L 512.337841 22.319349 
L 514.748487 22.667082 
L 515.95381 22.384615 
L 515.95381 22.384615 
" clip-path="url(#p3d27d16dca)" style="fill: none; stroke-dasharray: 5.55,2.4; stroke-dashoffset: 0; stroke: #ff8c00; stroke-width: 1.5"/>
   </g>
   <g id="patch_3">
    <path d="M 35.03 97 
L 35.03 0 
" style="fill: none; stroke: #000000; stroke-width: 0.8; stroke-linejoin: miter; stroke-linecap: square"/>
   </g>
   <g id="patch_4">
    <path d="M 540 97 
L 540 0 
" style="fill: none; stroke: #000000; stroke-width: 0.8; stroke-linejoin: miter; stroke-linecap: square"/>
   </g>
   <g id="patch_5">
    <path d="M 35.03 97 
L 540 97 
" style="fill: none; stroke: #000000; stroke-width: 0.8; stroke-linejoin: miter; stroke-linecap: square"/>
   </g>
   <g id="patch_6">
    <path d="M 35.03 0 
L 540 0 
" style="fill: none; stroke: #000000; stroke-width: 0.8; stroke-linejoin: miter; stroke-linecap: square"/>
   </g>
  </g>
 </g>
 <defs>
  <clipPath id="p3d27d16dca">
   <rect x="35.03" y="0" width="504.97" height="97"/>
  </clipPath>
 </defs>
</svg>
