<?xml version="1.0" encoding="utf-8" standalone="no"?>
<!DOCTYPE svg PUBLIC "-//W3C//DTD SVG 1.1//EN"
  "http://www.w3.org/Graphics/SVG/1.1/DTD/svg11.dtd">
<svg xmlns:xlink="http://www.w3.org/1999/xlink" width="540pt" height="129.6pt" viewBox="0 0 540 129.6" xmlns="http://www.w3.org/2000/svg" version="1.1">
 <metadata>
  <rdf:RDF xmlns:dc="http://purl.org/dc/elements/1.1/" xmlns:cc="http://creativecommons.org/ns#" xmlns:rdf="http://www.w3.org/1999/02/22-rdf-syntax-ns#">
   <cc:Work>
    <dc:type rdf:resource="http://purl.org/dc/dcmitype/StillImage"/>
    <dc:date>2025-03-29T04:34:30.093110</dc:date>
    <dc:format>image/svg+xml</dc:format>
    <dc:creator>
     <cc:Agent>
      <dc:title>Matplotlib v3.8.3, https://matplotlib.org/</dc:title>
     </cc:Agent>
    </dc:creator>
   </cc:Work>
  </rdf:RDF>
 </metadata>
 <defs>
  <style type="text/css">*{stroke-linejoin: round; stroke-linecap: butt}</style>
 </defs>
 <g id="figure_1">
  <g id="patch_1">
   <path d="M 0 129.6 
L 540 129.6 
L 540 0 
L 0 0 
z
" style="fill: #ffffff"/>
  </g>
  <g id="axes_1">
   <g id="patch_2">
    <path d="M 35.12 97 
L 540 97 
L 540 3.96 
L 35.12 3.96 
z
" style="fill: #ffffff"/>
   </g>
   <g id="matplotlib.axis_1">
    <g id="xtick_1">
     <g id="line2d_1">
      <path d="M 35.12 97 
L 35.12 3.96 
" clip-path="url(#p21fef29e04)" style="fill: none; stroke: #b0b0b0; stroke-width: 0.8; stroke-linecap: square"/>
     </g>
     <g id="line2d_2">
      <defs>
       <path id="mf98fd75138" d="M 0 0 
L 0 3.5 
" style="stroke: #000000; stroke-width: 0.8"/>
      </defs>
      <g>
       <use xlink:href="#mf98fd75138" x="35.12" y="97" style="stroke: #000000; stroke-width: 0.8"/>
      </g>
     </g>
     <g id="text_1">
      <text style="font: 10px 'Times New Roman'; text-anchor: middle" x="35.12" y="110.94375" transform="rotate(-0 35.12 110.94375)">0</text>
     </g>
    </g>
    <g id="xtick_2">
     <g id="line2d_3">
      <path d="M 95.3754 97 
L 95.3754 3.96 
" clip-path="url(#p21fef29e04)" style="fill: none; stroke: #b0b0b0; stroke-width: 0.8; stroke-linecap: square"/>
     </g>
     <g id="line2d_4">
      <g>
       <use xlink:href="#mf98fd75138" x="95.3754" y="97" style="stroke: #000000; stroke-width: 0.8"/>
      </g>
     </g>
     <g id="text_2">
      <text style="font: 10px 'Times New Roman'; text-anchor: middle" x="95.3754" y="110.94375" transform="rotate(-0 95.3754 110.94375)">50</text>
     </g>
    </g>
    <g id="xtick_3">
     <g id="line2d_5">
      <path d="M 155.630801 97 
L 155.630801 3.96 
" clip-path="url(#p21fef29e04)" style="fill: none; stroke: #b0b0b0; stroke-width: 0.8; stroke-linecap: square"/>
     </g>
     <g id="line2d_6">
      <g>
       <use xlink:href="#mf98fd75138" x="155.630801" y="97" style="stroke: #000000; stroke-width: 0.8"/>
      </g>
     </g>
     <g id="text_3">
      <text style="font: 10px 'Times New Roman'; text-anchor: middle" x="155.630801" y="110.94375" transform="rotate(-0 155.630801 110.94375)">100</text>
     </g>
    </g>
    <g id="xtick_4">
     <g id="line2d_7">
      <path d="M 215.886201 97 
L 215.886201 3.96 
" clip-path="url(#p21fef29e04)" style="fill: none; stroke: #b0b0b0; stroke-width: 0.8; stroke-linecap: square"/>
     </g>
     <g id="line2d_8">
      <g>
       <use xlink:href="#mf98fd75138" x="215.886201" y="97" style="stroke: #000000; stroke-width: 0.8"/>
      </g>
     </g>
     <g id="text_4">
      <text style="font: 10px 'Times New Roman'; text-anchor: middle" x="215.886201" y="110.94375" transform="rotate(-0 215.886201 110.94375)">150</text>
     </g>
    </g>
    <g id="xtick_5">
     <g id="line2d_9">
      <path d="M 276.141602 97 
L 276.141602 3.96 
" clip-path="url(#p21fef29e04)" style="fill: none; stroke: #b0b0b0; stroke-width: 0.8; stroke-linecap: square"/>
     </g>
     <g id="line2d_10">
      <g>
       <use xlink:href="#mf98fd75138" x="276.141602" y="97" style="stroke: #000000; stroke-width: 0.8"/>
      </g>
     </g>
     <g id="text_5">
      <text style="font: 10px 'Times New Roman'; text-anchor: middle" x="276.141602" y="110.94375" transform="rotate(-0 276.141602 110.94375)">200</text>
     </g>
    </g>
    <g id="xtick_6">
     <g id="line2d_11">
      <path d="M 336.397002 97 
L 336.397002 3.96 
" clip-path="url(#p21fef29e04)" style="fill: none; stroke: #b0b0b0; stroke-width: 0.8; stroke-linecap: square"/>
     </g>
     <g id="line2d_12">
      <g>
       <use xlink:href="#mf98fd75138" x="336.397002" y="97" style="stroke: #000000; stroke-width: 0.8"/>
      </g>
     </g>
     <g id="text_6">
      <text style="font: 10px 'Times New Roman'; text-anchor: middle" x="336.397002" y="110.94375" transform="rotate(-0 336.397002 110.94375)">250</text>
     </g>
    </g>
    <g id="xtick_7">
     <g id="line2d_13">
      <path d="M 396.652402 97 
L 396.652402 3.96 
" clip-path="url(#p21fef29e04)" style="fill: none; stroke: #b0b0b0; stroke-width: 0.8; stroke-linecap: square"/>
     </g>
     <g id="line2d_14">
      <g>
       <use xlink:href="#mf98fd75138" x="396.652402" y="97" style="stroke: #000000; stroke-width: 0.8"/>
      </g>
     </g>
     <g id="text_7">
      <text style="font: 10px 'Times New Roman'; text-anchor: middle" x="396.652402" y="110.94375" transform="rotate(-0 396.652402 110.94375)">300</text>
     </g>
    </g>
    <g id="xtick_8">
     <g id="line2d_15">
      <path d="M 456.907803 97 
L 456.907803 3.96 
" clip-path="url(#p21fef29e04)" style="fill: none; stroke: #b0b0b0; stroke-width: 0.8; stroke-linecap: square"/>
     </g>
     <g id="line2d_16">
      <g>
       <use xlink:href="#mf98fd75138" x="456.907803" y="97" style="stroke: #000000; stroke-width: 0.8"/>
      </g>
     </g>
     <g id="text_8">
      <text style="font: 10px 'Times New Roman'; text-anchor: middle" x="456.907803" y="110.94375" transform="rotate(-0 456.907803 110.94375)">350</text>
     </g>
    </g>
    <g id="xtick_9">
     <g id="line2d_17">
      <path d="M 517.163203 97 
L 517.163203 3.96 
" clip-path="url(#p21fef29e04)" style="fill: none; stroke: #b0b0b0; stroke-width: 0.8; stroke-linecap: square"/>
     </g>
     <g id="line2d_18">
      <g>
       <use xlink:href="#mf98fd75138" x="517.163203" y="97" style="stroke: #000000; stroke-width: 0.8"/>
      </g>
     </g>
     <g id="text_9">
      <text style="font: 10px 'Times New Roman'; text-anchor: middle" x="517.163203" y="110.94375" transform="rotate(-0 517.163203 110.94375)">400</text>
     </g>
    </g>
    <g id="text_10">
     <text style="font: 12px 'Times New Roman'; text-anchor: middle" x="287.56" y="125.415312" transform="rotate(-0 287.56 125.415312)">Simulation Run</text>
    </g>
   </g>
   <g id="matplotlib.axis_2">
    <g id="ytick_1">
     <g id="line2d_19">
      <path d="M 35.12 97 
L 540 97 
" clip-path="url(#p21fef29e04)" style="fill: none; stroke: #b0b0b0; stroke-width: 0.8; stroke-linecap: square"/>
     </g>
     <g id="line2d_20">
      <defs>
       <path id="mdf4268d7bd" d="M 0 0 
L -3.5 0 
" style="stroke: #000000; stroke-width: 0.8"/>
      </defs>
      <g>
       <use xlink:href="#mdf4268d7bd" x="35.12" y="97" style="stroke: #000000; stroke-width: 0.8"/>
      </g>
     </g>
     <g id="text_11">
      <text style="font: 10px 'Times New Roman'; text-anchor: end" x="28.12" y="100.471875" transform="rotate(-0 28.12 100.471875)">0.0</text>
     </g>
    </g>
    <g id="ytick_2">
     <g id="line2d_21">
      <path d="M 35.12 73.74 
L 540 73.74 
" clip-path="url(#p21fef29e04)" style="fill: none; stroke: #b0b0b0; stroke-width: 0.8; stroke-linecap: square"/>
     </g>
     <g id="line2d_22">
      <g>
       <use xlink:href="#mdf4268d7bd" x="35.12" y="73.74" style="stroke: #000000; stroke-width: 0.8"/>
      </g>
     </g>
     <g id="text_12">
      <text style="font: 10px 'Times New Roman'; text-anchor: end" x="28.12" y="77.211875" transform="rotate(-0 28.12 77.211875)">0.5</text>
     </g>
    </g>
    <g id="ytick_3">
     <g id="line2d_23">
      <path d="M 35.12 50.48 
L 540 50.48 
" clip-path="url(#p21fef29e04)" style="fill: none; stroke: #b0b0b0; stroke-width: 0.8; stroke-linecap: square"/>
     </g>
     <g id="line2d_24">
      <g>
       <use xlink:href="#mdf4268d7bd" x="35.12" y="50.48" style="stroke: #000000; stroke-width: 0.8"/>
      </g>
     </g>
     <g id="text_13">
      <text style="font: 10px 'Times New Roman'; text-anchor: end" x="28.12" y="53.951875" transform="rotate(-0 28.12 53.951875)">1.0</text>
     </g>
    </g>
    <g id="ytick_4">
     <g id="line2d_25">
      <path d="M 35.12 27.22 
L 540 27.22 
" clip-path="url(#p21fef29e04)" style="fill: none; stroke: #b0b0b0; stroke-width: 0.8; stroke-linecap: square"/>
     </g>
     <g id="line2d_26">
      <g>
       <use xlink:href="#mdf4268d7bd" x="35.12" y="27.22" style="stroke: #000000; stroke-width: 0.8"/>
      </g>
     </g>
     <g id="text_14">
      <text style="font: 10px 'Times New Roman'; text-anchor: end" x="28.12" y="30.691875" transform="rotate(-0 28.12 30.691875)">1.5</text>
     </g>
    </g>
    <g id="ytick_5">
     <g id="line2d_27">
      <path d="M 35.12 3.96 
L 540 3.96 
" clip-path="url(#p21fef29e04)" style="fill: none; stroke: #b0b0b0; stroke-width: 0.8; stroke-linecap: square"/>
     </g>
     <g id="line2d_28">
      <g>
       <use xlink:href="#mdf4268d7bd" x="35.12" y="3.96" style="stroke: #000000; stroke-width: 0.8"/>
      </g>
     </g>
     <g id="text_15">
      <text style="font: 10px 'Times New Roman'; text-anchor: end" x="28.12" y="7.431875" transform="rotate(-0 28.12 7.431875)">2.0</text>
     </g>
    </g>
    <g id="text_16">
     <text style="font: 12px 'Times New Roman'; text-anchor: middle" x="9.053125" y="50.48" transform="rotate(-90 9.053125 50.48)">Normalized Value</text>
    </g>
   </g>
   <g id="line2d_29">
    <path d="M 35.12 59.051252 
L 36.325108 44.163471 
L 37.530216 46.022083 
L 38.735324 45.327464 
L 39.940432 43.900072 
L 41.14554 45.211858 
L 42.350648 44.364351 
L 43.555756 45.982426 
L 44.760864 45.656188 
L 45.965972 46.767715 
L 47.17108 46.154203 
L 48.376188 47.587765 
L 49.581296 47.379572 
L 50.786404 46.057806 
L 51.991512 45.929818 
L 53.19662 47.244438 
L 54.401728 47.029323 
L 55.606836 47.140557 
L 58.017052 48.232137 
L 59.22216 46.99943 
L 60.427268 46.680331 
L 61.632376 47.293213 
L 62.837484 48.243235 
L 64.042592 47.621036 
L 65.2477 48.07206 
L 66.452808 48.388457 
L 67.657916 48.472064 
L 68.863024 48.100531 
L 70.068132 48.050996 
L 71.27324 48.595759 
L 72.478348 48.459408 
L 73.683456 48.727426 
L 74.888564 48.758201 
L 76.093672 48.161844 
L 77.29878 48.477848 
L 78.503888 49.211936 
L 79.708996 49.319345 
L 80.914104 48.616133 
L 82.119212 48.715749 
L 83.32432 49.203231 
L 85.734536 49.090884 
L 86.939644 49.50057 
L 88.144752 49.133747 
L 89.34986 49.06503 
L 90.554968 48.880148 
L 91.760076 48.906256 
L 96.580508 49.846889 
L 97.785616 49.700805 
L 98.990724 49.759144 
L 102.606048 49.601157 
L 105.016264 49.787854 
L 107.42648 49.861429 
L 108.631588 49.626044 
L 109.836697 49.598538 
L 111.041805 49.763237 
L 112.246913 49.725318 
L 113.452021 49.913706 
L 115.862237 50.091228 
L 117.067345 49.953984 
L 118.272453 49.945869 
L 119.477561 49.721721 
L 121.887777 49.498907 
L 124.297993 49.398816 
L 125.503101 49.594241 
L 126.708209 49.549726 
L 127.913317 49.720287 
L 129.118425 49.675886 
L 136.349073 50.048434 
L 137.554181 50.01547 
L 138.759289 50.196685 
L 139.964397 50.167673 
L 142.374613 50.51249 
L 143.579721 50.531673 
L 144.784829 50.704467 
L 145.989937 50.756893 
L 147.195045 50.583753 
L 150.810369 50.966528 
L 152.015477 51.154589 
L 155.630801 50.954746 
L 156.835909 51.136047 
L 159.246125 51.036249 
L 160.451233 50.921402 
L 170.092097 51.016143 
L 171.297205 50.895801 
L 172.502313 50.992126 
L 174.912529 50.904986 
L 176.117637 51.062541 
L 177.322745 51.018889 
L 178.527853 50.857948 
L 180.938069 50.994591 
L 183.348285 51.084465 
L 185.758501 51.31266 
L 192.989149 51.625666 
L 195.399365 51.502677 
L 196.604473 51.556736 
L 200.219797 51.411227 
L 201.424905 51.601247 
L 202.630013 51.363172 
L 205.040229 51.283958 
L 207.450445 51.400005 
L 208.655553 51.319844 
L 213.475985 51.571519 
L 218.296417 51.223019 
L 221.911741 51.374127 
L 225.527065 51.330935 
L 227.937281 51.162513 
L 230.347497 51.284969 
L 231.552605 51.385787 
L 233.962821 51.274574 
L 238.783253 51.399334 
L 241.193469 51.512418 
L 243.603685 51.448084 
L 246.013901 51.489429 
L 247.219009 51.35668 
L 249.629225 51.54581 
L 253.244549 51.476155 
L 255.654765 51.588869 
L 259.27009 51.670352 
L 267.705846 51.548452 
L 272.526278 51.435176 
L 274.936494 51.545467 
L 278.551818 51.552078 
L 300.243762 51.645933 
L 302.653978 51.565881 
L 303.859086 51.650351 
L 307.47441 51.64042 
L 313.49995 51.611891 
L 320.730598 51.448978 
L 323.140814 51.387021 
L 324.345922 51.296908 
L 331.57657 51.345385 
L 336.397002 51.340552 
L 337.60211 51.207958 
L 350.858298 51.326324 
L 352.063406 51.209555 
L 361.70427 51.206862 
L 364.114486 51.050744 
L 365.319594 51.097454 
L 367.72981 50.924689 
L 373.75535 50.814816 
L 378.575782 50.870486 
L 384.601322 50.811146 
L 399.062618 50.484063 
L 405.088158 50.545695 
L 407.498375 50.42667 
L 418.344347 50.428429 
L 423.164779 50.413363 
L 432.805643 50.533539 
L 444.856723 50.536026 
L 447.266939 50.584363 
L 449.677155 50.472026 
L 461.728235 50.458451 
L 466.548667 50.456422 
L 471.369099 50.515317 
L 478.599747 50.542195 
L 493.061043 50.537552 
L 499.086583 50.499021 
L 514.752987 50.515007 
L 515.958095 50.48 
L 515.958095 50.48 
" clip-path="url(#p21fef29e04)" style="fill: none; stroke: #4169e1; stroke-width: 1.5; stroke-linecap: square"/>
   </g>
   <g id="line2d_30">
    <path d="M 35.12 97 
L 36.325108 24.668729 
L 37.530216 46.524532 
L 38.735324 58.671031 
L 39.940432 63.677247 
L 42.350648 69.384989 
L 43.555756 66.856035 
L 44.760864 69.927504 
L 45.965972 69.006071 
L 47.17108 70.322651 
L 48.376188 65.168559 
L 49.581296 67.447393 
L 50.786404 62.146575 
L 51.991512 64.395297 
L 53.19662 57.97333 
L 55.606836 62.012791 
L 56.811944 62.120248 
L 58.017052 62.000431 
L 59.22216 53.749268 
L 60.427268 55.017401 
L 61.632376 54.145966 
L 62.837484 49.157304 
L 64.042592 48.038962 
L 65.2477 48.262472 
L 66.452808 49.218178 
L 67.657916 50.863081 
L 68.863024 51.192706 
L 70.068132 52.696394 
L 71.27324 51.22016 
L 72.478348 52.462698 
L 73.683456 53.062171 
L 74.888564 54.344261 
L 76.093672 51.617 
L 77.29878 51.73708 
L 78.503888 46.629502 
L 79.708996 47.815742 
L 80.914104 42.944596 
L 82.119212 44.169686 
L 83.32432 42.356212 
L 84.529428 43.657046 
L 85.734536 44.736533 
L 86.939644 43.569081 
L 88.144752 42.824323 
L 89.34986 43.932711 
L 90.554968 44.548686 
L 91.760076 45.630967 
L 92.965184 45.752836 
L 94.170292 45.496909 
L 95.3754 45.101749 
L 96.580508 45.856252 
L 97.785616 46.459089 
L 101.40094 49.009733 
L 103.811156 49.83677 
L 107.42648 52.07258 
L 108.631588 51.694269 
L 109.836697 52.3981 
L 111.041805 52.537324 
L 112.246913 53.191336 
L 113.452021 53.102289 
L 114.657129 53.667973 
L 115.862237 54.025739 
L 117.067345 54.230568 
L 118.272453 54.840077 
L 119.477561 54.286163 
L 120.682669 54.804382 
L 121.887777 54.735658 
L 123.092885 55.068795 
L 124.297993 55.627877 
L 125.503101 55.237514 
L 126.708209 55.730737 
L 127.913317 55.528829 
L 130.323533 56.394198 
L 131.528641 56.348752 
L 132.733749 56.718545 
L 135.143965 57.322344 
L 137.554181 58.093322 
L 138.759289 57.618898 
L 139.964397 58.042513 
L 141.169505 57.125347 
L 142.374613 57.095455 
L 143.579721 57.523159 
L 144.784829 57.065578 
L 145.989937 57.412463 
L 147.195045 56.923813 
L 148.400153 56.957074 
L 149.605261 56.178248 
L 150.810369 56.42839 
L 152.015477 55.72286 
L 153.220585 56.064827 
L 154.425693 56.20898 
L 155.630801 56.492123 
L 156.835909 55.805859 
L 158.041017 56.205801 
L 159.246125 56.264206 
L 160.451233 56.204518 
L 161.656341 56.58472 
L 162.861449 56.532971 
L 164.066557 56.21362 
L 165.271665 56.574644 
L 166.476773 56.741479 
L 170.092097 57.687389 
L 171.297205 57.498191 
L 172.502313 57.496502 
L 173.707421 57.614034 
L 174.912529 57.94684 
L 176.117637 57.329988 
L 177.322745 57.589972 
L 178.527853 56.912506 
L 179.732961 56.753813 
L 182.143177 57.381186 
L 183.348285 57.435886 
L 184.553393 56.873827 
L 185.758501 56.925661 
L 190.578933 57.942414 
L 191.784041 57.718012 
L 192.989149 57.830923 
L 194.194257 57.57903 
L 195.399365 57.868555 
L 196.604473 58.030623 
L 197.809581 58.006031 
L 200.219797 58.486031 
L 201.424905 57.137028 
L 202.630013 54.85073 
L 203.835121 54.964905 
L 205.040229 55.249698 
L 206.245337 55.21415 
L 207.450445 55.456609 
L 209.860661 55.390679 
L 211.065769 55.006228 
L 212.270877 55.246276 
L 214.681093 55.102911 
L 215.886201 54.791381 
L 217.091309 55.04622 
L 218.296417 53.889345 
L 219.501525 53.901064 
L 220.706633 53.789252 
L 223.116849 54.333463 
L 224.321957 54.318776 
L 225.527065 53.819038 
L 226.732173 53.53027 
L 227.937281 53.581964 
L 229.142389 53.827284 
L 231.552605 53.269934 
L 232.757713 53.251626 
L 235.167929 53.69372 
L 236.373037 53.5676 
L 237.578145 53.694692 
L 238.783253 53.57455 
L 239.988361 53.189979 
L 241.193469 53.442811 
L 242.398577 53.499111 
L 243.603685 53.747518 
L 244.808793 53.777606 
L 246.013901 53.999225 
L 247.219009 53.230026 
L 248.424117 53.061799 
L 249.629225 52.673451 
L 250.834333 52.778745 
L 253.244549 53.185737 
L 254.449657 52.777228 
L 255.654765 53.013488 
L 256.859873 53.030556 
L 260.475198 53.684879 
L 262.885414 53.972036 
L 265.29563 54.370982 
L 267.705846 54.166102 
L 271.32117 54.507241 
L 272.526278 54.314943 
L 273.731386 53.994177 
L 276.141602 54.33861 
L 277.34671 54.435667 
L 278.551818 54.238996 
L 279.756926 54.445469 
L 280.962034 54.46858 
L 282.167142 54.119041 
L 286.987574 54.724572 
L 288.192682 54.911135 
L 289.39779 53.918519 
L 293.013114 54.108861 
L 296.628438 54.357656 
L 300.243762 54.820394 
L 301.44887 54.473671 
L 302.653978 54.661575 
L 303.859086 54.331337 
L 307.47441 54.636325 
L 309.884626 54.976875 
L 312.294842 54.222217 
L 314.705058 54.427102 
L 315.910166 53.960419 
L 318.320382 54.213417 
L 319.52549 53.878788 
L 321.935706 54.23233 
L 323.140814 54.015565 
L 324.345922 53.557927 
L 333.986786 54.646135 
L 336.397002 54.949837 
L 337.60211 53.676604 
L 340.012326 53.99638 
L 341.217434 53.955666 
L 342.422542 54.090213 
L 343.62765 53.824543 
L 348.448082 54.252618 
L 350.858298 54.127373 
L 352.063406 53.119528 
L 354.473622 53.44361 
L 355.67873 53.367612 
L 359.294054 53.785838 
L 360.499162 53.079759 
L 361.70427 53.154621 
L 362.909378 52.683654 
L 364.114486 52.38654 
L 365.319594 52.353677 
L 366.524702 51.493485 
L 367.72981 51.264805 
L 370.140026 51.319274 
L 371.345134 50.710584 
L 372.550242 50.561519 
L 377.370674 51.001767 
L 379.78089 51.295718 
L 380.985998 51.056267 
L 383.396214 50.809412 
L 384.601322 50.96489 
L 387.011538 51.15293 
L 388.216646 51.237588 
L 389.421754 50.988765 
L 390.626862 50.864332 
L 391.83197 50.118918 
L 393.037078 50.12198 
L 395.447294 50.411618 
L 396.652402 50.302389 
L 401.472834 50.815163 
L 402.677942 50.620714 
L 405.088158 50.874097 
L 406.293266 50.326172 
L 407.498375 50.347926 
L 408.703483 50.48276 
L 409.908591 50.440341 
L 414.729023 50.742733 
L 415.934131 50.249519 
L 420.754563 50.538125 
L 423.164779 50.734469 
L 426.780103 50.880143 
L 427.985211 50.746225 
L 429.190319 50.868234 
L 431.600535 50.928973 
L 440.036291 51.616623 
L 444.856723 51.906064 
L 446.061831 51.787056 
L 447.266939 51.91879 
L 448.472047 51.07745 
L 456.907803 51.745641 
L 459.318019 51.405373 
L 464.138451 51.571729 
L 466.548667 51.769139 
L 468.958883 51.859111 
L 472.574207 52.152635 
L 473.779315 51.702709 
L 474.984423 51.802543 
L 476.189531 51.670186 
L 477.394639 51.792074 
L 478.599747 51.595689 
L 479.804855 51.710497 
L 481.009963 51.699476 
L 482.215071 51.159452 
L 485.830395 51.414158 
L 487.035503 51.235507 
L 493.061043 51.723862 
L 495.471259 51.875894 
L 496.676367 51.98192 
L 497.881475 51.283336 
L 499.086583 51.037607 
L 500.291691 51.146985 
L 502.701907 51.045952 
L 503.907015 51.037878 
L 505.112123 51.149715 
L 507.522339 51.085669 
L 508.727447 50.905626 
L 509.932555 50.989059 
L 511.137663 50.536385 
L 515.958095 50.48 
L 515.958095 50.48 
" clip-path="url(#p21fef29e04)" style="fill: none; stroke-dasharray: 5.55,2.4; stroke-dashoffset: 0; stroke: #4169e1; stroke-width: 1.5"/>
   </g>
   <g id="line2d_31">
    <path d="M 35.12 57.500363 
L 36.325108 42.553882 
L 37.530216 45.274384 
L 38.735324 44.497311 
L 39.940432 42.771672 
L 41.14554 43.933712 
L 42.350648 44.027795 
L 43.555756 45.153429 
L 44.760864 45.285884 
L 45.965972 46.170574 
L 47.17108 45.707544 
L 48.376188 47.177768 
L 49.581296 47.252828 
L 50.786404 45.750574 
L 51.991512 45.517612 
L 53.19662 46.902506 
L 54.401728 46.646669 
L 55.606836 46.750515 
L 58.017052 47.815468 
L 59.22216 46.807752 
L 60.427268 46.41736 
L 61.632376 47.021466 
L 62.837484 47.889143 
L 64.042592 47.57239 
L 66.452808 48.239341 
L 67.657916 48.413695 
L 68.863024 48.111755 
L 70.068132 48.154474 
L 71.27324 48.677825 
L 72.478348 48.587369 
L 74.888564 48.714365 
L 76.093672 48.146158 
L 77.29878 48.409189 
L 78.503888 49.118396 
L 79.708996 49.30941 
L 80.914104 48.6473 
L 82.119212 48.746745 
L 83.32432 49.236342 
L 84.529428 49.254468 
L 85.734536 49.062254 
L 86.939644 49.439254 
L 88.144752 49.116031 
L 91.760076 48.926812 
L 94.170292 49.393555 
L 95.3754 49.687485 
L 96.580508 49.790641 
L 97.785616 49.627002 
L 101.40094 49.772595 
L 102.606048 49.672079 
L 103.811156 49.797907 
L 107.42648 49.859146 
L 108.631588 49.562506 
L 112.246913 49.658529 
L 113.452021 49.845913 
L 118.272453 49.801707 
L 119.477561 49.532204 
L 121.887777 49.376878 
L 123.092885 49.244724 
L 137.554181 49.952863 
L 138.759289 50.115916 
L 139.964397 50.083237 
L 142.374613 50.432529 
L 143.579721 50.411127 
L 144.784829 50.584309 
L 145.989937 50.620571 
L 147.195045 50.482409 
L 153.220585 50.970066 
L 155.630801 50.881568 
L 156.835909 51.044995 
L 159.246125 50.945497 
L 160.451233 50.812161 
L 166.476773 50.867893 
L 168.886989 50.938825 
L 177.322745 50.967543 
L 178.527853 50.811631 
L 179.732961 50.946849 
L 183.348285 51.006762 
L 185.758501 51.22612 
L 194.194257 51.435007 
L 200.219797 51.307279 
L 201.424905 51.479168 
L 202.630013 51.245167 
L 205.040229 51.162908 
L 207.450445 51.25791 
L 208.655553 51.212556 
L 212.270877 51.391607 
L 213.475985 51.46335 
L 218.296417 51.1645 
L 224.321957 51.358295 
L 226.732173 51.09211 
L 229.142389 51.067929 
L 231.552605 51.249539 
L 235.167929 51.184803 
L 239.988361 51.428357 
L 246.013901 51.392073 
L 247.219009 51.261401 
L 249.629225 51.429463 
L 253.244549 51.365161 
L 255.654765 51.470434 
L 259.27009 51.533411 
L 272.526278 51.318594 
L 274.936494 51.419152 
L 280.962034 51.389441 
L 283.37225 51.506928 
L 291.808006 51.459081 
L 295.42333 51.519702 
L 299.038654 51.495811 
L 300.243762 51.534786 
L 301.44887 51.43165 
L 313.49995 51.455123 
L 320.730598 51.290647 
L 323.140814 51.257187 
L 325.55103 51.202002 
L 329.166354 51.266208 
L 342.422542 51.170965 
L 344.832758 51.267064 
L 366.524702 50.946926 
L 368.934918 50.842904 
L 370.140026 50.880723 
L 372.550242 50.745443 
L 378.575782 50.836227 
L 384.601322 50.76693 
L 399.062618 50.426935 
L 405.088158 50.470225 
L 407.498375 50.369681 
L 418.344347 50.410157 
L 421.959671 50.3632 
L 432.805643 50.510152 
L 438.831183 50.484019 
L 442.446507 50.53264 
L 455.702695 50.423716 
L 461.728235 50.433502 
L 466.548667 50.414921 
L 472.574207 50.458716 
L 474.984423 50.405989 
L 479.804855 50.506478 
L 481.009963 50.539158 
L 483.420179 50.4772 
L 496.676367 50.482783 
L 497.881475 50.404256 
L 502.701907 50.550011 
L 509.932555 50.637247 
L 515.958095 50.48 
L 515.958095 50.48 
" clip-path="url(#p21fef29e04)" style="fill: none; stroke: #ff8c00; stroke-width: 1.5; stroke-linecap: square"/>
   </g>
   <g id="line2d_32">
    <path d="M 35.12 97 
L 36.325108 13.721364 
L 37.530216 35.962882 
L 38.735324 50.546855 
L 42.350648 65.106529 
L 43.555756 65.786868 
L 44.760864 69.202672 
L 45.965972 69.356489 
L 47.17108 71.070302 
L 48.376188 64.367407 
L 49.581296 66.852404 
L 50.786404 58.069119 
L 51.991512 60.381272 
L 53.19662 51.945377 
L 55.606836 56.5144 
L 56.811944 56.540029 
L 58.017052 56.757917 
L 59.22216 51.103049 
L 60.427268 51.996172 
L 61.632376 50.959867 
L 62.837484 46.423153 
L 64.042592 47.548571 
L 65.2477 48.254414 
L 66.452808 49.136191 
L 67.657916 50.539638 
L 68.863024 51.190117 
L 70.068132 52.697384 
L 71.27324 51.063391 
L 73.683456 53.597378 
L 74.888564 54.87222 
L 76.093672 51.983759 
L 77.29878 52.331522 
L 78.503888 46.78878 
L 79.708996 47.606871 
L 80.914104 42.663244 
L 82.119212 43.877886 
L 83.32432 41.599233 
L 84.529428 42.913278 
L 85.734536 43.592645 
L 86.939644 42.528175 
L 88.144752 42.025052 
L 91.760076 45.183369 
L 92.965184 45.665171 
L 95.3754 44.589028 
L 96.580508 45.394624 
L 97.785616 45.849237 
L 101.40094 48.287357 
L 102.606048 48.931047 
L 103.811156 49.423402 
L 107.42648 51.706563 
L 108.631588 50.436114 
L 109.836697 51.171996 
L 111.041805 51.557399 
L 112.246913 52.228203 
L 113.452021 52.055753 
L 114.657129 52.722607 
L 115.862237 52.99206 
L 117.067345 52.983924 
L 118.272453 53.601516 
L 119.477561 52.317451 
L 120.682669 52.87664 
L 121.887777 53.172848 
L 123.092885 53.289835 
L 124.297993 53.778435 
L 125.503101 53.84398 
L 126.708209 54.380087 
L 127.913317 54.476303 
L 130.323533 55.48569 
L 131.528641 55.336421 
L 135.143965 56.25661 
L 136.349073 56.253884 
L 137.554181 56.727659 
L 138.759289 56.338227 
L 139.964397 56.76566 
L 141.169505 55.725786 
L 142.374613 55.57044 
L 143.579721 56.010343 
L 144.784829 55.438455 
L 145.989937 55.840256 
L 147.195045 55.61634 
L 148.400153 55.696129 
L 149.605261 55.00562 
L 150.810369 55.317119 
L 152.015477 54.764772 
L 153.220585 55.184542 
L 155.630801 55.853314 
L 156.835909 55.251111 
L 158.041017 55.656021 
L 159.246125 55.647646 
L 160.451233 55.352217 
L 161.656341 55.745109 
L 162.861449 55.834299 
L 164.066557 55.754854 
L 165.271665 56.121696 
L 166.476773 56.133782 
L 167.681881 56.260377 
L 170.092097 56.979936 
L 171.297205 57.063666 
L 173.707421 56.948332 
L 174.912529 57.284171 
L 176.117637 56.683167 
L 177.322745 56.869508 
L 178.527853 56.125573 
L 179.732961 55.645472 
L 182.143177 56.307897 
L 183.348285 56.460968 
L 184.553393 55.904309 
L 185.758501 55.922419 
L 188.168717 56.397277 
L 189.373825 56.49346 
L 190.578933 56.80141 
L 191.784041 56.677216 
L 192.989149 56.836599 
L 194.194257 56.796986 
L 196.604473 57.272786 
L 197.809581 57.396595 
L 199.014689 57.66471 
L 200.219797 57.705414 
L 201.424905 56.468152 
L 202.630013 53.920361 
L 203.835121 53.843048 
L 205.040229 54.146366 
L 206.245337 54.102263 
L 208.655553 54.572536 
L 209.860661 54.418043 
L 211.065769 53.967642 
L 212.270877 54.214509 
L 214.681093 54.183085 
L 215.886201 54.022931 
L 217.091309 54.286369 
L 218.296417 53.249349 
L 219.501525 53.345458 
L 220.706633 53.222163 
L 223.116849 53.770608 
L 224.321957 53.78659 
L 225.527065 52.42943 
L 226.732173 52.116658 
L 229.142389 52.621523 
L 230.347497 52.484217 
L 231.552605 52.157011 
L 232.757713 52.257721 
L 235.167929 52.719422 
L 236.373037 52.632838 
L 237.578145 52.832189 
L 239.988361 52.081669 
L 241.193469 52.340099 
L 242.398577 52.455277 
L 243.603685 52.702662 
L 244.808793 52.703413 
L 246.013901 52.88257 
L 247.219009 52.011531 
L 248.424117 51.879408 
L 249.629225 51.573642 
L 250.834333 51.625419 
L 253.244549 52.030349 
L 254.449657 51.638413 
L 255.654765 51.880215 
L 256.859873 51.905375 
L 260.475198 52.562556 
L 264.090522 53.132233 
L 265.29563 53.354752 
L 271.32117 53.581474 
L 272.526278 53.424288 
L 273.731386 53.100324 
L 276.141602 53.479598 
L 277.34671 53.550362 
L 278.551818 53.379299 
L 279.756926 53.585351 
L 280.962034 53.650858 
L 282.167142 53.249168 
L 285.782466 53.770556 
L 288.192682 54.134491 
L 289.39779 52.742804 
L 290.602898 52.744264 
L 291.808006 52.913207 
L 293.013114 52.879593 
L 297.833546 53.261188 
L 300.243762 53.508834 
L 301.44887 52.828403 
L 302.653978 53.01928 
L 303.859086 52.760183 
L 305.064194 52.75122 
L 309.884626 53.32369 
L 311.089734 53.058637 
L 312.294842 52.931359 
L 314.705058 53.118255 
L 315.910166 52.37768 
L 318.320382 52.575799 
L 319.52549 52.16885 
L 321.935706 52.53826 
L 323.140814 52.576883 
L 324.345922 52.2929 
L 325.55103 52.45117 
L 326.756138 52.42673 
L 335.191894 53.581747 
L 336.397002 53.689471 
L 337.60211 52.891606 
L 340.012326 53.236541 
L 341.217434 53.208611 
L 342.422542 53.319667 
L 343.62765 52.959402 
L 349.65319 53.549931 
L 350.858298 53.422443 
L 352.063406 52.519795 
L 354.473622 52.843381 
L 355.67873 52.69981 
L 359.294054 53.122048 
L 360.499162 52.400084 
L 361.70427 52.493721 
L 362.909378 52.22543 
L 365.319594 52.152025 
L 366.524702 51.330111 
L 367.72981 51.123764 
L 370.140026 51.105603 
L 371.345134 50.652714 
L 372.550242 50.463226 
L 374.960458 50.468966 
L 379.78089 51.071046 
L 380.985998 50.785637 
L 382.191106 50.715257 
L 383.396214 50.513087 
L 384.601322 50.672835 
L 387.011538 50.783688 
L 388.216646 50.894678 
L 389.421754 50.41141 
L 390.626862 50.417352 
L 391.83197 49.854239 
L 393.037078 49.817203 
L 395.447294 50.073432 
L 396.652402 50.003327 
L 400.267726 50.417573 
L 401.472834 50.453564 
L 402.677942 50.251816 
L 405.088158 50.499997 
L 406.293266 50.0885 
L 414.729023 50.402956 
L 415.934131 50.07658 
L 420.754563 50.26473 
L 423.164779 50.473467 
L 426.780103 50.640461 
L 427.985211 50.553857 
L 429.190319 50.667785 
L 430.395427 50.636335 
L 438.831183 51.503342 
L 441.241399 51.483409 
L 442.446507 51.443896 
L 444.856723 51.627144 
L 446.061831 51.521665 
L 447.266939 51.649178 
L 448.472047 51.086543 
L 454.497587 51.567722 
L 458.112911 51.55754 
L 459.318019 51.293648 
L 464.138451 51.507652 
L 466.548667 51.702223 
L 468.958883 51.822896 
L 472.574207 52.156458 
L 473.779315 51.76652 
L 474.984423 51.879697 
L 476.189531 51.664555 
L 477.394639 51.758817 
L 478.599747 51.563561 
L 481.009963 51.621004 
L 482.215071 50.824954 
L 489.445719 51.334535 
L 496.676367 51.934905 
L 497.881475 51.169224 
L 499.086583 50.813102 
L 500.291691 50.923709 
L 503.907015 50.724263 
L 505.112123 50.840098 
L 506.317231 50.772026 
L 507.522339 50.837679 
L 508.727447 50.692178 
L 509.932555 50.800885 
L 511.137663 50.496697 
L 513.547879 50.398367 
L 514.752987 50.511057 
L 515.958095 50.48 
L 515.958095 50.48 
" clip-path="url(#p21fef29e04)" style="fill: none; stroke-dasharray: 5.55,2.4; stroke-dashoffset: 0; stroke: #ff8c00; stroke-width: 1.5"/>
   </g>
   <g id="patch_3">
    <path d="M 35.12 97 
L 35.12 3.96 
" style="fill: none; stroke: #000000; stroke-width: 0.8; stroke-linejoin: miter; stroke-linecap: square"/>
   </g>
   <g id="patch_4">
    <path d="M 540 97 
L 540 3.96 
" style="fill: none; stroke: #000000; stroke-width: 0.8; stroke-linejoin: miter; stroke-linecap: square"/>
   </g>
   <g id="patch_5">
    <path d="M 35.12 97 
L 540 97 
" style="fill: none; stroke: #000000; stroke-width: 0.8; stroke-linejoin: miter; stroke-linecap: square"/>
   </g>
   <g id="patch_6">
    <path d="M 35.12 3.96 
L 540 3.96 
" style="fill: none; stroke: #000000; stroke-width: 0.8; stroke-linejoin: miter; stroke-linecap: square"/>
   </g>
  </g>
 </g>
 <defs>
  <clipPath id="p21fef29e04">
   <rect x="35.12" y="3.96" width="504.88" height="93.04"/>
  </clipPath>
 </defs>
</svg>
