<?xml version="1.0" encoding="utf-8" standalone="no"?>
<!DOCTYPE svg PUBLIC "-//W3C//DTD SVG 1.1//EN"
  "http://www.w3.org/Graphics/SVG/1.1/DTD/svg11.dtd">
<svg xmlns:xlink="http://www.w3.org/1999/xlink" width="540pt" height="129.6pt" viewBox="0 0 540 129.6" xmlns="http://www.w3.org/2000/svg" version="1.1">
 <metadata>
  <rdf:RDF xmlns:dc="http://purl.org/dc/elements/1.1/" xmlns:cc="http://creativecommons.org/ns#" xmlns:rdf="http://www.w3.org/1999/02/22-rdf-syntax-ns#">
   <cc:Work>
    <dc:type rdf:resource="http://purl.org/dc/dcmitype/StillImage"/>
    <dc:date>2025-04-05T11:39:15.431308</dc:date>
    <dc:format>image/svg+xml</dc:format>
    <dc:creator>
     <cc:Agent>
      <dc:title>Matplotlib v3.10.1, https://matplotlib.org/</dc:title>
     </cc:Agent>
    </dc:creator>
   </cc:Work>
  </rdf:RDF>
 </metadata>
 <defs>
  <style type="text/css">*{stroke-linejoin: round; stroke-linecap: butt}</style>
 </defs>
 <g id="figure_1">
  <g id="patch_1">
   <path d="M 0 129.6 
L 540 129.6 
L 540 0 
L 0 0 
z
" style="fill: #ffffff"/>
  </g>
  <g id="axes_1">
   <g id="patch_2">
    <path d="M 34.31 98.44 
L 540 98.44 
L 540 3.6 
L 34.31 3.6 
z
" style="fill: #ffffff"/>
   </g>
   <g id="matplotlib.axis_1">
    <g id="xtick_1">
     <g id="line2d_1">
      <path d="M 34.31 98.44 
L 34.31 3.6 
" clip-path="url(#peb95e629a8)" style="fill: none; stroke: #b0b0b0; stroke-width: 0.8; stroke-linecap: square"/>
     </g>
     <g id="line2d_2">
      <defs>
       <path id="m4ae1a209fa" d="M 0 0 
L 0 3.5 
" style="stroke: #000000; stroke-width: 0.8"/>
      </defs>
      <g>
       <use xlink:href="#m4ae1a209fa" x="34.31" y="98.44" style="stroke: #000000; stroke-width: 0.8"/>
      </g>
     </g>
     <g id="text_1">
      <text style="font-size: 10px; font-family: 'Times New Roman'; text-anchor: middle" x="34.31" y="112.38375" transform="rotate(-0 34.31 112.38375)">0</text>
     </g>
    </g>
    <g id="xtick_2">
     <g id="line2d_3">
      <path d="M 94.662071 98.44 
L 94.662071 3.6 
" clip-path="url(#peb95e629a8)" style="fill: none; stroke: #b0b0b0; stroke-width: 0.8; stroke-linecap: square"/>
     </g>
     <g id="line2d_4">
      <g>
       <use xlink:href="#m4ae1a209fa" x="94.662071" y="98.44" style="stroke: #000000; stroke-width: 0.8"/>
      </g>
     </g>
     <g id="text_2">
      <text style="font-size: 10px; font-family: 'Times New Roman'; text-anchor: middle" x="94.662071" y="112.38375" transform="rotate(-0 94.662071 112.38375)">50</text>
     </g>
    </g>
    <g id="xtick_3">
     <g id="line2d_5">
      <path d="M 155.014141 98.44 
L 155.014141 3.6 
" clip-path="url(#peb95e629a8)" style="fill: none; stroke: #b0b0b0; stroke-width: 0.8; stroke-linecap: square"/>
     </g>
     <g id="line2d_6">
      <g>
       <use xlink:href="#m4ae1a209fa" x="155.014141" y="98.44" style="stroke: #000000; stroke-width: 0.8"/>
      </g>
     </g>
     <g id="text_3">
      <text style="font-size: 10px; font-family: 'Times New Roman'; text-anchor: middle" x="155.014141" y="112.38375" transform="rotate(-0 155.014141 112.38375)">100</text>
     </g>
    </g>
    <g id="xtick_4">
     <g id="line2d_7">
      <path d="M 215.366212 98.44 
L 215.366212 3.6 
" clip-path="url(#peb95e629a8)" style="fill: none; stroke: #b0b0b0; stroke-width: 0.8; stroke-linecap: square"/>
     </g>
     <g id="line2d_8">
      <g>
       <use xlink:href="#m4ae1a209fa" x="215.366212" y="98.44" style="stroke: #000000; stroke-width: 0.8"/>
      </g>
     </g>
     <g id="text_4">
      <text style="font-size: 10px; font-family: 'Times New Roman'; text-anchor: middle" x="215.366212" y="112.38375" transform="rotate(-0 215.366212 112.38375)">150</text>
     </g>
    </g>
    <g id="xtick_5">
     <g id="line2d_9">
      <path d="M 275.718283 98.44 
L 275.718283 3.6 
" clip-path="url(#peb95e629a8)" style="fill: none; stroke: #b0b0b0; stroke-width: 0.8; stroke-linecap: square"/>
     </g>
     <g id="line2d_10">
      <g>
       <use xlink:href="#m4ae1a209fa" x="275.718283" y="98.44" style="stroke: #000000; stroke-width: 0.8"/>
      </g>
     </g>
     <g id="text_5">
      <text style="font-size: 10px; font-family: 'Times New Roman'; text-anchor: middle" x="275.718283" y="112.38375" transform="rotate(-0 275.718283 112.38375)">200</text>
     </g>
    </g>
    <g id="xtick_6">
     <g id="line2d_11">
      <path d="M 336.070353 98.44 
L 336.070353 3.6 
" clip-path="url(#peb95e629a8)" style="fill: none; stroke: #b0b0b0; stroke-width: 0.8; stroke-linecap: square"/>
     </g>
     <g id="line2d_12">
      <g>
       <use xlink:href="#m4ae1a209fa" x="336.070353" y="98.44" style="stroke: #000000; stroke-width: 0.8"/>
      </g>
     </g>
     <g id="text_6">
      <text style="font-size: 10px; font-family: 'Times New Roman'; text-anchor: middle" x="336.070353" y="112.38375" transform="rotate(-0 336.070353 112.38375)">250</text>
     </g>
    </g>
    <g id="xtick_7">
     <g id="line2d_13">
      <path d="M 396.422424 98.44 
L 396.422424 3.6 
" clip-path="url(#peb95e629a8)" style="fill: none; stroke: #b0b0b0; stroke-width: 0.8; stroke-linecap: square"/>
     </g>
     <g id="line2d_14">
      <g>
       <use xlink:href="#m4ae1a209fa" x="396.422424" y="98.44" style="stroke: #000000; stroke-width: 0.8"/>
      </g>
     </g>
     <g id="text_7">
      <text style="font-size: 10px; font-family: 'Times New Roman'; text-anchor: middle" x="396.422424" y="112.38375" transform="rotate(-0 396.422424 112.38375)">300</text>
     </g>
    </g>
    <g id="xtick_8">
     <g id="line2d_15">
      <path d="M 456.774495 98.44 
L 456.774495 3.6 
" clip-path="url(#peb95e629a8)" style="fill: none; stroke: #b0b0b0; stroke-width: 0.8; stroke-linecap: square"/>
     </g>
     <g id="line2d_16">
      <g>
       <use xlink:href="#m4ae1a209fa" x="456.774495" y="98.44" style="stroke: #000000; stroke-width: 0.8"/>
      </g>
     </g>
     <g id="text_8">
      <text style="font-size: 10px; font-family: 'Times New Roman'; text-anchor: middle" x="456.774495" y="112.38375" transform="rotate(-0 456.774495 112.38375)">350</text>
     </g>
    </g>
    <g id="xtick_9">
     <g id="line2d_17">
      <path d="M 517.126565 98.44 
L 517.126565 3.6 
" clip-path="url(#peb95e629a8)" style="fill: none; stroke: #b0b0b0; stroke-width: 0.8; stroke-linecap: square"/>
     </g>
     <g id="line2d_18">
      <g>
       <use xlink:href="#m4ae1a209fa" x="517.126565" y="98.44" style="stroke: #000000; stroke-width: 0.8"/>
      </g>
     </g>
     <g id="text_9">
      <text style="font-size: 10px; font-family: 'Times New Roman'; text-anchor: middle" x="517.126565" y="112.38375" transform="rotate(-0 517.126565 112.38375)">400</text>
     </g>
    </g>
    <g id="text_10">
     <text style="font-size: 12px; font-family: 'Times New Roman'; text-anchor: middle" x="287.155" y="126.855312" transform="rotate(-0 287.155 126.855312)">Simulation Run</text>
    </g>
   </g>
   <g id="matplotlib.axis_2">
    <g id="ytick_1">
     <g id="line2d_19">
      <path d="M 34.31 98.44 
L 540 98.44 
" clip-path="url(#peb95e629a8)" style="fill: none; stroke: #b0b0b0; stroke-width: 0.8; stroke-linecap: square"/>
     </g>
     <g id="line2d_20">
      <defs>
       <path id="m03dec663e2" d="M 0 0 
L -3.5 0 
" style="stroke: #000000; stroke-width: 0.8"/>
      </defs>
      <g>
       <use xlink:href="#m03dec663e2" x="34.31" y="98.44" style="stroke: #000000; stroke-width: 0.8"/>
      </g>
     </g>
     <g id="text_11">
      <text style="font-size: 10px; font-family: 'Times New Roman'; text-anchor: end" x="27.31" y="101.911875" transform="rotate(-0 27.31 101.911875)">0.0</text>
     </g>
    </g>
    <g id="ytick_2">
     <g id="line2d_21">
      <path d="M 34.31 66.826667 
L 540 66.826667 
" clip-path="url(#peb95e629a8)" style="fill: none; stroke: #b0b0b0; stroke-width: 0.8; stroke-linecap: square"/>
     </g>
     <g id="line2d_22">
      <g>
       <use xlink:href="#m03dec663e2" x="34.31" y="66.826667" style="stroke: #000000; stroke-width: 0.8"/>
      </g>
     </g>
     <g id="text_12">
      <text style="font-size: 10px; font-family: 'Times New Roman'; text-anchor: end" x="27.31" y="70.298542" transform="rotate(-0 27.31 70.298542)">0.5</text>
     </g>
    </g>
    <g id="ytick_3">
     <g id="line2d_23">
      <path d="M 34.31 35.213333 
L 540 35.213333 
" clip-path="url(#peb95e629a8)" style="fill: none; stroke: #b0b0b0; stroke-width: 0.8; stroke-linecap: square"/>
     </g>
     <g id="line2d_24">
      <g>
       <use xlink:href="#m03dec663e2" x="34.31" y="35.213333" style="stroke: #000000; stroke-width: 0.8"/>
      </g>
     </g>
     <g id="text_13">
      <text style="font-size: 10px; font-family: 'Times New Roman'; text-anchor: end" x="27.31" y="38.685208" transform="rotate(-0 27.31 38.685208)">1.0</text>
     </g>
    </g>
    <g id="ytick_4">
     <g id="line2d_25">
      <path d="M 34.31 3.6 
L 540 3.6 
" clip-path="url(#peb95e629a8)" style="fill: none; stroke: #b0b0b0; stroke-width: 0.8; stroke-linecap: square"/>
     </g>
     <g id="line2d_26">
      <g>
       <use xlink:href="#m03dec663e2" x="34.31" y="3.6" style="stroke: #000000; stroke-width: 0.8"/>
      </g>
     </g>
     <g id="text_14">
      <text style="font-size: 10px; font-family: 'Times New Roman'; text-anchor: end" x="27.31" y="7.071875" transform="rotate(-0 27.31 7.071875)">1.5</text>
     </g>
    </g>
    <g id="text_15">
     <text style="font-size: 12px; font-family: 'Times New Roman'; text-anchor: middle" x="8.243125" y="51.02" transform="rotate(-90 8.243125 51.02)">Normalized Value</text>
    </g>
   </g>
   <g id="line2d_27">
    <path d="M 34.31 66.770651 
L 35.517041 47.914154 
L 36.724083 49.338471 
L 37.931124 48.605976 
L 39.138166 48.546821 
L 40.345207 46.721507 
L 41.552248 47.525441 
L 42.75929 47.174583 
L 43.966331 45.521841 
L 45.173373 45.4495 
L 46.380414 44.801016 
L 47.587456 45.199412 
L 48.794497 44.483421 
L 51.20858 46.145033 
L 52.415621 45.155208 
L 53.622663 45.69593 
L 54.829704 45.681598 
L 56.036745 45.459893 
L 57.243787 43.974688 
L 58.450828 43.564249 
L 59.65787 44.303667 
L 60.864911 42.412398 
L 62.071953 41.931596 
L 63.278994 41.84531 
L 64.486035 41.935332 
L 65.693077 42.520858 
L 66.900118 42.201264 
L 68.10716 42.173047 
L 69.314201 42.947971 
L 70.521242 43.019151 
L 71.728284 42.574396 
L 74.142367 42.607336 
L 75.349408 42.078523 
L 76.556449 42.101876 
L 77.763491 40.518866 
L 81.384615 41.186737 
L 82.591657 40.412463 
L 83.798698 40.782673 
L 87.419822 40.496466 
L 88.626864 40.821086 
L 91.040946 40.464232 
L 92.247988 40.859137 
L 93.455029 40.784789 
L 94.662071 41.009841 
L 95.869112 41.08453 
L 97.076153 40.59261 
L 98.283195 41.020568 
L 100.697278 41.420678 
L 101.904319 41.231997 
L 103.111361 40.718127 
L 104.318402 40.688478 
L 105.525443 40.881484 
L 106.732485 40.696482 
L 107.939526 40.801683 
L 109.146568 41.17088 
L 110.353609 41.13488 
L 111.56065 40.888324 
L 112.767692 41.060887 
L 115.181775 40.835075 
L 116.388816 40.829917 
L 118.802899 40.400896 
L 120.00994 40.408163 
L 121.216982 39.991331 
L 123.631065 40.012938 
L 126.045147 40.292719 
L 129.666272 40.025944 
L 130.873313 39.731695 
L 132.080354 39.764094 
L 134.494437 38.995224 
L 136.90852 39.098083 
L 138.115562 39.328206 
L 141.736686 39.545418 
L 142.943727 39.435972 
L 144.150769 39.129471 
L 146.564851 38.854081 
L 148.978934 38.391509 
L 150.185976 38.085608 
L 151.393017 38.164212 
L 155.014141 37.81168 
L 156.221183 38.009029 
L 159.842307 37.418075 
L 162.25639 37.529248 
L 163.463431 37.442536 
L 164.670473 37.580273 
L 168.291597 37.267623 
L 169.498638 37.278684 
L 170.70568 36.947821 
L 173.119763 36.798831 
L 177.947928 36.584452 
L 181.569052 36.959025 
L 182.776094 36.71832 
L 183.983135 36.692213 
L 185.190177 36.3545 
L 186.397218 36.302606 
L 191.225384 36.724734 
L 192.432425 36.421343 
L 196.053549 36.540954 
L 197.260591 36.424446 
L 198.467632 36.17833 
L 199.674674 36.203609 
L 202.088756 35.72236 
L 204.502839 35.77861 
L 206.916922 35.235509 
L 214.159171 34.867934 
L 216.573253 34.614567 
L 218.987336 34.756255 
L 226.229585 34.822742 
L 228.643668 34.620558 
L 229.850709 34.833733 
L 231.05775 34.620722 
L 232.264792 34.693304 
L 234.678875 34.60206 
L 237.092957 34.662062 
L 240.714082 34.420034 
L 244.335206 34.622189 
L 247.95633 34.519455 
L 251.577454 34.731685 
L 252.784496 34.780596 
L 253.991537 34.627406 
L 256.40562 34.619755 
L 267.268993 35.310613 
L 270.890117 35.115454 
L 273.3042 35.261984 
L 274.511241 35.138803 
L 281.75349 35.371902 
L 284.167573 35.196647 
L 286.581655 35.350714 
L 292.616862 35.005578 
L 295.030945 35.058583 
L 296.237987 35.111529 
L 298.652069 34.879961 
L 301.066152 34.88823 
L 302.273194 34.808057 
L 304.687277 34.906565 
L 308.308401 34.90177 
L 310.722484 34.951889 
L 311.929525 35.07678 
L 315.550649 35.043393 
L 319.171773 34.976028 
L 321.585856 35.150597 
L 322.792898 35.037522 
L 323.999939 35.15874 
L 325.206981 35.159517 
L 327.621063 34.951441 
L 328.828105 34.908268 
L 330.035146 34.981378 
L 331.242188 34.857997 
L 332.449229 34.9239 
L 333.65627 34.778246 
L 346.933726 34.660867 
L 350.55485 34.859355 
L 351.761892 34.703113 
L 355.383016 34.940152 
L 369.867513 34.896215 
L 372.281596 34.898202 
L 379.523844 35.172897 
L 380.730886 35.236973 
L 381.937927 35.162993 
L 384.35201 34.83974 
L 389.180175 34.816024 
L 390.387217 34.700514 
L 394.008341 34.853274 
L 396.422424 34.881167 
L 400.043548 34.940405 
L 408.492838 34.956153 
L 409.699879 34.740636 
L 410.906921 34.642014 
L 415.735087 34.689902 
L 416.942128 34.560483 
L 421.770294 34.686698 
L 424.184376 34.750258 
L 426.598459 34.774935 
L 429.012542 34.909313 
L 436.254791 35.021119 
L 437.461832 35.138698 
L 438.668873 35.005494 
L 449.532246 35.194501 
L 450.739288 34.974477 
L 454.360412 34.916931 
L 455.567453 34.94647 
L 456.774495 34.817646 
L 460.395619 34.977212 
L 464.016743 35.119098 
L 467.637867 35.100831 
L 470.05195 35.100501 
L 478.50124 35.05852 
L 479.708281 35.110373 
L 482.122364 34.994441 
L 484.536447 35.070216 
L 486.95053 35.150634 
L 489.364613 35.226459 
L 513.505441 35.161046 
L 515.919524 35.213333 
L 515.919524 35.213333 
" clip-path="url(#peb95e629a8)" style="fill: none; stroke: #4169e1; stroke-width: 1.5; stroke-linecap: square"/>
   </g>
   <g id="line2d_28">
    <path d="M 34.31 98.44 
L 35.517041 31.35183 
L 36.724083 52.949015 
L 37.931124 64.018054 
L 39.138166 70.899802 
L 40.345207 72.346655 
L 42.75929 78.067192 
L 43.966331 76.207735 
L 45.173373 78.422074 
L 46.380414 79.448432 
L 47.587456 80.701647 
L 48.794497 80.905434 
L 51.20858 79.854169 
L 52.415621 78.242902 
L 53.622663 78.548311 
L 54.829704 79.652746 
L 56.036745 80.474614 
L 57.243787 73.465178 
L 58.450828 74.018756 
L 59.65787 72.962491 
L 60.864911 59.222723 
L 62.071953 59.853583 
L 64.486035 62.751124 
L 65.693077 62.391073 
L 66.900118 63.158196 
L 68.10716 64.370604 
L 69.314201 62.220464 
L 70.521242 63.360157 
L 71.728284 63.29942 
L 74.142367 65.335422 
L 75.349408 64.487331 
L 76.556449 65.42686 
L 77.763491 49.297769 
L 80.177574 51.303335 
L 81.384615 51.88711 
L 82.591657 48.498014 
L 83.798698 48.626868 
L 85.005739 49.679071 
L 86.212781 50.397709 
L 87.419822 51.445621 
L 88.626864 51.572519 
L 91.040946 52.969096 
L 92.247988 52.484698 
L 93.455029 53.352699 
L 94.662071 53.758948 
L 95.869112 54.56452 
L 97.076153 53.01817 
L 98.283195 52.027835 
L 99.490236 52.54179 
L 101.904319 53.281892 
L 103.111361 51.220567 
L 104.318402 52.011277 
L 106.732485 52.738183 
L 107.939526 53.34793 
L 109.146568 52.46915 
L 110.353609 53.172039 
L 111.56065 53.134407 
L 112.767692 53.455656 
L 115.181775 54.459664 
L 116.388816 55.096718 
L 118.802899 55.118642 
L 120.00994 55.71962 
L 121.216982 53.944469 
L 123.631065 55.115132 
L 124.838106 55.509415 
L 126.045147 55.660651 
L 128.45923 56.608645 
L 129.666272 56.872395 
L 130.873313 56.078669 
L 132.080354 56.579228 
L 133.287396 54.34714 
L 134.494437 52.972095 
L 136.90852 53.937077 
L 138.115562 53.589307 
L 141.736686 54.820858 
L 142.943727 55.096782 
L 144.150769 53.954922 
L 145.35781 53.810328 
L 146.564851 54.155474 
L 147.771893 54.055144 
L 148.978934 53.073244 
L 150.185976 51.845992 
L 151.393017 52.20836 
L 152.600058 52.322073 
L 153.8071 52.104946 
L 155.014141 52.553068 
L 157.428224 51.908543 
L 158.635266 50.991224 
L 159.842307 51.151041 
L 161.049348 51.454089 
L 162.25639 51.879489 
L 163.463431 52.158807 
L 165.877514 52.278689 
L 167.084555 52.590783 
L 168.291597 52.729675 
L 169.498638 53.131606 
L 170.70568 51.19506 
L 171.912721 51.240821 
L 175.533845 52.354934 
L 176.740887 52.717764 
L 177.947928 52.519104 
L 179.15497 52.702252 
L 180.362011 52.712223 
L 181.569052 52.530854 
L 182.776094 51.556476 
L 183.983135 51.915597 
L 185.190177 49.594988 
L 186.397218 49.915571 
L 187.604259 50.099439 
L 188.811301 49.978411 
L 190.018342 50.322914 
L 191.225384 49.47399 
L 192.432425 47.569851 
L 196.053549 48.52819 
L 197.260591 48.549431 
L 198.467632 47.359271 
L 199.674674 47.712903 
L 200.881715 46.44945 
L 202.088756 45.419287 
L 204.502839 46.087352 
L 205.709881 43.632567 
L 206.916922 42.723592 
L 210.538046 43.74157 
L 211.745088 42.499102 
L 214.159171 43.192358 
L 215.366212 42.967228 
L 217.780295 43.102287 
L 222.60846 44.376508 
L 226.229585 45.274339 
L 228.643668 45.312771 
L 231.05775 43.184647 
L 233.471833 43.539328 
L 237.092957 44.441682 
L 241.921123 44.878457 
L 243.128164 45.17523 
L 244.335206 45.092016 
L 245.542247 45.240694 
L 247.95633 45.799048 
L 250.370413 45.81259 
L 252.784496 46.28191 
L 253.991537 45.761079 
L 256.40562 46.277624 
L 257.612661 46.363684 
L 258.819703 46.592419 
L 261.233786 46.03061 
L 262.440827 46.286276 
L 263.647868 46.394666 
L 264.85491 45.977118 
L 269.683076 46.745483 
L 270.890117 46.142831 
L 273.3042 46.268524 
L 274.511241 45.959654 
L 275.718283 46.126842 
L 276.925324 46.148035 
L 278.132365 46.396921 
L 279.339407 46.478095 
L 281.75349 46.972025 
L 282.960531 46.700989 
L 285.374614 46.848033 
L 287.788697 46.794699 
L 288.995738 47.016606 
L 290.20278 45.742212 
L 291.409821 45.85013 
L 292.616862 46.083876 
L 293.823904 46.101267 
L 296.237987 46.447963 
L 297.445028 46.233574 
L 298.652069 45.806895 
L 301.066152 46.214261 
L 303.480235 46.062076 
L 305.894318 46.479087 
L 308.308401 46.848446 
L 310.722484 47.213842 
L 311.929525 46.758718 
L 313.136566 46.978568 
L 314.343608 47.015141 
L 316.757691 47.29583 
L 319.171773 47.265553 
L 320.378815 46.704952 
L 321.585856 46.838895 
L 323.999939 46.02755 
L 325.206981 46.244103 
L 326.414022 45.542476 
L 327.621063 45.557085 
L 328.828105 45.687123 
L 330.035146 45.654481 
L 331.242188 45.16162 
L 332.449229 45.174042 
L 333.65627 44.39526 
L 337.277395 44.905756 
L 343.312602 45.74464 
L 344.519643 45.632954 
L 346.933726 46.026648 
L 348.140767 45.764902 
L 350.55485 45.910826 
L 351.761892 44.898437 
L 354.175974 44.259227 
L 357.797099 44.799621 
L 361.418223 45.363146 
L 362.625264 45.408574 
L 367.45343 46.139023 
L 368.660471 46.194398 
L 369.867513 46.065014 
L 372.281596 46.127755 
L 374.695678 46.434108 
L 375.90272 46.270178 
L 380.730886 46.376184 
L 381.937927 46.258931 
L 383.144968 44.377121 
L 384.35201 43.65514 
L 387.973134 44.169319 
L 389.180175 44.257378 
L 390.387217 43.69777 
L 392.8013 43.750961 
L 397.629465 44.060596 
L 400.043548 43.575925 
L 402.457631 43.888897 
L 403.664672 43.701027 
L 404.871714 43.872445 
L 407.285797 43.448384 
L 408.492838 43.306088 
L 409.699879 40.757285 
L 410.906921 40.369011 
L 412.113962 40.474758 
L 413.321004 40.369646 
L 414.528045 40.520296 
L 415.735087 40.300191 
L 416.942128 39.481225 
L 420.563252 39.91775 
L 421.770294 39.878332 
L 422.977335 39.715057 
L 426.598459 40.193494 
L 427.805501 39.911227 
L 429.012542 39.948325 
L 430.219583 40.117135 
L 431.426625 40.165378 
L 432.633666 40.090374 
L 433.840708 40.226495 
L 435.047749 39.737821 
L 436.254791 39.906854 
L 437.461832 39.210354 
L 438.668873 38.265134 
L 439.875915 38.408675 
L 441.082956 38.11461 
L 444.70408 38.386615 
L 449.532246 38.855407 
L 450.739288 35.876362 
L 451.946329 35.9149 
L 455.567453 36.377419 
L 456.774495 35.458304 
L 457.981536 35.597486 
L 459.188577 35.58584 
L 460.395619 35.319592 
L 461.60266 35.243322 
L 462.809702 35.420828 
L 464.016743 35.169756 
L 468.844909 35.629225 
L 470.05195 35.654757 
L 471.258992 35.798656 
L 472.466033 35.461307 
L 474.880116 35.729438 
L 476.087157 35.404924 
L 479.708281 35.31576 
L 480.915323 34.597821 
L 483.329406 34.92214 
L 484.536447 34.838011 
L 485.743488 34.373799 
L 486.95053 34.529608 
L 488.157571 34.289916 
L 491.778696 34.697645 
L 492.985737 34.688825 
L 499.020944 35.25082 
L 501.435027 35.221861 
L 502.642068 34.061715 
L 511.091358 34.813239 
L 514.712482 35.064324 
L 515.919524 35.213333 
L 515.919524 35.213333 
" clip-path="url(#peb95e629a8)" style="fill: none; stroke-dasharray: 5.55,2.4; stroke-dashoffset: 0; stroke: #4169e1; stroke-width: 1.5"/>
   </g>
   <g id="line2d_29">
    <path d="M 34.31 57.435379 
L 35.517041 41.665059 
L 36.724083 43.679411 
L 37.931124 44.596483 
L 39.138166 45.03516 
L 40.345207 43.174549 
L 41.552248 43.61615 
L 42.75929 43.736786 
L 43.966331 41.953306 
L 45.173373 42.354927 
L 46.380414 41.600691 
L 47.587456 41.993901 
L 48.794497 41.489533 
L 50.001538 41.985542 
L 51.20858 42.83765 
L 52.415621 42.011956 
L 54.829704 42.873151 
L 56.036745 42.691211 
L 57.243787 41.770401 
L 58.450828 41.556401 
L 59.65787 41.808518 
L 60.864911 40.516133 
L 63.278994 39.664756 
L 64.486035 39.630028 
L 65.693077 39.899523 
L 66.900118 39.505294 
L 68.10716 39.709394 
L 69.314201 40.337276 
L 70.521242 40.396678 
L 71.728284 40.191739 
L 75.349408 39.963307 
L 76.556449 40.131008 
L 77.763491 38.830637 
L 78.970532 39.150438 
L 80.177574 39.224914 
L 81.384615 39.755241 
L 82.591657 39.407729 
L 83.798698 39.71174 
L 85.005739 39.637681 
L 86.212781 39.323656 
L 87.419822 39.421632 
L 88.626864 39.689115 
L 91.040946 39.34141 
L 92.247988 39.53774 
L 94.662071 39.534326 
L 95.869112 39.636114 
L 97.076153 39.248015 
L 99.490236 39.77794 
L 100.697278 39.886368 
L 101.904319 39.78493 
L 103.111361 39.409507 
L 104.318402 39.314919 
L 105.525443 39.480709 
L 106.732485 39.292904 
L 110.353609 39.616047 
L 111.56065 39.387653 
L 112.767692 39.426126 
L 115.181775 39.344799 
L 116.388816 39.363765 
L 118.802899 39.075281 
L 120.00994 38.99681 
L 121.216982 38.795321 
L 126.045147 39.148338 
L 129.666272 38.90513 
L 130.873313 38.663113 
L 132.080354 38.676575 
L 133.287396 38.354718 
L 134.494437 38.201085 
L 136.90852 38.255515 
L 138.115562 38.408241 
L 141.736686 38.427795 
L 145.35781 38.024485 
L 147.771893 37.9467 
L 150.185976 37.533444 
L 151.393017 37.642783 
L 155.014141 37.300119 
L 156.221183 37.436777 
L 159.842307 36.885809 
L 162.25639 36.979096 
L 163.463431 36.91794 
L 164.670473 37.039062 
L 174.326804 36.363116 
L 176.740887 36.405125 
L 177.947928 36.345068 
L 181.569052 36.608579 
L 182.776094 36.437338 
L 183.983135 36.406109 
L 185.190177 36.241113 
L 186.397218 36.206605 
L 188.811301 36.407295 
L 190.018342 36.37343 
L 191.225384 36.527773 
L 192.432425 36.274523 
L 196.053549 36.299014 
L 197.260591 36.230464 
L 198.467632 35.979529 
L 199.674674 36.020115 
L 203.295798 35.772651 
L 204.502839 35.739435 
L 206.916922 35.399545 
L 209.331005 35.254552 
L 215.366212 34.976699 
L 216.573253 34.863194 
L 221.401419 34.89001 
L 228.643668 34.824906 
L 229.850709 34.980476 
L 231.05775 34.846212 
L 233.471833 34.834813 
L 240.714082 34.555019 
L 241.921123 34.617489 
L 243.128164 34.565355 
L 245.542247 34.655377 
L 249.163372 34.714459 
L 251.577454 34.789532 
L 252.784496 34.814399 
L 255.198579 34.684495 
L 260.026744 34.821501 
L 262.440827 34.909339 
L 268.476034 35.113836 
L 272.097158 35.056418 
L 273.3042 35.130805 
L 275.718283 35.067473 
L 279.339407 35.172373 
L 282.960531 35.075827 
L 285.374614 35.062878 
L 286.581655 35.13324 
L 292.616862 34.921101 
L 296.237987 35.008722 
L 302.273194 34.77757 
L 304.687277 34.870855 
L 307.101359 34.872102 
L 310.722484 34.899136 
L 313.136566 34.996391 
L 319.171773 34.899253 
L 321.585856 35.028485 
L 322.792898 34.966064 
L 325.206981 35.020499 
L 328.828105 34.847397 
L 330.035146 34.900644 
L 331.242188 34.815914 
L 332.449229 34.866322 
L 333.65627 34.718035 
L 344.519643 34.717268 
L 348.140767 34.730966 
L 350.55485 34.814412 
L 351.761892 34.692115 
L 356.590057 34.853492 
L 360.211182 34.845868 
L 363.832306 34.836808 
L 369.867513 34.825766 
L 373.488637 34.872182 
L 377.109761 34.968434 
L 380.730886 35.082812 
L 386.766093 34.833834 
L 389.180175 34.840788 
L 390.387217 34.760252 
L 398.836507 34.992565 
L 401.25059 34.955748 
L 402.457631 34.990956 
L 404.871714 34.882999 
L 406.078755 34.963162 
L 413.321004 34.76106 
L 415.735087 34.710671 
L 416.942128 34.608146 
L 424.184376 34.754657 
L 427.805501 34.845776 
L 437.461832 35.031653 
L 439.875915 34.962562 
L 442.289998 35.019376 
L 445.911122 35.027786 
L 449.532246 35.100396 
L 450.739288 34.942757 
L 460.395619 34.936421 
L 465.223784 35.020712 
L 478.50124 35.012135 
L 480.915323 34.986752 
L 484.536447 35.048356 
L 488.157571 35.163931 
L 515.919524 35.213333 
L 515.919524 35.213333 
" clip-path="url(#peb95e629a8)" style="fill: none; stroke: #ff8c00; stroke-width: 1.5; stroke-linecap: square"/>
   </g>
   <g id="line2d_30">
    <path d="M 34.31 98.44 
L 35.517041 14.178726 
L 36.724083 39.516356 
L 37.931124 53.392445 
L 39.138166 62.141163 
L 40.345207 62.326508 
L 41.552248 67.089156 
L 42.75929 70.973497 
L 43.966331 65.404011 
L 45.173373 68.215772 
L 46.380414 69.036078 
L 47.587456 70.910184 
L 48.794497 71.993618 
L 50.001538 72.799046 
L 52.415621 69.310611 
L 53.622663 70.17885 
L 54.829704 70.496457 
L 56.036745 71.765299 
L 57.243787 67.64095 
L 58.450828 68.797254 
L 59.65787 69.692412 
L 60.864911 58.492769 
L 62.071953 59.025314 
L 63.278994 58.803801 
L 64.486035 60.318055 
L 65.693077 61.090212 
L 66.900118 61.002428 
L 68.10716 61.898201 
L 69.314201 59.242783 
L 70.521242 60.471345 
L 71.728284 61.216743 
L 74.142367 63.374575 
L 76.556449 64.556246 
L 77.763491 44.847478 
L 78.970532 44.975748 
L 80.177574 46.275216 
L 81.384615 43.863129 
L 82.591657 43.557657 
L 83.798698 43.58054 
L 85.005739 44.778295 
L 86.212781 44.561248 
L 87.419822 45.615454 
L 88.626864 45.672996 
L 89.833905 46.515804 
L 92.247988 47.296 
L 94.662071 49.22225 
L 95.869112 49.989718 
L 97.076153 48.250263 
L 98.283195 47.455566 
L 99.490236 47.496581 
L 101.904319 48.873609 
L 103.111361 47.006368 
L 104.318402 47.702312 
L 105.525443 47.998509 
L 106.732485 48.108428 
L 107.939526 48.496653 
L 109.146568 48.407748 
L 110.353609 49.17628 
L 111.56065 48.80309 
L 115.181775 50.840043 
L 116.388816 51.521609 
L 117.595858 51.441138 
L 118.802899 51.819863 
L 120.00994 52.319245 
L 121.216982 51.960696 
L 122.424023 52.336853 
L 123.631065 52.925721 
L 124.838106 53.345076 
L 126.045147 53.45495 
L 128.45923 54.360689 
L 129.666272 54.589508 
L 130.873313 53.543322 
L 132.080354 54.085869 
L 133.287396 51.742297 
L 134.494437 51.634489 
L 136.90852 52.632636 
L 138.115562 52.479533 
L 141.736686 53.967553 
L 142.943727 53.9131 
L 144.150769 53.201791 
L 145.35781 53.522369 
L 146.564851 53.994423 
L 147.771893 54.196547 
L 148.978934 52.802597 
L 150.185976 52.297413 
L 152.600058 52.449958 
L 153.8071 51.744112 
L 155.014141 52.129173 
L 156.221183 51.944144 
L 157.428224 51.545044 
L 158.635266 49.606481 
L 159.842307 49.453759 
L 161.049348 49.695519 
L 162.25639 50.143441 
L 163.463431 50.455049 
L 164.670473 50.358471 
L 165.877514 50.498145 
L 167.084555 50.757085 
L 168.291597 50.829468 
L 169.498638 51.171415 
L 170.70568 50.038025 
L 171.912721 49.767915 
L 176.740887 51.322483 
L 180.362011 52.001462 
L 181.569052 51.606958 
L 182.776094 50.762652 
L 183.983135 51.1031 
L 185.190177 50.325851 
L 186.397218 50.653868 
L 188.811301 50.524728 
L 190.018342 50.843184 
L 191.225384 50.15731 
L 192.432425 47.676558 
L 194.846508 48.280058 
L 196.053549 48.553819 
L 197.260591 48.705702 
L 198.467632 46.16733 
L 199.674674 46.469664 
L 200.881715 46.238204 
L 202.088756 45.436581 
L 204.502839 46.102715 
L 205.709881 44.553948 
L 206.916922 43.973247 
L 208.123963 43.787071 
L 210.538046 44.37409 
L 211.745088 43.630604 
L 212.952129 43.997995 
L 214.159171 44.172464 
L 215.366212 43.376673 
L 216.573253 43.079829 
L 225.022543 45.30083 
L 228.643668 46.003168 
L 229.850709 44.996526 
L 231.05775 44.326887 
L 233.471833 44.779461 
L 234.678875 44.95796 
L 237.092957 45.577862 
L 238.299999 45.34653 
L 239.50704 45.591782 
L 240.714082 45.352251 
L 243.128164 45.577045 
L 244.335206 45.35221 
L 247.95633 46.245475 
L 250.370413 46.271007 
L 252.784496 46.806212 
L 253.991537 46.232582 
L 256.40562 46.77732 
L 257.612661 46.909088 
L 258.819703 47.166706 
L 261.233786 46.680986 
L 262.440827 46.953397 
L 263.647868 47.009493 
L 264.85491 46.653898 
L 267.268993 46.90762 
L 269.683076 47.257923 
L 270.890117 46.866026 
L 273.3042 46.679833 
L 274.511241 46.525735 
L 275.718283 46.768923 
L 276.925324 46.788433 
L 278.132365 47.035134 
L 279.339407 47.066544 
L 281.75349 47.560134 
L 282.960531 47.208855 
L 287.788697 47.211737 
L 288.995738 47.452538 
L 290.20278 46.709402 
L 292.616862 47.108544 
L 293.823904 47.065489 
L 296.237987 47.497929 
L 297.445028 47.413663 
L 298.652069 47.209949 
L 301.066152 47.570452 
L 302.273194 47.661622 
L 303.480235 47.455552 
L 305.894318 47.768386 
L 307.101359 47.868615 
L 310.722484 48.502166 
L 311.929525 48.056022 
L 314.343608 48.395803 
L 315.550649 48.542491 
L 316.757691 48.479929 
L 317.964732 48.195462 
L 319.171773 48.24204 
L 320.378815 47.43205 
L 321.585856 47.623586 
L 322.792898 47.519816 
L 323.999939 47.231024 
L 325.206981 47.395647 
L 326.414022 46.985609 
L 327.621063 46.862365 
L 328.828105 47.031294 
L 330.035146 47.004927 
L 331.242188 46.614812 
L 332.449229 46.611146 
L 333.65627 44.971725 
L 337.277395 45.54763 
L 340.898519 46.058453 
L 343.312602 46.287457 
L 344.519643 46.284122 
L 346.933726 46.523058 
L 348.140767 46.23173 
L 349.347809 46.148998 
L 350.55485 46.283234 
L 351.761892 45.148089 
L 355.383016 44.770234 
L 361.418223 45.548095 
L 362.625264 45.499365 
L 368.660471 46.338104 
L 372.281596 46.235533 
L 373.488637 46.119138 
L 374.695678 46.303556 
L 375.90272 46.174994 
L 377.109761 46.193523 
L 378.316803 46.071327 
L 379.523844 46.248262 
L 381.937927 46.008442 
L 383.144968 44.928683 
L 384.35201 44.554421 
L 389.180175 45.208963 
L 390.387217 44.740541 
L 392.8013 44.801937 
L 397.629465 45.048421 
L 398.836507 44.803135 
L 400.043548 44.781434 
L 401.25059 44.952148 
L 402.457631 44.998851 
L 403.664672 44.421291 
L 404.871714 44.542558 
L 406.078755 44.0464 
L 408.492838 43.887463 
L 409.699879 40.807945 
L 410.906921 39.925613 
L 412.113962 40.074822 
L 413.321004 40.04283 
L 414.528045 40.19062 
L 415.735087 39.864478 
L 416.942128 38.919761 
L 419.356211 39.031918 
L 421.770294 39.22571 
L 422.977335 39.080368 
L 424.184376 39.147202 
L 426.598459 39.426999 
L 427.805501 39.177374 
L 433.840708 39.621275 
L 435.047749 39.034623 
L 436.254791 39.172715 
L 437.461832 38.495174 
L 438.668873 37.960825 
L 439.875915 38.12855 
L 441.082956 37.687229 
L 443.497039 37.903223 
L 444.70408 37.933464 
L 445.911122 38.109012 
L 447.118163 38.001295 
L 449.532246 38.301982 
L 450.739288 35.57113 
L 455.567453 36.216047 
L 456.774495 34.983506 
L 459.188577 35.168024 
L 460.395619 34.943567 
L 461.60266 34.862085 
L 462.809702 35.036654 
L 464.016743 34.760416 
L 466.430826 35.004409 
L 468.844909 35.194395 
L 470.05195 35.080859 
L 471.258992 35.215575 
L 472.466033 34.73372 
L 474.880116 35.025347 
L 476.087157 35.135869 
L 478.50124 34.966736 
L 479.708281 34.949594 
L 480.915323 34.603519 
L 483.329406 34.872692 
L 484.536447 34.763383 
L 485.743488 34.320085 
L 486.95053 34.462798 
L 488.157571 34.161389 
L 491.778696 34.649266 
L 494.192778 34.68082 
L 495.39982 34.754604 
L 496.606861 34.665316 
L 501.435027 35.171694 
L 502.642068 34.317042 
L 505.056151 34.549366 
L 506.263193 34.689754 
L 508.677275 34.767111 
L 511.091358 35.030998 
L 512.2984 34.989434 
L 513.505441 35.146369 
L 514.712482 35.078706 
L 515.919524 35.213333 
L 515.919524 35.213333 
" clip-path="url(#peb95e629a8)" style="fill: none; stroke-dasharray: 5.55,2.4; stroke-dashoffset: 0; stroke: #ff8c00; stroke-width: 1.5"/>
   </g>
   <g id="patch_3">
    <path d="M 34.31 98.44 
L 34.31 3.6 
" style="fill: none; stroke: #000000; stroke-width: 0.8; stroke-linejoin: miter; stroke-linecap: square"/>
   </g>
   <g id="patch_4">
    <path d="M 540 98.44 
L 540 3.6 
" style="fill: none; stroke: #000000; stroke-width: 0.8; stroke-linejoin: miter; stroke-linecap: square"/>
   </g>
   <g id="patch_5">
    <path d="M 34.31 98.44 
L 540 98.44 
" style="fill: none; stroke: #000000; stroke-width: 0.8; stroke-linejoin: miter; stroke-linecap: square"/>
   </g>
   <g id="patch_6">
    <path d="M 34.31 3.6 
L 540 3.6 
" style="fill: none; stroke: #000000; stroke-width: 0.8; stroke-linejoin: miter; stroke-linecap: square"/>
   </g>
  </g>
 </g>
 <defs>
  <clipPath id="peb95e629a8">
   <rect x="34.31" y="3.6" width="505.69" height="94.84"/>
  </clipPath>
 </defs>
</svg>
