<?xml version="1.0" encoding="utf-8" standalone="no"?>
<!DOCTYPE svg PUBLIC "-//W3C//DTD SVG 1.1//EN"
  "http://www.w3.org/Graphics/SVG/1.1/DTD/svg11.dtd">
<svg xmlns:xlink="http://www.w3.org/1999/xlink" width="540pt" height="129.6pt" viewBox="0 0 540 129.6" xmlns="http://www.w3.org/2000/svg" version="1.1">
 <metadata>
  <rdf:RDF xmlns:dc="http://purl.org/dc/elements/1.1/" xmlns:cc="http://creativecommons.org/ns#" xmlns:rdf="http://www.w3.org/1999/02/22-rdf-syntax-ns#">
   <cc:Work>
    <dc:type rdf:resource="http://purl.org/dc/dcmitype/StillImage"/>
    <dc:date>2025-03-29T20:44:24.297171</dc:date>
    <dc:format>image/svg+xml</dc:format>
    <dc:creator>
     <cc:Agent>
      <dc:title>Matplotlib v3.8.3, https://matplotlib.org/</dc:title>
     </cc:Agent>
    </dc:creator>
   </cc:Work>
  </rdf:RDF>
 </metadata>
 <defs>
  <style type="text/css">*{stroke-linejoin: round; stroke-linecap: butt}</style>
 </defs>
 <g id="figure_1">
  <g id="patch_1">
   <path d="M 0 129.6 
L 540 129.6 
L 540 0 
L 0 0 
z
" style="fill: #ffffff"/>
  </g>
  <g id="axes_1">
   <g id="patch_2">
    <path d="M 35.03 97 
L 540 97 
L 540 0 
L 35.03 0 
z
" style="fill: #ffffff"/>
   </g>
   <g id="matplotlib.axis_1">
    <g id="xtick_1">
     <g id="line2d_1">
      <path d="M 35.03 97 
L 35.03 0 
" clip-path="url(#pbe23043088)" style="fill: none; stroke: #b0b0b0; stroke-width: 0.8; stroke-linecap: square"/>
     </g>
     <g id="line2d_2">
      <defs>
       <path id="m6124deeba3" d="M 0 0 
L 0 3.5 
" style="stroke: #000000; stroke-width: 0.8"/>
      </defs>
      <g>
       <use xlink:href="#m6124deeba3" x="35.03" y="97" style="stroke: #000000; stroke-width: 0.8"/>
      </g>
     </g>
     <g id="text_1">
      <text style="font: 10px 'Times New Roman'; text-anchor: middle" x="35.03" y="110.94375" transform="rotate(-0 35.03 110.94375)">0</text>
     </g>
    </g>
    <g id="xtick_2">
     <g id="line2d_3">
      <path d="M 95.296142 97 
L 95.296142 0 
" clip-path="url(#pbe23043088)" style="fill: none; stroke: #b0b0b0; stroke-width: 0.8; stroke-linecap: square"/>
     </g>
     <g id="line2d_4">
      <g>
       <use xlink:href="#m6124deeba3" x="95.296142" y="97" style="stroke: #000000; stroke-width: 0.8"/>
      </g>
     </g>
     <g id="text_2">
      <text style="font: 10px 'Times New Roman'; text-anchor: middle" x="95.296142" y="110.94375" transform="rotate(-0 95.296142 110.94375)">50</text>
     </g>
    </g>
    <g id="xtick_3">
     <g id="line2d_5">
      <path d="M 155.562283 97 
L 155.562283 0 
" clip-path="url(#pbe23043088)" style="fill: none; stroke: #b0b0b0; stroke-width: 0.8; stroke-linecap: square"/>
     </g>
     <g id="line2d_6">
      <g>
       <use xlink:href="#m6124deeba3" x="155.562283" y="97" style="stroke: #000000; stroke-width: 0.8"/>
      </g>
     </g>
     <g id="text_3">
      <text style="font: 10px 'Times New Roman'; text-anchor: middle" x="155.562283" y="110.94375" transform="rotate(-0 155.562283 110.94375)">100</text>
     </g>
    </g>
    <g id="xtick_4">
     <g id="line2d_7">
      <path d="M 215.828425 97 
L 215.828425 0 
" clip-path="url(#pbe23043088)" style="fill: none; stroke: #b0b0b0; stroke-width: 0.8; stroke-linecap: square"/>
     </g>
     <g id="line2d_8">
      <g>
       <use xlink:href="#m6124deeba3" x="215.828425" y="97" style="stroke: #000000; stroke-width: 0.8"/>
      </g>
     </g>
     <g id="text_4">
      <text style="font: 10px 'Times New Roman'; text-anchor: middle" x="215.828425" y="110.94375" transform="rotate(-0 215.828425 110.94375)">150</text>
     </g>
    </g>
    <g id="xtick_5">
     <g id="line2d_9">
      <path d="M 276.094566 97 
L 276.094566 0 
" clip-path="url(#pbe23043088)" style="fill: none; stroke: #b0b0b0; stroke-width: 0.8; stroke-linecap: square"/>
     </g>
     <g id="line2d_10">
      <g>
       <use xlink:href="#m6124deeba3" x="276.094566" y="97" style="stroke: #000000; stroke-width: 0.8"/>
      </g>
     </g>
     <g id="text_5">
      <text style="font: 10px 'Times New Roman'; text-anchor: middle" x="276.094566" y="110.94375" transform="rotate(-0 276.094566 110.94375)">200</text>
     </g>
    </g>
    <g id="xtick_6">
     <g id="line2d_11">
      <path d="M 336.360708 97 
L 336.360708 0 
" clip-path="url(#pbe23043088)" style="fill: none; stroke: #b0b0b0; stroke-width: 0.8; stroke-linecap: square"/>
     </g>
     <g id="line2d_12">
      <g>
       <use xlink:href="#m6124deeba3" x="336.360708" y="97" style="stroke: #000000; stroke-width: 0.8"/>
      </g>
     </g>
     <g id="text_6">
      <text style="font: 10px 'Times New Roman'; text-anchor: middle" x="336.360708" y="110.94375" transform="rotate(-0 336.360708 110.94375)">250</text>
     </g>
    </g>
    <g id="xtick_7">
     <g id="line2d_13">
      <path d="M 396.626849 97 
L 396.626849 0 
" clip-path="url(#pbe23043088)" style="fill: none; stroke: #b0b0b0; stroke-width: 0.8; stroke-linecap: square"/>
     </g>
     <g id="line2d_14">
      <g>
       <use xlink:href="#m6124deeba3" x="396.626849" y="97" style="stroke: #000000; stroke-width: 0.8"/>
      </g>
     </g>
     <g id="text_7">
      <text style="font: 10px 'Times New Roman'; text-anchor: middle" x="396.626849" y="110.94375" transform="rotate(-0 396.626849 110.94375)">300</text>
     </g>
    </g>
    <g id="xtick_8">
     <g id="line2d_15">
      <path d="M 456.892991 97 
L 456.892991 0 
" clip-path="url(#pbe23043088)" style="fill: none; stroke: #b0b0b0; stroke-width: 0.8; stroke-linecap: square"/>
     </g>
     <g id="line2d_16">
      <g>
       <use xlink:href="#m6124deeba3" x="456.892991" y="97" style="stroke: #000000; stroke-width: 0.8"/>
      </g>
     </g>
     <g id="text_8">
      <text style="font: 10px 'Times New Roman'; text-anchor: middle" x="456.892991" y="110.94375" transform="rotate(-0 456.892991 110.94375)">350</text>
     </g>
    </g>
    <g id="xtick_9">
     <g id="line2d_17">
      <path d="M 517.159132 97 
L 517.159132 0 
" clip-path="url(#pbe23043088)" style="fill: none; stroke: #b0b0b0; stroke-width: 0.8; stroke-linecap: square"/>
     </g>
     <g id="line2d_18">
      <g>
       <use xlink:href="#m6124deeba3" x="517.159132" y="97" style="stroke: #000000; stroke-width: 0.8"/>
      </g>
     </g>
     <g id="text_9">
      <text style="font: 10px 'Times New Roman'; text-anchor: middle" x="517.159132" y="110.94375" transform="rotate(-0 517.159132 110.94375)">400</text>
     </g>
    </g>
    <g id="text_10">
     <text style="font: 12px 'Times New Roman'; text-anchor: middle" x="287.515" y="125.415312" transform="rotate(-0 287.515 125.415312)">Simulation Run</text>
    </g>
   </g>
   <g id="matplotlib.axis_2">
    <g id="ytick_1">
     <g id="line2d_19">
      <path d="M 35.03 97 
L 540 97 
" clip-path="url(#pbe23043088)" style="fill: none; stroke: #b0b0b0; stroke-width: 0.8; stroke-linecap: square"/>
     </g>
     <g id="line2d_20">
      <defs>
       <path id="m592a4edcf9" d="M 0 0 
L -3.5 0 
" style="stroke: #000000; stroke-width: 0.8"/>
      </defs>
      <g>
       <use xlink:href="#m592a4edcf9" x="35.03" y="97" style="stroke: #000000; stroke-width: 0.8"/>
      </g>
     </g>
     <g id="text_11">
      <text style="font: 10px 'Times New Roman'; text-anchor: end" x="28.03" y="100.471875" transform="rotate(-0 28.03 100.471875)">0.0</text>
     </g>
    </g>
    <g id="ytick_2">
     <g id="line2d_21">
      <path d="M 35.03 62.357143 
L 540 62.357143 
" clip-path="url(#pbe23043088)" style="fill: none; stroke: #b0b0b0; stroke-width: 0.8; stroke-linecap: square"/>
     </g>
     <g id="line2d_22">
      <g>
       <use xlink:href="#m592a4edcf9" x="35.03" y="62.357143" style="stroke: #000000; stroke-width: 0.8"/>
      </g>
     </g>
     <g id="text_12">
      <text style="font: 10px 'Times New Roman'; text-anchor: end" x="28.03" y="65.829018" transform="rotate(-0 28.03 65.829018)">0.5</text>
     </g>
    </g>
    <g id="ytick_3">
     <g id="line2d_23">
      <path d="M 35.03 27.714286 
L 540 27.714286 
" clip-path="url(#pbe23043088)" style="fill: none; stroke: #b0b0b0; stroke-width: 0.8; stroke-linecap: square"/>
     </g>
     <g id="line2d_24">
      <g>
       <use xlink:href="#m592a4edcf9" x="35.03" y="27.714286" style="stroke: #000000; stroke-width: 0.8"/>
      </g>
     </g>
     <g id="text_13">
      <text style="font: 10px 'Times New Roman'; text-anchor: end" x="28.03" y="31.186161" transform="rotate(-0 28.03 31.186161)">1.0</text>
     </g>
    </g>
    <g id="text_14">
     <text style="font: 12px 'Times New Roman'; text-anchor: middle" x="8.963125" y="48.5" transform="rotate(-90 8.963125 48.5)">Normalized Value</text>
    </g>
   </g>
   <g id="line2d_25">
    <path d="M 35.03 10.897029 
L 36.235323 24.862735 
L 37.440646 28.461627 
L 38.645968 31.074447 
L 41.056614 26.363307 
L 42.261937 26.502792 
L 43.46726 28.367371 
L 44.672583 26.628406 
L 45.877905 28.876946 
L 47.083228 28.008257 
L 48.288551 26.526648 
L 49.493874 28.604177 
L 50.699197 29.811582 
L 51.90452 29.207382 
L 53.109842 29.66286 
L 54.315165 29.844438 
L 55.520488 28.605609 
L 56.725811 27.826539 
L 57.931134 27.367459 
L 59.136457 27.111647 
L 61.547102 28.021883 
L 62.752425 27.659274 
L 63.957748 27.886166 
L 65.163071 28.813951 
L 66.368394 28.239384 
L 68.779039 29.421887 
L 69.984362 28.417332 
L 71.189685 28.866311 
L 72.395008 28.594133 
L 73.600331 28.543196 
L 76.010976 28.2756 
L 77.216299 28.506428 
L 78.421622 28.226486 
L 79.626945 28.31278 
L 80.832268 28.133372 
L 82.03759 27.68776 
L 83.242913 28.244919 
L 85.653559 28.227754 
L 86.858882 28.430736 
L 88.064205 27.534905 
L 89.269527 27.073354 
L 90.47485 27.012889 
L 91.680173 26.558612 
L 92.885496 26.785331 
L 94.090819 27.173073 
L 95.296142 27.16459 
L 96.501464 27.591443 
L 97.706787 27.391121 
L 98.91211 27.064021 
L 100.117433 26.876213 
L 102.528079 27.489237 
L 103.733401 27.415839 
L 104.938724 26.749674 
L 106.144047 26.563383 
L 107.34937 25.848443 
L 108.554693 25.713314 
L 109.760016 26.147913 
L 110.965338 26.150898 
L 112.170661 26.593725 
L 113.375984 26.337037 
L 114.581307 26.719016 
L 115.78663 26.82473 
L 116.991953 26.486431 
L 118.197275 26.663063 
L 120.607921 26.470762 
L 121.813244 26.779679 
L 123.018567 26.248342 
L 124.223889 26.287178 
L 125.429212 26.163535 
L 126.634535 26.256504 
L 127.839858 26.009302 
L 130.250504 25.987099 
L 131.455826 26.163452 
L 132.661149 26.07086 
L 133.866472 26.18455 
L 135.071795 26.129714 
L 136.277118 26.454839 
L 138.687763 26.418518 
L 139.893086 26.095219 
L 141.098409 26.422968 
L 143.509055 26.683874 
L 144.714378 26.565634 
L 145.9197 26.585424 
L 148.330346 27.236017 
L 150.740992 27.388499 
L 154.35696 27.578328 
L 161.588897 28.715078 
L 162.79422 28.779273 
L 163.999543 28.958927 
L 165.204866 28.718195 
L 170.026157 28.762712 
L 171.23148 28.900058 
L 172.436803 28.723827 
L 173.642126 28.731103 
L 176.052771 28.94329 
L 177.258094 28.962596 
L 180.874063 28.625654 
L 182.079385 28.851881 
L 183.284708 28.575802 
L 188.106 28.489988 
L 189.311322 28.667835 
L 192.927291 28.687472 
L 195.337937 28.977809 
L 197.748582 28.97264 
L 198.953905 29.216901 
L 201.364551 29.417877 
L 204.980519 29.533498 
L 207.391165 29.819744 
L 209.80181 29.593472 
L 212.212456 29.904996 
L 213.417779 29.730839 
L 214.623102 29.682613 
L 217.033747 29.813582 
L 218.23907 29.46906 
L 223.060362 29.475071 
L 225.471007 29.679443 
L 227.881653 29.936197 
L 229.086976 29.852699 
L 235.11359 30.150907 
L 236.318913 29.85249 
L 238.729558 29.860133 
L 239.934881 30.037584 
L 241.140204 30.04605 
L 244.756173 29.59275 
L 249.577464 30.074788 
L 254.398755 29.784524 
L 258.014724 29.783024 
L 259.220047 29.692732 
L 264.041338 30.072127 
L 273.683921 29.375389 
L 277.299889 29.54613 
L 279.710535 29.681061 
L 280.915858 29.553168 
L 286.942472 29.656657 
L 289.353117 29.535084 
L 290.55844 29.373557 
L 294.174409 29.529203 
L 296.585054 29.467339 
L 300.201023 29.609633 
L 301.406346 29.30212 
L 302.611668 29.212821 
L 303.816991 29.307932 
L 306.227637 29.318851 
L 312.254251 29.445806 
L 313.459574 29.202909 
L 315.87022 29.265367 
L 317.075542 29.139598 
L 318.280865 29.265549 
L 320.691511 29.163751 
L 321.896834 29.055201 
L 327.923448 29.096323 
L 330.334094 29.063965 
L 331.539416 29.161583 
L 332.744739 29.092286 
L 335.155385 29.204306 
L 337.566031 29.152959 
L 339.976676 29.266351 
L 341.181999 29.05723 
L 344.797968 28.872555 
L 348.413936 28.958696 
L 350.824582 28.679774 
L 352.029905 28.675333 
L 353.235227 28.800594 
L 354.44055 28.669891 
L 355.645873 28.675512 
L 356.851196 28.472475 
L 359.261842 28.570027 
L 361.672487 28.394727 
L 364.083133 28.515446 
L 366.493778 28.407617 
L 368.904424 28.418788 
L 374.931038 28.327242 
L 377.341684 28.42887 
L 397.832172 28.429784 
L 399.037495 28.328413 
L 401.448141 28.32269 
L 409.8854 28.057989 
L 413.501369 28.055273 
L 415.912015 28.000864 
L 421.938629 28.180014 
L 424.349274 28.09337 
L 425.554597 28.202663 
L 446.045085 28.104512 
L 459.303636 28.168363 
L 462.919605 28.103652 
L 464.124928 28.033268 
L 466.535573 28.154615 
L 468.946219 28.074198 
L 473.76751 28.146447 
L 474.972833 28.071041 
L 477.383479 28.043432 
L 479.794125 27.932243 
L 484.615416 28.045514 
L 488.231384 27.975811 
L 491.847353 28.093631 
L 493.052676 28.00777 
L 495.463321 28.02187 
L 503.900581 27.798421 
L 509.927195 27.674588 
L 513.543164 27.810978 
L 515.95381 27.714286 
L 515.95381 27.714286 
" clip-path="url(#pbe23043088)" style="fill: none; stroke: #4169e1; stroke-width: 1.5; stroke-linecap: square"/>
   </g>
   <g id="line2d_26">
    <path d="M 35.03 97 
L 36.235323 56.570542 
L 37.440646 64.677457 
L 38.645968 68.512753 
L 39.851291 69.155715 
L 41.056614 68.586107 
L 42.261937 72.621037 
L 44.672583 68.539764 
L 45.877905 61.953528 
L 47.083228 63.575339 
L 48.288551 61.355406 
L 49.493874 53.361172 
L 50.699197 52.549781 
L 53.109842 56.467812 
L 54.315165 58.742708 
L 55.520488 55.460022 
L 56.725811 55.381705 
L 57.931134 56.632574 
L 59.136457 58.283537 
L 60.341779 59.193919 
L 61.547102 59.836763 
L 62.752425 60.758363 
L 63.957748 61.951923 
L 65.163071 58.839185 
L 66.368394 58.473343 
L 67.573716 58.25652 
L 68.779039 57.147588 
L 69.984362 52.409792 
L 71.189685 52.594625 
L 72.395008 53.506259 
L 73.600331 54.807041 
L 76.010976 56.960091 
L 77.216299 57.685751 
L 78.421622 58.163493 
L 79.626945 59.128394 
L 80.832268 59.845925 
L 82.03759 59.169499 
L 83.242913 57.518297 
L 85.653559 59.348539 
L 86.858882 59.837011 
L 88.064205 53.343444 
L 89.269527 52.305378 
L 90.47485 53.221467 
L 91.680173 52.122983 
L 92.885496 52.527409 
L 94.090819 51.889806 
L 95.296142 52.773574 
L 96.501464 51.697893 
L 97.706787 52.120105 
L 98.91211 51.77575 
L 100.117433 52.203192 
L 101.322756 51.502061 
L 102.528079 51.573788 
L 103.733401 52.293346 
L 104.938724 47.715731 
L 106.144047 48.112702 
L 107.34937 42.556987 
L 108.554693 43.204211 
L 109.760016 41.630708 
L 110.965338 42.495737 
L 112.170661 40.732787 
L 113.375984 40.697556 
L 114.581307 39.541725 
L 115.78663 40.231494 
L 116.991953 39.441049 
L 119.402598 40.2998 
L 120.607921 41.059867 
L 121.813244 40.401916 
L 123.018567 36.894714 
L 124.223889 37.672981 
L 126.634535 38.843194 
L 127.839858 38.613431 
L 130.250504 40.054042 
L 131.455826 40.241345 
L 135.071795 41.859098 
L 136.277118 40.667246 
L 138.687763 41.869414 
L 141.098409 39.285069 
L 144.714378 40.281869 
L 145.9197 40.884272 
L 147.125023 39.589251 
L 148.330346 37.976569 
L 149.535669 38.269654 
L 153.151637 39.969222 
L 154.35696 40.285786 
L 155.562283 40.020274 
L 157.972929 38.863942 
L 159.178252 39.39263 
L 160.383574 38.308107 
L 161.588897 38.309627 
L 162.79422 38.767586 
L 163.999543 38.590913 
L 165.204866 37.829407 
L 166.410189 38.36566 
L 167.615511 38.683687 
L 168.820834 38.396861 
L 170.026157 38.844265 
L 171.23148 38.912541 
L 172.436803 38.683741 
L 173.642126 39.185206 
L 174.847448 39.265008 
L 176.052771 39.59549 
L 177.258094 40.068764 
L 179.66874 40.244759 
L 180.874063 40.516198 
L 182.079385 39.681161 
L 183.284708 38.20009 
L 185.695354 39.102202 
L 186.900677 39.270799 
L 188.106 39.669235 
L 189.311322 39.27444 
L 192.927291 40.508859 
L 195.337937 40.196361 
L 197.748582 40.96376 
L 198.953905 39.690804 
L 201.364551 39.93837 
L 202.569873 40.342658 
L 203.775196 40.401822 
L 204.980519 40.799993 
L 206.185842 40.443241 
L 208.596488 40.251114 
L 209.80181 40.357935 
L 211.007133 40.119555 
L 213.417779 39.098641 
L 214.623102 39.412818 
L 215.828425 39.376801 
L 217.033747 39.748757 
L 218.23907 36.383132 
L 219.444393 36.773832 
L 220.649716 37.009636 
L 223.060362 37.643538 
L 224.265684 37.865436 
L 225.471007 37.634853 
L 226.67633 37.242765 
L 227.881653 37.251126 
L 229.086976 37.387272 
L 230.292299 37.675628 
L 231.497621 37.561759 
L 233.908267 37.726741 
L 235.11359 37.546149 
L 236.318913 34.817323 
L 238.729558 35.34655 
L 239.934881 34.597471 
L 241.140204 34.957736 
L 242.345527 34.348683 
L 243.55085 34.383269 
L 244.756173 33.393616 
L 245.961495 33.112073 
L 247.166818 32.109898 
L 248.372141 32.059697 
L 249.577464 32.332861 
L 251.98811 32.445515 
L 253.193432 31.979026 
L 258.014724 33.290896 
L 260.425369 33.280942 
L 261.630692 33.066207 
L 262.836015 33.33327 
L 264.041338 33.100129 
L 265.246661 33.084513 
L 266.451984 33.278636 
L 267.657306 31.590398 
L 268.862629 31.867143 
L 270.067952 31.343631 
L 271.273275 31.676639 
L 272.478598 31.383732 
L 273.683921 31.709419 
L 274.889243 31.726955 
L 276.094566 32.038834 
L 279.710535 32.39256 
L 280.915858 32.016053 
L 288.147794 33.57009 
L 289.353117 33.524757 
L 290.55844 32.676193 
L 291.763763 32.626924 
L 292.969086 32.732721 
L 294.174409 33.03024 
L 295.379731 33.137441 
L 296.585054 33.43002 
L 297.790377 33.405234 
L 298.9957 33.678949 
L 300.201023 33.69379 
L 301.406346 29.646915 
L 303.816991 29.464803 
L 307.43296 30.121122 
L 309.843605 30.444694 
L 312.254251 30.993846 
L 313.459574 28.453275 
L 314.664897 28.399516 
L 315.87022 28.668006 
L 318.280865 27.710328 
L 319.486188 27.999939 
L 320.691511 27.852989 
L 321.896834 27.560999 
L 325.512802 28.349747 
L 326.718125 28.373473 
L 330.334094 29.029012 
L 331.539416 28.818282 
L 333.950062 28.810971 
L 335.155385 29.022806 
L 336.360708 29.100969 
L 337.566031 29.365588 
L 338.771353 29.076238 
L 339.976676 29.338242 
L 341.181999 27.301093 
L 342.387322 27.214701 
L 348.413936 27.916681 
L 349.619259 26.168324 
L 350.824582 26.03527 
L 352.029905 26.303001 
L 354.44055 25.040757 
L 355.645873 25.308525 
L 356.851196 23.29448 
L 359.261842 23.576052 
L 360.467164 23.290892 
L 362.87781 23.291215 
L 364.083133 23.367834 
L 365.288456 23.283964 
L 371.31507 24.288344 
L 372.520393 24.203251 
L 379.75233 25.186591 
L 386.984267 26.471942 
L 388.189589 26.343055 
L 390.600235 26.808253 
L 391.805558 26.676332 
L 393.010881 26.785034 
L 394.216204 26.735624 
L 396.626849 27.117711 
L 397.832172 27.065699 
L 399.037495 26.653219 
L 402.653463 26.903488 
L 403.858786 26.086689 
L 406.269432 26.456455 
L 407.474755 24.991538 
L 408.680078 25.214561 
L 409.8854 25.256777 
L 413.501369 25.715994 
L 417.117337 26.156806 
L 418.32266 26.034254 
L 419.527983 26.120813 
L 420.733306 25.938035 
L 423.143952 25.920376 
L 424.349274 26.093077 
L 425.554597 25.509009 
L 427.965243 25.835999 
L 429.170566 25.986602 
L 430.375889 25.993807 
L 431.581211 25.612292 
L 433.991857 25.88877 
L 435.19718 26.074985 
L 436.402503 25.909232 
L 441.223794 26.720205 
L 443.63444 26.75612 
L 444.839763 26.957969 
L 446.045085 27.016643 
L 448.455731 27.397765 
L 449.661054 27.420236 
L 455.687668 28.361754 
L 458.098314 28.412499 
L 461.714282 28.867666 
L 462.919605 28.208693 
L 465.330251 27.817808 
L 466.535573 27.847605 
L 467.740896 27.675324 
L 471.356865 28.12161 
L 473.76751 28.451606 
L 474.972833 28.208697 
L 476.178156 28.280185 
L 478.588802 27.971961 
L 484.615416 28.264876 
L 488.231384 28.662593 
L 489.436707 28.479187 
L 491.847353 28.742947 
L 493.052676 28.341409 
L 496.668644 28.503633 
L 499.07929 28.808997 
L 500.284613 28.737633 
L 501.489936 28.233069 
L 505.105904 28.534269 
L 507.51655 28.798456 
L 508.721873 27.7672 
L 509.927195 27.918037 
L 511.132518 27.825798 
L 512.337841 27.976695 
L 514.748487 27.600633 
L 515.95381 27.714286 
L 515.95381 27.714286 
" clip-path="url(#pbe23043088)" style="fill: none; stroke-dasharray: 5.55,2.4; stroke-dashoffset: 0; stroke: #4169e1; stroke-width: 1.5"/>
   </g>
   <g id="line2d_27">
    <path d="M 35.03 18.153877 
L 36.235323 27.857688 
L 37.440646 29.078174 
L 38.645968 31.718857 
L 41.056614 27.155987 
L 42.261937 28.267488 
L 43.46726 30.814017 
L 44.672583 28.756708 
L 45.877905 30.726471 
L 47.083228 30.027045 
L 48.288551 28.682487 
L 49.493874 30.565328 
L 50.699197 31.760905 
L 51.90452 30.840079 
L 53.109842 31.307396 
L 54.315165 31.493075 
L 55.520488 30.168858 
L 56.725811 29.250572 
L 57.931134 28.481054 
L 59.136457 28.46533 
L 60.341779 28.661341 
L 61.547102 29.28517 
L 62.752425 28.98998 
L 63.957748 29.26225 
L 65.163071 30.05386 
L 66.368394 29.583731 
L 68.779039 30.539758 
L 69.984362 29.554174 
L 71.189685 29.895303 
L 72.395008 29.641945 
L 76.010976 29.296567 
L 77.216299 29.396235 
L 78.421622 29.148643 
L 79.626945 29.275336 
L 82.03759 28.619441 
L 83.242913 29.159536 
L 84.448236 29.03372 
L 85.653559 29.024135 
L 86.858882 29.143283 
L 88.064205 28.195521 
L 89.269527 27.869635 
L 90.47485 27.721069 
L 91.680173 27.198635 
L 92.885496 27.357989 
L 94.090819 27.682447 
L 95.296142 27.700162 
L 96.501464 28.084466 
L 97.706787 27.902318 
L 98.91211 27.606801 
L 100.117433 27.551108 
L 102.528079 28.005833 
L 103.733401 27.92676 
L 104.938724 27.322908 
L 106.144047 27.157123 
L 107.34937 26.524913 
L 108.554693 26.421514 
L 109.760016 26.786601 
L 110.965338 26.718916 
L 112.170661 27.134905 
L 113.375984 26.912066 
L 114.581307 27.33202 
L 115.78663 27.412881 
L 116.991953 27.057263 
L 118.197275 27.32634 
L 119.402598 27.127834 
L 120.607921 27.07323 
L 121.813244 27.334546 
L 123.018567 26.826316 
L 124.223889 26.882024 
L 125.429212 26.754834 
L 126.634535 26.838898 
L 127.839858 26.597243 
L 130.250504 26.548153 
L 131.455826 26.746139 
L 132.661149 26.684361 
L 135.071795 26.705016 
L 136.277118 27.003187 
L 137.482441 27.088042 
L 138.687763 27.026694 
L 139.893086 26.744401 
L 141.098409 27.076942 
L 143.509055 27.289123 
L 144.714378 27.09658 
L 145.9197 27.142383 
L 148.330346 27.709389 
L 150.740992 27.775919 
L 154.35696 27.870945 
L 163.999543 29.232537 
L 165.204866 28.99795 
L 170.026157 28.96501 
L 171.23148 29.082733 
L 172.436803 28.852402 
L 173.642126 28.846047 
L 176.052771 28.998004 
L 178.463417 28.874422 
L 180.874063 28.678012 
L 182.079385 28.899325 
L 183.284708 28.598754 
L 186.900677 28.427236 
L 188.106 28.464798 
L 189.311322 28.629706 
L 192.927291 28.619989 
L 196.543259 28.883335 
L 197.748582 28.919909 
L 200.159228 29.239149 
L 203.775196 29.478377 
L 204.980519 29.475129 
L 207.391165 29.773938 
L 209.80181 29.582883 
L 212.212456 29.870058 
L 213.417779 29.642948 
L 214.623102 29.583861 
L 215.828425 29.691588 
L 217.033747 29.682805 
L 218.23907 29.463435 
L 223.060362 29.519172 
L 229.086976 29.875433 
L 235.11359 30.08961 
L 236.318913 29.832006 
L 237.524236 29.751562 
L 238.729558 29.812362 
L 239.934881 29.987729 
L 241.140204 29.997131 
L 244.756173 29.578582 
L 249.577464 30.056116 
L 259.220047 29.667497 
L 264.041338 30.006547 
L 273.683921 29.355928 
L 277.299889 29.561729 
L 280.915858 29.58731 
L 286.942472 29.652083 
L 289.353117 29.526162 
L 290.55844 29.404408 
L 292.969086 29.554362 
L 298.9957 29.55867 
L 300.201023 29.619858 
L 301.406346 29.332397 
L 302.611668 29.287163 
L 303.816991 29.374929 
L 306.227637 29.368621 
L 312.254251 29.508483 
L 313.459574 29.303077 
L 315.87022 29.327998 
L 317.075542 29.206107 
L 318.280865 29.321143 
L 319.486188 29.30858 
L 321.896834 29.086402 
L 327.923448 29.114215 
L 330.334094 29.085573 
L 331.539416 29.186325 
L 332.744739 29.109246 
L 335.155385 29.207727 
L 336.360708 29.126681 
L 339.976676 29.28139 
L 342.387322 29.007869 
L 347.208613 28.917311 
L 348.413936 28.985445 
L 350.824582 28.76055 
L 352.029905 28.760119 
L 353.235227 28.886226 
L 354.44055 28.735691 
L 355.645873 28.715712 
L 356.851196 28.524926 
L 359.261842 28.611948 
L 361.672487 28.424885 
L 364.083133 28.532785 
L 366.493778 28.426379 
L 368.904424 28.43786 
L 372.520393 28.288907 
L 382.162975 28.485521 
L 385.778944 28.407647 
L 393.010881 28.48418 
L 395.421526 28.446307 
L 397.832172 28.437556 
L 399.037495 28.330986 
L 401.448141 28.316887 
L 408.680078 28.003305 
L 412.296046 28.109157 
L 415.912015 28.011308 
L 427.965243 28.225011 
L 430.375889 28.137793 
L 431.581211 28.235786 
L 440.018471 28.06926 
L 461.714282 28.24437 
L 464.124928 28.059244 
L 466.535573 28.176764 
L 468.946219 28.084157 
L 473.76751 28.15633 
L 474.972833 28.075869 
L 477.383479 28.056371 
L 479.794125 27.966468 
L 484.615416 28.065716 
L 488.231384 28.010881 
L 491.847353 28.115037 
L 493.052676 28.027233 
L 495.463321 28.024808 
L 497.873967 27.974241 
L 500.284613 27.959449 
L 502.695258 27.834811 
L 507.51655 27.798533 
L 508.721873 27.691055 
L 515.95381 27.714286 
L 515.95381 27.714286 
" clip-path="url(#pbe23043088)" style="fill: none; stroke: #ff8c00; stroke-width: 1.5; stroke-linecap: square"/>
   </g>
   <g id="line2d_28">
    <path d="M 35.03 97 
L 36.235323 75.20378 
L 37.440646 81.779596 
L 38.645968 80.742412 
L 39.851291 79.457322 
L 41.056614 75.993257 
L 42.261937 77.278418 
L 43.46726 69.236297 
L 45.877905 59.652257 
L 47.083228 61.915158 
L 48.288551 60.235813 
L 49.493874 53.216803 
L 50.699197 52.042918 
L 51.90452 52.292291 
L 53.109842 54.328275 
L 54.315165 56.710692 
L 55.520488 52.048755 
L 56.725811 50.901236 
L 57.931134 50.601894 
L 59.136457 52.810183 
L 60.341779 54.632054 
L 61.547102 54.492381 
L 63.957748 57.035824 
L 65.163071 54.946644 
L 67.573716 55.352584 
L 68.779039 55.185952 
L 69.984362 50.059232 
L 71.189685 50.765366 
L 72.395008 51.749595 
L 73.600331 52.987706 
L 76.010976 55.271152 
L 77.216299 56.34981 
L 78.421622 56.937642 
L 79.626945 57.854446 
L 82.03759 57.918146 
L 83.242913 56.170527 
L 86.858882 58.668784 
L 88.064205 50.372142 
L 89.269527 50.279572 
L 90.47485 51.038612 
L 91.680173 49.026814 
L 92.885496 49.723718 
L 94.090819 49.475231 
L 95.296142 50.403457 
L 96.501464 49.556061 
L 97.706787 50.051882 
L 98.91211 49.849929 
L 100.117433 50.668434 
L 102.528079 50.977221 
L 103.733401 51.688222 
L 104.938724 47.560859 
L 106.144047 48.009492 
L 107.34937 43.261613 
L 108.554693 43.977404 
L 109.760016 42.906177 
L 110.965338 43.684585 
L 112.170661 41.941283 
L 113.375984 42.028383 
L 114.581307 40.154563 
L 115.78663 40.889124 
L 116.991953 39.711783 
L 118.197275 39.373812 
L 119.402598 39.546978 
L 120.607921 40.295935 
L 121.813244 39.934654 
L 123.018567 36.341263 
L 124.223889 37.096889 
L 125.429212 37.604245 
L 126.634535 38.251301 
L 127.839858 37.963666 
L 130.250504 39.417284 
L 131.455826 39.402317 
L 135.071795 41.315806 
L 136.277118 40.242272 
L 138.687763 41.332086 
L 139.893086 40.359896 
L 141.098409 38.74377 
L 143.509055 39.558649 
L 144.714378 39.402116 
L 145.9197 39.976774 
L 147.125023 39.119397 
L 148.330346 37.688353 
L 149.535669 38.136801 
L 153.151637 39.879296 
L 154.35696 40.274016 
L 155.562283 40.186059 
L 157.972929 39.221079 
L 159.178252 39.732068 
L 160.383574 37.900107 
L 162.79422 38.349484 
L 163.999543 38.056263 
L 165.204866 37.221322 
L 166.410189 37.761962 
L 167.615511 38.050199 
L 168.820834 37.734513 
L 171.23148 38.127101 
L 172.436803 37.239112 
L 173.642126 37.753217 
L 174.847448 37.888236 
L 177.258094 38.816136 
L 178.463417 39.085942 
L 179.66874 39.047039 
L 180.874063 39.421534 
L 182.079385 38.5065 
L 183.284708 36.406068 
L 184.490031 36.717885 
L 185.695354 37.19397 
L 186.900677 37.454685 
L 188.106 37.878404 
L 189.311322 37.530986 
L 191.721968 38.349726 
L 192.927291 38.705581 
L 194.132614 38.750532 
L 195.337937 38.37065 
L 197.748582 39.186017 
L 198.953905 38.201642 
L 201.364551 38.292556 
L 202.569873 38.70777 
L 203.775196 38.673108 
L 204.980519 39.083517 
L 206.185842 38.628064 
L 208.596488 38.236617 
L 209.80181 38.521482 
L 211.007133 38.366162 
L 212.212456 37.899522 
L 213.417779 36.529193 
L 214.623102 36.81192 
L 215.828425 36.807574 
L 217.033747 37.20088 
L 218.23907 35.898575 
L 221.855039 36.992467 
L 223.060362 37.301444 
L 224.265684 37.393743 
L 226.67633 36.744371 
L 231.497621 37.277983 
L 232.702944 37.239351 
L 233.908267 37.373651 
L 235.11359 37.391069 
L 236.318913 35.180708 
L 238.729558 35.513216 
L 239.934881 34.66264 
L 241.140204 35.021568 
L 245.961495 33.383443 
L 247.166818 32.390593 
L 248.372141 32.371282 
L 251.98811 32.872385 
L 253.193432 32.452934 
L 256.809401 33.395424 
L 258.014724 33.734754 
L 260.425369 33.892707 
L 261.630692 33.825371 
L 262.836015 34.101211 
L 264.041338 33.750522 
L 265.246661 33.76944 
L 266.451984 33.985799 
L 267.657306 32.241665 
L 268.862629 32.504374 
L 270.067952 31.963195 
L 271.273275 32.287119 
L 272.478598 32.094456 
L 273.683921 32.383695 
L 274.889243 32.292892 
L 278.505212 32.876847 
L 279.710535 32.792715 
L 280.915858 32.552417 
L 288.147794 34.211156 
L 289.353117 34.097402 
L 290.55844 33.66528 
L 291.763763 33.558016 
L 292.969086 33.677615 
L 294.174409 33.967175 
L 295.379731 33.963263 
L 296.585054 34.228038 
L 297.790377 34.259078 
L 298.9957 34.543586 
L 300.201023 34.635534 
L 301.406346 30.68929 
L 302.611668 30.881507 
L 303.816991 30.779073 
L 307.43296 31.496874 
L 309.843605 31.674781 
L 312.254251 32.227928 
L 313.459574 30.251154 
L 314.664897 30.301011 
L 315.87022 30.493352 
L 318.280865 29.53581 
L 319.486188 29.811847 
L 320.691511 29.236002 
L 321.896834 29.000048 
L 323.102157 29.268365 
L 324.307479 29.396068 
L 325.512802 29.675414 
L 326.718125 29.688331 
L 327.923448 29.962681 
L 330.334094 30.357327 
L 331.539416 30.049122 
L 333.950062 29.904552 
L 335.155385 30.147352 
L 336.360708 30.033588 
L 337.566031 30.24036 
L 338.771353 29.838521 
L 339.976676 30.087906 
L 341.181999 28.235867 
L 342.387322 28.089193 
L 343.592645 28.230143 
L 344.797968 28.230161 
L 347.208613 28.70977 
L 348.413936 28.692036 
L 349.619259 27.67046 
L 350.824582 27.5536 
L 352.029905 27.816643 
L 353.235227 27.105901 
L 354.44055 25.978653 
L 355.645873 26.220072 
L 356.851196 24.234593 
L 359.261842 24.528278 
L 361.672487 23.967434 
L 364.083133 24.132081 
L 365.288456 23.831106 
L 367.699101 24.235383 
L 368.904424 24.435741 
L 370.109747 24.417162 
L 372.520393 24.696989 
L 374.931038 25.092457 
L 376.136361 25.056936 
L 382.162975 26.07768 
L 383.368298 26.153162 
L 386.984267 26.76795 
L 388.189589 26.647141 
L 390.600235 27.101455 
L 391.805558 26.983283 
L 393.010881 27.11795 
L 394.216204 27.012401 
L 397.832172 27.490836 
L 399.037495 26.926323 
L 401.448141 27.085511 
L 402.653463 27.091596 
L 403.858786 26.157122 
L 406.269432 26.593033 
L 407.474755 25.277833 
L 408.680078 25.502607 
L 411.090723 25.629571 
L 412.296046 25.847866 
L 414.706692 25.991437 
L 417.117337 26.361503 
L 418.32266 26.27578 
L 419.527983 26.364294 
L 420.733306 25.913247 
L 421.938629 25.861671 
L 424.349274 26.208439 
L 425.554597 25.670445 
L 426.75992 25.832069 
L 430.375889 26.00816 
L 431.581211 25.492012 
L 433.991857 25.819515 
L 435.19718 25.972511 
L 436.402503 25.723829 
L 441.223794 26.515599 
L 442.429117 26.501796 
L 450.866377 27.435962 
L 455.687668 28.130467 
L 459.303636 28.383564 
L 460.508959 28.575516 
L 461.714282 28.621257 
L 462.919605 27.922123 
L 464.124928 27.575196 
L 465.330251 27.350283 
L 466.535573 27.366451 
L 467.740896 27.205482 
L 473.76751 27.96825 
L 474.972833 27.609889 
L 476.178156 27.677741 
L 478.588802 27.52321 
L 487.026062 28.160306 
L 488.231384 28.341194 
L 489.436707 28.146672 
L 491.847353 28.442763 
L 493.052676 27.944588 
L 495.463321 28.135389 
L 496.668644 28.083893 
L 499.07929 28.3712 
L 500.284613 28.385107 
L 501.489936 27.850121 
L 505.105904 28.125326 
L 507.51655 28.356469 
L 508.721873 27.479864 
L 509.927195 27.638393 
L 511.132518 27.658864 
L 512.337841 27.813599 
L 513.543164 27.795782 
L 514.748487 27.634965 
L 515.95381 27.714286 
L 515.95381 27.714286 
" clip-path="url(#pbe23043088)" style="fill: none; stroke-dasharray: 5.55,2.4; stroke-dashoffset: 0; stroke: #ff8c00; stroke-width: 1.5"/>
   </g>
   <g id="patch_3">
    <path d="M 35.03 97 
L 35.03 0 
" style="fill: none; stroke: #000000; stroke-width: 0.8; stroke-linejoin: miter; stroke-linecap: square"/>
   </g>
   <g id="patch_4">
    <path d="M 540 97 
L 540 0 
" style="fill: none; stroke: #000000; stroke-width: 0.8; stroke-linejoin: miter; stroke-linecap: square"/>
   </g>
   <g id="patch_5">
    <path d="M 35.03 97 
L 540 97 
" style="fill: none; stroke: #000000; stroke-width: 0.8; stroke-linejoin: miter; stroke-linecap: square"/>
   </g>
   <g id="patch_6">
    <path d="M 35.03 0 
L 540 0 
" style="fill: none; stroke: #000000; stroke-width: 0.8; stroke-linejoin: miter; stroke-linecap: square"/>
   </g>
  </g>
 </g>
 <defs>
  <clipPath id="pbe23043088">
   <rect x="35.03" y="0" width="504.97" height="97"/>
  </clipPath>
 </defs>
</svg>
