<?xml version="1.0" encoding="utf-8" standalone="no"?>
<!DOCTYPE svg PUBLIC "-//W3C//DTD SVG 1.1//EN"
  "http://www.w3.org/Graphics/SVG/1.1/DTD/svg11.dtd">
<svg xmlns:xlink="http://www.w3.org/1999/xlink" width="540pt" height="129.6pt" viewBox="0 0 540 129.6" xmlns="http://www.w3.org/2000/svg" version="1.1">
 <metadata>
  <rdf:RDF xmlns:dc="http://purl.org/dc/elements/1.1/" xmlns:cc="http://creativecommons.org/ns#" xmlns:rdf="http://www.w3.org/1999/02/22-rdf-syntax-ns#">
   <cc:Work>
    <dc:type rdf:resource="http://purl.org/dc/dcmitype/StillImage"/>
    <dc:date>2025-03-23T16:30:08.020629</dc:date>
    <dc:format>image/svg+xml</dc:format>
    <dc:creator>
     <cc:Agent>
      <dc:title>Matplotlib v3.8.3, https://matplotlib.org/</dc:title>
     </cc:Agent>
    </dc:creator>
   </cc:Work>
  </rdf:RDF>
 </metadata>
 <defs>
  <style type="text/css">*{stroke-linejoin: round; stroke-linecap: butt}</style>
 </defs>
 <g id="figure_1">
  <g id="patch_1">
   <path d="M 0 129.6 
L 540 129.6 
L 540 0 
L 0 0 
z
" style="fill: #ffffff"/>
  </g>
  <g id="axes_1">
   <g id="patch_2">
    <path d="M 35.12 97 
L 540 97 
L 540 0 
L 35.12 0 
z
" style="fill: #ffffff"/>
   </g>
   <g id="matplotlib.axis_1">
    <g id="xtick_1">
     <g id="line2d_1">
      <path d="M 35.12 97 
L 35.12 0 
" clip-path="url(#p0476be2960)" style="fill: none; stroke: #b0b0b0; stroke-width: 0.8; stroke-linecap: square"/>
     </g>
     <g id="line2d_2">
      <defs>
       <path id="md5780e05eb" d="M 0 0 
L 0 3.5 
" style="stroke: #000000; stroke-width: 0.8"/>
      </defs>
      <g>
       <use xlink:href="#md5780e05eb" x="35.12" y="97" style="stroke: #000000; stroke-width: 0.8"/>
      </g>
     </g>
     <g id="text_1">
      <text style="font: 10px 'Times New Roman'; text-anchor: middle" x="35.12" y="110.94375" transform="rotate(-0 35.12 110.94375)">0</text>
     </g>
    </g>
    <g id="xtick_2">
     <g id="line2d_3">
      <path d="M 95.3754 97 
L 95.3754 0 
" clip-path="url(#p0476be2960)" style="fill: none; stroke: #b0b0b0; stroke-width: 0.8; stroke-linecap: square"/>
     </g>
     <g id="line2d_4">
      <g>
       <use xlink:href="#md5780e05eb" x="95.3754" y="97" style="stroke: #000000; stroke-width: 0.8"/>
      </g>
     </g>
     <g id="text_2">
      <text style="font: 10px 'Times New Roman'; text-anchor: middle" x="95.3754" y="110.94375" transform="rotate(-0 95.3754 110.94375)">50</text>
     </g>
    </g>
    <g id="xtick_3">
     <g id="line2d_5">
      <path d="M 155.630801 97 
L 155.630801 0 
" clip-path="url(#p0476be2960)" style="fill: none; stroke: #b0b0b0; stroke-width: 0.8; stroke-linecap: square"/>
     </g>
     <g id="line2d_6">
      <g>
       <use xlink:href="#md5780e05eb" x="155.630801" y="97" style="stroke: #000000; stroke-width: 0.8"/>
      </g>
     </g>
     <g id="text_3">
      <text style="font: 10px 'Times New Roman'; text-anchor: middle" x="155.630801" y="110.94375" transform="rotate(-0 155.630801 110.94375)">100</text>
     </g>
    </g>
    <g id="xtick_4">
     <g id="line2d_7">
      <path d="M 215.886201 97 
L 215.886201 0 
" clip-path="url(#p0476be2960)" style="fill: none; stroke: #b0b0b0; stroke-width: 0.8; stroke-linecap: square"/>
     </g>
     <g id="line2d_8">
      <g>
       <use xlink:href="#md5780e05eb" x="215.886201" y="97" style="stroke: #000000; stroke-width: 0.8"/>
      </g>
     </g>
     <g id="text_4">
      <text style="font: 10px 'Times New Roman'; text-anchor: middle" x="215.886201" y="110.94375" transform="rotate(-0 215.886201 110.94375)">150</text>
     </g>
    </g>
    <g id="xtick_5">
     <g id="line2d_9">
      <path d="M 276.141602 97 
L 276.141602 0 
" clip-path="url(#p0476be2960)" style="fill: none; stroke: #b0b0b0; stroke-width: 0.8; stroke-linecap: square"/>
     </g>
     <g id="line2d_10">
      <g>
       <use xlink:href="#md5780e05eb" x="276.141602" y="97" style="stroke: #000000; stroke-width: 0.8"/>
      </g>
     </g>
     <g id="text_5">
      <text style="font: 10px 'Times New Roman'; text-anchor: middle" x="276.141602" y="110.94375" transform="rotate(-0 276.141602 110.94375)">200</text>
     </g>
    </g>
    <g id="xtick_6">
     <g id="line2d_11">
      <path d="M 336.397002 97 
L 336.397002 0 
" clip-path="url(#p0476be2960)" style="fill: none; stroke: #b0b0b0; stroke-width: 0.8; stroke-linecap: square"/>
     </g>
     <g id="line2d_12">
      <g>
       <use xlink:href="#md5780e05eb" x="336.397002" y="97" style="stroke: #000000; stroke-width: 0.8"/>
      </g>
     </g>
     <g id="text_6">
      <text style="font: 10px 'Times New Roman'; text-anchor: middle" x="336.397002" y="110.94375" transform="rotate(-0 336.397002 110.94375)">250</text>
     </g>
    </g>
    <g id="xtick_7">
     <g id="line2d_13">
      <path d="M 396.652402 97 
L 396.652402 0 
" clip-path="url(#p0476be2960)" style="fill: none; stroke: #b0b0b0; stroke-width: 0.8; stroke-linecap: square"/>
     </g>
     <g id="line2d_14">
      <g>
       <use xlink:href="#md5780e05eb" x="396.652402" y="97" style="stroke: #000000; stroke-width: 0.8"/>
      </g>
     </g>
     <g id="text_7">
      <text style="font: 10px 'Times New Roman'; text-anchor: middle" x="396.652402" y="110.94375" transform="rotate(-0 396.652402 110.94375)">300</text>
     </g>
    </g>
    <g id="xtick_8">
     <g id="line2d_15">
      <path d="M 456.907803 97 
L 456.907803 0 
" clip-path="url(#p0476be2960)" style="fill: none; stroke: #b0b0b0; stroke-width: 0.8; stroke-linecap: square"/>
     </g>
     <g id="line2d_16">
      <g>
       <use xlink:href="#md5780e05eb" x="456.907803" y="97" style="stroke: #000000; stroke-width: 0.8"/>
      </g>
     </g>
     <g id="text_8">
      <text style="font: 10px 'Times New Roman'; text-anchor: middle" x="456.907803" y="110.94375" transform="rotate(-0 456.907803 110.94375)">350</text>
     </g>
    </g>
    <g id="xtick_9">
     <g id="line2d_17">
      <path d="M 517.163203 97 
L 517.163203 0 
" clip-path="url(#p0476be2960)" style="fill: none; stroke: #b0b0b0; stroke-width: 0.8; stroke-linecap: square"/>
     </g>
     <g id="line2d_18">
      <g>
       <use xlink:href="#md5780e05eb" x="517.163203" y="97" style="stroke: #000000; stroke-width: 0.8"/>
      </g>
     </g>
     <g id="text_9">
      <text style="font: 10px 'Times New Roman'; text-anchor: middle" x="517.163203" y="110.94375" transform="rotate(-0 517.163203 110.94375)">400</text>
     </g>
    </g>
    <g id="text_10">
     <text style="font: 12px 'Times New Roman'; text-anchor: middle" x="287.56" y="125.415312" transform="rotate(-0 287.56 125.415312)">Simulation Run</text>
    </g>
   </g>
   <g id="matplotlib.axis_2">
    <g id="ytick_1">
     <g id="line2d_19">
      <path d="M 35.12 97 
L 540 97 
" clip-path="url(#p0476be2960)" style="fill: none; stroke: #b0b0b0; stroke-width: 0.8; stroke-linecap: square"/>
     </g>
     <g id="line2d_20">
      <defs>
       <path id="m05c68ce0f7" d="M 0 0 
L -3.5 0 
" style="stroke: #000000; stroke-width: 0.8"/>
      </defs>
      <g>
       <use xlink:href="#m05c68ce0f7" x="35.12" y="97" style="stroke: #000000; stroke-width: 0.8"/>
      </g>
     </g>
     <g id="text_11">
      <text style="font: 10px 'Times New Roman'; text-anchor: end" x="28.12" y="100.471875" transform="rotate(-0 28.12 100.471875)">0.0</text>
     </g>
    </g>
    <g id="ytick_2">
     <g id="line2d_21">
      <path d="M 35.12 66.6875 
L 540 66.6875 
" clip-path="url(#p0476be2960)" style="fill: none; stroke: #b0b0b0; stroke-width: 0.8; stroke-linecap: square"/>
     </g>
     <g id="line2d_22">
      <g>
       <use xlink:href="#m05c68ce0f7" x="35.12" y="66.6875" style="stroke: #000000; stroke-width: 0.8"/>
      </g>
     </g>
     <g id="text_12">
      <text style="font: 10px 'Times New Roman'; text-anchor: end" x="28.12" y="70.159375" transform="rotate(-0 28.12 70.159375)">0.5</text>
     </g>
    </g>
    <g id="ytick_3">
     <g id="line2d_23">
      <path d="M 35.12 36.375 
L 540 36.375 
" clip-path="url(#p0476be2960)" style="fill: none; stroke: #b0b0b0; stroke-width: 0.8; stroke-linecap: square"/>
     </g>
     <g id="line2d_24">
      <g>
       <use xlink:href="#m05c68ce0f7" x="35.12" y="36.375" style="stroke: #000000; stroke-width: 0.8"/>
      </g>
     </g>
     <g id="text_13">
      <text style="font: 10px 'Times New Roman'; text-anchor: end" x="28.12" y="39.846875" transform="rotate(-0 28.12 39.846875)">1.0</text>
     </g>
    </g>
    <g id="ytick_4">
     <g id="line2d_25">
      <path d="M 35.12 6.0625 
L 540 6.0625 
" clip-path="url(#p0476be2960)" style="fill: none; stroke: #b0b0b0; stroke-width: 0.8; stroke-linecap: square"/>
     </g>
     <g id="line2d_26">
      <g>
       <use xlink:href="#m05c68ce0f7" x="35.12" y="6.0625" style="stroke: #000000; stroke-width: 0.8"/>
      </g>
     </g>
     <g id="text_14">
      <text style="font: 10px 'Times New Roman'; text-anchor: end" x="28.12" y="9.534375" transform="rotate(-0 28.12 9.534375)">1.5</text>
     </g>
    </g>
    <g id="text_15">
     <text style="font: 12px 'Times New Roman'; text-anchor: middle" x="9.053125" y="48.5" transform="rotate(-90 9.053125 48.5)">Normalized Value</text>
    </g>
   </g>
   <g id="line2d_27">
    <path d="M 35.12 45.678764 
L 36.325108 33.427934 
L 38.735324 39.869236 
L 39.940432 42.456639 
L 41.14554 39.742592 
L 42.350648 38.82198 
L 45.965972 42.725837 
L 47.17108 37.387466 
L 48.376188 39.856556 
L 49.581296 39.344341 
L 50.786404 37.622958 
L 51.991512 37.476334 
L 53.19662 37.022834 
L 54.401728 38.151249 
L 55.606836 37.716849 
L 56.811944 38.101369 
L 58.017052 38.115466 
L 59.22216 38.655561 
L 60.427268 38.390652 
L 61.632376 39.446478 
L 62.837484 40.171704 
L 64.042592 39.65936 
L 65.2477 40.160298 
L 67.657916 38.554026 
L 68.863024 39.026022 
L 70.068132 39.0687 
L 71.27324 39.343925 
L 72.478348 38.565095 
L 73.683456 39.29041 
L 74.888564 39.590042 
L 77.29878 40.52406 
L 78.503888 40.240645 
L 79.708996 40.655786 
L 80.914104 39.857613 
L 83.32432 40.52026 
L 85.734536 39.985971 
L 86.939644 39.892569 
L 89.34986 40.159903 
L 90.554968 40.487865 
L 91.760076 40.1277 
L 92.965184 40.409088 
L 94.170292 40.375584 
L 95.3754 40.062675 
L 96.580508 40.11173 
L 97.785616 40.401416 
L 100.195832 40.746374 
L 101.40094 40.248259 
L 105.016264 40.252513 
L 106.221372 40.546249 
L 107.42648 40.421178 
L 112.246913 40.956075 
L 114.657129 40.757361 
L 115.862237 40.875797 
L 120.682669 40.73372 
L 121.887777 40.87858 
L 123.092885 40.342502 
L 125.503101 40.244423 
L 126.708209 39.98707 
L 127.913317 40.075415 
L 130.323533 40.054632 
L 131.528641 39.829328 
L 132.733749 39.795669 
L 135.143965 39.413997 
L 136.349073 39.091591 
L 137.554181 39.218575 
L 138.759289 38.866537 
L 139.964397 38.671715 
L 141.169505 38.700401 
L 142.374613 38.384535 
L 143.579721 38.246216 
L 144.784829 37.963073 
L 148.400153 38.569526 
L 150.810369 38.755811 
L 152.015477 38.654673 
L 154.425693 38.811654 
L 158.041017 38.007258 
L 159.246125 37.743218 
L 160.451233 37.6109 
L 161.656341 37.333612 
L 162.861449 37.392397 
L 164.066557 37.297011 
L 166.476773 37.624763 
L 167.681881 37.399092 
L 168.886989 37.324299 
L 170.092097 37.456266 
L 172.502313 37.304067 
L 173.707421 37.080467 
L 174.912529 36.732778 
L 178.527853 36.957172 
L 182.143177 37.332112 
L 183.348285 37.44042 
L 184.553393 37.131906 
L 188.168717 37.181039 
L 192.989149 37.017218 
L 197.809581 37.354589 
L 199.014689 37.382175 
L 200.219797 37.536609 
L 201.424905 37.386245 
L 202.630013 37.437545 
L 205.040229 37.047005 
L 207.450445 36.421961 
L 209.860661 36.601174 
L 212.270877 36.685019 
L 213.475985 36.828393 
L 215.886201 36.799071 
L 218.296417 36.889617 
L 220.706633 37.228389 
L 225.527065 37.264094 
L 226.732173 37.34083 
L 227.937281 37.243811 
L 230.347497 37.269545 
L 231.552605 37.161771 
L 237.578145 37.221449 
L 239.988361 37.131626 
L 243.603685 37.269267 
L 244.808793 37.355346 
L 249.629225 37.09695 
L 258.064982 37.503299 
L 259.27009 37.413027 
L 262.885414 37.63486 
L 264.090522 37.709868 
L 265.29563 37.609769 
L 267.705846 37.614684 
L 268.910954 37.283355 
L 273.731386 37.469047 
L 282.167142 37.465786 
L 284.577358 37.173964 
L 289.39779 37.1655 
L 290.602898 37.044778 
L 291.808006 37.084276 
L 293.013114 36.988698 
L 294.218222 37.115342 
L 295.42333 37.023975 
L 296.628438 36.665877 
L 300.243762 36.578013 
L 302.653978 36.611522 
L 303.859086 36.47527 
L 305.064194 36.542853 
L 306.269302 36.403226 
L 314.705058 36.544546 
L 319.52549 36.55414 
L 321.935706 36.611964 
L 323.140814 36.681254 
L 325.55103 36.556085 
L 329.166354 36.706249 
L 330.371462 36.761817 
L 331.57657 36.66724 
L 335.191894 36.619596 
L 340.012326 36.540105 
L 342.422542 36.552605 
L 348.448082 36.501035 
L 349.65319 36.599915 
L 352.063406 36.570502 
L 358.088946 36.59416 
L 364.114486 36.492901 
L 367.72981 36.515686 
L 371.345134 36.307438 
L 376.165566 36.320414 
L 380.985998 36.227806 
L 385.80643 36.267851 
L 387.011538 36.286966 
L 388.216646 36.107898 
L 394.242186 36.288198 
L 395.447294 36.1623 
L 399.062618 36.166063 
L 406.293266 35.903055 
L 407.498375 35.967641 
L 412.318807 35.727083 
L 414.729023 35.828912 
L 426.780103 35.995082 
L 427.985211 35.911848 
L 430.395427 35.96946 
L 441.241399 36.20167 
L 443.651615 36.148359 
L 447.266939 36.175081 
L 460.523127 36.17384 
L 465.343559 36.239667 
L 468.958883 36.258946 
L 473.779315 36.278843 
L 477.394639 36.280571 
L 485.830395 36.298352 
L 490.650827 36.346065 
L 494.266151 36.372611 
L 499.086583 36.476842 
L 501.496799 36.492118 
L 507.522339 36.562977 
L 511.137663 36.572495 
L 513.547879 36.619372 
L 514.752987 36.360266 
L 515.958095 36.375 
L 515.958095 36.375 
" clip-path="url(#p0476be2960)" style="fill: none; stroke: #4169e1; stroke-width: 1.5; stroke-linecap: square"/>
   </g>
   <g id="line2d_28">
    <path d="M 35.12 97 
L 36.325108 66.164318 
L 37.530216 72.02375 
L 38.735324 72.105475 
L 39.940432 71.582504 
L 41.14554 68.25169 
L 42.350648 71.313805 
L 43.555756 72.242165 
L 44.760864 72.683926 
L 45.965972 71.180249 
L 47.17108 14.975721 
L 48.376188 8.032986 
L 49.581296 14.229745 
L 50.786404 12.227452 
L 51.991512 17.817117 
L 53.19662 22.132224 
L 54.401728 22.350393 
L 56.811944 29.037032 
L 58.017052 32.434404 
L 59.22216 34.310304 
L 60.427268 36.857049 
L 61.632376 34.433132 
L 62.837484 34.554675 
L 65.2477 36.824643 
L 66.452808 36.070503 
L 67.657916 34.153096 
L 68.863024 35.03862 
L 70.068132 37.093146 
L 71.27324 38.558731 
L 72.478348 36.52162 
L 73.683456 34.895487 
L 74.888564 36.113379 
L 76.093672 36.039241 
L 77.29878 36.436983 
L 78.503888 37.47971 
L 79.708996 37.735905 
L 80.914104 34.28156 
L 82.119212 35.115924 
L 83.32432 35.559781 
L 84.529428 36.31901 
L 85.734536 37.211069 
L 88.144752 39.61341 
L 89.34986 40.713249 
L 90.554968 40.894293 
L 91.760076 40.810528 
L 92.965184 41.176389 
L 94.170292 42.281561 
L 95.3754 42.348636 
L 96.580508 43.374409 
L 97.785616 43.489649 
L 98.990724 44.290642 
L 100.195832 44.746171 
L 101.40094 42.875493 
L 102.606048 43.814736 
L 103.811156 44.51152 
L 105.016264 45.051429 
L 106.221372 44.871347 
L 108.631588 46.215455 
L 109.836697 47.00867 
L 111.041805 46.893202 
L 115.862237 49.096118 
L 118.272453 50.418816 
L 119.477561 50.915568 
L 120.682669 51.555459 
L 121.887777 51.867566 
L 123.092885 48.167225 
L 125.503101 49.376232 
L 126.708209 48.960544 
L 129.118425 50.04265 
L 130.323533 50.628872 
L 131.528641 50.367002 
L 132.733749 50.916843 
L 133.938857 50.934641 
L 135.143965 50.779826 
L 136.349073 49.529647 
L 137.554181 49.800024 
L 138.759289 48.152782 
L 139.964397 48.029414 
L 141.169505 48.564767 
L 142.374613 47.278543 
L 143.579721 47.471158 
L 144.784829 46.510604 
L 147.195045 45.760193 
L 148.400153 45.760417 
L 149.605261 46.007841 
L 150.810369 46.449769 
L 153.220585 47.086421 
L 154.425693 47.508107 
L 155.630801 46.889264 
L 156.835909 46.863332 
L 158.041017 43.754622 
L 159.246125 42.791235 
L 160.451233 42.933403 
L 161.656341 41.784747 
L 162.861449 42.225519 
L 164.066557 42.53267 
L 165.271665 42.331498 
L 166.476773 42.324417 
L 167.681881 41.666018 
L 168.886989 42.032496 
L 170.092097 42.11819 
L 171.297205 42.558229 
L 172.502313 42.748327 
L 173.707421 42.034707 
L 174.912529 39.623357 
L 177.322745 40.470011 
L 178.527853 40.542217 
L 179.732961 40.360572 
L 180.938069 40.404225 
L 182.143177 40.692841 
L 183.348285 40.850486 
L 184.553393 38.874792 
L 189.373825 40.561718 
L 190.578933 40.70391 
L 192.989149 41.451012 
L 196.604473 41.717183 
L 199.014689 42.500116 
L 201.424905 41.976752 
L 202.630013 42.29462 
L 203.835121 41.706919 
L 205.040229 40.862594 
L 206.245337 37.676048 
L 207.450445 35.869508 
L 208.655553 35.943913 
L 209.860661 36.212413 
L 212.270877 36.914857 
L 213.475985 36.693052 
L 215.886201 37.369658 
L 217.091309 37.75689 
L 218.296417 37.955272 
L 219.501525 37.185893 
L 220.706633 36.885536 
L 221.911741 37.270529 
L 224.321957 37.738661 
L 225.527065 38.082376 
L 226.732173 38.25825 
L 227.937281 38.313676 
L 230.347497 38.868458 
L 231.552605 38.833928 
L 233.962821 39.41909 
L 237.578145 40.153936 
L 238.783253 40.203205 
L 241.193469 40.844563 
L 244.808793 41.306472 
L 246.013901 41.321906 
L 247.219009 41.617338 
L 248.424117 41.475765 
L 249.629225 41.74775 
L 253.244549 42.191981 
L 254.449657 41.978949 
L 258.064982 42.626211 
L 259.27009 42.605561 
L 260.475198 42.435612 
L 261.680306 42.69832 
L 265.29563 42.647191 
L 267.705846 43.158147 
L 268.910954 39.058598 
L 270.116062 39.180443 
L 271.32117 39.473512 
L 274.936494 40.027252 
L 277.34671 40.553059 
L 282.167142 41.184346 
L 284.577358 39.916409 
L 285.782466 40.178667 
L 286.987574 40.275775 
L 289.39779 40.777844 
L 290.602898 40.407002 
L 291.808006 40.603182 
L 293.013114 40.463843 
L 294.218222 40.017098 
L 295.42333 39.909217 
L 296.628438 34.453856 
L 297.833546 34.583656 
L 302.653978 35.617022 
L 303.859086 35.040483 
L 305.064194 35.105654 
L 306.269302 34.478275 
L 311.089734 35.382267 
L 312.294842 35.431301 
L 317.115274 36.248777 
L 318.320382 36.175665 
L 320.730598 36.63957 
L 323.140814 36.582458 
L 324.345922 36.534409 
L 325.55103 36.673332 
L 326.756138 36.551793 
L 327.961246 36.790931 
L 330.371462 36.996168 
L 331.57657 36.787004 
L 332.781678 37.014543 
L 333.986786 37.101372 
L 335.191894 36.604635 
L 337.60211 36.865298 
L 338.807218 36.61611 
L 340.012326 36.852498 
L 342.422542 37.003138 
L 343.62765 37.205835 
L 344.832758 36.760646 
L 347.242974 37.014723 
L 348.448082 36.997442 
L 349.65319 36.702156 
L 352.063406 37.058816 
L 353.268514 37.258475 
L 354.473622 37.113284 
L 355.67873 37.334163 
L 356.883838 37.280441 
L 360.499162 37.861733 
L 362.909378 37.683871 
L 365.319594 37.92237 
L 367.72981 38.277195 
L 368.934918 37.918129 
L 370.140026 37.709825 
L 376.165566 38.562475 
L 378.575782 38.806119 
L 380.985998 39.182767 
L 383.396214 39.490062 
L 387.011538 39.992756 
L 388.216646 38.256345 
L 391.83197 38.753824 
L 393.037078 38.420479 
L 394.242186 38.360488 
L 395.447294 37.582238 
L 396.652402 37.715869 
L 397.85751 37.710501 
L 400.267726 37.918201 
L 401.472834 37.426402 
L 403.88305 37.738656 
L 406.293266 37.942888 
L 408.703483 37.846991 
L 409.908591 37.114996 
L 412.318807 37.369965 
L 413.523915 37.002749 
L 418.344347 37.684461 
L 424.369887 38.154766 
L 426.780103 38.478035 
L 429.190319 38.009862 
L 434.010751 38.611271 
L 436.420967 38.711537 
L 437.626075 38.882828 
L 438.831183 38.826985 
L 446.061831 39.301641 
L 455.702695 40.235631 
L 456.907803 39.993944 
L 458.112911 40.002578 
L 461.728235 40.362779 
L 462.933343 40.166485 
L 465.343559 40.123971 
L 470.163991 40.588286 
L 472.574207 40.479894 
L 473.779315 39.617011 
L 476.189531 39.816001 
L 479.804855 40.236334 
L 481.009963 40.202794 
L 482.215071 40.330565 
L 483.420179 40.291964 
L 487.035503 40.494586 
L 488.240611 40.488819 
L 489.445719 40.626988 
L 490.650827 40.611317 
L 494.266151 40.958742 
L 495.471259 40.886644 
L 497.881475 41.07914 
L 500.291691 41.166444 
L 509.932555 41.282985 
L 513.547879 41.59188 
L 514.752987 36.240898 
L 515.958095 36.375 
L 515.958095 36.375 
" clip-path="url(#p0476be2960)" style="fill: none; stroke-dasharray: 5.55,2.4; stroke-dashoffset: 0; stroke: #4169e1; stroke-width: 1.5"/>
   </g>
   <g id="line2d_29">
    <path d="M 35.12 42.627913 
L 36.325108 33.948071 
L 37.530216 36.742081 
L 38.735324 40.185968 
L 39.940432 42.716207 
L 41.14554 40.132047 
L 42.350648 39.356886 
L 43.555756 40.108094 
L 44.760864 41.086853 
L 45.965972 42.279497 
L 47.17108 37.620332 
L 48.376188 40.033054 
L 49.581296 39.629278 
L 50.786404 37.878079 
L 51.991512 37.676509 
L 53.19662 37.343176 
L 54.401728 38.390713 
L 55.606836 37.966183 
L 56.811944 38.248549 
L 58.017052 38.380103 
L 59.22216 38.692448 
L 60.427268 38.476848 
L 62.837484 40.150478 
L 64.042592 39.794889 
L 65.2477 40.242831 
L 67.657916 38.484989 
L 68.863024 38.849639 
L 70.068132 38.876535 
L 71.27324 39.146957 
L 72.478348 38.372912 
L 73.683456 39.07668 
L 77.29878 40.170846 
L 78.503888 39.989583 
L 79.708996 40.403298 
L 80.914104 39.69372 
L 83.32432 40.296236 
L 86.939644 39.746929 
L 89.34986 40.1412 
L 90.554968 40.474585 
L 91.760076 40.077173 
L 92.965184 40.326714 
L 94.170292 40.226766 
L 95.3754 39.947058 
L 96.580508 39.953793 
L 97.785616 40.203457 
L 98.990724 40.326711 
L 100.195832 40.568567 
L 101.40094 40.108942 
L 103.811156 39.939433 
L 106.221372 40.334538 
L 107.42648 40.19842 
L 109.836697 40.207478 
L 111.041805 40.450733 
L 112.246913 40.569212 
L 113.452021 40.40915 
L 114.657129 40.378355 
L 118.272453 40.574021 
L 119.477561 40.474812 
L 121.887777 40.573382 
L 123.092885 40.033685 
L 126.708209 39.688227 
L 130.323533 39.751638 
L 132.733749 39.557363 
L 135.143965 39.248184 
L 136.349073 38.999856 
L 137.554181 39.119727 
L 138.759289 38.767374 
L 139.964397 38.593685 
L 141.169505 38.576093 
L 142.374613 38.28927 
L 143.579721 38.197056 
L 144.784829 37.9579 
L 148.400153 38.550328 
L 150.810369 38.72657 
L 152.015477 38.662455 
L 154.425693 38.828454 
L 158.041017 38.09139 
L 159.246125 37.829552 
L 160.451233 37.696657 
L 161.656341 37.422325 
L 162.861449 37.449561 
L 164.066557 37.336915 
L 166.476773 37.639348 
L 168.886989 37.372278 
L 170.092097 37.494398 
L 172.502313 37.355769 
L 174.912529 36.786617 
L 178.527853 37.039169 
L 182.143177 37.410053 
L 183.348285 37.514828 
L 184.553393 37.26432 
L 189.373825 37.216526 
L 191.784041 37.067685 
L 194.194257 37.198974 
L 197.809581 37.348754 
L 199.014689 37.366295 
L 200.219797 37.524045 
L 201.424905 37.345618 
L 202.630013 37.398286 
L 205.040229 37.012161 
L 207.450445 36.357286 
L 209.860661 36.533015 
L 212.270877 36.608913 
L 213.475985 36.729002 
L 215.886201 36.680648 
L 218.296417 36.740215 
L 220.706633 37.044698 
L 230.347497 37.098905 
L 231.552605 36.98061 
L 237.578145 37.077378 
L 239.988361 37.012786 
L 243.603685 37.125013 
L 244.808793 37.215998 
L 249.629225 36.960686 
L 264.090522 37.565143 
L 266.500738 37.508565 
L 267.705846 37.478881 
L 268.910954 37.206563 
L 273.731386 37.400295 
L 282.167142 37.411915 
L 285.782466 37.118282 
L 288.192682 37.071534 
L 289.39779 37.076393 
L 290.602898 36.954764 
L 294.218222 37.030519 
L 295.42333 36.941617 
L 296.628438 36.609329 
L 300.243762 36.558144 
L 302.653978 36.587375 
L 303.859086 36.454233 
L 305.064194 36.519811 
L 306.269302 36.394605 
L 312.294842 36.506892 
L 314.705058 36.482089 
L 324.345922 36.532964 
L 325.55103 36.493166 
L 329.166354 36.635055 
L 330.371462 36.674997 
L 332.781678 36.61204 
L 333.986786 36.665797 
L 336.397002 36.516774 
L 337.60211 36.586455 
L 340.012326 36.494082 
L 341.217434 36.555352 
L 347.242974 36.39012 
L 352.063406 36.518096 
L 358.088946 36.587529 
L 364.114486 36.494936 
L 367.72981 36.49961 
L 371.345134 36.311477 
L 376.165566 36.295018 
L 380.985998 36.208957 
L 383.396214 36.224417 
L 391.83197 36.134103 
L 394.242186 36.293317 
L 395.447294 36.200527 
L 399.062618 36.201392 
L 406.293266 35.918521 
L 408.703483 35.906835 
L 411.113699 35.751245 
L 412.318807 35.718335 
L 414.729023 35.813596 
L 426.780103 35.941357 
L 427.985211 35.859661 
L 430.395427 35.902597 
L 444.856723 36.126259 
L 448.472047 36.116582 
L 455.702695 36.119612 
L 458.112911 36.106954 
L 467.753775 36.225791 
L 478.599747 36.249881 
L 485.830395 36.272224 
L 490.650827 36.320613 
L 496.676367 36.37235 
L 507.522339 36.524753 
L 511.137663 36.541793 
L 513.547879 36.591756 
L 514.752987 36.358973 
L 515.958095 36.375 
L 515.958095 36.375 
" clip-path="url(#p0476be2960)" style="fill: none; stroke: #ff8c00; stroke-width: 1.5; stroke-linecap: square"/>
   </g>
   <g id="line2d_30">
    <path d="M 35.12 97 
L 36.325108 78.982067 
L 37.530216 81.254104 
L 38.735324 76.681151 
L 39.940432 74.620508 
L 41.14554 70.365142 
L 42.350648 73.307904 
L 43.555756 75.324701 
L 44.760864 75.900238 
L 45.965972 74.948632 
L 47.17108 25.037739 
L 48.376188 15.720599 
L 49.581296 21.504972 
L 50.786404 17.363018 
L 51.991512 22.536112 
L 53.19662 26.791513 
L 54.401728 26.722486 
L 58.017052 36.19995 
L 60.427268 41.048345 
L 61.632376 39.255226 
L 62.837484 38.336678 
L 64.042592 39.957459 
L 65.2477 40.951726 
L 67.657916 35.337974 
L 68.863024 36.573839 
L 70.068132 38.583027 
L 71.27324 39.942777 
L 72.478348 37.283846 
L 73.683456 35.30298 
L 74.888564 36.258388 
L 76.093672 36.605485 
L 77.29878 37.251854 
L 78.503888 38.583786 
L 79.708996 38.606494 
L 80.914104 35.527988 
L 82.119212 36.023703 
L 83.32432 36.821688 
L 84.529428 37.824369 
L 85.734536 38.259972 
L 86.939644 39.583186 
L 88.144752 40.641798 
L 89.34986 41.191316 
L 90.554968 41.156001 
L 91.760076 40.544164 
L 92.965184 40.98149 
L 94.170292 41.984795 
L 95.3754 42.127987 
L 96.580508 43.182665 
L 97.785616 43.422917 
L 98.990724 44.222528 
L 100.195832 44.4267 
L 101.40094 42.586746 
L 103.811156 44.25767 
L 105.016264 44.822509 
L 106.221372 44.872094 
L 107.42648 45.46078 
L 109.836697 47.079741 
L 111.041805 46.968193 
L 112.246913 47.523061 
L 113.452021 47.874448 
L 114.657129 48.592697 
L 121.887777 52.106344 
L 123.092885 47.627861 
L 124.297993 48.085025 
L 125.503101 48.728102 
L 126.708209 48.36521 
L 130.323533 50.146889 
L 131.528641 50.290485 
L 132.733749 50.823426 
L 133.938857 50.964482 
L 135.143965 50.98087 
L 136.349073 50.283435 
L 137.554181 50.53455 
L 138.759289 48.515126 
L 139.964397 48.438404 
L 141.169505 48.977526 
L 142.374613 47.760065 
L 143.579721 48.118135 
L 145.989937 46.741106 
L 147.195045 46.413406 
L 148.400153 46.353816 
L 149.605261 46.571156 
L 152.015477 47.424801 
L 153.220585 47.600776 
L 154.425693 48.039577 
L 155.630801 47.438922 
L 156.835909 47.403822 
L 158.041017 44.415273 
L 159.246125 43.232066 
L 160.451233 43.304873 
L 161.656341 41.921594 
L 162.861449 42.417539 
L 164.066557 42.598222 
L 165.271665 42.372614 
L 166.476773 42.394646 
L 167.681881 42.256477 
L 170.092097 42.494078 
L 171.297205 42.896824 
L 172.502313 43.166501 
L 173.707421 42.111249 
L 174.912529 39.483468 
L 176.117637 39.898733 
L 178.527853 40.275917 
L 179.732961 40.006621 
L 180.938069 40.066541 
L 183.348285 40.41755 
L 184.553393 39.009217 
L 188.168717 40.354056 
L 189.373825 40.672684 
L 190.578933 40.838227 
L 192.989149 41.57526 
L 194.194257 41.62948 
L 195.399365 41.879461 
L 196.604473 42.003777 
L 199.014689 42.788438 
L 200.219797 42.365928 
L 201.424905 41.708268 
L 202.630013 42.010995 
L 203.835121 41.219136 
L 205.040229 40.286671 
L 206.245337 36.169054 
L 207.450445 33.709688 
L 208.655553 33.703658 
L 211.065769 34.415323 
L 212.270877 34.732544 
L 213.475985 34.640002 
L 214.681093 34.883292 
L 217.091309 35.683582 
L 218.296417 35.931528 
L 219.501525 35.238425 
L 220.706633 34.995972 
L 221.911741 35.380623 
L 224.321957 35.78455 
L 225.527065 36.123853 
L 226.732173 36.333574 
L 227.937281 36.348312 
L 230.347497 36.894958 
L 231.552605 36.715946 
L 233.962821 37.267228 
L 239.988361 38.530328 
L 242.398577 39.115646 
L 243.603685 39.341554 
L 246.013901 39.323684 
L 247.219009 39.625766 
L 248.424117 39.573085 
L 252.039441 40.126385 
L 253.244549 40.25307 
L 254.449657 40.036917 
L 258.064982 40.751602 
L 259.27009 40.737391 
L 260.475198 40.580618 
L 261.680306 40.818348 
L 265.29563 40.858376 
L 267.705846 41.378474 
L 268.910954 38.223113 
L 270.116062 38.339629 
L 272.526278 38.813699 
L 273.731386 38.918915 
L 277.34671 39.731134 
L 282.167142 40.255406 
L 283.37225 39.64283 
L 284.577358 38.659404 
L 285.782466 38.938546 
L 286.987574 39.02091 
L 289.39779 39.554572 
L 290.602898 39.074217 
L 291.808006 39.286242 
L 293.013114 39.336534 
L 294.218222 39.01362 
L 295.42333 38.872562 
L 296.628438 33.408997 
L 299.038654 33.885439 
L 302.653978 34.658689 
L 303.859086 33.991603 
L 305.064194 34.041265 
L 306.269302 33.476297 
L 311.089734 34.429981 
L 313.49995 34.623466 
L 317.115274 35.273931 
L 318.320382 35.128528 
L 320.730598 35.576827 
L 321.935706 35.476382 
L 326.756138 35.497338 
L 327.961246 35.748196 
L 330.371462 35.969944 
L 331.57657 35.793006 
L 332.781678 36.011376 
L 333.986786 36.084914 
L 335.191894 35.52011 
L 336.397002 35.701874 
L 337.60211 35.653654 
L 338.807218 35.428758 
L 340.012326 35.67004 
L 342.422542 35.756662 
L 343.62765 35.964997 
L 344.832758 35.283323 
L 346.037866 35.493209 
L 348.448082 35.612154 
L 349.65319 35.221935 
L 353.268514 35.82435 
L 354.473622 35.724744 
L 358.088946 36.372035 
L 361.70427 36.698716 
L 362.909378 36.708725 
L 367.72981 37.389695 
L 370.140026 36.875177 
L 376.165566 37.772323 
L 378.575782 38.053597 
L 383.396214 38.733 
L 387.011538 39.233499 
L 388.216646 37.891336 
L 389.421754 37.900773 
L 391.83197 38.234504 
L 393.037078 37.822078 
L 394.242186 37.704155 
L 395.447294 37.286129 
L 396.652402 37.418664 
L 397.85751 37.406389 
L 399.062618 37.559627 
L 400.267726 37.516196 
L 401.472834 36.972581 
L 403.88305 37.273886 
L 406.293266 37.427199 
L 408.703483 37.478225 
L 409.908591 36.462537 
L 412.318807 36.707784 
L 413.523915 36.269804 
L 418.344347 36.993026 
L 421.959671 37.301472 
L 423.164779 37.255654 
L 426.780103 37.783384 
L 427.985211 37.444111 
L 429.190319 37.313351 
L 434.010751 37.934489 
L 436.420967 37.951813 
L 437.626075 38.12195 
L 438.831183 38.004857 
L 440.036291 38.053229 
L 441.241399 38.224194 
L 442.446507 38.281656 
L 444.856723 38.572018 
L 448.472047 38.959977 
L 452.087371 39.386759 
L 455.702695 39.677671 
L 458.112911 39.550277 
L 461.728235 39.898755 
L 465.343559 39.683923 
L 470.163991 40.209217 
L 472.574207 40.122921 
L 473.779315 39.273465 
L 477.394639 39.601164 
L 479.804855 39.886209 
L 481.009963 39.752254 
L 482.215071 39.82923 
L 483.420179 39.748991 
L 485.830395 39.896405 
L 488.240611 39.920319 
L 489.445719 40.060287 
L 490.650827 40.054416 
L 494.266151 40.403679 
L 495.471259 40.356136 
L 500.291691 40.701303 
L 502.701907 40.772443 
L 505.112123 40.801374 
L 506.317231 40.804841 
L 508.727447 41.011568 
L 509.932555 40.972018 
L 512.342771 41.155148 
L 513.547879 41.265811 
L 514.752987 36.247631 
L 515.958095 36.375 
L 515.958095 36.375 
" clip-path="url(#p0476be2960)" style="fill: none; stroke-dasharray: 5.55,2.4; stroke-dashoffset: 0; stroke: #ff8c00; stroke-width: 1.5"/>
   </g>
   <g id="patch_3">
    <path d="M 35.12 97 
L 35.12 0 
" style="fill: none; stroke: #000000; stroke-width: 0.8; stroke-linejoin: miter; stroke-linecap: square"/>
   </g>
   <g id="patch_4">
    <path d="M 540 97 
L 540 0 
" style="fill: none; stroke: #000000; stroke-width: 0.8; stroke-linejoin: miter; stroke-linecap: square"/>
   </g>
   <g id="patch_5">
    <path d="M 35.12 97 
L 540 97 
" style="fill: none; stroke: #000000; stroke-width: 0.8; stroke-linejoin: miter; stroke-linecap: square"/>
   </g>
   <g id="patch_6">
    <path d="M 35.12 0 
L 540 0 
" style="fill: none; stroke: #000000; stroke-width: 0.8; stroke-linejoin: miter; stroke-linecap: square"/>
   </g>
  </g>
 </g>
 <defs>
  <clipPath id="p0476be2960">
   <rect x="35.12" y="0" width="504.88" height="97"/>
  </clipPath>
 </defs>
</svg>
