<?xml version="1.0" encoding="utf-8" standalone="no"?>
<!DOCTYPE svg PUBLIC "-//W3C//DTD SVG 1.1//EN"
  "http://www.w3.org/Graphics/SVG/1.1/DTD/svg11.dtd">
<svg xmlns:xlink="http://www.w3.org/1999/xlink" width="540pt" height="129.6pt" viewBox="0 0 540 129.6" xmlns="http://www.w3.org/2000/svg" version="1.1">
 <metadata>
  <rdf:RDF xmlns:dc="http://purl.org/dc/elements/1.1/" xmlns:cc="http://creativecommons.org/ns#" xmlns:rdf="http://www.w3.org/1999/02/22-rdf-syntax-ns#">
   <cc:Work>
    <dc:type rdf:resource="http://purl.org/dc/dcmitype/StillImage"/>
    <dc:date>2025-04-05T07:35:20.066093</dc:date>
    <dc:format>image/svg+xml</dc:format>
    <dc:creator>
     <cc:Agent>
      <dc:title>Matplotlib v3.10.1, https://matplotlib.org/</dc:title>
     </cc:Agent>
    </dc:creator>
   </cc:Work>
  </rdf:RDF>
 </metadata>
 <defs>
  <style type="text/css">*{stroke-linejoin: round; stroke-linecap: butt}</style>
 </defs>
 <g id="figure_1">
  <g id="patch_1">
   <path d="M 0 129.6 
L 540 129.6 
L 540 0 
L 0 0 
z
" style="fill: #ffffff"/>
  </g>
  <g id="axes_1">
   <g id="patch_2">
    <path d="M 34.31 98.44 
L 540 98.44 
L 540 0 
L 34.31 0 
z
" style="fill: #ffffff"/>
   </g>
   <g id="matplotlib.axis_1">
    <g id="xtick_1">
     <g id="line2d_1">
      <path d="M 34.31 98.44 
L 34.31 0 
" clip-path="url(#pe855962919)" style="fill: none; stroke: #b0b0b0; stroke-width: 0.8; stroke-linecap: square"/>
     </g>
     <g id="line2d_2">
      <defs>
       <path id="mfc379863a8" d="M 0 0 
L 0 3.5 
" style="stroke: #000000; stroke-width: 0.8"/>
      </defs>
      <g>
       <use xlink:href="#mfc379863a8" x="34.31" y="98.44" style="stroke: #000000; stroke-width: 0.8"/>
      </g>
     </g>
     <g id="text_1">
      <text style="font-size: 10px; font-family: 'Times New Roman'; text-anchor: middle" x="34.31" y="112.38375" transform="rotate(-0 34.31 112.38375)">0</text>
     </g>
    </g>
    <g id="xtick_2">
     <g id="line2d_3">
      <path d="M 94.662071 98.44 
L 94.662071 0 
" clip-path="url(#pe855962919)" style="fill: none; stroke: #b0b0b0; stroke-width: 0.8; stroke-linecap: square"/>
     </g>
     <g id="line2d_4">
      <g>
       <use xlink:href="#mfc379863a8" x="94.662071" y="98.44" style="stroke: #000000; stroke-width: 0.8"/>
      </g>
     </g>
     <g id="text_2">
      <text style="font-size: 10px; font-family: 'Times New Roman'; text-anchor: middle" x="94.662071" y="112.38375" transform="rotate(-0 94.662071 112.38375)">50</text>
     </g>
    </g>
    <g id="xtick_3">
     <g id="line2d_5">
      <path d="M 155.014141 98.44 
L 155.014141 0 
" clip-path="url(#pe855962919)" style="fill: none; stroke: #b0b0b0; stroke-width: 0.8; stroke-linecap: square"/>
     </g>
     <g id="line2d_6">
      <g>
       <use xlink:href="#mfc379863a8" x="155.014141" y="98.44" style="stroke: #000000; stroke-width: 0.8"/>
      </g>
     </g>
     <g id="text_3">
      <text style="font-size: 10px; font-family: 'Times New Roman'; text-anchor: middle" x="155.014141" y="112.38375" transform="rotate(-0 155.014141 112.38375)">100</text>
     </g>
    </g>
    <g id="xtick_4">
     <g id="line2d_7">
      <path d="M 215.366212 98.44 
L 215.366212 0 
" clip-path="url(#pe855962919)" style="fill: none; stroke: #b0b0b0; stroke-width: 0.8; stroke-linecap: square"/>
     </g>
     <g id="line2d_8">
      <g>
       <use xlink:href="#mfc379863a8" x="215.366212" y="98.44" style="stroke: #000000; stroke-width: 0.8"/>
      </g>
     </g>
     <g id="text_4">
      <text style="font-size: 10px; font-family: 'Times New Roman'; text-anchor: middle" x="215.366212" y="112.38375" transform="rotate(-0 215.366212 112.38375)">150</text>
     </g>
    </g>
    <g id="xtick_5">
     <g id="line2d_9">
      <path d="M 275.718283 98.44 
L 275.718283 0 
" clip-path="url(#pe855962919)" style="fill: none; stroke: #b0b0b0; stroke-width: 0.8; stroke-linecap: square"/>
     </g>
     <g id="line2d_10">
      <g>
       <use xlink:href="#mfc379863a8" x="275.718283" y="98.44" style="stroke: #000000; stroke-width: 0.8"/>
      </g>
     </g>
     <g id="text_5">
      <text style="font-size: 10px; font-family: 'Times New Roman'; text-anchor: middle" x="275.718283" y="112.38375" transform="rotate(-0 275.718283 112.38375)">200</text>
     </g>
    </g>
    <g id="xtick_6">
     <g id="line2d_11">
      <path d="M 336.070353 98.44 
L 336.070353 0 
" clip-path="url(#pe855962919)" style="fill: none; stroke: #b0b0b0; stroke-width: 0.8; stroke-linecap: square"/>
     </g>
     <g id="line2d_12">
      <g>
       <use xlink:href="#mfc379863a8" x="336.070353" y="98.44" style="stroke: #000000; stroke-width: 0.8"/>
      </g>
     </g>
     <g id="text_6">
      <text style="font-size: 10px; font-family: 'Times New Roman'; text-anchor: middle" x="336.070353" y="112.38375" transform="rotate(-0 336.070353 112.38375)">250</text>
     </g>
    </g>
    <g id="xtick_7">
     <g id="line2d_13">
      <path d="M 396.422424 98.44 
L 396.422424 0 
" clip-path="url(#pe855962919)" style="fill: none; stroke: #b0b0b0; stroke-width: 0.8; stroke-linecap: square"/>
     </g>
     <g id="line2d_14">
      <g>
       <use xlink:href="#mfc379863a8" x="396.422424" y="98.44" style="stroke: #000000; stroke-width: 0.8"/>
      </g>
     </g>
     <g id="text_7">
      <text style="font-size: 10px; font-family: 'Times New Roman'; text-anchor: middle" x="396.422424" y="112.38375" transform="rotate(-0 396.422424 112.38375)">300</text>
     </g>
    </g>
    <g id="xtick_8">
     <g id="line2d_15">
      <path d="M 456.774495 98.44 
L 456.774495 0 
" clip-path="url(#pe855962919)" style="fill: none; stroke: #b0b0b0; stroke-width: 0.8; stroke-linecap: square"/>
     </g>
     <g id="line2d_16">
      <g>
       <use xlink:href="#mfc379863a8" x="456.774495" y="98.44" style="stroke: #000000; stroke-width: 0.8"/>
      </g>
     </g>
     <g id="text_8">
      <text style="font-size: 10px; font-family: 'Times New Roman'; text-anchor: middle" x="456.774495" y="112.38375" transform="rotate(-0 456.774495 112.38375)">350</text>
     </g>
    </g>
    <g id="xtick_9">
     <g id="line2d_17">
      <path d="M 517.126565 98.44 
L 517.126565 0 
" clip-path="url(#pe855962919)" style="fill: none; stroke: #b0b0b0; stroke-width: 0.8; stroke-linecap: square"/>
     </g>
     <g id="line2d_18">
      <g>
       <use xlink:href="#mfc379863a8" x="517.126565" y="98.44" style="stroke: #000000; stroke-width: 0.8"/>
      </g>
     </g>
     <g id="text_9">
      <text style="font-size: 10px; font-family: 'Times New Roman'; text-anchor: middle" x="517.126565" y="112.38375" transform="rotate(-0 517.126565 112.38375)">400</text>
     </g>
    </g>
    <g id="text_10">
     <text style="font-size: 12px; font-family: 'Times New Roman'; text-anchor: middle" x="287.155" y="126.855312" transform="rotate(-0 287.155 126.855312)">Simulation Run</text>
    </g>
   </g>
   <g id="matplotlib.axis_2">
    <g id="ytick_1">
     <g id="line2d_19">
      <path d="M 34.31 98.44 
L 540 98.44 
" clip-path="url(#pe855962919)" style="fill: none; stroke: #b0b0b0; stroke-width: 0.8; stroke-linecap: square"/>
     </g>
     <g id="line2d_20">
      <defs>
       <path id="mcd96a9230d" d="M 0 0 
L -3.5 0 
" style="stroke: #000000; stroke-width: 0.8"/>
      </defs>
      <g>
       <use xlink:href="#mcd96a9230d" x="34.31" y="98.44" style="stroke: #000000; stroke-width: 0.8"/>
      </g>
     </g>
     <g id="text_11">
      <text style="font-size: 10px; font-family: 'Times New Roman'; text-anchor: end" x="27.31" y="101.911875" transform="rotate(-0 27.31 101.911875)">0.0</text>
     </g>
    </g>
    <g id="ytick_2">
     <g id="line2d_21">
      <path d="M 34.31 63.282857 
L 540 63.282857 
" clip-path="url(#pe855962919)" style="fill: none; stroke: #b0b0b0; stroke-width: 0.8; stroke-linecap: square"/>
     </g>
     <g id="line2d_22">
      <g>
       <use xlink:href="#mcd96a9230d" x="34.31" y="63.282857" style="stroke: #000000; stroke-width: 0.8"/>
      </g>
     </g>
     <g id="text_12">
      <text style="font-size: 10px; font-family: 'Times New Roman'; text-anchor: end" x="27.31" y="66.754732" transform="rotate(-0 27.31 66.754732)">0.5</text>
     </g>
    </g>
    <g id="ytick_3">
     <g id="line2d_23">
      <path d="M 34.31 28.125714 
L 540 28.125714 
" clip-path="url(#pe855962919)" style="fill: none; stroke: #b0b0b0; stroke-width: 0.8; stroke-linecap: square"/>
     </g>
     <g id="line2d_24">
      <g>
       <use xlink:href="#mcd96a9230d" x="34.31" y="28.125714" style="stroke: #000000; stroke-width: 0.8"/>
      </g>
     </g>
     <g id="text_13">
      <text style="font-size: 10px; font-family: 'Times New Roman'; text-anchor: end" x="27.31" y="31.597589" transform="rotate(-0 27.31 31.597589)">1.0</text>
     </g>
    </g>
    <g id="text_14">
     <text style="font-size: 12px; font-family: 'Times New Roman'; text-anchor: middle" x="8.243125" y="49.22" transform="rotate(-90 8.243125 49.22)">Normalized Value</text>
    </g>
   </g>
   <g id="line2d_25">
    <path d="M 34.31 37.913757 
L 35.517041 37.479962 
L 36.724083 31.114097 
L 37.931124 28.37301 
L 39.138166 21.209813 
L 40.345207 20.276025 
L 41.552248 20.338292 
L 42.75929 20.880142 
L 43.966331 18.147809 
L 45.173373 18.910052 
L 46.380414 20.195334 
L 47.587456 16.473297 
L 48.794497 16.53501 
L 50.001538 19.039468 
L 51.20858 20.504976 
L 52.415621 20.530702 
L 53.622663 21.150017 
L 54.829704 20.928022 
L 56.036745 20.939261 
L 57.243787 21.47407 
L 60.864911 26.209611 
L 62.071953 25.436493 
L 63.278994 24.814652 
L 65.693077 25.507736 
L 66.900118 26.191808 
L 68.10716 26.352315 
L 69.314201 27.00285 
L 70.521242 27.355483 
L 71.728284 27.181624 
L 72.935325 27.222648 
L 75.349408 25.862751 
L 76.556449 25.507745 
L 77.763491 26.036995 
L 78.970532 25.602632 
L 80.177574 25.310124 
L 81.384615 24.331153 
L 83.798698 25.196222 
L 85.005739 25.587341 
L 86.212781 24.836412 
L 87.419822 25.112115 
L 88.626864 24.387045 
L 91.040946 24.725739 
L 92.247988 25.409376 
L 93.455029 25.533925 
L 94.662071 25.895576 
L 95.869112 26.101332 
L 97.076153 26.09124 
L 98.283195 25.811501 
L 99.490236 25.789046 
L 100.697278 26.21434 
L 101.904319 26.789552 
L 103.111361 26.825173 
L 104.318402 26.454023 
L 106.732485 27.022031 
L 107.939526 27.0714 
L 109.146568 27.271372 
L 110.353609 26.79976 
L 111.56065 26.543071 
L 112.767692 26.707011 
L 113.974733 26.412728 
L 116.388816 26.677628 
L 118.802899 27.059928 
L 122.424023 26.843597 
L 123.631065 26.857298 
L 124.838106 26.738347 
L 126.045147 26.348632 
L 127.252189 26.370917 
L 128.45923 26.136822 
L 129.666272 26.061805 
L 130.873313 26.216156 
L 132.080354 26.651151 
L 134.494437 26.766736 
L 139.322603 27.229874 
L 140.529644 26.510237 
L 141.736686 26.433406 
L 142.943727 26.205381 
L 144.150769 26.440585 
L 146.564851 26.626287 
L 147.771893 26.624302 
L 148.978934 26.491379 
L 150.185976 26.568303 
L 151.393017 26.398022 
L 153.8071 26.577413 
L 158.635266 27.491264 
L 159.842307 27.798852 
L 163.463431 28.000503 
L 164.670473 27.99437 
L 169.498638 27.454817 
L 170.70568 27.568045 
L 173.119763 27.451497 
L 175.533845 27.735524 
L 176.740887 27.474965 
L 179.15497 27.334707 
L 180.362011 27.377112 
L 181.569052 27.595567 
L 182.776094 27.591635 
L 185.190177 27.231522 
L 186.397218 27.046202 
L 190.018342 27.242668 
L 193.639467 26.893963 
L 194.846508 27.023956 
L 196.053549 26.77251 
L 199.674674 26.651584 
L 202.088756 27.074606 
L 205.709881 26.787027 
L 206.916922 26.391967 
L 208.123963 26.195938 
L 210.538046 26.429949 
L 211.745088 26.462107 
L 212.952129 26.346334 
L 214.159171 26.444178 
L 215.366212 26.320464 
L 217.780295 26.38458 
L 220.194378 26.039796 
L 222.60846 26.122356 
L 225.022543 25.955674 
L 229.850709 26.130028 
L 231.05775 26.030941 
L 234.678875 26.247837 
L 237.092957 26.199703 
L 246.749289 26.625682 
L 247.95633 26.447333 
L 249.163372 26.462679 
L 250.370413 26.608534 
L 251.577454 26.500272 
L 252.784496 26.577026 
L 253.991537 26.280605 
L 256.40562 26.373646 
L 260.026744 26.578974 
L 262.440827 26.702462 
L 263.647868 26.438647 
L 266.061951 26.593672 
L 269.683076 26.641606 
L 270.890117 26.69992 
L 273.3042 26.474893 
L 274.511241 26.608301 
L 278.132365 26.278987 
L 285.374614 26.330881 
L 286.581655 26.237891 
L 287.788697 26.268595 
L 290.20278 26.145665 
L 292.616862 26.166254 
L 297.445028 26.515935 
L 299.859111 26.366931 
L 301.066152 26.206642 
L 304.687277 26.548134 
L 307.101359 26.597745 
L 309.515442 26.628572 
L 313.136566 26.587523 
L 316.757691 26.472812 
L 317.964732 26.502214 
L 321.585856 26.212658 
L 323.999939 26.198057 
L 327.621063 26.047175 
L 330.035146 26.022154 
L 332.449229 26.152498 
L 334.863312 26.112024 
L 336.070353 25.965975 
L 337.277395 26.109414 
L 340.898519 25.840237 
L 346.933726 26.187448 
L 350.55485 26.18531 
L 355.383016 26.227549 
L 359.00414 26.166581 
L 361.418223 26.285508 
L 362.625264 26.160707 
L 366.246389 26.315804 
L 369.867513 26.442229 
L 374.695678 26.354304 
L 375.90272 26.480182 
L 378.316803 26.42665 
L 387.973134 26.539847 
L 392.8013 26.67341 
L 396.422424 26.71774 
L 418.149169 27.146516 
L 420.563252 27.270119 
L 422.977335 27.303964 
L 426.598459 27.242913 
L 429.012542 27.211461 
L 430.219583 27.318506 
L 431.426625 27.18736 
L 439.875915 27.292361 
L 443.497039 27.408248 
L 447.118163 27.471231 
L 449.532246 27.539837 
L 450.739288 27.438027 
L 454.360412 27.553478 
L 457.981536 27.581308 
L 460.395619 27.629659 
L 461.60266 27.492528 
L 466.430826 27.554865 
L 468.844909 27.441363 
L 478.50124 27.691574 
L 479.708281 27.635384 
L 484.536447 27.859289 
L 490.571654 27.886241 
L 494.192778 27.930037 
L 497.813903 27.754084 
L 515.919524 28.125714 
L 515.919524 28.125714 
" clip-path="url(#pe855962919)" style="fill: none; stroke: #4169e1; stroke-width: 1.5; stroke-linecap: square"/>
   </g>
   <g id="line2d_26">
    <path d="M 34.31 98.44 
L 35.517041 98.400866 
L 36.724083 81.55876 
L 37.931124 81.091428 
L 39.138166 41.877495 
L 40.345207 50.397899 
L 41.552248 57.256218 
L 42.75929 61.976781 
L 43.966331 53.607577 
L 45.173373 57.003351 
L 46.380414 57.334858 
L 47.587456 29.068852 
L 48.794497 34.39559 
L 50.001538 22.012821 
L 51.20858 20.854911 
L 52.415621 25.701914 
L 53.622663 28.704392 
L 56.036745 35.87945 
L 57.243787 37.877319 
L 60.864911 14.433049 
L 62.071953 15.074383 
L 63.278994 16.479003 
L 65.693077 21.301301 
L 66.900118 21.428682 
L 68.10716 23.934229 
L 69.314201 23.865482 
L 70.521242 25.495304 
L 72.935325 29.716032 
L 74.142367 28.266311 
L 75.349408 27.295628 
L 76.556449 28.354524 
L 77.763491 28.151656 
L 78.970532 28.549585 
L 80.177574 29.665493 
L 81.384615 23.611799 
L 82.591657 23.648843 
L 85.005739 24.449179 
L 86.212781 21.088189 
L 87.419822 22.111576 
L 88.626864 18.850946 
L 91.040946 21.603302 
L 92.247988 18.50609 
L 93.455029 19.946693 
L 94.662071 20.125778 
L 95.869112 21.182803 
L 97.076153 22.639385 
L 98.283195 23.180575 
L 99.490236 24.543266 
L 100.697278 23.793995 
L 101.904319 21.250293 
L 103.111361 22.566109 
L 104.318402 22.190555 
L 105.525443 22.648981 
L 106.732485 22.686964 
L 107.939526 23.877868 
L 109.146568 24.545788 
L 110.353609 22.786326 
L 111.56065 23.07326 
L 112.767692 23.851875 
L 113.974733 23.776459 
L 115.181775 24.758577 
L 117.595858 26.020009 
L 118.802899 26.394481 
L 121.216982 28.108198 
L 123.631065 29.967464 
L 124.838106 30.647726 
L 126.045147 29.12768 
L 127.252189 30.008347 
L 128.45923 29.985643 
L 129.666272 30.748868 
L 130.873313 31.188195 
L 132.080354 28.820915 
L 133.287396 29.659578 
L 136.90852 31.568777 
L 138.115562 31.80173 
L 139.322603 32.312818 
L 140.529644 23.578246 
L 141.736686 24.300785 
L 144.150769 23.902971 
L 146.564851 25.151175 
L 147.771893 25.922559 
L 148.978934 26.328876 
L 150.185976 26.954153 
L 151.393017 27.098689 
L 153.8071 28.187687 
L 155.014141 27.940565 
L 156.221183 27.007684 
L 157.428224 26.838131 
L 158.635266 26.478825 
L 159.842307 25.117913 
L 163.463431 26.851286 
L 164.670473 27.507218 
L 165.877514 27.828563 
L 167.084555 28.453798 
L 168.291597 27.4098 
L 170.70568 27.968191 
L 173.119763 29.020594 
L 175.533845 29.2214 
L 176.740887 28.137034 
L 179.15497 29.049073 
L 180.362011 29.572603 
L 181.569052 28.9217 
L 182.776094 29.481936 
L 183.983135 29.60142 
L 185.190177 28.764759 
L 186.397218 28.413464 
L 188.811301 29.415462 
L 191.225384 29.732667 
L 192.432425 30.008771 
L 193.639467 29.939937 
L 194.846508 29.98374 
L 196.053549 28.728914 
L 198.467632 29.656807 
L 199.674674 29.692799 
L 200.881715 28.411348 
L 202.088756 28.033794 
L 203.295798 28.193751 
L 204.502839 28.158809 
L 205.709881 28.589903 
L 206.916922 24.433572 
L 208.123963 23.793183 
L 209.331005 23.475455 
L 211.745088 24.316586 
L 212.952129 24.401521 
L 214.159171 24.598459 
L 215.366212 24.610037 
L 216.573253 24.869346 
L 217.780295 25.336529 
L 218.987336 24.440942 
L 220.194378 24.314958 
L 221.401419 24.492614 
L 222.60846 24.957695 
L 223.815502 24.906313 
L 226.229585 25.674006 
L 227.436626 25.35601 
L 229.850709 26.235478 
L 233.471833 26.614285 
L 237.092957 27.712493 
L 238.299999 27.988856 
L 239.50704 28.400846 
L 240.714082 28.014566 
L 241.921123 28.409131 
L 243.128164 28.651893 
L 244.335206 28.571809 
L 246.749289 28.942403 
L 247.95633 28.161993 
L 249.163372 28.54589 
L 250.370413 28.142264 
L 251.577454 28.091901 
L 252.784496 28.256673 
L 253.991537 25.314528 
L 255.198579 25.711945 
L 258.819703 25.924923 
L 261.233786 26.642126 
L 262.440827 26.64748 
L 263.647868 24.273313 
L 264.85491 24.233335 
L 268.476034 25.1353 
L 269.683076 25.501665 
L 272.097158 25.870748 
L 273.3042 25.307218 
L 275.718283 24.51996 
L 276.925324 24.747799 
L 278.132365 24.348471 
L 281.75349 25.30335 
L 285.374614 26.078159 
L 286.581655 26.04689 
L 287.788697 26.348813 
L 288.995738 26.099131 
L 292.616862 27.073559 
L 293.823904 27.060653 
L 295.030945 27.185277 
L 296.237987 26.680802 
L 298.652069 27.073783 
L 299.859111 26.925564 
L 301.066152 26.066869 
L 302.273194 25.39338 
L 303.480235 25.460281 
L 304.687277 25.117144 
L 307.101359 25.669751 
L 308.308401 25.942798 
L 309.515442 26.076617 
L 313.136566 26.895074 
L 315.550649 27.191592 
L 317.964732 27.753124 
L 319.171773 27.288216 
L 321.585856 27.212105 
L 323.999939 27.724548 
L 325.206981 27.667676 
L 330.035146 28.683435 
L 331.242188 28.259574 
L 334.863312 29.049929 
L 337.277395 27.422091 
L 338.484436 26.981318 
L 339.691478 27.234832 
L 340.898519 26.637083 
L 342.10556 26.493474 
L 343.312602 25.819842 
L 344.519643 26.001983 
L 346.933726 25.810156 
L 350.55485 26.462865 
L 354.175974 27.212292 
L 356.590057 27.684228 
L 357.797099 27.746394 
L 360.211182 27.329768 
L 361.418223 27.552284 
L 362.625264 26.930909 
L 363.832306 27.155836 
L 367.45343 27.158632 
L 368.660471 27.369864 
L 369.867513 27.218349 
L 371.074554 27.460246 
L 372.281596 27.062082 
L 374.695678 27.467935 
L 375.90272 26.785279 
L 377.109761 26.846916 
L 379.523844 27.345225 
L 380.730886 26.958343 
L 383.144968 27.376996 
L 384.35201 26.903168 
L 385.559051 27.144834 
L 386.766093 27.196151 
L 387.973134 26.501203 
L 389.180175 26.617113 
L 390.387217 26.484199 
L 394.008341 27.183762 
L 395.215383 27.291426 
L 397.629465 27.722883 
L 398.836507 27.643743 
L 400.043548 27.736545 
L 403.664672 28.382149 
L 406.078755 28.461154 
L 407.285797 28.58051 
L 408.492838 28.524332 
L 410.906921 28.951867 
L 412.113962 28.677053 
L 415.735087 28.94328 
L 416.942128 28.74027 
L 418.149169 28.957512 
L 419.356211 28.638148 
L 421.770294 28.955271 
L 422.977335 28.939763 
L 425.391418 29.350049 
L 426.598459 29.148882 
L 429.012542 29.50309 
L 430.219583 28.930999 
L 431.426625 27.964854 
L 432.633666 28.177381 
L 435.047749 28.02295 
L 437.461832 28.351519 
L 443.497039 28.835253 
L 444.70408 29.039094 
L 445.911122 29.007199 
L 447.118163 29.208779 
L 448.325205 29.032228 
L 449.532246 29.232166 
L 450.739288 28.68851 
L 451.946329 28.583478 
L 453.15337 28.719071 
L 454.360412 28.452432 
L 460.395619 29.168834 
L 461.60266 27.979547 
L 466.430826 28.687348 
L 467.637867 28.030323 
L 468.844909 28.221951 
L 470.05195 28.289094 
L 471.258992 28.481725 
L 472.466033 28.526961 
L 474.880116 28.816578 
L 476.087157 28.526422 
L 479.708281 28.721367 
L 480.915323 28.423325 
L 482.122364 28.427683 
L 483.329406 28.272153 
L 485.743488 28.575631 
L 486.95053 28.521142 
L 491.778696 28.931095 
L 494.192778 28.727165 
L 495.39982 28.355551 
L 496.606861 28.22586 
L 500.227985 28.622664 
L 501.435027 28.334681 
L 502.642068 27.897617 
L 506.263193 28.366896 
L 507.470234 28.244921 
L 508.677275 27.666439 
L 509.884317 27.548667 
L 515.919524 28.125714 
L 515.919524 28.125714 
" clip-path="url(#pe855962919)" style="fill: none; stroke-dasharray: 5.55,2.4; stroke-dashoffset: 0; stroke: #4169e1; stroke-width: 1.5"/>
   </g>
   <g id="line2d_27">
    <path d="M 34.31 39.76451 
L 35.517041 38.761051 
L 36.724083 32.555112 
L 37.931124 29.887575 
L 39.138166 21.484449 
L 40.345207 20.10451 
L 41.552248 19.513013 
L 42.75929 20.284483 
L 43.966331 18.021341 
L 45.173373 18.27424 
L 46.380414 19.566605 
L 47.587456 16.788213 
L 48.794497 16.623964 
L 50.001538 18.65602 
L 51.20858 20.232264 
L 52.415621 20.550134 
L 53.622663 21.449399 
L 54.829704 20.983913 
L 57.243787 21.059382 
L 60.864911 25.266483 
L 63.278994 24.299784 
L 64.486035 24.851868 
L 65.693077 25.09265 
L 66.900118 25.714845 
L 68.10716 25.833589 
L 69.314201 26.326211 
L 70.521242 26.641156 
L 71.728284 26.29016 
L 72.935325 26.264444 
L 75.349408 25.197726 
L 76.556449 25.002195 
L 77.763491 25.541926 
L 80.177574 24.883619 
L 81.384615 24.042655 
L 85.005739 25.257093 
L 86.212781 24.590825 
L 87.419822 24.87634 
L 88.626864 24.294927 
L 91.040946 24.681348 
L 92.247988 25.349682 
L 93.455029 25.405424 
L 94.662071 25.739536 
L 95.869112 25.950053 
L 97.076153 25.999112 
L 98.283195 25.788812 
L 99.490236 25.803065 
L 101.904319 26.801424 
L 103.111361 26.875988 
L 104.318402 26.566195 
L 106.732485 27.04599 
L 107.939526 27.057483 
L 109.146568 27.325579 
L 110.353609 26.876792 
L 111.56065 26.632023 
L 112.767692 26.786717 
L 113.974733 26.534415 
L 115.181775 26.589273 
L 118.802899 27.090838 
L 121.216982 26.891085 
L 124.838106 27.010078 
L 126.045147 26.58868 
L 127.252189 26.555373 
L 128.45923 26.391847 
L 129.666272 26.347682 
L 130.873313 26.502465 
L 132.080354 26.862565 
L 134.494437 27.024651 
L 136.90852 27.171779 
L 139.322603 27.39587 
L 140.529644 26.700424 
L 141.736686 26.596563 
L 142.943727 26.377791 
L 144.150769 26.564527 
L 147.771893 26.681213 
L 148.978934 26.59865 
L 150.185976 26.684657 
L 151.393017 26.51888 
L 155.014141 26.878722 
L 157.428224 27.353673 
L 161.049348 27.995914 
L 163.463431 28.075766 
L 167.084555 27.968898 
L 169.498638 27.576119 
L 170.70568 27.692812 
L 174.326804 27.632369 
L 175.533845 27.773132 
L 176.740887 27.531384 
L 180.362011 27.478274 
L 181.569052 27.644728 
L 183.983135 27.485829 
L 185.190177 27.205255 
L 186.397218 27.116596 
L 190.018342 27.249683 
L 193.639467 26.983985 
L 194.846508 27.122701 
L 196.053549 26.938328 
L 199.674674 26.865976 
L 202.088756 27.320291 
L 205.709881 27.129432 
L 206.916922 26.810978 
L 208.123963 26.655504 
L 210.538046 26.864104 
L 226.229585 26.352408 
L 227.436626 26.484067 
L 232.264792 26.437462 
L 234.678875 26.519932 
L 237.092957 26.441839 
L 246.749289 26.802354 
L 247.95633 26.642791 
L 249.163372 26.625154 
L 250.370413 26.720065 
L 251.577454 26.629881 
L 252.784496 26.711952 
L 253.991537 26.48078 
L 256.40562 26.518213 
L 262.440827 26.732372 
L 263.647868 26.488754 
L 266.061951 26.592543 
L 268.476034 26.583376 
L 272.097158 26.573001 
L 273.3042 26.415804 
L 274.511241 26.545926 
L 276.925324 26.33253 
L 278.132365 26.229386 
L 285.374614 26.3327 
L 287.788697 26.231419 
L 290.20278 26.164145 
L 295.030945 26.385615 
L 297.445028 26.585728 
L 299.859111 26.478848 
L 301.066152 26.349571 
L 304.687277 26.651796 
L 311.929525 26.683682 
L 330.035146 26.166776 
L 332.449229 26.244374 
L 334.863312 26.230703 
L 336.070353 26.082095 
L 337.277395 26.221048 
L 340.898519 26.013001 
L 344.519643 26.201116 
L 355.383016 26.349847 
L 360.211182 26.316102 
L 361.418223 26.339693 
L 362.625264 26.229441 
L 371.074554 26.451538 
L 373.488637 26.342671 
L 378.316803 26.454681 
L 380.730886 26.390986 
L 383.144968 26.414061 
L 384.35201 26.517126 
L 387.973134 26.573648 
L 397.629465 26.747797 
L 400.043548 26.728977 
L 404.871714 26.787009 
L 407.285797 26.886657 
L 409.699879 26.832209 
L 413.321004 26.972114 
L 425.391418 27.288158 
L 427.805501 27.199724 
L 439.875915 27.305376 
L 445.911122 27.475013 
L 449.532246 27.547474 
L 450.739288 27.44102 
L 454.360412 27.552927 
L 456.774495 27.546339 
L 460.395619 27.612072 
L 461.60266 27.484741 
L 466.430826 27.534705 
L 468.844909 27.463168 
L 478.50124 27.728521 
L 479.708281 27.666202 
L 484.536447 27.859043 
L 490.571654 27.851872 
L 494.192778 27.876212 
L 497.813903 27.728531 
L 515.919524 28.125714 
L 515.919524 28.125714 
" clip-path="url(#pe855962919)" style="fill: none; stroke: #ff8c00; stroke-width: 1.5; stroke-linecap: square"/>
   </g>
   <g id="line2d_28">
    <path d="M 34.31 98.44 
L 35.517041 98.182385 
L 36.724083 78.561402 
L 37.931124 78.069521 
L 39.138166 9.88095 
L 40.345207 22.204878 
L 41.552248 32.558543 
L 42.75929 39.727846 
L 43.966331 35.76841 
L 45.173373 41.8883 
L 46.380414 42.756267 
L 47.587456 25.671969 
L 48.794497 31.186685 
L 50.001538 22.256809 
L 51.20858 18.436563 
L 52.415621 23.04902 
L 53.622663 24.173477 
L 54.829704 27.356994 
L 56.036745 31.098175 
L 57.243787 34.435686 
L 58.450828 28.04102 
L 59.65787 20.640324 
L 60.864911 12.286702 
L 62.071953 14.202332 
L 63.278994 16.418936 
L 64.486035 17.624096 
L 65.693077 20.231625 
L 66.900118 20.350613 
L 68.10716 22.942344 
L 69.314201 23.658407 
L 70.521242 25.309407 
L 71.728284 26.61764 
L 72.935325 28.788661 
L 74.142367 28.235299 
L 75.349408 27.964631 
L 76.556449 29.579932 
L 77.763491 28.757966 
L 78.970532 29.373195 
L 80.177574 30.271909 
L 81.384615 24.919587 
L 82.591657 24.980754 
L 83.798698 24.304946 
L 85.005739 24.913209 
L 86.212781 21.700691 
L 87.419822 22.488348 
L 88.626864 20.247646 
L 89.833905 21.566797 
L 91.040946 22.610809 
L 92.247988 18.673037 
L 93.455029 20.229424 
L 94.662071 20.334965 
L 95.869112 21.258735 
L 97.076153 22.682966 
L 98.283195 23.486184 
L 99.490236 24.846174 
L 100.697278 23.407599 
L 101.904319 20.293955 
L 103.111361 21.560223 
L 104.318402 21.439163 
L 105.525443 21.895668 
L 106.732485 22.223426 
L 107.939526 23.450664 
L 109.146568 23.50087 
L 110.353609 21.425469 
L 111.56065 21.629311 
L 112.767692 22.395153 
L 113.974733 22.455274 
L 115.181775 23.521109 
L 116.388816 24.041121 
L 117.595858 24.848775 
L 118.802899 25.161746 
L 120.00994 25.796211 
L 122.424023 27.653086 
L 123.631065 28.120759 
L 124.838106 28.881411 
L 126.045147 26.331964 
L 127.252189 27.234573 
L 128.45923 27.602279 
L 129.666272 28.448325 
L 130.873313 28.822064 
L 132.080354 26.983854 
L 133.287396 27.796957 
L 135.701479 28.833718 
L 136.90852 29.634976 
L 138.115562 30.206996 
L 139.322603 30.63814 
L 140.529644 20.511119 
L 141.736686 21.131372 
L 142.943727 20.878881 
L 144.150769 20.910104 
L 148.978934 23.863227 
L 150.185976 24.450378 
L 151.393017 24.523367 
L 153.8071 25.588441 
L 155.014141 25.490286 
L 156.221183 23.969298 
L 157.428224 23.839504 
L 158.635266 23.092431 
L 159.842307 21.542844 
L 161.049348 21.915472 
L 162.25639 22.468366 
L 164.670473 23.861448 
L 165.877514 24.344682 
L 167.084555 25.002906 
L 168.291597 23.934595 
L 169.498638 23.979868 
L 170.70568 24.239348 
L 171.912721 24.817578 
L 174.326804 25.653474 
L 175.533845 25.677194 
L 176.740887 24.524307 
L 180.362011 26.178971 
L 181.569052 25.901646 
L 182.776094 26.445552 
L 183.983135 26.54336 
L 185.190177 24.596421 
L 186.397218 24.924474 
L 190.018342 26.385127 
L 192.432425 26.860949 
L 193.639467 27.217875 
L 194.846508 27.094627 
L 196.053549 26.457721 
L 197.260591 26.982009 
L 198.467632 27.264929 
L 199.674674 26.80085 
L 200.881715 25.017184 
L 202.088756 24.131445 
L 203.295798 24.580717 
L 204.502839 24.487891 
L 205.709881 24.998001 
L 206.916922 21.797782 
L 208.123963 21.43581 
L 209.331005 21.349543 
L 210.538046 21.635024 
L 211.745088 22.090401 
L 214.159171 22.417433 
L 215.366212 22.399126 
L 217.780295 23.305979 
L 218.987336 22.752167 
L 220.194378 22.66211 
L 221.401419 22.867281 
L 222.60846 23.340412 
L 223.815502 23.157795 
L 226.229585 24.072255 
L 227.436626 23.824601 
L 229.850709 24.672761 
L 233.471833 25.143507 
L 234.678875 25.579606 
L 235.885916 25.790632 
L 237.092957 26.219012 
L 239.50704 26.942687 
L 240.714082 26.662632 
L 243.128164 27.446613 
L 244.335206 27.186104 
L 245.542247 27.267675 
L 246.749289 27.533596 
L 247.95633 26.779003 
L 249.163372 27.165178 
L 251.577454 27.167935 
L 252.784496 27.247629 
L 253.991537 25.148297 
L 255.198579 25.493833 
L 258.819703 26.05075 
L 261.233786 26.755776 
L 262.440827 26.844402 
L 263.647868 24.334256 
L 264.85491 24.260619 
L 267.268993 24.925517 
L 272.097158 26.255466 
L 273.3042 25.366427 
L 274.511241 24.869757 
L 275.718283 24.079932 
L 276.925324 24.2433 
L 278.132365 24.058998 
L 279.339407 24.405384 
L 280.546448 24.603831 
L 281.75349 24.961817 
L 285.374614 25.675086 
L 286.581655 25.488861 
L 287.788697 25.834485 
L 288.995738 25.934095 
L 291.409821 26.5074 
L 292.616862 26.791876 
L 293.823904 26.640285 
L 295.030945 26.811601 
L 296.237987 26.013803 
L 297.445028 26.158985 
L 298.652069 26.434679 
L 299.859111 26.43397 
L 302.273194 25.268757 
L 303.480235 25.363023 
L 304.687277 24.93494 
L 308.308401 25.862775 
L 309.515442 25.913185 
L 311.929525 26.466293 
L 313.136566 26.700705 
L 315.550649 26.608715 
L 317.964732 27.053652 
L 321.585856 26.916346 
L 323.999939 27.406314 
L 330.035146 28.580953 
L 331.242188 28.372853 
L 334.863312 29.181981 
L 336.070353 28.045386 
L 337.277395 27.084842 
L 338.484436 26.717567 
L 339.691478 26.992316 
L 342.10556 26.440036 
L 343.312602 25.633678 
L 345.726685 26.090078 
L 346.933726 25.988464 
L 350.55485 26.755491 
L 354.175974 27.483979 
L 356.590057 27.937034 
L 357.797099 28.146805 
L 359.00414 27.758465 
L 360.211182 27.695145 
L 361.418223 27.916651 
L 362.625264 27.329086 
L 363.832306 27.467536 
L 365.039347 27.408215 
L 368.660471 27.746348 
L 369.867513 27.536287 
L 371.074554 27.712924 
L 372.281596 27.311034 
L 373.488637 27.550455 
L 374.695678 27.617537 
L 375.90272 27.062992 
L 377.109761 27.190733 
L 379.523844 27.668582 
L 380.730886 27.450958 
L 383.144968 27.884804 
L 384.35201 27.339137 
L 385.559051 27.567407 
L 386.766093 27.660235 
L 387.973134 26.901122 
L 389.180175 27.053629 
L 390.387217 26.946179 
L 391.594258 27.18689 
L 395.215383 27.536215 
L 397.629465 27.995841 
L 398.836507 27.970001 
L 400.043548 28.083889 
L 403.664672 28.717421 
L 404.871714 28.783376 
L 406.078755 28.706222 
L 407.285797 28.818919 
L 408.492838 28.702865 
L 410.906921 29.12636 
L 412.113962 28.906502 
L 414.528045 28.97786 
L 415.735087 29.051285 
L 416.942128 28.957268 
L 418.149169 29.168976 
L 419.356211 28.915744 
L 424.184376 29.361969 
L 425.391418 29.55951 
L 426.598459 29.237653 
L 429.012542 29.653801 
L 430.219583 28.984146 
L 431.426625 28.559577 
L 433.840708 28.874108 
L 435.047749 28.87137 
L 437.461832 29.276423 
L 441.082956 29.428585 
L 444.70408 29.936409 
L 445.911122 29.782769 
L 447.118163 29.948213 
L 448.325205 29.714328 
L 449.532246 29.885949 
L 450.739288 29.083829 
L 451.946329 29.002601 
L 453.15337 29.174578 
L 454.360412 28.896336 
L 459.188577 29.32028 
L 460.395619 29.515429 
L 461.60266 28.241176 
L 466.430826 28.933238 
L 467.637867 28.556966 
L 468.844909 28.745779 
L 470.05195 28.77538 
L 473.673074 29.255702 
L 474.880116 29.23406 
L 476.087157 28.821891 
L 478.50124 29.03377 
L 480.915323 28.673729 
L 482.122364 28.709278 
L 483.329406 28.504915 
L 491.778696 29.337964 
L 494.192778 29.151412 
L 495.39982 28.832036 
L 496.606861 28.710201 
L 500.227985 29.066531 
L 502.642068 28.259137 
L 506.263193 28.636665 
L 507.470234 28.330515 
L 508.677275 27.734437 
L 509.884317 27.638766 
L 515.919524 28.125714 
L 515.919524 28.125714 
" clip-path="url(#pe855962919)" style="fill: none; stroke-dasharray: 5.55,2.4; stroke-dashoffset: 0; stroke: #ff8c00; stroke-width: 1.5"/>
   </g>
   <g id="patch_3">
    <path d="M 34.31 98.44 
L 34.31 0 
" style="fill: none; stroke: #000000; stroke-width: 0.8; stroke-linejoin: miter; stroke-linecap: square"/>
   </g>
   <g id="patch_4">
    <path d="M 540 98.44 
L 540 0 
" style="fill: none; stroke: #000000; stroke-width: 0.8; stroke-linejoin: miter; stroke-linecap: square"/>
   </g>
   <g id="patch_5">
    <path d="M 34.31 98.44 
L 540 98.44 
" style="fill: none; stroke: #000000; stroke-width: 0.8; stroke-linejoin: miter; stroke-linecap: square"/>
   </g>
   <g id="patch_6">
    <path d="M 34.31 0 
L 540 0 
" style="fill: none; stroke: #000000; stroke-width: 0.8; stroke-linejoin: miter; stroke-linecap: square"/>
   </g>
  </g>
 </g>
 <defs>
  <clipPath id="pe855962919">
   <rect x="34.31" y="0" width="505.69" height="98.44"/>
  </clipPath>
 </defs>
</svg>
