<?xml version="1.0" encoding="utf-8" standalone="no"?>
<!DOCTYPE svg PUBLIC "-//W3C//DTD SVG 1.1//EN"
  "http://www.w3.org/Graphics/SVG/1.1/DTD/svg11.dtd">
<svg xmlns:xlink="http://www.w3.org/1999/xlink" width="540pt" height="129.6pt" viewBox="0 0 540 129.6" xmlns="http://www.w3.org/2000/svg" version="1.1">
 <metadata>
  <rdf:RDF xmlns:dc="http://purl.org/dc/elements/1.1/" xmlns:cc="http://creativecommons.org/ns#" xmlns:rdf="http://www.w3.org/1999/02/22-rdf-syntax-ns#">
   <cc:Work>
    <dc:type rdf:resource="http://purl.org/dc/dcmitype/StillImage"/>
    <dc:date>2025-03-30T12:36:58.026418</dc:date>
    <dc:format>image/svg+xml</dc:format>
    <dc:creator>
     <cc:Agent>
      <dc:title>Matplotlib v3.8.3, https://matplotlib.org/</dc:title>
     </cc:Agent>
    </dc:creator>
   </cc:Work>
  </rdf:RDF>
 </metadata>
 <defs>
  <style type="text/css">*{stroke-linejoin: round; stroke-linecap: butt}</style>
 </defs>
 <g id="figure_1">
  <g id="patch_1">
   <path d="M 0 129.6 
L 540 129.6 
L 540 0 
L 0 0 
z
" style="fill: #ffffff"/>
  </g>
  <g id="axes_1">
   <g id="patch_2">
    <path d="M 35.03 97 
L 540 97 
L 540 0 
L 35.03 0 
z
" style="fill: #ffffff"/>
   </g>
   <g id="matplotlib.axis_1">
    <g id="xtick_1">
     <g id="line2d_1">
      <path d="M 35.03 97 
L 35.03 0 
" clip-path="url(#p2f80dcc4d9)" style="fill: none; stroke: #b0b0b0; stroke-width: 0.8; stroke-linecap: square"/>
     </g>
     <g id="line2d_2">
      <defs>
       <path id="mb6716e2616" d="M 0 0 
L 0 3.5 
" style="stroke: #000000; stroke-width: 0.8"/>
      </defs>
      <g>
       <use xlink:href="#mb6716e2616" x="35.03" y="97" style="stroke: #000000; stroke-width: 0.8"/>
      </g>
     </g>
     <g id="text_1">
      <text style="font: 10px 'Times New Roman'; text-anchor: middle" x="35.03" y="110.94375" transform="rotate(-0 35.03 110.94375)">0</text>
     </g>
    </g>
    <g id="xtick_2">
     <g id="line2d_3">
      <path d="M 95.296142 97 
L 95.296142 0 
" clip-path="url(#p2f80dcc4d9)" style="fill: none; stroke: #b0b0b0; stroke-width: 0.8; stroke-linecap: square"/>
     </g>
     <g id="line2d_4">
      <g>
       <use xlink:href="#mb6716e2616" x="95.296142" y="97" style="stroke: #000000; stroke-width: 0.8"/>
      </g>
     </g>
     <g id="text_2">
      <text style="font: 10px 'Times New Roman'; text-anchor: middle" x="95.296142" y="110.94375" transform="rotate(-0 95.296142 110.94375)">50</text>
     </g>
    </g>
    <g id="xtick_3">
     <g id="line2d_5">
      <path d="M 155.562283 97 
L 155.562283 0 
" clip-path="url(#p2f80dcc4d9)" style="fill: none; stroke: #b0b0b0; stroke-width: 0.8; stroke-linecap: square"/>
     </g>
     <g id="line2d_6">
      <g>
       <use xlink:href="#mb6716e2616" x="155.562283" y="97" style="stroke: #000000; stroke-width: 0.8"/>
      </g>
     </g>
     <g id="text_3">
      <text style="font: 10px 'Times New Roman'; text-anchor: middle" x="155.562283" y="110.94375" transform="rotate(-0 155.562283 110.94375)">100</text>
     </g>
    </g>
    <g id="xtick_4">
     <g id="line2d_7">
      <path d="M 215.828425 97 
L 215.828425 0 
" clip-path="url(#p2f80dcc4d9)" style="fill: none; stroke: #b0b0b0; stroke-width: 0.8; stroke-linecap: square"/>
     </g>
     <g id="line2d_8">
      <g>
       <use xlink:href="#mb6716e2616" x="215.828425" y="97" style="stroke: #000000; stroke-width: 0.8"/>
      </g>
     </g>
     <g id="text_4">
      <text style="font: 10px 'Times New Roman'; text-anchor: middle" x="215.828425" y="110.94375" transform="rotate(-0 215.828425 110.94375)">150</text>
     </g>
    </g>
    <g id="xtick_5">
     <g id="line2d_9">
      <path d="M 276.094566 97 
L 276.094566 0 
" clip-path="url(#p2f80dcc4d9)" style="fill: none; stroke: #b0b0b0; stroke-width: 0.8; stroke-linecap: square"/>
     </g>
     <g id="line2d_10">
      <g>
       <use xlink:href="#mb6716e2616" x="276.094566" y="97" style="stroke: #000000; stroke-width: 0.8"/>
      </g>
     </g>
     <g id="text_5">
      <text style="font: 10px 'Times New Roman'; text-anchor: middle" x="276.094566" y="110.94375" transform="rotate(-0 276.094566 110.94375)">200</text>
     </g>
    </g>
    <g id="xtick_6">
     <g id="line2d_11">
      <path d="M 336.360708 97 
L 336.360708 0 
" clip-path="url(#p2f80dcc4d9)" style="fill: none; stroke: #b0b0b0; stroke-width: 0.8; stroke-linecap: square"/>
     </g>
     <g id="line2d_12">
      <g>
       <use xlink:href="#mb6716e2616" x="336.360708" y="97" style="stroke: #000000; stroke-width: 0.8"/>
      </g>
     </g>
     <g id="text_6">
      <text style="font: 10px 'Times New Roman'; text-anchor: middle" x="336.360708" y="110.94375" transform="rotate(-0 336.360708 110.94375)">250</text>
     </g>
    </g>
    <g id="xtick_7">
     <g id="line2d_13">
      <path d="M 396.626849 97 
L 396.626849 0 
" clip-path="url(#p2f80dcc4d9)" style="fill: none; stroke: #b0b0b0; stroke-width: 0.8; stroke-linecap: square"/>
     </g>
     <g id="line2d_14">
      <g>
       <use xlink:href="#mb6716e2616" x="396.626849" y="97" style="stroke: #000000; stroke-width: 0.8"/>
      </g>
     </g>
     <g id="text_7">
      <text style="font: 10px 'Times New Roman'; text-anchor: middle" x="396.626849" y="110.94375" transform="rotate(-0 396.626849 110.94375)">300</text>
     </g>
    </g>
    <g id="xtick_8">
     <g id="line2d_15">
      <path d="M 456.892991 97 
L 456.892991 0 
" clip-path="url(#p2f80dcc4d9)" style="fill: none; stroke: #b0b0b0; stroke-width: 0.8; stroke-linecap: square"/>
     </g>
     <g id="line2d_16">
      <g>
       <use xlink:href="#mb6716e2616" x="456.892991" y="97" style="stroke: #000000; stroke-width: 0.8"/>
      </g>
     </g>
     <g id="text_8">
      <text style="font: 10px 'Times New Roman'; text-anchor: middle" x="456.892991" y="110.94375" transform="rotate(-0 456.892991 110.94375)">350</text>
     </g>
    </g>
    <g id="xtick_9">
     <g id="line2d_17">
      <path d="M 517.159132 97 
L 517.159132 0 
" clip-path="url(#p2f80dcc4d9)" style="fill: none; stroke: #b0b0b0; stroke-width: 0.8; stroke-linecap: square"/>
     </g>
     <g id="line2d_18">
      <g>
       <use xlink:href="#mb6716e2616" x="517.159132" y="97" style="stroke: #000000; stroke-width: 0.8"/>
      </g>
     </g>
     <g id="text_9">
      <text style="font: 10px 'Times New Roman'; text-anchor: middle" x="517.159132" y="110.94375" transform="rotate(-0 517.159132 110.94375)">400</text>
     </g>
    </g>
    <g id="text_10">
     <text style="font: 12px 'Times New Roman'; text-anchor: middle" x="287.515" y="125.415312" transform="rotate(-0 287.515 125.415312)">Simulation Run</text>
    </g>
   </g>
   <g id="matplotlib.axis_2">
    <g id="ytick_1">
     <g id="line2d_19">
      <path d="M 35.03 97 
L 540 97 
" clip-path="url(#p2f80dcc4d9)" style="fill: none; stroke: #b0b0b0; stroke-width: 0.8; stroke-linecap: square"/>
     </g>
     <g id="line2d_20">
      <defs>
       <path id="m9dc821ea52" d="M 0 0 
L -3.5 0 
" style="stroke: #000000; stroke-width: 0.8"/>
      </defs>
      <g>
       <use xlink:href="#m9dc821ea52" x="35.03" y="97" style="stroke: #000000; stroke-width: 0.8"/>
      </g>
     </g>
     <g id="text_11">
      <text style="font: 10px 'Times New Roman'; text-anchor: end" x="28.03" y="100.471875" transform="rotate(-0 28.03 100.471875)">0.0</text>
     </g>
    </g>
    <g id="ytick_2">
     <g id="line2d_21">
      <path d="M 35.03 56.583333 
L 540 56.583333 
" clip-path="url(#p2f80dcc4d9)" style="fill: none; stroke: #b0b0b0; stroke-width: 0.8; stroke-linecap: square"/>
     </g>
     <g id="line2d_22">
      <g>
       <use xlink:href="#m9dc821ea52" x="35.03" y="56.583333" style="stroke: #000000; stroke-width: 0.8"/>
      </g>
     </g>
     <g id="text_12">
      <text style="font: 10px 'Times New Roman'; text-anchor: end" x="28.03" y="60.055208" transform="rotate(-0 28.03 60.055208)">0.5</text>
     </g>
    </g>
    <g id="ytick_3">
     <g id="line2d_23">
      <path d="M 35.03 16.166667 
L 540 16.166667 
" clip-path="url(#p2f80dcc4d9)" style="fill: none; stroke: #b0b0b0; stroke-width: 0.8; stroke-linecap: square"/>
     </g>
     <g id="line2d_24">
      <g>
       <use xlink:href="#m9dc821ea52" x="35.03" y="16.166667" style="stroke: #000000; stroke-width: 0.8"/>
      </g>
     </g>
     <g id="text_13">
      <text style="font: 10px 'Times New Roman'; text-anchor: end" x="28.03" y="19.638542" transform="rotate(-0 28.03 19.638542)">1.0</text>
     </g>
    </g>
    <g id="text_14">
     <text style="font: 12px 'Times New Roman'; text-anchor: middle" x="8.963125" y="48.5" transform="rotate(-90 8.963125 48.5)">Normalized Value</text>
    </g>
   </g>
   <g id="line2d_25">
    <path d="M 35.03 14.864162 
L 36.235323 17.88048 
L 37.440646 15.13626 
L 38.645968 12.109165 
L 39.851291 15.291635 
L 41.056614 9.236235 
L 42.261937 11.834436 
L 43.46726 13.873108 
L 44.672583 13.956664 
L 45.877905 14.358683 
L 47.083228 15.414322 
L 49.493874 16.193594 
L 51.90452 14.369822 
L 53.109842 16.384494 
L 54.315165 15.256738 
L 55.520488 14.650414 
L 56.725811 13.306451 
L 57.931134 13.069671 
L 59.136457 12.699836 
L 60.341779 13.81776 
L 61.547102 14.750358 
L 62.752425 15.358494 
L 63.957748 15.298781 
L 65.163071 16.805003 
L 66.368394 17.887031 
L 67.573716 17.645167 
L 68.779039 17.606296 
L 69.984362 17.703247 
L 71.189685 17.988803 
L 72.395008 18.053099 
L 73.600331 17.831381 
L 74.805653 17.24678 
L 76.010976 16.985021 
L 77.216299 17.650236 
L 78.421622 17.407853 
L 79.626945 17.384459 
L 80.832268 17.623292 
L 82.03759 16.747706 
L 83.242913 17.338028 
L 84.448236 17.459666 
L 85.653559 17.435611 
L 86.858882 16.718041 
L 88.064205 16.823842 
L 89.269527 16.79915 
L 90.47485 16.608842 
L 91.680173 17.012086 
L 92.885496 16.538586 
L 94.090819 16.530925 
L 95.296142 17.028181 
L 97.706787 17.611342 
L 98.91211 17.090578 
L 100.117433 17.67765 
L 101.322756 17.402944 
L 102.528079 17.75654 
L 103.733401 17.429485 
L 106.144047 17.713807 
L 108.554693 18.457245 
L 109.760016 18.361805 
L 110.965338 17.542459 
L 112.170661 16.982605 
L 113.375984 16.703473 
L 114.581307 16.621623 
L 115.78663 15.490519 
L 118.197275 16.069107 
L 119.402598 15.373048 
L 120.607921 15.046973 
L 121.813244 14.905471 
L 123.018567 14.550247 
L 124.223889 14.443017 
L 125.429212 14.055574 
L 126.634535 14.043729 
L 131.455826 15.019907 
L 132.661149 14.594977 
L 133.866472 14.603835 
L 135.071795 14.967445 
L 136.277118 14.676006 
L 137.482441 14.886013 
L 138.687763 15.300672 
L 139.893086 15.581229 
L 141.098409 15.274492 
L 142.303732 15.249473 
L 143.509055 15.42272 
L 144.714378 15.454683 
L 145.9197 15.710464 
L 147.125023 16.095608 
L 148.330346 16.089893 
L 149.535669 16.346009 
L 150.740992 16.38908 
L 151.946315 16.183599 
L 154.35696 16.081746 
L 155.562283 15.69412 
L 156.767606 15.92498 
L 157.972929 16.32362 
L 160.383574 16.603843 
L 161.588897 16.792302 
L 162.79422 16.850953 
L 166.410189 16.774308 
L 170.026157 17.420155 
L 171.23148 17.513953 
L 172.436803 17.363778 
L 173.642126 17.452427 
L 174.847448 17.804016 
L 176.052771 17.707143 
L 177.258094 17.125749 
L 179.66874 17.102879 
L 180.874063 16.750749 
L 183.284708 16.520386 
L 185.695354 16.548386 
L 188.106 16.841635 
L 191.721968 16.82462 
L 195.337937 16.474812 
L 196.543259 16.442147 
L 197.748582 16.60346 
L 198.953905 16.482952 
L 200.159228 16.684675 
L 203.775196 16.789468 
L 204.980519 16.649115 
L 206.185842 16.658421 
L 207.391165 16.546164 
L 208.596488 16.678557 
L 211.007133 16.78092 
L 212.212456 16.537739 
L 215.828425 16.731221 
L 218.23907 16.570128 
L 219.444393 16.686036 
L 220.649716 16.569749 
L 223.060362 16.661039 
L 225.471007 16.795664 
L 226.67633 16.950346 
L 227.881653 16.721969 
L 231.497621 16.879781 
L 235.11359 17.296709 
L 236.318913 17.154077 
L 237.524236 17.334224 
L 239.934881 17.129233 
L 242.345527 17.151757 
L 244.756173 17.518156 
L 250.782787 17.385029 
L 261.630692 16.879988 
L 264.041338 16.83285 
L 267.657306 16.932827 
L 268.862629 16.994611 
L 273.683921 16.752925 
L 278.505212 16.867741 
L 282.12118 17.04935 
L 283.326503 17.197492 
L 285.737149 16.674531 
L 290.55844 16.603162 
L 292.969086 16.64182 
L 297.790377 16.159605 
L 298.9957 16.297995 
L 302.611668 16.250923 
L 305.022314 16.405284 
L 307.43296 16.333573 
L 315.87022 16.457412 
L 327.923448 15.767215 
L 329.128771 15.894084 
L 337.566031 15.98533 
L 339.976676 16.144697 
L 342.387322 16.105651 
L 343.592645 16.165564 
L 346.00329 15.944646 
L 349.619259 15.853106 
L 350.824582 15.807917 
L 353.235227 15.870809 
L 355.645873 16.018239 
L 361.672487 15.981525 
L 368.904424 16.360761 
L 370.109747 16.24882 
L 383.368298 16.42632 
L 384.573621 16.370717 
L 386.984267 16.47659 
L 389.394912 16.551172 
L 391.805558 16.494642 
L 393.010881 16.613598 
L 397.832172 16.674989 
L 408.680078 16.850809 
L 412.296046 16.689422 
L 413.501369 16.434388 
L 414.706692 16.349492 
L 421.938629 16.665791 
L 427.965243 16.702337 
L 432.786534 16.980632 
L 438.813148 16.962898 
L 442.429117 17.151214 
L 446.045085 17.055501 
L 447.250408 17.038466 
L 448.455731 16.788028 
L 449.661054 16.772996 
L 450.866377 16.881886 
L 453.277022 16.830966 
L 454.482345 16.703168 
L 460.508959 16.596043 
L 461.714282 16.545855 
L 465.330251 16.702399 
L 468.946219 16.658146 
L 472.562188 16.743386 
L 483.410093 16.479 
L 487.026062 16.545864 
L 490.64203 16.599371 
L 494.257999 16.443975 
L 500.284613 16.49006 
L 502.695258 16.494323 
L 503.900581 16.524511 
L 505.105904 16.295 
L 508.721873 16.363992 
L 512.337841 16.222001 
L 515.95381 16.166667 
L 515.95381 16.166667 
" clip-path="url(#p2f80dcc4d9)" style="fill: none; stroke: #4169e1; stroke-width: 1.5; stroke-linecap: square"/>
   </g>
   <g id="line2d_26">
    <path d="M 35.03 97 
L 36.235323 95.397446 
L 37.440646 93.2787 
L 38.645968 89.366944 
L 39.851291 83.75768 
L 41.056614 53.671312 
L 42.261937 52.726765 
L 43.46726 53.136423 
L 44.672583 58.000316 
L 45.877905 61.644076 
L 47.083228 62.89539 
L 48.288551 65.504885 
L 49.493874 67.531616 
L 50.699197 67.526992 
L 51.90452 67.651231 
L 53.109842 58.761492 
L 54.315165 57.426484 
L 55.520488 58.524191 
L 56.725811 54.822521 
L 57.931134 56.743764 
L 59.136457 58.178886 
L 60.341779 55.320709 
L 61.547102 53.762537 
L 62.752425 54.065839 
L 63.957748 55.768133 
L 65.163071 47.363732 
L 66.368394 43.840328 
L 69.984362 48.841421 
L 71.189685 49.964035 
L 72.395008 51.411336 
L 73.600331 52.515726 
L 74.805653 51.837578 
L 76.010976 52.717593 
L 77.216299 51.219617 
L 78.421622 52.084391 
L 79.626945 53.262814 
L 80.832268 54.002486 
L 82.03759 49.810942 
L 83.242913 48.506644 
L 85.653559 50.6535 
L 86.858882 47.806909 
L 89.269527 49.856039 
L 90.47485 50.565655 
L 91.680173 50.186893 
L 92.885496 49.246692 
L 94.090819 50.201252 
L 95.296142 48.94122 
L 96.501464 49.248068 
L 97.706787 49.205217 
L 98.91211 47.558577 
L 100.117433 45.179308 
L 101.322756 45.373611 
L 102.528079 45.046063 
L 103.733401 44.867895 
L 104.938724 45.632962 
L 106.144047 46.164936 
L 108.554693 44.884177 
L 109.760016 45.611936 
L 110.965338 38.965266 
L 112.170661 36.32475 
L 113.375984 36.352018 
L 114.581307 37.179329 
L 115.78663 22.960405 
L 116.991953 22.727657 
L 118.197275 23.038737 
L 119.402598 18.106664 
L 120.607921 17.872711 
L 121.813244 18.702716 
L 123.018567 18.138284 
L 124.223889 19.039899 
L 125.429212 18.08264 
L 126.634535 19.105663 
L 127.839858 19.325186 
L 129.045181 19.808246 
L 130.250504 19.779936 
L 131.455826 19.640047 
L 132.661149 18.007266 
L 133.866472 18.957852 
L 135.071795 17.954026 
L 136.277118 17.627274 
L 137.482441 17.889907 
L 138.687763 16.194632 
L 139.893086 15.906676 
L 141.098409 15.359457 
L 142.303732 16.256761 
L 143.509055 16.668241 
L 144.714378 17.525036 
L 145.9197 17.319418 
L 147.125023 15.737186 
L 148.330346 16.592044 
L 149.535669 16.33199 
L 150.740992 17.13225 
L 151.946315 17.22583 
L 154.35696 18.72663 
L 155.562283 16.855047 
L 156.767606 16.692635 
L 157.972929 14.617223 
L 159.178252 15.26858 
L 161.588897 15.48396 
L 166.410189 18.193195 
L 167.615511 17.760755 
L 168.820834 18.089662 
L 170.026157 17.414361 
L 171.23148 17.937366 
L 172.436803 18.172012 
L 173.642126 18.692377 
L 174.847448 16.835946 
L 176.052771 17.321908 
L 177.258094 10.965906 
L 179.66874 12.294537 
L 180.874063 10.346129 
L 183.284708 11.1735 
L 185.695354 12.526751 
L 188.106 12.888786 
L 190.516645 14.145425 
L 191.721968 14.705836 
L 192.927291 14.892205 
L 194.132614 15.473681 
L 195.337937 15.38178 
L 196.543259 15.961175 
L 197.748582 15.938276 
L 198.953905 16.182086 
L 200.159228 15.78577 
L 202.569873 16.927326 
L 203.775196 17.336278 
L 204.980519 17.408052 
L 206.185842 17.962473 
L 207.391165 18.193935 
L 208.596488 18.292846 
L 209.80181 18.831909 
L 211.007133 19.088763 
L 212.212456 18.083977 
L 213.417779 18.354653 
L 214.623102 18.030844 
L 218.23907 19.041502 
L 220.649716 19.320884 
L 221.855039 19.591455 
L 224.265684 20.525768 
L 225.471007 20.760601 
L 226.67633 20.567007 
L 227.881653 19.571863 
L 230.292299 20.415164 
L 231.497621 20.73677 
L 232.702944 20.401197 
L 233.908267 20.272307 
L 235.11359 20.389287 
L 236.318913 20.246878 
L 237.524236 19.740699 
L 238.729558 19.731591 
L 239.934881 19.990858 
L 242.345527 20.752324 
L 243.55085 20.365946 
L 244.756173 19.554514 
L 249.577464 21.192344 
L 253.193432 22.098434 
L 255.604078 22.738352 
L 256.809401 23.137523 
L 258.014724 23.325812 
L 259.220047 23.719047 
L 260.425369 23.894611 
L 261.630692 23.798992 
L 262.836015 24.05852 
L 265.246661 24.808282 
L 266.451984 24.877684 
L 267.657306 24.084597 
L 276.094566 25.735212 
L 277.299889 25.904649 
L 278.505212 25.823665 
L 280.915858 26.486855 
L 283.326503 25.625171 
L 284.531826 23.897026 
L 285.737149 21.278957 
L 288.147794 21.912241 
L 289.353117 21.65532 
L 290.55844 21.8032 
L 292.969086 22.445333 
L 294.174409 22.081081 
L 295.379731 22.024471 
L 296.585054 21.256498 
L 297.790377 21.403214 
L 298.9957 21.008053 
L 301.406346 21.601023 
L 302.611668 21.937024 
L 305.022314 22.135816 
L 306.227637 22.320485 
L 309.843605 23.262213 
L 311.048928 23.485795 
L 312.254251 23.509748 
L 315.87022 24.214321 
L 317.075542 24.306262 
L 319.486188 24.820148 
L 320.691511 23.602194 
L 321.896834 23.8724 
L 323.102157 22.624366 
L 324.307479 22.668764 
L 326.718125 23.250579 
L 327.923448 23.241346 
L 329.128771 22.850633 
L 331.539416 23.445499 
L 332.744739 23.530967 
L 333.950062 23.823229 
L 335.155385 23.958945 
L 337.566031 24.478367 
L 338.771353 24.245797 
L 343.592645 24.844126 
L 344.797968 23.915871 
L 346.00329 24.047458 
L 348.413936 24.569716 
L 356.851196 25.281162 
L 358.056519 24.814871 
L 360.467164 25.33261 
L 361.672487 25.074396 
L 362.87781 25.089865 
L 364.083133 24.629281 
L 365.288456 24.892438 
L 366.493778 24.744578 
L 368.904424 25.047249 
L 370.109747 24.691552 
L 371.31507 24.919773 
L 372.520393 24.97931 
L 374.931038 25.423219 
L 376.136361 25.375387 
L 378.547007 25.764585 
L 380.957652 26.220654 
L 382.162975 25.768975 
L 384.573621 25.871137 
L 385.778944 25.547 
L 386.984267 25.790847 
L 388.189589 25.616556 
L 389.394912 25.846487 
L 390.600235 25.757683 
L 391.805558 25.969822 
L 393.010881 25.467905 
L 394.216204 25.700116 
L 395.421526 25.439513 
L 396.626849 24.974073 
L 397.832172 24.773038 
L 401.448141 25.445905 
L 402.653463 25.300792 
L 405.064109 25.48744 
L 406.269432 25.525463 
L 408.680078 25.964109 
L 412.296046 26.12099 
L 413.501369 22.748652 
L 414.706692 22.583734 
L 417.117337 22.731252 
L 418.32266 22.174443 
L 419.527983 22.403439 
L 420.733306 22.416627 
L 425.554597 23.145407 
L 426.75992 23.027773 
L 427.965243 23.247704 
L 429.170566 22.937775 
L 430.375889 22.813168 
L 437.607826 23.378143 
L 438.813148 23.407135 
L 440.018471 23.132587 
L 441.223794 22.58116 
L 444.839763 23.156325 
L 446.045085 23.108103 
L 447.250408 23.30605 
L 448.455731 19.731037 
L 449.661054 19.941314 
L 450.866377 19.443493 
L 453.277022 19.804094 
L 454.482345 19.024172 
L 456.892991 19.461726 
L 458.098314 19.411912 
L 459.303636 17.653356 
L 460.508959 17.877185 
L 461.714282 17.943008 
L 462.919605 17.874188 
L 464.124928 17.627984 
L 466.535573 17.964682 
L 471.356865 18.426033 
L 473.76751 18.736105 
L 476.178156 18.767603 
L 477.383479 18.975299 
L 478.588802 18.655084 
L 479.794125 18.730881 
L 480.999447 18.931826 
L 482.20477 18.624474 
L 485.820739 19.181442 
L 487.026062 18.772145 
L 490.64203 19.307807 
L 491.847353 19.109325 
L 493.052676 18.248178 
L 494.257999 18.296678 
L 496.668644 18.674155 
L 497.873967 18.644932 
L 501.489936 18.915779 
L 502.695258 18.930068 
L 503.900581 19.067805 
L 505.105904 15.648613 
L 508.721873 16.15609 
L 509.927195 15.933596 
L 511.132518 16.123483 
L 512.337841 16.160147 
L 514.748487 16.510732 
L 515.95381 16.166667 
L 515.95381 16.166667 
" clip-path="url(#p2f80dcc4d9)" style="fill: none; stroke-dasharray: 5.55,2.4; stroke-dashoffset: 0; stroke: #4169e1; stroke-width: 1.5"/>
   </g>
   <g id="line2d_27">
    <path d="M 35.03 11.782098 
L 36.235323 15.672135 
L 37.440646 13.983596 
L 38.645968 11.121339 
L 39.851291 13.635775 
L 41.056614 9.253829 
L 42.261937 11.811376 
L 43.46726 12.996969 
L 44.672583 13.26519 
L 45.877905 13.973104 
L 47.083228 14.363491 
L 48.288551 15.949577 
L 49.493874 16.012101 
L 50.699197 15.361897 
L 51.90452 14.505596 
L 53.109842 16.424466 
L 54.315165 15.150859 
L 55.520488 14.993685 
L 56.725811 13.381597 
L 57.931134 13.234979 
L 59.136457 12.819492 
L 60.341779 13.952894 
L 61.547102 14.865419 
L 62.752425 15.305987 
L 63.957748 15.401455 
L 65.163071 16.807669 
L 66.368394 17.964429 
L 67.573716 17.812818 
L 68.779039 17.526498 
L 69.984362 17.690171 
L 71.189685 17.981976 
L 72.395008 18.149837 
L 73.600331 17.890854 
L 74.805653 17.15278 
L 76.010976 16.819618 
L 77.216299 17.496838 
L 79.626945 17.275108 
L 80.832268 17.4543 
L 82.03759 16.666955 
L 83.242913 17.267942 
L 85.653559 17.573894 
L 86.858882 16.915506 
L 88.064205 17.109983 
L 90.47485 16.884421 
L 91.680173 17.290692 
L 92.885496 16.905313 
L 94.090819 16.944194 
L 95.296142 17.400738 
L 97.706787 17.982109 
L 98.91211 17.349735 
L 100.117433 17.924926 
L 101.322756 17.592507 
L 102.528079 17.926152 
L 103.733401 17.533105 
L 106.144047 17.884409 
L 108.554693 18.59688 
L 109.760016 18.482137 
L 110.965338 17.660219 
L 113.375984 16.971842 
L 114.581307 16.766598 
L 115.78663 15.67207 
L 118.197275 16.245644 
L 119.402598 15.611439 
L 120.607921 15.263805 
L 121.813244 15.185719 
L 123.018567 14.847127 
L 124.223889 14.725545 
L 125.429212 14.330541 
L 126.634535 14.376445 
L 130.250504 15.08298 
L 131.455826 15.407568 
L 132.661149 15.08932 
L 133.866472 15.059641 
L 135.071795 15.425177 
L 136.277118 15.167507 
L 137.482441 15.374243 
L 138.687763 15.784341 
L 139.893086 16.018385 
L 141.098409 15.612458 
L 142.303732 15.582211 
L 143.509055 15.745298 
L 144.714378 15.774979 
L 145.9197 16.008072 
L 147.125023 16.385782 
L 148.330346 16.355865 
L 149.535669 16.605718 
L 150.740992 16.611932 
L 151.946315 16.395897 
L 154.35696 16.280561 
L 155.562283 15.980479 
L 156.767606 16.224758 
L 157.972929 16.600825 
L 162.79422 17.183668 
L 163.999543 17.07904 
L 165.204866 17.184735 
L 166.410189 17.114992 
L 170.026157 17.751762 
L 171.23148 17.876694 
L 172.436803 17.766218 
L 173.642126 17.936681 
L 174.847448 18.271773 
L 176.052771 18.076778 
L 177.258094 17.576056 
L 179.66874 17.61998 
L 180.874063 17.372219 
L 184.490031 17.187019 
L 185.695354 17.167143 
L 188.106 17.484816 
L 192.927291 17.372233 
L 194.132614 17.325803 
L 195.337937 17.115024 
L 196.543259 17.098029 
L 197.748582 17.261692 
L 198.953905 17.156331 
L 201.364551 17.455115 
L 207.391165 17.138848 
L 208.596488 17.264267 
L 213.417779 17.306528 
L 214.623102 17.487902 
L 217.033747 17.438397 
L 218.23907 17.330725 
L 219.444393 17.431587 
L 220.649716 17.309157 
L 223.060362 17.377212 
L 225.471007 17.469469 
L 226.67633 17.626334 
L 227.881653 17.388541 
L 231.497621 17.502042 
L 235.11359 17.904201 
L 236.318913 17.78022 
L 237.524236 17.942526 
L 239.934881 17.658994 
L 242.345527 17.644913 
L 244.756173 17.990362 
L 248.372141 17.88584 
L 261.630692 17.121299 
L 262.836015 17.000451 
L 265.246661 17.046791 
L 266.451984 16.941848 
L 267.657306 17.121021 
L 270.067952 17.13434 
L 274.889243 16.929013 
L 276.094566 16.993751 
L 277.299889 16.914301 
L 279.710535 17.041904 
L 280.915858 17.039697 
L 283.326503 17.314925 
L 285.737149 16.799274 
L 289.353117 16.596918 
L 292.969086 16.72129 
L 297.790377 16.207076 
L 298.9957 16.339711 
L 302.611668 16.29545 
L 305.022314 16.47759 
L 307.43296 16.379473 
L 311.048928 16.437022 
L 312.254251 16.361487 
L 317.075542 16.441387 
L 319.486188 16.408982 
L 320.691511 16.21468 
L 321.896834 16.17796 
L 324.307479 15.933298 
L 326.718125 15.935286 
L 327.923448 15.849759 
L 329.128771 15.973879 
L 333.950062 15.96573 
L 336.360708 16.031203 
L 337.566031 15.961975 
L 339.976676 16.100867 
L 342.387322 16.068361 
L 343.592645 16.115655 
L 346.00329 15.903231 
L 353.235227 15.82614 
L 355.645873 15.98312 
L 360.467164 15.865785 
L 364.083133 16.160413 
L 366.493778 16.230225 
L 376.136361 16.432334 
L 378.547007 16.39984 
L 386.984267 16.44755 
L 389.394912 16.514225 
L 391.805558 16.426461 
L 393.010881 16.543335 
L 401.448141 16.6332 
L 405.064109 16.776072 
L 407.474755 16.746759 
L 409.8854 16.693713 
L 412.296046 16.623198 
L 413.501369 16.373287 
L 414.706692 16.296224 
L 423.143952 16.618943 
L 425.554597 16.594054 
L 431.581211 16.910109 
L 433.991857 16.972249 
L 436.402503 16.952159 
L 437.607826 17.031289 
L 438.813148 16.974947 
L 442.429117 17.145857 
L 447.250408 17.000569 
L 448.455731 16.76805 
L 449.661054 16.751695 
L 452.071699 16.854755 
L 458.098314 16.79022 
L 459.303636 16.612916 
L 462.919605 16.630443 
L 465.330251 16.702008 
L 468.946219 16.674543 
L 472.562188 16.766854 
L 488.231384 16.560318 
L 490.64203 16.596422 
L 493.052676 16.401632 
L 495.463321 16.421403 
L 497.873967 16.473812 
L 502.695258 16.519002 
L 503.900581 16.532795 
L 505.105904 16.307499 
L 508.721873 16.38774 
L 511.132518 16.282379 
L 515.95381 16.166667 
L 515.95381 16.166667 
" clip-path="url(#p2f80dcc4d9)" style="fill: none; stroke: #ff8c00; stroke-width: 1.5; stroke-linecap: square"/>
   </g>
   <g id="line2d_28">
    <path d="M 35.03 97 
L 36.235323 94.240988 
L 37.440646 94.120982 
L 38.645968 90.359637 
L 39.851291 87.076794 
L 41.056614 71.226146 
L 42.261937 67.75255 
L 43.46726 69.614508 
L 44.672583 72.552406 
L 47.083228 75.971977 
L 48.288551 72.678946 
L 49.493874 74.541243 
L 50.699197 75.14339 
L 51.90452 74.728835 
L 53.109842 66.050802 
L 54.315165 63.139429 
L 55.520488 64.944001 
L 56.725811 58.102203 
L 57.931134 59.972624 
L 59.136457 61.10634 
L 60.341779 57.819359 
L 61.547102 56.182777 
L 62.752425 57.069539 
L 63.957748 58.626876 
L 65.163071 51.089364 
L 66.368394 46.446592 
L 67.573716 48.138918 
L 68.779039 49.40527 
L 69.984362 50.850118 
L 71.189685 51.873073 
L 72.395008 53.12403 
L 73.600331 54.06228 
L 74.805653 52.047526 
L 76.010976 52.643805 
L 77.216299 50.949248 
L 79.626945 53.2046 
L 80.832268 54.10509 
L 82.03759 50.76946 
L 83.242913 49.26291 
L 84.448236 50.115712 
L 85.653559 51.11151 
L 86.858882 48.755993 
L 88.064205 49.524668 
L 89.269527 50.511552 
L 90.47485 51.308552 
L 92.885496 50.4882 
L 94.090819 51.40493 
L 95.296142 50.39883 
L 96.501464 50.664542 
L 97.706787 50.561985 
L 98.91211 47.557655 
L 100.117433 45.199254 
L 102.528079 44.791568 
L 103.733401 44.086219 
L 106.144047 45.195166 
L 107.34937 44.511999 
L 108.554693 44.086502 
L 109.760016 44.777567 
L 110.965338 37.833866 
L 112.170661 37.022038 
L 113.375984 36.834008 
L 114.581307 37.225093 
L 115.78663 23.469765 
L 116.991953 23.199728 
L 118.197275 23.496747 
L 119.402598 19.398615 
L 120.607921 18.912015 
L 121.813244 19.90167 
L 123.018567 19.41765 
L 124.223889 20.252641 
L 125.429212 19.128887 
L 126.634535 20.111002 
L 129.045181 20.58891 
L 130.250504 20.649939 
L 132.661149 19.498364 
L 133.866472 20.418949 
L 135.071795 19.308616 
L 136.277118 19.205792 
L 137.482441 19.448013 
L 138.687763 17.702353 
L 139.893086 17.734581 
L 141.098409 15.981426 
L 142.303732 16.866787 
L 143.509055 17.310933 
L 144.714378 18.162502 
L 145.9197 18.098849 
L 147.125023 16.519171 
L 148.330346 17.350999 
L 149.535669 17.099385 
L 150.740992 17.922427 
L 151.946315 17.903936 
L 154.35696 19.354914 
L 155.562283 18.481852 
L 156.767606 18.152783 
L 157.972929 16.288167 
L 159.178252 16.54717 
L 160.383574 16.566025 
L 161.588897 16.372236 
L 162.79422 17.125341 
L 166.410189 18.779418 
L 167.615511 18.367051 
L 168.820834 18.572313 
L 170.026157 18.049748 
L 172.436803 18.850339 
L 173.642126 18.914775 
L 174.847448 17.207347 
L 176.052771 17.07245 
L 177.258094 12.349969 
L 179.66874 13.67715 
L 180.874063 13.005879 
L 182.079385 13.517764 
L 183.284708 13.90019 
L 185.695354 15.204233 
L 188.106 15.322101 
L 190.516645 16.526364 
L 191.721968 17.091374 
L 192.927291 17.41711 
L 194.132614 17.963597 
L 195.337937 17.476082 
L 196.543259 18.058091 
L 197.748582 17.97925 
L 198.953905 18.280781 
L 200.159228 18.03062 
L 201.364551 18.251173 
L 203.775196 19.226835 
L 204.980519 18.581445 
L 207.391165 19.580669 
L 208.596488 19.701615 
L 209.80181 20.2286 
L 211.007133 20.383419 
L 212.212456 19.910218 
L 213.417779 20.116269 
L 214.623102 19.735147 
L 217.033747 20.680521 
L 221.855039 21.400478 
L 224.265684 22.344545 
L 225.471007 22.544708 
L 226.67633 22.296723 
L 227.881653 21.111171 
L 231.497621 22.373243 
L 232.702944 22.076376 
L 233.908267 21.980426 
L 235.11359 22.07009 
L 236.318913 22.048071 
L 238.729558 21.207246 
L 239.934881 21.270672 
L 242.345527 22.007438 
L 243.55085 21.612042 
L 244.756173 20.973588 
L 247.166818 21.724396 
L 250.782787 22.757156 
L 253.193432 23.245175 
L 255.604078 23.591315 
L 256.809401 23.987627 
L 258.014724 24.086853 
L 259.220047 24.472522 
L 262.836015 24.000422 
L 265.246661 24.706502 
L 266.451984 24.695555 
L 267.657306 23.938591 
L 270.067952 24.648743 
L 271.273275 24.8576 
L 272.478598 25.181283 
L 273.683921 25.256604 
L 274.889243 25.605851 
L 277.299889 25.929329 
L 278.505212 25.857537 
L 280.915858 26.535839 
L 283.326503 25.800888 
L 284.531826 23.897659 
L 285.737149 21.447288 
L 286.942472 21.618802 
L 288.147794 21.967951 
L 289.353117 21.49487 
L 291.763763 22.006253 
L 292.969086 22.327899 
L 294.174409 21.989848 
L 295.379731 22.002457 
L 296.585054 20.888551 
L 297.790377 20.852659 
L 298.9957 20.496343 
L 302.611668 21.460288 
L 306.227637 21.510032 
L 311.048928 22.718687 
L 312.254251 22.800996 
L 314.664897 23.322834 
L 317.075542 23.548788 
L 319.486188 24.051946 
L 320.691511 22.727089 
L 321.896834 22.979347 
L 323.102157 22.122441 
L 324.307479 22.145113 
L 326.718125 22.737921 
L 327.923448 22.71819 
L 329.128771 22.33602 
L 331.539416 22.887866 
L 332.744739 23.001704 
L 333.950062 23.272475 
L 335.155385 23.336429 
L 336.360708 23.628349 
L 337.566031 23.700183 
L 338.771353 23.635006 
L 341.181999 24.005838 
L 343.592645 24.464529 
L 344.797968 23.596193 
L 346.00329 23.733149 
L 348.413936 24.184 
L 349.619259 24.279311 
L 350.824582 24.496677 
L 352.029905 24.287209 
L 353.235227 24.545248 
L 356.851196 24.655277 
L 358.056519 24.70458 
L 360.467164 25.218131 
L 361.672487 24.913151 
L 362.87781 24.996651 
L 364.083133 24.456775 
L 365.288456 24.714989 
L 366.493778 24.652938 
L 368.904424 24.965643 
L 370.109747 24.731295 
L 371.31507 24.883008 
L 372.520393 24.895667 
L 374.931038 25.387816 
L 376.136361 25.2948 
L 377.341684 25.398913 
L 380.957652 26.115013 
L 382.162975 25.73291 
L 383.368298 25.665067 
L 384.573621 25.735417 
L 385.778944 25.316835 
L 386.984267 25.522249 
L 388.189589 25.508649 
L 389.394912 25.750616 
L 390.600235 25.494322 
L 391.805558 25.731307 
L 393.010881 25.230792 
L 394.216204 25.470114 
L 395.421526 25.233497 
L 396.626849 24.793225 
L 397.832172 24.555489 
L 401.448141 25.251584 
L 402.653463 25.153111 
L 405.064109 25.49698 
L 406.269432 25.583091 
L 408.680078 26.005255 
L 409.8854 25.978178 
L 412.296046 26.282306 
L 413.501369 22.931232 
L 414.706692 22.824552 
L 417.117337 23.097176 
L 418.32266 22.523433 
L 419.527983 22.755062 
L 420.733306 22.674023 
L 425.554597 23.420233 
L 426.75992 23.250126 
L 427.965243 23.475654 
L 429.170566 23.091701 
L 430.375889 22.904651 
L 432.786534 23.042028 
L 433.991857 23.257306 
L 437.607826 23.296335 
L 438.813148 23.321803 
L 440.018471 23.007922 
L 441.223794 22.564584 
L 444.839763 23.112103 
L 446.045085 22.923867 
L 447.250408 23.108528 
L 448.455731 19.942243 
L 449.661054 20.148823 
L 450.866377 19.739386 
L 453.277022 20.160567 
L 454.482345 19.407604 
L 456.892991 19.840976 
L 458.098314 19.784249 
L 459.303636 17.98543 
L 460.508959 18.201526 
L 461.714282 18.275473 
L 464.124928 17.927326 
L 465.330251 18.143388 
L 468.946219 18.332003 
L 470.151542 18.320387 
L 473.76751 18.89006 
L 474.972833 18.827679 
L 476.178156 18.894748 
L 477.383479 19.092288 
L 478.588802 18.525191 
L 480.999447 18.8569 
L 482.20477 18.650545 
L 485.820739 19.141187 
L 487.026062 18.773645 
L 490.64203 19.301998 
L 493.052676 18.397719 
L 495.463321 18.668544 
L 496.668644 18.855764 
L 497.873967 18.735902 
L 500.284613 18.984286 
L 501.489936 18.913827 
L 503.900581 19.253074 
L 505.105904 15.842664 
L 508.721873 16.302285 
L 509.927195 15.927237 
L 514.748487 16.599132 
L 515.95381 16.166667 
L 515.95381 16.166667 
" clip-path="url(#p2f80dcc4d9)" style="fill: none; stroke-dasharray: 5.55,2.4; stroke-dashoffset: 0; stroke: #ff8c00; stroke-width: 1.5"/>
   </g>
   <g id="patch_3">
    <path d="M 35.03 97 
L 35.03 0 
" style="fill: none; stroke: #000000; stroke-width: 0.8; stroke-linejoin: miter; stroke-linecap: square"/>
   </g>
   <g id="patch_4">
    <path d="M 540 97 
L 540 0 
" style="fill: none; stroke: #000000; stroke-width: 0.8; stroke-linejoin: miter; stroke-linecap: square"/>
   </g>
   <g id="patch_5">
    <path d="M 35.03 97 
L 540 97 
" style="fill: none; stroke: #000000; stroke-width: 0.8; stroke-linejoin: miter; stroke-linecap: square"/>
   </g>
   <g id="patch_6">
    <path d="M 35.03 0 
L 540 0 
" style="fill: none; stroke: #000000; stroke-width: 0.8; stroke-linejoin: miter; stroke-linecap: square"/>
   </g>
  </g>
 </g>
 <defs>
  <clipPath id="p2f80dcc4d9">
   <rect x="35.03" y="0" width="504.97" height="97"/>
  </clipPath>
 </defs>
</svg>
