<?xml version="1.0" encoding="utf-8" standalone="no"?>
<!DOCTYPE svg PUBLIC "-//W3C//DTD SVG 1.1//EN"
  "http://www.w3.org/Graphics/SVG/1.1/DTD/svg11.dtd">
<svg xmlns:xlink="http://www.w3.org/1999/xlink" width="540pt" height="129.6pt" viewBox="0 0 540 129.6" xmlns="http://www.w3.org/2000/svg" version="1.1">
 <metadata>
  <rdf:RDF xmlns:dc="http://purl.org/dc/elements/1.1/" xmlns:cc="http://creativecommons.org/ns#" xmlns:rdf="http://www.w3.org/1999/02/22-rdf-syntax-ns#">
   <cc:Work>
    <dc:type rdf:resource="http://purl.org/dc/dcmitype/StillImage"/>
    <dc:date>2025-03-23T21:43:34.005385</dc:date>
    <dc:format>image/svg+xml</dc:format>
    <dc:creator>
     <cc:Agent>
      <dc:title>Matplotlib v3.8.3, https://matplotlib.org/</dc:title>
     </cc:Agent>
    </dc:creator>
   </cc:Work>
  </rdf:RDF>
 </metadata>
 <defs>
  <style type="text/css">*{stroke-linejoin: round; stroke-linecap: butt}</style>
 </defs>
 <g id="figure_1">
  <g id="patch_1">
   <path d="M 0 129.6 
L 540 129.6 
L 540 0 
L 0 0 
z
" style="fill: #ffffff"/>
  </g>
  <g id="axes_1">
   <g id="patch_2">
    <path d="M 35.03 97 
L 540 97 
L 540 0 
L 35.03 0 
z
" style="fill: #ffffff"/>
   </g>
   <g id="matplotlib.axis_1">
    <g id="xtick_1">
     <g id="line2d_1">
      <path d="M 35.03 97 
L 35.03 0 
" clip-path="url(#p0db9f3580f)" style="fill: none; stroke: #b0b0b0; stroke-width: 0.8; stroke-linecap: square"/>
     </g>
     <g id="line2d_2">
      <defs>
       <path id="m672975e288" d="M 0 0 
L 0 3.5 
" style="stroke: #000000; stroke-width: 0.8"/>
      </defs>
      <g>
       <use xlink:href="#m672975e288" x="35.03" y="97" style="stroke: #000000; stroke-width: 0.8"/>
      </g>
     </g>
     <g id="text_1">
      <text style="font: 10px 'Times New Roman'; text-anchor: middle" x="35.03" y="110.94375" transform="rotate(-0 35.03 110.94375)">0</text>
     </g>
    </g>
    <g id="xtick_2">
     <g id="line2d_3">
      <path d="M 95.296142 97 
L 95.296142 0 
" clip-path="url(#p0db9f3580f)" style="fill: none; stroke: #b0b0b0; stroke-width: 0.8; stroke-linecap: square"/>
     </g>
     <g id="line2d_4">
      <g>
       <use xlink:href="#m672975e288" x="95.296142" y="97" style="stroke: #000000; stroke-width: 0.8"/>
      </g>
     </g>
     <g id="text_2">
      <text style="font: 10px 'Times New Roman'; text-anchor: middle" x="95.296142" y="110.94375" transform="rotate(-0 95.296142 110.94375)">50</text>
     </g>
    </g>
    <g id="xtick_3">
     <g id="line2d_5">
      <path d="M 155.562283 97 
L 155.562283 0 
" clip-path="url(#p0db9f3580f)" style="fill: none; stroke: #b0b0b0; stroke-width: 0.8; stroke-linecap: square"/>
     </g>
     <g id="line2d_6">
      <g>
       <use xlink:href="#m672975e288" x="155.562283" y="97" style="stroke: #000000; stroke-width: 0.8"/>
      </g>
     </g>
     <g id="text_3">
      <text style="font: 10px 'Times New Roman'; text-anchor: middle" x="155.562283" y="110.94375" transform="rotate(-0 155.562283 110.94375)">100</text>
     </g>
    </g>
    <g id="xtick_4">
     <g id="line2d_7">
      <path d="M 215.828425 97 
L 215.828425 0 
" clip-path="url(#p0db9f3580f)" style="fill: none; stroke: #b0b0b0; stroke-width: 0.8; stroke-linecap: square"/>
     </g>
     <g id="line2d_8">
      <g>
       <use xlink:href="#m672975e288" x="215.828425" y="97" style="stroke: #000000; stroke-width: 0.8"/>
      </g>
     </g>
     <g id="text_4">
      <text style="font: 10px 'Times New Roman'; text-anchor: middle" x="215.828425" y="110.94375" transform="rotate(-0 215.828425 110.94375)">150</text>
     </g>
    </g>
    <g id="xtick_5">
     <g id="line2d_9">
      <path d="M 276.094566 97 
L 276.094566 0 
" clip-path="url(#p0db9f3580f)" style="fill: none; stroke: #b0b0b0; stroke-width: 0.8; stroke-linecap: square"/>
     </g>
     <g id="line2d_10">
      <g>
       <use xlink:href="#m672975e288" x="276.094566" y="97" style="stroke: #000000; stroke-width: 0.8"/>
      </g>
     </g>
     <g id="text_5">
      <text style="font: 10px 'Times New Roman'; text-anchor: middle" x="276.094566" y="110.94375" transform="rotate(-0 276.094566 110.94375)">200</text>
     </g>
    </g>
    <g id="xtick_6">
     <g id="line2d_11">
      <path d="M 336.360708 97 
L 336.360708 0 
" clip-path="url(#p0db9f3580f)" style="fill: none; stroke: #b0b0b0; stroke-width: 0.8; stroke-linecap: square"/>
     </g>
     <g id="line2d_12">
      <g>
       <use xlink:href="#m672975e288" x="336.360708" y="97" style="stroke: #000000; stroke-width: 0.8"/>
      </g>
     </g>
     <g id="text_6">
      <text style="font: 10px 'Times New Roman'; text-anchor: middle" x="336.360708" y="110.94375" transform="rotate(-0 336.360708 110.94375)">250</text>
     </g>
    </g>
    <g id="xtick_7">
     <g id="line2d_13">
      <path d="M 396.626849 97 
L 396.626849 0 
" clip-path="url(#p0db9f3580f)" style="fill: none; stroke: #b0b0b0; stroke-width: 0.8; stroke-linecap: square"/>
     </g>
     <g id="line2d_14">
      <g>
       <use xlink:href="#m672975e288" x="396.626849" y="97" style="stroke: #000000; stroke-width: 0.8"/>
      </g>
     </g>
     <g id="text_7">
      <text style="font: 10px 'Times New Roman'; text-anchor: middle" x="396.626849" y="110.94375" transform="rotate(-0 396.626849 110.94375)">300</text>
     </g>
    </g>
    <g id="xtick_8">
     <g id="line2d_15">
      <path d="M 456.892991 97 
L 456.892991 0 
" clip-path="url(#p0db9f3580f)" style="fill: none; stroke: #b0b0b0; stroke-width: 0.8; stroke-linecap: square"/>
     </g>
     <g id="line2d_16">
      <g>
       <use xlink:href="#m672975e288" x="456.892991" y="97" style="stroke: #000000; stroke-width: 0.8"/>
      </g>
     </g>
     <g id="text_8">
      <text style="font: 10px 'Times New Roman'; text-anchor: middle" x="456.892991" y="110.94375" transform="rotate(-0 456.892991 110.94375)">350</text>
     </g>
    </g>
    <g id="xtick_9">
     <g id="line2d_17">
      <path d="M 517.159132 97 
L 517.159132 0 
" clip-path="url(#p0db9f3580f)" style="fill: none; stroke: #b0b0b0; stroke-width: 0.8; stroke-linecap: square"/>
     </g>
     <g id="line2d_18">
      <g>
       <use xlink:href="#m672975e288" x="517.159132" y="97" style="stroke: #000000; stroke-width: 0.8"/>
      </g>
     </g>
     <g id="text_9">
      <text style="font: 10px 'Times New Roman'; text-anchor: middle" x="517.159132" y="110.94375" transform="rotate(-0 517.159132 110.94375)">400</text>
     </g>
    </g>
    <g id="text_10">
     <text style="font: 12px 'Times New Roman'; text-anchor: middle" x="287.515" y="125.415312" transform="rotate(-0 287.515 125.415312)">Simulation Run</text>
    </g>
   </g>
   <g id="matplotlib.axis_2">
    <g id="ytick_1">
     <g id="line2d_19">
      <path d="M 35.03 97 
L 540 97 
" clip-path="url(#p0db9f3580f)" style="fill: none; stroke: #b0b0b0; stroke-width: 0.8; stroke-linecap: square"/>
     </g>
     <g id="line2d_20">
      <defs>
       <path id="md13be890c2" d="M 0 0 
L -3.5 0 
" style="stroke: #000000; stroke-width: 0.8"/>
      </defs>
      <g>
       <use xlink:href="#md13be890c2" x="35.03" y="97" style="stroke: #000000; stroke-width: 0.8"/>
      </g>
     </g>
     <g id="text_11">
      <text style="font: 10px 'Times New Roman'; text-anchor: end" x="28.03" y="100.471875" transform="rotate(-0 28.03 100.471875)">0.0</text>
     </g>
    </g>
    <g id="ytick_2">
     <g id="line2d_21">
      <path d="M 35.03 59.692308 
L 540 59.692308 
" clip-path="url(#p0db9f3580f)" style="fill: none; stroke: #b0b0b0; stroke-width: 0.8; stroke-linecap: square"/>
     </g>
     <g id="line2d_22">
      <g>
       <use xlink:href="#md13be890c2" x="35.03" y="59.692308" style="stroke: #000000; stroke-width: 0.8"/>
      </g>
     </g>
     <g id="text_12">
      <text style="font: 10px 'Times New Roman'; text-anchor: end" x="28.03" y="63.164183" transform="rotate(-0 28.03 63.164183)">0.5</text>
     </g>
    </g>
    <g id="ytick_3">
     <g id="line2d_23">
      <path d="M 35.03 22.384615 
L 540 22.384615 
" clip-path="url(#p0db9f3580f)" style="fill: none; stroke: #b0b0b0; stroke-width: 0.8; stroke-linecap: square"/>
     </g>
     <g id="line2d_24">
      <g>
       <use xlink:href="#md13be890c2" x="35.03" y="22.384615" style="stroke: #000000; stroke-width: 0.8"/>
      </g>
     </g>
     <g id="text_13">
      <text style="font: 10px 'Times New Roman'; text-anchor: end" x="28.03" y="25.85649" transform="rotate(-0 28.03 25.85649)">1.0</text>
     </g>
    </g>
    <g id="text_14">
     <text style="font: 12px 'Times New Roman'; text-anchor: middle" x="8.963125" y="48.5" transform="rotate(-90 8.963125 48.5)">Normalized Value</text>
    </g>
   </g>
   <g id="line2d_25">
    <path d="M 35.03 10.500279 
L 36.235323 5.483187 
L 37.440646 17.833603 
L 38.645968 20.277286 
L 39.851291 23.23223 
L 41.056614 22.132379 
L 42.261937 19.669416 
L 43.46726 18.102561 
L 44.672583 15.836905 
L 45.877905 17.178044 
L 47.083228 19.537814 
L 48.288551 18.519038 
L 49.493874 18.347232 
L 50.699197 20.118369 
L 51.90452 19.936597 
L 53.109842 20.671033 
L 54.315165 20.78978 
L 55.520488 21.167 
L 56.725811 21.36924 
L 57.931134 21.725514 
L 59.136457 20.86387 
L 60.341779 21.481319 
L 61.547102 21.209889 
L 62.752425 20.655188 
L 63.957748 20.835869 
L 65.163071 20.421924 
L 66.368394 19.219309 
L 67.573716 20.161099 
L 68.779039 19.964819 
L 69.984362 20.177645 
L 71.189685 19.865595 
L 72.395008 18.830587 
L 73.600331 19.659175 
L 74.805653 19.622818 
L 76.010976 19.223258 
L 78.421622 20.165898 
L 79.626945 19.558243 
L 80.832268 19.25567 
L 82.03759 19.357136 
L 83.242913 19.021831 
L 84.448236 19.352474 
L 86.858882 18.64501 
L 88.064205 18.840298 
L 89.269527 19.305896 
L 90.47485 19.17397 
L 91.680173 19.968576 
L 92.885496 19.707487 
L 94.090819 19.776269 
L 95.296142 20.052471 
L 96.501464 20.185227 
L 97.706787 20.908663 
L 98.91211 20.944776 
L 100.117433 21.337419 
L 101.322756 20.618403 
L 102.528079 21.056681 
L 103.733401 21.326649 
L 104.938724 21.789543 
L 107.34937 22.362259 
L 108.554693 22.734677 
L 109.760016 22.417224 
L 110.965338 22.498096 
L 112.170661 22.768762 
L 114.581307 22.926209 
L 115.78663 22.517227 
L 116.991953 22.69483 
L 118.197275 22.50549 
L 123.018567 22.712096 
L 124.223889 23.039272 
L 129.045181 23.53405 
L 130.250504 23.971466 
L 132.661149 24.357691 
L 135.071795 24.243636 
L 137.482441 24.636901 
L 138.687763 24.847798 
L 142.303732 24.519367 
L 143.509055 24.129341 
L 144.714378 24.287827 
L 145.9197 24.013362 
L 147.125023 24.036897 
L 148.330346 23.921602 
L 154.35696 24.135268 
L 155.562283 24.334103 
L 157.972929 24.225513 
L 159.178252 24.015923 
L 160.383574 24.231358 
L 161.588897 24.3222 
L 162.79422 24.640645 
L 163.999543 24.731593 
L 165.204866 24.510227 
L 167.615511 24.447567 
L 170.026157 24.635532 
L 171.23148 24.171969 
L 173.642126 24.107336 
L 174.847448 24.044687 
L 176.052771 24.295623 
L 177.258094 24.429647 
L 178.463417 23.931007 
L 179.66874 23.897055 
L 183.284708 24.044296 
L 184.490031 23.889825 
L 185.695354 24.129754 
L 188.106 24.238651 
L 190.516645 24.661735 
L 191.721968 24.633993 
L 192.927291 24.785589 
L 194.132614 24.523621 
L 195.337937 24.765057 
L 198.953905 24.680226 
L 200.159228 24.909997 
L 203.775196 24.820898 
L 204.980519 24.973523 
L 207.391165 24.983554 
L 208.596488 24.837623 
L 214.623102 24.637884 
L 215.828425 24.598771 
L 218.23907 24.842149 
L 220.649716 24.597082 
L 221.855039 24.575304 
L 223.060362 24.696626 
L 225.471007 24.699508 
L 231.497621 24.745523 
L 232.702944 24.881831 
L 238.729558 25.013448 
L 239.934881 25.221895 
L 243.55085 25.258385 
L 244.756173 24.829788 
L 245.961495 24.838528 
L 247.166818 24.28126 
L 248.372141 24.435959 
L 249.577464 24.207329 
L 250.782787 24.305676 
L 251.98811 24.178856 
L 258.014724 24.360883 
L 260.425369 24.632967 
L 261.630692 24.549352 
L 262.836015 24.587721 
L 265.246661 24.474405 
L 266.451984 24.665212 
L 267.657306 24.574079 
L 270.067952 24.620296 
L 271.273275 24.396062 
L 273.683921 24.35592 
L 274.889243 24.130461 
L 277.299889 24.011363 
L 278.505212 24.121411 
L 279.710535 23.958313 
L 283.326503 24.119315 
L 285.737149 23.881088 
L 286.942472 23.542113 
L 289.353117 23.767424 
L 291.763763 23.934856 
L 292.969086 23.628345 
L 295.379731 23.603036 
L 296.585054 23.476504 
L 297.790377 23.566227 
L 298.9957 23.482524 
L 302.611668 23.546667 
L 305.022314 23.411135 
L 306.227637 23.570034 
L 308.638283 23.724909 
L 309.843605 23.893652 
L 314.664897 23.775168 
L 317.075542 23.945961 
L 318.280865 23.956297 
L 324.307479 23.37067 
L 325.512802 23.396263 
L 326.718125 23.24478 
L 327.923448 23.34321 
L 330.334094 23.342484 
L 331.539416 23.48746 
L 336.360708 23.169141 
L 337.566031 22.981491 
L 344.797968 22.735624 
L 349.619259 22.750367 
L 350.824582 22.528226 
L 360.467164 22.537814 
L 368.904424 22.659958 
L 370.109747 22.404868 
L 371.31507 22.52799 
L 372.520393 22.427117 
L 376.136361 22.443995 
L 378.547007 22.370646 
L 384.573621 22.267897 
L 388.189589 22.477378 
L 397.832172 22.633403 
L 399.037495 22.684997 
L 402.653463 22.537567 
L 407.474755 22.583053 
L 411.090723 22.225694 
L 417.117337 22.377686 
L 419.527983 22.387792 
L 421.938629 22.588219 
L 424.349274 22.495375 
L 427.965243 22.319265 
L 430.375889 22.481136 
L 436.402503 22.335251 
L 440.018471 22.491034 
L 444.839763 22.533462 
L 447.250408 22.669303 
L 448.455731 22.580364 
L 454.482345 22.691439 
L 460.508959 22.63461 
L 465.330251 22.754455 
L 467.740896 22.483962 
L 468.946219 22.362126 
L 471.356865 22.470683 
L 477.383479 22.437003 
L 491.847353 22.858772 
L 494.257999 22.854702 
L 497.873967 22.876013 
L 499.07929 22.693121 
L 502.695258 22.681888 
L 503.900581 22.543975 
L 506.311227 22.587604 
L 511.132518 22.487548 
L 514.748487 22.481581 
L 515.95381 22.384615 
L 515.95381 22.384615 
" clip-path="url(#p0db9f3580f)" style="fill: none; stroke: #4169e1; stroke-width: 1.5; stroke-linecap: square"/>
   </g>
   <g id="line2d_26">
    <path d="M 35.03 97 
L 36.235323 93.187878 
L 37.440646 48.25711 
L 38.645968 57.729685 
L 39.851291 60.294169 
L 41.056614 65.495798 
L 42.261937 64.484135 
L 43.46726 65.945956 
L 44.672583 63.177114 
L 45.877905 64.107786 
L 47.083228 58.664596 
L 48.288551 60.13014 
L 49.493874 62.912639 
L 50.699197 59.17141 
L 51.90452 61.62326 
L 53.109842 62.60895 
L 54.315165 64.597784 
L 56.725811 67.549973 
L 57.931134 68.65723 
L 59.136457 67.758102 
L 60.341779 67.874774 
L 61.547102 68.895617 
L 62.752425 68.994845 
L 63.957748 69.996392 
L 65.163071 70.386226 
L 66.368394 65.676981 
L 67.573716 63.168771 
L 69.984362 65.067326 
L 71.189685 65.654994 
L 72.395008 61.605177 
L 73.600331 59.350464 
L 74.805653 60.451197 
L 76.010976 60.673385 
L 77.216299 60.290528 
L 78.421622 60.273643 
L 79.626945 59.171035 
L 80.832268 59.614136 
L 82.03759 60.487973 
L 85.653559 61.030037 
L 86.858882 60.91984 
L 88.064205 61.467486 
L 89.269527 60.762534 
L 90.47485 61.412295 
L 91.680173 57.65939 
L 92.885496 57.966719 
L 94.090819 58.712277 
L 95.296142 58.88534 
L 96.501464 59.482188 
L 97.706787 56.06846 
L 98.91211 56.815984 
L 100.117433 56.285784 
L 101.322756 52.706541 
L 102.528079 51.854513 
L 103.733401 52.003721 
L 104.938724 50.884219 
L 106.144047 50.978079 
L 107.34937 50.926018 
L 108.554693 50.387838 
L 109.760016 50.181444 
L 110.965338 50.85058 
L 112.170661 50.850491 
L 114.581307 52.085753 
L 115.78663 51.049005 
L 118.197275 51.667069 
L 121.813244 53.505351 
L 123.018567 53.84218 
L 124.223889 53.217955 
L 126.634535 54.138286 
L 129.045181 54.700814 
L 130.250504 52.940373 
L 131.455826 53.137548 
L 132.661149 53.094557 
L 135.071795 54.058157 
L 136.277118 53.763028 
L 137.482441 54.004583 
L 138.687763 53.919485 
L 142.303732 54.877484 
L 143.509055 53.266931 
L 144.714378 53.396127 
L 145.9197 52.815385 
L 147.125023 53.277632 
L 148.330346 53.548626 
L 150.740992 54.350984 
L 153.151637 54.77641 
L 154.35696 54.978798 
L 155.562283 54.796096 
L 157.972929 55.525131 
L 160.383574 54.905404 
L 161.588897 55.171294 
L 162.79422 53.934278 
L 163.999543 54.198996 
L 165.204866 53.790158 
L 170.026157 54.918055 
L 171.23148 51.609648 
L 173.642126 52.259488 
L 174.847448 52.572933 
L 176.052771 51.833663 
L 177.258094 51.892209 
L 178.463417 47.787019 
L 180.874063 48.454607 
L 183.284708 49.14039 
L 184.490031 49.075159 
L 185.695354 48.365736 
L 188.106 48.994777 
L 189.311322 48.021964 
L 190.516645 47.900553 
L 191.721968 48.260205 
L 192.927291 48.173508 
L 194.132614 47.168697 
L 195.337937 46.366442 
L 198.953905 47.410678 
L 200.159228 46.674618 
L 201.364551 46.947375 
L 204.980519 46.964003 
L 207.391165 47.650319 
L 208.596488 47.52623 
L 209.80181 47.856585 
L 211.007133 47.819997 
L 213.417779 48.241027 
L 214.623102 47.706535 
L 215.828425 47.998229 
L 217.033747 48.04341 
L 219.444393 47.888086 
L 220.649716 47.890073 
L 221.855039 48.193747 
L 223.060362 48.156865 
L 230.292299 49.695986 
L 231.497621 49.695697 
L 232.702944 49.520912 
L 233.908267 49.797884 
L 236.318913 49.954193 
L 238.729558 50.340471 
L 239.934881 49.494664 
L 241.140204 49.723023 
L 243.55085 49.801604 
L 244.756173 45.230583 
L 245.961495 45.522703 
L 247.166818 37.535972 
L 248.372141 37.228523 
L 249.577464 36.153317 
L 250.782787 36.229149 
L 251.98811 36.126457 
L 254.398755 36.76862 
L 255.604078 36.837892 
L 256.809401 37.160078 
L 258.014724 37.330172 
L 259.220047 36.986406 
L 260.425369 36.906694 
L 261.630692 37.025588 
L 262.836015 37.299104 
L 264.041338 37.40426 
L 265.246661 37.691298 
L 266.451984 36.939942 
L 268.862629 37.169954 
L 270.067952 37.458333 
L 271.273275 36.268038 
L 273.683921 36.854235 
L 274.889243 35.622995 
L 276.094566 35.716123 
L 277.299889 35.981377 
L 278.505212 35.911464 
L 279.710535 35.393099 
L 280.915858 35.532964 
L 282.12118 35.816737 
L 284.531826 36.130462 
L 285.737149 35.481547 
L 286.942472 32.137484 
L 288.147794 31.583887 
L 290.55844 31.874134 
L 291.763763 31.932991 
L 292.969086 29.190755 
L 295.379731 29.742103 
L 296.585054 29.524455 
L 298.9957 29.640914 
L 301.406346 30.12432 
L 305.022314 30.493668 
L 306.227637 29.927572 
L 307.43296 30.170735 
L 308.638283 30.002987 
L 309.843605 29.312333 
L 312.254251 29.717996 
L 313.459574 28.906327 
L 314.664897 29.160429 
L 315.87022 29.021559 
L 317.075542 29.180854 
L 318.280865 29.464421 
L 319.486188 29.264368 
L 320.691511 29.546704 
L 321.896834 27.370583 
L 323.102157 26.943323 
L 325.512802 27.371325 
L 326.718125 26.816842 
L 327.923448 26.747923 
L 330.334094 27.11947 
L 331.539416 26.619346 
L 332.744739 26.755908 
L 333.950062 27.035826 
L 335.155385 27.170765 
L 336.360708 25.91594 
L 337.566031 24.859472 
L 338.771353 25.035306 
L 339.976676 25.02235 
L 341.181999 25.29225 
L 342.387322 24.514057 
L 343.592645 24.665029 
L 348.413936 25.653426 
L 349.619259 25.754041 
L 350.824582 24.066899 
L 356.851196 25.328258 
L 360.467164 25.910466 
L 365.288456 26.852088 
L 367.699101 27.040022 
L 368.904424 27.143866 
L 370.109747 24.654591 
L 371.31507 24.272435 
L 372.520393 24.099762 
L 373.725715 24.300959 
L 377.341684 24.381507 
L 383.368298 25.523116 
L 384.573621 25.605372 
L 385.778944 25.392564 
L 386.984267 25.430212 
L 389.394912 25.844437 
L 393.010881 26.514918 
L 394.216204 25.982689 
L 396.626849 26.442123 
L 397.832172 26.363235 
L 399.037495 26.474608 
L 400.242818 26.388497 
L 401.448141 26.461216 
L 405.064109 27.112875 
L 406.269432 26.705729 
L 407.474755 26.646991 
L 408.680078 25.909179 
L 409.8854 26.026126 
L 411.090723 24.958042 
L 417.117337 25.824142 
L 419.527983 26.177665 
L 420.733306 25.66997 
L 421.938629 25.596958 
L 423.143952 25.814944 
L 425.554597 25.318346 
L 426.75992 24.706684 
L 427.965243 24.811691 
L 430.375889 24.599592 
L 431.581211 24.735419 
L 432.786534 24.758079 
L 433.991857 23.994578 
L 442.429117 24.812304 
L 444.839763 25.204706 
L 449.661054 25.073496 
L 452.071699 25.473797 
L 453.277022 25.491249 
L 455.687668 25.862609 
L 456.892991 25.537648 
L 459.303636 25.793364 
L 460.508959 25.727373 
L 464.124928 26.146329 
L 465.330251 26.2275 
L 466.535573 24.555266 
L 467.740896 24.365444 
L 468.946219 23.757331 
L 470.151542 23.570514 
L 473.76751 24.028484 
L 474.972833 23.601772 
L 476.178156 23.35458 
L 482.20477 23.961951 
L 483.410093 23.885965 
L 484.615416 24.058453 
L 485.820739 23.927491 
L 488.231384 24.212674 
L 489.436707 23.985566 
L 491.847353 24.337462 
L 494.257999 24.460534 
L 497.873967 24.997648 
L 499.07929 23.233822 
L 502.695258 23.786857 
L 503.900581 22.854054 
L 505.105904 22.8896 
L 506.311227 23.075373 
L 507.51655 23.142771 
L 508.721873 22.263974 
L 509.927195 22.090879 
L 514.748487 22.767191 
L 515.95381 22.384615 
L 515.95381 22.384615 
" clip-path="url(#p0db9f3580f)" style="fill: none; stroke-dasharray: 5.55,2.4; stroke-dashoffset: 0; stroke: #4169e1; stroke-width: 1.5"/>
   </g>
   <g id="line2d_27">
    <path d="M 35.03 7.86967 
L 36.235323 7.712718 
L 37.440646 19.074451 
L 38.645968 20.050355 
L 39.851291 22.567887 
L 41.056614 21.104222 
L 42.261937 19.181141 
L 43.46726 18.640366 
L 44.672583 16.58041 
L 45.877905 18.074153 
L 47.083228 20.412931 
L 48.288551 19.188958 
L 49.493874 19.603925 
L 50.699197 21.361392 
L 51.90452 21.017087 
L 53.109842 21.726419 
L 54.315165 21.766096 
L 55.520488 22.130894 
L 56.725811 22.171812 
L 57.931134 22.619271 
L 59.136457 21.986758 
L 60.341779 22.77926 
L 61.547102 22.576231 
L 62.752425 21.839882 
L 63.957748 22.104339 
L 65.163071 21.548895 
L 66.368394 20.516548 
L 67.573716 21.211956 
L 68.779039 21.209069 
L 69.984362 21.382044 
L 71.189685 21.128025 
L 72.395008 20.126577 
L 73.600331 20.855389 
L 74.805653 20.768036 
L 76.010976 20.501493 
L 78.421622 21.203914 
L 79.626945 20.490595 
L 80.832268 20.108669 
L 82.03759 20.227242 
L 83.242913 19.762013 
L 84.448236 20.12839 
L 85.653559 19.75958 
L 86.858882 19.229856 
L 88.064205 19.468191 
L 89.269527 19.846443 
L 90.47485 19.742751 
L 91.680173 20.530937 
L 92.885496 20.314853 
L 94.090819 20.3792 
L 95.296142 20.688004 
L 96.501464 20.873706 
L 97.706787 21.594296 
L 98.91211 21.657924 
L 100.117433 22.023171 
L 101.322756 21.30221 
L 104.938724 22.373841 
L 108.554693 23.186753 
L 109.760016 22.801754 
L 110.965338 22.849418 
L 112.170661 23.107249 
L 114.581307 23.343418 
L 115.78663 22.866363 
L 116.991953 23.015816 
L 118.197275 22.845018 
L 120.607921 22.938798 
L 121.813244 22.894573 
L 123.018567 23.079953 
L 124.223889 23.403879 
L 127.839858 23.641839 
L 129.045181 23.839723 
L 130.250504 24.253848 
L 132.661149 24.644964 
L 135.071795 24.384878 
L 138.687763 25.065669 
L 142.303732 24.837992 
L 143.509055 24.513597 
L 144.714378 24.652159 
L 145.9197 24.340204 
L 147.125023 24.388692 
L 148.330346 24.275382 
L 151.946315 24.468349 
L 153.151637 24.344748 
L 155.562283 24.719656 
L 157.972929 24.661995 
L 159.178252 24.470501 
L 160.383574 24.692277 
L 161.588897 24.776603 
L 162.79422 25.08401 
L 163.999543 25.168126 
L 165.204866 24.942919 
L 167.615511 24.865096 
L 170.026157 25.072801 
L 171.23148 24.669771 
L 174.847448 24.53436 
L 176.052771 24.766806 
L 177.258094 24.850926 
L 178.463417 24.375568 
L 180.874063 24.372504 
L 183.284708 24.428956 
L 184.490031 24.264929 
L 185.695354 24.502399 
L 188.106 24.652458 
L 189.311322 24.901479 
L 190.516645 25.017026 
L 191.721968 24.950945 
L 192.927291 25.093956 
L 194.132614 24.826022 
L 195.337937 25.066884 
L 198.953905 24.989756 
L 200.159228 25.220895 
L 203.775196 25.053171 
L 204.980519 25.200602 
L 207.391165 25.235913 
L 209.80181 25.01786 
L 211.007133 24.880167 
L 213.417779 25.01681 
L 214.623102 24.822689 
L 215.828425 24.776968 
L 218.23907 25.034097 
L 221.855039 24.808004 
L 223.060362 24.925184 
L 226.67633 24.947639 
L 227.881653 24.985638 
L 230.292299 24.89854 
L 235.11359 25.231076 
L 236.318913 25.147526 
L 238.729558 25.24786 
L 239.934881 25.437182 
L 243.55085 25.469582 
L 244.756173 25.072544 
L 245.961495 25.077314 
L 247.166818 24.538122 
L 248.372141 24.682534 
L 249.577464 24.48559 
L 250.782787 24.570635 
L 251.98811 24.445929 
L 258.014724 24.645092 
L 260.425369 24.872472 
L 261.630692 24.774172 
L 264.041338 24.727506 
L 265.246661 24.66965 
L 266.451984 24.850928 
L 267.657306 24.781408 
L 270.067952 24.83147 
L 271.273275 24.654866 
L 273.683921 24.593678 
L 274.889243 24.358368 
L 277.299889 24.201865 
L 278.505212 24.30832 
L 279.710535 24.182867 
L 283.326503 24.332751 
L 285.737149 24.10831 
L 286.942472 23.761504 
L 289.353117 23.99203 
L 291.763763 24.121403 
L 292.969086 23.829847 
L 295.379731 23.803016 
L 296.585054 23.671861 
L 297.790377 23.751048 
L 301.406346 23.666004 
L 302.611668 23.728328 
L 305.022314 23.627783 
L 307.43296 23.811508 
L 311.048928 24.08249 
L 312.254251 24.130518 
L 313.459574 23.956897 
L 319.486188 24.042142 
L 320.691511 24.031579 
L 321.896834 23.787489 
L 324.307479 23.620447 
L 325.512802 23.659468 
L 326.718125 23.509943 
L 327.923448 23.614715 
L 330.334094 23.627978 
L 331.539416 23.769949 
L 336.360708 23.451592 
L 337.566031 23.26917 
L 348.413936 22.978614 
L 349.619259 23.040154 
L 350.824582 22.825263 
L 359.261842 22.771512 
L 367.699101 22.990269 
L 368.904424 22.930232 
L 370.109747 22.674498 
L 371.31507 22.800339 
L 372.520393 22.705604 
L 376.136361 22.703183 
L 378.547007 22.631689 
L 384.573621 22.555995 
L 388.189589 22.755759 
L 396.626849 22.765067 
L 399.037495 22.896919 
L 402.653463 22.745468 
L 407.474755 22.735173 
L 411.090723 22.446351 
L 420.733306 22.714016 
L 423.143952 22.779538 
L 427.965243 22.51502 
L 430.375889 22.676302 
L 436.402503 22.52217 
L 441.223794 22.645677 
L 455.687668 22.747057 
L 456.892991 22.655856 
L 461.714282 22.746066 
L 464.124928 22.778785 
L 465.330251 22.820357 
L 467.740896 22.539836 
L 468.946219 22.411729 
L 471.356865 22.521184 
L 477.383479 22.479315 
L 485.820739 22.726363 
L 488.231384 22.767334 
L 490.64203 22.82788 
L 497.873967 22.881941 
L 499.07929 22.686812 
L 502.695258 22.650741 
L 503.900581 22.522199 
L 506.311227 22.572387 
L 509.927195 22.479943 
L 514.748487 22.488667 
L 515.95381 22.384615 
L 515.95381 22.384615 
" clip-path="url(#p0db9f3580f)" style="fill: none; stroke: #ff8c00; stroke-width: 1.5; stroke-linecap: square"/>
   </g>
   <g id="line2d_28">
    <path d="M 35.03 97 
L 36.235323 96.995977 
L 37.440646 54.835806 
L 38.645968 64.910268 
L 39.851291 67.188149 
L 41.056614 70.407548 
L 42.261937 70.582842 
L 43.46726 73.550693 
L 44.672583 70.612431 
L 45.877905 69.97181 
L 47.083228 63.496377 
L 48.288551 63.597222 
L 49.493874 65.82922 
L 50.699197 61.49856 
L 51.90452 63.594297 
L 53.109842 64.449651 
L 54.315165 66.360265 
L 55.520488 67.693025 
L 56.725811 69.230576 
L 57.931134 69.99781 
L 59.136457 69.97696 
L 60.341779 69.051421 
L 61.547102 70.118484 
L 62.752425 69.202006 
L 63.957748 70.039821 
L 65.163071 69.817195 
L 66.368394 66.298931 
L 67.573716 65.263133 
L 68.779039 66.35747 
L 69.984362 67.23719 
L 71.189685 67.881162 
L 72.395008 63.714033 
L 73.600331 61.946963 
L 74.805653 62.936813 
L 76.010976 63.515582 
L 77.216299 63.51898 
L 78.421622 63.895625 
L 79.626945 61.692352 
L 80.832268 61.692489 
L 82.03759 62.485634 
L 83.242913 61.913639 
L 85.653559 61.734783 
L 86.858882 60.565819 
L 88.064205 60.967311 
L 89.269527 60.699223 
L 90.47485 61.390812 
L 91.680173 57.364493 
L 92.885496 57.807378 
L 94.090819 58.558099 
L 95.296142 58.533227 
L 96.501464 58.985763 
L 97.706787 55.293637 
L 98.91211 56.030937 
L 100.117433 55.599406 
L 101.322756 51.670143 
L 102.528079 51.194711 
L 103.733401 51.040322 
L 104.938724 50.448762 
L 107.34937 50.877902 
L 108.554693 50.499242 
L 109.760016 49.736597 
L 110.965338 50.451713 
L 112.170661 50.473065 
L 113.375984 51.095408 
L 114.581307 51.544626 
L 115.78663 49.723037 
L 119.402598 51.05063 
L 121.813244 52.286474 
L 123.018567 52.48103 
L 124.223889 51.806613 
L 126.634535 52.898577 
L 127.839858 53.272944 
L 129.045181 53.327669 
L 130.250504 51.661054 
L 131.455826 51.932926 
L 132.661149 51.703531 
L 135.071795 52.32213 
L 136.277118 52.00765 
L 137.482441 52.085819 
L 138.687763 51.694078 
L 142.303732 52.954278 
L 143.509055 51.891666 
L 144.714378 52.096657 
L 145.9197 51.11742 
L 147.125023 51.569827 
L 148.330346 51.85095 
L 151.946315 53.007297 
L 153.151637 53.207177 
L 155.562283 52.938166 
L 157.972929 53.764208 
L 159.178252 53.563136 
L 160.383574 53.14149 
L 161.588897 53.433318 
L 162.79422 52.204687 
L 163.999543 52.495823 
L 165.204866 52.009607 
L 166.410189 52.264538 
L 167.615511 52.663403 
L 170.026157 53.056648 
L 171.23148 50.444674 
L 173.642126 51.132538 
L 174.847448 51.477477 
L 176.052771 50.830909 
L 177.258094 51.082529 
L 178.463417 47.07396 
L 183.284708 48.504544 
L 184.490031 48.347696 
L 185.695354 47.582693 
L 186.900677 47.914355 
L 188.106 48.101817 
L 189.311322 47.184655 
L 190.516645 47.28659 
L 191.721968 47.573377 
L 192.927291 47.510286 
L 194.132614 46.334894 
L 195.337937 45.452947 
L 198.953905 46.525953 
L 200.159228 45.696449 
L 201.364551 45.955102 
L 202.569873 45.761432 
L 203.775196 46.044956 
L 204.980519 45.903307 
L 207.391165 46.589977 
L 208.596488 46.351139 
L 209.80181 46.612441 
L 211.007133 46.503177 
L 212.212456 46.7986 
L 213.417779 46.926588 
L 214.623102 46.343497 
L 215.828425 46.627765 
L 218.23907 46.469457 
L 219.444393 46.611849 
L 220.649716 46.634987 
L 221.855039 46.934598 
L 223.060362 46.903681 
L 227.881653 48.043656 
L 229.086976 48.183215 
L 230.292299 48.480816 
L 232.702944 48.377562 
L 233.908267 48.665613 
L 236.318913 48.823609 
L 238.729558 49.252284 
L 239.934881 48.536448 
L 241.140204 48.782524 
L 243.55085 48.882358 
L 244.756173 44.677997 
L 245.961495 44.974631 
L 247.166818 36.9126 
L 248.372141 36.647361 
L 249.577464 35.857058 
L 250.782787 35.985322 
L 251.98811 35.865286 
L 254.398755 36.48261 
L 255.604078 36.42647 
L 256.809401 36.744734 
L 258.014724 36.902998 
L 259.220047 36.767999 
L 261.630692 36.77506 
L 262.836015 37.084707 
L 265.246661 37.48549 
L 266.451984 36.763499 
L 268.862629 37.130136 
L 270.067952 37.434442 
L 271.273275 36.738518 
L 273.683921 37.249871 
L 274.889243 35.749204 
L 276.094566 35.692923 
L 277.299889 35.90981 
L 278.505212 35.836909 
L 279.710535 35.614987 
L 280.915858 35.759298 
L 282.12118 36.055074 
L 284.531826 36.314334 
L 285.737149 35.731143 
L 286.942472 31.917876 
L 288.147794 31.27408 
L 291.763763 31.76639 
L 292.969086 29.099128 
L 295.379731 29.568899 
L 296.585054 29.268648 
L 298.9957 29.509689 
L 301.406346 30.075308 
L 305.022314 30.642325 
L 306.227637 30.193725 
L 307.43296 30.424163 
L 308.638283 30.218588 
L 309.843605 29.531831 
L 312.254251 30.027521 
L 313.459574 29.179058 
L 314.664897 29.416595 
L 315.87022 29.34711 
L 317.075542 29.50621 
L 318.280865 29.780411 
L 319.486188 29.462168 
L 320.691511 29.741622 
L 321.896834 27.70738 
L 323.102157 27.499362 
L 325.512802 27.899047 
L 326.718125 27.299842 
L 327.923448 27.149894 
L 330.334094 27.630863 
L 331.539416 27.101997 
L 332.744739 27.254425 
L 333.950062 27.528632 
L 335.155385 27.521782 
L 337.566031 25.239678 
L 338.771353 25.462843 
L 339.976676 25.417558 
L 341.181999 25.678473 
L 342.387322 25.17893 
L 349.619259 26.428317 
L 350.824582 24.72089 
L 354.44055 25.443562 
L 358.056519 25.955801 
L 361.672487 26.646674 
L 365.288456 27.327495 
L 366.493778 27.372384 
L 367.699101 27.582986 
L 368.904424 27.669642 
L 370.109747 24.949084 
L 371.31507 24.484904 
L 372.520393 24.332597 
L 373.725715 24.574271 
L 374.931038 24.585736 
L 376.136361 24.716911 
L 377.341684 24.653484 
L 383.368298 25.801748 
L 384.573621 25.930451 
L 385.778944 25.717866 
L 386.984267 25.733548 
L 391.805558 26.590824 
L 393.010881 26.820997 
L 394.216204 26.267408 
L 396.626849 26.647488 
L 401.448141 26.633835 
L 405.064109 27.270288 
L 406.269432 26.881066 
L 408.680078 26.322322 
L 409.8854 26.434507 
L 411.090723 25.685784 
L 413.501369 26.085382 
L 414.706692 26.134066 
L 419.527983 26.967891 
L 420.733306 26.470019 
L 421.938629 26.463099 
L 423.143952 26.681478 
L 424.349274 26.463798 
L 425.554597 26.372767 
L 426.75992 25.546571 
L 427.965243 25.667817 
L 430.375889 25.406885 
L 432.786534 25.530054 
L 433.991857 24.791603 
L 438.813148 25.377246 
L 440.018471 25.318278 
L 444.839763 26.105751 
L 446.045085 26.047375 
L 447.250408 26.103151 
L 448.455731 25.854443 
L 450.866377 26.179328 
L 452.071699 26.378253 
L 453.277022 26.404905 
L 455.687668 26.7262 
L 456.892991 26.451009 
L 459.303636 26.621604 
L 460.508959 26.543894 
L 462.919605 26.883012 
L 465.330251 27.010827 
L 466.535573 25.284639 
L 467.740896 24.906409 
L 468.946219 24.141299 
L 470.151542 23.96419 
L 473.76751 24.416043 
L 474.972833 23.967932 
L 476.178156 23.750194 
L 478.588802 23.969971 
L 482.20477 24.386392 
L 483.410093 24.297059 
L 484.615416 24.460432 
L 485.820739 24.398477 
L 488.231384 24.682774 
L 489.436707 24.544786 
L 493.052676 24.979527 
L 494.257999 25.020363 
L 497.873967 25.564817 
L 499.07929 23.356019 
L 502.695258 23.86715 
L 503.900581 23.005026 
L 505.105904 23.016208 
L 506.311227 23.204481 
L 507.51655 23.211826 
L 508.721873 22.484171 
L 509.927195 22.260574 
L 514.748487 22.904832 
L 515.95381 22.384615 
L 515.95381 22.384615 
" clip-path="url(#p0db9f3580f)" style="fill: none; stroke-dasharray: 5.55,2.4; stroke-dashoffset: 0; stroke: #ff8c00; stroke-width: 1.5"/>
   </g>
   <g id="patch_3">
    <path d="M 35.03 97 
L 35.03 0 
" style="fill: none; stroke: #000000; stroke-width: 0.8; stroke-linejoin: miter; stroke-linecap: square"/>
   </g>
   <g id="patch_4">
    <path d="M 540 97 
L 540 0 
" style="fill: none; stroke: #000000; stroke-width: 0.8; stroke-linejoin: miter; stroke-linecap: square"/>
   </g>
   <g id="patch_5">
    <path d="M 35.03 97 
L 540 97 
" style="fill: none; stroke: #000000; stroke-width: 0.8; stroke-linejoin: miter; stroke-linecap: square"/>
   </g>
   <g id="patch_6">
    <path d="M 35.03 0 
L 540 0 
" style="fill: none; stroke: #000000; stroke-width: 0.8; stroke-linejoin: miter; stroke-linecap: square"/>
   </g>
  </g>
 </g>
 <defs>
  <clipPath id="p0db9f3580f">
   <rect x="35.03" y="0" width="504.97" height="97"/>
  </clipPath>
 </defs>
</svg>
