<?xml version="1.0" encoding="utf-8" standalone="no"?>
<!DOCTYPE svg PUBLIC "-//W3C//DTD SVG 1.1//EN"
  "http://www.w3.org/Graphics/SVG/1.1/DTD/svg11.dtd">
<svg xmlns:xlink="http://www.w3.org/1999/xlink" width="540pt" height="129.6pt" viewBox="0 0 540 129.6" xmlns="http://www.w3.org/2000/svg" version="1.1">
 <metadata>
  <rdf:RDF xmlns:dc="http://purl.org/dc/elements/1.1/" xmlns:cc="http://creativecommons.org/ns#" xmlns:rdf="http://www.w3.org/1999/02/22-rdf-syntax-ns#">
   <cc:Work>
    <dc:type rdf:resource="http://purl.org/dc/dcmitype/StillImage"/>
    <dc:date>2025-04-05T13:49:35.108110</dc:date>
    <dc:format>image/svg+xml</dc:format>
    <dc:creator>
     <cc:Agent>
      <dc:title>Matplotlib v3.10.1, https://matplotlib.org/</dc:title>
     </cc:Agent>
    </dc:creator>
   </cc:Work>
  </rdf:RDF>
 </metadata>
 <defs>
  <style type="text/css">*{stroke-linejoin: round; stroke-linecap: butt}</style>
 </defs>
 <g id="figure_1">
  <g id="patch_1">
   <path d="M 0 129.6 
L 540 129.6 
L 540 0 
L 0 0 
z
" style="fill: #ffffff"/>
  </g>
  <g id="axes_1">
   <g id="patch_2">
    <path d="M 26.795 98.44 
L 540 98.44 
L 540 0 
L 26.795 0 
z
" style="fill: #ffffff"/>
   </g>
   <g id="matplotlib.axis_1">
    <g id="xtick_1">
     <g id="line2d_1">
      <path d="M 26.795 98.44 
L 26.795 0 
" clip-path="url(#p8902f8eb5a)" style="fill: none; stroke: #b0b0b0; stroke-width: 0.8; stroke-linecap: square"/>
     </g>
     <g id="line2d_2">
      <defs>
       <path id="mf73eca8e8e" d="M 0 0 
L 0 3.5 
" style="stroke: #000000; stroke-width: 0.8"/>
      </defs>
      <g>
       <use xlink:href="#mf73eca8e8e" x="26.795" y="98.44" style="stroke: #000000; stroke-width: 0.8"/>
      </g>
     </g>
     <g id="text_1">
      <text style="font-size: 10px; font-family: 'Times New Roman'; text-anchor: middle" x="26.795" y="112.38375" transform="rotate(-0 26.795 112.38375)">0</text>
     </g>
    </g>
    <g id="xtick_2">
     <g id="line2d_3">
      <path d="M 88.043956 98.44 
L 88.043956 0 
" clip-path="url(#p8902f8eb5a)" style="fill: none; stroke: #b0b0b0; stroke-width: 0.8; stroke-linecap: square"/>
     </g>
     <g id="line2d_4">
      <g>
       <use xlink:href="#mf73eca8e8e" x="88.043956" y="98.44" style="stroke: #000000; stroke-width: 0.8"/>
      </g>
     </g>
     <g id="text_2">
      <text style="font-size: 10px; font-family: 'Times New Roman'; text-anchor: middle" x="88.043956" y="112.38375" transform="rotate(-0 88.043956 112.38375)">50</text>
     </g>
    </g>
    <g id="xtick_3">
     <g id="line2d_5">
      <path d="M 149.292911 98.44 
L 149.292911 0 
" clip-path="url(#p8902f8eb5a)" style="fill: none; stroke: #b0b0b0; stroke-width: 0.8; stroke-linecap: square"/>
     </g>
     <g id="line2d_6">
      <g>
       <use xlink:href="#mf73eca8e8e" x="149.292911" y="98.44" style="stroke: #000000; stroke-width: 0.8"/>
      </g>
     </g>
     <g id="text_3">
      <text style="font-size: 10px; font-family: 'Times New Roman'; text-anchor: middle" x="149.292911" y="112.38375" transform="rotate(-0 149.292911 112.38375)">100</text>
     </g>
    </g>
    <g id="xtick_4">
     <g id="line2d_7">
      <path d="M 210.541867 98.44 
L 210.541867 0 
" clip-path="url(#p8902f8eb5a)" style="fill: none; stroke: #b0b0b0; stroke-width: 0.8; stroke-linecap: square"/>
     </g>
     <g id="line2d_8">
      <g>
       <use xlink:href="#mf73eca8e8e" x="210.541867" y="98.44" style="stroke: #000000; stroke-width: 0.8"/>
      </g>
     </g>
     <g id="text_4">
      <text style="font-size: 10px; font-family: 'Times New Roman'; text-anchor: middle" x="210.541867" y="112.38375" transform="rotate(-0 210.541867 112.38375)">150</text>
     </g>
    </g>
    <g id="xtick_5">
     <g id="line2d_9">
      <path d="M 271.790823 98.44 
L 271.790823 0 
" clip-path="url(#p8902f8eb5a)" style="fill: none; stroke: #b0b0b0; stroke-width: 0.8; stroke-linecap: square"/>
     </g>
     <g id="line2d_10">
      <g>
       <use xlink:href="#mf73eca8e8e" x="271.790823" y="98.44" style="stroke: #000000; stroke-width: 0.8"/>
      </g>
     </g>
     <g id="text_5">
      <text style="font-size: 10px; font-family: 'Times New Roman'; text-anchor: middle" x="271.790823" y="112.38375" transform="rotate(-0 271.790823 112.38375)">200</text>
     </g>
    </g>
    <g id="xtick_6">
     <g id="line2d_11">
      <path d="M 333.039779 98.44 
L 333.039779 0 
" clip-path="url(#p8902f8eb5a)" style="fill: none; stroke: #b0b0b0; stroke-width: 0.8; stroke-linecap: square"/>
     </g>
     <g id="line2d_12">
      <g>
       <use xlink:href="#mf73eca8e8e" x="333.039779" y="98.44" style="stroke: #000000; stroke-width: 0.8"/>
      </g>
     </g>
     <g id="text_6">
      <text style="font-size: 10px; font-family: 'Times New Roman'; text-anchor: middle" x="333.039779" y="112.38375" transform="rotate(-0 333.039779 112.38375)">250</text>
     </g>
    </g>
    <g id="xtick_7">
     <g id="line2d_13">
      <path d="M 394.288734 98.44 
L 394.288734 0 
" clip-path="url(#p8902f8eb5a)" style="fill: none; stroke: #b0b0b0; stroke-width: 0.8; stroke-linecap: square"/>
     </g>
     <g id="line2d_14">
      <g>
       <use xlink:href="#mf73eca8e8e" x="394.288734" y="98.44" style="stroke: #000000; stroke-width: 0.8"/>
      </g>
     </g>
     <g id="text_7">
      <text style="font-size: 10px; font-family: 'Times New Roman'; text-anchor: middle" x="394.288734" y="112.38375" transform="rotate(-0 394.288734 112.38375)">300</text>
     </g>
    </g>
    <g id="xtick_8">
     <g id="line2d_15">
      <path d="M 455.53769 98.44 
L 455.53769 0 
" clip-path="url(#p8902f8eb5a)" style="fill: none; stroke: #b0b0b0; stroke-width: 0.8; stroke-linecap: square"/>
     </g>
     <g id="line2d_16">
      <g>
       <use xlink:href="#mf73eca8e8e" x="455.53769" y="98.44" style="stroke: #000000; stroke-width: 0.8"/>
      </g>
     </g>
     <g id="text_8">
      <text style="font-size: 10px; font-family: 'Times New Roman'; text-anchor: middle" x="455.53769" y="112.38375" transform="rotate(-0 455.53769 112.38375)">350</text>
     </g>
    </g>
    <g id="xtick_9">
     <g id="line2d_17">
      <path d="M 516.786646 98.44 
L 516.786646 0 
" clip-path="url(#p8902f8eb5a)" style="fill: none; stroke: #b0b0b0; stroke-width: 0.8; stroke-linecap: square"/>
     </g>
     <g id="line2d_18">
      <g>
       <use xlink:href="#mf73eca8e8e" x="516.786646" y="98.44" style="stroke: #000000; stroke-width: 0.8"/>
      </g>
     </g>
     <g id="text_9">
      <text style="font-size: 10px; font-family: 'Times New Roman'; text-anchor: middle" x="516.786646" y="112.38375" transform="rotate(-0 516.786646 112.38375)">400</text>
     </g>
    </g>
    <g id="text_10">
     <text style="font-size: 12px; font-family: 'Times New Roman'; text-anchor: middle" x="283.3975" y="126.855312" transform="rotate(-0 283.3975 126.855312)">Simulation Run</text>
    </g>
   </g>
   <g id="matplotlib.axis_2">
    <g id="ytick_1">
     <g id="line2d_19">
      <path d="M 26.795 98.44 
L 540 98.44 
" clip-path="url(#p8902f8eb5a)" style="fill: none; stroke: #b0b0b0; stroke-width: 0.8; stroke-linecap: square"/>
     </g>
     <g id="line2d_20">
      <defs>
       <path id="m3f67980df1" d="M 0 0 
L -3.5 0 
" style="stroke: #000000; stroke-width: 0.8"/>
      </defs>
      <g>
       <use xlink:href="#m3f67980df1" x="26.795" y="98.44" style="stroke: #000000; stroke-width: 0.8"/>
      </g>
     </g>
     <g id="text_11">
      <text style="font-size: 10px; font-family: 'Times New Roman'; text-anchor: end" x="19.795" y="101.911875" transform="rotate(-0 19.795 101.911875)">0</text>
     </g>
    </g>
    <g id="ytick_2">
     <g id="line2d_21">
      <path d="M 26.795 53.694545 
L 540 53.694545 
" clip-path="url(#p8902f8eb5a)" style="fill: none; stroke: #b0b0b0; stroke-width: 0.8; stroke-linecap: square"/>
     </g>
     <g id="line2d_22">
      <g>
       <use xlink:href="#m3f67980df1" x="26.795" y="53.694545" style="stroke: #000000; stroke-width: 0.8"/>
      </g>
     </g>
     <g id="text_12">
      <text style="font-size: 10px; font-family: 'Times New Roman'; text-anchor: end" x="19.795" y="57.16642" transform="rotate(-0 19.795 57.16642)">1</text>
     </g>
    </g>
    <g id="ytick_3">
     <g id="line2d_23">
      <path d="M 26.795 8.949091 
L 540 8.949091 
" clip-path="url(#p8902f8eb5a)" style="fill: none; stroke: #b0b0b0; stroke-width: 0.8; stroke-linecap: square"/>
     </g>
     <g id="line2d_24">
      <g>
       <use xlink:href="#m3f67980df1" x="26.795" y="8.949091" style="stroke: #000000; stroke-width: 0.8"/>
      </g>
     </g>
     <g id="text_13">
      <text style="font-size: 10px; font-family: 'Times New Roman'; text-anchor: end" x="19.795" y="12.420966" transform="rotate(-0 19.795 12.420966)">2</text>
     </g>
    </g>
    <g id="text_14">
     <text style="font-size: 12px; font-family: 'Times New Roman'; text-anchor: middle" x="8.228125" y="49.22" transform="rotate(-90 8.228125 49.22)">Normalized Value</text>
    </g>
   </g>
   <g id="line2d_25">
    <path d="M 26.795 62.265192 
L 28.019979 66.035637 
L 29.244958 63.993658 
L 30.469937 59.916829 
L 31.694916 52.186465 
L 32.919896 54.759874 
L 34.144875 55.016947 
L 35.369854 52.776212 
L 36.594833 51.748272 
L 37.819812 52.449553 
L 39.044791 52.806558 
L 40.26977 53.833861 
L 41.494749 53.629578 
L 42.719728 54.760915 
L 43.944708 55.555138 
L 45.169687 56.215479 
L 46.394666 56.058276 
L 47.619645 56.290124 
L 48.844624 55.236981 
L 50.069603 55.836307 
L 52.519561 56.530474 
L 53.744541 55.739589 
L 54.96952 54.116038 
L 56.194499 53.389463 
L 57.419478 53.402033 
L 59.869436 53.90164 
L 62.319394 54.443989 
L 63.544373 53.931474 
L 64.769353 53.626906 
L 65.994332 53.571957 
L 67.219311 53.902272 
L 68.44429 54.011787 
L 69.669269 54.400467 
L 70.894248 54.585991 
L 72.119227 53.764287 
L 73.344206 54.036782 
L 74.569185 54.1714 
L 75.794165 53.841869 
L 77.019144 54.237566 
L 78.244123 53.885783 
L 80.694081 53.855574 
L 81.91906 54.083155 
L 83.144039 54.160044 
L 85.593997 54.612926 
L 86.818977 54.555341 
L 90.493914 55.108266 
L 92.943872 55.014953 
L 95.39383 55.307772 
L 96.61881 55.121766 
L 97.843789 55.063751 
L 99.068768 54.879535 
L 100.293747 54.946787 
L 101.518726 54.804242 
L 102.743705 54.837848 
L 105.193663 55.34138 
L 107.643622 55.559467 
L 108.868601 55.364146 
L 111.318559 54.685821 
L 112.543538 54.603292 
L 113.768517 54.283837 
L 114.993496 54.538801 
L 116.218475 54.602906 
L 118.668434 54.002525 
L 119.893413 54.28086 
L 121.118392 54.102845 
L 123.56835 54.399677 
L 124.793329 54.519362 
L 126.018308 54.475058 
L 127.243287 54.292584 
L 128.468266 54.393623 
L 129.693246 54.054109 
L 130.918225 54.093843 
L 133.368183 53.886256 
L 137.04312 54.005073 
L 138.268099 54.15036 
L 139.493079 54.063829 
L 140.718058 53.825308 
L 144.392995 54.262168 
L 149.292911 54.458259 
L 150.517891 54.255161 
L 151.74287 54.36042 
L 152.967849 54.236443 
L 154.192828 54.438024 
L 155.417807 54.419482 
L 156.642786 54.179772 
L 159.092744 54.221313 
L 160.317723 54.211075 
L 161.542703 54.385373 
L 166.442619 54.253597 
L 167.667598 54.381305 
L 168.892577 54.377847 
L 171.342536 54.545608 
L 172.567515 54.554056 
L 173.792494 54.364052 
L 176.242452 54.607608 
L 178.69241 54.448326 
L 181.142368 54.643828 
L 182.367348 54.634595 
L 184.817306 54.81556 
L 186.042285 54.591754 
L 190.942201 54.648844 
L 192.16718 54.415267 
L 193.39216 54.512025 
L 197.067097 54.312181 
L 212.991825 54.564007 
L 215.441784 54.632456 
L 216.666763 54.501818 
L 217.891742 54.537901 
L 220.3417 54.403589 
L 221.566679 54.444381 
L 222.791658 54.358756 
L 225.241617 54.423704 
L 230.141533 54.321198 
L 235.041449 54.55545 
L 243.616303 54.13178 
L 252.191157 54.14827 
L 257.091074 54.06912 
L 261.99099 54.381903 
L 264.440948 54.314135 
L 265.665927 54.23374 
L 268.115886 54.266867 
L 274.240781 54.233549 
L 276.690739 54.279522 
L 279.140698 54.126878 
L 281.590656 54.197153 
L 291.390489 54.173365 
L 292.615468 54.276623 
L 297.515384 54.080163 
L 298.740363 54.165343 
L 307.315217 53.889099 
L 314.665092 54.125912 
L 317.11505 54.028845 
L 319.565008 54.026609 
L 329.364841 54.108349 
L 334.264758 54.07581 
L 340.389653 54.239805 
L 350.189486 54.206691 
L 353.864424 54.307422 
L 355.089403 54.252863 
L 357.539361 54.333259 
L 364.889236 54.42579 
L 369.789152 54.400344 
L 394.288734 54.274039 
L 395.513713 54.220189 
L 397.963672 54.246685 
L 412.663421 54.054621 
L 417.563338 54.026309 
L 420.013296 53.91619 
L 423.688233 53.974413 
L 428.58815 53.976939 
L 432.263087 54.019881 
L 448.187815 54.039326 
L 453.087732 54.15 
L 456.762669 54.060851 
L 460.437607 54.035889 
L 465.337523 53.814555 
L 471.462419 53.857265 
L 477.587314 53.951101 
L 488.612126 53.852837 
L 491.062084 53.748923 
L 499.636938 53.825458 
L 503.311876 53.74302 
L 506.986813 53.66727 
L 511.886729 53.628889 
L 515.561667 53.694545 
L 515.561667 53.694545 
" clip-path="url(#p8902f8eb5a)" style="fill: none; stroke: #4169e1; stroke-width: 1.5; stroke-linecap: square"/>
   </g>
   <g id="line2d_26">
    <path d="M 26.795 98.44 
L 28.019979 94.12675 
L 29.244958 93.034316 
L 30.469937 79.257596 
L 31.694916 10.570515 
L 32.919896 15.169107 
L 34.144875 26.944644 
L 35.369854 25.2181 
L 39.044791 41.481754 
L 40.26977 42.706113 
L 41.494749 46.841398 
L 42.719728 45.478698 
L 43.944708 46.330081 
L 45.169687 47.602474 
L 46.394666 50.47295 
L 47.619645 52.860533 
L 48.844624 49.202323 
L 50.069603 49.593592 
L 51.294582 51.292917 
L 52.519561 52.550467 
L 53.744541 50.370545 
L 54.96952 33.979318 
L 56.194499 32.71367 
L 57.419478 35.240407 
L 58.644457 37.279014 
L 59.869436 38.706743 
L 61.094415 40.361947 
L 62.319394 41.373523 
L 63.544373 40.823514 
L 64.769353 41.751562 
L 65.994332 43.440078 
L 67.219311 43.965298 
L 68.44429 45.397997 
L 69.669269 45.267136 
L 70.894248 46.328298 
L 72.119227 40.119952 
L 73.344206 40.759244 
L 74.569185 41.986832 
L 75.794165 42.045874 
L 77.019144 41.440868 
L 78.244123 41.189482 
L 80.694081 43.700384 
L 81.91906 44.183239 
L 83.144039 45.255128 
L 84.369018 45.787894 
L 85.593997 45.937363 
L 86.818977 46.938119 
L 90.493914 48.299879 
L 92.943872 49.995857 
L 94.168851 50.31676 
L 95.39383 50.946999 
L 96.61881 51.167503 
L 97.843789 51.909504 
L 99.068768 52.077542 
L 100.293747 52.755249 
L 101.518726 53.116045 
L 102.743705 53.814229 
L 103.968684 52.851067 
L 105.193663 52.705895 
L 106.418642 53.324765 
L 107.643622 53.505787 
L 108.868601 53.391073 
L 111.318559 49.93168 
L 112.543538 50.470239 
L 113.768517 48.938135 
L 114.993496 48.196176 
L 116.218475 48.784129 
L 117.443454 46.961411 
L 118.668434 46.007979 
L 119.893413 44.902559 
L 121.118392 44.84861 
L 122.343371 44.677556 
L 124.793329 45.384391 
L 126.018308 45.983171 
L 127.243287 45.786792 
L 128.468266 46.156527 
L 129.693246 43.833868 
L 130.918225 44.428106 
L 132.143204 44.608362 
L 133.368183 45.060949 
L 134.593162 45.660294 
L 135.818141 46.006757 
L 137.04312 46.571381 
L 138.268099 46.552379 
L 139.493079 46.901311 
L 140.718058 45.844298 
L 141.943037 45.719496 
L 143.168016 45.248136 
L 144.392995 45.536623 
L 146.842953 46.442209 
L 148.067932 46.962023 
L 149.292911 47.185703 
L 150.517891 46.424185 
L 151.74287 46.58632 
L 152.967849 46.604588 
L 154.192828 45.816075 
L 155.417807 46.301575 
L 156.642786 44.940864 
L 157.867765 45.26613 
L 160.317723 46.198572 
L 161.542703 45.655314 
L 165.21764 46.996113 
L 166.442619 47.035766 
L 167.667598 46.909859 
L 168.892577 47.349867 
L 170.117556 47.273264 
L 172.567515 48.041839 
L 173.792494 47.143959 
L 175.017473 47.208293 
L 176.242452 46.845882 
L 177.467431 46.960124 
L 178.69241 47.191038 
L 179.917389 46.816773 
L 182.367348 47.517542 
L 183.592327 47.140572 
L 184.817306 47.472563 
L 186.042285 45.885997 
L 187.267264 46.283507 
L 188.492243 46.557432 
L 190.942201 46.542066 
L 192.16718 44.688998 
L 194.617139 44.808766 
L 197.067097 45.275465 
L 198.292076 45.646902 
L 199.517055 45.566694 
L 200.742034 45.909688 
L 201.967013 46.101806 
L 203.191992 46.437305 
L 204.416972 46.429973 
L 206.86693 47.068108 
L 209.316888 47.523249 
L 210.541867 47.1683 
L 212.991825 47.796376 
L 215.441784 48.333027 
L 216.666763 47.851638 
L 217.891742 48.112234 
L 219.116721 48.140568 
L 221.566679 48.538253 
L 224.016637 48.497415 
L 225.241617 48.794402 
L 230.141533 49.47771 
L 231.366512 49.449466 
L 233.81647 49.660601 
L 235.041449 49.882273 
L 236.266429 49.917363 
L 237.491408 49.179729 
L 238.716387 49.443843 
L 239.941366 49.456364 
L 241.166345 49.708289 
L 242.391324 49.797111 
L 243.616303 49.65488 
L 252.191157 51.441137 
L 254.641115 51.786887 
L 255.866094 51.778673 
L 257.091074 52.025111 
L 259.541032 51.189462 
L 260.766011 51.019882 
L 263.215969 51.484129 
L 265.665927 51.174355 
L 268.115886 51.534448 
L 269.340865 51.743974 
L 270.565844 51.818179 
L 271.790823 52.039568 
L 273.015802 52.088372 
L 274.240781 52.266092 
L 275.46576 52.263331 
L 276.690739 52.474626 
L 277.915718 52.107528 
L 279.140698 52.140711 
L 280.365677 51.943435 
L 284.040614 52.575758 
L 285.265593 52.652972 
L 286.490572 52.865227 
L 287.715551 52.386074 
L 291.390489 52.961383 
L 292.615468 52.468024 
L 293.840447 52.401208 
L 295.065426 52.107071 
L 297.515384 52.430235 
L 298.740363 52.147852 
L 303.64028 52.453388 
L 304.865259 51.74144 
L 307.315217 52.14459 
L 310.990155 52.155986 
L 313.440113 52.524331 
L 314.665092 52.517799 
L 315.890071 52.374463 
L 317.11505 52.509802 
L 319.565008 52.535151 
L 323.239946 52.896639 
L 324.464925 52.779406 
L 325.689904 52.94593 
L 328.139862 53.145493 
L 330.58982 53.433246 
L 333.039779 53.495111 
L 334.264758 53.646412 
L 335.489737 53.656361 
L 336.714716 53.801882 
L 337.939695 53.461535 
L 339.164674 53.335466 
L 340.389653 53.339276 
L 344.064591 53.713533 
L 345.28957 53.826069 
L 347.739528 53.636241 
L 348.964507 53.407473 
L 350.189486 53.565398 
L 355.089403 53.692375 
L 356.314382 53.19867 
L 361.214298 53.737991 
L 363.664256 53.940396 
L 377.139027 55.327075 
L 378.364006 54.918485 
L 379.588985 54.77774 
L 384.488901 54.88836 
L 389.388818 55.131927 
L 390.613797 55.139727 
L 391.838776 55.26131 
L 393.063755 55.024121 
L 394.288734 55.139531 
L 396.738693 54.858567 
L 399.188651 55.005211 
L 400.41363 54.561147 
L 401.638609 54.65761 
L 402.863588 54.276647 
L 406.538525 54.667994 
L 407.763505 54.526621 
L 411.438442 54.930995 
L 412.663421 54.840998 
L 417.563338 55.207222 
L 418.788317 54.518763 
L 420.013296 54.62346 
L 421.238275 54.477951 
L 428.58815 54.998127 
L 429.813129 54.892515 
L 435.938024 55.464344 
L 437.163003 54.995212 
L 438.387982 54.810208 
L 439.612962 54.917616 
L 440.837941 54.803196 
L 444.512878 55.135678 
L 445.737857 55.000194 
L 448.187815 55.194455 
L 449.412794 55.024079 
L 451.862753 55.126857 
L 453.087732 55.247715 
L 454.312711 54.964285 
L 457.987648 55.236139 
L 459.212627 54.615896 
L 460.437607 54.603328 
L 462.887565 53.7947 
L 464.112544 53.531915 
L 469.01246 53.913262 
L 471.462419 54.115016 
L 472.687398 54.075693 
L 476.362335 54.407207 
L 478.812293 54.534087 
L 481.262251 54.748773 
L 483.71221 54.812241 
L 484.937189 54.887633 
L 486.162168 54.558433 
L 488.612126 54.779907 
L 489.837105 54.140419 
L 492.287063 54.252343 
L 493.512043 54.131436 
L 494.737022 53.820322 
L 497.18698 53.925429 
L 503.311876 53.764816 
L 504.536855 53.874041 
L 505.761834 53.416999 
L 509.436771 53.634084 
L 514.336688 53.584563 
L 515.561667 53.694545 
L 515.561667 53.694545 
" clip-path="url(#p8902f8eb5a)" style="fill: none; stroke-dasharray: 5.55,2.4; stroke-dashoffset: 0; stroke: #4169e1; stroke-width: 1.5"/>
   </g>
   <g id="line2d_27">
    <path d="M 26.795 59.177043 
L 28.019979 62.693426 
L 29.244958 60.905728 
L 30.469937 58.375282 
L 31.694916 52.241539 
L 32.919896 53.885464 
L 34.144875 53.845604 
L 36.594833 50.661112 
L 37.819812 51.407775 
L 39.044791 51.281099 
L 40.26977 52.050665 
L 41.494749 52.490706 
L 42.719728 53.803645 
L 43.944708 54.549885 
L 45.169687 54.989891 
L 46.394666 54.928632 
L 47.619645 55.038779 
L 48.844624 54.651969 
L 52.519561 56.07381 
L 53.744541 55.551834 
L 54.96952 54.00786 
L 56.194499 53.38045 
L 62.319394 54.341799 
L 63.544373 53.866403 
L 64.769353 53.6527 
L 65.994332 53.678301 
L 67.219311 53.898415 
L 68.44429 54.003158 
L 69.669269 54.30655 
L 70.894248 54.371197 
L 72.119227 53.790226 
L 73.344206 54.058261 
L 74.569185 54.109503 
L 75.794165 53.881941 
L 77.019144 54.26206 
L 78.244123 53.922434 
L 80.694081 53.816644 
L 83.144039 54.10376 
L 84.369018 54.196187 
L 85.593997 54.407117 
L 86.818977 54.315785 
L 90.493914 54.803595 
L 91.718893 54.68374 
L 92.943872 54.734048 
L 94.168851 54.928741 
L 95.39383 54.994646 
L 96.61881 54.815726 
L 97.843789 54.762587 
L 99.068768 54.541843 
L 102.743705 54.528089 
L 105.193663 54.972139 
L 107.643622 55.152969 
L 108.868601 54.991905 
L 111.318559 54.453159 
L 112.543538 54.391968 
L 113.768517 54.088582 
L 114.993496 54.322834 
L 116.218475 54.396639 
L 118.668434 53.84181 
L 119.893413 54.096997 
L 121.118392 53.984203 
L 123.56835 54.254992 
L 124.793329 54.360582 
L 128.468266 54.261542 
L 129.693246 54.065676 
L 130.918225 54.086413 
L 133.368183 53.845712 
L 137.04312 53.955001 
L 138.268099 54.092376 
L 139.493079 54.041083 
L 140.718058 53.871927 
L 141.943037 53.970566 
L 143.168016 54.19908 
L 149.292911 54.401285 
L 150.517891 54.22155 
L 151.74287 54.308232 
L 152.967849 54.242677 
L 154.192828 54.4183 
L 155.417807 54.395221 
L 156.642786 54.213191 
L 159.092744 54.27222 
L 160.317723 54.221962 
L 161.542703 54.370074 
L 168.892577 54.285406 
L 171.342536 54.423498 
L 172.567515 54.406639 
L 173.792494 54.184265 
L 177.467431 54.280375 
L 178.69241 54.26033 
L 181.142368 54.420921 
L 182.367348 54.392556 
L 184.817306 54.545205 
L 186.042285 54.383705 
L 190.942201 54.44186 
L 192.16718 54.297541 
L 193.39216 54.38893 
L 197.067097 54.181373 
L 199.517055 54.266872 
L 201.967013 54.238298 
L 203.191992 54.208576 
L 204.416972 54.300776 
L 209.316888 54.207645 
L 210.541867 54.322424 
L 214.216805 54.345405 
L 215.441784 54.356514 
L 216.666763 54.241008 
L 219.116721 54.18639 
L 222.791658 54.074962 
L 225.241617 54.122327 
L 226.466596 54.037976 
L 228.916554 54.072644 
L 230.141533 54.020859 
L 235.041449 54.232385 
L 249.741199 53.971694 
L 254.641115 53.951872 
L 257.091074 53.874408 
L 261.99099 54.161752 
L 264.440948 54.122541 
L 270.565844 54.02369 
L 276.690739 54.103243 
L 279.140698 53.962025 
L 281.590656 54.045841 
L 301.190322 53.989206 
L 306.090238 53.842829 
L 308.540196 53.873084 
L 314.665092 54.057829 
L 317.11505 53.93663 
L 319.565008 53.941458 
L 346.514549 54.089755 
L 348.964507 54.096303 
L 377.139027 54.379439 
L 379.588985 54.367417 
L 386.93886 54.288721 
L 399.188651 54.195303 
L 402.863588 54.071141 
L 415.113379 54.117809 
L 417.563338 54.083317 
L 420.013296 54.002863 
L 423.688233 54.076754 
L 427.36317 54.059718 
L 434.713045 54.060306 
L 444.512878 54.052995 
L 448.187815 54.034934 
L 451.862753 54.112054 
L 457.987648 54.043677 
L 464.112544 53.851867 
L 471.462419 53.865296 
L 478.812293 53.937823 
L 488.612126 53.85247 
L 491.062084 53.775801 
L 500.861917 53.793015 
L 510.66175 53.640129 
L 515.561667 53.694545 
L 515.561667 53.694545 
" clip-path="url(#p8902f8eb5a)" style="fill: none; stroke: #ff8c00; stroke-width: 1.5; stroke-linecap: square"/>
   </g>
   <g id="line2d_28">
    <path d="M 26.795 98.44 
L 28.019979 93.218079 
L 29.244958 92.259388 
L 30.469937 85.692067 
L 31.694916 24.686749 
L 32.919896 31.27243 
L 34.144875 40.863771 
L 36.594833 38.594573 
L 37.819812 42.460123 
L 39.044791 47.481434 
L 40.26977 48.976782 
L 41.494749 51.800339 
L 42.719728 45.667831 
L 43.944708 45.893497 
L 45.169687 47.951211 
L 46.394666 50.895782 
L 47.619645 53.450024 
L 48.844624 54.680534 
L 50.069603 55.013512 
L 51.294582 55.871101 
L 52.519561 55.000137 
L 53.744541 54.357426 
L 54.96952 33.039134 
L 56.194499 31.665369 
L 58.644457 36.016648 
L 59.869436 37.873909 
L 62.319394 40.740344 
L 63.544373 39.738301 
L 64.769353 40.974842 
L 65.994332 42.707353 
L 67.219311 43.671325 
L 68.44429 45.078612 
L 69.669269 45.200328 
L 70.894248 46.575698 
L 72.119227 42.666438 
L 73.344206 42.943591 
L 74.569185 44.287755 
L 75.794165 44.733761 
L 77.019144 43.510629 
L 78.244123 42.742128 
L 80.694081 45.108936 
L 81.91906 45.577796 
L 84.369018 47.433689 
L 85.593997 47.572742 
L 86.818977 48.417474 
L 88.043956 48.995397 
L 89.268935 49.336298 
L 90.493914 49.540225 
L 91.718893 50.124241 
L 92.943872 50.944991 
L 94.168851 50.912673 
L 95.39383 51.643764 
L 96.61881 51.67999 
L 97.843789 52.403366 
L 99.068768 51.956503 
L 100.293747 52.714036 
L 102.743705 53.985741 
L 103.968684 53.130429 
L 105.193663 52.717081 
L 106.418642 53.270175 
L 107.643622 53.610169 
L 108.868601 53.535411 
L 110.09358 51.709609 
L 111.318559 50.62693 
L 112.543538 51.189663 
L 113.768517 49.086063 
L 114.993496 48.093615 
L 116.218475 48.606037 
L 117.443454 46.374029 
L 119.893413 43.676267 
L 121.118392 43.964652 
L 122.343371 43.549784 
L 123.56835 43.979407 
L 124.793329 44.275082 
L 126.018308 44.909551 
L 127.243287 44.889669 
L 128.468266 45.369219 
L 129.693246 44.632646 
L 130.918225 45.242877 
L 132.143204 45.108105 
L 133.368183 45.365875 
L 134.593162 45.961857 
L 135.818141 46.255661 
L 137.04312 46.816159 
L 138.268099 46.652029 
L 139.493079 47.106669 
L 140.718058 46.52895 
L 141.943037 46.689137 
L 143.168016 45.133205 
L 148.067932 47.045049 
L 149.292911 47.159855 
L 150.517891 46.28468 
L 151.74287 46.467376 
L 152.967849 46.780181 
L 154.192828 45.917507 
L 155.417807 46.389382 
L 156.642786 45.392539 
L 157.867765 45.642191 
L 160.317723 46.476918 
L 161.542703 45.925974 
L 165.21764 47.224955 
L 167.667598 47.239459 
L 168.892577 47.673719 
L 170.117556 47.588315 
L 172.567515 48.357733 
L 173.792494 46.265599 
L 175.017473 46.46521 
L 176.242452 46.11505 
L 177.467431 46.086218 
L 178.69241 46.484008 
L 179.917389 46.330549 
L 181.142368 46.567595 
L 182.367348 46.929696 
L 183.592327 46.488302 
L 184.817306 46.8454 
L 186.042285 45.807308 
L 188.492243 46.497571 
L 190.942201 46.786952 
L 192.16718 45.979297 
L 195.842118 45.698446 
L 198.292076 46.399561 
L 199.517055 46.302735 
L 200.742034 46.641437 
L 203.191992 47.15609 
L 204.416972 46.986795 
L 205.641951 47.303202 
L 206.86693 47.316491 
L 209.316888 47.916422 
L 210.541867 47.416461 
L 215.441784 48.605036 
L 216.666763 48.051156 
L 217.891742 48.362953 
L 220.3417 48.372758 
L 221.566679 48.580224 
L 222.791658 48.449013 
L 224.016637 48.558584 
L 225.241617 48.8615 
L 226.466596 48.674017 
L 230.141533 49.262328 
L 231.366512 49.246677 
L 235.041449 49.605502 
L 236.266429 49.833902 
L 237.491408 49.420692 
L 241.166345 50.141115 
L 242.391324 50.257392 
L 243.616303 49.984303 
L 252.191157 51.726283 
L 253.416136 51.842118 
L 254.641115 52.079813 
L 255.866094 51.915566 
L 257.091074 52.159465 
L 258.316053 51.817078 
L 260.766011 50.879825 
L 263.215969 51.341023 
L 264.440948 51.355292 
L 266.890906 51.696895 
L 269.340865 52.104681 
L 274.240781 52.190596 
L 275.46576 52.173976 
L 276.690739 52.33341 
L 277.915718 51.923687 
L 279.140698 51.878757 
L 280.365677 51.464032 
L 284.040614 52.126397 
L 286.490572 52.450711 
L 287.715551 52.177775 
L 291.390489 52.714184 
L 292.615468 52.09237 
L 293.840447 52.151634 
L 295.065426 52.026135 
L 297.515384 52.303938 
L 298.740363 51.875412 
L 301.190322 52.008819 
L 302.415301 51.873814 
L 303.64028 52.049457 
L 304.865259 51.710984 
L 307.315217 52.100861 
L 309.765175 52.066014 
L 310.990155 52.013054 
L 313.440113 52.357847 
L 314.665092 52.268853 
L 315.890071 51.866289 
L 320.789987 51.961453 
L 323.239946 52.152605 
L 324.464925 52.074121 
L 326.914883 52.356281 
L 328.139862 52.418053 
L 330.58982 52.767597 
L 333.039779 52.667748 
L 334.264758 52.848706 
L 335.489737 52.868254 
L 336.714716 53.045959 
L 340.389653 52.462813 
L 341.614632 52.636453 
L 342.839612 52.640666 
L 344.064591 52.816436 
L 346.514549 52.817493 
L 348.964507 52.511427 
L 351.414465 52.693045 
L 352.639444 52.730463 
L 355.089403 52.979585 
L 356.314382 52.470342 
L 361.214298 53.016131 
L 367.339194 53.436545 
L 377.139027 54.551075 
L 378.364006 54.263613 
L 379.588985 54.133671 
L 382.038943 54.279965 
L 383.263922 53.925235 
L 385.713881 54.194097 
L 388.163839 54.397063 
L 389.388818 54.495203 
L 390.613797 54.445218 
L 391.838776 54.588868 
L 393.063755 54.452315 
L 394.288734 54.555259 
L 396.738693 54.258864 
L 399.188651 54.423551 
L 400.41363 53.962971 
L 401.638609 54.072661 
L 402.863588 53.541591 
L 406.538525 53.887003 
L 411.438442 54.386029 
L 412.663421 54.148671 
L 416.338358 54.463427 
L 417.563338 54.391547 
L 418.788317 53.778396 
L 420.013296 53.912315 
L 421.238275 53.741582 
L 423.688233 53.914983 
L 424.913212 53.865401 
L 428.58815 54.194947 
L 431.038108 54.207329 
L 435.938024 54.655147 
L 437.163003 54.323174 
L 438.387982 54.206256 
L 439.612962 54.328831 
L 440.837941 54.165565 
L 442.06292 54.278731 
L 443.287899 54.14288 
L 444.512878 54.272135 
L 446.962836 54.347534 
L 448.187815 54.470092 
L 449.412794 54.275534 
L 451.862753 54.451905 
L 453.087732 54.577833 
L 454.312711 54.288183 
L 456.762669 54.430305 
L 457.987648 54.515985 
L 459.212627 54.093434 
L 460.437607 54.048203 
L 461.662586 53.797902 
L 462.887565 53.278936 
L 464.112544 53.035215 
L 476.362335 54.048025 
L 477.587314 54.037415 
L 481.262251 54.305833 
L 483.71221 54.391734 
L 484.937189 54.442187 
L 486.162168 54.25877 
L 488.612126 54.478753 
L 489.837105 54.002543 
L 492.287063 54.167827 
L 493.512043 53.933371 
L 494.737022 53.559352 
L 495.962001 53.610631 
L 498.411959 53.561273 
L 499.636938 53.586207 
L 500.861917 53.397253 
L 502.086896 53.337116 
L 504.536855 53.522968 
L 505.761834 53.258988 
L 508.211792 53.375452 
L 515.561667 53.694545 
L 515.561667 53.694545 
" clip-path="url(#p8902f8eb5a)" style="fill: none; stroke-dasharray: 5.55,2.4; stroke-dashoffset: 0; stroke: #ff8c00; stroke-width: 1.5"/>
   </g>
   <g id="patch_3">
    <path d="M 26.795 98.44 
L 26.795 0 
" style="fill: none; stroke: #000000; stroke-width: 0.8; stroke-linejoin: miter; stroke-linecap: square"/>
   </g>
   <g id="patch_4">
    <path d="M 540 98.44 
L 540 0 
" style="fill: none; stroke: #000000; stroke-width: 0.8; stroke-linejoin: miter; stroke-linecap: square"/>
   </g>
   <g id="patch_5">
    <path d="M 26.795 98.44 
L 540 98.44 
" style="fill: none; stroke: #000000; stroke-width: 0.8; stroke-linejoin: miter; stroke-linecap: square"/>
   </g>
   <g id="patch_6">
    <path d="M 26.795 0 
L 540 0 
" style="fill: none; stroke: #000000; stroke-width: 0.8; stroke-linejoin: miter; stroke-linecap: square"/>
   </g>
  </g>
 </g>
 <defs>
  <clipPath id="p8902f8eb5a">
   <rect x="26.795" y="0" width="513.205" height="98.44"/>
  </clipPath>
 </defs>
</svg>
