<?xml version="1.0" encoding="utf-8" standalone="no"?>
<!DOCTYPE svg PUBLIC "-//W3C//DTD SVG 1.1//EN"
  "http://www.w3.org/Graphics/SVG/1.1/DTD/svg11.dtd">
<svg xmlns:xlink="http://www.w3.org/1999/xlink" width="540pt" height="129.6pt" viewBox="0 0 540 129.6" xmlns="http://www.w3.org/2000/svg" version="1.1">
 <metadata>
  <rdf:RDF xmlns:dc="http://purl.org/dc/elements/1.1/" xmlns:cc="http://creativecommons.org/ns#" xmlns:rdf="http://www.w3.org/1999/02/22-rdf-syntax-ns#">
   <cc:Work>
    <dc:type rdf:resource="http://purl.org/dc/dcmitype/StillImage"/>
    <dc:date>2025-03-29T01:37:59.843166</dc:date>
    <dc:format>image/svg+xml</dc:format>
    <dc:creator>
     <cc:Agent>
      <dc:title>Matplotlib v3.8.3, https://matplotlib.org/</dc:title>
     </cc:Agent>
    </dc:creator>
   </cc:Work>
  </rdf:RDF>
 </metadata>
 <defs>
  <style type="text/css">*{stroke-linejoin: round; stroke-linecap: butt}</style>
 </defs>
 <g id="figure_1">
  <g id="patch_1">
   <path d="M 0 129.6 
L 540 129.6 
L 540 0 
L 0 0 
z
" style="fill: #ffffff"/>
  </g>
  <g id="axes_1">
   <g id="patch_2">
    <path d="M 35.03 97 
L 540 97 
L 540 0 
L 35.03 0 
z
" style="fill: #ffffff"/>
   </g>
   <g id="matplotlib.axis_1">
    <g id="xtick_1">
     <g id="line2d_1">
      <path d="M 35.03 97 
L 35.03 0 
" clip-path="url(#p9c77ec3df7)" style="fill: none; stroke: #b0b0b0; stroke-width: 0.8; stroke-linecap: square"/>
     </g>
     <g id="line2d_2">
      <defs>
       <path id="m5f623b0b4f" d="M 0 0 
L 0 3.5 
" style="stroke: #000000; stroke-width: 0.8"/>
      </defs>
      <g>
       <use xlink:href="#m5f623b0b4f" x="35.03" y="97" style="stroke: #000000; stroke-width: 0.8"/>
      </g>
     </g>
     <g id="text_1">
      <text style="font: 10px 'Times New Roman'; text-anchor: middle" x="35.03" y="110.94375" transform="rotate(-0 35.03 110.94375)">0</text>
     </g>
    </g>
    <g id="xtick_2">
     <g id="line2d_3">
      <path d="M 95.296142 97 
L 95.296142 0 
" clip-path="url(#p9c77ec3df7)" style="fill: none; stroke: #b0b0b0; stroke-width: 0.8; stroke-linecap: square"/>
     </g>
     <g id="line2d_4">
      <g>
       <use xlink:href="#m5f623b0b4f" x="95.296142" y="97" style="stroke: #000000; stroke-width: 0.8"/>
      </g>
     </g>
     <g id="text_2">
      <text style="font: 10px 'Times New Roman'; text-anchor: middle" x="95.296142" y="110.94375" transform="rotate(-0 95.296142 110.94375)">50</text>
     </g>
    </g>
    <g id="xtick_3">
     <g id="line2d_5">
      <path d="M 155.562283 97 
L 155.562283 0 
" clip-path="url(#p9c77ec3df7)" style="fill: none; stroke: #b0b0b0; stroke-width: 0.8; stroke-linecap: square"/>
     </g>
     <g id="line2d_6">
      <g>
       <use xlink:href="#m5f623b0b4f" x="155.562283" y="97" style="stroke: #000000; stroke-width: 0.8"/>
      </g>
     </g>
     <g id="text_3">
      <text style="font: 10px 'Times New Roman'; text-anchor: middle" x="155.562283" y="110.94375" transform="rotate(-0 155.562283 110.94375)">100</text>
     </g>
    </g>
    <g id="xtick_4">
     <g id="line2d_7">
      <path d="M 215.828425 97 
L 215.828425 0 
" clip-path="url(#p9c77ec3df7)" style="fill: none; stroke: #b0b0b0; stroke-width: 0.8; stroke-linecap: square"/>
     </g>
     <g id="line2d_8">
      <g>
       <use xlink:href="#m5f623b0b4f" x="215.828425" y="97" style="stroke: #000000; stroke-width: 0.8"/>
      </g>
     </g>
     <g id="text_4">
      <text style="font: 10px 'Times New Roman'; text-anchor: middle" x="215.828425" y="110.94375" transform="rotate(-0 215.828425 110.94375)">150</text>
     </g>
    </g>
    <g id="xtick_5">
     <g id="line2d_9">
      <path d="M 276.094566 97 
L 276.094566 0 
" clip-path="url(#p9c77ec3df7)" style="fill: none; stroke: #b0b0b0; stroke-width: 0.8; stroke-linecap: square"/>
     </g>
     <g id="line2d_10">
      <g>
       <use xlink:href="#m5f623b0b4f" x="276.094566" y="97" style="stroke: #000000; stroke-width: 0.8"/>
      </g>
     </g>
     <g id="text_5">
      <text style="font: 10px 'Times New Roman'; text-anchor: middle" x="276.094566" y="110.94375" transform="rotate(-0 276.094566 110.94375)">200</text>
     </g>
    </g>
    <g id="xtick_6">
     <g id="line2d_11">
      <path d="M 336.360708 97 
L 336.360708 0 
" clip-path="url(#p9c77ec3df7)" style="fill: none; stroke: #b0b0b0; stroke-width: 0.8; stroke-linecap: square"/>
     </g>
     <g id="line2d_12">
      <g>
       <use xlink:href="#m5f623b0b4f" x="336.360708" y="97" style="stroke: #000000; stroke-width: 0.8"/>
      </g>
     </g>
     <g id="text_6">
      <text style="font: 10px 'Times New Roman'; text-anchor: middle" x="336.360708" y="110.94375" transform="rotate(-0 336.360708 110.94375)">250</text>
     </g>
    </g>
    <g id="xtick_7">
     <g id="line2d_13">
      <path d="M 396.626849 97 
L 396.626849 0 
" clip-path="url(#p9c77ec3df7)" style="fill: none; stroke: #b0b0b0; stroke-width: 0.8; stroke-linecap: square"/>
     </g>
     <g id="line2d_14">
      <g>
       <use xlink:href="#m5f623b0b4f" x="396.626849" y="97" style="stroke: #000000; stroke-width: 0.8"/>
      </g>
     </g>
     <g id="text_7">
      <text style="font: 10px 'Times New Roman'; text-anchor: middle" x="396.626849" y="110.94375" transform="rotate(-0 396.626849 110.94375)">300</text>
     </g>
    </g>
    <g id="xtick_8">
     <g id="line2d_15">
      <path d="M 456.892991 97 
L 456.892991 0 
" clip-path="url(#p9c77ec3df7)" style="fill: none; stroke: #b0b0b0; stroke-width: 0.8; stroke-linecap: square"/>
     </g>
     <g id="line2d_16">
      <g>
       <use xlink:href="#m5f623b0b4f" x="456.892991" y="97" style="stroke: #000000; stroke-width: 0.8"/>
      </g>
     </g>
     <g id="text_8">
      <text style="font: 10px 'Times New Roman'; text-anchor: middle" x="456.892991" y="110.94375" transform="rotate(-0 456.892991 110.94375)">350</text>
     </g>
    </g>
    <g id="xtick_9">
     <g id="line2d_17">
      <path d="M 517.159132 97 
L 517.159132 0 
" clip-path="url(#p9c77ec3df7)" style="fill: none; stroke: #b0b0b0; stroke-width: 0.8; stroke-linecap: square"/>
     </g>
     <g id="line2d_18">
      <g>
       <use xlink:href="#m5f623b0b4f" x="517.159132" y="97" style="stroke: #000000; stroke-width: 0.8"/>
      </g>
     </g>
     <g id="text_9">
      <text style="font: 10px 'Times New Roman'; text-anchor: middle" x="517.159132" y="110.94375" transform="rotate(-0 517.159132 110.94375)">400</text>
     </g>
    </g>
    <g id="text_10">
     <text style="font: 12px 'Times New Roman'; text-anchor: middle" x="287.515" y="125.415312" transform="rotate(-0 287.515 125.415312)">Simulation Run</text>
    </g>
   </g>
   <g id="matplotlib.axis_2">
    <g id="ytick_1">
     <g id="line2d_19">
      <path d="M 35.03 97 
L 540 97 
" clip-path="url(#p9c77ec3df7)" style="fill: none; stroke: #b0b0b0; stroke-width: 0.8; stroke-linecap: square"/>
     </g>
     <g id="line2d_20">
      <defs>
       <path id="m17b5dccbe9" d="M 0 0 
L -3.5 0 
" style="stroke: #000000; stroke-width: 0.8"/>
      </defs>
      <g>
       <use xlink:href="#m17b5dccbe9" x="35.03" y="97" style="stroke: #000000; stroke-width: 0.8"/>
      </g>
     </g>
     <g id="text_11">
      <text style="font: 10px 'Times New Roman'; text-anchor: end" x="28.03" y="100.471875" transform="rotate(-0 28.03 100.471875)">0.0</text>
     </g>
    </g>
    <g id="ytick_2">
     <g id="line2d_21">
      <path d="M 35.03 56.583333 
L 540 56.583333 
" clip-path="url(#p9c77ec3df7)" style="fill: none; stroke: #b0b0b0; stroke-width: 0.8; stroke-linecap: square"/>
     </g>
     <g id="line2d_22">
      <g>
       <use xlink:href="#m17b5dccbe9" x="35.03" y="56.583333" style="stroke: #000000; stroke-width: 0.8"/>
      </g>
     </g>
     <g id="text_12">
      <text style="font: 10px 'Times New Roman'; text-anchor: end" x="28.03" y="60.055208" transform="rotate(-0 28.03 60.055208)">0.5</text>
     </g>
    </g>
    <g id="ytick_3">
     <g id="line2d_23">
      <path d="M 35.03 16.166667 
L 540 16.166667 
" clip-path="url(#p9c77ec3df7)" style="fill: none; stroke: #b0b0b0; stroke-width: 0.8; stroke-linecap: square"/>
     </g>
     <g id="line2d_24">
      <g>
       <use xlink:href="#m17b5dccbe9" x="35.03" y="16.166667" style="stroke: #000000; stroke-width: 0.8"/>
      </g>
     </g>
     <g id="text_13">
      <text style="font: 10px 'Times New Roman'; text-anchor: end" x="28.03" y="19.638542" transform="rotate(-0 28.03 19.638542)">1.0</text>
     </g>
    </g>
    <g id="text_14">
     <text style="font: 12px 'Times New Roman'; text-anchor: middle" x="8.963125" y="48.5" transform="rotate(-90 8.963125 48.5)">Normalized Value</text>
    </g>
   </g>
   <g id="line2d_25">
    <path d="M 35.03 23.159775 
L 36.235323 29.118565 
L 37.440646 34.187469 
L 38.645968 30.386588 
L 39.851291 25.09406 
L 41.056614 21.964875 
L 42.261937 25.779561 
L 43.46726 23.95291 
L 44.672583 27.040198 
L 45.877905 27.875703 
L 47.083228 23.257201 
L 48.288551 22.532851 
L 49.493874 25.688298 
L 50.699197 26.206302 
L 51.90452 26.576375 
L 53.109842 26.007379 
L 54.315165 26.560983 
L 55.520488 24.537976 
L 56.725811 23.494286 
L 57.931134 24.655107 
L 59.136457 22.332095 
L 60.341779 22.234419 
L 61.547102 23.035799 
L 62.752425 21.548565 
L 65.163071 19.428273 
L 66.368394 19.446784 
L 67.573716 20.013461 
L 68.779039 19.896364 
L 69.984362 20.829832 
L 71.189685 19.823871 
L 72.395008 19.287638 
L 73.600331 19.562338 
L 74.805653 20.38397 
L 76.010976 20.268766 
L 77.216299 18.954845 
L 78.421622 19.675138 
L 82.03759 19.053494 
L 84.448236 18.090837 
L 85.653559 18.206963 
L 86.858882 18.502862 
L 88.064205 18.664627 
L 89.269527 19.008151 
L 91.680173 19.391557 
L 92.885496 20.048104 
L 94.090819 20.200737 
L 96.501464 19.490333 
L 97.706787 19.520799 
L 98.91211 18.600654 
L 100.117433 18.904689 
L 101.322756 19.452834 
L 102.528079 19.649056 
L 103.733401 19.204891 
L 104.938724 19.397439 
L 107.34937 20.062042 
L 108.554693 19.515342 
L 110.965338 19.659542 
L 112.170661 19.022339 
L 114.581307 18.73087 
L 115.78663 18.398198 
L 116.991953 18.617511 
L 118.197275 18.410063 
L 119.402598 17.79274 
L 120.607921 18.239288 
L 123.018567 18.619172 
L 124.223889 18.09913 
L 125.429212 17.962062 
L 126.634535 17.526996 
L 127.839858 17.698333 
L 129.045181 17.38742 
L 130.250504 17.763671 
L 131.455826 17.386181 
L 132.661149 16.871459 
L 133.866472 16.599962 
L 135.071795 16.634427 
L 136.277118 17.015362 
L 137.482441 16.689137 
L 138.687763 17.005999 
L 139.893086 16.875905 
L 141.098409 17.146349 
L 142.303732 17.078995 
L 144.714378 17.635323 
L 145.9197 17.226395 
L 147.125023 16.966339 
L 148.330346 16.949127 
L 150.740992 17.23317 
L 151.946315 17.066374 
L 154.35696 17.099076 
L 155.562283 16.845026 
L 156.767606 16.474143 
L 157.972929 16.647999 
L 159.178252 16.658302 
L 160.383574 16.939827 
L 162.79422 17.130037 
L 163.999543 17.002229 
L 165.204866 16.54983 
L 166.410189 16.601299 
L 168.820834 16.852129 
L 170.026157 16.612242 
L 172.436803 16.868212 
L 173.642126 17.233382 
L 177.258094 17.691069 
L 179.66874 17.606428 
L 180.874063 17.495116 
L 182.079385 17.720266 
L 183.284708 17.75806 
L 184.490031 17.936618 
L 185.695354 17.92332 
L 186.900677 17.570761 
L 188.106 17.658988 
L 189.311322 17.544111 
L 190.516645 17.062676 
L 191.721968 17.384603 
L 192.927291 17.066936 
L 196.543259 17.433421 
L 197.748582 17.128958 
L 198.953905 17.115163 
L 200.159228 16.813145 
L 201.364551 16.772469 
L 202.569873 16.872778 
L 203.775196 16.68031 
L 204.980519 16.901388 
L 206.185842 16.774518 
L 207.391165 16.952865 
L 208.596488 16.997971 
L 209.80181 16.772761 
L 211.007133 16.920317 
L 213.417779 16.806014 
L 214.623102 17.007189 
L 215.828425 17.050084 
L 217.033747 17.293422 
L 218.23907 17.296142 
L 219.444393 17.499296 
L 223.060362 17.55113 
L 224.265684 17.697441 
L 225.471007 17.641309 
L 227.881653 17.815479 
L 229.086976 17.991312 
L 230.292299 17.827925 
L 235.11359 18.13542 
L 236.318913 18.281178 
L 239.934881 18.262766 
L 242.345527 17.919225 
L 244.756173 18.121577 
L 247.166818 18.168781 
L 248.372141 18.112194 
L 249.577464 18.229682 
L 250.782787 18.155916 
L 253.193432 18.410894 
L 255.604078 18.558552 
L 256.809401 18.425656 
L 258.014724 18.111772 
L 260.425369 18.038754 
L 265.246661 18.310193 
L 267.657306 17.8657 
L 270.067952 17.975652 
L 272.478598 17.854815 
L 273.683921 17.565651 
L 274.889243 17.699069 
L 283.326503 17.873912 
L 284.531826 17.675648 
L 289.353117 17.982618 
L 290.55844 17.854374 
L 294.174409 17.863753 
L 298.9957 18.07987 
L 315.87022 18.55739 
L 317.075542 18.482443 
L 320.691511 18.551291 
L 324.307479 18.597696 
L 325.512802 18.662579 
L 330.334094 18.452586 
L 331.539416 18.2027 
L 335.155385 18.336633 
L 337.566031 18.198423 
L 339.976676 18.208028 
L 341.181999 18.025949 
L 349.619259 17.866574 
L 350.824582 17.617002 
L 356.851196 17.449012 
L 358.056519 17.542015 
L 359.261842 17.469594 
L 360.467164 17.557474 
L 364.083133 17.504853 
L 365.288456 17.586076 
L 367.699101 17.210955 
L 371.31507 17.228474 
L 372.520393 17.10639 
L 377.341684 17.436559 
L 379.75233 17.228633 
L 380.957652 17.184807 
L 382.162975 17.01742 
L 388.189589 17.268726 
L 389.394912 17.114839 
L 390.600235 17.174899 
L 397.832172 16.784008 
L 402.653463 16.82032 
L 409.8854 16.860415 
L 413.501369 17.101276 
L 420.733306 16.778897 
L 426.75992 16.926568 
L 427.965243 16.841078 
L 431.581211 17.114194 
L 438.813148 17.138094 
L 440.018471 16.983856 
L 442.429117 17.037393 
L 443.63444 16.831973 
L 444.839763 16.858277 
L 446.045085 16.73317 
L 447.250408 16.807199 
L 448.455731 16.748764 
L 452.071699 16.867918 
L 456.892991 16.92697 
L 459.303636 16.898217 
L 461.714282 17.060704 
L 465.330251 16.947202 
L 467.740896 17.03556 
L 468.946219 16.99644 
L 471.356865 16.777981 
L 478.588802 16.565521 
L 483.410093 16.646927 
L 485.820739 16.609248 
L 487.026062 16.445929 
L 489.436707 16.480742 
L 493.052676 16.37475 
L 495.463321 16.35333 
L 497.873967 16.494213 
L 500.284613 16.425982 
L 511.132518 16.147754 
L 515.95381 16.166667 
L 515.95381 16.166667 
" clip-path="url(#p9c77ec3df7)" style="fill: none; stroke: #4169e1; stroke-width: 1.5; stroke-linecap: square"/>
   </g>
   <g id="line2d_26">
    <path d="M 35.03 97 
L 36.235323 91.646598 
L 37.440646 85.683379 
L 38.645968 81.978165 
L 39.851291 68.089794 
L 41.056614 65.526632 
L 42.261937 56.858988 
L 43.46726 58.355154 
L 44.672583 51.152726 
L 45.877905 54.790226 
L 47.083228 26.467483 
L 48.288551 31.475024 
L 49.493874 18.501131 
L 51.90452 28.187706 
L 53.109842 31.756287 
L 54.315165 34.854835 
L 55.520488 27.817782 
L 56.725811 28.502783 
L 57.931134 28.067549 
L 59.136457 15.077829 
L 60.341779 18.771357 
L 61.547102 20.042437 
L 62.752425 15.578917 
L 63.957748 14.542925 
L 65.163071 13.707125 
L 66.368394 16.790703 
L 67.573716 18.348101 
L 68.779039 21.002351 
L 69.984362 19.72573 
L 71.189685 17.641275 
L 72.395008 18.777289 
L 73.600331 20.783609 
L 74.805653 19.666483 
L 76.010976 21.807979 
L 77.216299 14.786597 
L 78.421622 14.192563 
L 82.03759 19.642235 
L 83.242913 20.420255 
L 84.448236 20.481657 
L 85.653559 22.17576 
L 86.858882 23.308677 
L 88.064205 24.772667 
L 89.269527 25.542181 
L 90.47485 26.858838 
L 91.680173 28.00158 
L 92.885496 26.290197 
L 94.090819 27.532284 
L 95.296142 27.705091 
L 96.501464 28.283378 
L 97.706787 29.572642 
L 98.91211 24.055761 
L 100.117433 24.629435 
L 101.322756 23.430231 
L 102.528079 24.395843 
L 103.733401 23.95222 
L 104.938724 24.866114 
L 106.144047 24.911745 
L 107.34937 25.257415 
L 108.554693 23.665765 
L 110.965338 25.854103 
L 112.170661 23.030788 
L 114.581307 24.814673 
L 115.78663 24.758277 
L 118.197275 25.888561 
L 119.402598 22.868172 
L 120.607921 21.763219 
L 121.813244 22.269003 
L 123.018567 22.997129 
L 124.223889 20.966508 
L 125.429212 21.754503 
L 126.634535 20.562832 
L 127.839858 21.201992 
L 129.045181 21.024652 
L 131.455826 19.516489 
L 132.661149 17.225894 
L 133.866472 17.275736 
L 135.071795 18.209971 
L 136.277118 17.299125 
L 138.687763 16.481323 
L 139.893086 17.17431 
L 141.098409 17.100827 
L 142.303732 17.927722 
L 143.509055 17.564469 
L 144.714378 17.535848 
L 145.9197 16.070799 
L 147.125023 15.983477 
L 148.330346 16.832084 
L 149.535669 17.500203 
L 151.946315 18.271626 
L 154.35696 19.784815 
L 155.562283 19.576236 
L 156.767606 18.240656 
L 157.972929 18.54048 
L 159.178252 19.29325 
L 160.383574 18.79057 
L 161.588897 19.301741 
L 162.79422 19.948336 
L 163.999543 20.398258 
L 165.204866 17.768433 
L 166.410189 18.445186 
L 167.615511 18.710178 
L 168.820834 19.281218 
L 170.026157 18.997271 
L 171.23148 19.566829 
L 172.436803 19.720222 
L 173.642126 18.074354 
L 176.052771 18.664921 
L 177.258094 18.836596 
L 178.463417 19.487934 
L 180.874063 20.407497 
L 182.079385 20.097766 
L 183.284708 20.691457 
L 184.490031 20.705857 
L 185.695354 21.308034 
L 186.900677 19.542751 
L 189.311322 20.341073 
L 190.516645 16.422817 
L 192.927291 13.634695 
L 194.132614 13.924588 
L 195.337937 13.636837 
L 196.543259 14.243077 
L 197.748582 12.964816 
L 198.953905 13.57431 
L 200.159228 12.294759 
L 201.364551 12.869725 
L 202.569873 13.259788 
L 203.775196 13.071772 
L 204.980519 12.623797 
L 206.185842 12.869238 
L 207.391165 12.767701 
L 208.596488 13.304441 
L 209.80181 12.768881 
L 211.007133 12.862607 
L 213.417779 13.839061 
L 214.623102 13.484296 
L 215.828425 13.995768 
L 217.033747 13.193784 
L 218.23907 13.741367 
L 219.444393 13.329963 
L 223.060362 14.830176 
L 224.265684 14.843518 
L 226.67633 15.663641 
L 227.881653 15.928099 
L 230.292299 15.524951 
L 233.908267 16.727148 
L 236.318913 16.627732 
L 239.934881 17.937091 
L 242.345527 17.329715 
L 243.55085 17.292908 
L 248.372141 18.743836 
L 249.577464 18.810576 
L 251.98811 19.373396 
L 253.193432 18.921839 
L 254.398755 19.035561 
L 255.604078 19.413202 
L 256.809401 19.342641 
L 258.014724 17.012103 
L 259.220047 17.20138 
L 260.425369 17.615452 
L 261.630692 17.855362 
L 262.836015 17.57179 
L 265.246661 18.295599 
L 266.451984 16.625231 
L 267.657306 16.132477 
L 268.862629 16.25976 
L 271.273275 17.069623 
L 272.478598 17.138884 
L 273.683921 15.044057 
L 274.889243 14.919763 
L 279.710535 16.461609 
L 282.12118 17.078725 
L 283.326503 17.440955 
L 284.531826 16.596648 
L 285.737149 16.871276 
L 286.942472 16.984537 
L 288.147794 17.305578 
L 289.353117 16.430344 
L 290.55844 16.282926 
L 291.763763 16.656747 
L 294.174409 17.004228 
L 295.379731 17.169935 
L 296.585054 16.956331 
L 301.406346 18.279555 
L 302.611668 18.51895 
L 303.816991 18.447421 
L 306.227637 19.049378 
L 307.43296 19.345127 
L 308.638283 19.466514 
L 315.87022 21.150369 
L 320.691511 21.593642 
L 324.307479 22.441855 
L 326.718125 22.782858 
L 327.923448 22.289052 
L 330.334094 22.895951 
L 331.539416 20.879992 
L 333.950062 21.207077 
L 335.155385 21.504648 
L 336.360708 21.507696 
L 338.771353 22.011124 
L 339.976676 22.305991 
L 341.181999 21.329308 
L 344.797968 22.075042 
L 346.00329 22.000971 
L 347.208613 21.569135 
L 349.619259 22.069847 
L 350.824582 19.894346 
L 352.029905 20.07842 
L 353.235227 19.71519 
L 354.44055 19.845195 
L 356.851196 20.367732 
L 358.056519 20.303114 
L 365.288456 20.741219 
L 366.493778 18.94024 
L 367.699101 18.269616 
L 371.31507 19.095087 
L 372.520393 18.743129 
L 376.136361 18.743858 
L 377.341684 18.651116 
L 378.547007 18.125294 
L 379.75233 18.179695 
L 380.957652 18.370262 
L 382.162975 17.425743 
L 388.189589 18.134991 
L 389.394912 17.352635 
L 390.600235 17.461274 
L 393.010881 17.496392 
L 394.216204 17.314244 
L 395.421526 17.565339 
L 397.832172 17.510149 
L 400.242818 17.851714 
L 401.448141 17.717883 
L 406.269432 18.363238 
L 409.8854 18.331411 
L 412.296046 17.915442 
L 413.501369 18.077286 
L 414.706692 18.108828 
L 415.912015 17.769883 
L 417.117337 17.819548 
L 419.527983 18.298435 
L 421.938629 18.483259 
L 424.349274 18.794224 
L 425.554597 18.724904 
L 426.75992 18.77678 
L 427.965243 18.656773 
L 430.375889 18.046161 
L 431.581211 18.086561 
L 432.786534 18.323785 
L 433.991857 18.370407 
L 438.813148 19.169377 
L 440.018471 18.195195 
L 442.429117 18.586044 
L 443.63444 16.659929 
L 444.839763 16.860064 
L 446.045085 16.289703 
L 448.455731 16.300612 
L 449.661054 16.268558 
L 450.866377 16.50093 
L 453.277022 16.778942 
L 459.303636 17.857363 
L 461.714282 17.599974 
L 468.946219 18.245161 
L 470.151542 17.154981 
L 472.562188 17.228767 
L 473.76751 17.430866 
L 474.972833 16.940264 
L 479.794125 17.538986 
L 482.20477 17.839192 
L 485.820739 18.428965 
L 487.026062 17.129878 
L 488.231384 17.101068 
L 490.64203 17.470412 
L 491.847353 17.355311 
L 495.463321 17.868415 
L 496.668644 17.411218 
L 497.873967 17.552151 
L 499.07929 17.364406 
L 501.489936 17.665541 
L 502.695258 16.991368 
L 503.900581 17.183646 
L 505.105904 17.118303 
L 506.311227 15.407216 
L 507.51655 15.344185 
L 513.543164 16.042071 
L 515.95381 16.166667 
L 515.95381 16.166667 
" clip-path="url(#p9c77ec3df7)" style="fill: none; stroke-dasharray: 5.55,2.4; stroke-dashoffset: 0; stroke: #4169e1; stroke-width: 1.5"/>
   </g>
   <g id="line2d_27">
    <path d="M 35.03 24.279786 
L 36.235323 27.953409 
L 37.440646 32.452032 
L 38.645968 28.911763 
L 39.851291 24.759977 
L 41.056614 21.735335 
L 42.261937 25.088213 
L 43.46726 22.879589 
L 44.672583 25.858445 
L 45.877905 26.973616 
L 47.083228 23.7533 
L 48.288551 23.402292 
L 49.493874 26.123346 
L 50.699197 26.791167 
L 51.90452 27.01834 
L 53.109842 26.487801 
L 54.315165 27.235105 
L 55.520488 25.207573 
L 56.725811 24.147284 
L 57.931134 25.156378 
L 59.136457 22.608128 
L 60.341779 22.468984 
L 61.547102 23.042395 
L 63.957748 20.240749 
L 65.163071 19.47884 
L 66.368394 19.689889 
L 67.573716 20.092297 
L 68.779039 20.011629 
L 69.984362 20.731464 
L 71.189685 19.871627 
L 72.395008 19.318921 
L 73.600331 19.61371 
L 74.805653 20.557273 
L 76.010976 20.254545 
L 77.216299 18.93676 
L 78.421622 19.555771 
L 80.832268 19.017827 
L 82.03759 19.037423 
L 84.448236 18.164872 
L 85.653559 18.088919 
L 86.858882 18.454025 
L 89.269527 18.769108 
L 91.680173 19.279957 
L 92.885496 19.931439 
L 94.090819 19.977929 
L 96.501464 19.643635 
L 97.706787 19.623242 
L 98.91211 18.769776 
L 100.117433 19.02346 
L 101.322756 19.523239 
L 102.528079 19.612104 
L 103.733401 19.002867 
L 104.938724 19.119072 
L 107.34937 19.820709 
L 108.554693 19.367109 
L 110.965338 19.53963 
L 112.170661 18.986857 
L 113.375984 18.707217 
L 115.78663 18.384267 
L 116.991953 18.642371 
L 118.197275 18.412833 
L 119.402598 17.790786 
L 120.607921 18.192962 
L 123.018567 18.499584 
L 124.223889 17.941541 
L 125.429212 17.87283 
L 126.634535 17.409257 
L 127.839858 17.526727 
L 129.045181 17.287883 
L 130.250504 17.612117 
L 131.455826 17.253594 
L 132.661149 16.723893 
L 133.866472 16.45633 
L 135.071795 16.479139 
L 136.277118 16.824331 
L 137.482441 16.449317 
L 138.687763 16.77602 
L 139.893086 16.743854 
L 141.098409 16.98141 
L 142.303732 16.894574 
L 144.714378 17.390245 
L 145.9197 16.957424 
L 147.125023 16.729239 
L 149.535669 16.832454 
L 150.740992 16.941727 
L 151.946315 16.733986 
L 153.151637 16.714794 
L 154.35696 16.820877 
L 155.562283 16.591559 
L 156.767606 16.24458 
L 159.178252 16.466459 
L 160.383574 16.742578 
L 162.79422 16.980983 
L 163.999543 16.863792 
L 165.204866 16.436189 
L 166.410189 16.442583 
L 168.820834 16.650973 
L 170.026157 16.443613 
L 172.436803 16.658942 
L 173.642126 17.010189 
L 178.463417 17.378372 
L 182.079385 17.464855 
L 185.695354 17.701445 
L 186.900677 17.428045 
L 188.106 17.535917 
L 189.311322 17.443408 
L 190.516645 16.989808 
L 191.721968 17.289135 
L 192.927291 16.941735 
L 196.543259 17.261901 
L 197.748582 16.968797 
L 198.953905 16.948665 
L 200.159228 16.657616 
L 201.364551 16.616308 
L 202.569873 16.69146 
L 203.775196 16.509963 
L 204.980519 16.730707 
L 206.185842 16.595791 
L 207.391165 16.75483 
L 208.596488 16.78256 
L 209.80181 16.565797 
L 211.007133 16.707174 
L 213.417779 16.627756 
L 214.623102 16.815094 
L 215.828425 16.826982 
L 217.033747 17.064043 
L 218.23907 17.075388 
L 219.444393 17.282875 
L 223.060362 17.284718 
L 224.265684 17.417748 
L 225.471007 17.327779 
L 227.881653 17.446119 
L 229.086976 17.614292 
L 230.292299 17.429583 
L 233.908267 17.609792 
L 236.318913 17.882863 
L 239.934881 17.865829 
L 242.345527 17.550315 
L 245.961495 17.82149 
L 250.782787 17.833333 
L 255.604078 18.176324 
L 256.809401 18.067784 
L 258.014724 17.789275 
L 260.425369 17.752623 
L 265.246661 18.033532 
L 267.657306 17.626551 
L 270.067952 17.73577 
L 271.273275 17.747777 
L 272.478598 17.614832 
L 273.683921 17.294186 
L 276.094566 17.435991 
L 279.710535 17.468085 
L 283.326503 17.575131 
L 284.531826 17.391694 
L 290.55844 17.558609 
L 294.174409 17.622056 
L 311.048928 18.140812 
L 314.664897 18.115967 
L 326.718125 18.211952 
L 327.923448 18.043884 
L 330.334094 18.027817 
L 331.539416 17.794165 
L 335.155385 17.929133 
L 337.566031 17.771785 
L 346.00329 17.519217 
L 348.413936 17.400776 
L 349.619259 17.429083 
L 350.824582 17.208483 
L 356.851196 17.085873 
L 358.056519 17.174529 
L 359.261842 17.090798 
L 360.467164 17.165225 
L 361.672487 17.108489 
L 362.87781 17.202238 
L 364.083133 17.156846 
L 365.288456 17.236641 
L 367.699101 16.913527 
L 371.31507 16.950094 
L 372.520393 16.82729 
L 377.341684 17.129542 
L 379.75233 16.971156 
L 380.957652 16.939499 
L 382.162975 16.764031 
L 388.189589 16.958198 
L 389.394912 16.82251 
L 390.600235 16.873329 
L 396.626849 16.597123 
L 399.037495 16.564405 
L 400.242818 16.638128 
L 401.448141 16.547569 
L 403.858786 16.58889 
L 405.064109 16.500065 
L 411.090723 16.699914 
L 413.501369 16.817581 
L 418.32266 16.565497 
L 424.349274 16.615511 
L 425.554597 16.698765 
L 427.965243 16.583534 
L 432.786534 16.878435 
L 435.19718 16.834408 
L 442.429117 16.868728 
L 443.63444 16.684036 
L 468.946219 16.839466 
L 471.356865 16.644616 
L 477.383479 16.414188 
L 484.615416 16.537081 
L 485.820739 16.532253 
L 487.026062 16.398636 
L 489.436707 16.42678 
L 501.489936 16.324121 
L 503.900581 16.187712 
L 505.105904 16.252124 
L 506.311227 16.100535 
L 508.721873 16.187594 
L 513.543164 16.149267 
L 515.95381 16.166667 
L 515.95381 16.166667 
" clip-path="url(#p9c77ec3df7)" style="fill: none; stroke: #ff8c00; stroke-width: 1.5; stroke-linecap: square"/>
   </g>
   <g id="line2d_28">
    <path d="M 35.03 97 
L 36.235323 94.670563 
L 37.440646 88.460678 
L 38.645968 84.105345 
L 39.851291 74.783046 
L 41.056614 70.590366 
L 42.261937 62.720605 
L 43.46726 61.111619 
L 44.672583 52.84598 
L 45.877905 55.329469 
L 47.083228 41.217456 
L 48.288551 45.632071 
L 49.493874 34.247269 
L 50.699197 37.728855 
L 51.90452 41.555555 
L 53.109842 44.292069 
L 54.315165 45.850212 
L 55.520488 36.62913 
L 57.931134 36.008504 
L 59.136457 16.495945 
L 60.341779 20.085041 
L 61.547102 22.180591 
L 62.752425 17.665999 
L 63.957748 12.543467 
L 65.163071 13.286792 
L 66.368394 16.187387 
L 67.573716 18.318877 
L 68.779039 21.000569 
L 69.984362 20.940153 
L 71.189685 19.565319 
L 72.395008 20.350548 
L 73.600331 22.193267 
L 74.805653 19.322182 
L 76.010976 21.003717 
L 77.216299 12.623675 
L 78.421622 12.523112 
L 80.832268 15.927691 
L 82.03759 17.951913 
L 83.242913 18.456738 
L 84.448236 19.08712 
L 85.653559 20.857226 
L 86.858882 21.598356 
L 88.064205 23.17508 
L 89.269527 24.466198 
L 91.680173 26.449145 
L 92.885496 24.372478 
L 94.090819 25.806749 
L 96.501464 28.058429 
L 97.706787 29.355481 
L 98.91211 23.944538 
L 100.117433 24.67297 
L 101.322756 23.59326 
L 102.528079 24.804764 
L 103.733401 22.397686 
L 104.938724 23.526941 
L 106.144047 23.339092 
L 107.34937 23.424109 
L 108.554693 22.444425 
L 110.965338 24.612898 
L 112.170661 22.351073 
L 113.375984 22.604762 
L 114.581307 23.572635 
L 115.78663 24.137056 
L 116.991953 24.411125 
L 118.197275 24.8206 
L 119.402598 21.161942 
L 120.607921 20.233025 
L 121.813244 20.741373 
L 123.018567 21.652 
L 124.223889 18.67897 
L 125.429212 19.648391 
L 126.634535 17.833853 
L 127.839858 18.665402 
L 129.045181 18.888941 
L 130.250504 18.431803 
L 131.455826 17.626833 
L 132.661149 14.671877 
L 133.866472 14.650512 
L 135.071795 15.62341 
L 136.277118 14.853113 
L 137.482441 13.744955 
L 138.687763 13.117512 
L 139.893086 14.055186 
L 141.098409 14.129961 
L 142.303732 14.934902 
L 143.509055 14.530601 
L 144.714378 14.762319 
L 145.9197 12.671729 
L 147.125023 12.733006 
L 149.535669 14.362745 
L 150.740992 15.016813 
L 151.946315 15.130804 
L 153.151637 15.951535 
L 154.35696 16.569715 
L 155.562283 16.458359 
L 156.767606 15.149099 
L 159.178252 16.284073 
L 160.383574 15.684165 
L 163.999543 17.178993 
L 165.204866 14.502762 
L 166.410189 15.251968 
L 167.615511 15.69046 
L 168.820834 16.284079 
L 170.026157 16.167131 
L 171.23148 16.791649 
L 172.436803 17.049367 
L 173.642126 15.289613 
L 174.847448 15.769149 
L 176.052771 16.100327 
L 177.258094 16.286635 
L 179.66874 17.607904 
L 180.874063 18.034657 
L 182.079385 17.932026 
L 183.284708 18.380783 
L 184.490031 18.475019 
L 185.695354 19.092852 
L 186.900677 18.080634 
L 189.311322 18.862007 
L 190.516645 14.881669 
L 191.721968 13.498058 
L 192.927291 11.401715 
L 194.132614 11.855418 
L 195.337937 11.675737 
L 196.543259 12.269934 
L 197.748582 10.891065 
L 198.953905 11.510083 
L 200.159228 10.126417 
L 202.569873 11.19161 
L 203.775196 11.004151 
L 204.980519 10.423824 
L 206.185842 10.583105 
L 207.391165 10.558909 
L 208.596488 11.13594 
L 209.80181 10.548065 
L 211.007133 10.632475 
L 213.417779 11.708193 
L 214.623102 11.374202 
L 215.828425 11.937601 
L 217.033747 11.032485 
L 218.23907 11.590987 
L 219.444393 11.008649 
L 223.060362 12.609313 
L 224.265684 12.663853 
L 225.471007 12.973518 
L 226.67633 13.460282 
L 227.881653 13.798258 
L 229.086976 13.52589 
L 230.292299 13.08399 
L 232.702944 13.959352 
L 233.908267 14.278148 
L 235.11359 13.9262 
L 236.318913 14.125993 
L 239.934881 15.539849 
L 241.140204 15.470087 
L 242.345527 14.981235 
L 243.55085 14.969909 
L 244.756173 15.21772 
L 247.166818 16.036141 
L 248.372141 16.436923 
L 249.577464 16.42727 
L 250.782787 16.773196 
L 251.98811 16.99754 
L 253.193432 16.622181 
L 254.398755 16.857816 
L 255.604078 17.284194 
L 256.809401 17.340929 
L 258.014724 15.292266 
L 261.630692 16.211696 
L 262.836015 16.088455 
L 265.246661 16.823464 
L 266.451984 15.310848 
L 267.657306 14.816352 
L 268.862629 14.844929 
L 271.273275 15.674087 
L 272.478598 15.483829 
L 273.683921 12.379642 
L 274.889243 12.391883 
L 282.12118 14.621393 
L 283.326503 14.936931 
L 284.531826 14.129183 
L 285.737149 14.424252 
L 286.942472 14.51843 
L 288.147794 14.810608 
L 289.353117 13.934223 
L 290.55844 13.870117 
L 292.969086 14.602109 
L 294.174409 14.608011 
L 295.379731 14.925473 
L 296.585054 14.795865 
L 301.406346 16.202226 
L 302.611668 16.367259 
L 303.816991 16.308486 
L 306.227637 16.923169 
L 309.843605 17.373945 
L 313.459574 18.228434 
L 315.87022 18.894198 
L 317.075542 18.996335 
L 318.280865 19.259642 
L 319.486188 19.271119 
L 320.691511 19.400636 
L 324.307479 20.275136 
L 325.512802 20.334329 
L 326.718125 20.633323 
L 327.923448 19.761517 
L 330.334094 20.377212 
L 331.539416 18.36932 
L 332.744739 18.471024 
L 335.155385 19.00184 
L 336.360708 18.881148 
L 337.566031 19.048609 
L 339.976676 19.641988 
L 341.181999 19.073045 
L 343.592645 19.665801 
L 344.797968 19.847571 
L 346.00329 19.29619 
L 347.208613 19.093809 
L 349.619259 19.645368 
L 350.824582 17.738725 
L 352.029905 18.004493 
L 353.235227 17.511835 
L 354.44055 17.575744 
L 356.851196 18.12892 
L 359.261842 18.025389 
L 365.288456 18.250443 
L 366.493778 16.7738 
L 367.699101 16.252744 
L 371.31507 17.084221 
L 372.520393 16.639756 
L 373.725715 16.588381 
L 376.136361 16.641416 
L 377.341684 16.652598 
L 378.547007 16.187509 
L 380.957652 16.637972 
L 382.162975 15.38548 
L 388.189589 16.260049 
L 389.394912 15.599426 
L 390.600235 15.742923 
L 391.805558 15.721673 
L 393.010881 15.901033 
L 394.216204 15.614698 
L 395.421526 15.885635 
L 400.242818 16.259426 
L 401.448141 16.09382 
L 403.858786 16.535111 
L 405.064109 16.378268 
L 406.269432 16.611246 
L 408.680078 16.615463 
L 412.296046 16.129211 
L 413.501369 16.334117 
L 414.706692 16.210819 
L 415.912015 15.963533 
L 418.32266 16.30629 
L 419.527983 16.554036 
L 420.733306 16.420894 
L 424.349274 16.757589 
L 425.554597 16.616859 
L 426.75992 16.746343 
L 427.965243 16.719616 
L 430.375889 16.146365 
L 431.581211 16.080448 
L 432.786534 16.283375 
L 433.991857 16.332825 
L 437.607826 16.972576 
L 438.813148 16.997283 
L 440.018471 16.268077 
L 442.429117 16.628445 
L 443.63444 14.868836 
L 444.839763 15.10233 
L 447.250408 14.94547 
L 452.071699 15.344023 
L 458.098314 16.407217 
L 459.303636 16.598347 
L 461.714282 16.443208 
L 462.919605 16.58375 
L 464.124928 16.611686 
L 465.330251 16.83613 
L 466.535573 16.887194 
L 468.946219 17.226761 
L 470.151542 16.026872 
L 473.76751 16.301794 
L 474.972833 16.003974 
L 477.383479 16.326406 
L 479.794125 16.562802 
L 480.999447 16.620042 
L 485.820739 17.466323 
L 487.026062 16.522211 
L 488.231384 16.515561 
L 495.463321 17.539649 
L 496.668644 17.09863 
L 497.873967 17.259646 
L 499.07929 17.059628 
L 500.284613 17.266122 
L 501.489936 17.254548 
L 502.695258 16.542064 
L 503.900581 16.72319 
L 505.105904 16.649207 
L 506.311227 15.303315 
L 507.51655 15.21601 
L 509.927195 15.521786 
L 512.337841 15.832835 
L 515.95381 16.166667 
L 515.95381 16.166667 
" clip-path="url(#p9c77ec3df7)" style="fill: none; stroke-dasharray: 5.55,2.4; stroke-dashoffset: 0; stroke: #ff8c00; stroke-width: 1.5"/>
   </g>
   <g id="patch_3">
    <path d="M 35.03 97 
L 35.03 0 
" style="fill: none; stroke: #000000; stroke-width: 0.8; stroke-linejoin: miter; stroke-linecap: square"/>
   </g>
   <g id="patch_4">
    <path d="M 540 97 
L 540 0 
" style="fill: none; stroke: #000000; stroke-width: 0.8; stroke-linejoin: miter; stroke-linecap: square"/>
   </g>
   <g id="patch_5">
    <path d="M 35.03 97 
L 540 97 
" style="fill: none; stroke: #000000; stroke-width: 0.8; stroke-linejoin: miter; stroke-linecap: square"/>
   </g>
   <g id="patch_6">
    <path d="M 35.03 0 
L 540 0 
" style="fill: none; stroke: #000000; stroke-width: 0.8; stroke-linejoin: miter; stroke-linecap: square"/>
   </g>
  </g>
 </g>
 <defs>
  <clipPath id="p9c77ec3df7">
   <rect x="35.03" y="0" width="504.97" height="97"/>
  </clipPath>
 </defs>
</svg>
