<?xml version="1.0" encoding="utf-8" standalone="no"?>
<!DOCTYPE svg PUBLIC "-//W3C//DTD SVG 1.1//EN"
  "http://www.w3.org/Graphics/SVG/1.1/DTD/svg11.dtd">
<svg xmlns:xlink="http://www.w3.org/1999/xlink" width="540pt" height="129.6pt" viewBox="0 0 540 129.6" xmlns="http://www.w3.org/2000/svg" version="1.1">
 <metadata>
  <rdf:RDF xmlns:dc="http://purl.org/dc/elements/1.1/" xmlns:cc="http://creativecommons.org/ns#" xmlns:rdf="http://www.w3.org/1999/02/22-rdf-syntax-ns#">
   <cc:Work>
    <dc:type rdf:resource="http://purl.org/dc/dcmitype/StillImage"/>
    <dc:date>2025-04-05T04:43:40.799679</dc:date>
    <dc:format>image/svg+xml</dc:format>
    <dc:creator>
     <cc:Agent>
      <dc:title>Matplotlib v3.10.1, https://matplotlib.org/</dc:title>
     </cc:Agent>
    </dc:creator>
   </cc:Work>
  </rdf:RDF>
 </metadata>
 <defs>
  <style type="text/css">*{stroke-linejoin: round; stroke-linecap: butt}</style>
 </defs>
 <g id="figure_1">
  <g id="patch_1">
   <path d="M 0 129.6 
L 540 129.6 
L 540 0 
L 0 0 
z
" style="fill: #ffffff"/>
  </g>
  <g id="axes_1">
   <g id="patch_2">
    <path d="M 26.795 98.44 
L 540 98.44 
L 540 0 
L 26.795 0 
z
" style="fill: #ffffff"/>
   </g>
   <g id="matplotlib.axis_1">
    <g id="xtick_1">
     <g id="line2d_1">
      <path d="M 26.795 98.44 
L 26.795 0 
" clip-path="url(#pe6e2db16b0)" style="fill: none; stroke: #b0b0b0; stroke-width: 0.8; stroke-linecap: square"/>
     </g>
     <g id="line2d_2">
      <defs>
       <path id="m87334ab13c" d="M 0 0 
L 0 3.5 
" style="stroke: #000000; stroke-width: 0.8"/>
      </defs>
      <g>
       <use xlink:href="#m87334ab13c" x="26.795" y="98.44" style="stroke: #000000; stroke-width: 0.8"/>
      </g>
     </g>
     <g id="text_1">
      <text style="font-size: 10px; font-family: 'Times New Roman'; text-anchor: middle" x="26.795" y="112.38375" transform="rotate(-0 26.795 112.38375)">0</text>
     </g>
    </g>
    <g id="xtick_2">
     <g id="line2d_3">
      <path d="M 88.043956 98.44 
L 88.043956 0 
" clip-path="url(#pe6e2db16b0)" style="fill: none; stroke: #b0b0b0; stroke-width: 0.8; stroke-linecap: square"/>
     </g>
     <g id="line2d_4">
      <g>
       <use xlink:href="#m87334ab13c" x="88.043956" y="98.44" style="stroke: #000000; stroke-width: 0.8"/>
      </g>
     </g>
     <g id="text_2">
      <text style="font-size: 10px; font-family: 'Times New Roman'; text-anchor: middle" x="88.043956" y="112.38375" transform="rotate(-0 88.043956 112.38375)">50</text>
     </g>
    </g>
    <g id="xtick_3">
     <g id="line2d_5">
      <path d="M 149.292911 98.44 
L 149.292911 0 
" clip-path="url(#pe6e2db16b0)" style="fill: none; stroke: #b0b0b0; stroke-width: 0.8; stroke-linecap: square"/>
     </g>
     <g id="line2d_6">
      <g>
       <use xlink:href="#m87334ab13c" x="149.292911" y="98.44" style="stroke: #000000; stroke-width: 0.8"/>
      </g>
     </g>
     <g id="text_3">
      <text style="font-size: 10px; font-family: 'Times New Roman'; text-anchor: middle" x="149.292911" y="112.38375" transform="rotate(-0 149.292911 112.38375)">100</text>
     </g>
    </g>
    <g id="xtick_4">
     <g id="line2d_7">
      <path d="M 210.541867 98.44 
L 210.541867 0 
" clip-path="url(#pe6e2db16b0)" style="fill: none; stroke: #b0b0b0; stroke-width: 0.8; stroke-linecap: square"/>
     </g>
     <g id="line2d_8">
      <g>
       <use xlink:href="#m87334ab13c" x="210.541867" y="98.44" style="stroke: #000000; stroke-width: 0.8"/>
      </g>
     </g>
     <g id="text_4">
      <text style="font-size: 10px; font-family: 'Times New Roman'; text-anchor: middle" x="210.541867" y="112.38375" transform="rotate(-0 210.541867 112.38375)">150</text>
     </g>
    </g>
    <g id="xtick_5">
     <g id="line2d_9">
      <path d="M 271.790823 98.44 
L 271.790823 0 
" clip-path="url(#pe6e2db16b0)" style="fill: none; stroke: #b0b0b0; stroke-width: 0.8; stroke-linecap: square"/>
     </g>
     <g id="line2d_10">
      <g>
       <use xlink:href="#m87334ab13c" x="271.790823" y="98.44" style="stroke: #000000; stroke-width: 0.8"/>
      </g>
     </g>
     <g id="text_5">
      <text style="font-size: 10px; font-family: 'Times New Roman'; text-anchor: middle" x="271.790823" y="112.38375" transform="rotate(-0 271.790823 112.38375)">200</text>
     </g>
    </g>
    <g id="xtick_6">
     <g id="line2d_11">
      <path d="M 333.039779 98.44 
L 333.039779 0 
" clip-path="url(#pe6e2db16b0)" style="fill: none; stroke: #b0b0b0; stroke-width: 0.8; stroke-linecap: square"/>
     </g>
     <g id="line2d_12">
      <g>
       <use xlink:href="#m87334ab13c" x="333.039779" y="98.44" style="stroke: #000000; stroke-width: 0.8"/>
      </g>
     </g>
     <g id="text_6">
      <text style="font-size: 10px; font-family: 'Times New Roman'; text-anchor: middle" x="333.039779" y="112.38375" transform="rotate(-0 333.039779 112.38375)">250</text>
     </g>
    </g>
    <g id="xtick_7">
     <g id="line2d_13">
      <path d="M 394.288734 98.44 
L 394.288734 0 
" clip-path="url(#pe6e2db16b0)" style="fill: none; stroke: #b0b0b0; stroke-width: 0.8; stroke-linecap: square"/>
     </g>
     <g id="line2d_14">
      <g>
       <use xlink:href="#m87334ab13c" x="394.288734" y="98.44" style="stroke: #000000; stroke-width: 0.8"/>
      </g>
     </g>
     <g id="text_7">
      <text style="font-size: 10px; font-family: 'Times New Roman'; text-anchor: middle" x="394.288734" y="112.38375" transform="rotate(-0 394.288734 112.38375)">300</text>
     </g>
    </g>
    <g id="xtick_8">
     <g id="line2d_15">
      <path d="M 455.53769 98.44 
L 455.53769 0 
" clip-path="url(#pe6e2db16b0)" style="fill: none; stroke: #b0b0b0; stroke-width: 0.8; stroke-linecap: square"/>
     </g>
     <g id="line2d_16">
      <g>
       <use xlink:href="#m87334ab13c" x="455.53769" y="98.44" style="stroke: #000000; stroke-width: 0.8"/>
      </g>
     </g>
     <g id="text_8">
      <text style="font-size: 10px; font-family: 'Times New Roman'; text-anchor: middle" x="455.53769" y="112.38375" transform="rotate(-0 455.53769 112.38375)">350</text>
     </g>
    </g>
    <g id="xtick_9">
     <g id="line2d_17">
      <path d="M 516.786646 98.44 
L 516.786646 0 
" clip-path="url(#pe6e2db16b0)" style="fill: none; stroke: #b0b0b0; stroke-width: 0.8; stroke-linecap: square"/>
     </g>
     <g id="line2d_18">
      <g>
       <use xlink:href="#m87334ab13c" x="516.786646" y="98.44" style="stroke: #000000; stroke-width: 0.8"/>
      </g>
     </g>
     <g id="text_9">
      <text style="font-size: 10px; font-family: 'Times New Roman'; text-anchor: middle" x="516.786646" y="112.38375" transform="rotate(-0 516.786646 112.38375)">400</text>
     </g>
    </g>
    <g id="text_10">
     <text style="font-size: 12px; font-family: 'Times New Roman'; text-anchor: middle" x="283.3975" y="126.855312" transform="rotate(-0 283.3975 126.855312)">Simulation Run</text>
    </g>
   </g>
   <g id="matplotlib.axis_2">
    <g id="ytick_1">
     <g id="line2d_19">
      <path d="M 26.795 98.44 
L 540 98.44 
" clip-path="url(#pe6e2db16b0)" style="fill: none; stroke: #b0b0b0; stroke-width: 0.8; stroke-linecap: square"/>
     </g>
     <g id="line2d_20">
      <defs>
       <path id="m1a813b2848" d="M 0 0 
L -3.5 0 
" style="stroke: #000000; stroke-width: 0.8"/>
      </defs>
      <g>
       <use xlink:href="#m1a813b2848" x="26.795" y="98.44" style="stroke: #000000; stroke-width: 0.8"/>
      </g>
     </g>
     <g id="text_11">
      <text style="font-size: 10px; font-family: 'Times New Roman'; text-anchor: end" x="19.795" y="101.911875" transform="rotate(-0 19.795 101.911875)">0</text>
     </g>
    </g>
    <g id="ytick_2">
     <g id="line2d_21">
      <path d="M 26.795 57.423333 
L 540 57.423333 
" clip-path="url(#pe6e2db16b0)" style="fill: none; stroke: #b0b0b0; stroke-width: 0.8; stroke-linecap: square"/>
     </g>
     <g id="line2d_22">
      <g>
       <use xlink:href="#m1a813b2848" x="26.795" y="57.423333" style="stroke: #000000; stroke-width: 0.8"/>
      </g>
     </g>
     <g id="text_12">
      <text style="font-size: 10px; font-family: 'Times New Roman'; text-anchor: end" x="19.795" y="60.895208" transform="rotate(-0 19.795 60.895208)">1</text>
     </g>
    </g>
    <g id="ytick_3">
     <g id="line2d_23">
      <path d="M 26.795 16.406667 
L 540 16.406667 
" clip-path="url(#pe6e2db16b0)" style="fill: none; stroke: #b0b0b0; stroke-width: 0.8; stroke-linecap: square"/>
     </g>
     <g id="line2d_24">
      <g>
       <use xlink:href="#m1a813b2848" x="26.795" y="16.406667" style="stroke: #000000; stroke-width: 0.8"/>
      </g>
     </g>
     <g id="text_13">
      <text style="font-size: 10px; font-family: 'Times New Roman'; text-anchor: end" x="19.795" y="19.878542" transform="rotate(-0 19.795 19.878542)">2</text>
     </g>
    </g>
    <g id="text_14">
     <text style="font-size: 12px; font-family: 'Times New Roman'; text-anchor: middle" x="8.228125" y="49.22" transform="rotate(-90 8.228125 49.22)">Normalized Value</text>
    </g>
   </g>
   <g id="line2d_25">
    <path d="M 26.795 74.465977 
L 28.019979 68.706455 
L 29.244958 65.266538 
L 30.469937 56.17337 
L 31.694916 55.629064 
L 34.144875 58.365062 
L 35.369854 57.928629 
L 36.594833 57.942657 
L 37.819812 57.249799 
L 39.044791 58.383005 
L 40.26977 59.266184 
L 41.494749 57.064048 
L 42.719728 57.826046 
L 43.944708 58.790933 
L 45.169687 58.293166 
L 46.394666 58.507411 
L 48.844624 59.248538 
L 50.069603 59.30239 
L 51.294582 59.118452 
L 52.519561 58.450616 
L 53.744541 58.203246 
L 54.96952 57.7116 
L 56.194499 57.998138 
L 57.419478 57.531106 
L 58.644457 58.05234 
L 59.869436 56.87892 
L 61.094415 57.031058 
L 63.544373 56.963752 
L 64.769353 56.576066 
L 68.44429 57.095662 
L 69.669269 57.281161 
L 70.894248 57.727015 
L 73.344206 58.363643 
L 74.569185 58.292863 
L 75.794165 58.498662 
L 77.019144 58.319076 
L 79.469102 58.452776 
L 80.694081 58.687922 
L 81.91906 58.364719 
L 83.144039 58.617194 
L 84.369018 58.047825 
L 85.593997 58.23704 
L 89.268935 58.153055 
L 91.718893 58.662391 
L 92.943872 58.300333 
L 95.39383 58.510906 
L 97.843789 58.941605 
L 99.068768 58.962373 
L 100.293747 58.857795 
L 101.518726 59.077503 
L 102.743705 59.005858 
L 103.968684 59.196343 
L 105.193663 59.129139 
L 106.418642 58.90345 
L 108.868601 58.81627 
L 110.09358 58.510006 
L 112.543538 58.21778 
L 122.343371 58.611848 
L 123.56835 58.467892 
L 124.793329 58.457225 
L 127.243287 58.153388 
L 129.693246 58.121891 
L 133.368183 57.947576 
L 134.593162 57.762951 
L 137.04312 57.88037 
L 141.943037 57.615986 
L 143.168016 57.743466 
L 144.392995 57.669704 
L 145.617974 57.834074 
L 146.842953 57.726105 
L 148.067932 57.29298 
L 151.74287 57.151515 
L 154.192828 57.329023 
L 155.417807 57.232007 
L 156.642786 57.381019 
L 157.867765 57.200819 
L 160.317723 57.403199 
L 162.767682 57.087068 
L 166.442619 56.940195 
L 173.792494 57.632872 
L 177.467431 57.605673 
L 178.69241 57.518587 
L 179.917389 57.557999 
L 181.142368 57.401545 
L 183.592327 57.433234 
L 187.267264 57.07251 
L 188.492243 57.174894 
L 189.717222 56.964488 
L 193.39216 57.088319 
L 194.617139 57.022572 
L 195.842118 57.153009 
L 197.067097 57.080188 
L 199.517055 57.152422 
L 201.967013 57.170819 
L 204.416972 57.245847 
L 205.641951 57.395321 
L 209.316888 57.363516 
L 212.991825 57.555089 
L 220.3417 57.407755 
L 222.791658 57.549513 
L 233.81647 57.470829 
L 235.041449 57.567819 
L 249.741199 57.271318 
L 254.641115 56.962081 
L 258.316053 56.842156 
L 271.790823 56.79286 
L 276.690739 56.883896 
L 279.140698 56.821748 
L 280.365677 56.888443 
L 282.815635 56.852901 
L 290.16551 57.082692 
L 291.390489 56.993148 
L 295.065426 57.150954 
L 297.515384 57.023236 
L 298.740363 57.124406 
L 301.190322 57.104446 
L 306.090238 57.205861 
L 309.765175 57.180145 
L 315.890071 57.391639 
L 322.014967 57.46854 
L 323.239946 57.29728 
L 325.689904 57.274349 
L 328.139862 57.407405 
L 330.58982 57.436008 
L 336.714716 57.377204 
L 340.389653 57.438261 
L 355.089403 57.360997 
L 367.339194 57.617631 
L 389.388818 57.417069 
L 393.063755 57.301385 
L 397.963672 57.290587 
L 432.263087 57.401938 
L 434.713045 57.377304 
L 438.387982 57.366833 
L 451.862753 57.206423 
L 455.53769 57.183749 
L 461.662586 57.135256 
L 467.787481 57.237571 
L 497.18698 57.312314 
L 502.086896 57.384205 
L 510.66175 57.450504 
L 515.561667 57.423333 
L 515.561667 57.423333 
" clip-path="url(#pe6e2db16b0)" style="fill: none; stroke: #4169e1; stroke-width: 1.5; stroke-linecap: square"/>
   </g>
   <g id="line2d_26">
    <path d="M 26.795 98.44 
L 28.019979 88.085612 
L 29.244958 84.14992 
L 30.469937 10.293519 
L 31.694916 27.552903 
L 32.919896 36.747555 
L 34.144875 41.675196 
L 35.369854 48.354613 
L 36.594833 53.919165 
L 37.819812 57.022648 
L 39.044791 56.779476 
L 40.26977 57.572998 
L 41.494749 42.552219 
L 42.719728 44.188055 
L 43.944708 43.736369 
L 45.169687 45.995245 
L 46.394666 48.850988 
L 48.844624 52.60568 
L 50.069603 54.880196 
L 51.294582 56.743257 
L 52.519561 55.715012 
L 53.744541 57.152411 
L 54.96952 57.137384 
L 56.194499 58.174412 
L 57.419478 58.020989 
L 58.644457 57.313086 
L 59.869436 47.177533 
L 63.544373 51.928319 
L 64.769353 51.92744 
L 65.994332 52.897388 
L 67.219311 54.128152 
L 69.669269 55.771497 
L 70.894248 54.690926 
L 73.344206 54.593495 
L 74.569185 55.62867 
L 77.019144 56.738349 
L 79.469102 58.50281 
L 80.694081 58.630889 
L 81.91906 58.029021 
L 83.144039 57.973566 
L 84.369018 54.060664 
L 85.593997 54.429947 
L 88.043956 56.043449 
L 89.268935 56.565887 
L 90.493914 55.921615 
L 91.718893 55.964995 
L 92.943872 54.527729 
L 94.168851 55.239939 
L 95.39383 55.626045 
L 96.61881 55.117208 
L 97.843789 55.352868 
L 99.068768 56.063044 
L 100.293747 56.552922 
L 101.518726 56.309402 
L 102.743705 56.878804 
L 103.968684 56.814661 
L 105.193663 57.364827 
L 106.418642 56.953735 
L 108.868601 58.052427 
L 110.09358 56.646837 
L 111.318559 56.529674 
L 112.543538 56.854976 
L 113.768517 57.367644 
L 114.993496 57.407922 
L 117.443454 58.36989 
L 118.668434 57.871504 
L 122.343371 59.095232 
L 123.56835 59.076024 
L 124.793329 59.559157 
L 126.018308 59.222708 
L 127.243287 59.296671 
L 129.693246 60.102166 
L 132.143204 60.898244 
L 133.368183 60.795839 
L 134.593162 60.282502 
L 135.818141 60.456103 
L 137.04312 60.859305 
L 139.493079 61.49896 
L 140.718058 61.833257 
L 143.168016 61.721135 
L 144.392995 61.936641 
L 145.617974 61.491098 
L 146.842953 61.507723 
L 148.067932 56.079911 
L 154.192828 57.016651 
L 155.417807 57.098954 
L 156.642786 56.750633 
L 157.867765 56.052111 
L 159.092744 56.203478 
L 160.317723 56.110145 
L 161.542703 55.434308 
L 162.767682 55.132761 
L 163.992661 55.27693 
L 165.21764 55.647694 
L 166.442619 55.797141 
L 167.667598 55.598226 
L 168.892577 55.018043 
L 170.117556 55.056595 
L 171.342536 54.272469 
L 172.567515 54.303236 
L 177.467431 55.591523 
L 178.69241 55.640773 
L 179.917389 55.919842 
L 181.142368 55.291929 
L 183.592327 55.834152 
L 184.817306 55.271573 
L 186.042285 55.063314 
L 188.492243 54.902583 
L 189.717222 53.389597 
L 193.39216 54.140867 
L 194.617139 54.277022 
L 195.842118 53.861869 
L 198.292076 54.10392 
L 200.742034 54.679245 
L 204.416972 55.299582 
L 205.641951 54.574858 
L 209.316888 55.432089 
L 210.541867 55.244914 
L 211.766846 55.527958 
L 212.991825 55.370481 
L 215.441784 55.851922 
L 216.666763 55.994388 
L 217.891742 55.93523 
L 219.116721 55.48427 
L 220.3417 55.754401 
L 221.566679 55.241918 
L 225.241617 55.905619 
L 226.466596 55.690846 
L 227.691575 55.926463 
L 228.916554 55.593642 
L 230.141533 55.810836 
L 231.366512 55.398812 
L 232.591491 55.282388 
L 233.81647 55.42127 
L 235.041449 55.173672 
L 236.266429 55.408938 
L 237.491408 55.289354 
L 243.616303 56.243272 
L 246.066261 56.701295 
L 247.291241 56.492504 
L 248.51622 55.242042 
L 249.741199 55.477272 
L 250.966178 55.294239 
L 252.191157 55.489519 
L 253.416136 55.345131 
L 254.641115 54.773677 
L 255.866094 55.005435 
L 257.091074 55.11055 
L 258.316053 55.042268 
L 260.766011 55.399698 
L 261.99099 54.673664 
L 266.890906 55.505731 
L 270.565844 55.931065 
L 274.240781 56.322068 
L 276.690739 56.667803 
L 280.365677 56.84334 
L 281.590656 56.718049 
L 286.490572 57.235551 
L 288.94053 57.212907 
L 290.16551 57.345807 
L 291.390489 56.994586 
L 293.840447 56.662431 
L 295.065426 56.840798 
L 297.515384 56.652195 
L 298.740363 56.130327 
L 299.965343 56.052948 
L 302.415301 56.192984 
L 306.090238 55.963872 
L 308.540196 56.254987 
L 309.765175 56.432444 
L 312.215134 56.284974 
L 320.789987 57.173997 
L 322.014967 56.951687 
L 323.239946 54.906873 
L 325.689904 55.239545 
L 326.914883 54.582714 
L 328.139862 54.696922 
L 329.364841 54.693035 
L 334.264758 55.199324 
L 340.389653 55.508463 
L 341.614632 55.659463 
L 342.839612 55.56084 
L 347.739528 56.111921 
L 350.189486 56.263151 
L 352.639444 56.539253 
L 353.864424 56.245315 
L 357.539361 56.463663 
L 358.76434 56.617577 
L 359.989319 56.302533 
L 361.214298 56.45138 
L 362.439277 56.350068 
L 363.664256 56.483171 
L 364.889236 56.423383 
L 368.564173 56.748159 
L 372.23911 56.932568 
L 373.464089 56.727713 
L 379.588985 57.370877 
L 380.813964 57.451326 
L 382.038943 57.286863 
L 386.93886 57.789749 
L 388.163839 57.722246 
L 389.388818 57.843188 
L 390.613797 57.499971 
L 391.838776 57.518479 
L 394.288734 57.718128 
L 396.738693 57.446748 
L 405.313546 58.075725 
L 406.538525 58.06782 
L 407.763505 58.178644 
L 408.988484 58.037528 
L 411.438442 58.263488 
L 412.663421 57.930575 
L 415.113379 58.040987 
L 416.338358 58.167192 
L 417.563338 57.978069 
L 418.788317 57.668357 
L 420.013296 57.789811 
L 422.463254 57.5772 
L 423.688233 57.364363 
L 427.36317 57.533312 
L 431.038108 57.436205 
L 433.488066 56.959888 
L 440.837941 57.03164 
L 442.06292 56.94909 
L 443.287899 57.0239 
L 444.512878 56.308757 
L 446.962836 56.531777 
L 450.637774 56.511457 
L 453.087732 56.685077 
L 454.312711 56.558293 
L 456.762669 56.734877 
L 459.212627 56.860496 
L 461.662586 57.052813 
L 462.887565 56.968022 
L 464.112544 57.083645 
L 466.562502 57.138071 
L 477.587314 58.036045 
L 478.812293 57.733735 
L 480.037272 57.766697 
L 481.262251 57.623338 
L 483.71221 57.822938 
L 484.937189 57.613275 
L 487.387147 57.741006 
L 488.612126 57.584525 
L 489.837105 57.554733 
L 491.062084 57.048541 
L 492.287063 56.968894 
L 495.962001 57.213923 
L 497.18698 56.972731 
L 499.636938 56.714311 
L 503.311876 56.889394 
L 504.536855 56.985919 
L 505.761834 56.729542 
L 509.436771 56.971128 
L 515.561667 57.423333 
L 515.561667 57.423333 
" clip-path="url(#pe6e2db16b0)" style="fill: none; stroke-dasharray: 5.55,2.4; stroke-dashoffset: 0; stroke: #4169e1; stroke-width: 1.5"/>
   </g>
   <g id="line2d_27">
    <path d="M 26.795 68.216969 
L 28.019979 63.2721 
L 29.244958 60.726885 
L 30.469937 55.290101 
L 32.919896 56.866386 
L 34.144875 57.927746 
L 35.369854 57.571875 
L 36.594833 57.932954 
L 37.819812 57.202011 
L 39.044791 57.855419 
L 40.26977 58.678105 
L 41.494749 57.037116 
L 42.719728 57.492661 
L 43.944708 58.18409 
L 45.169687 57.519131 
L 46.394666 57.464438 
L 48.844624 58.01315 
L 50.069603 57.811842 
L 51.294582 57.859522 
L 52.519561 57.347324 
L 53.744541 57.184857 
L 54.96952 56.829538 
L 56.194499 57.094011 
L 57.419478 56.815793 
L 58.644457 57.230509 
L 59.869436 56.371621 
L 61.094415 56.330677 
L 63.544373 56.478099 
L 64.769353 56.237047 
L 65.994332 56.485939 
L 69.669269 56.858311 
L 72.119227 57.488625 
L 73.344206 57.733965 
L 74.569185 57.640454 
L 75.794165 57.837483 
L 77.019144 57.677856 
L 79.469102 57.719981 
L 80.694081 57.979106 
L 81.91906 57.75161 
L 83.144039 57.902306 
L 84.369018 57.471565 
L 85.593997 57.651707 
L 89.268935 57.615707 
L 91.718893 58.06935 
L 92.943872 57.935263 
L 95.39383 58.102552 
L 97.843789 58.432492 
L 105.193663 58.709128 
L 113.768517 58.174979 
L 114.993496 58.23651 
L 116.218475 58.114766 
L 122.343371 58.415012 
L 127.243287 58.051346 
L 132.143204 57.984818 
L 135.818141 57.880166 
L 138.268099 57.871881 
L 141.943037 57.637592 
L 143.168016 57.743805 
L 144.392995 57.730509 
L 145.617974 57.848131 
L 146.842953 57.789811 
L 148.067932 57.51693 
L 151.74287 57.320992 
L 154.192828 57.422564 
L 155.417807 57.32987 
L 156.642786 57.465408 
L 157.867765 57.316705 
L 161.542703 57.362343 
L 163.992661 57.134774 
L 167.667598 57.19165 
L 172.567515 57.58298 
L 176.242452 57.58365 
L 183.592327 57.42987 
L 187.267264 57.201592 
L 188.492243 57.270597 
L 189.717222 57.122609 
L 199.517055 57.283186 
L 203.191992 57.27749 
L 215.441784 57.483594 
L 216.666763 57.422279 
L 217.891742 57.488049 
L 219.116721 57.394562 
L 224.016637 57.524364 
L 227.691575 57.41013 
L 230.141533 57.519325 
L 231.366512 57.44247 
L 235.041449 57.532178 
L 242.391324 57.501966 
L 246.066261 57.516473 
L 257.091074 57.149169 
L 264.440948 56.98478 
L 280.365677 57.095539 
L 282.815635 57.066619 
L 296.290405 57.176031 
L 297.515384 57.116902 
L 298.740363 57.192387 
L 301.190322 57.162478 
L 306.090238 57.225257 
L 310.990155 57.22226 
L 322.014967 57.428932 
L 324.464925 57.302935 
L 326.914883 57.369416 
L 335.489737 57.410313 
L 340.389653 57.416823 
L 361.214298 57.430043 
L 367.339194 57.535038 
L 407.763505 57.326676 
L 411.438442 57.371425 
L 413.8884 57.341255 
L 440.837941 57.387733 
L 446.962836 57.294823 
L 457.987648 57.17121 
L 488.612126 57.288878 
L 493.512043 57.303523 
L 498.411959 57.360331 
L 502.086896 57.382981 
L 513.111708 57.437242 
L 515.561667 57.423333 
L 515.561667 57.423333 
" clip-path="url(#pe6e2db16b0)" style="fill: none; stroke: #ff8c00; stroke-width: 1.5; stroke-linecap: square"/>
   </g>
   <g id="line2d_28">
    <path d="M 26.795 98.44 
L 28.019979 84.370372 
L 29.244958 81.605173 
L 30.469937 34.789429 
L 31.694916 46.037032 
L 32.919896 53.048573 
L 34.144875 55.643955 
L 35.369854 60.483358 
L 36.594833 64.100602 
L 39.044791 65.372185 
L 40.26977 63.843995 
L 41.494749 47.91155 
L 42.719728 49.968413 
L 43.944708 49.348653 
L 45.169687 48.600464 
L 46.394666 51.504662 
L 47.619645 53.61661 
L 48.844624 54.89096 
L 50.069603 56.625367 
L 51.294582 58.590378 
L 52.519561 57.23167 
L 53.744541 58.689197 
L 54.96952 58.674627 
L 56.194499 59.299309 
L 57.419478 59.691235 
L 58.644457 58.553316 
L 59.869436 48.517156 
L 61.094415 50.211625 
L 63.544373 53.082193 
L 64.769353 53.463159 
L 65.994332 53.685463 
L 67.219311 54.742468 
L 68.44429 55.470162 
L 69.669269 56.491997 
L 70.894248 54.896471 
L 72.119227 54.520833 
L 73.344206 54.330855 
L 74.569185 55.237355 
L 75.794165 55.397586 
L 77.019144 55.821273 
L 79.469102 57.7303 
L 80.694081 56.934974 
L 81.91906 56.497168 
L 83.144039 56.788484 
L 84.369018 52.638529 
L 85.593997 52.676968 
L 88.043956 54.456117 
L 89.268935 55.161726 
L 90.493914 53.918184 
L 91.718893 53.627244 
L 92.943872 53.883375 
L 94.168851 54.640407 
L 95.39383 54.844353 
L 96.61881 54.107 
L 97.843789 54.402576 
L 100.293747 55.701833 
L 101.518726 55.766021 
L 102.743705 56.404723 
L 103.968684 56.060972 
L 105.193663 56.678097 
L 107.643622 57.60621 
L 108.868601 58.206537 
L 110.09358 56.992611 
L 111.318559 56.936224 
L 112.543538 57.21353 
L 113.768517 57.758462 
L 114.993496 58.158893 
L 116.218475 58.080662 
L 117.443454 58.43132 
L 118.668434 57.995037 
L 121.118392 58.895462 
L 123.56835 59.151986 
L 124.793329 59.605471 
L 126.018308 58.172727 
L 132.143204 60.236572 
L 133.368183 60.495159 
L 134.593162 60.351137 
L 135.818141 60.585674 
L 138.268099 61.275841 
L 139.493079 61.31707 
L 140.718058 61.651356 
L 141.943037 61.281065 
L 143.168016 61.051468 
L 144.392995 61.42715 
L 145.617974 61.032642 
L 146.842953 61.218704 
L 148.067932 57.349068 
L 150.517891 57.01723 
L 151.74287 57.41891 
L 152.967849 57.537047 
L 154.192828 57.860267 
L 155.417807 57.723976 
L 156.642786 56.984014 
L 157.867765 56.006419 
L 159.092744 56.254775 
L 161.542703 55.865385 
L 163.992661 54.964786 
L 166.442619 55.691717 
L 167.667598 55.629198 
L 168.892577 55.161327 
L 170.117556 54.957474 
L 171.342536 54.271632 
L 172.567515 54.367331 
L 175.017473 54.957435 
L 176.242452 55.051007 
L 179.917389 55.962615 
L 181.142368 55.386003 
L 182.367348 55.629946 
L 183.592327 55.558467 
L 184.817306 55.089414 
L 188.492243 55.129258 
L 189.717222 53.776459 
L 194.617139 54.798228 
L 195.842118 54.572674 
L 198.292076 54.892394 
L 200.742034 55.360266 
L 201.967013 55.506946 
L 204.416972 56.018491 
L 205.641951 55.154602 
L 209.316888 55.922681 
L 210.541867 55.664654 
L 211.766846 55.903299 
L 212.991825 55.767557 
L 215.441784 56.178359 
L 217.891742 55.995273 
L 219.116721 55.47438 
L 220.3417 55.59546 
L 221.566679 55.035771 
L 224.016637 55.531722 
L 225.241617 55.604086 
L 226.466596 55.320068 
L 227.691575 55.576425 
L 228.916554 55.315982 
L 230.141533 55.455298 
L 231.366512 55.143571 
L 232.591491 55.10238 
L 233.81647 55.290331 
L 235.041449 55.184778 
L 236.266429 55.403424 
L 237.491408 55.426047 
L 242.391324 55.986227 
L 243.616303 56.069894 
L 246.066261 56.457808 
L 248.51622 56.301961 
L 249.741199 56.532164 
L 250.966178 56.536004 
L 252.191157 56.740262 
L 253.416136 56.635989 
L 254.641115 55.688077 
L 257.091074 56.059661 
L 259.541032 56.254292 
L 260.766011 56.370163 
L 261.99099 55.795555 
L 268.115886 56.500771 
L 269.340865 56.450364 
L 271.790823 56.732489 
L 273.015802 56.707241 
L 276.690739 57.216773 
L 279.140698 57.504685 
L 281.590656 57.183028 
L 285.265593 57.648529 
L 286.490572 57.837537 
L 292.615468 58.11439 
L 293.840447 57.776171 
L 295.065426 57.946776 
L 296.290405 57.426153 
L 297.515384 57.166298 
L 298.740363 56.62353 
L 299.965343 56.471044 
L 301.190322 56.597969 
L 307.315217 56.517123 
L 309.765175 56.837015 
L 313.440113 56.897051 
L 314.665092 57.01965 
L 317.11505 56.93808 
L 320.789987 57.376172 
L 322.014967 57.20086 
L 323.239946 55.670602 
L 325.689904 55.92596 
L 326.914883 55.026725 
L 328.139862 55.162231 
L 329.364841 55.136868 
L 331.814799 55.373483 
L 335.489737 55.782877 
L 336.714716 55.858033 
L 339.164674 55.717956 
L 344.064591 56.11009 
L 347.739528 56.568241 
L 352.639444 56.776246 
L 353.864424 56.72406 
L 358.76434 57.141088 
L 359.989319 56.63008 
L 361.214298 56.749475 
L 362.439277 56.625805 
L 363.664256 56.771572 
L 366.114215 56.908771 
L 372.23911 57.048909 
L 373.464089 56.850863 
L 380.813964 57.544812 
L 382.038943 57.391439 
L 386.93886 57.886897 
L 388.163839 57.692444 
L 389.388818 57.811082 
L 390.613797 57.689376 
L 394.288734 58.000401 
L 396.738693 57.788535 
L 399.188651 58.019129 
L 400.41363 58.028538 
L 405.313546 58.510099 
L 410.213463 58.668868 
L 411.438442 58.7948 
L 412.663421 58.413994 
L 415.113379 58.567089 
L 416.338358 58.687487 
L 418.788317 58.132435 
L 420.013296 58.251192 
L 422.463254 58.189604 
L 423.688233 57.93334 
L 424.913212 57.926286 
L 426.138191 57.805714 
L 427.36317 57.913351 
L 428.58815 57.870979 
L 429.813129 57.646782 
L 431.038108 57.769903 
L 432.263087 57.175828 
L 433.488066 57.036755 
L 439.612962 57.362254 
L 443.287899 57.054847 
L 444.512878 56.759696 
L 449.412794 57.071501 
L 450.637774 56.837743 
L 453.087732 57.006414 
L 454.312711 56.796628 
L 455.53769 56.915265 
L 457.987648 56.929724 
L 461.662586 57.206305 
L 462.887565 57.156375 
L 465.337523 57.322349 
L 467.787481 57.474519 
L 477.587314 58.254221 
L 478.812293 58.050257 
L 480.037272 58.042916 
L 481.262251 57.842285 
L 483.71221 58.014292 
L 484.937189 57.810257 
L 487.387147 57.96178 
L 488.612126 57.6804 
L 489.837105 57.655202 
L 492.287063 57.259969 
L 495.962001 57.532735 
L 497.18698 57.238372 
L 498.411959 57.12868 
L 499.636938 56.889758 
L 503.311876 57.07825 
L 504.536855 57.172807 
L 505.761834 56.88948 
L 506.986813 56.837937 
L 515.561667 57.423333 
L 515.561667 57.423333 
" clip-path="url(#pe6e2db16b0)" style="fill: none; stroke-dasharray: 5.55,2.4; stroke-dashoffset: 0; stroke: #ff8c00; stroke-width: 1.5"/>
   </g>
   <g id="patch_3">
    <path d="M 26.795 98.44 
L 26.795 0 
" style="fill: none; stroke: #000000; stroke-width: 0.8; stroke-linejoin: miter; stroke-linecap: square"/>
   </g>
   <g id="patch_4">
    <path d="M 540 98.44 
L 540 0 
" style="fill: none; stroke: #000000; stroke-width: 0.8; stroke-linejoin: miter; stroke-linecap: square"/>
   </g>
   <g id="patch_5">
    <path d="M 26.795 98.44 
L 540 98.44 
" style="fill: none; stroke: #000000; stroke-width: 0.8; stroke-linejoin: miter; stroke-linecap: square"/>
   </g>
   <g id="patch_6">
    <path d="M 26.795 0 
L 540 0 
" style="fill: none; stroke: #000000; stroke-width: 0.8; stroke-linejoin: miter; stroke-linecap: square"/>
   </g>
  </g>
 </g>
 <defs>
  <clipPath id="pe6e2db16b0">
   <rect x="26.795" y="0" width="513.205" height="98.44"/>
  </clipPath>
 </defs>
</svg>
