<?xml version="1.0" encoding="utf-8" standalone="no"?>
<!DOCTYPE svg PUBLIC "-//W3C//DTD SVG 1.1//EN"
  "http://www.w3.org/Graphics/SVG/1.1/DTD/svg11.dtd">
<svg xmlns:xlink="http://www.w3.org/1999/xlink" width="540pt" height="129.6pt" viewBox="0 0 540 129.6" xmlns="http://www.w3.org/2000/svg" version="1.1">
 <metadata>
  <rdf:RDF xmlns:dc="http://purl.org/dc/elements/1.1/" xmlns:cc="http://creativecommons.org/ns#" xmlns:rdf="http://www.w3.org/1999/02/22-rdf-syntax-ns#">
   <cc:Work>
    <dc:type rdf:resource="http://purl.org/dc/dcmitype/StillImage"/>
    <dc:date>2025-04-05T22:37:33.057633</dc:date>
    <dc:format>image/svg+xml</dc:format>
    <dc:creator>
     <cc:Agent>
      <dc:title>Matplotlib v3.10.1, https://matplotlib.org/</dc:title>
     </cc:Agent>
    </dc:creator>
   </cc:Work>
  </rdf:RDF>
 </metadata>
 <defs>
  <style type="text/css">*{stroke-linejoin: round; stroke-linecap: butt}</style>
 </defs>
 <g id="figure_1">
  <g id="patch_1">
   <path d="M 0 129.6 
L 540 129.6 
L 540 0 
L 0 0 
z
" style="fill: #ffffff"/>
  </g>
  <g id="axes_1">
   <g id="patch_2">
    <path d="M 34.31 98.44 
L 540 98.44 
L 540 0 
L 34.31 0 
z
" style="fill: #ffffff"/>
   </g>
   <g id="matplotlib.axis_1">
    <g id="xtick_1">
     <g id="line2d_1">
      <path d="M 34.31 98.44 
L 34.31 0 
" clip-path="url(#p13e4b49ac9)" style="fill: none; stroke: #b0b0b0; stroke-width: 0.8; stroke-linecap: square"/>
     </g>
     <g id="line2d_2">
      <defs>
       <path id="m2b4f671b8e" d="M 0 0 
L 0 3.5 
" style="stroke: #000000; stroke-width: 0.8"/>
      </defs>
      <g>
       <use xlink:href="#m2b4f671b8e" x="34.31" y="98.44" style="stroke: #000000; stroke-width: 0.8"/>
      </g>
     </g>
     <g id="text_1">
      <text style="font-size: 10px; font-family: 'Times New Roman'; text-anchor: middle" x="34.31" y="112.38375" transform="rotate(-0 34.31 112.38375)">0</text>
     </g>
    </g>
    <g id="xtick_2">
     <g id="line2d_3">
      <path d="M 94.662071 98.44 
L 94.662071 0 
" clip-path="url(#p13e4b49ac9)" style="fill: none; stroke: #b0b0b0; stroke-width: 0.8; stroke-linecap: square"/>
     </g>
     <g id="line2d_4">
      <g>
       <use xlink:href="#m2b4f671b8e" x="94.662071" y="98.44" style="stroke: #000000; stroke-width: 0.8"/>
      </g>
     </g>
     <g id="text_2">
      <text style="font-size: 10px; font-family: 'Times New Roman'; text-anchor: middle" x="94.662071" y="112.38375" transform="rotate(-0 94.662071 112.38375)">50</text>
     </g>
    </g>
    <g id="xtick_3">
     <g id="line2d_5">
      <path d="M 155.014141 98.44 
L 155.014141 0 
" clip-path="url(#p13e4b49ac9)" style="fill: none; stroke: #b0b0b0; stroke-width: 0.8; stroke-linecap: square"/>
     </g>
     <g id="line2d_6">
      <g>
       <use xlink:href="#m2b4f671b8e" x="155.014141" y="98.44" style="stroke: #000000; stroke-width: 0.8"/>
      </g>
     </g>
     <g id="text_3">
      <text style="font-size: 10px; font-family: 'Times New Roman'; text-anchor: middle" x="155.014141" y="112.38375" transform="rotate(-0 155.014141 112.38375)">100</text>
     </g>
    </g>
    <g id="xtick_4">
     <g id="line2d_7">
      <path d="M 215.366212 98.44 
L 215.366212 0 
" clip-path="url(#p13e4b49ac9)" style="fill: none; stroke: #b0b0b0; stroke-width: 0.8; stroke-linecap: square"/>
     </g>
     <g id="line2d_8">
      <g>
       <use xlink:href="#m2b4f671b8e" x="215.366212" y="98.44" style="stroke: #000000; stroke-width: 0.8"/>
      </g>
     </g>
     <g id="text_4">
      <text style="font-size: 10px; font-family: 'Times New Roman'; text-anchor: middle" x="215.366212" y="112.38375" transform="rotate(-0 215.366212 112.38375)">150</text>
     </g>
    </g>
    <g id="xtick_5">
     <g id="line2d_9">
      <path d="M 275.718283 98.44 
L 275.718283 0 
" clip-path="url(#p13e4b49ac9)" style="fill: none; stroke: #b0b0b0; stroke-width: 0.8; stroke-linecap: square"/>
     </g>
     <g id="line2d_10">
      <g>
       <use xlink:href="#m2b4f671b8e" x="275.718283" y="98.44" style="stroke: #000000; stroke-width: 0.8"/>
      </g>
     </g>
     <g id="text_5">
      <text style="font-size: 10px; font-family: 'Times New Roman'; text-anchor: middle" x="275.718283" y="112.38375" transform="rotate(-0 275.718283 112.38375)">200</text>
     </g>
    </g>
    <g id="xtick_6">
     <g id="line2d_11">
      <path d="M 336.070353 98.44 
L 336.070353 0 
" clip-path="url(#p13e4b49ac9)" style="fill: none; stroke: #b0b0b0; stroke-width: 0.8; stroke-linecap: square"/>
     </g>
     <g id="line2d_12">
      <g>
       <use xlink:href="#m2b4f671b8e" x="336.070353" y="98.44" style="stroke: #000000; stroke-width: 0.8"/>
      </g>
     </g>
     <g id="text_6">
      <text style="font-size: 10px; font-family: 'Times New Roman'; text-anchor: middle" x="336.070353" y="112.38375" transform="rotate(-0 336.070353 112.38375)">250</text>
     </g>
    </g>
    <g id="xtick_7">
     <g id="line2d_13">
      <path d="M 396.422424 98.44 
L 396.422424 0 
" clip-path="url(#p13e4b49ac9)" style="fill: none; stroke: #b0b0b0; stroke-width: 0.8; stroke-linecap: square"/>
     </g>
     <g id="line2d_14">
      <g>
       <use xlink:href="#m2b4f671b8e" x="396.422424" y="98.44" style="stroke: #000000; stroke-width: 0.8"/>
      </g>
     </g>
     <g id="text_7">
      <text style="font-size: 10px; font-family: 'Times New Roman'; text-anchor: middle" x="396.422424" y="112.38375" transform="rotate(-0 396.422424 112.38375)">300</text>
     </g>
    </g>
    <g id="xtick_8">
     <g id="line2d_15">
      <path d="M 456.774495 98.44 
L 456.774495 0 
" clip-path="url(#p13e4b49ac9)" style="fill: none; stroke: #b0b0b0; stroke-width: 0.8; stroke-linecap: square"/>
     </g>
     <g id="line2d_16">
      <g>
       <use xlink:href="#m2b4f671b8e" x="456.774495" y="98.44" style="stroke: #000000; stroke-width: 0.8"/>
      </g>
     </g>
     <g id="text_8">
      <text style="font-size: 10px; font-family: 'Times New Roman'; text-anchor: middle" x="456.774495" y="112.38375" transform="rotate(-0 456.774495 112.38375)">350</text>
     </g>
    </g>
    <g id="xtick_9">
     <g id="line2d_17">
      <path d="M 517.126565 98.44 
L 517.126565 0 
" clip-path="url(#p13e4b49ac9)" style="fill: none; stroke: #b0b0b0; stroke-width: 0.8; stroke-linecap: square"/>
     </g>
     <g id="line2d_18">
      <g>
       <use xlink:href="#m2b4f671b8e" x="517.126565" y="98.44" style="stroke: #000000; stroke-width: 0.8"/>
      </g>
     </g>
     <g id="text_9">
      <text style="font-size: 10px; font-family: 'Times New Roman'; text-anchor: middle" x="517.126565" y="112.38375" transform="rotate(-0 517.126565 112.38375)">400</text>
     </g>
    </g>
    <g id="text_10">
     <text style="font-size: 12px; font-family: 'Times New Roman'; text-anchor: middle" x="287.155" y="126.855312" transform="rotate(-0 287.155 126.855312)">Simulation Run</text>
    </g>
   </g>
   <g id="matplotlib.axis_2">
    <g id="ytick_1">
     <g id="line2d_19">
      <path d="M 34.31 98.44 
L 540 98.44 
" clip-path="url(#p13e4b49ac9)" style="fill: none; stroke: #b0b0b0; stroke-width: 0.8; stroke-linecap: square"/>
     </g>
     <g id="line2d_20">
      <defs>
       <path id="md4bb7d287b" d="M 0 0 
L -3.5 0 
" style="stroke: #000000; stroke-width: 0.8"/>
      </defs>
      <g>
       <use xlink:href="#md4bb7d287b" x="34.31" y="98.44" style="stroke: #000000; stroke-width: 0.8"/>
      </g>
     </g>
     <g id="text_11">
      <text style="font-size: 10px; font-family: 'Times New Roman'; text-anchor: end" x="27.31" y="101.911875" transform="rotate(-0 27.31 101.911875)">0.0</text>
     </g>
    </g>
    <g id="ytick_2">
     <g id="line2d_21">
      <path d="M 34.31 67.6775 
L 540 67.6775 
" clip-path="url(#p13e4b49ac9)" style="fill: none; stroke: #b0b0b0; stroke-width: 0.8; stroke-linecap: square"/>
     </g>
     <g id="line2d_22">
      <g>
       <use xlink:href="#md4bb7d287b" x="34.31" y="67.6775" style="stroke: #000000; stroke-width: 0.8"/>
      </g>
     </g>
     <g id="text_12">
      <text style="font-size: 10px; font-family: 'Times New Roman'; text-anchor: end" x="27.31" y="71.149375" transform="rotate(-0 27.31 71.149375)">0.5</text>
     </g>
    </g>
    <g id="ytick_3">
     <g id="line2d_23">
      <path d="M 34.31 36.915 
L 540 36.915 
" clip-path="url(#p13e4b49ac9)" style="fill: none; stroke: #b0b0b0; stroke-width: 0.8; stroke-linecap: square"/>
     </g>
     <g id="line2d_24">
      <g>
       <use xlink:href="#md4bb7d287b" x="34.31" y="36.915" style="stroke: #000000; stroke-width: 0.8"/>
      </g>
     </g>
     <g id="text_13">
      <text style="font-size: 10px; font-family: 'Times New Roman'; text-anchor: end" x="27.31" y="40.386875" transform="rotate(-0 27.31 40.386875)">1.0</text>
     </g>
    </g>
    <g id="ytick_4">
     <g id="line2d_25">
      <path d="M 34.31 6.1525 
L 540 6.1525 
" clip-path="url(#p13e4b49ac9)" style="fill: none; stroke: #b0b0b0; stroke-width: 0.8; stroke-linecap: square"/>
     </g>
     <g id="line2d_26">
      <g>
       <use xlink:href="#md4bb7d287b" x="34.31" y="6.1525" style="stroke: #000000; stroke-width: 0.8"/>
      </g>
     </g>
     <g id="text_14">
      <text style="font-size: 10px; font-family: 'Times New Roman'; text-anchor: end" x="27.31" y="9.624375" transform="rotate(-0 27.31 9.624375)">1.5</text>
     </g>
    </g>
    <g id="text_15">
     <text style="font-size: 12px; font-family: 'Times New Roman'; text-anchor: middle" x="8.243125" y="49.22" transform="rotate(-90 8.243125 49.22)">Normalized Value</text>
    </g>
   </g>
   <g id="line2d_27">
    <path d="M 34.31 59.841037 
L 35.517041 44.182681 
L 36.724083 44.815415 
L 37.931124 51.345797 
L 39.138166 46.15238 
L 40.345207 45.381436 
L 41.552248 45.55456 
L 43.966331 45.683828 
L 45.173373 44.796413 
L 46.380414 44.267379 
L 47.587456 42.728577 
L 48.794497 39.368839 
L 50.001538 38.347017 
L 52.415621 39.050379 
L 53.622663 39.161864 
L 54.829704 37.411337 
L 56.036745 36.608378 
L 57.243787 37.770236 
L 58.450828 36.557272 
L 59.65787 35.650496 
L 60.864911 35.553492 
L 62.071953 34.570207 
L 63.278994 33.891837 
L 64.486035 34.109399 
L 65.693077 33.841519 
L 66.900118 34.527123 
L 68.10716 34.352138 
L 69.314201 34.401436 
L 70.521242 35.003141 
L 72.935325 35.49932 
L 75.349408 36.480644 
L 76.556449 36.409116 
L 77.763491 36.196517 
L 78.970532 35.478391 
L 82.591657 35.830393 
L 85.005739 34.901413 
L 86.212781 34.763937 
L 88.626864 35.817924 
L 89.833905 34.940462 
L 91.040946 35.000129 
L 92.247988 35.571233 
L 93.455029 35.466893 
L 95.869112 35.595262 
L 97.076153 35.353876 
L 98.283195 35.981964 
L 99.490236 36.164005 
L 100.697278 35.706795 
L 101.904319 35.867246 
L 103.111361 35.153926 
L 104.318402 35.321098 
L 105.525443 35.300439 
L 106.732485 35.57369 
L 107.939526 35.408142 
L 109.146568 35.734248 
L 112.767692 35.831012 
L 113.974733 35.636926 
L 115.181775 35.994041 
L 116.388816 35.920591 
L 117.595858 35.616395 
L 118.802899 35.608643 
L 120.00994 35.768967 
L 121.216982 35.634695 
L 122.424023 35.922521 
L 123.631065 36.059144 
L 124.838106 35.794393 
L 126.045147 35.408594 
L 127.252189 35.153654 
L 132.080354 35.765933 
L 134.494437 35.722822 
L 135.701479 35.42872 
L 139.322603 35.598234 
L 140.529644 35.121493 
L 142.943727 34.838467 
L 144.150769 35.130971 
L 145.35781 35.169425 
L 147.771893 35.533708 
L 151.393017 35.435232 
L 152.600058 35.617392 
L 155.014141 35.148157 
L 158.635266 35.278791 
L 159.842307 35.159177 
L 163.463431 35.215245 
L 164.670473 35.426712 
L 165.877514 35.390304 
L 167.084555 35.467183 
L 168.291597 35.674418 
L 169.498638 35.762174 
L 170.70568 35.640511 
L 171.912721 35.785364 
L 175.533845 35.415745 
L 176.740887 35.048844 
L 179.15497 35.088252 
L 181.569052 34.92237 
L 183.983135 34.817287 
L 185.190177 34.979087 
L 187.604259 34.767619 
L 188.811301 34.850825 
L 190.018342 35.102849 
L 191.225384 35.167707 
L 192.432425 35.458161 
L 196.053549 35.119522 
L 198.467632 35.515403 
L 199.674674 35.508654 
L 200.881715 35.379737 
L 203.295798 35.564413 
L 204.502839 35.515364 
L 208.123963 35.766683 
L 209.331005 35.743137 
L 210.538046 35.879379 
L 212.952129 35.721784 
L 214.159171 35.787518 
L 218.987336 35.57794 
L 220.194378 35.287156 
L 221.401419 35.129095 
L 225.022543 35.356209 
L 227.436626 35.234856 
L 233.471833 35.369504 
L 237.092957 35.645958 
L 243.128164 35.893559 
L 245.542247 35.772592 
L 250.370413 35.63548 
L 251.577454 35.386741 
L 255.198579 35.243611 
L 258.819703 35.410938 
L 267.268993 35.521932 
L 268.476034 35.486542 
L 269.683076 35.64623 
L 272.097158 35.486523 
L 273.3042 35.451976 
L 275.718283 35.551187 
L 276.925324 35.608231 
L 278.132365 35.426522 
L 280.546448 35.552767 
L 282.960531 35.737688 
L 290.20278 35.764088 
L 292.616862 35.833196 
L 296.237987 35.935526 
L 298.652069 35.82609 
L 299.859111 35.798705 
L 305.894318 36.218333 
L 316.757691 36.231518 
L 322.792898 36.095834 
L 325.206981 35.946039 
L 328.828105 36.000001 
L 331.242188 36.184968 
L 334.863312 36.144102 
L 337.277395 35.914145 
L 340.898519 35.927254 
L 344.519643 36.200444 
L 360.211182 36.110506 
L 366.246389 36.093524 
L 367.45343 36.029483 
L 368.660471 36.14695 
L 381.937927 35.946704 
L 385.559051 36.062759 
L 392.8013 36.045325 
L 395.215383 36.103785 
L 400.043548 36.288795 
L 409.699879 36.509722 
L 416.942128 36.319775 
L 418.149169 36.379488 
L 420.563252 36.235411 
L 425.391418 36.240167 
L 433.840708 36.345752 
L 436.254791 36.332866 
L 441.082956 36.497737 
L 442.289998 36.386008 
L 450.739288 36.329803 
L 453.15337 36.245901 
L 457.981536 36.378186 
L 464.016743 36.261281 
L 465.223784 36.32571 
L 466.430826 36.242653 
L 468.844909 36.30412 
L 473.673074 36.178792 
L 482.122364 36.390763 
L 485.743488 36.41647 
L 491.778696 36.51099 
L 494.192778 36.502618 
L 497.813903 36.560967 
L 499.020944 36.516984 
L 501.435027 36.660424 
L 505.056151 36.669832 
L 511.091358 36.914217 
L 515.919524 36.915 
L 515.919524 36.915 
" clip-path="url(#p13e4b49ac9)" style="fill: none; stroke: #4169e1; stroke-width: 1.5; stroke-linecap: square"/>
   </g>
   <g id="line2d_28">
    <path d="M 34.31 98.44 
L 35.517041 41.867432 
L 36.724083 60.540204 
L 37.931124 40.495445 
L 39.138166 27.191202 
L 40.345207 38.38031 
L 41.552248 46.918772 
L 42.75929 53.35852 
L 43.966331 58.343825 
L 45.173373 60.718097 
L 46.380414 63.501585 
L 47.587456 60.403163 
L 48.794497 32.075073 
L 50.001538 33.683525 
L 51.20858 37.589829 
L 53.622663 44.311119 
L 54.829704 35.298403 
L 56.036745 35.943878 
L 57.243787 33.150715 
L 58.450828 29.470203 
L 59.65787 28.621069 
L 60.864911 31.608909 
L 62.071953 29.262559 
L 63.278994 29.481313 
L 64.486035 31.860533 
L 65.693077 33.895945 
L 66.900118 33.272734 
L 69.314201 37.409729 
L 70.521242 36.872324 
L 71.728284 38.400345 
L 72.935325 39.717159 
L 74.142367 39.695094 
L 75.349408 39.396359 
L 76.556449 40.995142 
L 77.763491 42.172268 
L 78.970532 39.250324 
L 80.177574 40.634472 
L 81.384615 41.803525 
L 82.591657 43.158552 
L 83.798698 42.097064 
L 85.005739 41.63513 
L 86.212781 42.738635 
L 87.419822 40.743142 
L 88.626864 39.508026 
L 89.833905 32.589893 
L 91.040946 33.923161 
L 92.247988 31.627517 
L 95.869112 35.267122 
L 97.076153 35.759956 
L 98.283195 32.096442 
L 99.490236 32.889783 
L 100.697278 31.407503 
L 101.904319 32.250866 
L 103.111361 26.700047 
L 104.318402 27.541983 
L 105.525443 28.717807 
L 106.732485 28.827111 
L 107.939526 29.564162 
L 109.146568 29.136097 
L 111.56065 31.223053 
L 112.767692 32.112371 
L 113.974733 32.528692 
L 115.181775 31.52644 
L 116.388816 32.411556 
L 117.595858 31.881587 
L 118.802899 32.818059 
L 121.216982 33.901087 
L 122.424023 33.377836 
L 123.631065 33.926625 
L 124.838106 33.562517 
L 126.045147 31.795027 
L 127.252189 31.494724 
L 128.45923 31.796338 
L 129.666272 32.366528 
L 130.873313 31.931756 
L 134.494437 34.132603 
L 135.701479 33.212717 
L 138.115562 34.688093 
L 139.322603 35.120808 
L 140.529644 31.21737 
L 141.736686 31.458585 
L 142.943727 31.864438 
L 144.150769 30.791613 
L 145.35781 31.487625 
L 146.564851 31.03051 
L 147.771893 31.368779 
L 151.393017 33.317844 
L 152.600058 33.225325 
L 155.014141 31.999672 
L 156.221183 32.523971 
L 157.428224 32.877479 
L 158.635266 33.439779 
L 159.842307 33.715498 
L 161.049348 34.323165 
L 162.25639 34.795557 
L 163.463431 35.046549 
L 164.670473 34.51379 
L 165.877514 35.0616 
L 167.084555 35.482566 
L 168.291597 34.944764 
L 169.498638 35.307652 
L 170.70568 35.47551 
L 171.912721 35.471111 
L 173.119763 35.691331 
L 174.326804 35.340789 
L 175.533845 35.714114 
L 176.740887 32.576063 
L 179.15497 33.637983 
L 180.362011 33.805397 
L 183.983135 35.125687 
L 185.190177 34.873126 
L 186.397218 34.874741 
L 188.811301 35.467505 
L 190.018342 34.061361 
L 191.225384 34.426625 
L 192.432425 32.361572 
L 196.053549 32.641238 
L 197.260591 31.355159 
L 198.467632 31.066297 
L 199.674674 31.553072 
L 200.881715 31.505083 
L 203.295798 31.907046 
L 204.502839 32.297321 
L 205.709881 32.496743 
L 206.916922 31.956388 
L 209.331005 32.843633 
L 210.538046 32.664571 
L 211.745088 32.693504 
L 214.159171 33.346908 
L 216.573253 33.727214 
L 217.780295 33.907111 
L 218.987336 34.274019 
L 220.194378 31.683476 
L 221.401419 31.2179 
L 222.60846 31.34813 
L 223.815502 30.93429 
L 225.022543 31.349518 
L 226.229585 31.329177 
L 228.643668 32.131196 
L 231.05775 32.469202 
L 232.264792 32.860768 
L 233.471833 32.823442 
L 234.678875 32.592783 
L 235.885916 32.640113 
L 239.50704 33.407139 
L 240.714082 33.503374 
L 241.921123 33.860126 
L 243.128164 34.054351 
L 244.335206 33.982969 
L 247.95633 34.953861 
L 249.163372 34.784098 
L 250.370413 35.137281 
L 251.577454 32.917375 
L 253.991537 32.972879 
L 255.198579 33.278635 
L 256.40562 33.313894 
L 260.026744 34.175684 
L 261.233786 34.060789 
L 262.440827 34.324013 
L 263.647868 34.148736 
L 264.85491 34.436973 
L 267.268993 34.779419 
L 268.476034 35.049821 
L 269.683076 34.225893 
L 270.890117 34.525174 
L 272.097158 34.014416 
L 273.3042 34.283637 
L 274.511241 34.225814 
L 275.718283 34.542027 
L 276.925324 34.707442 
L 278.132365 33.482478 
L 279.339407 33.714618 
L 280.546448 33.703537 
L 281.75349 33.123458 
L 284.167573 33.643852 
L 285.374614 33.932579 
L 286.581655 33.934676 
L 287.788697 33.637869 
L 290.20278 34.189504 
L 291.409821 34.097869 
L 295.030945 34.831058 
L 296.237987 35.048897 
L 297.445028 34.992234 
L 299.859111 35.493073 
L 301.066152 35.332297 
L 302.273194 34.900072 
L 304.687277 34.550667 
L 307.101359 35.0841 
L 310.722484 35.202594 
L 311.929525 34.96484 
L 314.343608 35.451024 
L 315.550649 35.508616 
L 320.378815 36.366882 
L 321.585856 36.308867 
L 322.792898 35.045698 
L 323.999939 34.798959 
L 325.206981 34.900702 
L 326.414022 35.156162 
L 327.621063 34.949273 
L 328.828105 35.167842 
L 330.035146 34.810249 
L 331.242188 34.698377 
L 334.863312 35.363185 
L 336.070353 34.755701 
L 337.277395 34.33363 
L 340.898519 35.017572 
L 343.312602 33.706652 
L 346.933726 34.268432 
L 351.761892 34.617006 
L 352.968933 34.250256 
L 355.383016 34.309798 
L 356.590057 34.395606 
L 357.797099 34.632713 
L 359.00414 34.696345 
L 363.832306 35.544344 
L 365.039347 35.56049 
L 366.246389 35.707307 
L 367.45343 35.672602 
L 368.660471 35.016467 
L 369.867513 35.199208 
L 373.488637 35.295471 
L 374.695678 35.116645 
L 375.90272 35.336312 
L 377.109761 35.086656 
L 378.316803 35.307215 
L 379.523844 35.348959 
L 381.937927 35.741703 
L 383.144968 35.621984 
L 384.35201 35.837367 
L 387.973134 36.014425 
L 389.180175 35.430434 
L 392.8013 35.983378 
L 394.008341 35.732022 
L 395.215383 35.903421 
L 396.422424 35.774291 
L 401.25059 36.188887 
L 402.457631 36.070141 
L 403.664672 35.459174 
L 407.285797 35.949814 
L 410.906921 36.43851 
L 412.113962 36.558794 
L 414.528045 36.181131 
L 415.735087 35.860199 
L 416.942128 35.907873 
L 418.149169 35.842272 
L 419.356211 35.396112 
L 420.563252 35.402714 
L 421.770294 35.563786 
L 424.184376 35.5831 
L 430.219583 36.334382 
L 431.426625 36.33106 
L 433.840708 36.657001 
L 436.254791 36.564133 
L 441.082956 36.749233 
L 442.289998 35.957658 
L 444.70408 36.215099 
L 450.739288 36.802786 
L 451.946329 36.251824 
L 453.15337 36.419697 
L 456.774495 36.572082 
L 460.395619 36.963122 
L 461.60266 36.787075 
L 464.016743 37.10502 
L 465.223784 36.93441 
L 467.637867 36.186071 
L 468.844909 36.331904 
L 470.05195 36.360701 
L 472.466033 36.120765 
L 473.673074 35.710887 
L 476.087157 35.80997 
L 479.708281 36.127754 
L 480.915323 36.112303 
L 484.536447 36.567861 
L 488.157571 36.504469 
L 491.778696 36.99227 
L 496.606861 37.101392 
L 497.813903 37.232977 
L 499.020944 37.219693 
L 500.227985 36.673906 
L 501.435027 36.567537 
L 505.056151 36.967925 
L 506.263193 36.699785 
L 507.470234 36.220943 
L 508.677275 36.069395 
L 515.919524 36.915 
L 515.919524 36.915 
" clip-path="url(#p13e4b49ac9)" style="fill: none; stroke-dasharray: 5.55,2.4; stroke-dashoffset: 0; stroke: #4169e1; stroke-width: 1.5"/>
   </g>
   <g id="line2d_29">
    <path d="M 34.31 56.797531 
L 35.517041 42.760557 
L 36.724083 42.821486 
L 37.931124 48.930169 
L 39.138166 44.351612 
L 40.345207 44.454549 
L 41.552248 44.443896 
L 42.75929 45.00345 
L 43.966331 45.296494 
L 45.173373 44.549447 
L 46.380414 44.547153 
L 47.587456 42.73926 
L 48.794497 40.654212 
L 50.001538 39.853954 
L 51.20858 39.948393 
L 52.415621 39.716557 
L 53.622663 39.76165 
L 54.829704 38.02439 
L 56.036745 37.791727 
L 57.243787 38.56185 
L 59.65787 36.603281 
L 60.864911 36.53141 
L 62.071953 35.720866 
L 63.278994 35.307442 
L 64.486035 35.551983 
L 65.693077 35.301581 
L 66.900118 35.939148 
L 68.10716 35.635096 
L 69.314201 35.644312 
L 70.521242 36.102191 
L 71.728284 36.426129 
L 72.935325 36.373073 
L 74.142367 36.629957 
L 75.349408 37.075292 
L 76.556449 37.08856 
L 77.763491 36.856809 
L 78.970532 36.2801 
L 80.177574 36.500869 
L 81.384615 36.604095 
L 82.591657 36.582934 
L 83.798698 35.979955 
L 86.212781 35.628027 
L 87.419822 36.089607 
L 88.626864 36.409568 
L 89.833905 35.925904 
L 91.040946 36.126433 
L 92.247988 36.521094 
L 93.455029 36.300902 
L 95.869112 36.353891 
L 97.076153 36.260506 
L 98.283195 36.831074 
L 99.490236 36.788292 
L 100.697278 36.360346 
L 101.904319 36.462109 
L 103.111361 36.126791 
L 104.318402 36.254686 
L 105.525443 36.173911 
L 106.732485 36.385731 
L 107.939526 36.074054 
L 109.146568 36.331454 
L 110.353609 36.345328 
L 111.56065 36.235995 
L 112.767692 36.278549 
L 113.974733 36.062338 
L 115.181775 36.274095 
L 116.388816 36.211957 
L 117.595858 35.953453 
L 118.802899 35.92611 
L 120.00994 36.070488 
L 121.216982 36.026522 
L 122.424023 36.236012 
L 123.631065 36.294798 
L 124.838106 36.121365 
L 127.252189 35.523389 
L 132.080354 35.937158 
L 138.115562 35.711752 
L 139.322603 35.842351 
L 140.529644 35.51077 
L 142.943727 35.278347 
L 144.150769 35.510889 
L 145.35781 35.57965 
L 146.564851 35.780217 
L 150.185976 35.729192 
L 151.393017 35.720594 
L 152.600058 35.926901 
L 155.014141 35.61765 
L 158.635266 35.707152 
L 163.463431 35.540318 
L 164.670473 35.747055 
L 167.084555 35.764663 
L 168.291597 35.964226 
L 169.498638 36.026321 
L 170.70568 35.888027 
L 171.912721 36.000784 
L 175.533845 35.641642 
L 176.740887 35.389212 
L 179.15497 35.461298 
L 183.983135 35.213589 
L 185.190177 35.369291 
L 188.811301 35.15806 
L 190.018342 35.397662 
L 191.225384 35.435533 
L 192.432425 35.686039 
L 194.846508 35.470776 
L 196.053549 35.376344 
L 198.467632 35.70144 
L 202.088756 35.604411 
L 203.295798 35.662798 
L 204.502839 35.605055 
L 210.538046 35.916284 
L 212.952129 35.764448 
L 214.159171 35.805305 
L 216.573253 35.71256 
L 220.194378 35.557988 
L 221.401419 35.479589 
L 225.022543 35.66665 
L 228.643668 35.616613 
L 229.850709 35.720464 
L 232.264792 35.623134 
L 235.885916 35.978997 
L 243.128164 36.224468 
L 246.749289 36.07409 
L 250.370413 35.96441 
L 252.784496 35.707533 
L 255.198579 35.673501 
L 264.85491 35.996917 
L 268.476034 35.847781 
L 269.683076 35.986982 
L 272.097158 35.844082 
L 274.511241 35.871246 
L 302.273194 36.314176 
L 305.894318 36.444928 
L 309.515442 36.446092 
L 310.722484 36.493943 
L 313.136566 36.453031 
L 319.171773 36.325588 
L 321.585856 36.401206 
L 323.999939 36.183599 
L 326.414022 36.096292 
L 332.449229 36.264179 
L 340.898519 36.098042 
L 344.519643 36.346365 
L 348.140767 36.346295 
L 352.968933 36.241284 
L 355.383016 36.237137 
L 360.211182 36.261297 
L 367.45343 36.210021 
L 368.660471 36.300639 
L 374.695678 36.180395 
L 396.422424 36.416878 
L 406.078755 36.671627 
L 409.699879 36.712909 
L 416.942128 36.5665 
L 418.149169 36.595085 
L 420.563252 36.48908 
L 430.219583 36.505219 
L 433.840708 36.532667 
L 436.254791 36.515137 
L 441.082956 36.633249 
L 443.497039 36.565798 
L 448.325205 36.564838 
L 454.360412 36.499986 
L 460.395619 36.58552 
L 466.430826 36.536446 
L 468.844909 36.560256 
L 476.087157 36.531041 
L 490.571654 36.678554 
L 499.020944 36.643882 
L 501.435027 36.753388 
L 506.263193 36.802738 
L 509.884317 36.933608 
L 515.919524 36.915 
L 515.919524 36.915 
" clip-path="url(#p13e4b49ac9)" style="fill: none; stroke: #ff8c00; stroke-width: 1.5; stroke-linecap: square"/>
   </g>
   <g id="line2d_30">
    <path d="M 34.31 98.44 
L 35.517041 26.740327 
L 36.724083 50.637516 
L 37.931124 21.851368 
L 39.138166 6.65592 
L 40.345207 21.933988 
L 41.552248 32.86317 
L 42.75929 40.262735 
L 43.966331 46.476884 
L 45.173373 49.845484 
L 46.380414 54.263148 
L 47.587456 44.861516 
L 48.794497 29.999121 
L 50.001538 31.858236 
L 51.20858 36.251584 
L 53.622663 43.279912 
L 54.829704 27.674178 
L 56.036745 31.044129 
L 57.243787 30.313357 
L 58.450828 25.592762 
L 59.65787 22.54194 
L 60.864911 25.800502 
L 62.071953 23.328564 
L 63.278994 24.84032 
L 64.486035 27.127056 
L 65.693077 29.175049 
L 66.900118 27.654997 
L 68.10716 29.153912 
L 69.314201 31.462552 
L 70.521242 31.33439 
L 71.728284 32.247703 
L 72.935325 34.220752 
L 74.142367 35.317128 
L 75.349408 34.666936 
L 76.556449 36.436168 
L 77.763491 37.408362 
L 78.970532 34.536436 
L 80.177574 35.501032 
L 82.591657 38.417174 
L 83.798698 34.421805 
L 85.005739 35.177656 
L 86.212781 36.338911 
L 87.419822 34.307647 
L 88.626864 34.025437 
L 89.833905 31.480208 
L 91.040946 32.18747 
L 92.247988 30.818994 
L 93.455029 31.30691 
L 95.869112 33.857471 
L 97.076153 34.910993 
L 98.283195 29.808873 
L 99.490236 31.020745 
L 100.697278 28.559344 
L 101.904319 29.574292 
L 103.111361 28.429465 
L 104.318402 29.270856 
L 105.525443 30.283595 
L 106.732485 30.421296 
L 107.939526 29.36207 
L 109.146568 28.963759 
L 110.353609 30.044913 
L 111.56065 30.818758 
L 112.767692 31.80049 
L 115.181775 31.561023 
L 116.388816 32.434742 
L 117.595858 31.69982 
L 118.802899 32.620779 
L 120.00994 32.996385 
L 121.216982 33.842228 
L 122.424023 33.549381 
L 123.631065 34.321532 
L 124.838106 34.344286 
L 126.045147 32.546601 
L 127.252189 31.041596 
L 128.45923 31.528451 
L 129.666272 32.246846 
L 130.873313 31.742548 
L 133.287396 33.230471 
L 134.494437 33.998451 
L 135.701479 33.003926 
L 136.90852 33.736885 
L 138.115562 34.246602 
L 139.322603 34.436097 
L 140.529644 31.634501 
L 141.736686 31.59154 
L 142.943727 32.133422 
L 144.150769 31.063492 
L 145.35781 31.629683 
L 146.564851 30.979068 
L 150.185976 32.967454 
L 151.393017 33.632932 
L 152.600058 32.769716 
L 153.8071 32.289512 
L 155.014141 32.314239 
L 156.221183 32.833371 
L 157.428224 33.118539 
L 161.049348 34.597675 
L 162.25639 34.785255 
L 163.463431 35.321424 
L 164.670473 34.220792 
L 167.084555 35.304731 
L 168.291597 34.259819 
L 169.498638 34.670643 
L 170.70568 34.443608 
L 173.119763 34.424758 
L 174.326804 34.019949 
L 175.533845 34.226434 
L 176.740887 32.02991 
L 177.947928 32.261262 
L 179.15497 32.799445 
L 181.569052 33.587457 
L 182.776094 33.650743 
L 183.983135 34.111494 
L 185.190177 33.519302 
L 186.397218 33.512277 
L 187.604259 33.363124 
L 188.811301 33.858125 
L 190.018342 31.660033 
L 191.225384 32.101955 
L 192.432425 29.613099 
L 193.639467 29.941769 
L 194.846508 29.326448 
L 196.053549 29.403578 
L 197.260591 27.998033 
L 198.467632 27.704516 
L 199.674674 28.089621 
L 200.881715 27.987943 
L 205.709881 29.231725 
L 206.916922 28.461245 
L 209.331005 29.249986 
L 211.745088 28.857793 
L 214.159171 29.596207 
L 215.366212 29.554676 
L 217.780295 30.406317 
L 218.987336 30.687089 
L 220.194378 29.333431 
L 222.60846 29.592603 
L 223.815502 28.884586 
L 227.436626 29.979568 
L 228.643668 30.369865 
L 229.850709 30.151692 
L 231.05775 30.104685 
L 232.264792 30.514068 
L 233.471833 29.830419 
L 235.885916 29.171809 
L 239.50704 30.11081 
L 240.714082 30.04836 
L 241.921123 30.441818 
L 243.128164 30.673693 
L 244.335206 30.723835 
L 246.749289 31.283948 
L 247.95633 31.655754 
L 249.163372 31.654078 
L 250.370413 31.986349 
L 251.577454 30.433835 
L 252.784496 30.323964 
L 253.991537 30.382914 
L 260.026744 31.803687 
L 261.233786 31.377419 
L 262.440827 31.729878 
L 263.647868 31.555882 
L 264.85491 31.904204 
L 266.061951 31.940764 
L 268.476034 32.381815 
L 269.683076 31.343884 
L 270.890117 31.653434 
L 272.097158 30.923088 
L 273.3042 31.146163 
L 274.511241 31.154405 
L 275.718283 31.472324 
L 276.925324 31.401629 
L 278.132365 30.287792 
L 279.339407 30.443486 
L 280.546448 30.464687 
L 281.75349 29.898541 
L 284.167573 30.48521 
L 285.374614 30.810243 
L 286.581655 30.962651 
L 287.788697 30.921419 
L 290.20278 31.526988 
L 293.823904 31.285002 
L 296.237987 31.873056 
L 298.652069 32.370453 
L 299.859111 32.654087 
L 301.066152 32.318646 
L 302.273194 31.808759 
L 304.687277 31.777103 
L 307.101359 32.319313 
L 308.308401 32.126411 
L 310.722484 32.281388 
L 311.929525 32.133949 
L 319.171773 33.302895 
L 321.585856 33.600441 
L 322.792898 31.982485 
L 323.999939 31.827089 
L 325.206981 31.848054 
L 326.414022 32.023512 
L 330.035146 32.002717 
L 331.242188 31.878786 
L 333.65627 32.24243 
L 334.863312 32.440272 
L 337.277395 31.853167 
L 340.898519 32.5081 
L 342.10556 31.520485 
L 343.312602 30.824619 
L 348.140767 31.443135 
L 351.761892 31.655245 
L 352.968933 31.224021 
L 356.590057 31.351744 
L 366.246389 33.064706 
L 367.45343 33.19318 
L 368.660471 32.600159 
L 369.867513 32.66808 
L 371.074554 32.902979 
L 373.488637 33.206056 
L 374.695678 32.996822 
L 375.90272 33.221729 
L 377.109761 33.137901 
L 378.316803 33.357633 
L 379.523844 33.350436 
L 381.937927 33.68909 
L 383.144968 33.502237 
L 385.559051 33.837262 
L 386.766093 34.032373 
L 387.973134 33.947022 
L 389.180175 33.529087 
L 392.8013 34.093402 
L 394.008341 33.860792 
L 395.215383 34.072899 
L 396.422424 33.920808 
L 398.836507 33.99079 
L 401.25059 34.188458 
L 402.457631 34.006657 
L 403.664672 33.220592 
L 409.699879 34.050701 
L 410.906921 34.101598 
L 412.113962 34.301964 
L 415.735087 34.270862 
L 418.149169 34.557934 
L 419.356211 33.908737 
L 422.977335 34.374684 
L 424.184376 34.184727 
L 431.426625 35.151019 
L 433.840708 35.382588 
L 435.047749 35.371549 
L 438.668873 35.681528 
L 439.875915 35.606211 
L 441.082956 35.757211 
L 442.289998 35.233393 
L 448.325205 36.035592 
L 455.567453 36.406417 
L 456.774495 36.218767 
L 460.395619 36.554154 
L 464.016743 36.941759 
L 466.430826 36.356967 
L 467.637867 36.169726 
L 470.05195 36.355214 
L 473.673074 35.586569 
L 486.95053 36.756235 
L 488.157571 36.649934 
L 491.778696 37.024263 
L 492.985737 36.964104 
L 494.192778 37.100383 
L 495.39982 37.111018 
L 497.813903 37.408986 
L 499.020944 37.386322 
L 500.227985 36.7451 
L 501.435027 36.740495 
L 505.056151 37.160816 
L 506.263193 36.899763 
L 507.470234 36.183292 
L 508.677275 36.111956 
L 515.919524 36.915 
L 515.919524 36.915 
" clip-path="url(#p13e4b49ac9)" style="fill: none; stroke-dasharray: 5.55,2.4; stroke-dashoffset: 0; stroke: #ff8c00; stroke-width: 1.5"/>
   </g>
   <g id="patch_3">
    <path d="M 34.31 98.44 
L 34.31 0 
" style="fill: none; stroke: #000000; stroke-width: 0.8; stroke-linejoin: miter; stroke-linecap: square"/>
   </g>
   <g id="patch_4">
    <path d="M 540 98.44 
L 540 0 
" style="fill: none; stroke: #000000; stroke-width: 0.8; stroke-linejoin: miter; stroke-linecap: square"/>
   </g>
   <g id="patch_5">
    <path d="M 34.31 98.44 
L 540 98.44 
" style="fill: none; stroke: #000000; stroke-width: 0.8; stroke-linejoin: miter; stroke-linecap: square"/>
   </g>
   <g id="patch_6">
    <path d="M 34.31 0 
L 540 0 
" style="fill: none; stroke: #000000; stroke-width: 0.8; stroke-linejoin: miter; stroke-linecap: square"/>
   </g>
  </g>
 </g>
 <defs>
  <clipPath id="p13e4b49ac9">
   <rect x="34.31" y="0" width="505.69" height="98.44"/>
  </clipPath>
 </defs>
</svg>
