<?xml version="1.0" encoding="utf-8" standalone="no"?>
<!DOCTYPE svg PUBLIC "-//W3C//DTD SVG 1.1//EN"
  "http://www.w3.org/Graphics/SVG/1.1/DTD/svg11.dtd">
<svg xmlns:xlink="http://www.w3.org/1999/xlink" width="540pt" height="129.6pt" viewBox="0 0 540 129.6" xmlns="http://www.w3.org/2000/svg" version="1.1">
 <metadata>
  <rdf:RDF xmlns:dc="http://purl.org/dc/elements/1.1/" xmlns:cc="http://creativecommons.org/ns#" xmlns:rdf="http://www.w3.org/1999/02/22-rdf-syntax-ns#">
   <cc:Work>
    <dc:type rdf:resource="http://purl.org/dc/dcmitype/StillImage"/>
    <dc:date>2025-03-23T10:29:53.024715</dc:date>
    <dc:format>image/svg+xml</dc:format>
    <dc:creator>
     <cc:Agent>
      <dc:title>Matplotlib v3.8.3, https://matplotlib.org/</dc:title>
     </cc:Agent>
    </dc:creator>
   </cc:Work>
  </rdf:RDF>
 </metadata>
 <defs>
  <style type="text/css">*{stroke-linejoin: round; stroke-linecap: butt}</style>
 </defs>
 <g id="figure_1">
  <g id="patch_1">
   <path d="M 0 129.6 
L 540 129.6 
L 540 0 
L 0 0 
z
" style="fill: #ffffff"/>
  </g>
  <g id="axes_1">
   <g id="patch_2">
    <path d="M 35.03 97 
L 540 97 
L 540 0 
L 35.03 0 
z
" style="fill: #ffffff"/>
   </g>
   <g id="matplotlib.axis_1">
    <g id="xtick_1">
     <g id="line2d_1">
      <path d="M 35.03 97 
L 35.03 0 
" clip-path="url(#p8415aeffc7)" style="fill: none; stroke: #b0b0b0; stroke-width: 0.8; stroke-linecap: square"/>
     </g>
     <g id="line2d_2">
      <defs>
       <path id="m8a4767cad7" d="M 0 0 
L 0 3.5 
" style="stroke: #000000; stroke-width: 0.8"/>
      </defs>
      <g>
       <use xlink:href="#m8a4767cad7" x="35.03" y="97" style="stroke: #000000; stroke-width: 0.8"/>
      </g>
     </g>
     <g id="text_1">
      <text style="font: 10px 'Times New Roman'; text-anchor: middle" x="35.03" y="110.94375" transform="rotate(-0 35.03 110.94375)">0</text>
     </g>
    </g>
    <g id="xtick_2">
     <g id="line2d_3">
      <path d="M 95.296142 97 
L 95.296142 0 
" clip-path="url(#p8415aeffc7)" style="fill: none; stroke: #b0b0b0; stroke-width: 0.8; stroke-linecap: square"/>
     </g>
     <g id="line2d_4">
      <g>
       <use xlink:href="#m8a4767cad7" x="95.296142" y="97" style="stroke: #000000; stroke-width: 0.8"/>
      </g>
     </g>
     <g id="text_2">
      <text style="font: 10px 'Times New Roman'; text-anchor: middle" x="95.296142" y="110.94375" transform="rotate(-0 95.296142 110.94375)">50</text>
     </g>
    </g>
    <g id="xtick_3">
     <g id="line2d_5">
      <path d="M 155.562283 97 
L 155.562283 0 
" clip-path="url(#p8415aeffc7)" style="fill: none; stroke: #b0b0b0; stroke-width: 0.8; stroke-linecap: square"/>
     </g>
     <g id="line2d_6">
      <g>
       <use xlink:href="#m8a4767cad7" x="155.562283" y="97" style="stroke: #000000; stroke-width: 0.8"/>
      </g>
     </g>
     <g id="text_3">
      <text style="font: 10px 'Times New Roman'; text-anchor: middle" x="155.562283" y="110.94375" transform="rotate(-0 155.562283 110.94375)">100</text>
     </g>
    </g>
    <g id="xtick_4">
     <g id="line2d_7">
      <path d="M 215.828425 97 
L 215.828425 0 
" clip-path="url(#p8415aeffc7)" style="fill: none; stroke: #b0b0b0; stroke-width: 0.8; stroke-linecap: square"/>
     </g>
     <g id="line2d_8">
      <g>
       <use xlink:href="#m8a4767cad7" x="215.828425" y="97" style="stroke: #000000; stroke-width: 0.8"/>
      </g>
     </g>
     <g id="text_4">
      <text style="font: 10px 'Times New Roman'; text-anchor: middle" x="215.828425" y="110.94375" transform="rotate(-0 215.828425 110.94375)">150</text>
     </g>
    </g>
    <g id="xtick_5">
     <g id="line2d_9">
      <path d="M 276.094566 97 
L 276.094566 0 
" clip-path="url(#p8415aeffc7)" style="fill: none; stroke: #b0b0b0; stroke-width: 0.8; stroke-linecap: square"/>
     </g>
     <g id="line2d_10">
      <g>
       <use xlink:href="#m8a4767cad7" x="276.094566" y="97" style="stroke: #000000; stroke-width: 0.8"/>
      </g>
     </g>
     <g id="text_5">
      <text style="font: 10px 'Times New Roman'; text-anchor: middle" x="276.094566" y="110.94375" transform="rotate(-0 276.094566 110.94375)">200</text>
     </g>
    </g>
    <g id="xtick_6">
     <g id="line2d_11">
      <path d="M 336.360708 97 
L 336.360708 0 
" clip-path="url(#p8415aeffc7)" style="fill: none; stroke: #b0b0b0; stroke-width: 0.8; stroke-linecap: square"/>
     </g>
     <g id="line2d_12">
      <g>
       <use xlink:href="#m8a4767cad7" x="336.360708" y="97" style="stroke: #000000; stroke-width: 0.8"/>
      </g>
     </g>
     <g id="text_6">
      <text style="font: 10px 'Times New Roman'; text-anchor: middle" x="336.360708" y="110.94375" transform="rotate(-0 336.360708 110.94375)">250</text>
     </g>
    </g>
    <g id="xtick_7">
     <g id="line2d_13">
      <path d="M 396.626849 97 
L 396.626849 0 
" clip-path="url(#p8415aeffc7)" style="fill: none; stroke: #b0b0b0; stroke-width: 0.8; stroke-linecap: square"/>
     </g>
     <g id="line2d_14">
      <g>
       <use xlink:href="#m8a4767cad7" x="396.626849" y="97" style="stroke: #000000; stroke-width: 0.8"/>
      </g>
     </g>
     <g id="text_7">
      <text style="font: 10px 'Times New Roman'; text-anchor: middle" x="396.626849" y="110.94375" transform="rotate(-0 396.626849 110.94375)">300</text>
     </g>
    </g>
    <g id="xtick_8">
     <g id="line2d_15">
      <path d="M 456.892991 97 
L 456.892991 0 
" clip-path="url(#p8415aeffc7)" style="fill: none; stroke: #b0b0b0; stroke-width: 0.8; stroke-linecap: square"/>
     </g>
     <g id="line2d_16">
      <g>
       <use xlink:href="#m8a4767cad7" x="456.892991" y="97" style="stroke: #000000; stroke-width: 0.8"/>
      </g>
     </g>
     <g id="text_8">
      <text style="font: 10px 'Times New Roman'; text-anchor: middle" x="456.892991" y="110.94375" transform="rotate(-0 456.892991 110.94375)">350</text>
     </g>
    </g>
    <g id="xtick_9">
     <g id="line2d_17">
      <path d="M 517.159132 97 
L 517.159132 0 
" clip-path="url(#p8415aeffc7)" style="fill: none; stroke: #b0b0b0; stroke-width: 0.8; stroke-linecap: square"/>
     </g>
     <g id="line2d_18">
      <g>
       <use xlink:href="#m8a4767cad7" x="517.159132" y="97" style="stroke: #000000; stroke-width: 0.8"/>
      </g>
     </g>
     <g id="text_9">
      <text style="font: 10px 'Times New Roman'; text-anchor: middle" x="517.159132" y="110.94375" transform="rotate(-0 517.159132 110.94375)">400</text>
     </g>
    </g>
    <g id="text_10">
     <text style="font: 12px 'Times New Roman'; text-anchor: middle" x="287.515" y="125.415312" transform="rotate(-0 287.515 125.415312)">Simulation Run</text>
    </g>
   </g>
   <g id="matplotlib.axis_2">
    <g id="ytick_1">
     <g id="line2d_19">
      <path d="M 35.03 97 
L 540 97 
" clip-path="url(#p8415aeffc7)" style="fill: none; stroke: #b0b0b0; stroke-width: 0.8; stroke-linecap: square"/>
     </g>
     <g id="line2d_20">
      <defs>
       <path id="ma94843098f" d="M 0 0 
L -3.5 0 
" style="stroke: #000000; stroke-width: 0.8"/>
      </defs>
      <g>
       <use xlink:href="#ma94843098f" x="35.03" y="97" style="stroke: #000000; stroke-width: 0.8"/>
      </g>
     </g>
     <g id="text_11">
      <text style="font: 10px 'Times New Roman'; text-anchor: end" x="28.03" y="100.471875" transform="rotate(-0 28.03 100.471875)">0.0</text>
     </g>
    </g>
    <g id="ytick_2">
     <g id="line2d_21">
      <path d="M 35.03 56.583333 
L 540 56.583333 
" clip-path="url(#p8415aeffc7)" style="fill: none; stroke: #b0b0b0; stroke-width: 0.8; stroke-linecap: square"/>
     </g>
     <g id="line2d_22">
      <g>
       <use xlink:href="#ma94843098f" x="35.03" y="56.583333" style="stroke: #000000; stroke-width: 0.8"/>
      </g>
     </g>
     <g id="text_12">
      <text style="font: 10px 'Times New Roman'; text-anchor: end" x="28.03" y="60.055208" transform="rotate(-0 28.03 60.055208)">0.5</text>
     </g>
    </g>
    <g id="ytick_3">
     <g id="line2d_23">
      <path d="M 35.03 16.166667 
L 540 16.166667 
" clip-path="url(#p8415aeffc7)" style="fill: none; stroke: #b0b0b0; stroke-width: 0.8; stroke-linecap: square"/>
     </g>
     <g id="line2d_24">
      <g>
       <use xlink:href="#ma94843098f" x="35.03" y="16.166667" style="stroke: #000000; stroke-width: 0.8"/>
      </g>
     </g>
     <g id="text_13">
      <text style="font: 10px 'Times New Roman'; text-anchor: end" x="28.03" y="19.638542" transform="rotate(-0 28.03 19.638542)">1.0</text>
     </g>
    </g>
    <g id="text_14">
     <text style="font: 12px 'Times New Roman'; text-anchor: middle" x="8.963125" y="48.5" transform="rotate(-90 8.963125 48.5)">Normalized Value</text>
    </g>
   </g>
   <g id="line2d_25">
    <path d="M 35.03 21.441822 
L 36.235323 16.920332 
L 37.440646 16.083874 
L 38.645968 12.090067 
L 39.851291 14.902762 
L 41.056614 13.07864 
L 42.261937 9.720818 
L 43.46726 11.73076 
L 44.672583 11.109498 
L 45.877905 15.549968 
L 47.083228 13.402008 
L 48.288551 13.973205 
L 49.493874 15.347589 
L 50.699197 16.310024 
L 51.90452 15.76948 
L 53.109842 16.3645 
L 54.315165 17.78781 
L 55.520488 16.676715 
L 56.725811 14.401498 
L 57.931134 14.567514 
L 59.136457 15.397749 
L 60.341779 15.985198 
L 61.547102 15.659229 
L 63.957748 16.066977 
L 65.163071 14.466505 
L 66.368394 14.25295 
L 67.573716 14.353784 
L 68.779039 14.846382 
L 69.984362 15.680752 
L 71.189685 15.475797 
L 72.395008 15.515759 
L 73.600331 16.060816 
L 74.805653 16.278446 
L 76.010976 17.273958 
L 77.216299 16.83458 
L 78.421622 17.221425 
L 79.626945 17.182047 
L 80.832268 17.71723 
L 82.03759 17.247677 
L 83.242913 17.198702 
L 84.448236 17.811825 
L 85.653559 17.900049 
L 86.858882 17.286378 
L 88.064205 17.166296 
L 89.269527 17.3437 
L 90.47485 17.248951 
L 91.680173 17.314957 
L 92.885496 17.680101 
L 95.296142 17.189031 
L 96.501464 17.377605 
L 98.91211 17.12661 
L 100.117433 17.482328 
L 101.322756 17.463113 
L 102.528079 17.680202 
L 103.733401 17.710028 
L 104.938724 16.8629 
L 106.144047 17.073858 
L 107.34937 17.61289 
L 108.554693 17.655854 
L 109.760016 17.918058 
L 110.965338 18.431659 
L 112.170661 18.790312 
L 113.375984 18.921882 
L 114.581307 18.857092 
L 115.78663 19.05561 
L 116.991953 19.416073 
L 118.197275 19.327407 
L 120.607921 18.205996 
L 121.813244 18.712143 
L 123.018567 18.572068 
L 124.223889 18.939227 
L 125.429212 18.658511 
L 127.839858 19.013271 
L 131.455826 19.424137 
L 132.661149 19.289105 
L 133.866472 19.713343 
L 135.071795 19.813824 
L 136.277118 19.704324 
L 137.482441 20.079633 
L 138.687763 20.014235 
L 139.893086 19.774755 
L 143.509055 19.946087 
L 144.714378 19.772737 
L 145.9197 19.815726 
L 147.125023 19.545446 
L 148.330346 19.717232 
L 149.535669 19.75062 
L 150.740992 19.236656 
L 151.946315 19.284856 
L 153.151637 19.626804 
L 154.35696 19.419845 
L 159.178252 19.842555 
L 160.383574 19.055012 
L 161.588897 18.892055 
L 163.999543 18.953241 
L 165.204866 19.265756 
L 166.410189 19.33 
L 167.615511 19.250709 
L 171.23148 19.654226 
L 173.642126 19.59526 
L 174.847448 19.923594 
L 176.052771 20.046091 
L 177.258094 20.021117 
L 178.463417 19.487463 
L 180.874063 19.380555 
L 182.079385 18.916737 
L 184.490031 18.895218 
L 185.695354 18.884917 
L 186.900677 18.65258 
L 190.516645 19.032114 
L 191.721968 19.061827 
L 192.927291 18.864846 
L 194.132614 18.813484 
L 195.337937 18.963392 
L 196.543259 18.973208 
L 197.748582 18.833357 
L 198.953905 19.11934 
L 200.159228 19.288188 
L 201.364551 18.730221 
L 202.569873 18.831117 
L 203.775196 19.047061 
L 204.980519 18.922026 
L 208.596488 19.190697 
L 209.80181 19.026758 
L 211.007133 18.458596 
L 212.212456 18.571686 
L 214.623102 18.987004 
L 218.23907 18.795634 
L 221.855039 19.102603 
L 223.060362 18.871414 
L 224.265684 18.485101 
L 225.471007 18.550107 
L 227.881653 18.52341 
L 230.292299 18.680684 
L 231.497621 18.582851 
L 239.934881 18.935605 
L 243.55085 19.23144 
L 244.756173 19.420514 
L 245.961495 19.31657 
L 247.166818 18.889572 
L 249.577464 18.740587 
L 250.782787 18.68857 
L 251.98811 18.461773 
L 253.193432 18.476367 
L 254.398755 18.362166 
L 256.809401 18.62046 
L 260.425369 18.483453 
L 261.630692 18.463519 
L 264.041338 18.206396 
L 268.862629 18.50267 
L 270.067952 18.494589 
L 273.683921 18.782678 
L 274.889243 18.467056 
L 276.094566 18.360832 
L 278.505212 18.463126 
L 279.710535 18.333034 
L 283.326503 18.570125 
L 284.531826 18.446819 
L 288.147794 18.491742 
L 289.353117 18.401895 
L 290.55844 18.543093 
L 291.763763 18.335501 
L 292.969086 18.402913 
L 295.379731 18.234325 
L 296.585054 18.266827 
L 298.9957 18.505314 
L 300.201023 18.546804 
L 301.406346 18.278452 
L 302.611668 18.192419 
L 306.227637 18.31643 
L 308.638283 18.103796 
L 311.048928 18.023412 
L 317.075542 17.896181 
L 320.691511 17.620244 
L 321.896834 17.709929 
L 323.102157 17.650624 
L 325.512802 17.910186 
L 327.923448 17.846253 
L 329.128771 17.907497 
L 330.334094 17.783318 
L 332.744739 17.927366 
L 336.360708 17.945968 
L 338.771353 18.040633 
L 348.413936 17.994293 
L 349.619259 18.105476 
L 353.235227 17.879058 
L 359.261842 17.958103 
L 360.467164 17.778897 
L 361.672487 17.836111 
L 364.083133 17.695809 
L 366.493778 17.736789 
L 367.699101 17.872655 
L 370.109747 17.162435 
L 373.725715 17.396022 
L 374.931038 17.174778 
L 377.341684 17.234687 
L 380.957652 17.424653 
L 383.368298 17.555861 
L 386.984267 17.507415 
L 388.189589 17.380869 
L 389.394912 17.427641 
L 390.600235 17.310688 
L 395.421526 17.51162 
L 397.832172 17.368009 
L 400.242818 17.424208 
L 401.448141 17.396046 
L 403.858786 17.469912 
L 406.269432 17.543989 
L 407.474755 17.566891 
L 408.680078 17.39482 
L 411.090723 17.477398 
L 413.501369 17.382056 
L 418.32266 17.476453 
L 419.527983 17.349334 
L 421.938629 17.319491 
L 429.170566 17.260073 
L 430.375889 17.128964 
L 433.991857 17.294873 
L 438.813148 17.325633 
L 440.018471 17.195448 
L 442.429117 17.214653 
L 446.045085 17.107551 
L 448.455731 17.221624 
L 449.661054 16.921023 
L 453.277022 16.895195 
L 456.892991 16.978588 
L 459.303636 17.100386 
L 460.508959 17.143488 
L 462.919605 17.05867 
L 465.330251 17.073647 
L 466.535573 17.069908 
L 467.740896 16.906729 
L 471.356865 16.904905 
L 472.562188 16.83119 
L 473.76751 16.896191 
L 474.972833 16.810067 
L 478.588802 16.869431 
L 480.999447 16.762793 
L 484.615416 16.919238 
L 490.64203 17.04312 
L 491.847353 16.811321 
L 494.257999 16.684916 
L 499.07929 16.676356 
L 500.284613 16.486045 
L 501.489936 16.547662 
L 502.695258 16.314745 
L 507.51655 16.247794 
L 512.337841 16.248996 
L 515.95381 16.166667 
L 515.95381 16.166667 
" clip-path="url(#p8415aeffc7)" style="fill: none; stroke: #4169e1; stroke-width: 1.5; stroke-linecap: square"/>
   </g>
   <g id="line2d_26">
    <path d="M 35.03 97 
L 36.235323 94.307958 
L 37.440646 95.021043 
L 38.645968 89.214711 
L 39.851291 86.604763 
L 41.056614 86.146533 
L 42.261937 78.788924 
L 43.46726 77.341529 
L 44.672583 79.119211 
L 45.877905 57.539413 
L 47.083228 55.051389 
L 48.288551 58.074518 
L 49.493874 58.083978 
L 50.699197 59.278053 
L 51.90452 61.254197 
L 53.109842 62.788993 
L 54.315165 60.533276 
L 55.520488 59.795638 
L 56.725811 49.483977 
L 57.931134 51.790822 
L 59.136457 52.128328 
L 60.341779 53.213665 
L 63.957748 57.925389 
L 65.163071 50.995783 
L 67.573716 54.095087 
L 68.779039 54.679897 
L 69.984362 53.432085 
L 72.395008 55.987805 
L 73.600331 55.97875 
L 74.805653 56.979446 
L 76.010976 53.685869 
L 77.216299 53.999298 
L 78.421622 54.452076 
L 79.626945 55.564204 
L 80.832268 55.193459 
L 82.03759 55.106342 
L 83.242913 56.115506 
L 84.448236 55.059408 
L 85.653559 55.991724 
L 86.858882 54.791378 
L 88.064205 55.645802 
L 90.47485 57.168654 
L 91.680173 57.97151 
L 92.885496 57.92528 
L 94.090819 58.21054 
L 97.706787 59.704015 
L 98.91211 60.33867 
L 100.117433 60.105485 
L 101.322756 60.761642 
L 102.528079 61.049881 
L 103.733401 61.663033 
L 104.938724 56.781151 
L 106.144047 57.105716 
L 107.34937 55.464102 
L 108.554693 56.119208 
L 109.760016 56.206816 
L 110.965338 54.655892 
L 112.170661 54.223293 
L 114.581307 55.317772 
L 115.78663 55.583054 
L 116.991953 55.019844 
L 118.197275 55.548129 
L 119.402598 53.512247 
L 120.607921 50.880502 
L 121.813244 49.083404 
L 123.018567 49.542318 
L 124.223889 48.861505 
L 125.429212 48.716669 
L 126.634535 48.863855 
L 129.045181 49.775766 
L 130.250504 50.004941 
L 132.661149 50.81788 
L 133.866472 49.430944 
L 136.277118 50.308541 
L 137.482441 49.274882 
L 138.687763 49.775013 
L 139.893086 49.654642 
L 142.303732 50.687559 
L 144.714378 51.018494 
L 145.9197 51.49053 
L 147.125023 51.080071 
L 148.330346 51.198162 
L 149.535669 51.66132 
L 150.740992 48.789433 
L 151.946315 49.251702 
L 153.151637 48.225092 
L 154.35696 48.15447 
L 155.562283 48.428437 
L 157.972929 48.706033 
L 159.178252 49.16556 
L 160.383574 41.127341 
L 161.588897 41.287282 
L 163.999543 42.248278 
L 165.204866 41.361642 
L 167.615511 42.214363 
L 170.026157 42.550974 
L 171.23148 42.851154 
L 173.642126 43.665847 
L 174.847448 42.475022 
L 176.052771 42.705915 
L 177.258094 43.152476 
L 178.463417 39.138639 
L 180.874063 39.978135 
L 182.079385 36.985728 
L 185.695354 38.349192 
L 186.900677 37.915381 
L 188.106 38.006351 
L 189.311322 38.291064 
L 190.516645 38.457936 
L 191.721968 38.889709 
L 192.927291 38.660609 
L 194.132614 39.053398 
L 195.337937 39.092267 
L 196.543259 39.519513 
L 197.748582 39.594478 
L 198.953905 38.548827 
L 200.159228 38.458067 
L 201.364551 33.22185 
L 202.569873 33.491078 
L 203.775196 33.08183 
L 204.980519 33.241686 
L 206.185842 33.620793 
L 208.596488 34.084022 
L 209.80181 34.001797 
L 211.007133 28.224295 
L 212.212456 28.441436 
L 213.417779 27.544844 
L 214.623102 27.557729 
L 220.649716 29.279186 
L 221.855039 29.101393 
L 223.060362 28.435934 
L 224.265684 25.784584 
L 230.292299 27.565993 
L 231.497621 27.783938 
L 235.11359 28.981919 
L 236.318913 28.935136 
L 237.524236 29.048691 
L 238.729558 29.290657 
L 239.934881 29.070207 
L 242.345527 29.48435 
L 243.55085 29.572688 
L 244.756173 29.138895 
L 245.961495 29.27549 
L 247.166818 25.432568 
L 248.372141 25.824636 
L 249.577464 25.836582 
L 250.782787 26.168158 
L 251.98811 25.340317 
L 253.193432 25.728975 
L 254.398755 25.805876 
L 255.604078 25.561553 
L 256.809401 25.722348 
L 259.220047 26.480676 
L 260.425369 26.40716 
L 261.630692 26.77083 
L 262.836015 26.312724 
L 270.067952 27.733875 
L 271.273275 27.661254 
L 272.478598 27.98218 
L 273.683921 27.913157 
L 274.889243 25.648186 
L 277.299889 25.771466 
L 278.505212 26.122247 
L 279.710535 26.017299 
L 280.915858 26.111237 
L 282.12118 26.020453 
L 283.326503 26.358591 
L 284.531826 26.283778 
L 286.942472 26.89448 
L 289.353117 27.211719 
L 290.55844 26.982805 
L 291.763763 26.101279 
L 294.174409 26.400735 
L 295.379731 26.550611 
L 296.585054 26.843587 
L 297.790377 26.3711 
L 300.201023 26.810356 
L 301.406346 25.030857 
L 302.611668 25.137217 
L 306.227637 25.918266 
L 307.43296 25.482659 
L 308.638283 25.709117 
L 309.843605 25.783847 
L 314.664897 26.950818 
L 317.075542 27.377554 
L 318.280865 27.43276 
L 319.486188 27.350781 
L 323.102157 27.671483 
L 324.307479 27.311161 
L 325.512802 27.169388 
L 326.718125 27.286117 
L 327.923448 27.569095 
L 329.128771 27.731977 
L 331.539416 27.40534 
L 336.360708 28.386774 
L 337.566031 28.392737 
L 339.976676 28.928 
L 341.181999 28.939249 
L 343.592645 29.41026 
L 344.797968 29.531835 
L 348.413936 30.267063 
L 350.824582 29.924666 
L 352.029905 29.441496 
L 354.44055 29.904218 
L 355.645873 29.791417 
L 359.261842 30.330065 
L 360.467164 29.434286 
L 361.672487 29.565876 
L 362.87781 29.258303 
L 366.493778 29.897236 
L 367.699101 29.468602 
L 370.109747 20.750991 
L 371.31507 20.939911 
L 373.725715 20.841714 
L 374.931038 19.293171 
L 376.136361 19.549234 
L 377.341684 19.571908 
L 378.547007 19.794631 
L 380.957652 19.879691 
L 382.162975 19.63054 
L 384.573621 20.150528 
L 385.778944 20.282217 
L 386.984267 20.544049 
L 388.189589 20.186254 
L 389.394912 20.361949 
L 390.600235 20.08953 
L 393.010881 20.397429 
L 394.216204 20.649675 
L 396.626849 20.624698 
L 399.037495 20.825675 
L 401.448141 21.29338 
L 402.653463 21.239307 
L 405.064109 21.72286 
L 406.269432 21.701456 
L 407.474755 21.923014 
L 408.680078 20.955782 
L 415.912015 22.029286 
L 417.117337 21.99985 
L 418.32266 22.234808 
L 419.527983 21.789665 
L 420.733306 21.96203 
L 421.938629 21.99857 
L 425.554597 22.64143 
L 429.170566 23.116551 
L 430.375889 22.59869 
L 432.786534 22.600271 
L 435.19718 23.01795 
L 436.402503 22.910108 
L 438.813148 23.243479 
L 440.018471 22.712478 
L 444.839763 23.407574 
L 447.250408 23.243883 
L 448.455731 23.412309 
L 449.661054 19.532451 
L 454.482345 20.188516 
L 455.687668 20.201078 
L 456.892991 20.419531 
L 458.098314 20.239579 
L 460.508959 20.547869 
L 461.714282 20.442543 
L 464.124928 20.815993 
L 465.330251 20.914464 
L 466.535573 21.125742 
L 467.740896 20.077753 
L 471.356865 20.614961 
L 474.972833 20.424283 
L 478.588802 20.890517 
L 480.999447 21.023544 
L 482.20477 20.923481 
L 485.820739 21.354808 
L 488.231384 21.652191 
L 489.436707 21.559746 
L 490.64203 21.757825 
L 491.847353 19.274302 
L 493.052676 18.794852 
L 496.668644 19.309619 
L 497.873967 19.358759 
L 499.07929 19.557513 
L 500.284613 17.916706 
L 501.489936 17.927049 
L 502.695258 15.358577 
L 505.105904 15.680175 
L 509.927195 16.341606 
L 511.132518 15.851108 
L 513.543164 16.005688 
L 514.748487 16.178252 
L 515.95381 16.166667 
L 515.95381 16.166667 
" clip-path="url(#p8415aeffc7)" style="fill: none; stroke-dasharray: 5.55,2.4; stroke-dashoffset: 0; stroke: #4169e1; stroke-width: 1.5"/>
   </g>
   <g id="line2d_27">
    <path d="M 35.03 27.824951 
L 36.235323 21.262714 
L 37.440646 19.81897 
L 38.645968 15.001703 
L 39.851291 17.951212 
L 41.056614 15.172401 
L 42.261937 10.928471 
L 43.46726 12.824241 
L 44.672583 11.621451 
L 45.877905 16.008768 
L 47.083228 14.000751 
L 48.288551 13.932162 
L 50.699197 16.297296 
L 51.90452 15.553573 
L 53.109842 16.274351 
L 54.315165 17.535831 
L 55.520488 16.524764 
L 56.725811 14.244651 
L 57.931134 14.166489 
L 59.136457 15.008958 
L 60.341779 15.421902 
L 61.547102 14.957077 
L 62.752425 15.090137 
L 63.957748 15.373492 
L 65.163071 13.99731 
L 66.368394 13.754868 
L 67.573716 13.769875 
L 68.779039 14.25504 
L 69.984362 15.066396 
L 72.395008 14.9703 
L 73.600331 15.506517 
L 74.805653 15.670179 
L 76.010976 16.726693 
L 77.216299 16.410428 
L 78.421622 16.763515 
L 79.626945 16.880468 
L 80.832268 17.45362 
L 82.03759 17.026375 
L 83.242913 16.992077 
L 84.448236 17.508958 
L 85.653559 17.632454 
L 86.858882 17.112364 
L 88.064205 17.010311 
L 89.269527 17.080617 
L 90.47485 17.004067 
L 91.680173 17.086695 
L 92.885496 17.433494 
L 95.296142 16.975731 
L 96.501464 17.210455 
L 98.91211 17.045107 
L 100.117433 17.432053 
L 101.322756 17.39818 
L 102.528079 17.66643 
L 103.733401 17.662532 
L 104.938724 16.877145 
L 106.144047 17.148944 
L 107.34937 17.586861 
L 108.554693 17.674715 
L 109.760016 17.933487 
L 112.170661 18.70179 
L 113.375984 18.961205 
L 114.581307 18.926784 
L 115.78663 19.088892 
L 116.991953 19.489956 
L 118.197275 19.417119 
L 119.402598 18.972431 
L 120.607921 18.383331 
L 121.813244 18.848533 
L 123.018567 18.764604 
L 124.223889 19.121557 
L 125.429212 18.845882 
L 126.634535 19.061449 
L 131.455826 19.420859 
L 132.661149 19.276167 
L 133.866472 19.691002 
L 135.071795 19.783136 
L 136.277118 19.668566 
L 137.482441 20.01537 
L 138.687763 19.904181 
L 139.893086 19.639228 
L 143.509055 19.802848 
L 144.714378 19.560085 
L 145.9197 19.553672 
L 147.125023 19.329401 
L 149.535669 19.505658 
L 150.740992 19.077315 
L 151.946315 19.137095 
L 153.151637 19.465218 
L 154.35696 19.254844 
L 159.178252 19.600347 
L 160.383574 18.974486 
L 161.588897 18.843826 
L 166.410189 19.284702 
L 167.615511 19.243251 
L 172.436803 19.63378 
L 173.642126 19.561597 
L 174.847448 19.847094 
L 176.052771 19.982914 
L 177.258094 19.946268 
L 178.463417 19.424842 
L 180.874063 19.248734 
L 182.079385 18.897545 
L 184.490031 18.875819 
L 185.695354 18.861554 
L 186.900677 18.589601 
L 190.516645 18.935526 
L 191.721968 18.987736 
L 192.927291 18.786204 
L 194.132614 18.74423 
L 196.543259 18.893009 
L 197.748582 18.719952 
L 200.159228 19.186698 
L 201.364551 18.658049 
L 203.775196 18.979126 
L 204.980519 18.892376 
L 208.596488 19.191572 
L 209.80181 19.010229 
L 211.007133 18.460369 
L 212.212456 18.552056 
L 214.623102 18.967164 
L 218.23907 18.718074 
L 221.855039 19.033946 
L 223.060362 18.838006 
L 224.265684 18.447716 
L 230.292299 18.666978 
L 233.908267 18.662135 
L 238.729558 18.768871 
L 241.140204 19.018539 
L 245.961495 19.318848 
L 247.166818 18.909063 
L 250.782787 18.66952 
L 251.98811 18.467657 
L 253.193432 18.46418 
L 254.398755 18.343929 
L 256.809401 18.612671 
L 261.630692 18.519969 
L 262.836015 18.321655 
L 264.041338 18.248792 
L 268.862629 18.511428 
L 270.067952 18.485384 
L 273.683921 18.769687 
L 274.889243 18.466903 
L 276.094566 18.35861 
L 278.505212 18.466945 
L 279.710535 18.313445 
L 282.12118 18.515889 
L 283.326503 18.511924 
L 284.531826 18.36941 
L 285.737149 18.398359 
L 286.942472 18.314148 
L 288.147794 18.385928 
L 289.353117 18.297638 
L 290.55844 18.435385 
L 291.763763 18.212922 
L 292.969086 18.277707 
L 295.379731 18.095333 
L 296.585054 18.137715 
L 298.9957 18.386729 
L 300.201023 18.399507 
L 301.406346 18.133602 
L 302.611668 18.04035 
L 306.227637 18.157991 
L 307.43296 18.008852 
L 317.075542 17.725673 
L 320.691511 17.441265 
L 321.896834 17.531435 
L 323.102157 17.483131 
L 325.512802 17.73666 
L 327.923448 17.654781 
L 329.128771 17.736213 
L 330.334094 17.614647 
L 332.744739 17.745273 
L 335.155385 17.774367 
L 349.619259 17.950256 
L 352.029905 17.681433 
L 359.261842 17.820976 
L 360.467164 17.648343 
L 361.672487 17.697551 
L 364.083133 17.593667 
L 366.493778 17.640133 
L 367.699101 17.763498 
L 370.109747 17.089786 
L 373.725715 17.298265 
L 374.931038 17.110223 
L 377.341684 17.161807 
L 385.778944 17.467296 
L 389.394912 17.427952 
L 390.600235 17.32283 
L 395.421526 17.514572 
L 397.832172 17.349432 
L 400.242818 17.404358 
L 403.858786 17.440237 
L 406.269432 17.538753 
L 407.474755 17.570757 
L 408.680078 17.40114 
L 412.296046 17.43747 
L 415.912015 17.427633 
L 418.32266 17.501313 
L 419.527983 17.359972 
L 420.733306 17.41132 
L 424.349274 17.3208 
L 429.170566 17.29342 
L 430.375889 17.16046 
L 436.402503 17.433029 
L 447.250408 17.252878 
L 448.455731 17.287645 
L 449.661054 16.994036 
L 453.277022 16.988904 
L 456.892991 17.039661 
L 460.508959 17.196035 
L 462.919605 17.122197 
L 472.562188 16.922405 
L 473.76751 16.987166 
L 474.972833 16.894231 
L 479.794125 16.888219 
L 480.999447 16.823418 
L 484.615416 16.962603 
L 490.64203 17.066963 
L 493.052676 16.746891 
L 495.463321 16.724905 
L 497.873967 16.718561 
L 499.07929 16.705238 
L 500.284613 16.52007 
L 501.489936 16.56713 
L 502.695258 16.343681 
L 507.51655 16.257698 
L 512.337841 16.267064 
L 515.95381 16.166667 
L 515.95381 16.166667 
" clip-path="url(#p8415aeffc7)" style="fill: none; stroke: #ff8c00; stroke-width: 1.5; stroke-linecap: square"/>
   </g>
   <g id="line2d_28">
    <path d="M 35.03 97 
L 36.235323 90.804995 
L 37.440646 92.270277 
L 38.645968 83.43749 
L 39.851291 81.143919 
L 41.056614 78.232348 
L 42.261937 65.367195 
L 43.46726 65.702143 
L 44.672583 67.514709 
L 45.877905 45.541504 
L 47.083228 44.418957 
L 48.288551 48.793266 
L 49.493874 49.933053 
L 50.699197 50.841528 
L 51.90452 52.804754 
L 53.109842 54.445888 
L 54.315165 53.286225 
L 55.520488 53.21473 
L 56.725811 42.056795 
L 57.931134 44.787257 
L 59.136457 45.231487 
L 60.341779 47.069445 
L 61.547102 48.556523 
L 62.752425 50.51642 
L 63.957748 52.098553 
L 65.163071 47.014242 
L 67.573716 50.371781 
L 68.779039 51.031506 
L 69.984362 49.817418 
L 72.395008 52.740885 
L 73.600331 52.758433 
L 74.805653 53.932496 
L 76.010976 49.703322 
L 77.216299 50.513494 
L 78.421622 51.124226 
L 79.626945 52.258678 
L 80.832268 51.610079 
L 82.03759 51.720695 
L 83.242913 52.818299 
L 84.448236 52.29444 
L 85.653559 53.241955 
L 86.858882 52.563199 
L 90.47485 55.266376 
L 91.680173 56.089664 
L 92.885496 56.094076 
L 94.090819 56.358821 
L 95.296142 56.92888 
L 96.501464 57.295255 
L 98.91211 58.642458 
L 100.117433 58.176728 
L 101.322756 58.860923 
L 102.528079 58.950328 
L 103.733401 59.606233 
L 104.938724 55.093267 
L 106.144047 55.164685 
L 107.34937 54.195224 
L 108.554693 54.817892 
L 109.760016 54.890189 
L 110.965338 53.904727 
L 112.170661 53.487863 
L 113.375984 53.517862 
L 114.581307 54.1556 
L 115.78663 54.532373 
L 116.991953 53.574313 
L 118.197275 54.142018 
L 119.402598 52.754307 
L 120.607921 49.824177 
L 121.813244 48.228843 
L 123.018567 48.813937 
L 124.223889 48.100004 
L 125.429212 47.923465 
L 126.634535 48.052762 
L 129.045181 49.194299 
L 130.250504 49.520023 
L 131.455826 50.037689 
L 132.661149 50.366443 
L 133.866472 48.898263 
L 136.277118 49.771285 
L 137.482441 48.849751 
L 138.687763 49.250247 
L 139.893086 48.914249 
L 142.303732 49.946515 
L 143.509055 50.071806 
L 144.714378 49.810382 
L 145.9197 50.317253 
L 147.125023 50.140957 
L 148.330346 50.388933 
L 149.535669 50.850838 
L 150.740992 48.79268 
L 151.946315 49.234722 
L 153.151637 48.199327 
L 154.35696 48.057025 
L 155.562283 48.393657 
L 156.767606 48.387199 
L 159.178252 49.229448 
L 160.383574 43.82401 
L 162.79422 44.356457 
L 163.999543 44.838513 
L 165.204866 44.069682 
L 167.615511 44.988262 
L 168.820834 45.329506 
L 170.026157 45.467437 
L 171.23148 45.735969 
L 173.642126 46.48322 
L 174.847448 45.554798 
L 176.052771 45.680282 
L 177.258094 46.088743 
L 178.463417 41.85855 
L 179.66874 42.253961 
L 180.874063 42.464392 
L 182.079385 40.743161 
L 185.695354 42.005418 
L 186.900677 41.097858 
L 188.106 41.223909 
L 191.721968 42.019877 
L 192.927291 41.670978 
L 194.132614 42.05353 
L 195.337937 42.184731 
L 196.543259 42.575597 
L 197.748582 42.394143 
L 198.953905 41.330679 
L 200.159228 40.997048 
L 201.364551 35.851771 
L 202.569873 35.92568 
L 203.775196 35.659296 
L 207.391165 36.478354 
L 208.596488 36.569647 
L 209.80181 36.297582 
L 211.007133 30.360203 
L 212.212456 30.632696 
L 213.417779 29.805323 
L 214.623102 29.629373 
L 215.828425 29.852977 
L 217.033747 29.937997 
L 218.23907 30.368094 
L 220.649716 30.997547 
L 221.855039 30.74521 
L 223.060362 30.305609 
L 224.265684 27.287307 
L 235.11359 30.626766 
L 237.524236 30.697225 
L 238.729558 30.912688 
L 239.934881 30.712953 
L 243.55085 31.280585 
L 244.756173 30.754567 
L 245.961495 31.047554 
L 247.166818 27.168472 
L 248.372141 27.403404 
L 249.577464 27.506261 
L 250.782787 27.813724 
L 251.98811 27.140797 
L 253.193432 27.524324 
L 254.398755 27.525369 
L 255.604078 27.153473 
L 256.809401 27.266243 
L 259.220047 27.989365 
L 260.425369 28.150968 
L 261.630692 28.513946 
L 262.836015 27.805077 
L 268.862629 28.943489 
L 270.067952 29.271688 
L 271.273275 29.211027 
L 272.478598 29.520635 
L 273.683921 29.374376 
L 274.889243 27.08795 
L 277.299889 27.15623 
L 278.505212 27.498186 
L 279.710535 27.150785 
L 282.12118 27.226967 
L 283.326503 27.563569 
L 284.531826 27.292576 
L 285.737149 27.601028 
L 289.353117 27.980342 
L 290.55844 27.725693 
L 291.763763 26.532932 
L 292.969086 26.731475 
L 294.174409 26.688103 
L 296.585054 27.111382 
L 297.790377 26.582808 
L 298.9957 26.677368 
L 300.201023 26.990403 
L 301.406346 25.057829 
L 302.611668 25.102721 
L 305.022314 25.627808 
L 306.227637 25.885574 
L 307.43296 25.475702 
L 308.638283 25.767258 
L 309.843605 25.760889 
L 314.664897 26.937348 
L 318.280865 27.228269 
L 319.486188 26.923065 
L 320.691511 27.053799 
L 321.896834 27.06808 
L 323.102157 27.27924 
L 324.307479 26.938434 
L 325.512802 26.741623 
L 326.718125 26.804378 
L 327.923448 27.092011 
L 329.128771 27.144584 
L 330.334094 26.907677 
L 331.539416 26.788889 
L 336.360708 27.737939 
L 337.566031 27.712242 
L 339.976676 28.242587 
L 341.181999 28.212765 
L 348.413936 29.450926 
L 349.619259 29.333647 
L 350.824582 28.984053 
L 352.029905 28.479519 
L 354.44055 28.942654 
L 355.645873 28.629305 
L 358.056519 29.053926 
L 359.261842 29.177487 
L 360.467164 28.270173 
L 361.672487 28.428453 
L 362.87781 28.382949 
L 366.493778 28.996941 
L 367.699101 28.638169 
L 370.109747 20.082112 
L 371.31507 20.264727 
L 373.725715 20.289618 
L 374.931038 19.126194 
L 376.136361 19.387886 
L 380.957652 19.65577 
L 382.162975 19.371169 
L 386.984267 20.176165 
L 388.189589 20.024693 
L 389.394912 20.162215 
L 390.600235 19.952836 
L 394.216204 20.546032 
L 397.832172 20.421221 
L 399.037495 20.536945 
L 401.448141 21.02229 
L 402.653463 21.03355 
L 405.064109 21.51175 
L 406.269432 21.336783 
L 407.474755 21.535328 
L 408.680078 20.494953 
L 415.912015 21.665886 
L 417.117337 21.637656 
L 418.32266 21.8736 
L 419.527983 21.191592 
L 423.143952 21.593486 
L 429.170566 22.526465 
L 430.375889 21.918672 
L 433.991857 22.057449 
L 435.19718 22.270151 
L 436.402503 22.168646 
L 438.813148 22.519556 
L 440.018471 22.285739 
L 444.839763 23.025781 
L 447.250408 22.913976 
L 448.455731 23.069697 
L 449.661054 19.017842 
L 454.482345 19.670513 
L 455.687668 19.765472 
L 456.892991 19.98496 
L 458.098314 19.876168 
L 460.508959 20.157403 
L 461.714282 20.112791 
L 466.535573 20.866989 
L 467.740896 20.023101 
L 472.562188 20.577965 
L 473.76751 20.567726 
L 474.972833 20.323047 
L 478.588802 20.768242 
L 480.999447 20.781931 
L 482.20477 20.705353 
L 484.615416 20.98446 
L 488.231384 21.512124 
L 489.436707 21.527822 
L 490.64203 21.726035 
L 491.847353 19.484302 
L 493.052676 19.043816 
L 496.668644 19.464307 
L 497.873967 19.485384 
L 499.07929 19.676366 
L 500.284613 17.972229 
L 501.489936 18.052615 
L 502.695258 15.468634 
L 505.105904 15.776 
L 507.51655 16.091728 
L 509.927195 16.376935 
L 511.132518 15.924911 
L 513.543164 16.042761 
L 514.748487 16.235538 
L 515.95381 16.166667 
L 515.95381 16.166667 
" clip-path="url(#p8415aeffc7)" style="fill: none; stroke-dasharray: 5.55,2.4; stroke-dashoffset: 0; stroke: #ff8c00; stroke-width: 1.5"/>
   </g>
   <g id="patch_3">
    <path d="M 35.03 97 
L 35.03 0 
" style="fill: none; stroke: #000000; stroke-width: 0.8; stroke-linejoin: miter; stroke-linecap: square"/>
   </g>
   <g id="patch_4">
    <path d="M 540 97 
L 540 0 
" style="fill: none; stroke: #000000; stroke-width: 0.8; stroke-linejoin: miter; stroke-linecap: square"/>
   </g>
   <g id="patch_5">
    <path d="M 35.03 97 
L 540 97 
" style="fill: none; stroke: #000000; stroke-width: 0.8; stroke-linejoin: miter; stroke-linecap: square"/>
   </g>
   <g id="patch_6">
    <path d="M 35.03 0 
L 540 0 
" style="fill: none; stroke: #000000; stroke-width: 0.8; stroke-linejoin: miter; stroke-linecap: square"/>
   </g>
  </g>
 </g>
 <defs>
  <clipPath id="p8415aeffc7">
   <rect x="35.03" y="0" width="504.97" height="97"/>
  </clipPath>
 </defs>
</svg>
