<?xml version="1.0" encoding="utf-8" standalone="no"?>
<!DOCTYPE svg PUBLIC "-//W3C//DTD SVG 1.1//EN"
  "http://www.w3.org/Graphics/SVG/1.1/DTD/svg11.dtd">
<svg xmlns:xlink="http://www.w3.org/1999/xlink" width="540pt" height="129.6pt" viewBox="0 0 540 129.6" xmlns="http://www.w3.org/2000/svg" version="1.1">
 <metadata>
  <rdf:RDF xmlns:dc="http://purl.org/dc/elements/1.1/" xmlns:cc="http://creativecommons.org/ns#" xmlns:rdf="http://www.w3.org/1999/02/22-rdf-syntax-ns#">
   <cc:Work>
    <dc:type rdf:resource="http://purl.org/dc/dcmitype/StillImage"/>
    <dc:date>2025-04-05T05:07:27.819676</dc:date>
    <dc:format>image/svg+xml</dc:format>
    <dc:creator>
     <cc:Agent>
      <dc:title>Matplotlib v3.10.1, https://matplotlib.org/</dc:title>
     </cc:Agent>
    </dc:creator>
   </cc:Work>
  </rdf:RDF>
 </metadata>
 <defs>
  <style type="text/css">*{stroke-linejoin: round; stroke-linecap: butt}</style>
 </defs>
 <g id="figure_1">
  <g id="patch_1">
   <path d="M 0 129.6 
L 540 129.6 
L 540 0 
L 0 0 
z
" style="fill: #ffffff"/>
  </g>
  <g id="axes_1">
   <g id="patch_2">
    <path d="M 34.31 98.44 
L 540 98.44 
L 540 0 
L 34.31 0 
z
" style="fill: #ffffff"/>
   </g>
   <g id="matplotlib.axis_1">
    <g id="xtick_1">
     <g id="line2d_1">
      <path d="M 34.31 98.44 
L 34.31 0 
" clip-path="url(#pe44951fdce)" style="fill: none; stroke: #b0b0b0; stroke-width: 0.8; stroke-linecap: square"/>
     </g>
     <g id="line2d_2">
      <defs>
       <path id="m2d75076dbd" d="M 0 0 
L 0 3.5 
" style="stroke: #000000; stroke-width: 0.8"/>
      </defs>
      <g>
       <use xlink:href="#m2d75076dbd" x="34.31" y="98.44" style="stroke: #000000; stroke-width: 0.8"/>
      </g>
     </g>
     <g id="text_1">
      <text style="font-size: 10px; font-family: 'Times New Roman'; text-anchor: middle" x="34.31" y="112.38375" transform="rotate(-0 34.31 112.38375)">0</text>
     </g>
    </g>
    <g id="xtick_2">
     <g id="line2d_3">
      <path d="M 94.662071 98.44 
L 94.662071 0 
" clip-path="url(#pe44951fdce)" style="fill: none; stroke: #b0b0b0; stroke-width: 0.8; stroke-linecap: square"/>
     </g>
     <g id="line2d_4">
      <g>
       <use xlink:href="#m2d75076dbd" x="94.662071" y="98.44" style="stroke: #000000; stroke-width: 0.8"/>
      </g>
     </g>
     <g id="text_2">
      <text style="font-size: 10px; font-family: 'Times New Roman'; text-anchor: middle" x="94.662071" y="112.38375" transform="rotate(-0 94.662071 112.38375)">50</text>
     </g>
    </g>
    <g id="xtick_3">
     <g id="line2d_5">
      <path d="M 155.014141 98.44 
L 155.014141 0 
" clip-path="url(#pe44951fdce)" style="fill: none; stroke: #b0b0b0; stroke-width: 0.8; stroke-linecap: square"/>
     </g>
     <g id="line2d_6">
      <g>
       <use xlink:href="#m2d75076dbd" x="155.014141" y="98.44" style="stroke: #000000; stroke-width: 0.8"/>
      </g>
     </g>
     <g id="text_3">
      <text style="font-size: 10px; font-family: 'Times New Roman'; text-anchor: middle" x="155.014141" y="112.38375" transform="rotate(-0 155.014141 112.38375)">100</text>
     </g>
    </g>
    <g id="xtick_4">
     <g id="line2d_7">
      <path d="M 215.366212 98.44 
L 215.366212 0 
" clip-path="url(#pe44951fdce)" style="fill: none; stroke: #b0b0b0; stroke-width: 0.8; stroke-linecap: square"/>
     </g>
     <g id="line2d_8">
      <g>
       <use xlink:href="#m2d75076dbd" x="215.366212" y="98.44" style="stroke: #000000; stroke-width: 0.8"/>
      </g>
     </g>
     <g id="text_4">
      <text style="font-size: 10px; font-family: 'Times New Roman'; text-anchor: middle" x="215.366212" y="112.38375" transform="rotate(-0 215.366212 112.38375)">150</text>
     </g>
    </g>
    <g id="xtick_5">
     <g id="line2d_9">
      <path d="M 275.718283 98.44 
L 275.718283 0 
" clip-path="url(#pe44951fdce)" style="fill: none; stroke: #b0b0b0; stroke-width: 0.8; stroke-linecap: square"/>
     </g>
     <g id="line2d_10">
      <g>
       <use xlink:href="#m2d75076dbd" x="275.718283" y="98.44" style="stroke: #000000; stroke-width: 0.8"/>
      </g>
     </g>
     <g id="text_5">
      <text style="font-size: 10px; font-family: 'Times New Roman'; text-anchor: middle" x="275.718283" y="112.38375" transform="rotate(-0 275.718283 112.38375)">200</text>
     </g>
    </g>
    <g id="xtick_6">
     <g id="line2d_11">
      <path d="M 336.070353 98.44 
L 336.070353 0 
" clip-path="url(#pe44951fdce)" style="fill: none; stroke: #b0b0b0; stroke-width: 0.8; stroke-linecap: square"/>
     </g>
     <g id="line2d_12">
      <g>
       <use xlink:href="#m2d75076dbd" x="336.070353" y="98.44" style="stroke: #000000; stroke-width: 0.8"/>
      </g>
     </g>
     <g id="text_6">
      <text style="font-size: 10px; font-family: 'Times New Roman'; text-anchor: middle" x="336.070353" y="112.38375" transform="rotate(-0 336.070353 112.38375)">250</text>
     </g>
    </g>
    <g id="xtick_7">
     <g id="line2d_13">
      <path d="M 396.422424 98.44 
L 396.422424 0 
" clip-path="url(#pe44951fdce)" style="fill: none; stroke: #b0b0b0; stroke-width: 0.8; stroke-linecap: square"/>
     </g>
     <g id="line2d_14">
      <g>
       <use xlink:href="#m2d75076dbd" x="396.422424" y="98.44" style="stroke: #000000; stroke-width: 0.8"/>
      </g>
     </g>
     <g id="text_7">
      <text style="font-size: 10px; font-family: 'Times New Roman'; text-anchor: middle" x="396.422424" y="112.38375" transform="rotate(-0 396.422424 112.38375)">300</text>
     </g>
    </g>
    <g id="xtick_8">
     <g id="line2d_15">
      <path d="M 456.774495 98.44 
L 456.774495 0 
" clip-path="url(#pe44951fdce)" style="fill: none; stroke: #b0b0b0; stroke-width: 0.8; stroke-linecap: square"/>
     </g>
     <g id="line2d_16">
      <g>
       <use xlink:href="#m2d75076dbd" x="456.774495" y="98.44" style="stroke: #000000; stroke-width: 0.8"/>
      </g>
     </g>
     <g id="text_8">
      <text style="font-size: 10px; font-family: 'Times New Roman'; text-anchor: middle" x="456.774495" y="112.38375" transform="rotate(-0 456.774495 112.38375)">350</text>
     </g>
    </g>
    <g id="xtick_9">
     <g id="line2d_17">
      <path d="M 517.126565 98.44 
L 517.126565 0 
" clip-path="url(#pe44951fdce)" style="fill: none; stroke: #b0b0b0; stroke-width: 0.8; stroke-linecap: square"/>
     </g>
     <g id="line2d_18">
      <g>
       <use xlink:href="#m2d75076dbd" x="517.126565" y="98.44" style="stroke: #000000; stroke-width: 0.8"/>
      </g>
     </g>
     <g id="text_9">
      <text style="font-size: 10px; font-family: 'Times New Roman'; text-anchor: middle" x="517.126565" y="112.38375" transform="rotate(-0 517.126565 112.38375)">400</text>
     </g>
    </g>
    <g id="text_10">
     <text style="font-size: 12px; font-family: 'Times New Roman'; text-anchor: middle" x="287.155" y="126.855312" transform="rotate(-0 287.155 126.855312)">Simulation Run</text>
    </g>
   </g>
   <g id="matplotlib.axis_2">
    <g id="ytick_1">
     <g id="line2d_19">
      <path d="M 34.31 98.44 
L 540 98.44 
" clip-path="url(#pe44951fdce)" style="fill: none; stroke: #b0b0b0; stroke-width: 0.8; stroke-linecap: square"/>
     </g>
     <g id="line2d_20">
      <defs>
       <path id="m6de5351ed3" d="M 0 0 
L -3.5 0 
" style="stroke: #000000; stroke-width: 0.8"/>
      </defs>
      <g>
       <use xlink:href="#m6de5351ed3" x="34.31" y="98.44" style="stroke: #000000; stroke-width: 0.8"/>
      </g>
     </g>
     <g id="text_11">
      <text style="font-size: 10px; font-family: 'Times New Roman'; text-anchor: end" x="27.31" y="101.911875" transform="rotate(-0 27.31 101.911875)">0.0</text>
     </g>
    </g>
    <g id="ytick_2">
     <g id="line2d_21">
      <path d="M 34.31 60.578462 
L 540 60.578462 
" clip-path="url(#pe44951fdce)" style="fill: none; stroke: #b0b0b0; stroke-width: 0.8; stroke-linecap: square"/>
     </g>
     <g id="line2d_22">
      <g>
       <use xlink:href="#m6de5351ed3" x="34.31" y="60.578462" style="stroke: #000000; stroke-width: 0.8"/>
      </g>
     </g>
     <g id="text_12">
      <text style="font-size: 10px; font-family: 'Times New Roman'; text-anchor: end" x="27.31" y="64.050337" transform="rotate(-0 27.31 64.050337)">0.5</text>
     </g>
    </g>
    <g id="ytick_3">
     <g id="line2d_23">
      <path d="M 34.31 22.716923 
L 540 22.716923 
" clip-path="url(#pe44951fdce)" style="fill: none; stroke: #b0b0b0; stroke-width: 0.8; stroke-linecap: square"/>
     </g>
     <g id="line2d_24">
      <g>
       <use xlink:href="#m6de5351ed3" x="34.31" y="22.716923" style="stroke: #000000; stroke-width: 0.8"/>
      </g>
     </g>
     <g id="text_13">
      <text style="font-size: 10px; font-family: 'Times New Roman'; text-anchor: end" x="27.31" y="26.188798" transform="rotate(-0 27.31 26.188798)">1.0</text>
     </g>
    </g>
    <g id="text_14">
     <text style="font-size: 12px; font-family: 'Times New Roman'; text-anchor: middle" x="8.243125" y="49.22" transform="rotate(-90 8.243125 49.22)">Normalized Value</text>
    </g>
   </g>
   <g id="line2d_25">
    <path d="M 34.31 8.686349 
L 35.517041 18.961782 
L 36.724083 19.166424 
L 37.931124 17.746677 
L 39.138166 15.790537 
L 40.345207 18.269339 
L 41.552248 18.332266 
L 42.75929 20.542962 
L 43.966331 23.504191 
L 45.173373 22.165169 
L 46.380414 21.305375 
L 47.587456 22.114501 
L 48.794497 20.503191 
L 50.001538 21.525103 
L 51.20858 23.67459 
L 52.415621 26.185773 
L 53.622663 27.795472 
L 56.036745 26.369476 
L 57.243787 24.959025 
L 58.450828 24.753947 
L 59.65787 24.316347 
L 60.864911 25.05235 
L 62.071953 24.615327 
L 63.278994 23.614703 
L 64.486035 24.095026 
L 65.693077 23.927114 
L 66.900118 25.082907 
L 69.314201 26.494744 
L 70.521242 25.826059 
L 71.728284 25.00219 
L 72.935325 25.216875 
L 74.142367 24.903708 
L 75.349408 23.818761 
L 76.556449 23.394449 
L 77.763491 23.114943 
L 78.970532 23.119572 
L 80.177574 21.877856 
L 81.384615 21.782465 
L 82.591657 21.288438 
L 83.798698 21.547416 
L 85.005739 21.563047 
L 86.212781 20.896574 
L 87.419822 21.382103 
L 89.833905 21.866773 
L 92.247988 22.681264 
L 93.455029 22.57051 
L 94.662071 21.599561 
L 95.869112 22.033963 
L 97.076153 22.16966 
L 98.283195 21.824804 
L 100.697278 22.024144 
L 101.904319 22.50341 
L 103.111361 22.391279 
L 104.318402 22.108137 
L 105.525443 22.186439 
L 106.732485 22.036627 
L 107.939526 21.109282 
L 111.56065 20.802656 
L 113.974733 21.355307 
L 115.181775 21.349942 
L 116.388816 21.594908 
L 117.595858 21.57197 
L 118.802899 21.719206 
L 122.424023 21.331287 
L 123.631065 21.448058 
L 124.838106 21.304606 
L 126.045147 21.406574 
L 128.45923 21.293909 
L 130.873313 22.006575 
L 132.080354 21.959324 
L 133.287396 22.394317 
L 134.494437 22.467108 
L 135.701479 22.075975 
L 136.90852 22.23395 
L 140.529644 22.152136 
L 141.736686 22.556855 
L 142.943727 22.512935 
L 145.35781 22.861993 
L 146.564851 22.789644 
L 147.771893 22.913274 
L 148.978934 22.53637 
L 150.185976 22.727063 
L 156.221183 22.635481 
L 157.428224 22.51545 
L 158.635266 22.816772 
L 161.049348 22.398301 
L 162.25639 22.605829 
L 163.463431 22.634709 
L 165.877514 22.829434 
L 167.084555 22.914867 
L 168.291597 22.782092 
L 169.498638 22.954455 
L 170.70568 22.886372 
L 171.912721 23.042232 
L 173.119763 23.387429 
L 174.326804 23.602423 
L 175.533845 23.436016 
L 177.947928 23.49199 
L 181.569052 23.363734 
L 183.983135 22.835931 
L 185.190177 22.998614 
L 186.397218 23.000422 
L 187.604259 22.649333 
L 188.811301 22.669309 
L 190.018342 22.257906 
L 192.432425 22.618814 
L 193.639467 22.339786 
L 194.846508 22.535465 
L 197.260591 22.653849 
L 198.467632 22.733623 
L 199.674674 22.581076 
L 200.881715 22.681866 
L 202.088756 22.487854 
L 203.295798 22.429579 
L 204.502839 22.500592 
L 206.916922 22.412314 
L 209.331005 22.679206 
L 210.538046 22.686702 
L 211.745088 22.580964 
L 214.159171 22.582438 
L 215.366212 22.257705 
L 216.573253 22.490948 
L 217.780295 22.566269 
L 220.194378 22.294349 
L 221.401419 22.509033 
L 228.643668 22.581184 
L 229.850709 22.781719 
L 231.05775 22.692306 
L 237.092957 23.05491 
L 241.921123 23.424982 
L 244.335206 23.37225 
L 246.749289 22.982298 
L 250.370413 22.78429 
L 251.577454 22.891396 
L 255.198579 22.364748 
L 257.612661 22.497807 
L 258.819703 22.443158 
L 260.026744 22.527539 
L 261.233786 22.732603 
L 264.85491 22.876327 
L 268.476034 22.82546 
L 272.097158 22.966902 
L 274.511241 23.165065 
L 279.339407 22.899025 
L 281.75349 23.028261 
L 285.374614 22.810816 
L 286.581655 22.754844 
L 287.788697 22.586494 
L 299.859111 22.48351 
L 307.101359 22.28346 
L 308.308401 22.140693 
L 310.722484 22.308743 
L 311.929525 22.24116 
L 313.136566 22.314481 
L 315.550649 22.17694 
L 317.964732 22.199699 
L 321.585856 22.002082 
L 332.449229 22.075955 
L 333.65627 21.993201 
L 338.484436 22.128268 
L 344.519643 21.904745 
L 345.726685 21.768913 
L 348.140767 21.934659 
L 349.347809 22.020175 
L 352.968933 21.988111 
L 361.418223 22.419327 
L 363.832306 22.468003 
L 366.246389 22.6684 
L 368.660471 22.634526 
L 369.867513 22.721252 
L 378.316803 22.390359 
L 380.730886 22.505173 
L 391.594258 22.457717 
L 397.629465 22.596186 
L 401.25059 22.681896 
L 409.699879 22.554704 
L 415.735087 22.627394 
L 416.942128 22.549799 
L 420.563252 22.673951 
L 422.977335 22.537321 
L 426.598459 22.573459 
L 429.012542 22.584154 
L 435.047749 22.652692 
L 437.461832 22.683838 
L 439.875915 22.569419 
L 443.497039 22.636779 
L 445.911122 22.625174 
L 448.325205 22.691689 
L 454.360412 22.583823 
L 470.05195 22.644898 
L 472.466033 22.770331 
L 478.50124 22.638376 
L 480.915323 22.677211 
L 483.329406 22.688167 
L 488.157571 22.8031 
L 490.571654 22.884771 
L 492.985737 22.897747 
L 497.813903 23.016292 
L 499.020944 22.87427 
L 502.642068 22.908197 
L 508.677275 22.718365 
L 512.2984 22.873907 
L 514.712482 22.804639 
L 515.919524 22.716923 
L 515.919524 22.716923 
" clip-path="url(#pe44951fdce)" style="fill: none; stroke: #4169e1; stroke-width: 1.5; stroke-linecap: square"/>
   </g>
   <g id="line2d_26">
    <path d="M 34.31 98.44 
L 35.517041 76.218297 
L 36.724083 83.607904 
L 37.931124 86.043244 
L 39.138166 85.301253 
L 40.345207 81.025119 
L 41.552248 83.507958 
L 42.75929 78.174454 
L 43.966331 65.661938 
L 45.173373 65.543531 
L 46.380414 66.978274 
L 47.587456 68.084424 
L 48.794497 63.862296 
L 50.001538 63.474888 
L 51.20858 52.192231 
L 52.415621 35.174838 
L 53.622663 30.1709 
L 56.036745 33.717973 
L 57.243787 28.998956 
L 58.450828 32.128643 
L 59.65787 34.296445 
L 60.864911 34.577118 
L 62.071953 36.313561 
L 63.278994 33.741178 
L 64.486035 35.01569 
L 65.693077 37.210457 
L 66.900118 31.806193 
L 70.521242 29.743399 
L 71.728284 27.461685 
L 72.935325 29.302136 
L 74.142367 30.654451 
L 75.349408 24.168072 
L 76.556449 24.90496 
L 77.763491 26.300473 
L 78.970532 28.198715 
L 80.177574 17.668563 
L 81.384615 19.61316 
L 82.591657 19.481113 
L 83.798698 20.782342 
L 85.005739 22.586174 
L 86.212781 20.290275 
L 87.419822 19.843904 
L 88.626864 21.044985 
L 89.833905 22.071126 
L 91.040946 22.071399 
L 92.247988 21.902853 
L 93.455029 23.307095 
L 94.662071 14.859643 
L 95.869112 14.441457 
L 97.076153 15.824815 
L 98.283195 16.028161 
L 100.697278 18.735077 
L 101.904319 17.426218 
L 103.111361 18.672171 
L 104.318402 19.045549 
L 105.525443 20.292656 
L 106.732485 21.290348 
L 107.939526 11.494171 
L 110.353609 14.129998 
L 111.56065 14.390068 
L 112.767692 14.370155 
L 113.974733 14.790002 
L 115.181775 16.019743 
L 116.388816 16.355429 
L 117.595858 17.520425 
L 118.802899 18.340764 
L 121.216982 20.321518 
L 122.424023 20.626159 
L 123.631065 21.451316 
L 124.838106 22.139499 
L 127.252189 23.904311 
L 128.45923 24.76383 
L 129.666272 23.361015 
L 130.873313 22.355041 
L 132.080354 23.244844 
L 133.287396 20.885273 
L 134.494437 21.715985 
L 135.701479 19.914008 
L 136.90852 20.380652 
L 139.322603 22.041278 
L 140.529644 22.428845 
L 141.736686 20.205279 
L 142.943727 21.028463 
L 144.150769 21.378548 
L 145.35781 21.516341 
L 146.564851 22.232225 
L 147.771893 22.732035 
L 148.978934 20.680378 
L 150.185976 20.74731 
L 152.600058 22.250651 
L 153.8071 22.803745 
L 155.014141 23.230322 
L 156.221183 23.967641 
L 157.428224 24.381385 
L 158.635266 23.12525 
L 159.842307 22.364132 
L 161.049348 22.526094 
L 162.25639 22.274758 
L 163.463431 22.96121 
L 164.670473 23.196421 
L 167.084555 24.319586 
L 168.291597 24.569534 
L 169.498638 24.522959 
L 170.70568 25.061115 
L 171.912721 25.11635 
L 173.119763 22.864351 
L 174.326804 22.381831 
L 175.533845 22.344513 
L 177.947928 23.525423 
L 180.362011 24.725421 
L 181.569052 24.758852 
L 182.776094 24.00092 
L 183.983135 22.259243 
L 185.190177 22.167595 
L 186.397218 22.768078 
L 187.604259 20.064567 
L 188.811301 20.661379 
L 190.018342 16.664513 
L 191.225384 16.561835 
L 192.432425 16.102224 
L 193.639467 14.558348 
L 194.846508 14.112517 
L 196.053549 14.736593 
L 197.260591 14.983608 
L 198.467632 15.410621 
L 199.674674 15.341309 
L 200.881715 15.644093 
L 202.088756 15.134336 
L 204.502839 16.058646 
L 205.709881 16.443572 
L 206.916922 17.010919 
L 208.123963 16.752689 
L 209.331005 16.992055 
L 210.538046 17.544397 
L 211.745088 17.745084 
L 214.159171 18.635796 
L 215.366212 15.835231 
L 216.573253 14.649775 
L 217.780295 15.015934 
L 218.987336 14.8004 
L 220.194378 14.884347 
L 221.401419 13.916438 
L 222.60846 14.45478 
L 223.815502 14.843908 
L 226.229585 15.771039 
L 228.643668 16.648442 
L 229.850709 15.77912 
L 231.05775 16.008889 
L 235.885916 17.438719 
L 237.092957 17.351402 
L 238.299999 17.460983 
L 239.50704 16.349415 
L 240.714082 16.823406 
L 241.921123 17.130249 
L 244.335206 17.954432 
L 245.542247 16.673502 
L 246.749289 16.030576 
L 247.95633 16.265674 
L 249.163372 16.715765 
L 251.577454 16.776565 
L 252.784496 16.460539 
L 253.991537 16.589099 
L 255.198579 13.712893 
L 256.40562 13.748454 
L 258.819703 14.505617 
L 260.026744 14.671849 
L 261.233786 13.451229 
L 262.440827 13.778425 
L 263.647868 13.892509 
L 267.268993 15.110806 
L 270.890117 16.259878 
L 273.3042 16.589789 
L 274.511241 16.396062 
L 275.718283 16.547438 
L 276.925324 16.010458 
L 281.75349 17.138695 
L 284.167573 16.975846 
L 285.374614 17.362291 
L 286.581655 17.610572 
L 287.788697 16.741016 
L 288.995738 17.126373 
L 291.409821 17.294133 
L 292.616862 17.240928 
L 298.652069 18.808644 
L 299.859111 18.7263 
L 301.066152 19.051377 
L 302.273194 19.021087 
L 303.480235 19.1159 
L 304.687277 18.015027 
L 307.101359 18.644639 
L 308.308401 18.020836 
L 309.515442 17.677092 
L 310.722484 17.918527 
L 313.136566 18.131165 
L 314.343608 17.777176 
L 317.964732 18.725645 
L 319.171773 18.551915 
L 320.378815 17.807728 
L 321.585856 18.015548 
L 323.999939 18.662526 
L 325.206981 18.750262 
L 326.414022 18.536267 
L 327.621063 17.683423 
L 331.242188 18.646227 
L 333.65627 18.520143 
L 336.070353 18.857844 
L 337.277395 19.115077 
L 338.484436 19.226898 
L 340.898519 19.676966 
L 344.519643 20.195889 
L 346.933726 18.810962 
L 348.140767 19.063259 
L 349.347809 18.96452 
L 351.761892 19.436245 
L 352.968933 19.719831 
L 354.175974 19.705916 
L 355.383016 19.236051 
L 356.590057 19.320573 
L 357.797099 19.566786 
L 359.00414 19.597992 
L 361.418223 19.981186 
L 363.832306 20.479497 
L 365.039347 19.97374 
L 366.246389 19.855387 
L 367.45343 19.905882 
L 368.660471 20.137687 
L 369.867513 19.97828 
L 371.074554 20.02463 
L 372.281596 19.217237 
L 377.109761 19.833979 
L 378.316803 20.059367 
L 379.523844 19.989888 
L 381.937927 20.431927 
L 383.144968 20.677664 
L 384.35201 20.369017 
L 386.766093 20.810887 
L 391.594258 21.604168 
L 392.8013 21.706616 
L 397.629465 22.562339 
L 406.078755 23.371894 
L 408.492838 23.013341 
L 410.906921 23.455684 
L 412.113962 23.301647 
L 415.735087 23.974956 
L 419.356211 23.492208 
L 420.563252 23.671791 
L 421.770294 23.431305 
L 422.977335 23.473277 
L 427.805501 24.14296 
L 429.012542 24.182842 
L 431.426625 24.583216 
L 433.840708 24.807789 
L 437.461832 25.336991 
L 438.668873 24.760009 
L 439.875915 24.973817 
L 441.082956 25.066649 
L 442.289998 24.937152 
L 444.70408 24.980446 
L 447.118163 25.088113 
L 448.325205 25.274483 
L 449.532246 25.348261 
L 450.739288 25.281515 
L 456.774495 25.893274 
L 457.981536 25.905416 
L 459.188577 25.567337 
L 460.395619 25.383254 
L 461.60266 25.553352 
L 462.809702 25.559188 
L 466.430826 26.037182 
L 468.844909 26.271435 
L 470.05195 25.691287 
L 472.466033 25.490817 
L 474.880116 25.56585 
L 476.087157 23.753098 
L 477.294199 23.674255 
L 479.708281 23.976044 
L 482.122364 23.963825 
L 484.536447 24.274584 
L 485.743488 24.460886 
L 486.95053 24.338248 
L 488.157571 24.42616 
L 489.364613 24.273866 
L 490.571654 24.450599 
L 495.39982 24.801344 
L 496.606861 24.882316 
L 497.813903 24.839314 
L 499.020944 23.395627 
L 503.84911 23.639299 
L 505.056151 23.259092 
L 507.470234 23.507352 
L 508.677275 23.588786 
L 509.884317 23.381199 
L 511.091358 22.937569 
L 513.505441 23.312992 
L 514.712482 23.174868 
L 515.919524 22.716923 
L 515.919524 22.716923 
" clip-path="url(#pe44951fdce)" style="fill: none; stroke-dasharray: 5.55,2.4; stroke-dashoffset: 0; stroke: #4169e1; stroke-width: 1.5"/>
   </g>
   <g id="line2d_27">
    <path d="M 34.31 16.935793 
L 35.517041 18.028114 
L 36.724083 22.790116 
L 37.931124 19.16983 
L 39.138166 16.333801 
L 40.345207 19.137546 
L 41.552248 19.038172 
L 43.966331 23.826762 
L 45.173373 22.883807 
L 46.380414 22.149647 
L 47.587456 22.877696 
L 48.794497 21.577207 
L 50.001538 22.100027 
L 52.415621 25.515566 
L 53.622663 26.803654 
L 54.829704 26.712576 
L 56.036745 26.449941 
L 57.243787 25.295045 
L 58.450828 25.012998 
L 59.65787 24.590566 
L 60.864911 25.101143 
L 62.071953 24.48777 
L 63.278994 23.705153 
L 64.486035 24.091519 
L 65.693077 23.601052 
L 66.900118 24.478303 
L 68.10716 25.136742 
L 69.314201 25.637827 
L 71.728284 24.738013 
L 72.935325 24.818496 
L 74.142367 24.342692 
L 75.349408 23.509215 
L 77.763491 23.305937 
L 78.970532 23.526821 
L 80.177574 22.816649 
L 81.384615 22.580629 
L 82.591657 22.230493 
L 85.005739 22.155417 
L 86.212781 21.674912 
L 87.419822 22.049902 
L 89.833905 22.213699 
L 91.040946 22.64707 
L 92.247988 22.913938 
L 93.455029 22.800931 
L 94.662071 22.260542 
L 95.869112 22.545169 
L 97.076153 22.661937 
L 98.283195 22.274608 
L 100.697278 22.225609 
L 101.904319 22.579549 
L 103.111361 22.480655 
L 104.318402 22.148676 
L 105.525443 22.307892 
L 106.732485 22.133677 
L 107.939526 21.583321 
L 110.353609 21.595979 
L 111.56065 21.382102 
L 113.974733 21.857778 
L 115.181775 21.789673 
L 116.388816 21.984022 
L 124.838106 21.439661 
L 126.045147 21.587681 
L 128.45923 21.410139 
L 130.873313 21.922107 
L 132.080354 21.903135 
L 133.287396 22.254545 
L 134.494437 22.3572 
L 135.701479 22.174023 
L 136.90852 22.346282 
L 139.322603 22.398402 
L 140.529644 22.15951 
L 141.736686 22.484989 
L 144.150769 22.562903 
L 145.35781 22.67979 
L 146.564851 22.653461 
L 147.771893 22.886565 
L 148.978934 22.646672 
L 150.185976 22.783447 
L 156.221183 22.490993 
L 157.428224 22.332383 
L 158.635266 22.638479 
L 161.049348 22.438426 
L 162.25639 22.604534 
L 168.291597 22.574685 
L 169.498638 22.724238 
L 170.70568 22.603254 
L 171.912721 22.751675 
L 174.326804 23.255355 
L 175.533845 23.157239 
L 180.362011 23.196075 
L 182.776094 22.934598 
L 183.983135 22.650623 
L 185.190177 22.773469 
L 186.397218 22.749174 
L 187.604259 22.519014 
L 188.811301 22.490982 
L 190.018342 22.266788 
L 192.432425 22.527616 
L 193.639467 22.27073 
L 194.846508 22.40698 
L 197.260591 22.487141 
L 198.467632 22.514098 
L 199.674674 22.39639 
L 200.881715 22.437462 
L 202.088756 22.247713 
L 214.159171 22.300402 
L 215.366212 22.029912 
L 216.573253 22.20218 
L 217.780295 22.261716 
L 220.194378 22.010372 
L 221.401419 22.193394 
L 222.60846 22.225516 
L 223.815502 22.144464 
L 228.643668 22.223073 
L 229.850709 22.42587 
L 234.678875 22.538109 
L 238.299999 22.782017 
L 239.50704 22.949533 
L 240.714082 22.891056 
L 241.921123 22.964065 
L 245.542247 22.739595 
L 246.749289 22.573684 
L 253.991537 22.416079 
L 255.198579 22.219706 
L 257.612661 22.303159 
L 260.026744 22.276475 
L 261.233786 22.427878 
L 262.440827 22.431284 
L 264.85491 22.5773 
L 269.683076 22.583586 
L 273.3042 22.753788 
L 274.511241 22.829758 
L 278.132365 22.650437 
L 282.960531 22.793165 
L 288.995738 22.489727 
L 290.20278 22.564636 
L 291.409821 22.44576 
L 296.237987 22.520712 
L 301.066152 22.469045 
L 302.273194 22.415711 
L 303.480235 22.477365 
L 304.687277 22.332694 
L 309.515442 22.294076 
L 313.136566 22.391635 
L 316.757691 22.281356 
L 319.171773 22.201993 
L 320.378815 22.098903 
L 325.206981 22.197566 
L 326.414022 22.122437 
L 328.828105 22.26667 
L 332.449229 22.188021 
L 334.863312 22.19853 
L 338.484436 22.245263 
L 343.312602 22.238484 
L 345.726685 22.063451 
L 346.933726 22.191392 
L 355.383016 22.367691 
L 371.074554 22.693324 
L 375.90272 22.579269 
L 379.523844 22.576178 
L 383.144968 22.595162 
L 385.559051 22.578468 
L 389.180175 22.597596 
L 392.8013 22.627722 
L 401.25059 22.783949 
L 409.699879 22.651611 
L 415.735087 22.698845 
L 416.942128 22.60616 
L 420.563252 22.743308 
L 424.184376 22.647817 
L 430.219583 22.62772 
L 438.668873 22.641075 
L 447.118163 22.651588 
L 454.360412 22.596072 
L 456.774495 22.604498 
L 459.188577 22.568045 
L 464.016743 22.447749 
L 474.880116 22.637029 
L 476.087157 22.534274 
L 478.50124 22.557373 
L 480.915323 22.566387 
L 486.95053 22.667928 
L 497.813903 22.862874 
L 499.020944 22.751772 
L 503.84911 22.731446 
L 506.263193 22.683058 
L 509.884317 22.669847 
L 512.2984 22.756002 
L 515.919524 22.716923 
L 515.919524 22.716923 
" clip-path="url(#pe44951fdce)" style="fill: none; stroke: #ff8c00; stroke-width: 1.5; stroke-linecap: square"/>
   </g>
   <g id="line2d_28">
    <path d="M 34.31 98.44 
L 35.517041 98.034293 
L 36.724083 82.748209 
L 37.931124 73.301527 
L 39.138166 67.389819 
L 40.345207 59.200151 
L 41.552248 64.785696 
L 42.75929 54.234288 
L 43.966331 44.774626 
L 46.380414 50.225576 
L 47.587456 52.26089 
L 48.794497 48.912214 
L 50.001538 51.241655 
L 52.415621 29.302338 
L 53.622663 24.342669 
L 54.829704 28.411237 
L 56.036745 31.67479 
L 57.243787 26.396138 
L 58.450828 29.285813 
L 59.65787 31.154965 
L 60.864911 32.130299 
L 62.071953 31.950882 
L 63.278994 29.612151 
L 64.486035 30.990415 
L 65.693077 31.361855 
L 66.900118 26.69231 
L 68.10716 25.038734 
L 69.314201 25.009537 
L 70.521242 25.672233 
L 71.728284 25.406501 
L 72.935325 27.549158 
L 74.142367 27.093902 
L 75.349408 21.101205 
L 77.763491 25.027541 
L 78.970532 26.345624 
L 80.177574 21.677554 
L 81.384615 22.857904 
L 82.591657 23.03395 
L 85.005739 26.501206 
L 86.212781 24.760383 
L 87.419822 24.293915 
L 88.626864 25.8831 
L 89.833905 27.181327 
L 91.040946 25.664446 
L 92.247988 25.987284 
L 93.455029 27.223563 
L 94.662071 23.655241 
L 95.869112 23.688542 
L 97.076153 24.857868 
L 98.283195 23.516864 
L 100.697278 26.07695 
L 101.904319 24.961076 
L 103.111361 26.038402 
L 104.318402 25.09203 
L 105.525443 25.805939 
L 106.732485 26.377458 
L 107.939526 21.257303 
L 110.353609 23.632537 
L 111.56065 23.787961 
L 113.974733 23.51578 
L 115.181775 24.511938 
L 116.388816 24.710012 
L 118.802899 26.66463 
L 120.00994 27.053472 
L 121.216982 27.289263 
L 123.631065 29.090005 
L 124.838106 29.246577 
L 126.045147 29.579 
L 127.252189 30.346934 
L 128.45923 30.880351 
L 129.666272 29.672839 
L 130.873313 29.012168 
L 132.080354 29.848936 
L 133.287396 27.232193 
L 134.494437 27.782498 
L 136.90852 27.620848 
L 139.322603 29.189447 
L 140.529644 28.259885 
L 141.736686 25.833772 
L 142.943727 26.631131 
L 144.150769 27.20358 
L 145.35781 27.542169 
L 146.564851 28.274481 
L 148.978934 26.158635 
L 150.185976 26.293152 
L 151.393017 26.950824 
L 152.600058 27.295964 
L 153.8071 28.00639 
L 155.014141 28.291462 
L 156.221183 28.942528 
L 157.428224 28.744749 
L 158.635266 26.133455 
L 159.842307 25.966433 
L 161.049348 26.579442 
L 162.25639 26.256541 
L 163.463431 26.924885 
L 164.670473 27.302107 
L 167.084555 28.456875 
L 168.291597 28.733545 
L 169.498638 28.498653 
L 170.70568 28.549773 
L 171.912721 28.303611 
L 173.119763 26.034835 
L 174.326804 24.51965 
L 175.533845 24.763107 
L 180.362011 27.070693 
L 181.569052 27.322562 
L 182.776094 26.651495 
L 183.983135 23.825686 
L 185.190177 23.776441 
L 186.397218 24.339055 
L 187.604259 22.630375 
L 188.811301 23.183847 
L 190.018342 21.558042 
L 191.225384 21.724817 
L 192.432425 21.117587 
L 193.639467 18.737076 
L 194.846508 18.492338 
L 196.053549 19.074664 
L 197.260591 19.24496 
L 198.467632 19.789421 
L 199.674674 19.713934 
L 200.881715 20.201153 
L 202.088756 19.058282 
L 203.295798 19.620531 
L 204.502839 19.961543 
L 205.709881 20.167911 
L 206.916922 20.683856 
L 208.123963 20.630461 
L 210.538046 21.662407 
L 212.952129 22.035942 
L 214.159171 22.543176 
L 215.366212 19.314118 
L 216.573253 18.31098 
L 217.780295 18.651504 
L 218.987336 17.761659 
L 220.194378 17.887331 
L 221.401419 16.638266 
L 222.60846 17.104565 
L 223.815502 17.268647 
L 228.643668 19.156686 
L 229.850709 17.377659 
L 231.05775 17.868466 
L 232.264792 18.175438 
L 233.471833 18.656744 
L 234.678875 18.972449 
L 237.092957 19.238796 
L 238.299999 19.237887 
L 239.50704 18.078972 
L 240.714082 18.347356 
L 241.921123 18.498576 
L 244.335206 19.229825 
L 245.542247 18.357813 
L 246.749289 17.162946 
L 249.163372 18.044663 
L 250.370413 18.292865 
L 252.784496 18.224095 
L 253.991537 18.308138 
L 255.198579 16.344119 
L 256.40562 16.31292 
L 258.819703 17.091913 
L 260.026744 17.514221 
L 261.233786 16.477062 
L 262.440827 16.9077 
L 263.647868 16.272225 
L 267.268993 17.432684 
L 270.890117 18.429152 
L 273.3042 18.52262 
L 275.718283 18.572407 
L 276.925324 18.37463 
L 278.132365 18.756103 
L 279.339407 18.924654 
L 280.546448 18.916737 
L 281.75349 18.736932 
L 284.167573 18.625499 
L 285.374614 18.969882 
L 286.581655 19.144246 
L 287.788697 18.859033 
L 288.995738 19.04102 
L 290.20278 19.009286 
L 291.409821 18.356964 
L 292.616862 18.615775 
L 293.823904 18.691344 
L 298.652069 20.050219 
L 301.066152 20.684644 
L 303.480235 20.876898 
L 304.687277 19.627506 
L 307.101359 20.28659 
L 308.308401 19.543793 
L 309.515442 18.965361 
L 310.722484 19.001225 
L 311.929525 19.230337 
L 314.343608 19.082059 
L 315.550649 19.210688 
L 317.964732 19.865344 
L 319.171773 19.752456 
L 320.378815 19.226644 
L 325.206981 20.296278 
L 326.414022 20.153398 
L 327.621063 19.421628 
L 330.035146 19.982162 
L 331.242188 20.293603 
L 332.449229 19.928864 
L 339.691478 20.705632 
L 343.312602 21.416926 
L 344.519643 21.217573 
L 345.726685 20.646324 
L 346.933726 19.503969 
L 348.140767 19.79791 
L 350.55485 19.418754 
L 352.968933 19.947046 
L 354.175974 19.935086 
L 355.383016 19.384765 
L 357.797099 19.733542 
L 361.418223 20.116376 
L 363.832306 20.635252 
L 366.246389 20.267649 
L 367.45343 20.32822 
L 368.660471 20.573636 
L 371.074554 20.351057 
L 372.281596 20.384048 
L 374.695678 20.814332 
L 375.90272 20.832468 
L 378.316803 21.220516 
L 379.523844 21.213746 
L 381.937927 21.647634 
L 383.144968 21.908103 
L 384.35201 21.989191 
L 387.973134 22.494818 
L 389.180175 22.551388 
L 392.8013 23.08839 
L 397.629465 23.599664 
L 401.25059 23.747201 
L 402.457631 23.89855 
L 403.664672 23.934453 
L 404.871714 24.174024 
L 406.078755 24.168546 
L 407.285797 23.838761 
L 408.492838 23.708859 
L 410.906921 24.062522 
L 412.113962 23.997273 
L 414.528045 24.359033 
L 415.735087 24.59129 
L 416.942128 23.897547 
L 419.356211 23.438202 
L 420.563252 23.667409 
L 421.770294 23.468033 
L 422.977335 23.483838 
L 425.391418 23.886575 
L 427.805501 23.94599 
L 435.047749 24.940332 
L 436.254791 24.98292 
L 437.461832 25.176837 
L 438.668873 24.60223 
L 441.082956 24.994387 
L 443.497039 24.794204 
L 444.70408 24.579742 
L 451.946329 25.285363 
L 453.15337 25.489597 
L 456.774495 25.608715 
L 457.981536 25.800007 
L 459.188577 25.731275 
L 460.395619 25.535514 
L 461.60266 25.730264 
L 462.809702 25.108012 
L 465.223784 25.4469 
L 466.430826 25.285349 
L 467.637867 25.450314 
L 468.844909 25.446769 
L 470.05195 24.982957 
L 472.466033 24.814354 
L 474.880116 24.24873 
L 476.087157 23.136864 
L 477.294199 23.152749 
L 479.708281 23.467628 
L 484.536447 23.886676 
L 486.95053 24.037214 
L 488.157571 24.150366 
L 489.364613 23.944474 
L 491.778696 24.28518 
L 492.985737 24.266779 
L 496.606861 24.776347 
L 497.813903 24.63456 
L 499.020944 23.20984 
L 501.435027 23.504293 
L 503.84911 23.637851 
L 505.056151 23.035193 
L 508.677275 23.218526 
L 509.884317 23.053366 
L 511.091358 22.323235 
L 513.505441 22.680199 
L 514.712482 22.527752 
L 515.919524 22.716923 
L 515.919524 22.716923 
" clip-path="url(#pe44951fdce)" style="fill: none; stroke-dasharray: 5.55,2.4; stroke-dashoffset: 0; stroke: #ff8c00; stroke-width: 1.5"/>
   </g>
   <g id="patch_3">
    <path d="M 34.31 98.44 
L 34.31 0 
" style="fill: none; stroke: #000000; stroke-width: 0.8; stroke-linejoin: miter; stroke-linecap: square"/>
   </g>
   <g id="patch_4">
    <path d="M 540 98.44 
L 540 0 
" style="fill: none; stroke: #000000; stroke-width: 0.8; stroke-linejoin: miter; stroke-linecap: square"/>
   </g>
   <g id="patch_5">
    <path d="M 34.31 98.44 
L 540 98.44 
" style="fill: none; stroke: #000000; stroke-width: 0.8; stroke-linejoin: miter; stroke-linecap: square"/>
   </g>
   <g id="patch_6">
    <path d="M 34.31 0 
L 540 0 
" style="fill: none; stroke: #000000; stroke-width: 0.8; stroke-linejoin: miter; stroke-linecap: square"/>
   </g>
  </g>
 </g>
 <defs>
  <clipPath id="pe44951fdce">
   <rect x="34.31" y="0" width="505.69" height="98.44"/>
  </clipPath>
 </defs>
</svg>
