<?xml version="1.0" encoding="utf-8" standalone="no"?>
<!DOCTYPE svg PUBLIC "-//W3C//DTD SVG 1.1//EN"
  "http://www.w3.org/Graphics/SVG/1.1/DTD/svg11.dtd">
<svg xmlns:xlink="http://www.w3.org/1999/xlink" width="540pt" height="129.6pt" viewBox="0 0 540 129.6" xmlns="http://www.w3.org/2000/svg" version="1.1">
 <metadata>
  <rdf:RDF xmlns:dc="http://purl.org/dc/elements/1.1/" xmlns:cc="http://creativecommons.org/ns#" xmlns:rdf="http://www.w3.org/1999/02/22-rdf-syntax-ns#">
   <cc:Work>
    <dc:type rdf:resource="http://purl.org/dc/dcmitype/StillImage"/>
    <dc:date>2025-04-05T03:12:41.131937</dc:date>
    <dc:format>image/svg+xml</dc:format>
    <dc:creator>
     <cc:Agent>
      <dc:title>Matplotlib v3.10.1, https://matplotlib.org/</dc:title>
     </cc:Agent>
    </dc:creator>
   </cc:Work>
  </rdf:RDF>
 </metadata>
 <defs>
  <style type="text/css">*{stroke-linejoin: round; stroke-linecap: butt}</style>
 </defs>
 <g id="figure_1">
  <g id="patch_1">
   <path d="M 0 129.6 
L 540 129.6 
L 540 0 
L 0 0 
z
" style="fill: #ffffff"/>
  </g>
  <g id="axes_1">
   <g id="patch_2">
    <path d="M 34.31 98.44 
L 540 98.44 
L 540 3.6 
L 34.31 3.6 
z
" style="fill: #ffffff"/>
   </g>
   <g id="matplotlib.axis_1">
    <g id="xtick_1">
     <g id="line2d_1">
      <path d="M 34.31 98.44 
L 34.31 3.6 
" clip-path="url(#pdc35904755)" style="fill: none; stroke: #b0b0b0; stroke-width: 0.8; stroke-linecap: square"/>
     </g>
     <g id="line2d_2">
      <defs>
       <path id="mf006139636" d="M 0 0 
L 0 3.5 
" style="stroke: #000000; stroke-width: 0.8"/>
      </defs>
      <g>
       <use xlink:href="#mf006139636" x="34.31" y="98.44" style="stroke: #000000; stroke-width: 0.8"/>
      </g>
     </g>
     <g id="text_1">
      <text style="font-size: 10px; font-family: 'Times New Roman'; text-anchor: middle" x="34.31" y="112.38375" transform="rotate(-0 34.31 112.38375)">0</text>
     </g>
    </g>
    <g id="xtick_2">
     <g id="line2d_3">
      <path d="M 94.662071 98.44 
L 94.662071 3.6 
" clip-path="url(#pdc35904755)" style="fill: none; stroke: #b0b0b0; stroke-width: 0.8; stroke-linecap: square"/>
     </g>
     <g id="line2d_4">
      <g>
       <use xlink:href="#mf006139636" x="94.662071" y="98.44" style="stroke: #000000; stroke-width: 0.8"/>
      </g>
     </g>
     <g id="text_2">
      <text style="font-size: 10px; font-family: 'Times New Roman'; text-anchor: middle" x="94.662071" y="112.38375" transform="rotate(-0 94.662071 112.38375)">50</text>
     </g>
    </g>
    <g id="xtick_3">
     <g id="line2d_5">
      <path d="M 155.014141 98.44 
L 155.014141 3.6 
" clip-path="url(#pdc35904755)" style="fill: none; stroke: #b0b0b0; stroke-width: 0.8; stroke-linecap: square"/>
     </g>
     <g id="line2d_6">
      <g>
       <use xlink:href="#mf006139636" x="155.014141" y="98.44" style="stroke: #000000; stroke-width: 0.8"/>
      </g>
     </g>
     <g id="text_3">
      <text style="font-size: 10px; font-family: 'Times New Roman'; text-anchor: middle" x="155.014141" y="112.38375" transform="rotate(-0 155.014141 112.38375)">100</text>
     </g>
    </g>
    <g id="xtick_4">
     <g id="line2d_7">
      <path d="M 215.366212 98.44 
L 215.366212 3.6 
" clip-path="url(#pdc35904755)" style="fill: none; stroke: #b0b0b0; stroke-width: 0.8; stroke-linecap: square"/>
     </g>
     <g id="line2d_8">
      <g>
       <use xlink:href="#mf006139636" x="215.366212" y="98.44" style="stroke: #000000; stroke-width: 0.8"/>
      </g>
     </g>
     <g id="text_4">
      <text style="font-size: 10px; font-family: 'Times New Roman'; text-anchor: middle" x="215.366212" y="112.38375" transform="rotate(-0 215.366212 112.38375)">150</text>
     </g>
    </g>
    <g id="xtick_5">
     <g id="line2d_9">
      <path d="M 275.718283 98.44 
L 275.718283 3.6 
" clip-path="url(#pdc35904755)" style="fill: none; stroke: #b0b0b0; stroke-width: 0.8; stroke-linecap: square"/>
     </g>
     <g id="line2d_10">
      <g>
       <use xlink:href="#mf006139636" x="275.718283" y="98.44" style="stroke: #000000; stroke-width: 0.8"/>
      </g>
     </g>
     <g id="text_5">
      <text style="font-size: 10px; font-family: 'Times New Roman'; text-anchor: middle" x="275.718283" y="112.38375" transform="rotate(-0 275.718283 112.38375)">200</text>
     </g>
    </g>
    <g id="xtick_6">
     <g id="line2d_11">
      <path d="M 336.070353 98.44 
L 336.070353 3.6 
" clip-path="url(#pdc35904755)" style="fill: none; stroke: #b0b0b0; stroke-width: 0.8; stroke-linecap: square"/>
     </g>
     <g id="line2d_12">
      <g>
       <use xlink:href="#mf006139636" x="336.070353" y="98.44" style="stroke: #000000; stroke-width: 0.8"/>
      </g>
     </g>
     <g id="text_6">
      <text style="font-size: 10px; font-family: 'Times New Roman'; text-anchor: middle" x="336.070353" y="112.38375" transform="rotate(-0 336.070353 112.38375)">250</text>
     </g>
    </g>
    <g id="xtick_7">
     <g id="line2d_13">
      <path d="M 396.422424 98.44 
L 396.422424 3.6 
" clip-path="url(#pdc35904755)" style="fill: none; stroke: #b0b0b0; stroke-width: 0.8; stroke-linecap: square"/>
     </g>
     <g id="line2d_14">
      <g>
       <use xlink:href="#mf006139636" x="396.422424" y="98.44" style="stroke: #000000; stroke-width: 0.8"/>
      </g>
     </g>
     <g id="text_7">
      <text style="font-size: 10px; font-family: 'Times New Roman'; text-anchor: middle" x="396.422424" y="112.38375" transform="rotate(-0 396.422424 112.38375)">300</text>
     </g>
    </g>
    <g id="xtick_8">
     <g id="line2d_15">
      <path d="M 456.774495 98.44 
L 456.774495 3.6 
" clip-path="url(#pdc35904755)" style="fill: none; stroke: #b0b0b0; stroke-width: 0.8; stroke-linecap: square"/>
     </g>
     <g id="line2d_16">
      <g>
       <use xlink:href="#mf006139636" x="456.774495" y="98.44" style="stroke: #000000; stroke-width: 0.8"/>
      </g>
     </g>
     <g id="text_8">
      <text style="font-size: 10px; font-family: 'Times New Roman'; text-anchor: middle" x="456.774495" y="112.38375" transform="rotate(-0 456.774495 112.38375)">350</text>
     </g>
    </g>
    <g id="xtick_9">
     <g id="line2d_17">
      <path d="M 517.126565 98.44 
L 517.126565 3.6 
" clip-path="url(#pdc35904755)" style="fill: none; stroke: #b0b0b0; stroke-width: 0.8; stroke-linecap: square"/>
     </g>
     <g id="line2d_18">
      <g>
       <use xlink:href="#mf006139636" x="517.126565" y="98.44" style="stroke: #000000; stroke-width: 0.8"/>
      </g>
     </g>
     <g id="text_9">
      <text style="font-size: 10px; font-family: 'Times New Roman'; text-anchor: middle" x="517.126565" y="112.38375" transform="rotate(-0 517.126565 112.38375)">400</text>
     </g>
    </g>
    <g id="text_10">
     <text style="font-size: 12px; font-family: 'Times New Roman'; text-anchor: middle" x="287.155" y="126.855312" transform="rotate(-0 287.155 126.855312)">Simulation Run</text>
    </g>
   </g>
   <g id="matplotlib.axis_2">
    <g id="ytick_1">
     <g id="line2d_19">
      <path d="M 34.31 98.44 
L 540 98.44 
" clip-path="url(#pdc35904755)" style="fill: none; stroke: #b0b0b0; stroke-width: 0.8; stroke-linecap: square"/>
     </g>
     <g id="line2d_20">
      <defs>
       <path id="m55cd311c80" d="M 0 0 
L -3.5 0 
" style="stroke: #000000; stroke-width: 0.8"/>
      </defs>
      <g>
       <use xlink:href="#m55cd311c80" x="34.31" y="98.44" style="stroke: #000000; stroke-width: 0.8"/>
      </g>
     </g>
     <g id="text_11">
      <text style="font-size: 10px; font-family: 'Times New Roman'; text-anchor: end" x="27.31" y="101.911875" transform="rotate(-0 27.31 101.911875)">0.0</text>
     </g>
    </g>
    <g id="ytick_2">
     <g id="line2d_21">
      <path d="M 34.31 66.826667 
L 540 66.826667 
" clip-path="url(#pdc35904755)" style="fill: none; stroke: #b0b0b0; stroke-width: 0.8; stroke-linecap: square"/>
     </g>
     <g id="line2d_22">
      <g>
       <use xlink:href="#m55cd311c80" x="34.31" y="66.826667" style="stroke: #000000; stroke-width: 0.8"/>
      </g>
     </g>
     <g id="text_12">
      <text style="font-size: 10px; font-family: 'Times New Roman'; text-anchor: end" x="27.31" y="70.298542" transform="rotate(-0 27.31 70.298542)">0.5</text>
     </g>
    </g>
    <g id="ytick_3">
     <g id="line2d_23">
      <path d="M 34.31 35.213333 
L 540 35.213333 
" clip-path="url(#pdc35904755)" style="fill: none; stroke: #b0b0b0; stroke-width: 0.8; stroke-linecap: square"/>
     </g>
     <g id="line2d_24">
      <g>
       <use xlink:href="#m55cd311c80" x="34.31" y="35.213333" style="stroke: #000000; stroke-width: 0.8"/>
      </g>
     </g>
     <g id="text_13">
      <text style="font-size: 10px; font-family: 'Times New Roman'; text-anchor: end" x="27.31" y="38.685208" transform="rotate(-0 27.31 38.685208)">1.0</text>
     </g>
    </g>
    <g id="ytick_4">
     <g id="line2d_25">
      <path d="M 34.31 3.6 
L 540 3.6 
" clip-path="url(#pdc35904755)" style="fill: none; stroke: #b0b0b0; stroke-width: 0.8; stroke-linecap: square"/>
     </g>
     <g id="line2d_26">
      <g>
       <use xlink:href="#m55cd311c80" x="34.31" y="3.6" style="stroke: #000000; stroke-width: 0.8"/>
      </g>
     </g>
     <g id="text_14">
      <text style="font-size: 10px; font-family: 'Times New Roman'; text-anchor: end" x="27.31" y="7.071875" transform="rotate(-0 27.31 7.071875)">1.5</text>
     </g>
    </g>
    <g id="text_15">
     <text style="font-size: 12px; font-family: 'Times New Roman'; text-anchor: middle" x="8.243125" y="51.02" transform="rotate(-90 8.243125 51.02)">Normalized Value</text>
    </g>
   </g>
   <g id="line2d_27">
    <path d="M 34.31 22.157636 
L 35.517041 22.616267 
L 36.724083 34.418293 
L 37.931124 29.349676 
L 39.138166 33.496912 
L 40.345207 30.882172 
L 41.552248 31.072158 
L 42.75929 33.728031 
L 43.966331 33.186602 
L 45.173373 31.916002 
L 46.380414 34.115196 
L 47.587456 35.736193 
L 48.794497 32.233062 
L 50.001538 33.538518 
L 51.20858 31.566743 
L 52.415621 32.200357 
L 53.622663 31.664661 
L 54.829704 33.022662 
L 56.036745 33.63022 
L 57.243787 33.928519 
L 58.450828 34.059465 
L 59.65787 33.924795 
L 60.864911 34.62438 
L 62.071953 33.732201 
L 63.278994 32.225915 
L 64.486035 32.072559 
L 65.693077 32.192795 
L 66.900118 32.876266 
L 69.314201 33.65297 
L 70.521242 34.431104 
L 72.935325 34.892091 
L 74.142367 34.634261 
L 75.349408 34.900226 
L 77.763491 34.496689 
L 78.970532 34.001715 
L 82.591657 35.289954 
L 83.798698 35.514987 
L 85.005739 34.722154 
L 86.212781 35.010435 
L 87.419822 34.759245 
L 88.626864 35.053305 
L 89.833905 35.502299 
L 92.247988 36.174852 
L 93.455029 35.844939 
L 94.662071 36.098404 
L 95.869112 35.8853 
L 97.076153 35.515001 
L 99.490236 35.23079 
L 100.697278 35.341776 
L 101.904319 35.295589 
L 103.111361 35.802895 
L 106.732485 35.842857 
L 107.939526 36.009322 
L 110.353609 36.811046 
L 111.56065 36.465259 
L 112.767692 36.571745 
L 113.974733 36.237185 
L 118.802899 36.505018 
L 120.00994 35.909901 
L 121.216982 35.921247 
L 122.424023 35.709119 
L 123.631065 35.998399 
L 124.838106 36.01949 
L 126.045147 35.829014 
L 128.45923 36.157753 
L 129.666272 36.216085 
L 130.873313 35.763454 
L 132.080354 35.922819 
L 133.287396 35.555853 
L 135.701479 35.499653 
L 136.90852 35.047884 
L 139.322603 34.555243 
L 141.736686 34.909996 
L 144.150769 34.521311 
L 145.35781 34.744754 
L 147.771893 34.738408 
L 151.393017 34.275842 
L 152.600058 34.172219 
L 155.014141 34.809884 
L 156.221183 34.455851 
L 157.428224 34.421988 
L 158.635266 34.568405 
L 159.842307 34.401176 
L 161.049348 34.364076 
L 162.25639 34.535359 
L 163.463431 34.46669 
L 168.291597 35.383399 
L 170.70568 35.447395 
L 173.119763 35.213314 
L 174.326804 35.417796 
L 177.947928 35.640107 
L 179.15497 35.596869 
L 180.362011 35.665685 
L 183.983135 35.556399 
L 185.190177 35.345081 
L 186.397218 35.355111 
L 187.604259 35.242228 
L 188.811301 35.263446 
L 190.018342 34.952542 
L 191.225384 34.77993 
L 194.846508 35.167436 
L 196.053549 35.029647 
L 199.674674 35.149852 
L 200.881715 35.037596 
L 202.088756 35.197415 
L 203.295798 35.129606 
L 206.916922 35.319073 
L 208.123963 35.141807 
L 209.331005 34.806333 
L 211.745088 35.026688 
L 216.573253 35.018548 
L 218.987336 35.126751 
L 221.401419 34.8502 
L 223.815502 34.452552 
L 225.022543 34.557122 
L 226.229585 34.367051 
L 228.643668 34.586338 
L 229.850709 34.49973 
L 233.471833 34.796313 
L 237.092957 34.697771 
L 239.50704 34.884958 
L 247.95633 34.845426 
L 250.370413 34.999162 
L 251.577454 34.868567 
L 256.40562 35.04627 
L 257.612661 34.813823 
L 258.819703 34.832364 
L 261.233786 34.605528 
L 267.268993 34.867304 
L 268.476034 34.775721 
L 270.890117 34.919128 
L 273.3042 34.849152 
L 274.511241 34.777873 
L 278.132365 34.931888 
L 279.339407 34.774003 
L 282.960531 34.738645 
L 286.581655 35.030547 
L 287.788697 34.993025 
L 290.20278 35.251012 
L 293.823904 35.157655 
L 295.030945 35.100309 
L 298.652069 35.308533 
L 299.859111 35.216166 
L 304.687277 35.384207 
L 305.894318 35.231744 
L 310.722484 35.405031 
L 311.929525 35.416478 
L 314.343608 35.62895 
L 316.757691 35.484639 
L 317.964732 35.590697 
L 323.999939 35.476294 
L 326.414022 35.212651 
L 328.828105 35.284834 
L 330.035146 35.182246 
L 331.242188 35.270487 
L 332.449229 35.158996 
L 333.65627 35.197964 
L 336.070353 35.13187 
L 340.898519 35.365362 
L 344.519643 35.273616 
L 345.726685 35.379634 
L 349.347809 35.33929 
L 350.55485 35.1478 
L 355.383016 35.207595 
L 356.590057 35.03405 
L 371.074554 35.110173 
L 377.109761 34.948885 
L 379.523844 34.733359 
L 384.35201 34.758943 
L 386.766093 34.847474 
L 392.8013 34.672835 
L 395.215383 34.723404 
L 404.871714 34.704257 
L 409.699879 34.972165 
L 412.113962 35.023983 
L 414.528045 35.067043 
L 415.735087 34.928409 
L 418.149169 34.825786 
L 421.770294 34.713884 
L 427.805501 34.851118 
L 429.012542 34.760917 
L 430.219583 34.823332 
L 432.633666 34.717372 
L 448.325205 34.895517 
L 451.946329 34.983293 
L 453.15337 34.838163 
L 455.567453 34.805239 
L 465.223784 34.898702 
L 471.258992 34.782643 
L 476.087157 34.846257 
L 478.50124 34.809543 
L 483.329406 34.902609 
L 490.571654 34.786256 
L 494.192778 34.896008 
L 496.606861 35.003548 
L 497.813903 34.955644 
L 500.227985 35.053375 
L 501.435027 34.996143 
L 505.056151 35.110419 
L 508.677275 35.185833 
L 511.091358 35.211417 
L 514.712482 35.190548 
L 515.919524 35.213333 
L 515.919524 35.213333 
" clip-path="url(#pdc35904755)" style="fill: none; stroke: #4169e1; stroke-width: 1.5; stroke-linecap: square"/>
   </g>
   <g id="line2d_28">
    <path d="M 34.31 98.44 
L 35.517041 98.396548 
L 36.724083 40.863653 
L 37.931124 39.33629 
L 39.138166 36.944878 
L 40.345207 40.132362 
L 41.552248 48.417287 
L 42.75929 44.470247 
L 43.966331 49.982428 
L 45.173373 51.826657 
L 46.380414 46.073217 
L 47.587456 44.466224 
L 48.794497 18.196845 
L 50.001538 19.351822 
L 51.20858 13.380259 
L 53.622663 21.267949 
L 54.829704 19.07891 
L 56.036745 21.883254 
L 58.450828 28.770909 
L 59.65787 31.85901 
L 60.864911 32.52957 
L 62.071953 31.493901 
L 63.278994 22.922889 
L 65.693077 28.322144 
L 66.900118 28.22088 
L 69.314201 31.156861 
L 70.521242 29.574856 
L 74.142367 34.513983 
L 75.349408 35.843608 
L 76.556449 37.399288 
L 77.763491 38.60484 
L 78.970532 38.306833 
L 80.177574 38.442212 
L 81.384615 37.853349 
L 82.591657 38.285224 
L 83.798698 39.288579 
L 85.005739 35.210455 
L 88.626864 37.263137 
L 89.833905 36.6491 
L 91.040946 36.929719 
L 93.455029 37.094258 
L 94.662071 37.633544 
L 95.869112 38.32445 
L 97.076153 37.985745 
L 98.283195 38.959489 
L 99.490236 39.723028 
L 101.904319 41.621099 
L 103.111361 39.57035 
L 106.732485 42.434945 
L 107.939526 42.989068 
L 109.146568 41.572221 
L 110.353609 40.598953 
L 111.56065 39.908011 
L 112.767692 40.642602 
L 113.974733 39.979182 
L 116.388816 41.534327 
L 117.595858 42.023627 
L 118.802899 42.810347 
L 120.00994 38.388465 
L 121.216982 39.209174 
L 122.424023 39.331014 
L 123.631065 38.839903 
L 124.838106 39.617223 
L 127.252189 39.929992 
L 128.45923 40.401577 
L 129.666272 41.071528 
L 130.873313 38.393987 
L 132.080354 38.701291 
L 133.287396 37.139914 
L 135.701479 38.484606 
L 136.90852 35.598057 
L 138.115562 34.74959 
L 139.322603 34.787906 
L 140.529644 35.189963 
L 142.943727 34.816428 
L 144.150769 34.937516 
L 145.35781 34.671467 
L 147.771893 35.933615 
L 150.185976 36.103499 
L 152.600058 36.835107 
L 153.8071 34.897271 
L 155.014141 33.856897 
L 156.221183 31.874954 
L 157.428224 32.497055 
L 158.635266 32.674978 
L 159.842307 32.700501 
L 161.049348 33.29083 
L 162.25639 33.25729 
L 163.463431 33.756607 
L 165.877514 32.079207 
L 167.084555 30.453978 
L 168.291597 30.839622 
L 170.70568 31.970103 
L 171.912721 31.997281 
L 173.119763 32.413643 
L 174.326804 31.976011 
L 176.740887 32.947819 
L 177.947928 33.127952 
L 181.569052 34.506328 
L 183.983135 35.422677 
L 185.190177 34.769726 
L 186.397218 35.268448 
L 187.604259 35.427667 
L 188.811301 35.90423 
L 190.018342 33.809399 
L 191.225384 33.502617 
L 192.432425 33.502925 
L 193.639467 33.949 
L 194.846508 33.179173 
L 196.053549 33.137032 
L 197.260591 33.564335 
L 198.467632 33.85376 
L 199.674674 34.321256 
L 200.881715 34.423306 
L 202.088756 34.147142 
L 203.295798 34.47014 
L 205.709881 34.876615 
L 206.916922 35.316815 
L 208.123963 34.817392 
L 209.331005 31.882089 
L 211.745088 32.04915 
L 212.952129 32.477175 
L 214.159171 32.747987 
L 215.366212 32.536594 
L 216.573253 32.738551 
L 217.780295 32.813753 
L 218.987336 33.239773 
L 220.194378 33.390185 
L 221.401419 32.718572 
L 222.60846 32.31252 
L 223.815502 30.89888 
L 225.022543 30.966763 
L 226.229585 30.201852 
L 227.436626 30.152925 
L 231.05775 30.408678 
L 232.264792 30.269175 
L 235.885916 31.177724 
L 237.092957 31.574522 
L 239.50704 31.744209 
L 240.714082 32.129902 
L 241.921123 32.238343 
L 247.95633 33.977331 
L 249.163372 33.778676 
L 250.370413 34.103592 
L 251.577454 33.824872 
L 252.784496 34.022536 
L 253.991537 33.739653 
L 256.40562 34.289262 
L 257.612661 32.569254 
L 258.819703 32.908296 
L 260.026744 32.676245 
L 261.233786 32.602223 
L 263.647868 33.120441 
L 264.85491 32.618073 
L 266.061951 32.951627 
L 269.683076 32.901457 
L 273.3042 33.614095 
L 275.718283 33.784017 
L 276.925324 33.836188 
L 278.132365 34.152536 
L 279.339407 33.422314 
L 281.75349 33.948099 
L 282.960531 34.229622 
L 284.167573 34.068624 
L 285.374614 34.36366 
L 286.581655 33.425023 
L 287.788697 33.672076 
L 288.995738 32.879256 
L 290.20278 32.755673 
L 291.409821 33.060299 
L 295.030945 33.644265 
L 297.445028 33.400209 
L 298.652069 33.685276 
L 299.859111 33.590541 
L 302.273194 34.03421 
L 303.480235 33.588194 
L 304.687277 33.785608 
L 305.894318 32.991276 
L 308.308401 33.235552 
L 309.515442 33.517668 
L 310.722484 33.617086 
L 311.929525 33.891478 
L 313.136566 33.430456 
L 315.550649 33.174474 
L 316.757691 33.338583 
L 317.964732 33.068385 
L 319.171773 33.34092 
L 320.378815 33.415793 
L 323.999939 34.171692 
L 325.206981 33.404611 
L 326.414022 32.9569 
L 327.621063 32.939893 
L 328.828105 33.206719 
L 330.035146 32.939252 
L 331.242188 32.808741 
L 332.449229 32.43913 
L 333.65627 32.626398 
L 334.863312 32.606002 
L 336.070353 32.864845 
L 339.691478 33.060018 
L 342.10556 33.203471 
L 343.312602 33.180087 
L 344.519643 33.315649 
L 345.726685 32.968048 
L 349.347809 33.602213 
L 350.55485 31.864131 
L 355.383016 32.627869 
L 356.590057 31.212243 
L 362.625264 32.351068 
L 363.832306 32.519721 
L 365.039347 32.45083 
L 368.660471 32.904075 
L 372.281596 33.496645 
L 374.695678 33.308876 
L 375.90272 32.894174 
L 377.109761 33.054956 
L 378.316803 32.413025 
L 379.523844 32.12186 
L 383.144968 32.703912 
L 386.766093 32.888386 
L 390.387217 33.342775 
L 391.594258 33.546718 
L 392.8013 33.178606 
L 394.008341 33.203323 
L 398.836507 34.017695 
L 400.043548 33.553896 
L 402.457631 33.961161 
L 403.664672 33.897873 
L 404.871714 34.052857 
L 406.078755 33.877358 
L 407.285797 33.432034 
L 408.492838 33.423858 
L 410.906921 33.762131 
L 412.113962 33.671201 
L 414.528045 33.985562 
L 415.735087 32.934273 
L 416.942128 33.128123 
L 418.149169 32.812456 
L 419.356211 32.840675 
L 421.770294 33.105535 
L 424.184376 33.354818 
L 425.391418 33.535931 
L 427.805501 33.532702 
L 429.012542 33.180984 
L 432.633666 33.07095 
L 437.461832 33.797532 
L 439.875915 34.093833 
L 447.118163 35.165672 
L 448.325205 34.870063 
L 451.946329 35.202096 
L 453.15337 33.873991 
L 454.360412 33.969217 
L 455.567453 33.817464 
L 460.395619 34.387406 
L 461.60266 34.441859 
L 462.809702 34.244317 
L 465.223784 34.378871 
L 468.844909 34.511332 
L 470.05195 34.302535 
L 473.673074 34.684686 
L 476.087157 34.973038 
L 477.294199 34.919673 
L 478.50124 35.067556 
L 479.708281 35.079095 
L 480.915323 35.248485 
L 483.329406 35.456483 
L 486.95053 35.671612 
L 488.157571 35.678245 
L 489.364613 35.155453 
L 491.778696 35.439072 
L 492.985737 35.087037 
L 494.192778 35.232999 
L 495.39982 35.055232 
L 497.813903 35.065701 
L 499.020944 34.743049 
L 500.227985 34.877344 
L 501.435027 34.779312 
L 502.642068 34.553502 
L 506.263193 34.933737 
L 507.470234 34.66906 
L 508.677275 34.825643 
L 509.884317 34.829062 
L 511.091358 34.961996 
L 512.2984 34.964862 
L 513.505441 35.091252 
L 515.919524 35.213333 
L 515.919524 35.213333 
" clip-path="url(#pdc35904755)" style="fill: none; stroke-dasharray: 5.55,2.4; stroke-dashoffset: 0; stroke: #4169e1; stroke-width: 1.5"/>
   </g>
   <g id="line2d_29">
    <path d="M 34.31 28.360456 
L 35.517041 25.967639 
L 36.724083 34.889967 
L 37.931124 33.607355 
L 39.138166 36.298447 
L 40.345207 33.917252 
L 41.552248 34.222439 
L 42.75929 35.764118 
L 43.966331 34.721771 
L 45.173373 33.159369 
L 46.380414 34.935136 
L 47.587456 35.882025 
L 48.794497 33.995054 
L 50.001538 34.816716 
L 51.20858 33.464029 
L 52.415621 33.84107 
L 53.622663 33.075113 
L 54.829704 34.366825 
L 56.036745 34.773524 
L 57.243787 34.765399 
L 58.450828 34.632658 
L 59.65787 34.696232 
L 60.864911 35.179889 
L 62.071953 34.455134 
L 63.278994 33.225713 
L 64.486035 32.872512 
L 65.693077 32.894918 
L 66.900118 33.430462 
L 69.314201 34.052728 
L 70.521242 34.696936 
L 72.935325 34.856327 
L 74.142367 34.556489 
L 75.349408 34.644199 
L 76.556449 34.326737 
L 77.763491 34.207404 
L 78.970532 33.956771 
L 80.177574 34.197006 
L 81.384615 34.656004 
L 83.798698 35.208177 
L 85.005739 34.722973 
L 86.212781 34.963038 
L 87.419822 34.626724 
L 88.626864 34.728339 
L 92.247988 35.658364 
L 93.455029 35.463482 
L 94.662071 35.642238 
L 99.490236 34.958554 
L 100.697278 34.991884 
L 101.904319 34.86423 
L 103.111361 35.249465 
L 107.939526 35.28239 
L 110.353609 35.87114 
L 111.56065 35.767533 
L 112.767692 35.795603 
L 113.974733 35.574809 
L 118.802899 35.845798 
L 120.00994 35.441428 
L 121.216982 35.453005 
L 122.424023 35.334145 
L 123.631065 35.54608 
L 126.045147 35.275096 
L 128.45923 35.428372 
L 129.666272 35.446298 
L 130.873313 35.175464 
L 132.080354 35.239578 
L 133.287396 34.964498 
L 134.494437 34.86146 
L 135.701479 34.89452 
L 138.115562 34.486593 
L 139.322603 34.307355 
L 141.736686 34.655886 
L 144.150769 34.546068 
L 145.35781 34.741363 
L 147.771893 34.775015 
L 148.978934 34.617243 
L 150.185976 34.336472 
L 152.600058 34.186951 
L 155.014141 34.740475 
L 156.221183 34.505089 
L 157.428224 34.424816 
L 158.635266 34.534441 
L 161.049348 34.459491 
L 162.25639 34.643689 
L 163.463431 34.594355 
L 169.498638 35.288616 
L 170.70568 35.34713 
L 173.119763 35.23167 
L 174.326804 35.420439 
L 180.362011 35.64722 
L 190.018342 35.098762 
L 191.225384 34.912594 
L 196.053549 35.264894 
L 200.881715 35.211378 
L 202.088756 35.31787 
L 203.295798 35.264636 
L 206.916922 35.427949 
L 208.123963 35.317901 
L 209.331005 35.088172 
L 211.745088 35.22208 
L 215.366212 35.058542 
L 218.987336 35.14351 
L 220.194378 35.142372 
L 223.815502 34.737803 
L 225.022543 34.815143 
L 226.229585 34.712317 
L 228.643668 34.860507 
L 229.850709 34.821755 
L 233.471833 35.036908 
L 237.092957 34.927058 
L 239.50704 35.099253 
L 247.95633 34.990361 
L 250.370413 35.17358 
L 251.577454 35.080403 
L 253.991537 35.245787 
L 261.233786 34.832956 
L 273.3042 34.9814 
L 274.511241 34.914028 
L 279.339407 35.00221 
L 282.960531 34.929479 
L 292.616862 35.306473 
L 296.237987 35.286637 
L 298.652069 35.358725 
L 301.066152 35.335159 
L 302.273194 35.327558 
L 304.687277 35.464444 
L 305.894318 35.337234 
L 315.550649 35.578274 
L 316.757691 35.541046 
L 317.964732 35.647037 
L 325.206981 35.462292 
L 326.414022 35.369985 
L 331.242188 35.421004 
L 333.65627 35.387343 
L 337.277395 35.364188 
L 342.10556 35.405174 
L 344.519643 35.401338 
L 345.726685 35.477786 
L 352.968933 35.307279 
L 372.281596 35.158298 
L 374.695678 35.181769 
L 379.523844 34.910751 
L 384.35201 34.913639 
L 386.766093 35.00532 
L 402.457631 34.903625 
L 413.321004 35.223744 
L 415.735087 35.106186 
L 426.598459 34.991545 
L 427.805501 35.041958 
L 429.012542 34.941061 
L 431.426625 34.95585 
L 435.047749 34.967321 
L 461.60266 34.993664 
L 464.016743 34.973255 
L 488.157571 34.989745 
L 490.571654 34.955848 
L 497.813903 35.06047 
L 500.227985 35.140363 
L 502.642068 35.117334 
L 515.919524 35.213333 
L 515.919524 35.213333 
" clip-path="url(#pdc35904755)" style="fill: none; stroke: #ff8c00; stroke-width: 1.5; stroke-linecap: square"/>
   </g>
   <g id="line2d_30">
    <path d="M 34.31 98.44 
L 35.517041 96.402524 
L 36.724083 40.423885 
L 37.931124 53.171669 
L 39.138166 51.916962 
L 40.345207 49.582153 
L 41.552248 56.362982 
L 42.75929 55.702098 
L 43.966331 57.357697 
L 45.173373 53.647819 
L 46.380414 46.498472 
L 47.587456 47.317279 
L 48.794497 36.044846 
L 50.001538 37.378423 
L 51.20858 32.333375 
L 52.415621 35.706215 
L 53.622663 36.05601 
L 54.829704 29.428019 
L 56.036745 32.000751 
L 57.243787 35.322268 
L 59.65787 40.910336 
L 60.864911 41.580276 
L 62.071953 39.650261 
L 63.278994 29.093057 
L 64.486035 30.650414 
L 65.693077 33.156495 
L 66.900118 32.73237 
L 68.10716 34.118761 
L 69.314201 35.171535 
L 70.521242 32.782007 
L 72.935325 36.620813 
L 74.142367 37.383274 
L 75.349408 39.034673 
L 76.556449 39.429583 
L 77.763491 40.84203 
L 80.177574 42.209464 
L 81.384615 40.691338 
L 82.591657 40.566222 
L 83.798698 41.212542 
L 85.005739 39.0248 
L 86.212781 39.493287 
L 87.419822 39.03223 
L 88.626864 40.158354 
L 89.833905 39.918901 
L 92.247988 38.993723 
L 95.869112 40.6252 
L 97.076153 40.821799 
L 98.283195 41.859272 
L 99.490236 41.763652 
L 100.697278 42.753987 
L 101.904319 43.406194 
L 103.111361 41.344816 
L 105.525443 43.220674 
L 106.732485 44.073168 
L 107.939526 44.602966 
L 109.146568 43.363096 
L 110.353609 42.457931 
L 111.56065 43.074721 
L 112.767692 43.895364 
L 113.974733 43.564497 
L 115.181775 44.170009 
L 116.388816 44.924442 
L 117.595858 45.412956 
L 118.802899 46.126398 
L 120.00994 42.721638 
L 121.216982 43.481469 
L 122.424023 43.857152 
L 123.631065 43.40213 
L 124.838106 43.724927 
L 126.045147 43.840316 
L 127.252189 44.106685 
L 129.666272 45.43529 
L 130.873313 44.001495 
L 132.080354 44.546894 
L 133.287396 42.988172 
L 134.494437 43.334733 
L 135.701479 43.95036 
L 136.90852 42.782755 
L 138.115562 42.60037 
L 139.322603 42.240301 
L 140.529644 42.017188 
L 141.736686 41.579568 
L 144.150769 42.621921 
L 145.35781 41.973457 
L 147.771893 43.143439 
L 148.978934 42.877942 
L 150.185976 40.757671 
L 152.600058 41.536842 
L 153.8071 38.403081 
L 156.221183 35.735783 
L 157.428224 36.110674 
L 158.635266 36.269515 
L 159.842307 36.6728 
L 161.049348 37.255045 
L 162.25639 36.547049 
L 163.463431 37.027459 
L 164.670473 36.669882 
L 165.877514 35.952263 
L 167.084555 34.379705 
L 168.291597 34.892702 
L 169.498638 35.162687 
L 170.70568 35.58007 
L 171.912721 35.853897 
L 173.119763 36.347616 
L 174.326804 35.407384 
L 175.533845 35.803633 
L 176.740887 36.329638 
L 177.947928 36.488593 
L 179.15497 36.988962 
L 182.776094 38.05623 
L 183.983135 38.515663 
L 185.190177 38.139269 
L 186.397218 38.610957 
L 187.604259 38.496227 
L 188.811301 38.952264 
L 190.018342 37.222091 
L 191.225384 36.086072 
L 193.639467 35.956771 
L 194.846508 35.214388 
L 197.260591 36.115911 
L 199.674674 36.595095 
L 200.881715 36.94612 
L 202.088756 36.824411 
L 204.502839 37.37224 
L 205.709881 37.489928 
L 206.916922 37.880859 
L 208.123963 37.677925 
L 209.331005 35.370942 
L 210.538046 35.492171 
L 214.159171 36.348151 
L 215.366212 36.116515 
L 217.780295 36.649271 
L 220.194378 37.430314 
L 221.401419 36.457071 
L 222.60846 36.152775 
L 223.815502 35.527634 
L 225.022543 35.586999 
L 226.229585 35.38159 
L 227.436626 35.346273 
L 228.643668 35.518397 
L 229.850709 35.817847 
L 232.264792 35.720886 
L 234.678875 36.208097 
L 235.885916 36.287633 
L 237.092957 36.648029 
L 239.50704 36.477902 
L 240.714082 36.798387 
L 241.921123 36.598089 
L 245.542247 37.527786 
L 247.95633 37.989347 
L 249.163372 37.106102 
L 250.370413 37.321371 
L 251.577454 37.102934 
L 252.784496 37.151247 
L 253.991537 36.858639 
L 255.198579 36.80246 
L 256.40562 37.13467 
L 257.612661 36.023381 
L 258.819703 36.345966 
L 260.026744 35.73006 
L 261.233786 35.57831 
L 262.440827 35.886734 
L 263.647868 35.755723 
L 264.85491 35.142179 
L 267.268993 35.698344 
L 268.476034 35.687358 
L 269.683076 35.546126 
L 270.890117 35.733264 
L 273.3042 36.358403 
L 274.511241 36.347377 
L 275.718283 36.482036 
L 276.925324 36.259018 
L 278.132365 36.50694 
L 279.339407 36.394831 
L 285.374614 37.483466 
L 286.581655 36.171274 
L 287.788697 36.465113 
L 288.995738 35.42364 
L 290.20278 35.224647 
L 291.409821 35.520031 
L 295.030945 35.742157 
L 297.445028 35.313673 
L 298.652069 35.598842 
L 299.859111 35.650712 
L 302.273194 36.134394 
L 303.480235 35.545722 
L 304.687277 35.741717 
L 305.894318 34.723458 
L 307.101359 34.877879 
L 308.308401 34.874217 
L 309.515442 35.121348 
L 310.722484 34.982315 
L 311.929525 35.246109 
L 315.550649 34.514993 
L 316.757691 34.67161 
L 317.964732 34.002365 
L 319.171773 34.248277 
L 320.378815 34.319491 
L 323.999939 34.880826 
L 325.206981 34.546247 
L 326.414022 34.07542 
L 330.035146 34.612902 
L 331.242188 34.619007 
L 332.449229 34.440107 
L 336.070353 34.944939 
L 340.898519 35.667092 
L 343.312602 35.817244 
L 344.519643 35.886394 
L 345.726685 35.591341 
L 346.933726 35.6658 
L 349.347809 36.118576 
L 350.55485 34.964151 
L 355.383016 35.867157 
L 356.590057 35.303432 
L 363.832306 36.517915 
L 365.039347 36.018976 
L 368.660471 36.610522 
L 369.867513 36.690169 
L 371.074554 36.909344 
L 372.281596 36.923295 
L 373.488637 36.722741 
L 374.695678 36.770178 
L 375.90272 36.281681 
L 377.109761 36.492036 
L 378.316803 35.303858 
L 379.523844 35.146811 
L 380.730886 35.360089 
L 381.937927 35.425913 
L 383.144968 35.640036 
L 384.35201 35.543943 
L 385.559051 35.262237 
L 390.387217 35.837395 
L 394.008341 36.048038 
L 398.836507 36.850811 
L 400.043548 36.456608 
L 402.457631 36.767641 
L 404.871714 36.670995 
L 406.078755 36.462945 
L 407.285797 35.617401 
L 408.492838 35.545056 
L 409.699879 35.608241 
L 410.906921 35.79166 
L 412.113962 35.431229 
L 414.528045 35.756289 
L 415.735087 34.516258 
L 416.942128 34.671784 
L 418.149169 34.222524 
L 419.356211 34.263148 
L 420.563252 34.4629 
L 424.184376 34.777359 
L 425.391418 34.970365 
L 427.805501 34.864678 
L 429.012542 33.873892 
L 430.219583 33.822716 
L 435.047749 34.227747 
L 447.118163 36.014409 
L 448.325205 35.709803 
L 451.946329 35.953141 
L 453.15337 34.238462 
L 454.360412 34.37966 
L 455.567453 34.373625 
L 459.188577 34.832932 
L 461.60266 34.980489 
L 462.809702 34.846022 
L 466.430826 35.142225 
L 467.637867 35.28322 
L 470.05195 35.023061 
L 473.673074 35.373822 
L 474.880116 35.546127 
L 477.294199 35.500122 
L 478.50124 35.656674 
L 479.708281 35.525376 
L 485.743488 36.092216 
L 486.95053 36.11986 
L 488.157571 35.858595 
L 489.364613 35.471663 
L 490.571654 35.514507 
L 491.778696 35.674106 
L 492.985737 35.322561 
L 494.192778 35.478444 
L 495.39982 35.309733 
L 497.813903 35.358386 
L 499.020944 35.060972 
L 500.227985 35.158885 
L 501.435027 34.726237 
L 502.642068 34.637777 
L 506.263193 34.997831 
L 507.470234 34.889544 
L 508.677275 35.048685 
L 512.2984 34.977254 
L 513.505441 35.136695 
L 514.712482 35.06651 
L 515.919524 35.213333 
L 515.919524 35.213333 
" clip-path="url(#pdc35904755)" style="fill: none; stroke-dasharray: 5.55,2.4; stroke-dashoffset: 0; stroke: #ff8c00; stroke-width: 1.5"/>
   </g>
   <g id="patch_3">
    <path d="M 34.31 98.44 
L 34.31 3.6 
" style="fill: none; stroke: #000000; stroke-width: 0.8; stroke-linejoin: miter; stroke-linecap: square"/>
   </g>
   <g id="patch_4">
    <path d="M 540 98.44 
L 540 3.6 
" style="fill: none; stroke: #000000; stroke-width: 0.8; stroke-linejoin: miter; stroke-linecap: square"/>
   </g>
   <g id="patch_5">
    <path d="M 34.31 98.44 
L 540 98.44 
" style="fill: none; stroke: #000000; stroke-width: 0.8; stroke-linejoin: miter; stroke-linecap: square"/>
   </g>
   <g id="patch_6">
    <path d="M 34.31 3.6 
L 540 3.6 
" style="fill: none; stroke: #000000; stroke-width: 0.8; stroke-linejoin: miter; stroke-linecap: square"/>
   </g>
  </g>
 </g>
 <defs>
  <clipPath id="pdc35904755">
   <rect x="34.31" y="3.6" width="505.69" height="94.84"/>
  </clipPath>
 </defs>
</svg>
