<?xml version="1.0" encoding="utf-8" standalone="no"?>
<!DOCTYPE svg PUBLIC "-//W3C//DTD SVG 1.1//EN"
  "http://www.w3.org/Graphics/SVG/1.1/DTD/svg11.dtd">
<svg xmlns:xlink="http://www.w3.org/1999/xlink" width="540pt" height="129.6pt" viewBox="0 0 540 129.6" xmlns="http://www.w3.org/2000/svg" version="1.1">
 <metadata>
  <rdf:RDF xmlns:dc="http://purl.org/dc/elements/1.1/" xmlns:cc="http://creativecommons.org/ns#" xmlns:rdf="http://www.w3.org/1999/02/22-rdf-syntax-ns#">
   <cc:Work>
    <dc:type rdf:resource="http://purl.org/dc/dcmitype/StillImage"/>
    <dc:date>2025-04-04T23:02:04.767001</dc:date>
    <dc:format>image/svg+xml</dc:format>
    <dc:creator>
     <cc:Agent>
      <dc:title>Matplotlib v3.10.1, https://matplotlib.org/</dc:title>
     </cc:Agent>
    </dc:creator>
   </cc:Work>
  </rdf:RDF>
 </metadata>
 <defs>
  <style type="text/css">*{stroke-linejoin: round; stroke-linecap: butt}</style>
 </defs>
 <g id="figure_1">
  <g id="patch_1">
   <path d="M 0 129.6 
L 540 129.6 
L 540 0 
L 0 0 
z
" style="fill: #ffffff"/>
  </g>
  <g id="axes_1">
   <g id="patch_2">
    <path d="M 34.31 98.44 
L 540 98.44 
L 540 0 
L 34.31 0 
z
" style="fill: #ffffff"/>
   </g>
   <g id="matplotlib.axis_1">
    <g id="xtick_1">
     <g id="line2d_1">
      <path d="M 34.31 98.44 
L 34.31 0 
" clip-path="url(#p6630c94133)" style="fill: none; stroke: #b0b0b0; stroke-width: 0.8; stroke-linecap: square"/>
     </g>
     <g id="line2d_2">
      <defs>
       <path id="m0c4aaab23b" d="M 0 0 
L 0 3.5 
" style="stroke: #000000; stroke-width: 0.8"/>
      </defs>
      <g>
       <use xlink:href="#m0c4aaab23b" x="34.31" y="98.44" style="stroke: #000000; stroke-width: 0.8"/>
      </g>
     </g>
     <g id="text_1">
      <text style="font-size: 10px; font-family: 'Times New Roman'; text-anchor: middle" x="34.31" y="112.38375" transform="rotate(-0 34.31 112.38375)">0</text>
     </g>
    </g>
    <g id="xtick_2">
     <g id="line2d_3">
      <path d="M 94.662071 98.44 
L 94.662071 0 
" clip-path="url(#p6630c94133)" style="fill: none; stroke: #b0b0b0; stroke-width: 0.8; stroke-linecap: square"/>
     </g>
     <g id="line2d_4">
      <g>
       <use xlink:href="#m0c4aaab23b" x="94.662071" y="98.44" style="stroke: #000000; stroke-width: 0.8"/>
      </g>
     </g>
     <g id="text_2">
      <text style="font-size: 10px; font-family: 'Times New Roman'; text-anchor: middle" x="94.662071" y="112.38375" transform="rotate(-0 94.662071 112.38375)">50</text>
     </g>
    </g>
    <g id="xtick_3">
     <g id="line2d_5">
      <path d="M 155.014141 98.44 
L 155.014141 0 
" clip-path="url(#p6630c94133)" style="fill: none; stroke: #b0b0b0; stroke-width: 0.8; stroke-linecap: square"/>
     </g>
     <g id="line2d_6">
      <g>
       <use xlink:href="#m0c4aaab23b" x="155.014141" y="98.44" style="stroke: #000000; stroke-width: 0.8"/>
      </g>
     </g>
     <g id="text_3">
      <text style="font-size: 10px; font-family: 'Times New Roman'; text-anchor: middle" x="155.014141" y="112.38375" transform="rotate(-0 155.014141 112.38375)">100</text>
     </g>
    </g>
    <g id="xtick_4">
     <g id="line2d_7">
      <path d="M 215.366212 98.44 
L 215.366212 0 
" clip-path="url(#p6630c94133)" style="fill: none; stroke: #b0b0b0; stroke-width: 0.8; stroke-linecap: square"/>
     </g>
     <g id="line2d_8">
      <g>
       <use xlink:href="#m0c4aaab23b" x="215.366212" y="98.44" style="stroke: #000000; stroke-width: 0.8"/>
      </g>
     </g>
     <g id="text_4">
      <text style="font-size: 10px; font-family: 'Times New Roman'; text-anchor: middle" x="215.366212" y="112.38375" transform="rotate(-0 215.366212 112.38375)">150</text>
     </g>
    </g>
    <g id="xtick_5">
     <g id="line2d_9">
      <path d="M 275.718283 98.44 
L 275.718283 0 
" clip-path="url(#p6630c94133)" style="fill: none; stroke: #b0b0b0; stroke-width: 0.8; stroke-linecap: square"/>
     </g>
     <g id="line2d_10">
      <g>
       <use xlink:href="#m0c4aaab23b" x="275.718283" y="98.44" style="stroke: #000000; stroke-width: 0.8"/>
      </g>
     </g>
     <g id="text_5">
      <text style="font-size: 10px; font-family: 'Times New Roman'; text-anchor: middle" x="275.718283" y="112.38375" transform="rotate(-0 275.718283 112.38375)">200</text>
     </g>
    </g>
    <g id="xtick_6">
     <g id="line2d_11">
      <path d="M 336.070353 98.44 
L 336.070353 0 
" clip-path="url(#p6630c94133)" style="fill: none; stroke: #b0b0b0; stroke-width: 0.8; stroke-linecap: square"/>
     </g>
     <g id="line2d_12">
      <g>
       <use xlink:href="#m0c4aaab23b" x="336.070353" y="98.44" style="stroke: #000000; stroke-width: 0.8"/>
      </g>
     </g>
     <g id="text_6">
      <text style="font-size: 10px; font-family: 'Times New Roman'; text-anchor: middle" x="336.070353" y="112.38375" transform="rotate(-0 336.070353 112.38375)">250</text>
     </g>
    </g>
    <g id="xtick_7">
     <g id="line2d_13">
      <path d="M 396.422424 98.44 
L 396.422424 0 
" clip-path="url(#p6630c94133)" style="fill: none; stroke: #b0b0b0; stroke-width: 0.8; stroke-linecap: square"/>
     </g>
     <g id="line2d_14">
      <g>
       <use xlink:href="#m0c4aaab23b" x="396.422424" y="98.44" style="stroke: #000000; stroke-width: 0.8"/>
      </g>
     </g>
     <g id="text_7">
      <text style="font-size: 10px; font-family: 'Times New Roman'; text-anchor: middle" x="396.422424" y="112.38375" transform="rotate(-0 396.422424 112.38375)">300</text>
     </g>
    </g>
    <g id="xtick_8">
     <g id="line2d_15">
      <path d="M 456.774495 98.44 
L 456.774495 0 
" clip-path="url(#p6630c94133)" style="fill: none; stroke: #b0b0b0; stroke-width: 0.8; stroke-linecap: square"/>
     </g>
     <g id="line2d_16">
      <g>
       <use xlink:href="#m0c4aaab23b" x="456.774495" y="98.44" style="stroke: #000000; stroke-width: 0.8"/>
      </g>
     </g>
     <g id="text_8">
      <text style="font-size: 10px; font-family: 'Times New Roman'; text-anchor: middle" x="456.774495" y="112.38375" transform="rotate(-0 456.774495 112.38375)">350</text>
     </g>
    </g>
    <g id="xtick_9">
     <g id="line2d_17">
      <path d="M 517.126565 98.44 
L 517.126565 0 
" clip-path="url(#p6630c94133)" style="fill: none; stroke: #b0b0b0; stroke-width: 0.8; stroke-linecap: square"/>
     </g>
     <g id="line2d_18">
      <g>
       <use xlink:href="#m0c4aaab23b" x="517.126565" y="98.44" style="stroke: #000000; stroke-width: 0.8"/>
      </g>
     </g>
     <g id="text_9">
      <text style="font-size: 10px; font-family: 'Times New Roman'; text-anchor: middle" x="517.126565" y="112.38375" transform="rotate(-0 517.126565 112.38375)">400</text>
     </g>
    </g>
    <g id="text_10">
     <text style="font-size: 12px; font-family: 'Times New Roman'; text-anchor: middle" x="287.155" y="126.855312" transform="rotate(-0 287.155 126.855312)">Simulation Run</text>
    </g>
   </g>
   <g id="matplotlib.axis_2">
    <g id="ytick_1">
     <g id="line2d_19">
      <path d="M 34.31 98.44 
L 540 98.44 
" clip-path="url(#p6630c94133)" style="fill: none; stroke: #b0b0b0; stroke-width: 0.8; stroke-linecap: square"/>
     </g>
     <g id="line2d_20">
      <defs>
       <path id="m53a57c316a" d="M 0 0 
L -3.5 0 
" style="stroke: #000000; stroke-width: 0.8"/>
      </defs>
      <g>
       <use xlink:href="#m53a57c316a" x="34.31" y="98.44" style="stroke: #000000; stroke-width: 0.8"/>
      </g>
     </g>
     <g id="text_11">
      <text style="font-size: 10px; font-family: 'Times New Roman'; text-anchor: end" x="27.31" y="101.911875" transform="rotate(-0 27.31 101.911875)">0.0</text>
     </g>
    </g>
    <g id="ytick_2">
     <g id="line2d_21">
      <path d="M 34.31 60.578462 
L 540 60.578462 
" clip-path="url(#p6630c94133)" style="fill: none; stroke: #b0b0b0; stroke-width: 0.8; stroke-linecap: square"/>
     </g>
     <g id="line2d_22">
      <g>
       <use xlink:href="#m53a57c316a" x="34.31" y="60.578462" style="stroke: #000000; stroke-width: 0.8"/>
      </g>
     </g>
     <g id="text_12">
      <text style="font-size: 10px; font-family: 'Times New Roman'; text-anchor: end" x="27.31" y="64.050337" transform="rotate(-0 27.31 64.050337)">0.5</text>
     </g>
    </g>
    <g id="ytick_3">
     <g id="line2d_23">
      <path d="M 34.31 22.716923 
L 540 22.716923 
" clip-path="url(#p6630c94133)" style="fill: none; stroke: #b0b0b0; stroke-width: 0.8; stroke-linecap: square"/>
     </g>
     <g id="line2d_24">
      <g>
       <use xlink:href="#m53a57c316a" x="34.31" y="22.716923" style="stroke: #000000; stroke-width: 0.8"/>
      </g>
     </g>
     <g id="text_13">
      <text style="font-size: 10px; font-family: 'Times New Roman'; text-anchor: end" x="27.31" y="26.188798" transform="rotate(-0 27.31 26.188798)">1.0</text>
     </g>
    </g>
    <g id="text_14">
     <text style="font-size: 12px; font-family: 'Times New Roman'; text-anchor: middle" x="8.243125" y="49.22" transform="rotate(-90 8.243125 49.22)">Normalized Value</text>
    </g>
   </g>
   <g id="line2d_25">
    <path d="M 34.31 34.074747 
L 35.517041 26.709508 
L 36.724083 21.7286 
L 37.931124 11.734786 
L 39.138166 15.117042 
L 40.345207 10.003493 
L 41.552248 10.749473 
L 42.75929 9.690643 
L 43.966331 12.678068 
L 46.380414 20.108098 
L 48.794497 21.301304 
L 50.001538 23.904117 
L 51.20858 24.836573 
L 52.415621 24.176302 
L 53.622663 23.287723 
L 54.829704 23.810951 
L 56.036745 23.970924 
L 57.243787 23.280217 
L 58.450828 23.785686 
L 59.65787 24.594605 
L 60.864911 22.620491 
L 62.071953 22.137953 
L 63.278994 22.033254 
L 64.486035 22.080872 
L 65.693077 22.904892 
L 66.900118 23.499516 
L 68.10716 23.319158 
L 69.314201 23.673858 
L 70.521242 24.480635 
L 71.728284 25.466414 
L 72.935325 26.128162 
L 74.142367 26.557955 
L 76.556449 25.828801 
L 77.763491 26.275558 
L 80.177574 27.444487 
L 82.591657 28.109566 
L 86.212781 28.049987 
L 87.419822 28.458294 
L 88.626864 28.160334 
L 89.833905 27.669126 
L 93.455029 28.854844 
L 94.662071 28.054304 
L 95.869112 27.805218 
L 98.283195 27.610984 
L 100.697278 27.922641 
L 101.904319 27.568098 
L 103.111361 27.433246 
L 104.318402 27.522388 
L 105.525443 27.158473 
L 106.732485 27.394001 
L 109.146568 26.960222 
L 110.353609 27.359178 
L 111.56065 26.812657 
L 115.181775 26.135301 
L 116.388816 26.120686 
L 117.595858 26.489916 
L 120.00994 26.563033 
L 121.216982 26.705035 
L 123.631065 26.643697 
L 124.838106 26.225676 
L 126.045147 26.16799 
L 127.252189 25.935826 
L 128.45923 26.097019 
L 129.666272 26.072065 
L 134.494437 26.893925 
L 135.701479 26.580494 
L 136.90852 26.587918 
L 138.115562 26.743848 
L 139.322603 26.423728 
L 144.150769 25.900086 
L 145.35781 25.502451 
L 146.564851 25.407749 
L 147.771893 25.119148 
L 151.393017 25.211113 
L 153.8071 25.193783 
L 155.014141 25.186606 
L 156.221183 24.875556 
L 157.428224 24.97923 
L 159.842307 24.808131 
L 161.049348 24.303559 
L 162.25639 24.623925 
L 164.670473 24.843242 
L 165.877514 24.777946 
L 167.084555 24.476918 
L 168.291597 24.361269 
L 169.498638 24.742705 
L 170.70568 24.54094 
L 173.119763 24.578835 
L 174.326804 24.809797 
L 179.15497 25.119819 
L 180.362011 24.967789 
L 182.776094 25.163643 
L 183.983135 24.951446 
L 185.190177 24.855325 
L 187.604259 24.916443 
L 188.811301 24.761252 
L 190.018342 24.765409 
L 192.432425 25.149015 
L 194.846508 25.232642 
L 196.053549 25.332162 
L 197.260591 25.589425 
L 198.467632 25.577676 
L 199.674674 25.744728 
L 202.088756 25.794198 
L 203.295798 25.529716 
L 205.709881 25.24579 
L 208.123963 25.567736 
L 209.331005 25.571274 
L 214.159171 26.111276 
L 217.780295 26.055629 
L 218.987336 26.091348 
L 220.194378 25.894592 
L 223.815502 25.745554 
L 226.229585 25.836621 
L 227.436626 26.03266 
L 228.643668 26.064558 
L 229.850709 26.221579 
L 231.05775 26.123537 
L 233.471833 26.314179 
L 237.092957 26.327631 
L 246.749289 25.59191 
L 251.577454 25.926629 
L 255.198579 25.742649 
L 257.612661 25.771013 
L 258.819703 25.95323 
L 261.233786 25.939014 
L 263.647868 26.080327 
L 266.061951 26.313945 
L 270.890117 26.208863 
L 272.097158 26.010021 
L 273.3042 26.073032 
L 274.511241 25.916441 
L 278.132365 25.944143 
L 280.546448 25.985319 
L 281.75349 25.808015 
L 285.374614 25.739111 
L 287.788697 25.821805 
L 288.995738 25.578521 
L 290.20278 25.673589 
L 295.030945 25.60928 
L 296.237987 25.424251 
L 299.859111 25.600149 
L 301.066152 25.356465 
L 304.687277 25.514014 
L 307.101359 25.254859 
L 309.515442 25.22089 
L 310.722484 25.121128 
L 311.929525 25.182582 
L 314.343608 25.063062 
L 317.964732 25.360299 
L 320.378815 25.408616 
L 322.792898 25.32573 
L 326.414022 25.324405 
L 327.621063 25.146095 
L 330.035146 25.200733 
L 338.484436 25.298901 
L 340.898519 25.251614 
L 342.10556 25.212871 
L 343.312602 25.029389 
L 344.519643 25.00061 
L 346.933726 25.130272 
L 348.140767 24.951763 
L 354.175974 24.952516 
L 360.211182 24.956278 
L 366.246389 24.836975 
L 368.660471 24.547667 
L 372.281596 24.570805 
L 374.695678 24.611005 
L 377.109761 24.707934 
L 381.937927 24.475667 
L 387.973134 24.82161 
L 389.180175 24.699683 
L 390.387217 24.842187 
L 392.8013 24.820452 
L 396.422424 24.884686 
L 403.664672 25.041629 
L 404.871714 24.903632 
L 407.285797 24.895631 
L 409.699879 24.825576 
L 410.906921 24.892288 
L 412.113962 24.776798 
L 414.528045 24.707256 
L 419.356211 24.662667 
L 420.563252 24.582517 
L 421.770294 24.647899 
L 422.977335 24.452168 
L 426.598459 24.521109 
L 430.219583 24.433467 
L 432.633666 24.424838 
L 433.840708 24.399962 
L 437.461832 24.072933 
L 442.289998 24.080708 
L 455.567453 24.052258 
L 460.395619 23.791438 
L 462.809702 23.722177 
L 467.637867 23.75246 
L 471.258992 23.80142 
L 473.673074 23.700615 
L 480.915323 23.632075 
L 482.122364 22.55199 
L 483.329406 22.649893 
L 501.435027 22.492275 
L 512.2984 22.73975 
L 515.919524 22.716923 
L 515.919524 22.716923 
" clip-path="url(#p6630c94133)" style="fill: none; stroke: #4169e1; stroke-width: 1.5; stroke-linecap: square"/>
   </g>
   <g id="line2d_26">
    <path d="M 34.31 98.44 
L 35.517041 93.137535 
L 36.724083 90.054919 
L 37.931124 62.86331 
L 39.138166 65.505872 
L 40.345207 58.215242 
L 41.552248 63.635266 
L 42.75929 67.218754 
L 43.966331 63.708866 
L 45.173373 54.096339 
L 46.380414 45.647067 
L 47.587456 49.688968 
L 48.794497 52.993122 
L 50.001538 47.63071 
L 52.415621 52.227191 
L 53.622663 53.710737 
L 56.036745 57.943077 
L 57.243787 59.0819 
L 58.450828 60.456611 
L 59.65787 60.839951 
L 60.864911 54.094212 
L 62.071953 55.41848 
L 64.486035 58.69756 
L 65.693077 58.44385 
L 66.900118 58.93913 
L 68.10716 60.212199 
L 69.314201 61.129823 
L 70.521242 60.424701 
L 71.728284 58.668087 
L 72.935325 58.503553 
L 74.142367 59.082306 
L 76.556449 60.383045 
L 77.763491 60.709268 
L 78.970532 60.250347 
L 80.177574 60.165057 
L 82.591657 61.187832 
L 86.212781 63.72003 
L 87.419822 63.774567 
L 88.626864 64.137654 
L 89.833905 63.782585 
L 91.040946 63.789849 
L 92.247988 63.631988 
L 93.455029 63.700836 
L 94.662071 61.249859 
L 95.869112 61.655759 
L 99.490236 63.465617 
L 100.697278 63.920157 
L 101.904319 63.837705 
L 104.318402 64.86601 
L 105.525443 64.661815 
L 106.732485 64.890211 
L 107.939526 65.269837 
L 109.146568 65.357154 
L 110.353609 64.893917 
L 111.56065 63.541487 
L 112.767692 63.70499 
L 113.974733 64.07492 
L 115.181775 64.045105 
L 116.388816 64.542162 
L 117.595858 64.106926 
L 120.00994 65.022707 
L 121.216982 65.338565 
L 123.631065 66.183816 
L 124.838106 65.327201 
L 126.045147 65.732517 
L 127.252189 65.746163 
L 128.45923 65.961905 
L 129.666272 66.363072 
L 130.873313 66.39479 
L 132.080354 66.267754 
L 133.287396 66.539848 
L 134.494437 66.489585 
L 135.701479 66.058857 
L 136.90852 66.434923 
L 138.115562 66.598407 
L 139.322603 66.088776 
L 142.943727 66.814759 
L 144.150769 66.869184 
L 145.35781 65.786779 
L 146.564851 66.052626 
L 147.771893 65.628254 
L 155.014141 67.47276 
L 156.221183 66.821175 
L 159.842307 67.431674 
L 161.049348 65.1112 
L 162.25639 64.35927 
L 164.670473 64.731605 
L 165.877514 64.99262 
L 167.084555 64.319606 
L 168.291597 64.479138 
L 169.498638 63.186864 
L 170.70568 63.046453 
L 173.119763 63.6022 
L 174.326804 63.295112 
L 175.533845 63.517783 
L 176.740887 63.564512 
L 179.15497 64.093094 
L 180.362011 64.101259 
L 182.776094 64.423402 
L 183.983135 64.149775 
L 186.397218 64.573533 
L 187.604259 64.815637 
L 188.811301 64.774959 
L 190.018342 65.033703 
L 191.225384 64.638237 
L 192.432425 64.577256 
L 194.846508 65.025358 
L 196.053549 65.143147 
L 197.260591 64.514617 
L 198.467632 64.760413 
L 199.674674 64.630766 
L 202.088756 65.087473 
L 203.295798 64.366767 
L 204.502839 64.407847 
L 208.123963 64.020009 
L 209.331005 64.255585 
L 211.745088 64.160251 
L 214.159171 64.123719 
L 218.987336 64.969845 
L 220.194378 64.60303 
L 225.022543 65.254973 
L 226.229585 65.435863 
L 227.436626 65.039808 
L 228.643668 65.22997 
L 229.850709 65.043287 
L 231.05775 65.093774 
L 232.264792 64.994568 
L 235.885916 65.541095 
L 237.092957 65.734032 
L 238.299999 65.752791 
L 240.714082 66.04735 
L 241.921123 65.626295 
L 243.128164 65.541988 
L 246.749289 65.814835 
L 249.163372 66.073161 
L 250.370413 65.291219 
L 251.577454 65.473951 
L 252.784496 65.525078 
L 253.991537 65.700211 
L 256.40562 65.923959 
L 257.612661 66.098492 
L 258.819703 65.667781 
L 262.440827 66.056203 
L 263.647868 66.001598 
L 264.85491 65.7486 
L 266.061951 65.787816 
L 270.890117 66.367709 
L 272.097158 65.768333 
L 273.3042 65.855668 
L 274.511241 65.541619 
L 278.132365 66.009376 
L 280.546448 66.197318 
L 281.75349 65.723897 
L 287.788697 66.371044 
L 288.995738 65.301604 
L 290.20278 65.269895 
L 292.616862 65.537628 
L 293.823904 65.316833 
L 295.030945 65.389457 
L 296.237987 64.814889 
L 297.445028 64.952685 
L 298.652069 64.901502 
L 299.859111 64.996799 
L 301.066152 63.864674 
L 303.480235 64.048072 
L 304.687277 64.117051 
L 305.894318 63.675086 
L 307.101359 63.629559 
L 309.515442 63.884697 
L 310.722484 63.812161 
L 311.929525 63.877159 
L 313.136566 63.766657 
L 314.343608 63.912027 
L 315.550649 63.658037 
L 316.757691 63.711871 
L 317.964732 63.627988 
L 325.206981 64.329688 
L 326.414022 64.465638 
L 327.621063 63.849676 
L 328.828105 63.975503 
L 330.035146 63.962278 
L 332.449229 64.225573 
L 334.863312 64.238304 
L 337.277395 64.431619 
L 338.484436 64.554851 
L 339.691478 64.559687 
L 342.10556 64.771732 
L 343.312602 64.06031 
L 344.519643 64.172758 
L 345.726685 63.941917 
L 346.933726 64.072238 
L 348.140767 63.394074 
L 349.347809 63.521942 
L 350.55485 63.432701 
L 352.968933 63.620928 
L 359.00414 63.633947 
L 360.211182 63.471916 
L 362.625264 63.71958 
L 363.832306 63.672235 
L 366.246389 63.876516 
L 368.660471 62.995662 
L 377.109761 63.619799 
L 379.523844 63.585595 
L 380.730886 63.299335 
L 383.144968 63.399165 
L 386.766093 63.411716 
L 387.973134 63.2764 
L 389.180175 62.96838 
L 390.387217 62.502642 
L 397.629465 63.015629 
L 398.836507 62.7848 
L 403.664672 63.178485 
L 404.871714 62.72152 
L 407.285797 62.918965 
L 408.492838 62.890888 
L 409.699879 63.004756 
L 410.906921 62.982242 
L 412.113962 62.687094 
L 413.321004 62.792876 
L 414.528045 62.68112 
L 416.942128 62.859973 
L 418.149169 62.428433 
L 419.356211 62.478887 
L 421.770294 62.367806 
L 422.977335 61.273679 
L 433.840708 61.745361 
L 435.047749 61.184399 
L 436.254791 61.228721 
L 437.461832 60.720088 
L 445.911122 61.323922 
L 447.118163 60.562302 
L 449.532246 60.678345 
L 450.739288 60.599894 
L 455.567453 60.950396 
L 456.774495 60.881178 
L 457.981536 60.987514 
L 459.188577 60.533966 
L 460.395619 60.496078 
L 461.60266 60.594113 
L 462.809702 60.448224 
L 466.430826 60.745647 
L 468.844909 60.76516 
L 471.258992 60.91008 
L 472.466033 60.810738 
L 480.915323 61.308863 
L 482.122364 19.103438 
L 483.329406 18.967607 
L 485.743488 19.325108 
L 486.95053 18.811691 
L 494.192778 19.840547 
L 506.263193 21.327936 
L 509.884317 21.852301 
L 515.919524 22.716923 
L 515.919524 22.716923 
" clip-path="url(#p6630c94133)" style="fill: none; stroke-dasharray: 5.55,2.4; stroke-dashoffset: 0; stroke: #4169e1; stroke-width: 1.5"/>
   </g>
   <g id="line2d_27">
    <path d="M 34.31 27.010155 
L 35.517041 21.964986 
L 36.724083 17.863549 
L 37.931124 11.197297 
L 39.138166 14.361502 
L 40.345207 12.12411 
L 41.552248 11.960186 
L 42.75929 11.01407 
L 43.966331 13.33671 
L 45.173373 16.307298 
L 46.380414 18.753157 
L 47.587456 18.703601 
L 48.794497 19.448829 
L 50.001538 21.334738 
L 51.20858 22.475366 
L 52.415621 22.189392 
L 53.622663 21.614212 
L 54.829704 21.945942 
L 56.036745 22.016753 
L 57.243787 21.385985 
L 58.450828 21.77329 
L 59.65787 22.492508 
L 60.864911 21.161687 
L 63.278994 21.611087 
L 64.486035 21.327083 
L 65.693077 22.188012 
L 66.900118 22.438365 
L 68.10716 22.242356 
L 69.314201 22.372889 
L 70.521242 23.014921 
L 71.728284 23.820952 
L 72.935325 24.288718 
L 74.142367 24.41492 
L 76.556449 23.925166 
L 77.763491 24.32961 
L 80.177574 25.447065 
L 81.384615 25.806386 
L 85.005739 26.24903 
L 86.212781 26.153727 
L 87.419822 26.422636 
L 89.833905 25.669487 
L 91.040946 25.7722 
L 92.247988 26.126116 
L 93.455029 26.337984 
L 94.662071 25.64331 
L 97.076153 25.476928 
L 98.283195 25.427193 
L 99.490236 25.614067 
L 100.697278 25.667263 
L 101.904319 25.465652 
L 104.318402 25.480785 
L 105.525443 25.145058 
L 106.732485 25.354357 
L 109.146568 24.949469 
L 110.353609 25.389478 
L 116.388816 24.696886 
L 117.595858 25.026265 
L 123.631065 25.02858 
L 124.838106 24.59946 
L 127.252189 24.350794 
L 128.45923 24.494043 
L 130.873313 24.625538 
L 132.080354 24.884014 
L 134.494437 25.222485 
L 135.701479 24.932597 
L 136.90852 24.892655 
L 138.115562 25.051626 
L 140.529644 24.628188 
L 142.943727 24.586506 
L 145.35781 24.231288 
L 146.564851 24.223894 
L 147.771893 24.024372 
L 153.8071 23.988676 
L 155.014141 23.988636 
L 156.221183 23.836515 
L 157.428224 23.908027 
L 159.842307 23.732856 
L 161.049348 23.320301 
L 162.25639 23.536678 
L 164.670473 23.666164 
L 165.877514 23.597218 
L 168.291597 23.241087 
L 169.498638 23.561656 
L 173.119763 23.420789 
L 174.326804 23.586878 
L 175.533845 23.583207 
L 176.740887 23.757866 
L 179.15497 23.814091 
L 180.362011 23.711066 
L 182.776094 23.865182 
L 185.190177 23.604641 
L 188.811301 23.477095 
L 190.018342 23.439223 
L 192.432425 23.702699 
L 196.053549 23.765136 
L 197.260591 23.950104 
L 198.467632 23.94739 
L 199.674674 24.085388 
L 204.502839 23.834041 
L 205.709881 23.685629 
L 210.538046 24.070013 
L 215.366212 24.337389 
L 222.60846 24.246323 
L 225.022543 24.091839 
L 226.229585 24.096613 
L 227.436626 24.260838 
L 235.885916 24.549142 
L 249.163372 24.206141 
L 250.370413 24.40858 
L 252.784496 24.412649 
L 257.612661 24.399536 
L 260.026744 24.554976 
L 262.440827 24.493113 
L 268.476034 24.721013 
L 275.718283 24.453779 
L 288.995738 24.335816 
L 290.20278 24.454005 
L 296.237987 24.293219 
L 298.652069 24.400032 
L 299.859111 24.436892 
L 301.066152 24.236703 
L 304.687277 24.315512 
L 307.101359 24.091 
L 309.515442 24.044157 
L 310.722484 23.954548 
L 311.929525 23.989032 
L 314.343608 23.89953 
L 317.964732 24.160364 
L 321.585856 24.132722 
L 331.242188 24.036329 
L 342.10556 24.218361 
L 343.312602 24.071872 
L 344.519643 24.049159 
L 346.933726 24.182404 
L 348.140767 24.058214 
L 366.246389 24.014508 
L 368.660471 23.821784 
L 372.281596 23.869579 
L 375.90272 23.90126 
L 377.109761 23.958874 
L 381.937927 23.771795 
L 387.973134 24.083706 
L 389.180175 24.035119 
L 390.387217 24.160262 
L 395.215383 24.137177 
L 401.25059 24.22797 
L 409.699879 24.093362 
L 410.906921 24.147781 
L 414.528045 24.020068 
L 419.356211 23.981813 
L 424.184376 23.820594 
L 433.840708 23.753505 
L 437.461832 23.4757 
L 445.911122 23.516438 
L 447.118163 23.412051 
L 453.15337 23.459283 
L 457.981536 23.425063 
L 460.395619 23.254431 
L 461.60266 23.282195 
L 464.016743 23.17704 
L 467.637867 23.174672 
L 471.258992 23.203865 
L 473.673074 23.109876 
L 479.708281 23.121396 
L 480.915323 23.089595 
L 482.122364 22.552392 
L 484.536447 22.597042 
L 485.743488 22.608965 
L 486.95053 22.508547 
L 489.364613 22.527944 
L 494.192778 22.495448 
L 501.435027 22.480524 
L 512.2984 22.704252 
L 515.919524 22.716923 
L 515.919524 22.716923 
" clip-path="url(#p6630c94133)" style="fill: none; stroke: #ff8c00; stroke-width: 1.5; stroke-linecap: square"/>
   </g>
   <g id="line2d_28">
    <path d="M 34.31 98.44 
L 36.724083 86.453795 
L 37.931124 57.878014 
L 39.138166 56.50598 
L 40.345207 57.567422 
L 41.552248 63.368179 
L 42.75929 66.268243 
L 43.966331 59.622296 
L 45.173373 44.695775 
L 46.380414 35.41439 
L 47.587456 40.660127 
L 48.794497 43.526461 
L 50.001538 36.49904 
L 51.20858 36.314858 
L 52.415621 39.907165 
L 53.622663 42.096702 
L 56.036745 47.586483 
L 57.243787 48.338907 
L 58.450828 50.014184 
L 59.65787 49.642814 
L 60.864911 42.536925 
L 63.278994 46.456631 
L 64.486035 47.978448 
L 65.693077 45.283549 
L 69.314201 49.861856 
L 70.521242 48.500317 
L 71.728284 45.291272 
L 72.935325 45.243668 
L 74.142367 46.683795 
L 75.349408 47.756268 
L 76.556449 48.581508 
L 77.763491 48.534461 
L 78.970532 46.489557 
L 80.177574 45.586347 
L 81.384615 45.715209 
L 82.591657 46.750991 
L 83.798698 47.277686 
L 86.212781 49.509607 
L 87.419822 49.843444 
L 89.833905 48.887431 
L 91.040946 49.802349 
L 92.247988 49.371104 
L 93.455029 49.831588 
L 94.662071 45.070516 
L 95.869112 45.882072 
L 98.283195 47.784429 
L 99.490236 48.258844 
L 100.697278 49.118078 
L 101.904319 49.444316 
L 104.318402 51.039239 
L 105.525443 50.25437 
L 106.732485 50.421841 
L 107.939526 50.459278 
L 109.146568 50.750361 
L 110.353609 48.606916 
L 111.56065 49.068161 
L 112.767692 49.055194 
L 113.974733 49.781698 
L 115.181775 49.62887 
L 116.388816 50.261092 
L 117.595858 49.176554 
L 122.424023 51.836602 
L 123.631065 52.454176 
L 124.838106 49.788547 
L 126.045147 50.222849 
L 128.45923 50.691643 
L 129.666272 51.274566 
L 130.873313 51.651126 
L 132.080354 50.940136 
L 133.287396 51.128178 
L 134.494437 50.922319 
L 135.701479 49.809635 
L 136.90852 50.34299 
L 138.115562 50.381124 
L 139.322603 49.502982 
L 140.529644 49.515864 
L 142.943727 50.566332 
L 145.35781 50.235939 
L 146.564851 50.747544 
L 147.771893 50.36337 
L 150.185976 51.330011 
L 155.014141 52.74982 
L 156.221183 52.644257 
L 158.635266 53.20189 
L 159.842307 53.457028 
L 161.049348 49.649112 
L 162.25639 48.92979 
L 163.463431 49.139 
L 165.877514 49.889383 
L 167.084555 48.92352 
L 168.291597 48.961191 
L 169.498638 46.67332 
L 170.70568 47.051468 
L 171.912721 47.248496 
L 173.119763 47.687787 
L 174.326804 47.363756 
L 175.533845 47.796232 
L 176.740887 47.369325 
L 179.15497 48.120951 
L 180.362011 48.229249 
L 182.776094 48.695818 
L 183.983135 48.283348 
L 185.190177 48.417527 
L 187.604259 49.18764 
L 188.811301 49.052831 
L 190.018342 49.388916 
L 191.225384 49.005386 
L 192.432425 49.027555 
L 196.053549 50.083434 
L 197.260591 49.345176 
L 198.467632 49.703296 
L 199.674674 49.438597 
L 202.088756 49.965261 
L 203.295798 49.806126 
L 204.502839 50.126905 
L 205.709881 49.72404 
L 206.916922 49.588653 
L 208.123963 49.186573 
L 209.331005 49.51726 
L 210.538046 49.469025 
L 211.745088 49.578047 
L 214.159171 49.489629 
L 217.780295 50.425892 
L 218.987336 50.542031 
L 220.194378 50.119533 
L 222.60846 50.685114 
L 223.815502 50.516708 
L 226.229585 51.049378 
L 227.436626 50.321792 
L 228.643668 50.524922 
L 229.850709 50.021562 
L 237.092957 51.40626 
L 240.714082 52.01412 
L 241.921123 51.694985 
L 243.128164 51.770907 
L 245.542247 52.207397 
L 249.163372 52.816101 
L 250.370413 51.3323 
L 253.991537 51.914145 
L 257.612661 52.662665 
L 258.819703 52.156754 
L 260.026744 52.375502 
L 261.233786 52.354005 
L 262.440827 52.586059 
L 263.647868 52.637602 
L 264.85491 52.089744 
L 266.061951 52.12089 
L 268.476034 52.535204 
L 270.890117 52.8088 
L 272.097158 52.248863 
L 273.3042 52.401721 
L 274.511241 52.042438 
L 280.546448 53.026885 
L 281.75349 52.642745 
L 287.788697 53.524049 
L 288.995738 52.837028 
L 290.20278 52.349816 
L 292.616862 52.639585 
L 293.823904 52.277169 
L 295.030945 52.398741 
L 296.237987 52.269516 
L 297.445028 52.476203 
L 298.652069 52.188442 
L 299.859111 52.326937 
L 301.066152 50.437183 
L 304.687277 50.954748 
L 305.894318 49.806045 
L 307.101359 49.795394 
L 309.515442 50.126927 
L 310.722484 49.901511 
L 311.929525 50.046863 
L 313.136566 49.727559 
L 314.343608 49.932438 
L 315.550649 49.313248 
L 316.757691 49.317472 
L 317.964732 49.19003 
L 321.585856 49.616826 
L 326.414022 50.374801 
L 327.621063 49.643523 
L 328.828105 49.826794 
L 330.035146 49.789371 
L 333.65627 50.332445 
L 336.070353 50.370938 
L 339.691478 50.891852 
L 342.10556 51.082498 
L 343.312602 49.965789 
L 344.519643 50.122276 
L 345.726685 49.699181 
L 346.933726 49.818404 
L 348.140767 49.055028 
L 349.347809 49.243492 
L 350.55485 49.171885 
L 352.968933 49.513268 
L 354.175974 49.235668 
L 355.383016 49.41924 
L 357.797099 49.297837 
L 359.00414 49.476116 
L 360.211182 49.293285 
L 365.039347 49.78849 
L 366.246389 49.964747 
L 367.45343 49.368777 
L 368.660471 49.08111 
L 371.074554 49.344628 
L 375.90272 49.893515 
L 377.109761 49.840601 
L 378.316803 49.641731 
L 379.523844 49.767377 
L 380.730886 49.233656 
L 381.937927 49.390321 
L 383.144968 49.236046 
L 385.559051 49.245125 
L 389.180175 48.847844 
L 390.387217 47.921284 
L 397.629465 48.568689 
L 398.836507 48.274917 
L 400.043548 48.317301 
L 403.664672 48.711838 
L 404.871714 48.268275 
L 406.078755 48.285813 
L 409.699879 48.615529 
L 410.906921 48.555902 
L 412.113962 48.271754 
L 413.321004 48.359624 
L 414.528045 48.023936 
L 416.942128 48.324674 
L 418.149169 47.917837 
L 419.356211 48.011717 
L 420.563252 47.934725 
L 421.770294 48.028363 
L 422.977335 46.336476 
L 427.805501 46.892337 
L 429.012542 46.741278 
L 433.840708 46.951943 
L 435.047749 45.883278 
L 436.254791 45.906934 
L 437.461832 45.073381 
L 443.497039 45.747038 
L 444.70408 45.43767 
L 445.911122 45.577313 
L 447.118163 44.848878 
L 449.532246 45.07865 
L 450.739288 45.013656 
L 451.946329 45.16715 
L 453.15337 45.151169 
L 457.981536 45.671445 
L 459.188577 44.713628 
L 460.395619 44.609019 
L 461.60266 44.696034 
L 462.809702 44.216773 
L 466.430826 44.530006 
L 468.844909 44.575853 
L 471.258992 44.730006 
L 472.466033 44.332079 
L 476.087157 44.71696 
L 477.294199 44.740771 
L 479.708281 44.987619 
L 480.915323 45.043083 
L 482.122364 19.831079 
L 483.329406 19.693599 
L 485.743488 20.071739 
L 486.95053 19.384636 
L 489.364613 19.64166 
L 492.985737 20.023612 
L 499.020944 20.928799 
L 500.227985 21.120772 
L 502.642068 21.194139 
L 508.677275 21.708388 
L 515.919524 22.716923 
L 515.919524 22.716923 
" clip-path="url(#p6630c94133)" style="fill: none; stroke-dasharray: 5.55,2.4; stroke-dashoffset: 0; stroke: #ff8c00; stroke-width: 1.5"/>
   </g>
   <g id="patch_3">
    <path d="M 34.31 98.44 
L 34.31 0 
" style="fill: none; stroke: #000000; stroke-width: 0.8; stroke-linejoin: miter; stroke-linecap: square"/>
   </g>
   <g id="patch_4">
    <path d="M 540 98.44 
L 540 0 
" style="fill: none; stroke: #000000; stroke-width: 0.8; stroke-linejoin: miter; stroke-linecap: square"/>
   </g>
   <g id="patch_5">
    <path d="M 34.31 98.44 
L 540 98.44 
" style="fill: none; stroke: #000000; stroke-width: 0.8; stroke-linejoin: miter; stroke-linecap: square"/>
   </g>
   <g id="patch_6">
    <path d="M 34.31 0 
L 540 0 
" style="fill: none; stroke: #000000; stroke-width: 0.8; stroke-linejoin: miter; stroke-linecap: square"/>
   </g>
  </g>
 </g>
 <defs>
  <clipPath id="p6630c94133">
   <rect x="34.31" y="0" width="505.69" height="98.44"/>
  </clipPath>
 </defs>
</svg>
