<?xml version="1.0" encoding="utf-8" standalone="no"?>
<!DOCTYPE svg PUBLIC "-//W3C//DTD SVG 1.1//EN"
  "http://www.w3.org/Graphics/SVG/1.1/DTD/svg11.dtd">
<svg xmlns:xlink="http://www.w3.org/1999/xlink" width="540pt" height="216pt" viewBox="0 0 540 216" xmlns="http://www.w3.org/2000/svg" version="1.1">
 <metadata>
  <rdf:RDF xmlns:dc="http://purl.org/dc/elements/1.1/" xmlns:cc="http://creativecommons.org/ns#" xmlns:rdf="http://www.w3.org/1999/02/22-rdf-syntax-ns#">
   <cc:Work>
    <dc:type rdf:resource="http://purl.org/dc/dcmitype/StillImage"/>
    <dc:date>2025-03-30T20:13:26.470516</dc:date>
    <dc:format>image/svg+xml</dc:format>
    <dc:creator>
     <cc:Agent>
      <dc:title>Matplotlib v3.8.3, https://matplotlib.org/</dc:title>
     </cc:Agent>
    </dc:creator>
   </cc:Work>
  </rdf:RDF>
 </metadata>
 <defs>
  <style type="text/css">*{stroke-linejoin: round; stroke-linecap: butt}</style>
 </defs>
 <g id="figure_1">
  <g id="patch_1">
   <path d="M 0 216 
L 540 216 
L 540 0 
L 0 0 
z
" style="fill: #ffffff"/>
  </g>
  <g id="axes_1">
   <g id="patch_2">
    <path d="M 39.35 183.4 
L 225.886 183.4 
L 225.886 10.08 
L 39.35 10.08 
z
" style="fill: #ffffff"/>
   </g>
   <g id="patch_3">
    <path d="M 39.35 183.4 
L 48.6768 183.4 
L 48.6768 181.6668 
L 39.35 181.6668 
z
" clip-path="url(#pad38704a53)" style="fill: #d3d3d3; stroke: #000000; stroke-linejoin: miter"/>
   </g>
   <g id="patch_4">
    <path d="M 48.6768 183.4 
L 58.0036 183.4 
L 58.0036 173.0008 
L 48.6768 173.0008 
z
" clip-path="url(#pad38704a53)" style="fill: #d3d3d3; stroke: #000000; stroke-linejoin: miter"/>
   </g>
   <g id="patch_5">
    <path d="M 58.0036 183.4 
L 67.3304 183.4 
L 67.3304 162.6016 
L 58.0036 162.6016 
z
" clip-path="url(#pad38704a53)" style="fill: #d3d3d3; stroke: #000000; stroke-linejoin: miter"/>
   </g>
   <g id="patch_6">
    <path d="M 67.3304 183.4 
L 76.6572 183.4 
L 76.6572 115.8052 
L 67.3304 115.8052 
z
" clip-path="url(#pad38704a53)" style="fill: #d3d3d3; stroke: #000000; stroke-linejoin: miter"/>
   </g>
   <g id="patch_7">
    <path d="M 76.6572 183.4 
L 85.984 183.4 
L 85.984 100.2064 
L 76.6572 100.2064 
z
" clip-path="url(#pad38704a53)" style="fill: #d3d3d3; stroke: #000000; stroke-linejoin: miter"/>
   </g>
   <g id="patch_8">
    <path d="M 85.984 183.4 
L 95.3108 183.4 
L 95.3108 100.2064 
L 85.984 100.2064 
z
" clip-path="url(#pad38704a53)" style="fill: #d3d3d3; stroke: #000000; stroke-linejoin: miter"/>
   </g>
   <g id="patch_9">
    <path d="M 95.3108 183.4 
L 104.6376 183.4 
L 104.6376 114.072 
L 95.3108 114.072 
z
" clip-path="url(#pad38704a53)" style="fill: #d3d3d3; stroke: #000000; stroke-linejoin: miter"/>
   </g>
   <g id="patch_10">
    <path d="M 104.6376 183.4 
L 113.9644 183.4 
L 113.9644 100.2064 
L 104.6376 100.2064 
z
" clip-path="url(#pad38704a53)" style="fill: #d3d3d3; stroke: #000000; stroke-linejoin: miter"/>
   </g>
   <g id="patch_11">
    <path d="M 113.9644 183.4 
L 123.2912 183.4 
L 123.2912 134.8704 
L 113.9644 134.8704 
z
" clip-path="url(#pad38704a53)" style="fill: #d3d3d3; stroke: #000000; stroke-linejoin: miter"/>
   </g>
   <g id="patch_12">
    <path d="M 123.2912 183.4 
L 132.618 183.4 
L 132.618 121.0048 
L 123.2912 121.0048 
z
" clip-path="url(#pad38704a53)" style="fill: #d3d3d3; stroke: #000000; stroke-linejoin: miter"/>
   </g>
   <g id="patch_13">
    <path d="M 132.618 183.4 
L 141.9448 183.4 
L 141.9448 147.0028 
L 132.618 147.0028 
z
" clip-path="url(#pad38704a53)" style="fill: #d3d3d3; stroke: #000000; stroke-linejoin: miter"/>
   </g>
   <g id="patch_14">
    <path d="M 141.9448 183.4 
L 151.2716 183.4 
L 151.2716 147.0028 
L 141.9448 147.0028 
z
" clip-path="url(#pad38704a53)" style="fill: #d3d3d3; stroke: #000000; stroke-linejoin: miter"/>
   </g>
   <g id="patch_15">
    <path d="M 151.2716 183.4 
L 160.5984 183.4 
L 160.5984 155.6688 
L 151.2716 155.6688 
z
" clip-path="url(#pad38704a53)" style="fill: #d3d3d3; stroke: #000000; stroke-linejoin: miter"/>
   </g>
   <g id="patch_16">
    <path d="M 160.5984 183.4 
L 169.9252 183.4 
L 169.9252 155.6688 
L 160.5984 155.6688 
z
" clip-path="url(#pad38704a53)" style="fill: #d3d3d3; stroke: #000000; stroke-linejoin: miter"/>
   </g>
   <g id="patch_17">
    <path d="M 169.9252 183.4 
L 179.252 183.4 
L 179.252 169.5344 
L 169.9252 169.5344 
z
" clip-path="url(#pad38704a53)" style="fill: #d3d3d3; stroke: #000000; stroke-linejoin: miter"/>
   </g>
   <g id="patch_18">
    <path d="M 179.252 183.4 
L 188.5788 183.4 
L 188.5788 178.2004 
L 179.252 178.2004 
z
" clip-path="url(#pad38704a53)" style="fill: #d3d3d3; stroke: #000000; stroke-linejoin: miter"/>
   </g>
   <g id="patch_19">
    <path d="M 188.5788 183.4 
L 197.9056 183.4 
L 197.9056 179.9336 
L 188.5788 179.9336 
z
" clip-path="url(#pad38704a53)" style="fill: #d3d3d3; stroke: #000000; stroke-linejoin: miter"/>
   </g>
   <g id="patch_20">
    <path d="M 197.9056 183.4 
L 207.2324 183.4 
L 207.2324 178.2004 
L 197.9056 178.2004 
z
" clip-path="url(#pad38704a53)" style="fill: #d3d3d3; stroke: #000000; stroke-linejoin: miter"/>
   </g>
   <g id="patch_21">
    <path d="M 207.2324 183.4 
L 216.5592 183.4 
L 216.5592 179.9336 
L 207.2324 179.9336 
z
" clip-path="url(#pad38704a53)" style="fill: #d3d3d3; stroke: #000000; stroke-linejoin: miter"/>
   </g>
   <g id="patch_22">
    <path d="M 216.5592 183.4 
L 225.886 183.4 
L 225.886 179.9336 
L 216.5592 179.9336 
z
" clip-path="url(#pad38704a53)" style="fill: #d3d3d3; stroke: #000000; stroke-linejoin: miter"/>
   </g>
   <g id="matplotlib.axis_1">
    <g id="xtick_1">
     <g id="line2d_1">
      <defs>
       <path id="mef7b87fa6f" d="M 0 0 
L 0 3.5 
" style="stroke: #000000; stroke-width: 0.8"/>
      </defs>
      <g>
       <use xlink:href="#mef7b87fa6f" x="39.35" y="183.4" style="stroke: #000000; stroke-width: 0.8"/>
      </g>
     </g>
     <g id="text_1">
      <text style="font: 10px 'Times New Roman'; text-anchor: middle" x="39.35" y="197.34375" transform="rotate(-0 39.35 197.34375)">38</text>
     </g>
    </g>
    <g id="xtick_2">
     <g id="line2d_2">
      <g>
       <use xlink:href="#mef7b87fa6f" x="85.984" y="183.4" style="stroke: #000000; stroke-width: 0.8"/>
      </g>
     </g>
     <g id="text_2">
      <text style="font: 10px 'Times New Roman'; text-anchor: middle" x="85.984" y="197.34375" transform="rotate(-0 85.984 197.34375)">74</text>
     </g>
    </g>
    <g id="xtick_3">
     <g id="line2d_3">
      <g>
       <use xlink:href="#mef7b87fa6f" x="132.618" y="183.4" style="stroke: #000000; stroke-width: 0.8"/>
      </g>
     </g>
     <g id="text_3">
      <text style="font: 10px 'Times New Roman'; text-anchor: middle" x="132.618" y="197.34375" transform="rotate(-0 132.618 197.34375)">110</text>
     </g>
    </g>
    <g id="xtick_4">
     <g id="line2d_4">
      <g>
       <use xlink:href="#mef7b87fa6f" x="179.252" y="183.4" style="stroke: #000000; stroke-width: 0.8"/>
      </g>
     </g>
     <g id="text_4">
      <text style="font: 10px 'Times New Roman'; text-anchor: middle" x="179.252" y="197.34375" transform="rotate(-0 179.252 197.34375)">146</text>
     </g>
    </g>
    <g id="xtick_5">
     <g id="line2d_5">
      <g>
       <use xlink:href="#mef7b87fa6f" x="225.886" y="183.4" style="stroke: #000000; stroke-width: 0.8"/>
      </g>
     </g>
     <g id="text_5">
      <text style="font: 10px 'Times New Roman'; text-anchor: middle" x="225.886" y="197.34375" transform="rotate(-0 225.886 197.34375)">182</text>
     </g>
    </g>
    <g id="text_6">
     <text style="font: 12px 'Times New Roman'; text-anchor: middle" x="132.618" y="211.815313" transform="rotate(-0 132.618 211.815313)">Lead Time (weeks)</text>
    </g>
   </g>
   <g id="matplotlib.axis_2">
    <g id="ytick_1">
     <g id="line2d_6">
      <path d="M 39.35 183.4 
L 225.886 183.4 
" clip-path="url(#pad38704a53)" style="fill: none; stroke: #000000; stroke-linecap: square"/>
     </g>
     <g id="line2d_7">
      <defs>
       <path id="macbbf44f60" d="M 0 0 
L -3.5 0 
" style="stroke: #000000; stroke-width: 0.8"/>
      </defs>
      <g>
       <use xlink:href="#macbbf44f60" x="39.35" y="183.4" style="stroke: #000000; stroke-width: 0.8"/>
      </g>
     </g>
     <g id="text_7">
      <text style="font: 10px 'Times New Roman'; text-anchor: end" x="32.35" y="186.871875" transform="rotate(-0 32.35 186.871875)">0.00</text>
     </g>
    </g>
    <g id="ytick_2">
     <g id="line2d_8">
      <path d="M 39.35 148.736 
L 225.886 148.736 
" clip-path="url(#pad38704a53)" style="fill: none; stroke: #000000; stroke-linecap: square"/>
     </g>
     <g id="line2d_9">
      <g>
       <use xlink:href="#macbbf44f60" x="39.35" y="148.736" style="stroke: #000000; stroke-width: 0.8"/>
      </g>
     </g>
     <g id="text_8">
      <text style="font: 10px 'Times New Roman'; text-anchor: end" x="32.35" y="152.207875" transform="rotate(-0 32.35 152.207875)">0.05</text>
     </g>
    </g>
    <g id="ytick_3">
     <g id="line2d_10">
      <path d="M 39.35 114.072 
L 225.886 114.072 
" clip-path="url(#pad38704a53)" style="fill: none; stroke: #000000; stroke-linecap: square"/>
     </g>
     <g id="line2d_11">
      <g>
       <use xlink:href="#macbbf44f60" x="39.35" y="114.072" style="stroke: #000000; stroke-width: 0.8"/>
      </g>
     </g>
     <g id="text_9">
      <text style="font: 10px 'Times New Roman'; text-anchor: end" x="32.35" y="117.543875" transform="rotate(-0 32.35 117.543875)">0.10</text>
     </g>
    </g>
    <g id="ytick_4">
     <g id="line2d_12">
      <path d="M 39.35 79.408 
L 225.886 79.408 
" clip-path="url(#pad38704a53)" style="fill: none; stroke: #000000; stroke-linecap: square"/>
     </g>
     <g id="line2d_13">
      <g>
       <use xlink:href="#macbbf44f60" x="39.35" y="79.408" style="stroke: #000000; stroke-width: 0.8"/>
      </g>
     </g>
     <g id="text_10">
      <text style="font: 10px 'Times New Roman'; text-anchor: end" x="32.35" y="82.879875" transform="rotate(-0 32.35 82.879875)">0.15</text>
     </g>
    </g>
    <g id="ytick_5">
     <g id="line2d_14">
      <path d="M 39.35 44.744 
L 225.886 44.744 
" clip-path="url(#pad38704a53)" style="fill: none; stroke: #000000; stroke-linecap: square"/>
     </g>
     <g id="line2d_15">
      <g>
       <use xlink:href="#macbbf44f60" x="39.35" y="44.744" style="stroke: #000000; stroke-width: 0.8"/>
      </g>
     </g>
     <g id="text_11">
      <text style="font: 10px 'Times New Roman'; text-anchor: end" x="32.35" y="48.215875" transform="rotate(-0 32.35 48.215875)">0.20</text>
     </g>
    </g>
    <g id="ytick_6">
     <g id="line2d_16">
      <path d="M 39.35 10.08 
L 225.886 10.08 
" clip-path="url(#pad38704a53)" style="fill: none; stroke: #000000; stroke-linecap: square"/>
     </g>
     <g id="line2d_17">
      <g>
       <use xlink:href="#macbbf44f60" x="39.35" y="10.08" style="stroke: #000000; stroke-width: 0.8"/>
      </g>
     </g>
     <g id="text_12">
      <text style="font: 10px 'Times New Roman'; text-anchor: end" x="32.35" y="13.551875" transform="rotate(-0 32.35 13.551875)">0.25</text>
     </g>
    </g>
    <g id="text_13">
     <text style="font: 700 12px 'Times New Roman'; text-anchor: middle" x="8.260625" y="96.74" transform="rotate(-90 8.260625 96.74)">Relative Probability</text>
    </g>
   </g>
   <g id="line2d_18">
    <path d="M 144.980557 183.4 
L 144.980557 10.08 
" clip-path="url(#pad38704a53)" style="fill: none; stroke-dasharray: 7.4,3.2; stroke-dashoffset: 0; stroke: #ff0000; stroke-width: 2"/>
   </g>
   <g id="patch_23">
    <path d="M 39.35 183.4 
L 39.35 10.08 
" style="fill: none; stroke: #000000; stroke-width: 0.8; stroke-linejoin: miter; stroke-linecap: square"/>
   </g>
   <g id="patch_24">
    <path d="M 225.886 183.4 
L 225.886 10.08 
" style="fill: none; stroke: #000000; stroke-width: 0.8; stroke-linejoin: miter; stroke-linecap: square"/>
   </g>
   <g id="patch_25">
    <path d="M 39.35 183.4 
L 225.886 183.4 
" style="fill: none; stroke: #000000; stroke-width: 0.8; stroke-linejoin: miter; stroke-linecap: square"/>
   </g>
   <g id="patch_26">
    <path d="M 39.35 10.08 
L 225.886 10.08 
" style="fill: none; stroke: #000000; stroke-width: 0.8; stroke-linejoin: miter; stroke-linecap: square"/>
   </g>
   <g id="text_14">
    <text style="font: 10px 'Times New Roman'; text-anchor: middle" x="144.980557" y="7.922188" transform="rotate(-0 144.980557 7.922188)">Target</text>
   </g>
  </g>
  <g id="axes_2">
   <g id="patch_27">
    <path d="M 319.154 183.4 
L 505.69 183.4 
L 505.69 10.08 
L 319.154 10.08 
z
" style="fill: #ffffff"/>
   </g>
   <g id="patch_28">
    <path d="M 319.154 183.4 
L 328.4808 183.4 
L 328.4808 179.9336 
L 319.154 179.9336 
z
" clip-path="url(#pd3e9dd3576)" style="fill: #d3d3d3; stroke: #000000; stroke-linejoin: miter"/>
   </g>
   <g id="patch_29">
    <path d="M 328.4808 183.4 
L 337.8076 183.4 
L 337.8076 166.068 
L 328.4808 166.068 
z
" clip-path="url(#pd3e9dd3576)" style="fill: #d3d3d3; stroke: #000000; stroke-linejoin: miter"/>
   </g>
   <g id="patch_30">
    <path d="M 337.8076 183.4 
L 347.1344 183.4 
L 347.1344 147.0028 
L 337.8076 147.0028 
z
" clip-path="url(#pd3e9dd3576)" style="fill: #d3d3d3; stroke: #000000; stroke-linejoin: miter"/>
   </g>
   <g id="patch_31">
    <path d="M 347.1344 183.4 
L 356.4612 183.4 
L 356.4612 121.0048 
L 347.1344 121.0048 
z
" clip-path="url(#pd3e9dd3576)" style="fill: #d3d3d3; stroke: #000000; stroke-linejoin: miter"/>
   </g>
   <g id="patch_32">
    <path d="M 356.4612 183.4 
L 365.788 183.4 
L 365.788 115.8052 
L 356.4612 115.8052 
z
" clip-path="url(#pd3e9dd3576)" style="fill: #d3d3d3; stroke: #000000; stroke-linejoin: miter"/>
   </g>
   <g id="patch_33">
    <path d="M 365.788 183.4 
L 375.1148 183.4 
L 375.1148 89.8072 
L 365.788 89.8072 
z
" clip-path="url(#pd3e9dd3576)" style="fill: #d3d3d3; stroke: #000000; stroke-linejoin: miter"/>
   </g>
   <g id="patch_34">
    <path d="M 375.1148 183.4 
L 384.4416 183.4 
L 384.4416 117.5384 
L 375.1148 117.5384 
z
" clip-path="url(#pd3e9dd3576)" style="fill: #d3d3d3; stroke: #000000; stroke-linejoin: miter"/>
   </g>
   <g id="patch_35">
    <path d="M 384.4416 183.4 
L 393.7684 183.4 
L 393.7684 112.3388 
L 384.4416 112.3388 
z
" clip-path="url(#pd3e9dd3576)" style="fill: #d3d3d3; stroke: #000000; stroke-linejoin: miter"/>
   </g>
   <g id="patch_36">
    <path d="M 393.7684 183.4 
L 403.0952 183.4 
L 403.0952 134.8704 
L 393.7684 134.8704 
z
" clip-path="url(#pd3e9dd3576)" style="fill: #d3d3d3; stroke: #000000; stroke-linejoin: miter"/>
   </g>
   <g id="patch_37">
    <path d="M 403.0952 183.4 
L 412.422 183.4 
L 412.422 134.8704 
L 403.0952 134.8704 
z
" clip-path="url(#pd3e9dd3576)" style="fill: #d3d3d3; stroke: #000000; stroke-linejoin: miter"/>
   </g>
   <g id="patch_38">
    <path d="M 412.422 183.4 
L 421.7488 183.4 
L 421.7488 127.9376 
L 412.422 127.9376 
z
" clip-path="url(#pd3e9dd3576)" style="fill: #d3d3d3; stroke: #000000; stroke-linejoin: miter"/>
   </g>
   <g id="patch_39">
    <path d="M 421.7488 183.4 
L 431.0756 183.4 
L 431.0756 136.6036 
L 421.7488 136.6036 
z
" clip-path="url(#pd3e9dd3576)" style="fill: #d3d3d3; stroke: #000000; stroke-linejoin: miter"/>
   </g>
   <g id="patch_40">
    <path d="M 431.0756 183.4 
L 440.4024 183.4 
L 440.4024 159.1352 
L 431.0756 159.1352 
z
" clip-path="url(#pd3e9dd3576)" style="fill: #d3d3d3; stroke: #000000; stroke-linejoin: miter"/>
   </g>
   <g id="patch_41">
    <path d="M 440.4024 183.4 
L 449.7292 183.4 
L 449.7292 167.8012 
L 440.4024 167.8012 
z
" clip-path="url(#pd3e9dd3576)" style="fill: #d3d3d3; stroke: #000000; stroke-linejoin: miter"/>
   </g>
   <g id="patch_42">
    <path d="M 449.7292 183.4 
L 459.056 183.4 
L 459.056 167.8012 
L 449.7292 167.8012 
z
" clip-path="url(#pd3e9dd3576)" style="fill: #d3d3d3; stroke: #000000; stroke-linejoin: miter"/>
   </g>
   <g id="patch_43">
    <path d="M 459.056 183.4 
L 468.3828 183.4 
L 468.3828 176.4672 
L 459.056 176.4672 
z
" clip-path="url(#pd3e9dd3576)" style="fill: #d3d3d3; stroke: #000000; stroke-linejoin: miter"/>
   </g>
   <g id="patch_44">
    <path d="M 468.3828 183.4 
L 477.7096 183.4 
L 477.7096 176.4672 
L 468.3828 176.4672 
z
" clip-path="url(#pd3e9dd3576)" style="fill: #d3d3d3; stroke: #000000; stroke-linejoin: miter"/>
   </g>
   <g id="patch_45">
    <path d="M 477.7096 183.4 
L 487.0364 183.4 
L 487.0364 181.6668 
L 477.7096 181.6668 
z
" clip-path="url(#pd3e9dd3576)" style="fill: #d3d3d3; stroke: #000000; stroke-linejoin: miter"/>
   </g>
   <g id="patch_46">
    <path d="M 487.0364 183.4 
L 496.3632 183.4 
L 496.3632 183.4 
L 487.0364 183.4 
z
" clip-path="url(#pd3e9dd3576)" style="fill: #d3d3d3; stroke: #000000; stroke-linejoin: miter"/>
   </g>
   <g id="patch_47">
    <path d="M 496.3632 183.4 
L 505.69 183.4 
L 505.69 178.2004 
L 496.3632 178.2004 
z
" clip-path="url(#pd3e9dd3576)" style="fill: #d3d3d3; stroke: #000000; stroke-linejoin: miter"/>
   </g>
   <g id="matplotlib.axis_3">
    <g id="xtick_6">
     <g id="line2d_19">
      <g>
       <use xlink:href="#mef7b87fa6f" x="319.154" y="183.4" style="stroke: #000000; stroke-width: 0.8"/>
      </g>
     </g>
     <g id="text_15">
      <text style="font: 10px 'Times New Roman'; text-anchor: middle" x="319.154" y="197.34375" transform="rotate(-0 319.154 197.34375)">683</text>
     </g>
    </g>
    <g id="xtick_7">
     <g id="line2d_20">
      <g>
       <use xlink:href="#mef7b87fa6f" x="365.788" y="183.4" style="stroke: #000000; stroke-width: 0.8"/>
      </g>
     </g>
     <g id="text_16">
      <text style="font: 10px 'Times New Roman'; text-anchor: middle" x="365.788" y="197.34375" transform="rotate(-0 365.788 197.34375)">1131</text>
     </g>
    </g>
    <g id="xtick_8">
     <g id="line2d_21">
      <g>
       <use xlink:href="#mef7b87fa6f" x="412.422" y="183.4" style="stroke: #000000; stroke-width: 0.8"/>
      </g>
     </g>
     <g id="text_17">
      <text style="font: 10px 'Times New Roman'; text-anchor: middle" x="412.422" y="197.34375" transform="rotate(-0 412.422 197.34375)">1580</text>
     </g>
    </g>
    <g id="xtick_9">
     <g id="line2d_22">
      <g>
       <use xlink:href="#mef7b87fa6f" x="459.056" y="183.4" style="stroke: #000000; stroke-width: 0.8"/>
      </g>
     </g>
     <g id="text_18">
      <text style="font: 10px 'Times New Roman'; text-anchor: middle" x="459.056" y="197.34375" transform="rotate(-0 459.056 197.34375)">2028</text>
     </g>
    </g>
    <g id="xtick_10">
     <g id="line2d_23">
      <g>
       <use xlink:href="#mef7b87fa6f" x="505.69" y="183.4" style="stroke: #000000; stroke-width: 0.8"/>
      </g>
     </g>
     <g id="text_19">
      <text style="font: 10px 'Times New Roman'; text-anchor: middle" x="505.69" y="197.34375" transform="rotate(-0 505.69 197.34375)">2476</text>
     </g>
    </g>
    <g id="text_20">
     <text style="font: 12px 'Times New Roman'; text-anchor: middle" x="412.422" y="212.096563" transform="rotate(-0 412.422 212.096563)">Cost ($k)</text>
    </g>
   </g>
   <g id="matplotlib.axis_4">
    <g id="ytick_7">
     <g id="line2d_24">
      <path d="M 319.154 183.4 
L 505.69 183.4 
" clip-path="url(#pd3e9dd3576)" style="fill: none; stroke: #000000; stroke-linecap: square"/>
     </g>
     <g id="line2d_25">
      <g>
       <use xlink:href="#macbbf44f60" x="319.154" y="183.4" style="stroke: #000000; stroke-width: 0.8"/>
      </g>
     </g>
     <g id="text_21">
      <text style="font: 10px 'Times New Roman'; text-anchor: end" x="312.154" y="186.871875" transform="rotate(-0 312.154 186.871875)">0.00</text>
     </g>
    </g>
    <g id="ytick_8">
     <g id="line2d_26">
      <path d="M 319.154 148.736 
L 505.69 148.736 
" clip-path="url(#pd3e9dd3576)" style="fill: none; stroke: #000000; stroke-linecap: square"/>
     </g>
     <g id="line2d_27">
      <g>
       <use xlink:href="#macbbf44f60" x="319.154" y="148.736" style="stroke: #000000; stroke-width: 0.8"/>
      </g>
     </g>
     <g id="text_22">
      <text style="font: 10px 'Times New Roman'; text-anchor: end" x="312.154" y="152.207875" transform="rotate(-0 312.154 152.207875)">0.05</text>
     </g>
    </g>
    <g id="ytick_9">
     <g id="line2d_28">
      <path d="M 319.154 114.072 
L 505.69 114.072 
" clip-path="url(#pd3e9dd3576)" style="fill: none; stroke: #000000; stroke-linecap: square"/>
     </g>
     <g id="line2d_29">
      <g>
       <use xlink:href="#macbbf44f60" x="319.154" y="114.072" style="stroke: #000000; stroke-width: 0.8"/>
      </g>
     </g>
     <g id="text_23">
      <text style="font: 10px 'Times New Roman'; text-anchor: end" x="312.154" y="117.543875" transform="rotate(-0 312.154 117.543875)">0.10</text>
     </g>
    </g>
    <g id="ytick_10">
     <g id="line2d_30">
      <path d="M 319.154 79.408 
L 505.69 79.408 
" clip-path="url(#pd3e9dd3576)" style="fill: none; stroke: #000000; stroke-linecap: square"/>
     </g>
     <g id="line2d_31">
      <g>
       <use xlink:href="#macbbf44f60" x="319.154" y="79.408" style="stroke: #000000; stroke-width: 0.8"/>
      </g>
     </g>
     <g id="text_24">
      <text style="font: 10px 'Times New Roman'; text-anchor: end" x="312.154" y="82.879875" transform="rotate(-0 312.154 82.879875)">0.15</text>
     </g>
    </g>
    <g id="ytick_11">
     <g id="line2d_32">
      <path d="M 319.154 44.744 
L 505.69 44.744 
" clip-path="url(#pd3e9dd3576)" style="fill: none; stroke: #000000; stroke-linecap: square"/>
     </g>
     <g id="line2d_33">
      <g>
       <use xlink:href="#macbbf44f60" x="319.154" y="44.744" style="stroke: #000000; stroke-width: 0.8"/>
      </g>
     </g>
     <g id="text_25">
      <text style="font: 10px 'Times New Roman'; text-anchor: end" x="312.154" y="48.215875" transform="rotate(-0 312.154 48.215875)">0.20</text>
     </g>
    </g>
    <g id="ytick_12">
     <g id="line2d_34">
      <path d="M 319.154 10.08 
L 505.69 10.08 
" clip-path="url(#pd3e9dd3576)" style="fill: none; stroke: #000000; stroke-linecap: square"/>
     </g>
     <g id="line2d_35">
      <g>
       <use xlink:href="#macbbf44f60" x="319.154" y="10.08" style="stroke: #000000; stroke-width: 0.8"/>
      </g>
     </g>
     <g id="text_26">
      <text style="font: 10px 'Times New Roman'; text-anchor: end" x="312.154" y="13.551875" transform="rotate(-0 312.154 13.551875)">0.25</text>
     </g>
    </g>
    <g id="text_27">
     <text style="font: 700 12px 'Times New Roman'; text-anchor: middle" x="288.064625" y="96.74" transform="rotate(-90 288.064625 96.74)">Relative Probability</text>
    </g>
   </g>
   <g id="line2d_36">
    <path d="M 435.293125 183.4 
L 435.293125 10.08 
" clip-path="url(#pd3e9dd3576)" style="fill: none; stroke-dasharray: 7.4,3.2; stroke-dashoffset: 0; stroke: #ff0000; stroke-width: 2"/>
   </g>
   <g id="patch_48">
    <path d="M 319.154 183.4 
L 319.154 10.08 
" style="fill: none; stroke: #000000; stroke-width: 0.8; stroke-linejoin: miter; stroke-linecap: square"/>
   </g>
   <g id="patch_49">
    <path d="M 505.69 183.4 
L 505.69 10.08 
" style="fill: none; stroke: #000000; stroke-width: 0.8; stroke-linejoin: miter; stroke-linecap: square"/>
   </g>
   <g id="patch_50">
    <path d="M 319.154 183.4 
L 505.69 183.4 
" style="fill: none; stroke: #000000; stroke-width: 0.8; stroke-linejoin: miter; stroke-linecap: square"/>
   </g>
   <g id="patch_51">
    <path d="M 319.154 10.08 
L 505.69 10.08 
" style="fill: none; stroke: #000000; stroke-width: 0.8; stroke-linejoin: miter; stroke-linecap: square"/>
   </g>
   <g id="text_28">
    <text style="font: 10px 'Times New Roman'; text-anchor: middle" x="435.293125" y="7.922188" transform="rotate(-0 435.293125 7.922188)">Target</text>
   </g>
  </g>
  <g id="axes_3">
   <g id="matplotlib.axis_5">
    <g id="ytick_13">
     <g id="line2d_37">
      <defs>
       <path id="m7d7bec4862" d="M 0 0 
L 3.5 0 
" style="stroke: #000000; stroke-width: 0.8"/>
      </defs>
      <g>
       <use xlink:href="#m7d7bec4862" x="225.886" y="183.4" style="stroke: #000000; stroke-width: 0.8"/>
      </g>
     </g>
     <g id="text_29">
      <text style="font: 10px 'Times New Roman'; text-anchor: start" x="232.886" y="186.871875" transform="rotate(-0 232.886 186.871875)">0.0</text>
     </g>
    </g>
    <g id="ytick_14">
     <g id="line2d_38">
      <g>
       <use xlink:href="#m7d7bec4862" x="225.886" y="148.736" style="stroke: #000000; stroke-width: 0.8"/>
      </g>
     </g>
     <g id="text_30">
      <text style="font: 10px 'Times New Roman'; text-anchor: start" x="232.886" y="152.207875" transform="rotate(-0 232.886 152.207875)">0.2</text>
     </g>
    </g>
    <g id="ytick_15">
     <g id="line2d_39">
      <g>
       <use xlink:href="#m7d7bec4862" x="225.886" y="114.072" style="stroke: #000000; stroke-width: 0.8"/>
      </g>
     </g>
     <g id="text_31">
      <text style="font: 10px 'Times New Roman'; text-anchor: start" x="232.886" y="117.543875" transform="rotate(-0 232.886 117.543875)">0.4</text>
     </g>
    </g>
    <g id="ytick_16">
     <g id="line2d_40">
      <g>
       <use xlink:href="#m7d7bec4862" x="225.886" y="79.408" style="stroke: #000000; stroke-width: 0.8"/>
      </g>
     </g>
     <g id="text_32">
      <text style="font: 10px 'Times New Roman'; text-anchor: start" x="232.886" y="82.879875" transform="rotate(-0 232.886 82.879875)">0.6</text>
     </g>
    </g>
    <g id="ytick_17">
     <g id="line2d_41">
      <g>
       <use xlink:href="#m7d7bec4862" x="225.886" y="44.744" style="stroke: #000000; stroke-width: 0.8"/>
      </g>
     </g>
     <g id="text_33">
      <text style="font: 10px 'Times New Roman'; text-anchor: start" x="232.886" y="48.215875" transform="rotate(-0 232.886 48.215875)">0.8</text>
     </g>
    </g>
    <g id="ytick_18">
     <g id="line2d_42">
      <g>
       <use xlink:href="#m7d7bec4862" x="225.886" y="10.08" style="stroke: #000000; stroke-width: 0.8"/>
      </g>
     </g>
     <g id="text_34">
      <text style="font: 10px 'Times New Roman'; text-anchor: start" x="232.886" y="13.551875" transform="rotate(-0 232.886 13.551875)">1.0</text>
     </g>
    </g>
    <g id="text_35">
     <text style="fill: #4169e1; font: 700 12px 'Times New Roman'; text-anchor: middle" x="257.51975" y="96.74" transform="rotate(-90 257.51975 96.74)">Cumulative Probability</text>
    </g>
   </g>
   <g id="line2d_43">
    <path d="M 39.35 183.4 
L 44.0134 182.9667 
L 53.3402 180.3669 
L 62.667 175.1673 
L 71.9938 158.2686 
L 81.3206 137.4702 
L 90.6474 116.6718 
L 99.9742 99.3398 
L 109.301 78.5414 
L 118.6278 66.409 
L 127.9546 50.8102 
L 137.2814 41.7109 
L 146.6082 32.6116 
L 155.935 25.6788 
L 165.2618 18.746 
L 174.5886 15.2796 
L 183.9154 13.9797 
L 193.2422 13.1131 
L 202.569 11.8132 
L 211.8958 10.9466 
L 221.2226 10.08 
L 225.886 10.08 
" clip-path="url(#pad38704a53)" style="fill: none; stroke: #4169e1; stroke-width: 1.5; stroke-linecap: square"/>
   </g>
   <g id="patch_52">
    <path d="M 39.35 183.4 
L 39.35 10.08 
" style="fill: none; stroke: #000000; stroke-width: 0.8; stroke-linejoin: miter; stroke-linecap: square"/>
   </g>
   <g id="patch_53">
    <path d="M 225.886 183.4 
L 225.886 10.08 
" style="fill: none; stroke: #000000; stroke-width: 0.8; stroke-linejoin: miter; stroke-linecap: square"/>
   </g>
   <g id="patch_54">
    <path d="M 39.35 183.4 
L 225.886 183.4 
" style="fill: none; stroke: #000000; stroke-width: 0.8; stroke-linejoin: miter; stroke-linecap: square"/>
   </g>
   <g id="patch_55">
    <path d="M 39.35 10.08 
L 225.886 10.08 
" style="fill: none; stroke: #000000; stroke-width: 0.8; stroke-linejoin: miter; stroke-linecap: square"/>
   </g>
  </g>
  <g id="axes_4">
   <g id="matplotlib.axis_6">
    <g id="ytick_19">
     <g id="line2d_44">
      <g>
       <use xlink:href="#m7d7bec4862" x="505.69" y="183.4" style="stroke: #000000; stroke-width: 0.8"/>
      </g>
     </g>
     <g id="text_36">
      <text style="font: 10px 'Times New Roman'; text-anchor: start" x="512.69" y="186.871875" transform="rotate(-0 512.69 186.871875)">0.0</text>
     </g>
    </g>
    <g id="ytick_20">
     <g id="line2d_45">
      <g>
       <use xlink:href="#m7d7bec4862" x="505.69" y="148.736" style="stroke: #000000; stroke-width: 0.8"/>
      </g>
     </g>
     <g id="text_37">
      <text style="font: 10px 'Times New Roman'; text-anchor: start" x="512.69" y="152.207875" transform="rotate(-0 512.69 152.207875)">0.2</text>
     </g>
    </g>
    <g id="ytick_21">
     <g id="line2d_46">
      <g>
       <use xlink:href="#m7d7bec4862" x="505.69" y="114.072" style="stroke: #000000; stroke-width: 0.8"/>
      </g>
     </g>
     <g id="text_38">
      <text style="font: 10px 'Times New Roman'; text-anchor: start" x="512.69" y="117.543875" transform="rotate(-0 512.69 117.543875)">0.4</text>
     </g>
    </g>
    <g id="ytick_22">
     <g id="line2d_47">
      <g>
       <use xlink:href="#m7d7bec4862" x="505.69" y="79.408" style="stroke: #000000; stroke-width: 0.8"/>
      </g>
     </g>
     <g id="text_39">
      <text style="font: 10px 'Times New Roman'; text-anchor: start" x="512.69" y="82.879875" transform="rotate(-0 512.69 82.879875)">0.6</text>
     </g>
    </g>
    <g id="ytick_23">
     <g id="line2d_48">
      <g>
       <use xlink:href="#m7d7bec4862" x="505.69" y="44.744" style="stroke: #000000; stroke-width: 0.8"/>
      </g>
     </g>
     <g id="text_40">
      <text style="font: 10px 'Times New Roman'; text-anchor: start" x="512.69" y="48.215875" transform="rotate(-0 512.69 48.215875)">0.8</text>
     </g>
    </g>
    <g id="ytick_24">
     <g id="line2d_49">
      <g>
       <use xlink:href="#m7d7bec4862" x="505.69" y="10.08" style="stroke: #000000; stroke-width: 0.8"/>
      </g>
     </g>
     <g id="text_41">
      <text style="font: 10px 'Times New Roman'; text-anchor: start" x="512.69" y="13.551875" transform="rotate(-0 512.69 13.551875)">1.0</text>
     </g>
    </g>
    <g id="text_42">
     <text style="fill: #4169e1; font: 700 12px 'Times New Roman'; text-anchor: middle" x="537.32375" y="96.74" transform="rotate(-90 537.32375 96.74)">Cumulative Probability</text>
    </g>
   </g>
   <g id="line2d_50">
    <path d="M 319.154 183.4 
L 323.8174 182.5334 
L 333.1442 178.2004 
L 342.471 169.1011 
L 351.7978 153.5023 
L 361.1246 136.6036 
L 370.4514 113.2054 
L 379.7782 96.74 
L 389.105 78.9747 
L 398.4318 66.8423 
L 407.7586 54.7099 
L 417.0854 40.8443 
L 426.4122 29.1452 
L 435.739 23.079 
L 445.0658 19.1793 
L 454.3926 15.2796 
L 463.7194 13.5464 
L 473.0462 11.8132 
L 482.373 11.3799 
L 491.6998 11.3799 
L 501.0266 10.08 
L 505.69 10.08 
" clip-path="url(#pd3e9dd3576)" style="fill: none; stroke: #4169e1; stroke-width: 1.5; stroke-linecap: square"/>
   </g>
   <g id="patch_56">
    <path d="M 319.154 183.4 
L 319.154 10.08 
" style="fill: none; stroke: #000000; stroke-width: 0.8; stroke-linejoin: miter; stroke-linecap: square"/>
   </g>
   <g id="patch_57">
    <path d="M 505.69 183.4 
L 505.69 10.08 
" style="fill: none; stroke: #000000; stroke-width: 0.8; stroke-linejoin: miter; stroke-linecap: square"/>
   </g>
   <g id="patch_58">
    <path d="M 319.154 183.4 
L 505.69 183.4 
" style="fill: none; stroke: #000000; stroke-width: 0.8; stroke-linejoin: miter; stroke-linecap: square"/>
   </g>
   <g id="patch_59">
    <path d="M 319.154 10.08 
L 505.69 10.08 
" style="fill: none; stroke: #000000; stroke-width: 0.8; stroke-linejoin: miter; stroke-linecap: square"/>
   </g>
  </g>
 </g>
 <defs>
  <clipPath id="pad38704a53">
   <rect x="39.35" y="10.08" width="186.536" height="173.32"/>
  </clipPath>
  <clipPath id="pd3e9dd3576">
   <rect x="319.154" y="10.08" width="186.536" height="173.32"/>
  </clipPath>
 </defs>
</svg>
