<?xml version="1.0" encoding="utf-8" standalone="no"?>
<!DOCTYPE svg PUBLIC "-//W3C//DTD SVG 1.1//EN"
  "http://www.w3.org/Graphics/SVG/1.1/DTD/svg11.dtd">
<svg xmlns:xlink="http://www.w3.org/1999/xlink" width="540pt" height="158.4pt" viewBox="0 0 540 158.4" xmlns="http://www.w3.org/2000/svg" version="1.1">
 <metadata>
  <rdf:RDF xmlns:dc="http://purl.org/dc/elements/1.1/" xmlns:cc="http://creativecommons.org/ns#" xmlns:rdf="http://www.w3.org/1999/02/22-rdf-syntax-ns#">
   <cc:Work>
    <dc:type rdf:resource="http://purl.org/dc/dcmitype/StillImage"/>
    <dc:date>2024-12-06T11:10:53.902059</dc:date>
    <dc:format>image/svg+xml</dc:format>
    <dc:creator>
     <cc:Agent>
      <dc:title>Matplotlib v3.8.3, https://matplotlib.org/</dc:title>
     </cc:Agent>
    </dc:creator>
   </cc:Work>
  </rdf:RDF>
 </metadata>
 <defs>
  <style type="text/css">*{stroke-linejoin: round; stroke-linecap: butt}</style>
 </defs>
 <g id="figure_1">
  <g id="patch_1">
   <path d="M 0 158.4 
L 540 158.4 
L 540 0 
L 0 0 
z
" style="fill: #ffffff"/>
  </g>
  <g id="axes_1">
   <g id="patch_2">
    <path d="M 32.25125 129.8 
L 503.26 129.8 
L 503.26 3.96 
L 32.25125 3.96 
z
" style="fill: #ffffff"/>
   </g>
   <g id="matplotlib.axis_1">
    <g id="xtick_1">
     <g id="line2d_1">
      <path d="M 32.25125 129.8 
L 32.25125 3.96 
" clip-path="url(#p8405fef4ae)" style="fill: none; stroke-dasharray: 1.85,0.8; stroke-dashoffset: 0; stroke: #b0b0b0; stroke-width: 0.5"/>
     </g>
     <g id="line2d_2">
      <defs>
       <path id="m3a943687ab" d="M 0 0 
L 0 3.5 
" style="stroke: #000000; stroke-width: 0.8"/>
      </defs>
      <g>
       <use xlink:href="#m3a943687ab" x="32.25125" y="129.8" style="stroke: #000000; stroke-width: 0.8"/>
      </g>
     </g>
     <g id="text_1">
      <text style="font: 10px 'Times New Roman'; text-anchor: middle" x="32.25125" y="143.74375" transform="rotate(-0 32.25125 143.74375)">0</text>
     </g>
    </g>
    <g id="xtick_2">
     <g id="line2d_3">
      <path d="M 86.36057 129.8 
L 86.36057 3.96 
" clip-path="url(#p8405fef4ae)" style="fill: none; stroke-dasharray: 1.85,0.8; stroke-dashoffset: 0; stroke: #b0b0b0; stroke-width: 0.5"/>
     </g>
     <g id="line2d_4">
      <g>
       <use xlink:href="#m3a943687ab" x="86.36057" y="129.8" style="stroke: #000000; stroke-width: 0.8"/>
      </g>
     </g>
     <g id="text_2">
      <text style="font: 10px 'Times New Roman'; text-anchor: middle" x="86.36057" y="143.74375" transform="rotate(-0 86.36057 143.74375)">10</text>
     </g>
    </g>
    <g id="xtick_3">
     <g id="line2d_5">
      <path d="M 140.469891 129.8 
L 140.469891 3.96 
" clip-path="url(#p8405fef4ae)" style="fill: none; stroke-dasharray: 1.85,0.8; stroke-dashoffset: 0; stroke: #b0b0b0; stroke-width: 0.5"/>
     </g>
     <g id="line2d_6">
      <g>
       <use xlink:href="#m3a943687ab" x="140.469891" y="129.8" style="stroke: #000000; stroke-width: 0.8"/>
      </g>
     </g>
     <g id="text_3">
      <text style="font: 10px 'Times New Roman'; text-anchor: middle" x="140.469891" y="143.74375" transform="rotate(-0 140.469891 143.74375)">20</text>
     </g>
    </g>
    <g id="xtick_4">
     <g id="line2d_7">
      <path d="M 194.579211 129.8 
L 194.579211 3.96 
" clip-path="url(#p8405fef4ae)" style="fill: none; stroke-dasharray: 1.85,0.8; stroke-dashoffset: 0; stroke: #b0b0b0; stroke-width: 0.5"/>
     </g>
     <g id="line2d_8">
      <g>
       <use xlink:href="#m3a943687ab" x="194.579211" y="129.8" style="stroke: #000000; stroke-width: 0.8"/>
      </g>
     </g>
     <g id="text_4">
      <text style="font: 10px 'Times New Roman'; text-anchor: middle" x="194.579211" y="143.74375" transform="rotate(-0 194.579211 143.74375)">30</text>
     </g>
    </g>
    <g id="xtick_5">
     <g id="line2d_9">
      <path d="M 248.688531 129.8 
L 248.688531 3.96 
" clip-path="url(#p8405fef4ae)" style="fill: none; stroke-dasharray: 1.85,0.8; stroke-dashoffset: 0; stroke: #b0b0b0; stroke-width: 0.5"/>
     </g>
     <g id="line2d_10">
      <g>
       <use xlink:href="#m3a943687ab" x="248.688531" y="129.8" style="stroke: #000000; stroke-width: 0.8"/>
      </g>
     </g>
     <g id="text_5">
      <text style="font: 10px 'Times New Roman'; text-anchor: middle" x="248.688531" y="143.74375" transform="rotate(-0 248.688531 143.74375)">40</text>
     </g>
    </g>
    <g id="xtick_6">
     <g id="line2d_11">
      <path d="M 302.797851 129.8 
L 302.797851 3.96 
" clip-path="url(#p8405fef4ae)" style="fill: none; stroke-dasharray: 1.85,0.8; stroke-dashoffset: 0; stroke: #b0b0b0; stroke-width: 0.5"/>
     </g>
     <g id="line2d_12">
      <g>
       <use xlink:href="#m3a943687ab" x="302.797851" y="129.8" style="stroke: #000000; stroke-width: 0.8"/>
      </g>
     </g>
     <g id="text_6">
      <text style="font: 10px 'Times New Roman'; text-anchor: middle" x="302.797851" y="143.74375" transform="rotate(-0 302.797851 143.74375)">50</text>
     </g>
    </g>
    <g id="xtick_7">
     <g id="line2d_13">
      <path d="M 356.907172 129.8 
L 356.907172 3.96 
" clip-path="url(#p8405fef4ae)" style="fill: none; stroke-dasharray: 1.85,0.8; stroke-dashoffset: 0; stroke: #b0b0b0; stroke-width: 0.5"/>
     </g>
     <g id="line2d_14">
      <g>
       <use xlink:href="#m3a943687ab" x="356.907172" y="129.8" style="stroke: #000000; stroke-width: 0.8"/>
      </g>
     </g>
     <g id="text_7">
      <text style="font: 10px 'Times New Roman'; text-anchor: middle" x="356.907172" y="143.74375" transform="rotate(-0 356.907172 143.74375)">60</text>
     </g>
    </g>
    <g id="xtick_8">
     <g id="line2d_15">
      <path d="M 411.016492 129.8 
L 411.016492 3.96 
" clip-path="url(#p8405fef4ae)" style="fill: none; stroke-dasharray: 1.85,0.8; stroke-dashoffset: 0; stroke: #b0b0b0; stroke-width: 0.5"/>
     </g>
     <g id="line2d_16">
      <g>
       <use xlink:href="#m3a943687ab" x="411.016492" y="129.8" style="stroke: #000000; stroke-width: 0.8"/>
      </g>
     </g>
     <g id="text_8">
      <text style="font: 10px 'Times New Roman'; text-anchor: middle" x="411.016492" y="143.74375" transform="rotate(-0 411.016492 143.74375)">70</text>
     </g>
    </g>
    <g id="xtick_9">
     <g id="line2d_17">
      <path d="M 465.125812 129.8 
L 465.125812 3.96 
" clip-path="url(#p8405fef4ae)" style="fill: none; stroke-dasharray: 1.85,0.8; stroke-dashoffset: 0; stroke: #b0b0b0; stroke-width: 0.5"/>
     </g>
     <g id="line2d_18">
      <g>
       <use xlink:href="#m3a943687ab" x="465.125812" y="129.8" style="stroke: #000000; stroke-width: 0.8"/>
      </g>
     </g>
     <g id="text_9">
      <text style="font: 10px 'Times New Roman'; text-anchor: middle" x="465.125812" y="143.74375" transform="rotate(-0 465.125812 143.74375)">80</text>
     </g>
    </g>
    <g id="text_10">
     <text style="font: 12px 'Times New Roman'; text-anchor: middle" x="267.755625" y="154.215313" transform="rotate(-0 267.755625 154.215313)">Time (weeks)</text>
    </g>
   </g>
   <g id="matplotlib.axis_2">
    <g id="ytick_1">
     <g id="line2d_19">
      <path d="M 32.25125 129.8 
L 503.26 129.8 
" clip-path="url(#p8405fef4ae)" style="fill: none; stroke-dasharray: 1.85,0.8; stroke-dashoffset: 0; stroke: #b0b0b0; stroke-width: 0.5"/>
     </g>
     <g id="line2d_20">
      <defs>
       <path id="m0166a12fe7" d="M 0 0 
L -3.5 0 
" style="stroke: #000000; stroke-width: 0.8"/>
      </defs>
      <g>
       <use xlink:href="#m0166a12fe7" x="32.25125" y="129.8" style="stroke: #000000; stroke-width: 0.8"/>
      </g>
     </g>
     <g id="text_11">
      <text style="font: 10px 'Times New Roman'; text-anchor: end" x="25.25125" y="133.271875" transform="rotate(-0 25.25125 133.271875)">0</text>
     </g>
    </g>
    <g id="ytick_2">
     <g id="line2d_21">
      <path d="M 32.25125 104.632 
L 503.26 104.632 
" clip-path="url(#p8405fef4ae)" style="fill: none; stroke-dasharray: 1.85,0.8; stroke-dashoffset: 0; stroke: #b0b0b0; stroke-width: 0.5"/>
     </g>
     <g id="line2d_22">
      <g>
       <use xlink:href="#m0166a12fe7" x="32.25125" y="104.632" style="stroke: #000000; stroke-width: 0.8"/>
      </g>
     </g>
     <g id="text_12">
      <text style="font: 10px 'Times New Roman'; text-anchor: end" x="25.25125" y="108.103875" transform="rotate(-0 25.25125 108.103875)">12</text>
     </g>
    </g>
    <g id="ytick_3">
     <g id="line2d_23">
      <path d="M 32.25125 79.464 
L 503.26 79.464 
" clip-path="url(#p8405fef4ae)" style="fill: none; stroke-dasharray: 1.85,0.8; stroke-dashoffset: 0; stroke: #b0b0b0; stroke-width: 0.5"/>
     </g>
     <g id="line2d_24">
      <g>
       <use xlink:href="#m0166a12fe7" x="32.25125" y="79.464" style="stroke: #000000; stroke-width: 0.8"/>
      </g>
     </g>
     <g id="text_13">
      <text style="font: 10px 'Times New Roman'; text-anchor: end" x="25.25125" y="82.935875" transform="rotate(-0 25.25125 82.935875)">24</text>
     </g>
    </g>
    <g id="ytick_4">
     <g id="line2d_25">
      <path d="M 32.25125 54.296 
L 503.26 54.296 
" clip-path="url(#p8405fef4ae)" style="fill: none; stroke-dasharray: 1.85,0.8; stroke-dashoffset: 0; stroke: #b0b0b0; stroke-width: 0.5"/>
     </g>
     <g id="line2d_26">
      <g>
       <use xlink:href="#m0166a12fe7" x="32.25125" y="54.296" style="stroke: #000000; stroke-width: 0.8"/>
      </g>
     </g>
     <g id="text_14">
      <text style="font: 10px 'Times New Roman'; text-anchor: end" x="25.25125" y="57.767875" transform="rotate(-0 25.25125 57.767875)">36</text>
     </g>
    </g>
    <g id="ytick_5">
     <g id="line2d_27">
      <path d="M 32.25125 29.128 
L 503.26 29.128 
" clip-path="url(#p8405fef4ae)" style="fill: none; stroke-dasharray: 1.85,0.8; stroke-dashoffset: 0; stroke: #b0b0b0; stroke-width: 0.5"/>
     </g>
     <g id="line2d_28">
      <g>
       <use xlink:href="#m0166a12fe7" x="32.25125" y="29.128" style="stroke: #000000; stroke-width: 0.8"/>
      </g>
     </g>
     <g id="text_15">
      <text style="font: 10px 'Times New Roman'; text-anchor: end" x="25.25125" y="32.599875" transform="rotate(-0 25.25125 32.599875)">48</text>
     </g>
    </g>
    <g id="ytick_6">
     <g id="line2d_29">
      <path d="M 32.25125 3.96 
L 503.26 3.96 
" clip-path="url(#p8405fef4ae)" style="fill: none; stroke-dasharray: 1.85,0.8; stroke-dashoffset: 0; stroke: #b0b0b0; stroke-width: 0.5"/>
     </g>
     <g id="line2d_30">
      <g>
       <use xlink:href="#m0166a12fe7" x="32.25125" y="3.96" style="stroke: #000000; stroke-width: 0.8"/>
      </g>
     </g>
     <g id="text_16">
      <text style="font: 10px 'Times New Roman'; text-anchor: end" x="25.25125" y="7.431875" transform="rotate(-0 25.25125 7.431875)">60</text>
     </g>
    </g>
    <g id="text_17">
     <text style="fill: #ff8c00; font: 700 12px 'Times New Roman'; text-anchor: middle" x="8.661875" y="66.88" transform="rotate(-90 8.661875 66.88)">Effort Backlog (h)</text>
    </g>
   </g>
   <g id="line2d_31">
    <path d="M 32.25125 118.205699 
L 32.508913 117.745637 
L 33.101539 117.631059 
L 33.281904 117.501579 
L 34.60887 117.39229 
L 34.827884 117.010005 
L 35.404406 116.894241 
L 35.600875 116.701761 
L 37.73626 116.594067 
L 37.919845 115.772006 
L 38.46738 115.648696 
L 38.692836 114.960302 
L 39.259695 114.8459 
L 39.465826 114.548089 
L 40.21305 114.434009 
L 40.238816 114.416157 
L 40.831442 114.304412 
L 40.969936 113.791802 
L 41.011807 113.481726 
L 43.092439 113.347666 
L 43.330777 112.227269 
L 43.91052 112.108949 
L 44.023248 111.81624 
L 44.103768 111.349361 
L 44.644861 111.224679 
L 44.876758 110.584898 
L 45.41463 110.472803 
L 45.585333 109.005299 
L 45.649748 108.543248 
L 46.1844 108.419239 
L 46.422739 106.91893 
L 48.516254 106.800791 
L 48.74171 106.280713 
L 49.340777 106.169731 
L 49.450284 105.731637 
L 49.5147 105.489052 
L 50.065455 105.37242 
L 50.28769 104.650348 
L 50.844887 104.536215 
L 51.06068 103.70796 
L 51.595332 103.587873 
L 51.833671 102.206145 
L 53.920744 102.083498 
L 54.152642 101.063061 
L 54.693735 100.946994 
L 54.925632 100.275932 
L 55.476387 100.155681 
L 55.698622 98.827129 
L 56.239715 98.701766 
L 56.471612 97.634349 
L 57.015926 97.512085 
L 57.244603 96.808431 
L 59.476612 96.692512 
L 59.563574 96.422575 
L 60.107888 96.299748 
L 60.275369 95.942798 
L 60.301135 95.980623 
L 60.336564 96.037263 
L 60.922748 96.15078 
L 61.109554 96.299866 
L 61.689297 96.19308 
L 61.882544 95.79909 
L 62.439742 95.682497 
L 62.655535 94.977217 
L 64.742609 94.859833 
L 64.881103 93.280101 
L 64.974506 92.429564 
L 65.505936 92.29499 
L 65.747496 90.43049 
L 66.29181 90.306532 
L 66.520486 89.441575 
L 67.071242 89.322778 
L 67.22584 88.065847 
L 67.293476 87.516853 
L 67.824907 87.394076 
L 68.066467 85.687305 
L 70.153541 85.569524 
L 70.385438 84.622223 
L 70.920089 84.498839 
L 71.158428 83.126356 
L 71.699521 83.006137 
L 71.931418 82.052455 
L 72.46607 81.922569 
L 72.704409 79.645923 
L 73.232619 79.500084 
L 73.477399 77.930419 
L 75.558031 77.805996 
L 75.79637 76.719883 
L 76.3278 76.599699 
L 76.56936 74.822868 
L 77.107232 74.705957 
L 77.34235 73.120678 
L 77.87056 72.995033 
L 78.115341 69.637505 
L 78.64033 69.474303 
L 78.888331 65.73619 
L 80.959301 65.607957 
L 81.207302 62.392071 
L 81.732291 62.274815 
L 81.980292 58.70636 
L 82.505281 58.562986 
L 82.753282 55.866921 
L 83.284713 55.74189 
L 83.526273 53.649214 
L 84.057703 53.519931 
L 84.299263 51.748672 
L 86.376674 51.632282 
L 86.618234 49.98893 
L 87.152885 49.864918 
L 87.265613 49.469629 
L 87.320367 49.503849 
L 87.391224 49.680579 
L 88.051487 49.592301 
L 88.164214 49.173135 
L 88.711749 49.057308 
L 88.843802 48.683441 
L 88.904997 48.771148 
L 88.937205 48.800166 
L 91.861685 48.926586 
L 92.029166 49.291003 
L 92.592805 49.40446 
L 92.802156 49.858809 
L 93.526834 49.75406 
L 93.575146 49.657592 
L 94.164551 49.539972 
L 94.23863 49.621969 
L 94.348137 49.732687 
L 94.950425 49.847386 
L 95.121127 50.149943 
L 97.32737 50.262337 
L 97.440098 50.499051 
L 98.052048 50.613226 
L 98.213088 50.792244 
L 98.934546 50.901257 
L 98.986078 50.983216 
L 99.552938 51.097104 
L 99.614133 51.204628 
L 99.662445 51.080477 
L 99.759069 50.808548 
L 102.603029 50.653353 
L 102.85103 49.704249 
L 103.398565 49.580235 
L 103.62402 48.84185 
L 104.206984 48.725613 
L 104.39701 48.222022 
L 105.025065 48.108277 
L 105.170001 47.937497 
L 105.791614 47.823549 
L 105.942991 47.813702 
L 108.922224 47.706876 
L 109.005965 47.571542 
L 109.034952 47.597338 
L 109.592149 47.701628 
L 109.807942 49.63364 
L 110.339373 49.762684 
L 110.580933 50.888138 
L 111.144571 51.002857 
L 111.353923 51.416027 
L 113.463542 51.527287 
L 113.672894 52.877306 
L 114.213987 52.999676 
L 114.397572 54.25227 
L 114.445884 54.614697 
L 114.980536 54.74135 
L 115.015965 54.927163 
L 115.093264 54.755511 
L 115.218874 54.027764 
L 115.747084 53.913166 
L 115.908124 51.531791 
L 115.991865 49.900238 
L 116.513633 49.776481 
L 116.764855 45.005172 
L 118.832604 44.892492 
L 119.083826 41.036527 
L 119.608815 40.907931 
L 119.856816 37.272907 
L 120.381805 37.116583 
L 120.629806 33.043285 
L 121.158017 32.896786 
L 121.315835 30.235178 
L 121.402797 28.72617 
L 121.927786 28.55948 
L 122.175787 25.211368 
L 124.253198 25.084567 
L 124.494758 23.968177 
L 125.048734 23.849111 
L 125.267748 23.323424 
L 125.969881 23.4306 
L 126.040739 23.430591 
L 126.633364 23.535328 
L 126.765417 24.050334 
L 126.813729 24.230622 
L 127.34838 24.337328 
L 127.483654 24.910811 
L 127.522303 24.759508 
L 127.586719 24.476881 
L 129.670572 24.366618 
L 129.879924 23.860414 
L 129.90569 23.824282 
L 130.485433 23.716438 
L 130.67868 23.187476 
L 131.229436 23.066205 
L 131.355047 22.658831 
L 131.438787 22.719695 
L 131.451671 22.725313 
L 132.05718 22.62017 
L 132.224661 21.908637 
L 132.83017 21.789512 
L 132.846274 21.770491 
L 132.891365 21.88992 
L 132.942898 21.913755 
L 132.997651 21.86555 
L 135.116933 21.757578 
L 135.316622 21.120198 
L 135.857715 21.002649 
L 136.012313 19.233382 
L 136.089612 18.57676 
L 136.621043 18.464122 
L 136.862603 16.989518 
L 137.394033 16.861233 
L 137.635593 15.264425 
L 138.170244 15.146921 
L 138.408583 13.947246 
L 140.492436 13.824616 
L 140.727554 12.778314 
L 141.275089 12.658892 
L 141.500544 11.693559 
L 142.048079 11.583993 
L 142.225223 11.090115 
L 142.260651 11.173927 
L 142.273535 11.199432 
L 142.846836 11.314186 
L 143.046525 11.546441 
L 143.63593 11.656163 
L 143.819515 11.815011 
L 146.016096 11.928108 
L 146.138486 12.530887 
L 146.6828 12.647481 
L 146.911476 13.889832 
L 147.446128 14.021403 
L 147.684467 15.746983 
L 148.22556 15.864004 
L 148.264209 16.044139 
L 148.357612 15.963802 
L 148.457457 15.976081 
L 149.062966 16.083512 
L 149.230447 16.313614 
L 151.391599 16.427444 
L 151.407703 16.436849 
L 151.462457 16.34803 
L 151.549418 16.247932 
L 153.034204 16.351518 
L 153.095399 16.398462 
L 153.762103 16.507277 
L 153.868389 16.603299 
L 154.541535 16.716013 
L 154.609171 16.708532 
L 154.634938 16.647249 
L 154.641379 16.631929 
L 156.915259 16.516021 
L 156.950688 16.500214 
L 156.96035 16.506341 
L 157.588405 16.619338 
L 157.726899 16.6209 
L 159.253555 16.68598 
L 159.279321 16.681226 
L 159.859064 16.779059 
L 160.04909 18.768166 
L 160.052311 18.823949 
L 162.123281 18.990177 
L 162.371282 24.925494 
L 162.893051 25.092008 
L 163.144272 31.225376 
L 163.666041 31.386286 
L 163.917263 37.479475 
L 164.439031 37.631678 
L 164.690253 43.481845 
L 165.212021 43.624983 
L 165.463243 48.901435 
L 167.530992 49.021677 
L 167.782214 55.418253 
L 168.303983 55.568322 
L 168.555204 59.265042 
L 169.10596 59.385704 
L 169.328195 60.437606 
L 169.862846 60.567538 
L 170.101185 61.986306 
L 170.668045 62.110941 
L 170.874175 62.523444 
L 172.974132 62.635165 
L 173.193146 63.2685 
L 173.840526 63.37346 
L 173.966136 63.996432 
L 174.504009 64.123149 
L 174.739127 65.270739 
L 175.296324 65.38524 
L 175.512117 66.207039 
L 176.069314 66.322629 
L 176.233575 66.574608 
L 176.269003 66.521746 
L 176.285107 66.495221 
L 178.520338 66.599146 
L 178.604078 66.762692 
L 179.238574 66.667926 
L 179.377069 66.306935 
L 180.697594 66.405728 
L 180.923049 68.175989 
L 181.45448 68.314052 
L 181.696039 70.310467 
L 183.773451 70.446253 
L 184.01501 72.26928 
L 184.556103 72.395374 
L 184.788001 73.547152 
L 185.322652 73.661054 
L 185.432159 74.155397 
L 185.509458 74.096634 
L 185.560991 74.087967 
L 186.172941 74.191448 
L 186.189045 74.225028 
L 186.237357 74.161603 
L 186.282448 74.169493 
L 186.958815 73.944827 
L 187.106971 73.535601 
L 189.245578 73.42127 
L 189.338981 73.152474 
L 189.425942 72.528658 
L 189.960594 72.413928 
L 190.198933 71.054396 
L 190.730363 70.925509 
L 190.971923 68.931882 
L 191.503354 68.810034 
L 191.744913 66.685309 
L 192.276344 66.5571 
L 192.517903 64.765242 
L 194.608198 64.644669 
L 194.769238 64.351219 
L 194.836874 64.213033 
L 195.419838 64.100313 
L 195.580877 63.583127 
L 195.609865 63.391906 
L 196.144516 63.268492 
L 196.376413 62.497142 
L 196.382855 62.483802 
L 196.962598 62.369809 
L 197.155845 62.144001 
L 197.761354 62.038173 
L 197.903069 61.911949 
L 197.919173 61.927114 
L 197.928835 61.936322 
L 200.077104 62.046026 
L 200.109312 62.101975 
L 200.157624 61.963297 
L 200.247806 61.803276 
L 200.821107 61.691554 
L 201.020797 61.12499 
L 201.594098 61.011473 
L 201.774462 60.887081 
L 201.793787 60.863005 
L 202.383192 60.748958 
L 202.566777 60.561525 
L 203.198053 60.448008 
L 203.339768 60.332152 
L 205.610426 60.437041 
L 205.658738 60.446736 
L 206.31578 60.55894 
L 206.409183 60.633269 
L 206.431729 60.563581 
L 206.985705 60.444758 
L 207.204719 59.771428 
L 207.758695 59.652605 
L 207.977709 59.158383 
L 208.557452 59.04365 
L 208.679842 58.608587 
L 208.7507 58.259472 
L 210.840994 58.133811 
L 211.06967 57.328834 
L 211.623647 57.21519 
L 211.842661 56.71807 
L 212.396637 56.6073 
L 212.615651 55.8563 
L 213.159965 55.737237 
L 213.279134 55.209237 
L 213.308121 55.564264 
L 213.388641 56.484809 
L 213.913631 56.601378 
L 214.161632 58.597755 
L 216.245485 58.71825 
L 216.480602 59.732335 
L 217.012033 59.834356 
L 217.253593 61.450922 
L 217.788244 61.567597 
L 218.026583 62.703522 
L 218.564455 62.824742 
L 218.799573 64.555189 
L 219.331004 64.671102 
L 219.572564 66.054015 
L 221.666079 66.176853 
L 221.891534 66.922768 
L 222.435848 67.047883 
L 222.664525 67.832883 
L 223.202397 67.962853 
L 223.437515 68.880943 
L 223.997933 68.992167 
L 224.210505 70.424059 
L 224.745157 70.537682 
L 224.983496 71.63827 
L 227.070569 71.761338 
L 227.302466 72.478448 
L 227.872547 72.591534 
L 228.075457 73.195277 
L 228.629433 73.310087 
L 228.848447 73.83399 
L 229.395982 73.947048 
L 229.621437 74.51569 
L 230.204401 74.6304 
L 230.278479 74.926947 
L 230.394428 75.651751 
L 232.491164 75.76997 
L 232.713399 76.601092 
L 233.251271 76.709758 
L 233.486389 78.127438 
L 234.030703 78.242638 
L 234.159535 78.758551 
L 234.191742 78.44796 
L 234.259379 77.730217 
L 234.787589 77.586375 
L 235.032369 75.006657 
L 235.5638 74.88016 
L 235.80536 73.012563 
L 237.87955 72.896989 
L 238.124331 70.33403 
L 238.652541 70.217973 
L 238.897321 68.320487 
L 239.425531 68.192788 
L 239.670311 66.425378 
L 240.198521 66.308373 
L 240.443301 64.709357 
L 240.984395 64.58588 
L 241.216292 63.467439 
L 243.296924 63.335237 
L 243.535263 61.437115 
L 244.063473 61.31036 
L 244.308253 58.704663 
L 244.836463 58.569921 
L 245.081243 56.627725 
L 245.612674 56.510007 
L 245.854233 55.064577 
L 246.398547 54.948188 
L 246.627224 53.663197 
L 248.711077 53.540664 
L 248.946195 52.377032 
L 249.484067 52.253817 
L 249.719185 51.148888 
L 250.263499 51.035681 
L 250.43098 49.965178 
L 250.492175 49.584833 
L 251.030048 49.454675 
L 251.265165 47.716609 
L 251.806259 47.60415 
L 252.038156 46.540831 
L 254.118788 46.423174 
L 254.357127 45.083273 
L 254.894999 44.962905 
L 254.988402 44.502763 
L 255.075363 44.598139 
L 255.648665 44.576865 
L 255.725964 44.345974 
L 255.903107 43.866476 
L 256.495733 43.74836 
L 256.618123 43.311643 
L 256.676098 43.058435 
L 257.207528 42.920238 
L 257.449088 41.427628 
L 259.549045 41.315932 
L 259.768059 40.707057 
L 260.328477 40.591892 
L 260.357464 40.500862 
L 260.4251 40.650884 
L 260.541049 41.077948 
L 261.082142 41.199883 
L 261.314039 42.359968 
L 261.868016 42.484156 
L 262.04838 42.909238 
L 262.08703 43.03161 
L 262.827812 43.155578 
L 262.86002 43.171428 
L 265.005068 43.06284 
L 265.108133 42.926227 
L 265.162887 42.98867 
L 265.178991 43.008783 
L 266.541386 43.127109 
L 266.724971 43.20814 
L 267.282168 43.311421 
L 267.388455 43.737986 
L 267.430325 43.494815 
L 267.497962 43.063282 
L 268.032613 42.935621 
L 268.270952 41.876974 
L 270.351584 41.751161 
L 270.589923 39.936844 
L 271.124574 39.806689 
L 271.362913 38.534299 
L 271.904006 38.417754 
L 272.135903 37.481719 
L 272.670555 37.358668 
L 272.908894 36.251534 
L 273.456428 36.135011 
L 273.681884 35.425152 
L 275.781841 35.307974 
L 276.000855 34.849196 
L 276.561273 34.731725 
L 276.638572 34.283814 
L 276.773845 33.641436 
L 277.353588 33.523182 
L 277.546835 33.142543 
L 278.187773 33.02835 
L 278.319826 32.395157 
L 278.86414 32.279854 
L 278.992971 31.77195 
L 279.012296 32.130261 
L 279.092816 33.597368 
L 281.160565 33.71202 
L 281.411787 37.813983 
L 281.936776 37.975347 
L 282.184777 42.22325 
L 282.706546 42.344059 
L 282.957767 47.283053 
L 283.479536 47.409195 
L 283.730758 51.343715 
L 284.255747 51.489613 
L 284.503748 55.09991 
L 286.574718 55.257764 
L 286.822719 58.933982 
L 287.347708 59.081633 
L 287.595709 62.495143 
L 288.120698 62.637738 
L 288.368699 65.287922 
L 288.896909 65.430911 
L 289.14169 68.506444 
L 289.666679 68.621856 
L 289.91468 71.450823 
L 291.98565 71.57296 
L 292.233651 74.031675 
L 292.761861 74.145961 
L 293.006641 76.522106 
L 293.534851 76.647692 
L 293.779631 78.934112 
L 294.311062 79.076566 
L 294.552622 80.869709 
L 295.087273 80.998008 
L 295.299846 82.594854 
L 295.325612 82.814195 
L 297.403023 82.951283 
L 297.644583 84.870973 
L 298.176014 85.004607 
L 298.417573 87.017917 
L 298.949004 87.149748 
L 299.190563 89.009696 
L 299.721994 89.129246 
L 299.963554 90.491122 
L 300.498205 90.606639 
L 300.736544 92.025242 
L 302.817176 92.148929 
L 303.055515 93.202682 
L 303.586946 93.315755 
L 303.828505 94.628152 
L 304.37604 94.750155 
L 304.601495 95.7014 
L 305.14903 95.810063 
L 305.374486 96.564618 
L 305.967112 96.682 
L 306.147476 96.986892 
L 308.260316 97.101813 
L 308.466447 97.478332 
L 309.023644 97.592828 
L 309.239437 98.26334 
L 309.790193 98.371303 
L 310.012428 98.983768 
L 310.695236 99.085918 
L 310.785418 99.321514 
L 311.339394 99.435269 
L 311.497213 100.029964 
L 311.558408 99.885588 
L 313.661586 99.772809 
L 313.767872 99.466076 
L 313.803301 99.696046 
L 313.877379 100.224697 
L 314.40881 100.339685 
L 314.650369 101.302222 
L 315.1818 101.424229 
L 315.42336 103.065112 
L 315.967674 103.17674 
L 316.19635 104.150183 
L 316.734222 104.269204 
L 316.96934 105.209482 
L 319.046752 105.3286 
L 319.288311 106.435716 
L 319.858391 106.558117 
L 319.990444 106.532833 
L 320.061301 106.437204 
L 321.426917 106.54033 
L 321.607282 107.452523 
L 322.380272 107.383663 
L 324.502775 107.267547 
L 324.557528 107.144554 
L 324.612282 107.294645 
L 324.699243 107.535766 
L 325.259661 107.656057 
L 325.472233 108.220388 
L 326.032651 108.340095 
L 326.245224 108.620586 
L 326.944136 108.734014 
L 326.96346 108.745922 
L 327.00211 108.648171 
L 327.018214 108.607442 
L 327.588294 108.48881 
L 327.791204 108.392461 
L 330.042538 108.495347 
L 330.110175 108.576516 
L 330.796204 108.688576 
L 330.883165 108.745664 
L 331.51122 108.648964 
L 331.656156 108.163278 
L 332.216574 108.05021 
L 332.429146 107.517177 
L 333.047538 107.615959 
L 333.202136 107.955517 
L 335.314976 108.068703 
L 335.521107 108.366831 
L 338.410158 108.477224 
L 338.593743 108.457881 
L 338.613068 108.437572 
L 342.226798 108.324576 
L 342.384617 108.191717 
L 342.47802 108.159844 
L 343.891948 108.266707 
L 343.94026 108.300797 
L 343.953143 108.197015 
L 344.024 107.470045 
L 346.098191 107.337868 
L 346.342971 105.166592 
L 346.874402 105.02842 
L 347.115961 103.382883 
L 347.650613 103.256496 
L 347.88251 102.456642 
L 347.888952 102.455027 
L 352.504348 102.338487 
L 352.526893 102.30402 
L 354.845864 102.391797 
L 356.984471 102.50526 
L 357.164835 102.667947 
L 357.854085 102.555829 
L 357.87663 102.545144 
L 357.895955 102.644322 
L 357.937825 102.851613 
L 358.478919 102.974446 
L 358.697933 103.477276 
L 358.710816 103.495764 
L 359.277675 103.604671 
L 359.483806 104.200059 
L 360.06999 104.305626 
L 360.256796 104.864461 
L 362.34387 104.989974 
L 362.575767 105.602937 
L 363.139406 105.719548 
L 363.281121 105.789396 
L 364.108865 105.748694 
L 364.121748 105.752228 
L 364.691828 105.852932 
L 364.849647 106.019259 
L 364.894738 106.054661 
L 365.545338 106.166601 
L 365.667728 106.253849 
L 367.82888 106.368139 
L 367.986699 106.387801 
L 368.550338 106.493047 
L 368.75969 107.288166 
L 369.310445 107.40467 
L 369.355536 107.552948 
L 369.45216 107.495896 
L 369.53268 107.448354 
L 370.244475 107.335006 
L 370.30567 107.299883 
L 371.056115 107.19546 
L 371.07866 107.013153 
L 373.156072 106.881061 
L 373.397631 104.910102 
L 373.932283 104.794056 
L 374.170622 103.362813 
L 374.705273 103.246766 
L 374.943612 101.933178 
L 375.491147 101.813301 
L 375.716602 100.974161 
L 376.264137 100.854284 
L 376.309228 100.693858 
L 376.396189 100.784498 
L 376.489592 100.926858 
L 378.621757 101.040537 
L 378.808563 101.339348 
L 379.394748 101.452244 
L 379.56545 101.679636 
L 379.581554 101.649876 
L 380.158076 101.536791 
L 380.354544 101.305266 
L 380.966495 101.190379 
L 381.127534 100.973889 
L 381.707277 100.854353 
L 381.900524 100.751654 
L 386.296907 100.639356 
L 386.538466 99.862185 
L 387.28569 99.74946 
L 387.311457 99.736936 
L 389.604661 99.624211 
L 389.630427 99.611686 
L 390.271365 99.502652 
L 390.322898 99.210342 
L 390.380872 99.505301 
L 390.403418 99.620008 
L 390.94129 99.734714 
L 391.176408 101.114479 
L 391.71106 101.241427 
L 391.949398 102.715304 
L 392.490491 102.83057 
L 392.722389 103.805188 
L 394.860995 103.914107 
L 395.041359 104.32326 
L 395.595336 104.440211 
L 395.746713 104.5576 
L 395.81435 104.585342 
L 396.419859 104.475706 
L 396.58734 104.068428 
L 397.150979 103.950946 
L 397.36033 103.261964 
L 397.930411 103.147882 
L 398.036697 102.677107 
L 398.133321 102.096977 
L 400.217174 101.977728 
L 400.432967 100.976761 
L 400.452291 100.863885 
L 400.990164 100.737877 
L 401.225282 99.628502 
L 401.772817 99.513515 
L 401.998272 98.673693 
L 402.590898 98.55925 
L 402.710067 98.018608 
L 402.771262 97.665589 
L 403.309135 97.546889 
L 403.544253 96.184996 
L 405.621664 96.063534 
L 405.863223 94.387044 
L 406.404317 94.263919 
L 406.636214 93.13411 
L 407.164424 92.997842 
L 407.409204 91.434721 
L 407.943856 91.312967 
L 408.182194 90.095661 
L 408.729729 89.980672 
L 408.848898 89.223379 
L 408.955185 88.582399 
L 411.039038 88.458356 
L 411.225844 88.065627 
L 411.274155 88.021803 
L 411.866781 87.91507 
L 412.047146 86.696192 
L 412.585018 86.581115 
L 412.820136 85.687034 
L 413.354788 85.556682 
L 413.593126 83.98599 
L 414.127778 83.867896 
L 414.263051 83.499127 
L 414.29848 83.516688 
L 414.366117 83.51354 
L 416.659321 83.403267 
L 416.685088 82.903807 
L 417.206856 82.782049 
L 417.458078 78.982174 
L 417.99595 78.857192 
L 418.231068 77.175603 
L 418.762499 77.035065 
L 418.907435 74.892756 
L 419.004058 72.968851 
L 419.525827 72.848581 
L 419.777049 68.453082 
L 421.844798 68.3368 
L 422.09602 63.014785 
L 422.617788 62.866537 
L 422.86901 57.599791 
L 423.390778 57.460992 
L 423.642 52.432273 
L 424.163769 52.313331 
L 424.41499 48.137219 
L 424.93998 48.000718 
L 425.187981 44.874249 
L 427.262171 44.726454 
L 427.506952 42.320786 
L 428.041603 42.189472 
L 428.279942 40.230582 
L 428.811373 40.093962 
L 429.052932 37.212188 
L 429.581142 37.076426 
L 429.825922 34.745699 
L 430.357353 34.613225 
L 430.598913 33.041974 
L 432.70209 32.928504 
L 432.917884 32.337576 
L 433.452535 32.21528 
L 433.690874 30.709765 
L 434.225526 30.592151 
L 434.463864 29.326331 
L 434.998516 29.202585 
L 435.124127 28.608234 
L 435.191763 28.637659 
L 435.236854 28.673193 
L 435.897117 28.570558 
L 436.009845 27.957276 
L 438.096919 27.828867 
L 438.328816 26.593378 
L 438.879571 26.479548 
L 439.101806 25.52769 
L 439.668665 25.413209 
L 439.874796 24.86334 
L 440.415889 24.743025 
L 440.605916 24.372262 
L 440.647787 24.338239 
L 441.324153 24.230649 
L 441.420777 24.041051 
L 444.393569 24.140227 
L 444.512738 24.699335 
L 445.057052 24.82269 
L 445.285728 25.45836 
L 445.881575 25.569966 
L 446.058719 25.988421 
L 446.644903 26.101909 
L 446.831709 26.580833 
L 448.963874 26.690892 
L 449.15068 27.247855 
L 449.752968 27.355922 
L 449.8818 27.849953 
L 449.92367 28.049309 
L 450.464763 28.166842 
L 450.69666 29.408881 
L 451.237753 29.532327 
L 451.469651 30.544344 
L 451.997861 30.675213 
L 452.242641 32.155823 
L 454.329715 32.275286 
L 454.561612 33.574471 
L 455.102705 33.701774 
L 455.334602 35.134984 
L 455.875695 35.252804 
L 456.107592 36.191428 
L 456.687335 36.292336 
L 456.880583 37.731635 
L 457.415234 37.85505 
L 457.47965 38.199597 
L 457.566611 38.107188 
L 457.585936 38.100766 
L 457.637469 38.197236 
L 457.653573 38.254699 
L 459.747088 38.374594 
L 459.972544 39.322125 
L 460.516858 39.444487 
L 460.745534 40.016847 
L 461.29629 40.134504 
L 461.386472 40.364099 
L 461.421901 40.181679 
L 461.492758 39.87521 
L 461.518524 40.241783 
L 462.043514 40.374118 
L 462.291515 43.257895 
L 462.819725 43.389738 
L 463.064505 46.392421 
L 465.135475 46.530396 
L 465.344826 51.055607 
L 465.383476 52.009294 
L 465.905244 52.164747 
L 466.156466 57.932339 
L 466.678235 58.083803 
L 466.929456 64.327985 
L 467.451225 64.498181 
L 467.702447 70.343031 
L 468.224215 70.490546 
L 468.475437 75.754195 
L 470.543186 75.86869 
L 470.794408 79.973944 
L 471.319397 80.137162 
L 471.567398 83.51123 
L 472.092387 83.644112 
L 472.340388 86.381206 
L 472.871819 86.519246 
L 473.113379 88.819691 
L 473.64481 88.954015 
L 473.886369 91.826355 
L 475.96056 91.961715 
L 476.20534 94.226897 
L 476.736771 94.363305 
L 476.97833 95.899258 
L 477.509761 96.016004 
L 477.75132 97.52363 
L 478.27953 97.638676 
L 478.524311 99.696892 
L 479.058962 99.827327 
L 479.297301 101.251254 
L 481.374712 101.363279 
L 481.616272 102.77842 
L 482.160586 102.901052 
L 482.334509 104.052224 
L 482.389262 104.48406 
L 482.920693 104.604204 
L 483.162252 106.331836 
L 483.696904 106.449043 
L 483.935243 107.99285 
L 484.469894 108.126452 
L 484.708233 109.424847 
L 486.788865 109.538755 
L 487.027204 110.574092 
L 487.587622 110.693065 
L 487.687466 111.210467 
L 487.800194 111.875286 
L 488.338067 111.989899 
L 488.573184 112.947568 
L 489.117498 113.067399 
L 489.346175 113.658561 
L 489.945242 113.768356 
L 490.086957 114.302047 
L 490.119165 114.462437 
L 492.206239 114.58176 
L 492.438136 115.445071 
L 492.992112 115.565047 
L 493.211126 116.032284 
L 493.813414 116.149981 
L 493.935805 116.389535 
L 493.984117 116.640942 
L 494.52521 116.763541 
L 494.757107 117.637217 
L 495.304642 117.754261 
L 495.530097 118.224013 
L 497.649379 118.336817 
L 497.849068 118.571952 
L 498.496447 118.679961 
L 498.622058 118.952751 
L 499.192139 119.068226 
L 499.395049 119.343722 
L 500.068194 119.457662 
L 500.168039 119.627397 
L 500.789652 119.742168 
L 500.941029 119.838089 
L 503.063532 119.952794 
L 503.26 120.168753 
L 503.26 120.168753 
" clip-path="url(#p8405fef4ae)" style="fill: none; stroke-dasharray: 3.7,1.6; stroke-dashoffset: 0; stroke: #ff8c00"/>
   </g>
   <g id="line2d_32">
    <path d="M 32.25125 118.205699 
L 32.508913 117.745637 
L 33.101539 117.631059 
L 33.281904 117.501579 
L 34.60887 117.39229 
L 34.827884 117.010005 
L 35.404406 116.894241 
L 35.600875 116.701761 
L 37.73626 116.594067 
L 37.919845 115.772006 
L 38.46738 115.648696 
L 38.692836 114.960302 
L 39.259695 114.8459 
L 39.465826 114.548089 
L 40.799234 114.430509 
L 41.011807 114.026161 
L 43.124647 113.907793 
L 43.330777 113.592077 
L 44.023248 113.480094 
L 44.103768 113.319081 
L 44.725381 113.20187 
L 44.876758 113.148154 
L 45.459722 113.036437 
L 45.649748 112.488713 
L 46.206946 112.378209 
L 46.422739 111.910096 
L 48.564566 111.796906 
L 48.74171 111.665456 
L 49.488933 111.556856 
L 49.5147 111.516917 
L 50.107326 111.401219 
L 50.28769 111.249216 
L 50.883537 111.134217 
L 50.983381 110.857409 
L 51.06068 110.450738 
L 51.595332 110.330651 
L 51.833671 108.948923 
L 53.920744 108.826276 
L 54.152642 107.805838 
L 54.693735 107.689772 
L 54.925632 107.01871 
L 55.476387 106.898459 
L 55.698622 105.569907 
L 56.239715 105.444544 
L 56.471612 104.377127 
L 57.015926 104.254863 
L 57.244603 103.551208 
L 59.476612 103.43529 
L 59.563574 103.165353 
L 60.107888 103.042526 
L 60.275369 102.685576 
L 60.301135 102.723401 
L 60.336564 102.780041 
L 60.922748 102.893558 
L 61.109554 103.042644 
L 61.689297 102.935858 
L 61.882544 102.541868 
L 62.452625 102.429924 
L 62.655535 102.016978 
L 64.755492 101.917392 
L 64.974506 100.817286 
L 65.52204 100.694444 
L 65.747496 99.899101 
L 67.097008 99.786545 
L 67.18719 99.60634 
L 67.293476 99.335721 
L 67.853894 99.220914 
L 67.966622 98.891853 
L 68.034259 99.059947 
L 68.066467 99.137361 
L 70.176086 99.253837 
L 70.356451 99.688681 
L 70.385438 99.652915 
L 70.994167 99.537669 
L 71.158428 99.334994 
L 71.767158 99.219747 
L 71.931418 99.048943 
L 72.536927 98.936137 
L 72.701188 98.500466 
L 72.704409 98.488784 
L 73.28093 98.366386 
L 73.380775 98.414585 
L 73.477399 98.4227 
L 76.437307 98.311674 
L 76.56936 98.085926 
L 77.21996 97.971397 
L 77.34235 97.923898 
L 78.685421 97.81358 
L 78.888331 97.700593 
L 81.787044 97.80859 
L 81.980292 97.887882 
L 82.608347 97.997626 
L 82.753282 98.446348 
L 83.307259 98.558661 
L 83.526273 98.945651 
L 86.531272 99.061765 
L 86.618234 99.087425 
L 87.230184 99.194698 
L 87.391224 99.519139 
L 87.958084 99.637507 
L 88.164214 99.953223 
L 88.856685 100.065206 
L 88.937205 100.226218 
L 89.558818 100.343429 
L 89.710195 100.397146 
L 91.839139 100.508863 
L 92.029166 101.056586 
L 92.586363 101.167091 
L 92.802156 101.635204 
L 93.398003 101.748394 
L 93.575146 101.879844 
L 94.32237 101.988444 
L 94.348137 102.028383 
L 94.940763 102.144081 
L 95.121127 102.296083 
L 97.262954 102.411083 
L 97.362799 102.687891 
L 97.440098 103.094562 
L 97.974749 103.214649 
L 98.213088 104.596377 
L 98.754181 104.719024 
L 98.986078 105.739461 
L 99.527172 105.859994 
L 99.759069 106.842396 
L 100.306603 106.960461 
L 100.532059 108.52396 
L 102.612691 108.644273 
L 102.85103 109.945685 
L 103.392123 110.066024 
L 103.62402 111.10095 
L 104.161893 111.22001 
L 104.39701 112.355955 
L 104.934883 112.484733 
L 105.170001 113.65474 
L 105.714315 113.775164 
L 105.942991 114.794725 
L 108.026844 114.909209 
L 108.261962 115.920841 
L 108.809497 116.034014 
L 109.034952 116.652315 
L 109.588929 116.764391 
L 109.807942 118.055182 
L 110.345815 118.171672 
L 110.580933 119.20459 
L 111.128468 119.320532 
L 111.353923 119.957349 
L 113.463542 120.072671 
L 113.672894 120.730172 
L 114.230091 120.844766 
L 114.445884 121.559021 
L 114.999861 121.675332 
L 115.006302 121.68796 
L 115.102926 121.634591 
L 115.189887 121.586558 
L 115.218874 121.676199 
L 115.772851 121.795631 
L 115.991865 122.470883 
L 116.545841 122.590045 
L 116.764855 122.971421 
L 118.926007 123.084764 
L 119.06128 123.448093 
L 119.083826 123.539249 
L 119.773076 123.447993 
L 119.856816 123.390835 
L 120.529962 123.28262 
L 120.629806 123.166356 
L 121.225653 123.268836 
L 121.402797 123.803079 
L 121.98576 123.922695 
L 122.124254 124.236805 
L 122.175787 124.341249 
L 124.320835 124.457225 
L 124.494758 124.65363 
L 125.132475 124.766873 
L 125.267748 124.847807 
L 125.847491 124.965059 
L 126.040739 125.257341 
L 126.694559 125.372377 
L 126.813729 125.421141 
L 127.393472 125.52903 
L 127.586719 125.792429 
L 129.818729 125.900906 
L 129.90569 126.104831 
L 130.482212 126.221056 
L 130.67868 126.441892 
L 141.461895 126.369712 
L 141.500544 126.3171 
L 142.157586 126.201092 
L 142.273535 126.096766 
L 142.856498 125.979094 
L 143.046525 125.671543 
L 143.6778 125.557772 
L 143.819515 125.491148 
L 145.95168 125.381389 
L 146.138486 125.138375 
L 146.785865 125.022214 
L 146.911476 124.904112 
L 147.49444 124.787749 
L 147.684467 124.608137 
L 159.862284 124.691587 
L 160.052311 125.226994 
L 162.168372 125.34118 
L 162.371282 125.608037 
L 163.037986 125.719233 
L 163.144272 125.883734 
L 163.807756 125.99962 
L 163.917263 126.015036 
L 164.464798 126.122376 
L 164.690253 126.943668 
L 165.241009 127.056935 
L 165.463243 127.595152 
L 167.598629 127.708517 
L 167.782214 127.847145 
L 186.263124 127.976127 
L 186.333981 128.079449 
L 186.991023 128.195458 
L 187.106971 128.299783 
L 189.232695 128.412291 
L 189.425942 128.725007 
L 190.057218 128.838778 
L 190.198933 128.905402 
L 190.785117 129.015161 
L 190.971923 129.258174 
L 191.638627 129.373659 
L 192.517903 129.779832 
L 195.54867 129.6734 
L 195.609865 129.218685 
L 196.141295 129.102768 
L 196.382855 127.55128 
L 196.920727 127.424389 
L 197.155845 126.283368 
L 197.700159 126.165727 
L 197.928835 125.414947 
L 200.038455 125.296593 
L 200.186611 124.678652 
L 200.247806 124.327559 
L 200.785679 124.203889 
L 201.020797 122.963376 
L 201.558669 122.836211 
L 201.793787 121.600005 
L 202.331659 121.469781 
L 202.566777 120.272003 
L 203.111091 120.147982 
L 203.339768 119.346871 
L 205.442945 119.234155 
L 205.658738 118.743425 
L 206.215936 118.625017 
L 206.431729 118.093681 
L 206.969601 117.975199 
L 207.204719 116.921874 
L 207.752254 116.803487 
L 207.977709 116.149559 
L 208.55101 116.030843 
L 208.7507 115.487849 
L 210.873202 115.371439 
L 211.06967 115.032939 
L 211.633309 114.922622 
L 211.842661 114.612039 
L 212.415962 114.497129 
L 212.615651 114.173822 
L 213.188952 114.057766 
L 213.388641 113.632553 
L 214.093995 113.517858 
L 214.161632 113.471631 
L 216.313121 113.356319 
L 216.480602 113.272004 
L 234.214288 113.166011 
L 234.259379 113.092469 
L 234.87133 112.976076 
L 235.032369 112.887266 
L 235.612112 112.772219 
L 235.80536 112.576885 
L 237.972953 112.466838 
L 238.124331 112.00937 
L 238.687969 111.892395 
L 238.897321 111.547798 
L 239.618778 111.432283 
L 239.670311 111.406638 
L 240.382106 111.514907 
L 240.443301 111.969623 
L 240.974732 112.085539 
L 241.216292 113.637027 
L 243.300145 113.763918 
L 243.535263 114.90494 
L 244.079577 115.02258 
L 244.308253 115.77336 
L 244.871892 115.891714 
L 245.020048 116.509655 
L 245.081243 116.860748 
L 245.619116 116.984418 
L 245.854233 118.224931 
L 246.392106 118.352096 
L 246.627224 119.588302 
L 248.707856 119.70011 
L 248.946195 120.916304 
L 249.490509 121.040325 
L 249.719185 121.841436 
L 250.276382 121.954152 
L 250.492175 122.444882 
L 251.049372 122.56329 
L 251.265165 123.094626 
L 251.803038 123.213108 
L 252.038156 124.215459 
L 254.157437 124.331288 
L 254.357127 124.656692 
L 254.969077 124.771311 
L 255.078584 125.072198 
L 255.130117 125.155533 
L 255.777496 125.265667 
L 255.903107 125.402484 
L 256.534383 125.511295 
L 256.672877 125.623904 
L 256.676098 125.618245 
L 257.223632 125.497334 
L 257.449088 124.886129 
L 259.636006 124.770629 
L 259.768059 124.656556 
L 260.380009 124.543256 
L 260.541049 124.426323 
L 261.964639 124.320834 
L 262.08703 124.174757 
L 262.805266 124.06119 
L 262.86002 123.976864 
L 264.995406 123.861757 
L 265.178991 123.673722 
L 265.858578 123.562722 
L 265.951981 123.308403 
L 266.518841 123.19056 
L 266.724971 122.878986 
L 279.047725 122.91896 
L 279.092816 122.992502 
L 281.247526 123.10592 
L 281.411787 123.197704 
L 281.99153 123.312752 
L 282.184777 123.508085 
L 282.803169 123.615481 
L 282.957767 124.084181 
L 283.521406 124.201156 
L 283.730758 124.545753 
L 284.452215 124.661268 
L 284.503748 124.686913 
L 299.709111 124.803223 
L 299.847605 124.781511 
L 299.963554 124.789626 
L 300.675349 124.684741 
L 300.736544 124.696592 
L 302.968553 124.593667 
L 303.055515 124.144376 
L 304.459781 124.031556 
L 304.601495 123.988526 
L 306.076619 123.875642 
L 306.147476 123.869306 
L 309.902921 123.97876 
L 309.909362 123.986034 
L 309.957674 123.878158 
L 310.012428 123.755898 
L 310.579287 123.64083 
L 310.666248 123.468578 
L 310.737106 123.558762 
L 310.785418 123.620251 
L 311.390927 123.735031 
L 311.558408 123.93611 
L 343.795324 124.088809 
L 344.024 124.280454 
L 346.233464 124.39044 
L 346.342971 124.454092 
L 346.961363 124.563299 
L 347.115961 124.755085 
L 347.769782 124.852986 
L 347.888952 125.512439 
L 348.426824 125.637014 
L 348.661942 126.760386 
L 349.206256 126.875851 
L 349.434932 127.609465 
L 351.544552 127.724192 
L 351.753903 128.060268 
L 352.385179 128.17552 
L 352.526893 128.257958 
L 353.138844 128.367023 
L 353.299884 128.528481 
L 353.950484 128.636671 
L 354.072874 128.799922 
L 354.752461 128.905219 
L 354.845864 129.185475 
L 356.952263 129.301983 
L 357.164835 129.686442 
L 364.759465 129.638424 
L 364.894738 129.114996 
L 365.445494 128.996094 
L 365.667728 128.569736 
L 367.803114 128.454931 
L 367.986699 128.274076 
L 368.695274 128.160177 
L 368.75969 128.115889 
L 369.378082 128.009511 
L 369.53268 127.501305 
L 370.089877 127.388416 
L 370.30567 126.97389 
L 370.953049 126.858423 
L 371.049673 126.693802 
L 371.07866 126.422608 
L 373.152851 126.302078 
L 373.397631 124.037344 
L 373.925841 123.924429 
L 374.170622 121.968802 
L 374.702052 121.852782 
L 374.943612 120.299752 
L 375.481484 120.172717 
L 375.716602 119.030194 
L 376.260916 118.912368 
L 376.489592 118.160128 
L 378.599212 118.041466 
L 378.808563 117.688665 
L 379.501034 117.574311 
L 379.581554 117.512183 
L 380.138751 117.393225 
L 380.354544 116.922411 
L 380.911741 116.803453 
L 381.127534 116.332639 
L 381.684731 116.213681 
L 381.900524 115.767616 
L 384.064897 115.652167 
L 384.219495 115.573829 
L 384.837888 115.45838 
L 384.992486 115.345558 
L 385.73971 115.240522 
L 385.765476 115.101508 
L 386.303348 114.983148 
L 386.538466 113.93109 
L 387.086001 113.812877 
L 387.311457 113.160165 
L 389.430738 113.041761 
L 389.630427 112.788731 
L 390.297132 112.678474 
L 390.403418 112.484627 
L 390.98316 112.368454 
L 391.176408 112.132464 
L 391.888203 112.016532 
L 391.949398 111.948554 
L 392.638648 111.832061 
L 392.706285 111.725297 
L 392.722389 111.677042 
L 394.828787 111.561753 
L 395.041359 111.274259 
L 395.646868 111.166903 
L 395.81435 110.738034 
L 396.365105 110.616118 
L 396.58734 109.734027 
L 397.138096 109.612112 
L 397.36033 108.690075 
L 397.907865 108.572043 
L 398.133321 107.916059 
L 400.249381 107.802346 
L 400.452291 107.308531 
L 401.022372 107.194818 
L 401.225282 106.703188 
L 401.795362 106.588414 
L 401.998272 106.269441 
L 402.674639 106.154667 
L 402.771262 105.880049 
L 403.334901 105.763807 
L 403.544253 105.07605 
L 405.631326 104.962879 
L 405.863223 104.124112 
L 406.420421 104.007155 
L 406.636214 103.487842 
L 407.186969 103.365468 
L 407.409204 102.963645 
L 407.995388 102.856615 
L 408.182194 102.543097 
L 408.77482 102.439664 
L 408.955185 101.80729 
L 411.071246 101.689677 
L 411.103453 101.640336 
L 411.158207 101.754262 
L 411.274155 102.011693 
L 411.834573 102.131903 
L 412.034263 102.339045 
L 412.047146 102.355834 
L 412.649434 102.468985 
L 412.820136 102.633245 
L 413.528711 102.747144 
L 413.593126 102.791432 
L 414.211519 102.89781 
L 414.366117 103.406016 
L 416.469294 103.518905 
L 416.659321 103.898368 
L 416.685088 103.881323 
L 417.371116 103.768037 
L 417.412987 103.740249 
L 417.42587 103.847875 
L 417.458078 104.133682 
L 417.986288 104.249753 
L 418.231068 106.230012 
L 418.762499 106.358092 
L 419.004058 107.877327 
L 419.548372 108.001498 
L 419.777049 108.981067 
L 421.867343 109.105237 
L 422.09602 110.064876 
L 422.646775 110.185322 
L 422.86901 110.887913 
L 423.432649 111.006576 
L 423.642 111.359377 
L 424.334471 111.47373 
L 424.41499 111.535858 
L 424.972188 111.654816 
L 425.187981 112.125631 
L 427.291158 112.244588 
L 427.506952 112.715403 
L 428.064149 112.83436 
L 428.279942 113.280426 
L 428.898334 113.395875 
L 429.052932 113.474212 
L 429.671324 113.589661 
L 429.825922 113.702483 
L 430.573146 113.80752 
L 430.598913 113.946534 
L 432.682766 114.064894 
L 432.917884 115.116951 
L 433.465418 115.235164 
L 433.690874 115.887877 
L 434.264175 116.00628 
L 434.463864 116.25931 
L 435.130568 116.369568 
L 435.236854 116.563415 
L 435.816597 116.679587 
L 436.009845 116.915577 
L 438.2644 117.028578 
L 438.328816 117.099487 
L 439.018065 117.215981 
L 439.085702 117.322744 
L 439.101806 117.370999 
L 439.662224 117.486289 
L 439.874796 117.773782 
L 440.480305 117.881138 
L 440.647787 118.310008 
L 441.198542 118.431923 
L 441.420777 119.314014 
L 443.517513 119.435929 
L 443.739748 120.357967 
L 444.287282 120.475998 
L 444.512738 121.131982 
L 445.082818 121.245695 
L 445.285728 121.73951 
L 445.855809 121.853223 
L 446.058719 122.344853 
L 446.628799 122.459627 
L 446.831709 122.7786 
L 449.050835 122.888152 
L 449.15068 123.167993 
L 449.714318 123.284235 
L 449.92367 123.971991 
L 450.464763 124.085162 
L 450.69666 124.923929 
L 451.253857 125.040886 
L 451.469651 125.560199 
L 452.020406 125.682573 
L 452.242641 126.084396 
L 454.374806 126.191426 
L 454.561612 126.504944 
L 455.154238 126.608377 
L 455.334602 127.240751 
L 455.904682 127.358365 
L 456.107592 127.721352 
L 456.771076 127.834983 
L 456.880583 127.922471 
L 462.062838 128.046401 
L 462.291515 128.291751 
L 462.92279 128.399799 
L 463.064505 128.580685 
L 465.286852 128.686927 
L 465.383476 129.001913 
L 465.940673 129.12096 
L 466.156466 129.567223 
L 466.774858 129.681489 
L 466.929456 129.752971 
L 500.941029 129.8 
L 503.26 129.8 
L 503.26 129.8 
" clip-path="url(#p8405fef4ae)" style="fill: none; stroke: #ff8c00; stroke-linecap: square"/>
   </g>
   <g id="patch_3">
    <path d="M 32.25125 129.8 
L 32.25125 3.96 
" style="fill: none; stroke: #000000; stroke-width: 0.8; stroke-linejoin: miter; stroke-linecap: square"/>
   </g>
   <g id="patch_4">
    <path d="M 503.26 129.8 
L 503.26 3.96 
" style="fill: none; stroke: #000000; stroke-width: 0.8; stroke-linejoin: miter; stroke-linecap: square"/>
   </g>
   <g id="patch_5">
    <path d="M 32.25125 129.8 
L 503.26 129.8 
" style="fill: none; stroke: #000000; stroke-width: 0.8; stroke-linejoin: miter; stroke-linecap: square"/>
   </g>
   <g id="patch_6">
    <path d="M 32.25125 3.96 
L 503.26 3.96 
" style="fill: none; stroke: #000000; stroke-width: 0.8; stroke-linejoin: miter; stroke-linecap: square"/>
   </g>
  </g>
  <g id="axes_2">
   <g id="matplotlib.axis_3">
    <g id="ytick_7">
     <g id="line2d_33">
      <defs>
       <path id="m06b0133a76" d="M 0 0 
L 3.5 0 
" style="stroke: #000000; stroke-width: 0.8"/>
      </defs>
      <g>
       <use xlink:href="#m06b0133a76" x="503.26" y="129.8" style="stroke: #000000; stroke-width: 0.8"/>
      </g>
     </g>
     <g id="text_18">
      <text style="font: 10px 'Times New Roman'; text-anchor: start" x="510.26" y="133.271875" transform="rotate(-0 510.26 133.271875)">0</text>
     </g>
    </g>
    <g id="ytick_8">
     <g id="line2d_34">
      <g>
       <use xlink:href="#m06b0133a76" x="503.26" y="104.632" style="stroke: #000000; stroke-width: 0.8"/>
      </g>
     </g>
     <g id="text_19">
      <text style="font: 10px 'Times New Roman'; text-anchor: start" x="510.26" y="108.103875" transform="rotate(-0 510.26 108.103875)">20</text>
     </g>
    </g>
    <g id="ytick_9">
     <g id="line2d_35">
      <g>
       <use xlink:href="#m06b0133a76" x="503.26" y="79.464" style="stroke: #000000; stroke-width: 0.8"/>
      </g>
     </g>
     <g id="text_20">
      <text style="font: 10px 'Times New Roman'; text-anchor: start" x="510.26" y="82.935875" transform="rotate(-0 510.26 82.935875)">40</text>
     </g>
    </g>
    <g id="ytick_10">
     <g id="line2d_36">
      <g>
       <use xlink:href="#m06b0133a76" x="503.26" y="54.296" style="stroke: #000000; stroke-width: 0.8"/>
      </g>
     </g>
     <g id="text_21">
      <text style="font: 10px 'Times New Roman'; text-anchor: start" x="510.26" y="57.767875" transform="rotate(-0 510.26 57.767875)">60</text>
     </g>
    </g>
    <g id="ytick_11">
     <g id="line2d_37">
      <g>
       <use xlink:href="#m06b0133a76" x="503.26" y="29.128" style="stroke: #000000; stroke-width: 0.8"/>
      </g>
     </g>
     <g id="text_22">
      <text style="font: 10px 'Times New Roman'; text-anchor: start" x="510.26" y="32.599875" transform="rotate(-0 510.26 32.599875)">80</text>
     </g>
    </g>
    <g id="ytick_12">
     <g id="line2d_38">
      <g>
       <use xlink:href="#m06b0133a76" x="503.26" y="3.96" style="stroke: #000000; stroke-width: 0.8"/>
      </g>
     </g>
     <g id="text_23">
      <text style="font: 10px 'Times New Roman'; text-anchor: start" x="510.26" y="7.431875" transform="rotate(-0 510.26 7.431875)">100</text>
     </g>
    </g>
    <g id="text_24">
     <text style="fill: #4169e1; font: 700 12px 'Times New Roman'; text-anchor: middle" x="537.22875" y="66.88" transform="rotate(-90 537.22875 66.88)">Resource Utilization (%)</text>
    </g>
   </g>
   <g id="line2d_39">
    <path d="M 32.25125 100.017034 
L 32.489589 98.427389 
L 32.508913 98.319193 
L 33.040344 98.202675 
L 33.281904 96.610948 
L 33.822997 96.496511 
L 34.054894 95.481135 
L 34.589546 95.362536 
L 34.827884 93.951829 
L 35.365757 93.837392 
L 35.600875 92.576495 
L 37.681507 92.453734 
L 37.919845 91.009737 
L 38.457718 90.893218 
L 38.692836 89.77797 
L 39.227487 89.669774 
L 39.465826 88.242422 
L 39.997257 88.119661 
L 40.238816 86.711036 
L 40.773468 86.600759 
L 41.011807 85.215021 
L 43.089218 85.104745 
L 43.330777 83.483889 
L 43.862208 83.373612 
L 44.103768 81.686175 
L 44.635199 81.555091 
L 44.876758 79.91759 
L 45.408189 79.805233 
L 45.649748 78.275927 
L 46.1844 78.165651 
L 46.422739 76.829849 
L 48.506592 76.715411 
L 48.74171 75.479483 
L 49.276361 75.371287 
L 49.5147 73.981388 
L 50.049351 73.858627 
L 50.28769 72.368854 
L 50.819121 72.246094 
L 51.06068 70.504558 
L 51.592111 70.373475 
L 51.833671 68.629858 
L 53.911082 68.517501 
L 54.152642 66.873758 
L 54.687293 66.757239 
L 54.925632 65.569167 
L 55.518258 65.452648 
L 55.698622 65.130142 
L 56.30091 65.015704 
L 56.471612 64.788909 
L 57.118992 64.678632 
L 57.244603 64.503854 
L 59.541028 64.61205 
L 59.563574 64.630776 
L 60.123992 64.743134 
L 60.259265 64.994897 
L 60.317239 64.94496 
L 60.336564 64.932476 
L 60.909865 64.820119 
L 61.067684 64.535065 
L 61.109554 64.582921 
L 61.747271 64.695278 
L 61.882544 65.048995 
L 62.455846 65.167594 
L 62.655535 65.400631 
L 64.816687 65.292435 
L 64.961622 65.21545 
L 64.974506 65.230015 
L 65.557469 65.342372 
L 65.663755 65.390228 
L 65.699184 65.344452 
L 65.747496 65.286193 
L 67.164645 65.165513 
L 67.293476 65.165513 
L 67.921531 65.055237 
L 68.066467 64.799312 
L 70.214736 64.684874 
L 70.385438 64.37069 
L 71.915314 64.254172 
L 71.931418 64.222962 
L 72.520823 64.104362 
L 72.704409 63.67366 
L 73.255164 63.561303 
L 73.477399 62.764399 
L 75.583797 62.6458 
L 75.79637 62.065288 
L 76.356788 61.950851 
L 76.56936 61.274627 
L 77.194194 61.149786 
L 77.34235 60.922991 
L 77.947859 60.802311 
L 78.067029 60.471481 
L 78.115341 60.261332 
L 78.656434 60.144813 
L 78.888331 59.042049 
L 81.007613 58.92345 
L 81.207302 58.407439 
L 81.754836 58.284679 
L 81.980292 57.564761 
L 82.54071 57.446161 
L 82.753282 56.86773 
L 83.297596 56.755373 
L 83.526273 55.816983 
L 84.102794 55.692142 
L 84.299263 55.271843 
L 86.453973 55.157405 
L 86.618234 54.601861 
L 87.168989 54.487423 
L 87.391224 53.800796 
L 88.045045 53.682197 
L 88.164214 53.474128 
L 88.843802 53.35761 
L 88.91788 53.305593 
L 88.937205 53.330561 
L 91.942204 53.245253 
L 92.029166 53.105847 
L 92.589584 52.991409 
L 92.802156 52.579433 
L 93.38512 52.462914 
L 93.575146 52.313104 
L 94.177435 52.202828 
L 94.312708 52.138327 
L 94.344916 52.163295 
L 94.348137 52.165376 
L 97.20498 52.283975 
L 97.440098 52.675144 
L 98.164776 52.57111 
L 98.213088 52.458753 
L 99.549717 52.338073 
L 99.759069 52.323508 
L 100.338811 52.433784 
L 100.532059 52.708435 
L 102.683549 52.818712 
L 102.85103 53.041345 
L 103.588591 53.151622 
L 103.62402 53.199478 
L 104.303607 53.095443 
L 104.39701 53.033022 
L 108.081597 52.924827 
L 108.261962 52.652257 
L 108.915783 52.533657 
L 109.034952 52.473317 
L 110.332932 52.36096 
L 110.458543 52.354718 
L 110.468205 52.367202 
L 110.580933 52.454591 
L 115.041731 52.583594 
L 115.218874 52.806228 
L 115.97254 52.695951 
L 115.991865 52.658499 
L 116.587711 52.544061 
L 116.764855 52.246522 
L 118.922786 52.136246 
L 119.083826 51.96563 
L 119.705439 52.071745 
L 119.856816 52.323508 
L 120.459104 52.433784 
L 120.629806 52.714677 
L 121.203108 52.827034 
L 121.402797 53.182832 
L 124.385251 53.326399 
L 124.494758 53.636422 
L 125.055176 53.75294 
L 125.267748 54.32721 
L 125.853933 54.439567 
L 126.040739 54.834898 
L 126.694559 54.955578 
L 126.791183 55.14284 
L 126.813729 55.217745 
L 127.419238 55.342586 
L 127.586719 55.590188 
L 129.677014 55.702545 
L 129.90569 56.445351 
L 130.627148 56.559788 
L 130.67868 56.659661 
L 131.251981 56.772019 
L 131.451671 57.173591 
L 132.008868 57.283868 
L 132.224661 57.991302 
L 132.797962 58.109901 
L 132.997651 58.573894 
L 135.191011 58.690413 
L 135.316622 58.752833 
L 136.830395 58.852706 
L 136.862603 58.929692 
L 137.435904 59.042049 
L 137.635593 59.31878 
L 140.569735 59.223069 
L 140.727554 58.956741 
L 142.022313 58.852706 
L 142.273535 58.303405 
L 142.956343 58.411601 
L 143.046525 58.453214 
L 146.702125 58.345019 
L 146.911476 57.95593 
L 147.652259 57.851896 
L 147.684467 57.80404 
L 148.299638 57.687521 
L 148.457457 57.248496 
L 149.0372 57.127816 
L 149.230447 56.730405 
L 151.362612 56.607644 
L 151.549418 56.395414 
L 152.116278 56.280976 
L 152.322408 55.933501 
L 153.030983 55.821144 
L 153.095399 55.690061 
L 153.652596 55.573542 
L 153.868389 54.830737 
L 154.428807 54.712138 
L 154.641379 54.160755 
L 156.779986 54.044237 
L 156.96035 53.763344 
L 157.668925 53.87154 
L 157.73334 53.971413 
L 158.335629 54.08377 
L 158.506331 54.248144 
L 159.137606 54.14411 
L 159.240671 54.042156 
L 159.279321 54.067124 
L 159.913817 54.177401 
L 160.052311 54.239821 
L 162.941362 54.350098 
L 163.144272 54.491585 
L 163.707911 54.601861 
L 163.917263 55.317618 
L 164.468018 55.432056 
L 164.690253 55.885646 
L 165.292541 55.998003 
L 165.463243 56.208152 
L 167.5632 56.318429 
L 167.782214 56.780341 
L 168.448918 56.888537 
L 168.555204 57.044589 
L 169.128506 57.156946 
L 169.328195 57.47321 
L 169.994899 57.583487 
L 170.101185 57.716651 
L 170.758227 57.831089 
L 170.874175 57.858138 
L 172.980574 57.968414 
L 173.193146 58.40952 
L 173.795434 58.517716 
L 173.966136 58.748672 
L 174.694036 58.638396 
L 174.739127 58.655041 
L 175.383285 58.769479 
L 175.512117 58.817335 
L 179.145171 58.707058 
L 179.377069 57.997544 
L 180.784555 58.095336 
L 180.8844 58.170241 
L 180.923049 58.120304 
L 183.8121 57.98714 
L 184.01501 57.733296 
L 184.697818 57.62302 
L 184.788001 57.433677 
L 185.493354 57.53147 
L 185.554549 57.560599 
L 185.560991 57.552276 
L 186.192266 57.437839 
L 186.333981 57.296352 
L 189.245578 57.165269 
L 189.396955 57.148623 
L 189.425942 57.136139 
L 190.044335 57.023782 
L 190.198933 56.953038 
L 190.897845 56.840681 
L 190.971923 56.819874 
L 191.69016 56.711679 
L 191.744913 56.665903 
L 192.347201 56.555627 
L 192.517903 56.393333 
L 195.471371 56.50361 
L 195.609865 56.62637 
L 196.212153 56.520255 
L 196.373193 56.428705 
L 196.382855 56.441189 
L 197.017351 56.555627 
L 197.155845 56.678388 
L 197.857978 56.788664 
L 197.928835 56.925989 
L 200.064221 57.042508 
L 200.247806 57.56268 
L 200.943498 57.68336 
L 201.020797 57.943446 
L 202.515245 57.86646 
L 202.566777 57.799878 
L 203.288235 57.689602 
L 203.339768 57.62302 
L 205.50414 57.727054 
L 205.658738 58.037077 
L 206.351209 58.153595 
L 206.431729 58.236823 
L 207.00503 58.347099 
L 207.204719 58.756995 
L 207.77802 58.869352 
L 207.977709 59.035807 
L 208.679842 58.933853 
L 208.7507 58.732026 
L 210.840994 58.62175 
L 211.06967 57.77491 
L 211.649413 57.660472 
L 211.842661 57.552276 
L 212.396637 57.444081 
L 212.599547 56.936393 
L 212.615651 56.946796 
L 213.282355 56.840681 
L 213.388641 56.667984 
L 214.058566 56.555627 
L 214.161632 56.29138 
L 216.3099 56.176942 
L 216.480602 55.875242 
L 217.04102 55.764966 
L 217.253593 55.361312 
L 217.807569 55.255197 
L 218.026583 54.635152 
L 218.599884 54.520714 
L 218.799573 54.060882 
L 219.359991 53.944364 
L 219.572564 53.35761 
L 221.678962 53.239011 
L 221.891534 52.922746 
L 222.535693 52.81247 
L 222.664525 52.546142 
L 223.266813 52.429623 
L 223.437515 52.331831 
L 224.133206 52.431704 
L 224.210505 52.527415 
L 224.857885 52.639772 
L 224.983496 52.837438 
L 227.228388 52.945634 
L 227.302466 53.089201 
L 228.036807 53.2078 
L 228.075457 53.26606 
L 228.635875 53.380497 
L 228.81946 53.632261 
L 228.845226 53.615615 
L 228.848447 53.613534 
L 229.466839 53.72173 
L 229.621437 54.05464 
L 230.181855 54.166997 
L 230.394428 54.564409 
L 232.587788 54.676766 
L 232.713399 54.974304 
L 234.011378 55.099146 
L 234.259379 55.841951 
L 234.83268 55.956389 
L 235.032369 56.145731 
L 238.12111 56.035455 
L 238.124331 56.033374 
L 238.829684 56.139489 
L 238.897321 56.266411 
L 241.04559 56.391253 
L 241.216292 56.432866 
L 243.467626 56.543143 
L 243.535263 56.649258 
L 245.003944 56.557708 
L 245.081243 56.507771 
L 245.683531 56.615967 
L 245.773714 56.705437 
L 245.818805 56.609725 
L 245.854233 56.520255 
L 248.714298 56.376688 
L 248.823804 56.29346 
L 248.875337 56.345478 
L 248.946195 56.403737 
L 250.286044 56.29138 
L 250.492175 55.685899 
L 251.042931 55.573542 
L 251.265165 54.905642 
L 251.825583 54.789123 
L 252.038156 54.304323 
L 254.138113 54.187804 
L 254.357127 53.848652 
L 254.969077 53.736295 
L 255.036714 53.746698 
L 255.059259 53.792474 
L 255.130117 53.948525 
L 255.690535 54.065044 
L 255.903107 54.618507 
L 256.48285 54.735025 
L 256.676098 54.826575 
L 259.52972 54.924368 
L 259.768059 55.228148 
L 260.460529 55.338425 
L 260.521724 55.405007 
L 260.541049 55.392522 
L 261.913107 55.496557 
L 262.08703 55.652608 
L 262.65711 55.760804 
L 262.86002 56.002164 
L 265.008289 56.11244 
L 265.178991 56.607644 
L 265.794162 56.724163 
L 265.919773 56.936393 
L 265.951981 57.01962 
L 266.512399 57.136139 
L 266.724971 57.417032 
L 268.177549 57.323401 
L 268.267731 57.238093 
L 268.270952 57.240173 
L 270.419221 57.35045 
L 270.589923 57.508582 
L 271.214757 57.400386 
L 271.362913 57.202721 
L 271.965201 57.092444 
L 272.087591 56.755373 
L 272.135903 56.630532 
L 272.741412 56.509852 
L 272.908894 56.224798 
L 273.482195 56.11244 
L 273.681884 55.908533 
L 275.846257 55.798257 
L 276.000855 55.658851 
L 276.63213 55.548574 
L 276.773845 55.223987 
L 277.334263 55.109549 
L 277.546835 54.53944 
L 278.271514 54.420841 
L 278.319826 54.318888 
L 278.86736 54.20653 
L 279.054166 53.75086 
L 279.092816 53.775828 
L 281.295838 53.886104 
L 281.411787 53.925638 
L 281.972205 54.037995 
L 282.146128 54.331372 
L 282.184777 54.285597 
L 282.84504 54.38547 
L 282.957767 54.633071 
L 286.616588 54.772478 
L 286.822719 55.119952 
L 287.511968 55.23231 
L 287.595709 55.269762 
L 288.175452 55.155324 
L 288.368699 54.801607 
L 288.970988 54.68925 
L 289.14169 54.556086 
L 289.882472 54.666362 
L 289.91468 54.716299 
L 292.06939 54.610184 
L 292.14991 54.566489 
L 292.18856 54.65804 
L 292.233651 54.74959 
L 292.794069 54.864028 
L 293.006641 55.336344 
L 293.567059 55.452862 
L 293.686228 55.631802 
L 293.737761 55.594349 
L 293.779631 55.569381 
L 295.07439 55.679657 
L 295.325612 56.339235 
L 297.473881 56.451593 
L 297.612375 56.80531 
L 297.644583 56.921828 
L 298.217884 57.038347 
L 298.401469 57.152784 
L 298.417573 57.161107 
L 299.78641 57.050831 
L 299.963554 56.80739 
L 300.607712 56.913505 
L 300.736544 57.10909 
L 303.010424 57.221447 
L 303.055515 57.279706 
L 303.628816 57.392063 
L 303.796297 57.606374 
L 303.828505 57.585567 
L 305.348719 57.687521 
L 305.374486 57.724974 
L 305.963891 57.839411 
L 306.147476 58.201451 
L 309.162138 58.315889 
L 309.239437 58.434488 
L 310.59217 58.553087 
L 310.785418 58.879755 
L 311.387706 58.992112 
L 311.558408 59.22723 
L 313.706677 59.339587 
L 313.877379 59.553898 
L 314.453901 59.666255 
L 314.624603 59.863921 
L 314.650369 59.847275 
L 315.407256 59.736999 
L 315.42336 59.716192 
L 316.8856 59.813984 
L 316.96934 59.901373 
L 319.211012 60.01373 
L 319.288311 60.082393 
L 320.7892 60.205153 
L 320.834292 60.221799 
L 321.578295 60.332075 
L 321.607282 60.369528 
L 322.212791 60.483966 
L 322.380272 60.675389 
L 324.473788 60.783585 
L 324.699243 61.449405 
L 326.045534 61.570085 
L 326.245224 61.651231 
L 326.847512 61.540955 
L 327.018214 61.432759 
L 329.862174 61.334967 
L 330.065084 61.334967 
L 330.110175 61.366177 
L 330.683476 61.474373 
L 330.883165 61.751104 
L 332.355068 61.871784 
L 332.429146 61.988303 
L 333.008889 62.104821 
L 333.202136 62.441893 
L 335.437366 62.556331 
L 335.521107 62.552169 
L 336.864178 62.662446 
L 336.983347 62.889241 
L 337.047763 62.837224 
L 337.067088 62.812255 
L 337.650051 62.697817 
L 337.840078 62.37323 
L 338.442366 62.260873 
L 338.613068 62.215098 
L 342.255785 62.104821 
L 342.47802 61.950851 
L 343.080308 61.838493 
L 343.25101 61.761508 
L 343.824311 61.869704 
L 344.017559 62.002868 
L 344.024 62.007029 
L 346.13362 62.119386 
L 346.342971 62.566734 
L 349.238464 62.697817 
L 349.434932 62.91837 
L 351.692708 63.030728 
L 351.753903 63.145165 
L 352.330425 63.259603 
L 352.504348 63.307459 
L 352.526893 63.292894 
L 353.963367 63.394848 
L 354.072874 63.376122 
L 357.905618 63.498882 
L 357.937825 63.532173 
L 358.581984 63.64245 
L 358.710816 63.813066 
L 359.364637 63.927504 
L 359.483806 64.141815 
L 360.098978 64.258333 
L 360.256796 64.528823 
L 362.482364 64.422708 
L 362.575767 64.326996 
L 363.210263 64.43103 
L 363.348758 64.58084 
L 364.118527 64.691116 
L 364.121748 64.697358 
L 364.836764 64.815958 
L 364.894738 64.886701 
L 367.870751 65.017784 
L 367.986699 65.165513 
L 368.56 65.273709 
L 368.75969 65.617022 
L 370.154293 65.72938 
L 370.299229 65.768913 
L 370.30567 65.773074 
L 373.958049 65.895835 
L 374.144855 66.318214 
L 374.170622 66.357747 
L 374.782572 66.472185 
L 374.943612 66.490911 
L 375.600654 66.382716 
L 375.716602 66.299488 
L 378.567004 66.386877 
L 378.686173 66.42641 
L 378.71194 66.393119 
L 378.808563 66.295327 
L 380.196725 66.39728 
L 380.354544 66.499234 
L 381.76203 66.384796 
L 381.877979 66.289085 
L 381.900524 66.318214 
L 384.032689 66.428491 
L 384.219495 66.838386 
L 385.546462 66.742675 
L 385.765476 66.449298 
L 386.438622 66.559574 
L 386.538466 66.642802 
L 389.533804 66.765562 
L 389.630427 66.803015 
L 391.137758 66.692738 
L 391.176408 66.632398 
L 391.749709 66.520041 
L 391.949398 66.278681 
L 394.84167 66.160082 
L 395.041359 65.704411 
L 395.643648 65.596216 
L 395.81435 65.371501 
L 396.387651 65.263306 
L 396.58734 64.917911 
L 397.160641 64.807635 
L 397.36033 64.530903 
L 398.020593 64.639099 
L 398.133321 64.597485 
L 400.268706 64.483048 
L 400.452291 64.139734 
L 401.025593 64.025296 
L 401.225282 63.800582 
L 401.911311 63.684063 
L 401.998272 63.509286 
L 402.594119 63.390687 
L 402.771262 62.995356 
L 403.418642 62.876757 
L 403.544253 62.718624 
L 405.692521 62.606267 
L 405.863223 62.339939 
L 407.164424 62.229663 
L 407.409204 61.944608 
L 407.976064 61.832251 
L 408.182194 61.397388 
L 408.906873 61.280869 
L 408.955185 61.166431 
L 411.074466 61.049913 
L 411.235506 60.975008 
L 411.879665 60.870974 
L 412.047146 60.265493 
L 412.601122 60.144813 
L 412.820136 59.522688 
L 413.374112 59.40825 
L 413.593126 58.817335 
L 414.143882 58.704978 
L 414.366117 58.157757 
L 416.6561 58.04748 
L 416.685088 57.949688 
L 417.232622 57.831089 
L 417.458078 57.01754 
L 418.031379 56.901021 
L 418.231068 56.316348 
L 418.781824 56.197749 
L 419.004058 55.228148 
L 419.596684 55.103307 
L 419.777049 54.824495 
L 421.89633 54.707976 
L 422.09602 54.160755 
L 422.672541 54.046317 
L 422.86901 53.688439 
L 423.426207 53.574001 
L 423.642 53.139138 
L 424.257172 53.0247 
L 424.41499 52.926907 
L 425.175098 53.030942 
L 425.187981 53.047587 
L 427.416769 52.941472 
L 427.506952 52.941472 
L 428.122123 52.833276 
L 428.279942 52.797905 
L 428.92088 52.69179 
L 429.052932 52.437946 
L 429.69387 52.319347 
L 429.77439 52.315185 
L 429.800156 52.373444 
L 429.825922 52.437946 
L 430.598913 52.354718 
L 432.747182 52.2382 
L 432.917884 52.190344 
L 433.520172 52.302701 
L 433.649004 52.327669 
L 433.661887 52.311024 
L 433.690874 52.256926 
L 434.264175 52.144569 
L 434.393007 52.003082 
L 434.428435 52.061341 
L 434.463864 52.130004 
L 435.024282 52.244442 
L 435.207867 52.417139 
L 435.810156 52.306862 
L 435.971195 52.279813 
L 438.22575 52.171618 
L 438.274062 52.127923 
L 438.328816 52.198667 
L 439.800718 52.313104 
L 439.865134 52.423381 
L 439.874796 52.417139 
L 440.477084 52.525335 
L 440.647787 52.627288 
L 441.250075 52.737565 
L 441.420777 52.841599 
L 445.057052 52.731323 
L 445.243858 52.739646 
L 445.285728 52.766694 
L 446.622357 52.664741 
L 446.805942 52.356799 
L 446.831709 52.373444 
L 448.970315 52.267329 
L 449.15068 52.140407 
L 450.600036 52.254845 
L 450.69666 52.306862 
L 451.431001 52.196586 
L 451.469651 52.190344 
L 452.104147 52.296459 
L 452.242641 52.539899 
L 454.339377 52.650176 
L 454.561612 53.245253 
L 455.170342 53.361771 
L 455.334602 53.60105 
L 455.911124 53.713407 
L 456.062501 53.769586 
L 456.780738 53.877782 
L 456.880583 54.085851 
L 457.469988 54.198208 
L 457.637469 54.593538 
L 457.653573 54.635152 
L 459.75353 54.751671 
L 459.972544 55.473669 
L 460.574832 55.592269 
L 460.745534 55.973034 
L 461.492758 56.08123 
L 461.518524 56.158216 
L 462.062838 56.268492 
L 462.291515 57.090364 
L 462.900244 57.202721 
L 463.064505 57.647988 
L 465.161241 57.764507 
L 465.383476 58.538522 
L 465.972881 58.655041 
L 466.156466 58.946337 
L 466.707222 59.058694 
L 466.929456 59.784854 
L 467.502758 59.899292 
L 467.702447 60.128168 
L 468.298293 60.240525 
L 468.475437 60.548467 
L 471.338722 60.452755 
L 471.567398 59.901373 
L 472.968443 60.003327 
L 473.113379 60.061586 
L 475.989547 60.171862 
L 476.179574 60.240525 
L 476.20534 60.230122 
L 476.807628 60.342479 
L 476.97833 60.43819 
L 477.744879 60.334156 
L 477.75132 60.309188 
L 478.295634 60.196831 
L 478.475999 59.820226 
L 478.501765 59.838952 
L 478.524311 59.853517 
L 481.368271 59.755725 
L 481.613051 59.618399 
L 481.616272 59.62048 
L 482.199235 59.730757 
L 482.344171 59.736999 
L 482.956122 59.843114 
L 483.104278 60.1032 
L 483.162252 60.030376 
L 484.473115 60.130249 
L 484.708233 60.321672 
L 487.70035 60.431948 
L 487.800194 60.452755 
L 488.489444 60.563032 
L 488.573184 60.585919 
L 489.262434 60.696196 
L 489.346175 60.802311 
L 489.919476 60.914668 
L 490.119165 61.13106 
L 492.238447 61.241336 
L 492.438136 61.513906 
L 492.998554 61.624183 
L 493.211126 62.075692 
L 493.771544 62.185968 
L 493.984117 62.533443 
L 494.673366 62.64372 
L 494.757107 62.70406 
L 497.639716 62.822659 
L 497.849068 63.012001 
L 498.409486 63.12852 
L 498.622058 63.419816 
L 500.103623 63.315782 
L 500.168039 63.326185 
L 500.831522 63.436462 
L 500.941029 63.540496 
L 503.047428 63.650772 
L 503.26 64.014893 
L 503.26 64.014893 
" clip-path="url(#p8405fef4ae)" style="fill: none; stroke-dasharray: 3.7,1.6; stroke-dashoffset: 0; stroke: #4169e1"/>
   </g>
   <g id="line2d_40">
    <path d="M 32.25125 98.6546 
L 32.508913 96.811943 
L 33.040344 96.699586 
L 33.281904 95.3513 
L 33.822997 95.231452 
L 34.054894 94.152824 
L 34.586325 94.047957 
L 34.827884 92.3626 
L 35.359315 92.250243 
L 35.600875 90.564886 
L 37.678286 90.452529 
L 37.919845 89.05181 
L 38.460939 88.931962 
L 38.692836 87.853333 
L 39.233929 87.733486 
L 39.465826 86.654857 
L 40.006919 86.53501 
L 40.238816 85.456381 
L 40.770247 85.351514 
L 41.011807 83.666157 
L 43.089218 83.5538 
L 43.330777 81.868443 
L 43.862208 81.756086 
L 44.103768 79.988333 
L 44.631978 79.868486 
L 44.876758 77.853548 
L 45.404968 77.7337 
L 45.649748 75.658838 
L 46.181179 75.546481 
L 46.422739 73.973481 
L 48.509812 73.853633 
L 48.74171 72.775005 
L 49.27314 72.670138 
L 49.5147 71.052195 
L 50.046131 70.947329 
L 50.28769 69.261971 
L 50.819121 69.149614 
L 51.06068 67.718933 
L 51.58889 67.606576 
L 51.833671 65.419357 
L 53.911082 65.307 
L 54.152642 63.621643 
L 54.687293 63.509286 
L 54.925632 62.31081 
L 55.489271 62.198452 
L 55.698622 61.808948 
L 56.262261 61.69659 
L 56.471612 61.232181 
L 57.125433 61.127314 
L 57.244603 61.029938 
L 59.34778 61.127314 
L 59.55069 61.546781 
L 60.127212 61.651648 
L 60.259265 61.831419 
L 60.291473 61.756514 
L 60.336564 61.711571 
L 60.980722 61.606705 
L 61.032255 61.584233 
L 61.067684 61.674119 
L 61.109554 61.868871 
L 61.673193 61.981229 
L 61.876103 62.730276 
L 61.882544 62.760238 
L 62.423638 62.880086 
L 62.655535 63.644114 
L 64.768375 63.546738 
L 64.906869 63.322024 
L 64.948739 63.404419 
L 64.974506 63.486814 
L 65.525261 63.599171 
L 65.654093 63.943733 
L 65.692742 63.853848 
L 65.747496 63.72651 
L 66.436746 63.823886 
L 66.520486 63.838867 
L 67.097008 63.734 
L 67.14532 63.711529 
L 67.18397 63.801414 
L 67.293476 64.05609 
L 67.908648 63.951224 
L 67.966622 63.734 
L 68.066467 63.816395 
L 70.971622 63.696548 
L 71.068246 63.561719 
L 71.106895 63.651605 
L 71.158428 63.793924 
L 71.725287 63.921262 
L 71.931418 64.587914 
L 72.536927 64.483048 
L 72.704409 64.160957 
L 73.268047 64.0486 
L 73.477399 63.359476 
L 75.564473 63.239629 
L 75.79637 62.161 
L 76.363229 62.033662 
L 76.392216 62.0037 
L 76.430866 62.093586 
L 76.456632 62.093586 
L 77.216739 62.198452 
L 77.226402 62.205943 
L 77.265051 62.116057 
L 77.30048 62.116057 
L 77.905989 62.01119 
L 78.115341 61.269633 
L 78.656434 61.157276 
L 78.888331 60.205986 
L 82.679204 60.086138 
L 82.753282 59.913857 
L 83.316921 59.8015 
L 83.526273 59.352071 
L 87.181872 59.456938 
L 87.391224 59.816481 
L 88.689204 59.921348 
L 88.937205 60.58051 
L 89.504064 60.707848 
L 89.710195 61.352029 
L 91.787606 61.464386 
L 92.029166 62.655371 
L 92.763507 62.775219 
L 92.802156 62.872595 
L 93.365795 62.984952 
L 93.575146 63.471833 
L 94.138785 63.58419 
L 94.348137 64.145976 
L 94.911775 64.258333 
L 95.121127 64.99989 
L 97.340253 65.119738 
L 97.440098 65.351943 
L 97.981191 65.4643 
L 98.213088 66.453043 
L 98.802493 66.5654 
L 98.986078 67.20209 
L 99.530392 67.306957 
L 99.759069 68.542886 
L 100.290499 68.647752 
L 100.532059 69.921133 
L 102.612691 70.03349 
L 102.85103 71.531586 
L 103.472643 71.636452 
L 103.62402 71.988505 
L 104.187659 72.100862 
L 104.39701 72.587743 
L 104.960649 72.7001 
L 105.144234 73.209452 
L 105.170001 73.149529 
L 105.814159 73.246905 
L 105.942991 73.389224 
L 108.05261 73.501581 
L 108.261962 73.771238 
L 109.795059 73.876105 
L 109.807942 73.906067 
L 110.503634 74.025914 
L 110.580933 74.243138 
L 111.144571 74.355495 
L 111.353923 74.819905 
L 113.476426 74.924771 
L 113.524737 74.947243 
L 113.563387 74.857357 
L 113.672894 74.617662 
L 114.300948 74.715038 
L 114.445884 75.05211 
L 114.986977 75.171957 
L 115.19955 75.643857 
L 115.782513 75.748724 
L 115.898462 75.935986 
L 115.927449 75.808648 
L 115.991865 75.509029 
L 116.687556 75.38169 
L 116.764855 75.336748 
L 119.653906 75.441614 
L 119.856816 75.906024 
L 120.420455 76.018381 
L 120.584715 76.677543 
L 120.629806 76.887276 
L 121.1709 77.007124 
L 121.402797 77.673776 
L 124.30151 77.823586 
L 124.494758 78.497729 
L 125.035851 78.610086 
L 125.267748 79.561376 
L 125.831387 79.673733 
L 126.040739 80.160614 
L 126.746092 80.280462 
L 126.813729 80.520157 
L 127.380588 80.647495 
L 127.586719 81.20179 
L 129.673793 81.321638 
L 129.90569 82.190533 
L 130.469329 82.085667 
L 130.582056 81.868443 
L 130.630368 81.9808 
L 130.67868 82.093157 
L 131.242319 82.205514 
L 131.451671 82.692395 
L 132.015309 82.804752 
L 132.224661 83.418971 
L 132.765754 83.538819 
L 132.997651 84.535052 
L 135.10727 84.437676 
L 135.316622 84.003229 
L 135.928573 84.100605 
L 136.083171 84.183 
L 136.653251 84.078133 
L 136.81107 83.905852 
L 136.827174 83.943305 
L 136.862603 84.003229 
L 137.426241 84.108095 
L 137.587281 84.452657 
L 137.635593 84.3403 
L 138.199232 84.227943 
L 138.408583 83.830948 
L 141.407141 83.733571 
L 141.500544 83.463914 
L 142.270314 83.344067 
L 142.273535 83.336576 
L 142.837173 83.224219 
L 142.966005 83.201748 
L 143.017538 83.096881 
L 143.046525 83.08939 
L 143.687463 82.984524 
L 143.819515 82.834714 
L 146.057966 82.729848 
L 146.138486 82.437719 
L 146.702125 82.325362 
L 146.911476 82.100648 
L 147.478336 81.995781 
L 147.684467 81.5089 
L 148.248105 81.396543 
L 148.380158 80.812286 
L 148.457457 80.452743 
L 148.99855 80.332895 
L 149.230447 79.254267 
L 151.336846 79.134419 
L 151.472119 78.977119 
L 151.497885 79.037043 
L 151.549418 79.179362 
L 152.113057 79.291719 
L 152.245109 79.553886 
L 152.293421 79.441529 
L 152.322408 79.374114 
L 152.886047 79.261757 
L 153.095399 78.954648 
L 153.636492 78.84229 
L 153.868389 77.853548 
L 154.518989 77.950924 
L 154.60273 77.958414 
L 154.622054 77.913471 
L 154.641379 77.868529 
L 157.717236 77.965905 
L 157.73334 78.003357 
L 158.296979 78.115714 
L 158.506331 78.722443 
L 159.069969 78.8348 
L 159.211684 78.887233 
L 162.32297 78.98461 
L 162.371282 79.209324 
L 163.141052 79.336662 
L 163.144272 79.351643 
L 163.711132 79.478981 
L 163.917263 80.168105 
L 164.480901 80.280462 
L 164.690253 80.977076 
L 165.231346 81.096924 
L 165.463243 81.793538 
L 167.572863 81.905895 
L 167.782214 82.198024 
L 168.477905 82.2954 
L 168.555204 82.654943 
L 169.122064 82.782281 
L 169.328195 83.134333 
L 170.677707 83.261671 
L 170.874175 83.54631 
L 172.961249 83.658667 
L 173.193146 84.557524 
L 173.756785 84.66239 
L 173.966136 85.074367 
L 174.719802 85.179233 
L 174.739127 85.224176 
L 175.302766 85.336533 
L 175.512117 85.583719 
L 176.075756 85.478852 
L 176.281887 85.27661 
L 179.125847 85.179233 
L 179.377069 84.242924 
L 179.918162 84.34779 
L 180.150059 85.373986 
L 180.691152 85.493833 
L 180.903724 85.958243 
L 181.477025 86.06311 
L 181.696039 86.939495 
L 184.572207 87.044362 
L 184.701039 87.32151 
L 184.752572 87.194171 
L 184.788001 87.029381 
L 185.35486 86.902043 
L 185.43538 86.84961 
L 185.464367 86.917024 
L 185.560991 87.051852 
L 186.12463 87.156719 
L 186.333981 87.703524 
L 186.89762 87.815881 
L 187.106971 88.287781 
L 189.216591 88.400138 
L 189.425942 88.819605 
L 189.989581 88.714738 
L 190.050776 88.57991 
L 190.092646 88.75219 
L 190.198933 89.134205 
L 190.765792 89.261543 
L 190.971923 89.973138 
L 191.583874 89.883252 
L 191.619302 89.860781 
L 191.664393 89.965648 
L 191.744913 90.227814 
L 192.311773 90.355152 
L 192.517903 90.984352 
L 194.627523 91.11169 
L 194.836874 91.830776 
L 195.377968 91.950624 
L 195.609865 92.819519 
L 196.150958 92.722143 
L 196.382855 91.763362 
L 196.946494 91.658495 
L 197.155845 91.351386 
L 197.796783 91.246519 
L 197.928835 91.171614 
L 200.038455 91.276481 
L 200.167287 91.853248 
L 200.238144 92.048 
L 200.247806 92.025529 
L 200.7889 91.913171 
L 201.020797 90.864505 
L 201.56189 90.752148 
L 201.72615 90.197852 
L 201.787345 90.212833 
L 201.793787 90.227814 
L 202.357426 90.130438 
L 202.479816 89.568652 
L 202.566777 89.261543 
L 203.10787 89.149186 
L 203.339768 88.1155 
L 205.449387 87.995652 
L 205.658738 87.508771 
L 207.16929 87.381433 
L 207.204719 87.299038 
L 207.768358 87.186681 
L 207.977709 86.5425 
L 208.641193 86.415162 
L 208.7507 85.90581 
L 210.837773 85.785962 
L 211.06967 84.257905 
L 211.601101 84.145548 
L 211.842661 82.639962 
L 212.374092 82.527605 
L 212.615651 81.284186 
L 213.17929 81.171829 
L 213.366096 80.460233 
L 213.388641 80.355367 
L 213.955501 80.228029 
L 214.151969 79.493962 
L 214.161632 79.449019 
L 216.271251 79.329171 
L 216.480602 78.84229 
L 217.015254 78.737424 
L 217.253593 77.56891 
L 217.817231 77.456552 
L 218.026583 76.79739 
L 218.590222 76.685033 
L 218.799573 76.198152 
L 219.340667 76.085795 
L 219.572564 75.029638 
L 221.659637 74.90979 
L 221.891534 74.1158 
L 222.590447 73.995952 
L 222.664525 73.711314 
L 223.205618 73.591467 
L 223.437515 73.02219 
L 224.001154 72.917324 
L 224.10744 72.677629 
L 224.178297 72.782495 
L 224.938405 72.887362 
L 224.983496 72.939795 
L 227.84356 72.834929 
L 228.075457 71.584019 
L 228.639096 71.688886 
L 228.81946 71.928581 
L 228.838785 71.883638 
L 228.848447 71.861167 
L 229.412086 71.74881 
L 229.524814 71.643943 
L 229.544138 71.711357 
L 229.621437 72.0709 
L 230.162531 72.190748 
L 230.352557 72.55029 
L 232.504047 72.445424 
L 232.713399 72.175767 
L 233.257713 72.0709 
L 233.438077 71.673905 
L 233.486389 71.786262 
L 234.033924 71.898619 
L 234.22073 72.243181 
L 234.823018 72.138314 
L 234.971174 71.516605 
L 235.032369 71.097138 
L 235.573463 70.9698 
L 235.80536 69.936114 
L 237.914979 69.816267 
L 238.124331 69.202048 
L 238.665424 69.0822 
L 238.897321 68.168362 
L 239.618778 68.041024 
L 239.670311 67.958629 
L 240.23395 67.853762 
L 240.39499 67.494219 
L 240.43686 67.65901 
L 240.443301 67.688971 
L 240.984395 67.808819 
L 241.216292 68.490452 
L 243.303365 68.60281 
L 243.535263 69.501667 
L 244.923424 69.411781 
L 245.042594 69.336876 
L 245.058698 69.374329 
L 245.081243 69.449233 
L 245.622336 69.569081 
L 245.854233 70.318129 
L 246.395327 70.430486 
L 246.620782 71.044705 
L 246.627224 71.029724 
L 248.830246 71.1271 
L 248.946195 71.569038 
L 249.487288 71.681395 
L 249.719185 72.520329 
L 250.282824 72.422952 
L 250.427759 72.363029 
L 251.187866 72.258162 
L 251.265165 72.07839 
L 251.828804 71.966033 
L 251.928649 71.868657 
L 251.957636 71.936071 
L 252.038156 72.06341 
L 254.254061 72.168276 
L 254.357127 72.340557 
L 255.001285 72.460405 
L 255.130117 73.059643 
L 255.696976 73.186981 
L 255.858016 73.831162 
L 255.903107 74.228157 
L 256.4442 74.355495 
L 256.676098 75.314276 
L 257.239736 75.426633 
L 257.449088 75.741233 
L 259.536162 75.85359 
L 259.768059 76.804881 
L 260.331697 76.917238 
L 260.512062 77.613852 
L 260.541049 77.688757 
L 261.095025 77.801114 
L 261.314039 78.497729 
L 261.855132 78.610086 
L 262.08703 79.45651 
L 262.811708 79.576357 
L 262.86002 79.688714 
L 264.992185 79.591338 
L 265.127458 79.553886 
L 265.742629 79.658752 
L 265.951981 80.145633 
L 266.493074 80.25799 
L 266.657335 80.797305 
L 266.699205 80.699929 
L 266.724971 80.640005 
L 267.28861 80.527648 
L 267.497962 80.175595 
L 268.0616 80.070729 
L 268.203315 79.464 
L 268.270952 79.209324 
L 270.380571 79.3067 
L 270.486857 79.546395 
L 270.544832 79.411567 
L 271.127795 79.3067 
L 271.362913 78.085752 
L 271.904006 77.973395 
L 272.135903 77.022105 
L 272.699542 77.119481 
L 272.85414 77.449062 
L 272.908894 77.359176 
L 273.472532 77.246819 
L 273.598143 77.1045 
L 273.62391 77.164424 
L 273.681884 77.299252 
L 276.709429 77.201876 
L 276.773845 77.052067 
L 277.337484 76.93971 
L 277.546835 76.610129 
L 278.13302 76.48279 
L 278.319826 76.265567 
L 278.857698 76.145719 
L 278.992971 75.389181 
L 279.050946 75.576443 
L 279.092816 75.673819 
L 281.202435 75.786176 
L 281.411787 76.46781 
L 281.943218 76.580167 
L 282.152569 77.72621 
L 282.184777 77.651305 
L 282.838598 77.748681 
L 282.957767 78.190619 
L 283.521406 78.302976 
L 283.730758 78.782367 
L 284.294396 78.894724 
L 284.503748 79.344152 
L 286.613367 79.449019 
L 286.822719 79.823543 
L 287.56028 79.92841 
L 287.589268 79.965862 
L 287.595709 79.950881 
L 288.159348 79.838524 
L 288.326829 79.726167 
L 289.109482 79.831033 
L 289.14169 79.898448 
L 289.705328 79.793581 
L 289.91468 79.3067 
L 292.175677 79.411567 
L 292.233651 79.546395 
L 292.79729 79.658752 
L 293.006641 80.08571 
L 293.547734 80.198067 
L 293.663683 80.632514 
L 293.711995 80.460233 
L 293.779631 80.145633 
L 294.327166 80.025786 
L 294.478543 79.860995 
L 294.497868 79.905938 
L 294.552622 80.033276 
L 295.093715 80.145633 
L 295.31917 80.692438 
L 295.322391 80.684948 
L 295.325612 80.677457 
L 297.547959 80.774833 
L 297.644583 81.224262 
L 298.211442 81.3516 
L 298.285521 81.441486 
L 298.320949 81.329129 
L 298.417573 80.939624 
L 299.048849 81.037 
L 299.190563 81.209281 
L 299.754202 81.104414 
L 299.963554 80.355367 
L 300.530413 80.228029 
L 300.736544 79.831033 
L 302.846163 79.718676 
L 303.055515 79.171871 
L 304.356715 79.067005 
L 304.601495 78.497729 
L 305.165134 78.385371 
L 305.374486 77.868529 
L 305.928462 77.756171 
L 306.089502 77.523967 
L 308.466447 77.4191 
L 309.030086 77.306743 
L 309.239437 76.887276 
L 309.986661 76.984652 
L 310.012428 77.044576 
L 310.772535 76.9472 
L 310.785418 76.917238 
L 311.349057 76.804881 
L 311.490771 76.647581 
L 311.506875 76.707505 
L 311.558408 76.9472 
L 313.668027 77.067048 
L 313.877379 77.793624 
L 314.418472 77.913471 
L 314.650369 78.969629 
L 315.394372 78.864762 
L 315.42336 78.797348 
L 316.759989 78.67001 
L 316.898483 78.617576 
L 316.96934 78.707462 
L 320.05808 78.610086 
L 320.061301 78.602595 
L 320.734447 78.699971 
L 320.782759 78.804838 
L 320.831071 78.647538 
L 320.834292 78.640048 
L 321.39793 78.52769 
L 321.607282 78.280505 
L 322.170921 78.175638 
L 322.302973 77.591381 
L 322.377051 77.456552 
L 322.380272 77.464043 
L 324.473788 77.56891 
L 324.699243 78.287995 
L 325.359506 78.2056 
L 325.472233 77.778643 
L 326.035872 77.876019 
L 326.22912 78.228071 
L 326.245224 78.190619 
L 326.808862 78.078262 
L 326.986006 77.718719 
L 327.018214 77.793624 
L 327.681697 77.696248 
L 327.755775 77.591381 
L 327.791204 77.673776 
L 330.08763 77.786133 
L 330.110175 77.838567 
L 330.673814 77.950924 
L 330.867061 78.123205 
L 332.216574 78.228071 
L 332.429146 78.580124 
L 333.086188 78.482748 
L 333.202136 78.302976 
L 335.466354 78.2056 
L 335.517886 78.115714 
L 335.521107 78.123205 
L 336.084746 78.235562 
L 336.236123 78.497729 
L 336.274773 78.407843 
L 336.294097 78.3629 
L 337.64361 78.235562 
L 337.840078 77.846057 
L 338.542211 77.950924 
L 338.613068 78.115714 
L 341.457028 78.018338 
L 341.705029 77.651305 
L 342.349188 77.756171 
L 342.47802 77.831076 
L 343.041658 77.72621 
L 343.205919 77.546438 
L 343.222023 77.58389 
L 343.25101 77.651305 
L 343.814649 77.763662 
L 344.024 78.033319 
L 346.111074 78.145676 
L 346.342971 79.14191 
L 346.884064 79.261757 
L 347.115961 80.145633 
L 347.6796 80.25799 
L 347.888952 80.759852 
L 348.45259 80.87221 
L 348.661942 81.576314 
L 349.203035 81.696162 
L 349.434932 82.77479 
L 351.522006 82.894638 
L 351.753903 83.838438 
L 352.294996 83.958286 
L 352.504348 84.407714 
L 353.090532 84.302848 
L 353.238689 83.988248 
L 353.299884 84.063152 
L 353.863523 84.168019 
L 354.072874 84.377752 
L 354.678383 84.280376 
L 354.845864 84.048171 
L 357.148731 84.145548 
L 357.164835 84.220452 
L 357.728474 84.34779 
L 357.924942 84.849652 
L 357.937825 84.81969 
L 358.501464 84.707333 
L 358.710816 84.482619 
L 360.012016 84.572505 
L 360.256796 85.403948 
L 362.524235 85.306571 
L 362.575767 85.186724 
L 363.203822 85.2841 
L 363.348758 85.718548 
L 363.912396 85.613681 
L 364.121748 85.373986 
L 364.685387 85.478852 
L 364.762686 85.568738 
L 364.801335 85.478852 
L 364.894738 85.299081 
L 365.435831 85.179233 
L 365.667728 84.579995 
L 367.944829 84.475129 
L 367.986699 84.452657 
L 368.527792 84.557524 
L 368.75969 85.486343 
L 369.339432 85.381476 
L 369.53268 84.932048 
L 370.096319 84.81969 
L 370.279904 84.669881 
L 370.878971 84.774748 
L 370.975595 84.9695 
L 371.027128 84.849652 
L 371.07866 84.827181 
L 373.18828 84.722314 
L 373.349319 84.370262 
L 373.397631 84.415205 
L 374.048231 84.520071 
L 374.135193 84.6549 
L 374.170622 84.535052 
L 374.711715 84.415205 
L 374.943612 83.38901 
L 375.471822 83.284143 
L 375.716602 81.621257 
L 376.283462 81.493919 
L 376.489592 81.014529 
L 378.599212 80.902171 
L 378.808563 80.41529 
L 379.372202 80.302933 
L 379.581554 79.748638 
L 381.729822 79.61381 
L 381.900524 79.007081 
L 384.010144 78.902214 
L 384.219495 78.655029 
L 384.760589 78.542671 
L 384.992486 77.479024 
L 385.559345 77.351686 
L 385.765476 76.804881 
L 386.329115 76.692524 
L 386.538466 76.1607 
L 387.102105 76.048343 
L 387.311457 75.396671 
L 390.148975 75.269333 
L 390.403418 74.460362 
L 390.944511 74.340514 
L 391.176408 73.261886 
L 391.717501 73.142038 
L 391.949398 72.06341 
L 392.516258 71.936071 
L 392.712726 71.202005 
L 392.722389 71.13459 
L 394.7998 71.022233 
L 395.041359 69.883681 
L 395.582453 69.763833 
L 395.81435 68.685205 
L 396.355443 68.565357 
L 396.58734 67.486729 
L 397.128433 67.366881 
L 397.36033 66.453043 
L 397.991606 66.550419 
L 398.072126 66.7227 
L 398.133321 66.647795 
L 400.381434 66.542929 
L 400.452291 66.363157 
L 401.099671 66.453043 
L 401.170528 66.595362 
L 401.222061 66.475514 
L 401.225282 66.460533 
L 401.792141 66.333195 
L 401.998272 65.816352 
L 402.561911 65.689014 
L 402.771262 65.119738 
L 403.334901 65.224605 
L 403.457291 65.31449 
L 403.473395 65.277038 
L 403.544253 65.187152 
L 406.475174 65.082286 
L 406.636214 64.707762 
L 407.399542 64.790157 
L 407.409204 64.797648 
L 407.995388 64.692781 
L 408.101675 64.168448 
L 408.182194 63.689057 
L 408.868223 63.56921 
L 408.955185 63.157233 
L 411.042258 63.037386 
L 411.270935 62.220924 
L 411.274155 62.228414 
L 411.963405 62.131038 
L 412.047146 61.936286 
L 412.610785 61.823929 
L 412.736395 61.53929 
L 412.800811 61.659138 
L 413.383775 61.554271 
L 413.593126 61.22469 
L 414.156765 61.119824 
L 414.366117 60.73781 
L 416.45319 60.842676 
L 416.668984 61.793967 
L 416.685088 61.756514 
L 417.229402 61.651648 
L 417.458078 60.730319 
L 418.024937 60.602981 
L 418.231068 60.153552 
L 418.878447 60.041195 
L 419.004058 59.49439 
L 419.567697 59.591767 
L 419.725516 59.906367 
L 419.767386 59.779029 
L 419.777049 59.734086 
L 422.079916 59.606748 
L 422.09602 59.569295 
L 422.659658 59.456938 
L 422.811036 59.382033 
L 423.432649 59.277167 
L 423.642 58.977548 
L 424.224964 59.082414 
L 424.41499 59.584276 
L 425.007616 59.689143 
L 425.187981 60.10861 
L 428.031941 60.228457 
L 428.279942 61.029938 
L 428.843581 61.142295 
L 429.020724 61.322067 
L 429.030387 61.299595 
L 429.052932 61.247162 
L 429.616571 61.134805 
L 429.716415 60.962524 
L 429.755065 61.089862 
L 429.825922 61.509329 
L 430.502289 61.636667 
L 430.540938 61.674119 
L 430.595692 61.546781 
L 430.598913 61.53929 
L 432.718194 61.636667 
L 432.885676 62.303319 
L 432.917884 62.4756 
L 433.449314 62.587957 
L 433.690874 63.868829 
L 434.257733 63.996167 
L 434.450981 64.722743 
L 434.463864 64.812629 
L 434.995295 64.924986 
L 435.236854 66.4081 
L 435.803714 66.535438 
L 436.009845 67.276995 
L 438.096919 67.396843 
L 438.328816 68.6103 
L 438.860246 68.722657 
L 439.101806 70.572805 
L 439.633237 70.692652 
L 439.874796 71.658924 
L 440.415889 71.778771 
L 440.647787 73.112076 
L 441.214646 73.246905 
L 441.420777 73.8012 
L 443.530396 73.913557 
L 443.739748 74.400438 
L 444.303386 74.512795 
L 444.445101 74.565229 
L 444.512738 74.460362 
L 445.076377 74.348005 
L 445.166559 74.190705 
L 445.198767 74.333024 
L 445.285728 74.73751 
L 445.855809 74.864848 
L 446.058719 75.269333 
L 446.625578 75.404162 
L 446.831709 76.040852 
L 448.941328 76.1607 
L 449.15068 76.407886 
L 449.907566 76.527733 
L 449.92367 76.565186 
L 450.487309 76.677543 
L 450.69666 77.164424 
L 451.991419 77.284271 
L 452.242641 78.093243 
L 454.320052 78.2056 
L 454.561612 79.808562 
L 455.102705 79.92841 
L 455.334602 80.999548 
L 455.898241 81.111905 
L 456.107592 81.65871 
L 456.754972 81.763576 
L 456.880583 81.943348 
L 457.473208 82.048214 
L 457.618144 82.662433 
L 457.653573 82.827224 
L 459.740647 82.947071 
L 459.972544 83.681138 
L 460.616702 83.786005 
L 460.745534 84.220452 
L 461.351043 84.123076 
L 461.492758 83.980757 
L 461.508862 84.03319 
L 461.518524 84.078133 
L 462.059618 84.197981 
L 462.291515 85.11931 
L 462.938894 85.224176 
L 463.064505 85.658624 
L 465.331943 85.76349 
L 465.383476 85.950752 
L 466.694338 86.0706 
L 466.929456 87.0144 
L 467.493095 87.126757 
L 467.644472 87.201662 
L 468.253202 87.306529 
L 468.433567 87.845843 
L 468.465775 87.770938 
L 468.475437 87.748467 
L 470.572173 87.63611 
L 470.794408 87.0144 
L 471.557736 86.909533 
L 471.567398 86.887062 
L 472.324284 86.984438 
L 472.340388 87.02189 
L 472.904027 87.134248 
L 473.113379 87.343981 
L 473.677017 87.448848 
L 473.886369 87.79341 
L 476.012092 87.905767 
L 476.095833 88.040595 
L 476.140924 87.935729 
L 476.20534 87.8009 
L 476.736771 87.890786 
L 476.97833 89.231581 
L 477.532307 89.351429 
L 477.693346 89.448805 
L 477.722333 89.351429 
L 477.75132 89.194129 
L 478.27953 89.081771 
L 478.524311 87.740976 
L 479.258651 87.63611 
L 479.297301 87.546224 
L 481.40692 87.433867 
L 481.616272 87.149229 
L 482.179911 87.254095 
L 482.389262 87.47881 
L 483.149369 87.373943 
L 483.162252 87.343981 
L 483.725891 87.231624 
L 483.935243 86.887062 
L 484.498882 86.991929 
L 484.708233 87.433867 
L 486.962788 87.329 
L 487.027204 87.17919 
L 487.590843 87.276567 
L 487.800194 87.688543 
L 488.363833 87.8009 
L 488.573184 88.287781 
L 489.136823 88.400138 
L 489.346175 88.991886 
L 489.887268 89.111733 
L 490.09984 89.583633 
L 492.225564 89.6885 
L 492.389824 89.973138 
L 492.428474 89.883252 
L 492.438136 89.860781 
L 493.001775 89.958157 
L 493.211126 90.287738 
L 493.774765 90.392605 
L 493.984117 90.744657 
L 494.547755 90.849524 
L 494.757107 91.186595 
L 497.639716 91.291462 
L 497.849068 91.808305 
L 498.412707 91.920662 
L 498.622058 92.250243 
L 500.164818 92.35511 
L 500.168039 92.3626 
L 500.731678 92.474957 
L 500.941029 93.201533 
L 503.028103 93.321381 
L 503.26 94.115371 
L 503.26 94.115371 
" clip-path="url(#p8405fef4ae)" style="fill: none; stroke: #4169e1; stroke-linecap: square"/>
   </g>
   <g id="patch_7">
    <path d="M 32.25125 129.8 
L 32.25125 3.96 
" style="fill: none; stroke: #000000; stroke-width: 0.8; stroke-linejoin: miter; stroke-linecap: square"/>
   </g>
   <g id="patch_8">
    <path d="M 503.26 129.8 
L 503.26 3.96 
" style="fill: none; stroke: #000000; stroke-width: 0.8; stroke-linejoin: miter; stroke-linecap: square"/>
   </g>
   <g id="patch_9">
    <path d="M 32.25125 129.8 
L 503.26 129.8 
" style="fill: none; stroke: #000000; stroke-width: 0.8; stroke-linejoin: miter; stroke-linecap: square"/>
   </g>
   <g id="patch_10">
    <path d="M 32.25125 3.96 
L 503.26 3.96 
" style="fill: none; stroke: #000000; stroke-width: 0.8; stroke-linejoin: miter; stroke-linecap: square"/>
   </g>
  </g>
 </g>
 <defs>
  <clipPath id="p8405fef4ae">
   <rect x="32.25125" y="3.96" width="471.00875" height="125.84"/>
  </clipPath>
 </defs>
</svg>
