<?xml version="1.0" encoding="utf-8" standalone="no"?>
<!DOCTYPE svg PUBLIC "-//W3C//DTD SVG 1.1//EN"
  "http://www.w3.org/Graphics/SVG/1.1/DTD/svg11.dtd">
<svg xmlns:xlink="http://www.w3.org/1999/xlink" width="540pt" height="129.6pt" viewBox="0 0 540 129.6" xmlns="http://www.w3.org/2000/svg" version="1.1">
 <metadata>
  <rdf:RDF xmlns:dc="http://purl.org/dc/elements/1.1/" xmlns:cc="http://creativecommons.org/ns#" xmlns:rdf="http://www.w3.org/1999/02/22-rdf-syntax-ns#">
   <cc:Work>
    <dc:type rdf:resource="http://purl.org/dc/dcmitype/StillImage"/>
    <dc:date>2025-03-29T15:28:17.818051</dc:date>
    <dc:format>image/svg+xml</dc:format>
    <dc:creator>
     <cc:Agent>
      <dc:title>Matplotlib v3.8.3, https://matplotlib.org/</dc:title>
     </cc:Agent>
    </dc:creator>
   </cc:Work>
  </rdf:RDF>
 </metadata>
 <defs>
  <style type="text/css">*{stroke-linejoin: round; stroke-linecap: butt}</style>
 </defs>
 <g id="figure_1">
  <g id="patch_1">
   <path d="M 0 129.6 
L 540 129.6 
L 540 0 
L 0 0 
z
" style="fill: #ffffff"/>
  </g>
  <g id="axes_1">
   <g id="patch_2">
    <path d="M 35.03 97 
L 540 97 
L 540 0 
L 35.03 0 
z
" style="fill: #ffffff"/>
   </g>
   <g id="matplotlib.axis_1">
    <g id="xtick_1">
     <g id="line2d_1">
      <path d="M 35.03 97 
L 35.03 0 
" clip-path="url(#pd87249f1b8)" style="fill: none; stroke: #b0b0b0; stroke-width: 0.8; stroke-linecap: square"/>
     </g>
     <g id="line2d_2">
      <defs>
       <path id="m0c9fc4c3ef" d="M 0 0 
L 0 3.5 
" style="stroke: #000000; stroke-width: 0.8"/>
      </defs>
      <g>
       <use xlink:href="#m0c9fc4c3ef" x="35.03" y="97" style="stroke: #000000; stroke-width: 0.8"/>
      </g>
     </g>
     <g id="text_1">
      <text style="font: 10px 'Times New Roman'; text-anchor: middle" x="35.03" y="110.94375" transform="rotate(-0 35.03 110.94375)">0</text>
     </g>
    </g>
    <g id="xtick_2">
     <g id="line2d_3">
      <path d="M 95.296142 97 
L 95.296142 0 
" clip-path="url(#pd87249f1b8)" style="fill: none; stroke: #b0b0b0; stroke-width: 0.8; stroke-linecap: square"/>
     </g>
     <g id="line2d_4">
      <g>
       <use xlink:href="#m0c9fc4c3ef" x="95.296142" y="97" style="stroke: #000000; stroke-width: 0.8"/>
      </g>
     </g>
     <g id="text_2">
      <text style="font: 10px 'Times New Roman'; text-anchor: middle" x="95.296142" y="110.94375" transform="rotate(-0 95.296142 110.94375)">50</text>
     </g>
    </g>
    <g id="xtick_3">
     <g id="line2d_5">
      <path d="M 155.562283 97 
L 155.562283 0 
" clip-path="url(#pd87249f1b8)" style="fill: none; stroke: #b0b0b0; stroke-width: 0.8; stroke-linecap: square"/>
     </g>
     <g id="line2d_6">
      <g>
       <use xlink:href="#m0c9fc4c3ef" x="155.562283" y="97" style="stroke: #000000; stroke-width: 0.8"/>
      </g>
     </g>
     <g id="text_3">
      <text style="font: 10px 'Times New Roman'; text-anchor: middle" x="155.562283" y="110.94375" transform="rotate(-0 155.562283 110.94375)">100</text>
     </g>
    </g>
    <g id="xtick_4">
     <g id="line2d_7">
      <path d="M 215.828425 97 
L 215.828425 0 
" clip-path="url(#pd87249f1b8)" style="fill: none; stroke: #b0b0b0; stroke-width: 0.8; stroke-linecap: square"/>
     </g>
     <g id="line2d_8">
      <g>
       <use xlink:href="#m0c9fc4c3ef" x="215.828425" y="97" style="stroke: #000000; stroke-width: 0.8"/>
      </g>
     </g>
     <g id="text_4">
      <text style="font: 10px 'Times New Roman'; text-anchor: middle" x="215.828425" y="110.94375" transform="rotate(-0 215.828425 110.94375)">150</text>
     </g>
    </g>
    <g id="xtick_5">
     <g id="line2d_9">
      <path d="M 276.094566 97 
L 276.094566 0 
" clip-path="url(#pd87249f1b8)" style="fill: none; stroke: #b0b0b0; stroke-width: 0.8; stroke-linecap: square"/>
     </g>
     <g id="line2d_10">
      <g>
       <use xlink:href="#m0c9fc4c3ef" x="276.094566" y="97" style="stroke: #000000; stroke-width: 0.8"/>
      </g>
     </g>
     <g id="text_5">
      <text style="font: 10px 'Times New Roman'; text-anchor: middle" x="276.094566" y="110.94375" transform="rotate(-0 276.094566 110.94375)">200</text>
     </g>
    </g>
    <g id="xtick_6">
     <g id="line2d_11">
      <path d="M 336.360708 97 
L 336.360708 0 
" clip-path="url(#pd87249f1b8)" style="fill: none; stroke: #b0b0b0; stroke-width: 0.8; stroke-linecap: square"/>
     </g>
     <g id="line2d_12">
      <g>
       <use xlink:href="#m0c9fc4c3ef" x="336.360708" y="97" style="stroke: #000000; stroke-width: 0.8"/>
      </g>
     </g>
     <g id="text_6">
      <text style="font: 10px 'Times New Roman'; text-anchor: middle" x="336.360708" y="110.94375" transform="rotate(-0 336.360708 110.94375)">250</text>
     </g>
    </g>
    <g id="xtick_7">
     <g id="line2d_13">
      <path d="M 396.626849 97 
L 396.626849 0 
" clip-path="url(#pd87249f1b8)" style="fill: none; stroke: #b0b0b0; stroke-width: 0.8; stroke-linecap: square"/>
     </g>
     <g id="line2d_14">
      <g>
       <use xlink:href="#m0c9fc4c3ef" x="396.626849" y="97" style="stroke: #000000; stroke-width: 0.8"/>
      </g>
     </g>
     <g id="text_7">
      <text style="font: 10px 'Times New Roman'; text-anchor: middle" x="396.626849" y="110.94375" transform="rotate(-0 396.626849 110.94375)">300</text>
     </g>
    </g>
    <g id="xtick_8">
     <g id="line2d_15">
      <path d="M 456.892991 97 
L 456.892991 0 
" clip-path="url(#pd87249f1b8)" style="fill: none; stroke: #b0b0b0; stroke-width: 0.8; stroke-linecap: square"/>
     </g>
     <g id="line2d_16">
      <g>
       <use xlink:href="#m0c9fc4c3ef" x="456.892991" y="97" style="stroke: #000000; stroke-width: 0.8"/>
      </g>
     </g>
     <g id="text_8">
      <text style="font: 10px 'Times New Roman'; text-anchor: middle" x="456.892991" y="110.94375" transform="rotate(-0 456.892991 110.94375)">350</text>
     </g>
    </g>
    <g id="xtick_9">
     <g id="line2d_17">
      <path d="M 517.159132 97 
L 517.159132 0 
" clip-path="url(#pd87249f1b8)" style="fill: none; stroke: #b0b0b0; stroke-width: 0.8; stroke-linecap: square"/>
     </g>
     <g id="line2d_18">
      <g>
       <use xlink:href="#m0c9fc4c3ef" x="517.159132" y="97" style="stroke: #000000; stroke-width: 0.8"/>
      </g>
     </g>
     <g id="text_9">
      <text style="font: 10px 'Times New Roman'; text-anchor: middle" x="517.159132" y="110.94375" transform="rotate(-0 517.159132 110.94375)">400</text>
     </g>
    </g>
    <g id="text_10">
     <text style="font: 12px 'Times New Roman'; text-anchor: middle" x="287.515" y="125.415312" transform="rotate(-0 287.515 125.415312)">Simulation Run</text>
    </g>
   </g>
   <g id="matplotlib.axis_2">
    <g id="ytick_1">
     <g id="line2d_19">
      <path d="M 35.03 97 
L 540 97 
" clip-path="url(#pd87249f1b8)" style="fill: none; stroke: #b0b0b0; stroke-width: 0.8; stroke-linecap: square"/>
     </g>
     <g id="line2d_20">
      <defs>
       <path id="m24c0a26ce8" d="M 0 0 
L -3.5 0 
" style="stroke: #000000; stroke-width: 0.8"/>
      </defs>
      <g>
       <use xlink:href="#m24c0a26ce8" x="35.03" y="97" style="stroke: #000000; stroke-width: 0.8"/>
      </g>
     </g>
     <g id="text_11">
      <text style="font: 10px 'Times New Roman'; text-anchor: end" x="28.03" y="100.471875" transform="rotate(-0 28.03 100.471875)">0.0</text>
     </g>
    </g>
    <g id="ytick_2">
     <g id="line2d_21">
      <path d="M 35.03 59.692308 
L 540 59.692308 
" clip-path="url(#pd87249f1b8)" style="fill: none; stroke: #b0b0b0; stroke-width: 0.8; stroke-linecap: square"/>
     </g>
     <g id="line2d_22">
      <g>
       <use xlink:href="#m24c0a26ce8" x="35.03" y="59.692308" style="stroke: #000000; stroke-width: 0.8"/>
      </g>
     </g>
     <g id="text_12">
      <text style="font: 10px 'Times New Roman'; text-anchor: end" x="28.03" y="63.164183" transform="rotate(-0 28.03 63.164183)">0.5</text>
     </g>
    </g>
    <g id="ytick_3">
     <g id="line2d_23">
      <path d="M 35.03 22.384615 
L 540 22.384615 
" clip-path="url(#pd87249f1b8)" style="fill: none; stroke: #b0b0b0; stroke-width: 0.8; stroke-linecap: square"/>
     </g>
     <g id="line2d_24">
      <g>
       <use xlink:href="#m24c0a26ce8" x="35.03" y="22.384615" style="stroke: #000000; stroke-width: 0.8"/>
      </g>
     </g>
     <g id="text_13">
      <text style="font: 10px 'Times New Roman'; text-anchor: end" x="28.03" y="25.85649" transform="rotate(-0 28.03 25.85649)">1.0</text>
     </g>
    </g>
    <g id="text_14">
     <text style="font: 12px 'Times New Roman'; text-anchor: middle" x="8.963125" y="48.5" transform="rotate(-90 8.963125 48.5)">Normalized Value</text>
    </g>
   </g>
   <g id="line2d_25">
    <path d="M 35.03 6.793325 
L 36.235323 21.078395 
L 37.440646 21.264065 
L 38.645968 14.208675 
L 39.851291 14.632486 
L 41.056614 14.78696 
L 42.261937 18.055063 
L 43.46726 20.721931 
L 44.672583 21.876761 
L 45.877905 23.86753 
L 47.083228 24.960488 
L 48.288551 25.834396 
L 49.493874 24.715755 
L 50.699197 24.744989 
L 51.90452 24.583055 
L 53.109842 24.249663 
L 54.315165 24.652358 
L 55.520488 24.048123 
L 56.725811 23.224041 
L 57.931134 21.676296 
L 59.136457 21.308783 
L 60.341779 21.564111 
L 61.547102 20.524014 
L 62.752425 19.965251 
L 63.957748 20.680001 
L 65.163071 22.107923 
L 66.368394 22.374909 
L 67.573716 21.452245 
L 68.779039 21.655979 
L 69.984362 22.247006 
L 72.395008 22.014426 
L 73.600331 21.857607 
L 74.805653 22.074226 
L 76.010976 21.76905 
L 78.421622 22.087129 
L 79.626945 22.463624 
L 80.832268 23.267086 
L 82.03759 23.196061 
L 83.242913 22.017397 
L 84.448236 22.420693 
L 85.653559 22.430025 
L 88.064205 23.591291 
L 89.269527 23.999379 
L 91.680173 23.474049 
L 92.885496 22.163623 
L 94.090819 22.463433 
L 95.296142 22.383821 
L 97.706787 21.856391 
L 98.91211 21.563143 
L 100.117433 21.748872 
L 101.322756 22.214561 
L 102.528079 22.536476 
L 103.733401 22.28997 
L 104.938724 21.82037 
L 106.144047 22.00656 
L 108.554693 22.148724 
L 112.170661 23.163586 
L 113.375984 22.621976 
L 114.581307 22.704116 
L 115.78663 23.246998 
L 116.991953 23.307687 
L 118.197275 23.045942 
L 119.402598 22.502077 
L 120.607921 22.358467 
L 121.813244 22.04209 
L 123.018567 21.599631 
L 125.429212 21.711549 
L 126.634535 21.483227 
L 127.839858 21.782749 
L 129.045181 21.710458 
L 130.250504 21.783146 
L 131.455826 21.501102 
L 133.866472 22.064524 
L 135.071795 21.887524 
L 136.277118 22.194624 
L 137.482441 21.630406 
L 138.687763 21.802235 
L 139.893086 21.206883 
L 141.098409 21.337404 
L 143.509055 20.927426 
L 144.714378 21.091014 
L 145.9197 21.030746 
L 147.125023 21.107053 
L 149.535669 21.695193 
L 151.946315 21.356989 
L 154.35696 21.423051 
L 155.562283 21.519863 
L 156.767606 21.333552 
L 157.972929 21.643959 
L 160.383574 21.59092 
L 162.79422 21.989651 
L 163.999543 22.20611 
L 165.204866 22.119313 
L 167.615511 22.491239 
L 168.820834 22.270954 
L 171.23148 22.181915 
L 173.642126 22.639507 
L 176.052771 22.382981 
L 179.66874 22.329855 
L 180.874063 21.925484 
L 182.079385 21.887687 
L 183.284708 21.669528 
L 185.695354 21.626326 
L 188.106 22.020318 
L 189.311322 21.617711 
L 191.721968 21.917758 
L 195.337937 21.880736 
L 196.543259 22.081704 
L 197.748582 22.144853 
L 200.159228 21.742969 
L 202.569873 21.803576 
L 203.775196 21.611137 
L 206.185842 21.971871 
L 212.212456 21.835432 
L 213.417779 22.013357 
L 214.623102 21.981266 
L 215.828425 22.060835 
L 219.444393 21.631214 
L 220.649716 21.538151 
L 223.060362 21.656243 
L 229.086976 22.177633 
L 232.702944 22.417515 
L 233.908267 22.057102 
L 235.11359 22.286071 
L 236.318913 22.250199 
L 237.524236 22.504012 
L 239.934881 22.460354 
L 241.140204 22.685268 
L 243.55085 22.335163 
L 244.756173 22.258897 
L 245.961495 22.364427 
L 248.372141 22.212436 
L 250.782787 22.441087 
L 251.98811 22.416411 
L 253.193432 22.169192 
L 258.014724 22.208015 
L 259.220047 22.428117 
L 261.630692 22.513631 
L 262.836015 22.666583 
L 265.246661 22.634505 
L 267.657306 22.505382 
L 268.862629 22.482548 
L 270.067952 22.644519 
L 274.889243 22.745383 
L 278.505212 22.807543 
L 279.710535 22.537442 
L 280.915858 22.681613 
L 283.326503 22.568012 
L 285.737149 22.64932 
L 286.942472 22.737599 
L 290.55844 22.608121 
L 292.969086 22.834314 
L 294.174409 22.77226 
L 295.379731 22.918377 
L 296.585054 22.767223 
L 302.611668 23.137013 
L 305.022314 22.831984 
L 309.843605 22.918793 
L 313.459574 22.852106 
L 317.075542 22.854697 
L 318.280865 22.62671 
L 320.691511 22.407773 
L 323.102157 22.659097 
L 325.512802 22.741331 
L 327.923448 22.587816 
L 330.334094 22.511602 
L 333.950062 22.720065 
L 337.566031 22.673222 
L 338.771353 22.470431 
L 344.797968 22.263683 
L 346.00329 22.42398 
L 348.413936 22.307029 
L 350.824582 22.363295 
L 352.029905 22.111583 
L 356.851196 22.302672 
L 358.056519 22.242133 
L 359.261842 22.360642 
L 377.341684 22.186913 
L 378.547007 21.99491 
L 382.162975 22.195154 
L 385.778944 22.149345 
L 402.653463 22.295238 
L 406.269432 22.306428 
L 407.474755 22.151721 
L 411.090723 22.122698 
L 413.501369 22.283744 
L 418.32266 22.320828 
L 420.733306 22.377446 
L 424.349274 22.396351 
L 426.75992 22.251892 
L 429.170566 22.300362 
L 435.19718 22.224483 
L 452.071699 22.514821 
L 455.687668 22.406025 
L 459.303636 22.423378 
L 460.508959 22.393913 
L 462.919605 22.564346 
L 466.535573 22.461016 
L 468.946219 22.302973 
L 470.151542 22.25584 
L 473.76751 22.353887 
L 478.588802 22.296556 
L 480.999447 22.181657 
L 491.847353 22.533627 
L 494.257999 22.459596 
L 495.463321 22.527819 
L 499.07929 22.349781 
L 501.489936 22.280582 
L 506.311227 22.24736 
L 508.721873 22.311166 
L 511.132518 22.374117 
L 512.337841 22.30586 
L 515.95381 22.384615 
L 515.95381 22.384615 
" clip-path="url(#pd87249f1b8)" style="fill: none; stroke: #4169e1; stroke-width: 1.5; stroke-linecap: square"/>
   </g>
   <g id="line2d_26">
    <path d="M 35.03 97 
L 36.235323 61.807573 
L 37.440646 73.526491 
L 38.645968 53.64069 
L 39.851291 62.188647 
L 41.056614 67.969963 
L 42.261937 61.065457 
L 43.46726 56.971384 
L 44.672583 59.579037 
L 45.877905 57.169809 
L 48.288551 60.470935 
L 49.493874 60.691178 
L 50.699197 63.282749 
L 51.90452 65.467253 
L 53.109842 67.150518 
L 54.315165 68.458905 
L 55.520488 68.974122 
L 56.725811 68.341037 
L 57.931134 61.924572 
L 60.341779 64.432455 
L 61.547102 61.743986 
L 62.752425 61.974567 
L 63.957748 61.261101 
L 65.163071 53.844772 
L 66.368394 55.123493 
L 67.573716 52.655063 
L 68.779039 53.983766 
L 69.984362 53.670621 
L 71.189685 55.032839 
L 73.600331 57.324343 
L 74.805653 58.224223 
L 76.010976 58.786011 
L 78.421622 60.542466 
L 79.626945 60.597385 
L 80.832268 57.300219 
L 82.03759 58.258784 
L 83.242913 49.620177 
L 84.448236 49.598217 
L 85.653559 50.699953 
L 86.858882 49.078079 
L 88.064205 47.756881 
L 89.269527 47.534962 
L 90.47485 48.205566 
L 91.680173 48.463454 
L 92.885496 35.238874 
L 94.090819 35.714516 
L 95.296142 36.861539 
L 96.501464 37.637036 
L 98.91211 38.152309 
L 100.117433 38.901024 
L 101.322756 37.881483 
L 102.528079 37.917828 
L 103.733401 38.339153 
L 104.938724 37.127592 
L 106.144047 37.77273 
L 108.554693 39.576125 
L 109.760016 39.25079 
L 110.965338 38.659252 
L 112.170661 38.537099 
L 113.375984 36.134599 
L 114.581307 36.966241 
L 115.78663 34.44367 
L 116.991953 35.307091 
L 118.197275 35.373173 
L 119.402598 32.670364 
L 120.607921 33.311302 
L 121.813244 32.940877 
L 123.018567 31.341894 
L 125.429212 32.987918 
L 126.634535 33.135974 
L 127.839858 32.76341 
L 130.250504 34.227919 
L 133.866472 33.207609 
L 135.071795 33.518599 
L 136.277118 32.899211 
L 137.482441 28.977993 
L 138.687763 29.321954 
L 139.893086 24.772996 
L 141.098409 25.325996 
L 142.303732 25.734547 
L 143.509055 25.539672 
L 144.714378 25.896433 
L 147.125023 27.258869 
L 148.330346 26.965124 
L 149.535669 25.841309 
L 150.740992 25.934124 
L 151.946315 26.324479 
L 154.35696 27.671403 
L 155.562283 28.196186 
L 156.767606 28.266111 
L 157.972929 27.238518 
L 160.383574 28.533239 
L 161.588897 28.033438 
L 162.79422 28.281917 
L 163.999543 28.053587 
L 165.204866 28.545805 
L 166.410189 28.598505 
L 167.615511 28.472128 
L 168.820834 28.155065 
L 170.026157 28.76372 
L 171.23148 29.226399 
L 172.436803 28.392796 
L 174.847448 28.238706 
L 178.463417 29.70847 
L 179.66874 30.202826 
L 180.874063 27.338179 
L 182.079385 27.874477 
L 183.284708 27.422376 
L 185.695354 28.451892 
L 186.900677 27.980958 
L 188.106 27.82367 
L 189.311322 24.781789 
L 190.516645 24.765193 
L 191.721968 24.879164 
L 194.132614 25.851124 
L 195.337937 26.33182 
L 196.543259 25.921933 
L 197.748582 26.351725 
L 198.953905 25.532402 
L 200.159228 25.420179 
L 202.569873 26.362475 
L 203.775196 25.969321 
L 204.980519 25.823949 
L 206.185842 25.363604 
L 207.391165 25.857676 
L 208.596488 26.004877 
L 209.80181 26.349904 
L 212.212456 27.186737 
L 213.417779 26.847267 
L 214.623102 27.288488 
L 215.828425 27.58637 
L 217.033747 27.223216 
L 218.23907 27.526196 
L 219.444393 27.162091 
L 220.649716 27.382643 
L 221.855039 27.791844 
L 223.060362 28.056775 
L 224.265684 28.118286 
L 225.471007 28.501902 
L 226.67633 28.694472 
L 227.881653 28.153324 
L 229.086976 28.394626 
L 230.292299 28.752548 
L 231.497621 28.96861 
L 232.702944 29.050772 
L 233.908267 25.763778 
L 235.11359 24.689456 
L 236.318913 25.082814 
L 237.524236 23.641879 
L 238.729558 24.058615 
L 239.934881 24.35677 
L 241.140204 23.287306 
L 242.345527 22.690347 
L 243.55085 22.311113 
L 244.756173 22.563367 
L 245.961495 22.650197 
L 247.166818 22.591695 
L 248.372141 22.988401 
L 249.577464 22.802557 
L 250.782787 22.970649 
L 251.98811 23.36075 
L 253.193432 21.857577 
L 254.398755 22.246268 
L 256.809401 22.139309 
L 258.014724 22.540577 
L 259.220047 21.384769 
L 260.425369 21.78628 
L 261.630692 21.920652 
L 262.836015 21.553277 
L 266.451984 22.540675 
L 267.657306 22.473076 
L 268.862629 22.83782 
L 270.067952 22.333943 
L 271.273275 22.712739 
L 272.478598 22.912313 
L 273.683921 22.91718 
L 274.889243 23.111751 
L 276.094566 23.476106 
L 277.299889 23.60049 
L 278.505212 23.929264 
L 279.710535 21.733393 
L 280.915858 21.369285 
L 282.12118 21.409295 
L 284.531826 22.124404 
L 288.147794 22.477495 
L 289.353117 22.818734 
L 290.55844 22.940386 
L 291.763763 22.585348 
L 292.969086 22.6454 
L 294.174409 22.846855 
L 296.585054 21.88046 
L 297.790377 22.022168 
L 298.9957 22.294598 
L 300.201023 20.906501 
L 302.611668 21.530795 
L 303.816991 21.157817 
L 305.022314 20.389402 
L 306.227637 20.68928 
L 307.43296 20.787768 
L 309.843605 21.340908 
L 314.664897 22.343033 
L 317.075542 22.978092 
L 318.280865 21.185185 
L 319.486188 21.088947 
L 320.691511 20.840508 
L 321.896834 20.318343 
L 323.102157 20.155327 
L 325.512802 20.634239 
L 326.718125 20.370865 
L 327.923448 20.631002 
L 329.128771 20.761599 
L 330.334094 21.066756 
L 331.539416 20.910377 
L 333.950062 21.285287 
L 335.155385 21.587806 
L 336.360708 21.668646 
L 337.566031 21.947177 
L 338.771353 20.456582 
L 339.976676 20.725761 
L 341.181999 20.455827 
L 344.797968 21.254486 
L 346.00329 20.403648 
L 347.208613 20.418196 
L 350.824582 21.14812 
L 352.029905 18.561711 
L 354.44055 18.841036 
L 355.645873 19.132859 
L 358.056519 19.30726 
L 359.261842 18.943474 
L 361.672487 19.453729 
L 364.083133 19.905524 
L 365.288456 19.854795 
L 366.493778 19.572553 
L 372.520393 20.837526 
L 373.725715 20.685099 
L 374.931038 20.861398 
L 376.136361 20.79368 
L 377.341684 21.012728 
L 378.547007 19.466464 
L 379.75233 19.395293 
L 382.162975 19.593143 
L 384.573621 20.103513 
L 385.778944 20.105696 
L 386.984267 20.367429 
L 388.189589 20.384854 
L 390.600235 20.865635 
L 391.805558 19.945722 
L 393.010881 19.837199 
L 394.216204 20.090501 
L 395.421526 19.918441 
L 397.832172 20.380394 
L 400.242818 20.026957 
L 401.448141 20.087853 
L 403.858786 20.526781 
L 405.064109 20.578087 
L 406.269432 20.74769 
L 407.474755 19.718206 
L 409.8854 20.120314 
L 411.090723 20.364502 
L 412.296046 19.97353 
L 413.501369 20.068337 
L 414.706692 20.310819 
L 415.912015 19.95672 
L 417.117337 19.912595 
L 418.32266 20.149692 
L 419.527983 20.149151 
L 423.143952 20.740581 
L 424.349274 20.895208 
L 425.554597 20.587659 
L 430.375889 21.115042 
L 431.581211 21.024639 
L 442.429117 22.566493 
L 443.63444 22.210027 
L 446.045085 22.632586 
L 447.250408 22.414173 
L 450.866377 22.855493 
L 456.892991 23.288013 
L 460.508959 23.59689 
L 462.919605 23.122294 
L 464.124928 23.088789 
L 465.330251 22.762798 
L 466.535573 22.80106 
L 467.740896 22.967451 
L 468.946219 22.079006 
L 470.151542 22.147665 
L 471.356865 22.076195 
L 472.562188 22.241188 
L 473.76751 22.242785 
L 477.383479 22.767739 
L 478.588802 22.407261 
L 479.794125 21.813679 
L 480.999447 22.015718 
L 487.026062 22.318046 
L 488.231384 22.515827 
L 489.436707 21.787554 
L 491.847353 22.099975 
L 493.052676 21.868736 
L 494.257999 22.062406 
L 495.463321 21.951437 
L 496.668644 21.636543 
L 497.873967 21.472802 
L 500.284613 21.816758 
L 501.489936 21.471582 
L 507.51655 22.279042 
L 508.721873 22.260804 
L 509.927195 22.091619 
L 511.132518 22.274405 
L 513.543164 22.1231 
L 515.95381 22.384615 
L 515.95381 22.384615 
" clip-path="url(#pd87249f1b8)" style="fill: none; stroke-dasharray: 5.55,2.4; stroke-dashoffset: 0; stroke: #4169e1; stroke-width: 1.5"/>
   </g>
   <g id="line2d_27">
    <path d="M 35.03 11.685871 
L 36.235323 22.940845 
L 37.440646 21.814429 
L 38.645968 18.775389 
L 39.851291 18.955888 
L 41.056614 18.636076 
L 42.261937 21.473062 
L 43.46726 23.46912 
L 44.672583 24.135878 
L 45.877905 26.201901 
L 48.288551 28.038874 
L 49.493874 26.637738 
L 51.90452 26.123031 
L 53.109842 25.550862 
L 54.315165 25.994141 
L 55.520488 25.27426 
L 57.931134 22.781887 
L 59.136457 22.619473 
L 60.341779 23.015501 
L 61.547102 21.90344 
L 62.752425 21.787751 
L 63.957748 22.458973 
L 65.163071 23.668813 
L 66.368394 23.963325 
L 67.573716 23.009151 
L 68.779039 23.114428 
L 69.984362 23.57734 
L 72.395008 23.386165 
L 73.600331 23.120735 
L 74.805653 23.206907 
L 76.010976 22.851001 
L 77.216299 23.153038 
L 78.421622 23.250308 
L 79.626945 23.612297 
L 80.832268 24.305044 
L 82.03759 24.357908 
L 83.242913 23.364468 
L 84.448236 23.720797 
L 85.653559 23.573375 
L 89.269527 25.022257 
L 91.680173 24.429721 
L 92.885496 23.193126 
L 94.090819 23.523118 
L 96.501464 23.389106 
L 98.91211 22.941291 
L 100.117433 23.016197 
L 102.528079 23.657283 
L 103.733401 23.306695 
L 104.938724 22.835169 
L 107.34937 23.062506 
L 108.554693 23.073427 
L 112.170661 24.007723 
L 113.375984 23.445096 
L 114.581307 23.461624 
L 115.78663 24.008265 
L 116.991953 24.078645 
L 118.197275 23.813245 
L 119.402598 23.256515 
L 121.813244 22.945021 
L 123.018567 22.561171 
L 125.429212 22.666465 
L 126.634535 22.399275 
L 127.839858 22.651923 
L 130.250504 22.668841 
L 131.455826 22.288058 
L 133.866472 22.747991 
L 135.071795 22.706207 
L 136.277118 22.978295 
L 137.482441 22.454255 
L 138.687763 22.584032 
L 139.893086 22.148731 
L 141.098409 22.262518 
L 142.303732 22.20191 
L 143.509055 21.952294 
L 144.714378 22.06483 
L 147.125023 22.010746 
L 149.535669 22.526467 
L 151.946315 22.125796 
L 154.35696 22.104491 
L 155.562283 22.172564 
L 156.767606 21.997574 
L 157.972929 22.262167 
L 160.383574 22.199813 
L 162.79422 22.617772 
L 163.999543 22.813789 
L 165.204866 22.734405 
L 167.615511 23.058204 
L 168.820834 22.90511 
L 171.23148 22.838283 
L 173.642126 23.241736 
L 176.052771 23.046662 
L 179.66874 23.00746 
L 180.874063 22.696087 
L 184.490031 22.30255 
L 185.695354 22.328795 
L 188.106 22.656554 
L 189.311322 22.295375 
L 191.721968 22.53488 
L 195.337937 22.461569 
L 197.748582 22.723198 
L 200.159228 22.44441 
L 202.569873 22.463177 
L 203.775196 22.376521 
L 206.185842 22.742774 
L 212.212456 22.511087 
L 213.417779 22.652078 
L 218.23907 22.403252 
L 220.649716 22.115312 
L 223.060362 22.252611 
L 225.471007 22.388148 
L 232.702944 22.910096 
L 233.908267 22.549514 
L 235.11359 22.766394 
L 236.318913 22.732701 
L 237.524236 22.958536 
L 239.934881 22.87942 
L 241.140204 23.097325 
L 244.756173 22.765589 
L 245.961495 22.881372 
L 248.372141 22.761296 
L 250.782787 22.945031 
L 251.98811 22.908052 
L 253.193432 22.711954 
L 254.398755 22.714852 
L 255.604078 22.843796 
L 256.809401 22.766531 
L 258.014724 22.806852 
L 259.220047 23.006977 
L 261.630692 23.033677 
L 264.041338 23.254477 
L 267.657306 23.020409 
L 268.862629 22.969334 
L 270.067952 23.116583 
L 273.683921 23.100214 
L 277.299889 23.232652 
L 278.505212 23.179641 
L 279.710535 23.001832 
L 280.915858 23.13324 
L 283.326503 23.008807 
L 289.353117 23.106677 
L 290.55844 23.050327 
L 292.969086 23.258672 
L 294.174409 23.192443 
L 295.379731 23.316107 
L 296.585054 23.213434 
L 298.9957 23.318595 
L 300.201023 23.521964 
L 303.816991 23.40078 
L 305.022314 23.21382 
L 309.843605 23.300986 
L 313.459574 23.202516 
L 317.075542 23.195112 
L 319.486188 22.880933 
L 320.691511 22.788569 
L 323.102157 23.021601 
L 326.718125 22.952404 
L 331.539416 22.907433 
L 335.155385 22.994002 
L 336.360708 22.894254 
L 337.566031 22.931587 
L 338.771353 22.730913 
L 349.619259 22.617837 
L 350.824582 22.63994 
L 352.029905 22.45385 
L 356.851196 22.59742 
L 358.056519 22.528162 
L 359.261842 22.630526 
L 374.931038 22.424915 
L 376.136361 22.324978 
L 377.341684 22.343432 
L 378.547007 22.159882 
L 383.368298 22.334756 
L 393.010881 22.306028 
L 397.832172 22.353996 
L 399.037495 22.272331 
L 402.653463 22.423042 
L 405.064109 22.398693 
L 406.269432 22.430782 
L 408.680078 22.270735 
L 412.296046 22.396876 
L 417.117337 22.479696 
L 421.938629 22.510816 
L 424.349274 22.522654 
L 426.75992 22.395615 
L 429.170566 22.453495 
L 433.991857 22.336769 
L 442.429117 22.451347 
L 444.839763 22.531176 
L 452.071699 22.563121 
L 455.687668 22.449942 
L 459.303636 22.454402 
L 460.508959 22.419508 
L 462.919605 22.566815 
L 466.535573 22.526872 
L 472.562188 22.395847 
L 474.972833 22.443442 
L 478.588802 22.389346 
L 480.999447 22.265647 
L 491.847353 22.524384 
L 494.257999 22.457222 
L 495.463321 22.511628 
L 499.07929 22.3419 
L 500.284613 22.369149 
L 501.489936 22.268877 
L 506.311227 22.235921 
L 508.721873 22.284902 
L 511.132518 22.337658 
L 512.337841 22.277401 
L 515.95381 22.384615 
L 515.95381 22.384615 
" clip-path="url(#pd87249f1b8)" style="fill: none; stroke: #ff8c00; stroke-width: 1.5; stroke-linecap: square"/>
   </g>
   <g id="line2d_28">
    <path d="M 35.03 97 
L 36.235323 70.537767 
L 37.440646 78.828402 
L 38.645968 77.583263 
L 39.851291 81.439387 
L 41.056614 83.925991 
L 42.261937 75.705752 
L 43.46726 72.541377 
L 44.672583 74.516045 
L 45.877905 68.739341 
L 48.288551 69.92253 
L 49.493874 67.084124 
L 50.699197 69.053634 
L 51.90452 70.709052 
L 53.109842 71.326399 
L 54.315165 72.179843 
L 55.520488 71.71836 
L 56.725811 67.568322 
L 57.931134 62.485178 
L 59.136457 64.018533 
L 60.341779 64.829661 
L 61.547102 60.544854 
L 62.752425 61.999512 
L 63.957748 61.140711 
L 65.163071 54.875689 
L 66.368394 55.964745 
L 67.573716 52.295105 
L 68.779039 53.771825 
L 69.984362 53.914591 
L 71.189685 55.289436 
L 72.395008 56.461869 
L 73.600331 57.219335 
L 74.805653 58.338165 
L 76.010976 58.543113 
L 77.216299 58.94436 
L 78.421622 59.901737 
L 79.626945 59.86519 
L 80.832268 57.007849 
L 82.03759 57.984884 
L 83.242913 50.689748 
L 84.448236 50.704882 
L 85.653559 51.590828 
L 86.858882 50.284405 
L 88.064205 48.79693 
L 89.269527 48.229953 
L 90.47485 48.324571 
L 91.680173 48.572913 
L 92.885496 34.228006 
L 94.090819 34.368795 
L 96.501464 36.669629 
L 98.91211 37.812694 
L 100.117433 38.825532 
L 101.322756 38.249409 
L 102.528079 38.451315 
L 103.733401 37.997235 
L 104.938724 36.303412 
L 107.34937 37.960478 
L 108.554693 38.911209 
L 109.760016 38.42765 
L 110.965338 37.785855 
L 112.170661 37.786747 
L 113.375984 34.385669 
L 114.581307 35.316445 
L 115.78663 32.041236 
L 116.991953 32.912305 
L 118.197275 32.812555 
L 119.402598 29.184237 
L 120.607921 29.835113 
L 121.813244 30.313209 
L 123.018567 28.967485 
L 125.429212 30.664186 
L 127.839858 30.219467 
L 130.250504 31.81142 
L 131.455826 30.193066 
L 133.866472 30.013168 
L 135.071795 30.780358 
L 136.277118 30.260336 
L 137.482441 26.16015 
L 138.687763 26.67183 
L 139.893086 24.027233 
L 141.098409 24.609134 
L 142.303732 25.345181 
L 143.509055 24.961143 
L 144.714378 25.503425 
L 147.125023 26.968316 
L 148.330346 26.611323 
L 149.535669 25.792336 
L 150.740992 25.408302 
L 151.946315 25.590194 
L 155.562283 27.59502 
L 156.767606 27.629379 
L 157.972929 26.811134 
L 160.383574 28.015364 
L 161.588897 27.15586 
L 162.79422 27.272788 
L 163.999543 27.059583 
L 165.204866 27.559062 
L 166.410189 27.776615 
L 167.615511 27.579389 
L 168.820834 27.655747 
L 171.23148 28.795518 
L 172.436803 27.888452 
L 174.847448 27.948899 
L 179.66874 30.008032 
L 180.874063 28.106474 
L 182.079385 28.265822 
L 183.284708 27.930865 
L 184.490031 28.308807 
L 185.695354 28.83599 
L 186.900677 28.52061 
L 188.106 28.475791 
L 189.311322 25.51886 
L 190.516645 25.540497 
L 191.721968 25.817131 
L 195.337937 27.332076 
L 196.543259 26.993701 
L 197.748582 27.295395 
L 198.953905 26.993707 
L 200.159228 27.155422 
L 202.569873 28.078425 
L 203.775196 28.347614 
L 204.980519 27.775058 
L 206.185842 27.3308 
L 207.391165 27.701245 
L 208.596488 27.539193 
L 212.212456 28.688913 
L 213.417779 28.532796 
L 215.828425 29.290211 
L 217.033747 28.527365 
L 218.23907 28.839254 
L 220.649716 28.391985 
L 221.855039 28.76523 
L 223.060362 28.924238 
L 224.265684 28.900582 
L 225.471007 29.318404 
L 226.67633 29.448172 
L 227.881653 28.763726 
L 229.086976 29.00531 
L 231.497621 29.697752 
L 232.702944 29.865272 
L 233.908267 25.788133 
L 235.11359 24.583429 
L 236.318913 24.974876 
L 237.524236 23.611152 
L 238.729558 24.04032 
L 239.934881 24.194574 
L 241.140204 22.92169 
L 247.166818 22.74485 
L 248.372141 23.160318 
L 249.577464 22.982228 
L 251.98811 23.624858 
L 253.193432 22.574027 
L 254.398755 22.980407 
L 255.604078 22.747082 
L 256.809401 22.91898 
L 258.014724 23.254434 
L 259.220047 22.092635 
L 261.630692 22.674176 
L 262.836015 22.311836 
L 264.041338 22.431747 
L 265.246661 22.423557 
L 266.451984 22.788968 
L 267.657306 22.670322 
L 268.862629 22.945778 
L 270.067952 22.440363 
L 271.273275 22.778337 
L 272.478598 22.85782 
L 273.683921 22.818413 
L 274.889243 23.04037 
L 276.094566 23.398402 
L 277.299889 23.437655 
L 278.505212 23.681449 
L 279.710535 22.700132 
L 280.915858 22.326683 
L 282.12118 22.184282 
L 284.531826 22.838612 
L 288.147794 23.32154 
L 289.353117 23.664795 
L 290.55844 23.868468 
L 291.763763 23.517644 
L 292.969086 23.547082 
L 294.174409 23.690139 
L 295.379731 23.337924 
L 296.585054 23.197955 
L 298.9957 23.615192 
L 300.201023 22.046481 
L 302.611668 22.695935 
L 303.816991 22.21978 
L 305.022314 20.916518 
L 309.843605 21.853884 
L 311.048928 22.012817 
L 312.254251 22.285088 
L 313.459574 22.355207 
L 317.075542 23.276593 
L 318.280865 21.771516 
L 319.486188 21.357947 
L 320.691511 21.253403 
L 321.896834 20.692023 
L 323.102157 20.509517 
L 325.512802 21.086089 
L 326.718125 20.775263 
L 327.923448 21.028828 
L 329.128771 20.972692 
L 330.334094 21.255236 
L 331.539416 21.082409 
L 335.155385 21.754219 
L 336.360708 21.534388 
L 337.566031 21.760776 
L 338.771353 19.938245 
L 339.976676 20.216868 
L 341.181999 19.876984 
L 344.797968 20.726827 
L 346.00329 19.916482 
L 347.208613 19.952962 
L 350.824582 20.67425 
L 352.029905 19.060814 
L 354.44055 19.418251 
L 355.645873 19.705765 
L 358.056519 19.808076 
L 359.261842 19.505142 
L 361.672487 20.038308 
L 362.87781 20.151549 
L 364.083133 20.421827 
L 365.288456 20.434533 
L 366.493778 20.159651 
L 368.904424 20.538418 
L 372.520393 21.323461 
L 373.725715 20.872186 
L 374.931038 21.065134 
L 376.136361 20.742064 
L 377.341684 20.98943 
L 378.547007 19.249366 
L 380.957652 19.421511 
L 383.368298 19.818373 
L 384.573621 20.069905 
L 385.778944 19.958106 
L 386.984267 20.20891 
L 388.189589 20.204356 
L 390.600235 20.688923 
L 391.805558 20.262786 
L 393.010881 20.109814 
L 394.216204 20.349035 
L 395.421526 20.206359 
L 397.832172 20.611815 
L 400.242818 20.235394 
L 401.448141 20.323769 
L 403.858786 20.707548 
L 405.064109 20.690368 
L 406.269432 20.871071 
L 407.474755 20.447586 
L 408.680078 20.474093 
L 411.090723 20.950765 
L 412.296046 20.42904 
L 413.501369 20.526217 
L 414.706692 20.761383 
L 415.912015 20.414194 
L 417.117337 20.340731 
L 418.32266 20.573068 
L 419.527983 20.645023 
L 421.938629 21.090869 
L 424.349274 21.306997 
L 425.554597 21.046464 
L 426.75992 21.161643 
L 427.965243 21.101854 
L 429.170566 21.329338 
L 430.375889 21.374244 
L 431.581211 21.202478 
L 436.402503 21.857959 
L 440.018471 22.436776 
L 441.223794 22.466154 
L 442.429117 22.635224 
L 443.63444 22.244822 
L 446.045085 22.653954 
L 447.250408 22.465028 
L 450.866377 22.970356 
L 452.071699 23.009238 
L 453.277022 22.893338 
L 455.687668 23.200646 
L 458.098314 23.480828 
L 459.303636 23.448284 
L 460.508959 23.566273 
L 461.714282 23.269692 
L 462.919605 23.165423 
L 465.330251 23.323904 
L 467.740896 23.524306 
L 468.946219 22.969248 
L 473.76751 23.148557 
L 477.383479 23.63809 
L 478.588802 23.281797 
L 479.794125 22.503723 
L 483.410093 22.975249 
L 484.615416 22.739219 
L 488.231384 23.074268 
L 489.436707 22.277987 
L 491.847353 22.63261 
L 493.052676 22.378118 
L 494.257999 22.568237 
L 495.463321 22.526369 
L 496.668644 22.327509 
L 497.873967 21.943063 
L 500.284613 22.253639 
L 501.489936 21.633449 
L 507.51655 22.440236 
L 508.721873 22.426375 
L 509.927195 22.204576 
L 511.132518 22.367094 
L 513.543164 22.2217 
L 514.748487 22.406493 
L 515.95381 22.384615 
L 515.95381 22.384615 
" clip-path="url(#pd87249f1b8)" style="fill: none; stroke-dasharray: 5.55,2.4; stroke-dashoffset: 0; stroke: #ff8c00; stroke-width: 1.5"/>
   </g>
   <g id="patch_3">
    <path d="M 35.03 97 
L 35.03 0 
" style="fill: none; stroke: #000000; stroke-width: 0.8; stroke-linejoin: miter; stroke-linecap: square"/>
   </g>
   <g id="patch_4">
    <path d="M 540 97 
L 540 0 
" style="fill: none; stroke: #000000; stroke-width: 0.8; stroke-linejoin: miter; stroke-linecap: square"/>
   </g>
   <g id="patch_5">
    <path d="M 35.03 97 
L 540 97 
" style="fill: none; stroke: #000000; stroke-width: 0.8; stroke-linejoin: miter; stroke-linecap: square"/>
   </g>
   <g id="patch_6">
    <path d="M 35.03 0 
L 540 0 
" style="fill: none; stroke: #000000; stroke-width: 0.8; stroke-linejoin: miter; stroke-linecap: square"/>
   </g>
  </g>
 </g>
 <defs>
  <clipPath id="pd87249f1b8">
   <rect x="35.03" y="0" width="504.97" height="97"/>
  </clipPath>
 </defs>
</svg>
