<?xml version="1.0" encoding="utf-8" standalone="no"?>
<!DOCTYPE svg PUBLIC "-//W3C//DTD SVG 1.1//EN"
  "http://www.w3.org/Graphics/SVG/1.1/DTD/svg11.dtd">
<svg xmlns:xlink="http://www.w3.org/1999/xlink" width="540pt" height="129.6pt" viewBox="0 0 540 129.6" xmlns="http://www.w3.org/2000/svg" version="1.1">
 <metadata>
  <rdf:RDF xmlns:dc="http://purl.org/dc/elements/1.1/" xmlns:cc="http://creativecommons.org/ns#" xmlns:rdf="http://www.w3.org/1999/02/22-rdf-syntax-ns#">
   <cc:Work>
    <dc:type rdf:resource="http://purl.org/dc/dcmitype/StillImage"/>
    <dc:date>2025-03-29T00:21:54.834142</dc:date>
    <dc:format>image/svg+xml</dc:format>
    <dc:creator>
     <cc:Agent>
      <dc:title>Matplotlib v3.8.3, https://matplotlib.org/</dc:title>
     </cc:Agent>
    </dc:creator>
   </cc:Work>
  </rdf:RDF>
 </metadata>
 <defs>
  <style type="text/css">*{stroke-linejoin: round; stroke-linecap: butt}</style>
 </defs>
 <g id="figure_1">
  <g id="patch_1">
   <path d="M 0 129.6 
L 540 129.6 
L 540 0 
L 0 0 
z
" style="fill: #ffffff"/>
  </g>
  <g id="axes_1">
   <g id="patch_2">
    <path d="M 35.03 97 
L 540 97 
L 540 0 
L 35.03 0 
z
" style="fill: #ffffff"/>
   </g>
   <g id="matplotlib.axis_1">
    <g id="xtick_1">
     <g id="line2d_1">
      <path d="M 35.03 97 
L 35.03 0 
" clip-path="url(#p3b9438a19c)" style="fill: none; stroke: #b0b0b0; stroke-width: 0.8; stroke-linecap: square"/>
     </g>
     <g id="line2d_2">
      <defs>
       <path id="m19ca618bf9" d="M 0 0 
L 0 3.5 
" style="stroke: #000000; stroke-width: 0.8"/>
      </defs>
      <g>
       <use xlink:href="#m19ca618bf9" x="35.03" y="97" style="stroke: #000000; stroke-width: 0.8"/>
      </g>
     </g>
     <g id="text_1">
      <text style="font: 10px 'Times New Roman'; text-anchor: middle" x="35.03" y="110.94375" transform="rotate(-0 35.03 110.94375)">0</text>
     </g>
    </g>
    <g id="xtick_2">
     <g id="line2d_3">
      <path d="M 95.296142 97 
L 95.296142 0 
" clip-path="url(#p3b9438a19c)" style="fill: none; stroke: #b0b0b0; stroke-width: 0.8; stroke-linecap: square"/>
     </g>
     <g id="line2d_4">
      <g>
       <use xlink:href="#m19ca618bf9" x="95.296142" y="97" style="stroke: #000000; stroke-width: 0.8"/>
      </g>
     </g>
     <g id="text_2">
      <text style="font: 10px 'Times New Roman'; text-anchor: middle" x="95.296142" y="110.94375" transform="rotate(-0 95.296142 110.94375)">50</text>
     </g>
    </g>
    <g id="xtick_3">
     <g id="line2d_5">
      <path d="M 155.562283 97 
L 155.562283 0 
" clip-path="url(#p3b9438a19c)" style="fill: none; stroke: #b0b0b0; stroke-width: 0.8; stroke-linecap: square"/>
     </g>
     <g id="line2d_6">
      <g>
       <use xlink:href="#m19ca618bf9" x="155.562283" y="97" style="stroke: #000000; stroke-width: 0.8"/>
      </g>
     </g>
     <g id="text_3">
      <text style="font: 10px 'Times New Roman'; text-anchor: middle" x="155.562283" y="110.94375" transform="rotate(-0 155.562283 110.94375)">100</text>
     </g>
    </g>
    <g id="xtick_4">
     <g id="line2d_7">
      <path d="M 215.828425 97 
L 215.828425 0 
" clip-path="url(#p3b9438a19c)" style="fill: none; stroke: #b0b0b0; stroke-width: 0.8; stroke-linecap: square"/>
     </g>
     <g id="line2d_8">
      <g>
       <use xlink:href="#m19ca618bf9" x="215.828425" y="97" style="stroke: #000000; stroke-width: 0.8"/>
      </g>
     </g>
     <g id="text_4">
      <text style="font: 10px 'Times New Roman'; text-anchor: middle" x="215.828425" y="110.94375" transform="rotate(-0 215.828425 110.94375)">150</text>
     </g>
    </g>
    <g id="xtick_5">
     <g id="line2d_9">
      <path d="M 276.094566 97 
L 276.094566 0 
" clip-path="url(#p3b9438a19c)" style="fill: none; stroke: #b0b0b0; stroke-width: 0.8; stroke-linecap: square"/>
     </g>
     <g id="line2d_10">
      <g>
       <use xlink:href="#m19ca618bf9" x="276.094566" y="97" style="stroke: #000000; stroke-width: 0.8"/>
      </g>
     </g>
     <g id="text_5">
      <text style="font: 10px 'Times New Roman'; text-anchor: middle" x="276.094566" y="110.94375" transform="rotate(-0 276.094566 110.94375)">200</text>
     </g>
    </g>
    <g id="xtick_6">
     <g id="line2d_11">
      <path d="M 336.360708 97 
L 336.360708 0 
" clip-path="url(#p3b9438a19c)" style="fill: none; stroke: #b0b0b0; stroke-width: 0.8; stroke-linecap: square"/>
     </g>
     <g id="line2d_12">
      <g>
       <use xlink:href="#m19ca618bf9" x="336.360708" y="97" style="stroke: #000000; stroke-width: 0.8"/>
      </g>
     </g>
     <g id="text_6">
      <text style="font: 10px 'Times New Roman'; text-anchor: middle" x="336.360708" y="110.94375" transform="rotate(-0 336.360708 110.94375)">250</text>
     </g>
    </g>
    <g id="xtick_7">
     <g id="line2d_13">
      <path d="M 396.626849 97 
L 396.626849 0 
" clip-path="url(#p3b9438a19c)" style="fill: none; stroke: #b0b0b0; stroke-width: 0.8; stroke-linecap: square"/>
     </g>
     <g id="line2d_14">
      <g>
       <use xlink:href="#m19ca618bf9" x="396.626849" y="97" style="stroke: #000000; stroke-width: 0.8"/>
      </g>
     </g>
     <g id="text_7">
      <text style="font: 10px 'Times New Roman'; text-anchor: middle" x="396.626849" y="110.94375" transform="rotate(-0 396.626849 110.94375)">300</text>
     </g>
    </g>
    <g id="xtick_8">
     <g id="line2d_15">
      <path d="M 456.892991 97 
L 456.892991 0 
" clip-path="url(#p3b9438a19c)" style="fill: none; stroke: #b0b0b0; stroke-width: 0.8; stroke-linecap: square"/>
     </g>
     <g id="line2d_16">
      <g>
       <use xlink:href="#m19ca618bf9" x="456.892991" y="97" style="stroke: #000000; stroke-width: 0.8"/>
      </g>
     </g>
     <g id="text_8">
      <text style="font: 10px 'Times New Roman'; text-anchor: middle" x="456.892991" y="110.94375" transform="rotate(-0 456.892991 110.94375)">350</text>
     </g>
    </g>
    <g id="xtick_9">
     <g id="line2d_17">
      <path d="M 517.159132 97 
L 517.159132 0 
" clip-path="url(#p3b9438a19c)" style="fill: none; stroke: #b0b0b0; stroke-width: 0.8; stroke-linecap: square"/>
     </g>
     <g id="line2d_18">
      <g>
       <use xlink:href="#m19ca618bf9" x="517.159132" y="97" style="stroke: #000000; stroke-width: 0.8"/>
      </g>
     </g>
     <g id="text_9">
      <text style="font: 10px 'Times New Roman'; text-anchor: middle" x="517.159132" y="110.94375" transform="rotate(-0 517.159132 110.94375)">400</text>
     </g>
    </g>
    <g id="text_10">
     <text style="font: 12px 'Times New Roman'; text-anchor: middle" x="287.515" y="125.415312" transform="rotate(-0 287.515 125.415312)">Simulation Run</text>
    </g>
   </g>
   <g id="matplotlib.axis_2">
    <g id="ytick_1">
     <g id="line2d_19">
      <path d="M 35.03 97 
L 540 97 
" clip-path="url(#p3b9438a19c)" style="fill: none; stroke: #b0b0b0; stroke-width: 0.8; stroke-linecap: square"/>
     </g>
     <g id="line2d_20">
      <defs>
       <path id="md5ad804884" d="M 0 0 
L -3.5 0 
" style="stroke: #000000; stroke-width: 0.8"/>
      </defs>
      <g>
       <use xlink:href="#md5ad804884" x="35.03" y="97" style="stroke: #000000; stroke-width: 0.8"/>
      </g>
     </g>
     <g id="text_11">
      <text style="font: 10px 'Times New Roman'; text-anchor: end" x="28.03" y="100.471875" transform="rotate(-0 28.03 100.471875)">0.0</text>
     </g>
    </g>
    <g id="ytick_2">
     <g id="line2d_21">
      <path d="M 35.03 59.692308 
L 540 59.692308 
" clip-path="url(#p3b9438a19c)" style="fill: none; stroke: #b0b0b0; stroke-width: 0.8; stroke-linecap: square"/>
     </g>
     <g id="line2d_22">
      <g>
       <use xlink:href="#md5ad804884" x="35.03" y="59.692308" style="stroke: #000000; stroke-width: 0.8"/>
      </g>
     </g>
     <g id="text_12">
      <text style="font: 10px 'Times New Roman'; text-anchor: end" x="28.03" y="63.164183" transform="rotate(-0 28.03 63.164183)">0.5</text>
     </g>
    </g>
    <g id="ytick_3">
     <g id="line2d_23">
      <path d="M 35.03 22.384615 
L 540 22.384615 
" clip-path="url(#p3b9438a19c)" style="fill: none; stroke: #b0b0b0; stroke-width: 0.8; stroke-linecap: square"/>
     </g>
     <g id="line2d_24">
      <g>
       <use xlink:href="#md5ad804884" x="35.03" y="22.384615" style="stroke: #000000; stroke-width: 0.8"/>
      </g>
     </g>
     <g id="text_13">
      <text style="font: 10px 'Times New Roman'; text-anchor: end" x="28.03" y="25.85649" transform="rotate(-0 28.03 25.85649)">1.0</text>
     </g>
    </g>
    <g id="text_14">
     <text style="font: 12px 'Times New Roman'; text-anchor: middle" x="8.963125" y="48.5" transform="rotate(-90 8.963125 48.5)">Normalized Value</text>
    </g>
   </g>
   <g id="line2d_25">
    <path d="M 35.03 27.436781 
L 36.235323 39.438628 
L 37.440646 40.364062 
L 38.645968 29.817004 
L 39.851291 30.078025 
L 41.056614 27.812377 
L 42.261937 27.367251 
L 43.46726 26.25164 
L 44.672583 28.486617 
L 45.877905 23.443847 
L 47.083228 24.872921 
L 48.288551 25.340957 
L 49.493874 24.358924 
L 50.699197 23.589854 
L 51.90452 22.130908 
L 53.109842 20.93703 
L 54.315165 21.917906 
L 55.520488 22.64091 
L 56.725811 23.688519 
L 57.931134 21.532448 
L 59.136457 21.098662 
L 60.341779 22.72421 
L 61.547102 23.398248 
L 62.752425 23.921294 
L 63.957748 23.970518 
L 65.163071 24.344681 
L 66.368394 24.83559 
L 67.573716 25.001267 
L 68.779039 24.702334 
L 69.984362 24.754212 
L 71.189685 25.47381 
L 72.395008 25.070789 
L 73.600331 25.059773 
L 74.805653 24.657477 
L 76.010976 23.788746 
L 77.216299 24.209361 
L 80.832268 26.111987 
L 82.03759 26.008198 
L 84.448236 26.092495 
L 85.653559 25.54297 
L 86.858882 25.558991 
L 88.064205 25.150265 
L 89.269527 25.157473 
L 90.47485 24.676774 
L 91.680173 25.012732 
L 96.501464 24.898207 
L 97.706787 24.553421 
L 98.91211 24.350388 
L 100.117433 23.977003 
L 102.528079 24.132507 
L 103.733401 23.958833 
L 104.938724 24.320075 
L 106.144047 24.525915 
L 107.34937 23.977006 
L 108.554693 24.094784 
L 109.760016 23.798726 
L 110.965338 24.186773 
L 112.170661 23.79839 
L 113.375984 23.852164 
L 115.78663 24.434792 
L 116.991953 24.461395 
L 118.197275 24.151904 
L 119.402598 24.451429 
L 120.607921 24.972058 
L 121.813244 24.697255 
L 123.018567 24.806126 
L 124.223889 25.187612 
L 126.634535 25.654499 
L 127.839858 25.499788 
L 130.250504 25.673316 
L 131.455826 25.644941 
L 132.661149 25.813835 
L 136.277118 25.133808 
L 138.687763 25.214564 
L 139.893086 25.168784 
L 142.303732 25.482428 
L 143.509055 25.207325 
L 144.714378 24.814002 
L 145.9197 24.869037 
L 147.125023 25.13174 
L 148.330346 24.94763 
L 149.535669 24.548976 
L 154.35696 24.191094 
L 155.562283 23.712618 
L 156.767606 23.748276 
L 159.178252 23.386603 
L 160.383574 23.699986 
L 161.588897 23.675435 
L 163.999543 23.508831 
L 165.204866 23.529856 
L 166.410189 23.283629 
L 167.615511 23.585928 
L 170.026157 23.331507 
L 172.436803 23.636732 
L 173.642126 23.630973 
L 174.847448 23.511665 
L 176.052771 23.645574 
L 178.463417 23.715208 
L 180.874063 23.839721 
L 182.079385 24.109404 
L 183.284708 24.178503 
L 184.490031 24.053174 
L 186.900677 24.153181 
L 188.106 23.945409 
L 191.721968 24.130423 
L 194.132614 24.164265 
L 195.337937 24.300794 
L 196.543259 24.278836 
L 197.748582 23.995363 
L 198.953905 23.887486 
L 202.569873 24.304985 
L 203.775196 24.190158 
L 207.391165 24.401173 
L 208.596488 24.082088 
L 213.417779 24.01768 
L 214.623102 23.732699 
L 215.828425 23.690969 
L 219.444393 24.200674 
L 220.649716 24.22806 
L 221.855039 24.42007 
L 223.060362 24.445211 
L 224.265684 24.310659 
L 227.881653 24.306733 
L 229.086976 24.200519 
L 230.292299 23.934691 
L 233.908267 24.162794 
L 236.318913 24.228758 
L 239.934881 24.015928 
L 241.140204 23.917499 
L 243.55085 24.031203 
L 250.782787 23.942025 
L 251.98811 24.030072 
L 253.193432 23.911629 
L 255.604078 23.927434 
L 259.220047 23.982505 
L 261.630692 23.910531 
L 265.246661 24.13138 
L 266.451984 24.090958 
L 267.657306 24.182739 
L 272.478598 23.833475 
L 273.683921 23.977829 
L 274.889243 23.770544 
L 277.299889 23.49191 
L 280.915858 23.201467 
L 282.12118 23.151775 
L 284.531826 23.278272 
L 286.942472 23.342505 
L 289.353117 23.386292 
L 292.969086 23.545046 
L 295.379731 23.413891 
L 296.585054 23.484348 
L 297.790377 23.082244 
L 300.201023 23.361284 
L 301.406346 23.262324 
L 303.816991 23.292905 
L 307.43296 23.334803 
L 309.843605 23.199409 
L 311.048928 23.293031 
L 312.254251 23.260796 
L 313.459574 23.421413 
L 315.87022 23.452712 
L 320.691511 23.531967 
L 321.896834 23.360108 
L 324.307479 23.561094 
L 332.744739 23.812639 
L 342.387322 23.602104 
L 343.592645 23.390512 
L 347.208613 23.24364 
L 349.619259 23.278615 
L 355.645873 23.265805 
L 358.056519 23.354683 
L 360.467164 23.210949 
L 361.672487 23.27193 
L 362.87781 23.18432 
L 364.083133 23.270649 
L 365.288456 23.231742 
L 367.699101 23.419956 
L 368.904424 23.48164 
L 371.31507 23.395237 
L 373.725715 23.436599 
L 389.394912 22.862863 
L 393.010881 22.867942 
L 395.421526 22.908554 
L 397.832172 23.053244 
L 402.653463 23.259865 
L 406.269432 23.456534 
L 409.8854 23.275653 
L 412.296046 23.32902 
L 415.912015 23.203957 
L 420.733306 23.483599 
L 425.554597 23.329046 
L 431.581211 23.343952 
L 435.19718 23.327503 
L 436.402503 23.165317 
L 438.813148 23.121342 
L 441.223794 23.086686 
L 442.429117 23.071783 
L 444.839763 23.218501 
L 449.661054 23.261242 
L 452.071699 23.168286 
L 453.277022 23.237892 
L 454.482345 23.070816 
L 477.383479 22.937505 
L 479.794125 22.852479 
L 480.999447 22.924958 
L 487.026062 22.714036 
L 488.231384 22.722013 
L 489.436707 22.611293 
L 491.847353 22.586598 
L 493.052676 22.469729 
L 495.463321 22.498741 
L 496.668644 22.477153 
L 499.07929 22.144009 
L 507.51655 22.235235 
L 509.927195 22.356819 
L 515.95381 22.384615 
L 515.95381 22.384615 
" clip-path="url(#p3b9438a19c)" style="fill: none; stroke: #4169e1; stroke-width: 1.5; stroke-linecap: square"/>
   </g>
   <g id="line2d_26">
    <path d="M 35.03 97 
L 36.235323 69.457814 
L 37.440646 78.311034 
L 38.645968 19.173658 
L 39.851291 34.686817 
L 41.056614 40.164883 
L 42.261937 48.056876 
L 43.46726 52.508955 
L 44.672583 49.81162 
L 45.877905 10.769896 
L 47.083228 14.704084 
L 48.288551 21.101339 
L 50.699197 28.419089 
L 51.90452 27.293328 
L 53.109842 27.56197 
L 54.315165 28.703147 
L 55.520488 30.798267 
L 56.725811 30.50534 
L 57.931134 16.941929 
L 59.136457 20.034631 
L 60.341779 12.922912 
L 61.547102 14.667293 
L 62.752425 16.894702 
L 63.957748 20.087795 
L 65.163071 22.376746 
L 66.368394 23.942513 
L 67.573716 26.410002 
L 68.779039 28.365723 
L 69.984362 30.63861 
L 71.189685 29.808975 
L 72.395008 30.945931 
L 73.600331 32.946827 
L 74.805653 33.809554 
L 76.010976 30.708716 
L 77.216299 31.366172 
L 79.626945 29.942178 
L 80.832268 27.976306 
L 84.448236 32.794133 
L 85.653559 31.862215 
L 86.858882 33.340509 
L 88.064205 33.349703 
L 89.269527 34.732958 
L 90.47485 34.025406 
L 91.680173 34.323071 
L 94.090819 36.67493 
L 96.501464 38.837868 
L 97.706787 38.7533 
L 98.91211 39.414199 
L 100.117433 39.021714 
L 102.528079 40.920209 
L 103.733401 41.558367 
L 104.938724 41.050867 
L 106.144047 41.505368 
L 107.34937 38.958482 
L 108.554693 39.732842 
L 109.760016 39.60277 
L 112.170661 37.736987 
L 113.375984 38.598973 
L 114.581307 38.707323 
L 115.78663 38.112337 
L 116.991953 38.956579 
L 119.402598 38.144919 
L 120.607921 35.282606 
L 121.813244 35.088425 
L 123.018567 35.759625 
L 124.223889 34.516993 
L 126.634535 34.576937 
L 129.045181 35.516091 
L 131.455826 37.005346 
L 132.661149 37.2952 
L 133.866472 37.301152 
L 135.071795 37.048427 
L 136.277118 36.974016 
L 139.893086 38.88914 
L 141.098409 39.012504 
L 142.303732 39.340949 
L 143.509055 38.672185 
L 144.714378 36.614396 
L 145.9197 37.210424 
L 147.125023 36.619286 
L 148.330346 36.645638 
L 149.535669 34.387517 
L 151.946315 35.544744 
L 153.151637 36.130254 
L 154.35696 35.789087 
L 155.562283 32.01767 
L 156.767606 32.630197 
L 159.178252 32.591541 
L 160.383574 31.25202 
L 161.588897 31.860182 
L 162.79422 32.078247 
L 165.204866 33.244721 
L 166.410189 32.560736 
L 167.615511 31.219196 
L 168.820834 31.145145 
L 170.026157 31.597996 
L 172.436803 31.727662 
L 173.642126 32.289626 
L 176.052771 32.672215 
L 177.258094 33.211898 
L 180.874063 34.435491 
L 182.079385 33.24759 
L 183.284708 33.649428 
L 184.490031 33.783817 
L 186.900677 34.656147 
L 188.106 34.094925 
L 191.721968 35.216661 
L 194.132614 36.036203 
L 195.337937 36.017131 
L 196.543259 36.456503 
L 197.748582 34.82744 
L 198.953905 34.978631 
L 200.159228 34.941573 
L 201.364551 35.22253 
L 202.569873 34.579075 
L 203.775196 34.66882 
L 204.980519 35.046398 
L 206.185842 34.984383 
L 207.391165 35.393234 
L 208.596488 33.014764 
L 211.007133 33.783992 
L 213.417779 34.47514 
L 214.623102 32.578208 
L 215.828425 32.954898 
L 218.23907 31.648235 
L 219.444393 31.619821 
L 220.649716 32.019546 
L 221.855039 31.343427 
L 223.060362 31.742769 
L 224.265684 31.612311 
L 225.471007 32.017426 
L 229.086976 32.558232 
L 230.292299 30.764721 
L 232.702944 30.835278 
L 233.908267 31.2298 
L 235.11359 31.46283 
L 237.524236 32.175197 
L 239.934881 32.470542 
L 242.345527 32.69827 
L 247.166818 34.090641 
L 248.372141 34.032168 
L 250.782787 34.684021 
L 251.98811 34.761496 
L 253.193432 34.617951 
L 256.809401 35.435842 
L 264.041338 36.941012 
L 265.246661 36.589728 
L 266.451984 36.84275 
L 267.657306 36.84198 
L 268.862629 36.714006 
L 270.067952 37.020038 
L 271.273275 35.542024 
L 272.478598 35.842467 
L 273.683921 35.360885 
L 274.889243 34.034176 
L 276.094566 34.032187 
L 277.299889 32.987883 
L 279.710535 32.554081 
L 282.12118 32.961157 
L 283.326503 32.717117 
L 284.531826 33.023658 
L 285.737149 33.138673 
L 288.147794 33.73597 
L 290.55844 34.130037 
L 291.763763 33.69425 
L 292.969086 33.977538 
L 294.174409 33.687557 
L 295.379731 33.973177 
L 296.585054 34.05632 
L 297.790377 27.604109 
L 298.9957 26.73131 
L 301.406346 26.438407 
L 302.611668 26.594216 
L 306.227637 27.303934 
L 307.43296 27.502701 
L 308.638283 27.333221 
L 309.843605 27.595926 
L 311.048928 27.51389 
L 312.254251 27.769 
L 313.459574 26.927958 
L 314.664897 27.180903 
L 315.87022 27.296092 
L 317.075542 27.523904 
L 319.486188 27.815522 
L 320.691511 27.977053 
L 321.896834 26.921767 
L 323.102157 26.54186 
L 324.307479 26.5425 
L 325.512802 26.733091 
L 326.718125 26.480965 
L 327.923448 26.550235 
L 331.539416 27.107692 
L 332.744739 27.146138 
L 333.950062 27.404492 
L 335.155385 27.139683 
L 341.181999 28.302302 
L 342.387322 28.294831 
L 343.592645 26.370669 
L 344.797968 26.63052 
L 347.208613 26.752887 
L 348.413936 26.96152 
L 349.619259 26.985259 
L 355.645873 28.166618 
L 356.851196 28.242099 
L 358.056519 28.453788 
L 359.261842 28.132361 
L 360.467164 28.312039 
L 361.672487 28.371871 
L 364.083133 28.086045 
L 365.288456 28.257336 
L 366.493778 27.719056 
L 368.904424 27.78797 
L 370.109747 27.658325 
L 373.725715 28.304416 
L 376.136361 28.505588 
L 377.341684 28.744663 
L 378.547007 28.629747 
L 379.75233 28.736879 
L 380.957652 28.704672 
L 382.162975 27.951956 
L 383.368298 27.936395 
L 388.189589 28.680737 
L 390.600235 29.066414 
L 393.010881 29.388955 
L 395.421526 29.756062 
L 396.626849 29.363327 
L 399.037495 29.678462 
L 400.242818 29.875489 
L 401.448141 29.92114 
L 402.653463 29.474991 
L 403.858786 29.379137 
L 405.064109 28.96738 
L 406.269432 29.165166 
L 407.474755 28.976361 
L 408.680078 29.195072 
L 409.8854 28.837583 
L 411.090723 28.823871 
L 412.296046 29.036226 
L 413.501369 28.899362 
L 414.706692 29.099075 
L 415.912015 29.06097 
L 417.117337 28.76092 
L 418.32266 28.588801 
L 419.527983 28.723911 
L 421.938629 28.597394 
L 424.349274 29.013111 
L 425.554597 28.832036 
L 427.965243 29.226229 
L 429.170566 29.186858 
L 432.786534 29.731287 
L 433.991857 29.712721 
L 435.19718 29.230906 
L 436.402503 27.758971 
L 440.018471 28.179295 
L 441.223794 28.043911 
L 442.429117 28.232967 
L 443.63444 27.521768 
L 450.866377 28.377169 
L 452.071699 28.441605 
L 453.277022 28.317158 
L 454.482345 26.656537 
L 458.098314 27.171459 
L 464.124928 27.829871 
L 465.330251 26.772997 
L 466.535573 26.604593 
L 473.76751 27.59783 
L 476.178156 27.940671 
L 477.383479 27.97042 
L 478.588802 27.840273 
L 479.794125 28.004627 
L 480.999447 27.818948 
L 482.20477 27.772077 
L 483.410093 26.902569 
L 488.231384 27.466676 
L 489.436707 26.766949 
L 490.64203 26.876806 
L 491.847353 26.825852 
L 493.052676 26.017645 
L 494.257999 26.032512 
L 496.668644 26.340501 
L 497.873967 23.547402 
L 499.07929 22.458979 
L 501.489936 22.827096 
L 506.311227 22.689678 
L 507.51655 22.878585 
L 508.721873 22.385449 
L 512.337841 22.694229 
L 513.543164 22.50127 
L 514.748487 22.514744 
L 515.95381 22.384615 
L 515.95381 22.384615 
" clip-path="url(#p3b9438a19c)" style="fill: none; stroke-dasharray: 5.55,2.4; stroke-dashoffset: 0; stroke: #4169e1; stroke-width: 1.5"/>
   </g>
   <g id="line2d_27">
    <path d="M 35.03 28.418427 
L 36.235323 37.853423 
L 37.440646 39.519956 
L 38.645968 30.098419 
L 39.851291 30.156649 
L 41.056614 28.285805 
L 42.261937 27.052082 
L 43.46726 25.160782 
L 44.672583 27.183871 
L 45.877905 23.131647 
L 47.083228 24.207427 
L 48.288551 24.685418 
L 49.493874 23.616305 
L 50.699197 23.02623 
L 51.90452 21.415167 
L 53.109842 20.731291 
L 55.520488 22.26066 
L 56.725811 23.363983 
L 57.931134 21.805833 
L 59.136457 21.535588 
L 60.341779 22.976565 
L 62.752425 24.121998 
L 63.957748 24.00978 
L 66.368394 24.65342 
L 67.573716 25.083059 
L 68.779039 24.683456 
L 69.984362 24.656408 
L 71.189685 25.423665 
L 73.600331 25.21606 
L 74.805653 24.88499 
L 76.010976 24.011094 
L 77.216299 24.453712 
L 80.832268 26.157522 
L 83.242913 26.166916 
L 84.448236 26.225527 
L 85.653559 25.812554 
L 86.858882 25.765504 
L 88.064205 25.409213 
L 89.269527 25.321274 
L 90.47485 24.928981 
L 91.680173 25.208917 
L 95.296142 25.384953 
L 96.501464 25.240311 
L 97.706787 24.885745 
L 101.322756 24.675642 
L 102.528079 24.842925 
L 103.733401 24.706495 
L 104.938724 25.114782 
L 106.144047 25.29109 
L 107.34937 24.773548 
L 108.554693 24.833618 
L 109.760016 24.434461 
L 110.965338 24.739283 
L 112.170661 24.406131 
L 113.375984 24.404387 
L 116.991953 24.964299 
L 118.197275 24.719884 
L 119.402598 24.937896 
L 120.607921 25.454062 
L 121.813244 25.279955 
L 123.018567 25.363652 
L 124.223889 25.740914 
L 126.634535 26.127319 
L 127.839858 25.936745 
L 129.045181 26.069851 
L 131.455826 26.06296 
L 132.661149 26.201792 
L 136.277118 25.387646 
L 139.893086 25.39353 
L 142.303732 25.70034 
L 144.714378 25.090827 
L 145.9197 25.048825 
L 147.125023 25.280014 
L 148.330346 25.120972 
L 149.535669 24.64114 
L 150.740992 24.469641 
L 153.151637 24.381774 
L 154.35696 24.13993 
L 155.562283 23.638625 
L 156.767606 23.673062 
L 159.178252 23.212108 
L 160.383574 23.524092 
L 166.410189 23.180734 
L 167.615511 23.469997 
L 170.026157 23.288219 
L 173.642126 23.513823 
L 174.847448 23.367767 
L 176.052771 23.487962 
L 177.258094 23.483959 
L 179.66874 23.638251 
L 180.874063 23.757928 
L 182.079385 24.032066 
L 183.284708 24.121338 
L 184.490031 23.976531 
L 186.900677 24.045015 
L 188.106 23.877817 
L 195.337937 24.207474 
L 196.543259 24.13409 
L 197.748582 23.885296 
L 198.953905 23.814888 
L 202.569873 24.158181 
L 204.980519 24.117366 
L 206.185842 24.268946 
L 207.391165 24.276814 
L 208.596488 24.002177 
L 213.417779 23.958492 
L 214.623102 23.710449 
L 215.828425 23.671229 
L 221.855039 24.302903 
L 223.060362 24.318152 
L 224.265684 24.163864 
L 229.086976 24.05125 
L 230.292299 23.788472 
L 232.702944 23.978941 
L 233.908267 23.974817 
L 235.11359 24.102252 
L 242.345527 23.906306 
L 245.961495 23.888893 
L 247.166818 23.871637 
L 248.372141 23.725454 
L 260.425369 23.725895 
L 262.836015 23.78361 
L 266.451984 23.880837 
L 267.657306 23.98798 
L 272.478598 23.617 
L 273.683921 23.743303 
L 277.299889 23.304291 
L 280.915858 22.96971 
L 282.12118 22.937009 
L 284.531826 23.064537 
L 286.942472 23.141315 
L 290.55844 23.244361 
L 291.763763 23.360346 
L 296.585054 23.253552 
L 297.790377 23.008602 
L 300.201023 23.267143 
L 301.406346 23.204411 
L 306.227637 23.325779 
L 309.843605 23.114159 
L 311.048928 23.198146 
L 312.254251 23.142037 
L 313.459574 23.296534 
L 315.87022 23.31712 
L 320.691511 23.40434 
L 321.896834 23.24324 
L 326.718125 23.56711 
L 331.539416 23.75956 
L 335.155385 23.528714 
L 338.771353 23.534 
L 342.387322 23.449712 
L 343.592645 23.215122 
L 347.208613 23.073985 
L 349.619259 23.101447 
L 366.493778 23.172263 
L 368.904424 23.318374 
L 371.31507 23.22917 
L 374.931038 23.219732 
L 385.778944 22.741365 
L 390.600235 22.803194 
L 394.216204 22.772913 
L 396.626849 22.92114 
L 406.269432 23.36775 
L 409.8854 23.242826 
L 412.296046 23.289188 
L 413.501369 23.187996 
L 425.554597 23.329058 
L 432.786534 23.375074 
L 433.991857 23.416638 
L 438.813148 23.149992 
L 449.661054 23.247817 
L 452.071699 23.134124 
L 453.277022 23.200559 
L 454.482345 23.035843 
L 459.303636 23.103875 
L 464.124928 23.107432 
L 465.330251 23.003279 
L 467.740896 23.063482 
L 477.383479 22.907779 
L 479.794125 22.80639 
L 482.20477 22.815771 
L 484.615416 22.709959 
L 497.873967 22.29774 
L 499.07929 22.173278 
L 515.95381 22.384615 
L 515.95381 22.384615 
" clip-path="url(#p3b9438a19c)" style="fill: none; stroke: #ff8c00; stroke-width: 1.5; stroke-linecap: square"/>
   </g>
   <g id="line2d_28">
    <path d="M 35.03 97 
L 36.235323 77.521593 
L 37.440646 82.798971 
L 38.645968 28.080598 
L 39.851291 41.861511 
L 42.261937 52.334859 
L 43.46726 52.439153 
L 44.672583 50.225791 
L 45.877905 22.566239 
L 47.083228 26.800634 
L 48.288551 32.100657 
L 49.493874 34.091687 
L 50.699197 37.5947 
L 51.90452 33.604028 
L 53.109842 36.03125 
L 54.315165 37.482911 
L 55.520488 38.705383 
L 56.725811 36.978969 
L 57.931134 29.886507 
L 59.136457 32.762781 
L 60.341779 26.141438 
L 62.752425 28.885762 
L 63.957748 31.544201 
L 65.163071 33.550954 
L 66.368394 35.250705 
L 68.779039 37.478009 
L 69.984362 39.457433 
L 71.189685 37.449327 
L 73.600331 40.903314 
L 74.805653 41.761767 
L 76.010976 37.658421 
L 77.216299 37.806436 
L 78.421622 36.788888 
L 79.626945 36.437702 
L 80.832268 34.601716 
L 83.242913 37.622652 
L 84.448236 39.005579 
L 85.653559 38.786947 
L 86.858882 40.089143 
L 88.064205 40.131651 
L 89.269527 41.291774 
L 90.47485 40.928061 
L 91.680173 41.29032 
L 94.090819 43.480223 
L 96.501464 44.927782 
L 97.706787 44.479848 
L 98.91211 45.404831 
L 100.117433 46.056376 
L 101.322756 46.964952 
L 103.733401 48.121168 
L 104.938724 46.834046 
L 106.144047 47.26885 
L 107.34937 44.5676 
L 108.554693 45.36512 
L 109.760016 44.023252 
L 110.965338 43.570151 
L 112.170661 42.837848 
L 113.375984 43.658443 
L 114.581307 43.80398 
L 115.78663 43.407566 
L 116.991953 44.123115 
L 118.197275 43.976563 
L 119.402598 43.995379 
L 120.607921 40.592436 
L 121.813244 40.887576 
L 123.018567 41.533957 
L 124.223889 39.968949 
L 125.429212 40.006417 
L 129.045181 40.750773 
L 131.455826 42.1167 
L 132.661149 42.444399 
L 133.866472 42.026378 
L 135.071795 41.32759 
L 136.277118 40.368147 
L 138.687763 41.622554 
L 139.893086 42.191477 
L 141.098409 42.092941 
L 142.303732 42.449054 
L 143.509055 40.574679 
L 144.714378 39.892374 
L 145.9197 40.470922 
L 147.125023 39.984647 
L 148.330346 40.064543 
L 149.535669 35.871632 
L 150.740992 35.884003 
L 153.151637 37.036557 
L 154.35696 36.369187 
L 155.562283 31.470615 
L 156.767606 32.086851 
L 157.972929 31.883018 
L 159.178252 30.89475 
L 160.383574 29.309357 
L 161.588897 29.896128 
L 162.79422 30.253036 
L 165.204866 31.44942 
L 166.410189 31.238898 
L 167.615511 29.817379 
L 168.820834 30.122171 
L 171.23148 30.945499 
L 172.436803 31.055641 
L 173.642126 31.623118 
L 174.847448 31.640435 
L 176.052771 31.824479 
L 177.258094 32.371758 
L 178.463417 32.461562 
L 179.66874 32.981032 
L 180.874063 33.126574 
L 182.079385 31.639698 
L 183.284708 31.952307 
L 184.490031 31.90374 
L 186.900677 32.836003 
L 188.106 32.56044 
L 189.311322 32.982457 
L 190.516645 33.285007 
L 194.132614 34.595452 
L 195.337937 34.256601 
L 196.543259 34.563469 
L 197.748582 33.194104 
L 198.953905 33.512321 
L 200.159228 33.682131 
L 201.364551 33.997328 
L 202.569873 33.497452 
L 204.980519 34.263623 
L 206.185842 33.988436 
L 207.391165 34.424079 
L 208.596488 32.479064 
L 211.007133 33.292303 
L 213.417779 33.969156 
L 214.623102 32.383446 
L 215.828425 32.760885 
L 217.033747 32.568585 
L 219.444393 31.76016 
L 220.649716 32.180733 
L 221.855039 31.526218 
L 223.060362 31.935311 
L 224.265684 31.529341 
L 225.471007 31.9338 
L 229.086976 32.220346 
L 230.292299 30.170044 
L 232.702944 30.331689 
L 233.908267 30.732691 
L 235.11359 30.539636 
L 238.729558 31.488266 
L 241.140204 31.795924 
L 242.345527 31.839285 
L 243.55085 32.178152 
L 244.756173 32.324412 
L 247.166818 33.012508 
L 248.372141 32.544359 
L 250.782787 33.191723 
L 251.98811 33.266284 
L 253.193432 33.134158 
L 261.630692 35.143009 
L 262.836015 35.252218 
L 264.041338 35.556076 
L 265.246661 35.305824 
L 266.451984 35.55416 
L 268.862629 35.244921 
L 270.067952 35.559851 
L 271.273275 33.924673 
L 272.478598 34.125421 
L 273.683921 33.75024 
L 274.889243 32.783188 
L 276.094566 32.830613 
L 277.299889 31.585673 
L 279.710535 30.692172 
L 280.915858 30.789898 
L 282.12118 31.063338 
L 283.326503 30.807065 
L 284.531826 31.115642 
L 285.737149 31.178887 
L 288.147794 31.802373 
L 290.55844 32.174283 
L 291.763763 31.850228 
L 292.969086 32.088892 
L 294.174409 31.726185 
L 295.379731 32.025308 
L 296.585054 32.179868 
L 297.790377 29.613773 
L 298.9957 28.696363 
L 300.201023 28.536112 
L 302.611668 28.841955 
L 305.022314 29.408818 
L 307.43296 29.672246 
L 308.638283 29.546199 
L 309.843605 29.670086 
L 311.048928 29.609373 
L 312.254251 29.742666 
L 313.459574 28.826082 
L 315.87022 29.215093 
L 320.691511 29.988689 
L 321.896834 28.917497 
L 323.102157 28.692244 
L 324.307479 28.581684 
L 325.512802 28.756479 
L 326.718125 28.575744 
L 329.128771 28.902069 
L 330.334094 29.170474 
L 332.744739 28.88469 
L 333.950062 29.153432 
L 335.155385 28.467775 
L 341.181999 29.52071 
L 342.387322 29.499961 
L 343.592645 26.67994 
L 344.797968 26.9399 
L 347.208613 27.024399 
L 348.413936 27.238482 
L 349.619259 27.310794 
L 352.029905 27.76984 
L 358.056519 28.802805 
L 359.261842 28.432993 
L 360.467164 28.678553 
L 361.672487 28.572103 
L 364.083133 28.031974 
L 365.288456 28.015173 
L 366.493778 27.597262 
L 368.904424 27.44921 
L 370.109747 27.296087 
L 373.725715 27.991651 
L 377.341684 28.406037 
L 378.547007 28.300762 
L 380.957652 28.545805 
L 382.162975 27.725787 
L 383.368298 27.66691 
L 390.600235 28.82944 
L 393.010881 29.202607 
L 395.421526 29.608752 
L 396.626849 28.859482 
L 397.832172 28.81939 
L 400.242818 29.223819 
L 401.448141 29.257962 
L 402.653463 28.54403 
L 403.858786 28.454772 
L 405.064109 28.013567 
L 406.269432 28.232989 
L 407.474755 28.114049 
L 408.680078 28.33269 
L 412.296046 28.592713 
L 413.501369 28.106334 
L 414.706692 28.286173 
L 415.912015 28.237618 
L 417.117337 27.736803 
L 418.32266 27.566562 
L 419.527983 27.687996 
L 420.733306 27.561499 
L 423.143952 27.918131 
L 424.349274 28.107852 
L 425.554597 27.81087 
L 427.965243 28.210379 
L 429.170566 28.15925 
L 432.786534 28.769674 
L 433.991857 28.850065 
L 435.19718 28.554261 
L 436.402503 27.507515 
L 437.607826 27.561682 
L 440.018471 27.952145 
L 441.223794 27.972438 
L 442.429117 28.175854 
L 443.63444 27.569098 
L 446.045085 27.916971 
L 448.455731 28.172244 
L 449.661054 28.371734 
L 453.277022 28.140095 
L 454.482345 26.27146 
L 456.892991 26.603249 
L 460.508959 27.091564 
L 461.714282 27.287194 
L 464.124928 27.508182 
L 465.330251 26.854906 
L 466.535573 26.574004 
L 470.151542 27.105564 
L 471.356865 27.144542 
L 476.178156 27.823147 
L 478.588802 27.496824 
L 479.794125 27.606966 
L 482.20477 27.523213 
L 483.410093 27.136689 
L 488.231384 27.652099 
L 489.436707 27.31866 
L 490.64203 27.429533 
L 491.847353 27.25862 
L 493.052676 26.535335 
L 494.257999 26.54559 
L 496.668644 26.8475 
L 497.873967 23.352817 
L 499.07929 22.238626 
L 501.489936 22.595915 
L 506.311227 22.463244 
L 507.51655 22.642858 
L 508.721873 22.179237 
L 511.132518 22.530071 
L 512.337841 22.529897 
L 513.543164 22.411203 
L 515.95381 22.384615 
L 515.95381 22.384615 
" clip-path="url(#p3b9438a19c)" style="fill: none; stroke-dasharray: 5.55,2.4; stroke-dashoffset: 0; stroke: #ff8c00; stroke-width: 1.5"/>
   </g>
   <g id="patch_3">
    <path d="M 35.03 97 
L 35.03 0 
" style="fill: none; stroke: #000000; stroke-width: 0.8; stroke-linejoin: miter; stroke-linecap: square"/>
   </g>
   <g id="patch_4">
    <path d="M 540 97 
L 540 0 
" style="fill: none; stroke: #000000; stroke-width: 0.8; stroke-linejoin: miter; stroke-linecap: square"/>
   </g>
   <g id="patch_5">
    <path d="M 35.03 97 
L 540 97 
" style="fill: none; stroke: #000000; stroke-width: 0.8; stroke-linejoin: miter; stroke-linecap: square"/>
   </g>
   <g id="patch_6">
    <path d="M 35.03 0 
L 540 0 
" style="fill: none; stroke: #000000; stroke-width: 0.8; stroke-linejoin: miter; stroke-linecap: square"/>
   </g>
  </g>
 </g>
 <defs>
  <clipPath id="p3b9438a19c">
   <rect x="35.03" y="0" width="504.97" height="97"/>
  </clipPath>
 </defs>
</svg>
