<?xml version="1.0" encoding="utf-8" standalone="no"?>
<!DOCTYPE svg PUBLIC "-//W3C//DTD SVG 1.1//EN"
  "http://www.w3.org/Graphics/SVG/1.1/DTD/svg11.dtd">
<svg xmlns:xlink="http://www.w3.org/1999/xlink" width="540pt" height="129.6pt" viewBox="0 0 540 129.6" xmlns="http://www.w3.org/2000/svg" version="1.1">
 <metadata>
  <rdf:RDF xmlns:dc="http://purl.org/dc/elements/1.1/" xmlns:cc="http://creativecommons.org/ns#" xmlns:rdf="http://www.w3.org/1999/02/22-rdf-syntax-ns#">
   <cc:Work>
    <dc:type rdf:resource="http://purl.org/dc/dcmitype/StillImage"/>
    <dc:date>2025-03-30T13:27:17.043180</dc:date>
    <dc:format>image/svg+xml</dc:format>
    <dc:creator>
     <cc:Agent>
      <dc:title>Matplotlib v3.10.1, https://matplotlib.org/</dc:title>
     </cc:Agent>
    </dc:creator>
   </cc:Work>
  </rdf:RDF>
 </metadata>
 <defs>
  <style type="text/css">*{stroke-linejoin: round; stroke-linecap: butt}</style>
 </defs>
 <g id="figure_1">
  <g id="patch_1">
   <path d="M 0 129.6 
L 540 129.6 
L 540 0 
L 0 0 
z
" style="fill: #ffffff"/>
  </g>
  <g id="axes_1">
   <g id="patch_2">
    <path d="M 35.12 97 
L 540 97 
L 540 0 
L 35.12 0 
z
" style="fill: #ffffff"/>
   </g>
   <g id="matplotlib.axis_1">
    <g id="xtick_1">
     <g id="line2d_1">
      <path d="M 35.12 97 
L 35.12 0 
" clip-path="url(#pfaedb52a92)" style="fill: none; stroke: #b0b0b0; stroke-width: 0.8; stroke-linecap: square"/>
     </g>
     <g id="line2d_2">
      <defs>
       <path id="m8de2f28538" d="M 0 0 
L 0 3.5 
" style="stroke: #000000; stroke-width: 0.8"/>
      </defs>
      <g>
       <use xlink:href="#m8de2f28538" x="35.12" y="97" style="stroke: #000000; stroke-width: 0.8"/>
      </g>
     </g>
     <g id="text_1">
      <text style="font-size: 10px; font-family: 'Times New Roman'; text-anchor: middle" x="35.12" y="110.94375" transform="rotate(-0 35.12 110.94375)">0</text>
     </g>
    </g>
    <g id="xtick_2">
     <g id="line2d_3">
      <path d="M 95.3754 97 
L 95.3754 0 
" clip-path="url(#pfaedb52a92)" style="fill: none; stroke: #b0b0b0; stroke-width: 0.8; stroke-linecap: square"/>
     </g>
     <g id="line2d_4">
      <g>
       <use xlink:href="#m8de2f28538" x="95.3754" y="97" style="stroke: #000000; stroke-width: 0.8"/>
      </g>
     </g>
     <g id="text_2">
      <text style="font-size: 10px; font-family: 'Times New Roman'; text-anchor: middle" x="95.3754" y="110.94375" transform="rotate(-0 95.3754 110.94375)">50</text>
     </g>
    </g>
    <g id="xtick_3">
     <g id="line2d_5">
      <path d="M 155.630801 97 
L 155.630801 0 
" clip-path="url(#pfaedb52a92)" style="fill: none; stroke: #b0b0b0; stroke-width: 0.8; stroke-linecap: square"/>
     </g>
     <g id="line2d_6">
      <g>
       <use xlink:href="#m8de2f28538" x="155.630801" y="97" style="stroke: #000000; stroke-width: 0.8"/>
      </g>
     </g>
     <g id="text_3">
      <text style="font-size: 10px; font-family: 'Times New Roman'; text-anchor: middle" x="155.630801" y="110.94375" transform="rotate(-0 155.630801 110.94375)">100</text>
     </g>
    </g>
    <g id="xtick_4">
     <g id="line2d_7">
      <path d="M 215.886201 97 
L 215.886201 0 
" clip-path="url(#pfaedb52a92)" style="fill: none; stroke: #b0b0b0; stroke-width: 0.8; stroke-linecap: square"/>
     </g>
     <g id="line2d_8">
      <g>
       <use xlink:href="#m8de2f28538" x="215.886201" y="97" style="stroke: #000000; stroke-width: 0.8"/>
      </g>
     </g>
     <g id="text_4">
      <text style="font-size: 10px; font-family: 'Times New Roman'; text-anchor: middle" x="215.886201" y="110.94375" transform="rotate(-0 215.886201 110.94375)">150</text>
     </g>
    </g>
    <g id="xtick_5">
     <g id="line2d_9">
      <path d="M 276.141602 97 
L 276.141602 0 
" clip-path="url(#pfaedb52a92)" style="fill: none; stroke: #b0b0b0; stroke-width: 0.8; stroke-linecap: square"/>
     </g>
     <g id="line2d_10">
      <g>
       <use xlink:href="#m8de2f28538" x="276.141602" y="97" style="stroke: #000000; stroke-width: 0.8"/>
      </g>
     </g>
     <g id="text_5">
      <text style="font-size: 10px; font-family: 'Times New Roman'; text-anchor: middle" x="276.141602" y="110.94375" transform="rotate(-0 276.141602 110.94375)">200</text>
     </g>
    </g>
    <g id="xtick_6">
     <g id="line2d_11">
      <path d="M 336.397002 97 
L 336.397002 0 
" clip-path="url(#pfaedb52a92)" style="fill: none; stroke: #b0b0b0; stroke-width: 0.8; stroke-linecap: square"/>
     </g>
     <g id="line2d_12">
      <g>
       <use xlink:href="#m8de2f28538" x="336.397002" y="97" style="stroke: #000000; stroke-width: 0.8"/>
      </g>
     </g>
     <g id="text_6">
      <text style="font-size: 10px; font-family: 'Times New Roman'; text-anchor: middle" x="336.397002" y="110.94375" transform="rotate(-0 336.397002 110.94375)">250</text>
     </g>
    </g>
    <g id="xtick_7">
     <g id="line2d_13">
      <path d="M 396.652402 97 
L 396.652402 0 
" clip-path="url(#pfaedb52a92)" style="fill: none; stroke: #b0b0b0; stroke-width: 0.8; stroke-linecap: square"/>
     </g>
     <g id="line2d_14">
      <g>
       <use xlink:href="#m8de2f28538" x="396.652402" y="97" style="stroke: #000000; stroke-width: 0.8"/>
      </g>
     </g>
     <g id="text_7">
      <text style="font-size: 10px; font-family: 'Times New Roman'; text-anchor: middle" x="396.652402" y="110.94375" transform="rotate(-0 396.652402 110.94375)">300</text>
     </g>
    </g>
    <g id="xtick_8">
     <g id="line2d_15">
      <path d="M 456.907803 97 
L 456.907803 0 
" clip-path="url(#pfaedb52a92)" style="fill: none; stroke: #b0b0b0; stroke-width: 0.8; stroke-linecap: square"/>
     </g>
     <g id="line2d_16">
      <g>
       <use xlink:href="#m8de2f28538" x="456.907803" y="97" style="stroke: #000000; stroke-width: 0.8"/>
      </g>
     </g>
     <g id="text_8">
      <text style="font-size: 10px; font-family: 'Times New Roman'; text-anchor: middle" x="456.907803" y="110.94375" transform="rotate(-0 456.907803 110.94375)">350</text>
     </g>
    </g>
    <g id="xtick_9">
     <g id="line2d_17">
      <path d="M 517.163203 97 
L 517.163203 0 
" clip-path="url(#pfaedb52a92)" style="fill: none; stroke: #b0b0b0; stroke-width: 0.8; stroke-linecap: square"/>
     </g>
     <g id="line2d_18">
      <g>
       <use xlink:href="#m8de2f28538" x="517.163203" y="97" style="stroke: #000000; stroke-width: 0.8"/>
      </g>
     </g>
     <g id="text_9">
      <text style="font-size: 10px; font-family: 'Times New Roman'; text-anchor: middle" x="517.163203" y="110.94375" transform="rotate(-0 517.163203 110.94375)">400</text>
     </g>
    </g>
    <g id="text_10">
     <text style="font-size: 12px; font-family: 'Times New Roman'; text-anchor: middle" x="287.56" y="125.415312" transform="rotate(-0 287.56 125.415312)">Simulation Run</text>
    </g>
   </g>
   <g id="matplotlib.axis_2">
    <g id="ytick_1">
     <g id="line2d_19">
      <path d="M 35.12 97 
L 540 97 
" clip-path="url(#pfaedb52a92)" style="fill: none; stroke: #b0b0b0; stroke-width: 0.8; stroke-linecap: square"/>
     </g>
     <g id="line2d_20">
      <defs>
       <path id="md0f5299cd5" d="M 0 0 
L -3.5 0 
" style="stroke: #000000; stroke-width: 0.8"/>
      </defs>
      <g>
       <use xlink:href="#md0f5299cd5" x="35.12" y="97" style="stroke: #000000; stroke-width: 0.8"/>
      </g>
     </g>
     <g id="text_11">
      <text style="font-size: 10px; font-family: 'Times New Roman'; text-anchor: end" x="28.12" y="100.471875" transform="rotate(-0 28.12 100.471875)">0.0</text>
     </g>
    </g>
    <g id="ytick_2">
     <g id="line2d_21">
      <path d="M 35.12 66.6875 
L 540 66.6875 
" clip-path="url(#pfaedb52a92)" style="fill: none; stroke: #b0b0b0; stroke-width: 0.8; stroke-linecap: square"/>
     </g>
     <g id="line2d_22">
      <g>
       <use xlink:href="#md0f5299cd5" x="35.12" y="66.6875" style="stroke: #000000; stroke-width: 0.8"/>
      </g>
     </g>
     <g id="text_12">
      <text style="font-size: 10px; font-family: 'Times New Roman'; text-anchor: end" x="28.12" y="70.159375" transform="rotate(-0 28.12 70.159375)">0.5</text>
     </g>
    </g>
    <g id="ytick_3">
     <g id="line2d_23">
      <path d="M 35.12 36.375 
L 540 36.375 
" clip-path="url(#pfaedb52a92)" style="fill: none; stroke: #b0b0b0; stroke-width: 0.8; stroke-linecap: square"/>
     </g>
     <g id="line2d_24">
      <g>
       <use xlink:href="#md0f5299cd5" x="35.12" y="36.375" style="stroke: #000000; stroke-width: 0.8"/>
      </g>
     </g>
     <g id="text_13">
      <text style="font-size: 10px; font-family: 'Times New Roman'; text-anchor: end" x="28.12" y="39.846875" transform="rotate(-0 28.12 39.846875)">1.0</text>
     </g>
    </g>
    <g id="ytick_4">
     <g id="line2d_25">
      <path d="M 35.12 6.0625 
L 540 6.0625 
" clip-path="url(#pfaedb52a92)" style="fill: none; stroke: #b0b0b0; stroke-width: 0.8; stroke-linecap: square"/>
     </g>
     <g id="line2d_26">
      <g>
       <use xlink:href="#md0f5299cd5" x="35.12" y="6.0625" style="stroke: #000000; stroke-width: 0.8"/>
      </g>
     </g>
     <g id="text_14">
      <text style="font-size: 10px; font-family: 'Times New Roman'; text-anchor: end" x="28.12" y="9.534375" transform="rotate(-0 28.12 9.534375)">1.5</text>
     </g>
    </g>
    <g id="text_15">
     <text style="font-size: 12px; font-family: 'Times New Roman'; text-anchor: middle" x="9.053125" y="48.5" transform="rotate(-90 9.053125 48.5)">Normalized Value</text>
    </g>
   </g>
   <g id="line2d_27">
    <path d="M 35.12 42.400378 
L 36.325108 50.424844 
L 37.530216 42.507184 
L 38.735324 41.878278 
L 39.940432 36.82172 
L 41.14554 34.589879 
L 42.350648 36.483615 
L 43.555756 40.149054 
L 44.760864 40.206991 
L 45.965972 39.955603 
L 47.17108 40.114322 
L 48.376188 39.400156 
L 49.581296 35.897081 
L 50.786404 38.039642 
L 53.19662 40.479773 
L 54.401728 41.11907 
L 55.606836 42.020804 
L 56.811944 41.500271 
L 59.22216 42.593238 
L 60.427268 42.720228 
L 61.632376 42.159478 
L 62.837484 42.659693 
L 64.042592 43.315458 
L 65.2477 43.368473 
L 66.452808 43.198795 
L 67.657916 43.292063 
L 68.863024 43.157297 
L 70.068132 42.669943 
L 71.27324 42.029936 
L 72.478348 42.316136 
L 73.683456 41.261628 
L 74.888564 41.420512 
L 76.093672 39.214252 
L 77.29878 39.399562 
L 78.503888 39.464423 
L 79.708996 39.088999 
L 82.119212 39.67232 
L 83.32432 39.419562 
L 84.529428 39.449532 
L 85.734536 38.756493 
L 86.939644 38.53052 
L 88.144752 38.175743 
L 89.34986 38.343662 
L 90.554968 39.053052 
L 91.760076 38.776902 
L 92.965184 38.766634 
L 94.170292 38.871529 
L 97.785616 37.851853 
L 98.990724 38.222284 
L 100.195832 37.961139 
L 101.40094 38.050895 
L 102.606048 37.632093 
L 105.016264 37.861663 
L 106.221372 37.629352 
L 107.42648 38.020961 
L 109.836697 38.466007 
L 114.657129 38.43987 
L 115.862237 38.434925 
L 117.067345 38.17153 
L 118.272453 38.368536 
L 119.477561 38.363571 
L 120.682669 37.962709 
L 121.887777 38.105134 
L 123.092885 38.009345 
L 124.297993 38.331858 
L 125.503101 37.387908 
L 126.708209 37.435024 
L 127.913317 36.968321 
L 132.733749 33.988977 
L 133.938857 33.901703 
L 137.554181 34.455929 
L 138.759289 34.40877 
L 141.169505 34.972796 
L 142.374613 34.800867 
L 145.989937 35.398233 
L 148.400153 35.921377 
L 149.605261 35.654028 
L 152.015477 36.015527 
L 153.220585 36.099821 
L 154.425693 36.401166 
L 156.835909 36.599611 
L 160.451233 36.457242 
L 161.656341 36.400455 
L 162.861449 36.590668 
L 164.066557 36.440121 
L 165.271665 36.658466 
L 167.681881 36.736973 
L 170.092097 36.362929 
L 171.297205 36.408906 
L 172.502313 36.024639 
L 174.912529 35.867477 
L 176.117637 36.063123 
L 177.322745 35.87576 
L 179.732961 36.269391 
L 180.938069 36.20747 
L 183.348285 35.854409 
L 185.758501 36.162026 
L 186.963609 36.233268 
L 188.168717 36.153871 
L 189.373825 35.957144 
L 191.784041 35.929554 
L 192.989149 35.850253 
L 194.194257 35.953306 
L 196.604473 35.670292 
L 197.809581 35.227025 
L 201.424905 35.578358 
L 205.040229 35.505783 
L 207.450445 35.138082 
L 208.655553 35.233958 
L 209.860661 35.06179 
L 223.116849 35.185092 
L 224.321957 34.947305 
L 225.527065 35.002713 
L 226.732173 34.756286 
L 227.937281 34.720848 
L 229.142389 34.898371 
L 231.552605 34.758436 
L 235.167929 35.108274 
L 236.373037 34.677582 
L 244.808793 35.290594 
L 255.654765 35.693424 
L 256.859873 35.532338 
L 259.27009 35.544423 
L 260.475198 35.621233 
L 262.885414 35.259852 
L 264.090522 35.332015 
L 265.29563 35.18223 
L 270.116062 35.348043 
L 274.936494 35.4111 
L 276.141602 35.501971 
L 277.34671 35.459037 
L 283.37225 35.770898 
L 285.782466 35.576232 
L 288.192682 35.481612 
L 289.39779 35.328828 
L 291.808006 35.358059 
L 294.218222 35.336045 
L 297.833546 35.070543 
L 299.038654 35.144519 
L 300.243762 35.077874 
L 302.653978 35.157591 
L 303.859086 35.09984 
L 307.47441 35.291729 
L 311.089734 35.191481 
L 314.705058 35.240899 
L 318.320382 34.938742 
L 319.52549 34.997172 
L 321.935706 34.941022 
L 325.55103 35.189067 
L 327.961246 35.244219 
L 330.371462 35.330101 
L 331.57657 35.435483 
L 333.986786 35.279631 
L 335.191894 35.118715 
L 338.807218 35.207613 
L 342.422542 35.395292 
L 344.832758 35.328914 
L 353.268514 35.303254 
L 354.473622 35.161526 
L 355.67873 35.13638 
L 358.088946 35.337593 
L 362.909378 35.31656 
L 366.524702 35.370073 
L 367.72981 35.285249 
L 370.140026 35.293053 
L 372.550242 35.08971 
L 376.165566 35.122229 
L 385.80643 34.974576 
L 388.216646 34.990381 
L 390.626862 35.082496 
L 391.83197 35.15164 
L 395.447294 35.016655 
L 402.677942 35.232747 
L 403.88305 35.335623 
L 405.088158 35.213168 
L 406.293266 35.262953 
L 407.498375 35.177353 
L 413.523915 35.432494 
L 417.139239 35.560103 
L 424.369887 35.410689 
L 436.420967 35.650887 
L 440.036291 35.657956 
L 447.266939 35.771687 
L 450.882263 35.63571 
L 453.292479 35.645513 
L 459.318019 35.706343 
L 461.728235 35.81045 
L 464.138451 35.762771 
L 467.753775 35.887706 
L 471.369099 35.980664 
L 478.599747 36.006367 
L 491.855935 36.068722 
L 495.471259 36.174665 
L 500.291691 36.04309 
L 506.317231 36.092615 
L 507.522339 36.196892 
L 508.727447 36.118078 
L 515.958095 36.375 
L 515.958095 36.375 
" clip-path="url(#pfaedb52a92)" style="fill: none; stroke: #4169e1; stroke-width: 1.5; stroke-linecap: square"/>
   </g>
   <g id="line2d_28">
    <path d="M 35.12 97 
L 36.325108 86.623711 
L 37.530216 69.878651 
L 38.735324 76.467782 
L 39.940432 64.093369 
L 41.14554 65.564465 
L 42.350648 66.58789 
L 43.555756 55.234262 
L 44.760864 59.870572 
L 45.965972 63.491863 
L 47.17108 66.497463 
L 48.376188 68.135272 
L 49.581296 46.626066 
L 50.786404 40.60765 
L 51.991512 40.887017 
L 53.19662 40.924349 
L 54.401728 43.169173 
L 55.606836 43.932285 
L 56.811944 45.939403 
L 59.22216 48.971768 
L 60.427268 51.100298 
L 62.837484 52.929621 
L 64.042592 53.029338 
L 65.2477 54.709194 
L 67.657916 57.575801 
L 68.863024 58.85331 
L 70.068132 59.014934 
L 71.27324 58.260096 
L 72.478348 59.061542 
L 73.683456 54.477173 
L 74.888564 55.593604 
L 76.093672 30.107919 
L 78.503888 33.510859 
L 79.708996 34.341284 
L 82.119212 36.430333 
L 83.32432 37.495848 
L 84.529428 38.906679 
L 85.734536 37.007007 
L 86.939644 38.016656 
L 88.144752 38.434968 
L 89.34986 39.503654 
L 90.554968 36.996733 
L 91.760076 37.669239 
L 94.170292 39.954792 
L 95.3754 40.11478 
L 96.580508 40.670774 
L 97.785616 40.263131 
L 98.990724 40.141889 
L 100.195832 40.582247 
L 101.40094 41.518307 
L 102.606048 40.908911 
L 105.016264 42.557463 
L 106.221372 42.951743 
L 107.42648 42.355039 
L 108.631588 42.809558 
L 109.836697 43.110156 
L 111.041805 43.94914 
L 115.862237 46.839471 
L 117.067345 46.806226 
L 118.272453 47.091744 
L 119.477561 47.794399 
L 120.682669 46.63933 
L 123.092885 47.660321 
L 124.297993 47.077857 
L 125.503101 36.965898 
L 126.708209 37.718375 
L 127.913317 35.775792 
L 129.118425 29.540943 
L 131.528641 19.314054 
L 132.733749 10.478058 
L 133.938857 11.419844 
L 135.143965 11.833191 
L 136.349073 12.618107 
L 137.554181 12.967128 
L 138.759289 13.902203 
L 141.169505 13.53929 
L 143.579721 14.444325 
L 144.784829 14.887672 
L 145.989937 14.959613 
L 147.195045 14.674781 
L 148.400153 14.630544 
L 149.605261 14.394375 
L 150.810369 14.441545 
L 152.015477 15.005557 
L 153.220585 15.721575 
L 154.425693 15.085674 
L 155.630801 15.630227 
L 160.451233 18.403658 
L 161.656341 19.09057 
L 162.861449 19.200686 
L 164.066557 19.530262 
L 165.271665 19.411296 
L 167.681881 20.698022 
L 168.886989 20.569418 
L 170.092097 20.776465 
L 171.297205 21.406601 
L 172.502313 19.351369 
L 173.707421 19.983822 
L 174.912529 20.405418 
L 177.322745 20.3096 
L 178.527853 20.031401 
L 179.732961 20.075865 
L 180.938069 20.63163 
L 182.143177 20.240149 
L 183.348285 20.543832 
L 184.553393 20.346615 
L 185.758501 20.726855 
L 188.168717 21.687371 
L 189.373825 21.47292 
L 191.784041 22.513071 
L 194.194257 23.275526 
L 195.399365 23.224893 
L 196.604473 23.482912 
L 197.809581 19.749097 
L 199.014689 20.009259 
L 200.219797 20.548846 
L 201.424905 20.166087 
L 205.040229 21.664939 
L 206.245337 21.142848 
L 207.450445 21.125981 
L 208.655553 21.435949 
L 209.860661 21.260912 
L 213.475985 22.685186 
L 219.501525 24.812417 
L 220.706633 25.106329 
L 221.911741 25.557932 
L 223.116849 25.851585 
L 224.321957 24.871399 
L 225.527065 25.246873 
L 226.732173 24.139425 
L 227.937281 24.559596 
L 229.142389 24.189156 
L 231.552605 24.820781 
L 232.757713 24.789104 
L 233.962821 24.535175 
L 235.167929 24.886302 
L 236.373037 20.323723 
L 237.578145 20.494384 
L 238.783253 20.489878 
L 239.988361 20.77838 
L 241.193469 20.705288 
L 242.398577 20.839489 
L 247.219009 22.414899 
L 249.629225 22.675313 
L 250.834333 23.058495 
L 252.039441 22.418559 
L 253.244549 22.811194 
L 255.654765 23.223422 
L 256.859873 22.852831 
L 259.27009 23.510179 
L 260.475198 23.723303 
L 261.680306 23.501563 
L 262.885414 22.420421 
L 264.090522 22.651452 
L 265.29563 22.348155 
L 270.116062 23.506541 
L 273.731386 24.558675 
L 274.936494 24.808786 
L 276.141602 24.901819 
L 278.551818 25.385876 
L 279.756926 25.458225 
L 282.167142 26.098724 
L 283.37225 26.15103 
L 284.577358 25.767901 
L 286.987574 26.371039 
L 288.192682 26.379682 
L 289.39779 25.91911 
L 293.013114 26.794839 
L 294.218222 27.048097 
L 299.038654 27.284341 
L 301.44887 27.648441 
L 303.859086 28.125813 
L 306.269302 28.21731 
L 312.294842 29.52867 
L 314.705058 29.902135 
L 315.910166 29.516445 
L 317.115274 29.355065 
L 321.935706 29.998344 
L 325.55103 30.030422 
L 326.756138 30.287678 
L 327.961246 30.329902 
L 329.166354 30.60167 
L 330.371462 30.60041 
L 331.57657 30.429008 
L 332.781678 30.567719 
L 333.986786 30.444706 
L 335.191894 29.67195 
L 337.60211 30.119906 
L 338.807218 30.319303 
L 340.012326 30.235312 
L 341.217434 30.482168 
L 343.62765 30.603135 
L 347.242974 31.260007 
L 349.65319 31.635831 
L 350.858298 30.792922 
L 353.268514 31.219649 
L 354.473622 30.609186 
L 355.67873 30.830739 
L 358.088946 30.451731 
L 366.524702 31.96381 
L 367.72981 31.878597 
L 370.140026 32.160574 
L 371.345134 31.742563 
L 372.550242 31.662899 
L 374.960458 32.031998 
L 377.370674 32.456917 
L 378.575782 32.406088 
L 380.985998 31.446629 
L 382.191106 31.436584 
L 389.421754 32.40266 
L 390.626862 32.166875 
L 393.037078 32.067622 
L 394.242186 32.284758 
L 396.652402 32.527576 
L 399.062618 32.950523 
L 400.267726 32.735828 
L 402.677942 32.917869 
L 403.88305 32.604737 
L 405.088158 32.071984 
L 406.293266 32.159094 
L 407.498375 32.003412 
L 408.703483 32.15764 
L 412.318807 32.140822 
L 413.523915 32.309008 
L 414.729023 32.286755 
L 415.934131 32.041574 
L 418.344347 32.302997 
L 419.549455 31.477374 
L 420.754563 31.678627 
L 423.164779 31.791748 
L 427.985211 32.416237 
L 429.190319 32.295699 
L 435.215859 33.115492 
L 437.626075 33.246794 
L 443.651615 34.08621 
L 446.061831 34.115755 
L 447.266939 34.296669 
L 448.472047 34.143573 
L 449.677155 34.325049 
L 452.087371 34.456468 
L 455.702695 34.57808 
L 459.318019 34.6739 
L 460.523127 34.45484 
L 464.138451 34.885624 
L 465.343559 34.714341 
L 467.753775 34.991368 
L 470.163991 34.982685 
L 476.189531 35.711738 
L 477.394639 35.77336 
L 478.599747 35.5926 
L 479.804855 35.758352 
L 482.215071 35.66258 
L 487.035503 36.208105 
L 489.445719 36.519367 
L 493.061043 36.527278 
L 494.266151 36.652576 
L 495.471259 36.475612 
L 496.676367 36.631446 
L 497.881475 36.340898 
L 499.086583 36.494766 
L 500.291691 36.505121 
L 501.496799 36.655545 
L 502.701907 36.660174 
L 506.317231 37.080612 
L 507.522339 36.546216 
L 508.727447 36.306275 
L 514.752987 36.224664 
L 515.958095 36.375 
L 515.958095 36.375 
" clip-path="url(#pfaedb52a92)" style="fill: none; stroke-dasharray: 5.55,2.4; stroke-dashoffset: 0; stroke: #4169e1; stroke-width: 1.5"/>
   </g>
   <g id="line2d_29">
    <path d="M 35.12 42.688022 
L 36.325108 48.430306 
L 37.530216 40.474667 
L 38.735324 40.351734 
L 39.940432 35.262351 
L 41.14554 32.180073 
L 42.350648 34.235731 
L 43.555756 37.897042 
L 44.760864 37.465968 
L 45.965972 37.543151 
L 47.17108 38.111937 
L 48.376188 37.52456 
L 49.581296 34.492077 
L 50.786404 36.647093 
L 53.19662 38.853715 
L 54.401728 39.501189 
L 55.606836 40.37 
L 56.811944 39.814376 
L 58.017052 40.330442 
L 59.22216 40.628493 
L 60.427268 40.640596 
L 61.632376 40.22421 
L 62.837484 40.21981 
L 64.042592 41.081911 
L 65.2477 41.216911 
L 66.452808 41.026619 
L 67.657916 41.100627 
L 68.863024 41.005861 
L 70.068132 40.706732 
L 71.27324 40.211945 
L 72.478348 40.61278 
L 73.683456 39.833324 
L 74.888564 40.045582 
L 76.093672 38.369753 
L 77.29878 38.59118 
L 78.503888 38.473153 
L 79.708996 38.133446 
L 82.119212 38.810713 
L 83.32432 38.639656 
L 84.529428 38.653586 
L 85.734536 38.157421 
L 86.939644 38.045173 
L 88.144752 37.746399 
L 89.34986 37.954004 
L 90.554968 38.628575 
L 91.760076 38.38774 
L 94.170292 38.67303 
L 95.3754 38.404819 
L 96.580508 38.333033 
L 97.785616 38.11347 
L 98.990724 38.407231 
L 100.195832 38.228956 
L 101.40094 38.331151 
L 102.606048 38.01634 
L 103.811156 37.974541 
L 105.016264 38.206574 
L 106.221372 38.049198 
L 108.631588 38.51632 
L 109.836697 38.705144 
L 111.041805 38.673228 
L 112.246913 38.808103 
L 115.862237 38.620416 
L 117.067345 38.282395 
L 118.272453 38.494817 
L 119.477561 38.443817 
L 120.682669 38.171811 
L 121.887777 38.322252 
L 123.092885 38.239681 
L 124.297993 38.502116 
L 125.503101 37.688118 
L 126.708209 37.715011 
L 127.913317 37.255757 
L 132.733749 34.763856 
L 133.938857 34.672065 
L 137.554181 35.114799 
L 138.759289 35.046886 
L 141.169505 35.526926 
L 142.374613 35.432596 
L 145.989937 35.829721 
L 148.400153 36.297041 
L 149.605261 36.020433 
L 154.425693 36.666893 
L 156.835909 36.804218 
L 164.066557 36.617085 
L 165.271665 36.785021 
L 171.297205 36.525981 
L 172.502313 36.185627 
L 173.707421 36.14768 
L 174.912529 35.991154 
L 176.117637 36.163068 
L 177.322745 35.974928 
L 179.732961 36.267468 
L 183.348285 35.847079 
L 185.758501 36.119295 
L 188.168717 36.092282 
L 189.373825 35.94037 
L 191.784041 35.91353 
L 192.989149 35.793242 
L 194.194257 35.897873 
L 197.809581 35.373101 
L 201.424905 35.661326 
L 205.040229 35.554732 
L 206.245337 35.332713 
L 207.450445 35.261706 
L 208.655553 35.358639 
L 209.860661 35.185642 
L 218.296417 35.246177 
L 223.116849 35.343007 
L 224.321957 35.170713 
L 225.527065 35.247874 
L 226.732173 34.994639 
L 227.937281 35.016684 
L 229.142389 35.161687 
L 231.552605 35.091736 
L 235.167929 35.384066 
L 236.373037 35.037624 
L 242.398577 35.528371 
L 255.654765 35.910728 
L 258.064982 35.746673 
L 260.475198 35.883886 
L 262.885414 35.550356 
L 264.090522 35.613184 
L 265.29563 35.485997 
L 272.526278 35.602419 
L 274.936494 35.650119 
L 280.962034 35.91419 
L 284.577358 35.882856 
L 296.628438 35.520849 
L 297.833546 35.412079 
L 299.038654 35.490415 
L 301.44887 35.480432 
L 315.910166 35.440092 
L 318.320382 35.33839 
L 327.961246 35.61254 
L 330.371462 35.71004 
L 331.57657 35.782446 
L 333.986786 35.632327 
L 335.191894 35.450726 
L 340.012326 35.615111 
L 349.65319 35.754173 
L 350.858298 35.619849 
L 353.268514 35.628302 
L 355.67873 35.464428 
L 358.088946 35.626599 
L 362.909378 35.585362 
L 368.934918 35.589622 
L 378.575782 35.252086 
L 379.78089 35.354556 
L 382.191106 35.201687 
L 384.601322 35.213599 
L 390.626862 35.306862 
L 391.83197 35.365697 
L 395.447294 35.258727 
L 406.293266 35.470899 
L 408.703483 35.416078 
L 417.139239 35.758703 
L 421.959671 35.550116 
L 425.574995 35.609952 
L 427.985211 35.646464 
L 430.395427 35.709319 
L 437.626075 35.815837 
L 459.318019 35.765354 
L 461.728235 35.854274 
L 466.548667 35.90575 
L 479.804855 36.024058 
L 481.009963 35.957229 
L 483.420179 35.969823 
L 491.855935 36.07862 
L 495.471259 36.193527 
L 500.291691 36.089783 
L 503.907015 36.117388 
L 506.317231 36.124169 
L 507.522339 36.215124 
L 508.727447 36.149571 
L 515.958095 36.375 
L 515.958095 36.375 
" clip-path="url(#pfaedb52a92)" style="fill: none; stroke: #ff8c00; stroke-width: 1.5; stroke-linecap: square"/>
   </g>
   <g id="line2d_30">
    <path d="M 35.12 97 
L 36.325108 89.874047 
L 37.530216 64.893291 
L 38.735324 72.91017 
L 39.940432 55.337627 
L 41.14554 52.015689 
L 42.350648 52.962703 
L 43.555756 38.188439 
L 44.760864 44.40179 
L 45.965972 49.650024 
L 47.17108 53.255415 
L 48.376188 56.080633 
L 49.581296 35.380295 
L 50.786404 26.734474 
L 51.991512 27.863841 
L 53.19662 28.099291 
L 54.401728 30.702706 
L 55.606836 31.612746 
L 59.22216 38.441819 
L 60.427268 41.10289 
L 61.632376 42.708895 
L 62.837484 44.970928 
L 64.042592 43.197298 
L 65.2477 45.168168 
L 68.863024 50.25545 
L 70.068132 51.252824 
L 71.27324 51.141346 
L 72.478348 51.498049 
L 73.683456 48.675369 
L 74.888564 49.775377 
L 76.093672 30.489284 
L 78.503888 33.61525 
L 79.708996 34.360519 
L 80.914104 34.847356 
L 82.119212 35.601214 
L 83.32432 36.845806 
L 84.529428 38.27633 
L 85.734536 37.407525 
L 86.939644 38.644815 
L 88.144752 39.092787 
L 89.34986 39.9325 
L 90.554968 36.623066 
L 91.760076 37.291788 
L 94.170292 39.251182 
L 95.3754 39.606199 
L 96.580508 40.653129 
L 97.785616 41.174529 
L 98.990724 41.219918 
L 100.195832 41.863209 
L 101.40094 42.723659 
L 102.606048 42.476483 
L 103.811156 43.395022 
L 105.016264 43.628742 
L 106.221372 44.20247 
L 107.42648 44.024557 
L 109.836697 44.792 
L 111.041805 45.593882 
L 112.246913 46.133143 
L 113.452021 46.825148 
L 114.657129 47.213394 
L 115.862237 47.914677 
L 117.067345 46.94698 
L 118.272453 46.989163 
L 119.477561 47.654194 
L 120.682669 47.204306 
L 121.887777 47.534277 
L 123.092885 48.095172 
L 124.297993 47.645831 
L 125.503101 37.5558 
L 126.708209 38.315924 
L 127.913317 35.558588 
L 129.118425 29.480815 
L 130.323533 25.709456 
L 131.528641 19.304367 
L 132.733749 12.03593 
L 133.938857 12.910285 
L 135.143965 13.366149 
L 136.349073 14.146116 
L 137.554181 14.625102 
L 138.759289 15.486219 
L 141.169505 15.150367 
L 142.374613 15.888665 
L 144.784829 17.21422 
L 145.989937 17.375287 
L 147.195045 16.864417 
L 148.400153 16.834249 
L 149.605261 16.098488 
L 150.810369 16.293173 
L 153.220585 17.207921 
L 154.425693 17.065283 
L 156.835909 18.420356 
L 158.041017 19.161164 
L 159.246125 19.479541 
L 161.656341 20.846554 
L 164.066557 21.506093 
L 165.271665 21.540459 
L 167.681881 22.766025 
L 170.092097 23.317664 
L 171.297205 23.963689 
L 172.502313 21.744891 
L 173.707421 22.357855 
L 174.912529 22.381628 
L 176.117637 22.266715 
L 178.527853 21.758925 
L 180.938069 22.363152 
L 182.143177 22.067812 
L 183.348285 22.256802 
L 184.553393 21.956856 
L 185.758501 22.337655 
L 188.168717 23.363632 
L 189.373825 23.296087 
L 191.784041 24.249002 
L 194.194257 24.624158 
L 195.399365 24.439224 
L 196.604473 24.745251 
L 197.809581 23.045364 
L 199.014689 23.333224 
L 200.219797 23.865524 
L 201.424905 23.33223 
L 205.040229 24.763586 
L 206.245337 23.756068 
L 207.450445 24.108891 
L 208.655553 24.319188 
L 209.860661 23.87919 
L 212.270877 24.85059 
L 213.475985 25.11389 
L 215.886201 26.039825 
L 217.091309 26.347357 
L 220.706633 27.554283 
L 223.116849 28.346927 
L 224.321957 27.774235 
L 225.527065 28.006318 
L 226.732173 26.233995 
L 227.937281 26.65673 
L 229.142389 26.359383 
L 231.552605 27.133945 
L 232.757713 27.165792 
L 233.962821 26.795503 
L 235.167929 27.163318 
L 236.373037 23.247377 
L 238.783253 23.124496 
L 239.988361 23.379687 
L 241.193469 23.414332 
L 242.398577 23.572514 
L 244.808793 24.358817 
L 246.013901 24.509718 
L 247.219009 24.87593 
L 250.834333 25.531734 
L 252.039441 25.077523 
L 253.244549 25.447792 
L 254.449657 25.474628 
L 255.654765 25.637618 
L 256.859873 25.527903 
L 259.27009 25.981212 
L 260.475198 26.181 
L 261.680306 25.752566 
L 262.885414 24.607204 
L 264.090522 24.824141 
L 265.29563 24.532339 
L 266.500738 24.853781 
L 267.705846 24.949425 
L 270.116062 25.583392 
L 274.936494 26.888685 
L 276.141602 27.018104 
L 277.34671 27.352037 
L 278.551818 27.496797 
L 279.756926 27.372218 
L 282.167142 28.02691 
L 283.37225 28.2104 
L 284.577358 27.994206 
L 288.192682 28.815675 
L 289.39779 28.490267 
L 293.013114 29.386526 
L 294.218222 29.597784 
L 296.628438 29.778122 
L 297.833546 29.527699 
L 299.038654 29.543965 
L 301.44887 29.916959 
L 302.653978 30.217475 
L 303.859086 30.304444 
L 306.269302 30.314345 
L 307.47441 30.567052 
L 308.679518 30.661655 
L 312.294842 31.405323 
L 313.49995 31.456459 
L 314.705058 31.655272 
L 315.910166 31.562158 
L 318.320382 31.847554 
L 320.730598 32.213625 
L 321.935706 32.46483 
L 323.140814 32.513576 
L 324.345922 32.284905 
L 325.55103 32.374832 
L 329.166354 32.967789 
L 330.371462 32.822546 
L 333.986786 32.702089 
L 335.191894 31.184655 
L 338.807218 31.833591 
L 340.012326 31.705326 
L 341.217434 31.935709 
L 342.422542 31.840588 
L 343.62765 31.895244 
L 348.448082 32.720924 
L 349.65319 32.828814 
L 350.858298 32.051212 
L 353.268514 32.490319 
L 354.473622 31.712024 
L 355.67873 31.903546 
L 356.883838 31.673279 
L 358.088946 31.619075 
L 364.114486 32.592144 
L 366.524702 32.974712 
L 367.72981 32.717349 
L 370.140026 32.955479 
L 371.345134 32.561806 
L 372.550242 32.318593 
L 374.960458 32.496169 
L 377.370674 32.910413 
L 378.575782 32.847222 
L 380.985998 32.0217 
L 383.396214 32.191204 
L 387.011538 32.596382 
L 389.421754 32.922042 
L 390.626862 32.706649 
L 393.037078 32.627936 
L 394.242186 32.842588 
L 396.652402 33.094909 
L 399.062618 33.489419 
L 400.267726 33.328027 
L 401.472834 33.385062 
L 402.677942 33.561994 
L 403.88305 33.171251 
L 405.088158 32.396075 
L 406.293266 32.491785 
L 407.498375 32.294922 
L 408.703483 32.467377 
L 414.729023 32.479495 
L 415.934131 32.231938 
L 417.139239 32.433861 
L 418.344347 32.432941 
L 419.549455 32.17806 
L 420.754563 32.35667 
L 423.164779 32.371144 
L 426.780103 32.951739 
L 427.985211 32.994057 
L 429.190319 32.85529 
L 435.215859 33.714002 
L 436.420967 33.615728 
L 443.651615 34.625763 
L 446.061831 34.720736 
L 447.266939 34.88323 
L 448.472047 34.709387 
L 449.677155 34.88305 
L 453.292479 35.057224 
L 454.497587 35.232683 
L 458.112911 35.135828 
L 459.318019 35.254562 
L 460.523127 34.949403 
L 464.138451 35.444289 
L 465.343559 35.371031 
L 467.753775 35.661778 
L 470.163991 35.591249 
L 477.394639 36.365706 
L 478.599747 36.07118 
L 479.804855 36.233046 
L 481.009963 36.039729 
L 483.420179 36.083525 
L 489.445719 36.859713 
L 490.650827 36.78204 
L 491.855935 36.821532 
L 493.061043 36.682285 
L 494.266151 36.825049 
L 495.471259 36.596987 
L 496.676367 36.754286 
L 497.881475 36.581432 
L 499.086583 36.733431 
L 500.291691 36.696731 
L 501.496799 36.801353 
L 502.701907 36.749535 
L 506.317231 37.172545 
L 507.522339 36.623954 
L 508.727447 36.412237 
L 513.547879 36.138208 
L 515.958095 36.375 
L 515.958095 36.375 
" clip-path="url(#pfaedb52a92)" style="fill: none; stroke-dasharray: 5.55,2.4; stroke-dashoffset: 0; stroke: #ff8c00; stroke-width: 1.5"/>
   </g>
   <g id="patch_3">
    <path d="M 35.12 97 
L 35.12 0 
" style="fill: none; stroke: #000000; stroke-width: 0.8; stroke-linejoin: miter; stroke-linecap: square"/>
   </g>
   <g id="patch_4">
    <path d="M 540 97 
L 540 0 
" style="fill: none; stroke: #000000; stroke-width: 0.8; stroke-linejoin: miter; stroke-linecap: square"/>
   </g>
   <g id="patch_5">
    <path d="M 35.12 97 
L 540 97 
" style="fill: none; stroke: #000000; stroke-width: 0.8; stroke-linejoin: miter; stroke-linecap: square"/>
   </g>
   <g id="patch_6">
    <path d="M 35.12 0 
L 540 0 
" style="fill: none; stroke: #000000; stroke-width: 0.8; stroke-linejoin: miter; stroke-linecap: square"/>
   </g>
  </g>
 </g>
 <defs>
  <clipPath id="pfaedb52a92">
   <rect x="35.12" y="0" width="504.88" height="97"/>
  </clipPath>
 </defs>
</svg>
