<?xml version="1.0" encoding="utf-8" standalone="no"?>
<!DOCTYPE svg PUBLIC "-//W3C//DTD SVG 1.1//EN"
  "http://www.w3.org/Graphics/SVG/1.1/DTD/svg11.dtd">
<svg xmlns:xlink="http://www.w3.org/1999/xlink" width="540pt" height="129.6pt" viewBox="0 0 540 129.6" xmlns="http://www.w3.org/2000/svg" version="1.1">
 <metadata>
  <rdf:RDF xmlns:dc="http://purl.org/dc/elements/1.1/" xmlns:cc="http://creativecommons.org/ns#" xmlns:rdf="http://www.w3.org/1999/02/22-rdf-syntax-ns#">
   <cc:Work>
    <dc:type rdf:resource="http://purl.org/dc/dcmitype/StillImage"/>
    <dc:date>2025-04-05T02:14:21.065787</dc:date>
    <dc:format>image/svg+xml</dc:format>
    <dc:creator>
     <cc:Agent>
      <dc:title>Matplotlib v3.10.1, https://matplotlib.org/</dc:title>
     </cc:Agent>
    </dc:creator>
   </cc:Work>
  </rdf:RDF>
 </metadata>
 <defs>
  <style type="text/css">*{stroke-linejoin: round; stroke-linecap: butt}</style>
 </defs>
 <g id="figure_1">
  <g id="patch_1">
   <path d="M 0 129.6 
L 540 129.6 
L 540 0 
L 0 0 
z
" style="fill: #ffffff"/>
  </g>
  <g id="axes_1">
   <g id="patch_2">
    <path d="M 34.31 98.44 
L 540 98.44 
L 540 0 
L 34.31 0 
z
" style="fill: #ffffff"/>
   </g>
   <g id="matplotlib.axis_1">
    <g id="xtick_1">
     <g id="line2d_1">
      <path d="M 34.31 98.44 
L 34.31 0 
" clip-path="url(#p1738deee31)" style="fill: none; stroke: #b0b0b0; stroke-width: 0.8; stroke-linecap: square"/>
     </g>
     <g id="line2d_2">
      <defs>
       <path id="m6e9c3d1de5" d="M 0 0 
L 0 3.5 
" style="stroke: #000000; stroke-width: 0.8"/>
      </defs>
      <g>
       <use xlink:href="#m6e9c3d1de5" x="34.31" y="98.44" style="stroke: #000000; stroke-width: 0.8"/>
      </g>
     </g>
     <g id="text_1">
      <text style="font-size: 10px; font-family: 'Times New Roman'; text-anchor: middle" x="34.31" y="112.38375" transform="rotate(-0 34.31 112.38375)">0</text>
     </g>
    </g>
    <g id="xtick_2">
     <g id="line2d_3">
      <path d="M 94.662071 98.44 
L 94.662071 0 
" clip-path="url(#p1738deee31)" style="fill: none; stroke: #b0b0b0; stroke-width: 0.8; stroke-linecap: square"/>
     </g>
     <g id="line2d_4">
      <g>
       <use xlink:href="#m6e9c3d1de5" x="94.662071" y="98.44" style="stroke: #000000; stroke-width: 0.8"/>
      </g>
     </g>
     <g id="text_2">
      <text style="font-size: 10px; font-family: 'Times New Roman'; text-anchor: middle" x="94.662071" y="112.38375" transform="rotate(-0 94.662071 112.38375)">50</text>
     </g>
    </g>
    <g id="xtick_3">
     <g id="line2d_5">
      <path d="M 155.014141 98.44 
L 155.014141 0 
" clip-path="url(#p1738deee31)" style="fill: none; stroke: #b0b0b0; stroke-width: 0.8; stroke-linecap: square"/>
     </g>
     <g id="line2d_6">
      <g>
       <use xlink:href="#m6e9c3d1de5" x="155.014141" y="98.44" style="stroke: #000000; stroke-width: 0.8"/>
      </g>
     </g>
     <g id="text_3">
      <text style="font-size: 10px; font-family: 'Times New Roman'; text-anchor: middle" x="155.014141" y="112.38375" transform="rotate(-0 155.014141 112.38375)">100</text>
     </g>
    </g>
    <g id="xtick_4">
     <g id="line2d_7">
      <path d="M 215.366212 98.44 
L 215.366212 0 
" clip-path="url(#p1738deee31)" style="fill: none; stroke: #b0b0b0; stroke-width: 0.8; stroke-linecap: square"/>
     </g>
     <g id="line2d_8">
      <g>
       <use xlink:href="#m6e9c3d1de5" x="215.366212" y="98.44" style="stroke: #000000; stroke-width: 0.8"/>
      </g>
     </g>
     <g id="text_4">
      <text style="font-size: 10px; font-family: 'Times New Roman'; text-anchor: middle" x="215.366212" y="112.38375" transform="rotate(-0 215.366212 112.38375)">150</text>
     </g>
    </g>
    <g id="xtick_5">
     <g id="line2d_9">
      <path d="M 275.718283 98.44 
L 275.718283 0 
" clip-path="url(#p1738deee31)" style="fill: none; stroke: #b0b0b0; stroke-width: 0.8; stroke-linecap: square"/>
     </g>
     <g id="line2d_10">
      <g>
       <use xlink:href="#m6e9c3d1de5" x="275.718283" y="98.44" style="stroke: #000000; stroke-width: 0.8"/>
      </g>
     </g>
     <g id="text_5">
      <text style="font-size: 10px; font-family: 'Times New Roman'; text-anchor: middle" x="275.718283" y="112.38375" transform="rotate(-0 275.718283 112.38375)">200</text>
     </g>
    </g>
    <g id="xtick_6">
     <g id="line2d_11">
      <path d="M 336.070353 98.44 
L 336.070353 0 
" clip-path="url(#p1738deee31)" style="fill: none; stroke: #b0b0b0; stroke-width: 0.8; stroke-linecap: square"/>
     </g>
     <g id="line2d_12">
      <g>
       <use xlink:href="#m6e9c3d1de5" x="336.070353" y="98.44" style="stroke: #000000; stroke-width: 0.8"/>
      </g>
     </g>
     <g id="text_6">
      <text style="font-size: 10px; font-family: 'Times New Roman'; text-anchor: middle" x="336.070353" y="112.38375" transform="rotate(-0 336.070353 112.38375)">250</text>
     </g>
    </g>
    <g id="xtick_7">
     <g id="line2d_13">
      <path d="M 396.422424 98.44 
L 396.422424 0 
" clip-path="url(#p1738deee31)" style="fill: none; stroke: #b0b0b0; stroke-width: 0.8; stroke-linecap: square"/>
     </g>
     <g id="line2d_14">
      <g>
       <use xlink:href="#m6e9c3d1de5" x="396.422424" y="98.44" style="stroke: #000000; stroke-width: 0.8"/>
      </g>
     </g>
     <g id="text_7">
      <text style="font-size: 10px; font-family: 'Times New Roman'; text-anchor: middle" x="396.422424" y="112.38375" transform="rotate(-0 396.422424 112.38375)">300</text>
     </g>
    </g>
    <g id="xtick_8">
     <g id="line2d_15">
      <path d="M 456.774495 98.44 
L 456.774495 0 
" clip-path="url(#p1738deee31)" style="fill: none; stroke: #b0b0b0; stroke-width: 0.8; stroke-linecap: square"/>
     </g>
     <g id="line2d_16">
      <g>
       <use xlink:href="#m6e9c3d1de5" x="456.774495" y="98.44" style="stroke: #000000; stroke-width: 0.8"/>
      </g>
     </g>
     <g id="text_8">
      <text style="font-size: 10px; font-family: 'Times New Roman'; text-anchor: middle" x="456.774495" y="112.38375" transform="rotate(-0 456.774495 112.38375)">350</text>
     </g>
    </g>
    <g id="xtick_9">
     <g id="line2d_17">
      <path d="M 517.126565 98.44 
L 517.126565 0 
" clip-path="url(#p1738deee31)" style="fill: none; stroke: #b0b0b0; stroke-width: 0.8; stroke-linecap: square"/>
     </g>
     <g id="line2d_18">
      <g>
       <use xlink:href="#m6e9c3d1de5" x="517.126565" y="98.44" style="stroke: #000000; stroke-width: 0.8"/>
      </g>
     </g>
     <g id="text_9">
      <text style="font-size: 10px; font-family: 'Times New Roman'; text-anchor: middle" x="517.126565" y="112.38375" transform="rotate(-0 517.126565 112.38375)">400</text>
     </g>
    </g>
    <g id="text_10">
     <text style="font-size: 12px; font-family: 'Times New Roman'; text-anchor: middle" x="287.155" y="126.855312" transform="rotate(-0 287.155 126.855312)">Simulation Run</text>
    </g>
   </g>
   <g id="matplotlib.axis_2">
    <g id="ytick_1">
     <g id="line2d_19">
      <path d="M 34.31 98.44 
L 540 98.44 
" clip-path="url(#p1738deee31)" style="fill: none; stroke: #b0b0b0; stroke-width: 0.8; stroke-linecap: square"/>
     </g>
     <g id="line2d_20">
      <defs>
       <path id="md2ebeb88e0" d="M 0 0 
L -3.5 0 
" style="stroke: #000000; stroke-width: 0.8"/>
      </defs>
      <g>
       <use xlink:href="#md2ebeb88e0" x="34.31" y="98.44" style="stroke: #000000; stroke-width: 0.8"/>
      </g>
     </g>
     <g id="text_11">
      <text style="font-size: 10px; font-family: 'Times New Roman'; text-anchor: end" x="27.31" y="101.911875" transform="rotate(-0 27.31 101.911875)">0.0</text>
     </g>
    </g>
    <g id="ytick_2">
     <g id="line2d_21">
      <path d="M 34.31 63.282857 
L 540 63.282857 
" clip-path="url(#p1738deee31)" style="fill: none; stroke: #b0b0b0; stroke-width: 0.8; stroke-linecap: square"/>
     </g>
     <g id="line2d_22">
      <g>
       <use xlink:href="#md2ebeb88e0" x="34.31" y="63.282857" style="stroke: #000000; stroke-width: 0.8"/>
      </g>
     </g>
     <g id="text_12">
      <text style="font-size: 10px; font-family: 'Times New Roman'; text-anchor: end" x="27.31" y="66.754732" transform="rotate(-0 27.31 66.754732)">0.5</text>
     </g>
    </g>
    <g id="ytick_3">
     <g id="line2d_23">
      <path d="M 34.31 28.125714 
L 540 28.125714 
" clip-path="url(#p1738deee31)" style="fill: none; stroke: #b0b0b0; stroke-width: 0.8; stroke-linecap: square"/>
     </g>
     <g id="line2d_24">
      <g>
       <use xlink:href="#md2ebeb88e0" x="34.31" y="28.125714" style="stroke: #000000; stroke-width: 0.8"/>
      </g>
     </g>
     <g id="text_13">
      <text style="font-size: 10px; font-family: 'Times New Roman'; text-anchor: end" x="27.31" y="31.597589" transform="rotate(-0 27.31 31.597589)">1.0</text>
     </g>
    </g>
    <g id="text_14">
     <text style="font-size: 12px; font-family: 'Times New Roman'; text-anchor: middle" x="8.243125" y="49.22" transform="rotate(-90 8.243125 49.22)">Normalized Value</text>
    </g>
   </g>
   <g id="line2d_25">
    <path d="M 34.31 15.474921 
L 35.517041 31.274624 
L 36.724083 37.190161 
L 37.931124 34.315593 
L 40.345207 23.204377 
L 41.552248 25.589539 
L 42.75929 30.244285 
L 43.966331 29.106286 
L 45.173373 28.411781 
L 46.380414 29.517831 
L 47.587456 31.550072 
L 48.794497 33.113869 
L 50.001538 30.021852 
L 51.20858 29.710594 
L 52.415621 29.771427 
L 53.622663 28.610966 
L 54.829704 29.196951 
L 56.036745 31.112781 
L 58.450828 32.661876 
L 59.65787 31.618598 
L 60.864911 31.657607 
L 62.071953 32.435039 
L 63.278994 32.884561 
L 64.486035 33.528746 
L 65.693077 33.752268 
L 66.900118 32.093445 
L 68.10716 31.844448 
L 69.314201 31.140733 
L 71.728284 31.637484 
L 72.935325 30.641068 
L 74.142367 30.837758 
L 75.349408 30.000045 
L 76.556449 29.6957 
L 77.763491 28.826207 
L 80.177574 29.289587 
L 81.384615 28.837189 
L 82.591657 29.147924 
L 83.798698 29.759975 
L 85.005739 29.347118 
L 86.212781 27.9183 
L 87.419822 28.280749 
L 88.626864 28.124332 
L 91.040946 27.467351 
L 92.247988 27.697301 
L 93.455029 27.751749 
L 94.662071 27.984736 
L 95.869112 27.442117 
L 97.076153 27.198105 
L 98.283195 26.44217 
L 99.490236 26.267142 
L 100.697278 26.690528 
L 101.904319 26.942514 
L 103.111361 26.990828 
L 104.318402 26.707085 
L 105.525443 27.025049 
L 106.732485 26.385275 
L 107.939526 26.27146 
L 109.146568 26.394381 
L 110.353609 26.842108 
L 111.56065 26.914929 
L 112.767692 26.487134 
L 113.974733 26.477293 
L 115.181775 26.194012 
L 116.388816 25.778765 
L 117.595858 25.982389 
L 118.802899 25.988781 
L 120.00994 26.438412 
L 121.216982 26.009082 
L 122.424023 26.401688 
L 123.631065 26.559954 
L 124.838106 26.161959 
L 126.045147 26.570421 
L 127.252189 26.738623 
L 128.45923 26.395502 
L 129.666272 26.257973 
L 130.873313 25.989294 
L 132.080354 26.068225 
L 133.287396 25.945501 
L 134.494437 25.567832 
L 138.115562 25.802857 
L 139.322603 25.646831 
L 140.529644 25.750653 
L 141.736686 25.613129 
L 142.943727 25.692639 
L 144.150769 25.944908 
L 145.35781 25.770397 
L 146.564851 25.725562 
L 147.771893 26.066915 
L 151.393017 26.399732 
L 152.600058 26.674706 
L 155.014141 26.855537 
L 156.221183 26.584718 
L 158.635266 26.883548 
L 159.842307 26.986845 
L 161.049348 26.822558 
L 162.25639 26.503971 
L 163.463431 26.554652 
L 164.670473 26.226393 
L 167.084555 26.261774 
L 168.291597 26.216185 
L 169.498638 25.76414 
L 171.912721 26.437659 
L 173.119763 26.468572 
L 174.326804 26.344551 
L 177.947928 26.77189 
L 179.15497 27.060915 
L 180.362011 27.101218 
L 182.776094 27.445683 
L 183.983135 27.321732 
L 186.397218 27.354064 
L 190.018342 27.903643 
L 193.639467 28.177637 
L 196.053549 28.018336 
L 197.260591 28.291829 
L 198.467632 28.330115 
L 200.881715 27.964443 
L 205.709881 28.213876 
L 208.123963 27.862543 
L 209.331005 28.055724 
L 211.745088 28.233087 
L 212.952129 28.011141 
L 215.366212 28.342811 
L 216.573253 28.596471 
L 217.780295 28.634074 
L 222.60846 28.124459 
L 225.022543 27.763848 
L 227.436626 27.980023 
L 228.643668 27.896159 
L 229.850709 27.66293 
L 231.05775 27.870722 
L 237.092957 27.964619 
L 238.299999 28.043551 
L 244.335206 27.672478 
L 245.542247 27.443141 
L 247.95633 27.372029 
L 251.577454 27.38399 
L 252.784496 27.59737 
L 255.198579 27.398243 
L 257.612661 27.098577 
L 260.026744 26.926221 
L 261.233786 27.110441 
L 264.85491 27.083269 
L 267.268993 27.238302 
L 269.683076 27.261425 
L 270.890117 27.400414 
L 279.339407 26.99125 
L 281.75349 27.112002 
L 284.167573 26.735532 
L 285.374614 26.811167 
L 286.581655 26.581576 
L 287.788697 26.723285 
L 290.20278 26.737027 
L 292.616862 26.916007 
L 293.823904 26.836957 
L 295.030945 26.642691 
L 301.066152 26.984146 
L 302.273194 26.876378 
L 304.687277 27.057074 
L 310.722484 27.37942 
L 313.136566 27.2061 
L 319.171773 27.34754 
L 320.378815 27.411319 
L 321.585856 27.300211 
L 326.414022 27.360762 
L 327.621063 27.280089 
L 330.035146 27.360635 
L 331.242188 27.319358 
L 334.863312 27.540173 
L 336.070353 27.614752 
L 337.277395 27.466911 
L 340.898519 27.620794 
L 343.312602 27.531253 
L 351.761892 27.374138 
L 355.383016 27.35687 
L 357.797099 27.469664 
L 359.00414 27.333255 
L 361.418223 27.355977 
L 366.246389 27.596486 
L 367.45343 27.766735 
L 371.074554 27.661522 
L 373.488637 27.676734 
L 378.316803 27.746347 
L 380.730886 27.728327 
L 381.937927 27.795927 
L 383.144968 27.722608 
L 385.559051 27.733678 
L 387.973134 27.660604 
L 390.387217 27.495205 
L 391.594258 27.55339 
L 392.8013 27.401788 
L 395.215383 27.454345 
L 397.629465 27.371358 
L 401.25059 27.326786 
L 406.078755 27.58491 
L 410.906921 27.582954 
L 413.321004 27.708182 
L 418.149169 27.563021 
L 421.770294 27.660872 
L 424.184376 27.671406 
L 429.012542 27.784149 
L 430.219583 27.710514 
L 433.840708 27.808382 
L 437.461832 27.772548 
L 451.946329 27.928157 
L 456.774495 28.138615 
L 459.188577 28.105536 
L 461.60266 28.171593 
L 464.016743 28.17189 
L 466.430826 28.175705 
L 470.05195 28.145887 
L 472.466033 28.210405 
L 489.364613 28.174423 
L 496.606861 28.244432 
L 499.020944 28.225208 
L 508.677275 28.193497 
L 511.091358 28.235661 
L 515.919524 28.125714 
L 515.919524 28.125714 
" clip-path="url(#p1738deee31)" style="fill: none; stroke: #4169e1; stroke-width: 1.5; stroke-linecap: square"/>
   </g>
   <g id="line2d_26">
    <path d="M 34.31 98.44 
L 35.517041 52.804422 
L 36.724083 55.22176 
L 37.931124 61.494505 
L 40.345207 27.449751 
L 41.552248 31.351097 
L 42.75929 12.010667 
L 45.173373 26.79834 
L 46.380414 31.074786 
L 47.587456 28.383382 
L 48.794497 28.407628 
L 50.001538 10.688669 
L 52.415621 21.414978 
L 53.622663 22.006857 
L 54.829704 25.18599 
L 56.036745 16.963539 
L 57.243787 18.918752 
L 58.450828 20.548351 
L 59.65787 19.910336 
L 60.864911 23.318549 
L 62.071953 23.907294 
L 63.278994 26.00202 
L 64.486035 26.891537 
L 65.693077 29.304003 
L 66.900118 18.190967 
L 68.10716 20.640815 
L 69.314201 20.608705 
L 71.728284 24.7756 
L 72.935325 21.199715 
L 74.142367 23.238098 
L 75.349408 21.02483 
L 76.556449 22.582593 
L 77.763491 19.65725 
L 78.970532 21.469031 
L 80.177574 22.948238 
L 81.384615 23.376347 
L 82.591657 24.501103 
L 83.798698 23.453762 
L 85.005739 23.888887 
L 86.212781 9.534953 
L 87.419822 10.453914 
L 88.626864 12.165382 
L 89.833905 13.33747 
L 91.040946 13.895185 
L 92.247988 15.156593 
L 93.455029 16.795705 
L 94.662071 17.900395 
L 95.869112 16.704085 
L 97.076153 17.680254 
L 98.283195 13.639106 
L 99.490236 14.878517 
L 100.697278 14.568323 
L 101.904319 15.389708 
L 103.111361 16.797286 
L 104.318402 17.327402 
L 105.525443 17.588807 
L 106.732485 14.424613 
L 109.146568 16.778345 
L 110.353609 15.745582 
L 111.56065 16.95576 
L 112.767692 16.015716 
L 113.974733 17.244761 
L 115.181775 17.455893 
L 116.388816 16.48605 
L 117.595858 17.133806 
L 118.802899 18.278441 
L 120.00994 16.767727 
L 121.216982 15.460366 
L 122.424023 14.524683 
L 123.631065 15.304699 
L 126.045147 13.002395 
L 127.252189 13.699496 
L 128.45923 13.093378 
L 129.666272 13.887047 
L 130.873313 13.875156 
L 132.080354 14.81418 
L 133.287396 15.59594 
L 134.494437 14.417938 
L 138.115562 16.825568 
L 139.322603 17.365819 
L 140.529644 18.103355 
L 141.736686 18.688267 
L 142.943727 19.460647 
L 144.150769 19.260412 
L 145.35781 19.599606 
L 146.564851 20.404157 
L 147.771893 19.223234 
L 148.978934 19.945273 
L 150.185976 20.362664 
L 151.393017 20.958869 
L 152.600058 20.38689 
L 153.8071 20.847714 
L 155.014141 21.573973 
L 156.221183 20.973352 
L 157.428224 20.958868 
L 159.842307 22.059691 
L 161.049348 22.262176 
L 162.25639 21.007283 
L 163.463431 21.674008 
L 164.670473 20.250817 
L 168.291597 22.219533 
L 169.498638 18.710103 
L 170.70568 17.48799 
L 171.912721 15.3614 
L 173.119763 16.057505 
L 175.533845 16.825378 
L 176.740887 17.381112 
L 177.947928 16.903175 
L 179.15497 15.744471 
L 180.362011 16.386373 
L 181.569052 16.519959 
L 182.776094 16.370571 
L 183.983135 16.678851 
L 186.397218 17.939796 
L 187.604259 17.534664 
L 188.811301 16.226622 
L 190.018342 16.797787 
L 194.846508 18.355751 
L 196.053549 18.885884 
L 197.260591 17.624837 
L 198.467632 18.178284 
L 199.674674 18.043241 
L 200.881715 17.647369 
L 202.088756 18.156208 
L 204.502839 18.785371 
L 205.709881 19.342396 
L 206.916922 19.245634 
L 209.331005 18.355941 
L 210.538046 18.785352 
L 211.745088 18.988773 
L 212.952129 18.189207 
L 214.159171 18.220053 
L 215.366212 17.701917 
L 216.573253 16.456901 
L 217.780295 16.953448 
L 218.987336 17.138397 
L 220.194378 17.516883 
L 221.401419 16.766512 
L 222.60846 16.909368 
L 223.815502 16.295903 
L 225.022543 16.052278 
L 226.229585 16.373317 
L 227.436626 16.353882 
L 228.643668 16.653584 
L 229.850709 15.544373 
L 231.05775 14.76321 
L 235.885916 16.672133 
L 238.299999 17.358826 
L 244.335206 18.809235 
L 245.542247 17.579041 
L 246.749289 18.034355 
L 247.95633 18.289201 
L 250.370413 19.077375 
L 251.577454 19.254657 
L 252.784496 18.183162 
L 253.991537 18.450058 
L 255.198579 18.342663 
L 256.40562 17.556392 
L 257.612661 17.587351 
L 260.026744 17.941785 
L 261.233786 17.20132 
L 264.85491 18.3956 
L 266.061951 18.231685 
L 269.683076 19.353761 
L 270.890117 19.063026 
L 272.097158 19.328637 
L 273.3042 19.724592 
L 274.511241 18.461877 
L 280.546448 19.939173 
L 281.75349 20.02256 
L 282.960531 19.174503 
L 284.167573 18.10221 
L 285.374614 18.269073 
L 286.581655 16.636825 
L 287.788697 16.253569 
L 290.20278 16.935111 
L 291.409821 17.121874 
L 292.616862 17.040587 
L 293.823904 17.171823 
L 295.030945 16.05611 
L 297.445028 16.541403 
L 298.652069 16.310163 
L 299.859111 16.679405 
L 302.273194 16.57714 
L 303.480235 16.194546 
L 304.687277 16.476284 
L 307.101359 16.735443 
L 308.308401 16.513596 
L 310.722484 17.144616 
L 311.929525 17.061901 
L 313.136566 17.195886 
L 314.343608 17.536194 
L 315.550649 17.539005 
L 316.757691 17.713024 
L 317.964732 17.717707 
L 319.171773 18.051966 
L 320.378815 18.213489 
L 321.585856 18.012036 
L 323.999939 18.59155 
L 325.206981 18.104353 
L 327.621063 18.127742 
L 328.828105 18.240283 
L 331.242188 18.807578 
L 332.449229 18.633406 
L 333.65627 18.718026 
L 334.863312 18.948973 
L 336.070353 19.01147 
L 337.277395 18.323735 
L 339.691478 18.823903 
L 342.10556 18.84903 
L 346.933726 20.052023 
L 348.140767 20.230533 
L 349.347809 20.526785 
L 350.55485 20.53836 
L 351.761892 19.352767 
L 355.383016 20.208917 
L 356.590057 20.094738 
L 357.797099 20.363164 
L 359.00414 19.737296 
L 360.211182 19.831282 
L 363.832306 20.480952 
L 365.039347 19.816156 
L 366.246389 20.032837 
L 367.45343 18.85344 
L 368.660471 18.906705 
L 372.281596 19.509505 
L 374.695678 19.877623 
L 375.90272 19.583258 
L 378.316803 19.979703 
L 380.730886 20.47005 
L 384.35201 20.635119 
L 386.766093 21.096619 
L 387.973134 21.112636 
L 390.387217 20.899622 
L 391.594258 20.977504 
L 392.8013 19.989572 
L 394.008341 20.055181 
L 395.215383 20.313354 
L 396.422424 20.13793 
L 398.836507 20.554301 
L 401.25059 20.9722 
L 402.457631 20.806716 
L 403.664672 20.518265 
L 404.871714 20.576845 
L 409.699879 21.434628 
L 410.906921 21.620315 
L 412.113962 21.359885 
L 414.528045 21.675357 
L 415.735087 21.621923 
L 416.942128 21.06379 
L 418.149169 20.847915 
L 426.598459 21.550353 
L 427.805501 21.323817 
L 430.219583 21.237775 
L 432.633666 21.271841 
L 439.875915 22.394477 
L 441.082956 22.231146 
L 442.289998 22.428601 
L 443.497039 22.449723 
L 447.118163 23.086502 
L 448.325205 22.932414 
L 449.532246 23.015522 
L 451.946329 23.403326 
L 455.567453 23.214573 
L 456.774495 23.418541 
L 457.981536 23.439906 
L 459.188577 23.62238 
L 460.395619 23.608153 
L 462.809702 23.917244 
L 465.223784 24.032888 
L 467.637867 24.184202 
L 470.05195 24.533429 
L 471.258992 24.429711 
L 473.673074 24.827333 
L 474.880116 24.515259 
L 476.087157 24.590051 
L 478.50124 24.980058 
L 480.915323 25.096557 
L 485.743488 25.821171 
L 489.364613 26.292857 
L 491.778696 26.58827 
L 494.192778 26.554766 
L 496.606861 26.85969 
L 499.020944 27.000115 
L 500.227985 27.175955 
L 501.435027 26.899706 
L 502.642068 26.80553 
L 508.677275 27.633041 
L 509.884317 27.661623 
L 511.091358 27.839434 
L 512.2984 27.89552 
L 513.505441 27.794482 
L 515.919524 28.125714 
L 515.919524 28.125714 
" clip-path="url(#p1738deee31)" style="fill: none; stroke-dasharray: 5.55,2.4; stroke-dashoffset: 0; stroke: #4169e1; stroke-width: 1.5"/>
   </g>
   <g id="line2d_27">
    <path d="M 34.31 22.598327 
L 35.517041 32.505331 
L 36.724083 36.085209 
L 37.931124 33.867015 
L 39.138166 31.162629 
L 40.345207 28.175308 
L 41.552248 29.10725 
L 42.75929 32.611701 
L 43.966331 29.961277 
L 45.173373 29.161201 
L 46.380414 30.583134 
L 47.587456 31.568051 
L 48.794497 32.739601 
L 50.001538 30.011471 
L 51.20858 29.941023 
L 52.415621 29.564538 
L 53.622663 28.549792 
L 54.829704 28.656143 
L 56.036745 30.383324 
L 57.243787 30.69285 
L 58.450828 31.181697 
L 59.65787 30.219049 
L 60.864911 30.218681 
L 63.278994 30.911776 
L 64.486035 31.295506 
L 65.693077 31.423398 
L 66.900118 30.628585 
L 68.10716 30.296991 
L 69.314201 29.800277 
L 70.521242 30.232029 
L 71.728284 30.220701 
L 72.935325 29.791641 
L 74.142367 29.845417 
L 76.556449 29.111278 
L 77.763491 28.525706 
L 80.177574 28.604947 
L 81.384615 28.209681 
L 82.591657 28.351724 
L 83.798698 28.817137 
L 85.005739 28.405005 
L 86.212781 27.291334 
L 87.419822 27.711086 
L 88.626864 27.776867 
L 91.040946 27.254884 
L 93.455029 27.648424 
L 94.662071 27.748457 
L 95.869112 27.315456 
L 97.076153 27.161934 
L 98.283195 26.672934 
L 99.490236 26.505279 
L 101.904319 27.138836 
L 103.111361 27.167426 
L 104.318402 27.028481 
L 105.525443 27.166417 
L 106.732485 26.872229 
L 109.146568 26.786004 
L 110.353609 27.126873 
L 111.56065 27.24559 
L 112.767692 26.979772 
L 113.974733 27.038188 
L 115.181775 26.829757 
L 116.388816 26.464503 
L 117.595858 26.644703 
L 118.802899 26.580128 
L 120.00994 26.930699 
L 121.216982 26.577042 
L 122.424023 26.90655 
L 123.631065 26.952689 
L 124.838106 26.674211 
L 126.045147 26.998418 
L 127.252189 27.142986 
L 129.666272 26.601255 
L 130.873313 26.447194 
L 132.080354 26.478249 
L 133.287396 26.397077 
L 134.494437 26.084428 
L 138.115562 26.189256 
L 139.322603 26.005061 
L 140.529644 26.100624 
L 141.736686 25.940439 
L 142.943727 25.973473 
L 144.150769 26.147457 
L 145.35781 26.028435 
L 146.564851 26.063585 
L 147.771893 26.339918 
L 150.185976 26.612969 
L 151.393017 26.621766 
L 152.600058 26.818371 
L 155.014141 26.93383 
L 156.221183 26.77319 
L 159.842307 27.044816 
L 162.25639 26.69034 
L 163.463431 26.789424 
L 164.670473 26.572604 
L 168.291597 26.544862 
L 169.498638 26.243956 
L 171.912721 26.787411 
L 173.119763 26.905713 
L 175.533845 26.925584 
L 176.740887 26.975542 
L 180.362011 27.36898 
L 182.776094 27.643729 
L 185.190177 27.54052 
L 186.397218 27.557272 
L 187.604259 27.687901 
L 188.811301 27.942031 
L 190.018342 27.934389 
L 192.432425 28.17375 
L 193.639467 28.251373 
L 196.053549 28.239518 
L 197.260591 28.449921 
L 198.467632 28.490047 
L 200.881715 28.331763 
L 205.709881 28.572862 
L 209.331005 28.513377 
L 211.745088 28.637297 
L 212.952129 28.447411 
L 215.366212 28.675038 
L 216.573253 28.868149 
L 218.987336 28.791859 
L 222.60846 28.52254 
L 225.022543 28.252165 
L 228.643668 28.296535 
L 229.850709 28.161824 
L 231.05775 28.326378 
L 235.885916 28.266726 
L 239.50704 28.307093 
L 244.335206 28.011037 
L 245.542247 27.830369 
L 251.577454 27.725554 
L 252.784496 27.90161 
L 255.198579 27.696361 
L 257.612661 27.484303 
L 260.026744 27.297151 
L 261.233786 27.429345 
L 269.683076 27.503069 
L 270.890117 27.599113 
L 279.339407 27.337042 
L 281.75349 27.45225 
L 284.167573 27.174389 
L 285.374614 27.224795 
L 286.581655 27.116863 
L 287.788697 27.234522 
L 291.409821 27.29288 
L 292.616862 27.364667 
L 296.237987 27.228634 
L 310.722484 27.6843 
L 313.136566 27.545332 
L 314.343608 27.506243 
L 315.550649 27.596586 
L 316.757691 27.556621 
L 319.171773 27.625167 
L 322.792898 27.662631 
L 323.999939 27.64062 
L 325.206981 27.743822 
L 327.621063 27.609082 
L 330.035146 27.663359 
L 332.449229 27.745036 
L 336.070353 27.893065 
L 337.277395 27.800048 
L 343.312602 27.896176 
L 349.347809 27.788048 
L 350.55485 27.834435 
L 352.968933 27.685363 
L 366.246389 27.787078 
L 367.45343 27.930889 
L 371.074554 27.846375 
L 373.488637 27.859515 
L 379.523844 27.928982 
L 401.25059 27.697684 
L 406.078755 27.87515 
L 414.528045 27.973744 
L 416.942128 27.860693 
L 421.770294 27.936697 
L 426.598459 27.964863 
L 429.012542 27.999635 
L 430.219583 27.935525 
L 433.840708 28.029453 
L 436.254791 28.052199 
L 439.875915 27.991152 
L 442.289998 28.050588 
L 447.118163 27.984422 
L 456.774495 28.269249 
L 459.188577 28.252392 
L 464.016743 28.35818 
L 466.430826 28.343537 
L 470.05195 28.303787 
L 473.673074 28.335953 
L 478.50124 28.220863 
L 483.329406 28.219256 
L 515.919524 28.125714 
L 515.919524 28.125714 
" clip-path="url(#p1738deee31)" style="fill: none; stroke: #ff8c00; stroke-width: 1.5; stroke-linecap: square"/>
   </g>
   <g id="line2d_28">
    <path d="M 34.31 98.44 
L 35.517041 66.428238 
L 36.724083 68.739112 
L 37.931124 71.349899 
L 39.138166 67.226298 
L 40.345207 57.875374 
L 41.552248 61.970694 
L 42.75929 38.490336 
L 43.966331 26.822124 
L 45.173373 32.104901 
L 46.380414 31.540844 
L 47.587456 33.635476 
L 48.794497 33.248538 
L 50.001538 6.347862 
L 51.20858 12.464677 
L 52.415621 17.144691 
L 53.622663 16.553242 
L 54.829704 21.039795 
L 56.036745 7.599969 
L 57.243787 11.548265 
L 58.450828 14.127127 
L 59.65787 11.612367 
L 60.864911 15.387481 
L 62.071953 17.64422 
L 63.278994 20.206308 
L 64.486035 22.014648 
L 65.693077 24.706513 
L 66.900118 21.776723 
L 68.10716 23.416141 
L 69.314201 23.583289 
L 70.521242 24.174065 
L 71.728284 26.493578 
L 72.935325 26.752402 
L 74.142367 28.829736 
L 75.349408 29.087228 
L 76.556449 29.701778 
L 77.763491 27.533439 
L 80.177574 31.070728 
L 81.384615 30.767634 
L 82.591657 32.154956 
L 83.798698 30.83659 
L 85.005739 30.082031 
L 86.212781 14.241323 
L 87.419822 13.583905 
L 88.626864 15.365094 
L 89.833905 16.198579 
L 91.040946 16.773922 
L 92.247988 17.491585 
L 94.662071 20.16273 
L 95.869112 18.549362 
L 97.076153 19.657001 
L 98.283195 16.982441 
L 99.490236 17.968436 
L 100.697278 17.398559 
L 101.904319 17.186585 
L 103.111361 18.57231 
L 105.525443 20.509322 
L 106.732485 20.093215 
L 109.146568 22.48538 
L 110.353609 21.284679 
L 111.56065 22.177494 
L 112.767692 21.835004 
L 113.974733 22.904906 
L 115.181775 23.066375 
L 116.388816 21.199889 
L 117.595858 21.572541 
L 118.802899 22.559979 
L 121.216982 18.894763 
L 122.424023 17.384591 
L 123.631065 18.413949 
L 124.838106 17.569916 
L 126.045147 16.014717 
L 127.252189 16.546573 
L 128.45923 15.181889 
L 129.666272 14.805714 
L 130.873313 15.218934 
L 132.080354 16.208346 
L 133.287396 17.022869 
L 134.494437 15.345959 
L 136.90852 17.235912 
L 138.115562 17.910947 
L 139.322603 17.863329 
L 140.529644 18.506573 
L 141.736686 18.64989 
L 142.943727 19.494672 
L 144.150769 19.454343 
L 145.35781 19.878578 
L 146.564851 20.676861 
L 147.771893 19.15433 
L 148.978934 19.240301 
L 150.185976 19.616979 
L 151.393017 20.418847 
L 152.600058 19.971439 
L 155.014141 21.309856 
L 156.221183 21.215963 
L 158.635266 21.922948 
L 159.842307 22.546989 
L 161.049348 22.63256 
L 162.25639 21.685932 
L 163.463431 22.053997 
L 164.670473 21.098834 
L 168.291597 23.144452 
L 169.498638 20.503258 
L 170.70568 18.634811 
L 171.912721 16.407301 
L 173.119763 16.589543 
L 175.533845 17.832752 
L 176.740887 18.41407 
L 177.947928 18.005819 
L 179.15497 17.235158 
L 180.362011 17.851045 
L 181.569052 17.970696 
L 182.776094 17.608809 
L 185.190177 18.660816 
L 186.397218 19.277466 
L 187.604259 19.189109 
L 188.811301 17.107283 
L 190.018342 17.730462 
L 191.225384 17.190846 
L 193.639467 17.919366 
L 196.053549 19.010552 
L 197.260591 17.64537 
L 198.467632 18.163694 
L 200.881715 18.755706 
L 204.502839 19.66933 
L 205.709881 20.207386 
L 206.916922 20.606171 
L 209.331005 20.436771 
L 210.538046 20.904726 
L 211.745088 21.06036 
L 212.952129 19.839186 
L 214.159171 19.952309 
L 215.366212 19.571503 
L 216.573253 18.253761 
L 217.780295 18.775938 
L 220.194378 19.227822 
L 221.401419 18.57717 
L 222.60846 18.963533 
L 223.815502 18.639516 
L 225.022543 18.083359 
L 226.229585 18.528788 
L 227.436626 17.979867 
L 229.850709 17.122855 
L 231.05775 16.179131 
L 232.264792 16.631418 
L 233.471833 16.870709 
L 235.885916 17.800538 
L 238.299999 18.440942 
L 241.921123 19.104883 
L 244.335206 19.23827 
L 245.542247 17.825226 
L 246.749289 18.223544 
L 247.95633 18.483435 
L 250.370413 19.266674 
L 251.577454 19.626591 
L 252.784496 18.229844 
L 253.991537 18.479185 
L 256.40562 16.80582 
L 257.612661 16.954881 
L 260.026744 16.758297 
L 261.233786 16.118952 
L 262.440827 16.551797 
L 263.647868 16.803732 
L 264.85491 17.204556 
L 266.061951 16.874619 
L 269.683076 18.112903 
L 270.890117 17.930969 
L 273.3042 18.576408 
L 274.511241 16.410183 
L 279.339407 17.948002 
L 280.546448 18.189128 
L 281.75349 18.274168 
L 282.960531 17.577068 
L 284.167573 16.430102 
L 285.374614 16.650126 
L 286.581655 16.245509 
L 287.788697 15.686863 
L 290.20278 16.393215 
L 291.409821 16.64863 
L 293.823904 16.579818 
L 295.030945 15.723228 
L 296.237987 15.671957 
L 297.445028 15.903767 
L 298.652069 15.485893 
L 299.859111 15.844261 
L 302.273194 16.122059 
L 303.480235 15.668856 
L 304.687277 15.972309 
L 305.894318 16.131047 
L 307.101359 16.453353 
L 308.308401 16.233511 
L 310.722484 16.900357 
L 311.929525 16.418914 
L 314.343608 16.923146 
L 315.550649 16.651247 
L 316.757691 16.877384 
L 317.964732 16.787518 
L 320.378815 17.367494 
L 322.792898 17.520714 
L 323.999939 17.818556 
L 325.206981 17.314517 
L 326.414022 17.16729 
L 328.828105 17.251105 
L 331.242188 17.899087 
L 332.449229 17.748073 
L 336.070353 18.118209 
L 337.277395 17.728624 
L 339.691478 18.155758 
L 340.898519 17.768105 
L 342.10556 17.651186 
L 345.726685 18.47418 
L 348.140767 18.954785 
L 350.55485 19.143944 
L 351.761892 18.076362 
L 357.797099 19.315537 
L 359.00414 18.786069 
L 360.211182 18.716618 
L 362.625264 19.127809 
L 363.832306 19.417089 
L 365.039347 18.928086 
L 366.246389 19.17904 
L 367.45343 17.603438 
L 369.867513 17.858829 
L 371.074554 18.146619 
L 372.281596 18.128358 
L 374.695678 18.438581 
L 375.90272 18.01466 
L 378.316803 18.484835 
L 381.937927 19.263502 
L 383.144968 19.184034 
L 386.766093 19.779157 
L 387.973134 19.977642 
L 389.180175 19.892396 
L 390.387217 20.103864 
L 391.594258 20.158958 
L 392.8013 19.70062 
L 394.008341 19.801485 
L 395.215383 20.044325 
L 396.422424 20.131685 
L 397.629465 20.380169 
L 398.836507 20.490946 
L 400.043548 20.457125 
L 401.25059 20.602527 
L 402.457631 20.342775 
L 404.871714 20.3904 
L 408.492838 21.07335 
L 410.906921 21.343124 
L 412.113962 21.335562 
L 413.321004 21.56345 
L 416.942128 21.302726 
L 418.149169 21.348458 
L 420.563252 21.748705 
L 421.770294 21.710532 
L 426.598459 22.497833 
L 427.805501 22.313902 
L 429.012542 22.463626 
L 431.426625 22.078823 
L 432.633666 22.174445 
L 436.254791 22.766206 
L 437.461832 22.664894 
L 439.875915 23.108051 
L 441.082956 22.991583 
L 442.289998 23.212492 
L 444.70408 23.507263 
L 447.118163 23.927525 
L 449.532246 23.912082 
L 451.946329 24.286039 
L 455.567453 24.018496 
L 456.774495 24.215193 
L 457.981536 24.196499 
L 459.188577 24.317308 
L 460.395619 24.230592 
L 462.809702 24.596249 
L 464.016743 24.502532 
L 465.223784 24.571637 
L 467.637867 24.512931 
L 470.05195 24.871626 
L 471.258992 24.888143 
L 473.673074 25.254097 
L 474.880116 25.137407 
L 476.087157 24.696327 
L 479.708281 25.210723 
L 490.571654 26.566457 
L 494.192778 26.565228 
L 495.39982 26.750459 
L 497.813903 26.863374 
L 500.227985 27.207963 
L 501.435027 26.907085 
L 502.642068 26.845952 
L 512.2984 28.037097 
L 513.505441 27.805306 
L 515.919524 28.125714 
L 515.919524 28.125714 
" clip-path="url(#p1738deee31)" style="fill: none; stroke-dasharray: 5.55,2.4; stroke-dashoffset: 0; stroke: #ff8c00; stroke-width: 1.5"/>
   </g>
   <g id="patch_3">
    <path d="M 34.31 98.44 
L 34.31 0 
" style="fill: none; stroke: #000000; stroke-width: 0.8; stroke-linejoin: miter; stroke-linecap: square"/>
   </g>
   <g id="patch_4">
    <path d="M 540 98.44 
L 540 0 
" style="fill: none; stroke: #000000; stroke-width: 0.8; stroke-linejoin: miter; stroke-linecap: square"/>
   </g>
   <g id="patch_5">
    <path d="M 34.31 98.44 
L 540 98.44 
" style="fill: none; stroke: #000000; stroke-width: 0.8; stroke-linejoin: miter; stroke-linecap: square"/>
   </g>
   <g id="patch_6">
    <path d="M 34.31 0 
L 540 0 
" style="fill: none; stroke: #000000; stroke-width: 0.8; stroke-linejoin: miter; stroke-linecap: square"/>
   </g>
  </g>
 </g>
 <defs>
  <clipPath id="p1738deee31">
   <rect x="34.31" y="0" width="505.69" height="98.44"/>
  </clipPath>
 </defs>
</svg>
