<?xml version="1.0" encoding="utf-8" standalone="no"?>
<!DOCTYPE svg PUBLIC "-//W3C//DTD SVG 1.1//EN"
  "http://www.w3.org/Graphics/SVG/1.1/DTD/svg11.dtd">
<svg xmlns:xlink="http://www.w3.org/1999/xlink" width="540pt" height="129.6pt" viewBox="0 0 540 129.6" xmlns="http://www.w3.org/2000/svg" version="1.1">
 <metadata>
  <rdf:RDF xmlns:dc="http://purl.org/dc/elements/1.1/" xmlns:cc="http://creativecommons.org/ns#" xmlns:rdf="http://www.w3.org/1999/02/22-rdf-syntax-ns#">
   <cc:Work>
    <dc:type rdf:resource="http://purl.org/dc/dcmitype/StillImage"/>
    <dc:date>2025-04-05T16:38:05.771935</dc:date>
    <dc:format>image/svg+xml</dc:format>
    <dc:creator>
     <cc:Agent>
      <dc:title>Matplotlib v3.10.1, https://matplotlib.org/</dc:title>
     </cc:Agent>
    </dc:creator>
   </cc:Work>
  </rdf:RDF>
 </metadata>
 <defs>
  <style type="text/css">*{stroke-linejoin: round; stroke-linecap: butt}</style>
 </defs>
 <g id="figure_1">
  <g id="patch_1">
   <path d="M 0 129.6 
L 540 129.6 
L 540 0 
L 0 0 
z
" style="fill: #ffffff"/>
  </g>
  <g id="axes_1">
   <g id="patch_2">
    <path d="M 34.31 98.44 
L 540 98.44 
L 540 0 
L 34.31 0 
z
" style="fill: #ffffff"/>
   </g>
   <g id="matplotlib.axis_1">
    <g id="xtick_1">
     <g id="line2d_1">
      <path d="M 34.31 98.44 
L 34.31 0 
" clip-path="url(#p3ba1b08569)" style="fill: none; stroke: #b0b0b0; stroke-width: 0.8; stroke-linecap: square"/>
     </g>
     <g id="line2d_2">
      <defs>
       <path id="m9c99518a7d" d="M 0 0 
L 0 3.5 
" style="stroke: #000000; stroke-width: 0.8"/>
      </defs>
      <g>
       <use xlink:href="#m9c99518a7d" x="34.31" y="98.44" style="stroke: #000000; stroke-width: 0.8"/>
      </g>
     </g>
     <g id="text_1">
      <text style="font-size: 10px; font-family: 'Times New Roman'; text-anchor: middle" x="34.31" y="112.38375" transform="rotate(-0 34.31 112.38375)">0</text>
     </g>
    </g>
    <g id="xtick_2">
     <g id="line2d_3">
      <path d="M 94.662071 98.44 
L 94.662071 0 
" clip-path="url(#p3ba1b08569)" style="fill: none; stroke: #b0b0b0; stroke-width: 0.8; stroke-linecap: square"/>
     </g>
     <g id="line2d_4">
      <g>
       <use xlink:href="#m9c99518a7d" x="94.662071" y="98.44" style="stroke: #000000; stroke-width: 0.8"/>
      </g>
     </g>
     <g id="text_2">
      <text style="font-size: 10px; font-family: 'Times New Roman'; text-anchor: middle" x="94.662071" y="112.38375" transform="rotate(-0 94.662071 112.38375)">50</text>
     </g>
    </g>
    <g id="xtick_3">
     <g id="line2d_5">
      <path d="M 155.014141 98.44 
L 155.014141 0 
" clip-path="url(#p3ba1b08569)" style="fill: none; stroke: #b0b0b0; stroke-width: 0.8; stroke-linecap: square"/>
     </g>
     <g id="line2d_6">
      <g>
       <use xlink:href="#m9c99518a7d" x="155.014141" y="98.44" style="stroke: #000000; stroke-width: 0.8"/>
      </g>
     </g>
     <g id="text_3">
      <text style="font-size: 10px; font-family: 'Times New Roman'; text-anchor: middle" x="155.014141" y="112.38375" transform="rotate(-0 155.014141 112.38375)">100</text>
     </g>
    </g>
    <g id="xtick_4">
     <g id="line2d_7">
      <path d="M 215.366212 98.44 
L 215.366212 0 
" clip-path="url(#p3ba1b08569)" style="fill: none; stroke: #b0b0b0; stroke-width: 0.8; stroke-linecap: square"/>
     </g>
     <g id="line2d_8">
      <g>
       <use xlink:href="#m9c99518a7d" x="215.366212" y="98.44" style="stroke: #000000; stroke-width: 0.8"/>
      </g>
     </g>
     <g id="text_4">
      <text style="font-size: 10px; font-family: 'Times New Roman'; text-anchor: middle" x="215.366212" y="112.38375" transform="rotate(-0 215.366212 112.38375)">150</text>
     </g>
    </g>
    <g id="xtick_5">
     <g id="line2d_9">
      <path d="M 275.718283 98.44 
L 275.718283 0 
" clip-path="url(#p3ba1b08569)" style="fill: none; stroke: #b0b0b0; stroke-width: 0.8; stroke-linecap: square"/>
     </g>
     <g id="line2d_10">
      <g>
       <use xlink:href="#m9c99518a7d" x="275.718283" y="98.44" style="stroke: #000000; stroke-width: 0.8"/>
      </g>
     </g>
     <g id="text_5">
      <text style="font-size: 10px; font-family: 'Times New Roman'; text-anchor: middle" x="275.718283" y="112.38375" transform="rotate(-0 275.718283 112.38375)">200</text>
     </g>
    </g>
    <g id="xtick_6">
     <g id="line2d_11">
      <path d="M 336.070353 98.44 
L 336.070353 0 
" clip-path="url(#p3ba1b08569)" style="fill: none; stroke: #b0b0b0; stroke-width: 0.8; stroke-linecap: square"/>
     </g>
     <g id="line2d_12">
      <g>
       <use xlink:href="#m9c99518a7d" x="336.070353" y="98.44" style="stroke: #000000; stroke-width: 0.8"/>
      </g>
     </g>
     <g id="text_6">
      <text style="font-size: 10px; font-family: 'Times New Roman'; text-anchor: middle" x="336.070353" y="112.38375" transform="rotate(-0 336.070353 112.38375)">250</text>
     </g>
    </g>
    <g id="xtick_7">
     <g id="line2d_13">
      <path d="M 396.422424 98.44 
L 396.422424 0 
" clip-path="url(#p3ba1b08569)" style="fill: none; stroke: #b0b0b0; stroke-width: 0.8; stroke-linecap: square"/>
     </g>
     <g id="line2d_14">
      <g>
       <use xlink:href="#m9c99518a7d" x="396.422424" y="98.44" style="stroke: #000000; stroke-width: 0.8"/>
      </g>
     </g>
     <g id="text_7">
      <text style="font-size: 10px; font-family: 'Times New Roman'; text-anchor: middle" x="396.422424" y="112.38375" transform="rotate(-0 396.422424 112.38375)">300</text>
     </g>
    </g>
    <g id="xtick_8">
     <g id="line2d_15">
      <path d="M 456.774495 98.44 
L 456.774495 0 
" clip-path="url(#p3ba1b08569)" style="fill: none; stroke: #b0b0b0; stroke-width: 0.8; stroke-linecap: square"/>
     </g>
     <g id="line2d_16">
      <g>
       <use xlink:href="#m9c99518a7d" x="456.774495" y="98.44" style="stroke: #000000; stroke-width: 0.8"/>
      </g>
     </g>
     <g id="text_8">
      <text style="font-size: 10px; font-family: 'Times New Roman'; text-anchor: middle" x="456.774495" y="112.38375" transform="rotate(-0 456.774495 112.38375)">350</text>
     </g>
    </g>
    <g id="xtick_9">
     <g id="line2d_17">
      <path d="M 517.126565 98.44 
L 517.126565 0 
" clip-path="url(#p3ba1b08569)" style="fill: none; stroke: #b0b0b0; stroke-width: 0.8; stroke-linecap: square"/>
     </g>
     <g id="line2d_18">
      <g>
       <use xlink:href="#m9c99518a7d" x="517.126565" y="98.44" style="stroke: #000000; stroke-width: 0.8"/>
      </g>
     </g>
     <g id="text_9">
      <text style="font-size: 10px; font-family: 'Times New Roman'; text-anchor: middle" x="517.126565" y="112.38375" transform="rotate(-0 517.126565 112.38375)">400</text>
     </g>
    </g>
    <g id="text_10">
     <text style="font-size: 12px; font-family: 'Times New Roman'; text-anchor: middle" x="287.155" y="126.855312" transform="rotate(-0 287.155 126.855312)">Simulation Run</text>
    </g>
   </g>
   <g id="matplotlib.axis_2">
    <g id="ytick_1">
     <g id="line2d_19">
      <path d="M 34.31 98.44 
L 540 98.44 
" clip-path="url(#p3ba1b08569)" style="fill: none; stroke: #b0b0b0; stroke-width: 0.8; stroke-linecap: square"/>
     </g>
     <g id="line2d_20">
      <defs>
       <path id="m1b014dede6" d="M 0 0 
L -3.5 0 
" style="stroke: #000000; stroke-width: 0.8"/>
      </defs>
      <g>
       <use xlink:href="#m1b014dede6" x="34.31" y="98.44" style="stroke: #000000; stroke-width: 0.8"/>
      </g>
     </g>
     <g id="text_11">
      <text style="font-size: 10px; font-family: 'Times New Roman'; text-anchor: end" x="27.31" y="101.911875" transform="rotate(-0 27.31 101.911875)">0.0</text>
     </g>
    </g>
    <g id="ytick_2">
     <g id="line2d_21">
      <path d="M 34.31 63.282857 
L 540 63.282857 
" clip-path="url(#p3ba1b08569)" style="fill: none; stroke: #b0b0b0; stroke-width: 0.8; stroke-linecap: square"/>
     </g>
     <g id="line2d_22">
      <g>
       <use xlink:href="#m1b014dede6" x="34.31" y="63.282857" style="stroke: #000000; stroke-width: 0.8"/>
      </g>
     </g>
     <g id="text_12">
      <text style="font-size: 10px; font-family: 'Times New Roman'; text-anchor: end" x="27.31" y="66.754732" transform="rotate(-0 27.31 66.754732)">0.5</text>
     </g>
    </g>
    <g id="ytick_3">
     <g id="line2d_23">
      <path d="M 34.31 28.125714 
L 540 28.125714 
" clip-path="url(#p3ba1b08569)" style="fill: none; stroke: #b0b0b0; stroke-width: 0.8; stroke-linecap: square"/>
     </g>
     <g id="line2d_24">
      <g>
       <use xlink:href="#m1b014dede6" x="34.31" y="28.125714" style="stroke: #000000; stroke-width: 0.8"/>
      </g>
     </g>
     <g id="text_13">
      <text style="font-size: 10px; font-family: 'Times New Roman'; text-anchor: end" x="27.31" y="31.597589" transform="rotate(-0 27.31 31.597589)">1.0</text>
     </g>
    </g>
    <g id="text_14">
     <text style="font-size: 12px; font-family: 'Times New Roman'; text-anchor: middle" x="8.243125" y="49.22" transform="rotate(-90 8.243125 49.22)">Normalized Value</text>
    </g>
   </g>
   <g id="line2d_25">
    <path d="M 34.31 17.618238 
L 35.517041 25.665675 
L 36.724083 27.635917 
L 37.931124 32.96365 
L 39.138166 27.83042 
L 40.345207 29.212338 
L 41.552248 20.771575 
L 42.75929 20.810262 
L 43.966331 21.929938 
L 45.173373 25.269702 
L 46.380414 26.209956 
L 47.587456 26.542317 
L 48.794497 25.798433 
L 50.001538 27.605487 
L 51.20858 27.347892 
L 52.415621 26.880234 
L 53.622663 28.558226 
L 54.829704 26.737655 
L 56.036745 27.525843 
L 57.243787 26.222689 
L 58.450828 25.818246 
L 59.65787 24.515678 
L 60.864911 22.648905 
L 62.071953 22.658671 
L 63.278994 22.230606 
L 64.486035 22.857824 
L 65.693077 23.642586 
L 66.900118 23.08115 
L 68.10716 23.101364 
L 69.314201 22.238933 
L 70.521242 22.207133 
L 71.728284 23.128903 
L 72.935325 22.503153 
L 74.142367 22.387454 
L 75.349408 22.45048 
L 76.556449 23.018997 
L 77.763491 23.241141 
L 78.970532 24.173629 
L 80.177574 23.690239 
L 82.591657 25.226336 
L 83.798698 25.760603 
L 85.005739 25.651485 
L 86.212781 25.408567 
L 87.419822 25.354561 
L 88.626864 25.577614 
L 89.833905 25.263703 
L 91.040946 25.152866 
L 92.247988 24.616687 
L 94.662071 24.830238 
L 95.869112 25.231459 
L 97.076153 26.016702 
L 98.283195 26.280517 
L 99.490236 26.173173 
L 100.697278 26.543201 
L 101.904319 26.557392 
L 103.111361 26.45689 
L 104.318402 26.622114 
L 105.525443 26.280355 
L 106.732485 26.485701 
L 107.939526 26.437445 
L 109.146568 26.10219 
L 111.56065 26.610918 
L 112.767692 27.06653 
L 113.974733 27.236412 
L 115.181775 26.972601 
L 117.595858 27.425854 
L 118.802899 27.373912 
L 120.00994 27.695091 
L 122.424023 27.145127 
L 123.631065 27.0976 
L 126.045147 27.648752 
L 127.252189 27.5558 
L 130.873313 28.247386 
L 132.080354 28.155563 
L 133.287396 28.280764 
L 134.494437 27.993094 
L 136.90852 28.543463 
L 138.115562 28.553484 
L 142.943727 29.129693 
L 144.150769 29.488231 
L 145.35781 29.559681 
L 146.564851 29.513461 
L 147.771893 29.142164 
L 150.185976 29.810349 
L 151.393017 29.708906 
L 152.600058 29.940586 
L 153.8071 29.937094 
L 155.014141 29.792298 
L 156.221183 30.105063 
L 158.635266 30.218455 
L 159.842307 30.046008 
L 162.25639 30.157396 
L 163.463431 30.220796 
L 164.670473 30.13137 
L 165.877514 30.252447 
L 167.084555 30.251206 
L 169.498638 30.509808 
L 170.70568 30.75599 
L 171.912721 30.284332 
L 173.119763 30.401434 
L 174.326804 29.973045 
L 175.533845 30.162955 
L 176.740887 30.136458 
L 177.947928 30.321324 
L 179.15497 30.316645 
L 180.362011 30.557612 
L 183.983135 30.870396 
L 185.190177 30.462087 
L 186.397218 30.48427 
L 187.604259 30.344284 
L 188.811301 30.086241 
L 191.225384 30.001907 
L 192.432425 29.619487 
L 193.639467 29.788127 
L 197.260591 29.701058 
L 198.467632 29.739125 
L 199.674674 29.605947 
L 200.881715 29.673878 
L 202.088756 29.622859 
L 204.502839 29.755081 
L 206.916922 29.620794 
L 208.123963 29.57078 
L 209.331005 29.685759 
L 210.538046 29.598589 
L 212.952129 29.769941 
L 214.159171 29.791623 
L 216.573253 29.552332 
L 218.987336 29.860053 
L 223.815502 29.521446 
L 226.229585 29.591724 
L 228.643668 29.578446 
L 229.850709 29.765957 
L 231.05775 29.712344 
L 232.264792 29.809082 
L 234.678875 29.761719 
L 238.299999 29.77084 
L 239.50704 29.279709 
L 240.714082 29.257095 
L 241.921123 29.35657 
L 243.128164 29.012276 
L 244.335206 29.136476 
L 250.370413 28.977181 
L 253.991537 28.878638 
L 256.40562 28.983464 
L 262.440827 29.060979 
L 266.061951 28.496353 
L 267.268993 28.62714 
L 270.890117 28.422176 
L 278.132365 28.57041 
L 280.546448 28.17666 
L 282.960531 28.156331 
L 284.167573 28.219087 
L 285.374614 28.124013 
L 286.581655 28.18513 
L 287.788697 28.046277 
L 290.20278 28.17197 
L 296.237987 27.634435 
L 298.652069 27.742543 
L 303.480235 27.890454 
L 304.687277 27.785602 
L 308.308401 28.012375 
L 310.722484 27.920245 
L 311.929525 28.091414 
L 314.343608 27.988364 
L 315.550649 27.867261 
L 317.964732 27.928575 
L 319.171773 28.023829 
L 322.792898 27.864157 
L 328.828105 28.341523 
L 333.65627 28.445207 
L 339.691478 28.38656 
L 342.10556 28.520704 
L 343.312602 28.492113 
L 344.519643 28.605404 
L 349.347809 28.424782 
L 351.761892 28.566631 
L 352.968933 28.660736 
L 354.175974 28.503776 
L 362.625264 28.580466 
L 365.039347 28.689214 
L 368.660471 28.720963 
L 375.90272 28.787813 
L 379.523844 28.553075 
L 381.937927 28.672768 
L 384.35201 28.724584 
L 389.180175 28.740778 
L 394.008341 28.679669 
L 400.043548 28.824289 
L 401.25059 28.890533 
L 407.285797 28.568812 
L 412.113962 28.732847 
L 414.528045 28.604802 
L 420.563252 28.577253 
L 421.770294 28.651708 
L 425.391418 28.547854 
L 427.805501 28.600216 
L 429.012542 28.562332 
L 431.426625 28.65384 
L 432.633666 28.443482 
L 435.047749 28.496863 
L 436.254791 28.52722 
L 437.461832 28.285925 
L 442.289998 28.260096 
L 444.70408 28.071096 
L 445.911122 28.064692 
L 448.325205 28.2162 
L 450.739288 28.328636 
L 451.946329 28.160466 
L 453.15337 28.228339 
L 456.774495 28.007886 
L 465.223784 27.932686 
L 470.05195 27.985688 
L 472.466033 28.068295 
L 476.087157 27.968457 
L 477.294199 28.065686 
L 479.708281 27.911843 
L 499.020944 28.131198 
L 502.642068 28.173802 
L 503.84911 27.984387 
L 507.470234 28.027301 
L 509.884317 27.989515 
L 515.919524 28.125714 
L 515.919524 28.125714 
" clip-path="url(#p3ba1b08569)" style="fill: none; stroke: #4169e1; stroke-width: 1.5; stroke-linecap: square"/>
   </g>
   <g id="line2d_26">
    <path d="M 34.31 98.44 
L 35.517041 88.167772 
L 36.724083 90.360393 
L 37.931124 78.873397 
L 39.138166 66.068463 
L 40.345207 69.949168 
L 41.552248 6.213906 
L 42.75929 17.740506 
L 43.966331 25.116284 
L 45.173373 16.525703 
L 47.587456 28.699913 
L 48.794497 33.011261 
L 50.001538 30.951336 
L 51.20858 35.30323 
L 52.415621 38.728926 
L 53.622663 35.095571 
L 54.829704 29.677256 
L 56.036745 31.522642 
L 57.243787 29.750583 
L 58.450828 32.502594 
L 59.65787 29.848173 
L 60.864911 20.669824 
L 62.071953 23.9099 
L 63.278994 26.193545 
L 64.486035 27.412247 
L 65.693077 27.503109 
L 66.900118 28.686632 
L 68.10716 31.090106 
L 69.314201 29.913763 
L 70.521242 32.119475 
L 71.728284 30.014107 
L 72.935325 30.100145 
L 75.349408 33.915789 
L 76.556449 33.913789 
L 77.763491 35.375953 
L 78.970532 31.93239 
L 80.177574 32.229303 
L 82.591657 28.154526 
L 83.798698 27.971683 
L 85.005739 29.531159 
L 86.212781 30.694798 
L 87.419822 32.179891 
L 88.626864 33.265206 
L 89.833905 33.932917 
L 91.040946 35.185231 
L 92.247988 34.287321 
L 94.662071 36.588611 
L 95.869112 36.475832 
L 97.076153 32.559151 
L 98.283195 33.194076 
L 99.490236 34.281669 
L 100.697278 34.232867 
L 103.111361 36.353827 
L 104.318402 37.15499 
L 105.525443 37.083354 
L 106.732485 37.687898 
L 107.939526 38.645239 
L 109.146568 38.489034 
L 110.353609 38.965719 
L 111.56065 39.002276 
L 112.767692 37.762653 
L 113.974733 38.366158 
L 116.388816 38.757573 
L 117.595858 39.112171 
L 118.802899 39.917818 
L 120.00994 39.568901 
L 121.216982 39.383564 
L 122.424023 39.427095 
L 123.631065 40.18742 
L 124.838106 40.17451 
L 126.045147 39.880764 
L 127.252189 40.525998 
L 128.45923 40.67907 
L 129.666272 40.139198 
L 130.873313 40.543269 
L 133.287396 41.627467 
L 134.494437 41.214331 
L 135.701479 40.662054 
L 136.90852 40.510757 
L 138.115562 41.17524 
L 139.322603 41.46168 
L 140.529644 42.057622 
L 141.736686 41.967941 
L 142.943727 42.339079 
L 144.150769 41.093367 
L 146.564851 42.208292 
L 147.771893 40.744694 
L 148.978934 39.740626 
L 150.185976 38.566656 
L 151.393017 39.019278 
L 152.600058 38.78513 
L 153.8071 39.381487 
L 155.014141 39.633669 
L 156.221183 38.643064 
L 158.635266 39.675261 
L 159.842307 39.744365 
L 161.049348 40.295029 
L 168.291597 42.541468 
L 169.498638 42.709879 
L 170.70568 42.11246 
L 171.912721 38.579638 
L 173.119763 38.845538 
L 174.326804 35.978261 
L 175.533845 35.838282 
L 176.740887 36.351205 
L 177.947928 36.223534 
L 179.15497 36.737303 
L 180.362011 36.128638 
L 181.569052 36.480515 
L 182.776094 36.956988 
L 183.983135 36.747146 
L 185.190177 33.931272 
L 186.397218 34.42938 
L 187.604259 34.534716 
L 188.811301 33.678206 
L 191.225384 34.583504 
L 192.432425 32.028462 
L 193.639467 31.932344 
L 194.846508 32.374072 
L 196.053549 32.635249 
L 198.467632 33.468018 
L 199.674674 33.553405 
L 205.709881 35.44062 
L 206.916922 35.587067 
L 208.123963 35.963402 
L 209.331005 36.087268 
L 210.538046 36.335469 
L 211.745088 36.381062 
L 214.159171 37.150817 
L 215.366212 37.273571 
L 217.780295 37.279181 
L 218.987336 36.886156 
L 220.194378 37.128812 
L 222.60846 37.852206 
L 223.815502 37.328728 
L 226.229585 37.985342 
L 228.643668 38.720658 
L 229.850709 38.183558 
L 231.05775 38.476662 
L 232.264792 38.596641 
L 234.678875 39.201555 
L 235.885916 39.528297 
L 237.092957 39.564717 
L 238.299999 39.455485 
L 239.50704 33.296245 
L 240.714082 33.661117 
L 241.921123 33.765595 
L 243.128164 30.884509 
L 244.335206 30.844803 
L 245.542247 31.222971 
L 246.749289 31.305148 
L 247.95633 30.790457 
L 249.163372 31.048829 
L 250.370413 30.744304 
L 253.991537 31.701486 
L 255.198579 31.727781 
L 257.612661 32.420032 
L 258.819703 32.672871 
L 260.026744 32.786528 
L 261.233786 32.651967 
L 262.440827 32.929825 
L 263.647868 32.148234 
L 264.85491 32.01835 
L 266.061951 30.516225 
L 267.268993 30.342698 
L 268.476034 30.457916 
L 272.097158 31.247173 
L 273.3042 31.38665 
L 274.511241 31.692358 
L 275.718283 31.827823 
L 278.132365 32.354216 
L 280.546448 30.502332 
L 284.167573 31.332366 
L 285.374614 31.355236 
L 286.581655 31.550859 
L 287.788697 31.225661 
L 290.20278 31.59095 
L 291.409821 31.582427 
L 292.616862 31.891268 
L 293.823904 31.391654 
L 295.030945 29.639749 
L 296.237987 29.873275 
L 297.445028 29.901987 
L 302.273194 31.027679 
L 303.480235 30.762377 
L 305.894318 30.667009 
L 307.101359 30.959339 
L 308.308401 30.727391 
L 310.722484 31.152603 
L 311.929525 30.375017 
L 313.136566 30.646825 
L 314.343608 30.709377 
L 315.550649 30.456801 
L 317.964732 30.944754 
L 319.171773 30.889895 
L 320.378815 31.111127 
L 321.585856 31.144281 
L 322.792898 31.370728 
L 325.206981 30.959398 
L 326.414022 30.970195 
L 327.621063 30.312944 
L 331.242188 31.031878 
L 332.449229 30.958048 
L 333.65627 31.084699 
L 339.691478 32.375033 
L 340.898519 32.321389 
L 343.312602 32.717331 
L 344.519643 32.448857 
L 345.726685 32.570794 
L 346.933726 32.824121 
L 348.140767 32.140535 
L 350.55485 32.591175 
L 351.761892 32.252732 
L 352.968933 32.131658 
L 354.175974 31.345388 
L 357.797099 32.007227 
L 360.211182 32.44256 
L 361.418223 32.475708 
L 362.625264 32.710198 
L 363.832306 32.474135 
L 366.246389 32.874807 
L 368.660471 33.031056 
L 372.281596 33.562901 
L 373.488637 33.742798 
L 374.695678 33.284421 
L 377.109761 32.71636 
L 379.523844 32.814078 
L 380.730886 33.03369 
L 381.937927 32.744529 
L 383.144968 32.731386 
L 385.559051 33.141296 
L 386.766093 33.172272 
L 398.836507 34.560163 
L 402.457631 34.390206 
L 403.664672 34.588065 
L 406.078755 32.554246 
L 408.492838 32.55734 
L 409.699879 32.435078 
L 412.113962 32.785681 
L 413.321004 32.586756 
L 419.356211 33.357616 
L 420.563252 33.559625 
L 422.977335 33.429119 
L 425.391418 33.78751 
L 426.598459 33.708263 
L 429.012542 34.005758 
L 430.219583 33.770494 
L 431.426625 33.966451 
L 432.633666 31.845012 
L 433.840708 32.038543 
L 435.047749 32.01564 
L 436.254791 32.165839 
L 437.461832 29.279113 
L 439.875915 29.611658 
L 442.289998 29.868848 
L 443.497039 29.144658 
L 444.70408 29.167821 
L 445.911122 29.368153 
L 447.118163 28.890905 
L 449.532246 29.1755 
L 450.739288 28.954342 
L 451.946329 27.602474 
L 453.15337 27.552477 
L 454.360412 27.223504 
L 455.567453 26.459184 
L 459.188577 26.960845 
L 462.809702 27.370512 
L 464.016743 27.324543 
L 467.637867 27.717937 
L 470.05195 27.989628 
L 473.673074 28.182071 
L 474.880116 28.366537 
L 476.087157 28.384354 
L 477.294199 28.024417 
L 478.50124 27.480105 
L 480.915323 27.758377 
L 489.364613 28.688939 
L 490.571654 28.810751 
L 491.778696 28.132808 
L 494.192778 28.398233 
L 496.606861 28.743653 
L 500.227985 28.744185 
L 502.642068 29.006503 
L 503.84911 26.970799 
L 513.505441 27.950173 
L 514.712482 27.958383 
L 515.919524 28.125714 
L 515.919524 28.125714 
" clip-path="url(#p3ba1b08569)" style="fill: none; stroke-dasharray: 5.55,2.4; stroke-dashoffset: 0; stroke: #4169e1; stroke-width: 1.5"/>
   </g>
   <g id="line2d_27">
    <path d="M 34.31 17.088579 
L 35.517041 24.194375 
L 36.724083 25.5358 
L 37.931124 29.017393 
L 39.138166 24.38895 
L 40.345207 26.988989 
L 41.552248 21.251995 
L 42.75929 21.793141 
L 43.966331 23.043642 
L 45.173373 25.459636 
L 46.380414 26.927567 
L 47.587456 27.488673 
L 48.794497 27.023713 
L 50.001538 28.452405 
L 51.20858 28.429258 
L 52.415621 28.01856 
L 53.622663 29.360676 
L 54.829704 27.740807 
L 56.036745 28.316843 
L 58.450828 27.224831 
L 59.65787 26.123415 
L 60.864911 24.802001 
L 62.071953 24.806851 
L 63.278994 24.388727 
L 64.486035 25.027953 
L 65.693077 25.508252 
L 66.900118 24.90366 
L 68.10716 24.931447 
L 69.314201 24.408761 
L 70.521242 24.394783 
L 71.728284 25.076084 
L 74.142367 24.150679 
L 75.349408 24.516384 
L 76.556449 25.038669 
L 77.763491 24.999013 
L 78.970532 25.868 
L 80.177574 25.457554 
L 81.384615 25.97489 
L 82.591657 26.7139 
L 83.798698 27.119673 
L 85.005739 27.056482 
L 86.212781 26.86904 
L 88.626864 27.269385 
L 89.833905 27.005118 
L 91.040946 27.025803 
L 92.247988 26.561657 
L 93.455029 26.637649 
L 94.662071 26.583649 
L 95.869112 26.781905 
L 97.076153 27.380736 
L 98.283195 27.580466 
L 99.490236 27.30254 
L 100.697278 27.452043 
L 103.111361 27.333699 
L 104.318402 27.473806 
L 105.525443 27.157751 
L 107.939526 27.17636 
L 109.146568 26.892182 
L 111.56065 27.202977 
L 112.767692 27.555885 
L 113.974733 27.65553 
L 115.181775 27.368009 
L 116.388816 27.662377 
L 117.595858 27.811968 
L 118.802899 27.73675 
L 120.00994 28.024027 
L 121.216982 27.775537 
L 123.631065 27.567376 
L 126.045147 27.936381 
L 127.252189 27.706761 
L 130.873313 28.135869 
L 132.080354 28.063556 
L 133.287396 28.131097 
L 134.494437 27.855899 
L 136.90852 28.409173 
L 140.529644 28.57214 
L 141.736686 28.798285 
L 142.943727 28.864721 
L 144.150769 29.149516 
L 146.564851 29.200376 
L 147.771893 28.932181 
L 150.185976 29.483688 
L 151.393017 29.443637 
L 152.600058 29.643424 
L 153.8071 29.699109 
L 155.014141 29.519775 
L 156.221183 29.724233 
L 158.635266 29.822011 
L 159.842307 29.708863 
L 163.463431 29.720982 
L 164.670473 29.56862 
L 170.70568 30.158687 
L 171.912721 29.825544 
L 173.119763 29.848323 
L 174.326804 29.500177 
L 175.533845 29.668478 
L 176.740887 29.686262 
L 177.947928 29.854746 
L 179.15497 29.817793 
L 180.362011 30.04541 
L 183.983135 30.335245 
L 185.190177 30.055562 
L 187.604259 29.968938 
L 190.018342 29.690816 
L 191.225384 29.654048 
L 192.432425 29.387918 
L 193.639467 29.5429 
L 198.467632 29.422787 
L 200.881715 29.36071 
L 202.088756 29.313192 
L 204.502839 29.412796 
L 209.331005 29.285967 
L 210.538046 29.162531 
L 214.159171 29.402037 
L 216.573253 29.155663 
L 218.987336 29.421876 
L 228.643668 29.203051 
L 229.850709 29.365438 
L 231.05775 29.277381 
L 232.264792 29.327359 
L 233.471833 29.249601 
L 238.299999 29.344926 
L 239.50704 28.973086 
L 241.921123 29.120004 
L 243.128164 28.87793 
L 244.335206 28.970746 
L 246.749289 28.82035 
L 247.95633 28.966887 
L 251.577454 28.856748 
L 253.991537 28.761301 
L 256.40562 28.850899 
L 262.440827 28.851506 
L 266.061951 28.402644 
L 267.268993 28.502654 
L 273.3042 28.242018 
L 278.132365 28.320878 
L 281.75349 28.018631 
L 292.616862 27.843841 
L 296.237987 27.570903 
L 299.859111 27.696568 
L 302.273194 27.685067 
L 303.480235 27.799614 
L 304.687277 27.733521 
L 308.308401 27.910866 
L 310.722484 27.844028 
L 311.929525 27.967196 
L 314.343608 27.875416 
L 316.757691 27.807338 
L 320.378815 27.857992 
L 322.792898 27.74705 
L 330.035146 28.21336 
L 342.10556 28.309427 
L 348.140767 28.267968 
L 350.55485 28.296398 
L 352.968933 28.46085 
L 355.383016 28.343772 
L 360.211182 28.336096 
L 366.246389 28.534303 
L 368.660471 28.53209 
L 374.695678 28.68927 
L 378.316803 28.4672 
L 380.730886 28.450509 
L 384.35201 28.590703 
L 400.043548 28.66152 
L 401.25059 28.739793 
L 407.285797 28.490925 
L 412.113962 28.627701 
L 414.528045 28.503903 
L 419.356211 28.480327 
L 431.426625 28.523134 
L 432.633666 28.359869 
L 442.289998 28.246875 
L 444.70408 28.120551 
L 447.118163 28.223923 
L 453.15337 28.286178 
L 457.981536 28.112705 
L 460.395619 28.111999 
L 464.016743 28.019409 
L 477.294199 28.135173 
L 479.708281 28.000334 
L 490.571654 27.985497 
L 491.778696 28.094397 
L 496.606861 28.064451 
L 501.435027 28.210905 
L 502.642068 28.192819 
L 503.84911 28.041479 
L 508.677275 28.022871 
L 515.919524 28.125714 
L 515.919524 28.125714 
" clip-path="url(#p3ba1b08569)" style="fill: none; stroke: #ff8c00; stroke-width: 1.5; stroke-linecap: square"/>
   </g>
   <g id="line2d_28">
    <path d="M 34.31 98.44 
L 35.517041 85.775928 
L 36.724083 89.094653 
L 37.931124 82.310353 
L 39.138166 64.044237 
L 40.345207 61.299169 
L 41.552248 17.075037 
L 42.75929 26.731525 
L 43.966331 31.561474 
L 45.173373 25.073363 
L 46.380414 26.338516 
L 47.587456 31.478349 
L 48.794497 35.978575 
L 50.001538 33.784791 
L 51.20858 38.093257 
L 52.415621 41.230353 
L 53.622663 37.367126 
L 54.829704 29.571951 
L 56.036745 31.69856 
L 58.450828 35.213467 
L 59.65787 31.697852 
L 60.864911 24.964753 
L 62.071953 28.026086 
L 63.278994 29.790271 
L 64.486035 29.868538 
L 65.693077 30.903886 
L 66.900118 30.840536 
L 68.10716 33.16613 
L 69.314201 33.354789 
L 70.521242 35.452842 
L 71.728284 33.812179 
L 72.935325 33.599248 
L 74.142367 34.146915 
L 75.349408 34.843378 
L 76.556449 34.215358 
L 77.763491 35.93696 
L 78.970532 30.574063 
L 80.177574 30.708591 
L 81.384615 29.783945 
L 82.591657 25.979386 
L 83.798698 26.011481 
L 85.005739 27.653801 
L 87.419822 30.171235 
L 88.626864 30.96448 
L 89.833905 31.594398 
L 91.040946 32.981971 
L 92.247988 31.724283 
L 94.662071 34.234439 
L 95.869112 34.966393 
L 97.076153 31.487088 
L 98.283195 32.196668 
L 99.490236 32.354924 
L 100.697278 33.226686 
L 103.111361 35.377046 
L 104.318402 36.160351 
L 105.525443 35.720174 
L 107.939526 37.674183 
L 109.146568 37.38292 
L 111.56065 38.496283 
L 112.767692 37.374113 
L 113.974733 38.12118 
L 116.388816 37.022621 
L 117.595858 37.512744 
L 118.802899 38.271542 
L 120.00994 37.63759 
L 121.216982 37.355439 
L 123.631065 38.581204 
L 124.838106 38.507419 
L 126.045147 38.827727 
L 127.252189 38.573728 
L 128.45923 38.843406 
L 129.666272 38.458433 
L 132.080354 39.794424 
L 133.287396 40.407175 
L 134.494437 39.52146 
L 135.701479 38.317238 
L 136.90852 37.649837 
L 138.115562 38.282526 
L 139.322603 38.63891 
L 140.529644 39.305979 
L 141.736686 38.82143 
L 142.943727 39.376947 
L 144.150769 38.167733 
L 146.564851 39.341271 
L 147.771893 38.267556 
L 150.185976 35.884569 
L 151.393017 36.483865 
L 152.600058 36.12859 
L 153.8071 36.67471 
L 155.014141 36.479624 
L 156.221183 36.028132 
L 158.635266 37.103839 
L 159.842307 37.354052 
L 163.463431 39.013369 
L 164.670473 38.929749 
L 165.877514 39.075228 
L 167.084555 39.589216 
L 168.291597 39.515425 
L 169.498638 39.845206 
L 170.70568 39.073452 
L 171.912721 36.416357 
L 173.119763 36.936077 
L 174.326804 33.935373 
L 175.533845 33.650816 
L 176.740887 34.185902 
L 177.947928 33.874108 
L 179.15497 34.366612 
L 180.362011 33.319475 
L 182.776094 34.244454 
L 183.983135 33.030967 
L 185.190177 31.097695 
L 186.397218 31.62795 
L 187.604259 31.9109 
L 188.811301 31.536052 
L 190.018342 31.64797 
L 191.225384 32.113753 
L 192.432425 30.289173 
L 193.639467 30.006364 
L 194.846508 30.516527 
L 196.053549 30.740724 
L 198.467632 31.706191 
L 199.674674 31.973261 
L 202.088756 32.833779 
L 203.295798 33.032286 
L 205.709881 33.924803 
L 206.916922 34.096816 
L 209.331005 34.897133 
L 211.745088 34.732522 
L 214.159171 35.281675 
L 215.366212 35.187173 
L 216.573253 34.966919 
L 217.780295 34.867308 
L 218.987336 34.416169 
L 222.60846 35.48295 
L 223.815502 35.010134 
L 228.643668 36.380198 
L 229.850709 35.689505 
L 231.05775 35.755124 
L 232.264792 36.032289 
L 233.471833 36.158021 
L 238.299999 37.380693 
L 239.50704 31.842396 
L 240.714082 32.09539 
L 241.921123 32.121802 
L 243.128164 29.960275 
L 244.335206 29.975629 
L 245.542247 30.217351 
L 246.749289 30.225348 
L 247.95633 29.655308 
L 249.163372 30.032612 
L 250.370413 30.031712 
L 251.577454 30.408278 
L 252.784496 30.437308 
L 253.991537 30.805762 
L 255.198579 30.737795 
L 257.612661 31.456253 
L 258.819703 31.676398 
L 261.233786 31.573668 
L 262.440827 31.768998 
L 263.647868 30.882219 
L 264.85491 30.537312 
L 266.061951 29.542553 
L 267.268993 29.413532 
L 269.683076 29.752364 
L 270.890117 29.428563 
L 274.511241 30.414784 
L 276.925324 31.005532 
L 278.132365 31.333031 
L 279.339407 30.763844 
L 280.546448 30.001997 
L 284.167573 30.883408 
L 285.374614 30.87794 
L 286.581655 31.162576 
L 287.788697 30.657339 
L 290.20278 31.191051 
L 291.409821 31.085693 
L 292.616862 31.393568 
L 293.823904 31.229011 
L 295.030945 30.667248 
L 296.237987 30.829511 
L 297.445028 30.815704 
L 302.273194 31.959127 
L 303.480235 31.522045 
L 304.687277 31.574037 
L 305.894318 31.421756 
L 307.101359 31.705289 
L 309.515442 31.771725 
L 310.722484 32.059044 
L 311.929525 31.471285 
L 313.136566 31.748957 
L 315.550649 31.5992 
L 317.964732 32.081188 
L 319.171773 32.021885 
L 322.792898 32.220993 
L 326.414022 31.61136 
L 327.621063 30.859333 
L 328.828105 31.124141 
L 330.035146 31.201706 
L 331.242188 31.473796 
L 332.449229 31.516375 
L 334.863312 31.970528 
L 339.691478 32.979337 
L 340.898519 32.901505 
L 343.312602 33.344296 
L 344.519643 33.111047 
L 346.933726 33.490742 
L 348.140767 32.97099 
L 350.55485 33.344299 
L 351.761892 33.029572 
L 352.968933 32.93118 
L 354.175974 32.430815 
L 356.590057 32.893454 
L 362.625264 33.669139 
L 363.832306 33.28964 
L 366.246389 33.712306 
L 369.867513 34.074812 
L 373.488637 34.667506 
L 374.695678 34.312231 
L 375.90272 33.834889 
L 377.109761 33.871244 
L 378.316803 33.738212 
L 380.730886 34.137559 
L 383.144968 33.766889 
L 387.973134 34.57163 
L 398.836507 35.901229 
L 401.25059 35.411033 
L 402.457631 35.366408 
L 403.664672 35.500772 
L 404.871714 33.735937 
L 406.078755 32.911288 
L 408.492838 32.911135 
L 409.699879 32.617813 
L 412.113962 33.029709 
L 413.321004 32.503678 
L 415.735087 32.796237 
L 418.149169 32.975277 
L 420.563252 33.365071 
L 422.977335 33.396708 
L 425.391418 33.76635 
L 426.598459 33.628701 
L 427.805501 33.771299 
L 430.219583 33.551826 
L 431.426625 33.744048 
L 432.633666 31.733289 
L 433.840708 31.933911 
L 435.047749 31.813873 
L 436.254791 31.989537 
L 437.461832 30.11528 
L 442.289998 30.85445 
L 443.497039 30.360794 
L 445.911122 30.648229 
L 447.118163 29.927974 
L 449.532246 30.189024 
L 450.739288 29.789178 
L 451.946329 28.765823 
L 454.360412 28.758365 
L 455.567453 27.763159 
L 460.395619 28.383334 
L 461.60266 28.244333 
L 462.809702 28.342553 
L 464.016743 28.168824 
L 466.430826 28.539501 
L 467.637867 28.517855 
L 468.844909 28.68954 
L 471.258992 28.797641 
L 472.466033 28.977258 
L 473.673074 28.870419 
L 474.880116 29.05051 
L 476.087157 29.077609 
L 477.294199 28.701303 
L 478.50124 27.860015 
L 480.915323 28.16157 
L 486.95053 28.997124 
L 490.571654 29.291686 
L 491.778696 28.346356 
L 494.192778 28.607363 
L 496.606861 28.875235 
L 499.020944 28.74748 
L 502.642068 29.146735 
L 503.84911 27.089807 
L 507.470234 27.580871 
L 508.677275 27.523074 
L 512.2984 28.026863 
L 514.712482 27.96239 
L 515.919524 28.125714 
L 515.919524 28.125714 
" clip-path="url(#p3ba1b08569)" style="fill: none; stroke-dasharray: 5.55,2.4; stroke-dashoffset: 0; stroke: #ff8c00; stroke-width: 1.5"/>
   </g>
   <g id="patch_3">
    <path d="M 34.31 98.44 
L 34.31 0 
" style="fill: none; stroke: #000000; stroke-width: 0.8; stroke-linejoin: miter; stroke-linecap: square"/>
   </g>
   <g id="patch_4">
    <path d="M 540 98.44 
L 540 0 
" style="fill: none; stroke: #000000; stroke-width: 0.8; stroke-linejoin: miter; stroke-linecap: square"/>
   </g>
   <g id="patch_5">
    <path d="M 34.31 98.44 
L 540 98.44 
" style="fill: none; stroke: #000000; stroke-width: 0.8; stroke-linejoin: miter; stroke-linecap: square"/>
   </g>
   <g id="patch_6">
    <path d="M 34.31 0 
L 540 0 
" style="fill: none; stroke: #000000; stroke-width: 0.8; stroke-linejoin: miter; stroke-linecap: square"/>
   </g>
  </g>
 </g>
 <defs>
  <clipPath id="p3ba1b08569">
   <rect x="34.31" y="0" width="505.69" height="98.44"/>
  </clipPath>
 </defs>
</svg>
