<?xml version="1.0" encoding="utf-8" standalone="no"?>
<!DOCTYPE svg PUBLIC "-//W3C//DTD SVG 1.1//EN"
  "http://www.w3.org/Graphics/SVG/1.1/DTD/svg11.dtd">
<svg xmlns:xlink="http://www.w3.org/1999/xlink" width="540pt" height="129.6pt" viewBox="0 0 540 129.6" xmlns="http://www.w3.org/2000/svg" version="1.1">
 <metadata>
  <rdf:RDF xmlns:dc="http://purl.org/dc/elements/1.1/" xmlns:cc="http://creativecommons.org/ns#" xmlns:rdf="http://www.w3.org/1999/02/22-rdf-syntax-ns#">
   <cc:Work>
    <dc:type rdf:resource="http://purl.org/dc/dcmitype/StillImage"/>
    <dc:date>2025-03-23T18:00:56.514304</dc:date>
    <dc:format>image/svg+xml</dc:format>
    <dc:creator>
     <cc:Agent>
      <dc:title>Matplotlib v3.8.3, https://matplotlib.org/</dc:title>
     </cc:Agent>
    </dc:creator>
   </cc:Work>
  </rdf:RDF>
 </metadata>
 <defs>
  <style type="text/css">*{stroke-linejoin: round; stroke-linecap: butt}</style>
 </defs>
 <g id="figure_1">
  <g id="patch_1">
   <path d="M 0 129.6 
L 540 129.6 
L 540 0 
L 0 0 
z
" style="fill: #ffffff"/>
  </g>
  <g id="axes_1">
   <g id="patch_2">
    <path d="M 35.03 97 
L 540 97 
L 540 0 
L 35.03 0 
z
" style="fill: #ffffff"/>
   </g>
   <g id="matplotlib.axis_1">
    <g id="xtick_1">
     <g id="line2d_1">
      <path d="M 35.03 97 
L 35.03 0 
" clip-path="url(#p105edb3286)" style="fill: none; stroke: #b0b0b0; stroke-width: 0.8; stroke-linecap: square"/>
     </g>
     <g id="line2d_2">
      <defs>
       <path id="m37e4807d54" d="M 0 0 
L 0 3.5 
" style="stroke: #000000; stroke-width: 0.8"/>
      </defs>
      <g>
       <use xlink:href="#m37e4807d54" x="35.03" y="97" style="stroke: #000000; stroke-width: 0.8"/>
      </g>
     </g>
     <g id="text_1">
      <text style="font: 10px 'Times New Roman'; text-anchor: middle" x="35.03" y="110.94375" transform="rotate(-0 35.03 110.94375)">0</text>
     </g>
    </g>
    <g id="xtick_2">
     <g id="line2d_3">
      <path d="M 95.296142 97 
L 95.296142 0 
" clip-path="url(#p105edb3286)" style="fill: none; stroke: #b0b0b0; stroke-width: 0.8; stroke-linecap: square"/>
     </g>
     <g id="line2d_4">
      <g>
       <use xlink:href="#m37e4807d54" x="95.296142" y="97" style="stroke: #000000; stroke-width: 0.8"/>
      </g>
     </g>
     <g id="text_2">
      <text style="font: 10px 'Times New Roman'; text-anchor: middle" x="95.296142" y="110.94375" transform="rotate(-0 95.296142 110.94375)">50</text>
     </g>
    </g>
    <g id="xtick_3">
     <g id="line2d_5">
      <path d="M 155.562283 97 
L 155.562283 0 
" clip-path="url(#p105edb3286)" style="fill: none; stroke: #b0b0b0; stroke-width: 0.8; stroke-linecap: square"/>
     </g>
     <g id="line2d_6">
      <g>
       <use xlink:href="#m37e4807d54" x="155.562283" y="97" style="stroke: #000000; stroke-width: 0.8"/>
      </g>
     </g>
     <g id="text_3">
      <text style="font: 10px 'Times New Roman'; text-anchor: middle" x="155.562283" y="110.94375" transform="rotate(-0 155.562283 110.94375)">100</text>
     </g>
    </g>
    <g id="xtick_4">
     <g id="line2d_7">
      <path d="M 215.828425 97 
L 215.828425 0 
" clip-path="url(#p105edb3286)" style="fill: none; stroke: #b0b0b0; stroke-width: 0.8; stroke-linecap: square"/>
     </g>
     <g id="line2d_8">
      <g>
       <use xlink:href="#m37e4807d54" x="215.828425" y="97" style="stroke: #000000; stroke-width: 0.8"/>
      </g>
     </g>
     <g id="text_4">
      <text style="font: 10px 'Times New Roman'; text-anchor: middle" x="215.828425" y="110.94375" transform="rotate(-0 215.828425 110.94375)">150</text>
     </g>
    </g>
    <g id="xtick_5">
     <g id="line2d_9">
      <path d="M 276.094566 97 
L 276.094566 0 
" clip-path="url(#p105edb3286)" style="fill: none; stroke: #b0b0b0; stroke-width: 0.8; stroke-linecap: square"/>
     </g>
     <g id="line2d_10">
      <g>
       <use xlink:href="#m37e4807d54" x="276.094566" y="97" style="stroke: #000000; stroke-width: 0.8"/>
      </g>
     </g>
     <g id="text_5">
      <text style="font: 10px 'Times New Roman'; text-anchor: middle" x="276.094566" y="110.94375" transform="rotate(-0 276.094566 110.94375)">200</text>
     </g>
    </g>
    <g id="xtick_6">
     <g id="line2d_11">
      <path d="M 336.360708 97 
L 336.360708 0 
" clip-path="url(#p105edb3286)" style="fill: none; stroke: #b0b0b0; stroke-width: 0.8; stroke-linecap: square"/>
     </g>
     <g id="line2d_12">
      <g>
       <use xlink:href="#m37e4807d54" x="336.360708" y="97" style="stroke: #000000; stroke-width: 0.8"/>
      </g>
     </g>
     <g id="text_6">
      <text style="font: 10px 'Times New Roman'; text-anchor: middle" x="336.360708" y="110.94375" transform="rotate(-0 336.360708 110.94375)">250</text>
     </g>
    </g>
    <g id="xtick_7">
     <g id="line2d_13">
      <path d="M 396.626849 97 
L 396.626849 0 
" clip-path="url(#p105edb3286)" style="fill: none; stroke: #b0b0b0; stroke-width: 0.8; stroke-linecap: square"/>
     </g>
     <g id="line2d_14">
      <g>
       <use xlink:href="#m37e4807d54" x="396.626849" y="97" style="stroke: #000000; stroke-width: 0.8"/>
      </g>
     </g>
     <g id="text_7">
      <text style="font: 10px 'Times New Roman'; text-anchor: middle" x="396.626849" y="110.94375" transform="rotate(-0 396.626849 110.94375)">300</text>
     </g>
    </g>
    <g id="xtick_8">
     <g id="line2d_15">
      <path d="M 456.892991 97 
L 456.892991 0 
" clip-path="url(#p105edb3286)" style="fill: none; stroke: #b0b0b0; stroke-width: 0.8; stroke-linecap: square"/>
     </g>
     <g id="line2d_16">
      <g>
       <use xlink:href="#m37e4807d54" x="456.892991" y="97" style="stroke: #000000; stroke-width: 0.8"/>
      </g>
     </g>
     <g id="text_8">
      <text style="font: 10px 'Times New Roman'; text-anchor: middle" x="456.892991" y="110.94375" transform="rotate(-0 456.892991 110.94375)">350</text>
     </g>
    </g>
    <g id="xtick_9">
     <g id="line2d_17">
      <path d="M 517.159132 97 
L 517.159132 0 
" clip-path="url(#p105edb3286)" style="fill: none; stroke: #b0b0b0; stroke-width: 0.8; stroke-linecap: square"/>
     </g>
     <g id="line2d_18">
      <g>
       <use xlink:href="#m37e4807d54" x="517.159132" y="97" style="stroke: #000000; stroke-width: 0.8"/>
      </g>
     </g>
     <g id="text_9">
      <text style="font: 10px 'Times New Roman'; text-anchor: middle" x="517.159132" y="110.94375" transform="rotate(-0 517.159132 110.94375)">400</text>
     </g>
    </g>
    <g id="text_10">
     <text style="font: 12px 'Times New Roman'; text-anchor: middle" x="287.515" y="125.415312" transform="rotate(-0 287.515 125.415312)">Simulation Run</text>
    </g>
   </g>
   <g id="matplotlib.axis_2">
    <g id="ytick_1">
     <g id="line2d_19">
      <path d="M 35.03 97 
L 540 97 
" clip-path="url(#p105edb3286)" style="fill: none; stroke: #b0b0b0; stroke-width: 0.8; stroke-linecap: square"/>
     </g>
     <g id="line2d_20">
      <defs>
       <path id="ma66341123e" d="M 0 0 
L -3.5 0 
" style="stroke: #000000; stroke-width: 0.8"/>
      </defs>
      <g>
       <use xlink:href="#ma66341123e" x="35.03" y="97" style="stroke: #000000; stroke-width: 0.8"/>
      </g>
     </g>
     <g id="text_11">
      <text style="font: 10px 'Times New Roman'; text-anchor: end" x="28.03" y="100.471875" transform="rotate(-0 28.03 100.471875)">0.0</text>
     </g>
    </g>
    <g id="ytick_2">
     <g id="line2d_21">
      <path d="M 35.03 56.583333 
L 540 56.583333 
" clip-path="url(#p105edb3286)" style="fill: none; stroke: #b0b0b0; stroke-width: 0.8; stroke-linecap: square"/>
     </g>
     <g id="line2d_22">
      <g>
       <use xlink:href="#ma66341123e" x="35.03" y="56.583333" style="stroke: #000000; stroke-width: 0.8"/>
      </g>
     </g>
     <g id="text_12">
      <text style="font: 10px 'Times New Roman'; text-anchor: end" x="28.03" y="60.055208" transform="rotate(-0 28.03 60.055208)">0.5</text>
     </g>
    </g>
    <g id="ytick_3">
     <g id="line2d_23">
      <path d="M 35.03 16.166667 
L 540 16.166667 
" clip-path="url(#p105edb3286)" style="fill: none; stroke: #b0b0b0; stroke-width: 0.8; stroke-linecap: square"/>
     </g>
     <g id="line2d_24">
      <g>
       <use xlink:href="#ma66341123e" x="35.03" y="16.166667" style="stroke: #000000; stroke-width: 0.8"/>
      </g>
     </g>
     <g id="text_13">
      <text style="font: 10px 'Times New Roman'; text-anchor: end" x="28.03" y="19.638542" transform="rotate(-0 28.03 19.638542)">1.0</text>
     </g>
    </g>
    <g id="text_14">
     <text style="font: 12px 'Times New Roman'; text-anchor: middle" x="8.963125" y="48.5" transform="rotate(-90 8.963125 48.5)">Normalized Value</text>
    </g>
   </g>
   <g id="line2d_25">
    <path d="M 35.03 37.741631 
L 36.235323 21.900576 
L 37.440646 25.146147 
L 38.645968 25.451292 
L 39.851291 24.910331 
L 41.056614 23.188797 
L 42.261937 25.19509 
L 43.46726 28.944541 
L 44.672583 26.326066 
L 45.877905 27.454795 
L 47.083228 26.91765 
L 48.288551 28.334812 
L 49.493874 30.878464 
L 50.699197 28.087188 
L 51.90452 25.910726 
L 53.109842 24.054121 
L 54.315165 22.415337 
L 55.520488 23.059086 
L 56.725811 21.54507 
L 57.931134 20.911275 
L 59.136457 19.402938 
L 60.341779 19.883908 
L 61.547102 20.811382 
L 62.752425 21.452402 
L 63.957748 21.162309 
L 65.163071 21.063684 
L 66.368394 19.06496 
L 67.573716 19.090151 
L 68.779039 17.989393 
L 69.984362 17.143364 
L 71.189685 16.927273 
L 72.395008 16.506929 
L 73.600331 17.338504 
L 74.805653 17.223498 
L 76.010976 17.288395 
L 77.216299 17.159221 
L 78.421622 16.757889 
L 80.832268 16.378477 
L 82.03759 16.573222 
L 83.242913 16.392127 
L 84.448236 16.555381 
L 85.653559 14.623522 
L 86.858882 15.233686 
L 88.064205 15.169995 
L 89.269527 15.345328 
L 90.47485 15.802546 
L 91.680173 15.300237 
L 92.885496 15.570917 
L 95.296142 15.311517 
L 96.501464 15.063756 
L 97.706787 14.932609 
L 100.117433 15.004446 
L 101.322756 14.428411 
L 102.528079 14.612827 
L 103.733401 15.08935 
L 109.760016 15.059623 
L 110.965338 14.908731 
L 113.375984 15.608207 
L 115.78663 15.475223 
L 116.991953 15.694857 
L 118.197275 16.166565 
L 119.402598 16.213314 
L 120.607921 16.125879 
L 121.813244 16.28573 
L 123.018567 16.737984 
L 124.223889 16.671167 
L 125.429212 16.863126 
L 127.839858 17.705075 
L 129.045181 17.85357 
L 131.455826 18.462667 
L 132.661149 18.077852 
L 135.071795 18.225589 
L 136.277118 18.169201 
L 141.098409 18.70523 
L 142.303732 18.121745 
L 144.714378 18.343035 
L 145.9197 18.160639 
L 147.125023 17.779741 
L 148.330346 17.713235 
L 153.151637 18.208838 
L 154.35696 18.250119 
L 155.562283 18.49683 
L 156.767606 18.499043 
L 157.972929 18.385801 
L 159.178252 18.609227 
L 160.383574 18.63106 
L 161.588897 18.792881 
L 162.79422 18.520191 
L 165.204866 18.428022 
L 166.410189 18.607109 
L 167.615511 18.236568 
L 168.820834 18.144879 
L 170.026157 18.23139 
L 173.642126 17.936523 
L 174.847448 17.231109 
L 178.463417 17.686283 
L 179.66874 17.180566 
L 180.874063 17.052115 
L 182.079385 17.330535 
L 183.284708 17.173716 
L 185.695354 17.455059 
L 186.900677 17.75216 
L 188.106 17.880975 
L 189.311322 18.125994 
L 190.516645 17.791374 
L 191.721968 17.881343 
L 194.132614 18.234345 
L 196.543259 18.324802 
L 197.748582 18.262234 
L 198.953905 18.354398 
L 200.159228 18.2971 
L 204.980519 18.540248 
L 206.185842 18.461963 
L 212.212456 18.698867 
L 214.623102 18.482428 
L 215.828425 17.94599 
L 217.033747 17.703567 
L 219.444393 17.594084 
L 221.855039 17.702291 
L 223.060362 17.403923 
L 224.265684 17.579389 
L 225.471007 17.329424 
L 227.881653 17.329884 
L 229.086976 17.155688 
L 230.292299 17.20491 
L 232.702944 17.424582 
L 233.908267 17.553899 
L 235.11359 17.518274 
L 236.318913 17.67642 
L 237.524236 17.507354 
L 238.729558 17.573031 
L 242.345527 17.210011 
L 243.55085 17.277358 
L 244.756173 17.230944 
L 245.961495 17.318898 
L 247.166818 17.235451 
L 248.372141 17.339747 
L 249.577464 17.570795 
L 250.782787 17.457258 
L 251.98811 17.681578 
L 255.604078 17.603484 
L 256.809401 17.826207 
L 258.014724 17.680115 
L 260.425369 17.781906 
L 261.630692 17.987336 
L 262.836015 18.068057 
L 268.862629 17.916239 
L 273.683921 18.171728 
L 274.889243 17.943559 
L 279.710535 17.977671 
L 282.12118 17.871241 
L 283.326503 17.600348 
L 285.737149 17.83433 
L 286.942472 17.701865 
L 288.147794 17.684645 
L 289.353117 17.471153 
L 294.174409 17.714026 
L 295.379731 17.585067 
L 296.585054 17.687548 
L 312.254251 17.393073 
L 313.459574 17.509691 
L 314.664897 17.493185 
L 315.87022 17.328692 
L 317.075542 17.292313 
L 318.280865 17.054543 
L 320.691511 17.299603 
L 321.896834 17.227596 
L 323.102157 17.040798 
L 325.512802 16.988941 
L 326.718125 17.057247 
L 327.923448 17.253369 
L 331.539416 17.141699 
L 333.950062 17.093576 
L 336.360708 17.161041 
L 337.566031 17.053744 
L 339.976676 17.112064 
L 343.592645 17.127959 
L 353.235227 17.407952 
L 355.645873 17.56024 
L 356.851196 17.351182 
L 366.493778 17.223938 
L 374.931038 16.804727 
L 376.136361 16.949412 
L 377.341684 16.857984 
L 378.547007 16.931426 
L 380.957652 16.88054 
L 382.162975 16.927638 
L 384.573621 16.63984 
L 389.394912 16.48303 
L 390.600235 16.362109 
L 391.805558 16.398749 
L 393.010881 16.295376 
L 394.216204 16.352742 
L 396.626849 16.286895 
L 400.242818 16.406711 
L 401.448141 16.31585 
L 408.680078 16.471707 
L 409.8854 16.500036 
L 411.090723 16.296313 
L 424.349274 16.105522 
L 425.554597 15.677306 
L 429.170566 15.613311 
L 433.991857 15.656102 
L 436.402503 15.394412 
L 437.607826 15.415985 
L 438.813148 15.324634 
L 446.045085 15.507043 
L 448.455731 15.475759 
L 450.866377 15.631359 
L 464.124928 15.692209 
L 466.535573 15.624036 
L 470.151542 15.71354 
L 474.972833 15.73231 
L 479.794125 15.91148 
L 483.410093 16.014079 
L 487.026062 15.99647 
L 488.231384 15.89359 
L 502.695258 16.083526 
L 508.721873 16.035235 
L 512.337841 16.114157 
L 515.95381 16.166667 
L 515.95381 16.166667 
" clip-path="url(#p105edb3286)" style="fill: none; stroke: #4169e1; stroke-width: 1.5; stroke-linecap: square"/>
   </g>
   <g id="line2d_26">
    <path d="M 35.03 97 
L 36.235323 58.134231 
L 37.440646 67.826531 
L 38.645968 75.076634 
L 39.851291 79.280009 
L 41.056614 79.938251 
L 42.261937 78.635064 
L 43.46726 65.689017 
L 44.672583 60.672575 
L 45.877905 62.529407 
L 47.083228 65.216227 
L 48.288551 64.443267 
L 49.493874 54.922334 
L 50.699197 42.240593 
L 51.90452 35.619824 
L 53.109842 31.447986 
L 54.315165 28.648772 
L 55.520488 31.354921 
L 56.725811 28.419463 
L 57.931134 30.666398 
L 59.136457 26.777791 
L 60.341779 29.2173 
L 61.547102 29.23331 
L 62.752425 30.593159 
L 65.163071 35.362933 
L 66.368394 21.558666 
L 67.573716 24.250346 
L 68.779039 21.504345 
L 69.984362 20.805964 
L 71.189685 23.04687 
L 72.395008 24.509563 
L 73.600331 23.278942 
L 76.010976 27.403725 
L 77.216299 29.246504 
L 78.421622 30.17961 
L 80.832268 33.192215 
L 84.448236 37.164157 
L 85.653559 14.278445 
L 86.858882 13.678999 
L 88.064205 15.502932 
L 89.269527 17.060348 
L 90.47485 17.271822 
L 91.680173 17.096126 
L 92.885496 18.182123 
L 94.090819 19.682122 
L 95.296142 21.00215 
L 96.501464 21.978767 
L 100.117433 25.900147 
L 101.322756 24.34322 
L 102.528079 25.322928 
L 103.733401 24.554074 
L 106.144047 26.940556 
L 107.34937 27.862402 
L 109.760016 29.979179 
L 110.965338 30.804215 
L 112.170661 30.850472 
L 113.375984 30.350343 
L 115.78663 32.192475 
L 116.991953 32.623664 
L 118.197275 31.165414 
L 120.607921 32.88672 
L 121.813244 33.480038 
L 123.018567 32.025891 
L 124.223889 32.841045 
L 125.429212 33.257211 
L 126.634535 31.43557 
L 127.839858 30.665316 
L 129.045181 31.238607 
L 130.250504 31.140986 
L 131.455826 30.564013 
L 132.661149 29.516457 
L 136.277118 31.716062 
L 137.482441 32.204456 
L 138.687763 32.843149 
L 141.098409 33.663339 
L 142.303732 29.674102 
L 143.509055 30.367237 
L 145.9197 30.953882 
L 147.125023 29.566732 
L 148.330346 30.21216 
L 149.535669 30.608077 
L 150.740992 31.181606 
L 151.946315 31.272704 
L 154.35696 32.487663 
L 155.562283 32.183692 
L 156.767606 32.819069 
L 157.972929 33.239596 
L 159.178252 33.056321 
L 160.383574 33.657631 
L 161.588897 33.829348 
L 162.79422 33.198935 
L 163.999543 33.654644 
L 165.204866 34.235734 
L 166.410189 34.264877 
L 167.615511 32.49087 
L 171.23148 33.754224 
L 172.436803 33.751067 
L 173.642126 34.288315 
L 174.847448 25.884152 
L 176.052771 26.110132 
L 177.258094 26.050318 
L 178.463417 26.369009 
L 179.66874 22.199427 
L 180.874063 22.503333 
L 182.079385 21.644263 
L 183.284708 21.78348 
L 184.490031 22.122709 
L 185.695354 22.19352 
L 186.900677 21.05997 
L 188.106 21.326862 
L 189.311322 20.723307 
L 190.516645 19.072908 
L 191.721968 19.504792 
L 192.927291 19.003696 
L 194.132614 19.288758 
L 195.337937 19.71392 
L 197.748582 20.768333 
L 200.159228 21.625854 
L 207.391165 24.04191 
L 208.596488 23.85356 
L 211.007133 24.63498 
L 213.417779 24.624771 
L 214.623102 25.008607 
L 215.828425 18.799934 
L 217.033747 17.939983 
L 218.23907 18.244577 
L 220.649716 19.198552 
L 221.855039 19.613087 
L 223.060362 17.955056 
L 224.265684 17.706676 
L 225.471007 16.676346 
L 227.881653 17.673969 
L 229.086976 17.406972 
L 230.292299 17.834483 
L 231.497621 17.666493 
L 232.702944 18.058504 
L 233.908267 18.106693 
L 235.11359 18.546477 
L 237.524236 18.088107 
L 238.729558 18.43939 
L 239.934881 18.526907 
L 241.140204 17.781624 
L 243.55085 18.544904 
L 244.756173 18.935161 
L 248.372141 19.556583 
L 249.577464 18.517522 
L 250.782787 18.596162 
L 251.98811 17.626501 
L 255.604078 18.854846 
L 256.809401 17.863591 
L 258.014724 17.677519 
L 260.425369 18.364155 
L 261.630692 17.551408 
L 262.836015 17.778823 
L 265.246661 18.419918 
L 266.451984 18.407361 
L 268.862629 19.125569 
L 272.478598 19.741288 
L 273.683921 20.116693 
L 274.889243 18.896514 
L 280.915858 20.758943 
L 282.12118 20.876735 
L 283.326503 18.903147 
L 285.737149 18.769573 
L 286.942472 18.574098 
L 288.147794 18.93614 
L 289.353117 17.814842 
L 292.969086 18.64892 
L 294.174409 18.712148 
L 295.379731 18.51656 
L 296.585054 18.523595 
L 298.9957 19.18819 
L 300.201023 19.345751 
L 303.816991 20.330214 
L 305.022314 20.515612 
L 306.227637 20.852403 
L 307.43296 20.931506 
L 308.638283 21.165924 
L 309.843605 21.047762 
L 312.254251 21.563339 
L 313.459574 21.401927 
L 314.664897 21.716593 
L 315.87022 21.061863 
L 317.075542 21.337041 
L 318.280865 19.599955 
L 319.486188 19.230026 
L 320.691511 19.13639 
L 321.896834 19.27105 
L 323.102157 18.303286 
L 326.718125 19.011783 
L 327.923448 17.883779 
L 330.334094 18.518888 
L 331.539416 18.480361 
L 332.744739 18.649998 
L 336.360708 19.488412 
L 337.566031 19.348443 
L 338.771353 19.506574 
L 342.387322 20.327795 
L 343.592645 20.381767 
L 347.208613 21.228765 
L 348.413936 21.272803 
L 350.824582 21.835076 
L 352.029905 21.895777 
L 353.235227 21.83186 
L 354.44055 21.482318 
L 355.645873 21.732427 
L 356.851196 20.205922 
L 358.056519 20.490541 
L 359.261842 20.473195 
L 360.467164 20.743322 
L 361.672487 20.78544 
L 362.87781 21.02966 
L 364.083133 20.993425 
L 368.904424 21.870756 
L 370.109747 21.415278 
L 371.31507 21.683891 
L 372.520393 20.437456 
L 373.725715 20.292058 
L 374.931038 19.78462 
L 376.136361 19.138951 
L 377.341684 19.044463 
L 378.547007 19.07895 
L 382.162975 19.689338 
L 384.573621 18.365369 
L 388.189589 19.141506 
L 389.394912 18.603292 
L 390.600235 18.200069 
L 391.805558 18.403842 
L 393.010881 18.176044 
L 394.216204 18.287783 
L 395.421526 18.230584 
L 396.626849 18.478493 
L 399.037495 18.807161 
L 400.242818 19.013672 
L 401.448141 18.88065 
L 402.653463 19.047146 
L 403.858786 18.867017 
L 405.064109 18.91241 
L 406.269432 18.742401 
L 407.474755 18.749082 
L 409.8854 19.177382 
L 411.090723 17.420459 
L 414.706692 18.09531 
L 415.912015 18.30482 
L 417.117337 18.196175 
L 419.527983 18.649839 
L 420.733306 18.701914 
L 423.143952 18.97182 
L 424.349274 18.839268 
L 425.554597 9.878032 
L 426.75992 10.071294 
L 427.965243 9.858836 
L 429.170566 9.864355 
L 433.991857 10.738626 
L 435.19718 9.32538 
L 436.402503 9.246548 
L 437.607826 9.484423 
L 438.813148 9.311897 
L 440.018471 9.491747 
L 441.223794 9.543006 
L 443.63444 10.025238 
L 444.839763 9.827426 
L 448.455731 10.546614 
L 449.661054 10.324902 
L 450.866377 10.373651 
L 456.892991 11.550854 
L 458.098314 11.657425 
L 461.714282 12.304487 
L 465.330251 12.59609 
L 466.535573 12.826626 
L 467.740896 12.877187 
L 468.946219 13.054085 
L 470.151542 13.058225 
L 474.972833 13.945755 
L 476.178156 13.873371 
L 477.383479 14.020953 
L 478.588802 13.930034 
L 479.794125 14.153136 
L 480.999447 14.123396 
L 485.820739 14.902633 
L 487.026062 14.996797 
L 488.231384 14.597934 
L 489.436707 14.788783 
L 490.64203 14.813663 
L 494.257999 15.215644 
L 495.463321 15.20436 
L 496.668644 15.40758 
L 497.873967 15.297633 
L 500.284613 15.575561 
L 502.695258 15.876036 
L 503.900581 16.045274 
L 505.105904 15.686889 
L 506.311227 15.838068 
L 507.51655 15.662643 
L 509.927195 15.835209 
L 511.132518 15.866253 
L 514.748487 16.379867 
L 515.95381 16.166667 
L 515.95381 16.166667 
" clip-path="url(#p105edb3286)" style="fill: none; stroke-dasharray: 5.55,2.4; stroke-dashoffset: 0; stroke: #4169e1; stroke-width: 1.5"/>
   </g>
   <g id="line2d_27">
    <path d="M 35.03 35.154212 
L 36.235323 23.15317 
L 37.440646 24.962536 
L 38.645968 24.735418 
L 39.851291 25.139771 
L 41.056614 23.17505 
L 42.261937 24.221504 
L 43.46726 28.241976 
L 44.672583 25.533728 
L 45.877905 27.052753 
L 47.083228 26.615855 
L 48.288551 27.635789 
L 49.493874 29.937225 
L 50.699197 27.10361 
L 51.90452 24.901467 
L 54.315165 21.589398 
L 55.520488 22.399289 
L 56.725811 20.94701 
L 57.931134 20.251376 
L 59.136457 18.809149 
L 60.341779 19.321911 
L 61.547102 20.14388 
L 62.752425 20.806842 
L 63.957748 20.468603 
L 65.163071 20.532089 
L 66.368394 18.610037 
L 67.573716 18.435247 
L 69.984362 16.883492 
L 71.189685 16.580976 
L 72.395008 16.142938 
L 73.600331 16.87386 
L 74.805653 16.689633 
L 76.010976 16.710977 
L 77.216299 16.600071 
L 78.421622 16.235035 
L 80.832268 15.858448 
L 82.03759 16.184144 
L 83.242913 16.086025 
L 84.448236 16.281795 
L 85.653559 14.613789 
L 86.858882 15.217236 
L 89.269527 15.43493 
L 90.47485 15.837877 
L 91.680173 15.352678 
L 92.885496 15.59307 
L 95.296142 15.436211 
L 97.706787 15.044987 
L 100.117433 15.210963 
L 101.322756 14.737789 
L 102.528079 14.945812 
L 103.733401 15.374469 
L 106.144047 15.382024 
L 107.34937 15.55601 
L 108.554693 15.450908 
L 109.760016 15.492873 
L 110.965338 15.409263 
L 113.375984 16.138306 
L 115.78663 16.023955 
L 116.991953 16.236743 
L 118.197275 16.624797 
L 121.813244 16.634467 
L 123.018567 17.084958 
L 124.223889 17.013193 
L 125.429212 17.189399 
L 127.839858 18.026676 
L 129.045181 18.184418 
L 131.455826 18.786736 
L 132.661149 18.425965 
L 135.071795 18.539617 
L 136.277118 18.46104 
L 138.687763 18.662001 
L 141.098409 18.953394 
L 142.303732 18.445617 
L 144.714378 18.715187 
L 145.9197 18.509399 
L 147.125023 18.187268 
L 148.330346 18.099325 
L 156.767606 18.670513 
L 157.972929 18.50004 
L 159.178252 18.736406 
L 161.588897 18.860071 
L 162.79422 18.59255 
L 165.204866 18.481444 
L 166.410189 18.649979 
L 167.615511 18.294208 
L 168.820834 18.154464 
L 170.026157 18.244179 
L 173.642126 17.945149 
L 174.847448 17.302067 
L 178.463417 17.682408 
L 179.66874 17.254979 
L 180.874063 17.114296 
L 182.079385 17.385289 
L 183.284708 17.239006 
L 185.695354 17.505376 
L 186.900677 17.795785 
L 189.311322 18.152987 
L 190.516645 17.825257 
L 191.721968 17.90938 
L 194.132614 18.2483 
L 196.543259 18.365418 
L 197.748582 18.27947 
L 198.953905 18.342263 
L 200.159228 18.293181 
L 202.569873 18.468654 
L 203.775196 18.40882 
L 204.980519 18.485547 
L 206.185842 18.394761 
L 212.212456 18.580532 
L 214.623102 18.352995 
L 215.828425 17.8543 
L 217.033747 17.654323 
L 219.444393 17.537248 
L 221.855039 17.666799 
L 223.060362 17.374331 
L 224.265684 17.534228 
L 225.471007 17.31672 
L 227.881653 17.292368 
L 229.086976 17.151935 
L 232.702944 17.425329 
L 233.908267 17.535205 
L 235.11359 17.4996 
L 236.318913 17.647789 
L 237.524236 17.495415 
L 238.729558 17.560351 
L 242.345527 17.203256 
L 245.961495 17.305955 
L 247.166818 17.197838 
L 248.372141 17.275334 
L 249.577464 17.518401 
L 250.782787 17.392169 
L 251.98811 17.602415 
L 255.604078 17.514771 
L 256.809401 17.745161 
L 258.014724 17.577913 
L 260.425369 17.68391 
L 261.630692 17.886588 
L 262.836015 17.967109 
L 267.657306 17.787791 
L 271.273275 17.94783 
L 273.683921 18.023811 
L 274.889243 17.812498 
L 279.710535 17.820228 
L 282.12118 17.724948 
L 283.326503 17.485969 
L 285.737149 17.703437 
L 289.353117 17.386902 
L 294.174409 17.612863 
L 295.379731 17.510495 
L 296.585054 17.612451 
L 302.611668 17.515118 
L 309.843605 17.338268 
L 312.254251 17.279153 
L 313.459574 17.377726 
L 317.075542 17.169555 
L 318.280865 16.954691 
L 320.691511 17.199201 
L 325.512802 16.905594 
L 326.718125 16.982104 
L 327.923448 17.186372 
L 330.334094 17.168122 
L 332.744739 17.036519 
L 344.797968 17.051667 
L 349.619259 17.182762 
L 350.824582 17.140302 
L 355.645873 17.430094 
L 356.851196 17.230479 
L 368.904424 17.098211 
L 370.109747 16.982213 
L 371.31507 16.986693 
L 372.520393 16.815154 
L 373.725715 16.915152 
L 374.931038 16.786817 
L 376.136361 16.929025 
L 377.341684 16.834021 
L 378.547007 16.897419 
L 380.957652 16.828096 
L 382.162975 16.866823 
L 385.778944 16.601227 
L 389.394912 16.454079 
L 390.600235 16.334458 
L 394.216204 16.339085 
L 396.626849 16.251301 
L 400.242818 16.355019 
L 401.448141 16.260523 
L 408.680078 16.421379 
L 409.8854 16.440644 
L 411.090723 16.230479 
L 424.349274 16.065772 
L 425.554597 15.678374 
L 431.581211 15.646422 
L 433.991857 15.679794 
L 436.402503 15.427128 
L 437.607826 15.446118 
L 438.813148 15.3532 
L 446.045085 15.562925 
L 449.661054 15.607436 
L 452.071699 15.665966 
L 458.098314 15.679677 
L 465.330251 15.696008 
L 471.356865 15.738778 
L 487.026062 16.032639 
L 489.436707 15.970513 
L 494.257999 16.102533 
L 496.668644 16.06275 
L 500.284613 16.184395 
L 505.105904 16.00782 
L 515.95381 16.166667 
L 515.95381 16.166667 
" clip-path="url(#p105edb3286)" style="fill: none; stroke: #ff8c00; stroke-width: 1.5; stroke-linecap: square"/>
   </g>
   <g id="line2d_28">
    <path d="M 35.03 97 
L 36.235323 71.633901 
L 37.440646 78.936084 
L 38.645968 83.424808 
L 39.851291 86.024661 
L 41.056614 84.4546 
L 42.261937 85.089604 
L 43.46726 66.650205 
L 44.672583 59.688063 
L 45.877905 59.761721 
L 47.083228 62.810836 
L 48.288551 63.644575 
L 49.493874 55.016129 
L 50.699197 39.630939 
L 51.90452 31.498193 
L 54.315165 24.690216 
L 55.520488 26.743537 
L 56.725811 23.754914 
L 57.931134 25.797851 
L 59.136457 21.861657 
L 60.341779 24.30459 
L 61.547102 24.847379 
L 62.752425 26.073325 
L 63.957748 28.426804 
L 65.163071 31.046488 
L 66.368394 16.572361 
L 67.573716 19.299495 
L 68.779039 19.451717 
L 69.984362 18.467854 
L 71.189685 20.517607 
L 72.395008 21.860069 
L 73.600331 21.126062 
L 77.216299 27.184117 
L 78.421622 28.226165 
L 80.832268 31.290748 
L 82.03759 32.20485 
L 83.242913 33.717395 
L 84.448236 34.94737 
L 85.653559 15.809746 
L 86.858882 14.897189 
L 88.064205 16.690729 
L 89.269527 18.247446 
L 90.47485 18.607594 
L 91.680173 18.292031 
L 92.885496 19.40978 
L 95.296142 22.337329 
L 96.501464 23.505338 
L 97.706787 24.45458 
L 100.117433 26.931395 
L 101.322756 26.013814 
L 102.528079 26.832384 
L 103.733401 26.197532 
L 106.144047 28.550524 
L 107.34937 29.352759 
L 110.965338 32.312256 
L 112.170661 31.874915 
L 113.375984 31.27278 
L 115.78663 33.103237 
L 116.991953 33.487007 
L 118.197275 32.564343 
L 120.607921 34.269436 
L 121.813244 35.055991 
L 123.018567 33.283846 
L 124.223889 34.066272 
L 125.429212 34.484223 
L 126.634535 32.381358 
L 127.839858 31.346888 
L 129.045181 31.836113 
L 130.250504 31.481363 
L 131.455826 30.914955 
L 132.661149 29.864071 
L 137.482441 32.67748 
L 138.687763 33.228577 
L 139.893086 33.453791 
L 141.098409 33.977353 
L 142.303732 30.636021 
L 143.509055 31.193193 
L 144.714378 31.470178 
L 145.9197 31.488607 
L 147.125023 30.485872 
L 150.740992 32.126006 
L 151.946315 32.324378 
L 154.35696 33.604143 
L 155.562283 33.432646 
L 156.767606 34.037146 
L 157.972929 34.126372 
L 159.178252 33.71743 
L 160.383574 34.312668 
L 161.588897 34.705982 
L 162.79422 33.952073 
L 163.999543 34.387267 
L 165.204866 34.952227 
L 166.410189 34.971014 
L 167.615511 33.077667 
L 168.820834 33.26663 
L 171.23148 34.100051 
L 172.436803 34.030471 
L 173.642126 34.534443 
L 174.847448 26.6193 
L 177.258094 27.191789 
L 178.463417 27.374314 
L 179.66874 24.088516 
L 180.874063 24.264374 
L 182.079385 23.277778 
L 183.284708 23.408752 
L 184.490031 23.731431 
L 185.695354 23.777185 
L 186.900677 22.482179 
L 188.106 22.548965 
L 189.311322 22.174929 
L 190.516645 20.310225 
L 191.721968 20.733615 
L 192.927291 20.210972 
L 195.337937 20.80277 
L 196.543259 21.357367 
L 198.953905 22.192839 
L 200.159228 22.676792 
L 202.569873 23.357115 
L 204.980519 24.160493 
L 206.185842 24.463727 
L 207.391165 24.888117 
L 208.596488 24.811842 
L 211.007133 25.661602 
L 212.212456 25.781831 
L 213.417779 25.608565 
L 214.623102 25.957847 
L 215.828425 19.858137 
L 217.033747 19.302114 
L 218.23907 19.612085 
L 220.649716 20.458319 
L 221.855039 20.846456 
L 223.060362 18.981354 
L 224.265684 18.768183 
L 225.471007 17.943709 
L 227.881653 18.916649 
L 229.086976 18.83943 
L 230.292299 19.189554 
L 231.497621 19.162991 
L 232.702944 19.476794 
L 233.908267 19.592962 
L 235.11359 20.019412 
L 237.524236 19.60136 
L 238.729558 19.931137 
L 239.934881 19.895991 
L 241.140204 19.304631 
L 244.756173 20.466392 
L 248.372141 20.941181 
L 249.577464 19.513894 
L 250.782787 19.442021 
L 251.98811 18.469186 
L 255.604078 19.65285 
L 256.809401 18.350817 
L 258.014724 17.862254 
L 260.425369 18.510536 
L 261.630692 17.565669 
L 264.041338 18.037517 
L 265.246661 18.381088 
L 266.451984 18.481256 
L 268.862629 19.253059 
L 273.683921 20.17293 
L 274.889243 18.992035 
L 280.915858 20.822975 
L 282.12118 21.01603 
L 283.326503 19.311047 
L 284.531826 19.30689 
L 286.942472 19.066098 
L 288.147794 19.421033 
L 289.353117 18.568315 
L 292.969086 19.277645 
L 294.174409 19.478875 
L 296.585054 19.39596 
L 298.9957 20.033415 
L 300.201023 20.133885 
L 303.816991 21.100116 
L 306.227637 21.622915 
L 307.43296 21.620494 
L 308.638283 21.820472 
L 309.843605 21.717654 
L 312.254251 22.278909 
L 313.459574 22.205669 
L 314.664897 22.451083 
L 315.87022 22.020017 
L 317.075542 22.301988 
L 318.280865 20.707719 
L 319.486188 20.174832 
L 320.691511 20.070944 
L 321.896834 20.207003 
L 323.102157 19.274755 
L 325.512802 19.844609 
L 326.718125 19.91262 
L 327.923448 18.442796 
L 330.334094 19.06611 
L 331.539416 18.948472 
L 336.360708 20.086426 
L 337.566031 19.911796 
L 338.771353 20.095253 
L 342.387322 20.892657 
L 343.592645 20.955793 
L 347.208613 21.711222 
L 348.413936 21.775396 
L 350.824582 22.264238 
L 353.235227 22.338615 
L 354.44055 22.01127 
L 355.645873 22.248652 
L 356.851196 20.653816 
L 358.056519 20.936831 
L 359.261842 20.946462 
L 360.467164 21.225795 
L 361.672487 21.281396 
L 364.083133 21.5656 
L 366.493778 21.978363 
L 368.904424 22.408471 
L 370.109747 22.01701 
L 371.31507 22.28382 
L 372.520393 21.09861 
L 373.725715 20.872881 
L 374.931038 20.323872 
L 376.136361 19.585886 
L 377.341684 19.406062 
L 379.75233 19.556925 
L 382.162975 20.013487 
L 383.368298 19.609868 
L 384.573621 18.926063 
L 388.189589 19.669217 
L 389.394912 19.319699 
L 390.600235 18.838693 
L 391.805558 19.04867 
L 393.010881 18.993458 
L 394.216204 19.120468 
L 395.421526 18.912617 
L 396.626849 19.169858 
L 397.832172 19.269997 
L 400.242818 19.716296 
L 401.448141 19.491592 
L 402.653463 19.635179 
L 403.858786 19.41772 
L 407.474755 19.159779 
L 409.8854 19.568212 
L 411.090723 17.388491 
L 414.706692 18.052589 
L 415.912015 18.252892 
L 417.117337 18.030584 
L 419.527983 18.510736 
L 420.733306 18.52139 
L 421.938629 18.751907 
L 424.349274 18.733199 
L 425.554597 10.410044 
L 426.75992 10.633229 
L 427.965243 10.436403 
L 429.170566 10.403226 
L 431.581211 10.779259 
L 433.991857 11.228497 
L 435.19718 9.659476 
L 436.402503 9.582911 
L 437.607826 9.822644 
L 438.813148 9.572699 
L 442.429117 10.043914 
L 443.63444 10.29343 
L 444.839763 10.076446 
L 448.455731 10.784278 
L 449.661054 10.594704 
L 450.866377 10.683015 
L 456.892991 11.87842 
L 458.098314 11.981586 
L 461.714282 12.533122 
L 462.919605 12.522067 
L 473.76751 13.952245 
L 474.972833 14.151212 
L 476.178156 13.984199 
L 477.383479 14.100451 
L 478.588802 13.934754 
L 479.794125 14.159061 
L 480.999447 14.046997 
L 485.820739 14.837111 
L 487.026062 14.873745 
L 488.231384 14.636442 
L 489.436707 14.82567 
L 491.847353 14.948458 
L 493.052676 15.149616 
L 495.463321 15.269228 
L 496.668644 15.480057 
L 499.07929 15.484017 
L 500.284613 15.685907 
L 501.489936 15.695317 
L 503.900581 16.082743 
L 505.105904 15.638959 
L 506.311227 15.813881 
L 507.51655 15.626192 
L 512.337841 16.045354 
L 514.748487 16.383636 
L 515.95381 16.166667 
L 515.95381 16.166667 
" clip-path="url(#p105edb3286)" style="fill: none; stroke-dasharray: 5.55,2.4; stroke-dashoffset: 0; stroke: #ff8c00; stroke-width: 1.5"/>
   </g>
   <g id="patch_3">
    <path d="M 35.03 97 
L 35.03 0 
" style="fill: none; stroke: #000000; stroke-width: 0.8; stroke-linejoin: miter; stroke-linecap: square"/>
   </g>
   <g id="patch_4">
    <path d="M 540 97 
L 540 0 
" style="fill: none; stroke: #000000; stroke-width: 0.8; stroke-linejoin: miter; stroke-linecap: square"/>
   </g>
   <g id="patch_5">
    <path d="M 35.03 97 
L 540 97 
" style="fill: none; stroke: #000000; stroke-width: 0.8; stroke-linejoin: miter; stroke-linecap: square"/>
   </g>
   <g id="patch_6">
    <path d="M 35.03 0 
L 540 0 
" style="fill: none; stroke: #000000; stroke-width: 0.8; stroke-linejoin: miter; stroke-linecap: square"/>
   </g>
  </g>
 </g>
 <defs>
  <clipPath id="p105edb3286">
   <rect x="35.03" y="0" width="504.97" height="97"/>
  </clipPath>
 </defs>
</svg>
