<?xml version="1.0" encoding="utf-8" standalone="no"?>
<!DOCTYPE svg PUBLIC "-//W3C//DTD SVG 1.1//EN"
  "http://www.w3.org/Graphics/SVG/1.1/DTD/svg11.dtd">
<svg xmlns:xlink="http://www.w3.org/1999/xlink" width="540pt" height="129.6pt" viewBox="0 0 540 129.6" xmlns="http://www.w3.org/2000/svg" version="1.1">
 <metadata>
  <rdf:RDF xmlns:dc="http://purl.org/dc/elements/1.1/" xmlns:cc="http://creativecommons.org/ns#" xmlns:rdf="http://www.w3.org/1999/02/22-rdf-syntax-ns#">
   <cc:Work>
    <dc:type rdf:resource="http://purl.org/dc/dcmitype/StillImage"/>
    <dc:date>2025-03-22T23:59:55.519142</dc:date>
    <dc:format>image/svg+xml</dc:format>
    <dc:creator>
     <cc:Agent>
      <dc:title>Matplotlib v3.8.3, https://matplotlib.org/</dc:title>
     </cc:Agent>
    </dc:creator>
   </cc:Work>
  </rdf:RDF>
 </metadata>
 <defs>
  <style type="text/css">*{stroke-linejoin: round; stroke-linecap: butt}</style>
 </defs>
 <g id="figure_1">
  <g id="patch_1">
   <path d="M 0 129.6 
L 540 129.6 
L 540 0 
L 0 0 
z
" style="fill: #ffffff"/>
  </g>
  <g id="axes_1">
   <g id="patch_2">
    <path d="M 35.03 97 
L 540 97 
L 540 0 
L 35.03 0 
z
" style="fill: #ffffff"/>
   </g>
   <g id="matplotlib.axis_1">
    <g id="xtick_1">
     <g id="line2d_1">
      <path d="M 35.03 97 
L 35.03 0 
" clip-path="url(#pb2d392a00b)" style="fill: none; stroke: #b0b0b0; stroke-width: 0.8; stroke-linecap: square"/>
     </g>
     <g id="line2d_2">
      <defs>
       <path id="m69e8ec1b6a" d="M 0 0 
L 0 3.5 
" style="stroke: #000000; stroke-width: 0.8"/>
      </defs>
      <g>
       <use xlink:href="#m69e8ec1b6a" x="35.03" y="97" style="stroke: #000000; stroke-width: 0.8"/>
      </g>
     </g>
     <g id="text_1">
      <text style="font: 10px 'Times New Roman'; text-anchor: middle" x="35.03" y="110.94375" transform="rotate(-0 35.03 110.94375)">0</text>
     </g>
    </g>
    <g id="xtick_2">
     <g id="line2d_3">
      <path d="M 95.296142 97 
L 95.296142 0 
" clip-path="url(#pb2d392a00b)" style="fill: none; stroke: #b0b0b0; stroke-width: 0.8; stroke-linecap: square"/>
     </g>
     <g id="line2d_4">
      <g>
       <use xlink:href="#m69e8ec1b6a" x="95.296142" y="97" style="stroke: #000000; stroke-width: 0.8"/>
      </g>
     </g>
     <g id="text_2">
      <text style="font: 10px 'Times New Roman'; text-anchor: middle" x="95.296142" y="110.94375" transform="rotate(-0 95.296142 110.94375)">50</text>
     </g>
    </g>
    <g id="xtick_3">
     <g id="line2d_5">
      <path d="M 155.562283 97 
L 155.562283 0 
" clip-path="url(#pb2d392a00b)" style="fill: none; stroke: #b0b0b0; stroke-width: 0.8; stroke-linecap: square"/>
     </g>
     <g id="line2d_6">
      <g>
       <use xlink:href="#m69e8ec1b6a" x="155.562283" y="97" style="stroke: #000000; stroke-width: 0.8"/>
      </g>
     </g>
     <g id="text_3">
      <text style="font: 10px 'Times New Roman'; text-anchor: middle" x="155.562283" y="110.94375" transform="rotate(-0 155.562283 110.94375)">100</text>
     </g>
    </g>
    <g id="xtick_4">
     <g id="line2d_7">
      <path d="M 215.828425 97 
L 215.828425 0 
" clip-path="url(#pb2d392a00b)" style="fill: none; stroke: #b0b0b0; stroke-width: 0.8; stroke-linecap: square"/>
     </g>
     <g id="line2d_8">
      <g>
       <use xlink:href="#m69e8ec1b6a" x="215.828425" y="97" style="stroke: #000000; stroke-width: 0.8"/>
      </g>
     </g>
     <g id="text_4">
      <text style="font: 10px 'Times New Roman'; text-anchor: middle" x="215.828425" y="110.94375" transform="rotate(-0 215.828425 110.94375)">150</text>
     </g>
    </g>
    <g id="xtick_5">
     <g id="line2d_9">
      <path d="M 276.094566 97 
L 276.094566 0 
" clip-path="url(#pb2d392a00b)" style="fill: none; stroke: #b0b0b0; stroke-width: 0.8; stroke-linecap: square"/>
     </g>
     <g id="line2d_10">
      <g>
       <use xlink:href="#m69e8ec1b6a" x="276.094566" y="97" style="stroke: #000000; stroke-width: 0.8"/>
      </g>
     </g>
     <g id="text_5">
      <text style="font: 10px 'Times New Roman'; text-anchor: middle" x="276.094566" y="110.94375" transform="rotate(-0 276.094566 110.94375)">200</text>
     </g>
    </g>
    <g id="xtick_6">
     <g id="line2d_11">
      <path d="M 336.360708 97 
L 336.360708 0 
" clip-path="url(#pb2d392a00b)" style="fill: none; stroke: #b0b0b0; stroke-width: 0.8; stroke-linecap: square"/>
     </g>
     <g id="line2d_12">
      <g>
       <use xlink:href="#m69e8ec1b6a" x="336.360708" y="97" style="stroke: #000000; stroke-width: 0.8"/>
      </g>
     </g>
     <g id="text_6">
      <text style="font: 10px 'Times New Roman'; text-anchor: middle" x="336.360708" y="110.94375" transform="rotate(-0 336.360708 110.94375)">250</text>
     </g>
    </g>
    <g id="xtick_7">
     <g id="line2d_13">
      <path d="M 396.626849 97 
L 396.626849 0 
" clip-path="url(#pb2d392a00b)" style="fill: none; stroke: #b0b0b0; stroke-width: 0.8; stroke-linecap: square"/>
     </g>
     <g id="line2d_14">
      <g>
       <use xlink:href="#m69e8ec1b6a" x="396.626849" y="97" style="stroke: #000000; stroke-width: 0.8"/>
      </g>
     </g>
     <g id="text_7">
      <text style="font: 10px 'Times New Roman'; text-anchor: middle" x="396.626849" y="110.94375" transform="rotate(-0 396.626849 110.94375)">300</text>
     </g>
    </g>
    <g id="xtick_8">
     <g id="line2d_15">
      <path d="M 456.892991 97 
L 456.892991 0 
" clip-path="url(#pb2d392a00b)" style="fill: none; stroke: #b0b0b0; stroke-width: 0.8; stroke-linecap: square"/>
     </g>
     <g id="line2d_16">
      <g>
       <use xlink:href="#m69e8ec1b6a" x="456.892991" y="97" style="stroke: #000000; stroke-width: 0.8"/>
      </g>
     </g>
     <g id="text_8">
      <text style="font: 10px 'Times New Roman'; text-anchor: middle" x="456.892991" y="110.94375" transform="rotate(-0 456.892991 110.94375)">350</text>
     </g>
    </g>
    <g id="xtick_9">
     <g id="line2d_17">
      <path d="M 517.159132 97 
L 517.159132 0 
" clip-path="url(#pb2d392a00b)" style="fill: none; stroke: #b0b0b0; stroke-width: 0.8; stroke-linecap: square"/>
     </g>
     <g id="line2d_18">
      <g>
       <use xlink:href="#m69e8ec1b6a" x="517.159132" y="97" style="stroke: #000000; stroke-width: 0.8"/>
      </g>
     </g>
     <g id="text_9">
      <text style="font: 10px 'Times New Roman'; text-anchor: middle" x="517.159132" y="110.94375" transform="rotate(-0 517.159132 110.94375)">400</text>
     </g>
    </g>
    <g id="text_10">
     <text style="font: 12px 'Times New Roman'; text-anchor: middle" x="287.515" y="125.415312" transform="rotate(-0 287.515 125.415312)">Simulation Run</text>
    </g>
   </g>
   <g id="matplotlib.axis_2">
    <g id="ytick_1">
     <g id="line2d_19">
      <path d="M 35.03 97 
L 540 97 
" clip-path="url(#pb2d392a00b)" style="fill: none; stroke: #b0b0b0; stroke-width: 0.8; stroke-linecap: square"/>
     </g>
     <g id="line2d_20">
      <defs>
       <path id="mffa9cda4a5" d="M 0 0 
L -3.5 0 
" style="stroke: #000000; stroke-width: 0.8"/>
      </defs>
      <g>
       <use xlink:href="#mffa9cda4a5" x="35.03" y="97" style="stroke: #000000; stroke-width: 0.8"/>
      </g>
     </g>
     <g id="text_11">
      <text style="font: 10px 'Times New Roman'; text-anchor: end" x="28.03" y="100.471875" transform="rotate(-0 28.03 100.471875)">0.0</text>
     </g>
    </g>
    <g id="ytick_2">
     <g id="line2d_21">
      <path d="M 35.03 56.583333 
L 540 56.583333 
" clip-path="url(#pb2d392a00b)" style="fill: none; stroke: #b0b0b0; stroke-width: 0.8; stroke-linecap: square"/>
     </g>
     <g id="line2d_22">
      <g>
       <use xlink:href="#mffa9cda4a5" x="35.03" y="56.583333" style="stroke: #000000; stroke-width: 0.8"/>
      </g>
     </g>
     <g id="text_12">
      <text style="font: 10px 'Times New Roman'; text-anchor: end" x="28.03" y="60.055208" transform="rotate(-0 28.03 60.055208)">0.5</text>
     </g>
    </g>
    <g id="ytick_3">
     <g id="line2d_23">
      <path d="M 35.03 16.166667 
L 540 16.166667 
" clip-path="url(#pb2d392a00b)" style="fill: none; stroke: #b0b0b0; stroke-width: 0.8; stroke-linecap: square"/>
     </g>
     <g id="line2d_24">
      <g>
       <use xlink:href="#mffa9cda4a5" x="35.03" y="16.166667" style="stroke: #000000; stroke-width: 0.8"/>
      </g>
     </g>
     <g id="text_13">
      <text style="font: 10px 'Times New Roman'; text-anchor: end" x="28.03" y="19.638542" transform="rotate(-0 28.03 19.638542)">1.0</text>
     </g>
    </g>
    <g id="text_14">
     <text style="font: 12px 'Times New Roman'; text-anchor: middle" x="8.963125" y="48.5" transform="rotate(-90 8.963125 48.5)">Normalized Value</text>
    </g>
   </g>
   <g id="line2d_25">
    <path d="M 35.03 8.071071 
L 36.235323 18.829739 
L 37.440646 12.435501 
L 38.645968 20.062208 
L 39.851291 18.538115 
L 41.056614 19.846081 
L 42.261937 18.316741 
L 43.46726 16.014621 
L 44.672583 16.365978 
L 45.877905 14.859923 
L 47.083228 13.802557 
L 48.288551 13.34501 
L 49.493874 14.266635 
L 50.699197 16.061092 
L 51.90452 16.97119 
L 53.109842 16.768255 
L 54.315165 16.890055 
L 55.520488 18.284658 
L 56.725811 15.03994 
L 57.931134 16.057214 
L 59.136457 15.996772 
L 60.341779 14.975589 
L 63.957748 14.940597 
L 65.163071 15.608898 
L 66.368394 15.767376 
L 67.573716 16.568582 
L 68.779039 14.88935 
L 69.984362 15.911492 
L 71.189685 16.203222 
L 72.395008 16.834984 
L 73.600331 16.977748 
L 74.805653 16.840597 
L 76.010976 17.559389 
L 77.216299 18.004768 
L 78.421622 18.164452 
L 79.626945 18.141591 
L 80.832268 17.574013 
L 83.242913 18.531234 
L 84.448236 17.80575 
L 85.653559 17.933561 
L 86.858882 18.496702 
L 89.269527 18.878227 
L 90.47485 19.339995 
L 91.680173 19.232669 
L 92.885496 19.34507 
L 94.090819 19.183335 
L 96.501464 19.641885 
L 98.91211 19.368151 
L 100.117433 19.523606 
L 101.322756 20.091541 
L 102.528079 20.364082 
L 104.938724 20.60609 
L 106.144047 19.88644 
L 107.34937 19.942605 
L 108.554693 19.623021 
L 109.760016 19.835492 
L 110.965338 19.508992 
L 114.581307 18.941937 
L 115.78663 17.712198 
L 116.991953 17.62374 
L 118.197275 16.917799 
L 119.402598 16.553208 
L 120.607921 16.870249 
L 124.223889 16.500604 
L 125.429212 16.126449 
L 126.634535 15.937314 
L 127.839858 16.186529 
L 129.045181 16.180925 
L 130.250504 16.404469 
L 131.455826 16.10588 
L 136.277118 16.329354 
L 137.482441 16.145198 
L 138.687763 16.197872 
L 141.098409 15.729243 
L 142.303732 14.99872 
L 143.509055 14.68473 
L 144.714378 14.802834 
L 145.9197 15.122103 
L 147.125023 15.2772 
L 148.330346 15.587253 
L 149.535669 15.457129 
L 151.946315 15.612451 
L 156.767606 14.956775 
L 157.972929 15.025366 
L 159.178252 15.288279 
L 160.383574 15.260944 
L 162.79422 15.554956 
L 163.999543 15.775551 
L 165.204866 15.236028 
L 166.410189 15.398606 
L 167.615511 15.18351 
L 168.820834 15.164195 
L 170.026157 15.431109 
L 171.23148 15.213942 
L 172.436803 15.468366 
L 173.642126 15.236426 
L 179.66874 15.868231 
L 180.874063 15.647188 
L 184.490031 15.970106 
L 185.695354 15.719762 
L 186.900677 15.894162 
L 190.516645 16.135218 
L 191.721968 15.834242 
L 192.927291 15.696566 
L 194.132614 15.913764 
L 196.543259 16.063626 
L 197.748582 15.732649 
L 198.953905 15.9123 
L 200.159228 15.917851 
L 202.569873 16.143498 
L 203.775196 15.887315 
L 207.391165 16.000251 
L 208.596488 16.038573 
L 209.80181 15.877121 
L 211.007133 15.845761 
L 212.212456 15.586152 
L 217.033747 16.040895 
L 218.23907 15.936116 
L 220.649716 16.161862 
L 224.265684 15.896517 
L 226.67633 15.95531 
L 230.292299 16.355608 
L 233.908267 16.383111 
L 235.11359 16.489076 
L 243.55085 16.182766 
L 244.756173 16.259229 
L 245.961495 16.162325 
L 247.166818 16.257496 
L 248.372141 16.049365 
L 250.782787 16.096484 
L 251.98811 16.076205 
L 254.398755 16.320797 
L 255.604078 16.285604 
L 256.809401 16.376686 
L 258.014724 16.337703 
L 259.220047 16.472471 
L 260.425369 16.350369 
L 264.041338 16.439346 
L 271.273275 16.737443 
L 272.478598 16.57424 
L 273.683921 16.53981 
L 276.094566 16.658393 
L 279.710535 16.265831 
L 282.12118 16.552508 
L 288.147794 16.22861 
L 289.353117 16.361885 
L 291.763763 16.447866 
L 292.969086 16.107989 
L 297.790377 16.238388 
L 300.201023 16.311032 
L 301.406346 16.135453 
L 308.638283 16.422416 
L 309.843605 16.412232 
L 315.87022 16.951379 
L 321.896834 16.897376 
L 323.102157 16.750661 
L 326.718125 16.811202 
L 332.744739 17.134398 
L 336.360708 16.849209 
L 343.592645 17.249992 
L 346.00329 17.204717 
L 349.619259 17.179353 
L 350.824582 17.094387 
L 359.261842 17.304122 
L 379.75233 17.043842 
L 384.573621 17.364014 
L 388.189589 17.321898 
L 393.010881 17.391555 
L 402.653463 17.523561 
L 405.064109 17.631847 
L 412.296046 17.722297 
L 413.501369 17.737462 
L 414.706692 17.629419 
L 417.117337 17.714932 
L 420.733306 17.424601 
L 421.938629 17.386311 
L 424.349274 17.488524 
L 425.554597 17.553433 
L 429.170566 17.294622 
L 432.786534 17.497861 
L 433.991857 17.571688 
L 435.19718 17.419503 
L 442.429117 17.209811 
L 443.63444 17.037122 
L 447.250408 17.160969 
L 448.455731 17.211892 
L 450.866377 17.156884 
L 453.277022 17.18207 
L 458.098314 16.596977 
L 460.508959 16.610137 
L 462.919605 16.50695 
L 464.124928 16.597839 
L 470.151542 16.36595 
L 473.76751 16.396515 
L 478.588802 16.452496 
L 480.999447 16.408186 
L 482.20477 16.272619 
L 484.615416 16.257823 
L 485.820739 16.126509 
L 507.51655 16.121021 
L 508.721873 15.966109 
L 515.95381 16.166667 
L 515.95381 16.166667 
" clip-path="url(#pb2d392a00b)" style="fill: none; stroke: #4169e1; stroke-width: 1.5; stroke-linecap: square"/>
   </g>
   <g id="line2d_26">
    <path d="M 35.03 97 
L 36.235323 76.486407 
L 37.440646 68.832137 
L 38.645968 44.94836 
L 39.851291 53.712013 
L 41.056614 59.410718 
L 42.261937 62.293571 
L 43.46726 60.057128 
L 44.672583 63.986861 
L 45.877905 63.670338 
L 47.083228 64.718891 
L 48.288551 67.000863 
L 49.493874 67.502089 
L 50.699197 62.190272 
L 51.90452 62.455838 
L 54.315165 66.37475 
L 55.520488 62.216459 
L 56.725811 30.461724 
L 57.931134 30.304027 
L 59.136457 33.467077 
L 60.341779 32.47387 
L 62.752425 37.823822 
L 63.957748 40.173929 
L 65.163071 40.38071 
L 66.368394 42.361994 
L 67.573716 41.241662 
L 68.779039 29.171579 
L 69.984362 26.062891 
L 71.189685 27.898695 
L 72.395008 27.865344 
L 74.805653 31.70989 
L 76.010976 30.462096 
L 77.216299 31.079958 
L 79.626945 34.387602 
L 80.832268 33.823545 
L 82.03759 34.108668 
L 83.242913 33.692512 
L 84.448236 31.375418 
L 85.653559 32.779976 
L 86.858882 31.822799 
L 88.064205 32.846152 
L 89.269527 34.065971 
L 90.47485 33.666667 
L 92.885496 36.050237 
L 94.090819 37.042072 
L 95.296142 37.797752 
L 96.501464 38.411946 
L 97.706787 39.18664 
L 98.91211 40.190523 
L 100.117433 40.992147 
L 101.322756 38.848276 
L 102.528079 39.131299 
L 104.938724 40.787705 
L 106.144047 36.30932 
L 107.34937 37.270706 
L 108.554693 37.129939 
L 109.760016 37.58422 
L 110.965338 37.322362 
L 112.170661 37.90995 
L 113.375984 38.168373 
L 114.581307 38.742448 
L 115.78663 21.642522 
L 116.991953 22.64036 
L 118.197275 17.608523 
L 119.402598 17.077656 
L 120.607921 16.922911 
L 123.018567 18.493939 
L 124.223889 19.485725 
L 125.429212 18.644895 
L 126.634535 19.18068 
L 127.839858 19.330819 
L 129.045181 20.313539 
L 130.250504 20.572469 
L 131.455826 20.251969 
L 132.661149 21.155437 
L 133.866472 21.909352 
L 136.277118 23.6223 
L 137.482441 23.964656 
L 138.687763 24.761855 
L 139.893086 24.798549 
L 141.098409 24.688073 
L 142.303732 17.074056 
L 143.509055 16.379834 
L 144.714378 17.031185 
L 145.9197 16.22909 
L 147.125023 16.69188 
L 148.330346 15.935733 
L 150.740992 17.099883 
L 151.946315 17.887289 
L 153.151637 18.299069 
L 154.35696 18.355591 
L 156.767606 19.087869 
L 157.972929 19.759251 
L 159.178252 19.240161 
L 160.383574 19.966959 
L 161.588897 20.462216 
L 162.79422 20.551954 
L 163.999543 20.337025 
L 165.204866 15.46891 
L 166.410189 15.699514 
L 167.615511 15.530007 
L 168.820834 16.250078 
L 170.026157 15.550562 
L 171.23148 15.320558 
L 172.436803 14.723007 
L 173.642126 14.335888 
L 174.847448 14.733928 
L 176.052771 15.355596 
L 177.258094 14.853508 
L 178.463417 15.397432 
L 179.66874 15.718242 
L 180.874063 15.336716 
L 182.079385 15.832615 
L 183.284708 15.628794 
L 184.490031 16.25077 
L 185.695354 15.503257 
L 186.900677 15.465776 
L 189.311322 16.679159 
L 190.516645 16.553556 
L 191.721968 15.080598 
L 192.927291 15.261138 
L 194.132614 14.772113 
L 196.543259 15.725315 
L 197.748582 13.701993 
L 198.953905 13.532108 
L 200.159228 14.136199 
L 201.364551 14.129003 
L 202.569873 14.605071 
L 203.775196 13.561055 
L 207.391165 15.074091 
L 208.596488 15.601618 
L 209.80181 15.489285 
L 211.007133 16.018333 
L 212.212456 14.809683 
L 213.417779 14.887352 
L 214.623102 15.25607 
L 215.828425 14.121672 
L 217.033747 14.662393 
L 218.23907 14.9048 
L 219.444393 15.270236 
L 220.649716 15.206838 
L 221.855039 15.424007 
L 223.060362 15.012809 
L 226.67633 16.486003 
L 227.881653 16.408751 
L 229.086976 16.734923 
L 230.292299 16.295836 
L 231.497621 16.781257 
L 232.702944 17.022643 
L 233.908267 17.434038 
L 235.11359 17.580142 
L 237.524236 18.430357 
L 238.729558 18.349425 
L 239.934881 18.540963 
L 241.140204 18.975634 
L 242.345527 19.112202 
L 245.961495 19.779793 
L 247.166818 19.933544 
L 248.372141 19.00765 
L 249.577464 19.315757 
L 251.98811 20.152458 
L 253.193432 19.946694 
L 254.398755 20.014357 
L 255.604078 20.392588 
L 256.809401 20.536157 
L 258.014724 20.897429 
L 260.425369 20.61743 
L 262.836015 21.417093 
L 264.041338 21.582026 
L 265.246661 21.8816 
L 266.451984 22.003567 
L 270.067952 23.02329 
L 271.273275 23.247145 
L 272.478598 22.689716 
L 273.683921 23.021536 
L 274.889243 23.09448 
L 276.094566 23.436666 
L 277.299889 23.477232 
L 278.505212 23.670761 
L 279.710535 22.149938 
L 280.915858 21.863819 
L 282.12118 21.38403 
L 286.942472 22.397048 
L 288.147794 21.695955 
L 289.353117 21.386951 
L 290.55844 21.7419 
L 291.763763 21.821241 
L 292.969086 17.78981 
L 295.379731 18.512805 
L 296.585054 18.4784 
L 297.790377 18.832091 
L 298.9957 18.938876 
L 300.201023 19.289973 
L 301.406346 18.432589 
L 302.611668 18.634243 
L 303.816991 18.630394 
L 305.022314 18.978255 
L 306.227637 19.151559 
L 309.843605 20.091662 
L 311.048928 19.890724 
L 312.254251 19.554419 
L 314.664897 19.29528 
L 315.87022 19.338542 
L 319.486188 20.266392 
L 320.691511 19.975296 
L 321.896834 20.156582 
L 323.102157 19.56503 
L 326.718125 20.454292 
L 327.923448 20.519252 
L 329.128771 20.802931 
L 330.334094 20.484221 
L 331.539416 20.574737 
L 332.744739 20.842703 
L 335.155385 20.44456 
L 337.566031 20.54712 
L 338.771353 20.376526 
L 339.976676 20.609403 
L 341.181999 20.694759 
L 342.387322 20.621111 
L 344.797968 21.157598 
L 346.00329 21.197725 
L 349.619259 22.046823 
L 350.824582 21.996611 
L 352.029905 22.210597 
L 353.235227 21.955591 
L 361.672487 23.64611 
L 362.87781 22.618594 
L 364.083133 22.43811 
L 367.699101 22.960639 
L 371.31507 23.506762 
L 372.520393 23.352184 
L 374.931038 23.629437 
L 376.136361 23.789859 
L 379.75233 23.933948 
L 380.957652 23.669189 
L 382.162975 23.732694 
L 383.368298 23.438173 
L 385.778944 23.720388 
L 391.805558 24.639959 
L 397.832172 25.645046 
L 399.037495 25.818035 
L 400.242818 25.875586 
L 402.653463 26.184757 
L 403.858786 25.963105 
L 406.269432 26.407221 
L 407.474755 26.253021 
L 408.680078 26.238216 
L 411.090723 26.664507 
L 412.296046 26.521565 
L 413.501369 26.732507 
L 414.706692 26.303191 
L 417.117337 26.529909 
L 418.32266 26.03238 
L 419.527983 24.483982 
L 421.938629 24.850972 
L 423.143952 24.444088 
L 424.349274 24.667552 
L 425.554597 24.648188 
L 426.75992 24.478729 
L 427.965243 24.459483 
L 429.170566 23.956437 
L 430.375889 23.614997 
L 431.581211 23.44431 
L 432.786534 23.63645 
L 433.991857 23.537701 
L 435.19718 22.395603 
L 436.402503 22.586703 
L 437.607826 22.135717 
L 440.018471 22.387916 
L 441.223794 22.599559 
L 442.429117 22.373704 
L 443.63444 20.801533 
L 444.839763 20.674454 
L 446.045085 20.670078 
L 447.250408 20.881095 
L 450.866377 21.143036 
L 453.277022 21.558603 
L 454.482345 20.162331 
L 455.687668 20.005954 
L 456.892991 17.394564 
L 458.098314 16.539874 
L 460.508959 16.748865 
L 461.714282 16.549587 
L 462.919605 16.748225 
L 464.124928 16.451834 
L 465.330251 16.421997 
L 466.535573 16.613431 
L 467.740896 16.573515 
L 468.946219 15.951356 
L 473.76751 16.72323 
L 478.588802 17.295862 
L 480.999447 17.629834 
L 482.20477 16.634815 
L 484.615416 17.009617 
L 485.820739 16.079997 
L 487.026062 16.293146 
L 490.64203 16.49328 
L 491.847353 16.695799 
L 493.052676 16.725179 
L 496.668644 17.2441 
L 497.873967 17.065865 
L 499.07929 17.057369 
L 500.284613 16.819251 
L 501.489936 16.737305 
L 502.695258 16.880055 
L 503.900581 16.811443 
L 506.311227 17.191999 
L 507.51655 17.146898 
L 508.721873 15.678133 
L 511.132518 16.016669 
L 512.337841 15.809729 
L 514.748487 16.194797 
L 515.95381 16.166667 
L 515.95381 16.166667 
" clip-path="url(#pb2d392a00b)" style="fill: none; stroke-dasharray: 5.55,2.4; stroke-dashoffset: 0; stroke: #4169e1; stroke-width: 1.5"/>
   </g>
   <g id="line2d_27">
    <path d="M 35.03 7.5623 
L 36.235323 17.448729 
L 37.440646 11.907239 
L 38.645968 19.090077 
L 39.851291 17.295161 
L 41.056614 18.950337 
L 42.261937 17.956026 
L 43.46726 15.62575 
L 44.672583 15.87873 
L 45.877905 14.08561 
L 47.083228 12.785101 
L 48.288551 12.338304 
L 49.493874 13.293289 
L 50.699197 15.093759 
L 51.90452 16.029424 
L 54.315165 16.213417 
L 55.520488 17.793279 
L 56.725811 14.714259 
L 57.931134 15.631524 
L 59.136457 15.880871 
L 60.341779 15.040196 
L 63.957748 15.06488 
L 65.163071 15.87535 
L 66.368394 15.889701 
L 67.573716 16.858388 
L 68.779039 15.133893 
L 69.984362 16.09411 
L 72.395008 16.925271 
L 73.600331 16.995038 
L 74.805653 16.821692 
L 76.010976 17.432298 
L 77.216299 17.822154 
L 79.626945 17.952601 
L 80.832268 17.446788 
L 83.242913 18.463484 
L 84.448236 17.711242 
L 85.653559 17.777978 
L 86.858882 18.316759 
L 89.269527 18.613086 
L 90.47485 19.086234 
L 91.680173 19.027975 
L 92.885496 19.260958 
L 94.090819 19.127831 
L 96.501464 19.535191 
L 97.706787 19.292341 
L 98.91211 19.254243 
L 100.117433 19.391698 
L 101.322756 19.945896 
L 102.528079 20.260049 
L 104.938724 20.461506 
L 106.144047 19.760957 
L 107.34937 19.812277 
L 108.554693 19.56953 
L 109.760016 19.730871 
L 110.965338 19.42907 
L 114.581307 18.844635 
L 115.78663 17.626788 
L 116.991953 17.470351 
L 118.197275 16.769724 
L 119.402598 16.346843 
L 120.607921 16.602908 
L 124.223889 16.235763 
L 125.429212 15.850998 
L 126.634535 15.710164 
L 127.839858 15.893818 
L 129.045181 15.946871 
L 130.250504 16.136227 
L 131.455826 15.83284 
L 138.687763 15.948583 
L 139.893086 15.851223 
L 141.098409 15.635706 
L 142.303732 14.951147 
L 143.509055 14.689264 
L 144.714378 14.785852 
L 145.9197 15.1056 
L 147.125023 15.262278 
L 148.330346 15.589301 
L 149.535669 15.471324 
L 151.946315 15.58082 
L 156.767606 15.052665 
L 157.972929 15.129731 
L 159.178252 15.384397 
L 160.383574 15.343972 
L 162.79422 15.593864 
L 163.999543 15.812728 
L 165.204866 15.276038 
L 166.410189 15.456259 
L 167.615511 15.235812 
L 168.820834 15.265269 
L 170.026157 15.509582 
L 171.23148 15.355052 
L 172.436803 15.593095 
L 173.642126 15.41189 
L 178.463417 15.890511 
L 179.66874 16.096518 
L 180.874063 15.871123 
L 184.490031 16.131106 
L 185.695354 15.914242 
L 186.900677 16.079073 
L 190.516645 16.302424 
L 191.721968 16.03033 
L 192.927291 15.884193 
L 194.132614 16.091778 
L 196.543259 16.243953 
L 197.748582 15.871698 
L 198.953905 16.041788 
L 200.159228 16.062713 
L 202.569873 16.297709 
L 203.775196 16.104647 
L 208.596488 16.235605 
L 212.212456 15.787556 
L 217.033747 16.223875 
L 218.23907 16.151873 
L 220.649716 16.326606 
L 224.265684 16.136205 
L 229.086976 16.406191 
L 230.292299 16.571034 
L 231.497621 16.528734 
L 232.702944 16.641028 
L 233.908267 16.584265 
L 235.11359 16.673543 
L 238.729558 16.506094 
L 241.140204 16.419021 
L 242.345527 16.508703 
L 243.55085 16.442484 
L 244.756173 16.496411 
L 245.961495 16.402759 
L 247.166818 16.497931 
L 248.372141 16.308952 
L 250.782787 16.315129 
L 251.98811 16.244006 
L 254.398755 16.463683 
L 255.604078 16.426683 
L 256.809401 16.537285 
L 258.014724 16.490834 
L 259.220047 16.605192 
L 260.425369 16.477396 
L 264.041338 16.553833 
L 272.478598 16.661024 
L 273.683921 16.604002 
L 276.094566 16.743721 
L 280.915858 16.493345 
L 282.12118 16.637112 
L 285.737149 16.482956 
L 286.942472 16.452348 
L 288.147794 16.294791 
L 289.353117 16.409521 
L 291.763763 16.453599 
L 292.969086 16.153319 
L 296.585054 16.271521 
L 305.022314 16.402664 
L 307.43296 16.461903 
L 311.048928 16.56661 
L 315.87022 16.991524 
L 319.486188 16.982416 
L 320.691511 16.849825 
L 321.896834 16.904111 
L 323.102157 16.784936 
L 329.128771 16.924959 
L 332.744739 17.134459 
L 336.360708 16.854459 
L 343.592645 17.271281 
L 346.00329 17.248491 
L 349.619259 17.223338 
L 352.029905 17.152974 
L 354.44055 17.283 
L 359.261842 17.317693 
L 361.672487 17.370172 
L 362.87781 17.207861 
L 364.083133 17.303432 
L 367.699101 17.309777 
L 379.75233 17.099035 
L 384.573621 17.365402 
L 388.189589 17.322864 
L 393.010881 17.376255 
L 402.653463 17.498171 
L 405.064109 17.587779 
L 418.32266 17.575729 
L 419.527983 17.419972 
L 424.349274 17.472721 
L 425.554597 17.547219 
L 429.170566 17.258658 
L 433.991857 17.542185 
L 435.19718 17.393888 
L 442.429117 17.221566 
L 443.63444 17.030591 
L 446.045085 17.155295 
L 453.277022 17.147548 
L 458.098314 16.575516 
L 460.508959 16.561325 
L 462.919605 16.449919 
L 464.124928 16.529411 
L 466.535573 16.485961 
L 472.562188 16.316329 
L 479.794125 16.389501 
L 488.231384 16.12685 
L 490.64203 16.181925 
L 496.668644 16.174473 
L 497.873967 16.080663 
L 499.07929 16.135316 
L 500.284613 16.060789 
L 502.695258 16.15817 
L 505.105904 16.132793 
L 507.51655 16.079832 
L 508.721873 15.939232 
L 515.95381 16.166667 
L 515.95381 16.166667 
" clip-path="url(#pb2d392a00b)" style="fill: none; stroke: #ff8c00; stroke-width: 1.5; stroke-linecap: square"/>
   </g>
   <g id="line2d_28">
    <path d="M 35.03 97 
L 36.235323 78.33899 
L 37.440646 72.833614 
L 38.645968 49.324384 
L 39.851291 56.399113 
L 42.261937 64.62518 
L 43.46726 61.414835 
L 44.672583 65.270992 
L 45.877905 62.919085 
L 47.083228 62.788239 
L 48.288551 65.219972 
L 49.493874 65.575148 
L 50.699197 59.77394 
L 51.90452 59.915628 
L 53.109842 62.210789 
L 54.315165 64.229565 
L 55.520488 57.949049 
L 56.725811 27.424143 
L 57.931134 27.850826 
L 59.136457 30.906238 
L 60.341779 31.076944 
L 62.752425 36.53106 
L 63.957748 38.854673 
L 65.163071 37.955798 
L 66.368394 40.141598 
L 67.573716 37.335133 
L 68.779039 23.494685 
L 69.984362 20.839886 
L 71.189685 22.51472 
L 72.395008 23.580885 
L 73.600331 25.775969 
L 74.805653 27.681473 
L 76.010976 27.241766 
L 77.216299 28.163874 
L 79.626945 31.689998 
L 80.832268 31.508436 
L 82.03759 31.583734 
L 83.242913 30.795587 
L 84.448236 27.942372 
L 85.653559 29.51265 
L 86.858882 28.663321 
L 89.269527 31.265476 
L 90.47485 30.697978 
L 91.680173 32.048815 
L 92.885496 32.876902 
L 94.090819 33.993563 
L 95.296142 34.697488 
L 96.501464 35.609557 
L 97.706787 36.182354 
L 98.91211 37.29392 
L 100.117433 38.184695 
L 101.322756 36.009818 
L 102.528079 36.024644 
L 104.938724 37.86979 
L 106.144047 33.327079 
L 107.34937 34.340728 
L 108.554693 34.665095 
L 109.760016 35.346408 
L 110.965338 35.214185 
L 112.170661 35.745227 
L 113.375984 35.938226 
L 114.581307 36.543875 
L 115.78663 18.460796 
L 116.991953 19.281325 
L 118.197275 13.924942 
L 119.402598 12.705051 
L 120.607921 12.986994 
L 121.813244 13.919471 
L 123.018567 14.550197 
L 124.223889 15.609512 
L 125.429212 14.560575 
L 126.634535 15.343423 
L 127.839858 15.894455 
L 129.045181 16.879192 
L 130.250504 17.339898 
L 131.455826 16.917502 
L 132.661149 17.876991 
L 133.866472 18.575331 
L 135.071795 19.507248 
L 136.277118 20.285032 
L 137.482441 20.725563 
L 138.687763 21.575129 
L 139.893086 22.274781 
L 141.098409 22.33402 
L 142.303732 15.200813 
L 143.509055 14.921244 
L 144.714378 15.651316 
L 145.9197 14.730237 
L 147.125023 15.169573 
L 148.330346 14.111662 
L 150.740992 15.412998 
L 151.946315 16.24036 
L 153.151637 16.614876 
L 154.35696 16.641387 
L 155.562283 17.363183 
L 157.972929 18.564463 
L 159.178252 18.043281 
L 160.383574 18.762803 
L 161.588897 19.343822 
L 162.79422 19.542544 
L 163.999543 19.281175 
L 165.204866 14.055003 
L 166.410189 14.133133 
L 167.615511 13.859075 
L 168.820834 14.583015 
L 170.026157 14.036022 
L 171.23148 14.248592 
L 172.436803 13.734855 
L 173.642126 13.731727 
L 174.847448 14.206413 
L 176.052771 14.834322 
L 177.258094 14.766843 
L 178.463417 15.042343 
L 179.66874 14.747385 
L 180.874063 14.247964 
L 182.079385 14.770971 
L 183.284708 14.694245 
L 184.490031 15.352566 
L 185.695354 14.878186 
L 186.900677 14.871226 
L 189.311322 16.082901 
L 190.516645 16.088714 
L 191.721968 14.868814 
L 192.927291 14.956889 
L 194.132614 14.487767 
L 195.337937 15.023215 
L 196.543259 15.394996 
L 197.748582 12.423367 
L 198.953905 12.289518 
L 200.159228 12.891908 
L 201.364551 12.885438 
L 202.569873 13.30501 
L 203.775196 12.90232 
L 204.980519 13.475732 
L 206.185842 13.862276 
L 208.596488 14.950217 
L 209.80181 14.840929 
L 211.007133 15.318901 
L 212.212456 14.275062 
L 213.417779 14.423905 
L 214.623102 14.826906 
L 215.828425 13.702253 
L 217.033747 14.250006 
L 219.444393 15.002457 
L 221.855039 15.496687 
L 223.060362 15.501003 
L 226.67633 16.892017 
L 227.881653 16.804156 
L 229.086976 17.170454 
L 230.292299 16.819751 
L 231.497621 17.252971 
L 232.702944 17.341454 
L 233.908267 17.719824 
L 235.11359 17.941946 
L 237.524236 18.844899 
L 238.729558 18.775259 
L 239.934881 18.956825 
L 241.140204 19.409708 
L 242.345527 19.594087 
L 245.961495 20.381216 
L 247.166818 20.509727 
L 248.372141 19.732584 
L 250.782787 20.554572 
L 251.98811 20.803086 
L 253.193432 20.658462 
L 254.398755 20.781497 
L 255.604078 21.147896 
L 256.809401 21.128173 
L 258.014724 21.459875 
L 259.220047 21.399421 
L 260.425369 21.218464 
L 262.836015 22.008474 
L 264.041338 22.19825 
L 265.246661 22.556057 
L 266.451984 22.608402 
L 268.862629 23.370391 
L 271.273275 23.747252 
L 272.478598 23.114336 
L 273.683921 23.362704 
L 274.889243 23.419761 
L 276.094566 23.693304 
L 278.505212 23.881037 
L 279.710535 22.470906 
L 280.915858 22.179456 
L 282.12118 21.733699 
L 283.326503 21.868847 
L 284.531826 22.224202 
L 285.737149 22.259525 
L 286.942472 22.57805 
L 288.147794 21.935469 
L 289.353117 21.759279 
L 290.55844 22.101927 
L 291.763763 22.304261 
L 292.969086 18.967658 
L 295.379731 19.67151 
L 296.585054 19.642706 
L 297.790377 19.994897 
L 298.9957 19.969049 
L 300.201023 20.316789 
L 301.406346 19.707707 
L 302.611668 19.904944 
L 303.816991 19.811076 
L 305.022314 20.142446 
L 306.227637 20.313152 
L 309.843605 21.316281 
L 311.048928 21.221701 
L 312.254251 20.946499 
L 313.459574 20.554507 
L 315.87022 20.486863 
L 319.486188 21.412918 
L 320.691511 20.93502 
L 321.896834 21.119377 
L 323.102157 20.787482 
L 326.718125 21.657614 
L 327.923448 21.759836 
L 329.128771 22.060392 
L 330.334094 21.862939 
L 332.744739 22.204837 
L 333.950062 22.089284 
L 335.155385 21.757219 
L 336.360708 21.816377 
L 337.566031 21.763846 
L 338.771353 21.548291 
L 339.976676 21.718621 
L 341.181999 21.725983 
L 342.387322 21.546427 
L 344.797968 22.073924 
L 346.00329 22.203295 
L 349.619259 23.03935 
L 350.824582 22.920423 
L 352.029905 23.182757 
L 353.235227 22.857164 
L 360.467164 24.386539 
L 361.672487 24.523896 
L 362.87781 23.421266 
L 364.083133 23.213734 
L 365.288456 23.420529 
L 366.493778 23.499979 
L 370.109747 24.147112 
L 371.31507 24.320613 
L 372.520393 24.126484 
L 377.341684 24.628073 
L 379.75233 24.830634 
L 380.957652 24.67451 
L 382.162975 24.816278 
L 383.368298 24.612933 
L 386.984267 25.124078 
L 395.421526 26.632559 
L 396.626849 26.740452 
L 399.037495 27.155814 
L 400.242818 27.192624 
L 402.653463 27.576005 
L 403.858786 27.394027 
L 406.269432 27.839894 
L 408.680078 27.670834 
L 411.090723 28.07631 
L 412.296046 27.99802 
L 413.501369 28.216661 
L 414.706692 28.099083 
L 417.117337 28.372542 
L 418.32266 27.829401 
L 419.527983 26.568003 
L 421.938629 26.901261 
L 423.143952 26.503041 
L 424.349274 26.720215 
L 425.554597 26.593147 
L 426.75992 26.263038 
L 427.965243 26.218395 
L 429.170566 25.37916 
L 431.581211 24.829675 
L 432.786534 24.986013 
L 433.991857 24.847401 
L 435.19718 23.670091 
L 436.402503 23.862555 
L 437.607826 23.439569 
L 438.813148 23.498466 
L 441.223794 23.925553 
L 442.429117 23.635166 
L 443.63444 21.490407 
L 444.839763 21.318938 
L 446.045085 21.396996 
L 447.250408 21.616294 
L 448.455731 21.692858 
L 449.661054 21.639443 
L 453.277022 22.267703 
L 454.482345 20.94518 
L 455.687668 20.646204 
L 456.892991 17.798216 
L 458.098314 17.094181 
L 460.508959 17.275529 
L 461.714282 17.024218 
L 462.919605 17.197634 
L 464.124928 16.991687 
L 465.330251 16.900497 
L 467.740896 17.156987 
L 468.946219 16.567244 
L 473.76751 17.36499 
L 477.383479 17.677991 
L 479.794125 18.097345 
L 480.999447 18.152017 
L 482.20477 17.058142 
L 484.615416 17.406523 
L 485.820739 16.443405 
L 488.231384 16.737772 
L 489.436707 16.652612 
L 491.847353 17.048522 
L 493.052676 17.055025 
L 496.668644 17.563933 
L 497.873967 17.125074 
L 499.07929 17.112453 
L 501.489936 16.707588 
L 502.695258 16.874686 
L 503.900581 16.763974 
L 505.105904 16.850826 
L 506.311227 17.053699 
L 507.51655 17.082183 
L 508.721873 15.801753 
L 511.132518 16.078697 
L 512.337841 15.918421 
L 515.95381 16.166667 
L 515.95381 16.166667 
" clip-path="url(#pb2d392a00b)" style="fill: none; stroke-dasharray: 5.55,2.4; stroke-dashoffset: 0; stroke: #ff8c00; stroke-width: 1.5"/>
   </g>
   <g id="patch_3">
    <path d="M 35.03 97 
L 35.03 0 
" style="fill: none; stroke: #000000; stroke-width: 0.8; stroke-linejoin: miter; stroke-linecap: square"/>
   </g>
   <g id="patch_4">
    <path d="M 540 97 
L 540 0 
" style="fill: none; stroke: #000000; stroke-width: 0.8; stroke-linejoin: miter; stroke-linecap: square"/>
   </g>
   <g id="patch_5">
    <path d="M 35.03 97 
L 540 97 
" style="fill: none; stroke: #000000; stroke-width: 0.8; stroke-linejoin: miter; stroke-linecap: square"/>
   </g>
   <g id="patch_6">
    <path d="M 35.03 0 
L 540 0 
" style="fill: none; stroke: #000000; stroke-width: 0.8; stroke-linejoin: miter; stroke-linecap: square"/>
   </g>
  </g>
 </g>
 <defs>
  <clipPath id="pb2d392a00b">
   <rect x="35.03" y="0" width="504.97" height="97"/>
  </clipPath>
 </defs>
</svg>
